<?xml version="1.0" encoding="UTF-8" standalone="no"?>
<!DOCTYPE svg PUBLIC "-//W3C//DTD SVG 1.1//EN"
 "http://www.w3.org/Graphics/SVG/1.1/DTD/svg11.dtd">
<!-- Generated by graphviz version 2.43.0 (0)
 -->
<!-- Title: /home/runner/work/occ/occ/include/occ/io/adaptive_grid.h Pages: 1 -->
<svg width="956pt" height="280pt"
 viewBox="0.00 0.00 956.00 280.00" xmlns="http://www.w3.org/2000/svg" xmlns:xlink="http://www.w3.org/1999/xlink">
<g id="graph0" class="graph" transform="scale(1 1) rotate(0) translate(4 276)">
<title>/home/runner/work/occ/occ/include/occ/io/adaptive_grid.h</title>
<!-- Node1 -->
<g id="Node000001" class="node">
<title>Node1</title>
<g id="a_Node000001"><a xlink:title=" ">
<polygon fill="#999999" stroke="#666666" points="526.5,-272 374.5,-272 374.5,-231 526.5,-231 526.5,-272"/>
<text text-anchor="start" x="382.5" y="-260" font-family="Helvetica,sans-Serif" font-size="10.00">/home/runner/work/occ</text>
<text text-anchor="start" x="382.5" y="-249" font-family="Helvetica,sans-Serif" font-size="10.00">/occ/include/occ/io/adaptive</text>
<text text-anchor="middle" x="450.5" y="-238" font-family="Helvetica,sans-Serif" font-size="10.00">_grid.h</text>
</a>
</g>
</g>
<!-- Node2 -->
<g id="Node000002" class="node">
<title>Node2</title>
<g id="a_Node000002"><a xlink:href="linear__algebra_8h.html" target="_top" xlink:title=" ">
<polygon fill="white" stroke="#666666" points="520,-74 381,-74 381,-55 520,-55 520,-74"/>
<text text-anchor="middle" x="450.5" y="-62" font-family="Helvetica,sans-Serif" font-size="10.00">occ/core/linear_algebra.h</text>
</a>
</g>
</g>
<!-- Node1&#45;&gt;Node2 -->
<g id="edge1_Node000001_Node000002" class="edge">
<title>Node1&#45;&gt;Node2</title>
<g id="a_edge1_Node000001_Node000002"><a xlink:title=" ">
<path fill="none" stroke="#63b8ff" d="M418.75,-230.77C406.23,-221.43 392.87,-209.18 384.5,-195 365.08,-162.08 352.22,-143 371.5,-110 380.18,-95.14 395.85,-84.86 410.96,-77.95"/>
<polygon fill="#63b8ff" stroke="#63b8ff" points="412.35,-81.17 420.23,-74.08 409.65,-74.71 412.35,-81.17"/>
</a>
</g>
</g>
<!-- Node6 -->
<g id="Node000006" class="node">
<title>Node6</title>
<g id="a_Node000006"><a xlink:href="log_8h.html" target="_top" xlink:title=" ">
<polygon fill="white" stroke="#666666" points="196.5,-129 112.5,-129 112.5,-110 196.5,-110 196.5,-129"/>
<text text-anchor="middle" x="154.5" y="-117" font-family="Helvetica,sans-Serif" font-size="10.00">occ/core/log.h</text>
</a>
</g>
</g>
<!-- Node1&#45;&gt;Node6 -->
<g id="edge5_Node000001_Node000006" class="edge">
<title>Node1&#45;&gt;Node6</title>
<g id="a_edge5_Node000001_Node000006"><a xlink:title=" ">
<path fill="none" stroke="#63b8ff" d="M405.87,-230.9C344.26,-203.84 234.95,-155.83 183.19,-133.1"/>
<polygon fill="#63b8ff" stroke="#63b8ff" points="184.49,-129.85 173.93,-129.03 181.68,-136.26 184.49,-129.85"/>
</a>
</g>
</g>
<!-- Node11 -->
<g id="Node000011" class="node">
<title>Node11</title>
<g id="a_Node000011"><a xlink:href="molecule_8h.html" target="_top" xlink:title=" ">
<polygon fill="white" stroke="#666666" points="507.5,-189.5 393.5,-189.5 393.5,-170.5 507.5,-170.5 507.5,-189.5"/>
<text text-anchor="middle" x="450.5" y="-177.5" font-family="Helvetica,sans-Serif" font-size="10.00">occ/core/molecule.h</text>
</a>
</g>
</g>
<!-- Node1&#45;&gt;Node11 -->
<g id="edge10_Node000001_Node000011" class="edge">
<title>Node1&#45;&gt;Node11</title>
<g id="a_edge10_Node000001_Node000011"><a xlink:title=" ">
<path fill="none" stroke="#63b8ff" d="M450.5,-230.77C450.5,-221.08 450.5,-209.46 450.5,-199.88"/>
<polygon fill="#63b8ff" stroke="#63b8ff" points="454,-199.82 450.5,-189.82 447,-199.82 454,-199.82"/>
</a>
</g>
</g>
<!-- Node16 -->
<g id="Node000016" class="node">
<title>Node16</title>
<g id="a_Node000016"><a xlink:href="units_8h.html" target="_top" xlink:title=" ">
<polygon fill="white" stroke="#666666" points="871,-189.5 778,-189.5 778,-170.5 871,-170.5 871,-189.5"/>
<text text-anchor="middle" x="824.5" y="-177.5" font-family="Helvetica,sans-Serif" font-size="10.00">occ/core/units.h</text>
</a>
</g>
</g>
<!-- Node1&#45;&gt;Node16 -->
<g id="edge20_Node000001_Node000016" class="edge">
<title>Node1&#45;&gt;Node16</title>
<g id="a_edge20_Node000001_Node000016"><a xlink:title=" ">
<path fill="none" stroke="#63b8ff" d="M526.64,-236.35C598.4,-223.02 704.27,-203.34 768.56,-191.4"/>
<polygon fill="#63b8ff" stroke="#63b8ff" points="769.32,-194.81 778.51,-189.55 768.04,-187.93 769.32,-194.81"/>
</a>
</g>
</g>
<!-- Node19 -->
<g id="Node000019" class="node">
<title>Node19</title>
<g id="a_Node000019"><a xlink:href="volume__grid_8h.html" target="_top" xlink:title=" ">
<polygon fill="white" stroke="#666666" points="699,-195 576,-195 576,-165 699,-165 699,-195"/>
<text text-anchor="start" x="584" y="-183" font-family="Helvetica,sans-Serif" font-size="10.00">occ/geometry/volume</text>
<text text-anchor="middle" x="637.5" y="-172" font-family="Helvetica,sans-Serif" font-size="10.00">_grid.h</text>
</a>
</g>
</g>
<!-- Node1&#45;&gt;Node19 -->
<g id="edge23_Node000001_Node000019" class="edge">
<title>Node1&#45;&gt;Node19</title>
<g id="a_edge23_Node000001_Node000019"><a xlink:title=" ">
<path fill="none" stroke="#63b8ff" d="M503.09,-230.96C530.51,-220.76 563.78,-208.4 590.35,-198.52"/>
<polygon fill="#63b8ff" stroke="#63b8ff" points="591.67,-201.77 599.82,-195 589.23,-195.21 591.67,-201.77"/>
</a>
</g>
</g>
<!-- Node3 -->
<g id="Node000003" class="node">
<title>Node3</title>
<g id="a_Node000003"><a xlink:title=" ">
<polygon fill="#e0e0e0" stroke="#999999" points="386,-19 309,-19 309,0 386,0 386,-19"/>
<text text-anchor="middle" x="347.5" y="-7" font-family="Helvetica,sans-Serif" font-size="10.00">Eigen/Dense</text>
</a>
</g>
</g>
<!-- Node2&#45;&gt;Node3 -->
<g id="edge2_Node000002_Node000003" class="edge">
<title>Node2&#45;&gt;Node3</title>
<g id="a_edge2_Node000002_Node000003"><a xlink:title=" ">
<path fill="none" stroke="#63b8ff" d="M433.95,-54.98C417.61,-46.57 392.37,-33.59 373.37,-23.81"/>
<polygon fill="#63b8ff" stroke="#63b8ff" points="374.84,-20.63 364.35,-19.17 371.64,-26.86 374.84,-20.63"/>
</a>
</g>
</g>
<!-- Node4 -->
<g id="Node000004" class="node">
<title>Node4</title>
<g id="a_Node000004"><a xlink:title=" ">
<polygon fill="#e0e0e0" stroke="#999999" points="497,-19 404,-19 404,0 497,0 497,-19"/>
<text text-anchor="middle" x="450.5" y="-7" font-family="Helvetica,sans-Serif" font-size="10.00">Eigen/StdVector</text>
</a>
</g>
</g>
<!-- Node2&#45;&gt;Node4 -->
<g id="edge3_Node000002_Node000004" class="edge">
<title>Node2&#45;&gt;Node4</title>
<g id="a_edge3_Node000002_Node000004"><a xlink:title=" ">
<path fill="none" stroke="#63b8ff" d="M450.5,-54.75C450.5,-47.8 450.5,-37.85 450.5,-29.13"/>
<polygon fill="#63b8ff" stroke="#63b8ff" points="454,-29.09 450.5,-19.09 447,-29.09 454,-29.09"/>
</a>
</g>
</g>
<!-- Node5 -->
<g id="Node000005" class="node">
<title>Node5</title>
<g id="a_Node000005"><a xlink:title=" ">
<polygon fill="#e0e0e0" stroke="#999999" points="582,-19 515,-19 515,0 582,0 582,-19"/>
<text text-anchor="middle" x="548.5" y="-7" font-family="Helvetica,sans-Serif" font-size="10.00">fmt/core.h</text>
</a>
</g>
</g>
<!-- Node2&#45;&gt;Node5 -->
<g id="edge4_Node000002_Node000005" class="edge">
<title>Node2&#45;&gt;Node5</title>
<g id="a_edge4_Node000002_Node000005"><a xlink:title=" ">
<path fill="none" stroke="#63b8ff" d="M466.25,-54.98C481.73,-46.61 505.59,-33.7 523.64,-23.95"/>
<polygon fill="#63b8ff" stroke="#63b8ff" points="525.34,-27.01 532.47,-19.17 522.01,-20.85 525.34,-27.01"/>
</a>
</g>
</g>
<!-- Node7 -->
<g id="Node000007" class="node">
<title>Node7</title>
<g id="a_Node000007"><a xlink:title=" ">
<polygon fill="#e0e0e0" stroke="#999999" points="176,-74 111,-74 111,-55 176,-55 176,-74"/>
<text text-anchor="middle" x="143.5" y="-62" font-family="Helvetica,sans-Serif" font-size="10.00">functional</text>
</a>
</g>
</g>
<!-- Node6&#45;&gt;Node7 -->
<g id="edge6_Node000006_Node000007" class="edge">
<title>Node6&#45;&gt;Node7</title>
<g id="a_edge6_Node000006_Node000007"><a xlink:title=" ">
<path fill="none" stroke="#63b8ff" d="M152.68,-109.75C151.24,-102.8 149.18,-92.85 147.37,-84.13"/>
<polygon fill="#63b8ff" stroke="#63b8ff" points="150.74,-83.17 145.28,-74.09 143.89,-84.59 150.74,-83.17"/>
</a>
</g>
</g>
<!-- Node8 -->
<g id="Node000008" class="node">
<title>Node8</title>
<g id="a_Node000008"><a xlink:title=" ">
<polygon fill="#e0e0e0" stroke="#999999" points="93,-74 0,-74 0,-55 93,-55 93,-74"/>
<text text-anchor="middle" x="46.5" y="-62" font-family="Helvetica,sans-Serif" font-size="10.00">spdlog/spdlog.h</text>
</a>
</g>
</g>
<!-- Node6&#45;&gt;Node8 -->
<g id="edge7_Node000006_Node000008" class="edge">
<title>Node6&#45;&gt;Node8</title>
<g id="a_edge7_Node000006_Node000008"><a xlink:title=" ">
<path fill="none" stroke="#63b8ff" d="M137.15,-109.98C119.93,-101.54 93.3,-88.47 73.35,-78.68"/>
<polygon fill="#63b8ff" stroke="#63b8ff" points="74.69,-75.43 64.17,-74.17 71.6,-81.72 74.69,-75.43"/>
</a>
</g>
</g>
<!-- Node9 -->
<g id="Node000009" class="node">
<title>Node9</title>
<g id="a_Node000009"><a xlink:title=" ">
<polygon fill="#e0e0e0" stroke="#999999" points="238.5,-74 194.5,-74 194.5,-55 238.5,-55 238.5,-74"/>
<text text-anchor="middle" x="216.5" y="-62" font-family="Helvetica,sans-Serif" font-size="10.00">string</text>
</a>
</g>
</g>
<!-- Node6&#45;&gt;Node9 -->
<g id="edge8_Node000006_Node000009" class="edge">
<title>Node6&#45;&gt;Node9</title>
<g id="a_edge8_Node000006_Node000009"><a xlink:title=" ">
<path fill="none" stroke="#63b8ff" d="M164.46,-109.98C173.63,-102.15 187.44,-90.34 198.53,-80.86"/>
<polygon fill="#63b8ff" stroke="#63b8ff" points="201.03,-83.33 206.36,-74.17 196.48,-78.01 201.03,-83.33"/>
</a>
</g>
</g>
<!-- Node10 -->
<g id="Node000010" class="node">
<title>Node10</title>
<g id="a_Node000010"><a xlink:title=" ">
<polygon fill="#e0e0e0" stroke="#999999" points="304,-74 257,-74 257,-55 304,-55 304,-74"/>
<text text-anchor="middle" x="280.5" y="-62" font-family="Helvetica,sans-Serif" font-size="10.00">vector</text>
</a>
</g>
</g>
<!-- Node6&#45;&gt;Node10 -->
<g id="edge9_Node000006_Node000010" class="edge">
<title>Node6&#45;&gt;Node10</title>
<g id="a_edge9_Node000006_Node000010"><a xlink:title=" ">
<path fill="none" stroke="#63b8ff" d="M174.74,-109.98C195.2,-101.38 227.03,-87.99 250.43,-78.15"/>
<polygon fill="#63b8ff" stroke="#63b8ff" points="252.03,-81.27 259.89,-74.17 249.31,-74.82 252.03,-81.27"/>
</a>
</g>
</g>
<!-- Node11&#45;&gt;Node2 -->
<g id="edge18_Node000011_Node000002" class="edge">
<title>Node11&#45;&gt;Node2</title>
<g id="a_edge18_Node000011_Node000002"><a xlink:title=" ">
<path fill="none" stroke="#63b8ff" d="M450.5,-170.47C450.5,-152.23 450.5,-109.07 450.5,-84.14"/>
<polygon fill="#63b8ff" stroke="#63b8ff" points="454,-84.13 450.5,-74.13 447,-84.13 454,-84.13"/>
</a>
</g>
</g>
<!-- Node12 -->
<g id="Node000012" class="node">
<title>Node12</title>
<g id="a_Node000012"><a xlink:title=" ">
<polygon fill="#e0e0e0" stroke="#999999" points="634.5,-129 592.5,-129 592.5,-110 634.5,-110 634.5,-129"/>
<text text-anchor="middle" x="613.5" y="-117" font-family="Helvetica,sans-Serif" font-size="10.00">array</text>
</a>
</g>
</g>
<!-- Node11&#45;&gt;Node12 -->
<g id="edge11_Node000011_Node000012" class="edge">
<title>Node11&#45;&gt;Node12</title>
<g id="a_edge11_Node000011_Node000012"><a xlink:title=" ">
<path fill="none" stroke="#63b8ff" d="M474.2,-170.49C502.88,-160.2 551.24,-142.84 582.77,-131.53"/>
<polygon fill="#63b8ff" stroke="#63b8ff" points="584.13,-134.76 592.36,-128.09 581.77,-128.17 584.13,-134.76"/>
</a>
</g>
</g>
<!-- Node13 -->
<g id="Node000013" class="node">
<title>Node13</title>
<g id="a_Node000013"><a xlink:href="atom_8h.html" target="_top" xlink:title=" ">
<polygon fill="white" stroke="#666666" points="574,-129 479,-129 479,-110 574,-110 574,-129"/>
<text text-anchor="middle" x="526.5" y="-117" font-family="Helvetica,sans-Serif" font-size="10.00">occ/core/atom.h</text>
</a>
</g>
</g>
<!-- Node11&#45;&gt;Node13 -->
<g id="edge12_Node000011_Node000013" class="edge">
<title>Node11&#45;&gt;Node13</title>
<g id="a_edge12_Node000011_Node000013"><a xlink:title=" ">
<path fill="none" stroke="#63b8ff" d="M461.71,-170.37C473.61,-161.21 492.64,-146.56 507.01,-135.51"/>
<polygon fill="#63b8ff" stroke="#63b8ff" points="509.45,-138.04 515.24,-129.17 505.18,-132.49 509.45,-138.04"/>
</a>
</g>
</g>
<!-- Node14 -->
<g id="Node000014" class="node">
<title>Node14</title>
<g id="a_Node000014"><a xlink:href="element_8h.html" target="_top" xlink:title=" ">
<polygon fill="white" stroke="#666666" points="324.5,-129 214.5,-129 214.5,-110 324.5,-110 324.5,-129"/>
<text text-anchor="middle" x="269.5" y="-117" font-family="Helvetica,sans-Serif" font-size="10.00">occ/core/element.h</text>
</a>
</g>
</g>
<!-- Node11&#45;&gt;Node14 -->
<g id="edge14_Node000011_Node000014" class="edge">
<title>Node11&#45;&gt;Node14</title>
<g id="a_edge14_Node000011_Node000014"><a xlink:title=" ">
<path fill="none" stroke="#63b8ff" d="M424.18,-170.49C392.95,-160.4 340.7,-143.51 305.68,-132.19"/>
<polygon fill="#63b8ff" stroke="#63b8ff" points="306.44,-128.76 295.85,-129.02 304.29,-135.42 306.44,-128.76"/>
</a>
</g>
</g>
<!-- Node15 -->
<g id="Node000015" class="node">
<title>Node15</title>
<g id="a_Node000015"><a xlink:title=" ">
<polygon fill="#e0e0e0" stroke="#999999" points="422,-129 381,-129 381,-110 422,-110 422,-129"/>
<text text-anchor="middle" x="401.5" y="-117" font-family="Helvetica,sans-Serif" font-size="10.00">tuple</text>
</a>
</g>
</g>
<!-- Node11&#45;&gt;Node15 -->
<g id="edge19_Node000011_Node000015" class="edge">
<title>Node11&#45;&gt;Node15</title>
<g id="a_edge19_Node000011_Node000015"><a xlink:title=" ">
<path fill="none" stroke="#63b8ff" d="M443.27,-170.37C435.96,-161.64 424.48,-147.93 415.4,-137.09"/>
<polygon fill="#63b8ff" stroke="#63b8ff" points="417.86,-134.59 408.76,-129.17 412.5,-139.08 417.86,-134.59"/>
</a>
</g>
</g>
<!-- Node13&#45;&gt;Node2 -->
<g id="edge13_Node000013_Node000002" class="edge">
<title>Node13&#45;&gt;Node2</title>
<g id="a_edge13_Node000013_Node000002"><a xlink:title=" ">
<path fill="none" stroke="#63b8ff" d="M514.29,-109.98C502.72,-101.92 485.12,-89.65 471.34,-80.03"/>
<polygon fill="#63b8ff" stroke="#63b8ff" points="473.14,-77.02 462.93,-74.17 469.13,-82.76 473.14,-77.02"/>
</a>
</g>
</g>
<!-- Node14&#45;&gt;Node2 -->
<g id="edge17_Node000014_Node000002" class="edge">
<title>Node14&#45;&gt;Node2</title>
<g id="a_edge17_Node000014_Node000002"><a xlink:title=" ">
<path fill="none" stroke="#63b8ff" d="M298.58,-109.98C329.1,-101.05 377.26,-86.94 411.16,-77.02"/>
<polygon fill="#63b8ff" stroke="#63b8ff" points="412.58,-80.25 421.19,-74.08 410.61,-73.53 412.58,-80.25"/>
</a>
</g>
</g>
<!-- Node14&#45;&gt;Node9 -->
<g id="edge15_Node000014_Node000009" class="edge">
<title>Node14&#45;&gt;Node9</title>
<g id="a_edge15_Node000014_Node000009"><a xlink:title=" ">
<path fill="none" stroke="#63b8ff" d="M260.75,-109.75C253.03,-102.03 241.6,-90.6 232.28,-81.28"/>
<polygon fill="#63b8ff" stroke="#63b8ff" points="234.64,-78.69 225.09,-74.09 229.69,-83.64 234.64,-78.69"/>
</a>
</g>
</g>
<!-- Node14&#45;&gt;Node10 -->
<g id="edge16_Node000014_Node000010" class="edge">
<title>Node14&#45;&gt;Node10</title>
<g id="a_edge16_Node000014_Node000010"><a xlink:title=" ">
<path fill="none" stroke="#63b8ff" d="M271.32,-109.75C272.76,-102.8 274.82,-92.85 276.63,-84.13"/>
<polygon fill="#63b8ff" stroke="#63b8ff" points="280.11,-84.59 278.72,-74.09 273.26,-83.17 280.11,-84.59"/>
</a>
</g>
</g>
<!-- Node17 -->
<g id="Node000017" class="node">
<title>Node17</title>
<g id="a_Node000017"><a xlink:title=" ">
<polygon fill="#e0e0e0" stroke="#999999" points="948,-129 901,-129 901,-110 948,-110 948,-129"/>
<text text-anchor="middle" x="924.5" y="-117" font-family="Helvetica,sans-Serif" font-size="10.00">cmath</text>
</a>
</g>
</g>
<!-- Node16&#45;&gt;Node17 -->
<g id="edge21_Node000016_Node000017" class="edge">
<title>Node16&#45;&gt;Node17</title>
<g id="a_edge21_Node000016_Node000017"><a xlink:title=" ">
<path fill="none" stroke="#63b8ff" d="M839.26,-170.37C855.5,-160.86 881.85,-145.45 900.96,-134.27"/>
<polygon fill="#63b8ff" stroke="#63b8ff" points="902.82,-137.24 909.68,-129.17 899.29,-131.2 902.82,-137.24"/>
</a>
</g>
</g>
<!-- Node18 -->
<g id="Node000018" class="node">
<title>Node18</title>
<g id="a_Node000018"><a xlink:href="constants_8h.html" target="_top" xlink:title=" ">
<polygon fill="white" stroke="#666666" points="882.5,-129 766.5,-129 766.5,-110 882.5,-110 882.5,-129"/>
<text text-anchor="middle" x="824.5" y="-117" font-family="Helvetica,sans-Serif" font-size="10.00">occ/core/constants.h</text>
</a>
</g>
</g>
<!-- Node16&#45;&gt;Node18 -->
<g id="edge22_Node000016_Node000018" class="edge">
<title>Node16&#45;&gt;Node18</title>
<g id="a_edge22_Node000016_Node000018"><a xlink:title=" ">
<path fill="none" stroke="#63b8ff" d="M824.5,-170.37C824.5,-162.25 824.5,-149.81 824.5,-139.39"/>
<polygon fill="#63b8ff" stroke="#63b8ff" points="828,-139.17 824.5,-129.17 821,-139.17 828,-139.17"/>
</a>
</g>
</g>
<!-- Node19&#45;&gt;Node2 -->
<g id="edge26_Node000019_Node000002" class="edge">
<title>Node19&#45;&gt;Node2</title>
<g id="a_edge26_Node000019_Node000002"><a xlink:title=" ">
<path fill="none" stroke="#63b8ff" d="M643.92,-164.93C649.79,-149.7 655.85,-125.53 643.5,-110 629.14,-91.95 576.83,-80.6 530.28,-73.88"/>
<polygon fill="#63b8ff" stroke="#63b8ff" points="530.53,-70.38 520.15,-72.48 529.57,-77.32 530.53,-70.38"/>
</a>
</g>
</g>
<!-- Node19&#45;&gt;Node12 -->
<g id="edge24_Node000019_Node000012" class="edge">
<title>Node19&#45;&gt;Node12</title>
<g id="a_edge24_Node000019_Node000012"><a xlink:title=" ">
<path fill="none" stroke="#63b8ff" d="M631.69,-164.84C628.46,-156.95 624.39,-147.05 620.93,-138.61"/>
<polygon fill="#63b8ff" stroke="#63b8ff" points="624.13,-137.19 617.1,-129.27 617.65,-139.85 624.13,-137.19"/>
</a>
</g>
</g>
<!-- Node20 -->
<g id="Node000020" class="node">
<title>Node20</title>
<g id="a_Node000020"><a xlink:title=" ">
<polygon fill="#e0e0e0" stroke="#999999" points="748.5,-129 690.5,-129 690.5,-110 748.5,-110 748.5,-129"/>
<text text-anchor="middle" x="719.5" y="-117" font-family="Helvetica,sans-Serif" font-size="10.00">memory</text>
</a>
</g>
</g>
<!-- Node19&#45;&gt;Node20 -->
<g id="edge25_Node000019_Node000020" class="edge">
<title>Node19&#45;&gt;Node20</title>
<g id="a_edge25_Node000019_Node000020"><a xlink:title=" ">
<path fill="none" stroke="#63b8ff" d="M657.35,-164.84C669.98,-155.83 686.3,-144.18 699.05,-135.09"/>
<polygon fill="#63b8ff" stroke="#63b8ff" points="701.1,-137.92 707.21,-129.27 697.04,-132.22 701.1,-137.92"/>
</a>
</g>
</g>
</g>
</svg>
