<?xml version="1.0" encoding="UTF-8" standalone="no"?>
<!DOCTYPE svg PUBLIC "-//W3C//DTD SVG 1.1//EN"
 "http://www.w3.org/Graphics/SVG/1.1/DTD/svg11.dtd">
<!-- Generated by graphviz version 2.43.0 (0)
 -->
<!-- Title: /home/runner/work/occ/occ/include/occ/io/adaptive_grid.h Pages: 1 -->
<svg width="949pt" height="280pt"
 viewBox="0.00 0.00 949.00 280.00" xmlns="http://www.w3.org/2000/svg" xmlns:xlink="http://www.w3.org/1999/xlink">
<g id="graph0" class="graph" transform="scale(1 1) rotate(0) translate(4 276)">
<title>/home/runner/work/occ/occ/include/occ/io/adaptive_grid.h</title>
<!-- Node1 -->
<g id="Node000001" class="node">
<title>Node1</title>
<g id="a_Node000001"><a xlink:title=" ">
<polygon fill="#999999" stroke="#666666" points="519.5,-272 367.5,-272 367.5,-231 519.5,-231 519.5,-272"/>
<text text-anchor="start" x="375.5" y="-260" font-family="Helvetica,sans-Serif" font-size="10.00">/home/runner/work/occ</text>
<text text-anchor="start" x="375.5" y="-249" font-family="Helvetica,sans-Serif" font-size="10.00">/occ/include/occ/io/adaptive</text>
<text text-anchor="middle" x="443.5" y="-238" font-family="Helvetica,sans-Serif" font-size="10.00">_grid.h</text>
</a>
</g>
</g>
<!-- Node2 -->
<g id="Node000002" class="node">
<title>Node2</title>
<g id="a_Node000002"><a xlink:href="linear__algebra_8h.html" target="_top" xlink:title=" ">
<polygon fill="white" stroke="#666666" points="551,-74 412,-74 412,-55 551,-55 551,-74"/>
<text text-anchor="middle" x="481.5" y="-62" font-family="Helvetica,sans-Serif" font-size="10.00">occ/core/linear_algebra.h</text>
</a>
</g>
</g>
<!-- Node1&#45;&gt;Node2 -->
<g id="edge1_Node000001_Node000002" class="edge">
<title>Node1&#45;&gt;Node2</title>
<g id="a_edge1_Node000001_Node000002"><a xlink:title=" ">
<path fill="none" stroke="#63b8ff" d="M411.75,-230.77C399.23,-221.43 385.87,-209.18 377.5,-195 358.08,-162.08 342.81,-141.46 364.5,-110 375.53,-94 393.13,-83.75 411.36,-77.18"/>
<polygon fill="#63b8ff" stroke="#63b8ff" points="412.5,-80.5 420.92,-74.08 410.33,-73.84 412.5,-80.5"/>
</a>
</g>
</g>
<!-- Node6 -->
<g id="Node000006" class="node">
<title>Node6</title>
<g id="a_Node000006"><a xlink:href="log_8h.html" target="_top" xlink:title=" ">
<polygon fill="white" stroke="#666666" points="189.5,-129 105.5,-129 105.5,-110 189.5,-110 189.5,-129"/>
<text text-anchor="middle" x="147.5" y="-117" font-family="Helvetica,sans-Serif" font-size="10.00">occ/core/log.h</text>
</a>
</g>
</g>
<!-- Node1&#45;&gt;Node6 -->
<g id="edge5_Node000001_Node000006" class="edge">
<title>Node1&#45;&gt;Node6</title>
<g id="a_edge5_Node000001_Node000006"><a xlink:title=" ">
<path fill="none" stroke="#63b8ff" d="M398.87,-230.9C337.26,-203.84 227.95,-155.83 176.19,-133.1"/>
<polygon fill="#63b8ff" stroke="#63b8ff" points="177.49,-129.85 166.93,-129.03 174.68,-136.26 177.49,-129.85"/>
</a>
</g>
</g>
<!-- Node11 -->
<g id="Node000011" class="node">
<title>Node11</title>
<g id="a_Node000011"><a xlink:href="molecule_8h.html" target="_top" xlink:title=" ">
<polygon fill="white" stroke="#666666" points="500.5,-189.5 386.5,-189.5 386.5,-170.5 500.5,-170.5 500.5,-189.5"/>
<text text-anchor="middle" x="443.5" y="-177.5" font-family="Helvetica,sans-Serif" font-size="10.00">occ/core/molecule.h</text>
</a>
</g>
</g>
<!-- Node1&#45;&gt;Node11 -->
<g id="edge10_Node000001_Node000011" class="edge">
<title>Node1&#45;&gt;Node11</title>
<g id="a_edge10_Node000001_Node000011"><a xlink:title=" ">
<path fill="none" stroke="#63b8ff" d="M443.5,-230.77C443.5,-221.08 443.5,-209.46 443.5,-199.88"/>
<polygon fill="#63b8ff" stroke="#63b8ff" points="447,-199.82 443.5,-189.82 440,-199.82 447,-199.82"/>
</a>
</g>
</g>
<!-- Node16 -->
<g id="Node000016" class="node">
<title>Node16</title>
<g id="a_Node000016"><a xlink:href="units_8h.html" target="_top" xlink:title=" ">
<polygon fill="white" stroke="#666666" points="864,-189.5 771,-189.5 771,-170.5 864,-170.5 864,-189.5"/>
<text text-anchor="middle" x="817.5" y="-177.5" font-family="Helvetica,sans-Serif" font-size="10.00">occ/core/units.h</text>
</a>
</g>
</g>
<!-- Node1&#45;&gt;Node16 -->
<g id="edge19_Node000001_Node000016" class="edge">
<title>Node1&#45;&gt;Node16</title>
<g id="a_edge19_Node000001_Node000016"><a xlink:title=" ">
<path fill="none" stroke="#63b8ff" d="M519.64,-236.35C591.4,-223.02 697.27,-203.34 761.56,-191.4"/>
<polygon fill="#63b8ff" stroke="#63b8ff" points="762.32,-194.81 771.51,-189.55 761.04,-187.93 762.32,-194.81"/>
</a>
</g>
</g>
<!-- Node19 -->
<g id="Node000019" class="node">
<title>Node19</title>
<g id="a_Node000019"><a xlink:href="volume__grid_8h.html" target="_top" xlink:title=" ">
<polygon fill="white" stroke="#666666" points="692,-195 569,-195 569,-165 692,-165 692,-195"/>
<text text-anchor="start" x="577" y="-183" font-family="Helvetica,sans-Serif" font-size="10.00">occ/geometry/volume</text>
<text text-anchor="middle" x="630.5" y="-172" font-family="Helvetica,sans-Serif" font-size="10.00">_grid.h</text>
</a>
</g>
</g>
<!-- Node1&#45;&gt;Node19 -->
<g id="edge22_Node000001_Node000019" class="edge">
<title>Node1&#45;&gt;Node19</title>
<g id="a_edge22_Node000001_Node000019"><a xlink:title=" ">
<path fill="none" stroke="#63b8ff" d="M496.09,-230.96C523.51,-220.76 556.78,-208.4 583.35,-198.52"/>
<polygon fill="#63b8ff" stroke="#63b8ff" points="584.67,-201.77 592.82,-195 582.23,-195.21 584.67,-201.77"/>
</a>
</g>
</g>
<!-- Node3 -->
<g id="Node000003" class="node">
<title>Node3</title>
<g id="a_Node000003"><a xlink:title=" ">
<polygon fill="#e0e0e0" stroke="#999999" points="417,-19 340,-19 340,0 417,0 417,-19"/>
<text text-anchor="middle" x="378.5" y="-7" font-family="Helvetica,sans-Serif" font-size="10.00">Eigen/Dense</text>
</a>
</g>
</g>
<!-- Node2&#45;&gt;Node3 -->
<g id="edge2_Node000002_Node000003" class="edge">
<title>Node2&#45;&gt;Node3</title>
<g id="a_edge2_Node000002_Node000003"><a xlink:title=" ">
<path fill="none" stroke="#63b8ff" d="M464.95,-54.98C448.61,-46.57 423.37,-33.59 404.37,-23.81"/>
<polygon fill="#63b8ff" stroke="#63b8ff" points="405.84,-20.63 395.35,-19.17 402.64,-26.86 405.84,-20.63"/>
</a>
</g>
</g>
<!-- Node4 -->
<g id="Node000004" class="node">
<title>Node4</title>
<g id="a_Node000004"><a xlink:title=" ">
<polygon fill="#e0e0e0" stroke="#999999" points="528,-19 435,-19 435,0 528,0 528,-19"/>
<text text-anchor="middle" x="481.5" y="-7" font-family="Helvetica,sans-Serif" font-size="10.00">Eigen/StdVector</text>
</a>
</g>
</g>
<!-- Node2&#45;&gt;Node4 -->
<g id="edge3_Node000002_Node000004" class="edge">
<title>Node2&#45;&gt;Node4</title>
<g id="a_edge3_Node000002_Node000004"><a xlink:title=" ">
<path fill="none" stroke="#63b8ff" d="M481.5,-54.75C481.5,-47.8 481.5,-37.85 481.5,-29.13"/>
<polygon fill="#63b8ff" stroke="#63b8ff" points="485,-29.09 481.5,-19.09 478,-29.09 485,-29.09"/>
</a>
</g>
</g>
<!-- Node5 -->
<g id="Node000005" class="node">
<title>Node5</title>
<g id="a_Node000005"><a xlink:title=" ">
<polygon fill="#e0e0e0" stroke="#999999" points="613,-19 546,-19 546,0 613,0 613,-19"/>
<text text-anchor="middle" x="579.5" y="-7" font-family="Helvetica,sans-Serif" font-size="10.00">fmt/core.h</text>
</a>
</g>
</g>
<!-- Node2&#45;&gt;Node5 -->
<g id="edge4_Node000002_Node000005" class="edge">
<title>Node2&#45;&gt;Node5</title>
<g id="a_edge4_Node000002_Node000005"><a xlink:title=" ">
<path fill="none" stroke="#63b8ff" d="M497.25,-54.98C512.73,-46.61 536.59,-33.7 554.64,-23.95"/>
<polygon fill="#63b8ff" stroke="#63b8ff" points="556.34,-27.01 563.47,-19.17 553.01,-20.85 556.34,-27.01"/>
</a>
</g>
</g>
<!-- Node7 -->
<g id="Node000007" class="node">
<title>Node7</title>
<g id="a_Node000007"><a xlink:title=" ">
<polygon fill="#e0e0e0" stroke="#999999" points="65,-74 0,-74 0,-55 65,-55 65,-74"/>
<text text-anchor="middle" x="32.5" y="-62" font-family="Helvetica,sans-Serif" font-size="10.00">functional</text>
</a>
</g>
</g>
<!-- Node6&#45;&gt;Node7 -->
<g id="edge6_Node000006_Node000007" class="edge">
<title>Node6&#45;&gt;Node7</title>
<g id="a_edge6_Node000006_Node000007"><a xlink:title=" ">
<path fill="none" stroke="#63b8ff" d="M129.02,-109.98C110.52,-101.46 81.82,-88.23 60.52,-78.41"/>
<polygon fill="#63b8ff" stroke="#63b8ff" points="61.86,-75.18 51.31,-74.17 58.93,-81.53 61.86,-75.18"/>
</a>
</g>
</g>
<!-- Node8 -->
<g id="Node000008" class="node">
<title>Node8</title>
<g id="a_Node000008"><a xlink:title=" ">
<polygon fill="#e0e0e0" stroke="#999999" points="176,-74 83,-74 83,-55 176,-55 176,-74"/>
<text text-anchor="middle" x="129.5" y="-62" font-family="Helvetica,sans-Serif" font-size="10.00">spdlog/spdlog.h</text>
</a>
</g>
</g>
<!-- Node6&#45;&gt;Node8 -->
<g id="edge7_Node000006_Node000008" class="edge">
<title>Node6&#45;&gt;Node8</title>
<g id="a_edge7_Node000006_Node000008"><a xlink:title=" ">
<path fill="none" stroke="#63b8ff" d="M144.53,-109.75C142.14,-102.72 138.71,-92.62 135.73,-83.84"/>
<polygon fill="#63b8ff" stroke="#63b8ff" points="138.95,-82.43 132.42,-74.09 132.32,-84.68 138.95,-82.43"/>
</a>
</g>
</g>
<!-- Node9 -->
<g id="Node000009" class="node">
<title>Node9</title>
<g id="a_Node000009"><a xlink:title=" ">
<polygon fill="#e0e0e0" stroke="#999999" points="303.5,-74 259.5,-74 259.5,-55 303.5,-55 303.5,-74"/>
<text text-anchor="middle" x="281.5" y="-62" font-family="Helvetica,sans-Serif" font-size="10.00">string</text>
</a>
</g>
</g>
<!-- Node6&#45;&gt;Node9 -->
<g id="edge8_Node000006_Node000009" class="edge">
<title>Node6&#45;&gt;Node9</title>
<g id="a_edge8_Node000006_Node000009"><a xlink:title=" ">
<path fill="none" stroke="#63b8ff" d="M169.03,-109.98C190.97,-101.3 225.24,-87.75 250.19,-77.88"/>
<polygon fill="#63b8ff" stroke="#63b8ff" points="251.57,-81.1 259.58,-74.17 248.99,-74.59 251.57,-81.1"/>
</a>
</g>
</g>
<!-- Node10 -->
<g id="Node000010" class="node">
<title>Node10</title>
<g id="a_Node000010"><a xlink:title=" ">
<polygon fill="#e0e0e0" stroke="#999999" points="241,-74 194,-74 194,-55 241,-55 241,-74"/>
<text text-anchor="middle" x="217.5" y="-62" font-family="Helvetica,sans-Serif" font-size="10.00">vector</text>
</a>
</g>
</g>
<!-- Node6&#45;&gt;Node10 -->
<g id="edge9_Node000006_Node000010" class="edge">
<title>Node6&#45;&gt;Node10</title>
<g id="a_edge9_Node000006_Node000010"><a xlink:title=" ">
<path fill="none" stroke="#63b8ff" d="M158.75,-109.98C169.3,-102 185.3,-89.88 197.94,-80.31"/>
<polygon fill="#63b8ff" stroke="#63b8ff" points="200.19,-83 206.05,-74.17 195.96,-77.42 200.19,-83"/>
</a>
</g>
</g>
<!-- Node11&#45;&gt;Node2 -->
<g id="edge17_Node000011_Node000002" class="edge">
<title>Node11&#45;&gt;Node2</title>
<g id="a_edge17_Node000011_Node000002"><a xlink:title=" ">
<path fill="none" stroke="#63b8ff" d="M445.48,-170.39C448.58,-157.22 455.04,-131.35 462.5,-110 465.62,-101.08 469.66,-91.4 473.22,-83.36"/>
<polygon fill="#63b8ff" stroke="#63b8ff" points="476.42,-84.78 477.36,-74.23 470.04,-81.89 476.42,-84.78"/>
</a>
</g>
</g>
<!-- Node12 -->
<g id="Node000012" class="node">
<title>Node12</title>
<g id="a_Node000012"><a xlink:title=" ">
<polygon fill="#e0e0e0" stroke="#999999" points="627.5,-129 585.5,-129 585.5,-110 627.5,-110 627.5,-129"/>
<text text-anchor="middle" x="606.5" y="-117" font-family="Helvetica,sans-Serif" font-size="10.00">array</text>
</a>
</g>
</g>
<!-- Node11&#45;&gt;Node12 -->
<g id="edge11_Node000011_Node000012" class="edge">
<title>Node11&#45;&gt;Node12</title>
<g id="a_edge11_Node000011_Node000012"><a xlink:title=" ">
<path fill="none" stroke="#63b8ff" d="M467.2,-170.49C495.88,-160.2 544.24,-142.84 575.77,-131.53"/>
<polygon fill="#63b8ff" stroke="#63b8ff" points="577.13,-134.76 585.36,-128.09 574.77,-128.17 577.13,-134.76"/>
</a>
</g>
</g>
<!-- Node13 -->
<g id="Node000013" class="node">
<title>Node13</title>
<g id="a_Node000013"><a xlink:href="atom_8h.html" target="_top" xlink:title=" ">
<polygon fill="white" stroke="#666666" points="567,-129 472,-129 472,-110 567,-110 567,-129"/>
<text text-anchor="middle" x="519.5" y="-117" font-family="Helvetica,sans-Serif" font-size="10.00">occ/core/atom.h</text>
</a>
</g>
</g>
<!-- Node11&#45;&gt;Node13 -->
<g id="edge12_Node000011_Node000013" class="edge">
<title>Node11&#45;&gt;Node13</title>
<g id="a_edge12_Node000011_Node000013"><a xlink:title=" ">
<path fill="none" stroke="#63b8ff" d="M454.71,-170.37C466.61,-161.21 485.64,-146.56 500.01,-135.51"/>
<polygon fill="#63b8ff" stroke="#63b8ff" points="502.45,-138.04 508.24,-129.17 498.18,-132.49 502.45,-138.04"/>
</a>
</g>
</g>
<!-- Node14 -->
<g id="Node000014" class="node">
<title>Node14</title>
<g id="a_Node000014"><a xlink:href="element_8h.html" target="_top" xlink:title=" ">
<polygon fill="white" stroke="#666666" points="317.5,-129 207.5,-129 207.5,-110 317.5,-110 317.5,-129"/>
<text text-anchor="middle" x="262.5" y="-117" font-family="Helvetica,sans-Serif" font-size="10.00">occ/core/element.h</text>
</a>
</g>
</g>
<!-- Node11&#45;&gt;Node14 -->
<g id="edge14_Node000011_Node000014" class="edge">
<title>Node11&#45;&gt;Node14</title>
<g id="a_edge14_Node000011_Node000014"><a xlink:title=" ">
<path fill="none" stroke="#63b8ff" d="M417.18,-170.49C385.95,-160.4 333.7,-143.51 298.68,-132.19"/>
<polygon fill="#63b8ff" stroke="#63b8ff" points="299.44,-128.76 288.85,-129.02 297.29,-135.42 299.44,-128.76"/>
</a>
</g>
</g>
<!-- Node15 -->
<g id="Node000015" class="node">
<title>Node15</title>
<g id="a_Node000015"><a xlink:title=" ">
<polygon fill="#e0e0e0" stroke="#999999" points="415,-129 374,-129 374,-110 415,-110 415,-129"/>
<text text-anchor="middle" x="394.5" y="-117" font-family="Helvetica,sans-Serif" font-size="10.00">tuple</text>
</a>
</g>
</g>
<!-- Node11&#45;&gt;Node15 -->
<g id="edge18_Node000011_Node000015" class="edge">
<title>Node11&#45;&gt;Node15</title>
<g id="a_edge18_Node000011_Node000015"><a xlink:title=" ">
<path fill="none" stroke="#63b8ff" d="M436.27,-170.37C428.96,-161.64 417.48,-147.93 408.4,-137.09"/>
<polygon fill="#63b8ff" stroke="#63b8ff" points="410.86,-134.59 401.76,-129.17 405.5,-139.08 410.86,-134.59"/>
</a>
</g>
</g>
<!-- Node13&#45;&gt;Node2 -->
<g id="edge13_Node000013_Node000002" class="edge">
<title>Node13&#45;&gt;Node2</title>
<g id="a_edge13_Node000013_Node000002"><a xlink:title=" ">
<path fill="none" stroke="#63b8ff" d="M513.23,-109.75C507.91,-102.34 500.14,-91.5 493.62,-82.41"/>
<polygon fill="#63b8ff" stroke="#63b8ff" points="496.33,-80.18 487.66,-74.09 490.64,-84.26 496.33,-80.18"/>
</a>
</g>
</g>
<!-- Node14&#45;&gt;Node9 -->
<g id="edge15_Node000014_Node000009" class="edge">
<title>Node14&#45;&gt;Node9</title>
<g id="a_edge15_Node000014_Node000009"><a xlink:title=" ">
<path fill="none" stroke="#63b8ff" d="M265.64,-109.75C268.18,-102.65 271.86,-92.4 275.03,-83.56"/>
<polygon fill="#63b8ff" stroke="#63b8ff" points="278.34,-84.68 278.42,-74.09 271.75,-82.32 278.34,-84.68"/>
</a>
</g>
</g>
<!-- Node14&#45;&gt;Node10 -->
<g id="edge16_Node000014_Node000010" class="edge">
<title>Node14&#45;&gt;Node10</title>
<g id="a_edge16_Node000014_Node000010"><a xlink:title=" ">
<path fill="none" stroke="#63b8ff" d="M255.07,-109.75C248.65,-102.18 239.19,-91.05 231.38,-81.84"/>
<polygon fill="#63b8ff" stroke="#63b8ff" points="233.93,-79.45 224.79,-74.09 228.6,-83.98 233.93,-79.45"/>
</a>
</g>
</g>
<!-- Node17 -->
<g id="Node000017" class="node">
<title>Node17</title>
<g id="a_Node000017"><a xlink:title=" ">
<polygon fill="#e0e0e0" stroke="#999999" points="941,-129 894,-129 894,-110 941,-110 941,-129"/>
<text text-anchor="middle" x="917.5" y="-117" font-family="Helvetica,sans-Serif" font-size="10.00">cmath</text>
</a>
</g>
</g>
<!-- Node16&#45;&gt;Node17 -->
<g id="edge20_Node000016_Node000017" class="edge">
<title>Node16&#45;&gt;Node17</title>
<g id="a_edge20_Node000016_Node000017"><a xlink:title=" ">
<path fill="none" stroke="#63b8ff" d="M832.26,-170.37C848.5,-160.86 874.85,-145.45 893.96,-134.27"/>
<polygon fill="#63b8ff" stroke="#63b8ff" points="895.82,-137.24 902.68,-129.17 892.29,-131.2 895.82,-137.24"/>
</a>
</g>
</g>
<!-- Node18 -->
<g id="Node000018" class="node">
<title>Node18</title>
<g id="a_Node000018"><a xlink:href="constants_8h.html" target="_top" xlink:title=" ">
<polygon fill="white" stroke="#666666" points="875.5,-129 759.5,-129 759.5,-110 875.5,-110 875.5,-129"/>
<text text-anchor="middle" x="817.5" y="-117" font-family="Helvetica,sans-Serif" font-size="10.00">occ/core/constants.h</text>
</a>
</g>
</g>
<!-- Node16&#45;&gt;Node18 -->
<g id="edge21_Node000016_Node000018" class="edge">
<title>Node16&#45;&gt;Node18</title>
<g id="a_edge21_Node000016_Node000018"><a xlink:title=" ">
<path fill="none" stroke="#63b8ff" d="M817.5,-170.37C817.5,-162.25 817.5,-149.81 817.5,-139.39"/>
<polygon fill="#63b8ff" stroke="#63b8ff" points="821,-139.17 817.5,-129.17 814,-139.17 821,-139.17"/>
</a>
</g>
</g>
<!-- Node19&#45;&gt;Node2 -->
<g id="edge25_Node000019_Node000002" class="edge">
<title>Node19&#45;&gt;Node2</title>
<g id="a_edge25_Node000019_Node000002"><a xlink:title=" ">
<path fill="none" stroke="#63b8ff" d="M636.86,-164.77C642.57,-149.64 648.37,-125.75 636.5,-110 625.21,-95.01 583.26,-83.52 545.85,-75.97"/>
<polygon fill="#63b8ff" stroke="#63b8ff" points="546.43,-72.52 535.95,-74.05 545.09,-79.39 546.43,-72.52"/>
</a>
</g>
</g>
<!-- Node19&#45;&gt;Node12 -->
<g id="edge23_Node000019_Node000012" class="edge">
<title>Node19&#45;&gt;Node12</title>
<g id="a_edge23_Node000019_Node000012"><a xlink:title=" ">
<path fill="none" stroke="#63b8ff" d="M624.69,-164.84C621.46,-156.95 617.39,-147.05 613.93,-138.61"/>
<polygon fill="#63b8ff" stroke="#63b8ff" points="617.13,-137.19 610.1,-129.27 610.65,-139.85 617.13,-137.19"/>
</a>
</g>
</g>
<!-- Node20 -->
<g id="Node000020" class="node">
<title>Node20</title>
<g id="a_Node000020"><a xlink:title=" ">
<polygon fill="#e0e0e0" stroke="#999999" points="741.5,-129 683.5,-129 683.5,-110 741.5,-110 741.5,-129"/>
<text text-anchor="middle" x="712.5" y="-117" font-family="Helvetica,sans-Serif" font-size="10.00">memory</text>
</a>
</g>
</g>
<!-- Node19&#45;&gt;Node20 -->
<g id="edge24_Node000019_Node000020" class="edge">
<title>Node19&#45;&gt;Node20</title>
<g id="a_edge24_Node000019_Node000020"><a xlink:title=" ">
<path fill="none" stroke="#63b8ff" d="M650.35,-164.84C662.98,-155.83 679.3,-144.18 692.05,-135.09"/>
<polygon fill="#63b8ff" stroke="#63b8ff" points="694.1,-137.92 700.21,-129.27 690.04,-132.22 694.1,-137.92"/>
</a>
</g>
</g>
</g>
</svg>
