<?xml version="1.0" encoding="UTF-8" standalone="no"?>
<!DOCTYPE svg PUBLIC "-//W3C//DTD SVG 1.1//EN"
 "http://www.w3.org/Graphics/SVG/1.1/DTD/svg11.dtd">
<!-- Generated by graphviz version 2.43.0 (0)
 -->
<!-- Title: /home/runner/work/occ/occ/include/occ/opt/angle_coordinate.h Pages: 1 -->
<svg width="182pt" height="280pt"
 viewBox="0.00 0.00 182.00 280.00" xmlns="http://www.w3.org/2000/svg" xmlns:xlink="http://www.w3.org/1999/xlink">
<g id="graph0" class="graph" transform="scale(1 1) rotate(0) translate(4 276)">
<title>/home/runner/work/occ/occ/include/occ/opt/angle_coordinate.h</title>
<!-- Node1 -->
<g id="Node000001" class="node">
<title>Node1</title>
<g id="a_Node000001"><a xlink:title=" ">
<polygon fill="#999999" stroke="#666666" points="174,-272 46,-272 46,-231 174,-231 174,-272"/>
<text text-anchor="start" x="54" y="-260" font-family="Helvetica,sans-Serif" font-size="10.00">/home/runner/work/occ</text>
<text text-anchor="start" x="54" y="-249" font-family="Helvetica,sans-Serif" font-size="10.00">/occ/include/occ/opt</text>
<text text-anchor="middle" x="110" y="-238" font-family="Helvetica,sans-Serif" font-size="10.00">/angle_coordinate.h</text>
</a>
</g>
</g>
<!-- Node2 -->
<g id="Node000002" class="node">
<title>Node2</title>
<g id="a_Node000002"><a xlink:href="dihedral__coordinate_8h.html" target="_top" xlink:title=" ">
<polygon fill="white" stroke="#666666" points="128,-195 0,-195 0,-154 128,-154 128,-195"/>
<text text-anchor="start" x="8" y="-183" font-family="Helvetica,sans-Serif" font-size="10.00">/home/runner/work/occ</text>
<text text-anchor="start" x="8" y="-172" font-family="Helvetica,sans-Serif" font-size="10.00">/occ/include/occ/opt</text>
<text text-anchor="middle" x="64" y="-161" font-family="Helvetica,sans-Serif" font-size="10.00">/dihedral_coordinate.h</text>
</a>
</g>
</g>
<!-- Node1&#45;&gt;Node2 -->
<g id="edge1_Node000001_Node000002" class="edge">
<title>Node1&#45;&gt;Node2</title>
<g id="a_edge1_Node000001_Node000002"><a xlink:title=" ">
<path fill="none" stroke="#63b8ff" d="M92.59,-222.11C87.06,-213.09 81.07,-203.33 76.01,-195.07"/>
<polygon fill="#63b8ff" stroke="#63b8ff" points="89.7,-224.1 97.91,-230.79 95.67,-220.44 89.7,-224.1"/>
</a>
</g>
</g>
<!-- Node3 -->
<g id="Node000003" class="node">
<title>Node3</title>
<g id="a_Node000003"><a xlink:href="internal__coordinates_8h.html" target="_top" xlink:title=" ">
<polygon fill="white" stroke="#666666" points="174,-118 46,-118 46,-77 174,-77 174,-118"/>
<text text-anchor="start" x="54" y="-106" font-family="Helvetica,sans-Serif" font-size="10.00">/home/runner/work/occ</text>
<text text-anchor="start" x="54" y="-95" font-family="Helvetica,sans-Serif" font-size="10.00">/occ/include/occ/opt</text>
<text text-anchor="middle" x="110" y="-84" font-family="Helvetica,sans-Serif" font-size="10.00">/internal_coordinates.h</text>
</a>
</g>
</g>
<!-- Node1&#45;&gt;Node3 -->
<g id="edge4_Node000001_Node000003" class="edge">
<title>Node1&#45;&gt;Node3</title>
<g id="a_edge4_Node000001_Node000003"><a xlink:title=" ">
<path fill="none" stroke="#63b8ff" d="M127,-221.8C131.1,-213.44 134.9,-204.1 137,-195 141.09,-177.24 141.09,-171.76 137,-154 134.11,-141.47 128,-128.49 122.32,-118.24"/>
<polygon fill="#63b8ff" stroke="#63b8ff" points="123.85,-220.28 122.32,-230.76 130.05,-223.52 123.85,-220.28"/>
</a>
</g>
</g>
<!-- Node2&#45;&gt;Node3 -->
<g id="edge2_Node000002_Node000003" class="edge">
<title>Node2&#45;&gt;Node3</title>
<g id="a_edge2_Node000002_Node000003"><a xlink:title=" ">
<path fill="none" stroke="#63b8ff" d="M81.41,-145.11C86.94,-136.09 92.93,-126.33 97.99,-118.07"/>
<polygon fill="#63b8ff" stroke="#63b8ff" points="78.33,-143.44 76.09,-153.79 84.3,-147.1 78.33,-143.44"/>
</a>
</g>
</g>
<!-- Node4 -->
<g id="Node000004" class="node">
<title>Node4</title>
<g id="a_Node000004"><a xlink:href="berny__optimizer_8h.html" target="_top" xlink:title=" ">
<polygon fill="white" stroke="#666666" points="174,-41 46,-41 46,0 174,0 174,-41"/>
<text text-anchor="start" x="54" y="-29" font-family="Helvetica,sans-Serif" font-size="10.00">/home/runner/work/occ</text>
<text text-anchor="start" x="54" y="-18" font-family="Helvetica,sans-Serif" font-size="10.00">/occ/include/occ/opt</text>
<text text-anchor="middle" x="110" y="-7" font-family="Helvetica,sans-Serif" font-size="10.00">/berny_optimizer.h</text>
</a>
</g>
</g>
<!-- Node3&#45;&gt;Node4 -->
<g id="edge3_Node000003_Node000004" class="edge">
<title>Node3&#45;&gt;Node4</title>
<g id="a_edge3_Node000003_Node000004"><a xlink:title=" ">
<path fill="none" stroke="#63b8ff" d="M110,-66.69C110,-58.08 110,-48.9 110,-41.07"/>
<polygon fill="#63b8ff" stroke="#63b8ff" points="106.5,-66.79 110,-76.79 113.5,-66.79 106.5,-66.79"/>
</a>
</g>
</g>
</g>
</svg>
