<?xml version="1.0" encoding="UTF-8" standalone="no"?>
<!DOCTYPE svg PUBLIC "-//W3C//DTD SVG 1.1//EN"
 "http://www.w3.org/Graphics/SVG/1.1/DTD/svg11.dtd">
<!-- Generated by graphviz version 2.43.0 (0)
 -->
<!-- Title: /home/runner/work/occ/occ/include/occ/xtb/basis.h Pages: 1 -->
<svg width="906pt" height="324pt"
 viewBox="0.00 0.00 906.00 324.00" xmlns="http://www.w3.org/2000/svg" xmlns:xlink="http://www.w3.org/1999/xlink">
<g id="graph0" class="graph" transform="scale(1 1) rotate(0) translate(4 320)">
<title>/home/runner/work/occ/occ/include/occ/xtb/basis.h</title>
<!-- Node1 -->
<g id="Node000001" class="node">
<title>Node1</title>
<g id="a_Node000001"><a xlink:title=" ">
<polygon fill="#999999" stroke="#666666" points="160.5,-316 32.5,-316 32.5,-275 160.5,-275 160.5,-316"/>
<text text-anchor="start" x="40.5" y="-304" font-family="Helvetica,sans-Serif" font-size="10.00">/home/runner/work/occ</text>
<text text-anchor="start" x="40.5" y="-293" font-family="Helvetica,sans-Serif" font-size="10.00">/occ/include/occ/xtb</text>
<text text-anchor="middle" x="96.5" y="-282" font-family="Helvetica,sans-Serif" font-size="10.00">/basis.h</text>
</a>
</g>
</g>
<!-- Node2 -->
<g id="Node000002" class="node">
<title>Node2</title>
<g id="a_Node000002"><a xlink:href="atom_8h.html" target="_top" xlink:title=" ">
<polygon fill="white" stroke="#666666" points="95,-129 0,-129 0,-110 95,-110 95,-129"/>
<text text-anchor="middle" x="47.5" y="-117" font-family="Helvetica,sans-Serif" font-size="10.00">occ/core/atom.h</text>
</a>
</g>
</g>
<!-- Node1&#45;&gt;Node2 -->
<g id="edge1_Node000001_Node000002" class="edge">
<title>Node1&#45;&gt;Node2</title>
<g id="a_edge1_Node000001_Node000002"><a xlink:title=" ">
<path fill="none" stroke="#63b8ff" d="M80.23,-274.86C64,-253.88 40.13,-218.9 30.5,-184 26.24,-168.55 31.77,-150.94 37.63,-138.19"/>
<polygon fill="#63b8ff" stroke="#63b8ff" points="40.82,-139.64 42.22,-129.14 34.58,-136.47 40.82,-139.64"/>
</a>
</g>
</g>
<!-- Node6 -->
<g id="Node000006" class="node">
<title>Node6</title>
<g id="a_Node000006"><a xlink:href="shell_8h.html" target="_top" xlink:title=" ">
<polygon fill="white" stroke="#666666" points="272,-239 185,-239 185,-220 272,-220 272,-239"/>
<text text-anchor="middle" x="228.5" y="-227" font-family="Helvetica,sans-Serif" font-size="10.00">occ/gto/shell.h</text>
</a>
</g>
</g>
<!-- Node1&#45;&gt;Node6 -->
<g id="edge5_Node000001_Node000006" class="edge">
<title>Node1&#45;&gt;Node6</title>
<g id="a_edge5_Node000001_Node000006"><a xlink:title=" ">
<path fill="none" stroke="#63b8ff" d="M136.82,-274.95C157.87,-264.75 183.04,-252.54 201.68,-243.5"/>
<polygon fill="#63b8ff" stroke="#63b8ff" points="203.31,-246.6 210.78,-239.09 200.25,-240.31 203.31,-246.6"/>
</a>
</g>
</g>
<!-- Node3 -->
<g id="Node000003" class="node">
<title>Node3</title>
<g id="a_Node000003"><a xlink:href="linear__algebra_8h.html" target="_top" xlink:title=" ">
<polygon fill="white" stroke="#666666" points="311,-74 172,-74 172,-55 311,-55 311,-74"/>
<text text-anchor="middle" x="241.5" y="-62" font-family="Helvetica,sans-Serif" font-size="10.00">occ/core/linear_algebra.h</text>
</a>
</g>
</g>
<!-- Node2&#45;&gt;Node3 -->
<g id="edge2_Node000002_Node000003" class="edge">
<title>Node2&#45;&gt;Node3</title>
<g id="a_edge2_Node000002_Node000003"><a xlink:title=" ">
<path fill="none" stroke="#63b8ff" d="M78.67,-109.98C111.66,-100.97 163.9,-86.7 200.27,-76.76"/>
<polygon fill="#63b8ff" stroke="#63b8ff" points="201.36,-80.09 210.09,-74.08 199.52,-73.34 201.36,-80.09"/>
</a>
</g>
</g>
<!-- Node4 -->
<g id="Node000004" class="node">
<title>Node4</title>
<g id="a_Node000004"><a xlink:title=" ">
<polygon fill="#e0e0e0" stroke="#999999" points="227,-19 158,-19 158,0 227,0 227,-19"/>
<text text-anchor="middle" x="192.5" y="-7" font-family="Helvetica,sans-Serif" font-size="10.00">Eigen/Core</text>
</a>
</g>
</g>
<!-- Node3&#45;&gt;Node4 -->
<g id="edge3_Node000003_Node000004" class="edge">
<title>Node3&#45;&gt;Node4</title>
<g id="a_edge3_Node000003_Node000004"><a xlink:title=" ">
<path fill="none" stroke="#63b8ff" d="M233.41,-54.75C226.34,-47.11 215.91,-35.82 207.35,-26.56"/>
<polygon fill="#63b8ff" stroke="#63b8ff" points="209.8,-24.06 200.44,-19.09 204.66,-28.81 209.8,-24.06"/>
</a>
</g>
</g>
<!-- Node5 -->
<g id="Node000005" class="node">
<title>Node5</title>
<g id="a_Node000005"><a xlink:title=" ">
<polygon fill="#e0e0e0" stroke="#999999" points="338,-19 245,-19 245,0 338,0 338,-19"/>
<text text-anchor="middle" x="291.5" y="-7" font-family="Helvetica,sans-Serif" font-size="10.00">Eigen/StdVector</text>
</a>
</g>
</g>
<!-- Node3&#45;&gt;Node5 -->
<g id="edge4_Node000003_Node000005" class="edge">
<title>Node3&#45;&gt;Node5</title>
<g id="a_edge4_Node000003_Node000005"><a xlink:title=" ">
<path fill="none" stroke="#63b8ff" d="M249.76,-54.75C256.96,-47.11 267.61,-35.82 276.35,-26.56"/>
<polygon fill="#63b8ff" stroke="#63b8ff" points="279.08,-28.76 283.4,-19.09 273.99,-23.96 279.08,-28.76"/>
</a>
</g>
</g>
<!-- Node6&#45;&gt;Node2 -->
<g id="edge8_Node000006_Node000002" class="edge">
<title>Node6&#45;&gt;Node2</title>
<g id="a_edge8_Node000006_Node000002"><a xlink:title=" ">
<path fill="none" stroke="#63b8ff" d="M184.65,-224.33C134.83,-218.57 58.13,-206.3 40.5,-184 30.52,-171.38 34.1,-152.68 39.07,-138.84"/>
<polygon fill="#63b8ff" stroke="#63b8ff" points="42.39,-139.96 42.94,-129.38 35.91,-137.31 42.39,-139.96"/>
</a>
</g>
</g>
<!-- Node6&#45;&gt;Node3 -->
<g id="edge9_Node000006_Node000003" class="edge">
<title>Node6&#45;&gt;Node3</title>
<g id="a_edge9_Node000006_Node000003"><a xlink:title=" ">
<path fill="none" stroke="#63b8ff" d="M229.2,-219.74C231.23,-194.31 237.15,-120.08 239.97,-84.69"/>
<polygon fill="#63b8ff" stroke="#63b8ff" points="243.49,-84.55 240.8,-74.31 236.51,-84 243.49,-84.55"/>
</a>
</g>
</g>
<!-- Node7 -->
<g id="Node000007" class="node">
<title>Node7</title>
<g id="a_Node000007"><a xlink:title=" ">
<polygon fill="#e0e0e0" stroke="#999999" points="194.5,-129 152.5,-129 152.5,-110 194.5,-110 194.5,-129"/>
<text text-anchor="middle" x="173.5" y="-117" font-family="Helvetica,sans-Serif" font-size="10.00">array</text>
</a>
</g>
</g>
<!-- Node6&#45;&gt;Node7 -->
<g id="edge6_Node000006_Node000007" class="edge">
<title>Node6&#45;&gt;Node7</title>
<g id="a_edge6_Node000006_Node000007"><a xlink:title=" ">
<path fill="none" stroke="#63b8ff" d="M224,-219.66C214.97,-201.93 194.5,-161.73 182.57,-138.32"/>
<polygon fill="#63b8ff" stroke="#63b8ff" points="185.57,-136.48 177.91,-129.16 179.33,-139.66 185.57,-136.48"/>
</a>
</g>
</g>
<!-- Node8 -->
<g id="Node000008" class="node">
<title>Node8</title>
<g id="a_Node000008"><a xlink:title=" ">
<polygon fill="#e0e0e0" stroke="#999999" points="337,-129 270,-129 270,-110 337,-110 337,-129"/>
<text text-anchor="middle" x="303.5" y="-117" font-family="Helvetica,sans-Serif" font-size="10.00">fmt/core.h</text>
</a>
</g>
</g>
<!-- Node6&#45;&gt;Node8 -->
<g id="edge7_Node000006_Node000008" class="edge">
<title>Node6&#45;&gt;Node8</title>
<g id="a_edge7_Node000006_Node000008"><a xlink:title=" ">
<path fill="none" stroke="#63b8ff" d="M235.22,-219.74C241.99,-210.83 252.67,-196.6 261.5,-184 272.26,-168.65 283.99,-150.81 292.31,-137.96"/>
<polygon fill="#63b8ff" stroke="#63b8ff" points="295.46,-139.53 297.94,-129.23 289.58,-135.74 295.46,-139.53"/>
</a>
</g>
</g>
<!-- Node9 -->
<g id="Node000009" class="node">
<title>Node9</title>
<g id="a_Node000009"><a xlink:href="point__charge_8h.html" target="_top" xlink:title=" ">
<polygon fill="white" stroke="#666666" points="181.5,-184 49.5,-184 49.5,-165 181.5,-165 181.5,-184"/>
<text text-anchor="middle" x="115.5" y="-172" font-family="Helvetica,sans-Serif" font-size="10.00">occ/core/point_charge.h</text>
</a>
</g>
</g>
<!-- Node6&#45;&gt;Node9 -->
<g id="edge10_Node000006_Node000009" class="edge">
<title>Node6&#45;&gt;Node9</title>
<g id="a_edge10_Node000006_Node000009"><a xlink:title=" ">
<path fill="none" stroke="#63b8ff" d="M210.34,-219.98C192.25,-211.5 164.22,-198.35 143.31,-188.54"/>
<polygon fill="#63b8ff" stroke="#63b8ff" points="144.53,-185.25 133.99,-184.17 141.55,-191.59 144.53,-185.25"/>
</a>
</g>
</g>
<!-- Node10 -->
<g id="Node000010" class="node">
<title>Node10</title>
<g id="a_Node000010"><a xlink:href="util_8h.html" target="_top" xlink:title=" ">
<polygon fill="white" stroke="#666666" points="632,-184 547,-184 547,-165 632,-165 632,-184"/>
<text text-anchor="middle" x="589.5" y="-172" font-family="Helvetica,sans-Serif" font-size="10.00">occ/core/util.h</text>
</a>
</g>
</g>
<!-- Node6&#45;&gt;Node10 -->
<g id="edge13_Node000006_Node000010" class="edge">
<title>Node6&#45;&gt;Node10</title>
<g id="a_edge13_Node000006_Node000010"><a xlink:title=" ">
<path fill="none" stroke="#63b8ff" d="M272.05,-222.11C338.54,-212.35 465.18,-193.75 536.77,-183.24"/>
<polygon fill="#63b8ff" stroke="#63b8ff" points="537.54,-186.67 546.92,-181.75 536.52,-179.74 537.54,-186.67"/>
</a>
</g>
</g>
<!-- Node17 -->
<g id="Node000017" class="node">
<title>Node17</title>
<g id="a_Node000017"><a xlink:title=" ">
<polygon fill="#e0e0e0" stroke="#999999" points="898,-129 851,-129 851,-110 898,-110 898,-129"/>
<text text-anchor="middle" x="874.5" y="-117" font-family="Helvetica,sans-Serif" font-size="10.00">vector</text>
</a>
</g>
</g>
<!-- Node6&#45;&gt;Node17 -->
<g id="edge23_Node000006_Node000017" class="edge">
<title>Node6&#45;&gt;Node17</title>
<g id="a_edge23_Node000006_Node000017"><a xlink:title=" ">
<path fill="none" stroke="#63b8ff" d="M272.24,-226.08C347.99,-221.37 508.28,-209.17 641.5,-184 713.74,-170.35 796.33,-145.61 841.2,-131.37"/>
<polygon fill="#63b8ff" stroke="#63b8ff" points="842.52,-134.63 850.98,-128.25 840.38,-127.96 842.52,-134.63"/>
</a>
</g>
</g>
<!-- Node9&#45;&gt;Node2 -->
<g id="edge12_Node000009_Node000002" class="edge">
<title>Node9&#45;&gt;Node2</title>
<g id="a_edge12_Node000009_Node000002"><a xlink:title=" ">
<path fill="none" stroke="#63b8ff" d="M104.57,-164.98C94.42,-157.07 79.08,-145.11 66.85,-135.58"/>
<polygon fill="#63b8ff" stroke="#63b8ff" points="68.66,-132.56 58.62,-129.17 64.36,-138.08 68.66,-132.56"/>
</a>
</g>
</g>
<!-- Node9&#45;&gt;Node7 -->
<g id="edge11_Node000009_Node000007" class="edge">
<title>Node9&#45;&gt;Node7</title>
<g id="a_edge11_Node000009_Node000007"><a xlink:title=" ">
<path fill="none" stroke="#63b8ff" d="M124.82,-164.98C133.31,-157.23 146.06,-145.58 156.38,-136.14"/>
<polygon fill="#63b8ff" stroke="#63b8ff" points="158.99,-138.5 164.01,-129.17 154.27,-133.33 158.99,-138.5"/>
</a>
</g>
</g>
<!-- Node10&#45;&gt;Node3 -->
<g id="edge20_Node000010_Node000003" class="edge">
<title>Node10&#45;&gt;Node3</title>
<g id="a_edge20_Node000010_Node000003"><a xlink:title=" ">
<path fill="none" stroke="#63b8ff" d="M610.01,-164.82C635.37,-152.93 673.05,-130.66 654.5,-110 632.69,-85.72 435.19,-73.52 321.39,-68.47"/>
<polygon fill="#63b8ff" stroke="#63b8ff" points="321.47,-64.97 311.32,-68.03 321.16,-71.96 321.47,-64.97"/>
</a>
</g>
</g>
<!-- Node10&#45;&gt;Node8 -->
<g id="edge17_Node000010_Node000008" class="edge">
<title>Node10&#45;&gt;Node8</title>
<g id="a_edge17_Node000010_Node000008"><a xlink:title=" ">
<path fill="none" stroke="#63b8ff" d="M546.89,-165.88C500.43,-157.54 423.61,-143.62 347.53,-129.17"/>
<polygon fill="#63b8ff" stroke="#63b8ff" points="347.77,-125.66 337.29,-127.23 346.46,-132.53 347.77,-125.66"/>
</a>
</g>
</g>
<!-- Node11 -->
<g id="Node000011" class="node">
<title>Node11</title>
<g id="a_Node000011"><a xlink:title=" ">
<polygon fill="#e0e0e0" stroke="#999999" points="765.5,-129 701.5,-129 701.5,-110 765.5,-110 765.5,-129"/>
<text text-anchor="middle" x="733.5" y="-117" font-family="Helvetica,sans-Serif" font-size="10.00">algorithm</text>
</a>
</g>
</g>
<!-- Node10&#45;&gt;Node11 -->
<g id="edge14_Node000010_Node000011" class="edge">
<title>Node10&#45;&gt;Node11</title>
<g id="a_edge14_Node000010_Node000011"><a xlink:title=" ">
<path fill="none" stroke="#63b8ff" d="M612.64,-164.98C636.32,-156.27 673.37,-142.63 700.21,-132.75"/>
<polygon fill="#63b8ff" stroke="#63b8ff" points="701.77,-135.91 709.94,-129.17 699.35,-129.34 701.77,-135.91"/>
</a>
</g>
</g>
<!-- Node12 -->
<g id="Node000012" class="node">
<title>Node12</title>
<g id="a_Node000012"><a xlink:title=" ">
<polygon fill="#e0e0e0" stroke="#999999" points="833,-129 784,-129 784,-110 833,-110 833,-129"/>
<text text-anchor="middle" x="808.5" y="-117" font-family="Helvetica,sans-Serif" font-size="10.00">cctype</text>
</a>
</g>
</g>
<!-- Node10&#45;&gt;Node12 -->
<g id="edge15_Node000010_Node000012" class="edge">
<title>Node10&#45;&gt;Node12</title>
<g id="a_edge15_Node000010_Node000012"><a xlink:title=" ">
<path fill="none" stroke="#63b8ff" d="M625.33,-164.98C660.58,-156.58 716.18,-143.27 773.95,-129.12"/>
<polygon fill="#63b8ff" stroke="#63b8ff" points="775.11,-132.44 783.99,-126.65 773.45,-125.64 775.11,-132.44"/>
</a>
</g>
</g>
<!-- Node13 -->
<g id="Node000013" class="node">
<title>Node13</title>
<g id="a_Node000013"><a xlink:title=" ">
<polygon fill="#e0e0e0" stroke="#999999" points="405.5,-129 355.5,-129 355.5,-110 405.5,-110 405.5,-129"/>
<text text-anchor="middle" x="380.5" y="-117" font-family="Helvetica,sans-Serif" font-size="10.00">chrono</text>
</a>
</g>
</g>
<!-- Node10&#45;&gt;Node13 -->
<g id="edge16_Node000010_Node000013" class="edge">
<title>Node10&#45;&gt;Node13</title>
<g id="a_edge16_Node000010_Node000013"><a xlink:title=" ">
<path fill="none" stroke="#63b8ff" d="M555.92,-164.98C517.47,-155.23 454.77,-139.33 415.66,-129.42"/>
<polygon fill="#63b8ff" stroke="#63b8ff" points="416.33,-125.98 405.78,-126.91 414.61,-132.76 416.33,-125.98"/>
</a>
</g>
</g>
<!-- Node14 -->
<g id="Node000014" class="node">
<title>Node14</title>
<g id="a_Node000014"><a xlink:title=" ">
<polygon fill="#e0e0e0" stroke="#999999" points="509.5,-129 423.5,-129 423.5,-110 509.5,-110 509.5,-129"/>
<text text-anchor="middle" x="466.5" y="-117" font-family="Helvetica,sans-Serif" font-size="10.00">fmt/ostream.h</text>
</a>
</g>
</g>
<!-- Node10&#45;&gt;Node14 -->
<g id="edge18_Node000010_Node000014" class="edge">
<title>Node10&#45;&gt;Node14</title>
<g id="a_edge18_Node000010_Node000014"><a xlink:title=" ">
<path fill="none" stroke="#63b8ff" d="M569.74,-164.98C549.77,-156.38 518.7,-142.99 495.85,-133.15"/>
<polygon fill="#63b8ff" stroke="#63b8ff" points="497.19,-129.91 486.62,-129.17 494.42,-136.34 497.19,-129.91"/>
</a>
</g>
</g>
<!-- Node15 -->
<g id="Node000015" class="node">
<title>Node15</title>
<g id="a_Node000015"><a xlink:title=" ">
<polygon fill="#e0e0e0" stroke="#999999" points="583.5,-129 527.5,-129 527.5,-110 583.5,-110 583.5,-129"/>
<text text-anchor="middle" x="555.5" y="-117" font-family="Helvetica,sans-Serif" font-size="10.00">numeric</text>
</a>
</g>
</g>
<!-- Node10&#45;&gt;Node15 -->
<g id="edge19_Node000010_Node000015" class="edge">
<title>Node10&#45;&gt;Node15</title>
<g id="a_edge19_Node000010_Node000015"><a xlink:title=" ">
<path fill="none" stroke="#63b8ff" d="M583.89,-164.75C579.18,-157.42 572.33,-146.73 566.53,-137.7"/>
<polygon fill="#63b8ff" stroke="#63b8ff" points="569.36,-135.62 561.01,-129.09 563.46,-139.4 569.36,-135.62"/>
</a>
</g>
</g>
<!-- Node16 -->
<g id="Node000016" class="node">
<title>Node16</title>
<g id="a_Node000016"><a xlink:title=" ">
<polygon fill="#e0e0e0" stroke="#999999" points="645.5,-129 601.5,-129 601.5,-110 645.5,-110 645.5,-129"/>
<text text-anchor="middle" x="623.5" y="-117" font-family="Helvetica,sans-Serif" font-size="10.00">string</text>
</a>
</g>
</g>
<!-- Node10&#45;&gt;Node16 -->
<g id="edge21_Node000010_Node000016" class="edge">
<title>Node10&#45;&gt;Node16</title>
<g id="a_edge21_Node000010_Node000016"><a xlink:title=" ">
<path fill="none" stroke="#63b8ff" d="M595.11,-164.75C599.82,-157.42 606.67,-146.73 612.47,-137.7"/>
<polygon fill="#63b8ff" stroke="#63b8ff" points="615.54,-139.4 617.99,-129.09 609.64,-135.62 615.54,-139.4"/>
</a>
</g>
</g>
<!-- Node10&#45;&gt;Node17 -->
<g id="edge22_Node000010_Node000017" class="edge">
<title>Node10&#45;&gt;Node17</title>
<g id="a_edge22_Node000010_Node000017"><a xlink:title=" ">
<path fill="none" stroke="#63b8ff" d="M632.25,-167.12C680.65,-159.65 762.09,-146.32 840.72,-129.25"/>
<polygon fill="#63b8ff" stroke="#63b8ff" points="841.77,-132.6 850.79,-127.04 840.27,-125.77 841.77,-132.6"/>
</a>
</g>
</g>
</g>
</svg>
