<?xml version="1.0" encoding="UTF-8" standalone="no"?>
<!DOCTYPE svg PUBLIC "-//W3C//DTD SVG 1.1//EN"
 "http://www.w3.org/Graphics/SVG/1.1/DTD/svg11.dtd">
<!-- Generated by graphviz version 2.43.0 (0)
 -->
<!-- Title: /home/runner/work/occ/occ/include/occ/io/basis_g94.h Pages: 1 -->
<svg width="922pt" height="313pt"
 viewBox="0.00 0.00 922.34 313.00" xmlns="http://www.w3.org/2000/svg" xmlns:xlink="http://www.w3.org/1999/xlink">
<g id="graph0" class="graph" transform="scale(1 1) rotate(0) translate(4 309)">
<title>/home/runner/work/occ/occ/include/occ/io/basis_g94.h</title>
<!-- Node1 -->
<g id="Node000001" class="node">
<title>Node1</title>
<g id="a_Node000001"><a xlink:title=" ">
<polygon fill="#999999" stroke="#666666" points="910.34,-305 743.34,-305 743.34,-275 910.34,-275 910.34,-305"/>
<text text-anchor="start" x="751.34" y="-293" font-family="Helvetica,sans-Serif" font-size="10.00">/home/runner/work/occ</text>
<text text-anchor="middle" x="826.84" y="-282" font-family="Helvetica,sans-Serif" font-size="10.00">/occ/include/occ/io/basis_g94.h</text>
</a>
</g>
</g>
<!-- Node2 -->
<g id="Node000002" class="node">
<title>Node2</title>
<g id="a_Node000002"><a xlink:href="shell_8h.html" target="_top" xlink:title=" ">
<polygon fill="white" stroke="#666666" points="265.34,-239 178.34,-239 178.34,-220 265.34,-220 265.34,-239"/>
<text text-anchor="middle" x="221.84" y="-227" font-family="Helvetica,sans-Serif" font-size="10.00">occ/qm/shell.h</text>
</a>
</g>
</g>
<!-- Node1&#45;&gt;Node2 -->
<g id="edge1_Node000001_Node000002" class="edge">
<title>Node1&#45;&gt;Node2</title>
<g id="a_edge1_Node000001_Node000002"><a xlink:title=" ">
<path fill="none" stroke="#63b8ff" d="M743.04,-280.9C616.82,-268.69 381.49,-245.94 275.74,-235.71"/>
<polygon fill="#63b8ff" stroke="#63b8ff" points="275.91,-232.21 265.62,-234.73 275.23,-239.18 275.91,-232.21"/>
</a>
</g>
</g>
<!-- Node17 -->
<g id="Node000017" class="node">
<title>Node17</title>
<g id="a_Node000017"><a xlink:title=" ">
<polygon fill="#e0e0e0" stroke="#999999" points="848.84,-129 804.84,-129 804.84,-110 848.84,-110 848.84,-129"/>
<text text-anchor="middle" x="826.84" y="-117" font-family="Helvetica,sans-Serif" font-size="10.00">string</text>
</a>
</g>
</g>
<!-- Node1&#45;&gt;Node17 -->
<g id="edge26_Node000001_Node000017" class="edge">
<title>Node1&#45;&gt;Node17</title>
<g id="a_edge26_Node000001_Node000017"><a xlink:title=" ">
<path fill="none" stroke="#63b8ff" d="M826.84,-274.92C826.84,-244.65 826.84,-173.35 826.84,-139.27"/>
<polygon fill="#63b8ff" stroke="#63b8ff" points="830.34,-139.25 826.84,-129.25 823.34,-139.25 830.34,-139.25"/>
</a>
</g>
</g>
<!-- Node18 -->
<g id="Node000018" class="node">
<title>Node18</title>
<g id="a_Node000018"><a xlink:title=" ">
<polygon fill="#e0e0e0" stroke="#999999" points="914.34,-129 867.34,-129 867.34,-110 914.34,-110 914.34,-129"/>
<text text-anchor="middle" x="890.84" y="-117" font-family="Helvetica,sans-Serif" font-size="10.00">vector</text>
</a>
</g>
</g>
<!-- Node1&#45;&gt;Node18 -->
<g id="edge27_Node000001_Node000018" class="edge">
<title>Node1&#45;&gt;Node18</title>
<g id="a_edge27_Node000001_Node000018"><a xlink:title=" ">
<path fill="none" stroke="#63b8ff" d="M832.19,-274.92C843.74,-244.52 871.01,-172.73 883.88,-138.83"/>
<polygon fill="#63b8ff" stroke="#63b8ff" points="887.24,-139.85 887.52,-129.25 880.69,-137.36 887.24,-139.85"/>
</a>
</g>
</g>
<!-- Node3 -->
<g id="Node000003" class="node">
<title>Node3</title>
<g id="a_Node000003"><a xlink:title=" ">
<polygon fill="#e0e0e0" stroke="#999999" points="53.84,-129 11.84,-129 11.84,-110 53.84,-110 53.84,-129"/>
<text text-anchor="middle" x="32.84" y="-117" font-family="Helvetica,sans-Serif" font-size="10.00">array</text>
</a>
</g>
</g>
<!-- Node2&#45;&gt;Node3 -->
<g id="edge2_Node000002_Node000003" class="edge">
<title>Node2&#45;&gt;Node3</title>
<g id="a_edge2_Node000002_Node000003"><a xlink:title=" ">
<path fill="none" stroke="#63b8ff" d="M178.05,-224.28C128.29,-218.48 51.65,-206.16 33.84,-184 23.92,-171.66 24.82,-153.18 27.52,-139.33"/>
<polygon fill="#63b8ff" stroke="#63b8ff" points="30.96,-139.97 29.89,-129.43 24.16,-138.34 30.96,-139.97"/>
</a>
</g>
</g>
<!-- Node4 -->
<g id="Node000004" class="node">
<title>Node4</title>
<g id="a_Node000004"><a xlink:title=" ">
<polygon fill="#e0e0e0" stroke="#999999" points="274.34,-19 207.34,-19 207.34,0 274.34,0 274.34,-19"/>
<text text-anchor="middle" x="240.84" y="-7" font-family="Helvetica,sans-Serif" font-size="10.00">fmt/core.h</text>
</a>
</g>
</g>
<!-- Node2&#45;&gt;Node4 -->
<g id="edge3_Node000002_Node000004" class="edge">
<title>Node2&#45;&gt;Node4</title>
<g id="a_edge3_Node000002_Node000004"><a xlink:title=" ">
<path fill="none" stroke="#63b8ff" d="M222.59,-219.95C225.38,-187.95 235.25,-74.68 239.19,-29.4"/>
<polygon fill="#63b8ff" stroke="#63b8ff" points="242.7,-29.49 240.08,-19.22 235.73,-28.88 242.7,-29.49"/>
</a>
</g>
</g>
<!-- Node5 -->
<g id="Node000005" class="node">
<title>Node5</title>
<g id="a_Node000005"><a xlink:href="atom_8h.html" target="_top" xlink:title=" ">
<polygon fill="white" stroke="#666666" points="212.34,-129 117.34,-129 117.34,-110 212.34,-110 212.34,-129"/>
<text text-anchor="middle" x="164.84" y="-117" font-family="Helvetica,sans-Serif" font-size="10.00">occ/core/atom.h</text>
</a>
</g>
</g>
<!-- Node2&#45;&gt;Node5 -->
<g id="edge4_Node000002_Node000005" class="edge">
<title>Node2&#45;&gt;Node5</title>
<g id="a_edge4_Node000002_Node000005"><a xlink:title=" ">
<path fill="none" stroke="#63b8ff" d="M217.18,-219.66C207.78,-201.85 186.41,-161.37 174.08,-138.01"/>
<polygon fill="#63b8ff" stroke="#63b8ff" points="177.17,-136.37 169.41,-129.16 170.98,-139.64 177.17,-136.37"/>
</a>
</g>
</g>
<!-- Node6 -->
<g id="Node000006" class="node">
<title>Node6</title>
<g id="a_Node000006"><a xlink:href="linear__algebra_8h.html" target="_top" xlink:title=" ">
<polygon fill="white" stroke="#666666" points="212.34,-74 73.34,-74 73.34,-55 212.34,-55 212.34,-74"/>
<text text-anchor="middle" x="142.84" y="-62" font-family="Helvetica,sans-Serif" font-size="10.00">occ/core/linear_algebra.h</text>
</a>
</g>
</g>
<!-- Node2&#45;&gt;Node6 -->
<g id="edge9_Node000002_Node000006" class="edge">
<title>Node2&#45;&gt;Node6</title>
<g id="a_edge9_Node000002_Node000006"><a xlink:title=" ">
<path fill="none" stroke="#63b8ff" d="M178.3,-223.79C126.63,-217.38 44.6,-204.31 21.84,-184 2.55,-166.78 7.12,-154.51 2.84,-129 1.44,-120.67 -2.14,-116.82 2.84,-110 17.14,-90.46 40.08,-79.29 63.3,-72.97"/>
<polygon fill="#63b8ff" stroke="#63b8ff" points="64.35,-76.32 73.24,-70.55 62.7,-69.52 64.35,-76.32"/>
</a>
</g>
</g>
<!-- Node9 -->
<g id="Node000009" class="node">
<title>Node9</title>
<g id="a_Node000009"><a xlink:href="point__charge_8h.html" target="_top" xlink:title=" ">
<polygon fill="white" stroke="#666666" points="174.84,-184 42.84,-184 42.84,-165 174.84,-165 174.84,-184"/>
<text text-anchor="middle" x="108.84" y="-172" font-family="Helvetica,sans-Serif" font-size="10.00">occ/core/point_charge.h</text>
</a>
</g>
</g>
<!-- Node2&#45;&gt;Node9 -->
<g id="edge10_Node000002_Node000009" class="edge">
<title>Node2&#45;&gt;Node9</title>
<g id="a_edge10_Node000002_Node000009"><a xlink:title=" ">
<path fill="none" stroke="#63b8ff" d="M203.69,-219.98C185.59,-211.5 157.56,-198.35 136.65,-188.54"/>
<polygon fill="#63b8ff" stroke="#63b8ff" points="137.87,-185.25 127.33,-184.17 134.9,-191.59 137.87,-185.25"/>
</a>
</g>
</g>
<!-- Node10 -->
<g id="Node000010" class="node">
<title>Node10</title>
<g id="a_Node000010"><a xlink:href="util_8h.html" target="_top" xlink:title=" ">
<polygon fill="white" stroke="#666666" points="594.34,-184 509.34,-184 509.34,-165 594.34,-165 594.34,-184"/>
<text text-anchor="middle" x="551.84" y="-172" font-family="Helvetica,sans-Serif" font-size="10.00">occ/core/util.h</text>
</a>
</g>
</g>
<!-- Node2&#45;&gt;Node10 -->
<g id="edge14_Node000002_Node000010" class="edge">
<title>Node2&#45;&gt;Node10</title>
<g id="a_edge14_Node000002_Node000010"><a xlink:title=" ">
<path fill="none" stroke="#63b8ff" d="M265.66,-221.46C325.99,-211.77 434.49,-194.35 499.16,-183.96"/>
<polygon fill="#63b8ff" stroke="#63b8ff" points="499.83,-187.4 509.15,-182.36 498.72,-180.49 499.83,-187.4"/>
</a>
</g>
</g>
<!-- Node2&#45;&gt;Node18 -->
<g id="edge25_Node000002_Node000018" class="edge">
<title>Node2&#45;&gt;Node18</title>
<g id="a_edge25_Node000002_Node000018"><a xlink:title=" ">
<path fill="none" stroke="#63b8ff" d="M265.58,-224.8C336.76,-218.47 481.99,-204.24 603.84,-184 714.67,-165.59 743.87,-156.16 857.31,-129.07"/>
<polygon fill="#63b8ff" stroke="#63b8ff" points="858.16,-132.46 867.08,-126.74 856.54,-125.65 858.16,-132.46"/>
</a>
</g>
</g>
<!-- Node5&#45;&gt;Node6 -->
<g id="edge5_Node000005_Node000006" class="edge">
<title>Node5&#45;&gt;Node6</title>
<g id="a_edge5_Node000005_Node000006"><a xlink:title=" ">
<path fill="none" stroke="#63b8ff" d="M161.21,-109.75C158.26,-102.65 154.01,-92.4 150.34,-83.56"/>
<polygon fill="#63b8ff" stroke="#63b8ff" points="153.47,-81.98 146.41,-74.09 147.01,-84.67 153.47,-81.98"/>
</a>
</g>
</g>
<!-- Node6&#45;&gt;Node4 -->
<g id="edge8_Node000006_Node000004" class="edge">
<title>Node6&#45;&gt;Node4</title>
<g id="a_edge8_Node000006_Node000004"><a xlink:title=" ">
<path fill="none" stroke="#63b8ff" d="M158.59,-54.98C174.07,-46.61 197.94,-33.7 215.98,-23.95"/>
<polygon fill="#63b8ff" stroke="#63b8ff" points="217.68,-27.01 224.81,-19.17 214.35,-20.85 217.68,-27.01"/>
</a>
</g>
</g>
<!-- Node7 -->
<g id="Node000007" class="node">
<title>Node7</title>
<g id="a_Node000007"><a xlink:title=" ">
<polygon fill="#e0e0e0" stroke="#999999" points="78.34,-19 1.34,-19 1.34,0 78.34,0 78.34,-19"/>
<text text-anchor="middle" x="39.84" y="-7" font-family="Helvetica,sans-Serif" font-size="10.00">Eigen/Dense</text>
</a>
</g>
</g>
<!-- Node6&#45;&gt;Node7 -->
<g id="edge6_Node000006_Node000007" class="edge">
<title>Node6&#45;&gt;Node7</title>
<g id="a_edge6_Node000006_Node000007"><a xlink:title=" ">
<path fill="none" stroke="#63b8ff" d="M126.29,-54.98C109.95,-46.57 84.71,-33.59 65.71,-23.81"/>
<polygon fill="#63b8ff" stroke="#63b8ff" points="67.19,-20.63 56.69,-19.17 63.98,-26.86 67.19,-20.63"/>
</a>
</g>
</g>
<!-- Node8 -->
<g id="Node000008" class="node">
<title>Node8</title>
<g id="a_Node000008"><a xlink:title=" ">
<polygon fill="#e0e0e0" stroke="#999999" points="189.34,-19 96.34,-19 96.34,0 189.34,0 189.34,-19"/>
<text text-anchor="middle" x="142.84" y="-7" font-family="Helvetica,sans-Serif" font-size="10.00">Eigen/StdVector</text>
</a>
</g>
</g>
<!-- Node6&#45;&gt;Node8 -->
<g id="edge7_Node000006_Node000008" class="edge">
<title>Node6&#45;&gt;Node8</title>
<g id="a_edge7_Node000006_Node000008"><a xlink:title=" ">
<path fill="none" stroke="#63b8ff" d="M142.84,-54.75C142.84,-47.8 142.84,-37.85 142.84,-29.13"/>
<polygon fill="#63b8ff" stroke="#63b8ff" points="146.34,-29.09 142.84,-19.09 139.34,-29.09 146.34,-29.09"/>
</a>
</g>
</g>
<!-- Node9&#45;&gt;Node3 -->
<g id="edge11_Node000009_Node000003" class="edge">
<title>Node9&#45;&gt;Node3</title>
<g id="a_edge11_Node000009_Node000003"><a xlink:title=" ">
<path fill="none" stroke="#63b8ff" d="M96.63,-164.98C85.07,-156.92 67.47,-144.65 53.68,-135.03"/>
<polygon fill="#63b8ff" stroke="#63b8ff" points="55.48,-132.02 45.28,-129.17 51.48,-137.76 55.48,-132.02"/>
</a>
</g>
</g>
<!-- Node9&#45;&gt;Node5 -->
<g id="edge12_Node000009_Node000005" class="edge">
<title>Node9&#45;&gt;Node5</title>
<g id="a_edge12_Node000009_Node000005"><a xlink:title=" ">
<path fill="none" stroke="#63b8ff" d="M117.84,-164.98C126.04,-157.23 138.35,-145.58 148.31,-136.14"/>
<polygon fill="#63b8ff" stroke="#63b8ff" points="150.82,-138.59 155.68,-129.17 146.01,-133.5 150.82,-138.59"/>
</a>
</g>
</g>
<!-- Node9&#45;&gt;Node6 -->
<g id="edge13_Node000009_Node000006" class="edge">
<title>Node9&#45;&gt;Node6</title>
<g id="a_edge13_Node000009_Node000006"><a xlink:title=" ">
<path fill="none" stroke="#63b8ff" d="M107.09,-164.58C105.01,-152.03 102.55,-128.59 108.84,-110 112.4,-99.47 119.56,-89.48 126.4,-81.63"/>
<polygon fill="#63b8ff" stroke="#63b8ff" points="128.97,-84.01 133.24,-74.31 123.85,-79.23 128.97,-84.01"/>
</a>
</g>
</g>
<!-- Node10&#45;&gt;Node4 -->
<g id="edge18_Node000010_Node000004" class="edge">
<title>Node10&#45;&gt;Node4</title>
<g id="a_edge18_Node000010_Node000004"><a xlink:title=" ">
<path fill="none" stroke="#63b8ff" d="M594.65,-165.67C653.48,-154.7 752.69,-135.39 757.84,-129 763.15,-122.43 763.22,-116.51 757.84,-110 697.73,-37.22 398.06,-17.11 284.53,-12.06"/>
<polygon fill="#63b8ff" stroke="#63b8ff" points="284.59,-8.56 274.45,-11.63 284.3,-15.55 284.59,-8.56"/>
</a>
</g>
</g>
<!-- Node10&#45;&gt;Node6 -->
<g id="edge22_Node000010_Node000006" class="edge">
<title>Node10&#45;&gt;Node6</title>
<g id="a_edge22_Node000010_Node000006"><a xlink:title=" ">
<path fill="none" stroke="#63b8ff" d="M508.96,-168.85C457.94,-162.66 370.53,-149.99 297.84,-129 251.46,-115.6 200.04,-92.87 169.63,-78.55"/>
<polygon fill="#63b8ff" stroke="#63b8ff" points="171.06,-75.36 160.53,-74.22 168.05,-81.68 171.06,-75.36"/>
</a>
</g>
</g>
<!-- Node11 -->
<g id="Node000011" class="node">
<title>Node11</title>
<g id="a_Node000011"><a xlink:title=" ">
<polygon fill="#e0e0e0" stroke="#999999" points="508.84,-129 444.84,-129 444.84,-110 508.84,-110 508.84,-129"/>
<text text-anchor="middle" x="476.84" y="-117" font-family="Helvetica,sans-Serif" font-size="10.00">algorithm</text>
</a>
</g>
</g>
<!-- Node10&#45;&gt;Node11 -->
<g id="edge15_Node000010_Node000011" class="edge">
<title>Node10&#45;&gt;Node11</title>
<g id="a_edge15_Node000010_Node000011"><a xlink:title=" ">
<path fill="none" stroke="#63b8ff" d="M539.79,-164.98C528.38,-156.92 511.01,-144.65 497.41,-135.03"/>
<polygon fill="#63b8ff" stroke="#63b8ff" points="499.3,-132.08 489.11,-129.17 495.26,-137.8 499.3,-132.08"/>
</a>
</g>
</g>
<!-- Node12 -->
<g id="Node000012" class="node">
<title>Node12</title>
<g id="a_Node000012"><a xlink:title=" ">
<polygon fill="#e0e0e0" stroke="#999999" points="576.34,-129 527.34,-129 527.34,-110 576.34,-110 576.34,-129"/>
<text text-anchor="middle" x="551.84" y="-117" font-family="Helvetica,sans-Serif" font-size="10.00">cctype</text>
</a>
</g>
</g>
<!-- Node10&#45;&gt;Node12 -->
<g id="edge16_Node000010_Node000012" class="edge">
<title>Node10&#45;&gt;Node12</title>
<g id="a_edge16_Node000010_Node000012"><a xlink:title=" ">
<path fill="none" stroke="#63b8ff" d="M551.84,-164.75C551.84,-157.8 551.84,-147.85 551.84,-139.13"/>
<polygon fill="#63b8ff" stroke="#63b8ff" points="555.34,-139.09 551.84,-129.09 548.34,-139.09 555.34,-139.09"/>
</a>
</g>
</g>
<!-- Node13 -->
<g id="Node000013" class="node">
<title>Node13</title>
<g id="a_Node000013"><a xlink:title=" ">
<polygon fill="#e0e0e0" stroke="#999999" points="644.84,-129 594.84,-129 594.84,-110 644.84,-110 644.84,-129"/>
<text text-anchor="middle" x="619.84" y="-117" font-family="Helvetica,sans-Serif" font-size="10.00">chrono</text>
</a>
</g>
</g>
<!-- Node10&#45;&gt;Node13 -->
<g id="edge17_Node000010_Node000013" class="edge">
<title>Node10&#45;&gt;Node13</title>
<g id="a_edge17_Node000010_Node000013"><a xlink:title=" ">
<path fill="none" stroke="#63b8ff" d="M562.77,-164.98C572.92,-157.07 588.26,-145.11 600.49,-135.58"/>
<polygon fill="#63b8ff" stroke="#63b8ff" points="602.98,-138.08 608.72,-129.17 598.68,-132.56 602.98,-138.08"/>
</a>
</g>
</g>
<!-- Node14 -->
<g id="Node000014" class="node">
<title>Node14</title>
<g id="a_Node000014"><a xlink:title=" ">
<polygon fill="#e0e0e0" stroke="#999999" points="748.84,-129 662.84,-129 662.84,-110 748.84,-110 748.84,-129"/>
<text text-anchor="middle" x="705.84" y="-117" font-family="Helvetica,sans-Serif" font-size="10.00">fmt/ostream.h</text>
</a>
</g>
</g>
<!-- Node10&#45;&gt;Node14 -->
<g id="edge19_Node000010_Node000014" class="edge">
<title>Node10&#45;&gt;Node14</title>
<g id="a_edge19_Node000010_Node000014"><a xlink:title=" ">
<path fill="none" stroke="#63b8ff" d="M576.58,-164.98C602.22,-156.16 642.47,-142.31 671.25,-132.41"/>
<polygon fill="#63b8ff" stroke="#63b8ff" points="672.59,-135.65 680.91,-129.08 670.31,-129.03 672.59,-135.65"/>
</a>
</g>
</g>
<!-- Node15 -->
<g id="Node000015" class="node">
<title>Node15</title>
<g id="a_Node000015"><a xlink:title=" ">
<polygon fill="#e0e0e0" stroke="#999999" points="352.84,-129 306.84,-129 306.84,-110 352.84,-110 352.84,-129"/>
<text text-anchor="middle" x="329.84" y="-117" font-family="Helvetica,sans-Serif" font-size="10.00">locale</text>
</a>
</g>
</g>
<!-- Node10&#45;&gt;Node15 -->
<g id="edge20_Node000010_Node000015" class="edge">
<title>Node10&#45;&gt;Node15</title>
<g id="a_edge20_Node000010_Node000015"><a xlink:title=" ">
<path fill="none" stroke="#63b8ff" d="M513.91,-164.96C477.53,-156.7 420.81,-143.61 362.62,-129.14"/>
<polygon fill="#63b8ff" stroke="#63b8ff" points="363.44,-125.74 352.89,-126.71 361.75,-132.53 363.44,-125.74"/>
</a>
</g>
</g>
<!-- Node16 -->
<g id="Node000016" class="node">
<title>Node16</title>
<g id="a_Node000016"><a xlink:title=" ">
<polygon fill="#e0e0e0" stroke="#999999" points="426.84,-129 370.84,-129 370.84,-110 426.84,-110 426.84,-129"/>
<text text-anchor="middle" x="398.84" y="-117" font-family="Helvetica,sans-Serif" font-size="10.00">numeric</text>
</a>
</g>
</g>
<!-- Node10&#45;&gt;Node16 -->
<g id="edge21_Node000010_Node000016" class="edge">
<title>Node10&#45;&gt;Node16</title>
<g id="a_edge21_Node000010_Node000016"><a xlink:title=" ">
<path fill="none" stroke="#63b8ff" d="M527.26,-164.98C501.8,-156.16 461.8,-142.31 433.21,-132.41"/>
<polygon fill="#63b8ff" stroke="#63b8ff" points="434.21,-129.05 423.62,-129.08 431.92,-135.66 434.21,-129.05"/>
</a>
</g>
</g>
<!-- Node10&#45;&gt;Node17 -->
<g id="edge23_Node000010_Node000017" class="edge">
<title>Node10&#45;&gt;Node17</title>
<g id="a_edge23_Node000010_Node000017"><a xlink:title=" ">
<path fill="none" stroke="#63b8ff" d="M594.71,-166.16C642.63,-157.8 722.5,-143.42 790.84,-129 792.11,-128.73 793.41,-128.45 794.72,-128.17"/>
<polygon fill="#63b8ff" stroke="#63b8ff" points="795.82,-131.51 804.79,-125.88 794.27,-124.68 795.82,-131.51"/>
</a>
</g>
</g>
<!-- Node10&#45;&gt;Node18 -->
<g id="edge24_Node000010_Node000018" class="edge">
<title>Node10&#45;&gt;Node18</title>
<g id="a_edge24_Node000010_Node000018"><a xlink:title=" ">
<path fill="none" stroke="#63b8ff" d="M594.41,-168.78C651.84,-162.09 757.46,-148.64 857.18,-128.93"/>
<polygon fill="#63b8ff" stroke="#63b8ff" points="858,-132.33 867.12,-126.94 856.63,-125.47 858,-132.33"/>
</a>
</g>
</g>
</g>
</svg>
