<?xml version="1.0" encoding="UTF-8" standalone="no"?>
<!DOCTYPE svg PUBLIC "-//W3C//DTD SVG 1.1//EN"
 "http://www.w3.org/Graphics/SVG/1.1/DTD/svg11.dtd">
<!-- Generated by graphviz version 2.43.0 (0)
 -->
<!-- Title: /home/runner/work/occ/occ/include/occ/dma/binomial.h Pages: 1 -->
<svg width="599pt" height="203pt"
 viewBox="0.00 0.00 599.00 203.00" xmlns="http://www.w3.org/2000/svg" xmlns:xlink="http://www.w3.org/1999/xlink">
<g id="graph0" class="graph" transform="scale(1 1) rotate(0) translate(4 199)">
<title>/home/runner/work/occ/occ/include/occ/dma/binomial.h</title>
<!-- Node1 -->
<g id="Node000001" class="node">
<title>Node1</title>
<g id="a_Node000001"><a xlink:title=" ">
<polygon fill="#999999" stroke="#666666" points="350,-195 222,-195 222,-154 350,-154 350,-195"/>
<text text-anchor="start" x="230" y="-183" font-family="Helvetica,sans-Serif" font-size="10.00">/home/runner/work/occ</text>
<text text-anchor="start" x="230" y="-172" font-family="Helvetica,sans-Serif" font-size="10.00">/occ/include/occ/dma</text>
<text text-anchor="middle" x="286" y="-161" font-family="Helvetica,sans-Serif" font-size="10.00">/binomial.h</text>
</a>
</g>
</g>
<!-- Node2 -->
<g id="Node000002" class="node">
<title>Node2</title>
<g id="a_Node000002"><a xlink:href="multipole__shifter_8h.html" target="_top" xlink:title=" ">
<polygon fill="white" stroke="#666666" points="128,-118 0,-118 0,-77 128,-77 128,-118"/>
<text text-anchor="start" x="8" y="-106" font-family="Helvetica,sans-Serif" font-size="10.00">/home/runner/work/occ</text>
<text text-anchor="start" x="8" y="-95" font-family="Helvetica,sans-Serif" font-size="10.00">/occ/include/occ/dma</text>
<text text-anchor="middle" x="64" y="-84" font-family="Helvetica,sans-Serif" font-size="10.00">/multipole_shifter.h</text>
</a>
</g>
</g>
<!-- Node1&#45;&gt;Node2 -->
<g id="edge1_Node000001_Node000002" class="edge">
<title>Node1&#45;&gt;Node2</title>
<g id="a_edge1_Node000001_Node000002"><a xlink:title=" ">
<path fill="none" stroke="#63b8ff" d="M218.44,-150.67C187.59,-140.25 151.42,-128.03 121.84,-118.04"/>
<polygon fill="#63b8ff" stroke="#63b8ff" points="217.66,-154.11 228.25,-153.99 219.9,-147.47 217.66,-154.11"/>
</a>
</g>
</g>
<!-- Node3 -->
<g id="Node000003" class="node">
<title>Node3</title>
<g id="a_Node000003"><a xlink:href="sfunction__evaluator_8h.html" target="_top" xlink:title=" ">
<polygon fill="white" stroke="#666666" points="274,-118 146,-118 146,-77 274,-77 274,-118"/>
<text text-anchor="start" x="154" y="-106" font-family="Helvetica,sans-Serif" font-size="10.00">/home/runner/work/occ</text>
<text text-anchor="start" x="154" y="-95" font-family="Helvetica,sans-Serif" font-size="10.00">/occ/include/occ/mults</text>
<text text-anchor="middle" x="210" y="-84" font-family="Helvetica,sans-Serif" font-size="10.00">/sfunction_evaluator.h</text>
</a>
</g>
</g>
<!-- Node1&#45;&gt;Node3 -->
<g id="edge2_Node000001_Node000003" class="edge">
<title>Node1&#45;&gt;Node3</title>
<g id="a_edge2_Node000001_Node000003"><a xlink:title=" ">
<path fill="none" stroke="#63b8ff" d="M258.65,-146.51C249.13,-137.11 238.63,-126.76 229.83,-118.07"/>
<polygon fill="#63b8ff" stroke="#63b8ff" points="256.46,-149.26 266.03,-153.79 261.37,-144.28 256.46,-149.26"/>
</a>
</g>
</g>
<!-- Node5 -->
<g id="Node000005" class="node">
<title>Node5</title>
<g id="a_Node000005"><a xlink:href="sfunction__term__builder_8h.html" target="_top" xlink:title=" ">
<polygon fill="white" stroke="#666666" points="432,-118 292,-118 292,-77 432,-77 432,-118"/>
<text text-anchor="start" x="300" y="-106" font-family="Helvetica,sans-Serif" font-size="10.00">/home/runner/work/occ</text>
<text text-anchor="start" x="300" y="-95" font-family="Helvetica,sans-Serif" font-size="10.00">/occ/include/occ/mults</text>
<text text-anchor="middle" x="362" y="-84" font-family="Helvetica,sans-Serif" font-size="10.00">/sfunction_term_builder.h</text>
</a>
</g>
</g>
<!-- Node1&#45;&gt;Node5 -->
<g id="edge4_Node000001_Node000005" class="edge">
<title>Node1&#45;&gt;Node5</title>
<g id="a_edge4_Node000001_Node000005"><a xlink:title=" ">
<path fill="none" stroke="#63b8ff" d="M313.35,-146.51C322.87,-137.11 333.37,-126.76 342.17,-118.07"/>
<polygon fill="#63b8ff" stroke="#63b8ff" points="310.63,-144.28 305.97,-153.79 315.54,-149.26 310.63,-144.28"/>
</a>
</g>
</g>
<!-- Node6 -->
<g id="Node000006" class="node">
<title>Node6</title>
<g id="a_Node000006"><a xlink:href="sfunctions_8h.html" target="_top" xlink:title=" ">
<polygon fill="white" stroke="#666666" points="578,-118 450,-118 450,-77 578,-77 578,-118"/>
<text text-anchor="start" x="458" y="-106" font-family="Helvetica,sans-Serif" font-size="10.00">/home/runner/work/occ</text>
<text text-anchor="start" x="458" y="-95" font-family="Helvetica,sans-Serif" font-size="10.00">/occ/include/occ/mults</text>
<text text-anchor="middle" x="514" y="-84" font-family="Helvetica,sans-Serif" font-size="10.00">/sfunctions.h</text>
</a>
</g>
</g>
<!-- Node1&#45;&gt;Node6 -->
<g id="edge6_Node000001_Node000006" class="edge">
<title>Node1&#45;&gt;Node6</title>
<g id="a_edge6_Node000001_Node000006"><a xlink:title=" ">
<path fill="none" stroke="#63b8ff" d="M354.98,-150.81C386.75,-140.36 424.09,-128.08 454.59,-118.04"/>
<polygon fill="#63b8ff" stroke="#63b8ff" points="353.71,-147.54 345.31,-153.99 355.9,-154.19 353.71,-147.54"/>
</a>
</g>
</g>
<!-- Node4 -->
<g id="Node000004" class="node">
<title>Node4</title>
<g id="a_Node000004"><a xlink:href="multipole__interactions_8h.html" target="_top" xlink:title=" ">
<polygon fill="white" stroke="#666666" points="349,-41 211,-41 211,0 349,0 349,-41"/>
<text text-anchor="start" x="219" y="-29" font-family="Helvetica,sans-Serif" font-size="10.00">/home/runner/work/occ</text>
<text text-anchor="start" x="219" y="-18" font-family="Helvetica,sans-Serif" font-size="10.00">/occ/include/occ/mults</text>
<text text-anchor="middle" x="280" y="-7" font-family="Helvetica,sans-Serif" font-size="10.00">/multipole_interactions.h</text>
</a>
</g>
</g>
<!-- Node3&#45;&gt;Node4 -->
<g id="edge3_Node000003_Node000004" class="edge">
<title>Node3&#45;&gt;Node4</title>
<g id="a_edge3_Node000003_Node000004"><a xlink:title=" ">
<path fill="none" stroke="#63b8ff" d="M235.45,-69.23C244.15,-59.91 253.71,-49.67 261.73,-41.07"/>
<polygon fill="#63b8ff" stroke="#63b8ff" points="232.66,-67.1 228.39,-76.79 237.77,-71.87 232.66,-67.1"/>
</a>
</g>
</g>
<!-- Node5&#45;&gt;Node4 -->
<g id="edge5_Node000005_Node000004" class="edge">
<title>Node5&#45;&gt;Node4</title>
<g id="a_edge5_Node000005_Node000004"><a xlink:title=" ">
<path fill="none" stroke="#63b8ff" d="M332.8,-69.79C322.44,-60.32 310.99,-49.84 301.4,-41.07"/>
<polygon fill="#63b8ff" stroke="#63b8ff" points="330.71,-72.63 340.46,-76.79 335.44,-67.46 330.71,-72.63"/>
</a>
</g>
</g>
<!-- Node7 -->
<g id="Node000007" class="node">
<title>Node7</title>
<g id="a_Node000007"><a xlink:href="mults_2esp_8h.html" target="_top" xlink:title=" ">
<polygon fill="white" stroke="#666666" points="591,-35.5 437,-35.5 437,-5.5 591,-5.5 591,-35.5"/>
<text text-anchor="start" x="445" y="-23.5" font-family="Helvetica,sans-Serif" font-size="10.00">/home/runner/work/occ</text>
<text text-anchor="middle" x="514" y="-12.5" font-family="Helvetica,sans-Serif" font-size="10.00">/occ/include/occ/mults/esp.h</text>
</a>
</g>
</g>
<!-- Node6&#45;&gt;Node7 -->
<g id="edge7_Node000006_Node000007" class="edge">
<title>Node6&#45;&gt;Node7</title>
<g id="a_edge7_Node000006_Node000007"><a xlink:title=" ">
<path fill="none" stroke="#63b8ff" d="M514,-66.61C514,-56.01 514,-44.57 514,-35.86"/>
<polygon fill="#63b8ff" stroke="#63b8ff" points="510.5,-66.79 514,-76.79 517.5,-66.79 510.5,-66.79"/>
</a>
</g>
</g>
</g>
</svg>
