<?xml version="1.0" encoding="UTF-8" standalone="no"?>
<!DOCTYPE svg PUBLIC "-//W3C//DTD SVG 1.1//EN"
 "http://www.w3.org/Graphics/SVG/1.1/DTD/svg11.dtd">
<!-- Generated by graphviz version 2.43.0 (0)
 -->
<!-- Title: /home/runner/work/occ/occ/include/occ/mults/cartesian_hessian.h Pages: 1 -->
<svg width="852pt" height="412pt"
 viewBox="0.00 0.00 851.50 412.00" xmlns="http://www.w3.org/2000/svg" xmlns:xlink="http://www.w3.org/1999/xlink">
<g id="graph0" class="graph" transform="scale(1 1) rotate(0) translate(4 408)">
<title>/home/runner/work/occ/occ/include/occ/mults/cartesian_hessian.h</title>
<!-- Node1 -->
<g id="Node000001" class="node">
<title>Node1</title>
<g id="a_Node000001"><a xlink:title=" ">
<polygon fill="#999999" stroke="#666666" points="383,-404 255,-404 255,-363 383,-363 383,-404"/>
<text text-anchor="start" x="263" y="-392" font-family="Helvetica,sans-Serif" font-size="10.00">/home/runner/work/occ</text>
<text text-anchor="start" x="263" y="-381" font-family="Helvetica,sans-Serif" font-size="10.00">/occ/include/occ/mults</text>
<text text-anchor="middle" x="319" y="-370" font-family="Helvetica,sans-Serif" font-size="10.00">/cartesian_hessian.h</text>
</a>
</g>
</g>
<!-- Node2 -->
<g id="Node000002" class="node">
<title>Node2</title>
<g id="a_Node000002"><a xlink:href="cartesian__multipole_8h.html" target="_top" xlink:title=" ">
<polygon fill="white" stroke="#666666" points="440,-195 328,-195 328,-165 440,-165 440,-195"/>
<text text-anchor="start" x="336" y="-183" font-family="Helvetica,sans-Serif" font-size="10.00">occ/mults/cartesian</text>
<text text-anchor="middle" x="384" y="-172" font-family="Helvetica,sans-Serif" font-size="10.00">_multipole.h</text>
</a>
</g>
</g>
<!-- Node1&#45;&gt;Node2 -->
<g id="edge1_Node000001_Node000002" class="edge">
<title>Node1&#45;&gt;Node2</title>
<g id="a_edge1_Node000001_Node000002"><a xlink:title=" ">
<path fill="none" stroke="#63b8ff" d="M279,-362.84C226.81,-334.58 146.46,-280.43 185,-231 189.26,-225.54 261.69,-208.28 317.95,-195.56"/>
<polygon fill="#63b8ff" stroke="#63b8ff" points="318.91,-198.94 327.89,-193.32 317.37,-192.11 318.91,-198.94"/>
</a>
</g>
</g>
<!-- Node9 -->
<g id="Node000009" class="node">
<title>Node9</title>
<g id="a_Node000009"><a xlink:href="linear__algebra_8h.html" target="_top" xlink:title=" ">
<polygon fill="white" stroke="#666666" points="817.5,-74 678.5,-74 678.5,-55 817.5,-55 817.5,-74"/>
<text text-anchor="middle" x="748" y="-62" font-family="Helvetica,sans-Serif" font-size="10.00">occ/core/linear_algebra.h</text>
</a>
</g>
</g>
<!-- Node1&#45;&gt;Node9 -->
<g id="edge33_Node000001_Node000009" class="edge">
<title>Node1&#45;&gt;Node9</title>
<g id="a_edge33_Node000001_Node000009"><a xlink:title=" ">
<path fill="none" stroke="#63b8ff" d="M383.23,-375C499.52,-359.62 733,-319.7 733,-247 733,-247 733,-247 733,-179 733,-145.33 739.57,-106.53 744.01,-84.13"/>
<polygon fill="#63b8ff" stroke="#63b8ff" points="747.45,-84.78 746.04,-74.28 740.59,-83.37 747.45,-84.78"/>
</a>
</g>
</g>
<!-- Node15 -->
<g id="Node000015" class="node">
<title>Node15</title>
<g id="a_Node000015"><a xlink:href="cartesian__molecule_8h.html" target="_top" xlink:title=" ">
<polygon fill="white" stroke="#666666" points="528,-327 416,-327 416,-297 528,-297 528,-327"/>
<text text-anchor="start" x="424" y="-315" font-family="Helvetica,sans-Serif" font-size="10.00">occ/mults/cartesian</text>
<text text-anchor="middle" x="472" y="-304" font-family="Helvetica,sans-Serif" font-size="10.00">_molecule.h</text>
</a>
</g>
</g>
<!-- Node1&#45;&gt;Node15 -->
<g id="edge17_Node000001_Node000015" class="edge">
<title>Node1&#45;&gt;Node15</title>
<g id="a_edge17_Node000001_Node000015"><a xlink:title=" ">
<path fill="none" stroke="#63b8ff" d="M362.03,-362.96C383.89,-353.02 410.3,-341.03 431.76,-331.28"/>
<polygon fill="#63b8ff" stroke="#63b8ff" points="433.27,-334.44 440.93,-327.11 430.38,-328.06 433.27,-334.44"/>
</a>
</g>
</g>
<!-- Node21 -->
<g id="Node000021" class="node">
<title>Node21</title>
<g id="a_Node000021"><a xlink:href="cutoff__spline_8h.html" target="_top" xlink:title=" ">
<polygon fill="white" stroke="#666666" points="138,-321.5 0,-321.5 0,-302.5 138,-302.5 138,-321.5"/>
<text text-anchor="middle" x="69" y="-309.5" font-family="Helvetica,sans-Serif" font-size="10.00">occ/mults/cutoff_spline.h</text>
</a>
</g>
</g>
<!-- Node1&#45;&gt;Node21 -->
<g id="edge31_Node000001_Node000021" class="edge">
<title>Node1&#45;&gt;Node21</title>
<g id="a_edge31_Node000001_Node000021"><a xlink:title=" ">
<path fill="none" stroke="#63b8ff" d="M254.94,-364.69C209.16,-351.97 148.94,-335.22 109.62,-324.29"/>
<polygon fill="#63b8ff" stroke="#63b8ff" points="110.42,-320.88 99.85,-321.58 108.54,-327.63 110.42,-320.88"/>
</a>
</g>
</g>
<!-- Node3 -->
<g id="Node000003" class="node">
<title>Node3</title>
<g id="a_Node000003"><a xlink:href="rints_8h.html" target="_top" xlink:title=" ">
<polygon fill="white" stroke="#666666" points="300,-129 212,-129 212,-110 300,-110 300,-129"/>
<text text-anchor="middle" x="256" y="-117" font-family="Helvetica,sans-Serif" font-size="10.00">occ/ints/rints.h</text>
</a>
</g>
</g>
<!-- Node2&#45;&gt;Node3 -->
<g id="edge2_Node000002_Node000003" class="edge">
<title>Node2&#45;&gt;Node3</title>
<g id="a_edge2_Node000002_Node000003"><a xlink:title=" ">
<path fill="none" stroke="#63b8ff" d="M353.34,-164.99C332.27,-155.36 304.51,-142.67 284.03,-133.31"/>
<polygon fill="#63b8ff" stroke="#63b8ff" points="285.45,-130.11 274.9,-129.14 282.54,-136.48 285.45,-130.11"/>
</a>
</g>
</g>
<!-- Node6 -->
<g id="Node000006" class="node">
<title>Node6</title>
<g id="a_Node000006"><a xlink:title=" ">
<polygon fill="#e0e0e0" stroke="#999999" points="168.5,-19 121.5,-19 121.5,0 168.5,0 168.5,-19"/>
<text text-anchor="middle" x="145" y="-7" font-family="Helvetica,sans-Serif" font-size="10.00">cmath</text>
</a>
</g>
</g>
<!-- Node2&#45;&gt;Node6 -->
<g id="edge15_Node000002_Node000006" class="edge">
<title>Node2&#45;&gt;Node6</title>
<g id="a_edge15_Node000002_Node000006"><a xlink:title=" ">
<path fill="none" stroke="#63b8ff" d="M327.67,-165.9C278.27,-154.02 212.82,-137.14 203,-129 171.38,-102.77 155.6,-55.12 148.98,-28.94"/>
<polygon fill="#63b8ff" stroke="#63b8ff" points="152.38,-28.1 146.69,-19.17 145.56,-29.7 152.38,-28.1"/>
</a>
</g>
</g>
<!-- Node8 -->
<g id="Node000008" class="node">
<title>Node8</title>
<g id="a_Node000008"><a xlink:href="mult_8h.html" target="_top" xlink:title=" ">
<polygon fill="white" stroke="#666666" points="593,-129 501,-129 501,-110 593,-110 593,-129"/>
<text text-anchor="middle" x="547" y="-117" font-family="Helvetica,sans-Serif" font-size="10.00">occ/dma/mult.h</text>
</a>
</g>
</g>
<!-- Node2&#45;&gt;Node8 -->
<g id="edge9_Node000002_Node000008" class="edge">
<title>Node2&#45;&gt;Node8</title>
<g id="a_edge9_Node000002_Node000008"><a xlink:title=" ">
<path fill="none" stroke="#63b8ff" d="M423.04,-164.99C450.6,-155.1 487.15,-141.98 513.41,-132.56"/>
<polygon fill="#63b8ff" stroke="#63b8ff" points="514.7,-135.81 522.93,-129.14 512.33,-129.22 514.7,-135.81"/>
</a>
</g>
</g>
<!-- Node14 -->
<g id="Node000014" class="node">
<title>Node14</title>
<g id="a_Node000014"><a xlink:title=" ">
<polygon fill="#e0e0e0" stroke="#999999" points="445,-129 395,-129 395,-110 445,-110 445,-129"/>
<text text-anchor="middle" x="420" y="-117" font-family="Helvetica,sans-Serif" font-size="10.00">cstring</text>
</a>
</g>
</g>
<!-- Node2&#45;&gt;Node14 -->
<g id="edge16_Node000002_Node000014" class="edge">
<title>Node2&#45;&gt;Node14</title>
<g id="a_edge16_Node000002_Node000014"><a xlink:title=" ">
<path fill="none" stroke="#63b8ff" d="M392.71,-164.84C397.67,-156.78 403.93,-146.62 409.2,-138.06"/>
<polygon fill="#63b8ff" stroke="#63b8ff" points="412.35,-139.62 414.61,-129.27 406.38,-135.95 412.35,-139.62"/>
</a>
</g>
</g>
<!-- Node4 -->
<g id="Node000004" class="node">
<title>Node4</title>
<g id="a_Node000004"><a xlink:href="boys_8h.html" target="_top" xlink:title=" ">
<polygon fill="white" stroke="#666666" points="300.5,-74 211.5,-74 211.5,-55 300.5,-55 300.5,-74"/>
<text text-anchor="middle" x="256" y="-62" font-family="Helvetica,sans-Serif" font-size="10.00">occ/ints/boys.h</text>
</a>
</g>
</g>
<!-- Node3&#45;&gt;Node4 -->
<g id="edge3_Node000003_Node000004" class="edge">
<title>Node3&#45;&gt;Node4</title>
<g id="a_edge3_Node000003_Node000004"><a xlink:title=" ">
<path fill="none" stroke="#63b8ff" d="M256,-109.75C256,-102.8 256,-92.85 256,-84.13"/>
<polygon fill="#63b8ff" stroke="#63b8ff" points="259.5,-84.09 256,-74.09 252.5,-84.09 259.5,-84.09"/>
</a>
</g>
</g>
<!-- Node5 -->
<g id="Node000005" class="node">
<title>Node5</title>
<g id="a_Node000005"><a xlink:title=" ">
<polygon fill="#e0e0e0" stroke="#999999" points="369,-19 327,-19 327,0 369,0 369,-19"/>
<text text-anchor="middle" x="348" y="-7" font-family="Helvetica,sans-Serif" font-size="10.00">array</text>
</a>
</g>
</g>
<!-- Node3&#45;&gt;Node5 -->
<g id="edge7_Node000003_Node000005" class="edge">
<title>Node3&#45;&gt;Node5</title>
<g id="a_edge7_Node000003_Node000005"><a xlink:title=" ">
<path fill="none" stroke="#63b8ff" d="M269.08,-109.69C280.74,-101.41 297.8,-88.18 310,-74 322.02,-60.03 332.5,-41.78 339.39,-28.43"/>
<polygon fill="#63b8ff" stroke="#63b8ff" points="342.6,-29.84 343.93,-19.33 336.33,-26.72 342.6,-29.84"/>
</a>
</g>
</g>
<!-- Node3&#45;&gt;Node6 -->
<g id="edge8_Node000003_Node000006" class="edge">
<title>Node3&#45;&gt;Node6</title>
<g id="a_edge8_Node000003_Node000006"><a xlink:title=" ">
<path fill="none" stroke="#63b8ff" d="M244.67,-109.71C233.68,-101.01 216.7,-87.14 203,-74 187.09,-58.74 170.24,-39.96 158.82,-26.79"/>
<polygon fill="#63b8ff" stroke="#63b8ff" points="161.34,-24.35 152.17,-19.05 156.03,-28.91 161.34,-24.35"/>
</a>
</g>
</g>
<!-- Node4&#45;&gt;Node5 -->
<g id="edge4_Node000004_Node000005" class="edge">
<title>Node4&#45;&gt;Node5</title>
<g id="a_edge4_Node000004_Node000005"><a xlink:title=" ">
<path fill="none" stroke="#63b8ff" d="M270.78,-54.98C285.18,-46.69 307.31,-33.94 324.19,-24.22"/>
<polygon fill="#63b8ff" stroke="#63b8ff" points="326.03,-27.19 332.95,-19.17 322.54,-21.13 326.03,-27.19"/>
</a>
</g>
</g>
<!-- Node4&#45;&gt;Node6 -->
<g id="edge5_Node000004_Node000006" class="edge">
<title>Node4&#45;&gt;Node6</title>
<g id="a_edge5_Node000004_Node000006"><a xlink:title=" ">
<path fill="none" stroke="#63b8ff" d="M238.17,-54.98C220.39,-46.5 192.85,-33.35 172.32,-23.54"/>
<polygon fill="#63b8ff" stroke="#63b8ff" points="173.69,-20.32 163.16,-19.17 170.67,-26.64 173.69,-20.32"/>
</a>
</g>
</g>
<!-- Node7 -->
<g id="Node000007" class="node">
<title>Node7</title>
<g id="a_Node000007"><a xlink:title=" ">
<polygon fill="#e0e0e0" stroke="#999999" points="285,-19 227,-19 227,0 285,0 285,-19"/>
<text text-anchor="middle" x="256" y="-7" font-family="Helvetica,sans-Serif" font-size="10.00">memory</text>
</a>
</g>
</g>
<!-- Node4&#45;&gt;Node7 -->
<g id="edge6_Node000004_Node000007" class="edge">
<title>Node4&#45;&gt;Node7</title>
<g id="a_edge6_Node000004_Node000007"><a xlink:title=" ">
<path fill="none" stroke="#63b8ff" d="M256,-54.75C256,-47.8 256,-37.85 256,-29.13"/>
<polygon fill="#63b8ff" stroke="#63b8ff" points="259.5,-29.09 256,-19.09 252.5,-29.09 259.5,-29.09"/>
</a>
</g>
</g>
<!-- Node8&#45;&gt;Node9 -->
<g id="edge10_Node000008_Node000009" class="edge">
<title>Node8&#45;&gt;Node9</title>
<g id="a_edge10_Node000008_Node000009"><a xlink:title=" ">
<path fill="none" stroke="#63b8ff" d="M579.29,-109.98C613.62,-100.93 668.06,-86.58 705.77,-76.64"/>
<polygon fill="#63b8ff" stroke="#63b8ff" points="706.68,-80.02 715.45,-74.08 704.89,-73.25 706.68,-80.02"/>
</a>
</g>
</g>
<!-- Node12 -->
<g id="Node000012" class="node">
<title>Node12</title>
<g id="a_Node000012"><a xlink:href="macros_8h.html" target="_top" xlink:title=" ">
<polygon fill="white" stroke="#666666" points="660.5,-74 555.5,-74 555.5,-55 660.5,-55 660.5,-74"/>
<text text-anchor="middle" x="608" y="-62" font-family="Helvetica,sans-Serif" font-size="10.00">occ/core/macros.h</text>
</a>
</g>
</g>
<!-- Node8&#45;&gt;Node12 -->
<g id="edge13_Node000008_Node000012" class="edge">
<title>Node8&#45;&gt;Node12</title>
<g id="a_edge13_Node000008_Node000012"><a xlink:title=" ">
<path fill="none" stroke="#63b8ff" d="M556.8,-109.98C565.82,-102.15 579.41,-90.34 590.32,-80.86"/>
<polygon fill="#63b8ff" stroke="#63b8ff" points="592.77,-83.37 598.02,-74.17 588.18,-78.09 592.77,-83.37"/>
</a>
</g>
</g>
<!-- Node13 -->
<g id="Node000013" class="node">
<title>Node13</title>
<g id="a_Node000013"><a xlink:title=" ">
<polygon fill="#e0e0e0" stroke="#999999" points="537,-74 493,-74 493,-55 537,-55 537,-74"/>
<text text-anchor="middle" x="515" y="-62" font-family="Helvetica,sans-Serif" font-size="10.00">string</text>
</a>
</g>
</g>
<!-- Node8&#45;&gt;Node13 -->
<g id="edge14_Node000008_Node000013" class="edge">
<title>Node8&#45;&gt;Node13</title>
<g id="a_edge14_Node000008_Node000013"><a xlink:title=" ">
<path fill="none" stroke="#63b8ff" d="M541.72,-109.75C537.29,-102.42 530.84,-91.73 525.38,-82.7"/>
<polygon fill="#63b8ff" stroke="#63b8ff" points="528.35,-80.84 520.19,-74.09 522.36,-84.46 528.35,-80.84"/>
</a>
</g>
</g>
<!-- Node10 -->
<g id="Node000010" class="node">
<title>Node10</title>
<g id="a_Node000010"><a xlink:title=" ">
<polygon fill="#e0e0e0" stroke="#999999" points="732.5,-19 663.5,-19 663.5,0 732.5,0 732.5,-19"/>
<text text-anchor="middle" x="698" y="-7" font-family="Helvetica,sans-Serif" font-size="10.00">Eigen/Core</text>
</a>
</g>
</g>
<!-- Node9&#45;&gt;Node10 -->
<g id="edge11_Node000009_Node000010" class="edge">
<title>Node9&#45;&gt;Node10</title>
<g id="a_edge11_Node000009_Node000010"><a xlink:title=" ">
<path fill="none" stroke="#63b8ff" d="M739.74,-54.75C732.54,-47.11 721.89,-35.82 713.15,-26.56"/>
<polygon fill="#63b8ff" stroke="#63b8ff" points="715.51,-23.96 706.1,-19.09 710.42,-28.76 715.51,-23.96"/>
</a>
</g>
</g>
<!-- Node11 -->
<g id="Node000011" class="node">
<title>Node11</title>
<g id="a_Node000011"><a xlink:title=" ">
<polygon fill="#e0e0e0" stroke="#999999" points="843.5,-19 750.5,-19 750.5,0 843.5,0 843.5,-19"/>
<text text-anchor="middle" x="797" y="-7" font-family="Helvetica,sans-Serif" font-size="10.00">Eigen/StdVector</text>
</a>
</g>
</g>
<!-- Node9&#45;&gt;Node11 -->
<g id="edge12_Node000009_Node000011" class="edge">
<title>Node9&#45;&gt;Node11</title>
<g id="a_edge12_Node000009_Node000011"><a xlink:title=" ">
<path fill="none" stroke="#63b8ff" d="M756.09,-54.75C763.16,-47.11 773.59,-35.82 782.15,-26.56"/>
<polygon fill="#63b8ff" stroke="#63b8ff" points="784.84,-28.81 789.06,-19.09 779.7,-24.06 784.84,-28.81"/>
</a>
</g>
</g>
<!-- Node15&#45;&gt;Node2 -->
<g id="edge18_Node000015_Node000002" class="edge">
<title>Node15&#45;&gt;Node2</title>
<g id="a_edge18_Node000015_Node000002"><a xlink:title=" ">
<path fill="none" stroke="#63b8ff" d="M471.57,-296.82C470.43,-279.84 466.47,-251.19 453,-231 444.81,-218.72 432.52,-208.42 420.57,-200.42"/>
<polygon fill="#63b8ff" stroke="#63b8ff" points="422.32,-197.38 412,-195 418.58,-203.3 422.32,-197.38"/>
</a>
</g>
</g>
<!-- Node15&#45;&gt;Node5 -->
<g id="edge28_Node000015_Node000005" class="edge">
<title>Node15&#45;&gt;Node5</title>
<g id="a_edge28_Node000015_Node000005"><a xlink:title=" ">
<path fill="none" stroke="#63b8ff" d="M474.28,-296.81C479.08,-262.42 487.24,-172.87 454,-110 434.35,-72.84 395.4,-41.92 370.59,-24.84"/>
<polygon fill="#63b8ff" stroke="#63b8ff" points="372.4,-21.85 362.14,-19.19 368.51,-27.66 372.4,-21.85"/>
</a>
</g>
</g>
<!-- Node15&#45;&gt;Node8 -->
<g id="edge26_Node000015_Node000008" class="edge">
<title>Node15&#45;&gt;Node8</title>
<g id="a_edge26_Node000015_Node000008"><a xlink:title=" ">
<path fill="none" stroke="#63b8ff" d="M492.15,-296.85C503.34,-287.89 516.49,-275.3 524,-261 544.81,-221.38 547.69,-167.53 547.59,-139.39"/>
<polygon fill="#63b8ff" stroke="#63b8ff" points="551.09,-139.27 547.42,-129.33 544.09,-139.38 551.09,-139.27"/>
</a>
</g>
</g>
<!-- Node15&#45;&gt;Node9 -->
<g id="edge25_Node000015_Node000009" class="edge">
<title>Node15&#45;&gt;Node9</title>
<g id="a_edge25_Node000015_Node000009"><a xlink:title=" ">
<path fill="none" stroke="#63b8ff" d="M493.73,-296.92C508.11,-287.31 527.16,-274.01 543,-261 618.29,-199.16 699.83,-115.95 732.85,-81.48"/>
<polygon fill="#63b8ff" stroke="#63b8ff" points="735.45,-83.82 739.82,-74.17 730.39,-78.98 735.45,-83.82"/>
</a>
</g>
</g>
<!-- Node16 -->
<g id="Node000016" class="node">
<title>Node16</title>
<g id="a_Node000016"><a xlink:href="cartesian__kernels_8h.html" target="_top" xlink:title=" ">
<polygon fill="white" stroke="#666666" points="306,-261 194,-261 194,-231 306,-231 306,-261"/>
<text text-anchor="start" x="202" y="-249" font-family="Helvetica,sans-Serif" font-size="10.00">occ/mults/cartesian</text>
<text text-anchor="middle" x="250" y="-238" font-family="Helvetica,sans-Serif" font-size="10.00">_kernels.h</text>
</a>
</g>
</g>
<!-- Node15&#45;&gt;Node16 -->
<g id="edge19_Node000015_Node000016" class="edge">
<title>Node15&#45;&gt;Node16</title>
<g id="a_edge19_Node000015_Node000016"><a xlink:title=" ">
<path fill="none" stroke="#63b8ff" d="M423.28,-296.95C389.45,-287.2 344.2,-274.16 308.43,-263.84"/>
<polygon fill="#63b8ff" stroke="#63b8ff" points="309.18,-260.42 298.61,-261.01 307.24,-267.15 309.18,-260.42"/>
</a>
</g>
</g>
<!-- Node18 -->
<g id="Node000018" class="node">
<title>Node18</title>
<g id="a_Node000018"><a xlink:title=" ">
<polygon fill="#e0e0e0" stroke="#999999" points="696.5,-255.5 649.5,-255.5 649.5,-236.5 696.5,-236.5 696.5,-255.5"/>
<text text-anchor="middle" x="673" y="-243.5" font-family="Helvetica,sans-Serif" font-size="10.00">vector</text>
</a>
</g>
</g>
<!-- Node15&#45;&gt;Node18 -->
<g id="edge27_Node000015_Node000018" class="edge">
<title>Node15&#45;&gt;Node18</title>
<g id="a_edge27_Node000015_Node000018"><a xlink:title=" ">
<path fill="none" stroke="#63b8ff" d="M520.37,-296.93C552.92,-287.27 596.72,-273.91 635,-261 636.85,-260.38 638.74,-259.72 640.65,-259.06"/>
<polygon fill="#63b8ff" stroke="#63b8ff" points="641.93,-262.31 650.16,-255.65 639.57,-255.72 641.93,-262.31"/>
</a>
</g>
</g>
<!-- Node19 -->
<g id="Node000019" class="node">
<title>Node19</title>
<g id="a_Node000019"><a xlink:title=" ">
<polygon fill="#e0e0e0" stroke="#999999" points="369.5,-255.5 324.5,-255.5 324.5,-236.5 369.5,-236.5 369.5,-255.5"/>
<text text-anchor="middle" x="347" y="-243.5" font-family="Helvetica,sans-Serif" font-size="10.00">utility</text>
</a>
</g>
</g>
<!-- Node15&#45;&gt;Node19 -->
<g id="edge29_Node000015_Node000019" class="edge">
<title>Node15&#45;&gt;Node19</title>
<g id="a_edge29_Node000015_Node000019"><a xlink:title=" ">
<path fill="none" stroke="#63b8ff" d="M444.57,-296.95C423.13,-285.98 393.55,-270.83 372.6,-260.11"/>
<polygon fill="#63b8ff" stroke="#63b8ff" points="374.13,-256.96 363.64,-255.52 370.94,-263.19 374.13,-256.96"/>
</a>
</g>
</g>
<!-- Node20 -->
<g id="Node000020" class="node">
<title>Node20</title>
<g id="a_Node000020"><a xlink:title=" ">
<polygon fill="#e0e0e0" stroke="#999999" points="444,-255.5 388,-255.5 388,-236.5 444,-236.5 444,-255.5"/>
<text text-anchor="middle" x="416" y="-243.5" font-family="Helvetica,sans-Serif" font-size="10.00">optional</text>
</a>
</g>
</g>
<!-- Node15&#45;&gt;Node20 -->
<g id="edge30_Node000015_Node000020" class="edge">
<title>Node15&#45;&gt;Node20</title>
<g id="a_edge30_Node000015_Node000020"><a xlink:title=" ">
<path fill="none" stroke="#63b8ff" d="M459.57,-296.8C450.93,-286.92 439.38,-273.72 430.34,-263.39"/>
<polygon fill="#63b8ff" stroke="#63b8ff" points="432.96,-261.07 423.74,-255.84 427.69,-265.67 432.96,-261.07"/>
</a>
</g>
</g>
<!-- Node16&#45;&gt;Node2 -->
<g id="edge24_Node000016_Node000002" class="edge">
<title>Node16&#45;&gt;Node2</title>
<g id="a_edge24_Node000016_Node000002"><a xlink:title=" ">
<path fill="none" stroke="#63b8ff" d="M279.41,-230.95C298.78,-221.7 324.36,-209.49 345.37,-199.45"/>
<polygon fill="#63b8ff" stroke="#63b8ff" points="347.15,-202.48 354.66,-195.01 344.13,-196.16 347.15,-202.48"/>
</a>
</g>
</g>
<!-- Node17 -->
<g id="Node000017" class="node">
<title>Node17</title>
<g id="a_Node000017"><a xlink:href="interaction__tensor_8h.html" target="_top" xlink:title=" ">
<polygon fill="white" stroke="#666666" points="309.5,-195 190.5,-195 190.5,-165 309.5,-165 309.5,-195"/>
<text text-anchor="start" x="198.5" y="-183" font-family="Helvetica,sans-Serif" font-size="10.00">occ/mults/interaction</text>
<text text-anchor="middle" x="250" y="-172" font-family="Helvetica,sans-Serif" font-size="10.00">_tensor.h</text>
</a>
</g>
</g>
<!-- Node16&#45;&gt;Node17 -->
<g id="edge20_Node000016_Node000017" class="edge">
<title>Node16&#45;&gt;Node17</title>
<g id="a_edge20_Node000016_Node000017"><a xlink:title=" ">
<path fill="none" stroke="#63b8ff" d="M250,-230.8C250,-223.34 250,-213.99 250,-205.41"/>
<polygon fill="#63b8ff" stroke="#63b8ff" points="253.5,-205.16 250,-195.16 246.5,-205.16 253.5,-205.16"/>
</a>
</g>
</g>
<!-- Node17&#45;&gt;Node3 -->
<g id="edge21_Node000017_Node000003" class="edge">
<title>Node17&#45;&gt;Node3</title>
<g id="a_edge21_Node000017_Node000003"><a xlink:title=" ">
<path fill="none" stroke="#63b8ff" d="M251.45,-164.84C252.23,-157.21 253.21,-147.7 254.06,-139.45"/>
<polygon fill="#63b8ff" stroke="#63b8ff" points="257.56,-139.57 255.1,-129.27 250.6,-138.86 257.56,-139.57"/>
</a>
</g>
</g>
<!-- Node17&#45;&gt;Node5 -->
<g id="edge22_Node000017_Node000005" class="edge">
<title>Node17&#45;&gt;Node5</title>
<g id="a_edge22_Node000017_Node000005"><a xlink:title=" ">
<path fill="none" stroke="#63b8ff" d="M271.48,-164.94C283.85,-155.91 298.91,-143.24 309,-129 330.94,-98.03 341.12,-53.93 345.35,-29.19"/>
<polygon fill="#63b8ff" stroke="#63b8ff" points="348.86,-29.44 346.94,-19.02 341.94,-28.36 348.86,-29.44"/>
</a>
</g>
</g>
<!-- Node17&#45;&gt;Node6 -->
<g id="edge23_Node000017_Node000006" class="edge">
<title>Node17&#45;&gt;Node6</title>
<g id="a_edge23_Node000017_Node000006"><a xlink:title=" ">
<path fill="none" stroke="#63b8ff" d="M190.41,-168.5C167.88,-161.32 144.46,-149.25 131,-129 110.63,-98.35 125.27,-53.19 136.14,-28.4"/>
<polygon fill="#63b8ff" stroke="#63b8ff" points="139.41,-29.67 140.46,-19.13 133.06,-26.72 139.41,-29.67"/>
</a>
</g>
</g>
<!-- Node21&#45;&gt;Node6 -->
<g id="edge32_Node000021_Node000006" class="edge">
<title>Node21&#45;&gt;Node6</title>
<g id="a_edge32_Node000021_Node000006"><a xlink:title=" ">
<path fill="none" stroke="#63b8ff" d="M69,-302.48C69,-281.71 69,-226.82 69,-181 69,-181 69,-181 69,-118.5 69,-79.47 102.61,-44.58 125.13,-25.6"/>
<polygon fill="#63b8ff" stroke="#63b8ff" points="127.56,-28.14 133.12,-19.12 123.15,-22.7 127.56,-28.14"/>
</a>
</g>
</g>
</g>
</svg>
