<?xml version="1.0" encoding="UTF-8" standalone="no"?>
<!DOCTYPE svg PUBLIC "-//W3C//DTD SVG 1.1//EN"
 "http://www.w3.org/Graphics/SVG/1.1/DTD/svg11.dtd">
<!-- Generated by graphviz version 2.43.0 (0)
 -->
<!-- Title: /home/runner/work/occ/occ/include/occ/mults/cartesian_multipole.h Pages: 1 -->
<svg width="563pt" height="214pt"
 viewBox="0.00 0.00 563.00 214.00" xmlns="http://www.w3.org/2000/svg" xmlns:xlink="http://www.w3.org/1999/xlink">
<g id="graph0" class="graph" transform="scale(1 1) rotate(0) translate(4 210)">
<title>/home/runner/work/occ/occ/include/occ/mults/cartesian_multipole.h</title>
<!-- Node1 -->
<g id="Node000001" class="node">
<title>Node1</title>
<g id="a_Node000001"><a xlink:title=" ">
<polygon fill="#999999" stroke="#666666" points="315,-206 187,-206 187,-165 315,-165 315,-206"/>
<text text-anchor="start" x="195" y="-194" font-family="Helvetica,sans-Serif" font-size="10.00">/home/runner/work/occ</text>
<text text-anchor="start" x="195" y="-183" font-family="Helvetica,sans-Serif" font-size="10.00">/occ/include/occ/mults</text>
<text text-anchor="middle" x="251" y="-172" font-family="Helvetica,sans-Serif" font-size="10.00">/cartesian_multipole.h</text>
</a>
</g>
</g>
<!-- Node2 -->
<g id="Node000002" class="node">
<title>Node2</title>
<g id="a_Node000002"><a xlink:href="rints_8h.html" target="_top" xlink:title=" ">
<polygon fill="white" stroke="#666666" points="155,-129 67,-129 67,-110 155,-110 155,-129"/>
<text text-anchor="middle" x="111" y="-117" font-family="Helvetica,sans-Serif" font-size="10.00">occ/ints/rints.h</text>
</a>
</g>
</g>
<!-- Node1&#45;&gt;Node2 -->
<g id="edge1_Node000001_Node000002" class="edge">
<title>Node1&#45;&gt;Node2</title>
<g id="a_edge1_Node000001_Node000002"><a xlink:title=" ">
<path fill="none" stroke="#63b8ff" d="M208.23,-164.95C185.71,-154.65 158.72,-142.31 138.9,-133.25"/>
<polygon fill="#63b8ff" stroke="#63b8ff" points="140.34,-130.07 129.79,-129.09 137.43,-136.43 140.34,-130.07"/>
</a>
</g>
</g>
<!-- Node5 -->
<g id="Node000005" class="node">
<title>Node5</title>
<g id="a_Node000005"><a xlink:title=" ">
<polygon fill="#e0e0e0" stroke="#999999" points="186.5,-19 139.5,-19 139.5,0 186.5,0 186.5,-19"/>
<text text-anchor="middle" x="163" y="-7" font-family="Helvetica,sans-Serif" font-size="10.00">cmath</text>
</a>
</g>
</g>
<!-- Node1&#45;&gt;Node5 -->
<g id="edge15_Node000001_Node000005" class="edge">
<title>Node1&#45;&gt;Node5</title>
<g id="a_edge15_Node000001_Node000005"><a xlink:title=" ">
<path fill="none" stroke="#63b8ff" d="M241.08,-164.88C223.88,-130.87 188.79,-61.49 172.15,-28.58"/>
<polygon fill="#63b8ff" stroke="#63b8ff" points="175.07,-26.62 167.44,-19.27 168.83,-29.78 175.07,-26.62"/>
</a>
</g>
</g>
<!-- Node7 -->
<g id="Node000007" class="node">
<title>Node7</title>
<g id="a_Node000007"><a xlink:href="mult_8h.html" target="_top" xlink:title=" ">
<polygon fill="white" stroke="#666666" points="346,-129 254,-129 254,-110 346,-110 346,-129"/>
<text text-anchor="middle" x="300" y="-117" font-family="Helvetica,sans-Serif" font-size="10.00">occ/dma/mult.h</text>
</a>
</g>
</g>
<!-- Node1&#45;&gt;Node7 -->
<g id="edge8_Node000001_Node000007" class="edge">
<title>Node1&#45;&gt;Node7</title>
<g id="a_edge8_Node000001_Node000007"><a xlink:title=" ">
<path fill="none" stroke="#63b8ff" d="M265.97,-164.95C272.74,-156.11 280.65,-145.77 287.15,-137.29"/>
<polygon fill="#63b8ff" stroke="#63b8ff" points="289.99,-139.33 293.29,-129.26 284.43,-135.07 289.99,-139.33"/>
</a>
</g>
</g>
<!-- Node14 -->
<g id="Node000014" class="node">
<title>Node14</title>
<g id="a_Node000014"><a xlink:title=" ">
<polygon fill="#e0e0e0" stroke="#999999" points="414,-129 364,-129 364,-110 414,-110 414,-129"/>
<text text-anchor="middle" x="389" y="-117" font-family="Helvetica,sans-Serif" font-size="10.00">cstring</text>
</a>
</g>
</g>
<!-- Node1&#45;&gt;Node14 -->
<g id="edge16_Node000001_Node000014" class="edge">
<title>Node1&#45;&gt;Node14</title>
<g id="a_edge16_Node000001_Node000014"><a xlink:title=" ">
<path fill="none" stroke="#63b8ff" d="M293.15,-164.95C315.26,-154.7 341.72,-142.43 361.23,-133.38"/>
<polygon fill="#63b8ff" stroke="#63b8ff" points="362.87,-136.47 370.47,-129.09 359.93,-130.12 362.87,-136.47"/>
</a>
</g>
</g>
<!-- Node3 -->
<g id="Node000003" class="node">
<title>Node3</title>
<g id="a_Node000003"><a xlink:href="boys_8h.html" target="_top" xlink:title=" ">
<polygon fill="white" stroke="#666666" points="135.5,-74 46.5,-74 46.5,-55 135.5,-55 135.5,-74"/>
<text text-anchor="middle" x="91" y="-62" font-family="Helvetica,sans-Serif" font-size="10.00">occ/ints/boys.h</text>
</a>
</g>
</g>
<!-- Node2&#45;&gt;Node3 -->
<g id="edge2_Node000002_Node000003" class="edge">
<title>Node2&#45;&gt;Node3</title>
<g id="a_edge2_Node000002_Node000003"><a xlink:title=" ">
<path fill="none" stroke="#63b8ff" d="M107.7,-109.75C105.02,-102.65 101.15,-92.4 97.81,-83.56"/>
<polygon fill="#63b8ff" stroke="#63b8ff" points="101.05,-82.21 94.24,-74.09 94.5,-84.68 101.05,-82.21"/>
</a>
</g>
</g>
<!-- Node4 -->
<g id="Node000004" class="node">
<title>Node4</title>
<g id="a_Node000004"><a xlink:title=" ">
<polygon fill="#e0e0e0" stroke="#999999" points="42,-19 0,-19 0,0 42,0 42,-19"/>
<text text-anchor="middle" x="21" y="-7" font-family="Helvetica,sans-Serif" font-size="10.00">array</text>
</a>
</g>
</g>
<!-- Node2&#45;&gt;Node4 -->
<g id="edge6_Node000002_Node000004" class="edge">
<title>Node2&#45;&gt;Node4</title>
<g id="a_edge6_Node000002_Node000004"><a xlink:title=" ">
<path fill="none" stroke="#63b8ff" d="M87.24,-109.91C70.76,-102.75 49.59,-90.98 37,-74 27.37,-61.02 23.5,-42.87 21.97,-29.29"/>
<polygon fill="#63b8ff" stroke="#63b8ff" points="25.44,-28.87 21.15,-19.18 18.47,-29.43 25.44,-28.87"/>
</a>
</g>
</g>
<!-- Node2&#45;&gt;Node5 -->
<g id="edge7_Node000002_Node000005" class="edge">
<title>Node2&#45;&gt;Node5</title>
<g id="a_edge7_Node000002_Node000005"><a xlink:title=" ">
<path fill="none" stroke="#63b8ff" d="M118.81,-109.9C126.22,-101.35 137.19,-87.59 144,-74 151.18,-59.68 156.17,-42.15 159.23,-29.14"/>
<polygon fill="#63b8ff" stroke="#63b8ff" points="162.71,-29.59 161.42,-19.07 155.87,-28.09 162.71,-29.59"/>
</a>
</g>
</g>
<!-- Node3&#45;&gt;Node4 -->
<g id="edge3_Node000003_Node000004" class="edge">
<title>Node3&#45;&gt;Node4</title>
<g id="a_edge3_Node000003_Node000004"><a xlink:title=" ">
<path fill="none" stroke="#63b8ff" d="M79.75,-54.98C69.2,-47 53.2,-34.88 40.56,-25.31"/>
<polygon fill="#63b8ff" stroke="#63b8ff" points="42.54,-22.42 32.45,-19.17 38.31,-28 42.54,-22.42"/>
</a>
</g>
</g>
<!-- Node3&#45;&gt;Node5 -->
<g id="edge4_Node000003_Node000005" class="edge">
<title>Node3&#45;&gt;Node5</title>
<g id="a_edge4_Node000003_Node000005"><a xlink:title=" ">
<path fill="none" stroke="#63b8ff" d="M102.57,-54.98C113.42,-47 129.88,-34.88 142.88,-25.31"/>
<polygon fill="#63b8ff" stroke="#63b8ff" points="145.24,-27.92 151.22,-19.17 141.09,-22.28 145.24,-27.92"/>
</a>
</g>
</g>
<!-- Node6 -->
<g id="Node000006" class="node">
<title>Node6</title>
<g id="a_Node000006"><a xlink:title=" ">
<polygon fill="#e0e0e0" stroke="#999999" points="120,-19 62,-19 62,0 120,0 120,-19"/>
<text text-anchor="middle" x="91" y="-7" font-family="Helvetica,sans-Serif" font-size="10.00">memory</text>
</a>
</g>
</g>
<!-- Node3&#45;&gt;Node6 -->
<g id="edge5_Node000003_Node000006" class="edge">
<title>Node3&#45;&gt;Node6</title>
<g id="a_edge5_Node000003_Node000006"><a xlink:title=" ">
<path fill="none" stroke="#63b8ff" d="M91,-54.75C91,-47.8 91,-37.85 91,-29.13"/>
<polygon fill="#63b8ff" stroke="#63b8ff" points="94.5,-29.09 91,-19.09 87.5,-29.09 94.5,-29.09"/>
</a>
</g>
</g>
<!-- Node8 -->
<g id="Node000008" class="node">
<title>Node8</title>
<g id="a_Node000008"><a xlink:href="linear__algebra_8h.html" target="_top" xlink:title=" ">
<polygon fill="white" stroke="#666666" points="369.5,-74 230.5,-74 230.5,-55 369.5,-55 369.5,-74"/>
<text text-anchor="middle" x="300" y="-62" font-family="Helvetica,sans-Serif" font-size="10.00">occ/core/linear_algebra.h</text>
</a>
</g>
</g>
<!-- Node7&#45;&gt;Node8 -->
<g id="edge9_Node000007_Node000008" class="edge">
<title>Node7&#45;&gt;Node8</title>
<g id="a_edge9_Node000007_Node000008"><a xlink:title=" ">
<path fill="none" stroke="#63b8ff" d="M300,-109.75C300,-102.8 300,-92.85 300,-84.13"/>
<polygon fill="#63b8ff" stroke="#63b8ff" points="303.5,-84.09 300,-74.09 296.5,-84.09 303.5,-84.09"/>
</a>
</g>
</g>
<!-- Node12 -->
<g id="Node000012" class="node">
<title>Node12</title>
<g id="a_Node000012"><a xlink:href="macros_8h.html" target="_top" xlink:title=" ">
<polygon fill="white" stroke="#666666" points="492.5,-74 387.5,-74 387.5,-55 492.5,-55 492.5,-74"/>
<text text-anchor="middle" x="440" y="-62" font-family="Helvetica,sans-Serif" font-size="10.00">occ/core/macros.h</text>
</a>
</g>
</g>
<!-- Node7&#45;&gt;Node12 -->
<g id="edge13_Node000007_Node000012" class="edge">
<title>Node7&#45;&gt;Node12</title>
<g id="a_edge13_Node000007_Node000012"><a xlink:title=" ">
<path fill="none" stroke="#63b8ff" d="M322.49,-109.98C345.52,-101.27 381.54,-87.63 407.63,-77.75"/>
<polygon fill="#63b8ff" stroke="#63b8ff" points="408.98,-80.98 417.1,-74.17 406.51,-74.44 408.98,-80.98"/>
</a>
</g>
</g>
<!-- Node13 -->
<g id="Node000013" class="node">
<title>Node13</title>
<g id="a_Node000013"><a xlink:title=" ">
<polygon fill="#e0e0e0" stroke="#999999" points="555,-74 511,-74 511,-55 555,-55 555,-74"/>
<text text-anchor="middle" x="533" y="-62" font-family="Helvetica,sans-Serif" font-size="10.00">string</text>
</a>
</g>
</g>
<!-- Node7&#45;&gt;Node13 -->
<g id="edge14_Node000007_Node000013" class="edge">
<title>Node7&#45;&gt;Node13</title>
<g id="a_edge14_Node000007_Node000013"><a xlink:title=" ">
<path fill="none" stroke="#63b8ff" d="M341.54,-109.99C380.4,-101.89 440.28,-89.04 500.94,-74.17"/>
<polygon fill="#63b8ff" stroke="#63b8ff" points="501.81,-77.56 510.68,-71.76 500.14,-70.76 501.81,-77.56"/>
</a>
</g>
</g>
<!-- Node9 -->
<g id="Node000009" class="node">
<title>Node9</title>
<g id="a_Node000009"><a xlink:title=" ">
<polygon fill="#e0e0e0" stroke="#999999" points="281.5,-19 204.5,-19 204.5,0 281.5,0 281.5,-19"/>
<text text-anchor="middle" x="243" y="-7" font-family="Helvetica,sans-Serif" font-size="10.00">Eigen/Dense</text>
</a>
</g>
</g>
<!-- Node8&#45;&gt;Node9 -->
<g id="edge10_Node000008_Node000009" class="edge">
<title>Node8&#45;&gt;Node9</title>
<g id="a_edge10_Node000008_Node000009"><a xlink:title=" ">
<path fill="none" stroke="#63b8ff" d="M290.84,-54.98C282.5,-47.23 269.97,-35.58 259.82,-26.14"/>
<polygon fill="#63b8ff" stroke="#63b8ff" points="262.03,-23.42 252.32,-19.17 257.26,-28.54 262.03,-23.42"/>
</a>
</g>
</g>
<!-- Node10 -->
<g id="Node000010" class="node">
<title>Node10</title>
<g id="a_Node000010"><a xlink:title=" ">
<polygon fill="#e0e0e0" stroke="#999999" points="392.5,-19 299.5,-19 299.5,0 392.5,0 392.5,-19"/>
<text text-anchor="middle" x="346" y="-7" font-family="Helvetica,sans-Serif" font-size="10.00">Eigen/StdVector</text>
</a>
</g>
</g>
<!-- Node8&#45;&gt;Node10 -->
<g id="edge11_Node000008_Node000010" class="edge">
<title>Node8&#45;&gt;Node10</title>
<g id="a_edge11_Node000008_Node000010"><a xlink:title=" ">
<path fill="none" stroke="#63b8ff" d="M307.6,-54.75C314.16,-47.18 323.82,-36.05 331.81,-26.84"/>
<polygon fill="#63b8ff" stroke="#63b8ff" points="334.63,-28.94 338.55,-19.09 329.35,-24.35 334.63,-28.94"/>
</a>
</g>
</g>
<!-- Node11 -->
<g id="Node000011" class="node">
<title>Node11</title>
<g id="a_Node000011"><a xlink:title=" ">
<polygon fill="#e0e0e0" stroke="#999999" points="477.5,-19 410.5,-19 410.5,0 477.5,0 477.5,-19"/>
<text text-anchor="middle" x="444" y="-7" font-family="Helvetica,sans-Serif" font-size="10.00">fmt/core.h</text>
</a>
</g>
</g>
<!-- Node8&#45;&gt;Node11 -->
<g id="edge12_Node000008_Node000011" class="edge">
<title>Node8&#45;&gt;Node11</title>
<g id="a_edge12_Node000008_Node000011"><a xlink:title=" ">
<path fill="none" stroke="#63b8ff" d="M323.14,-54.98C346.82,-46.27 383.87,-32.63 410.71,-22.75"/>
<polygon fill="#63b8ff" stroke="#63b8ff" points="412.27,-25.91 420.44,-19.17 409.85,-19.34 412.27,-25.91"/>
</a>
</g>
</g>
</g>
</svg>
