<?xml version="1.0" encoding="UTF-8" standalone="no"?>
<!DOCTYPE svg PUBLIC "-//W3C//DTD SVG 1.1//EN"
 "http://www.w3.org/Graphics/SVG/1.1/DTD/svg11.dtd">
<!-- Generated by graphviz version 2.43.0 (0)
 -->
<!-- Title: /home/runner/work/occ/occ/include/occ/mults/cartesian_force.h Pages: 1 -->
<svg width="432pt" height="357pt"
 viewBox="0.00 0.00 432.00 357.00" xmlns="http://www.w3.org/2000/svg" xmlns:xlink="http://www.w3.org/1999/xlink">
<g id="graph0" class="graph" transform="scale(1 1) rotate(0) translate(4 353)">
<title>/home/runner/work/occ/occ/include/occ/mults/cartesian_force.h</title>
<!-- Node1 -->
<g id="Node000001" class="node">
<title>Node1</title>
<g id="a_Node000001"><a xlink:title=" ">
<polygon fill="#999999" stroke="#666666" points="320,-349 192,-349 192,-308 320,-308 320,-349"/>
<text text-anchor="start" x="200" y="-337" font-family="Helvetica,sans-Serif" font-size="10.00">/home/runner/work/occ</text>
<text text-anchor="start" x="200" y="-326" font-family="Helvetica,sans-Serif" font-size="10.00">/occ/include/occ/mults</text>
<text text-anchor="middle" x="256" y="-315" font-family="Helvetica,sans-Serif" font-size="10.00">/cartesian_force.h</text>
</a>
</g>
</g>
<!-- Node2 -->
<g id="Node000002" class="node">
<title>Node2</title>
<g id="a_Node000002"><a xlink:href="crystal__energy_8h.html" target="_top" xlink:title=" ">
<polygon fill="white" stroke="#666666" points="274,-195 146,-195 146,-154 274,-154 274,-195"/>
<text text-anchor="start" x="154" y="-183" font-family="Helvetica,sans-Serif" font-size="10.00">/home/runner/work/occ</text>
<text text-anchor="start" x="154" y="-172" font-family="Helvetica,sans-Serif" font-size="10.00">/occ/include/occ/mults</text>
<text text-anchor="middle" x="210" y="-161" font-family="Helvetica,sans-Serif" font-size="10.00">/crystal_energy.h</text>
</a>
</g>
</g>
<!-- Node1&#45;&gt;Node2 -->
<g id="edge1_Node000001_Node000002" class="edge">
<title>Node1&#45;&gt;Node2</title>
<g id="a_edge1_Node000001_Node000002"><a xlink:title=" ">
<path fill="none" stroke="#63b8ff" d="M240.34,-298.9C236.19,-290.43 232.02,-281.01 229,-272 220.31,-246.1 215.06,-214.88 212.35,-195.11"/>
<polygon fill="#63b8ff" stroke="#63b8ff" points="237.31,-300.66 244.97,-307.99 243.55,-297.49 237.31,-300.66"/>
</a>
</g>
</g>
<!-- Node7 -->
<g id="Node000007" class="node">
<title>Node7</title>
<g id="a_Node000007"><a xlink:href="multipole__source_8h.html" target="_top" xlink:title=" ">
<polygon fill="white" stroke="#666666" points="366,-272 238,-272 238,-231 366,-231 366,-272"/>
<text text-anchor="start" x="246" y="-260" font-family="Helvetica,sans-Serif" font-size="10.00">/home/runner/work/occ</text>
<text text-anchor="start" x="246" y="-249" font-family="Helvetica,sans-Serif" font-size="10.00">/occ/include/occ/mults</text>
<text text-anchor="middle" x="302" y="-238" font-family="Helvetica,sans-Serif" font-size="10.00">/multipole_source.h</text>
</a>
</g>
</g>
<!-- Node1&#45;&gt;Node7 -->
<g id="edge6_Node000001_Node000007" class="edge">
<title>Node1&#45;&gt;Node7</title>
<g id="a_edge6_Node000001_Node000007"><a xlink:title=" ">
<path fill="none" stroke="#63b8ff" d="M273.41,-299.11C278.94,-290.09 284.93,-280.33 289.99,-272.07"/>
<polygon fill="#63b8ff" stroke="#63b8ff" points="270.33,-297.44 268.09,-307.79 276.3,-301.1 270.33,-297.44"/>
</a>
</g>
</g>
<!-- Node3 -->
<g id="Node000003" class="node">
<title>Node3</title>
<g id="a_Node000003"><a xlink:href="crystal__optimizer_8h.html" target="_top" xlink:title=" ">
<polygon fill="white" stroke="#666666" points="128,-118 0,-118 0,-77 128,-77 128,-118"/>
<text text-anchor="start" x="8" y="-106" font-family="Helvetica,sans-Serif" font-size="10.00">/home/runner/work/occ</text>
<text text-anchor="start" x="8" y="-95" font-family="Helvetica,sans-Serif" font-size="10.00">/occ/include/occ/mults</text>
<text text-anchor="middle" x="64" y="-84" font-family="Helvetica,sans-Serif" font-size="10.00">/crystal_optimizer.h</text>
</a>
</g>
</g>
<!-- Node2&#45;&gt;Node3 -->
<g id="edge2_Node000002_Node000003" class="edge">
<title>Node2&#45;&gt;Node3</title>
<g id="a_edge2_Node000002_Node000003"><a xlink:title=" ">
<path fill="none" stroke="#63b8ff" d="M162.91,-149.31C143.23,-139.2 120.65,-127.6 102.04,-118.04"/>
<polygon fill="#63b8ff" stroke="#63b8ff" points="161.53,-152.53 172.02,-153.99 164.73,-146.31 161.53,-152.53"/>
</a>
</g>
</g>
<!-- Node4 -->
<g id="Node000004" class="node">
<title>Node4</title>
<g id="a_Node000004"><a xlink:href="crystal__strain_8h.html" target="_top" xlink:title=" ">
<polygon fill="white" stroke="#666666" points="274,-118 146,-118 146,-77 274,-77 274,-118"/>
<text text-anchor="start" x="154" y="-106" font-family="Helvetica,sans-Serif" font-size="10.00">/home/runner/work/occ</text>
<text text-anchor="start" x="154" y="-95" font-family="Helvetica,sans-Serif" font-size="10.00">/occ/include/occ/mults</text>
<text text-anchor="middle" x="210" y="-84" font-family="Helvetica,sans-Serif" font-size="10.00">/crystal_strain.h</text>
</a>
</g>
</g>
<!-- Node2&#45;&gt;Node4 -->
<g id="edge3_Node000002_Node000004" class="edge">
<title>Node2&#45;&gt;Node4</title>
<g id="a_edge3_Node000002_Node000004"><a xlink:title=" ">
<path fill="none" stroke="#63b8ff" d="M210,-143.69C210,-135.08 210,-125.9 210,-118.07"/>
<polygon fill="#63b8ff" stroke="#63b8ff" points="206.5,-143.79 210,-153.79 213.5,-143.79 206.5,-143.79"/>
</a>
</g>
</g>
<!-- Node5 -->
<g id="Node000005" class="node">
<title>Node5</title>
<g id="a_Node000005"><a xlink:href="ewald__sum_8h.html" target="_top" xlink:title=" ">
<polygon fill="white" stroke="#666666" points="420,-118 292,-118 292,-77 420,-77 420,-118"/>
<text text-anchor="start" x="300" y="-106" font-family="Helvetica,sans-Serif" font-size="10.00">/home/runner/work/occ</text>
<text text-anchor="start" x="300" y="-95" font-family="Helvetica,sans-Serif" font-size="10.00">/occ/include/occ/mults</text>
<text text-anchor="middle" x="356" y="-84" font-family="Helvetica,sans-Serif" font-size="10.00">/ewald_sum.h</text>
</a>
</g>
</g>
<!-- Node2&#45;&gt;Node5 -->
<g id="edge4_Node000002_Node000005" class="edge">
<title>Node2&#45;&gt;Node5</title>
<g id="a_edge4_Node000002_Node000005"><a xlink:title=" ">
<path fill="none" stroke="#63b8ff" d="M257.09,-149.31C276.77,-139.2 299.35,-127.6 317.96,-118.04"/>
<polygon fill="#63b8ff" stroke="#63b8ff" points="255.27,-146.31 247.98,-153.99 258.47,-152.53 255.27,-146.31"/>
</a>
</g>
</g>
<!-- Node6 -->
<g id="Node000006" class="node">
<title>Node6</title>
<g id="a_Node000006"><a xlink:href="strain__ad_8h.html" target="_top" xlink:title=" ">
<polygon fill="white" stroke="#666666" points="420,-41 292,-41 292,0 420,0 420,-41"/>
<text text-anchor="start" x="300" y="-29" font-family="Helvetica,sans-Serif" font-size="10.00">/home/runner/work/occ</text>
<text text-anchor="start" x="300" y="-18" font-family="Helvetica,sans-Serif" font-size="10.00">/occ/include/occ/mults</text>
<text text-anchor="middle" x="356" y="-7" font-family="Helvetica,sans-Serif" font-size="10.00">/strain_ad.h</text>
</a>
</g>
</g>
<!-- Node5&#45;&gt;Node6 -->
<g id="edge5_Node000005_Node000006" class="edge">
<title>Node5&#45;&gt;Node6</title>
<g id="a_edge5_Node000005_Node000006"><a xlink:title=" ">
<path fill="none" stroke="#63b8ff" d="M356,-66.69C356,-58.08 356,-48.9 356,-41.07"/>
<polygon fill="#63b8ff" stroke="#63b8ff" points="352.5,-66.79 356,-76.79 359.5,-66.79 352.5,-66.79"/>
</a>
</g>
</g>
<!-- Node7&#45;&gt;Node2 -->
<g id="edge7_Node000007_Node000002" class="edge">
<title>Node7&#45;&gt;Node2</title>
<g id="a_edge7_Node000007_Node000002"><a xlink:title=" ">
<path fill="none" stroke="#63b8ff" d="M269.92,-224.35C258.12,-214.73 244.98,-204.01 234.01,-195.07"/>
<polygon fill="#63b8ff" stroke="#63b8ff" points="267.87,-227.19 277.83,-230.79 272.29,-221.76 267.87,-227.19"/>
</a>
</g>
</g>
<!-- Node8 -->
<g id="Node000008" class="node">
<title>Node8</title>
<g id="a_Node000008"><a xlink:href="rigid__body__dynamics_8h.html" target="_top" xlink:title=" ">
<polygon fill="white" stroke="#666666" points="424,-195 292,-195 292,-154 424,-154 424,-195"/>
<text text-anchor="start" x="300" y="-183" font-family="Helvetica,sans-Serif" font-size="10.00">/home/runner/work/occ</text>
<text text-anchor="start" x="300" y="-172" font-family="Helvetica,sans-Serif" font-size="10.00">/occ/include/occ/mults</text>
<text text-anchor="middle" x="358" y="-161" font-family="Helvetica,sans-Serif" font-size="10.00">/rigid_body_dynamics.h</text>
</a>
</g>
</g>
<!-- Node7&#45;&gt;Node8 -->
<g id="edge8_Node000007_Node000008" class="edge">
<title>Node7&#45;&gt;Node8</title>
<g id="a_edge8_Node000007_Node000008"><a xlink:title=" ">
<path fill="none" stroke="#63b8ff" d="M322.78,-222.67C329.63,-213.5 337.1,-203.5 343.38,-195.07"/>
<polygon fill="#63b8ff" stroke="#63b8ff" points="319.89,-220.69 316.71,-230.79 325.5,-224.88 319.89,-220.69"/>
</a>
</g>
</g>
</g>
</svg>
