<?xml version="1.0" encoding="UTF-8" standalone="no"?>
<!DOCTYPE svg PUBLIC "-//W3C//DTD SVG 1.1//EN"
 "http://www.w3.org/Graphics/SVG/1.1/DTD/svg11.dtd">
<!-- Generated by graphviz version 2.43.0 (0)
 -->
<!-- Title: /home/runner/work/occ/occ/include/occ/isosurface/cell_caps_impl.h Pages: 1 -->
<svg width="1653pt" height="225pt"
 viewBox="0.00 0.00 1652.80 225.00" xmlns="http://www.w3.org/2000/svg" xmlns:xlink="http://www.w3.org/1999/xlink">
<g id="graph0" class="graph" transform="scale(1 1) rotate(0) translate(4 221)">
<title>/home/runner/work/occ/occ/include/occ/isosurface/cell_caps_impl.h</title>
<!-- Node1 -->
<g id="Node000001" class="node">
<title>Node1</title>
<g id="a_Node000001"><a xlink:title=" ">
<polygon fill="#999999" stroke="#666666" points="1059.8,-217 912.8,-217 912.8,-176 1059.8,-176 1059.8,-217"/>
<text text-anchor="start" x="920.8" y="-205" font-family="Helvetica,sans-Serif" font-size="10.00">/home/runner/work/occ</text>
<text text-anchor="start" x="920.8" y="-194" font-family="Helvetica,sans-Serif" font-size="10.00">/occ/include/occ/isosurface</text>
<text text-anchor="middle" x="986.3" y="-183" font-family="Helvetica,sans-Serif" font-size="10.00">/cell_caps_impl.h</text>
</a>
</g>
</g>
<!-- Node2 -->
<g id="Node000002" class="node">
<title>Node2</title>
<g id="a_Node000002"><a xlink:title=" ">
<polygon fill="#e0e0e0" stroke="#999999" points="341.3,-79.5 277.3,-79.5 277.3,-60.5 341.3,-60.5 341.3,-79.5"/>
<text text-anchor="middle" x="309.3" y="-67.5" font-family="Helvetica,sans-Serif" font-size="10.00">algorithm</text>
</a>
</g>
</g>
<!-- Node1&#45;&gt;Node2 -->
<g id="edge1_Node000001_Node000002" class="edge">
<title>Node1&#45;&gt;Node2</title>
<g id="a_edge1_Node000001_Node000002"><a xlink:title=" ">
<path fill="none" stroke="#63b8ff" d="M912.54,-186.51C793.2,-171.12 550.89,-136.33 350.3,-85 347.66,-84.32 344.94,-83.56 342.23,-82.74"/>
<polygon fill="#63b8ff" stroke="#63b8ff" points="343.12,-79.35 332.53,-79.64 340.98,-86.02 343.12,-79.35"/>
</a>
</g>
</g>
<!-- Node3 -->
<g id="Node000003" class="node">
<title>Node3</title>
<g id="a_Node000003"><a xlink:title=" ">
<polygon fill="#e0e0e0" stroke="#999999" points="1057.8,-140 914.8,-140 914.8,-121 1057.8,-121 1057.8,-140"/>
<text text-anchor="middle" x="986.3" y="-128" font-family="Helvetica,sans-Serif" font-size="10.00">ankerl/unordered_dense.h</text>
</a>
</g>
</g>
<!-- Node1&#45;&gt;Node3 -->
<g id="edge2_Node000001_Node000003" class="edge">
<title>Node1&#45;&gt;Node3</title>
<g id="a_edge2_Node000001_Node000003"><a xlink:title=" ">
<path fill="none" stroke="#63b8ff" d="M986.3,-175.95C986.3,-167.85 986.3,-158.5 986.3,-150.47"/>
<polygon fill="#63b8ff" stroke="#63b8ff" points="989.8,-150.26 986.3,-140.26 982.8,-150.26 989.8,-150.26"/>
</a>
</g>
</g>
<!-- Node4 -->
<g id="Node000004" class="node">
<title>Node4</title>
<g id="a_Node000004"><a xlink:title=" ">
<polygon fill="#e0e0e0" stroke="#999999" points="1118.3,-140 1076.3,-140 1076.3,-121 1118.3,-121 1118.3,-140"/>
<text text-anchor="middle" x="1097.3" y="-128" font-family="Helvetica,sans-Serif" font-size="10.00">array</text>
</a>
</g>
</g>
<!-- Node1&#45;&gt;Node4 -->
<g id="edge3_Node000001_Node000004" class="edge">
<title>Node1&#45;&gt;Node4</title>
<g id="a_edge3_Node000001_Node000004"><a xlink:title=" ">
<path fill="none" stroke="#63b8ff" d="M1020.21,-175.95C1037.42,-166.03 1057.91,-154.21 1073.44,-145.25"/>
<polygon fill="#63b8ff" stroke="#63b8ff" points="1075.48,-148.12 1082.4,-140.09 1071.99,-142.05 1075.48,-148.12"/>
</a>
</g>
</g>
<!-- Node5 -->
<g id="Node000005" class="node">
<title>Node5</title>
<g id="a_Node000005"><a xlink:title=" ">
<polygon fill="#e0e0e0" stroke="#999999" points="1183.8,-140 1136.8,-140 1136.8,-121 1183.8,-121 1183.8,-140"/>
<text text-anchor="middle" x="1160.3" y="-128" font-family="Helvetica,sans-Serif" font-size="10.00">cmath</text>
</a>
</g>
</g>
<!-- Node1&#45;&gt;Node5 -->
<g id="edge4_Node000001_Node000005" class="edge">
<title>Node1&#45;&gt;Node5</title>
<g id="a_edge4_Node000001_Node000005"><a xlink:title=" ">
<path fill="none" stroke="#63b8ff" d="M1039.45,-175.95C1068.09,-165.42 1102.52,-152.75 1127.29,-143.64"/>
<polygon fill="#63b8ff" stroke="#63b8ff" points="1128.76,-146.83 1136.94,-140.09 1126.35,-140.26 1128.76,-146.83"/>
</a>
</g>
</g>
<!-- Node6 -->
<g id="Node000006" class="node">
<title>Node6</title>
<g id="a_Node000006"><a xlink:title=" ">
<polygon fill="#e0e0e0" stroke="#999999" points="1252.3,-140 1202.3,-140 1202.3,-121 1252.3,-121 1252.3,-140"/>
<text text-anchor="middle" x="1227.3" y="-128" font-family="Helvetica,sans-Serif" font-size="10.00">cstdint</text>
</a>
</g>
</g>
<!-- Node1&#45;&gt;Node6 -->
<g id="edge5_Node000001_Node000006" class="edge">
<title>Node1&#45;&gt;Node6</title>
<g id="a_edge5_Node000001_Node000006"><a xlink:title=" ">
<path fill="none" stroke="#63b8ff" d="M1059.92,-175.95C1103.82,-164.29 1157.57,-150.02 1192.11,-140.84"/>
<polygon fill="#63b8ff" stroke="#63b8ff" points="1193.42,-144.12 1202.18,-138.17 1191.62,-137.35 1193.42,-144.12"/>
</a>
</g>
</g>
<!-- Node7 -->
<g id="Node000007" class="node">
<title>Node7</title>
<g id="a_Node000007"><a xlink:href="log_8h.html" target="_top" xlink:title=" ">
<polygon fill="white" stroke="#666666" points="189.3,-140 105.3,-140 105.3,-121 189.3,-121 189.3,-140"/>
<text text-anchor="middle" x="147.3" y="-128" font-family="Helvetica,sans-Serif" font-size="10.00">occ/core/log.h</text>
</a>
</g>
</g>
<!-- Node1&#45;&gt;Node7 -->
<g id="edge6_Node000001_Node000007" class="edge">
<title>Node1&#45;&gt;Node7</title>
<g id="a_edge6_Node000001_Node000007"><a xlink:title=" ">
<path fill="none" stroke="#63b8ff" d="M912.58,-189.88C746.01,-177.17 343.89,-146.5 199.78,-135.5"/>
<polygon fill="#63b8ff" stroke="#63b8ff" points="199.69,-131.99 189.46,-134.72 199.16,-138.97 199.69,-131.99"/>
</a>
</g>
</g>
<!-- Node12 -->
<g id="Node000012" class="node">
<title>Node12</title>
<g id="a_Node000012"><a xlink:href="parallel_8h.html" target="_top" xlink:title=" ">
<polygon fill="white" stroke="#666666" points="896.3,-140 790.3,-140 790.3,-121 896.3,-121 896.3,-140"/>
<text text-anchor="middle" x="843.3" y="-128" font-family="Helvetica,sans-Serif" font-size="10.00">occ/core/parallel.h</text>
</a>
</g>
</g>
<!-- Node1&#45;&gt;Node12 -->
<g id="edge11_Node000001_Node000012" class="edge">
<title>Node1&#45;&gt;Node12</title>
<g id="a_edge11_Node000001_Node000012"><a xlink:title=" ">
<path fill="none" stroke="#63b8ff" d="M942.62,-175.95C919.61,-165.65 892.04,-153.31 871.8,-144.25"/>
<polygon fill="#63b8ff" stroke="#63b8ff" points="873.06,-140.98 862.5,-140.09 870.2,-147.37 873.06,-140.98"/>
</a>
</g>
</g>
<!-- Node8 -->
<g id="Node000008" class="node">
<title>Node8</title>
<g id="a_Node000008"><a xlink:title=" ">
<polygon fill="#e0e0e0" stroke="#999999" points="82.8,-79.5 17.8,-79.5 17.8,-60.5 82.8,-60.5 82.8,-79.5"/>
<text text-anchor="middle" x="50.3" y="-67.5" font-family="Helvetica,sans-Serif" font-size="10.00">functional</text>
</a>
</g>
</g>
<!-- Node7&#45;&gt;Node8 -->
<g id="edge7_Node000007_Node000008" class="edge">
<title>Node7&#45;&gt;Node8</title>
<g id="a_edge7_Node000007_Node000008"><a xlink:title=" ">
<path fill="none" stroke="#63b8ff" d="M132.99,-120.87C117.3,-111.41 91.9,-96.09 73.39,-84.92"/>
<polygon fill="#63b8ff" stroke="#63b8ff" points="75.04,-81.83 64.67,-79.67 71.43,-87.83 75.04,-81.83"/>
</a>
</g>
</g>
<!-- Node9 -->
<g id="Node000009" class="node">
<title>Node9</title>
<g id="a_Node000009"><a xlink:title=" ">
<polygon fill="#e0e0e0" stroke="#999999" points="193.8,-79.5 100.8,-79.5 100.8,-60.5 193.8,-60.5 193.8,-79.5"/>
<text text-anchor="middle" x="147.3" y="-67.5" font-family="Helvetica,sans-Serif" font-size="10.00">spdlog/spdlog.h</text>
</a>
</g>
</g>
<!-- Node7&#45;&gt;Node9 -->
<g id="edge8_Node000007_Node000009" class="edge">
<title>Node7&#45;&gt;Node9</title>
<g id="a_edge8_Node000007_Node000009"><a xlink:title=" ">
<path fill="none" stroke="#63b8ff" d="M147.3,-120.87C147.3,-112.75 147.3,-100.31 147.3,-89.89"/>
<polygon fill="#63b8ff" stroke="#63b8ff" points="150.8,-89.67 147.3,-79.67 143.8,-89.67 150.8,-89.67"/>
</a>
</g>
</g>
<!-- Node10 -->
<g id="Node000010" class="node">
<title>Node10</title>
<g id="a_Node000010"><a xlink:title=" ">
<polygon fill="#e0e0e0" stroke="#999999" points="665.3,-19 621.3,-19 621.3,0 665.3,0 665.3,-19"/>
<text text-anchor="middle" x="643.3" y="-7" font-family="Helvetica,sans-Serif" font-size="10.00">string</text>
</a>
</g>
</g>
<!-- Node7&#45;&gt;Node10 -->
<g id="edge9_Node000007_Node000010" class="edge">
<title>Node7&#45;&gt;Node10</title>
<g id="a_edge9_Node000007_Node000010"><a xlink:title=" ">
<path fill="none" stroke="#63b8ff" d="M104.99,-122.46C53.02,-112.12 -24.47,-90.14 8.3,-55 49.68,-10.62 487.41,-9.64 610.98,-10.25"/>
<polygon fill="#63b8ff" stroke="#63b8ff" points="611.27,-13.75 621.29,-10.31 611.31,-6.75 611.27,-13.75"/>
</a>
</g>
</g>
<!-- Node11 -->
<g id="Node000011" class="node">
<title>Node11</title>
<g id="a_Node000011"><a xlink:title=" ">
<polygon fill="#e0e0e0" stroke="#999999" points="258.8,-79.5 211.8,-79.5 211.8,-60.5 258.8,-60.5 258.8,-79.5"/>
<text text-anchor="middle" x="235.3" y="-67.5" font-family="Helvetica,sans-Serif" font-size="10.00">vector</text>
</a>
</g>
</g>
<!-- Node7&#45;&gt;Node11 -->
<g id="edge10_Node000007_Node000011" class="edge">
<title>Node7&#45;&gt;Node11</title>
<g id="a_edge10_Node000007_Node000011"><a xlink:title=" ">
<path fill="none" stroke="#63b8ff" d="M160.29,-120.87C174.32,-111.54 196.93,-96.51 213.66,-85.38"/>
<polygon fill="#63b8ff" stroke="#63b8ff" points="215.87,-88.12 222.26,-79.67 212,-82.29 215.87,-88.12"/>
</a>
</g>
</g>
<!-- Node12&#45;&gt;Node2 -->
<g id="edge12_Node000012_Node000002" class="edge">
<title>Node12&#45;&gt;Node2</title>
<g id="a_edge12_Node000012_Node000002"><a xlink:title=" ">
<path fill="none" stroke="#63b8ff" d="M790.15,-128.85C699.11,-126.81 507.91,-118.52 350.3,-85 347.24,-84.35 344.08,-83.54 340.95,-82.64"/>
<polygon fill="#63b8ff" stroke="#63b8ff" points="341.75,-79.22 331.16,-79.54 339.64,-85.89 341.75,-79.22"/>
</a>
</g>
</g>
<!-- Node12&#45;&gt;Node11 -->
<g id="edge19_Node000012_Node000011" class="edge">
<title>Node12&#45;&gt;Node11</title>
<g id="a_edge19_Node000012_Node000011"><a xlink:title=" ">
<path fill="none" stroke="#63b8ff" d="M790,-127.58C667.01,-122.78 366.43,-108.93 268.3,-85 266.35,-84.52 264.37,-83.95 262.39,-83.3"/>
<polygon fill="#63b8ff" stroke="#63b8ff" points="263.34,-79.92 252.75,-79.64 260.86,-86.46 263.34,-79.92"/>
</a>
</g>
</g>
<!-- Node13 -->
<g id="Node000013" class="node">
<title>Node13</title>
<g id="a_Node000013"><a xlink:title=" ">
<polygon fill="#e0e0e0" stroke="#999999" points="1491.3,-79.5 1433.3,-79.5 1433.3,-60.5 1491.3,-60.5 1491.3,-79.5"/>
<text text-anchor="middle" x="1462.3" y="-67.5" font-family="Helvetica,sans-Serif" font-size="10.00">memory</text>
</a>
</g>
</g>
<!-- Node12&#45;&gt;Node13 -->
<g id="edge13_Node000012_Node000013" class="edge">
<title>Node12&#45;&gt;Node13</title>
<g id="a_edge13_Node000012_Node000013"><a xlink:title=" ">
<path fill="none" stroke="#63b8ff" d="M896.37,-121.99C899.39,-121.63 902.38,-121.3 905.3,-121 1135.3,-97.28 1198.21,-133.45 1424.3,-85 1426.98,-84.43 1429.72,-83.7 1432.45,-82.89"/>
<polygon fill="#63b8ff" stroke="#63b8ff" points="1433.74,-86.15 1442.11,-79.65 1431.51,-79.51 1433.74,-86.15"/>
</a>
</g>
</g>
<!-- Node14 -->
<g id="Node000014" class="node">
<title>Node14</title>
<g id="a_Node000014"><a xlink:href="timings_8h.html" target="_top" xlink:title=" ">
<polygon fill="white" stroke="#666666" points="1415.3,-79.5 1309.3,-79.5 1309.3,-60.5 1415.3,-60.5 1415.3,-79.5"/>
<text text-anchor="middle" x="1362.3" y="-67.5" font-family="Helvetica,sans-Serif" font-size="10.00">occ/core/timings.h</text>
</a>
</g>
</g>
<!-- Node12&#45;&gt;Node14 -->
<g id="edge14_Node000012_Node000014" class="edge">
<title>Node12&#45;&gt;Node14</title>
<g id="a_edge14_Node000012_Node000014"><a xlink:title=" ">
<path fill="none" stroke="#63b8ff" d="M896.38,-122.06C899.4,-121.69 902.39,-121.33 905.3,-121 1080.45,-101.02 1126.17,-112.47 1300.3,-85 1306.17,-84.07 1312.31,-82.92 1318.34,-81.67"/>
<polygon fill="#63b8ff" stroke="#63b8ff" points="1319.31,-85.04 1328.35,-79.51 1317.83,-78.2 1319.31,-85.04"/>
</a>
</g>
</g>
<!-- Node16 -->
<g id="Node000016" class="node">
<title>Node16</title>
<g id="a_Node000016"><a xlink:title=" ">
<polygon fill="#e0e0e0" stroke="#999999" points="1557.3,-79.5 1509.3,-79.5 1509.3,-60.5 1557.3,-60.5 1557.3,-79.5"/>
<text text-anchor="middle" x="1533.3" y="-67.5" font-family="Helvetica,sans-Serif" font-size="10.00">thread</text>
</a>
</g>
</g>
<!-- Node12&#45;&gt;Node16 -->
<g id="edge17_Node000012_Node000016" class="edge">
<title>Node12&#45;&gt;Node16</title>
<g id="a_edge17_Node000012_Node000016"><a xlink:title=" ">
<path fill="none" stroke="#63b8ff" d="M896.37,-121.96C899.39,-121.61 902.38,-121.29 905.3,-121 1168.95,-94.99 1242.4,-145.61 1500.3,-85 1502.47,-84.49 1504.67,-83.85 1506.86,-83.13"/>
<polygon fill="#63b8ff" stroke="#63b8ff" points="1508.11,-86.39 1516.21,-79.56 1505.62,-79.86 1508.11,-86.39"/>
</a>
</g>
</g>
<!-- Node17 -->
<g id="Node000017" class="node">
<title>Node17</title>
<g id="a_Node000017"><a xlink:title=" ">
<polygon fill="#e0e0e0" stroke="#999999" points="1644.8,-79.5 1575.8,-79.5 1575.8,-60.5 1644.8,-60.5 1644.8,-79.5"/>
<text text-anchor="middle" x="1610.3" y="-67.5" font-family="Helvetica,sans-Serif" font-size="10.00">type_traits</text>
</a>
</g>
</g>
<!-- Node12&#45;&gt;Node17 -->
<g id="edge18_Node000012_Node000017" class="edge">
<title>Node12&#45;&gt;Node17</title>
<g id="a_edge18_Node000012_Node000017"><a xlink:title=" ">
<path fill="none" stroke="#63b8ff" d="M896.37,-121.93C899.39,-121.59 902.38,-121.28 905.3,-121 1198.18,-93 1276.91,-138.03 1566.3,-85 1569.99,-84.32 1573.79,-83.43 1577.56,-82.42"/>
<polygon fill="#63b8ff" stroke="#63b8ff" points="1578.7,-85.73 1587.29,-79.53 1576.71,-79.02 1578.7,-85.73"/>
</a>
</g>
</g>
<!-- Node18 -->
<g id="Node000018" class="node">
<title>Node18</title>
<g id="a_Node000018"><a xlink:title=" ">
<polygon fill="#e0e0e0" stroke="#999999" points="474.8,-79.5 359.8,-79.5 359.8,-60.5 474.8,-60.5 474.8,-79.5"/>
<text text-anchor="middle" x="417.3" y="-67.5" font-family="Helvetica,sans-Serif" font-size="10.00">tbb/blocked_range.h</text>
</a>
</g>
</g>
<!-- Node12&#45;&gt;Node18 -->
<g id="edge20_Node000012_Node000018" class="edge">
<title>Node12&#45;&gt;Node18</title>
<g id="a_edge20_Node000012_Node000018"><a xlink:title=" ">
<path fill="none" stroke="#63b8ff" d="M790.03,-124.36C719.58,-117.24 591.68,-103.16 483.3,-85 477.38,-84.01 471.19,-82.85 465.06,-81.64"/>
<polygon fill="#63b8ff" stroke="#63b8ff" points="465.39,-78.13 454.89,-79.56 463.98,-84.99 465.39,-78.13"/>
</a>
</g>
</g>
<!-- Node19 -->
<g id="Node000019" class="node">
<title>Node19</title>
<g id="a_Node000019"><a xlink:title=" ">
<polygon fill="#e0e0e0" stroke="#999999" points="619.8,-79.5 492.8,-79.5 492.8,-60.5 619.8,-60.5 619.8,-79.5"/>
<text text-anchor="middle" x="556.3" y="-67.5" font-family="Helvetica,sans-Serif" font-size="10.00">tbb/blocked_range2d.h</text>
</a>
</g>
</g>
<!-- Node12&#45;&gt;Node19 -->
<g id="edge21_Node000012_Node000019" class="edge">
<title>Node12&#45;&gt;Node19</title>
<g id="a_edge21_Node000012_Node000019"><a xlink:title=" ">
<path fill="none" stroke="#63b8ff" d="M801.57,-120.99C750.34,-110.55 663.47,-92.85 608.05,-81.55"/>
<polygon fill="#63b8ff" stroke="#63b8ff" points="608.58,-78.08 598.08,-79.52 607.18,-84.94 608.58,-78.08"/>
</a>
</g>
</g>
<!-- Node20 -->
<g id="Node000020" class="node">
<title>Node20</title>
<g id="a_Node000020"><a xlink:title=" ">
<polygon fill="#e0e0e0" stroke="#999999" points="768.8,-85 637.8,-85 637.8,-55 768.8,-55 768.8,-85"/>
<text text-anchor="start" x="645.8" y="-73" font-family="Helvetica,sans-Serif" font-size="10.00">tbb/enumerable_thread</text>
<text text-anchor="middle" x="703.3" y="-62" font-family="Helvetica,sans-Serif" font-size="10.00">_specific.h</text>
</a>
</g>
</g>
<!-- Node12&#45;&gt;Node20 -->
<g id="edge22_Node000012_Node000020" class="edge">
<title>Node12&#45;&gt;Node20</title>
<g id="a_edge22_Node000012_Node000020"><a xlink:title=" ">
<path fill="none" stroke="#63b8ff" d="M822.94,-120.99C802.97,-112.65 771.89,-99.66 746.41,-89.02"/>
<polygon fill="#63b8ff" stroke="#63b8ff" points="747.54,-85.69 736.96,-85.06 744.84,-92.15 747.54,-85.69"/>
</a>
</g>
</g>
<!-- Node21 -->
<g id="Node000021" class="node">
<title>Node21</title>
<g id="a_Node000021"><a xlink:title=" ">
<polygon fill="#e0e0e0" stroke="#999999" points="899.8,-79.5 786.8,-79.5 786.8,-60.5 899.8,-60.5 899.8,-79.5"/>
<text text-anchor="middle" x="843.3" y="-67.5" font-family="Helvetica,sans-Serif" font-size="10.00">tbb/global_control.h</text>
</a>
</g>
</g>
<!-- Node12&#45;&gt;Node21 -->
<g id="edge23_Node000012_Node000021" class="edge">
<title>Node12&#45;&gt;Node21</title>
<g id="a_edge23_Node000012_Node000021"><a xlink:title=" ">
<path fill="none" stroke="#63b8ff" d="M843.3,-120.87C843.3,-112.75 843.3,-100.31 843.3,-89.89"/>
<polygon fill="#63b8ff" stroke="#63b8ff" points="846.8,-89.67 843.3,-79.67 839.8,-89.67 846.8,-89.67"/>
</a>
</g>
</g>
<!-- Node22 -->
<g id="Node000022" class="node">
<title>Node22</title>
<g id="a_Node000022"><a xlink:title=" ">
<polygon fill="#e0e0e0" stroke="#999999" points="1016.8,-79.5 917.8,-79.5 917.8,-60.5 1016.8,-60.5 1016.8,-79.5"/>
<text text-anchor="middle" x="967.3" y="-67.5" font-family="Helvetica,sans-Serif" font-size="10.00">tbb/parallel_for.h</text>
</a>
</g>
</g>
<!-- Node12&#45;&gt;Node22 -->
<g id="edge24_Node000012_Node000022" class="edge">
<title>Node12&#45;&gt;Node22</title>
<g id="a_edge24_Node000012_Node000022"><a xlink:title=" ">
<path fill="none" stroke="#63b8ff" d="M861.33,-120.99C881.99,-111.25 916.08,-95.16 940,-83.88"/>
<polygon fill="#63b8ff" stroke="#63b8ff" points="941.7,-86.95 949.25,-79.52 938.71,-80.62 941.7,-86.95"/>
</a>
</g>
</g>
<!-- Node23 -->
<g id="Node000023" class="node">
<title>Node23</title>
<g id="a_Node000023"><a xlink:title=" ">
<polygon fill="#e0e0e0" stroke="#999999" points="1153.8,-79.5 1034.8,-79.5 1034.8,-60.5 1153.8,-60.5 1153.8,-79.5"/>
<text text-anchor="middle" x="1094.3" y="-67.5" font-family="Helvetica,sans-Serif" font-size="10.00">tbb/parallel_invoke.h</text>
</a>
</g>
</g>
<!-- Node12&#45;&gt;Node23 -->
<g id="edge25_Node000012_Node000023" class="edge">
<title>Node12&#45;&gt;Node23</title>
<g id="a_edge25_Node000012_Node000023"><a xlink:title=" ">
<path fill="none" stroke="#63b8ff" d="M879.8,-120.99C924.23,-110.64 999.31,-93.14 1047.83,-81.83"/>
<polygon fill="#63b8ff" stroke="#63b8ff" points="1048.81,-85.2 1057.76,-79.52 1047.23,-78.38 1048.81,-85.2"/>
</a>
</g>
</g>
<!-- Node24 -->
<g id="Node000024" class="node">
<title>Node24</title>
<g id="a_Node000024"><a xlink:title=" ">
<polygon fill="#e0e0e0" stroke="#999999" points="1290.8,-79.5 1171.8,-79.5 1171.8,-60.5 1290.8,-60.5 1290.8,-79.5"/>
<text text-anchor="middle" x="1231.3" y="-67.5" font-family="Helvetica,sans-Serif" font-size="10.00">tbb/parallel_reduce.h</text>
</a>
</g>
</g>
<!-- Node12&#45;&gt;Node24 -->
<g id="edge26_Node000012_Node000024" class="edge">
<title>Node12&#45;&gt;Node24</title>
<g id="a_edge26_Node000012_Node000024"><a xlink:title=" ">
<path fill="none" stroke="#63b8ff" d="M896.47,-122.17C983.82,-110.12 1149.37,-87.21 1162.3,-85 1168.47,-83.95 1174.93,-82.75 1181.32,-81.52"/>
<polygon fill="#63b8ff" stroke="#63b8ff" points="1182.11,-84.93 1191.24,-79.56 1180.76,-78.06 1182.11,-84.93"/>
</a>
</g>
</g>
<!-- Node14&#45;&gt;Node10 -->
<g id="edge16_Node000014_Node000010" class="edge">
<title>Node14&#45;&gt;Node10</title>
<g id="a_edge16_Node000014_Node000010"><a xlink:title=" ">
<path fill="none" stroke="#63b8ff" d="M1329.01,-60.49C1319.77,-58.4 1309.69,-56.37 1300.3,-55 1062.29,-20.28 771.74,-12.57 675.77,-10.93"/>
<polygon fill="#63b8ff" stroke="#63b8ff" points="675.61,-7.43 665.55,-10.76 675.49,-14.42 675.61,-7.43"/>
</a>
</g>
</g>
<!-- Node15 -->
<g id="Node000015" class="node">
<title>Node15</title>
<g id="a_Node000015"><a xlink:title=" ">
<polygon fill="#e0e0e0" stroke="#999999" points="1387.3,-19 1337.3,-19 1337.3,0 1387.3,0 1387.3,-19"/>
<text text-anchor="middle" x="1362.3" y="-7" font-family="Helvetica,sans-Serif" font-size="10.00">chrono</text>
</a>
</g>
</g>
<!-- Node14&#45;&gt;Node15 -->
<g id="edge15_Node000014_Node000015" class="edge">
<title>Node14&#45;&gt;Node15</title>
<g id="a_edge15_Node000014_Node000015"><a xlink:title=" ">
<path fill="none" stroke="#63b8ff" d="M1362.3,-60.37C1362.3,-52.25 1362.3,-39.81 1362.3,-29.39"/>
<polygon fill="#63b8ff" stroke="#63b8ff" points="1365.8,-29.17 1362.3,-19.17 1358.8,-29.17 1365.8,-29.17"/>
</a>
</g>
</g>
</g>
</svg>
