<?xml version="1.0" encoding="UTF-8" standalone="no"?>
<!DOCTYPE svg PUBLIC "-//W3C//DTD SVG 1.1//EN"
 "http://www.w3.org/Graphics/SVG/1.1/DTD/svg11.dtd">
<!-- Generated by graphviz version 2.43.0 (0)
 -->
<!-- Title: /home/runner/work/occ/occ/include/occ/isosurface/cell_caps.h Pages: 1 -->
<svg width="1674pt" height="291pt"
 viewBox="0.00 0.00 1674.00 291.00" xmlns="http://www.w3.org/2000/svg" xmlns:xlink="http://www.w3.org/1999/xlink">
<g id="graph0" class="graph" transform="scale(1 1) rotate(0) translate(4 287)">
<title>/home/runner/work/occ/occ/include/occ/isosurface/cell_caps.h</title>
<!-- Node1 -->
<g id="Node000001" class="node">
<title>Node1</title>
<g id="a_Node000001"><a xlink:title=" ">
<polygon fill="#999999" stroke="#666666" points="389,-283 242,-283 242,-242 389,-242 389,-283"/>
<text text-anchor="start" x="250" y="-271" font-family="Helvetica,sans-Serif" font-size="10.00">/home/runner/work/occ</text>
<text text-anchor="start" x="250" y="-260" font-family="Helvetica,sans-Serif" font-size="10.00">/occ/include/occ/isosurface</text>
<text text-anchor="middle" x="315.5" y="-249" font-family="Helvetica,sans-Serif" font-size="10.00">/cell_caps.h</text>
</a>
</g>
</g>
<!-- Node2 -->
<g id="Node000002" class="node">
<title>Node2</title>
<g id="a_Node000002"><a xlink:title=" ">
<polygon fill="#e0e0e0" stroke="#999999" points="135.5,-140 85.5,-140 85.5,-121 135.5,-121 135.5,-140"/>
<text text-anchor="middle" x="110.5" y="-128" font-family="Helvetica,sans-Serif" font-size="10.00">cstdint</text>
</a>
</g>
</g>
<!-- Node1&#45;&gt;Node2 -->
<g id="edge1_Node000001_Node000002" class="edge">
<title>Node1&#45;&gt;Node2</title>
<g id="a_edge1_Node000001_Node000002"><a xlink:title=" ">
<path fill="none" stroke="#63b8ff" d="M284.36,-241.76C242.44,-215.17 168.9,-168.53 132.37,-145.37"/>
<polygon fill="#63b8ff" stroke="#63b8ff" points="134.24,-142.41 123.92,-140.01 130.49,-148.32 134.24,-142.41"/>
</a>
</g>
</g>
<!-- Node3 -->
<g id="Node000003" class="node">
<title>Node3</title>
<g id="a_Node000003"><a xlink:href="linear__algebra_8h.html" target="_top" xlink:title=" ">
<polygon fill="white" stroke="#666666" points="1095,-200.5 956,-200.5 956,-181.5 1095,-181.5 1095,-200.5"/>
<text text-anchor="middle" x="1025.5" y="-188.5" font-family="Helvetica,sans-Serif" font-size="10.00">occ/core/linear_algebra.h</text>
</a>
</g>
</g>
<!-- Node1&#45;&gt;Node3 -->
<g id="edge2_Node000001_Node000003" class="edge">
<title>Node1&#45;&gt;Node3</title>
<g id="a_edge2_Node000001_Node000003"><a xlink:title=" ">
<path fill="none" stroke="#63b8ff" d="M389.14,-254.29C523.42,-241.15 806.97,-213.39 945.69,-199.81"/>
<polygon fill="#63b8ff" stroke="#63b8ff" points="946.21,-203.28 955.82,-198.82 945.53,-196.31 946.21,-203.28"/>
</a>
</g>
</g>
<!-- Node7 -->
<g id="Node000007" class="node">
<title>Node7</title>
<g id="a_Node000007"><a xlink:title=" ">
<polygon fill="#e0e0e0" stroke="#999999" points="280,-79.5 233,-79.5 233,-60.5 280,-60.5 280,-79.5"/>
<text text-anchor="middle" x="256.5" y="-67.5" font-family="Helvetica,sans-Serif" font-size="10.00">vector</text>
</a>
</g>
</g>
<!-- Node1&#45;&gt;Node7 -->
<g id="edge6_Node000001_Node000007" class="edge">
<title>Node1&#45;&gt;Node7</title>
<g id="a_edge6_Node000001_Node000007"><a xlink:title=" ">
<path fill="none" stroke="#63b8ff" d="M309.41,-241.83C297.93,-204.79 273.28,-125.17 262.15,-89.25"/>
<polygon fill="#63b8ff" stroke="#63b8ff" points="265.46,-88.11 259.16,-79.6 258.78,-90.18 265.46,-88.11"/>
</a>
</g>
</g>
<!-- Node8 -->
<g id="Node000008" class="node">
<title>Node8</title>
<g id="a_Node000008"><a xlink:href="cell__caps__impl_8h.html" target="_top" xlink:title=" ">
<polygon fill="white" stroke="#666666" points="474,-206 367,-206 367,-176 474,-176 474,-206"/>
<text text-anchor="start" x="375" y="-194" font-family="Helvetica,sans-Serif" font-size="10.00">occ/isosurface/cell</text>
<text text-anchor="middle" x="420.5" y="-183" font-family="Helvetica,sans-Serif" font-size="10.00">_caps_impl.h</text>
</a>
</g>
</g>
<!-- Node1&#45;&gt;Node8 -->
<g id="edge7_Node000001_Node000008" class="edge">
<title>Node1&#45;&gt;Node8</title>
<g id="a_edge7_Node000001_Node000008"><a xlink:title=" ">
<path fill="none" stroke="#63b8ff" d="M345.03,-241.96C359.29,-232.51 376.38,-221.2 390.68,-211.74"/>
<polygon fill="#63b8ff" stroke="#63b8ff" points="392.77,-214.55 399.18,-206.11 388.91,-208.71 392.77,-214.55"/>
</a>
</g>
</g>
<!-- Node4 -->
<g id="Node000004" class="node">
<title>Node4</title>
<g id="a_Node000004"><a xlink:title=" ">
<polygon fill="#e0e0e0" stroke="#999999" points="1013,-140 936,-140 936,-121 1013,-121 1013,-140"/>
<text text-anchor="middle" x="974.5" y="-128" font-family="Helvetica,sans-Serif" font-size="10.00">Eigen/Dense</text>
</a>
</g>
</g>
<!-- Node3&#45;&gt;Node4 -->
<g id="edge3_Node000003_Node000004" class="edge">
<title>Node3&#45;&gt;Node4</title>
<g id="a_edge3_Node000003_Node000004"><a xlink:title=" ">
<path fill="none" stroke="#63b8ff" d="M1017.97,-181.37C1010.29,-172.55 998.18,-158.66 988.69,-147.77"/>
<polygon fill="#63b8ff" stroke="#63b8ff" points="991.27,-145.41 982.06,-140.17 985.99,-150.01 991.27,-145.41"/>
</a>
</g>
</g>
<!-- Node5 -->
<g id="Node000005" class="node">
<title>Node5</title>
<g id="a_Node000005"><a xlink:title=" ">
<polygon fill="#e0e0e0" stroke="#999999" points="1124,-140 1031,-140 1031,-121 1124,-121 1124,-140"/>
<text text-anchor="middle" x="1077.5" y="-128" font-family="Helvetica,sans-Serif" font-size="10.00">Eigen/StdVector</text>
</a>
</g>
</g>
<!-- Node3&#45;&gt;Node5 -->
<g id="edge4_Node000003_Node000005" class="edge">
<title>Node3&#45;&gt;Node5</title>
<g id="a_edge4_Node000003_Node000005"><a xlink:title=" ">
<path fill="none" stroke="#63b8ff" d="M1033.17,-181.37C1041.01,-172.55 1053.36,-158.66 1063.04,-147.77"/>
<polygon fill="#63b8ff" stroke="#63b8ff" points="1065.77,-149.97 1069.8,-140.17 1060.54,-145.32 1065.77,-149.97"/>
</a>
</g>
</g>
<!-- Node6 -->
<g id="Node000006" class="node">
<title>Node6</title>
<g id="a_Node000006"><a xlink:title=" ">
<polygon fill="#e0e0e0" stroke="#999999" points="1209,-140 1142,-140 1142,-121 1209,-121 1209,-140"/>
<text text-anchor="middle" x="1175.5" y="-128" font-family="Helvetica,sans-Serif" font-size="10.00">fmt/core.h</text>
</a>
</g>
</g>
<!-- Node3&#45;&gt;Node6 -->
<g id="edge5_Node000003_Node000006" class="edge">
<title>Node3&#45;&gt;Node6</title>
<g id="a_edge5_Node000003_Node000006"><a xlink:title=" ">
<path fill="none" stroke="#63b8ff" d="M1047.31,-181.49C1072.75,-171.57 1115.01,-155.09 1144.01,-143.78"/>
<polygon fill="#63b8ff" stroke="#63b8ff" points="1145.62,-146.91 1153.66,-140.02 1143.07,-140.39 1145.62,-146.91"/>
</a>
</g>
</g>
<!-- Node8&#45;&gt;Node2 -->
<g id="edge12_Node000008_Node000002" class="edge">
<title>Node8&#45;&gt;Node2</title>
<g id="a_edge12_Node000008_Node000002"><a xlink:title=" ">
<path fill="none" stroke="#63b8ff" d="M366.87,-181.36C313.23,-172.47 228.17,-157.73 145.51,-140.11"/>
<polygon fill="#63b8ff" stroke="#63b8ff" points="146.22,-136.68 135.71,-138 144.75,-143.52 146.22,-136.68"/>
</a>
</g>
</g>
<!-- Node9 -->
<g id="Node000009" class="node">
<title>Node9</title>
<g id="a_Node000009"><a xlink:title=" ">
<polygon fill="#e0e0e0" stroke="#999999" points="362.5,-79.5 298.5,-79.5 298.5,-60.5 362.5,-60.5 362.5,-79.5"/>
<text text-anchor="middle" x="330.5" y="-67.5" font-family="Helvetica,sans-Serif" font-size="10.00">algorithm</text>
</a>
</g>
</g>
<!-- Node8&#45;&gt;Node9 -->
<g id="edge8_Node000008_Node000009" class="edge">
<title>Node8&#45;&gt;Node9</title>
<g id="a_edge8_Node000008_Node000009"><a xlink:title=" ">
<path fill="none" stroke="#63b8ff" d="M474.25,-184.1C529.15,-175.93 602.28,-157.82 571.5,-121 542.53,-86.35 415.21,-96.33 371.5,-85 368.86,-84.32 366.15,-83.55 363.43,-82.73"/>
<polygon fill="#63b8ff" stroke="#63b8ff" points="364.32,-79.34 353.73,-79.61 362.18,-86 364.32,-79.34"/>
</a>
</g>
</g>
<!-- Node10 -->
<g id="Node000010" class="node">
<title>Node10</title>
<g id="a_Node000010"><a xlink:title=" ">
<polygon fill="#e0e0e0" stroke="#999999" points="437,-140 294,-140 294,-121 437,-121 437,-140"/>
<text text-anchor="middle" x="365.5" y="-128" font-family="Helvetica,sans-Serif" font-size="10.00">ankerl/unordered_dense.h</text>
</a>
</g>
</g>
<!-- Node8&#45;&gt;Node10 -->
<g id="edge9_Node000008_Node000010" class="edge">
<title>Node8&#45;&gt;Node10</title>
<g id="a_edge9_Node000008_Node000010"><a xlink:title=" ">
<path fill="none" stroke="#63b8ff" d="M407.19,-175.84C399.2,-167.35 389.02,-156.52 380.72,-147.69"/>
<polygon fill="#63b8ff" stroke="#63b8ff" points="383.14,-145.15 373.74,-140.27 378.04,-149.95 383.14,-145.15"/>
</a>
</g>
</g>
<!-- Node11 -->
<g id="Node000011" class="node">
<title>Node11</title>
<g id="a_Node000011"><a xlink:title=" ">
<polygon fill="#e0e0e0" stroke="#999999" points="497.5,-140 455.5,-140 455.5,-121 497.5,-121 497.5,-140"/>
<text text-anchor="middle" x="476.5" y="-128" font-family="Helvetica,sans-Serif" font-size="10.00">array</text>
</a>
</g>
</g>
<!-- Node8&#45;&gt;Node11 -->
<g id="edge10_Node000008_Node000011" class="edge">
<title>Node8&#45;&gt;Node11</title>
<g id="a_edge10_Node000008_Node000011"><a xlink:title=" ">
<path fill="none" stroke="#63b8ff" d="M434.06,-175.84C442.18,-167.35 452.55,-156.52 461,-147.69"/>
<polygon fill="#63b8ff" stroke="#63b8ff" points="463.72,-149.91 468.11,-140.27 458.67,-145.07 463.72,-149.91"/>
</a>
</g>
</g>
<!-- Node12 -->
<g id="Node000012" class="node">
<title>Node12</title>
<g id="a_Node000012"><a xlink:title=" ">
<polygon fill="#e0e0e0" stroke="#999999" points="563,-140 516,-140 516,-121 563,-121 563,-140"/>
<text text-anchor="middle" x="539.5" y="-128" font-family="Helvetica,sans-Serif" font-size="10.00">cmath</text>
</a>
</g>
</g>
<!-- Node8&#45;&gt;Node12 -->
<g id="edge11_Node000008_Node000012" class="edge">
<title>Node8&#45;&gt;Node12</title>
<g id="a_edge11_Node000008_Node000012"><a xlink:title=" ">
<path fill="none" stroke="#63b8ff" d="M449,-175.99C468.41,-166.45 493.93,-153.9 512.92,-144.57"/>
<polygon fill="#63b8ff" stroke="#63b8ff" points="514.5,-147.69 521.93,-140.14 511.41,-141.41 514.5,-147.69"/>
</a>
</g>
</g>
<!-- Node13 -->
<g id="Node000013" class="node">
<title>Node13</title>
<g id="a_Node000013"><a xlink:href="log_8h.html" target="_top" xlink:title=" ">
<polygon fill="white" stroke="#666666" points="237.5,-140 153.5,-140 153.5,-121 237.5,-121 237.5,-140"/>
<text text-anchor="middle" x="195.5" y="-128" font-family="Helvetica,sans-Serif" font-size="10.00">occ/core/log.h</text>
</a>
</g>
</g>
<!-- Node8&#45;&gt;Node13 -->
<g id="edge13_Node000008_Node000013" class="edge">
<title>Node8&#45;&gt;Node13</title>
<g id="a_edge13_Node000008_Node000013"><a xlink:title=" ">
<path fill="none" stroke="#63b8ff" d="M366.89,-176.06C327.57,-165.84 274.87,-152.14 238.33,-142.64"/>
<polygon fill="#63b8ff" stroke="#63b8ff" points="239.04,-139.2 228.48,-140.08 237.28,-145.98 239.04,-139.2"/>
</a>
</g>
</g>
<!-- Node17 -->
<g id="Node000017" class="node">
<title>Node17</title>
<g id="a_Node000017"><a xlink:href="parallel_8h.html" target="_top" xlink:title=" ">
<polygon fill="white" stroke="#666666" points="917.5,-140 811.5,-140 811.5,-121 917.5,-121 917.5,-140"/>
<text text-anchor="middle" x="864.5" y="-128" font-family="Helvetica,sans-Serif" font-size="10.00">occ/core/parallel.h</text>
</a>
</g>
</g>
<!-- Node8&#45;&gt;Node17 -->
<g id="edge18_Node000008_Node000017" class="edge">
<title>Node8&#45;&gt;Node17</title>
<g id="a_edge18_Node000008_Node000017"><a xlink:title=" ">
<path fill="none" stroke="#63b8ff" d="M474.06,-182.94C556.37,-172.1 713.62,-151.38 801.36,-139.82"/>
<polygon fill="#63b8ff" stroke="#63b8ff" points="801.99,-143.27 811.44,-138.49 801.07,-136.33 801.99,-143.27"/>
</a>
</g>
</g>
<!-- Node13&#45;&gt;Node7 -->
<g id="edge17_Node000013_Node000007" class="edge">
<title>Node13&#45;&gt;Node7</title>
<g id="a_edge17_Node000013_Node000007"><a xlink:title=" ">
<path fill="none" stroke="#63b8ff" d="M204.5,-120.87C213.87,-111.88 228.75,-97.61 240.2,-86.64"/>
<polygon fill="#63b8ff" stroke="#63b8ff" points="242.67,-89.12 247.46,-79.67 237.82,-84.06 242.67,-89.12"/>
</a>
</g>
</g>
<!-- Node14 -->
<g id="Node000014" class="node">
<title>Node14</title>
<g id="a_Node000014"><a xlink:title=" ">
<polygon fill="#e0e0e0" stroke="#999999" points="65,-79.5 0,-79.5 0,-60.5 65,-60.5 65,-79.5"/>
<text text-anchor="middle" x="32.5" y="-67.5" font-family="Helvetica,sans-Serif" font-size="10.00">functional</text>
</a>
</g>
</g>
<!-- Node13&#45;&gt;Node14 -->
<g id="edge14_Node000013_Node000014" class="edge">
<title>Node13&#45;&gt;Node14</title>
<g id="a_edge14_Node000013_Node000014"><a xlink:title=" ">
<path fill="none" stroke="#63b8ff" d="M171.8,-120.99C143.91,-110.99 97.43,-94.3 65.9,-82.99"/>
<polygon fill="#63b8ff" stroke="#63b8ff" points="66.82,-79.6 56.23,-79.52 64.46,-86.19 66.82,-79.6"/>
</a>
</g>
</g>
<!-- Node15 -->
<g id="Node000015" class="node">
<title>Node15</title>
<g id="a_Node000015"><a xlink:title=" ">
<polygon fill="#e0e0e0" stroke="#999999" points="176,-79.5 83,-79.5 83,-60.5 176,-60.5 176,-79.5"/>
<text text-anchor="middle" x="129.5" y="-67.5" font-family="Helvetica,sans-Serif" font-size="10.00">spdlog/spdlog.h</text>
</a>
</g>
</g>
<!-- Node13&#45;&gt;Node15 -->
<g id="edge15_Node000013_Node000015" class="edge">
<title>Node13&#45;&gt;Node15</title>
<g id="a_edge15_Node000013_Node000015"><a xlink:title=" ">
<path fill="none" stroke="#63b8ff" d="M185.76,-120.87C175.53,-111.8 159.21,-97.34 146.78,-86.32"/>
<polygon fill="#63b8ff" stroke="#63b8ff" points="149.08,-83.68 139.28,-79.67 144.44,-88.92 149.08,-83.68"/>
</a>
</g>
</g>
<!-- Node16 -->
<g id="Node000016" class="node">
<title>Node16</title>
<g id="a_Node000016"><a xlink:title=" ">
<polygon fill="#e0e0e0" stroke="#999999" points="783.5,-19 739.5,-19 739.5,0 783.5,0 783.5,-19"/>
<text text-anchor="middle" x="761.5" y="-7" font-family="Helvetica,sans-Serif" font-size="10.00">string</text>
</a>
</g>
</g>
<!-- Node13&#45;&gt;Node16 -->
<g id="edge16_Node000013_Node000016" class="edge">
<title>Node13&#45;&gt;Node16</title>
<g id="a_edge16_Node000013_Node000016"><a xlink:title=" ">
<path fill="none" stroke="#63b8ff" d="M195.91,-120.86C197.17,-104.9 202.33,-70.99 223.5,-55 263.89,-24.49 619.31,-13.78 729.24,-11.18"/>
<polygon fill="#63b8ff" stroke="#63b8ff" points="729.47,-14.68 739.39,-10.95 729.31,-7.68 729.47,-14.68"/>
</a>
</g>
</g>
<!-- Node17&#45;&gt;Node7 -->
<g id="edge26_Node000017_Node000007" class="edge">
<title>Node17&#45;&gt;Node7</title>
<g id="a_edge26_Node000017_Node000007"><a xlink:title=" ">
<path fill="none" stroke="#63b8ff" d="M811.2,-127.58C688.21,-122.78 387.62,-108.93 289.5,-85 287.55,-84.52 285.57,-83.95 283.59,-83.3"/>
<polygon fill="#63b8ff" stroke="#63b8ff" points="284.54,-79.92 273.95,-79.64 282.06,-86.46 284.54,-79.92"/>
</a>
</g>
</g>
<!-- Node17&#45;&gt;Node9 -->
<g id="edge19_Node000017_Node000009" class="edge">
<title>Node17&#45;&gt;Node9</title>
<g id="a_edge19_Node000017_Node000009"><a xlink:title=" ">
<path fill="none" stroke="#63b8ff" d="M811.35,-128.85C720.31,-126.81 529.11,-118.52 371.5,-85 368.44,-84.35 365.28,-83.54 362.15,-82.64"/>
<polygon fill="#63b8ff" stroke="#63b8ff" points="362.95,-79.22 352.36,-79.54 360.84,-85.89 362.95,-79.22"/>
</a>
</g>
</g>
<!-- Node18 -->
<g id="Node000018" class="node">
<title>Node18</title>
<g id="a_Node000018"><a xlink:title=" ">
<polygon fill="#e0e0e0" stroke="#999999" points="1512.5,-79.5 1454.5,-79.5 1454.5,-60.5 1512.5,-60.5 1512.5,-79.5"/>
<text text-anchor="middle" x="1483.5" y="-67.5" font-family="Helvetica,sans-Serif" font-size="10.00">memory</text>
</a>
</g>
</g>
<!-- Node17&#45;&gt;Node18 -->
<g id="edge20_Node000017_Node000018" class="edge">
<title>Node17&#45;&gt;Node18</title>
<g id="a_edge20_Node000017_Node000018"><a xlink:title=" ">
<path fill="none" stroke="#63b8ff" d="M917.57,-121.99C920.59,-121.63 923.58,-121.3 926.5,-121 1156.5,-97.28 1219.41,-133.45 1445.5,-85 1448.18,-84.43 1450.92,-83.7 1453.65,-82.89"/>
<polygon fill="#63b8ff" stroke="#63b8ff" points="1454.94,-86.15 1463.31,-79.65 1452.71,-79.51 1454.94,-86.15"/>
</a>
</g>
</g>
<!-- Node19 -->
<g id="Node000019" class="node">
<title>Node19</title>
<g id="a_Node000019"><a xlink:href="timings_8h.html" target="_top" xlink:title=" ">
<polygon fill="white" stroke="#666666" points="1436.5,-79.5 1330.5,-79.5 1330.5,-60.5 1436.5,-60.5 1436.5,-79.5"/>
<text text-anchor="middle" x="1383.5" y="-67.5" font-family="Helvetica,sans-Serif" font-size="10.00">occ/core/timings.h</text>
</a>
</g>
</g>
<!-- Node17&#45;&gt;Node19 -->
<g id="edge21_Node000017_Node000019" class="edge">
<title>Node17&#45;&gt;Node19</title>
<g id="a_edge21_Node000017_Node000019"><a xlink:title=" ">
<path fill="none" stroke="#63b8ff" d="M917.58,-122.06C920.6,-121.69 923.59,-121.33 926.5,-121 1101.65,-101.02 1147.37,-112.47 1321.5,-85 1327.37,-84.07 1333.5,-82.92 1339.54,-81.67"/>
<polygon fill="#63b8ff" stroke="#63b8ff" points="1340.51,-85.04 1349.54,-79.51 1339.03,-78.2 1340.51,-85.04"/>
</a>
</g>
</g>
<!-- Node21 -->
<g id="Node000021" class="node">
<title>Node21</title>
<g id="a_Node000021"><a xlink:title=" ">
<polygon fill="#e0e0e0" stroke="#999999" points="1578.5,-79.5 1530.5,-79.5 1530.5,-60.5 1578.5,-60.5 1578.5,-79.5"/>
<text text-anchor="middle" x="1554.5" y="-67.5" font-family="Helvetica,sans-Serif" font-size="10.00">thread</text>
</a>
</g>
</g>
<!-- Node17&#45;&gt;Node21 -->
<g id="edge24_Node000017_Node000021" class="edge">
<title>Node17&#45;&gt;Node21</title>
<g id="a_edge24_Node000017_Node000021"><a xlink:title=" ">
<path fill="none" stroke="#63b8ff" d="M917.57,-121.96C920.59,-121.61 923.58,-121.29 926.5,-121 1190.15,-94.99 1263.6,-145.61 1521.5,-85 1523.67,-84.49 1525.87,-83.85 1528.06,-83.13"/>
<polygon fill="#63b8ff" stroke="#63b8ff" points="1529.31,-86.39 1537.41,-79.56 1526.81,-79.86 1529.31,-86.39"/>
</a>
</g>
</g>
<!-- Node22 -->
<g id="Node000022" class="node">
<title>Node22</title>
<g id="a_Node000022"><a xlink:title=" ">
<polygon fill="#e0e0e0" stroke="#999999" points="1666,-79.5 1597,-79.5 1597,-60.5 1666,-60.5 1666,-79.5"/>
<text text-anchor="middle" x="1631.5" y="-67.5" font-family="Helvetica,sans-Serif" font-size="10.00">type_traits</text>
</a>
</g>
</g>
<!-- Node17&#45;&gt;Node22 -->
<g id="edge25_Node000017_Node000022" class="edge">
<title>Node17&#45;&gt;Node22</title>
<g id="a_edge25_Node000017_Node000022"><a xlink:title=" ">
<path fill="none" stroke="#63b8ff" d="M917.57,-121.93C920.59,-121.59 923.58,-121.28 926.5,-121 1219.38,-93 1298.11,-138.03 1587.5,-85 1591.19,-84.32 1594.99,-83.43 1598.75,-82.42"/>
<polygon fill="#63b8ff" stroke="#63b8ff" points="1599.89,-85.73 1608.49,-79.53 1597.91,-79.02 1599.89,-85.73"/>
</a>
</g>
</g>
<!-- Node23 -->
<g id="Node000023" class="node">
<title>Node23</title>
<g id="a_Node000023"><a xlink:title=" ">
<polygon fill="#e0e0e0" stroke="#999999" points="496,-79.5 381,-79.5 381,-60.5 496,-60.5 496,-79.5"/>
<text text-anchor="middle" x="438.5" y="-67.5" font-family="Helvetica,sans-Serif" font-size="10.00">tbb/blocked_range.h</text>
</a>
</g>
</g>
<!-- Node17&#45;&gt;Node23 -->
<g id="edge27_Node000017_Node000023" class="edge">
<title>Node17&#45;&gt;Node23</title>
<g id="a_edge27_Node000017_Node000023"><a xlink:title=" ">
<path fill="none" stroke="#63b8ff" d="M811.23,-124.36C740.78,-117.24 612.88,-103.16 504.5,-85 498.58,-84.01 492.38,-82.85 486.26,-81.64"/>
<polygon fill="#63b8ff" stroke="#63b8ff" points="486.59,-78.13 476.09,-79.56 485.18,-84.99 486.59,-78.13"/>
</a>
</g>
</g>
<!-- Node24 -->
<g id="Node000024" class="node">
<title>Node24</title>
<g id="a_Node000024"><a xlink:title=" ">
<polygon fill="#e0e0e0" stroke="#999999" points="641,-79.5 514,-79.5 514,-60.5 641,-60.5 641,-79.5"/>
<text text-anchor="middle" x="577.5" y="-67.5" font-family="Helvetica,sans-Serif" font-size="10.00">tbb/blocked_range2d.h</text>
</a>
</g>
</g>
<!-- Node17&#45;&gt;Node24 -->
<g id="edge28_Node000017_Node000024" class="edge">
<title>Node17&#45;&gt;Node24</title>
<g id="a_edge28_Node000017_Node000024"><a xlink:title=" ">
<path fill="none" stroke="#63b8ff" d="M822.77,-120.99C771.54,-110.55 684.67,-92.85 629.25,-81.55"/>
<polygon fill="#63b8ff" stroke="#63b8ff" points="629.78,-78.08 619.28,-79.52 628.38,-84.94 629.78,-78.08"/>
</a>
</g>
</g>
<!-- Node25 -->
<g id="Node000025" class="node">
<title>Node25</title>
<g id="a_Node000025"><a xlink:title=" ">
<polygon fill="#e0e0e0" stroke="#999999" points="790,-85 659,-85 659,-55 790,-55 790,-85"/>
<text text-anchor="start" x="667" y="-73" font-family="Helvetica,sans-Serif" font-size="10.00">tbb/enumerable_thread</text>
<text text-anchor="middle" x="724.5" y="-62" font-family="Helvetica,sans-Serif" font-size="10.00">_specific.h</text>
</a>
</g>
</g>
<!-- Node17&#45;&gt;Node25 -->
<g id="edge29_Node000017_Node000025" class="edge">
<title>Node17&#45;&gt;Node25</title>
<g id="a_edge29_Node000017_Node000025"><a xlink:title=" ">
<path fill="none" stroke="#63b8ff" d="M844.14,-120.99C824.17,-112.65 793.09,-99.66 767.61,-89.02"/>
<polygon fill="#63b8ff" stroke="#63b8ff" points="768.73,-85.69 758.16,-85.06 766.04,-92.15 768.73,-85.69"/>
</a>
</g>
</g>
<!-- Node26 -->
<g id="Node000026" class="node">
<title>Node26</title>
<g id="a_Node000026"><a xlink:title=" ">
<polygon fill="#e0e0e0" stroke="#999999" points="921,-79.5 808,-79.5 808,-60.5 921,-60.5 921,-79.5"/>
<text text-anchor="middle" x="864.5" y="-67.5" font-family="Helvetica,sans-Serif" font-size="10.00">tbb/global_control.h</text>
</a>
</g>
</g>
<!-- Node17&#45;&gt;Node26 -->
<g id="edge30_Node000017_Node000026" class="edge">
<title>Node17&#45;&gt;Node26</title>
<g id="a_edge30_Node000017_Node000026"><a xlink:title=" ">
<path fill="none" stroke="#63b8ff" d="M864.5,-120.87C864.5,-112.75 864.5,-100.31 864.5,-89.89"/>
<polygon fill="#63b8ff" stroke="#63b8ff" points="868,-89.67 864.5,-79.67 861,-89.67 868,-89.67"/>
</a>
</g>
</g>
<!-- Node27 -->
<g id="Node000027" class="node">
<title>Node27</title>
<g id="a_Node000027"><a xlink:title=" ">
<polygon fill="#e0e0e0" stroke="#999999" points="1038,-79.5 939,-79.5 939,-60.5 1038,-60.5 1038,-79.5"/>
<text text-anchor="middle" x="988.5" y="-67.5" font-family="Helvetica,sans-Serif" font-size="10.00">tbb/parallel_for.h</text>
</a>
</g>
</g>
<!-- Node17&#45;&gt;Node27 -->
<g id="edge31_Node000017_Node000027" class="edge">
<title>Node17&#45;&gt;Node27</title>
<g id="a_edge31_Node000017_Node000027"><a xlink:title=" ">
<path fill="none" stroke="#63b8ff" d="M882.53,-120.99C903.19,-111.25 937.28,-95.16 961.2,-83.88"/>
<polygon fill="#63b8ff" stroke="#63b8ff" points="962.9,-86.95 970.45,-79.52 959.91,-80.62 962.9,-86.95"/>
</a>
</g>
</g>
<!-- Node28 -->
<g id="Node000028" class="node">
<title>Node28</title>
<g id="a_Node000028"><a xlink:title=" ">
<polygon fill="#e0e0e0" stroke="#999999" points="1175,-79.5 1056,-79.5 1056,-60.5 1175,-60.5 1175,-79.5"/>
<text text-anchor="middle" x="1115.5" y="-67.5" font-family="Helvetica,sans-Serif" font-size="10.00">tbb/parallel_invoke.h</text>
</a>
</g>
</g>
<!-- Node17&#45;&gt;Node28 -->
<g id="edge32_Node000017_Node000028" class="edge">
<title>Node17&#45;&gt;Node28</title>
<g id="a_edge32_Node000017_Node000028"><a xlink:title=" ">
<path fill="none" stroke="#63b8ff" d="M901,-120.99C945.43,-110.64 1020.51,-93.14 1069.03,-81.83"/>
<polygon fill="#63b8ff" stroke="#63b8ff" points="1070.01,-85.2 1078.96,-79.52 1068.42,-78.38 1070.01,-85.2"/>
</a>
</g>
</g>
<!-- Node29 -->
<g id="Node000029" class="node">
<title>Node29</title>
<g id="a_Node000029"><a xlink:title=" ">
<polygon fill="#e0e0e0" stroke="#999999" points="1312,-79.5 1193,-79.5 1193,-60.5 1312,-60.5 1312,-79.5"/>
<text text-anchor="middle" x="1252.5" y="-67.5" font-family="Helvetica,sans-Serif" font-size="10.00">tbb/parallel_reduce.h</text>
</a>
</g>
</g>
<!-- Node17&#45;&gt;Node29 -->
<g id="edge33_Node000017_Node000029" class="edge">
<title>Node17&#45;&gt;Node29</title>
<g id="a_edge33_Node000017_Node000029"><a xlink:title=" ">
<path fill="none" stroke="#63b8ff" d="M917.84,-122.17C1005.46,-110.13 1171.53,-87.23 1184.5,-85 1190.66,-83.94 1197.11,-82.73 1203.49,-81.49"/>
<polygon fill="#63b8ff" stroke="#63b8ff" points="1204.27,-84.9 1213.39,-79.5 1202.9,-78.03 1204.27,-84.9"/>
</a>
</g>
</g>
<!-- Node19&#45;&gt;Node16 -->
<g id="edge23_Node000019_Node000016" class="edge">
<title>Node19&#45;&gt;Node16</title>
<g id="a_edge23_Node000019_Node000016"><a xlink:title=" ">
<path fill="none" stroke="#63b8ff" d="M1349.88,-60.49C1340.72,-58.42 1330.77,-56.41 1321.5,-55 1122.23,-24.74 879.75,-14.34 793.68,-11.45"/>
<polygon fill="#63b8ff" stroke="#63b8ff" points="793.62,-7.95 783.51,-11.12 793.39,-14.94 793.62,-7.95"/>
</a>
</g>
</g>
<!-- Node20 -->
<g id="Node000020" class="node">
<title>Node20</title>
<g id="a_Node000020"><a xlink:title=" ">
<polygon fill="#e0e0e0" stroke="#999999" points="1408.5,-19 1358.5,-19 1358.5,0 1408.5,0 1408.5,-19"/>
<text text-anchor="middle" x="1383.5" y="-7" font-family="Helvetica,sans-Serif" font-size="10.00">chrono</text>
</a>
</g>
</g>
<!-- Node19&#45;&gt;Node20 -->
<g id="edge22_Node000019_Node000020" class="edge">
<title>Node19&#45;&gt;Node20</title>
<g id="a_edge22_Node000019_Node000020"><a xlink:title=" ">
<path fill="none" stroke="#63b8ff" d="M1383.5,-60.37C1383.5,-52.25 1383.5,-39.81 1383.5,-29.39"/>
<polygon fill="#63b8ff" stroke="#63b8ff" points="1387,-29.17 1383.5,-19.17 1380,-29.17 1387,-29.17"/>
</a>
</g>
</g>
</g>
</svg>
