<?xml version="1.0" encoding="UTF-8" standalone="no"?>
<!DOCTYPE svg PUBLIC "-//W3C//DTD SVG 1.1//EN"
 "http://www.w3.org/Graphics/SVG/1.1/DTD/svg11.dtd">
<!-- Generated by graphviz version 2.43.0 (0)
 -->
<!-- Title: /home/runner/work/occ/occ/include/occ/cg/cg_json.h Pages: 1 -->
<svg width="429pt" height="214pt"
 viewBox="0.00 0.00 429.00 214.00" xmlns="http://www.w3.org/2000/svg" xmlns:xlink="http://www.w3.org/1999/xlink">
<g id="graph0" class="graph" transform="scale(1 1) rotate(0) translate(4 210)">
<title>/home/runner/work/occ/occ/include/occ/cg/cg_json.h</title>
<!-- Node1 -->
<g id="Node000001" class="node">
<title>Node1</title>
<g id="a_Node000001"><a xlink:title=" ">
<polygon fill="#999999" stroke="#666666" points="304.5,-206 176.5,-206 176.5,-165 304.5,-165 304.5,-206"/>
<text text-anchor="start" x="184.5" y="-194" font-family="Helvetica,sans-Serif" font-size="10.00">/home/runner/work/occ</text>
<text text-anchor="start" x="184.5" y="-183" font-family="Helvetica,sans-Serif" font-size="10.00">/occ/include/occ/cg/cg</text>
<text text-anchor="middle" x="240.5" y="-172" font-family="Helvetica,sans-Serif" font-size="10.00">_json.h</text>
</a>
</g>
</g>
<!-- Node2 -->
<g id="Node000002" class="node">
<title>Node2</title>
<g id="a_Node000002"><a xlink:title=" ">
<polygon fill="#e0e0e0" stroke="#999999" points="295.5,-74 185.5,-74 185.5,-55 295.5,-55 295.5,-74"/>
<text text-anchor="middle" x="240.5" y="-62" font-family="Helvetica,sans-Serif" font-size="10.00">nlohmann/json.hpp</text>
</a>
</g>
</g>
<!-- Node1&#45;&gt;Node2 -->
<g id="edge1_Node000001_Node000002" class="edge">
<title>Node1&#45;&gt;Node2</title>
<g id="a_edge1_Node000001_Node000002"><a xlink:title=" ">
<path fill="none" stroke="#63b8ff" d="M240.5,-164.85C240.5,-142.48 240.5,-106.19 240.5,-84.21"/>
<polygon fill="#63b8ff" stroke="#63b8ff" points="244,-84.18 240.5,-74.18 237,-84.18 244,-84.18"/>
</a>
</g>
</g>
<!-- Node3 -->
<g id="Node000003" class="node">
<title>Node3</title>
<g id="a_Node000003"><a xlink:href="solvent__surface_8h.html" target="_top" xlink:title=" ">
<polygon fill="white" stroke="#666666" points="189,-129 52,-129 52,-110 189,-110 189,-129"/>
<text text-anchor="middle" x="120.5" y="-117" font-family="Helvetica,sans-Serif" font-size="10.00">occ/cg/solvent_surface.h</text>
</a>
</g>
</g>
<!-- Node1&#45;&gt;Node3 -->
<g id="edge2_Node000001_Node000003" class="edge">
<title>Node1&#45;&gt;Node3</title>
<g id="a_edge2_Node000001_Node000003"><a xlink:title=" ">
<path fill="none" stroke="#63b8ff" d="M203.84,-164.95C185.06,-154.93 162.66,-142.99 145.82,-134"/>
<polygon fill="#63b8ff" stroke="#63b8ff" points="147.08,-130.71 136.61,-129.09 143.79,-136.89 147.08,-130.71"/>
</a>
</g>
</g>
<!-- Node8 -->
<g id="Node000008" class="node">
<title>Node8</title>
<g id="a_Node000008"><a xlink:href="eigen__json_8h.html" target="_top" xlink:title=" ">
<polygon fill="white" stroke="#666666" points="378.5,-129 268.5,-129 268.5,-110 378.5,-110 378.5,-129"/>
<text text-anchor="middle" x="323.5" y="-117" font-family="Helvetica,sans-Serif" font-size="10.00">occ/io/eigen_json.h</text>
</a>
</g>
</g>
<!-- Node1&#45;&gt;Node8 -->
<g id="edge7_Node000001_Node000008" class="edge">
<title>Node1&#45;&gt;Node8</title>
<g id="a_edge7_Node000001_Node000008"><a xlink:title=" ">
<path fill="none" stroke="#63b8ff" d="M265.85,-164.95C278.16,-155.46 292.72,-144.24 304.12,-135.44"/>
<polygon fill="#63b8ff" stroke="#63b8ff" points="306.36,-138.14 312.14,-129.26 302.08,-132.6 306.36,-138.14"/>
</a>
</g>
</g>
<!-- Node4 -->
<g id="Node000004" class="node">
<title>Node4</title>
<g id="a_Node000004"><a xlink:href="linear__algebra_8h.html" target="_top" xlink:title=" ">
<polygon fill="white" stroke="#666666" points="167,-74 28,-74 28,-55 167,-55 167,-74"/>
<text text-anchor="middle" x="97.5" y="-62" font-family="Helvetica,sans-Serif" font-size="10.00">occ/core/linear_algebra.h</text>
</a>
</g>
</g>
<!-- Node3&#45;&gt;Node4 -->
<g id="edge3_Node000003_Node000004" class="edge">
<title>Node3&#45;&gt;Node4</title>
<g id="a_edge3_Node000003_Node000004"><a xlink:title=" ">
<path fill="none" stroke="#63b8ff" d="M116.7,-109.75C113.59,-102.57 109.08,-92.18 105.21,-83.27"/>
<polygon fill="#63b8ff" stroke="#63b8ff" points="108.42,-81.87 101.23,-74.09 102,-84.66 108.42,-81.87"/>
</a>
</g>
</g>
<!-- Node5 -->
<g id="Node000005" class="node">
<title>Node5</title>
<g id="a_Node000005"><a xlink:title=" ">
<polygon fill="#e0e0e0" stroke="#999999" points="188,-19 111,-19 111,0 188,0 188,-19"/>
<text text-anchor="middle" x="149.5" y="-7" font-family="Helvetica,sans-Serif" font-size="10.00">Eigen/Dense</text>
</a>
</g>
</g>
<!-- Node4&#45;&gt;Node5 -->
<g id="edge4_Node000004_Node000005" class="edge">
<title>Node4&#45;&gt;Node5</title>
<g id="a_edge4_Node000004_Node000005"><a xlink:title=" ">
<path fill="none" stroke="#63b8ff" d="M106.09,-54.75C113.66,-47.03 124.88,-35.6 134.01,-26.28"/>
<polygon fill="#63b8ff" stroke="#63b8ff" points="136.57,-28.68 141.07,-19.09 131.57,-23.78 136.57,-28.68"/>
</a>
</g>
</g>
<!-- Node6 -->
<g id="Node000006" class="node">
<title>Node6</title>
<g id="a_Node000006"><a xlink:title=" ">
<polygon fill="#e0e0e0" stroke="#999999" points="93,-19 0,-19 0,0 93,0 93,-19"/>
<text text-anchor="middle" x="46.5" y="-7" font-family="Helvetica,sans-Serif" font-size="10.00">Eigen/StdVector</text>
</a>
</g>
</g>
<!-- Node4&#45;&gt;Node6 -->
<g id="edge5_Node000004_Node000006" class="edge">
<title>Node4&#45;&gt;Node6</title>
<g id="a_edge5_Node000004_Node000006"><a xlink:title=" ">
<path fill="none" stroke="#63b8ff" d="M89.08,-54.75C81.73,-47.11 70.87,-35.82 61.96,-26.56"/>
<polygon fill="#63b8ff" stroke="#63b8ff" points="64.22,-23.87 54.76,-19.09 59.18,-28.72 64.22,-23.87"/>
</a>
</g>
</g>
<!-- Node7 -->
<g id="Node000007" class="node">
<title>Node7</title>
<g id="a_Node000007"><a xlink:title=" ">
<polygon fill="#e0e0e0" stroke="#999999" points="315,-19 248,-19 248,0 315,0 315,-19"/>
<text text-anchor="middle" x="281.5" y="-7" font-family="Helvetica,sans-Serif" font-size="10.00">fmt/core.h</text>
</a>
</g>
</g>
<!-- Node4&#45;&gt;Node7 -->
<g id="edge6_Node000004_Node000007" class="edge">
<title>Node4&#45;&gt;Node7</title>
<g id="a_edge6_Node000004_Node000007"><a xlink:title=" ">
<path fill="none" stroke="#63b8ff" d="M127.06,-54.98C158.22,-46.01 207.47,-31.82 241.96,-21.89"/>
<polygon fill="#63b8ff" stroke="#63b8ff" points="243.07,-25.21 251.71,-19.08 241.13,-18.49 243.07,-25.21"/>
</a>
</g>
</g>
<!-- Node8&#45;&gt;Node2 -->
<g id="edge10_Node000008_Node000002" class="edge">
<title>Node8&#45;&gt;Node2</title>
<g id="a_edge10_Node000008_Node000002"><a xlink:title=" ">
<path fill="none" stroke="#63b8ff" d="M310.16,-109.98C297.41,-101.84 277.95,-89.41 262.83,-79.76"/>
<polygon fill="#63b8ff" stroke="#63b8ff" points="264.39,-76.6 254.08,-74.17 260.62,-82.5 264.39,-76.6"/>
</a>
</g>
</g>
<!-- Node8&#45;&gt;Node7 -->
<g id="edge9_Node000008_Node000007" class="edge">
<title>Node8&#45;&gt;Node7</title>
<g id="a_edge9_Node000008_Node000007"><a xlink:title=" ">
<path fill="none" stroke="#63b8ff" d="M321.42,-109.7C318.36,-97.27 312.17,-73.99 304.5,-55 300.8,-45.83 295.84,-36.02 291.48,-27.95"/>
<polygon fill="#63b8ff" stroke="#63b8ff" points="294.5,-26.18 286.58,-19.14 288.38,-29.58 294.5,-26.18"/>
</a>
</g>
</g>
<!-- Node9 -->
<g id="Node000009" class="node">
<title>Node9</title>
<g id="a_Node000009"><a xlink:title=" ">
<polygon fill="#e0e0e0" stroke="#999999" points="421,-74 352,-74 352,-55 421,-55 421,-74"/>
<text text-anchor="middle" x="386.5" y="-62" font-family="Helvetica,sans-Serif" font-size="10.00">Eigen/Core</text>
</a>
</g>
</g>
<!-- Node8&#45;&gt;Node9 -->
<g id="edge8_Node000008_Node000009" class="edge">
<title>Node8&#45;&gt;Node9</title>
<g id="a_edge8_Node000008_Node000009"><a xlink:title=" ">
<path fill="none" stroke="#63b8ff" d="M333.62,-109.98C342.94,-102.15 356.97,-90.34 368.24,-80.86"/>
<polygon fill="#63b8ff" stroke="#63b8ff" points="370.79,-83.29 376.19,-74.17 366.29,-77.93 370.79,-83.29"/>
</a>
</g>
</g>
</g>
</svg>
