<?xml version="1.0" encoding="UTF-8" standalone="no"?>
<!DOCTYPE svg PUBLIC "-//W3C//DTD SVG 1.1//EN"
 "http://www.w3.org/Graphics/SVG/1.1/DTD/svg11.dtd">
<!-- Generated by graphviz version 2.43.0 (0)
 -->
<!-- Title: /home/runner/work/occ/occ/include/occ/io/cifparser.h Pages: 1 -->
<svg width="2382pt" height="453pt"
 viewBox="0.00 0.00 2382.00 453.00" xmlns="http://www.w3.org/2000/svg" xmlns:xlink="http://www.w3.org/1999/xlink">
<g id="graph0" class="graph" transform="scale(1 1) rotate(0) translate(4 449)">
<title>/home/runner/work/occ/occ/include/occ/io/cifparser.h</title>
<!-- Node1 -->
<g id="node1" class="node">
<title>Node1</title>
<g id="a_node1"><a xlink:title=" ">
<polygon fill="#bfbfbf" stroke="black" points="521,-414.5 521,-444.5 681,-444.5 681,-414.5 521,-414.5"/>
<text text-anchor="start" x="529" y="-432.5" font-family="Helvetica,sans-Serif" font-size="10.00">/home/runner/work/occ</text>
<text text-anchor="middle" x="601" y="-421.5" font-family="Helvetica,sans-Serif" font-size="10.00">/occ/include/occ/io/cifparser.h</text>
</a>
</g>
</g>
<!-- Node2 -->
<g id="node2" class="node">
<title>Node2</title>
<g id="a_node2"><a xlink:title=" ">
<polygon fill="none" stroke="#bfbfbf" points="0,-358.5 0,-377.5 86,-377.5 86,-358.5 0,-358.5"/>
<text text-anchor="middle" x="43" y="-365.5" font-family="Helvetica,sans-Serif" font-size="10.00">gemmi/cif.hpp</text>
</a>
</g>
</g>
<!-- Node1&#45;&gt;Node2 -->
<g id="edge1" class="edge">
<title>Node1&#45;&gt;Node2</title>
<path fill="none" stroke="midnightblue" d="M520.6,-422.27C422.76,-414.29 252.32,-399.08 96.35,-378.09"/>
<polygon fill="midnightblue" stroke="midnightblue" points="96.47,-374.58 86.09,-376.7 95.53,-381.52 96.47,-374.58"/>
</g>
<!-- Node3 -->
<g id="node3" class="node">
<title>Node3</title>
<g id="a_node3"><a xlink:title=" ">
<polygon fill="none" stroke="#bfbfbf" points="104,-358.5 104,-377.5 164,-377.5 164,-358.5 104,-358.5"/>
<text text-anchor="middle" x="134" y="-365.5" font-family="Helvetica,sans-Serif" font-size="10.00">iostream</text>
</a>
</g>
</g>
<!-- Node1&#45;&gt;Node3 -->
<g id="edge2" class="edge">
<title>Node1&#45;&gt;Node3</title>
<path fill="none" stroke="midnightblue" d="M520.81,-420.93C435.53,-412.41 296.83,-397.21 178,-378 176.74,-377.8 175.47,-377.58 174.18,-377.36"/>
<polygon fill="midnightblue" stroke="midnightblue" points="174.7,-373.9 164.24,-375.53 173.44,-380.78 174.7,-373.9"/>
</g>
<!-- Node4 -->
<g id="node4" class="node">
<title>Node4</title>
<g id="a_node4"><a xlink:title=" ">
<polygon fill="none" stroke="#bfbfbf" points="582,-123.5 582,-142.5 620,-142.5 620,-123.5 582,-123.5"/>
<text text-anchor="middle" x="601" y="-130.5" font-family="Helvetica,sans-Serif" font-size="10.00">map</text>
</a>
</g>
</g>
<!-- Node1&#45;&gt;Node4 -->
<g id="edge3" class="edge">
<title>Node1&#45;&gt;Node4</title>
<path fill="none" stroke="midnightblue" d="M601,-414.28C601,-392.48 601,-349.49 601,-313 601,-313 601,-313 601,-255 601,-218.71 601,-176.31 601,-152.56"/>
<polygon fill="midnightblue" stroke="midnightblue" points="604.5,-152.51 601,-142.51 597.5,-152.51 604.5,-152.51"/>
</g>
<!-- Node5 -->
<g id="node5" class="node">
<title>Node5</title>
<g id="a_node5"><a xlink:href="crystal_8h.html" target="_top" xlink:title=" ">
<polygon fill="none" stroke="black" points="1268,-302.5 1268,-321.5 1382,-321.5 1382,-302.5 1268,-302.5"/>
<text text-anchor="middle" x="1325" y="-309.5" font-family="Helvetica,sans-Serif" font-size="10.00">occ/crystal/crystal.h</text>
</a>
</g>
</g>
<!-- Node1&#45;&gt;Node5 -->
<g id="edge4" class="edge">
<title>Node1&#45;&gt;Node5</title>
<path fill="none" stroke="midnightblue" d="M681.25,-415.7C826.39,-392.54 1129.68,-344.16 1261.53,-323.13"/>
<polygon fill="midnightblue" stroke="midnightblue" points="1262.15,-326.57 1271.48,-321.54 1261.05,-319.66 1262.15,-326.57"/>
</g>
<!-- Node21 -->
<g id="node21" class="node">
<title>Node21</title>
<g id="a_node21"><a xlink:title=" ">
<polygon fill="none" stroke="#bfbfbf" points="1002,-67.5 1002,-86.5 1046,-86.5 1046,-67.5 1002,-67.5"/>
<text text-anchor="middle" x="1024" y="-74.5" font-family="Helvetica,sans-Serif" font-size="10.00">string</text>
</a>
</g>
</g>
<!-- Node1&#45;&gt;Node21 -->
<g id="edge79" class="edge">
<title>Node1&#45;&gt;Node21</title>
<path fill="none" stroke="midnightblue" d="M520.68,-422.2C401.57,-410.61 192,-380.6 192,-313 192,-313 192,-313 192,-193.5 192,-161.05 185.8,-143.44 211,-123 241.83,-98 844.51,-82.23 991.75,-78.74"/>
<polygon fill="midnightblue" stroke="midnightblue" points="992.02,-82.23 1001.94,-78.5 991.86,-75.23 992.02,-82.23"/>
</g>
<!-- Node39 -->
<g id="node39" class="node">
<title>Node39</title>
<g id="a_node39"><a xlink:href="occ__input_8h.html" target="_top" xlink:title=" ">
<polygon fill="none" stroke="black" points="1568,-358.5 1568,-377.5 1672,-377.5 1672,-358.5 1568,-358.5"/>
<text text-anchor="middle" x="1620" y="-365.5" font-family="Helvetica,sans-Serif" font-size="10.00">occ/io/occ_input.h</text>
</a>
</g>
</g>
<!-- Node1&#45;&gt;Node39 -->
<g id="edge61" class="edge">
<title>Node1&#45;&gt;Node39</title>
<path fill="none" stroke="midnightblue" d="M681.38,-423.81C878.25,-412.31 1381.29,-382.94 1557.72,-372.64"/>
<polygon fill="midnightblue" stroke="midnightblue" points="1558.09,-376.12 1567.87,-372.04 1557.68,-369.13 1558.09,-376.12"/>
</g>
<!-- Node45 -->
<g id="node45" class="node">
<title>Node45</title>
<g id="a_node45"><a xlink:title=" ">
<polygon fill="none" stroke="#bfbfbf" points="1690,-358.5 1690,-377.5 1734,-377.5 1734,-358.5 1690,-358.5"/>
<text text-anchor="middle" x="1712" y="-365.5" font-family="Helvetica,sans-Serif" font-size="10.00">regex</text>
</a>
</g>
</g>
<!-- Node1&#45;&gt;Node45 -->
<g id="edge78" class="edge">
<title>Node1&#45;&gt;Node45</title>
<path fill="none" stroke="midnightblue" d="M681.14,-427.2C893.76,-423.37 1469.7,-410.38 1679.77,-377.75"/>
<polygon fill="midnightblue" stroke="midnightblue" points="1680.48,-381.18 1689.79,-376.13 1679.36,-374.27 1680.48,-381.18"/>
</g>
<!-- Node6 -->
<g id="node6" class="node">
<title>Node6</title>
<g id="a_node6"><a xlink:href="bondgraph_8h.html" target="_top" xlink:title=" ">
<polygon fill="none" stroke="black" points="781.5,-246.5 781.5,-265.5 902.5,-265.5 902.5,-246.5 781.5,-246.5"/>
<text text-anchor="middle" x="842" y="-253.5" font-family="Helvetica,sans-Serif" font-size="10.00">occ/core/bondgraph.h</text>
</a>
</g>
</g>
<!-- Node5&#45;&gt;Node6 -->
<g id="edge5" class="edge">
<title>Node5&#45;&gt;Node6</title>
<path fill="none" stroke="midnightblue" d="M1267.7,-304.59C1179.09,-294.69 1009.04,-275.68 912.85,-264.92"/>
<polygon fill="midnightblue" stroke="midnightblue" points="912.97,-261.41 902.64,-263.78 912.19,-268.37 912.97,-261.41"/>
</g>
<!-- Node12 -->
<g id="node12" class="node">
<title>Node12</title>
<g id="a_node12"><a xlink:href="dimer_8h.html" target="_top" xlink:title=" ">
<polygon fill="none" stroke="black" points="1276.5,-246.5 1276.5,-265.5 1373.5,-265.5 1373.5,-246.5 1276.5,-246.5"/>
<text text-anchor="middle" x="1325" y="-253.5" font-family="Helvetica,sans-Serif" font-size="10.00">occ/core/dimer.h</text>
</a>
</g>
</g>
<!-- Node5&#45;&gt;Node12 -->
<g id="edge11" class="edge">
<title>Node5&#45;&gt;Node12</title>
<path fill="none" stroke="midnightblue" d="M1325,-302.08C1325,-295.01 1325,-284.86 1325,-275.99"/>
<polygon fill="midnightblue" stroke="midnightblue" points="1328.5,-275.75 1325,-265.75 1321.5,-275.75 1328.5,-275.75"/>
</g>
<!-- Node13 -->
<g id="node13" class="node">
<title>Node13</title>
<g id="a_node13"><a xlink:href="molecule_8h.html" target="_top" xlink:title=" ">
<polygon fill="none" stroke="black" points="1298,-185 1298,-204 1412,-204 1412,-185 1298,-185"/>
<text text-anchor="middle" x="1355" y="-192" font-family="Helvetica,sans-Serif" font-size="10.00">occ/core/molecule.h</text>
</a>
</g>
</g>
<!-- Node5&#45;&gt;Node13 -->
<g id="edge26" class="edge">
<title>Node5&#45;&gt;Node13</title>
<path fill="none" stroke="midnightblue" d="M1343.39,-302.47C1357.1,-295 1374.81,-282.71 1383,-266 1391.73,-248.17 1380.48,-226.9 1369.74,-212.42"/>
<polygon fill="midnightblue" stroke="midnightblue" points="1372.29,-210 1363.31,-204.37 1366.82,-214.37 1372.29,-210"/>
</g>
<!-- Node16 -->
<g id="node16" class="node">
<title>Node16</title>
<g id="a_node16"><a xlink:href="linear__algebra_8h.html" target="_top" xlink:title=" ">
<polygon fill="none" stroke="black" points="1541.5,-67.5 1541.5,-86.5 1680.5,-86.5 1680.5,-67.5 1541.5,-67.5"/>
<text text-anchor="middle" x="1611" y="-74.5" font-family="Helvetica,sans-Serif" font-size="10.00">occ/core/linear_algebra.h</text>
</a>
</g>
</g>
<!-- Node5&#45;&gt;Node16 -->
<g id="edge25" class="edge">
<title>Node5&#45;&gt;Node16</title>
<path fill="none" stroke="midnightblue" d="M1345.67,-302.49C1361.77,-294.96 1383.72,-282.59 1398,-266 1443.08,-213.64 1407.41,-168.96 1459,-123 1478.96,-105.22 1505.64,-94.46 1531.08,-87.94"/>
<polygon fill="midnightblue" stroke="midnightblue" points="1532.21,-91.27 1541.13,-85.57 1530.59,-84.46 1532.21,-91.27"/>
</g>
<!-- Node22 -->
<g id="node22" class="node">
<title>Node22</title>
<g id="a_node22"><a xlink:title=" ">
<polygon fill="none" stroke="#bfbfbf" points="1302.5,-67.5 1302.5,-86.5 1349.5,-86.5 1349.5,-67.5 1302.5,-67.5"/>
<text text-anchor="middle" x="1326" y="-74.5" font-family="Helvetica,sans-Serif" font-size="10.00">vector</text>
</a>
</g>
</g>
<!-- Node5&#45;&gt;Node22 -->
<g id="edge60" class="edge">
<title>Node5&#45;&gt;Node22</title>
<path fill="none" stroke="midnightblue" d="M1306.92,-302.39C1293.44,-294.87 1276.03,-282.57 1268,-266 1264.12,-258 1266.66,-254.79 1268,-246 1276.69,-189.25 1303.38,-126.25 1317.32,-96.06"/>
<polygon fill="midnightblue" stroke="midnightblue" points="1320.58,-97.35 1321.67,-86.81 1314.25,-94.37 1320.58,-97.35"/>
</g>
<!-- Node24 -->
<g id="node24" class="node">
<title>Node24</title>
<g id="a_node24"><a xlink:href="asymmetric__unit_8h.html" target="_top" xlink:title=" ">
<polygon fill="none" stroke="black" points="1110.5,-179.5 1110.5,-209.5 1241.5,-209.5 1241.5,-179.5 1110.5,-179.5"/>
<text text-anchor="start" x="1118.5" y="-197.5" font-family="Helvetica,sans-Serif" font-size="10.00">occ/crystal/asymmetric</text>
<text text-anchor="middle" x="1176" y="-186.5" font-family="Helvetica,sans-Serif" font-size="10.00">_unit.h</text>
</a>
</g>
</g>
<!-- Node5&#45;&gt;Node24 -->
<g id="edge27" class="edge">
<title>Node5&#45;&gt;Node24</title>
<path fill="none" stroke="midnightblue" d="M1300.99,-302.39C1281.65,-294.72 1254.43,-282.21 1234,-266 1216.88,-252.41 1201.37,-233 1190.7,-217.98"/>
<polygon fill="midnightblue" stroke="midnightblue" points="1193.57,-215.97 1185.01,-209.73 1187.81,-219.95 1193.57,-215.97"/>
</g>
<!-- Node25 -->
<g id="node25" class="node">
<title>Node25</title>
<g id="a_node25"><a xlink:href="hkl_8h.html" target="_top" xlink:title=" ">
<polygon fill="none" stroke="black" points="1468,-123.5 1468,-142.5 1564,-142.5 1564,-123.5 1468,-123.5"/>
<text text-anchor="middle" x="1516" y="-130.5" font-family="Helvetica,sans-Serif" font-size="10.00">occ/crystal/hkl.h</text>
</a>
</g>
</g>
<!-- Node5&#45;&gt;Node25 -->
<g id="edge32" class="edge">
<title>Node5&#45;&gt;Node25</title>
<path fill="none" stroke="midnightblue" d="M1377.96,-302.45C1403.44,-296.05 1432.95,-284.98 1454,-266 1463.12,-257.78 1494,-186.26 1508.44,-152.06"/>
<polygon fill="midnightblue" stroke="midnightblue" points="1511.7,-153.34 1512.35,-142.76 1505.25,-150.62 1511.7,-153.34"/>
</g>
<!-- Node26 -->
<g id="node26" class="node">
<title>Node26</title>
<g id="a_node26"><a xlink:href="spacegroup_8h.html" target="_top" xlink:title=" ">
<polygon fill="none" stroke="black" points="877.5,-185 877.5,-204 1014.5,-204 1014.5,-185 877.5,-185"/>
<text text-anchor="middle" x="946" y="-192" font-family="Helvetica,sans-Serif" font-size="10.00">occ/crystal/spacegroup.h</text>
</a>
</g>
</g>
<!-- Node5&#45;&gt;Node26 -->
<g id="edge34" class="edge">
<title>Node5&#45;&gt;Node26</title>
<path fill="none" stroke="midnightblue" d="M1296.82,-302.41C1229.59,-281.92 1059.74,-230.16 983.75,-207.01"/>
<polygon fill="midnightblue" stroke="midnightblue" points="984.69,-203.63 974.1,-204.06 982.65,-210.33 984.69,-203.63"/>
</g>
<!-- Node29 -->
<g id="node29" class="node">
<title>Node29</title>
<g id="a_node29"><a xlink:href="unitcell_8h.html" target="_top" xlink:title=" ">
<polygon fill="none" stroke="black" points="1506.5,-185 1506.5,-204 1623.5,-204 1623.5,-185 1506.5,-185"/>
<text text-anchor="middle" x="1565" y="-192" font-family="Helvetica,sans-Serif" font-size="10.00">occ/crystal/unitcell.h</text>
</a>
</g>
</g>
<!-- Node5&#45;&gt;Node29 -->
<g id="edge44" class="edge">
<title>Node5&#45;&gt;Node29</title>
<path fill="none" stroke="midnightblue" d="M1382.25,-302.94C1415.83,-296.46 1458.17,-285.17 1492,-266 1516.31,-252.22 1538.52,-228.45 1551.9,-212.36"/>
<polygon fill="midnightblue" stroke="midnightblue" points="1554.83,-214.3 1558.38,-204.32 1549.38,-209.91 1554.83,-214.3"/>
</g>
<!-- Node7 -->
<g id="node7" class="node">
<title>Node7</title>
<g id="a_node7"><a xlink:href="graph_8h.html" target="_top" xlink:title=" ">
<polygon fill="none" stroke="black" points="419.5,-185 419.5,-204 516.5,-204 516.5,-185 419.5,-185"/>
<text text-anchor="middle" x="468" y="-192" font-family="Helvetica,sans-Serif" font-size="10.00">occ/core/graph.h</text>
</a>
</g>
</g>
<!-- Node6&#45;&gt;Node7 -->
<g id="edge6" class="edge">
<title>Node6&#45;&gt;Node7</title>
<path fill="none" stroke="midnightblue" d="M788.41,-246.48C719.11,-235.45 598.79,-216.31 526.96,-204.88"/>
<polygon fill="midnightblue" stroke="midnightblue" points="527.15,-201.37 516.73,-203.25 526.05,-208.28 527.15,-201.37"/>
</g>
<!-- Node8 -->
<g id="node8" class="node">
<title>Node8</title>
<g id="a_node8"><a xlink:title=" ">
<polygon fill="none" stroke="#bfbfbf" points="220.5,-123.5 220.5,-142.5 363.5,-142.5 363.5,-123.5 220.5,-123.5"/>
<text text-anchor="middle" x="292" y="-130.5" font-family="Helvetica,sans-Serif" font-size="10.00">ankerl/unordered_dense.h</text>
</a>
</g>
</g>
<!-- Node7&#45;&gt;Node8 -->
<g id="edge7" class="edge">
<title>Node7&#45;&gt;Node8</title>
<path fill="none" stroke="midnightblue" d="M442.78,-184.98C412.33,-174.68 360.95,-157.31 326.76,-145.75"/>
<polygon fill="midnightblue" stroke="midnightblue" points="327.76,-142.4 317.17,-142.51 325.52,-149.03 327.76,-142.4"/>
</g>
<!-- Node9 -->
<g id="node9" class="node">
<title>Node9</title>
<g id="a_node9"><a xlink:title=" ">
<polygon fill="none" stroke="#bfbfbf" points="508,-123.5 508,-142.5 564,-142.5 564,-123.5 508,-123.5"/>
<text text-anchor="middle" x="536" y="-130.5" font-family="Helvetica,sans-Serif" font-size="10.00">optional</text>
</a>
</g>
</g>
<!-- Node7&#45;&gt;Node9 -->
<g id="edge8" class="edge">
<title>Node7&#45;&gt;Node9</title>
<path fill="none" stroke="midnightblue" d="M477.74,-184.98C488.35,-175.7 505.52,-160.67 518.48,-149.33"/>
<polygon fill="midnightblue" stroke="midnightblue" points="521.05,-151.73 526.28,-142.51 516.44,-146.46 521.05,-151.73"/>
</g>
<!-- Node10 -->
<g id="node10" class="node">
<title>Node10</title>
<g id="a_node10"><a xlink:title=" ">
<polygon fill="none" stroke="#bfbfbf" points="381.5,-123.5 381.5,-142.5 428.5,-142.5 428.5,-123.5 381.5,-123.5"/>
<text text-anchor="middle" x="405" y="-130.5" font-family="Helvetica,sans-Serif" font-size="10.00">queue</text>
</a>
</g>
</g>
<!-- Node7&#45;&gt;Node10 -->
<g id="edge9" class="edge">
<title>Node7&#45;&gt;Node10</title>
<path fill="none" stroke="midnightblue" d="M458.97,-184.98C449.24,-175.78 433.54,-160.96 421.58,-149.66"/>
<polygon fill="midnightblue" stroke="midnightblue" points="423.68,-146.83 414.01,-142.51 418.88,-151.92 423.68,-146.83"/>
</g>
<!-- Node11 -->
<g id="node11" class="node">
<title>Node11</title>
<g id="a_node11"><a xlink:title=" ">
<polygon fill="none" stroke="#bfbfbf" points="446.5,-123.5 446.5,-142.5 489.5,-142.5 489.5,-123.5 446.5,-123.5"/>
<text text-anchor="middle" x="468" y="-130.5" font-family="Helvetica,sans-Serif" font-size="10.00">stack</text>
</a>
</g>
</g>
<!-- Node7&#45;&gt;Node11 -->
<g id="edge10" class="edge">
<title>Node7&#45;&gt;Node11</title>
<path fill="none" stroke="midnightblue" d="M468,-184.98C468,-176.58 468,-163.48 468,-152.66"/>
<polygon fill="midnightblue" stroke="midnightblue" points="471.5,-152.51 468,-142.51 464.5,-152.51 471.5,-152.51"/>
</g>
<!-- Node12&#45;&gt;Node9 -->
<g id="edge24" class="edge">
<title>Node12&#45;&gt;Node9</title>
<path fill="none" stroke="midnightblue" d="M1276.38,-252.22C1192.59,-246.98 1015.75,-233.96 868,-210 760.41,-192.55 635.62,-160.83 574.19,-144.43"/>
<polygon fill="midnightblue" stroke="midnightblue" points="574.75,-140.96 564.18,-141.75 572.93,-147.72 574.75,-140.96"/>
</g>
<!-- Node12&#45;&gt;Node13 -->
<g id="edge12" class="edge">
<title>Node12&#45;&gt;Node13</title>
<path fill="none" stroke="midnightblue" d="M1329.3,-246.48C1333.66,-237.82 1340.56,-224.15 1346.1,-213.15"/>
<polygon fill="midnightblue" stroke="midnightblue" points="1349.33,-214.51 1350.71,-204.01 1343.08,-211.36 1349.33,-214.51"/>
</g>
<!-- Node14 -->
<g id="node14" class="node">
<title>Node14</title>
<g id="a_node14"><a xlink:title=" ">
<polygon fill="none" stroke="#bfbfbf" points="1922,-123.5 1922,-142.5 1964,-142.5 1964,-123.5 1922,-123.5"/>
<text text-anchor="middle" x="1943" y="-130.5" font-family="Helvetica,sans-Serif" font-size="10.00">array</text>
</a>
</g>
</g>
<!-- Node13&#45;&gt;Node14 -->
<g id="edge13" class="edge">
<title>Node13&#45;&gt;Node14</title>
<path fill="none" stroke="midnightblue" d="M1412.04,-187.52C1438.22,-184.83 1469.68,-181.66 1498,-179 1679.08,-161.97 1729.4,-177.23 1911.9,-142.83"/>
<polygon fill="midnightblue" stroke="midnightblue" points="1912.66,-146.25 1921.83,-140.94 1911.35,-139.37 1912.66,-146.25"/>
</g>
<!-- Node15 -->
<g id="node15" class="node">
<title>Node15</title>
<g id="a_node15"><a xlink:href="atom_8h.html" target="_top" xlink:title=" ">
<polygon fill="none" stroke="black" points="1658.5,-123.5 1658.5,-142.5 1753.5,-142.5 1753.5,-123.5 1658.5,-123.5"/>
<text text-anchor="middle" x="1706" y="-130.5" font-family="Helvetica,sans-Serif" font-size="10.00">occ/core/atom.h</text>
</a>
</g>
</g>
<!-- Node13&#45;&gt;Node15 -->
<g id="edge14" class="edge">
<title>Node13&#45;&gt;Node15</title>
<path fill="none" stroke="midnightblue" d="M1405.29,-184.98C1469.57,-174.08 1580.6,-155.26 1648.27,-143.79"/>
<polygon fill="midnightblue" stroke="midnightblue" points="1649.06,-147.2 1658.34,-142.08 1647.89,-140.3 1649.06,-147.2"/>
</g>
<!-- Node13&#45;&gt;Node16 -->
<g id="edge22" class="edge">
<title>Node13&#45;&gt;Node16</title>
<path fill="none" stroke="midnightblue" d="M1361.34,-184.6C1372.57,-169.49 1397.5,-138.95 1426,-123 1458.16,-105 1497.4,-94.14 1531.45,-87.62"/>
<polygon fill="midnightblue" stroke="midnightblue" points="1532.16,-91.05 1541.37,-85.82 1530.9,-84.16 1532.16,-91.05"/>
</g>
<!-- Node20 -->
<g id="node20" class="node">
<title>Node20</title>
<g id="a_node20"><a xlink:href="element_8h.html" target="_top" xlink:title=" ">
<polygon fill="none" stroke="black" points="1150,-123.5 1150,-142.5 1260,-142.5 1260,-123.5 1150,-123.5"/>
<text text-anchor="middle" x="1205" y="-130.5" font-family="Helvetica,sans-Serif" font-size="10.00">occ/core/element.h</text>
</a>
</g>
</g>
<!-- Node13&#45;&gt;Node20 -->
<g id="edge19" class="edge">
<title>Node13&#45;&gt;Node20</title>
<path fill="none" stroke="midnightblue" d="M1333.51,-184.98C1307.89,-174.81 1264.89,-157.76 1235.76,-146.2"/>
<polygon fill="midnightblue" stroke="midnightblue" points="1237.04,-142.94 1226.45,-142.51 1234.46,-149.45 1237.04,-142.94"/>
</g>
<!-- Node23 -->
<g id="node23" class="node">
<title>Node23</title>
<g id="a_node23"><a xlink:title=" ">
<polygon fill="none" stroke="#bfbfbf" points="1090.5,-123.5 1090.5,-142.5 1131.5,-142.5 1131.5,-123.5 1090.5,-123.5"/>
<text text-anchor="middle" x="1111" y="-130.5" font-family="Helvetica,sans-Serif" font-size="10.00">tuple</text>
</a>
</g>
</g>
<!-- Node13&#45;&gt;Node23 -->
<g id="edge23" class="edge">
<title>Node13&#45;&gt;Node23</title>
<path fill="none" stroke="midnightblue" d="M1315.77,-184.98C1274.74,-175.91 1208.26,-160.75 1141.46,-143"/>
<polygon fill="midnightblue" stroke="midnightblue" points="1142.18,-139.56 1131.61,-140.36 1140.37,-146.33 1142.18,-139.56"/>
</g>
<!-- Node15&#45;&gt;Node16 -->
<g id="edge15" class="edge">
<title>Node15&#45;&gt;Node16</title>
<path fill="none" stroke="midnightblue" d="M1690.74,-123.32C1675.78,-114.82 1652.75,-101.73 1635.27,-91.8"/>
<polygon fill="midnightblue" stroke="midnightblue" points="1636.65,-88.55 1626.23,-86.65 1633.19,-94.64 1636.65,-88.55"/>
</g>
<!-- Node17 -->
<g id="node17" class="node">
<title>Node17</title>
<g id="a_node17"><a xlink:title=" ">
<polygon fill="none" stroke="#bfbfbf" points="1469.5,-6 1469.5,-25 1546.5,-25 1546.5,-6 1469.5,-6"/>
<text text-anchor="middle" x="1508" y="-13" font-family="Helvetica,sans-Serif" font-size="10.00">Eigen/Dense</text>
</a>
</g>
</g>
<!-- Node16&#45;&gt;Node17 -->
<g id="edge16" class="edge">
<title>Node16&#45;&gt;Node17</title>
<path fill="none" stroke="midnightblue" d="M1596.24,-67.48C1579.34,-57.71 1551.42,-41.58 1531.51,-30.08"/>
<polygon fill="midnightblue" stroke="midnightblue" points="1533.14,-26.98 1522.73,-25.01 1529.64,-33.04 1533.14,-26.98"/>
</g>
<!-- Node18 -->
<g id="node18" class="node">
<title>Node18</title>
<g id="a_node18"><a xlink:title=" ">
<polygon fill="none" stroke="#bfbfbf" points="1564.5,-6 1564.5,-25 1657.5,-25 1657.5,-6 1564.5,-6"/>
<text text-anchor="middle" x="1611" y="-13" font-family="Helvetica,sans-Serif" font-size="10.00">Eigen/StdVector</text>
</a>
</g>
</g>
<!-- Node16&#45;&gt;Node18 -->
<g id="edge17" class="edge">
<title>Node16&#45;&gt;Node18</title>
<path fill="none" stroke="midnightblue" d="M1611,-67.48C1611,-59.08 1611,-45.98 1611,-35.16"/>
<polygon fill="midnightblue" stroke="midnightblue" points="1614.5,-35.01 1611,-25.01 1607.5,-35.01 1614.5,-35.01"/>
</g>
<!-- Node19 -->
<g id="node19" class="node">
<title>Node19</title>
<g id="a_node19"><a xlink:title=" ">
<polygon fill="none" stroke="#bfbfbf" points="1675.5,-0.5 1675.5,-30.5 1782.5,-30.5 1782.5,-0.5 1675.5,-0.5"/>
<text text-anchor="start" x="1683.5" y="-18.5" font-family="Helvetica,sans-Serif" font-size="10.00">occ/3rdparty/eigen</text>
<text text-anchor="middle" x="1729" y="-7.5" font-family="Helvetica,sans-Serif" font-size="10.00">&#45;fmt/fmt.h</text>
</a>
</g>
</g>
<!-- Node16&#45;&gt;Node19 -->
<g id="edge18" class="edge">
<title>Node16&#45;&gt;Node19</title>
<path fill="none" stroke="midnightblue" d="M1627.91,-67.48C1644.56,-59.08 1670.55,-45.97 1692.01,-35.15"/>
<polygon fill="midnightblue" stroke="midnightblue" points="1693.84,-38.15 1701.19,-30.52 1690.68,-31.9 1693.84,-38.15"/>
</g>
<!-- Node20&#45;&gt;Node21 -->
<g id="edge20" class="edge">
<title>Node20&#45;&gt;Node21</title>
<path fill="none" stroke="midnightblue" d="M1176.32,-123.44C1143.62,-113.69 1090.29,-97.78 1056.19,-87.6"/>
<polygon fill="midnightblue" stroke="midnightblue" points="1056.85,-84.15 1046.27,-84.64 1054.85,-90.86 1056.85,-84.15"/>
</g>
<!-- Node20&#45;&gt;Node22 -->
<g id="edge21" class="edge">
<title>Node20&#45;&gt;Node22</title>
<path fill="none" stroke="midnightblue" d="M1224.17,-123.44C1243.91,-114.64 1274.89,-100.81 1297.49,-90.72"/>
<polygon fill="midnightblue" stroke="midnightblue" points="1299.21,-93.79 1306.92,-86.52 1296.36,-87.4 1299.21,-93.79"/>
</g>
<!-- Node24&#45;&gt;Node16 -->
<g id="edge29" class="edge">
<title>Node24&#45;&gt;Node16</title>
<path fill="none" stroke="midnightblue" d="M1215.19,-179.49C1258.72,-164.26 1331.28,-139.84 1395,-123 1447.91,-109.01 1509.04,-96.62 1552.73,-88.4"/>
<polygon fill="midnightblue" stroke="midnightblue" points="1553.43,-91.83 1562.62,-86.56 1552.14,-84.95 1553.43,-91.83"/>
</g>
<!-- Node24&#45;&gt;Node20 -->
<g id="edge28" class="edge">
<title>Node24&#45;&gt;Node20</title>
<path fill="none" stroke="midnightblue" d="M1182.87,-179.4C1186.91,-171.11 1192.06,-160.55 1196.37,-151.71"/>
<polygon fill="midnightblue" stroke="midnightblue" points="1199.55,-153.18 1200.78,-142.66 1193.25,-150.11 1199.55,-153.18"/>
</g>
<!-- Node24&#45;&gt;Node21 -->
<g id="edge30" class="edge">
<title>Node24&#45;&gt;Node21</title>
<path fill="none" stroke="midnightblue" d="M1143.41,-179.47C1124.49,-170.5 1100.77,-157.8 1082,-143 1064.27,-129.02 1047.49,-109.24 1036.59,-95.18"/>
<polygon fill="midnightblue" stroke="midnightblue" points="1039.14,-92.75 1030.32,-86.88 1033.56,-96.97 1039.14,-92.75"/>
</g>
<!-- Node24&#45;&gt;Node22 -->
<g id="edge31" class="edge">
<title>Node24&#45;&gt;Node22</title>
<path fill="none" stroke="midnightblue" d="M1208.28,-179.47C1227.01,-170.5 1250.48,-157.8 1269,-143 1286.51,-129.01 1302.98,-109.23 1313.67,-95.17"/>
<polygon fill="midnightblue" stroke="midnightblue" points="1316.67,-97 1319.81,-86.88 1311.05,-92.83 1316.67,-97"/>
</g>
<!-- Node25&#45;&gt;Node16 -->
<g id="edge33" class="edge">
<title>Node25&#45;&gt;Node16</title>
<path fill="none" stroke="midnightblue" d="M1531.26,-123.32C1546.22,-114.82 1569.25,-101.73 1586.73,-91.8"/>
<polygon fill="midnightblue" stroke="midnightblue" points="1588.81,-94.64 1595.77,-86.65 1585.35,-88.55 1588.81,-94.64"/>
</g>
<!-- Node26&#45;&gt;Node4 -->
<g id="edge36" class="edge">
<title>Node26&#45;&gt;Node4</title>
<path fill="none" stroke="midnightblue" d="M880.79,-184.99C817.41,-176.24 718.6,-161.33 634,-143 632.73,-142.72 631.43,-142.43 630.12,-142.12"/>
<polygon fill="midnightblue" stroke="midnightblue" points="630.66,-138.65 620.11,-139.58 628.94,-145.43 630.66,-138.65"/>
</g>
<!-- Node26&#45;&gt;Node21 -->
<g id="edge41" class="edge">
<title>Node26&#45;&gt;Node21</title>
<path fill="none" stroke="midnightblue" d="M877.17,-190.83C803.39,-186.35 693.27,-174.45 667,-143 661.3,-136.18 661.12,-129.67 667,-123 688.35,-98.79 907.94,-84.34 991.74,-79.67"/>
<polygon fill="midnightblue" stroke="midnightblue" points="992.16,-83.15 1001.95,-79.11 991.78,-76.16 992.16,-83.15"/>
</g>
<!-- Node26&#45;&gt;Node22 -->
<g id="edge43" class="edge">
<title>Node26&#45;&gt;Node22</title>
<path fill="none" stroke="midnightblue" d="M959.3,-184.89C982.98,-169.96 1034.45,-139.3 1082,-123 1154.54,-98.13 1244.2,-86.09 1292.08,-81.06"/>
<polygon fill="midnightblue" stroke="midnightblue" points="1292.6,-84.52 1302.2,-80.04 1291.9,-77.56 1292.6,-84.52"/>
</g>
<!-- Node26&#45;&gt;Node23 -->
<g id="edge42" class="edge">
<title>Node26&#45;&gt;Node23</title>
<path fill="none" stroke="midnightblue" d="M969.64,-184.98C998.83,-174.45 1048.53,-156.53 1080.54,-144.98"/>
<polygon fill="midnightblue" stroke="midnightblue" points="1082.05,-148.16 1090.27,-141.47 1079.68,-141.57 1082.05,-148.16"/>
</g>
<!-- Node26&#45;&gt;Node25 -->
<g id="edge37" class="edge">
<title>Node26&#45;&gt;Node25</title>
<path fill="none" stroke="midnightblue" d="M1014.76,-186.32C1127.95,-174.51 1351.53,-151.17 1457.57,-140.1"/>
<polygon fill="midnightblue" stroke="midnightblue" points="1458.18,-143.55 1467.76,-139.04 1457.45,-136.59 1458.18,-143.55"/>
</g>
<!-- Node27 -->
<g id="node27" class="node">
<title>Node27</title>
<g id="a_node27"><a xlink:title=" ">
<polygon fill="none" stroke="#bfbfbf" points="676,-123.5 676,-142.5 800,-142.5 800,-123.5 676,-123.5"/>
<text text-anchor="middle" x="738" y="-130.5" font-family="Helvetica,sans-Serif" font-size="10.00">gemmi/symmetry.hpp</text>
</a>
</g>
</g>
<!-- Node26&#45;&gt;Node27 -->
<g id="edge35" class="edge">
<title>Node26&#45;&gt;Node27</title>
<path fill="none" stroke="midnightblue" d="M916.2,-184.98C879.75,-174.55 817.92,-156.86 777.53,-145.31"/>
<polygon fill="midnightblue" stroke="midnightblue" points="778.32,-141.89 767.75,-142.51 776.4,-148.62 778.32,-141.89"/>
</g>
<!-- Node28 -->
<g id="node28" class="node">
<title>Node28</title>
<g id="a_node28"><a xlink:href="symmetryoperation_8h.html" target="_top" xlink:title=" ">
<polygon fill="none" stroke="black" points="818,-123.5 818,-142.5 996,-142.5 996,-123.5 818,-123.5"/>
<text text-anchor="middle" x="907" y="-130.5" font-family="Helvetica,sans-Serif" font-size="10.00">occ/crystal/symmetryoperation.h</text>
</a>
</g>
</g>
<!-- Node26&#45;&gt;Node28 -->
<g id="edge38" class="edge">
<title>Node26&#45;&gt;Node28</title>
<path fill="none" stroke="midnightblue" d="M940.41,-184.98C934.62,-176.14 925.41,-162.09 918.13,-150.98"/>
<polygon fill="midnightblue" stroke="midnightblue" points="920.99,-148.95 912.58,-142.51 915.13,-152.79 920.99,-148.95"/>
</g>
<!-- Node28&#45;&gt;Node16 -->
<g id="edge39" class="edge">
<title>Node28&#45;&gt;Node16</title>
<path fill="none" stroke="midnightblue" d="M996.16,-125.16C1134.54,-114.55 1398.83,-94.27 1531.24,-84.12"/>
<polygon fill="midnightblue" stroke="midnightblue" points="1531.62,-87.6 1541.32,-83.34 1531.08,-80.62 1531.62,-87.6"/>
</g>
<!-- Node28&#45;&gt;Node21 -->
<g id="edge40" class="edge">
<title>Node28&#45;&gt;Node21</title>
<path fill="none" stroke="midnightblue" d="M925.54,-123.44C944.62,-114.64 974.57,-100.81 996.44,-90.72"/>
<polygon fill="midnightblue" stroke="midnightblue" points="997.93,-93.88 1005.55,-86.52 995,-87.53 997.93,-93.88"/>
</g>
<!-- Node29&#45;&gt;Node16 -->
<g id="edge45" class="edge">
<title>Node29&#45;&gt;Node16</title>
<path fill="none" stroke="midnightblue" d="M1623.76,-186.48C1675.76,-178.91 1745.97,-164.92 1763,-143 1787.79,-111.09 1739.33,-94.62 1690.7,-86.26"/>
<polygon fill="midnightblue" stroke="midnightblue" points="1691.1,-82.77 1680.67,-84.64 1689.99,-89.69 1691.1,-82.77"/>
</g>
<!-- Node29&#45;&gt;Node21 -->
<g id="edge59" class="edge">
<title>Node29&#45;&gt;Node21</title>
<path fill="none" stroke="midnightblue" d="M1569.72,-184.82C1577.02,-170.07 1588.69,-140.03 1573,-123 1555.38,-103.88 1171.47,-84.77 1056.35,-79.45"/>
<polygon fill="midnightblue" stroke="midnightblue" points="1056.21,-75.94 1046.06,-78.98 1055.89,-82.93 1056.21,-75.94"/>
</g>
<!-- Node29&#45;&gt;Node25 -->
<g id="edge58" class="edge">
<title>Node29&#45;&gt;Node25</title>
<path fill="none" stroke="midnightblue" d="M1557.98,-184.98C1550.56,-175.96 1538.67,-161.52 1529.43,-150.31"/>
<polygon fill="midnightblue" stroke="midnightblue" points="1532.07,-148 1523.01,-142.51 1526.66,-152.45 1532.07,-148"/>
</g>
<!-- Node30 -->
<g id="node30" class="node">
<title>Node30</title>
<g id="a_node30"><a xlink:href="units_8h.html" target="_top" xlink:title=" ">
<polygon fill="none" stroke="black" points="1810.5,-123.5 1810.5,-142.5 1903.5,-142.5 1903.5,-123.5 1810.5,-123.5"/>
<text text-anchor="middle" x="1857" y="-130.5" font-family="Helvetica,sans-Serif" font-size="10.00">occ/core/units.h</text>
</a>
</g>
</g>
<!-- Node29&#45;&gt;Node30 -->
<g id="edge46" class="edge">
<title>Node29&#45;&gt;Node30</title>
<path fill="none" stroke="midnightblue" d="M1606.84,-184.98C1659.2,-174.3 1748.87,-156.03 1805.43,-144.51"/>
<polygon fill="midnightblue" stroke="midnightblue" points="1806.14,-147.94 1815.24,-142.51 1804.74,-141.08 1806.14,-147.94"/>
</g>
<!-- Node32 -->
<g id="node32" class="node">
<title>Node32</title>
<g id="a_node32"><a xlink:href="util_8h.html" target="_top" xlink:title=" ">
<polygon fill="none" stroke="black" points="2058.5,-123.5 2058.5,-142.5 2143.5,-142.5 2143.5,-123.5 2058.5,-123.5"/>
<text text-anchor="middle" x="2101" y="-130.5" font-family="Helvetica,sans-Serif" font-size="10.00">occ/core/util.h</text>
</a>
</g>
</g>
<!-- Node29&#45;&gt;Node32 -->
<g id="edge48" class="edge">
<title>Node29&#45;&gt;Node32</title>
<path fill="none" stroke="midnightblue" d="M1623.64,-186.99C1728.71,-175.33 1947.48,-151.04 2048.18,-139.86"/>
<polygon fill="midnightblue" stroke="midnightblue" points="2048.87,-143.31 2058.42,-138.73 2048.1,-136.35 2048.87,-143.31"/>
</g>
<!-- Node31 -->
<g id="node31" class="node">
<title>Node31</title>
<g id="a_node31"><a xlink:title=" ">
<polygon fill="none" stroke="#bfbfbf" points="1833.5,-67.5 1833.5,-86.5 1880.5,-86.5 1880.5,-67.5 1833.5,-67.5"/>
<text text-anchor="middle" x="1857" y="-74.5" font-family="Helvetica,sans-Serif" font-size="10.00">cmath</text>
</a>
</g>
</g>
<!-- Node30&#45;&gt;Node31 -->
<g id="edge47" class="edge">
<title>Node30&#45;&gt;Node31</title>
<path fill="none" stroke="midnightblue" d="M1857,-123.08C1857,-116.01 1857,-105.86 1857,-96.99"/>
<polygon fill="midnightblue" stroke="midnightblue" points="1860.5,-96.75 1857,-86.75 1853.5,-96.75 1860.5,-96.75"/>
</g>
<!-- Node32&#45;&gt;Node16 -->
<g id="edge55" class="edge">
<title>Node32&#45;&gt;Node16</title>
<path fill="none" stroke="midnightblue" d="M2058.39,-125.02C2053.54,-124.3 2048.67,-123.61 2044,-123 1920.91,-106.9 1777.53,-92.93 1690.56,-84.99"/>
<polygon fill="midnightblue" stroke="midnightblue" points="1690.78,-81.5 1680.5,-84.08 1690.14,-88.47 1690.78,-81.5"/>
</g>
<!-- Node32&#45;&gt;Node21 -->
<g id="edge56" class="edge">
<title>Node32&#45;&gt;Node21</title>
<path fill="none" stroke="midnightblue" d="M2058.35,-128.76C2033.47,-126.93 2001.47,-124.68 1973,-123 1613.38,-101.83 1176.63,-84.03 1056.12,-79.26"/>
<polygon fill="midnightblue" stroke="midnightblue" points="1056.21,-75.76 1046.08,-78.86 1055.93,-82.75 1056.21,-75.76"/>
</g>
<!-- Node32&#45;&gt;Node22 -->
<g id="edge57" class="edge">
<title>Node32&#45;&gt;Node22</title>
<path fill="none" stroke="midnightblue" d="M2058.33,-128.99C2033.45,-127.24 2001.45,-124.99 1973,-123 1738.3,-106.59 1455.71,-86.99 1359.75,-80.34"/>
<polygon fill="midnightblue" stroke="midnightblue" points="1359.72,-76.83 1349.5,-79.63 1359.24,-83.81 1359.72,-76.83"/>
</g>
<!-- Node33 -->
<g id="node33" class="node">
<title>Node33</title>
<g id="a_node33"><a xlink:title=" ">
<polygon fill="none" stroke="#bfbfbf" points="2053,-67.5 2053,-86.5 2117,-86.5 2117,-67.5 2053,-67.5"/>
<text text-anchor="middle" x="2085" y="-74.5" font-family="Helvetica,sans-Serif" font-size="10.00">algorithm</text>
</a>
</g>
</g>
<!-- Node32&#45;&gt;Node33 -->
<g id="edge49" class="edge">
<title>Node32&#45;&gt;Node33</title>
<path fill="none" stroke="midnightblue" d="M2098.36,-123.08C2096.21,-115.85 2093.12,-105.41 2090.45,-96.4"/>
<polygon fill="midnightblue" stroke="midnightblue" points="2093.79,-95.34 2087.59,-86.75 2087.08,-97.33 2093.79,-95.34"/>
</g>
<!-- Node34 -->
<g id="node34" class="node">
<title>Node34</title>
<g id="a_node34"><a xlink:title=" ">
<polygon fill="none" stroke="#bfbfbf" points="2135.5,-67.5 2135.5,-86.5 2184.5,-86.5 2184.5,-67.5 2135.5,-67.5"/>
<text text-anchor="middle" x="2160" y="-74.5" font-family="Helvetica,sans-Serif" font-size="10.00">cctype</text>
</a>
</g>
</g>
<!-- Node32&#45;&gt;Node34 -->
<g id="edge50" class="edge">
<title>Node32&#45;&gt;Node34</title>
<path fill="none" stroke="midnightblue" d="M2110.48,-123.32C2119.2,-115.34 2132.34,-103.31 2142.9,-93.65"/>
<polygon fill="midnightblue" stroke="midnightblue" points="2145.33,-96.17 2150.35,-86.83 2140.61,-91 2145.33,-96.17"/>
</g>
<!-- Node35 -->
<g id="node35" class="node">
<title>Node35</title>
<g id="a_node35"><a xlink:title=" ">
<polygon fill="none" stroke="#bfbfbf" points="2202.5,-67.5 2202.5,-86.5 2269.5,-86.5 2269.5,-67.5 2202.5,-67.5"/>
<text text-anchor="middle" x="2236" y="-74.5" font-family="Helvetica,sans-Serif" font-size="10.00">fmt/core.h</text>
</a>
</g>
</g>
<!-- Node32&#45;&gt;Node35 -->
<g id="edge51" class="edge">
<title>Node32&#45;&gt;Node35</title>
<path fill="none" stroke="midnightblue" d="M2122.39,-123.44C2144.71,-114.52 2179.9,-100.44 2205.21,-90.32"/>
<polygon fill="midnightblue" stroke="midnightblue" points="2206.72,-93.48 2214.71,-86.52 2204.12,-86.98 2206.72,-93.48"/>
</g>
<!-- Node36 -->
<g id="node36" class="node">
<title>Node36</title>
<g id="a_node36"><a xlink:title=" ">
<polygon fill="none" stroke="#bfbfbf" points="2288,-67.5 2288,-86.5 2374,-86.5 2374,-67.5 2288,-67.5"/>
<text text-anchor="middle" x="2331" y="-74.5" font-family="Helvetica,sans-Serif" font-size="10.00">fmt/ostream.h</text>
</a>
</g>
</g>
<!-- Node32&#45;&gt;Node36 -->
<g id="edge52" class="edge">
<title>Node32&#45;&gt;Node36</title>
<path fill="none" stroke="midnightblue" d="M2137.44,-123.44C2177.4,-114.06 2241.59,-98.99 2284.98,-88.8"/>
<polygon fill="midnightblue" stroke="midnightblue" points="2285.79,-92.21 2294.73,-86.52 2284.19,-85.39 2285.79,-92.21"/>
</g>
<!-- Node37 -->
<g id="node37" class="node">
<title>Node37</title>
<g id="a_node37"><a xlink:title=" ">
<polygon fill="none" stroke="#bfbfbf" points="1915,-67.5 1915,-86.5 1961,-86.5 1961,-67.5 1915,-67.5"/>
<text text-anchor="middle" x="1938" y="-74.5" font-family="Helvetica,sans-Serif" font-size="10.00">locale</text>
</a>
</g>
</g>
<!-- Node32&#45;&gt;Node37 -->
<g id="edge53" class="edge">
<title>Node32&#45;&gt;Node37</title>
<path fill="none" stroke="midnightblue" d="M2075.17,-123.44C2046.94,-114.09 2001.65,-99.09 1970.9,-88.9"/>
<polygon fill="midnightblue" stroke="midnightblue" points="1971.66,-85.47 1961.07,-85.64 1969.46,-92.11 1971.66,-85.47"/>
</g>
<!-- Node38 -->
<g id="node38" class="node">
<title>Node38</title>
<g id="a_node38"><a xlink:title=" ">
<polygon fill="none" stroke="#bfbfbf" points="1979,-67.5 1979,-86.5 2035,-86.5 2035,-67.5 1979,-67.5"/>
<text text-anchor="middle" x="2007" y="-74.5" font-family="Helvetica,sans-Serif" font-size="10.00">numeric</text>
</a>
</g>
</g>
<!-- Node32&#45;&gt;Node38 -->
<g id="edge54" class="edge">
<title>Node32&#45;&gt;Node38</title>
<path fill="none" stroke="midnightblue" d="M2085.9,-123.32C2071.1,-114.82 2048.31,-101.73 2031.02,-91.8"/>
<polygon fill="midnightblue" stroke="midnightblue" points="2032.48,-88.6 2022.07,-86.65 2028.99,-94.67 2032.48,-88.6"/>
</g>
<!-- Node39&#45;&gt;Node5 -->
<g id="edge70" class="edge">
<title>Node39&#45;&gt;Node5</title>
<path fill="none" stroke="midnightblue" d="M1573.26,-358.44C1521.25,-348.92 1437.25,-333.55 1381.58,-323.36"/>
<polygon fill="midnightblue" stroke="midnightblue" points="1381.99,-319.87 1371.52,-321.52 1380.73,-326.76 1381.99,-319.87"/>
</g>
<!-- Node39&#45;&gt;Node13 -->
<g id="edge65" class="edge">
<title>Node39&#45;&gt;Node13</title>
<path fill="none" stroke="midnightblue" d="M1606.86,-358.5C1564.3,-330.95 1429.92,-243.99 1376.86,-209.65"/>
<polygon fill="midnightblue" stroke="midnightblue" points="1378.52,-206.55 1368.22,-204.06 1374.71,-212.43 1378.52,-206.55"/>
</g>
<!-- Node39&#45;&gt;Node14 -->
<g id="edge62" class="edge">
<title>Node39&#45;&gt;Node14</title>
<path fill="none" stroke="midnightblue" d="M1672.21,-358.64C1742.55,-347.21 1859.94,-327.51 1868,-322 1916.28,-289.03 1918.86,-265.58 1937,-210 1943.15,-191.17 1944.16,-168.38 1943.94,-152.7"/>
<polygon fill="midnightblue" stroke="midnightblue" points="1947.43,-152.57 1943.61,-142.69 1940.44,-152.8 1947.43,-152.57"/>
</g>
<!-- Node39&#45;&gt;Node20 -->
<g id="edge64" class="edge">
<title>Node39&#45;&gt;Node20</title>
<path fill="none" stroke="midnightblue" d="M1567.8,-363.66C1481.73,-357.61 1314.09,-343.48 1259,-322 1179.14,-290.86 1141.24,-286.2 1102,-210 1095.69,-197.75 1094.46,-190.53 1102,-179 1112.5,-162.95 1130.13,-152.59 1147.85,-145.92"/>
<polygon fill="midnightblue" stroke="midnightblue" points="1149.33,-149.11 1157.67,-142.58 1147.07,-142.49 1149.33,-149.11"/>
</g>
<!-- Node39&#45;&gt;Node22 -->
<g id="edge77" class="edge">
<title>Node39&#45;&gt;Node22</title>
<path fill="none" stroke="midnightblue" d="M1622.87,-358.45C1631.53,-331.31 1655.41,-244.98 1633,-179 1622.91,-149.29 1616.88,-139.2 1590,-123 1551.7,-99.92 1421.89,-86.11 1359.72,-80.68"/>
<polygon fill="midnightblue" stroke="midnightblue" points="1359.9,-77.18 1349.64,-79.82 1359.31,-84.16 1359.9,-77.18"/>
</g>
<!-- Node40 -->
<g id="node40" class="node">
<title>Node40</title>
<g id="a_node40"><a xlink:title=" ">
<polygon fill="none" stroke="#bfbfbf" points="1648,-302.5 1648,-321.5 1702,-321.5 1702,-302.5 1648,-302.5"/>
<text text-anchor="middle" x="1675" y="-309.5" font-family="Helvetica,sans-Serif" font-size="10.00">istream</text>
</a>
</g>
</g>
<!-- Node39&#45;&gt;Node40 -->
<g id="edge63" class="edge">
<title>Node39&#45;&gt;Node40</title>
<path fill="none" stroke="midnightblue" d="M1629.08,-358.08C1637.17,-350.14 1649.2,-338.34 1658.91,-328.8"/>
<polygon fill="midnightblue" stroke="midnightblue" points="1661.4,-331.25 1666.09,-321.75 1656.5,-326.26 1661.4,-331.25"/>
</g>
<!-- Node41 -->
<g id="node41" class="node">
<title>Node41</title>
<g id="a_node41"><a xlink:href="point__charge_8h.html" target="_top" xlink:title=" ">
<polygon fill="none" stroke="black" points="1796,-185 1796,-204 1928,-204 1928,-185 1796,-185"/>
<text text-anchor="middle" x="1862" y="-192" font-family="Helvetica,sans-Serif" font-size="10.00">occ/core/point_charge.h</text>
</a>
</g>
</g>
<!-- Node39&#45;&gt;Node41 -->
<g id="edge66" class="edge">
<title>Node39&#45;&gt;Node41</title>
<path fill="none" stroke="midnightblue" d="M1671.35,-358.49C1737.01,-347.39 1842.99,-328.59 1849,-322 1875.94,-292.47 1871.28,-241.44 1866.24,-214.08"/>
<polygon fill="midnightblue" stroke="midnightblue" points="1869.66,-213.34 1864.21,-204.25 1862.8,-214.75 1869.66,-213.34"/>
</g>
<!-- Node42 -->
<g id="node42" class="node">
<title>Node42</title>
<g id="a_node42"><a xlink:href="grid__settings_8h.html" target="_top" xlink:title=" ">
<polygon fill="none" stroke="black" points="1720,-302.5 1720,-321.5 1840,-321.5 1840,-302.5 1720,-302.5"/>
<text text-anchor="middle" x="1780" y="-309.5" font-family="Helvetica,sans-Serif" font-size="10.00">occ/io/grid_settings.h</text>
</a>
</g>
</g>
<!-- Node39&#45;&gt;Node42 -->
<g id="edge71" class="edge">
<title>Node39&#45;&gt;Node42</title>
<path fill="none" stroke="midnightblue" d="M1645.35,-358.44C1672.27,-349.36 1715,-334.94 1745.09,-324.78"/>
<polygon fill="midnightblue" stroke="midnightblue" points="1746.41,-328.03 1754.77,-321.52 1744.17,-321.4 1746.41,-328.03"/>
</g>
<!-- Node43 -->
<g id="node43" class="node">
<title>Node43</title>
<g id="a_node43"><a xlink:href="spinorbital_8h.html" target="_top" xlink:title=" ">
<polygon fill="none" stroke="black" points="2043,-185 2043,-204 2159,-204 2159,-185 2043,-185"/>
<text text-anchor="middle" x="2101" y="-192" font-family="Helvetica,sans-Serif" font-size="10.00">occ/qm/spinorbital.h</text>
</a>
</g>
</g>
<!-- Node39&#45;&gt;Node43 -->
<g id="edge72" class="edge">
<title>Node39&#45;&gt;Node43</title>
<path fill="none" stroke="midnightblue" d="M1672.23,-359.21C1675.2,-358.8 1678.14,-358.39 1681,-358 1809.26,-340.55 1853.22,-377.83 1970,-322 2023.3,-296.52 2068.59,-240.83 2089.16,-212.61"/>
<polygon fill="midnightblue" stroke="midnightblue" points="2092.22,-214.36 2095.17,-204.18 2086.52,-210.3 2092.22,-214.36"/>
</g>
<!-- Node41&#45;&gt;Node14 -->
<g id="edge67" class="edge">
<title>Node41&#45;&gt;Node14</title>
<path fill="none" stroke="midnightblue" d="M1873.61,-184.98C1886.48,-175.52 1907.47,-160.1 1923.01,-148.69"/>
<polygon fill="midnightblue" stroke="midnightblue" points="1925.43,-151.25 1931.42,-142.51 1921.28,-145.61 1925.43,-151.25"/>
</g>
<!-- Node41&#45;&gt;Node15 -->
<g id="edge68" class="edge">
<title>Node41&#45;&gt;Node15</title>
<path fill="none" stroke="midnightblue" d="M1839.65,-184.98C1813.01,-174.81 1768.29,-157.76 1737.99,-146.2"/>
<polygon fill="midnightblue" stroke="midnightblue" points="1738.9,-142.8 1728.31,-142.51 1736.41,-149.34 1738.9,-142.8"/>
</g>
<!-- Node41&#45;&gt;Node16 -->
<g id="edge69" class="edge">
<title>Node41&#45;&gt;Node16</title>
<path fill="none" stroke="midnightblue" d="M1899.5,-184.92C1940.98,-173.76 1998.77,-152.17 1973,-123 1954.63,-102.21 1791.8,-88.8 1690.88,-82.4"/>
<polygon fill="midnightblue" stroke="midnightblue" points="1690.91,-78.9 1680.71,-81.77 1690.47,-85.88 1690.91,-78.9"/>
</g>
<!-- Node43&#45;&gt;Node16 -->
<g id="edge73" class="edge">
<title>Node43&#45;&gt;Node16</title>
<path fill="none" stroke="midnightblue" d="M2090.82,-184.76C2072.21,-169.34 2030.86,-137.55 1990,-123 1936.62,-104 1785.42,-90.3 1690.92,-83.3"/>
<polygon fill="midnightblue" stroke="midnightblue" points="1691.05,-79.8 1680.82,-82.56 1690.54,-86.78 1691.05,-79.8"/>
</g>
<!-- Node43&#45;&gt;Node32 -->
<g id="edge74" class="edge">
<title>Node43&#45;&gt;Node32</title>
<path fill="none" stroke="midnightblue" d="M2101,-184.98C2101,-176.58 2101,-163.48 2101,-152.66"/>
<polygon fill="midnightblue" stroke="midnightblue" points="2104.5,-152.51 2101,-142.51 2097.5,-152.51 2104.5,-152.51"/>
</g>
<!-- Node44 -->
<g id="node44" class="node">
<title>Node44</title>
<g id="a_node44"><a xlink:href="qm_2opmatrix_8h.html" target="_top" xlink:title=" ">
<polygon fill="none" stroke="black" points="2162,-123.5 2162,-142.5 2270,-142.5 2270,-123.5 2162,-123.5"/>
<text text-anchor="middle" x="2216" y="-130.5" font-family="Helvetica,sans-Serif" font-size="10.00">occ/qm/opmatrix.h</text>
</a>
</g>
</g>
<!-- Node43&#45;&gt;Node44 -->
<g id="edge75" class="edge">
<title>Node43&#45;&gt;Node44</title>
<path fill="none" stroke="midnightblue" d="M2112.58,-184.98C2129.7,-174.99 2161.61,-158.35 2185.58,-146.81"/>
<polygon fill="midnightblue" stroke="midnightblue" points="2187.12,-149.95 2194.66,-142.51 2184.12,-143.63 2187.12,-149.95"/>
</g>
<!-- Node44&#45;&gt;Node43 -->
<g id="edge76" class="edge">
<title>Node44&#45;&gt;Node43</title>
<path fill="none" stroke="midnightblue" d="M2204.45,-142.51C2187.34,-152.49 2155.44,-169.13 2131.46,-180.67"/>
<polygon fill="midnightblue" stroke="midnightblue" points="2129.92,-177.53 2122.38,-184.98 2132.91,-183.86 2129.92,-177.53"/>
</g>
</g>
</svg>
