<?xml version="1.0" encoding="UTF-8" standalone="no"?>
<!DOCTYPE svg PUBLIC "-//W3C//DTD SVG 1.1//EN"
 "http://www.w3.org/Graphics/SVG/1.1/DTD/svg11.dtd">
<!-- Generated by graphviz version 2.43.0 (0)
 -->
<!-- Title: /home/runner/work/occ/occ/include/occ/io/cifwriter.h Pages: 1 -->
<svg width="1711pt" height="445pt"
 viewBox="0.00 0.00 1711.24 445.00" xmlns="http://www.w3.org/2000/svg" xmlns:xlink="http://www.w3.org/1999/xlink">
<g id="graph0" class="graph" transform="scale(1 1) rotate(0) translate(4 441)">
<title>/home/runner/work/occ/occ/include/occ/io/cifwriter.h</title>
<!-- Node1 -->
<g id="Node000001" class="node">
<title>Node1</title>
<g id="a_Node000001"><a xlink:title=" ">
<polygon fill="#999999" stroke="#666666" points="1455.5,-437 1298.5,-437 1298.5,-407 1455.5,-407 1455.5,-437"/>
<text text-anchor="start" x="1306.5" y="-425" font-family="Helvetica,sans-Serif" font-size="10.00">/home/runner/work/occ</text>
<text text-anchor="middle" x="1377" y="-414" font-family="Helvetica,sans-Serif" font-size="10.00">/occ/include/occ/io/cifwriter.h</text>
</a>
</g>
</g>
<!-- Node2 -->
<g id="Node000002" class="node">
<title>Node2</title>
<g id="a_Node000002"><a xlink:href="crystal_8h.html" target="_top" xlink:title=" ">
<polygon fill="white" stroke="#666666" points="628,-371 514,-371 514,-352 628,-352 628,-371"/>
<text text-anchor="middle" x="571" y="-359" font-family="Helvetica,sans-Serif" font-size="10.00">occ/crystal/crystal.h</text>
</a>
</g>
</g>
<!-- Node1&#45;&gt;Node2 -->
<g id="edge1_Node000001_Node000002" class="edge">
<title>Node1&#45;&gt;Node2</title>
<g id="a_edge1_Node000001_Node000002"><a xlink:title=" ">
<path fill="none" stroke="#63b8ff" d="M1298.25,-415.28C1140.13,-403.81 786.52,-378.14 638.35,-367.39"/>
<polygon fill="#63b8ff" stroke="#63b8ff" points="638.27,-363.87 628.04,-366.64 637.76,-370.86 638.27,-363.87"/>
</a>
</g>
</g>
<!-- Node18 -->
<g id="Node000018" class="node">
<title>Node18</title>
<g id="a_Node000018"><a xlink:title=" ">
<polygon fill="#e0e0e0" stroke="#999999" points="992,-74 948,-74 948,-55 992,-55 992,-74"/>
<text text-anchor="middle" x="970" y="-62" font-family="Helvetica,sans-Serif" font-size="10.00">string</text>
</a>
</g>
</g>
<!-- Node1&#45;&gt;Node18 -->
<g id="edge71_Node000001_Node000018" class="edge">
<title>Node1&#45;&gt;Node18</title>
<g id="a_edge71_Node000001_Node000018"><a xlink:title=" ">
<path fill="none" stroke="#63b8ff" d="M1377,-406.71C1377,-384.37 1377,-339.81 1377,-302 1377,-302 1377,-302 1377,-239.5 1377,-208.41 1158.1,-120.94 1129,-110 1086.02,-93.85 1034.59,-80.49 1002.1,-72.75"/>
<polygon fill="#63b8ff" stroke="#63b8ff" points="1002.78,-69.32 992.25,-70.44 1001.18,-76.13 1002.78,-69.32"/>
</a>
</g>
</g>
<!-- Node40 -->
<g id="Node000040" class="node">
<title>Node40</title>
<g id="a_Node000040"><a xlink:title=" ">
<polygon fill="#e0e0e0" stroke="#999999" points="1509,-371 1405,-371 1405,-352 1509,-352 1509,-371"/>
<text text-anchor="middle" x="1457" y="-359" font-family="Helvetica,sans-Serif" font-size="10.00">gemmi/cifdoc.hpp</text>
</a>
</g>
</g>
<!-- Node1&#45;&gt;Node40 -->
<g id="edge70_Node000001_Node000040" class="edge">
<title>Node1&#45;&gt;Node40</title>
<g id="a_edge70_Node000001_Node000040"><a xlink:title=" ">
<path fill="none" stroke="#63b8ff" d="M1396.37,-406.84C1408.57,-397.91 1424.31,-386.41 1436.69,-377.35"/>
<polygon fill="#63b8ff" stroke="#63b8ff" points="1439.01,-379.99 1445.01,-371.27 1434.87,-374.34 1439.01,-379.99"/>
</a>
</g>
</g>
<!-- Node3 -->
<g id="Node000003" class="node">
<title>Node3</title>
<g id="a_Node000003"><a xlink:href="bondgraph_8h.html" target="_top" xlink:title=" ">
<polygon fill="white" stroke="#666666" points="166.5,-310.5 45.5,-310.5 45.5,-291.5 166.5,-291.5 166.5,-310.5"/>
<text text-anchor="middle" x="106" y="-298.5" font-family="Helvetica,sans-Serif" font-size="10.00">occ/core/bondgraph.h</text>
</a>
</g>
</g>
<!-- Node2&#45;&gt;Node3 -->
<g id="edge2_Node000002_Node000003" class="edge">
<title>Node2&#45;&gt;Node3</title>
<g id="a_edge2_Node000002_Node000003"><a xlink:title=" ">
<path fill="none" stroke="#63b8ff" d="M513.98,-353.33C429.01,-342.64 269.28,-322.54 176.9,-310.92"/>
<polygon fill="#63b8ff" stroke="#63b8ff" points="177.16,-307.43 166.81,-309.65 176.29,-314.37 177.16,-307.43"/>
</a>
</g>
</g>
<!-- Node9 -->
<g id="Node000009" class="node">
<title>Node9</title>
<g id="a_Node000009"><a xlink:href="dimer_8h.html" target="_top" xlink:title=" ">
<polygon fill="white" stroke="#666666" points="290.5,-250 193.5,-250 193.5,-231 290.5,-231 290.5,-250"/>
<text text-anchor="middle" x="242" y="-238" font-family="Helvetica,sans-Serif" font-size="10.00">occ/core/dimer.h</text>
</a>
</g>
</g>
<!-- Node2&#45;&gt;Node9 -->
<g id="edge8_Node000002_Node000009" class="edge">
<title>Node2&#45;&gt;Node9</title>
<g id="a_edge8_Node000002_Node000009"><a xlink:title=" ">
<path fill="none" stroke="#63b8ff" d="M553.24,-351.87C522.37,-337.09 456.63,-306.54 399,-286 361.8,-272.74 318.55,-260.72 286.88,-252.53"/>
<polygon fill="#63b8ff" stroke="#63b8ff" points="287.58,-249.1 277.03,-250.01 285.85,-255.88 287.58,-249.1"/>
</a>
</g>
</g>
<!-- Node10 -->
<g id="Node000010" class="node">
<title>Node10</title>
<g id="a_Node000010"><a xlink:href="molecule_8h.html" target="_top" xlink:title=" ">
<polygon fill="white" stroke="#666666" points="769,-189.5 655,-189.5 655,-170.5 769,-170.5 769,-189.5"/>
<text text-anchor="middle" x="712" y="-177.5" font-family="Helvetica,sans-Serif" font-size="10.00">occ/core/molecule.h</text>
</a>
</g>
</g>
<!-- Node2&#45;&gt;Node10 -->
<g id="edge25_Node000002_Node000010" class="edge">
<title>Node2&#45;&gt;Node10</title>
<g id="a_edge25_Node000002_Node000010"><a xlink:title=" ">
<path fill="none" stroke="#63b8ff" d="M577.8,-351.84C599.81,-323.82 669.37,-235.27 698.72,-197.9"/>
<polygon fill="#63b8ff" stroke="#63b8ff" points="701.84,-199.6 705.27,-189.57 696.34,-195.27 701.84,-199.6"/>
</a>
</g>
</g>
<!-- Node13 -->
<g id="Node000013" class="node">
<title>Node13</title>
<g id="a_Node000013"><a xlink:href="linear__algebra_8h.html" target="_top" xlink:title=" ">
<polygon fill="white" stroke="#666666" points="916.5,-74 777.5,-74 777.5,-55 916.5,-55 916.5,-74"/>
<text text-anchor="middle" x="847" y="-62" font-family="Helvetica,sans-Serif" font-size="10.00">occ/core/linear_algebra.h</text>
</a>
</g>
</g>
<!-- Node2&#45;&gt;Node13 -->
<g id="edge24_Node000002_Node000013" class="edge">
<title>Node2&#45;&gt;Node13</title>
<g id="a_edge24_Node000002_Node000013"><a xlink:title=" ">
<path fill="none" stroke="#63b8ff" d="M564.14,-351.98C536.18,-316.26 435.78,-177.32 509,-110 545.51,-76.43 679.11,-67.74 767.01,-65.74"/>
<polygon fill="#63b8ff" stroke="#63b8ff" points="767.3,-69.24 777.22,-65.54 767.15,-62.24 767.3,-69.24"/>
</a>
</g>
</g>
<!-- Node19 -->
<g id="Node000019" class="node">
<title>Node19</title>
<g id="a_Node000019"><a xlink:title=" ">
<polygon fill="#e0e0e0" stroke="#999999" points="447.5,-74 400.5,-74 400.5,-55 447.5,-55 447.5,-74"/>
<text text-anchor="middle" x="424" y="-62" font-family="Helvetica,sans-Serif" font-size="10.00">vector</text>
</a>
</g>
</g>
<!-- Node2&#45;&gt;Node19 -->
<g id="edge69_Node000002_Node000019" class="edge">
<title>Node2&#45;&gt;Node19</title>
<g id="a_edge69_Node000002_Node000019"><a xlink:title=" ">
<path fill="none" stroke="#63b8ff" d="M513.84,-358.92C383.93,-354.89 74.7,-342.58 36,-316 5.69,-295.18 0,-278.27 0,-241.5 0,-241.5 0,-241.5 0,-179 0,-98.4 289.52,-73.5 390.08,-67.29"/>
<polygon fill="#63b8ff" stroke="#63b8ff" points="390.52,-70.77 400.3,-66.68 390.11,-63.78 390.52,-70.77"/>
</a>
</g>
</g>
<!-- Node21 -->
<g id="Node000021" class="node">
<title>Node21</title>
<g id="a_Node000021"><a xlink:href="asymmetric__unit_8h.html" target="_top" xlink:title=" ">
<polygon fill="white" stroke="#666666" points="636.5,-195 505.5,-195 505.5,-165 636.5,-165 636.5,-195"/>
<text text-anchor="start" x="513.5" y="-183" font-family="Helvetica,sans-Serif" font-size="10.00">occ/crystal/asymmetric</text>
<text text-anchor="middle" x="571" y="-172" font-family="Helvetica,sans-Serif" font-size="10.00">_unit.h</text>
</a>
</g>
</g>
<!-- Node2&#45;&gt;Node21 -->
<g id="edge26_Node000002_Node000021" class="edge">
<title>Node2&#45;&gt;Node21</title>
<g id="a_edge26_Node000002_Node000021"><a xlink:title=" ">
<path fill="none" stroke="#63b8ff" d="M571,-351.84C571,-325.54 571,-245.9 571,-205.33"/>
<polygon fill="#63b8ff" stroke="#63b8ff" points="574.5,-205.22 571,-195.22 567.5,-205.22 574.5,-205.22"/>
</a>
</g>
</g>
<!-- Node22 -->
<g id="Node000022" class="node">
<title>Node22</title>
<g id="a_Node000022"><a xlink:href="hkl_8h.html" target="_top" xlink:title=" ">
<polygon fill="white" stroke="#666666" points="1504,-129 1408,-129 1408,-110 1504,-110 1504,-129"/>
<text text-anchor="middle" x="1456" y="-117" font-family="Helvetica,sans-Serif" font-size="10.00">occ/crystal/hkl.h</text>
</a>
</g>
</g>
<!-- Node2&#45;&gt;Node22 -->
<g id="edge31_Node000002_Node000022" class="edge">
<title>Node2&#45;&gt;Node22</title>
<g id="a_edge31_Node000002_Node000022"><a xlink:title=" ">
<path fill="none" stroke="#63b8ff" d="M628.36,-359.62C755.07,-357.1 1055.17,-347.87 1151,-316 1273.23,-275.35 1395.09,-174.62 1438.95,-135.95"/>
<polygon fill="#63b8ff" stroke="#63b8ff" points="1441.3,-138.55 1446.43,-129.28 1436.64,-133.32 1441.3,-138.55"/>
</a>
</g>
</g>
<!-- Node23 -->
<g id="Node000023" class="node">
<title>Node23</title>
<g id="a_Node000023"><a xlink:href="site__mapping__table_8h.html" target="_top" xlink:title=" ">
<polygon fill="white" stroke="#666666" points="390,-316 252,-316 252,-286 390,-286 390,-316"/>
<text text-anchor="start" x="260" y="-304" font-family="Helvetica,sans-Serif" font-size="10.00">occ/crystal/site_mapping</text>
<text text-anchor="middle" x="321" y="-293" font-family="Helvetica,sans-Serif" font-size="10.00">_table.h</text>
</a>
</g>
</g>
<!-- Node2&#45;&gt;Node23 -->
<g id="edge34_Node000002_Node000023" class="edge">
<title>Node2&#45;&gt;Node23</title>
<g id="a_edge34_Node000002_Node000023"><a xlink:title=" ">
<path fill="none" stroke="#63b8ff" d="M534.65,-351.99C497.1,-343.21 437.56,-329.27 390.86,-318.35"/>
<polygon fill="#63b8ff" stroke="#63b8ff" points="391.64,-314.93 381.1,-316.06 390.04,-321.75 391.64,-314.93"/>
</a>
</g>
</g>
<!-- Node25 -->
<g id="Node000025" class="node">
<title>Node25</title>
<g id="a_Node000025"><a xlink:href="spacegroup_8h.html" target="_top" xlink:title=" ">
<polygon fill="white" stroke="#666666" points="1062.5,-310.5 925.5,-310.5 925.5,-291.5 1062.5,-291.5 1062.5,-310.5"/>
<text text-anchor="middle" x="994" y="-298.5" font-family="Helvetica,sans-Serif" font-size="10.00">occ/crystal/spacegroup.h</text>
</a>
</g>
</g>
<!-- Node2&#45;&gt;Node25 -->
<g id="edge40_Node000002_Node000025" class="edge">
<title>Node2&#45;&gt;Node25</title>
<g id="a_edge40_Node000002_Node000025"><a xlink:title=" ">
<path fill="none" stroke="#63b8ff" d="M628.05,-352.61C704.25,-342.07 839.26,-323.4 922.27,-311.92"/>
<polygon fill="#63b8ff" stroke="#63b8ff" points="922.95,-315.36 932.38,-310.52 921.99,-308.43 922.95,-315.36"/>
</a>
</g>
</g>
<!-- Node29 -->
<g id="Node000029" class="node">
<title>Node29</title>
<g id="a_Node000029"><a xlink:href="unitcell_8h.html" target="_top" xlink:title=" ">
<polygon fill="white" stroke="#666666" points="1234.5,-189.5 1117.5,-189.5 1117.5,-170.5 1234.5,-170.5 1234.5,-189.5"/>
<text text-anchor="middle" x="1176" y="-177.5" font-family="Helvetica,sans-Serif" font-size="10.00">occ/crystal/unitcell.h</text>
</a>
</g>
</g>
<!-- Node2&#45;&gt;Node29 -->
<g id="edge68_Node000002_Node000029" class="edge">
<title>Node2&#45;&gt;Node29</title>
<g id="a_edge68_Node000002_Node000029"><a xlink:title=" ">
<path fill="none" stroke="#63b8ff" d="M628.2,-360.73C722.13,-359.92 914.38,-353.32 1072,-316 1149.66,-297.61 1194.12,-315.99 1239,-250 1253.33,-228.92 1226.33,-207.72 1203.34,-194.49"/>
<polygon fill="#63b8ff" stroke="#63b8ff" points="1204.96,-191.39 1194.5,-189.66 1201.6,-197.53 1204.96,-191.39"/>
</a>
</g>
</g>
<!-- Node4 -->
<g id="Node000004" class="node">
<title>Node4</title>
<g id="a_Node000004"><a xlink:href="graph_8h.html" target="_top" xlink:title=" ">
<polygon fill="white" stroke="#666666" points="136.5,-250 39.5,-250 39.5,-231 136.5,-231 136.5,-250"/>
<text text-anchor="middle" x="88" y="-238" font-family="Helvetica,sans-Serif" font-size="10.00">occ/core/graph.h</text>
</a>
</g>
</g>
<!-- Node3&#45;&gt;Node4 -->
<g id="edge3_Node000003_Node000004" class="edge">
<title>Node3&#45;&gt;Node4</title>
<g id="a_edge3_Node000003_Node000004"><a xlink:title=" ">
<path fill="none" stroke="#63b8ff" d="M103.34,-291.37C100.82,-283.16 96.94,-270.54 93.71,-260.05"/>
<polygon fill="#63b8ff" stroke="#63b8ff" points="96.95,-258.7 90.67,-250.17 90.26,-260.75 96.95,-258.7"/>
</a>
</g>
</g>
<!-- Node5 -->
<g id="Node000005" class="node">
<title>Node5</title>
<g id="a_Node000005"><a xlink:title=" ">
<polygon fill="#e0e0e0" stroke="#999999" points="410.5,-189.5 267.5,-189.5 267.5,-170.5 410.5,-170.5 410.5,-189.5"/>
<text text-anchor="middle" x="339" y="-177.5" font-family="Helvetica,sans-Serif" font-size="10.00">ankerl/unordered_dense.h</text>
</a>
</g>
</g>
<!-- Node4&#45;&gt;Node5 -->
<g id="edge4_Node000004_Node000005" class="edge">
<title>Node4&#45;&gt;Node5</title>
<g id="a_edge4_Node000004_Node000005"><a xlink:title=" ">
<path fill="none" stroke="#63b8ff" d="M124.5,-230.99C168.93,-220.64 244.01,-203.14 292.53,-191.83"/>
<polygon fill="#63b8ff" stroke="#63b8ff" points="293.51,-195.2 302.46,-189.52 291.92,-188.38 293.51,-195.2"/>
</a>
</g>
</g>
<!-- Node6 -->
<g id="Node000006" class="node">
<title>Node6</title>
<g id="a_Node000006"><a xlink:title=" ">
<polygon fill="#e0e0e0" stroke="#999999" points="249,-189.5 193,-189.5 193,-170.5 249,-170.5 249,-189.5"/>
<text text-anchor="middle" x="221" y="-177.5" font-family="Helvetica,sans-Serif" font-size="10.00">optional</text>
</a>
</g>
</g>
<!-- Node4&#45;&gt;Node6 -->
<g id="edge5_Node000004_Node000006" class="edge">
<title>Node4&#45;&gt;Node6</title>
<g id="a_edge5_Node000004_Node000006"><a xlink:title=" ">
<path fill="none" stroke="#63b8ff" d="M107.34,-230.99C129.7,-221.16 166.71,-204.88 192.4,-193.58"/>
<polygon fill="#63b8ff" stroke="#63b8ff" points="193.89,-196.75 201.64,-189.52 191.07,-190.34 193.89,-196.75"/>
</a>
</g>
</g>
<!-- Node7 -->
<g id="Node000007" class="node">
<title>Node7</title>
<g id="a_Node000007"><a xlink:title=" ">
<polygon fill="#e0e0e0" stroke="#999999" points="75.5,-189.5 28.5,-189.5 28.5,-170.5 75.5,-170.5 75.5,-189.5"/>
<text text-anchor="middle" x="52" y="-177.5" font-family="Helvetica,sans-Serif" font-size="10.00">queue</text>
</a>
</g>
</g>
<!-- Node4&#45;&gt;Node7 -->
<g id="edge6_Node000004_Node000007" class="edge">
<title>Node4&#45;&gt;Node7</title>
<g id="a_edge6_Node000004_Node000007"><a xlink:title=" ">
<path fill="none" stroke="#63b8ff" d="M82.69,-230.87C77.42,-222.31 69.21,-208.97 62.61,-198.24"/>
<polygon fill="#63b8ff" stroke="#63b8ff" points="65.56,-196.35 57.33,-189.67 59.59,-200.02 65.56,-196.35"/>
</a>
</g>
</g>
<!-- Node8 -->
<g id="Node000008" class="node">
<title>Node8</title>
<g id="a_Node000008"><a xlink:title=" ">
<polygon fill="#e0e0e0" stroke="#999999" points="136.5,-189.5 93.5,-189.5 93.5,-170.5 136.5,-170.5 136.5,-189.5"/>
<text text-anchor="middle" x="115" y="-177.5" font-family="Helvetica,sans-Serif" font-size="10.00">stack</text>
</a>
</g>
</g>
<!-- Node4&#45;&gt;Node8 -->
<g id="edge7_Node000004_Node000008" class="edge">
<title>Node4&#45;&gt;Node8</title>
<g id="a_edge7_Node000004_Node000008"><a xlink:title=" ">
<path fill="none" stroke="#63b8ff" d="M91.98,-230.87C95.85,-222.49 101.84,-209.51 106.74,-198.89"/>
<polygon fill="#63b8ff" stroke="#63b8ff" points="109.99,-200.21 111,-189.67 103.63,-197.28 109.99,-200.21"/>
</a>
</g>
</g>
<!-- Node9&#45;&gt;Node5 -->
<g id="edge9_Node000009_Node000005" class="edge">
<title>Node9&#45;&gt;Node5</title>
<g id="a_edge9_Node000009_Node000005"><a xlink:title=" ">
<path fill="none" stroke="#63b8ff" d="M256.31,-230.87C272,-221.41 297.4,-206.09 315.91,-194.92"/>
<polygon fill="#63b8ff" stroke="#63b8ff" points="317.87,-197.83 324.63,-189.67 314.26,-191.83 317.87,-197.83"/>
</a>
</g>
</g>
<!-- Node9&#45;&gt;Node6 -->
<g id="edge23_Node000009_Node000006" class="edge">
<title>Node9&#45;&gt;Node6</title>
<g id="a_edge23_Node000009_Node000006"><a xlink:title=" ">
<path fill="none" stroke="#63b8ff" d="M238.9,-230.87C235.92,-222.57 231.33,-209.78 227.54,-199.22"/>
<polygon fill="#63b8ff" stroke="#63b8ff" points="230.78,-197.9 224.11,-189.67 224.2,-200.26 230.78,-197.9"/>
</a>
</g>
</g>
<!-- Node9&#45;&gt;Node10 -->
<g id="edge10_Node000009_Node000010" class="edge">
<title>Node9&#45;&gt;Node10</title>
<g id="a_edge10_Node000009_Node000010"><a xlink:title=" ">
<path fill="none" stroke="#63b8ff" d="M290.8,-232.08C293.57,-231.7 296.32,-231.34 299,-231 452.83,-211.56 492.84,-219.12 646,-195 652.23,-194.02 658.75,-192.83 665.17,-191.57"/>
<polygon fill="#63b8ff" stroke="#63b8ff" points="666.03,-194.97 675.13,-189.54 664.63,-188.11 666.03,-194.97"/>
</a>
</g>
</g>
<!-- Node11 -->
<g id="Node000011" class="node">
<title>Node11</title>
<g id="a_Node000011"><a xlink:title=" ">
<polygon fill="#e0e0e0" stroke="#999999" points="736,-129 694,-129 694,-110 736,-110 736,-129"/>
<text text-anchor="middle" x="715" y="-117" font-family="Helvetica,sans-Serif" font-size="10.00">array</text>
</a>
</g>
</g>
<!-- Node10&#45;&gt;Node11 -->
<g id="edge11_Node000010_Node000011" class="edge">
<title>Node10&#45;&gt;Node11</title>
<g id="a_edge11_Node000010_Node000011"><a xlink:title=" ">
<path fill="none" stroke="#63b8ff" d="M712.44,-170.37C712.86,-162.25 713.5,-149.81 714.03,-139.39"/>
<polygon fill="#63b8ff" stroke="#63b8ff" points="717.54,-139.33 714.56,-129.17 710.55,-138.97 717.54,-139.33"/>
</a>
</g>
</g>
<!-- Node12 -->
<g id="Node000012" class="node">
<title>Node12</title>
<g id="a_Node000012"><a xlink:href="atom_8h.html" target="_top" xlink:title=" ">
<polygon fill="white" stroke="#666666" points="887.5,-129 792.5,-129 792.5,-110 887.5,-110 887.5,-129"/>
<text text-anchor="middle" x="840" y="-117" font-family="Helvetica,sans-Serif" font-size="10.00">occ/core/atom.h</text>
</a>
</g>
</g>
<!-- Node10&#45;&gt;Node12 -->
<g id="edge12_Node000010_Node000012" class="edge">
<title>Node10&#45;&gt;Node12</title>
<g id="a_edge12_Node000010_Node000012"><a xlink:title=" ">
<path fill="none" stroke="#63b8ff" d="M730.61,-170.49C752.04,-160.7 787.44,-144.52 812.15,-133.23"/>
<polygon fill="#63b8ff" stroke="#63b8ff" points="813.72,-136.36 821.37,-129.02 810.82,-129.99 813.72,-136.36"/>
</a>
</g>
</g>
<!-- Node10&#45;&gt;Node13 -->
<g id="edge21_Node000010_Node000013" class="edge">
<title>Node10&#45;&gt;Node13</title>
<g id="a_edge21_Node000010_Node000013"><a xlink:title=" ">
<path fill="none" stroke="#63b8ff" d="M720.48,-170.06C733.55,-156.46 759.69,-130.05 784,-110 797.14,-99.17 812.76,-88.12 825.17,-79.74"/>
<polygon fill="#63b8ff" stroke="#63b8ff" points="827.17,-82.61 833.55,-74.15 823.29,-76.79 827.17,-82.61"/>
</a>
</g>
</g>
<!-- Node17 -->
<g id="Node000017" class="node">
<title>Node17</title>
<g id="a_Node000017"><a xlink:href="element_8h.html" target="_top" xlink:title=" ">
<polygon fill="white" stroke="#666666" points="638,-129 528,-129 528,-110 638,-110 638,-129"/>
<text text-anchor="middle" x="583" y="-117" font-family="Helvetica,sans-Serif" font-size="10.00">occ/core/element.h</text>
</a>
</g>
</g>
<!-- Node10&#45;&gt;Node17 -->
<g id="edge17_Node000010_Node000017" class="edge">
<title>Node10&#45;&gt;Node17</title>
<g id="a_edge17_Node000010_Node000017"><a xlink:title=" ">
<path fill="none" stroke="#63b8ff" d="M693.24,-170.49C671.65,-160.7 635.97,-144.52 611.07,-133.23"/>
<polygon fill="#63b8ff" stroke="#63b8ff" points="612.33,-129.96 601.78,-129.02 609.44,-136.33 612.33,-129.96"/>
</a>
</g>
</g>
<!-- Node20 -->
<g id="Node000020" class="node">
<title>Node20</title>
<g id="a_Node000020"><a xlink:title=" ">
<polygon fill="#e0e0e0" stroke="#999999" points="946.5,-129 905.5,-129 905.5,-110 946.5,-110 946.5,-129"/>
<text text-anchor="middle" x="926" y="-117" font-family="Helvetica,sans-Serif" font-size="10.00">tuple</text>
</a>
</g>
</g>
<!-- Node10&#45;&gt;Node20 -->
<g id="edge22_Node000010_Node000020" class="edge">
<title>Node10&#45;&gt;Node20</title>
<g id="a_edge22_Node000010_Node000020"><a xlink:title=" ">
<path fill="none" stroke="#63b8ff" d="M744.47,-170.45C779.51,-161.17 837.19,-145.75 895.65,-129.34"/>
<polygon fill="#63b8ff" stroke="#63b8ff" points="896.74,-132.67 905.42,-126.59 894.85,-125.93 896.74,-132.67"/>
</a>
</g>
</g>
<!-- Node12&#45;&gt;Node13 -->
<g id="edge13_Node000012_Node000013" class="edge">
<title>Node12&#45;&gt;Node13</title>
<g id="a_edge13_Node000012_Node000013"><a xlink:title=" ">
<path fill="none" stroke="#63b8ff" d="M841.16,-109.75C842.07,-102.8 843.39,-92.85 844.54,-84.13"/>
<polygon fill="#63b8ff" stroke="#63b8ff" points="848.03,-84.46 845.87,-74.09 841.09,-83.54 848.03,-84.46"/>
</a>
</g>
</g>
<!-- Node14 -->
<g id="Node000014" class="node">
<title>Node14</title>
<g id="a_Node000014"><a xlink:title=" ">
<polygon fill="#e0e0e0" stroke="#999999" points="819.5,-19 742.5,-19 742.5,0 819.5,0 819.5,-19"/>
<text text-anchor="middle" x="781" y="-7" font-family="Helvetica,sans-Serif" font-size="10.00">Eigen/Dense</text>
</a>
</g>
</g>
<!-- Node13&#45;&gt;Node14 -->
<g id="edge14_Node000013_Node000014" class="edge">
<title>Node13&#45;&gt;Node14</title>
<g id="a_edge14_Node000013_Node000014"><a xlink:title=" ">
<path fill="none" stroke="#63b8ff" d="M836.4,-54.98C826.54,-47.07 811.65,-35.11 799.78,-25.58"/>
<polygon fill="#63b8ff" stroke="#63b8ff" points="801.79,-22.7 791.8,-19.17 797.4,-28.16 801.79,-22.7"/>
</a>
</g>
</g>
<!-- Node15 -->
<g id="Node000015" class="node">
<title>Node15</title>
<g id="a_Node000015"><a xlink:title=" ">
<polygon fill="#e0e0e0" stroke="#999999" points="930.5,-19 837.5,-19 837.5,0 930.5,0 930.5,-19"/>
<text text-anchor="middle" x="884" y="-7" font-family="Helvetica,sans-Serif" font-size="10.00">Eigen/StdVector</text>
</a>
</g>
</g>
<!-- Node13&#45;&gt;Node15 -->
<g id="edge15_Node000013_Node000015" class="edge">
<title>Node13&#45;&gt;Node15</title>
<g id="a_edge15_Node000013_Node000015"><a xlink:title=" ">
<path fill="none" stroke="#63b8ff" d="M853.11,-54.75C858.28,-47.34 865.85,-36.5 872.19,-27.41"/>
<polygon fill="#63b8ff" stroke="#63b8ff" points="875.15,-29.29 878,-19.09 869.41,-25.29 875.15,-29.29"/>
</a>
</g>
</g>
<!-- Node16 -->
<g id="Node000016" class="node">
<title>Node16</title>
<g id="a_Node000016"><a xlink:title=" ">
<polygon fill="#e0e0e0" stroke="#999999" points="1053.5,-19 986.5,-19 986.5,0 1053.5,0 1053.5,-19"/>
<text text-anchor="middle" x="1020" y="-7" font-family="Helvetica,sans-Serif" font-size="10.00">fmt/core.h</text>
</a>
</g>
</g>
<!-- Node13&#45;&gt;Node16 -->
<g id="edge16_Node000013_Node000016" class="edge">
<title>Node13&#45;&gt;Node16</title>
<g id="a_edge16_Node000013_Node000016"><a xlink:title=" ">
<path fill="none" stroke="#63b8ff" d="M874.8,-54.98C903.97,-46.05 950,-31.94 982.4,-22.02"/>
<polygon fill="#63b8ff" stroke="#63b8ff" points="983.45,-25.36 991.99,-19.08 981.4,-18.66 983.45,-25.36"/>
</a>
</g>
</g>
<!-- Node17&#45;&gt;Node13 -->
<g id="edge20_Node000017_Node000013" class="edge">
<title>Node17&#45;&gt;Node13</title>
<g id="a_edge20_Node000017_Node000013"><a xlink:title=" ">
<path fill="none" stroke="#63b8ff" d="M625.42,-109.98C671.37,-100.76 744.75,-86.03 794.35,-76.07"/>
<polygon fill="#63b8ff" stroke="#63b8ff" points="795.14,-79.48 804.25,-74.08 793.76,-72.62 795.14,-79.48"/>
</a>
</g>
</g>
<!-- Node17&#45;&gt;Node18 -->
<g id="edge18_Node000017_Node000018" class="edge">
<title>Node17&#45;&gt;Node18</title>
<g id="a_edge18_Node000017_Node000018"><a xlink:title=" ">
<path fill="none" stroke="#63b8ff" d="M638.28,-111.52C728.04,-100.15 898.29,-78.47 926,-74 929.75,-73.39 933.68,-72.71 937.57,-72"/>
<polygon fill="#63b8ff" stroke="#63b8ff" points="938.49,-75.39 947.66,-70.09 937.19,-68.51 938.49,-75.39"/>
</a>
</g>
</g>
<!-- Node17&#45;&gt;Node19 -->
<g id="edge19_Node000017_Node000019" class="edge">
<title>Node17&#45;&gt;Node19</title>
<g id="a_edge19_Node000017_Node000019"><a xlink:title=" ">
<path fill="none" stroke="#63b8ff" d="M557.45,-109.98C530.24,-100.91 487.07,-86.52 457.23,-76.58"/>
<polygon fill="#63b8ff" stroke="#63b8ff" points="458.26,-73.23 447.67,-73.39 456.05,-79.87 458.26,-73.23"/>
</a>
</g>
</g>
<!-- Node21&#45;&gt;Node13 -->
<g id="edge28_Node000021_Node000013" class="edge">
<title>Node21&#45;&gt;Node13</title>
<g id="a_edge28_Node000021_Node000013"><a xlink:title=" ">
<path fill="none" stroke="#63b8ff" d="M547.89,-164.79C527.47,-150.51 503.21,-128.08 519,-110 550.59,-73.83 680.74,-65.92 767.29,-64.79"/>
<polygon fill="#63b8ff" stroke="#63b8ff" points="767.39,-68.29 777.35,-64.69 767.32,-61.29 767.39,-68.29"/>
</a>
</g>
</g>
<!-- Node21&#45;&gt;Node17 -->
<g id="edge27_Node000021_Node000017" class="edge">
<title>Node21&#45;&gt;Node17</title>
<g id="a_edge27_Node000021_Node000017"><a xlink:title=" ">
<path fill="none" stroke="#63b8ff" d="M573.9,-164.84C575.49,-157.13 577.46,-147.49 579.17,-139.17"/>
<polygon fill="#63b8ff" stroke="#63b8ff" points="582.62,-139.77 581.2,-129.27 575.76,-138.36 582.62,-139.77"/>
</a>
</g>
</g>
<!-- Node21&#45;&gt;Node18 -->
<g id="edge29_Node000021_Node000018" class="edge">
<title>Node21&#45;&gt;Node18</title>
<g id="a_edge29_Node000021_Node000018"><a xlink:title=" ">
<path fill="none" stroke="#63b8ff" d="M592.3,-164.71C619.68,-146.59 665.96,-116.87 685,-110 786.87,-73.24 819.25,-92.27 926,-74 929.75,-73.36 933.67,-72.65 937.56,-71.93"/>
<polygon fill="#63b8ff" stroke="#63b8ff" points="938.48,-75.32 947.65,-70.01 937.17,-68.44 938.48,-75.32"/>
</a>
</g>
</g>
<!-- Node21&#45;&gt;Node19 -->
<g id="edge30_Node000021_Node000019" class="edge">
<title>Node21&#45;&gt;Node19</title>
<g id="a_edge30_Node000021_Node000019"><a xlink:title=" ">
<path fill="none" stroke="#63b8ff" d="M543.01,-164.98C525.83,-155.79 503.79,-142.94 486,-129 467.72,-114.68 449.47,-95.21 437.56,-81.62"/>
<polygon fill="#63b8ff" stroke="#63b8ff" points="440.19,-79.31 431.01,-74.02 434.88,-83.88 440.19,-79.31"/>
</a>
</g>
</g>
<!-- Node22&#45;&gt;Node13 -->
<g id="edge33_Node000022_Node000013" class="edge">
<title>Node22&#45;&gt;Node13</title>
<g id="a_edge33_Node000022_Node000013"><a xlink:title=" ">
<path fill="none" stroke="#63b8ff" d="M1407.83,-111.07C1404.84,-110.69 1401.88,-110.33 1399,-110 1195.24,-86.86 1143.33,-91.43 939,-74 935.07,-73.66 931.04,-73.31 926.97,-72.96"/>
<polygon fill="#63b8ff" stroke="#63b8ff" points="927.08,-69.45 916.81,-72.05 926.46,-76.43 927.08,-69.45"/>
</a>
</g>
</g>
<!-- Node22&#45;&gt;Node16 -->
<g id="edge32_Node000022_Node000016" class="edge">
<title>Node22&#45;&gt;Node16</title>
<g id="a_edge32_Node000022_Node000016"><a xlink:title=" ">
<path fill="none" stroke="#63b8ff" d="M1504.2,-116.73C1567.84,-113.27 1674.7,-103.16 1699,-74 1704.41,-67.51 1704.77,-61.16 1699,-55 1655.67,-8.74 1207.72,-8.77 1064.07,-9.99"/>
<polygon fill="#63b8ff" stroke="#63b8ff" points="1063.84,-6.49 1053.87,-10.08 1063.9,-13.49 1063.84,-6.49"/>
</a>
</g>
</g>
<!-- Node23&#45;&gt;Node4 -->
<g id="edge35_Node000023_Node000004" class="edge">
<title>Node23&#45;&gt;Node4</title>
<g id="a_edge35_Node000023_Node000004"><a xlink:title=" ">
<path fill="none" stroke="#63b8ff" d="M265.19,-285.99C224.46,-275.76 169.99,-262.09 132.25,-252.61"/>
<polygon fill="#63b8ff" stroke="#63b8ff" points="132.62,-249.09 122.07,-250.05 130.91,-255.88 132.62,-249.09"/>
</a>
</g>
</g>
<!-- Node23&#45;&gt;Node19 -->
<g id="edge39_Node000023_Node000019" class="edge">
<title>Node23&#45;&gt;Node19</title>
<g id="a_edge39_Node000023_Node000019"><a xlink:title=" ">
<path fill="none" stroke="#63b8ff" d="M251.93,-291.56C226.26,-284.69 199.6,-272.3 184,-250 162.35,-219.04 163.02,-196.41 184,-165 230.51,-95.38 335.75,-74.41 390.1,-68.14"/>
<polygon fill="#63b8ff" stroke="#63b8ff" points="390.68,-71.6 400.26,-67.07 389.95,-64.64 390.68,-71.6"/>
</a>
</g>
</g>
<!-- Node24 -->
<g id="Node000024" class="node">
<title>Node24</title>
<g id="a_Node000024"><a xlink:href="site__index_8h.html" target="_top" xlink:title=" ">
<polygon fill="white" stroke="#666666" points="439.5,-250 308.5,-250 308.5,-231 439.5,-231 439.5,-250"/>
<text text-anchor="middle" x="374" y="-238" font-family="Helvetica,sans-Serif" font-size="10.00">occ/crystal/site_index.h</text>
</a>
</g>
</g>
<!-- Node23&#45;&gt;Node24 -->
<g id="edge36_Node000023_Node000024" class="edge">
<title>Node23&#45;&gt;Node24</title>
<g id="a_edge36_Node000023_Node000024"><a xlink:title=" ">
<path fill="none" stroke="#63b8ff" d="M333.83,-285.84C341.52,-277.35 351.33,-266.52 359.33,-257.69"/>
<polygon fill="#63b8ff" stroke="#63b8ff" points="361.94,-260.03 366.06,-250.27 356.75,-255.33 361.94,-260.03"/>
</a>
</g>
</g>
<!-- Node24&#45;&gt;Node5 -->
<g id="edge37_Node000024_Node000005" class="edge">
<title>Node24&#45;&gt;Node5</title>
<g id="a_edge37_Node000024_Node000005"><a xlink:title=" ">
<path fill="none" stroke="#63b8ff" d="M368.84,-230.87C363.77,-222.4 355.9,-209.24 349.51,-198.57"/>
<polygon fill="#63b8ff" stroke="#63b8ff" points="352.32,-196.45 344.19,-189.67 346.32,-200.05 352.32,-196.45"/>
</a>
</g>
</g>
<!-- Node24&#45;&gt;Node22 -->
<g id="edge38_Node000024_Node000022" class="edge">
<title>Node24&#45;&gt;Node22</title>
<g id="a_edge38_Node000024_Node000022"><a xlink:title=" ">
<path fill="none" stroke="#63b8ff" d="M439.54,-238.23C629.01,-234.26 1168.71,-220.8 1244,-195 1266.04,-187.45 1265.85,-174.78 1287,-165 1322.19,-148.72 1364.35,-137.61 1397.76,-130.56"/>
<polygon fill="#63b8ff" stroke="#63b8ff" points="1398.74,-133.93 1407.83,-128.5 1397.34,-127.07 1398.74,-133.93"/>
</a>
</g>
</g>
<!-- Node25&#45;&gt;Node18 -->
<g id="edge65_Node000025_Node000018" class="edge">
<title>Node25&#45;&gt;Node18</title>
<g id="a_edge65_Node000025_Node000018"><a xlink:title=" ">
<path fill="none" stroke="#63b8ff" d="M1036.06,-291.47C1096.34,-279.05 1200.68,-256.73 1206,-250 1211.24,-243.38 1210.82,-237.93 1206,-231 1179.74,-193.25 1148.14,-219.14 1109,-195 1056.82,-162.81 1007.13,-109.09 983.83,-82.08"/>
<polygon fill="#63b8ff" stroke="#63b8ff" points="986.36,-79.66 977.22,-74.31 981.03,-84.19 986.36,-79.66"/>
</a>
</g>
</g>
<!-- Node25&#45;&gt;Node19 -->
<g id="edge67_Node000025_Node000019" class="edge">
<title>Node25&#45;&gt;Node19</title>
<g id="a_edge67_Node000025_Node000019"><a xlink:title=" ">
<path fill="none" stroke="#63b8ff" d="M925.13,-295.02C826.36,-285.8 640.58,-260.61 497,-195 452.86,-174.83 431.59,-172.47 410,-129 402.8,-114.5 408.06,-96.31 414.08,-83.12"/>
<polygon fill="#63b8ff" stroke="#63b8ff" points="417.23,-84.66 418.64,-74.15 410.99,-81.48 417.23,-84.66"/>
</a>
</g>
</g>
<!-- Node25&#45;&gt;Node20 -->
<g id="edge66_Node000025_Node000020" class="edge">
<title>Node25&#45;&gt;Node20</title>
<g id="a_edge66_Node000025_Node000020"><a xlink:title=" ">
<path fill="none" stroke="#63b8ff" d="M933.89,-291.43C886.82,-283.35 826.9,-269.54 812,-250 777.91,-205.28 855.12,-156.51 898.73,-133.68"/>
<polygon fill="#63b8ff" stroke="#63b8ff" points="900.41,-136.75 907.72,-129.08 897.23,-130.51 900.41,-136.75"/>
</a>
</g>
</g>
<!-- Node25&#45;&gt;Node22 -->
<g id="edge43_Node000025_Node000022" class="edge">
<title>Node25&#45;&gt;Node22</title>
<g id="a_edge43_Node000025_Node000022"><a xlink:title=" ">
<path fill="none" stroke="#63b8ff" d="M1062.52,-296.52C1113.72,-291.5 1184.05,-279.34 1239,-250 1286.41,-224.69 1279.28,-193.25 1325,-165 1349.89,-149.62 1380.76,-138.8 1406.28,-131.68"/>
<polygon fill="#63b8ff" stroke="#63b8ff" points="1407.38,-135.01 1416.13,-129.04 1405.57,-128.25 1407.38,-135.01"/>
</a>
</g>
</g>
<!-- Node26 -->
<g id="Node000026" class="node">
<title>Node26</title>
<g id="a_Node000026"><a xlink:title=" ">
<polygon fill="#e0e0e0" stroke="#999999" points="1141,-250 1017,-250 1017,-231 1141,-231 1141,-250"/>
<text text-anchor="middle" x="1079" y="-238" font-family="Helvetica,sans-Serif" font-size="10.00">gemmi/symmetry.hpp</text>
</a>
</g>
</g>
<!-- Node25&#45;&gt;Node26 -->
<g id="edge41_Node000025_Node000026" class="edge">
<title>Node25&#45;&gt;Node26</title>
<g id="a_edge41_Node000025_Node000026"><a xlink:title=" ">
<path fill="none" stroke="#63b8ff" d="M1006.54,-291.37C1020.1,-282.04 1041.94,-267.01 1058.1,-255.88"/>
<polygon fill="#63b8ff" stroke="#63b8ff" points="1060.15,-258.72 1066.41,-250.17 1056.18,-252.95 1060.15,-258.72"/>
</a>
</g>
</g>
<!-- Node27 -->
<g id="Node000027" class="node">
<title>Node27</title>
<g id="a_Node000027"><a xlink:title=" ">
<polygon fill="#e0e0e0" stroke="#999999" points="1197,-250 1159,-250 1159,-231 1197,-231 1197,-250"/>
<text text-anchor="middle" x="1178" y="-238" font-family="Helvetica,sans-Serif" font-size="10.00">map</text>
</a>
</g>
</g>
<!-- Node25&#45;&gt;Node27 -->
<g id="edge42_Node000025_Node000027" class="edge">
<title>Node25&#45;&gt;Node27</title>
<g id="a_edge42_Node000025_Node000027"><a xlink:title=" ">
<path fill="none" stroke="#63b8ff" d="M1020.76,-291.49C1054.96,-280.62 1113.94,-261.87 1149.13,-250.68"/>
<polygon fill="#63b8ff" stroke="#63b8ff" points="1150.34,-253.97 1158.81,-247.6 1148.22,-247.3 1150.34,-253.97"/>
</a>
</g>
</g>
<!-- Node28 -->
<g id="Node000028" class="node">
<title>Node28</title>
<g id="a_Node000028"><a xlink:href="symmetryoperation_8h.html" target="_top" xlink:title=" ">
<polygon fill="white" stroke="#666666" points="999,-250 821,-250 821,-231 999,-231 999,-250"/>
<text text-anchor="middle" x="910" y="-238" font-family="Helvetica,sans-Serif" font-size="10.00">occ/crystal/symmetryoperation.h</text>
</a>
</g>
</g>
<!-- Node25&#45;&gt;Node28 -->
<g id="edge44_Node000025_Node000028" class="edge">
<title>Node25&#45;&gt;Node28</title>
<g id="a_edge44_Node000025_Node000028"><a xlink:title=" ">
<path fill="none" stroke="#63b8ff" d="M981.61,-291.37C968.21,-282.04 946.62,-267.01 930.65,-255.88"/>
<polygon fill="#63b8ff" stroke="#63b8ff" points="932.65,-253.01 922.45,-250.17 928.65,-258.75 932.65,-253.01"/>
</a>
</g>
</g>
<!-- Node28&#45;&gt;Node13 -->
<g id="edge45_Node000028_Node000013" class="edge">
<title>Node28&#45;&gt;Node13</title>
<g id="a_edge45_Node000028_Node000013"><a xlink:title=" ">
<path fill="none" stroke="#63b8ff" d="M918,-230.96C937.37,-209.22 983.28,-150.6 956,-110 945.32,-94.11 927.87,-83.89 910.03,-77.32"/>
<polygon fill="#63b8ff" stroke="#63b8ff" points="910.71,-73.86 900.12,-74.03 908.51,-80.5 910.71,-73.86"/>
</a>
</g>
</g>
<!-- Node28&#45;&gt;Node18 -->
<g id="edge64_Node000028_Node000018" class="edge">
<title>Node28&#45;&gt;Node18</title>
<g id="a_edge64_Node000028_Node000018"><a xlink:title=" ">
<path fill="none" stroke="#63b8ff" d="M940.27,-230.92C957.84,-224.21 978.52,-212.94 989,-195 1009.75,-159.5 991.67,-109.47 979.29,-83.2"/>
<polygon fill="#63b8ff" stroke="#63b8ff" points="982.34,-81.48 974.76,-74.08 976.07,-84.6 982.34,-81.48"/>
</a>
</g>
</g>
<!-- Node28&#45;&gt;Node29 -->
<g id="edge46_Node000028_Node000029" class="edge">
<title>Node28&#45;&gt;Node29</title>
<g id="a_edge46_Node000028_Node000029"><a xlink:title=" ">
<path fill="none" stroke="#63b8ff" d="M948.68,-230.99C995.96,-220.6 1076,-202.99 1127.4,-191.69"/>
<polygon fill="#63b8ff" stroke="#63b8ff" points="1128.26,-195.08 1137.27,-189.52 1126.76,-188.25 1128.26,-195.08"/>
</a>
</g>
</g>
<!-- Node29&#45;&gt;Node13 -->
<g id="edge47_Node000029_Node000013" class="edge">
<title>Node29&#45;&gt;Node13</title>
<g id="a_edge47_Node000029_Node000013"><a xlink:title=" ">
<path fill="none" stroke="#63b8ff" d="M1153.96,-170.46C1119.12,-157.06 1049.1,-130.49 989,-110 954.11,-98.1 914,-85.65 885.33,-76.95"/>
<polygon fill="#63b8ff" stroke="#63b8ff" points="886.28,-73.58 875.69,-74.03 884.25,-80.28 886.28,-73.58"/>
</a>
</g>
</g>
<!-- Node29&#45;&gt;Node18 -->
<g id="edge63_Node000029_Node000018" class="edge">
<title>Node29&#45;&gt;Node18</title>
<g id="a_edge63_Node000029_Node000018"><a xlink:title=" ">
<path fill="none" stroke="#63b8ff" d="M1168.85,-170.09C1156.75,-155.55 1130.82,-126.68 1103,-110 1085.78,-99.68 1035.54,-84.18 1001.98,-74.47"/>
<polygon fill="#63b8ff" stroke="#63b8ff" points="1002.73,-71.04 992.15,-71.65 1000.8,-77.77 1002.73,-71.04"/>
</a>
</g>
</g>
<!-- Node29&#45;&gt;Node22 -->
<g id="edge62_Node000029_Node000022" class="edge">
<title>Node29&#45;&gt;Node22</title>
<g id="a_edge62_Node000029_Node000022"><a xlink:title=" ">
<path fill="none" stroke="#63b8ff" d="M1216.71,-170.49C1266.59,-160.07 1351.09,-142.42 1405.18,-131.12"/>
<polygon fill="#63b8ff" stroke="#63b8ff" points="1406.16,-134.49 1415.24,-129.02 1404.73,-127.64 1406.16,-134.49"/>
</a>
</g>
</g>
<!-- Node30 -->
<g id="Node000030" class="node">
<title>Node30</title>
<g id="a_Node000030"><a xlink:href="units_8h.html" target="_top" xlink:title=" ">
<polygon fill="white" stroke="#666666" points="1389.5,-129 1296.5,-129 1296.5,-110 1389.5,-110 1389.5,-129"/>
<text text-anchor="middle" x="1343" y="-117" font-family="Helvetica,sans-Serif" font-size="10.00">occ/core/units.h</text>
</a>
</g>
</g>
<!-- Node29&#45;&gt;Node30 -->
<g id="edge48_Node000029_Node000030" class="edge">
<title>Node29&#45;&gt;Node30</title>
<g id="a_edge48_Node000029_Node000030"><a xlink:title=" ">
<path fill="none" stroke="#63b8ff" d="M1200.28,-170.49C1228.98,-160.44 1276.89,-143.66 1309.2,-132.34"/>
<polygon fill="#63b8ff" stroke="#63b8ff" points="1310.41,-135.63 1318.69,-129.02 1308.09,-129.02 1310.41,-135.63"/>
</a>
</g>
</g>
<!-- Node33 -->
<g id="Node000033" class="node">
<title>Node33</title>
<g id="a_Node000033"><a xlink:href="util_8h.html" target="_top" xlink:title=" ">
<polygon fill="white" stroke="#666666" points="1278.5,-129 1193.5,-129 1193.5,-110 1278.5,-110 1278.5,-129"/>
<text text-anchor="middle" x="1236" y="-117" font-family="Helvetica,sans-Serif" font-size="10.00">occ/core/util.h</text>
</a>
</g>
</g>
<!-- Node29&#45;&gt;Node33 -->
<g id="edge51_Node000029_Node000033" class="edge">
<title>Node29&#45;&gt;Node33</title>
<g id="a_edge51_Node000029_Node000033"><a xlink:title=" ">
<path fill="none" stroke="#63b8ff" d="M1184.85,-170.37C1193.98,-161.47 1208.42,-147.39 1219.64,-136.45"/>
<polygon fill="#63b8ff" stroke="#63b8ff" points="1222.39,-138.65 1227.11,-129.17 1217.51,-133.64 1222.39,-138.65"/>
</a>
</g>
</g>
<!-- Node31 -->
<g id="Node000031" class="node">
<title>Node31</title>
<g id="a_Node000031"><a xlink:title=" ">
<polygon fill="#e0e0e0" stroke="#999999" points="1689.5,-74 1642.5,-74 1642.5,-55 1689.5,-55 1689.5,-74"/>
<text text-anchor="middle" x="1666" y="-62" font-family="Helvetica,sans-Serif" font-size="10.00">cmath</text>
</a>
</g>
</g>
<!-- Node30&#45;&gt;Node31 -->
<g id="edge49_Node000030_Node000031" class="edge">
<title>Node30&#45;&gt;Node31</title>
<g id="a_edge49_Node000030_Node000031"><a xlink:title=" ">
<path fill="none" stroke="#63b8ff" d="M1389.71,-111.39C1461.24,-100.5 1593.09,-80.4 1632.23,-73.74"/>
<polygon fill="#63b8ff" stroke="#63b8ff" points="1633.06,-77.14 1642.27,-71.91 1631.81,-70.26 1633.06,-77.14"/>
</a>
</g>
</g>
<!-- Node32 -->
<g id="Node000032" class="node">
<title>Node32</title>
<g id="a_Node000032"><a xlink:href="constants_8h.html" target="_top" xlink:title=" ">
<polygon fill="white" stroke="#666666" points="1624,-74 1508,-74 1508,-55 1624,-55 1624,-74"/>
<text text-anchor="middle" x="1566" y="-62" font-family="Helvetica,sans-Serif" font-size="10.00">occ/core/constants.h</text>
</a>
</g>
</g>
<!-- Node30&#45;&gt;Node32 -->
<g id="edge50_Node000030_Node000032" class="edge">
<title>Node30&#45;&gt;Node32</title>
<g id="a_edge50_Node000030_Node000032"><a xlink:title=" ">
<path fill="none" stroke="#63b8ff" d="M1378.83,-109.98C1417.16,-100.87 1478.08,-86.4 1519.95,-76.45"/>
<polygon fill="#63b8ff" stroke="#63b8ff" points="1520.97,-79.8 1529.89,-74.08 1519.35,-72.99 1520.97,-79.8"/>
</a>
</g>
</g>
<!-- Node33&#45;&gt;Node13 -->
<g id="edge59_Node000033_Node000013" class="edge">
<title>Node33&#45;&gt;Node13</title>
<g id="a_edge59_Node000033_Node000013"><a xlink:title=" ">
<path fill="none" stroke="#63b8ff" d="M1193.26,-112.68C1127.39,-103.7 1000.28,-86.38 919.75,-75.41"/>
<polygon fill="#63b8ff" stroke="#63b8ff" points="920.06,-71.92 909.68,-74.04 919.11,-78.86 920.06,-71.92"/>
</a>
</g>
</g>
<!-- Node33&#45;&gt;Node16 -->
<g id="edge55_Node000033_Node000016" class="edge">
<title>Node33&#45;&gt;Node16</title>
<g id="a_edge55_Node000033_Node000016"><a xlink:title=" ">
<path fill="none" stroke="#63b8ff" d="M1193.15,-111.18C1138.66,-101.52 1050.24,-84.5 1039,-74 1026.79,-62.6 1022.32,-43.7 1020.73,-29.48"/>
<polygon fill="#63b8ff" stroke="#63b8ff" points="1024.21,-29.03 1019.99,-19.31 1017.23,-29.54 1024.21,-29.03"/>
</a>
</g>
</g>
<!-- Node33&#45;&gt;Node18 -->
<g id="edge60_Node000033_Node000018" class="edge">
<title>Node33&#45;&gt;Node18</title>
<g id="a_edge60_Node000033_Node000018"><a xlink:title=" ">
<path fill="none" stroke="#63b8ff" d="M1193.08,-110.74C1146.8,-102.24 1071.02,-87.96 1006,-74 1004.73,-73.73 1003.43,-73.44 1002.13,-73.15"/>
<polygon fill="#63b8ff" stroke="#63b8ff" points="1002.58,-69.67 992.05,-70.86 1001.02,-76.49 1002.58,-69.67"/>
</a>
</g>
</g>
<!-- Node33&#45;&gt;Node19 -->
<g id="edge61_Node000033_Node000019" class="edge">
<title>Node33&#45;&gt;Node19</title>
<g id="a_edge61_Node000033_Node000019"><a xlink:title=" ">
<path fill="none" stroke="#63b8ff" d="M1193.49,-115.73C1050.18,-106.37 586.61,-76.11 457.59,-67.69"/>
<polygon fill="#63b8ff" stroke="#63b8ff" points="457.73,-64.19 447.52,-67.04 457.27,-71.18 457.73,-64.19"/>
</a>
</g>
</g>
<!-- Node34 -->
<g id="Node000034" class="node">
<title>Node34</title>
<g id="a_Node000034"><a xlink:title=" ">
<polygon fill="#e0e0e0" stroke="#999999" points="1186,-74 1122,-74 1122,-55 1186,-55 1186,-74"/>
<text text-anchor="middle" x="1154" y="-62" font-family="Helvetica,sans-Serif" font-size="10.00">algorithm</text>
</a>
</g>
</g>
<!-- Node33&#45;&gt;Node34 -->
<g id="edge52_Node000033_Node000034" class="edge">
<title>Node33&#45;&gt;Node34</title>
<g id="a_edge52_Node000033_Node000034"><a xlink:title=" ">
<path fill="none" stroke="#63b8ff" d="M1222.83,-109.98C1210.23,-101.84 1191,-89.41 1176.06,-79.76"/>
<polygon fill="#63b8ff" stroke="#63b8ff" points="1177.71,-76.66 1167.41,-74.17 1173.91,-82.54 1177.71,-76.66"/>
</a>
</g>
</g>
<!-- Node35 -->
<g id="Node000035" class="node">
<title>Node35</title>
<g id="a_Node000035"><a xlink:title=" ">
<polygon fill="#e0e0e0" stroke="#999999" points="1253.5,-74 1204.5,-74 1204.5,-55 1253.5,-55 1253.5,-74"/>
<text text-anchor="middle" x="1229" y="-62" font-family="Helvetica,sans-Serif" font-size="10.00">cctype</text>
</a>
</g>
</g>
<!-- Node33&#45;&gt;Node35 -->
<g id="edge53_Node000033_Node000035" class="edge">
<title>Node33&#45;&gt;Node35</title>
<g id="a_edge53_Node000033_Node000035"><a xlink:title=" ">
<path fill="none" stroke="#63b8ff" d="M1234.84,-109.75C1233.93,-102.8 1232.61,-92.85 1231.46,-84.13"/>
<polygon fill="#63b8ff" stroke="#63b8ff" points="1234.91,-83.54 1230.13,-74.09 1227.97,-84.46 1234.91,-83.54"/>
</a>
</g>
</g>
<!-- Node36 -->
<g id="Node000036" class="node">
<title>Node36</title>
<g id="a_Node000036"><a xlink:title=" ">
<polygon fill="#e0e0e0" stroke="#999999" points="1322,-74 1272,-74 1272,-55 1322,-55 1322,-74"/>
<text text-anchor="middle" x="1297" y="-62" font-family="Helvetica,sans-Serif" font-size="10.00">chrono</text>
</a>
</g>
</g>
<!-- Node33&#45;&gt;Node36 -->
<g id="edge54_Node000033_Node000036" class="edge">
<title>Node33&#45;&gt;Node36</title>
<g id="a_edge54_Node000033_Node000036"><a xlink:title=" ">
<path fill="none" stroke="#63b8ff" d="M1245.8,-109.98C1254.82,-102.15 1268.41,-90.34 1279.32,-80.86"/>
<polygon fill="#63b8ff" stroke="#63b8ff" points="1281.77,-83.37 1287.02,-74.17 1277.18,-78.09 1281.77,-83.37"/>
</a>
</g>
</g>
<!-- Node37 -->
<g id="Node000037" class="node">
<title>Node37</title>
<g id="a_Node000037"><a xlink:title=" ">
<polygon fill="#e0e0e0" stroke="#999999" points="1426,-74 1340,-74 1340,-55 1426,-55 1426,-74"/>
<text text-anchor="middle" x="1383" y="-62" font-family="Helvetica,sans-Serif" font-size="10.00">fmt/ostream.h</text>
</a>
</g>
</g>
<!-- Node33&#45;&gt;Node37 -->
<g id="edge56_Node000033_Node000037" class="edge">
<title>Node33&#45;&gt;Node37</title>
<g id="a_edge56_Node000033_Node000037"><a xlink:title=" ">
<path fill="none" stroke="#63b8ff" d="M1259.62,-109.98C1283.9,-101.23 1321.95,-87.51 1349.37,-77.62"/>
<polygon fill="#63b8ff" stroke="#63b8ff" points="1350.73,-80.85 1358.95,-74.17 1348.36,-74.27 1350.73,-80.85"/>
</a>
</g>
</g>
<!-- Node38 -->
<g id="Node000038" class="node">
<title>Node38</title>
<g id="a_Node000038"><a xlink:title=" ">
<polygon fill="#e0e0e0" stroke="#999999" points="1490,-74 1444,-74 1444,-55 1490,-55 1490,-74"/>
<text text-anchor="middle" x="1467" y="-62" font-family="Helvetica,sans-Serif" font-size="10.00">locale</text>
</a>
</g>
</g>
<!-- Node33&#45;&gt;Node38 -->
<g id="edge57_Node000033_Node000038" class="edge">
<title>Node33&#45;&gt;Node38</title>
<g id="a_edge57_Node000033_Node000038"><a xlink:title=" ">
<path fill="none" stroke="#63b8ff" d="M1276.51,-109.93C1314.67,-101.75 1373.69,-88.82 1433.89,-74.2"/>
<polygon fill="#63b8ff" stroke="#63b8ff" points="1435.07,-77.51 1443.96,-71.74 1433.41,-70.71 1435.07,-77.51"/>
</a>
</g>
</g>
<!-- Node39 -->
<g id="Node000039" class="node">
<title>Node39</title>
<g id="a_Node000039"><a xlink:title=" ">
<polygon fill="#e0e0e0" stroke="#999999" points="1104,-74 1048,-74 1048,-55 1104,-55 1104,-74"/>
<text text-anchor="middle" x="1076" y="-62" font-family="Helvetica,sans-Serif" font-size="10.00">numeric</text>
</a>
</g>
</g>
<!-- Node33&#45;&gt;Node39 -->
<g id="edge58_Node000033_Node000039" class="edge">
<title>Node33&#45;&gt;Node39</title>
<g id="a_edge58_Node000033_Node000039"><a xlink:title=" ">
<path fill="none" stroke="#63b8ff" d="M1210.29,-109.98C1183.55,-101.13 1141.47,-87.19 1111.55,-77.28"/>
<polygon fill="#63b8ff" stroke="#63b8ff" points="1112.5,-73.9 1101.91,-74.08 1110.3,-80.55 1112.5,-73.9"/>
</a>
</g>
</g>
</g>
</svg>
