<?xml version="1.0" encoding="UTF-8" standalone="no"?>
<!DOCTYPE svg PUBLIC "-//W3C//DTD SVG 1.1//EN"
 "http://www.w3.org/Graphics/SVG/1.1/DTD/svg11.dtd">
<!-- Generated by graphviz version 2.43.0 (0)
 -->
<!-- Title: /home/runner/work/occ/occ/include/occ/qm/cint_interface.h Pages: 1 -->
<svg width="1077pt" height="324pt"
 viewBox="0.00 0.00 1076.82 324.00" xmlns="http://www.w3.org/2000/svg" xmlns:xlink="http://www.w3.org/1999/xlink">
<g id="graph0" class="graph" transform="scale(1 1) rotate(0) translate(4 320)">
<title>/home/runner/work/occ/occ/include/occ/qm/cint_interface.h</title>
<!-- Node1 -->
<g id="Node000001" class="node">
<title>Node1</title>
<g id="a_Node000001"><a xlink:title=" ">
<polygon fill="#999999" stroke="#666666" points="418,-316 284,-316 284,-275 418,-275 418,-316"/>
<text text-anchor="start" x="292" y="-304" font-family="Helvetica,sans-Serif" font-size="10.00">/home/runner/work/occ</text>
<text text-anchor="start" x="292" y="-293" font-family="Helvetica,sans-Serif" font-size="10.00">/occ/include/occ/qm/cint</text>
<text text-anchor="middle" x="351" y="-282" font-family="Helvetica,sans-Serif" font-size="10.00">_interface.h</text>
</a>
</g>
</g>
<!-- Node2 -->
<g id="Node000002" class="node">
<title>Node2</title>
<g id="a_Node000002"><a xlink:href="multipole_8h.html" target="_top" xlink:title=" ">
<polygon fill="white" stroke="#666666" points="116,-184 0,-184 0,-165 116,-165 116,-184"/>
<text text-anchor="middle" x="58" y="-172" font-family="Helvetica,sans-Serif" font-size="10.00">occ/core/multipole.h</text>
</a>
</g>
</g>
<!-- Node1&#45;&gt;Node2 -->
<g id="edge1_Node000001_Node000002" class="edge">
<title>Node1&#45;&gt;Node2</title>
<g id="a_edge1_Node000001_Node000002"><a xlink:title=" ">
<path fill="none" stroke="#63b8ff" d="M302.95,-274.98C242.22,-250.32 139.48,-208.59 88.53,-187.9"/>
<polygon fill="#63b8ff" stroke="#63b8ff" points="89.64,-184.57 79.06,-184.05 87.01,-191.06 89.64,-184.57"/>
</a>
</g>
</g>
<!-- Node9 -->
<g id="Node000009" class="node">
<title>Node9</title>
<g id="a_Node000009"><a xlink:href="shell_8h.html" target="_top" xlink:title=" ">
<polygon fill="white" stroke="#666666" points="394.5,-239 307.5,-239 307.5,-220 394.5,-220 394.5,-239"/>
<text text-anchor="middle" x="351" y="-227" font-family="Helvetica,sans-Serif" font-size="10.00">occ/qm/shell.h</text>
</a>
</g>
</g>
<!-- Node1&#45;&gt;Node9 -->
<g id="edge8_Node000001_Node000009" class="edge">
<title>Node1&#45;&gt;Node9</title>
<g id="a_edge8_Node000001_Node000009"><a xlink:title=" ">
<path fill="none" stroke="#63b8ff" d="M351,-274.95C351,-266.85 351,-257.5 351,-249.47"/>
<polygon fill="#63b8ff" stroke="#63b8ff" points="354.5,-249.26 351,-239.26 347.5,-249.26 354.5,-249.26"/>
</a>
</g>
</g>
<!-- Node21 -->
<g id="Node000021" class="node">
<title>Node21</title>
<g id="a_Node000021"><a xlink:title=" ">
<polygon fill="#e0e0e0" stroke="#999999" points="565,-239 413,-239 413,-220 565,-220 565,-239"/>
<text text-anchor="middle" x="489" y="-227" font-family="Helvetica,sans-Serif" font-size="10.00">occ/3rdparty/cint_wrapper.h</text>
</a>
</g>
</g>
<!-- Node1&#45;&gt;Node21 -->
<g id="edge30_Node000001_Node000021" class="edge">
<title>Node1&#45;&gt;Node21</title>
<g id="a_edge30_Node000001_Node000021"><a xlink:title=" ">
<path fill="none" stroke="#63b8ff" d="M393.15,-274.95C415.26,-264.7 441.72,-252.43 461.23,-243.38"/>
<polygon fill="#63b8ff" stroke="#63b8ff" points="462.87,-246.47 470.47,-239.09 459.93,-240.12 462.87,-246.47"/>
</a>
</g>
</g>
<!-- Node3 -->
<g id="Node000003" class="node">
<title>Node3</title>
<g id="a_Node000003"><a xlink:title=" ">
<polygon fill="#e0e0e0" stroke="#999999" points="178,-129 136,-129 136,-110 178,-110 178,-129"/>
<text text-anchor="middle" x="157" y="-117" font-family="Helvetica,sans-Serif" font-size="10.00">array</text>
</a>
</g>
</g>
<!-- Node2&#45;&gt;Node3 -->
<g id="edge2_Node000002_Node000003" class="edge">
<title>Node2&#45;&gt;Node3</title>
<g id="a_edge2_Node000002_Node000003"><a xlink:title=" ">
<path fill="none" stroke="#63b8ff" d="M73.91,-164.98C89.55,-156.61 113.66,-143.7 131.88,-133.95"/>
<polygon fill="#63b8ff" stroke="#63b8ff" points="133.64,-136.98 140.8,-129.17 130.34,-130.8 133.64,-136.98"/>
</a>
</g>
</g>
<!-- Node4 -->
<g id="Node000004" class="node">
<title>Node4</title>
<g id="a_Node000004"><a xlink:title=" ">
<polygon fill="#e0e0e0" stroke="#999999" points="79.5,-129 0.5,-129 0.5,-110 79.5,-110 79.5,-129"/>
<text text-anchor="middle" x="40" y="-117" font-family="Helvetica,sans-Serif" font-size="10.00">fmt/format.h</text>
</a>
</g>
</g>
<!-- Node2&#45;&gt;Node4 -->
<g id="edge3_Node000002_Node000004" class="edge">
<title>Node2&#45;&gt;Node4</title>
<g id="a_edge3_Node000002_Node000004"><a xlink:title=" ">
<path fill="none" stroke="#63b8ff" d="M55.03,-164.75C52.64,-157.72 49.21,-147.62 46.23,-138.84"/>
<polygon fill="#63b8ff" stroke="#63b8ff" points="49.45,-137.43 42.92,-129.09 42.82,-139.68 49.45,-137.43"/>
</a>
</g>
</g>
<!-- Node5 -->
<g id="Node000005" class="node">
<title>Node5</title>
<g id="a_Node000005"><a xlink:href="linear__algebra_8h.html" target="_top" xlink:title=" ">
<polygon fill="white" stroke="#666666" points="401.5,-74 262.5,-74 262.5,-55 401.5,-55 401.5,-74"/>
<text text-anchor="middle" x="332" y="-62" font-family="Helvetica,sans-Serif" font-size="10.00">occ/core/linear_algebra.h</text>
</a>
</g>
</g>
<!-- Node2&#45;&gt;Node5 -->
<g id="edge4_Node000002_Node000005" class="edge">
<title>Node2&#45;&gt;Node5</title>
<g id="a_edge4_Node000002_Node000005"><a xlink:title=" ">
<path fill="none" stroke="#63b8ff" d="M64.63,-164.98C75.88,-151.15 100.12,-123.95 127,-110 165.66,-89.93 212.93,-78.9 252.34,-72.85"/>
<polygon fill="#63b8ff" stroke="#63b8ff" points="253.05,-76.28 262.44,-71.38 252.04,-69.35 253.05,-76.28"/>
</a>
</g>
</g>
<!-- Node6 -->
<g id="Node000006" class="node">
<title>Node6</title>
<g id="a_Node000006"><a xlink:title=" ">
<polygon fill="#e0e0e0" stroke="#999999" points="422.5,-19 345.5,-19 345.5,0 422.5,0 422.5,-19"/>
<text text-anchor="middle" x="384" y="-7" font-family="Helvetica,sans-Serif" font-size="10.00">Eigen/Dense</text>
</a>
</g>
</g>
<!-- Node5&#45;&gt;Node6 -->
<g id="edge5_Node000005_Node000006" class="edge">
<title>Node5&#45;&gt;Node6</title>
<g id="a_edge5_Node000005_Node000006"><a xlink:title=" ">
<path fill="none" stroke="#63b8ff" d="M340.59,-54.75C348.16,-47.03 359.38,-35.6 368.51,-26.28"/>
<polygon fill="#63b8ff" stroke="#63b8ff" points="371.07,-28.68 375.57,-19.09 366.07,-23.78 371.07,-28.68"/>
</a>
</g>
</g>
<!-- Node7 -->
<g id="Node000007" class="node">
<title>Node7</title>
<g id="a_Node000007"><a xlink:title=" ">
<polygon fill="#e0e0e0" stroke="#999999" points="327.5,-19 234.5,-19 234.5,0 327.5,0 327.5,-19"/>
<text text-anchor="middle" x="281" y="-7" font-family="Helvetica,sans-Serif" font-size="10.00">Eigen/StdVector</text>
</a>
</g>
</g>
<!-- Node5&#45;&gt;Node7 -->
<g id="edge6_Node000005_Node000007" class="edge">
<title>Node5&#45;&gt;Node7</title>
<g id="a_edge6_Node000005_Node000007"><a xlink:title=" ">
<path fill="none" stroke="#63b8ff" d="M323.58,-54.75C316.23,-47.11 305.37,-35.82 296.46,-26.56"/>
<polygon fill="#63b8ff" stroke="#63b8ff" points="298.72,-23.87 289.26,-19.09 293.68,-28.72 298.72,-23.87"/>
</a>
</g>
</g>
<!-- Node8 -->
<g id="Node000008" class="node">
<title>Node8</title>
<g id="a_Node000008"><a xlink:title=" ">
<polygon fill="#e0e0e0" stroke="#999999" points="721.5,-19 654.5,-19 654.5,0 721.5,0 721.5,-19"/>
<text text-anchor="middle" x="688" y="-7" font-family="Helvetica,sans-Serif" font-size="10.00">fmt/core.h</text>
</a>
</g>
</g>
<!-- Node5&#45;&gt;Node8 -->
<g id="edge7_Node000005_Node000008" class="edge">
<title>Node5&#45;&gt;Node8</title>
<g id="a_edge7_Node000005_Node000008"><a xlink:title=" ">
<path fill="none" stroke="#63b8ff" d="M389.2,-54.98C460.13,-44.42 579.53,-26.65 643.83,-17.08"/>
<polygon fill="#63b8ff" stroke="#63b8ff" points="644.66,-20.49 654.03,-15.56 643.63,-13.57 644.66,-20.49"/>
</a>
</g>
</g>
<!-- Node9&#45;&gt;Node3 -->
<g id="edge9_Node000009_Node000003" class="edge">
<title>Node9&#45;&gt;Node3</title>
<g id="a_edge9_Node000009_Node000003"><a xlink:title=" ">
<path fill="none" stroke="#63b8ff" d="M307.07,-223.98C257.58,-217.92 181.61,-205.38 163,-184 152.44,-171.87 151.93,-153.08 153.47,-139.08"/>
<polygon fill="#63b8ff" stroke="#63b8ff" points="156.94,-139.51 154.98,-129.1 150.02,-138.46 156.94,-139.51"/>
</a>
</g>
</g>
<!-- Node9&#45;&gt;Node5 -->
<g id="edge13_Node000009_Node000005" class="edge">
<title>Node9&#45;&gt;Node5</title>
<g id="a_edge13_Node000009_Node000005"><a xlink:title=" ">
<path fill="none" stroke="#63b8ff" d="M352.18,-219.76C354.61,-199.96 359.25,-150.31 351,-110 349.11,-100.74 345.21,-91.03 341.43,-83.04"/>
<polygon fill="#63b8ff" stroke="#63b8ff" points="344.51,-81.37 336.88,-74.02 338.26,-84.53 344.51,-81.37"/>
</a>
</g>
</g>
<!-- Node9&#45;&gt;Node8 -->
<g id="edge10_Node000009_Node000008" class="edge">
<title>Node9&#45;&gt;Node8</title>
<g id="a_edge10_Node000009_Node000008"><a xlink:title=" ">
<path fill="none" stroke="#63b8ff" d="M394.64,-221.26C397.8,-220.81 400.95,-220.38 404,-220 548.5,-201.87 961.61,-242.39 1053,-129 1139.66,-21.48 846.7,-10.39 732.05,-10.06"/>
<polygon fill="#63b8ff" stroke="#63b8ff" points="731.85,-6.56 721.85,-10.06 731.85,-13.56 731.85,-6.56"/>
</a>
</g>
</g>
<!-- Node10 -->
<g id="Node000010" class="node">
<title>Node10</title>
<g id="a_Node000010"><a xlink:href="atom_8h.html" target="_top" xlink:title=" ">
<polygon fill="white" stroke="#666666" points="341.5,-129 246.5,-129 246.5,-110 341.5,-110 341.5,-129"/>
<text text-anchor="middle" x="294" y="-117" font-family="Helvetica,sans-Serif" font-size="10.00">occ/core/atom.h</text>
</a>
</g>
</g>
<!-- Node9&#45;&gt;Node10 -->
<g id="edge11_Node000009_Node000010" class="edge">
<title>Node9&#45;&gt;Node10</title>
<g id="a_edge11_Node000009_Node000010"><a xlink:title=" ">
<path fill="none" stroke="#63b8ff" d="M346.34,-219.66C336.94,-201.85 315.57,-161.37 303.24,-138.01"/>
<polygon fill="#63b8ff" stroke="#63b8ff" points="306.33,-136.37 298.57,-129.16 300.14,-139.64 306.33,-136.37"/>
</a>
</g>
</g>
<!-- Node11 -->
<g id="Node000011" class="node">
<title>Node11</title>
<g id="a_Node000011"><a xlink:href="point__charge_8h.html" target="_top" xlink:title=" ">
<polygon fill="white" stroke="#666666" points="304,-184 172,-184 172,-165 304,-165 304,-184"/>
<text text-anchor="middle" x="238" y="-172" font-family="Helvetica,sans-Serif" font-size="10.00">occ/core/point_charge.h</text>
</a>
</g>
</g>
<!-- Node9&#45;&gt;Node11 -->
<g id="edge14_Node000009_Node000011" class="edge">
<title>Node9&#45;&gt;Node11</title>
<g id="a_edge14_Node000009_Node000011"><a xlink:title=" ">
<path fill="none" stroke="#63b8ff" d="M332.84,-219.98C314.75,-211.5 286.72,-198.35 265.81,-188.54"/>
<polygon fill="#63b8ff" stroke="#63b8ff" points="267.03,-185.25 256.49,-184.17 264.05,-191.59 267.03,-185.25"/>
</a>
</g>
</g>
<!-- Node12 -->
<g id="Node000012" class="node">
<title>Node12</title>
<g id="a_Node000012"><a xlink:href="util_8h.html" target="_top" xlink:title=" ">
<polygon fill="white" stroke="#666666" points="730.5,-184 645.5,-184 645.5,-165 730.5,-165 730.5,-184"/>
<text text-anchor="middle" x="688" y="-172" font-family="Helvetica,sans-Serif" font-size="10.00">occ/core/util.h</text>
</a>
</g>
</g>
<!-- Node9&#45;&gt;Node12 -->
<g id="edge18_Node000009_Node000012" class="edge">
<title>Node9&#45;&gt;Node12</title>
<g id="a_edge18_Node000009_Node000012"><a xlink:title=" ">
<path fill="none" stroke="#63b8ff" d="M394.67,-221.48C397.83,-220.98 400.96,-220.48 404,-220 484.51,-207.24 577.89,-192.65 634.95,-183.75"/>
<polygon fill="#63b8ff" stroke="#63b8ff" points="635.83,-187.16 645.17,-182.16 634.75,-180.24 635.83,-187.16"/>
</a>
</g>
</g>
<!-- Node20 -->
<g id="Node000020" class="node">
<title>Node20</title>
<g id="a_Node000020"><a xlink:title=" ">
<polygon fill="#e0e0e0" stroke="#999999" points="1043.5,-129 996.5,-129 996.5,-110 1043.5,-110 1043.5,-129"/>
<text text-anchor="middle" x="1020" y="-117" font-family="Helvetica,sans-Serif" font-size="10.00">vector</text>
</a>
</g>
</g>
<!-- Node9&#45;&gt;Node20 -->
<g id="edge29_Node000009_Node000020" class="edge">
<title>Node9&#45;&gt;Node20</title>
<g id="a_edge29_Node000009_Node000020"><a xlink:title=" ">
<path fill="none" stroke="#63b8ff" d="M394.65,-221.31C397.81,-220.85 400.95,-220.41 404,-220 552.86,-200.1 591.8,-208.36 740,-184 829.92,-169.22 934.2,-143.17 986.48,-129.48"/>
<polygon fill="#63b8ff" stroke="#63b8ff" points="987.44,-132.84 996.22,-126.91 985.66,-126.07 987.44,-132.84"/>
</a>
</g>
</g>
<!-- Node10&#45;&gt;Node5 -->
<g id="edge12_Node000010_Node000005" class="edge">
<title>Node10&#45;&gt;Node5</title>
<g id="a_edge12_Node000010_Node000005"><a xlink:title=" ">
<path fill="none" stroke="#63b8ff" d="M300.27,-109.75C305.59,-102.34 313.36,-91.5 319.88,-82.41"/>
<polygon fill="#63b8ff" stroke="#63b8ff" points="322.86,-84.26 325.84,-74.09 317.17,-80.18 322.86,-84.26"/>
</a>
</g>
</g>
<!-- Node11&#45;&gt;Node3 -->
<g id="edge15_Node000011_Node000003" class="edge">
<title>Node11&#45;&gt;Node3</title>
<g id="a_edge15_Node000011_Node000003"><a xlink:title=" ">
<path fill="none" stroke="#63b8ff" d="M224.99,-164.98C212.54,-156.84 193.54,-144.41 178.79,-134.76"/>
<polygon fill="#63b8ff" stroke="#63b8ff" points="180.54,-131.72 170.25,-129.17 176.7,-137.57 180.54,-131.72"/>
</a>
</g>
</g>
<!-- Node11&#45;&gt;Node5 -->
<g id="edge17_Node000011_Node000005" class="edge">
<title>Node11&#45;&gt;Node5</title>
<g id="a_edge17_Node000011_Node000005"><a xlink:title=" ">
<path fill="none" stroke="#63b8ff" d="M235.1,-164.89C231.28,-151.88 226.23,-126.93 237,-110 246.88,-94.45 263.79,-84.25 280.62,-77.58"/>
<polygon fill="#63b8ff" stroke="#63b8ff" points="282.24,-80.72 290.47,-74.06 279.88,-74.13 282.24,-80.72"/>
</a>
</g>
</g>
<!-- Node11&#45;&gt;Node10 -->
<g id="edge16_Node000011_Node000010" class="edge">
<title>Node11&#45;&gt;Node10</title>
<g id="a_edge16_Node000011_Node000010"><a xlink:title=" ">
<path fill="none" stroke="#63b8ff" d="M247,-164.98C255.19,-157.23 267.51,-145.58 277.47,-136.14"/>
<polygon fill="#63b8ff" stroke="#63b8ff" points="279.98,-138.59 284.84,-129.17 275.17,-133.5 279.98,-138.59"/>
</a>
</g>
</g>
<!-- Node12&#45;&gt;Node5 -->
<g id="edge26_Node000012_Node000005" class="edge">
<title>Node12&#45;&gt;Node5</title>
<g id="a_edge26_Node000012_Node000005"><a xlink:title=" ">
<path fill="none" stroke="#63b8ff" d="M645.4,-171.69C592.48,-168.23 500.24,-158.17 427,-129 397.54,-117.27 367.83,-95.43 349.67,-80.68"/>
<polygon fill="#63b8ff" stroke="#63b8ff" points="351.66,-77.78 341.74,-74.08 347.19,-83.17 351.66,-77.78"/>
</a>
</g>
</g>
<!-- Node12&#45;&gt;Node8 -->
<g id="edge22_Node000012_Node000008" class="edge">
<title>Node12&#45;&gt;Node8</title>
<g id="a_edge22_Node000012_Node000008"><a xlink:title=" ">
<path fill="none" stroke="#63b8ff" d="M688,-164.74C688,-139.31 688,-65.08 688,-29.69"/>
<polygon fill="#63b8ff" stroke="#63b8ff" points="691.5,-29.31 688,-19.31 684.5,-29.31 691.5,-29.31"/>
</a>
</g>
</g>
<!-- Node13 -->
<g id="Node000013" class="node">
<title>Node13</title>
<g id="a_Node000013"><a xlink:title=" ">
<polygon fill="#e0e0e0" stroke="#999999" points="842,-129 778,-129 778,-110 842,-110 842,-129"/>
<text text-anchor="middle" x="810" y="-117" font-family="Helvetica,sans-Serif" font-size="10.00">algorithm</text>
</a>
</g>
</g>
<!-- Node12&#45;&gt;Node13 -->
<g id="edge19_Node000012_Node000013" class="edge">
<title>Node12&#45;&gt;Node13</title>
<g id="a_edge19_Node000012_Node000013"><a xlink:title=" ">
<path fill="none" stroke="#63b8ff" d="M707.6,-164.98C727.32,-156.42 757.95,-143.11 780.58,-133.28"/>
<polygon fill="#63b8ff" stroke="#63b8ff" points="782.26,-136.37 790.04,-129.17 779.48,-129.94 782.26,-136.37"/>
</a>
</g>
</g>
<!-- Node14 -->
<g id="Node000014" class="node">
<title>Node14</title>
<g id="a_Node000014"><a xlink:title=" ">
<polygon fill="#e0e0e0" stroke="#999999" points="909.5,-129 860.5,-129 860.5,-110 909.5,-110 909.5,-129"/>
<text text-anchor="middle" x="885" y="-117" font-family="Helvetica,sans-Serif" font-size="10.00">cctype</text>
</a>
</g>
</g>
<!-- Node12&#45;&gt;Node14 -->
<g id="edge20_Node000012_Node000014" class="edge">
<title>Node12&#45;&gt;Node14</title>
<g id="a_edge20_Node000012_Node000014"><a xlink:title=" ">
<path fill="none" stroke="#63b8ff" d="M719.65,-164.98C755.44,-155.36 813.53,-139.73 850.46,-129.79"/>
<polygon fill="#63b8ff" stroke="#63b8ff" points="851.54,-133.13 860.29,-127.15 849.72,-126.37 851.54,-133.13"/>
</a>
</g>
</g>
<!-- Node15 -->
<g id="Node000015" class="node">
<title>Node15</title>
<g id="a_Node000015"><a xlink:title=" ">
<polygon fill="#e0e0e0" stroke="#999999" points="978,-129 928,-129 928,-110 978,-110 978,-129"/>
<text text-anchor="middle" x="953" y="-117" font-family="Helvetica,sans-Serif" font-size="10.00">chrono</text>
</a>
</g>
</g>
<!-- Node12&#45;&gt;Node15 -->
<g id="edge21_Node000012_Node000015" class="edge">
<title>Node12&#45;&gt;Node15</title>
<g id="a_edge21_Node000012_Node000015"><a xlink:title=" ">
<path fill="none" stroke="#63b8ff" d="M730.72,-165.99C775.1,-158.03 846.8,-144.73 917.78,-129.18"/>
<polygon fill="#63b8ff" stroke="#63b8ff" points="918.77,-132.54 927.79,-126.97 917.27,-125.7 918.77,-132.54"/>
</a>
</g>
</g>
<!-- Node16 -->
<g id="Node000016" class="node">
<title>Node16</title>
<g id="a_Node000016"><a xlink:title=" ">
<polygon fill="#e0e0e0" stroke="#999999" points="522,-129 436,-129 436,-110 522,-110 522,-129"/>
<text text-anchor="middle" x="479" y="-117" font-family="Helvetica,sans-Serif" font-size="10.00">fmt/ostream.h</text>
</a>
</g>
</g>
<!-- Node12&#45;&gt;Node16 -->
<g id="edge23_Node000012_Node000016" class="edge">
<title>Node12&#45;&gt;Node16</title>
<g id="a_edge23_Node000012_Node000016"><a xlink:title=" ">
<path fill="none" stroke="#63b8ff" d="M654.42,-164.98C618.65,-155.91 561.88,-141.52 522.66,-131.57"/>
<polygon fill="#63b8ff" stroke="#63b8ff" points="523.4,-128.15 512.84,-129.08 521.68,-134.93 523.4,-128.15"/>
</a>
</g>
</g>
<!-- Node17 -->
<g id="Node000017" class="node">
<title>Node17</title>
<g id="a_Node000017"><a xlink:title=" ">
<polygon fill="#e0e0e0" stroke="#999999" points="586,-129 540,-129 540,-110 586,-110 586,-129"/>
<text text-anchor="middle" x="563" y="-117" font-family="Helvetica,sans-Serif" font-size="10.00">locale</text>
</a>
</g>
</g>
<!-- Node12&#45;&gt;Node17 -->
<g id="edge24_Node000012_Node000017" class="edge">
<title>Node12&#45;&gt;Node17</title>
<g id="a_edge24_Node000012_Node000017"><a xlink:title=" ">
<path fill="none" stroke="#63b8ff" d="M667.92,-164.98C647.63,-156.38 616.04,-142.99 592.83,-133.15"/>
<polygon fill="#63b8ff" stroke="#63b8ff" points="594.02,-129.85 583.45,-129.17 591.29,-136.3 594.02,-129.85"/>
</a>
</g>
</g>
<!-- Node18 -->
<g id="Node000018" class="node">
<title>Node18</title>
<g id="a_Node000018"><a xlink:title=" ">
<polygon fill="#e0e0e0" stroke="#999999" points="660,-129 604,-129 604,-110 660,-110 660,-129"/>
<text text-anchor="middle" x="632" y="-117" font-family="Helvetica,sans-Serif" font-size="10.00">numeric</text>
</a>
</g>
</g>
<!-- Node12&#45;&gt;Node18 -->
<g id="edge25_Node000012_Node000018" class="edge">
<title>Node12&#45;&gt;Node18</title>
<g id="a_edge25_Node000012_Node000018"><a xlink:title=" ">
<path fill="none" stroke="#63b8ff" d="M679,-164.98C670.81,-157.23 658.49,-145.58 648.53,-136.14"/>
<polygon fill="#63b8ff" stroke="#63b8ff" points="650.83,-133.5 641.16,-129.17 646.02,-138.59 650.83,-133.5"/>
</a>
</g>
</g>
<!-- Node19 -->
<g id="Node000019" class="node">
<title>Node19</title>
<g id="a_Node000019"><a xlink:title=" ">
<polygon fill="#e0e0e0" stroke="#999999" points="760,-129 716,-129 716,-110 760,-110 760,-129"/>
<text text-anchor="middle" x="738" y="-117" font-family="Helvetica,sans-Serif" font-size="10.00">string</text>
</a>
</g>
</g>
<!-- Node12&#45;&gt;Node19 -->
<g id="edge27_Node000012_Node000019" class="edge">
<title>Node12&#45;&gt;Node19</title>
<g id="a_edge27_Node000012_Node000019"><a xlink:title=" ">
<path fill="none" stroke="#63b8ff" d="M696.26,-164.75C703.46,-157.11 714.11,-145.82 722.85,-136.56"/>
<polygon fill="#63b8ff" stroke="#63b8ff" points="725.58,-138.76 729.9,-129.09 720.49,-133.96 725.58,-138.76"/>
</a>
</g>
</g>
<!-- Node12&#45;&gt;Node20 -->
<g id="edge28_Node000012_Node000020" class="edge">
<title>Node12&#45;&gt;Node20</title>
<g id="a_edge28_Node000012_Node000020"><a xlink:title=" ">
<path fill="none" stroke="#63b8ff" d="M730.83,-168.55C787.16,-161.73 889.4,-148.28 986.31,-128.94"/>
<polygon fill="#63b8ff" stroke="#63b8ff" points="987.17,-132.34 996.28,-126.93 985.78,-125.48 987.17,-132.34"/>
</a>
</g>
</g>
</g>
</svg>
