<?xml version="1.0" encoding="UTF-8" standalone="no"?>
<!DOCTYPE svg PUBLIC "-//W3C//DTD SVG 1.1//EN"
 "http://www.w3.org/Graphics/SVG/1.1/DTD/svg11.dtd">
<!-- Generated by graphviz version 2.43.0 (0)
 -->
<!-- Title: occ::qm::PostHFMethod Pages: 1 -->
<svg width="155pt" height="159pt"
 viewBox="0.00 0.00 155.00 159.00" xmlns="http://www.w3.org/2000/svg" xmlns:xlink="http://www.w3.org/1999/xlink">
<g id="graph0" class="graph" transform="scale(1 1) rotate(0) translate(4 155)">
<title>occ::qm::PostHFMethod</title>
<!-- Node1 -->
<g id="Node000001" class="node">
<title>Node1</title>
<g id="a_Node000001"><a xlink:title=" ">
<polygon fill="#999999" stroke="#666666" points="139.5,-19 7.5,-19 7.5,0 139.5,0 139.5,-19"/>
<text text-anchor="middle" x="73.5" y="-7" font-family="Helvetica,sans-Serif" font-size="10.00">occ::qm::PostHFMethod</text>
</a>
</g>
</g>
<!-- Node2 -->
<g id="Node000002" class="node">
<title>Node2</title>
<g id="a_Node000002"><a xlink:href="structocc_1_1qm_1_1MolecularOrbitals.html" target="_top" xlink:title=" ">
<polygon fill="white" stroke="#666666" points="147,-85 0,-85 0,-66 147,-66 147,-85"/>
<text text-anchor="middle" x="73.5" y="-73" font-family="Helvetica,sans-Serif" font-size="10.00">occ::qm::MolecularOrbitals</text>
</a>
</g>
</g>
<!-- Node2&#45;&gt;Node1 -->
<g id="edge1_Node000001_Node000002" class="edge">
<title>Node2&#45;&gt;Node1</title>
<g id="a_edge1_Node000001_Node000002"><a xlink:title=" ">
<path fill="none" stroke="#9a32cd" stroke-dasharray="5,2" d="M73.5,-55.58C73.5,-43.63 73.5,-28.72 73.5,-19.41"/>
<polygon fill="#9a32cd" stroke="#9a32cd" points="70,-55.87 73.5,-65.87 77,-55.87 70,-55.87"/>
</a>
</g>
<text text-anchor="middle" x="90.5" y="-40" font-family="Helvetica,sans-Serif" font-size="10.00" fill="grey"> m_mo</text>
</g>
<!-- Node3 -->
<g id="Node000003" class="node">
<title>Node3</title>
<g id="a_Node000003"><a xlink:href="structocc_1_1qm_1_1OrbitalSmearing.html" target="_top" xlink:title=" ">
<polygon fill="white" stroke="#666666" points="143.5,-151 3.5,-151 3.5,-132 143.5,-132 143.5,-151"/>
<text text-anchor="middle" x="73.5" y="-139" font-family="Helvetica,sans-Serif" font-size="10.00">occ::qm::OrbitalSmearing</text>
</a>
</g>
</g>
<!-- Node3&#45;&gt;Node2 -->
<g id="edge2_Node000002_Node000003" class="edge">
<title>Node3&#45;&gt;Node2</title>
<g id="a_edge2_Node000002_Node000003"><a xlink:title=" ">
<path fill="none" stroke="#9a32cd" stroke-dasharray="5,2" d="M73.5,-121.58C73.5,-109.63 73.5,-94.72 73.5,-85.41"/>
<polygon fill="#9a32cd" stroke="#9a32cd" points="70,-121.87 73.5,-131.87 77,-121.87 70,-121.87"/>
</a>
</g>
<text text-anchor="middle" x="98" y="-106" font-family="Helvetica,sans-Serif" font-size="10.00" fill="grey"> smearing</text>
</g>
</g>
</svg>
