<?xml version="1.0" encoding="UTF-8" standalone="no"?>
<!DOCTYPE svg PUBLIC "-//W3C//DTD SVG 1.1//EN"
 "http://www.w3.org/Graphics/SVG/1.1/DTD/svg11.dtd">
<!-- Generated by graphviz version 2.43.0 (0)
 -->
<!-- Title: occ::driver::XTBCrystalGrowthCalculator Pages: 1 -->
<svg width="288pt" height="182pt"
 viewBox="0.00 0.00 287.50 182.00" xmlns="http://www.w3.org/2000/svg" xmlns:xlink="http://www.w3.org/1999/xlink">
<g id="graph0" class="graph" transform="scale(1 1) rotate(0) translate(4 178)">
<title>occ::driver::XTBCrystalGrowthCalculator</title>
<!-- Node1 -->
<g id="Node000001" class="node">
<title>Node1</title>
<g id="a_Node000001"><a xlink:title=" ">
<polygon fill="#999999" stroke="#666666" points="212,-30 49,-30 49,0 212,0 212,-30"/>
<text text-anchor="start" x="57" y="-18" font-family="Helvetica,sans-Serif" font-size="10.00">occ::driver::XTBCrystalGrowth</text>
<text text-anchor="middle" x="130.5" y="-7" font-family="Helvetica,sans-Serif" font-size="10.00">Calculator</text>
</a>
</g>
</g>
<!-- Node2 -->
<g id="Node000002" class="node">
<title>Node2</title>
<g id="a_Node000002"><a xlink:href="classocc_1_1driver_1_1CrystalGrowthCalculator.html" target="_top" xlink:title=" ">
<polygon fill="white" stroke="#666666" points="202,-97 59,-97 59,-67 202,-67 202,-97"/>
<text text-anchor="start" x="67" y="-85" font-family="Helvetica,sans-Serif" font-size="10.00">occ::driver::CrystalGrowth</text>
<text text-anchor="middle" x="130.5" y="-74" font-family="Helvetica,sans-Serif" font-size="10.00">Calculator</text>
</a>
</g>
</g>
<!-- Node2&#45;&gt;Node1 -->
<g id="edge1_Node000001_Node000002" class="edge">
<title>Node2&#45;&gt;Node1</title>
<g id="a_edge1_Node000001_Node000002"><a xlink:title=" ">
<path fill="none" stroke="#63b8ff" d="M130.5,-56.61C130.5,-47.65 130.5,-37.82 130.5,-30.08"/>
<polygon fill="#63b8ff" stroke="#63b8ff" points="127,-56.9 130.5,-66.9 134,-56.9 127,-56.9"/>
</a>
</g>
</g>
<!-- Node3 -->
<g id="Node000003" class="node">
<title>Node3</title>
<g id="a_Node000003"><a xlink:href="classocc_1_1crystal_1_1Crystal.html" target="_top" xlink:title="A class representing a crystal structure.">
<polygon fill="white" stroke="#666666" points="113,-174 0,-174 0,-155 113,-155 113,-174"/>
<text text-anchor="middle" x="56.5" y="-162" font-family="Helvetica,sans-Serif" font-size="10.00">occ::crystal::Crystal</text>
</a>
</g>
</g>
<!-- Node3&#45;&gt;Node2 -->
<g id="edge2_Node000002_Node000003" class="edge">
<title>Node3&#45;&gt;Node2</title>
<g id="a_edge2_Node000002_Node000003"><a xlink:title=" ">
<path fill="none" stroke="#9a32cd" stroke-dasharray="5,2" d="M71.56,-147.12C85.03,-132.46 104.6,-111.18 117.43,-97.22"/>
<polygon fill="#9a32cd" stroke="#9a32cd" points="68.61,-145.15 64.42,-154.89 73.76,-149.89 68.61,-145.15"/>
</a>
</g>
<text text-anchor="middle" x="126.5" y="-123.5" font-family="Helvetica,sans-Serif" font-size="10.00" fill="grey"> m_crystal</text>
</g>
<!-- Node4 -->
<g id="Node000004" class="node">
<title>Node4</title>
<g id="a_Node000004"><a xlink:href="structocc_1_1crystal_1_1CrystalDimers.html" target="_top" xlink:title="A class representing the molecular dimers in a crystal lattice.">
<polygon fill="white" stroke="#666666" points="279.5,-174 131.5,-174 131.5,-155 279.5,-155 279.5,-174"/>
<text text-anchor="middle" x="205.5" y="-162" font-family="Helvetica,sans-Serif" font-size="10.00">occ::crystal::CrystalDimers</text>
</a>
</g>
</g>
<!-- Node4&#45;&gt;Node2 -->
<g id="edge3_Node000002_Node000004" class="edge">
<title>Node4&#45;&gt;Node2</title>
<g id="a_edge3_Node000002_Node000004"><a xlink:title=" ">
<path fill="none" stroke="#9a32cd" stroke-dasharray="5,2" d="M190.62,-147.53C176.95,-132.86 156.88,-111.31 143.75,-97.22"/>
<polygon fill="#9a32cd" stroke="#9a32cd" points="188.1,-149.95 197.47,-154.89 193.22,-145.18 188.1,-149.95"/>
</a>
</g>
<text text-anchor="middle" x="224" y="-129" font-family="Helvetica,sans-Serif" font-size="10.00" fill="grey"> m_full_dimers</text>
<text text-anchor="middle" x="224" y="-118" font-family="Helvetica,sans-Serif" font-size="10.00" fill="grey">m_nearest_dimers</text>
</g>
</g>
</svg>
