<?xml version="1.0" encoding="UTF-8" standalone="no"?>
<!DOCTYPE svg PUBLIC "-//W3C//DTD SVG 1.1//EN"
 "http://www.w3.org/Graphics/SVG/1.1/DTD/svg11.dtd">
<!-- Generated by graphviz version 2.43.0 (0)
 -->
<!-- Title: occ::qm::MP2 Pages: 1 -->
<svg width="258pt" height="215pt"
 viewBox="0.00 0.00 257.50 215.00" xmlns="http://www.w3.org/2000/svg" xmlns:xlink="http://www.w3.org/1999/xlink">
<g id="graph0" class="graph" transform="scale(1 1) rotate(0) translate(4 211)">
<title>occ::qm::MP2</title>
<!-- Node1 -->
<g id="Node000001" class="node">
<title>Node1</title>
<g id="a_Node000001"><a xlink:title=" ">
<polygon fill="#999999" stroke="#666666" points="153.5,-19 71.5,-19 71.5,0 153.5,0 153.5,-19"/>
<text text-anchor="middle" x="112.5" y="-7" font-family="Helvetica,sans-Serif" font-size="10.00">occ::qm::MP2</text>
</a>
</g>
</g>
<!-- Node2 -->
<g id="Node000002" class="node">
<title>Node2</title>
<g id="a_Node000002"><a xlink:href="classocc_1_1qm_1_1PostHFMethod.html" target="_top" xlink:title=" ">
<polygon fill="white" stroke="#666666" points="178.5,-75 46.5,-75 46.5,-56 178.5,-56 178.5,-75"/>
<text text-anchor="middle" x="112.5" y="-63" font-family="Helvetica,sans-Serif" font-size="10.00">occ::qm::PostHFMethod</text>
</a>
</g>
</g>
<!-- Node2&#45;&gt;Node1 -->
<g id="edge1_Node000001_Node000002" class="edge">
<title>Node2&#45;&gt;Node1</title>
<g id="a_edge1_Node000001_Node000002"><a xlink:title=" ">
<path fill="none" stroke="#63b8ff" d="M112.5,-45.3C112.5,-36.41 112.5,-26.28 112.5,-19.25"/>
<polygon fill="#63b8ff" stroke="#63b8ff" points="109,-45.58 112.5,-55.58 116,-45.58 109,-45.58"/>
</a>
</g>
</g>
<!-- Node3 -->
<g id="Node000003" class="node">
<title>Node3</title>
<g id="a_Node000003"><a xlink:href="structocc_1_1qm_1_1MolecularOrbitals.html" target="_top" xlink:title=" ">
<polygon fill="white" stroke="#666666" points="186,-141 39,-141 39,-122 186,-122 186,-141"/>
<text text-anchor="middle" x="112.5" y="-129" font-family="Helvetica,sans-Serif" font-size="10.00">occ::qm::MolecularOrbitals</text>
</a>
</g>
</g>
<!-- Node3&#45;&gt;Node2 -->
<g id="edge2_Node000002_Node000003" class="edge">
<title>Node3&#45;&gt;Node2</title>
<g id="a_edge2_Node000002_Node000003"><a xlink:title=" ">
<path fill="none" stroke="#9a32cd" stroke-dasharray="5,2" d="M112.5,-111.58C112.5,-99.63 112.5,-84.72 112.5,-75.41"/>
<polygon fill="#9a32cd" stroke="#9a32cd" points="109,-111.87 112.5,-121.87 116,-111.87 109,-111.87"/>
</a>
</g>
<text text-anchor="middle" x="129.5" y="-96" font-family="Helvetica,sans-Serif" font-size="10.00" fill="grey"> m_mo</text>
</g>
<!-- Node4 -->
<g id="Node000004" class="node">
<title>Node4</title>
<g id="a_Node000004"><a xlink:title=" ">
<polygon fill="white" stroke="#666666" points="91,-207 0,-207 0,-188 91,-188 91,-207"/>
<text text-anchor="middle" x="45.5" y="-195" font-family="Helvetica,sans-Serif" font-size="10.00">SpinorbitalKind</text>
</a>
</g>
</g>
<!-- Node4&#45;&gt;Node3 -->
<g id="edge3_Node000003_Node000004" class="edge">
<title>Node4&#45;&gt;Node3</title>
<g id="a_edge3_Node000003_Node000004"><a xlink:title=" ">
<path fill="none" stroke="#9a32cd" stroke-dasharray="5,2" d="M61.9,-180.83C74.88,-168.44 92.52,-151.59 103.18,-141.41"/>
<polygon fill="#9a32cd" stroke="#9a32cd" points="59.35,-178.43 54.54,-187.87 64.18,-183.49 59.35,-178.43"/>
</a>
</g>
<text text-anchor="middle" x="96" y="-162" font-family="Helvetica,sans-Serif" font-size="10.00" fill="grey"> kind</text>
</g>
<!-- Node5 -->
<g id="Node000005" class="node">
<title>Node5</title>
<g id="a_Node000005"><a xlink:href="structocc_1_1qm_1_1OrbitalSmearing.html" target="_top" xlink:title=" ">
<polygon fill="white" stroke="#666666" points="249.5,-207 109.5,-207 109.5,-188 249.5,-188 249.5,-207"/>
<text text-anchor="middle" x="179.5" y="-195" font-family="Helvetica,sans-Serif" font-size="10.00">occ::qm::OrbitalSmearing</text>
</a>
</g>
</g>
<!-- Node5&#45;&gt;Node3 -->
<g id="edge4_Node000003_Node000005" class="edge">
<title>Node5&#45;&gt;Node3</title>
<g id="a_edge4_Node000003_Node000005"><a xlink:title=" ">
<path fill="none" stroke="#9a32cd" stroke-dasharray="5,2" d="M163.1,-180.83C150.12,-168.44 132.48,-151.59 121.82,-141.41"/>
<polygon fill="#9a32cd" stroke="#9a32cd" points="160.82,-183.49 170.46,-187.87 165.65,-178.43 160.82,-183.49"/>
</a>
</g>
<text text-anchor="middle" x="174" y="-162" font-family="Helvetica,sans-Serif" font-size="10.00" fill="grey"> smearing</text>
</g>
</g>
</svg>
