<?xml version="1.0" encoding="UTF-8" standalone="no"?>
<!DOCTYPE svg PUBLIC "-//W3C//DTD SVG 1.1//EN"
 "http://www.w3.org/Graphics/SVG/1.1/DTD/svg11.dtd">
<!-- Generated by graphviz version 2.43.0 (0)
 -->
<!-- Title: /home/runner/work/occ/occ/include/occ/isosurface/common.h Pages: 1 -->
<svg width="740pt" height="362pt"
 viewBox="0.00 0.00 740.00 362.00" xmlns="http://www.w3.org/2000/svg" xmlns:xlink="http://www.w3.org/1999/xlink">
<g id="graph0" class="graph" transform="scale(1 1) rotate(0) translate(4 358)">
<title>/home/runner/work/occ/occ/include/occ/isosurface/common.h</title>
<!-- Node1 -->
<g id="node1" class="node">
<title>Node1</title>
<g id="a_node1"><a xlink:title=" ">
<polygon fill="#bfbfbf" stroke="black" points="281,-312.5 281,-353.5 428,-353.5 428,-312.5 281,-312.5"/>
<text text-anchor="start" x="289" y="-341.5" font-family="Helvetica,sans-Serif" font-size="10.00">/home/runner/work/occ</text>
<text text-anchor="start" x="289" y="-330.5" font-family="Helvetica,sans-Serif" font-size="10.00">/occ/include/occ/isosurface</text>
<text text-anchor="middle" x="354.5" y="-319.5" font-family="Helvetica,sans-Serif" font-size="10.00">/common.h</text>
</a>
</g>
</g>
<!-- Node2 -->
<g id="node2" class="node">
<title>Node2</title>
<g id="a_node2"><a xlink:href="electric__potential_8h.html" target="_top" xlink:title=" ">
<polygon fill="none" stroke="black" points="0,-78.5 0,-119.5 147,-119.5 147,-78.5 0,-78.5"/>
<text text-anchor="start" x="8" y="-107.5" font-family="Helvetica,sans-Serif" font-size="10.00">/home/runner/work/occ</text>
<text text-anchor="start" x="8" y="-96.5" font-family="Helvetica,sans-Serif" font-size="10.00">/occ/include/occ/isosurface</text>
<text text-anchor="middle" x="73.5" y="-85.5" font-family="Helvetica,sans-Serif" font-size="10.00">/electric_potential.h</text>
</a>
</g>
</g>
<!-- Node1&#45;&gt;Node2 -->
<g id="edge1" class="edge">
<title>Node1&#45;&gt;Node2</title>
<path fill="none" stroke="midnightblue" d="M270.77,-319.43C200.89,-304 105.7,-270.31 60.5,-198 45.58,-174.13 55.11,-140.63 63.89,-119.63"/>
<polygon fill="midnightblue" stroke="midnightblue" points="270.37,-322.92 280.88,-321.57 271.83,-316.08 270.37,-322.92"/>
</g>
<!-- Node4 -->
<g id="node4" class="node">
<title>Node4</title>
<g id="a_node4"><a xlink:href="electron__density_8h.html" target="_top" xlink:title=" ">
<polygon fill="none" stroke="black" points="70,-156.5 70,-197.5 217,-197.5 217,-156.5 70,-156.5"/>
<text text-anchor="start" x="78" y="-185.5" font-family="Helvetica,sans-Serif" font-size="10.00">/home/runner/work/occ</text>
<text text-anchor="start" x="78" y="-174.5" font-family="Helvetica,sans-Serif" font-size="10.00">/occ/include/occ/isosurface</text>
<text text-anchor="middle" x="143.5" y="-163.5" font-family="Helvetica,sans-Serif" font-size="10.00">/electron_density.h</text>
</a>
</g>
</g>
<!-- Node1&#45;&gt;Node4 -->
<g id="edge3" class="edge">
<title>Node1&#45;&gt;Node4</title>
<path fill="none" stroke="midnightblue" d="M319.52,-306.47C277.6,-275.87 208.27,-225.27 170.34,-197.59"/>
<polygon fill="midnightblue" stroke="midnightblue" points="317.64,-309.43 327.78,-312.5 321.76,-303.77 317.64,-309.43"/>
</g>
<!-- Node5 -->
<g id="node5" class="node">
<title>Node5</title>
<g id="a_node5"><a xlink:href="promolecule__density_8h.html" target="_top" xlink:title=" ">
<polygon fill="none" stroke="black" points="235,-156.5 235,-197.5 382,-197.5 382,-156.5 235,-156.5"/>
<text text-anchor="start" x="243" y="-185.5" font-family="Helvetica,sans-Serif" font-size="10.00">/home/runner/work/occ</text>
<text text-anchor="start" x="243" y="-174.5" font-family="Helvetica,sans-Serif" font-size="10.00">/occ/include/occ/isosurface</text>
<text text-anchor="middle" x="308.5" y="-163.5" font-family="Helvetica,sans-Serif" font-size="10.00">/promolecule_density.h</text>
</a>
</g>
</g>
<!-- Node1&#45;&gt;Node5 -->
<g id="edge5" class="edge">
<title>Node1&#45;&gt;Node5</title>
<path fill="none" stroke="midnightblue" d="M338.83,-303.13C334.68,-294.59 330.51,-285.08 327.5,-276 318.71,-249.52 313.46,-217.58 310.78,-197.53"/>
<polygon fill="midnightblue" stroke="midnightblue" points="335.83,-304.95 343.46,-312.31 342.08,-301.8 335.83,-304.95"/>
</g>
<!-- Node6 -->
<g id="node6" class="node">
<title>Node6</title>
<g id="a_node6"><a xlink:href="stockholder__weight_8h.html" target="_top" xlink:title=" ">
<polygon fill="none" stroke="black" points="391,-78.5 391,-119.5 538,-119.5 538,-78.5 391,-78.5"/>
<text text-anchor="start" x="399" y="-107.5" font-family="Helvetica,sans-Serif" font-size="10.00">/home/runner/work/occ</text>
<text text-anchor="start" x="399" y="-96.5" font-family="Helvetica,sans-Serif" font-size="10.00">/occ/include/occ/isosurface</text>
<text text-anchor="middle" x="464.5" y="-85.5" font-family="Helvetica,sans-Serif" font-size="10.00">/stockholder_weight.h</text>
</a>
</g>
</g>
<!-- Node1&#45;&gt;Node6 -->
<g id="edge7" class="edge">
<title>Node1&#45;&gt;Node6</title>
<path fill="none" stroke="midnightblue" d="M417.9,-308.19C462.83,-287.15 518.39,-251.42 537.5,-198 543.79,-180.42 545.76,-172.74 537.5,-156 530.01,-140.82 516.21,-128.6 502.6,-119.51"/>
<polygon fill="midnightblue" stroke="midnightblue" points="416.44,-305.01 408.78,-312.33 419.33,-311.38 416.44,-305.01"/>
</g>
<!-- Node7 -->
<g id="node7" class="node">
<title>Node7</title>
<g id="a_node7"><a xlink:href="void_8h.html" target="_top" xlink:title=" ">
<polygon fill="none" stroke="black" points="585,-234.5 585,-275.5 732,-275.5 732,-234.5 585,-234.5"/>
<text text-anchor="start" x="593" y="-263.5" font-family="Helvetica,sans-Serif" font-size="10.00">/home/runner/work/occ</text>
<text text-anchor="start" x="593" y="-252.5" font-family="Helvetica,sans-Serif" font-size="10.00">/occ/include/occ/isosurface</text>
<text text-anchor="middle" x="658.5" y="-241.5" font-family="Helvetica,sans-Serif" font-size="10.00">/void.h</text>
</a>
</g>
</g>
<!-- Node1&#45;&gt;Node7 -->
<g id="edge9" class="edge">
<title>Node1&#45;&gt;Node7</title>
<path fill="none" stroke="midnightblue" d="M438.03,-311.12C483.98,-299.63 540.49,-285.5 584.8,-274.43"/>
<polygon fill="midnightblue" stroke="midnightblue" points="436.94,-307.78 428.09,-313.6 438.64,-314.57 436.94,-307.78"/>
</g>
<!-- Node8 -->
<g id="node8" class="node">
<title>Node8</title>
<g id="a_node8"><a xlink:href="promolecule_8h.html" target="_top" xlink:title=" ">
<polygon fill="none" stroke="black" points="336.5,-234.5 336.5,-275.5 464.5,-275.5 464.5,-234.5 336.5,-234.5"/>
<text text-anchor="start" x="344.5" y="-263.5" font-family="Helvetica,sans-Serif" font-size="10.00">/home/runner/work/occ</text>
<text text-anchor="start" x="344.5" y="-252.5" font-family="Helvetica,sans-Serif" font-size="10.00">/occ/include/occ/slater</text>
<text text-anchor="middle" x="400.5" y="-241.5" font-family="Helvetica,sans-Serif" font-size="10.00">/promolecule.h</text>
</a>
</g>
</g>
<!-- Node1&#45;&gt;Node8 -->
<g id="edge11" class="edge">
<title>Node1&#45;&gt;Node8</title>
<path fill="none" stroke="midnightblue" d="M371.59,-303.76C377.29,-294.35 383.49,-284.1 388.69,-275.51"/>
<polygon fill="midnightblue" stroke="midnightblue" points="368.53,-302.06 366.35,-312.43 374.52,-305.69 368.53,-302.06"/>
</g>
<!-- Node3 -->
<g id="node3" class="node">
<title>Node3</title>
<g id="a_node3"><a xlink:href="isosurface_8h.html" target="_top" xlink:title=" ">
<polygon fill="none" stroke="black" points="235,-0.5 235,-41.5 382,-41.5 382,-0.5 235,-0.5"/>
<text text-anchor="start" x="243" y="-29.5" font-family="Helvetica,sans-Serif" font-size="10.00">/home/runner/work/occ</text>
<text text-anchor="start" x="243" y="-18.5" font-family="Helvetica,sans-Serif" font-size="10.00">/occ/include/occ/isosurface</text>
<text text-anchor="middle" x="308.5" y="-7.5" font-family="Helvetica,sans-Serif" font-size="10.00">/isosurface.h</text>
</a>
</g>
</g>
<!-- Node2&#45;&gt;Node3 -->
<g id="edge2" class="edge">
<title>Node2&#45;&gt;Node3</title>
<path fill="none" stroke="midnightblue" d="M143.68,-75.3C176.94,-64.55 216.28,-51.82 248.19,-41.51"/>
<polygon fill="midnightblue" stroke="midnightblue" points="142.46,-72.02 134.02,-78.43 144.61,-78.68 142.46,-72.02"/>
</g>
<!-- Node4&#45;&gt;Node3 -->
<g id="edge4" class="edge">
<title>Node4&#45;&gt;Node3</title>
<path fill="none" stroke="midnightblue" d="M171.89,-149.51C204.76,-118.82 258.16,-68.98 287.51,-41.59"/>
<polygon fill="midnightblue" stroke="midnightblue" points="169.32,-147.11 164.4,-156.5 174.1,-152.23 169.32,-147.11"/>
</g>
<!-- Node5&#45;&gt;Node3 -->
<g id="edge6" class="edge">
<title>Node5&#45;&gt;Node3</title>
<path fill="none" stroke="midnightblue" d="M308.5,-146.36C308.5,-115.61 308.5,-68.36 308.5,-41.83"/>
<polygon fill="midnightblue" stroke="midnightblue" points="305,-146.5 308.5,-156.5 312,-146.5 305,-146.5"/>
</g>
<!-- Node6&#45;&gt;Node3 -->
<g id="edge8" class="edge">
<title>Node6&#45;&gt;Node3</title>
<path fill="none" stroke="midnightblue" d="M415.05,-73.91C393.6,-63.46 368.81,-51.38 348.54,-41.51"/>
<polygon fill="midnightblue" stroke="midnightblue" points="413.8,-77.19 424.33,-78.43 416.87,-70.9 413.8,-77.19"/>
</g>
<!-- Node7&#45;&gt;Node3 -->
<g id="edge10" class="edge">
<title>Node7&#45;&gt;Node3</title>
<path fill="none" stroke="midnightblue" d="M648.14,-224.98C632.47,-185.41 598.9,-115.22 546.5,-78 498.4,-43.83 432.36,-30.26 382.05,-24.99"/>
<polygon fill="midnightblue" stroke="midnightblue" points="644.88,-226.26 651.74,-234.34 651.42,-223.75 644.88,-226.26"/>
</g>
<!-- Node8&#45;&gt;Node5 -->
<g id="edge12" class="edge">
<title>Node8&#45;&gt;Node5</title>
<path fill="none" stroke="midnightblue" d="M368.76,-227.78C356.73,-217.84 343.26,-206.72 332.11,-197.51"/>
<polygon fill="midnightblue" stroke="midnightblue" points="366.87,-230.76 376.81,-234.43 371.33,-225.36 366.87,-230.76"/>
</g>
<!-- Node9 -->
<g id="node9" class="node">
<title>Node9</title>
<g id="a_node9"><a xlink:href="hirshfeld_8h.html" target="_top" xlink:title=" ">
<polygon fill="none" stroke="black" points="400.5,-156.5 400.5,-197.5 528.5,-197.5 528.5,-156.5 400.5,-156.5"/>
<text text-anchor="start" x="408.5" y="-185.5" font-family="Helvetica,sans-Serif" font-size="10.00">/home/runner/work/occ</text>
<text text-anchor="start" x="408.5" y="-174.5" font-family="Helvetica,sans-Serif" font-size="10.00">/occ/include/occ/slater</text>
<text text-anchor="middle" x="464.5" y="-163.5" font-family="Helvetica,sans-Serif" font-size="10.00">/hirshfeld.h</text>
</a>
</g>
</g>
<!-- Node8&#45;&gt;Node9 -->
<g id="edge13" class="edge">
<title>Node8&#45;&gt;Node9</title>
<path fill="none" stroke="midnightblue" d="M423.55,-226.63C431.67,-216.99 440.62,-206.36 448.07,-197.51"/>
<polygon fill="midnightblue" stroke="midnightblue" points="420.75,-224.52 416.98,-234.43 426.1,-229.03 420.75,-224.52"/>
</g>
<!-- Node9&#45;&gt;Node6 -->
<g id="edge14" class="edge">
<title>Node9&#45;&gt;Node6</title>
<path fill="none" stroke="midnightblue" d="M464.5,-146.3C464.5,-137.3 464.5,-127.65 464.5,-119.51"/>
<polygon fill="midnightblue" stroke="midnightblue" points="461,-146.43 464.5,-156.43 468,-146.43 461,-146.43"/>
</g>
</g>
</svg>
