<?xml version="1.0" encoding="UTF-8" standalone="no"?>
<!DOCTYPE svg PUBLIC "-//W3C//DTD SVG 1.1//EN"
 "http://www.w3.org/Graphics/SVG/1.1/DTD/svg11.dtd">
<!-- Generated by graphviz version 2.43.0 (0)
 -->
<!-- Title: /home/runner/work/occ/occ/include/occ/isosurface/common.h Pages: 1 -->
<svg width="874pt" height="423pt"
 viewBox="0.00 0.00 874.00 423.00" xmlns="http://www.w3.org/2000/svg" xmlns:xlink="http://www.w3.org/1999/xlink">
<g id="graph0" class="graph" transform="scale(1 1) rotate(0) translate(4 419)">
<title>/home/runner/work/occ/occ/include/occ/isosurface/common.h</title>
<!-- Node1 -->
<g id="Node000001" class="node">
<title>Node1</title>
<g id="a_Node000001"><a xlink:title=" ">
<polygon fill="#999999" stroke="#666666" points="485,-415 338,-415 338,-374 485,-374 485,-415"/>
<text text-anchor="start" x="346" y="-403" font-family="Helvetica,sans-Serif" font-size="10.00">/home/runner/work/occ</text>
<text text-anchor="start" x="346" y="-392" font-family="Helvetica,sans-Serif" font-size="10.00">/occ/include/occ/isosurface</text>
<text text-anchor="middle" x="411.5" y="-381" font-family="Helvetica,sans-Serif" font-size="10.00">/common.h</text>
</a>
</g>
</g>
<!-- Node2 -->
<g id="Node000002" class="node">
<title>Node2</title>
<g id="a_Node000002"><a xlink:href="eeq__esp_8h.html" target="_top" xlink:title=" ">
<polygon fill="white" stroke="#666666" points="147,-184 0,-184 0,-143 147,-143 147,-184"/>
<text text-anchor="start" x="8" y="-172" font-family="Helvetica,sans-Serif" font-size="10.00">/home/runner/work/occ</text>
<text text-anchor="start" x="8" y="-161" font-family="Helvetica,sans-Serif" font-size="10.00">/occ/include/occ/isosurface</text>
<text text-anchor="middle" x="73.5" y="-150" font-family="Helvetica,sans-Serif" font-size="10.00">/eeq_esp.h</text>
</a>
</g>
</g>
<!-- Node1&#45;&gt;Node2 -->
<g id="edge1_Node000001_Node000002" class="edge">
<title>Node1&#45;&gt;Node2</title>
<g id="a_edge1_Node000001_Node000002"><a xlink:title=" ">
<path fill="none" stroke="#63b8ff" d="M327.77,-392.06C276.09,-387.24 211,-373.68 164.5,-338 112.69,-298.25 87.41,-220.53 78,-184.16"/>
<polygon fill="#63b8ff" stroke="#63b8ff" points="327.66,-395.56 337.92,-392.9 328.25,-388.58 327.66,-395.56"/>
</a>
</g>
</g>
<!-- Node6 -->
<g id="Node000006" class="node">
<title>Node6</title>
<g id="a_Node000006"><a xlink:href="electric__potential_8h.html" target="_top" xlink:title=" ">
<polygon fill="white" stroke="#666666" points="321,-338 174,-338 174,-297 321,-297 321,-338"/>
<text text-anchor="start" x="182" y="-326" font-family="Helvetica,sans-Serif" font-size="10.00">/home/runner/work/occ</text>
<text text-anchor="start" x="182" y="-315" font-family="Helvetica,sans-Serif" font-size="10.00">/occ/include/occ/isosurface</text>
<text text-anchor="middle" x="247.5" y="-304" font-family="Helvetica,sans-Serif" font-size="10.00">/electric_potential.h</text>
</a>
</g>
</g>
<!-- Node1&#45;&gt;Node6 -->
<g id="edge5_Node000001_Node000006" class="edge">
<title>Node1&#45;&gt;Node6</title>
<g id="a_edge5_Node000001_Node000006"><a xlink:title=" ">
<path fill="none" stroke="#63b8ff" d="M359.51,-369.72C337.18,-359.51 311.42,-347.73 290.23,-338.04"/>
<polygon fill="#63b8ff" stroke="#63b8ff" points="358.29,-373.01 368.84,-373.99 361.2,-366.65 358.29,-373.01"/>
</a>
</g>
</g>
<!-- Node7 -->
<g id="Node000007" class="node">
<title>Node7</title>
<g id="a_Node000007"><a xlink:href="electron__density_8h.html" target="_top" xlink:title=" ">
<polygon fill="white" stroke="#666666" points="351,-261 204,-261 204,-220 351,-220 351,-261"/>
<text text-anchor="start" x="212" y="-249" font-family="Helvetica,sans-Serif" font-size="10.00">/home/runner/work/occ</text>
<text text-anchor="start" x="212" y="-238" font-family="Helvetica,sans-Serif" font-size="10.00">/occ/include/occ/isosurface</text>
<text text-anchor="middle" x="277.5" y="-227" font-family="Helvetica,sans-Serif" font-size="10.00">/electron_density.h</text>
</a>
</g>
</g>
<!-- Node1&#45;&gt;Node7 -->
<g id="edge7_Node000001_Node000007" class="edge">
<title>Node1&#45;&gt;Node7</title>
<g id="a_edge7_Node000001_Node000007"><a xlink:title=" ">
<path fill="none" stroke="#63b8ff" d="M388.57,-365.79C372.31,-346.34 349.87,-319.82 329.5,-297 318.69,-284.88 306.26,-271.6 296.27,-261.06"/>
<polygon fill="#63b8ff" stroke="#63b8ff" points="386.04,-368.23 395.13,-373.67 391.42,-363.75 386.04,-368.23"/>
</a>
</g>
</g>
<!-- Node9 -->
<g id="Node000009" class="node">
<title>Node9</title>
<g id="a_Node000009"><a xlink:href="promolecule__density_8h.html" target="_top" xlink:title=" ">
<polygon fill="white" stroke="#666666" points="516,-261 369,-261 369,-220 516,-220 516,-261"/>
<text text-anchor="start" x="377" y="-249" font-family="Helvetica,sans-Serif" font-size="10.00">/home/runner/work/occ</text>
<text text-anchor="start" x="377" y="-238" font-family="Helvetica,sans-Serif" font-size="10.00">/occ/include/occ/isosurface</text>
<text text-anchor="middle" x="442.5" y="-227" font-family="Helvetica,sans-Serif" font-size="10.00">/promolecule_density.h</text>
</a>
</g>
</g>
<!-- Node1&#45;&gt;Node9 -->
<g id="edge11_Node000001_Node000009" class="edge">
<title>Node1&#45;&gt;Node9</title>
<g id="a_edge11_Node000001_Node000009"><a xlink:title=" ">
<path fill="none" stroke="#63b8ff" d="M417.17,-363.97C420.87,-344.86 425.87,-319.43 430.5,-297 432.97,-285.03 435.87,-271.63 438.19,-261"/>
<polygon fill="#63b8ff" stroke="#63b8ff" points="413.71,-363.41 415.25,-373.89 420.58,-364.73 413.71,-363.41"/>
</a>
</g>
</g>
<!-- Node10 -->
<g id="Node000010" class="node">
<title>Node10</title>
<g id="a_Node000010"><a xlink:href="stockholder__weight_8h.html" target="_top" xlink:title=" ">
<polygon fill="white" stroke="#666666" points="672,-184 525,-184 525,-143 672,-143 672,-184"/>
<text text-anchor="start" x="533" y="-172" font-family="Helvetica,sans-Serif" font-size="10.00">/home/runner/work/occ</text>
<text text-anchor="start" x="533" y="-161" font-family="Helvetica,sans-Serif" font-size="10.00">/occ/include/occ/isosurface</text>
<text text-anchor="middle" x="598.5" y="-150" font-family="Helvetica,sans-Serif" font-size="10.00">/stockholder_weight.h</text>
</a>
</g>
</g>
<!-- Node1&#45;&gt;Node10 -->
<g id="edge14_Node000001_Node000010" class="edge">
<title>Node1&#45;&gt;Node10</title>
<g id="a_edge14_Node000001_Node000010"><a xlink:title=" ">
<path fill="none" stroke="#63b8ff" d="M495.17,-378.5C558.34,-362 639.43,-328.29 671.5,-261 679.34,-244.55 679.6,-236.33 671.5,-220 664.07,-205.02 650.46,-193 636.98,-184.02"/>
<polygon fill="#63b8ff" stroke="#63b8ff" points="494.05,-375.17 485.2,-381 495.75,-381.96 494.05,-375.17"/>
</a>
</g>
</g>
<!-- Node11 -->
<g id="Node000011" class="node">
<title>Node11</title>
<g id="a_Node000011"><a xlink:href="void_8h.html" target="_top" xlink:title=" ">
<polygon fill="white" stroke="#666666" points="866,-338 719,-338 719,-297 866,-297 866,-338"/>
<text text-anchor="start" x="727" y="-326" font-family="Helvetica,sans-Serif" font-size="10.00">/home/runner/work/occ</text>
<text text-anchor="start" x="727" y="-315" font-family="Helvetica,sans-Serif" font-size="10.00">/occ/include/occ/isosurface</text>
<text text-anchor="middle" x="792.5" y="-304" font-family="Helvetica,sans-Serif" font-size="10.00">/void.h</text>
</a>
</g>
</g>
<!-- Node1&#45;&gt;Node11 -->
<g id="edge16_Node000001_Node000011" class="edge">
<title>Node1&#45;&gt;Node11</title>
<g id="a_edge16_Node000001_Node000011"><a xlink:title=" ">
<path fill="none" stroke="#63b8ff" d="M495.04,-378.38C553.73,-367.59 634.03,-352.48 704.5,-338 709.1,-337.06 713.83,-336.06 718.59,-335.05"/>
<polygon fill="#63b8ff" stroke="#63b8ff" points="494.28,-374.97 485.08,-380.21 495.54,-381.85 494.28,-374.97"/>
</a>
</g>
</g>
<!-- Node12 -->
<g id="Node000012" class="node">
<title>Node12</title>
<g id="a_Node000012"><a xlink:href="promolecule_8h.html" target="_top" xlink:title=" ">
<polygon fill="white" stroke="#666666" points="567.5,-338 439.5,-338 439.5,-297 567.5,-297 567.5,-338"/>
<text text-anchor="start" x="447.5" y="-326" font-family="Helvetica,sans-Serif" font-size="10.00">/home/runner/work/occ</text>
<text text-anchor="start" x="447.5" y="-315" font-family="Helvetica,sans-Serif" font-size="10.00">/occ/include/occ/slater</text>
<text text-anchor="middle" x="503.5" y="-304" font-family="Helvetica,sans-Serif" font-size="10.00">/promolecule.h</text>
</a>
</g>
</g>
<!-- Node1&#45;&gt;Node12 -->
<g id="edge18_Node000001_Node000012" class="edge">
<title>Node1&#45;&gt;Node12</title>
<g id="a_edge18_Node000001_Node000012"><a xlink:title=" ">
<path fill="none" stroke="#63b8ff" d="M443.58,-367.35C455.38,-357.73 468.52,-347.01 479.49,-338.07"/>
<polygon fill="#63b8ff" stroke="#63b8ff" points="441.21,-364.76 435.67,-373.79 445.63,-370.19 441.21,-364.76"/>
</a>
</g>
</g>
<!-- Node3 -->
<g id="Node000003" class="node">
<title>Node3</title>
<g id="a_Node000003"><a xlink:href="isosurface_8h.html" target="_top" xlink:title=" ">
<polygon fill="white" stroke="#666666" points="434,-107 287,-107 287,-66 434,-66 434,-107"/>
<text text-anchor="start" x="295" y="-95" font-family="Helvetica,sans-Serif" font-size="10.00">/home/runner/work/occ</text>
<text text-anchor="start" x="295" y="-84" font-family="Helvetica,sans-Serif" font-size="10.00">/occ/include/occ/isosurface</text>
<text text-anchor="middle" x="360.5" y="-73" font-family="Helvetica,sans-Serif" font-size="10.00">/isosurface.h</text>
</a>
</g>
</g>
<!-- Node2&#45;&gt;Node3 -->
<g id="edge2_Node000002_Node000003" class="edge">
<title>Node2&#45;&gt;Node3</title>
<g id="a_edge2_Node000002_Node000003"><a xlink:title=" ">
<path fill="none" stroke="#63b8ff" d="M156.75,-140.74C197.82,-130.01 246.94,-117.18 286.66,-106.8"/>
<polygon fill="#63b8ff" stroke="#63b8ff" points="155.83,-137.37 147.04,-143.28 157.6,-144.14 155.83,-137.37"/>
</a>
</g>
</g>
<!-- Node4 -->
<g id="Node000004" class="node">
<title>Node4</title>
<g id="a_Node000004"><a xlink:href="obj_8h.html" target="_top" xlink:title=" ">
<polygon fill="white" stroke="#666666" points="352,-30 219,-30 219,0 352,0 352,-30"/>
<text text-anchor="start" x="227" y="-18" font-family="Helvetica,sans-Serif" font-size="10.00">/home/runner/work/occ</text>
<text text-anchor="middle" x="285.5" y="-7" font-family="Helvetica,sans-Serif" font-size="10.00">/occ/include/occ/io/obj.h</text>
</a>
</g>
</g>
<!-- Node3&#45;&gt;Node4 -->
<g id="edge3_Node000003_Node000004" class="edge">
<title>Node3&#45;&gt;Node4</title>
<g id="a_edge3_Node000003_Node000004"><a xlink:title=" ">
<path fill="none" stroke="#63b8ff" d="M331.72,-58.83C321.14,-49.02 309.57,-38.3 300.65,-30.04"/>
<polygon fill="#63b8ff" stroke="#63b8ff" points="329.49,-61.54 339.21,-65.77 334.25,-56.41 329.49,-61.54"/>
</a>
</g>
</g>
<!-- Node5 -->
<g id="Node000005" class="node">
<title>Node5</title>
<g id="a_Node000005"><a xlink:href="ply_8h.html" target="_top" xlink:title=" ">
<polygon fill="white" stroke="#666666" points="501,-30 370,-30 370,0 501,0 501,-30"/>
<text text-anchor="start" x="378" y="-18" font-family="Helvetica,sans-Serif" font-size="10.00">/home/runner/work/occ</text>
<text text-anchor="middle" x="435.5" y="-7" font-family="Helvetica,sans-Serif" font-size="10.00">/occ/include/occ/io/ply.h</text>
</a>
</g>
</g>
<!-- Node3&#45;&gt;Node5 -->
<g id="edge4_Node000003_Node000005" class="edge">
<title>Node3&#45;&gt;Node5</title>
<g id="a_edge4_Node000003_Node000005"><a xlink:title=" ">
<path fill="none" stroke="#63b8ff" d="M389.28,-58.83C399.86,-49.02 411.43,-38.3 420.35,-30.04"/>
<polygon fill="#63b8ff" stroke="#63b8ff" points="386.75,-56.41 381.79,-65.77 391.51,-61.54 386.75,-56.41"/>
</a>
</g>
</g>
<!-- Node6&#45;&gt;Node3 -->
<g id="edge6_Node000006_Node000003" class="edge">
<title>Node6&#45;&gt;Node3</title>
<g id="a_edge6_Node000006_Node000003"><a xlink:title=" ">
<path fill="none" stroke="#63b8ff" d="M214.21,-289.8C206.23,-281.51 198.79,-271.7 194.5,-261 187.72,-244.09 187.87,-236.97 194.5,-220 215.7,-165.73 273.96,-127.98 315.47,-107.03"/>
<polygon fill="#63b8ff" stroke="#63b8ff" points="211.99,-292.53 221.61,-296.98 216.86,-287.5 211.99,-292.53"/>
</a>
</g>
</g>
<!-- Node7&#45;&gt;Node3 -->
<g id="edge10_Node000007_Node000003" class="edge">
<title>Node7&#45;&gt;Node3</title>
<g id="a_edge10_Node000007_Node000003"><a xlink:title=" ">
<path fill="none" stroke="#63b8ff" d="M270.51,-209.59C267.45,-189.58 266.66,-163.29 277.5,-143 285.67,-127.71 300.12,-115.9 314.7,-107.18"/>
<polygon fill="#63b8ff" stroke="#63b8ff" points="267.11,-210.48 272.33,-219.7 274,-209.24 267.11,-210.48"/>
</a>
</g>
</g>
<!-- Node8 -->
<g id="Node000008" class="node">
<title>Node8</title>
<g id="a_Node000008"><a xlink:href="deformation__density_8h.html" target="_top" xlink:title=" ">
<polygon fill="white" stroke="#666666" points="434,-184 287,-184 287,-143 434,-143 434,-184"/>
<text text-anchor="start" x="295" y="-172" font-family="Helvetica,sans-Serif" font-size="10.00">/home/runner/work/occ</text>
<text text-anchor="start" x="295" y="-161" font-family="Helvetica,sans-Serif" font-size="10.00">/occ/include/occ/isosurface</text>
<text text-anchor="middle" x="360.5" y="-150" font-family="Helvetica,sans-Serif" font-size="10.00">/deformation_density.h</text>
</a>
</g>
</g>
<!-- Node7&#45;&gt;Node8 -->
<g id="edge8_Node000007_Node000008" class="edge">
<title>Node7&#45;&gt;Node8</title>
<g id="a_edge8_Node000007_Node000008"><a xlink:title=" ">
<path fill="none" stroke="#63b8ff" d="M306.75,-213.07C317.31,-203.52 329.04,-192.93 338.84,-184.07"/>
<polygon fill="#63b8ff" stroke="#63b8ff" points="304.38,-210.49 299.31,-219.79 309.07,-215.69 304.38,-210.49"/>
</a>
</g>
</g>
<!-- Node8&#45;&gt;Node3 -->
<g id="edge9_Node000008_Node000003" class="edge">
<title>Node8&#45;&gt;Node3</title>
<g id="a_edge9_Node000008_Node000003"><a xlink:title=" ">
<path fill="none" stroke="#63b8ff" d="M360.5,-132.69C360.5,-124.08 360.5,-114.9 360.5,-107.07"/>
<polygon fill="#63b8ff" stroke="#63b8ff" points="357,-132.79 360.5,-142.79 364,-132.79 357,-132.79"/>
</a>
</g>
</g>
<!-- Node9&#45;&gt;Node3 -->
<g id="edge13_Node000009_Node000003" class="edge">
<title>Node9&#45;&gt;Node3</title>
<g id="a_edge13_Node000009_Node000003"><a xlink:title=" ">
<path fill="none" stroke="#63b8ff" d="M449.45,-209.61C452.5,-189.61 453.28,-163.32 442.5,-143 434.36,-127.66 419.88,-115.79 405.33,-107.03"/>
<polygon fill="#63b8ff" stroke="#63b8ff" points="445.96,-209.26 447.65,-219.72 452.85,-210.49 445.96,-209.26"/>
</a>
</g>
</g>
<!-- Node9&#45;&gt;Node8 -->
<g id="edge12_Node000009_Node000008" class="edge">
<title>Node9&#45;&gt;Node8</title>
<g id="a_edge12_Node000009_Node000008"><a xlink:title=" ">
<path fill="none" stroke="#63b8ff" d="M413.3,-212.79C402.94,-203.32 391.49,-192.84 381.9,-184.07"/>
<polygon fill="#63b8ff" stroke="#63b8ff" points="411.21,-215.63 420.96,-219.79 415.94,-210.46 411.21,-215.63"/>
</a>
</g>
</g>
<!-- Node10&#45;&gt;Node3 -->
<g id="edge15_Node000010_Node000003" class="edge">
<title>Node10&#45;&gt;Node3</title>
<g id="a_edge15_Node000010_Node000003"><a xlink:title=" ">
<path fill="none" stroke="#63b8ff" d="M526.93,-139.94C493.66,-129.46 454.49,-117.12 422.51,-107.04"/>
<polygon fill="#63b8ff" stroke="#63b8ff" points="526,-143.32 536.59,-142.99 528.1,-136.65 526,-143.32"/>
</a>
</g>
</g>
<!-- Node11&#45;&gt;Node3 -->
<g id="edge17_Node000011_Node000003" class="edge">
<title>Node11&#45;&gt;Node3</title>
<g id="a_edge17_Node000011_Node000003"><a xlink:title=" ">
<path fill="none" stroke="#63b8ff" d="M782.32,-287.44C766.87,-247.92 733.56,-178.11 680.5,-143 641.06,-116.9 515.91,-101.17 434.3,-93.43"/>
<polygon fill="#63b8ff" stroke="#63b8ff" points="779.05,-288.69 785.87,-296.8 785.6,-286.21 779.05,-288.69"/>
</a>
</g>
</g>
<!-- Node12&#45;&gt;Node9 -->
<g id="edge19_Node000012_Node000009" class="edge">
<title>Node12&#45;&gt;Node9</title>
<g id="a_edge19_Node000012_Node000009"><a xlink:title=" ">
<path fill="none" stroke="#63b8ff" d="M481.1,-288.95C473.57,-279.7 465.34,-269.58 458.42,-261.07"/>
<polygon fill="#63b8ff" stroke="#63b8ff" points="478.45,-291.25 487.47,-296.79 483.88,-286.83 478.45,-291.25"/>
</a>
</g>
</g>
<!-- Node13 -->
<g id="Node000013" class="node">
<title>Node13</title>
<g id="a_Node000013"><a xlink:href="hirshfeld_8h.html" target="_top" xlink:title=" ">
<polygon fill="white" stroke="#666666" points="662.5,-261 534.5,-261 534.5,-220 662.5,-220 662.5,-261"/>
<text text-anchor="start" x="542.5" y="-249" font-family="Helvetica,sans-Serif" font-size="10.00">/home/runner/work/occ</text>
<text text-anchor="start" x="542.5" y="-238" font-family="Helvetica,sans-Serif" font-size="10.00">/occ/include/occ/slater</text>
<text text-anchor="middle" x="598.5" y="-227" font-family="Helvetica,sans-Serif" font-size="10.00">/hirshfeld.h</text>
</a>
</g>
</g>
<!-- Node12&#45;&gt;Node13 -->
<g id="edge20_Node000012_Node000013" class="edge">
<title>Node12&#45;&gt;Node13</title>
<g id="a_edge20_Node000012_Node000013"><a xlink:title=" ">
<path fill="none" stroke="#63b8ff" d="M536.63,-290.35C548.81,-280.73 562.38,-270.01 573.71,-261.07"/>
<polygon fill="#63b8ff" stroke="#63b8ff" points="534.14,-287.85 528.46,-296.79 538.48,-293.35 534.14,-287.85"/>
</a>
</g>
</g>
<!-- Node13&#45;&gt;Node10 -->
<g id="edge21_Node000013_Node000010" class="edge">
<title>Node13&#45;&gt;Node10</title>
<g id="a_edge21_Node000013_Node000010"><a xlink:title=" ">
<path fill="none" stroke="#63b8ff" d="M598.5,-209.69C598.5,-201.08 598.5,-191.9 598.5,-184.07"/>
<polygon fill="#63b8ff" stroke="#63b8ff" points="595,-209.79 598.5,-219.79 602,-209.79 595,-209.79"/>
</a>
</g>
</g>
</g>
</svg>
