<?xml version="1.0" encoding="UTF-8" standalone="no"?>
<!DOCTYPE svg PUBLIC "-//W3C//DTD SVG 1.1//EN"
 "http://www.w3.org/Graphics/SVG/1.1/DTD/svg11.dtd">
<!-- Generated by graphviz version 2.43.0 (0)
 -->
<!-- Title: /home/runner/work/occ/occ/include/occ/isosurface/common.h Pages: 1 -->
<svg width="874pt" height="357pt"
 viewBox="0.00 0.00 874.00 357.00" xmlns="http://www.w3.org/2000/svg" xmlns:xlink="http://www.w3.org/1999/xlink">
<g id="graph0" class="graph" transform="scale(1 1) rotate(0) translate(4 353)">
<title>/home/runner/work/occ/occ/include/occ/isosurface/common.h</title>
<!-- Node1 -->
<g id="Node000001" class="node">
<title>Node1</title>
<g id="a_Node000001"><a xlink:title=" ">
<polygon fill="#999999" stroke="#666666" points="485,-349 338,-349 338,-308 485,-308 485,-349"/>
<text text-anchor="start" x="346" y="-337" font-family="Helvetica,sans-Serif" font-size="10.00">/home/runner/work/occ</text>
<text text-anchor="start" x="346" y="-326" font-family="Helvetica,sans-Serif" font-size="10.00">/occ/include/occ/isosurface</text>
<text text-anchor="middle" x="411.5" y="-315" font-family="Helvetica,sans-Serif" font-size="10.00">/common.h</text>
</a>
</g>
</g>
<!-- Node2 -->
<g id="Node000002" class="node">
<title>Node2</title>
<g id="a_Node000002"><a xlink:href="eeq__esp_8h.html" target="_top" xlink:title=" ">
<polygon fill="white" stroke="#666666" points="147,-118 0,-118 0,-77 147,-77 147,-118"/>
<text text-anchor="start" x="8" y="-106" font-family="Helvetica,sans-Serif" font-size="10.00">/home/runner/work/occ</text>
<text text-anchor="start" x="8" y="-95" font-family="Helvetica,sans-Serif" font-size="10.00">/occ/include/occ/isosurface</text>
<text text-anchor="middle" x="73.5" y="-84" font-family="Helvetica,sans-Serif" font-size="10.00">/eeq_esp.h</text>
</a>
</g>
</g>
<!-- Node1&#45;&gt;Node2 -->
<g id="edge1_Node000001_Node000002" class="edge">
<title>Node1&#45;&gt;Node2</title>
<g id="a_edge1_Node000001_Node000002"><a xlink:title=" ">
<path fill="none" stroke="#63b8ff" d="M327.77,-326.06C276.09,-321.24 211,-307.68 164.5,-272 112.69,-232.25 87.41,-154.53 78,-118.16"/>
<polygon fill="#63b8ff" stroke="#63b8ff" points="327.66,-329.56 337.92,-326.9 328.25,-322.58 327.66,-329.56"/>
</a>
</g>
</g>
<!-- Node4 -->
<g id="Node000004" class="node">
<title>Node4</title>
<g id="a_Node000004"><a xlink:href="electric__potential_8h.html" target="_top" xlink:title=" ">
<polygon fill="white" stroke="#666666" points="321,-272 174,-272 174,-231 321,-231 321,-272"/>
<text text-anchor="start" x="182" y="-260" font-family="Helvetica,sans-Serif" font-size="10.00">/home/runner/work/occ</text>
<text text-anchor="start" x="182" y="-249" font-family="Helvetica,sans-Serif" font-size="10.00">/occ/include/occ/isosurface</text>
<text text-anchor="middle" x="247.5" y="-238" font-family="Helvetica,sans-Serif" font-size="10.00">/electric_potential.h</text>
</a>
</g>
</g>
<!-- Node1&#45;&gt;Node4 -->
<g id="edge3_Node000001_Node000004" class="edge">
<title>Node1&#45;&gt;Node4</title>
<g id="a_edge3_Node000001_Node000004"><a xlink:title=" ">
<path fill="none" stroke="#63b8ff" d="M359.51,-303.72C337.18,-293.51 311.42,-281.73 290.23,-272.04"/>
<polygon fill="#63b8ff" stroke="#63b8ff" points="358.29,-307.01 368.84,-307.99 361.2,-300.65 358.29,-307.01"/>
</a>
</g>
</g>
<!-- Node5 -->
<g id="Node000005" class="node">
<title>Node5</title>
<g id="a_Node000005"><a xlink:href="electron__density_8h.html" target="_top" xlink:title=" ">
<polygon fill="white" stroke="#666666" points="351,-195 204,-195 204,-154 351,-154 351,-195"/>
<text text-anchor="start" x="212" y="-183" font-family="Helvetica,sans-Serif" font-size="10.00">/home/runner/work/occ</text>
<text text-anchor="start" x="212" y="-172" font-family="Helvetica,sans-Serif" font-size="10.00">/occ/include/occ/isosurface</text>
<text text-anchor="middle" x="277.5" y="-161" font-family="Helvetica,sans-Serif" font-size="10.00">/electron_density.h</text>
</a>
</g>
</g>
<!-- Node1&#45;&gt;Node5 -->
<g id="edge5_Node000001_Node000005" class="edge">
<title>Node1&#45;&gt;Node5</title>
<g id="a_edge5_Node000001_Node000005"><a xlink:title=" ">
<path fill="none" stroke="#63b8ff" d="M388.57,-299.79C372.31,-280.34 349.87,-253.82 329.5,-231 318.69,-218.88 306.26,-205.6 296.27,-195.06"/>
<polygon fill="#63b8ff" stroke="#63b8ff" points="386.04,-302.23 395.13,-307.67 391.42,-297.75 386.04,-302.23"/>
</a>
</g>
</g>
<!-- Node7 -->
<g id="Node000007" class="node">
<title>Node7</title>
<g id="a_Node000007"><a xlink:href="promolecule__density_8h.html" target="_top" xlink:title=" ">
<polygon fill="white" stroke="#666666" points="516,-195 369,-195 369,-154 516,-154 516,-195"/>
<text text-anchor="start" x="377" y="-183" font-family="Helvetica,sans-Serif" font-size="10.00">/home/runner/work/occ</text>
<text text-anchor="start" x="377" y="-172" font-family="Helvetica,sans-Serif" font-size="10.00">/occ/include/occ/isosurface</text>
<text text-anchor="middle" x="442.5" y="-161" font-family="Helvetica,sans-Serif" font-size="10.00">/promolecule_density.h</text>
</a>
</g>
</g>
<!-- Node1&#45;&gt;Node7 -->
<g id="edge9_Node000001_Node000007" class="edge">
<title>Node1&#45;&gt;Node7</title>
<g id="a_edge9_Node000001_Node000007"><a xlink:title=" ">
<path fill="none" stroke="#63b8ff" d="M417.17,-297.97C420.87,-278.86 425.87,-253.43 430.5,-231 432.97,-219.03 435.87,-205.63 438.19,-195"/>
<polygon fill="#63b8ff" stroke="#63b8ff" points="413.71,-297.41 415.25,-307.89 420.58,-298.73 413.71,-297.41"/>
</a>
</g>
</g>
<!-- Node8 -->
<g id="Node000008" class="node">
<title>Node8</title>
<g id="a_Node000008"><a xlink:href="stockholder__weight_8h.html" target="_top" xlink:title=" ">
<polygon fill="white" stroke="#666666" points="672,-118 525,-118 525,-77 672,-77 672,-118"/>
<text text-anchor="start" x="533" y="-106" font-family="Helvetica,sans-Serif" font-size="10.00">/home/runner/work/occ</text>
<text text-anchor="start" x="533" y="-95" font-family="Helvetica,sans-Serif" font-size="10.00">/occ/include/occ/isosurface</text>
<text text-anchor="middle" x="598.5" y="-84" font-family="Helvetica,sans-Serif" font-size="10.00">/stockholder_weight.h</text>
</a>
</g>
</g>
<!-- Node1&#45;&gt;Node8 -->
<g id="edge12_Node000001_Node000008" class="edge">
<title>Node1&#45;&gt;Node8</title>
<g id="a_edge12_Node000001_Node000008"><a xlink:title=" ">
<path fill="none" stroke="#63b8ff" d="M495.17,-312.5C558.34,-296 639.43,-262.29 671.5,-195 679.34,-178.55 679.6,-170.33 671.5,-154 664.07,-139.02 650.46,-127 636.98,-118.02"/>
<polygon fill="#63b8ff" stroke="#63b8ff" points="494.05,-309.17 485.2,-315 495.75,-315.96 494.05,-309.17"/>
</a>
</g>
</g>
<!-- Node9 -->
<g id="Node000009" class="node">
<title>Node9</title>
<g id="a_Node000009"><a xlink:href="void_8h.html" target="_top" xlink:title=" ">
<polygon fill="white" stroke="#666666" points="866,-272 719,-272 719,-231 866,-231 866,-272"/>
<text text-anchor="start" x="727" y="-260" font-family="Helvetica,sans-Serif" font-size="10.00">/home/runner/work/occ</text>
<text text-anchor="start" x="727" y="-249" font-family="Helvetica,sans-Serif" font-size="10.00">/occ/include/occ/isosurface</text>
<text text-anchor="middle" x="792.5" y="-238" font-family="Helvetica,sans-Serif" font-size="10.00">/void.h</text>
</a>
</g>
</g>
<!-- Node1&#45;&gt;Node9 -->
<g id="edge14_Node000001_Node000009" class="edge">
<title>Node1&#45;&gt;Node9</title>
<g id="a_edge14_Node000001_Node000009"><a xlink:title=" ">
<path fill="none" stroke="#63b8ff" d="M495.04,-312.38C553.73,-301.59 634.03,-286.48 704.5,-272 709.1,-271.06 713.83,-270.06 718.59,-269.05"/>
<polygon fill="#63b8ff" stroke="#63b8ff" points="494.28,-308.97 485.08,-314.21 495.54,-315.85 494.28,-308.97"/>
</a>
</g>
</g>
<!-- Node10 -->
<g id="Node000010" class="node">
<title>Node10</title>
<g id="a_Node000010"><a xlink:href="promolecule_8h.html" target="_top" xlink:title=" ">
<polygon fill="white" stroke="#666666" points="567.5,-272 439.5,-272 439.5,-231 567.5,-231 567.5,-272"/>
<text text-anchor="start" x="447.5" y="-260" font-family="Helvetica,sans-Serif" font-size="10.00">/home/runner/work/occ</text>
<text text-anchor="start" x="447.5" y="-249" font-family="Helvetica,sans-Serif" font-size="10.00">/occ/include/occ/slater</text>
<text text-anchor="middle" x="503.5" y="-238" font-family="Helvetica,sans-Serif" font-size="10.00">/promolecule.h</text>
</a>
</g>
</g>
<!-- Node1&#45;&gt;Node10 -->
<g id="edge16_Node000001_Node000010" class="edge">
<title>Node1&#45;&gt;Node10</title>
<g id="a_edge16_Node000001_Node000010"><a xlink:title=" ">
<path fill="none" stroke="#63b8ff" d="M443.58,-301.35C455.38,-291.73 468.52,-281.01 479.49,-272.07"/>
<polygon fill="#63b8ff" stroke="#63b8ff" points="441.21,-298.76 435.67,-307.79 445.63,-304.19 441.21,-298.76"/>
</a>
</g>
</g>
<!-- Node3 -->
<g id="Node000003" class="node">
<title>Node3</title>
<g id="a_Node000003"><a xlink:href="isosurface_8h.html" target="_top" xlink:title=" ">
<polygon fill="white" stroke="#666666" points="434,-41 287,-41 287,0 434,0 434,-41"/>
<text text-anchor="start" x="295" y="-29" font-family="Helvetica,sans-Serif" font-size="10.00">/home/runner/work/occ</text>
<text text-anchor="start" x="295" y="-18" font-family="Helvetica,sans-Serif" font-size="10.00">/occ/include/occ/isosurface</text>
<text text-anchor="middle" x="360.5" y="-7" font-family="Helvetica,sans-Serif" font-size="10.00">/isosurface.h</text>
</a>
</g>
</g>
<!-- Node2&#45;&gt;Node3 -->
<g id="edge2_Node000002_Node000003" class="edge">
<title>Node2&#45;&gt;Node3</title>
<g id="a_edge2_Node000002_Node000003"><a xlink:title=" ">
<path fill="none" stroke="#63b8ff" d="M156.75,-74.74C197.82,-64.01 246.94,-51.18 286.66,-40.8"/>
<polygon fill="#63b8ff" stroke="#63b8ff" points="155.83,-71.37 147.04,-77.28 157.6,-78.14 155.83,-71.37"/>
</a>
</g>
</g>
<!-- Node4&#45;&gt;Node3 -->
<g id="edge4_Node000004_Node000003" class="edge">
<title>Node4&#45;&gt;Node3</title>
<g id="a_edge4_Node000004_Node000003"><a xlink:title=" ">
<path fill="none" stroke="#63b8ff" d="M214.21,-223.8C206.23,-215.51 198.79,-205.7 194.5,-195 187.72,-178.09 187.87,-170.97 194.5,-154 215.7,-99.73 273.96,-61.98 315.47,-41.03"/>
<polygon fill="#63b8ff" stroke="#63b8ff" points="211.99,-226.53 221.61,-230.98 216.86,-221.5 211.99,-226.53"/>
</a>
</g>
</g>
<!-- Node5&#45;&gt;Node3 -->
<g id="edge8_Node000005_Node000003" class="edge">
<title>Node5&#45;&gt;Node3</title>
<g id="a_edge8_Node000005_Node000003"><a xlink:title=" ">
<path fill="none" stroke="#63b8ff" d="M270.51,-143.59C267.45,-123.58 266.66,-97.29 277.5,-77 285.67,-61.71 300.12,-49.9 314.7,-41.18"/>
<polygon fill="#63b8ff" stroke="#63b8ff" points="267.11,-144.48 272.33,-153.7 274,-143.24 267.11,-144.48"/>
</a>
</g>
</g>
<!-- Node6 -->
<g id="Node000006" class="node">
<title>Node6</title>
<g id="a_Node000006"><a xlink:href="deformation__density_8h.html" target="_top" xlink:title=" ">
<polygon fill="white" stroke="#666666" points="434,-118 287,-118 287,-77 434,-77 434,-118"/>
<text text-anchor="start" x="295" y="-106" font-family="Helvetica,sans-Serif" font-size="10.00">/home/runner/work/occ</text>
<text text-anchor="start" x="295" y="-95" font-family="Helvetica,sans-Serif" font-size="10.00">/occ/include/occ/isosurface</text>
<text text-anchor="middle" x="360.5" y="-84" font-family="Helvetica,sans-Serif" font-size="10.00">/deformation_density.h</text>
</a>
</g>
</g>
<!-- Node5&#45;&gt;Node6 -->
<g id="edge6_Node000005_Node000006" class="edge">
<title>Node5&#45;&gt;Node6</title>
<g id="a_edge6_Node000005_Node000006"><a xlink:title=" ">
<path fill="none" stroke="#63b8ff" d="M306.75,-147.07C317.31,-137.52 329.04,-126.93 338.84,-118.07"/>
<polygon fill="#63b8ff" stroke="#63b8ff" points="304.38,-144.49 299.31,-153.79 309.07,-149.69 304.38,-144.49"/>
</a>
</g>
</g>
<!-- Node6&#45;&gt;Node3 -->
<g id="edge7_Node000006_Node000003" class="edge">
<title>Node6&#45;&gt;Node3</title>
<g id="a_edge7_Node000006_Node000003"><a xlink:title=" ">
<path fill="none" stroke="#63b8ff" d="M360.5,-66.69C360.5,-58.08 360.5,-48.9 360.5,-41.07"/>
<polygon fill="#63b8ff" stroke="#63b8ff" points="357,-66.79 360.5,-76.79 364,-66.79 357,-66.79"/>
</a>
</g>
</g>
<!-- Node7&#45;&gt;Node3 -->
<g id="edge11_Node000007_Node000003" class="edge">
<title>Node7&#45;&gt;Node3</title>
<g id="a_edge11_Node000007_Node000003"><a xlink:title=" ">
<path fill="none" stroke="#63b8ff" d="M449.45,-143.61C452.5,-123.61 453.28,-97.32 442.5,-77 434.36,-61.66 419.88,-49.79 405.33,-41.03"/>
<polygon fill="#63b8ff" stroke="#63b8ff" points="445.96,-143.26 447.65,-153.72 452.85,-144.49 445.96,-143.26"/>
</a>
</g>
</g>
<!-- Node7&#45;&gt;Node6 -->
<g id="edge10_Node000007_Node000006" class="edge">
<title>Node7&#45;&gt;Node6</title>
<g id="a_edge10_Node000007_Node000006"><a xlink:title=" ">
<path fill="none" stroke="#63b8ff" d="M413.3,-146.79C402.94,-137.32 391.49,-126.84 381.9,-118.07"/>
<polygon fill="#63b8ff" stroke="#63b8ff" points="411.21,-149.63 420.96,-153.79 415.94,-144.46 411.21,-149.63"/>
</a>
</g>
</g>
<!-- Node8&#45;&gt;Node3 -->
<g id="edge13_Node000008_Node000003" class="edge">
<title>Node8&#45;&gt;Node3</title>
<g id="a_edge13_Node000008_Node000003"><a xlink:title=" ">
<path fill="none" stroke="#63b8ff" d="M526.93,-73.94C493.66,-63.46 454.49,-51.12 422.51,-41.04"/>
<polygon fill="#63b8ff" stroke="#63b8ff" points="526,-77.32 536.59,-76.99 528.1,-70.65 526,-77.32"/>
</a>
</g>
</g>
<!-- Node9&#45;&gt;Node3 -->
<g id="edge15_Node000009_Node000003" class="edge">
<title>Node9&#45;&gt;Node3</title>
<g id="a_edge15_Node000009_Node000003"><a xlink:title=" ">
<path fill="none" stroke="#63b8ff" d="M782.32,-221.44C766.87,-181.92 733.56,-112.11 680.5,-77 641.06,-50.9 515.91,-35.17 434.3,-27.43"/>
<polygon fill="#63b8ff" stroke="#63b8ff" points="779.05,-222.69 785.87,-230.8 785.6,-220.21 779.05,-222.69"/>
</a>
</g>
</g>
<!-- Node10&#45;&gt;Node7 -->
<g id="edge17_Node000010_Node000007" class="edge">
<title>Node10&#45;&gt;Node7</title>
<g id="a_edge17_Node000010_Node000007"><a xlink:title=" ">
<path fill="none" stroke="#63b8ff" d="M481.1,-222.95C473.57,-213.7 465.34,-203.58 458.42,-195.07"/>
<polygon fill="#63b8ff" stroke="#63b8ff" points="478.45,-225.25 487.47,-230.79 483.88,-220.83 478.45,-225.25"/>
</a>
</g>
</g>
<!-- Node11 -->
<g id="Node000011" class="node">
<title>Node11</title>
<g id="a_Node000011"><a xlink:href="hirshfeld_8h.html" target="_top" xlink:title=" ">
<polygon fill="white" stroke="#666666" points="662.5,-195 534.5,-195 534.5,-154 662.5,-154 662.5,-195"/>
<text text-anchor="start" x="542.5" y="-183" font-family="Helvetica,sans-Serif" font-size="10.00">/home/runner/work/occ</text>
<text text-anchor="start" x="542.5" y="-172" font-family="Helvetica,sans-Serif" font-size="10.00">/occ/include/occ/slater</text>
<text text-anchor="middle" x="598.5" y="-161" font-family="Helvetica,sans-Serif" font-size="10.00">/hirshfeld.h</text>
</a>
</g>
</g>
<!-- Node10&#45;&gt;Node11 -->
<g id="edge18_Node000010_Node000011" class="edge">
<title>Node10&#45;&gt;Node11</title>
<g id="a_edge18_Node000010_Node000011"><a xlink:title=" ">
<path fill="none" stroke="#63b8ff" d="M536.63,-224.35C548.81,-214.73 562.38,-204.01 573.71,-195.07"/>
<polygon fill="#63b8ff" stroke="#63b8ff" points="534.14,-221.85 528.46,-230.79 538.48,-227.35 534.14,-221.85"/>
</a>
</g>
</g>
<!-- Node11&#45;&gt;Node8 -->
<g id="edge19_Node000011_Node000008" class="edge">
<title>Node11&#45;&gt;Node8</title>
<g id="a_edge19_Node000011_Node000008"><a xlink:title=" ">
<path fill="none" stroke="#63b8ff" d="M598.5,-143.69C598.5,-135.08 598.5,-125.9 598.5,-118.07"/>
<polygon fill="#63b8ff" stroke="#63b8ff" points="595,-143.79 598.5,-153.79 602,-143.79 595,-143.79"/>
</a>
</g>
</g>
</g>
</svg>
