<?xml version="1.0" encoding="UTF-8" standalone="no"?>
<!DOCTYPE svg PUBLIC "-//W3C//DTD SVG 1.1//EN"
 "http://www.w3.org/Graphics/SVG/1.1/DTD/svg11.dtd">
<!-- Generated by graphviz version 2.43.0 (0)
 -->
<!-- Title: /home/runner/work/occ/occ/include/occ/qm/convergence_accelerator.h Pages: 1 -->
<svg width="971pt" height="335pt"
 viewBox="0.00 0.00 970.50 335.00" xmlns="http://www.w3.org/2000/svg" xmlns:xlink="http://www.w3.org/1999/xlink">
<g id="graph0" class="graph" transform="scale(1 1) rotate(0) translate(4 331)">
<title>/home/runner/work/occ/occ/include/occ/qm/convergence_accelerator.h</title>
<!-- Node1 -->
<g id="Node000001" class="node">
<title>Node1</title>
<g id="a_Node000001"><a xlink:title=" ">
<polygon fill="#999999" stroke="#666666" points="800,-327 622,-327 622,-286 800,-286 800,-327"/>
<text text-anchor="start" x="630" y="-315" font-family="Helvetica,sans-Serif" font-size="10.00">/home/runner/work/occ</text>
<text text-anchor="start" x="630" y="-304" font-family="Helvetica,sans-Serif" font-size="10.00">/occ/include/occ/qm/convergence</text>
<text text-anchor="middle" x="711" y="-293" font-family="Helvetica,sans-Serif" font-size="10.00">_accelerator.h</text>
</a>
</g>
</g>
<!-- Node2 -->
<g id="Node000002" class="node">
<title>Node2</title>
<g id="a_Node000002"><a xlink:href="adiis_8h.html" target="_top" xlink:title=" ">
<polygon fill="white" stroke="#666666" points="597.5,-244.5 510.5,-244.5 510.5,-225.5 597.5,-225.5 597.5,-244.5"/>
<text text-anchor="middle" x="554" y="-232.5" font-family="Helvetica,sans-Serif" font-size="10.00">occ/qm/adiis.h</text>
</a>
</g>
</g>
<!-- Node1&#45;&gt;Node2 -->
<g id="edge1_Node000001_Node000002" class="edge">
<title>Node1&#45;&gt;Node2</title>
<g id="a_edge1_Node000001_Node000002"><a xlink:title=" ">
<path fill="none" stroke="#63b8ff" d="M666.85,-285.96C639.87,-274.01 606.14,-259.08 582.62,-248.67"/>
<polygon fill="#63b8ff" stroke="#63b8ff" points="583.77,-245.35 573.21,-244.5 580.94,-251.75 583.77,-245.35"/>
</a>
</g>
</g>
<!-- Node18 -->
<g id="Node000018" class="node">
<title>Node18</title>
<g id="a_Node000018"><a xlink:href="cdiis_8h.html" target="_top" xlink:title=" ">
<polygon fill="white" stroke="#666666" points="807,-244.5 721,-244.5 721,-225.5 807,-225.5 807,-244.5"/>
<text text-anchor="middle" x="764" y="-232.5" font-family="Helvetica,sans-Serif" font-size="10.00">occ/qm/cdiis.h</text>
</a>
</g>
</g>
<!-- Node1&#45;&gt;Node18 -->
<g id="edge20_Node000001_Node000018" class="edge">
<title>Node1&#45;&gt;Node18</title>
<g id="a_edge20_Node000001_Node000018"><a xlink:title=" ">
<path fill="none" stroke="#63b8ff" d="M726.05,-285.77C733.92,-275.45 743.46,-262.93 751.01,-253.04"/>
<polygon fill="#63b8ff" stroke="#63b8ff" points="753.99,-254.89 757.27,-244.82 748.43,-250.65 753.99,-254.89"/>
</a>
</g>
</g>
<!-- Node20 -->
<g id="Node000020" class="node">
<title>Node20</title>
<g id="a_Node000020"><a xlink:href="ediis_8h.html" target="_top" xlink:title=" ">
<polygon fill="white" stroke="#666666" points="702.5,-244.5 615.5,-244.5 615.5,-225.5 702.5,-225.5 702.5,-244.5"/>
<text text-anchor="middle" x="659" y="-232.5" font-family="Helvetica,sans-Serif" font-size="10.00">occ/qm/ediis.h</text>
</a>
</g>
</g>
<!-- Node1&#45;&gt;Node20 -->
<g id="edge24_Node000001_Node000020" class="edge">
<title>Node1&#45;&gt;Node20</title>
<g id="a_edge24_Node000001_Node000020"><a xlink:title=" ">
<path fill="none" stroke="#63b8ff" d="M696.24,-285.77C688.51,-275.45 679.15,-262.93 671.75,-253.04"/>
<polygon fill="#63b8ff" stroke="#63b8ff" points="674.39,-250.73 665.6,-244.82 668.79,-254.92 674.39,-250.73"/>
</a>
</g>
</g>
<!-- Node21 -->
<g id="Node000021" class="node">
<title>Node21</title>
<g id="a_Node000021"><a xlink:href="scf__convergence__settings_8h.html" target="_top" xlink:title=" ">
<polygon fill="white" stroke="#666666" points="962.5,-250 825.5,-250 825.5,-220 962.5,-220 962.5,-250"/>
<text text-anchor="start" x="833.5" y="-238" font-family="Helvetica,sans-Serif" font-size="10.00">occ/qm/scf_convergence</text>
<text text-anchor="middle" x="894" y="-227" font-family="Helvetica,sans-Serif" font-size="10.00">_settings.h</text>
</a>
</g>
</g>
<!-- Node1&#45;&gt;Node21 -->
<g id="edge27_Node000001_Node000021" class="edge">
<title>Node1&#45;&gt;Node21</title>
<g id="a_edge27_Node000001_Node000021"><a xlink:title=" ">
<path fill="none" stroke="#63b8ff" d="M762.46,-285.96C789.18,-275.81 821.57,-263.51 847.52,-253.65"/>
<polygon fill="#63b8ff" stroke="#63b8ff" points="849.02,-256.83 857.13,-250 846.54,-250.28 849.02,-256.83"/>
</a>
</g>
</g>
<!-- Node3 -->
<g id="Node000003" class="node">
<title>Node3</title>
<g id="a_Node000003"><a xlink:title=" ">
<polygon fill="#e0e0e0" stroke="#999999" points="725.5,-129 678.5,-129 678.5,-110 725.5,-110 725.5,-129"/>
<text text-anchor="middle" x="702" y="-117" font-family="Helvetica,sans-Serif" font-size="10.00">deque</text>
</a>
</g>
</g>
<!-- Node2&#45;&gt;Node3 -->
<g id="edge2_Node000002_Node000003" class="edge">
<title>Node2&#45;&gt;Node3</title>
<g id="a_edge2_Node000002_Node000003"><a xlink:title=" ">
<path fill="none" stroke="#63b8ff" d="M570.63,-225.47C587.93,-216.26 615.44,-200.66 637,-184 655.61,-169.62 674.58,-150.46 687.19,-136.96"/>
<polygon fill="#63b8ff" stroke="#63b8ff" points="689.97,-139.11 694.16,-129.38 684.81,-134.37 689.97,-139.11"/>
</a>
</g>
</g>
<!-- Node4 -->
<g id="Node000004" class="node">
<title>Node4</title>
<g id="a_Node000004"><a xlink:href="linear__algebra_8h.html" target="_top" xlink:title=" ">
<polygon fill="white" stroke="#666666" points="748.5,-74 609.5,-74 609.5,-55 748.5,-55 748.5,-74"/>
<text text-anchor="middle" x="679" y="-62" font-family="Helvetica,sans-Serif" font-size="10.00">occ/core/linear_algebra.h</text>
</a>
</g>
</g>
<!-- Node2&#45;&gt;Node4 -->
<g id="edge3_Node000002_Node000004" class="edge">
<title>Node2&#45;&gt;Node4</title>
<g id="a_edge3_Node000002_Node000004"><a xlink:title=" ">
<path fill="none" stroke="#63b8ff" d="M540.16,-225.24C527.79,-216.5 510.49,-201.83 503,-184 496.69,-168.99 489.71,-128.97 505,-110 517.74,-94.19 562.57,-82.95 603.53,-75.72"/>
<polygon fill="#63b8ff" stroke="#63b8ff" points="604.29,-79.14 613.56,-74.01 603.11,-72.24 604.29,-79.14"/>
</a>
</g>
</g>
<!-- Node7 -->
<g id="Node000007" class="node">
<title>Node7</title>
<g id="a_Node000007"><a xlink:href="spinorbital_8h.html" target="_top" xlink:title=" ">
<polygon fill="white" stroke="#666666" points="628,-184 512,-184 512,-165 628,-165 628,-184"/>
<text text-anchor="middle" x="570" y="-172" font-family="Helvetica,sans-Serif" font-size="10.00">occ/qm/spinorbital.h</text>
</a>
</g>
</g>
<!-- Node2&#45;&gt;Node7 -->
<g id="edge6_Node000002_Node000007" class="edge">
<title>Node2&#45;&gt;Node7</title>
<g id="a_edge6_Node000002_Node000007"><a xlink:title=" ">
<path fill="none" stroke="#63b8ff" d="M556.36,-225.37C558.61,-217.16 562.06,-204.54 564.93,-194.05"/>
<polygon fill="#63b8ff" stroke="#63b8ff" points="568.37,-194.74 567.63,-184.17 561.62,-192.89 568.37,-194.74"/>
</a>
</g>
</g>
<!-- Node5 -->
<g id="Node000005" class="node">
<title>Node5</title>
<g id="a_Node000005"><a xlink:title=" ">
<polygon fill="#e0e0e0" stroke="#999999" points="663.5,-19 594.5,-19 594.5,0 663.5,0 663.5,-19"/>
<text text-anchor="middle" x="629" y="-7" font-family="Helvetica,sans-Serif" font-size="10.00">Eigen/Core</text>
</a>
</g>
</g>
<!-- Node4&#45;&gt;Node5 -->
<g id="edge4_Node000004_Node000005" class="edge">
<title>Node4&#45;&gt;Node5</title>
<g id="a_edge4_Node000004_Node000005"><a xlink:title=" ">
<path fill="none" stroke="#63b8ff" d="M670.74,-54.75C663.54,-47.11 652.89,-35.82 644.15,-26.56"/>
<polygon fill="#63b8ff" stroke="#63b8ff" points="646.51,-23.96 637.1,-19.09 641.42,-28.76 646.51,-23.96"/>
</a>
</g>
</g>
<!-- Node6 -->
<g id="Node000006" class="node">
<title>Node6</title>
<g id="a_Node000006"><a xlink:title=" ">
<polygon fill="#e0e0e0" stroke="#999999" points="774.5,-19 681.5,-19 681.5,0 774.5,0 774.5,-19"/>
<text text-anchor="middle" x="728" y="-7" font-family="Helvetica,sans-Serif" font-size="10.00">Eigen/StdVector</text>
</a>
</g>
</g>
<!-- Node4&#45;&gt;Node6 -->
<g id="edge5_Node000004_Node000006" class="edge">
<title>Node4&#45;&gt;Node6</title>
<g id="a_edge5_Node000004_Node000006"><a xlink:title=" ">
<path fill="none" stroke="#63b8ff" d="M687.09,-54.75C694.16,-47.11 704.59,-35.82 713.15,-26.56"/>
<polygon fill="#63b8ff" stroke="#63b8ff" points="715.84,-28.81 720.06,-19.09 710.7,-24.06 715.84,-28.81"/>
</a>
</g>
</g>
<!-- Node7&#45;&gt;Node4 -->
<g id="edge7_Node000007_Node000004" class="edge">
<title>Node7&#45;&gt;Node4</title>
<g id="a_edge7_Node000007_Node000004"><a xlink:title=" ">
<path fill="none" stroke="#63b8ff" d="M583.98,-165C596.96,-156.73 616.42,-143.34 631,-129 645.27,-114.97 658.76,-96.49 667.78,-83.08"/>
<polygon fill="#63b8ff" stroke="#63b8ff" points="670.95,-84.64 673.51,-74.36 665.1,-80.8 670.95,-84.64"/>
</a>
</g>
</g>
<!-- Node8 -->
<g id="Node000008" class="node">
<title>Node8</title>
<g id="a_Node000008"><a xlink:href="util_8h.html" target="_top" xlink:title=" ">
<polygon fill="white" stroke="#666666" points="428.5,-129 343.5,-129 343.5,-110 428.5,-110 428.5,-129"/>
<text text-anchor="middle" x="386" y="-117" font-family="Helvetica,sans-Serif" font-size="10.00">occ/core/util.h</text>
</a>
</g>
</g>
<!-- Node7&#45;&gt;Node8 -->
<g id="edge8_Node000007_Node000008" class="edge">
<title>Node7&#45;&gt;Node8</title>
<g id="a_edge8_Node000007_Node000008"><a xlink:title=" ">
<path fill="none" stroke="#63b8ff" d="M540.44,-164.98C509.28,-156.01 460.03,-141.82 425.54,-131.89"/>
<polygon fill="#63b8ff" stroke="#63b8ff" points="426.37,-128.49 415.79,-129.08 424.43,-135.21 426.37,-128.49"/>
</a>
</g>
</g>
<!-- Node17 -->
<g id="Node000017" class="node">
<title>Node17</title>
<g id="a_Node000017"><a xlink:href="qm_2opmatrix_8h.html" target="_top" xlink:title=" ">
<polygon fill="white" stroke="#666666" points="622,-129 514,-129 514,-110 622,-110 622,-129"/>
<text text-anchor="middle" x="568" y="-117" font-family="Helvetica,sans-Serif" font-size="10.00">occ/qm/opmatrix.h</text>
</a>
</g>
</g>
<!-- Node7&#45;&gt;Node17 -->
<g id="edge18_Node000007_Node000017" class="edge">
<title>Node7&#45;&gt;Node17</title>
<g id="a_edge18_Node000007_Node000017"><a xlink:title=" ">
<path fill="none" stroke="#63b8ff" d="M564.5,-164.75C562.75,-157.8 561.94,-147.85 562.22,-139.13"/>
<polygon fill="#63b8ff" stroke="#63b8ff" points="565.72,-139.38 563.19,-129.09 558.75,-138.71 565.72,-139.38"/>
</a>
</g>
</g>
<!-- Node8&#45;&gt;Node4 -->
<g id="edge15_Node000008_Node000004" class="edge">
<title>Node8&#45;&gt;Node4</title>
<g id="a_edge15_Node000008_Node000004"><a xlink:title=" ">
<path fill="none" stroke="#63b8ff" d="M428.6,-110.79C479.66,-101.56 565.4,-86.05 622.09,-75.79"/>
<polygon fill="#63b8ff" stroke="#63b8ff" points="622.76,-79.23 631.98,-74.01 621.51,-72.34 622.76,-79.23"/>
</a>
</g>
</g>
<!-- Node9 -->
<g id="Node000009" class="node">
<title>Node9</title>
<g id="a_Node000009"><a xlink:title=" ">
<polygon fill="#e0e0e0" stroke="#999999" points="524,-74 460,-74 460,-55 524,-55 524,-74"/>
<text text-anchor="middle" x="492" y="-62" font-family="Helvetica,sans-Serif" font-size="10.00">algorithm</text>
</a>
</g>
</g>
<!-- Node8&#45;&gt;Node9 -->
<g id="edge9_Node000008_Node000009" class="edge">
<title>Node8&#45;&gt;Node9</title>
<g id="a_edge9_Node000008_Node000009"><a xlink:title=" ">
<path fill="none" stroke="#63b8ff" d="M403.03,-109.98C419.93,-101.54 446.06,-88.47 465.64,-78.68"/>
<polygon fill="#63b8ff" stroke="#63b8ff" points="467.28,-81.77 474.66,-74.17 464.15,-75.51 467.28,-81.77"/>
</a>
</g>
</g>
<!-- Node10 -->
<g id="Node000010" class="node">
<title>Node10</title>
<g id="a_Node000010"><a xlink:title=" ">
<polygon fill="#e0e0e0" stroke="#999999" points="591.5,-74 542.5,-74 542.5,-55 591.5,-55 591.5,-74"/>
<text text-anchor="middle" x="567" y="-62" font-family="Helvetica,sans-Serif" font-size="10.00">cctype</text>
</a>
</g>
</g>
<!-- Node8&#45;&gt;Node10 -->
<g id="edge10_Node000008_Node000010" class="edge">
<title>Node8&#45;&gt;Node10</title>
<g id="a_edge10_Node000008_Node000010"><a xlink:title=" ">
<path fill="none" stroke="#63b8ff" d="M415.08,-109.98C447.05,-100.62 498.38,-85.59 532.39,-75.63"/>
<polygon fill="#63b8ff" stroke="#63b8ff" points="533.74,-78.89 542.35,-72.72 531.77,-72.17 533.74,-78.89"/>
</a>
</g>
</g>
<!-- Node11 -->
<g id="Node000011" class="node">
<title>Node11</title>
<g id="a_Node000011"><a xlink:title=" ">
<polygon fill="#e0e0e0" stroke="#999999" points="50,-74 0,-74 0,-55 50,-55 50,-74"/>
<text text-anchor="middle" x="25" y="-62" font-family="Helvetica,sans-Serif" font-size="10.00">chrono</text>
</a>
</g>
</g>
<!-- Node8&#45;&gt;Node11 -->
<g id="edge11_Node000008_Node000011" class="edge">
<title>Node8&#45;&gt;Node11</title>
<g id="a_edge11_Node000008_Node000011"><a xlink:title=" ">
<path fill="none" stroke="#63b8ff" d="M343.43,-114.22C282.69,-107.77 167.52,-94.33 60.21,-74.04"/>
<polygon fill="#63b8ff" stroke="#63b8ff" points="60.66,-70.57 50.18,-72.12 59.35,-77.44 60.66,-70.57"/>
</a>
</g>
</g>
<!-- Node12 -->
<g id="Node000012" class="node">
<title>Node12</title>
<g id="a_Node000012"><a xlink:title=" ">
<polygon fill="#e0e0e0" stroke="#999999" points="135.5,-74 68.5,-74 68.5,-55 135.5,-55 135.5,-74"/>
<text text-anchor="middle" x="102" y="-62" font-family="Helvetica,sans-Serif" font-size="10.00">fmt/core.h</text>
</a>
</g>
</g>
<!-- Node8&#45;&gt;Node12 -->
<g id="edge12_Node000008_Node000012" class="edge">
<title>Node8&#45;&gt;Node12</title>
<g id="a_edge12_Node000008_Node000012"><a xlink:title=" ">
<path fill="none" stroke="#63b8ff" d="M343.31,-110.78C297.18,-102.41 221.25,-88.52 145.93,-74.16"/>
<polygon fill="#63b8ff" stroke="#63b8ff" points="146.27,-70.66 135.79,-72.22 144.96,-77.54 146.27,-70.66"/>
</a>
</g>
</g>
<!-- Node13 -->
<g id="Node000013" class="node">
<title>Node13</title>
<g id="a_Node000013"><a xlink:title=" ">
<polygon fill="#e0e0e0" stroke="#999999" points="240,-74 154,-74 154,-55 240,-55 240,-74"/>
<text text-anchor="middle" x="197" y="-62" font-family="Helvetica,sans-Serif" font-size="10.00">fmt/ostream.h</text>
</a>
</g>
</g>
<!-- Node8&#45;&gt;Node13 -->
<g id="edge13_Node000008_Node000013" class="edge">
<title>Node8&#45;&gt;Node13</title>
<g id="a_edge13_Node000008_Node000013"><a xlink:title=" ">
<path fill="none" stroke="#63b8ff" d="M355.63,-109.98C323.63,-101.01 273.04,-86.82 237.62,-76.89"/>
<polygon fill="#63b8ff" stroke="#63b8ff" points="238.18,-73.41 227.6,-74.08 236.29,-80.15 238.18,-73.41"/>
</a>
</g>
</g>
<!-- Node14 -->
<g id="Node000014" class="node">
<title>Node14</title>
<g id="a_Node000014"><a xlink:title=" ">
<polygon fill="#e0e0e0" stroke="#999999" points="314,-74 258,-74 258,-55 314,-55 314,-74"/>
<text text-anchor="middle" x="286" y="-62" font-family="Helvetica,sans-Serif" font-size="10.00">numeric</text>
</a>
</g>
</g>
<!-- Node8&#45;&gt;Node14 -->
<g id="edge14_Node000008_Node000014" class="edge">
<title>Node8&#45;&gt;Node14</title>
<g id="a_edge14_Node000008_Node000014"><a xlink:title=" ">
<path fill="none" stroke="#63b8ff" d="M369.93,-109.98C354.14,-101.61 329.78,-88.7 311.37,-78.95"/>
<polygon fill="#63b8ff" stroke="#63b8ff" points="312.83,-75.76 302.36,-74.17 309.56,-81.95 312.83,-75.76"/>
</a>
</g>
</g>
<!-- Node15 -->
<g id="Node000015" class="node">
<title>Node15</title>
<g id="a_Node000015"><a xlink:title=" ">
<polygon fill="#e0e0e0" stroke="#999999" points="376,-74 332,-74 332,-55 376,-55 376,-74"/>
<text text-anchor="middle" x="354" y="-62" font-family="Helvetica,sans-Serif" font-size="10.00">string</text>
</a>
</g>
</g>
<!-- Node8&#45;&gt;Node15 -->
<g id="edge16_Node000008_Node000015" class="edge">
<title>Node8&#45;&gt;Node15</title>
<g id="a_edge16_Node000008_Node000015"><a xlink:title=" ">
<path fill="none" stroke="#63b8ff" d="M380.72,-109.75C376.29,-102.42 369.84,-91.73 364.38,-82.7"/>
<polygon fill="#63b8ff" stroke="#63b8ff" points="367.35,-80.84 359.19,-74.09 361.36,-84.46 367.35,-80.84"/>
</a>
</g>
</g>
<!-- Node16 -->
<g id="Node000016" class="node">
<title>Node16</title>
<g id="a_Node000016"><a xlink:title=" ">
<polygon fill="#e0e0e0" stroke="#999999" points="441.5,-74 394.5,-74 394.5,-55 441.5,-55 441.5,-74"/>
<text text-anchor="middle" x="418" y="-62" font-family="Helvetica,sans-Serif" font-size="10.00">vector</text>
</a>
</g>
</g>
<!-- Node8&#45;&gt;Node16 -->
<g id="edge17_Node000008_Node000016" class="edge">
<title>Node8&#45;&gt;Node16</title>
<g id="a_edge17_Node000008_Node000016"><a xlink:title=" ">
<path fill="none" stroke="#63b8ff" d="M391.28,-109.75C395.71,-102.42 402.16,-91.73 407.62,-82.7"/>
<polygon fill="#63b8ff" stroke="#63b8ff" points="410.64,-84.46 412.81,-74.09 404.65,-80.84 410.64,-84.46"/>
</a>
</g>
</g>
<!-- Node17&#45;&gt;Node7 -->
<g id="edge19_Node000017_Node000007" class="edge">
<title>Node17&#45;&gt;Node7</title>
<g id="a_edge19_Node000017_Node000007"><a xlink:title=" ">
<path fill="none" stroke="#63b8ff" d="M573.46,-129.09C575.22,-135.99 576.05,-145.93 575.78,-154.66"/>
<polygon fill="#63b8ff" stroke="#63b8ff" points="572.28,-154.47 574.84,-164.75 579.25,-155.12 572.28,-154.47"/>
</a>
</g>
</g>
<!-- Node19 -->
<g id="Node000019" class="node">
<title>Node19</title>
<g id="a_Node000019"><a xlink:href="diis_8h.html" target="_top" xlink:title=" ">
<polygon fill="white" stroke="#666666" points="791,-184 705,-184 705,-165 791,-165 791,-184"/>
<text text-anchor="middle" x="748" y="-172" font-family="Helvetica,sans-Serif" font-size="10.00">occ/core/diis.h</text>
</a>
</g>
</g>
<!-- Node18&#45;&gt;Node19 -->
<g id="edge21_Node000018_Node000019" class="edge">
<title>Node18&#45;&gt;Node19</title>
<g id="a_edge21_Node000018_Node000019"><a xlink:title=" ">
<path fill="none" stroke="#63b8ff" d="M761.64,-225.37C759.39,-217.16 755.94,-204.54 753.07,-194.05"/>
<polygon fill="#63b8ff" stroke="#63b8ff" points="756.38,-192.89 750.37,-184.17 749.63,-194.74 756.38,-192.89"/>
</a>
</g>
</g>
<!-- Node19&#45;&gt;Node3 -->
<g id="edge22_Node000019_Node000003" class="edge">
<title>Node19&#45;&gt;Node3</title>
<g id="a_edge22_Node000019_Node000003"><a xlink:title=" ">
<path fill="none" stroke="#63b8ff" d="M740.4,-164.75C733.84,-157.18 724.18,-146.05 716.19,-136.84"/>
<polygon fill="#63b8ff" stroke="#63b8ff" points="718.65,-134.35 709.45,-129.09 713.37,-138.94 718.65,-134.35"/>
</a>
</g>
</g>
<!-- Node19&#45;&gt;Node4 -->
<g id="edge23_Node000019_Node000004" class="edge">
<title>Node19&#45;&gt;Node4</title>
<g id="a_edge23_Node000019_Node000004"><a xlink:title=" ">
<path fill="none" stroke="#63b8ff" d="M748.05,-164.6C747.72,-151.64 745.6,-127.26 735,-110 727.36,-97.56 714.93,-87.16 703.71,-79.55"/>
<polygon fill="#63b8ff" stroke="#63b8ff" points="705.41,-76.48 695.1,-74.06 701.65,-82.38 705.41,-76.48"/>
</a>
</g>
</g>
<!-- Node20&#45;&gt;Node7 -->
<g id="edge26_Node000020_Node000007" class="edge">
<title>Node20&#45;&gt;Node7</title>
<g id="a_edge26_Node000020_Node000007"><a xlink:title=" ">
<path fill="none" stroke="#63b8ff" d="M645.87,-225.37C631.67,-216.04 608.8,-201.01 591.88,-189.88"/>
<polygon fill="#63b8ff" stroke="#63b8ff" points="593.47,-186.74 583.19,-184.17 589.62,-192.58 593.47,-186.74"/>
</a>
</g>
</g>
<!-- Node20&#45;&gt;Node19 -->
<g id="edge25_Node000020_Node000019" class="edge">
<title>Node20&#45;&gt;Node19</title>
<g id="a_edge25_Node000020_Node000019"><a xlink:title=" ">
<path fill="none" stroke="#63b8ff" d="M672.13,-225.37C686.33,-216.04 709.2,-201.01 726.12,-189.88"/>
<polygon fill="#63b8ff" stroke="#63b8ff" points="728.38,-192.58 734.81,-184.17 724.53,-186.74 728.38,-192.58"/>
</a>
</g>
</g>
</g>
</svg>
