<?xml version="1.0" encoding="UTF-8" standalone="no"?>
<!DOCTYPE svg PUBLIC "-//W3C//DTD SVG 1.1//EN"
 "http://www.w3.org/Graphics/SVG/1.1/DTD/svg11.dtd">
<!-- Generated by graphviz version 2.43.0 (0)
 -->
<!-- Title: /home/runner/work/occ/occ/include/occ/io/conversion.h Pages: 1 -->
<svg width="929pt" height="330pt"
 viewBox="0.00 0.00 929.00 330.00" xmlns="http://www.w3.org/2000/svg" xmlns:xlink="http://www.w3.org/1999/xlink">
<g id="graph0" class="graph" transform="scale(1 1) rotate(0) translate(4 326)">
<title>/home/runner/work/occ/occ/include/occ/io/conversion.h</title>
<!-- Node1 -->
<g id="node1" class="node">
<title>Node1</title>
<g id="a_node1"><a xlink:title=" ">
<polygon fill="#bfbfbf" stroke="black" points="0,-291.5 0,-321.5 171,-321.5 171,-291.5 0,-291.5"/>
<text text-anchor="start" x="8" y="-309.5" font-family="Helvetica,sans-Serif" font-size="10.00">/home/runner/work/occ</text>
<text text-anchor="middle" x="85.5" y="-298.5" font-family="Helvetica,sans-Serif" font-size="10.00">/occ/include/occ/io/conversion.h</text>
</a>
</g>
</g>
<!-- Node2 -->
<g id="node2" class="node">
<title>Node2</title>
<g id="a_node2"><a xlink:href="linear__algebra_8h.html" target="_top" xlink:title=" ">
<polygon fill="none" stroke="black" points="85,-67.5 85,-86.5 224,-86.5 224,-67.5 85,-67.5"/>
<text text-anchor="middle" x="154.5" y="-74.5" font-family="Helvetica,sans-Serif" font-size="10.00">occ/core/linear_algebra.h</text>
</a>
</g>
</g>
<!-- Node1&#45;&gt;Node2 -->
<g id="edge1" class="edge">
<title>Node1&#45;&gt;Node2</title>
<path fill="none" stroke="midnightblue" d="M79.04,-291.43C65.19,-259.04 36.52,-177.77 69.5,-123 78.79,-107.57 95.33,-97.16 111.37,-90.27"/>
<polygon fill="midnightblue" stroke="midnightblue" points="112.67,-93.52 120.7,-86.61 110.11,-87.01 112.67,-93.52"/>
</g>
<!-- Node6 -->
<g id="node6" class="node">
<title>Node6</title>
<g id="a_node6"><a xlink:href="shell_8h.html" target="_top" xlink:title=" ">
<polygon fill="none" stroke="black" points="166,-235.5 166,-254.5 253,-254.5 253,-235.5 166,-235.5"/>
<text text-anchor="middle" x="209.5" y="-242.5" font-family="Helvetica,sans-Serif" font-size="10.00">occ/qm/shell.h</text>
</a>
</g>
</g>
<!-- Node1&#45;&gt;Node6 -->
<g id="edge5" class="edge">
<title>Node1&#45;&gt;Node6</title>
<path fill="none" stroke="midnightblue" d="M114.89,-291.4C135.32,-281.59 162.36,-268.62 182.3,-259.05"/>
<polygon fill="midnightblue" stroke="midnightblue" points="183.96,-262.14 191.46,-254.66 180.93,-255.83 183.96,-262.14"/>
</g>
<!-- Node3 -->
<g id="node3" class="node">
<title>Node3</title>
<g id="a_node3"><a xlink:title=" ">
<polygon fill="none" stroke="#bfbfbf" points="13,-6 13,-25 90,-25 90,-6 13,-6"/>
<text text-anchor="middle" x="51.5" y="-13" font-family="Helvetica,sans-Serif" font-size="10.00">Eigen/Dense</text>
</a>
</g>
</g>
<!-- Node2&#45;&gt;Node3 -->
<g id="edge2" class="edge">
<title>Node2&#45;&gt;Node3</title>
<path fill="none" stroke="midnightblue" d="M139.74,-67.48C122.84,-57.71 94.92,-41.58 75.01,-30.08"/>
<polygon fill="midnightblue" stroke="midnightblue" points="76.64,-26.98 66.23,-25.01 73.14,-33.04 76.64,-26.98"/>
</g>
<!-- Node4 -->
<g id="node4" class="node">
<title>Node4</title>
<g id="a_node4"><a xlink:title=" ">
<polygon fill="none" stroke="#bfbfbf" points="108,-6 108,-25 201,-25 201,-6 108,-6"/>
<text text-anchor="middle" x="154.5" y="-13" font-family="Helvetica,sans-Serif" font-size="10.00">Eigen/StdVector</text>
</a>
</g>
</g>
<!-- Node2&#45;&gt;Node4 -->
<g id="edge3" class="edge">
<title>Node2&#45;&gt;Node4</title>
<path fill="none" stroke="midnightblue" d="M154.5,-67.48C154.5,-59.08 154.5,-45.98 154.5,-35.16"/>
<polygon fill="midnightblue" stroke="midnightblue" points="158,-35.01 154.5,-25.01 151,-35.01 158,-35.01"/>
</g>
<!-- Node5 -->
<g id="node5" class="node">
<title>Node5</title>
<g id="a_node5"><a xlink:title=" ">
<polygon fill="none" stroke="#bfbfbf" points="219,-0.5 219,-30.5 326,-30.5 326,-0.5 219,-0.5"/>
<text text-anchor="start" x="227" y="-18.5" font-family="Helvetica,sans-Serif" font-size="10.00">occ/3rdparty/eigen</text>
<text text-anchor="middle" x="272.5" y="-7.5" font-family="Helvetica,sans-Serif" font-size="10.00">&#45;fmt/fmt.h</text>
</a>
</g>
</g>
<!-- Node2&#45;&gt;Node5 -->
<g id="edge4" class="edge">
<title>Node2&#45;&gt;Node5</title>
<path fill="none" stroke="midnightblue" d="M171.41,-67.48C188.06,-59.08 214.05,-45.97 235.51,-35.15"/>
<polygon fill="midnightblue" stroke="midnightblue" points="237.34,-38.15 244.69,-30.52 234.18,-31.9 237.34,-38.15"/>
</g>
<!-- Node6&#45;&gt;Node2 -->
<g id="edge10" class="edge">
<title>Node6&#45;&gt;Node2</title>
<path fill="none" stroke="midnightblue" d="M171.12,-235.48C148.52,-228.79 120.69,-217.44 101.5,-199 81.71,-179.99 81.42,-169.8 75.5,-143 73.58,-134.32 71.03,-130.69 75.5,-123 84.24,-107.97 100.08,-97.54 115.29,-90.54"/>
<polygon fill="midnightblue" stroke="midnightblue" points="116.76,-93.72 124.62,-86.61 114.04,-87.27 116.76,-93.72"/>
</g>
<!-- Node7 -->
<g id="node7" class="node">
<title>Node7</title>
<g id="a_node7"><a xlink:title=" ">
<polygon fill="none" stroke="#bfbfbf" points="84.5,-123.5 84.5,-142.5 126.5,-142.5 126.5,-123.5 84.5,-123.5"/>
<text text-anchor="middle" x="105.5" y="-130.5" font-family="Helvetica,sans-Serif" font-size="10.00">array</text>
</a>
</g>
</g>
<!-- Node6&#45;&gt;Node7 -->
<g id="edge6" class="edge">
<title>Node6&#45;&gt;Node7</title>
<path fill="none" stroke="midnightblue" d="M170.91,-235.5C150.58,-228.97 127.12,-217.77 113.5,-199 103.81,-185.64 102.54,-166.52 103.25,-152.48"/>
<polygon fill="midnightblue" stroke="midnightblue" points="106.74,-152.78 104.13,-142.51 99.77,-152.17 106.74,-152.78"/>
</g>
<!-- Node8 -->
<g id="node8" class="node">
<title>Node8</title>
<g id="a_node8"><a xlink:title=" ">
<polygon fill="none" stroke="#bfbfbf" points="122.5,-179.5 122.5,-198.5 182.5,-198.5 182.5,-179.5 122.5,-179.5"/>
<text text-anchor="middle" x="152.5" y="-186.5" font-family="Helvetica,sans-Serif" font-size="10.00">iostream</text>
</a>
</g>
</g>
<!-- Node6&#45;&gt;Node8 -->
<g id="edge7" class="edge">
<title>Node6&#45;&gt;Node8</title>
<path fill="none" stroke="midnightblue" d="M200.34,-235.32C192,-227.42 179.47,-215.55 169.32,-205.94"/>
<polygon fill="midnightblue" stroke="midnightblue" points="171.49,-203.17 161.82,-198.83 166.68,-208.25 171.49,-203.17"/>
</g>
<!-- Node9 -->
<g id="node9" class="node">
<title>Node9</title>
<g id="a_node9"><a xlink:href="atom_8h.html" target="_top" xlink:title=" ">
<polygon fill="none" stroke="black" points="183,-123.5 183,-142.5 278,-142.5 278,-123.5 183,-123.5"/>
<text text-anchor="middle" x="230.5" y="-130.5" font-family="Helvetica,sans-Serif" font-size="10.00">occ/core/atom.h</text>
</a>
</g>
</g>
<!-- Node6&#45;&gt;Node9 -->
<g id="edge8" class="edge">
<title>Node6&#45;&gt;Node9</title>
<path fill="none" stroke="midnightblue" d="M253.13,-241.77C283.34,-237.67 321.56,-226.86 341.5,-199 360.41,-172.58 321.97,-155.19 285.26,-145.11"/>
<polygon fill="midnightblue" stroke="midnightblue" points="286.06,-141.7 275.5,-142.58 284.3,-148.48 286.06,-141.7"/>
</g>
<!-- Node10 -->
<g id="node10" class="node">
<title>Node10</title>
<g id="a_node10"><a xlink:href="point__charge_8h.html" target="_top" xlink:title=" ">
<polygon fill="none" stroke="black" points="200.5,-179.5 200.5,-198.5 332.5,-198.5 332.5,-179.5 200.5,-179.5"/>
<text text-anchor="middle" x="266.5" y="-186.5" font-family="Helvetica,sans-Serif" font-size="10.00">occ/core/point_charge.h</text>
</a>
</g>
</g>
<!-- Node6&#45;&gt;Node10 -->
<g id="edge11" class="edge">
<title>Node6&#45;&gt;Node10</title>
<path fill="none" stroke="midnightblue" d="M218.66,-235.32C227,-227.42 239.53,-215.55 249.68,-205.94"/>
<polygon fill="midnightblue" stroke="midnightblue" points="252.32,-208.25 257.18,-198.83 247.51,-203.17 252.32,-208.25"/>
</g>
<!-- Node11 -->
<g id="node11" class="node">
<title>Node11</title>
<g id="a_node11"><a xlink:href="util_8h.html" target="_top" xlink:title=" ">
<polygon fill="none" stroke="black" points="523,-179.5 523,-198.5 608,-198.5 608,-179.5 523,-179.5"/>
<text text-anchor="middle" x="565.5" y="-186.5" font-family="Helvetica,sans-Serif" font-size="10.00">occ/core/util.h</text>
</a>
</g>
</g>
<!-- Node6&#45;&gt;Node11 -->
<g id="edge15" class="edge">
<title>Node6&#45;&gt;Node11</title>
<path fill="none" stroke="midnightblue" d="M253.15,-237.38C318.72,-227.43 442.43,-208.67 512.88,-197.98"/>
<polygon fill="midnightblue" stroke="midnightblue" points="513.52,-201.43 522.88,-196.47 512.47,-194.5 513.52,-201.43"/>
</g>
<!-- Node19 -->
<g id="node19" class="node">
<title>Node19</title>
<g id="a_node19"><a xlink:title=" ">
<polygon fill="none" stroke="#bfbfbf" points="874,-123.5 874,-142.5 921,-142.5 921,-123.5 874,-123.5"/>
<text text-anchor="middle" x="897.5" y="-130.5" font-family="Helvetica,sans-Serif" font-size="10.00">vector</text>
</a>
</g>
</g>
<!-- Node6&#45;&gt;Node19 -->
<g id="edge25" class="edge">
<title>Node6&#45;&gt;Node19</title>
<path fill="none" stroke="midnightblue" d="M253.21,-240.89C328.14,-235.17 485.79,-221.47 617.5,-199 707.43,-183.66 811.71,-157.08 863.98,-143.14"/>
<polygon fill="midnightblue" stroke="midnightblue" points="864.97,-146.5 873.72,-140.53 863.16,-139.74 864.97,-146.5"/>
</g>
<!-- Node9&#45;&gt;Node2 -->
<g id="edge9" class="edge">
<title>Node9&#45;&gt;Node2</title>
<path fill="none" stroke="midnightblue" d="M218.29,-123.32C206.72,-115.11 189.12,-102.6 175.34,-92.81"/>
<polygon fill="midnightblue" stroke="midnightblue" points="177.11,-89.77 166.93,-86.83 173.06,-95.48 177.11,-89.77"/>
</g>
<!-- Node10&#45;&gt;Node2 -->
<g id="edge14" class="edge">
<title>Node10&#45;&gt;Node2</title>
<path fill="none" stroke="midnightblue" d="M233.4,-179.43C213.41,-172.65 188.91,-161.21 173.5,-143 162.47,-129.97 157.84,-110.81 155.9,-96.67"/>
<polygon fill="midnightblue" stroke="midnightblue" points="159.37,-96.19 154.85,-86.61 152.41,-96.92 159.37,-96.19"/>
</g>
<!-- Node10&#45;&gt;Node7 -->
<g id="edge12" class="edge">
<title>Node10&#45;&gt;Node7</title>
<path fill="none" stroke="midnightblue" d="M240.99,-179.44C212.63,-169.93 166.83,-154.57 136.44,-144.38"/>
<polygon fill="midnightblue" stroke="midnightblue" points="137.37,-141 126.78,-141.14 135.15,-147.64 137.37,-141"/>
</g>
<!-- Node10&#45;&gt;Node9 -->
<g id="edge13" class="edge">
<title>Node10&#45;&gt;Node9</title>
<path fill="none" stroke="midnightblue" d="M260.56,-179.08C255.52,-171.53 248.16,-160.49 241.99,-151.23"/>
<polygon fill="midnightblue" stroke="midnightblue" points="244.79,-149.13 236.33,-142.75 238.97,-153.01 244.79,-149.13"/>
</g>
<!-- Node11&#45;&gt;Node2 -->
<g id="edge22" class="edge">
<title>Node11&#45;&gt;Node2</title>
<path fill="none" stroke="midnightblue" d="M608.27,-187.04C675,-184.54 799.1,-175.53 826.5,-143 832.23,-136.2 832.57,-129.49 826.5,-123 786.8,-80.55 403.46,-76.9 234.18,-77.38"/>
<polygon fill="midnightblue" stroke="midnightblue" points="234.06,-73.88 224.07,-77.41 234.09,-80.88 234.06,-73.88"/>
</g>
<!-- Node12 -->
<g id="node12" class="node">
<title>Node12</title>
<g id="a_node12"><a xlink:title=" ">
<polygon fill="none" stroke="#bfbfbf" points="496.5,-123.5 496.5,-142.5 560.5,-142.5 560.5,-123.5 496.5,-123.5"/>
<text text-anchor="middle" x="528.5" y="-130.5" font-family="Helvetica,sans-Serif" font-size="10.00">algorithm</text>
</a>
</g>
</g>
<!-- Node11&#45;&gt;Node12 -->
<g id="edge16" class="edge">
<title>Node11&#45;&gt;Node12</title>
<path fill="none" stroke="midnightblue" d="M559.39,-179.08C554.22,-171.53 546.65,-160.49 540.31,-151.23"/>
<polygon fill="midnightblue" stroke="midnightblue" points="543.04,-149.02 534.5,-142.75 537.26,-152.98 543.04,-149.02"/>
</g>
<!-- Node13 -->
<g id="node13" class="node">
<title>Node13</title>
<g id="a_node13"><a xlink:title=" ">
<polygon fill="none" stroke="#bfbfbf" points="579,-123.5 579,-142.5 628,-142.5 628,-123.5 579,-123.5"/>
<text text-anchor="middle" x="603.5" y="-130.5" font-family="Helvetica,sans-Serif" font-size="10.00">cctype</text>
</a>
</g>
</g>
<!-- Node11&#45;&gt;Node13 -->
<g id="edge17" class="edge">
<title>Node11&#45;&gt;Node13</title>
<path fill="none" stroke="midnightblue" d="M571.77,-179.08C577.14,-171.46 585.02,-160.26 591.58,-150.94"/>
<polygon fill="midnightblue" stroke="midnightblue" points="594.45,-152.94 597.34,-142.75 588.72,-148.91 594.45,-152.94"/>
</g>
<!-- Node14 -->
<g id="node14" class="node">
<title>Node14</title>
<g id="a_node14"><a xlink:title=" ">
<polygon fill="none" stroke="#bfbfbf" points="646,-123.5 646,-142.5 713,-142.5 713,-123.5 646,-123.5"/>
<text text-anchor="middle" x="679.5" y="-130.5" font-family="Helvetica,sans-Serif" font-size="10.00">fmt/core.h</text>
</a>
</g>
</g>
<!-- Node11&#45;&gt;Node14 -->
<g id="edge18" class="edge">
<title>Node11&#45;&gt;Node14</title>
<path fill="none" stroke="midnightblue" d="M583.56,-179.44C602.07,-170.68 631.08,-156.94 652.36,-146.86"/>
<polygon fill="midnightblue" stroke="midnightblue" points="653.98,-149.96 661.52,-142.52 650.99,-143.63 653.98,-149.96"/>
</g>
<!-- Node15 -->
<g id="node15" class="node">
<title>Node15</title>
<g id="a_node15"><a xlink:title=" ">
<polygon fill="none" stroke="#bfbfbf" points="731.5,-123.5 731.5,-142.5 817.5,-142.5 817.5,-123.5 731.5,-123.5"/>
<text text-anchor="middle" x="774.5" y="-130.5" font-family="Helvetica,sans-Serif" font-size="10.00">fmt/ostream.h</text>
</a>
</g>
</g>
<!-- Node11&#45;&gt;Node15 -->
<g id="edge19" class="edge">
<title>Node11&#45;&gt;Node15</title>
<path fill="none" stroke="midnightblue" d="M598.62,-179.44C634.62,-170.14 692.27,-155.25 731.69,-145.06"/>
<polygon fill="midnightblue" stroke="midnightblue" points="732.73,-148.41 741.54,-142.52 730.98,-141.63 732.73,-148.41"/>
</g>
<!-- Node16 -->
<g id="node16" class="node">
<title>Node16</title>
<g id="a_node16"><a xlink:title=" ">
<polygon fill="none" stroke="#bfbfbf" points="296.5,-123.5 296.5,-142.5 342.5,-142.5 342.5,-123.5 296.5,-123.5"/>
<text text-anchor="middle" x="319.5" y="-130.5" font-family="Helvetica,sans-Serif" font-size="10.00">locale</text>
</a>
</g>
</g>
<!-- Node11&#45;&gt;Node16 -->
<g id="edge20" class="edge">
<title>Node11&#45;&gt;Node16</title>
<path fill="none" stroke="midnightblue" d="M522.68,-179.87C481.45,-171.85 417.16,-158.83 352.48,-143.12"/>
<polygon fill="midnightblue" stroke="midnightblue" points="353.07,-139.66 342.52,-140.67 351.4,-146.45 353.07,-139.66"/>
</g>
<!-- Node17 -->
<g id="node17" class="node">
<title>Node17</title>
<g id="a_node17"><a xlink:title=" ">
<polygon fill="none" stroke="#bfbfbf" points="360.5,-123.5 360.5,-142.5 416.5,-142.5 416.5,-123.5 360.5,-123.5"/>
<text text-anchor="middle" x="388.5" y="-130.5" font-family="Helvetica,sans-Serif" font-size="10.00">numeric</text>
</a>
</g>
</g>
<!-- Node11&#45;&gt;Node17 -->
<g id="edge21" class="edge">
<title>Node11&#45;&gt;Node17</title>
<path fill="none" stroke="midnightblue" d="M537.45,-179.44C507.42,-170.28 459.59,-155.69 426.26,-145.52"/>
<polygon fill="midnightblue" stroke="midnightblue" points="427,-142.09 416.41,-142.52 424.96,-148.78 427,-142.09"/>
</g>
<!-- Node18 -->
<g id="node18" class="node">
<title>Node18</title>
<g id="a_node18"><a xlink:title=" ">
<polygon fill="none" stroke="#bfbfbf" points="434.5,-123.5 434.5,-142.5 478.5,-142.5 478.5,-123.5 434.5,-123.5"/>
<text text-anchor="middle" x="456.5" y="-130.5" font-family="Helvetica,sans-Serif" font-size="10.00">string</text>
</a>
</g>
</g>
<!-- Node11&#45;&gt;Node18 -->
<g id="edge23" class="edge">
<title>Node11&#45;&gt;Node18</title>
<path fill="none" stroke="midnightblue" d="M547.99,-179.32C530.43,-170.62 503.17,-157.12 482.97,-147.11"/>
<polygon fill="midnightblue" stroke="midnightblue" points="484.48,-143.96 473.97,-142.65 481.38,-150.23 484.48,-143.96"/>
</g>
<!-- Node11&#45;&gt;Node19 -->
<g id="edge24" class="edge">
<title>Node11&#45;&gt;Node19</title>
<path fill="none" stroke="midnightblue" d="M608.04,-182.59C665.38,-175.04 770.55,-160.31 859.5,-143 860.96,-142.72 862.44,-142.42 863.94,-142.1"/>
<polygon fill="midnightblue" stroke="midnightblue" points="864.84,-145.49 873.85,-139.91 863.33,-138.65 864.84,-145.49"/>
</g>
</g>
</svg>
