<?xml version="1.0" encoding="UTF-8" standalone="no"?>
<!DOCTYPE svg PUBLIC "-//W3C//DTD SVG 1.1//EN"
 "http://www.w3.org/Graphics/SVG/1.1/DTD/svg11.dtd">
<!-- Generated by graphviz version 2.43.0 (0)
 -->
<!-- Title: /home/runner/work/occ/occ/include/occ/qm/convergence_accelerator.h Pages: 1 -->
<svg width="772pt" height="390pt"
 viewBox="0.00 0.00 771.50 390.00" xmlns="http://www.w3.org/2000/svg" xmlns:xlink="http://www.w3.org/1999/xlink">
<g id="graph0" class="graph" transform="scale(1 1) rotate(0) translate(4 386)">
<title>/home/runner/work/occ/occ/include/occ/qm/convergence_accelerator.h</title>
<!-- Node1 -->
<g id="Node000001" class="node">
<title>Node1</title>
<g id="a_Node000001"><a xlink:title=" ">
<polygon fill="#999999" stroke="#666666" points="300.5,-382 122.5,-382 122.5,-341 300.5,-341 300.5,-382"/>
<text text-anchor="start" x="130.5" y="-370" font-family="Helvetica,sans-Serif" font-size="10.00">/home/runner/work/occ</text>
<text text-anchor="start" x="130.5" y="-359" font-family="Helvetica,sans-Serif" font-size="10.00">/occ/include/occ/qm/convergence</text>
<text text-anchor="middle" x="211.5" y="-348" font-family="Helvetica,sans-Serif" font-size="10.00">_accelerator.h</text>
</a>
</g>
</g>
<!-- Node2 -->
<g id="Node000002" class="node">
<title>Node2</title>
<g id="a_Node000002"><a xlink:href="adiis_8h.html" target="_top" xlink:title=" ">
<polygon fill="white" stroke="#666666" points="308,-299.5 221,-299.5 221,-280.5 308,-280.5 308,-299.5"/>
<text text-anchor="middle" x="264.5" y="-287.5" font-family="Helvetica,sans-Serif" font-size="10.00">occ/qm/adiis.h</text>
</a>
</g>
</g>
<!-- Node1&#45;&gt;Node2 -->
<g id="edge1_Node000001_Node000002" class="edge">
<title>Node1&#45;&gt;Node2</title>
<g id="a_edge1_Node000001_Node000002"><a xlink:title=" ">
<path fill="none" stroke="#63b8ff" d="M226.55,-340.77C234.42,-330.45 243.96,-317.93 251.51,-308.04"/>
<polygon fill="#63b8ff" stroke="#63b8ff" points="254.49,-309.89 257.77,-299.82 248.93,-305.65 254.49,-309.89"/>
</a>
</g>
</g>
<!-- Node19 -->
<g id="Node000019" class="node">
<title>Node19</title>
<g id="a_Node000019"><a xlink:href="cdiis_8h.html" target="_top" xlink:title=" ">
<polygon fill="white" stroke="#666666" points="97.5,-299.5 11.5,-299.5 11.5,-280.5 97.5,-280.5 97.5,-299.5"/>
<text text-anchor="middle" x="54.5" y="-287.5" font-family="Helvetica,sans-Serif" font-size="10.00">occ/qm/cdiis.h</text>
</a>
</g>
</g>
<!-- Node1&#45;&gt;Node19 -->
<g id="edge23_Node000001_Node000019" class="edge">
<title>Node1&#45;&gt;Node19</title>
<g id="a_edge23_Node000001_Node000019"><a xlink:title=" ">
<path fill="none" stroke="#63b8ff" d="M167.35,-340.96C140.37,-329.01 106.64,-314.08 83.12,-303.67"/>
<polygon fill="#63b8ff" stroke="#63b8ff" points="84.27,-300.35 73.71,-299.5 81.44,-306.75 84.27,-300.35"/>
</a>
</g>
</g>
<!-- Node21 -->
<g id="Node000021" class="node">
<title>Node21</title>
<g id="a_Node000021"><a xlink:href="ediis_8h.html" target="_top" xlink:title=" ">
<polygon fill="white" stroke="#666666" points="203,-299.5 116,-299.5 116,-280.5 203,-280.5 203,-299.5"/>
<text text-anchor="middle" x="159.5" y="-287.5" font-family="Helvetica,sans-Serif" font-size="10.00">occ/qm/ediis.h</text>
</a>
</g>
</g>
<!-- Node1&#45;&gt;Node21 -->
<g id="edge27_Node000001_Node000021" class="edge">
<title>Node1&#45;&gt;Node21</title>
<g id="a_edge27_Node000001_Node000021"><a xlink:title=" ">
<path fill="none" stroke="#63b8ff" d="M196.74,-340.77C189.01,-330.45 179.65,-317.93 172.25,-308.04"/>
<polygon fill="#63b8ff" stroke="#63b8ff" points="174.89,-305.73 166.1,-299.82 169.29,-309.92 174.89,-305.73"/>
</a>
</g>
</g>
<!-- Node22 -->
<g id="Node000022" class="node">
<title>Node22</title>
<g id="a_Node000022"><a xlink:href="scf__convergence__settings_8h.html" target="_top" xlink:title=" ">
<polygon fill="white" stroke="#666666" points="463,-305 326,-305 326,-275 463,-275 463,-305"/>
<text text-anchor="start" x="334" y="-293" font-family="Helvetica,sans-Serif" font-size="10.00">occ/qm/scf_convergence</text>
<text text-anchor="middle" x="394.5" y="-282" font-family="Helvetica,sans-Serif" font-size="10.00">_settings.h</text>
</a>
</g>
</g>
<!-- Node1&#45;&gt;Node22 -->
<g id="edge30_Node000001_Node000022" class="edge">
<title>Node1&#45;&gt;Node22</title>
<g id="a_edge30_Node000001_Node000022"><a xlink:title=" ">
<path fill="none" stroke="#63b8ff" d="M262.96,-340.96C289.68,-330.81 322.07,-318.51 348.02,-308.65"/>
<polygon fill="#63b8ff" stroke="#63b8ff" points="349.52,-311.83 357.63,-305 347.04,-305.28 349.52,-311.83"/>
</a>
</g>
</g>
<!-- Node3 -->
<g id="Node000003" class="node">
<title>Node3</title>
<g id="a_Node000003"><a xlink:title=" ">
<polygon fill="#e0e0e0" stroke="#999999" points="147,-184 100,-184 100,-165 147,-165 147,-184"/>
<text text-anchor="middle" x="123.5" y="-172" font-family="Helvetica,sans-Serif" font-size="10.00">deque</text>
</a>
</g>
</g>
<!-- Node2&#45;&gt;Node3 -->
<g id="edge2_Node000002_Node000003" class="edge">
<title>Node2&#45;&gt;Node3</title>
<g id="a_edge2_Node000002_Node000003"><a xlink:title=" ">
<path fill="none" stroke="#63b8ff" d="M250.38,-280.44C235.12,-270.96 210.33,-254.92 190.5,-239 171.87,-224.05 152.22,-204.98 139.05,-191.66"/>
<polygon fill="#63b8ff" stroke="#63b8ff" points="141.25,-188.9 131.76,-184.19 136.25,-193.79 141.25,-188.9"/>
</a>
</g>
</g>
<!-- Node4 -->
<g id="Node000004" class="node">
<title>Node4</title>
<g id="a_Node000004"><a xlink:href="linear__algebra_8h.html" target="_top" xlink:title=" ">
<polygon fill="white" stroke="#666666" points="153,-74 14,-74 14,-55 153,-55 153,-74"/>
<text text-anchor="middle" x="83.5" y="-62" font-family="Helvetica,sans-Serif" font-size="10.00">occ/core/linear_algebra.h</text>
</a>
</g>
</g>
<!-- Node2&#45;&gt;Node4 -->
<g id="edge3_Node000002_Node000004" class="edge">
<title>Node2&#45;&gt;Node4</title>
<g id="a_edge3_Node000002_Node000004"><a xlink:title=" ">
<path fill="none" stroke="#63b8ff" d="M281.55,-280.35C295.99,-271.98 315.7,-257.79 324.5,-239 331.45,-224.15 334.74,-184.82 320.5,-165 283.12,-112.97 213.13,-88 158.86,-76.11"/>
<polygon fill="#63b8ff" stroke="#63b8ff" points="159.43,-72.65 148.92,-74.04 158,-79.51 159.43,-72.65"/>
</a>
</g>
</g>
<!-- Node7 -->
<g id="Node000007" class="node">
<title>Node7</title>
<g id="a_Node000007"><a xlink:href="qm_2spinorbital_8h.html" target="_top" xlink:title=" ">
<polygon fill="white" stroke="#666666" points="315.5,-239 199.5,-239 199.5,-220 315.5,-220 315.5,-239"/>
<text text-anchor="middle" x="257.5" y="-227" font-family="Helvetica,sans-Serif" font-size="10.00">occ/qm/spinorbital.h</text>
</a>
</g>
</g>
<!-- Node2&#45;&gt;Node7 -->
<g id="edge6_Node000002_Node000007" class="edge">
<title>Node2&#45;&gt;Node7</title>
<g id="a_edge6_Node000002_Node000007"><a xlink:title=" ">
<path fill="none" stroke="#63b8ff" d="M263.47,-280.37C262.5,-272.25 261.01,-259.81 259.76,-249.39"/>
<polygon fill="#63b8ff" stroke="#63b8ff" points="263.2,-248.68 258.54,-239.17 256.25,-249.51 263.2,-248.68"/>
</a>
</g>
</g>
<!-- Node5 -->
<g id="Node000005" class="node">
<title>Node5</title>
<g id="a_Node000005"><a xlink:title=" ">
<polygon fill="#e0e0e0" stroke="#999999" points="69,-19 0,-19 0,0 69,0 69,-19"/>
<text text-anchor="middle" x="34.5" y="-7" font-family="Helvetica,sans-Serif" font-size="10.00">Eigen/Core</text>
</a>
</g>
</g>
<!-- Node4&#45;&gt;Node5 -->
<g id="edge4_Node000004_Node000005" class="edge">
<title>Node4&#45;&gt;Node5</title>
<g id="a_edge4_Node000004_Node000005"><a xlink:title=" ">
<path fill="none" stroke="#63b8ff" d="M75.41,-54.75C68.34,-47.11 57.91,-35.82 49.35,-26.56"/>
<polygon fill="#63b8ff" stroke="#63b8ff" points="51.8,-24.06 42.44,-19.09 46.66,-28.81 51.8,-24.06"/>
</a>
</g>
</g>
<!-- Node6 -->
<g id="Node000006" class="node">
<title>Node6</title>
<g id="a_Node000006"><a xlink:title=" ">
<polygon fill="#e0e0e0" stroke="#999999" points="180,-19 87,-19 87,0 180,0 180,-19"/>
<text text-anchor="middle" x="133.5" y="-7" font-family="Helvetica,sans-Serif" font-size="10.00">Eigen/StdVector</text>
</a>
</g>
</g>
<!-- Node4&#45;&gt;Node6 -->
<g id="edge5_Node000004_Node000006" class="edge">
<title>Node4&#45;&gt;Node6</title>
<g id="a_edge5_Node000004_Node000006"><a xlink:title=" ">
<path fill="none" stroke="#63b8ff" d="M91.76,-54.75C98.96,-47.11 109.61,-35.82 118.35,-26.56"/>
<polygon fill="#63b8ff" stroke="#63b8ff" points="121.08,-28.76 125.4,-19.09 115.99,-23.96 121.08,-28.76"/>
</a>
</g>
</g>
<!-- Node7&#45;&gt;Node4 -->
<g id="edge7_Node000007_Node000004" class="edge">
<title>Node7&#45;&gt;Node4</title>
<g id="a_edge7_Node000007_Node000004"><a xlink:title=" ">
<path fill="none" stroke="#63b8ff" d="M243.63,-219.88C230.46,-211.42 210.35,-197.81 194.5,-184 156.26,-150.69 116.95,-105.68 96.95,-81.86"/>
<polygon fill="#63b8ff" stroke="#63b8ff" points="99.59,-79.55 90.5,-74.1 94.21,-84.03 99.59,-79.55"/>
</a>
</g>
</g>
<!-- Node8 -->
<g id="Node000008" class="node">
<title>Node8</title>
<g id="a_Node000008"><a xlink:href="core_2spinorbital_8h.html" target="_top" xlink:title=" ">
<polygon fill="white" stroke="#666666" points="527,-184 406,-184 406,-165 527,-165 527,-184"/>
<text text-anchor="middle" x="466.5" y="-172" font-family="Helvetica,sans-Serif" font-size="10.00">occ/core/spinorbital.h</text>
</a>
</g>
</g>
<!-- Node7&#45;&gt;Node8 -->
<g id="edge8_Node000007_Node000008" class="edge">
<title>Node7&#45;&gt;Node8</title>
<g id="a_edge8_Node000007_Node000008"><a xlink:title=" ">
<path fill="none" stroke="#63b8ff" d="M291.08,-219.98C326.85,-210.91 383.62,-196.52 422.84,-186.57"/>
<polygon fill="#63b8ff" stroke="#63b8ff" points="423.82,-189.93 432.66,-184.08 422.1,-183.15 423.82,-189.93"/>
</a>
</g>
</g>
<!-- Node9 -->
<g id="Node000009" class="node">
<title>Node9</title>
<g id="a_Node000009"><a xlink:href="util_8h.html" target="_top" xlink:title=" ">
<polygon fill="white" stroke="#666666" points="500,-129 415,-129 415,-110 500,-110 500,-129"/>
<text text-anchor="middle" x="457.5" y="-117" font-family="Helvetica,sans-Serif" font-size="10.00">occ/core/util.h</text>
</a>
</g>
</g>
<!-- Node7&#45;&gt;Node9 -->
<g id="edge20_Node000007_Node000009" class="edge">
<title>Node7&#45;&gt;Node9</title>
<g id="a_edge20_Node000007_Node000009"><a xlink:title=" ">
<path fill="none" stroke="#63b8ff" d="M273.53,-219.84C308.36,-201.04 391.14,-156.33 432.74,-133.87"/>
<polygon fill="#63b8ff" stroke="#63b8ff" points="434.54,-136.88 441.67,-129.05 431.21,-130.72 434.54,-136.88"/>
</a>
</g>
</g>
<!-- Node18 -->
<g id="Node000018" class="node">
<title>Node18</title>
<g id="a_Node000018"><a xlink:href="qm_2opmatrix_8h.html" target="_top" xlink:title=" ">
<polygon fill="white" stroke="#666666" points="311.5,-184 203.5,-184 203.5,-165 311.5,-165 311.5,-184"/>
<text text-anchor="middle" x="257.5" y="-172" font-family="Helvetica,sans-Serif" font-size="10.00">occ/qm/opmatrix.h</text>
</a>
</g>
</g>
<!-- Node7&#45;&gt;Node18 -->
<g id="edge21_Node000007_Node000018" class="edge">
<title>Node7&#45;&gt;Node18</title>
<g id="a_edge21_Node000007_Node000018"><a xlink:title=" ">
<path fill="none" stroke="#63b8ff" d="M252.33,-219.75C250.84,-212.8 250.4,-202.85 251.02,-194.13"/>
<polygon fill="#63b8ff" stroke="#63b8ff" points="254.51,-194.47 252.37,-184.09 247.57,-193.53 254.51,-194.47"/>
</a>
</g>
</g>
<!-- Node8&#45;&gt;Node9 -->
<g id="edge9_Node000008_Node000009" class="edge">
<title>Node8&#45;&gt;Node9</title>
<g id="a_edge9_Node000008_Node000009"><a xlink:title=" ">
<path fill="none" stroke="#63b8ff" d="M465.01,-164.75C463.83,-157.8 462.14,-147.85 460.66,-139.13"/>
<polygon fill="#63b8ff" stroke="#63b8ff" points="464.08,-138.36 458.96,-129.09 457.18,-139.53 464.08,-138.36"/>
</a>
</g>
</g>
<!-- Node16 -->
<g id="Node000016" class="node">
<title>Node16</title>
<g id="a_Node000016"><a xlink:title=" ">
<polygon fill="#e0e0e0" stroke="#999999" points="763.5,-74 719.5,-74 719.5,-55 763.5,-55 763.5,-74"/>
<text text-anchor="middle" x="741.5" y="-62" font-family="Helvetica,sans-Serif" font-size="10.00">string</text>
</a>
</g>
</g>
<!-- Node8&#45;&gt;Node16 -->
<g id="edge19_Node000008_Node000016" class="edge">
<title>Node8&#45;&gt;Node16</title>
<g id="a_edge19_Node000008_Node000016"><a xlink:title=" ">
<path fill="none" stroke="#63b8ff" d="M488.54,-164.84C537.23,-145.72 654.11,-99.82 710.3,-77.75"/>
<polygon fill="#63b8ff" stroke="#63b8ff" points="711.71,-80.96 719.74,-74.05 709.15,-74.44 711.71,-80.96"/>
</a>
</g>
</g>
<!-- Node9&#45;&gt;Node4 -->
<g id="edge16_Node000009_Node000004" class="edge">
<title>Node9&#45;&gt;Node4</title>
<g id="a_edge16_Node000009_Node000004"><a xlink:title=" ">
<path fill="none" stroke="#63b8ff" d="M414.96,-112.47C351.29,-103.45 230.49,-86.33 153.63,-75.44"/>
<polygon fill="#63b8ff" stroke="#63b8ff" points="153.95,-71.95 143.56,-74.01 152.97,-78.88 153.95,-71.95"/>
</a>
</g>
</g>
<!-- Node10 -->
<g id="Node000010" class="node">
<title>Node10</title>
<g id="a_Node000010"><a xlink:title=" ">
<polygon fill="#e0e0e0" stroke="#999999" points="633.5,-74 569.5,-74 569.5,-55 633.5,-55 633.5,-74"/>
<text text-anchor="middle" x="601.5" y="-62" font-family="Helvetica,sans-Serif" font-size="10.00">algorithm</text>
</a>
</g>
</g>
<!-- Node9&#45;&gt;Node10 -->
<g id="edge10_Node000009_Node000010" class="edge">
<title>Node9&#45;&gt;Node10</title>
<g id="a_edge10_Node000009_Node000010"><a xlink:title=" ">
<path fill="none" stroke="#63b8ff" d="M480.64,-109.98C504.32,-101.27 541.37,-87.63 568.21,-77.75"/>
<polygon fill="#63b8ff" stroke="#63b8ff" points="569.77,-80.91 577.94,-74.17 567.35,-74.34 569.77,-80.91"/>
</a>
</g>
</g>
<!-- Node11 -->
<g id="Node000011" class="node">
<title>Node11</title>
<g id="a_Node000011"><a xlink:title=" ">
<polygon fill="#e0e0e0" stroke="#999999" points="701,-74 652,-74 652,-55 701,-55 701,-74"/>
<text text-anchor="middle" x="676.5" y="-62" font-family="Helvetica,sans-Serif" font-size="10.00">cctype</text>
</a>
</g>
</g>
<!-- Node9&#45;&gt;Node11 -->
<g id="edge11_Node000009_Node000011" class="edge">
<title>Node9&#45;&gt;Node11</title>
<g id="a_edge11_Node000009_Node000011"><a xlink:title=" ">
<path fill="none" stroke="#63b8ff" d="M493.33,-109.98C528.58,-101.58 584.18,-88.27 641.95,-74.12"/>
<polygon fill="#63b8ff" stroke="#63b8ff" points="643.11,-77.44 651.99,-71.65 641.45,-70.64 643.11,-77.44"/>
</a>
</g>
</g>
<!-- Node12 -->
<g id="Node000012" class="node">
<title>Node12</title>
<g id="a_Node000012"><a xlink:title=" ">
<polygon fill="#e0e0e0" stroke="#999999" points="221.5,-74 171.5,-74 171.5,-55 221.5,-55 221.5,-74"/>
<text text-anchor="middle" x="196.5" y="-62" font-family="Helvetica,sans-Serif" font-size="10.00">chrono</text>
</a>
</g>
</g>
<!-- Node9&#45;&gt;Node12 -->
<g id="edge12_Node000009_Node000012" class="edge">
<title>Node9&#45;&gt;Node12</title>
<g id="a_edge12_Node000009_Node000012"><a xlink:title=" ">
<path fill="none" stroke="#63b8ff" d="M414.9,-110.69C369.38,-102.21 295.16,-87.99 231.5,-74 231.4,-73.98 231.3,-73.96 231.2,-73.93"/>
<polygon fill="#63b8ff" stroke="#63b8ff" points="232.23,-70.58 221.7,-71.76 230.67,-77.4 232.23,-70.58"/>
</a>
</g>
</g>
<!-- Node13 -->
<g id="Node000013" class="node">
<title>Node13</title>
<g id="a_Node000013"><a xlink:title=" ">
<polygon fill="#e0e0e0" stroke="#999999" points="307,-74 240,-74 240,-55 307,-55 307,-74"/>
<text text-anchor="middle" x="273.5" y="-62" font-family="Helvetica,sans-Serif" font-size="10.00">fmt/core.h</text>
</a>
</g>
</g>
<!-- Node9&#45;&gt;Node13 -->
<g id="edge13_Node000009_Node000013" class="edge">
<title>Node9&#45;&gt;Node13</title>
<g id="a_edge13_Node000009_Node000013"><a xlink:title=" ">
<path fill="none" stroke="#63b8ff" d="M427.94,-109.98C396.78,-101.01 347.53,-86.82 313.04,-76.89"/>
<polygon fill="#63b8ff" stroke="#63b8ff" points="313.87,-73.49 303.29,-74.08 311.93,-80.21 313.87,-73.49"/>
</a>
</g>
</g>
<!-- Node14 -->
<g id="Node000014" class="node">
<title>Node14</title>
<g id="a_Node000014"><a xlink:title=" ">
<polygon fill="#e0e0e0" stroke="#999999" points="411.5,-74 325.5,-74 325.5,-55 411.5,-55 411.5,-74"/>
<text text-anchor="middle" x="368.5" y="-62" font-family="Helvetica,sans-Serif" font-size="10.00">fmt/ostream.h</text>
</a>
</g>
</g>
<!-- Node9&#45;&gt;Node14 -->
<g id="edge14_Node000009_Node000014" class="edge">
<title>Node9&#45;&gt;Node14</title>
<g id="a_edge14_Node000009_Node000014"><a xlink:title=" ">
<path fill="none" stroke="#63b8ff" d="M443.2,-109.98C429.4,-101.77 408.26,-89.18 391.99,-79.49"/>
<polygon fill="#63b8ff" stroke="#63b8ff" points="393.44,-76.28 383.06,-74.17 389.86,-82.29 393.44,-76.28"/>
</a>
</g>
</g>
<!-- Node15 -->
<g id="Node000015" class="node">
<title>Node15</title>
<g id="a_Node000015"><a xlink:title=" ">
<polygon fill="#e0e0e0" stroke="#999999" points="485.5,-74 429.5,-74 429.5,-55 485.5,-55 485.5,-74"/>
<text text-anchor="middle" x="457.5" y="-62" font-family="Helvetica,sans-Serif" font-size="10.00">numeric</text>
</a>
</g>
</g>
<!-- Node9&#45;&gt;Node15 -->
<g id="edge15_Node000009_Node000015" class="edge">
<title>Node9&#45;&gt;Node15</title>
<g id="a_edge15_Node000009_Node000015"><a xlink:title=" ">
<path fill="none" stroke="#63b8ff" d="M457.5,-109.75C457.5,-102.8 457.5,-92.85 457.5,-84.13"/>
<polygon fill="#63b8ff" stroke="#63b8ff" points="461,-84.09 457.5,-74.09 454,-84.09 461,-84.09"/>
</a>
</g>
</g>
<!-- Node9&#45;&gt;Node16 -->
<g id="edge17_Node000009_Node000016" class="edge">
<title>Node9&#45;&gt;Node16</title>
<g id="a_edge17_Node000009_Node000016"><a xlink:title=" ">
<path fill="none" stroke="#63b8ff" d="M500.27,-112.23C548.7,-104.85 630.15,-91.61 709.1,-74.14"/>
<polygon fill="#63b8ff" stroke="#63b8ff" points="710.22,-77.48 719.21,-71.88 708.69,-70.65 710.22,-77.48"/>
</a>
</g>
</g>
<!-- Node17 -->
<g id="Node000017" class="node">
<title>Node17</title>
<g id="a_Node000017"><a xlink:title=" ">
<polygon fill="#e0e0e0" stroke="#999999" points="551,-74 504,-74 504,-55 551,-55 551,-74"/>
<text text-anchor="middle" x="527.5" y="-62" font-family="Helvetica,sans-Serif" font-size="10.00">vector</text>
</a>
</g>
</g>
<!-- Node9&#45;&gt;Node17 -->
<g id="edge18_Node000009_Node000017" class="edge">
<title>Node9&#45;&gt;Node17</title>
<g id="a_edge18_Node000009_Node000017"><a xlink:title=" ">
<path fill="none" stroke="#63b8ff" d="M468.75,-109.98C479.3,-102 495.3,-89.88 507.94,-80.31"/>
<polygon fill="#63b8ff" stroke="#63b8ff" points="510.19,-83 516.05,-74.17 505.96,-77.42 510.19,-83"/>
</a>
</g>
</g>
<!-- Node18&#45;&gt;Node7 -->
<g id="edge22_Node000018_Node000007" class="edge">
<title>Node18&#45;&gt;Node7</title>
<g id="a_edge22_Node000018_Node000007"><a xlink:title=" ">
<path fill="none" stroke="#63b8ff" d="M262.63,-184.09C264.14,-190.99 264.59,-200.93 263.99,-209.66"/>
<polygon fill="#63b8ff" stroke="#63b8ff" points="260.5,-209.38 262.67,-219.75 267.44,-210.29 260.5,-209.38"/>
</a>
</g>
</g>
<!-- Node20 -->
<g id="Node000020" class="node">
<title>Node20</title>
<g id="a_Node000020"><a xlink:href="diis_8h.html" target="_top" xlink:title=" ">
<polygon fill="white" stroke="#666666" points="123.5,-239 37.5,-239 37.5,-220 123.5,-220 123.5,-239"/>
<text text-anchor="middle" x="80.5" y="-227" font-family="Helvetica,sans-Serif" font-size="10.00">occ/core/diis.h</text>
</a>
</g>
</g>
<!-- Node19&#45;&gt;Node20 -->
<g id="edge24_Node000019_Node000020" class="edge">
<title>Node19&#45;&gt;Node20</title>
<g id="a_edge24_Node000019_Node000020"><a xlink:title=" ">
<path fill="none" stroke="#63b8ff" d="M58.34,-280.37C62.06,-271.99 67.83,-259.01 72.55,-248.39"/>
<polygon fill="#63b8ff" stroke="#63b8ff" points="75.78,-249.73 76.65,-239.17 69.39,-246.88 75.78,-249.73"/>
</a>
</g>
</g>
<!-- Node20&#45;&gt;Node3 -->
<g id="edge25_Node000020_Node000003" class="edge">
<title>Node20&#45;&gt;Node3</title>
<g id="a_edge25_Node000020_Node000003"><a xlink:title=" ">
<path fill="none" stroke="#63b8ff" d="M87.6,-219.75C93.67,-212.26 102.59,-201.28 110.01,-192.13"/>
<polygon fill="#63b8ff" stroke="#63b8ff" points="112.95,-194.06 116.53,-184.09 107.51,-189.65 112.95,-194.06"/>
</a>
</g>
</g>
<!-- Node20&#45;&gt;Node4 -->
<g id="edge26_Node000020_Node000004" class="edge">
<title>Node20&#45;&gt;Node4</title>
<g id="a_edge26_Node000020_Node000004"><a xlink:title=" ">
<path fill="none" stroke="#63b8ff" d="M80.66,-219.74C81.13,-194.31 82.5,-120.08 83.15,-84.69"/>
<polygon fill="#63b8ff" stroke="#63b8ff" points="86.65,-84.37 83.34,-74.31 79.65,-84.24 86.65,-84.37"/>
</a>
</g>
</g>
<!-- Node21&#45;&gt;Node7 -->
<g id="edge29_Node000021_Node000007" class="edge">
<title>Node21&#45;&gt;Node7</title>
<g id="a_edge29_Node000021_Node000007"><a xlink:title=" ">
<path fill="none" stroke="#63b8ff" d="M173.96,-280.37C189.81,-270.91 215.47,-255.59 234.18,-244.42"/>
<polygon fill="#63b8ff" stroke="#63b8ff" points="236.19,-247.3 242.98,-239.17 232.6,-241.29 236.19,-247.3"/>
</a>
</g>
</g>
<!-- Node21&#45;&gt;Node20 -->
<g id="edge28_Node000021_Node000020" class="edge">
<title>Node21&#45;&gt;Node20</title>
<g id="a_edge28_Node000021_Node000020"><a xlink:title=" ">
<path fill="none" stroke="#63b8ff" d="M147.84,-280.37C135.36,-271.12 115.32,-256.28 100.34,-245.19"/>
<polygon fill="#63b8ff" stroke="#63b8ff" points="102.32,-242.31 92.2,-239.17 98.16,-247.93 102.32,-242.31"/>
</a>
</g>
</g>
</g>
</svg>
