<?xml version="1.0" encoding="UTF-8" standalone="no"?>
<!DOCTYPE svg PUBLIC "-//W3C//DTD SVG 1.1//EN"
 "http://www.w3.org/Graphics/SVG/1.1/DTD/svg11.dtd">
<!-- Generated by graphviz version 2.43.0 (0)
 -->
<!-- Title: /home/runner/work/occ/occ/include/occ/io/conversion.h Pages: 1 -->
<svg width="1084pt" height="330pt"
 viewBox="0.00 0.00 1084.00 330.00" xmlns="http://www.w3.org/2000/svg" xmlns:xlink="http://www.w3.org/1999/xlink">
<g id="graph0" class="graph" transform="scale(1 1) rotate(0) translate(4 326)">
<title>/home/runner/work/occ/occ/include/occ/io/conversion.h</title>
<!-- Node1 -->
<g id="node1" class="node">
<title>Node1</title>
<g id="a_node1"><a xlink:title=" ">
<polygon fill="#bfbfbf" stroke="black" points="88.5,-291.5 88.5,-321.5 259.5,-321.5 259.5,-291.5 88.5,-291.5"/>
<text text-anchor="start" x="96.5" y="-309.5" font-family="Helvetica,sans-Serif" font-size="10.00">/home/runner/work/occ</text>
<text text-anchor="middle" x="174" y="-298.5" font-family="Helvetica,sans-Serif" font-size="10.00">/occ/include/occ/io/conversion.h</text>
</a>
</g>
</g>
<!-- Node2 -->
<g id="node2" class="node">
<title>Node2</title>
<g id="a_node2"><a xlink:href="linear__algebra_8h.html" target="_top" xlink:title=" ">
<polygon fill="none" stroke="black" points="161.5,-67.5 161.5,-86.5 300.5,-86.5 300.5,-67.5 161.5,-67.5"/>
<text text-anchor="middle" x="231" y="-74.5" font-family="Helvetica,sans-Serif" font-size="10.00">occ/core/linear_algebra.h</text>
</a>
</g>
</g>
<!-- Node1&#45;&gt;Node2 -->
<g id="edge1" class="edge">
<title>Node1&#45;&gt;Node2</title>
<path fill="none" stroke="midnightblue" d="M177.57,-291.27C187.45,-251.81 215.21,-141.02 226.32,-96.68"/>
<polygon fill="midnightblue" stroke="midnightblue" points="229.73,-97.48 228.76,-86.93 222.94,-95.78 229.73,-97.48"/>
</g>
<!-- Node6 -->
<g id="node6" class="node">
<title>Node6</title>
<g id="a_node6"><a xlink:href="mo_8h.html" target="_top" xlink:title=" ">
<polygon fill="none" stroke="black" points="57,-235.5 57,-254.5 137,-254.5 137,-235.5 57,-235.5"/>
<text text-anchor="middle" x="97" y="-242.5" font-family="Helvetica,sans-Serif" font-size="10.00">occ/qm/mo.h</text>
</a>
</g>
</g>
<!-- Node1&#45;&gt;Node6 -->
<g id="edge5" class="edge">
<title>Node1&#45;&gt;Node6</title>
<path fill="none" stroke="midnightblue" d="M155.75,-291.4C143.87,-282.22 128.39,-270.26 116.31,-260.92"/>
<polygon fill="midnightblue" stroke="midnightblue" points="118.26,-258 108.2,-254.66 113.98,-263.54 118.26,-258"/>
</g>
<!-- Node9 -->
<g id="node9" class="node">
<title>Node9</title>
<g id="a_node9"><a xlink:href="shell_8h.html" target="_top" xlink:title=" ">
<polygon fill="none" stroke="black" points="605.5,-235.5 605.5,-254.5 692.5,-254.5 692.5,-235.5 605.5,-235.5"/>
<text text-anchor="middle" x="649" y="-242.5" font-family="Helvetica,sans-Serif" font-size="10.00">occ/qm/shell.h</text>
</a>
</g>
</g>
<!-- Node1&#45;&gt;Node9 -->
<g id="edge10" class="edge">
<title>Node1&#45;&gt;Node9</title>
<path fill="none" stroke="midnightblue" d="M259.74,-294.76C357.25,-282.55 513.49,-262.97 595.21,-252.74"/>
<polygon fill="midnightblue" stroke="midnightblue" points="595.79,-256.19 605.28,-251.48 594.92,-249.25 595.79,-256.19"/>
</g>
<!-- Node3 -->
<g id="node3" class="node">
<title>Node3</title>
<g id="a_node3"><a xlink:title=" ">
<polygon fill="none" stroke="#bfbfbf" points="89.5,-6 89.5,-25 166.5,-25 166.5,-6 89.5,-6"/>
<text text-anchor="middle" x="128" y="-13" font-family="Helvetica,sans-Serif" font-size="10.00">Eigen/Dense</text>
</a>
</g>
</g>
<!-- Node2&#45;&gt;Node3 -->
<g id="edge2" class="edge">
<title>Node2&#45;&gt;Node3</title>
<path fill="none" stroke="midnightblue" d="M216.24,-67.48C199.34,-57.71 171.42,-41.58 151.51,-30.08"/>
<polygon fill="midnightblue" stroke="midnightblue" points="153.14,-26.98 142.73,-25.01 149.64,-33.04 153.14,-26.98"/>
</g>
<!-- Node4 -->
<g id="node4" class="node">
<title>Node4</title>
<g id="a_node4"><a xlink:title=" ">
<polygon fill="none" stroke="#bfbfbf" points="184.5,-6 184.5,-25 277.5,-25 277.5,-6 184.5,-6"/>
<text text-anchor="middle" x="231" y="-13" font-family="Helvetica,sans-Serif" font-size="10.00">Eigen/StdVector</text>
</a>
</g>
</g>
<!-- Node2&#45;&gt;Node4 -->
<g id="edge3" class="edge">
<title>Node2&#45;&gt;Node4</title>
<path fill="none" stroke="midnightblue" d="M231,-67.48C231,-59.08 231,-45.98 231,-35.16"/>
<polygon fill="midnightblue" stroke="midnightblue" points="234.5,-35.01 231,-25.01 227.5,-35.01 234.5,-35.01"/>
</g>
<!-- Node5 -->
<g id="node5" class="node">
<title>Node5</title>
<g id="a_node5"><a xlink:title=" ">
<polygon fill="none" stroke="#bfbfbf" points="295.5,-0.5 295.5,-30.5 402.5,-30.5 402.5,-0.5 295.5,-0.5"/>
<text text-anchor="start" x="303.5" y="-18.5" font-family="Helvetica,sans-Serif" font-size="10.00">occ/3rdparty/eigen</text>
<text text-anchor="middle" x="349" y="-7.5" font-family="Helvetica,sans-Serif" font-size="10.00">&#45;fmt/fmt.h</text>
</a>
</g>
</g>
<!-- Node2&#45;&gt;Node5 -->
<g id="edge4" class="edge">
<title>Node2&#45;&gt;Node5</title>
<path fill="none" stroke="midnightblue" d="M247.91,-67.48C264.56,-59.08 290.55,-45.97 312.01,-35.15"/>
<polygon fill="midnightblue" stroke="midnightblue" points="313.84,-38.15 321.19,-30.52 310.68,-31.9 313.84,-38.15"/>
</g>
<!-- Node7 -->
<g id="node7" class="node">
<title>Node7</title>
<g id="a_node7"><a xlink:href="spinorbital_8h.html" target="_top" xlink:title=" ">
<polygon fill="none" stroke="black" points="13,-179.5 13,-198.5 129,-198.5 129,-179.5 13,-179.5"/>
<text text-anchor="middle" x="71" y="-186.5" font-family="Helvetica,sans-Serif" font-size="10.00">occ/qm/spinorbital.h</text>
</a>
</g>
</g>
<!-- Node6&#45;&gt;Node7 -->
<g id="edge6" class="edge">
<title>Node6&#45;&gt;Node7</title>
<path fill="none" stroke="midnightblue" d="M92.71,-235.08C89.15,-227.69 83.98,-216.95 79.58,-207.81"/>
<polygon fill="midnightblue" stroke="midnightblue" points="82.71,-206.24 75.21,-198.75 76.4,-209.28 82.71,-206.24"/>
</g>
<!-- Node7&#45;&gt;Node2 -->
<g id="edge7" class="edge">
<title>Node7&#45;&gt;Node2</title>
<path fill="none" stroke="midnightblue" d="M82.35,-179.34C99.1,-166.65 131.53,-142.39 160,-123 175.93,-112.15 194.32,-100.52 208.39,-91.8"/>
<polygon fill="midnightblue" stroke="midnightblue" points="210.27,-94.75 216.95,-86.53 206.6,-88.79 210.27,-94.75"/>
</g>
<!-- Node8 -->
<g id="node8" class="node">
<title>Node8</title>
<g id="a_node8"><a xlink:href="qm_2opmatrix_8h.html" target="_top" xlink:title=" ">
<polygon fill="none" stroke="black" points="0,-123.5 0,-142.5 108,-142.5 108,-123.5 0,-123.5"/>
<text text-anchor="middle" x="54" y="-130.5" font-family="Helvetica,sans-Serif" font-size="10.00">occ/qm/opmatrix.h</text>
</a>
</g>
</g>
<!-- Node7&#45;&gt;Node8 -->
<g id="edge8" class="edge">
<title>Node7&#45;&gt;Node8</title>
<path fill="none" stroke="midnightblue" d="M63.03,-179.08C59.26,-171.93 55.59,-161.64 53.43,-152.69"/>
<polygon fill="midnightblue" stroke="midnightblue" points="56.85,-151.97 51.62,-142.75 49.96,-153.22 56.85,-151.97"/>
</g>
<!-- Node8&#45;&gt;Node7 -->
<g id="edge9" class="edge">
<title>Node8&#45;&gt;Node7</title>
<path fill="none" stroke="midnightblue" d="M61.89,-142.75C65.65,-149.86 69.33,-160.14 71.52,-169.1"/>
<polygon fill="midnightblue" stroke="midnightblue" points="68.11,-169.88 73.36,-179.08 74.99,-168.61 68.11,-169.88"/>
</g>
<!-- Node9&#45;&gt;Node2 -->
<g id="edge15" class="edge">
<title>Node9&#45;&gt;Node2</title>
<path fill="none" stroke="midnightblue" d="M605.23,-238.72C511.83,-226.58 297.37,-193.77 247,-143 235.12,-131.02 231.57,-111.72 230.72,-97.26"/>
<polygon fill="midnightblue" stroke="midnightblue" points="234.21,-96.86 230.51,-86.93 227.21,-97 234.21,-96.86"/>
</g>
<!-- Node10 -->
<g id="node10" class="node">
<title>Node10</title>
<g id="a_node10"><a xlink:title=" ">
<polygon fill="none" stroke="#bfbfbf" points="1034,-123.5 1034,-142.5 1076,-142.5 1076,-123.5 1034,-123.5"/>
<text text-anchor="middle" x="1055" y="-130.5" font-family="Helvetica,sans-Serif" font-size="10.00">array</text>
</a>
</g>
</g>
<!-- Node9&#45;&gt;Node10 -->
<g id="edge11" class="edge">
<title>Node9&#45;&gt;Node10</title>
<path fill="none" stroke="midnightblue" d="M692.52,-243.16C777.21,-240.8 960.47,-231.94 1013,-199 1030.2,-188.21 1041.73,-167.51 1048.29,-152.36"/>
<polygon fill="midnightblue" stroke="midnightblue" points="1051.59,-153.53 1052.05,-142.94 1045.09,-150.94 1051.59,-153.53"/>
</g>
<!-- Node11 -->
<g id="node11" class="node">
<title>Node11</title>
<g id="a_node11"><a xlink:title=" ">
<polygon fill="none" stroke="#bfbfbf" points="476,-179.5 476,-198.5 536,-198.5 536,-179.5 476,-179.5"/>
<text text-anchor="middle" x="506" y="-186.5" font-family="Helvetica,sans-Serif" font-size="10.00">iostream</text>
</a>
</g>
</g>
<!-- Node9&#45;&gt;Node11 -->
<g id="edge12" class="edge">
<title>Node9&#45;&gt;Node11</title>
<path fill="none" stroke="midnightblue" d="M626.34,-235.44C602.6,-226.48 565.09,-212.31 538.26,-202.18"/>
<polygon fill="midnightblue" stroke="midnightblue" points="539.14,-198.77 528.55,-198.52 536.67,-205.32 539.14,-198.77"/>
</g>
<!-- Node12 -->
<g id="node12" class="node">
<title>Node12</title>
<g id="a_node12"><a xlink:href="atom_8h.html" target="_top" xlink:title=" ">
<polygon fill="none" stroke="black" points="882.5,-123.5 882.5,-142.5 977.5,-142.5 977.5,-123.5 882.5,-123.5"/>
<text text-anchor="middle" x="930" y="-130.5" font-family="Helvetica,sans-Serif" font-size="10.00">occ/core/atom.h</text>
</a>
</g>
</g>
<!-- Node9&#45;&gt;Node12 -->
<g id="edge13" class="edge">
<title>Node9&#45;&gt;Node12</title>
<path fill="none" stroke="midnightblue" d="M671.05,-235.37C720.6,-215.97 840.92,-168.87 898.41,-146.37"/>
<polygon fill="midnightblue" stroke="midnightblue" points="900.02,-149.5 908.05,-142.59 897.47,-142.98 900.02,-149.5"/>
</g>
<!-- Node13 -->
<g id="node13" class="node">
<title>Node13</title>
<g id="a_node13"><a xlink:href="point__charge_8h.html" target="_top" xlink:title=" ">
<polygon fill="none" stroke="black" points="872,-179.5 872,-198.5 1004,-198.5 1004,-179.5 872,-179.5"/>
<text text-anchor="middle" x="938" y="-186.5" font-family="Helvetica,sans-Serif" font-size="10.00">occ/core/point_charge.h</text>
</a>
</g>
</g>
<!-- Node9&#45;&gt;Node13 -->
<g id="edge16" class="edge">
<title>Node9&#45;&gt;Node13</title>
<path fill="none" stroke="midnightblue" d="M692.58,-235.86C743.2,-226.4 826.82,-210.77 882.16,-200.43"/>
<polygon fill="midnightblue" stroke="midnightblue" points="882.97,-203.84 892.15,-198.57 881.68,-196.96 882.97,-203.84"/>
</g>
<!-- Node14 -->
<g id="node14" class="node">
<title>Node14</title>
<g id="a_node14"><a xlink:href="util_8h.html" target="_top" xlink:title=" ">
<polygon fill="none" stroke="black" points="554.5,-179.5 554.5,-198.5 639.5,-198.5 639.5,-179.5 554.5,-179.5"/>
<text text-anchor="middle" x="597" y="-186.5" font-family="Helvetica,sans-Serif" font-size="10.00">occ/core/util.h</text>
</a>
</g>
</g>
<!-- Node9&#45;&gt;Node14 -->
<g id="edge20" class="edge">
<title>Node9&#45;&gt;Node14</title>
<path fill="none" stroke="midnightblue" d="M640.41,-235.08C632.84,-227.22 621.62,-215.57 612.49,-206.08"/>
<polygon fill="midnightblue" stroke="midnightblue" points="614.88,-203.53 605.43,-198.75 609.84,-208.38 614.88,-203.53"/>
</g>
<!-- Node22 -->
<g id="node22" class="node">
<title>Node22</title>
<g id="a_node22"><a xlink:title=" ">
<polygon fill="none" stroke="#bfbfbf" points="817.5,-123.5 817.5,-142.5 864.5,-142.5 864.5,-123.5 817.5,-123.5"/>
<text text-anchor="middle" x="841" y="-130.5" font-family="Helvetica,sans-Serif" font-size="10.00">vector</text>
</a>
</g>
</g>
<!-- Node9&#45;&gt;Node22 -->
<g id="edge30" class="edge">
<title>Node9&#45;&gt;Node22</title>
<path fill="none" stroke="midnightblue" d="M664.07,-235.37C697.29,-216.33 777.09,-170.62 817.17,-147.65"/>
<polygon fill="midnightblue" stroke="midnightblue" points="819.07,-150.6 826,-142.59 815.59,-144.53 819.07,-150.6"/>
</g>
<!-- Node12&#45;&gt;Node2 -->
<g id="edge14" class="edge">
<title>Node12&#45;&gt;Node2</title>
<path fill="none" stroke="midnightblue" d="M882.38,-124.05C879.55,-123.67 876.74,-123.32 874,-123 672,-99.75 432.81,-86.83 311,-81.29"/>
<polygon fill="midnightblue" stroke="midnightblue" points="310.8,-77.78 300.65,-80.83 310.48,-84.78 310.8,-77.78"/>
</g>
<!-- Node13&#45;&gt;Node2 -->
<g id="edge19" class="edge">
<title>Node13&#45;&gt;Node2</title>
<path fill="none" stroke="midnightblue" d="M952.67,-179.33C972.78,-166.4 1004.54,-141.62 987,-123 964.08,-98.67 500.41,-84.6 310.78,-79.84"/>
<polygon fill="midnightblue" stroke="midnightblue" points="310.68,-76.33 300.59,-79.59 310.5,-83.33 310.68,-76.33"/>
</g>
<!-- Node13&#45;&gt;Node10 -->
<g id="edge17" class="edge">
<title>Node13&#45;&gt;Node10</title>
<path fill="none" stroke="midnightblue" d="M956.54,-179.44C975.62,-170.64 1005.57,-156.81 1027.44,-146.72"/>
<polygon fill="midnightblue" stroke="midnightblue" points="1028.93,-149.88 1036.55,-142.52 1026,-143.53 1028.93,-149.88"/>
</g>
<!-- Node13&#45;&gt;Node12 -->
<g id="edge18" class="edge">
<title>Node13&#45;&gt;Node12</title>
<path fill="none" stroke="midnightblue" d="M936.68,-179.08C935.62,-171.93 934.09,-161.64 932.77,-152.69"/>
<polygon fill="midnightblue" stroke="midnightblue" points="936.22,-152.13 931.3,-142.75 929.3,-153.16 936.22,-152.13"/>
</g>
<!-- Node14&#45;&gt;Node2 -->
<g id="edge27" class="edge">
<title>Node14&#45;&gt;Node2</title>
<path fill="none" stroke="midnightblue" d="M554.46,-180.49C551.26,-179.97 548.08,-179.47 545,-179 483.85,-169.72 320.54,-177.19 269,-143 252.7,-132.18 242.47,-111.8 236.78,-96.73"/>
<polygon fill="midnightblue" stroke="midnightblue" points="239.97,-95.24 233.43,-86.91 233.35,-97.5 239.97,-95.24"/>
</g>
<!-- Node15 -->
<g id="node15" class="node">
<title>Node15</title>
<g id="a_node15"><a xlink:title=" ">
<polygon fill="none" stroke="#bfbfbf" points="414,-123.5 414,-142.5 478,-142.5 478,-123.5 414,-123.5"/>
<text text-anchor="middle" x="446" y="-130.5" font-family="Helvetica,sans-Serif" font-size="10.00">algorithm</text>
</a>
</g>
</g>
<!-- Node14&#45;&gt;Node15 -->
<g id="edge21" class="edge">
<title>Node14&#45;&gt;Node15</title>
<path fill="none" stroke="midnightblue" d="M573.07,-179.44C547.78,-170.4 507.7,-156.06 479.32,-145.92"/>
<polygon fill="midnightblue" stroke="midnightblue" points="480.41,-142.59 469.81,-142.52 478.05,-149.18 480.41,-142.59"/>
</g>
<!-- Node16 -->
<g id="node16" class="node">
<title>Node16</title>
<g id="a_node16"><a xlink:title=" ">
<polygon fill="none" stroke="#bfbfbf" points="496.5,-123.5 496.5,-142.5 545.5,-142.5 545.5,-123.5 496.5,-123.5"/>
<text text-anchor="middle" x="521" y="-130.5" font-family="Helvetica,sans-Serif" font-size="10.00">cctype</text>
</a>
</g>
</g>
<!-- Node14&#45;&gt;Node16 -->
<g id="edge22" class="edge">
<title>Node14&#45;&gt;Node16</title>
<path fill="none" stroke="midnightblue" d="M584.79,-179.32C573.22,-171.11 555.62,-158.6 541.84,-148.81"/>
<polygon fill="midnightblue" stroke="midnightblue" points="543.61,-145.77 533.43,-142.83 539.56,-151.48 543.61,-145.77"/>
</g>
<!-- Node17 -->
<g id="node17" class="node">
<title>Node17</title>
<g id="a_node17"><a xlink:title=" ">
<polygon fill="none" stroke="#bfbfbf" points="563.5,-123.5 563.5,-142.5 630.5,-142.5 630.5,-123.5 563.5,-123.5"/>
<text text-anchor="middle" x="597" y="-130.5" font-family="Helvetica,sans-Serif" font-size="10.00">fmt/core.h</text>
</a>
</g>
</g>
<!-- Node14&#45;&gt;Node17 -->
<g id="edge23" class="edge">
<title>Node14&#45;&gt;Node17</title>
<path fill="none" stroke="midnightblue" d="M597,-179.08C597,-172.01 597,-161.86 597,-152.99"/>
<polygon fill="midnightblue" stroke="midnightblue" points="600.5,-152.75 597,-142.75 593.5,-152.75 600.5,-152.75"/>
</g>
<!-- Node18 -->
<g id="node18" class="node">
<title>Node18</title>
<g id="a_node18"><a xlink:title=" ">
<polygon fill="none" stroke="#bfbfbf" points="649,-123.5 649,-142.5 735,-142.5 735,-123.5 649,-123.5"/>
<text text-anchor="middle" x="692" y="-130.5" font-family="Helvetica,sans-Serif" font-size="10.00">fmt/ostream.h</text>
</a>
</g>
</g>
<!-- Node14&#45;&gt;Node18 -->
<g id="edge24" class="edge">
<title>Node14&#45;&gt;Node18</title>
<path fill="none" stroke="midnightblue" d="M612.26,-179.32C627.22,-170.82 650.25,-157.73 667.73,-147.8"/>
<polygon fill="midnightblue" stroke="midnightblue" points="669.81,-150.64 676.77,-142.65 666.35,-144.55 669.81,-150.64"/>
</g>
<!-- Node19 -->
<g id="node19" class="node">
<title>Node19</title>
<g id="a_node19"><a xlink:title=" ">
<polygon fill="none" stroke="#bfbfbf" points="753,-123.5 753,-142.5 799,-142.5 799,-123.5 753,-123.5"/>
<text text-anchor="middle" x="776" y="-130.5" font-family="Helvetica,sans-Serif" font-size="10.00">locale</text>
</a>
</g>
</g>
<!-- Node14&#45;&gt;Node19 -->
<g id="edge25" class="edge">
<title>Node14&#45;&gt;Node19</title>
<path fill="none" stroke="midnightblue" d="M625.36,-179.44C657.35,-169.79 709.28,-154.13 743.04,-143.94"/>
<polygon fill="midnightblue" stroke="midnightblue" points="744.33,-147.21 752.89,-140.97 742.31,-140.51 744.33,-147.21"/>
</g>
<!-- Node20 -->
<g id="node20" class="node">
<title>Node20</title>
<g id="a_node20"><a xlink:title=" ">
<polygon fill="none" stroke="#bfbfbf" points="278,-123.5 278,-142.5 334,-142.5 334,-123.5 278,-123.5"/>
<text text-anchor="middle" x="306" y="-130.5" font-family="Helvetica,sans-Serif" font-size="10.00">numeric</text>
</a>
</g>
</g>
<!-- Node14&#45;&gt;Node20 -->
<g id="edge26" class="edge">
<title>Node14&#45;&gt;Node20</title>
<path fill="none" stroke="midnightblue" d="M554.44,-180.61C493.57,-170.02 385.19,-151.09 344.27,-143.09"/>
<polygon fill="midnightblue" stroke="midnightblue" points="344.74,-139.62 334.24,-141.06 343.35,-146.48 344.74,-139.62"/>
</g>
<!-- Node21 -->
<g id="node21" class="node">
<title>Node21</title>
<g id="a_node21"><a xlink:title=" ">
<polygon fill="none" stroke="#bfbfbf" points="352,-123.5 352,-142.5 396,-142.5 396,-123.5 352,-123.5"/>
<text text-anchor="middle" x="374" y="-130.5" font-family="Helvetica,sans-Serif" font-size="10.00">string</text>
</a>
</g>
</g>
<!-- Node14&#45;&gt;Node21 -->
<g id="edge28" class="edge">
<title>Node14&#45;&gt;Node21</title>
<path fill="none" stroke="midnightblue" d="M557.87,-179.46C521.02,-171.28 464.06,-158.27 406.01,-143.17"/>
<polygon fill="midnightblue" stroke="midnightblue" points="406.87,-139.78 396.31,-140.63 405.1,-146.55 406.87,-139.78"/>
</g>
<!-- Node14&#45;&gt;Node22 -->
<g id="edge29" class="edge">
<title>Node14&#45;&gt;Node22</title>
<path fill="none" stroke="midnightblue" d="M639.59,-179.65C680.24,-171.51 743.4,-158.45 807.39,-143.04"/>
<polygon fill="midnightblue" stroke="midnightblue" points="808.36,-146.41 817.25,-140.65 806.7,-139.6 808.36,-146.41"/>
</g>
</g>
</svg>
