<?xml version="1.0" encoding="UTF-8" standalone="no"?>
<!DOCTYPE svg PUBLIC "-//W3C//DTD SVG 1.1//EN"
 "http://www.w3.org/Graphics/SVG/1.1/DTD/svg11.dtd">
<!-- Generated by graphviz version 2.43.0 (0)
 -->
<!-- Title: /home/runner/work/occ/occ/include/occ/core/atom_cell_list.h Pages: 1 -->
<svg width="375pt" height="159pt"
 viewBox="0.00 0.00 375.29 159.00" xmlns="http://www.w3.org/2000/svg" xmlns:xlink="http://www.w3.org/1999/xlink">
<g id="graph0" class="graph" transform="scale(1 1) rotate(0) translate(4 155)">
<title>/home/runner/work/occ/occ/include/occ/core/atom_cell_list.h</title>
<!-- Node1 -->
<g id="Node000001" class="node">
<title>Node1</title>
<g id="a_Node000001"><a xlink:title=" ">
<polygon fill="#999999" stroke="#666666" points="183.79,-151 55.79,-151 55.79,-110 183.79,-110 183.79,-151"/>
<text text-anchor="start" x="63.79" y="-139" font-family="Helvetica,sans-Serif" font-size="10.00">/home/runner/work/occ</text>
<text text-anchor="start" x="63.79" y="-128" font-family="Helvetica,sans-Serif" font-size="10.00">/occ/include/occ/core</text>
<text text-anchor="middle" x="119.79" y="-117" font-family="Helvetica,sans-Serif" font-size="10.00">/atom_cell_list.h</text>
</a>
</g>
</g>
<!-- Node2 -->
<g id="Node000002" class="node">
<title>Node2</title>
<g id="a_Node000002"><a xlink:title=" ">
<polygon fill="#e0e0e0" stroke="#999999" points="96.29,-19 19.29,-19 19.29,0 96.29,0 96.29,-19"/>
<text text-anchor="middle" x="57.79" y="-7" font-family="Helvetica,sans-Serif" font-size="10.00">Eigen/Dense</text>
</a>
</g>
</g>
<!-- Node1&#45;&gt;Node2 -->
<g id="edge1_Node000001_Node000002" class="edge">
<title>Node1&#45;&gt;Node2</title>
<g id="a_edge1_Node000001_Node000002"><a xlink:title=" ">
<path fill="none" stroke="#63b8ff" d="M55.71,-113.58C35.59,-105.24 15.58,-92.7 3.79,-74 -7.86,-55.5 13.04,-36.72 32.14,-24.44"/>
<polygon fill="#63b8ff" stroke="#63b8ff" points="34.19,-27.28 40.94,-19.11 30.57,-21.29 34.19,-27.28"/>
</a>
</g>
</g>
<!-- Node3 -->
<g id="Node000003" class="node">
<title>Node3</title>
<g id="a_Node000003"><a xlink:title=" ">
<polygon fill="#e0e0e0" stroke="#999999" points="76.79,-74 12.79,-74 12.79,-55 76.79,-55 76.79,-74"/>
<text text-anchor="middle" x="44.79" y="-62" font-family="Helvetica,sans-Serif" font-size="10.00">algorithm</text>
</a>
</g>
</g>
<!-- Node1&#45;&gt;Node3 -->
<g id="edge2_Node000001_Node000003" class="edge">
<title>Node1&#45;&gt;Node3</title>
<g id="a_edge2_Node000001_Node000003"><a xlink:title=" ">
<path fill="none" stroke="#63b8ff" d="M96.88,-109.95C85.98,-100.65 73.12,-89.68 62.91,-80.96"/>
<polygon fill="#63b8ff" stroke="#63b8ff" points="64.94,-78.09 55.06,-74.26 60.39,-83.41 64.94,-78.09"/>
</a>
</g>
</g>
<!-- Node4 -->
<g id="Node000004" class="node">
<title>Node4</title>
<g id="a_Node000004"><a xlink:title=" ">
<polygon fill="#e0e0e0" stroke="#999999" points="144.79,-74 94.79,-74 94.79,-55 144.79,-55 144.79,-74"/>
<text text-anchor="middle" x="119.79" y="-62" font-family="Helvetica,sans-Serif" font-size="10.00">cstdint</text>
</a>
</g>
</g>
<!-- Node1&#45;&gt;Node4 -->
<g id="edge3_Node000001_Node000004" class="edge">
<title>Node1&#45;&gt;Node4</title>
<g id="a_edge3_Node000001_Node000004"><a xlink:title=" ">
<path fill="none" stroke="#63b8ff" d="M119.79,-109.95C119.79,-101.85 119.79,-92.5 119.79,-84.47"/>
<polygon fill="#63b8ff" stroke="#63b8ff" points="123.29,-84.26 119.79,-74.26 116.29,-84.26 123.29,-84.26"/>
</a>
</g>
</g>
<!-- Node5 -->
<g id="Node000005" class="node">
<title>Node5</title>
<g id="a_Node000005"><a xlink:href="linear__algebra_8h.html" target="_top" xlink:title=" ">
<polygon fill="white" stroke="#666666" points="302.29,-74 163.29,-74 163.29,-55 302.29,-55 302.29,-74"/>
<text text-anchor="middle" x="232.79" y="-62" font-family="Helvetica,sans-Serif" font-size="10.00">occ/core/linear_algebra.h</text>
</a>
</g>
</g>
<!-- Node1&#45;&gt;Node5 -->
<g id="edge4_Node000001_Node000005" class="edge">
<title>Node1&#45;&gt;Node5</title>
<g id="a_edge4_Node000001_Node000005"><a xlink:title=" ">
<path fill="none" stroke="#63b8ff" d="M154.31,-109.95C171.83,-100.03 192.7,-88.21 208.51,-79.25"/>
<polygon fill="#63b8ff" stroke="#63b8ff" points="210.65,-82.07 217.62,-74.09 207.2,-75.97 210.65,-82.07"/>
</a>
</g>
</g>
<!-- Node8 -->
<g id="Node000008" class="node">
<title>Node8</title>
<g id="a_Node000008"><a xlink:title=" ">
<polygon fill="#e0e0e0" stroke="#999999" points="367.29,-74 320.29,-74 320.29,-55 367.29,-55 367.29,-74"/>
<text text-anchor="middle" x="343.79" y="-62" font-family="Helvetica,sans-Serif" font-size="10.00">vector</text>
</a>
</g>
</g>
<!-- Node1&#45;&gt;Node8 -->
<g id="edge8_Node000001_Node000008" class="edge">
<title>Node1&#45;&gt;Node8</title>
<g id="a_edge8_Node000001_Node000008"><a xlink:title=" ">
<path fill="none" stroke="#63b8ff" d="M183.98,-111.16C225.22,-99.38 277.11,-84.55 310.37,-75.05"/>
<polygon fill="#63b8ff" stroke="#63b8ff" points="311.41,-78.39 320.06,-72.28 309.48,-71.66 311.41,-78.39"/>
</a>
</g>
</g>
<!-- Node5&#45;&gt;Node2 -->
<g id="edge5_Node000005_Node000002" class="edge">
<title>Node5&#45;&gt;Node2</title>
<g id="a_edge5_Node000005_Node000002"><a xlink:title=" ">
<path fill="none" stroke="#63b8ff" d="M204.68,-54.98C175.17,-46.05 128.6,-31.94 95.82,-22.02"/>
<polygon fill="#63b8ff" stroke="#63b8ff" points="96.71,-18.63 86.13,-19.08 94.69,-25.33 96.71,-18.63"/>
</a>
</g>
</g>
<!-- Node6 -->
<g id="Node000006" class="node">
<title>Node6</title>
<g id="a_Node000006"><a xlink:title=" ">
<polygon fill="#e0e0e0" stroke="#999999" points="230.29,-19 137.29,-19 137.29,0 230.29,0 230.29,-19"/>
<text text-anchor="middle" x="183.79" y="-7" font-family="Helvetica,sans-Serif" font-size="10.00">Eigen/StdVector</text>
</a>
</g>
</g>
<!-- Node5&#45;&gt;Node6 -->
<g id="edge6_Node000005_Node000006" class="edge">
<title>Node5&#45;&gt;Node6</title>
<g id="a_edge6_Node000005_Node000006"><a xlink:title=" ">
<path fill="none" stroke="#63b8ff" d="M224.7,-54.75C217.64,-47.11 207.2,-35.82 198.64,-26.56"/>
<polygon fill="#63b8ff" stroke="#63b8ff" points="201.09,-24.06 191.73,-19.09 195.95,-28.81 201.09,-24.06"/>
</a>
</g>
</g>
<!-- Node7 -->
<g id="Node000007" class="node">
<title>Node7</title>
<g id="a_Node000007"><a xlink:title=" ">
<polygon fill="#e0e0e0" stroke="#999999" points="315.29,-19 248.29,-19 248.29,0 315.29,0 315.29,-19"/>
<text text-anchor="middle" x="281.79" y="-7" font-family="Helvetica,sans-Serif" font-size="10.00">fmt/core.h</text>
</a>
</g>
</g>
<!-- Node5&#45;&gt;Node7 -->
<g id="edge7_Node000005_Node000007" class="edge">
<title>Node5&#45;&gt;Node7</title>
<g id="a_edge7_Node000005_Node000007"><a xlink:title=" ">
<path fill="none" stroke="#63b8ff" d="M240.88,-54.75C247.95,-47.11 258.38,-35.82 266.94,-26.56"/>
<polygon fill="#63b8ff" stroke="#63b8ff" points="269.63,-28.81 273.85,-19.09 264.49,-24.06 269.63,-28.81"/>
</a>
</g>
</g>
</g>
</svg>
