<?xml version="1.0" encoding="UTF-8" standalone="no"?>
<!DOCTYPE svg PUBLIC "-//W3C//DTD SVG 1.1//EN"
 "http://www.w3.org/Graphics/SVG/1.1/DTD/svg11.dtd">
<!-- Generated by graphviz version 2.43.0 (0)
 -->
<!-- Title: /home/runner/work/occ/occ/include/occ/io/core_json.h Pages: 1 -->
<svg width="399pt" height="330pt"
 viewBox="0.00 0.00 399.00 330.00" xmlns="http://www.w3.org/2000/svg" xmlns:xlink="http://www.w3.org/1999/xlink">
<g id="graph0" class="graph" transform="scale(1 1) rotate(0) translate(4 326)">
<title>/home/runner/work/occ/occ/include/occ/io/core_json.h</title>
<!-- Node1 -->
<g id="node1" class="node">
<title>Node1</title>
<g id="a_node1"><a xlink:title=" ">
<polygon fill="#bfbfbf" stroke="black" points="118.5,-280.5 118.5,-321.5 248.5,-321.5 248.5,-280.5 118.5,-280.5"/>
<text text-anchor="start" x="126.5" y="-309.5" font-family="Helvetica,sans-Serif" font-size="10.00">/home/runner/work/occ</text>
<text text-anchor="start" x="126.5" y="-298.5" font-family="Helvetica,sans-Serif" font-size="10.00">/occ/include/occ/io/core</text>
<text text-anchor="middle" x="183.5" y="-287.5" font-family="Helvetica,sans-Serif" font-size="10.00">_json.h</text>
</a>
</g>
</g>
<!-- Node2 -->
<g id="node2" class="node">
<title>Node2</title>
<g id="a_node2"><a xlink:title=" ">
<polygon fill="none" stroke="#bfbfbf" points="67.5,-224.5 67.5,-243.5 177.5,-243.5 177.5,-224.5 67.5,-224.5"/>
<text text-anchor="middle" x="122.5" y="-231.5" font-family="Helvetica,sans-Serif" font-size="10.00">nlohmann/json.hpp</text>
</a>
</g>
</g>
<!-- Node1&#45;&gt;Node2 -->
<g id="edge1" class="edge">
<title>Node1&#45;&gt;Node2</title>
<path fill="none" stroke="midnightblue" d="M165.2,-280.5C156.39,-271.11 145.95,-259.98 137.59,-251.08"/>
<polygon fill="midnightblue" stroke="midnightblue" points="140.02,-248.55 130.62,-243.65 134.91,-253.34 140.02,-248.55"/>
</g>
<!-- Node3 -->
<g id="node3" class="node">
<title>Node3</title>
<g id="a_node3"><a xlink:href="dimer_8h.html" target="_top" xlink:title=" ">
<polygon fill="none" stroke="black" points="196,-224.5 196,-243.5 293,-243.5 293,-224.5 196,-224.5"/>
<text text-anchor="middle" x="244.5" y="-231.5" font-family="Helvetica,sans-Serif" font-size="10.00">occ/core/dimer.h</text>
</a>
</g>
</g>
<!-- Node1&#45;&gt;Node3 -->
<g id="edge2" class="edge">
<title>Node1&#45;&gt;Node3</title>
<path fill="none" stroke="midnightblue" d="M201.8,-280.5C210.61,-271.11 221.05,-259.98 229.41,-251.08"/>
<polygon fill="midnightblue" stroke="midnightblue" points="232.09,-253.34 236.38,-243.65 226.98,-248.55 232.09,-253.34"/>
</g>
<!-- Node4 -->
<g id="node4" class="node">
<title>Node4</title>
<g id="a_node4"><a xlink:href="molecule_8h.html" target="_top" xlink:title=" ">
<polygon fill="none" stroke="black" points="136.5,-168.5 136.5,-187.5 250.5,-187.5 250.5,-168.5 136.5,-168.5"/>
<text text-anchor="middle" x="193.5" y="-175.5" font-family="Helvetica,sans-Serif" font-size="10.00">occ/core/molecule.h</text>
</a>
</g>
</g>
<!-- Node3&#45;&gt;Node4 -->
<g id="edge3" class="edge">
<title>Node3&#45;&gt;Node4</title>
<path fill="none" stroke="midnightblue" d="M236.08,-224.08C228.65,-216.22 217.65,-204.57 208.69,-195.08"/>
<polygon fill="midnightblue" stroke="midnightblue" points="211.18,-192.62 201.76,-187.75 206.09,-197.42 211.18,-192.62"/>
</g>
<!-- Node15 -->
<g id="node15" class="node">
<title>Node15</title>
<g id="a_node15"><a xlink:title=" ">
<polygon fill="none" stroke="#bfbfbf" points="268.5,-168.5 268.5,-187.5 324.5,-187.5 324.5,-168.5 268.5,-168.5"/>
<text text-anchor="middle" x="296.5" y="-175.5" font-family="Helvetica,sans-Serif" font-size="10.00">optional</text>
</a>
</g>
</g>
<!-- Node3&#45;&gt;Node15 -->
<g id="edge15" class="edge">
<title>Node3&#45;&gt;Node15</title>
<path fill="none" stroke="midnightblue" d="M253.09,-224.08C260.66,-216.22 271.88,-204.57 281.01,-195.08"/>
<polygon fill="midnightblue" stroke="midnightblue" points="283.66,-197.38 288.07,-187.75 278.62,-192.53 283.66,-197.38"/>
</g>
<!-- Node5 -->
<g id="node5" class="node">
<title>Node5</title>
<g id="a_node5"><a xlink:title=" ">
<polygon fill="none" stroke="#bfbfbf" points="9.5,-112.5 9.5,-131.5 51.5,-131.5 51.5,-112.5 9.5,-112.5"/>
<text text-anchor="middle" x="30.5" y="-119.5" font-family="Helvetica,sans-Serif" font-size="10.00">array</text>
</a>
</g>
</g>
<!-- Node4&#45;&gt;Node5 -->
<g id="edge4" class="edge">
<title>Node4&#45;&gt;Node5</title>
<path fill="none" stroke="midnightblue" d="M167.67,-168.44C138.8,-158.88 92.07,-143.4 61.31,-133.21"/>
<polygon fill="midnightblue" stroke="midnightblue" points="62.14,-129.79 51.54,-129.97 59.93,-136.44 62.14,-129.79"/>
</g>
<!-- Node6 -->
<g id="node6" class="node">
<title>Node6</title>
<g id="a_node6"><a xlink:href="atom_8h.html" target="_top" xlink:title=" ">
<polygon fill="none" stroke="black" points="70,-112.5 70,-131.5 165,-131.5 165,-112.5 70,-112.5"/>
<text text-anchor="middle" x="117.5" y="-119.5" font-family="Helvetica,sans-Serif" font-size="10.00">occ/core/atom.h</text>
</a>
</g>
</g>
<!-- Node4&#45;&gt;Node6 -->
<g id="edge5" class="edge">
<title>Node4&#45;&gt;Node6</title>
<path fill="none" stroke="midnightblue" d="M181.29,-168.32C169.72,-160.11 152.12,-147.6 138.34,-137.81"/>
<polygon fill="midnightblue" stroke="midnightblue" points="140.11,-134.77 129.93,-131.83 136.06,-140.48 140.11,-134.77"/>
</g>
<!-- Node7 -->
<g id="node7" class="node">
<title>Node7</title>
<g id="a_node7"><a xlink:href="linear__algebra_8h.html" target="_top" xlink:title=" ">
<polygon fill="none" stroke="black" points="72,-56.5 72,-75.5 211,-75.5 211,-56.5 72,-56.5"/>
<text text-anchor="middle" x="141.5" y="-63.5" font-family="Helvetica,sans-Serif" font-size="10.00">occ/core/linear_algebra.h</text>
</a>
</g>
</g>
<!-- Node4&#45;&gt;Node7 -->
<g id="edge13" class="edge">
<title>Node4&#45;&gt;Node7</title>
<path fill="none" stroke="midnightblue" d="M191.74,-168.25C188.97,-155.45 182.9,-131.06 173.5,-112 168.58,-102.02 161.54,-91.85 155.32,-83.7"/>
<polygon fill="midnightblue" stroke="midnightblue" points="157.99,-81.43 149.03,-75.76 152.5,-85.77 157.99,-81.43"/>
</g>
<!-- Node11 -->
<g id="node11" class="node">
<title>Node11</title>
<g id="a_node11"><a xlink:href="element_8h.html" target="_top" xlink:title=" ">
<polygon fill="none" stroke="black" points="221.5,-112.5 221.5,-131.5 331.5,-131.5 331.5,-112.5 221.5,-112.5"/>
<text text-anchor="middle" x="276.5" y="-119.5" font-family="Helvetica,sans-Serif" font-size="10.00">occ/core/element.h</text>
</a>
</g>
</g>
<!-- Node4&#45;&gt;Node11 -->
<g id="edge10" class="edge">
<title>Node4&#45;&gt;Node11</title>
<path fill="none" stroke="midnightblue" d="M206.84,-168.32C219.66,-159.98 239.28,-147.21 254.44,-137.35"/>
<polygon fill="midnightblue" stroke="midnightblue" points="256.72,-140.04 263.2,-131.65 252.91,-134.17 256.72,-140.04"/>
</g>
<!-- Node14 -->
<g id="node14" class="node">
<title>Node14</title>
<g id="a_node14"><a xlink:title=" ">
<polygon fill="none" stroke="#bfbfbf" points="350,-112.5 350,-131.5 391,-131.5 391,-112.5 350,-112.5"/>
<text text-anchor="middle" x="370.5" y="-119.5" font-family="Helvetica,sans-Serif" font-size="10.00">tuple</text>
</a>
</g>
</g>
<!-- Node4&#45;&gt;Node14 -->
<g id="edge14" class="edge">
<title>Node4&#45;&gt;Node14</title>
<path fill="none" stroke="midnightblue" d="M221.55,-168.44C253.88,-158.58 306.83,-142.42 340.12,-132.27"/>
<polygon fill="midnightblue" stroke="midnightblue" points="341.23,-135.59 349.77,-129.32 339.19,-128.89 341.23,-135.59"/>
</g>
<!-- Node6&#45;&gt;Node7 -->
<g id="edge6" class="edge">
<title>Node6&#45;&gt;Node7</title>
<path fill="none" stroke="midnightblue" d="M121.46,-112.08C124.71,-104.77 129.42,-94.18 133.45,-85.1"/>
<polygon fill="midnightblue" stroke="midnightblue" points="136.75,-86.31 137.61,-75.75 130.35,-83.47 136.75,-86.31"/>
</g>
<!-- Node8 -->
<g id="node8" class="node">
<title>Node8</title>
<g id="a_node8"><a xlink:title=" ">
<polygon fill="none" stroke="#bfbfbf" points="0,-0.5 0,-19.5 77,-19.5 77,-0.5 0,-0.5"/>
<text text-anchor="middle" x="38.5" y="-7.5" font-family="Helvetica,sans-Serif" font-size="10.00">Eigen/Dense</text>
</a>
</g>
</g>
<!-- Node7&#45;&gt;Node8 -->
<g id="edge7" class="edge">
<title>Node7&#45;&gt;Node8</title>
<path fill="none" stroke="midnightblue" d="M124.95,-56.32C108.51,-47.7 83.07,-34.36 64.03,-24.39"/>
<polygon fill="midnightblue" stroke="midnightblue" points="65.49,-21.2 55.01,-19.65 62.24,-27.4 65.49,-21.2"/>
</g>
<!-- Node9 -->
<g id="node9" class="node">
<title>Node9</title>
<g id="a_node9"><a xlink:title=" ">
<polygon fill="none" stroke="#bfbfbf" points="95,-0.5 95,-19.5 188,-19.5 188,-0.5 95,-0.5"/>
<text text-anchor="middle" x="141.5" y="-7.5" font-family="Helvetica,sans-Serif" font-size="10.00">Eigen/StdVector</text>
</a>
</g>
</g>
<!-- Node7&#45;&gt;Node9 -->
<g id="edge8" class="edge">
<title>Node7&#45;&gt;Node9</title>
<path fill="none" stroke="midnightblue" d="M141.5,-56.08C141.5,-49.01 141.5,-38.86 141.5,-29.99"/>
<polygon fill="midnightblue" stroke="midnightblue" points="145,-29.75 141.5,-19.75 138,-29.75 145,-29.75"/>
</g>
<!-- Node10 -->
<g id="node10" class="node">
<title>Node10</title>
<g id="a_node10"><a xlink:title=" ">
<polygon fill="none" stroke="#bfbfbf" points="206.5,-0.5 206.5,-19.5 292.5,-19.5 292.5,-0.5 206.5,-0.5"/>
<text text-anchor="middle" x="249.5" y="-7.5" font-family="Helvetica,sans-Serif" font-size="10.00">fmt/ostream.h</text>
</a>
</g>
</g>
<!-- Node7&#45;&gt;Node10 -->
<g id="edge9" class="edge">
<title>Node7&#45;&gt;Node10</title>
<path fill="none" stroke="midnightblue" d="M158.85,-56.32C176.17,-47.66 203.02,-34.24 223,-24.25"/>
<polygon fill="midnightblue" stroke="midnightblue" points="224.81,-27.26 232.19,-19.65 221.68,-21 224.81,-27.26"/>
</g>
<!-- Node12 -->
<g id="node12" class="node">
<title>Node12</title>
<g id="a_node12"><a xlink:title=" ">
<polygon fill="none" stroke="#bfbfbf" points="241.5,-56.5 241.5,-75.5 285.5,-75.5 285.5,-56.5 241.5,-56.5"/>
<text text-anchor="middle" x="263.5" y="-63.5" font-family="Helvetica,sans-Serif" font-size="10.00">string</text>
</a>
</g>
</g>
<!-- Node11&#45;&gt;Node12 -->
<g id="edge11" class="edge">
<title>Node11&#45;&gt;Node12</title>
<path fill="none" stroke="midnightblue" d="M274.35,-112.08C272.63,-104.93 270.15,-94.64 268,-85.69"/>
<polygon fill="midnightblue" stroke="midnightblue" points="271.35,-84.65 265.61,-75.75 264.54,-86.29 271.35,-84.65"/>
</g>
<!-- Node13 -->
<g id="node13" class="node">
<title>Node13</title>
<g id="a_node13"><a xlink:title=" ">
<polygon fill="none" stroke="#bfbfbf" points="304,-56.5 304,-75.5 351,-75.5 351,-56.5 304,-56.5"/>
<text text-anchor="middle" x="327.5" y="-63.5" font-family="Helvetica,sans-Serif" font-size="10.00">vector</text>
</a>
</g>
</g>
<!-- Node11&#45;&gt;Node13 -->
<g id="edge12" class="edge">
<title>Node11&#45;&gt;Node13</title>
<path fill="none" stroke="midnightblue" d="M284.92,-112.08C292.35,-104.22 303.35,-92.57 312.31,-83.08"/>
<polygon fill="midnightblue" stroke="midnightblue" points="314.91,-85.42 319.24,-75.75 309.82,-80.62 314.91,-85.42"/>
</g>
</g>
</svg>
