<?xml version="1.0" encoding="UTF-8" standalone="no"?>
<!DOCTYPE svg PUBLIC "-//W3C//DTD SVG 1.1//EN"
 "http://www.w3.org/Graphics/SVG/1.1/DTD/svg11.dtd">
<!-- Generated by graphviz version 2.43.0 (0)
 -->
<!-- Title: /home/runner/work/occ/occ/include/occ/io/core_json.h Pages: 1 -->
<svg width="747pt" height="324pt"
 viewBox="0.00 0.00 747.00 324.00" xmlns="http://www.w3.org/2000/svg" xmlns:xlink="http://www.w3.org/1999/xlink">
<g id="graph0" class="graph" transform="scale(1 1) rotate(0) translate(4 320)">
<title>/home/runner/work/occ/occ/include/occ/io/core_json.h</title>
<!-- Node1 -->
<g id="Node000001" class="node">
<title>Node1</title>
<g id="a_Node000001"><a xlink:title=" ">
<polygon fill="#999999" stroke="#666666" points="322.5,-316 192.5,-316 192.5,-275 322.5,-275 322.5,-316"/>
<text text-anchor="start" x="200.5" y="-304" font-family="Helvetica,sans-Serif" font-size="10.00">/home/runner/work/occ</text>
<text text-anchor="start" x="200.5" y="-293" font-family="Helvetica,sans-Serif" font-size="10.00">/occ/include/occ/io/core</text>
<text text-anchor="middle" x="257.5" y="-282" font-family="Helvetica,sans-Serif" font-size="10.00">_json.h</text>
</a>
</g>
</g>
<!-- Node2 -->
<g id="Node000002" class="node">
<title>Node2</title>
<g id="a_Node000002"><a xlink:title=" ">
<polygon fill="#e0e0e0" stroke="#999999" points="190.5,-239 80.5,-239 80.5,-220 190.5,-220 190.5,-239"/>
<text text-anchor="middle" x="135.5" y="-227" font-family="Helvetica,sans-Serif" font-size="10.00">nlohmann/json.hpp</text>
</a>
</g>
</g>
<!-- Node1&#45;&gt;Node2 -->
<g id="edge1_Node000001_Node000002" class="edge">
<title>Node1&#45;&gt;Node2</title>
<g id="a_edge1_Node000001_Node000002"><a xlink:title=" ">
<path fill="none" stroke="#63b8ff" d="M220.23,-274.95C200.96,-264.84 177.94,-252.76 160.76,-243.75"/>
<polygon fill="#63b8ff" stroke="#63b8ff" points="162.36,-240.64 151.88,-239.09 159.11,-246.84 162.36,-240.64"/>
</a>
</g>
</g>
<!-- Node3 -->
<g id="Node000003" class="node">
<title>Node3</title>
<g id="a_Node000003"><a xlink:href="dimer_8h.html" target="_top" xlink:title=" ">
<polygon fill="white" stroke="#666666" points="306,-239 209,-239 209,-220 306,-220 306,-239"/>
<text text-anchor="middle" x="257.5" y="-227" font-family="Helvetica,sans-Serif" font-size="10.00">occ/core/dimer.h</text>
</a>
</g>
</g>
<!-- Node1&#45;&gt;Node3 -->
<g id="edge2_Node000001_Node000003" class="edge">
<title>Node1&#45;&gt;Node3</title>
<g id="a_edge2_Node000001_Node000003"><a xlink:title=" ">
<path fill="none" stroke="#63b8ff" d="M257.5,-274.95C257.5,-266.85 257.5,-257.5 257.5,-249.47"/>
<polygon fill="#63b8ff" stroke="#63b8ff" points="261,-249.26 257.5,-239.26 254,-249.26 261,-249.26"/>
</a>
</g>
</g>
<!-- Node17 -->
<g id="Node000017" class="node">
<title>Node17</title>
<g id="a_Node000017"><a xlink:href="vibration_8h.html" target="_top" xlink:title=" ">
<polygon fill="white" stroke="#666666" points="471,-239 358,-239 358,-220 471,-220 471,-239"/>
<text text-anchor="middle" x="414.5" y="-227" font-family="Helvetica,sans-Serif" font-size="10.00">occ/core/vibration.h</text>
</a>
</g>
</g>
<!-- Node1&#45;&gt;Node17 -->
<g id="edge17_Node000001_Node000017" class="edge">
<title>Node1&#45;&gt;Node17</title>
<g id="a_edge17_Node000001_Node000017"><a xlink:title=" ">
<path fill="none" stroke="#63b8ff" d="M305.46,-274.95C331.07,-264.51 361.81,-251.98 384.12,-242.88"/>
<polygon fill="#63b8ff" stroke="#63b8ff" points="385.48,-246.11 393.42,-239.09 382.84,-239.63 385.48,-246.11"/>
</a>
</g>
</g>
<!-- Node4 -->
<g id="Node000004" class="node">
<title>Node4</title>
<g id="a_Node000004"><a xlink:title=" ">
<polygon fill="#e0e0e0" stroke="#999999" points="143,-184 0,-184 0,-165 143,-165 143,-184"/>
<text text-anchor="middle" x="71.5" y="-172" font-family="Helvetica,sans-Serif" font-size="10.00">ankerl/unordered_dense.h</text>
</a>
</g>
</g>
<!-- Node3&#45;&gt;Node4 -->
<g id="edge3_Node000003_Node000004" class="edge">
<title>Node3&#45;&gt;Node4</title>
<g id="a_edge3_Node000003_Node000004"><a xlink:title=" ">
<path fill="none" stroke="#63b8ff" d="M227.62,-219.98C196.12,-211.01 146.33,-196.82 111.47,-186.89"/>
<polygon fill="#63b8ff" stroke="#63b8ff" points="112.19,-183.46 101.62,-184.08 110.28,-190.19 112.19,-183.46"/>
</a>
</g>
</g>
<!-- Node5 -->
<g id="Node000005" class="node">
<title>Node5</title>
<g id="a_Node000005"><a xlink:href="molecule_8h.html" target="_top" xlink:title=" ">
<polygon fill="white" stroke="#666666" points="471.5,-184 357.5,-184 357.5,-165 471.5,-165 471.5,-184"/>
<text text-anchor="middle" x="414.5" y="-172" font-family="Helvetica,sans-Serif" font-size="10.00">occ/core/molecule.h</text>
</a>
</g>
</g>
<!-- Node3&#45;&gt;Node5 -->
<g id="edge4_Node000003_Node000005" class="edge">
<title>Node3&#45;&gt;Node5</title>
<g id="a_edge4_Node000003_Node000005"><a xlink:title=" ">
<path fill="none" stroke="#63b8ff" d="M282.72,-219.98C308.86,-211.16 349.9,-197.31 379.23,-187.41"/>
<polygon fill="#63b8ff" stroke="#63b8ff" points="380.72,-190.6 389.08,-184.08 378.48,-183.96 380.72,-190.6"/>
</a>
</g>
</g>
<!-- Node16 -->
<g id="Node000016" class="node">
<title>Node16</title>
<g id="a_Node000016"><a xlink:title=" ">
<polygon fill="#e0e0e0" stroke="#999999" points="217.5,-184 161.5,-184 161.5,-165 217.5,-165 217.5,-184"/>
<text text-anchor="middle" x="189.5" y="-172" font-family="Helvetica,sans-Serif" font-size="10.00">optional</text>
</a>
</g>
</g>
<!-- Node3&#45;&gt;Node16 -->
<g id="edge16_Node000003_Node000016" class="edge">
<title>Node3&#45;&gt;Node16</title>
<g id="a_edge16_Node000003_Node000016"><a xlink:title=" ">
<path fill="none" stroke="#63b8ff" d="M246.57,-219.98C236.42,-212.07 221.08,-200.11 208.85,-190.58"/>
<polygon fill="#63b8ff" stroke="#63b8ff" points="210.66,-187.56 200.62,-184.17 206.36,-193.08 210.66,-187.56"/>
</a>
</g>
</g>
<!-- Node6 -->
<g id="Node000006" class="node">
<title>Node6</title>
<g id="a_Node000006"><a xlink:title=" ">
<polygon fill="#e0e0e0" stroke="#999999" points="315.5,-129 273.5,-129 273.5,-110 315.5,-110 315.5,-129"/>
<text text-anchor="middle" x="294.5" y="-117" font-family="Helvetica,sans-Serif" font-size="10.00">array</text>
</a>
</g>
</g>
<!-- Node5&#45;&gt;Node6 -->
<g id="edge5_Node000005_Node000006" class="edge">
<title>Node5&#45;&gt;Node6</title>
<g id="a_edge5_Node000005_Node000006"><a xlink:title=" ">
<path fill="none" stroke="#63b8ff" d="M395.22,-164.98C375.83,-156.42 345.69,-143.11 323.43,-133.28"/>
<polygon fill="#63b8ff" stroke="#63b8ff" points="324.69,-130.01 314.13,-129.17 321.86,-136.41 324.69,-130.01"/>
</a>
</g>
</g>
<!-- Node7 -->
<g id="Node000007" class="node">
<title>Node7</title>
<g id="a_Node000007"><a xlink:href="atom_8h.html" target="_top" xlink:title=" ">
<polygon fill="white" stroke="#666666" points="655,-129 560,-129 560,-110 655,-110 655,-129"/>
<text text-anchor="middle" x="607.5" y="-117" font-family="Helvetica,sans-Serif" font-size="10.00">occ/core/atom.h</text>
</a>
</g>
</g>
<!-- Node5&#45;&gt;Node7 -->
<g id="edge6_Node000005_Node000007" class="edge">
<title>Node5&#45;&gt;Node7</title>
<g id="a_edge6_Node000005_Node000007"><a xlink:title=" ">
<path fill="none" stroke="#63b8ff" d="M445.51,-164.98C478.33,-155.97 530.3,-141.7 566.49,-131.76"/>
<polygon fill="#63b8ff" stroke="#63b8ff" points="567.53,-135.11 576.25,-129.08 565.68,-128.36 567.53,-135.11"/>
</a>
</g>
</g>
<!-- Node8 -->
<g id="Node000008" class="node">
<title>Node8</title>
<g id="a_Node000008"><a xlink:href="linear__algebra_8h.html" target="_top" xlink:title=" ">
<polygon fill="white" stroke="#666666" points="677,-74 538,-74 538,-55 677,-55 677,-74"/>
<text text-anchor="middle" x="607.5" y="-62" font-family="Helvetica,sans-Serif" font-size="10.00">occ/core/linear_algebra.h</text>
</a>
</g>
</g>
<!-- Node5&#45;&gt;Node8 -->
<g id="edge14_Node000005_Node000008" class="edge">
<title>Node5&#45;&gt;Node8</title>
<g id="a_edge14_Node000005_Node000008"><a xlink:title=" ">
<path fill="none" stroke="#63b8ff" d="M436.02,-164.92C456.21,-156.6 487.03,-143.17 512.5,-129 539.47,-114 568.73,-93.78 587.55,-80.23"/>
<polygon fill="#63b8ff" stroke="#63b8ff" points="589.87,-82.87 595.9,-74.16 585.75,-77.21 589.87,-82.87"/>
</a>
</g>
</g>
<!-- Node12 -->
<g id="Node000012" class="node">
<title>Node12</title>
<g id="a_Node000012"><a xlink:href="element_8h.html" target="_top" xlink:title=" ">
<polygon fill="white" stroke="#666666" points="503.5,-129 393.5,-129 393.5,-110 503.5,-110 503.5,-129"/>
<text text-anchor="middle" x="448.5" y="-117" font-family="Helvetica,sans-Serif" font-size="10.00">occ/core/element.h</text>
</a>
</g>
</g>
<!-- Node5&#45;&gt;Node12 -->
<g id="edge11_Node000005_Node000012" class="edge">
<title>Node5&#45;&gt;Node12</title>
<g id="a_edge11_Node000005_Node000012"><a xlink:title=" ">
<path fill="none" stroke="#63b8ff" d="M420.11,-164.75C424.82,-157.42 431.67,-146.73 437.47,-137.7"/>
<polygon fill="#63b8ff" stroke="#63b8ff" points="440.54,-139.4 442.99,-129.09 434.64,-135.62 440.54,-139.4"/>
</a>
</g>
</g>
<!-- Node15 -->
<g id="Node000015" class="node">
<title>Node15</title>
<g id="a_Node000015"><a xlink:title=" ">
<polygon fill="#e0e0e0" stroke="#999999" points="375,-129 334,-129 334,-110 375,-110 375,-129"/>
<text text-anchor="middle" x="354.5" y="-117" font-family="Helvetica,sans-Serif" font-size="10.00">tuple</text>
</a>
</g>
</g>
<!-- Node5&#45;&gt;Node15 -->
<g id="edge15_Node000005_Node000015" class="edge">
<title>Node5&#45;&gt;Node15</title>
<g id="a_edge15_Node000005_Node000015"><a xlink:title=" ">
<path fill="none" stroke="#63b8ff" d="M404.86,-164.98C395.99,-157.15 382.63,-145.34 371.89,-135.86"/>
<polygon fill="#63b8ff" stroke="#63b8ff" points="374.13,-133.17 364.32,-129.17 369.49,-138.41 374.13,-133.17"/>
</a>
</g>
</g>
<!-- Node7&#45;&gt;Node8 -->
<g id="edge7_Node000007_Node000008" class="edge">
<title>Node7&#45;&gt;Node8</title>
<g id="a_edge7_Node000007_Node000008"><a xlink:title=" ">
<path fill="none" stroke="#63b8ff" d="M607.5,-109.75C607.5,-102.8 607.5,-92.85 607.5,-84.13"/>
<polygon fill="#63b8ff" stroke="#63b8ff" points="611,-84.09 607.5,-74.09 604,-84.09 611,-84.09"/>
</a>
</g>
</g>
<!-- Node9 -->
<g id="Node000009" class="node">
<title>Node9</title>
<g id="a_Node000009"><a xlink:title=" ">
<polygon fill="#e0e0e0" stroke="#999999" points="543,-19 466,-19 466,0 543,0 543,-19"/>
<text text-anchor="middle" x="504.5" y="-7" font-family="Helvetica,sans-Serif" font-size="10.00">Eigen/Dense</text>
</a>
</g>
</g>
<!-- Node8&#45;&gt;Node9 -->
<g id="edge8_Node000008_Node000009" class="edge">
<title>Node8&#45;&gt;Node9</title>
<g id="a_edge8_Node000008_Node000009"><a xlink:title=" ">
<path fill="none" stroke="#63b8ff" d="M590.95,-54.98C574.61,-46.57 549.37,-33.59 530.37,-23.81"/>
<polygon fill="#63b8ff" stroke="#63b8ff" points="531.84,-20.63 521.35,-19.17 528.64,-26.86 531.84,-20.63"/>
</a>
</g>
</g>
<!-- Node10 -->
<g id="Node000010" class="node">
<title>Node10</title>
<g id="a_Node000010"><a xlink:title=" ">
<polygon fill="#e0e0e0" stroke="#999999" points="654,-19 561,-19 561,0 654,0 654,-19"/>
<text text-anchor="middle" x="607.5" y="-7" font-family="Helvetica,sans-Serif" font-size="10.00">Eigen/StdVector</text>
</a>
</g>
</g>
<!-- Node8&#45;&gt;Node10 -->
<g id="edge9_Node000008_Node000010" class="edge">
<title>Node8&#45;&gt;Node10</title>
<g id="a_edge9_Node000008_Node000010"><a xlink:title=" ">
<path fill="none" stroke="#63b8ff" d="M607.5,-54.75C607.5,-47.8 607.5,-37.85 607.5,-29.13"/>
<polygon fill="#63b8ff" stroke="#63b8ff" points="611,-29.09 607.5,-19.09 604,-29.09 611,-29.09"/>
</a>
</g>
</g>
<!-- Node11 -->
<g id="Node000011" class="node">
<title>Node11</title>
<g id="a_Node000011"><a xlink:title=" ">
<polygon fill="#e0e0e0" stroke="#999999" points="739,-19 672,-19 672,0 739,0 739,-19"/>
<text text-anchor="middle" x="705.5" y="-7" font-family="Helvetica,sans-Serif" font-size="10.00">fmt/core.h</text>
</a>
</g>
</g>
<!-- Node8&#45;&gt;Node11 -->
<g id="edge10_Node000008_Node000011" class="edge">
<title>Node8&#45;&gt;Node11</title>
<g id="a_edge10_Node000008_Node000011"><a xlink:title=" ">
<path fill="none" stroke="#63b8ff" d="M623.25,-54.98C638.73,-46.61 662.59,-33.7 680.64,-23.95"/>
<polygon fill="#63b8ff" stroke="#63b8ff" points="682.34,-27.01 689.47,-19.17 679.01,-20.85 682.34,-27.01"/>
</a>
</g>
</g>
<!-- Node13 -->
<g id="Node000013" class="node">
<title>Node13</title>
<g id="a_Node000013"><a xlink:title=" ">
<polygon fill="#e0e0e0" stroke="#999999" points="361.5,-74 317.5,-74 317.5,-55 361.5,-55 361.5,-74"/>
<text text-anchor="middle" x="339.5" y="-62" font-family="Helvetica,sans-Serif" font-size="10.00">string</text>
</a>
</g>
</g>
<!-- Node12&#45;&gt;Node13 -->
<g id="edge12_Node000012_Node000013" class="edge">
<title>Node12&#45;&gt;Node13</title>
<g id="a_edge12_Node000012_Node000013"><a xlink:title=" ">
<path fill="none" stroke="#63b8ff" d="M430.99,-109.98C413.53,-101.5 386.49,-88.35 366.33,-78.54"/>
<polygon fill="#63b8ff" stroke="#63b8ff" points="367.86,-75.4 357.33,-74.17 364.79,-81.69 367.86,-75.4"/>
</a>
</g>
</g>
<!-- Node14 -->
<g id="Node000014" class="node">
<title>Node14</title>
<g id="a_Node000014"><a xlink:title=" ">
<polygon fill="#e0e0e0" stroke="#999999" points="496,-74 449,-74 449,-55 496,-55 496,-74"/>
<text text-anchor="middle" x="472.5" y="-62" font-family="Helvetica,sans-Serif" font-size="10.00">vector</text>
</a>
</g>
</g>
<!-- Node12&#45;&gt;Node14 -->
<g id="edge13_Node000012_Node000014" class="edge">
<title>Node12&#45;&gt;Node14</title>
<g id="a_edge13_Node000012_Node000014"><a xlink:title=" ">
<path fill="none" stroke="#63b8ff" d="M452.46,-109.75C455.71,-102.57 460.42,-92.18 464.45,-83.27"/>
<polygon fill="#63b8ff" stroke="#63b8ff" points="467.67,-84.64 468.61,-74.09 461.3,-81.75 467.67,-84.64"/>
</a>
</g>
</g>
<!-- Node17&#45;&gt;Node5 -->
<g id="edge19_Node000017_Node000005" class="edge">
<title>Node17&#45;&gt;Node5</title>
<g id="a_edge19_Node000017_Node000005"><a xlink:title=" ">
<path fill="none" stroke="#63b8ff" d="M414.5,-219.75C414.5,-212.8 414.5,-202.85 414.5,-194.13"/>
<polygon fill="#63b8ff" stroke="#63b8ff" points="418,-194.09 414.5,-184.09 411,-194.09 418,-194.09"/>
</a>
</g>
</g>
<!-- Node17&#45;&gt;Node8 -->
<g id="edge18_Node000017_Node000008" class="edge">
<title>Node17&#45;&gt;Node8</title>
<g id="a_edge18_Node000017_Node000008"><a xlink:title=" ">
<path fill="none" stroke="#63b8ff" d="M471.18,-226.54C516.89,-222.76 581.41,-212.31 630.5,-184 664.67,-164.29 698.71,-144.45 679.5,-110 671.46,-95.58 656.6,-85.24 642.46,-78.18"/>
<polygon fill="#63b8ff" stroke="#63b8ff" points="643.9,-74.99 633.35,-74.01 640.99,-81.36 643.9,-74.99"/>
</a>
</g>
</g>
<!-- Node17&#45;&gt;Node13 -->
<g id="edge21_Node000017_Node000013" class="edge">
<title>Node17&#45;&gt;Node13</title>
<g id="a_edge21_Node000017_Node000013"><a xlink:title=" ">
<path fill="none" stroke="#63b8ff" d="M388.24,-219.96C352.7,-206.81 290.73,-177.88 264.5,-129 251.98,-105.67 282.2,-87.29 307.94,-76.44"/>
<polygon fill="#63b8ff" stroke="#63b8ff" points="309.48,-79.59 317.49,-72.65 306.9,-73.08 309.48,-79.59"/>
</a>
</g>
</g>
<!-- Node17&#45;&gt;Node14 -->
<g id="edge20_Node000017_Node000014" class="edge">
<title>Node17&#45;&gt;Node14</title>
<g id="a_edge20_Node000017_Node000014"><a xlink:title=" ">
<path fill="none" stroke="#63b8ff" d="M471.22,-223.79C530.71,-215.48 621.43,-192.5 664.5,-129 669.24,-122.01 669.75,-116.61 664.5,-110 654.67,-97.63 559.01,-79.93 506.54,-71.04"/>
<polygon fill="#63b8ff" stroke="#63b8ff" points="506.79,-67.54 496.35,-69.34 505.63,-74.44 506.79,-67.54"/>
</a>
</g>
</g>
</g>
</svg>
