<?xml version="1.0" encoding="UTF-8" standalone="no"?>
<!DOCTYPE svg PUBLIC "-//W3C//DTD SVG 1.1//EN"
 "http://www.w3.org/Graphics/SVG/1.1/DTD/svg11.dtd">
<!-- Generated by graphviz version 2.43.0 (0)
 -->
<!-- Title: /home/runner/work/occ/occ/include/occ/interaction/coulomb.h Pages: 1 -->
<svg width="461pt" height="341pt"
 viewBox="0.00 0.00 461.00 341.00" xmlns="http://www.w3.org/2000/svg" xmlns:xlink="http://www.w3.org/1999/xlink">
<g id="graph0" class="graph" transform="scale(1 1) rotate(0) translate(4 337)">
<title>/home/runner/work/occ/occ/include/occ/interaction/coulomb.h</title>
<!-- Node1 -->
<g id="node1" class="node">
<title>Node1</title>
<g id="a_node1"><a xlink:title=" ">
<polygon fill="#bfbfbf" stroke="black" points="18,-291.5 18,-332.5 167,-332.5 167,-291.5 18,-291.5"/>
<text text-anchor="start" x="26" y="-320.5" font-family="Helvetica,sans-Serif" font-size="10.00">/home/runner/work/occ</text>
<text text-anchor="start" x="26" y="-309.5" font-family="Helvetica,sans-Serif" font-size="10.00">/occ/include/occ/interaction</text>
<text text-anchor="middle" x="92.5" y="-298.5" font-family="Helvetica,sans-Serif" font-size="10.00">/coulomb.h</text>
</a>
</g>
</g>
<!-- Node2 -->
<g id="node2" class="node">
<title>Node2</title>
<g id="a_node2"><a xlink:href="dimer_8h.html" target="_top" xlink:title=" ">
<polygon fill="none" stroke="black" points="131,-235.5 131,-254.5 228,-254.5 228,-235.5 131,-235.5"/>
<text text-anchor="middle" x="179.5" y="-242.5" font-family="Helvetica,sans-Serif" font-size="10.00">occ/core/dimer.h</text>
</a>
</g>
</g>
<!-- Node1&#45;&gt;Node2 -->
<g id="edge1" class="edge">
<title>Node1&#45;&gt;Node2</title>
<path fill="none" stroke="midnightblue" d="M118.6,-291.5C131.81,-281.63 147.59,-269.84 159.77,-260.74"/>
<polygon fill="midnightblue" stroke="midnightblue" points="162,-263.44 167.92,-254.65 157.81,-257.83 162,-263.44"/>
</g>
<!-- Node6 -->
<g id="node6" class="node">
<title>Node6</title>
<g id="a_node6"><a xlink:href="linear__algebra_8h.html" target="_top" xlink:title=" ">
<polygon fill="none" stroke="black" points="72,-67.5 72,-86.5 211,-86.5 211,-67.5 72,-67.5"/>
<text text-anchor="middle" x="141.5" y="-74.5" font-family="Helvetica,sans-Serif" font-size="10.00">occ/core/linear_algebra.h</text>
</a>
</g>
</g>
<!-- Node1&#45;&gt;Node6 -->
<g id="edge15" class="edge">
<title>Node1&#45;&gt;Node6</title>
<path fill="none" stroke="midnightblue" d="M81.54,-291.35C63.09,-255.37 30.78,-177.58 62.5,-123 71.24,-107.97 87.08,-97.54 102.29,-90.54"/>
<polygon fill="midnightblue" stroke="midnightblue" points="103.76,-93.72 111.62,-86.61 101.04,-87.27 103.76,-93.72"/>
</g>
<!-- Node3 -->
<g id="node3" class="node">
<title>Node3</title>
<g id="a_node3"><a xlink:href="molecule_8h.html" target="_top" xlink:title=" ">
<polygon fill="none" stroke="black" points="122.5,-179.5 122.5,-198.5 236.5,-198.5 236.5,-179.5 122.5,-179.5"/>
<text text-anchor="middle" x="179.5" y="-186.5" font-family="Helvetica,sans-Serif" font-size="10.00">occ/core/molecule.h</text>
</a>
</g>
</g>
<!-- Node2&#45;&gt;Node3 -->
<g id="edge2" class="edge">
<title>Node2&#45;&gt;Node3</title>
<path fill="none" stroke="midnightblue" d="M179.5,-235.08C179.5,-228.01 179.5,-217.86 179.5,-208.99"/>
<polygon fill="midnightblue" stroke="midnightblue" points="183,-208.75 179.5,-198.75 176,-208.75 183,-208.75"/>
</g>
<!-- Node14 -->
<g id="node14" class="node">
<title>Node14</title>
<g id="a_node14"><a xlink:title=" ">
<polygon fill="none" stroke="#bfbfbf" points="254.5,-179.5 254.5,-198.5 310.5,-198.5 310.5,-179.5 254.5,-179.5"/>
<text text-anchor="middle" x="282.5" y="-186.5" font-family="Helvetica,sans-Serif" font-size="10.00">optional</text>
</a>
</g>
</g>
<!-- Node2&#45;&gt;Node14 -->
<g id="edge14" class="edge">
<title>Node2&#45;&gt;Node14</title>
<path fill="none" stroke="midnightblue" d="M196.05,-235.32C212.49,-226.7 237.93,-213.36 256.97,-203.39"/>
<polygon fill="midnightblue" stroke="midnightblue" points="258.76,-206.4 265.99,-198.65 255.51,-200.2 258.76,-206.4"/>
</g>
<!-- Node4 -->
<g id="node4" class="node">
<title>Node4</title>
<g id="a_node4"><a xlink:title=" ">
<polygon fill="none" stroke="#bfbfbf" points="71.5,-123.5 71.5,-142.5 113.5,-142.5 113.5,-123.5 71.5,-123.5"/>
<text text-anchor="middle" x="92.5" y="-130.5" font-family="Helvetica,sans-Serif" font-size="10.00">array</text>
</a>
</g>
</g>
<!-- Node3&#45;&gt;Node4 -->
<g id="edge3" class="edge">
<title>Node3&#45;&gt;Node4</title>
<path fill="none" stroke="midnightblue" d="M165.52,-179.32C151.95,-170.9 131.12,-157.97 115.18,-148.07"/>
<polygon fill="midnightblue" stroke="midnightblue" points="116.79,-144.95 106.44,-142.65 113.09,-150.9 116.79,-144.95"/>
</g>
<!-- Node5 -->
<g id="node5" class="node">
<title>Node5</title>
<g id="a_node5"><a xlink:href="atom_8h.html" target="_top" xlink:title=" ">
<polygon fill="none" stroke="black" points="170,-123.5 170,-142.5 265,-142.5 265,-123.5 170,-123.5"/>
<text text-anchor="middle" x="217.5" y="-130.5" font-family="Helvetica,sans-Serif" font-size="10.00">occ/core/atom.h</text>
</a>
</g>
</g>
<!-- Node3&#45;&gt;Node5 -->
<g id="edge4" class="edge">
<title>Node3&#45;&gt;Node5</title>
<path fill="none" stroke="midnightblue" d="M185.77,-179.08C191.14,-171.46 199.02,-160.26 205.58,-150.94"/>
<polygon fill="midnightblue" stroke="midnightblue" points="208.45,-152.94 211.34,-142.75 202.72,-148.91 208.45,-152.94"/>
</g>
<!-- Node3&#45;&gt;Node6 -->
<g id="edge12" class="edge">
<title>Node3&#45;&gt;Node6</title>
<path fill="none" stroke="midnightblue" d="M175.56,-179.49C171.49,-170.53 165.11,-155.94 160.5,-143 154.96,-127.42 149.77,-109.35 146.22,-96.22"/>
<polygon fill="midnightblue" stroke="midnightblue" points="149.6,-95.29 143.65,-86.51 142.83,-97.08 149.6,-95.29"/>
</g>
<!-- Node10 -->
<g id="node10" class="node">
<title>Node10</title>
<g id="a_node10"><a xlink:href="element_8h.html" target="_top" xlink:title=" ">
<polygon fill="none" stroke="black" points="283.5,-123.5 283.5,-142.5 393.5,-142.5 393.5,-123.5 283.5,-123.5"/>
<text text-anchor="middle" x="338.5" y="-130.5" font-family="Helvetica,sans-Serif" font-size="10.00">occ/core/element.h</text>
</a>
</g>
</g>
<!-- Node3&#45;&gt;Node10 -->
<g id="edge9" class="edge">
<title>Node3&#45;&gt;Node10</title>
<path fill="none" stroke="midnightblue" d="M204.69,-179.44C231.44,-170.36 273.9,-155.94 303.81,-145.78"/>
<polygon fill="midnightblue" stroke="midnightblue" points="305.08,-149.05 313.42,-142.52 302.83,-142.42 305.08,-149.05"/>
</g>
<!-- Node13 -->
<g id="node13" class="node">
<title>Node13</title>
<g id="a_node13"><a xlink:title=" ">
<polygon fill="none" stroke="#bfbfbf" points="412,-123.5 412,-142.5 453,-142.5 453,-123.5 412,-123.5"/>
<text text-anchor="middle" x="432.5" y="-130.5" font-family="Helvetica,sans-Serif" font-size="10.00">tuple</text>
</a>
</g>
</g>
<!-- Node3&#45;&gt;Node13 -->
<g id="edge13" class="edge">
<title>Node3&#45;&gt;Node13</title>
<path fill="none" stroke="midnightblue" d="M228.51,-179.46C271.68,-171.63 336.41,-159.16 401.83,-142.97"/>
<polygon fill="midnightblue" stroke="midnightblue" points="403.06,-146.27 411.91,-140.45 401.36,-139.48 403.06,-146.27"/>
</g>
<!-- Node5&#45;&gt;Node6 -->
<g id="edge5" class="edge">
<title>Node5&#45;&gt;Node6</title>
<path fill="none" stroke="midnightblue" d="M205.29,-123.32C193.72,-115.11 176.12,-102.6 162.34,-92.81"/>
<polygon fill="midnightblue" stroke="midnightblue" points="164.11,-89.77 153.93,-86.83 160.06,-95.48 164.11,-89.77"/>
</g>
<!-- Node7 -->
<g id="node7" class="node">
<title>Node7</title>
<g id="a_node7"><a xlink:title=" ">
<polygon fill="none" stroke="#bfbfbf" points="0,-6 0,-25 77,-25 77,-6 0,-6"/>
<text text-anchor="middle" x="38.5" y="-13" font-family="Helvetica,sans-Serif" font-size="10.00">Eigen/Dense</text>
</a>
</g>
</g>
<!-- Node6&#45;&gt;Node7 -->
<g id="edge6" class="edge">
<title>Node6&#45;&gt;Node7</title>
<path fill="none" stroke="midnightblue" d="M126.74,-67.48C109.84,-57.71 81.92,-41.58 62.01,-30.08"/>
<polygon fill="midnightblue" stroke="midnightblue" points="63.64,-26.98 53.23,-25.01 60.14,-33.04 63.64,-26.98"/>
</g>
<!-- Node8 -->
<g id="node8" class="node">
<title>Node8</title>
<g id="a_node8"><a xlink:title=" ">
<polygon fill="none" stroke="#bfbfbf" points="95,-6 95,-25 188,-25 188,-6 95,-6"/>
<text text-anchor="middle" x="141.5" y="-13" font-family="Helvetica,sans-Serif" font-size="10.00">Eigen/StdVector</text>
</a>
</g>
</g>
<!-- Node6&#45;&gt;Node8 -->
<g id="edge7" class="edge">
<title>Node6&#45;&gt;Node8</title>
<path fill="none" stroke="midnightblue" d="M141.5,-67.48C141.5,-59.08 141.5,-45.98 141.5,-35.16"/>
<polygon fill="midnightblue" stroke="midnightblue" points="145,-35.01 141.5,-25.01 138,-35.01 145,-35.01"/>
</g>
<!-- Node9 -->
<g id="node9" class="node">
<title>Node9</title>
<g id="a_node9"><a xlink:title=" ">
<polygon fill="none" stroke="#bfbfbf" points="206,-0.5 206,-30.5 313,-30.5 313,-0.5 206,-0.5"/>
<text text-anchor="start" x="214" y="-18.5" font-family="Helvetica,sans-Serif" font-size="10.00">occ/3rdparty/eigen</text>
<text text-anchor="middle" x="259.5" y="-7.5" font-family="Helvetica,sans-Serif" font-size="10.00">&#45;fmt/fmt.h</text>
</a>
</g>
</g>
<!-- Node6&#45;&gt;Node9 -->
<g id="edge8" class="edge">
<title>Node6&#45;&gt;Node9</title>
<path fill="none" stroke="midnightblue" d="M158.41,-67.48C175.06,-59.08 201.05,-45.97 222.51,-35.15"/>
<polygon fill="midnightblue" stroke="midnightblue" points="224.34,-38.15 231.69,-30.52 221.18,-31.9 224.34,-38.15"/>
</g>
<!-- Node11 -->
<g id="node11" class="node">
<title>Node11</title>
<g id="a_node11"><a xlink:title=" ">
<polygon fill="none" stroke="#bfbfbf" points="284.5,-67.5 284.5,-86.5 328.5,-86.5 328.5,-67.5 284.5,-67.5"/>
<text text-anchor="middle" x="306.5" y="-74.5" font-family="Helvetica,sans-Serif" font-size="10.00">string</text>
</a>
</g>
</g>
<!-- Node10&#45;&gt;Node11 -->
<g id="edge10" class="edge">
<title>Node10&#45;&gt;Node11</title>
<path fill="none" stroke="midnightblue" d="M333.22,-123.08C328.79,-115.61 322.34,-104.72 316.88,-95.52"/>
<polygon fill="midnightblue" stroke="midnightblue" points="319.79,-93.57 311.69,-86.75 313.77,-97.14 319.79,-93.57"/>
</g>
<!-- Node12 -->
<g id="node12" class="node">
<title>Node12</title>
<g id="a_node12"><a xlink:title=" ">
<polygon fill="none" stroke="#bfbfbf" points="347,-67.5 347,-86.5 394,-86.5 394,-67.5 347,-67.5"/>
<text text-anchor="middle" x="370.5" y="-74.5" font-family="Helvetica,sans-Serif" font-size="10.00">vector</text>
</a>
</g>
</g>
<!-- Node10&#45;&gt;Node12 -->
<g id="edge11" class="edge">
<title>Node10&#45;&gt;Node12</title>
<path fill="none" stroke="midnightblue" d="M343.78,-123.08C348.21,-115.61 354.66,-104.72 360.12,-95.52"/>
<polygon fill="midnightblue" stroke="midnightblue" points="363.23,-97.14 365.31,-86.75 357.21,-93.57 363.23,-97.14"/>
</g>
</g>
</svg>
