<?xml version="1.0" encoding="UTF-8" standalone="no"?>
<!DOCTYPE svg PUBLIC "-//W3C//DTD SVG 1.1//EN"
 "http://www.w3.org/Graphics/SVG/1.1/DTD/svg11.dtd">
<!-- Generated by graphviz version 2.43.0 (0)
 -->
<!-- Title: /home/runner/work/occ/occ/include/occ/crystal/surface.h Pages: 1 -->
<svg width="2086pt" height="408pt"
 viewBox="0.00 0.00 2085.50 408.00" xmlns="http://www.w3.org/2000/svg" xmlns:xlink="http://www.w3.org/1999/xlink">
<g id="graph0" class="graph" transform="scale(1 1) rotate(0) translate(4 404)">
<title>/home/runner/work/occ/occ/include/occ/crystal/surface.h</title>
<!-- Node1 -->
<g id="node1" class="node">
<title>Node1</title>
<g id="a_node1"><a xlink:title=" ">
<polygon fill="#bfbfbf" stroke="black" points="1489,-358.5 1489,-399.5 1619,-399.5 1619,-358.5 1489,-358.5"/>
<text text-anchor="start" x="1497" y="-387.5" font-family="Helvetica,sans-Serif" font-size="10.00">/home/runner/work/occ</text>
<text text-anchor="start" x="1497" y="-376.5" font-family="Helvetica,sans-Serif" font-size="10.00">/occ/include/occ/crystal</text>
<text text-anchor="middle" x="1554" y="-365.5" font-family="Helvetica,sans-Serif" font-size="10.00">/surface.h</text>
</a>
</g>
</g>
<!-- Node2 -->
<g id="node2" class="node">
<title>Node2</title>
<g id="a_node2"><a xlink:title=" ">
<polygon fill="none" stroke="#bfbfbf" points="1351,-123.5 1351,-142.5 1393,-142.5 1393,-123.5 1351,-123.5"/>
<text text-anchor="middle" x="1372" y="-130.5" font-family="Helvetica,sans-Serif" font-size="10.00">array</text>
</a>
</g>
</g>
<!-- Node1&#45;&gt;Node2 -->
<g id="edge1" class="edge">
<title>Node1&#45;&gt;Node2</title>
<path fill="none" stroke="midnightblue" d="M1539.41,-358.44C1504.61,-311.78 1417.16,-194.54 1384.53,-150.8"/>
<polygon fill="midnightblue" stroke="midnightblue" points="1387.23,-148.56 1378.44,-142.64 1381.62,-152.74 1387.23,-148.56"/>
</g>
<!-- Node3 -->
<g id="node3" class="node">
<title>Node3</title>
<g id="a_node3"><a xlink:href="linear__algebra_8h.html" target="_top" xlink:title=" ">
<polygon fill="none" stroke="black" points="1351.5,-67.5 1351.5,-86.5 1490.5,-86.5 1490.5,-67.5 1351.5,-67.5"/>
<text text-anchor="middle" x="1421" y="-74.5" font-family="Helvetica,sans-Serif" font-size="10.00">occ/core/linear_algebra.h</text>
</a>
</g>
</g>
<!-- Node1&#45;&gt;Node3 -->
<g id="edge2" class="edge">
<title>Node1&#45;&gt;Node3</title>
<path fill="none" stroke="midnightblue" d="M1569.88,-358.36C1586.74,-335.46 1611,-295.78 1611,-257 1611,-257 1611,-257 1611,-193.5 1611,-132.23 1537.96,-102.54 1482.46,-88.82"/>
<polygon fill="midnightblue" stroke="midnightblue" points="1483.2,-85.4 1472.67,-86.52 1481.6,-92.21 1483.2,-85.4"/>
</g>
<!-- Node7 -->
<g id="node7" class="node">
<title>Node7</title>
<g id="a_node7"><a xlink:href="crystal_8h.html" target="_top" xlink:title=" ">
<polygon fill="none" stroke="black" points="1128,-302.5 1128,-321.5 1242,-321.5 1242,-302.5 1128,-302.5"/>
<text text-anchor="middle" x="1185" y="-309.5" font-family="Helvetica,sans-Serif" font-size="10.00">occ/crystal/crystal.h</text>
</a>
</g>
</g>
<!-- Node1&#45;&gt;Node7 -->
<g id="edge6" class="edge">
<title>Node1&#45;&gt;Node7</title>
<path fill="none" stroke="midnightblue" d="M1488.88,-366.53C1419.31,-354.27 1310.06,-335.03 1243.25,-323.26"/>
<polygon fill="midnightblue" stroke="midnightblue" points="1243.76,-319.8 1233.31,-321.51 1242.55,-326.69 1243.76,-319.8"/>
</g>
<!-- Node19 -->
<g id="node19" class="node">
<title>Node19</title>
<g id="a_node19"><a xlink:title=" ">
<polygon fill="none" stroke="#bfbfbf" points="433.5,-67.5 433.5,-86.5 480.5,-86.5 480.5,-67.5 433.5,-67.5"/>
<text text-anchor="middle" x="457" y="-74.5" font-family="Helvetica,sans-Serif" font-size="10.00">vector</text>
</a>
</g>
</g>
<!-- Node1&#45;&gt;Node19 -->
<g id="edge62" class="edge">
<title>Node1&#45;&gt;Node19</title>
<path fill="none" stroke="midnightblue" d="M1488.71,-376.39C1193.77,-368.7 0,-332.9 0,-257 0,-257 0,-257 0,-193.5 0,-155.09 16.9,-142.49 50,-123 112.94,-85.95 337.02,-79.39 423.04,-78.24"/>
<polygon fill="midnightblue" stroke="midnightblue" points="423.33,-81.73 433.29,-78.12 423.25,-74.73 423.33,-81.73"/>
</g>
<!-- Node22 -->
<g id="node22" class="node">
<title>Node22</title>
<g id="a_node22"><a xlink:href="hkl_8h.html" target="_top" xlink:title=" ">
<polygon fill="none" stroke="black" points="1449,-123.5 1449,-142.5 1545,-142.5 1545,-123.5 1449,-123.5"/>
<text text-anchor="middle" x="1497" y="-130.5" font-family="Helvetica,sans-Serif" font-size="10.00">occ/crystal/hkl.h</text>
</a>
</g>
</g>
<!-- Node1&#45;&gt;Node22 -->
<g id="edge60" class="edge">
<title>Node1&#45;&gt;Node22</title>
<path fill="none" stroke="midnightblue" d="M1558.47,-358.45C1565.92,-321.36 1577.41,-239.15 1549,-179 1543.1,-166.52 1531.93,-156.13 1521.44,-148.49"/>
<polygon fill="midnightblue" stroke="midnightblue" points="1523.17,-145.44 1512.93,-142.74 1519.25,-151.24 1523.17,-145.44"/>
</g>
<!-- Node27 -->
<g id="node27" class="node">
<title>Node27</title>
<g id="a_node27"><a xlink:href="unitcell_8h.html" target="_top" xlink:title=" ">
<polygon fill="none" stroke="black" points="1639.5,-185 1639.5,-204 1756.5,-204 1756.5,-185 1639.5,-185"/>
<text text-anchor="middle" x="1698" y="-192" font-family="Helvetica,sans-Serif" font-size="10.00">occ/crystal/unitcell.h</text>
</a>
</g>
</g>
<!-- Node1&#45;&gt;Node27 -->
<g id="edge61" class="edge">
<title>Node1&#45;&gt;Node27</title>
<path fill="none" stroke="midnightblue" d="M1583.79,-358.43C1597.39,-348.56 1613.09,-335.77 1625,-322 1654.74,-287.62 1678.63,-239.34 1690.28,-213.5"/>
<polygon fill="midnightblue" stroke="midnightblue" points="1693.55,-214.76 1694.38,-204.2 1687.14,-211.94 1693.55,-214.76"/>
</g>
<!-- Node4 -->
<g id="node4" class="node">
<title>Node4</title>
<g id="a_node4"><a xlink:title=" ">
<polygon fill="none" stroke="#bfbfbf" points="1279.5,-6 1279.5,-25 1356.5,-25 1356.5,-6 1279.5,-6"/>
<text text-anchor="middle" x="1318" y="-13" font-family="Helvetica,sans-Serif" font-size="10.00">Eigen/Dense</text>
</a>
</g>
</g>
<!-- Node3&#45;&gt;Node4 -->
<g id="edge3" class="edge">
<title>Node3&#45;&gt;Node4</title>
<path fill="none" stroke="midnightblue" d="M1406.24,-67.48C1389.34,-57.71 1361.42,-41.58 1341.51,-30.08"/>
<polygon fill="midnightblue" stroke="midnightblue" points="1343.14,-26.98 1332.73,-25.01 1339.64,-33.04 1343.14,-26.98"/>
</g>
<!-- Node5 -->
<g id="node5" class="node">
<title>Node5</title>
<g id="a_node5"><a xlink:title=" ">
<polygon fill="none" stroke="#bfbfbf" points="1374.5,-6 1374.5,-25 1467.5,-25 1467.5,-6 1374.5,-6"/>
<text text-anchor="middle" x="1421" y="-13" font-family="Helvetica,sans-Serif" font-size="10.00">Eigen/StdVector</text>
</a>
</g>
</g>
<!-- Node3&#45;&gt;Node5 -->
<g id="edge4" class="edge">
<title>Node3&#45;&gt;Node5</title>
<path fill="none" stroke="midnightblue" d="M1421,-67.48C1421,-59.08 1421,-45.98 1421,-35.16"/>
<polygon fill="midnightblue" stroke="midnightblue" points="1424.5,-35.01 1421,-25.01 1417.5,-35.01 1424.5,-35.01"/>
</g>
<!-- Node6 -->
<g id="node6" class="node">
<title>Node6</title>
<g id="a_node6"><a xlink:title=" ">
<polygon fill="none" stroke="#bfbfbf" points="1485.5,-0.5 1485.5,-30.5 1592.5,-30.5 1592.5,-0.5 1485.5,-0.5"/>
<text text-anchor="start" x="1493.5" y="-18.5" font-family="Helvetica,sans-Serif" font-size="10.00">occ/3rdparty/eigen</text>
<text text-anchor="middle" x="1539" y="-7.5" font-family="Helvetica,sans-Serif" font-size="10.00">&#45;fmt/fmt.h</text>
</a>
</g>
</g>
<!-- Node3&#45;&gt;Node6 -->
<g id="edge5" class="edge">
<title>Node3&#45;&gt;Node6</title>
<path fill="none" stroke="midnightblue" d="M1437.91,-67.48C1454.56,-59.08 1480.55,-45.97 1502.01,-35.15"/>
<polygon fill="midnightblue" stroke="midnightblue" points="1503.84,-38.15 1511.19,-30.52 1500.68,-31.9 1503.84,-38.15"/>
</g>
<!-- Node7&#45;&gt;Node3 -->
<g id="edge24" class="edge">
<title>Node7&#45;&gt;Node3</title>
<path fill="none" stroke="midnightblue" d="M1202.66,-302.34C1244.03,-281.15 1347.8,-222.53 1402,-143 1411.41,-129.19 1416.23,-110.67 1418.66,-96.93"/>
<polygon fill="midnightblue" stroke="midnightblue" points="1422.16,-97.13 1420.18,-86.72 1415.24,-96.1 1422.16,-97.13"/>
</g>
<!-- Node8 -->
<g id="node8" class="node">
<title>Node8</title>
<g id="a_node8"><a xlink:href="bondgraph_8h.html" target="_top" xlink:title=" ">
<polygon fill="none" stroke="black" points="336.5,-246.5 336.5,-265.5 457.5,-265.5 457.5,-246.5 336.5,-246.5"/>
<text text-anchor="middle" x="397" y="-253.5" font-family="Helvetica,sans-Serif" font-size="10.00">occ/core/bondgraph.h</text>
</a>
</g>
</g>
<!-- Node7&#45;&gt;Node8 -->
<g id="edge7" class="edge">
<title>Node7&#45;&gt;Node8</title>
<path fill="none" stroke="midnightblue" d="M1127.69,-307.07C986.53,-297.4 622.31,-272.44 467.89,-261.86"/>
<polygon fill="midnightblue" stroke="midnightblue" points="467.8,-258.34 457.58,-261.15 467.32,-265.33 467.8,-258.34"/>
</g>
<!-- Node14 -->
<g id="node14" class="node">
<title>Node14</title>
<g id="a_node14"><a xlink:href="dimer_8h.html" target="_top" xlink:title=" ">
<polygon fill="none" stroke="black" points="1040.5,-246.5 1040.5,-265.5 1137.5,-265.5 1137.5,-246.5 1040.5,-246.5"/>
<text text-anchor="middle" x="1089" y="-253.5" font-family="Helvetica,sans-Serif" font-size="10.00">occ/core/dimer.h</text>
</a>
</g>
</g>
<!-- Node7&#45;&gt;Node14 -->
<g id="edge13" class="edge">
<title>Node7&#45;&gt;Node14</title>
<path fill="none" stroke="midnightblue" d="M1169.58,-302.32C1154.46,-293.82 1131.18,-280.73 1113.53,-270.8"/>
<polygon fill="midnightblue" stroke="midnightblue" points="1114.82,-267.51 1104.39,-265.65 1111.39,-273.61 1114.82,-267.51"/>
</g>
<!-- Node15 -->
<g id="node15" class="node">
<title>Node15</title>
<g id="a_node15"><a xlink:href="molecule_8h.html" target="_top" xlink:title=" ">
<polygon fill="none" stroke="black" points="1147,-185 1147,-204 1261,-204 1261,-185 1147,-185"/>
<text text-anchor="middle" x="1204" y="-192" font-family="Helvetica,sans-Serif" font-size="10.00">occ/core/molecule.h</text>
</a>
</g>
</g>
<!-- Node7&#45;&gt;Node15 -->
<g id="edge25" class="edge">
<title>Node7&#45;&gt;Node15</title>
<path fill="none" stroke="midnightblue" d="M1186.43,-302.32C1189.48,-283.76 1196.71,-239.84 1200.88,-214.47"/>
<polygon fill="midnightblue" stroke="midnightblue" points="1204.39,-214.72 1202.56,-204.28 1197.48,-213.58 1204.39,-214.72"/>
</g>
<!-- Node7&#45;&gt;Node19 -->
<g id="edge59" class="edge">
<title>Node7&#45;&gt;Node19</title>
<path fill="none" stroke="midnightblue" d="M1127.78,-310.78C961.32,-309.69 479.5,-303.31 327,-266 198.91,-234.66 128.34,-253.9 57,-143 16.51,-80.07 319.5,-76.84 423.1,-77.55"/>
<polygon fill="midnightblue" stroke="midnightblue" points="423.29,-81.05 433.32,-77.64 423.35,-74.05 423.29,-81.05"/>
</g>
<!-- Node21 -->
<g id="node21" class="node">
<title>Node21</title>
<g id="a_node21"><a xlink:href="asymmetric__unit_8h.html" target="_top" xlink:title=" ">
<polygon fill="none" stroke="black" points="576.5,-179.5 576.5,-209.5 707.5,-209.5 707.5,-179.5 576.5,-179.5"/>
<text text-anchor="start" x="584.5" y="-197.5" font-family="Helvetica,sans-Serif" font-size="10.00">occ/crystal/asymmetric</text>
<text text-anchor="middle" x="642" y="-186.5" font-family="Helvetica,sans-Serif" font-size="10.00">_unit.h</text>
</a>
</g>
</g>
<!-- Node7&#45;&gt;Node21 -->
<g id="edge26" class="edge">
<title>Node7&#45;&gt;Node21</title>
<path fill="none" stroke="midnightblue" d="M1144.63,-302.41C1054.24,-283.19 834.36,-236.42 717.66,-211.59"/>
<polygon fill="midnightblue" stroke="midnightblue" points="718.23,-208.14 707.72,-209.48 716.77,-214.98 718.23,-208.14"/>
</g>
<!-- Node7&#45;&gt;Node22 -->
<g id="edge31" class="edge">
<title>Node7&#45;&gt;Node22</title>
<path fill="none" stroke="midnightblue" d="M1242.04,-306.78C1306.25,-301 1405.49,-288.66 1435,-266 1471.87,-237.68 1487.75,-182.08 1493.78,-152.9"/>
<polygon fill="midnightblue" stroke="midnightblue" points="1497.27,-153.27 1495.68,-142.8 1490.39,-151.98 1497.27,-153.27"/>
</g>
<!-- Node23 -->
<g id="node23" class="node">
<title>Node23</title>
<g id="a_node23"><a xlink:href="spacegroup_8h.html" target="_top" xlink:title=" ">
<polygon fill="none" stroke="black" points="941.5,-185 941.5,-204 1078.5,-204 1078.5,-185 941.5,-185"/>
<text text-anchor="middle" x="1010" y="-192" font-family="Helvetica,sans-Serif" font-size="10.00">occ/crystal/spacegroup.h</text>
</a>
</g>
</g>
<!-- Node7&#45;&gt;Node23 -->
<g id="edge33" class="edge">
<title>Node7&#45;&gt;Node23</title>
<path fill="none" stroke="midnightblue" d="M1181.9,-302.14C1176.63,-288.28 1164.63,-261.47 1146,-246 1122.72,-226.67 1091.33,-214.36 1064.58,-206.74"/>
<polygon fill="midnightblue" stroke="midnightblue" points="1065.14,-203.27 1054.58,-204.04 1063.32,-210.02 1065.14,-203.27"/>
</g>
<!-- Node7&#45;&gt;Node27 -->
<g id="edge43" class="edge">
<title>Node7&#45;&gt;Node27</title>
<path fill="none" stroke="midnightblue" d="M1242.04,-304.63C1300.49,-297.5 1393.78,-284.49 1473,-266 1542.53,-249.77 1621.76,-222.93 1665.19,-207.47"/>
<polygon fill="midnightblue" stroke="midnightblue" points="1666.44,-210.74 1674.67,-204.08 1664.08,-204.15 1666.44,-210.74"/>
</g>
<!-- Node9 -->
<g id="node9" class="node">
<title>Node9</title>
<g id="a_node9"><a xlink:href="graph_8h.html" target="_top" xlink:title=" ">
<polygon fill="none" stroke="black" points="215.5,-185 215.5,-204 312.5,-204 312.5,-185 215.5,-185"/>
<text text-anchor="middle" x="264" y="-192" font-family="Helvetica,sans-Serif" font-size="10.00">occ/core/graph.h</text>
</a>
</g>
</g>
<!-- Node8&#45;&gt;Node9 -->
<g id="edge8" class="edge">
<title>Node8&#45;&gt;Node9</title>
<path fill="none" stroke="midnightblue" d="M377.94,-246.48C355.53,-236.45 318.09,-219.7 292.29,-208.15"/>
<polygon fill="midnightblue" stroke="midnightblue" points="293.58,-204.9 283.02,-204.01 290.72,-211.29 293.58,-204.9"/>
</g>
<!-- Node10 -->
<g id="node10" class="node">
<title>Node10</title>
<g id="a_node10"><a xlink:title=" ">
<polygon fill="none" stroke="#bfbfbf" points="192.5,-123.5 192.5,-142.5 335.5,-142.5 335.5,-123.5 192.5,-123.5"/>
<text text-anchor="middle" x="264" y="-130.5" font-family="Helvetica,sans-Serif" font-size="10.00">ankerl/unordered_dense.h</text>
</a>
</g>
</g>
<!-- Node9&#45;&gt;Node10 -->
<g id="edge9" class="edge">
<title>Node9&#45;&gt;Node10</title>
<path fill="none" stroke="midnightblue" d="M264,-184.98C264,-176.58 264,-163.48 264,-152.66"/>
<polygon fill="midnightblue" stroke="midnightblue" points="267.5,-152.51 264,-142.51 260.5,-152.51 267.5,-152.51"/>
</g>
<!-- Node11 -->
<g id="node11" class="node">
<title>Node11</title>
<g id="a_node11"><a xlink:title=" ">
<polygon fill="none" stroke="#bfbfbf" points="354,-123.5 354,-142.5 410,-142.5 410,-123.5 354,-123.5"/>
<text text-anchor="middle" x="382" y="-130.5" font-family="Helvetica,sans-Serif" font-size="10.00">optional</text>
</a>
</g>
</g>
<!-- Node9&#45;&gt;Node11 -->
<g id="edge10" class="edge">
<title>Node9&#45;&gt;Node11</title>
<path fill="none" stroke="midnightblue" d="M280.91,-184.98C300.53,-175.08 333.13,-158.64 355.99,-147.12"/>
<polygon fill="midnightblue" stroke="midnightblue" points="357.77,-150.14 365.12,-142.51 354.62,-143.89 357.77,-150.14"/>
</g>
<!-- Node12 -->
<g id="node12" class="node">
<title>Node12</title>
<g id="a_node12"><a xlink:title=" ">
<polygon fill="none" stroke="#bfbfbf" points="127.5,-123.5 127.5,-142.5 174.5,-142.5 174.5,-123.5 127.5,-123.5"/>
<text text-anchor="middle" x="151" y="-130.5" font-family="Helvetica,sans-Serif" font-size="10.00">queue</text>
</a>
</g>
</g>
<!-- Node9&#45;&gt;Node12 -->
<g id="edge11" class="edge">
<title>Node9&#45;&gt;Node12</title>
<path fill="none" stroke="midnightblue" d="M247.81,-184.98C229.1,-175.12 198.08,-158.79 176.2,-147.27"/>
<polygon fill="midnightblue" stroke="midnightblue" points="177.64,-144.07 167.16,-142.51 174.38,-150.27 177.64,-144.07"/>
</g>
<!-- Node13 -->
<g id="node13" class="node">
<title>Node13</title>
<g id="a_node13"><a xlink:title=" ">
<polygon fill="none" stroke="#bfbfbf" points="66.5,-123.5 66.5,-142.5 109.5,-142.5 109.5,-123.5 66.5,-123.5"/>
<text text-anchor="middle" x="88" y="-130.5" font-family="Helvetica,sans-Serif" font-size="10.00">stack</text>
</a>
</g>
</g>
<!-- Node9&#45;&gt;Node13 -->
<g id="edge12" class="edge">
<title>Node9&#45;&gt;Node13</title>
<path fill="none" stroke="midnightblue" d="M238.78,-184.98C207.34,-174.35 153.59,-156.17 119.48,-144.64"/>
<polygon fill="midnightblue" stroke="midnightblue" points="120.17,-141.18 109.57,-141.29 117.92,-147.81 120.17,-141.18"/>
</g>
<!-- Node14&#45;&gt;Node11 -->
<g id="edge23" class="edge">
<title>Node14&#45;&gt;Node11</title>
<path fill="none" stroke="midnightblue" d="M1040.35,-255.68C947.12,-255.93 737.39,-251.32 567,-210 507.47,-195.56 442.13,-164.93 407.26,-147.28"/>
<polygon fill="midnightblue" stroke="midnightblue" points="408.76,-144.12 398.26,-142.67 405.57,-150.35 408.76,-144.12"/>
</g>
<!-- Node14&#45;&gt;Node15 -->
<g id="edge14" class="edge">
<title>Node14&#45;&gt;Node15</title>
<path fill="none" stroke="midnightblue" d="M1105.48,-246.48C1124.61,-236.58 1156.37,-220.14 1178.65,-208.62"/>
<polygon fill="midnightblue" stroke="midnightblue" points="1180.28,-211.71 1187.55,-204.01 1177.06,-205.5 1180.28,-211.71"/>
</g>
<!-- Node15&#45;&gt;Node2 -->
<g id="edge15" class="edge">
<title>Node15&#45;&gt;Node2</title>
<path fill="none" stroke="midnightblue" d="M1228.07,-184.98C1257.92,-174.4 1308.83,-156.37 1341.41,-144.83"/>
<polygon fill="midnightblue" stroke="midnightblue" points="1342.64,-148.11 1350.89,-141.47 1340.3,-141.51 1342.64,-148.11"/>
</g>
<!-- Node15&#45;&gt;Node3 -->
<g id="edge21" class="edge">
<title>Node15&#45;&gt;Node3</title>
<path fill="none" stroke="midnightblue" d="M1221.26,-184.91C1241.08,-174.99 1274.53,-158.1 1303,-143 1335.69,-125.66 1373.04,-104.93 1396.81,-91.62"/>
<polygon fill="midnightblue" stroke="midnightblue" points="1398.8,-94.52 1405.81,-86.57 1395.38,-88.41 1398.8,-94.52"/>
</g>
<!-- Node16 -->
<g id="node16" class="node">
<title>Node16</title>
<g id="a_node16"><a xlink:href="atom_8h.html" target="_top" xlink:title=" ">
<polygon fill="none" stroke="black" points="1199.5,-123.5 1199.5,-142.5 1294.5,-142.5 1294.5,-123.5 1199.5,-123.5"/>
<text text-anchor="middle" x="1247" y="-130.5" font-family="Helvetica,sans-Serif" font-size="10.00">occ/core/atom.h</text>
</a>
</g>
</g>
<!-- Node15&#45;&gt;Node16 -->
<g id="edge16" class="edge">
<title>Node15&#45;&gt;Node16</title>
<path fill="none" stroke="midnightblue" d="M1210.16,-184.98C1216.61,-176.05 1226.9,-161.81 1234.97,-150.64"/>
<polygon fill="midnightblue" stroke="midnightblue" points="1237.83,-152.66 1240.85,-142.51 1232.16,-148.56 1237.83,-152.66"/>
</g>
<!-- Node17 -->
<g id="node17" class="node">
<title>Node17</title>
<g id="a_node17"><a xlink:href="element_8h.html" target="_top" xlink:title=" ">
<polygon fill="none" stroke="black" points="504,-123.5 504,-142.5 614,-142.5 614,-123.5 504,-123.5"/>
<text text-anchor="middle" x="559" y="-130.5" font-family="Helvetica,sans-Serif" font-size="10.00">occ/core/element.h</text>
</a>
</g>
</g>
<!-- Node15&#45;&gt;Node17 -->
<g id="edge18" class="edge">
<title>Node15&#45;&gt;Node17</title>
<path fill="none" stroke="midnightblue" d="M1146.92,-185.98C1127.88,-183.59 1106.54,-181.04 1087,-179 920.64,-161.61 724.25,-146.22 624.41,-138.77"/>
<polygon fill="midnightblue" stroke="midnightblue" points="624.41,-135.26 614.18,-138 623.89,-142.24 624.41,-135.26"/>
</g>
<!-- Node20 -->
<g id="node20" class="node">
<title>Node20</title>
<g id="a_node20"><a xlink:title=" ">
<polygon fill="none" stroke="#bfbfbf" points="1140.5,-123.5 1140.5,-142.5 1181.5,-142.5 1181.5,-123.5 1140.5,-123.5"/>
<text text-anchor="middle" x="1161" y="-130.5" font-family="Helvetica,sans-Serif" font-size="10.00">tuple</text>
</a>
</g>
</g>
<!-- Node15&#45;&gt;Node20 -->
<g id="edge22" class="edge">
<title>Node15&#45;&gt;Node20</title>
<path fill="none" stroke="midnightblue" d="M1197.84,-184.98C1191.39,-176.05 1181.1,-161.81 1173.03,-150.64"/>
<polygon fill="midnightblue" stroke="midnightblue" points="1175.84,-148.56 1167.15,-142.51 1170.17,-152.66 1175.84,-148.56"/>
</g>
<!-- Node16&#45;&gt;Node3 -->
<g id="edge17" class="edge">
<title>Node16&#45;&gt;Node3</title>
<path fill="none" stroke="midnightblue" d="M1274.57,-123.44C1304.1,-114.28 1351.12,-99.69 1383.88,-89.52"/>
<polygon fill="midnightblue" stroke="midnightblue" points="1385.04,-92.82 1393.56,-86.52 1382.97,-86.14 1385.04,-92.82"/>
</g>
<!-- Node18 -->
<g id="node18" class="node">
<title>Node18</title>
<g id="a_node18"><a xlink:title=" ">
<polygon fill="none" stroke="#bfbfbf" points="735,-67.5 735,-86.5 779,-86.5 779,-67.5 735,-67.5"/>
<text text-anchor="middle" x="757" y="-74.5" font-family="Helvetica,sans-Serif" font-size="10.00">string</text>
</a>
</g>
</g>
<!-- Node17&#45;&gt;Node18 -->
<g id="edge19" class="edge">
<title>Node17&#45;&gt;Node18</title>
<path fill="none" stroke="midnightblue" d="M590.37,-123.44C627.25,-113.39 688.11,-96.79 725.18,-86.68"/>
<polygon fill="midnightblue" stroke="midnightblue" points="726.24,-90.02 734.97,-84.01 724.4,-83.26 726.24,-90.02"/>
</g>
<!-- Node17&#45;&gt;Node19 -->
<g id="edge20" class="edge">
<title>Node17&#45;&gt;Node19</title>
<path fill="none" stroke="midnightblue" d="M542.61,-123.32C526.33,-114.7 501.13,-101.36 482.28,-91.39"/>
<polygon fill="midnightblue" stroke="midnightblue" points="483.82,-88.24 473.35,-86.65 480.55,-94.43 483.82,-88.24"/>
</g>
<!-- Node21&#45;&gt;Node3 -->
<g id="edge28" class="edge">
<title>Node21&#45;&gt;Node3</title>
<path fill="none" stroke="midnightblue" d="M655.56,-179.35C672.72,-162.5 704.03,-135.11 737,-123 845.79,-83.03 1184.99,-77.83 1341.01,-77.63"/>
<polygon fill="midnightblue" stroke="midnightblue" points="1341.47,-81.13 1351.47,-77.63 1341.47,-74.13 1341.47,-81.13"/>
</g>
<!-- Node21&#45;&gt;Node17 -->
<g id="edge27" class="edge">
<title>Node21&#45;&gt;Node17</title>
<path fill="none" stroke="midnightblue" d="M622.33,-179.4C609.4,-170.13 592.51,-158.03 579.43,-148.65"/>
<polygon fill="midnightblue" stroke="midnightblue" points="581.24,-145.64 571.08,-142.66 577.17,-151.33 581.24,-145.64"/>
</g>
<!-- Node21&#45;&gt;Node18 -->
<g id="edge29" class="edge">
<title>Node21&#45;&gt;Node18</title>
<path fill="none" stroke="midnightblue" d="M643.57,-179.47C645.96,-163.99 651.85,-139.14 666,-123 681.53,-105.28 705.66,-93.8 725.17,-86.87"/>
<polygon fill="midnightblue" stroke="midnightblue" points="726.49,-90.12 734.88,-83.65 724.29,-83.47 726.49,-90.12"/>
</g>
<!-- Node21&#45;&gt;Node19 -->
<g id="edge30" class="edge">
<title>Node21&#45;&gt;Node19</title>
<path fill="none" stroke="midnightblue" d="M576.35,-183.16C531.16,-174.6 476.72,-160.94 462,-143 451.58,-130.3 451.37,-111.09 453.14,-96.85"/>
<polygon fill="midnightblue" stroke="midnightblue" points="456.64,-97.15 454.83,-86.71 449.73,-96 456.64,-97.15"/>
</g>
<!-- Node22&#45;&gt;Node3 -->
<g id="edge32" class="edge">
<title>Node22&#45;&gt;Node3</title>
<path fill="none" stroke="midnightblue" d="M1484.79,-123.32C1473.22,-115.11 1455.62,-102.6 1441.84,-92.81"/>
<polygon fill="midnightblue" stroke="midnightblue" points="1443.61,-89.77 1433.43,-86.83 1439.56,-95.48 1443.61,-89.77"/>
</g>
<!-- Node23&#45;&gt;Node18 -->
<g id="edge40" class="edge">
<title>Node23&#45;&gt;Node18</title>
<path fill="none" stroke="midnightblue" d="M941.33,-190.52C869.13,-185.78 762.51,-173.66 737,-143 725.6,-129.3 734.6,-109.16 743.9,-94.94"/>
<polygon fill="midnightblue" stroke="midnightblue" points="746.91,-96.75 749.85,-86.57 741.2,-92.69 746.91,-96.75"/>
</g>
<!-- Node23&#45;&gt;Node19 -->
<g id="edge42" class="edge">
<title>Node23&#45;&gt;Node19</title>
<path fill="none" stroke="midnightblue" d="M941.48,-190.24C809.95,-183.47 531.78,-166.56 495,-143 478.35,-132.33 468.11,-111.57 462.51,-96.38"/>
<polygon fill="midnightblue" stroke="midnightblue" points="465.71,-94.9 459.24,-86.52 459.07,-97.11 465.71,-94.9"/>
</g>
<!-- Node23&#45;&gt;Node20 -->
<g id="edge41" class="edge">
<title>Node23&#45;&gt;Node20</title>
<path fill="none" stroke="midnightblue" d="M1031.63,-184.98C1057.72,-174.7 1101.7,-157.37 1131.03,-145.81"/>
<polygon fill="midnightblue" stroke="midnightblue" points="1132.35,-149.05 1140.37,-142.13 1129.79,-142.54 1132.35,-149.05"/>
</g>
<!-- Node23&#45;&gt;Node22 -->
<g id="edge36" class="edge">
<title>Node23&#45;&gt;Node22</title>
<path fill="none" stroke="midnightblue" d="M1078.74,-185.1C1175.06,-173.33 1348.47,-152.15 1438.77,-141.11"/>
<polygon fill="midnightblue" stroke="midnightblue" points="1439.33,-144.57 1448.83,-139.89 1438.48,-137.62 1439.33,-144.57"/>
</g>
<!-- Node24 -->
<g id="node24" class="node">
<title>Node24</title>
<g id="a_node24"><a xlink:title=" ">
<polygon fill="none" stroke="#bfbfbf" points="998,-123.5 998,-142.5 1122,-142.5 1122,-123.5 998,-123.5"/>
<text text-anchor="middle" x="1060" y="-130.5" font-family="Helvetica,sans-Serif" font-size="10.00">gemmi/symmetry.hpp</text>
</a>
</g>
</g>
<!-- Node23&#45;&gt;Node24 -->
<g id="edge34" class="edge">
<title>Node23&#45;&gt;Node24</title>
<path fill="none" stroke="midnightblue" d="M1017.16,-184.98C1024.74,-175.96 1036.87,-161.52 1046.29,-150.31"/>
<polygon fill="midnightblue" stroke="midnightblue" points="1049.1,-152.42 1052.85,-142.51 1043.74,-147.91 1049.1,-152.42"/>
</g>
<!-- Node25 -->
<g id="node25" class="node">
<title>Node25</title>
<g id="a_node25"><a xlink:title=" ">
<polygon fill="none" stroke="#bfbfbf" points="942,-123.5 942,-142.5 980,-142.5 980,-123.5 942,-123.5"/>
<text text-anchor="middle" x="961" y="-130.5" font-family="Helvetica,sans-Serif" font-size="10.00">map</text>
</a>
</g>
</g>
<!-- Node23&#45;&gt;Node25 -->
<g id="edge35" class="edge">
<title>Node23&#45;&gt;Node25</title>
<path fill="none" stroke="midnightblue" d="M1002.98,-184.98C995.56,-175.96 983.67,-161.52 974.43,-150.31"/>
<polygon fill="midnightblue" stroke="midnightblue" points="977.07,-148 968.01,-142.51 971.66,-152.45 977.07,-148"/>
</g>
<!-- Node26 -->
<g id="node26" class="node">
<title>Node26</title>
<g id="a_node26"><a xlink:href="symmetryoperation_8h.html" target="_top" xlink:title=" ">
<polygon fill="none" stroke="black" points="746,-123.5 746,-142.5 924,-142.5 924,-123.5 746,-123.5"/>
<text text-anchor="middle" x="835" y="-130.5" font-family="Helvetica,sans-Serif" font-size="10.00">occ/crystal/symmetryoperation.h</text>
</a>
</g>
</g>
<!-- Node23&#45;&gt;Node26 -->
<g id="edge37" class="edge">
<title>Node23&#45;&gt;Node26</title>
<path fill="none" stroke="midnightblue" d="M984.93,-184.98C954.65,-174.68 903.56,-157.31 869.56,-145.75"/>
<polygon fill="midnightblue" stroke="midnightblue" points="870.62,-142.41 860.03,-142.51 868.37,-149.04 870.62,-142.41"/>
</g>
<!-- Node26&#45;&gt;Node3 -->
<g id="edge38" class="edge">
<title>Node26&#45;&gt;Node3</title>
<path fill="none" stroke="midnightblue" d="M924,-123.8C1037.52,-113.34 1232.16,-95.4 1341.12,-85.36"/>
<polygon fill="midnightblue" stroke="midnightblue" points="1341.76,-88.82 1351.4,-84.41 1341.12,-81.85 1341.76,-88.82"/>
</g>
<!-- Node26&#45;&gt;Node18 -->
<g id="edge39" class="edge">
<title>Node26&#45;&gt;Node18</title>
<path fill="none" stroke="midnightblue" d="M822.47,-123.32C810.41,-114.98 791.97,-102.21 777.73,-92.35"/>
<polygon fill="midnightblue" stroke="midnightblue" points="779.72,-89.47 769.5,-86.65 775.73,-95.22 779.72,-89.47"/>
</g>
<!-- Node27&#45;&gt;Node3 -->
<g id="edge44" class="edge">
<title>Node27&#45;&gt;Node3</title>
<path fill="none" stroke="midnightblue" d="M1691.46,-184.54C1679.87,-169.34 1654.19,-138.66 1625,-123 1587.01,-102.61 1540.31,-91.46 1501.19,-85.35"/>
<polygon fill="midnightblue" stroke="midnightblue" points="1501.3,-81.83 1490.89,-83.84 1500.27,-88.76 1501.3,-81.83"/>
</g>
<!-- Node27&#45;&gt;Node18 -->
<g id="edge58" class="edge">
<title>Node27&#45;&gt;Node18</title>
<path fill="none" stroke="midnightblue" d="M1684.81,-184.78C1660.28,-169.08 1605.44,-136.45 1554,-123 1405.82,-84.24 919.36,-78.87 789.25,-78.12"/>
<polygon fill="midnightblue" stroke="midnightblue" points="789.15,-74.62 779.13,-78.07 789.12,-81.62 789.15,-74.62"/>
</g>
<!-- Node27&#45;&gt;Node22 -->
<g id="edge57" class="edge">
<title>Node27&#45;&gt;Node22</title>
<path fill="none" stroke="midnightblue" d="M1669.2,-184.98C1634.13,-174.59 1574.74,-157.01 1535.69,-145.45"/>
<polygon fill="midnightblue" stroke="midnightblue" points="1536.33,-141.99 1525.74,-142.51 1534.34,-148.7 1536.33,-141.99"/>
</g>
<!-- Node28 -->
<g id="node28" class="node">
<title>Node28</title>
<g id="a_node28"><a xlink:href="units_8h.html" target="_top" xlink:title=" ">
<polygon fill="none" stroke="black" points="1677.5,-123.5 1677.5,-142.5 1770.5,-142.5 1770.5,-123.5 1677.5,-123.5"/>
<text text-anchor="middle" x="1724" y="-130.5" font-family="Helvetica,sans-Serif" font-size="10.00">occ/core/units.h</text>
</a>
</g>
</g>
<!-- Node27&#45;&gt;Node28 -->
<g id="edge45" class="edge">
<title>Node27&#45;&gt;Node28</title>
<path fill="none" stroke="midnightblue" d="M1701.73,-184.98C1705.47,-176.4 1711.36,-162.93 1716.14,-151.98"/>
<polygon fill="midnightblue" stroke="midnightblue" points="1719.48,-153.07 1720.28,-142.51 1713.07,-150.27 1719.48,-153.07"/>
</g>
<!-- Node30 -->
<g id="node30" class="node">
<title>Node30</title>
<g id="a_node30"><a xlink:href="util_8h.html" target="_top" xlink:title=" ">
<polygon fill="none" stroke="black" points="1788.5,-123.5 1788.5,-142.5 1873.5,-142.5 1873.5,-123.5 1788.5,-123.5"/>
<text text-anchor="middle" x="1831" y="-130.5" font-family="Helvetica,sans-Serif" font-size="10.00">occ/core/util.h</text>
</a>
</g>
</g>
<!-- Node27&#45;&gt;Node30 -->
<g id="edge47" class="edge">
<title>Node27&#45;&gt;Node30</title>
<path fill="none" stroke="midnightblue" d="M1717.06,-184.98C1739.47,-174.95 1776.91,-158.2 1802.71,-146.65"/>
<polygon fill="midnightblue" stroke="midnightblue" points="1804.28,-149.79 1811.98,-142.51 1801.42,-143.4 1804.28,-149.79"/>
</g>
<!-- Node29 -->
<g id="node29" class="node">
<title>Node29</title>
<g id="a_node29"><a xlink:title=" ">
<polygon fill="none" stroke="#bfbfbf" points="1553.5,-67.5 1553.5,-86.5 1600.5,-86.5 1600.5,-67.5 1553.5,-67.5"/>
<text text-anchor="middle" x="1577" y="-74.5" font-family="Helvetica,sans-Serif" font-size="10.00">cmath</text>
</a>
</g>
</g>
<!-- Node28&#45;&gt;Node29 -->
<g id="edge46" class="edge">
<title>Node28&#45;&gt;Node29</title>
<path fill="none" stroke="midnightblue" d="M1700.71,-123.44C1676.19,-114.44 1637.4,-100.19 1609.8,-90.05"/>
<polygon fill="midnightblue" stroke="midnightblue" points="1610.78,-86.68 1600.18,-86.52 1608.36,-93.25 1610.78,-86.68"/>
</g>
<!-- Node30&#45;&gt;Node3 -->
<g id="edge54" class="edge">
<title>Node30&#45;&gt;Node3</title>
<path fill="none" stroke="midnightblue" d="M1788.45,-124.33C1785.59,-123.86 1782.76,-123.42 1780,-123 1684.2,-108.55 1573.51,-95.18 1500.66,-86.83"/>
<polygon fill="midnightblue" stroke="midnightblue" points="1500.97,-83.34 1490.63,-85.68 1500.17,-90.3 1500.97,-83.34"/>
</g>
<!-- Node30&#45;&gt;Node18 -->
<g id="edge55" class="edge">
<title>Node30&#45;&gt;Node18</title>
<path fill="none" stroke="midnightblue" d="M1788.48,-124.07C1785.62,-123.67 1782.77,-123.3 1780,-123 1391.51,-80.36 915.83,-77.77 789.21,-77.89"/>
<polygon fill="midnightblue" stroke="midnightblue" points="789.03,-74.39 779.04,-77.9 789.04,-81.39 789.03,-74.39"/>
</g>
<!-- Node30&#45;&gt;Node19 -->
<g id="edge56" class="edge">
<title>Node30&#45;&gt;Node19</title>
<path fill="none" stroke="midnightblue" d="M1788.49,-124.04C1785.62,-123.64 1782.77,-123.29 1780,-123 1771.73,-122.13 696.69,-86.04 490.85,-79.14"/>
<polygon fill="midnightblue" stroke="midnightblue" points="490.76,-75.63 480.65,-78.79 490.52,-82.63 490.76,-75.63"/>
</g>
<!-- Node31 -->
<g id="node31" class="node">
<title>Node31</title>
<g id="a_node31"><a xlink:title=" ">
<polygon fill="none" stroke="#bfbfbf" points="1946,-67.5 1946,-86.5 2010,-86.5 2010,-67.5 1946,-67.5"/>
<text text-anchor="middle" x="1978" y="-74.5" font-family="Helvetica,sans-Serif" font-size="10.00">algorithm</text>
</a>
</g>
</g>
<!-- Node30&#45;&gt;Node31 -->
<g id="edge48" class="edge">
<title>Node30&#45;&gt;Node31</title>
<path fill="none" stroke="midnightblue" d="M1854.29,-123.44C1878.81,-114.44 1917.6,-100.19 1945.2,-90.05"/>
<polygon fill="midnightblue" stroke="midnightblue" points="1946.64,-93.25 1954.82,-86.52 1944.22,-86.68 1946.64,-93.25"/>
</g>
<!-- Node32 -->
<g id="node32" class="node">
<title>Node32</title>
<g id="a_node32"><a xlink:title=" ">
<polygon fill="none" stroke="#bfbfbf" points="2028.5,-67.5 2028.5,-86.5 2077.5,-86.5 2077.5,-67.5 2028.5,-67.5"/>
<text text-anchor="middle" x="2053" y="-74.5" font-family="Helvetica,sans-Serif" font-size="10.00">cctype</text>
</a>
</g>
</g>
<!-- Node30&#45;&gt;Node32 -->
<g id="edge49" class="edge">
<title>Node30&#45;&gt;Node32</title>
<path fill="none" stroke="midnightblue" d="M1867.81,-123.46C1903.75,-115.07 1960.25,-101.71 2018.41,-87.1"/>
<polygon fill="midnightblue" stroke="midnightblue" points="2019.29,-90.49 2028.14,-84.65 2017.58,-83.7 2019.29,-90.49"/>
</g>
<!-- Node33 -->
<g id="node33" class="node">
<title>Node33</title>
<g id="a_node33"><a xlink:title=" ">
<polygon fill="none" stroke="#bfbfbf" points="1618.5,-67.5 1618.5,-86.5 1685.5,-86.5 1685.5,-67.5 1618.5,-67.5"/>
<text text-anchor="middle" x="1652" y="-74.5" font-family="Helvetica,sans-Serif" font-size="10.00">fmt/core.h</text>
</a>
</g>
</g>
<!-- Node30&#45;&gt;Node33 -->
<g id="edge50" class="edge">
<title>Node30&#45;&gt;Node33</title>
<path fill="none" stroke="midnightblue" d="M1802.64,-123.44C1772.26,-114.28 1723.89,-99.69 1690.18,-89.52"/>
<polygon fill="midnightblue" stroke="midnightblue" points="1690.82,-86.05 1680.23,-86.52 1688.79,-92.76 1690.82,-86.05"/>
</g>
<!-- Node34 -->
<g id="node34" class="node">
<title>Node34</title>
<g id="a_node34"><a xlink:title=" ">
<polygon fill="none" stroke="#bfbfbf" points="1704,-67.5 1704,-86.5 1790,-86.5 1790,-67.5 1704,-67.5"/>
<text text-anchor="middle" x="1747" y="-74.5" font-family="Helvetica,sans-Serif" font-size="10.00">fmt/ostream.h</text>
</a>
</g>
</g>
<!-- Node30&#45;&gt;Node34 -->
<g id="edge51" class="edge">
<title>Node30&#45;&gt;Node34</title>
<path fill="none" stroke="midnightblue" d="M1817.5,-123.32C1804.4,-114.9 1784.29,-101.97 1768.89,-92.07"/>
<polygon fill="midnightblue" stroke="midnightblue" points="1770.77,-89.12 1760.46,-86.65 1766.98,-95.01 1770.77,-89.12"/>
</g>
<!-- Node35 -->
<g id="node35" class="node">
<title>Node35</title>
<g id="a_node35"><a xlink:title=" ">
<polygon fill="none" stroke="#bfbfbf" points="1808,-67.5 1808,-86.5 1854,-86.5 1854,-67.5 1808,-67.5"/>
<text text-anchor="middle" x="1831" y="-74.5" font-family="Helvetica,sans-Serif" font-size="10.00">locale</text>
</a>
</g>
</g>
<!-- Node30&#45;&gt;Node35 -->
<g id="edge52" class="edge">
<title>Node30&#45;&gt;Node35</title>
<path fill="none" stroke="midnightblue" d="M1831,-123.08C1831,-116.01 1831,-105.86 1831,-96.99"/>
<polygon fill="midnightblue" stroke="midnightblue" points="1834.5,-96.75 1831,-86.75 1827.5,-96.75 1834.5,-96.75"/>
</g>
<!-- Node36 -->
<g id="node36" class="node">
<title>Node36</title>
<g id="a_node36"><a xlink:title=" ">
<polygon fill="none" stroke="#bfbfbf" points="1872,-67.5 1872,-86.5 1928,-86.5 1928,-67.5 1872,-67.5"/>
<text text-anchor="middle" x="1900" y="-74.5" font-family="Helvetica,sans-Serif" font-size="10.00">numeric</text>
</a>
</g>
</g>
<!-- Node30&#45;&gt;Node36 -->
<g id="edge53" class="edge">
<title>Node30&#45;&gt;Node36</title>
<path fill="none" stroke="midnightblue" d="M1842.09,-123.32C1852.49,-115.18 1868.26,-102.84 1880.72,-93.09"/>
<polygon fill="midnightblue" stroke="midnightblue" points="1882.99,-95.75 1888.71,-86.83 1878.68,-90.24 1882.99,-95.75"/>
</g>
</g>
</svg>
