<?xml version="1.0" encoding="UTF-8" standalone="no"?>
<!DOCTYPE svg PUBLIC "-//W3C//DTD SVG 1.1//EN"
 "http://www.w3.org/Graphics/SVG/1.1/DTD/svg11.dtd">
<!-- Generated by graphviz version 2.43.0 (0)
 -->
<!-- Title: /home/runner/work/occ/occ/include/occ/io/cube.h Pages: 1 -->
<svg width="427pt" height="214pt"
 viewBox="0.00 0.00 426.50 214.00" xmlns="http://www.w3.org/2000/svg" xmlns:xlink="http://www.w3.org/1999/xlink">
<g id="graph0" class="graph" transform="scale(1 1) rotate(0) translate(4 210)">
<title>/home/runner/work/occ/occ/include/occ/io/cube.h</title>
<!-- Node1 -->
<g id="Node000001" class="node">
<title>Node1</title>
<g id="a_Node000001"><a xlink:title=" ">
<polygon fill="#999999" stroke="#666666" points="272.5,-206 131.5,-206 131.5,-176 272.5,-176 272.5,-206"/>
<text text-anchor="start" x="139.5" y="-194" font-family="Helvetica,sans-Serif" font-size="10.00">/home/runner/work/occ</text>
<text text-anchor="middle" x="202" y="-183" font-family="Helvetica,sans-Serif" font-size="10.00">/occ/include/occ/io/cube.h</text>
</a>
</g>
</g>
<!-- Node2 -->
<g id="Node000002" class="node">
<title>Node2</title>
<g id="a_Node000002"><a xlink:title=" ">
<polygon fill="#e0e0e0" stroke="#999999" points="60,-134.5 0,-134.5 0,-115.5 60,-115.5 60,-134.5"/>
<text text-anchor="middle" x="30" y="-122.5" font-family="Helvetica,sans-Serif" font-size="10.00">iostream</text>
</a>
</g>
</g>
<!-- Node1&#45;&gt;Node2 -->
<g id="edge1_Node000001_Node000002" class="edge">
<title>Node1&#45;&gt;Node2</title>
<g id="a_edge1_Node000001_Node000002"><a xlink:title=" ">
<path fill="none" stroke="#63b8ff" d="M164.25,-175.95C133.82,-164.63 91.48,-148.88 62.53,-138.1"/>
<polygon fill="#63b8ff" stroke="#63b8ff" points="63.48,-134.72 52.89,-134.52 61.04,-141.28 63.48,-134.72"/>
</a>
</g>
</g>
<!-- Node3 -->
<g id="Node000003" class="node">
<title>Node3</title>
<g id="a_Node000003"><a xlink:href="atom_8h.html" target="_top" xlink:title=" ">
<polygon fill="white" stroke="#666666" points="173.5,-134.5 78.5,-134.5 78.5,-115.5 173.5,-115.5 173.5,-134.5"/>
<text text-anchor="middle" x="126" y="-122.5" font-family="Helvetica,sans-Serif" font-size="10.00">occ/core/atom.h</text>
</a>
</g>
</g>
<!-- Node1&#45;&gt;Node3 -->
<g id="edge2_Node000001_Node000003" class="edge">
<title>Node1&#45;&gt;Node3</title>
<g id="a_edge2_Node000001_Node000003"><a xlink:title=" ">
<path fill="none" stroke="#63b8ff" d="M185.13,-175.8C173.05,-165.62 156.79,-151.93 144.38,-141.48"/>
<polygon fill="#63b8ff" stroke="#63b8ff" points="146.41,-138.61 136.5,-134.84 141.9,-143.96 146.41,-138.61"/>
</a>
</g>
</g>
<!-- Node4 -->
<g id="Node000004" class="node">
<title>Node4</title>
<g id="a_Node000004"><a xlink:href="linear__algebra_8h.html" target="_top" xlink:title=" ">
<polygon fill="white" stroke="#666666" points="252.5,-74 113.5,-74 113.5,-55 252.5,-55 252.5,-74"/>
<text text-anchor="middle" x="183" y="-62" font-family="Helvetica,sans-Serif" font-size="10.00">occ/core/linear_algebra.h</text>
</a>
</g>
</g>
<!-- Node1&#45;&gt;Node4 -->
<g id="edge7_Node000001_Node000004" class="edge">
<title>Node1&#45;&gt;Node4</title>
<g id="a_edge7_Node000001_Node000004"><a xlink:title=" ">
<path fill="none" stroke="#63b8ff" d="M199.82,-175.72C196.37,-153.12 189.66,-109.12 185.84,-84.09"/>
<polygon fill="#63b8ff" stroke="#63b8ff" points="189.28,-83.43 184.31,-74.07 182.36,-84.48 189.28,-83.43"/>
</a>
</g>
</g>
<!-- Node8 -->
<g id="Node000008" class="node">
<title>Node8</title>
<g id="a_Node000008"><a xlink:href="volume__grid_8h.html" target="_top" xlink:title=" ">
<polygon fill="white" stroke="#666666" points="353.5,-140 230.5,-140 230.5,-110 353.5,-110 353.5,-140"/>
<text text-anchor="start" x="238.5" y="-128" font-family="Helvetica,sans-Serif" font-size="10.00">occ/geometry/volume</text>
<text text-anchor="middle" x="292" y="-117" font-family="Helvetica,sans-Serif" font-size="10.00">_grid.h</text>
</a>
</g>
</g>
<!-- Node1&#45;&gt;Node8 -->
<g id="edge8_Node000001_Node000008" class="edge">
<title>Node1&#45;&gt;Node8</title>
<g id="a_edge8_Node000001_Node000008"><a xlink:title=" ">
<path fill="none" stroke="#63b8ff" d="M221.97,-175.8C234.21,-167.1 250.06,-155.82 263.59,-146.2"/>
<polygon fill="#63b8ff" stroke="#63b8ff" points="265.96,-148.81 272.08,-140.16 261.9,-143.11 265.96,-148.81"/>
</a>
</g>
</g>
<!-- Node11 -->
<g id="Node000011" class="node">
<title>Node11</title>
<g id="a_Node000011"><a xlink:title=" ">
<polygon fill="#e0e0e0" stroke="#999999" points="418.5,-134.5 371.5,-134.5 371.5,-115.5 418.5,-115.5 418.5,-134.5"/>
<text text-anchor="middle" x="395" y="-122.5" font-family="Helvetica,sans-Serif" font-size="10.00">vector</text>
</a>
</g>
</g>
<!-- Node1&#45;&gt;Node11 -->
<g id="edge12_Node000001_Node000011" class="edge">
<title>Node1&#45;&gt;Node11</title>
<g id="a_edge12_Node000001_Node000011"><a xlink:title=" ">
<path fill="none" stroke="#63b8ff" d="M252.16,-175.98C284.18,-166.66 326.39,-153.65 363,-140 364.21,-139.55 365.45,-139.07 366.69,-138.58"/>
<polygon fill="#63b8ff" stroke="#63b8ff" points="368.29,-141.71 376.19,-134.64 365.61,-135.24 368.29,-141.71"/>
</a>
</g>
</g>
<!-- Node3&#45;&gt;Node4 -->
<g id="edge3_Node000003_Node000004" class="edge">
<title>Node3&#45;&gt;Node4</title>
<g id="a_edge3_Node000003_Node000004"><a xlink:title=" ">
<path fill="none" stroke="#63b8ff" d="M134.41,-115.37C143.08,-106.47 156.8,-92.39 167.46,-81.45"/>
<polygon fill="#63b8ff" stroke="#63b8ff" points="170.08,-83.77 174.55,-74.17 165.07,-78.89 170.08,-83.77"/>
</a>
</g>
</g>
<!-- Node5 -->
<g id="Node000005" class="node">
<title>Node5</title>
<g id="a_Node000005"><a xlink:title=" ">
<polygon fill="#e0e0e0" stroke="#999999" points="118.5,-19 41.5,-19 41.5,0 118.5,0 118.5,-19"/>
<text text-anchor="middle" x="80" y="-7" font-family="Helvetica,sans-Serif" font-size="10.00">Eigen/Dense</text>
</a>
</g>
</g>
<!-- Node4&#45;&gt;Node5 -->
<g id="edge4_Node000004_Node000005" class="edge">
<title>Node4&#45;&gt;Node5</title>
<g id="a_edge4_Node000004_Node000005"><a xlink:title=" ">
<path fill="none" stroke="#63b8ff" d="M166.45,-54.98C150.11,-46.57 124.87,-33.59 105.87,-23.81"/>
<polygon fill="#63b8ff" stroke="#63b8ff" points="107.34,-20.63 96.85,-19.17 104.14,-26.86 107.34,-20.63"/>
</a>
</g>
</g>
<!-- Node6 -->
<g id="Node000006" class="node">
<title>Node6</title>
<g id="a_Node000006"><a xlink:title=" ">
<polygon fill="#e0e0e0" stroke="#999999" points="229.5,-19 136.5,-19 136.5,0 229.5,0 229.5,-19"/>
<text text-anchor="middle" x="183" y="-7" font-family="Helvetica,sans-Serif" font-size="10.00">Eigen/StdVector</text>
</a>
</g>
</g>
<!-- Node4&#45;&gt;Node6 -->
<g id="edge5_Node000004_Node000006" class="edge">
<title>Node4&#45;&gt;Node6</title>
<g id="a_edge5_Node000004_Node000006"><a xlink:title=" ">
<path fill="none" stroke="#63b8ff" d="M183,-54.75C183,-47.8 183,-37.85 183,-29.13"/>
<polygon fill="#63b8ff" stroke="#63b8ff" points="186.5,-29.09 183,-19.09 179.5,-29.09 186.5,-29.09"/>
</a>
</g>
</g>
<!-- Node7 -->
<g id="Node000007" class="node">
<title>Node7</title>
<g id="a_Node000007"><a xlink:title=" ">
<polygon fill="#e0e0e0" stroke="#999999" points="314.5,-19 247.5,-19 247.5,0 314.5,0 314.5,-19"/>
<text text-anchor="middle" x="281" y="-7" font-family="Helvetica,sans-Serif" font-size="10.00">fmt/core.h</text>
</a>
</g>
</g>
<!-- Node4&#45;&gt;Node7 -->
<g id="edge6_Node000004_Node000007" class="edge">
<title>Node4&#45;&gt;Node7</title>
<g id="a_edge6_Node000004_Node000007"><a xlink:title=" ">
<path fill="none" stroke="#63b8ff" d="M198.75,-54.98C214.23,-46.61 238.09,-33.7 256.14,-23.95"/>
<polygon fill="#63b8ff" stroke="#63b8ff" points="257.84,-27.01 264.97,-19.17 254.51,-20.85 257.84,-27.01"/>
</a>
</g>
</g>
<!-- Node8&#45;&gt;Node4 -->
<g id="edge11_Node000008_Node000004" class="edge">
<title>Node8&#45;&gt;Node4</title>
<g id="a_edge11_Node000008_Node000004"><a xlink:title=" ">
<path fill="none" stroke="#63b8ff" d="M265.89,-109.99C248.36,-100.58 225.38,-88.24 208.06,-78.95"/>
<polygon fill="#63b8ff" stroke="#63b8ff" points="209.56,-75.78 199.1,-74.14 206.25,-81.95 209.56,-75.78"/>
</a>
</g>
</g>
<!-- Node9 -->
<g id="Node000009" class="node">
<title>Node9</title>
<g id="a_Node000009"><a xlink:title=" ">
<polygon fill="#e0e0e0" stroke="#999999" points="313,-74 271,-74 271,-55 313,-55 313,-74"/>
<text text-anchor="middle" x="292" y="-62" font-family="Helvetica,sans-Serif" font-size="10.00">array</text>
</a>
</g>
</g>
<!-- Node8&#45;&gt;Node9 -->
<g id="edge9_Node000008_Node000009" class="edge">
<title>Node8&#45;&gt;Node9</title>
<g id="a_edge9_Node000008_Node000009"><a xlink:title=" ">
<path fill="none" stroke="#63b8ff" d="M292,-109.84C292,-102.21 292,-92.7 292,-84.45"/>
<polygon fill="#63b8ff" stroke="#63b8ff" points="295.5,-84.27 292,-74.27 288.5,-84.27 295.5,-84.27"/>
</a>
</g>
</g>
<!-- Node10 -->
<g id="Node000010" class="node">
<title>Node10</title>
<g id="a_Node000010"><a xlink:title=" ">
<polygon fill="#e0e0e0" stroke="#999999" points="389,-74 331,-74 331,-55 389,-55 389,-74"/>
<text text-anchor="middle" x="360" y="-62" font-family="Helvetica,sans-Serif" font-size="10.00">memory</text>
</a>
</g>
</g>
<!-- Node8&#45;&gt;Node10 -->
<g id="edge10_Node000008_Node000010" class="edge">
<title>Node8&#45;&gt;Node10</title>
<g id="a_edge10_Node000008_Node000010"><a xlink:title=" ">
<path fill="none" stroke="#63b8ff" d="M308.46,-109.84C318.63,-101.09 331.69,-89.85 342.12,-80.88"/>
<polygon fill="#63b8ff" stroke="#63b8ff" points="344.51,-83.44 349.81,-74.27 339.95,-78.13 344.51,-83.44"/>
</a>
</g>
</g>
</g>
</svg>
