<?xml version="1.0" encoding="UTF-8" standalone="no"?>
<!DOCTYPE svg PUBLIC "-//W3C//DTD SVG 1.1//EN"
 "http://www.w3.org/Graphics/SVG/1.1/DTD/svg11.dtd">
<!-- Generated by graphviz version 2.43.0 (0)
 -->
<!-- Title: /home/runner/work/occ/occ/include/occ/gto/density.h Pages: 1 -->
<svg width="2094pt" height="442pt"
 viewBox="0.00 0.00 2093.50 442.00" xmlns="http://www.w3.org/2000/svg" xmlns:xlink="http://www.w3.org/1999/xlink">
<g id="graph0" class="graph" transform="scale(1 1) rotate(0) translate(4 438)">
<title>/home/runner/work/occ/occ/include/occ/gto/density.h</title>
<!-- Node1 -->
<g id="node1" class="node">
<title>Node1</title>
<g id="a_node1"><a xlink:title=" ">
<polygon fill="#bfbfbf" stroke="black" points="377,-392.5 377,-433.5 505,-433.5 505,-392.5 377,-392.5"/>
<text text-anchor="start" x="385" y="-421.5" font-family="Helvetica,sans-Serif" font-size="10.00">/home/runner/work/occ</text>
<text text-anchor="start" x="385" y="-410.5" font-family="Helvetica,sans-Serif" font-size="10.00">/occ/include/occ/gto</text>
<text text-anchor="middle" x="441" y="-399.5" font-family="Helvetica,sans-Serif" font-size="10.00">/density.h</text>
</a>
</g>
</g>
<!-- Node2 -->
<g id="node2" class="node">
<title>Node2</title>
<g id="a_node2"><a xlink:href="linear__algebra_8h.html" target="_top" xlink:title=" ">
<polygon fill="none" stroke="black" points="688.5,-56.5 688.5,-75.5 827.5,-75.5 827.5,-56.5 688.5,-56.5"/>
<text text-anchor="middle" x="758" y="-63.5" font-family="Helvetica,sans-Serif" font-size="10.00">occ/core/linear_algebra.h</text>
</a>
</g>
</g>
<!-- Node1&#45;&gt;Node2 -->
<g id="edge1" class="edge">
<title>Node1&#45;&gt;Node2</title>
<path fill="none" stroke="midnightblue" d="M376.87,-407.77C254.56,-397.94 0,-368.21 0,-291 0,-291 0,-291 0,-177 0,-114.78 64.15,-129.01 124,-112 225.91,-83.04 531.63,-72.21 678.08,-68.6"/>
<polygon fill="midnightblue" stroke="midnightblue" points="678.43,-72.09 688.35,-68.35 678.26,-65.1 678.43,-72.09"/>
</g>
<!-- Node6 -->
<g id="node6" class="node">
<title>Node6</title>
<g id="a_node6"><a xlink:href="gto_8h.html" target="_top" xlink:title=" ">
<polygon fill="none" stroke="black" points="1537,-280.5 1537,-299.5 1617,-299.5 1617,-280.5 1537,-280.5"/>
<text text-anchor="middle" x="1577" y="-287.5" font-family="Helvetica,sans-Serif" font-size="10.00">occ/gto/gto.h</text>
</a>
</g>
</g>
<!-- Node1&#45;&gt;Node6 -->
<g id="edge5" class="edge">
<title>Node1&#45;&gt;Node6</title>
<path fill="none" stroke="midnightblue" d="M505.33,-405.15C709.99,-383.35 1343.32,-315.89 1526.74,-296.35"/>
<polygon fill="midnightblue" stroke="midnightblue" points="1527.34,-299.81 1536.91,-295.27 1526.6,-292.85 1527.34,-299.81"/>
</g>
<!-- Node27 -->
<g id="node27" class="node">
<title>Node27</title>
<g id="a_node27"><a xlink:href="spinorbital_8h.html" target="_top" xlink:title=" ">
<polygon fill="none" stroke="black" points="411,-224.5 411,-243.5 527,-243.5 527,-224.5 411,-224.5"/>
<text text-anchor="middle" x="469" y="-231.5" font-family="Helvetica,sans-Serif" font-size="10.00">occ/qm/spinorbital.h</text>
</a>
</g>
</g>
<!-- Node1&#45;&gt;Node27 -->
<g id="edge42" class="edge">
<title>Node1&#45;&gt;Node27</title>
<path fill="none" stroke="midnightblue" d="M403.58,-392.36C360.58,-367.18 299.62,-321.77 330,-280 346.41,-257.45 374.36,-245.96 400.92,-240.2"/>
<polygon fill="midnightblue" stroke="midnightblue" points="401.84,-243.59 411,-238.27 400.52,-236.72 401.84,-243.59"/>
</g>
<!-- Node29 -->
<g id="node29" class="node">
<title>Node29</title>
<g id="a_node29"><a xlink:href="wavefunction_8h.html" target="_top" xlink:title=" ">
<polygon fill="none" stroke="black" points="547,-336.5 547,-355.5 677,-355.5 677,-336.5 547,-336.5"/>
<text text-anchor="middle" x="612" y="-343.5" font-family="Helvetica,sans-Serif" font-size="10.00">occ/qm/wavefunction.h</text>
</a>
</g>
</g>
<!-- Node1&#45;&gt;Node29 -->
<g id="edge47" class="edge">
<title>Node1&#45;&gt;Node29</title>
<path fill="none" stroke="midnightblue" d="M492.31,-392.5C520.67,-381.72 555.04,-368.65 579.66,-359.29"/>
<polygon fill="midnightblue" stroke="midnightblue" points="581.13,-362.48 589.24,-355.65 578.65,-355.93 581.13,-362.48"/>
</g>
<!-- Node3 -->
<g id="node3" class="node">
<title>Node3</title>
<g id="a_node3"><a xlink:title=" ">
<polygon fill="none" stroke="#bfbfbf" points="668.5,-0.5 668.5,-19.5 745.5,-19.5 745.5,-0.5 668.5,-0.5"/>
<text text-anchor="middle" x="707" y="-7.5" font-family="Helvetica,sans-Serif" font-size="10.00">Eigen/Dense</text>
</a>
</g>
</g>
<!-- Node2&#45;&gt;Node3 -->
<g id="edge2" class="edge">
<title>Node2&#45;&gt;Node3</title>
<path fill="none" stroke="midnightblue" d="M749.58,-56.08C742.15,-48.22 731.15,-36.57 722.19,-27.08"/>
<polygon fill="midnightblue" stroke="midnightblue" points="724.68,-24.62 715.26,-19.75 719.59,-29.42 724.68,-24.62"/>
</g>
<!-- Node4 -->
<g id="node4" class="node">
<title>Node4</title>
<g id="a_node4"><a xlink:title=" ">
<polygon fill="none" stroke="#bfbfbf" points="763.5,-0.5 763.5,-19.5 856.5,-19.5 856.5,-0.5 763.5,-0.5"/>
<text text-anchor="middle" x="810" y="-7.5" font-family="Helvetica,sans-Serif" font-size="10.00">Eigen/StdVector</text>
</a>
</g>
</g>
<!-- Node2&#45;&gt;Node4 -->
<g id="edge3" class="edge">
<title>Node2&#45;&gt;Node4</title>
<path fill="none" stroke="midnightblue" d="M766.59,-56.08C774.16,-48.22 785.38,-36.57 794.51,-27.08"/>
<polygon fill="midnightblue" stroke="midnightblue" points="797.16,-29.38 801.57,-19.75 792.12,-24.53 797.16,-29.38"/>
</g>
<!-- Node5 -->
<g id="node5" class="node">
<title>Node5</title>
<g id="a_node5"><a xlink:title=" ">
<polygon fill="none" stroke="#bfbfbf" points="1045,-0.5 1045,-19.5 1131,-19.5 1131,-0.5 1045,-0.5"/>
<text text-anchor="middle" x="1088" y="-7.5" font-family="Helvetica,sans-Serif" font-size="10.00">fmt/ostream.h</text>
</a>
</g>
</g>
<!-- Node2&#45;&gt;Node5 -->
<g id="edge4" class="edge">
<title>Node2&#45;&gt;Node5</title>
<path fill="none" stroke="midnightblue" d="M810.29,-56.44C871.75,-46.39 973.17,-29.79 1034.96,-19.68"/>
<polygon fill="midnightblue" stroke="midnightblue" points="1035.59,-23.12 1044.89,-18.05 1034.46,-16.21 1035.59,-23.12"/>
</g>
<!-- Node6&#45;&gt;Node2 -->
<g id="edge9" class="edge">
<title>Node6&#45;&gt;Node2</title>
<path fill="none" stroke="midnightblue" d="M1588.54,-280.49C1598.48,-272.38 1612.12,-259.18 1618,-244 1623.53,-229.71 1631.01,-188.81 1617,-168 1581.65,-115.47 1547.61,-126.61 1486,-112 1364.91,-83.28 1000.59,-72.14 837.93,-68.51"/>
<polygon fill="midnightblue" stroke="midnightblue" points="837.59,-65 827.52,-68.28 837.44,-72 837.59,-65"/>
</g>
<!-- Node7 -->
<g id="node7" class="node">
<title>Node7</title>
<g id="a_node7"><a xlink:title=" ">
<polygon fill="none" stroke="#bfbfbf" points="862,-112.5 862,-131.5 904,-131.5 904,-112.5 862,-112.5"/>
<text text-anchor="middle" x="883" y="-119.5" font-family="Helvetica,sans-Serif" font-size="10.00">array</text>
</a>
</g>
</g>
<!-- Node6&#45;&gt;Node7 -->
<g id="edge6" class="edge">
<title>Node6&#45;&gt;Node7</title>
<path fill="none" stroke="midnightblue" d="M1538.74,-280.44C1501.39,-271.9 1443.02,-258.05 1393,-244 1386.29,-242.12 1160.79,-169.58 1154,-168 1051.6,-144.23 1020.5,-154.94 914.05,-131.95"/>
<polygon fill="midnightblue" stroke="midnightblue" points="914.73,-128.51 904.21,-129.77 913.22,-135.35 914.73,-128.51"/>
</g>
<!-- Node8 -->
<g id="node8" class="node">
<title>Node8</title>
<g id="a_node8"><a xlink:title=" ">
<polygon fill="none" stroke="#bfbfbf" points="2018.5,-112.5 2018.5,-131.5 2085.5,-131.5 2085.5,-112.5 2018.5,-112.5"/>
<text text-anchor="middle" x="2052" y="-119.5" font-family="Helvetica,sans-Serif" font-size="10.00">fmt/core.h</text>
</a>
</g>
</g>
<!-- Node6&#45;&gt;Node8 -->
<g id="edge7" class="edge">
<title>Node6&#45;&gt;Node8</title>
<path fill="none" stroke="midnightblue" d="M1617.33,-287.77C1723.03,-284.17 2002.02,-272.08 2032,-244 2060.01,-217.76 2058.49,-168.49 2055.14,-141.62"/>
<polygon fill="midnightblue" stroke="midnightblue" points="2058.59,-141 2053.67,-131.61 2051.66,-142.01 2058.59,-141"/>
</g>
<!-- Node9 -->
<g id="node9" class="node">
<title>Node9</title>
<g id="a_node9"><a xlink:title=" ">
<polygon fill="none" stroke="#bfbfbf" points="1672,-224.5 1672,-243.5 1786,-243.5 1786,-224.5 1672,-224.5"/>
<text text-anchor="middle" x="1729" y="-231.5" font-family="Helvetica,sans-Serif" font-size="10.00">gau2grid/gau2grid.h</text>
</a>
</g>
</g>
<!-- Node6&#45;&gt;Node9 -->
<g id="edge8" class="edge">
<title>Node6&#45;&gt;Node9</title>
<path fill="none" stroke="midnightblue" d="M1601.08,-280.44C1626.54,-271.4 1666.89,-257.06 1695.46,-246.92"/>
<polygon fill="midnightblue" stroke="midnightblue" points="1696.78,-250.16 1705.03,-243.52 1694.43,-243.57 1696.78,-250.16"/>
</g>
<!-- Node10 -->
<g id="node10" class="node">
<title>Node10</title>
<g id="a_node10"><a xlink:href="log_8h.html" target="_top" xlink:title=" ">
<polygon fill="none" stroke="black" points="1804,-224.5 1804,-243.5 1888,-243.5 1888,-224.5 1804,-224.5"/>
<text text-anchor="middle" x="1846" y="-231.5" font-family="Helvetica,sans-Serif" font-size="10.00">occ/core/log.h</text>
</a>
</g>
</g>
<!-- Node6&#45;&gt;Node10 -->
<g id="edge10" class="edge">
<title>Node6&#45;&gt;Node10</title>
<path fill="none" stroke="midnightblue" d="M1617.27,-280.92C1664.26,-271.48 1742.1,-255.86 1793.72,-245.5"/>
<polygon fill="midnightblue" stroke="midnightblue" points="1794.56,-248.9 1803.68,-243.5 1793.18,-242.03 1794.56,-248.9"/>
</g>
<!-- Node12 -->
<g id="node12" class="node">
<title>Node12</title>
<g id="a_node12"><a xlink:href="timings_8h.html" target="_top" xlink:title=" ">
<polygon fill="none" stroke="black" points="1483,-168.5 1483,-187.5 1589,-187.5 1589,-168.5 1483,-168.5"/>
<text text-anchor="middle" x="1536" y="-175.5" font-family="Helvetica,sans-Serif" font-size="10.00">occ/core/timings.h</text>
</a>
</g>
</g>
<!-- Node6&#45;&gt;Node12 -->
<g id="edge12" class="edge">
<title>Node6&#45;&gt;Node12</title>
<path fill="none" stroke="midnightblue" d="M1573.78,-280.37C1567.14,-262.54 1551.76,-221.3 1542.81,-197.27"/>
<polygon fill="midnightblue" stroke="midnightblue" points="1545.97,-195.74 1539.2,-187.59 1539.42,-198.18 1545.97,-195.74"/>
</g>
<!-- Node14 -->
<g id="node14" class="node">
<title>Node14</title>
<g id="a_node14"><a xlink:title=" ">
<polygon fill="none" stroke="#bfbfbf" points="1433,-112.5 1433,-131.5 1477,-131.5 1477,-112.5 1433,-112.5"/>
<text text-anchor="middle" x="1455" y="-119.5" font-family="Helvetica,sans-Serif" font-size="10.00">string</text>
</a>
</g>
</g>
<!-- Node6&#45;&gt;Node14 -->
<g id="edge40" class="edge">
<title>Node6&#45;&gt;Node14</title>
<path fill="none" stroke="midnightblue" d="M1582.43,-280.39C1595.12,-259.08 1623.73,-203.07 1598,-168 1572.79,-133.63 1521.31,-124.82 1487.49,-122.93"/>
<polygon fill="midnightblue" stroke="midnightblue" points="1487.31,-119.42 1477.18,-122.54 1487.04,-126.42 1487.31,-119.42"/>
</g>
<!-- Node15 -->
<g id="node15" class="node">
<title>Node15</title>
<g id="a_node15"><a xlink:href="util_8h.html" target="_top" xlink:title=" ">
<polygon fill="none" stroke="black" points="1227.5,-168.5 1227.5,-187.5 1312.5,-187.5 1312.5,-168.5 1227.5,-168.5"/>
<text text-anchor="middle" x="1270" y="-175.5" font-family="Helvetica,sans-Serif" font-size="10.00">occ/core/util.h</text>
</a>
</g>
</g>
<!-- Node6&#45;&gt;Node15 -->
<g id="edge15" class="edge">
<title>Node6&#45;&gt;Node15</title>
<path fill="none" stroke="midnightblue" d="M1553.17,-280.46C1498.98,-261.05 1366.43,-213.55 1303.81,-191.12"/>
<polygon fill="midnightblue" stroke="midnightblue" points="1304.63,-187.69 1294.03,-187.61 1302.26,-194.28 1304.63,-187.69"/>
</g>
<!-- Node20 -->
<g id="node20" class="node">
<title>Node20</title>
<g id="a_node20"><a xlink:title=" ">
<polygon fill="none" stroke="#bfbfbf" points="645.5,-112.5 645.5,-131.5 692.5,-131.5 692.5,-112.5 645.5,-112.5"/>
<text text-anchor="middle" x="669" y="-119.5" font-family="Helvetica,sans-Serif" font-size="10.00">vector</text>
</a>
</g>
</g>
<!-- Node6&#45;&gt;Node20 -->
<g id="edge41" class="edge">
<title>Node6&#45;&gt;Node20</title>
<path fill="none" stroke="midnightblue" d="M1536.66,-283.84C1437.14,-270.8 1172.13,-234.27 954,-188 919.83,-180.75 912.02,-175.93 878,-168 802.87,-150.49 780.74,-150.82 702.54,-132.24"/>
<polygon fill="midnightblue" stroke="midnightblue" points="703.26,-128.81 692.71,-129.88 701.62,-135.62 703.26,-128.81"/>
</g>
<!-- Node21 -->
<g id="node21" class="node">
<title>Node21</title>
<g id="a_node21"><a xlink:href="shell__order_8h.html" target="_top" xlink:title=" ">
<polygon fill="none" stroke="black" points="1906.5,-224.5 1906.5,-243.5 2023.5,-243.5 2023.5,-224.5 1906.5,-224.5"/>
<text text-anchor="middle" x="1965" y="-231.5" font-family="Helvetica,sans-Serif" font-size="10.00">occ/gto/shell_order.h</text>
</a>
</g>
</g>
<!-- Node6&#45;&gt;Node21 -->
<g id="edge26" class="edge">
<title>Node6&#45;&gt;Node21</title>
<path fill="none" stroke="midnightblue" d="M1617.06,-283.42C1682.98,-274.25 1815.07,-255.87 1896.19,-244.58"/>
<polygon fill="midnightblue" stroke="midnightblue" points="1896.88,-248.01 1906.3,-243.17 1895.92,-241.08 1896.88,-248.01"/>
</g>
<!-- Node23 -->
<g id="node23" class="node">
<title>Node23</title>
<g id="a_node23"><a xlink:href="shell_8h.html" target="_top" xlink:title=" ">
<polygon fill="none" stroke="black" points="919.5,-224.5 919.5,-243.5 1006.5,-243.5 1006.5,-224.5 919.5,-224.5"/>
<text text-anchor="middle" x="963" y="-231.5" font-family="Helvetica,sans-Serif" font-size="10.00">occ/qm/shell.h</text>
</a>
</g>
</g>
<!-- Node6&#45;&gt;Node23 -->
<g id="edge28" class="edge">
<title>Node6&#45;&gt;Node23</title>
<path fill="none" stroke="midnightblue" d="M1536.96,-285.73C1449.36,-278.54 1234.13,-260.66 1054,-244 1042.02,-242.89 1029.16,-241.65 1016.99,-240.45"/>
<polygon fill="midnightblue" stroke="midnightblue" points="1017.26,-236.96 1006.96,-239.46 1016.57,-243.93 1017.26,-236.96"/>
</g>
<!-- Node11 -->
<g id="node11" class="node">
<title>Node11</title>
<g id="a_node11"><a xlink:title=" ">
<polygon fill="none" stroke="#bfbfbf" points="1799.5,-168.5 1799.5,-187.5 1892.5,-187.5 1892.5,-168.5 1799.5,-168.5"/>
<text text-anchor="middle" x="1846" y="-175.5" font-family="Helvetica,sans-Serif" font-size="10.00">spdlog/spdlog.h</text>
</a>
</g>
</g>
<!-- Node10&#45;&gt;Node11 -->
<g id="edge11" class="edge">
<title>Node10&#45;&gt;Node11</title>
<path fill="none" stroke="midnightblue" d="M1846,-224.08C1846,-217.01 1846,-206.86 1846,-197.99"/>
<polygon fill="midnightblue" stroke="midnightblue" points="1849.5,-197.75 1846,-187.75 1842.5,-197.75 1849.5,-197.75"/>
</g>
<!-- Node13 -->
<g id="node13" class="node">
<title>Node13</title>
<g id="a_node13"><a xlink:title=" ">
<polygon fill="none" stroke="#bfbfbf" points="1286,-112.5 1286,-131.5 1336,-131.5 1336,-112.5 1286,-112.5"/>
<text text-anchor="middle" x="1311" y="-119.5" font-family="Helvetica,sans-Serif" font-size="10.00">chrono</text>
</a>
</g>
</g>
<!-- Node12&#45;&gt;Node13 -->
<g id="edge13" class="edge">
<title>Node12&#45;&gt;Node13</title>
<path fill="none" stroke="midnightblue" d="M1500.35,-168.44C1457.99,-158.28 1387.8,-141.43 1345.81,-131.36"/>
<polygon fill="midnightblue" stroke="midnightblue" points="1346.58,-127.94 1336.04,-129.01 1344.94,-134.75 1346.58,-127.94"/>
</g>
<!-- Node12&#45;&gt;Node14 -->
<g id="edge14" class="edge">
<title>Node12&#45;&gt;Node14</title>
<path fill="none" stroke="midnightblue" d="M1522.99,-168.32C1510.47,-159.98 1491.32,-147.21 1476.53,-137.35"/>
<polygon fill="midnightblue" stroke="midnightblue" points="1478.24,-134.29 1467.98,-131.65 1474.36,-140.11 1478.24,-134.29"/>
</g>
<!-- Node15&#45;&gt;Node2 -->
<g id="edge22" class="edge">
<title>Node15&#45;&gt;Node2</title>
<path fill="none" stroke="midnightblue" d="M1263.94,-168.4C1253.16,-153.88 1229.14,-124.85 1201,-112 1138.18,-83.31 947.26,-72.75 837.65,-68.98"/>
<polygon fill="midnightblue" stroke="midnightblue" points="837.73,-65.49 827.62,-68.65 837.5,-72.48 837.73,-65.49"/>
</g>
<!-- Node15&#45;&gt;Node5 -->
<g id="edge19" class="edge">
<title>Node15&#45;&gt;Node5</title>
<path fill="none" stroke="midnightblue" d="M1265.88,-168.28C1259.35,-155.07 1245.66,-129.67 1229,-112 1193.77,-74.64 1142.9,-42.23 1112.87,-24.76"/>
<polygon fill="midnightblue" stroke="midnightblue" points="1114.31,-21.55 1103.9,-19.62 1110.84,-27.63 1114.31,-21.55"/>
</g>
<!-- Node15&#45;&gt;Node8 -->
<g id="edge18" class="edge">
<title>Node15&#45;&gt;Node8</title>
<path fill="none" stroke="midnightblue" d="M1312.6,-174.06C1448.5,-164.67 1870.86,-135.51 2008.3,-126.02"/>
<polygon fill="midnightblue" stroke="midnightblue" points="2008.71,-129.5 2018.45,-125.32 2008.23,-122.51 2008.71,-129.5"/>
</g>
<!-- Node15&#45;&gt;Node13 -->
<g id="edge25" class="edge">
<title>Node15&#45;&gt;Node13</title>
<path fill="none" stroke="midnightblue" d="M1276.77,-168.08C1282.56,-160.46 1291.06,-149.26 1298.14,-139.94"/>
<polygon fill="midnightblue" stroke="midnightblue" points="1301.1,-141.83 1304.36,-131.75 1295.52,-137.6 1301.1,-141.83"/>
</g>
<!-- Node15&#45;&gt;Node14 -->
<g id="edge23" class="edge">
<title>Node15&#45;&gt;Node14</title>
<path fill="none" stroke="midnightblue" d="M1299.31,-168.44C1333.07,-158.59 1388.32,-142.46 1423.12,-132.3"/>
<polygon fill="midnightblue" stroke="midnightblue" points="1424.17,-135.64 1432.79,-129.48 1422.21,-128.92 1424.17,-135.64"/>
</g>
<!-- Node16 -->
<g id="node16" class="node">
<title>Node16</title>
<g id="a_node16"><a xlink:title=" ">
<polygon fill="none" stroke="#bfbfbf" points="996,-112.5 996,-131.5 1060,-131.5 1060,-112.5 996,-112.5"/>
<text text-anchor="middle" x="1028" y="-119.5" font-family="Helvetica,sans-Serif" font-size="10.00">algorithm</text>
</a>
</g>
</g>
<!-- Node15&#45;&gt;Node16 -->
<g id="edge16" class="edge">
<title>Node15&#45;&gt;Node16</title>
<path fill="none" stroke="midnightblue" d="M1231.65,-168.44C1187.67,-158.63 1115.77,-142.58 1070.22,-132.42"/>
<polygon fill="midnightblue" stroke="midnightblue" points="1070.88,-128.98 1060.36,-130.22 1069.36,-135.81 1070.88,-128.98"/>
</g>
<!-- Node17 -->
<g id="node17" class="node">
<title>Node17</title>
<g id="a_node17"><a xlink:title=" ">
<polygon fill="none" stroke="#bfbfbf" points="1078.5,-112.5 1078.5,-131.5 1127.5,-131.5 1127.5,-112.5 1078.5,-112.5"/>
<text text-anchor="middle" x="1103" y="-119.5" font-family="Helvetica,sans-Serif" font-size="10.00">cctype</text>
</a>
</g>
</g>
<!-- Node15&#45;&gt;Node17 -->
<g id="edge17" class="edge">
<title>Node15&#45;&gt;Node17</title>
<path fill="none" stroke="midnightblue" d="M1243.54,-168.44C1214.82,-159.16 1168.87,-144.3 1137.38,-134.12"/>
<polygon fill="midnightblue" stroke="midnightblue" points="1138.3,-130.73 1127.7,-130.99 1136.14,-137.4 1138.3,-130.73"/>
</g>
<!-- Node18 -->
<g id="node18" class="node">
<title>Node18</title>
<g id="a_node18"><a xlink:title=" ">
<polygon fill="none" stroke="#bfbfbf" points="1146,-112.5 1146,-131.5 1192,-131.5 1192,-112.5 1146,-112.5"/>
<text text-anchor="middle" x="1169" y="-119.5" font-family="Helvetica,sans-Serif" font-size="10.00">locale</text>
</a>
</g>
</g>
<!-- Node15&#45;&gt;Node18 -->
<g id="edge20" class="edge">
<title>Node15&#45;&gt;Node18</title>
<path fill="none" stroke="midnightblue" d="M1253.77,-168.32C1237.65,-159.7 1212.7,-146.36 1194.04,-136.39"/>
<polygon fill="midnightblue" stroke="midnightblue" points="1195.66,-133.28 1185.19,-131.65 1192.36,-139.46 1195.66,-133.28"/>
</g>
<!-- Node19 -->
<g id="node19" class="node">
<title>Node19</title>
<g id="a_node19"><a xlink:title=" ">
<polygon fill="none" stroke="#bfbfbf" points="922,-112.5 922,-131.5 978,-131.5 978,-112.5 922,-112.5"/>
<text text-anchor="middle" x="950" y="-119.5" font-family="Helvetica,sans-Serif" font-size="10.00">numeric</text>
</a>
</g>
</g>
<!-- Node15&#45;&gt;Node19 -->
<g id="edge21" class="edge">
<title>Node15&#45;&gt;Node19</title>
<path fill="none" stroke="midnightblue" d="M1227.48,-170.28C1158.56,-159.39 1026.85,-138.56 988.11,-131.9"/>
<polygon fill="midnightblue" stroke="midnightblue" points="988.69,-128.45 978.23,-130.12 987.45,-135.34 988.69,-128.45"/>
</g>
<!-- Node15&#45;&gt;Node20 -->
<g id="edge24" class="edge">
<title>Node15&#45;&gt;Node20</title>
<path fill="none" stroke="midnightblue" d="M1227.37,-174.71C1116.52,-168.59 820.26,-151.12 702.78,-131.95"/>
<polygon fill="midnightblue" stroke="midnightblue" points="703.09,-128.45 692.65,-130.21 701.91,-135.35 703.09,-128.45"/>
</g>
<!-- Node22 -->
<g id="node22" class="node">
<title>Node22</title>
<g id="a_node22"><a xlink:title=" ">
<polygon fill="none" stroke="#bfbfbf" points="1941.5,-168.5 1941.5,-187.5 1988.5,-187.5 1988.5,-168.5 1941.5,-168.5"/>
<text text-anchor="middle" x="1965" y="-175.5" font-family="Helvetica,sans-Serif" font-size="10.00">cmath</text>
</a>
</g>
</g>
<!-- Node21&#45;&gt;Node22 -->
<g id="edge27" class="edge">
<title>Node21&#45;&gt;Node22</title>
<path fill="none" stroke="midnightblue" d="M1965,-224.08C1965,-217.01 1965,-206.86 1965,-197.99"/>
<polygon fill="midnightblue" stroke="midnightblue" points="1968.5,-197.75 1965,-187.75 1961.5,-197.75 1968.5,-197.75"/>
</g>
<!-- Node23&#45;&gt;Node2 -->
<g id="edge33" class="edge">
<title>Node23&#45;&gt;Node2</title>
<path fill="none" stroke="midnightblue" d="M1006.68,-226.06C1011.51,-225.34 1016.36,-224.64 1021,-224 1087.52,-214.85 1267.25,-228.24 1321,-188 1349.36,-166.77 1369.07,-137.99 1345,-112 1311.26,-75.58 990.64,-68.52 838.01,-67.23"/>
<polygon fill="midnightblue" stroke="midnightblue" points="837.79,-63.73 827.76,-67.16 837.73,-70.73 837.79,-63.73"/>
</g>
<!-- Node23&#45;&gt;Node7 -->
<g id="edge29" class="edge">
<title>Node23&#45;&gt;Node7</title>
<path fill="none" stroke="midnightblue" d="M1006.83,-224.55C1055.68,-214.7 1128.93,-198.42 1137,-188 1142.44,-180.97 1142.77,-174.77 1137,-168 1106.03,-131.65 976.83,-141.97 914.05,-131.67"/>
<polygon fill="midnightblue" stroke="midnightblue" points="914.7,-128.23 904.21,-129.74 913.35,-135.1 914.7,-128.23"/>
</g>
<!-- Node23&#45;&gt;Node15 -->
<g id="edge38" class="edge">
<title>Node23&#45;&gt;Node15</title>
<path fill="none" stroke="midnightblue" d="M1006.66,-225.32C1062.21,-215.55 1158.07,-198.69 1217.54,-188.23"/>
<polygon fill="midnightblue" stroke="midnightblue" points="1218.24,-191.66 1227.48,-186.48 1217.02,-184.76 1218.24,-191.66"/>
</g>
<!-- Node23&#45;&gt;Node20 -->
<g id="edge39" class="edge">
<title>Node23&#45;&gt;Node20</title>
<path fill="none" stroke="midnightblue" d="M924.13,-224.48C890.68,-216.64 841.41,-203.82 800,-188 761.31,-173.21 718.72,-150.87 692.92,-136.61"/>
<polygon fill="midnightblue" stroke="midnightblue" points="694.34,-133.39 683.9,-131.58 690.93,-139.51 694.34,-133.39"/>
</g>
<!-- Node24 -->
<g id="node24" class="node">
<title>Node24</title>
<g id="a_node24"><a xlink:title=" ">
<polygon fill="none" stroke="#bfbfbf" points="809,-168.5 809,-187.5 869,-187.5 869,-168.5 809,-168.5"/>
<text text-anchor="middle" x="839" y="-175.5" font-family="Helvetica,sans-Serif" font-size="10.00">iostream</text>
</a>
</g>
</g>
<!-- Node23&#45;&gt;Node24 -->
<g id="edge30" class="edge">
<title>Node23&#45;&gt;Node24</title>
<path fill="none" stroke="midnightblue" d="M943.35,-224.44C923.04,-215.6 891.1,-201.69 867.9,-191.59"/>
<polygon fill="midnightblue" stroke="midnightblue" points="869.12,-188.3 858.56,-187.52 866.33,-194.72 869.12,-188.3"/>
</g>
<!-- Node25 -->
<g id="node25" class="node">
<title>Node25</title>
<g id="a_node25"><a xlink:href="atom_8h.html" target="_top" xlink:title=" ">
<polygon fill="none" stroke="black" points="710.5,-112.5 710.5,-131.5 805.5,-131.5 805.5,-112.5 710.5,-112.5"/>
<text text-anchor="middle" x="758" y="-119.5" font-family="Helvetica,sans-Serif" font-size="10.00">occ/core/atom.h</text>
</a>
</g>
</g>
<!-- Node23&#45;&gt;Node25 -->
<g id="edge31" class="edge">
<title>Node23&#45;&gt;Node25</title>
<path fill="none" stroke="midnightblue" d="M953.71,-224.4C938.73,-210.9 907.9,-184.56 878,-168 852.54,-153.9 821.77,-142.46 797.76,-134.64"/>
<polygon fill="midnightblue" stroke="midnightblue" points="798.51,-131.21 787.92,-131.52 796.39,-137.88 798.51,-131.21"/>
</g>
<!-- Node26 -->
<g id="node26" class="node">
<title>Node26</title>
<g id="a_node26"><a xlink:href="point__charge_8h.html" target="_top" xlink:title=" ">
<polygon fill="none" stroke="black" points="963,-168.5 963,-187.5 1095,-187.5 1095,-168.5 963,-168.5"/>
<text text-anchor="middle" x="1029" y="-175.5" font-family="Helvetica,sans-Serif" font-size="10.00">occ/core/point_charge.h</text>
</a>
</g>
</g>
<!-- Node23&#45;&gt;Node26 -->
<g id="edge34" class="edge">
<title>Node23&#45;&gt;Node26</title>
<path fill="none" stroke="midnightblue" d="M973.6,-224.32C983.46,-216.26 998.35,-204.08 1010.22,-194.37"/>
<polygon fill="midnightblue" stroke="midnightblue" points="1012.68,-196.88 1018.2,-187.83 1008.25,-191.46 1012.68,-196.88"/>
</g>
<!-- Node25&#45;&gt;Node2 -->
<g id="edge32" class="edge">
<title>Node25&#45;&gt;Node2</title>
<path fill="none" stroke="midnightblue" d="M758,-112.08C758,-105.01 758,-94.86 758,-85.99"/>
<polygon fill="midnightblue" stroke="midnightblue" points="761.5,-85.75 758,-75.75 754.5,-85.75 761.5,-85.75"/>
</g>
<!-- Node26&#45;&gt;Node2 -->
<g id="edge37" class="edge">
<title>Node26&#45;&gt;Node2</title>
<path fill="none" stroke="midnightblue" d="M976.17,-168.5C940.35,-161.54 892.5,-149.89 853,-132 824.06,-118.89 794.42,-97 776.12,-82.28"/>
<polygon fill="midnightblue" stroke="midnightblue" points="778.05,-79.34 768.1,-75.71 773.61,-84.75 778.05,-79.34"/>
</g>
<!-- Node26&#45;&gt;Node7 -->
<g id="edge35" class="edge">
<title>Node26&#45;&gt;Node7</title>
<path fill="none" stroke="midnightblue" d="M1005.87,-168.44C980.94,-159.23 941.17,-144.52 913.66,-134.34"/>
<polygon fill="midnightblue" stroke="midnightblue" points="914.72,-131 904.13,-130.82 912.29,-137.57 914.72,-131"/>
</g>
<!-- Node26&#45;&gt;Node25 -->
<g id="edge36" class="edge">
<title>Node26&#45;&gt;Node25</title>
<path fill="none" stroke="midnightblue" d="M986.06,-168.44C938.49,-158.96 861.76,-143.67 810.61,-133.48"/>
<polygon fill="midnightblue" stroke="midnightblue" points="811.23,-130.04 800.74,-131.52 809.86,-136.9 811.23,-130.04"/>
</g>
<!-- Node27&#45;&gt;Node2 -->
<g id="edge43" class="edge">
<title>Node27&#45;&gt;Node2</title>
<path fill="none" stroke="midnightblue" d="M460.67,-224.46C449.05,-211.5 430.74,-186.41 443,-168 471.45,-125.28 613.72,-92.98 697.01,-77.37"/>
<polygon fill="midnightblue" stroke="midnightblue" points="697.67,-80.81 706.86,-75.55 696.39,-73.93 697.67,-80.81"/>
</g>
<!-- Node27&#45;&gt;Node15 -->
<g id="edge44" class="edge">
<title>Node27&#45;&gt;Node15</title>
<path fill="none" stroke="midnightblue" d="M527.07,-224.94C530.09,-224.6 533.08,-224.29 536,-224 603.15,-217.44 1059.89,-191.03 1217.03,-182.03"/>
<polygon fill="midnightblue" stroke="midnightblue" points="1217.59,-185.5 1227.37,-181.43 1217.19,-178.51 1217.59,-185.5"/>
</g>
<!-- Node28 -->
<g id="node28" class="node">
<title>Node28</title>
<g id="a_node28"><a xlink:href="qm_2opmatrix_8h.html" target="_top" xlink:title=" ">
<polygon fill="none" stroke="black" points="452,-168.5 452,-187.5 560,-187.5 560,-168.5 452,-168.5"/>
<text text-anchor="middle" x="506" y="-175.5" font-family="Helvetica,sans-Serif" font-size="10.00">occ/qm/opmatrix.h</text>
</a>
</g>
</g>
<!-- Node27&#45;&gt;Node28 -->
<g id="edge45" class="edge">
<title>Node27&#45;&gt;Node28</title>
<path fill="none" stroke="midnightblue" d="M469.94,-224.08C473.6,-216.38 481,-205.03 488.3,-195.65"/>
<polygon fill="midnightblue" stroke="midnightblue" points="491.17,-197.68 494.87,-187.75 485.79,-193.2 491.17,-197.68"/>
</g>
<!-- Node28&#45;&gt;Node27 -->
<g id="edge46" class="edge">
<title>Node28&#45;&gt;Node27</title>
<path fill="none" stroke="midnightblue" d="M505.13,-187.75C501.53,-195.4 494.16,-206.74 486.86,-216.14"/>
<polygon fill="midnightblue" stroke="midnightblue" points="483.96,-214.15 480.28,-224.08 489.35,-218.62 483.96,-214.15"/>
</g>
<!-- Node29&#45;&gt;Node2 -->
<g id="edge49" class="edge">
<title>Node29&#45;&gt;Node2</title>
<path fill="none" stroke="midnightblue" d="M546.99,-339.3C396.71,-325.25 38,-286.34 38,-235 38,-235 38,-235 38,-177 38,-112.82 490.8,-81.26 678.24,-70.94"/>
<polygon fill="midnightblue" stroke="midnightblue" points="678.51,-74.43 688.31,-70.39 678.13,-67.44 678.51,-74.43"/>
</g>
<!-- Node29&#45;&gt;Node8 -->
<g id="edge48" class="edge">
<title>Node29&#45;&gt;Node8</title>
<path fill="none" stroke="midnightblue" d="M677.2,-344.84C944.35,-343.6 1946.29,-332.99 2053,-244 2079.66,-221.77 2077.89,-202.02 2071,-168 2069.11,-158.65 2065.21,-148.83 2061.43,-140.75"/>
<polygon fill="midnightblue" stroke="midnightblue" points="2064.47,-139.01 2056.88,-131.63 2058.21,-142.14 2064.47,-139.01"/>
</g>
<!-- Node29&#45;&gt;Node23 -->
<g id="edge86" class="edge">
<title>Node29&#45;&gt;Node23</title>
<path fill="none" stroke="midnightblue" d="M677.22,-337.27C723.56,-330.55 786.76,-318.86 840,-300 859.72,-293.01 909.08,-265.71 938.93,-248.79"/>
<polygon fill="midnightblue" stroke="midnightblue" points="940.92,-251.69 947.88,-243.7 937.46,-245.61 940.92,-251.69"/>
</g>
<!-- Node29&#45;&gt;Node27 -->
<g id="edge87" class="edge">
<title>Node29&#45;&gt;Node27</title>
<path fill="none" stroke="midnightblue" d="M605.39,-336.15C595.08,-322.77 574.06,-297.16 552,-280 535.45,-267.13 514.72,-255.89 498.12,-247.86"/>
<polygon fill="midnightblue" stroke="midnightblue" points="499.42,-244.6 488.88,-243.51 496.44,-250.94 499.42,-244.6"/>
</g>
<!-- Node30 -->
<g id="node30" class="node">
<title>Node30</title>
<g id="a_node30"><a xlink:href="fchkreader_8h.html" target="_top" xlink:title=" ">
<polygon fill="none" stroke="black" points="599.5,-280.5 599.5,-299.5 708.5,-299.5 708.5,-280.5 599.5,-280.5"/>
<text text-anchor="middle" x="654" y="-287.5" font-family="Helvetica,sans-Serif" font-size="10.00">occ/io/fchkreader.h</text>
</a>
</g>
</g>
<!-- Node29&#45;&gt;Node30 -->
<g id="edge50" class="edge">
<title>Node29&#45;&gt;Node30</title>
<path fill="none" stroke="midnightblue" d="M618.94,-336.08C624.93,-328.38 633.75,-317.03 641.05,-307.65"/>
<polygon fill="midnightblue" stroke="midnightblue" points="643.82,-309.79 647.19,-299.75 638.29,-305.5 643.82,-309.79"/>
</g>
<!-- Node33 -->
<g id="node33" class="node">
<title>Node33</title>
<g id="a_node33"><a xlink:href="fchkwriter_8h.html" target="_top" xlink:title=" ">
<polygon fill="none" stroke="black" points="339,-280.5 339,-299.5 445,-299.5 445,-280.5 339,-280.5"/>
<text text-anchor="middle" x="392" y="-287.5" font-family="Helvetica,sans-Serif" font-size="10.00">occ/io/fchkwriter.h</text>
</a>
</g>
</g>
<!-- Node29&#45;&gt;Node33 -->
<g id="edge57" class="edge">
<title>Node29&#45;&gt;Node33</title>
<path fill="none" stroke="midnightblue" d="M577.14,-336.44C539.08,-327.1 478.04,-312.12 436.54,-301.93"/>
<polygon fill="midnightblue" stroke="midnightblue" points="437.24,-298.5 426.7,-299.52 435.57,-305.3 437.24,-298.5"/>
</g>
<!-- Node36 -->
<g id="node36" class="node">
<title>Node36</title>
<g id="a_node36"><a xlink:href="moldenreader_8h.html" target="_top" xlink:title=" ">
<polygon fill="none" stroke="black" points="893.5,-280.5 893.5,-299.5 1018.5,-299.5 1018.5,-280.5 893.5,-280.5"/>
<text text-anchor="middle" x="956" y="-287.5" font-family="Helvetica,sans-Serif" font-size="10.00">occ/io/moldenreader.h</text>
</a>
</g>
</g>
<!-- Node29&#45;&gt;Node36 -->
<g id="edge67" class="edge">
<title>Node29&#45;&gt;Node36</title>
<path fill="none" stroke="midnightblue" d="M666.51,-336.44C727.65,-326.85 826.74,-311.29 891.64,-301.1"/>
<polygon fill="midnightblue" stroke="midnightblue" points="892.41,-304.52 901.75,-299.52 891.33,-297.61 892.41,-304.52"/>
</g>
<!-- Node38 -->
<g id="node38" class="node">
<title>Node38</title>
<g id="a_node38"><a xlink:href="orca__json_8h.html" target="_top" xlink:title=" ">
<polygon fill="none" stroke="black" points="727,-280.5 727,-299.5 831,-299.5 831,-280.5 727,-280.5"/>
<text text-anchor="middle" x="779" y="-287.5" font-family="Helvetica,sans-Serif" font-size="10.00">occ/io/orca_json.h</text>
</a>
</g>
</g>
<!-- Node29&#45;&gt;Node38 -->
<g id="edge75" class="edge">
<title>Node29&#45;&gt;Node38</title>
<path fill="none" stroke="midnightblue" d="M638.46,-336.44C666.68,-327.32 711.54,-312.81 742.97,-302.65"/>
<polygon fill="midnightblue" stroke="midnightblue" points="744.22,-305.92 752.66,-299.52 742.07,-299.26 744.22,-305.92"/>
</g>
<!-- Node39 -->
<g id="node39" class="node">
<title>Node39</title>
<g id="a_node39"><a xlink:href="mo_8h.html" target="_top" xlink:title=" ">
<polygon fill="none" stroke="black" points="463,-280.5 463,-299.5 543,-299.5 543,-280.5 463,-280.5"/>
<text text-anchor="middle" x="503" y="-287.5" font-family="Helvetica,sans-Serif" font-size="10.00">occ/qm/mo.h</text>
</a>
</g>
</g>
<!-- Node29&#45;&gt;Node39 -->
<g id="edge84" class="edge">
<title>Node29&#45;&gt;Node39</title>
<path fill="none" stroke="midnightblue" d="M594.49,-336.32C576.93,-327.62 549.67,-314.12 529.47,-304.11"/>
<polygon fill="midnightblue" stroke="midnightblue" points="530.98,-300.96 520.47,-299.65 527.88,-307.23 530.98,-300.96"/>
</g>
<!-- Node30&#45;&gt;Node2 -->
<g id="edge53" class="edge">
<title>Node30&#45;&gt;Node2</title>
<path fill="none" stroke="midnightblue" d="M599.23,-282.96C528.96,-274.64 414.55,-258.99 402,-244 396.29,-237.18 399.66,-232.58 402,-224 418.88,-162.12 435.76,-140.93 493,-112 550.73,-82.82 623.64,-72.04 678.37,-68.3"/>
<polygon fill="midnightblue" stroke="midnightblue" points="678.6,-71.79 688.36,-67.68 678.17,-64.81 678.6,-71.79"/>
</g>
<!-- Node30&#45;&gt;Node20 -->
<g id="edge56" class="edge">
<title>Node30&#45;&gt;Node20</title>
<path fill="none" stroke="midnightblue" d="M652.89,-280.41C650.53,-260.47 645.82,-209.61 653,-168 654.57,-158.91 657.79,-149.22 660.94,-141.17"/>
<polygon fill="midnightblue" stroke="midnightblue" points="664.26,-142.3 664.89,-131.72 657.81,-139.6 664.26,-142.3"/>
</g>
<!-- Node30&#45;&gt;Node23 -->
<g id="edge54" class="edge">
<title>Node30&#45;&gt;Node23</title>
<path fill="none" stroke="midnightblue" d="M702.96,-280.44C759.15,-270.62 851.01,-254.57 909.17,-244.41"/>
<polygon fill="midnightblue" stroke="midnightblue" points="910.02,-247.81 919.26,-242.64 908.81,-240.92 910.02,-247.81"/>
</g>
<!-- Node30&#45;&gt;Node27 -->
<g id="edge55" class="edge">
<title>Node30&#45;&gt;Node27</title>
<path fill="none" stroke="midnightblue" d="M624.69,-280.44C593.16,-271.24 542.87,-256.56 508.01,-246.39"/>
<polygon fill="midnightblue" stroke="midnightblue" points="508.76,-242.96 498.18,-243.52 506.8,-249.68 508.76,-242.96"/>
</g>
<!-- Node31 -->
<g id="node31" class="node">
<title>Node31</title>
<g id="a_node31"><a xlink:title=" ">
<polygon fill="none" stroke="#bfbfbf" points="545.5,-224.5 545.5,-243.5 600.5,-243.5 600.5,-224.5 545.5,-224.5"/>
<text text-anchor="middle" x="573" y="-231.5" font-family="Helvetica,sans-Serif" font-size="10.00">fstream</text>
</a>
</g>
</g>
<!-- Node30&#45;&gt;Node31 -->
<g id="edge51" class="edge">
<title>Node30&#45;&gt;Node31</title>
<path fill="none" stroke="midnightblue" d="M640.99,-280.32C628.47,-271.98 609.32,-259.21 594.53,-249.35"/>
<polygon fill="midnightblue" stroke="midnightblue" points="596.24,-246.29 585.98,-243.65 592.36,-252.11 596.24,-246.29"/>
</g>
<!-- Node32 -->
<g id="node32" class="node">
<title>Node32</title>
<g id="a_node32"><a xlink:title=" ">
<polygon fill="none" stroke="#bfbfbf" points="695,-224.5 695,-243.5 749,-243.5 749,-224.5 695,-224.5"/>
<text text-anchor="middle" x="722" y="-231.5" font-family="Helvetica,sans-Serif" font-size="10.00">istream</text>
</a>
</g>
</g>
<!-- Node30&#45;&gt;Node32 -->
<g id="edge52" class="edge">
<title>Node30&#45;&gt;Node32</title>
<path fill="none" stroke="midnightblue" d="M664.93,-280.32C675.17,-272.18 690.72,-259.84 703,-250.09"/>
<polygon fill="midnightblue" stroke="midnightblue" points="705.22,-252.79 710.88,-243.83 700.87,-247.31 705.22,-252.79"/>
</g>
<!-- Node33&#45;&gt;Node2 -->
<g id="edge62" class="edge">
<title>Node33&#45;&gt;Node2</title>
<path fill="none" stroke="midnightblue" d="M338.7,-288.9C261.87,-287.48 125.81,-279.84 95,-244 89.2,-237.26 89.73,-231.16 95,-224 163.87,-130.52 517,-88.09 677.92,-73.38"/>
<polygon fill="midnightblue" stroke="midnightblue" points="678.59,-76.83 688.24,-72.45 677.96,-69.86 678.59,-76.83"/>
</g>
<!-- Node33&#45;&gt;Node7 -->
<g id="edge58" class="edge">
<title>Node33&#45;&gt;Node7</title>
<path fill="none" stroke="midnightblue" d="M436.61,-280.42C480.58,-271.81 549.61,-257.86 609,-244 643.43,-235.96 651.15,-229.98 686,-224 731.94,-216.11 1072.48,-222.35 1104,-188 1110.01,-181.45 1109.67,-174.84 1104,-168 1050.86,-103.9 1000.69,-148.91 914.12,-131.86"/>
<polygon fill="midnightblue" stroke="midnightblue" points="914.75,-128.41 904.23,-129.67 913.24,-135.25 914.75,-128.41"/>
</g>
<!-- Node33&#45;&gt;Node20 -->
<g id="edge66" class="edge">
<title>Node33&#45;&gt;Node20</title>
<path fill="none" stroke="midnightblue" d="M392.04,-280.24C392.39,-267.41 394.14,-242.99 402,-224 413.79,-195.5 416.99,-184.59 443,-168 502.93,-129.78 588.52,-122.94 635.3,-122.33"/>
<polygon fill="midnightblue" stroke="midnightblue" points="635.51,-125.83 645.49,-122.29 635.48,-118.83 635.51,-125.83"/>
</g>
<!-- Node33&#45;&gt;Node23 -->
<g id="edge63" class="edge">
<title>Node33&#45;&gt;Node23</title>
<path fill="none" stroke="midnightblue" d="M445.07,-281.1C448.09,-280.71 451.08,-280.34 454,-280 619.62,-260.67 816.42,-245.47 909.34,-238.75"/>
<polygon fill="midnightblue" stroke="midnightblue" points="909.62,-242.24 919.34,-238.03 909.11,-235.26 909.62,-242.24"/>
</g>
<!-- Node33&#45;&gt;Node27 -->
<g id="edge64" class="edge">
<title>Node33&#45;&gt;Node27</title>
<path fill="none" stroke="midnightblue" d="M404.37,-280.32C416.16,-272.06 434.13,-259.45 448.14,-249.63"/>
<polygon fill="midnightblue" stroke="midnightblue" points="450.48,-252.26 456.66,-243.65 446.46,-246.53 450.48,-252.26"/>
</g>
<!-- Node33&#45;&gt;Node31 -->
<g id="edge59" class="edge">
<title>Node33&#45;&gt;Node31</title>
<path fill="none" stroke="midnightblue" d="M420.68,-280.44C451.8,-271.16 501.6,-256.3 535.73,-246.12"/>
<polygon fill="midnightblue" stroke="midnightblue" points="536.76,-249.46 545.34,-243.25 534.76,-242.76 536.76,-249.46"/>
</g>
<!-- Node33&#45;&gt;Node32 -->
<g id="edge60" class="edge">
<title>Node33&#45;&gt;Node32</title>
<path fill="none" stroke="midnightblue" d="M445.26,-281.11C515.93,-270.57 636.89,-252.27 681,-244 682.25,-243.77 683.52,-243.52 684.8,-243.27"/>
<polygon fill="midnightblue" stroke="midnightblue" points="685.61,-246.68 694.7,-241.24 684.2,-239.82 685.61,-246.68"/>
</g>
<!-- Node34 -->
<g id="node34" class="node">
<title>Node34</title>
<g id="a_node34"><a xlink:title=" ">
<polygon fill="none" stroke="#bfbfbf" points="104.5,-224.5 104.5,-243.5 247.5,-243.5 247.5,-224.5 104.5,-224.5"/>
<text text-anchor="middle" x="176" y="-231.5" font-family="Helvetica,sans-Serif" font-size="10.00">ankerl/unordered_dense.h</text>
</a>
</g>
</g>
<!-- Node33&#45;&gt;Node34 -->
<g id="edge61" class="edge">
<title>Node33&#45;&gt;Node34</title>
<path fill="none" stroke="midnightblue" d="M357.77,-280.44C320.49,-271.12 260.73,-256.18 219.99,-246"/>
<polygon fill="midnightblue" stroke="midnightblue" points="220.62,-242.55 210.07,-243.52 218.92,-249.34 220.62,-242.55"/>
</g>
<!-- Node35 -->
<g id="node35" class="node">
<title>Node35</title>
<g id="a_node35"><a xlink:title=" ">
<polygon fill="none" stroke="#bfbfbf" points="265.5,-224.5 265.5,-243.5 316.5,-243.5 316.5,-224.5 265.5,-224.5"/>
<text text-anchor="middle" x="291" y="-231.5" font-family="Helvetica,sans-Serif" font-size="10.00">variant</text>
</a>
</g>
</g>
<!-- Node33&#45;&gt;Node35 -->
<g id="edge65" class="edge">
<title>Node33&#45;&gt;Node35</title>
<path fill="none" stroke="midnightblue" d="M375.77,-280.32C359.65,-271.7 334.7,-258.36 316.04,-248.39"/>
<polygon fill="midnightblue" stroke="midnightblue" points="317.66,-245.28 307.19,-243.65 314.36,-251.46 317.66,-245.28"/>
</g>
<!-- Node36&#45;&gt;Node2 -->
<g id="edge69" class="edge">
<title>Node36&#45;&gt;Node2</title>
<path fill="none" stroke="midnightblue" d="M1018.66,-283.83C1157.56,-270.19 1470.95,-226.1 1365,-112 1329.84,-74.14 994.11,-67.86 837.6,-67.01"/>
<polygon fill="midnightblue" stroke="midnightblue" points="837.57,-63.51 827.55,-66.96 837.54,-70.51 837.57,-63.51"/>
</g>
<!-- Node36&#45;&gt;Node14 -->
<g id="edge73" class="edge">
<title>Node36&#45;&gt;Node14</title>
<path fill="none" stroke="midnightblue" d="M1018.67,-288.95C1124.08,-287.82 1331.38,-280.82 1393,-244 1430.04,-221.87 1445.8,-169.64 1451.78,-141.59"/>
<polygon fill="midnightblue" stroke="midnightblue" points="1455.26,-141.99 1453.72,-131.51 1448.39,-140.67 1455.26,-141.99"/>
</g>
<!-- Node36&#45;&gt;Node20 -->
<g id="edge74" class="edge">
<title>Node36&#45;&gt;Node20</title>
<path fill="none" stroke="midnightblue" d="M935.28,-280.43C897.56,-264.46 815.7,-228.12 752,-188 728,-172.88 702.64,-152.25 686.36,-138.31"/>
<polygon fill="midnightblue" stroke="midnightblue" points="688.58,-135.61 678.73,-131.7 684,-140.9 688.58,-135.61"/>
</g>
<!-- Node36&#45;&gt;Node23 -->
<g id="edge70" class="edge">
<title>Node36&#45;&gt;Node23</title>
<path fill="none" stroke="midnightblue" d="M957.16,-280.08C958.08,-272.93 959.42,-262.64 960.58,-253.69"/>
<polygon fill="midnightblue" stroke="midnightblue" points="964.05,-254.12 961.87,-243.75 957.11,-253.22 964.05,-254.12"/>
</g>
<!-- Node36&#45;&gt;Node27 -->
<g id="edge71" class="edge">
<title>Node36&#45;&gt;Node27</title>
<path fill="none" stroke="midnightblue" d="M893.32,-282.81C813.19,-274.79 669.89,-260.03 537.05,-244.1"/>
<polygon fill="midnightblue" stroke="midnightblue" points="537.44,-240.62 527.09,-242.9 536.6,-247.57 537.44,-240.62"/>
</g>
<!-- Node36&#45;&gt;Node32 -->
<g id="edge68" class="edge">
<title>Node36&#45;&gt;Node32</title>
<path fill="none" stroke="midnightblue" d="M918.92,-280.44C875.14,-270.34 802.75,-253.63 759,-243.54"/>
<polygon fill="midnightblue" stroke="midnightblue" points="759.59,-240.08 749.06,-241.24 758.01,-246.9 759.59,-240.08"/>
</g>
<!-- Node37 -->
<g id="node37" class="node">
<title>Node37</title>
<g id="a_node37"><a xlink:title=" ">
<polygon fill="none" stroke="#bfbfbf" points="1063,-224.5 1063,-243.5 1119,-243.5 1119,-224.5 1063,-224.5"/>
<text text-anchor="middle" x="1091" y="-231.5" font-family="Helvetica,sans-Serif" font-size="10.00">optional</text>
</a>
</g>
</g>
<!-- Node36&#45;&gt;Node37 -->
<g id="edge72" class="edge">
<title>Node36&#45;&gt;Node37</title>
<path fill="none" stroke="midnightblue" d="M977.39,-280.44C999.71,-271.52 1034.9,-257.44 1060.21,-247.32"/>
<polygon fill="midnightblue" stroke="midnightblue" points="1061.72,-250.48 1069.71,-243.52 1059.12,-243.98 1061.72,-250.48"/>
</g>
<!-- Node38&#45;&gt;Node2 -->
<g id="edge79" class="edge">
<title>Node38&#45;&gt;Node2</title>
<path fill="none" stroke="midnightblue" d="M778.43,-280.3C777.1,-266.67 772.67,-240.16 758,-224 730.98,-194.23 706.12,-213.47 675,-188 651.53,-168.79 645.08,-160.94 636,-132 633.34,-123.52 630.92,-119.29 636,-112 647.32,-95.76 665.21,-85.36 683.83,-78.71"/>
<polygon fill="midnightblue" stroke="midnightblue" points="685.16,-81.96 693.6,-75.57 683.01,-75.3 685.16,-81.96"/>
</g>
<!-- Node38&#45;&gt;Node14 -->
<g id="edge82" class="edge">
<title>Node38&#45;&gt;Node14</title>
<path fill="none" stroke="midnightblue" d="M831.2,-283.39C879.77,-277.16 953.66,-265.09 1015,-244 1033.42,-237.67 1035.38,-229.72 1054,-224 1178.99,-185.58 1222.3,-230.4 1346,-188 1380.1,-176.31 1415.14,-153.01 1435.99,-137.72"/>
<polygon fill="midnightblue" stroke="midnightblue" points="1438.1,-140.51 1444.01,-131.71 1433.91,-134.9 1438.1,-140.51"/>
</g>
<!-- Node38&#45;&gt;Node20 -->
<g id="edge83" class="edge">
<title>Node38&#45;&gt;Node20</title>
<path fill="none" stroke="midnightblue" d="M784.44,-280.13C791.88,-266.73 803.01,-241.09 791,-224 763.84,-185.35 724.08,-221.72 691,-188 678.89,-175.65 673.44,-156.4 670.99,-142.05"/>
<polygon fill="midnightblue" stroke="midnightblue" points="674.41,-141.26 669.6,-131.82 667.48,-142.2 674.41,-141.26"/>
</g>
<!-- Node38&#45;&gt;Node23 -->
<g id="edge80" class="edge">
<title>Node38&#45;&gt;Node23</title>
<path fill="none" stroke="midnightblue" d="M808.16,-280.44C839.51,-271.24 889.53,-256.56 924.2,-246.39"/>
<polygon fill="midnightblue" stroke="midnightblue" points="925.37,-249.69 933.98,-243.52 923.4,-242.97 925.37,-249.69"/>
</g>
<!-- Node38&#45;&gt;Node25 -->
<g id="edge78" class="edge">
<title>Node38&#45;&gt;Node25</title>
<path fill="none" stroke="midnightblue" d="M793.95,-280.47C805.93,-272.7 821.87,-260 829,-244 832.62,-235.88 831.96,-232.38 829,-224 822.17,-204.62 812.04,-204.65 800,-188 788.6,-172.23 776.65,-153.5 768.43,-140.2"/>
<polygon fill="midnightblue" stroke="midnightblue" points="771.37,-138.3 763.16,-131.6 765.4,-141.96 771.37,-138.3"/>
</g>
<!-- Node38&#45;&gt;Node27 -->
<g id="edge81" class="edge">
<title>Node38&#45;&gt;Node27</title>
<path fill="none" stroke="midnightblue" d="M729.88,-280.44C675.12,-270.9 586.59,-255.48 528.09,-245.29"/>
<polygon fill="midnightblue" stroke="midnightblue" points="528.34,-241.78 517.89,-243.52 527.14,-248.68 528.34,-241.78"/>
</g>
<!-- Node38&#45;&gt;Node31 -->
<g id="edge76" class="edge">
<title>Node38&#45;&gt;Node31</title>
<path fill="none" stroke="midnightblue" d="M746.36,-280.44C709.39,-270.75 649.25,-254.99 610.41,-244.81"/>
<polygon fill="midnightblue" stroke="midnightblue" points="611.1,-241.37 600.54,-242.22 609.33,-248.14 611.1,-241.37"/>
</g>
<!-- Node38&#45;&gt;Node32 -->
<g id="edge77" class="edge">
<title>Node38&#45;&gt;Node32</title>
<path fill="none" stroke="midnightblue" d="M769.84,-280.32C761.5,-272.42 748.97,-260.55 738.82,-250.94"/>
<polygon fill="midnightblue" stroke="midnightblue" points="740.99,-248.17 731.32,-243.83 736.18,-253.25 740.99,-248.17"/>
</g>
<!-- Node39&#45;&gt;Node27 -->
<g id="edge85" class="edge">
<title>Node39&#45;&gt;Node27</title>
<path fill="none" stroke="midnightblue" d="M497.39,-280.08C492.63,-272.53 485.68,-261.49 479.85,-252.23"/>
<polygon fill="midnightblue" stroke="midnightblue" points="482.8,-250.35 474.51,-243.75 476.88,-254.08 482.8,-250.35"/>
</g>
</g>
</svg>
