<?xml version="1.0" encoding="UTF-8" standalone="no"?>
<!DOCTYPE svg PUBLIC "-//W3C//DTD SVG 1.1//EN"
 "http://www.w3.org/Graphics/SVG/1.1/DTD/svg11.dtd">
<!-- Generated by graphviz version 2.43.0 (0)
 -->
<!-- Title: /home/runner/work/occ/occ/include/occ/dft/hirshfeld.h Pages: 1 -->
<svg width="1409pt" height="379pt"
 viewBox="0.00 0.00 1408.75 379.00" xmlns="http://www.w3.org/2000/svg" xmlns:xlink="http://www.w3.org/1999/xlink">
<g id="graph0" class="graph" transform="scale(1 1) rotate(0) translate(4 375)">
<title>/home/runner/work/occ/occ/include/occ/dft/hirshfeld.h</title>
<!-- Node1 -->
<g id="Node000001" class="node">
<title>Node1</title>
<g id="a_Node000001"><a xlink:title=" ">
<polygon fill="#999999" stroke="#666666" points="1039.75,-371 911.75,-371 911.75,-330 1039.75,-330 1039.75,-371"/>
<text text-anchor="start" x="919.75" y="-359" font-family="Helvetica,sans-Serif" font-size="10.00">/home/runner/work/occ</text>
<text text-anchor="start" x="919.75" y="-348" font-family="Helvetica,sans-Serif" font-size="10.00">/occ/include/occ/dft</text>
<text text-anchor="middle" x="975.75" y="-337" font-family="Helvetica,sans-Serif" font-size="10.00">/hirshfeld.h</text>
</a>
</g>
</g>
<!-- Node2 -->
<g id="Node000002" class="node">
<title>Node2</title>
<g id="a_Node000002"><a xlink:href="linear__algebra_8h.html" target="_top" xlink:title=" ">
<polygon fill="white" stroke="#666666" points="548.25,-74 409.25,-74 409.25,-55 548.25,-55 548.25,-74"/>
<text text-anchor="middle" x="478.75" y="-62" font-family="Helvetica,sans-Serif" font-size="10.00">occ/core/linear_algebra.h</text>
</a>
</g>
</g>
<!-- Node1&#45;&gt;Node2 -->
<g id="edge1_Node000001_Node000002" class="edge">
<title>Node1&#45;&gt;Node2</title>
<g id="a_edge1_Node000001_Node000002"><a xlink:title=" ">
<path fill="none" stroke="#63b8ff" d="M1039.84,-344.9C1158.57,-334.61 1400.75,-304.54 1400.75,-230.5 1400.75,-230.5 1400.75,-230.5 1400.75,-173.5 1400.75,-134.98 1376.66,-126.3 1341.75,-110 1271.98,-77.42 759.07,-68.48 558.67,-66.21"/>
<polygon fill="#63b8ff" stroke="#63b8ff" points="558.54,-62.71 548.5,-66.1 558.46,-69.71 558.54,-62.71"/>
</a>
</g>
</g>
<!-- Node6 -->
<g id="Node000006" class="node">
<title>Node6</title>
<g id="a_Node000006"><a xlink:href="multipole_8h.html" target="_top" xlink:title=" ">
<polygon fill="white" stroke="#666666" points="158.75,-184 42.75,-184 42.75,-165 158.75,-165 158.75,-184"/>
<text text-anchor="middle" x="100.75" y="-172" font-family="Helvetica,sans-Serif" font-size="10.00">occ/core/multipole.h</text>
</a>
</g>
</g>
<!-- Node1&#45;&gt;Node6 -->
<g id="edge5_Node000001_Node000006" class="edge">
<title>Node1&#45;&gt;Node6</title>
<g id="a_edge5_Node000001_Node000006"><a xlink:title=" ">
<path fill="none" stroke="#63b8ff" d="M911.7,-347.61C810.68,-343.56 608.7,-331.16 441.75,-294 322.62,-267.48 187.42,-212.74 129.53,-188.06"/>
<polygon fill="#63b8ff" stroke="#63b8ff" points="130.84,-184.81 120.27,-184.09 128.08,-191.25 130.84,-184.81"/>
</a>
</g>
</g>
<!-- Node9 -->
<g id="Node000009" class="node">
<title>Node9</title>
<g id="a_Node000009"><a xlink:href="grid_8h.html" target="_top" xlink:title=" ">
<polygon fill="white" stroke="#666666" points="592.75,-294 512.75,-294 512.75,-275 592.75,-275 592.75,-294"/>
<text text-anchor="middle" x="552.75" y="-282" font-family="Helvetica,sans-Serif" font-size="10.00">occ/dft/grid.h</text>
</a>
</g>
</g>
<!-- Node1&#45;&gt;Node9 -->
<g id="edge9_Node000001_Node000009" class="edge">
<title>Node1&#45;&gt;Node9</title>
<g id="a_edge9_Node000001_Node000009"><a xlink:title=" ">
<path fill="none" stroke="#63b8ff" d="M911.51,-339.78C826.91,-326.98 679.89,-304.74 602.96,-293.1"/>
<polygon fill="#63b8ff" stroke="#63b8ff" points="603.44,-289.63 593.03,-291.59 602.39,-296.55 603.44,-289.63"/>
</a>
</g>
</g>
<!-- Node11 -->
<g id="Node000011" class="node">
<title>Node11</title>
<g id="a_Node000011"><a xlink:href="shell_8h.html" target="_top" xlink:title=" ">
<polygon fill="white" stroke="#666666" points="386.25,-239 299.25,-239 299.25,-220 386.25,-220 386.25,-239"/>
<text text-anchor="middle" x="342.75" y="-227" font-family="Helvetica,sans-Serif" font-size="10.00">occ/qm/shell.h</text>
</a>
</g>
</g>
<!-- Node1&#45;&gt;Node11 -->
<g id="edge43_Node000001_Node000011" class="edge">
<title>Node1&#45;&gt;Node11</title>
<g id="a_edge43_Node000001_Node000011"><a xlink:title=" ">
<path fill="none" stroke="#63b8ff" d="M911.44,-347.2C819.71,-342.73 646.59,-329.92 503.75,-294 454.85,-281.7 400.87,-258.24 369.49,-243.53"/>
<polygon fill="#63b8ff" stroke="#63b8ff" points="370.66,-240.21 360.13,-239.09 367.66,-246.54 370.66,-240.21"/>
</a>
</g>
</g>
<!-- Node22 -->
<g id="Node000022" class="node">
<title>Node22</title>
<g id="a_Node000022"><a xlink:title=" ">
<polygon fill="#e0e0e0" stroke="#999999" points="1092.25,-129 1045.25,-129 1045.25,-110 1092.25,-110 1092.25,-129"/>
<text text-anchor="middle" x="1068.75" y="-117" font-family="Helvetica,sans-Serif" font-size="10.00">vector</text>
</a>
</g>
</g>
<!-- Node1&#45;&gt;Node22 -->
<g id="edge50_Node000001_Node000022" class="edge">
<title>Node1&#45;&gt;Node22</title>
<g id="a_edge50_Node000001_Node000022"><a xlink:title=" ">
<path fill="none" stroke="#63b8ff" d="M972.59,-329.9C967.87,-294.09 962.77,-216.95 995.75,-165 1005.02,-150.4 1020.97,-139.88 1035.6,-132.74"/>
<polygon fill="#63b8ff" stroke="#63b8ff" points="1037.26,-135.83 1044.94,-128.53 1034.38,-129.45 1037.26,-135.83"/>
</a>
</g>
</g>
<!-- Node23 -->
<g id="Node000023" class="node">
<title>Node23</title>
<g id="a_Node000023"><a xlink:href="mo_8h.html" target="_top" xlink:title=" ">
<polygon fill="white" stroke="#666666" points="1190.75,-294 1110.75,-294 1110.75,-275 1190.75,-275 1190.75,-294"/>
<text text-anchor="middle" x="1150.75" y="-282" font-family="Helvetica,sans-Serif" font-size="10.00">occ/qm/mo.h</text>
</a>
</g>
</g>
<!-- Node1&#45;&gt;Node23 -->
<g id="edge35_Node000001_Node000023" class="edge">
<title>Node1&#45;&gt;Node23</title>
<g id="a_edge35_Node000001_Node000023"><a xlink:title=" ">
<path fill="none" stroke="#63b8ff" d="M1029.21,-329.95C1058.01,-319.42 1092.64,-306.75 1117.56,-297.64"/>
<polygon fill="#63b8ff" stroke="#63b8ff" points="1119.07,-300.81 1127.26,-294.09 1116.67,-294.24 1119.07,-300.81"/>
</a>
</g>
</g>
<!-- Node27 -->
<g id="Node000027" class="node">
<title>Node27</title>
<g id="a_Node000027"><a xlink:href="slaterbasis_8h.html" target="_top" xlink:title=" ">
<polygon fill="white" stroke="#666666" points="1133.25,-184 1004.25,-184 1004.25,-165 1133.25,-165 1133.25,-184"/>
<text text-anchor="middle" x="1068.75" y="-172" font-family="Helvetica,sans-Serif" font-size="10.00">occ/slater/slaterbasis.h</text>
</a>
</g>
</g>
<!-- Node1&#45;&gt;Node27 -->
<g id="edge44_Node000001_Node000027" class="edge">
<title>Node1&#45;&gt;Node27</title>
<g id="a_edge44_Node000001_Node000027"><a xlink:title=" ">
<path fill="none" stroke="#63b8ff" d="M986.24,-329.88C1004.49,-295.73 1041.82,-225.89 1059.32,-193.16"/>
<polygon fill="#63b8ff" stroke="#63b8ff" points="1062.44,-194.74 1064.06,-184.27 1056.26,-191.44 1062.44,-194.74"/>
</a>
</g>
</g>
<!-- Node3 -->
<g id="Node000003" class="node">
<title>Node3</title>
<g id="a_Node000003"><a xlink:title=" ">
<polygon fill="#e0e0e0" stroke="#999999" points="513.25,-19 436.25,-19 436.25,0 513.25,0 513.25,-19"/>
<text text-anchor="middle" x="474.75" y="-7" font-family="Helvetica,sans-Serif" font-size="10.00">Eigen/Dense</text>
</a>
</g>
</g>
<!-- Node2&#45;&gt;Node3 -->
<g id="edge2_Node000002_Node000003" class="edge">
<title>Node2&#45;&gt;Node3</title>
<g id="a_edge2_Node000002_Node000003"><a xlink:title=" ">
<path fill="none" stroke="#63b8ff" d="M478.09,-54.75C477.57,-47.8 476.82,-37.85 476.16,-29.13"/>
<polygon fill="#63b8ff" stroke="#63b8ff" points="479.65,-28.8 475.4,-19.09 472.66,-29.32 479.65,-28.8"/>
</a>
</g>
</g>
<!-- Node4 -->
<g id="Node000004" class="node">
<title>Node4</title>
<g id="a_Node000004"><a xlink:title=" ">
<polygon fill="#e0e0e0" stroke="#999999" points="624.25,-19 531.25,-19 531.25,0 624.25,0 624.25,-19"/>
<text text-anchor="middle" x="577.75" y="-7" font-family="Helvetica,sans-Serif" font-size="10.00">Eigen/StdVector</text>
</a>
</g>
</g>
<!-- Node2&#45;&gt;Node4 -->
<g id="edge3_Node000002_Node000004" class="edge">
<title>Node2&#45;&gt;Node4</title>
<g id="a_edge3_Node000002_Node000004"><a xlink:title=" ">
<path fill="none" stroke="#63b8ff" d="M494.66,-54.98C510.3,-46.61 534.41,-33.7 552.64,-23.95"/>
<polygon fill="#63b8ff" stroke="#63b8ff" points="554.39,-26.98 561.56,-19.17 551.09,-20.8 554.39,-26.98"/>
</a>
</g>
</g>
<!-- Node5 -->
<g id="Node000005" class="node">
<title>Node5</title>
<g id="a_Node000005"><a xlink:title=" ">
<polygon fill="#e0e0e0" stroke="#999999" points="414.25,-19 347.25,-19 347.25,0 414.25,0 414.25,-19"/>
<text text-anchor="middle" x="380.75" y="-7" font-family="Helvetica,sans-Serif" font-size="10.00">fmt/core.h</text>
</a>
</g>
</g>
<!-- Node2&#45;&gt;Node5 -->
<g id="edge4_Node000002_Node000005" class="edge">
<title>Node2&#45;&gt;Node5</title>
<g id="a_edge4_Node000002_Node000005"><a xlink:title=" ">
<path fill="none" stroke="#63b8ff" d="M463.01,-54.98C447.53,-46.61 423.66,-33.7 405.62,-23.95"/>
<polygon fill="#63b8ff" stroke="#63b8ff" points="407.25,-20.85 396.79,-19.17 403.92,-27.01 407.25,-20.85"/>
</a>
</g>
</g>
<!-- Node6&#45;&gt;Node2 -->
<g id="edge8_Node000006_Node000002" class="edge">
<title>Node6&#45;&gt;Node2</title>
<g id="a_edge8_Node000006_Node000002"><a xlink:title=" ">
<path fill="none" stroke="#63b8ff" d="M104.71,-164.76C111.62,-150.61 127.33,-122.96 149.75,-110 190.89,-86.23 315.51,-74.62 399.01,-69.36"/>
<polygon fill="#63b8ff" stroke="#63b8ff" points="399.46,-72.84 409.23,-68.74 399.04,-65.86 399.46,-72.84"/>
</a>
</g>
</g>
<!-- Node7 -->
<g id="Node000007" class="node">
<title>Node7</title>
<g id="a_Node000007"><a xlink:title=" ">
<polygon fill="#e0e0e0" stroke="#999999" points="200.75,-129 158.75,-129 158.75,-110 200.75,-110 200.75,-129"/>
<text text-anchor="middle" x="179.75" y="-117" font-family="Helvetica,sans-Serif" font-size="10.00">array</text>
</a>
</g>
</g>
<!-- Node6&#45;&gt;Node7 -->
<g id="edge6_Node000006_Node000007" class="edge">
<title>Node6&#45;&gt;Node7</title>
<g id="a_edge6_Node000006_Node000007"><a xlink:title=" ">
<path fill="none" stroke="#63b8ff" d="M113.45,-164.98C125.58,-156.84 144.11,-144.41 158.5,-134.76"/>
<polygon fill="#63b8ff" stroke="#63b8ff" points="160.48,-137.65 166.83,-129.17 156.58,-131.84 160.48,-137.65"/>
</a>
</g>
</g>
<!-- Node8 -->
<g id="Node000008" class="node">
<title>Node8</title>
<g id="a_Node000008"><a xlink:title=" ">
<polygon fill="#e0e0e0" stroke="#999999" points="102.25,-129 23.25,-129 23.25,-110 102.25,-110 102.25,-129"/>
<text text-anchor="middle" x="62.75" y="-117" font-family="Helvetica,sans-Serif" font-size="10.00">fmt/format.h</text>
</a>
</g>
</g>
<!-- Node6&#45;&gt;Node8 -->
<g id="edge7_Node000006_Node000008" class="edge">
<title>Node6&#45;&gt;Node8</title>
<g id="a_edge7_Node000006_Node000008"><a xlink:title=" ">
<path fill="none" stroke="#63b8ff" d="M94.48,-164.75C89.17,-157.34 81.4,-146.5 74.88,-137.41"/>
<polygon fill="#63b8ff" stroke="#63b8ff" points="77.58,-135.18 68.91,-129.09 71.89,-139.26 77.58,-135.18"/>
</a>
</g>
</g>
<!-- Node9&#45;&gt;Node2 -->
<g id="edge10_Node000009_Node000002" class="edge">
<title>Node9&#45;&gt;Node2</title>
<g id="a_edge10_Node000009_Node000002"><a xlink:title=" ">
<path fill="none" stroke="#63b8ff" d="M550.51,-274.76C547.25,-262.41 540.82,-239.22 533.75,-220 518.5,-178.54 507.78,-170.89 493.75,-129 488.8,-114.21 484.84,-96.96 482.23,-84.18"/>
<polygon fill="#63b8ff" stroke="#63b8ff" points="485.65,-83.41 480.3,-74.27 478.78,-84.75 485.65,-83.41"/>
</a>
</g>
</g>
<!-- Node10 -->
<g id="Node000010" class="node">
<title>Node10</title>
<g id="a_Node000010"><a xlink:href="grid__settings_8h.html" target="_top" xlink:title=" ">
<polygon fill="white" stroke="#666666" points="524.75,-239 404.75,-239 404.75,-220 524.75,-220 524.75,-239"/>
<text text-anchor="middle" x="464.75" y="-227" font-family="Helvetica,sans-Serif" font-size="10.00">occ/io/grid_settings.h</text>
</a>
</g>
</g>
<!-- Node9&#45;&gt;Node10 -->
<g id="edge11_Node000009_Node000010" class="edge">
<title>Node9&#45;&gt;Node10</title>
<g id="a_edge11_Node000009_Node000010"><a xlink:title=" ">
<path fill="none" stroke="#63b8ff" d="M538.62,-274.98C524.97,-266.77 504.07,-254.18 487.98,-244.49"/>
<polygon fill="#63b8ff" stroke="#63b8ff" points="489.52,-241.33 479.15,-239.17 485.91,-247.33 489.52,-241.33"/>
</a>
</g>
</g>
<!-- Node9&#45;&gt;Node11 -->
<g id="edge12_Node000009_Node000011" class="edge">
<title>Node9&#45;&gt;Node11</title>
<g id="a_edge12_Node000009_Node000011"><a xlink:title=" ">
<path fill="none" stroke="#63b8ff" d="M519.01,-274.98C483.07,-265.91 426.03,-251.52 386.62,-241.57"/>
<polygon fill="#63b8ff" stroke="#63b8ff" points="387.31,-238.14 376.76,-239.08 385.6,-244.92 387.31,-238.14"/>
</a>
</g>
</g>
<!-- Node9&#45;&gt;Node22 -->
<g id="edge34_Node000009_Node000022" class="edge">
<title>Node9&#45;&gt;Node22</title>
<g id="a_edge34_Node000009_Node000022"><a xlink:title=" ">
<path fill="none" stroke="#63b8ff" d="M579.77,-274.97C666.8,-247.47 939.73,-161.26 1035.3,-131.07"/>
<polygon fill="#63b8ff" stroke="#63b8ff" points="1036.54,-134.35 1045.02,-128 1034.43,-127.67 1036.54,-134.35"/>
</a>
</g>
</g>
<!-- Node11&#45;&gt;Node2 -->
<g id="edge17_Node000011_Node000002" class="edge">
<title>Node11&#45;&gt;Node2</title>
<g id="a_edge17_Node000011_Node000002"><a xlink:title=" ">
<path fill="none" stroke="#63b8ff" d="M350.07,-219.74C371.84,-193.65 436.48,-116.17 464.98,-82"/>
<polygon fill="#63b8ff" stroke="#63b8ff" points="467.69,-84.23 471.41,-74.31 462.31,-79.74 467.69,-84.23"/>
</a>
</g>
</g>
<!-- Node11&#45;&gt;Node5 -->
<g id="edge14_Node000011_Node000005" class="edge">
<title>Node11&#45;&gt;Node5</title>
<g id="a_edge14_Node000011_Node000005"><a xlink:title=" ">
<path fill="none" stroke="#63b8ff" d="M299.01,-228.01C193.35,-225.29 -61.68,-208.61 13.75,-110 53.2,-58.43 248.72,-27.36 337.17,-15.74"/>
<polygon fill="#63b8ff" stroke="#63b8ff" points="337.68,-19.2 347.15,-14.45 336.79,-12.26 337.68,-19.2"/>
</a>
</g>
</g>
<!-- Node11&#45;&gt;Node7 -->
<g id="edge13_Node000011_Node000007" class="edge">
<title>Node11&#45;&gt;Node7</title>
<g id="a_edge13_Node000011_Node000007"><a xlink:title=" ">
<path fill="none" stroke="#63b8ff" d="M299.03,-223.93C269.43,-218.73 231.23,-207.65 205.75,-184 193.08,-172.23 186.42,-153.39 183.03,-139.28"/>
<polygon fill="#63b8ff" stroke="#63b8ff" points="186.4,-138.3 180.95,-129.21 179.54,-139.7 186.4,-138.3"/>
</a>
</g>
</g>
<!-- Node12 -->
<g id="Node000012" class="node">
<title>Node12</title>
<g id="a_Node000012"><a xlink:href="atom_8h.html" target="_top" xlink:title=" ">
<polygon fill="white" stroke="#666666" points="352.25,-129 257.25,-129 257.25,-110 352.25,-110 352.25,-129"/>
<text text-anchor="middle" x="304.75" y="-117" font-family="Helvetica,sans-Serif" font-size="10.00">occ/core/atom.h</text>
</a>
</g>
</g>
<!-- Node11&#45;&gt;Node12 -->
<g id="edge15_Node000011_Node000012" class="edge">
<title>Node11&#45;&gt;Node12</title>
<g id="a_edge15_Node000011_Node000012"><a xlink:title=" ">
<path fill="none" stroke="#63b8ff" d="M347.73,-219.91C354.3,-207.34 364.14,-183.44 355.75,-165 350.13,-152.63 339.18,-142.36 328.87,-134.81"/>
<polygon fill="#63b8ff" stroke="#63b8ff" points="330.72,-131.84 320.48,-129.12 326.8,-137.63 330.72,-131.84"/>
</a>
</g>
</g>
<!-- Node13 -->
<g id="Node000013" class="node">
<title>Node13</title>
<g id="a_Node000013"><a xlink:href="point__charge_8h.html" target="_top" xlink:title=" ">
<polygon fill="white" stroke="#666666" points="346.75,-184 214.75,-184 214.75,-165 346.75,-165 346.75,-184"/>
<text text-anchor="middle" x="280.75" y="-172" font-family="Helvetica,sans-Serif" font-size="10.00">occ/core/point_charge.h</text>
</a>
</g>
</g>
<!-- Node11&#45;&gt;Node13 -->
<g id="edge18_Node000011_Node000013" class="edge">
<title>Node11&#45;&gt;Node13</title>
<g id="a_edge18_Node000011_Node000013"><a xlink:title=" ">
<path fill="none" stroke="#63b8ff" d="M332.79,-219.98C323.63,-212.15 309.82,-200.34 298.73,-190.86"/>
<polygon fill="#63b8ff" stroke="#63b8ff" points="300.77,-188.01 290.9,-184.17 296.22,-193.33 300.77,-188.01"/>
</a>
</g>
</g>
<!-- Node14 -->
<g id="Node000014" class="node">
<title>Node14</title>
<g id="a_Node000014"><a xlink:href="util_8h.html" target="_top" xlink:title=" ">
<polygon fill="white" stroke="#666666" points="786.25,-184 701.25,-184 701.25,-165 786.25,-165 786.25,-184"/>
<text text-anchor="middle" x="743.75" y="-172" font-family="Helvetica,sans-Serif" font-size="10.00">occ/core/util.h</text>
</a>
</g>
</g>
<!-- Node11&#45;&gt;Node14 -->
<g id="edge22_Node000011_Node000014" class="edge">
<title>Node11&#45;&gt;Node14</title>
<g id="a_edge22_Node000011_Node000014"><a xlink:title=" ">
<path fill="none" stroke="#63b8ff" d="M386.41,-221.39C389.57,-220.91 392.71,-220.44 395.75,-220 500.26,-204.94 622.8,-189.87 691.04,-181.71"/>
<polygon fill="#63b8ff" stroke="#63b8ff" points="691.59,-185.17 701.11,-180.51 690.76,-178.22 691.59,-185.17"/>
</a>
</g>
</g>
<!-- Node11&#45;&gt;Node22 -->
<g id="edge33_Node000011_Node000022" class="edge">
<title>Node11&#45;&gt;Node22</title>
<g id="a_edge33_Node000011_Node000022"><a xlink:title=" ">
<path fill="none" stroke="#63b8ff" d="M386.39,-221.26C389.56,-220.81 392.7,-220.38 395.75,-220 572.87,-197.85 619.47,-212 795.75,-184 883.2,-170.11 984.26,-143.88 1035.4,-129.88"/>
<polygon fill="#63b8ff" stroke="#63b8ff" points="1036.53,-133.2 1045.24,-127.16 1034.67,-126.45 1036.53,-133.2"/>
</a>
</g>
</g>
<!-- Node12&#45;&gt;Node2 -->
<g id="edge16_Node000012_Node000002" class="edge">
<title>Node12&#45;&gt;Node2</title>
<g id="a_edge16_Node000012_Node000002"><a xlink:title=" ">
<path fill="none" stroke="#63b8ff" d="M332.71,-109.98C362.05,-101.05 408.35,-86.94 440.94,-77.02"/>
<polygon fill="#63b8ff" stroke="#63b8ff" points="442.03,-80.34 450.58,-74.08 439.99,-73.65 442.03,-80.34"/>
</a>
</g>
</g>
<!-- Node13&#45;&gt;Node2 -->
<g id="edge21_Node000013_Node000002" class="edge">
<title>Node13&#45;&gt;Node2</title>
<g id="a_edge21_Node000013_Node000002"><a xlink:title=" ">
<path fill="none" stroke="#63b8ff" d="M269.99,-164.59C255.61,-151.63 233.51,-127.24 247.75,-110 266.87,-86.85 340.19,-75.62 399.17,-70.24"/>
<polygon fill="#63b8ff" stroke="#63b8ff" points="399.59,-73.72 409.25,-69.37 398.99,-66.75 399.59,-73.72"/>
</a>
</g>
</g>
<!-- Node13&#45;&gt;Node7 -->
<g id="edge19_Node000013_Node000007" class="edge">
<title>Node13&#45;&gt;Node7</title>
<g id="a_edge19_Node000013_Node000007"><a xlink:title=" ">
<path fill="none" stroke="#63b8ff" d="M264.53,-164.98C248.57,-156.61 223.97,-143.7 205.38,-133.95"/>
<polygon fill="#63b8ff" stroke="#63b8ff" points="206.76,-130.72 196.28,-129.17 203.51,-136.92 206.76,-130.72"/>
</a>
</g>
</g>
<!-- Node13&#45;&gt;Node12 -->
<g id="edge20_Node000013_Node000012" class="edge">
<title>Node13&#45;&gt;Node12</title>
<g id="a_edge20_Node000013_Node000012"><a xlink:title=" ">
<path fill="none" stroke="#63b8ff" d="M284.72,-164.75C287.97,-157.57 292.67,-147.18 296.71,-138.27"/>
<polygon fill="#63b8ff" stroke="#63b8ff" points="299.93,-139.64 300.86,-129.09 293.55,-136.75 299.93,-139.64"/>
</a>
</g>
</g>
<!-- Node14&#45;&gt;Node2 -->
<g id="edge30_Node000014_Node000002" class="edge">
<title>Node14&#45;&gt;Node2</title>
<g id="a_edge30_Node000014_Node000002"><a xlink:title=" ">
<path fill="none" stroke="#63b8ff" d="M701.08,-169.49C643.3,-163.34 544.02,-150.05 514.75,-129 499.5,-118.03 489.85,-98.48 484.42,-83.96"/>
<polygon fill="#63b8ff" stroke="#63b8ff" points="487.59,-82.41 481.06,-74.06 480.96,-84.65 487.59,-82.41"/>
</a>
</g>
</g>
<!-- Node14&#45;&gt;Node5 -->
<g id="edge26_Node000014_Node000005" class="edge">
<title>Node14&#45;&gt;Node5</title>
<g id="a_edge26_Node000014_Node000005"><a xlink:title=" ">
<path fill="none" stroke="#63b8ff" d="M700.98,-170.49C650.23,-165.89 563.67,-154.74 493.75,-129 448.33,-112.28 429.66,-112.06 399.75,-74 389.64,-61.14 384.9,-42.97 382.69,-29.36"/>
<polygon fill="#63b8ff" stroke="#63b8ff" points="386.13,-28.68 381.36,-19.22 379.19,-29.59 386.13,-28.68"/>
</a>
</g>
</g>
<!-- Node15 -->
<g id="Node000015" class="node">
<title>Node15</title>
<g id="a_Node000015"><a xlink:title=" ">
<polygon fill="#e0e0e0" stroke="#999999" points="964.75,-129 900.75,-129 900.75,-110 964.75,-110 964.75,-129"/>
<text text-anchor="middle" x="932.75" y="-117" font-family="Helvetica,sans-Serif" font-size="10.00">algorithm</text>
</a>
</g>
</g>
<!-- Node14&#45;&gt;Node15 -->
<g id="edge23_Node000014_Node000015" class="edge">
<title>Node14&#45;&gt;Node15</title>
<g id="a_edge23_Node000014_Node000015"><a xlink:title=" ">
<path fill="none" stroke="#63b8ff" d="M774.12,-164.98C806.13,-156.01 856.72,-141.82 892.14,-131.89"/>
<polygon fill="#63b8ff" stroke="#63b8ff" points="893.47,-135.15 902.15,-129.08 891.58,-128.41 893.47,-135.15"/>
</a>
</g>
</g>
<!-- Node16 -->
<g id="Node000016" class="node">
<title>Node16</title>
<g id="a_Node000016"><a xlink:title=" ">
<polygon fill="#e0e0e0" stroke="#999999" points="572.25,-129 523.25,-129 523.25,-110 572.25,-110 572.25,-129"/>
<text text-anchor="middle" x="547.75" y="-117" font-family="Helvetica,sans-Serif" font-size="10.00">cctype</text>
</a>
</g>
</g>
<!-- Node14&#45;&gt;Node16 -->
<g id="edge24_Node000014_Node000016" class="edge">
<title>Node14&#45;&gt;Node16</title>
<g id="a_edge24_Node000014_Node000016"><a xlink:title=" ">
<path fill="none" stroke="#63b8ff" d="M712.26,-164.98C676.65,-155.36 618.86,-139.73 582.11,-129.79"/>
<polygon fill="#63b8ff" stroke="#63b8ff" points="582.91,-126.38 572.34,-127.15 581.08,-133.14 582.91,-126.38"/>
</a>
</g>
</g>
<!-- Node17 -->
<g id="Node000017" class="node">
<title>Node17</title>
<g id="a_Node000017"><a xlink:title=" ">
<polygon fill="#e0e0e0" stroke="#999999" points="640.75,-129 590.75,-129 590.75,-110 640.75,-110 640.75,-129"/>
<text text-anchor="middle" x="615.75" y="-117" font-family="Helvetica,sans-Serif" font-size="10.00">chrono</text>
</a>
</g>
</g>
<!-- Node14&#45;&gt;Node17 -->
<g id="edge25_Node000014_Node000017" class="edge">
<title>Node14&#45;&gt;Node17</title>
<g id="a_edge25_Node000014_Node000017"><a xlink:title=" ">
<path fill="none" stroke="#63b8ff" d="M723.19,-164.98C702.32,-156.34 669.78,-142.87 645.98,-133.02"/>
<polygon fill="#63b8ff" stroke="#63b8ff" points="647.27,-129.76 636.69,-129.17 644.59,-136.23 647.27,-129.76"/>
</a>
</g>
</g>
<!-- Node18 -->
<g id="Node000018" class="node">
<title>Node18</title>
<g id="a_Node000018"><a xlink:title=" ">
<polygon fill="#e0e0e0" stroke="#999999" points="744.75,-129 658.75,-129 658.75,-110 744.75,-110 744.75,-129"/>
<text text-anchor="middle" x="701.75" y="-117" font-family="Helvetica,sans-Serif" font-size="10.00">fmt/ostream.h</text>
</a>
</g>
</g>
<!-- Node14&#45;&gt;Node18 -->
<g id="edge27_Node000014_Node000018" class="edge">
<title>Node14&#45;&gt;Node18</title>
<g id="a_edge27_Node000014_Node000018"><a xlink:title=" ">
<path fill="none" stroke="#63b8ff" d="M736.82,-164.75C730.89,-157.26 722.18,-146.28 714.93,-137.13"/>
<polygon fill="#63b8ff" stroke="#63b8ff" points="717.51,-134.75 708.56,-129.09 712.03,-139.1 717.51,-134.75"/>
</a>
</g>
</g>
<!-- Node19 -->
<g id="Node000019" class="node">
<title>Node19</title>
<g id="a_Node000019"><a xlink:title=" ">
<polygon fill="#e0e0e0" stroke="#999999" points="808.75,-129 762.75,-129 762.75,-110 808.75,-110 808.75,-129"/>
<text text-anchor="middle" x="785.75" y="-117" font-family="Helvetica,sans-Serif" font-size="10.00">locale</text>
</a>
</g>
</g>
<!-- Node14&#45;&gt;Node19 -->
<g id="edge28_Node000014_Node000019" class="edge">
<title>Node14&#45;&gt;Node19</title>
<g id="a_edge28_Node000014_Node000019"><a xlink:title=" ">
<path fill="none" stroke="#63b8ff" d="M750.69,-164.75C756.62,-157.26 765.33,-146.28 772.58,-137.13"/>
<polygon fill="#63b8ff" stroke="#63b8ff" points="775.48,-139.1 778.95,-129.09 769.99,-134.75 775.48,-139.1"/>
</a>
</g>
</g>
<!-- Node20 -->
<g id="Node000020" class="node">
<title>Node20</title>
<g id="a_Node000020"><a xlink:title=" ">
<polygon fill="#e0e0e0" stroke="#999999" points="882.75,-129 826.75,-129 826.75,-110 882.75,-110 882.75,-129"/>
<text text-anchor="middle" x="854.75" y="-117" font-family="Helvetica,sans-Serif" font-size="10.00">numeric</text>
</a>
</g>
</g>
<!-- Node14&#45;&gt;Node20 -->
<g id="edge29_Node000014_Node000020" class="edge">
<title>Node14&#45;&gt;Node20</title>
<g id="a_edge29_Node000014_Node000020"><a xlink:title=" ">
<path fill="none" stroke="#63b8ff" d="M761.59,-164.98C779.36,-156.5 806.9,-143.35 827.43,-133.54"/>
<polygon fill="#63b8ff" stroke="#63b8ff" points="829.08,-136.64 836.6,-129.17 826.06,-130.32 829.08,-136.64"/>
</a>
</g>
</g>
<!-- Node21 -->
<g id="Node000021" class="node">
<title>Node21</title>
<g id="a_Node000021"><a xlink:title=" ">
<polygon fill="#e0e0e0" stroke="#999999" points="1026.75,-129 982.75,-129 982.75,-110 1026.75,-110 1026.75,-129"/>
<text text-anchor="middle" x="1004.75" y="-117" font-family="Helvetica,sans-Serif" font-size="10.00">string</text>
</a>
</g>
</g>
<!-- Node14&#45;&gt;Node21 -->
<g id="edge31_Node000014_Node000021" class="edge">
<title>Node14&#45;&gt;Node21</title>
<g id="a_edge31_Node000014_Node000021"><a xlink:title=" ">
<path fill="none" stroke="#63b8ff" d="M786.35,-166.26C830.6,-158.53 902.02,-145.41 972.52,-129.15"/>
<polygon fill="#63b8ff" stroke="#63b8ff" points="973.51,-132.51 982.46,-126.83 971.92,-125.69 973.51,-132.51"/>
</a>
</g>
</g>
<!-- Node14&#45;&gt;Node22 -->
<g id="edge32_Node000014_Node000022" class="edge">
<title>Node14&#45;&gt;Node22</title>
<g id="a_edge32_Node000014_Node000022"><a xlink:title=" ">
<path fill="none" stroke="#63b8ff" d="M786.55,-168.35C841.71,-161.42 940.77,-147.94 1035.04,-128.95"/>
<polygon fill="#63b8ff" stroke="#63b8ff" points="1035.93,-132.34 1045.03,-126.92 1034.53,-125.48 1035.93,-132.34"/>
</a>
</g>
</g>
<!-- Node24 -->
<g id="Node000024" class="node">
<title>Node24</title>
<g id="a_Node000024"><a xlink:href="orbital__smearing_8h.html" target="_top" xlink:title=" ">
<polygon fill="white" stroke="#666666" points="1372.75,-239 1226.75,-239 1226.75,-220 1372.75,-220 1372.75,-239"/>
<text text-anchor="middle" x="1299.75" y="-227" font-family="Helvetica,sans-Serif" font-size="10.00">occ/qm/orbital_smearing.h</text>
</a>
</g>
</g>
<!-- Node23&#45;&gt;Node24 -->
<g id="edge36_Node000023_Node000024" class="edge">
<title>Node23&#45;&gt;Node24</title>
<g id="a_edge36_Node000023_Node000024"><a xlink:title=" ">
<path fill="none" stroke="#63b8ff" d="M1174.69,-274.98C1199.31,-266.23 1237.87,-252.51 1265.67,-242.62"/>
<polygon fill="#63b8ff" stroke="#63b8ff" points="1267.13,-245.82 1275.38,-239.17 1264.78,-239.22 1267.13,-245.82"/>
</a>
</g>
</g>
<!-- Node25 -->
<g id="Node000025" class="node">
<title>Node25</title>
<g id="a_Node000025"><a xlink:href="spinorbital_8h.html" target="_top" xlink:title=" ">
<polygon fill="white" stroke="#666666" points="1208.75,-239 1092.75,-239 1092.75,-220 1208.75,-220 1208.75,-239"/>
<text text-anchor="middle" x="1150.75" y="-227" font-family="Helvetica,sans-Serif" font-size="10.00">occ/qm/spinorbital.h</text>
</a>
</g>
</g>
<!-- Node23&#45;&gt;Node25 -->
<g id="edge38_Node000023_Node000025" class="edge">
<title>Node23&#45;&gt;Node25</title>
<g id="a_edge38_Node000023_Node000025"><a xlink:title=" ">
<path fill="none" stroke="#63b8ff" d="M1150.75,-274.75C1150.75,-267.8 1150.75,-257.85 1150.75,-249.13"/>
<polygon fill="#63b8ff" stroke="#63b8ff" points="1154.25,-249.09 1150.75,-239.09 1147.25,-249.09 1154.25,-249.09"/>
</a>
</g>
</g>
<!-- Node24&#45;&gt;Node2 -->
<g id="edge37_Node000024_Node000002" class="edge">
<title>Node24&#45;&gt;Node2</title>
<g id="a_edge37_Node000024_Node000002"><a xlink:title=" ">
<path fill="none" stroke="#63b8ff" d="M1311.4,-219.73C1321.06,-211.67 1334.1,-198.74 1339.75,-184 1351.99,-152.08 1346.39,-130.13 1318.75,-110 1258.27,-65.95 756.31,-63.91 558.46,-64.85"/>
<polygon fill="#63b8ff" stroke="#63b8ff" points="558.41,-61.35 548.42,-64.9 558.44,-68.35 558.41,-61.35"/>
</a>
</g>
</g>
<!-- Node25&#45;&gt;Node2 -->
<g id="edge39_Node000025_Node000002" class="edge">
<title>Node25&#45;&gt;Node2</title>
<g id="a_edge39_Node000025_Node000002"><a xlink:title=" ">
<path fill="none" stroke="#63b8ff" d="M1157.61,-219.58C1168.32,-206.17 1190.25,-180.7 1213.75,-165 1252.11,-139.38 1333.47,-143.48 1301.75,-110 1276.45,-83.29 760.58,-70.78 558.73,-66.89"/>
<polygon fill="#63b8ff" stroke="#63b8ff" points="558.56,-63.38 548.49,-66.69 558.42,-70.38 558.56,-63.38"/>
</a>
</g>
</g>
<!-- Node25&#45;&gt;Node14 -->
<g id="edge40_Node000025_Node000014" class="edge">
<title>Node25&#45;&gt;Node14</title>
<g id="a_edge40_Node000025_Node000014"><a xlink:title=" ">
<path fill="none" stroke="#63b8ff" d="M1092.44,-220.91C1013.3,-210.6 873.02,-192.33 796.74,-182.4"/>
<polygon fill="#63b8ff" stroke="#63b8ff" points="796.78,-178.88 786.41,-181.06 795.88,-185.82 796.78,-178.88"/>
</a>
</g>
</g>
<!-- Node26 -->
<g id="Node000026" class="node">
<title>Node26</title>
<g id="a_Node000026"><a xlink:href="qm_2opmatrix_8h.html" target="_top" xlink:title=" ">
<polygon fill="white" stroke="#666666" points="1330.75,-184 1222.75,-184 1222.75,-165 1330.75,-165 1330.75,-184"/>
<text text-anchor="middle" x="1276.75" y="-172" font-family="Helvetica,sans-Serif" font-size="10.00">occ/qm/opmatrix.h</text>
</a>
</g>
</g>
<!-- Node25&#45;&gt;Node26 -->
<g id="edge41_Node000025_Node000026" class="edge">
<title>Node25&#45;&gt;Node26</title>
<g id="a_edge41_Node000025_Node000026"><a xlink:title=" ">
<path fill="none" stroke="#63b8ff" d="M1165.88,-219.98C1184.6,-211.3 1216.59,-197.75 1241.5,-187.88"/>
<polygon fill="#63b8ff" stroke="#63b8ff" points="1242.96,-191.07 1250.99,-184.17 1240.41,-184.55 1242.96,-191.07"/>
</a>
</g>
</g>
<!-- Node26&#45;&gt;Node25 -->
<g id="edge42_Node000026_Node000025" class="edge">
<title>Node26&#45;&gt;Node25</title>
<g id="a_edge42_Node000026_Node000025"><a xlink:title=" ">
<path fill="none" stroke="#63b8ff" d="M1261.29,-184.17C1242.41,-192.91 1210.39,-206.47 1185.57,-216.29"/>
<polygon fill="#63b8ff" stroke="#63b8ff" points="1184.15,-213.09 1176.11,-219.98 1186.7,-219.61 1184.15,-213.09"/>
</a>
</g>
</g>
<!-- Node27&#45;&gt;Node2 -->
<g id="edge47_Node000027_Node000002" class="edge">
<title>Node27&#45;&gt;Node2</title>
<g id="a_edge47_Node000027_Node000002"><a xlink:title=" ">
<path fill="none" stroke="#63b8ff" d="M1079.29,-164.8C1093.98,-151.66 1117.16,-126.55 1101.75,-110 1065.49,-71.05 718.48,-65.67 558.64,-65.28"/>
<polygon fill="#63b8ff" stroke="#63b8ff" points="558.4,-61.78 548.39,-65.26 558.38,-68.78 558.4,-61.78"/>
</a>
</g>
</g>
<!-- Node27&#45;&gt;Node12 -->
<g id="edge46_Node000027_Node000012" class="edge">
<title>Node27&#45;&gt;Node12</title>
<g id="a_edge46_Node000027_Node000012"><a xlink:title=" ">
<path fill="none" stroke="#63b8ff" d="M1003.95,-169C857.37,-158.84 502.3,-134.2 362.59,-124.51"/>
<polygon fill="#63b8ff" stroke="#63b8ff" points="362.74,-121.01 352.52,-123.81 362.25,-128 362.74,-121.01"/>
</a>
</g>
</g>
<!-- Node27&#45;&gt;Node21 -->
<g id="edge48_Node000027_Node000021" class="edge">
<title>Node27&#45;&gt;Node21</title>
<g id="a_edge48_Node000027_Node000021"><a xlink:title=" ">
<path fill="none" stroke="#63b8ff" d="M1058.47,-164.98C1048.92,-157.07 1034.47,-145.11 1022.97,-135.58"/>
<polygon fill="#63b8ff" stroke="#63b8ff" points="1025.16,-132.85 1015.22,-129.17 1020.69,-138.24 1025.16,-132.85"/>
</a>
</g>
</g>
<!-- Node27&#45;&gt;Node22 -->
<g id="edge49_Node000027_Node000022" class="edge">
<title>Node27&#45;&gt;Node22</title>
<g id="a_edge49_Node000027_Node000022"><a xlink:title=" ">
<path fill="none" stroke="#63b8ff" d="M1068.75,-164.75C1068.75,-157.8 1068.75,-147.85 1068.75,-139.13"/>
<polygon fill="#63b8ff" stroke="#63b8ff" points="1072.25,-139.09 1068.75,-129.09 1065.25,-139.09 1072.25,-139.09"/>
</a>
</g>
</g>
<!-- Node28 -->
<g id="Node000028" class="node">
<title>Node28</title>
<g id="a_Node000028"><a xlink:title=" ">
<polygon fill="#e0e0e0" stroke="#999999" points="1292.25,-129 1149.25,-129 1149.25,-110 1292.25,-110 1292.25,-129"/>
<text text-anchor="middle" x="1220.75" y="-117" font-family="Helvetica,sans-Serif" font-size="10.00">ankerl/unordered_dense.h</text>
</a>
</g>
</g>
<!-- Node27&#45;&gt;Node28 -->
<g id="edge45_Node000027_Node000028" class="edge">
<title>Node27&#45;&gt;Node28</title>
<g id="a_edge45_Node000027_Node000028"><a xlink:title=" ">
<path fill="none" stroke="#63b8ff" d="M1093.18,-164.98C1118.47,-156.16 1158.21,-142.31 1186.61,-132.41"/>
<polygon fill="#63b8ff" stroke="#63b8ff" points="1187.85,-135.68 1196.14,-129.08 1185.55,-129.07 1187.85,-135.68"/>
</a>
</g>
</g>
</g>
</svg>
