<?xml version="1.0" encoding="UTF-8" standalone="no"?>
<!DOCTYPE svg PUBLIC "-//W3C//DTD SVG 1.1//EN"
 "http://www.w3.org/Graphics/SVG/1.1/DTD/svg11.dtd">
<!-- Generated by graphviz version 2.43.0 (0)
 -->
<!-- Title: /home/runner/work/occ/occ/include/occ/dft/dft_method.h Pages: 1 -->
<svg width="770pt" height="335pt"
 viewBox="0.00 0.00 770.00 335.00" xmlns="http://www.w3.org/2000/svg" xmlns:xlink="http://www.w3.org/1999/xlink">
<g id="graph0" class="graph" transform="scale(1 1) rotate(0) translate(4 331)">
<title>/home/runner/work/occ/occ/include/occ/dft/dft_method.h</title>
<!-- Node1 -->
<g id="Node000001" class="node">
<title>Node1</title>
<g id="a_Node000001"><a xlink:title=" ">
<polygon fill="#999999" stroke="#666666" points="603.5,-327 475.5,-327 475.5,-286 603.5,-286 603.5,-327"/>
<text text-anchor="start" x="483.5" y="-315" font-family="Helvetica,sans-Serif" font-size="10.00">/home/runner/work/occ</text>
<text text-anchor="start" x="483.5" y="-304" font-family="Helvetica,sans-Serif" font-size="10.00">/occ/include/occ/dft</text>
<text text-anchor="middle" x="539.5" y="-293" font-family="Helvetica,sans-Serif" font-size="10.00">/dft_method.h</text>
</a>
</g>
</g>
<!-- Node2 -->
<g id="Node000002" class="node">
<title>Node2</title>
<g id="a_Node000002"><a xlink:title=" ">
<polygon fill="#e0e0e0" stroke="#999999" points="338,-250 195,-250 195,-231 338,-231 338,-250"/>
<text text-anchor="middle" x="266.5" y="-238" font-family="Helvetica,sans-Serif" font-size="10.00">ankerl/unordered_dense.h</text>
</a>
</g>
</g>
<!-- Node1&#45;&gt;Node2 -->
<g id="edge1_Node000001_Node000002" class="edge">
<title>Node1&#45;&gt;Node2</title>
<g id="a_edge1_Node000001_Node000002"><a xlink:title=" ">
<path fill="none" stroke="#63b8ff" d="M475.49,-290.49C425.64,-278.81 357.6,-262.86 312.89,-252.37"/>
<polygon fill="#63b8ff" stroke="#63b8ff" points="313.42,-248.9 302.88,-250.03 311.82,-255.72 313.42,-248.9"/>
</a>
</g>
</g>
<!-- Node3 -->
<g id="Node000003" class="node">
<title>Node3</title>
<g id="a_Node000003"><a xlink:title=" ">
<polygon fill="#e0e0e0" stroke="#999999" points="466.5,-250 356.5,-250 356.5,-231 466.5,-231 466.5,-250"/>
<text text-anchor="middle" x="411.5" y="-238" font-family="Helvetica,sans-Serif" font-size="10.00">nlohmann/json.hpp</text>
</a>
</g>
</g>
<!-- Node1&#45;&gt;Node3 -->
<g id="edge2_Node000001_Node000003" class="edge">
<title>Node1&#45;&gt;Node3</title>
<g id="a_edge2_Node000001_Node000003"><a xlink:title=" ">
<path fill="none" stroke="#63b8ff" d="M500.4,-285.95C480.18,-275.84 456.03,-263.76 438,-254.75"/>
<polygon fill="#63b8ff" stroke="#63b8ff" points="439.19,-251.43 428.68,-250.09 436.06,-257.69 439.19,-251.43"/>
</a>
</g>
</g>
<!-- Node4 -->
<g id="Node000004" class="node">
<title>Node4</title>
<g id="a_Node000004"><a xlink:href="functional_8h.html" target="_top" xlink:title=" ">
<polygon fill="white" stroke="#666666" points="594.5,-250 484.5,-250 484.5,-231 594.5,-231 594.5,-250"/>
<text text-anchor="middle" x="539.5" y="-238" font-family="Helvetica,sans-Serif" font-size="10.00">occ/dft/functional.h</text>
</a>
</g>
</g>
<!-- Node1&#45;&gt;Node4 -->
<g id="edge3_Node000001_Node000004" class="edge">
<title>Node1&#45;&gt;Node4</title>
<g id="a_edge3_Node000001_Node000004"><a xlink:title=" ">
<path fill="none" stroke="#63b8ff" d="M539.5,-285.95C539.5,-277.85 539.5,-268.5 539.5,-260.47"/>
<polygon fill="#63b8ff" stroke="#63b8ff" points="543,-260.26 539.5,-250.26 536,-260.26 543,-260.26"/>
</a>
</g>
</g>
<!-- Node18 -->
<g id="Node000018" class="node">
<title>Node18</title>
<g id="a_Node000018"><a xlink:title=" ">
<polygon fill="#e0e0e0" stroke="#999999" points="696.5,-74 652.5,-74 652.5,-55 696.5,-55 696.5,-74"/>
<text text-anchor="middle" x="674.5" y="-62" font-family="Helvetica,sans-Serif" font-size="10.00">string</text>
</a>
</g>
</g>
<!-- Node1&#45;&gt;Node18 -->
<g id="edge26_Node000001_Node000018" class="edge">
<title>Node1&#45;&gt;Node18</title>
<g id="a_edge26_Node000001_Node000018"><a xlink:title=" ">
<path fill="none" stroke="#63b8ff" d="M582.13,-285.82C616.01,-267.59 660.99,-236.95 681.5,-195 699.15,-158.89 688.79,-110.18 680.89,-83.99"/>
<polygon fill="#63b8ff" stroke="#63b8ff" points="684.15,-82.69 677.75,-74.25 677.49,-84.84 684.15,-82.69"/>
</a>
</g>
</g>
<!-- Node19 -->
<g id="Node000019" class="node">
<title>Node19</title>
<g id="a_Node000019"><a xlink:title=" ">
<polygon fill="#e0e0e0" stroke="#999999" points="762,-74 715,-74 715,-55 762,-55 762,-74"/>
<text text-anchor="middle" x="738.5" y="-62" font-family="Helvetica,sans-Serif" font-size="10.00">vector</text>
</a>
</g>
</g>
<!-- Node1&#45;&gt;Node19 -->
<g id="edge27_Node000001_Node000019" class="edge">
<title>Node1&#45;&gt;Node19</title>
<g id="a_edge27_Node000001_Node000019"><a xlink:title=" ">
<path fill="none" stroke="#63b8ff" d="M596.97,-285.93C618.01,-277.04 641.14,-265.08 659.5,-250 712.21,-206.71 730.5,-121.75 736.19,-84.15"/>
<polygon fill="#63b8ff" stroke="#63b8ff" points="739.68,-84.49 737.58,-74.11 732.74,-83.53 739.68,-84.49"/>
</a>
</g>
</g>
<!-- Node5 -->
<g id="Node000005" class="node">
<title>Node5</title>
<g id="a_Node000005"><a xlink:title=" ">
<polygon fill="#e0e0e0" stroke="#999999" points="634,-74 567,-74 567,-55 634,-55 634,-74"/>
<text text-anchor="middle" x="600.5" y="-62" font-family="Helvetica,sans-Serif" font-size="10.00">fmt/core.h</text>
</a>
</g>
</g>
<!-- Node4&#45;&gt;Node5 -->
<g id="edge4_Node000004_Node000005" class="edge">
<title>Node4&#45;&gt;Node5</title>
<g id="a_edge4_Node000004_Node000005"><a xlink:title=" ">
<path fill="none" stroke="#63b8ff" d="M531.83,-230.7C524.98,-222.21 515.45,-208.68 511.5,-195 507.8,-182.19 506.74,-177.46 511.5,-165 525.23,-129.07 558.56,-97.9 580.31,-80.43"/>
<polygon fill="#63b8ff" stroke="#63b8ff" points="582.55,-83.12 588.29,-74.22 578.25,-77.6 582.55,-83.12"/>
</a>
</g>
</g>
<!-- Node6 -->
<g id="Node000006" class="node">
<title>Node6</title>
<g id="a_Node000006"><a xlink:title=" ">
<polygon fill="#e0e0e0" stroke="#999999" points="672.5,-189.5 614.5,-189.5 614.5,-170.5 672.5,-170.5 672.5,-189.5"/>
<text text-anchor="middle" x="643.5" y="-177.5" font-family="Helvetica,sans-Serif" font-size="10.00">memory</text>
</a>
</g>
</g>
<!-- Node4&#45;&gt;Node6 -->
<g id="edge5_Node000004_Node000006" class="edge">
<title>Node4&#45;&gt;Node6</title>
<g id="a_edge5_Node000004_Node000006"><a xlink:title=" ">
<path fill="none" stroke="#63b8ff" d="M554.85,-230.87C571.82,-221.32 599.4,-205.81 619.29,-194.62"/>
<polygon fill="#63b8ff" stroke="#63b8ff" points="621.09,-197.62 628.09,-189.67 617.66,-191.52 621.09,-197.62"/>
</a>
</g>
</g>
<!-- Node7 -->
<g id="Node000007" class="node">
<title>Node7</title>
<g id="a_Node000007"><a xlink:href="linear__algebra_8h.html" target="_top" xlink:title=" ">
<polygon fill="white" stroke="#666666" points="153,-74 14,-74 14,-55 153,-55 153,-74"/>
<text text-anchor="middle" x="83.5" y="-62" font-family="Helvetica,sans-Serif" font-size="10.00">occ/core/linear_algebra.h</text>
</a>
</g>
</g>
<!-- Node4&#45;&gt;Node7 -->
<g id="edge6_Node000004_Node000007" class="edge">
<title>Node4&#45;&gt;Node7</title>
<g id="a_edge6_Node000004_Node000007"><a xlink:title=" ">
<path fill="none" stroke="#63b8ff" d="M484.35,-232.12C481.36,-231.74 478.39,-231.36 475.5,-231 406.9,-222.45 225.13,-231.63 166.5,-195 124.53,-168.78 99.83,-112.66 89.39,-83.67"/>
<polygon fill="#63b8ff" stroke="#63b8ff" points="92.63,-82.33 86.08,-74 86.01,-84.6 92.63,-82.33"/>
</a>
</g>
</g>
<!-- Node10 -->
<g id="Node000010" class="node">
<title>Node10</title>
<g id="a_Node000010"><a xlink:href="range__separated__parameters_8h.html" target="_top" xlink:title=" ">
<polygon fill="white" stroke="#666666" points="309.5,-195 175.5,-195 175.5,-165 309.5,-165 309.5,-195"/>
<text text-anchor="start" x="183.5" y="-183" font-family="Helvetica,sans-Serif" font-size="10.00">occ/dft/range_separated</text>
<text text-anchor="middle" x="242.5" y="-172" font-family="Helvetica,sans-Serif" font-size="10.00">_parameters.h</text>
</a>
</g>
</g>
<!-- Node4&#45;&gt;Node10 -->
<g id="edge9_Node000004_Node000010" class="edge">
<title>Node4&#45;&gt;Node10</title>
<g id="a_edge9_Node000004_Node000010"><a xlink:title=" ">
<path fill="none" stroke="#63b8ff" d="M496.31,-230.99C450.1,-221.89 375.85,-207.27 319.57,-196.18"/>
<polygon fill="#63b8ff" stroke="#63b8ff" points="320.12,-192.72 309.64,-194.22 318.77,-199.59 320.12,-192.72"/>
</a>
</g>
</g>
<!-- Node11 -->
<g id="Node000011" class="node">
<title>Node11</title>
<g id="a_Node000011"><a xlink:href="spinorbital_8h.html" target="_top" xlink:title=" ">
<polygon fill="white" stroke="#666666" points="443.5,-189.5 327.5,-189.5 327.5,-170.5 443.5,-170.5 443.5,-189.5"/>
<text text-anchor="middle" x="385.5" y="-177.5" font-family="Helvetica,sans-Serif" font-size="10.00">occ/qm/spinorbital.h</text>
</a>
</g>
</g>
<!-- Node4&#45;&gt;Node11 -->
<g id="edge10_Node000004_Node000011" class="edge">
<title>Node4&#45;&gt;Node11</title>
<g id="a_edge10_Node000004_Node000011"><a xlink:title=" ">
<path fill="none" stroke="#63b8ff" d="M517.11,-230.99C490.88,-221.03 447.22,-204.45 417.44,-193.13"/>
<polygon fill="#63b8ff" stroke="#63b8ff" points="418.51,-189.8 407.92,-189.52 416.03,-196.34 418.51,-189.8"/>
</a>
</g>
</g>
<!-- Node4&#45;&gt;Node18 -->
<g id="edge24_Node000004_Node000018" class="edge">
<title>Node4&#45;&gt;Node18</title>
<g id="a_edge24_Node000004_Node000018"><a xlink:title=" ">
<path fill="none" stroke="#63b8ff" d="M546.38,-230.63C567.78,-203.05 633.4,-118.47 661.51,-82.25"/>
<polygon fill="#63b8ff" stroke="#63b8ff" points="664.43,-84.19 667.79,-74.14 658.9,-79.9 664.43,-84.19"/>
</a>
</g>
</g>
<!-- Node21 -->
<g id="Node000021" class="node">
<title>Node21</title>
<g id="a_Node000021"><a xlink:title=" ">
<polygon fill="#e0e0e0" stroke="#999999" points="558,-189.5 521,-189.5 521,-170.5 558,-170.5 558,-189.5"/>
<text text-anchor="middle" x="539.5" y="-177.5" font-family="Helvetica,sans-Serif" font-size="10.00">xc.h</text>
</a>
</g>
</g>
<!-- Node4&#45;&gt;Node21 -->
<g id="edge25_Node000004_Node000021" class="edge">
<title>Node4&#45;&gt;Node21</title>
<g id="a_edge25_Node000004_Node000021"><a xlink:title=" ">
<path fill="none" stroke="#63b8ff" d="M539.5,-230.87C539.5,-222.75 539.5,-210.31 539.5,-199.89"/>
<polygon fill="#63b8ff" stroke="#63b8ff" points="543,-199.67 539.5,-189.67 536,-199.67 543,-199.67"/>
</a>
</g>
</g>
<!-- Node8 -->
<g id="Node000008" class="node">
<title>Node8</title>
<g id="a_Node000008"><a xlink:title=" ">
<polygon fill="#e0e0e0" stroke="#999999" points="69,-19 0,-19 0,0 69,0 69,-19"/>
<text text-anchor="middle" x="34.5" y="-7" font-family="Helvetica,sans-Serif" font-size="10.00">Eigen/Core</text>
</a>
</g>
</g>
<!-- Node7&#45;&gt;Node8 -->
<g id="edge7_Node000007_Node000008" class="edge">
<title>Node7&#45;&gt;Node8</title>
<g id="a_edge7_Node000007_Node000008"><a xlink:title=" ">
<path fill="none" stroke="#63b8ff" d="M75.41,-54.75C68.34,-47.11 57.91,-35.82 49.35,-26.56"/>
<polygon fill="#63b8ff" stroke="#63b8ff" points="51.8,-24.06 42.44,-19.09 46.66,-28.81 51.8,-24.06"/>
</a>
</g>
</g>
<!-- Node9 -->
<g id="Node000009" class="node">
<title>Node9</title>
<g id="a_Node000009"><a xlink:title=" ">
<polygon fill="#e0e0e0" stroke="#999999" points="180,-19 87,-19 87,0 180,0 180,-19"/>
<text text-anchor="middle" x="133.5" y="-7" font-family="Helvetica,sans-Serif" font-size="10.00">Eigen/StdVector</text>
</a>
</g>
</g>
<!-- Node7&#45;&gt;Node9 -->
<g id="edge8_Node000007_Node000009" class="edge">
<title>Node7&#45;&gt;Node9</title>
<g id="a_edge8_Node000007_Node000009"><a xlink:title=" ">
<path fill="none" stroke="#63b8ff" d="M91.76,-54.75C98.96,-47.11 109.61,-35.82 118.35,-26.56"/>
<polygon fill="#63b8ff" stroke="#63b8ff" points="121.08,-28.76 125.4,-19.09 115.99,-23.96 121.08,-28.76"/>
</a>
</g>
</g>
<!-- Node11&#45;&gt;Node7 -->
<g id="edge11_Node000011_Node000007" class="edge">
<title>Node11&#45;&gt;Node7</title>
<g id="a_edge11_Node000011_Node000007"><a xlink:title=" ">
<path fill="none" stroke="#63b8ff" d="M360.25,-170.45C331.78,-160.72 284.13,-144.21 243.5,-129 197.97,-111.96 145.7,-90.93 113.64,-77.87"/>
<polygon fill="#63b8ff" stroke="#63b8ff" points="114.95,-74.62 104.37,-74.08 112.3,-81.1 114.95,-74.62"/>
</a>
</g>
</g>
<!-- Node12 -->
<g id="Node000012" class="node">
<title>Node12</title>
<g id="a_Node000012"><a xlink:href="util_8h.html" target="_top" xlink:title=" ">
<polygon fill="white" stroke="#666666" points="464,-129 379,-129 379,-110 464,-110 464,-129"/>
<text text-anchor="middle" x="421.5" y="-117" font-family="Helvetica,sans-Serif" font-size="10.00">occ/core/util.h</text>
</a>
</g>
</g>
<!-- Node11&#45;&gt;Node12 -->
<g id="edge12_Node000011_Node000012" class="edge">
<title>Node11&#45;&gt;Node12</title>
<g id="a_edge12_Node000011_Node000012"><a xlink:title=" ">
<path fill="none" stroke="#63b8ff" d="M390.81,-170.37C396.08,-161.81 404.29,-148.47 410.89,-137.74"/>
<polygon fill="#63b8ff" stroke="#63b8ff" points="413.91,-139.52 416.17,-129.17 407.94,-135.85 413.91,-139.52"/>
</a>
</g>
</g>
<!-- Node20 -->
<g id="Node000020" class="node">
<title>Node20</title>
<g id="a_Node000020"><a xlink:href="qm_2opmatrix_8h.html" target="_top" xlink:title=" ">
<polygon fill="white" stroke="#666666" points="360.5,-129 252.5,-129 252.5,-110 360.5,-110 360.5,-129"/>
<text text-anchor="middle" x="306.5" y="-117" font-family="Helvetica,sans-Serif" font-size="10.00">occ/qm/opmatrix.h</text>
</a>
</g>
</g>
<!-- Node11&#45;&gt;Node20 -->
<g id="edge22_Node000011_Node000020" class="edge">
<title>Node11&#45;&gt;Node20</title>
<g id="a_edge22_Node000011_Node000020"><a xlink:title=" ">
<path fill="none" stroke="#63b8ff" d="M368.89,-170.37C354.67,-161.3 334.8,-146.84 321.17,-135.82"/>
<polygon fill="#63b8ff" stroke="#63b8ff" points="323.15,-132.91 313.24,-129.17 318.65,-138.28 323.15,-132.91"/>
</a>
</g>
</g>
<!-- Node12&#45;&gt;Node5 -->
<g id="edge16_Node000012_Node000005" class="edge">
<title>Node12&#45;&gt;Node5</title>
<g id="a_edge16_Node000012_Node000005"><a xlink:title=" ">
<path fill="none" stroke="#63b8ff" d="M450.26,-109.98C480.44,-101.05 528.07,-86.94 561.6,-77.02"/>
<polygon fill="#63b8ff" stroke="#63b8ff" points="562.92,-80.28 571.52,-74.08 560.93,-73.57 562.92,-80.28"/>
</a>
</g>
</g>
<!-- Node12&#45;&gt;Node7 -->
<g id="edge19_Node000012_Node000007" class="edge">
<title>Node12&#45;&gt;Node7</title>
<g id="a_edge19_Node000012_Node000007"><a xlink:title=" ">
<path fill="none" stroke="#63b8ff" d="M378.94,-111.52C375.74,-111 372.57,-110.49 369.5,-110 294.02,-97.96 207.26,-84.52 149.27,-75.59"/>
<polygon fill="#63b8ff" stroke="#63b8ff" points="149.57,-72.09 139.15,-74.03 148.5,-79.01 149.57,-72.09"/>
</a>
</g>
</g>
<!-- Node13 -->
<g id="Node000013" class="node">
<title>Node13</title>
<g id="a_Node000013"><a xlink:title=" ">
<polygon fill="#e0e0e0" stroke="#999999" points="548.5,-74 484.5,-74 484.5,-55 548.5,-55 548.5,-74"/>
<text text-anchor="middle" x="516.5" y="-62" font-family="Helvetica,sans-Serif" font-size="10.00">algorithm</text>
</a>
</g>
</g>
<!-- Node12&#45;&gt;Node13 -->
<g id="edge13_Node000012_Node000013" class="edge">
<title>Node12&#45;&gt;Node13</title>
<g id="a_edge13_Node000012_Node000013"><a xlink:title=" ">
<path fill="none" stroke="#63b8ff" d="M436.76,-109.98C451.63,-101.69 474.48,-88.94 491.92,-79.22"/>
<polygon fill="#63b8ff" stroke="#63b8ff" points="493.93,-82.1 500.96,-74.17 490.52,-75.99 493.93,-82.1"/>
</a>
</g>
</g>
<!-- Node14 -->
<g id="Node000014" class="node">
<title>Node14</title>
<g id="a_Node000014"><a xlink:title=" ">
<polygon fill="#e0e0e0" stroke="#999999" points="220,-74 171,-74 171,-55 220,-55 220,-74"/>
<text text-anchor="middle" x="195.5" y="-62" font-family="Helvetica,sans-Serif" font-size="10.00">cctype</text>
</a>
</g>
</g>
<!-- Node12&#45;&gt;Node14 -->
<g id="edge14_Node000012_Node000014" class="edge">
<title>Node12&#45;&gt;Node14</title>
<g id="a_edge14_Node000012_Node000014"><a xlink:title=" ">
<path fill="none" stroke="#63b8ff" d="M383.93,-109.99C347.23,-101.64 289.55,-88.39 229.97,-74.08"/>
<polygon fill="#63b8ff" stroke="#63b8ff" points="230.54,-70.62 220,-71.68 228.9,-77.42 230.54,-70.62"/>
</a>
</g>
</g>
<!-- Node15 -->
<g id="Node000015" class="node">
<title>Node15</title>
<g id="a_Node000015"><a xlink:title=" ">
<polygon fill="#e0e0e0" stroke="#999999" points="288.5,-74 238.5,-74 238.5,-55 288.5,-55 288.5,-74"/>
<text text-anchor="middle" x="263.5" y="-62" font-family="Helvetica,sans-Serif" font-size="10.00">chrono</text>
</a>
</g>
</g>
<!-- Node12&#45;&gt;Node15 -->
<g id="edge15_Node000012_Node000015" class="edge">
<title>Node12&#45;&gt;Node15</title>
<g id="a_edge15_Node000012_Node000015"><a xlink:title=" ">
<path fill="none" stroke="#63b8ff" d="M396.11,-109.98C369.55,-101.07 327.66,-87.02 298.08,-77.1"/>
<polygon fill="#63b8ff" stroke="#63b8ff" points="299.16,-73.77 288.56,-73.91 296.93,-80.41 299.16,-73.77"/>
</a>
</g>
</g>
<!-- Node16 -->
<g id="Node000016" class="node">
<title>Node16</title>
<g id="a_Node000016"><a xlink:title=" ">
<polygon fill="#e0e0e0" stroke="#999999" points="392.5,-74 306.5,-74 306.5,-55 392.5,-55 392.5,-74"/>
<text text-anchor="middle" x="349.5" y="-62" font-family="Helvetica,sans-Serif" font-size="10.00">fmt/ostream.h</text>
</a>
</g>
</g>
<!-- Node12&#45;&gt;Node16 -->
<g id="edge17_Node000012_Node000016" class="edge">
<title>Node12&#45;&gt;Node16</title>
<g id="a_edge17_Node000012_Node000016"><a xlink:title=" ">
<path fill="none" stroke="#63b8ff" d="M409.93,-109.98C399.08,-102 382.62,-89.88 369.62,-80.31"/>
<polygon fill="#63b8ff" stroke="#63b8ff" points="371.41,-77.28 361.28,-74.17 367.26,-82.92 371.41,-77.28"/>
</a>
</g>
</g>
<!-- Node17 -->
<g id="Node000017" class="node">
<title>Node17</title>
<g id="a_Node000017"><a xlink:title=" ">
<polygon fill="#e0e0e0" stroke="#999999" points="466.5,-74 410.5,-74 410.5,-55 466.5,-55 466.5,-74"/>
<text text-anchor="middle" x="438.5" y="-62" font-family="Helvetica,sans-Serif" font-size="10.00">numeric</text>
</a>
</g>
</g>
<!-- Node12&#45;&gt;Node17 -->
<g id="edge18_Node000012_Node000017" class="edge">
<title>Node12&#45;&gt;Node17</title>
<g id="a_edge18_Node000012_Node000017"><a xlink:title=" ">
<path fill="none" stroke="#63b8ff" d="M424.31,-109.75C426.56,-102.72 429.8,-92.62 432.62,-83.84"/>
<polygon fill="#63b8ff" stroke="#63b8ff" points="436.02,-84.68 435.75,-74.09 429.36,-82.54 436.02,-84.68"/>
</a>
</g>
</g>
<!-- Node12&#45;&gt;Node18 -->
<g id="edge20_Node000012_Node000018" class="edge">
<title>Node12&#45;&gt;Node18</title>
<g id="a_edge20_Node000012_Node000018"><a xlink:title=" ">
<path fill="none" stroke="#63b8ff" d="M464.25,-110.85C506.99,-102.99 574.81,-89.98 642.25,-74.17"/>
<polygon fill="#63b8ff" stroke="#63b8ff" points="643.27,-77.52 652.2,-71.82 641.66,-70.71 643.27,-77.52"/>
</a>
</g>
</g>
<!-- Node12&#45;&gt;Node19 -->
<g id="edge21_Node000012_Node000019" class="edge">
<title>Node12&#45;&gt;Node19</title>
<g id="a_edge21_Node000012_Node000019"><a xlink:title=" ">
<path fill="none" stroke="#63b8ff" d="M464.07,-113.14C517.86,-106.07 613.44,-92.57 704.8,-73.96"/>
<polygon fill="#63b8ff" stroke="#63b8ff" points="705.68,-77.35 714.77,-71.9 704.27,-70.49 705.68,-77.35"/>
</a>
</g>
</g>
<!-- Node20&#45;&gt;Node11 -->
<g id="edge23_Node000020_Node000011" class="edge">
<title>Node20&#45;&gt;Node11</title>
<g id="a_edge23_Node000020_Node000011"><a xlink:title=" ">
<path fill="none" stroke="#63b8ff" d="M323.17,-129.17C337.4,-138.25 357.27,-152.71 370.88,-163.72"/>
<polygon fill="#63b8ff" stroke="#63b8ff" points="368.89,-166.62 378.8,-170.37 373.39,-161.26 368.89,-166.62"/>
</a>
</g>
</g>
</g>
</svg>
