<?xml version="1.0" encoding="UTF-8" standalone="no"?>
<!DOCTYPE svg PUBLIC "-//W3C//DTD SVG 1.1//EN"
 "http://www.w3.org/Graphics/SVG/1.1/DTD/svg11.dtd">
<!-- Generated by graphviz version 2.43.0 (0)
 -->
<!-- Title: /home/runner/work/occ/occ/include/occ/dft/hirshfeld.h Pages: 1 -->
<svg width="1607pt" height="412pt"
 viewBox="0.00 0.00 1606.50 412.00" xmlns="http://www.w3.org/2000/svg" xmlns:xlink="http://www.w3.org/1999/xlink">
<g id="graph0" class="graph" transform="scale(1 1) rotate(0) translate(4 408)">
<title>/home/runner/work/occ/occ/include/occ/dft/hirshfeld.h</title>
<!-- Node1 -->
<g id="Node000001" class="node">
<title>Node1</title>
<g id="a_Node000001"><a xlink:title=" ">
<polygon fill="#999999" stroke="#666666" points="557,-404 429,-404 429,-363 557,-363 557,-404"/>
<text text-anchor="start" x="437" y="-392" font-family="Helvetica,sans-Serif" font-size="10.00">/home/runner/work/occ</text>
<text text-anchor="start" x="437" y="-381" font-family="Helvetica,sans-Serif" font-size="10.00">/occ/include/occ/dft</text>
<text text-anchor="middle" x="493" y="-370" font-family="Helvetica,sans-Serif" font-size="10.00">/hirshfeld.h</text>
</a>
</g>
</g>
<!-- Node2 -->
<g id="Node000002" class="node">
<title>Node2</title>
<g id="a_Node000002"><a xlink:href="linear__algebra_8h.html" target="_top" xlink:title=" ">
<polygon fill="white" stroke="#666666" points="496.5,-74 357.5,-74 357.5,-55 496.5,-55 496.5,-74"/>
<text text-anchor="middle" x="427" y="-62" font-family="Helvetica,sans-Serif" font-size="10.00">occ/core/linear_algebra.h</text>
</a>
</g>
</g>
<!-- Node1&#45;&gt;Node2 -->
<g id="edge1_Node000001_Node000002" class="edge">
<title>Node1&#45;&gt;Node2</title>
<g id="a_edge1_Node000001_Node000002"><a xlink:title=" ">
<path fill="none" stroke="#63b8ff" d="M428.83,-367.02C350.13,-344.22 220.17,-293.24 163,-195 118.65,-118.8 254.3,-86.47 347.26,-73.51"/>
<polygon fill="#63b8ff" stroke="#63b8ff" points="347.8,-76.96 357.24,-72.16 346.86,-70.03 347.8,-76.96"/>
</a>
</g>
</g>
<!-- Node5 -->
<g id="Node000005" class="node">
<title>Node5</title>
<g id="a_Node000005"><a xlink:href="multipole_8h.html" target="_top" xlink:title=" ">
<polygon fill="white" stroke="#666666" points="116,-134.5 0,-134.5 0,-115.5 116,-115.5 116,-134.5"/>
<text text-anchor="middle" x="58" y="-122.5" font-family="Helvetica,sans-Serif" font-size="10.00">occ/core/multipole.h</text>
</a>
</g>
</g>
<!-- Node1&#45;&gt;Node5 -->
<g id="edge4_Node000001_Node000005" class="edge">
<title>Node1&#45;&gt;Node5</title>
<g id="a_edge4_Node000001_Node000005"><a xlink:title=" ">
<path fill="none" stroke="#63b8ff" d="M428.75,-382.51C327.8,-381.12 138.72,-372.34 92,-327 41.73,-278.22 48.87,-184.72 54.69,-144.81"/>
<polygon fill="#63b8ff" stroke="#63b8ff" points="58.16,-145.28 56.29,-134.85 51.25,-144.17 58.16,-145.28"/>
</a>
</g>
</g>
<!-- Node8 -->
<g id="Node000008" class="node">
<title>Node8</title>
<g id="a_Node000008"><a xlink:href="molecular__grid_8h.html" target="_top" xlink:title=" ">
<polygon fill="white" stroke="#666666" points="838,-327 716,-327 716,-297 838,-297 838,-327"/>
<text text-anchor="start" x="724" y="-315" font-family="Helvetica,sans-Serif" font-size="10.00">occ/numint/molecular</text>
<text text-anchor="middle" x="777" y="-304" font-family="Helvetica,sans-Serif" font-size="10.00">_grid.h</text>
</a>
</g>
</g>
<!-- Node1&#45;&gt;Node8 -->
<g id="edge8_Node000001_Node000008" class="edge">
<title>Node1&#45;&gt;Node8</title>
<g id="a_edge8_Node000001_Node000008"><a xlink:title=" ">
<path fill="none" stroke="#63b8ff" d="M557.09,-366.82C602.51,-355.7 663.33,-340.82 709.5,-329.52"/>
<polygon fill="#63b8ff" stroke="#63b8ff" points="710.53,-332.87 719.41,-327.09 708.87,-326.07 710.53,-332.87"/>
</a>
</g>
</g>
<!-- Node14 -->
<g id="Node000014" class="node">
<title>Node14</title>
<g id="a_Node000014"><a xlink:title=" ">
<polygon fill="#e0e0e0" stroke="#999999" points="1121.5,-74 1074.5,-74 1074.5,-55 1121.5,-55 1121.5,-74"/>
<text text-anchor="middle" x="1098" y="-62" font-family="Helvetica,sans-Serif" font-size="10.00">vector</text>
</a>
</g>
</g>
<!-- Node1&#45;&gt;Node14 -->
<g id="edge64_Node000001_Node000014" class="edge">
<title>Node1&#45;&gt;Node14</title>
<g id="a_edge64_Node000001_Node000014"><a xlink:title=" ">
<path fill="none" stroke="#63b8ff" d="M557.14,-379.13C756.33,-367.83 1351,-327.35 1351,-247 1351,-247 1351,-247 1351,-184.5 1351,-88.89 1201.24,-69.96 1132.16,-66.31"/>
<polygon fill="#63b8ff" stroke="#63b8ff" points="1131.95,-62.8 1121.8,-65.85 1131.64,-69.79 1131.95,-62.8"/>
</a>
</g>
</g>
<!-- Node20 -->
<g id="Node000020" class="node">
<title>Node20</title>
<g id="a_Node000020"><a xlink:href="shell_8h.html" target="_top" xlink:title=" ">
<polygon fill="white" stroke="#666666" points="401.5,-255.5 314.5,-255.5 314.5,-236.5 401.5,-236.5 401.5,-255.5"/>
<text text-anchor="middle" x="358" y="-243.5" font-family="Helvetica,sans-Serif" font-size="10.00">occ/gto/shell.h</text>
</a>
</g>
</g>
<!-- Node1&#45;&gt;Node20 -->
<g id="edge58_Node000001_Node000020" class="edge">
<title>Node1&#45;&gt;Node20</title>
<g id="a_edge58_Node000001_Node000020"><a xlink:title=" ">
<path fill="none" stroke="#63b8ff" d="M473.37,-362.8C446.45,-335.77 398.59,-287.74 373.83,-262.89"/>
<polygon fill="#63b8ff" stroke="#63b8ff" points="376.19,-260.3 366.65,-255.69 371.23,-265.24 376.19,-260.3"/>
</a>
</g>
</g>
<!-- Node30 -->
<g id="Node000030" class="node">
<title>Node30</title>
<g id="a_Node000030"><a xlink:href="mo_8h.html" target="_top" xlink:title=" ">
<polygon fill="white" stroke="#666666" points="533,-321.5 453,-321.5 453,-302.5 533,-302.5 533,-321.5"/>
<text text-anchor="middle" x="493" y="-309.5" font-family="Helvetica,sans-Serif" font-size="10.00">occ/qm/mo.h</text>
</a>
</g>
</g>
<!-- Node1&#45;&gt;Node30 -->
<g id="edge46_Node000001_Node000030" class="edge">
<title>Node1&#45;&gt;Node30</title>
<g id="a_edge46_Node000001_Node000030"><a xlink:title=" ">
<path fill="none" stroke="#63b8ff" d="M493,-362.77C493,-353.08 493,-341.46 493,-331.88"/>
<polygon fill="#63b8ff" stroke="#63b8ff" points="496.5,-331.82 493,-321.82 489.5,-331.82 496.5,-331.82"/>
</a>
</g>
</g>
<!-- Node35 -->
<g id="Node000035" class="node">
<title>Node35</title>
<g id="a_Node000035"><a xlink:href="slaterbasis_8h.html" target="_top" xlink:title=" ">
<polygon fill="white" stroke="#666666" points="1508.5,-195 1379.5,-195 1379.5,-176 1508.5,-176 1508.5,-195"/>
<text text-anchor="middle" x="1444" y="-183" font-family="Helvetica,sans-Serif" font-size="10.00">occ/slater/slaterbasis.h</text>
</a>
</g>
</g>
<!-- Node1&#45;&gt;Node35 -->
<g id="edge59_Node000001_Node000035" class="edge">
<title>Node1&#45;&gt;Node35</title>
<g id="a_edge59_Node000001_Node000035"><a xlink:title=" ">
<path fill="none" stroke="#63b8ff" d="M557.07,-381.92C746.85,-379.71 1297.13,-369.65 1365,-327 1409.53,-299.02 1431.25,-236.41 1439.66,-205.09"/>
<polygon fill="#63b8ff" stroke="#63b8ff" points="1443.13,-205.64 1442.17,-195.09 1436.34,-203.93 1443.13,-205.64"/>
</a>
</g>
</g>
<!-- Node3 -->
<g id="Node000003" class="node">
<title>Node3</title>
<g id="a_Node000003"><a xlink:title=" ">
<polygon fill="#e0e0e0" stroke="#999999" points="411.5,-19 342.5,-19 342.5,0 411.5,0 411.5,-19"/>
<text text-anchor="middle" x="377" y="-7" font-family="Helvetica,sans-Serif" font-size="10.00">Eigen/Core</text>
</a>
</g>
</g>
<!-- Node2&#45;&gt;Node3 -->
<g id="edge2_Node000002_Node000003" class="edge">
<title>Node2&#45;&gt;Node3</title>
<g id="a_edge2_Node000002_Node000003"><a xlink:title=" ">
<path fill="none" stroke="#63b8ff" d="M418.74,-54.75C411.54,-47.11 400.89,-35.82 392.15,-26.56"/>
<polygon fill="#63b8ff" stroke="#63b8ff" points="394.51,-23.96 385.1,-19.09 389.42,-28.76 394.51,-23.96"/>
</a>
</g>
</g>
<!-- Node4 -->
<g id="Node000004" class="node">
<title>Node4</title>
<g id="a_Node000004"><a xlink:title=" ">
<polygon fill="#e0e0e0" stroke="#999999" points="522.5,-19 429.5,-19 429.5,0 522.5,0 522.5,-19"/>
<text text-anchor="middle" x="476" y="-7" font-family="Helvetica,sans-Serif" font-size="10.00">Eigen/StdVector</text>
</a>
</g>
</g>
<!-- Node2&#45;&gt;Node4 -->
<g id="edge3_Node000002_Node000004" class="edge">
<title>Node2&#45;&gt;Node4</title>
<g id="a_edge3_Node000002_Node000004"><a xlink:title=" ">
<path fill="none" stroke="#63b8ff" d="M435.09,-54.75C442.16,-47.11 452.59,-35.82 461.15,-26.56"/>
<polygon fill="#63b8ff" stroke="#63b8ff" points="463.84,-28.81 468.06,-19.09 458.7,-24.06 463.84,-28.81"/>
</a>
</g>
</g>
<!-- Node5&#45;&gt;Node2 -->
<g id="edge7_Node000005_Node000002" class="edge">
<title>Node5&#45;&gt;Node2</title>
<g id="a_edge7_Node000005_Node000002"><a xlink:title=" ">
<path fill="none" stroke="#63b8ff" d="M111.66,-115.49C178.34,-104.92 291.99,-86.9 363.11,-75.63"/>
<polygon fill="#63b8ff" stroke="#63b8ff" points="363.95,-79.04 373.28,-74.02 362.85,-72.13 363.95,-79.04"/>
</a>
</g>
</g>
<!-- Node6 -->
<g id="Node000006" class="node">
<title>Node6</title>
<g id="a_Node000006"><a xlink:title=" ">
<polygon fill="#e0e0e0" stroke="#999999" points="184,-74 142,-74 142,-55 184,-55 184,-74"/>
<text text-anchor="middle" x="163" y="-62" font-family="Helvetica,sans-Serif" font-size="10.00">array</text>
</a>
</g>
</g>
<!-- Node5&#45;&gt;Node6 -->
<g id="edge5_Node000005_Node000006" class="edge">
<title>Node5&#45;&gt;Node6</title>
<g id="a_edge5_Node000005_Node000006"><a xlink:title=" ">
<path fill="none" stroke="#63b8ff" d="M73.49,-115.37C90.63,-105.82 118.47,-90.31 138.56,-79.12"/>
<polygon fill="#63b8ff" stroke="#63b8ff" points="140.41,-82.09 147.44,-74.17 137,-75.98 140.41,-82.09"/>
</a>
</g>
</g>
<!-- Node7 -->
<g id="Node000007" class="node">
<title>Node7</title>
<g id="a_Node000007"><a xlink:title=" ">
<polygon fill="#e0e0e0" stroke="#999999" points="97.5,-74 18.5,-74 18.5,-55 97.5,-55 97.5,-74"/>
<text text-anchor="middle" x="58" y="-62" font-family="Helvetica,sans-Serif" font-size="10.00">fmt/format.h</text>
</a>
</g>
</g>
<!-- Node5&#45;&gt;Node7 -->
<g id="edge6_Node000005_Node000007" class="edge">
<title>Node5&#45;&gt;Node7</title>
<g id="a_edge6_Node000005_Node000007"><a xlink:title=" ">
<path fill="none" stroke="#63b8ff" d="M58,-115.37C58,-107.25 58,-94.81 58,-84.39"/>
<polygon fill="#63b8ff" stroke="#63b8ff" points="61.5,-84.17 58,-74.17 54.5,-84.17 61.5,-84.17"/>
</a>
</g>
</g>
<!-- Node9 -->
<g id="Node000009" class="node">
<title>Node9</title>
<g id="a_Node000009"><a xlink:title=" ">
<polygon fill="#e0e0e0" stroke="#999999" points="806,-255.5 748,-255.5 748,-236.5 806,-236.5 806,-255.5"/>
<text text-anchor="middle" x="777" y="-243.5" font-family="Helvetica,sans-Serif" font-size="10.00">memory</text>
</a>
</g>
</g>
<!-- Node8&#45;&gt;Node9 -->
<g id="edge9_Node000008_Node000009" class="edge">
<title>Node8&#45;&gt;Node9</title>
<g id="a_edge9_Node000008_Node000009"><a xlink:title=" ">
<path fill="none" stroke="#63b8ff" d="M777,-296.8C777,-287.7 777,-275.79 777,-265.9"/>
<polygon fill="#63b8ff" stroke="#63b8ff" points="780.5,-265.84 777,-255.84 773.5,-265.84 780.5,-265.84"/>
</a>
</g>
</g>
<!-- Node10 -->
<g id="Node000010" class="node">
<title>Node10</title>
<g id="a_Node000010"><a xlink:href="grid__types_8h.html" target="_top" xlink:title=" ">
<polygon fill="white" stroke="#666666" points="988,-195 854,-195 854,-176 988,-176 988,-195"/>
<text text-anchor="middle" x="921" y="-183" font-family="Helvetica,sans-Serif" font-size="10.00">occ/numint/grid_types.h</text>
</a>
</g>
</g>
<!-- Node8&#45;&gt;Node10 -->
<g id="edge10_Node000008_Node000010" class="edge">
<title>Node8&#45;&gt;Node10</title>
<g id="a_edge10_Node000008_Node000010"><a xlink:title=" ">
<path fill="none" stroke="#63b8ff" d="M793.24,-296.96C820.44,-273.45 874.98,-226.29 903.19,-201.9"/>
<polygon fill="#63b8ff" stroke="#63b8ff" points="905.77,-204.3 911.04,-195.11 901.19,-199 905.77,-204.3"/>
</a>
</g>
</g>
<!-- Node15 -->
<g id="Node000015" class="node">
<title>Node15</title>
<g id="a_Node000015"><a xlink:href="molecular__grid__points_8h.html" target="_top" xlink:title=" ">
<polygon fill="white" stroke="#666666" points="1171,-261 1049,-261 1049,-231 1171,-231 1171,-261"/>
<text text-anchor="start" x="1057" y="-249" font-family="Helvetica,sans-Serif" font-size="10.00">occ/numint/molecular</text>
<text text-anchor="middle" x="1110" y="-238" font-family="Helvetica,sans-Serif" font-size="10.00">_grid_points.h</text>
</a>
</g>
</g>
<!-- Node8&#45;&gt;Node15 -->
<g id="edge17_Node000008_Node000015" class="edge">
<title>Node8&#45;&gt;Node15</title>
<g id="a_edge17_Node000008_Node000015"><a xlink:title=" ">
<path fill="none" stroke="#63b8ff" d="M838.08,-299.26C894.7,-288.38 978.95,-272.19 1038.64,-260.71"/>
<polygon fill="#63b8ff" stroke="#63b8ff" points="1039.59,-264.1 1048.75,-258.77 1038.27,-257.22 1039.59,-264.1"/>
</a>
</g>
</g>
<!-- Node8&#45;&gt;Node20 -->
<g id="edge26_Node000008_Node000020" class="edge">
<title>Node8&#45;&gt;Node20</title>
<g id="a_edge26_Node000008_Node000020"><a xlink:title=" ">
<path fill="none" stroke="#63b8ff" d="M715.74,-304.95C642.75,-297.21 517.29,-282.21 411,-261 406.63,-260.13 402.08,-259.11 397.58,-258.02"/>
<polygon fill="#63b8ff" stroke="#63b8ff" points="398.39,-254.62 387.84,-255.57 396.68,-261.4 398.39,-254.62"/>
</a>
</g>
</g>
<!-- Node10&#45;&gt;Node2 -->
<g id="edge12_Node000010_Node000002" class="edge">
<title>Node10&#45;&gt;Node2</title>
<g id="a_edge12_Node000010_Node000002"><a xlink:title=" ">
<path fill="none" stroke="#63b8ff" d="M853.79,-176.77C754.18,-165.23 577.6,-144.37 564,-140 519.92,-125.83 473.6,-97.35 447.7,-80"/>
<polygon fill="#63b8ff" stroke="#63b8ff" points="449.36,-76.89 439.13,-74.16 445.42,-82.68 449.36,-76.89"/>
</a>
</g>
</g>
<!-- Node11 -->
<g id="Node000011" class="node">
<title>Node11</title>
<g id="a_Node000011"><a xlink:title=" ">
<polygon fill="#e0e0e0" stroke="#999999" points="946,-134.5 896,-134.5 896,-115.5 946,-115.5 946,-134.5"/>
<text text-anchor="middle" x="921" y="-122.5" font-family="Helvetica,sans-Serif" font-size="10.00">cstdint</text>
</a>
</g>
</g>
<!-- Node10&#45;&gt;Node11 -->
<g id="edge11_Node000010_Node000011" class="edge">
<title>Node10&#45;&gt;Node11</title>
<g id="a_edge11_Node000010_Node000011"><a xlink:title=" ">
<path fill="none" stroke="#63b8ff" d="M921,-175.87C921,-167.75 921,-155.31 921,-144.89"/>
<polygon fill="#63b8ff" stroke="#63b8ff" points="924.5,-144.67 921,-134.67 917.5,-144.67 924.5,-144.67"/>
</a>
</g>
</g>
<!-- Node12 -->
<g id="Node000012" class="node">
<title>Node12</title>
<g id="a_Node000012"><a xlink:href="grid__settings_8h.html" target="_top" xlink:title=" ">
<polygon fill="white" stroke="#666666" points="719,-134.5 573,-134.5 573,-115.5 719,-115.5 719,-134.5"/>
<text text-anchor="middle" x="646" y="-122.5" font-family="Helvetica,sans-Serif" font-size="10.00">occ/numint/grid_settings.h</text>
</a>
</g>
</g>
<!-- Node10&#45;&gt;Node12 -->
<g id="edge13_Node000010_Node000012" class="edge">
<title>Node10&#45;&gt;Node12</title>
<g id="a_edge13_Node000010_Node000012"><a xlink:title=" ">
<path fill="none" stroke="#63b8ff" d="M881.01,-175.99C832.03,-165.57 749.04,-147.92 695.92,-136.62"/>
<polygon fill="#63b8ff" stroke="#63b8ff" points="696.55,-133.17 686.04,-134.52 695.09,-140.02 696.55,-133.17"/>
</a>
</g>
</g>
<!-- Node10&#45;&gt;Node14 -->
<g id="edge16_Node000010_Node000014" class="edge">
<title>Node10&#45;&gt;Node14</title>
<g id="a_edge16_Node000010_Node000014"><a xlink:title=" ">
<path fill="none" stroke="#63b8ff" d="M928.79,-175.75C942.45,-160.78 972.13,-129.95 1002,-110 1021.64,-96.88 1045.77,-85.71 1064.93,-77.85"/>
<polygon fill="#63b8ff" stroke="#63b8ff" points="1066.46,-81.01 1074.44,-74.04 1063.86,-74.51 1066.46,-81.01"/>
</a>
</g>
</g>
<!-- Node12&#45;&gt;Node6 -->
<g id="edge14_Node000012_Node000006" class="edge">
<title>Node12&#45;&gt;Node6</title>
<g id="a_edge14_Node000012_Node000006"><a xlink:title=" ">
<path fill="none" stroke="#63b8ff" d="M575.77,-115.49C469.07,-102.57 270.47,-78.52 194.06,-69.26"/>
<polygon fill="#63b8ff" stroke="#63b8ff" points="194.46,-65.79 184.11,-68.06 193.62,-72.73 194.46,-65.79"/>
</a>
</g>
</g>
<!-- Node13 -->
<g id="Node000013" class="node">
<title>Node13</title>
<g id="a_Node000013"><a xlink:title=" ">
<polygon fill="#e0e0e0" stroke="#999999" points="1040,-74 996,-74 996,-55 1040,-55 1040,-74"/>
<text text-anchor="middle" x="1018" y="-62" font-family="Helvetica,sans-Serif" font-size="10.00">string</text>
</a>
</g>
</g>
<!-- Node12&#45;&gt;Node13 -->
<g id="edge15_Node000012_Node000013" class="edge">
<title>Node12&#45;&gt;Node13</title>
<g id="a_edge15_Node000012_Node000013"><a xlink:title=" ">
<path fill="none" stroke="#63b8ff" d="M694.52,-115.46C705.52,-113.6 717.15,-111.68 728,-110 839.71,-92.7 871.44,-97.15 985.88,-74"/>
<polygon fill="#63b8ff" stroke="#63b8ff" points="986.64,-77.41 995.73,-71.98 985.23,-70.56 986.64,-77.41"/>
</a>
</g>
</g>
<!-- Node15&#45;&gt;Node10 -->
<g id="edge18_Node000015_Node000010" class="edge">
<title>Node15&#45;&gt;Node10</title>
<g id="a_edge18_Node000015_Node000010"><a xlink:title=" ">
<path fill="none" stroke="#63b8ff" d="M1064.73,-230.99C1032.25,-220.94 989.01,-207.55 958.47,-198.1"/>
<polygon fill="#63b8ff" stroke="#63b8ff" points="959.22,-194.67 948.63,-195.05 957.15,-201.35 959.22,-194.67"/>
</a>
</g>
</g>
<!-- Node15&#45;&gt;Node14 -->
<g id="edge25_Node000015_Node000014" class="edge">
<title>Node15&#45;&gt;Node14</title>
<g id="a_edge25_Node000015_Node000014"><a xlink:title=" ">
<path fill="none" stroke="#63b8ff" d="M1171.1,-243.65C1235.16,-239.65 1322.83,-225.34 1294,-176 1258.83,-115.79 1177.41,-85.82 1131.34,-73.2"/>
<polygon fill="#63b8ff" stroke="#63b8ff" points="1132.09,-69.77 1121.53,-70.62 1130.32,-76.55 1132.09,-69.77"/>
</a>
</g>
</g>
<!-- Node16 -->
<g id="Node000016" class="node">
<title>Node16</title>
<g id="a_Node000016"><a xlink:href="spatial__grid__hierarchy_8h.html" target="_top" xlink:title=" ">
<polygon fill="white" stroke="#666666" points="1151.5,-140 1044.5,-140 1044.5,-110 1151.5,-110 1151.5,-140"/>
<text text-anchor="start" x="1052.5" y="-128" font-family="Helvetica,sans-Serif" font-size="10.00">occ/numint/spatial</text>
<text text-anchor="middle" x="1098" y="-117" font-family="Helvetica,sans-Serif" font-size="10.00">_grid_hierarchy.h</text>
</a>
</g>
</g>
<!-- Node15&#45;&gt;Node16 -->
<g id="edge19_Node000015_Node000016" class="edge">
<title>Node15&#45;&gt;Node16</title>
<g id="a_edge19_Node000015_Node000016"><a xlink:title=" ">
<path fill="none" stroke="#63b8ff" d="M1095.51,-230.7C1087.16,-221.41 1077.46,-208.54 1073,-195 1067.88,-179.47 1074.18,-162.16 1081.74,-148.77"/>
<polygon fill="#63b8ff" stroke="#63b8ff" points="1084.76,-150.53 1087.04,-140.19 1078.8,-146.85 1084.76,-150.53"/>
</a>
</g>
</g>
<!-- Node17 -->
<g id="Node000017" class="node">
<title>Node17</title>
<g id="a_Node000017"><a xlink:title=" ">
<polygon fill="#e0e0e0" stroke="#999999" points="1138,-195 1082,-195 1082,-176 1138,-176 1138,-195"/>
<text text-anchor="middle" x="1110" y="-183" font-family="Helvetica,sans-Serif" font-size="10.00">optional</text>
</a>
</g>
</g>
<!-- Node15&#45;&gt;Node17 -->
<g id="edge22_Node000015_Node000017" class="edge">
<title>Node15&#45;&gt;Node17</title>
<g id="a_edge22_Node000015_Node000017"><a xlink:title=" ">
<path fill="none" stroke="#63b8ff" d="M1110,-230.84C1110,-223.21 1110,-213.7 1110,-205.45"/>
<polygon fill="#63b8ff" stroke="#63b8ff" points="1113.5,-205.27 1110,-195.27 1106.5,-205.27 1113.5,-205.27"/>
</a>
</g>
</g>
<!-- Node18 -->
<g id="Node000018" class="node">
<title>Node18</title>
<g id="a_Node000018"><a xlink:title=" ">
<polygon fill="#e0e0e0" stroke="#999999" points="1221.5,-195 1156.5,-195 1156.5,-176 1221.5,-176 1221.5,-195"/>
<text text-anchor="middle" x="1189" y="-183" font-family="Helvetica,sans-Serif" font-size="10.00">stdexcept</text>
</a>
</g>
</g>
<!-- Node15&#45;&gt;Node18 -->
<g id="edge23_Node000015_Node000018" class="edge">
<title>Node15&#45;&gt;Node18</title>
<g id="a_edge23_Node000015_Node000018"><a xlink:title=" ">
<path fill="none" stroke="#63b8ff" d="M1129.12,-230.84C1141.18,-221.91 1156.71,-210.41 1168.94,-201.35"/>
<polygon fill="#63b8ff" stroke="#63b8ff" points="1171.21,-204.03 1177.16,-195.27 1167.04,-198.4 1171.21,-204.03"/>
</a>
</g>
</g>
<!-- Node19 -->
<g id="Node000019" class="node">
<title>Node19</title>
<g id="a_Node000019"><a xlink:title=" ">
<polygon fill="#e0e0e0" stroke="#999999" points="1284.5,-195 1239.5,-195 1239.5,-176 1284.5,-176 1284.5,-195"/>
<text text-anchor="middle" x="1262" y="-183" font-family="Helvetica,sans-Serif" font-size="10.00">utility</text>
</a>
</g>
</g>
<!-- Node15&#45;&gt;Node19 -->
<g id="edge24_Node000015_Node000019" class="edge">
<title>Node15&#45;&gt;Node19</title>
<g id="a_edge24_Node000015_Node000019"><a xlink:title=" ">
<path fill="none" stroke="#63b8ff" d="M1146.41,-230.99C1171.88,-221.18 1205.59,-208.21 1230.03,-198.81"/>
<polygon fill="#63b8ff" stroke="#63b8ff" points="1231.48,-202 1239.55,-195.14 1228.96,-195.46 1231.48,-202"/>
</a>
</g>
</g>
<!-- Node16&#45;&gt;Node2 -->
<g id="edge20_Node000016_Node000002" class="edge">
<title>Node16&#45;&gt;Node2</title>
<g id="a_edge20_Node000016_Node000002"><a xlink:title=" ">
<path fill="none" stroke="#63b8ff" d="M1044.38,-118.52C1017.55,-115.84 984.57,-112.63 955,-110 758.47,-92.52 706.46,-92.85 506.96,-74.16"/>
<polygon fill="#63b8ff" stroke="#63b8ff" points="507.02,-70.65 496.73,-73.2 506.36,-77.62 507.02,-70.65"/>
</a>
</g>
</g>
<!-- Node16&#45;&gt;Node14 -->
<g id="edge21_Node000016_Node000014" class="edge">
<title>Node16&#45;&gt;Node14</title>
<g id="a_edge21_Node000016_Node000014"><a xlink:title=" ">
<path fill="none" stroke="#63b8ff" d="M1098,-109.84C1098,-102.21 1098,-92.7 1098,-84.45"/>
<polygon fill="#63b8ff" stroke="#63b8ff" points="1101.5,-84.27 1098,-74.27 1094.5,-84.27 1101.5,-84.27"/>
</a>
</g>
</g>
<!-- Node20&#45;&gt;Node2 -->
<g id="edge31_Node000020_Node000002" class="edge">
<title>Node20&#45;&gt;Node2</title>
<g id="a_edge31_Node000020_Node000002"><a xlink:title=" ">
<path fill="none" stroke="#63b8ff" d="M361.33,-236.34C371.96,-208.68 405.28,-122.01 419.95,-83.85"/>
<polygon fill="#63b8ff" stroke="#63b8ff" points="423.38,-84.66 423.71,-74.07 416.85,-82.15 423.38,-84.66"/>
</a>
</g>
</g>
<!-- Node20&#45;&gt;Node6 -->
<g id="edge27_Node000020_Node000006" class="edge">
<title>Node20&#45;&gt;Node6</title>
<g id="a_edge27_Node000020_Node000006"><a xlink:title=" ">
<path fill="none" stroke="#63b8ff" d="M314.29,-239.99C262.64,-233.07 181.37,-218.68 163,-195 138.05,-162.84 148.39,-111.39 156.58,-84.03"/>
<polygon fill="#63b8ff" stroke="#63b8ff" points="160.01,-84.79 159.75,-74.2 153.35,-82.65 160.01,-84.79"/>
</a>
</g>
</g>
<!-- Node20&#45;&gt;Node14 -->
<g id="edge45_Node000020_Node000014" class="edge">
<title>Node20&#45;&gt;Node14</title>
<g id="a_edge45_Node000020_Node000014"><a xlink:title=" ">
<path fill="none" stroke="#63b8ff" d="M386.11,-236.47C394.09,-234.36 402.83,-232.32 411,-231 475.4,-220.62 943.2,-231.89 997,-195 1031.28,-171.5 1009.57,-142.08 1036,-110 1046.14,-97.7 1060.44,-87.13 1072.76,-79.38"/>
<polygon fill="#63b8ff" stroke="#63b8ff" points="1074.91,-82.17 1081.69,-74.03 1071.31,-76.17 1074.91,-82.17"/>
</a>
</g>
</g>
<!-- Node21 -->
<g id="Node000021" class="node">
<title>Node21</title>
<g id="a_Node000021"><a xlink:title=" ">
<polygon fill="#e0e0e0" stroke="#999999" points="581.5,-74 514.5,-74 514.5,-55 581.5,-55 581.5,-74"/>
<text text-anchor="middle" x="548" y="-62" font-family="Helvetica,sans-Serif" font-size="10.00">fmt/core.h</text>
</a>
</g>
</g>
<!-- Node20&#45;&gt;Node21 -->
<g id="edge28_Node000020_Node000021" class="edge">
<title>Node20&#45;&gt;Node21</title>
<g id="a_edge28_Node000020_Node000021"><a xlink:title=" ">
<path fill="none" stroke="#63b8ff" d="M367.16,-236.34C397.2,-207.97 492.95,-117.51 531.59,-81"/>
<polygon fill="#63b8ff" stroke="#63b8ff" points="534.06,-83.48 538.93,-74.07 529.26,-78.39 534.06,-83.48"/>
</a>
</g>
</g>
<!-- Node22 -->
<g id="Node000022" class="node">
<title>Node22</title>
<g id="a_Node000022"><a xlink:href="atom_8h.html" target="_top" xlink:title=" ">
<polygon fill="white" stroke="#666666" points="343.5,-134.5 248.5,-134.5 248.5,-115.5 343.5,-115.5 343.5,-134.5"/>
<text text-anchor="middle" x="296" y="-122.5" font-family="Helvetica,sans-Serif" font-size="10.00">occ/core/atom.h</text>
</a>
</g>
</g>
<!-- Node20&#45;&gt;Node22 -->
<g id="edge29_Node000020_Node000022" class="edge">
<title>Node20&#45;&gt;Node22</title>
<g id="a_edge29_Node000020_Node000022"><a xlink:title=" ">
<path fill="none" stroke="#63b8ff" d="M353.54,-236.44C343.49,-217.15 318.89,-169.94 305.34,-143.93"/>
<polygon fill="#63b8ff" stroke="#63b8ff" points="308.31,-142.05 300.59,-134.8 302.1,-145.29 308.31,-142.05"/>
</a>
</g>
</g>
<!-- Node23 -->
<g id="Node000023" class="node">
<title>Node23</title>
<g id="a_Node000023"><a xlink:href="point__charge_8h.html" target="_top" xlink:title=" ">
<polygon fill="white" stroke="#666666" points="304,-195 172,-195 172,-176 304,-176 304,-195"/>
<text text-anchor="middle" x="238" y="-183" font-family="Helvetica,sans-Serif" font-size="10.00">occ/core/point_charge.h</text>
</a>
</g>
</g>
<!-- Node20&#45;&gt;Node23 -->
<g id="edge32_Node000020_Node000023" class="edge">
<title>Node20&#45;&gt;Node23</title>
<g id="a_edge32_Node000020_Node000023"><a xlink:title=" ">
<path fill="none" stroke="#63b8ff" d="M340.55,-236.49C320.64,-226.79 287.86,-210.81 264.73,-199.53"/>
<polygon fill="#63b8ff" stroke="#63b8ff" points="265.99,-196.25 255.47,-195.02 262.93,-202.54 265.99,-196.25"/>
</a>
</g>
</g>
<!-- Node24 -->
<g id="Node000024" class="node">
<title>Node24</title>
<g id="a_Node000024"><a xlink:href="util_8h.html" target="_top" xlink:title=" ">
<polygon fill="white" stroke="#666666" points="822.5,-134.5 737.5,-134.5 737.5,-115.5 822.5,-115.5 822.5,-134.5"/>
<text text-anchor="middle" x="780" y="-122.5" font-family="Helvetica,sans-Serif" font-size="10.00">occ/core/util.h</text>
</a>
</g>
</g>
<!-- Node20&#45;&gt;Node24 -->
<g id="edge35_Node000020_Node000024" class="edge">
<title>Node20&#45;&gt;Node24</title>
<g id="a_edge35_Node000020_Node000024"><a xlink:title=" ">
<path fill="none" stroke="#63b8ff" d="M382.07,-236.44C421.31,-222.65 501.68,-195.14 571,-176 640.01,-156.95 658.54,-157.31 728,-140 731.61,-139.1 735.36,-138.14 739.12,-137.16"/>
<polygon fill="#63b8ff" stroke="#63b8ff" points="740.2,-140.5 748.98,-134.56 738.42,-133.73 740.2,-140.5"/>
</a>
</g>
</g>
<!-- Node22&#45;&gt;Node2 -->
<g id="edge30_Node000022_Node000002" class="edge">
<title>Node22&#45;&gt;Node2</title>
<g id="a_edge30_Node000022_Node000002"><a xlink:title=" ">
<path fill="none" stroke="#63b8ff" d="M315.05,-115.49C336.97,-105.7 373.21,-89.52 398.5,-78.23"/>
<polygon fill="#63b8ff" stroke="#63b8ff" points="400.22,-81.29 407.93,-74.02 397.37,-74.9 400.22,-81.29"/>
</a>
</g>
</g>
<!-- Node23&#45;&gt;Node6 -->
<g id="edge33_Node000023_Node000006" class="edge">
<title>Node23&#45;&gt;Node6</title>
<g id="a_edge33_Node000023_Node000006"><a xlink:title=" ">
<path fill="none" stroke="#63b8ff" d="M232.61,-175.94C220.4,-156.57 190.43,-109.02 174.08,-83.08"/>
<polygon fill="#63b8ff" stroke="#63b8ff" points="176.84,-80.9 168.55,-74.3 170.92,-84.63 176.84,-80.9"/>
</a>
</g>
</g>
<!-- Node23&#45;&gt;Node22 -->
<g id="edge34_Node000023_Node000022" class="edge">
<title>Node23&#45;&gt;Node22</title>
<g id="a_edge34_Node000023_Node000022"><a xlink:title=" ">
<path fill="none" stroke="#63b8ff" d="M246.56,-175.87C255.38,-166.97 269.34,-152.89 280.18,-141.95"/>
<polygon fill="#63b8ff" stroke="#63b8ff" points="282.85,-144.23 287.41,-134.67 277.88,-139.3 282.85,-144.23"/>
</a>
</g>
</g>
<!-- Node24&#45;&gt;Node2 -->
<g id="edge42_Node000024_Node000002" class="edge">
<title>Node24&#45;&gt;Node2</title>
<g id="a_edge42_Node000024_Node000002"><a xlink:title=" ">
<path fill="none" stroke="#63b8ff" d="M750.72,-115.48C743.34,-113.51 735.41,-111.54 728,-110 653.53,-94.53 567.61,-82.38 506.68,-74.72"/>
<polygon fill="#63b8ff" stroke="#63b8ff" points="507.1,-71.24 496.74,-73.48 506.23,-78.19 507.1,-71.24"/>
</a>
</g>
</g>
<!-- Node24&#45;&gt;Node13 -->
<g id="edge43_Node000024_Node000013" class="edge">
<title>Node24&#45;&gt;Node13</title>
<g id="a_edge43_Node000024_Node000013"><a xlink:title=" ">
<path fill="none" stroke="#63b8ff" d="M816.73,-115.49C856.15,-106.27 920.86,-90.91 985.69,-74.28"/>
<polygon fill="#63b8ff" stroke="#63b8ff" points="986.86,-77.59 995.67,-71.71 985.11,-70.82 986.86,-77.59"/>
</a>
</g>
</g>
<!-- Node24&#45;&gt;Node14 -->
<g id="edge44_Node000024_Node000014" class="edge">
<title>Node24&#45;&gt;Node14</title>
<g id="a_edge44_Node000024_Node000014"><a xlink:title=" ">
<path fill="none" stroke="#63b8ff" d="M822.56,-116.17C886.45,-104.42 1005.86,-82.45 1064.19,-71.72"/>
<polygon fill="#63b8ff" stroke="#63b8ff" points="1065.14,-75.1 1074.34,-69.85 1063.88,-68.22 1065.14,-75.1"/>
</a>
</g>
</g>
<!-- Node24&#45;&gt;Node21 -->
<g id="edge39_Node000024_Node000021" class="edge">
<title>Node24&#45;&gt;Node21</title>
<g id="a_edge39_Node000024_Node000021"><a xlink:title=" ">
<path fill="none" stroke="#63b8ff" d="M748.68,-115.46C741.87,-113.63 734.7,-111.73 728,-110 681.42,-97.97 627.88,-84.82 591.38,-75.96"/>
<polygon fill="#63b8ff" stroke="#63b8ff" points="592.1,-72.53 581.56,-73.58 590.45,-79.34 592.1,-72.53"/>
</a>
</g>
</g>
<!-- Node25 -->
<g id="Node000025" class="node">
<title>Node25</title>
<g id="a_Node000025"><a xlink:title=" ">
<polygon fill="#e0e0e0" stroke="#999999" points="664,-74 600,-74 600,-55 664,-55 664,-74"/>
<text text-anchor="middle" x="632" y="-62" font-family="Helvetica,sans-Serif" font-size="10.00">algorithm</text>
</a>
</g>
</g>
<!-- Node24&#45;&gt;Node25 -->
<g id="edge36_Node000024_Node000025" class="edge">
<title>Node24&#45;&gt;Node25</title>
<g id="a_edge36_Node000024_Node000025"><a xlink:title=" ">
<path fill="none" stroke="#63b8ff" d="M758.48,-115.49C733.38,-105.57 691.68,-89.09 663.07,-77.78"/>
<polygon fill="#63b8ff" stroke="#63b8ff" points="664.13,-74.44 653.55,-74.02 661.56,-80.95 664.13,-74.44"/>
</a>
</g>
</g>
<!-- Node26 -->
<g id="Node000026" class="node">
<title>Node26</title>
<g id="a_Node000026"><a xlink:title=" ">
<polygon fill="#e0e0e0" stroke="#999999" points="731.5,-74 682.5,-74 682.5,-55 731.5,-55 731.5,-74"/>
<text text-anchor="middle" x="707" y="-62" font-family="Helvetica,sans-Serif" font-size="10.00">cctype</text>
</a>
</g>
</g>
<!-- Node24&#45;&gt;Node26 -->
<g id="edge37_Node000024_Node000026" class="edge">
<title>Node24&#45;&gt;Node26</title>
<g id="a_edge37_Node000024_Node000026"><a xlink:title=" ">
<path fill="none" stroke="#63b8ff" d="M769.23,-115.37C757.8,-106.21 739.52,-91.56 725.72,-80.51"/>
<polygon fill="#63b8ff" stroke="#63b8ff" points="727.81,-77.69 717.82,-74.17 723.43,-83.15 727.81,-77.69"/>
</a>
</g>
</g>
<!-- Node27 -->
<g id="Node000027" class="node">
<title>Node27</title>
<g id="a_Node000027"><a xlink:title=" ">
<polygon fill="#e0e0e0" stroke="#999999" points="800,-74 750,-74 750,-55 800,-55 800,-74"/>
<text text-anchor="middle" x="775" y="-62" font-family="Helvetica,sans-Serif" font-size="10.00">chrono</text>
</a>
</g>
</g>
<!-- Node24&#45;&gt;Node27 -->
<g id="edge38_Node000024_Node000027" class="edge">
<title>Node24&#45;&gt;Node27</title>
<g id="a_edge38_Node000024_Node000027"><a xlink:title=" ">
<path fill="none" stroke="#63b8ff" d="M779.26,-115.37C778.57,-107.25 777.5,-94.81 776.61,-84.39"/>
<polygon fill="#63b8ff" stroke="#63b8ff" points="780.08,-83.83 775.74,-74.17 773.11,-84.43 780.08,-83.83"/>
</a>
</g>
</g>
<!-- Node28 -->
<g id="Node000028" class="node">
<title>Node28</title>
<g id="a_Node000028"><a xlink:title=" ">
<polygon fill="#e0e0e0" stroke="#999999" points="904,-74 818,-74 818,-55 904,-55 904,-74"/>
<text text-anchor="middle" x="861" y="-62" font-family="Helvetica,sans-Serif" font-size="10.00">fmt/ostream.h</text>
</a>
</g>
</g>
<!-- Node24&#45;&gt;Node28 -->
<g id="edge40_Node000024_Node000028" class="edge">
<title>Node24&#45;&gt;Node28</title>
<g id="a_edge40_Node000024_Node000028"><a xlink:title=" ">
<path fill="none" stroke="#63b8ff" d="M791.95,-115.37C804.75,-106.12 825.3,-91.28 840.65,-80.19"/>
<polygon fill="#63b8ff" stroke="#63b8ff" points="842.94,-82.86 849,-74.17 838.84,-77.18 842.94,-82.86"/>
</a>
</g>
</g>
<!-- Node29 -->
<g id="Node000029" class="node">
<title>Node29</title>
<g id="a_Node000029"><a xlink:title=" ">
<polygon fill="#e0e0e0" stroke="#999999" points="978,-74 922,-74 922,-55 978,-55 978,-74"/>
<text text-anchor="middle" x="950" y="-62" font-family="Helvetica,sans-Serif" font-size="10.00">numeric</text>
</a>
</g>
</g>
<!-- Node24&#45;&gt;Node29 -->
<g id="edge41_Node000024_Node000029" class="edge">
<title>Node24&#45;&gt;Node29</title>
<g id="a_edge41_Node000024_Node000029"><a xlink:title=" ">
<path fill="none" stroke="#63b8ff" d="M804.72,-115.49C833.93,-105.44 882.7,-88.66 915.59,-77.34"/>
<polygon fill="#63b8ff" stroke="#63b8ff" points="916.93,-80.58 925.25,-74.02 914.66,-73.96 916.93,-80.58"/>
</a>
</g>
</g>
<!-- Node30&#45;&gt;Node20 -->
<g id="edge47_Node000030_Node000020" class="edge">
<title>Node30&#45;&gt;Node20</title>
<g id="a_edge47_Node000030_Node000020"><a xlink:title=" ">
<path fill="none" stroke="#63b8ff" d="M474.79,-302.37C451.85,-291.49 412.19,-272.69 385.53,-260.05"/>
<polygon fill="#63b8ff" stroke="#63b8ff" points="386.88,-256.82 376.35,-255.7 383.89,-263.15 386.88,-256.82"/>
</a>
</g>
</g>
<!-- Node31 -->
<g id="Node000031" class="node">
<title>Node31</title>
<g id="a_Node000031"><a xlink:href="orbital__smearing_8h.html" target="_top" xlink:title=" ">
<polygon fill="white" stroke="#666666" points="566,-255.5 420,-255.5 420,-236.5 566,-236.5 566,-255.5"/>
<text text-anchor="middle" x="493" y="-243.5" font-family="Helvetica,sans-Serif" font-size="10.00">occ/qm/orbital_smearing.h</text>
</a>
</g>
</g>
<!-- Node30&#45;&gt;Node31 -->
<g id="edge48_Node000030_Node000031" class="edge">
<title>Node30&#45;&gt;Node31</title>
<g id="a_edge48_Node000030_Node000031"><a xlink:title=" ">
<path fill="none" stroke="#63b8ff" d="M493,-302.37C493,-293.16 493,-278.29 493,-266.27"/>
<polygon fill="#63b8ff" stroke="#63b8ff" points="496.5,-265.91 493,-255.91 489.5,-265.91 496.5,-265.91"/>
</a>
</g>
</g>
<!-- Node32 -->
<g id="Node000032" class="node">
<title>Node32</title>
<g id="a_Node000032"><a xlink:href="qm_2spinorbital_8h.html" target="_top" xlink:title=" ">
<polygon fill="white" stroke="#666666" points="700,-255.5 584,-255.5 584,-236.5 700,-236.5 700,-255.5"/>
<text text-anchor="middle" x="642" y="-243.5" font-family="Helvetica,sans-Serif" font-size="10.00">occ/qm/spinorbital.h</text>
</a>
</g>
</g>
<!-- Node30&#45;&gt;Node32 -->
<g id="edge50_Node000030_Node000032" class="edge">
<title>Node30&#45;&gt;Node32</title>
<g id="a_edge50_Node000030_Node000032"><a xlink:title=" ">
<path fill="none" stroke="#63b8ff" d="M513.09,-302.37C538.64,-291.39 582.96,-272.36 612.39,-259.72"/>
<polygon fill="#63b8ff" stroke="#63b8ff" points="613.94,-262.86 621.75,-255.7 611.18,-256.43 613.94,-262.86"/>
</a>
</g>
</g>
<!-- Node31&#45;&gt;Node2 -->
<g id="edge49_Node000031_Node000002" class="edge">
<title>Node31&#45;&gt;Node2</title>
<g id="a_edge49_Node000031_Node000002"><a xlink:title=" ">
<path fill="none" stroke="#63b8ff" d="M489.82,-236.34C479.65,-208.68 447.78,-122.01 433.75,-83.85"/>
<polygon fill="#63b8ff" stroke="#63b8ff" points="436.89,-82.25 430.15,-74.07 430.32,-84.66 436.89,-82.25"/>
</a>
</g>
</g>
<!-- Node32&#45;&gt;Node2 -->
<g id="edge51_Node000032_Node000002" class="edge">
<title>Node32&#45;&gt;Node2</title>
<g id="a_edge51_Node000032_Node000002"><a xlink:title=" ">
<path fill="none" stroke="#63b8ff" d="M629.67,-236.35C615.49,-226.41 591.54,-209.57 571,-195 536.7,-170.67 525.36,-168.02 494,-140 473.64,-121.81 453.07,-97.92 440.19,-82.16"/>
<polygon fill="#63b8ff" stroke="#63b8ff" points="442.88,-79.92 433.88,-74.33 437.43,-84.31 442.88,-79.92"/>
</a>
</g>
</g>
<!-- Node32&#45;&gt;Node24 -->
<g id="edge55_Node000032_Node000024" class="edge">
<title>Node32&#45;&gt;Node24</title>
<g id="a_edge55_Node000032_Node000024"><a xlink:title=" ">
<path fill="none" stroke="#63b8ff" d="M623.86,-236.43C599.42,-223.73 560.94,-198.94 579,-176 621.14,-122.47 661.99,-156.86 728,-140 731.56,-139.09 735.25,-138.13 738.96,-137.16"/>
<polygon fill="#63b8ff" stroke="#63b8ff" points="739.92,-140.52 748.69,-134.57 738.12,-133.76 739.92,-140.52"/>
</a>
</g>
</g>
<!-- Node33 -->
<g id="Node000033" class="node">
<title>Node33</title>
<g id="a_Node000033"><a xlink:href="core_2spinorbital_8h.html" target="_top" xlink:title=" ">
<polygon fill="white" stroke="#666666" points="835.5,-195 714.5,-195 714.5,-176 835.5,-176 835.5,-195"/>
<text text-anchor="middle" x="775" y="-183" font-family="Helvetica,sans-Serif" font-size="10.00">occ/core/spinorbital.h</text>
</a>
</g>
</g>
<!-- Node32&#45;&gt;Node33 -->
<g id="edge52_Node000032_Node000033" class="edge">
<title>Node32&#45;&gt;Node33</title>
<g id="a_edge52_Node000032_Node000033"><a xlink:title=" ">
<path fill="none" stroke="#63b8ff" d="M661.34,-236.49C683.7,-226.66 720.71,-210.38 746.4,-199.08"/>
<polygon fill="#63b8ff" stroke="#63b8ff" points="747.89,-202.25 755.64,-195.02 745.07,-195.84 747.89,-202.25"/>
</a>
</g>
</g>
<!-- Node34 -->
<g id="Node000034" class="node">
<title>Node34</title>
<g id="a_Node000034"><a xlink:href="qm_2opmatrix_8h.html" target="_top" xlink:title=" ">
<polygon fill="white" stroke="#666666" points="696,-195 588,-195 588,-176 696,-176 696,-195"/>
<text text-anchor="middle" x="642" y="-183" font-family="Helvetica,sans-Serif" font-size="10.00">occ/qm/opmatrix.h</text>
</a>
</g>
</g>
<!-- Node32&#45;&gt;Node34 -->
<g id="edge56_Node000032_Node000034" class="edge">
<title>Node32&#45;&gt;Node34</title>
<g id="a_edge56_Node000032_Node000034"><a xlink:title=" ">
<path fill="none" stroke="#63b8ff" d="M637.04,-236.37C635.29,-228.25 634.82,-215.81 635.64,-205.39"/>
<polygon fill="#63b8ff" stroke="#63b8ff" points="639.15,-205.55 637.04,-195.17 632.22,-204.6 639.15,-205.55"/>
</a>
</g>
</g>
<!-- Node33&#45;&gt;Node13 -->
<g id="edge54_Node000033_Node000013" class="edge">
<title>Node33&#45;&gt;Node13</title>
<g id="a_edge54_Node000033_Node000013"><a xlink:title=" ">
<path fill="none" stroke="#63b8ff" d="M785.86,-175.87C805.22,-160.81 847.4,-129.48 887,-110 904.68,-101.3 953.48,-85.48 986.27,-75.24"/>
<polygon fill="#63b8ff" stroke="#63b8ff" points="987.37,-78.56 995.88,-72.25 985.29,-71.88 987.37,-78.56"/>
</a>
</g>
</g>
<!-- Node33&#45;&gt;Node24 -->
<g id="edge53_Node000033_Node000024" class="edge">
<title>Node33&#45;&gt;Node24</title>
<g id="a_edge53_Node000033_Node000024"><a xlink:title=" ">
<path fill="none" stroke="#63b8ff" d="M775.74,-175.87C776.43,-167.75 777.5,-155.31 778.39,-144.89"/>
<polygon fill="#63b8ff" stroke="#63b8ff" points="781.89,-144.93 779.26,-134.67 774.92,-144.33 781.89,-144.93"/>
</a>
</g>
</g>
<!-- Node34&#45;&gt;Node32 -->
<g id="edge57_Node000034_Node000032" class="edge">
<title>Node34&#45;&gt;Node32</title>
<g id="a_edge57_Node000034_Node000032"><a xlink:title=" ">
<path fill="none" stroke="#63b8ff" d="M646.96,-195.17C648.71,-203.3 649.18,-215.74 648.35,-226.16"/>
<polygon fill="#63b8ff" stroke="#63b8ff" points="644.85,-225.99 646.96,-236.37 651.78,-226.94 644.85,-225.99"/>
</a>
</g>
</g>
<!-- Node35&#45;&gt;Node13 -->
<g id="edge62_Node000035_Node000013" class="edge">
<title>Node35&#45;&gt;Node13</title>
<g id="a_edge62_Node000035_Node000013"><a xlink:title=" ">
<path fill="none" stroke="#63b8ff" d="M1413.36,-175.94C1335.31,-154.14 1129.55,-96.66 1050.01,-74.44"/>
<polygon fill="#63b8ff" stroke="#63b8ff" points="1050.66,-70.99 1040.09,-71.67 1048.78,-77.73 1050.66,-70.99"/>
</a>
</g>
</g>
<!-- Node35&#45;&gt;Node14 -->
<g id="edge63_Node000035_Node000014" class="edge">
<title>Node35&#45;&gt;Node14</title>
<g id="a_edge63_Node000035_Node000014"><a xlink:title=" ">
<path fill="none" stroke="#63b8ff" d="M1441.96,-175.89C1437.71,-159.98 1426.29,-126.15 1403,-110 1359.6,-79.91 1201.83,-69.77 1131.84,-66.7"/>
<polygon fill="#63b8ff" stroke="#63b8ff" points="1131.92,-63.2 1121.78,-66.28 1131.63,-70.19 1131.92,-63.2"/>
</a>
</g>
</g>
<!-- Node35&#45;&gt;Node22 -->
<g id="edge61_Node000035_Node000022" class="edge">
<title>Node35&#45;&gt;Node22</title>
<g id="a_edge61_Node000035_Node000022"><a xlink:title=" ">
<path fill="none" stroke="#63b8ff" d="M1379.4,-180.74C1352.94,-179.22 1322,-177.48 1294,-176 969.62,-158.81 888.42,-156.47 564,-140 491.65,-136.33 408.33,-131.95 354.05,-129.08"/>
<polygon fill="#63b8ff" stroke="#63b8ff" points="354.1,-125.58 343.93,-128.55 353.73,-132.57 354.1,-125.58"/>
</a>
</g>
</g>
<!-- Node36 -->
<g id="Node000036" class="node">
<title>Node36</title>
<g id="a_Node000036"><a xlink:title=" ">
<polygon fill="#e0e0e0" stroke="#999999" points="1598.5,-134.5 1455.5,-134.5 1455.5,-115.5 1598.5,-115.5 1598.5,-134.5"/>
<text text-anchor="middle" x="1527" y="-122.5" font-family="Helvetica,sans-Serif" font-size="10.00">ankerl/unordered_dense.h</text>
</a>
</g>
</g>
<!-- Node35&#45;&gt;Node36 -->
<g id="edge60_Node000035_Node000036" class="edge">
<title>Node35&#45;&gt;Node36</title>
<g id="a_edge60_Node000035_Node000036"><a xlink:title=" ">
<path fill="none" stroke="#63b8ff" d="M1456.25,-175.87C1469.36,-166.62 1490.42,-151.78 1506.15,-140.69"/>
<polygon fill="#63b8ff" stroke="#63b8ff" points="1508.55,-143.29 1514.7,-134.67 1504.51,-137.57 1508.55,-143.29"/>
</a>
</g>
</g>
</g>
</svg>
