<?xml version="1.0" encoding="UTF-8" standalone="no"?>
<!DOCTYPE svg PUBLIC "-//W3C//DTD SVG 1.1//EN"
 "http://www.w3.org/Graphics/SVG/1.1/DTD/svg11.dtd">
<!-- Generated by graphviz version 2.43.0 (0)
 -->
<!-- Title: /home/runner/work/occ/occ/include/occ/dft/hirshfeld.h Pages: 1 -->
<svg width="1800pt" height="423pt"
 viewBox="0.00 0.00 1800.00 423.00" xmlns="http://www.w3.org/2000/svg" xmlns:xlink="http://www.w3.org/1999/xlink">
<g id="graph0" class="graph" transform="scale(1 1) rotate(0) translate(4 419)">
<title>/home/runner/work/occ/occ/include/occ/dft/hirshfeld.h</title>
<!-- Node1 -->
<g id="Node000001" class="node">
<title>Node1</title>
<g id="a_Node000001"><a xlink:title=" ">
<polygon fill="#999999" stroke="#666666" points="954,-415 826,-415 826,-374 954,-374 954,-415"/>
<text text-anchor="start" x="834" y="-403" font-family="Helvetica,sans-Serif" font-size="10.00">/home/runner/work/occ</text>
<text text-anchor="start" x="834" y="-392" font-family="Helvetica,sans-Serif" font-size="10.00">/occ/include/occ/dft</text>
<text text-anchor="middle" x="890" y="-381" font-family="Helvetica,sans-Serif" font-size="10.00">/hirshfeld.h</text>
</a>
</g>
</g>
<!-- Node2 -->
<g id="Node000002" class="node">
<title>Node2</title>
<g id="a_Node000002"><a xlink:href="linear__algebra_8h.html" target="_top" xlink:title=" ">
<polygon fill="white" stroke="#666666" points="954.5,-74 815.5,-74 815.5,-55 954.5,-55 954.5,-74"/>
<text text-anchor="middle" x="885" y="-62" font-family="Helvetica,sans-Serif" font-size="10.00">occ/core/linear_algebra.h</text>
</a>
</g>
</g>
<!-- Node1&#45;&gt;Node2 -->
<g id="edge1_Node000001_Node000002" class="edge">
<title>Node1&#45;&gt;Node2</title>
<g id="a_edge1_Node000001_Node000002"><a xlink:title=" ">
<path fill="none" stroke="#63b8ff" d="M825.85,-386.64C631.2,-364.48 65.69,-289.64 151,-176 214.08,-91.97 274.73,-129.35 378,-110 527.25,-82.03 704.58,-71.56 805.05,-67.7"/>
<polygon fill="#63b8ff" stroke="#63b8ff" points="805.26,-71.19 815.12,-67.32 805,-64.2 805.26,-71.19"/>
</a>
</g>
</g>
<!-- Node5 -->
<g id="Node000005" class="node">
<title>Node5</title>
<g id="a_Node000005"><a xlink:href="multipole_8h.html" target="_top" xlink:title=" ">
<polygon fill="white" stroke="#666666" points="116,-134.5 0,-134.5 0,-115.5 116,-115.5 116,-134.5"/>
<text text-anchor="middle" x="58" y="-122.5" font-family="Helvetica,sans-Serif" font-size="10.00">occ/core/multipole.h</text>
</a>
</g>
</g>
<!-- Node1&#45;&gt;Node5 -->
<g id="edge4_Node000001_Node000005" class="edge">
<title>Node1&#45;&gt;Node5</title>
<g id="a_edge4_Node000001_Node000005"><a xlink:title=" ">
<path fill="none" stroke="#63b8ff" d="M825.74,-393.04C650.25,-391.23 172.31,-382.23 118,-338 58.62,-289.65 55.42,-187.29 56.84,-144.95"/>
<polygon fill="#63b8ff" stroke="#63b8ff" points="60.35,-144.84 57.33,-134.69 53.36,-144.52 60.35,-144.84"/>
</a>
</g>
</g>
<!-- Node8 -->
<g id="Node000008" class="node">
<title>Node8</title>
<g id="a_Node000008"><a xlink:href="numint_2molecular__grid_8h.html" target="_top" xlink:title=" ">
<polygon fill="white" stroke="#666666" points="791,-338 669,-338 669,-308 791,-308 791,-338"/>
<text text-anchor="start" x="677" y="-326" font-family="Helvetica,sans-Serif" font-size="10.00">occ/numint/molecular</text>
<text text-anchor="middle" x="730" y="-315" font-family="Helvetica,sans-Serif" font-size="10.00">_grid.h</text>
</a>
</g>
</g>
<!-- Node1&#45;&gt;Node8 -->
<g id="edge8_Node000001_Node000008" class="edge">
<title>Node1&#45;&gt;Node8</title>
<g id="a_edge8_Node000001_Node000008"><a xlink:title=" ">
<path fill="none" stroke="#63b8ff" d="M845.01,-373.96C821.96,-363.94 794.08,-351.83 771.54,-342.04"/>
<polygon fill="#63b8ff" stroke="#63b8ff" points="772.81,-338.78 762.24,-338 770.02,-345.2 772.81,-338.78"/>
</a>
</g>
</g>
<!-- Node14 -->
<g id="Node000014" class="node">
<title>Node14</title>
<g id="a_Node000014"><a xlink:title=" ">
<polygon fill="#e0e0e0" stroke="#999999" points="1098.5,-74 1051.5,-74 1051.5,-55 1098.5,-55 1098.5,-74"/>
<text text-anchor="middle" x="1075" y="-62" font-family="Helvetica,sans-Serif" font-size="10.00">vector</text>
</a>
</g>
</g>
<!-- Node1&#45;&gt;Node14 -->
<g id="edge62_Node000001_Node000014" class="edge">
<title>Node1&#45;&gt;Node14</title>
<g id="a_edge62_Node000001_Node000014"><a xlink:title=" ">
<path fill="none" stroke="#63b8ff" d="M954.04,-380.19C1008.43,-364.82 1081.6,-333.33 1107,-272 1134.17,-206.41 1101.1,-120.44 1084.02,-83.57"/>
<polygon fill="#63b8ff" stroke="#63b8ff" points="1086.98,-81.65 1079.5,-74.15 1080.67,-84.68 1086.98,-81.65"/>
</a>
</g>
</g>
<!-- Node21 -->
<g id="Node000021" class="node">
<title>Node21</title>
<g id="a_Node000021"><a xlink:href="shell_8h.html" target="_top" xlink:title=" ">
<polygon fill="white" stroke="#666666" points="933.5,-266.5 846.5,-266.5 846.5,-247.5 933.5,-247.5 933.5,-266.5"/>
<text text-anchor="middle" x="890" y="-254.5" font-family="Helvetica,sans-Serif" font-size="10.00">occ/gto/shell.h</text>
</a>
</g>
</g>
<!-- Node1&#45;&gt;Node21 -->
<g id="edge56_Node000001_Node000021" class="edge">
<title>Node1&#45;&gt;Node21</title>
<g id="a_edge56_Node000001_Node000021"><a xlink:title=" ">
<path fill="none" stroke="#63b8ff" d="M890,-373.8C890,-347.83 890,-302.45 890,-276.89"/>
<polygon fill="#63b8ff" stroke="#63b8ff" points="893.5,-276.69 890,-266.69 886.5,-276.69 893.5,-276.69"/>
</a>
</g>
</g>
<!-- Node31 -->
<g id="Node000031" class="node">
<title>Node31</title>
<g id="a_Node000031"><a xlink:href="mo_8h.html" target="_top" xlink:title=" ">
<polygon fill="white" stroke="#666666" points="1032,-332.5 952,-332.5 952,-313.5 1032,-313.5 1032,-332.5"/>
<text text-anchor="middle" x="992" y="-320.5" font-family="Helvetica,sans-Serif" font-size="10.00">occ/qm/mo.h</text>
</a>
</g>
</g>
<!-- Node1&#45;&gt;Node31 -->
<g id="edge47_Node000001_Node000031" class="edge">
<title>Node1&#45;&gt;Node31</title>
<g id="a_edge47_Node000001_Node000031"><a xlink:title=" ">
<path fill="none" stroke="#63b8ff" d="M918.68,-373.96C935.27,-362.65 955.79,-348.67 970.9,-338.38"/>
<polygon fill="#63b8ff" stroke="#63b8ff" points="973.23,-341.03 979.52,-332.5 969.29,-335.24 973.23,-341.03"/>
</a>
</g>
</g>
<!-- Node35 -->
<g id="Node000035" class="node">
<title>Node35</title>
<g id="a_Node000035"><a xlink:href="slaterbasis_8h.html" target="_top" xlink:title=" ">
<polygon fill="white" stroke="#666666" points="1417.5,-200.5 1288.5,-200.5 1288.5,-181.5 1417.5,-181.5 1417.5,-200.5"/>
<text text-anchor="middle" x="1353" y="-188.5" font-family="Helvetica,sans-Serif" font-size="10.00">occ/slater/slaterbasis.h</text>
</a>
</g>
</g>
<!-- Node1&#45;&gt;Node35 -->
<g id="edge57_Node000001_Node000035" class="edge">
<title>Node1&#45;&gt;Node35</title>
<g id="a_edge57_Node000001_Node000035"><a xlink:title=" ">
<path fill="none" stroke="#63b8ff" d="M954.24,-386.12C1006.02,-378.57 1079.85,-364.12 1140,-338 1219.61,-303.43 1300.62,-237.65 1335.39,-207.64"/>
<polygon fill="#63b8ff" stroke="#63b8ff" points="1337.97,-210.03 1343.2,-200.82 1333.37,-204.75 1337.97,-210.03"/>
</a>
</g>
</g>
<!-- Node3 -->
<g id="Node000003" class="node">
<title>Node3</title>
<g id="a_Node000003"><a xlink:title=" ">
<polygon fill="#e0e0e0" stroke="#999999" points="869.5,-19 800.5,-19 800.5,0 869.5,0 869.5,-19"/>
<text text-anchor="middle" x="835" y="-7" font-family="Helvetica,sans-Serif" font-size="10.00">Eigen/Core</text>
</a>
</g>
</g>
<!-- Node2&#45;&gt;Node3 -->
<g id="edge2_Node000002_Node000003" class="edge">
<title>Node2&#45;&gt;Node3</title>
<g id="a_edge2_Node000002_Node000003"><a xlink:title=" ">
<path fill="none" stroke="#63b8ff" d="M876.74,-54.75C869.54,-47.11 858.89,-35.82 850.15,-26.56"/>
<polygon fill="#63b8ff" stroke="#63b8ff" points="852.51,-23.96 843.1,-19.09 847.42,-28.76 852.51,-23.96"/>
</a>
</g>
</g>
<!-- Node4 -->
<g id="Node000004" class="node">
<title>Node4</title>
<g id="a_Node000004"><a xlink:title=" ">
<polygon fill="#e0e0e0" stroke="#999999" points="980.5,-19 887.5,-19 887.5,0 980.5,0 980.5,-19"/>
<text text-anchor="middle" x="934" y="-7" font-family="Helvetica,sans-Serif" font-size="10.00">Eigen/StdVector</text>
</a>
</g>
</g>
<!-- Node2&#45;&gt;Node4 -->
<g id="edge3_Node000002_Node000004" class="edge">
<title>Node2&#45;&gt;Node4</title>
<g id="a_edge3_Node000002_Node000004"><a xlink:title=" ">
<path fill="none" stroke="#63b8ff" d="M893.09,-54.75C900.16,-47.11 910.59,-35.82 919.15,-26.56"/>
<polygon fill="#63b8ff" stroke="#63b8ff" points="921.84,-28.81 926.06,-19.09 916.7,-24.06 921.84,-28.81"/>
</a>
</g>
</g>
<!-- Node5&#45;&gt;Node2 -->
<g id="edge7_Node000005_Node000002" class="edge">
<title>Node5&#45;&gt;Node2</title>
<g id="a_edge7_Node000005_Node000002"><a xlink:title=" ">
<path fill="none" stroke="#63b8ff" d="M96.71,-115.49C107.44,-113.4 119.13,-111.37 130,-110 374.97,-79.1 667.42,-69.59 805.43,-66.71"/>
<polygon fill="#63b8ff" stroke="#63b8ff" points="805.57,-70.21 815.49,-66.51 805.43,-63.21 805.57,-70.21"/>
</a>
</g>
</g>
<!-- Node6 -->
<g id="Node000006" class="node">
<title>Node6</title>
<g id="a_Node000006"><a xlink:title=" ">
<polygon fill="#e0e0e0" stroke="#999999" points="361,-74 319,-74 319,-55 361,-55 361,-74"/>
<text text-anchor="middle" x="340" y="-62" font-family="Helvetica,sans-Serif" font-size="10.00">array</text>
</a>
</g>
</g>
<!-- Node5&#45;&gt;Node6 -->
<g id="edge5_Node000005_Node000006" class="edge">
<title>Node5&#45;&gt;Node6</title>
<g id="a_edge5_Node000005_Node000006"><a xlink:title=" ">
<path fill="none" stroke="#63b8ff" d="M99.01,-115.49C156.03,-103.66 258,-82.51 309.07,-71.92"/>
<polygon fill="#63b8ff" stroke="#63b8ff" points="309.79,-75.34 318.87,-69.88 308.37,-68.49 309.79,-75.34"/>
</a>
</g>
</g>
<!-- Node7 -->
<g id="Node000007" class="node">
<title>Node7</title>
<g id="a_Node000007"><a xlink:title=" ">
<polygon fill="#e0e0e0" stroke="#999999" points="97.5,-74 18.5,-74 18.5,-55 97.5,-55 97.5,-74"/>
<text text-anchor="middle" x="58" y="-62" font-family="Helvetica,sans-Serif" font-size="10.00">fmt/format.h</text>
</a>
</g>
</g>
<!-- Node5&#45;&gt;Node7 -->
<g id="edge6_Node000005_Node000007" class="edge">
<title>Node5&#45;&gt;Node7</title>
<g id="a_edge6_Node000005_Node000007"><a xlink:title=" ">
<path fill="none" stroke="#63b8ff" d="M58,-115.37C58,-107.25 58,-94.81 58,-84.39"/>
<polygon fill="#63b8ff" stroke="#63b8ff" points="61.5,-84.17 58,-74.17 54.5,-84.17 61.5,-84.17"/>
</a>
</g>
</g>
<!-- Node9 -->
<g id="Node000009" class="node">
<title>Node9</title>
<g id="a_Node000009"><a xlink:title=" ">
<polygon fill="#e0e0e0" stroke="#999999" points="702,-266.5 644,-266.5 644,-247.5 702,-247.5 702,-266.5"/>
<text text-anchor="middle" x="673" y="-254.5" font-family="Helvetica,sans-Serif" font-size="10.00">memory</text>
</a>
</g>
</g>
<!-- Node8&#45;&gt;Node9 -->
<g id="edge9_Node000008_Node000009" class="edge">
<title>Node8&#45;&gt;Node9</title>
<g id="a_edge9_Node000008_Node000009"><a xlink:title=" ">
<path fill="none" stroke="#63b8ff" d="M717.35,-307.8C708.55,-297.92 696.8,-284.72 687.6,-274.39"/>
<polygon fill="#63b8ff" stroke="#63b8ff" points="690.14,-271.98 680.88,-266.84 684.91,-276.64 690.14,-271.98"/>
</a>
</g>
</g>
<!-- Node10 -->
<g id="Node000010" class="node">
<title>Node10</title>
<g id="a_Node000010"><a xlink:href="numint_2grid__types_8h.html" target="_top" xlink:title=" ">
<polygon fill="white" stroke="#666666" points="719,-200.5 585,-200.5 585,-181.5 719,-181.5 719,-200.5"/>
<text text-anchor="middle" x="652" y="-188.5" font-family="Helvetica,sans-Serif" font-size="10.00">occ/numint/grid_types.h</text>
</a>
</g>
</g>
<!-- Node8&#45;&gt;Node10 -->
<g id="edge10_Node000008_Node000010" class="edge">
<title>Node8&#45;&gt;Node10</title>
<g id="a_edge10_Node000008_Node000010"><a xlink:title=" ">
<path fill="none" stroke="#63b8ff" d="M729.31,-307.98C727.91,-291.17 723.69,-262.68 711,-242 702.13,-227.54 687.64,-215.18 675.25,-206.36"/>
<polygon fill="#63b8ff" stroke="#63b8ff" points="676.95,-203.29 666.7,-200.59 673.03,-209.09 676.95,-203.29"/>
</a>
</g>
</g>
<!-- Node15 -->
<g id="Node000015" class="node">
<title>Node15</title>
<g id="a_Node000015"><a xlink:href="numint_2molecular__grid__points_8h.html" target="_top" xlink:title=" ">
<polygon fill="white" stroke="#666666" points="497,-272 375,-272 375,-242 497,-242 497,-272"/>
<text text-anchor="start" x="383" y="-260" font-family="Helvetica,sans-Serif" font-size="10.00">occ/numint/molecular</text>
<text text-anchor="middle" x="436" y="-249" font-family="Helvetica,sans-Serif" font-size="10.00">_grid_points.h</text>
</a>
</g>
</g>
<!-- Node8&#45;&gt;Node15 -->
<g id="edge17_Node000008_Node000015" class="edge">
<title>Node8&#45;&gt;Node15</title>
<g id="a_edge17_Node000008_Node000015"><a xlink:title=" ">
<path fill="none" stroke="#63b8ff" d="M668.73,-308.66C621.65,-298.41 556.55,-284.24 507.17,-273.49"/>
<polygon fill="#63b8ff" stroke="#63b8ff" points="507.71,-270.03 497.2,-271.32 506.22,-276.87 507.71,-270.03"/>
</a>
</g>
</g>
<!-- Node8&#45;&gt;Node21 -->
<g id="edge27_Node000008_Node000021" class="edge">
<title>Node8&#45;&gt;Node21</title>
<g id="a_edge27_Node000008_Node000021"><a xlink:title=" ">
<path fill="none" stroke="#63b8ff" d="M765.11,-307.95C793.3,-296.68 832.47,-281.01 859.39,-270.25"/>
<polygon fill="#63b8ff" stroke="#63b8ff" points="860.72,-273.48 868.71,-266.52 858.12,-266.98 860.72,-273.48"/>
</a>
</g>
</g>
<!-- Node10&#45;&gt;Node2 -->
<g id="edge12_Node000010_Node000002" class="edge">
<title>Node10&#45;&gt;Node2</title>
<g id="a_edge12_Node000010_Node000002"><a xlink:title=" ">
<path fill="none" stroke="#63b8ff" d="M634.99,-181.32C608.28,-166.6 561.73,-135.81 584,-110 612.03,-77.52 725.7,-68.34 805.03,-65.97"/>
<polygon fill="#63b8ff" stroke="#63b8ff" points="805.59,-69.46 815.5,-65.69 805.41,-62.46 805.59,-69.46"/>
</a>
</g>
</g>
<!-- Node11 -->
<g id="Node000011" class="node">
<title>Node11</title>
<g id="a_Node000011"><a xlink:title=" ">
<polygon fill="#e0e0e0" stroke="#999999" points="643,-134.5 593,-134.5 593,-115.5 643,-115.5 643,-134.5"/>
<text text-anchor="middle" x="618" y="-122.5" font-family="Helvetica,sans-Serif" font-size="10.00">cstdint</text>
</a>
</g>
</g>
<!-- Node10&#45;&gt;Node11 -->
<g id="edge11_Node000010_Node000011" class="edge">
<title>Node10&#45;&gt;Node11</title>
<g id="a_edge11_Node000010_Node000011"><a xlink:title=" ">
<path fill="none" stroke="#63b8ff" d="M647.41,-181.37C642.32,-171.78 633.96,-156.05 627.46,-143.8"/>
<polygon fill="#63b8ff" stroke="#63b8ff" points="630.51,-142.09 622.73,-134.91 624.33,-145.38 630.51,-142.09"/>
</a>
</g>
</g>
<!-- Node12 -->
<g id="Node000012" class="node">
<title>Node12</title>
<g id="a_Node000012"><a xlink:href="grid__settings_8h.html" target="_top" xlink:title=" ">
<polygon fill="white" stroke="#666666" points="781,-134.5 661,-134.5 661,-115.5 781,-115.5 781,-134.5"/>
<text text-anchor="middle" x="721" y="-122.5" font-family="Helvetica,sans-Serif" font-size="10.00">occ/io/grid_settings.h</text>
</a>
</g>
</g>
<!-- Node10&#45;&gt;Node12 -->
<g id="edge13_Node000010_Node000012" class="edge">
<title>Node10&#45;&gt;Node12</title>
<g id="a_edge13_Node000010_Node000012"><a xlink:title=" ">
<path fill="none" stroke="#63b8ff" d="M661.31,-181.37C672.15,-171.31 690.3,-154.48 703.74,-142.01"/>
<polygon fill="#63b8ff" stroke="#63b8ff" points="706.45,-144.27 711.4,-134.91 701.69,-139.14 706.45,-144.27"/>
</a>
</g>
</g>
<!-- Node10&#45;&gt;Node14 -->
<g id="edge16_Node000010_Node000014" class="edge">
<title>Node10&#45;&gt;Node14</title>
<g id="a_edge16_Node000010_Node000014"><a xlink:title=" ">
<path fill="none" stroke="#63b8ff" d="M683.88,-181.5C712.64,-173.13 755.59,-158.87 790,-140 809.17,-129.48 809.01,-118.86 829,-110 900.16,-78.45 992.35,-69.27 1041.18,-66.59"/>
<polygon fill="#63b8ff" stroke="#63b8ff" points="1041.38,-70.09 1051.2,-66.11 1041.04,-63.1 1041.38,-70.09"/>
</a>
</g>
</g>
<!-- Node12&#45;&gt;Node6 -->
<g id="edge14_Node000012_Node000006" class="edge">
<title>Node12&#45;&gt;Node6</title>
<g id="a_edge14_Node000012_Node000006"><a xlink:title=" ">
<path fill="none" stroke="#63b8ff" d="M680.94,-115.46C671.47,-113.55 661.4,-111.62 652,-110 549.68,-92.34 427.61,-76.41 371.3,-69.35"/>
<polygon fill="#63b8ff" stroke="#63b8ff" points="371.61,-65.86 361.25,-68.1 370.74,-72.81 371.61,-65.86"/>
</a>
</g>
</g>
<!-- Node13 -->
<g id="Node000013" class="node">
<title>Node13</title>
<g id="a_Node000013"><a xlink:title=" ">
<polygon fill="#e0e0e0" stroke="#999999" points="1310,-74 1266,-74 1266,-55 1310,-55 1310,-74"/>
<text text-anchor="middle" x="1288" y="-62" font-family="Helvetica,sans-Serif" font-size="10.00">string</text>
</a>
</g>
</g>
<!-- Node12&#45;&gt;Node13 -->
<g id="edge15_Node000012_Node000013" class="edge">
<title>Node12&#45;&gt;Node13</title>
<g id="a_edge15_Node000012_Node000013"><a xlink:title=" ">
<path fill="none" stroke="#63b8ff" d="M781.22,-115.84C796.78,-113.83 813.5,-111.76 829,-110 988.99,-91.88 1180.88,-74.77 1255.81,-68.26"/>
<polygon fill="#63b8ff" stroke="#63b8ff" points="1256.34,-71.73 1266,-67.38 1255.73,-64.75 1256.34,-71.73"/>
</a>
</g>
</g>
<!-- Node15&#45;&gt;Node10 -->
<g id="edge18_Node000015_Node000010" class="edge">
<title>Node15&#45;&gt;Node10</title>
<g id="a_edge18_Node000015_Node000010"><a xlink:title=" ">
<path fill="none" stroke="#63b8ff" d="M483.4,-241.95C522.45,-230.38 577.13,-214.18 613.51,-203.41"/>
<polygon fill="#63b8ff" stroke="#63b8ff" points="614.66,-206.71 623.25,-200.52 612.67,-200 614.66,-206.71"/>
</a>
</g>
</g>
<!-- Node15&#45;&gt;Node14 -->
<g id="edge26_Node000015_Node000014" class="edge">
<title>Node15&#45;&gt;Node14</title>
<g id="a_edge26_Node000015_Node000014"><a xlink:title=" ">
<path fill="none" stroke="#63b8ff" d="M456.11,-241.82C469.13,-232.27 486.17,-219.08 500,-206 541.19,-167.04 533.48,-135.74 584,-110 594.22,-104.79 931.59,-77.11 1041.07,-68.24"/>
<polygon fill="#63b8ff" stroke="#63b8ff" points="1041.54,-71.71 1051.23,-67.41 1040.98,-64.73 1041.54,-71.71"/>
</a>
</g>
</g>
<!-- Node16 -->
<g id="Node000016" class="node">
<title>Node16</title>
<g id="a_Node000016"><a xlink:href="dft_2spatial__grid__hierarchy_8h.html" target="_top" xlink:title=" ">
<polygon fill="white" stroke="#666666" points="490.5,-206 381.5,-206 381.5,-176 490.5,-176 490.5,-206"/>
<text text-anchor="start" x="389.5" y="-194" font-family="Helvetica,sans-Serif" font-size="10.00">occ/dft/spatial_grid</text>
<text text-anchor="middle" x="436" y="-183" font-family="Helvetica,sans-Serif" font-size="10.00">_hierarchy.h</text>
</a>
</g>
</g>
<!-- Node15&#45;&gt;Node16 -->
<g id="edge19_Node000015_Node000016" class="edge">
<title>Node15&#45;&gt;Node16</title>
<g id="a_edge19_Node000015_Node000016"><a xlink:title=" ">
<path fill="none" stroke="#63b8ff" d="M436,-241.8C436,-234.34 436,-224.99 436,-216.41"/>
<polygon fill="#63b8ff" stroke="#63b8ff" points="439.5,-216.16 436,-206.16 432.5,-216.16 439.5,-216.16"/>
</a>
</g>
</g>
<!-- Node18 -->
<g id="Node000018" class="node">
<title>Node18</title>
<g id="a_Node000018"><a xlink:title=" ">
<polygon fill="#e0e0e0" stroke="#999999" points="280,-200.5 224,-200.5 224,-181.5 280,-181.5 280,-200.5"/>
<text text-anchor="middle" x="252" y="-188.5" font-family="Helvetica,sans-Serif" font-size="10.00">optional</text>
</a>
</g>
</g>
<!-- Node15&#45;&gt;Node18 -->
<g id="edge23_Node000015_Node000018" class="edge">
<title>Node15&#45;&gt;Node18</title>
<g id="a_edge23_Node000015_Node000018"><a xlink:title=" ">
<path fill="none" stroke="#63b8ff" d="M394.06,-241.92C364.83,-232.04 324.97,-218.43 290,-206 288.16,-205.35 286.28,-204.67 284.37,-203.98"/>
<polygon fill="#63b8ff" stroke="#63b8ff" points="285.47,-200.66 274.88,-200.53 283.07,-207.24 285.47,-200.66"/>
</a>
</g>
</g>
<!-- Node19 -->
<g id="Node000019" class="node">
<title>Node19</title>
<g id="a_Node000019"><a xlink:title=" ">
<polygon fill="#e0e0e0" stroke="#999999" points="363.5,-200.5 298.5,-200.5 298.5,-181.5 363.5,-181.5 363.5,-200.5"/>
<text text-anchor="middle" x="331" y="-188.5" font-family="Helvetica,sans-Serif" font-size="10.00">stdexcept</text>
</a>
</g>
</g>
<!-- Node15&#45;&gt;Node19 -->
<g id="edge24_Node000015_Node000019" class="edge">
<title>Node15&#45;&gt;Node19</title>
<g id="a_edge24_Node000015_Node000019"><a xlink:title=" ">
<path fill="none" stroke="#63b8ff" d="M412.96,-241.95C395.44,-231.27 371.44,-216.65 353.94,-205.98"/>
<polygon fill="#63b8ff" stroke="#63b8ff" points="355.33,-202.73 344.97,-200.52 351.69,-208.71 355.33,-202.73"/>
</a>
</g>
</g>
<!-- Node20 -->
<g id="Node000020" class="node">
<title>Node20</title>
<g id="a_Node000020"><a xlink:title=" ">
<polygon fill="#e0e0e0" stroke="#999999" points="205.5,-200.5 160.5,-200.5 160.5,-181.5 205.5,-181.5 205.5,-200.5"/>
<text text-anchor="middle" x="183" y="-188.5" font-family="Helvetica,sans-Serif" font-size="10.00">utility</text>
</a>
</g>
</g>
<!-- Node15&#45;&gt;Node20 -->
<g id="edge25_Node000015_Node000020" class="edge">
<title>Node15&#45;&gt;Node20</title>
<g id="a_edge25_Node000015_Node000020"><a xlink:title=" ">
<path fill="none" stroke="#63b8ff" d="M374.65,-245.37C329.82,-236.82 267.88,-223.38 215,-206 213.56,-205.53 212.1,-205.01 210.63,-204.47"/>
<polygon fill="#63b8ff" stroke="#63b8ff" points="211.63,-201.1 201.04,-200.61 209.01,-207.59 211.63,-201.1"/>
</a>
</g>
</g>
<!-- Node17 -->
<g id="Node000017" class="node">
<title>Node17</title>
<g id="a_Node000017"><a xlink:href="qm_2spatial__grid__hierarchy_8h.html" target="_top" xlink:title=" ">
<polygon fill="white" stroke="#666666" points="499,-140 387,-140 387,-110 499,-110 499,-140"/>
<text text-anchor="start" x="395" y="-128" font-family="Helvetica,sans-Serif" font-size="10.00">occ/qm/spatial_grid</text>
<text text-anchor="middle" x="443" y="-117" font-family="Helvetica,sans-Serif" font-size="10.00">_hierarchy.h</text>
</a>
</g>
</g>
<!-- Node16&#45;&gt;Node17 -->
<g id="edge20_Node000016_Node000017" class="edge">
<title>Node16&#45;&gt;Node17</title>
<g id="a_edge20_Node000016_Node000017"><a xlink:title=" ">
<path fill="none" stroke="#63b8ff" d="M437.55,-175.8C438.38,-168.26 439.41,-158.78 440.36,-150.13"/>
<polygon fill="#63b8ff" stroke="#63b8ff" points="443.84,-150.49 441.45,-140.16 436.88,-149.72 443.84,-150.49"/>
</a>
</g>
</g>
<!-- Node17&#45;&gt;Node2 -->
<g id="edge21_Node000017_Node000002" class="edge">
<title>Node17&#45;&gt;Node2</title>
<g id="a_edge21_Node000017_Node000002"><a xlink:title=" ">
<path fill="none" stroke="#63b8ff" d="M499.09,-112.38C503.79,-111.53 508.47,-110.72 513,-110 613.15,-94.02 729.3,-81 804.8,-73.26"/>
<polygon fill="#63b8ff" stroke="#63b8ff" points="805.59,-76.7 815.18,-72.2 804.88,-69.73 805.59,-76.7"/>
</a>
</g>
</g>
<!-- Node17&#45;&gt;Node14 -->
<g id="edge22_Node000017_Node000014" class="edge">
<title>Node17&#45;&gt;Node14</title>
<g id="a_edge22_Node000017_Node000014"><a xlink:title=" ">
<path fill="none" stroke="#63b8ff" d="M499.06,-112.18C503.77,-111.37 508.46,-110.63 513,-110 526.17,-108.17 922.41,-77.34 1041.48,-68.1"/>
<polygon fill="#63b8ff" stroke="#63b8ff" points="1041.79,-71.59 1051.49,-67.32 1041.25,-64.61 1041.79,-71.59"/>
</a>
</g>
</g>
<!-- Node21&#45;&gt;Node2 -->
<g id="edge32_Node000021_Node000002" class="edge">
<title>Node21&#45;&gt;Node2</title>
<g id="a_edge32_Node000021_Node000002"><a xlink:title=" ">
<path fill="none" stroke="#63b8ff" d="M897.96,-247.17C917.82,-224 966.31,-159.81 942,-110 935.7,-97.09 923.65,-86.83 912.24,-79.43"/>
<polygon fill="#63b8ff" stroke="#63b8ff" points="913.73,-76.25 903.35,-74.12 910.14,-82.25 913.73,-76.25"/>
</a>
</g>
</g>
<!-- Node21&#45;&gt;Node6 -->
<g id="edge28_Node000021_Node000006" class="edge">
<title>Node21&#45;&gt;Node6</title>
<g id="a_edge28_Node000021_Node000006"><a xlink:title=" ">
<path fill="none" stroke="#63b8ff" d="M846.45,-252.1C785.24,-245.93 670.64,-231.88 576,-206 540.97,-196.42 534.63,-186.93 500,-176 434.62,-155.36 395.94,-190.89 350,-140 336.5,-125.05 335.65,-101.04 337.09,-84.33"/>
<polygon fill="#63b8ff" stroke="#63b8ff" points="340.6,-84.48 338.34,-74.13 333.65,-83.63 340.6,-84.48"/>
</a>
</g>
</g>
<!-- Node21&#45;&gt;Node14 -->
<g id="edge46_Node000021_Node000014" class="edge">
<title>Node21&#45;&gt;Node14</title>
<g id="a_edge46_Node000021_Node000014"><a xlink:title=" ">
<path fill="none" stroke="#63b8ff" d="M901.27,-247.22C913.44,-237.55 933.21,-221.35 949,-206 992.48,-163.73 1038.95,-109.14 1061.36,-82.14"/>
<polygon fill="#63b8ff" stroke="#63b8ff" points="1064.33,-84.04 1068,-74.1 1058.93,-79.58 1064.33,-84.04"/>
</a>
</g>
</g>
<!-- Node22 -->
<g id="Node000022" class="node">
<title>Node22</title>
<g id="a_Node000022"><a xlink:title=" ">
<polygon fill="#e0e0e0" stroke="#999999" points="1395.5,-74 1328.5,-74 1328.5,-55 1395.5,-55 1395.5,-74"/>
<text text-anchor="middle" x="1362" y="-62" font-family="Helvetica,sans-Serif" font-size="10.00">fmt/core.h</text>
</a>
</g>
</g>
<!-- Node21&#45;&gt;Node22 -->
<g id="edge29_Node000021_Node000022" class="edge">
<title>Node21&#45;&gt;Node22</title>
<g id="a_edge29_Node000021_Node000022"><a xlink:title=" ">
<path fill="none" stroke="#63b8ff" d="M905.34,-247.34C955.54,-219.11 1114.85,-130.39 1170,-110 1196.82,-100.08 1270.44,-84.15 1318.33,-74.28"/>
<polygon fill="#63b8ff" stroke="#63b8ff" points="1319.04,-77.71 1328.13,-72.27 1317.64,-70.85 1319.04,-77.71"/>
</a>
</g>
</g>
<!-- Node23 -->
<g id="Node000023" class="node">
<title>Node23</title>
<g id="a_Node000023"><a xlink:href="atom_8h.html" target="_top" xlink:title=" ">
<polygon fill="white" stroke="#666666" points="932.5,-134.5 837.5,-134.5 837.5,-115.5 932.5,-115.5 932.5,-134.5"/>
<text text-anchor="middle" x="885" y="-122.5" font-family="Helvetica,sans-Serif" font-size="10.00">occ/core/atom.h</text>
</a>
</g>
</g>
<!-- Node21&#45;&gt;Node23 -->
<g id="edge30_Node000021_Node000023" class="edge">
<title>Node21&#45;&gt;Node23</title>
<g id="a_edge30_Node000021_Node000023"><a xlink:title=" ">
<path fill="none" stroke="#63b8ff" d="M889.67,-247.47C888.88,-226.82 886.84,-173.72 885.73,-145.04"/>
<polygon fill="#63b8ff" stroke="#63b8ff" points="889.22,-144.59 885.34,-134.73 882.22,-144.86 889.22,-144.59"/>
</a>
</g>
</g>
<!-- Node24 -->
<g id="Node000024" class="node">
<title>Node24</title>
<g id="a_Node000024"><a xlink:href="point__charge_8h.html" target="_top" xlink:title=" ">
<polygon fill="white" stroke="#666666" points="869,-200.5 737,-200.5 737,-181.5 869,-181.5 869,-200.5"/>
<text text-anchor="middle" x="803" y="-188.5" font-family="Helvetica,sans-Serif" font-size="10.00">occ/core/point_charge.h</text>
</a>
</g>
</g>
<!-- Node21&#45;&gt;Node24 -->
<g id="edge33_Node000021_Node000024" class="edge">
<title>Node21&#45;&gt;Node24</title>
<g id="a_edge33_Node000021_Node000024"><a xlink:title=" ">
<path fill="none" stroke="#63b8ff" d="M878.27,-247.37C864.13,-236.97 840.14,-219.32 823.05,-206.75"/>
<polygon fill="#63b8ff" stroke="#63b8ff" points="824.95,-203.81 814.83,-200.7 820.81,-209.44 824.95,-203.81"/>
</a>
</g>
</g>
<!-- Node25 -->
<g id="Node000025" class="node">
<title>Node25</title>
<g id="a_Node000025"><a xlink:href="util_8h.html" target="_top" xlink:title=" ">
<polygon fill="white" stroke="#666666" points="1627.5,-134.5 1542.5,-134.5 1542.5,-115.5 1627.5,-115.5 1627.5,-134.5"/>
<text text-anchor="middle" x="1585" y="-122.5" font-family="Helvetica,sans-Serif" font-size="10.00">occ/core/util.h</text>
</a>
</g>
</g>
<!-- Node21&#45;&gt;Node25 -->
<g id="edge36_Node000021_Node000025" class="edge">
<title>Node21&#45;&gt;Node25</title>
<g id="a_edge36_Node000021_Node000025"><a xlink:title=" ">
<path fill="none" stroke="#63b8ff" d="M918.4,-247.47C926.3,-245.38 934.93,-243.35 943,-242 1155.73,-206.3 1219.19,-263.84 1427,-206 1479.12,-191.49 1534.24,-159.13 1563.61,-140.32"/>
<polygon fill="#63b8ff" stroke="#63b8ff" points="1565.73,-143.11 1572.2,-134.72 1561.91,-137.24 1565.73,-143.11"/>
</a>
</g>
</g>
<!-- Node23&#45;&gt;Node2 -->
<g id="edge31_Node000023_Node000002" class="edge">
<title>Node23&#45;&gt;Node2</title>
<g id="a_edge31_Node000023_Node000002"><a xlink:title=" ">
<path fill="none" stroke="#63b8ff" d="M885,-115.37C885,-107.25 885,-94.81 885,-84.39"/>
<polygon fill="#63b8ff" stroke="#63b8ff" points="888.5,-84.17 885,-74.17 881.5,-84.17 888.5,-84.17"/>
</a>
</g>
</g>
<!-- Node24&#45;&gt;Node6 -->
<g id="edge34_Node000024_Node000006" class="edge">
<title>Node24&#45;&gt;Node6</title>
<g id="a_edge34_Node000024_Node000006"><a xlink:title=" ">
<path fill="none" stroke="#63b8ff" d="M760.66,-181.47C750.03,-179.5 738.62,-177.53 728,-176 650.62,-164.82 442.5,-184.2 378,-140 359.14,-127.07 349.1,-101.85 344.17,-84.36"/>
<polygon fill="#63b8ff" stroke="#63b8ff" points="347.45,-83.04 341.63,-74.19 340.66,-84.74 347.45,-83.04"/>
</a>
</g>
</g>
<!-- Node24&#45;&gt;Node23 -->
<g id="edge35_Node000024_Node000023" class="edge">
<title>Node24&#45;&gt;Node23</title>
<g id="a_edge35_Node000024_Node000023"><a xlink:title=" ">
<path fill="none" stroke="#63b8ff" d="M814.06,-181.37C827.26,-171.06 849.58,-153.65 865.66,-141.09"/>
<polygon fill="#63b8ff" stroke="#63b8ff" points="868.12,-143.61 873.85,-134.7 863.82,-138.09 868.12,-143.61"/>
</a>
</g>
</g>
<!-- Node25&#45;&gt;Node2 -->
<g id="edge43_Node000025_Node000002" class="edge">
<title>Node25&#45;&gt;Node2</title>
<g id="a_edge43_Node000025_Node000002"><a xlink:title=" ">
<path fill="none" stroke="#63b8ff" d="M1557.96,-115.5C1550.29,-113.38 1541.88,-111.34 1534,-110 1479.29,-100.71 1125.99,-79.45 964.87,-70.08"/>
<polygon fill="#63b8ff" stroke="#63b8ff" points="964.73,-66.57 954.54,-69.48 964.32,-73.55 964.73,-66.57"/>
</a>
</g>
</g>
<!-- Node25&#45;&gt;Node13 -->
<g id="edge44_Node000025_Node000013" class="edge">
<title>Node25&#45;&gt;Node13</title>
<g id="a_edge44_Node000025_Node000013"><a xlink:title=" ">
<path fill="none" stroke="#63b8ff" d="M1556,-115.49C1548.84,-113.54 1541.17,-111.58 1534,-110 1442.86,-89.88 1415.98,-94.09 1320.13,-73.82"/>
<polygon fill="#63b8ff" stroke="#63b8ff" points="1320.83,-70.39 1310.32,-71.71 1319.36,-77.23 1320.83,-70.39"/>
</a>
</g>
</g>
<!-- Node25&#45;&gt;Node14 -->
<g id="edge45_Node000025_Node000014" class="edge">
<title>Node25&#45;&gt;Node14</title>
<g id="a_edge45_Node000025_Node000014"><a xlink:title=" ">
<path fill="none" stroke="#63b8ff" d="M1557.41,-115.5C1549.88,-113.43 1541.68,-111.41 1534,-110 1376.78,-81.02 1185.57,-70.18 1109.04,-66.81"/>
<polygon fill="#63b8ff" stroke="#63b8ff" points="1108.74,-63.29 1098.6,-66.36 1108.45,-70.28 1108.74,-63.29"/>
</a>
</g>
</g>
<!-- Node25&#45;&gt;Node22 -->
<g id="edge40_Node000025_Node000022" class="edge">
<title>Node25&#45;&gt;Node22</title>
<g id="a_edge40_Node000025_Node000022"><a xlink:title=" ">
<path fill="none" stroke="#63b8ff" d="M1554.28,-115.49C1547.6,-113.66 1540.57,-111.75 1534,-110 1490.33,-98.36 1440.3,-85.46 1405.5,-76.56"/>
<polygon fill="#63b8ff" stroke="#63b8ff" points="1406.21,-73.13 1395.66,-74.05 1404.48,-79.92 1406.21,-73.13"/>
</a>
</g>
</g>
<!-- Node26 -->
<g id="Node000026" class="node">
<title>Node26</title>
<g id="a_Node000026"><a xlink:title=" ">
<polygon fill="#e0e0e0" stroke="#999999" points="1656,-74 1592,-74 1592,-55 1656,-55 1656,-74"/>
<text text-anchor="middle" x="1624" y="-62" font-family="Helvetica,sans-Serif" font-size="10.00">algorithm</text>
</a>
</g>
</g>
<!-- Node25&#45;&gt;Node26 -->
<g id="edge37_Node000025_Node000026" class="edge">
<title>Node25&#45;&gt;Node26</title>
<g id="a_edge37_Node000025_Node000026"><a xlink:title=" ">
<path fill="none" stroke="#63b8ff" d="M1590.75,-115.37C1596.46,-106.81 1605.35,-93.47 1612.51,-82.74"/>
<polygon fill="#63b8ff" stroke="#63b8ff" points="1615.59,-84.43 1618.22,-74.17 1609.76,-80.55 1615.59,-84.43"/>
</a>
</g>
</g>
<!-- Node27 -->
<g id="Node000027" class="node">
<title>Node27</title>
<g id="a_Node000027"><a xlink:title=" ">
<polygon fill="#e0e0e0" stroke="#999999" points="1723.5,-74 1674.5,-74 1674.5,-55 1723.5,-55 1723.5,-74"/>
<text text-anchor="middle" x="1699" y="-62" font-family="Helvetica,sans-Serif" font-size="10.00">cctype</text>
</a>
</g>
</g>
<!-- Node25&#45;&gt;Node27 -->
<g id="edge38_Node000025_Node000027" class="edge">
<title>Node25&#45;&gt;Node27</title>
<g id="a_edge38_Node000025_Node000027"><a xlink:title=" ">
<path fill="none" stroke="#63b8ff" d="M1601.82,-115.37C1620.6,-105.73 1651.2,-90.03 1673.05,-78.81"/>
<polygon fill="#63b8ff" stroke="#63b8ff" points="1674.81,-81.85 1682.11,-74.17 1671.61,-75.62 1674.81,-81.85"/>
</a>
</g>
</g>
<!-- Node28 -->
<g id="Node000028" class="node">
<title>Node28</title>
<g id="a_Node000028"><a xlink:title=" ">
<polygon fill="#e0e0e0" stroke="#999999" points="1792,-74 1742,-74 1742,-55 1792,-55 1792,-74"/>
<text text-anchor="middle" x="1767" y="-62" font-family="Helvetica,sans-Serif" font-size="10.00">chrono</text>
</a>
</g>
</g>
<!-- Node25&#45;&gt;Node28 -->
<g id="edge39_Node000025_Node000028" class="edge">
<title>Node25&#45;&gt;Node28</title>
<g id="a_edge39_Node000025_Node000028"><a xlink:title=" ">
<path fill="none" stroke="#63b8ff" d="M1611.46,-115.49C1643.32,-105.25 1696.91,-88.03 1732.12,-76.71"/>
<polygon fill="#63b8ff" stroke="#63b8ff" points="1733.52,-79.94 1741.97,-73.55 1731.38,-73.27 1733.52,-79.94"/>
</a>
</g>
</g>
<!-- Node29 -->
<g id="Node000029" class="node">
<title>Node29</title>
<g id="a_Node000029"><a xlink:title=" ">
<polygon fill="#e0e0e0" stroke="#999999" points="1500,-74 1414,-74 1414,-55 1500,-55 1500,-74"/>
<text text-anchor="middle" x="1457" y="-62" font-family="Helvetica,sans-Serif" font-size="10.00">fmt/ostream.h</text>
</a>
</g>
</g>
<!-- Node25&#45;&gt;Node29 -->
<g id="edge41_Node000025_Node000029" class="edge">
<title>Node25&#45;&gt;Node29</title>
<g id="a_edge41_Node000025_Node000029"><a xlink:title=" ">
<path fill="none" stroke="#63b8ff" d="M1566.39,-115.49C1544.96,-105.7 1509.56,-89.52 1484.85,-78.23"/>
<polygon fill="#63b8ff" stroke="#63b8ff" points="1486.18,-74.99 1475.63,-74.02 1483.28,-81.36 1486.18,-74.99"/>
</a>
</g>
</g>
<!-- Node30 -->
<g id="Node000030" class="node">
<title>Node30</title>
<g id="a_Node000030"><a xlink:title=" ">
<polygon fill="#e0e0e0" stroke="#999999" points="1574,-74 1518,-74 1518,-55 1574,-55 1574,-74"/>
<text text-anchor="middle" x="1546" y="-62" font-family="Helvetica,sans-Serif" font-size="10.00">numeric</text>
</a>
</g>
</g>
<!-- Node25&#45;&gt;Node30 -->
<g id="edge42_Node000025_Node000030" class="edge">
<title>Node25&#45;&gt;Node30</title>
<g id="a_edge42_Node000025_Node000030"><a xlink:title=" ">
<path fill="none" stroke="#63b8ff" d="M1579.25,-115.37C1573.54,-106.81 1564.65,-93.47 1557.49,-82.74"/>
<polygon fill="#63b8ff" stroke="#63b8ff" points="1560.24,-80.55 1551.78,-74.17 1554.41,-84.43 1560.24,-80.55"/>
</a>
</g>
</g>
<!-- Node31&#45;&gt;Node21 -->
<g id="edge48_Node000031_Node000021" class="edge">
<title>Node31&#45;&gt;Node21</title>
<g id="a_edge48_Node000031_Node000021"><a xlink:title=" ">
<path fill="none" stroke="#63b8ff" d="M978.24,-313.37C961.36,-302.78 932.51,-284.67 912.41,-272.06"/>
<polygon fill="#63b8ff" stroke="#63b8ff" points="914.19,-269.05 903.86,-266.7 910.47,-274.98 914.19,-269.05"/>
</a>
</g>
</g>
<!-- Node32 -->
<g id="Node000032" class="node">
<title>Node32</title>
<g id="a_Node000032"><a xlink:href="orbital__smearing_8h.html" target="_top" xlink:title=" ">
<polygon fill="white" stroke="#666666" points="1098,-266.5 952,-266.5 952,-247.5 1098,-247.5 1098,-266.5"/>
<text text-anchor="middle" x="1025" y="-254.5" font-family="Helvetica,sans-Serif" font-size="10.00">occ/qm/orbital_smearing.h</text>
</a>
</g>
</g>
<!-- Node31&#45;&gt;Node32 -->
<g id="edge49_Node000031_Node000032" class="edge">
<title>Node31&#45;&gt;Node32</title>
<g id="a_edge49_Node000031_Node000032"><a xlink:title=" ">
<path fill="none" stroke="#63b8ff" d="M996.45,-313.37C1001.39,-303.78 1009.51,-288.05 1015.82,-275.8"/>
<polygon fill="#63b8ff" stroke="#63b8ff" points="1018.94,-277.4 1020.41,-266.91 1012.71,-274.19 1018.94,-277.4"/>
</a>
</g>
</g>
<!-- Node33 -->
<g id="Node000033" class="node">
<title>Node33</title>
<g id="a_Node000033"><a xlink:href="spinorbital_8h.html" target="_top" xlink:title=" ">
<polygon fill="white" stroke="#666666" points="1270,-200.5 1154,-200.5 1154,-181.5 1270,-181.5 1270,-200.5"/>
<text text-anchor="middle" x="1212" y="-188.5" font-family="Helvetica,sans-Serif" font-size="10.00">occ/qm/spinorbital.h</text>
</a>
</g>
</g>
<!-- Node31&#45;&gt;Node33 -->
<g id="edge51_Node000031_Node000033" class="edge">
<title>Node31&#45;&gt;Node33</title>
<g id="a_edge51_Node000031_Node000033"><a xlink:title=" ">
<path fill="none" stroke="#63b8ff" d="M1016.16,-313.45C1040.01,-304.56 1077.14,-289.52 1107,-272 1140.03,-252.62 1174.69,-224.45 1194.77,-207.22"/>
<polygon fill="#63b8ff" stroke="#63b8ff" points="1197.17,-209.77 1202.43,-200.57 1192.59,-204.48 1197.17,-209.77"/>
</a>
</g>
</g>
<!-- Node32&#45;&gt;Node2 -->
<g id="edge50_Node000032_Node000002" class="edge">
<title>Node32&#45;&gt;Node2</title>
<g id="a_edge50_Node000032_Node000002"><a xlink:title=" ">
<path fill="none" stroke="#63b8ff" d="M1023.05,-247.44C1017.18,-223.26 997.64,-153.44 959,-110 947.07,-96.58 930.1,-85.98 915.43,-78.5"/>
<polygon fill="#63b8ff" stroke="#63b8ff" points="916.72,-75.23 906.19,-74.03 913.67,-81.53 916.72,-75.23"/>
</a>
</g>
</g>
<!-- Node33&#45;&gt;Node2 -->
<g id="edge52_Node000033_Node000002" class="edge">
<title>Node33&#45;&gt;Node2</title>
<g id="a_edge52_Node000033_Node000002"><a xlink:title=" ">
<path fill="none" stroke="#63b8ff" d="M1191.5,-181.38C1155.56,-166.36 1078.73,-134.62 1013,-110 981.88,-98.34 946.13,-86 920.34,-77.28"/>
<polygon fill="#63b8ff" stroke="#63b8ff" points="921.22,-73.89 910.63,-74.01 918.99,-80.52 921.22,-73.89"/>
</a>
</g>
</g>
<!-- Node33&#45;&gt;Node25 -->
<g id="edge53_Node000033_Node000025" class="edge">
<title>Node33&#45;&gt;Node25</title>
<g id="a_edge53_Node000033_Node000025"><a xlink:title=" ">
<path fill="none" stroke="#63b8ff" d="M1251.47,-181.44C1260.81,-179.54 1270.74,-177.61 1280,-176 1392.34,-156.49 1422.36,-163.14 1534,-140 1538.1,-139.15 1542.35,-138.16 1546.58,-137.11"/>
<polygon fill="#63b8ff" stroke="#63b8ff" points="1547.51,-140.48 1556.3,-134.57 1545.74,-133.71 1547.51,-140.48"/>
</a>
</g>
</g>
<!-- Node34 -->
<g id="Node000034" class="node">
<title>Node34</title>
<g id="a_Node000034"><a xlink:href="qm_2opmatrix_8h.html" target="_top" xlink:title=" ">
<polygon fill="white" stroke="#666666" points="1287,-134.5 1179,-134.5 1179,-115.5 1287,-115.5 1287,-134.5"/>
<text text-anchor="middle" x="1233" y="-122.5" font-family="Helvetica,sans-Serif" font-size="10.00">occ/qm/opmatrix.h</text>
</a>
</g>
</g>
<!-- Node33&#45;&gt;Node34 -->
<g id="edge54_Node000033_Node000034" class="edge">
<title>Node33&#45;&gt;Node34</title>
<g id="a_edge54_Node000033_Node000034"><a xlink:title=" ">
<path fill="none" stroke="#63b8ff" d="M1210.04,-181.37C1211.13,-171.88 1215.77,-156.36 1220.89,-144.16"/>
<polygon fill="#63b8ff" stroke="#63b8ff" points="1224.15,-145.44 1225.23,-134.91 1217.81,-142.47 1224.15,-145.44"/>
</a>
</g>
</g>
<!-- Node34&#45;&gt;Node33 -->
<g id="edge55_Node000034_Node000033" class="edge">
<title>Node34&#45;&gt;Node33</title>
<g id="a_edge55_Node000034_Node000033"><a xlink:title=" ">
<path fill="none" stroke="#63b8ff" d="M1234.92,-134.91C1233.77,-144.51 1229.1,-160.05 1223.97,-172.18"/>
<polygon fill="#63b8ff" stroke="#63b8ff" points="1220.74,-170.83 1219.62,-181.37 1227.06,-173.83 1220.74,-170.83"/>
</a>
</g>
</g>
<!-- Node35&#45;&gt;Node13 -->
<g id="edge60_Node000035_Node000013" class="edge">
<title>Node35&#45;&gt;Node13</title>
<g id="a_edge60_Node000035_Node000013"><a xlink:title=" ">
<path fill="none" stroke="#63b8ff" d="M1351.68,-181.08C1349.11,-165.73 1342.5,-133.68 1329,-110 1322.85,-99.21 1313.64,-88.9 1305.5,-80.92"/>
<polygon fill="#63b8ff" stroke="#63b8ff" points="1307.86,-78.33 1298.17,-74.05 1303.07,-83.44 1307.86,-78.33"/>
</a>
</g>
</g>
<!-- Node35&#45;&gt;Node14 -->
<g id="edge61_Node000035_Node000014" class="edge">
<title>Node35&#45;&gt;Node14</title>
<g id="a_edge61_Node000035_Node000014"><a xlink:title=" ">
<path fill="none" stroke="#63b8ff" d="M1349.47,-181.36C1342.18,-164.66 1323.76,-128 1296,-110 1237.96,-72.37 1154.73,-65.49 1108.75,-64.83"/>
<polygon fill="#63b8ff" stroke="#63b8ff" points="1108.73,-61.33 1098.71,-64.78 1108.7,-68.33 1108.73,-61.33"/>
</a>
</g>
</g>
<!-- Node35&#45;&gt;Node23 -->
<g id="edge59_Node000035_Node000023" class="edge">
<title>Node35&#45;&gt;Node23</title>
<g id="a_edge59_Node000035_Node000023"><a xlink:title=" ">
<path fill="none" stroke="#63b8ff" d="M1310.42,-181.49C1300.16,-179.56 1289.2,-177.61 1279,-176 1159.88,-157.19 1019.62,-140.75 942.71,-132.21"/>
<polygon fill="#63b8ff" stroke="#63b8ff" points="943.07,-128.73 932.74,-131.11 942.3,-135.69 943.07,-128.73"/>
</a>
</g>
</g>
<!-- Node36 -->
<g id="Node000036" class="node">
<title>Node36</title>
<g id="a_Node000036"><a xlink:title=" ">
<polygon fill="#e0e0e0" stroke="#999999" points="1524.5,-134.5 1381.5,-134.5 1381.5,-115.5 1524.5,-115.5 1524.5,-134.5"/>
<text text-anchor="middle" x="1453" y="-122.5" font-family="Helvetica,sans-Serif" font-size="10.00">ankerl/unordered_dense.h</text>
</a>
</g>
</g>
<!-- Node35&#45;&gt;Node36 -->
<g id="edge58_Node000035_Node000036" class="edge">
<title>Node35&#45;&gt;Node36</title>
<g id="a_edge58_Node000035_Node000036"><a xlink:title=" ">
<path fill="none" stroke="#63b8ff" d="M1366.49,-181.37C1382.96,-170.82 1411.07,-152.84 1430.76,-140.23"/>
<polygon fill="#63b8ff" stroke="#63b8ff" points="1432.87,-143.04 1439.41,-134.7 1429.1,-137.14 1432.87,-143.04"/>
</a>
</g>
</g>
</g>
</svg>
