<?xml version="1.0" encoding="UTF-8" standalone="no"?>
<!DOCTYPE svg PUBLIC "-//W3C//DTD SVG 1.1//EN"
 "http://www.w3.org/Graphics/SVG/1.1/DTD/svg11.dtd">
<!-- Generated by graphviz version 2.43.0 (0)
 -->
<!-- Title: /home/runner/work/occ/occ/include/occ/dft/dft_kernels.h Pages: 1 -->
<svg width="1469pt" height="500pt"
 viewBox="0.00 0.00 1469.01 500.00" xmlns="http://www.w3.org/2000/svg" xmlns:xlink="http://www.w3.org/1999/xlink">
<g id="graph0" class="graph" transform="scale(1 1) rotate(0) translate(4 496)">
<title>/home/runner/work/occ/occ/include/occ/dft/dft_kernels.h</title>
<!-- Node1 -->
<g id="Node000001" class="node">
<title>Node1</title>
<g id="a_Node000001"><a xlink:title=" ">
<polygon fill="#999999" stroke="#666666" points="1059.97,-492 931.97,-492 931.97,-451 1059.97,-451 1059.97,-492"/>
<text text-anchor="start" x="939.97" y="-480" font-family="Helvetica,sans-Serif" font-size="10.00">/home/runner/work/occ</text>
<text text-anchor="start" x="939.97" y="-469" font-family="Helvetica,sans-Serif" font-size="10.00">/occ/include/occ/dft</text>
<text text-anchor="middle" x="995.97" y="-458" font-family="Helvetica,sans-Serif" font-size="10.00">/dft_kernels.h</text>
</a>
</g>
</g>
<!-- Node2 -->
<g id="Node000002" class="node">
<title>Node2</title>
<g id="a_Node000002"><a xlink:href="linear__algebra_8h.html" target="_top" xlink:title=" ">
<polygon fill="white" stroke="#666666" points="626.47,-74 487.47,-74 487.47,-55 626.47,-55 626.47,-74"/>
<text text-anchor="middle" x="556.97" y="-62" font-family="Helvetica,sans-Serif" font-size="10.00">occ/core/linear_algebra.h</text>
</a>
</g>
</g>
<!-- Node1&#45;&gt;Node2 -->
<g id="edge1_Node000001_Node000002" class="edge">
<title>Node1&#45;&gt;Node2</title>
<g id="a_edge1_Node000001_Node000002"><a xlink:title=" ">
<path fill="none" stroke="#63b8ff" d="M931.83,-469.59C711.79,-465.65 0.97,-445.61 0.97,-351.5 0.97,-351.5 0.97,-351.5 0.97,-173.5 0.97,-144.04 -2.91,-128.55 19.97,-110 54.64,-81.89 336.07,-70.96 477.07,-67.22"/>
<polygon fill="#63b8ff" stroke="#63b8ff" points="477.48,-70.71 487.38,-66.95 477.3,-63.71 477.48,-70.71"/>
</a>
</g>
</g>
<!-- Node5 -->
<g id="Node000005" class="node">
<title>Node5</title>
<g id="a_Node000005"><a xlink:href="dft__method_8h.html" target="_top" xlink:title=" ">
<polygon fill="white" stroke="#666666" points="1229.97,-415 1113.97,-415 1113.97,-396 1229.97,-396 1229.97,-415"/>
<text text-anchor="middle" x="1171.97" y="-403" font-family="Helvetica,sans-Serif" font-size="10.00">occ/dft/dft_method.h</text>
</a>
</g>
</g>
<!-- Node1&#45;&gt;Node5 -->
<g id="edge4_Node000001_Node000005" class="edge">
<title>Node1&#45;&gt;Node5</title>
<g id="a_edge4_Node000001_Node000005"><a xlink:title=" ">
<path fill="none" stroke="#63b8ff" d="M1049.73,-450.95C1078.83,-440.37 1113.83,-427.64 1138.92,-418.52"/>
<polygon fill="#63b8ff" stroke="#63b8ff" points="1140.14,-421.8 1148.34,-415.09 1137.75,-415.22 1140.14,-421.8"/>
</a>
</g>
</g>
<!-- Node8 -->
<g id="Node000008" class="node">
<title>Node8</title>
<g id="a_Node000008"><a xlink:href="functional_8h.html" target="_top" xlink:title=" ">
<polygon fill="white" stroke="#666666" points="1050.97,-360 940.97,-360 940.97,-341 1050.97,-341 1050.97,-360"/>
<text text-anchor="middle" x="995.97" y="-348" font-family="Helvetica,sans-Serif" font-size="10.00">occ/dft/functional.h</text>
</a>
</g>
</g>
<!-- Node1&#45;&gt;Node8 -->
<g id="edge33_Node000001_Node000008" class="edge">
<title>Node1&#45;&gt;Node8</title>
<g id="a_edge33_Node000001_Node000008"><a xlink:title=" ">
<path fill="none" stroke="#63b8ff" d="M995.97,-450.85C995.97,-428.48 995.97,-392.19 995.97,-370.21"/>
<polygon fill="#63b8ff" stroke="#63b8ff" points="999.47,-370.18 995.97,-360.18 992.47,-370.18 999.47,-370.18"/>
</a>
</g>
</g>
<!-- Node12 -->
<g id="Node000012" class="node">
<title>Node12</title>
<g id="a_Node000012"><a xlink:href="qm_2spinorbital_8h.html" target="_top" xlink:title=" ">
<polygon fill="white" stroke="#666666" points="1307.97,-299.5 1191.97,-299.5 1191.97,-280.5 1307.97,-280.5 1307.97,-299.5"/>
<text text-anchor="middle" x="1249.97" y="-287.5" font-family="Helvetica,sans-Serif" font-size="10.00">occ/qm/spinorbital.h</text>
</a>
</g>
</g>
<!-- Node1&#45;&gt;Node12 -->
<g id="edge63_Node000001_Node000012" class="edge">
<title>Node1&#45;&gt;Node12</title>
<g id="a_edge63_Node000001_Node000012"><a xlink:title=" ">
<path fill="none" stroke="#63b8ff" d="M1006.6,-450.86C1022.87,-422.59 1056.57,-370.59 1098.97,-341 1126.54,-321.76 1162.03,-309.51 1191.68,-301.96"/>
<polygon fill="#63b8ff" stroke="#63b8ff" points="1192.6,-305.33 1201.49,-299.57 1190.95,-298.53 1192.6,-305.33"/>
</a>
</g>
</g>
<!-- Node24 -->
<g id="Node000024" class="node">
<title>Node24</title>
<g id="a_Node000024"><a xlink:href="gto_8h.html" target="_top" xlink:title=" ">
<polygon fill="white" stroke="#666666" points="596.97,-299.5 516.97,-299.5 516.97,-280.5 596.97,-280.5 596.97,-299.5"/>
<text text-anchor="middle" x="556.97" y="-287.5" font-family="Helvetica,sans-Serif" font-size="10.00">occ/gto/gto.h</text>
</a>
</g>
</g>
<!-- Node1&#45;&gt;Node24 -->
<g id="edge34_Node000001_Node000024" class="edge">
<title>Node1&#45;&gt;Node24</title>
<g id="a_edge34_Node000001_Node000024"><a xlink:title=" ">
<path fill="none" stroke="#63b8ff" d="M943.59,-450.98C886.37,-429.45 792.18,-393.43 711.97,-360 667.07,-341.29 615.61,-318.01 584.72,-303.84"/>
<polygon fill="#63b8ff" stroke="#63b8ff" points="586,-300.57 575.46,-299.57 583.08,-306.93 586,-300.57"/>
</a>
</g>
</g>
<!-- Node3 -->
<g id="Node000003" class="node">
<title>Node3</title>
<g id="a_Node000003"><a xlink:title=" ">
<polygon fill="#e0e0e0" stroke="#999999" points="542.47,-19 473.47,-19 473.47,0 542.47,0 542.47,-19"/>
<text text-anchor="middle" x="507.97" y="-7" font-family="Helvetica,sans-Serif" font-size="10.00">Eigen/Core</text>
</a>
</g>
</g>
<!-- Node2&#45;&gt;Node3 -->
<g id="edge2_Node000002_Node000003" class="edge">
<title>Node2&#45;&gt;Node3</title>
<g id="a_edge2_Node000002_Node000003"><a xlink:title=" ">
<path fill="none" stroke="#63b8ff" d="M548.88,-54.75C541.81,-47.11 531.38,-35.82 522.82,-26.56"/>
<polygon fill="#63b8ff" stroke="#63b8ff" points="525.27,-24.06 515.91,-19.09 520.13,-28.81 525.27,-24.06"/>
</a>
</g>
</g>
<!-- Node4 -->
<g id="Node000004" class="node">
<title>Node4</title>
<g id="a_Node000004"><a xlink:title=" ">
<polygon fill="#e0e0e0" stroke="#999999" points="653.47,-19 560.47,-19 560.47,0 653.47,0 653.47,-19"/>
<text text-anchor="middle" x="606.97" y="-7" font-family="Helvetica,sans-Serif" font-size="10.00">Eigen/StdVector</text>
</a>
</g>
</g>
<!-- Node2&#45;&gt;Node4 -->
<g id="edge3_Node000002_Node000004" class="edge">
<title>Node2&#45;&gt;Node4</title>
<g id="a_edge3_Node000002_Node000004"><a xlink:title=" ">
<path fill="none" stroke="#63b8ff" d="M565.23,-54.75C572.43,-47.11 583.08,-35.82 591.82,-26.56"/>
<polygon fill="#63b8ff" stroke="#63b8ff" points="594.55,-28.76 598.87,-19.09 589.46,-23.96 594.55,-28.76"/>
</a>
</g>
</g>
<!-- Node6 -->
<g id="Node000006" class="node">
<title>Node6</title>
<g id="a_Node000006"><a xlink:title=" ">
<polygon fill="#e0e0e0" stroke="#999999" points="1250.47,-360 1107.47,-360 1107.47,-341 1250.47,-341 1250.47,-360"/>
<text text-anchor="middle" x="1178.97" y="-348" font-family="Helvetica,sans-Serif" font-size="10.00">ankerl/unordered_dense.h</text>
</a>
</g>
</g>
<!-- Node5&#45;&gt;Node6 -->
<g id="edge5_Node000005_Node000006" class="edge">
<title>Node5&#45;&gt;Node6</title>
<g id="a_edge5_Node000005_Node000006"><a xlink:title=" ">
<path fill="none" stroke="#63b8ff" d="M1173.13,-395.75C1174.04,-388.8 1175.36,-378.85 1176.51,-370.13"/>
<polygon fill="#63b8ff" stroke="#63b8ff" points="1180,-370.46 1177.84,-360.09 1173.06,-369.54 1180,-370.46"/>
</a>
</g>
</g>
<!-- Node7 -->
<g id="Node000007" class="node">
<title>Node7</title>
<g id="a_Node000007"><a xlink:title=" ">
<polygon fill="#e0e0e0" stroke="#999999" points="1378.97,-360 1268.97,-360 1268.97,-341 1378.97,-341 1378.97,-360"/>
<text text-anchor="middle" x="1323.97" y="-348" font-family="Helvetica,sans-Serif" font-size="10.00">nlohmann/json.hpp</text>
</a>
</g>
</g>
<!-- Node5&#45;&gt;Node7 -->
<g id="edge6_Node000005_Node000007" class="edge">
<title>Node5&#45;&gt;Node7</title>
<g id="a_edge6_Node000005_Node000007"><a xlink:title=" ">
<path fill="none" stroke="#63b8ff" d="M1196.39,-395.98C1221.69,-387.16 1261.42,-373.31 1289.83,-363.41"/>
<polygon fill="#63b8ff" stroke="#63b8ff" points="1291.07,-366.68 1299.36,-360.08 1288.76,-360.07 1291.07,-366.68"/>
</a>
</g>
</g>
<!-- Node5&#45;&gt;Node8 -->
<g id="edge7_Node000005_Node000008" class="edge">
<title>Node5&#45;&gt;Node8</title>
<g id="a_edge7_Node000005_Node000008"><a xlink:title=" ">
<path fill="none" stroke="#63b8ff" d="M1143.69,-395.98C1114.02,-387.05 1067.18,-372.94 1034.22,-363.02"/>
<polygon fill="#63b8ff" stroke="#63b8ff" points="1035.05,-359.61 1024.47,-360.08 1033.04,-366.32 1035.05,-359.61"/>
</a>
</g>
</g>
<!-- Node20 -->
<g id="Node000020" class="node">
<title>Node20</title>
<g id="a_Node000020"><a xlink:title=" ">
<polygon fill="#e0e0e0" stroke="#999999" points="1188.97,-129 1144.97,-129 1144.97,-110 1188.97,-110 1188.97,-129"/>
<text text-anchor="middle" x="1166.97" y="-117" font-family="Helvetica,sans-Serif" font-size="10.00">string</text>
</a>
</g>
</g>
<!-- Node5&#45;&gt;Node20 -->
<g id="edge31_Node000005_Node000020" class="edge">
<title>Node5&#45;&gt;Node20</title>
<g id="a_edge31_Node000005_Node000020"><a xlink:title=" ">
<path fill="none" stroke="#63b8ff" d="M1230.13,-398.38C1285.5,-391.53 1363.84,-378.86 1387.97,-360 1441.03,-318.52 1484.78,-275.04 1445.97,-220 1388.94,-139.12 1259.99,-123.61 1199.47,-120.9"/>
<polygon fill="#63b8ff" stroke="#63b8ff" points="1199.46,-117.39 1189.35,-120.54 1199.21,-124.39 1199.46,-117.39"/>
</a>
</g>
</g>
<!-- Node21 -->
<g id="Node000021" class="node">
<title>Node21</title>
<g id="a_Node000021"><a xlink:title=" ">
<polygon fill="#e0e0e0" stroke="#999999" points="452.47,-129 405.47,-129 405.47,-110 452.47,-110 452.47,-129"/>
<text text-anchor="middle" x="428.97" y="-117" font-family="Helvetica,sans-Serif" font-size="10.00">vector</text>
</a>
</g>
</g>
<!-- Node5&#45;&gt;Node21 -->
<g id="edge32_Node000005_Node000021" class="edge">
<title>Node5&#45;&gt;Node21</title>
<g id="a_edge32_Node000005_Node000021"><a xlink:title=" ">
<path fill="none" stroke="#63b8ff" d="M1113.75,-403C1028.72,-398.23 868.66,-379.18 757.97,-305 690.61,-259.86 710.49,-206.75 640.97,-165 584.82,-131.29 506.97,-122.85 462.91,-120.9"/>
<polygon fill="#63b8ff" stroke="#63b8ff" points="462.86,-117.39 452.74,-120.54 462.61,-124.39 462.86,-117.39"/>
</a>
</g>
</g>
<!-- Node8&#45;&gt;Node2 -->
<g id="edge10_Node000008_Node000002" class="edge">
<title>Node8&#45;&gt;Node2</title>
<g id="a_edge10_Node000008_Node000002"><a xlink:title=" ">
<path fill="none" stroke="#63b8ff" d="M1021.48,-340.9C1037.66,-333.96 1057.32,-322.44 1066.97,-305 1073.43,-293.33 1074.48,-286.02 1066.97,-275 1004.57,-183.49 937.97,-224.73 834.97,-184 773.57,-159.72 756.58,-157.39 696.97,-129 681.34,-121.56 678.53,-117.58 662.97,-110 638.65,-98.15 610.37,-86.37 589.14,-77.91"/>
<polygon fill="#63b8ff" stroke="#63b8ff" points="590.22,-74.58 579.63,-74.16 587.65,-81.09 590.22,-74.58"/>
</a>
</g>
</g>
<!-- Node9 -->
<g id="Node000009" class="node">
<title>Node9</title>
<g id="a_Node000009"><a xlink:title=" ">
<polygon fill="#e0e0e0" stroke="#999999" points="654.47,-129 587.47,-129 587.47,-110 654.47,-110 654.47,-129"/>
<text text-anchor="middle" x="620.97" y="-117" font-family="Helvetica,sans-Serif" font-size="10.00">fmt/core.h</text>
</a>
</g>
</g>
<!-- Node8&#45;&gt;Node9 -->
<g id="edge8_Node000008_Node000009" class="edge">
<title>Node8&#45;&gt;Node9</title>
<g id="a_edge8_Node000008_Node000009"><a xlink:title=" ">
<path fill="none" stroke="#63b8ff" d="M940.73,-343.44C886.1,-336.49 807.25,-323.62 782.97,-305 749.37,-279.24 765.82,-253.53 739.97,-220 717.48,-190.83 706.28,-188.57 677.97,-165 665.79,-154.86 651.76,-143.9 640.67,-135.39"/>
<polygon fill="#63b8ff" stroke="#63b8ff" points="642.57,-132.44 632.49,-129.16 638.32,-138 642.57,-132.44"/>
</a>
</g>
</g>
<!-- Node10 -->
<g id="Node000010" class="node">
<title>Node10</title>
<g id="a_Node000010"><a xlink:title=" ">
<polygon fill="#e0e0e0" stroke="#999999" points="1057.97,-299.5 999.97,-299.5 999.97,-280.5 1057.97,-280.5 1057.97,-299.5"/>
<text text-anchor="middle" x="1028.97" y="-287.5" font-family="Helvetica,sans-Serif" font-size="10.00">memory</text>
</a>
</g>
</g>
<!-- Node8&#45;&gt;Node10 -->
<g id="edge9_Node000008_Node000010" class="edge">
<title>Node8&#45;&gt;Node10</title>
<g id="a_edge9_Node000008_Node000010"><a xlink:title=" ">
<path fill="none" stroke="#63b8ff" d="M1000.84,-340.87C1005.62,-332.4 1013.04,-319.24 1019.06,-308.57"/>
<polygon fill="#63b8ff" stroke="#63b8ff" points="1022.22,-310.1 1024.08,-299.67 1016.12,-306.66 1022.22,-310.1"/>
</a>
</g>
</g>
<!-- Node11 -->
<g id="Node000011" class="node">
<title>Node11</title>
<g id="a_Node000011"><a xlink:href="range__separated__parameters_8h.html" target="_top" xlink:title=" ">
<polygon fill="white" stroke="#666666" points="925.97,-305 791.97,-305 791.97,-275 925.97,-275 925.97,-305"/>
<text text-anchor="start" x="799.97" y="-293" font-family="Helvetica,sans-Serif" font-size="10.00">occ/dft/range_separated</text>
<text text-anchor="middle" x="858.97" y="-282" font-family="Helvetica,sans-Serif" font-size="10.00">_parameters.h</text>
</a>
</g>
</g>
<!-- Node8&#45;&gt;Node11 -->
<g id="edge11_Node000008_Node000011" class="edge">
<title>Node8&#45;&gt;Node11</title>
<g id="a_edge11_Node000008_Node000011"><a xlink:title=" ">
<path fill="none" stroke="#63b8ff" d="M976.05,-340.99C956.51,-332.65 926.09,-319.66 901.16,-309.02"/>
<polygon fill="#63b8ff" stroke="#63b8ff" points="902.48,-305.77 891.91,-305.06 899.73,-312.21 902.48,-305.77"/>
</a>
</g>
</g>
<!-- Node8&#45;&gt;Node12 -->
<g id="edge12_Node000008_Node000012" class="edge">
<title>Node8&#45;&gt;Node12</title>
<g id="a_edge12_Node000008_Node000012"><a xlink:title=" ">
<path fill="none" stroke="#63b8ff" d="M1032.9,-340.99C1077.86,-330.64 1153.85,-313.14 1202.94,-301.83"/>
<polygon fill="#63b8ff" stroke="#63b8ff" points="1204.03,-305.17 1212.99,-299.52 1202.46,-298.35 1204.03,-305.17"/>
</a>
</g>
</g>
<!-- Node8&#45;&gt;Node20 -->
<g id="edge29_Node000008_Node000020" class="edge">
<title>Node8&#45;&gt;Node20</title>
<g id="a_edge29_Node000008_Node000020"><a xlink:title=" ">
<path fill="none" stroke="#63b8ff" d="M1035.02,-340.95C1056.7,-334.39 1082.7,-323.27 1099.97,-305 1145.39,-256.96 1160.45,-175.77 1165.08,-139.27"/>
<polygon fill="#63b8ff" stroke="#63b8ff" points="1168.58,-139.42 1166.24,-129.08 1161.63,-138.62 1168.58,-139.42"/>
</a>
</g>
</g>
<!-- Node23 -->
<g id="Node000023" class="node">
<title>Node23</title>
<g id="a_Node000023"><a xlink:title=" ">
<polygon fill="#e0e0e0" stroke="#999999" points="981.47,-299.5 944.47,-299.5 944.47,-280.5 981.47,-280.5 981.47,-299.5"/>
<text text-anchor="middle" x="962.97" y="-287.5" font-family="Helvetica,sans-Serif" font-size="10.00">xc.h</text>
</a>
</g>
</g>
<!-- Node8&#45;&gt;Node23 -->
<g id="edge30_Node000008_Node000023" class="edge">
<title>Node8&#45;&gt;Node23</title>
<g id="a_edge30_Node000008_Node000023"><a xlink:title=" ">
<path fill="none" stroke="#63b8ff" d="M991.1,-340.87C986.32,-332.4 978.9,-319.24 972.88,-308.57"/>
<polygon fill="#63b8ff" stroke="#63b8ff" points="975.82,-306.66 967.86,-299.67 969.72,-310.1 975.82,-306.66"/>
</a>
</g>
</g>
<!-- Node12&#45;&gt;Node2 -->
<g id="edge13_Node000012_Node000002" class="edge">
<title>Node12&#45;&gt;Node2</title>
<g id="a_edge13_Node000012_Node000002"><a xlink:title=" ">
<path fill="none" stroke="#63b8ff" d="M1308.25,-288.48C1377.64,-285.55 1480.14,-272.54 1445.97,-220 1380.23,-118.92 1314.99,-139.06 1197.97,-110 1093.89,-84.16 784.6,-72.03 637.04,-67.6"/>
<polygon fill="#63b8ff" stroke="#63b8ff" points="636.8,-64.09 626.7,-67.29 636.59,-71.08 636.8,-64.09"/>
</a>
</g>
</g>
<!-- Node13 -->
<g id="Node000013" class="node">
<title>Node13</title>
<g id="a_Node000013"><a xlink:href="core_2spinorbital_8h.html" target="_top" xlink:title=" ">
<polygon fill="white" stroke="#666666" points="1310.47,-239 1189.47,-239 1189.47,-220 1310.47,-220 1310.47,-239"/>
<text text-anchor="middle" x="1249.97" y="-227" font-family="Helvetica,sans-Serif" font-size="10.00">occ/core/spinorbital.h</text>
</a>
</g>
</g>
<!-- Node12&#45;&gt;Node13 -->
<g id="edge14_Node000012_Node000013" class="edge">
<title>Node12&#45;&gt;Node13</title>
<g id="a_edge14_Node000012_Node000013"><a xlink:title=" ">
<path fill="none" stroke="#63b8ff" d="M1249.97,-280.37C1249.97,-272.25 1249.97,-259.81 1249.97,-249.39"/>
<polygon fill="#63b8ff" stroke="#63b8ff" points="1253.47,-249.17 1249.97,-239.17 1246.47,-249.17 1253.47,-249.17"/>
</a>
</g>
</g>
<!-- Node14 -->
<g id="Node000014" class="node">
<title>Node14</title>
<g id="a_Node000014"><a xlink:href="util_8h.html" target="_top" xlink:title=" ">
<polygon fill="white" stroke="#666666" points="929.47,-184 844.47,-184 844.47,-165 929.47,-165 929.47,-184"/>
<text text-anchor="middle" x="886.97" y="-172" font-family="Helvetica,sans-Serif" font-size="10.00">occ/core/util.h</text>
</a>
</g>
</g>
<!-- Node12&#45;&gt;Node14 -->
<g id="edge26_Node000012_Node000014" class="edge">
<title>Node12&#45;&gt;Node14</title>
<g id="a_edge26_Node000012_Node000014"><a xlink:title=" ">
<path fill="none" stroke="#63b8ff" d="M1234.13,-280.33C1207.14,-265.9 1150.17,-236.84 1098.97,-220 1069.94,-210.45 992.32,-195.09 939.51,-185.15"/>
<polygon fill="#63b8ff" stroke="#63b8ff" points="940.1,-181.7 929.63,-183.29 938.81,-188.58 940.1,-181.7"/>
</a>
</g>
</g>
<!-- Node22 -->
<g id="Node000022" class="node">
<title>Node22</title>
<g id="a_Node000022"><a xlink:href="qm_2opmatrix_8h.html" target="_top" xlink:title=" ">
<polygon fill="white" stroke="#666666" points="1436.97,-239 1328.97,-239 1328.97,-220 1436.97,-220 1436.97,-239"/>
<text text-anchor="middle" x="1382.97" y="-227" font-family="Helvetica,sans-Serif" font-size="10.00">occ/qm/opmatrix.h</text>
</a>
</g>
</g>
<!-- Node12&#45;&gt;Node22 -->
<g id="edge27_Node000012_Node000022" class="edge">
<title>Node12&#45;&gt;Node22</title>
<g id="a_edge27_Node000012_Node000022"><a xlink:title=" ">
<path fill="none" stroke="#63b8ff" d="M1264.38,-280.49C1284.68,-270.62 1321.68,-254.23 1349.07,-242.93"/>
<polygon fill="#63b8ff" stroke="#63b8ff" points="1350.74,-246.03 1358.68,-239.02 1348.1,-239.55 1350.74,-246.03"/>
</a>
</g>
</g>
<!-- Node13&#45;&gt;Node14 -->
<g id="edge15_Node000013_Node000014" class="edge">
<title>Node13&#45;&gt;Node14</title>
<g id="a_edge15_Node000013_Node000014"><a xlink:title=" ">
<path fill="none" stroke="#63b8ff" d="M1189.42,-220.2C1128.86,-211.81 1032.75,-198.29 939.42,-184.04"/>
<polygon fill="#63b8ff" stroke="#63b8ff" points="939.94,-180.58 929.53,-182.53 938.88,-187.5 939.94,-180.58"/>
</a>
</g>
</g>
<!-- Node13&#45;&gt;Node20 -->
<g id="edge25_Node000013_Node000020" class="edge">
<title>Node13&#45;&gt;Node20</title>
<g id="a_edge25_Node000013_Node000020"><a xlink:title=" ">
<path fill="none" stroke="#63b8ff" d="M1243.18,-219.66C1229.37,-201.69 1197.82,-160.64 1179.95,-137.38"/>
<polygon fill="#63b8ff" stroke="#63b8ff" points="1182.49,-134.95 1173.62,-129.16 1176.94,-139.22 1182.49,-134.95"/>
</a>
</g>
</g>
<!-- Node14&#45;&gt;Node2 -->
<g id="edge22_Node000014_Node000002" class="edge">
<title>Node14&#45;&gt;Node2</title>
<g id="a_edge22_Node000014_Node000002"><a xlink:title=" ">
<path fill="none" stroke="#63b8ff" d="M854.77,-164.97C824.73,-156.73 778.85,-143.41 739.97,-129 720.38,-121.74 716.51,-117.4 696.97,-110 663.72,-97.41 625.18,-85.34 596.96,-76.95"/>
<polygon fill="#63b8ff" stroke="#63b8ff" points="597.64,-73.51 587.06,-74.04 595.66,-80.22 597.64,-73.51"/>
</a>
</g>
</g>
<!-- Node14&#45;&gt;Node9 -->
<g id="edge19_Node000014_Node000009" class="edge">
<title>Node14&#45;&gt;Node9</title>
<g id="a_edge19_Node000014_Node000009"><a xlink:title=" ">
<path fill="none" stroke="#63b8ff" d="M844.23,-164.98C795.01,-155.18 714.56,-139.15 664.86,-129.24"/>
<polygon fill="#63b8ff" stroke="#63b8ff" points="665.23,-125.75 654.74,-127.23 663.86,-132.62 665.23,-125.75"/>
</a>
</g>
</g>
<!-- Node15 -->
<g id="Node000015" class="node">
<title>Node15</title>
<g id="a_Node000015"><a xlink:title=" ">
<polygon fill="#e0e0e0" stroke="#999999" points="990.97,-129 926.97,-129 926.97,-110 990.97,-110 990.97,-129"/>
<text text-anchor="middle" x="958.97" y="-117" font-family="Helvetica,sans-Serif" font-size="10.00">algorithm</text>
</a>
</g>
</g>
<!-- Node14&#45;&gt;Node15 -->
<g id="edge16_Node000014_Node000015" class="edge">
<title>Node14&#45;&gt;Node15</title>
<g id="a_edge16_Node000014_Node000015"><a xlink:title=" ">
<path fill="none" stroke="#63b8ff" d="M898.54,-164.98C909.39,-157 925.85,-144.88 938.85,-135.31"/>
<polygon fill="#63b8ff" stroke="#63b8ff" points="941.21,-137.92 947.19,-129.17 937.06,-132.28 941.21,-137.92"/>
</a>
</g>
</g>
<!-- Node16 -->
<g id="Node000016" class="node">
<title>Node16</title>
<g id="a_Node000016"><a xlink:title=" ">
<polygon fill="#e0e0e0" stroke="#999999" points="1058.47,-129 1009.47,-129 1009.47,-110 1058.47,-110 1058.47,-129"/>
<text text-anchor="middle" x="1033.97" y="-117" font-family="Helvetica,sans-Serif" font-size="10.00">cctype</text>
</a>
</g>
</g>
<!-- Node14&#45;&gt;Node16 -->
<g id="edge17_Node000014_Node000016" class="edge">
<title>Node14&#45;&gt;Node16</title>
<g id="a_edge17_Node000014_Node000016"><a xlink:title=" ">
<path fill="none" stroke="#63b8ff" d="M910.59,-164.98C934.88,-156.23 972.92,-142.51 1000.34,-132.62"/>
<polygon fill="#63b8ff" stroke="#63b8ff" points="1001.7,-135.85 1009.92,-129.17 999.33,-129.27 1001.7,-135.85"/>
</a>
</g>
</g>
<!-- Node17 -->
<g id="Node000017" class="node">
<title>Node17</title>
<g id="a_Node000017"><a xlink:title=" ">
<polygon fill="#e0e0e0" stroke="#999999" points="1126.97,-129 1076.97,-129 1076.97,-110 1126.97,-110 1126.97,-129"/>
<text text-anchor="middle" x="1101.97" y="-117" font-family="Helvetica,sans-Serif" font-size="10.00">chrono</text>
</a>
</g>
</g>
<!-- Node14&#45;&gt;Node17 -->
<g id="edge18_Node000014_Node000017" class="edge">
<title>Node14&#45;&gt;Node17</title>
<g id="a_edge18_Node000014_Node000017"><a xlink:title=" ">
<path fill="none" stroke="#63b8ff" d="M922.02,-164.93C956.49,-156.48 1010.89,-143.14 1066.97,-129.24"/>
<polygon fill="#63b8ff" stroke="#63b8ff" points="1067.86,-132.63 1076.72,-126.82 1066.17,-125.83 1067.86,-132.63"/>
</a>
</g>
</g>
<!-- Node18 -->
<g id="Node000018" class="node">
<title>Node18</title>
<g id="a_Node000018"><a xlink:title=" ">
<polygon fill="#e0e0e0" stroke="#999999" points="834.97,-129 748.97,-129 748.97,-110 834.97,-110 834.97,-129"/>
<text text-anchor="middle" x="791.97" y="-117" font-family="Helvetica,sans-Serif" font-size="10.00">fmt/ostream.h</text>
</a>
</g>
</g>
<!-- Node14&#45;&gt;Node18 -->
<g id="edge20_Node000014_Node000018" class="edge">
<title>Node14&#45;&gt;Node18</title>
<g id="a_edge20_Node000014_Node000018"><a xlink:title=" ">
<path fill="none" stroke="#63b8ff" d="M871.71,-164.98C856.84,-156.69 833.99,-143.94 816.55,-134.22"/>
<polygon fill="#63b8ff" stroke="#63b8ff" points="817.95,-130.99 807.51,-129.17 814.54,-137.1 817.95,-130.99"/>
</a>
</g>
</g>
<!-- Node19 -->
<g id="Node000019" class="node">
<title>Node19</title>
<g id="a_Node000019"><a xlink:title=" ">
<polygon fill="#e0e0e0" stroke="#999999" points="908.97,-129 852.97,-129 852.97,-110 908.97,-110 908.97,-129"/>
<text text-anchor="middle" x="880.97" y="-117" font-family="Helvetica,sans-Serif" font-size="10.00">numeric</text>
</a>
</g>
</g>
<!-- Node14&#45;&gt;Node19 -->
<g id="edge21_Node000014_Node000019" class="edge">
<title>Node14&#45;&gt;Node19</title>
<g id="a_edge21_Node000014_Node000019"><a xlink:title=" ">
<path fill="none" stroke="#63b8ff" d="M885.98,-164.75C885.19,-157.8 884.07,-147.85 883.08,-139.13"/>
<polygon fill="#63b8ff" stroke="#63b8ff" points="886.55,-138.63 881.94,-129.09 879.59,-139.42 886.55,-138.63"/>
</a>
</g>
</g>
<!-- Node14&#45;&gt;Node20 -->
<g id="edge23_Node000014_Node000020" class="edge">
<title>Node14&#45;&gt;Node20</title>
<g id="a_edge23_Node000014_Node000020"><a xlink:title=" ">
<path fill="none" stroke="#63b8ff" d="M929.58,-166.37C986.09,-156.83 1083.77,-140.06 1134.82,-129.06"/>
<polygon fill="#63b8ff" stroke="#63b8ff" points="1135.68,-132.45 1144.68,-126.87 1134.16,-125.62 1135.68,-132.45"/>
</a>
</g>
</g>
<!-- Node14&#45;&gt;Node21 -->
<g id="edge24_Node000014_Node000021" class="edge">
<title>Node14&#45;&gt;Node21</title>
<g id="a_edge24_Node000014_Node000021"><a xlink:title=" ">
<path fill="none" stroke="#63b8ff" d="M844.29,-168.56C753.88,-158.1 544.62,-133.88 462.71,-124.4"/>
<polygon fill="#63b8ff" stroke="#63b8ff" points="463.03,-120.92 452.7,-123.25 462.23,-127.87 463.03,-120.92"/>
</a>
</g>
</g>
<!-- Node22&#45;&gt;Node12 -->
<g id="edge28_Node000022_Node000012" class="edge">
<title>Node22&#45;&gt;Node12</title>
<g id="a_edge28_Node000022_Node000012"><a xlink:title=" ">
<path fill="none" stroke="#63b8ff" d="M1368.54,-239.02C1348.23,-248.9 1311.22,-265.28 1283.84,-276.58"/>
<polygon fill="#63b8ff" stroke="#63b8ff" points="1282.18,-273.48 1274.24,-280.49 1284.82,-279.96 1282.18,-273.48"/>
</a>
</g>
</g>
<!-- Node24&#45;&gt;Node2 -->
<g id="edge38_Node000024_Node000002" class="edge">
<title>Node24&#45;&gt;Node2</title>
<g id="a_edge38_Node000024_Node000002"><a xlink:title=" ">
<path fill="none" stroke="#63b8ff" d="M551.26,-280.23C545.34,-270.59 536.47,-254.4 532.97,-239 520.29,-183.3 539.14,-115.92 550.08,-84"/>
<polygon fill="#63b8ff" stroke="#63b8ff" points="553.49,-84.86 553.55,-74.26 546.9,-82.5 553.49,-84.86"/>
</a>
</g>
</g>
<!-- Node24&#45;&gt;Node9 -->
<g id="edge36_Node000024_Node000009" class="edge">
<title>Node24&#45;&gt;Node9</title>
<g id="a_edge36_Node000024_Node000009"><a xlink:title=" ">
<path fill="none" stroke="#63b8ff" d="M596.99,-282.25C622.02,-275.74 652.37,-263.14 667.97,-239 689.68,-205.41 657.33,-160.2 636.41,-136.51"/>
<polygon fill="#63b8ff" stroke="#63b8ff" points="638.94,-134.09 629.6,-129.08 633.78,-138.82 638.94,-134.09"/>
</a>
</g>
</g>
<!-- Node24&#45;&gt;Node14 -->
<g id="edge47_Node000024_Node000014" class="edge">
<title>Node24&#45;&gt;Node14</title>
<g id="a_edge47_Node000024_Node000014"><a xlink:title=" ">
<path fill="none" stroke="#63b8ff" d="M581.77,-280.47C639.94,-260.46 785.27,-210.48 852.21,-187.45"/>
<polygon fill="#63b8ff" stroke="#63b8ff" points="853.56,-190.69 861.88,-184.13 851.28,-184.07 853.56,-190.69"/>
</a>
</g>
</g>
<!-- Node24&#45;&gt;Node20 -->
<g id="edge61_Node000024_Node000020" class="edge">
<title>Node24&#45;&gt;Node20</title>
<g id="a_edge61_Node000024_Node000020"><a xlink:title=" ">
<path fill="none" stroke="#63b8ff" d="M597.05,-285.48C684.45,-276.8 897.58,-250.04 1062.97,-184 1094.49,-171.41 1127.35,-149.67 1147.49,-135.18"/>
<polygon fill="#63b8ff" stroke="#63b8ff" points="1149.8,-137.83 1155.8,-129.09 1145.66,-132.18 1149.8,-137.83"/>
</a>
</g>
</g>
<!-- Node24&#45;&gt;Node21 -->
<g id="edge62_Node000024_Node000021" class="edge">
<title>Node24&#45;&gt;Node21</title>
<g id="a_edge62_Node000024_Node000021"><a xlink:title=" ">
<path fill="none" stroke="#63b8ff" d="M516.88,-282.67C472.23,-274.71 404.3,-259.55 388.97,-239 365.5,-207.53 395.13,-161.41 414.57,-137.02"/>
<polygon fill="#63b8ff" stroke="#63b8ff" points="417.46,-139.02 421.15,-129.09 412.07,-134.55 417.46,-139.02"/>
</a>
</g>
</g>
<!-- Node25 -->
<g id="Node000025" class="node">
<title>Node25</title>
<g id="a_Node000025"><a xlink:title=" ">
<polygon fill="#e0e0e0" stroke="#999999" points="265.97,-129 223.97,-129 223.97,-110 265.97,-110 265.97,-129"/>
<text text-anchor="middle" x="244.97" y="-117" font-family="Helvetica,sans-Serif" font-size="10.00">array</text>
</a>
</g>
</g>
<!-- Node24&#45;&gt;Node25 -->
<g id="edge35_Node000024_Node000025" class="edge">
<title>Node24&#45;&gt;Node25</title>
<g id="a_edge35_Node000024_Node000025"><a xlink:title=" ">
<path fill="none" stroke="#63b8ff" d="M516.7,-283.6C429.85,-271.03 229.56,-236.83 189.97,-184 176.49,-166 199.19,-146.65 219.39,-134.1"/>
<polygon fill="#63b8ff" stroke="#63b8ff" points="221.22,-137.09 228.07,-129.01 217.67,-131.05 221.22,-137.09"/>
</a>
</g>
</g>
<!-- Node26 -->
<g id="Node000026" class="node">
<title>Node26</title>
<g id="a_Node000026"><a xlink:title=" ">
<polygon fill="#e0e0e0" stroke="#999999" points="196.97,-239 82.97,-239 82.97,-220 196.97,-220 196.97,-239"/>
<text text-anchor="middle" x="139.97" y="-227" font-family="Helvetica,sans-Serif" font-size="10.00">gau2grid/gau2grid.h</text>
</a>
</g>
</g>
<!-- Node24&#45;&gt;Node26 -->
<g id="edge37_Node000024_Node000026" class="edge">
<title>Node24&#45;&gt;Node26</title>
<g id="a_edge37_Node000024_Node000026"><a xlink:title=" ">
<path fill="none" stroke="#63b8ff" d="M516.61,-283.34C444.94,-273.28 294.81,-252.22 207.28,-239.94"/>
<polygon fill="#63b8ff" stroke="#63b8ff" points="207.57,-236.45 197.19,-238.53 206.6,-243.38 207.57,-236.45"/>
</a>
</g>
</g>
<!-- Node27 -->
<g id="Node000027" class="node">
<title>Node27</title>
<g id="a_Node000027"><a xlink:href="log_8h.html" target="_top" xlink:title=" ">
<polygon fill="white" stroke="#666666" points="112.97,-184 28.97,-184 28.97,-165 112.97,-165 112.97,-184"/>
<text text-anchor="middle" x="70.97" y="-172" font-family="Helvetica,sans-Serif" font-size="10.00">occ/core/log.h</text>
</a>
</g>
</g>
<!-- Node24&#45;&gt;Node27 -->
<g id="edge39_Node000024_Node000027" class="edge">
<title>Node24&#45;&gt;Node27</title>
<g id="a_edge39_Node000024_Node000027"><a xlink:title=" ">
<path fill="none" stroke="#63b8ff" d="M516.77,-287.79C406.29,-284.05 104.2,-270.97 73.97,-239 62.96,-227.36 63.47,-208.5 65.98,-194.35"/>
<polygon fill="#63b8ff" stroke="#63b8ff" points="69.47,-194.76 68.24,-184.24 62.64,-193.24 69.47,-194.76"/>
</a>
</g>
</g>
<!-- Node30 -->
<g id="Node000030" class="node">
<title>Node30</title>
<g id="a_Node000030"><a xlink:href="timings_8h.html" target="_top" xlink:title=" ">
<polygon fill="white" stroke="#666666" points="1053.97,-184 947.97,-184 947.97,-165 1053.97,-165 1053.97,-184"/>
<text text-anchor="middle" x="1000.97" y="-172" font-family="Helvetica,sans-Serif" font-size="10.00">occ/core/timings.h</text>
</a>
</g>
</g>
<!-- Node24&#45;&gt;Node30 -->
<g id="edge44_Node000024_Node000030" class="edge">
<title>Node24&#45;&gt;Node30</title>
<g id="a_edge44_Node000024_Node000030"><a xlink:title=" ">
<path fill="none" stroke="#63b8ff" d="M590.34,-280.47C669.67,-260.19 869.46,-209.12 957.81,-186.53"/>
<polygon fill="#63b8ff" stroke="#63b8ff" points="958.69,-189.92 967.51,-184.05 956.96,-183.14 958.69,-189.92"/>
</a>
</g>
</g>
<!-- Node31 -->
<g id="Node000031" class="node">
<title>Node31</title>
<g id="a_Node000031"><a xlink:href="shell__order_8h.html" target="_top" xlink:title=" ">
<polygon fill="white" stroke="#666666" points="659.47,-239 542.47,-239 542.47,-220 659.47,-220 659.47,-239"/>
<text text-anchor="middle" x="600.97" y="-227" font-family="Helvetica,sans-Serif" font-size="10.00">occ/gto/shell_order.h</text>
</a>
</g>
</g>
<!-- Node24&#45;&gt;Node31 -->
<g id="edge48_Node000024_Node000031" class="edge">
<title>Node24&#45;&gt;Node31</title>
<g id="a_edge48_Node000024_Node000031"><a xlink:title=" ">
<path fill="none" stroke="#63b8ff" d="M563.46,-280.37C569.96,-271.73 580.13,-258.2 588.25,-247.42"/>
<polygon fill="#63b8ff" stroke="#63b8ff" points="591.24,-249.26 594.45,-239.17 585.64,-245.06 591.24,-249.26"/>
</a>
</g>
</g>
<!-- Node33 -->
<g id="Node000033" class="node">
<title>Node33</title>
<g id="a_Node000033"><a xlink:href="shell_8h.html" target="_top" xlink:title=" ">
<polygon fill="white" stroke="#666666" points="485.47,-239 398.47,-239 398.47,-220 485.47,-220 485.47,-239"/>
<text text-anchor="middle" x="441.97" y="-227" font-family="Helvetica,sans-Serif" font-size="10.00">occ/gto/shell.h</text>
</a>
</g>
</g>
<!-- Node24&#45;&gt;Node33 -->
<g id="edge50_Node000024_Node000033" class="edge">
<title>Node24&#45;&gt;Node33</title>
<g id="a_edge50_Node000024_Node000033"><a xlink:title=" ">
<path fill="none" stroke="#63b8ff" d="M540,-280.37C521.06,-270.73 490.18,-255.03 468.14,-243.81"/>
<polygon fill="#63b8ff" stroke="#63b8ff" points="469.51,-240.58 459.01,-239.17 466.33,-246.82 469.51,-240.58"/>
</a>
</g>
</g>
<!-- Node27&#45;&gt;Node20 -->
<g id="edge42_Node000027_Node000020" class="edge">
<title>Node27&#45;&gt;Node20</title>
<g id="a_edge42_Node000027_Node000020"><a xlink:title=" ">
<path fill="none" stroke="#63b8ff" d="M113,-170.39C137.73,-168.63 169.61,-166.49 197.97,-165 611.23,-143.24 721.87,-191.78 1134.63,-128.8"/>
<polygon fill="#63b8ff" stroke="#63b8ff" points="1135.4,-132.23 1144.75,-127.25 1134.34,-125.31 1135.4,-132.23"/>
</a>
</g>
</g>
<!-- Node27&#45;&gt;Node21 -->
<g id="edge43_Node000027_Node000021" class="edge">
<title>Node27&#45;&gt;Node21</title>
<g id="a_edge43_Node000027_Node000021"><a xlink:title=" ">
<path fill="none" stroke="#63b8ff" d="M113.04,-169.32C173.36,-162.98 288.03,-149.64 395.24,-128.92"/>
<polygon fill="#63b8ff" stroke="#63b8ff" points="396.11,-132.32 405.25,-126.96 394.77,-125.45 396.11,-132.32"/>
</a>
</g>
</g>
<!-- Node28 -->
<g id="Node000028" class="node">
<title>Node28</title>
<g id="a_Node000028"><a xlink:title=" ">
<polygon fill="#e0e0e0" stroke="#999999" points="94.47,-129 29.47,-129 29.47,-110 94.47,-110 94.47,-129"/>
<text text-anchor="middle" x="61.97" y="-117" font-family="Helvetica,sans-Serif" font-size="10.00">functional</text>
</a>
</g>
</g>
<!-- Node27&#45;&gt;Node28 -->
<g id="edge40_Node000027_Node000028" class="edge">
<title>Node27&#45;&gt;Node28</title>
<g id="a_edge40_Node000027_Node000028"><a xlink:title=" ">
<path fill="none" stroke="#63b8ff" d="M69.48,-164.75C68.3,-157.8 66.61,-147.85 65.13,-139.13"/>
<polygon fill="#63b8ff" stroke="#63b8ff" points="68.55,-138.36 63.43,-129.09 61.65,-139.53 68.55,-138.36"/>
</a>
</g>
</g>
<!-- Node29 -->
<g id="Node000029" class="node">
<title>Node29</title>
<g id="a_Node000029"><a xlink:title=" ">
<polygon fill="#e0e0e0" stroke="#999999" points="205.47,-129 112.47,-129 112.47,-110 205.47,-110 205.47,-129"/>
<text text-anchor="middle" x="158.97" y="-117" font-family="Helvetica,sans-Serif" font-size="10.00">spdlog/spdlog.h</text>
</a>
</g>
</g>
<!-- Node27&#45;&gt;Node29 -->
<g id="edge41_Node000027_Node000029" class="edge">
<title>Node27&#45;&gt;Node29</title>
<g id="a_edge41_Node000027_Node000029"><a xlink:title=" ">
<path fill="none" stroke="#63b8ff" d="M85.11,-164.98C98.76,-156.77 119.66,-144.18 135.75,-134.49"/>
<polygon fill="#63b8ff" stroke="#63b8ff" points="137.81,-137.33 144.57,-129.17 134.2,-131.33 137.81,-137.33"/>
</a>
</g>
</g>
<!-- Node30&#45;&gt;Node17 -->
<g id="edge45_Node000030_Node000017" class="edge">
<title>Node30&#45;&gt;Node17</title>
<g id="a_edge45_Node000030_Node000017"><a xlink:title=" ">
<path fill="none" stroke="#63b8ff" d="M1017.2,-164.98C1033.15,-156.61 1057.75,-143.7 1076.35,-133.95"/>
<polygon fill="#63b8ff" stroke="#63b8ff" points="1078.22,-136.92 1085.45,-129.17 1074.97,-130.72 1078.22,-136.92"/>
</a>
</g>
</g>
<!-- Node30&#45;&gt;Node20 -->
<g id="edge46_Node000030_Node000020" class="edge">
<title>Node30&#45;&gt;Node20</title>
<g id="a_edge46_Node000030_Node000020"><a xlink:title=" ">
<path fill="none" stroke="#63b8ff" d="M1027.64,-164.98C1056.87,-155.65 1103.75,-140.68 1134.95,-130.72"/>
<polygon fill="#63b8ff" stroke="#63b8ff" points="1136.42,-133.93 1144.88,-127.55 1134.29,-127.26 1136.42,-133.93"/>
</a>
</g>
</g>
<!-- Node32 -->
<g id="Node000032" class="node">
<title>Node32</title>
<g id="a_Node000032"><a xlink:title=" ">
<polygon fill="#e0e0e0" stroke="#999999" points="632.47,-184 585.47,-184 585.47,-165 632.47,-165 632.47,-184"/>
<text text-anchor="middle" x="608.97" y="-172" font-family="Helvetica,sans-Serif" font-size="10.00">cmath</text>
</a>
</g>
</g>
<!-- Node31&#45;&gt;Node32 -->
<g id="edge49_Node000031_Node000032" class="edge">
<title>Node31&#45;&gt;Node32</title>
<g id="a_edge49_Node000031_Node000032"><a xlink:title=" ">
<path fill="none" stroke="#63b8ff" d="M602.29,-219.75C603.34,-212.8 604.84,-202.85 606.16,-194.13"/>
<polygon fill="#63b8ff" stroke="#63b8ff" points="609.64,-194.5 607.67,-184.09 602.72,-193.45 609.64,-194.5"/>
</a>
</g>
</g>
<!-- Node33&#45;&gt;Node2 -->
<g id="edge55_Node000033_Node000002" class="edge">
<title>Node33&#45;&gt;Node2</title>
<g id="a_edge55_Node000033_Node000002"><a xlink:title=" ">
<path fill="none" stroke="#63b8ff" d="M448.15,-219.74C466.4,-193.87 520.3,-117.48 544.71,-82.88"/>
<polygon fill="#63b8ff" stroke="#63b8ff" points="547.85,-84.5 550.76,-74.31 542.13,-80.46 547.85,-84.5"/>
</a>
</g>
</g>
<!-- Node33&#45;&gt;Node9 -->
<g id="edge52_Node000033_Node000009" class="edge">
<title>Node33&#45;&gt;Node9</title>
<g id="a_edge52_Node000033_Node000009"><a xlink:title=" ">
<path fill="none" stroke="#63b8ff" d="M456.32,-219.84C487.21,-201.2 560.28,-157.11 597.82,-134.46"/>
<polygon fill="#63b8ff" stroke="#63b8ff" points="599.8,-137.36 606.56,-129.2 596.19,-131.37 599.8,-137.36"/>
</a>
</g>
</g>
<!-- Node33&#45;&gt;Node14 -->
<g id="edge59_Node000033_Node000014" class="edge">
<title>Node33&#45;&gt;Node14</title>
<g id="a_edge59_Node000033_Node000014"><a xlink:title=" ">
<path fill="none" stroke="#63b8ff" d="M485.86,-223.27C568.22,-213.46 745.63,-192.33 834.29,-181.77"/>
<polygon fill="#63b8ff" stroke="#63b8ff" points="834.88,-185.23 844.39,-180.57 834.05,-178.28 834.88,-185.23"/>
</a>
</g>
</g>
<!-- Node33&#45;&gt;Node21 -->
<g id="edge60_Node000033_Node000021" class="edge">
<title>Node33&#45;&gt;Node21</title>
<g id="a_edge60_Node000033_Node000021"><a xlink:title=" ">
<path fill="none" stroke="#63b8ff" d="M440.91,-219.66C438.8,-202.17 434.06,-162.8 431.23,-139.27"/>
<polygon fill="#63b8ff" stroke="#63b8ff" points="434.68,-138.67 430.01,-129.16 427.73,-139.51 434.68,-138.67"/>
</a>
</g>
</g>
<!-- Node33&#45;&gt;Node25 -->
<g id="edge51_Node000033_Node000025" class="edge">
<title>Node33&#45;&gt;Node25</title>
<g id="a_edge51_Node000033_Node000025"><a xlink:title=" ">
<path fill="none" stroke="#63b8ff" d="M398.36,-227.01C335.19,-223.83 223,-214.01 197.97,-184 184.46,-167.8 204.15,-148.14 222.03,-135.03"/>
<polygon fill="#63b8ff" stroke="#63b8ff" points="224.27,-137.73 230.5,-129.16 220.29,-131.98 224.27,-137.73"/>
</a>
</g>
</g>
<!-- Node34 -->
<g id="Node000034" class="node">
<title>Node34</title>
<g id="a_Node000034"><a xlink:href="atom_8h.html" target="_top" xlink:title=" ">
<polygon fill="white" stroke="#666666" points="387.47,-129 292.47,-129 292.47,-110 387.47,-110 387.47,-129"/>
<text text-anchor="middle" x="339.97" y="-117" font-family="Helvetica,sans-Serif" font-size="10.00">occ/core/atom.h</text>
</a>
</g>
</g>
<!-- Node33&#45;&gt;Node34 -->
<g id="edge53_Node000033_Node000034" class="edge">
<title>Node33&#45;&gt;Node34</title>
<g id="a_edge53_Node000033_Node000034"><a xlink:title=" ">
<path fill="none" stroke="#63b8ff" d="M433.62,-219.66C416.43,-201.46 376.85,-159.55 355.05,-136.47"/>
<polygon fill="#63b8ff" stroke="#63b8ff" points="357.56,-134.03 348.15,-129.16 352.47,-138.83 357.56,-134.03"/>
</a>
</g>
</g>
<!-- Node35 -->
<g id="Node000035" class="node">
<title>Node35</title>
<g id="a_Node000035"><a xlink:href="point__charge_8h.html" target="_top" xlink:title=" ">
<polygon fill="white" stroke="#666666" points="338.97,-184 206.97,-184 206.97,-165 338.97,-165 338.97,-184"/>
<text text-anchor="middle" x="272.97" y="-172" font-family="Helvetica,sans-Serif" font-size="10.00">occ/core/point_charge.h</text>
</a>
</g>
</g>
<!-- Node33&#45;&gt;Node35 -->
<g id="edge56_Node000033_Node000035" class="edge">
<title>Node33&#45;&gt;Node35</title>
<g id="a_edge56_Node000033_Node000035"><a xlink:title=" ">
<path fill="none" stroke="#63b8ff" d="M414.82,-219.98C386.44,-211.09 341.74,-197.07 310.11,-187.15"/>
<polygon fill="#63b8ff" stroke="#63b8ff" points="310.92,-183.73 300.34,-184.08 308.83,-190.41 310.92,-183.73"/>
</a>
</g>
</g>
<!-- Node34&#45;&gt;Node2 -->
<g id="edge54_Node000034_Node000002" class="edge">
<title>Node34&#45;&gt;Node2</title>
<g id="a_edge54_Node000034_Node000002"><a xlink:title=" ">
<path fill="none" stroke="#63b8ff" d="M374.83,-109.98C412.06,-100.89 471.17,-86.46 511.9,-76.51"/>
<polygon fill="#63b8ff" stroke="#63b8ff" points="512.95,-79.85 521.83,-74.08 511.29,-73.05 512.95,-79.85"/>
</a>
</g>
</g>
<!-- Node35&#45;&gt;Node25 -->
<g id="edge57_Node000035_Node000025" class="edge">
<title>Node35&#45;&gt;Node25</title>
<g id="a_edge57_Node000035_Node000025"><a xlink:title=" ">
<path fill="none" stroke="#63b8ff" d="M268.35,-164.75C264.51,-157.49 258.95,-146.95 254.21,-137.98"/>
<polygon fill="#63b8ff" stroke="#63b8ff" points="257.27,-136.3 249.51,-129.09 251.08,-139.57 257.27,-136.3"/>
</a>
</g>
</g>
<!-- Node35&#45;&gt;Node34 -->
<g id="edge58_Node000035_Node000034" class="edge">
<title>Node35&#45;&gt;Node34</title>
<g id="a_edge58_Node000035_Node000034"><a xlink:title=" ">
<path fill="none" stroke="#63b8ff" d="M283.73,-164.98C293.74,-157.07 308.86,-145.11 320.9,-135.58"/>
<polygon fill="#63b8ff" stroke="#63b8ff" points="323.34,-138.12 329.01,-129.17 319,-132.63 323.34,-138.12"/>
</a>
</g>
</g>
</g>
</svg>
