<?xml version="1.0" encoding="UTF-8" standalone="no"?>
<!DOCTYPE svg PUBLIC "-//W3C//DTD SVG 1.1//EN"
 "http://www.w3.org/Graphics/SVG/1.1/DTD/svg11.dtd">
<!-- Generated by graphviz version 2.43.0 (0)
 -->
<!-- Title: /home/runner/work/occ/occ/include/occ/core/dimer.h Pages: 1 -->
<svg width="2338pt" height="362pt"
 viewBox="0.00 0.00 2337.99 362.00" xmlns="http://www.w3.org/2000/svg" xmlns:xlink="http://www.w3.org/1999/xlink">
<g id="graph0" class="graph" transform="scale(1 1) rotate(0) translate(4 358)">
<title>/home/runner/work/occ/occ/include/occ/core/dimer.h</title>
<!-- Node1 -->
<g id="node1" class="node">
<title>Node1</title>
<g id="a_node1"><a xlink:title=" ">
<polygon fill="#bfbfbf" stroke="black" points="1708.99,-312.5 1708.99,-353.5 1836.99,-353.5 1836.99,-312.5 1708.99,-312.5"/>
<text text-anchor="start" x="1716.99" y="-341.5" font-family="Helvetica,sans-Serif" font-size="10.00">/home/runner/work/occ</text>
<text text-anchor="start" x="1716.99" y="-330.5" font-family="Helvetica,sans-Serif" font-size="10.00">/occ/include/occ/core</text>
<text text-anchor="middle" x="1772.99" y="-319.5" font-family="Helvetica,sans-Serif" font-size="10.00">/dimer.h</text>
</a>
</g>
</g>
<!-- Node2 -->
<g id="node2" class="node">
<title>Node2</title>
<g id="a_node2"><a xlink:href="crystal_8h.html" target="_top" xlink:title=" ">
<polygon fill="none" stroke="black" points="993.99,-234.5 993.99,-275.5 1123.99,-275.5 1123.99,-234.5 993.99,-234.5"/>
<text text-anchor="start" x="1001.99" y="-263.5" font-family="Helvetica,sans-Serif" font-size="10.00">/home/runner/work/occ</text>
<text text-anchor="start" x="1001.99" y="-252.5" font-family="Helvetica,sans-Serif" font-size="10.00">/occ/include/occ/crystal</text>
<text text-anchor="middle" x="1058.99" y="-241.5" font-family="Helvetica,sans-Serif" font-size="10.00">/crystal.h</text>
</a>
</g>
</g>
<!-- Node1&#45;&gt;Node2 -->
<g id="edge1" class="edge">
<title>Node1&#45;&gt;Node2</title>
<path fill="none" stroke="midnightblue" d="M1698.45,-324.07C1558.09,-309.13 1256.79,-277.05 1124.05,-262.93"/>
<polygon fill="midnightblue" stroke="midnightblue" points="1698.37,-327.58 1708.68,-325.16 1699.11,-320.62 1698.37,-327.58"/>
</g>
<!-- Node13 -->
<g id="node13" class="node">
<title>Node13</title>
<g id="a_node13"><a xlink:href="pair__energy_8h.html" target="_top" xlink:title=" ">
<polygon fill="none" stroke="black" points="1244.99,-78.5 1244.99,-119.5 1372.99,-119.5 1372.99,-78.5 1244.99,-78.5"/>
<text text-anchor="start" x="1252.99" y="-107.5" font-family="Helvetica,sans-Serif" font-size="10.00">/home/runner/work/occ</text>
<text text-anchor="start" x="1252.99" y="-96.5" font-family="Helvetica,sans-Serif" font-size="10.00">/occ/include/occ/main</text>
<text text-anchor="middle" x="1308.99" y="-85.5" font-family="Helvetica,sans-Serif" font-size="10.00">/pair_energy.h</text>
</a>
</g>
</g>
<!-- Node1&#45;&gt;Node13 -->
<g id="edge30" class="edge">
<title>Node1&#45;&gt;Node13</title>
<path fill="none" stroke="midnightblue" d="M1800.53,-304.73C1835.06,-267.27 1885.27,-199.59 1845.99,-156 1814.83,-121.42 1508.75,-106.79 1373.12,-101.97"/>
<polygon fill="midnightblue" stroke="midnightblue" points="1797.75,-302.57 1793.43,-312.25 1802.84,-307.38 1797.75,-302.57"/>
</g>
<!-- Node14 -->
<g id="node14" class="node">
<title>Node14</title>
<g id="a_node14"><a xlink:href="occ__cg_8h.html" target="_top" xlink:title=" ">
<polygon fill="none" stroke="black" points="521.99,-0.5 521.99,-41.5 649.99,-41.5 649.99,-0.5 521.99,-0.5"/>
<text text-anchor="start" x="529.99" y="-29.5" font-family="Helvetica,sans-Serif" font-size="10.00">/home/runner/work/occ</text>
<text text-anchor="start" x="529.99" y="-18.5" font-family="Helvetica,sans-Serif" font-size="10.00">/occ/include/occ/main</text>
<text text-anchor="middle" x="585.99" y="-7.5" font-family="Helvetica,sans-Serif" font-size="10.00">/occ_cg.h</text>
</a>
</g>
</g>
<!-- Node1&#45;&gt;Node14 -->
<g id="edge29" class="edge">
<title>Node1&#45;&gt;Node14</title>
<path fill="none" stroke="midnightblue" d="M1698.69,-332.11C1380.28,-331.8 141.81,-322.55 26.99,-198 -9.16,-158.79 -8.8,-117.55 26.99,-78 59.69,-41.86 382.08,-28.02 521.88,-23.68"/>
<polygon fill="midnightblue" stroke="midnightblue" points="1698.74,-335.61 1708.74,-332.11 1698.74,-328.61 1698.74,-335.61"/>
</g>
<!-- Node21 -->
<g id="node21" class="node">
<title>Node21</title>
<g id="a_node21"><a xlink:href="solvation__partition_8h.html" target="_top" xlink:title=" ">
<polygon fill="none" stroke="black" points="1416.99,-156.5 1416.99,-197.5 1544.99,-197.5 1544.99,-156.5 1416.99,-156.5"/>
<text text-anchor="start" x="1424.99" y="-185.5" font-family="Helvetica,sans-Serif" font-size="10.00">/home/runner/work/occ</text>
<text text-anchor="start" x="1424.99" y="-174.5" font-family="Helvetica,sans-Serif" font-size="10.00">/occ/include/occ/main</text>
<text text-anchor="middle" x="1480.99" y="-163.5" font-family="Helvetica,sans-Serif" font-size="10.00">/solvation_partition.h</text>
</a>
</g>
</g>
<!-- Node1&#45;&gt;Node21 -->
<g id="edge31" class="edge">
<title>Node1&#45;&gt;Node21</title>
<path fill="none" stroke="midnightblue" d="M1727.1,-307.8C1669.38,-277.36 1571.39,-225.68 1518.13,-197.59"/>
<polygon fill="midnightblue" stroke="midnightblue" points="1725.53,-310.93 1736,-312.5 1728.79,-304.73 1725.53,-310.93"/>
</g>
<!-- Node22 -->
<g id="node22" class="node">
<title>Node22</title>
<g id="a_node22"><a xlink:href="tblite__wrapper_8h.html" target="_top" xlink:title=" ">
<polygon fill="none" stroke="black" points="1562.99,-156.5 1562.99,-197.5 1690.99,-197.5 1690.99,-156.5 1562.99,-156.5"/>
<text text-anchor="start" x="1570.99" y="-185.5" font-family="Helvetica,sans-Serif" font-size="10.00">/home/runner/work/occ</text>
<text text-anchor="start" x="1570.99" y="-174.5" font-family="Helvetica,sans-Serif" font-size="10.00">/occ/include/occ/xtb</text>
<text text-anchor="middle" x="1626.99" y="-163.5" font-family="Helvetica,sans-Serif" font-size="10.00">/tblite_wrapper.h</text>
</a>
</g>
</g>
<!-- Node1&#45;&gt;Node22 -->
<g id="edge32" class="edge">
<title>Node1&#45;&gt;Node22</title>
<path fill="none" stroke="midnightblue" d="M1747.52,-305.14C1718.49,-274.51 1671.7,-225.17 1645.79,-197.83"/>
<polygon fill="midnightblue" stroke="midnightblue" points="1745.08,-307.65 1754.5,-312.5 1750.16,-302.83 1745.08,-307.65"/>
</g>
<!-- Node23 -->
<g id="node23" class="node">
<title>Node23</title>
<g id="a_node23"><a xlink:href="xtb__wrapper_8h.html" target="_top" xlink:title=" ">
<polygon fill="none" stroke="black" points="1708.99,-156.5 1708.99,-197.5 1836.99,-197.5 1836.99,-156.5 1708.99,-156.5"/>
<text text-anchor="start" x="1716.99" y="-185.5" font-family="Helvetica,sans-Serif" font-size="10.00">/home/runner/work/occ</text>
<text text-anchor="start" x="1716.99" y="-174.5" font-family="Helvetica,sans-Serif" font-size="10.00">/occ/include/occ/xtb</text>
<text text-anchor="middle" x="1772.99" y="-163.5" font-family="Helvetica,sans-Serif" font-size="10.00">/xtb_wrapper.h</text>
</a>
</g>
</g>
<!-- Node1&#45;&gt;Node23 -->
<g id="edge33" class="edge">
<title>Node1&#45;&gt;Node23</title>
<path fill="none" stroke="midnightblue" d="M1772.99,-302.36C1772.99,-271.61 1772.99,-224.36 1772.99,-197.83"/>
<polygon fill="midnightblue" stroke="midnightblue" points="1769.49,-302.5 1772.99,-312.5 1776.49,-302.5 1769.49,-302.5"/>
</g>
<!-- Node24 -->
<g id="node24" class="node">
<title>Node24</title>
<g id="a_node24"><a xlink:href="coulomb_8h.html" target="_top" xlink:title=" ">
<polygon fill="none" stroke="black" points="1865.49,-234.5 1865.49,-275.5 2014.49,-275.5 2014.49,-234.5 1865.49,-234.5"/>
<text text-anchor="start" x="1873.49" y="-263.5" font-family="Helvetica,sans-Serif" font-size="10.00">/home/runner/work/occ</text>
<text text-anchor="start" x="1873.49" y="-252.5" font-family="Helvetica,sans-Serif" font-size="10.00">/occ/include/occ/interaction</text>
<text text-anchor="middle" x="1939.99" y="-241.5" font-family="Helvetica,sans-Serif" font-size="10.00">/coulomb.h</text>
</a>
</g>
</g>
<!-- Node1&#45;&gt;Node24 -->
<g id="edge26" class="edge">
<title>Node1&#45;&gt;Node24</title>
<path fill="none" stroke="midnightblue" d="M1825.31,-308.19C1848.41,-297.67 1875.23,-285.47 1897.13,-275.51"/>
<polygon fill="midnightblue" stroke="midnightblue" points="1823.65,-305.1 1815.99,-312.43 1826.54,-311.47 1823.65,-305.1"/>
</g>
<!-- Node25 -->
<g id="node25" class="node">
<title>Node25</title>
<g id="a_node25"><a xlink:href="pair__potential_8h.html" target="_top" xlink:title=" ">
<polygon fill="none" stroke="black" points="2032.49,-234.5 2032.49,-275.5 2181.49,-275.5 2181.49,-234.5 2032.49,-234.5"/>
<text text-anchor="start" x="2040.49" y="-263.5" font-family="Helvetica,sans-Serif" font-size="10.00">/home/runner/work/occ</text>
<text text-anchor="start" x="2040.49" y="-252.5" font-family="Helvetica,sans-Serif" font-size="10.00">/occ/include/occ/interaction</text>
<text text-anchor="middle" x="2106.99" y="-241.5" font-family="Helvetica,sans-Serif" font-size="10.00">/pair_potential.h</text>
</a>
</g>
</g>
<!-- Node1&#45;&gt;Node25 -->
<g id="edge27" class="edge">
<title>Node1&#45;&gt;Node25</title>
<path fill="none" stroke="midnightblue" d="M1846.78,-315.88C1896.83,-304.86 1964.46,-289.81 2023.99,-276 2026.73,-275.36 2029.52,-274.71 2032.34,-274.05"/>
<polygon fill="midnightblue" stroke="midnightblue" points="1846.03,-312.46 1837.02,-318.03 1847.53,-319.3 1846.03,-312.46"/>
</g>
<!-- Node26 -->
<g id="node26" class="node">
<title>Node26</title>
<g id="a_node26"><a xlink:href="core__json_8h.html" target="_top" xlink:title=" ">
<polygon fill="none" stroke="black" points="2199.99,-234.5 2199.99,-275.5 2329.99,-275.5 2329.99,-234.5 2199.99,-234.5"/>
<text text-anchor="start" x="2207.99" y="-263.5" font-family="Helvetica,sans-Serif" font-size="10.00">/home/runner/work/occ</text>
<text text-anchor="start" x="2207.99" y="-252.5" font-family="Helvetica,sans-Serif" font-size="10.00">/occ/include/occ/io/core</text>
<text text-anchor="middle" x="2264.99" y="-241.5" font-family="Helvetica,sans-Serif" font-size="10.00">_json.h</text>
</a>
</g>
</g>
<!-- Node1&#45;&gt;Node26 -->
<g id="edge28" class="edge">
<title>Node1&#45;&gt;Node26</title>
<path fill="none" stroke="midnightblue" d="M1847.1,-325.03C1931.04,-316.45 2071.66,-300.01 2190.99,-276 2193.86,-275.42 2196.78,-274.8 2199.73,-274.13"/>
<polygon fill="midnightblue" stroke="midnightblue" points="1846.75,-321.55 1837.15,-326.04 1847.45,-328.51 1846.75,-321.55"/>
</g>
<!-- Node3 -->
<g id="node3" class="node">
<title>Node3</title>
<g id="a_node3"><a xlink:href="crystal_2surface_8h.html" target="_top" xlink:title=" ">
<polygon fill="none" stroke="black" points="1070.99,-156.5 1070.99,-197.5 1200.99,-197.5 1200.99,-156.5 1070.99,-156.5"/>
<text text-anchor="start" x="1078.99" y="-185.5" font-family="Helvetica,sans-Serif" font-size="10.00">/home/runner/work/occ</text>
<text text-anchor="start" x="1078.99" y="-174.5" font-family="Helvetica,sans-Serif" font-size="10.00">/occ/include/occ/crystal</text>
<text text-anchor="middle" x="1135.99" y="-163.5" font-family="Helvetica,sans-Serif" font-size="10.00">/surface.h</text>
</a>
</g>
</g>
<!-- Node2&#45;&gt;Node3 -->
<g id="edge2" class="edge">
<title>Node2&#45;&gt;Node3</title>
<path fill="none" stroke="midnightblue" d="M1086.13,-227.2C1096.05,-217.42 1107.07,-206.54 1116.22,-197.51"/>
<polygon fill="midnightblue" stroke="midnightblue" points="1083.47,-224.91 1078.82,-234.43 1088.39,-229.89 1083.47,-224.91"/>
</g>
<!-- Node4 -->
<g id="node4" class="node">
<title>Node4</title>
<g id="a_node4"><a xlink:href="cifparser_8h.html" target="_top" xlink:title=" ">
<polygon fill="none" stroke="black" points="296.99,-84 296.99,-114 456.99,-114 456.99,-84 296.99,-84"/>
<text text-anchor="start" x="304.99" y="-102" font-family="Helvetica,sans-Serif" font-size="10.00">/home/runner/work/occ</text>
<text text-anchor="middle" x="376.99" y="-91" font-family="Helvetica,sans-Serif" font-size="10.00">/occ/include/occ/io/cifparser.h</text>
</a>
</g>
</g>
<!-- Node2&#45;&gt;Node4 -->
<g id="edge3" class="edge">
<title>Node2&#45;&gt;Node4</title>
<path fill="none" stroke="midnightblue" d="M983.61,-252.97C919.92,-249.17 828.12,-236.6 757.99,-198 735.67,-185.72 741.56,-167.81 718.99,-156 618.34,-103.36 577.7,-140.47 465.99,-120 456.33,-118.23 446.13,-116.15 436.21,-114"/>
<polygon fill="midnightblue" stroke="midnightblue" points="983.81,-256.49 993.98,-253.53 984.18,-249.5 983.81,-256.49"/>
</g>
<!-- Node5 -->
<g id="node5" class="node">
<title>Node5</title>
<g id="a_node5"><a xlink:href="crystal__json_8h.html" target="_top" xlink:title=" ">
<polygon fill="none" stroke="black" points="1256.99,-156.5 1256.99,-197.5 1398.99,-197.5 1398.99,-156.5 1256.99,-156.5"/>
<text text-anchor="start" x="1264.99" y="-185.5" font-family="Helvetica,sans-Serif" font-size="10.00">/home/runner/work/occ</text>
<text text-anchor="start" x="1264.99" y="-174.5" font-family="Helvetica,sans-Serif" font-size="10.00">/occ/include/occ/io/crystal</text>
<text text-anchor="middle" x="1327.99" y="-163.5" font-family="Helvetica,sans-Serif" font-size="10.00">_json.h</text>
</a>
</g>
</g>
<!-- Node2&#45;&gt;Node5 -->
<g id="edge4" class="edge">
<title>Node2&#45;&gt;Node5</title>
<path fill="none" stroke="midnightblue" d="M1133.86,-232.85C1172.97,-221.8 1220.52,-208.36 1258.77,-197.56"/>
<polygon fill="midnightblue" stroke="midnightblue" points="1132.78,-229.52 1124.1,-235.6 1134.68,-236.25 1132.78,-229.52"/>
</g>
<!-- Node6 -->
<g id="node6" class="node">
<title>Node6</title>
<g id="a_node6"><a xlink:href="crystalgrower_8h.html" target="_top" xlink:title=" ">
<polygon fill="none" stroke="black" points="201.99,-162 201.99,-192 385.99,-192 385.99,-162 201.99,-162"/>
<text text-anchor="start" x="209.99" y="-180" font-family="Helvetica,sans-Serif" font-size="10.00">/home/runner/work/occ</text>
<text text-anchor="middle" x="293.99" y="-169" font-family="Helvetica,sans-Serif" font-size="10.00">/occ/include/occ/io/crystalgrower.h</text>
</a>
</g>
</g>
<!-- Node2&#45;&gt;Node6 -->
<g id="edge5" class="edge">
<title>Node2&#45;&gt;Node6</title>
<path fill="none" stroke="midnightblue" d="M983.58,-250.38C860.1,-243.84 607.25,-227.87 394.99,-198 383.39,-196.37 371.12,-194.26 359.27,-192.03"/>
<polygon fill="midnightblue" stroke="midnightblue" points="983.52,-253.88 993.68,-250.91 983.88,-246.89 983.52,-253.88"/>
</g>
<!-- Node7 -->
<g id="node7" class="node">
<title>Node7</title>
<g id="a_node7"><a xlink:href="gmf_8h.html" target="_top" xlink:title=" ">
<polygon fill="none" stroke="black" points="404.49,-162 404.49,-192 541.49,-192 541.49,-162 404.49,-162"/>
<text text-anchor="start" x="412.49" y="-180" font-family="Helvetica,sans-Serif" font-size="10.00">/home/runner/work/occ</text>
<text text-anchor="middle" x="472.99" y="-169" font-family="Helvetica,sans-Serif" font-size="10.00">/occ/include/occ/io/gmf.h</text>
</a>
</g>
</g>
<!-- Node2&#45;&gt;Node7 -->
<g id="edge6" class="edge">
<title>Node2&#45;&gt;Node7</title>
<path fill="none" stroke="midnightblue" d="M983.89,-249.15C884.15,-241.93 702.78,-226.1 549.99,-198 541.16,-196.38 531.85,-194.29 522.87,-192.08"/>
<polygon fill="midnightblue" stroke="midnightblue" points="983.64,-252.64 993.87,-249.86 984.14,-245.66 983.64,-252.64"/>
</g>
<!-- Node8 -->
<g id="node8" class="node">
<title>Node8</title>
<g id="a_node8"><a xlink:href="kmcpp_8h.html" target="_top" xlink:title=" ">
<polygon fill="none" stroke="black" points="559.49,-162 559.49,-192 710.49,-192 710.49,-162 559.49,-162"/>
<text text-anchor="start" x="567.49" y="-180" font-family="Helvetica,sans-Serif" font-size="10.00">/home/runner/work/occ</text>
<text text-anchor="middle" x="634.99" y="-169" font-family="Helvetica,sans-Serif" font-size="10.00">/occ/include/occ/io/kmcpp.h</text>
</a>
</g>
</g>
<!-- Node2&#45;&gt;Node8 -->
<g id="edge7" class="edge">
<title>Node2&#45;&gt;Node8</title>
<path fill="none" stroke="midnightblue" d="M983.67,-242.53C915.84,-231.93 813.5,-215.24 724.99,-198 715.72,-196.19 705.94,-194.16 696.38,-192.09"/>
<polygon fill="midnightblue" stroke="midnightblue" points="983.42,-246.03 993.84,-244.11 984.5,-239.12 983.42,-246.03"/>
</g>
<!-- Node9 -->
<g id="node9" class="node">
<title>Node9</title>
<g id="a_node9"><a xlink:href="occ__input_8h.html" target="_top" xlink:title=" ">
<polygon fill="none" stroke="black" points="766.99,-156.5 766.99,-197.5 894.99,-197.5 894.99,-156.5 766.99,-156.5"/>
<text text-anchor="start" x="774.99" y="-185.5" font-family="Helvetica,sans-Serif" font-size="10.00">/home/runner/work/occ</text>
<text text-anchor="start" x="774.99" y="-174.5" font-family="Helvetica,sans-Serif" font-size="10.00">/occ/include/occ/io/occ</text>
<text text-anchor="middle" x="830.99" y="-163.5" font-family="Helvetica,sans-Serif" font-size="10.00">_input.h</text>
</a>
</g>
</g>
<!-- Node2&#45;&gt;Node9 -->
<g id="edge8" class="edge">
<title>Node2&#45;&gt;Node9</title>
<path fill="none" stroke="midnightblue" d="M990.48,-231.17C958.3,-220.44 920.32,-207.78 889.5,-197.51"/>
<polygon fill="midnightblue" stroke="midnightblue" points="989.68,-234.59 1000.27,-234.43 991.89,-227.95 989.68,-234.59"/>
</g>
<!-- Node2&#45;&gt;Node13 -->
<g id="edge22" class="edge">
<title>Node2&#45;&gt;Node13</title>
<path fill="none" stroke="midnightblue" d="M1133.95,-234.13C1159.37,-225.38 1187.1,-213.5 1209.99,-198 1230.83,-183.89 1230.25,-173.86 1247.99,-156 1260.34,-143.55 1274.78,-130.25 1286.5,-119.74"/>
<polygon fill="midnightblue" stroke="midnightblue" points="1132.71,-230.85 1124.33,-237.32 1134.92,-237.49 1132.71,-230.85"/>
</g>
<!-- Node18 -->
<g id="node18" class="node">
<title>Node18</title>
<g id="a_node18"><a xlink:href="void_8h.html" target="_top" xlink:title=" ">
<polygon fill="none" stroke="black" points="36.49,-156.5 36.49,-197.5 183.49,-197.5 183.49,-156.5 36.49,-156.5"/>
<text text-anchor="start" x="44.49" y="-185.5" font-family="Helvetica,sans-Serif" font-size="10.00">/home/runner/work/occ</text>
<text text-anchor="start" x="44.49" y="-174.5" font-family="Helvetica,sans-Serif" font-size="10.00">/occ/include/occ/isosurface</text>
<text text-anchor="middle" x="109.99" y="-163.5" font-family="Helvetica,sans-Serif" font-size="10.00">/void.h</text>
</a>
</g>
</g>
<!-- Node2&#45;&gt;Node18 -->
<g id="edge19" class="edge">
<title>Node2&#45;&gt;Node18</title>
<path fill="none" stroke="midnightblue" d="M983.86,-253.47C833.07,-251.46 483.12,-242 192.99,-198 189.91,-197.53 186.78,-197.01 183.62,-196.44"/>
<polygon fill="midnightblue" stroke="midnightblue" points="983.9,-256.97 993.94,-253.6 983.98,-249.97 983.9,-256.97"/>
</g>
<!-- Node20 -->
<g id="node20" class="node">
<title>Node20</title>
<g id="a_node20"><a xlink:href="crystal__surface__energy_8h.html" target="_top" xlink:title=" ">
<polygon fill="none" stroke="black" points="912.99,-156.5 912.99,-197.5 1052.99,-197.5 1052.99,-156.5 912.99,-156.5"/>
<text text-anchor="start" x="920.99" y="-185.5" font-family="Helvetica,sans-Serif" font-size="10.00">/home/runner/work/occ</text>
<text text-anchor="start" x="920.99" y="-174.5" font-family="Helvetica,sans-Serif" font-size="10.00">/occ/include/occ/main</text>
<text text-anchor="middle" x="982.99" y="-163.5" font-family="Helvetica,sans-Serif" font-size="10.00">/crystal_surface_energy.h</text>
</a>
</g>
</g>
<!-- Node2&#45;&gt;Node20 -->
<g id="edge21" class="edge">
<title>Node2&#45;&gt;Node20</title>
<path fill="none" stroke="midnightblue" d="M1032.19,-227.2C1022.4,-217.42 1011.53,-206.54 1002.49,-197.51"/>
<polygon fill="midnightblue" stroke="midnightblue" points="1029.87,-229.83 1039.41,-234.43 1034.82,-224.88 1029.87,-229.83"/>
</g>
<!-- Node2&#45;&gt;Node21 -->
<g id="edge23" class="edge">
<title>Node2&#45;&gt;Node21</title>
<path fill="none" stroke="midnightblue" d="M1134.21,-244.33C1205.19,-234.64 1314.38,-218.27 1407.99,-198 1410.81,-197.39 1413.69,-196.73 1416.59,-196.05"/>
<polygon fill="midnightblue" stroke="midnightblue" points="1133.46,-240.9 1124.02,-245.71 1134.4,-247.84 1133.46,-240.9"/>
</g>
<!-- Node2&#45;&gt;Node22 -->
<g id="edge24" class="edge">
<title>Node2&#45;&gt;Node22</title>
<path fill="none" stroke="midnightblue" d="M1134.4,-249.11C1231.92,-241.97 1406.75,-226.32 1553.99,-198 1556.83,-197.45 1559.72,-196.85 1562.63,-196.21"/>
<polygon fill="midnightblue" stroke="midnightblue" points="1134.06,-245.63 1124.34,-249.84 1134.56,-252.61 1134.06,-245.63"/>
</g>
<!-- Node2&#45;&gt;Node23 -->
<g id="edge25" class="edge">
<title>Node2&#45;&gt;Node23</title>
<path fill="none" stroke="midnightblue" d="M1134.3,-251.81C1254.69,-247.34 1497.52,-234.27 1699.99,-198 1702.83,-197.49 1705.73,-196.92 1708.64,-196.3"/>
<polygon fill="midnightblue" stroke="midnightblue" points="1133.96,-248.32 1124.09,-252.18 1134.21,-255.32 1133.96,-248.32"/>
</g>
<!-- Node9&#45;&gt;Node4 -->
<g id="edge9" class="edge">
<title>Node9&#45;&gt;Node4</title>
<path fill="none" stroke="midnightblue" d="M756.84,-156.75C755.55,-156.49 754.26,-156.24 752.99,-156 626.69,-131.99 592.62,-142.12 465.99,-120 456.16,-118.28 445.78,-116.2 435.71,-114.04"/>
<polygon fill="midnightblue" stroke="midnightblue" points="756.35,-160.23 766.86,-158.87 757.8,-153.38 756.35,-160.23"/>
</g>
<!-- Node10 -->
<g id="node10" class="node">
<title>Node10</title>
<g id="a_node10"><a xlink:href="qcschema_8h.html" target="_top" xlink:title=" ">
<polygon fill="none" stroke="black" points="913.49,-84 913.49,-114 1080.49,-114 1080.49,-84 913.49,-84"/>
<text text-anchor="start" x="921.49" y="-102" font-family="Helvetica,sans-Serif" font-size="10.00">/home/runner/work/occ</text>
<text text-anchor="middle" x="996.99" y="-91" font-family="Helvetica,sans-Serif" font-size="10.00">/occ/include/occ/io/qcschema.h</text>
</a>
</g>
</g>
<!-- Node9&#45;&gt;Node10 -->
<g id="edge10" class="edge">
<title>Node9&#45;&gt;Node10</title>
<path fill="none" stroke="midnightblue" d="M883.15,-152.12C910.44,-139.63 942.91,-124.76 966.17,-114.11"/>
<polygon fill="midnightblue" stroke="midnightblue" points="881.37,-149.08 873.74,-156.43 884.28,-155.45 881.37,-149.08"/>
</g>
<!-- Node11 -->
<g id="node11" class="node">
<title>Node11</title>
<g id="a_node11"><a xlink:href="occ__pair_8h.html" target="_top" xlink:title=" ">
<polygon fill="none" stroke="black" points="1098.99,-78.5 1098.99,-119.5 1226.99,-119.5 1226.99,-78.5 1098.99,-78.5"/>
<text text-anchor="start" x="1106.99" y="-107.5" font-family="Helvetica,sans-Serif" font-size="10.00">/home/runner/work/occ</text>
<text text-anchor="start" x="1106.99" y="-96.5" font-family="Helvetica,sans-Serif" font-size="10.00">/occ/include/occ/main</text>
<text text-anchor="middle" x="1162.99" y="-85.5" font-family="Helvetica,sans-Serif" font-size="10.00">/occ_pair.h</text>
</a>
</g>
</g>
<!-- Node9&#45;&gt;Node11 -->
<g id="edge11" class="edge">
<title>Node9&#45;&gt;Node11</title>
<path fill="none" stroke="midnightblue" d="M904.81,-155.89C987.25,-137.04 1010.42,-138.24 1088.99,-120 1092.23,-119.25 1095.54,-118.45 1098.88,-117.63"/>
<polygon fill="midnightblue" stroke="midnightblue" points="903.96,-152.5 895.01,-158.17 905.54,-159.32 903.96,-152.5"/>
</g>
<!-- Node12 -->
<g id="node12" class="node">
<title>Node12</title>
<g id="a_node12"><a xlink:href="occ__scf_8h.html" target="_top" xlink:title=" ">
<polygon fill="none" stroke="black" points="474.99,-78.5 474.99,-119.5 602.99,-119.5 602.99,-78.5 474.99,-78.5"/>
<text text-anchor="start" x="482.99" y="-107.5" font-family="Helvetica,sans-Serif" font-size="10.00">/home/runner/work/occ</text>
<text text-anchor="start" x="482.99" y="-96.5" font-family="Helvetica,sans-Serif" font-size="10.00">/occ/include/occ/main</text>
<text text-anchor="middle" x="538.99" y="-85.5" font-family="Helvetica,sans-Serif" font-size="10.00">/occ_scf.h</text>
</a>
</g>
</g>
<!-- Node9&#45;&gt;Node12 -->
<g id="edge12" class="edge">
<title>Node9&#45;&gt;Node12</title>
<path fill="none" stroke="midnightblue" d="M756.79,-156.97C755.51,-156.65 754.24,-156.32 752.99,-156 690.33,-139.97 674.51,-136.55 611.99,-120 609.06,-119.23 606.08,-118.43 603.06,-117.62"/>
<polygon fill="midnightblue" stroke="midnightblue" points="756.16,-160.42 766.71,-159.51 757.9,-153.64 756.16,-160.42"/>
</g>
<!-- Node9&#45;&gt;Node13 -->
<g id="edge13" class="edge">
<title>Node9&#45;&gt;Node13</title>
<path fill="none" stroke="midnightblue" d="M905.58,-155.86C1051.67,-129.15 1093.45,-147.07 1235.99,-120 1238.83,-119.46 1241.72,-118.87 1244.63,-118.23"/>
<polygon fill="midnightblue" stroke="midnightblue" points="904.53,-152.49 895.34,-157.77 905.82,-159.37 904.53,-152.49"/>
</g>
<!-- Node16 -->
<g id="node16" class="node">
<title>Node16</title>
<g id="a_node16"><a xlink:href="properties_8h.html" target="_top" xlink:title=" ">
<polygon fill="none" stroke="black" points="620.99,-78.5 620.99,-119.5 748.99,-119.5 748.99,-78.5 620.99,-78.5"/>
<text text-anchor="start" x="628.99" y="-107.5" font-family="Helvetica,sans-Serif" font-size="10.00">/home/runner/work/occ</text>
<text text-anchor="start" x="628.99" y="-96.5" font-family="Helvetica,sans-Serif" font-size="10.00">/occ/include/occ/main</text>
<text text-anchor="middle" x="684.99" y="-85.5" font-family="Helvetica,sans-Serif" font-size="10.00">/properties.h</text>
</a>
</g>
</g>
<!-- Node9&#45;&gt;Node16 -->
<g id="edge17" class="edge">
<title>Node9&#45;&gt;Node16</title>
<path fill="none" stroke="midnightblue" d="M784.43,-151.77C764.42,-141.35 741.34,-129.34 722.46,-119.51"/>
<polygon fill="midnightblue" stroke="midnightblue" points="782.9,-154.92 793.39,-156.43 786.13,-148.71 782.9,-154.92"/>
</g>
<!-- Node17 -->
<g id="node17" class="node">
<title>Node17</title>
<g id="a_node17"><a xlink:href="single__point_8h.html" target="_top" xlink:title=" ">
<polygon fill="none" stroke="black" points="766.99,-78.5 766.99,-119.5 894.99,-119.5 894.99,-78.5 766.99,-78.5"/>
<text text-anchor="start" x="774.99" y="-107.5" font-family="Helvetica,sans-Serif" font-size="10.00">/home/runner/work/occ</text>
<text text-anchor="start" x="774.99" y="-96.5" font-family="Helvetica,sans-Serif" font-size="10.00">/occ/include/occ/main</text>
<text text-anchor="middle" x="830.99" y="-85.5" font-family="Helvetica,sans-Serif" font-size="10.00">/single_point.h</text>
</a>
</g>
</g>
<!-- Node9&#45;&gt;Node17 -->
<g id="edge18" class="edge">
<title>Node9&#45;&gt;Node17</title>
<path fill="none" stroke="midnightblue" d="M830.99,-146.3C830.99,-137.3 830.99,-127.65 830.99,-119.51"/>
<polygon fill="midnightblue" stroke="midnightblue" points="827.49,-146.43 830.99,-156.43 834.49,-146.43 827.49,-146.43"/>
</g>
<!-- Node13&#45;&gt;Node13 -->
<g id="edge16" class="edge">
<title>Node13&#45;&gt;Node13</title>
<path fill="none" stroke="midnightblue" d="M1383.14,-109.45C1388.03,-107.02 1390.99,-103.54 1390.99,-99 1390.99,-91.92 1383.77,-87.41 1373.27,-85.47"/>
<polygon fill="midnightblue" stroke="midnightblue" points="1381.77,-106.21 1373.27,-112.53 1383.86,-112.89 1381.77,-106.21"/>
</g>
<!-- Node13&#45;&gt;Node14 -->
<g id="edge14" class="edge">
<title>Node13&#45;&gt;Node14</title>
<path fill="none" stroke="midnightblue" d="M1234.58,-77.91C1015.85,-39.7 765.58,-27.52 650.15,-23.67"/>
<polygon fill="midnightblue" stroke="midnightblue" points="1234.19,-81.4 1244.64,-79.69 1235.41,-74.5 1234.19,-81.4"/>
</g>
<!-- Node15 -->
<g id="node15" class="node">
<title>Node15</title>
<g id="a_node15"><a xlink:href="occ__elat_8h.html" target="_top" xlink:title=" ">
<polygon fill="none" stroke="black" points="1244.99,-0.5 1244.99,-41.5 1372.99,-41.5 1372.99,-0.5 1244.99,-0.5"/>
<text text-anchor="start" x="1252.99" y="-29.5" font-family="Helvetica,sans-Serif" font-size="10.00">/home/runner/work/occ</text>
<text text-anchor="start" x="1252.99" y="-18.5" font-family="Helvetica,sans-Serif" font-size="10.00">/occ/include/occ/main</text>
<text text-anchor="middle" x="1308.99" y="-7.5" font-family="Helvetica,sans-Serif" font-size="10.00">/occ_elat.h</text>
</a>
</g>
</g>
<!-- Node13&#45;&gt;Node15 -->
<g id="edge15" class="edge">
<title>Node13&#45;&gt;Node15</title>
<path fill="none" stroke="midnightblue" d="M1308.99,-68.3C1308.99,-59.3 1308.99,-49.65 1308.99,-41.51"/>
<polygon fill="midnightblue" stroke="midnightblue" points="1305.49,-68.43 1308.99,-78.43 1312.49,-68.43 1305.49,-68.43"/>
</g>
<!-- Node19 -->
<g id="node19" class="node">
<title>Node19</title>
<g id="a_node19"><a xlink:href="isosurface_8h.html" target="_top" xlink:title=" ">
<polygon fill="none" stroke="black" points="36.49,-78.5 36.49,-119.5 183.49,-119.5 183.49,-78.5 36.49,-78.5"/>
<text text-anchor="start" x="44.49" y="-107.5" font-family="Helvetica,sans-Serif" font-size="10.00">/home/runner/work/occ</text>
<text text-anchor="start" x="44.49" y="-96.5" font-family="Helvetica,sans-Serif" font-size="10.00">/occ/include/occ/isosurface</text>
<text text-anchor="middle" x="109.99" y="-85.5" font-family="Helvetica,sans-Serif" font-size="10.00">/isosurface.h</text>
</a>
</g>
</g>
<!-- Node18&#45;&gt;Node19 -->
<g id="edge20" class="edge">
<title>Node18&#45;&gt;Node19</title>
<path fill="none" stroke="midnightblue" d="M109.99,-146.3C109.99,-137.3 109.99,-127.65 109.99,-119.51"/>
<polygon fill="midnightblue" stroke="midnightblue" points="106.49,-146.43 109.99,-156.43 113.49,-146.43 106.49,-146.43"/>
</g>
</g>
</svg>
