<?xml version="1.0" encoding="UTF-8" standalone="no"?>
<!DOCTYPE svg PUBLIC "-//W3C//DTD SVG 1.1//EN"
 "http://www.w3.org/Graphics/SVG/1.1/DTD/svg11.dtd">
<!-- Generated by graphviz version 2.43.0 (0)
 -->
<!-- Title: /home/runner/work/occ/occ/include/occ/core/dimer.h Pages: 1 -->
<svg width="2145pt" height="362pt"
 viewBox="0.00 0.00 2144.84 362.00" xmlns="http://www.w3.org/2000/svg" xmlns:xlink="http://www.w3.org/1999/xlink">
<g id="graph0" class="graph" transform="scale(1 1) rotate(0) translate(4 358)">
<title>/home/runner/work/occ/occ/include/occ/core/dimer.h</title>
<!-- Node1 -->
<g id="node1" class="node">
<title>Node1</title>
<g id="a_node1"><a xlink:title=" ">
<polygon fill="#bfbfbf" stroke="black" points="1515.84,-312.5 1515.84,-353.5 1643.84,-353.5 1643.84,-312.5 1515.84,-312.5"/>
<text text-anchor="start" x="1523.84" y="-341.5" font-family="Helvetica,sans-Serif" font-size="10.00">/home/runner/work/occ</text>
<text text-anchor="start" x="1523.84" y="-330.5" font-family="Helvetica,sans-Serif" font-size="10.00">/occ/include/occ/core</text>
<text text-anchor="middle" x="1579.84" y="-319.5" font-family="Helvetica,sans-Serif" font-size="10.00">/dimer.h</text>
</a>
</g>
</g>
<!-- Node2 -->
<g id="node2" class="node">
<title>Node2</title>
<g id="a_node2"><a xlink:href="crystal_8h.html" target="_top" xlink:title=" ">
<polygon fill="none" stroke="black" points="878.84,-234.5 878.84,-275.5 1008.84,-275.5 1008.84,-234.5 878.84,-234.5"/>
<text text-anchor="start" x="886.84" y="-263.5" font-family="Helvetica,sans-Serif" font-size="10.00">/home/runner/work/occ</text>
<text text-anchor="start" x="886.84" y="-252.5" font-family="Helvetica,sans-Serif" font-size="10.00">/occ/include/occ/crystal</text>
<text text-anchor="middle" x="943.84" y="-241.5" font-family="Helvetica,sans-Serif" font-size="10.00">/crystal.h</text>
</a>
</g>
</g>
<!-- Node1&#45;&gt;Node2 -->
<g id="edge1" class="edge">
<title>Node1&#45;&gt;Node2</title>
<path fill="none" stroke="midnightblue" d="M1505.37,-323.1C1379.81,-308.1 1128.07,-278.01 1009.05,-263.79"/>
<polygon fill="midnightblue" stroke="midnightblue" points="1505.31,-326.62 1515.66,-324.33 1506.14,-319.67 1505.31,-326.62"/>
</g>
<!-- Node13 -->
<g id="node13" class="node">
<title>Node13</title>
<g id="a_node13"><a xlink:href="pair__energy_8h.html" target="_top" xlink:title=" ">
<polygon fill="none" stroke="black" points="1191.84,-78.5 1191.84,-119.5 1319.84,-119.5 1319.84,-78.5 1191.84,-78.5"/>
<text text-anchor="start" x="1199.84" y="-107.5" font-family="Helvetica,sans-Serif" font-size="10.00">/home/runner/work/occ</text>
<text text-anchor="start" x="1199.84" y="-96.5" font-family="Helvetica,sans-Serif" font-size="10.00">/occ/include/occ/main</text>
<text text-anchor="middle" x="1255.84" y="-85.5" font-family="Helvetica,sans-Serif" font-size="10.00">/pair_energy.h</text>
</a>
</g>
</g>
<!-- Node1&#45;&gt;Node13 -->
<g id="edge28" class="edge">
<title>Node1&#45;&gt;Node13</title>
<path fill="none" stroke="midnightblue" d="M1607.16,-304.93C1641.43,-267.71 1691.33,-200.29 1652.84,-156 1610.5,-107.27 1421.07,-99.75 1319.95,-99.31"/>
<polygon fill="midnightblue" stroke="midnightblue" points="1604.43,-302.72 1600.12,-312.4 1609.53,-307.52 1604.43,-302.72"/>
</g>
<!-- Node14 -->
<g id="node14" class="node">
<title>Node14</title>
<g id="a_node14"><a xlink:href="occ__cg_8h.html" target="_top" xlink:title=" ">
<polygon fill="none" stroke="black" points="481.84,-0.5 481.84,-41.5 609.84,-41.5 609.84,-0.5 481.84,-0.5"/>
<text text-anchor="start" x="489.84" y="-29.5" font-family="Helvetica,sans-Serif" font-size="10.00">/home/runner/work/occ</text>
<text text-anchor="start" x="489.84" y="-18.5" font-family="Helvetica,sans-Serif" font-size="10.00">/occ/include/occ/main</text>
<text text-anchor="middle" x="545.84" y="-7.5" font-family="Helvetica,sans-Serif" font-size="10.00">/occ_cg.h</text>
</a>
</g>
</g>
<!-- Node1&#45;&gt;Node14 -->
<g id="edge27" class="edge">
<title>Node1&#45;&gt;Node14</title>
<path fill="none" stroke="midnightblue" d="M1505.32,-331.36C1209.15,-328.05 126.54,-308.43 25.84,-198 -107.17,-52.13 315.46,-27.09 481.68,-22.85"/>
<polygon fill="midnightblue" stroke="midnightblue" points="1505.49,-334.86 1515.52,-331.47 1505.56,-327.86 1505.49,-334.86"/>
</g>
<!-- Node19 -->
<g id="node19" class="node">
<title>Node19</title>
<g id="a_node19"><a xlink:href="solvation__partition_8h.html" target="_top" xlink:title=" ">
<polygon fill="none" stroke="black" points="1223.84,-156.5 1223.84,-197.5 1351.84,-197.5 1351.84,-156.5 1223.84,-156.5"/>
<text text-anchor="start" x="1231.84" y="-185.5" font-family="Helvetica,sans-Serif" font-size="10.00">/home/runner/work/occ</text>
<text text-anchor="start" x="1231.84" y="-174.5" font-family="Helvetica,sans-Serif" font-size="10.00">/occ/include/occ/main</text>
<text text-anchor="middle" x="1287.84" y="-163.5" font-family="Helvetica,sans-Serif" font-size="10.00">/solvation_partition.h</text>
</a>
</g>
</g>
<!-- Node1&#45;&gt;Node19 -->
<g id="edge29" class="edge">
<title>Node1&#45;&gt;Node19</title>
<path fill="none" stroke="midnightblue" d="M1533.96,-307.8C1476.24,-277.36 1378.25,-225.68 1324.99,-197.59"/>
<polygon fill="midnightblue" stroke="midnightblue" points="1532.38,-310.93 1542.86,-312.5 1535.65,-304.73 1532.38,-310.93"/>
</g>
<!-- Node20 -->
<g id="node20" class="node">
<title>Node20</title>
<g id="a_node20"><a xlink:href="tblite__wrapper_8h.html" target="_top" xlink:title=" ">
<polygon fill="none" stroke="black" points="1369.84,-156.5 1369.84,-197.5 1497.84,-197.5 1497.84,-156.5 1369.84,-156.5"/>
<text text-anchor="start" x="1377.84" y="-185.5" font-family="Helvetica,sans-Serif" font-size="10.00">/home/runner/work/occ</text>
<text text-anchor="start" x="1377.84" y="-174.5" font-family="Helvetica,sans-Serif" font-size="10.00">/occ/include/occ/xtb</text>
<text text-anchor="middle" x="1433.84" y="-163.5" font-family="Helvetica,sans-Serif" font-size="10.00">/tblite_wrapper.h</text>
</a>
</g>
</g>
<!-- Node1&#45;&gt;Node20 -->
<g id="edge30" class="edge">
<title>Node1&#45;&gt;Node20</title>
<path fill="none" stroke="midnightblue" d="M1554.38,-305.14C1525.34,-274.51 1478.56,-225.17 1452.65,-197.83"/>
<polygon fill="midnightblue" stroke="midnightblue" points="1551.93,-307.65 1561.35,-312.5 1557.01,-302.83 1551.93,-307.65"/>
</g>
<!-- Node21 -->
<g id="node21" class="node">
<title>Node21</title>
<g id="a_node21"><a xlink:href="xtb__wrapper_8h.html" target="_top" xlink:title=" ">
<polygon fill="none" stroke="black" points="1515.84,-156.5 1515.84,-197.5 1643.84,-197.5 1643.84,-156.5 1515.84,-156.5"/>
<text text-anchor="start" x="1523.84" y="-185.5" font-family="Helvetica,sans-Serif" font-size="10.00">/home/runner/work/occ</text>
<text text-anchor="start" x="1523.84" y="-174.5" font-family="Helvetica,sans-Serif" font-size="10.00">/occ/include/occ/xtb</text>
<text text-anchor="middle" x="1579.84" y="-163.5" font-family="Helvetica,sans-Serif" font-size="10.00">/xtb_wrapper.h</text>
</a>
</g>
</g>
<!-- Node1&#45;&gt;Node21 -->
<g id="edge31" class="edge">
<title>Node1&#45;&gt;Node21</title>
<path fill="none" stroke="midnightblue" d="M1579.84,-302.36C1579.84,-271.61 1579.84,-224.36 1579.84,-197.83"/>
<polygon fill="midnightblue" stroke="midnightblue" points="1576.34,-302.5 1579.84,-312.5 1583.34,-302.5 1576.34,-302.5"/>
</g>
<!-- Node22 -->
<g id="node22" class="node">
<title>Node22</title>
<g id="a_node22"><a xlink:href="coulomb_8h.html" target="_top" xlink:title=" ">
<polygon fill="none" stroke="black" points="1672.34,-234.5 1672.34,-275.5 1821.34,-275.5 1821.34,-234.5 1672.34,-234.5"/>
<text text-anchor="start" x="1680.34" y="-263.5" font-family="Helvetica,sans-Serif" font-size="10.00">/home/runner/work/occ</text>
<text text-anchor="start" x="1680.34" y="-252.5" font-family="Helvetica,sans-Serif" font-size="10.00">/occ/include/occ/interaction</text>
<text text-anchor="middle" x="1746.84" y="-241.5" font-family="Helvetica,sans-Serif" font-size="10.00">/coulomb.h</text>
</a>
</g>
</g>
<!-- Node1&#45;&gt;Node22 -->
<g id="edge24" class="edge">
<title>Node1&#45;&gt;Node22</title>
<path fill="none" stroke="midnightblue" d="M1632.17,-308.19C1655.27,-297.67 1682.09,-285.47 1703.98,-275.51"/>
<polygon fill="midnightblue" stroke="midnightblue" points="1630.5,-305.1 1622.85,-312.43 1633.4,-311.47 1630.5,-305.1"/>
</g>
<!-- Node23 -->
<g id="node23" class="node">
<title>Node23</title>
<g id="a_node23"><a xlink:href="pair__potential_8h.html" target="_top" xlink:title=" ">
<polygon fill="none" stroke="black" points="1839.34,-234.5 1839.34,-275.5 1988.34,-275.5 1988.34,-234.5 1839.34,-234.5"/>
<text text-anchor="start" x="1847.34" y="-263.5" font-family="Helvetica,sans-Serif" font-size="10.00">/home/runner/work/occ</text>
<text text-anchor="start" x="1847.34" y="-252.5" font-family="Helvetica,sans-Serif" font-size="10.00">/occ/include/occ/interaction</text>
<text text-anchor="middle" x="1913.84" y="-241.5" font-family="Helvetica,sans-Serif" font-size="10.00">/pair_potential.h</text>
</a>
</g>
</g>
<!-- Node1&#45;&gt;Node23 -->
<g id="edge25" class="edge">
<title>Node1&#45;&gt;Node23</title>
<path fill="none" stroke="midnightblue" d="M1653.64,-315.88C1703.69,-304.86 1771.31,-289.81 1830.84,-276 1833.59,-275.36 1836.38,-274.71 1839.2,-274.05"/>
<polygon fill="midnightblue" stroke="midnightblue" points="1652.89,-312.46 1643.87,-318.03 1654.39,-319.3 1652.89,-312.46"/>
</g>
<!-- Node24 -->
<g id="node24" class="node">
<title>Node24</title>
<g id="a_node24"><a xlink:href="core__json_8h.html" target="_top" xlink:title=" ">
<polygon fill="none" stroke="black" points="2006.84,-234.5 2006.84,-275.5 2136.84,-275.5 2136.84,-234.5 2006.84,-234.5"/>
<text text-anchor="start" x="2014.84" y="-263.5" font-family="Helvetica,sans-Serif" font-size="10.00">/home/runner/work/occ</text>
<text text-anchor="start" x="2014.84" y="-252.5" font-family="Helvetica,sans-Serif" font-size="10.00">/occ/include/occ/io/core</text>
<text text-anchor="middle" x="2071.84" y="-241.5" font-family="Helvetica,sans-Serif" font-size="10.00">_json.h</text>
</a>
</g>
</g>
<!-- Node1&#45;&gt;Node24 -->
<g id="edge26" class="edge">
<title>Node1&#45;&gt;Node24</title>
<path fill="none" stroke="midnightblue" d="M1653.96,-325.03C1737.9,-316.45 1878.52,-300.01 1997.84,-276 2000.71,-275.42 2003.64,-274.8 2006.58,-274.13"/>
<polygon fill="midnightblue" stroke="midnightblue" points="1653.61,-321.55 1644.01,-326.04 1654.31,-328.51 1653.61,-321.55"/>
</g>
<!-- Node3 -->
<g id="node3" class="node">
<title>Node3</title>
<g id="a_node3"><a xlink:href="crystal_2surface_8h.html" target="_top" xlink:title=" ">
<polygon fill="none" stroke="black" points="731.84,-156.5 731.84,-197.5 861.84,-197.5 861.84,-156.5 731.84,-156.5"/>
<text text-anchor="start" x="739.84" y="-185.5" font-family="Helvetica,sans-Serif" font-size="10.00">/home/runner/work/occ</text>
<text text-anchor="start" x="739.84" y="-174.5" font-family="Helvetica,sans-Serif" font-size="10.00">/occ/include/occ/crystal</text>
<text text-anchor="middle" x="796.84" y="-163.5" font-family="Helvetica,sans-Serif" font-size="10.00">/surface.h</text>
</a>
</g>
</g>
<!-- Node2&#45;&gt;Node3 -->
<g id="edge2" class="edge">
<title>Node2&#45;&gt;Node3</title>
<path fill="none" stroke="midnightblue" d="M896.97,-229.77C876.82,-219.35 853.59,-207.34 834.57,-197.51"/>
<polygon fill="midnightblue" stroke="midnightblue" points="895.5,-232.94 905.99,-234.43 898.71,-226.73 895.5,-232.94"/>
</g>
<!-- Node4 -->
<g id="node4" class="node">
<title>Node4</title>
<g id="a_node4"><a xlink:href="cifparser_8h.html" target="_top" xlink:title=" ">
<polygon fill="none" stroke="black" points="126.84,-84 126.84,-114 286.84,-114 286.84,-84 126.84,-84"/>
<text text-anchor="start" x="134.84" y="-102" font-family="Helvetica,sans-Serif" font-size="10.00">/home/runner/work/occ</text>
<text text-anchor="middle" x="206.84" y="-91" font-family="Helvetica,sans-Serif" font-size="10.00">/occ/include/occ/io/cifparser.h</text>
</a>
</g>
</g>
<!-- Node2&#45;&gt;Node4 -->
<g id="edge3" class="edge">
<title>Node2&#45;&gt;Node4</title>
<path fill="none" stroke="midnightblue" d="M868.41,-252.12C655.95,-246.46 66.14,-228.1 37.84,-198 25.06,-184.4 26.92,-171.13 37.84,-156 58.29,-127.68 93.62,-113.45 126.7,-106.39"/>
<polygon fill="midnightblue" stroke="midnightblue" points="868.45,-255.62 878.54,-252.39 868.63,-248.62 868.45,-255.62"/>
</g>
<!-- Node5 -->
<g id="node5" class="node">
<title>Node5</title>
<g id="a_node5"><a xlink:href="crystal__json_8h.html" target="_top" xlink:title=" ">
<polygon fill="none" stroke="black" points="1063.84,-156.5 1063.84,-197.5 1205.84,-197.5 1205.84,-156.5 1063.84,-156.5"/>
<text text-anchor="start" x="1071.84" y="-185.5" font-family="Helvetica,sans-Serif" font-size="10.00">/home/runner/work/occ</text>
<text text-anchor="start" x="1071.84" y="-174.5" font-family="Helvetica,sans-Serif" font-size="10.00">/occ/include/occ/io/crystal</text>
<text text-anchor="middle" x="1134.84" y="-163.5" font-family="Helvetica,sans-Serif" font-size="10.00">_json.h</text>
</a>
</g>
</g>
<!-- Node2&#45;&gt;Node5 -->
<g id="edge4" class="edge">
<title>Node2&#45;&gt;Node5</title>
<path fill="none" stroke="midnightblue" d="M1002.63,-230.61C1029.29,-220 1060.45,-207.6 1085.82,-197.51"/>
<polygon fill="midnightblue" stroke="midnightblue" points="1001.03,-227.48 993.03,-234.43 1003.62,-233.98 1001.03,-227.48"/>
</g>
<!-- Node6 -->
<g id="node6" class="node">
<title>Node6</title>
<g id="a_node6"><a xlink:href="crystalgrower_8h.html" target="_top" xlink:title=" ">
<polygon fill="none" stroke="black" points="46.84,-162 46.84,-192 230.84,-192 230.84,-162 46.84,-162"/>
<text text-anchor="start" x="54.84" y="-180" font-family="Helvetica,sans-Serif" font-size="10.00">/home/runner/work/occ</text>
<text text-anchor="middle" x="138.84" y="-169" font-family="Helvetica,sans-Serif" font-size="10.00">/occ/include/occ/io/crystalgrower.h</text>
</a>
</g>
</g>
<!-- Node2&#45;&gt;Node6 -->
<g id="edge5" class="edge">
<title>Node2&#45;&gt;Node6</title>
<path fill="none" stroke="midnightblue" d="M868.36,-250.88C739.15,-244.88 467.48,-229.48 239.84,-198 228.16,-196.38 215.78,-194.27 203.85,-192.03"/>
<polygon fill="midnightblue" stroke="midnightblue" points="868.39,-254.38 878.54,-251.34 868.71,-247.39 868.39,-254.38"/>
</g>
<!-- Node7 -->
<g id="node7" class="node">
<title>Node7</title>
<g id="a_node7"><a xlink:href="gmf_8h.html" target="_top" xlink:title=" ">
<polygon fill="none" stroke="black" points="249.34,-162 249.34,-192 386.34,-192 386.34,-162 249.34,-162"/>
<text text-anchor="start" x="257.34" y="-180" font-family="Helvetica,sans-Serif" font-size="10.00">/home/runner/work/occ</text>
<text text-anchor="middle" x="317.84" y="-169" font-family="Helvetica,sans-Serif" font-size="10.00">/occ/include/occ/io/gmf.h</text>
</a>
</g>
</g>
<!-- Node2&#45;&gt;Node7 -->
<g id="edge6" class="edge">
<title>Node2&#45;&gt;Node7</title>
<path fill="none" stroke="midnightblue" d="M868.44,-249.96C762.16,-243.43 562.53,-228.15 394.84,-198 385.87,-196.39 376.41,-194.28 367.3,-192.03"/>
<polygon fill="midnightblue" stroke="midnightblue" points="868.55,-253.47 878.74,-250.58 868.97,-246.48 868.55,-253.47"/>
</g>
<!-- Node8 -->
<g id="node8" class="node">
<title>Node8</title>
<g id="a_node8"><a xlink:href="kmcpp_8h.html" target="_top" xlink:title=" ">
<polygon fill="none" stroke="black" points="404.34,-162 404.34,-192 555.34,-192 555.34,-162 404.34,-162"/>
<text text-anchor="start" x="412.34" y="-180" font-family="Helvetica,sans-Serif" font-size="10.00">/home/runner/work/occ</text>
<text text-anchor="middle" x="479.84" y="-169" font-family="Helvetica,sans-Serif" font-size="10.00">/occ/include/occ/io/kmcpp.h</text>
</a>
</g>
</g>
<!-- Node2&#45;&gt;Node8 -->
<g id="edge7" class="edge">
<title>Node2&#45;&gt;Node8</title>
<path fill="none" stroke="midnightblue" d="M868.46,-244.77C791.75,-234.93 669.57,-218.02 564.84,-198 555.61,-196.24 545.87,-194.15 536.4,-192.01"/>
<polygon fill="midnightblue" stroke="midnightblue" points="868.15,-248.26 878.51,-246.05 869.03,-241.31 868.15,-248.26"/>
</g>
<!-- Node9 -->
<g id="node9" class="node">
<title>Node9</title>
<g id="a_node9"><a xlink:href="occ__input_8h.html" target="_top" xlink:title=" ">
<polygon fill="none" stroke="black" points="879.84,-156.5 879.84,-197.5 1007.84,-197.5 1007.84,-156.5 879.84,-156.5"/>
<text text-anchor="start" x="887.84" y="-185.5" font-family="Helvetica,sans-Serif" font-size="10.00">/home/runner/work/occ</text>
<text text-anchor="start" x="887.84" y="-174.5" font-family="Helvetica,sans-Serif" font-size="10.00">/occ/include/occ/io/occ</text>
<text text-anchor="middle" x="943.84" y="-163.5" font-family="Helvetica,sans-Serif" font-size="10.00">_input.h</text>
</a>
</g>
</g>
<!-- Node2&#45;&gt;Node9 -->
<g id="edge8" class="edge">
<title>Node2&#45;&gt;Node9</title>
<path fill="none" stroke="midnightblue" d="M943.84,-224.3C943.84,-215.3 943.84,-205.65 943.84,-197.51"/>
<polygon fill="midnightblue" stroke="midnightblue" points="940.34,-224.43 943.84,-234.43 947.34,-224.43 940.34,-224.43"/>
</g>
<!-- Node2&#45;&gt;Node13 -->
<g id="edge20" class="edge">
<title>Node2&#45;&gt;Node13</title>
<path fill="none" stroke="midnightblue" d="M979.98,-228.32C992.08,-219.2 1005.39,-208.56 1016.84,-198 1035.35,-180.94 1033.43,-169.23 1054.84,-156 1056.38,-155.05 1133.54,-133.68 1191.8,-117.62"/>
<polygon fill="midnightblue" stroke="midnightblue" points="977.77,-225.6 971.83,-234.38 981.94,-231.22 977.77,-225.6"/>
</g>
<!-- Node18 -->
<g id="node18" class="node">
<title>Node18</title>
<g id="a_node18"><a xlink:href="crystal__surface__energy_8h.html" target="_top" xlink:title=" ">
<polygon fill="none" stroke="black" points="573.84,-156.5 573.84,-197.5 713.84,-197.5 713.84,-156.5 573.84,-156.5"/>
<text text-anchor="start" x="581.84" y="-185.5" font-family="Helvetica,sans-Serif" font-size="10.00">/home/runner/work/occ</text>
<text text-anchor="start" x="581.84" y="-174.5" font-family="Helvetica,sans-Serif" font-size="10.00">/occ/include/occ/main</text>
<text text-anchor="middle" x="643.84" y="-163.5" font-family="Helvetica,sans-Serif" font-size="10.00">/crystal_surface_energy.h</text>
</a>
</g>
</g>
<!-- Node2&#45;&gt;Node18 -->
<g id="edge19" class="edge">
<title>Node2&#45;&gt;Node18</title>
<path fill="none" stroke="midnightblue" d="M868.84,-235C821.42,-222.98 760.52,-207.56 714.04,-195.78"/>
<polygon fill="midnightblue" stroke="midnightblue" points="868.2,-238.45 878.75,-237.51 869.91,-231.66 868.2,-238.45"/>
</g>
<!-- Node2&#45;&gt;Node19 -->
<g id="edge21" class="edge">
<title>Node2&#45;&gt;Node19</title>
<path fill="none" stroke="midnightblue" d="M1018.92,-239.82C1073.48,-229.19 1148.99,-213.81 1214.84,-198 1217.78,-197.29 1220.78,-196.55 1223.81,-195.79"/>
<polygon fill="midnightblue" stroke="midnightblue" points="1018.14,-236.4 1008.99,-241.75 1019.47,-243.28 1018.14,-236.4"/>
</g>
<!-- Node2&#45;&gt;Node20 -->
<g id="edge22" class="edge">
<title>Node2&#45;&gt;Node20</title>
<path fill="none" stroke="midnightblue" d="M1019.15,-246.95C1103.05,-238.39 1242.48,-222.05 1360.84,-198 1363.68,-197.42 1366.56,-196.8 1369.47,-196.14"/>
<polygon fill="midnightblue" stroke="midnightblue" points="1018.54,-243.5 1008.94,-247.98 1019.24,-250.46 1018.54,-243.5"/>
</g>
<!-- Node2&#45;&gt;Node21 -->
<g id="edge23" class="edge">
<title>Node2&#45;&gt;Node21</title>
<path fill="none" stroke="midnightblue" d="M1019.13,-250.54C1127.65,-244.65 1333.99,-230.04 1506.84,-198 1509.69,-197.47 1512.58,-196.89 1515.49,-196.26"/>
<polygon fill="midnightblue" stroke="midnightblue" points="1018.74,-247.06 1008.94,-251.09 1019.11,-254.05 1018.74,-247.06"/>
</g>
<!-- Node9&#45;&gt;Node4 -->
<g id="edge9" class="edge">
<title>Node9&#45;&gt;Node4</title>
<path fill="none" stroke="midnightblue" d="M869.49,-155.93C667.94,-121.41 612.97,-137.58 412.84,-120 371.32,-116.35 325.13,-111.9 287.03,-108.13"/>
<polygon fill="midnightblue" stroke="midnightblue" points="869.06,-159.4 879.51,-157.66 870.25,-152.51 869.06,-159.4"/>
</g>
<!-- Node10 -->
<g id="node10" class="node">
<title>Node10</title>
<g id="a_node10"><a xlink:href="qcschema_8h.html" target="_top" xlink:title=" ">
<polygon fill="none" stroke="black" points="860.34,-84 860.34,-114 1027.34,-114 1027.34,-84 860.34,-84"/>
<text text-anchor="start" x="868.34" y="-102" font-family="Helvetica,sans-Serif" font-size="10.00">/home/runner/work/occ</text>
<text text-anchor="middle" x="943.84" y="-91" font-family="Helvetica,sans-Serif" font-size="10.00">/occ/include/occ/io/qcschema.h</text>
</a>
</g>
</g>
<!-- Node9&#45;&gt;Node10 -->
<g id="edge10" class="edge">
<title>Node9&#45;&gt;Node10</title>
<path fill="none" stroke="midnightblue" d="M943.84,-146.28C943.84,-135.25 943.84,-123.25 943.84,-114.23"/>
<polygon fill="midnightblue" stroke="midnightblue" points="940.34,-146.43 943.84,-156.43 947.34,-146.43 940.34,-146.43"/>
</g>
<!-- Node11 -->
<g id="node11" class="node">
<title>Node11</title>
<g id="a_node11"><a xlink:href="occ__pair_8h.html" target="_top" xlink:title=" ">
<polygon fill="none" stroke="black" points="1045.84,-78.5 1045.84,-119.5 1173.84,-119.5 1173.84,-78.5 1045.84,-78.5"/>
<text text-anchor="start" x="1053.84" y="-107.5" font-family="Helvetica,sans-Serif" font-size="10.00">/home/runner/work/occ</text>
<text text-anchor="start" x="1053.84" y="-96.5" font-family="Helvetica,sans-Serif" font-size="10.00">/occ/include/occ/main</text>
<text text-anchor="middle" x="1109.84" y="-85.5" font-family="Helvetica,sans-Serif" font-size="10.00">/occ_pair.h</text>
</a>
</g>
</g>
<!-- Node9&#45;&gt;Node11 -->
<g id="edge11" class="edge">
<title>Node9&#45;&gt;Node11</title>
<path fill="none" stroke="midnightblue" d="M995.85,-152.19C1018.82,-141.67 1045.48,-129.47 1067.24,-119.51"/>
<polygon fill="midnightblue" stroke="midnightblue" points="994.23,-149.08 986.59,-156.43 997.14,-155.45 994.23,-149.08"/>
</g>
<!-- Node12 -->
<g id="node12" class="node">
<title>Node12</title>
<g id="a_node12"><a xlink:href="occ__scf_8h.html" target="_top" xlink:title=" ">
<polygon fill="none" stroke="black" points="421.84,-78.5 421.84,-119.5 549.84,-119.5 549.84,-78.5 421.84,-78.5"/>
<text text-anchor="start" x="429.84" y="-107.5" font-family="Helvetica,sans-Serif" font-size="10.00">/home/runner/work/occ</text>
<text text-anchor="start" x="429.84" y="-96.5" font-family="Helvetica,sans-Serif" font-size="10.00">/occ/include/occ/main</text>
<text text-anchor="middle" x="485.84" y="-85.5" font-family="Helvetica,sans-Serif" font-size="10.00">/occ_scf.h</text>
</a>
</g>
</g>
<!-- Node9&#45;&gt;Node12 -->
<g id="edge12" class="edge">
<title>Node9&#45;&gt;Node12</title>
<path fill="none" stroke="midnightblue" d="M869.41,-155.88C731.97,-130.26 692.68,-145.9 558.84,-120 556.01,-119.45 553.12,-118.85 550.21,-118.21"/>
<polygon fill="midnightblue" stroke="midnightblue" points="869,-159.36 879.48,-157.79 870.31,-152.49 869,-159.36"/>
</g>
<!-- Node9&#45;&gt;Node13 -->
<g id="edge13" class="edge">
<title>Node9&#45;&gt;Node13</title>
<path fill="none" stroke="midnightblue" d="M1018.03,-156.92C1019.31,-156.61 1020.58,-156.3 1021.84,-156 1093.14,-138.89 1111.69,-137.69 1182.84,-120 1185.78,-119.27 1188.77,-118.51 1191.8,-117.73"/>
<polygon fill="midnightblue" stroke="midnightblue" points="1016.96,-153.58 1008.08,-159.36 1018.62,-160.38 1016.96,-153.58"/>
</g>
<!-- Node16 -->
<g id="node16" class="node">
<title>Node16</title>
<g id="a_node16"><a xlink:href="properties_8h.html" target="_top" xlink:title=" ">
<polygon fill="none" stroke="black" points="567.84,-78.5 567.84,-119.5 695.84,-119.5 695.84,-78.5 567.84,-78.5"/>
<text text-anchor="start" x="575.84" y="-107.5" font-family="Helvetica,sans-Serif" font-size="10.00">/home/runner/work/occ</text>
<text text-anchor="start" x="575.84" y="-96.5" font-family="Helvetica,sans-Serif" font-size="10.00">/occ/include/occ/main</text>
<text text-anchor="middle" x="631.84" y="-85.5" font-family="Helvetica,sans-Serif" font-size="10.00">/properties.h</text>
</a>
</g>
</g>
<!-- Node9&#45;&gt;Node16 -->
<g id="edge17" class="edge">
<title>Node9&#45;&gt;Node16</title>
<path fill="none" stroke="midnightblue" d="M869.99,-155.85C795.85,-137.99 775.16,-137.24 704.84,-120 701.91,-119.28 698.91,-118.53 695.89,-117.76"/>
<polygon fill="midnightblue" stroke="midnightblue" points="869.26,-159.28 879.8,-158.24 870.91,-152.48 869.26,-159.28"/>
</g>
<!-- Node17 -->
<g id="node17" class="node">
<title>Node17</title>
<g id="a_node17"><a xlink:href="single__point_8h.html" target="_top" xlink:title=" ">
<polygon fill="none" stroke="black" points="713.84,-78.5 713.84,-119.5 841.84,-119.5 841.84,-78.5 713.84,-78.5"/>
<text text-anchor="start" x="721.84" y="-107.5" font-family="Helvetica,sans-Serif" font-size="10.00">/home/runner/work/occ</text>
<text text-anchor="start" x="721.84" y="-96.5" font-family="Helvetica,sans-Serif" font-size="10.00">/occ/include/occ/main</text>
<text text-anchor="middle" x="777.84" y="-85.5" font-family="Helvetica,sans-Serif" font-size="10.00">/single_point.h</text>
</a>
</g>
</g>
<!-- Node9&#45;&gt;Node17 -->
<g id="edge18" class="edge">
<title>Node9&#45;&gt;Node17</title>
<path fill="none" stroke="midnightblue" d="M891.84,-152.19C868.87,-141.67 842.21,-129.47 820.45,-119.51"/>
<polygon fill="midnightblue" stroke="midnightblue" points="890.55,-155.45 901.1,-156.43 893.46,-149.08 890.55,-155.45"/>
</g>
<!-- Node13&#45;&gt;Node13 -->
<g id="edge16" class="edge">
<title>Node13&#45;&gt;Node13</title>
<path fill="none" stroke="midnightblue" d="M1330,-109.45C1334.88,-107.02 1337.84,-103.54 1337.84,-99 1337.84,-91.92 1330.63,-87.41 1320.13,-85.47"/>
<polygon fill="midnightblue" stroke="midnightblue" points="1328.63,-106.21 1320.13,-112.53 1330.72,-112.89 1328.63,-106.21"/>
</g>
<!-- Node13&#45;&gt;Node14 -->
<g id="edge14" class="edge">
<title>Node13&#45;&gt;Node14</title>
<path fill="none" stroke="midnightblue" d="M1181.35,-77.89C967.72,-40.4 723.76,-27.91 610.09,-23.84"/>
<polygon fill="midnightblue" stroke="midnightblue" points="1181.04,-81.39 1191.5,-79.7 1182.27,-74.5 1181.04,-81.39"/>
</g>
<!-- Node15 -->
<g id="node15" class="node">
<title>Node15</title>
<g id="a_node15"><a xlink:href="occ__elat_8h.html" target="_top" xlink:title=" ">
<polygon fill="none" stroke="black" points="1191.84,-0.5 1191.84,-41.5 1319.84,-41.5 1319.84,-0.5 1191.84,-0.5"/>
<text text-anchor="start" x="1199.84" y="-29.5" font-family="Helvetica,sans-Serif" font-size="10.00">/home/runner/work/occ</text>
<text text-anchor="start" x="1199.84" y="-18.5" font-family="Helvetica,sans-Serif" font-size="10.00">/occ/include/occ/main</text>
<text text-anchor="middle" x="1255.84" y="-7.5" font-family="Helvetica,sans-Serif" font-size="10.00">/occ_elat.h</text>
</a>
</g>
</g>
<!-- Node13&#45;&gt;Node15 -->
<g id="edge15" class="edge">
<title>Node13&#45;&gt;Node15</title>
<path fill="none" stroke="midnightblue" d="M1255.84,-68.3C1255.84,-59.3 1255.84,-49.65 1255.84,-41.51"/>
<polygon fill="midnightblue" stroke="midnightblue" points="1252.34,-68.43 1255.84,-78.43 1259.34,-68.43 1252.34,-68.43"/>
</g>
</g>
</svg>
