<?xml version="1.0" encoding="UTF-8" standalone="no"?>
<!DOCTYPE svg PUBLIC "-//W3C//DTD SVG 1.1//EN"
 "http://www.w3.org/Graphics/SVG/1.1/DTD/svg11.dtd">
<!-- Generated by graphviz version 2.43.0 (0)
 -->
<!-- Title: /home/runner/work/occ/occ/include/occ/core/dimer.h Pages: 1 -->
<svg width="2889pt" height="362pt"
 viewBox="0.00 0.00 2889.00 362.00" xmlns="http://www.w3.org/2000/svg" xmlns:xlink="http://www.w3.org/1999/xlink">
<g id="graph0" class="graph" transform="scale(1 1) rotate(0) translate(4 358)">
<title>/home/runner/work/occ/occ/include/occ/core/dimer.h</title>
<!-- Node1 -->
<g id="node1" class="node">
<title>Node1</title>
<g id="a_node1"><a xlink:title=" ">
<polygon fill="#bfbfbf" stroke="black" points="2306,-312.5 2306,-353.5 2434,-353.5 2434,-312.5 2306,-312.5"/>
<text text-anchor="start" x="2314" y="-341.5" font-family="Helvetica,sans-Serif" font-size="10.00">/home/runner/work/occ</text>
<text text-anchor="start" x="2314" y="-330.5" font-family="Helvetica,sans-Serif" font-size="10.00">/occ/include/occ/core</text>
<text text-anchor="middle" x="2370" y="-319.5" font-family="Helvetica,sans-Serif" font-size="10.00">/dimer.h</text>
</a>
</g>
</g>
<!-- Node2 -->
<g id="node2" class="node">
<title>Node2</title>
<g id="a_node2"><a xlink:href="crystal_8h.html" target="_top" xlink:title=" ">
<polygon fill="none" stroke="black" points="1234,-234.5 1234,-275.5 1364,-275.5 1364,-234.5 1234,-234.5"/>
<text text-anchor="start" x="1242" y="-263.5" font-family="Helvetica,sans-Serif" font-size="10.00">/home/runner/work/occ</text>
<text text-anchor="start" x="1242" y="-252.5" font-family="Helvetica,sans-Serif" font-size="10.00">/occ/include/occ/crystal</text>
<text text-anchor="middle" x="1299" y="-241.5" font-family="Helvetica,sans-Serif" font-size="10.00">/crystal.h</text>
</a>
</g>
</g>
<!-- Node1&#45;&gt;Node2 -->
<g id="edge1" class="edge">
<title>Node1&#45;&gt;Node2</title>
<path fill="none" stroke="midnightblue" d="M2295.74,-326.73C2096.45,-312.59 1552.29,-273.97 1364.08,-260.62"/>
<polygon fill="midnightblue" stroke="midnightblue" points="2295.59,-330.23 2305.81,-327.45 2296.09,-323.25 2295.59,-330.23"/>
</g>
<!-- Node19 -->
<g id="node19" class="node">
<title>Node19</title>
<g id="a_node19"><a xlink:href="pair__energy_8h.html" target="_top" xlink:title=" ">
<polygon fill="none" stroke="black" points="1979,-78.5 1979,-119.5 2107,-119.5 2107,-78.5 1979,-78.5"/>
<text text-anchor="start" x="1987" y="-107.5" font-family="Helvetica,sans-Serif" font-size="10.00">/home/runner/work/occ</text>
<text text-anchor="start" x="1987" y="-96.5" font-family="Helvetica,sans-Serif" font-size="10.00">/occ/include/occ/main</text>
<text text-anchor="middle" x="2043" y="-85.5" font-family="Helvetica,sans-Serif" font-size="10.00">/pair_energy.h</text>
</a>
</g>
</g>
<!-- Node1&#45;&gt;Node19 -->
<g id="edge35" class="edge">
<title>Node1&#45;&gt;Node19</title>
<path fill="none" stroke="midnightblue" d="M2372.77,-302.3C2374.67,-263 2371.51,-194.23 2332,-156 2267.73,-93.8 2221.69,-137.6 2134,-120 2125.28,-118.25 2116.1,-116.33 2107.07,-114.39"/>
<polygon fill="midnightblue" stroke="midnightblue" points="2369.28,-302.13 2372.15,-312.33 2376.26,-302.56 2369.28,-302.13"/>
</g>
<!-- Node20 -->
<g id="node20" class="node">
<title>Node20</title>
<g id="a_node20"><a xlink:href="occ__cg_8h.html" target="_top" xlink:title=" ">
<polygon fill="none" stroke="black" points="2225,-0.5 2225,-41.5 2353,-41.5 2353,-0.5 2225,-0.5"/>
<text text-anchor="start" x="2233" y="-29.5" font-family="Helvetica,sans-Serif" font-size="10.00">/home/runner/work/occ</text>
<text text-anchor="start" x="2233" y="-18.5" font-family="Helvetica,sans-Serif" font-size="10.00">/occ/include/occ/main</text>
<text text-anchor="middle" x="2289" y="-7.5" font-family="Helvetica,sans-Serif" font-size="10.00">/occ_cg.h</text>
</a>
</g>
</g>
<!-- Node1&#45;&gt;Node20 -->
<g id="edge34" class="edge">
<title>Node1&#45;&gt;Node20</title>
<path fill="none" stroke="midnightblue" d="M2373.85,-302.35C2375.81,-282.88 2377.32,-256.88 2375,-234 2371.43,-198.79 2370.86,-189.34 2359,-156 2343.78,-113.22 2317.16,-67.06 2301.5,-41.63"/>
<polygon fill="midnightblue" stroke="midnightblue" points="2370.36,-302.11 2372.74,-312.43 2377.32,-302.88 2370.36,-302.11"/>
</g>
<!-- Node27 -->
<g id="node27" class="node">
<title>Node27</title>
<g id="a_node27"><a xlink:href="tblite__wrapper_8h.html" target="_top" xlink:title=" ">
<polygon fill="none" stroke="black" points="2049,-156.5 2049,-197.5 2177,-197.5 2177,-156.5 2049,-156.5"/>
<text text-anchor="start" x="2057" y="-185.5" font-family="Helvetica,sans-Serif" font-size="10.00">/home/runner/work/occ</text>
<text text-anchor="start" x="2057" y="-174.5" font-family="Helvetica,sans-Serif" font-size="10.00">/occ/include/occ/xtb</text>
<text text-anchor="middle" x="2113" y="-163.5" font-family="Helvetica,sans-Serif" font-size="10.00">/tblite_wrapper.h</text>
</a>
</g>
</g>
<!-- Node1&#45;&gt;Node27 -->
<g id="edge36" class="edge">
<title>Node1&#45;&gt;Node27</title>
<path fill="none" stroke="midnightblue" d="M2328.67,-307.23C2277.75,-276.72 2192.28,-225.5 2145.69,-197.59"/>
<polygon fill="midnightblue" stroke="midnightblue" points="2327.07,-310.36 2337.45,-312.5 2330.67,-304.35 2327.07,-310.36"/>
</g>
<!-- Node28 -->
<g id="node28" class="node">
<title>Node28</title>
<g id="a_node28"><a xlink:href="xtb__wrapper_8h.html" target="_top" xlink:title=" ">
<polygon fill="none" stroke="black" points="2195,-156.5 2195,-197.5 2323,-197.5 2323,-156.5 2195,-156.5"/>
<text text-anchor="start" x="2203" y="-185.5" font-family="Helvetica,sans-Serif" font-size="10.00">/home/runner/work/occ</text>
<text text-anchor="start" x="2203" y="-174.5" font-family="Helvetica,sans-Serif" font-size="10.00">/occ/include/occ/xtb</text>
<text text-anchor="middle" x="2259" y="-163.5" font-family="Helvetica,sans-Serif" font-size="10.00">/xtb_wrapper.h</text>
</a>
</g>
</g>
<!-- Node1&#45;&gt;Node28 -->
<g id="edge37" class="edge">
<title>Node1&#45;&gt;Node28</title>
<path fill="none" stroke="midnightblue" d="M2350.07,-304.36C2327.96,-273.68 2292.83,-224.94 2273.29,-197.83"/>
<polygon fill="midnightblue" stroke="midnightblue" points="2347.26,-306.43 2355.94,-312.5 2352.93,-302.34 2347.26,-306.43"/>
</g>
<!-- Node29 -->
<g id="node29" class="node">
<title>Node29</title>
<g id="a_node29"><a xlink:href="coulomb_8h.html" target="_top" xlink:title=" ">
<polygon fill="none" stroke="black" points="2416.5,-234.5 2416.5,-275.5 2565.5,-275.5 2565.5,-234.5 2416.5,-234.5"/>
<text text-anchor="start" x="2424.5" y="-263.5" font-family="Helvetica,sans-Serif" font-size="10.00">/home/runner/work/occ</text>
<text text-anchor="start" x="2424.5" y="-252.5" font-family="Helvetica,sans-Serif" font-size="10.00">/occ/include/occ/interaction</text>
<text text-anchor="middle" x="2491" y="-241.5" font-family="Helvetica,sans-Serif" font-size="10.00">/coulomb.h</text>
</a>
</g>
</g>
<!-- Node1&#45;&gt;Node29 -->
<g id="edge31" class="edge">
<title>Node1&#45;&gt;Node29</title>
<path fill="none" stroke="midnightblue" d="M2409.93,-306.92C2426.2,-296.7 2444.72,-285.07 2459.95,-275.51"/>
<polygon fill="midnightblue" stroke="midnightblue" points="2407.77,-304.15 2401.16,-312.43 2411.49,-310.07 2407.77,-304.15"/>
</g>
<!-- Node30 -->
<g id="node30" class="node">
<title>Node30</title>
<g id="a_node30"><a xlink:href="pair__potential_8h.html" target="_top" xlink:title=" ">
<polygon fill="none" stroke="black" points="2583.5,-234.5 2583.5,-275.5 2732.5,-275.5 2732.5,-234.5 2583.5,-234.5"/>
<text text-anchor="start" x="2591.5" y="-263.5" font-family="Helvetica,sans-Serif" font-size="10.00">/home/runner/work/occ</text>
<text text-anchor="start" x="2591.5" y="-252.5" font-family="Helvetica,sans-Serif" font-size="10.00">/occ/include/occ/interaction</text>
<text text-anchor="middle" x="2658" y="-241.5" font-family="Helvetica,sans-Serif" font-size="10.00">/pair_potential.h</text>
</a>
</g>
</g>
<!-- Node1&#45;&gt;Node30 -->
<g id="edge32" class="edge">
<title>Node1&#45;&gt;Node30</title>
<path fill="none" stroke="midnightblue" d="M2444.11,-312.44C2487.09,-301.1 2541.04,-286.86 2584.01,-275.53"/>
<polygon fill="midnightblue" stroke="midnightblue" points="2443.05,-309.1 2434.27,-315.04 2444.84,-315.87 2443.05,-309.1"/>
</g>
<!-- Node31 -->
<g id="node31" class="node">
<title>Node31</title>
<g id="a_node31"><a xlink:href="core__json_8h.html" target="_top" xlink:title=" ">
<polygon fill="none" stroke="black" points="2751,-234.5 2751,-275.5 2881,-275.5 2881,-234.5 2751,-234.5"/>
<text text-anchor="start" x="2759" y="-263.5" font-family="Helvetica,sans-Serif" font-size="10.00">/home/runner/work/occ</text>
<text text-anchor="start" x="2759" y="-252.5" font-family="Helvetica,sans-Serif" font-size="10.00">/occ/include/occ/io/core</text>
<text text-anchor="middle" x="2816" y="-241.5" font-family="Helvetica,sans-Serif" font-size="10.00">_json.h</text>
</a>
</g>
</g>
<!-- Node1&#45;&gt;Node31 -->
<g id="edge33" class="edge">
<title>Node1&#45;&gt;Node31</title>
<path fill="none" stroke="midnightblue" d="M2444.59,-323.32C2520.02,-313.95 2639.74,-297.44 2742,-276 2744.87,-275.4 2747.78,-274.75 2750.73,-274.08"/>
<polygon fill="midnightblue" stroke="midnightblue" points="2443.75,-319.9 2434.25,-324.6 2444.6,-326.85 2443.75,-319.9"/>
</g>
<!-- Node3 -->
<g id="node3" class="node">
<title>Node3</title>
<g id="a_node3"><a xlink:href="distance__partition_8h.html" target="_top" xlink:title=" ">
<polygon fill="none" stroke="black" points="0,-156.5 0,-197.5 152,-197.5 152,-156.5 0,-156.5"/>
<text text-anchor="start" x="8" y="-185.5" font-family="Helvetica,sans-Serif" font-size="10.00">/home/runner/work/occ</text>
<text text-anchor="start" x="8" y="-174.5" font-family="Helvetica,sans-Serif" font-size="10.00">/occ/include/occ/cg/distance</text>
<text text-anchor="middle" x="76" y="-163.5" font-family="Helvetica,sans-Serif" font-size="10.00">_partition.h</text>
</a>
</g>
</g>
<!-- Node2&#45;&gt;Node3 -->
<g id="edge2" class="edge">
<title>Node2&#45;&gt;Node3</title>
<path fill="none" stroke="midnightblue" d="M1223.57,-252.08C1003.91,-246.21 367.19,-227.08 161,-198 158.15,-197.6 155.25,-197.14 152.33,-196.65"/>
<polygon fill="midnightblue" stroke="midnightblue" points="1223.62,-255.58 1233.71,-252.35 1223.81,-248.59 1223.62,-255.58"/>
</g>
<!-- Node4 -->
<g id="node4" class="node">
<title>Node4</title>
<g id="a_node4"><a xlink:href="neighbor__atoms_8h.html" target="_top" xlink:title=" ">
<polygon fill="none" stroke="black" points="170,-156.5 170,-197.5 324,-197.5 324,-156.5 170,-156.5"/>
<text text-anchor="start" x="178" y="-185.5" font-family="Helvetica,sans-Serif" font-size="10.00">/home/runner/work/occ</text>
<text text-anchor="start" x="178" y="-174.5" font-family="Helvetica,sans-Serif" font-size="10.00">/occ/include/occ/cg/neighbor</text>
<text text-anchor="middle" x="247" y="-163.5" font-family="Helvetica,sans-Serif" font-size="10.00">_atoms.h</text>
</a>
</g>
</g>
<!-- Node2&#45;&gt;Node4 -->
<g id="edge3" class="edge">
<title>Node2&#45;&gt;Node4</title>
<path fill="none" stroke="midnightblue" d="M1223.48,-253.99C1060.15,-253.01 662.26,-245.48 333,-198 330.12,-197.58 327.19,-197.12 324.24,-196.62"/>
<polygon fill="midnightblue" stroke="midnightblue" points="1223.87,-257.49 1233.89,-254.04 1223.91,-250.49 1223.87,-257.49"/>
</g>
<!-- Node6 -->
<g id="node6" class="node">
<title>Node6</title>
<g id="a_node6"><a xlink:href="crystal_2surface_8h.html" target="_top" xlink:title=" ">
<polygon fill="none" stroke="black" points="342,-156.5 342,-197.5 472,-197.5 472,-156.5 342,-156.5"/>
<text text-anchor="start" x="350" y="-185.5" font-family="Helvetica,sans-Serif" font-size="10.00">/home/runner/work/occ</text>
<text text-anchor="start" x="350" y="-174.5" font-family="Helvetica,sans-Serif" font-size="10.00">/occ/include/occ/crystal</text>
<text text-anchor="middle" x="407" y="-163.5" font-family="Helvetica,sans-Serif" font-size="10.00">/surface.h</text>
</a>
</g>
</g>
<!-- Node2&#45;&gt;Node6 -->
<g id="edge5" class="edge">
<title>Node2&#45;&gt;Node6</title>
<path fill="none" stroke="midnightblue" d="M1223.68,-253.31C1079.55,-250.98 755.12,-240.98 486,-198 481.53,-197.29 476.94,-196.44 472.34,-195.5"/>
<polygon fill="midnightblue" stroke="midnightblue" points="1223.69,-256.81 1233.74,-253.46 1223.79,-249.81 1223.69,-256.81"/>
</g>
<!-- Node7 -->
<g id="node7" class="node">
<title>Node7</title>
<g id="a_node7"><a xlink:href="cifparser_8h.html" target="_top" xlink:title=" ">
<polygon fill="none" stroke="black" points="645,-84 645,-114 805,-114 805,-84 645,-84"/>
<text text-anchor="start" x="653" y="-102" font-family="Helvetica,sans-Serif" font-size="10.00">/home/runner/work/occ</text>
<text text-anchor="middle" x="725" y="-91" font-family="Helvetica,sans-Serif" font-size="10.00">/occ/include/occ/io/cifparser.h</text>
</a>
</g>
</g>
<!-- Node2&#45;&gt;Node7 -->
<g id="edge6" class="edge">
<title>Node2&#45;&gt;Node7</title>
<path fill="none" stroke="midnightblue" d="M1223.44,-254.28C1036.93,-254.19 566.35,-248.87 519,-198 475.22,-150.96 569.68,-124.18 644.74,-110.88"/>
<polygon fill="midnightblue" stroke="midnightblue" points="1223.71,-257.78 1233.71,-254.28 1223.71,-250.78 1223.71,-257.78"/>
</g>
<!-- Node8 -->
<g id="node8" class="node">
<title>Node8</title>
<g id="a_node8"><a xlink:href="crystal__json_8h.html" target="_top" xlink:title=" ">
<polygon fill="none" stroke="black" points="528,-156.5 528,-197.5 670,-197.5 670,-156.5 528,-156.5"/>
<text text-anchor="start" x="536" y="-185.5" font-family="Helvetica,sans-Serif" font-size="10.00">/home/runner/work/occ</text>
<text text-anchor="start" x="536" y="-174.5" font-family="Helvetica,sans-Serif" font-size="10.00">/occ/include/occ/io/crystal</text>
<text text-anchor="middle" x="599" y="-163.5" font-family="Helvetica,sans-Serif" font-size="10.00">_json.h</text>
</a>
</g>
</g>
<!-- Node2&#45;&gt;Node8 -->
<g id="edge7" class="edge">
<title>Node2&#45;&gt;Node8</title>
<path fill="none" stroke="midnightblue" d="M1223.57,-250.96C1106.36,-245.38 873.73,-230.93 679,-198 676.18,-197.52 673.31,-197 670.41,-196.44"/>
<polygon fill="midnightblue" stroke="midnightblue" points="1223.71,-254.47 1233.86,-251.44 1224.04,-247.47 1223.71,-254.47"/>
</g>
<!-- Node9 -->
<g id="node9" class="node">
<title>Node9</title>
<g id="a_node9"><a xlink:href="crystalgrower_8h.html" target="_top" xlink:title=" ">
<polygon fill="none" stroke="black" points="688,-162 688,-192 872,-192 872,-162 688,-162"/>
<text text-anchor="start" x="696" y="-180" font-family="Helvetica,sans-Serif" font-size="10.00">/home/runner/work/occ</text>
<text text-anchor="middle" x="780" y="-169" font-family="Helvetica,sans-Serif" font-size="10.00">/occ/include/occ/io/crystalgrower.h</text>
</a>
</g>
</g>
<!-- Node2&#45;&gt;Node9 -->
<g id="edge8" class="edge">
<title>Node2&#45;&gt;Node9</title>
<path fill="none" stroke="midnightblue" d="M1223.7,-245.35C1139.85,-235.37 1000.38,-217.8 881,-198 870.24,-196.22 858.88,-194.15 847.81,-192.03"/>
<polygon fill="midnightblue" stroke="midnightblue" points="1223.31,-248.82 1233.65,-246.52 1224.13,-241.87 1223.31,-248.82"/>
</g>
<!-- Node10 -->
<g id="node10" class="node">
<title>Node10</title>
<g id="a_node10"><a xlink:href="dftb__gen_8h.html" target="_top" xlink:title=" ">
<polygon fill="none" stroke="black" points="890,-162 890,-192 1050,-192 1050,-162 890,-162"/>
<text text-anchor="start" x="898" y="-180" font-family="Helvetica,sans-Serif" font-size="10.00">/home/runner/work/occ</text>
<text text-anchor="middle" x="970" y="-169" font-family="Helvetica,sans-Serif" font-size="10.00">/occ/include/occ/io/dftb_gen.h</text>
</a>
</g>
</g>
<!-- Node2&#45;&gt;Node10 -->
<g id="edge9" class="edge">
<title>Node2&#45;&gt;Node10</title>
<path fill="none" stroke="midnightblue" d="M1223.69,-236.6C1165.24,-223.1 1085.25,-204.62 1030.83,-192.05"/>
<polygon fill="midnightblue" stroke="midnightblue" points="1223.08,-240.05 1233.61,-238.89 1224.65,-233.23 1223.08,-240.05"/>
</g>
<!-- Node11 -->
<g id="node11" class="node">
<title>Node11</title>
<g id="a_node11"><a xlink:href="gmf_8h.html" target="_top" xlink:title=" ">
<polygon fill="none" stroke="black" points="1068.5,-162 1068.5,-192 1205.5,-192 1205.5,-162 1068.5,-162"/>
<text text-anchor="start" x="1076.5" y="-180" font-family="Helvetica,sans-Serif" font-size="10.00">/home/runner/work/occ</text>
<text text-anchor="middle" x="1137" y="-169" font-family="Helvetica,sans-Serif" font-size="10.00">/occ/include/occ/io/gmf.h</text>
</a>
</g>
</g>
<!-- Node2&#45;&gt;Node11 -->
<g id="edge10" class="edge">
<title>Node2&#45;&gt;Node11</title>
<path fill="none" stroke="midnightblue" d="M1248.1,-230.12C1221.46,-217.63 1189.77,-202.76 1167.07,-192.11"/>
<polygon fill="midnightblue" stroke="midnightblue" points="1246.74,-233.35 1257.28,-234.43 1249.71,-227.01 1246.74,-233.35"/>
</g>
<!-- Node12 -->
<g id="node12" class="node">
<title>Node12</title>
<g id="a_node12"><a xlink:href="kmcpp_8h.html" target="_top" xlink:title=" ">
<polygon fill="none" stroke="black" points="1223.5,-162 1223.5,-192 1374.5,-192 1374.5,-162 1223.5,-162"/>
<text text-anchor="start" x="1231.5" y="-180" font-family="Helvetica,sans-Serif" font-size="10.00">/home/runner/work/occ</text>
<text text-anchor="middle" x="1299" y="-169" font-family="Helvetica,sans-Serif" font-size="10.00">/occ/include/occ/io/kmcpp.h</text>
</a>
</g>
</g>
<!-- Node2&#45;&gt;Node12 -->
<g id="edge11" class="edge">
<title>Node2&#45;&gt;Node12</title>
<path fill="none" stroke="midnightblue" d="M1299,-224.28C1299,-213.25 1299,-201.25 1299,-192.23"/>
<polygon fill="midnightblue" stroke="midnightblue" points="1295.5,-224.43 1299,-234.43 1302.5,-224.43 1295.5,-224.43"/>
</g>
<!-- Node13 -->
<g id="node13" class="node">
<title>Node13</title>
<g id="a_node13"><a xlink:href="load__geometry_8h.html" target="_top" xlink:title=" ">
<polygon fill="none" stroke="black" points="1393,-156.5 1393,-197.5 1523,-197.5 1523,-156.5 1393,-156.5"/>
<text text-anchor="start" x="1401" y="-185.5" font-family="Helvetica,sans-Serif" font-size="10.00">/home/runner/work/occ</text>
<text text-anchor="start" x="1401" y="-174.5" font-family="Helvetica,sans-Serif" font-size="10.00">/occ/include/occ/io/load</text>
<text text-anchor="middle" x="1458" y="-163.5" font-family="Helvetica,sans-Serif" font-size="10.00">_geometry.h</text>
</a>
</g>
</g>
<!-- Node2&#45;&gt;Node13 -->
<g id="edge12" class="edge">
<title>Node2&#45;&gt;Node13</title>
<path fill="none" stroke="midnightblue" d="M1349.11,-230.05C1371.04,-219.57 1396.44,-207.42 1417.19,-197.51"/>
<polygon fill="midnightblue" stroke="midnightblue" points="1347.46,-226.96 1339.95,-234.43 1350.48,-233.27 1347.46,-226.96"/>
</g>
<!-- Node14 -->
<g id="node14" class="node">
<title>Node14</title>
<g id="a_node14"><a xlink:href="occ__input_8h.html" target="_top" xlink:title=" ">
<polygon fill="none" stroke="black" points="1541,-156.5 1541,-197.5 1669,-197.5 1669,-156.5 1541,-156.5"/>
<text text-anchor="start" x="1549" y="-185.5" font-family="Helvetica,sans-Serif" font-size="10.00">/home/runner/work/occ</text>
<text text-anchor="start" x="1549" y="-174.5" font-family="Helvetica,sans-Serif" font-size="10.00">/occ/include/occ/io/occ</text>
<text text-anchor="middle" x="1605" y="-163.5" font-family="Helvetica,sans-Serif" font-size="10.00">_input.h</text>
</a>
</g>
</g>
<!-- Node2&#45;&gt;Node14 -->
<g id="edge13" class="edge">
<title>Node2&#45;&gt;Node14</title>
<path fill="none" stroke="midnightblue" d="M1374.25,-236.55C1419.96,-225.79 1479.45,-211.51 1532,-198 1534.93,-197.25 1537.92,-196.47 1540.94,-195.67"/>
<polygon fill="midnightblue" stroke="midnightblue" points="1373.35,-233.16 1364.42,-238.86 1374.95,-239.98 1373.35,-233.16"/>
</g>
<!-- Node2&#45;&gt;Node19 -->
<g id="edge28" class="edge">
<title>Node2&#45;&gt;Node19</title>
<path fill="none" stroke="midnightblue" d="M1374.39,-248.89C1469.51,-241.42 1626.85,-225.35 1678,-198 1700.2,-186.13 1693.77,-167.8 1716,-156 1816.7,-102.53 1858.35,-143.11 1970,-120 1972.83,-119.41 1975.71,-118.78 1978.62,-118.11"/>
<polygon fill="midnightblue" stroke="midnightblue" points="1373.95,-245.42 1364.25,-249.68 1374.49,-252.4 1373.95,-245.42"/>
</g>
<!-- Node24 -->
<g id="node24" class="node">
<title>Node24</title>
<g id="a_node24"><a xlink:href="void_8h.html" target="_top" xlink:title=" ">
<polygon fill="none" stroke="black" points="1725.5,-156.5 1725.5,-197.5 1872.5,-197.5 1872.5,-156.5 1725.5,-156.5"/>
<text text-anchor="start" x="1733.5" y="-185.5" font-family="Helvetica,sans-Serif" font-size="10.00">/home/runner/work/occ</text>
<text text-anchor="start" x="1733.5" y="-174.5" font-family="Helvetica,sans-Serif" font-size="10.00">/occ/include/occ/isosurface</text>
<text text-anchor="middle" x="1799" y="-163.5" font-family="Helvetica,sans-Serif" font-size="10.00">/void.h</text>
</a>
</g>
</g>
<!-- Node2&#45;&gt;Node24 -->
<g id="edge25" class="edge">
<title>Node2&#45;&gt;Node24</title>
<path fill="none" stroke="midnightblue" d="M1374.29,-245.79C1457.14,-236.29 1594.06,-219.19 1711,-198 1715.62,-197.16 1720.37,-196.25 1725.16,-195.28"/>
<polygon fill="midnightblue" stroke="midnightblue" points="1373.75,-242.33 1364.22,-246.94 1374.55,-249.28 1373.75,-242.33"/>
</g>
<!-- Node26 -->
<g id="node26" class="node">
<title>Node26</title>
<g id="a_node26"><a xlink:href="crystal__surface__energy_8h.html" target="_top" xlink:title=" ">
<polygon fill="none" stroke="black" points="1891,-156.5 1891,-197.5 2031,-197.5 2031,-156.5 1891,-156.5"/>
<text text-anchor="start" x="1899" y="-185.5" font-family="Helvetica,sans-Serif" font-size="10.00">/home/runner/work/occ</text>
<text text-anchor="start" x="1899" y="-174.5" font-family="Helvetica,sans-Serif" font-size="10.00">/occ/include/occ/main</text>
<text text-anchor="middle" x="1961" y="-163.5" font-family="Helvetica,sans-Serif" font-size="10.00">/crystal_surface_energy.h</text>
</a>
</g>
</g>
<!-- Node2&#45;&gt;Node26 -->
<g id="edge27" class="edge">
<title>Node2&#45;&gt;Node26</title>
<path fill="none" stroke="midnightblue" d="M1374.13,-250.36C1485.47,-244.15 1700.56,-229.06 1881,-198 1884.25,-197.44 1887.55,-196.82 1890.89,-196.16"/>
<polygon fill="midnightblue" stroke="midnightblue" points="1373.8,-246.87 1364.01,-250.91 1374.19,-253.86 1373.8,-246.87"/>
</g>
<!-- Node2&#45;&gt;Node27 -->
<g id="edge29" class="edge">
<title>Node2&#45;&gt;Node27</title>
<path fill="none" stroke="midnightblue" d="M1374.39,-253.07C1509,-250.34 1799.18,-239.69 2040,-198 2042.85,-197.51 2045.75,-196.95 2048.66,-196.35"/>
<polygon fill="midnightblue" stroke="midnightblue" points="1374.12,-249.57 1364.19,-253.26 1374.25,-256.57 1374.12,-249.57"/>
</g>
<!-- Node2&#45;&gt;Node28 -->
<g id="edge30" class="edge">
<title>Node2&#45;&gt;Node28</title>
<path fill="none" stroke="midnightblue" d="M1374.33,-254.41C1528.04,-254.11 1888.44,-247.62 2186,-198 2188.85,-197.52 2191.75,-196.98 2194.67,-196.39"/>
<polygon fill="midnightblue" stroke="midnightblue" points="1374.06,-250.91 1364.07,-254.42 1374.07,-257.91 1374.06,-250.91"/>
</g>
<!-- Node5 -->
<g id="node5" class="node">
<title>Node5</title>
<g id="a_node5"><a xlink:href="solvation__types_8h.html" target="_top" xlink:title=" ">
<polygon fill="none" stroke="black" points="169,-78.5 169,-119.5 325,-119.5 325,-78.5 169,-78.5"/>
<text text-anchor="start" x="177" y="-107.5" font-family="Helvetica,sans-Serif" font-size="10.00">/home/runner/work/occ</text>
<text text-anchor="start" x="177" y="-96.5" font-family="Helvetica,sans-Serif" font-size="10.00">/occ/include/occ/cg/solvation</text>
<text text-anchor="middle" x="247" y="-85.5" font-family="Helvetica,sans-Serif" font-size="10.00">_types.h</text>
</a>
</g>
</g>
<!-- Node4&#45;&gt;Node5 -->
<g id="edge4" class="edge">
<title>Node4&#45;&gt;Node5</title>
<path fill="none" stroke="midnightblue" d="M247,-146.3C247,-137.3 247,-127.65 247,-119.51"/>
<polygon fill="midnightblue" stroke="midnightblue" points="243.5,-146.43 247,-156.43 250.5,-146.43 243.5,-146.43"/>
</g>
<!-- Node14&#45;&gt;Node7 -->
<g id="edge14" class="edge">
<title>Node14&#45;&gt;Node7</title>
<path fill="none" stroke="midnightblue" d="M1530.57,-156.28C1447.14,-146.76 992.18,-117.16 805.18,-105.13"/>
<polygon fill="midnightblue" stroke="midnightblue" points="1530.29,-159.78 1540.67,-157.63 1531.22,-152.84 1530.29,-159.78"/>
</g>
<!-- Node15 -->
<g id="node15" class="node">
<title>Node15</title>
<g id="a_node15"><a xlink:href="qcschema_8h.html" target="_top" xlink:title=" ">
<polygon fill="none" stroke="black" points="1048.5,-84 1048.5,-114 1215.5,-114 1215.5,-84 1048.5,-84"/>
<text text-anchor="start" x="1056.5" y="-102" font-family="Helvetica,sans-Serif" font-size="10.00">/home/runner/work/occ</text>
<text text-anchor="middle" x="1132" y="-91" font-family="Helvetica,sans-Serif" font-size="10.00">/occ/include/occ/io/qcschema.h</text>
</a>
</g>
</g>
<!-- Node14&#45;&gt;Node15 -->
<g id="edge15" class="edge">
<title>Node14&#45;&gt;Node15</title>
<path fill="none" stroke="midnightblue" d="M1530.69,-155.89C1394.93,-130.3 1356.76,-142.13 1224,-120 1213.84,-118.31 1203.11,-116.24 1192.71,-114.07"/>
<polygon fill="midnightblue" stroke="midnightblue" points="1530.16,-159.35 1540.64,-157.8 1531.48,-152.48 1530.16,-159.35"/>
</g>
<!-- Node16 -->
<g id="node16" class="node">
<title>Node16</title>
<g id="a_node16"><a xlink:href="geometry__optimization_8h.html" target="_top" xlink:title=" ">
<polygon fill="none" stroke="black" points="1233.5,-78.5 1233.5,-119.5 1376.5,-119.5 1376.5,-78.5 1233.5,-78.5"/>
<text text-anchor="start" x="1241.5" y="-107.5" font-family="Helvetica,sans-Serif" font-size="10.00">/home/runner/work/occ</text>
<text text-anchor="start" x="1241.5" y="-96.5" font-family="Helvetica,sans-Serif" font-size="10.00">/occ/include/occ/main</text>
<text text-anchor="middle" x="1305" y="-85.5" font-family="Helvetica,sans-Serif" font-size="10.00">/geometry_optimization.h</text>
</a>
</g>
</g>
<!-- Node14&#45;&gt;Node16 -->
<g id="edge16" class="edge">
<title>Node14&#45;&gt;Node16</title>
<path fill="none" stroke="midnightblue" d="M1530.95,-155.75C1465.67,-138.84 1447.84,-135.26 1386,-120 1382.91,-119.24 1379.75,-118.46 1376.55,-117.67"/>
<polygon fill="midnightblue" stroke="midnightblue" points="1530.37,-159.22 1540.93,-158.35 1532.13,-152.44 1530.37,-159.22"/>
</g>
<!-- Node17 -->
<g id="node17" class="node">
<title>Node17</title>
<g id="a_node17"><a xlink:href="occ__pair_8h.html" target="_top" xlink:title=" ">
<polygon fill="none" stroke="black" points="1395,-78.5 1395,-119.5 1523,-119.5 1523,-78.5 1395,-78.5"/>
<text text-anchor="start" x="1403" y="-107.5" font-family="Helvetica,sans-Serif" font-size="10.00">/home/runner/work/occ</text>
<text text-anchor="start" x="1403" y="-96.5" font-family="Helvetica,sans-Serif" font-size="10.00">/occ/include/occ/main</text>
<text text-anchor="middle" x="1459" y="-85.5" font-family="Helvetica,sans-Serif" font-size="10.00">/occ_pair.h</text>
</a>
</g>
</g>
<!-- Node14&#45;&gt;Node17 -->
<g id="edge17" class="edge">
<title>Node14&#45;&gt;Node17</title>
<path fill="none" stroke="midnightblue" d="M1558.45,-151.77C1538.44,-141.35 1515.36,-129.34 1496.47,-119.51"/>
<polygon fill="midnightblue" stroke="midnightblue" points="1556.92,-154.92 1567.4,-156.43 1560.15,-148.71 1556.92,-154.92"/>
</g>
<!-- Node18 -->
<g id="node18" class="node">
<title>Node18</title>
<g id="a_node18"><a xlink:href="occ__scf_8h.html" target="_top" xlink:title=" ">
<polygon fill="none" stroke="black" points="1541,-78.5 1541,-119.5 1669,-119.5 1669,-78.5 1541,-78.5"/>
<text text-anchor="start" x="1549" y="-107.5" font-family="Helvetica,sans-Serif" font-size="10.00">/home/runner/work/occ</text>
<text text-anchor="start" x="1549" y="-96.5" font-family="Helvetica,sans-Serif" font-size="10.00">/occ/include/occ/main</text>
<text text-anchor="middle" x="1605" y="-85.5" font-family="Helvetica,sans-Serif" font-size="10.00">/occ_scf.h</text>
</a>
</g>
</g>
<!-- Node14&#45;&gt;Node18 -->
<g id="edge18" class="edge">
<title>Node14&#45;&gt;Node18</title>
<path fill="none" stroke="midnightblue" d="M1605,-146.3C1605,-137.3 1605,-127.65 1605,-119.51"/>
<polygon fill="midnightblue" stroke="midnightblue" points="1601.5,-146.43 1605,-156.43 1608.5,-146.43 1601.5,-146.43"/>
</g>
<!-- Node14&#45;&gt;Node19 -->
<g id="edge19" class="edge">
<title>Node14&#45;&gt;Node19</title>
<path fill="none" stroke="midnightblue" d="M1679.15,-156.75C1680.44,-156.49 1681.73,-156.24 1683,-156 1809.29,-131.99 1843.91,-145.05 1970,-120 1972.84,-119.44 1975.72,-118.82 1978.63,-118.17"/>
<polygon fill="midnightblue" stroke="midnightblue" points="1678.19,-153.38 1669.13,-158.87 1679.64,-160.23 1678.19,-153.38"/>
</g>
<!-- Node22 -->
<g id="node22" class="node">
<title>Node22</title>
<g id="a_node22"><a xlink:href="properties_8h.html" target="_top" xlink:title=" ">
<polygon fill="none" stroke="black" points="1687,-78.5 1687,-119.5 1815,-119.5 1815,-78.5 1687,-78.5"/>
<text text-anchor="start" x="1695" y="-107.5" font-family="Helvetica,sans-Serif" font-size="10.00">/home/runner/work/occ</text>
<text text-anchor="start" x="1695" y="-96.5" font-family="Helvetica,sans-Serif" font-size="10.00">/occ/include/occ/main</text>
<text text-anchor="middle" x="1751" y="-85.5" font-family="Helvetica,sans-Serif" font-size="10.00">/properties.h</text>
</a>
</g>
</g>
<!-- Node14&#45;&gt;Node22 -->
<g id="edge23" class="edge">
<title>Node14&#45;&gt;Node22</title>
<path fill="none" stroke="midnightblue" d="M1651.55,-151.77C1671.56,-141.35 1694.64,-129.34 1713.53,-119.51"/>
<polygon fill="midnightblue" stroke="midnightblue" points="1649.85,-148.71 1642.6,-156.43 1653.08,-154.92 1649.85,-148.71"/>
</g>
<!-- Node23 -->
<g id="node23" class="node">
<title>Node23</title>
<g id="a_node23"><a xlink:href="single__point_8h.html" target="_top" xlink:title=" ">
<polygon fill="none" stroke="black" points="1833,-78.5 1833,-119.5 1961,-119.5 1961,-78.5 1833,-78.5"/>
<text text-anchor="start" x="1841" y="-107.5" font-family="Helvetica,sans-Serif" font-size="10.00">/home/runner/work/occ</text>
<text text-anchor="start" x="1841" y="-96.5" font-family="Helvetica,sans-Serif" font-size="10.00">/occ/include/occ/main</text>
<text text-anchor="middle" x="1897" y="-85.5" font-family="Helvetica,sans-Serif" font-size="10.00">/single_point.h</text>
</a>
</g>
</g>
<!-- Node14&#45;&gt;Node23 -->
<g id="edge24" class="edge">
<title>Node14&#45;&gt;Node23</title>
<path fill="none" stroke="midnightblue" d="M1679.2,-156.97C1680.47,-156.65 1681.74,-156.32 1683,-156 1745.66,-139.97 1761.48,-136.55 1824,-120 1826.92,-119.23 1829.91,-118.43 1832.92,-117.62"/>
<polygon fill="midnightblue" stroke="midnightblue" points="1678.09,-153.64 1669.27,-159.51 1679.83,-160.42 1678.09,-153.64"/>
</g>
<!-- Node19&#45;&gt;Node19 -->
<g id="edge22" class="edge">
<title>Node19&#45;&gt;Node19</title>
<path fill="none" stroke="midnightblue" d="M2117.15,-109.45C2122.04,-107.02 2125,-103.54 2125,-99 2125,-91.92 2117.79,-87.41 2107.29,-85.47"/>
<polygon fill="midnightblue" stroke="midnightblue" points="2115.79,-106.21 2107.29,-112.53 2117.88,-112.89 2115.79,-106.21"/>
</g>
<!-- Node19&#45;&gt;Node20 -->
<g id="edge20" class="edge">
<title>Node19&#45;&gt;Node20</title>
<path fill="none" stroke="midnightblue" d="M2116.02,-75.44C2150.93,-64.66 2192.32,-51.87 2225.86,-41.51"/>
<polygon fill="midnightblue" stroke="midnightblue" points="2114.87,-72.13 2106.35,-78.43 2116.94,-78.82 2114.87,-72.13"/>
</g>
<!-- Node21 -->
<g id="node21" class="node">
<title>Node21</title>
<g id="a_node21"><a xlink:href="occ__elat_8h.html" target="_top" xlink:title=" ">
<polygon fill="none" stroke="black" points="1979,-0.5 1979,-41.5 2107,-41.5 2107,-0.5 1979,-0.5"/>
<text text-anchor="start" x="1987" y="-29.5" font-family="Helvetica,sans-Serif" font-size="10.00">/home/runner/work/occ</text>
<text text-anchor="start" x="1987" y="-18.5" font-family="Helvetica,sans-Serif" font-size="10.00">/occ/include/occ/main</text>
<text text-anchor="middle" x="2043" y="-7.5" font-family="Helvetica,sans-Serif" font-size="10.00">/occ_elat.h</text>
</a>
</g>
</g>
<!-- Node19&#45;&gt;Node21 -->
<g id="edge21" class="edge">
<title>Node19&#45;&gt;Node21</title>
<path fill="none" stroke="midnightblue" d="M2043,-68.3C2043,-59.3 2043,-49.65 2043,-41.51"/>
<polygon fill="midnightblue" stroke="midnightblue" points="2039.5,-68.43 2043,-78.43 2046.5,-68.43 2039.5,-68.43"/>
</g>
<!-- Node25 -->
<g id="node25" class="node">
<title>Node25</title>
<g id="a_node25"><a xlink:href="isosurface_8h.html" target="_top" xlink:title=" ">
<polygon fill="none" stroke="black" points="2143.5,-78.5 2143.5,-119.5 2290.5,-119.5 2290.5,-78.5 2143.5,-78.5"/>
<text text-anchor="start" x="2151.5" y="-107.5" font-family="Helvetica,sans-Serif" font-size="10.00">/home/runner/work/occ</text>
<text text-anchor="start" x="2151.5" y="-96.5" font-family="Helvetica,sans-Serif" font-size="10.00">/occ/include/occ/isosurface</text>
<text text-anchor="middle" x="2217" y="-85.5" font-family="Helvetica,sans-Serif" font-size="10.00">/isosurface.h</text>
</a>
</g>
</g>
<!-- Node24&#45;&gt;Node25 -->
<g id="edge26" class="edge">
<title>Node24&#45;&gt;Node25</title>
<path fill="none" stroke="midnightblue" d="M1882.71,-155.97C1994.87,-135.07 2026.03,-140.67 2134,-120 2137.06,-119.41 2140.17,-118.79 2143.31,-118.14"/>
<polygon fill="midnightblue" stroke="midnightblue" points="1881.86,-152.56 1872.69,-157.86 1883.16,-159.44 1881.86,-152.56"/>
</g>
</g>
</svg>
