<?xml version="1.0" encoding="UTF-8" standalone="no"?>
<!DOCTYPE svg PUBLIC "-//W3C//DTD SVG 1.1//EN"
 "http://www.w3.org/Graphics/SVG/1.1/DTD/svg11.dtd">
<!-- Generated by graphviz version 2.43.0 (0)
 -->
<!-- Title: /home/runner/work/occ/occ/include/occ/crystal/dimer_mapping_table.h Pages: 1 -->
<svg width="1101pt" height="269pt"
 viewBox="0.00 0.00 1100.56 269.00" xmlns="http://www.w3.org/2000/svg" xmlns:xlink="http://www.w3.org/1999/xlink">
<g id="graph0" class="graph" transform="scale(1 1) rotate(0) translate(4 265)">
<title>/home/runner/work/occ/occ/include/occ/crystal/dimer_mapping_table.h</title>
<!-- Node1 -->
<g id="Node000001" class="node">
<title>Node1</title>
<g id="a_Node000001"><a xlink:title=" ">
<polygon fill="#999999" stroke="#666666" points="564.06,-261 429.06,-261 429.06,-220 564.06,-220 564.06,-261"/>
<text text-anchor="start" x="437.06" y="-249" font-family="Helvetica,sans-Serif" font-size="10.00">/home/runner/work/occ</text>
<text text-anchor="start" x="437.06" y="-238" font-family="Helvetica,sans-Serif" font-size="10.00">/occ/include/occ/crystal</text>
<text text-anchor="middle" x="496.56" y="-227" font-family="Helvetica,sans-Serif" font-size="10.00">/dimer_mapping_table.h</text>
</a>
</g>
</g>
<!-- Node2 -->
<g id="Node000002" class="node">
<title>Node2</title>
<g id="a_Node000002"><a xlink:title=" ">
<polygon fill="#e0e0e0" stroke="#999999" points="133.06,-19 66.06,-19 66.06,0 133.06,0 133.06,-19"/>
<text text-anchor="middle" x="99.56" y="-7" font-family="Helvetica,sans-Serif" font-size="10.00">fmt/core.h</text>
</a>
</g>
</g>
<!-- Node1&#45;&gt;Node2 -->
<g id="edge1_Node000001_Node000002" class="edge">
<title>Node1&#45;&gt;Node2</title>
<g id="a_edge1_Node000001_Node000002"><a xlink:title=" ">
<path fill="none" stroke="#63b8ff" d="M428.8,-235.58C305.04,-226.71 51.01,-200.07 6.56,-129 -18.71,-88.6 39.11,-45.67 74.54,-24.29"/>
<polygon fill="#63b8ff" stroke="#63b8ff" points="76.56,-27.16 83.42,-19.09 73.02,-21.12 76.56,-27.16"/>
</a>
</g>
</g>
<!-- Node3 -->
<g id="Node000003" class="node">
<title>Node3</title>
<g id="a_Node000003"><a xlink:href="graph_8h.html" target="_top" xlink:title=" ">
<polygon fill="white" stroke="#666666" points="225.06,-184 128.06,-184 128.06,-165 225.06,-165 225.06,-184"/>
<text text-anchor="middle" x="176.56" y="-172" font-family="Helvetica,sans-Serif" font-size="10.00">occ/core/graph.h</text>
</a>
</g>
</g>
<!-- Node1&#45;&gt;Node3 -->
<g id="edge2_Node000001_Node000003" class="edge">
<title>Node1&#45;&gt;Node3</title>
<g id="a_edge2_Node000001_Node000003"><a xlink:title=" ">
<path fill="none" stroke="#63b8ff" d="M428.69,-225.93C369.11,-214.01 283.66,-196.92 229.14,-186.02"/>
<polygon fill="#63b8ff" stroke="#63b8ff" points="229.82,-182.58 219.33,-184.05 228.45,-189.45 229.82,-182.58"/>
</a>
</g>
</g>
<!-- Node8 -->
<g id="Node000008" class="node">
<title>Node8</title>
<g id="a_Node000008"><a xlink:href="site__index_8h.html" target="_top" xlink:title=" ">
<polygon fill="white" stroke="#666666" points="491.06,-184 360.06,-184 360.06,-165 491.06,-165 491.06,-184"/>
<text text-anchor="middle" x="425.56" y="-172" font-family="Helvetica,sans-Serif" font-size="10.00">occ/crystal/site_index.h</text>
</a>
</g>
</g>
<!-- Node1&#45;&gt;Node8 -->
<g id="edge7_Node000001_Node000008" class="edge">
<title>Node1&#45;&gt;Node8</title>
<g id="a_edge7_Node000001_Node000008"><a xlink:title=" ">
<path fill="none" stroke="#63b8ff" d="M474.87,-219.95C464.54,-210.65 452.38,-199.68 442.71,-190.96"/>
<polygon fill="#63b8ff" stroke="#63b8ff" points="445.05,-188.36 435.27,-184.26 440.36,-193.56 445.05,-188.36"/>
</a>
</g>
</g>
<!-- Node13 -->
<g id="Node000013" class="node">
<title>Node13</title>
<g id="a_Node000013"><a xlink:href="unitcell_8h.html" target="_top" xlink:title=" ">
<polygon fill="white" stroke="#666666" points="628.06,-184 511.06,-184 511.06,-165 628.06,-165 628.06,-184"/>
<text text-anchor="middle" x="569.56" y="-172" font-family="Helvetica,sans-Serif" font-size="10.00">occ/crystal/unitcell.h</text>
</a>
</g>
</g>
<!-- Node1&#45;&gt;Node13 -->
<g id="edge15_Node000001_Node000013" class="edge">
<title>Node1&#45;&gt;Node13</title>
<g id="a_edge15_Node000001_Node000013"><a xlink:title=" ">
<path fill="none" stroke="#63b8ff" d="M518.85,-219.95C529.47,-210.65 541.98,-199.68 551.92,-190.96"/>
<polygon fill="#63b8ff" stroke="#63b8ff" points="554.35,-193.48 559.56,-184.26 549.74,-188.22 554.35,-193.48"/>
</a>
</g>
</g>
<!-- Node25 -->
<g id="Node000025" class="node">
<title>Node25</title>
<g id="a_Node000025"><a xlink:title=" ">
<polygon fill="#e0e0e0" stroke="#999999" points="893.06,-74 846.06,-74 846.06,-55 893.06,-55 893.06,-74"/>
<text text-anchor="middle" x="869.56" y="-62" font-family="Helvetica,sans-Serif" font-size="10.00">vector</text>
</a>
</g>
</g>
<!-- Node1&#45;&gt;Node25 -->
<g id="edge34_Node000001_Node000025" class="edge">
<title>Node1&#45;&gt;Node25</title>
<g id="a_edge34_Node000001_Node000025"><a xlink:title=" ">
<path fill="none" stroke="#63b8ff" d="M549.96,-219.88C576.54,-209.77 609.02,-196.87 637.56,-184 714.82,-149.16 803.29,-101.83 845.15,-78.96"/>
<polygon fill="#63b8ff" stroke="#63b8ff" points="846.97,-81.96 854.06,-74.08 843.61,-75.82 846.97,-81.96"/>
</a>
</g>
</g>
<!-- Node26 -->
<g id="Node000026" class="node">
<title>Node26</title>
<g id="a_Node000026"><a xlink:title=" ">
<polygon fill="#e0e0e0" stroke="#999999" points="755.06,-184 710.06,-184 710.06,-165 755.06,-165 755.06,-184"/>
<text text-anchor="middle" x="732.56" y="-172" font-family="Helvetica,sans-Serif" font-size="10.00">utility</text>
</a>
</g>
</g>
<!-- Node1&#45;&gt;Node26 -->
<g id="edge33_Node000001_Node000026" class="edge">
<title>Node1&#45;&gt;Node26</title>
<g id="a_edge33_Node000001_Node000026"><a xlink:title=" ">
<path fill="none" stroke="#63b8ff" d="M564.18,-221.16C608.81,-209.06 665.28,-193.75 700.15,-184.29"/>
<polygon fill="#63b8ff" stroke="#63b8ff" points="701.08,-187.66 709.81,-181.67 699.25,-180.91 701.08,-187.66"/>
</a>
</g>
</g>
<!-- Node4 -->
<g id="Node000004" class="node">
<title>Node4</title>
<g id="a_Node000004"><a xlink:title=" ">
<polygon fill="#e0e0e0" stroke="#999999" points="359.06,-129 216.06,-129 216.06,-110 359.06,-110 359.06,-129"/>
<text text-anchor="middle" x="287.56" y="-117" font-family="Helvetica,sans-Serif" font-size="10.00">ankerl/unordered_dense.h</text>
</a>
</g>
</g>
<!-- Node3&#45;&gt;Node4 -->
<g id="edge3_Node000003_Node000004" class="edge">
<title>Node3&#45;&gt;Node4</title>
<g id="a_edge3_Node000003_Node000004"><a xlink:title=" ">
<path fill="none" stroke="#63b8ff" d="M194.39,-164.98C212.17,-156.5 239.7,-143.35 260.23,-133.54"/>
<polygon fill="#63b8ff" stroke="#63b8ff" points="261.88,-136.64 269.4,-129.17 258.86,-130.32 261.88,-136.64"/>
</a>
</g>
</g>
<!-- Node5 -->
<g id="Node000005" class="node">
<title>Node5</title>
<g id="a_Node000005"><a xlink:title=" ">
<polygon fill="#e0e0e0" stroke="#999999" points="71.56,-129 15.56,-129 15.56,-110 71.56,-110 71.56,-129"/>
<text text-anchor="middle" x="43.56" y="-117" font-family="Helvetica,sans-Serif" font-size="10.00">optional</text>
</a>
</g>
</g>
<!-- Node3&#45;&gt;Node5 -->
<g id="edge4_Node000003_Node000005" class="edge">
<title>Node3&#45;&gt;Node5</title>
<g id="a_edge4_Node000003_Node000005"><a xlink:title=" ">
<path fill="none" stroke="#63b8ff" d="M155.19,-164.98C133.41,-156.3 99.39,-142.75 74.63,-132.88"/>
<polygon fill="#63b8ff" stroke="#63b8ff" points="75.9,-129.62 65.31,-129.17 73.31,-136.12 75.9,-129.62"/>
</a>
</g>
</g>
<!-- Node6 -->
<g id="Node000006" class="node">
<title>Node6</title>
<g id="a_Node000006"><a xlink:title=" ">
<polygon fill="#e0e0e0" stroke="#999999" points="137.06,-129 90.06,-129 90.06,-110 137.06,-110 137.06,-129"/>
<text text-anchor="middle" x="113.56" y="-117" font-family="Helvetica,sans-Serif" font-size="10.00">queue</text>
</a>
</g>
</g>
<!-- Node3&#45;&gt;Node6 -->
<g id="edge5_Node000003_Node000006" class="edge">
<title>Node3&#45;&gt;Node6</title>
<g id="a_edge5_Node000003_Node000006"><a xlink:title=" ">
<path fill="none" stroke="#63b8ff" d="M166.43,-164.98C157.12,-157.15 143.09,-145.34 131.82,-135.86"/>
<polygon fill="#63b8ff" stroke="#63b8ff" points="133.77,-132.93 123.86,-129.17 129.26,-138.29 133.77,-132.93"/>
</a>
</g>
</g>
<!-- Node7 -->
<g id="Node000007" class="node">
<title>Node7</title>
<g id="a_Node000007"><a xlink:title=" ">
<polygon fill="#e0e0e0" stroke="#999999" points="198.06,-129 155.06,-129 155.06,-110 198.06,-110 198.06,-129"/>
<text text-anchor="middle" x="176.56" y="-117" font-family="Helvetica,sans-Serif" font-size="10.00">stack</text>
</a>
</g>
</g>
<!-- Node3&#45;&gt;Node7 -->
<g id="edge6_Node000003_Node000007" class="edge">
<title>Node3&#45;&gt;Node7</title>
<g id="a_edge6_Node000003_Node000007"><a xlink:title=" ">
<path fill="none" stroke="#63b8ff" d="M176.56,-164.75C176.56,-157.8 176.56,-147.85 176.56,-139.13"/>
<polygon fill="#63b8ff" stroke="#63b8ff" points="180.06,-139.09 176.56,-129.09 173.06,-139.09 180.06,-139.09"/>
</a>
</g>
</g>
<!-- Node8&#45;&gt;Node4 -->
<g id="edge8_Node000008_Node000004" class="edge">
<title>Node8&#45;&gt;Node4</title>
<g id="a_edge8_Node000008_Node000004"><a xlink:title=" ">
<path fill="none" stroke="#63b8ff" d="M403.38,-164.98C380.78,-156.3 345.49,-142.75 319.8,-132.88"/>
<polygon fill="#63b8ff" stroke="#63b8ff" points="320.72,-129.49 310.13,-129.17 318.21,-136.02 320.72,-129.49"/>
</a>
</g>
</g>
<!-- Node9 -->
<g id="Node000009" class="node">
<title>Node9</title>
<g id="a_Node000009"><a xlink:href="hkl_8h.html" target="_top" xlink:title=" ">
<polygon fill="white" stroke="#666666" points="473.56,-129 377.56,-129 377.56,-110 473.56,-110 473.56,-129"/>
<text text-anchor="middle" x="425.56" y="-117" font-family="Helvetica,sans-Serif" font-size="10.00">occ/crystal/hkl.h</text>
</a>
</g>
</g>
<!-- Node8&#45;&gt;Node9 -->
<g id="edge9_Node000008_Node000009" class="edge">
<title>Node8&#45;&gt;Node9</title>
<g id="a_edge9_Node000008_Node000009"><a xlink:title=" ">
<path fill="none" stroke="#63b8ff" d="M425.56,-164.75C425.56,-157.8 425.56,-147.85 425.56,-139.13"/>
<polygon fill="#63b8ff" stroke="#63b8ff" points="429.06,-139.09 425.56,-129.09 422.06,-139.09 429.06,-139.09"/>
</a>
</g>
</g>
<!-- Node9&#45;&gt;Node2 -->
<g id="edge10_Node000009_Node000002" class="edge">
<title>Node9&#45;&gt;Node2</title>
<g id="a_edge10_Node000009_Node000002"><a xlink:title=" ">
<path fill="none" stroke="#63b8ff" d="M377.36,-111.29C374.38,-110.86 371.43,-110.42 368.56,-110 313.02,-101.86 161.06,-110.65 118.56,-74 105.76,-62.97 101.39,-43.72 99.99,-29.29"/>
<polygon fill="#63b8ff" stroke="#63b8ff" points="103.47,-28.79 99.4,-19.01 96.48,-29.2 103.47,-28.79"/>
</a>
</g>
</g>
<!-- Node10 -->
<g id="Node000010" class="node">
<title>Node10</title>
<g id="a_Node000010"><a xlink:href="linear__algebra_8h.html" target="_top" xlink:title=" ">
<polygon fill="white" stroke="#666666" points="267.06,-74 128.06,-74 128.06,-55 267.06,-55 267.06,-74"/>
<text text-anchor="middle" x="197.56" y="-62" font-family="Helvetica,sans-Serif" font-size="10.00">occ/core/linear_algebra.h</text>
</a>
</g>
</g>
<!-- Node9&#45;&gt;Node10 -->
<g id="edge11_Node000009_Node000010" class="edge">
<title>Node9&#45;&gt;Node10</title>
<g id="a_edge11_Node000009_Node000010"><a xlink:title=" ">
<path fill="none" stroke="#63b8ff" d="M388.92,-109.98C349.65,-100.86 287.18,-86.33 244.37,-76.38"/>
<polygon fill="#63b8ff" stroke="#63b8ff" points="245.01,-72.94 234.47,-74.08 243.42,-79.76 245.01,-72.94"/>
</a>
</g>
</g>
<!-- Node10&#45;&gt;Node2 -->
<g id="edge14_Node000010_Node000002" class="edge">
<title>Node10&#45;&gt;Node2</title>
<g id="a_edge14_Node000010_Node000002"><a xlink:title=" ">
<path fill="none" stroke="#63b8ff" d="M181.81,-54.98C166.33,-46.61 142.46,-33.7 124.42,-23.95"/>
<polygon fill="#63b8ff" stroke="#63b8ff" points="126.05,-20.85 115.59,-19.17 122.72,-27.01 126.05,-20.85"/>
</a>
</g>
</g>
<!-- Node11 -->
<g id="Node000011" class="node">
<title>Node11</title>
<g id="a_Node000011"><a xlink:title=" ">
<polygon fill="#e0e0e0" stroke="#999999" points="339.06,-19 262.06,-19 262.06,0 339.06,0 339.06,-19"/>
<text text-anchor="middle" x="300.56" y="-7" font-family="Helvetica,sans-Serif" font-size="10.00">Eigen/Dense</text>
</a>
</g>
</g>
<!-- Node10&#45;&gt;Node11 -->
<g id="edge12_Node000010_Node000011" class="edge">
<title>Node10&#45;&gt;Node11</title>
<g id="a_edge12_Node000010_Node000011"><a xlink:title=" ">
<path fill="none" stroke="#63b8ff" d="M214.1,-54.98C230.45,-46.57 255.69,-33.59 274.68,-23.81"/>
<polygon fill="#63b8ff" stroke="#63b8ff" points="276.41,-26.86 283.71,-19.17 273.21,-20.63 276.41,-26.86"/>
</a>
</g>
</g>
<!-- Node12 -->
<g id="Node000012" class="node">
<title>Node12</title>
<g id="a_Node000012"><a xlink:title=" ">
<polygon fill="#e0e0e0" stroke="#999999" points="244.06,-19 151.06,-19 151.06,0 244.06,0 244.06,-19"/>
<text text-anchor="middle" x="197.56" y="-7" font-family="Helvetica,sans-Serif" font-size="10.00">Eigen/StdVector</text>
</a>
</g>
</g>
<!-- Node10&#45;&gt;Node12 -->
<g id="edge13_Node000010_Node000012" class="edge">
<title>Node10&#45;&gt;Node12</title>
<g id="a_edge13_Node000010_Node000012"><a xlink:title=" ">
<path fill="none" stroke="#63b8ff" d="M197.56,-54.75C197.56,-47.8 197.56,-37.85 197.56,-29.13"/>
<polygon fill="#63b8ff" stroke="#63b8ff" points="201.06,-29.09 197.56,-19.09 194.06,-29.09 201.06,-29.09"/>
</a>
</g>
</g>
<!-- Node13&#45;&gt;Node9 -->
<g id="edge31_Node000013_Node000009" class="edge">
<title>Node13&#45;&gt;Node9</title>
<g id="a_edge31_Node000013_Node000009"><a xlink:title=" ">
<path fill="none" stroke="#63b8ff" d="M546.42,-164.98C522.73,-156.27 485.69,-142.63 458.85,-132.75"/>
<polygon fill="#63b8ff" stroke="#63b8ff" points="459.71,-129.34 449.11,-129.17 457.29,-135.91 459.71,-129.34"/>
</a>
</g>
</g>
<!-- Node13&#45;&gt;Node10 -->
<g id="edge16_Node000013_Node000010" class="edge">
<title>Node13&#45;&gt;Node10</title>
<g id="a_edge16_Node000013_Node000010"><a xlink:title=" ">
<path fill="none" stroke="#63b8ff" d="M560.81,-164.84C546.05,-150.8 514.69,-123.31 482.56,-110 446.45,-95.04 348.44,-81.78 277.42,-73.71"/>
<polygon fill="#63b8ff" stroke="#63b8ff" points="277.48,-70.2 267.15,-72.56 276.7,-77.15 277.48,-70.2"/>
</a>
</g>
</g>
<!-- Node14 -->
<g id="Node000014" class="node">
<title>Node14</title>
<g id="a_Node000014"><a xlink:href="units_8h.html" target="_top" xlink:title=" ">
<polygon fill="white" stroke="#666666" points="981.06,-129 888.06,-129 888.06,-110 981.06,-110 981.06,-129"/>
<text text-anchor="middle" x="934.56" y="-117" font-family="Helvetica,sans-Serif" font-size="10.00">occ/core/units.h</text>
</a>
</g>
</g>
<!-- Node13&#45;&gt;Node14 -->
<g id="edge17_Node000013_Node000014" class="edge">
<title>Node13&#45;&gt;Node14</title>
<g id="a_edge17_Node000013_Node000014"><a xlink:title=" ">
<path fill="none" stroke="#63b8ff" d="M628.2,-164.98C696.92,-155.01 809.99,-138.59 877.86,-128.73"/>
<polygon fill="#63b8ff" stroke="#63b8ff" points="878.54,-132.17 887.94,-127.27 877.54,-125.24 878.54,-132.17"/>
</a>
</g>
</g>
<!-- Node17 -->
<g id="Node000017" class="node">
<title>Node17</title>
<g id="a_Node000017"><a xlink:href="util_8h.html" target="_top" xlink:title=" ">
<polygon fill="white" stroke="#666666" points="615.06,-129 530.06,-129 530.06,-110 615.06,-110 615.06,-129"/>
<text text-anchor="middle" x="572.56" y="-117" font-family="Helvetica,sans-Serif" font-size="10.00">occ/core/util.h</text>
</a>
</g>
</g>
<!-- Node13&#45;&gt;Node17 -->
<g id="edge20_Node000013_Node000017" class="edge">
<title>Node13&#45;&gt;Node17</title>
<g id="a_edge20_Node000013_Node000017"><a xlink:title=" ">
<path fill="none" stroke="#63b8ff" d="M570.05,-164.75C570.44,-157.8 571.01,-147.85 571.5,-139.13"/>
<polygon fill="#63b8ff" stroke="#63b8ff" points="575,-139.27 572.07,-129.09 568.01,-138.88 575,-139.27"/>
</a>
</g>
</g>
<!-- Node24 -->
<g id="Node000024" class="node">
<title>Node24</title>
<g id="a_Node000024"><a xlink:title=" ">
<polygon fill="#e0e0e0" stroke="#999999" points="827.56,-74 783.56,-74 783.56,-55 827.56,-55 827.56,-74"/>
<text text-anchor="middle" x="805.56" y="-62" font-family="Helvetica,sans-Serif" font-size="10.00">string</text>
</a>
</g>
</g>
<!-- Node13&#45;&gt;Node24 -->
<g id="edge32_Node000013_Node000024" class="edge">
<title>Node13&#45;&gt;Node24</title>
<g id="a_edge32_Node000013_Node000024"><a xlink:title=" ">
<path fill="none" stroke="#63b8ff" d="M580.74,-164.84C598.36,-151.53 634.04,-125.92 667.56,-110 686.49,-101.01 739.2,-84.88 773.72,-74.71"/>
<polygon fill="#63b8ff" stroke="#63b8ff" points="774.75,-78.05 783.37,-71.88 772.79,-71.33 774.75,-78.05"/>
</a>
</g>
</g>
<!-- Node15 -->
<g id="Node000015" class="node">
<title>Node15</title>
<g id="a_Node000015"><a xlink:title=" ">
<polygon fill="#e0e0e0" stroke="#999999" points="958.06,-74 911.06,-74 911.06,-55 958.06,-55 958.06,-74"/>
<text text-anchor="middle" x="934.56" y="-62" font-family="Helvetica,sans-Serif" font-size="10.00">cmath</text>
</a>
</g>
</g>
<!-- Node14&#45;&gt;Node15 -->
<g id="edge18_Node000014_Node000015" class="edge">
<title>Node14&#45;&gt;Node15</title>
<g id="a_edge18_Node000014_Node000015"><a xlink:title=" ">
<path fill="none" stroke="#63b8ff" d="M934.56,-109.75C934.56,-102.8 934.56,-92.85 934.56,-84.13"/>
<polygon fill="#63b8ff" stroke="#63b8ff" points="938.06,-84.09 934.56,-74.09 931.06,-84.09 938.06,-84.09"/>
</a>
</g>
</g>
<!-- Node16 -->
<g id="Node000016" class="node">
<title>Node16</title>
<g id="a_Node000016"><a xlink:href="constants_8h.html" target="_top" xlink:title=" ">
<polygon fill="white" stroke="#666666" points="1092.56,-74 976.56,-74 976.56,-55 1092.56,-55 1092.56,-74"/>
<text text-anchor="middle" x="1034.56" y="-62" font-family="Helvetica,sans-Serif" font-size="10.00">occ/core/constants.h</text>
</a>
</g>
</g>
<!-- Node14&#45;&gt;Node16 -->
<g id="edge19_Node000014_Node000016" class="edge">
<title>Node14&#45;&gt;Node16</title>
<g id="a_edge19_Node000014_Node000016"><a xlink:title=" ">
<path fill="none" stroke="#63b8ff" d="M950.62,-109.98C966.42,-101.61 990.77,-88.7 1009.19,-78.95"/>
<polygon fill="#63b8ff" stroke="#63b8ff" points="1011,-81.95 1018.2,-74.17 1007.72,-75.76 1011,-81.95"/>
</a>
</g>
</g>
<!-- Node17&#45;&gt;Node2 -->
<g id="edge24_Node000017_Node000002" class="edge">
<title>Node17&#45;&gt;Node2</title>
<g id="a_edge24_Node000017_Node000002"><a xlink:title=" ">
<path fill="none" stroke="#63b8ff" d="M530.01,-111.86C462.08,-101.15 334.66,-80.6 314.56,-74 296.61,-68.11 294.26,-61.56 276.56,-55 252.37,-46.03 187.35,-30.47 143.22,-20.33"/>
<polygon fill="#63b8ff" stroke="#63b8ff" points="143.85,-16.88 133.32,-18.07 142.29,-23.71 143.85,-16.88"/>
</a>
</g>
</g>
<!-- Node17&#45;&gt;Node10 -->
<g id="edge28_Node000017_Node000010" class="edge">
<title>Node17&#45;&gt;Node10</title>
<g id="a_edge28_Node000017_Node000010"><a xlink:title=" ">
<path fill="none" stroke="#63b8ff" d="M529.92,-112.1C525.08,-111.38 520.21,-110.67 515.56,-110 431.24,-97.81 334.26,-84.32 269.79,-75.42"/>
<polygon fill="#63b8ff" stroke="#63b8ff" points="270.12,-71.93 259.73,-74.03 269.16,-78.87 270.12,-71.93"/>
</a>
</g>
</g>
<!-- Node18 -->
<g id="Node000018" class="node">
<title>Node18</title>
<g id="a_Node000018"><a xlink:title=" ">
<polygon fill="#e0e0e0" stroke="#999999" points="461.56,-74 397.56,-74 397.56,-55 461.56,-55 461.56,-74"/>
<text text-anchor="middle" x="429.56" y="-62" font-family="Helvetica,sans-Serif" font-size="10.00">algorithm</text>
</a>
</g>
</g>
<!-- Node17&#45;&gt;Node18 -->
<g id="edge21_Node000017_Node000018" class="edge">
<title>Node17&#45;&gt;Node18</title>
<g id="a_edge21_Node000017_Node000018"><a xlink:title=" ">
<path fill="none" stroke="#63b8ff" d="M549.58,-109.98C526.06,-101.27 489.27,-87.63 462.62,-77.75"/>
<polygon fill="#63b8ff" stroke="#63b8ff" points="463.54,-74.36 452.95,-74.17 461.11,-80.93 463.54,-74.36"/>
</a>
</g>
</g>
<!-- Node19 -->
<g id="Node000019" class="node">
<title>Node19</title>
<g id="a_Node000019"><a xlink:title=" ">
<polygon fill="#e0e0e0" stroke="#999999" points="529.06,-74 480.06,-74 480.06,-55 529.06,-55 529.06,-74"/>
<text text-anchor="middle" x="504.56" y="-62" font-family="Helvetica,sans-Serif" font-size="10.00">cctype</text>
</a>
</g>
</g>
<!-- Node17&#45;&gt;Node19 -->
<g id="edge22_Node000017_Node000019" class="edge">
<title>Node17&#45;&gt;Node19</title>
<g id="a_edge22_Node000017_Node000019"><a xlink:title=" ">
<path fill="none" stroke="#63b8ff" d="M561.63,-109.98C551.48,-102.07 536.13,-90.11 523.91,-80.58"/>
<polygon fill="#63b8ff" stroke="#63b8ff" points="525.72,-77.56 515.68,-74.17 521.42,-83.08 525.72,-77.56"/>
</a>
</g>
</g>
<!-- Node20 -->
<g id="Node000020" class="node">
<title>Node20</title>
<g id="a_Node000020"><a xlink:title=" ">
<polygon fill="#e0e0e0" stroke="#999999" points="597.56,-74 547.56,-74 547.56,-55 597.56,-55 597.56,-74"/>
<text text-anchor="middle" x="572.56" y="-62" font-family="Helvetica,sans-Serif" font-size="10.00">chrono</text>
</a>
</g>
</g>
<!-- Node17&#45;&gt;Node20 -->
<g id="edge23_Node000017_Node000020" class="edge">
<title>Node17&#45;&gt;Node20</title>
<g id="a_edge23_Node000017_Node000020"><a xlink:title=" ">
<path fill="none" stroke="#63b8ff" d="M572.56,-109.75C572.56,-102.8 572.56,-92.85 572.56,-84.13"/>
<polygon fill="#63b8ff" stroke="#63b8ff" points="576.06,-84.09 572.56,-74.09 569.06,-84.09 576.06,-84.09"/>
</a>
</g>
</g>
<!-- Node21 -->
<g id="Node000021" class="node">
<title>Node21</title>
<g id="a_Node000021"><a xlink:title=" ">
<polygon fill="#e0e0e0" stroke="#999999" points="701.56,-74 615.56,-74 615.56,-55 701.56,-55 701.56,-74"/>
<text text-anchor="middle" x="658.56" y="-62" font-family="Helvetica,sans-Serif" font-size="10.00">fmt/ostream.h</text>
</a>
</g>
</g>
<!-- Node17&#45;&gt;Node21 -->
<g id="edge25_Node000017_Node000021" class="edge">
<title>Node17&#45;&gt;Node21</title>
<g id="a_edge25_Node000017_Node000021"><a xlink:title=" ">
<path fill="none" stroke="#63b8ff" d="M586.37,-109.98C599.71,-101.77 620.14,-89.18 635.86,-79.49"/>
<polygon fill="#63b8ff" stroke="#63b8ff" points="637.81,-82.4 644.49,-74.17 634.14,-76.44 637.81,-82.4"/>
</a>
</g>
</g>
<!-- Node22 -->
<g id="Node000022" class="node">
<title>Node22</title>
<g id="a_Node000022"><a xlink:title=" ">
<polygon fill="#e0e0e0" stroke="#999999" points="765.56,-74 719.56,-74 719.56,-55 765.56,-55 765.56,-74"/>
<text text-anchor="middle" x="742.56" y="-62" font-family="Helvetica,sans-Serif" font-size="10.00">locale</text>
</a>
</g>
</g>
<!-- Node17&#45;&gt;Node22 -->
<g id="edge26_Node000017_Node000022" class="edge">
<title>Node17&#45;&gt;Node22</title>
<g id="a_edge26_Node000017_Node000022"><a xlink:title=" ">
<path fill="none" stroke="#63b8ff" d="M599.87,-109.98C629.76,-100.66 677.69,-85.72 709.64,-75.76"/>
<polygon fill="#63b8ff" stroke="#63b8ff" points="710.9,-79.04 719.41,-72.72 708.82,-72.35 710.9,-79.04"/>
</a>
</g>
</g>
<!-- Node23 -->
<g id="Node000023" class="node">
<title>Node23</title>
<g id="a_Node000023"><a xlink:title=" ">
<polygon fill="#e0e0e0" stroke="#999999" points="379.56,-74 323.56,-74 323.56,-55 379.56,-55 379.56,-74"/>
<text text-anchor="middle" x="351.56" y="-62" font-family="Helvetica,sans-Serif" font-size="10.00">numeric</text>
</a>
</g>
</g>
<!-- Node17&#45;&gt;Node23 -->
<g id="edge27_Node000017_Node000023" class="edge">
<title>Node17&#45;&gt;Node23</title>
<g id="a_edge27_Node000017_Node000023"><a xlink:title=" ">
<path fill="none" stroke="#63b8ff" d="M537.05,-109.98C496.67,-100.3 430.99,-84.55 389.59,-74.62"/>
<polygon fill="#63b8ff" stroke="#63b8ff" points="390.15,-71.16 379.61,-72.23 388.52,-77.96 390.15,-71.16"/>
</a>
</g>
</g>
<!-- Node17&#45;&gt;Node24 -->
<g id="edge29_Node000017_Node000024" class="edge">
<title>Node17&#45;&gt;Node24</title>
<g id="a_edge29_Node000017_Node000024"><a xlink:title=" ">
<path fill="none" stroke="#63b8ff" d="M614.09,-109.99C652.95,-101.89 712.83,-89.04 773.5,-74.17"/>
<polygon fill="#63b8ff" stroke="#63b8ff" points="774.37,-77.56 783.24,-71.76 772.69,-70.76 774.37,-77.56"/>
</a>
</g>
</g>
<!-- Node17&#45;&gt;Node25 -->
<g id="edge30_Node000017_Node000025" class="edge">
<title>Node17&#45;&gt;Node25</title>
<g id="a_edge30_Node000017_Node000025"><a xlink:title=" ">
<path fill="none" stroke="#63b8ff" d="M615.29,-112.44C665.68,-105.04 752.14,-91.56 835.89,-73.98"/>
<polygon fill="#63b8ff" stroke="#63b8ff" points="836.76,-77.37 845.82,-71.87 835.31,-70.52 836.76,-77.37"/>
</a>
</g>
</g>
</g>
</svg>
