<?xml version="1.0" encoding="UTF-8" standalone="no"?>
<!DOCTYPE svg PUBLIC "-//W3C//DTD SVG 1.1//EN"
 "http://www.w3.org/Graphics/SVG/1.1/DTD/svg11.dtd">
<!-- Generated by graphviz version 2.43.0 (0)
 -->
<!-- Title: /home/runner/work/occ/occ/include/occ/core/dimer.h Pages: 1 -->
<svg width="1875pt" height="284pt"
 viewBox="0.00 0.00 1875.25 284.00" xmlns="http://www.w3.org/2000/svg" xmlns:xlink="http://www.w3.org/1999/xlink">
<g id="graph0" class="graph" transform="scale(1 1) rotate(0) translate(4 280)">
<title>/home/runner/work/occ/occ/include/occ/core/dimer.h</title>
<!-- Node1 -->
<g id="node1" class="node">
<title>Node1</title>
<g id="a_node1"><a xlink:title=" ">
<polygon fill="#bfbfbf" stroke="black" points="1292.25,-234.5 1292.25,-275.5 1420.25,-275.5 1420.25,-234.5 1292.25,-234.5"/>
<text text-anchor="start" x="1300.25" y="-263.5" font-family="Helvetica,sans-Serif" font-size="10.00">/home/runner/work/occ</text>
<text text-anchor="start" x="1300.25" y="-252.5" font-family="Helvetica,sans-Serif" font-size="10.00">/occ/include/occ/core</text>
<text text-anchor="middle" x="1356.25" y="-241.5" font-family="Helvetica,sans-Serif" font-size="10.00">/dimer.h</text>
</a>
</g>
</g>
<!-- Node2 -->
<g id="node2" class="node">
<title>Node2</title>
<g id="a_node2"><a xlink:href="crystal_8h.html" target="_top" xlink:title=" ">
<polygon fill="none" stroke="black" points="841.25,-156.5 841.25,-197.5 971.25,-197.5 971.25,-156.5 841.25,-156.5"/>
<text text-anchor="start" x="849.25" y="-185.5" font-family="Helvetica,sans-Serif" font-size="10.00">/home/runner/work/occ</text>
<text text-anchor="start" x="849.25" y="-174.5" font-family="Helvetica,sans-Serif" font-size="10.00">/occ/include/occ/crystal</text>
<text text-anchor="middle" x="906.25" y="-163.5" font-family="Helvetica,sans-Serif" font-size="10.00">/crystal.h</text>
</a>
</g>
</g>
<!-- Node1&#45;&gt;Node2 -->
<g id="edge1" class="edge">
<title>Node1&#45;&gt;Node2</title>
<path fill="none" stroke="midnightblue" d="M1281.76,-241.42C1195.18,-226.8 1053.68,-202.9 971.34,-188.99"/>
<polygon fill="midnightblue" stroke="midnightblue" points="1281.33,-244.9 1291.78,-243.11 1282.5,-237.99 1281.33,-244.9"/>
</g>
<!-- Node11 -->
<g id="node11" class="node">
<title>Node11</title>
<g id="a_node11"><a xlink:href="pair__energy_8h.html" target="_top" xlink:title=" ">
<polygon fill="none" stroke="black" points="146.25,-0.5 146.25,-41.5 274.25,-41.5 274.25,-0.5 146.25,-0.5"/>
<text text-anchor="start" x="154.25" y="-29.5" font-family="Helvetica,sans-Serif" font-size="10.00">/home/runner/work/occ</text>
<text text-anchor="start" x="154.25" y="-18.5" font-family="Helvetica,sans-Serif" font-size="10.00">/occ/include/occ/main</text>
<text text-anchor="middle" x="210.25" y="-7.5" font-family="Helvetica,sans-Serif" font-size="10.00">/pair_energy.h</text>
</a>
</g>
</g>
<!-- Node1&#45;&gt;Node11 -->
<g id="edge23" class="edge">
<title>Node1&#45;&gt;Node11</title>
<path fill="none" stroke="midnightblue" d="M1282.08,-252.29C1012.67,-245.34 97.11,-214.84 11.25,-120 -33.27,-70.82 72.21,-43.46 146,-30.81"/>
<polygon fill="midnightblue" stroke="midnightblue" points="1282.06,-255.79 1292.15,-252.55 1282.24,-248.8 1282.06,-255.79"/>
</g>
<!-- Node15 -->
<g id="node15" class="node">
<title>Node15</title>
<g id="a_node15"><a xlink:href="solvation__partition_8h.html" target="_top" xlink:title=" ">
<polygon fill="none" stroke="black" points="1235.25,-78.5 1235.25,-119.5 1363.25,-119.5 1363.25,-78.5 1235.25,-78.5"/>
<text text-anchor="start" x="1243.25" y="-107.5" font-family="Helvetica,sans-Serif" font-size="10.00">/home/runner/work/occ</text>
<text text-anchor="start" x="1243.25" y="-96.5" font-family="Helvetica,sans-Serif" font-size="10.00">/occ/include/occ/main</text>
<text text-anchor="middle" x="1299.25" y="-85.5" font-family="Helvetica,sans-Serif" font-size="10.00">/solvation_partition.h</text>
</a>
</g>
</g>
<!-- Node1&#45;&gt;Node15 -->
<g id="edge24" class="edge">
<title>Node1&#45;&gt;Node15</title>
<path fill="none" stroke="midnightblue" d="M1337.41,-225.71C1332.27,-217.08 1327.07,-207.39 1323.25,-198 1312.62,-171.88 1305.87,-139.85 1302.32,-119.68"/>
<polygon fill="midnightblue" stroke="midnightblue" points="1334.46,-227.59 1342.69,-234.26 1340.42,-223.91 1334.46,-227.59"/>
</g>
<!-- Node16 -->
<g id="node16" class="node">
<title>Node16</title>
<g id="a_node16"><a xlink:href="tblite__wrapper_8h.html" target="_top" xlink:title=" ">
<polygon fill="none" stroke="black" points="1381.25,-78.5 1381.25,-119.5 1509.25,-119.5 1509.25,-78.5 1381.25,-78.5"/>
<text text-anchor="start" x="1389.25" y="-107.5" font-family="Helvetica,sans-Serif" font-size="10.00">/home/runner/work/occ</text>
<text text-anchor="start" x="1389.25" y="-96.5" font-family="Helvetica,sans-Serif" font-size="10.00">/occ/include/occ/xtb</text>
<text text-anchor="middle" x="1445.25" y="-85.5" font-family="Helvetica,sans-Serif" font-size="10.00">/tblite_wrapper.h</text>
</a>
</g>
</g>
<!-- Node1&#45;&gt;Node16 -->
<g id="edge25" class="edge">
<title>Node1&#45;&gt;Node16</title>
<path fill="none" stroke="midnightblue" d="M1351.09,-224.11C1349.08,-203.63 1349.57,-176.56 1361.25,-156 1370.09,-140.46 1385.22,-128.41 1400.22,-119.54"/>
<polygon fill="midnightblue" stroke="midnightblue" points="1347.63,-224.65 1352.32,-234.15 1354.58,-223.8 1347.63,-224.65"/>
</g>
<!-- Node17 -->
<g id="node17" class="node">
<title>Node17</title>
<g id="a_node17"><a xlink:href="xtb__wrapper_8h.html" target="_top" xlink:title=" ">
<polygon fill="none" stroke="black" points="1527.25,-78.5 1527.25,-119.5 1655.25,-119.5 1655.25,-78.5 1527.25,-78.5"/>
<text text-anchor="start" x="1535.25" y="-107.5" font-family="Helvetica,sans-Serif" font-size="10.00">/home/runner/work/occ</text>
<text text-anchor="start" x="1535.25" y="-96.5" font-family="Helvetica,sans-Serif" font-size="10.00">/occ/include/occ/xtb</text>
<text text-anchor="middle" x="1591.25" y="-85.5" font-family="Helvetica,sans-Serif" font-size="10.00">/xtb_wrapper.h</text>
</a>
</g>
</g>
<!-- Node1&#45;&gt;Node17 -->
<g id="edge26" class="edge">
<title>Node1&#45;&gt;Node17</title>
<path fill="none" stroke="midnightblue" d="M1360.6,-224.08C1365.3,-202.3 1374.89,-173.64 1394.25,-156 1395.55,-154.82 1470.05,-133.83 1527.05,-117.89"/>
<polygon fill="midnightblue" stroke="midnightblue" points="1357.12,-223.66 1358.67,-234.14 1363.99,-224.98 1357.12,-223.66"/>
</g>
<!-- Node18 -->
<g id="node18" class="node">
<title>Node18</title>
<g id="a_node18"><a xlink:href="coulomb_8h.html" target="_top" xlink:title=" ">
<polygon fill="none" stroke="black" points="1402.75,-156.5 1402.75,-197.5 1551.75,-197.5 1551.75,-156.5 1402.75,-156.5"/>
<text text-anchor="start" x="1410.75" y="-185.5" font-family="Helvetica,sans-Serif" font-size="10.00">/home/runner/work/occ</text>
<text text-anchor="start" x="1410.75" y="-174.5" font-family="Helvetica,sans-Serif" font-size="10.00">/occ/include/occ/interaction</text>
<text text-anchor="middle" x="1477.25" y="-163.5" font-family="Helvetica,sans-Serif" font-size="10.00">/coulomb.h</text>
</a>
</g>
</g>
<!-- Node1&#45;&gt;Node18 -->
<g id="edge20" class="edge">
<title>Node1&#45;&gt;Node18</title>
<path fill="none" stroke="midnightblue" d="M1396.18,-228.92C1412.45,-218.7 1430.97,-207.07 1446.2,-197.51"/>
<polygon fill="midnightblue" stroke="midnightblue" points="1394.02,-226.15 1387.41,-234.43 1397.74,-232.07 1394.02,-226.15"/>
</g>
<!-- Node19 -->
<g id="node19" class="node">
<title>Node19</title>
<g id="a_node19"><a xlink:href="pair__potential_8h.html" target="_top" xlink:title=" ">
<polygon fill="none" stroke="black" points="1569.75,-156.5 1569.75,-197.5 1718.75,-197.5 1718.75,-156.5 1569.75,-156.5"/>
<text text-anchor="start" x="1577.75" y="-185.5" font-family="Helvetica,sans-Serif" font-size="10.00">/home/runner/work/occ</text>
<text text-anchor="start" x="1577.75" y="-174.5" font-family="Helvetica,sans-Serif" font-size="10.00">/occ/include/occ/interaction</text>
<text text-anchor="middle" x="1644.25" y="-163.5" font-family="Helvetica,sans-Serif" font-size="10.00">/pair_potential.h</text>
</a>
</g>
</g>
<!-- Node1&#45;&gt;Node19 -->
<g id="edge21" class="edge">
<title>Node1&#45;&gt;Node19</title>
<path fill="none" stroke="midnightblue" d="M1430.36,-234.44C1473.34,-223.1 1527.3,-208.86 1570.26,-197.53"/>
<polygon fill="midnightblue" stroke="midnightblue" points="1429.3,-231.1 1420.53,-237.04 1431.09,-237.87 1429.3,-231.1"/>
</g>
<!-- Node20 -->
<g id="node20" class="node">
<title>Node20</title>
<g id="a_node20"><a xlink:href="core__json_8h.html" target="_top" xlink:title=" ">
<polygon fill="none" stroke="black" points="1737.25,-156.5 1737.25,-197.5 1867.25,-197.5 1867.25,-156.5 1737.25,-156.5"/>
<text text-anchor="start" x="1745.25" y="-185.5" font-family="Helvetica,sans-Serif" font-size="10.00">/home/runner/work/occ</text>
<text text-anchor="start" x="1745.25" y="-174.5" font-family="Helvetica,sans-Serif" font-size="10.00">/occ/include/occ/io/core</text>
<text text-anchor="middle" x="1802.25" y="-163.5" font-family="Helvetica,sans-Serif" font-size="10.00">_json.h</text>
</a>
</g>
</g>
<!-- Node1&#45;&gt;Node20 -->
<g id="edge22" class="edge">
<title>Node1&#45;&gt;Node20</title>
<path fill="none" stroke="midnightblue" d="M1430.84,-245.32C1506.27,-235.95 1625.99,-219.44 1728.25,-198 1731.12,-197.4 1734.04,-196.75 1736.98,-196.08"/>
<polygon fill="midnightblue" stroke="midnightblue" points="1430,-241.9 1420.5,-246.6 1430.85,-248.85 1430,-241.9"/>
</g>
<!-- Node3 -->
<g id="node3" class="node">
<title>Node3</title>
<g id="a_node3"><a xlink:href="crystal_2surface_8h.html" target="_top" xlink:title=" ">
<polygon fill="none" stroke="black" points="687.25,-78.5 687.25,-119.5 817.25,-119.5 817.25,-78.5 687.25,-78.5"/>
<text text-anchor="start" x="695.25" y="-107.5" font-family="Helvetica,sans-Serif" font-size="10.00">/home/runner/work/occ</text>
<text text-anchor="start" x="695.25" y="-96.5" font-family="Helvetica,sans-Serif" font-size="10.00">/occ/include/occ/crystal</text>
<text text-anchor="middle" x="752.25" y="-85.5" font-family="Helvetica,sans-Serif" font-size="10.00">/surface.h</text>
</a>
</g>
</g>
<!-- Node2&#45;&gt;Node3 -->
<g id="edge2" class="edge">
<title>Node2&#45;&gt;Node3</title>
<path fill="none" stroke="midnightblue" d="M857.43,-151.91C836.26,-141.46 811.78,-129.38 791.78,-119.51"/>
<polygon fill="midnightblue" stroke="midnightblue" points="856.08,-155.14 866.59,-156.43 859.17,-148.86 856.08,-155.14"/>
</g>
<!-- Node4 -->
<g id="node4" class="node">
<title>Node4</title>
<g id="a_node4"><a xlink:href="cifparser_8h.html" target="_top" xlink:title=" ">
<polygon fill="none" stroke="black" points="994.25,-6 994.25,-36 1154.25,-36 1154.25,-6 994.25,-6"/>
<text text-anchor="start" x="1002.25" y="-24" font-family="Helvetica,sans-Serif" font-size="10.00">/home/runner/work/occ</text>
<text text-anchor="middle" x="1074.25" y="-13" font-family="Helvetica,sans-Serif" font-size="10.00">/occ/include/occ/io/cifparser.h</text>
</a>
</g>
</g>
<!-- Node2&#45;&gt;Node4 -->
<g id="edge3" class="edge">
<title>Node2&#45;&gt;Node4</title>
<path fill="none" stroke="midnightblue" d="M981.84,-171.55C1056.32,-165.4 1162.58,-151.27 1188.25,-120 1200.1,-105.57 1198.12,-93.84 1188.25,-78 1175.54,-57.6 1152.99,-44.42 1131.28,-36.01"/>
<polygon fill="midnightblue" stroke="midnightblue" points="981.25,-168.08 971.56,-172.36 981.8,-175.06 981.25,-168.08"/>
</g>
<!-- Node5 -->
<g id="node5" class="node">
<title>Node5</title>
<g id="a_node5"><a xlink:href="crystal__json_8h.html" target="_top" xlink:title=" ">
<polygon fill="none" stroke="black" points="835.25,-78.5 835.25,-119.5 977.25,-119.5 977.25,-78.5 835.25,-78.5"/>
<text text-anchor="start" x="843.25" y="-107.5" font-family="Helvetica,sans-Serif" font-size="10.00">/home/runner/work/occ</text>
<text text-anchor="start" x="843.25" y="-96.5" font-family="Helvetica,sans-Serif" font-size="10.00">/occ/include/occ/io/crystal</text>
<text text-anchor="middle" x="906.25" y="-85.5" font-family="Helvetica,sans-Serif" font-size="10.00">_json.h</text>
</a>
</g>
</g>
<!-- Node2&#45;&gt;Node5 -->
<g id="edge4" class="edge">
<title>Node2&#45;&gt;Node5</title>
<path fill="none" stroke="midnightblue" d="M906.25,-146.3C906.25,-137.3 906.25,-127.65 906.25,-119.51"/>
<polygon fill="midnightblue" stroke="midnightblue" points="902.75,-146.43 906.25,-156.43 909.75,-146.43 902.75,-146.43"/>
</g>
<!-- Node6 -->
<g id="node6" class="node">
<title>Node6</title>
<g id="a_node6"><a xlink:href="crystalgrower_8h.html" target="_top" xlink:title=" ">
<polygon fill="none" stroke="black" points="995.25,-84 995.25,-114 1179.25,-114 1179.25,-84 995.25,-84"/>
<text text-anchor="start" x="1003.25" y="-102" font-family="Helvetica,sans-Serif" font-size="10.00">/home/runner/work/occ</text>
<text text-anchor="middle" x="1087.25" y="-91" font-family="Helvetica,sans-Serif" font-size="10.00">/occ/include/occ/io/crystalgrower.h</text>
</a>
</g>
</g>
<!-- Node2&#45;&gt;Node6 -->
<g id="edge5" class="edge">
<title>Node2&#45;&gt;Node6</title>
<path fill="none" stroke="midnightblue" d="M962.35,-152.45C992.26,-139.89 1028.06,-124.85 1053.66,-114.11"/>
<polygon fill="midnightblue" stroke="midnightblue" points="960.73,-149.33 952.86,-156.43 963.44,-155.78 960.73,-149.33"/>
</g>
<!-- Node7 -->
<g id="node7" class="node">
<title>Node7</title>
<g id="a_node7"><a xlink:href="gmf_8h.html" target="_top" xlink:title=" ">
<polygon fill="none" stroke="black" points="20.75,-84 20.75,-114 157.75,-114 157.75,-84 20.75,-84"/>
<text text-anchor="start" x="28.75" y="-102" font-family="Helvetica,sans-Serif" font-size="10.00">/home/runner/work/occ</text>
<text text-anchor="middle" x="89.25" y="-91" font-family="Helvetica,sans-Serif" font-size="10.00">/occ/include/occ/io/gmf.h</text>
</a>
</g>
</g>
<!-- Node2&#45;&gt;Node7 -->
<g id="edge6" class="edge">
<title>Node2&#45;&gt;Node7</title>
<path fill="none" stroke="midnightblue" d="M830.76,-174.73C696.3,-171.48 406.86,-160.02 166.25,-120 156.99,-118.46 147.21,-116.33 137.85,-114.02"/>
<polygon fill="midnightblue" stroke="midnightblue" points="830.87,-178.23 840.95,-174.96 831.03,-171.23 830.87,-178.23"/>
</g>
<!-- Node8 -->
<g id="node8" class="node">
<title>Node8</title>
<g id="a_node8"><a xlink:href="kmcpp_8h.html" target="_top" xlink:title=" ">
<polygon fill="none" stroke="black" points="175.75,-84 175.75,-114 326.75,-114 326.75,-84 175.75,-84"/>
<text text-anchor="start" x="183.75" y="-102" font-family="Helvetica,sans-Serif" font-size="10.00">/home/runner/work/occ</text>
<text text-anchor="middle" x="251.25" y="-91" font-family="Helvetica,sans-Serif" font-size="10.00">/occ/include/occ/io/kmcpp.h</text>
</a>
</g>
</g>
<!-- Node2&#45;&gt;Node8 -->
<g id="edge7" class="edge">
<title>Node2&#45;&gt;Node8</title>
<path fill="none" stroke="midnightblue" d="M830.9,-171.42C722.24,-164.15 515.45,-147.89 341.25,-120 330.98,-118.36 320.12,-116.26 309.63,-114.04"/>
<polygon fill="midnightblue" stroke="midnightblue" points="830.89,-174.92 841.1,-172.09 831.36,-167.94 830.89,-174.92"/>
</g>
<!-- Node9 -->
<g id="node9" class="node">
<title>Node9</title>
<g id="a_node9"><a xlink:href="occ__input_8h.html" target="_top" xlink:title=" ">
<polygon fill="none" stroke="black" points="383.25,-78.5 383.25,-119.5 511.25,-119.5 511.25,-78.5 383.25,-78.5"/>
<text text-anchor="start" x="391.25" y="-107.5" font-family="Helvetica,sans-Serif" font-size="10.00">/home/runner/work/occ</text>
<text text-anchor="start" x="391.25" y="-96.5" font-family="Helvetica,sans-Serif" font-size="10.00">/occ/include/occ/io/occ</text>
<text text-anchor="middle" x="447.25" y="-85.5" font-family="Helvetica,sans-Serif" font-size="10.00">_input.h</text>
</a>
</g>
</g>
<!-- Node2&#45;&gt;Node9 -->
<g id="edge8" class="edge">
<title>Node2&#45;&gt;Node9</title>
<path fill="none" stroke="midnightblue" d="M830.7,-167.83C752.53,-158.73 627.15,-142.31 520.25,-120 517.42,-119.41 514.54,-118.77 511.63,-118.1"/>
<polygon fill="midnightblue" stroke="midnightblue" points="830.6,-171.35 840.94,-169.02 831.41,-164.39 830.6,-171.35"/>
</g>
<!-- Node2&#45;&gt;Node11 -->
<g id="edge16" class="edge">
<title>Node2&#45;&gt;Node11</title>
<path fill="none" stroke="midnightblue" d="M830.92,-174.53C703.7,-170.99 452.5,-159.12 374.25,-120 351.47,-108.61 355.96,-92.84 335.25,-78 314.38,-63.04 288.87,-50.74 266.35,-41.51"/>
<polygon fill="midnightblue" stroke="midnightblue" points="830.89,-178.03 840.98,-174.8 831.07,-171.03 830.89,-178.03"/>
</g>
<!-- Node14 -->
<g id="node14" class="node">
<title>Node14</title>
<g id="a_node14"><a xlink:href="crystal__surface__energy_8h.html" target="_top" xlink:title=" ">
<polygon fill="none" stroke="black" points="529.25,-78.5 529.25,-119.5 669.25,-119.5 669.25,-78.5 529.25,-78.5"/>
<text text-anchor="start" x="537.25" y="-107.5" font-family="Helvetica,sans-Serif" font-size="10.00">/home/runner/work/occ</text>
<text text-anchor="start" x="537.25" y="-96.5" font-family="Helvetica,sans-Serif" font-size="10.00">/occ/include/occ/main</text>
<text text-anchor="middle" x="599.25" y="-85.5" font-family="Helvetica,sans-Serif" font-size="10.00">/crystal_surface_energy.h</text>
</a>
</g>
</g>
<!-- Node2&#45;&gt;Node14 -->
<g id="edge15" class="edge">
<title>Node2&#45;&gt;Node14</title>
<path fill="none" stroke="midnightblue" d="M831.01,-157.66C786.55,-146.79 729.17,-132.7 678.25,-120 675.37,-119.28 672.43,-118.55 669.46,-117.8"/>
<polygon fill="midnightblue" stroke="midnightblue" points="830.32,-161.1 840.86,-160.07 831.98,-154.3 830.32,-161.1"/>
</g>
<!-- Node2&#45;&gt;Node15 -->
<g id="edge17" class="edge">
<title>Node2&#45;&gt;Node15</title>
<path fill="none" stroke="midnightblue" d="M981.39,-164.27C1045.4,-153.89 1139.71,-137.68 1221.25,-120 1225.76,-119.02 1230.4,-117.96 1235.07,-116.86"/>
<polygon fill="midnightblue" stroke="midnightblue" points="980.7,-160.84 971.38,-165.89 981.81,-167.75 980.7,-160.84"/>
</g>
<!-- Node2&#45;&gt;Node16 -->
<g id="edge18" class="edge">
<title>Node2&#45;&gt;Node16</title>
<path fill="none" stroke="midnightblue" d="M981.68,-170.39C1074.28,-162.71 1235.83,-146.73 1372.25,-120 1375.09,-119.44 1377.98,-118.84 1380.89,-118.19"/>
<polygon fill="midnightblue" stroke="midnightblue" points="981.24,-166.91 971.56,-171.22 981.81,-173.89 981.24,-166.91"/>
</g>
<!-- Node2&#45;&gt;Node17 -->
<g id="edge19" class="edge">
<title>Node2&#45;&gt;Node17</title>
<path fill="none" stroke="midnightblue" d="M981.73,-173.37C1097.84,-168.37 1326.92,-154.68 1518.25,-120 1521.1,-119.48 1523.99,-118.91 1526.91,-118.29"/>
<polygon fill="midnightblue" stroke="midnightblue" points="981.37,-169.88 971.52,-173.8 981.66,-176.88 981.37,-169.88"/>
</g>
<!-- Node9&#45;&gt;Node4 -->
<g id="edge9" class="edge">
<title>Node9&#45;&gt;Node4</title>
<path fill="none" stroke="midnightblue" d="M521.65,-77.89C694.57,-46.39 887.58,-32.03 993.84,-25.92"/>
<polygon fill="midnightblue" stroke="midnightblue" points="520.8,-74.49 511.6,-79.74 522.07,-81.37 520.8,-74.49"/>
</g>
<!-- Node10 -->
<g id="node10" class="node">
<title>Node10</title>
<g id="a_node10"><a xlink:href="qcschema_8h.html" target="_top" xlink:title=" ">
<polygon fill="none" stroke="black" points="602.75,-6 602.75,-36 769.75,-36 769.75,-6 602.75,-6"/>
<text text-anchor="start" x="610.75" y="-24" font-family="Helvetica,sans-Serif" font-size="10.00">/home/runner/work/occ</text>
<text text-anchor="middle" x="686.25" y="-13" font-family="Helvetica,sans-Serif" font-size="10.00">/occ/include/occ/io/qcschema.h</text>
</a>
</g>
</g>
<!-- Node9&#45;&gt;Node10 -->
<g id="edge10" class="edge">
<title>Node9&#45;&gt;Node10</title>
<path fill="none" stroke="midnightblue" d="M518.52,-75.34C558.56,-62.6 607.29,-47.11 641.89,-36.11"/>
<polygon fill="midnightblue" stroke="midnightblue" points="517.27,-72.06 508.8,-78.43 519.39,-78.73 517.27,-72.06"/>
</g>
<!-- Node9&#45;&gt;Node11 -->
<g id="edge11" class="edge">
<title>Node9&#45;&gt;Node11</title>
<path fill="none" stroke="midnightblue" d="M376.47,-75.3C342.93,-64.55 303.25,-51.82 271.08,-41.51"/>
<polygon fill="midnightblue" stroke="midnightblue" points="375.63,-78.71 386.22,-78.43 377.76,-72.04 375.63,-78.71"/>
</g>
<!-- Node12 -->
<g id="node12" class="node">
<title>Node12</title>
<g id="a_node12"><a xlink:href="properties_8h.html" target="_top" xlink:title=" ">
<polygon fill="none" stroke="black" points="310.25,-0.5 310.25,-41.5 438.25,-41.5 438.25,-0.5 310.25,-0.5"/>
<text text-anchor="start" x="318.25" y="-29.5" font-family="Helvetica,sans-Serif" font-size="10.00">/home/runner/work/occ</text>
<text text-anchor="start" x="318.25" y="-18.5" font-family="Helvetica,sans-Serif" font-size="10.00">/occ/include/occ/main</text>
<text text-anchor="middle" x="374.25" y="-7.5" font-family="Helvetica,sans-Serif" font-size="10.00">/properties.h</text>
</a>
</g>
</g>
<!-- Node9&#45;&gt;Node12 -->
<g id="edge13" class="edge">
<title>Node9&#45;&gt;Node12</title>
<path fill="none" stroke="midnightblue" d="M421.51,-71.2C412.11,-61.42 401.66,-50.54 392.99,-41.51"/>
<polygon fill="midnightblue" stroke="midnightblue" points="419,-73.64 428.45,-78.43 424.05,-68.79 419,-73.64"/>
</g>
<!-- Node13 -->
<g id="node13" class="node">
<title>Node13</title>
<g id="a_node13"><a xlink:href="single__point_8h.html" target="_top" xlink:title=" ">
<polygon fill="none" stroke="black" points="456.25,-0.5 456.25,-41.5 584.25,-41.5 584.25,-0.5 456.25,-0.5"/>
<text text-anchor="start" x="464.25" y="-29.5" font-family="Helvetica,sans-Serif" font-size="10.00">/home/runner/work/occ</text>
<text text-anchor="start" x="464.25" y="-18.5" font-family="Helvetica,sans-Serif" font-size="10.00">/occ/include/occ/main</text>
<text text-anchor="middle" x="520.25" y="-7.5" font-family="Helvetica,sans-Serif" font-size="10.00">/single_point.h</text>
</a>
</g>
</g>
<!-- Node9&#45;&gt;Node13 -->
<g id="edge14" class="edge">
<title>Node9&#45;&gt;Node13</title>
<path fill="none" stroke="midnightblue" d="M472.99,-71.2C482.39,-61.42 492.84,-50.54 501.52,-41.51"/>
<polygon fill="midnightblue" stroke="midnightblue" points="470.45,-68.79 466.05,-78.43 475.5,-73.64 470.45,-68.79"/>
</g>
<!-- Node11&#45;&gt;Node11 -->
<g id="edge12" class="edge">
<title>Node11&#45;&gt;Node11</title>
<path fill="none" stroke="midnightblue" d="M284.4,-31.45C289.29,-29.02 292.25,-25.54 292.25,-21 292.25,-13.92 285.04,-9.41 274.54,-7.47"/>
<polygon fill="midnightblue" stroke="midnightblue" points="283.04,-28.21 274.54,-34.53 285.13,-34.89 283.04,-28.21"/>
</g>
</g>
</svg>
