<?xml version="1.0" encoding="UTF-8" standalone="no"?>
<!DOCTYPE svg PUBLIC "-//W3C//DTD SVG 1.1//EN"
 "http://www.w3.org/Graphics/SVG/1.1/DTD/svg11.dtd">
<!-- Generated by graphviz version 2.43.0 (0)
 -->
<!-- Title: /home/runner/work/occ/occ/include/occ/qm Pages: 1 -->
<svg width="413pt" height="196pt"
 viewBox="0.00 0.00 413.00 196.00" xmlns="http://www.w3.org/2000/svg" xmlns:xlink="http://www.w3.org/1999/xlink">
<g id="graph0" class="graph" transform="scale(1 1) rotate(0) translate(4 192)">
<title>/home/runner/work/occ/occ/include/occ/qm</title>
<g id="clust1" class="cluster">
<title>clusterdir_8b7861ad11e4db9a5e6a6da237b17e56</title>
<g id="a_clust1"><a xlink:href="dir_8b7861ad11e4db9a5e6a6da237b17e56.html" target="_top" xlink:title="occ">
<polygon fill="#edf0f7" stroke="#7f7f7f" stroke-dasharray="5,2" points="8,-8 8,-180 397,-180 397,-8 8,-8"/>
<text text-anchor="middle" x="202.5" y="-168" font-family="Helvetica,sans-Serif" font-size="10.00">occ</text>
</a>
</g>
</g>
<g id="clust2" class="cluster">
<title>clusterdir_737cf82dfc93877bbe50a83dfe5e1c2d</title>
<g id="a_clust2"><a xlink:href="dir_737cf82dfc93877bbe50a83dfe5e1c2d.html" target="_top">
<polygon fill="#edf0f7" stroke="#404040" stroke-width="2" points="206,-63 206,-153 389,-153 389,-63 206,-63"/>
</a>
</g>
</g>
<!-- dir_325d13ad1fe0d5ec784ca3982f99f376 -->
<g id="node1" class="node">
<title>dir_325d13ad1fe0d5ec784ca3982f99f376</title>
<g id="a_node1"><a xlink:href="dir_325d13ad1fe0d5ec784ca3982f99f376.html" target="_top" xlink:title="numint">
<polygon fill="#a2b4d6" stroke="#404040" points="87.5,-90 36.5,-90 36.5,-71 87.5,-71 87.5,-90"/>
<text text-anchor="middle" x="62" y="-78" font-family="Helvetica,sans-Serif" font-size="10.00">numint</text>
</a>
</g>
</g>
<!-- dir_6a6ad6048e01a5a4f46258b22cf2ad4a -->
<g id="node2" class="node">
<title>dir_6a6ad6048e01a5a4f46258b22cf2ad4a</title>
<g id="a_node2"><a xlink:href="dir_6a6ad6048e01a5a4f46258b22cf2ad4a.html" target="_top" xlink:title="xdm">
<polygon fill="#a2b4d6" stroke="#404040" points="144,-90 106,-90 106,-71 144,-71 144,-90"/>
<text text-anchor="middle" x="125" y="-78" font-family="Helvetica,sans-Serif" font-size="10.00">xdm</text>
</a>
</g>
</g>
<!-- dir_8d7890f3643d6be959559588d2eb1af6 -->
<g id="node3" class="node">
<title>dir_8d7890f3643d6be959559588d2eb1af6</title>
<g id="a_node3"><a xlink:href="dir_8d7890f3643d6be959559588d2eb1af6.html" target="_top" xlink:title="ints">
<polygon fill="#a2b4d6" stroke="#404040" points="197.5,-90 162.5,-90 162.5,-71 197.5,-71 197.5,-90"/>
<text text-anchor="middle" x="180" y="-78" font-family="Helvetica,sans-Serif" font-size="10.00">ints</text>
</a>
</g>
</g>
<!-- dir_a9a9bd00ca35510371062c24de1517b5 -->
<g id="node4" class="node">
<title>dir_a9a9bd00ca35510371062c24de1517b5</title>
<g id="a_node4"><a xlink:href="dir_a9a9bd00ca35510371062c24de1517b5.html" target="_top" xlink:title="core">
<polygon fill="#a2b4d6" stroke="#404040" points="362,-35 324,-35 324,-16 362,-16 362,-35"/>
<text text-anchor="middle" x="343" y="-23" font-family="Helvetica,sans-Serif" font-size="10.00">core</text>
</a>
</g>
</g>
<!-- dir_cfc5afc38a17fd298438dc647b813568 -->
<g id="node5" class="node">
<title>dir_cfc5afc38a17fd298438dc647b813568</title>
<g id="a_node5"><a xlink:href="dir_cfc5afc38a17fd298438dc647b813568.html" target="_top" xlink:title="gto">
<polygon fill="#a2b4d6" stroke="red" points="303,-35 271,-35 271,-16 303,-16 303,-35"/>
<text text-anchor="middle" x="287" y="-23" font-family="Helvetica,sans-Serif" font-size="10.00">gto</text>
</a>
</g>
</g>
<!-- dir_eb006ca087d4b4837f6db1ad7c4b10da -->
<g id="node6" class="node">
<title>dir_eb006ca087d4b4837f6db1ad7c4b10da</title>
<g id="a_node6"><a xlink:href="dir_eb006ca087d4b4837f6db1ad7c4b10da.html" target="_top" xlink:title="io">
<polygon fill="#a2b4d6" stroke="#404040" points="231.5,-35 202.5,-35 202.5,-16 231.5,-16 231.5,-35"/>
<text text-anchor="middle" x="217" y="-23" font-family="Helvetica,sans-Serif" font-size="10.00">io</text>
</a>
</g>
</g>
<!-- dir_737cf82dfc93877bbe50a83dfe5e1c2d -->
<g id="node7" class="node">
<title>dir_737cf82dfc93877bbe50a83dfe5e1c2d</title>
<text text-anchor="middle" x="230" y="-133" font-family="Helvetica,sans-Serif" font-size="10.00">qm</text>
</g>
<!-- dir_737cf82dfc93877bbe50a83dfe5e1c2d&#45;&gt;dir_325d13ad1fe0d5ec784ca3982f99f376 -->
<g id="edge1" class="edge">
<title>dir_737cf82dfc93877bbe50a83dfe5e1c2d&#45;&gt;dir_325d13ad1fe0d5ec784ca3982f99f376</title>
<g id="a_edge1"><a xlink:href="dir_000026_000023.html" target="_top">
<path fill="none" stroke="#63b8ff" d="M213.89,-129.42C187.17,-120.99 133.06,-103.92 97.17,-92.59"/>
<polygon fill="#63b8ff" stroke="#63b8ff" points="98.16,-89.24 87.57,-89.57 96.05,-95.91 98.16,-89.24"/>
</a>
</g>
<g id="a_edge1&#45;headlabel"><a xlink:href="dir_000026_000023.html" target="_top" xlink:title="1">
<text text-anchor="middle" x="102.44" y="-85.11" font-family="Helvetica,sans-Serif" font-size="10.00" fill="#63b8ff">1</text>
</a>
</g>
</g>
<!-- dir_737cf82dfc93877bbe50a83dfe5e1c2d&#45;&gt;dir_6a6ad6048e01a5a4f46258b22cf2ad4a -->
<g id="edge3" class="edge">
<title>dir_737cf82dfc93877bbe50a83dfe5e1c2d&#45;&gt;dir_6a6ad6048e01a5a4f46258b22cf2ad4a</title>
<g id="a_edge3"><a xlink:href="dir_000026_000031.html" target="_top">
<path fill="none" stroke="#63b8ff" d="M213.59,-126.22C196.84,-117.76 170.58,-104.51 151,-94.62"/>
<polygon fill="#63b8ff" stroke="#63b8ff" points="152.49,-91.46 141.99,-90.07 149.34,-97.7 152.49,-91.46"/>
</a>
</g>
<g id="a_edge3&#45;headlabel"><a xlink:href="dir_000026_000031.html" target="_top" xlink:title="1">
<text text-anchor="middle" x="156.98" y="-88.04" font-family="Helvetica,sans-Serif" font-size="10.00" fill="#63b8ff">1</text>
</a>
</g>
</g>
<!-- dir_737cf82dfc93877bbe50a83dfe5e1c2d&#45;&gt;dir_8d7890f3643d6be959559588d2eb1af6 -->
<g id="edge4" class="edge">
<title>dir_737cf82dfc93877bbe50a83dfe5e1c2d&#45;&gt;dir_8d7890f3643d6be959559588d2eb1af6</title>
<g id="a_edge4"><a xlink:href="dir_000026_000016.html" target="_top">
<path fill="none" stroke="#63b8ff" d="M221.74,-125.75C214.54,-118.11 203.89,-106.82 195.15,-97.56"/>
<polygon fill="#63b8ff" stroke="#63b8ff" points="197.51,-94.96 188.1,-90.09 192.42,-99.76 197.51,-94.96"/>
</a>
</g>
<g id="a_edge4&#45;headlabel"><a xlink:href="dir_000026_000016.html" target="_top" xlink:title="2">
<text text-anchor="middle" x="202.04" y="-93.13" font-family="Helvetica,sans-Serif" font-size="10.00" fill="#63b8ff">2</text>
</a>
</g>
</g>
<!-- dir_737cf82dfc93877bbe50a83dfe5e1c2d&#45;&gt;dir_a9a9bd00ca35510371062c24de1517b5 -->
<g id="edge5" class="edge">
<title>dir_737cf82dfc93877bbe50a83dfe5e1c2d&#45;&gt;dir_a9a9bd00ca35510371062c24de1517b5</title>
<g id="a_edge5"><a xlink:href="dir_000026_000002.html" target="_top">
<path fill="none" stroke="#63b8ff" d="M241.54,-125.72C252.73,-117.03 270.03,-103.16 284,-90 292.86,-81.65 314.09,-58.49 328.51,-42.58"/>
<polygon fill="#63b8ff" stroke="#63b8ff" points="331.22,-44.8 335.33,-35.03 326.03,-40.1 331.22,-44.8"/>
</a>
</g>
<g id="a_edge5&#45;headlabel"><a xlink:href="dir_000026_000002.html" target="_top" xlink:title="61">
<text text-anchor="middle" x="330.92" y="-46.87" font-family="Helvetica,sans-Serif" font-size="10.00" fill="#63b8ff">61</text>
</a>
</g>
</g>
<!-- dir_737cf82dfc93877bbe50a83dfe5e1c2d&#45;&gt;dir_cfc5afc38a17fd298438dc647b813568 -->
<g id="edge6" class="edge">
<title>dir_737cf82dfc93877bbe50a83dfe5e1c2d&#45;&gt;dir_cfc5afc38a17fd298438dc647b813568</title>
<g id="a_edge6"><a xlink:href="dir_000026_000013.html" target="_top">
<path fill="none" stroke="#63b8ff" d="M242.36,-125.73C252.76,-117.67 267.16,-104.74 275,-90 282.34,-76.21 285.24,-58.64 286.37,-45.48"/>
<polygon fill="#63b8ff" stroke="#63b8ff" points="289.87,-45.44 286.96,-35.25 282.89,-45.03 289.87,-45.44"/>
</a>
</g>
<g id="a_edge6&#45;headlabel"><a xlink:href="dir_000026_000013.html" target="_top" xlink:title="21">
<text text-anchor="middle" x="292.5" y="-46.69" font-family="Helvetica,sans-Serif" font-size="10.00" fill="#63b8ff">21</text>
</a>
</g>
</g>
<!-- dir_737cf82dfc93877bbe50a83dfe5e1c2d&#45;&gt;dir_eb006ca087d4b4837f6db1ad7c4b10da -->
<g id="edge7" class="edge">
<title>dir_737cf82dfc93877bbe50a83dfe5e1c2d&#45;&gt;dir_eb006ca087d4b4837f6db1ad7c4b10da</title>
<g id="a_edge7"><a xlink:href="dir_000026_000018.html" target="_top">
<path fill="none" stroke="#63b8ff" d="M213.75,-133.48C169.83,-130.34 50.52,-119.24 27,-90 -17.64,-34.51 130.68,-27.16 191.84,-26.44"/>
<polygon fill="#63b8ff" stroke="#63b8ff" points="192.21,-29.94 202.18,-26.38 192.16,-22.94 192.21,-29.94"/>
</a>
</g>
<g id="a_edge7&#45;headlabel"><a xlink:href="dir_000026_000018.html" target="_top" xlink:title="3">
<text text-anchor="middle" x="188.63" y="-30.31" font-family="Helvetica,sans-Serif" font-size="10.00" fill="#63b8ff">3</text>
</a>
</g>
</g>
<!-- dir_3b10027bf36305cb8d894959faead33f -->
<g id="node10" class="node">
<title>dir_3b10027bf36305cb8d894959faead33f</title>
<g id="a_node10"><a xlink:href="dir_3b10027bf36305cb8d894959faead33f.html" target="_top" xlink:title="io">
<polygon fill="#a2b4d6" stroke="#404040" points="265.5,-90 236.5,-90 236.5,-71 265.5,-71 265.5,-90"/>
<text text-anchor="middle" x="251" y="-78" font-family="Helvetica,sans-Serif" font-size="10.00">io</text>
</a>
</g>
</g>
<!-- dir_737cf82dfc93877bbe50a83dfe5e1c2d&#45;&gt;dir_3b10027bf36305cb8d894959faead33f -->
<g id="edge2" class="edge">
<title>dir_737cf82dfc93877bbe50a83dfe5e1c2d&#45;&gt;dir_3b10027bf36305cb8d894959faead33f</title>
<g id="a_edge2"><a xlink:href="dir_000026_000019.html" target="_top">
<path fill="none" stroke="#63b8ff" d="M233.47,-125.75C236.28,-118.65 240.34,-108.4 243.85,-99.56"/>
<polygon fill="#63b8ff" stroke="#63b8ff" points="247.17,-100.68 247.6,-90.09 240.66,-98.1 247.17,-100.68"/>
</a>
</g>
<g id="a_edge2&#45;headlabel"><a xlink:href="dir_000026_000019.html" target="_top" xlink:title="4">
<text text-anchor="middle" x="248.48" y="-102.56" font-family="Helvetica,sans-Serif" font-size="10.00" fill="#63b8ff">4</text>
</a>
</g>
</g>
<!-- dir_39e12efca88ac6fb9de1cd8d013301c7 -->
<g id="node8" class="node">
<title>dir_39e12efca88ac6fb9de1cd8d013301c7</title>
<g id="a_node8"><a xlink:href="dir_39e12efca88ac6fb9de1cd8d013301c7.html" target="_top" xlink:title="cc">
<polygon fill="#a2b4d6" stroke="#404040" points="293.5,-145 264.5,-145 264.5,-126 293.5,-126 293.5,-145"/>
<text text-anchor="middle" x="279" y="-133" font-family="Helvetica,sans-Serif" font-size="10.00">cc</text>
</a>
</g>
</g>
<!-- dir_39e12efca88ac6fb9de1cd8d013301c7&#45;&gt;dir_a9a9bd00ca35510371062c24de1517b5 -->
<g id="edge8" class="edge">
<title>dir_39e12efca88ac6fb9de1cd8d013301c7&#45;&gt;dir_a9a9bd00ca35510371062c24de1517b5</title>
<g id="a_edge8"><a xlink:href="dir_000000_000002.html" target="_top">
<path fill="none" stroke="#63b8ff" d="M284.24,-125.66C294.79,-107.85 318.78,-67.37 332.63,-44.01"/>
<polygon fill="#63b8ff" stroke="#63b8ff" points="335.78,-45.55 337.87,-35.16 329.76,-41.98 335.78,-45.55"/>
</a>
</g>
<g id="a_edge8&#45;headlabel"><a xlink:href="dir_000000_000002.html" target="_top" xlink:title="6">
<text text-anchor="middle" x="336.39" y="-47.59" font-family="Helvetica,sans-Serif" font-size="10.00" fill="#63b8ff">6</text>
</a>
</g>
</g>
<!-- dir_39e12efca88ac6fb9de1cd8d013301c7&#45;&gt;dir_cfc5afc38a17fd298438dc647b813568 -->
<g id="edge9" class="edge">
<title>dir_39e12efca88ac6fb9de1cd8d013301c7&#45;&gt;dir_cfc5afc38a17fd298438dc647b813568</title>
<g id="a_edge9"><a xlink:href="dir_000000_000013.html" target="_top">
<path fill="none" stroke="#63b8ff" d="M281.83,-125.75C284.55,-116.86 288.46,-102.64 290,-90 291.45,-78.09 290.49,-74.99 290,-63 289.76,-57.19 289.31,-50.88 288.83,-45.16"/>
<polygon fill="#63b8ff" stroke="#63b8ff" points="292.31,-44.83 287.92,-35.19 285.34,-45.47 292.31,-44.83"/>
</a>
</g>
<g id="a_edge9&#45;headlabel"><a xlink:href="dir_000000_000013.html" target="_top" xlink:title="3">
<text text-anchor="middle" x="295.47" y="-45.65" font-family="Helvetica,sans-Serif" font-size="10.00" fill="#63b8ff">3</text>
</a>
</g>
</g>
<!-- dir_39e12efca88ac6fb9de1cd8d013301c7&#45;&gt;dir_eb006ca087d4b4837f6db1ad7c4b10da -->
<g id="edge10" class="edge">
<title>dir_39e12efca88ac6fb9de1cd8d013301c7&#45;&gt;dir_eb006ca087d4b4837f6db1ad7c4b10da</title>
<g id="a_edge10"><a xlink:href="dir_000000_000018.html" target="_top">
<path fill="none" stroke="#63b8ff" d="M264.45,-125.83C252.67,-118 236.64,-105.36 228,-90 220.36,-76.42 217.78,-58.83 217.01,-45.61"/>
<polygon fill="#63b8ff" stroke="#63b8ff" points="220.5,-45.22 216.72,-35.33 213.5,-45.42 220.5,-45.22"/>
</a>
</g>
<g id="a_edge10&#45;headlabel"><a xlink:href="dir_000000_000018.html" target="_top" xlink:title="1">
<text text-anchor="middle" x="223.44" y="-46.24" font-family="Helvetica,sans-Serif" font-size="10.00" fill="#63b8ff">1</text>
</a>
</g>
</g>
<!-- dir_657c46d69612140f86e9d57a06985568 -->
<g id="node9" class="node">
<title>dir_657c46d69612140f86e9d57a06985568</title>
<g id="a_node9"><a xlink:href="dir_657c46d69612140f86e9d57a06985568.html" target="_top" xlink:title="correlation">
<polygon fill="#a2b4d6" stroke="#404040" points="380.5,-145 311.5,-145 311.5,-126 380.5,-126 380.5,-145"/>
<text text-anchor="middle" x="346" y="-133" font-family="Helvetica,sans-Serif" font-size="10.00">correlation</text>
</a>
</g>
</g>
<!-- dir_657c46d69612140f86e9d57a06985568&#45;&gt;dir_a9a9bd00ca35510371062c24de1517b5 -->
<g id="edge11" class="edge">
<title>dir_657c46d69612140f86e9d57a06985568&#45;&gt;dir_a9a9bd00ca35510371062c24de1517b5</title>
<g id="a_edge11"><a xlink:href="dir_000003_000002.html" target="_top">
<path fill="none" stroke="#63b8ff" d="M352.73,-125.7C362.18,-112.22 377.46,-85.63 370,-63 367.61,-55.76 363.17,-48.78 358.57,-42.89"/>
<polygon fill="#63b8ff" stroke="#63b8ff" points="361.11,-40.47 351.94,-35.16 355.79,-45.03 361.11,-40.47"/>
</a>
</g>
<g id="a_edge11&#45;headlabel"><a xlink:href="dir_000003_000002.html" target="_top" xlink:title="2">
<text text-anchor="middle" x="365.6" y="-38.85" font-family="Helvetica,sans-Serif" font-size="10.00" fill="#63b8ff">2</text>
</a>
</g>
</g>
<!-- dir_657c46d69612140f86e9d57a06985568&#45;&gt;dir_cfc5afc38a17fd298438dc647b813568 -->
<g id="edge12" class="edge">
<title>dir_657c46d69612140f86e9d57a06985568&#45;&gt;dir_cfc5afc38a17fd298438dc647b813568</title>
<g id="a_edge12"><a xlink:href="dir_000003_000013.html" target="_top">
<path fill="none" stroke="#63b8ff" d="M341.17,-125.66C331.44,-107.85 309.32,-67.37 296.56,-44.01"/>
<polygon fill="#63b8ff" stroke="#63b8ff" points="299.6,-42.26 291.73,-35.16 293.45,-45.61 299.6,-42.26"/>
</a>
</g>
<g id="a_edge12&#45;headlabel"><a xlink:href="dir_000003_000013.html" target="_top" xlink:title="1">
<text text-anchor="middle" x="303.81" y="-41.55" font-family="Helvetica,sans-Serif" font-size="10.00" fill="#63b8ff">1</text>
</a>
</g>
</g>
<!-- dir_3b10027bf36305cb8d894959faead33f&#45;&gt;dir_a9a9bd00ca35510371062c24de1517b5 -->
<g id="edge13" class="edge">
<title>dir_3b10027bf36305cb8d894959faead33f&#45;&gt;dir_a9a9bd00ca35510371062c24de1517b5</title>
<g id="a_edge13"><a xlink:href="dir_000019_000002.html" target="_top">
<path fill="none" stroke="#63b8ff" d="M259.9,-70.95C262.97,-68.23 266.51,-65.33 270,-63 284.07,-53.59 300.9,-45.02 314.85,-38.55"/>
<polygon fill="#63b8ff" stroke="#63b8ff" points="316.31,-41.73 323.98,-34.42 313.43,-35.35 316.31,-41.73"/>
</a>
</g>
<g id="a_edge13&#45;headlabel"><a xlink:href="dir_000019_000002.html" target="_top" xlink:title="7">
<text text-anchor="middle" x="314.21" y="-43.3" font-family="Helvetica,sans-Serif" font-size="10.00" fill="#63b8ff">7</text>
</a>
</g>
</g>
<!-- dir_3b10027bf36305cb8d894959faead33f&#45;&gt;dir_cfc5afc38a17fd298438dc647b813568 -->
<g id="edge14" class="edge">
<title>dir_3b10027bf36305cb8d894959faead33f&#45;&gt;dir_cfc5afc38a17fd298438dc647b813568</title>
<g id="a_edge14"><a xlink:href="dir_000019_000013.html" target="_top">
<path fill="none" stroke="#63b8ff" d="M256.94,-70.75C261.98,-63.34 269.34,-52.5 275.51,-43.41"/>
<polygon fill="#63b8ff" stroke="#63b8ff" points="278.44,-45.33 281.17,-35.09 272.65,-41.39 278.44,-45.33"/>
</a>
</g>
<g id="a_edge14&#45;headlabel"><a xlink:href="dir_000019_000013.html" target="_top" xlink:title="5">
<text text-anchor="middle" x="278.77" y="-47.4" font-family="Helvetica,sans-Serif" font-size="10.00" fill="#63b8ff">5</text>
</a>
</g>
</g>
<!-- dir_3b10027bf36305cb8d894959faead33f&#45;&gt;dir_eb006ca087d4b4837f6db1ad7c4b10da -->
<g id="edge15" class="edge">
<title>dir_3b10027bf36305cb8d894959faead33f&#45;&gt;dir_eb006ca087d4b4837f6db1ad7c4b10da</title>
<g id="a_edge15"><a xlink:href="dir_000019_000018.html" target="_top">
<path fill="none" stroke="#63b8ff" d="M245.39,-70.75C240.68,-63.42 233.83,-52.73 228.03,-43.7"/>
<polygon fill="#63b8ff" stroke="#63b8ff" points="230.86,-41.62 222.51,-35.09 224.96,-45.4 230.86,-41.62"/>
</a>
</g>
<g id="a_edge15&#45;headlabel"><a xlink:href="dir_000019_000018.html" target="_top" xlink:title="1">
<text text-anchor="middle" x="235.19" y="-40.61" font-family="Helvetica,sans-Serif" font-size="10.00" fill="#63b8ff">1</text>
</a>
</g>
</g>
</g>
</svg>
