<?xml version="1.0" encoding="UTF-8" standalone="no"?>
<!DOCTYPE svg PUBLIC "-//W3C//DTD SVG 1.1//EN"
 "http://www.w3.org/Graphics/SVG/1.1/DTD/svg11.dtd">
<!-- Generated by graphviz version 2.43.0 (0)
 -->
<!-- Title: /home/runner/work/occ/occ/include/occ/dft Pages: 1 -->
<svg width="134pt" height="311pt"
 viewBox="0.00 0.00 134.00 311.00" xmlns="http://www.w3.org/2000/svg" xmlns:xlink="http://www.w3.org/1999/xlink">
<g id="graph0" class="graph" transform="scale(1 1) rotate(0) translate(4 307)">
<title>/home/runner/work/occ/occ/include/occ/dft</title>
<g id="clust1" class="cluster">
<title>clusterdir_8b7861ad11e4db9a5e6a6da237b17e56</title>
<g id="a_clust1"><a xlink:href="dir_8b7861ad11e4db9a5e6a6da237b17e56.html" target="_top" xlink:title="occ">
<polygon fill="#ddddee" stroke="black" points="8,-8 8,-295 118,-295 118,-8 8,-8"/>
<text text-anchor="middle" x="63" y="-283" font-family="Helvetica,sans-Serif" font-size="10.00">occ</text>
</a>
</g>
</g>
<!-- dir_737cf82dfc93877bbe50a83dfe5e1c2d -->
<g id="node1" class="node">
<title>dir_737cf82dfc93877bbe50a83dfe5e1c2d</title>
<g id="a_node1"><a xlink:href="dir_737cf82dfc93877bbe50a83dfe5e1c2d.html" target="_top" xlink:title="qm">
<polygon fill="none" stroke="black" points="90,-124 36,-124 36,-88 90,-88 90,-124"/>
<text text-anchor="middle" x="63" y="-103.5" font-family="Helvetica,sans-Serif" font-size="10.00">qm</text>
</a>
</g>
</g>
<!-- dir_a9a9bd00ca35510371062c24de1517b5 -->
<g id="node2" class="node">
<title>dir_a9a9bd00ca35510371062c24de1517b5</title>
<g id="a_node2"><a xlink:href="dir_a9a9bd00ca35510371062c24de1517b5.html" target="_top" xlink:title="core">
<polygon fill="none" stroke="black" points="90,-52 36,-52 36,-16 90,-16 90,-52"/>
<text text-anchor="middle" x="63" y="-31.5" font-family="Helvetica,sans-Serif" font-size="10.00">core</text>
</a>
</g>
</g>
<!-- dir_737cf82dfc93877bbe50a83dfe5e1c2d&#45;&gt;dir_a9a9bd00ca35510371062c24de1517b5 -->
<g id="edge1" class="edge">
<title>dir_737cf82dfc93877bbe50a83dfe5e1c2d&#45;&gt;dir_a9a9bd00ca35510371062c24de1517b5</title>
<path fill="none" stroke="black" d="M63,-87.7C63,-79.98 63,-70.71 63,-62.11"/>
<polygon fill="black" stroke="black" points="66.5,-62.1 63,-52.1 59.5,-62.1 66.5,-62.1"/>
<g id="a_edge1&#45;headlabel"><a xlink:href="dir_000004_000003.html" target="_top" xlink:title="27">
<text text-anchor="middle" x="69.34" y="-63.2" font-family="Helvetica,sans-Serif" font-size="10.00">27</text>
</a>
</g>
</g>
<!-- dir_cfc5afc38a17fd298438dc647b813568 -->
<g id="node3" class="node">
<title>dir_cfc5afc38a17fd298438dc647b813568</title>
<g id="a_node3"><a xlink:href="dir_cfc5afc38a17fd298438dc647b813568.html" target="_top" xlink:title="gto">
<polygon fill="none" stroke="black" points="110,-196 56,-196 56,-160 110,-160 110,-196"/>
<text text-anchor="middle" x="83" y="-175.5" font-family="Helvetica,sans-Serif" font-size="10.00">gto</text>
</a>
</g>
</g>
<!-- dir_cfc5afc38a17fd298438dc647b813568&#45;&gt;dir_737cf82dfc93877bbe50a83dfe5e1c2d -->
<g id="edge2" class="edge">
<title>dir_cfc5afc38a17fd298438dc647b813568&#45;&gt;dir_737cf82dfc93877bbe50a83dfe5e1c2d</title>
<path fill="none" stroke="black" d="M78.06,-159.7C75.83,-151.9 73.15,-142.51 70.67,-133.83"/>
<polygon fill="black" stroke="black" points="74,-132.76 67.89,-124.1 67.27,-134.68 74,-132.76"/>
<g id="a_edge2&#45;headlabel"><a xlink:href="dir_000009_000004.html" target="_top" xlink:title="2">
<text text-anchor="middle" x="77.72" y="-132.93" font-family="Helvetica,sans-Serif" font-size="10.00">2</text>
</a>
</g>
</g>
<!-- dir_cfc5afc38a17fd298438dc647b813568&#45;&gt;dir_a9a9bd00ca35510371062c24de1517b5 -->
<g id="edge3" class="edge">
<title>dir_cfc5afc38a17fd298438dc647b813568&#45;&gt;dir_a9a9bd00ca35510371062c24de1517b5</title>
<path fill="none" stroke="black" d="M90.78,-159.98C97.98,-141.85 106.52,-112.46 99,-88 95.99,-78.22 90.49,-68.62 84.68,-60.33"/>
<polygon fill="black" stroke="black" points="87.41,-58.13 78.61,-52.23 81.81,-62.33 87.41,-58.13"/>
<g id="a_edge3&#45;headlabel"><a xlink:href="dir_000009_000003.html" target="_top" xlink:title="5">
<text text-anchor="middle" x="91.83" y="-56.8" font-family="Helvetica,sans-Serif" font-size="10.00">5</text>
</a>
</g>
</g>
<!-- dir_7ab1db0ec535273aaa16e13087447790 -->
<g id="node4" class="node">
<title>dir_7ab1db0ec535273aaa16e13087447790</title>
<g id="a_node4"><a xlink:href="dir_7ab1db0ec535273aaa16e13087447790.html" target="_top" xlink:title="dft">
<polygon fill="#eeeeff" stroke="black" points="70,-268 16,-268 16,-232 70,-232 70,-268"/>
<text text-anchor="middle" x="43" y="-247.5" font-family="Helvetica,sans-Serif" font-size="10.00">dft</text>
</a>
</g>
</g>
<!-- dir_7ab1db0ec535273aaa16e13087447790&#45;&gt;dir_737cf82dfc93877bbe50a83dfe5e1c2d -->
<g id="edge4" class="edge">
<title>dir_7ab1db0ec535273aaa16e13087447790&#45;&gt;dir_737cf82dfc93877bbe50a83dfe5e1c2d</title>
<path fill="none" stroke="black" d="M42.52,-231.8C42.3,-213.78 42.78,-184.7 47,-160 48.47,-151.38 50.92,-142.19 53.46,-133.93"/>
<polygon fill="black" stroke="black" points="56.79,-135 56.55,-124.4 50.14,-132.84 56.79,-135"/>
<g id="a_edge4&#45;headlabel"><a xlink:href="dir_000007_000004.html" target="_top" xlink:title="8">
<text text-anchor="middle" x="58.38" y="-136.79" font-family="Helvetica,sans-Serif" font-size="10.00">8</text>
</a>
</g>
</g>
<!-- dir_7ab1db0ec535273aaa16e13087447790&#45;&gt;dir_a9a9bd00ca35510371062c24de1517b5 -->
<g id="edge5" class="edge">
<title>dir_7ab1db0ec535273aaa16e13087447790&#45;&gt;dir_a9a9bd00ca35510371062c24de1517b5</title>
<path fill="none" stroke="black" d="M36.93,-231.64C27.38,-201.64 11.48,-138.47 27,-88 30.01,-78.22 35.51,-68.62 41.32,-60.33"/>
<polygon fill="black" stroke="black" points="44.19,-62.33 47.39,-52.23 38.59,-58.13 44.19,-62.33"/>
<g id="a_edge5&#45;headlabel"><a xlink:href="dir_000007_000003.html" target="_top" xlink:title="10">
<text text-anchor="middle" x="44.31" y="-64.41" font-family="Helvetica,sans-Serif" font-size="10.00">10</text>
</a>
</g>
</g>
<!-- dir_7ab1db0ec535273aaa16e13087447790&#45;&gt;dir_cfc5afc38a17fd298438dc647b813568 -->
<g id="edge6" class="edge">
<title>dir_7ab1db0ec535273aaa16e13087447790&#45;&gt;dir_cfc5afc38a17fd298438dc647b813568</title>
<path fill="none" stroke="black" d="M52.89,-231.7C57.49,-223.64 63.06,-213.89 68.15,-204.98"/>
<polygon fill="black" stroke="black" points="71.3,-206.52 73.23,-196.1 65.23,-203.05 71.3,-206.52"/>
<g id="a_edge6&#45;headlabel"><a xlink:href="dir_000007_000009.html" target="_top" xlink:title="3">
<text text-anchor="middle" x="71.99" y="-208.55" font-family="Helvetica,sans-Serif" font-size="10.00">3</text>
</a>
</g>
</g>
</g>
</svg>
