<?xml version="1.0" encoding="UTF-8" standalone="no"?>
<!DOCTYPE svg PUBLIC "-//W3C//DTD SVG 1.1//EN"
 "http://www.w3.org/Graphics/SVG/1.1/DTD/svg11.dtd">
<!-- Generated by graphviz version 2.43.0 (0)
 -->
<!-- Title: /home/runner/work/occ/occ/include/occ/cg/distance_partition.h Pages: 1 -->
<svg width="1971pt" height="456pt"
 viewBox="0.00 0.00 1970.50 456.00" xmlns="http://www.w3.org/2000/svg" xmlns:xlink="http://www.w3.org/1999/xlink">
<g id="graph0" class="graph" transform="scale(1 1) rotate(0) translate(4 452)">
<title>/home/runner/work/occ/occ/include/occ/cg/distance_partition.h</title>
<!-- Node1 -->
<g id="Node000001" class="node">
<title>Node1</title>
<g id="a_Node000001"><a xlink:title=" ">
<polygon fill="#999999" stroke="#666666" points="747.5,-448 595.5,-448 595.5,-407 747.5,-407 747.5,-448"/>
<text text-anchor="start" x="603.5" y="-436" font-family="Helvetica,sans-Serif" font-size="10.00">/home/runner/work/occ</text>
<text text-anchor="start" x="603.5" y="-425" font-family="Helvetica,sans-Serif" font-size="10.00">/occ/include/occ/cg/distance</text>
<text text-anchor="middle" x="671.5" y="-414" font-family="Helvetica,sans-Serif" font-size="10.00">_partition.h</text>
</a>
</g>
</g>
<!-- Node2 -->
<g id="Node000002" class="node">
<title>Node2</title>
<g id="a_Node000002"><a xlink:href="solvation__contribution_8h.html" target="_top" xlink:title=" ">
<polygon fill="white" stroke="#666666" points="403.5,-371 235.5,-371 235.5,-352 403.5,-352 403.5,-371"/>
<text text-anchor="middle" x="319.5" y="-359" font-family="Helvetica,sans-Serif" font-size="10.00">occ/cg/solvation_contribution.h</text>
</a>
</g>
</g>
<!-- Node1&#45;&gt;Node2 -->
<g id="edge1_Node000001_Node000002" class="edge">
<title>Node1&#45;&gt;Node2</title>
<g id="a_edge1_Node000001_Node000002"><a xlink:title=" ">
<path fill="none" stroke="#63b8ff" d="M595.12,-412.61C529.27,-400.64 435.68,-383.62 376.28,-372.82"/>
<polygon fill="#63b8ff" stroke="#63b8ff" points="376.79,-369.36 366.33,-371.01 375.54,-376.25 376.79,-369.36"/>
</a>
</g>
</g>
<!-- Node4 -->
<g id="Node000004" class="node">
<title>Node4</title>
<g id="a_Node000004"><a xlink:href="solvent__surface_8h.html" target="_top" xlink:title=" ">
<polygon fill="white" stroke="#666666" points="1231,-371 1094,-371 1094,-352 1231,-352 1231,-371"/>
<text text-anchor="middle" x="1162.5" y="-359" font-family="Helvetica,sans-Serif" font-size="10.00">occ/cg/solvent_surface.h</text>
</a>
</g>
</g>
<!-- Node1&#45;&gt;Node4 -->
<g id="edge3_Node000001_Node000004" class="edge">
<title>Node1&#45;&gt;Node4</title>
<g id="a_edge3_Node000001_Node000004"><a xlink:title=" ">
<path fill="none" stroke="#63b8ff" d="M747.68,-416.57C840.11,-404.52 994.97,-384.34 1087.06,-372.33"/>
<polygon fill="#63b8ff" stroke="#63b8ff" points="1087.68,-375.78 1097.14,-371.02 1086.78,-368.84 1087.68,-375.78"/>
</a>
</g>
</g>
<!-- Node9 -->
<g id="Node000009" class="node">
<title>Node9</title>
<g id="a_Node000009"><a xlink:href="crystal_8h.html" target="_top" xlink:title=" ">
<polygon fill="white" stroke="#666666" points="728.5,-371 614.5,-371 614.5,-352 728.5,-352 728.5,-371"/>
<text text-anchor="middle" x="671.5" y="-359" font-family="Helvetica,sans-Serif" font-size="10.00">occ/crystal/crystal.h</text>
</a>
</g>
</g>
<!-- Node1&#45;&gt;Node9 -->
<g id="edge8_Node000001_Node000009" class="edge">
<title>Node1&#45;&gt;Node9</title>
<g id="a_edge8_Node000001_Node000009"><a xlink:title=" ">
<path fill="none" stroke="#63b8ff" d="M671.5,-406.95C671.5,-398.85 671.5,-389.5 671.5,-381.47"/>
<polygon fill="#63b8ff" stroke="#63b8ff" points="675,-381.26 671.5,-371.26 668,-381.26 675,-381.26"/>
</a>
</g>
</g>
<!-- Node3 -->
<g id="Node000003" class="node">
<title>Node3</title>
<g id="a_Node000003"><a xlink:title=" ">
<polygon fill="#e0e0e0" stroke="#999999" points="45,-310.5 0,-310.5 0,-291.5 45,-291.5 45,-310.5"/>
<text text-anchor="middle" x="22.5" y="-298.5" font-family="Helvetica,sans-Serif" font-size="10.00">utility</text>
</a>
</g>
</g>
<!-- Node2&#45;&gt;Node3 -->
<g id="edge2_Node000002_Node000003" class="edge">
<title>Node2&#45;&gt;Node3</title>
<g id="a_edge2_Node000002_Node000003"><a xlink:title=" ">
<path fill="none" stroke="#63b8ff" d="M247.52,-351.97C194.87,-344.81 122.03,-333.01 59.5,-316 57.21,-315.38 54.86,-314.67 52.51,-313.9"/>
<polygon fill="#63b8ff" stroke="#63b8ff" points="53.61,-310.58 43.01,-310.56 51.28,-317.18 53.61,-310.58"/>
</a>
</g>
</g>
<!-- Node5 -->
<g id="Node000005" class="node">
<title>Node5</title>
<g id="a_Node000005"><a xlink:href="linear__algebra_8h.html" target="_top" xlink:title=" ">
<polygon fill="white" stroke="#666666" points="1226,-74 1087,-74 1087,-55 1226,-55 1226,-74"/>
<text text-anchor="middle" x="1156.5" y="-62" font-family="Helvetica,sans-Serif" font-size="10.00">occ/core/linear_algebra.h</text>
</a>
</g>
</g>
<!-- Node4&#45;&gt;Node5 -->
<g id="edge4_Node000004_Node000005" class="edge">
<title>Node4&#45;&gt;Node5</title>
<g id="a_edge4_Node000004_Node000005"><a xlink:title=" ">
<path fill="none" stroke="#63b8ff" d="M1191.81,-351.96C1259.74,-330.31 1420.17,-267.59 1392.5,-165 1385.13,-137.7 1383.36,-126.65 1360.5,-110 1324.7,-83.94 1276.62,-72.62 1236.13,-67.9"/>
<polygon fill="#63b8ff" stroke="#63b8ff" points="1236.32,-64.4 1226.01,-66.84 1235.59,-71.36 1236.32,-64.4"/>
</a>
</g>
</g>
<!-- Node6 -->
<g id="Node000006" class="node">
<title>Node6</title>
<g id="a_Node000006"><a xlink:title=" ">
<polygon fill="#e0e0e0" stroke="#999999" points="1199,-19 1122,-19 1122,0 1199,0 1199,-19"/>
<text text-anchor="middle" x="1160.5" y="-7" font-family="Helvetica,sans-Serif" font-size="10.00">Eigen/Dense</text>
</a>
</g>
</g>
<!-- Node5&#45;&gt;Node6 -->
<g id="edge5_Node000005_Node000006" class="edge">
<title>Node5&#45;&gt;Node6</title>
<g id="a_edge5_Node000005_Node000006"><a xlink:title=" ">
<path fill="none" stroke="#63b8ff" d="M1157.16,-54.75C1157.68,-47.8 1158.44,-37.85 1159.09,-29.13"/>
<polygon fill="#63b8ff" stroke="#63b8ff" points="1162.59,-29.32 1159.85,-19.09 1155.61,-28.8 1162.59,-29.32"/>
</a>
</g>
</g>
<!-- Node7 -->
<g id="Node000007" class="node">
<title>Node7</title>
<g id="a_Node000007"><a xlink:title=" ">
<polygon fill="#e0e0e0" stroke="#999999" points="1104,-19 1011,-19 1011,0 1104,0 1104,-19"/>
<text text-anchor="middle" x="1057.5" y="-7" font-family="Helvetica,sans-Serif" font-size="10.00">Eigen/StdVector</text>
</a>
</g>
</g>
<!-- Node5&#45;&gt;Node7 -->
<g id="edge6_Node000005_Node000007" class="edge">
<title>Node5&#45;&gt;Node7</title>
<g id="a_edge6_Node000005_Node000007"><a xlink:title=" ">
<path fill="none" stroke="#63b8ff" d="M1140.59,-54.98C1124.95,-46.61 1100.84,-33.7 1082.62,-23.95"/>
<polygon fill="#63b8ff" stroke="#63b8ff" points="1084.16,-20.8 1073.7,-19.17 1080.86,-26.98 1084.16,-20.8"/>
</a>
</g>
</g>
<!-- Node8 -->
<g id="Node000008" class="node">
<title>Node8</title>
<g id="a_Node000008"><a xlink:title=" ">
<polygon fill="#e0e0e0" stroke="#999999" points="1288,-19 1221,-19 1221,0 1288,0 1288,-19"/>
<text text-anchor="middle" x="1254.5" y="-7" font-family="Helvetica,sans-Serif" font-size="10.00">fmt/core.h</text>
</a>
</g>
</g>
<!-- Node5&#45;&gt;Node8 -->
<g id="edge7_Node000005_Node000008" class="edge">
<title>Node5&#45;&gt;Node8</title>
<g id="a_edge7_Node000005_Node000008"><a xlink:title=" ">
<path fill="none" stroke="#63b8ff" d="M1172.25,-54.98C1187.73,-46.61 1211.59,-33.7 1229.64,-23.95"/>
<polygon fill="#63b8ff" stroke="#63b8ff" points="1231.34,-27.01 1238.47,-19.17 1228.01,-20.85 1231.34,-27.01"/>
</a>
</g>
</g>
<!-- Node9&#45;&gt;Node5 -->
<g id="edge27_Node000009_Node000005" class="edge">
<title>Node9&#45;&gt;Node5</title>
<g id="a_edge27_Node000009_Node000005"><a xlink:title=" ">
<path fill="none" stroke="#63b8ff" d="M728.66,-355.44C842.1,-344.13 1089.36,-312.72 1142.5,-250 1182.96,-202.25 1169.94,-120.31 1161.41,-83.88"/>
<polygon fill="#63b8ff" stroke="#63b8ff" points="1164.79,-82.98 1158.97,-74.13 1158,-84.68 1164.79,-82.98"/>
</a>
</g>
</g>
<!-- Node10 -->
<g id="Node000010" class="node">
<title>Node10</title>
<g id="a_Node000010"><a xlink:href="bondgraph_8h.html" target="_top" xlink:title=" ">
<polygon fill="white" stroke="#666666" points="282,-310.5 161,-310.5 161,-291.5 282,-291.5 282,-310.5"/>
<text text-anchor="middle" x="221.5" y="-298.5" font-family="Helvetica,sans-Serif" font-size="10.00">occ/core/bondgraph.h</text>
</a>
</g>
</g>
<!-- Node9&#45;&gt;Node10 -->
<g id="edge9_Node000009_Node000010" class="edge">
<title>Node9&#45;&gt;Node10</title>
<g id="a_edge9_Node000009_Node000010"><a xlink:title=" ">
<path fill="none" stroke="#63b8ff" d="M614.41,-353.21C545.98,-344.46 427.85,-329.29 326.5,-316 315.36,-314.54 303.55,-312.98 292.04,-311.45"/>
<polygon fill="#63b8ff" stroke="#63b8ff" points="292.39,-307.96 282.02,-310.11 291.47,-314.9 292.39,-307.96"/>
</a>
</g>
</g>
<!-- Node16 -->
<g id="Node000016" class="node">
<title>Node16</title>
<g id="a_Node000016"><a xlink:href="dimer_8h.html" target="_top" xlink:title=" ">
<polygon fill="white" stroke="#666666" points="352,-250 255,-250 255,-231 352,-231 352,-250"/>
<text text-anchor="middle" x="303.5" y="-238" font-family="Helvetica,sans-Serif" font-size="10.00">occ/core/dimer.h</text>
</a>
</g>
</g>
<!-- Node9&#45;&gt;Node16 -->
<g id="edge15_Node000009_Node000016" class="edge">
<title>Node9&#45;&gt;Node16</title>
<g id="a_edge15_Node000009_Node000016"><a xlink:title=" ">
<path fill="none" stroke="#63b8ff" d="M614.23,-356.35C539.97,-350.21 415.16,-337.12 374.5,-316 348.81,-302.66 327.2,-276.37 314.8,-258.86"/>
<polygon fill="#63b8ff" stroke="#63b8ff" points="317.41,-256.47 308.89,-250.18 311.62,-260.41 317.41,-256.47"/>
</a>
</g>
</g>
<!-- Node17 -->
<g id="Node000017" class="node">
<title>Node17</title>
<g id="a_Node000017"><a xlink:href="molecule_8h.html" target="_top" xlink:title=" ">
<polygon fill="white" stroke="#666666" points="958.5,-189.5 844.5,-189.5 844.5,-170.5 958.5,-170.5 958.5,-189.5"/>
<text text-anchor="middle" x="901.5" y="-177.5" font-family="Helvetica,sans-Serif" font-size="10.00">occ/core/molecule.h</text>
</a>
</g>
</g>
<!-- Node9&#45;&gt;Node17 -->
<g id="edge28_Node000009_Node000017" class="edge">
<title>Node9&#45;&gt;Node17</title>
<g id="a_edge28_Node000009_Node000017"><a xlink:title=" ">
<path fill="none" stroke="#63b8ff" d="M728.56,-353.44C787.09,-342.67 874.27,-315.86 908.5,-250 916.64,-234.33 913.16,-213.98 908.7,-199.44"/>
<polygon fill="#63b8ff" stroke="#63b8ff" points="911.88,-197.92 905.27,-189.64 905.27,-200.23 911.88,-197.92"/>
</a>
</g>
</g>
<!-- Node22 -->
<g id="Node000022" class="node">
<title>Node22</title>
<g id="a_Node000022"><a xlink:title=" ">
<polygon fill="#e0e0e0" stroke="#999999" points="555,-74 508,-74 508,-55 555,-55 555,-74"/>
<text text-anchor="middle" x="531.5" y="-62" font-family="Helvetica,sans-Serif" font-size="10.00">vector</text>
</a>
</g>
</g>
<!-- Node9&#45;&gt;Node22 -->
<g id="edge72_Node000009_Node000022" class="edge">
<title>Node9&#45;&gt;Node22</title>
<g id="a_edge72_Node000009_Node000022"><a xlink:title=" ">
<path fill="none" stroke="#63b8ff" d="M614.14,-357.74C487.68,-351.36 192.85,-334.66 151.5,-316 107.8,-296.28 73.5,-289.44 73.5,-241.5 73.5,-241.5 73.5,-241.5 73.5,-179 73.5,-91.58 391.82,-71.04 497.7,-66.62"/>
<polygon fill="#63b8ff" stroke="#63b8ff" points="497.99,-70.11 507.84,-66.22 497.71,-63.12 497.99,-70.11"/>
</a>
</g>
</g>
<!-- Node24 -->
<g id="Node000024" class="node">
<title>Node24</title>
<g id="a_Node000024"><a xlink:href="asymmetric__unit_8h.html" target="_top" xlink:title=" ">
<polygon fill="white" stroke="#666666" points="672,-195 541,-195 541,-165 672,-165 672,-195"/>
<text text-anchor="start" x="549" y="-183" font-family="Helvetica,sans-Serif" font-size="10.00">occ/crystal/asymmetric</text>
<text text-anchor="middle" x="606.5" y="-172" font-family="Helvetica,sans-Serif" font-size="10.00">_unit.h</text>
</a>
</g>
</g>
<!-- Node9&#45;&gt;Node24 -->
<g id="edge29_Node000009_Node000024" class="edge">
<title>Node9&#45;&gt;Node24</title>
<g id="a_edge29_Node000009_Node000024"><a xlink:title=" ">
<path fill="none" stroke="#63b8ff" d="M668.36,-351.84C658.8,-325.43 629.76,-245.22 615.12,-204.81"/>
<polygon fill="#63b8ff" stroke="#63b8ff" points="618.35,-203.43 611.65,-195.22 611.76,-205.82 618.35,-203.43"/>
</a>
</g>
</g>
<!-- Node25 -->
<g id="Node000025" class="node">
<title>Node25</title>
<g id="a_Node000025"><a xlink:href="hkl_8h.html" target="_top" xlink:title=" ">
<polygon fill="white" stroke="#666666" points="1302.5,-129 1206.5,-129 1206.5,-110 1302.5,-110 1302.5,-129"/>
<text text-anchor="middle" x="1254.5" y="-117" font-family="Helvetica,sans-Serif" font-size="10.00">occ/crystal/hkl.h</text>
</a>
</g>
</g>
<!-- Node9&#45;&gt;Node25 -->
<g id="edge34_Node000009_Node000025" class="edge">
<title>Node9&#45;&gt;Node25</title>
<g id="a_edge34_Node000009_Node000025"><a xlink:title=" ">
<path fill="none" stroke="#63b8ff" d="M728.9,-359.61C860.96,-357.02 1177.75,-347.55 1213.5,-316 1239.88,-292.73 1250.2,-183.57 1253.34,-139.26"/>
<polygon fill="#63b8ff" stroke="#63b8ff" points="1256.85,-139.25 1254.02,-129.04 1249.87,-138.79 1256.85,-139.25"/>
</a>
</g>
</g>
<!-- Node26 -->
<g id="Node000026" class="node">
<title>Node26</title>
<g id="a_Node000026"><a xlink:href="site__mapping__table_8h.html" target="_top" xlink:title=" ">
<polygon fill="white" stroke="#666666" points="521.5,-316 383.5,-316 383.5,-286 521.5,-286 521.5,-316"/>
<text text-anchor="start" x="391.5" y="-304" font-family="Helvetica,sans-Serif" font-size="10.00">occ/crystal/site_mapping</text>
<text text-anchor="middle" x="452.5" y="-293" font-family="Helvetica,sans-Serif" font-size="10.00">_table.h</text>
</a>
</g>
</g>
<!-- Node9&#45;&gt;Node26 -->
<g id="edge37_Node000009_Node000026" class="edge">
<title>Node9&#45;&gt;Node26</title>
<g id="a_edge37_Node000009_Node000026"><a xlink:title=" ">
<path fill="none" stroke="#63b8ff" d="M639.66,-351.99C607.11,-343.3 555.69,-329.57 514.99,-318.69"/>
<polygon fill="#63b8ff" stroke="#63b8ff" points="515.72,-315.26 505.15,-316.06 513.91,-322.03 515.72,-315.26"/>
</a>
</g>
</g>
<!-- Node28 -->
<g id="Node000028" class="node">
<title>Node28</title>
<g id="a_Node000028"><a xlink:href="spacegroup_8h.html" target="_top" xlink:title=" ">
<polygon fill="white" stroke="#666666" points="805,-310.5 668,-310.5 668,-291.5 805,-291.5 805,-310.5"/>
<text text-anchor="middle" x="736.5" y="-298.5" font-family="Helvetica,sans-Serif" font-size="10.00">occ/crystal/spacegroup.h</text>
</a>
</g>
</g>
<!-- Node9&#45;&gt;Node28 -->
<g id="edge43_Node000009_Node000028" class="edge">
<title>Node9&#45;&gt;Node28</title>
<g id="a_edge43_Node000009_Node000028"><a xlink:title=" ">
<path fill="none" stroke="#63b8ff" d="M681.09,-351.87C691.08,-342.88 706.93,-328.61 719.13,-317.64"/>
<polygon fill="#63b8ff" stroke="#63b8ff" points="721.78,-319.96 726.87,-310.67 717.1,-314.76 721.78,-319.96"/>
</a>
</g>
</g>
<!-- Node32 -->
<g id="Node000032" class="node">
<title>Node32</title>
<g id="a_Node000032"><a xlink:href="unitcell_8h.html" target="_top" xlink:title=" ">
<polygon fill="white" stroke="#666666" points="1383,-189.5 1266,-189.5 1266,-170.5 1383,-170.5 1383,-189.5"/>
<text text-anchor="middle" x="1324.5" y="-177.5" font-family="Helvetica,sans-Serif" font-size="10.00">occ/crystal/unitcell.h</text>
</a>
</g>
</g>
<!-- Node9&#45;&gt;Node32 -->
<g id="edge71_Node000009_Node000032" class="edge">
<title>Node9&#45;&gt;Node32</title>
<g id="a_edge71_Node000009_Node000032"><a xlink:title=" ">
<path fill="none" stroke="#63b8ff" d="M728.73,-359.2C866.48,-355.62 1208.35,-344.01 1251.5,-316 1293.11,-288.98 1312.81,-229.84 1320.46,-199.61"/>
<polygon fill="#63b8ff" stroke="#63b8ff" points="1323.94,-200.09 1322.82,-189.56 1317.13,-198.49 1323.94,-200.09"/>
</a>
</g>
</g>
<!-- Node11 -->
<g id="Node000011" class="node">
<title>Node11</title>
<g id="a_Node000011"><a xlink:href="graph_8h.html" target="_top" xlink:title=" ">
<polygon fill="white" stroke="#666666" points="237,-250 140,-250 140,-231 237,-231 237,-250"/>
<text text-anchor="middle" x="188.5" y="-238" font-family="Helvetica,sans-Serif" font-size="10.00">occ/core/graph.h</text>
</a>
</g>
</g>
<!-- Node10&#45;&gt;Node11 -->
<g id="edge10_Node000010_Node000011" class="edge">
<title>Node10&#45;&gt;Node11</title>
<g id="a_edge10_Node000010_Node000011"><a xlink:title=" ">
<path fill="none" stroke="#63b8ff" d="M216.63,-291.37C211.85,-282.9 204.43,-269.74 198.41,-259.07"/>
<polygon fill="#63b8ff" stroke="#63b8ff" points="201.35,-257.16 193.39,-250.17 195.25,-260.6 201.35,-257.16"/>
</a>
</g>
</g>
<!-- Node12 -->
<g id="Node000012" class="node">
<title>Node12</title>
<g id="a_Node000012"><a xlink:title=" ">
<polygon fill="#e0e0e0" stroke="#999999" points="446,-189.5 303,-189.5 303,-170.5 446,-170.5 446,-189.5"/>
<text text-anchor="middle" x="374.5" y="-177.5" font-family="Helvetica,sans-Serif" font-size="10.00">ankerl/unordered_dense.h</text>
</a>
</g>
</g>
<!-- Node11&#45;&gt;Node12 -->
<g id="edge11_Node000011_Node000012" class="edge">
<title>Node11&#45;&gt;Node12</title>
<g id="a_edge11_Node000011_Node000012"><a xlink:title=" ">
<path fill="none" stroke="#63b8ff" d="M215.55,-230.99C247.78,-220.86 301.79,-203.87 337.78,-192.55"/>
<polygon fill="#63b8ff" stroke="#63b8ff" points="338.93,-195.86 347.42,-189.52 336.83,-189.18 338.93,-195.86"/>
</a>
</g>
</g>
<!-- Node13 -->
<g id="Node000013" class="node">
<title>Node13</title>
<g id="a_Node000013"><a xlink:title=" ">
<polygon fill="#e0e0e0" stroke="#999999" points="284.5,-189.5 228.5,-189.5 228.5,-170.5 284.5,-170.5 284.5,-189.5"/>
<text text-anchor="middle" x="256.5" y="-177.5" font-family="Helvetica,sans-Serif" font-size="10.00">optional</text>
</a>
</g>
</g>
<!-- Node11&#45;&gt;Node13 -->
<g id="edge12_Node000011_Node000013" class="edge">
<title>Node11&#45;&gt;Node13</title>
<g id="a_edge12_Node000011_Node000013"><a xlink:title=" ">
<path fill="none" stroke="#63b8ff" d="M198.53,-230.87C209.08,-221.8 225.89,-207.34 238.69,-196.32"/>
<polygon fill="#63b8ff" stroke="#63b8ff" points="241.13,-198.84 246.43,-189.67 236.56,-193.54 241.13,-198.84"/>
</a>
</g>
</g>
<!-- Node14 -->
<g id="Node000014" class="node">
<title>Node14</title>
<g id="a_Node000014"><a xlink:title=" ">
<polygon fill="#e0e0e0" stroke="#999999" points="149,-189.5 102,-189.5 102,-170.5 149,-170.5 149,-189.5"/>
<text text-anchor="middle" x="125.5" y="-177.5" font-family="Helvetica,sans-Serif" font-size="10.00">queue</text>
</a>
</g>
</g>
<!-- Node11&#45;&gt;Node14 -->
<g id="edge13_Node000011_Node000014" class="edge">
<title>Node11&#45;&gt;Node14</title>
<g id="a_edge13_Node000011_Node000014"><a xlink:title=" ">
<path fill="none" stroke="#63b8ff" d="M179.2,-230.87C169.53,-221.88 154.16,-207.61 142.34,-196.64"/>
<polygon fill="#63b8ff" stroke="#63b8ff" points="144.54,-193.91 134.83,-189.67 139.78,-199.04 144.54,-193.91"/>
</a>
</g>
</g>
<!-- Node15 -->
<g id="Node000015" class="node">
<title>Node15</title>
<g id="a_Node000015"><a xlink:title=" ">
<polygon fill="#e0e0e0" stroke="#999999" points="210,-189.5 167,-189.5 167,-170.5 210,-170.5 210,-189.5"/>
<text text-anchor="middle" x="188.5" y="-177.5" font-family="Helvetica,sans-Serif" font-size="10.00">stack</text>
</a>
</g>
</g>
<!-- Node11&#45;&gt;Node15 -->
<g id="edge14_Node000011_Node000015" class="edge">
<title>Node11&#45;&gt;Node15</title>
<g id="a_edge14_Node000011_Node000015"><a xlink:title=" ">
<path fill="none" stroke="#63b8ff" d="M188.5,-230.87C188.5,-222.75 188.5,-210.31 188.5,-199.89"/>
<polygon fill="#63b8ff" stroke="#63b8ff" points="192,-199.67 188.5,-189.67 185,-199.67 192,-199.67"/>
</a>
</g>
</g>
<!-- Node16&#45;&gt;Node12 -->
<g id="edge16_Node000016_Node000012" class="edge">
<title>Node16&#45;&gt;Node12</title>
<g id="a_edge16_Node000016_Node000012"><a xlink:title=" ">
<path fill="none" stroke="#63b8ff" d="M313.98,-230.87C324.99,-221.8 342.54,-207.34 355.91,-196.32"/>
<polygon fill="#63b8ff" stroke="#63b8ff" points="358.49,-198.73 363.98,-189.67 354.04,-193.33 358.49,-198.73"/>
</a>
</g>
</g>
<!-- Node16&#45;&gt;Node13 -->
<g id="edge26_Node000016_Node000013" class="edge">
<title>Node16&#45;&gt;Node13</title>
<g id="a_edge26_Node000016_Node000013"><a xlink:title=" ">
<path fill="none" stroke="#63b8ff" d="M296.56,-230.87C289.55,-222.14 278.54,-208.43 269.83,-197.59"/>
<polygon fill="#63b8ff" stroke="#63b8ff" points="272.46,-195.27 263.46,-189.67 267,-199.66 272.46,-195.27"/>
</a>
</g>
</g>
<!-- Node16&#45;&gt;Node17 -->
<g id="edge17_Node000016_Node000017" class="edge">
<title>Node16&#45;&gt;Node17</title>
<g id="a_edge17_Node000016_Node000017"><a xlink:title=" ">
<path fill="none" stroke="#63b8ff" d="M352.29,-232.04C355.07,-231.67 357.82,-231.32 360.5,-231 530.48,-210.49 731.4,-193.93 833.93,-186.03"/>
<polygon fill="#63b8ff" stroke="#63b8ff" points="834.43,-189.5 844.14,-185.24 833.9,-182.52 834.43,-189.5"/>
</a>
</g>
</g>
<!-- Node17&#45;&gt;Node5 -->
<g id="edge24_Node000017_Node000005" class="edge">
<title>Node17&#45;&gt;Node5</title>
<g id="a_edge24_Node000017_Node000005"><a xlink:title=" ">
<path fill="none" stroke="#63b8ff" d="M912.45,-170.44C931.18,-156.15 970.97,-127.32 1008.5,-110 1040.21,-95.37 1077.93,-84.11 1107.35,-76.58"/>
<polygon fill="#63b8ff" stroke="#63b8ff" points="1108.54,-79.89 1117.39,-74.07 1106.84,-73.1 1108.54,-79.89"/>
</a>
</g>
</g>
<!-- Node18 -->
<g id="Node000018" class="node">
<title>Node18</title>
<g id="a_Node000018"><a xlink:title=" ">
<polygon fill="#e0e0e0" stroke="#999999" points="922.5,-129 880.5,-129 880.5,-110 922.5,-110 922.5,-129"/>
<text text-anchor="middle" x="901.5" y="-117" font-family="Helvetica,sans-Serif" font-size="10.00">array</text>
</a>
</g>
</g>
<!-- Node17&#45;&gt;Node18 -->
<g id="edge18_Node000017_Node000018" class="edge">
<title>Node17&#45;&gt;Node18</title>
<g id="a_edge18_Node000017_Node000018"><a xlink:title=" ">
<path fill="none" stroke="#63b8ff" d="M901.5,-170.37C901.5,-162.25 901.5,-149.81 901.5,-139.39"/>
<polygon fill="#63b8ff" stroke="#63b8ff" points="905,-139.17 901.5,-129.17 898,-139.17 905,-139.17"/>
</a>
</g>
</g>
<!-- Node19 -->
<g id="Node000019" class="node">
<title>Node19</title>
<g id="a_Node000019"><a xlink:href="atom_8h.html" target="_top" xlink:title=" ">
<polygon fill="white" stroke="#666666" points="1112,-129 1017,-129 1017,-110 1112,-110 1112,-129"/>
<text text-anchor="middle" x="1064.5" y="-117" font-family="Helvetica,sans-Serif" font-size="10.00">occ/core/atom.h</text>
</a>
</g>
</g>
<!-- Node17&#45;&gt;Node19 -->
<g id="edge19_Node000017_Node000019" class="edge">
<title>Node17&#45;&gt;Node19</title>
<g id="a_edge19_Node000017_Node000019"><a xlink:title=" ">
<path fill="none" stroke="#63b8ff" d="M925.2,-170.49C953.09,-160.49 999.57,-143.8 1031.1,-132.49"/>
<polygon fill="#63b8ff" stroke="#63b8ff" points="1032.54,-135.69 1040.77,-129.02 1030.18,-129.1 1032.54,-135.69"/>
</a>
</g>
</g>
<!-- Node20 -->
<g id="Node000020" class="node">
<title>Node20</title>
<g id="a_Node000020"><a xlink:href="element_8h.html" target="_top" xlink:title=" ">
<polygon fill="white" stroke="#666666" points="726.5,-129 616.5,-129 616.5,-110 726.5,-110 726.5,-129"/>
<text text-anchor="middle" x="671.5" y="-117" font-family="Helvetica,sans-Serif" font-size="10.00">occ/core/element.h</text>
</a>
</g>
</g>
<!-- Node17&#45;&gt;Node20 -->
<g id="edge21_Node000017_Node000020" class="edge">
<title>Node17&#45;&gt;Node20</title>
<g id="a_edge21_Node000017_Node000020"><a xlink:title=" ">
<path fill="none" stroke="#63b8ff" d="M868.06,-170.49C827.6,-160.2 759.4,-142.86 714.92,-131.54"/>
<polygon fill="#63b8ff" stroke="#63b8ff" points="715.54,-128.09 704.98,-129.02 713.81,-134.87 715.54,-128.09"/>
</a>
</g>
</g>
<!-- Node23 -->
<g id="Node000023" class="node">
<title>Node23</title>
<g id="a_Node000023"><a xlink:title=" ">
<polygon fill="#e0e0e0" stroke="#999999" points="862,-129 821,-129 821,-110 862,-110 862,-129"/>
<text text-anchor="middle" x="841.5" y="-117" font-family="Helvetica,sans-Serif" font-size="10.00">tuple</text>
</a>
</g>
</g>
<!-- Node17&#45;&gt;Node23 -->
<g id="edge25_Node000017_Node000023" class="edge">
<title>Node17&#45;&gt;Node23</title>
<g id="a_edge25_Node000017_Node000023"><a xlink:title=" ">
<path fill="none" stroke="#63b8ff" d="M892.65,-170.37C883.52,-161.47 869.08,-147.39 857.86,-136.45"/>
<polygon fill="#63b8ff" stroke="#63b8ff" points="859.99,-133.64 850.39,-129.17 855.11,-138.65 859.99,-133.64"/>
</a>
</g>
</g>
<!-- Node19&#45;&gt;Node5 -->
<g id="edge20_Node000019_Node000005" class="edge">
<title>Node19&#45;&gt;Node5</title>
<g id="a_edge20_Node000019_Node000005"><a xlink:title=" ">
<path fill="none" stroke="#63b8ff" d="M1079.28,-109.98C1093.68,-101.69 1115.81,-88.94 1132.69,-79.22"/>
<polygon fill="#63b8ff" stroke="#63b8ff" points="1134.53,-82.19 1141.45,-74.17 1131.04,-76.13 1134.53,-82.19"/>
</a>
</g>
</g>
<!-- Node21 -->
<g id="Node000021" class="node">
<title>Node21</title>
<g id="a_Node000021"><a xlink:title=" ">
<polygon fill="#e0e0e0" stroke="#999999" points="912.5,-74 868.5,-74 868.5,-55 912.5,-55 912.5,-74"/>
<text text-anchor="middle" x="890.5" y="-62" font-family="Helvetica,sans-Serif" font-size="10.00">string</text>
</a>
</g>
</g>
<!-- Node20&#45;&gt;Node21 -->
<g id="edge22_Node000020_Node000021" class="edge">
<title>Node20&#45;&gt;Node21</title>
<g id="a_edge22_Node000020_Node000021"><a xlink:title=" ">
<path fill="none" stroke="#63b8ff" d="M706.69,-109.98C748.62,-99.84 818.08,-83.03 858.54,-73.23"/>
<polygon fill="#63b8ff" stroke="#63b8ff" points="859.51,-76.6 868.41,-70.85 857.87,-69.8 859.51,-76.6"/>
</a>
</g>
</g>
<!-- Node20&#45;&gt;Node22 -->
<g id="edge23_Node000020_Node000022" class="edge">
<title>Node20&#45;&gt;Node22</title>
<g id="a_edge23_Node000020_Node000022"><a xlink:title=" ">
<path fill="none" stroke="#63b8ff" d="M649.01,-109.98C625.98,-101.27 589.96,-87.63 563.87,-77.75"/>
<polygon fill="#63b8ff" stroke="#63b8ff" points="564.99,-74.44 554.4,-74.17 562.52,-80.98 564.99,-74.44"/>
</a>
</g>
</g>
<!-- Node24&#45;&gt;Node5 -->
<g id="edge31_Node000024_Node000005" class="edge">
<title>Node24&#45;&gt;Node5</title>
<g id="a_edge31_Node000024_Node000005"><a xlink:title=" ">
<path fill="none" stroke="#63b8ff" d="M641.62,-164.9C682.15,-149.17 751.11,-124.11 812.5,-110 901.86,-89.46 1006.62,-77.61 1076.84,-71.38"/>
<polygon fill="#63b8ff" stroke="#63b8ff" points="1077.28,-74.86 1086.94,-70.5 1076.68,-67.88 1077.28,-74.86"/>
</a>
</g>
</g>
<!-- Node24&#45;&gt;Node20 -->
<g id="edge30_Node000024_Node000020" class="edge">
<title>Node24&#45;&gt;Node20</title>
<g id="a_edge30_Node000024_Node000020"><a xlink:title=" ">
<path fill="none" stroke="#63b8ff" d="M622.23,-164.84C631.86,-156.17 644.19,-145.08 654.11,-136.15"/>
<polygon fill="#63b8ff" stroke="#63b8ff" points="656.67,-138.56 661.76,-129.27 651.99,-133.35 656.67,-138.56"/>
</a>
</g>
</g>
<!-- Node24&#45;&gt;Node21 -->
<g id="edge32_Node000024_Node000021" class="edge">
<title>Node24&#45;&gt;Node21</title>
<g id="a_edge32_Node000024_Node000021"><a xlink:title=" ">
<path fill="none" stroke="#63b8ff" d="M601.95,-164.98C597.92,-149.57 594.47,-125.02 607.5,-110 639.75,-72.83 791.28,-66.53 858.38,-65.59"/>
<polygon fill="#63b8ff" stroke="#63b8ff" points="858.43,-69.09 868.4,-65.48 858.36,-62.09 858.43,-69.09"/>
</a>
</g>
</g>
<!-- Node24&#45;&gt;Node22 -->
<g id="edge33_Node000024_Node000022" class="edge">
<title>Node24&#45;&gt;Node22</title>
<g id="a_edge33_Node000024_Node000022"><a xlink:title=" ">
<path fill="none" stroke="#63b8ff" d="M597,-164.63C583.21,-143.75 557.66,-105.09 542.88,-82.72"/>
<polygon fill="#63b8ff" stroke="#63b8ff" points="545.7,-80.64 537.27,-74.23 539.86,-84.5 545.7,-80.64"/>
</a>
</g>
</g>
<!-- Node25&#45;&gt;Node5 -->
<g id="edge36_Node000025_Node000005" class="edge">
<title>Node25&#45;&gt;Node5</title>
<g id="a_edge36_Node000025_Node000005"><a xlink:title=" ">
<path fill="none" stroke="#63b8ff" d="M1238.75,-109.98C1223.27,-101.61 1199.41,-88.7 1181.36,-78.95"/>
<polygon fill="#63b8ff" stroke="#63b8ff" points="1182.99,-75.85 1172.53,-74.17 1179.66,-82.01 1182.99,-75.85"/>
</a>
</g>
</g>
<!-- Node25&#45;&gt;Node8 -->
<g id="edge35_Node000025_Node000008" class="edge">
<title>Node25&#45;&gt;Node8</title>
<g id="a_edge35_Node000025_Node000008"><a xlink:title=" ">
<path fill="none" stroke="#63b8ff" d="M1254.5,-109.66C1254.5,-92.17 1254.5,-52.8 1254.5,-29.27"/>
<polygon fill="#63b8ff" stroke="#63b8ff" points="1258,-29.16 1254.5,-19.16 1251,-29.16 1258,-29.16"/>
</a>
</g>
</g>
<!-- Node26&#45;&gt;Node11 -->
<g id="edge38_Node000026_Node000011" class="edge">
<title>Node26&#45;&gt;Node11</title>
<g id="a_edge38_Node000026_Node000011"><a xlink:title=" ">
<path fill="none" stroke="#63b8ff" d="M389.27,-285.99C342.52,-275.63 279.81,-261.73 237,-252.25"/>
<polygon fill="#63b8ff" stroke="#63b8ff" points="237.62,-248.8 227.1,-250.05 236.11,-255.63 237.62,-248.8"/>
</a>
</g>
</g>
<!-- Node26&#45;&gt;Node22 -->
<g id="edge42_Node000026_Node000022" class="edge">
<title>Node26&#45;&gt;Node22</title>
<g id="a_edge42_Node000026_Node000022"><a xlink:title=" ">
<path fill="none" stroke="#63b8ff" d="M476.67,-285.9C488.96,-277.26 502.71,-264.99 509.5,-250 519.79,-227.29 502.18,-219.66 498.5,-195 492.92,-157.64 486.65,-145.87 498.5,-110 501.96,-99.54 508.93,-89.53 515.58,-81.66"/>
<polygon fill="#63b8ff" stroke="#63b8ff" points="518.36,-83.8 522.48,-74.04 513.17,-79.1 518.36,-83.8"/>
</a>
</g>
</g>
<!-- Node27 -->
<g id="Node000027" class="node">
<title>Node27</title>
<g id="a_Node000027"><a xlink:href="site__index_8h.html" target="_top" xlink:title=" ">
<polygon fill="white" stroke="#666666" points="501,-250 370,-250 370,-231 501,-231 501,-250"/>
<text text-anchor="middle" x="435.5" y="-238" font-family="Helvetica,sans-Serif" font-size="10.00">occ/crystal/site_index.h</text>
</a>
</g>
</g>
<!-- Node26&#45;&gt;Node27 -->
<g id="edge39_Node000026_Node000027" class="edge">
<title>Node26&#45;&gt;Node27</title>
<g id="a_edge39_Node000026_Node000027"><a xlink:title=" ">
<path fill="none" stroke="#63b8ff" d="M448.38,-285.84C446.12,-278.04 443.28,-268.27 440.84,-259.89"/>
<polygon fill="#63b8ff" stroke="#63b8ff" points="444.2,-258.89 438.05,-250.27 437.48,-260.85 444.2,-258.89"/>
</a>
</g>
</g>
<!-- Node27&#45;&gt;Node12 -->
<g id="edge40_Node000027_Node000012" class="edge">
<title>Node27&#45;&gt;Node12</title>
<g id="a_edge40_Node000027_Node000012"><a xlink:title=" ">
<path fill="none" stroke="#63b8ff" d="M426.5,-230.87C417.13,-221.88 402.25,-207.61 390.8,-196.64"/>
<polygon fill="#63b8ff" stroke="#63b8ff" points="393.18,-194.06 383.54,-189.67 388.33,-199.12 393.18,-194.06"/>
</a>
</g>
</g>
<!-- Node27&#45;&gt;Node25 -->
<g id="edge41_Node000027_Node000025" class="edge">
<title>Node27&#45;&gt;Node25</title>
<g id="a_edge41_Node000027_Node000025"><a xlink:title=" ">
<path fill="none" stroke="#63b8ff" d="M501.06,-237.61C601.93,-233.9 800.98,-223.36 967.5,-195 1059.03,-179.41 1164.06,-148.8 1218.12,-132.08"/>
<polygon fill="#63b8ff" stroke="#63b8ff" points="1219.42,-135.34 1227.93,-129.03 1217.34,-128.66 1219.42,-135.34"/>
</a>
</g>
</g>
<!-- Node28&#45;&gt;Node21 -->
<g id="edge68_Node000028_Node000021" class="edge">
<title>Node28&#45;&gt;Node21</title>
<g id="a_edge68_Node000028_Node000021"><a xlink:title=" ">
<path fill="none" stroke="#63b8ff" d="M728.38,-291.25C720.27,-281.87 708.35,-266.14 703.5,-250 692.06,-211.91 706.25,-195.73 731.5,-165 766.08,-122.91 823.35,-93.34 858.9,-77.9"/>
<polygon fill="#63b8ff" stroke="#63b8ff" points="860.47,-81.04 868.31,-73.93 857.74,-74.6 860.47,-81.04"/>
</a>
</g>
</g>
<!-- Node28&#45;&gt;Node22 -->
<g id="edge70_Node000028_Node000022" class="edge">
<title>Node28&#45;&gt;Node22</title>
<g id="a_edge70_Node000028_Node000022"><a xlink:title=" ">
<path fill="none" stroke="#63b8ff" d="M692.03,-291.41C642.96,-279.3 566.33,-251.97 531.5,-195 510.46,-160.59 518.91,-110.82 525.85,-84.11"/>
<polygon fill="#63b8ff" stroke="#63b8ff" points="529.3,-84.76 528.64,-74.19 522.56,-82.87 529.3,-84.76"/>
</a>
</g>
</g>
<!-- Node28&#45;&gt;Node23 -->
<g id="edge69_Node000028_Node000023" class="edge">
<title>Node28&#45;&gt;Node23</title>
<g id="a_edge69_Node000028_Node000023"><a xlink:title=" ">
<path fill="none" stroke="#63b8ff" d="M728.78,-291.33C717.96,-278.09 700.68,-252.13 710.5,-231 731.86,-185.03 782.81,-151.3 814.51,-133.89"/>
<polygon fill="#63b8ff" stroke="#63b8ff" points="816.49,-136.8 823.67,-129.01 813.2,-130.62 816.49,-136.8"/>
</a>
</g>
</g>
<!-- Node28&#45;&gt;Node25 -->
<g id="edge46_Node000028_Node000025" class="edge">
<title>Node28&#45;&gt;Node25</title>
<g id="a_edge46_Node000028_Node000025"><a xlink:title=" ">
<path fill="none" stroke="#63b8ff" d="M805.19,-297.47C905.33,-292.79 1085.64,-280.34 1142.5,-250 1167.8,-236.5 1218.59,-169.78 1242.07,-137.74"/>
<polygon fill="#63b8ff" stroke="#63b8ff" points="1245.12,-139.49 1248.18,-129.35 1239.46,-135.37 1245.12,-139.49"/>
</a>
</g>
</g>
<!-- Node29 -->
<g id="Node000029" class="node">
<title>Node29</title>
<g id="a_Node000029"><a xlink:title=" ">
<polygon fill="#e0e0e0" stroke="#999999" points="843.5,-250 719.5,-250 719.5,-231 843.5,-231 843.5,-250"/>
<text text-anchor="middle" x="781.5" y="-238" font-family="Helvetica,sans-Serif" font-size="10.00">gemmi/symmetry.hpp</text>
</a>
</g>
</g>
<!-- Node28&#45;&gt;Node29 -->
<g id="edge44_Node000028_Node000029" class="edge">
<title>Node28&#45;&gt;Node29</title>
<g id="a_edge44_Node000028_Node000029"><a xlink:title=" ">
<path fill="none" stroke="#63b8ff" d="M743.14,-291.37C749.79,-282.73 760.19,-269.2 768.49,-258.42"/>
<polygon fill="#63b8ff" stroke="#63b8ff" points="771.51,-260.23 774.83,-250.17 765.96,-255.96 771.51,-260.23"/>
</a>
</g>
</g>
<!-- Node30 -->
<g id="Node000030" class="node">
<title>Node30</title>
<g id="a_Node000030"><a xlink:title=" ">
<polygon fill="#e0e0e0" stroke="#999999" points="899.5,-250 861.5,-250 861.5,-231 899.5,-231 899.5,-250"/>
<text text-anchor="middle" x="880.5" y="-238" font-family="Helvetica,sans-Serif" font-size="10.00">map</text>
</a>
</g>
</g>
<!-- Node28&#45;&gt;Node30 -->
<g id="edge45_Node000028_Node000030" class="edge">
<title>Node28&#45;&gt;Node30</title>
<g id="a_edge45_Node000028_Node000030"><a xlink:title=" ">
<path fill="none" stroke="#63b8ff" d="M757.44,-291.49C782.31,-281.39 823.93,-264.48 851.79,-253.16"/>
<polygon fill="#63b8ff" stroke="#63b8ff" points="853.43,-256.28 861.38,-249.27 850.79,-249.79 853.43,-256.28"/>
</a>
</g>
</g>
<!-- Node31 -->
<g id="Node000031" class="node">
<title>Node31</title>
<g id="a_Node000031"><a xlink:href="symmetryoperation_8h.html" target="_top" xlink:title=" ">
<polygon fill="white" stroke="#666666" points="1133.5,-250 955.5,-250 955.5,-231 1133.5,-231 1133.5,-250"/>
<text text-anchor="middle" x="1044.5" y="-238" font-family="Helvetica,sans-Serif" font-size="10.00">occ/crystal/symmetryoperation.h</text>
</a>
</g>
</g>
<!-- Node28&#45;&gt;Node31 -->
<g id="edge47_Node000028_Node000031" class="edge">
<title>Node28&#45;&gt;Node31</title>
<g id="a_edge47_Node000028_Node000031"><a xlink:title=" ">
<path fill="none" stroke="#63b8ff" d="M781.29,-291.49C836.49,-281.01 930.26,-263.2 989.7,-251.91"/>
<polygon fill="#63b8ff" stroke="#63b8ff" points="990.49,-255.32 999.66,-250.02 989.18,-248.44 990.49,-255.32"/>
</a>
</g>
</g>
<!-- Node31&#45;&gt;Node5 -->
<g id="edge48_Node000031_Node000005" class="edge">
<title>Node31&#45;&gt;Node5</title>
<g id="a_edge48_Node000031_Node000005"><a xlink:title=" ">
<path fill="none" stroke="#63b8ff" d="M1051.01,-230.83C1064.69,-212.47 1097.18,-168.12 1121.5,-129 1130.83,-113.98 1140.46,-96.33 1147.25,-83.45"/>
<polygon fill="#63b8ff" stroke="#63b8ff" points="1150.51,-84.78 1152.03,-74.29 1144.3,-81.54 1150.51,-84.78"/>
</a>
</g>
</g>
<!-- Node31&#45;&gt;Node21 -->
<g id="edge67_Node000031_Node000021" class="edge">
<title>Node31&#45;&gt;Node21</title>
<g id="a_edge67_Node000031_Node000021"><a xlink:title=" ">
<path fill="none" stroke="#63b8ff" d="M1037.17,-230.95C1019.3,-210.1 971.94,-155.1 931.5,-110 923,-100.52 913.35,-90.03 905.55,-81.63"/>
<polygon fill="#63b8ff" stroke="#63b8ff" points="908.11,-79.24 898.74,-74.3 902.99,-84.01 908.11,-79.24"/>
</a>
</g>
</g>
<!-- Node31&#45;&gt;Node32 -->
<g id="edge49_Node000031_Node000032" class="edge">
<title>Node31&#45;&gt;Node32</title>
<g id="a_edge49_Node000031_Node000032"><a xlink:title=" ">
<path fill="none" stroke="#63b8ff" d="M1085.21,-230.99C1135.09,-220.57 1219.59,-202.92 1273.68,-191.62"/>
<polygon fill="#63b8ff" stroke="#63b8ff" points="1274.66,-194.99 1283.74,-189.52 1273.23,-188.14 1274.66,-194.99"/>
</a>
</g>
</g>
<!-- Node32&#45;&gt;Node5 -->
<g id="edge50_Node000032_Node000005" class="edge">
<title>Node32&#45;&gt;Node5</title>
<g id="a_edge50_Node000032_Node000005"><a xlink:title=" ">
<path fill="none" stroke="#63b8ff" d="M1331.4,-170.43C1341.81,-156.38 1358.89,-128.2 1344.5,-110 1330.77,-92.64 1281.2,-81.35 1236.41,-74.48"/>
<polygon fill="#63b8ff" stroke="#63b8ff" points="1236.75,-71 1226.35,-73 1235.73,-77.92 1236.75,-71"/>
</a>
</g>
</g>
<!-- Node32&#45;&gt;Node21 -->
<g id="edge66_Node000032_Node000021" class="edge">
<title>Node32&#45;&gt;Node21</title>
<g id="a_edge66_Node000032_Node000021"><a xlink:title=" ">
<path fill="none" stroke="#63b8ff" d="M1325.8,-170.27C1327.46,-155.47 1328.35,-125.54 1311.5,-110 1283.05,-83.76 1016.41,-70.58 922.8,-66.73"/>
<polygon fill="#63b8ff" stroke="#63b8ff" points="922.9,-63.23 912.77,-66.32 922.62,-70.22 922.9,-63.23"/>
</a>
</g>
</g>
<!-- Node32&#45;&gt;Node25 -->
<g id="edge65_Node000032_Node000025" class="edge">
<title>Node32&#45;&gt;Node25</title>
<g id="a_edge65_Node000032_Node000025"><a xlink:title=" ">
<path fill="none" stroke="#63b8ff" d="M1314.17,-170.37C1303.31,-161.3 1286.01,-146.84 1272.83,-135.82"/>
<polygon fill="#63b8ff" stroke="#63b8ff" points="1274.79,-132.89 1264.87,-129.17 1270.3,-138.27 1274.79,-132.89"/>
</a>
</g>
</g>
<!-- Node33 -->
<g id="Node000033" class="node">
<title>Node33</title>
<g id="a_Node000033"><a xlink:href="units_8h.html" target="_top" xlink:title=" ">
<polygon fill="white" stroke="#666666" points="1528,-129 1435,-129 1435,-110 1528,-110 1528,-129"/>
<text text-anchor="middle" x="1481.5" y="-117" font-family="Helvetica,sans-Serif" font-size="10.00">occ/core/units.h</text>
</a>
</g>
</g>
<!-- Node32&#45;&gt;Node33 -->
<g id="edge51_Node000032_Node000033" class="edge">
<title>Node32&#45;&gt;Node33</title>
<g id="a_edge51_Node000032_Node000033"><a xlink:title=" ">
<path fill="none" stroke="#63b8ff" d="M1347.33,-170.49C1374.07,-160.53 1418.58,-143.95 1448.94,-132.63"/>
<polygon fill="#63b8ff" stroke="#63b8ff" points="1450.49,-135.79 1458.64,-129.02 1448.05,-129.23 1450.49,-135.79"/>
</a>
</g>
</g>
<!-- Node36 -->
<g id="Node000036" class="node">
<title>Node36</title>
<g id="a_Node000036"><a xlink:href="util_8h.html" target="_top" xlink:title=" ">
<polygon fill="white" stroke="#666666" points="1631,-129 1546,-129 1546,-110 1631,-110 1631,-129"/>
<text text-anchor="middle" x="1588.5" y="-117" font-family="Helvetica,sans-Serif" font-size="10.00">occ/core/util.h</text>
</a>
</g>
</g>
<!-- Node32&#45;&gt;Node36 -->
<g id="edge54_Node000032_Node000036" class="edge">
<title>Node32&#45;&gt;Node36</title>
<g id="a_edge54_Node000032_Node000036"><a xlink:title=" ">
<path fill="none" stroke="#63b8ff" d="M1362.89,-170.49C1409.81,-160.1 1489.25,-142.49 1540.26,-131.19"/>
<polygon fill="#63b8ff" stroke="#63b8ff" points="1541.06,-134.6 1550.07,-129.02 1539.55,-127.76 1541.06,-134.6"/>
</a>
</g>
</g>
<!-- Node34 -->
<g id="Node000034" class="node">
<title>Node34</title>
<g id="a_Node000034"><a xlink:title=" ">
<polygon fill="#e0e0e0" stroke="#999999" points="1464,-74 1417,-74 1417,-55 1464,-55 1464,-74"/>
<text text-anchor="middle" x="1440.5" y="-62" font-family="Helvetica,sans-Serif" font-size="10.00">cmath</text>
</a>
</g>
</g>
<!-- Node33&#45;&gt;Node34 -->
<g id="edge52_Node000033_Node000034" class="edge">
<title>Node33&#45;&gt;Node34</title>
<g id="a_edge52_Node000033_Node000034"><a xlink:title=" ">
<path fill="none" stroke="#63b8ff" d="M1474.73,-109.75C1468.94,-102.26 1460.44,-91.28 1453.36,-82.13"/>
<polygon fill="#63b8ff" stroke="#63b8ff" points="1456.03,-79.86 1447.14,-74.09 1450.49,-84.14 1456.03,-79.86"/>
</a>
</g>
</g>
<!-- Node35 -->
<g id="Node000035" class="node">
<title>Node35</title>
<g id="a_Node000035"><a xlink:href="constants_8h.html" target="_top" xlink:title=" ">
<polygon fill="white" stroke="#666666" points="1398.5,-74 1282.5,-74 1282.5,-55 1398.5,-55 1398.5,-74"/>
<text text-anchor="middle" x="1340.5" y="-62" font-family="Helvetica,sans-Serif" font-size="10.00">occ/core/constants.h</text>
</a>
</g>
</g>
<!-- Node33&#45;&gt;Node35 -->
<g id="edge53_Node000033_Node000035" class="edge">
<title>Node33&#45;&gt;Node35</title>
<g id="a_edge53_Node000033_Node000035"><a xlink:title=" ">
<path fill="none" stroke="#63b8ff" d="M1458.85,-109.98C1435.65,-101.27 1399.38,-87.63 1373.1,-77.75"/>
<polygon fill="#63b8ff" stroke="#63b8ff" points="1374.16,-74.41 1363.57,-74.17 1371.7,-80.97 1374.16,-74.41"/>
</a>
</g>
</g>
<!-- Node36&#45;&gt;Node5 -->
<g id="edge62_Node000036_Node000005" class="edge">
<title>Node36&#45;&gt;Node5</title>
<g id="a_edge62_Node000036_Node000005"><a xlink:title=" ">
<path fill="none" stroke="#63b8ff" d="M1545.95,-111.25C1543.09,-110.81 1540.26,-110.39 1537.5,-110 1433.69,-95.3 1313.47,-81.85 1236.29,-73.67"/>
<polygon fill="#63b8ff" stroke="#63b8ff" points="1236.47,-70.17 1226.16,-72.6 1235.73,-77.13 1236.47,-70.17"/>
</a>
</g>
</g>
<!-- Node36&#45;&gt;Node8 -->
<g id="edge58_Node000036_Node000008" class="edge">
<title>Node36&#45;&gt;Node8</title>
<g id="a_edge58_Node000036_Node000008"><a xlink:title=" ">
<path fill="none" stroke="#63b8ff" d="M1573.36,-109.8C1544.57,-93.32 1483.88,-58.82 1473.5,-55 1414.72,-33.38 1342.99,-21.33 1298.02,-15.38"/>
<polygon fill="#63b8ff" stroke="#63b8ff" points="1298.38,-11.9 1288.01,-14.1 1297.49,-18.84 1298.38,-11.9"/>
</a>
</g>
</g>
<!-- Node36&#45;&gt;Node21 -->
<g id="edge63_Node000036_Node000021" class="edge">
<title>Node36&#45;&gt;Node21</title>
<g id="a_edge63_Node000036_Node000021"><a xlink:title=" ">
<path fill="none" stroke="#63b8ff" d="M1545.97,-111.1C1543.11,-110.7 1540.26,-110.32 1537.5,-110 1416.31,-95.77 1036.5,-73.73 922.9,-67.31"/>
<polygon fill="#63b8ff" stroke="#63b8ff" points="922.94,-63.81 912.76,-66.74 922.55,-70.8 922.94,-63.81"/>
</a>
</g>
</g>
<!-- Node36&#45;&gt;Node22 -->
<g id="edge64_Node000036_Node000022" class="edge">
<title>Node36&#45;&gt;Node22</title>
<g id="a_edge64_Node000036_Node000022"><a xlink:title=" ">
<path fill="none" stroke="#63b8ff" d="M1545.98,-111.02C1543.11,-110.64 1540.27,-110.29 1537.5,-110 1342.66,-89.53 717.92,-70.79 565.35,-66.45"/>
<polygon fill="#63b8ff" stroke="#63b8ff" points="565.29,-62.94 555.19,-66.16 565.09,-69.94 565.29,-62.94"/>
</a>
</g>
</g>
<!-- Node37 -->
<g id="Node000037" class="node">
<title>Node37</title>
<g id="a_Node000037"><a xlink:title=" ">
<polygon fill="#e0e0e0" stroke="#999999" points="1722.5,-74 1658.5,-74 1658.5,-55 1722.5,-55 1722.5,-74"/>
<text text-anchor="middle" x="1690.5" y="-62" font-family="Helvetica,sans-Serif" font-size="10.00">algorithm</text>
</a>
</g>
</g>
<!-- Node36&#45;&gt;Node37 -->
<g id="edge55_Node000036_Node000037" class="edge">
<title>Node36&#45;&gt;Node37</title>
<g id="a_edge55_Node000036_Node000037"><a xlink:title=" ">
<path fill="none" stroke="#63b8ff" d="M1604.89,-109.98C1621.07,-101.57 1646.07,-88.59 1664.88,-78.81"/>
<polygon fill="#63b8ff" stroke="#63b8ff" points="1666.55,-81.89 1673.81,-74.17 1663.33,-75.68 1666.55,-81.89"/>
</a>
</g>
</g>
<!-- Node38 -->
<g id="Node000038" class="node">
<title>Node38</title>
<g id="a_Node000038"><a xlink:title=" ">
<polygon fill="#e0e0e0" stroke="#999999" points="1790,-74 1741,-74 1741,-55 1790,-55 1790,-74"/>
<text text-anchor="middle" x="1765.5" y="-62" font-family="Helvetica,sans-Serif" font-size="10.00">cctype</text>
</a>
</g>
</g>
<!-- Node36&#45;&gt;Node38 -->
<g id="edge56_Node000036_Node000038" class="edge">
<title>Node36&#45;&gt;Node38</title>
<g id="a_edge56_Node000036_Node000038"><a xlink:title=" ">
<path fill="none" stroke="#63b8ff" d="M1616.94,-109.98C1648.02,-100.68 1697.83,-85.76 1731.09,-75.8"/>
<polygon fill="#63b8ff" stroke="#63b8ff" points="1732.27,-79.1 1740.84,-72.88 1730.26,-72.4 1732.27,-79.1"/>
</a>
</g>
</g>
<!-- Node39 -->
<g id="Node000039" class="node">
<title>Node39</title>
<g id="a_Node000039"><a xlink:title=" ">
<polygon fill="#e0e0e0" stroke="#999999" points="1858.5,-74 1808.5,-74 1808.5,-55 1858.5,-55 1858.5,-74"/>
<text text-anchor="middle" x="1833.5" y="-62" font-family="Helvetica,sans-Serif" font-size="10.00">chrono</text>
</a>
</g>
</g>
<!-- Node36&#45;&gt;Node39 -->
<g id="edge57_Node000036_Node000039" class="edge">
<title>Node36&#45;&gt;Node39</title>
<g id="a_edge57_Node000036_Node000039"><a xlink:title=" ">
<path fill="none" stroke="#63b8ff" d="M1631.04,-110.01C1671.64,-101.8 1734.77,-88.76 1798.46,-74.17"/>
<polygon fill="#63b8ff" stroke="#63b8ff" points="1799.31,-77.57 1808.27,-71.92 1797.74,-70.75 1799.31,-77.57"/>
</a>
</g>
</g>
<!-- Node40 -->
<g id="Node000040" class="node">
<title>Node40</title>
<g id="a_Node000040"><a xlink:title=" ">
<polygon fill="#e0e0e0" stroke="#999999" points="1962.5,-74 1876.5,-74 1876.5,-55 1962.5,-55 1962.5,-74"/>
<text text-anchor="middle" x="1919.5" y="-62" font-family="Helvetica,sans-Serif" font-size="10.00">fmt/ostream.h</text>
</a>
</g>
</g>
<!-- Node36&#45;&gt;Node40 -->
<g id="edge59_Node000036_Node000040" class="edge">
<title>Node36&#45;&gt;Node40</title>
<g id="a_edge59_Node000036_Node000040"><a xlink:title=" ">
<path fill="none" stroke="#63b8ff" d="M1631.05,-111.77C1683.79,-103.41 1776.71,-88.64 1866.31,-74.19"/>
<polygon fill="#63b8ff" stroke="#63b8ff" points="1867.06,-77.61 1876.37,-72.56 1865.94,-70.7 1867.06,-77.61"/>
</a>
</g>
</g>
<!-- Node41 -->
<g id="Node000041" class="node">
<title>Node41</title>
<g id="a_Node000041"><a xlink:title=" ">
<polygon fill="#e0e0e0" stroke="#999999" points="1566.5,-74 1520.5,-74 1520.5,-55 1566.5,-55 1566.5,-74"/>
<text text-anchor="middle" x="1543.5" y="-62" font-family="Helvetica,sans-Serif" font-size="10.00">locale</text>
</a>
</g>
</g>
<!-- Node36&#45;&gt;Node41 -->
<g id="edge60_Node000036_Node000041" class="edge">
<title>Node36&#45;&gt;Node41</title>
<g id="a_edge60_Node000036_Node000041"><a xlink:title=" ">
<path fill="none" stroke="#63b8ff" d="M1581.07,-109.75C1574.65,-102.18 1565.19,-91.05 1557.38,-81.84"/>
<polygon fill="#63b8ff" stroke="#63b8ff" points="1559.93,-79.45 1550.79,-74.09 1554.6,-83.98 1559.93,-79.45"/>
</a>
</g>
</g>
<!-- Node42 -->
<g id="Node000042" class="node">
<title>Node42</title>
<g id="a_Node000042"><a xlink:title=" ">
<polygon fill="#e0e0e0" stroke="#999999" points="1640.5,-74 1584.5,-74 1584.5,-55 1640.5,-55 1640.5,-74"/>
<text text-anchor="middle" x="1612.5" y="-62" font-family="Helvetica,sans-Serif" font-size="10.00">numeric</text>
</a>
</g>
</g>
<!-- Node36&#45;&gt;Node42 -->
<g id="edge61_Node000036_Node000042" class="edge">
<title>Node36&#45;&gt;Node42</title>
<g id="a_edge61_Node000036_Node000042"><a xlink:title=" ">
<path fill="none" stroke="#63b8ff" d="M1592.46,-109.75C1595.71,-102.57 1600.42,-92.18 1604.45,-83.27"/>
<polygon fill="#63b8ff" stroke="#63b8ff" points="1607.67,-84.64 1608.61,-74.09 1601.3,-81.75 1607.67,-84.64"/>
</a>
</g>
</g>
</g>
</svg>
