<?xml version="1.0" encoding="UTF-8" standalone="no"?>
<!DOCTYPE svg PUBLIC "-//W3C//DTD SVG 1.1//EN"
 "http://www.w3.org/Graphics/SVG/1.1/DTD/svg11.dtd">
<!-- Generated by graphviz version 2.43.0 (0)
 -->
<!-- Title: /home/runner/work/occ/occ/include/occ/qm/ediis.h Pages: 1 -->
<svg width="772pt" height="313pt"
 viewBox="0.00 0.00 771.50 313.00" xmlns="http://www.w3.org/2000/svg" xmlns:xlink="http://www.w3.org/1999/xlink">
<g id="graph0" class="graph" transform="scale(1 1) rotate(0) translate(4 309)">
<title>/home/runner/work/occ/occ/include/occ/qm/ediis.h</title>
<!-- Node1 -->
<g id="Node000001" class="node">
<title>Node1</title>
<g id="a_Node000001"><a xlink:title=" ">
<polygon fill="#999999" stroke="#666666" points="306.5,-305 158.5,-305 158.5,-275 306.5,-275 306.5,-305"/>
<text text-anchor="start" x="166.5" y="-293" font-family="Helvetica,sans-Serif" font-size="10.00">/home/runner/work/occ</text>
<text text-anchor="middle" x="232.5" y="-282" font-family="Helvetica,sans-Serif" font-size="10.00">/occ/include/occ/qm/ediis.h</text>
</a>
</g>
</g>
<!-- Node2 -->
<g id="Node000002" class="node">
<title>Node2</title>
<g id="a_Node000002"><a xlink:href="diis_8h.html" target="_top" xlink:title=" ">
<polygon fill="white" stroke="#666666" points="216.5,-239 130.5,-239 130.5,-220 216.5,-220 216.5,-239"/>
<text text-anchor="middle" x="173.5" y="-227" font-family="Helvetica,sans-Serif" font-size="10.00">occ/core/diis.h</text>
</a>
</g>
</g>
<!-- Node1&#45;&gt;Node2 -->
<g id="edge1_Node000001_Node000002" class="edge">
<title>Node1&#45;&gt;Node2</title>
<g id="a_edge1_Node000001_Node000002"><a xlink:title=" ">
<path fill="none" stroke="#63b8ff" d="M218.22,-274.84C209.57,-266.26 198.51,-255.3 189.56,-246.42"/>
<polygon fill="#63b8ff" stroke="#63b8ff" points="191.91,-243.82 182.34,-239.27 186.98,-248.79 191.91,-243.82"/>
</a>
</g>
</g>
<!-- Node7 -->
<g id="Node000007" class="node">
<title>Node7</title>
<g id="a_Node000007"><a xlink:href="qm_2spinorbital_8h.html" target="_top" xlink:title=" ">
<polygon fill="white" stroke="#666666" points="377.5,-239 261.5,-239 261.5,-220 377.5,-220 377.5,-239"/>
<text text-anchor="middle" x="319.5" y="-227" font-family="Helvetica,sans-Serif" font-size="10.00">occ/qm/spinorbital.h</text>
</a>
</g>
</g>
<!-- Node1&#45;&gt;Node7 -->
<g id="edge6_Node000001_Node000007" class="edge">
<title>Node1&#45;&gt;Node7</title>
<g id="a_edge6_Node000001_Node000007"><a xlink:title=" ">
<path fill="none" stroke="#63b8ff" d="M253.56,-274.84C267.04,-265.77 284.49,-254.04 298.05,-244.92"/>
<polygon fill="#63b8ff" stroke="#63b8ff" points="300.37,-247.58 306.72,-239.09 296.47,-241.77 300.37,-247.58"/>
</a>
</g>
</g>
<!-- Node3 -->
<g id="Node000003" class="node">
<title>Node3</title>
<g id="a_Node000003"><a xlink:title=" ">
<polygon fill="#e0e0e0" stroke="#999999" points="145,-184 98,-184 98,-165 145,-165 145,-184"/>
<text text-anchor="middle" x="121.5" y="-172" font-family="Helvetica,sans-Serif" font-size="10.00">deque</text>
</a>
</g>
</g>
<!-- Node2&#45;&gt;Node3 -->
<g id="edge2_Node000002_Node000003" class="edge">
<title>Node2&#45;&gt;Node3</title>
<g id="a_edge2_Node000002_Node000003"><a xlink:title=" ">
<path fill="none" stroke="#63b8ff" d="M164.91,-219.75C157.34,-212.03 146.12,-200.6 136.99,-191.28"/>
<polygon fill="#63b8ff" stroke="#63b8ff" points="139.43,-188.78 129.93,-184.09 134.43,-193.68 139.43,-188.78"/>
</a>
</g>
</g>
<!-- Node4 -->
<g id="Node000004" class="node">
<title>Node4</title>
<g id="a_Node000004"><a xlink:href="linear__algebra_8h.html" target="_top" xlink:title=" ">
<polygon fill="white" stroke="#666666" points="153,-74 14,-74 14,-55 153,-55 153,-74"/>
<text text-anchor="middle" x="83.5" y="-62" font-family="Helvetica,sans-Serif" font-size="10.00">occ/core/linear_algebra.h</text>
</a>
</g>
</g>
<!-- Node2&#45;&gt;Node4 -->
<g id="edge3_Node000002_Node000004" class="edge">
<title>Node2&#45;&gt;Node4</title>
<g id="a_edge3_Node000002_Node000004"><a xlink:title=" ">
<path fill="none" stroke="#63b8ff" d="M171.7,-219.96C168.86,-207.47 162.72,-183.65 153.5,-165 137.92,-133.48 112.99,-100.87 97.47,-81.92"/>
<polygon fill="#63b8ff" stroke="#63b8ff" points="100.16,-79.68 91.07,-74.23 94.78,-84.16 100.16,-79.68"/>
</a>
</g>
</g>
<!-- Node5 -->
<g id="Node000005" class="node">
<title>Node5</title>
<g id="a_Node000005"><a xlink:title=" ">
<polygon fill="#e0e0e0" stroke="#999999" points="69,-19 0,-19 0,0 69,0 69,-19"/>
<text text-anchor="middle" x="34.5" y="-7" font-family="Helvetica,sans-Serif" font-size="10.00">Eigen/Core</text>
</a>
</g>
</g>
<!-- Node4&#45;&gt;Node5 -->
<g id="edge4_Node000004_Node000005" class="edge">
<title>Node4&#45;&gt;Node5</title>
<g id="a_edge4_Node000004_Node000005"><a xlink:title=" ">
<path fill="none" stroke="#63b8ff" d="M75.41,-54.75C68.34,-47.11 57.91,-35.82 49.35,-26.56"/>
<polygon fill="#63b8ff" stroke="#63b8ff" points="51.8,-24.06 42.44,-19.09 46.66,-28.81 51.8,-24.06"/>
</a>
</g>
</g>
<!-- Node6 -->
<g id="Node000006" class="node">
<title>Node6</title>
<g id="a_Node000006"><a xlink:title=" ">
<polygon fill="#e0e0e0" stroke="#999999" points="180,-19 87,-19 87,0 180,0 180,-19"/>
<text text-anchor="middle" x="133.5" y="-7" font-family="Helvetica,sans-Serif" font-size="10.00">Eigen/StdVector</text>
</a>
</g>
</g>
<!-- Node4&#45;&gt;Node6 -->
<g id="edge5_Node000004_Node000006" class="edge">
<title>Node4&#45;&gt;Node6</title>
<g id="a_edge5_Node000004_Node000006"><a xlink:title=" ">
<path fill="none" stroke="#63b8ff" d="M91.76,-54.75C98.96,-47.11 109.61,-35.82 118.35,-26.56"/>
<polygon fill="#63b8ff" stroke="#63b8ff" points="121.08,-28.76 125.4,-19.09 115.99,-23.96 121.08,-28.76"/>
</a>
</g>
</g>
<!-- Node7&#45;&gt;Node4 -->
<g id="edge7_Node000007_Node000004" class="edge">
<title>Node7&#45;&gt;Node4</title>
<g id="a_edge7_Node000007_Node000004"><a xlink:title=" ">
<path fill="none" stroke="#63b8ff" d="M307.14,-219.97C268.92,-193.57 152.3,-113.02 104.39,-79.93"/>
<polygon fill="#63b8ff" stroke="#63b8ff" points="106.24,-76.95 96.02,-74.15 102.26,-82.71 106.24,-76.95"/>
</a>
</g>
</g>
<!-- Node8 -->
<g id="Node000008" class="node">
<title>Node8</title>
<g id="a_Node000008"><a xlink:href="core_2spinorbital_8h.html" target="_top" xlink:title=" ">
<polygon fill="white" stroke="#666666" points="445,-184 324,-184 324,-165 445,-165 445,-184"/>
<text text-anchor="middle" x="384.5" y="-172" font-family="Helvetica,sans-Serif" font-size="10.00">occ/core/spinorbital.h</text>
</a>
</g>
</g>
<!-- Node7&#45;&gt;Node8 -->
<g id="edge8_Node000007_Node000008" class="edge">
<title>Node7&#45;&gt;Node8</title>
<g id="a_edge8_Node000007_Node000008"><a xlink:title=" ">
<path fill="none" stroke="#63b8ff" d="M329.94,-219.98C339.65,-212.07 354.32,-200.11 366,-190.58"/>
<polygon fill="#63b8ff" stroke="#63b8ff" points="368.33,-193.2 373.87,-184.17 363.9,-187.78 368.33,-193.2"/>
</a>
</g>
</g>
<!-- Node9 -->
<g id="Node000009" class="node">
<title>Node9</title>
<g id="a_Node000009"><a xlink:href="util_8h.html" target="_top" xlink:title=" ">
<polygon fill="white" stroke="#666666" points="427,-129 342,-129 342,-110 427,-110 427,-129"/>
<text text-anchor="middle" x="384.5" y="-117" font-family="Helvetica,sans-Serif" font-size="10.00">occ/core/util.h</text>
</a>
</g>
</g>
<!-- Node7&#45;&gt;Node9 -->
<g id="edge20_Node000007_Node000009" class="edge">
<title>Node7&#45;&gt;Node9</title>
<g id="a_edge20_Node000007_Node000009"><a xlink:title=" ">
<path fill="none" stroke="#63b8ff" d="M316.14,-219.65C311.83,-206.76 305.99,-182.46 315.5,-165 323.15,-150.97 337.33,-140.69 350.86,-133.57"/>
<polygon fill="#63b8ff" stroke="#63b8ff" points="352.55,-136.64 360.03,-129.14 349.51,-130.34 352.55,-136.64"/>
</a>
</g>
</g>
<!-- Node18 -->
<g id="Node000018" class="node">
<title>Node18</title>
<g id="a_Node000018"><a xlink:href="qm_2opmatrix_8h.html" target="_top" xlink:title=" ">
<polygon fill="white" stroke="#666666" points="571.5,-184 463.5,-184 463.5,-165 571.5,-165 571.5,-184"/>
<text text-anchor="middle" x="517.5" y="-172" font-family="Helvetica,sans-Serif" font-size="10.00">occ/qm/opmatrix.h</text>
</a>
</g>
</g>
<!-- Node7&#45;&gt;Node18 -->
<g id="edge21_Node000007_Node000018" class="edge">
<title>Node7&#45;&gt;Node18</title>
<g id="a_edge21_Node000007_Node000018"><a xlink:title=" ">
<path fill="none" stroke="#63b8ff" d="M346.2,-219.98C378.02,-210.93 431.47,-196.58 470.28,-186.64"/>
<polygon fill="#63b8ff" stroke="#63b8ff" points="471.48,-189.94 480.31,-184.08 469.75,-183.16 471.48,-189.94"/>
</a>
</g>
</g>
<!-- Node8&#45;&gt;Node9 -->
<g id="edge9_Node000008_Node000009" class="edge">
<title>Node8&#45;&gt;Node9</title>
<g id="a_edge9_Node000008_Node000009"><a xlink:title=" ">
<path fill="none" stroke="#63b8ff" d="M384.5,-164.75C384.5,-157.8 384.5,-147.85 384.5,-139.13"/>
<polygon fill="#63b8ff" stroke="#63b8ff" points="388,-139.09 384.5,-129.09 381,-139.09 388,-139.09"/>
</a>
</g>
</g>
<!-- Node16 -->
<g id="Node000016" class="node">
<title>Node16</title>
<g id="a_Node000016"><a xlink:title=" ">
<polygon fill="#e0e0e0" stroke="#999999" points="763.5,-74 719.5,-74 719.5,-55 763.5,-55 763.5,-74"/>
<text text-anchor="middle" x="741.5" y="-62" font-family="Helvetica,sans-Serif" font-size="10.00">string</text>
</a>
</g>
</g>
<!-- Node8&#45;&gt;Node16 -->
<g id="edge19_Node000008_Node000016" class="edge">
<title>Node8&#45;&gt;Node16</title>
<g id="a_edge19_Node000008_Node000016"><a xlink:title=" ">
<path fill="none" stroke="#63b8ff" d="M412.81,-164.94C478.38,-145.1 640.32,-96.11 709.42,-75.2"/>
<polygon fill="#63b8ff" stroke="#63b8ff" points="710.74,-78.46 719.3,-72.22 708.72,-71.76 710.74,-78.46"/>
</a>
</g>
</g>
<!-- Node9&#45;&gt;Node4 -->
<g id="edge16_Node000009_Node000004" class="edge">
<title>Node9&#45;&gt;Node4</title>
<g id="a_edge16_Node000009_Node000004"><a xlink:title=" ">
<path fill="none" stroke="#63b8ff" d="M341.69,-110.96C289.3,-101.74 200.33,-86.07 141.74,-75.75"/>
<polygon fill="#63b8ff" stroke="#63b8ff" points="142.34,-72.31 131.89,-74.02 141.13,-79.2 142.34,-72.31"/>
</a>
</g>
</g>
<!-- Node10 -->
<g id="Node000010" class="node">
<title>Node10</title>
<g id="a_Node000010"><a xlink:title=" ">
<polygon fill="#e0e0e0" stroke="#999999" points="235.5,-74 171.5,-74 171.5,-55 235.5,-55 235.5,-74"/>
<text text-anchor="middle" x="203.5" y="-62" font-family="Helvetica,sans-Serif" font-size="10.00">algorithm</text>
</a>
</g>
</g>
<!-- Node9&#45;&gt;Node10 -->
<g id="edge10_Node000009_Node000010" class="edge">
<title>Node9&#45;&gt;Node10</title>
<g id="a_edge10_Node000009_Node000010"><a xlink:title=" ">
<path fill="none" stroke="#63b8ff" d="M355.42,-109.98C324.9,-101.05 276.74,-86.94 242.84,-77.02"/>
<polygon fill="#63b8ff" stroke="#63b8ff" points="243.39,-73.53 232.81,-74.08 241.42,-80.25 243.39,-73.53"/>
</a>
</g>
</g>
<!-- Node11 -->
<g id="Node000011" class="node">
<title>Node11</title>
<g id="a_Node000011"><a xlink:title=" ">
<polygon fill="#e0e0e0" stroke="#999999" points="303,-74 254,-74 254,-55 303,-55 303,-74"/>
<text text-anchor="middle" x="278.5" y="-62" font-family="Helvetica,sans-Serif" font-size="10.00">cctype</text>
</a>
</g>
</g>
<!-- Node9&#45;&gt;Node11 -->
<g id="edge11_Node000009_Node000011" class="edge">
<title>Node9&#45;&gt;Node11</title>
<g id="a_edge11_Node000009_Node000011"><a xlink:title=" ">
<path fill="none" stroke="#63b8ff" d="M367.47,-109.98C350.57,-101.54 324.44,-88.47 304.86,-78.68"/>
<polygon fill="#63b8ff" stroke="#63b8ff" points="306.35,-75.51 295.84,-74.17 303.22,-81.77 306.35,-75.51"/>
</a>
</g>
</g>
<!-- Node12 -->
<g id="Node000012" class="node">
<title>Node12</title>
<g id="a_Node000012"><a xlink:title=" ">
<polygon fill="#e0e0e0" stroke="#999999" points="371.5,-74 321.5,-74 321.5,-55 371.5,-55 371.5,-74"/>
<text text-anchor="middle" x="346.5" y="-62" font-family="Helvetica,sans-Serif" font-size="10.00">chrono</text>
</a>
</g>
</g>
<!-- Node9&#45;&gt;Node12 -->
<g id="edge12_Node000009_Node000012" class="edge">
<title>Node9&#45;&gt;Node12</title>
<g id="a_edge12_Node000009_Node000012"><a xlink:title=" ">
<path fill="none" stroke="#63b8ff" d="M378.23,-109.75C372.91,-102.34 365.14,-91.5 358.62,-82.41"/>
<polygon fill="#63b8ff" stroke="#63b8ff" points="361.33,-80.18 352.66,-74.09 355.64,-84.26 361.33,-80.18"/>
</a>
</g>
</g>
<!-- Node13 -->
<g id="Node000013" class="node">
<title>Node13</title>
<g id="a_Node000013"><a xlink:title=" ">
<polygon fill="#e0e0e0" stroke="#999999" points="457,-74 390,-74 390,-55 457,-55 457,-74"/>
<text text-anchor="middle" x="423.5" y="-62" font-family="Helvetica,sans-Serif" font-size="10.00">fmt/core.h</text>
</a>
</g>
</g>
<!-- Node9&#45;&gt;Node13 -->
<g id="edge13_Node000009_Node000013" class="edge">
<title>Node9&#45;&gt;Node13</title>
<g id="a_edge13_Node000009_Node000013"><a xlink:title=" ">
<path fill="none" stroke="#63b8ff" d="M390.94,-109.75C396.39,-102.34 404.36,-91.5 411.06,-82.41"/>
<polygon fill="#63b8ff" stroke="#63b8ff" points="414.07,-84.22 417.18,-74.09 408.43,-80.07 414.07,-84.22"/>
</a>
</g>
</g>
<!-- Node14 -->
<g id="Node000014" class="node">
<title>Node14</title>
<g id="a_Node000014"><a xlink:title=" ">
<polygon fill="#e0e0e0" stroke="#999999" points="561.5,-74 475.5,-74 475.5,-55 561.5,-55 561.5,-74"/>
<text text-anchor="middle" x="518.5" y="-62" font-family="Helvetica,sans-Serif" font-size="10.00">fmt/ostream.h</text>
</a>
</g>
</g>
<!-- Node9&#45;&gt;Node14 -->
<g id="edge14_Node000009_Node000014" class="edge">
<title>Node9&#45;&gt;Node14</title>
<g id="a_edge14_Node000009_Node000014"><a xlink:title=" ">
<path fill="none" stroke="#63b8ff" d="M406.03,-109.98C427.97,-101.3 462.24,-87.75 487.19,-77.88"/>
<polygon fill="#63b8ff" stroke="#63b8ff" points="488.57,-81.1 496.58,-74.17 485.99,-74.59 488.57,-81.1"/>
</a>
</g>
</g>
<!-- Node15 -->
<g id="Node000015" class="node">
<title>Node15</title>
<g id="a_Node000015"><a xlink:title=" ">
<polygon fill="#e0e0e0" stroke="#999999" points="635.5,-74 579.5,-74 579.5,-55 635.5,-55 635.5,-74"/>
<text text-anchor="middle" x="607.5" y="-62" font-family="Helvetica,sans-Serif" font-size="10.00">numeric</text>
</a>
</g>
</g>
<!-- Node9&#45;&gt;Node15 -->
<g id="edge15_Node000009_Node000015" class="edge">
<title>Node9&#45;&gt;Node15</title>
<g id="a_edge15_Node000009_Node000015"><a xlink:title=" ">
<path fill="none" stroke="#63b8ff" d="M420.33,-109.98C461.16,-100.28 527.63,-84.48 569.39,-74.56"/>
<polygon fill="#63b8ff" stroke="#63b8ff" points="570.27,-77.95 579.19,-72.23 568.65,-71.14 570.27,-77.95"/>
</a>
</g>
</g>
<!-- Node9&#45;&gt;Node16 -->
<g id="edge17_Node000009_Node000016" class="edge">
<title>Node9&#45;&gt;Node16</title>
<g id="a_edge17_Node000009_Node000016"><a xlink:title=" ">
<path fill="none" stroke="#63b8ff" d="M427,-114.51C487.63,-108.42 602.54,-95.41 709.26,-74.01"/>
<polygon fill="#63b8ff" stroke="#63b8ff" points="710.13,-77.41 719.23,-71.98 708.74,-70.55 710.13,-77.41"/>
</a>
</g>
</g>
<!-- Node17 -->
<g id="Node000017" class="node">
<title>Node17</title>
<g id="a_Node000017"><a xlink:title=" ">
<polygon fill="#e0e0e0" stroke="#999999" points="701,-74 654,-74 654,-55 701,-55 701,-74"/>
<text text-anchor="middle" x="677.5" y="-62" font-family="Helvetica,sans-Serif" font-size="10.00">vector</text>
</a>
</g>
</g>
<!-- Node9&#45;&gt;Node17 -->
<g id="edge18_Node000009_Node000017" class="edge">
<title>Node9&#45;&gt;Node17</title>
<g id="a_edge18_Node000009_Node000017"><a xlink:title=" ">
<path fill="none" stroke="#63b8ff" d="M427.04,-112.32C476.68,-104.87 561.42,-91.4 643.74,-74"/>
<polygon fill="#63b8ff" stroke="#63b8ff" points="644.71,-77.37 653.76,-71.86 643.25,-70.53 644.71,-77.37"/>
</a>
</g>
</g>
<!-- Node18&#45;&gt;Node7 -->
<g id="edge22_Node000018_Node000007" class="edge">
<title>Node18&#45;&gt;Node7</title>
<g id="a_edge22_Node000018_Node000007"><a xlink:title=" ">
<path fill="none" stroke="#63b8ff" d="M490.57,-184.08C458.64,-193.16 405.17,-207.52 366.43,-217.44"/>
<polygon fill="#63b8ff" stroke="#63b8ff" points="365.25,-214.13 356.43,-219.98 366.98,-220.91 365.25,-214.13"/>
</a>
</g>
</g>
</g>
</svg>
