<?xml version="1.0" encoding="UTF-8" standalone="no"?>
<!DOCTYPE svg PUBLIC "-//W3C//DTD SVG 1.1//EN"
 "http://www.w3.org/Graphics/SVG/1.1/DTD/svg11.dtd">
<!-- Generated by graphviz version 2.43.0 (0)
 -->
<!-- Title: /home/runner/work/occ/occ/include/occ/qm/ediis.h Pages: 1 -->
<svg width="301pt" height="207pt"
 viewBox="0.00 0.00 300.50 207.00" xmlns="http://www.w3.org/2000/svg" xmlns:xlink="http://www.w3.org/1999/xlink">
<g id="graph0" class="graph" transform="scale(1 1) rotate(0) translate(4 203)">
<title>/home/runner/work/occ/occ/include/occ/qm/ediis.h</title>
<!-- Node1 -->
<g id="node1" class="node">
<title>Node1</title>
<g id="a_node1"><a xlink:title=" ">
<polygon fill="#bfbfbf" stroke="black" points="11.5,-168.5 11.5,-198.5 159.5,-198.5 159.5,-168.5 11.5,-168.5"/>
<text text-anchor="start" x="19.5" y="-186.5" font-family="Helvetica,sans-Serif" font-size="10.00">/home/runner/work/occ</text>
<text text-anchor="middle" x="85.5" y="-175.5" font-family="Helvetica,sans-Serif" font-size="10.00">/occ/include/occ/qm/ediis.h</text>
</a>
</g>
</g>
<!-- Node2 -->
<g id="node2" class="node">
<title>Node2</title>
<g id="a_node2"><a xlink:href="diis_8h.html" target="_top" xlink:title=" ">
<polygon fill="none" stroke="black" points="42.5,-112.5 42.5,-131.5 128.5,-131.5 128.5,-112.5 42.5,-112.5"/>
<text text-anchor="middle" x="85.5" y="-119.5" font-family="Helvetica,sans-Serif" font-size="10.00">occ/core/diis.h</text>
</a>
</g>
</g>
<!-- Node1&#45;&gt;Node2 -->
<g id="edge1" class="edge">
<title>Node1&#45;&gt;Node2</title>
<path fill="none" stroke="midnightblue" d="M85.5,-168.4C85.5,-160.47 85.5,-150.46 85.5,-141.86"/>
<polygon fill="midnightblue" stroke="midnightblue" points="89,-141.66 85.5,-131.66 82,-141.66 89,-141.66"/>
</g>
<!-- Node3 -->
<g id="node3" class="node">
<title>Node3</title>
<g id="a_node3"><a xlink:title=" ">
<polygon fill="none" stroke="#bfbfbf" points="7,-56.5 7,-75.5 54,-75.5 54,-56.5 7,-56.5"/>
<text text-anchor="middle" x="30.5" y="-63.5" font-family="Helvetica,sans-Serif" font-size="10.00">deque</text>
</a>
</g>
</g>
<!-- Node2&#45;&gt;Node3 -->
<g id="edge2" class="edge">
<title>Node2&#45;&gt;Node3</title>
<path fill="none" stroke="midnightblue" d="M76.42,-112.08C68.33,-104.14 56.3,-92.34 46.59,-82.8"/>
<polygon fill="midnightblue" stroke="midnightblue" points="49,-80.26 39.41,-75.75 44.1,-85.25 49,-80.26"/>
</g>
<!-- Node4 -->
<g id="node4" class="node">
<title>Node4</title>
<g id="a_node4"><a xlink:href="linear__algebra_8h.html" target="_top" xlink:title=" ">
<polygon fill="none" stroke="black" points="72,-56.5 72,-75.5 211,-75.5 211,-56.5 72,-56.5"/>
<text text-anchor="middle" x="141.5" y="-63.5" font-family="Helvetica,sans-Serif" font-size="10.00">occ/core/linear_algebra.h</text>
</a>
</g>
</g>
<!-- Node2&#45;&gt;Node4 -->
<g id="edge3" class="edge">
<title>Node2&#45;&gt;Node4</title>
<path fill="none" stroke="midnightblue" d="M94.5,-112.32C102.69,-104.42 115.01,-92.55 124.97,-82.94"/>
<polygon fill="midnightblue" stroke="midnightblue" points="127.57,-85.29 132.34,-75.83 122.71,-80.26 127.57,-85.29"/>
</g>
<!-- Node5 -->
<g id="node5" class="node">
<title>Node5</title>
<g id="a_node5"><a xlink:title=" ">
<polygon fill="none" stroke="#bfbfbf" points="0,-0.5 0,-19.5 77,-19.5 77,-0.5 0,-0.5"/>
<text text-anchor="middle" x="38.5" y="-7.5" font-family="Helvetica,sans-Serif" font-size="10.00">Eigen/Dense</text>
</a>
</g>
</g>
<!-- Node4&#45;&gt;Node5 -->
<g id="edge4" class="edge">
<title>Node4&#45;&gt;Node5</title>
<path fill="none" stroke="midnightblue" d="M124.95,-56.32C108.51,-47.7 83.07,-34.36 64.03,-24.39"/>
<polygon fill="midnightblue" stroke="midnightblue" points="65.49,-21.2 55.01,-19.65 62.24,-27.4 65.49,-21.2"/>
</g>
<!-- Node6 -->
<g id="node6" class="node">
<title>Node6</title>
<g id="a_node6"><a xlink:title=" ">
<polygon fill="none" stroke="#bfbfbf" points="95,-0.5 95,-19.5 188,-19.5 188,-0.5 95,-0.5"/>
<text text-anchor="middle" x="141.5" y="-7.5" font-family="Helvetica,sans-Serif" font-size="10.00">Eigen/StdVector</text>
</a>
</g>
</g>
<!-- Node4&#45;&gt;Node6 -->
<g id="edge5" class="edge">
<title>Node4&#45;&gt;Node6</title>
<path fill="none" stroke="midnightblue" d="M141.5,-56.08C141.5,-49.01 141.5,-38.86 141.5,-29.99"/>
<polygon fill="midnightblue" stroke="midnightblue" points="145,-29.75 141.5,-19.75 138,-29.75 145,-29.75"/>
</g>
<!-- Node7 -->
<g id="node7" class="node">
<title>Node7</title>
<g id="a_node7"><a xlink:title=" ">
<polygon fill="none" stroke="#bfbfbf" points="206.5,-0.5 206.5,-19.5 292.5,-19.5 292.5,-0.5 206.5,-0.5"/>
<text text-anchor="middle" x="249.5" y="-7.5" font-family="Helvetica,sans-Serif" font-size="10.00">fmt/ostream.h</text>
</a>
</g>
</g>
<!-- Node4&#45;&gt;Node7 -->
<g id="edge6" class="edge">
<title>Node4&#45;&gt;Node7</title>
<path fill="none" stroke="midnightblue" d="M158.85,-56.32C176.17,-47.66 203.02,-34.24 223,-24.25"/>
<polygon fill="midnightblue" stroke="midnightblue" points="224.81,-27.26 232.19,-19.65 221.68,-21 224.81,-27.26"/>
</g>
</g>
</svg>
