<?xml version="1.0" encoding="UTF-8" standalone="no"?>
<!DOCTYPE svg PUBLIC "-//W3C//DTD SVG 1.1//EN"
 "http://www.w3.org/Graphics/SVG/1.1/DTD/svg11.dtd">
<!-- Generated by graphviz version 2.43.0 (0)
 -->
<!-- Title: /home/runner/work/occ/occ/include/occ/isosurface/eeq_esp.h Pages: 1 -->
<svg width="745pt" height="269pt"
 viewBox="0.00 0.00 744.50 269.00" xmlns="http://www.w3.org/2000/svg" xmlns:xlink="http://www.w3.org/1999/xlink">
<g id="graph0" class="graph" transform="scale(1 1) rotate(0) translate(4 265)">
<title>/home/runner/work/occ/occ/include/occ/isosurface/eeq_esp.h</title>
<!-- Node1 -->
<g id="Node000001" class="node">
<title>Node1</title>
<g id="a_Node000001"><a xlink:title=" ">
<polygon fill="#999999" stroke="#666666" points="382.5,-261 235.5,-261 235.5,-220 382.5,-220 382.5,-261"/>
<text text-anchor="start" x="243.5" y="-249" font-family="Helvetica,sans-Serif" font-size="10.00">/home/runner/work/occ</text>
<text text-anchor="start" x="243.5" y="-238" font-family="Helvetica,sans-Serif" font-size="10.00">/occ/include/occ/isosurface</text>
<text text-anchor="middle" x="309" y="-227" font-family="Helvetica,sans-Serif" font-size="10.00">/eeq_esp.h</text>
</a>
</g>
</g>
<!-- Node2 -->
<g id="Node000002" class="node">
<title>Node2</title>
<g id="a_Node000002"><a xlink:href="molecule_8h.html" target="_top" xlink:title=" ">
<polygon fill="white" stroke="#666666" points="266,-184 152,-184 152,-165 266,-165 266,-184"/>
<text text-anchor="middle" x="209" y="-172" font-family="Helvetica,sans-Serif" font-size="10.00">occ/core/molecule.h</text>
</a>
</g>
</g>
<!-- Node1&#45;&gt;Node2 -->
<g id="edge1_Node000001_Node000002" class="edge">
<title>Node1&#45;&gt;Node2</title>
<g id="a_edge1_Node000001_Node000002"><a xlink:title=" ">
<path fill="none" stroke="#63b8ff" d="M278.45,-219.95C263.09,-210.12 244.83,-198.43 230.89,-189.51"/>
<polygon fill="#63b8ff" stroke="#63b8ff" points="232.73,-186.53 222.42,-184.09 228.96,-192.43 232.73,-186.53"/>
</a>
</g>
</g>
<!-- Node13 -->
<g id="Node000013" class="node">
<title>Node13</title>
<g id="a_Node000013"><a xlink:href="common_8h.html" target="_top" xlink:title=" ">
<polygon fill="white" stroke="#666666" points="524.5,-184 383.5,-184 383.5,-165 524.5,-165 524.5,-184"/>
<text text-anchor="middle" x="454" y="-172" font-family="Helvetica,sans-Serif" font-size="10.00">occ/isosurface/common.h</text>
</a>
</g>
</g>
<!-- Node1&#45;&gt;Node13 -->
<g id="edge13_Node000001_Node000013" class="edge">
<title>Node1&#45;&gt;Node13</title>
<g id="a_edge13_Node000001_Node000013"><a xlink:title=" ">
<path fill="none" stroke="#63b8ff" d="M353.29,-219.95C376.73,-209.6 404.83,-197.2 425.38,-188.13"/>
<polygon fill="#63b8ff" stroke="#63b8ff" points="426.8,-191.33 434.53,-184.09 423.97,-184.93 426.8,-191.33"/>
</a>
</g>
</g>
<!-- Node3 -->
<g id="Node000003" class="node">
<title>Node3</title>
<g id="a_Node000003"><a xlink:title=" ">
<polygon fill="#e0e0e0" stroke="#999999" points="42,-129 0,-129 0,-110 42,-110 42,-129"/>
<text text-anchor="middle" x="21" y="-117" font-family="Helvetica,sans-Serif" font-size="10.00">array</text>
</a>
</g>
</g>
<!-- Node2&#45;&gt;Node3 -->
<g id="edge2_Node000002_Node000003" class="edge">
<title>Node2&#45;&gt;Node3</title>
<g id="a_edge2_Node000002_Node000003"><a xlink:title=" ">
<path fill="none" stroke="#63b8ff" d="M178.71,-164.98C148.82,-156.58 101.59,-143.28 51.93,-129.26"/>
<polygon fill="#63b8ff" stroke="#63b8ff" points="52.88,-125.89 42.3,-126.54 50.98,-132.63 52.88,-125.89"/>
</a>
</g>
</g>
<!-- Node4 -->
<g id="Node000004" class="node">
<title>Node4</title>
<g id="a_Node000004"><a xlink:href="atom_8h.html" target="_top" xlink:title=" ">
<polygon fill="white" stroke="#666666" points="342.5,-129 247.5,-129 247.5,-110 342.5,-110 342.5,-129"/>
<text text-anchor="middle" x="295" y="-117" font-family="Helvetica,sans-Serif" font-size="10.00">occ/core/atom.h</text>
</a>
</g>
</g>
<!-- Node2&#45;&gt;Node4 -->
<g id="edge3_Node000002_Node000004" class="edge">
<title>Node2&#45;&gt;Node4</title>
<g id="a_edge3_Node000002_Node000004"><a xlink:title=" ">
<path fill="none" stroke="#63b8ff" d="M222.82,-164.98C236.15,-156.77 256.58,-144.18 272.31,-134.49"/>
<polygon fill="#63b8ff" stroke="#63b8ff" points="274.25,-137.4 280.93,-129.17 270.58,-131.44 274.25,-137.4"/>
</a>
</g>
</g>
<!-- Node9 -->
<g id="Node000009" class="node">
<title>Node9</title>
<g id="a_Node000009"><a xlink:href="element_8h.html" target="_top" xlink:title=" ">
<polygon fill="white" stroke="#666666" points="170,-129 60,-129 60,-110 170,-110 170,-129"/>
<text text-anchor="middle" x="115" y="-117" font-family="Helvetica,sans-Serif" font-size="10.00">occ/core/element.h</text>
</a>
</g>
</g>
<!-- Node2&#45;&gt;Node9 -->
<g id="edge8_Node000002_Node000009" class="edge">
<title>Node2&#45;&gt;Node9</title>
<g id="a_edge8_Node000002_Node000009"><a xlink:title=" ">
<path fill="none" stroke="#63b8ff" d="M193.9,-164.98C179.18,-156.69 156.58,-143.94 139.33,-134.22"/>
<polygon fill="#63b8ff" stroke="#63b8ff" points="140.81,-131.03 130.38,-129.17 137.37,-137.13 140.81,-131.03"/>
</a>
</g>
</g>
<!-- Node12 -->
<g id="Node000012" class="node">
<title>Node12</title>
<g id="a_Node000012"><a xlink:title=" ">
<polygon fill="#e0e0e0" stroke="#999999" points="229.5,-129 188.5,-129 188.5,-110 229.5,-110 229.5,-129"/>
<text text-anchor="middle" x="209" y="-117" font-family="Helvetica,sans-Serif" font-size="10.00">tuple</text>
</a>
</g>
</g>
<!-- Node2&#45;&gt;Node12 -->
<g id="edge12_Node000002_Node000012" class="edge">
<title>Node2&#45;&gt;Node12</title>
<g id="a_edge12_Node000002_Node000012"><a xlink:title=" ">
<path fill="none" stroke="#63b8ff" d="M209,-164.75C209,-157.8 209,-147.85 209,-139.13"/>
<polygon fill="#63b8ff" stroke="#63b8ff" points="212.5,-139.09 209,-129.09 205.5,-139.09 212.5,-139.09"/>
</a>
</g>
</g>
<!-- Node5 -->
<g id="Node000005" class="node">
<title>Node5</title>
<g id="a_Node000005"><a xlink:href="linear__algebra_8h.html" target="_top" xlink:title=" ">
<polygon fill="white" stroke="#666666" points="364.5,-74 225.5,-74 225.5,-55 364.5,-55 364.5,-74"/>
<text text-anchor="middle" x="295" y="-62" font-family="Helvetica,sans-Serif" font-size="10.00">occ/core/linear_algebra.h</text>
</a>
</g>
</g>
<!-- Node4&#45;&gt;Node5 -->
<g id="edge4_Node000004_Node000005" class="edge">
<title>Node4&#45;&gt;Node5</title>
<g id="a_edge4_Node000004_Node000005"><a xlink:title=" ">
<path fill="none" stroke="#63b8ff" d="M295,-109.75C295,-102.8 295,-92.85 295,-84.13"/>
<polygon fill="#63b8ff" stroke="#63b8ff" points="298.5,-84.09 295,-74.09 291.5,-84.09 298.5,-84.09"/>
</a>
</g>
</g>
<!-- Node6 -->
<g id="Node000006" class="node">
<title>Node6</title>
<g id="a_Node000006"><a xlink:title=" ">
<polygon fill="#e0e0e0" stroke="#999999" points="366.5,-19 289.5,-19 289.5,0 366.5,0 366.5,-19"/>
<text text-anchor="middle" x="328" y="-7" font-family="Helvetica,sans-Serif" font-size="10.00">Eigen/Dense</text>
</a>
</g>
</g>
<!-- Node5&#45;&gt;Node6 -->
<g id="edge5_Node000005_Node000006" class="edge">
<title>Node5&#45;&gt;Node6</title>
<g id="a_edge5_Node000005_Node000006"><a xlink:title=" ">
<path fill="none" stroke="#63b8ff" d="M300.45,-54.75C305.01,-47.42 311.67,-36.73 317.29,-27.7"/>
<polygon fill="#63b8ff" stroke="#63b8ff" points="320.34,-29.43 322.65,-19.09 314.4,-25.73 320.34,-29.43"/>
</a>
</g>
</g>
<!-- Node7 -->
<g id="Node000007" class="node">
<title>Node7</title>
<g id="a_Node000007"><a xlink:title=" ">
<polygon fill="#e0e0e0" stroke="#999999" points="271.5,-19 178.5,-19 178.5,0 271.5,0 271.5,-19"/>
<text text-anchor="middle" x="225" y="-7" font-family="Helvetica,sans-Serif" font-size="10.00">Eigen/StdVector</text>
</a>
</g>
</g>
<!-- Node5&#45;&gt;Node7 -->
<g id="edge6_Node000005_Node000007" class="edge">
<title>Node5&#45;&gt;Node7</title>
<g id="a_edge6_Node000005_Node000007"><a xlink:title=" ">
<path fill="none" stroke="#63b8ff" d="M283.75,-54.98C273.2,-47 257.2,-34.88 244.56,-25.31"/>
<polygon fill="#63b8ff" stroke="#63b8ff" points="246.54,-22.42 236.45,-19.17 242.31,-28 246.54,-22.42"/>
</a>
</g>
</g>
<!-- Node8 -->
<g id="Node000008" class="node">
<title>Node8</title>
<g id="a_Node000008"><a xlink:title=" ">
<polygon fill="#e0e0e0" stroke="#999999" points="516.5,-19 449.5,-19 449.5,0 516.5,0 516.5,-19"/>
<text text-anchor="middle" x="483" y="-7" font-family="Helvetica,sans-Serif" font-size="10.00">fmt/core.h</text>
</a>
</g>
</g>
<!-- Node5&#45;&gt;Node8 -->
<g id="edge7_Node000005_Node000008" class="edge">
<title>Node5&#45;&gt;Node8</title>
<g id="a_edge7_Node000005_Node000008"><a xlink:title=" ">
<path fill="none" stroke="#63b8ff" d="M325.21,-54.98C357.04,-46.01 407.36,-31.82 442.6,-21.89"/>
<polygon fill="#63b8ff" stroke="#63b8ff" points="443.88,-25.16 452.56,-19.08 441.98,-18.43 443.88,-25.16"/>
</a>
</g>
</g>
<!-- Node9&#45;&gt;Node5 -->
<g id="edge11_Node000009_Node000005" class="edge">
<title>Node9&#45;&gt;Node5</title>
<g id="a_edge11_Node000009_Node000005"><a xlink:title=" ">
<path fill="none" stroke="#63b8ff" d="M143.92,-109.98C174.27,-101.05 222.17,-86.94 255.88,-77.02"/>
<polygon fill="#63b8ff" stroke="#63b8ff" points="257.25,-80.26 265.85,-74.08 255.27,-73.55 257.25,-80.26"/>
</a>
</g>
</g>
<!-- Node10 -->
<g id="Node000010" class="node">
<title>Node10</title>
<g id="a_Node000010"><a xlink:title=" ">
<polygon fill="#e0e0e0" stroke="#999999" points="137,-74 93,-74 93,-55 137,-55 137,-74"/>
<text text-anchor="middle" x="115" y="-62" font-family="Helvetica,sans-Serif" font-size="10.00">string</text>
</a>
</g>
</g>
<!-- Node9&#45;&gt;Node10 -->
<g id="edge9_Node000009_Node000010" class="edge">
<title>Node9&#45;&gt;Node10</title>
<g id="a_edge9_Node000009_Node000010"><a xlink:title=" ">
<path fill="none" stroke="#63b8ff" d="M115,-109.75C115,-102.8 115,-92.85 115,-84.13"/>
<polygon fill="#63b8ff" stroke="#63b8ff" points="118.5,-84.09 115,-74.09 111.5,-84.09 118.5,-84.09"/>
</a>
</g>
</g>
<!-- Node11 -->
<g id="Node000011" class="node">
<title>Node11</title>
<g id="a_Node000011"><a xlink:title=" ">
<polygon fill="#e0e0e0" stroke="#999999" points="205.5,-74 158.5,-74 158.5,-55 205.5,-55 205.5,-74"/>
<text text-anchor="middle" x="182" y="-62" font-family="Helvetica,sans-Serif" font-size="10.00">vector</text>
</a>
</g>
</g>
<!-- Node9&#45;&gt;Node11 -->
<g id="edge10_Node000009_Node000011" class="edge">
<title>Node9&#45;&gt;Node11</title>
<g id="a_edge10_Node000009_Node000011"><a xlink:title=" ">
<path fill="none" stroke="#63b8ff" d="M125.76,-109.98C135.77,-102.07 150.89,-90.11 162.93,-80.58"/>
<polygon fill="#63b8ff" stroke="#63b8ff" points="165.37,-83.12 171.04,-74.17 161.03,-77.63 165.37,-83.12"/>
</a>
</g>
</g>
<!-- Node13&#45;&gt;Node5 -->
<g id="edge19_Node000013_Node000005" class="edge">
<title>Node13&#45;&gt;Node5</title>
<g id="a_edge19_Node000013_Node000005"><a xlink:title=" ">
<path fill="none" stroke="#63b8ff" d="M446.16,-164.85C434,-151.79 409.43,-126.77 385,-110 366.57,-97.35 344.02,-86.21 326.1,-78.23"/>
<polygon fill="#63b8ff" stroke="#63b8ff" points="327.24,-74.91 316.68,-74.14 324.46,-81.34 327.24,-74.91"/>
</a>
</g>
</g>
<!-- Node13&#45;&gt;Node11 -->
<g id="edge24_Node000013_Node000011" class="edge">
<title>Node13&#45;&gt;Node11</title>
<g id="a_edge24_Node000013_Node000011"><a xlink:title=" ">
<path fill="none" stroke="#63b8ff" d="M440.58,-164.83C415.08,-148.4 361.29,-114 352,-110 339.46,-104.6 261.37,-85 215.51,-73.7"/>
<polygon fill="#63b8ff" stroke="#63b8ff" points="216.25,-70.27 205.7,-71.28 214.58,-77.07 216.25,-70.27"/>
</a>
</g>
</g>
<!-- Node14 -->
<g id="Node000014" class="node">
<title>Node14</title>
<g id="a_Node000014"><a xlink:href="interpolator_8h.html" target="_top" xlink:title=" ">
<polygon fill="white" stroke="#666666" points="562.5,-129 437.5,-129 437.5,-110 562.5,-110 562.5,-129"/>
<text text-anchor="middle" x="500" y="-117" font-family="Helvetica,sans-Serif" font-size="10.00">occ/core/interpolator.h</text>
</a>
</g>
</g>
<!-- Node13&#45;&gt;Node14 -->
<g id="edge14_Node000013_Node000014" class="edge">
<title>Node13&#45;&gt;Node14</title>
<g id="a_edge14_Node000013_Node000014"><a xlink:title=" ">
<path fill="none" stroke="#63b8ff" d="M461.6,-164.75C468.16,-157.18 477.82,-146.05 485.81,-136.84"/>
<polygon fill="#63b8ff" stroke="#63b8ff" points="488.63,-138.94 492.55,-129.09 483.35,-134.35 488.63,-138.94"/>
</a>
</g>
</g>
<!-- Node17 -->
<g id="Node000017" class="node">
<title>Node17</title>
<g id="a_Node000017"><a xlink:href="units_8h.html" target="_top" xlink:title=" ">
<polygon fill="white" stroke="#666666" points="673.5,-129 580.5,-129 580.5,-110 673.5,-110 673.5,-129"/>
<text text-anchor="middle" x="627" y="-117" font-family="Helvetica,sans-Serif" font-size="10.00">occ/core/units.h</text>
</a>
</g>
</g>
<!-- Node13&#45;&gt;Node17 -->
<g id="edge20_Node000013_Node000017" class="edge">
<title>Node13&#45;&gt;Node17</title>
<g id="a_edge20_Node000013_Node000017"><a xlink:title=" ">
<path fill="none" stroke="#63b8ff" d="M481.8,-164.98C510.97,-156.05 557,-141.94 589.4,-132.02"/>
<polygon fill="#63b8ff" stroke="#63b8ff" points="590.45,-135.36 598.99,-129.08 588.4,-128.66 590.45,-135.36"/>
</a>
</g>
</g>
<!-- Node19 -->
<g id="Node000019" class="node">
<title>Node19</title>
<g id="a_Node000019"><a xlink:title=" ">
<polygon fill="#e0e0e0" stroke="#999999" points="736.5,-129 691.5,-129 691.5,-110 736.5,-110 736.5,-129"/>
<text text-anchor="middle" x="714" y="-117" font-family="Helvetica,sans-Serif" font-size="10.00">utility</text>
</a>
</g>
</g>
<!-- Node13&#45;&gt;Node19 -->
<g id="edge23_Node000013_Node000019" class="edge">
<title>Node13&#45;&gt;Node19</title>
<g id="a_edge23_Node000013_Node000019"><a xlink:title=" ">
<path fill="none" stroke="#63b8ff" d="M503.82,-164.94C548.18,-157.07 615.05,-144.58 681.56,-129.21"/>
<polygon fill="#63b8ff" stroke="#63b8ff" points="682.42,-132.6 691.36,-126.92 680.83,-125.78 682.42,-132.6"/>
</a>
</g>
</g>
<!-- Node14&#45;&gt;Node5 -->
<g id="edge17_Node000014_Node000005" class="edge">
<title>Node14&#45;&gt;Node5</title>
<g id="a_edge17_Node000014_Node000005"><a xlink:title=" ">
<path fill="none" stroke="#63b8ff" d="M467.06,-109.98C432.05,-100.93 376.53,-86.58 338.07,-76.64"/>
<polygon fill="#63b8ff" stroke="#63b8ff" points="338.75,-73.2 328.19,-74.08 337,-79.97 338.75,-73.2"/>
</a>
</g>
</g>
<!-- Node14&#45;&gt;Node8 -->
<g id="edge16_Node000014_Node000008" class="edge">
<title>Node14&#45;&gt;Node8</title>
<g id="a_edge16_Node000014_Node000008"><a xlink:title=" ">
<path fill="none" stroke="#63b8ff" d="M500.29,-109.79C500.55,-97.49 500.44,-74.34 497,-55 495.44,-46.23 492.64,-36.78 489.94,-28.85"/>
<polygon fill="#63b8ff" stroke="#63b8ff" points="493.15,-27.42 486.47,-19.2 486.56,-29.79 493.15,-27.42"/>
</a>
</g>
</g>
<!-- Node15 -->
<g id="Node000015" class="node">
<title>Node15</title>
<g id="a_Node000015"><a xlink:title=" ">
<polygon fill="#e0e0e0" stroke="#999999" points="591.5,-74 544.5,-74 544.5,-55 591.5,-55 591.5,-74"/>
<text text-anchor="middle" x="568" y="-62" font-family="Helvetica,sans-Serif" font-size="10.00">cmath</text>
</a>
</g>
</g>
<!-- Node14&#45;&gt;Node15 -->
<g id="edge15_Node000014_Node000015" class="edge">
<title>Node14&#45;&gt;Node15</title>
<g id="a_edge15_Node000014_Node000015"><a xlink:title=" ">
<path fill="none" stroke="#63b8ff" d="M510.93,-109.98C521.08,-102.07 536.42,-90.11 548.65,-80.58"/>
<polygon fill="#63b8ff" stroke="#63b8ff" points="551.14,-83.08 556.88,-74.17 546.84,-77.56 551.14,-83.08"/>
</a>
</g>
</g>
<!-- Node16 -->
<g id="Node000016" class="node">
<title>Node16</title>
<g id="a_Node000016"><a xlink:href="macros_8h.html" target="_top" xlink:title=" ">
<polygon fill="white" stroke="#666666" points="487.5,-74 382.5,-74 382.5,-55 487.5,-55 487.5,-74"/>
<text text-anchor="middle" x="435" y="-62" font-family="Helvetica,sans-Serif" font-size="10.00">occ/core/macros.h</text>
</a>
</g>
</g>
<!-- Node14&#45;&gt;Node16 -->
<g id="edge18_Node000014_Node000016" class="edge">
<title>Node14&#45;&gt;Node16</title>
<g id="a_edge18_Node000014_Node000016"><a xlink:title=" ">
<path fill="none" stroke="#63b8ff" d="M489.56,-109.98C479.85,-102.07 465.18,-90.11 453.5,-80.58"/>
<polygon fill="#63b8ff" stroke="#63b8ff" points="455.6,-77.78 445.63,-74.17 451.17,-83.2 455.6,-77.78"/>
</a>
</g>
</g>
<!-- Node17&#45;&gt;Node15 -->
<g id="edge21_Node000017_Node000015" class="edge">
<title>Node17&#45;&gt;Node15</title>
<g id="a_edge21_Node000017_Node000015"><a xlink:title=" ">
<path fill="none" stroke="#63b8ff" d="M617.52,-109.98C608.8,-102.15 595.66,-90.34 585.1,-80.86"/>
<polygon fill="#63b8ff" stroke="#63b8ff" points="587.43,-78.25 577.65,-74.17 582.75,-83.46 587.43,-78.25"/>
</a>
</g>
</g>
<!-- Node18 -->
<g id="Node000018" class="node">
<title>Node18</title>
<g id="a_Node000018"><a xlink:href="constants_8h.html" target="_top" xlink:title=" ">
<polygon fill="white" stroke="#666666" points="726,-74 610,-74 610,-55 726,-55 726,-74"/>
<text text-anchor="middle" x="668" y="-62" font-family="Helvetica,sans-Serif" font-size="10.00">occ/core/constants.h</text>
</a>
</g>
</g>
<!-- Node17&#45;&gt;Node18 -->
<g id="edge22_Node000017_Node000018" class="edge">
<title>Node17&#45;&gt;Node18</title>
<g id="a_edge22_Node000017_Node000018"><a xlink:title=" ">
<path fill="none" stroke="#63b8ff" d="M633.77,-109.75C639.56,-102.26 648.06,-91.28 655.14,-82.13"/>
<polygon fill="#63b8ff" stroke="#63b8ff" points="658.01,-84.14 661.36,-74.09 652.47,-79.86 658.01,-84.14"/>
</a>
</g>
</g>
</g>
</svg>
