<?xml version="1.0" encoding="UTF-8" standalone="no"?>
<!DOCTYPE svg PUBLIC "-//W3C//DTD SVG 1.1//EN"
 "http://www.w3.org/Graphics/SVG/1.1/DTD/svg11.dtd">
<!-- Generated by graphviz version 2.43.0 (0)
 -->
<!-- Title: /home/runner/work/occ/occ/include/occ/isosurface/electron_density.h Pages: 1 -->
<svg width="1601pt" height="434pt"
 viewBox="0.00 0.00 1600.50 434.00" xmlns="http://www.w3.org/2000/svg" xmlns:xlink="http://www.w3.org/1999/xlink">
<g id="graph0" class="graph" transform="scale(1 1) rotate(0) translate(4 430)">
<title>/home/runner/work/occ/occ/include/occ/isosurface/electron_density.h</title>
<!-- Node1 -->
<g id="Node000001" class="node">
<title>Node1</title>
<g id="a_Node000001"><a xlink:title=" ">
<polygon fill="#999999" stroke="#666666" points="497,-426 350,-426 350,-385 497,-385 497,-426"/>
<text text-anchor="start" x="358" y="-414" font-family="Helvetica,sans-Serif" font-size="10.00">/home/runner/work/occ</text>
<text text-anchor="start" x="358" y="-403" font-family="Helvetica,sans-Serif" font-size="10.00">/occ/include/occ/isosurface</text>
<text text-anchor="middle" x="423.5" y="-392" font-family="Helvetica,sans-Serif" font-size="10.00">/electron_density.h</text>
</a>
</g>
</g>
<!-- Node2 -->
<g id="Node000002" class="node">
<title>Node2</title>
<g id="a_Node000002"><a xlink:href="common_8h.html" target="_top" xlink:title=" ">
<polygon fill="white" stroke="#666666" points="230,-184 89,-184 89,-165 230,-165 230,-184"/>
<text text-anchor="middle" x="159.5" y="-172" font-family="Helvetica,sans-Serif" font-size="10.00">occ/isosurface/common.h</text>
</a>
</g>
</g>
<!-- Node1&#45;&gt;Node2 -->
<g id="edge1_Node000001_Node000002" class="edge">
<title>Node1&#45;&gt;Node2</title>
<g id="a_edge1_Node000001_Node000002"><a xlink:title=" ">
<path fill="none" stroke="#63b8ff" d="M349.83,-395.91C287.41,-384.31 201.55,-357.18 159.5,-294 139.34,-263.71 147.03,-218.73 153.72,-193.8"/>
<polygon fill="#63b8ff" stroke="#63b8ff" points="157.09,-194.74 156.52,-184.16 150.37,-192.79 157.09,-194.74"/>
</a>
</g>
</g>
<!-- Node14 -->
<g id="Node000014" class="node">
<title>Node14</title>
<g id="a_Node000014"><a xlink:href="wavefunction_8h.html" target="_top" xlink:title=" ">
<polygon fill="white" stroke="#666666" points="821.5,-349 691.5,-349 691.5,-330 821.5,-330 821.5,-349"/>
<text text-anchor="middle" x="756.5" y="-337" font-family="Helvetica,sans-Serif" font-size="10.00">occ/qm/wavefunction.h</text>
</a>
</g>
</g>
<!-- Node1&#45;&gt;Node14 -->
<g id="edge15_Node000001_Node000014" class="edge">
<title>Node1&#45;&gt;Node14</title>
<g id="a_edge15_Node000001_Node000014"><a xlink:title=" ">
<path fill="none" stroke="#63b8ff" d="M497.4,-390.3C559.27,-378.41 646.16,-361.71 701.9,-350.99"/>
<polygon fill="#63b8ff" stroke="#63b8ff" points="702.77,-354.39 711.93,-349.07 701.45,-347.52 702.77,-354.39"/>
</a>
</g>
</g>
<!-- Node3 -->
<g id="Node000003" class="node">
<title>Node3</title>
<g id="a_Node000003"><a xlink:href="interpolator_8h.html" target="_top" xlink:title=" ">
<polygon fill="white" stroke="#666666" points="338,-129 213,-129 213,-110 338,-110 338,-129"/>
<text text-anchor="middle" x="275.5" y="-117" font-family="Helvetica,sans-Serif" font-size="10.00">occ/core/interpolator.h</text>
</a>
</g>
</g>
<!-- Node2&#45;&gt;Node3 -->
<g id="edge2_Node000002_Node000003" class="edge">
<title>Node2&#45;&gt;Node3</title>
<g id="a_edge2_Node000002_Node000003"><a xlink:title=" ">
<path fill="none" stroke="#63b8ff" d="M178.14,-164.98C196.8,-156.46 225.75,-143.23 247.24,-133.41"/>
<polygon fill="#63b8ff" stroke="#63b8ff" points="248.88,-136.51 256.52,-129.17 245.97,-130.14 248.88,-136.51"/>
</a>
</g>
</g>
<!-- Node6 -->
<g id="Node000006" class="node">
<title>Node6</title>
<g id="a_Node000006"><a xlink:href="linear__algebra_8h.html" target="_top" xlink:title=" ">
<polygon fill="white" stroke="#666666" points="752,-74 613,-74 613,-55 752,-55 752,-74"/>
<text text-anchor="middle" x="682.5" y="-62" font-family="Helvetica,sans-Serif" font-size="10.00">occ/core/linear_algebra.h</text>
</a>
</g>
</g>
<!-- Node2&#45;&gt;Node6 -->
<g id="edge9_Node000002_Node000006" class="edge">
<title>Node2&#45;&gt;Node6</title>
<g id="a_edge9_Node000002_Node000006"><a xlink:title=" ">
<path fill="none" stroke="#63b8ff" d="M195.28,-165C265.81,-148.24 417,-112.36 428.5,-110 492.84,-96.78 566.86,-84.1 618.33,-75.68"/>
<polygon fill="#63b8ff" stroke="#63b8ff" points="619.01,-79.11 628.32,-74.05 617.89,-72.2 619.01,-79.11"/>
</a>
</g>
</g>
<!-- Node10 -->
<g id="Node000010" class="node">
<title>Node10</title>
<g id="a_Node000010"><a xlink:href="units_8h.html" target="_top" xlink:title=" ">
<polygon fill="white" stroke="#666666" points="156,-129 63,-129 63,-110 156,-110 156,-129"/>
<text text-anchor="middle" x="109.5" y="-117" font-family="Helvetica,sans-Serif" font-size="10.00">occ/core/units.h</text>
</a>
</g>
</g>
<!-- Node2&#45;&gt;Node10 -->
<g id="edge10_Node000002_Node000010" class="edge">
<title>Node2&#45;&gt;Node10</title>
<g id="a_edge10_Node000002_Node000010"><a xlink:title=" ">
<path fill="none" stroke="#63b8ff" d="M151.24,-164.75C144.04,-157.11 133.39,-145.82 124.65,-136.56"/>
<polygon fill="#63b8ff" stroke="#63b8ff" points="127.01,-133.96 117.6,-129.09 121.92,-138.76 127.01,-133.96"/>
</a>
</g>
</g>
<!-- Node12 -->
<g id="Node000012" class="node">
<title>Node12</title>
<g id="a_Node000012"><a xlink:title=" ">
<polygon fill="#e0e0e0" stroke="#999999" points="45,-129 0,-129 0,-110 45,-110 45,-129"/>
<text text-anchor="middle" x="22.5" y="-117" font-family="Helvetica,sans-Serif" font-size="10.00">utility</text>
</a>
</g>
</g>
<!-- Node2&#45;&gt;Node12 -->
<g id="edge13_Node000002_Node000012" class="edge">
<title>Node2&#45;&gt;Node12</title>
<g id="a_edge13_Node000002_Node000012"><a xlink:title=" ">
<path fill="none" stroke="#63b8ff" d="M137.49,-164.98C115.05,-156.3 80.02,-142.75 54.51,-132.88"/>
<polygon fill="#63b8ff" stroke="#63b8ff" points="55.5,-129.51 44.91,-129.17 52.98,-136.04 55.5,-129.51"/>
</a>
</g>
</g>
<!-- Node13 -->
<g id="Node000013" class="node">
<title>Node13</title>
<g id="a_Node000013"><a xlink:title=" ">
<polygon fill="#e0e0e0" stroke="#999999" points="504,-74 457,-74 457,-55 504,-55 504,-74"/>
<text text-anchor="middle" x="480.5" y="-62" font-family="Helvetica,sans-Serif" font-size="10.00">vector</text>
</a>
</g>
</g>
<!-- Node2&#45;&gt;Node13 -->
<g id="edge14_Node000002_Node000013" class="edge">
<title>Node2&#45;&gt;Node13</title>
<g id="a_edge14_Node000002_Node000013"><a xlink:title=" ">
<path fill="none" stroke="#63b8ff" d="M162.84,-164.84C168.73,-150.79 182.39,-123.29 203.5,-110 243.52,-84.8 382.21,-72.22 446.85,-67.62"/>
<polygon fill="#63b8ff" stroke="#63b8ff" points="447.19,-71.11 456.93,-66.93 446.71,-64.12 447.19,-71.11"/>
</a>
</g>
</g>
<!-- Node4 -->
<g id="Node000004" class="node">
<title>Node4</title>
<g id="a_Node000004"><a xlink:title=" ">
<polygon fill="#e0e0e0" stroke="#999999" points="219,-74 172,-74 172,-55 219,-55 219,-74"/>
<text text-anchor="middle" x="195.5" y="-62" font-family="Helvetica,sans-Serif" font-size="10.00">cmath</text>
</a>
</g>
</g>
<!-- Node3&#45;&gt;Node4 -->
<g id="edge3_Node000003_Node000004" class="edge">
<title>Node3&#45;&gt;Node4</title>
<g id="a_edge3_Node000003_Node000004"><a xlink:title=" ">
<path fill="none" stroke="#63b8ff" d="M262.65,-109.98C250.36,-101.84 231.59,-89.41 217.02,-79.76"/>
<polygon fill="#63b8ff" stroke="#63b8ff" points="218.86,-76.78 208.59,-74.17 214.99,-82.61 218.86,-76.78"/>
</a>
</g>
</g>
<!-- Node5 -->
<g id="Node000005" class="node">
<title>Node5</title>
<g id="a_Node000005"><a xlink:title=" ">
<polygon fill="#e0e0e0" stroke="#999999" points="1474,-74 1407,-74 1407,-55 1474,-55 1474,-74"/>
<text text-anchor="middle" x="1440.5" y="-62" font-family="Helvetica,sans-Serif" font-size="10.00">fmt/core.h</text>
</a>
</g>
</g>
<!-- Node3&#45;&gt;Node5 -->
<g id="edge4_Node000003_Node000005" class="edge">
<title>Node3&#45;&gt;Node5</title>
<g id="a_edge4_Node000003_Node000005"><a xlink:title=" ">
<path fill="none" stroke="#63b8ff" d="M338.03,-117.3C539.37,-113.24 1170.36,-98.93 1396.63,-73.85"/>
<polygon fill="#63b8ff" stroke="#63b8ff" points="1397.24,-77.3 1406.78,-72.68 1396.44,-70.34 1397.24,-77.3"/>
</a>
</g>
</g>
<!-- Node3&#45;&gt;Node6 -->
<g id="edge5_Node000003_Node000006" class="edge">
<title>Node3&#45;&gt;Node6</title>
<g id="a_edge5_Node000003_Node000006"><a xlink:title=" ">
<path fill="none" stroke="#63b8ff" d="M338.2,-110.33C410.54,-100.91 529.45,-85.43 606.86,-75.35"/>
<polygon fill="#63b8ff" stroke="#63b8ff" points="607.56,-78.79 617.03,-74.03 606.66,-71.85 607.56,-78.79"/>
</a>
</g>
</g>
<!-- Node9 -->
<g id="Node000009" class="node">
<title>Node9</title>
<g id="a_Node000009"><a xlink:href="macros_8h.html" target="_top" xlink:title=" ">
<polygon fill="white" stroke="#666666" points="342,-74 237,-74 237,-55 342,-55 342,-74"/>
<text text-anchor="middle" x="289.5" y="-62" font-family="Helvetica,sans-Serif" font-size="10.00">occ/core/macros.h</text>
</a>
</g>
</g>
<!-- Node3&#45;&gt;Node9 -->
<g id="edge8_Node000003_Node000009" class="edge">
<title>Node3&#45;&gt;Node9</title>
<g id="a_edge8_Node000003_Node000009"><a xlink:title=" ">
<path fill="none" stroke="#63b8ff" d="M277.81,-109.75C279.67,-102.72 282.34,-92.62 284.65,-83.84"/>
<polygon fill="#63b8ff" stroke="#63b8ff" points="288.06,-84.65 287.23,-74.09 281.29,-82.86 288.06,-84.65"/>
</a>
</g>
</g>
<!-- Node7 -->
<g id="Node000007" class="node">
<title>Node7</title>
<g id="a_Node000007"><a xlink:title=" ">
<polygon fill="#e0e0e0" stroke="#999999" points="667,-19 598,-19 598,0 667,0 667,-19"/>
<text text-anchor="middle" x="632.5" y="-7" font-family="Helvetica,sans-Serif" font-size="10.00">Eigen/Core</text>
</a>
</g>
</g>
<!-- Node6&#45;&gt;Node7 -->
<g id="edge6_Node000006_Node000007" class="edge">
<title>Node6&#45;&gt;Node7</title>
<g id="a_edge6_Node000006_Node000007"><a xlink:title=" ">
<path fill="none" stroke="#63b8ff" d="M674.24,-54.75C667.04,-47.11 656.39,-35.82 647.65,-26.56"/>
<polygon fill="#63b8ff" stroke="#63b8ff" points="650.01,-23.96 640.6,-19.09 644.92,-28.76 650.01,-23.96"/>
</a>
</g>
</g>
<!-- Node8 -->
<g id="Node000008" class="node">
<title>Node8</title>
<g id="a_Node000008"><a xlink:title=" ">
<polygon fill="#e0e0e0" stroke="#999999" points="778,-19 685,-19 685,0 778,0 778,-19"/>
<text text-anchor="middle" x="731.5" y="-7" font-family="Helvetica,sans-Serif" font-size="10.00">Eigen/StdVector</text>
</a>
</g>
</g>
<!-- Node6&#45;&gt;Node8 -->
<g id="edge7_Node000006_Node000008" class="edge">
<title>Node6&#45;&gt;Node8</title>
<g id="a_edge7_Node000006_Node000008"><a xlink:title=" ">
<path fill="none" stroke="#63b8ff" d="M690.59,-54.75C697.66,-47.11 708.09,-35.82 716.65,-26.56"/>
<polygon fill="#63b8ff" stroke="#63b8ff" points="719.34,-28.81 723.56,-19.09 714.2,-24.06 719.34,-28.81"/>
</a>
</g>
</g>
<!-- Node10&#45;&gt;Node4 -->
<g id="edge11_Node000010_Node000004" class="edge">
<title>Node10&#45;&gt;Node4</title>
<g id="a_edge11_Node000010_Node000004"><a xlink:title=" ">
<path fill="none" stroke="#63b8ff" d="M123.32,-109.98C136.65,-101.77 157.08,-89.18 172.81,-79.49"/>
<polygon fill="#63b8ff" stroke="#63b8ff" points="174.75,-82.4 181.43,-74.17 171.08,-76.44 174.75,-82.4"/>
</a>
</g>
</g>
<!-- Node11 -->
<g id="Node000011" class="node">
<title>Node11</title>
<g id="a_Node000011"><a xlink:href="constants_8h.html" target="_top" xlink:title=" ">
<polygon fill="white" stroke="#666666" points="153.5,-74 37.5,-74 37.5,-55 153.5,-55 153.5,-74"/>
<text text-anchor="middle" x="95.5" y="-62" font-family="Helvetica,sans-Serif" font-size="10.00">occ/core/constants.h</text>
</a>
</g>
</g>
<!-- Node10&#45;&gt;Node11 -->
<g id="edge12_Node000010_Node000011" class="edge">
<title>Node10&#45;&gt;Node11</title>
<g id="a_edge12_Node000010_Node000011"><a xlink:title=" ">
<path fill="none" stroke="#63b8ff" d="M107.19,-109.75C105.33,-102.72 102.66,-92.62 100.35,-83.84"/>
<polygon fill="#63b8ff" stroke="#63b8ff" points="103.71,-82.86 97.77,-74.09 96.94,-84.65 103.71,-82.86"/>
</a>
</g>
</g>
<!-- Node14&#45;&gt;Node5 -->
<g id="edge16_Node000014_Node000005" class="edge">
<title>Node14&#45;&gt;Node5</title>
<g id="a_edge16_Node000014_Node000005"><a xlink:title=" ">
<path fill="none" stroke="#63b8ff" d="M821.75,-336.91C1018.5,-331.25 1592.5,-308.11 1592.5,-230.5 1592.5,-230.5 1592.5,-230.5 1592.5,-173.5 1592.5,-119.93 1528.98,-90.49 1484.07,-76.37"/>
<polygon fill="#63b8ff" stroke="#63b8ff" points="1484.82,-72.94 1474.23,-73.42 1482.81,-79.64 1484.82,-72.94"/>
</a>
</g>
</g>
<!-- Node14&#45;&gt;Node6 -->
<g id="edge17_Node000014_Node000006" class="edge">
<title>Node14&#45;&gt;Node6</title>
<g id="a_edge17_Node000014_Node000006"><a xlink:title=" ">
<path fill="none" stroke="#63b8ff" d="M691.27,-337.47C556.01,-333.75 252.57,-316.74 192.5,-239 187.34,-232.32 187.51,-226.81 192.5,-220 219.7,-182.9 521.2,-105.28 637.3,-76.52"/>
<polygon fill="#63b8ff" stroke="#63b8ff" points="638.42,-79.85 647.29,-74.06 636.74,-73.06 638.42,-79.85"/>
</a>
</g>
</g>
<!-- Node15 -->
<g id="Node000015" class="node">
<title>Node15</title>
<g id="a_Node000015"><a xlink:href="fchkreader_8h.html" target="_top" xlink:title=" ">
<polygon fill="white" stroke="#666666" points="684.5,-294 556.5,-294 556.5,-275 684.5,-275 684.5,-294"/>
<text text-anchor="middle" x="620.5" y="-282" font-family="Helvetica,sans-Serif" font-size="10.00">occ/qm/io/fchkreader.h</text>
</a>
</g>
</g>
<!-- Node14&#45;&gt;Node15 -->
<g id="edge18_Node000014_Node000015" class="edge">
<title>Node14&#45;&gt;Node15</title>
<g id="a_edge18_Node000014_Node000015"><a xlink:title=" ">
<path fill="none" stroke="#63b8ff" d="M734.65,-329.98C712.38,-321.3 677.6,-307.75 652.28,-297.88"/>
<polygon fill="#63b8ff" stroke="#63b8ff" points="653.34,-294.54 642.75,-294.17 650.79,-301.06 653.34,-294.54"/>
</a>
</g>
</g>
<!-- Node18 -->
<g id="Node000018" class="node">
<title>Node18</title>
<g id="a_Node000018"><a xlink:href="shell_8h.html" target="_top" xlink:title=" ">
<polygon fill="white" stroke="#666666" points="934,-239 847,-239 847,-220 934,-220 934,-239"/>
<text text-anchor="middle" x="890.5" y="-227" font-family="Helvetica,sans-Serif" font-size="10.00">occ/gto/shell.h</text>
</a>
</g>
</g>
<!-- Node14&#45;&gt;Node18 -->
<g id="edge78_Node000014_Node000018" class="edge">
<title>Node14&#45;&gt;Node18</title>
<g id="a_edge78_Node000014_Node000018"><a xlink:title=" ">
<path fill="none" stroke="#63b8ff" d="M805.2,-329.98C828.14,-323.64 854.21,-312.71 871.5,-294 882.73,-281.85 887.34,-263.33 889.22,-249.41"/>
<polygon fill="#63b8ff" stroke="#63b8ff" points="892.74,-249.35 890.25,-239.05 885.78,-248.66 892.74,-249.35"/>
</a>
</g>
</g>
<!-- Node29 -->
<g id="Node000029" class="node">
<title>Node29</title>
<g id="a_Node000029"><a xlink:href="qm_2spinorbital_8h.html" target="_top" xlink:title=" ">
<polygon fill="white" stroke="#666666" points="774.5,-239 658.5,-239 658.5,-220 774.5,-220 774.5,-239"/>
<text text-anchor="middle" x="716.5" y="-227" font-family="Helvetica,sans-Serif" font-size="10.00">occ/qm/spinorbital.h</text>
</a>
</g>
</g>
<!-- Node14&#45;&gt;Node29 -->
<g id="edge79_Node000014_Node000029" class="edge">
<title>Node14&#45;&gt;Node29</title>
<g id="a_edge79_Node000014_Node000029"><a xlink:title=" ">
<path fill="none" stroke="#63b8ff" d="M750.76,-329.99C745.13,-321.29 736.65,-307.21 731.5,-294 725.83,-279.47 721.92,-262.2 719.52,-249.35"/>
<polygon fill="#63b8ff" stroke="#63b8ff" points="722.94,-248.62 717.79,-239.36 716.05,-249.81 722.94,-248.62"/>
</a>
</g>
</g>
<!-- Node32 -->
<g id="Node000032" class="node">
<title>Node32</title>
<g id="a_Node000032"><a xlink:href="fchkwriter_8h.html" target="_top" xlink:title=" ">
<polygon fill="white" stroke="#666666" points="538,-294 413,-294 413,-275 538,-275 538,-294"/>
<text text-anchor="middle" x="475.5" y="-282" font-family="Helvetica,sans-Serif" font-size="10.00">occ/qm/io/fchkwriter.h</text>
</a>
</g>
</g>
<!-- Node14&#45;&gt;Node32 -->
<g id="edge51_Node000014_Node000032" class="edge">
<title>Node14&#45;&gt;Node32</title>
<g id="a_edge51_Node000014_Node000032"><a xlink:title=" ">
<path fill="none" stroke="#63b8ff" d="M711.35,-329.98C662.24,-320.72 583.68,-305.9 530.88,-295.94"/>
<polygon fill="#63b8ff" stroke="#63b8ff" points="531.48,-292.5 521,-294.08 530.18,-299.37 531.48,-292.5"/>
</a>
</g>
</g>
<!-- Node35 -->
<g id="Node000035" class="node">
<title>Node35</title>
<g id="a_Node000035"><a xlink:href="moldenreader_8h.html" target="_top" xlink:title=" ">
<polygon fill="white" stroke="#666666" points="1160,-294 1017,-294 1017,-275 1160,-275 1160,-294"/>
<text text-anchor="middle" x="1088.5" y="-282" font-family="Helvetica,sans-Serif" font-size="10.00">occ/qm/io/moldenreader.h</text>
</a>
</g>
</g>
<!-- Node14&#45;&gt;Node35 -->
<g id="edge58_Node000014_Node000035" class="edge">
<title>Node14&#45;&gt;Node35</title>
<g id="a_edge58_Node000014_Node000035"><a xlink:title=" ">
<path fill="none" stroke="#63b8ff" d="M809.84,-329.98C868.44,-320.63 962.51,-305.61 1024.9,-295.65"/>
<polygon fill="#63b8ff" stroke="#63b8ff" points="1025.69,-299.07 1035.02,-294.04 1024.59,-292.16 1025.69,-299.07"/>
</a>
</g>
</g>
<!-- Node37 -->
<g id="Node000037" class="node">
<title>Node37</title>
<g id="a_Node000037"><a xlink:href="orca__json_8h.html" target="_top" xlink:title=" ">
<polygon fill="white" stroke="#666666" points="862.5,-294 740.5,-294 740.5,-275 862.5,-275 862.5,-294"/>
<text text-anchor="middle" x="801.5" y="-282" font-family="Helvetica,sans-Serif" font-size="10.00">occ/qm/io/orca_json.h</text>
</a>
</g>
</g>
<!-- Node14&#45;&gt;Node37 -->
<g id="edge65_Node000014_Node000037" class="edge">
<title>Node14&#45;&gt;Node37</title>
<g id="a_edge65_Node000014_Node000037"><a xlink:title=" ">
<path fill="none" stroke="#63b8ff" d="M763.93,-329.75C770.35,-322.18 779.81,-311.05 787.62,-301.84"/>
<polygon fill="#63b8ff" stroke="#63b8ff" points="790.4,-303.98 794.21,-294.09 785.07,-299.45 790.4,-303.98"/>
</a>
</g>
</g>
<!-- Node38 -->
<g id="Node000038" class="node">
<title>Node38</title>
<g id="a_Node000038"><a xlink:href="mo_8h.html" target="_top" xlink:title=" ">
<polygon fill="white" stroke="#666666" points="998.5,-294 918.5,-294 918.5,-275 998.5,-275 998.5,-294"/>
<text text-anchor="middle" x="958.5" y="-282" font-family="Helvetica,sans-Serif" font-size="10.00">occ/qm/mo.h</text>
</a>
</g>
</g>
<!-- Node14&#45;&gt;Node38 -->
<g id="edge73_Node000014_Node000038" class="edge">
<title>Node14&#45;&gt;Node38</title>
<g id="a_edge73_Node000014_Node000038"><a xlink:title=" ">
<path fill="none" stroke="#63b8ff" d="M788.95,-329.98C823.46,-320.93 878.16,-306.58 916.06,-296.64"/>
<polygon fill="#63b8ff" stroke="#63b8ff" points="917.01,-300.01 925.79,-294.08 915.23,-293.23 917.01,-300.01"/>
</a>
</g>
</g>
<!-- Node15&#45;&gt;Node6 -->
<g id="edge21_Node000015_Node000006" class="edge">
<title>Node15&#45;&gt;Node6</title>
<g id="a_edge21_Node000015_Node000006"><a xlink:title=" ">
<path fill="none" stroke="#63b8ff" d="M587.48,-274.87C569.32,-268.26 548.33,-257.1 537.5,-239 520.61,-210.78 522.18,-194.1 537.5,-165 550.55,-140.22 619.36,-99.86 657.31,-78.97"/>
<polygon fill="#63b8ff" stroke="#63b8ff" points="659.14,-81.96 666.24,-74.1 655.79,-75.82 659.14,-81.96"/>
</a>
</g>
</g>
<!-- Node15&#45;&gt;Node13 -->
<g id="edge50_Node000015_Node000013" class="edge">
<title>Node15&#45;&gt;Node13</title>
<g id="a_edge50_Node000015_Node000013"><a xlink:title=" ">
<path fill="none" stroke="#63b8ff" d="M589.62,-274.97C551.29,-262.41 488.31,-234.74 466.5,-184 452.24,-150.83 463.89,-107.89 472.78,-83.87"/>
<polygon fill="#63b8ff" stroke="#63b8ff" points="476.15,-84.85 476.56,-74.26 469.64,-82.28 476.15,-84.85"/>
</a>
</g>
</g>
<!-- Node16 -->
<g id="Node000016" class="node">
<title>Node16</title>
<g id="a_Node000016"><a xlink:title=" ">
<polygon fill="#e0e0e0" stroke="#999999" points="602,-239 547,-239 547,-220 602,-220 602,-239"/>
<text text-anchor="middle" x="574.5" y="-227" font-family="Helvetica,sans-Serif" font-size="10.00">fstream</text>
</a>
</g>
</g>
<!-- Node15&#45;&gt;Node16 -->
<g id="edge19_Node000015_Node000016" class="edge">
<title>Node15&#45;&gt;Node16</title>
<g id="a_edge19_Node000015_Node000016"><a xlink:title=" ">
<path fill="none" stroke="#63b8ff" d="M612.9,-274.75C606.34,-267.18 596.68,-256.05 588.69,-246.84"/>
<polygon fill="#63b8ff" stroke="#63b8ff" points="591.15,-244.35 581.95,-239.09 585.87,-248.94 591.15,-244.35"/>
</a>
</g>
</g>
<!-- Node17 -->
<g id="Node000017" class="node">
<title>Node17</title>
<g id="a_Node000017"><a xlink:title=" ">
<polygon fill="#e0e0e0" stroke="#999999" points="1105.5,-239 1051.5,-239 1051.5,-220 1105.5,-220 1105.5,-239"/>
<text text-anchor="middle" x="1078.5" y="-227" font-family="Helvetica,sans-Serif" font-size="10.00">istream</text>
</a>
</g>
</g>
<!-- Node15&#45;&gt;Node17 -->
<g id="edge20_Node000015_Node000017" class="edge">
<title>Node15&#45;&gt;Node17</title>
<g id="a_edge20_Node000015_Node000017"><a xlink:title=" ">
<path fill="none" stroke="#63b8ff" d="M684.67,-276.07C781.77,-264.84 963.01,-243.86 1041.11,-234.83"/>
<polygon fill="#63b8ff" stroke="#63b8ff" points="1041.89,-238.26 1051.42,-233.63 1041.09,-231.31 1041.89,-238.26"/>
</a>
</g>
</g>
<!-- Node15&#45;&gt;Node18 -->
<g id="edge22_Node000015_Node000018" class="edge">
<title>Node15&#45;&gt;Node18</title>
<g id="a_edge22_Node000015_Node000018"><a xlink:title=" ">
<path fill="none" stroke="#63b8ff" d="M663.88,-274.98C710.88,-265.76 785.93,-251.03 836.66,-241.07"/>
<polygon fill="#63b8ff" stroke="#63b8ff" points="837.64,-244.44 846.78,-239.08 836.29,-237.57 837.64,-244.44"/>
</a>
</g>
</g>
<!-- Node15&#45;&gt;Node29 -->
<g id="edge42_Node000015_Node000029" class="edge">
<title>Node15&#45;&gt;Node29</title>
<g id="a_edge42_Node000015_Node000029"><a xlink:title=" ">
<path fill="none" stroke="#63b8ff" d="M635.92,-274.98C650.95,-266.69 674.04,-253.94 691.66,-244.22"/>
<polygon fill="#63b8ff" stroke="#63b8ff" points="693.73,-247.07 700.8,-239.17 690.35,-240.94 693.73,-247.07"/>
</a>
</g>
</g>
<!-- Node18&#45;&gt;Node5 -->
<g id="edge24_Node000018_Node000005" class="edge">
<title>Node18&#45;&gt;Node5</title>
<g id="a_edge24_Node000018_Node000005"><a xlink:title=" ">
<path fill="none" stroke="#63b8ff" d="M934.01,-225.29C1066.68,-215.48 1457.27,-186.42 1459.5,-184 1485.1,-156.32 1465.01,-108.55 1451.04,-82.93"/>
<polygon fill="#63b8ff" stroke="#63b8ff" points="1453.92,-80.94 1445.91,-74 1447.85,-84.42 1453.92,-80.94"/>
</a>
</g>
</g>
<!-- Node18&#45;&gt;Node6 -->
<g id="edge27_Node000018_Node000006" class="edge">
<title>Node18&#45;&gt;Node6</title>
<g id="a_edge27_Node000018_Node000006"><a xlink:title=" ">
<path fill="none" stroke="#63b8ff" d="M928.51,-219.85C947.62,-213.37 969.1,-202.36 980.5,-184 993.41,-163.21 975.2,-120.83 962.5,-110 933.09,-84.93 834.41,-73.87 762.51,-69.07"/>
<polygon fill="#63b8ff" stroke="#63b8ff" points="762.31,-65.55 752.1,-68.4 761.86,-72.53 762.31,-65.55"/>
</a>
</g>
</g>
<!-- Node18&#45;&gt;Node13 -->
<g id="edge41_Node000018_Node000013" class="edge">
<title>Node18&#45;&gt;Node13</title>
<g id="a_edge41_Node000018_Node000013"><a xlink:title=" ">
<path fill="none" stroke="#63b8ff" d="M869.03,-219.97C801.25,-193.02 591.54,-109.65 511.75,-77.92"/>
<polygon fill="#63b8ff" stroke="#63b8ff" points="512.83,-74.59 502.25,-74.15 510.25,-81.09 512.83,-74.59"/>
</a>
</g>
</g>
<!-- Node19 -->
<g id="Node000019" class="node">
<title>Node19</title>
<g id="a_Node000019"><a xlink:title=" ">
<polygon fill="#e0e0e0" stroke="#999999" points="953.5,-129 911.5,-129 911.5,-110 953.5,-110 953.5,-129"/>
<text text-anchor="middle" x="932.5" y="-117" font-family="Helvetica,sans-Serif" font-size="10.00">array</text>
</a>
</g>
</g>
<!-- Node18&#45;&gt;Node19 -->
<g id="edge23_Node000018_Node000019" class="edge">
<title>Node18&#45;&gt;Node19</title>
<g id="a_edge23_Node000018_Node000019"><a xlink:title=" ">
<path fill="none" stroke="#63b8ff" d="M918.15,-219.98C935.08,-213.17 955.39,-201.76 965.5,-184 974.56,-168.09 962.25,-149.44 950.17,-136.49"/>
<polygon fill="#63b8ff" stroke="#63b8ff" points="952.43,-133.81 942.87,-129.24 947.5,-138.77 952.43,-133.81"/>
</a>
</g>
</g>
<!-- Node20 -->
<g id="Node000020" class="node">
<title>Node20</title>
<g id="a_Node000020"><a xlink:href="atom_8h.html" target="_top" xlink:title=" ">
<polygon fill="white" stroke="#666666" points="825,-129 730,-129 730,-110 825,-110 825,-129"/>
<text text-anchor="middle" x="777.5" y="-117" font-family="Helvetica,sans-Serif" font-size="10.00">occ/core/atom.h</text>
</a>
</g>
</g>
<!-- Node18&#45;&gt;Node20 -->
<g id="edge25_Node000018_Node000020" class="edge">
<title>Node18&#45;&gt;Node20</title>
<g id="a_edge25_Node000018_Node000020"><a xlink:title=" ">
<path fill="none" stroke="#63b8ff" d="M870.19,-219.87C853.96,-212.22 831.37,-199.81 815.5,-184 802.3,-170.85 791.86,-152.22 785.29,-138.54"/>
<polygon fill="#63b8ff" stroke="#63b8ff" points="788.37,-136.86 781.04,-129.21 782,-139.76 788.37,-136.86"/>
</a>
</g>
</g>
<!-- Node21 -->
<g id="Node000021" class="node">
<title>Node21</title>
<g id="a_Node000021"><a xlink:href="point__charge_8h.html" target="_top" xlink:title=" ">
<polygon fill="white" stroke="#666666" points="956.5,-184 824.5,-184 824.5,-165 956.5,-165 956.5,-184"/>
<text text-anchor="middle" x="890.5" y="-172" font-family="Helvetica,sans-Serif" font-size="10.00">occ/core/point_charge.h</text>
</a>
</g>
</g>
<!-- Node18&#45;&gt;Node21 -->
<g id="edge28_Node000018_Node000021" class="edge">
<title>Node18&#45;&gt;Node21</title>
<g id="a_edge28_Node000018_Node000021"><a xlink:title=" ">
<path fill="none" stroke="#63b8ff" d="M890.5,-219.75C890.5,-212.8 890.5,-202.85 890.5,-194.13"/>
<polygon fill="#63b8ff" stroke="#63b8ff" points="894,-194.09 890.5,-184.09 887,-194.09 894,-194.09"/>
</a>
</g>
</g>
<!-- Node22 -->
<g id="Node000022" class="node">
<title>Node22</title>
<g id="a_Node000022"><a xlink:href="util_8h.html" target="_top" xlink:title=" ">
<polygon fill="white" stroke="#666666" points="1338,-129 1253,-129 1253,-110 1338,-110 1338,-129"/>
<text text-anchor="middle" x="1295.5" y="-117" font-family="Helvetica,sans-Serif" font-size="10.00">occ/core/util.h</text>
</a>
</g>
</g>
<!-- Node18&#45;&gt;Node22 -->
<g id="edge31_Node000018_Node000022" class="edge">
<title>Node18&#45;&gt;Node22</title>
<g id="a_edge31_Node000018_Node000022"><a xlink:title=" ">
<path fill="none" stroke="#63b8ff" d="M934.13,-224.76C1032.39,-216.16 1263.49,-194.9 1276.5,-184 1289.45,-173.15 1293.79,-153.87 1295.14,-139.39"/>
<polygon fill="#63b8ff" stroke="#63b8ff" points="1298.66,-139.24 1295.69,-129.06 1291.67,-138.86 1298.66,-139.24"/>
</a>
</g>
</g>
<!-- Node20&#45;&gt;Node6 -->
<g id="edge26_Node000020_Node000006" class="edge">
<title>Node20&#45;&gt;Node6</title>
<g id="a_edge26_Node000020_Node000006"><a xlink:title=" ">
<path fill="none" stroke="#63b8ff" d="M762.24,-109.98C747.37,-101.69 724.52,-88.94 707.08,-79.22"/>
<polygon fill="#63b8ff" stroke="#63b8ff" points="708.48,-75.99 698.04,-74.17 705.07,-82.1 708.48,-75.99"/>
</a>
</g>
</g>
<!-- Node21&#45;&gt;Node19 -->
<g id="edge29_Node000021_Node000019" class="edge">
<title>Node21&#45;&gt;Node19</title>
<g id="a_edge29_Node000021_Node000019"><a xlink:title=" ">
<path fill="none" stroke="#63b8ff" d="M897.44,-164.75C903.37,-157.26 912.07,-146.28 919.32,-137.13"/>
<polygon fill="#63b8ff" stroke="#63b8ff" points="922.23,-139.1 925.69,-129.09 916.74,-134.75 922.23,-139.1"/>
</a>
</g>
</g>
<!-- Node21&#45;&gt;Node20 -->
<g id="edge30_Node000021_Node000020" class="edge">
<title>Node21&#45;&gt;Node20</title>
<g id="a_edge30_Node000021_Node000020"><a xlink:title=" ">
<path fill="none" stroke="#63b8ff" d="M872.34,-164.98C854.25,-156.5 826.22,-143.35 805.31,-133.54"/>
<polygon fill="#63b8ff" stroke="#63b8ff" points="806.53,-130.25 795.99,-129.17 803.55,-136.59 806.53,-130.25"/>
</a>
</g>
</g>
<!-- Node22&#45;&gt;Node5 -->
<g id="edge35_Node000022_Node000005" class="edge">
<title>Node22&#45;&gt;Node5</title>
<g id="a_edge35_Node000022_Node000005"><a xlink:title=" ">
<path fill="none" stroke="#63b8ff" d="M1318.8,-109.98C1342.75,-101.23 1380.28,-87.51 1407.33,-77.62"/>
<polygon fill="#63b8ff" stroke="#63b8ff" points="1408.59,-80.89 1416.78,-74.17 1406.19,-74.32 1408.59,-80.89"/>
</a>
</g>
</g>
<!-- Node22&#45;&gt;Node6 -->
<g id="edge38_Node000022_Node000006" class="edge">
<title>Node22&#45;&gt;Node6</title>
<g id="a_edge38_Node000022_Node000006"><a xlink:title=" ">
<path fill="none" stroke="#63b8ff" d="M1252.9,-111.82C1248.05,-111.16 1243.17,-110.53 1238.5,-110 1069.57,-90.67 870.81,-76.92 762.61,-70.19"/>
<polygon fill="#63b8ff" stroke="#63b8ff" points="762.62,-66.69 752.43,-69.56 762.19,-73.67 762.62,-66.69"/>
</a>
</g>
</g>
<!-- Node22&#45;&gt;Node13 -->
<g id="edge40_Node000022_Node000013" class="edge">
<title>Node22&#45;&gt;Node13</title>
<g id="a_edge40_Node000022_Node000013"><a xlink:title=" ">
<path fill="none" stroke="#63b8ff" d="M1252.97,-115.84C1144.64,-109.03 849.45,-90.41 603.5,-74 573.36,-71.99 539.07,-69.61 514.37,-67.88"/>
<polygon fill="#63b8ff" stroke="#63b8ff" points="514.3,-64.37 504.08,-67.16 513.81,-71.35 514.3,-64.37"/>
</a>
</g>
</g>
<!-- Node23 -->
<g id="Node000023" class="node">
<title>Node23</title>
<g id="a_Node000023"><a xlink:title=" ">
<polygon fill="#e0e0e0" stroke="#999999" points="1252.5,-74 1188.5,-74 1188.5,-55 1252.5,-55 1252.5,-74"/>
<text text-anchor="middle" x="1220.5" y="-62" font-family="Helvetica,sans-Serif" font-size="10.00">algorithm</text>
</a>
</g>
</g>
<!-- Node22&#45;&gt;Node23 -->
<g id="edge32_Node000022_Node000023" class="edge">
<title>Node22&#45;&gt;Node23</title>
<g id="a_edge32_Node000022_Node000023"><a xlink:title=" ">
<path fill="none" stroke="#63b8ff" d="M1283.45,-109.98C1272.04,-101.92 1254.67,-89.65 1241.07,-80.03"/>
<polygon fill="#63b8ff" stroke="#63b8ff" points="1242.96,-77.08 1232.77,-74.17 1238.92,-82.8 1242.96,-77.08"/>
</a>
</g>
</g>
<!-- Node24 -->
<g id="Node000024" class="node">
<title>Node24</title>
<g id="a_Node000024"><a xlink:title=" ">
<polygon fill="#e0e0e0" stroke="#999999" points="1320,-74 1271,-74 1271,-55 1320,-55 1320,-74"/>
<text text-anchor="middle" x="1295.5" y="-62" font-family="Helvetica,sans-Serif" font-size="10.00">cctype</text>
</a>
</g>
</g>
<!-- Node22&#45;&gt;Node24 -->
<g id="edge33_Node000022_Node000024" class="edge">
<title>Node22&#45;&gt;Node24</title>
<g id="a_edge33_Node000022_Node000024"><a xlink:title=" ">
<path fill="none" stroke="#63b8ff" d="M1295.5,-109.75C1295.5,-102.8 1295.5,-92.85 1295.5,-84.13"/>
<polygon fill="#63b8ff" stroke="#63b8ff" points="1299,-84.09 1295.5,-74.09 1292,-84.09 1299,-84.09"/>
</a>
</g>
</g>
<!-- Node25 -->
<g id="Node000025" class="node">
<title>Node25</title>
<g id="a_Node000025"><a xlink:title=" ">
<polygon fill="#e0e0e0" stroke="#999999" points="1388.5,-74 1338.5,-74 1338.5,-55 1388.5,-55 1388.5,-74"/>
<text text-anchor="middle" x="1363.5" y="-62" font-family="Helvetica,sans-Serif" font-size="10.00">chrono</text>
</a>
</g>
</g>
<!-- Node22&#45;&gt;Node25 -->
<g id="edge34_Node000022_Node000025" class="edge">
<title>Node22&#45;&gt;Node25</title>
<g id="a_edge34_Node000022_Node000025"><a xlink:title=" ">
<path fill="none" stroke="#63b8ff" d="M1306.43,-109.98C1316.58,-102.07 1331.92,-90.11 1344.15,-80.58"/>
<polygon fill="#63b8ff" stroke="#63b8ff" points="1346.64,-83.08 1352.38,-74.17 1342.34,-77.56 1346.64,-83.08"/>
</a>
</g>
</g>
<!-- Node26 -->
<g id="Node000026" class="node">
<title>Node26</title>
<g id="a_Node000026"><a xlink:title=" ">
<polygon fill="#e0e0e0" stroke="#999999" points="1096.5,-74 1010.5,-74 1010.5,-55 1096.5,-55 1096.5,-74"/>
<text text-anchor="middle" x="1053.5" y="-62" font-family="Helvetica,sans-Serif" font-size="10.00">fmt/ostream.h</text>
</a>
</g>
</g>
<!-- Node22&#45;&gt;Node26 -->
<g id="edge36_Node000022_Node000026" class="edge">
<title>Node22&#45;&gt;Node26</title>
<g id="a_edge36_Node000022_Node000026"><a xlink:title=" ">
<path fill="none" stroke="#63b8ff" d="M1256.62,-109.98C1214.76,-100.82 1148.07,-86.21 1102.62,-76.26"/>
<polygon fill="#63b8ff" stroke="#63b8ff" points="1103.2,-72.8 1092.69,-74.08 1101.71,-79.64 1103.2,-72.8"/>
</a>
</g>
</g>
<!-- Node27 -->
<g id="Node000027" class="node">
<title>Node27</title>
<g id="a_Node000027"><a xlink:title=" ">
<polygon fill="#e0e0e0" stroke="#999999" points="1170.5,-74 1114.5,-74 1114.5,-55 1170.5,-55 1170.5,-74"/>
<text text-anchor="middle" x="1142.5" y="-62" font-family="Helvetica,sans-Serif" font-size="10.00">numeric</text>
</a>
</g>
</g>
<!-- Node22&#45;&gt;Node27 -->
<g id="edge37_Node000022_Node000027" class="edge">
<title>Node22&#45;&gt;Node27</title>
<g id="a_edge37_Node000022_Node000027"><a xlink:title=" ">
<path fill="none" stroke="#63b8ff" d="M1270.92,-109.98C1245.45,-101.16 1205.46,-87.31 1176.87,-77.41"/>
<polygon fill="#63b8ff" stroke="#63b8ff" points="1177.87,-74.05 1167.27,-74.08 1175.58,-80.66 1177.87,-74.05"/>
</a>
</g>
</g>
<!-- Node28 -->
<g id="Node000028" class="node">
<title>Node28</title>
<g id="a_Node000028"><a xlink:title=" ">
<polygon fill="#e0e0e0" stroke="#999999" points="1537.5,-74 1493.5,-74 1493.5,-55 1537.5,-55 1537.5,-74"/>
<text text-anchor="middle" x="1515.5" y="-62" font-family="Helvetica,sans-Serif" font-size="10.00">string</text>
</a>
</g>
</g>
<!-- Node22&#45;&gt;Node28 -->
<g id="edge39_Node000022_Node000028" class="edge">
<title>Node22&#45;&gt;Node28</title>
<g id="a_edge39_Node000022_Node000028"><a xlink:title=" ">
<path fill="none" stroke="#63b8ff" d="M1333.03,-109.93C1371.03,-101.19 1431.45,-87.07 1483.5,-74 1483.6,-73.97 1483.7,-73.95 1483.8,-73.92"/>
<polygon fill="#63b8ff" stroke="#63b8ff" points="1484.67,-77.31 1493.49,-71.43 1482.93,-70.53 1484.67,-77.31"/>
</a>
</g>
</g>
<!-- Node29&#45;&gt;Node6 -->
<g id="edge43_Node000029_Node000006" class="edge">
<title>Node29&#45;&gt;Node6</title>
<g id="a_edge43_Node000029_Node000006"><a xlink:title=" ">
<path fill="none" stroke="#63b8ff" d="M714.67,-219.74C709.35,-194.2 693.75,-119.43 686.41,-84.23"/>
<polygon fill="#63b8ff" stroke="#63b8ff" points="689.81,-83.38 684.34,-74.31 682.95,-84.81 689.81,-83.38"/>
</a>
</g>
</g>
<!-- Node29&#45;&gt;Node22 -->
<g id="edge47_Node000029_Node000022" class="edge">
<title>Node29&#45;&gt;Node22</title>
<g id="a_edge47_Node000029_Node000022"><a xlink:title=" ">
<path fill="none" stroke="#63b8ff" d="M774.53,-224.03C899.72,-214.27 1185.55,-191.34 1205.5,-184 1234.19,-173.44 1262.14,-151.31 1279.09,-136.18"/>
<polygon fill="#63b8ff" stroke="#63b8ff" points="1281.48,-138.73 1286.48,-129.39 1276.75,-133.58 1281.48,-138.73"/>
</a>
</g>
</g>
<!-- Node30 -->
<g id="Node000030" class="node">
<title>Node30</title>
<g id="a_Node000030"><a xlink:href="core_2spinorbital_8h.html" target="_top" xlink:title=" ">
<polygon fill="white" stroke="#666666" points="1450,-184 1329,-184 1329,-165 1450,-165 1450,-184"/>
<text text-anchor="middle" x="1389.5" y="-172" font-family="Helvetica,sans-Serif" font-size="10.00">occ/core/spinorbital.h</text>
</a>
</g>
</g>
<!-- Node29&#45;&gt;Node30 -->
<g id="edge44_Node000029_Node000030" class="edge">
<title>Node29&#45;&gt;Node30</title>
<g id="a_edge44_Node000029_Node000030"><a xlink:title=" ">
<path fill="none" stroke="#63b8ff" d="M774.75,-223.91C897.99,-214.21 1184.74,-191.62 1318.47,-181.09"/>
<polygon fill="#63b8ff" stroke="#63b8ff" points="1318.91,-184.57 1328.61,-180.3 1318.36,-177.59 1318.91,-184.57"/>
</a>
</g>
</g>
<!-- Node31 -->
<g id="Node000031" class="node">
<title>Node31</title>
<g id="a_Node000031"><a xlink:href="qm_2opmatrix_8h.html" target="_top" xlink:title=" ">
<polygon fill="white" stroke="#666666" points="654.5,-184 546.5,-184 546.5,-165 654.5,-165 654.5,-184"/>
<text text-anchor="middle" x="600.5" y="-172" font-family="Helvetica,sans-Serif" font-size="10.00">occ/qm/opmatrix.h</text>
</a>
</g>
</g>
<!-- Node29&#45;&gt;Node31 -->
<g id="edge48_Node000029_Node000031" class="edge">
<title>Node29&#45;&gt;Node31</title>
<g id="a_edge48_Node000029_Node000031"><a xlink:title=" ">
<path fill="none" stroke="#63b8ff" d="M692.75,-219.98C672.39,-211.54 643.52,-198.47 623.42,-188.68"/>
<polygon fill="#63b8ff" stroke="#63b8ff" points="624.84,-185.48 614.33,-184.17 621.73,-191.75 624.84,-185.48"/>
</a>
</g>
</g>
<!-- Node30&#45;&gt;Node22 -->
<g id="edge45_Node000030_Node000022" class="edge">
<title>Node30&#45;&gt;Node22</title>
<g id="a_edge45_Node000030_Node000022"><a xlink:title=" ">
<path fill="none" stroke="#63b8ff" d="M1374.4,-164.98C1359.68,-156.69 1337.08,-143.94 1319.83,-134.22"/>
<polygon fill="#63b8ff" stroke="#63b8ff" points="1321.31,-131.03 1310.88,-129.17 1317.87,-137.13 1321.31,-131.03"/>
</a>
</g>
</g>
<!-- Node30&#45;&gt;Node28 -->
<g id="edge46_Node000030_Node000028" class="edge">
<title>Node30&#45;&gt;Node28</title>
<g id="a_edge46_Node000030_Node000028"><a xlink:title=" ">
<path fill="none" stroke="#63b8ff" d="M1399.81,-164.66C1421.24,-146.3 1470.8,-103.81 1497.57,-80.87"/>
<polygon fill="#63b8ff" stroke="#63b8ff" points="1500.08,-83.32 1505.4,-74.16 1495.53,-78.01 1500.08,-83.32"/>
</a>
</g>
</g>
<!-- Node31&#45;&gt;Node29 -->
<g id="edge49_Node000031_Node000029" class="edge">
<title>Node31&#45;&gt;Node29</title>
<g id="a_edge49_Node000031_Node000029"><a xlink:title=" ">
<path fill="none" stroke="#63b8ff" d="M624.63,-184.17C645.08,-192.68 673.95,-205.75 693.95,-215.5"/>
<polygon fill="#63b8ff" stroke="#63b8ff" points="692.46,-218.67 702.98,-219.98 695.58,-212.4 692.46,-218.67"/>
</a>
</g>
</g>
<!-- Node32&#45;&gt;Node6 -->
<g id="edge54_Node000032_Node000006" class="edge">
<title>Node32&#45;&gt;Node6</title>
<g id="a_edge54_Node000032_Node000006"><a xlink:title=" ">
<path fill="none" stroke="#63b8ff" d="M477.58,-274.9C484.99,-246.23 512.98,-153.24 573.5,-110 593.98,-95.37 619.98,-84.51 641.45,-77.19"/>
<polygon fill="#63b8ff" stroke="#63b8ff" points="642.54,-80.52 650.95,-74.08 640.36,-73.86 642.54,-80.52"/>
</a>
</g>
</g>
<!-- Node32&#45;&gt;Node16 -->
<g id="edge53_Node000032_Node000016" class="edge">
<title>Node32&#45;&gt;Node16</title>
<g id="a_edge53_Node000032_Node000016"><a xlink:title=" ">
<path fill="none" stroke="#63b8ff" d="M491.41,-274.98C507.05,-266.61 531.16,-253.7 549.38,-243.95"/>
<polygon fill="#63b8ff" stroke="#63b8ff" points="551.14,-246.98 558.3,-239.17 547.84,-240.8 551.14,-246.98"/>
</a>
</g>
</g>
<!-- Node32&#45;&gt;Node18 -->
<g id="edge55_Node000032_Node000018" class="edge">
<title>Node32&#45;&gt;Node18</title>
<g id="a_edge55_Node000032_Node000018"><a xlink:title=" ">
<path fill="none" stroke="#63b8ff" d="M538.08,-275.51C619.45,-265.12 760.21,-247.14 836.91,-237.34"/>
<polygon fill="#63b8ff" stroke="#63b8ff" points="837.36,-240.81 846.84,-236.08 836.48,-233.87 837.36,-240.81"/>
</a>
</g>
</g>
<!-- Node32&#45;&gt;Node29 -->
<g id="edge56_Node000032_Node000029" class="edge">
<title>Node32&#45;&gt;Node29</title>
<g id="a_edge56_Node000032_Node000029"><a xlink:title=" ">
<path fill="none" stroke="#63b8ff" d="M514.22,-274.98C555.91,-265.82 622.32,-251.21 667.59,-241.26"/>
<polygon fill="#63b8ff" stroke="#63b8ff" points="668.46,-244.65 677.48,-239.08 666.96,-237.81 668.46,-244.65"/>
</a>
</g>
</g>
<!-- Node33 -->
<g id="Node000033" class="node">
<title>Node33</title>
<g id="a_Node000033"><a xlink:title=" ">
<polygon fill="#e0e0e0" stroke="#999999" points="414,-239 271,-239 271,-220 414,-220 414,-239"/>
<text text-anchor="middle" x="342.5" y="-227" font-family="Helvetica,sans-Serif" font-size="10.00">ankerl/unordered_dense.h</text>
</a>
</g>
</g>
<!-- Node32&#45;&gt;Node33 -->
<g id="edge52_Node000032_Node000033" class="edge">
<title>Node32&#45;&gt;Node33</title>
<g id="a_edge52_Node000032_Node000033"><a xlink:title=" ">
<path fill="none" stroke="#63b8ff" d="M454.13,-274.98C432.35,-266.3 398.34,-252.75 373.58,-242.88"/>
<polygon fill="#63b8ff" stroke="#63b8ff" points="374.84,-239.62 364.26,-239.17 372.25,-246.12 374.84,-239.62"/>
</a>
</g>
</g>
<!-- Node34 -->
<g id="Node000034" class="node">
<title>Node34</title>
<g id="a_Node000034"><a xlink:title=" ">
<polygon fill="#e0e0e0" stroke="#999999" points="253,-239 202,-239 202,-220 253,-220 253,-239"/>
<text text-anchor="middle" x="227.5" y="-227" font-family="Helvetica,sans-Serif" font-size="10.00">variant</text>
</a>
</g>
</g>
<!-- Node32&#45;&gt;Node34 -->
<g id="edge57_Node000032_Node000034" class="edge">
<title>Node32&#45;&gt;Node34</title>
<g id="a_edge57_Node000032_Node000034"><a xlink:title=" ">
<path fill="none" stroke="#63b8ff" d="M431.94,-274.97C390.74,-266.79 326.93,-253.81 262.95,-239.27"/>
<polygon fill="#63b8ff" stroke="#63b8ff" points="263.62,-235.83 253.09,-237.01 262.06,-242.65 263.62,-235.83"/>
</a>
</g>
</g>
<!-- Node35&#45;&gt;Node6 -->
<g id="edge60_Node000035_Node000006" class="edge">
<title>Node35&#45;&gt;Node6</title>
<g id="a_edge60_Node000035_Node000006"><a xlink:title=" ">
<path fill="none" stroke="#63b8ff" d="M1109.7,-274.89C1151.41,-256.66 1237.44,-211.98 1205.5,-165 1156.54,-92.97 896.21,-73.07 762.27,-67.58"/>
<polygon fill="#63b8ff" stroke="#63b8ff" points="762.19,-64.08 752.06,-67.18 761.92,-71.07 762.19,-64.08"/>
</a>
</g>
</g>
<!-- Node35&#45;&gt;Node17 -->
<g id="edge59_Node000035_Node000017" class="edge">
<title>Node35&#45;&gt;Node17</title>
<g id="a_edge59_Node000035_Node000017"><a xlink:title=" ">
<path fill="none" stroke="#63b8ff" d="M1086.85,-274.75C1085.54,-267.8 1083.66,-257.85 1082.02,-249.13"/>
<polygon fill="#63b8ff" stroke="#63b8ff" points="1085.41,-248.27 1080.12,-239.09 1078.54,-249.56 1085.41,-248.27"/>
</a>
</g>
</g>
<!-- Node35&#45;&gt;Node18 -->
<g id="edge61_Node000035_Node000018" class="edge">
<title>Node35&#45;&gt;Node18</title>
<g id="a_edge61_Node000035_Node000018"><a xlink:title=" ">
<path fill="none" stroke="#63b8ff" d="M1056.69,-274.98C1023.01,-265.97 969.7,-251.7 932.58,-241.76"/>
<polygon fill="#63b8ff" stroke="#63b8ff" points="933.13,-238.29 922.56,-239.08 931.32,-245.05 933.13,-238.29"/>
</a>
</g>
</g>
<!-- Node35&#45;&gt;Node28 -->
<g id="edge64_Node000035_Node000028" class="edge">
<title>Node35&#45;&gt;Node28</title>
<g id="a_edge64_Node000035_Node000028"><a xlink:title=" ">
<path fill="none" stroke="#63b8ff" d="M1160.44,-278.14C1273.82,-268.01 1485.83,-241.68 1530.5,-184 1553.27,-154.61 1536.79,-108.26 1524.86,-83.12"/>
<polygon fill="#63b8ff" stroke="#63b8ff" points="1527.92,-81.41 1520.31,-74.04 1521.66,-84.55 1527.92,-81.41"/>
</a>
</g>
</g>
<!-- Node35&#45;&gt;Node29 -->
<g id="edge62_Node000035_Node000029" class="edge">
<title>Node35&#45;&gt;Node29</title>
<g id="a_edge62_Node000035_Node000029"><a xlink:title=" ">
<path fill="none" stroke="#63b8ff" d="M1028.73,-274.98C962.08,-265.49 854.47,-250.16 784.61,-240.2"/>
<polygon fill="#63b8ff" stroke="#63b8ff" points="784.98,-236.72 774.59,-238.78 783.99,-243.65 784.98,-236.72"/>
</a>
</g>
</g>
<!-- Node36 -->
<g id="Node000036" class="node">
<title>Node36</title>
<g id="a_Node000036"><a xlink:title=" ">
<polygon fill="#e0e0e0" stroke="#999999" points="1308.5,-239 1252.5,-239 1252.5,-220 1308.5,-220 1308.5,-239"/>
<text text-anchor="middle" x="1280.5" y="-227" font-family="Helvetica,sans-Serif" font-size="10.00">optional</text>
</a>
</g>
</g>
<!-- Node35&#45;&gt;Node36 -->
<g id="edge63_Node000035_Node000036" class="edge">
<title>Node35&#45;&gt;Node36</title>
<g id="a_edge63_Node000035_Node000036"><a xlink:title=" ">
<path fill="none" stroke="#63b8ff" d="M1119.35,-274.98C1152.87,-265.73 1206.47,-250.94 1242.55,-240.98"/>
<polygon fill="#63b8ff" stroke="#63b8ff" points="1243.52,-244.34 1252.23,-238.3 1241.66,-237.59 1243.52,-244.34"/>
</a>
</g>
</g>
<!-- Node37&#45;&gt;Node13 -->
<g id="edge72_Node000037_Node000013" class="edge">
<title>Node37&#45;&gt;Node13</title>
<g id="a_edge72_Node000037_Node000013"><a xlink:title=" ">
<path fill="none" stroke="#63b8ff" d="M765.91,-274.93C734.74,-266.99 688.46,-254.14 649.5,-239 648.69,-238.69 538.11,-184.62 537.5,-184 508.93,-155.2 492.56,-109.28 485.22,-83.89"/>
<polygon fill="#63b8ff" stroke="#63b8ff" points="488.55,-82.81 482.54,-74.09 481.8,-84.66 488.55,-82.81"/>
</a>
</g>
</g>
<!-- Node37&#45;&gt;Node16 -->
<g id="edge66_Node000037_Node000016" class="edge">
<title>Node37&#45;&gt;Node16</title>
<g id="a_edge66_Node000037_Node000016"><a xlink:title=" ">
<path fill="none" stroke="#63b8ff" d="M765.03,-274.98C723.12,-265.2 654.67,-249.22 612.23,-239.31"/>
<polygon fill="#63b8ff" stroke="#63b8ff" points="612.83,-235.86 602.3,-236.99 611.24,-242.67 612.83,-235.86"/>
</a>
</g>
</g>
<!-- Node37&#45;&gt;Node17 -->
<g id="edge67_Node000037_Node000017" class="edge">
<title>Node37&#45;&gt;Node17</title>
<g id="a_edge67_Node000037_Node000017"><a xlink:title=" ">
<path fill="none" stroke="#63b8ff" d="M848.12,-274.97C895.76,-266.19 971.85,-251.99 1037.5,-239 1038.74,-238.75 1040.01,-238.5 1041.28,-238.25"/>
<polygon fill="#63b8ff" stroke="#63b8ff" points="1042.06,-241.66 1051.17,-236.24 1040.67,-234.8 1042.06,-241.66"/>
</a>
</g>
</g>
<!-- Node37&#45;&gt;Node18 -->
<g id="edge69_Node000037_Node000018" class="edge">
<title>Node37&#45;&gt;Node18</title>
<g id="a_edge69_Node000037_Node000018"><a xlink:title=" ">
<path fill="none" stroke="#63b8ff" d="M815.8,-274.98C829.6,-266.77 850.74,-254.18 867.01,-244.49"/>
<polygon fill="#63b8ff" stroke="#63b8ff" points="869.14,-247.29 875.94,-239.17 865.56,-241.28 869.14,-247.29"/>
</a>
</g>
</g>
<!-- Node37&#45;&gt;Node20 -->
<g id="edge68_Node000037_Node000020" class="edge">
<title>Node37&#45;&gt;Node20</title>
<g id="a_edge68_Node000037_Node000020"><a xlink:title=" ">
<path fill="none" stroke="#63b8ff" d="M800.21,-274.74C796.45,-249.2 785.44,-174.43 780.26,-139.23"/>
<polygon fill="#63b8ff" stroke="#63b8ff" points="783.72,-138.69 778.8,-129.31 776.79,-139.71 783.72,-138.69"/>
</a>
</g>
</g>
<!-- Node37&#45;&gt;Node28 -->
<g id="edge71_Node000037_Node000028" class="edge">
<title>Node37&#45;&gt;Node28</title>
<g id="a_edge71_Node000037_Node000028"><a xlink:title=" ">
<path fill="none" stroke="#63b8ff" d="M827.91,-274.91C871.9,-260.97 963.18,-233.62 1042.5,-220 1138.32,-203.55 1402.62,-244.77 1478.5,-184 1508.69,-159.82 1514.73,-111.32 1515.65,-84.47"/>
<polygon fill="#63b8ff" stroke="#63b8ff" points="1519.16,-84.16 1515.78,-74.12 1512.16,-84.07 1519.16,-84.16"/>
</a>
</g>
</g>
<!-- Node37&#45;&gt;Node29 -->
<g id="edge70_Node000037_Node000029" class="edge">
<title>Node37&#45;&gt;Node29</title>
<g id="a_edge70_Node000037_Node000029"><a xlink:title=" ">
<path fill="none" stroke="#63b8ff" d="M787.84,-274.98C774.66,-266.77 754.47,-254.18 738.93,-244.49"/>
<polygon fill="#63b8ff" stroke="#63b8ff" points="740.74,-241.49 730.41,-239.17 737.04,-247.43 740.74,-241.49"/>
</a>
</g>
</g>
<!-- Node38&#45;&gt;Node18 -->
<g id="edge74_Node000038_Node000018" class="edge">
<title>Node38&#45;&gt;Node18</title>
<g id="a_edge74_Node000038_Node000018"><a xlink:title=" ">
<path fill="none" stroke="#63b8ff" d="M947.57,-274.98C937.42,-267.07 922.08,-255.11 909.85,-245.58"/>
<polygon fill="#63b8ff" stroke="#63b8ff" points="911.66,-242.56 901.62,-239.17 907.36,-248.08 911.66,-242.56"/>
</a>
</g>
</g>
<!-- Node38&#45;&gt;Node29 -->
<g id="edge77_Node000038_Node000029" class="edge">
<title>Node38&#45;&gt;Node29</title>
<g id="a_edge77_Node000038_Node000029"><a xlink:title=" ">
<path fill="none" stroke="#63b8ff" d="M919.62,-274.98C877.76,-265.82 811.07,-251.21 765.62,-241.26"/>
<polygon fill="#63b8ff" stroke="#63b8ff" points="766.2,-237.8 755.69,-239.08 764.71,-244.64 766.2,-237.8"/>
</a>
</g>
</g>
<!-- Node39 -->
<g id="Node000039" class="node">
<title>Node39</title>
<g id="a_Node000039"><a xlink:href="orbital__smearing_8h.html" target="_top" xlink:title=" ">
<polygon fill="white" stroke="#666666" points="1196.5,-184 1050.5,-184 1050.5,-165 1196.5,-165 1196.5,-184"/>
<text text-anchor="middle" x="1123.5" y="-172" font-family="Helvetica,sans-Serif" font-size="10.00">occ/qm/orbital_smearing.h</text>
</a>
</g>
</g>
<!-- Node38&#45;&gt;Node39 -->
<g id="edge75_Node000038_Node000039" class="edge">
<title>Node38&#45;&gt;Node39</title>
<g id="a_edge75_Node000038_Node000039"><a xlink:title=" ">
<path fill="none" stroke="#63b8ff" d="M996.44,-274.95C1040.03,-264.78 1106.61,-248.05 1114.5,-239 1125.12,-226.81 1126.59,-208.02 1125.87,-194.04"/>
<polygon fill="#63b8ff" stroke="#63b8ff" points="1129.36,-193.72 1124.96,-184.08 1122.39,-194.36 1129.36,-193.72"/>
</a>
</g>
</g>
<!-- Node39&#45;&gt;Node6 -->
<g id="edge76_Node000039_Node000006" class="edge">
<title>Node39&#45;&gt;Node6</title>
<g id="a_edge76_Node000039_Node000006"><a xlink:title=" ">
<path fill="none" stroke="#63b8ff" d="M1114.79,-164.73C1100.11,-150.54 1068.83,-122.83 1036.5,-110 988.13,-90.81 850.76,-77.64 762.05,-70.85"/>
<polygon fill="#63b8ff" stroke="#63b8ff" points="762.25,-67.36 752.02,-70.1 761.73,-74.34 762.25,-67.36"/>
</a>
</g>
</g>
</g>
</svg>
