<?xml version="1.0" encoding="UTF-8" standalone="no"?>
<!DOCTYPE svg PUBLIC "-//W3C//DTD SVG 1.1//EN"
 "http://www.w3.org/Graphics/SVG/1.1/DTD/svg11.dtd">
<!-- Generated by graphviz version 2.43.0 (0)
 -->
<!-- Title: /home/runner/work/occ/occ/include/occ/isosurface/electron_density.h Pages: 1 -->
<svg width="1740pt" height="442pt"
 viewBox="0.00 0.00 1739.50 442.00" xmlns="http://www.w3.org/2000/svg" xmlns:xlink="http://www.w3.org/1999/xlink">
<g id="graph0" class="graph" transform="scale(1 1) rotate(0) translate(4 438)">
<title>/home/runner/work/occ/occ/include/occ/isosurface/electron_density.h</title>
<!-- Node1 -->
<g id="node1" class="node">
<title>Node1</title>
<g id="a_node1"><a xlink:title=" ">
<polygon fill="#bfbfbf" stroke="black" points="434,-392.5 434,-433.5 581,-433.5 581,-392.5 434,-392.5"/>
<text text-anchor="start" x="442" y="-421.5" font-family="Helvetica,sans-Serif" font-size="10.00">/home/runner/work/occ</text>
<text text-anchor="start" x="442" y="-410.5" font-family="Helvetica,sans-Serif" font-size="10.00">/occ/include/occ/isosurface</text>
<text text-anchor="middle" x="507.5" y="-399.5" font-family="Helvetica,sans-Serif" font-size="10.00">/electron_density.h</text>
</a>
</g>
</g>
<!-- Node2 -->
<g id="node2" class="node">
<title>Node2</title>
<g id="a_node2"><a xlink:href="common_8h.html" target="_top" xlink:title=" ">
<polygon fill="none" stroke="black" points="145,-224.5 145,-243.5 286,-243.5 286,-224.5 145,-224.5"/>
<text text-anchor="middle" x="215.5" y="-231.5" font-family="Helvetica,sans-Serif" font-size="10.00">occ/isosurface/common.h</text>
</a>
</g>
</g>
<!-- Node1&#45;&gt;Node2 -->
<g id="edge1" class="edge">
<title>Node1&#45;&gt;Node2</title>
<path fill="none" stroke="midnightblue" d="M466.75,-392.34C424.2,-371.26 356.07,-335.97 300.5,-300 276.33,-284.36 250.27,-263.83 233.47,-250.07"/>
<polygon fill="midnightblue" stroke="midnightblue" points="235.52,-247.22 225.59,-243.55 231.06,-252.62 235.52,-247.22"/>
</g>
<!-- Node13 -->
<g id="node13" class="node">
<title>Node13</title>
<g id="a_node13"><a xlink:href="wavefunction_8h.html" target="_top" xlink:title=" ">
<polygon fill="none" stroke="black" points="794.5,-336.5 794.5,-355.5 924.5,-355.5 924.5,-336.5 794.5,-336.5"/>
<text text-anchor="middle" x="859.5" y="-343.5" font-family="Helvetica,sans-Serif" font-size="10.00">occ/qm/wavefunction.h</text>
</a>
</g>
</g>
<!-- Node1&#45;&gt;Node13 -->
<g id="edge14" class="edge">
<title>Node1&#45;&gt;Node13</title>
<path fill="none" stroke="midnightblue" d="M581.29,-398.37C647.42,-386.16 743.01,-368.51 803.17,-357.4"/>
<polygon fill="midnightblue" stroke="midnightblue" points="804.04,-360.8 813.24,-355.54 802.77,-353.92 804.04,-360.8"/>
</g>
<!-- Node3 -->
<g id="node3" class="node">
<title>Node3</title>
<g id="a_node3"><a xlink:href="linear__algebra_8h.html" target="_top" xlink:title=" ">
<polygon fill="none" stroke="black" points="980,-56.5 980,-75.5 1119,-75.5 1119,-56.5 980,-56.5"/>
<text text-anchor="middle" x="1049.5" y="-63.5" font-family="Helvetica,sans-Serif" font-size="10.00">occ/core/linear_algebra.h</text>
</a>
</g>
</g>
<!-- Node2&#45;&gt;Node3 -->
<g id="edge2" class="edge">
<title>Node2&#45;&gt;Node3</title>
<path fill="none" stroke="midnightblue" d="M221.54,-224.2C227.6,-215.24 237.07,-200.88 244.5,-188 263.47,-155.11 251.7,-132.73 283.5,-112 339.91,-75.23 784.98,-68.47 969.64,-67.26"/>
<polygon fill="midnightblue" stroke="midnightblue" points="969.85,-70.75 979.83,-67.19 969.81,-63.75 969.85,-70.75"/>
</g>
<!-- Node7 -->
<g id="node7" class="node">
<title>Node7</title>
<g id="a_node7"><a xlink:href="units_8h.html" target="_top" xlink:title=" ">
<polygon fill="none" stroke="black" points="0,-168.5 0,-187.5 93,-187.5 93,-168.5 0,-168.5"/>
<text text-anchor="middle" x="46.5" y="-175.5" font-family="Helvetica,sans-Serif" font-size="10.00">occ/core/units.h</text>
</a>
</g>
</g>
<!-- Node2&#45;&gt;Node7 -->
<g id="edge6" class="edge">
<title>Node2&#45;&gt;Node7</title>
<path fill="none" stroke="midnightblue" d="M188.72,-224.44C160.17,-215.32 114.77,-200.81 82.96,-190.65"/>
<polygon fill="midnightblue" stroke="midnightblue" points="83.74,-187.23 73.15,-187.52 81.61,-193.89 83.74,-187.23"/>
</g>
<!-- Node9 -->
<g id="node9" class="node">
<title>Node9</title>
<g id="a_node9"><a xlink:href="interpolator_8h.html" target="_top" xlink:title=" ">
<polygon fill="none" stroke="black" points="111,-168.5 111,-187.5 236,-187.5 236,-168.5 111,-168.5"/>
<text text-anchor="middle" x="173.5" y="-175.5" font-family="Helvetica,sans-Serif" font-size="10.00">occ/core/interpolator.h</text>
</a>
</g>
</g>
<!-- Node2&#45;&gt;Node9 -->
<g id="edge8" class="edge">
<title>Node2&#45;&gt;Node9</title>
<path fill="none" stroke="midnightblue" d="M208.56,-224.08C202.57,-216.38 193.75,-205.03 186.45,-195.65"/>
<polygon fill="midnightblue" stroke="midnightblue" points="189.21,-193.5 180.31,-187.75 183.68,-197.79 189.21,-193.5"/>
</g>
<!-- Node12 -->
<g id="node12" class="node">
<title>Node12</title>
<g id="a_node12"><a xlink:title=" ">
<polygon fill="none" stroke="#bfbfbf" points="730,-112.5 730,-131.5 777,-131.5 777,-112.5 730,-112.5"/>
<text text-anchor="middle" x="753.5" y="-119.5" font-family="Helvetica,sans-Serif" font-size="10.00">vector</text>
</a>
</g>
</g>
<!-- Node2&#45;&gt;Node12 -->
<g id="edge13" class="edge">
<title>Node2&#45;&gt;Node12</title>
<path fill="none" stroke="midnightblue" d="M257.27,-224.46C360.55,-203.34 626.31,-149 720.11,-129.83"/>
<polygon fill="midnightblue" stroke="midnightblue" points="720.82,-133.25 729.92,-127.82 719.42,-126.4 720.82,-133.25"/>
</g>
<!-- Node4 -->
<g id="node4" class="node">
<title>Node4</title>
<g id="a_node4"><a xlink:title=" ">
<polygon fill="none" stroke="#bfbfbf" points="975,-0.5 975,-19.5 1052,-19.5 1052,-0.5 975,-0.5"/>
<text text-anchor="middle" x="1013.5" y="-7.5" font-family="Helvetica,sans-Serif" font-size="10.00">Eigen/Dense</text>
</a>
</g>
</g>
<!-- Node3&#45;&gt;Node4 -->
<g id="edge3" class="edge">
<title>Node3&#45;&gt;Node4</title>
<path fill="none" stroke="midnightblue" d="M1043.56,-56.08C1038.52,-48.53 1031.16,-37.49 1024.99,-28.23"/>
<polygon fill="midnightblue" stroke="midnightblue" points="1027.79,-26.13 1019.33,-19.75 1021.97,-30.01 1027.79,-26.13"/>
</g>
<!-- Node5 -->
<g id="node5" class="node">
<title>Node5</title>
<g id="a_node5"><a xlink:title=" ">
<polygon fill="none" stroke="#bfbfbf" points="1070,-0.5 1070,-19.5 1163,-19.5 1163,-0.5 1070,-0.5"/>
<text text-anchor="middle" x="1116.5" y="-7.5" font-family="Helvetica,sans-Serif" font-size="10.00">Eigen/StdVector</text>
</a>
</g>
</g>
<!-- Node3&#45;&gt;Node5 -->
<g id="edge4" class="edge">
<title>Node3&#45;&gt;Node5</title>
<path fill="none" stroke="midnightblue" d="M1060.26,-56.32C1070.27,-48.26 1085.39,-36.08 1097.43,-26.37"/>
<polygon fill="midnightblue" stroke="midnightblue" points="1099.95,-28.83 1105.54,-19.83 1095.56,-23.38 1099.95,-28.83"/>
</g>
<!-- Node6 -->
<g id="node6" class="node">
<title>Node6</title>
<g id="a_node6"><a xlink:title=" ">
<polygon fill="none" stroke="#bfbfbf" points="798.5,-0.5 798.5,-19.5 884.5,-19.5 884.5,-0.5 798.5,-0.5"/>
<text text-anchor="middle" x="841.5" y="-7.5" font-family="Helvetica,sans-Serif" font-size="10.00">fmt/ostream.h</text>
</a>
</g>
</g>
<!-- Node3&#45;&gt;Node6 -->
<g id="edge5" class="edge">
<title>Node3&#45;&gt;Node6</title>
<path fill="none" stroke="midnightblue" d="M1016.54,-56.44C980.71,-47.14 923.34,-32.25 884.11,-22.06"/>
<polygon fill="midnightblue" stroke="midnightblue" points="884.86,-18.64 874.3,-19.52 883.1,-25.42 884.86,-18.64"/>
</g>
<!-- Node8 -->
<g id="node8" class="node">
<title>Node8</title>
<g id="a_node8"><a xlink:title=" ">
<polygon fill="none" stroke="#bfbfbf" points="26,-112.5 26,-131.5 73,-131.5 73,-112.5 26,-112.5"/>
<text text-anchor="middle" x="49.5" y="-119.5" font-family="Helvetica,sans-Serif" font-size="10.00">cmath</text>
</a>
</g>
</g>
<!-- Node7&#45;&gt;Node8 -->
<g id="edge7" class="edge">
<title>Node7&#45;&gt;Node8</title>
<path fill="none" stroke="midnightblue" d="M47,-168.08C47.39,-161.01 47.95,-150.86 48.45,-141.99"/>
<polygon fill="midnightblue" stroke="midnightblue" points="51.95,-141.93 49.01,-131.75 44.96,-141.54 51.95,-141.93"/>
</g>
<!-- Node9&#45;&gt;Node3 -->
<g id="edge11" class="edge">
<title>Node9&#45;&gt;Node3</title>
<path fill="none" stroke="midnightblue" d="M180.44,-168.25C192.74,-153.51 219.94,-124.16 250.5,-112 316.06,-85.92 780.67,-72.89 969.75,-68.63"/>
<polygon fill="midnightblue" stroke="midnightblue" points="969.98,-72.12 979.9,-68.4 969.83,-65.12 969.98,-72.12"/>
</g>
<!-- Node9&#45;&gt;Node8 -->
<g id="edge9" class="edge">
<title>Node9&#45;&gt;Node8</title>
<path fill="none" stroke="midnightblue" d="M153.85,-168.44C133.54,-159.6 101.6,-145.69 78.4,-135.59"/>
<polygon fill="midnightblue" stroke="midnightblue" points="79.62,-132.3 69.06,-131.52 76.83,-138.72 79.62,-132.3"/>
</g>
<!-- Node10 -->
<g id="node10" class="node">
<title>Node10</title>
<g id="a_node10"><a xlink:title=" ">
<polygon fill="none" stroke="#bfbfbf" points="293,-112.5 293,-131.5 360,-131.5 360,-112.5 293,-112.5"/>
<text text-anchor="middle" x="326.5" y="-119.5" font-family="Helvetica,sans-Serif" font-size="10.00">fmt/core.h</text>
</a>
</g>
</g>
<!-- Node9&#45;&gt;Node10 -->
<g id="edge10" class="edge">
<title>Node9&#45;&gt;Node10</title>
<path fill="none" stroke="midnightblue" d="M197.74,-168.44C223.37,-159.4 263.99,-145.06 292.74,-134.92"/>
<polygon fill="midnightblue" stroke="midnightblue" points="294.11,-138.15 302.37,-131.52 291.78,-131.54 294.11,-138.15"/>
</g>
<!-- Node11 -->
<g id="node11" class="node">
<title>Node11</title>
<g id="a_node11"><a xlink:href="macros_8h.html" target="_top" xlink:title=" ">
<polygon fill="none" stroke="black" points="93,-112.5 93,-131.5 198,-131.5 198,-112.5 93,-112.5"/>
<text text-anchor="middle" x="145.5" y="-119.5" font-family="Helvetica,sans-Serif" font-size="10.00">occ/core/macros.h</text>
</a>
</g>
</g>
<!-- Node9&#45;&gt;Node11 -->
<g id="edge12" class="edge">
<title>Node9&#45;&gt;Node11</title>
<path fill="none" stroke="midnightblue" d="M168.88,-168.08C165.04,-160.69 159.48,-149.95 154.74,-140.81"/>
<polygon fill="midnightblue" stroke="midnightblue" points="157.75,-139.02 150.04,-131.75 151.53,-142.24 157.75,-139.02"/>
</g>
<!-- Node13&#45;&gt;Node3 -->
<g id="edge16" class="edge">
<title>Node13&#45;&gt;Node3</title>
<path fill="none" stroke="midnightblue" d="M924.69,-343.62C1127.13,-338.47 1731.5,-316.3 1731.5,-235 1731.5,-235 1731.5,-235 1731.5,-177 1731.5,-122.49 1679.27,-129.05 1627.5,-112 1537.3,-82.29 1266.01,-71.93 1129.62,-68.54"/>
<polygon fill="midnightblue" stroke="midnightblue" points="1129.32,-65.03 1119.24,-68.28 1129.15,-72.03 1129.32,-65.03"/>
</g>
<!-- Node13&#45;&gt;Node10 -->
<g id="edge15" class="edge">
<title>Node13&#45;&gt;Node10</title>
<path fill="none" stroke="midnightblue" d="M794.47,-340.13C674.54,-329.83 425.16,-301.9 363.5,-244 334.9,-217.15 328.2,-168.88 326.76,-142.14"/>
<polygon fill="midnightblue" stroke="midnightblue" points="330.25,-141.7 326.41,-131.82 323.25,-141.94 330.25,-141.7"/>
</g>
<!-- Node14 -->
<g id="node14" class="node">
<title>Node14</title>
<g id="a_node14"><a xlink:href="fchkreader_8h.html" target="_top" xlink:title=" ">
<polygon fill="none" stroke="black" points="868,-280.5 868,-299.5 977,-299.5 977,-280.5 868,-280.5"/>
<text text-anchor="middle" x="922.5" y="-287.5" font-family="Helvetica,sans-Serif" font-size="10.00">occ/io/fchkreader.h</text>
</a>
</g>
</g>
<!-- Node13&#45;&gt;Node14 -->
<g id="edge17" class="edge">
<title>Node13&#45;&gt;Node14</title>
<path fill="none" stroke="midnightblue" d="M869.62,-336.32C879.03,-328.26 893.24,-316.08 904.57,-306.37"/>
<polygon fill="midnightblue" stroke="midnightblue" points="906.88,-309 912.19,-299.83 902.32,-303.68 906.88,-309"/>
</g>
<!-- Node17 -->
<g id="node17" class="node">
<title>Node17</title>
<g id="a_node17"><a xlink:href="shell_8h.html" target="_top" xlink:title=" ">
<polygon fill="none" stroke="black" points="1158,-224.5 1158,-243.5 1245,-243.5 1245,-224.5 1158,-224.5"/>
<text text-anchor="middle" x="1201.5" y="-231.5" font-family="Helvetica,sans-Serif" font-size="10.00">occ/qm/shell.h</text>
</a>
</g>
</g>
<!-- Node13&#45;&gt;Node17 -->
<g id="edge78" class="edge">
<title>Node13&#45;&gt;Node17</title>
<path fill="none" stroke="midnightblue" d="M924.51,-342.19C1030.31,-336.93 1230.16,-323.93 1251.5,-300 1266.37,-283.32 1244.21,-262.66 1224.84,-249.17"/>
<polygon fill="midnightblue" stroke="midnightblue" points="1226.55,-246.11 1216.28,-243.52 1222.69,-251.95 1226.55,-246.11"/>
</g>
<!-- Node29 -->
<g id="node29" class="node">
<title>Node29</title>
<g id="a_node29"><a xlink:href="spinorbital_8h.html" target="_top" xlink:title=" ">
<polygon fill="none" stroke="black" points="649.5,-224.5 649.5,-243.5 765.5,-243.5 765.5,-224.5 649.5,-224.5"/>
<text text-anchor="middle" x="707.5" y="-231.5" font-family="Helvetica,sans-Serif" font-size="10.00">occ/qm/spinorbital.h</text>
</a>
</g>
</g>
<!-- Node13&#45;&gt;Node29 -->
<g id="edge79" class="edge">
<title>Node13&#45;&gt;Node29</title>
<path fill="none" stroke="midnightblue" d="M807.8,-336.48C783.02,-330.08 754.45,-319.01 734.5,-300 721.53,-287.64 714.56,-268.11 710.97,-253.69"/>
<polygon fill="midnightblue" stroke="midnightblue" points="714.38,-252.89 708.84,-243.85 707.54,-254.37 714.38,-252.89"/>
</g>
<!-- Node31 -->
<g id="node31" class="node">
<title>Node31</title>
<g id="a_node31"><a xlink:href="fchkwriter_8h.html" target="_top" xlink:title=" ">
<polygon fill="none" stroke="black" points="743.5,-280.5 743.5,-299.5 849.5,-299.5 849.5,-280.5 743.5,-280.5"/>
<text text-anchor="middle" x="796.5" y="-287.5" font-family="Helvetica,sans-Serif" font-size="10.00">occ/io/fchkwriter.h</text>
</a>
</g>
</g>
<!-- Node13&#45;&gt;Node31 -->
<g id="edge49" class="edge">
<title>Node13&#45;&gt;Node31</title>
<path fill="none" stroke="midnightblue" d="M849.38,-336.32C839.97,-328.26 825.76,-316.08 814.43,-306.37"/>
<polygon fill="midnightblue" stroke="midnightblue" points="816.68,-303.68 806.81,-299.83 812.12,-309 816.68,-303.68"/>
</g>
<!-- Node34 -->
<g id="node34" class="node">
<title>Node34</title>
<g id="a_node34"><a xlink:href="moldenreader_8h.html" target="_top" xlink:title=" ">
<polygon fill="none" stroke="black" points="1118,-280.5 1118,-299.5 1243,-299.5 1243,-280.5 1118,-280.5"/>
<text text-anchor="middle" x="1180.5" y="-287.5" font-family="Helvetica,sans-Serif" font-size="10.00">occ/io/moldenreader.h</text>
</a>
</g>
</g>
<!-- Node13&#45;&gt;Node34 -->
<g id="edge59" class="edge">
<title>Node13&#45;&gt;Node34</title>
<path fill="none" stroke="midnightblue" d="M910.36,-336.44C967.18,-326.89 1059.12,-311.42 1119.69,-301.23"/>
<polygon fill="midnightblue" stroke="midnightblue" points="1120.59,-304.63 1129.87,-299.52 1119.43,-297.72 1120.59,-304.63"/>
</g>
<!-- Node36 -->
<g id="node36" class="node">
<title>Node36</title>
<g id="a_node36"><a xlink:href="orca__json_8h.html" target="_top" xlink:title=" ">
<polygon fill="none" stroke="black" points="995.5,-280.5 995.5,-299.5 1099.5,-299.5 1099.5,-280.5 995.5,-280.5"/>
<text text-anchor="middle" x="1047.5" y="-287.5" font-family="Helvetica,sans-Serif" font-size="10.00">occ/io/orca_json.h</text>
</a>
</g>
</g>
<!-- Node13&#45;&gt;Node36 -->
<g id="edge67" class="edge">
<title>Node13&#45;&gt;Node36</title>
<path fill="none" stroke="midnightblue" d="M889.29,-336.44C921.33,-327.24 972.43,-312.56 1007.85,-302.39"/>
<polygon fill="midnightblue" stroke="midnightblue" points="1009.21,-305.64 1017.85,-299.52 1007.27,-298.91 1009.21,-305.64"/>
</g>
<!-- Node37 -->
<g id="node37" class="node">
<title>Node37</title>
<g id="a_node37"><a xlink:href="mo_8h.html" target="_top" xlink:title=" ">
<polygon fill="none" stroke="black" points="607.5,-280.5 607.5,-299.5 687.5,-299.5 687.5,-280.5 607.5,-280.5"/>
<text text-anchor="middle" x="647.5" y="-287.5" font-family="Helvetica,sans-Serif" font-size="10.00">occ/qm/mo.h</text>
</a>
</g>
</g>
<!-- Node13&#45;&gt;Node37 -->
<g id="edge76" class="edge">
<title>Node13&#45;&gt;Node37</title>
<path fill="none" stroke="midnightblue" d="M825.91,-336.44C789.31,-327.12 730.66,-312.18 690.67,-302"/>
<polygon fill="midnightblue" stroke="midnightblue" points="691.49,-298.59 680.93,-299.52 689.76,-305.38 691.49,-298.59"/>
</g>
<!-- Node14&#45;&gt;Node3 -->
<g id="edge20" class="edge">
<title>Node14&#45;&gt;Node3</title>
<path fill="none" stroke="midnightblue" d="M867.68,-281.16C786.7,-269.46 644.18,-248.31 640.5,-244 635.06,-237.62 630.24,-211.07 642.5,-168 650.35,-140.43 650.61,-127.84 674.5,-112 721.43,-80.88 874.16,-71.26 969.62,-68.3"/>
<polygon fill="midnightblue" stroke="midnightblue" points="969.93,-71.8 979.82,-68 969.72,-64.8 969.93,-71.8"/>
</g>
<!-- Node14&#45;&gt;Node12 -->
<g id="edge48" class="edge">
<title>Node14&#45;&gt;Node12</title>
<path fill="none" stroke="midnightblue" d="M913.41,-280.08C886.12,-253.27 804.6,-173.19 769.67,-138.89"/>
<polygon fill="midnightblue" stroke="midnightblue" points="771.81,-136.08 762.22,-131.57 766.9,-141.07 771.81,-136.08"/>
</g>
<!-- Node15 -->
<g id="node15" class="node">
<title>Node15</title>
<g id="a_node15"><a xlink:title=" ">
<polygon fill="none" stroke="#bfbfbf" points="898,-224.5 898,-243.5 953,-243.5 953,-224.5 898,-224.5"/>
<text text-anchor="middle" x="925.5" y="-231.5" font-family="Helvetica,sans-Serif" font-size="10.00">fstream</text>
</a>
</g>
</g>
<!-- Node14&#45;&gt;Node15 -->
<g id="edge18" class="edge">
<title>Node14&#45;&gt;Node15</title>
<path fill="none" stroke="midnightblue" d="M923,-280.08C923.39,-273.01 923.95,-262.86 924.45,-253.99"/>
<polygon fill="midnightblue" stroke="midnightblue" points="927.95,-253.93 925.01,-243.75 920.96,-253.54 927.95,-253.93"/>
</g>
<!-- Node16 -->
<g id="node16" class="node">
<title>Node16</title>
<g id="a_node16"><a xlink:title=" ">
<polygon fill="none" stroke="#bfbfbf" points="971.5,-224.5 971.5,-243.5 1025.5,-243.5 1025.5,-224.5 971.5,-224.5"/>
<text text-anchor="middle" x="998.5" y="-231.5" font-family="Helvetica,sans-Serif" font-size="10.00">istream</text>
</a>
</g>
</g>
<!-- Node14&#45;&gt;Node16 -->
<g id="edge19" class="edge">
<title>Node14&#45;&gt;Node16</title>
<path fill="none" stroke="midnightblue" d="M934.71,-280.32C946.28,-272.11 963.88,-259.6 977.66,-249.81"/>
<polygon fill="midnightblue" stroke="midnightblue" points="979.94,-252.48 986.07,-243.83 975.89,-246.77 979.94,-252.48"/>
</g>
<!-- Node14&#45;&gt;Node17 -->
<g id="edge21" class="edge">
<title>Node14&#45;&gt;Node17</title>
<path fill="none" stroke="midnightblue" d="M966.71,-280.44C1015.93,-270.92 1095.48,-255.52 1148.13,-245.33"/>
<polygon fill="midnightblue" stroke="midnightblue" points="1148.81,-248.76 1157.96,-243.43 1147.47,-241.89 1148.81,-248.76"/>
</g>
<!-- Node14&#45;&gt;Node29 -->
<g id="edge43" class="edge">
<title>Node14&#45;&gt;Node29</title>
<path fill="none" stroke="midnightblue" d="M888.43,-280.44C851.32,-271.12 791.84,-256.18 751.29,-246"/>
<polygon fill="midnightblue" stroke="midnightblue" points="751.96,-242.56 741.41,-243.52 750.25,-249.35 751.96,-242.56"/>
</g>
<!-- Node17&#45;&gt;Node3 -->
<g id="edge26" class="edge">
<title>Node17&#45;&gt;Node3</title>
<path fill="none" stroke="midnightblue" d="M1245.37,-229.88C1300.44,-224.95 1390.15,-213.19 1410.5,-188 1416.08,-181.08 1414.43,-175.97 1410.5,-168 1392.41,-131.33 1375.09,-128.1 1337.5,-112 1270.88,-83.46 1188.66,-72.77 1129.15,-68.89"/>
<polygon fill="midnightblue" stroke="midnightblue" points="1129.25,-65.39 1119.06,-68.28 1128.83,-72.38 1129.25,-65.39"/>
</g>
<!-- Node17&#45;&gt;Node12 -->
<g id="edge42" class="edge">
<title>Node17&#45;&gt;Node12</title>
<path fill="none" stroke="midnightblue" d="M1157.8,-226.03C1099.57,-216.52 999.78,-199.36 964.5,-188 944.44,-181.54 941.31,-175.2 921.5,-168 896.91,-159.06 828.61,-141.6 787.06,-131.25"/>
<polygon fill="midnightblue" stroke="midnightblue" points="787.67,-127.8 777.12,-128.79 785.98,-134.59 787.67,-127.8"/>
</g>
<!-- Node18 -->
<g id="node18" class="node">
<title>Node18</title>
<g id="a_node18"><a xlink:title=" ">
<polygon fill="none" stroke="#bfbfbf" points="1265.5,-112.5 1265.5,-131.5 1307.5,-131.5 1307.5,-112.5 1265.5,-112.5"/>
<text text-anchor="middle" x="1286.5" y="-119.5" font-family="Helvetica,sans-Serif" font-size="10.00">array</text>
</a>
</g>
</g>
<!-- Node17&#45;&gt;Node18 -->
<g id="edge22" class="edge">
<title>Node17&#45;&gt;Node18</title>
<path fill="none" stroke="midnightblue" d="M1208.17,-224.37C1222.26,-206.14 1255.26,-163.43 1273.61,-139.68"/>
<polygon fill="midnightblue" stroke="midnightblue" points="1276.52,-141.64 1279.86,-131.59 1270.98,-137.36 1276.52,-141.64"/>
</g>
<!-- Node19 -->
<g id="node19" class="node">
<title>Node19</title>
<g id="a_node19"><a xlink:title=" ">
<polygon fill="none" stroke="#bfbfbf" points="1153.5,-168.5 1153.5,-187.5 1213.5,-187.5 1213.5,-168.5 1153.5,-168.5"/>
<text text-anchor="middle" x="1183.5" y="-175.5" font-family="Helvetica,sans-Serif" font-size="10.00">iostream</text>
</a>
</g>
</g>
<!-- Node17&#45;&gt;Node19 -->
<g id="edge23" class="edge">
<title>Node17&#45;&gt;Node19</title>
<path fill="none" stroke="midnightblue" d="M1198.53,-224.08C1196.12,-216.85 1192.64,-206.41 1189.63,-197.4"/>
<polygon fill="midnightblue" stroke="midnightblue" points="1192.9,-196.13 1186.42,-187.75 1186.26,-198.34 1192.9,-196.13"/>
</g>
<!-- Node20 -->
<g id="node20" class="node">
<title>Node20</title>
<g id="a_node20"><a xlink:href="atom_8h.html" target="_top" xlink:title=" ">
<polygon fill="none" stroke="black" points="1433,-112.5 1433,-131.5 1528,-131.5 1528,-112.5 1433,-112.5"/>
<text text-anchor="middle" x="1480.5" y="-119.5" font-family="Helvetica,sans-Serif" font-size="10.00">occ/core/atom.h</text>
</a>
</g>
</g>
<!-- Node17&#45;&gt;Node20 -->
<g id="edge24" class="edge">
<title>Node17&#45;&gt;Node20</title>
<path fill="none" stroke="midnightblue" d="M1245.04,-229.3C1305.85,-223.42 1412.25,-210.24 1443.5,-188 1459.33,-176.73 1469.3,-156.42 1474.85,-141.49"/>
<polygon fill="midnightblue" stroke="midnightblue" points="1478.24,-142.37 1478.13,-131.78 1471.61,-140.14 1478.24,-142.37"/>
</g>
<!-- Node21 -->
<g id="node21" class="node">
<title>Node21</title>
<g id="a_node21"><a xlink:href="point__charge_8h.html" target="_top" xlink:title=" ">
<polygon fill="none" stroke="black" points="1269.5,-168.5 1269.5,-187.5 1401.5,-187.5 1401.5,-168.5 1269.5,-168.5"/>
<text text-anchor="middle" x="1335.5" y="-175.5" font-family="Helvetica,sans-Serif" font-size="10.00">occ/core/point_charge.h</text>
</a>
</g>
</g>
<!-- Node17&#45;&gt;Node21 -->
<g id="edge27" class="edge">
<title>Node17&#45;&gt;Node21</title>
<path fill="none" stroke="midnightblue" d="M1222.73,-224.44C1244.88,-215.52 1279.82,-201.44 1304.94,-191.32"/>
<polygon fill="midnightblue" stroke="midnightblue" points="1306.4,-194.5 1314.37,-187.52 1303.78,-188.01 1306.4,-194.5"/>
</g>
<!-- Node22 -->
<g id="node22" class="node">
<title>Node22</title>
<g id="a_node22"><a xlink:href="util_8h.html" target="_top" xlink:title=" ">
<polygon fill="none" stroke="black" points="974,-168.5 974,-187.5 1059,-187.5 1059,-168.5 974,-168.5"/>
<text text-anchor="middle" x="1016.5" y="-175.5" font-family="Helvetica,sans-Serif" font-size="10.00">occ/core/util.h</text>
</a>
</g>
</g>
<!-- Node17&#45;&gt;Node22 -->
<g id="edge31" class="edge">
<title>Node17&#45;&gt;Node22</title>
<path fill="none" stroke="midnightblue" d="M1172.19,-224.44C1140.66,-215.24 1090.37,-200.56 1055.51,-190.39"/>
<polygon fill="midnightblue" stroke="midnightblue" points="1056.26,-186.96 1045.68,-187.52 1054.3,-193.68 1056.26,-186.96"/>
</g>
<!-- Node20&#45;&gt;Node3 -->
<g id="edge25" class="edge">
<title>Node20&#45;&gt;Node3</title>
<path fill="none" stroke="midnightblue" d="M1432.79,-113.96C1427.96,-113.28 1423.14,-112.62 1418.5,-112 1319.07,-98.72 1204.34,-84.98 1129.55,-76.23"/>
<polygon fill="midnightblue" stroke="midnightblue" points="1129.61,-72.71 1119.27,-75.03 1128.8,-79.66 1129.61,-72.71"/>
</g>
<!-- Node21&#45;&gt;Node3 -->
<g id="edge30" class="edge">
<title>Node21&#45;&gt;Node3</title>
<path fill="none" stroke="midnightblue" d="M1335.68,-168.34C1335.47,-154.26 1332.84,-126.53 1316.5,-112 1289.39,-87.9 1197.93,-76.5 1129.56,-71.25"/>
<polygon fill="midnightblue" stroke="midnightblue" points="1129.46,-67.73 1119.23,-70.49 1128.95,-74.72 1129.46,-67.73"/>
</g>
<!-- Node21&#45;&gt;Node18 -->
<g id="edge28" class="edge">
<title>Node21&#45;&gt;Node18</title>
<path fill="none" stroke="midnightblue" d="M1327.41,-168.08C1320.34,-160.3 1309.91,-148.8 1301.35,-139.37"/>
<polygon fill="midnightblue" stroke="midnightblue" points="1303.75,-136.8 1294.44,-131.75 1298.57,-141.51 1303.75,-136.8"/>
</g>
<!-- Node21&#45;&gt;Node20 -->
<g id="edge29" class="edge">
<title>Node21&#45;&gt;Node20</title>
<path fill="none" stroke="midnightblue" d="M1358.48,-168.44C1382.66,-159.44 1420.92,-145.19 1448.15,-135.05"/>
<polygon fill="midnightblue" stroke="midnightblue" points="1449.48,-138.29 1457.63,-131.52 1447.04,-131.73 1449.48,-138.29"/>
</g>
<!-- Node22&#45;&gt;Node3 -->
<g id="edge38" class="edge">
<title>Node22&#45;&gt;Node3</title>
<path fill="none" stroke="midnightblue" d="M1019.23,-168.39C1022.08,-159.34 1026.67,-144.69 1030.5,-132 1035.22,-116.35 1040.42,-98.52 1044.18,-85.5"/>
<polygon fill="midnightblue" stroke="midnightblue" points="1047.56,-86.42 1046.97,-75.85 1040.83,-84.49 1047.56,-86.42"/>
</g>
<!-- Node22&#45;&gt;Node6 -->
<g id="edge35" class="edge">
<title>Node22&#45;&gt;Node6</title>
<path fill="none" stroke="midnightblue" d="M973.79,-169.86C920.11,-160.46 833.8,-143.74 824.5,-132 800.77,-102.06 818.84,-54.36 831.64,-28.71"/>
<polygon fill="midnightblue" stroke="midnightblue" points="834.8,-30.23 836.35,-19.75 828.6,-26.97 834.8,-30.23"/>
</g>
<!-- Node22&#45;&gt;Node10 -->
<g id="edge34" class="edge">
<title>Node22&#45;&gt;Node10</title>
<path fill="none" stroke="midnightblue" d="M973.86,-173.66C850.67,-164.02 495.12,-136.2 370.38,-126.43"/>
<polygon fill="midnightblue" stroke="midnightblue" points="370.32,-122.92 360.07,-125.63 369.77,-129.9 370.32,-122.92"/>
</g>
<!-- Node22&#45;&gt;Node12 -->
<g id="edge40" class="edge">
<title>Node22&#45;&gt;Node12</title>
<path fill="none" stroke="midnightblue" d="M973.69,-168.9C928.36,-160.22 854.74,-145.81 791.5,-132 790.05,-131.68 788.57,-131.36 787.08,-131.02"/>
<polygon fill="midnightblue" stroke="midnightblue" points="787.72,-127.58 777.19,-128.75 786.15,-134.4 787.72,-127.58"/>
</g>
<!-- Node23 -->
<g id="node23" class="node">
<title>Node23</title>
<g id="a_node23"><a xlink:title=" ">
<polygon fill="none" stroke="#bfbfbf" points="1077.5,-112.5 1077.5,-131.5 1141.5,-131.5 1141.5,-112.5 1077.5,-112.5"/>
<text text-anchor="middle" x="1109.5" y="-119.5" font-family="Helvetica,sans-Serif" font-size="10.00">algorithm</text>
</a>
</g>
</g>
<!-- Node22&#45;&gt;Node23 -->
<g id="edge32" class="edge">
<title>Node22&#45;&gt;Node23</title>
<path fill="none" stroke="midnightblue" d="M1031.44,-168.32C1046.09,-159.82 1068.63,-146.73 1085.74,-136.8"/>
<polygon fill="midnightblue" stroke="midnightblue" points="1087.7,-139.7 1094.6,-131.65 1084.19,-133.65 1087.7,-139.7"/>
</g>
<!-- Node24 -->
<g id="node24" class="node">
<title>Node24</title>
<g id="a_node24"><a xlink:title=" ">
<polygon fill="none" stroke="#bfbfbf" points="1160,-112.5 1160,-131.5 1209,-131.5 1209,-112.5 1160,-112.5"/>
<text text-anchor="middle" x="1184.5" y="-119.5" font-family="Helvetica,sans-Serif" font-size="10.00">cctype</text>
</a>
</g>
</g>
<!-- Node22&#45;&gt;Node24 -->
<g id="edge33" class="edge">
<title>Node22&#45;&gt;Node24</title>
<path fill="none" stroke="midnightblue" d="M1043.12,-168.44C1072.09,-159.13 1118.5,-144.21 1150.19,-134.03"/>
<polygon fill="midnightblue" stroke="midnightblue" points="1151.47,-137.29 1159.92,-130.9 1149.33,-130.63 1151.47,-137.29"/>
</g>
<!-- Node25 -->
<g id="node25" class="node">
<title>Node25</title>
<g id="a_node25"><a xlink:title=" ">
<polygon fill="none" stroke="#bfbfbf" points="833.5,-112.5 833.5,-131.5 879.5,-131.5 879.5,-112.5 833.5,-112.5"/>
<text text-anchor="middle" x="856.5" y="-119.5" font-family="Helvetica,sans-Serif" font-size="10.00">locale</text>
</a>
</g>
</g>
<!-- Node22&#45;&gt;Node25 -->
<g id="edge36" class="edge">
<title>Node22&#45;&gt;Node25</title>
<path fill="none" stroke="midnightblue" d="M991.15,-168.44C963.6,-159.15 919.48,-144.26 889.31,-134.07"/>
<polygon fill="midnightblue" stroke="midnightblue" points="890.25,-130.7 879.66,-130.82 888.01,-137.33 890.25,-130.7"/>
</g>
<!-- Node26 -->
<g id="node26" class="node">
<title>Node26</title>
<g id="a_node26"><a xlink:title=" ">
<polygon fill="none" stroke="#bfbfbf" points="897.5,-112.5 897.5,-131.5 953.5,-131.5 953.5,-112.5 897.5,-112.5"/>
<text text-anchor="middle" x="925.5" y="-119.5" font-family="Helvetica,sans-Serif" font-size="10.00">numeric</text>
</a>
</g>
</g>
<!-- Node22&#45;&gt;Node26 -->
<g id="edge37" class="edge">
<title>Node22&#45;&gt;Node26</title>
<path fill="none" stroke="midnightblue" d="M1001.88,-168.32C987.55,-159.82 965.49,-146.73 948.75,-136.8"/>
<polygon fill="midnightblue" stroke="midnightblue" points="950.47,-133.75 940.08,-131.65 946.9,-139.77 950.47,-133.75"/>
</g>
<!-- Node27 -->
<g id="node27" class="node">
<title>Node27</title>
<g id="a_node27"><a xlink:title=" ">
<polygon fill="none" stroke="#bfbfbf" points="1546.5,-112.5 1546.5,-131.5 1590.5,-131.5 1590.5,-112.5 1546.5,-112.5"/>
<text text-anchor="middle" x="1568.5" y="-119.5" font-family="Helvetica,sans-Serif" font-size="10.00">string</text>
</a>
</g>
</g>
<!-- Node22&#45;&gt;Node27 -->
<g id="edge39" class="edge">
<title>Node22&#45;&gt;Node27</title>
<path fill="none" stroke="midnightblue" d="M1059.27,-173.79C1169.73,-165.44 1460.69,-143.01 1536.37,-131.67"/>
<polygon fill="midnightblue" stroke="midnightblue" points="1536.99,-135.12 1546.28,-130.02 1535.83,-128.21 1536.99,-135.12"/>
</g>
<!-- Node28 -->
<g id="node28" class="node">
<title>Node28</title>
<g id="a_node28"><a xlink:title=" ">
<polygon fill="none" stroke="#bfbfbf" points="971.5,-112.5 971.5,-131.5 1021.5,-131.5 1021.5,-112.5 971.5,-112.5"/>
<text text-anchor="middle" x="996.5" y="-119.5" font-family="Helvetica,sans-Serif" font-size="10.00">chrono</text>
</a>
</g>
</g>
<!-- Node22&#45;&gt;Node28 -->
<g id="edge41" class="edge">
<title>Node22&#45;&gt;Node28</title>
<path fill="none" stroke="midnightblue" d="M1013.2,-168.08C1010.52,-160.85 1006.65,-150.41 1003.31,-141.4"/>
<polygon fill="midnightblue" stroke="midnightblue" points="1006.5,-139.91 999.74,-131.75 999.93,-142.34 1006.5,-139.91"/>
</g>
<!-- Node29&#45;&gt;Node3 -->
<g id="edge44" class="edge">
<title>Node29&#45;&gt;Node3</title>
<path fill="none" stroke="midnightblue" d="M689.26,-224.4C667.93,-213.04 636.92,-191.68 648.5,-168 666.31,-131.58 683.14,-127.73 720.5,-112 764.11,-93.64 887.07,-80.32 969.68,-73.13"/>
<polygon fill="midnightblue" stroke="midnightblue" points="970.13,-76.6 979.8,-72.26 969.54,-69.63 970.13,-76.6"/>
</g>
<!-- Node29&#45;&gt;Node22 -->
<g id="edge45" class="edge">
<title>Node29&#45;&gt;Node22</title>
<path fill="none" stroke="midnightblue" d="M756.46,-224.44C812.97,-214.57 905.56,-198.39 963.66,-188.23"/>
<polygon fill="midnightblue" stroke="midnightblue" points="964.49,-191.64 973.74,-186.47 963.28,-184.75 964.49,-191.64"/>
</g>
<!-- Node30 -->
<g id="node30" class="node">
<title>Node30</title>
<g id="a_node30"><a xlink:href="qm_2opmatrix_8h.html" target="_top" xlink:title=" ">
<polygon fill="none" stroke="black" points="657.5,-168.5 657.5,-187.5 765.5,-187.5 765.5,-168.5 657.5,-168.5"/>
<text text-anchor="middle" x="711.5" y="-175.5" font-family="Helvetica,sans-Serif" font-size="10.00">occ/qm/opmatrix.h</text>
</a>
</g>
</g>
<!-- Node29&#45;&gt;Node30 -->
<g id="edge46" class="edge">
<title>Node29&#45;&gt;Node30</title>
<path fill="none" stroke="midnightblue" d="M702.99,-224.08C702.01,-216.93 702.35,-206.64 703.66,-197.69"/>
<polygon fill="midnightblue" stroke="midnightblue" points="707.12,-198.25 705.72,-187.75 700.26,-196.83 707.12,-198.25"/>
</g>
<!-- Node30&#45;&gt;Node29 -->
<g id="edge47" class="edge">
<title>Node30&#45;&gt;Node29</title>
<path fill="none" stroke="midnightblue" d="M715.98,-187.75C716.98,-194.86 716.67,-205.14 715.37,-214.1"/>
<polygon fill="midnightblue" stroke="midnightblue" points="711.91,-213.58 713.33,-224.08 718.76,-214.99 711.91,-213.58"/>
</g>
<!-- Node31&#45;&gt;Node3 -->
<g id="edge54" class="edge">
<title>Node31&#45;&gt;Node3</title>
<path fill="none" stroke="midnightblue" d="M743.13,-283.81C629.69,-272.72 374.59,-247.43 371.5,-244 365.55,-237.39 366.52,-231.36 371.5,-224 446.64,-113.01 521.52,-144.71 651.5,-112 759.66,-84.78 888.52,-74 969.68,-69.75"/>
<polygon fill="midnightblue" stroke="midnightblue" points="970.02,-73.24 979.83,-69.24 969.67,-66.25 970.02,-73.24"/>
</g>
<!-- Node31&#45;&gt;Node12 -->
<g id="edge58" class="edge">
<title>Node31&#45;&gt;Node12</title>
<path fill="none" stroke="midnightblue" d="M795.69,-280.31C793.66,-260.16 787.52,-208.89 774.5,-168 771.52,-158.66 767.05,-148.73 762.99,-140.59"/>
<polygon fill="midnightblue" stroke="midnightblue" points="766.09,-138.96 758.38,-131.69 759.88,-142.18 766.09,-138.96"/>
</g>
<!-- Node31&#45;&gt;Node15 -->
<g id="edge51" class="edge">
<title>Node31&#45;&gt;Node15</title>
<path fill="none" stroke="midnightblue" d="M816.94,-280.44C838.17,-271.56 871.6,-257.56 895.75,-247.45"/>
<polygon fill="midnightblue" stroke="midnightblue" points="897.28,-250.61 905.16,-243.52 894.58,-244.15 897.28,-250.61"/>
</g>
<!-- Node31&#45;&gt;Node16 -->
<g id="edge52" class="edge">
<title>Node31&#45;&gt;Node16</title>
<path fill="none" stroke="midnightblue" d="M828.51,-280.44C864.76,-270.75 923.73,-254.99 961.81,-244.81"/>
<polygon fill="midnightblue" stroke="midnightblue" points="962.73,-248.18 971.49,-242.22 960.93,-241.42 962.73,-248.18"/>
</g>
<!-- Node31&#45;&gt;Node17 -->
<g id="edge55" class="edge">
<title>Node31&#45;&gt;Node17</title>
<path fill="none" stroke="midnightblue" d="M849.59,-281.24C852.61,-280.82 855.59,-280.4 858.5,-280 960.78,-265.87 1080.38,-250.42 1147.91,-241.8"/>
<polygon fill="midnightblue" stroke="midnightblue" points="1148.41,-245.26 1157.89,-240.53 1147.53,-238.32 1148.41,-245.26"/>
</g>
<!-- Node31&#45;&gt;Node18 -->
<g id="edge50" class="edge">
<title>Node31&#45;&gt;Node18</title>
<path fill="none" stroke="midnightblue" d="M805.88,-280.31C821.66,-266.18 855.09,-238.39 888.5,-224 963.03,-191.89 988.75,-207.56 1067.5,-188 1135.24,-171.17 1213.34,-146.76 1255.55,-133.15"/>
<polygon fill="midnightblue" stroke="midnightblue" points="1256.79,-136.42 1265.23,-130.01 1254.63,-129.76 1256.79,-136.42"/>
</g>
<!-- Node31&#45;&gt;Node29 -->
<g id="edge56" class="edge">
<title>Node31&#45;&gt;Node29</title>
<path fill="none" stroke="midnightblue" d="M782.2,-280.32C768.32,-271.9 747.01,-258.97 730.7,-249.07"/>
<polygon fill="midnightblue" stroke="midnightblue" points="732.13,-245.85 721.76,-243.65 728.5,-251.83 732.13,-245.85"/>
</g>
<!-- Node32 -->
<g id="node32" class="node">
<title>Node32</title>
<g id="a_node32"><a xlink:title=" ">
<polygon fill="none" stroke="#bfbfbf" points="381,-224.5 381,-243.5 524,-243.5 524,-224.5 381,-224.5"/>
<text text-anchor="middle" x="452.5" y="-231.5" font-family="Helvetica,sans-Serif" font-size="10.00">ankerl/unordered_dense.h</text>
</a>
</g>
</g>
<!-- Node31&#45;&gt;Node32 -->
<g id="edge53" class="edge">
<title>Node31&#45;&gt;Node32</title>
<path fill="none" stroke="midnightblue" d="M743.13,-280.62C682.13,-271.05 582.33,-255.38 517.02,-245.13"/>
<polygon fill="midnightblue" stroke="midnightblue" points="517.27,-241.62 506.85,-243.53 516.19,-248.54 517.27,-241.62"/>
</g>
<!-- Node33 -->
<g id="node33" class="node">
<title>Node33</title>
<g id="a_node33"><a xlink:title=" ">
<polygon fill="none" stroke="#bfbfbf" points="542,-224.5 542,-243.5 593,-243.5 593,-224.5 542,-224.5"/>
<text text-anchor="middle" x="567.5" y="-231.5" font-family="Helvetica,sans-Serif" font-size="10.00">variant</text>
</a>
</g>
</g>
<!-- Node31&#45;&gt;Node33 -->
<g id="edge57" class="edge">
<title>Node31&#45;&gt;Node33</title>
<path fill="none" stroke="midnightblue" d="M760.21,-280.44C717.22,-270.31 646.05,-253.52 603.28,-243.44"/>
<polygon fill="midnightblue" stroke="midnightblue" points="603.85,-239.98 593.31,-241.09 602.24,-246.79 603.85,-239.98"/>
</g>
<!-- Node34&#45;&gt;Node3 -->
<g id="edge61" class="edge">
<title>Node34&#45;&gt;Node3</title>
<path fill="none" stroke="midnightblue" d="M1243.05,-287.91C1369.48,-285.06 1645.94,-275.28 1674.5,-244 1680.49,-237.44 1677.08,-232.5 1674.5,-224 1657.08,-166.68 1651.15,-142.35 1599.5,-112 1559.95,-88.76 1271.72,-75.11 1129.05,-69.7"/>
<polygon fill="midnightblue" stroke="midnightblue" points="1129.16,-66.2 1119.04,-69.33 1128.9,-73.2 1129.16,-66.2"/>
</g>
<!-- Node34&#45;&gt;Node12 -->
<g id="edge66" class="edge">
<title>Node34&#45;&gt;Node12</title>
<path fill="none" stroke="midnightblue" d="M1166.23,-280.36C1143.34,-266.8 1096.72,-240.39 1054.5,-224 997.41,-201.84 978.37,-210.71 921.5,-188 904.14,-181.07 901.62,-175.51 884.5,-168 852.08,-153.79 813.63,-141.04 786.81,-132.77"/>
<polygon fill="midnightblue" stroke="midnightblue" points="787.72,-129.39 777.13,-129.83 785.68,-136.09 787.72,-129.39"/>
</g>
<!-- Node34&#45;&gt;Node16 -->
<g id="edge60" class="edge">
<title>Node34&#45;&gt;Node16</title>
<path fill="none" stroke="midnightblue" d="M1151.66,-280.44C1120.19,-271.11 1069.71,-256.13 1035.38,-245.94"/>
<polygon fill="midnightblue" stroke="midnightblue" points="1036.3,-242.56 1025.72,-243.08 1034.31,-249.28 1036.3,-242.56"/>
</g>
<!-- Node34&#45;&gt;Node17 -->
<g id="edge62" class="edge">
<title>Node34&#45;&gt;Node17</title>
<path fill="none" stroke="midnightblue" d="M1183.97,-280.08C1186.81,-272.77 1190.93,-262.18 1194.46,-253.1"/>
<polygon fill="midnightblue" stroke="midnightblue" points="1197.73,-254.34 1198.1,-243.75 1191.21,-251.8 1197.73,-254.34"/>
</g>
<!-- Node34&#45;&gt;Node27 -->
<g id="edge65" class="edge">
<title>Node34&#45;&gt;Node27</title>
<path fill="none" stroke="midnightblue" d="M1243.22,-285.77C1344.76,-279.92 1536.02,-266.09 1557.5,-244 1583.88,-216.87 1578.69,-168.35 1573.22,-141.74"/>
<polygon fill="midnightblue" stroke="midnightblue" points="1576.59,-140.77 1570.95,-131.8 1569.77,-142.33 1576.59,-140.77"/>
</g>
<!-- Node34&#45;&gt;Node29 -->
<g id="edge63" class="edge">
<title>Node34&#45;&gt;Node29</title>
<path fill="none" stroke="midnightblue" d="M1117.68,-281.1C1114.57,-280.72 1111.5,-280.36 1108.5,-280 991.82,-266.16 855.91,-251.14 776.04,-242.43"/>
<polygon fill="midnightblue" stroke="midnightblue" points="775.95,-238.9 765.63,-241.29 775.19,-245.85 775.95,-238.9"/>
</g>
<!-- Node35 -->
<g id="node35" class="node">
<title>Node35</title>
<g id="a_node35"><a xlink:title=" ">
<polygon fill="none" stroke="#bfbfbf" points="1609.5,-224.5 1609.5,-243.5 1665.5,-243.5 1665.5,-224.5 1609.5,-224.5"/>
<text text-anchor="middle" x="1637.5" y="-231.5" font-family="Helvetica,sans-Serif" font-size="10.00">optional</text>
</a>
</g>
</g>
<!-- Node34&#45;&gt;Node35 -->
<g id="edge64" class="edge">
<title>Node34&#45;&gt;Node35</title>
<path fill="none" stroke="midnightblue" d="M1243.34,-284.22C1324.87,-277.55 1471.36,-263.98 1595.5,-244 1596.74,-243.8 1598,-243.59 1599.28,-243.36"/>
<polygon fill="midnightblue" stroke="midnightblue" points="1599.94,-246.8 1609.11,-241.5 1598.63,-239.92 1599.94,-246.8"/>
</g>
<!-- Node36&#45;&gt;Node3 -->
<g id="edge71" class="edge">
<title>Node36&#45;&gt;Node3</title>
<path fill="none" stroke="midnightblue" d="M1052.58,-280.31C1065.51,-258.81 1101.68,-202.39 1144.5,-168 1176.38,-142.4 1242.39,-144.44 1217.5,-112 1205.38,-96.21 1161.2,-84.75 1121.18,-77.35"/>
<polygon fill="midnightblue" stroke="midnightblue" points="1121.58,-73.86 1111.12,-75.55 1120.35,-80.75 1121.58,-73.86"/>
</g>
<!-- Node36&#45;&gt;Node12 -->
<g id="edge75" class="edge">
<title>Node36&#45;&gt;Node12</title>
<path fill="none" stroke="midnightblue" d="M1048.45,-280.11C1049.41,-266.22 1049.07,-239.36 1034.5,-224 989.98,-177.08 954.42,-209.71 893.5,-188 851.95,-173.19 805.96,-150.56 778.41,-136.28"/>
<polygon fill="midnightblue" stroke="midnightblue" points="779.95,-133.14 769.47,-131.6 776.71,-139.34 779.95,-133.14"/>
</g>
<!-- Node36&#45;&gt;Node15 -->
<g id="edge68" class="edge">
<title>Node36&#45;&gt;Node15</title>
<path fill="none" stroke="midnightblue" d="M1028.17,-280.44C1008.18,-271.6 976.76,-257.69 953.94,-247.59"/>
<polygon fill="midnightblue" stroke="midnightblue" points="955.3,-244.36 944.74,-243.52 952.47,-250.76 955.3,-244.36"/>
</g>
<!-- Node36&#45;&gt;Node16 -->
<g id="edge69" class="edge">
<title>Node36&#45;&gt;Node16</title>
<path fill="none" stroke="midnightblue" d="M1039.41,-280.08C1032.34,-272.3 1021.91,-260.8 1013.35,-251.37"/>
<polygon fill="midnightblue" stroke="midnightblue" points="1015.75,-248.8 1006.44,-243.75 1010.57,-253.51 1015.75,-248.8"/>
</g>
<!-- Node36&#45;&gt;Node17 -->
<g id="edge72" class="edge">
<title>Node36&#45;&gt;Node17</title>
<path fill="none" stroke="midnightblue" d="M1071.9,-280.44C1097.7,-271.4 1138.58,-257.06 1167.52,-246.92"/>
<polygon fill="midnightblue" stroke="midnightblue" points="1168.93,-250.13 1177.21,-243.52 1166.62,-243.52 1168.93,-250.13"/>
</g>
<!-- Node36&#45;&gt;Node20 -->
<g id="edge70" class="edge">
<title>Node36&#45;&gt;Node20</title>
<path fill="none" stroke="midnightblue" d="M1095.03,-280.46C1199.01,-261.37 1439.52,-214.81 1465.5,-188 1477.2,-175.92 1480.45,-156.64 1481.08,-142.21"/>
<polygon fill="midnightblue" stroke="midnightblue" points="1484.58,-141.92 1481.13,-131.9 1477.58,-141.88 1484.58,-141.92"/>
</g>
<!-- Node36&#45;&gt;Node27 -->
<g id="edge74" class="edge">
<title>Node36&#45;&gt;Node27</title>
<path fill="none" stroke="midnightblue" d="M1099.6,-281.24C1180.19,-269.19 1327.08,-247.04 1338.5,-244 1405.67,-226.14 1423.93,-222.07 1484.5,-188 1509.68,-173.83 1535.51,-152.66 1551.75,-138.36"/>
<polygon fill="midnightblue" stroke="midnightblue" points="1554.21,-140.86 1559.32,-131.59 1549.54,-135.65 1554.21,-140.86"/>
</g>
<!-- Node36&#45;&gt;Node29 -->
<g id="edge73" class="edge">
<title>Node36&#45;&gt;Node29</title>
<path fill="none" stroke="midnightblue" d="M995.49,-280.74C935.28,-271.18 836.1,-255.42 771.28,-245.13"/>
<polygon fill="midnightblue" stroke="midnightblue" points="771.61,-241.64 761.19,-243.53 770.51,-248.55 771.61,-241.64"/>
</g>
<!-- Node37&#45;&gt;Node29 -->
<g id="edge77" class="edge">
<title>Node37&#45;&gt;Node29</title>
<path fill="none" stroke="midnightblue" d="M657.14,-280.32C666.01,-272.34 679.37,-260.31 690.11,-250.65"/>
<polygon fill="midnightblue" stroke="midnightblue" points="692.59,-253.13 697.68,-243.83 687.91,-247.92 692.59,-253.13"/>
</g>
</g>
</svg>
