<?xml version="1.0" encoding="UTF-8" standalone="no"?>
<!DOCTYPE svg PUBLIC "-//W3C//DTD SVG 1.1//EN"
 "http://www.w3.org/Graphics/SVG/1.1/DTD/svg11.dtd">
<!-- Generated by graphviz version 2.43.0 (0)
 -->
<!-- Title: /home/runner/work/occ/occ/include/occ/core/element.h Pages: 1 -->
<svg width="1387pt" height="362pt"
 viewBox="0.00 0.00 1387.00 362.00" xmlns="http://www.w3.org/2000/svg" xmlns:xlink="http://www.w3.org/1999/xlink">
<g id="graph0" class="graph" transform="scale(1 1) rotate(0) translate(4 358)">
<title>/home/runner/work/occ/occ/include/occ/core/element.h</title>
<!-- Node1 -->
<g id="node1" class="node">
<title>Node1</title>
<g id="a_node1"><a xlink:title=" ">
<polygon fill="#bfbfbf" stroke="black" points="621.5,-312.5 621.5,-353.5 749.5,-353.5 749.5,-312.5 621.5,-312.5"/>
<text text-anchor="start" x="629.5" y="-341.5" font-family="Helvetica,sans-Serif" font-size="10.00">/home/runner/work/occ</text>
<text text-anchor="start" x="629.5" y="-330.5" font-family="Helvetica,sans-Serif" font-size="10.00">/occ/include/occ/core</text>
<text text-anchor="middle" x="685.5" y="-319.5" font-family="Helvetica,sans-Serif" font-size="10.00">/element.h</text>
</a>
</g>
</g>
<!-- Node2 -->
<g id="node2" class="node">
<title>Node2</title>
<g id="a_node2"><a xlink:href="molecule_8h.html" target="_top" xlink:title=" ">
<polygon fill="none" stroke="black" points="621.5,-234.5 621.5,-275.5 749.5,-275.5 749.5,-234.5 621.5,-234.5"/>
<text text-anchor="start" x="629.5" y="-263.5" font-family="Helvetica,sans-Serif" font-size="10.00">/home/runner/work/occ</text>
<text text-anchor="start" x="629.5" y="-252.5" font-family="Helvetica,sans-Serif" font-size="10.00">/occ/include/occ/core</text>
<text text-anchor="middle" x="685.5" y="-241.5" font-family="Helvetica,sans-Serif" font-size="10.00">/molecule.h</text>
</a>
</g>
</g>
<!-- Node1&#45;&gt;Node2 -->
<g id="edge1" class="edge">
<title>Node1&#45;&gt;Node2</title>
<path fill="none" stroke="midnightblue" d="M685.5,-302.3C685.5,-293.3 685.5,-283.65 685.5,-275.51"/>
<polygon fill="midnightblue" stroke="midnightblue" points="682,-302.43 685.5,-312.43 689,-302.43 682,-302.43"/>
</g>
<!-- Node15 -->
<g id="node15" class="node">
<title>Node15</title>
<g id="a_node15"><a xlink:href="occ__input_8h.html" target="_top" xlink:title=" ">
<polygon fill="none" stroke="black" points="344.5,-156.5 344.5,-197.5 472.5,-197.5 472.5,-156.5 344.5,-156.5"/>
<text text-anchor="start" x="352.5" y="-185.5" font-family="Helvetica,sans-Serif" font-size="10.00">/home/runner/work/occ</text>
<text text-anchor="start" x="352.5" y="-174.5" font-family="Helvetica,sans-Serif" font-size="10.00">/occ/include/occ/io/occ</text>
<text text-anchor="middle" x="408.5" y="-163.5" font-family="Helvetica,sans-Serif" font-size="10.00">_input.h</text>
</a>
</g>
</g>
<!-- Node1&#45;&gt;Node15 -->
<g id="edge33" class="edge">
<title>Node1&#45;&gt;Node15</title>
<path fill="none" stroke="midnightblue" d="M611.11,-324.92C544.21,-316.99 452.69,-301.75 427.5,-276 407.26,-255.31 405.34,-219.91 406.45,-197.8"/>
<polygon fill="midnightblue" stroke="midnightblue" points="610.87,-328.42 621.2,-326.08 611.67,-321.46 610.87,-328.42"/>
</g>
<!-- Node16 -->
<g id="node16" class="node">
<title>Node16</title>
<g id="a_node16"><a xlink:href="qcschema_8h.html" target="_top" xlink:title=" ">
<polygon fill="none" stroke="black" points="0,-84 0,-114 167,-114 167,-84 0,-84"/>
<text text-anchor="start" x="8" y="-102" font-family="Helvetica,sans-Serif" font-size="10.00">/home/runner/work/occ</text>
<text text-anchor="middle" x="83.5" y="-91" font-family="Helvetica,sans-Serif" font-size="10.00">/occ/include/occ/io/qcschema.h</text>
</a>
</g>
</g>
<!-- Node1&#45;&gt;Node16 -->
<g id="edge34" class="edge">
<title>Node1&#45;&gt;Node16</title>
<path fill="none" stroke="midnightblue" d="M611.38,-323.41C553.96,-315.28 473.07,-300.57 405.5,-276 284.26,-231.91 153.35,-147.45 103.93,-114.07"/>
<polygon fill="midnightblue" stroke="midnightblue" points="611.07,-326.9 621.46,-324.8 612.03,-319.97 611.07,-326.9"/>
</g>
<!-- Node19 -->
<g id="node19" class="node">
<title>Node19</title>
<g id="a_node19"><a xlink:href="xyz_8h.html" target="_top" xlink:title=" ">
<polygon fill="none" stroke="black" points="1244,-162 1244,-192 1379,-192 1379,-162 1244,-162"/>
<text text-anchor="start" x="1252" y="-180" font-family="Helvetica,sans-Serif" font-size="10.00">/home/runner/work/occ</text>
<text text-anchor="middle" x="1311.5" y="-169" font-family="Helvetica,sans-Serif" font-size="10.00">/occ/include/occ/io/xyz.h</text>
</a>
</g>
</g>
<!-- Node1&#45;&gt;Node19 -->
<g id="edge35" class="edge">
<title>Node1&#45;&gt;Node19</title>
<path fill="none" stroke="midnightblue" d="M721.63,-306.32C733.73,-297.2 747.05,-286.56 758.5,-276 777.01,-258.94 773.93,-245.16 796.5,-234 883.05,-191.21 1134.2,-213.49 1229.5,-198 1239.19,-196.43 1249.43,-194.3 1259.26,-192.03"/>
<polygon fill="midnightblue" stroke="midnightblue" points="719.42,-303.6 713.49,-312.38 723.6,-309.22 719.42,-303.6"/>
</g>
<!-- Node20 -->
<g id="node20" class="node">
<title>Node20</title>
<g id="a_node20"><a xlink:href="asymmetric__unit_8h.html" target="_top" xlink:title=" ">
<polygon fill="none" stroke="black" points="436.5,-234.5 436.5,-275.5 566.5,-275.5 566.5,-234.5 436.5,-234.5"/>
<text text-anchor="start" x="444.5" y="-263.5" font-family="Helvetica,sans-Serif" font-size="10.00">/home/runner/work/occ</text>
<text text-anchor="start" x="444.5" y="-252.5" font-family="Helvetica,sans-Serif" font-size="10.00">/occ/include/occ/crystal</text>
<text text-anchor="middle" x="501.5" y="-241.5" font-family="Helvetica,sans-Serif" font-size="10.00">/asymmetric_unit.h</text>
</a>
</g>
</g>
<!-- Node1&#45;&gt;Node20 -->
<g id="edge29" class="edge">
<title>Node1&#45;&gt;Node20</title>
<path fill="none" stroke="midnightblue" d="M628.87,-308.61C603.19,-298 573.17,-285.6 548.72,-275.51"/>
<polygon fill="midnightblue" stroke="midnightblue" points="627.54,-311.85 638.12,-312.43 630.21,-305.38 627.54,-311.85"/>
</g>
<!-- Node21 -->
<g id="node21" class="node">
<title>Node21</title>
<g id="a_node21"><a xlink:href="gaussian__input__file_8h.html" target="_top" xlink:title=" ">
<polygon fill="none" stroke="black" points="805.5,-234.5 805.5,-275.5 957.5,-275.5 957.5,-234.5 805.5,-234.5"/>
<text text-anchor="start" x="813.5" y="-263.5" font-family="Helvetica,sans-Serif" font-size="10.00">/home/runner/work/occ</text>
<text text-anchor="start" x="813.5" y="-252.5" font-family="Helvetica,sans-Serif" font-size="10.00">/occ/include/occ/io/gaussian</text>
<text text-anchor="middle" x="881.5" y="-241.5" font-family="Helvetica,sans-Serif" font-size="10.00">_input_file.h</text>
</a>
</g>
</g>
<!-- Node1&#45;&gt;Node21 -->
<g id="edge31" class="edge">
<title>Node1&#45;&gt;Node21</title>
<path fill="none" stroke="midnightblue" d="M745.47,-308.75C772.9,-298.11 805.05,-285.65 831.2,-275.51"/>
<polygon fill="midnightblue" stroke="midnightblue" points="744.03,-305.55 735.97,-312.43 746.56,-312.08 744.03,-305.55"/>
</g>
<!-- Node22 -->
<g id="node22" class="node">
<title>Node22</title>
<g id="a_node22"><a xlink:href="json__basis_8h.html" target="_top" xlink:title=" ">
<polygon fill="none" stroke="black" points="976,-234.5 976,-275.5 1105,-275.5 1105,-234.5 976,-234.5"/>
<text text-anchor="start" x="984" y="-263.5" font-family="Helvetica,sans-Serif" font-size="10.00">/home/runner/work/occ</text>
<text text-anchor="start" x="984" y="-252.5" font-family="Helvetica,sans-Serif" font-size="10.00">/occ/include/occ/io/json</text>
<text text-anchor="middle" x="1040.5" y="-241.5" font-family="Helvetica,sans-Serif" font-size="10.00">_basis.h</text>
</a>
</g>
</g>
<!-- Node1&#45;&gt;Node22 -->
<g id="edge32" class="edge">
<title>Node1&#45;&gt;Node22</title>
<path fill="none" stroke="midnightblue" d="M759.63,-318.64C816.46,-308.05 896.71,-292.37 966.5,-276 969.61,-275.27 972.79,-274.5 975.99,-273.71"/>
<polygon fill="midnightblue" stroke="midnightblue" points="758.85,-315.22 749.66,-320.49 760.13,-322.1 758.85,-315.22"/>
</g>
<!-- Node3 -->
<g id="node3" class="node">
<title>Node3</title>
<g id="a_node3"><a xlink:href="dimer_8h.html" target="_top" xlink:title=" ">
<polygon fill="none" stroke="black" points="763.5,-156.5 763.5,-197.5 891.5,-197.5 891.5,-156.5 763.5,-156.5"/>
<text text-anchor="start" x="771.5" y="-185.5" font-family="Helvetica,sans-Serif" font-size="10.00">/home/runner/work/occ</text>
<text text-anchor="start" x="771.5" y="-174.5" font-family="Helvetica,sans-Serif" font-size="10.00">/occ/include/occ/core</text>
<text text-anchor="middle" x="827.5" y="-163.5" font-family="Helvetica,sans-Serif" font-size="10.00">/dimer.h</text>
</a>
</g>
</g>
<!-- Node2&#45;&gt;Node3 -->
<g id="edge2" class="edge">
<title>Node2&#45;&gt;Node3</title>
<path fill="none" stroke="midnightblue" d="M731.04,-229.63C750.44,-219.24 772.77,-207.29 791.06,-197.51"/>
<polygon fill="midnightblue" stroke="midnightblue" points="729.23,-226.62 722.07,-234.43 732.54,-232.8 729.23,-226.62"/>
</g>
<!-- Node4 -->
<g id="node4" class="node">
<title>Node4</title>
<g id="a_node4"><a xlink:href="crystal_8h.html" target="_top" xlink:title=" ">
<polygon fill="none" stroke="black" points="553.5,-78.5 553.5,-119.5 683.5,-119.5 683.5,-78.5 553.5,-78.5"/>
<text text-anchor="start" x="561.5" y="-107.5" font-family="Helvetica,sans-Serif" font-size="10.00">/home/runner/work/occ</text>
<text text-anchor="start" x="561.5" y="-96.5" font-family="Helvetica,sans-Serif" font-size="10.00">/occ/include/occ/crystal</text>
<text text-anchor="middle" x="618.5" y="-85.5" font-family="Helvetica,sans-Serif" font-size="10.00">/crystal.h</text>
</a>
</g>
</g>
<!-- Node2&#45;&gt;Node4 -->
<g id="edge19" class="edge">
<title>Node2&#45;&gt;Node4</title>
<path fill="none" stroke="midnightblue" d="M611.93,-237.81C591.13,-229.47 570.83,-216.91 558.5,-198 548.31,-182.36 551.06,-173.12 558.5,-156 564.8,-141.49 576.92,-129.04 588.63,-119.58"/>
<polygon fill="midnightblue" stroke="midnightblue" points="610.9,-241.16 621.49,-241.35 613.33,-234.6 610.9,-241.16"/>
</g>
<!-- Node9 -->
<g id="node9" class="node">
<title>Node9</title>
<g id="a_node9"><a xlink:href="solvation__partition_8h.html" target="_top" xlink:title=" ">
<polygon fill="none" stroke="black" points="1075.5,-0.5 1075.5,-41.5 1203.5,-41.5 1203.5,-0.5 1075.5,-0.5"/>
<text text-anchor="start" x="1083.5" y="-29.5" font-family="Helvetica,sans-Serif" font-size="10.00">/home/runner/work/occ</text>
<text text-anchor="start" x="1083.5" y="-18.5" font-family="Helvetica,sans-Serif" font-size="10.00">/occ/include/occ/main</text>
<text text-anchor="middle" x="1139.5" y="-7.5" font-family="Helvetica,sans-Serif" font-size="10.00">/solvation_partition.h</text>
</a>
</g>
</g>
<!-- Node2&#45;&gt;Node9 -->
<g id="edge26" class="edge">
<title>Node2&#45;&gt;Node9</title>
<path fill="none" stroke="midnightblue" d="M759.65,-233.12C896.04,-208.82 949.13,-262.81 1071.5,-198 1111.88,-176.61 1122.4,-162.77 1138.5,-120 1148.21,-94.2 1146.03,-61.81 1143.12,-41.5"/>
<polygon fill="midnightblue" stroke="midnightblue" points="758.86,-229.71 749.69,-235.01 760.16,-236.59 758.86,-229.71"/>
</g>
<!-- Node10 -->
<g id="node10" class="node">
<title>Node10</title>
<g id="a_node10"><a xlink:href="tblite__wrapper_8h.html" target="_top" xlink:title=" ">
<polygon fill="none" stroke="black" points="909.5,-0.5 909.5,-41.5 1037.5,-41.5 1037.5,-0.5 909.5,-0.5"/>
<text text-anchor="start" x="917.5" y="-29.5" font-family="Helvetica,sans-Serif" font-size="10.00">/home/runner/work/occ</text>
<text text-anchor="start" x="917.5" y="-18.5" font-family="Helvetica,sans-Serif" font-size="10.00">/occ/include/occ/xtb</text>
<text text-anchor="middle" x="973.5" y="-7.5" font-family="Helvetica,sans-Serif" font-size="10.00">/tblite_wrapper.h</text>
</a>
</g>
</g>
<!-- Node2&#45;&gt;Node10 -->
<g id="edge27" class="edge">
<title>Node2&#45;&gt;Node10</title>
<path fill="none" stroke="midnightblue" d="M759.6,-232.75C923.09,-192.51 1024.12,-256.44 1120.5,-120 1131.27,-104.75 1131.09,-93.37 1120.5,-78 1110.39,-63.33 1072.39,-49.06 1037.56,-38.6"/>
<polygon fill="midnightblue" stroke="midnightblue" points="758.56,-229.4 749.75,-235.28 760.31,-236.18 758.56,-229.4"/>
</g>
<!-- Node11 -->
<g id="node11" class="node">
<title>Node11</title>
<g id="a_node11"><a xlink:href="xtb__wrapper_8h.html" target="_top" xlink:title=" ">
<polygon fill="none" stroke="black" points="763.5,-0.5 763.5,-41.5 891.5,-41.5 891.5,-0.5 763.5,-0.5"/>
<text text-anchor="start" x="771.5" y="-29.5" font-family="Helvetica,sans-Serif" font-size="10.00">/home/runner/work/occ</text>
<text text-anchor="start" x="771.5" y="-18.5" font-family="Helvetica,sans-Serif" font-size="10.00">/occ/include/occ/xtb</text>
<text text-anchor="middle" x="827.5" y="-7.5" font-family="Helvetica,sans-Serif" font-size="10.00">/xtb_wrapper.h</text>
</a>
</g>
</g>
<!-- Node2&#45;&gt;Node11 -->
<g id="edge28" class="edge">
<title>Node2&#45;&gt;Node11</title>
<path fill="none" stroke="midnightblue" d="M695.57,-224.98C710.95,-181.57 740.42,-102.23 758.5,-78 769.02,-63.9 783.85,-51.26 797.07,-41.56"/>
<polygon fill="midnightblue" stroke="midnightblue" points="692.26,-223.83 692.24,-234.42 698.86,-226.15 692.26,-223.83"/>
</g>
<!-- Node14 -->
<g id="node14" class="node">
<title>Node14</title>
<g id="a_node14"><a xlink:href="point__group_8h.html" target="_top" xlink:title=" ">
<polygon fill="none" stroke="black" points="567.5,-156.5 567.5,-197.5 695.5,-197.5 695.5,-156.5 567.5,-156.5"/>
<text text-anchor="start" x="575.5" y="-185.5" font-family="Helvetica,sans-Serif" font-size="10.00">/home/runner/work/occ</text>
<text text-anchor="start" x="575.5" y="-174.5" font-family="Helvetica,sans-Serif" font-size="10.00">/occ/include/occ/core</text>
<text text-anchor="middle" x="631.5" y="-163.5" font-family="Helvetica,sans-Serif" font-size="10.00">/point_group.h</text>
</a>
</g>
</g>
<!-- Node2&#45;&gt;Node14 -->
<g id="edge18" class="edge">
<title>Node2&#45;&gt;Node14</title>
<path fill="none" stroke="midnightblue" d="M665.64,-226.05C658.9,-216.57 651.53,-206.18 645.36,-197.51"/>
<polygon fill="midnightblue" stroke="midnightblue" points="662.95,-228.3 671.59,-234.43 668.65,-224.25 662.95,-228.3"/>
</g>
<!-- Node2&#45;&gt;Node15 -->
<g id="edge20" class="edge">
<title>Node2&#45;&gt;Node15</title>
<path fill="none" stroke="midnightblue" d="M611.37,-233.66C568.19,-221.81 514.27,-207.02 472.88,-195.66"/>
<polygon fill="midnightblue" stroke="midnightblue" points="610.68,-237.1 621.25,-236.37 612.54,-230.35 610.68,-237.1"/>
</g>
<!-- Node2&#45;&gt;Node19 -->
<g id="edge25" class="edge">
<title>Node2&#45;&gt;Node19</title>
<path fill="none" stroke="midnightblue" d="M759.63,-234.67C760.93,-234.43 762.22,-234.21 763.5,-234 968.44,-200.07 1024.36,-230.72 1229.5,-198 1239.2,-196.45 1249.43,-194.35 1259.26,-192.08"/>
<polygon fill="midnightblue" stroke="midnightblue" points="758.73,-231.28 749.59,-236.63 760.07,-238.15 758.73,-231.28"/>
</g>
<!-- Node3&#45;&gt;Node4 -->
<g id="edge3" class="edge">
<title>Node3&#45;&gt;Node4</title>
<path fill="none" stroke="midnightblue" d="M763.94,-152.89C734.6,-142.22 700.15,-129.69 672.14,-119.51"/>
<polygon fill="midnightblue" stroke="midnightblue" points="763.08,-156.3 773.68,-156.43 765.48,-149.72 763.08,-156.3"/>
</g>
<!-- Node8 -->
<g id="node8" class="node">
<title>Node8</title>
<g id="a_node8"><a xlink:href="pair__energy_8h.html" target="_top" xlink:title=" ">
<polygon fill="none" stroke="black" points="49.5,-0.5 49.5,-41.5 177.5,-41.5 177.5,-0.5 49.5,-0.5"/>
<text text-anchor="start" x="57.5" y="-29.5" font-family="Helvetica,sans-Serif" font-size="10.00">/home/runner/work/occ</text>
<text text-anchor="start" x="57.5" y="-18.5" font-family="Helvetica,sans-Serif" font-size="10.00">/occ/include/occ/main</text>
<text text-anchor="middle" x="113.5" y="-7.5" font-family="Helvetica,sans-Serif" font-size="10.00">/pair_energy.h</text>
</a>
</g>
</g>
<!-- Node3&#45;&gt;Node8 -->
<g id="edge14" class="edge">
<title>Node3&#45;&gt;Node8</title>
<path fill="none" stroke="midnightblue" d="M753.28,-163.01C675.97,-149.22 563.48,-128.27 544.5,-120 515.32,-107.28 516.09,-89.71 486.5,-78 369.02,-31.5 328.99,-63.58 204.5,-42 195.89,-40.51 186.87,-38.76 177.99,-36.92"/>
<polygon fill="midnightblue" stroke="midnightblue" points="753.01,-166.52 763.47,-164.83 754.24,-159.63 753.01,-166.52"/>
</g>
<!-- Node3&#45;&gt;Node9 -->
<g id="edge15" class="edge">
<title>Node3&#45;&gt;Node9</title>
<path fill="none" stroke="midnightblue" d="M901.66,-171.16C978.14,-164.6 1090.36,-150.06 1120.5,-120 1140.99,-99.56 1142.83,-64.08 1141.64,-41.89"/>
<polygon fill="midnightblue" stroke="midnightblue" points="901.26,-167.69 891.58,-172 901.84,-174.66 901.26,-167.69"/>
</g>
<!-- Node3&#45;&gt;Node10 -->
<g id="edge16" class="edge">
<title>Node3&#45;&gt;Node10</title>
<path fill="none" stroke="midnightblue" d="M892.43,-151.9C908.1,-143.67 923.71,-133.14 935.5,-120 955.61,-97.59 965.58,-63.35 970.13,-41.85"/>
<polygon fill="midnightblue" stroke="midnightblue" points="890.62,-148.89 883.22,-156.47 893.74,-155.16 890.62,-148.89"/>
</g>
<!-- Node3&#45;&gt;Node11 -->
<g id="edge17" class="edge">
<title>Node3&#45;&gt;Node11</title>
<path fill="none" stroke="midnightblue" d="M790.56,-149.68C781.66,-141.31 773.33,-131.25 768.5,-120 761.13,-102.85 761.13,-95.15 768.5,-78 774.69,-63.6 786.6,-51.16 798.11,-41.68"/>
<polygon fill="midnightblue" stroke="midnightblue" points="788.29,-152.35 798.11,-156.32 792.91,-147.09 788.29,-152.35"/>
</g>
<!-- Node12 -->
<g id="node12" class="node">
<title>Node12</title>
<g id="a_node12"><a xlink:href="coulomb_8h.html" target="_top" xlink:title=" ">
<polygon fill="none" stroke="black" points="777,-78.5 777,-119.5 926,-119.5 926,-78.5 777,-78.5"/>
<text text-anchor="start" x="785" y="-107.5" font-family="Helvetica,sans-Serif" font-size="10.00">/home/runner/work/occ</text>
<text text-anchor="start" x="785" y="-96.5" font-family="Helvetica,sans-Serif" font-size="10.00">/occ/include/occ/interaction</text>
<text text-anchor="middle" x="851.5" y="-85.5" font-family="Helvetica,sans-Serif" font-size="10.00">/coulomb.h</text>
</a>
</g>
</g>
<!-- Node3&#45;&gt;Node12 -->
<g id="edge12" class="edge">
<title>Node3&#45;&gt;Node12</title>
<path fill="none" stroke="midnightblue" d="M836.7,-146.88C839.59,-137.72 842.71,-127.83 845.34,-119.51"/>
<polygon fill="midnightblue" stroke="midnightblue" points="833.35,-145.84 833.68,-156.43 840.03,-147.95 833.35,-145.84"/>
</g>
<!-- Node13 -->
<g id="node13" class="node">
<title>Node13</title>
<g id="a_node13"><a xlink:href="core__json_8h.html" target="_top" xlink:title=" ">
<polygon fill="none" stroke="black" points="981.5,-78.5 981.5,-119.5 1111.5,-119.5 1111.5,-78.5 981.5,-78.5"/>
<text text-anchor="start" x="989.5" y="-107.5" font-family="Helvetica,sans-Serif" font-size="10.00">/home/runner/work/occ</text>
<text text-anchor="start" x="989.5" y="-96.5" font-family="Helvetica,sans-Serif" font-size="10.00">/occ/include/occ/io/core</text>
<text text-anchor="middle" x="1046.5" y="-85.5" font-family="Helvetica,sans-Serif" font-size="10.00">_json.h</text>
</a>
</g>
</g>
<!-- Node3&#45;&gt;Node13 -->
<g id="edge13" class="edge">
<title>Node3&#45;&gt;Node13</title>
<path fill="none" stroke="midnightblue" d="M893.7,-153.03C924.53,-142.33 960.82,-129.73 990.29,-119.51"/>
<polygon fill="midnightblue" stroke="midnightblue" points="892.2,-149.84 883.9,-156.43 894.49,-156.46 892.2,-149.84"/>
</g>
<!-- Node5 -->
<g id="node5" class="node">
<title>Node5</title>
<g id="a_node5"><a xlink:href="cifparser_8h.html" target="_top" xlink:title=" ">
<polygon fill="none" stroke="black" points="383.5,-6 383.5,-36 543.5,-36 543.5,-6 383.5,-6"/>
<text text-anchor="start" x="391.5" y="-24" font-family="Helvetica,sans-Serif" font-size="10.00">/home/runner/work/occ</text>
<text text-anchor="middle" x="463.5" y="-13" font-family="Helvetica,sans-Serif" font-size="10.00">/occ/include/occ/io/cifparser.h</text>
</a>
</g>
</g>
<!-- Node4&#45;&gt;Node5 -->
<g id="edge4" class="edge">
<title>Node4&#45;&gt;Node5</title>
<path fill="none" stroke="midnightblue" d="M569.49,-73.97C544.17,-61.55 514.13,-46.83 492.51,-36.23"/>
<polygon fill="midnightblue" stroke="midnightblue" points="568.06,-77.17 578.58,-78.43 571.15,-70.88 568.06,-77.17"/>
</g>
<!-- Node6 -->
<g id="node6" class="node">
<title>Node6</title>
<g id="a_node6"><a xlink:href="crystalgrower_8h.html" target="_top" xlink:title=" ">
<polygon fill="none" stroke="black" points="561.5,-6 561.5,-36 745.5,-36 745.5,-6 561.5,-6"/>
<text text-anchor="start" x="569.5" y="-24" font-family="Helvetica,sans-Serif" font-size="10.00">/home/runner/work/occ</text>
<text text-anchor="middle" x="653.5" y="-13" font-family="Helvetica,sans-Serif" font-size="10.00">/occ/include/occ/io/crystalgrower.h</text>
</a>
</g>
</g>
<!-- Node4&#45;&gt;Node6 -->
<g id="edge5" class="edge">
<title>Node4&#45;&gt;Node6</title>
<path fill="none" stroke="midnightblue" d="M631.72,-69.3C636.92,-58 642.67,-45.52 646.95,-36.23"/>
<polygon fill="midnightblue" stroke="midnightblue" points="628.52,-67.88 627.51,-78.43 634.88,-70.81 628.52,-67.88"/>
</g>
<!-- Node7 -->
<g id="node7" class="node">
<title>Node7</title>
<g id="a_node7"><a xlink:href="kmcpp_8h.html" target="_top" xlink:title=" ">
<polygon fill="none" stroke="black" points="214,-6 214,-36 365,-36 365,-6 214,-6"/>
<text text-anchor="start" x="222" y="-24" font-family="Helvetica,sans-Serif" font-size="10.00">/home/runner/work/occ</text>
<text text-anchor="middle" x="289.5" y="-13" font-family="Helvetica,sans-Serif" font-size="10.00">/occ/include/occ/io/kmcpp.h</text>
</a>
</g>
</g>
<!-- Node4&#45;&gt;Node7 -->
<g id="edge6" class="edge">
<title>Node4&#45;&gt;Node7</title>
<path fill="none" stroke="midnightblue" d="M543.37,-78.92C542.07,-78.61 540.78,-78.3 539.5,-78 466.44,-60.79 447.7,-58.6 374.5,-42 366.07,-40.09 357.18,-38.04 348.46,-36"/>
<polygon fill="midnightblue" stroke="midnightblue" points="542.9,-82.4 553.44,-81.35 544.54,-75.6 542.9,-82.4"/>
</g>
<!-- Node4&#45;&gt;Node8 -->
<g id="edge7" class="edge">
<title>Node4&#45;&gt;Node8</title>
<path fill="none" stroke="midnightblue" d="M543.29,-78.7C542.02,-78.46 540.75,-78.22 539.5,-78 392.11,-51.56 352.29,-66.11 204.5,-42 195.88,-40.59 186.85,-38.89 177.96,-37.08"/>
<polygon fill="midnightblue" stroke="midnightblue" points="542.63,-82.14 553.13,-80.7 544.02,-75.28 542.63,-82.14"/>
</g>
<!-- Node4&#45;&gt;Node9 -->
<g id="edge9" class="edge">
<title>Node4&#45;&gt;Node9</title>
<path fill="none" stroke="midnightblue" d="M693.89,-87.89C717.75,-84.71 744.23,-81.19 768.5,-78 892.03,-61.77 923.72,-63.12 1046.5,-42 1055.86,-40.39 1065.71,-38.5 1075.35,-36.52"/>
<polygon fill="midnightblue" stroke="midnightblue" points="693.28,-84.44 683.84,-89.23 694.21,-91.38 693.28,-84.44"/>
</g>
<!-- Node4&#45;&gt;Node10 -->
<g id="edge10" class="edge">
<title>Node4&#45;&gt;Node10</title>
<path fill="none" stroke="midnightblue" d="M693.76,-84.57C750.74,-74.03 830.84,-58.44 900.5,-42 903.44,-41.31 906.44,-40.58 909.47,-39.82"/>
<polygon fill="midnightblue" stroke="midnightblue" points="692.95,-81.16 683.75,-86.41 694.22,-88.04 692.95,-81.16"/>
</g>
<!-- Node4&#45;&gt;Node11 -->
<g id="edge11" class="edge">
<title>Node4&#45;&gt;Node11</title>
<path fill="none" stroke="midnightblue" d="M682.06,-74.89C711.4,-64.22 745.85,-51.69 773.86,-41.51"/>
<polygon fill="midnightblue" stroke="midnightblue" points="680.52,-71.72 672.32,-78.43 682.92,-78.3 680.52,-71.72"/>
</g>
<!-- Node8&#45;&gt;Node8 -->
<g id="edge8" class="edge">
<title>Node8&#45;&gt;Node8</title>
<path fill="none" stroke="midnightblue" d="M187.65,-31.45C192.54,-29.02 195.5,-25.54 195.5,-21 195.5,-13.92 188.29,-9.41 177.79,-7.47"/>
<polygon fill="midnightblue" stroke="midnightblue" points="186.29,-28.21 177.79,-34.53 188.38,-34.89 186.29,-28.21"/>
</g>
<!-- Node15&#45;&gt;Node8 -->
<g id="edge22" class="edge">
<title>Node15&#45;&gt;Node8</title>
<path fill="none" stroke="midnightblue" d="M446.05,-149.79C455.1,-141.41 463.58,-131.33 468.5,-120 475.94,-102.88 480.78,-92.06 468.5,-78 429.56,-33.39 262.8,-52.36 204.5,-42 195.74,-40.44 186.54,-38.63 177.5,-36.75"/>
<polygon fill="midnightblue" stroke="midnightblue" points="443.66,-147.23 438.37,-156.42 448.23,-152.53 443.66,-147.23"/>
</g>
<!-- Node15&#45;&gt;Node16 -->
<g id="edge21" class="edge">
<title>Node15&#45;&gt;Node16</title>
<path fill="none" stroke="midnightblue" d="M334.48,-158.69C276.66,-145.17 197.35,-126.62 143.46,-114.02"/>
<polygon fill="midnightblue" stroke="midnightblue" points="333.76,-162.12 344.29,-160.98 335.35,-155.3 333.76,-162.12"/>
</g>
<!-- Node17 -->
<g id="node17" class="node">
<title>Node17</title>
<g id="a_node17"><a xlink:href="properties_8h.html" target="_top" xlink:title=" ">
<polygon fill="none" stroke="black" points="331.5,-78.5 331.5,-119.5 459.5,-119.5 459.5,-78.5 331.5,-78.5"/>
<text text-anchor="start" x="339.5" y="-107.5" font-family="Helvetica,sans-Serif" font-size="10.00">/home/runner/work/occ</text>
<text text-anchor="start" x="339.5" y="-96.5" font-family="Helvetica,sans-Serif" font-size="10.00">/occ/include/occ/main</text>
<text text-anchor="middle" x="395.5" y="-85.5" font-family="Helvetica,sans-Serif" font-size="10.00">/properties.h</text>
</a>
</g>
</g>
<!-- Node15&#45;&gt;Node17 -->
<g id="edge23" class="edge">
<title>Node15&#45;&gt;Node17</title>
<path fill="none" stroke="midnightblue" d="M403.42,-146.3C401.88,-137.3 400.23,-127.65 398.84,-119.51"/>
<polygon fill="midnightblue" stroke="midnightblue" points="400.02,-147.16 405.15,-156.43 406.92,-145.98 400.02,-147.16"/>
</g>
<!-- Node18 -->
<g id="node18" class="node">
<title>Node18</title>
<g id="a_node18"><a xlink:href="single__point_8h.html" target="_top" xlink:title=" ">
<polygon fill="none" stroke="black" points="185.5,-78.5 185.5,-119.5 313.5,-119.5 313.5,-78.5 185.5,-78.5"/>
<text text-anchor="start" x="193.5" y="-107.5" font-family="Helvetica,sans-Serif" font-size="10.00">/home/runner/work/occ</text>
<text text-anchor="start" x="193.5" y="-96.5" font-family="Helvetica,sans-Serif" font-size="10.00">/occ/include/occ/main</text>
<text text-anchor="middle" x="249.5" y="-85.5" font-family="Helvetica,sans-Serif" font-size="10.00">/single_point.h</text>
</a>
</g>
</g>
<!-- Node15&#45;&gt;Node18 -->
<g id="edge24" class="edge">
<title>Node15&#45;&gt;Node18</title>
<path fill="none" stroke="midnightblue" d="M358.39,-152.05C336.46,-141.57 311.06,-129.42 290.31,-119.51"/>
<polygon fill="midnightblue" stroke="midnightblue" points="357.02,-155.27 367.55,-156.43 360.04,-148.96 357.02,-155.27"/>
</g>
<!-- Node20&#45;&gt;Node4 -->
<g id="edge30" class="edge">
<title>Node20&#45;&gt;Node4</title>
<path fill="none" stroke="midnightblue" d="M511.04,-224.98C518.75,-204.35 531.03,-176.75 547.5,-156 558.63,-141.98 573.92,-129.34 587.47,-119.64"/>
<polygon fill="midnightblue" stroke="midnightblue" points="507.72,-223.89 507.63,-234.48 514.3,-226.25 507.72,-223.89"/>
</g>
</g>
</svg>
