<?xml version="1.0" encoding="UTF-8" standalone="no"?>
<!DOCTYPE svg PUBLIC "-//W3C//DTD SVG 1.1//EN"
 "http://www.w3.org/Graphics/SVG/1.1/DTD/svg11.dtd">
<!-- Generated by graphviz version 2.43.0 (0)
 -->
<!-- Title: /home/runner/work/occ/occ/include/occ/core/energy_components.h Pages: 1 -->
<svg width="498pt" height="195pt"
 viewBox="0.00 0.00 497.50 195.00" xmlns="http://www.w3.org/2000/svg" xmlns:xlink="http://www.w3.org/1999/xlink">
<g id="graph0" class="graph" transform="scale(1 1) rotate(0) translate(4 191)">
<title>/home/runner/work/occ/occ/include/occ/core/energy_components.h</title>
<!-- Node1 -->
<g id="node1" class="node">
<title>Node1</title>
<g id="a_node1"><a xlink:title=" ">
<polygon fill="#bfbfbf" stroke="black" points="128,-145.5 128,-186.5 256,-186.5 256,-145.5 128,-145.5"/>
<text text-anchor="start" x="136" y="-174.5" font-family="Helvetica,sans-Serif" font-size="10.00">/home/runner/work/occ</text>
<text text-anchor="start" x="136" y="-163.5" font-family="Helvetica,sans-Serif" font-size="10.00">/occ/include/occ/core</text>
<text text-anchor="middle" x="192" y="-152.5" font-family="Helvetica,sans-Serif" font-size="10.00">/energy_components.h</text>
</a>
</g>
</g>
<!-- Node2 -->
<g id="node2" class="node">
<title>Node2</title>
<g id="a_node2"><a xlink:href="dft_8h.html" target="_top" xlink:title=" ">
<polygon fill="none" stroke="black" points="0,-0.5 0,-30.5 134,-30.5 134,-0.5 0,-0.5"/>
<text text-anchor="start" x="8" y="-18.5" font-family="Helvetica,sans-Serif" font-size="10.00">/home/runner/work/occ</text>
<text text-anchor="middle" x="67" y="-7.5" font-family="Helvetica,sans-Serif" font-size="10.00">/occ/include/occ/dft/dft.h</text>
</a>
</g>
</g>
<!-- Node1&#45;&gt;Node2 -->
<g id="edge1" class="edge">
<title>Node1&#45;&gt;Node2</title>
<path fill="none" stroke="midnightblue" d="M117.98,-156.31C88.37,-148.78 57.05,-134.83 39,-109 21.99,-84.66 41.89,-49.76 55.79,-30.54"/>
<polygon fill="midnightblue" stroke="midnightblue" points="117.41,-159.77 127.94,-158.62 118.99,-152.95 117.41,-159.77"/>
</g>
<!-- Node3 -->
<g id="node3" class="node">
<title>Node3</title>
<g id="a_node3"><a xlink:href="hf_8h.html" target="_top" xlink:title=" ">
<polygon fill="none" stroke="black" points="48,-73 48,-103 182,-103 182,-73 48,-73"/>
<text text-anchor="start" x="56" y="-91" font-family="Helvetica,sans-Serif" font-size="10.00">/home/runner/work/occ</text>
<text text-anchor="middle" x="115" y="-80" font-family="Helvetica,sans-Serif" font-size="10.00">/occ/include/occ/qm/hf.h</text>
</a>
</g>
</g>
<!-- Node1&#45;&gt;Node3 -->
<g id="edge2" class="edge">
<title>Node1&#45;&gt;Node3</title>
<path fill="none" stroke="midnightblue" d="M164.97,-138.32C153,-126.51 139.4,-113.08 129.41,-103.23"/>
<polygon fill="midnightblue" stroke="midnightblue" points="162.59,-140.89 172.17,-145.43 167.51,-135.91 162.59,-140.89"/>
</g>
<!-- Node4 -->
<g id="node4" class="node">
<title>Node4</title>
<g id="a_node4"><a xlink:href="scf_8h.html" target="_top" xlink:title=" ">
<polygon fill="none" stroke="black" points="200,-73 200,-103 338,-103 338,-73 200,-73"/>
<text text-anchor="start" x="208" y="-91" font-family="Helvetica,sans-Serif" font-size="10.00">/home/runner/work/occ</text>
<text text-anchor="middle" x="269" y="-80" font-family="Helvetica,sans-Serif" font-size="10.00">/occ/include/occ/qm/scf.h</text>
</a>
</g>
</g>
<!-- Node1&#45;&gt;Node4 -->
<g id="edge4" class="edge">
<title>Node1&#45;&gt;Node4</title>
<path fill="none" stroke="midnightblue" d="M219.03,-138.32C231,-126.51 244.6,-113.08 254.59,-103.23"/>
<polygon fill="midnightblue" stroke="midnightblue" points="216.49,-135.91 211.83,-145.43 221.41,-140.89 216.49,-135.91"/>
</g>
<!-- Node5 -->
<g id="node5" class="node">
<title>Node5</title>
<g id="a_node5"><a xlink:href="solvation__correction_8h.html" target="_top" xlink:title=" ">
<polygon fill="none" stroke="black" points="356.5,-67.5 356.5,-108.5 489.5,-108.5 489.5,-67.5 356.5,-67.5"/>
<text text-anchor="start" x="364.5" y="-96.5" font-family="Helvetica,sans-Serif" font-size="10.00">/home/runner/work/occ</text>
<text text-anchor="start" x="364.5" y="-85.5" font-family="Helvetica,sans-Serif" font-size="10.00">/occ/include/occ/solvent</text>
<text text-anchor="middle" x="423" y="-74.5" font-family="Helvetica,sans-Serif" font-size="10.00">/solvation_correction.h</text>
</a>
</g>
</g>
<!-- Node1&#45;&gt;Node5 -->
<g id="edge5" class="edge">
<title>Node1&#45;&gt;Node5</title>
<path fill="none" stroke="midnightblue" d="M261.41,-142.17C294.02,-131.44 332.49,-118.78 363.71,-108.51"/>
<polygon fill="midnightblue" stroke="midnightblue" points="259.89,-138.98 251.49,-145.43 262.08,-145.63 259.89,-138.98"/>
</g>
<!-- Node3&#45;&gt;Node2 -->
<g id="edge3" class="edge">
<title>Node3&#45;&gt;Node2</title>
<path fill="none" stroke="midnightblue" d="M99.6,-64.39C92.08,-53.34 83.27,-40.39 76.7,-30.75"/>
<polygon fill="midnightblue" stroke="midnightblue" points="96.77,-66.44 105.29,-72.73 102.55,-62.5 96.77,-66.44"/>
</g>
</g>
</svg>
