<?xml version="1.0" encoding="UTF-8" standalone="no"?>
<!DOCTYPE svg PUBLIC "-//W3C//DTD SVG 1.1//EN"
 "http://www.w3.org/Graphics/SVG/1.1/DTD/svg11.dtd">
<!-- Generated by graphviz version 2.43.0 (0)
 -->
<!-- Title: /home/runner/work/occ/occ/include/occ/core/energy_components.h Pages: 1 -->
<svg width="794pt" height="423pt"
 viewBox="0.00 0.00 794.00 423.00" xmlns="http://www.w3.org/2000/svg" xmlns:xlink="http://www.w3.org/1999/xlink">
<g id="graph0" class="graph" transform="scale(1 1) rotate(0) translate(4 419)">
<title>/home/runner/work/occ/occ/include/occ/core/energy_components.h</title>
<!-- Node1 -->
<g id="Node000001" class="node">
<title>Node1</title>
<g id="a_Node000001"><a xlink:title=" ">
<polygon fill="#999999" stroke="#666666" points="597.5,-415 469.5,-415 469.5,-374 597.5,-374 597.5,-415"/>
<text text-anchor="start" x="477.5" y="-403" font-family="Helvetica,sans-Serif" font-size="10.00">/home/runner/work/occ</text>
<text text-anchor="start" x="477.5" y="-392" font-family="Helvetica,sans-Serif" font-size="10.00">/occ/include/occ/core</text>
<text text-anchor="middle" x="533.5" y="-381" font-family="Helvetica,sans-Serif" font-size="10.00">/energy_components.h</text>
</a>
</g>
</g>
<!-- Node2 -->
<g id="Node000002" class="node">
<title>Node2</title>
<g id="a_Node000002"><a xlink:href="dft_8h.html" target="_top" xlink:title=" ">
<polygon fill="white" stroke="#666666" points="528.5,-189.5 394.5,-189.5 394.5,-159.5 528.5,-159.5 528.5,-189.5"/>
<text text-anchor="start" x="402.5" y="-177.5" font-family="Helvetica,sans-Serif" font-size="10.00">/home/runner/work/occ</text>
<text text-anchor="middle" x="461.5" y="-166.5" font-family="Helvetica,sans-Serif" font-size="10.00">/occ/include/occ/dft/dft.h</text>
</a>
</g>
</g>
<!-- Node1&#45;&gt;Node2 -->
<g id="edge1_Node000001_Node000002" class="edge">
<title>Node1&#45;&gt;Node2</title>
<g id="a_edge1_Node000001_Node000002"><a xlink:title=" ">
<path fill="none" stroke="#63b8ff" d="M529.39,-363.95C526.28,-344.63 521.38,-319 514.5,-297 501.94,-256.8 480.25,-211.99 468.91,-189.7"/>
<polygon fill="#63b8ff" stroke="#63b8ff" points="525.95,-364.62 530.93,-373.97 532.87,-363.55 525.95,-364.62"/>
</a>
</g>
</g>
<!-- Node6 -->
<g id="Node000006" class="node">
<title>Node6</title>
<g id="a_Node000006"><a xlink:href="hf_8h.html" target="_top" xlink:title=" ">
<polygon fill="white" stroke="#666666" points="433.5,-261 299.5,-261 299.5,-231 433.5,-231 433.5,-261"/>
<text text-anchor="start" x="307.5" y="-249" font-family="Helvetica,sans-Serif" font-size="10.00">/home/runner/work/occ</text>
<text text-anchor="middle" x="366.5" y="-238" font-family="Helvetica,sans-Serif" font-size="10.00">/occ/include/occ/qm/hf.h</text>
</a>
</g>
</g>
<!-- Node1&#45;&gt;Node6 -->
<g id="edge5_Node000001_Node000006" class="edge">
<title>Node1&#45;&gt;Node6</title>
<g id="a_edge5_Node000001_Node000006"><a xlink:title=" ">
<path fill="none" stroke="#63b8ff" d="M459.29,-388.12C425.21,-381.5 387.73,-367.43 366.5,-338 350.14,-315.32 356.4,-280.5 361.83,-261.17"/>
<polygon fill="#63b8ff" stroke="#63b8ff" points="458.81,-391.59 469.26,-389.88 460.02,-384.7 458.81,-391.59"/>
</a>
</g>
</g>
<!-- Node12 -->
<g id="Node000012" class="node">
<title>Node12</title>
<g id="a_Node000012"><a xlink:href="scf_8h.html" target="_top" xlink:title=" ">
<polygon fill="white" stroke="#666666" points="699.5,-261 561.5,-261 561.5,-231 699.5,-231 699.5,-261"/>
<text text-anchor="start" x="569.5" y="-249" font-family="Helvetica,sans-Serif" font-size="10.00">/home/runner/work/occ</text>
<text text-anchor="middle" x="630.5" y="-238" font-family="Helvetica,sans-Serif" font-size="10.00">/occ/include/occ/qm/scf.h</text>
</a>
</g>
</g>
<!-- Node1&#45;&gt;Node12 -->
<g id="edge13_Node000001_Node000012" class="edge">
<title>Node1&#45;&gt;Node12</title>
<g id="a_edge13_Node000001_Node000012"><a xlink:title=" ">
<path fill="none" stroke="#63b8ff" d="M552.33,-365.06C572.98,-333.88 605.28,-285.09 621.11,-261.18"/>
<polygon fill="#63b8ff" stroke="#63b8ff" points="549.18,-363.47 546.58,-373.74 555.02,-367.34 549.18,-363.47"/>
</a>
</g>
</g>
<!-- Node14 -->
<g id="Node000014" class="node">
<title>Node14</title>
<g id="a_Node000014"><a xlink:href="scf__method_8h.html" target="_top" xlink:title=" ">
<polygon fill="white" stroke="#666666" points="505.5,-338 375.5,-338 375.5,-297 505.5,-297 505.5,-338"/>
<text text-anchor="start" x="383.5" y="-326" font-family="Helvetica,sans-Serif" font-size="10.00">/home/runner/work/occ</text>
<text text-anchor="start" x="383.5" y="-315" font-family="Helvetica,sans-Serif" font-size="10.00">/occ/include/occ/qm/scf</text>
<text text-anchor="middle" x="440.5" y="-304" font-family="Helvetica,sans-Serif" font-size="10.00">_method.h</text>
</a>
</g>
</g>
<!-- Node1&#45;&gt;Node14 -->
<g id="edge15_Node000001_Node000014" class="edge">
<title>Node1&#45;&gt;Node14</title>
<g id="a_edge15_Node000001_Node000014"><a xlink:title=" ">
<path fill="none" stroke="#63b8ff" d="M501.07,-367.35C489.15,-357.73 475.86,-347.01 464.77,-338.07"/>
<polygon fill="#63b8ff" stroke="#63b8ff" points="499.08,-370.24 509.07,-373.79 503.48,-364.79 499.08,-370.24"/>
</a>
</g>
</g>
<!-- Node15 -->
<g id="Node000015" class="node">
<title>Node15</title>
<g id="a_Node000015"><a xlink:href="solvation__correction_8h.html" target="_top" xlink:title=" ">
<polygon fill="white" stroke="#666666" points="786,-338 653,-338 653,-297 786,-297 786,-338"/>
<text text-anchor="start" x="661" y="-326" font-family="Helvetica,sans-Serif" font-size="10.00">/home/runner/work/occ</text>
<text text-anchor="start" x="661" y="-315" font-family="Helvetica,sans-Serif" font-size="10.00">/occ/include/occ/solvent</text>
<text text-anchor="middle" x="719.5" y="-304" font-family="Helvetica,sans-Serif" font-size="10.00">/solvation_correction.h</text>
</a>
</g>
</g>
<!-- Node1&#45;&gt;Node15 -->
<g id="edge18_Node000001_Node000015" class="edge">
<title>Node1&#45;&gt;Node15</title>
<g id="a_edge18_Node000001_Node000015"><a xlink:title=" ">
<path fill="none" stroke="#63b8ff" d="M591.45,-370.13C617,-359.83 646.69,-347.86 671.04,-338.04"/>
<polygon fill="#63b8ff" stroke="#63b8ff" points="589.85,-367 581.88,-373.99 592.47,-373.5 589.85,-367"/>
</a>
</g>
</g>
<!-- Node3 -->
<g id="Node000003" class="node">
<title>Node3</title>
<g id="a_Node000003"><a xlink:href="smd__solvation_8h.html" target="_top" xlink:title=" ">
<polygon fill="white" stroke="#666666" points="681.5,-118 549.5,-118 549.5,-77 681.5,-77 681.5,-118"/>
<text text-anchor="start" x="557.5" y="-106" font-family="Helvetica,sans-Serif" font-size="10.00">/home/runner/work/occ</text>
<text text-anchor="start" x="557.5" y="-95" font-family="Helvetica,sans-Serif" font-size="10.00">/occ/include/occ/cg/smd</text>
<text text-anchor="middle" x="615.5" y="-84" font-family="Helvetica,sans-Serif" font-size="10.00">_solvation.h</text>
</a>
</g>
</g>
<!-- Node2&#45;&gt;Node3 -->
<g id="edge2_Node000002_Node000003" class="edge">
<title>Node2&#45;&gt;Node3</title>
<g id="a_edge2_Node000002_Node000003"><a xlink:title=" ">
<path fill="none" stroke="#63b8ff" d="M499.59,-154.95C522.62,-143.73 551.94,-129.45 575.33,-118.06"/>
<polygon fill="#63b8ff" stroke="#63b8ff" points="497.92,-151.87 490.47,-159.39 500.99,-158.16 497.92,-151.87"/>
</a>
</g>
</g>
<!-- Node5 -->
<g id="Node000005" class="node">
<title>Node5</title>
<g id="a_Node000005"><a xlink:href="point__functors_8h.html" target="_top" xlink:title=" ">
<polygon fill="white" stroke="#666666" points="517,-118 370,-118 370,-77 517,-77 517,-118"/>
<text text-anchor="start" x="378" y="-106" font-family="Helvetica,sans-Serif" font-size="10.00">/home/runner/work/occ</text>
<text text-anchor="start" x="378" y="-95" font-family="Helvetica,sans-Serif" font-size="10.00">/occ/include/occ/isosurface</text>
<text text-anchor="middle" x="443.5" y="-84" font-family="Helvetica,sans-Serif" font-size="10.00">/point_functors.h</text>
</a>
</g>
</g>
<!-- Node2&#45;&gt;Node5 -->
<g id="edge4_Node000002_Node000005" class="edge">
<title>Node2&#45;&gt;Node5</title>
<g id="a_edge4_Node000002_Node000005"><a xlink:title=" ">
<path fill="none" stroke="#63b8ff" d="M455.75,-149.55C453.33,-139.44 450.53,-127.81 448.23,-118.2"/>
<polygon fill="#63b8ff" stroke="#63b8ff" points="452.38,-150.49 458.11,-159.39 459.18,-148.85 452.38,-150.49"/>
</a>
</g>
</g>
<!-- Node4 -->
<g id="Node000004" class="node">
<title>Node4</title>
<g id="a_Node000004"><a xlink:href="crystal__growth_8h.html" target="_top" xlink:title=" ">
<polygon fill="white" stroke="#666666" points="679.5,-41 551.5,-41 551.5,0 679.5,0 679.5,-41"/>
<text text-anchor="start" x="559.5" y="-29" font-family="Helvetica,sans-Serif" font-size="10.00">/home/runner/work/occ</text>
<text text-anchor="start" x="559.5" y="-18" font-family="Helvetica,sans-Serif" font-size="10.00">/occ/include/occ/driver</text>
<text text-anchor="middle" x="615.5" y="-7" font-family="Helvetica,sans-Serif" font-size="10.00">/crystal_growth.h</text>
</a>
</g>
</g>
<!-- Node3&#45;&gt;Node4 -->
<g id="edge3_Node000003_Node000004" class="edge">
<title>Node3&#45;&gt;Node4</title>
<g id="a_edge3_Node000003_Node000004"><a xlink:title=" ">
<path fill="none" stroke="#63b8ff" d="M615.5,-66.69C615.5,-58.08 615.5,-48.9 615.5,-41.07"/>
<polygon fill="#63b8ff" stroke="#63b8ff" points="612,-66.79 615.5,-76.79 619,-66.79 612,-66.79"/>
</a>
</g>
</g>
<!-- Node6&#45;&gt;Node2 -->
<g id="edge6_Node000006_Node000002" class="edge">
<title>Node6&#45;&gt;Node2</title>
<g id="a_edge6_Node000006_Node000002"><a xlink:title=" ">
<path fill="none" stroke="#63b8ff" d="M393.92,-224.94C409.41,-213.6 428.4,-199.71 442.3,-189.54"/>
<polygon fill="#63b8ff" stroke="#63b8ff" points="391.73,-222.21 385.72,-230.94 395.86,-227.86 391.73,-222.21"/>
</a>
</g>
</g>
<!-- Node6&#45;&gt;Node5 -->
<g id="edge12_Node000006_Node000005" class="edge">
<title>Node6&#45;&gt;Node5</title>
<g id="a_edge12_Node000006_Node000005"><a xlink:title=" ">
<path fill="none" stroke="#63b8ff" d="M367.64,-220.83C369.43,-201.66 373.99,-174.74 385.5,-154 393.14,-140.23 405.34,-127.8 416.58,-118.22"/>
<polygon fill="#63b8ff" stroke="#63b8ff" points="364.15,-220.62 366.89,-230.85 371.13,-221.14 364.15,-220.62"/>
</a>
</g>
</g>
<!-- Node7 -->
<g id="Node000007" class="node">
<title>Node7</title>
<g id="a_Node000007"><a xlink:href="electric__potential_8h.html" target="_top" xlink:title=" ">
<polygon fill="white" stroke="#666666" points="338,-195 191,-195 191,-154 338,-154 338,-195"/>
<text text-anchor="start" x="199" y="-183" font-family="Helvetica,sans-Serif" font-size="10.00">/home/runner/work/occ</text>
<text text-anchor="start" x="199" y="-172" font-family="Helvetica,sans-Serif" font-size="10.00">/occ/include/occ/isosurface</text>
<text text-anchor="middle" x="264.5" y="-161" font-family="Helvetica,sans-Serif" font-size="10.00">/electric_potential.h</text>
</a>
</g>
</g>
<!-- Node6&#45;&gt;Node7 -->
<g id="edge7_Node000006_Node000007" class="edge">
<title>Node6&#45;&gt;Node7</title>
<g id="a_edge7_Node000006_Node000007"><a xlink:title=" ">
<path fill="none" stroke="#63b8ff" d="M337.21,-225.04C323.4,-215.63 306.97,-204.44 293.23,-195.07"/>
<polygon fill="#63b8ff" stroke="#63b8ff" points="335.62,-228.2 345.86,-230.94 339.57,-222.41 335.62,-228.2"/>
</a>
</g>
</g>
<!-- Node8 -->
<g id="Node000008" class="node">
<title>Node8</title>
<g id="a_Node000008"><a xlink:href="isosurface_8h.html" target="_top" xlink:title=" ">
<polygon fill="white" stroke="#666666" points="338,-118 191,-118 191,-77 338,-77 338,-118"/>
<text text-anchor="start" x="199" y="-106" font-family="Helvetica,sans-Serif" font-size="10.00">/home/runner/work/occ</text>
<text text-anchor="start" x="199" y="-95" font-family="Helvetica,sans-Serif" font-size="10.00">/occ/include/occ/isosurface</text>
<text text-anchor="middle" x="264.5" y="-84" font-family="Helvetica,sans-Serif" font-size="10.00">/isosurface.h</text>
</a>
</g>
</g>
<!-- Node7&#45;&gt;Node8 -->
<g id="edge8_Node000007_Node000008" class="edge">
<title>Node7&#45;&gt;Node8</title>
<g id="a_edge8_Node000007_Node000008"><a xlink:title=" ">
<path fill="none" stroke="#63b8ff" d="M264.5,-143.69C264.5,-135.08 264.5,-125.9 264.5,-118.07"/>
<polygon fill="#63b8ff" stroke="#63b8ff" points="261,-143.79 264.5,-153.79 268,-143.79 261,-143.79"/>
</a>
</g>
</g>
<!-- Node9 -->
<g id="Node000009" class="node">
<title>Node9</title>
<g id="a_Node000009"><a xlink:href="isosurface__json_8h.html" target="_top" xlink:title=" ">
<polygon fill="white" stroke="#666666" points="338,-41 191,-41 191,0 338,0 338,-41"/>
<text text-anchor="start" x="199" y="-29" font-family="Helvetica,sans-Serif" font-size="10.00">/home/runner/work/occ</text>
<text text-anchor="start" x="199" y="-18" font-family="Helvetica,sans-Serif" font-size="10.00">/occ/include/occ/isosurface</text>
<text text-anchor="middle" x="264.5" y="-7" font-family="Helvetica,sans-Serif" font-size="10.00">/isosurface_json.h</text>
</a>
</g>
</g>
<!-- Node8&#45;&gt;Node9 -->
<g id="edge9_Node000008_Node000009" class="edge">
<title>Node8&#45;&gt;Node9</title>
<g id="a_edge9_Node000008_Node000009"><a xlink:title=" ">
<path fill="none" stroke="#63b8ff" d="M264.5,-66.69C264.5,-58.08 264.5,-48.9 264.5,-41.07"/>
<polygon fill="#63b8ff" stroke="#63b8ff" points="261,-66.79 264.5,-76.79 268,-66.79 261,-66.79"/>
</a>
</g>
</g>
<!-- Node10 -->
<g id="Node000010" class="node">
<title>Node10</title>
<g id="a_Node000010"><a xlink:href="obj_8h.html" target="_top" xlink:title=" ">
<polygon fill="white" stroke="#666666" points="530.5,-35.5 356.5,-35.5 356.5,-5.5 530.5,-5.5 530.5,-35.5"/>
<text text-anchor="start" x="364.5" y="-23.5" font-family="Helvetica,sans-Serif" font-size="10.00">/home/runner/work/occ</text>
<text text-anchor="middle" x="443.5" y="-12.5" font-family="Helvetica,sans-Serif" font-size="10.00">/occ/include/occ/isosurface/obj.h</text>
</a>
</g>
</g>
<!-- Node8&#45;&gt;Node10 -->
<g id="edge10_Node000008_Node000010" class="edge">
<title>Node8&#45;&gt;Node10</title>
<g id="a_edge10_Node000008_Node000010"><a xlink:title=" ">
<path fill="none" stroke="#63b8ff" d="M320.37,-73.09C349.73,-60.79 384.72,-46.13 409.89,-35.58"/>
<polygon fill="#63b8ff" stroke="#63b8ff" points="318.93,-69.9 311.06,-76.99 321.64,-76.35 318.93,-69.9"/>
</a>
</g>
</g>
<!-- Node11 -->
<g id="Node000011" class="node">
<title>Node11</title>
<g id="a_Node000011"><a xlink:href="ply_8h.html" target="_top" xlink:title=" ">
<polygon fill="white" stroke="#666666" points="173,-35.5 0,-35.5 0,-5.5 173,-5.5 173,-35.5"/>
<text text-anchor="start" x="8" y="-23.5" font-family="Helvetica,sans-Serif" font-size="10.00">/home/runner/work/occ</text>
<text text-anchor="middle" x="86.5" y="-12.5" font-family="Helvetica,sans-Serif" font-size="10.00">/occ/include/occ/isosurface/ply.h</text>
</a>
</g>
</g>
<!-- Node8&#45;&gt;Node11 -->
<g id="edge11_Node000008_Node000011" class="edge">
<title>Node8&#45;&gt;Node11</title>
<g id="a_edge11_Node000008_Node000011"><a xlink:title=" ">
<path fill="none" stroke="#63b8ff" d="M208.94,-73.09C179.75,-60.79 144.95,-46.13 119.92,-35.58"/>
<polygon fill="#63b8ff" stroke="#63b8ff" points="207.62,-76.33 218.2,-76.99 210.34,-69.88 207.62,-76.33"/>
</a>
</g>
</g>
<!-- Node13 -->
<g id="Node000013" class="node">
<title>Node13</title>
<g id="a_Node000013"><a xlink:href="hessians_8h.html" target="_top" xlink:title=" ">
<polygon fill="white" stroke="#666666" points="714,-189.5 547,-189.5 547,-159.5 714,-159.5 714,-189.5"/>
<text text-anchor="start" x="555" y="-177.5" font-family="Helvetica,sans-Serif" font-size="10.00">/home/runner/work/occ</text>
<text text-anchor="middle" x="630.5" y="-166.5" font-family="Helvetica,sans-Serif" font-size="10.00">/occ/include/occ/qm/hessians.h</text>
</a>
</g>
</g>
<!-- Node12&#45;&gt;Node13 -->
<g id="edge14_Node000012_Node000013" class="edge">
<title>Node12&#45;&gt;Node13</title>
<g id="a_edge14_Node000012_Node000013"><a xlink:title=" ">
<path fill="none" stroke="#63b8ff" d="M630.5,-220.75C630.5,-210.31 630.5,-198.49 630.5,-189.54"/>
<polygon fill="#63b8ff" stroke="#63b8ff" points="627,-220.94 630.5,-230.94 634,-220.94 627,-220.94"/>
</a>
</g>
</g>
<!-- Node14&#45;&gt;Node6 -->
<g id="edge16_Node000014_Node000006" class="edge">
<title>Node14&#45;&gt;Node6</title>
<g id="a_edge16_Node000014_Node000006"><a xlink:title=" ">
<path fill="none" stroke="#63b8ff" d="M412.11,-289.83C401.66,-280.02 390.24,-269.3 381.45,-261.04"/>
<polygon fill="#63b8ff" stroke="#63b8ff" points="409.81,-292.48 419.49,-296.77 414.6,-287.37 409.81,-292.48"/>
</a>
</g>
</g>
<!-- Node14&#45;&gt;Node12 -->
<g id="edge17_Node000014_Node000012" class="edge">
<title>Node14&#45;&gt;Node12</title>
<g id="a_edge17_Node000014_Node000012"><a xlink:title=" ">
<path fill="none" stroke="#63b8ff" d="M503.68,-293.39C532.98,-282.67 566.85,-270.28 592.22,-261"/>
<polygon fill="#63b8ff" stroke="#63b8ff" points="502.12,-290.23 493.93,-296.96 504.53,-296.81 502.12,-290.23"/>
</a>
</g>
</g>
<!-- Node15&#45;&gt;Node3 -->
<g id="edge19_Node000015_Node000003" class="edge">
<title>Node15&#45;&gt;Node3</title>
<g id="a_edge19_Node000015_Node000003"><a xlink:title=" ">
<path fill="none" stroke="#63b8ff" d="M728.96,-286.8C738.07,-252.22 747.2,-194.64 722.5,-154 712.77,-138 696.77,-126.4 680.06,-118.08"/>
<polygon fill="#63b8ff" stroke="#63b8ff" points="725.5,-286.18 726.16,-296.75 732.24,-288.07 725.5,-286.18"/>
</a>
</g>
</g>
</g>
</svg>
