<?xml version="1.0" encoding="UTF-8" standalone="no"?>
<!DOCTYPE svg PUBLIC "-//W3C//DTD SVG 1.1//EN"
 "http://www.w3.org/Graphics/SVG/1.1/DTD/svg11.dtd">
<!-- Generated by graphviz version 2.43.0 (0)
 -->
<!-- Title: /home/runner/work/occ/occ/include/occ/core/energy_components.h Pages: 1 -->
<svg width="545pt" height="284pt"
 viewBox="0.00 0.00 544.50 284.00" xmlns="http://www.w3.org/2000/svg" xmlns:xlink="http://www.w3.org/1999/xlink">
<g id="graph0" class="graph" transform="scale(1 1) rotate(0) translate(4 280)">
<title>/home/runner/work/occ/occ/include/occ/core/energy_components.h</title>
<!-- Node1 -->
<g id="node1" class="node">
<title>Node1</title>
<g id="a_node1"><a xlink:title=" ">
<polygon fill="#bfbfbf" stroke="black" points="175,-234.5 175,-275.5 303,-275.5 303,-234.5 175,-234.5"/>
<text text-anchor="start" x="183" y="-263.5" font-family="Helvetica,sans-Serif" font-size="10.00">/home/runner/work/occ</text>
<text text-anchor="start" x="183" y="-252.5" font-family="Helvetica,sans-Serif" font-size="10.00">/occ/include/occ/core</text>
<text text-anchor="middle" x="239" y="-241.5" font-family="Helvetica,sans-Serif" font-size="10.00">/energy_components.h</text>
</a>
</g>
</g>
<!-- Node2 -->
<g id="node2" class="node">
<title>Node2</title>
<g id="a_node2"><a xlink:href="dft_8h.html" target="_top" xlink:title=" ">
<polygon fill="none" stroke="black" points="0,-84 0,-114 134,-114 134,-84 0,-84"/>
<text text-anchor="start" x="8" y="-102" font-family="Helvetica,sans-Serif" font-size="10.00">/home/runner/work/occ</text>
<text text-anchor="middle" x="67" y="-91" font-family="Helvetica,sans-Serif" font-size="10.00">/occ/include/occ/dft/dft.h</text>
</a>
</g>
</g>
<!-- Node1&#45;&gt;Node2 -->
<g id="edge1" class="edge">
<title>Node1&#45;&gt;Node2</title>
<path fill="none" stroke="midnightblue" d="M164.77,-242.86C136.27,-234.91 105.86,-221.3 86,-198 65.66,-174.12 64.58,-135.02 65.7,-114.16"/>
<polygon fill="midnightblue" stroke="midnightblue" points="164.19,-246.32 174.75,-245.44 165.95,-239.55 164.19,-246.32"/>
</g>
<!-- Node4 -->
<g id="node4" class="node">
<title>Node4</title>
<g id="a_node4"><a xlink:href="hf_8h.html" target="_top" xlink:title=" ">
<polygon fill="none" stroke="black" points="95,-162 95,-192 229,-192 229,-162 95,-162"/>
<text text-anchor="start" x="103" y="-180" font-family="Helvetica,sans-Serif" font-size="10.00">/home/runner/work/occ</text>
<text text-anchor="middle" x="162" y="-169" font-family="Helvetica,sans-Serif" font-size="10.00">/occ/include/occ/qm/hf.h</text>
</a>
</g>
</g>
<!-- Node1&#45;&gt;Node4 -->
<g id="edge3" class="edge">
<title>Node1&#45;&gt;Node4</title>
<path fill="none" stroke="midnightblue" d="M211.97,-227.32C200,-215.51 186.4,-202.08 176.41,-192.23"/>
<polygon fill="midnightblue" stroke="midnightblue" points="209.59,-229.89 219.17,-234.43 214.51,-224.91 209.59,-229.89"/>
</g>
<!-- Node6 -->
<g id="node6" class="node">
<title>Node6</title>
<g id="a_node6"><a xlink:href="scf_8h.html" target="_top" xlink:title=" ">
<polygon fill="none" stroke="black" points="247,-162 247,-192 385,-192 385,-162 247,-162"/>
<text text-anchor="start" x="255" y="-180" font-family="Helvetica,sans-Serif" font-size="10.00">/home/runner/work/occ</text>
<text text-anchor="middle" x="316" y="-169" font-family="Helvetica,sans-Serif" font-size="10.00">/occ/include/occ/qm/scf.h</text>
</a>
</g>
</g>
<!-- Node1&#45;&gt;Node6 -->
<g id="edge7" class="edge">
<title>Node1&#45;&gt;Node6</title>
<path fill="none" stroke="midnightblue" d="M266.03,-227.32C278,-215.51 291.6,-202.08 301.59,-192.23"/>
<polygon fill="midnightblue" stroke="midnightblue" points="263.49,-224.91 258.83,-234.43 268.41,-229.89 263.49,-224.91"/>
</g>
<!-- Node7 -->
<g id="node7" class="node">
<title>Node7</title>
<g id="a_node7"><a xlink:href="solvation__correction_8h.html" target="_top" xlink:title=" ">
<polygon fill="none" stroke="black" points="403.5,-156.5 403.5,-197.5 536.5,-197.5 536.5,-156.5 403.5,-156.5"/>
<text text-anchor="start" x="411.5" y="-185.5" font-family="Helvetica,sans-Serif" font-size="10.00">/home/runner/work/occ</text>
<text text-anchor="start" x="411.5" y="-174.5" font-family="Helvetica,sans-Serif" font-size="10.00">/occ/include/occ/solvent</text>
<text text-anchor="middle" x="470" y="-163.5" font-family="Helvetica,sans-Serif" font-size="10.00">/solvation_correction.h</text>
</a>
</g>
</g>
<!-- Node1&#45;&gt;Node7 -->
<g id="edge8" class="edge">
<title>Node1&#45;&gt;Node7</title>
<path fill="none" stroke="midnightblue" d="M308.41,-231.17C341.02,-220.44 379.49,-207.78 410.71,-197.51"/>
<polygon fill="midnightblue" stroke="midnightblue" points="306.89,-227.98 298.49,-234.43 309.08,-234.63 306.89,-227.98"/>
</g>
<!-- Node3 -->
<g id="node3" class="node">
<title>Node3</title>
<g id="a_node3"><a xlink:href="point__functors_8h.html" target="_top" xlink:title=" ">
<polygon fill="none" stroke="black" points="50,-0.5 50,-41.5 178,-41.5 178,-0.5 50,-0.5"/>
<text text-anchor="start" x="58" y="-29.5" font-family="Helvetica,sans-Serif" font-size="10.00">/home/runner/work/occ</text>
<text text-anchor="start" x="58" y="-18.5" font-family="Helvetica,sans-Serif" font-size="10.00">/occ/include/occ/main</text>
<text text-anchor="middle" x="114" y="-7.5" font-family="Helvetica,sans-Serif" font-size="10.00">/point_functors.h</text>
</a>
</g>
</g>
<!-- Node2&#45;&gt;Node3 -->
<g id="edge2" class="edge">
<title>Node2&#45;&gt;Node3</title>
<path fill="none" stroke="midnightblue" d="M81.25,-74.95C87.82,-64.33 95.54,-51.85 101.83,-41.68"/>
<polygon fill="midnightblue" stroke="midnightblue" points="78.12,-73.36 75.84,-83.7 84.08,-77.04 78.12,-73.36"/>
</g>
<!-- Node4&#45;&gt;Node2 -->
<g id="edge4" class="edge">
<title>Node4&#45;&gt;Node2</title>
<path fill="none" stroke="midnightblue" d="M136.07,-155.25C119.79,-142.23 99.23,-125.78 84.79,-114.23"/>
<polygon fill="midnightblue" stroke="midnightblue" points="134.14,-158.19 144.13,-161.7 138.51,-152.72 134.14,-158.19"/>
</g>
<!-- Node4&#45;&gt;Node3 -->
<g id="edge6" class="edge">
<title>Node4&#45;&gt;Node3</title>
<path fill="none" stroke="midnightblue" d="M159.23,-151.53C156.49,-131.39 151.45,-102.31 143,-78 138.61,-65.38 131.82,-52.07 125.91,-41.6"/>
<polygon fill="midnightblue" stroke="midnightblue" points="155.8,-152.23 160.53,-161.71 162.74,-151.35 155.8,-152.23"/>
</g>
<!-- Node5 -->
<g id="node5" class="node">
<title>Node5</title>
<g id="a_node5"><a xlink:href="isosurface_8h.html" target="_top" xlink:title=" ">
<polygon fill="none" stroke="black" points="190,-78.5 190,-119.5 318,-119.5 318,-78.5 190,-78.5"/>
<text text-anchor="start" x="198" y="-107.5" font-family="Helvetica,sans-Serif" font-size="10.00">/home/runner/work/occ</text>
<text text-anchor="start" x="198" y="-96.5" font-family="Helvetica,sans-Serif" font-size="10.00">/occ/include/occ/main</text>
<text text-anchor="middle" x="254" y="-85.5" font-family="Helvetica,sans-Serif" font-size="10.00">/isosurface.h</text>
</a>
</g>
</g>
<!-- Node4&#45;&gt;Node5 -->
<g id="edge5" class="edge">
<title>Node4&#45;&gt;Node5</title>
<path fill="none" stroke="midnightblue" d="M187.21,-155.18C200.61,-144.11 216.99,-130.57 230.18,-119.68"/>
<polygon fill="midnightblue" stroke="midnightblue" points="184.79,-152.64 179.3,-161.7 189.24,-158.03 184.79,-152.64"/>
</g>
</g>
</svg>
