<?xml version="1.0" encoding="UTF-8" standalone="no"?>
<!DOCTYPE svg PUBLIC "-//W3C//DTD SVG 1.1//EN"
 "http://www.w3.org/Graphics/SVG/1.1/DTD/svg11.dtd">
<!-- Generated by graphviz version 2.43.0 (0)
 -->
<!-- Title: /home/runner/work/occ/occ/include/occ/core/energy_components.h Pages: 1 -->
<svg width="545pt" height="351pt"
 viewBox="0.00 0.00 544.50 351.00" xmlns="http://www.w3.org/2000/svg" xmlns:xlink="http://www.w3.org/1999/xlink">
<g id="graph0" class="graph" transform="scale(1 1) rotate(0) translate(4 347)">
<title>/home/runner/work/occ/occ/include/occ/core/energy_components.h</title>
<!-- Node1 -->
<g id="node1" class="node">
<title>Node1</title>
<g id="a_node1"><a xlink:title=" ">
<polygon fill="#bfbfbf" stroke="black" points="201.5,-301.5 201.5,-342.5 329.5,-342.5 329.5,-301.5 201.5,-301.5"/>
<text text-anchor="start" x="209.5" y="-330.5" font-family="Helvetica,sans-Serif" font-size="10.00">/home/runner/work/occ</text>
<text text-anchor="start" x="209.5" y="-319.5" font-family="Helvetica,sans-Serif" font-size="10.00">/occ/include/occ/core</text>
<text text-anchor="middle" x="265.5" y="-308.5" font-family="Helvetica,sans-Serif" font-size="10.00">/energy_components.h</text>
</a>
</g>
</g>
<!-- Node2 -->
<g id="node2" class="node">
<title>Node2</title>
<g id="a_node2"><a xlink:href="dft_8h.html" target="_top" xlink:title=" ">
<polygon fill="none" stroke="black" points="151.5,-162 151.5,-192 285.5,-192 285.5,-162 151.5,-162"/>
<text text-anchor="start" x="159.5" y="-180" font-family="Helvetica,sans-Serif" font-size="10.00">/home/runner/work/occ</text>
<text text-anchor="middle" x="218.5" y="-169" font-family="Helvetica,sans-Serif" font-size="10.00">/occ/include/occ/dft/dft.h</text>
</a>
</g>
</g>
<!-- Node1&#45;&gt;Node2 -->
<g id="edge1" class="edge">
<title>Node1&#45;&gt;Node2</title>
<path fill="none" stroke="midnightblue" d="M249.5,-292.42C245.14,-283.8 240.74,-274.18 237.5,-265 228.7,-240.07 223.18,-209.63 220.48,-192.16"/>
<polygon fill="midnightblue" stroke="midnightblue" points="246.41,-294.07 254.14,-301.31 252.62,-290.83 246.41,-294.07"/>
</g>
<!-- Node6 -->
<g id="node6" class="node">
<title>Node6</title>
<g id="a_node6"><a xlink:href="hf_8h.html" target="_top" xlink:title=" ">
<polygon fill="none" stroke="black" points="246.5,-234.5 246.5,-264.5 380.5,-264.5 380.5,-234.5 246.5,-234.5"/>
<text text-anchor="start" x="254.5" y="-252.5" font-family="Helvetica,sans-Serif" font-size="10.00">/home/runner/work/occ</text>
<text text-anchor="middle" x="313.5" y="-241.5" font-family="Helvetica,sans-Serif" font-size="10.00">/occ/include/occ/qm/hf.h</text>
</a>
</g>
</g>
<!-- Node1&#45;&gt;Node6 -->
<g id="edge5" class="edge">
<title>Node1&#45;&gt;Node6</title>
<path fill="none" stroke="midnightblue" d="M284.67,-292.85C291.19,-283.26 298.22,-272.94 303.7,-264.89"/>
<polygon fill="midnightblue" stroke="midnightblue" points="281.61,-291.13 278.87,-301.36 287.39,-295.07 281.61,-291.13"/>
</g>
<!-- Node9 -->
<g id="node9" class="node">
<title>Node9</title>
<g id="a_node9"><a xlink:href="scf_8h.html" target="_top" xlink:title=" ">
<polygon fill="none" stroke="black" points="398.5,-234.5 398.5,-264.5 536.5,-264.5 536.5,-234.5 398.5,-234.5"/>
<text text-anchor="start" x="406.5" y="-252.5" font-family="Helvetica,sans-Serif" font-size="10.00">/home/runner/work/occ</text>
<text text-anchor="middle" x="467.5" y="-241.5" font-family="Helvetica,sans-Serif" font-size="10.00">/occ/include/occ/qm/scf.h</text>
</a>
</g>
</g>
<!-- Node1&#45;&gt;Node9 -->
<g id="edge10" class="edge">
<title>Node1&#45;&gt;Node9</title>
<path fill="none" stroke="midnightblue" d="M331.13,-298.1C362.75,-287.06 399.67,-274.17 427.11,-264.6"/>
<polygon fill="midnightblue" stroke="midnightblue" points="329.79,-294.86 321.5,-301.46 332.09,-301.46 329.79,-294.86"/>
</g>
<!-- Node10 -->
<g id="node10" class="node">
<title>Node10</title>
<g id="a_node10"><a xlink:href="solvation__correction_8h.html" target="_top" xlink:title=" ">
<polygon fill="none" stroke="black" points="0,-156.5 0,-197.5 133,-197.5 133,-156.5 0,-156.5"/>
<text text-anchor="start" x="8" y="-185.5" font-family="Helvetica,sans-Serif" font-size="10.00">/home/runner/work/occ</text>
<text text-anchor="start" x="8" y="-174.5" font-family="Helvetica,sans-Serif" font-size="10.00">/occ/include/occ/solvent</text>
<text text-anchor="middle" x="66.5" y="-163.5" font-family="Helvetica,sans-Serif" font-size="10.00">/solvation_correction.h</text>
</a>
</g>
</g>
<!-- Node1&#45;&gt;Node10 -->
<g id="edge11" class="edge">
<title>Node1&#45;&gt;Node10</title>
<path fill="none" stroke="midnightblue" d="M229.8,-295.35C190.76,-267.29 129.07,-222.96 93.74,-197.58"/>
<polygon fill="midnightblue" stroke="midnightblue" points="228.08,-298.42 238.25,-301.42 232.17,-292.74 228.08,-298.42"/>
</g>
<!-- Node3 -->
<g id="node3" class="node">
<title>Node3</title>
<g id="a_node3"><a xlink:href="smd__solvation_8h.html" target="_top" xlink:title=" ">
<polygon fill="none" stroke="black" points="22.5,-78.5 22.5,-119.5 154.5,-119.5 154.5,-78.5 22.5,-78.5"/>
<text text-anchor="start" x="30.5" y="-107.5" font-family="Helvetica,sans-Serif" font-size="10.00">/home/runner/work/occ</text>
<text text-anchor="start" x="30.5" y="-96.5" font-family="Helvetica,sans-Serif" font-size="10.00">/occ/include/occ/cg/smd</text>
<text text-anchor="middle" x="88.5" y="-85.5" font-family="Helvetica,sans-Serif" font-size="10.00">_solvation.h</text>
</a>
</g>
</g>
<!-- Node2&#45;&gt;Node3 -->
<g id="edge2" class="edge">
<title>Node2&#45;&gt;Node3</title>
<path fill="none" stroke="midnightblue" d="M185.58,-156.75C166.23,-145.44 141.82,-131.17 122.32,-119.77"/>
<polygon fill="midnightblue" stroke="midnightblue" points="183.95,-159.86 194.35,-161.88 187.49,-153.81 183.95,-159.86"/>
</g>
<!-- Node5 -->
<g id="node5" class="node">
<title>Node5</title>
<g id="a_node5"><a xlink:href="point__functors_8h.html" target="_top" xlink:title=" ">
<polygon fill="none" stroke="black" points="174.5,-78.5 174.5,-119.5 302.5,-119.5 302.5,-78.5 174.5,-78.5"/>
<text text-anchor="start" x="182.5" y="-107.5" font-family="Helvetica,sans-Serif" font-size="10.00">/home/runner/work/occ</text>
<text text-anchor="start" x="182.5" y="-96.5" font-family="Helvetica,sans-Serif" font-size="10.00">/occ/include/occ/main</text>
<text text-anchor="middle" x="238.5" y="-85.5" font-family="Helvetica,sans-Serif" font-size="10.00">/point_functors.h</text>
</a>
</g>
</g>
<!-- Node2&#45;&gt;Node5 -->
<g id="edge4" class="edge">
<title>Node2&#45;&gt;Node5</title>
<path fill="none" stroke="midnightblue" d="M224.82,-151.98C227.56,-141.58 230.72,-129.55 233.32,-119.68"/>
<polygon fill="midnightblue" stroke="midnightblue" points="221.42,-151.14 222.26,-161.7 228.19,-152.92 221.42,-151.14"/>
</g>
<!-- Node4 -->
<g id="node4" class="node">
<title>Node4</title>
<g id="a_node4"><a xlink:href="crystal__growth_8h.html" target="_top" xlink:title=" ">
<polygon fill="none" stroke="black" points="24.5,-0.5 24.5,-41.5 152.5,-41.5 152.5,-0.5 24.5,-0.5"/>
<text text-anchor="start" x="32.5" y="-29.5" font-family="Helvetica,sans-Serif" font-size="10.00">/home/runner/work/occ</text>
<text text-anchor="start" x="32.5" y="-18.5" font-family="Helvetica,sans-Serif" font-size="10.00">/occ/include/occ/driver</text>
<text text-anchor="middle" x="88.5" y="-7.5" font-family="Helvetica,sans-Serif" font-size="10.00">/crystal_growth.h</text>
</a>
</g>
</g>
<!-- Node3&#45;&gt;Node4 -->
<g id="edge3" class="edge">
<title>Node3&#45;&gt;Node4</title>
<path fill="none" stroke="midnightblue" d="M88.5,-68.3C88.5,-59.3 88.5,-49.65 88.5,-41.51"/>
<polygon fill="midnightblue" stroke="midnightblue" points="85,-68.43 88.5,-78.43 92,-68.43 85,-68.43"/>
</g>
<!-- Node6&#45;&gt;Node2 -->
<g id="edge6" class="edge">
<title>Node6&#45;&gt;Node2</title>
<path fill="none" stroke="midnightblue" d="M286.02,-228.11C270.42,-216.53 251.28,-202.33 237.37,-192"/>
<polygon fill="midnightblue" stroke="midnightblue" points="284.16,-231.08 294.28,-234.23 288.33,-225.46 284.16,-231.08"/>
</g>
<!-- Node6&#45;&gt;Node5 -->
<g id="edge9" class="edge">
<title>Node6&#45;&gt;Node5</title>
<path fill="none" stroke="midnightblue" d="M312.34,-224.33C310.55,-204.87 305.99,-177.34 294.5,-156 287,-142.08 274.94,-129.36 263.93,-119.58"/>
<polygon fill="midnightblue" stroke="midnightblue" points="308.87,-224.78 313.1,-234.49 315.85,-224.26 308.87,-224.78"/>
</g>
<!-- Node7 -->
<g id="node7" class="node">
<title>Node7</title>
<g id="a_node7"><a xlink:href="electric__potential_8h.html" target="_top" xlink:title=" ">
<polygon fill="none" stroke="black" points="342,-156.5 342,-197.5 489,-197.5 489,-156.5 342,-156.5"/>
<text text-anchor="start" x="350" y="-185.5" font-family="Helvetica,sans-Serif" font-size="10.00">/home/runner/work/occ</text>
<text text-anchor="start" x="350" y="-174.5" font-family="Helvetica,sans-Serif" font-size="10.00">/occ/include/occ/isosurface</text>
<text text-anchor="middle" x="415.5" y="-163.5" font-family="Helvetica,sans-Serif" font-size="10.00">/electric_potential.h</text>
</a>
</g>
</g>
<!-- Node6&#45;&gt;Node7 -->
<g id="edge7" class="edge">
<title>Node6&#45;&gt;Node7</title>
<path fill="none" stroke="midnightblue" d="M342.46,-228.48C356.47,-218.8 373.23,-207.22 387.16,-197.59"/>
<polygon fill="midnightblue" stroke="midnightblue" points="340.38,-225.67 334.14,-234.23 344.36,-231.43 340.38,-225.67"/>
</g>
<!-- Node8 -->
<g id="node8" class="node">
<title>Node8</title>
<g id="a_node8"><a xlink:href="isosurface_8h.html" target="_top" xlink:title=" ">
<polygon fill="none" stroke="black" points="342,-78.5 342,-119.5 489,-119.5 489,-78.5 342,-78.5"/>
<text text-anchor="start" x="350" y="-107.5" font-family="Helvetica,sans-Serif" font-size="10.00">/home/runner/work/occ</text>
<text text-anchor="start" x="350" y="-96.5" font-family="Helvetica,sans-Serif" font-size="10.00">/occ/include/occ/isosurface</text>
<text text-anchor="middle" x="415.5" y="-85.5" font-family="Helvetica,sans-Serif" font-size="10.00">/isosurface.h</text>
</a>
</g>
</g>
<!-- Node7&#45;&gt;Node8 -->
<g id="edge8" class="edge">
<title>Node7&#45;&gt;Node8</title>
<path fill="none" stroke="midnightblue" d="M415.5,-146.3C415.5,-137.3 415.5,-127.65 415.5,-119.51"/>
<polygon fill="midnightblue" stroke="midnightblue" points="412,-146.43 415.5,-156.43 419,-146.43 412,-146.43"/>
</g>
<!-- Node10&#45;&gt;Node3 -->
<g id="edge12" class="edge">
<title>Node10&#45;&gt;Node3</title>
<path fill="none" stroke="midnightblue" d="M75.01,-146.59C77.64,-137.51 80.47,-127.74 82.85,-119.51"/>
<polygon fill="midnightblue" stroke="midnightblue" points="71.58,-145.85 72.17,-156.43 78.31,-147.8 71.58,-145.85"/>
</g>
</g>
</svg>
