<?xml version="1.0" encoding="UTF-8" standalone="no"?>
<!DOCTYPE svg PUBLIC "-//W3C//DTD SVG 1.1//EN"
 "http://www.w3.org/Graphics/SVG/1.1/DTD/svg11.dtd">
<!-- Generated by graphviz version 2.43.0 (0)
 -->
<!-- Title: /home/runner/work/occ/occ/include/occ/qm/expectation.h Pages: 1 -->
<svg width="2105pt" height="500pt"
 viewBox="0.00 0.00 2104.50 500.00" xmlns="http://www.w3.org/2000/svg" xmlns:xlink="http://www.w3.org/1999/xlink">
<g id="graph0" class="graph" transform="scale(1 1) rotate(0) translate(4 496)">
<title>/home/runner/work/occ/occ/include/occ/qm/expectation.h</title>
<!-- Node1 -->
<g id="Node000001" class="node">
<title>Node1</title>
<g id="a_Node000001"><a xlink:title=" ">
<polygon fill="#999999" stroke="#666666" points="851.5,-492 669.5,-492 669.5,-462 851.5,-462 851.5,-492"/>
<text text-anchor="start" x="677.5" y="-480" font-family="Helvetica,sans-Serif" font-size="10.00">/home/runner/work/occ</text>
<text text-anchor="middle" x="760.5" y="-469" font-family="Helvetica,sans-Serif" font-size="10.00">/occ/include/occ/qm/expectation.h</text>
</a>
</g>
</g>
<!-- Node2 -->
<g id="Node000002" class="node">
<title>Node2</title>
<g id="a_Node000002"><a xlink:href="gradients_8h.html" target="_top" xlink:title=" ">
<polygon fill="white" stroke="#666666" points="362.5,-420.5 192.5,-420.5 192.5,-390.5 362.5,-390.5 362.5,-420.5"/>
<text text-anchor="start" x="200.5" y="-408.5" font-family="Helvetica,sans-Serif" font-size="10.00">/home/runner/work/occ</text>
<text text-anchor="middle" x="277.5" y="-397.5" font-family="Helvetica,sans-Serif" font-size="10.00">/occ/include/occ/qm/gradients.h</text>
</a>
</g>
</g>
<!-- Node1&#45;&gt;Node2 -->
<g id="edge1_Node000001_Node000002" class="edge">
<title>Node1&#45;&gt;Node2</title>
<g id="a_edge1_Node000001_Node000002"><a xlink:title=" ">
<path fill="none" stroke="#63b8ff" d="M659.37,-461.45C571.43,-448.79 445.44,-430.66 362.57,-418.74"/>
<polygon fill="#63b8ff" stroke="#63b8ff" points="658.97,-464.93 669.37,-462.89 659.97,-458 658.97,-464.93"/>
</a>
</g>
</g>
<!-- Node4 -->
<g id="Node000004" class="node">
<title>Node4</title>
<g id="a_Node000004"><a xlink:href="integral__engine_8h.html" target="_top" xlink:title=" ">
<polygon fill="white" stroke="#666666" points="1033,-426 880,-426 880,-385 1033,-385 1033,-426"/>
<text text-anchor="start" x="888" y="-414" font-family="Helvetica,sans-Serif" font-size="10.00">/home/runner/work/occ</text>
<text text-anchor="start" x="888" y="-403" font-family="Helvetica,sans-Serif" font-size="10.00">/occ/include/occ/qm/integral</text>
<text text-anchor="middle" x="956.5" y="-392" font-family="Helvetica,sans-Serif" font-size="10.00">_engine.h</text>
</a>
</g>
</g>
<!-- Node1&#45;&gt;Node4 -->
<g id="edge3_Node000001_Node000004" class="edge">
<title>Node1&#45;&gt;Node4</title>
<g id="a_edge3_Node000001_Node000004"><a xlink:title=" ">
<path fill="none" stroke="#63b8ff" d="M809.7,-458.55C837.57,-448.67 872.5,-436.28 901.3,-426.07"/>
<polygon fill="#63b8ff" stroke="#63b8ff" points="808.42,-455.29 800.16,-461.94 810.76,-461.89 808.42,-455.29"/>
</a>
</g>
</g>
<!-- Node42 -->
<g id="Node000042" class="node">
<title>Node42</title>
<g id="a_Node000042"><a xlink:href="scf_8h.html" target="_top" xlink:title=" ">
<polygon fill="white" stroke="#666666" points="747.5,-420.5 609.5,-420.5 609.5,-390.5 747.5,-390.5 747.5,-420.5"/>
<text text-anchor="start" x="617.5" y="-408.5" font-family="Helvetica,sans-Serif" font-size="10.00">/home/runner/work/occ</text>
<text text-anchor="middle" x="678.5" y="-397.5" font-family="Helvetica,sans-Serif" font-size="10.00">/occ/include/occ/qm/scf.h</text>
</a>
</g>
</g>
<!-- Node1&#45;&gt;Node42 -->
<g id="edge49_Node000001_Node000042" class="edge">
<title>Node1&#45;&gt;Node42</title>
<g id="a_edge49_Node000001_Node000042"><a xlink:title=" ">
<path fill="none" stroke="#63b8ff" d="M736.09,-455.31C722.85,-444.09 706.84,-430.52 695.07,-420.54"/>
<polygon fill="#63b8ff" stroke="#63b8ff" points="734.01,-458.14 743.91,-461.94 738.54,-452.8 734.01,-458.14"/>
</a>
</g>
</g>
<!-- Node43 -->
<g id="Node000043" class="node">
<title>Node43</title>
<g id="a_Node000043"><a xlink:href="solvation__correction_8h.html" target="_top" xlink:title=" ">
<polygon fill="white" stroke="#666666" points="1688,-426 1555,-426 1555,-385 1688,-385 1688,-426"/>
<text text-anchor="start" x="1563" y="-414" font-family="Helvetica,sans-Serif" font-size="10.00">/home/runner/work/occ</text>
<text text-anchor="start" x="1563" y="-403" font-family="Helvetica,sans-Serif" font-size="10.00">/occ/include/occ/solvent</text>
<text text-anchor="middle" x="1621.5" y="-392" font-family="Helvetica,sans-Serif" font-size="10.00">/solvation_correction.h</text>
</a>
</g>
</g>
<!-- Node1&#45;&gt;Node43 -->
<g id="edge51_Node000001_Node000043" class="edge">
<title>Node1&#45;&gt;Node43</title>
<g id="a_edge51_Node000001_Node000043"><a xlink:title=" ">
<path fill="none" stroke="#63b8ff" d="M862,-467.81C1040.26,-453.42 1404.91,-423.98 1554.85,-411.88"/>
<polygon fill="#63b8ff" stroke="#63b8ff" points="861.51,-464.33 851.83,-468.63 862.08,-471.31 861.51,-464.33"/>
</a>
</g>
</g>
<!-- Node3 -->
<g id="Node000003" class="node">
<title>Node3</title>
<g id="a_Node000003"><a xlink:href="hessians_8h.html" target="_top" xlink:title=" ">
<polygon fill="white" stroke="#666666" points="167,-343.5 0,-343.5 0,-313.5 167,-313.5 167,-343.5"/>
<text text-anchor="start" x="8" y="-331.5" font-family="Helvetica,sans-Serif" font-size="10.00">/home/runner/work/occ</text>
<text text-anchor="middle" x="83.5" y="-320.5" font-family="Helvetica,sans-Serif" font-size="10.00">/occ/include/occ/qm/hessians.h</text>
</a>
</g>
</g>
<!-- Node2&#45;&gt;Node3 -->
<g id="edge2_Node000002_Node000003" class="edge">
<title>Node2&#45;&gt;Node3</title>
<g id="a_edge2_Node000002_Node000003"><a xlink:title=" ">
<path fill="none" stroke="#63b8ff" d="M231.27,-386.63C197.14,-373.43 151.34,-355.73 119.83,-343.54"/>
<polygon fill="#63b8ff" stroke="#63b8ff" points="230.42,-390.05 241.01,-390.39 232.94,-383.52 230.42,-390.05"/>
</a>
</g>
</g>
<!-- Node5 -->
<g id="Node000005" class="node">
<title>Node5</title>
<g id="a_Node000005"><a xlink:href="dma_8h.html" target="_top" xlink:title=" ">
<polygon fill="white" stroke="#666666" points="649.5,-343.5 497.5,-343.5 497.5,-313.5 649.5,-313.5 649.5,-343.5"/>
<text text-anchor="start" x="505.5" y="-331.5" font-family="Helvetica,sans-Serif" font-size="10.00">/home/runner/work/occ</text>
<text text-anchor="middle" x="573.5" y="-320.5" font-family="Helvetica,sans-Serif" font-size="10.00">/occ/include/occ/dma/dma.h</text>
</a>
</g>
</g>
<!-- Node4&#45;&gt;Node5 -->
<g id="edge4_Node000004_Node000005" class="edge">
<title>Node4&#45;&gt;Node5</title>
<g id="a_edge4_Node000004_Node000005"><a xlink:title=" ">
<path fill="none" stroke="#63b8ff" d="M869.65,-389.3C810.11,-378.65 729.37,-363.72 658.5,-349 650.35,-347.31 641.77,-345.44 633.34,-343.55"/>
<polygon fill="#63b8ff" stroke="#63b8ff" points="869.31,-392.8 879.77,-391.11 870.54,-385.91 869.31,-392.8"/>
</a>
</g>
</g>
<!-- Node10 -->
<g id="Node000010" class="node">
<title>Node10</title>
<g id="a_Node000010"><a xlink:href="thc_8h.html" target="_top" xlink:title=" ">
<polygon fill="white" stroke="#666666" points="1113,-343.5 960,-343.5 960,-313.5 1113,-313.5 1113,-343.5"/>
<text text-anchor="start" x="968" y="-331.5" font-family="Helvetica,sans-Serif" font-size="10.00">/home/runner/work/occ</text>
<text text-anchor="middle" x="1036.5" y="-320.5" font-family="Helvetica,sans-Serif" font-size="10.00">/occ/include/occ/qm/cc/thc.h</text>
</a>
</g>
</g>
<!-- Node4&#45;&gt;Node10 -->
<g id="edge9_Node000004_Node000010" class="edge">
<title>Node4&#45;&gt;Node10</title>
<g id="a_edge9_Node000004_Node000010"><a xlink:title=" ">
<path fill="none" stroke="#63b8ff" d="M984.88,-377.89C997.11,-366.43 1010.92,-353.48 1021.18,-343.86"/>
<polygon fill="#63b8ff" stroke="#63b8ff" points="982.42,-375.4 977.52,-384.79 987.21,-380.51 982.42,-375.4"/>
</a>
</g>
</g>
<!-- Node19 -->
<g id="Node000019" class="node">
<title>Node19</title>
<g id="a_Node000019"><a xlink:href="mo__integral__engine_8h.html" target="_top" xlink:title=" ">
<polygon fill="white" stroke="#666666" points="1337.5,-349 1169.5,-349 1169.5,-308 1337.5,-308 1337.5,-349"/>
<text text-anchor="start" x="1177.5" y="-337" font-family="Helvetica,sans-Serif" font-size="10.00">/home/runner/work/occ</text>
<text text-anchor="start" x="1177.5" y="-326" font-family="Helvetica,sans-Serif" font-size="10.00">/occ/include/occ/qm/correlation</text>
<text text-anchor="middle" x="1253.5" y="-315" font-family="Helvetica,sans-Serif" font-size="10.00">/mo_integral_engine.h</text>
</a>
</g>
</g>
<!-- Node4&#45;&gt;Node19 -->
<g id="edge19_Node000004_Node000019" class="edge">
<title>Node4&#45;&gt;Node19</title>
<g id="a_edge19_Node000004_Node000019"><a xlink:title=" ">
<path fill="none" stroke="#63b8ff" d="M1043.32,-382.58C1085.37,-371.96 1135.45,-359.31 1176.18,-349.03"/>
<polygon fill="#63b8ff" stroke="#63b8ff" points="1042.21,-379.25 1033.37,-385.09 1043.92,-386.03 1042.21,-379.25"/>
</a>
</g>
</g>
<!-- Node20 -->
<g id="Node000020" class="node">
<title>Node20</title>
<g id="a_Node000020"><a xlink:href="post__hf__method_8h.html" target="_top" xlink:title=" ">
<polygon fill="white" stroke="#666666" points="1324.5,-272 1156.5,-272 1156.5,-231 1324.5,-231 1324.5,-272"/>
<text text-anchor="start" x="1164.5" y="-260" font-family="Helvetica,sans-Serif" font-size="10.00">/home/runner/work/occ</text>
<text text-anchor="start" x="1164.5" y="-249" font-family="Helvetica,sans-Serif" font-size="10.00">/occ/include/occ/qm/correlation</text>
<text text-anchor="middle" x="1240.5" y="-238" font-family="Helvetica,sans-Serif" font-size="10.00">/post_hf_method.h</text>
</a>
</g>
</g>
<!-- Node4&#45;&gt;Node20 -->
<g id="edge22_Node000004_Node000020" class="edge">
<title>Node4&#45;&gt;Node20</title>
<g id="a_edge22_Node000004_Node000020"><a xlink:title=" ">
<path fill="none" stroke="#63b8ff" d="M1042.99,-384.55C1069.77,-376.07 1098.51,-364.48 1122.5,-349 1143.38,-335.53 1141.74,-324.29 1160.5,-308 1175.56,-294.92 1193.74,-282.11 1208.95,-272.1"/>
<polygon fill="#63b8ff" stroke="#63b8ff" points="1041.77,-381.26 1033.23,-387.53 1043.81,-387.96 1041.77,-381.26"/>
</a>
</g>
</g>
<!-- Node22 -->
<g id="Node000022" class="node">
<title>Node22</title>
<g id="a_Node000022"><a xlink:href="hf_8h.html" target="_top" xlink:title=" ">
<polygon fill="white" stroke="#666666" points="1832.5,-266.5 1698.5,-266.5 1698.5,-236.5 1832.5,-236.5 1832.5,-266.5"/>
<text text-anchor="start" x="1706.5" y="-254.5" font-family="Helvetica,sans-Serif" font-size="10.00">/home/runner/work/occ</text>
<text text-anchor="middle" x="1765.5" y="-243.5" font-family="Helvetica,sans-Serif" font-size="10.00">/occ/include/occ/qm/hf.h</text>
</a>
</g>
</g>
<!-- Node4&#45;&gt;Node22 -->
<g id="edge23_Node000004_Node000022" class="edge">
<title>Node4&#45;&gt;Node22</title>
<g id="a_edge23_Node000004_Node000022"><a xlink:title=" ">
<path fill="none" stroke="#63b8ff" d="M1043.32,-401.21C1243.13,-393.27 1720.46,-371.99 1746.5,-349 1769.92,-328.32 1769.57,-287.89 1767.46,-266.52"/>
<polygon fill="#63b8ff" stroke="#63b8ff" points="1043.01,-397.72 1033.15,-401.62 1043.28,-404.72 1043.01,-397.72"/>
</a>
</g>
</g>
<!-- Node32 -->
<g id="Node000032" class="node">
<title>Node32</title>
<g id="a_Node000032"><a xlink:href="integral__engine__df_8h.html" target="_top" xlink:title=" ">
<polygon fill="white" stroke="#666666" points="1737,-349 1584,-349 1584,-308 1737,-308 1737,-349"/>
<text text-anchor="start" x="1592" y="-337" font-family="Helvetica,sans-Serif" font-size="10.00">/home/runner/work/occ</text>
<text text-anchor="start" x="1592" y="-326" font-family="Helvetica,sans-Serif" font-size="10.00">/occ/include/occ/qm/integral</text>
<text text-anchor="middle" x="1660.5" y="-315" font-family="Helvetica,sans-Serif" font-size="10.00">_engine_df.h</text>
</a>
</g>
</g>
<!-- Node4&#45;&gt;Node32 -->
<g id="edge34_Node000004_Node000032" class="edge">
<title>Node4&#45;&gt;Node32</title>
<g id="a_edge34_Node000004_Node000032"><a xlink:title=" ">
<path fill="none" stroke="#63b8ff" d="M1043.54,-399.48C1161.72,-392 1379.33,-375.85 1563.5,-349 1570.13,-348.03 1576.99,-346.91 1583.86,-345.7"/>
<polygon fill="#63b8ff" stroke="#63b8ff" points="1043.23,-396 1033.47,-400.12 1043.67,-402.98 1043.23,-396"/>
</a>
</g>
</g>
<!-- Node35 -->
<g id="Node000035" class="node">
<title>Node35</title>
<g id="a_Node000035"><a xlink:href="qm_2seminumerical__exchange_8h.html" target="_top" xlink:title=" ">
<polygon fill="white" stroke="#666666" points="1554.5,-349 1366.5,-349 1366.5,-308 1554.5,-308 1554.5,-349"/>
<text text-anchor="start" x="1374.5" y="-337" font-family="Helvetica,sans-Serif" font-size="10.00">/home/runner/work/occ</text>
<text text-anchor="start" x="1374.5" y="-326" font-family="Helvetica,sans-Serif" font-size="10.00">/occ/include/occ/qm/seminumerical</text>
<text text-anchor="middle" x="1460.5" y="-315" font-family="Helvetica,sans-Serif" font-size="10.00">_exchange.h</text>
</a>
</g>
</g>
<!-- Node4&#45;&gt;Node35 -->
<g id="edge39_Node000004_Node000035" class="edge">
<title>Node4&#45;&gt;Node35</title>
<g id="a_edge39_Node000004_Node000035"><a xlink:title=" ">
<path fill="none" stroke="#63b8ff" d="M1043.11,-392.88C1122.21,-382.11 1242.34,-365.32 1346.5,-349 1352.95,-347.99 1359.59,-346.92 1366.29,-345.83"/>
<polygon fill="#63b8ff" stroke="#63b8ff" points="1042.62,-389.42 1033.19,-394.23 1043.57,-396.35 1042.62,-389.42"/>
</a>
</g>
</g>
<!-- Node37 -->
<g id="Node000037" class="node">
<title>Node37</title>
<g id="a_Node000037"><a xlink:href="gfn2__engine_8h.html" target="_top" xlink:title=" ">
<polygon fill="white" stroke="#666666" points="313.5,-349 185.5,-349 185.5,-308 313.5,-308 313.5,-349"/>
<text text-anchor="start" x="193.5" y="-337" font-family="Helvetica,sans-Serif" font-size="10.00">/home/runner/work/occ</text>
<text text-anchor="start" x="193.5" y="-326" font-family="Helvetica,sans-Serif" font-size="10.00">/occ/include/occ/xtb</text>
<text text-anchor="middle" x="249.5" y="-315" font-family="Helvetica,sans-Serif" font-size="10.00">/gfn2_engine.h</text>
</a>
</g>
</g>
<!-- Node4&#45;&gt;Node37 -->
<g id="edge43_Node000004_Node000037" class="edge">
<title>Node4&#45;&gt;Node37</title>
<g id="a_edge43_Node000004_Node000037"><a xlink:title=" ">
<path fill="none" stroke="#63b8ff" d="M869.39,-395.73C834.32,-392.27 793.5,-388.34 756.5,-385 563.73,-367.61 513.2,-382.11 322.5,-349 319.66,-348.51 316.76,-347.95 313.85,-347.36"/>
<polygon fill="#63b8ff" stroke="#63b8ff" points="869.3,-399.24 879.6,-396.74 869.99,-392.27 869.3,-399.24"/>
</a>
</g>
</g>
<!-- Node39 -->
<g id="Node000039" class="node">
<title>Node39</title>
<g id="a_Node000039"><a xlink:href="gfn2__periodic__calculator_8h.html" target="_top" xlink:title=" ">
<polygon fill="white" stroke="#666666" points="479,-349 332,-349 332,-308 479,-308 479,-349"/>
<text text-anchor="start" x="340" y="-337" font-family="Helvetica,sans-Serif" font-size="10.00">/home/runner/work/occ</text>
<text text-anchor="start" x="340" y="-326" font-family="Helvetica,sans-Serif" font-size="10.00">/occ/include/occ/xtb</text>
<text text-anchor="middle" x="405.5" y="-315" font-family="Helvetica,sans-Serif" font-size="10.00">/gfn2_periodic_calculator.h</text>
</a>
</g>
</g>
<!-- Node4&#45;&gt;Node39 -->
<g id="edge45_Node000004_Node000039" class="edge">
<title>Node4&#45;&gt;Node39</title>
<g id="a_edge45_Node000004_Node000039"><a xlink:title=" ">
<path fill="none" stroke="#63b8ff" d="M869.56,-395.38C754.96,-383.14 559.58,-361.52 488.5,-349 485.44,-348.46 482.32,-347.88 479.18,-347.26"/>
<polygon fill="#63b8ff" stroke="#63b8ff" points="869.39,-398.88 879.71,-396.46 870.14,-391.92 869.39,-398.88"/>
</a>
</g>
</g>
<!-- Node40 -->
<g id="Node000040" class="node">
<title>Node40</title>
<g id="a_Node000040"><a xlink:href="h0__gradient_8h.html" target="_top" xlink:title=" ">
<polygon fill="white" stroke="#666666" points="795.5,-349 667.5,-349 667.5,-308 795.5,-308 795.5,-349"/>
<text text-anchor="start" x="675.5" y="-337" font-family="Helvetica,sans-Serif" font-size="10.00">/home/runner/work/occ</text>
<text text-anchor="start" x="675.5" y="-326" font-family="Helvetica,sans-Serif" font-size="10.00">/occ/include/occ/xtb</text>
<text text-anchor="middle" x="731.5" y="-315" font-family="Helvetica,sans-Serif" font-size="10.00">/h0_gradient.h</text>
</a>
</g>
</g>
<!-- Node4&#45;&gt;Node40 -->
<g id="edge47_Node000004_Node000040" class="edge">
<title>Node4&#45;&gt;Node40</title>
<g id="a_edge47_Node000004_Node000040"><a xlink:title=" ">
<path fill="none" stroke="#63b8ff" d="M888.43,-381.81C857.07,-371.36 820.23,-359.08 790.13,-349.04"/>
<polygon fill="#63b8ff" stroke="#63b8ff" points="887.38,-385.15 897.97,-384.99 889.59,-378.51 887.38,-385.15"/>
</a>
</g>
</g>
<!-- Node41 -->
<g id="Node000041" class="node">
<title>Node41</title>
<g id="a_Node000041"><a xlink:href="multipole__ints_8h.html" target="_top" xlink:title=" ">
<polygon fill="white" stroke="#666666" points="941.5,-349 813.5,-349 813.5,-308 941.5,-308 941.5,-349"/>
<text text-anchor="start" x="821.5" y="-337" font-family="Helvetica,sans-Serif" font-size="10.00">/home/runner/work/occ</text>
<text text-anchor="start" x="821.5" y="-326" font-family="Helvetica,sans-Serif" font-size="10.00">/occ/include/occ/xtb</text>
<text text-anchor="middle" x="877.5" y="-315" font-family="Helvetica,sans-Serif" font-size="10.00">/multipole_ints.h</text>
</a>
</g>
</g>
<!-- Node4&#45;&gt;Node41 -->
<g id="edge48_Node000004_Node000041" class="edge">
<title>Node4&#45;&gt;Node41</title>
<g id="a_edge48_Node000004_Node000041"><a xlink:title=" ">
<path fill="none" stroke="#63b8ff" d="M928.37,-377.79C918.39,-368.32 907.35,-357.84 898.12,-349.07"/>
<polygon fill="#63b8ff" stroke="#63b8ff" points="926.08,-380.45 935.74,-384.79 930.9,-375.37 926.08,-380.45"/>
</a>
</g>
</g>
<!-- Node6 -->
<g id="Node000006" class="node">
<title>Node6</title>
<g id="a_Node000006"><a xlink:href="multipole__calculator_8h.html" target="_top" xlink:title=" ">
<polygon fill="white" stroke="#666666" points="516.5,-272 388.5,-272 388.5,-231 516.5,-231 516.5,-272"/>
<text text-anchor="start" x="396.5" y="-260" font-family="Helvetica,sans-Serif" font-size="10.00">/home/runner/work/occ</text>
<text text-anchor="start" x="396.5" y="-249" font-family="Helvetica,sans-Serif" font-size="10.00">/occ/include/occ/dma</text>
<text text-anchor="middle" x="452.5" y="-238" font-family="Helvetica,sans-Serif" font-size="10.00">/multipole_calculator.h</text>
</a>
</g>
</g>
<!-- Node5&#45;&gt;Node6 -->
<g id="edge5_Node000005_Node000006" class="edge">
<title>Node5&#45;&gt;Node6</title>
<g id="a_edge5_Node000005_Node000006"><a xlink:title=" ">
<path fill="none" stroke="#63b8ff" d="M541.9,-307.91C524.15,-296.91 502.07,-283.22 484.29,-272.2"/>
<polygon fill="#63b8ff" stroke="#63b8ff" points="540.4,-311.1 550.74,-313.39 544.09,-305.15 540.4,-311.1"/>
</a>
</g>
</g>
<!-- Node7 -->
<g id="Node000007" class="node">
<title>Node7</title>
<g id="a_Node000007"><a xlink:href="multipole__shifter_8h.html" target="_top" xlink:title=" ">
<polygon fill="white" stroke="#666666" points="662.5,-272 534.5,-272 534.5,-231 662.5,-231 662.5,-272"/>
<text text-anchor="start" x="542.5" y="-260" font-family="Helvetica,sans-Serif" font-size="10.00">/home/runner/work/occ</text>
<text text-anchor="start" x="542.5" y="-249" font-family="Helvetica,sans-Serif" font-size="10.00">/occ/include/occ/dma</text>
<text text-anchor="middle" x="598.5" y="-238" font-family="Helvetica,sans-Serif" font-size="10.00">/multipole_shifter.h</text>
</a>
</g>
</g>
<!-- Node5&#45;&gt;Node7 -->
<g id="edge6_Node000005_Node000007" class="edge">
<title>Node5&#45;&gt;Node7</title>
<g id="a_edge6_Node000005_Node000007"><a xlink:title=" ">
<path fill="none" stroke="#63b8ff" d="M581.38,-303.87C584.77,-293.69 588.7,-281.91 591.93,-272.2"/>
<polygon fill="#63b8ff" stroke="#63b8ff" points="578.04,-302.8 578.2,-313.39 584.69,-305.01 578.04,-302.8"/>
</a>
</g>
</g>
<!-- Node8 -->
<g id="Node000008" class="node">
<title>Node8</title>
<g id="a_Node000008"><a xlink:href="dma__driver_8h.html" target="_top" xlink:title=" ">
<polygon fill="white" stroke="#666666" points="370.5,-272 242.5,-272 242.5,-231 370.5,-231 370.5,-272"/>
<text text-anchor="start" x="250.5" y="-260" font-family="Helvetica,sans-Serif" font-size="10.00">/home/runner/work/occ</text>
<text text-anchor="start" x="250.5" y="-249" font-family="Helvetica,sans-Serif" font-size="10.00">/occ/include/occ/driver</text>
<text text-anchor="middle" x="306.5" y="-238" font-family="Helvetica,sans-Serif" font-size="10.00">/dma_driver.h</text>
</a>
</g>
</g>
<!-- Node5&#45;&gt;Node8 -->
<g id="edge7_Node000005_Node000008" class="edge">
<title>Node5&#45;&gt;Node8</title>
<g id="a_edge7_Node000005_Node000008"><a xlink:title=" ">
<path fill="none" stroke="#63b8ff" d="M513.94,-310.77C471.45,-298.83 414.35,-282.8 370.82,-270.57"/>
<polygon fill="#63b8ff" stroke="#63b8ff" points="513.02,-314.15 523.59,-313.48 514.91,-307.41 513.02,-314.15"/>
</a>
</g>
</g>
<!-- Node9 -->
<g id="Node000009" class="node">
<title>Node9</title>
<g id="a_Node000009"><a xlink:href="occ__dma_8h.html" target="_top" xlink:title=" ">
<polygon fill="white" stroke="#666666" points="370.5,-195 242.5,-195 242.5,-154 370.5,-154 370.5,-195"/>
<text text-anchor="start" x="250.5" y="-183" font-family="Helvetica,sans-Serif" font-size="10.00">/home/runner/work/occ</text>
<text text-anchor="start" x="250.5" y="-172" font-family="Helvetica,sans-Serif" font-size="10.00">/occ/include/occ/main</text>
<text text-anchor="middle" x="306.5" y="-161" font-family="Helvetica,sans-Serif" font-size="10.00">/occ_dma.h</text>
</a>
</g>
</g>
<!-- Node8&#45;&gt;Node9 -->
<g id="edge8_Node000008_Node000009" class="edge">
<title>Node8&#45;&gt;Node9</title>
<g id="a_edge8_Node000008_Node000009"><a xlink:title=" ">
<path fill="none" stroke="#63b8ff" d="M306.5,-220.69C306.5,-212.08 306.5,-202.9 306.5,-195.07"/>
<polygon fill="#63b8ff" stroke="#63b8ff" points="303,-220.79 306.5,-230.79 310,-220.79 303,-220.79"/>
</a>
</g>
</g>
<!-- Node11 -->
<g id="Node000011" class="node">
<title>Node11</title>
<g id="a_Node000011"><a xlink:href="integrals_8h.html" target="_top" xlink:title=" ">
<polygon fill="white" stroke="#666666" points="808.5,-272 680.5,-272 680.5,-231 808.5,-231 808.5,-272"/>
<text text-anchor="start" x="688.5" y="-260" font-family="Helvetica,sans-Serif" font-size="10.00">/home/runner/work/occ</text>
<text text-anchor="start" x="688.5" y="-249" font-family="Helvetica,sans-Serif" font-size="10.00">/occ/include/occ/qm/cc</text>
<text text-anchor="middle" x="744.5" y="-238" font-family="Helvetica,sans-Serif" font-size="10.00">/integrals.h</text>
</a>
</g>
</g>
<!-- Node10&#45;&gt;Node11 -->
<g id="edge10_Node000010_Node000011" class="edge">
<title>Node10&#45;&gt;Node11</title>
<g id="a_edge10_Node000010_Node000011"><a xlink:title=" ">
<path fill="none" stroke="#63b8ff" d="M970.3,-310.96C926.83,-300.04 868.74,-285.34 817.5,-272 814.58,-271.24 811.6,-270.46 808.58,-269.67"/>
<polygon fill="#63b8ff" stroke="#63b8ff" points="969.63,-314.4 980.19,-313.44 971.34,-307.61 969.63,-314.4"/>
</a>
</g>
</g>
<!-- Node14 -->
<g id="Node000014" class="node">
<title>Node14</title>
<g id="a_Node000014"><a xlink:href="thc__mp2_8h.html" target="_top" xlink:title=" ">
<polygon fill="white" stroke="#666666" points="954.5,-272 826.5,-272 826.5,-231 954.5,-231 954.5,-272"/>
<text text-anchor="start" x="834.5" y="-260" font-family="Helvetica,sans-Serif" font-size="10.00">/home/runner/work/occ</text>
<text text-anchor="start" x="834.5" y="-249" font-family="Helvetica,sans-Serif" font-size="10.00">/occ/include/occ/qm/cc</text>
<text text-anchor="middle" x="890.5" y="-238" font-family="Helvetica,sans-Serif" font-size="10.00">/thc_mp2.h</text>
</a>
</g>
</g>
<!-- Node10&#45;&gt;Node14 -->
<g id="edge13_Node000010_Node000014" class="edge">
<title>Node10&#45;&gt;Node14</title>
<g id="a_edge13_Node000010_Node000014"><a xlink:title=" ">
<path fill="none" stroke="#63b8ff" d="M1000.09,-308.8C978.31,-297.61 950.66,-283.4 928.58,-272.06"/>
<polygon fill="#63b8ff" stroke="#63b8ff" points="998.54,-311.94 1009.04,-313.39 1001.74,-305.71 998.54,-311.94"/>
</a>
</g>
</g>
<!-- Node15 -->
<g id="Node000015" class="node">
<title>Node15</title>
<g id="a_Node000015"><a xlink:href="uccsd_8h.html" target="_top" xlink:title=" ">
<polygon fill="white" stroke="#666666" points="1100.5,-272 972.5,-272 972.5,-231 1100.5,-231 1100.5,-272"/>
<text text-anchor="start" x="980.5" y="-260" font-family="Helvetica,sans-Serif" font-size="10.00">/home/runner/work/occ</text>
<text text-anchor="start" x="980.5" y="-249" font-family="Helvetica,sans-Serif" font-size="10.00">/occ/include/occ/qm/cc</text>
<text text-anchor="middle" x="1036.5" y="-238" font-family="Helvetica,sans-Serif" font-size="10.00">/uccsd.h</text>
</a>
</g>
</g>
<!-- Node10&#45;&gt;Node15 -->
<g id="edge14_Node000010_Node000015" class="edge">
<title>Node10&#45;&gt;Node15</title>
<g id="a_edge14_Node000010_Node000015"><a xlink:title=" ">
<path fill="none" stroke="#63b8ff" d="M1036.5,-303.23C1036.5,-293.2 1036.5,-281.71 1036.5,-272.2"/>
<polygon fill="#63b8ff" stroke="#63b8ff" points="1033,-303.39 1036.5,-313.39 1040,-303.39 1033,-303.39"/>
</a>
</g>
</g>
<!-- Node17 -->
<g id="Node000017" class="node">
<title>Node17</title>
<g id="a_Node000017"><a xlink:href="uintegrals_8h.html" target="_top" xlink:title=" ">
<polygon fill="white" stroke="#666666" points="1192.5,-195 1064.5,-195 1064.5,-154 1192.5,-154 1192.5,-195"/>
<text text-anchor="start" x="1072.5" y="-183" font-family="Helvetica,sans-Serif" font-size="10.00">/home/runner/work/occ</text>
<text text-anchor="start" x="1072.5" y="-172" font-family="Helvetica,sans-Serif" font-size="10.00">/occ/include/occ/qm/cc</text>
<text text-anchor="middle" x="1128.5" y="-161" font-family="Helvetica,sans-Serif" font-size="10.00">/uintegrals.h</text>
</a>
</g>
</g>
<!-- Node10&#45;&gt;Node17 -->
<g id="edge18_Node000010_Node000017" class="edge">
<title>Node10&#45;&gt;Node17</title>
<g id="a_edge18_Node000010_Node000017"><a xlink:title=" ">
<path fill="none" stroke="#63b8ff" d="M1072.57,-307.79C1086.13,-298.63 1100.45,-286.52 1109.5,-272 1124.23,-248.38 1127.9,-215.72 1128.63,-195.1"/>
<polygon fill="#63b8ff" stroke="#63b8ff" points="1070.36,-305.05 1063.82,-313.38 1074.13,-310.94 1070.36,-305.05"/>
</a>
</g>
</g>
<!-- Node12 -->
<g id="Node000012" class="node">
<title>Node12</title>
<g id="a_Node000012"><a xlink:href="ccsd_8h.html" target="_top" xlink:title=" ">
<polygon fill="white" stroke="#666666" points="854.5,-195 726.5,-195 726.5,-154 854.5,-154 854.5,-195"/>
<text text-anchor="start" x="734.5" y="-183" font-family="Helvetica,sans-Serif" font-size="10.00">/home/runner/work/occ</text>
<text text-anchor="start" x="734.5" y="-172" font-family="Helvetica,sans-Serif" font-size="10.00">/occ/include/occ/qm/cc</text>
<text text-anchor="middle" x="790.5" y="-161" font-family="Helvetica,sans-Serif" font-size="10.00">/ccsd.h</text>
</a>
</g>
</g>
<!-- Node11&#45;&gt;Node12 -->
<g id="edge11_Node000011_Node000012" class="edge">
<title>Node11&#45;&gt;Node12</title>
<g id="a_edge11_Node000011_Node000012"><a xlink:title=" ">
<path fill="none" stroke="#63b8ff" d="M761.91,-222.11C767.44,-213.09 773.43,-203.33 778.49,-195.07"/>
<polygon fill="#63b8ff" stroke="#63b8ff" points="758.83,-220.44 756.59,-230.79 764.8,-224.1 758.83,-220.44"/>
</a>
</g>
</g>
<!-- Node13 -->
<g id="Node000013" class="node">
<title>Node13</title>
<g id="a_Node000013"><a xlink:href="triples_8h.html" target="_top" xlink:title=" ">
<polygon fill="white" stroke="#666666" points="708.5,-195 580.5,-195 580.5,-154 708.5,-154 708.5,-195"/>
<text text-anchor="start" x="588.5" y="-183" font-family="Helvetica,sans-Serif" font-size="10.00">/home/runner/work/occ</text>
<text text-anchor="start" x="588.5" y="-172" font-family="Helvetica,sans-Serif" font-size="10.00">/occ/include/occ/qm/cc</text>
<text text-anchor="middle" x="644.5" y="-161" font-family="Helvetica,sans-Serif" font-size="10.00">/triples.h</text>
</a>
</g>
</g>
<!-- Node11&#45;&gt;Node13 -->
<g id="edge12_Node000011_Node000013" class="edge">
<title>Node11&#45;&gt;Node13</title>
<g id="a_edge12_Node000011_Node000013"><a xlink:title=" ">
<path fill="none" stroke="#63b8ff" d="M710.25,-224.82C697.32,-215.11 682.82,-204.24 670.73,-195.17"/>
<polygon fill="#63b8ff" stroke="#63b8ff" points="708.39,-227.79 718.49,-230.99 712.59,-222.19 708.39,-227.79"/>
</a>
</g>
</g>
<!-- Node16 -->
<g id="Node000016" class="node">
<title>Node16</title>
<g id="a_Node000016"><a xlink:href="uccsd__so_8h.html" target="_top" xlink:title=" ">
<polygon fill="white" stroke="#666666" points="1046.5,-195 918.5,-195 918.5,-154 1046.5,-154 1046.5,-195"/>
<text text-anchor="start" x="926.5" y="-183" font-family="Helvetica,sans-Serif" font-size="10.00">/home/runner/work/occ</text>
<text text-anchor="start" x="926.5" y="-172" font-family="Helvetica,sans-Serif" font-size="10.00">/occ/include/occ/qm/cc</text>
<text text-anchor="middle" x="982.5" y="-161" font-family="Helvetica,sans-Serif" font-size="10.00">/uccsd_so.h</text>
</a>
</g>
</g>
<!-- Node15&#45;&gt;Node16 -->
<g id="edge15_Node000015_Node000016" class="edge">
<title>Node15&#45;&gt;Node16</title>
<g id="a_edge15_Node000015_Node000016"><a xlink:title=" ">
<path fill="none" stroke="#63b8ff" d="M1016.46,-222.67C1009.86,-213.5 1002.66,-203.5 996.59,-195.07"/>
<polygon fill="#63b8ff" stroke="#63b8ff" points="1013.63,-224.72 1022.31,-230.79 1019.31,-220.63 1013.63,-224.72"/>
</a>
</g>
</g>
<!-- Node15&#45;&gt;Node17 -->
<g id="edge16_Node000015_Node000017" class="edge">
<title>Node15&#45;&gt;Node17</title>
<g id="a_edge16_Node000015_Node000017"><a xlink:title=" ">
<path fill="none" stroke="#63b8ff" d="M1068.58,-224.35C1080.38,-214.73 1093.52,-204.01 1104.49,-195.07"/>
<polygon fill="#63b8ff" stroke="#63b8ff" points="1066.21,-221.76 1060.67,-230.79 1070.63,-227.19 1066.21,-221.76"/>
</a>
</g>
</g>
<!-- Node18 -->
<g id="Node000018" class="node">
<title>Node18</title>
<g id="a_Node000018"><a xlink:href="utriples_8h.html" target="_top" xlink:title=" ">
<polygon fill="white" stroke="#666666" points="1192.5,-118 1064.5,-118 1064.5,-77 1192.5,-77 1192.5,-118"/>
<text text-anchor="start" x="1072.5" y="-106" font-family="Helvetica,sans-Serif" font-size="10.00">/home/runner/work/occ</text>
<text text-anchor="start" x="1072.5" y="-95" font-family="Helvetica,sans-Serif" font-size="10.00">/occ/include/occ/qm/cc</text>
<text text-anchor="middle" x="1128.5" y="-84" font-family="Helvetica,sans-Serif" font-size="10.00">/utriples.h</text>
</a>
</g>
</g>
<!-- Node17&#45;&gt;Node18 -->
<g id="edge17_Node000017_Node000018" class="edge">
<title>Node17&#45;&gt;Node18</title>
<g id="a_edge17_Node000017_Node000018"><a xlink:title=" ">
<path fill="none" stroke="#63b8ff" d="M1128.5,-143.69C1128.5,-135.08 1128.5,-125.9 1128.5,-118.07"/>
<polygon fill="#63b8ff" stroke="#63b8ff" points="1125,-143.79 1128.5,-153.79 1132,-143.79 1125,-143.79"/>
</a>
</g>
</g>
<!-- Node19&#45;&gt;Node20 -->
<g id="edge20_Node000019_Node000020" class="edge">
<title>Node19&#45;&gt;Node20</title>
<g id="a_edge20_Node000019_Node000020"><a xlink:title=" ">
<path fill="none" stroke="#63b8ff" d="M1248.33,-297.69C1246.84,-289.08 1245.25,-279.9 1243.89,-272.07"/>
<polygon fill="#63b8ff" stroke="#63b8ff" points="1244.93,-298.54 1250.08,-307.79 1251.83,-297.34 1244.93,-298.54"/>
</a>
</g>
</g>
<!-- Node21 -->
<g id="Node000021" class="node">
<title>Node21</title>
<g id="a_Node000021"><a xlink:href="mp2_8h.html" target="_top" xlink:title=" ">
<polygon fill="white" stroke="#666666" points="1492.5,-189.5 1290.5,-189.5 1290.5,-159.5 1492.5,-159.5 1492.5,-189.5"/>
<text text-anchor="start" x="1298.5" y="-177.5" font-family="Helvetica,sans-Serif" font-size="10.00">/home/runner/work/occ</text>
<text text-anchor="middle" x="1391.5" y="-166.5" font-family="Helvetica,sans-Serif" font-size="10.00">/occ/include/occ/qm/correlation/mp2.h</text>
</a>
</g>
</g>
<!-- Node20&#45;&gt;Node21 -->
<g id="edge21_Node000020_Node000021" class="edge">
<title>Node20&#45;&gt;Node21</title>
<g id="a_edge21_Node000020_Node000021"><a xlink:title=" ">
<path fill="none" stroke="#63b8ff" d="M1288.89,-226.46C1313.3,-214.34 1342.06,-200.06 1362.91,-189.7"/>
<polygon fill="#63b8ff" stroke="#63b8ff" points="1287.18,-223.41 1279.78,-230.99 1290.29,-229.68 1287.18,-223.41"/>
</a>
</g>
</g>
<!-- Node23 -->
<g id="Node000023" class="node">
<title>Node23</title>
<g id="a_Node000023"><a xlink:href="dft_8h.html" target="_top" xlink:title=" ">
<polygon fill="white" stroke="#666666" points="1943.5,-189.5 1809.5,-189.5 1809.5,-159.5 1943.5,-159.5 1943.5,-189.5"/>
<text text-anchor="start" x="1817.5" y="-177.5" font-family="Helvetica,sans-Serif" font-size="10.00">/home/runner/work/occ</text>
<text text-anchor="middle" x="1876.5" y="-166.5" font-family="Helvetica,sans-Serif" font-size="10.00">/occ/include/occ/dft/dft.h</text>
</a>
</g>
</g>
<!-- Node22&#45;&gt;Node23 -->
<g id="edge24_Node000022_Node000023" class="edge">
<title>Node22&#45;&gt;Node23</title>
<g id="a_edge24_Node000022_Node000023"><a xlink:title=" ">
<path fill="none" stroke="#63b8ff" d="M1794.76,-230.73C1813.93,-217.78 1838.53,-201.15 1855.72,-189.54"/>
<polygon fill="#63b8ff" stroke="#63b8ff" points="1792.7,-227.89 1786.38,-236.39 1796.62,-233.69 1792.7,-227.89"/>
</a>
</g>
</g>
<!-- Node26 -->
<g id="Node000026" class="node">
<title>Node26</title>
<g id="a_Node000026"><a xlink:href="point__functors_8h.html" target="_top" xlink:title=" ">
<polygon fill="white" stroke="#666666" points="1932,-118 1785,-118 1785,-77 1932,-77 1932,-118"/>
<text text-anchor="start" x="1793" y="-106" font-family="Helvetica,sans-Serif" font-size="10.00">/home/runner/work/occ</text>
<text text-anchor="start" x="1793" y="-95" font-family="Helvetica,sans-Serif" font-size="10.00">/occ/include/occ/isosurface</text>
<text text-anchor="middle" x="1858.5" y="-84" font-family="Helvetica,sans-Serif" font-size="10.00">/point_functors.h</text>
</a>
</g>
</g>
<!-- Node22&#45;&gt;Node26 -->
<g id="edge33_Node000022_Node000026" class="edge">
<title>Node22&#45;&gt;Node26</title>
<g id="a_edge33_Node000022_Node000026"><a xlink:title=" ">
<path fill="none" stroke="#63b8ff" d="M1770.86,-226.73C1776.2,-206.29 1785.75,-176.63 1800.5,-154 1809.25,-140.57 1821.85,-128.01 1833.06,-118.24"/>
<polygon fill="#63b8ff" stroke="#63b8ff" points="1767.45,-225.94 1768.44,-236.48 1774.24,-227.62 1767.45,-225.94"/>
</a>
</g>
</g>
<!-- Node27 -->
<g id="Node000027" class="node">
<title>Node27</title>
<g id="a_Node000027"><a xlink:href="electric__potential_8h.html" target="_top" xlink:title=" ">
<polygon fill="white" stroke="#666666" points="1753,-195 1606,-195 1606,-154 1753,-154 1753,-195"/>
<text text-anchor="start" x="1614" y="-183" font-family="Helvetica,sans-Serif" font-size="10.00">/home/runner/work/occ</text>
<text text-anchor="start" x="1614" y="-172" font-family="Helvetica,sans-Serif" font-size="10.00">/occ/include/occ/isosurface</text>
<text text-anchor="middle" x="1679.5" y="-161" font-family="Helvetica,sans-Serif" font-size="10.00">/electric_potential.h</text>
</a>
</g>
</g>
<!-- Node22&#45;&gt;Node27 -->
<g id="edge28_Node000022_Node000027" class="edge">
<title>Node22&#45;&gt;Node27</title>
<g id="a_edge28_Node000022_Node000027"><a xlink:title=" ">
<path fill="none" stroke="#63b8ff" d="M1741.64,-229.69C1729.28,-218.91 1714.27,-205.82 1702.09,-195.2"/>
<polygon fill="#63b8ff" stroke="#63b8ff" points="1739.49,-232.46 1749.32,-236.39 1744.09,-227.18 1739.49,-232.46"/>
</a>
</g>
</g>
<!-- Node24 -->
<g id="Node000024" class="node">
<title>Node24</title>
<g id="a_Node000024"><a xlink:href="smd__solvation_8h.html" target="_top" xlink:title=" ">
<polygon fill="white" stroke="#666666" points="2096.5,-118 1964.5,-118 1964.5,-77 2096.5,-77 2096.5,-118"/>
<text text-anchor="start" x="1972.5" y="-106" font-family="Helvetica,sans-Serif" font-size="10.00">/home/runner/work/occ</text>
<text text-anchor="start" x="1972.5" y="-95" font-family="Helvetica,sans-Serif" font-size="10.00">/occ/include/occ/cg/smd</text>
<text text-anchor="middle" x="2030.5" y="-84" font-family="Helvetica,sans-Serif" font-size="10.00">_solvation.h</text>
</a>
</g>
</g>
<!-- Node23&#45;&gt;Node24 -->
<g id="edge25_Node000023_Node000024" class="edge">
<title>Node23&#45;&gt;Node24</title>
<g id="a_edge25_Node000023_Node000024"><a xlink:title=" ">
<path fill="none" stroke="#63b8ff" d="M1914.59,-154.95C1937.62,-143.73 1966.94,-129.45 1990.33,-118.06"/>
<polygon fill="#63b8ff" stroke="#63b8ff" points="1912.92,-151.87 1905.47,-159.39 1915.99,-158.16 1912.92,-151.87"/>
</a>
</g>
</g>
<!-- Node23&#45;&gt;Node26 -->
<g id="edge27_Node000023_Node000026" class="edge">
<title>Node23&#45;&gt;Node26</title>
<g id="a_edge27_Node000023_Node000026"><a xlink:title=" ">
<path fill="none" stroke="#63b8ff" d="M1870.75,-149.55C1868.33,-139.44 1865.53,-127.81 1863.23,-118.2"/>
<polygon fill="#63b8ff" stroke="#63b8ff" points="1867.38,-150.49 1873.11,-159.39 1874.18,-148.85 1867.38,-150.49"/>
</a>
</g>
</g>
<!-- Node25 -->
<g id="Node000025" class="node">
<title>Node25</title>
<g id="a_Node000025"><a xlink:href="crystal__growth_8h.html" target="_top" xlink:title=" ">
<polygon fill="white" stroke="#666666" points="2094.5,-41 1966.5,-41 1966.5,0 2094.5,0 2094.5,-41"/>
<text text-anchor="start" x="1974.5" y="-29" font-family="Helvetica,sans-Serif" font-size="10.00">/home/runner/work/occ</text>
<text text-anchor="start" x="1974.5" y="-18" font-family="Helvetica,sans-Serif" font-size="10.00">/occ/include/occ/driver</text>
<text text-anchor="middle" x="2030.5" y="-7" font-family="Helvetica,sans-Serif" font-size="10.00">/crystal_growth.h</text>
</a>
</g>
</g>
<!-- Node24&#45;&gt;Node25 -->
<g id="edge26_Node000024_Node000025" class="edge">
<title>Node24&#45;&gt;Node25</title>
<g id="a_edge26_Node000024_Node000025"><a xlink:title=" ">
<path fill="none" stroke="#63b8ff" d="M2030.5,-66.69C2030.5,-58.08 2030.5,-48.9 2030.5,-41.07"/>
<polygon fill="#63b8ff" stroke="#63b8ff" points="2027,-66.79 2030.5,-76.79 2034,-66.79 2027,-66.79"/>
</a>
</g>
</g>
<!-- Node28 -->
<g id="Node000028" class="node">
<title>Node28</title>
<g id="a_Node000028"><a xlink:href="isosurface_8h.html" target="_top" xlink:title=" ">
<polygon fill="white" stroke="#666666" points="1753,-118 1606,-118 1606,-77 1753,-77 1753,-118"/>
<text text-anchor="start" x="1614" y="-106" font-family="Helvetica,sans-Serif" font-size="10.00">/home/runner/work/occ</text>
<text text-anchor="start" x="1614" y="-95" font-family="Helvetica,sans-Serif" font-size="10.00">/occ/include/occ/isosurface</text>
<text text-anchor="middle" x="1679.5" y="-84" font-family="Helvetica,sans-Serif" font-size="10.00">/isosurface.h</text>
</a>
</g>
</g>
<!-- Node27&#45;&gt;Node28 -->
<g id="edge29_Node000027_Node000028" class="edge">
<title>Node27&#45;&gt;Node28</title>
<g id="a_edge29_Node000027_Node000028"><a xlink:title=" ">
<path fill="none" stroke="#63b8ff" d="M1679.5,-143.69C1679.5,-135.08 1679.5,-125.9 1679.5,-118.07"/>
<polygon fill="#63b8ff" stroke="#63b8ff" points="1676,-143.79 1679.5,-153.79 1683,-143.79 1676,-143.79"/>
</a>
</g>
</g>
<!-- Node29 -->
<g id="Node000029" class="node">
<title>Node29</title>
<g id="a_Node000029"><a xlink:href="isosurface__json_8h.html" target="_top" xlink:title=" ">
<polygon fill="white" stroke="#666666" points="1753,-41 1606,-41 1606,0 1753,0 1753,-41"/>
<text text-anchor="start" x="1614" y="-29" font-family="Helvetica,sans-Serif" font-size="10.00">/home/runner/work/occ</text>
<text text-anchor="start" x="1614" y="-18" font-family="Helvetica,sans-Serif" font-size="10.00">/occ/include/occ/isosurface</text>
<text text-anchor="middle" x="1679.5" y="-7" font-family="Helvetica,sans-Serif" font-size="10.00">/isosurface_json.h</text>
</a>
</g>
</g>
<!-- Node28&#45;&gt;Node29 -->
<g id="edge30_Node000028_Node000029" class="edge">
<title>Node28&#45;&gt;Node29</title>
<g id="a_edge30_Node000028_Node000029"><a xlink:title=" ">
<path fill="none" stroke="#63b8ff" d="M1679.5,-66.69C1679.5,-58.08 1679.5,-48.9 1679.5,-41.07"/>
<polygon fill="#63b8ff" stroke="#63b8ff" points="1676,-66.79 1679.5,-76.79 1683,-66.79 1676,-66.79"/>
</a>
</g>
</g>
<!-- Node30 -->
<g id="Node000030" class="node">
<title>Node30</title>
<g id="a_Node000030"><a xlink:href="obj_8h.html" target="_top" xlink:title=" ">
<polygon fill="white" stroke="#666666" points="1945.5,-35.5 1771.5,-35.5 1771.5,-5.5 1945.5,-5.5 1945.5,-35.5"/>
<text text-anchor="start" x="1779.5" y="-23.5" font-family="Helvetica,sans-Serif" font-size="10.00">/home/runner/work/occ</text>
<text text-anchor="middle" x="1858.5" y="-12.5" font-family="Helvetica,sans-Serif" font-size="10.00">/occ/include/occ/isosurface/obj.h</text>
</a>
</g>
</g>
<!-- Node28&#45;&gt;Node30 -->
<g id="edge31_Node000028_Node000030" class="edge">
<title>Node28&#45;&gt;Node30</title>
<g id="a_edge31_Node000028_Node000030"><a xlink:title=" ">
<path fill="none" stroke="#63b8ff" d="M1735.37,-73.09C1764.73,-60.79 1799.72,-46.13 1824.89,-35.58"/>
<polygon fill="#63b8ff" stroke="#63b8ff" points="1733.93,-69.9 1726.06,-76.99 1736.64,-76.35 1733.93,-69.9"/>
</a>
</g>
</g>
<!-- Node31 -->
<g id="Node000031" class="node">
<title>Node31</title>
<g id="a_Node000031"><a xlink:href="ply_8h.html" target="_top" xlink:title=" ">
<polygon fill="white" stroke="#666666" points="1588,-35.5 1415,-35.5 1415,-5.5 1588,-5.5 1588,-35.5"/>
<text text-anchor="start" x="1423" y="-23.5" font-family="Helvetica,sans-Serif" font-size="10.00">/home/runner/work/occ</text>
<text text-anchor="middle" x="1501.5" y="-12.5" font-family="Helvetica,sans-Serif" font-size="10.00">/occ/include/occ/isosurface/ply.h</text>
</a>
</g>
</g>
<!-- Node28&#45;&gt;Node31 -->
<g id="edge32_Node000028_Node000031" class="edge">
<title>Node28&#45;&gt;Node31</title>
<g id="a_edge32_Node000028_Node000031"><a xlink:title=" ">
<path fill="none" stroke="#63b8ff" d="M1623.94,-73.09C1594.75,-60.79 1559.95,-46.13 1534.92,-35.58"/>
<polygon fill="#63b8ff" stroke="#63b8ff" points="1622.62,-76.33 1633.2,-76.99 1625.34,-69.88 1622.62,-76.33"/>
</a>
</g>
</g>
<!-- Node32&#45;&gt;Node21 -->
<g id="edge37_Node000032_Node000021" class="edge">
<title>Node32&#45;&gt;Node21</title>
<g id="a_edge37_Node000032_Node000021"><a xlink:title=" ">
<path fill="none" stroke="#63b8ff" d="M1666.18,-297.76C1668.41,-276.6 1667.38,-248.86 1651.5,-231 1630.34,-207.2 1556.44,-192.93 1492.81,-184.83"/>
<polygon fill="#63b8ff" stroke="#63b8ff" points="1662.69,-297.47 1664.83,-307.85 1669.63,-298.4 1662.69,-297.47"/>
</a>
</g>
</g>
<!-- Node32&#45;&gt;Node22 -->
<g id="edge38_Node000032_Node000022" class="edge">
<title>Node32&#45;&gt;Node22</title>
<g id="a_edge38_Node000032_Node000022"><a xlink:title=" ">
<path fill="none" stroke="#63b8ff" d="M1696.18,-302.01C1712.7,-290.22 1731.69,-276.65 1745.62,-266.7"/>
<polygon fill="#63b8ff" stroke="#63b8ff" points="1693.92,-299.33 1687.81,-307.99 1697.99,-305.03 1693.92,-299.33"/>
</a>
</g>
</g>
<!-- Node33 -->
<g id="Node000033" class="node">
<title>Node33</title>
<g id="a_Node000033"><a xlink:href="acceleration_8h.html" target="_top" xlink:title=" ">
<polygon fill="white" stroke="#666666" points="1642.5,-272 1514.5,-272 1514.5,-231 1642.5,-231 1642.5,-272"/>
<text text-anchor="start" x="1522.5" y="-260" font-family="Helvetica,sans-Serif" font-size="10.00">/home/runner/work/occ</text>
<text text-anchor="start" x="1522.5" y="-249" font-family="Helvetica,sans-Serif" font-size="10.00">/occ/include/occ/driver</text>
<text text-anchor="middle" x="1578.5" y="-238" font-family="Helvetica,sans-Serif" font-size="10.00">/acceleration.h</text>
</a>
</g>
</g>
<!-- Node32&#45;&gt;Node33 -->
<g id="edge35_Node000032_Node000033" class="edge">
<title>Node32&#45;&gt;Node33</title>
<g id="a_edge35_Node000032_Node000033"><a xlink:title=" ">
<path fill="none" stroke="#63b8ff" d="M1631.3,-300.79C1620.94,-291.32 1609.49,-280.84 1599.9,-272.07"/>
<polygon fill="#63b8ff" stroke="#63b8ff" points="1629.21,-303.63 1638.96,-307.79 1633.94,-298.46 1629.21,-303.63"/>
</a>
</g>
</g>
<!-- Node34 -->
<g id="Node000034" class="node">
<title>Node34</title>
<g id="a_Node000034"><a xlink:href="df__integrals_8h.html" target="_top" xlink:title=" ">
<polygon fill="white" stroke="#666666" points="2018.5,-272 1850.5,-272 1850.5,-231 2018.5,-231 2018.5,-272"/>
<text text-anchor="start" x="1858.5" y="-260" font-family="Helvetica,sans-Serif" font-size="10.00">/home/runner/work/occ</text>
<text text-anchor="start" x="1858.5" y="-249" font-family="Helvetica,sans-Serif" font-size="10.00">/occ/include/occ/qm/correlation</text>
<text text-anchor="middle" x="1934.5" y="-238" font-family="Helvetica,sans-Serif" font-size="10.00">/df_integrals.h</text>
</a>
</g>
</g>
<!-- Node32&#45;&gt;Node34 -->
<g id="edge36_Node000032_Node000034" class="edge">
<title>Node32&#45;&gt;Node34</title>
<g id="a_edge36_Node000032_Node000034"><a xlink:title=" ">
<path fill="none" stroke="#63b8ff" d="M1741.43,-305.35C1780.03,-294.78 1825.81,-282.25 1863.11,-272.04"/>
<polygon fill="#63b8ff" stroke="#63b8ff" points="1740.5,-301.97 1731.78,-307.99 1742.34,-308.73 1740.5,-301.97"/>
</a>
</g>
</g>
<!-- Node35&#45;&gt;Node22 -->
<g id="edge42_Node000035_Node000022" class="edge">
<title>Node35&#45;&gt;Node22</title>
<g id="a_edge42_Node000035_Node000022"><a xlink:title=" ">
<path fill="none" stroke="#63b8ff" d="M1549.59,-305.59C1600.78,-293 1663.59,-277.56 1708.23,-266.58"/>
<polygon fill="#63b8ff" stroke="#63b8ff" points="1548.71,-302.2 1539.84,-307.99 1550.39,-309 1548.71,-302.2"/>
</a>
</g>
</g>
<!-- Node35&#45;&gt;Node33 -->
<g id="edge41_Node000035_Node000033" class="edge">
<title>Node35&#45;&gt;Node33</title>
<g id="a_edge41_Node000035_Node000033"><a xlink:title=" ">
<path fill="none" stroke="#63b8ff" d="M1500.04,-302.37C1515.52,-292.53 1533.01,-281.41 1547.55,-272.17"/>
<polygon fill="#63b8ff" stroke="#63b8ff" points="1497.76,-299.67 1491.2,-307.99 1501.51,-305.58 1497.76,-299.67"/>
</a>
</g>
</g>
<!-- Node36 -->
<g id="Node000036" class="node">
<title>Node36</title>
<g id="a_Node000036"><a xlink:href="dft_2seminumerical__exchange_8h.html" target="_top" xlink:title=" ">
<polygon fill="white" stroke="#666666" points="1496.5,-272 1342.5,-272 1342.5,-231 1496.5,-231 1496.5,-272"/>
<text text-anchor="start" x="1350.5" y="-260" font-family="Helvetica,sans-Serif" font-size="10.00">/home/runner/work/occ</text>
<text text-anchor="start" x="1350.5" y="-249" font-family="Helvetica,sans-Serif" font-size="10.00">/occ/include/occ/dft</text>
<text text-anchor="middle" x="1419.5" y="-238" font-family="Helvetica,sans-Serif" font-size="10.00">/seminumerical_exchange.h</text>
</a>
</g>
</g>
<!-- Node35&#45;&gt;Node36 -->
<g id="edge40_Node000035_Node000036" class="edge">
<title>Node35&#45;&gt;Node36</title>
<g id="a_edge40_Node000035_Node000036"><a xlink:title=" ">
<path fill="none" stroke="#63b8ff" d="M1444.83,-298.83C1439.94,-289.89 1434.66,-280.24 1430.2,-272.07"/>
<polygon fill="#63b8ff" stroke="#63b8ff" points="1441.86,-300.7 1449.73,-307.79 1448,-297.34 1441.86,-300.7"/>
</a>
</g>
</g>
<!-- Node38 -->
<g id="Node000038" class="node">
<title>Node38</title>
<g id="a_Node000038"><a xlink:href="xtb__calculator_8h.html" target="_top" xlink:title=" ">
<polygon fill="white" stroke="#666666" points="224.5,-272 96.5,-272 96.5,-231 224.5,-231 224.5,-272"/>
<text text-anchor="start" x="104.5" y="-260" font-family="Helvetica,sans-Serif" font-size="10.00">/home/runner/work/occ</text>
<text text-anchor="start" x="104.5" y="-249" font-family="Helvetica,sans-Serif" font-size="10.00">/occ/include/occ/xtb</text>
<text text-anchor="middle" x="160.5" y="-238" font-family="Helvetica,sans-Serif" font-size="10.00">/xtb_calculator.h</text>
</a>
</g>
</g>
<!-- Node37&#45;&gt;Node38 -->
<g id="edge44_Node000037_Node000038" class="edge">
<title>Node37&#45;&gt;Node38</title>
<g id="a_edge44_Node000037_Node000038"><a xlink:title=" ">
<path fill="none" stroke="#63b8ff" d="M218.47,-301.35C207.05,-291.73 194.34,-281.01 183.73,-272.07"/>
<polygon fill="#63b8ff" stroke="#63b8ff" points="216.21,-304.03 226.12,-307.79 220.72,-298.67 216.21,-304.03"/>
</a>
</g>
</g>
<!-- Node39&#45;&gt;Node38 -->
<g id="edge46_Node000039_Node000038" class="edge">
<title>Node39&#45;&gt;Node38</title>
<g id="a_edge46_Node000039_Node000038"><a xlink:title=" ">
<path fill="none" stroke="#63b8ff" d="M331.82,-304.94C297.58,-294.46 257.26,-282.12 224.34,-272.04"/>
<polygon fill="#63b8ff" stroke="#63b8ff" points="331.18,-308.41 341.77,-307.99 333.23,-301.72 331.18,-308.41"/>
</a>
</g>
</g>
<!-- Node42&#45;&gt;Node3 -->
<g id="edge50_Node000042_Node000003" class="edge">
<title>Node42&#45;&gt;Node3</title>
<g id="a_edge50_Node000042_Node000003"><a xlink:title=" ">
<path fill="none" stroke="#63b8ff" d="M598.95,-398.09C499.69,-389.55 324.94,-372.71 176.5,-349 166.73,-347.44 156.42,-345.54 146.38,-343.54"/>
<polygon fill="#63b8ff" stroke="#63b8ff" points="598.93,-401.61 609.2,-398.97 599.53,-394.63 598.93,-401.61"/>
</a>
</g>
</g>
<!-- Node43&#45;&gt;Node24 -->
<g id="edge52_Node000043_Node000024" class="edge">
<title>Node43&#45;&gt;Node24</title>
<g id="a_edge52_Node000043_Node000024"><a xlink:title=" ">
<path fill="none" stroke="#63b8ff" d="M1698.3,-404.26C1793.2,-399.33 1951.41,-374.99 2027.5,-272 2061.42,-226.08 2046.77,-153.08 2036.87,-118.25"/>
<polygon fill="#63b8ff" stroke="#63b8ff" points="1698.02,-400.77 1688.19,-404.72 1698.34,-407.76 1698.02,-400.77"/>
</a>
</g>
</g>
</g>
</svg>
