<?xml version="1.0" encoding="UTF-8" standalone="no"?>
<!DOCTYPE svg PUBLIC "-//W3C//DTD SVG 1.1//EN"
 "http://www.w3.org/Graphics/SVG/1.1/DTD/svg11.dtd">
<!-- Generated by graphviz version 2.43.0 (0)
 -->
<!-- Title: /home/runner/work/occ/occ/include/occ/qm/expectation.h Pages: 1 -->
<svg width="824pt" height="274pt"
 viewBox="0.00 0.00 824.00 274.00" xmlns="http://www.w3.org/2000/svg" xmlns:xlink="http://www.w3.org/1999/xlink">
<g id="graph0" class="graph" transform="scale(1 1) rotate(0) translate(4 270)">
<title>/home/runner/work/occ/occ/include/occ/qm/expectation.h</title>
<!-- Node1 -->
<g id="node1" class="node">
<title>Node1</title>
<g id="a_node1"><a xlink:title=" ">
<polygon fill="#bfbfbf" stroke="black" points="425.5,-235.5 425.5,-265.5 607.5,-265.5 607.5,-235.5 425.5,-235.5"/>
<text text-anchor="start" x="433.5" y="-253.5" font-family="Helvetica,sans-Serif" font-size="10.00">/home/runner/work/occ</text>
<text text-anchor="middle" x="516.5" y="-242.5" font-family="Helvetica,sans-Serif" font-size="10.00">/occ/include/occ/qm/expectation.h</text>
</a>
</g>
</g>
<!-- Node2 -->
<g id="node2" class="node">
<title>Node2</title>
<g id="a_node2"><a xlink:href="spinorbital_8h.html" target="_top" xlink:title=" ">
<polygon fill="none" stroke="black" points="458.5,-179.5 458.5,-198.5 574.5,-198.5 574.5,-179.5 458.5,-179.5"/>
<text text-anchor="middle" x="516.5" y="-186.5" font-family="Helvetica,sans-Serif" font-size="10.00">occ/qm/spinorbital.h</text>
</a>
</g>
</g>
<!-- Node1&#45;&gt;Node2 -->
<g id="edge1" class="edge">
<title>Node1&#45;&gt;Node2</title>
<path fill="none" stroke="midnightblue" d="M516.5,-235.4C516.5,-227.47 516.5,-217.46 516.5,-208.86"/>
<polygon fill="midnightblue" stroke="midnightblue" points="520,-208.66 516.5,-198.66 513,-208.66 520,-208.66"/>
</g>
<!-- Node3 -->
<g id="node3" class="node">
<title>Node3</title>
<g id="a_node3"><a xlink:href="linear__algebra_8h.html" target="_top" xlink:title=" ">
<polygon fill="none" stroke="black" points="72,-67.5 72,-86.5 211,-86.5 211,-67.5 72,-67.5"/>
<text text-anchor="middle" x="141.5" y="-74.5" font-family="Helvetica,sans-Serif" font-size="10.00">occ/core/linear_algebra.h</text>
</a>
</g>
</g>
<!-- Node2&#45;&gt;Node3 -->
<g id="edge2" class="edge">
<title>Node2&#45;&gt;Node3</title>
<path fill="none" stroke="midnightblue" d="M487.39,-179.46C420.58,-159.86 256.21,-111.65 180.65,-89.48"/>
<polygon fill="midnightblue" stroke="midnightblue" points="181.18,-85.99 170.6,-86.53 179.21,-92.71 181.18,-85.99"/>
</g>
<!-- Node7 -->
<g id="node7" class="node">
<title>Node7</title>
<g id="a_node7"><a xlink:href="util_8h.html" target="_top" xlink:title=" ">
<polygon fill="none" stroke="black" points="417,-123.5 417,-142.5 502,-142.5 502,-123.5 417,-123.5"/>
<text text-anchor="middle" x="459.5" y="-130.5" font-family="Helvetica,sans-Serif" font-size="10.00">occ/core/util.h</text>
</a>
</g>
</g>
<!-- Node2&#45;&gt;Node7 -->
<g id="edge6" class="edge">
<title>Node2&#45;&gt;Node7</title>
<path fill="none" stroke="midnightblue" d="M507.34,-179.32C499,-171.42 486.47,-159.55 476.32,-149.94"/>
<polygon fill="midnightblue" stroke="midnightblue" points="478.49,-147.17 468.82,-142.83 473.68,-152.25 478.49,-147.17"/>
</g>
<!-- Node16 -->
<g id="node16" class="node">
<title>Node16</title>
<g id="a_node16"><a xlink:href="qm_2opmatrix_8h.html" target="_top" xlink:title=" ">
<polygon fill="none" stroke="black" points="520.5,-123.5 520.5,-142.5 628.5,-142.5 628.5,-123.5 520.5,-123.5"/>
<text text-anchor="middle" x="574.5" y="-130.5" font-family="Helvetica,sans-Serif" font-size="10.00">occ/qm/opmatrix.h</text>
</a>
</g>
</g>
<!-- Node2&#45;&gt;Node16 -->
<g id="edge16" class="edge">
<title>Node2&#45;&gt;Node16</title>
<path fill="none" stroke="midnightblue" d="M520.91,-179.08C527.9,-170.98 540.59,-158.87 551.99,-149.23"/>
<polygon fill="midnightblue" stroke="midnightblue" points="554.42,-151.77 559.97,-142.75 550,-146.34 554.42,-151.77"/>
</g>
<!-- Node4 -->
<g id="node4" class="node">
<title>Node4</title>
<g id="a_node4"><a xlink:title=" ">
<polygon fill="none" stroke="#bfbfbf" points="0,-6 0,-25 77,-25 77,-6 0,-6"/>
<text text-anchor="middle" x="38.5" y="-13" font-family="Helvetica,sans-Serif" font-size="10.00">Eigen/Dense</text>
</a>
</g>
</g>
<!-- Node3&#45;&gt;Node4 -->
<g id="edge3" class="edge">
<title>Node3&#45;&gt;Node4</title>
<path fill="none" stroke="midnightblue" d="M126.74,-67.48C109.84,-57.71 81.92,-41.58 62.01,-30.08"/>
<polygon fill="midnightblue" stroke="midnightblue" points="63.64,-26.98 53.23,-25.01 60.14,-33.04 63.64,-26.98"/>
</g>
<!-- Node5 -->
<g id="node5" class="node">
<title>Node5</title>
<g id="a_node5"><a xlink:title=" ">
<polygon fill="none" stroke="#bfbfbf" points="95,-6 95,-25 188,-25 188,-6 95,-6"/>
<text text-anchor="middle" x="141.5" y="-13" font-family="Helvetica,sans-Serif" font-size="10.00">Eigen/StdVector</text>
</a>
</g>
</g>
<!-- Node3&#45;&gt;Node5 -->
<g id="edge4" class="edge">
<title>Node3&#45;&gt;Node5</title>
<path fill="none" stroke="midnightblue" d="M141.5,-67.48C141.5,-59.08 141.5,-45.98 141.5,-35.16"/>
<polygon fill="midnightblue" stroke="midnightblue" points="145,-35.01 141.5,-25.01 138,-35.01 145,-35.01"/>
</g>
<!-- Node6 -->
<g id="node6" class="node">
<title>Node6</title>
<g id="a_node6"><a xlink:title=" ">
<polygon fill="none" stroke="#bfbfbf" points="206,-0.5 206,-30.5 313,-30.5 313,-0.5 206,-0.5"/>
<text text-anchor="start" x="214" y="-18.5" font-family="Helvetica,sans-Serif" font-size="10.00">occ/3rdparty/eigen</text>
<text text-anchor="middle" x="259.5" y="-7.5" font-family="Helvetica,sans-Serif" font-size="10.00">&#45;fmt/fmt.h</text>
</a>
</g>
</g>
<!-- Node3&#45;&gt;Node6 -->
<g id="edge5" class="edge">
<title>Node3&#45;&gt;Node6</title>
<path fill="none" stroke="midnightblue" d="M158.41,-67.48C175.06,-59.08 201.05,-45.97 222.51,-35.15"/>
<polygon fill="midnightblue" stroke="midnightblue" points="224.34,-38.15 231.69,-30.52 221.18,-31.9 224.34,-38.15"/>
</g>
<!-- Node7&#45;&gt;Node3 -->
<g id="edge13" class="edge">
<title>Node7&#45;&gt;Node3</title>
<path fill="none" stroke="midnightblue" d="M416.94,-124.77C361.63,-115.38 264.71,-98.92 201.83,-88.25"/>
<polygon fill="midnightblue" stroke="midnightblue" points="202.1,-84.74 191.66,-86.52 200.93,-91.64 202.1,-84.74"/>
</g>
<!-- Node8 -->
<g id="node8" class="node">
<title>Node8</title>
<g id="a_node8"><a xlink:title=" ">
<polygon fill="none" stroke="#bfbfbf" points="229.5,-67.5 229.5,-86.5 293.5,-86.5 293.5,-67.5 229.5,-67.5"/>
<text text-anchor="middle" x="261.5" y="-74.5" font-family="Helvetica,sans-Serif" font-size="10.00">algorithm</text>
</a>
</g>
</g>
<!-- Node7&#45;&gt;Node8 -->
<g id="edge7" class="edge">
<title>Node7&#45;&gt;Node8</title>
<path fill="none" stroke="midnightblue" d="M428.13,-123.44C394.24,-114.2 340.1,-99.44 302.78,-89.26"/>
<polygon fill="midnightblue" stroke="midnightblue" points="303.3,-85.77 292.73,-86.52 301.45,-92.52 303.3,-85.77"/>
</g>
<!-- Node9 -->
<g id="node9" class="node">
<title>Node9</title>
<g id="a_node9"><a xlink:title=" ">
<polygon fill="none" stroke="#bfbfbf" points="312,-67.5 312,-86.5 361,-86.5 361,-67.5 312,-67.5"/>
<text text-anchor="middle" x="336.5" y="-74.5" font-family="Helvetica,sans-Serif" font-size="10.00">cctype</text>
</a>
</g>
</g>
<!-- Node7&#45;&gt;Node9 -->
<g id="edge8" class="edge">
<title>Node7&#45;&gt;Node9</title>
<path fill="none" stroke="midnightblue" d="M440.01,-123.44C419.86,-114.6 388.18,-100.69 365.17,-90.59"/>
<polygon fill="midnightblue" stroke="midnightblue" points="366.46,-87.33 355.9,-86.52 363.65,-93.74 366.46,-87.33"/>
</g>
<!-- Node10 -->
<g id="node10" class="node">
<title>Node10</title>
<g id="a_node10"><a xlink:title=" ">
<polygon fill="none" stroke="#bfbfbf" points="379,-67.5 379,-86.5 446,-86.5 446,-67.5 379,-67.5"/>
<text text-anchor="middle" x="412.5" y="-74.5" font-family="Helvetica,sans-Serif" font-size="10.00">fmt/core.h</text>
</a>
</g>
</g>
<!-- Node7&#45;&gt;Node10 -->
<g id="edge9" class="edge">
<title>Node7&#45;&gt;Node10</title>
<path fill="none" stroke="midnightblue" d="M451.74,-123.08C444.96,-115.3 434.96,-103.8 426.74,-94.37"/>
<polygon fill="midnightblue" stroke="midnightblue" points="429.32,-92 420.12,-86.75 424.04,-96.59 429.32,-92"/>
</g>
<!-- Node11 -->
<g id="node11" class="node">
<title>Node11</title>
<g id="a_node11"><a xlink:title=" ">
<polygon fill="none" stroke="#bfbfbf" points="464.5,-67.5 464.5,-86.5 550.5,-86.5 550.5,-67.5 464.5,-67.5"/>
<text text-anchor="middle" x="507.5" y="-74.5" font-family="Helvetica,sans-Serif" font-size="10.00">fmt/ostream.h</text>
</a>
</g>
</g>
<!-- Node7&#45;&gt;Node11 -->
<g id="edge10" class="edge">
<title>Node7&#45;&gt;Node11</title>
<path fill="none" stroke="midnightblue" d="M467.43,-123.08C474.35,-115.3 484.57,-103.8 492.95,-94.37"/>
<polygon fill="midnightblue" stroke="midnightblue" points="495.69,-96.55 499.72,-86.75 490.46,-91.9 495.69,-96.55"/>
</g>
<!-- Node12 -->
<g id="node12" class="node">
<title>Node12</title>
<g id="a_node12"><a xlink:title=" ">
<polygon fill="none" stroke="#bfbfbf" points="568.5,-67.5 568.5,-86.5 614.5,-86.5 614.5,-67.5 568.5,-67.5"/>
<text text-anchor="middle" x="591.5" y="-74.5" font-family="Helvetica,sans-Serif" font-size="10.00">locale</text>
</a>
</g>
</g>
<!-- Node7&#45;&gt;Node12 -->
<g id="edge11" class="edge">
<title>Node7&#45;&gt;Node12</title>
<path fill="none" stroke="midnightblue" d="M480.42,-123.44C502.24,-114.52 536.65,-100.44 561.39,-90.32"/>
<polygon fill="midnightblue" stroke="midnightblue" points="562.75,-93.54 570.68,-86.52 560.1,-87.06 562.75,-93.54"/>
</g>
<!-- Node13 -->
<g id="node13" class="node">
<title>Node13</title>
<g id="a_node13"><a xlink:title=" ">
<polygon fill="none" stroke="#bfbfbf" points="632.5,-67.5 632.5,-86.5 688.5,-86.5 688.5,-67.5 632.5,-67.5"/>
<text text-anchor="middle" x="660.5" y="-74.5" font-family="Helvetica,sans-Serif" font-size="10.00">numeric</text>
</a>
</g>
</g>
<!-- Node7&#45;&gt;Node13 -->
<g id="edge12" class="edge">
<title>Node7&#45;&gt;Node13</title>
<path fill="none" stroke="midnightblue" d="M491.35,-123.44C527.02,-113.86 584.78,-98.34 622.71,-88.15"/>
<polygon fill="midnightblue" stroke="midnightblue" points="623.62,-91.53 632.37,-85.56 621.8,-84.77 623.62,-91.53"/>
</g>
<!-- Node14 -->
<g id="node14" class="node">
<title>Node14</title>
<g id="a_node14"><a xlink:title=" ">
<polygon fill="none" stroke="#bfbfbf" points="706.5,-67.5 706.5,-86.5 750.5,-86.5 750.5,-67.5 706.5,-67.5"/>
<text text-anchor="middle" x="728.5" y="-74.5" font-family="Helvetica,sans-Serif" font-size="10.00">string</text>
</a>
</g>
</g>
<!-- Node7&#45;&gt;Node14 -->
<g id="edge14" class="edge">
<title>Node7&#45;&gt;Node14</title>
<path fill="none" stroke="midnightblue" d="M502.18,-124.44C556.29,-114.77 647.51,-98.18 696.21,-87.09"/>
<polygon fill="midnightblue" stroke="midnightblue" points="697.28,-90.44 706.22,-84.75 695.68,-83.62 697.28,-90.44"/>
</g>
<!-- Node15 -->
<g id="node15" class="node">
<title>Node15</title>
<g id="a_node15"><a xlink:title=" ">
<polygon fill="none" stroke="#bfbfbf" points="769,-67.5 769,-86.5 816,-86.5 816,-67.5 769,-67.5"/>
<text text-anchor="middle" x="792.5" y="-74.5" font-family="Helvetica,sans-Serif" font-size="10.00">vector</text>
</a>
</g>
</g>
<!-- Node7&#45;&gt;Node15 -->
<g id="edge15" class="edge">
<title>Node7&#45;&gt;Node15</title>
<path fill="none" stroke="midnightblue" d="M502.05,-124.54C505.25,-124.01 508.42,-123.49 511.5,-123 618.38,-106 648.75,-109.47 758.95,-86.88"/>
<polygon fill="midnightblue" stroke="midnightblue" points="759.71,-90.3 768.79,-84.84 758.29,-83.44 759.71,-90.3"/>
</g>
<!-- Node16&#45;&gt;Node2 -->
<g id="edge17" class="edge">
<title>Node16&#45;&gt;Node2</title>
<path fill="none" stroke="midnightblue" d="M570.16,-142.83C563.17,-150.95 550.4,-163.15 538.94,-172.82"/>
<polygon fill="midnightblue" stroke="midnightblue" points="536.49,-170.3 530.93,-179.32 540.9,-175.74 536.49,-170.3"/>
</g>
</g>
</svg>
