<?xml version="1.0" encoding="UTF-8" standalone="no"?>
<!DOCTYPE svg PUBLIC "-//W3C//DTD SVG 1.1//EN"
 "http://www.w3.org/Graphics/SVG/1.1/DTD/svg11.dtd">
<!-- Generated by graphviz version 2.43.0 (0)
 -->
<!-- Title: /home/runner/work/occ/occ/include/occ/qm/expectation.h Pages: 1 -->
<svg width="987pt" height="500pt"
 viewBox="0.00 0.00 986.50 500.00" xmlns="http://www.w3.org/2000/svg" xmlns:xlink="http://www.w3.org/1999/xlink">
<g id="graph0" class="graph" transform="scale(1 1) rotate(0) translate(4 496)">
<title>/home/runner/work/occ/occ/include/occ/qm/expectation.h</title>
<!-- Node1 -->
<g id="Node000001" class="node">
<title>Node1</title>
<g id="a_Node000001"><a xlink:title=" ">
<polygon fill="#999999" stroke="#666666" points="530,-492 348,-492 348,-462 530,-462 530,-492"/>
<text text-anchor="start" x="356" y="-480" font-family="Helvetica,sans-Serif" font-size="10.00">/home/runner/work/occ</text>
<text text-anchor="middle" x="439" y="-469" font-family="Helvetica,sans-Serif" font-size="10.00">/occ/include/occ/qm/expectation.h</text>
</a>
</g>
</g>
<!-- Node2 -->
<g id="Node000002" class="node">
<title>Node2</title>
<g id="a_Node000002"><a xlink:href="external__potential_8h.html" target="_top" xlink:title=" ">
<polygon fill="white" stroke="#666666" points="156,-426 0,-426 0,-385 156,-385 156,-426"/>
<text text-anchor="start" x="8" y="-414" font-family="Helvetica,sans-Serif" font-size="10.00">/home/runner/work/occ</text>
<text text-anchor="start" x="8" y="-403" font-family="Helvetica,sans-Serif" font-size="10.00">/occ/include/occ/qm/external</text>
<text text-anchor="middle" x="78" y="-392" font-family="Helvetica,sans-Serif" font-size="10.00">_potential.h</text>
</a>
</g>
</g>
<!-- Node1&#45;&gt;Node2 -->
<g id="edge1_Node000001_Node000002" class="edge">
<title>Node1&#45;&gt;Node2</title>
<g id="a_edge1_Node000001_Node000002"><a xlink:title=" ">
<path fill="none" stroke="#63b8ff" d="M347.2,-460.19C293.9,-450.78 225.54,-438.3 165,-426 162.12,-425.41 159.18,-424.81 156.22,-424.19"/>
<polygon fill="#63b8ff" stroke="#63b8ff" points="346.85,-463.69 357.31,-461.97 348.07,-456.79 346.85,-463.69"/>
</a>
</g>
</g>
<!-- Node3 -->
<g id="Node000003" class="node">
<title>Node3</title>
<g id="a_Node000003"><a xlink:href="gradients_8h.html" target="_top" xlink:title=" ">
<polygon fill="white" stroke="#666666" points="344,-420.5 174,-420.5 174,-390.5 344,-390.5 344,-420.5"/>
<text text-anchor="start" x="182" y="-408.5" font-family="Helvetica,sans-Serif" font-size="10.00">/home/runner/work/occ</text>
<text text-anchor="middle" x="259" y="-397.5" font-family="Helvetica,sans-Serif" font-size="10.00">/occ/include/occ/qm/gradients.h</text>
</a>
</g>
</g>
<!-- Node1&#45;&gt;Node3 -->
<g id="edge2_Node000001_Node000003" class="edge">
<title>Node1&#45;&gt;Node3</title>
<g id="a_edge2_Node000001_Node000003"><a xlink:title=" ">
<path fill="none" stroke="#63b8ff" d="M393.06,-458.26C362.73,-446.55 323.54,-431.42 295.37,-420.54"/>
<polygon fill="#63b8ff" stroke="#63b8ff" points="391.98,-461.6 402.57,-461.94 394.51,-455.07 391.98,-461.6"/>
</a>
</g>
</g>
<!-- Node4 -->
<g id="Node000004" class="node">
<title>Node4</title>
<g id="a_Node000004"><a xlink:href="integral__engine_8h.html" target="_top" xlink:title=" ">
<polygon fill="white" stroke="#666666" points="515.5,-426 362.5,-426 362.5,-385 515.5,-385 515.5,-426"/>
<text text-anchor="start" x="370.5" y="-414" font-family="Helvetica,sans-Serif" font-size="10.00">/home/runner/work/occ</text>
<text text-anchor="start" x="370.5" y="-403" font-family="Helvetica,sans-Serif" font-size="10.00">/occ/include/occ/qm/integral</text>
<text text-anchor="middle" x="439" y="-392" font-family="Helvetica,sans-Serif" font-size="10.00">_engine.h</text>
</a>
</g>
</g>
<!-- Node1&#45;&gt;Node4 -->
<g id="edge3_Node000001_Node000004" class="edge">
<title>Node1&#45;&gt;Node4</title>
<g id="a_edge3_Node000001_Node000004"><a xlink:title=" ">
<path fill="none" stroke="#63b8ff" d="M439,-451.91C439,-443.47 439,-434.1 439,-426.07"/>
<polygon fill="#63b8ff" stroke="#63b8ff" points="435.5,-451.94 439,-461.94 442.5,-451.94 435.5,-451.94"/>
</a>
</g>
</g>
<!-- Node26 -->
<g id="Node000026" class="node">
<title>Node26</title>
<g id="a_Node000026"><a xlink:href="scf_8h.html" target="_top" xlink:title=" ">
<polygon fill="white" stroke="#666666" points="710,-420.5 572,-420.5 572,-390.5 710,-390.5 710,-420.5"/>
<text text-anchor="start" x="580" y="-408.5" font-family="Helvetica,sans-Serif" font-size="10.00">/home/runner/work/occ</text>
<text text-anchor="middle" x="641" y="-397.5" font-family="Helvetica,sans-Serif" font-size="10.00">/occ/include/occ/qm/scf.h</text>
</a>
</g>
</g>
<!-- Node1&#45;&gt;Node26 -->
<g id="edge30_Node000001_Node000026" class="edge">
<title>Node1&#45;&gt;Node26</title>
<g id="a_edge30_Node000001_Node000026"><a xlink:title=" ">
<path fill="none" stroke="#63b8ff" d="M489.67,-458.57C523.83,-446.81 568.3,-431.51 600.18,-420.54"/>
<polygon fill="#63b8ff" stroke="#63b8ff" points="488.19,-455.37 479.88,-461.94 490.47,-461.99 488.19,-455.37"/>
</a>
</g>
</g>
<!-- Node27 -->
<g id="Node000027" class="node">
<title>Node27</title>
<g id="a_Node000027"><a xlink:href="solvation__correction_8h.html" target="_top" xlink:title=" ">
<polygon fill="white" stroke="#666666" points="978.5,-349 845.5,-349 845.5,-308 978.5,-308 978.5,-349"/>
<text text-anchor="start" x="853.5" y="-337" font-family="Helvetica,sans-Serif" font-size="10.00">/home/runner/work/occ</text>
<text text-anchor="start" x="853.5" y="-326" font-family="Helvetica,sans-Serif" font-size="10.00">/occ/include/occ/solvent</text>
<text text-anchor="middle" x="912" y="-315" font-family="Helvetica,sans-Serif" font-size="10.00">/solvation_correction.h</text>
</a>
</g>
</g>
<!-- Node1&#45;&gt;Node27 -->
<g id="edge31_Node000001_Node000027" class="edge">
<title>Node1&#45;&gt;Node27</title>
<g id="a_edge31_Node000001_Node000027"><a xlink:title=" ">
<path fill="none" stroke="#63b8ff" d="M476.75,-457.23C492.36,-448.67 510.23,-437.82 525,-426 544.4,-410.47 541.08,-396.7 563,-385 575.35,-378.41 747.46,-353.01 845.27,-338.97"/>
<polygon fill="#63b8ff" stroke="#63b8ff" points="475.02,-454.19 467.85,-461.99 478.32,-460.36 475.02,-454.19"/>
</a>
</g>
</g>
<!-- Node5 -->
<g id="Node000005" class="node">
<title>Node5</title>
<g id="a_Node000005"><a xlink:href="seminumerical__exchange_8h.html" target="_top" xlink:title=" ">
<polygon fill="white" stroke="#666666" points="157,-349 3,-349 3,-308 157,-308 157,-349"/>
<text text-anchor="start" x="11" y="-337" font-family="Helvetica,sans-Serif" font-size="10.00">/home/runner/work/occ</text>
<text text-anchor="start" x="11" y="-326" font-family="Helvetica,sans-Serif" font-size="10.00">/occ/include/occ/dft</text>
<text text-anchor="middle" x="80" y="-315" font-family="Helvetica,sans-Serif" font-size="10.00">/seminumerical_exchange.h</text>
</a>
</g>
</g>
<!-- Node4&#45;&gt;Node5 -->
<g id="edge4_Node000004_Node000005" class="edge">
<title>Node4&#45;&gt;Node5</title>
<g id="a_edge4_Node000004_Node000005"><a xlink:title=" ">
<path fill="none" stroke="#63b8ff" d="M351.92,-384.8C270.64,-367.68 248.61,-364.99 171,-349 166.57,-348.09 162.02,-347.14 157.43,-346.18"/>
<polygon fill="#63b8ff" stroke="#63b8ff" points="351.62,-388.31 362.13,-386.96 353.07,-381.47 351.62,-388.31"/>
</a>
</g>
</g>
<!-- Node6 -->
<g id="Node000006" class="node">
<title>Node6</title>
<g id="a_Node000006"><a xlink:href="dma_8h.html" target="_top" xlink:title=" ">
<polygon fill="white" stroke="#666666" points="767,-343.5 615,-343.5 615,-313.5 767,-313.5 767,-343.5"/>
<text text-anchor="start" x="623" y="-331.5" font-family="Helvetica,sans-Serif" font-size="10.00">/home/runner/work/occ</text>
<text text-anchor="middle" x="691" y="-320.5" font-family="Helvetica,sans-Serif" font-size="10.00">/occ/include/occ/dma/dma.h</text>
</a>
</g>
</g>
<!-- Node4&#45;&gt;Node6 -->
<g id="edge5_Node000004_Node000006" class="edge">
<title>Node4&#45;&gt;Node6</title>
<g id="a_edge5_Node000004_Node000006"><a xlink:title=" ">
<path fill="none" stroke="#63b8ff" d="M514.19,-382.12C556.2,-369.62 607.26,-354.42 643.68,-343.58"/>
<polygon fill="#63b8ff" stroke="#63b8ff" points="513.14,-378.78 504.55,-384.99 515.14,-385.49 513.14,-378.78"/>
</a>
</g>
</g>
<!-- Node11 -->
<g id="Node000011" class="node">
<title>Node11</title>
<g id="a_Node000011"><a xlink:href="hf_8h.html" target="_top" xlink:title=" ">
<polygon fill="white" stroke="#666666" points="506,-266.5 372,-266.5 372,-236.5 506,-236.5 506,-266.5"/>
<text text-anchor="start" x="380" y="-254.5" font-family="Helvetica,sans-Serif" font-size="10.00">/home/runner/work/occ</text>
<text text-anchor="middle" x="439" y="-243.5" font-family="Helvetica,sans-Serif" font-size="10.00">/occ/include/occ/qm/hf.h</text>
</a>
</g>
</g>
<!-- Node4&#45;&gt;Node11 -->
<g id="edge10_Node000004_Node000011" class="edge">
<title>Node4&#45;&gt;Node11</title>
<g id="a_edge10_Node000004_Node000011"><a xlink:title=" ">
<path fill="none" stroke="#63b8ff" d="M495.56,-379.47C507.34,-371.5 518.23,-361.43 525,-349 533.72,-333 533.72,-324 525,-308 514.63,-288.96 494.61,-275.47 476.5,-266.55"/>
<polygon fill="#63b8ff" stroke="#63b8ff" points="493.49,-376.64 486.87,-384.91 497.2,-382.57 493.49,-376.64"/>
</a>
</g>
</g>
<!-- Node22 -->
<g id="Node000022" class="node">
<title>Node22</title>
<g id="a_Node000022"><a xlink:href="integral__engine__df_8h.html" target="_top" xlink:title=" ">
<polygon fill="white" stroke="#666666" points="515.5,-349 362.5,-349 362.5,-308 515.5,-308 515.5,-349"/>
<text text-anchor="start" x="370.5" y="-337" font-family="Helvetica,sans-Serif" font-size="10.00">/home/runner/work/occ</text>
<text text-anchor="start" x="370.5" y="-326" font-family="Helvetica,sans-Serif" font-size="10.00">/occ/include/occ/qm/integral</text>
<text text-anchor="middle" x="439" y="-315" font-family="Helvetica,sans-Serif" font-size="10.00">_engine_df.h</text>
</a>
</g>
</g>
<!-- Node4&#45;&gt;Node22 -->
<g id="edge23_Node000004_Node000022" class="edge">
<title>Node4&#45;&gt;Node22</title>
<g id="a_edge23_Node000004_Node000022"><a xlink:title=" ">
<path fill="none" stroke="#63b8ff" d="M439,-374.69C439,-366.08 439,-356.9 439,-349.07"/>
<polygon fill="#63b8ff" stroke="#63b8ff" points="435.5,-374.79 439,-384.79 442.5,-374.79 435.5,-374.79"/>
</a>
</g>
</g>
<!-- Node24 -->
<g id="Node000024" class="node">
<title>Node24</title>
<g id="a_Node000024"><a xlink:href="mo__integral__engine_8h.html" target="_top" xlink:title=" ">
<polygon fill="white" stroke="#666666" points="344.5,-349 213.5,-349 213.5,-308 344.5,-308 344.5,-349"/>
<text text-anchor="start" x="221.5" y="-337" font-family="Helvetica,sans-Serif" font-size="10.00">/home/runner/work/occ</text>
<text text-anchor="start" x="221.5" y="-326" font-family="Helvetica,sans-Serif" font-size="10.00">/occ/include/occ/qm/mo</text>
<text text-anchor="middle" x="279" y="-315" font-family="Helvetica,sans-Serif" font-size="10.00">_integral_engine.h</text>
</a>
</g>
</g>
<!-- Node4&#45;&gt;Node24 -->
<g id="edge26_Node000004_Node000024" class="edge">
<title>Node4&#45;&gt;Node24</title>
<g id="a_edge26_Node000004_Node000024"><a xlink:title=" ">
<path fill="none" stroke="#63b8ff" d="M388.27,-380.72C366.5,-370.51 341.36,-358.73 320.69,-349.04"/>
<polygon fill="#63b8ff" stroke="#63b8ff" points="386.84,-383.92 397.38,-384.99 389.81,-377.58 386.84,-383.92"/>
</a>
</g>
</g>
<!-- Node25 -->
<g id="Node000025" class="node">
<title>Node25</title>
<g id="a_Node000025"><a xlink:href="post__hf__method_8h.html" target="_top" xlink:title=" ">
<polygon fill="white" stroke="#666666" points="269.5,-272 132.5,-272 132.5,-231 269.5,-231 269.5,-272"/>
<text text-anchor="start" x="140.5" y="-260" font-family="Helvetica,sans-Serif" font-size="10.00">/home/runner/work/occ</text>
<text text-anchor="start" x="140.5" y="-249" font-family="Helvetica,sans-Serif" font-size="10.00">/occ/include/occ/qm/post</text>
<text text-anchor="middle" x="201" y="-238" font-family="Helvetica,sans-Serif" font-size="10.00">_hf_method.h</text>
</a>
</g>
</g>
<!-- Node4&#45;&gt;Node25 -->
<g id="edge29_Node000004_Node000025" class="edge">
<title>Node4&#45;&gt;Node25</title>
<g id="a_edge29_Node000004_Node000025"><a xlink:title=" ">
<path fill="none" stroke="#63b8ff" d="M352.2,-384.63C285.76,-369.33 205.24,-350.52 204,-349 186.5,-327.58 190.31,-293.68 195.24,-272.29"/>
<polygon fill="#63b8ff" stroke="#63b8ff" points="351.77,-388.13 362.3,-386.96 353.34,-381.3 351.77,-388.13"/>
</a>
</g>
</g>
<!-- Node7 -->
<g id="Node000007" class="node">
<title>Node7</title>
<g id="a_Node000007"><a xlink:href="multipole__calculator_8h.html" target="_top" xlink:title=" ">
<polygon fill="white" stroke="#666666" points="652,-272 524,-272 524,-231 652,-231 652,-272"/>
<text text-anchor="start" x="532" y="-260" font-family="Helvetica,sans-Serif" font-size="10.00">/home/runner/work/occ</text>
<text text-anchor="start" x="532" y="-249" font-family="Helvetica,sans-Serif" font-size="10.00">/occ/include/occ/dma</text>
<text text-anchor="middle" x="588" y="-238" font-family="Helvetica,sans-Serif" font-size="10.00">/multipole_calculator.h</text>
</a>
</g>
</g>
<!-- Node6&#45;&gt;Node7 -->
<g id="edge6_Node000006_Node000007" class="edge">
<title>Node6&#45;&gt;Node7</title>
<g id="a_edge6_Node000006_Node000007"><a xlink:title=" ">
<path fill="none" stroke="#63b8ff" d="M663.27,-307.31C648.31,-296.41 629.92,-283.02 615.06,-272.2"/>
<polygon fill="#63b8ff" stroke="#63b8ff" points="661.48,-310.34 671.63,-313.39 665.6,-304.68 661.48,-310.34"/>
</a>
</g>
</g>
<!-- Node8 -->
<g id="Node000008" class="node">
<title>Node8</title>
<g id="a_Node000008"><a xlink:href="multipole__shifter_8h.html" target="_top" xlink:title=" ">
<polygon fill="white" stroke="#666666" points="798,-272 670,-272 670,-231 798,-231 798,-272"/>
<text text-anchor="start" x="678" y="-260" font-family="Helvetica,sans-Serif" font-size="10.00">/home/runner/work/occ</text>
<text text-anchor="start" x="678" y="-249" font-family="Helvetica,sans-Serif" font-size="10.00">/occ/include/occ/dma</text>
<text text-anchor="middle" x="734" y="-238" font-family="Helvetica,sans-Serif" font-size="10.00">/multipole_shifter.h</text>
</a>
</g>
</g>
<!-- Node6&#45;&gt;Node8 -->
<g id="edge7_Node000006_Node000008" class="edge">
<title>Node6&#45;&gt;Node8</title>
<g id="a_edge7_Node000006_Node000008"><a xlink:title=" ">
<path fill="none" stroke="#63b8ff" d="M704.18,-304.51C710.11,-294.18 717.02,-282.11 722.7,-272.2"/>
<polygon fill="#63b8ff" stroke="#63b8ff" points="701.03,-302.98 699.09,-313.39 707.1,-306.46 701.03,-302.98"/>
</a>
</g>
</g>
<!-- Node9 -->
<g id="Node000009" class="node">
<title>Node9</title>
<g id="a_Node000009"><a xlink:href="dma__driver_8h.html" target="_top" xlink:title=" ">
<polygon fill="white" stroke="#666666" points="944,-272 816,-272 816,-231 944,-231 944,-272"/>
<text text-anchor="start" x="824" y="-260" font-family="Helvetica,sans-Serif" font-size="10.00">/home/runner/work/occ</text>
<text text-anchor="start" x="824" y="-249" font-family="Helvetica,sans-Serif" font-size="10.00">/occ/include/occ/driver</text>
<text text-anchor="middle" x="880" y="-238" font-family="Helvetica,sans-Serif" font-size="10.00">/dma_driver.h</text>
</a>
</g>
</g>
<!-- Node6&#45;&gt;Node9 -->
<g id="edge8_Node000006_Node000009" class="edge">
<title>Node6&#45;&gt;Node9</title>
<g id="a_edge8_Node000006_Node000009"><a xlink:title=" ">
<path fill="none" stroke="#63b8ff" d="M735.88,-309.69C764.41,-298.37 801.36,-283.71 830.7,-272.06"/>
<polygon fill="#63b8ff" stroke="#63b8ff" points="734.55,-306.45 726.55,-313.39 737.14,-312.96 734.55,-306.45"/>
</a>
</g>
</g>
<!-- Node10 -->
<g id="Node000010" class="node">
<title>Node10</title>
<g id="a_Node000010"><a xlink:href="occ__dma_8h.html" target="_top" xlink:title=" ">
<polygon fill="white" stroke="#666666" points="944,-195 816,-195 816,-154 944,-154 944,-195"/>
<text text-anchor="start" x="824" y="-183" font-family="Helvetica,sans-Serif" font-size="10.00">/home/runner/work/occ</text>
<text text-anchor="start" x="824" y="-172" font-family="Helvetica,sans-Serif" font-size="10.00">/occ/include/occ/main</text>
<text text-anchor="middle" x="880" y="-161" font-family="Helvetica,sans-Serif" font-size="10.00">/occ_dma.h</text>
</a>
</g>
</g>
<!-- Node9&#45;&gt;Node10 -->
<g id="edge9_Node000009_Node000010" class="edge">
<title>Node9&#45;&gt;Node10</title>
<g id="a_edge9_Node000009_Node000010"><a xlink:title=" ">
<path fill="none" stroke="#63b8ff" d="M880,-220.69C880,-212.08 880,-202.9 880,-195.07"/>
<polygon fill="#63b8ff" stroke="#63b8ff" points="876.5,-220.79 880,-230.79 883.5,-220.79 876.5,-220.79"/>
</a>
</g>
</g>
<!-- Node12 -->
<g id="Node000012" class="node">
<title>Node12</title>
<g id="a_Node000012"><a xlink:href="dft_8h.html" target="_top" xlink:title=" ">
<polygon fill="white" stroke="#666666" points="680,-189.5 546,-189.5 546,-159.5 680,-159.5 680,-189.5"/>
<text text-anchor="start" x="554" y="-177.5" font-family="Helvetica,sans-Serif" font-size="10.00">/home/runner/work/occ</text>
<text text-anchor="middle" x="613" y="-166.5" font-family="Helvetica,sans-Serif" font-size="10.00">/occ/include/occ/dft/dft.h</text>
</a>
</g>
</g>
<!-- Node11&#45;&gt;Node12 -->
<g id="edge11_Node000011_Node000012" class="edge">
<title>Node11&#45;&gt;Node12</title>
<g id="a_edge11_Node000011_Node000012"><a xlink:title=" ">
<path fill="none" stroke="#63b8ff" d="M481.25,-232.29C511.78,-219.13 552.39,-201.62 580.42,-189.54"/>
<polygon fill="#63b8ff" stroke="#63b8ff" points="479.53,-229.22 471.73,-236.39 482.3,-235.65 479.53,-229.22"/>
</a>
</g>
</g>
<!-- Node15 -->
<g id="Node000015" class="node">
<title>Node15</title>
<g id="a_Node000015"><a xlink:href="isosurface_2point__functors_8h.html" target="_top" xlink:title=" ">
<polygon fill="white" stroke="#666666" points="541.5,-118 394.5,-118 394.5,-77 541.5,-77 541.5,-118"/>
<text text-anchor="start" x="402.5" y="-106" font-family="Helvetica,sans-Serif" font-size="10.00">/home/runner/work/occ</text>
<text text-anchor="start" x="402.5" y="-95" font-family="Helvetica,sans-Serif" font-size="10.00">/occ/include/occ/isosurface</text>
<text text-anchor="middle" x="468" y="-84" font-family="Helvetica,sans-Serif" font-size="10.00">/point_functors.h</text>
</a>
</g>
</g>
<!-- Node11&#45;&gt;Node15 -->
<g id="edge21_Node000011_Node000015" class="edge">
<title>Node11&#45;&gt;Node15</title>
<g id="a_edge21_Node000011_Node000015"><a xlink:title=" ">
<path fill="none" stroke="#63b8ff" d="M443.59,-226.46C449.3,-196.51 458.95,-145.93 464.25,-118.18"/>
<polygon fill="#63b8ff" stroke="#63b8ff" points="440.11,-225.99 441.68,-236.47 446.99,-227.31 440.11,-225.99"/>
</a>
</g>
</g>
<!-- Node16 -->
<g id="Node000016" class="node">
<title>Node16</title>
<g id="a_Node000016"><a xlink:href="main_2point__functors_8h.html" target="_top" xlink:title=" ">
<polygon fill="white" stroke="#666666" points="688,-118 560,-118 560,-77 688,-77 688,-118"/>
<text text-anchor="start" x="568" y="-106" font-family="Helvetica,sans-Serif" font-size="10.00">/home/runner/work/occ</text>
<text text-anchor="start" x="568" y="-95" font-family="Helvetica,sans-Serif" font-size="10.00">/occ/include/occ/main</text>
<text text-anchor="middle" x="624" y="-84" font-family="Helvetica,sans-Serif" font-size="10.00">/point_functors.h</text>
</a>
</g>
</g>
<!-- Node11&#45;&gt;Node16 -->
<g id="edge22_Node000011_Node000016" class="edge">
<title>Node11&#45;&gt;Node16</title>
<g id="a_edge22_Node000011_Node000016"><a xlink:title=" ">
<path fill="none" stroke="#63b8ff" d="M458.43,-228.9C477.41,-208.42 507.65,-177.38 537,-154 553.53,-140.83 573.31,-128.01 589.83,-118.01"/>
<polygon fill="#63b8ff" stroke="#63b8ff" points="455.67,-226.73 451.49,-236.46 460.83,-231.46 455.67,-226.73"/>
</a>
</g>
</g>
<!-- Node17 -->
<g id="Node000017" class="node">
<title>Node17</title>
<g id="a_Node000017"><a xlink:href="electric__potential_8h.html" target="_top" xlink:title=" ">
<polygon fill="white" stroke="#666666" points="439.5,-195 292.5,-195 292.5,-154 439.5,-154 439.5,-195"/>
<text text-anchor="start" x="300.5" y="-183" font-family="Helvetica,sans-Serif" font-size="10.00">/home/runner/work/occ</text>
<text text-anchor="start" x="300.5" y="-172" font-family="Helvetica,sans-Serif" font-size="10.00">/occ/include/occ/isosurface</text>
<text text-anchor="middle" x="366" y="-161" font-family="Helvetica,sans-Serif" font-size="10.00">/electric_potential.h</text>
</a>
</g>
</g>
<!-- Node11&#45;&gt;Node17 -->
<g id="edge16_Node000011_Node000017" class="edge">
<title>Node11&#45;&gt;Node17</title>
<g id="a_edge16_Node000011_Node000017"><a xlink:title=" ">
<path fill="none" stroke="#63b8ff" d="M418.14,-229.07C407.77,-218.41 395.31,-205.62 385.18,-195.2"/>
<polygon fill="#63b8ff" stroke="#63b8ff" points="415.79,-231.67 425.27,-236.39 420.8,-226.79 415.79,-231.67"/>
</a>
</g>
</g>
<!-- Node13 -->
<g id="Node000013" class="node">
<title>Node13</title>
<g id="a_Node000013"><a xlink:href="smd__solvation_8h.html" target="_top" xlink:title=" ">
<polygon fill="white" stroke="#666666" points="938,-118 806,-118 806,-77 938,-77 938,-118"/>
<text text-anchor="start" x="814" y="-106" font-family="Helvetica,sans-Serif" font-size="10.00">/home/runner/work/occ</text>
<text text-anchor="start" x="814" y="-95" font-family="Helvetica,sans-Serif" font-size="10.00">/occ/include/occ/cg/smd</text>
<text text-anchor="middle" x="872" y="-84" font-family="Helvetica,sans-Serif" font-size="10.00">_solvation.h</text>
</a>
</g>
</g>
<!-- Node12&#45;&gt;Node13 -->
<g id="edge12_Node000012_Node000013" class="edge">
<title>Node12&#45;&gt;Node13</title>
<g id="a_edge12_Node000012_Node000013"><a xlink:title=" ">
<path fill="none" stroke="#63b8ff" d="M671.26,-156.63C711.19,-145.07 764.22,-129.71 805.75,-117.68"/>
<polygon fill="#63b8ff" stroke="#63b8ff" points="670.04,-153.34 661.41,-159.48 671.99,-160.06 670.04,-153.34"/>
</a>
</g>
</g>
<!-- Node12&#45;&gt;Node15 -->
<g id="edge14_Node000012_Node000015" class="edge">
<title>Node12&#45;&gt;Node15</title>
<g id="a_edge14_Node000012_Node000015"><a xlink:title=" ">
<path fill="none" stroke="#63b8ff" d="M576.84,-154.8C555.21,-143.61 527.75,-129.4 505.82,-118.06"/>
<polygon fill="#63b8ff" stroke="#63b8ff" points="575.24,-157.91 585.73,-159.39 578.45,-151.69 575.24,-157.91"/>
</a>
</g>
</g>
<!-- Node12&#45;&gt;Node16 -->
<g id="edge15_Node000012_Node000016" class="edge">
<title>Node12&#45;&gt;Node16</title>
<g id="a_edge15_Node000012_Node000016"><a xlink:title=" ">
<path fill="none" stroke="#63b8ff" d="M616.56,-149.23C618.03,-139.2 619.72,-127.71 621.11,-118.2"/>
<polygon fill="#63b8ff" stroke="#63b8ff" points="613.06,-148.99 615.07,-159.39 619.98,-150.01 613.06,-148.99"/>
</a>
</g>
</g>
<!-- Node14 -->
<g id="Node000014" class="node">
<title>Node14</title>
<g id="a_Node000014"><a xlink:href="crystal__growth_8h.html" target="_top" xlink:title=" ">
<polygon fill="white" stroke="#666666" points="936,-41 808,-41 808,0 936,0 936,-41"/>
<text text-anchor="start" x="816" y="-29" font-family="Helvetica,sans-Serif" font-size="10.00">/home/runner/work/occ</text>
<text text-anchor="start" x="816" y="-18" font-family="Helvetica,sans-Serif" font-size="10.00">/occ/include/occ/driver</text>
<text text-anchor="middle" x="872" y="-7" font-family="Helvetica,sans-Serif" font-size="10.00">/crystal_growth.h</text>
</a>
</g>
</g>
<!-- Node13&#45;&gt;Node14 -->
<g id="edge13_Node000013_Node000014" class="edge">
<title>Node13&#45;&gt;Node14</title>
<g id="a_edge13_Node000013_Node000014"><a xlink:title=" ">
<path fill="none" stroke="#63b8ff" d="M872,-66.69C872,-58.08 872,-48.9 872,-41.07"/>
<polygon fill="#63b8ff" stroke="#63b8ff" points="868.5,-66.79 872,-76.79 875.5,-66.79 868.5,-66.79"/>
</a>
</g>
</g>
<!-- Node18 -->
<g id="Node000018" class="node">
<title>Node18</title>
<g id="a_Node000018"><a xlink:href="isosurface_8h.html" target="_top" xlink:title=" ">
<polygon fill="white" stroke="#666666" points="376.5,-118 229.5,-118 229.5,-77 376.5,-77 376.5,-118"/>
<text text-anchor="start" x="237.5" y="-106" font-family="Helvetica,sans-Serif" font-size="10.00">/home/runner/work/occ</text>
<text text-anchor="start" x="237.5" y="-95" font-family="Helvetica,sans-Serif" font-size="10.00">/occ/include/occ/isosurface</text>
<text text-anchor="middle" x="303" y="-84" font-family="Helvetica,sans-Serif" font-size="10.00">/isosurface.h</text>
</a>
</g>
</g>
<!-- Node17&#45;&gt;Node18 -->
<g id="edge17_Node000017_Node000018" class="edge">
<title>Node17&#45;&gt;Node18</title>
<g id="a_edge17_Node000017_Node000018"><a xlink:title=" ">
<path fill="none" stroke="#63b8ff" d="M342.86,-145.95C335.09,-136.7 326.59,-126.58 319.44,-118.07"/>
<polygon fill="#63b8ff" stroke="#63b8ff" points="340.34,-148.39 349.45,-153.79 345.7,-143.89 340.34,-148.39"/>
</a>
</g>
</g>
<!-- Node19 -->
<g id="Node000019" class="node">
<title>Node19</title>
<g id="a_Node000019"><a xlink:href="isosurface__json_8h.html" target="_top" xlink:title=" ">
<polygon fill="white" stroke="#666666" points="382.5,-41 223.5,-41 223.5,0 382.5,0 382.5,-41"/>
<text text-anchor="start" x="231.5" y="-29" font-family="Helvetica,sans-Serif" font-size="10.00">/home/runner/work/occ</text>
<text text-anchor="start" x="231.5" y="-18" font-family="Helvetica,sans-Serif" font-size="10.00">/occ/include/occ/io/isosurface</text>
<text text-anchor="middle" x="303" y="-7" font-family="Helvetica,sans-Serif" font-size="10.00">_json.h</text>
</a>
</g>
</g>
<!-- Node18&#45;&gt;Node19 -->
<g id="edge18_Node000018_Node000019" class="edge">
<title>Node18&#45;&gt;Node19</title>
<g id="a_edge18_Node000018_Node000019"><a xlink:title=" ">
<path fill="none" stroke="#63b8ff" d="M303,-66.69C303,-58.08 303,-48.9 303,-41.07"/>
<polygon fill="#63b8ff" stroke="#63b8ff" points="299.5,-66.79 303,-76.79 306.5,-66.79 299.5,-66.79"/>
</a>
</g>
</g>
<!-- Node20 -->
<g id="Node000020" class="node">
<title>Node20</title>
<g id="a_Node000020"><a xlink:href="obj_8h.html" target="_top" xlink:title=" ">
<polygon fill="white" stroke="#666666" points="533.5,-35.5 400.5,-35.5 400.5,-5.5 533.5,-5.5 533.5,-35.5"/>
<text text-anchor="start" x="408.5" y="-23.5" font-family="Helvetica,sans-Serif" font-size="10.00">/home/runner/work/occ</text>
<text text-anchor="middle" x="467" y="-12.5" font-family="Helvetica,sans-Serif" font-size="10.00">/occ/include/occ/io/obj.h</text>
</a>
</g>
</g>
<!-- Node18&#45;&gt;Node20 -->
<g id="edge19_Node000018_Node000020" class="edge">
<title>Node18&#45;&gt;Node20</title>
<g id="a_edge19_Node000018_Node000020"><a xlink:title=" ">
<path fill="none" stroke="#63b8ff" d="M354.89,-72.77C381.64,-60.54 413.35,-46.04 436.21,-35.58"/>
<polygon fill="#63b8ff" stroke="#63b8ff" points="353.3,-69.65 345.66,-76.99 356.21,-76.01 353.3,-69.65"/>
</a>
</g>
</g>
<!-- Node21 -->
<g id="Node000021" class="node">
<title>Node21</title>
<g id="a_Node000021"><a xlink:href="ply_8h.html" target="_top" xlink:title=" ">
<polygon fill="white" stroke="#666666" points="205.5,-35.5 74.5,-35.5 74.5,-5.5 205.5,-5.5 205.5,-35.5"/>
<text text-anchor="start" x="82.5" y="-23.5" font-family="Helvetica,sans-Serif" font-size="10.00">/home/runner/work/occ</text>
<text text-anchor="middle" x="140" y="-12.5" font-family="Helvetica,sans-Serif" font-size="10.00">/occ/include/occ/io/ply.h</text>
</a>
</g>
</g>
<!-- Node18&#45;&gt;Node21 -->
<g id="edge20_Node000018_Node000021" class="edge">
<title>Node18&#45;&gt;Node21</title>
<g id="a_edge20_Node000018_Node000021"><a xlink:title=" ">
<path fill="none" stroke="#63b8ff" d="M251.42,-72.77C224.84,-60.54 193.32,-46.04 170.61,-35.58"/>
<polygon fill="#63b8ff" stroke="#63b8ff" points="250.05,-75.99 260.6,-76.99 252.98,-69.63 250.05,-75.99"/>
</a>
</g>
</g>
<!-- Node22&#45;&gt;Node11 -->
<g id="edge24_Node000022_Node000011" class="edge">
<title>Node22&#45;&gt;Node11</title>
<g id="a_edge24_Node000022_Node000011"><a xlink:title=" ">
<path fill="none" stroke="#63b8ff" d="M439,-297.61C439,-287.01 439,-275.57 439,-266.86"/>
<polygon fill="#63b8ff" stroke="#63b8ff" points="435.5,-297.79 439,-307.79 442.5,-297.79 435.5,-297.79"/>
</a>
</g>
</g>
<!-- Node23 -->
<g id="Node000023" class="node">
<title>Node23</title>
<g id="a_Node000023"><a xlink:href="mp2_8h.html" target="_top" xlink:title=" ">
<polygon fill="white" stroke="#666666" points="274,-189.5 128,-189.5 128,-159.5 274,-159.5 274,-189.5"/>
<text text-anchor="start" x="136" y="-177.5" font-family="Helvetica,sans-Serif" font-size="10.00">/home/runner/work/occ</text>
<text text-anchor="middle" x="201" y="-166.5" font-family="Helvetica,sans-Serif" font-size="10.00">/occ/include/occ/qm/mp2.h</text>
</a>
</g>
</g>
<!-- Node22&#45;&gt;Node23 -->
<g id="edge25_Node000022_Node000023" class="edge">
<title>Node22&#45;&gt;Node23</title>
<g id="a_edge25_Node000022_Node000023"><a xlink:title=" ">
<path fill="none" stroke="#63b8ff" d="M399.68,-302.39C349.18,-270.14 263.27,-215.27 223.03,-189.57"/>
<polygon fill="#63b8ff" stroke="#63b8ff" points="398.06,-305.51 408.37,-307.94 401.83,-299.61 398.06,-305.51"/>
</a>
</g>
</g>
<!-- Node24&#45;&gt;Node25 -->
<g id="edge27_Node000024_Node000025" class="edge">
<title>Node24&#45;&gt;Node25</title>
<g id="a_edge27_Node000024_Node000025"><a xlink:title=" ">
<path fill="none" stroke="#63b8ff" d="M251.22,-300.79C241.37,-291.32 230.47,-280.84 221.36,-272.07"/>
<polygon fill="#63b8ff" stroke="#63b8ff" points="248.87,-303.39 258.51,-307.79 253.72,-298.34 248.87,-303.39"/>
</a>
</g>
</g>
<!-- Node25&#45;&gt;Node23 -->
<g id="edge28_Node000025_Node000023" class="edge">
<title>Node25&#45;&gt;Node23</title>
<g id="a_edge28_Node000025_Node000023"><a xlink:title=" ">
<path fill="none" stroke="#63b8ff" d="M201,-220.61C201,-210.01 201,-198.57 201,-189.86"/>
<polygon fill="#63b8ff" stroke="#63b8ff" points="197.5,-220.79 201,-230.79 204.5,-220.79 197.5,-220.79"/>
</a>
</g>
</g>
<!-- Node27&#45;&gt;Node13 -->
<g id="edge32_Node000027_Node000013" class="edge">
<title>Node27&#45;&gt;Node13</title>
<g id="a_edge32_Node000027_Node000013"><a xlink:title=" ">
<path fill="none" stroke="#63b8ff" d="M937.59,-300.03C943.86,-291.65 949.71,-281.98 953,-272 969.4,-222.19 977.45,-200.4 953,-154 944.97,-138.77 930.67,-126.92 916.3,-118.15"/>
<polygon fill="#63b8ff" stroke="#63b8ff" points="934.77,-297.96 931.26,-307.96 940.23,-302.33 934.77,-297.96"/>
</a>
</g>
</g>
</g>
</svg>
