<?xml version="1.0" encoding="UTF-8" standalone="no"?>
<!DOCTYPE svg PUBLIC "-//W3C//DTD SVG 1.1//EN"
 "http://www.w3.org/Graphics/SVG/1.1/DTD/svg11.dtd">
<!-- Generated by graphviz version 2.43.0 (0)
 -->
<!-- Title: /home/runner/work/occ/occ/include/occ/qm/external_potential.h Pages: 1 -->
<svg width="1019pt" height="324pt"
 viewBox="0.00 0.00 1019.03 324.00" xmlns="http://www.w3.org/2000/svg" xmlns:xlink="http://www.w3.org/1999/xlink">
<g id="graph0" class="graph" transform="scale(1 1) rotate(0) translate(4 320)">
<title>/home/runner/work/occ/occ/include/occ/qm/external_potential.h</title>
<!-- Node1 -->
<g id="Node000001" class="node">
<title>Node1</title>
<g id="a_Node000001"><a xlink:title=" ">
<polygon fill="#999999" stroke="#666666" points="522.03,-316 366.03,-316 366.03,-275 522.03,-275 522.03,-316"/>
<text text-anchor="start" x="374.03" y="-304" font-family="Helvetica,sans-Serif" font-size="10.00">/home/runner/work/occ</text>
<text text-anchor="start" x="374.03" y="-293" font-family="Helvetica,sans-Serif" font-size="10.00">/occ/include/occ/qm/external</text>
<text text-anchor="middle" x="444.03" y="-282" font-family="Helvetica,sans-Serif" font-size="10.00">_potential.h</text>
</a>
</g>
</g>
<!-- Node2 -->
<g id="Node000002" class="node">
<title>Node2</title>
<g id="a_Node000002"><a xlink:href="energy__components_8h.html" target="_top" xlink:title=" ">
<polygon fill="white" stroke="#666666" points="199.03,-239 31.03,-239 31.03,-220 199.03,-220 199.03,-239"/>
<text text-anchor="middle" x="115.03" y="-227" font-family="Helvetica,sans-Serif" font-size="10.00">occ/core/energy_components.h</text>
</a>
</g>
</g>
<!-- Node1&#45;&gt;Node2 -->
<g id="edge1_Node000001_Node000002" class="edge">
<title>Node1&#45;&gt;Node2</title>
<g id="a_edge1_Node000001_Node000002"><a xlink:title=" ">
<path fill="none" stroke="#63b8ff" d="M365.65,-279.25C304.94,-267.44 222.44,-251.39 168.96,-240.99"/>
<polygon fill="#63b8ff" stroke="#63b8ff" points="169.48,-237.53 159,-239.05 168.15,-244.4 169.48,-237.53"/>
</a>
</g>
</g>
<!-- Node5 -->
<g id="Node000005" class="node">
<title>Node5</title>
<g id="a_Node000005"><a xlink:title=" ">
<polygon fill="#e0e0e0" stroke="#999999" points="120.53,-74 73.53,-74 73.53,-55 120.53,-55 120.53,-74"/>
<text text-anchor="middle" x="97.03" y="-62" font-family="Helvetica,sans-Serif" font-size="10.00">vector</text>
</a>
</g>
</g>
<!-- Node1&#45;&gt;Node5 -->
<g id="edge36_Node000001_Node000005" class="edge">
<title>Node1&#45;&gt;Node5</title>
<g id="a_edge36_Node000001_Node000005"><a xlink:title=" ">
<path fill="none" stroke="#63b8ff" d="M418.47,-274.87C384.2,-248.81 321.16,-201.81 265.03,-165 215.24,-132.34 154.68,-97.65 121.57,-79.1"/>
<polygon fill="#63b8ff" stroke="#63b8ff" points="123.05,-75.91 112.61,-74.09 119.63,-82.02 123.05,-75.91"/>
</a>
</g>
</g>
<!-- Node6 -->
<g id="Node000006" class="node">
<title>Node6</title>
<g id="a_Node000006"><a xlink:href="log_8h.html" target="_top" xlink:title=" ">
<polygon fill="white" stroke="#666666" points="397.03,-129 313.03,-129 313.03,-110 397.03,-110 397.03,-129"/>
<text text-anchor="middle" x="355.03" y="-117" font-family="Helvetica,sans-Serif" font-size="10.00">occ/core/log.h</text>
</a>
</g>
</g>
<!-- Node1&#45;&gt;Node6 -->
<g id="edge5_Node000001_Node000006" class="edge">
<title>Node1&#45;&gt;Node6</title>
<g id="a_edge5_Node000001_Node000006"><a xlink:title=" ">
<path fill="none" stroke="#63b8ff" d="M426.62,-274.93C418.13,-264.72 408.23,-251.73 401.03,-239 382.18,-205.67 367.75,-163.08 360.41,-139.1"/>
<polygon fill="#63b8ff" stroke="#63b8ff" points="363.67,-137.8 357.47,-129.21 356.97,-139.8 363.67,-137.8"/>
</a>
</g>
</g>
<!-- Node10 -->
<g id="Node000010" class="node">
<title>Node10</title>
<g id="a_Node000010"><a xlink:href="point__charge_8h.html" target="_top" xlink:title=" ">
<polygon fill="white" stroke="#666666" points="542.03,-239 410.03,-239 410.03,-220 542.03,-220 542.03,-239"/>
<text text-anchor="middle" x="476.03" y="-227" font-family="Helvetica,sans-Serif" font-size="10.00">occ/core/point_charge.h</text>
</a>
</g>
</g>
<!-- Node1&#45;&gt;Node10 -->
<g id="edge10_Node000001_Node000010" class="edge">
<title>Node1&#45;&gt;Node10</title>
<g id="a_edge10_Node000001_Node000010"><a xlink:title=" ">
<path fill="none" stroke="#63b8ff" d="M453.81,-274.95C458.04,-266.48 462.96,-256.64 467.1,-248.37"/>
<polygon fill="#63b8ff" stroke="#63b8ff" points="470.31,-249.77 471.65,-239.26 464.05,-246.64 470.31,-249.77"/>
</a>
</g>
</g>
<!-- Node17 -->
<g id="Node000017" class="node">
<title>Node17</title>
<g id="a_Node000017"><a xlink:href="expectation_8h.html" target="_top" xlink:title=" ">
<polygon fill="white" stroke="#666666" points="692.03,-239 570.03,-239 570.03,-220 692.03,-220 692.03,-239"/>
<text text-anchor="middle" x="631.03" y="-227" font-family="Helvetica,sans-Serif" font-size="10.00">occ/qm/expectation.h</text>
</a>
</g>
</g>
<!-- Node1&#45;&gt;Node17 -->
<g id="edge17_Node000001_Node000017" class="edge">
<title>Node1&#45;&gt;Node17</title>
<g id="a_edge17_Node000001_Node000017"><a xlink:title=" ">
<path fill="none" stroke="#63b8ff" d="M501.15,-274.95C532.2,-264.32 569.59,-251.53 596.27,-242.4"/>
<polygon fill="#63b8ff" stroke="#63b8ff" points="597.6,-245.64 605.93,-239.09 595.33,-239.02 597.6,-245.64"/>
</a>
</g>
</g>
<!-- Node26 -->
<g id="Node000026" class="node">
<title>Node26</title>
<g id="a_Node000026"><a xlink:href="mo_8h.html" target="_top" xlink:title=" ">
<polygon fill="white" stroke="#666666" points="795.03,-239 715.03,-239 715.03,-220 795.03,-220 795.03,-239"/>
<text text-anchor="middle" x="755.03" y="-227" font-family="Helvetica,sans-Serif" font-size="10.00">occ/qm/mo.h</text>
</a>
</g>
</g>
<!-- Node1&#45;&gt;Node26 -->
<g id="edge32_Node000001_Node000026" class="edge">
<title>Node1&#45;&gt;Node26</title>
<g id="a_edge32_Node000001_Node000026"><a xlink:title=" ">
<path fill="none" stroke="#63b8ff" d="M522.11,-278.43C579.51,-266.62 655.81,-250.92 705.17,-240.76"/>
<polygon fill="#63b8ff" stroke="#63b8ff" points="705.89,-244.19 714.97,-238.74 704.47,-237.33 705.89,-244.19"/>
</a>
</g>
</g>
<!-- Node3 -->
<g id="Node000003" class="node">
<title>Node3</title>
<g id="a_Node000003"><a xlink:title=" ">
<polygon fill="#e0e0e0" stroke="#999999" points="256.53,-184 113.53,-184 113.53,-165 256.53,-165 256.53,-184"/>
<text text-anchor="middle" x="185.03" y="-172" font-family="Helvetica,sans-Serif" font-size="10.00">ankerl/unordered_dense.h</text>
</a>
</g>
</g>
<!-- Node2&#45;&gt;Node3 -->
<g id="edge2_Node000002_Node000003" class="edge">
<title>Node2&#45;&gt;Node3</title>
<g id="a_edge2_Node000002_Node000003"><a xlink:title=" ">
<path fill="none" stroke="#63b8ff" d="M126.28,-219.98C136.83,-212 152.83,-199.88 165.47,-190.31"/>
<polygon fill="#63b8ff" stroke="#63b8ff" points="167.72,-193 173.58,-184.17 163.5,-187.42 167.72,-193"/>
</a>
</g>
</g>
<!-- Node4 -->
<g id="Node000004" class="node">
<title>Node4</title>
<g id="a_Node000004"><a xlink:title=" ">
<polygon fill="#e0e0e0" stroke="#999999" points="95.53,-184 16.53,-184 16.53,-165 95.53,-165 95.53,-184"/>
<text text-anchor="middle" x="56.03" y="-172" font-family="Helvetica,sans-Serif" font-size="10.00">fmt/format.h</text>
</a>
</g>
</g>
<!-- Node2&#45;&gt;Node4 -->
<g id="edge3_Node000002_Node000004" class="edge">
<title>Node2&#45;&gt;Node4</title>
<g id="a_edge3_Node000002_Node000004"><a xlink:title=" ">
<path fill="none" stroke="#63b8ff" d="M105.55,-219.98C96.83,-212.15 83.69,-200.34 73.13,-190.86"/>
<polygon fill="#63b8ff" stroke="#63b8ff" points="75.46,-188.25 65.68,-184.17 70.78,-193.46 75.46,-188.25"/>
</a>
</g>
</g>
<!-- Node2&#45;&gt;Node5 -->
<g id="edge4_Node000002_Node000005" class="edge">
<title>Node2&#45;&gt;Node5</title>
<g id="a_edge4_Node000002_Node000005"><a xlink:title=" ">
<path fill="none" stroke="#63b8ff" d="M62.67,-219.93C41.72,-213.65 19.61,-202.79 7.03,-184 -19.22,-144.79 37.82,-101.2 72.65,-79.44"/>
<polygon fill="#63b8ff" stroke="#63b8ff" points="74.64,-82.33 81.38,-74.15 71.01,-76.34 74.64,-82.33"/>
</a>
</g>
</g>
<!-- Node6&#45;&gt;Node5 -->
<g id="edge9_Node000006_Node000005" class="edge">
<title>Node6&#45;&gt;Node5</title>
<g id="a_edge9_Node000006_Node000005"><a xlink:title=" ">
<path fill="none" stroke="#63b8ff" d="M312.79,-111.03C269.39,-103.17 199.66,-90.02 130.89,-74.32"/>
<polygon fill="#63b8ff" stroke="#63b8ff" points="131.29,-70.82 120.75,-71.99 129.71,-77.64 131.29,-70.82"/>
</a>
</g>
</g>
<!-- Node7 -->
<g id="Node000007" class="node">
<title>Node7</title>
<g id="a_Node000007"><a xlink:title=" ">
<polygon fill="#e0e0e0" stroke="#999999" points="314.53,-74 249.53,-74 249.53,-55 314.53,-55 314.53,-74"/>
<text text-anchor="middle" x="282.03" y="-62" font-family="Helvetica,sans-Serif" font-size="10.00">functional</text>
</a>
</g>
</g>
<!-- Node6&#45;&gt;Node7 -->
<g id="edge6_Node000006_Node000007" class="edge">
<title>Node6&#45;&gt;Node7</title>
<g id="a_edge6_Node000006_Node000007"><a xlink:title=" ">
<path fill="none" stroke="#63b8ff" d="M343.3,-109.98C332.3,-102 315.61,-89.88 302.43,-80.31"/>
<polygon fill="#63b8ff" stroke="#63b8ff" points="304.12,-77.21 293.97,-74.17 300.01,-82.88 304.12,-77.21"/>
</a>
</g>
</g>
<!-- Node8 -->
<g id="Node000008" class="node">
<title>Node8</title>
<g id="a_Node000008"><a xlink:title=" ">
<polygon fill="#e0e0e0" stroke="#999999" points="231.53,-74 138.53,-74 138.53,-55 231.53,-55 231.53,-74"/>
<text text-anchor="middle" x="185.03" y="-62" font-family="Helvetica,sans-Serif" font-size="10.00">spdlog/spdlog.h</text>
</a>
</g>
</g>
<!-- Node6&#45;&gt;Node8 -->
<g id="edge7_Node000006_Node000008" class="edge">
<title>Node6&#45;&gt;Node8</title>
<g id="a_edge7_Node000006_Node000008"><a xlink:title=" ">
<path fill="none" stroke="#63b8ff" d="M327.72,-109.98C299.18,-101.09 254.21,-87.07 222.39,-77.15"/>
<polygon fill="#63b8ff" stroke="#63b8ff" points="223.15,-73.72 212.56,-74.08 221.06,-80.4 223.15,-73.72"/>
</a>
</g>
</g>
<!-- Node9 -->
<g id="Node000009" class="node">
<title>Node9</title>
<g id="a_Node000009"><a xlink:title=" ">
<polygon fill="#e0e0e0" stroke="#999999" points="377.03,-74 333.03,-74 333.03,-55 377.03,-55 377.03,-74"/>
<text text-anchor="middle" x="355.03" y="-62" font-family="Helvetica,sans-Serif" font-size="10.00">string</text>
</a>
</g>
</g>
<!-- Node6&#45;&gt;Node9 -->
<g id="edge8_Node000006_Node000009" class="edge">
<title>Node6&#45;&gt;Node9</title>
<g id="a_edge8_Node000006_Node000009"><a xlink:title=" ">
<path fill="none" stroke="#63b8ff" d="M355.03,-109.75C355.03,-102.8 355.03,-92.85 355.03,-84.13"/>
<polygon fill="#63b8ff" stroke="#63b8ff" points="358.53,-84.09 355.03,-74.09 351.53,-84.09 358.53,-84.09"/>
</a>
</g>
</g>
<!-- Node11 -->
<g id="Node000011" class="node">
<title>Node11</title>
<g id="a_Node000011"><a xlink:title=" ">
<polygon fill="#e0e0e0" stroke="#999999" points="546.03,-184 504.03,-184 504.03,-165 546.03,-165 546.03,-184"/>
<text text-anchor="middle" x="525.03" y="-172" font-family="Helvetica,sans-Serif" font-size="10.00">array</text>
</a>
</g>
</g>
<!-- Node10&#45;&gt;Node11 -->
<g id="edge11_Node000010_Node000011" class="edge">
<title>Node10&#45;&gt;Node11</title>
<g id="a_edge11_Node000010_Node000011"><a xlink:title=" ">
<path fill="none" stroke="#63b8ff" d="M484.12,-219.75C491.19,-212.11 501.62,-200.82 510.18,-191.56"/>
<polygon fill="#63b8ff" stroke="#63b8ff" points="512.87,-193.81 517.09,-184.09 507.73,-189.06 512.87,-193.81"/>
</a>
</g>
</g>
<!-- Node12 -->
<g id="Node000012" class="node">
<title>Node12</title>
<g id="a_Node000012"><a xlink:href="atom_8h.html" target="_top" xlink:title=" ">
<polygon fill="white" stroke="#666666" points="682.53,-129 587.53,-129 587.53,-110 682.53,-110 682.53,-129"/>
<text text-anchor="middle" x="635.03" y="-117" font-family="Helvetica,sans-Serif" font-size="10.00">occ/core/atom.h</text>
</a>
</g>
</g>
<!-- Node10&#45;&gt;Node12 -->
<g id="edge12_Node000010_Node000012" class="edge">
<title>Node10&#45;&gt;Node12</title>
<g id="a_edge12_Node000010_Node000012"><a xlink:title=" ">
<path fill="none" stroke="#63b8ff" d="M476.17,-219.84C476.87,-206.3 480.19,-180.1 495.03,-165 507.73,-152.09 549.4,-139.81 584.01,-131.44"/>
<polygon fill="#63b8ff" stroke="#63b8ff" points="585.09,-134.78 594.02,-129.07 583.48,-127.96 585.09,-134.78"/>
</a>
</g>
</g>
<!-- Node13 -->
<g id="Node000013" class="node">
<title>Node13</title>
<g id="a_Node000013"><a xlink:href="linear__algebra_8h.html" target="_top" xlink:title=" ">
<polygon fill="white" stroke="#666666" points="968.53,-74 829.53,-74 829.53,-55 968.53,-55 968.53,-74"/>
<text text-anchor="middle" x="899.03" y="-62" font-family="Helvetica,sans-Serif" font-size="10.00">occ/core/linear_algebra.h</text>
</a>
</g>
</g>
<!-- Node12&#45;&gt;Node13 -->
<g id="edge13_Node000012_Node000013" class="edge">
<title>Node12&#45;&gt;Node13</title>
<g id="a_edge13_Node000012_Node000013"><a xlink:title=" ">
<path fill="none" stroke="#63b8ff" d="M677.45,-109.98C723.4,-100.76 796.78,-86.03 846.39,-76.07"/>
<polygon fill="#63b8ff" stroke="#63b8ff" points="847.17,-79.48 856.28,-74.08 845.79,-72.62 847.17,-79.48"/>
</a>
</g>
</g>
<!-- Node14 -->
<g id="Node000014" class="node">
<title>Node14</title>
<g id="a_Node000014"><a xlink:title=" ">
<polygon fill="#e0e0e0" stroke="#999999" points="988.53,-19 911.53,-19 911.53,0 988.53,0 988.53,-19"/>
<text text-anchor="middle" x="950.03" y="-7" font-family="Helvetica,sans-Serif" font-size="10.00">Eigen/Dense</text>
</a>
</g>
</g>
<!-- Node13&#45;&gt;Node14 -->
<g id="edge14_Node000013_Node000014" class="edge">
<title>Node13&#45;&gt;Node14</title>
<g id="a_edge14_Node000013_Node000014"><a xlink:title=" ">
<path fill="none" stroke="#63b8ff" d="M907.45,-54.75C914.81,-47.11 925.66,-35.82 934.57,-26.56"/>
<polygon fill="#63b8ff" stroke="#63b8ff" points="937.36,-28.72 941.77,-19.09 932.31,-23.87 937.36,-28.72"/>
</a>
</g>
</g>
<!-- Node15 -->
<g id="Node000015" class="node">
<title>Node15</title>
<g id="a_Node000015"><a xlink:title=" ">
<polygon fill="#e0e0e0" stroke="#999999" points="893.53,-19 800.53,-19 800.53,0 893.53,0 893.53,-19"/>
<text text-anchor="middle" x="847.03" y="-7" font-family="Helvetica,sans-Serif" font-size="10.00">Eigen/StdVector</text>
</a>
</g>
</g>
<!-- Node13&#45;&gt;Node15 -->
<g id="edge15_Node000013_Node000015" class="edge">
<title>Node13&#45;&gt;Node15</title>
<g id="a_edge15_Node000013_Node000015"><a xlink:title=" ">
<path fill="none" stroke="#63b8ff" d="M890.45,-54.75C882.87,-47.03 871.65,-35.6 862.52,-26.28"/>
<polygon fill="#63b8ff" stroke="#63b8ff" points="864.96,-23.78 855.46,-19.09 859.96,-28.68 864.96,-23.78"/>
</a>
</g>
</g>
<!-- Node16 -->
<g id="Node000016" class="node">
<title>Node16</title>
<g id="a_Node000016"><a xlink:title=" ">
<polygon fill="#e0e0e0" stroke="#999999" points="725.53,-19 658.53,-19 658.53,0 725.53,0 725.53,-19"/>
<text text-anchor="middle" x="692.03" y="-7" font-family="Helvetica,sans-Serif" font-size="10.00">fmt/core.h</text>
</a>
</g>
</g>
<!-- Node13&#45;&gt;Node16 -->
<g id="edge16_Node000013_Node000016" class="edge">
<title>Node13&#45;&gt;Node16</title>
<g id="a_edge16_Node000013_Node000016"><a xlink:title=" ">
<path fill="none" stroke="#63b8ff" d="M865.77,-54.98C830.42,-45.93 774.36,-31.58 735.52,-21.64"/>
<polygon fill="#63b8ff" stroke="#63b8ff" points="736.11,-18.17 725.55,-19.08 734.37,-24.95 736.11,-18.17"/>
</a>
</g>
</g>
<!-- Node18 -->
<g id="Node000018" class="node">
<title>Node18</title>
<g id="a_Node000018"><a xlink:href="spinorbital_8h.html" target="_top" xlink:title=" ">
<polygon fill="white" stroke="#666666" points="813.03,-184 697.03,-184 697.03,-165 813.03,-165 813.03,-184"/>
<text text-anchor="middle" x="755.03" y="-172" font-family="Helvetica,sans-Serif" font-size="10.00">occ/qm/spinorbital.h</text>
</a>
</g>
</g>
<!-- Node17&#45;&gt;Node18 -->
<g id="edge18_Node000017_Node000018" class="edge">
<title>Node17&#45;&gt;Node18</title>
<g id="a_edge18_Node000017_Node000018"><a xlink:title=" ">
<path fill="none" stroke="#63b8ff" d="M650.95,-219.98C671.08,-211.38 702.41,-197.99 725.44,-188.15"/>
<polygon fill="#63b8ff" stroke="#63b8ff" points="726.93,-191.32 734.75,-184.17 724.18,-184.88 726.93,-191.32"/>
</a>
</g>
</g>
<!-- Node18&#45;&gt;Node13 -->
<g id="edge19_Node000018_Node000013" class="edge">
<title>Node18&#45;&gt;Node13</title>
<g id="a_edge19_Node000018_Node000013"><a xlink:title=" ">
<path fill="none" stroke="#63b8ff" d="M767.72,-164.82C780.53,-155.98 800.85,-141.79 818.03,-129 839.68,-112.88 863.98,-93.68 880.26,-80.65"/>
<polygon fill="#63b8ff" stroke="#63b8ff" points="882.81,-83.09 888.42,-74.09 878.43,-77.63 882.81,-83.09"/>
</a>
</g>
</g>
<!-- Node19 -->
<g id="Node000019" class="node">
<title>Node19</title>
<g id="a_Node000019"><a xlink:href="util_8h.html" target="_top" xlink:title=" ">
<polygon fill="white" stroke="#666666" points="569.53,-129 484.53,-129 484.53,-110 569.53,-110 569.53,-129"/>
<text text-anchor="middle" x="527.03" y="-117" font-family="Helvetica,sans-Serif" font-size="10.00">occ/core/util.h</text>
</a>
</g>
</g>
<!-- Node18&#45;&gt;Node19 -->
<g id="edge20_Node000018_Node000019" class="edge">
<title>Node18&#45;&gt;Node19</title>
<g id="a_edge20_Node000018_Node000019"><a xlink:title=" ">
<path fill="none" stroke="#63b8ff" d="M718.4,-164.98C679.13,-155.86 616.66,-141.33 573.85,-131.38"/>
<polygon fill="#63b8ff" stroke="#63b8ff" points="574.48,-127.94 563.95,-129.08 572.9,-134.76 574.48,-127.94"/>
</a>
</g>
</g>
<!-- Node25 -->
<g id="Node000025" class="node">
<title>Node25</title>
<g id="a_Node000025"><a xlink:href="qm_2opmatrix_8h.html" target="_top" xlink:title=" ">
<polygon fill="white" stroke="#666666" points="809.03,-129 701.03,-129 701.03,-110 809.03,-110 809.03,-129"/>
<text text-anchor="middle" x="755.03" y="-117" font-family="Helvetica,sans-Serif" font-size="10.00">occ/qm/opmatrix.h</text>
</a>
</g>
</g>
<!-- Node18&#45;&gt;Node25 -->
<g id="edge30_Node000018_Node000025" class="edge">
<title>Node18&#45;&gt;Node25</title>
<g id="a_edge30_Node000018_Node000025"><a xlink:title=" ">
<path fill="none" stroke="#63b8ff" d="M749.87,-164.75C748.37,-157.8 747.94,-147.85 748.55,-139.13"/>
<polygon fill="#63b8ff" stroke="#63b8ff" points="752.04,-139.47 749.9,-129.09 745.1,-138.53 752.04,-139.47"/>
</a>
</g>
</g>
<!-- Node19&#45;&gt;Node5 -->
<g id="edge29_Node000019_Node000005" class="edge">
<title>Node19&#45;&gt;Node5</title>
<g id="a_edge29_Node000019_Node000005"><a xlink:title=" ">
<path fill="none" stroke="#63b8ff" d="M484.32,-115.81C412.89,-110.86 264.63,-98.66 130.73,-74.08"/>
<polygon fill="#63b8ff" stroke="#63b8ff" points="131.18,-70.6 120.71,-72.21 129.9,-77.48 131.18,-70.6"/>
</a>
</g>
</g>
<!-- Node19&#45;&gt;Node9 -->
<g id="edge28_Node000019_Node000009" class="edge">
<title>Node19&#45;&gt;Node9</title>
<g id="a_edge28_Node000019_Node000009"><a xlink:title=" ">
<path fill="none" stroke="#63b8ff" d="M499.4,-109.98C468.72,-100.53 419.29,-85.3 386.97,-75.34"/>
<polygon fill="#63b8ff" stroke="#63b8ff" points="387.72,-71.91 377.13,-72.31 385.66,-78.6 387.72,-71.91"/>
</a>
</g>
</g>
<!-- Node19&#45;&gt;Node13 -->
<g id="edge27_Node000019_Node000013" class="edge">
<title>Node19&#45;&gt;Node13</title>
<g id="a_edge27_Node000019_Node000013"><a xlink:title=" ">
<path fill="none" stroke="#63b8ff" d="M569.59,-111.46C572.78,-110.96 575.96,-110.47 579.03,-110 662.87,-97.32 759.27,-84.1 824.17,-75.4"/>
<polygon fill="#63b8ff" stroke="#63b8ff" points="824.86,-78.84 834.31,-74.04 823.93,-71.9 824.86,-78.84"/>
</a>
</g>
</g>
<!-- Node19&#45;&gt;Node16 -->
<g id="edge24_Node000019_Node000016" class="edge">
<title>Node19&#45;&gt;Node16</title>
<g id="a_edge24_Node000019_Node000016"><a xlink:title=" ">
<path fill="none" stroke="#63b8ff" d="M535.7,-109.92C549.12,-96.95 576.07,-72.04 602.03,-55 620.97,-42.57 643.87,-31.3 661.83,-23.2"/>
<polygon fill="#63b8ff" stroke="#63b8ff" points="663.51,-26.29 671.24,-19.05 660.68,-19.88 663.51,-26.29"/>
</a>
</g>
</g>
<!-- Node20 -->
<g id="Node000020" class="node">
<title>Node20</title>
<g id="a_Node000020"><a xlink:title=" ">
<polygon fill="#e0e0e0" stroke="#999999" points="675.03,-74 611.03,-74 611.03,-55 675.03,-55 675.03,-74"/>
<text text-anchor="middle" x="643.03" y="-62" font-family="Helvetica,sans-Serif" font-size="10.00">algorithm</text>
</a>
</g>
</g>
<!-- Node19&#45;&gt;Node20 -->
<g id="edge21_Node000019_Node000020" class="edge">
<title>Node19&#45;&gt;Node20</title>
<g id="a_edge21_Node000019_Node000020"><a xlink:title=" ">
<path fill="none" stroke="#63b8ff" d="M545.67,-109.98C564.33,-101.46 593.28,-88.23 614.77,-78.41"/>
<polygon fill="#63b8ff" stroke="#63b8ff" points="616.41,-81.51 624.06,-74.17 613.51,-75.14 616.41,-81.51"/>
</a>
</g>
</g>
<!-- Node21 -->
<g id="Node000021" class="node">
<title>Node21</title>
<g id="a_Node000021"><a xlink:title=" ">
<polygon fill="#e0e0e0" stroke="#999999" points="742.53,-74 693.53,-74 693.53,-55 742.53,-55 742.53,-74"/>
<text text-anchor="middle" x="718.03" y="-62" font-family="Helvetica,sans-Serif" font-size="10.00">cctype</text>
</a>
</g>
</g>
<!-- Node19&#45;&gt;Node21 -->
<g id="edge22_Node000019_Node000021" class="edge">
<title>Node19&#45;&gt;Node21</title>
<g id="a_edge22_Node000019_Node000021"><a xlink:title=" ">
<path fill="none" stroke="#63b8ff" d="M557.72,-109.98C592.08,-100.45 647.63,-85.03 683.49,-75.09"/>
<polygon fill="#63b8ff" stroke="#63b8ff" points="684.79,-78.36 693.49,-72.31 682.92,-71.61 684.79,-78.36"/>
</a>
</g>
</g>
<!-- Node22 -->
<g id="Node000022" class="node">
<title>Node22</title>
<g id="a_Node000022"><a xlink:title=" ">
<polygon fill="#e0e0e0" stroke="#999999" points="811.03,-74 761.03,-74 761.03,-55 811.03,-55 811.03,-74"/>
<text text-anchor="middle" x="786.03" y="-62" font-family="Helvetica,sans-Serif" font-size="10.00">chrono</text>
</a>
</g>
</g>
<!-- Node19&#45;&gt;Node22 -->
<g id="edge23_Node000019_Node000022" class="edge">
<title>Node19&#45;&gt;Node22</title>
<g id="a_edge23_Node000019_Node000022"><a xlink:title=" ">
<path fill="none" stroke="#63b8ff" d="M569.88,-110.68C613.12,-102.65 682.05,-89.44 750.69,-74.21"/>
<polygon fill="#63b8ff" stroke="#63b8ff" points="751.82,-77.55 760.81,-71.95 750.29,-70.72 751.82,-77.55"/>
</a>
</g>
</g>
<!-- Node23 -->
<g id="Node000023" class="node">
<title>Node23</title>
<g id="a_Node000023"><a xlink:title=" ">
<polygon fill="#e0e0e0" stroke="#999999" points="481.03,-74 395.03,-74 395.03,-55 481.03,-55 481.03,-74"/>
<text text-anchor="middle" x="438.03" y="-62" font-family="Helvetica,sans-Serif" font-size="10.00">fmt/ostream.h</text>
</a>
</g>
</g>
<!-- Node19&#45;&gt;Node23 -->
<g id="edge25_Node000019_Node000023" class="edge">
<title>Node19&#45;&gt;Node23</title>
<g id="a_edge25_Node000019_Node000023"><a xlink:title=" ">
<path fill="none" stroke="#63b8ff" d="M512.73,-109.98C498.93,-101.77 477.79,-89.18 461.52,-79.49"/>
<polygon fill="#63b8ff" stroke="#63b8ff" points="462.97,-76.28 452.59,-74.17 459.39,-82.29 462.97,-76.28"/>
</a>
</g>
</g>
<!-- Node24 -->
<g id="Node000024" class="node">
<title>Node24</title>
<g id="a_Node000024"><a xlink:title=" ">
<polygon fill="#e0e0e0" stroke="#999999" points="555.03,-74 499.03,-74 499.03,-55 555.03,-55 555.03,-74"/>
<text text-anchor="middle" x="527.03" y="-62" font-family="Helvetica,sans-Serif" font-size="10.00">numeric</text>
</a>
</g>
</g>
<!-- Node19&#45;&gt;Node24 -->
<g id="edge26_Node000019_Node000024" class="edge">
<title>Node19&#45;&gt;Node24</title>
<g id="a_edge26_Node000019_Node000024"><a xlink:title=" ">
<path fill="none" stroke="#63b8ff" d="M527.03,-109.75C527.03,-102.8 527.03,-92.85 527.03,-84.13"/>
<polygon fill="#63b8ff" stroke="#63b8ff" points="530.53,-84.09 527.03,-74.09 523.53,-84.09 530.53,-84.09"/>
</a>
</g>
</g>
<!-- Node25&#45;&gt;Node18 -->
<g id="edge31_Node000025_Node000018" class="edge">
<title>Node25&#45;&gt;Node18</title>
<g id="a_edge31_Node000025_Node000018"><a xlink:title=" ">
<path fill="none" stroke="#63b8ff" d="M760.16,-129.09C761.67,-135.99 762.13,-145.93 761.52,-154.66"/>
<polygon fill="#63b8ff" stroke="#63b8ff" points="758.03,-154.38 760.2,-164.75 764.97,-155.29 758.03,-154.38"/>
</a>
</g>
</g>
<!-- Node26&#45;&gt;Node18 -->
<g id="edge35_Node000026_Node000018" class="edge">
<title>Node26&#45;&gt;Node18</title>
<g id="a_edge35_Node000026_Node000018"><a xlink:title=" ">
<path fill="none" stroke="#63b8ff" d="M755.03,-219.75C755.03,-212.8 755.03,-202.85 755.03,-194.13"/>
<polygon fill="#63b8ff" stroke="#63b8ff" points="758.53,-194.09 755.03,-184.09 751.53,-194.09 758.53,-194.09"/>
</a>
</g>
</g>
<!-- Node27 -->
<g id="Node000027" class="node">
<title>Node27</title>
<g id="a_Node000027"><a xlink:href="orbital__smearing_8h.html" target="_top" xlink:title=" ">
<polygon fill="white" stroke="#666666" points="1011.03,-129 865.03,-129 865.03,-110 1011.03,-110 1011.03,-129"/>
<text text-anchor="middle" x="938.03" y="-117" font-family="Helvetica,sans-Serif" font-size="10.00">occ/qm/orbital_smearing.h</text>
</a>
</g>
</g>
<!-- Node26&#45;&gt;Node27 -->
<g id="edge33_Node000026_Node000027" class="edge">
<title>Node26&#45;&gt;Node27</title>
<g id="a_edge33_Node000026_Node000027"><a xlink:title=" ">
<path fill="none" stroke="#63b8ff" d="M769.7,-219.84C801.36,-201.16 876.36,-156.9 914.65,-134.3"/>
<polygon fill="#63b8ff" stroke="#63b8ff" points="916.72,-137.14 923.55,-129.05 913.16,-131.12 916.72,-137.14"/>
</a>
</g>
</g>
<!-- Node27&#45;&gt;Node13 -->
<g id="edge34_Node000027_Node000013" class="edge">
<title>Node27&#45;&gt;Node13</title>
<g id="a_edge34_Node000027_Node000013"><a xlink:title=" ">
<path fill="none" stroke="#63b8ff" d="M931.59,-109.75C926.14,-102.34 918.17,-91.5 911.48,-82.41"/>
<polygon fill="#63b8ff" stroke="#63b8ff" points="914.1,-80.07 905.35,-74.09 908.46,-84.22 914.1,-80.07"/>
</a>
</g>
</g>
</g>
</svg>
