<?xml version="1.0" encoding="UTF-8" standalone="no"?>
<!DOCTYPE svg PUBLIC "-//W3C//DTD SVG 1.1//EN"
 "http://www.w3.org/Graphics/SVG/1.1/DTD/svg11.dtd">
<!-- Generated by graphviz version 2.43.0 (0)
 -->
<!-- Title: /home/runner/work/occ/occ/include/occ/io/fchkreader.h Pages: 1 -->
<svg width="1256pt" height="319pt"
 viewBox="0.00 0.00 1255.50 319.00" xmlns="http://www.w3.org/2000/svg" xmlns:xlink="http://www.w3.org/1999/xlink">
<g id="graph0" class="graph" transform="scale(1 1) rotate(0) translate(4 315)">
<title>/home/runner/work/occ/occ/include/occ/io/fchkreader.h</title>
<!-- Node1 -->
<g id="node1" class="node">
<title>Node1</title>
<g id="a_node1"><a xlink:title=" ">
<polygon fill="#bfbfbf" stroke="black" points="212.5,-280.5 212.5,-310.5 382.5,-310.5 382.5,-280.5 212.5,-280.5"/>
<text text-anchor="start" x="220.5" y="-298.5" font-family="Helvetica,sans-Serif" font-size="10.00">/home/runner/work/occ</text>
<text text-anchor="middle" x="297.5" y="-287.5" font-family="Helvetica,sans-Serif" font-size="10.00">/occ/include/occ/io/fchkreader.h</text>
</a>
</g>
</g>
<!-- Node2 -->
<g id="node2" class="node">
<title>Node2</title>
<g id="a_node2"><a xlink:title=" ">
<polygon fill="none" stroke="#bfbfbf" points="0,-224.5 0,-243.5 55,-243.5 55,-224.5 0,-224.5"/>
<text text-anchor="middle" x="27.5" y="-231.5" font-family="Helvetica,sans-Serif" font-size="10.00">fstream</text>
</a>
</g>
</g>
<!-- Node1&#45;&gt;Node2 -->
<g id="edge1" class="edge">
<title>Node1&#45;&gt;Node2</title>
<path fill="none" stroke="midnightblue" d="M230.61,-280.47C186.35,-271.08 126.79,-258.23 65.25,-244.13"/>
<polygon fill="midnightblue" stroke="midnightblue" points="65.89,-240.69 55.36,-241.86 64.32,-247.51 65.89,-240.69"/>
</g>
<!-- Node3 -->
<g id="node3" class="node">
<title>Node3</title>
<g id="a_node3"><a xlink:title=" ">
<polygon fill="none" stroke="#bfbfbf" points="73.5,-224.5 73.5,-243.5 127.5,-243.5 127.5,-224.5 73.5,-224.5"/>
<text text-anchor="middle" x="100.5" y="-231.5" font-family="Helvetica,sans-Serif" font-size="10.00">istream</text>
</a>
</g>
</g>
<!-- Node1&#45;&gt;Node3 -->
<g id="edge2" class="edge">
<title>Node1&#45;&gt;Node3</title>
<path fill="none" stroke="midnightblue" d="M250.81,-280.4C216.21,-269.95 169.69,-255.9 137.61,-246.21"/>
<polygon fill="midnightblue" stroke="midnightblue" points="138.32,-242.77 127.74,-243.23 136.3,-249.47 138.32,-242.77"/>
</g>
<!-- Node4 -->
<g id="node4" class="node">
<title>Node4</title>
<g id="a_node4"><a xlink:href="linear__algebra_8h.html" target="_top" xlink:title=" ">
<polygon fill="none" stroke="black" points="322,-56.5 322,-75.5 461,-75.5 461,-56.5 322,-56.5"/>
<text text-anchor="middle" x="391.5" y="-63.5" font-family="Helvetica,sans-Serif" font-size="10.00">occ/core/linear_algebra.h</text>
</a>
</g>
</g>
<!-- Node1&#45;&gt;Node4 -->
<g id="edge3" class="edge">
<title>Node1&#45;&gt;Node4</title>
<path fill="none" stroke="midnightblue" d="M282.79,-280.41C250.71,-247.96 180.54,-166.59 222.5,-112 234.72,-96.1 279.33,-84.63 319.65,-77.24"/>
<polygon fill="midnightblue" stroke="midnightblue" points="320.28,-80.69 329.52,-75.5 319.06,-73.79 320.28,-80.69"/>
</g>
<!-- Node8 -->
<g id="node8" class="node">
<title>Node8</title>
<g id="a_node8"><a xlink:href="shell_8h.html" target="_top" xlink:title=" ">
<polygon fill="none" stroke="black" points="396,-224.5 396,-243.5 483,-243.5 483,-224.5 396,-224.5"/>
<text text-anchor="middle" x="439.5" y="-231.5" font-family="Helvetica,sans-Serif" font-size="10.00">occ/qm/shell.h</text>
</a>
</g>
</g>
<!-- Node1&#45;&gt;Node8 -->
<g id="edge7" class="edge">
<title>Node1&#45;&gt;Node8</title>
<path fill="none" stroke="midnightblue" d="M331.15,-280.4C354.98,-270.42 386.65,-257.15 409.59,-247.53"/>
<polygon fill="midnightblue" stroke="midnightblue" points="410.97,-250.75 418.84,-243.66 408.26,-244.29 410.97,-250.75"/>
</g>
<!-- Node20 -->
<g id="node20" class="node">
<title>Node20</title>
<g id="a_node20"><a xlink:title=" ">
<polygon fill="none" stroke="#bfbfbf" points="542,-112.5 542,-131.5 589,-131.5 589,-112.5 542,-112.5"/>
<text text-anchor="middle" x="565.5" y="-119.5" font-family="Helvetica,sans-Serif" font-size="10.00">vector</text>
</a>
</g>
</g>
<!-- Node1&#45;&gt;Node20 -->
<g id="edge35" class="edge">
<title>Node1&#45;&gt;Node20</title>
<path fill="none" stroke="midnightblue" d="M382.61,-284.62C418.42,-277.47 459.18,-265.16 491.5,-244 528.98,-219.46 550.56,-168.69 559.91,-141.36"/>
<polygon fill="midnightblue" stroke="midnightblue" points="563.34,-142.12 563.09,-131.53 556.68,-139.97 563.34,-142.12"/>
</g>
<!-- Node22 -->
<g id="node22" class="node">
<title>Node22</title>
<g id="a_node22"><a xlink:href="spinorbital_8h.html" target="_top" xlink:title=" ">
<polygon fill="none" stroke="black" points="1053.5,-224.5 1053.5,-243.5 1169.5,-243.5 1169.5,-224.5 1053.5,-224.5"/>
<text text-anchor="middle" x="1111.5" y="-231.5" font-family="Helvetica,sans-Serif" font-size="10.00">occ/qm/spinorbital.h</text>
</a>
</g>
</g>
<!-- Node1&#45;&gt;Node22 -->
<g id="edge30" class="edge">
<title>Node1&#45;&gt;Node22</title>
<path fill="none" stroke="midnightblue" d="M382.69,-288.27C544.83,-276.42 894.82,-250.84 1043,-240.01"/>
<polygon fill="midnightblue" stroke="midnightblue" points="1043.6,-243.47 1053.31,-239.25 1043.09,-236.49 1043.6,-243.47"/>
</g>
<!-- Node5 -->
<g id="node5" class="node">
<title>Node5</title>
<g id="a_node5"><a xlink:title=" ">
<polygon fill="none" stroke="#bfbfbf" points="405,-0.5 405,-19.5 482,-19.5 482,-0.5 405,-0.5"/>
<text text-anchor="middle" x="443.5" y="-7.5" font-family="Helvetica,sans-Serif" font-size="10.00">Eigen/Dense</text>
</a>
</g>
</g>
<!-- Node4&#45;&gt;Node5 -->
<g id="edge4" class="edge">
<title>Node4&#45;&gt;Node5</title>
<path fill="none" stroke="midnightblue" d="M400.09,-56.08C407.66,-48.22 418.88,-36.57 428.01,-27.08"/>
<polygon fill="midnightblue" stroke="midnightblue" points="430.66,-29.38 435.07,-19.75 425.62,-24.53 430.66,-29.38"/>
</g>
<!-- Node6 -->
<g id="node6" class="node">
<title>Node6</title>
<g id="a_node6"><a xlink:title=" ">
<polygon fill="none" stroke="#bfbfbf" points="294,-0.5 294,-19.5 387,-19.5 387,-0.5 294,-0.5"/>
<text text-anchor="middle" x="340.5" y="-7.5" font-family="Helvetica,sans-Serif" font-size="10.00">Eigen/StdVector</text>
</a>
</g>
</g>
<!-- Node4&#45;&gt;Node6 -->
<g id="edge5" class="edge">
<title>Node4&#45;&gt;Node6</title>
<path fill="none" stroke="midnightblue" d="M383.08,-56.08C375.65,-48.22 364.65,-36.57 355.69,-27.08"/>
<polygon fill="midnightblue" stroke="midnightblue" points="358.18,-24.62 348.76,-19.75 353.09,-29.42 358.18,-24.62"/>
</g>
<!-- Node7 -->
<g id="node7" class="node">
<title>Node7</title>
<g id="a_node7"><a xlink:title=" ">
<polygon fill="none" stroke="#bfbfbf" points="765.5,-0.5 765.5,-19.5 851.5,-19.5 851.5,-0.5 765.5,-0.5"/>
<text text-anchor="middle" x="808.5" y="-7.5" font-family="Helvetica,sans-Serif" font-size="10.00">fmt/ostream.h</text>
</a>
</g>
</g>
<!-- Node4&#45;&gt;Node7 -->
<g id="edge6" class="edge">
<title>Node4&#45;&gt;Node7</title>
<path fill="none" stroke="midnightblue" d="M457.57,-56.44C539.94,-45.78 679.09,-27.76 755.07,-17.92"/>
<polygon fill="midnightblue" stroke="midnightblue" points="755.89,-21.34 765.36,-16.59 754.99,-14.4 755.89,-21.34"/>
</g>
<!-- Node8&#45;&gt;Node4 -->
<g id="edge12" class="edge">
<title>Node8&#45;&gt;Node4</title>
<path fill="none" stroke="midnightblue" d="M395.75,-228.59C343.91,-222.45 261.86,-209.6 240.5,-188 222.6,-169.9 231.18,-157.31 228.5,-132 227.56,-123.16 223.12,-119.07 228.5,-112 240.34,-96.44 284,-84.89 323.15,-77.39"/>
<polygon fill="midnightblue" stroke="midnightblue" points="323.79,-80.83 332.98,-75.57 322.51,-73.95 323.79,-80.83"/>
</g>
<!-- Node9 -->
<g id="node9" class="node">
<title>Node9</title>
<g id="a_node9"><a xlink:title=" ">
<polygon fill="none" stroke="#bfbfbf" points="237.5,-112.5 237.5,-131.5 279.5,-131.5 279.5,-112.5 237.5,-112.5"/>
<text text-anchor="middle" x="258.5" y="-119.5" font-family="Helvetica,sans-Serif" font-size="10.00">array</text>
</a>
</g>
</g>
<!-- Node8&#45;&gt;Node9 -->
<g id="edge8" class="edge">
<title>Node8&#45;&gt;Node9</title>
<path fill="none" stroke="midnightblue" d="M395.86,-228.79C345.78,-222.96 268.27,-210.5 250.5,-188 240.07,-174.79 244.38,-155.12 249.87,-140.88"/>
<polygon fill="midnightblue" stroke="midnightblue" points="253.11,-142.2 253.88,-131.64 246.69,-139.41 253.11,-142.2"/>
</g>
<!-- Node10 -->
<g id="node10" class="node">
<title>Node10</title>
<g id="a_node10"><a xlink:title=" ">
<polygon fill="none" stroke="#bfbfbf" points="409.5,-168.5 409.5,-187.5 469.5,-187.5 469.5,-168.5 409.5,-168.5"/>
<text text-anchor="middle" x="439.5" y="-175.5" font-family="Helvetica,sans-Serif" font-size="10.00">iostream</text>
</a>
</g>
</g>
<!-- Node8&#45;&gt;Node10 -->
<g id="edge9" class="edge">
<title>Node8&#45;&gt;Node10</title>
<path fill="none" stroke="midnightblue" d="M439.5,-224.08C439.5,-217.01 439.5,-206.86 439.5,-197.99"/>
<polygon fill="midnightblue" stroke="midnightblue" points="443,-197.75 439.5,-187.75 436,-197.75 443,-197.75"/>
</g>
<!-- Node11 -->
<g id="node11" class="node">
<title>Node11</title>
<g id="a_node11"><a xlink:href="atom_8h.html" target="_top" xlink:title=" ">
<polygon fill="none" stroke="black" points="344,-112.5 344,-131.5 439,-131.5 439,-112.5 344,-112.5"/>
<text text-anchor="middle" x="391.5" y="-119.5" font-family="Helvetica,sans-Serif" font-size="10.00">occ/core/atom.h</text>
</a>
</g>
</g>
<!-- Node8&#45;&gt;Node11 -->
<g id="edge10" class="edge">
<title>Node8&#45;&gt;Node11</title>
<path fill="none" stroke="midnightblue" d="M451.29,-224.36C466.8,-211.88 490.75,-188.12 478.5,-168 469.04,-152.46 452.29,-142.05 436,-135.19"/>
<polygon fill="midnightblue" stroke="midnightblue" points="437.1,-131.87 426.51,-131.55 434.6,-138.4 437.1,-131.87"/>
</g>
<!-- Node12 -->
<g id="node12" class="node">
<title>Node12</title>
<g id="a_node12"><a xlink:href="point__charge_8h.html" target="_top" xlink:title=" ">
<polygon fill="none" stroke="black" points="259.5,-168.5 259.5,-187.5 391.5,-187.5 391.5,-168.5 259.5,-168.5"/>
<text text-anchor="middle" x="325.5" y="-175.5" font-family="Helvetica,sans-Serif" font-size="10.00">occ/core/point_charge.h</text>
</a>
</g>
</g>
<!-- Node8&#45;&gt;Node12 -->
<g id="edge13" class="edge">
<title>Node8&#45;&gt;Node12</title>
<path fill="none" stroke="midnightblue" d="M421.44,-224.44C402.93,-215.68 373.92,-201.94 352.64,-191.86"/>
<polygon fill="midnightblue" stroke="midnightblue" points="354.01,-188.63 343.48,-187.52 351.02,-194.96 354.01,-188.63"/>
</g>
<!-- Node13 -->
<g id="node13" class="node">
<title>Node13</title>
<g id="a_node13"><a xlink:href="util_8h.html" target="_top" xlink:title=" ">
<polygon fill="none" stroke="black" points="741,-168.5 741,-187.5 826,-187.5 826,-168.5 741,-168.5"/>
<text text-anchor="middle" x="783.5" y="-175.5" font-family="Helvetica,sans-Serif" font-size="10.00">occ/core/util.h</text>
</a>
</g>
</g>
<!-- Node8&#45;&gt;Node13 -->
<g id="edge17" class="edge">
<title>Node8&#45;&gt;Node13</title>
<path fill="none" stroke="midnightblue" d="M483.07,-226.16C546.18,-216.25 662.89,-197.93 730.77,-187.28"/>
<polygon fill="midnightblue" stroke="midnightblue" points="731.49,-190.71 740.83,-185.7 730.4,-183.79 731.49,-190.71"/>
</g>
<!-- Node16 -->
<g id="node16" class="node">
<title>Node16</title>
<g id="a_node16"><a xlink:title=" ">
<polygon fill="none" stroke="#bfbfbf" points="457,-112.5 457,-131.5 524,-131.5 524,-112.5 457,-112.5"/>
<text text-anchor="middle" x="490.5" y="-119.5" font-family="Helvetica,sans-Serif" font-size="10.00">fmt/core.h</text>
</a>
</g>
</g>
<!-- Node8&#45;&gt;Node16 -->
<g id="edge28" class="edge">
<title>Node8&#45;&gt;Node16</title>
<path fill="none" stroke="midnightblue" d="M456.7,-224.39C469.75,-216.79 486.73,-204.39 494.5,-188 501.31,-173.63 499.43,-155.44 496.35,-141.95"/>
<polygon fill="midnightblue" stroke="midnightblue" points="499.63,-140.67 493.65,-131.92 492.87,-142.49 499.63,-140.67"/>
</g>
<!-- Node8&#45;&gt;Node20 -->
<g id="edge29" class="edge">
<title>Node8&#45;&gt;Node20</title>
<path fill="none" stroke="midnightblue" d="M456.54,-224.37C471.82,-216.19 494.41,-202.94 511.5,-188 527.99,-173.59 543.62,-153.88 553.77,-139.95"/>
<polygon fill="midnightblue" stroke="midnightblue" points="556.66,-141.93 559.61,-131.75 550.96,-137.87 556.66,-141.93"/>
</g>
<!-- Node11&#45;&gt;Node4 -->
<g id="edge11" class="edge">
<title>Node11&#45;&gt;Node4</title>
<path fill="none" stroke="midnightblue" d="M391.5,-112.08C391.5,-105.01 391.5,-94.86 391.5,-85.99"/>
<polygon fill="midnightblue" stroke="midnightblue" points="395,-85.75 391.5,-75.75 388,-85.75 395,-85.75"/>
</g>
<!-- Node12&#45;&gt;Node4 -->
<g id="edge16" class="edge">
<title>Node12&#45;&gt;Node4</title>
<path fill="none" stroke="midnightblue" d="M324.74,-168.36C323.99,-155.26 324.2,-129.99 334.5,-112 341.82,-99.22 354.32,-88.74 365.75,-81.11"/>
<polygon fill="midnightblue" stroke="midnightblue" points="367.94,-83.88 374.58,-75.62 364.24,-77.94 367.94,-83.88"/>
</g>
<!-- Node12&#45;&gt;Node9 -->
<g id="edge14" class="edge">
<title>Node12&#45;&gt;Node9</title>
<path fill="none" stroke="midnightblue" d="M314.74,-168.32C304.73,-160.26 289.61,-148.08 277.57,-138.37"/>
<polygon fill="midnightblue" stroke="midnightblue" points="279.44,-135.38 269.46,-131.83 275.05,-140.83 279.44,-135.38"/>
</g>
<!-- Node12&#45;&gt;Node11 -->
<g id="edge15" class="edge">
<title>Node12&#45;&gt;Node11</title>
<path fill="none" stroke="midnightblue" d="M336.1,-168.32C345.96,-160.26 360.85,-148.08 372.72,-138.37"/>
<polygon fill="midnightblue" stroke="midnightblue" points="375.18,-140.88 380.7,-131.83 370.75,-135.46 375.18,-140.88"/>
</g>
<!-- Node13&#45;&gt;Node4 -->
<g id="edge24" class="edge">
<title>Node13&#45;&gt;Node4</title>
<path fill="none" stroke="midnightblue" d="M749.64,-168.46C719.46,-160.43 674.34,-147.35 636.5,-132 618.45,-124.68 615.84,-118.58 597.5,-112 552.71,-95.93 500.3,-84.58 459.55,-77.3"/>
<polygon fill="midnightblue" stroke="midnightblue" points="459.9,-73.81 449.45,-75.53 458.7,-80.7 459.9,-73.81"/>
</g>
<!-- Node13&#45;&gt;Node7 -->
<g id="edge21" class="edge">
<title>Node13&#45;&gt;Node7</title>
<path fill="none" stroke="midnightblue" d="M826.22,-176.35C895.06,-174.3 1025.74,-165.93 1054.5,-132 1112.74,-63.29 950.42,-30.04 861.82,-17.37"/>
<polygon fill="midnightblue" stroke="midnightblue" points="862.05,-13.87 851.66,-15.97 861.09,-20.81 862.05,-13.87"/>
</g>
<!-- Node14 -->
<g id="node14" class="node">
<title>Node14</title>
<g id="a_node14"><a xlink:title=" ">
<polygon fill="none" stroke="#bfbfbf" points="713.5,-112.5 713.5,-131.5 777.5,-131.5 777.5,-112.5 713.5,-112.5"/>
<text text-anchor="middle" x="745.5" y="-119.5" font-family="Helvetica,sans-Serif" font-size="10.00">algorithm</text>
</a>
</g>
</g>
<!-- Node13&#45;&gt;Node14 -->
<g id="edge18" class="edge">
<title>Node13&#45;&gt;Node14</title>
<path fill="none" stroke="midnightblue" d="M777.23,-168.08C771.86,-160.46 763.98,-149.26 757.42,-139.94"/>
<polygon fill="midnightblue" stroke="midnightblue" points="760.28,-137.91 751.66,-131.75 754.55,-141.94 760.28,-137.91"/>
</g>
<!-- Node15 -->
<g id="node15" class="node">
<title>Node15</title>
<g id="a_node15"><a xlink:title=" ">
<polygon fill="none" stroke="#bfbfbf" points="796,-112.5 796,-131.5 845,-131.5 845,-112.5 796,-112.5"/>
<text text-anchor="middle" x="820.5" y="-119.5" font-family="Helvetica,sans-Serif" font-size="10.00">cctype</text>
</a>
</g>
</g>
<!-- Node13&#45;&gt;Node15 -->
<g id="edge19" class="edge">
<title>Node13&#45;&gt;Node15</title>
<path fill="none" stroke="midnightblue" d="M789.61,-168.08C794.78,-160.53 802.35,-149.49 808.69,-140.23"/>
<polygon fill="midnightblue" stroke="midnightblue" points="811.74,-141.98 814.5,-131.75 805.96,-138.02 811.74,-141.98"/>
</g>
<!-- Node13&#45;&gt;Node16 -->
<g id="edge20" class="edge">
<title>Node13&#45;&gt;Node16</title>
<path fill="none" stroke="midnightblue" d="M740.78,-169.79C692.82,-161.6 612.41,-147.57 534.4,-132.33"/>
<polygon fill="midnightblue" stroke="midnightblue" points="534.89,-128.86 524.41,-130.37 533.54,-135.73 534.89,-128.86"/>
</g>
<!-- Node17 -->
<g id="node17" class="node">
<title>Node17</title>
<g id="a_node17"><a xlink:title=" ">
<polygon fill="none" stroke="#bfbfbf" points="863.5,-112.5 863.5,-131.5 909.5,-131.5 909.5,-112.5 863.5,-112.5"/>
<text text-anchor="middle" x="886.5" y="-119.5" font-family="Helvetica,sans-Serif" font-size="10.00">locale</text>
</a>
</g>
</g>
<!-- Node13&#45;&gt;Node17 -->
<g id="edge22" class="edge">
<title>Node13&#45;&gt;Node17</title>
<path fill="none" stroke="midnightblue" d="M800.05,-168.32C816.49,-159.7 841.93,-146.36 860.97,-136.39"/>
<polygon fill="midnightblue" stroke="midnightblue" points="862.76,-139.4 869.99,-131.65 859.51,-133.2 862.76,-139.4"/>
</g>
<!-- Node18 -->
<g id="node18" class="node">
<title>Node18</title>
<g id="a_node18"><a xlink:title=" ">
<polygon fill="none" stroke="#bfbfbf" points="927.5,-112.5 927.5,-131.5 983.5,-131.5 983.5,-112.5 927.5,-112.5"/>
<text text-anchor="middle" x="955.5" y="-119.5" font-family="Helvetica,sans-Serif" font-size="10.00">numeric</text>
</a>
</g>
</g>
<!-- Node13&#45;&gt;Node18 -->
<g id="edge23" class="edge">
<title>Node13&#45;&gt;Node18</title>
<path fill="none" stroke="midnightblue" d="M810.75,-168.44C839.94,-159.28 886.42,-144.69 918.81,-134.52"/>
<polygon fill="midnightblue" stroke="midnightblue" points="919.88,-137.85 928.37,-131.52 917.78,-131.17 919.88,-137.85"/>
</g>
<!-- Node19 -->
<g id="node19" class="node">
<title>Node19</title>
<g id="a_node19"><a xlink:title=" ">
<polygon fill="none" stroke="#bfbfbf" points="1001.5,-112.5 1001.5,-131.5 1045.5,-131.5 1045.5,-112.5 1001.5,-112.5"/>
<text text-anchor="middle" x="1023.5" y="-119.5" font-family="Helvetica,sans-Serif" font-size="10.00">string</text>
</a>
</g>
</g>
<!-- Node13&#45;&gt;Node19 -->
<g id="edge25" class="edge">
<title>Node13&#45;&gt;Node19</title>
<path fill="none" stroke="midnightblue" d="M826.13,-168.74C866.36,-160.74 928.56,-147.84 991.15,-132.21"/>
<polygon fill="midnightblue" stroke="midnightblue" points="992.36,-135.52 1001.2,-129.68 990.65,-128.73 992.36,-135.52"/>
</g>
<!-- Node13&#45;&gt;Node20 -->
<g id="edge26" class="edge">
<title>Node13&#45;&gt;Node20</title>
<path fill="none" stroke="midnightblue" d="M748.96,-168.44C707.87,-158.27 639.75,-141.39 599.09,-131.32"/>
<polygon fill="midnightblue" stroke="midnightblue" points="599.68,-127.86 589.13,-128.85 598,-134.66 599.68,-127.86"/>
</g>
<!-- Node21 -->
<g id="node21" class="node">
<title>Node21</title>
<g id="a_node21"><a xlink:title=" ">
<polygon fill="none" stroke="#bfbfbf" points="645.5,-112.5 645.5,-131.5 695.5,-131.5 695.5,-112.5 645.5,-112.5"/>
<text text-anchor="middle" x="670.5" y="-119.5" font-family="Helvetica,sans-Serif" font-size="10.00">chrono</text>
</a>
</g>
</g>
<!-- Node13&#45;&gt;Node21 -->
<g id="edge27" class="edge">
<title>Node13&#45;&gt;Node21</title>
<path fill="none" stroke="midnightblue" d="M765.59,-168.44C747.25,-159.68 718.49,-145.94 697.41,-135.86"/>
<polygon fill="midnightblue" stroke="midnightblue" points="698.85,-132.67 688.32,-131.52 695.83,-138.99 698.85,-132.67"/>
</g>
<!-- Node22&#45;&gt;Node4 -->
<g id="edge31" class="edge">
<title>Node22&#45;&gt;Node4</title>
<path fill="none" stroke="midnightblue" d="M1110.4,-224.38C1106.96,-201.49 1094.19,-139.11 1054.5,-112 1007.37,-79.82 637.05,-70.5 471.27,-67.93"/>
<polygon fill="midnightblue" stroke="midnightblue" points="471.18,-64.43 461.13,-67.78 471.08,-71.43 471.18,-64.43"/>
</g>
<!-- Node22&#45;&gt;Node13 -->
<g id="edge32" class="edge">
<title>Node22&#45;&gt;Node13</title>
<path fill="none" stroke="midnightblue" d="M1059.53,-224.44C998.35,-214.37 897.35,-197.74 835.96,-187.64"/>
<polygon fill="midnightblue" stroke="midnightblue" points="836.53,-184.18 826.09,-186.01 835.39,-191.09 836.53,-184.18"/>
</g>
<!-- Node23 -->
<g id="node23" class="node">
<title>Node23</title>
<g id="a_node23"><a xlink:href="qm_2opmatrix_8h.html" target="_top" xlink:title=" ">
<polygon fill="none" stroke="black" points="1139.5,-168.5 1139.5,-187.5 1247.5,-187.5 1247.5,-168.5 1139.5,-168.5"/>
<text text-anchor="middle" x="1193.5" y="-175.5" font-family="Helvetica,sans-Serif" font-size="10.00">occ/qm/opmatrix.h</text>
</a>
</g>
</g>
<!-- Node22&#45;&gt;Node23 -->
<g id="edge33" class="edge">
<title>Node22&#45;&gt;Node23</title>
<path fill="none" stroke="midnightblue" d="M1119.56,-224.32C1130.63,-215.82 1150.23,-202.73 1166.57,-192.8"/>
<polygon fill="midnightblue" stroke="midnightblue" points="1168.43,-195.77 1175.25,-187.65 1164.86,-189.74 1168.43,-195.77"/>
</g>
<!-- Node23&#45;&gt;Node22 -->
<g id="edge34" class="edge">
<title>Node23&#45;&gt;Node22</title>
<path fill="none" stroke="midnightblue" d="M1185.23,-187.83C1174.13,-196.34 1154.66,-209.34 1138.41,-219.21"/>
<polygon fill="midnightblue" stroke="midnightblue" points="1136.61,-216.21 1129.79,-224.32 1140.18,-222.23 1136.61,-216.21"/>
</g>
</g>
</svg>
