<?xml version="1.0" encoding="UTF-8" standalone="no"?>
<!DOCTYPE svg PUBLIC "-//W3C//DTD SVG 1.1//EN"
 "http://www.w3.org/Graphics/SVG/1.1/DTD/svg11.dtd">
<!-- Generated by graphviz version 2.43.0 (0)
 -->
<!-- Title: /home/runner/work/occ/occ/include/occ/qm/io/fchkwriter.h Pages: 1 -->
<svg width="998pt" height="324pt"
 viewBox="0.00 0.00 997.50 324.00" xmlns="http://www.w3.org/2000/svg" xmlns:xlink="http://www.w3.org/1999/xlink">
<g id="graph0" class="graph" transform="scale(1 1) rotate(0) translate(4 320)">
<title>/home/runner/work/occ/occ/include/occ/qm/io/fchkwriter.h</title>
<!-- Node1 -->
<g id="Node000001" class="node">
<title>Node1</title>
<g id="a_Node000001"><a xlink:title=" ">
<polygon fill="#999999" stroke="#666666" points="584,-316 456,-316 456,-275 584,-275 584,-316"/>
<text text-anchor="start" x="464" y="-304" font-family="Helvetica,sans-Serif" font-size="10.00">/home/runner/work/occ</text>
<text text-anchor="start" x="464" y="-293" font-family="Helvetica,sans-Serif" font-size="10.00">/occ/include/occ/qm/io</text>
<text text-anchor="middle" x="520" y="-282" font-family="Helvetica,sans-Serif" font-size="10.00">/fchkwriter.h</text>
</a>
</g>
</g>
<!-- Node2 -->
<g id="Node000002" class="node">
<title>Node2</title>
<g id="a_Node000002"><a xlink:title=" ">
<polygon fill="#e0e0e0" stroke="#999999" points="154.5,-239 11.5,-239 11.5,-220 154.5,-220 154.5,-239"/>
<text text-anchor="middle" x="83" y="-227" font-family="Helvetica,sans-Serif" font-size="10.00">ankerl/unordered_dense.h</text>
</a>
</g>
</g>
<!-- Node1&#45;&gt;Node2 -->
<g id="edge1_Node000001_Node000002" class="edge">
<title>Node1&#45;&gt;Node2</title>
<g id="a_edge1_Node000001_Node000002"><a xlink:title=" ">
<path fill="none" stroke="#63b8ff" d="M455.99,-285.13C374.63,-273.21 234.76,-252.73 151.37,-240.51"/>
<polygon fill="#63b8ff" stroke="#63b8ff" points="151.64,-237.02 141.24,-239.03 150.63,-243.94 151.64,-237.02"/>
</a>
</g>
</g>
<!-- Node3 -->
<g id="Node000003" class="node">
<title>Node3</title>
<g id="a_Node000003"><a xlink:title=" ">
<polygon fill="#e0e0e0" stroke="#999999" points="227.5,-239 172.5,-239 172.5,-220 227.5,-220 227.5,-239"/>
<text text-anchor="middle" x="200" y="-227" font-family="Helvetica,sans-Serif" font-size="10.00">fstream</text>
</a>
</g>
</g>
<!-- Node1&#45;&gt;Node3 -->
<g id="edge2_Node000001_Node000003" class="edge">
<title>Node1&#45;&gt;Node3</title>
<g id="a_edge2_Node000001_Node000003"><a xlink:title=" ">
<path fill="none" stroke="#63b8ff" d="M455.84,-282.7C400.44,-272.34 318.01,-256.53 237.67,-239.3"/>
<polygon fill="#63b8ff" stroke="#63b8ff" points="238.4,-235.88 227.88,-237.2 236.92,-242.72 238.4,-235.88"/>
</a>
</g>
</g>
<!-- Node4 -->
<g id="Node000004" class="node">
<title>Node4</title>
<g id="a_Node000004"><a xlink:href="linear__algebra_8h.html" target="_top" xlink:title=" ">
<polygon fill="white" stroke="#666666" points="903.5,-74 764.5,-74 764.5,-55 903.5,-55 903.5,-74"/>
<text text-anchor="middle" x="834" y="-62" font-family="Helvetica,sans-Serif" font-size="10.00">occ/core/linear_algebra.h</text>
</a>
</g>
</g>
<!-- Node1&#45;&gt;Node4 -->
<g id="edge3_Node000001_Node000004" class="edge">
<title>Node1&#45;&gt;Node4</title>
<g id="a_edge3_Node000001_Node000004"><a xlink:title=" ">
<path fill="none" stroke="#63b8ff" d="M584.28,-290.22C645.21,-284.35 738.27,-270.65 813,-239 852.06,-222.45 871.48,-221.66 891,-184 909.8,-147.74 874.48,-104.29 851.51,-81.4"/>
<polygon fill="#63b8ff" stroke="#63b8ff" points="853.65,-78.6 844.01,-74.21 848.8,-83.66 853.65,-78.6"/>
</a>
</g>
</g>
<!-- Node7 -->
<g id="Node000007" class="node">
<title>Node7</title>
<g id="a_Node000007"><a xlink:href="shell_8h.html" target="_top" xlink:title=" ">
<polygon fill="white" stroke="#666666" points="332.5,-239 245.5,-239 245.5,-220 332.5,-220 332.5,-239"/>
<text text-anchor="middle" x="289" y="-227" font-family="Helvetica,sans-Serif" font-size="10.00">occ/gto/shell.h</text>
</a>
</g>
</g>
<!-- Node1&#45;&gt;Node7 -->
<g id="edge6_Node000001_Node000007" class="edge">
<title>Node1&#45;&gt;Node7</title>
<g id="a_edge6_Node000001_Node000007"><a xlink:title=" ">
<path fill="none" stroke="#63b8ff" d="M455.96,-276.76C415.61,-265.58 364.74,-251.48 329.81,-241.81"/>
<polygon fill="#63b8ff" stroke="#63b8ff" points="330.53,-238.37 319.96,-239.08 328.66,-245.12 330.53,-238.37"/>
</a>
</g>
</g>
<!-- Node20 -->
<g id="Node000020" class="node">
<title>Node20</title>
<g id="a_Node000020"><a xlink:href="spinorbital_8h.html" target="_top" xlink:title=" ">
<polygon fill="white" stroke="#666666" points="804,-239 688,-239 688,-220 804,-220 804,-239"/>
<text text-anchor="middle" x="746" y="-227" font-family="Helvetica,sans-Serif" font-size="10.00">occ/qm/spinorbital.h</text>
</a>
</g>
</g>
<!-- Node1&#45;&gt;Node20 -->
<g id="edge26_Node000001_Node000020" class="edge">
<title>Node1&#45;&gt;Node20</title>
<g id="a_edge26_Node000001_Node000020"><a xlink:title=" ">
<path fill="none" stroke="#63b8ff" d="M584.16,-276.33C623.3,-265.25 672.13,-251.42 705.86,-241.87"/>
<polygon fill="#63b8ff" stroke="#63b8ff" points="707.15,-245.14 715.82,-239.05 705.24,-238.4 707.15,-245.14"/>
</a>
</g>
</g>
<!-- Node22 -->
<g id="Node000022" class="node">
<title>Node22</title>
<g id="a_Node000022"><a xlink:title=" ">
<polygon fill="#e0e0e0" stroke="#999999" points="989.5,-239 938.5,-239 938.5,-220 989.5,-220 989.5,-239"/>
<text text-anchor="middle" x="964" y="-227" font-family="Helvetica,sans-Serif" font-size="10.00">variant</text>
</a>
</g>
</g>
<!-- Node1&#45;&gt;Node22 -->
<g id="edge31_Node000001_Node000022" class="edge">
<title>Node1&#45;&gt;Node22</title>
<g id="a_edge31_Node000001_Node000022"><a xlink:title=" ">
<path fill="none" stroke="#63b8ff" d="M584.25,-287.14C664.14,-277.65 804.57,-259.86 924,-239 925.44,-238.75 926.91,-238.48 928.4,-238.2"/>
<polygon fill="#63b8ff" stroke="#63b8ff" points="929.1,-241.63 938.23,-236.26 927.74,-234.77 929.1,-241.63"/>
</a>
</g>
</g>
<!-- Node5 -->
<g id="Node000005" class="node">
<title>Node5</title>
<g id="a_Node000005"><a xlink:title=" ">
<polygon fill="#e0e0e0" stroke="#999999" points="819.5,-19 750.5,-19 750.5,0 819.5,0 819.5,-19"/>
<text text-anchor="middle" x="785" y="-7" font-family="Helvetica,sans-Serif" font-size="10.00">Eigen/Core</text>
</a>
</g>
</g>
<!-- Node4&#45;&gt;Node5 -->
<g id="edge4_Node000004_Node000005" class="edge">
<title>Node4&#45;&gt;Node5</title>
<g id="a_edge4_Node000004_Node000005"><a xlink:title=" ">
<path fill="none" stroke="#63b8ff" d="M825.91,-54.75C818.84,-47.11 808.41,-35.82 799.85,-26.56"/>
<polygon fill="#63b8ff" stroke="#63b8ff" points="802.3,-24.06 792.94,-19.09 797.16,-28.81 802.3,-24.06"/>
</a>
</g>
</g>
<!-- Node6 -->
<g id="Node000006" class="node">
<title>Node6</title>
<g id="a_Node000006"><a xlink:title=" ">
<polygon fill="#e0e0e0" stroke="#999999" points="930.5,-19 837.5,-19 837.5,0 930.5,0 930.5,-19"/>
<text text-anchor="middle" x="884" y="-7" font-family="Helvetica,sans-Serif" font-size="10.00">Eigen/StdVector</text>
</a>
</g>
</g>
<!-- Node4&#45;&gt;Node6 -->
<g id="edge5_Node000004_Node000006" class="edge">
<title>Node4&#45;&gt;Node6</title>
<g id="a_edge5_Node000004_Node000006"><a xlink:title=" ">
<path fill="none" stroke="#63b8ff" d="M842.26,-54.75C849.46,-47.11 860.11,-35.82 868.85,-26.56"/>
<polygon fill="#63b8ff" stroke="#63b8ff" points="871.58,-28.76 875.9,-19.09 866.49,-23.96 871.58,-28.76"/>
</a>
</g>
</g>
<!-- Node7&#45;&gt;Node4 -->
<g id="edge11_Node000007_Node000004" class="edge">
<title>Node7&#45;&gt;Node4</title>
<g id="a_edge11_Node000007_Node000004"><a xlink:title=" ">
<path fill="none" stroke="#63b8ff" d="M274.86,-219.86C243.09,-199.44 171.41,-147.12 206,-110 242.61,-70.7 593.23,-65.52 754.07,-65.23"/>
<polygon fill="#63b8ff" stroke="#63b8ff" points="754.39,-68.73 764.39,-65.21 754.38,-61.73 754.39,-68.73"/>
</a>
</g>
</g>
<!-- Node8 -->
<g id="Node000008" class="node">
<title>Node8</title>
<g id="a_Node000008"><a xlink:title=" ">
<polygon fill="#e0e0e0" stroke="#999999" points="42,-129 0,-129 0,-110 42,-110 42,-129"/>
<text text-anchor="middle" x="21" y="-117" font-family="Helvetica,sans-Serif" font-size="10.00">array</text>
</a>
</g>
</g>
<!-- Node7&#45;&gt;Node8 -->
<g id="edge7_Node000007_Node000008" class="edge">
<title>Node7&#45;&gt;Node8</title>
<g id="a_edge7_Node000007_Node000008"><a xlink:title=" ">
<path fill="none" stroke="#63b8ff" d="M245.33,-221.49C242.17,-220.98 239.04,-220.48 236,-220 185.34,-211.94 41.32,-223 8,-184 -2.82,-171.33 3.22,-152.08 10.24,-138.09"/>
<polygon fill="#63b8ff" stroke="#63b8ff" points="13.49,-139.45 15.3,-129.01 7.38,-136.04 13.49,-139.45"/>
</a>
</g>
</g>
<!-- Node9 -->
<g id="Node000009" class="node">
<title>Node9</title>
<g id="a_Node000009"><a xlink:title=" ">
<polygon fill="#e0e0e0" stroke="#999999" points="282.5,-129 215.5,-129 215.5,-110 282.5,-110 282.5,-129"/>
<text text-anchor="middle" x="249" y="-117" font-family="Helvetica,sans-Serif" font-size="10.00">fmt/core.h</text>
</a>
</g>
</g>
<!-- Node7&#45;&gt;Node9 -->
<g id="edge8_Node000007_Node000009" class="edge">
<title>Node7&#45;&gt;Node9</title>
<g id="a_edge8_Node000007_Node000009"><a xlink:title=" ">
<path fill="none" stroke="#63b8ff" d="M285.73,-219.66C279.19,-202.01 264.4,-162.09 255.72,-138.64"/>
<polygon fill="#63b8ff" stroke="#63b8ff" points="258.96,-137.32 252.21,-129.16 252.4,-139.75 258.96,-137.32"/>
</a>
</g>
</g>
<!-- Node10 -->
<g id="Node000010" class="node">
<title>Node10</title>
<g id="a_Node000010"><a xlink:href="atom_8h.html" target="_top" xlink:title=" ">
<polygon fill="white" stroke="#666666" points="158.5,-129 63.5,-129 63.5,-110 158.5,-110 158.5,-129"/>
<text text-anchor="middle" x="111" y="-117" font-family="Helvetica,sans-Serif" font-size="10.00">occ/core/atom.h</text>
</a>
</g>
</g>
<!-- Node7&#45;&gt;Node10 -->
<g id="edge9_Node000007_Node000010" class="edge">
<title>Node7&#45;&gt;Node10</title>
<g id="a_edge9_Node000007_Node000010"><a xlink:title=" ">
<path fill="none" stroke="#63b8ff" d="M270.03,-219.9C251.91,-211.45 224.04,-197.85 201,-184 175.74,-168.81 148.27,-148.89 130.41,-135.45"/>
<polygon fill="#63b8ff" stroke="#63b8ff" points="132.09,-132.33 122.01,-129.07 127.86,-137.9 132.09,-132.33"/>
</a>
</g>
</g>
<!-- Node11 -->
<g id="Node000011" class="node">
<title>Node11</title>
<g id="a_Node000011"><a xlink:href="point__charge_8h.html" target="_top" xlink:title=" ">
<polygon fill="white" stroke="#666666" points="149,-184 17,-184 17,-165 149,-165 149,-184"/>
<text text-anchor="middle" x="83" y="-172" font-family="Helvetica,sans-Serif" font-size="10.00">occ/core/point_charge.h</text>
</a>
</g>
</g>
<!-- Node7&#45;&gt;Node11 -->
<g id="edge12_Node000007_Node000011" class="edge">
<title>Node7&#45;&gt;Node11</title>
<g id="a_edge12_Node000007_Node000011"><a xlink:title=" ">
<path fill="none" stroke="#63b8ff" d="M255.9,-219.98C220.72,-210.93 164.93,-196.58 126.28,-186.64"/>
<polygon fill="#63b8ff" stroke="#63b8ff" points="126.91,-183.18 116.36,-184.08 125.17,-189.96 126.91,-183.18"/>
</a>
</g>
</g>
<!-- Node12 -->
<g id="Node000012" class="node">
<title>Node12</title>
<g id="a_Node000012"><a xlink:href="util_8h.html" target="_top" xlink:title=" ">
<polygon fill="white" stroke="#666666" points="577.5,-184 492.5,-184 492.5,-165 577.5,-165 577.5,-184"/>
<text text-anchor="middle" x="535" y="-172" font-family="Helvetica,sans-Serif" font-size="10.00">occ/core/util.h</text>
</a>
</g>
</g>
<!-- Node7&#45;&gt;Node12 -->
<g id="edge15_Node000007_Node000012" class="edge">
<title>Node7&#45;&gt;Node12</title>
<g id="a_edge15_Node000007_Node000012"><a xlink:title=" ">
<path fill="none" stroke="#63b8ff" d="M328.52,-219.98C371.17,-210.8 439.15,-196.15 485.36,-186.19"/>
<polygon fill="#63b8ff" stroke="#63b8ff" points="486.13,-189.61 495.17,-184.08 484.65,-182.77 486.13,-189.61"/>
</a>
</g>
</g>
<!-- Node19 -->
<g id="Node000019" class="node">
<title>Node19</title>
<g id="a_Node000019"><a xlink:title=" ">
<polygon fill="#e0e0e0" stroke="#999999" points="347.5,-129 300.5,-129 300.5,-110 347.5,-110 347.5,-129"/>
<text text-anchor="middle" x="324" y="-117" font-family="Helvetica,sans-Serif" font-size="10.00">vector</text>
</a>
</g>
</g>
<!-- Node7&#45;&gt;Node19 -->
<g id="edge25_Node000007_Node000019" class="edge">
<title>Node7&#45;&gt;Node19</title>
<g id="a_edge25_Node000007_Node000019"><a xlink:title=" ">
<path fill="none" stroke="#63b8ff" d="M291.86,-219.66C297.56,-202.09 310.41,-162.45 318.02,-138.95"/>
<polygon fill="#63b8ff" stroke="#63b8ff" points="321.44,-139.75 321.19,-129.16 314.78,-137.59 321.44,-139.75"/>
</a>
</g>
</g>
<!-- Node10&#45;&gt;Node4 -->
<g id="edge10_Node000010_Node000004" class="edge">
<title>Node10&#45;&gt;Node4</title>
<g id="a_edge10_Node000010_Node000004"><a xlink:title=" ">
<path fill="none" stroke="#63b8ff" d="M158.69,-111.62C163.52,-111.03 168.35,-110.47 173,-110 382.23,-88.64 629.81,-75.09 754.2,-69.09"/>
<polygon fill="#63b8ff" stroke="#63b8ff" points="754.57,-72.58 764.4,-68.6 754.24,-65.59 754.57,-72.58"/>
</a>
</g>
</g>
<!-- Node11&#45;&gt;Node8 -->
<g id="edge13_Node000011_Node000008" class="edge">
<title>Node11&#45;&gt;Node8</title>
<g id="a_edge13_Node000011_Node000008"><a xlink:title=" ">
<path fill="none" stroke="#63b8ff" d="M73.04,-164.98C63.87,-157.15 50.06,-145.34 38.97,-135.86"/>
<polygon fill="#63b8ff" stroke="#63b8ff" points="41.02,-133.01 31.14,-129.17 36.47,-138.33 41.02,-133.01"/>
</a>
</g>
</g>
<!-- Node11&#45;&gt;Node10 -->
<g id="edge14_Node000011_Node000010" class="edge">
<title>Node11&#45;&gt;Node10</title>
<g id="a_edge14_Node000011_Node000010"><a xlink:title=" ">
<path fill="none" stroke="#63b8ff" d="M87.62,-164.75C91.46,-157.49 97.02,-146.95 101.76,-137.98"/>
<polygon fill="#63b8ff" stroke="#63b8ff" points="104.89,-139.57 106.46,-129.09 98.7,-136.3 104.89,-139.57"/>
</a>
</g>
</g>
<!-- Node12&#45;&gt;Node4 -->
<g id="edge22_Node000012_Node000004" class="edge">
<title>Node12&#45;&gt;Node4</title>
<g id="a_edge22_Node000012_Node000004"><a xlink:title=" ">
<path fill="none" stroke="#63b8ff" d="M577.51,-172.15C646.93,-169.08 780.37,-159.31 815,-129 827.57,-118 832,-99.05 833.47,-84.71"/>
<polygon fill="#63b8ff" stroke="#63b8ff" points="836.98,-84.64 834.12,-74.43 829.99,-84.19 836.98,-84.64"/>
</a>
</g>
</g>
<!-- Node12&#45;&gt;Node9 -->
<g id="edge19_Node000012_Node000009" class="edge">
<title>Node12&#45;&gt;Node9</title>
<g id="a_edge19_Node000012_Node000009"><a xlink:title=" ">
<path fill="none" stroke="#63b8ff" d="M492.2,-165.95C445.54,-157.67 368.39,-143.8 293.05,-129.37"/>
<polygon fill="#63b8ff" stroke="#63b8ff" points="293.4,-125.87 282.91,-127.42 292.08,-132.75 293.4,-125.87"/>
</a>
</g>
</g>
<!-- Node13 -->
<g id="Node000013" class="node">
<title>Node13</title>
<g id="a_Node000013"><a xlink:title=" ">
<polygon fill="#e0e0e0" stroke="#999999" points="492,-129 428,-129 428,-110 492,-110 492,-129"/>
<text text-anchor="middle" x="460" y="-117" font-family="Helvetica,sans-Serif" font-size="10.00">algorithm</text>
</a>
</g>
</g>
<!-- Node12&#45;&gt;Node13 -->
<g id="edge16_Node000012_Node000013" class="edge">
<title>Node12&#45;&gt;Node13</title>
<g id="a_edge16_Node000012_Node000013"><a xlink:title=" ">
<path fill="none" stroke="#63b8ff" d="M522.95,-164.98C511.54,-156.92 494.17,-144.65 480.57,-135.03"/>
<polygon fill="#63b8ff" stroke="#63b8ff" points="482.46,-132.08 472.27,-129.17 478.42,-137.8 482.46,-132.08"/>
</a>
</g>
</g>
<!-- Node14 -->
<g id="Node000014" class="node">
<title>Node14</title>
<g id="a_Node000014"><a xlink:title=" ">
<polygon fill="#e0e0e0" stroke="#999999" points="559.5,-129 510.5,-129 510.5,-110 559.5,-110 559.5,-129"/>
<text text-anchor="middle" x="535" y="-117" font-family="Helvetica,sans-Serif" font-size="10.00">cctype</text>
</a>
</g>
</g>
<!-- Node12&#45;&gt;Node14 -->
<g id="edge17_Node000012_Node000014" class="edge">
<title>Node12&#45;&gt;Node14</title>
<g id="a_edge17_Node000012_Node000014"><a xlink:title=" ">
<path fill="none" stroke="#63b8ff" d="M535,-164.75C535,-157.8 535,-147.85 535,-139.13"/>
<polygon fill="#63b8ff" stroke="#63b8ff" points="538.5,-139.09 535,-129.09 531.5,-139.09 538.5,-139.09"/>
</a>
</g>
</g>
<!-- Node15 -->
<g id="Node000015" class="node">
<title>Node15</title>
<g id="a_Node000015"><a xlink:title=" ">
<polygon fill="#e0e0e0" stroke="#999999" points="628,-129 578,-129 578,-110 628,-110 628,-129"/>
<text text-anchor="middle" x="603" y="-117" font-family="Helvetica,sans-Serif" font-size="10.00">chrono</text>
</a>
</g>
</g>
<!-- Node12&#45;&gt;Node15 -->
<g id="edge18_Node000012_Node000015" class="edge">
<title>Node12&#45;&gt;Node15</title>
<g id="a_edge18_Node000012_Node000015"><a xlink:title=" ">
<path fill="none" stroke="#63b8ff" d="M545.93,-164.98C556.08,-157.07 571.42,-145.11 583.65,-135.58"/>
<polygon fill="#63b8ff" stroke="#63b8ff" points="586.14,-138.08 591.88,-129.17 581.84,-132.56 586.14,-138.08"/>
</a>
</g>
</g>
<!-- Node16 -->
<g id="Node000016" class="node">
<title>Node16</title>
<g id="a_Node000016"><a xlink:title=" ">
<polygon fill="#e0e0e0" stroke="#999999" points="732,-129 646,-129 646,-110 732,-110 732,-129"/>
<text text-anchor="middle" x="689" y="-117" font-family="Helvetica,sans-Serif" font-size="10.00">fmt/ostream.h</text>
</a>
</g>
</g>
<!-- Node12&#45;&gt;Node16 -->
<g id="edge20_Node000012_Node000016" class="edge">
<title>Node12&#45;&gt;Node16</title>
<g id="a_edge20_Node000012_Node000016"><a xlink:title=" ">
<path fill="none" stroke="#63b8ff" d="M559.74,-164.98C585.37,-156.16 625.63,-142.31 654.41,-132.41"/>
<polygon fill="#63b8ff" stroke="#63b8ff" points="655.75,-135.65 664.06,-129.08 653.47,-129.03 655.75,-135.65"/>
</a>
</g>
</g>
<!-- Node17 -->
<g id="Node000017" class="node">
<title>Node17</title>
<g id="a_Node000017"><a xlink:title=" ">
<polygon fill="#e0e0e0" stroke="#999999" points="806,-129 750,-129 750,-110 806,-110 806,-129"/>
<text text-anchor="middle" x="778" y="-117" font-family="Helvetica,sans-Serif" font-size="10.00">numeric</text>
</a>
</g>
</g>
<!-- Node12&#45;&gt;Node17 -->
<g id="edge21_Node000012_Node000017" class="edge">
<title>Node12&#45;&gt;Node17</title>
<g id="a_edge21_Node000012_Node000017"><a xlink:title=" ">
<path fill="none" stroke="#63b8ff" d="M575.3,-164.96C614.74,-156.56 676.8,-143.25 739.64,-129.28"/>
<polygon fill="#63b8ff" stroke="#63b8ff" points="740.73,-132.63 749.73,-127.04 739.21,-125.79 740.73,-132.63"/>
</a>
</g>
</g>
<!-- Node18 -->
<g id="Node000018" class="node">
<title>Node18</title>
<g id="a_Node000018"><a xlink:title=" ">
<polygon fill="#e0e0e0" stroke="#999999" points="410,-129 366,-129 366,-110 410,-110 410,-129"/>
<text text-anchor="middle" x="388" y="-117" font-family="Helvetica,sans-Serif" font-size="10.00">string</text>
</a>
</g>
</g>
<!-- Node12&#45;&gt;Node18 -->
<g id="edge23_Node000012_Node000018" class="edge">
<title>Node12&#45;&gt;Node18</title>
<g id="a_edge23_Node000012_Node000018"><a xlink:title=" ">
<path fill="none" stroke="#63b8ff" d="M511.38,-164.98C486.52,-156.02 447.23,-141.86 419.69,-131.92"/>
<polygon fill="#63b8ff" stroke="#63b8ff" points="420.71,-128.57 410.12,-128.47 418.34,-135.16 420.71,-128.57"/>
</a>
</g>
</g>
<!-- Node12&#45;&gt;Node19 -->
<g id="edge24_Node000012_Node000019" class="edge">
<title>Node12&#45;&gt;Node19</title>
<g id="a_edge24_Node000012_Node000019"><a xlink:title=" ">
<path fill="none" stroke="#63b8ff" d="M500.53,-164.96C466.69,-156.56 413.34,-143.27 357.81,-129.19"/>
<polygon fill="#63b8ff" stroke="#63b8ff" points="358.34,-125.72 347.79,-126.65 356.62,-132.5 358.34,-125.72"/>
</a>
</g>
</g>
<!-- Node20&#45;&gt;Node4 -->
<g id="edge27_Node000020_Node000004" class="edge">
<title>Node20&#45;&gt;Node4</title>
<g id="a_edge27_Node000020_Node000004"><a xlink:title=" ">
<path fill="none" stroke="#63b8ff" d="M746.48,-219.68C747.63,-206.39 751.57,-181.07 765,-165 787.69,-137.85 817.48,-159.15 836,-129 844.21,-115.64 842.68,-97.53 839.7,-84.07"/>
<polygon fill="#63b8ff" stroke="#63b8ff" points="842.99,-82.83 837.04,-74.06 836.23,-84.63 842.99,-82.83"/>
</a>
</g>
</g>
<!-- Node20&#45;&gt;Node12 -->
<g id="edge28_Node000020_Node000012" class="edge">
<title>Node20&#45;&gt;Node12</title>
<g id="a_edge28_Node000020_Node000012"><a xlink:title=" ">
<path fill="none" stroke="#63b8ff" d="M712.1,-219.98C675.98,-210.91 618.68,-196.52 579.08,-186.57"/>
<polygon fill="#63b8ff" stroke="#63b8ff" points="579.72,-183.12 569.17,-184.08 578.01,-189.91 579.72,-183.12"/>
</a>
</g>
</g>
<!-- Node21 -->
<g id="Node000021" class="node">
<title>Node21</title>
<g id="a_Node000021"><a xlink:href="qm_2opmatrix_8h.html" target="_top" xlink:title=" ">
<polygon fill="white" stroke="#666666" points="882,-184 774,-184 774,-165 882,-165 882,-184"/>
<text text-anchor="middle" x="828" y="-172" font-family="Helvetica,sans-Serif" font-size="10.00">occ/qm/opmatrix.h</text>
</a>
</g>
</g>
<!-- Node20&#45;&gt;Node21 -->
<g id="edge29_Node000020_Node000021" class="edge">
<title>Node20&#45;&gt;Node21</title>
<g id="a_edge29_Node000020_Node000021"><a xlink:title=" ">
<path fill="none" stroke="#63b8ff" d="M754.06,-219.98C765.06,-211.69 784.49,-198.94 800.78,-189.22"/>
<polygon fill="#63b8ff" stroke="#63b8ff" points="802.56,-192.23 809.44,-184.17 799.03,-186.18 802.56,-192.23"/>
</a>
</g>
</g>
<!-- Node21&#45;&gt;Node20 -->
<g id="edge30_Node000021_Node000020" class="edge">
<title>Node21&#45;&gt;Node20</title>
<g id="a_edge30_Node000021_Node000020"><a xlink:title=" ">
<path fill="none" stroke="#63b8ff" d="M819.73,-184.17C808.73,-192.44 789.52,-205.04 773.37,-214.7"/>
<polygon fill="#63b8ff" stroke="#63b8ff" points="771.17,-211.93 764.29,-219.98 774.69,-217.97 771.17,-211.93"/>
</a>
</g>
</g>
</g>
</svg>
