<?xml version="1.0" encoding="UTF-8" standalone="no"?>
<!DOCTYPE svg PUBLIC "-//W3C//DTD SVG 1.1//EN"
 "http://www.w3.org/Graphics/SVG/1.1/DTD/svg11.dtd">
<!-- Generated by graphviz version 2.43.0 (0)
 -->
<!-- Title: /home/runner/work/occ/occ/include/occ/io/fchkreader.h Pages: 1 -->
<svg width="1382pt" height="319pt"
 viewBox="0.00 0.00 1381.50 319.00" xmlns="http://www.w3.org/2000/svg" xmlns:xlink="http://www.w3.org/1999/xlink">
<g id="graph0" class="graph" transform="scale(1 1) rotate(0) translate(4 315)">
<title>/home/runner/work/occ/occ/include/occ/io/fchkreader.h</title>
<!-- Node1 -->
<g id="node1" class="node">
<title>Node1</title>
<g id="a_node1"><a xlink:title=" ">
<polygon fill="#bfbfbf" stroke="black" points="212.5,-280.5 212.5,-310.5 382.5,-310.5 382.5,-280.5 212.5,-280.5"/>
<text text-anchor="start" x="220.5" y="-298.5" font-family="Helvetica,sans-Serif" font-size="10.00">/home/runner/work/occ</text>
<text text-anchor="middle" x="297.5" y="-287.5" font-family="Helvetica,sans-Serif" font-size="10.00">/occ/include/occ/io/fchkreader.h</text>
</a>
</g>
</g>
<!-- Node2 -->
<g id="node2" class="node">
<title>Node2</title>
<g id="a_node2"><a xlink:title=" ">
<polygon fill="none" stroke="#bfbfbf" points="0,-224.5 0,-243.5 55,-243.5 55,-224.5 0,-224.5"/>
<text text-anchor="middle" x="27.5" y="-231.5" font-family="Helvetica,sans-Serif" font-size="10.00">fstream</text>
</a>
</g>
</g>
<!-- Node1&#45;&gt;Node2 -->
<g id="edge1" class="edge">
<title>Node1&#45;&gt;Node2</title>
<path fill="none" stroke="midnightblue" d="M230.61,-280.47C186.35,-271.08 126.79,-258.23 65.25,-244.13"/>
<polygon fill="midnightblue" stroke="midnightblue" points="65.89,-240.69 55.36,-241.86 64.32,-247.51 65.89,-240.69"/>
</g>
<!-- Node3 -->
<g id="node3" class="node">
<title>Node3</title>
<g id="a_node3"><a xlink:title=" ">
<polygon fill="none" stroke="#bfbfbf" points="73.5,-224.5 73.5,-243.5 127.5,-243.5 127.5,-224.5 73.5,-224.5"/>
<text text-anchor="middle" x="100.5" y="-231.5" font-family="Helvetica,sans-Serif" font-size="10.00">istream</text>
</a>
</g>
</g>
<!-- Node1&#45;&gt;Node3 -->
<g id="edge2" class="edge">
<title>Node1&#45;&gt;Node3</title>
<path fill="none" stroke="midnightblue" d="M250.81,-280.4C216.21,-269.95 169.69,-255.9 137.61,-246.21"/>
<polygon fill="midnightblue" stroke="midnightblue" points="138.32,-242.77 127.74,-243.23 136.3,-249.47 138.32,-242.77"/>
</g>
<!-- Node4 -->
<g id="node4" class="node">
<title>Node4</title>
<g id="a_node4"><a xlink:href="linear__algebra_8h.html" target="_top" xlink:title=" ">
<polygon fill="none" stroke="black" points="368,-56.5 368,-75.5 507,-75.5 507,-56.5 368,-56.5"/>
<text text-anchor="middle" x="437.5" y="-63.5" font-family="Helvetica,sans-Serif" font-size="10.00">occ/core/linear_algebra.h</text>
</a>
</g>
</g>
<!-- Node1&#45;&gt;Node4 -->
<g id="edge3" class="edge">
<title>Node1&#45;&gt;Node4</title>
<path fill="none" stroke="midnightblue" d="M279.33,-280.3C240.11,-247.97 154.62,-167.41 200.5,-112 220.36,-88.01 297.13,-76.71 357.99,-71.45"/>
<polygon fill="midnightblue" stroke="midnightblue" points="358.31,-74.93 367.99,-70.62 357.74,-67.96 358.31,-74.93"/>
</g>
<!-- Node8 -->
<g id="node8" class="node">
<title>Node8</title>
<g id="a_node8"><a xlink:href="shell_8h.html" target="_top" xlink:title=" ">
<polygon fill="none" stroke="black" points="396,-224.5 396,-243.5 483,-243.5 483,-224.5 396,-224.5"/>
<text text-anchor="middle" x="439.5" y="-231.5" font-family="Helvetica,sans-Serif" font-size="10.00">occ/qm/shell.h</text>
</a>
</g>
</g>
<!-- Node1&#45;&gt;Node8 -->
<g id="edge7" class="edge">
<title>Node1&#45;&gt;Node8</title>
<path fill="none" stroke="midnightblue" d="M331.15,-280.4C354.98,-270.42 386.65,-257.15 409.59,-247.53"/>
<polygon fill="midnightblue" stroke="midnightblue" points="410.97,-250.75 418.84,-243.66 408.26,-244.29 410.97,-250.75"/>
</g>
<!-- Node21 -->
<g id="node21" class="node">
<title>Node21</title>
<g id="a_node21"><a xlink:title=" ">
<polygon fill="none" stroke="#bfbfbf" points="564,-112.5 564,-131.5 611,-131.5 611,-112.5 564,-112.5"/>
<text text-anchor="middle" x="587.5" y="-119.5" font-family="Helvetica,sans-Serif" font-size="10.00">vector</text>
</a>
</g>
</g>
<!-- Node1&#45;&gt;Node21 -->
<g id="edge35" class="edge">
<title>Node1&#45;&gt;Node21</title>
<path fill="none" stroke="midnightblue" d="M376.59,-280.49C412.64,-272.46 455.27,-260.6 491.5,-244 531.29,-225.76 547.92,-224.21 572.5,-188 581.75,-174.38 585.35,-155.83 586.73,-142.04"/>
<polygon fill="midnightblue" stroke="midnightblue" points="590.24,-142 587.43,-131.78 583.25,-141.52 590.24,-142"/>
</g>
<!-- Node22 -->
<g id="node22" class="node">
<title>Node22</title>
<g id="a_node22"><a xlink:href="spinorbital_8h.html" target="_top" xlink:title=" ">
<polygon fill="none" stroke="black" points="1179.5,-224.5 1179.5,-243.5 1295.5,-243.5 1295.5,-224.5 1179.5,-224.5"/>
<text text-anchor="middle" x="1237.5" y="-231.5" font-family="Helvetica,sans-Serif" font-size="10.00">occ/qm/spinorbital.h</text>
</a>
</g>
</g>
<!-- Node1&#45;&gt;Node22 -->
<g id="edge30" class="edge">
<title>Node1&#45;&gt;Node22</title>
<path fill="none" stroke="midnightblue" d="M382.58,-289.11C567.06,-277.44 1000.8,-249.98 1169.08,-239.33"/>
<polygon fill="midnightblue" stroke="midnightblue" points="1169.54,-242.81 1179.3,-238.68 1169.1,-235.82 1169.54,-242.81"/>
</g>
<!-- Node5 -->
<g id="node5" class="node">
<title>Node5</title>
<g id="a_node5"><a xlink:title=" ">
<polygon fill="none" stroke="#bfbfbf" points="296,-0.5 296,-19.5 373,-19.5 373,-0.5 296,-0.5"/>
<text text-anchor="middle" x="334.5" y="-7.5" font-family="Helvetica,sans-Serif" font-size="10.00">Eigen/Dense</text>
</a>
</g>
</g>
<!-- Node4&#45;&gt;Node5 -->
<g id="edge4" class="edge">
<title>Node4&#45;&gt;Node5</title>
<path fill="none" stroke="midnightblue" d="M420.95,-56.32C404.51,-47.7 379.07,-34.36 360.03,-24.39"/>
<polygon fill="midnightblue" stroke="midnightblue" points="361.49,-21.2 351.01,-19.65 358.24,-27.4 361.49,-21.2"/>
</g>
<!-- Node6 -->
<g id="node6" class="node">
<title>Node6</title>
<g id="a_node6"><a xlink:title=" ">
<polygon fill="none" stroke="#bfbfbf" points="391,-0.5 391,-19.5 484,-19.5 484,-0.5 391,-0.5"/>
<text text-anchor="middle" x="437.5" y="-7.5" font-family="Helvetica,sans-Serif" font-size="10.00">Eigen/StdVector</text>
</a>
</g>
</g>
<!-- Node4&#45;&gt;Node6 -->
<g id="edge5" class="edge">
<title>Node4&#45;&gt;Node6</title>
<path fill="none" stroke="midnightblue" d="M437.5,-56.08C437.5,-49.01 437.5,-38.86 437.5,-29.99"/>
<polygon fill="midnightblue" stroke="midnightblue" points="441,-29.75 437.5,-19.75 434,-29.75 441,-29.75"/>
</g>
<!-- Node7 -->
<g id="node7" class="node">
<title>Node7</title>
<g id="a_node7"><a xlink:title=" ">
<polygon fill="none" stroke="#bfbfbf" points="502,-0.5 502,-19.5 569,-19.5 569,-0.5 502,-0.5"/>
<text text-anchor="middle" x="535.5" y="-7.5" font-family="Helvetica,sans-Serif" font-size="10.00">fmt/core.h</text>
</a>
</g>
</g>
<!-- Node4&#45;&gt;Node7 -->
<g id="edge6" class="edge">
<title>Node4&#45;&gt;Node7</title>
<path fill="none" stroke="midnightblue" d="M453.25,-56.32C468.82,-47.74 492.88,-34.49 510.96,-24.52"/>
<polygon fill="midnightblue" stroke="midnightblue" points="512.72,-27.55 519.79,-19.65 509.35,-21.42 512.72,-27.55"/>
</g>
<!-- Node8&#45;&gt;Node4 -->
<g id="edge13" class="edge">
<title>Node8&#45;&gt;Node4</title>
<path fill="none" stroke="midnightblue" d="M450.49,-224.37C459.95,-216.17 472.94,-202.92 478.5,-188 492.26,-151.12 467.24,-107.23 450.6,-83.77"/>
<polygon fill="midnightblue" stroke="midnightblue" points="453.29,-81.52 444.52,-75.57 447.66,-85.69 453.29,-81.52"/>
</g>
<!-- Node8&#45;&gt;Node7 -->
<g id="edge9" class="edge">
<title>Node8&#45;&gt;Node7</title>
<path fill="none" stroke="midnightblue" d="M454.7,-224.48C467.29,-216.63 484.66,-203.82 494.5,-188 526.09,-137.2 533.38,-64.53 535.03,-30.27"/>
<polygon fill="midnightblue" stroke="midnightblue" points="538.54,-29.98 535.41,-19.86 531.55,-29.72 538.54,-29.98"/>
</g>
<!-- Node9 -->
<g id="node9" class="node">
<title>Node9</title>
<g id="a_node9"><a xlink:title=" ">
<polygon fill="none" stroke="#bfbfbf" points="209.5,-112.5 209.5,-131.5 251.5,-131.5 251.5,-112.5 209.5,-112.5"/>
<text text-anchor="middle" x="230.5" y="-119.5" font-family="Helvetica,sans-Serif" font-size="10.00">array</text>
</a>
</g>
</g>
<!-- Node8&#45;&gt;Node9 -->
<g id="edge8" class="edge">
<title>Node8&#45;&gt;Node9</title>
<path fill="none" stroke="midnightblue" d="M395.94,-230.74C336.64,-226.66 235.26,-215.71 212.5,-188 201.28,-174.34 209.55,-154.19 218.23,-139.96"/>
<polygon fill="midnightblue" stroke="midnightblue" points="221.17,-141.85 223.78,-131.58 215.34,-137.98 221.17,-141.85"/>
</g>
<!-- Node10 -->
<g id="node10" class="node">
<title>Node10</title>
<g id="a_node10"><a xlink:title=" ">
<polygon fill="none" stroke="#bfbfbf" points="409.5,-168.5 409.5,-187.5 469.5,-187.5 469.5,-168.5 409.5,-168.5"/>
<text text-anchor="middle" x="439.5" y="-175.5" font-family="Helvetica,sans-Serif" font-size="10.00">iostream</text>
</a>
</g>
</g>
<!-- Node8&#45;&gt;Node10 -->
<g id="edge10" class="edge">
<title>Node8&#45;&gt;Node10</title>
<path fill="none" stroke="midnightblue" d="M439.5,-224.08C439.5,-217.01 439.5,-206.86 439.5,-197.99"/>
<polygon fill="midnightblue" stroke="midnightblue" points="443,-197.75 439.5,-187.75 436,-197.75 443,-197.75"/>
</g>
<!-- Node11 -->
<g id="node11" class="node">
<title>Node11</title>
<g id="a_node11"><a xlink:href="atom_8h.html" target="_top" xlink:title=" ">
<polygon fill="none" stroke="black" points="334,-112.5 334,-131.5 429,-131.5 429,-112.5 334,-112.5"/>
<text text-anchor="middle" x="381.5" y="-119.5" font-family="Helvetica,sans-Serif" font-size="10.00">occ/core/atom.h</text>
</a>
</g>
</g>
<!-- Node8&#45;&gt;Node11 -->
<g id="edge11" class="edge">
<title>Node8&#45;&gt;Node11</title>
<path fill="none" stroke="midnightblue" d="M429.83,-224.25C421.01,-215.77 408.22,-202.16 400.5,-188 392.58,-173.48 387.63,-155.3 384.78,-141.86"/>
<polygon fill="midnightblue" stroke="midnightblue" points="388.18,-141.03 382.85,-131.87 381.31,-142.35 388.18,-141.03"/>
</g>
<!-- Node12 -->
<g id="node12" class="node">
<title>Node12</title>
<g id="a_node12"><a xlink:href="point__charge_8h.html" target="_top" xlink:title=" ">
<polygon fill="none" stroke="black" points="221.5,-168.5 221.5,-187.5 353.5,-187.5 353.5,-168.5 221.5,-168.5"/>
<text text-anchor="middle" x="287.5" y="-175.5" font-family="Helvetica,sans-Serif" font-size="10.00">occ/core/point_charge.h</text>
</a>
</g>
</g>
<!-- Node8&#45;&gt;Node12 -->
<g id="edge14" class="edge">
<title>Node8&#45;&gt;Node12</title>
<path fill="none" stroke="midnightblue" d="M415.42,-224.44C389.96,-215.4 349.61,-201.06 321.04,-190.92"/>
<polygon fill="midnightblue" stroke="midnightblue" points="322.07,-187.57 311.47,-187.52 319.72,-194.16 322.07,-187.57"/>
</g>
<!-- Node13 -->
<g id="node13" class="node">
<title>Node13</title>
<g id="a_node13"><a xlink:href="util_8h.html" target="_top" xlink:title=" ">
<polygon fill="none" stroke="black" points="825,-168.5 825,-187.5 910,-187.5 910,-168.5 825,-168.5"/>
<text text-anchor="middle" x="867.5" y="-175.5" font-family="Helvetica,sans-Serif" font-size="10.00">occ/core/util.h</text>
</a>
</g>
</g>
<!-- Node8&#45;&gt;Node13 -->
<g id="edge18" class="edge">
<title>Node8&#45;&gt;Node13</title>
<path fill="none" stroke="midnightblue" d="M483.29,-227.47C562.52,-217.48 729.35,-196.43 814.73,-185.66"/>
<polygon fill="midnightblue" stroke="midnightblue" points="815.24,-189.12 824.72,-184.4 814.36,-182.18 815.24,-189.12"/>
</g>
<!-- Node8&#45;&gt;Node21 -->
<g id="edge29" class="edge">
<title>Node8&#45;&gt;Node21</title>
<path fill="none" stroke="midnightblue" d="M476.41,-224.43C499.46,-217.61 528.62,-206.13 549.5,-188 564.11,-175.31 574.53,-155.56 580.72,-141.15"/>
<polygon fill="midnightblue" stroke="midnightblue" points="584.01,-142.37 584.48,-131.79 577.51,-139.77 584.01,-142.37"/>
</g>
<!-- Node11&#45;&gt;Node4 -->
<g id="edge12" class="edge">
<title>Node11&#45;&gt;Node4</title>
<path fill="none" stroke="midnightblue" d="M390.5,-112.32C398.69,-104.42 411.01,-92.55 420.97,-82.94"/>
<polygon fill="midnightblue" stroke="midnightblue" points="423.57,-85.29 428.34,-75.83 418.71,-80.26 423.57,-85.29"/>
</g>
<!-- Node12&#45;&gt;Node4 -->
<g id="edge17" class="edge">
<title>Node12&#45;&gt;Node4</title>
<path fill="none" stroke="midnightblue" d="M290.36,-168.19C295.25,-154.4 306.48,-127.68 324.5,-112 342.73,-96.13 367.25,-85.46 388.79,-78.5"/>
<polygon fill="midnightblue" stroke="midnightblue" points="389.9,-81.83 398.45,-75.57 387.86,-75.13 389.9,-81.83"/>
</g>
<!-- Node12&#45;&gt;Node9 -->
<g id="edge15" class="edge">
<title>Node12&#45;&gt;Node9</title>
<path fill="none" stroke="midnightblue" d="M278.34,-168.32C270,-160.42 257.47,-148.55 247.32,-138.94"/>
<polygon fill="midnightblue" stroke="midnightblue" points="249.49,-136.17 239.82,-131.83 244.68,-141.25 249.49,-136.17"/>
</g>
<!-- Node12&#45;&gt;Node11 -->
<g id="edge16" class="edge">
<title>Node12&#45;&gt;Node11</title>
<path fill="none" stroke="midnightblue" d="M302.6,-168.32C317.4,-159.82 340.19,-146.73 357.48,-136.8"/>
<polygon fill="midnightblue" stroke="midnightblue" points="359.51,-139.67 366.43,-131.65 356.02,-133.6 359.51,-139.67"/>
</g>
<!-- Node13&#45;&gt;Node4 -->
<g id="edge26" class="edge">
<title>Node13&#45;&gt;Node4</title>
<path fill="none" stroke="midnightblue" d="M825,-170.3C783.24,-163.1 718.03,-150.18 663.5,-132 643.12,-125.2 639.79,-119.05 619.5,-112 577.35,-97.35 528.14,-85.48 491.53,-77.62"/>
<polygon fill="midnightblue" stroke="midnightblue" points="492.06,-74.16 481.55,-75.51 490.61,-81.01 492.06,-74.16"/>
</g>
<!-- Node13&#45;&gt;Node7 -->
<g id="edge22" class="edge">
<title>Node13&#45;&gt;Node7</title>
<path fill="none" stroke="midnightblue" d="M824.79,-170.5C789.19,-163.99 737.81,-152 696.5,-132 638.03,-103.69 579.64,-52.75 552,-26.93"/>
<polygon fill="midnightblue" stroke="midnightblue" points="554.11,-24.11 544.44,-19.77 549.3,-29.19 554.11,-24.11"/>
</g>
<!-- Node14 -->
<g id="node14" class="node">
<title>Node14</title>
<g id="a_node14"><a xlink:title=" ">
<polygon fill="none" stroke="#bfbfbf" points="1009.5,-112.5 1009.5,-131.5 1073.5,-131.5 1073.5,-112.5 1009.5,-112.5"/>
<text text-anchor="middle" x="1041.5" y="-119.5" font-family="Helvetica,sans-Serif" font-size="10.00">algorithm</text>
</a>
</g>
</g>
<!-- Node13&#45;&gt;Node14 -->
<g id="edge19" class="edge">
<title>Node13&#45;&gt;Node14</title>
<path fill="none" stroke="midnightblue" d="M895.07,-168.44C924.6,-159.28 971.62,-144.69 1004.38,-134.52"/>
<polygon fill="midnightblue" stroke="midnightblue" points="1005.54,-137.82 1014.06,-131.52 1003.47,-131.14 1005.54,-137.82"/>
</g>
<!-- Node15 -->
<g id="node15" class="node">
<title>Node15</title>
<g id="a_node15"><a xlink:title=" ">
<polygon fill="none" stroke="#bfbfbf" points="1092,-112.5 1092,-131.5 1141,-131.5 1141,-112.5 1092,-112.5"/>
<text text-anchor="middle" x="1116.5" y="-119.5" font-family="Helvetica,sans-Serif" font-size="10.00">cctype</text>
</a>
</g>
</g>
<!-- Node13&#45;&gt;Node15 -->
<g id="edge20" class="edge">
<title>Node13&#45;&gt;Node15</title>
<path fill="none" stroke="midnightblue" d="M910.07,-168.77C951.43,-160.63 1016.23,-147.47 1081.59,-132.12"/>
<polygon fill="midnightblue" stroke="midnightblue" points="1082.73,-135.45 1091.66,-129.74 1081.12,-128.63 1082.73,-135.45"/>
</g>
<!-- Node16 -->
<g id="node16" class="node">
<title>Node16</title>
<g id="a_node16"><a xlink:title=" ">
<polygon fill="none" stroke="#bfbfbf" points="1159.5,-112.5 1159.5,-131.5 1209.5,-131.5 1209.5,-112.5 1159.5,-112.5"/>
<text text-anchor="middle" x="1184.5" y="-119.5" font-family="Helvetica,sans-Serif" font-size="10.00">chrono</text>
</a>
</g>
</g>
<!-- Node13&#45;&gt;Node16 -->
<g id="edge21" class="edge">
<title>Node13&#45;&gt;Node16</title>
<path fill="none" stroke="midnightblue" d="M910.42,-171.55C964.12,-164.43 1059.08,-150.84 1149.46,-132.04"/>
<polygon fill="midnightblue" stroke="midnightblue" points="1150.25,-135.45 1159.32,-129.97 1148.81,-128.6 1150.25,-135.45"/>
</g>
<!-- Node17 -->
<g id="node17" class="node">
<title>Node17</title>
<g id="a_node17"><a xlink:title=" ">
<polygon fill="none" stroke="#bfbfbf" points="705.5,-112.5 705.5,-131.5 791.5,-131.5 791.5,-112.5 705.5,-112.5"/>
<text text-anchor="middle" x="748.5" y="-119.5" font-family="Helvetica,sans-Serif" font-size="10.00">fmt/ostream.h</text>
</a>
</g>
</g>
<!-- Node13&#45;&gt;Node17 -->
<g id="edge23" class="edge">
<title>Node13&#45;&gt;Node17</title>
<path fill="none" stroke="midnightblue" d="M848.64,-168.44C829.23,-159.64 798.77,-145.81 776.54,-135.72"/>
<polygon fill="midnightblue" stroke="midnightblue" points="777.82,-132.46 767.27,-131.52 774.93,-138.84 777.82,-132.46"/>
</g>
<!-- Node18 -->
<g id="node18" class="node">
<title>Node18</title>
<g id="a_node18"><a xlink:title=" ">
<polygon fill="none" stroke="#bfbfbf" points="809.5,-112.5 809.5,-131.5 855.5,-131.5 855.5,-112.5 809.5,-112.5"/>
<text text-anchor="middle" x="832.5" y="-119.5" font-family="Helvetica,sans-Serif" font-size="10.00">locale</text>
</a>
</g>
</g>
<!-- Node13&#45;&gt;Node18 -->
<g id="edge24" class="edge">
<title>Node13&#45;&gt;Node18</title>
<path fill="none" stroke="midnightblue" d="M861.72,-168.08C856.83,-160.53 849.67,-149.49 843.67,-140.23"/>
<polygon fill="midnightblue" stroke="midnightblue" points="846.55,-138.24 838.17,-131.75 840.67,-142.05 846.55,-138.24"/>
</g>
<!-- Node19 -->
<g id="node19" class="node">
<title>Node19</title>
<g id="a_node19"><a xlink:title=" ">
<polygon fill="none" stroke="#bfbfbf" points="873.5,-112.5 873.5,-131.5 929.5,-131.5 929.5,-112.5 873.5,-112.5"/>
<text text-anchor="middle" x="901.5" y="-119.5" font-family="Helvetica,sans-Serif" font-size="10.00">numeric</text>
</a>
</g>
</g>
<!-- Node13&#45;&gt;Node19 -->
<g id="edge25" class="edge">
<title>Node13&#45;&gt;Node19</title>
<path fill="none" stroke="midnightblue" d="M873.11,-168.08C877.87,-160.53 884.82,-149.49 890.65,-140.23"/>
<polygon fill="midnightblue" stroke="midnightblue" points="893.62,-142.08 895.99,-131.75 887.7,-138.35 893.62,-142.08"/>
</g>
<!-- Node20 -->
<g id="node20" class="node">
<title>Node20</title>
<g id="a_node20"><a xlink:title=" ">
<polygon fill="none" stroke="#bfbfbf" points="947.5,-112.5 947.5,-131.5 991.5,-131.5 991.5,-112.5 947.5,-112.5"/>
<text text-anchor="middle" x="969.5" y="-119.5" font-family="Helvetica,sans-Serif" font-size="10.00">string</text>
</a>
</g>
</g>
<!-- Node13&#45;&gt;Node20 -->
<g id="edge27" class="edge">
<title>Node13&#45;&gt;Node20</title>
<path fill="none" stroke="midnightblue" d="M883.89,-168.32C900.17,-159.7 925.37,-146.36 944.22,-136.39"/>
<polygon fill="midnightblue" stroke="midnightblue" points="945.95,-139.43 953.15,-131.65 942.68,-133.24 945.95,-139.43"/>
</g>
<!-- Node13&#45;&gt;Node21 -->
<g id="edge28" class="edge">
<title>Node13&#45;&gt;Node21</title>
<path fill="none" stroke="midnightblue" d="M824.97,-169.74C776.54,-161.32 695.12,-146.71 625.5,-132 624.05,-131.69 622.57,-131.37 621.07,-131.04"/>
<polygon fill="midnightblue" stroke="midnightblue" points="621.7,-127.6 611.18,-128.8 620.15,-134.42 621.7,-127.6"/>
</g>
<!-- Node22&#45;&gt;Node4 -->
<g id="edge31" class="edge">
<title>Node22&#45;&gt;Node4</title>
<path fill="none" stroke="midnightblue" d="M1239.32,-224.32C1243.48,-201.84 1250.96,-141.42 1218.5,-112 1192.81,-88.72 711.09,-73.94 517.27,-68.92"/>
<polygon fill="midnightblue" stroke="midnightblue" points="517.24,-65.42 507.15,-68.66 517.06,-72.42 517.24,-65.42"/>
</g>
<!-- Node22&#45;&gt;Node13 -->
<g id="edge32" class="edge">
<title>Node22&#45;&gt;Node13</title>
<path fill="none" stroke="midnightblue" d="M1179.28,-224.5C1108.14,-214.12 988.81,-196.71 920.26,-186.7"/>
<polygon fill="midnightblue" stroke="midnightblue" points="920.51,-183.2 910.11,-185.22 919.5,-190.13 920.51,-183.2"/>
</g>
<!-- Node23 -->
<g id="node23" class="node">
<title>Node23</title>
<g id="a_node23"><a xlink:href="qm_2opmatrix_8h.html" target="_top" xlink:title=" ">
<polygon fill="none" stroke="black" points="1265.5,-168.5 1265.5,-187.5 1373.5,-187.5 1373.5,-168.5 1265.5,-168.5"/>
<text text-anchor="middle" x="1319.5" y="-175.5" font-family="Helvetica,sans-Serif" font-size="10.00">occ/qm/opmatrix.h</text>
</a>
</g>
</g>
<!-- Node22&#45;&gt;Node23 -->
<g id="edge33" class="edge">
<title>Node22&#45;&gt;Node23</title>
<path fill="none" stroke="midnightblue" d="M1245.56,-224.32C1256.63,-215.82 1276.23,-202.73 1292.57,-192.8"/>
<polygon fill="midnightblue" stroke="midnightblue" points="1294.43,-195.77 1301.25,-187.65 1290.86,-189.74 1294.43,-195.77"/>
</g>
<!-- Node23&#45;&gt;Node22 -->
<g id="edge34" class="edge">
<title>Node23&#45;&gt;Node22</title>
<path fill="none" stroke="midnightblue" d="M1311.23,-187.83C1300.13,-196.34 1280.66,-209.34 1264.41,-219.21"/>
<polygon fill="midnightblue" stroke="midnightblue" points="1262.61,-216.21 1255.79,-224.32 1266.18,-222.23 1262.61,-216.21"/>
</g>
</g>
</svg>
