<?xml version="1.0" encoding="UTF-8" standalone="no"?>
<!DOCTYPE svg PUBLIC "-//W3C//DTD SVG 1.1//EN"
 "http://www.w3.org/Graphics/SVG/1.1/DTD/svg11.dtd">
<!-- Generated by graphviz version 2.43.0 (0)
 -->
<!-- Title: /home/runner/work/occ/occ/include/occ/io/fchkwriter.h Pages: 1 -->
<svg width="1102pt" height="341pt"
 viewBox="0.00 0.00 1101.76 341.00" xmlns="http://www.w3.org/2000/svg" xmlns:xlink="http://www.w3.org/1999/xlink">
<g id="graph0" class="graph" transform="scale(1 1) rotate(0) translate(4 337)">
<title>/home/runner/work/occ/occ/include/occ/io/fchkwriter.h</title>
<!-- Node1 -->
<g id="node1" class="node">
<title>Node1</title>
<g id="a_node1"><a xlink:title=" ">
<polygon fill="#bfbfbf" stroke="black" points="247.76,-302.5 247.76,-332.5 414.76,-332.5 414.76,-302.5 247.76,-302.5"/>
<text text-anchor="start" x="255.76" y="-320.5" font-family="Helvetica,sans-Serif" font-size="10.00">/home/runner/work/occ</text>
<text text-anchor="middle" x="331.26" y="-309.5" font-family="Helvetica,sans-Serif" font-size="10.00">/occ/include/occ/io/fchkwriter.h</text>
</a>
</g>
</g>
<!-- Node2 -->
<g id="node2" class="node">
<title>Node2</title>
<g id="a_node2"><a xlink:title=" ">
<polygon fill="none" stroke="#bfbfbf" points="39.26,-123.5 39.26,-142.5 81.26,-142.5 81.26,-123.5 39.26,-123.5"/>
<text text-anchor="middle" x="60.26" y="-130.5" font-family="Helvetica,sans-Serif" font-size="10.00">array</text>
</a>
</g>
</g>
<!-- Node1&#45;&gt;Node2 -->
<g id="edge1" class="edge">
<title>Node1&#45;&gt;Node2</title>
<path fill="none" stroke="midnightblue" d="M331.95,-302.28C332,-284.11 329.22,-252.89 311.26,-235 263,-186.91 224.95,-225.67 162.26,-199 131.26,-185.81 99.06,-163.63 79.33,-148.9"/>
<polygon fill="midnightblue" stroke="midnightblue" points="81.28,-145.98 71.2,-142.72 77.04,-151.55 81.28,-145.98"/>
</g>
<!-- Node3 -->
<g id="node3" class="node">
<title>Node3</title>
<g id="a_node3"><a xlink:title=" ">
<polygon fill="none" stroke="#bfbfbf" points="39.76,-241 39.76,-260 94.76,-260 94.76,-241 39.76,-241"/>
<text text-anchor="middle" x="67.26" y="-248" font-family="Helvetica,sans-Serif" font-size="10.00">fstream</text>
</a>
</g>
</g>
<!-- Node1&#45;&gt;Node3 -->
<g id="edge2" class="edge">
<title>Node1&#45;&gt;Node3</title>
<path fill="none" stroke="midnightblue" d="M254.31,-302.46C209.99,-293.61 153.49,-281.03 104.26,-266 101.83,-265.26 99.34,-264.43 96.86,-263.56"/>
<polygon fill="midnightblue" stroke="midnightblue" points="98.01,-260.26 87.42,-260.05 95.57,-266.82 98.01,-260.26"/>
</g>
<!-- Node4 -->
<g id="node4" class="node">
<title>Node4</title>
<g id="a_node4"><a xlink:title=" ">
<polygon fill="none" stroke="#bfbfbf" points="113.26,-241 113.26,-260 167.26,-260 167.26,-241 113.26,-241"/>
<text text-anchor="middle" x="140.26" y="-248" font-family="Helvetica,sans-Serif" font-size="10.00">istream</text>
</a>
</g>
</g>
<!-- Node1&#45;&gt;Node4 -->
<g id="edge3" class="edge">
<title>Node1&#45;&gt;Node4</title>
<path fill="none" stroke="midnightblue" d="M285.2,-302.4C254.22,-292.69 212.56,-279.21 176.26,-266 174.36,-265.31 172.41,-264.58 170.45,-263.83"/>
<polygon fill="midnightblue" stroke="midnightblue" points="171.32,-260.41 160.73,-260.02 168.76,-266.93 171.32,-260.41"/>
</g>
<!-- Node5 -->
<g id="node5" class="node">
<title>Node5</title>
<g id="a_node5"><a xlink:title=" ">
<polygon fill="none" stroke="#bfbfbf" points="185.76,-235.5 185.76,-265.5 302.76,-265.5 302.76,-235.5 185.76,-235.5"/>
<text text-anchor="start" x="193.76" y="-253.5" font-family="Helvetica,sans-Serif" font-size="10.00">occ/3rdparty/parallel</text>
<text text-anchor="middle" x="244.26" y="-242.5" font-family="Helvetica,sans-Serif" font-size="10.00">_hashmap/phmap.h</text>
</a>
</g>
</g>
<!-- Node1&#45;&gt;Node5 -->
<g id="edge4" class="edge">
<title>Node1&#45;&gt;Node5</title>
<path fill="none" stroke="midnightblue" d="M312.38,-302.4C300.41,-293.45 284.73,-281.74 271.43,-271.8"/>
<polygon fill="midnightblue" stroke="midnightblue" points="273.21,-268.76 263.1,-265.58 269.02,-274.37 273.21,-268.76"/>
</g>
<!-- Node6 -->
<g id="node6" class="node">
<title>Node6</title>
<g id="a_node6"><a xlink:href="linear__algebra_8h.html" target="_top" xlink:title=" ">
<polygon fill="none" stroke="black" points="153.76,-67.5 153.76,-86.5 292.76,-86.5 292.76,-67.5 153.76,-67.5"/>
<text text-anchor="middle" x="223.26" y="-74.5" font-family="Helvetica,sans-Serif" font-size="10.00">occ/core/linear_algebra.h</text>
</a>
</g>
</g>
<!-- Node1&#45;&gt;Node6 -->
<g id="edge5" class="edge">
<title>Node1&#45;&gt;Node6</title>
<path fill="none" stroke="midnightblue" d="M247.57,-314.17C168.37,-310 57.64,-298.36 30.26,-266 -10.79,-217.48 -9.25,-172.78 30.26,-123 44.61,-104.92 96.92,-93.43 143.47,-86.59"/>
<polygon fill="midnightblue" stroke="midnightblue" points="144.19,-90.03 153.6,-85.16 143.21,-83.09 144.19,-90.03"/>
</g>
<!-- Node10 -->
<g id="node10" class="node">
<title>Node10</title>
<g id="a_node10"><a xlink:href="shell_8h.html" target="_top" xlink:title=" ">
<polygon fill="none" stroke="black" points="369.76,-241 369.76,-260 456.76,-260 456.76,-241 369.76,-241"/>
<text text-anchor="middle" x="413.26" y="-248" font-family="Helvetica,sans-Serif" font-size="10.00">occ/qm/shell.h</text>
</a>
</g>
</g>
<!-- Node1&#45;&gt;Node10 -->
<g id="edge9" class="edge">
<title>Node1&#45;&gt;Node10</title>
<path fill="none" stroke="midnightblue" d="M349.05,-302.4C362.34,-291.86 380.49,-277.48 394.1,-266.69"/>
<polygon fill="midnightblue" stroke="midnightblue" points="396.63,-269.15 402.29,-260.19 392.28,-263.66 396.63,-269.15"/>
</g>
<!-- Node22 -->
<g id="node22" class="node">
<title>Node22</title>
<g id="a_node22"><a xlink:title=" ">
<polygon fill="none" stroke="#bfbfbf" points="828.76,-123.5 828.76,-142.5 875.76,-142.5 875.76,-123.5 828.76,-123.5"/>
<text text-anchor="middle" x="852.26" y="-130.5" font-family="Helvetica,sans-Serif" font-size="10.00">vector</text>
</a>
</g>
</g>
<!-- Node1&#45;&gt;Node22 -->
<g id="edge35" class="edge">
<title>Node1&#45;&gt;Node22</title>
<path fill="none" stroke="midnightblue" d="M371.28,-302.48C470.61,-267.69 727.05,-177.86 818.91,-145.68"/>
<polygon fill="midnightblue" stroke="midnightblue" points="820.25,-148.92 828.53,-142.31 817.93,-142.32 820.25,-148.92"/>
</g>
<!-- Node23 -->
<g id="node23" class="node">
<title>Node23</title>
<g id="a_node23"><a xlink:href="spinorbital_8h.html" target="_top" xlink:title=" ">
<polygon fill="none" stroke="black" points="908.26,-241 908.26,-260 1024.26,-260 1024.26,-241 908.26,-241"/>
<text text-anchor="middle" x="966.26" y="-248" font-family="Helvetica,sans-Serif" font-size="10.00">occ/qm/spinorbital.h</text>
</a>
</g>
</g>
<!-- Node1&#45;&gt;Node23 -->
<g id="edge30" class="edge">
<title>Node1&#45;&gt;Node23</title>
<path fill="none" stroke="midnightblue" d="M415.06,-311.85C525.34,-305.08 725.03,-290.56 894.26,-266 901.98,-264.88 910.12,-263.47 918.04,-261.97"/>
<polygon fill="midnightblue" stroke="midnightblue" points="918.77,-265.39 927.91,-260.03 917.42,-258.52 918.77,-265.39"/>
</g>
<!-- Node25 -->
<g id="node25" class="node">
<title>Node25</title>
<g id="a_node25"><a xlink:title=" ">
<polygon fill="none" stroke="#bfbfbf" points="1042.76,-241 1042.76,-260 1093.76,-260 1093.76,-241 1042.76,-241"/>
<text text-anchor="middle" x="1068.26" y="-248" font-family="Helvetica,sans-Serif" font-size="10.00">variant</text>
</a>
</g>
</g>
<!-- Node1&#45;&gt;Node25 -->
<g id="edge34" class="edge">
<title>Node1&#45;&gt;Node25</title>
<path fill="none" stroke="midnightblue" d="M414.86,-313.84C574.69,-308.2 917.99,-293.27 1033.26,-266 1035.93,-265.37 1038.66,-264.56 1041.35,-263.64"/>
<polygon fill="midnightblue" stroke="midnightblue" points="1042.74,-266.86 1050.82,-260.01 1040.23,-260.33 1042.74,-266.86"/>
</g>
<!-- Node7 -->
<g id="node7" class="node">
<title>Node7</title>
<g id="a_node7"><a xlink:title=" ">
<polygon fill="none" stroke="#bfbfbf" points="81.76,-6 81.76,-25 158.76,-25 158.76,-6 81.76,-6"/>
<text text-anchor="middle" x="120.26" y="-13" font-family="Helvetica,sans-Serif" font-size="10.00">Eigen/Dense</text>
</a>
</g>
</g>
<!-- Node6&#45;&gt;Node7 -->
<g id="edge6" class="edge">
<title>Node6&#45;&gt;Node7</title>
<path fill="none" stroke="midnightblue" d="M208.5,-67.48C191.6,-57.71 163.68,-41.58 143.77,-30.08"/>
<polygon fill="midnightblue" stroke="midnightblue" points="145.4,-26.98 134.99,-25.01 141.9,-33.04 145.4,-26.98"/>
</g>
<!-- Node8 -->
<g id="node8" class="node">
<title>Node8</title>
<g id="a_node8"><a xlink:title=" ">
<polygon fill="none" stroke="#bfbfbf" points="176.76,-6 176.76,-25 269.76,-25 269.76,-6 176.76,-6"/>
<text text-anchor="middle" x="223.26" y="-13" font-family="Helvetica,sans-Serif" font-size="10.00">Eigen/StdVector</text>
</a>
</g>
</g>
<!-- Node6&#45;&gt;Node8 -->
<g id="edge7" class="edge">
<title>Node6&#45;&gt;Node8</title>
<path fill="none" stroke="midnightblue" d="M223.26,-67.48C223.26,-59.08 223.26,-45.98 223.26,-35.16"/>
<polygon fill="midnightblue" stroke="midnightblue" points="226.76,-35.01 223.26,-25.01 219.76,-35.01 226.76,-35.01"/>
</g>
<!-- Node9 -->
<g id="node9" class="node">
<title>Node9</title>
<g id="a_node9"><a xlink:title=" ">
<polygon fill="none" stroke="#bfbfbf" points="287.76,-0.5 287.76,-30.5 394.76,-30.5 394.76,-0.5 287.76,-0.5"/>
<text text-anchor="start" x="295.76" y="-18.5" font-family="Helvetica,sans-Serif" font-size="10.00">occ/3rdparty/eigen</text>
<text text-anchor="middle" x="341.26" y="-7.5" font-family="Helvetica,sans-Serif" font-size="10.00">&#45;fmt/fmt.h</text>
</a>
</g>
</g>
<!-- Node6&#45;&gt;Node9 -->
<g id="edge8" class="edge">
<title>Node6&#45;&gt;Node9</title>
<path fill="none" stroke="midnightblue" d="M240.17,-67.48C256.82,-59.08 282.81,-45.97 304.27,-35.15"/>
<polygon fill="midnightblue" stroke="midnightblue" points="306.1,-38.15 313.45,-30.52 302.94,-31.9 306.1,-38.15"/>
</g>
<!-- Node10&#45;&gt;Node2 -->
<g id="edge10" class="edge">
<title>Node10&#45;&gt;Node2</title>
<path fill="none" stroke="midnightblue" d="M374.06,-240.95C322.86,-229.62 236.12,-209.81 205.26,-199 185.37,-192.04 181.46,-187.7 162.26,-179 137.72,-167.88 109.7,-155.55 89.25,-146.61"/>
<polygon fill="midnightblue" stroke="midnightblue" points="90.43,-143.3 79.87,-142.51 87.63,-149.72 90.43,-143.3"/>
</g>
<!-- Node10&#45;&gt;Node6 -->
<g id="edge14" class="edge">
<title>Node10&#45;&gt;Node6</title>
<path fill="none" stroke="midnightblue" d="M457,-245.25C584.88,-231.99 945.31,-188.35 884.26,-123 845.35,-81.35 470.38,-77.22 303.12,-77.48"/>
<polygon fill="midnightblue" stroke="midnightblue" points="302.88,-73.98 292.89,-77.5 302.9,-80.98 302.88,-73.98"/>
</g>
<!-- Node11 -->
<g id="node11" class="node">
<title>Node11</title>
<g id="a_node11"><a xlink:title=" ">
<polygon fill="none" stroke="#bfbfbf" points="402.26,-179.5 402.26,-198.5 462.26,-198.5 462.26,-179.5 402.26,-179.5"/>
<text text-anchor="middle" x="432.26" y="-186.5" font-family="Helvetica,sans-Serif" font-size="10.00">iostream</text>
</a>
</g>
</g>
<!-- Node10&#45;&gt;Node11 -->
<g id="edge11" class="edge">
<title>Node10&#45;&gt;Node11</title>
<path fill="none" stroke="midnightblue" d="M415.98,-240.98C418.69,-232.49 422.93,-219.2 426.41,-208.32"/>
<polygon fill="midnightblue" stroke="midnightblue" points="429.83,-209.1 429.54,-198.51 423.17,-206.97 429.83,-209.1"/>
</g>
<!-- Node12 -->
<g id="node12" class="node">
<title>Node12</title>
<g id="a_node12"><a xlink:href="atom_8h.html" target="_top" xlink:title=" ">
<polygon fill="none" stroke="black" points="137.76,-123.5 137.76,-142.5 232.76,-142.5 232.76,-123.5 137.76,-123.5"/>
<text text-anchor="middle" x="185.26" y="-130.5" font-family="Helvetica,sans-Serif" font-size="10.00">occ/core/atom.h</text>
</a>
</g>
</g>
<!-- Node10&#45;&gt;Node12 -->
<g id="edge12" class="edge">
<title>Node10&#45;&gt;Node12</title>
<path fill="none" stroke="midnightblue" d="M408.47,-240.63C399.86,-225.57 380.34,-195.09 355.26,-179 336.11,-166.71 281.63,-153.48 239.45,-144.57"/>
<polygon fill="midnightblue" stroke="midnightblue" points="240.08,-141.12 229.57,-142.51 238.65,-147.97 240.08,-141.12"/>
</g>
<!-- Node13 -->
<g id="node13" class="node">
<title>Node13</title>
<g id="a_node13"><a xlink:href="point__charge_8h.html" target="_top" xlink:title=" ">
<polygon fill="none" stroke="black" points="214.26,-179.5 214.26,-198.5 346.26,-198.5 346.26,-179.5 214.26,-179.5"/>
<text text-anchor="middle" x="280.26" y="-186.5" font-family="Helvetica,sans-Serif" font-size="10.00">occ/core/point_charge.h</text>
</a>
</g>
</g>
<!-- Node10&#45;&gt;Node13 -->
<g id="edge15" class="edge">
<title>Node10&#45;&gt;Node13</title>
<path fill="none" stroke="midnightblue" d="M394.2,-240.98C371.79,-230.95 334.35,-214.2 308.55,-202.65"/>
<polygon fill="midnightblue" stroke="midnightblue" points="309.84,-199.4 299.28,-198.51 306.98,-205.79 309.84,-199.4"/>
</g>
<!-- Node14 -->
<g id="node14" class="node">
<title>Node14</title>
<g id="a_node14"><a xlink:href="util_8h.html" target="_top" xlink:title=" ">
<polygon fill="none" stroke="black" points="518.76,-179.5 518.76,-198.5 603.76,-198.5 603.76,-179.5 518.76,-179.5"/>
<text text-anchor="middle" x="561.26" y="-186.5" font-family="Helvetica,sans-Serif" font-size="10.00">occ/core/util.h</text>
</a>
</g>
</g>
<!-- Node10&#45;&gt;Node14 -->
<g id="edge19" class="edge">
<title>Node10&#45;&gt;Node14</title>
<path fill="none" stroke="midnightblue" d="M434.46,-240.98C459.63,-230.86 501.8,-213.9 530.54,-202.35"/>
<polygon fill="midnightblue" stroke="midnightblue" points="532.12,-205.49 540.09,-198.51 529.51,-198.99 532.12,-205.49"/>
</g>
<!-- Node10&#45;&gt;Node22 -->
<g id="edge29" class="edge">
<title>Node10&#45;&gt;Node22</title>
<path fill="none" stroke="midnightblue" d="M447.46,-240.99C487.14,-231.09 554.51,-214.14 612.26,-199 701.39,-175.64 725.69,-168.46 818.64,-143.17"/>
<polygon fill="midnightblue" stroke="midnightblue" points="819.74,-146.5 828.47,-140.49 817.9,-139.74 819.74,-146.5"/>
</g>
<!-- Node12&#45;&gt;Node6 -->
<g id="edge13" class="edge">
<title>Node12&#45;&gt;Node6</title>
<path fill="none" stroke="midnightblue" d="M191.53,-123.08C196.9,-115.46 204.78,-104.26 211.34,-94.94"/>
<polygon fill="midnightblue" stroke="midnightblue" points="214.21,-96.94 217.1,-86.75 208.48,-92.91 214.21,-96.94"/>
</g>
<!-- Node13&#45;&gt;Node2 -->
<g id="edge16" class="edge">
<title>Node13&#45;&gt;Node2</title>
<path fill="none" stroke="midnightblue" d="M244.41,-179.43C207.12,-170.47 147.05,-155.96 95.26,-143 93.99,-142.68 92.7,-142.36 91.4,-142.03"/>
<polygon fill="midnightblue" stroke="midnightblue" points="91.9,-138.55 81.35,-139.47 90.17,-145.33 91.9,-138.55"/>
</g>
<!-- Node13&#45;&gt;Node6 -->
<g id="edge18" class="edge">
<title>Node13&#45;&gt;Node6</title>
<path fill="none" stroke="midnightblue" d="M228.43,-179.44C189.35,-171.81 140.45,-159.32 128.26,-143 110.14,-118.74 146.76,-100.42 179.66,-89.52"/>
<polygon fill="midnightblue" stroke="midnightblue" points="180.75,-92.84 189.24,-86.5 178.65,-86.16 180.75,-92.84"/>
</g>
<!-- Node13&#45;&gt;Node12 -->
<g id="edge17" class="edge">
<title>Node13&#45;&gt;Node12</title>
<path fill="none" stroke="midnightblue" d="M265,-179.32C250.04,-170.82 227.01,-157.73 209.53,-147.8"/>
<polygon fill="midnightblue" stroke="midnightblue" points="210.91,-144.55 200.49,-142.65 207.45,-150.64 210.91,-144.55"/>
</g>
<!-- Node14&#45;&gt;Node6 -->
<g id="edge26" class="edge">
<title>Node14&#45;&gt;Node6</title>
<path fill="none" stroke="midnightblue" d="M518.66,-182.8C445.26,-173.59 300.77,-154.34 280.26,-143 260.03,-131.82 243.51,-110.56 233.55,-95.4"/>
<polygon fill="midnightblue" stroke="midnightblue" points="236.5,-93.52 228.23,-86.89 230.57,-97.23 236.5,-93.52"/>
</g>
<!-- Node15 -->
<g id="node15" class="node">
<title>Node15</title>
<g id="a_node15"><a xlink:title=" ">
<polygon fill="none" stroke="#bfbfbf" points="679.26,-123.5 679.26,-142.5 743.26,-142.5 743.26,-123.5 679.26,-123.5"/>
<text text-anchor="middle" x="711.26" y="-130.5" font-family="Helvetica,sans-Serif" font-size="10.00">algorithm</text>
</a>
</g>
</g>
<!-- Node14&#45;&gt;Node15 -->
<g id="edge20" class="edge">
<title>Node14&#45;&gt;Node15</title>
<path fill="none" stroke="midnightblue" d="M585.03,-179.44C610.15,-170.4 649.97,-156.06 678.16,-145.92"/>
<polygon fill="midnightblue" stroke="midnightblue" points="679.38,-149.2 687.6,-142.52 677.01,-142.61 679.38,-149.2"/>
</g>
<!-- Node16 -->
<g id="node16" class="node">
<title>Node16</title>
<g id="a_node16"><a xlink:title=" ">
<polygon fill="none" stroke="#bfbfbf" points="761.76,-123.5 761.76,-142.5 810.76,-142.5 810.76,-123.5 761.76,-123.5"/>
<text text-anchor="middle" x="786.26" y="-130.5" font-family="Helvetica,sans-Serif" font-size="10.00">cctype</text>
</a>
</g>
</g>
<!-- Node14&#45;&gt;Node16 -->
<g id="edge21" class="edge">
<title>Node14&#45;&gt;Node16</title>
<path fill="none" stroke="midnightblue" d="M599.02,-179.42C635.57,-171.05 692.78,-157.76 751.57,-143.12"/>
<polygon fill="midnightblue" stroke="midnightblue" points="752.55,-146.49 761.4,-140.67 750.85,-139.69 752.55,-146.49"/>
</g>
<!-- Node17 -->
<g id="node17" class="node">
<title>Node17</title>
<g id="a_node17"><a xlink:title=" ">
<polygon fill="none" stroke="#bfbfbf" points="289.76,-123.5 289.76,-142.5 356.76,-142.5 356.76,-123.5 289.76,-123.5"/>
<text text-anchor="middle" x="323.26" y="-130.5" font-family="Helvetica,sans-Serif" font-size="10.00">fmt/core.h</text>
</a>
</g>
</g>
<!-- Node14&#45;&gt;Node17 -->
<g id="edge22" class="edge">
<title>Node14&#45;&gt;Node17</title>
<path fill="none" stroke="midnightblue" d="M523.55,-179.44C480.99,-169.79 411.85,-154.1 366.97,-143.92"/>
<polygon fill="midnightblue" stroke="midnightblue" points="367.47,-140.44 356.95,-141.64 365.92,-147.27 367.47,-140.44"/>
</g>
<!-- Node18 -->
<g id="node18" class="node">
<title>Node18</title>
<g id="a_node18"><a xlink:title=" ">
<polygon fill="none" stroke="#bfbfbf" points="375.26,-123.5 375.26,-142.5 461.26,-142.5 461.26,-123.5 375.26,-123.5"/>
<text text-anchor="middle" x="418.26" y="-130.5" font-family="Helvetica,sans-Serif" font-size="10.00">fmt/ostream.h</text>
</a>
</g>
</g>
<!-- Node14&#45;&gt;Node18 -->
<g id="edge23" class="edge">
<title>Node14&#45;&gt;Node18</title>
<path fill="none" stroke="midnightblue" d="M538.6,-179.44C514.86,-170.48 477.35,-156.31 450.52,-146.18"/>
<polygon fill="midnightblue" stroke="midnightblue" points="451.4,-142.77 440.81,-142.52 448.93,-149.32 451.4,-142.77"/>
</g>
<!-- Node19 -->
<g id="node19" class="node">
<title>Node19</title>
<g id="a_node19"><a xlink:title=" ">
<polygon fill="none" stroke="#bfbfbf" points="479.26,-123.5 479.26,-142.5 525.26,-142.5 525.26,-123.5 479.26,-123.5"/>
<text text-anchor="middle" x="502.26" y="-130.5" font-family="Helvetica,sans-Serif" font-size="10.00">locale</text>
</a>
</g>
</g>
<!-- Node14&#45;&gt;Node19 -->
<g id="edge24" class="edge">
<title>Node14&#45;&gt;Node19</title>
<path fill="none" stroke="midnightblue" d="M551.78,-179.32C543.06,-171.34 529.92,-159.31 519.36,-149.65"/>
<polygon fill="midnightblue" stroke="midnightblue" points="521.65,-147 511.91,-142.83 516.93,-152.17 521.65,-147"/>
</g>
<!-- Node20 -->
<g id="node20" class="node">
<title>Node20</title>
<g id="a_node20"><a xlink:title=" ">
<polygon fill="none" stroke="#bfbfbf" points="543.26,-123.5 543.26,-142.5 599.26,-142.5 599.26,-123.5 543.26,-123.5"/>
<text text-anchor="middle" x="571.26" y="-130.5" font-family="Helvetica,sans-Serif" font-size="10.00">numeric</text>
</a>
</g>
</g>
<!-- Node14&#45;&gt;Node20 -->
<g id="edge25" class="edge">
<title>Node14&#45;&gt;Node20</title>
<path fill="none" stroke="midnightblue" d="M562.91,-179.08C564.24,-171.93 566.14,-161.64 567.8,-152.69"/>
<polygon fill="midnightblue" stroke="midnightblue" points="571.26,-153.22 569.64,-142.75 564.38,-151.95 571.26,-153.22"/>
</g>
<!-- Node21 -->
<g id="node21" class="node">
<title>Node21</title>
<g id="a_node21"><a xlink:title=" ">
<polygon fill="none" stroke="#bfbfbf" points="617.26,-123.5 617.26,-142.5 661.26,-142.5 661.26,-123.5 617.26,-123.5"/>
<text text-anchor="middle" x="639.26" y="-130.5" font-family="Helvetica,sans-Serif" font-size="10.00">string</text>
</a>
</g>
</g>
<!-- Node14&#45;&gt;Node21 -->
<g id="edge27" class="edge">
<title>Node14&#45;&gt;Node21</title>
<path fill="none" stroke="midnightblue" d="M573.79,-179.32C585.85,-170.98 604.29,-158.21 618.53,-148.35"/>
<polygon fill="midnightblue" stroke="midnightblue" points="620.53,-151.22 626.76,-142.65 616.54,-145.47 620.53,-151.22"/>
</g>
<!-- Node14&#45;&gt;Node22 -->
<g id="edge28" class="edge">
<title>Node14&#45;&gt;Node22</title>
<path fill="none" stroke="midnightblue" d="M603.96,-181.81C653.32,-174.37 737.17,-160.88 818.61,-142.96"/>
<polygon fill="midnightblue" stroke="midnightblue" points="819.53,-146.35 828.53,-140.76 818.01,-139.51 819.53,-146.35"/>
</g>
<!-- Node23&#45;&gt;Node6 -->
<g id="edge31" class="edge">
<title>Node23&#45;&gt;Node6</title>
<path fill="none" stroke="midnightblue" d="M964.86,-240.8C960.52,-217.1 944.96,-151.24 902.26,-123 853.34,-90.65 471.79,-81.41 303.06,-78.89"/>
<polygon fill="midnightblue" stroke="midnightblue" points="303.04,-75.39 292.99,-78.75 302.94,-82.39 303.04,-75.39"/>
</g>
<!-- Node24 -->
<g id="node24" class="node">
<title>Node24</title>
<g id="a_node24"><a xlink:href="qm_2opmatrix_8h.html" target="_top" xlink:title=" ">
<polygon fill="none" stroke="black" points="970.26,-179.5 970.26,-198.5 1078.26,-198.5 1078.26,-179.5 970.26,-179.5"/>
<text text-anchor="middle" x="1024.26" y="-186.5" font-family="Helvetica,sans-Serif" font-size="10.00">occ/qm/opmatrix.h</text>
</a>
</g>
</g>
<!-- Node23&#45;&gt;Node24 -->
<g id="edge32" class="edge">
<title>Node23&#45;&gt;Node24</title>
<path fill="none" stroke="midnightblue" d="M969.67,-240.98C976.69,-231.7 990.97,-216.67 1003.33,-205.33"/>
<polygon fill="midnightblue" stroke="midnightblue" points="1005.88,-207.75 1011.07,-198.51 1001.25,-202.49 1005.88,-207.75"/>
</g>
<!-- Node24&#45;&gt;Node23 -->
<g id="edge33" class="edge">
<title>Node24&#45;&gt;Node23</title>
<path fill="none" stroke="midnightblue" d="M1020.86,-198.51C1013.85,-207.78 999.57,-222.81 987.21,-234.15"/>
<polygon fill="midnightblue" stroke="midnightblue" points="984.66,-231.74 979.47,-240.98 989.29,-236.99 984.66,-231.74"/>
</g>
</g>
</svg>
