<?xml version="1.0" encoding="UTF-8" standalone="no"?>
<!DOCTYPE svg PUBLIC "-//W3C//DTD SVG 1.1//EN"
 "http://www.w3.org/Graphics/SVG/1.1/DTD/svg11.dtd">
<!-- Generated by graphviz version 2.43.0 (0)
 -->
<!-- Title: /home/runner/work/occ/occ/include/occ/dft/functional.h Pages: 1 -->
<svg width="480pt" height="500pt"
 viewBox="0.00 0.00 480.00 500.00" xmlns="http://www.w3.org/2000/svg" xmlns:xlink="http://www.w3.org/1999/xlink">
<g id="graph0" class="graph" transform="scale(1 1) rotate(0) translate(4 496)">
<title>/home/runner/work/occ/occ/include/occ/dft/functional.h</title>
<!-- Node1 -->
<g id="Node000001" class="node">
<title>Node1</title>
<g id="a_Node000001"><a xlink:title=" ">
<polygon fill="#999999" stroke="#666666" points="334,-492 206,-492 206,-451 334,-451 334,-492"/>
<text text-anchor="start" x="214" y="-480" font-family="Helvetica,sans-Serif" font-size="10.00">/home/runner/work/occ</text>
<text text-anchor="start" x="214" y="-469" font-family="Helvetica,sans-Serif" font-size="10.00">/occ/include/occ/dft</text>
<text text-anchor="middle" x="270" y="-458" font-family="Helvetica,sans-Serif" font-size="10.00">/functional.h</text>
</a>
</g>
</g>
<!-- Node2 -->
<g id="Node000002" class="node">
<title>Node2</title>
<g id="a_Node000002"><a xlink:href="dft_8h.html" target="_top" xlink:title=" ">
<polygon fill="white" stroke="#666666" points="291,-184 157,-184 157,-154 291,-154 291,-184"/>
<text text-anchor="start" x="165" y="-172" font-family="Helvetica,sans-Serif" font-size="10.00">/home/runner/work/occ</text>
<text text-anchor="middle" x="224" y="-161" font-family="Helvetica,sans-Serif" font-size="10.00">/occ/include/occ/dft/dft.h</text>
</a>
</g>
</g>
<!-- Node1&#45;&gt;Node2 -->
<g id="edge1_Node000001_Node000002" class="edge">
<title>Node1&#45;&gt;Node2</title>
<g id="a_edge1_Node000001_Node000002"><a xlink:title=" ">
<path fill="none" stroke="#63b8ff" d="M237,-444.03C209.11,-419.64 170.67,-380.84 151,-338 129.04,-290.17 115.11,-265.82 141,-220 150.27,-203.6 167.31,-191.98 183.56,-184.09"/>
<polygon fill="#63b8ff" stroke="#63b8ff" points="235.05,-446.97 244.92,-450.82 239.6,-441.65 235.05,-446.97"/>
</a>
</g>
</g>
<!-- Node7 -->
<g id="Node000007" class="node">
<title>Node7</title>
<g id="a_Node000007"><a xlink:href="dft__kernels_8h.html" target="_top" xlink:title=" ">
<polygon fill="white" stroke="#666666" points="288,-338 160,-338 160,-297 288,-297 288,-338"/>
<text text-anchor="start" x="168" y="-326" font-family="Helvetica,sans-Serif" font-size="10.00">/home/runner/work/occ</text>
<text text-anchor="start" x="168" y="-315" font-family="Helvetica,sans-Serif" font-size="10.00">/occ/include/occ/dft</text>
<text text-anchor="middle" x="224" y="-304" font-family="Helvetica,sans-Serif" font-size="10.00">/dft_kernels.h</text>
</a>
</g>
</g>
<!-- Node1&#45;&gt;Node7 -->
<g id="edge6_Node000001_Node000007" class="edge">
<title>Node1&#45;&gt;Node7</title>
<g id="a_edge6_Node000001_Node000007"><a xlink:title=" ">
<path fill="none" stroke="#63b8ff" d="M254.34,-441.9C250.19,-433.43 246.02,-424.01 243,-415 234.31,-389.1 229.06,-357.88 226.35,-338.11"/>
<polygon fill="#63b8ff" stroke="#63b8ff" points="251.31,-443.66 258.97,-450.99 257.55,-440.49 251.31,-443.66"/>
</a>
</g>
</g>
<!-- Node9 -->
<g id="Node000009" class="node">
<title>Node9</title>
<g id="a_Node000009"><a xlink:href="dft__method_8h.html" target="_top" xlink:title=" ">
<polygon fill="white" stroke="#666666" points="380,-415 252,-415 252,-374 380,-374 380,-415"/>
<text text-anchor="start" x="260" y="-403" font-family="Helvetica,sans-Serif" font-size="10.00">/home/runner/work/occ</text>
<text text-anchor="start" x="260" y="-392" font-family="Helvetica,sans-Serif" font-size="10.00">/occ/include/occ/dft</text>
<text text-anchor="middle" x="316" y="-381" font-family="Helvetica,sans-Serif" font-size="10.00">/dft_method.h</text>
</a>
</g>
</g>
<!-- Node1&#45;&gt;Node9 -->
<g id="edge10_Node000001_Node000009" class="edge">
<title>Node1&#45;&gt;Node9</title>
<g id="a_edge10_Node000001_Node000009"><a xlink:title=" ">
<path fill="none" stroke="#63b8ff" d="M287.41,-442.11C292.94,-433.09 298.93,-423.33 303.99,-415.07"/>
<polygon fill="#63b8ff" stroke="#63b8ff" points="284.33,-440.44 282.09,-450.79 290.3,-444.1 284.33,-440.44"/>
</a>
</g>
</g>
<!-- Node10 -->
<g id="Node000010" class="node">
<title>Node10</title>
<g id="a_Node000010"><a xlink:href="xc__potential__matrix_8h.html" target="_top" xlink:title=" ">
<polygon fill="white" stroke="#666666" points="472,-338 344,-338 344,-297 472,-297 472,-338"/>
<text text-anchor="start" x="352" y="-326" font-family="Helvetica,sans-Serif" font-size="10.00">/home/runner/work/occ</text>
<text text-anchor="start" x="352" y="-315" font-family="Helvetica,sans-Serif" font-size="10.00">/occ/include/occ/dft</text>
<text text-anchor="middle" x="408" y="-304" font-family="Helvetica,sans-Serif" font-size="10.00">/xc_potential_matrix.h</text>
</a>
</g>
</g>
<!-- Node1&#45;&gt;Node10 -->
<g id="edge13_Node000001_Node000010" class="edge">
<title>Node1&#45;&gt;Node10</title>
<g id="a_edge13_Node000001_Node000010"><a xlink:title=" ">
<path fill="none" stroke="#63b8ff" d="M343.79,-449.04C360.85,-440.88 377.38,-429.84 389,-415 406.37,-392.82 409.24,-359.14 409.09,-338"/>
<polygon fill="#63b8ff" stroke="#63b8ff" points="342,-446 334.29,-453.27 344.85,-452.4 342,-446"/>
</a>
</g>
</g>
<!-- Node3 -->
<g id="Node000003" class="node">
<title>Node3</title>
<g id="a_Node000003"><a xlink:href="smd__solvation_8h.html" target="_top" xlink:title=" ">
<polygon fill="white" stroke="#666666" points="132,-118 0,-118 0,-77 132,-77 132,-118"/>
<text text-anchor="start" x="8" y="-106" font-family="Helvetica,sans-Serif" font-size="10.00">/home/runner/work/occ</text>
<text text-anchor="start" x="8" y="-95" font-family="Helvetica,sans-Serif" font-size="10.00">/occ/include/occ/cg/smd</text>
<text text-anchor="middle" x="66" y="-84" font-family="Helvetica,sans-Serif" font-size="10.00">_solvation.h</text>
</a>
</g>
</g>
<!-- Node2&#45;&gt;Node3 -->
<g id="edge2_Node000002_Node000003" class="edge">
<title>Node2&#45;&gt;Node3</title>
<g id="a_edge2_Node000002_Node000003"><a xlink:title=" ">
<path fill="none" stroke="#63b8ff" d="M182.86,-149.9C160.65,-140.13 133.21,-128.06 110.5,-118.07"/>
<polygon fill="#63b8ff" stroke="#63b8ff" points="181.46,-153.11 192.03,-153.94 184.28,-146.71 181.46,-153.11"/>
</a>
</g>
</g>
<!-- Node5 -->
<g id="Node000005" class="node">
<title>Node5</title>
<g id="a_Node000005"><a xlink:href="isosurface_2point__functors_8h.html" target="_top" xlink:title=" ">
<polygon fill="white" stroke="#666666" points="297.5,-118 150.5,-118 150.5,-77 297.5,-77 297.5,-118"/>
<text text-anchor="start" x="158.5" y="-106" font-family="Helvetica,sans-Serif" font-size="10.00">/home/runner/work/occ</text>
<text text-anchor="start" x="158.5" y="-95" font-family="Helvetica,sans-Serif" font-size="10.00">/occ/include/occ/isosurface</text>
<text text-anchor="middle" x="224" y="-84" font-family="Helvetica,sans-Serif" font-size="10.00">/point_functors.h</text>
</a>
</g>
</g>
<!-- Node2&#45;&gt;Node5 -->
<g id="edge4_Node000002_Node000005" class="edge">
<title>Node2&#45;&gt;Node5</title>
<g id="a_edge4_Node000002_Node000005"><a xlink:title=" ">
<path fill="none" stroke="#63b8ff" d="M224,-143.91C224,-135.47 224,-126.1 224,-118.07"/>
<polygon fill="#63b8ff" stroke="#63b8ff" points="220.5,-143.94 224,-153.94 227.5,-143.94 220.5,-143.94"/>
</a>
</g>
</g>
<!-- Node6 -->
<g id="Node000006" class="node">
<title>Node6</title>
<g id="a_Node000006"><a xlink:href="main_2point__functors_8h.html" target="_top" xlink:title=" ">
<polygon fill="white" stroke="#666666" points="444,-118 316,-118 316,-77 444,-77 444,-118"/>
<text text-anchor="start" x="324" y="-106" font-family="Helvetica,sans-Serif" font-size="10.00">/home/runner/work/occ</text>
<text text-anchor="start" x="324" y="-95" font-family="Helvetica,sans-Serif" font-size="10.00">/occ/include/occ/main</text>
<text text-anchor="middle" x="380" y="-84" font-family="Helvetica,sans-Serif" font-size="10.00">/point_functors.h</text>
</a>
</g>
</g>
<!-- Node2&#45;&gt;Node6 -->
<g id="edge5_Node000002_Node000006" class="edge">
<title>Node2&#45;&gt;Node6</title>
<g id="a_edge5_Node000002_Node000006"><a xlink:title=" ">
<path fill="none" stroke="#63b8ff" d="M264.92,-149.77C286.79,-140.02 313.75,-128.02 336.07,-118.07"/>
<polygon fill="#63b8ff" stroke="#63b8ff" points="263.28,-146.67 255.57,-153.94 266.13,-153.06 263.28,-146.67"/>
</a>
</g>
</g>
<!-- Node4 -->
<g id="Node000004" class="node">
<title>Node4</title>
<g id="a_Node000004"><a xlink:href="crystal__growth_8h.html" target="_top" xlink:title=" ">
<polygon fill="white" stroke="#666666" points="130,-41 2,-41 2,0 130,0 130,-41"/>
<text text-anchor="start" x="10" y="-29" font-family="Helvetica,sans-Serif" font-size="10.00">/home/runner/work/occ</text>
<text text-anchor="start" x="10" y="-18" font-family="Helvetica,sans-Serif" font-size="10.00">/occ/include/occ/driver</text>
<text text-anchor="middle" x="66" y="-7" font-family="Helvetica,sans-Serif" font-size="10.00">/crystal_growth.h</text>
</a>
</g>
</g>
<!-- Node3&#45;&gt;Node4 -->
<g id="edge3_Node000003_Node000004" class="edge">
<title>Node3&#45;&gt;Node4</title>
<g id="a_edge3_Node000003_Node000004"><a xlink:title=" ">
<path fill="none" stroke="#63b8ff" d="M66,-66.69C66,-58.08 66,-48.9 66,-41.07"/>
<polygon fill="#63b8ff" stroke="#63b8ff" points="62.5,-66.79 66,-76.79 69.5,-66.79 62.5,-66.79"/>
</a>
</g>
</g>
<!-- Node7&#45;&gt;Node2 -->
<g id="edge7_Node000007_Node000002" class="edge">
<title>Node7&#45;&gt;Node2</title>
<g id="a_edge7_Node000007_Node000002"><a xlink:title=" ">
<path fill="none" stroke="#63b8ff" d="M177.34,-291.13C166.77,-283 156.92,-272.93 151,-261 142.9,-244.67 142.5,-236.12 151,-220 159.38,-204.1 175.35,-192.29 190.22,-184.15"/>
<polygon fill="#63b8ff" stroke="#63b8ff" points="175.35,-294.01 185.52,-296.98 179.42,-288.32 175.35,-294.01"/>
</a>
</g>
</g>
<!-- Node8 -->
<g id="Node000008" class="node">
<title>Node8</title>
<g id="a_Node000008"><a xlink:href="dft__gradient__kernels_8h.html" target="_top" xlink:title=" ">
<polygon fill="white" stroke="#666666" points="288,-261 160,-261 160,-220 288,-220 288,-261"/>
<text text-anchor="start" x="168" y="-249" font-family="Helvetica,sans-Serif" font-size="10.00">/home/runner/work/occ</text>
<text text-anchor="start" x="168" y="-238" font-family="Helvetica,sans-Serif" font-size="10.00">/occ/include/occ/dft</text>
<text text-anchor="middle" x="224" y="-227" font-family="Helvetica,sans-Serif" font-size="10.00">/dft_gradient_kernels.h</text>
</a>
</g>
</g>
<!-- Node7&#45;&gt;Node8 -->
<g id="edge8_Node000007_Node000008" class="edge">
<title>Node7&#45;&gt;Node8</title>
<g id="a_edge8_Node000007_Node000008"><a xlink:title=" ">
<path fill="none" stroke="#63b8ff" d="M224,-286.69C224,-278.08 224,-268.9 224,-261.07"/>
<polygon fill="#63b8ff" stroke="#63b8ff" points="220.5,-286.79 224,-296.79 227.5,-286.79 220.5,-286.79"/>
</a>
</g>
</g>
<!-- Node8&#45;&gt;Node2 -->
<g id="edge9_Node000008_Node000002" class="edge">
<title>Node8&#45;&gt;Node2</title>
<g id="a_edge9_Node000008_Node000002"><a xlink:title=" ">
<path fill="none" stroke="#63b8ff" d="M224,-209.66C224,-200.76 224,-191.42 224,-184.04"/>
<polygon fill="#63b8ff" stroke="#63b8ff" points="220.5,-209.77 224,-219.77 227.5,-209.77 220.5,-209.77"/>
</a>
</g>
</g>
<!-- Node9&#45;&gt;Node2 -->
<g id="edge11_Node000009_Node000002" class="edge">
<title>Node9&#45;&gt;Node2</title>
<g id="a_edge11_Node000009_Node000002"><a xlink:title=" ">
<path fill="none" stroke="#63b8ff" d="M319.88,-363.88C323.16,-327.34 323.71,-264.6 297,-220 287.61,-204.32 271.17,-192.41 256.27,-184.16"/>
<polygon fill="#63b8ff" stroke="#63b8ff" points="316.39,-363.59 318.86,-373.89 323.36,-364.3 316.39,-363.59"/>
</a>
</g>
</g>
<!-- Node9&#45;&gt;Node7 -->
<g id="edge12_Node000009_Node000007" class="edge">
<title>Node9&#45;&gt;Node7</title>
<g id="a_edge12_Node000009_Node000007"><a xlink:title=" ">
<path fill="none" stroke="#63b8ff" d="M283.92,-367.35C272.12,-357.73 258.98,-347.01 248.01,-338.07"/>
<polygon fill="#63b8ff" stroke="#63b8ff" points="281.87,-370.19 291.83,-373.79 286.29,-364.76 281.87,-370.19"/>
</a>
</g>
</g>
<!-- Node10&#45;&gt;Node2 -->
<g id="edge14_Node000010_Node000002" class="edge">
<title>Node10&#45;&gt;Node2</title>
<g id="a_edge14_Node000010_Node000002"><a xlink:title=" ">
<path fill="none" stroke="#63b8ff" d="M390.39,-288.42C376.14,-267.45 354.46,-239.21 330,-220 310.4,-204.6 285.29,-192.49 264.42,-184.05"/>
<polygon fill="#63b8ff" stroke="#63b8ff" points="387.59,-290.52 396.03,-296.91 393.42,-286.65 387.59,-290.52"/>
</a>
</g>
</g>
</g>
</svg>
