<?xml version="1.0" encoding="UTF-8" standalone="no"?>
<!DOCTYPE svg PUBLIC "-//W3C//DTD SVG 1.1//EN"
 "http://www.w3.org/Graphics/SVG/1.1/DTD/svg11.dtd">
<!-- Generated by graphviz version 2.43.0 (0)
 -->
<!-- Title: /home/runner/work/occ/occ/include/occ/dft/functional.h Pages: 1 -->
<svg width="441pt" height="229pt"
 viewBox="0.00 0.00 441.00 229.00" xmlns="http://www.w3.org/2000/svg" xmlns:xlink="http://www.w3.org/1999/xlink">
<g id="graph0" class="graph" transform="scale(1 1) rotate(0) translate(4 225)">
<title>/home/runner/work/occ/occ/include/occ/dft/functional.h</title>
<!-- Node1 -->
<g id="node1" class="node">
<title>Node1</title>
<g id="a_node1"><a xlink:title=" ">
<polygon fill="#bfbfbf" stroke="black" points="150.5,-179.5 150.5,-220.5 278.5,-220.5 278.5,-179.5 150.5,-179.5"/>
<text text-anchor="start" x="158.5" y="-208.5" font-family="Helvetica,sans-Serif" font-size="10.00">/home/runner/work/occ</text>
<text text-anchor="start" x="158.5" y="-197.5" font-family="Helvetica,sans-Serif" font-size="10.00">/occ/include/occ/dft</text>
<text text-anchor="middle" x="214.5" y="-186.5" font-family="Helvetica,sans-Serif" font-size="10.00">/functional.h</text>
</a>
</g>
</g>
<!-- Node2 -->
<g id="node2" class="node">
<title>Node2</title>
<g id="a_node2"><a xlink:title=" ">
<polygon fill="none" stroke="#bfbfbf" points="0,-123.5 0,-142.5 67,-142.5 67,-123.5 0,-123.5"/>
<text text-anchor="middle" x="33.5" y="-130.5" font-family="Helvetica,sans-Serif" font-size="10.00">fmt/core.h</text>
</a>
</g>
</g>
<!-- Node1&#45;&gt;Node2 -->
<g id="edge1" class="edge">
<title>Node1&#45;&gt;Node2</title>
<path fill="none" stroke="midnightblue" d="M160.19,-179.5C129.91,-168.62 93.15,-155.42 67.04,-146.05"/>
<polygon fill="midnightblue" stroke="midnightblue" points="68.19,-142.74 57.59,-142.65 65.82,-149.33 68.19,-142.74"/>
</g>
<!-- Node3 -->
<g id="node3" class="node">
<title>Node3</title>
<g id="a_node3"><a xlink:title=" ">
<polygon fill="none" stroke="#bfbfbf" points="85.5,-123.5 85.5,-142.5 143.5,-142.5 143.5,-123.5 85.5,-123.5"/>
<text text-anchor="middle" x="114.5" y="-130.5" font-family="Helvetica,sans-Serif" font-size="10.00">memory</text>
</a>
</g>
</g>
<!-- Node1&#45;&gt;Node3 -->
<g id="edge2" class="edge">
<title>Node1&#45;&gt;Node3</title>
<path fill="none" stroke="midnightblue" d="M184.5,-179.5C169.02,-169.44 150.48,-157.38 136.37,-148.21"/>
<polygon fill="midnightblue" stroke="midnightblue" points="138.1,-145.17 127.81,-142.65 134.29,-151.04 138.1,-145.17"/>
</g>
<!-- Node4 -->
<g id="node4" class="node">
<title>Node4</title>
<g id="a_node4"><a xlink:href="linear__algebra_8h.html" target="_top" xlink:title=" ">
<polygon fill="none" stroke="black" points="74,-67.5 74,-86.5 213,-86.5 213,-67.5 74,-67.5"/>
<text text-anchor="middle" x="143.5" y="-74.5" font-family="Helvetica,sans-Serif" font-size="10.00">occ/core/linear_algebra.h</text>
</a>
</g>
</g>
<!-- Node1&#45;&gt;Node4 -->
<g id="edge3" class="edge">
<title>Node1&#45;&gt;Node4</title>
<path fill="none" stroke="midnightblue" d="M202.93,-179.29C189.24,-155.96 166.66,-117.47 153.63,-95.26"/>
<polygon fill="midnightblue" stroke="midnightblue" points="156.61,-93.43 148.53,-86.57 150.57,-96.97 156.61,-93.43"/>
</g>
<!-- Node8 -->
<g id="node8" class="node">
<title>Node8</title>
<g id="a_node8"><a xlink:href="spinorbital_8h.html" target="_top" xlink:title=" ">
<polygon fill="none" stroke="black" points="199.5,-123.5 199.5,-142.5 315.5,-142.5 315.5,-123.5 199.5,-123.5"/>
<text text-anchor="middle" x="257.5" y="-130.5" font-family="Helvetica,sans-Serif" font-size="10.00">occ/qm/spinorbital.h</text>
</a>
</g>
</g>
<!-- Node1&#45;&gt;Node8 -->
<g id="edge7" class="edge">
<title>Node1&#45;&gt;Node8</title>
<path fill="none" stroke="midnightblue" d="M227.4,-179.5C233.36,-170.49 240.37,-159.89 246.13,-151.19"/>
<polygon fill="midnightblue" stroke="midnightblue" points="249.18,-152.92 251.78,-142.65 243.34,-149.06 249.18,-152.92"/>
</g>
<!-- Node10 -->
<g id="node10" class="node">
<title>Node10</title>
<g id="a_node10"><a xlink:title=" ">
<polygon fill="none" stroke="#bfbfbf" points="333.5,-123.5 333.5,-142.5 377.5,-142.5 377.5,-123.5 333.5,-123.5"/>
<text text-anchor="middle" x="355.5" y="-130.5" font-family="Helvetica,sans-Serif" font-size="10.00">string</text>
</a>
</g>
</g>
<!-- Node1&#45;&gt;Node10 -->
<g id="edge11" class="edge">
<title>Node1&#45;&gt;Node10</title>
<path fill="none" stroke="midnightblue" d="M256.8,-179.5C279.67,-168.96 307.27,-156.23 327.47,-146.92"/>
<polygon fill="midnightblue" stroke="midnightblue" points="329.11,-150.02 336.73,-142.65 326.18,-143.66 329.11,-150.02"/>
</g>
<!-- Node11 -->
<g id="node11" class="node">
<title>Node11</title>
<g id="a_node11"><a xlink:title=" ">
<polygon fill="none" stroke="#bfbfbf" points="396,-123.5 396,-142.5 433,-142.5 433,-123.5 396,-123.5"/>
<text text-anchor="middle" x="414.5" y="-130.5" font-family="Helvetica,sans-Serif" font-size="10.00">xc.h</text>
</a>
</g>
</g>
<!-- Node1&#45;&gt;Node11 -->
<g id="edge12" class="edge">
<title>Node1&#45;&gt;Node11</title>
<path fill="none" stroke="midnightblue" d="M274.51,-179.5C311.4,-167.51 356.98,-152.69 385.91,-143.29"/>
<polygon fill="midnightblue" stroke="midnightblue" points="387.33,-146.51 395.76,-140.09 385.17,-139.85 387.33,-146.51"/>
</g>
<!-- Node5 -->
<g id="node5" class="node">
<title>Node5</title>
<g id="a_node5"><a xlink:title=" ">
<polygon fill="none" stroke="#bfbfbf" points="2,-6 2,-25 79,-25 79,-6 2,-6"/>
<text text-anchor="middle" x="40.5" y="-13" font-family="Helvetica,sans-Serif" font-size="10.00">Eigen/Dense</text>
</a>
</g>
</g>
<!-- Node4&#45;&gt;Node5 -->
<g id="edge4" class="edge">
<title>Node4&#45;&gt;Node5</title>
<path fill="none" stroke="midnightblue" d="M128.74,-67.48C111.84,-57.71 83.92,-41.58 64.01,-30.08"/>
<polygon fill="midnightblue" stroke="midnightblue" points="65.64,-26.98 55.23,-25.01 62.14,-33.04 65.64,-26.98"/>
</g>
<!-- Node6 -->
<g id="node6" class="node">
<title>Node6</title>
<g id="a_node6"><a xlink:title=" ">
<polygon fill="none" stroke="#bfbfbf" points="97,-6 97,-25 190,-25 190,-6 97,-6"/>
<text text-anchor="middle" x="143.5" y="-13" font-family="Helvetica,sans-Serif" font-size="10.00">Eigen/StdVector</text>
</a>
</g>
</g>
<!-- Node4&#45;&gt;Node6 -->
<g id="edge5" class="edge">
<title>Node4&#45;&gt;Node6</title>
<path fill="none" stroke="midnightblue" d="M143.5,-67.48C143.5,-59.08 143.5,-45.98 143.5,-35.16"/>
<polygon fill="midnightblue" stroke="midnightblue" points="147,-35.01 143.5,-25.01 140,-35.01 147,-35.01"/>
</g>
<!-- Node7 -->
<g id="node7" class="node">
<title>Node7</title>
<g id="a_node7"><a xlink:title=" ">
<polygon fill="none" stroke="#bfbfbf" points="208,-0.5 208,-30.5 315,-30.5 315,-0.5 208,-0.5"/>
<text text-anchor="start" x="216" y="-18.5" font-family="Helvetica,sans-Serif" font-size="10.00">occ/3rdparty/eigen</text>
<text text-anchor="middle" x="261.5" y="-7.5" font-family="Helvetica,sans-Serif" font-size="10.00">&#45;fmt/fmt.h</text>
</a>
</g>
</g>
<!-- Node4&#45;&gt;Node7 -->
<g id="edge6" class="edge">
<title>Node4&#45;&gt;Node7</title>
<path fill="none" stroke="midnightblue" d="M160.41,-67.48C177.06,-59.08 203.05,-45.97 224.51,-35.15"/>
<polygon fill="midnightblue" stroke="midnightblue" points="226.34,-38.15 233.69,-30.52 223.18,-31.9 226.34,-38.15"/>
</g>
<!-- Node8&#45;&gt;Node4 -->
<g id="edge8" class="edge">
<title>Node8&#45;&gt;Node4</title>
<path fill="none" stroke="midnightblue" d="M239.44,-123.44C220.93,-114.68 191.92,-100.94 170.64,-90.86"/>
<polygon fill="midnightblue" stroke="midnightblue" points="172.01,-87.63 161.48,-86.52 169.02,-93.96 172.01,-87.63"/>
</g>
<!-- Node9 -->
<g id="node9" class="node">
<title>Node9</title>
<g id="a_node9"><a xlink:href="qm_2opmatrix_8h.html" target="_top" xlink:title=" ">
<polygon fill="none" stroke="black" points="231.5,-67.5 231.5,-86.5 339.5,-86.5 339.5,-67.5 231.5,-67.5"/>
<text text-anchor="middle" x="285.5" y="-74.5" font-family="Helvetica,sans-Serif" font-size="10.00">occ/qm/opmatrix.h</text>
</a>
</g>
</g>
<!-- Node8&#45;&gt;Node9 -->
<g id="edge9" class="edge">
<title>Node8&#45;&gt;Node9</title>
<path fill="none" stroke="midnightblue" d="M256.96,-123.08C259.28,-115.53 264.61,-104.49 270.23,-95.23"/>
<polygon fill="midnightblue" stroke="midnightblue" points="273.24,-97.02 275.83,-86.75 267.4,-93.16 273.24,-97.02"/>
</g>
<!-- Node9&#45;&gt;Node8 -->
<g id="edge10" class="edge">
<title>Node9&#45;&gt;Node8</title>
<path fill="none" stroke="midnightblue" d="M286.09,-86.75C283.82,-94.25 278.51,-105.27 272.9,-114.57"/>
<polygon fill="midnightblue" stroke="midnightblue" points="269.87,-112.81 267.29,-123.08 275.71,-116.66 269.87,-112.81"/>
</g>
</g>
</svg>
