<?xml version="1.0" encoding="UTF-8" standalone="no"?>
<!DOCTYPE svg PUBLIC "-//W3C//DTD SVG 1.1//EN"
 "http://www.w3.org/Graphics/SVG/1.1/DTD/svg11.dtd">
<!-- Generated by graphviz version 2.43.0 (0)
 -->
<!-- Title: /home/runner/work/occ/occ/include/occ/dft/functional.h Pages: 1 -->
<svg width="888pt" height="280pt"
 viewBox="0.00 0.00 888.00 280.00" xmlns="http://www.w3.org/2000/svg" xmlns:xlink="http://www.w3.org/1999/xlink">
<g id="graph0" class="graph" transform="scale(1 1) rotate(0) translate(4 276)">
<title>/home/runner/work/occ/occ/include/occ/dft/functional.h</title>
<!-- Node1 -->
<g id="Node000001" class="node">
<title>Node1</title>
<g id="a_Node000001"><a xlink:title=" ">
<polygon fill="#999999" stroke="#666666" points="650.5,-272 522.5,-272 522.5,-231 650.5,-231 650.5,-272"/>
<text text-anchor="start" x="530.5" y="-260" font-family="Helvetica,sans-Serif" font-size="10.00">/home/runner/work/occ</text>
<text text-anchor="start" x="530.5" y="-249" font-family="Helvetica,sans-Serif" font-size="10.00">/occ/include/occ/dft</text>
<text text-anchor="middle" x="586.5" y="-238" font-family="Helvetica,sans-Serif" font-size="10.00">/functional.h</text>
</a>
</g>
</g>
<!-- Node2 -->
<g id="Node000002" class="node">
<title>Node2</title>
<g id="a_Node000002"><a xlink:title=" ">
<polygon fill="#e0e0e0" stroke="#999999" points="67,-19 0,-19 0,0 67,0 67,-19"/>
<text text-anchor="middle" x="33.5" y="-7" font-family="Helvetica,sans-Serif" font-size="10.00">fmt/core.h</text>
</a>
</g>
</g>
<!-- Node1&#45;&gt;Node2 -->
<g id="edge1_Node000001_Node000002" class="edge">
<title>Node1&#45;&gt;Node2</title>
<g id="a_edge1_Node000001_Node000002"><a xlink:title=" ">
<path fill="none" stroke="#63b8ff" d="M522.42,-237.44C475.93,-227.38 411.77,-212.3 356.5,-195 214.56,-150.57 138.73,-189.07 44.5,-74 34.42,-61.69 32.14,-43.47 32.11,-29.69"/>
<polygon fill="#63b8ff" stroke="#63b8ff" points="35.62,-29.52 32.49,-19.4 28.63,-29.27 35.62,-29.52"/>
</a>
</g>
</g>
<!-- Node3 -->
<g id="Node000003" class="node">
<title>Node3</title>
<g id="a_Node000003"><a xlink:title=" ">
<polygon fill="#e0e0e0" stroke="#999999" points="672.5,-189.5 614.5,-189.5 614.5,-170.5 672.5,-170.5 672.5,-189.5"/>
<text text-anchor="middle" x="643.5" y="-177.5" font-family="Helvetica,sans-Serif" font-size="10.00">memory</text>
</a>
</g>
</g>
<!-- Node1&#45;&gt;Node3 -->
<g id="edge2_Node000001_Node000003" class="edge">
<title>Node1&#45;&gt;Node3</title>
<g id="a_edge2_Node000001_Node000003"><a xlink:title=" ">
<path fill="none" stroke="#63b8ff" d="M602.68,-230.77C611.23,-220.34 621.62,-207.68 629.78,-197.73"/>
<polygon fill="#63b8ff" stroke="#63b8ff" points="632.63,-199.77 636.27,-189.82 627.22,-195.33 632.63,-199.77"/>
</a>
</g>
</g>
<!-- Node4 -->
<g id="Node000004" class="node">
<title>Node4</title>
<g id="a_Node000004"><a xlink:href="linear__algebra_8h.html" target="_top" xlink:title=" ">
<polygon fill="white" stroke="#666666" points="193,-74 54,-74 54,-55 193,-55 193,-74"/>
<text text-anchor="middle" x="123.5" y="-62" font-family="Helvetica,sans-Serif" font-size="10.00">occ/core/linear_algebra.h</text>
</a>
</g>
</g>
<!-- Node1&#45;&gt;Node4 -->
<g id="edge3_Node000001_Node000004" class="edge">
<title>Node1&#45;&gt;Node4</title>
<g id="a_edge3_Node000001_Node000004"><a xlink:title=" ">
<path fill="none" stroke="#63b8ff" d="M530.68,-230.94C501.59,-220.57 465.5,-207.44 433.5,-195 329.09,-154.42 206.88,-101.84 152.33,-78.11"/>
<polygon fill="#63b8ff" stroke="#63b8ff" points="153.51,-74.81 142.95,-74.02 150.72,-81.23 153.51,-74.81"/>
</a>
</g>
</g>
<!-- Node7 -->
<g id="Node000007" class="node">
<title>Node7</title>
<g id="a_Node000007"><a xlink:href="range__separated__parameters_8h.html" target="_top" xlink:title=" ">
<polygon fill="white" stroke="#666666" points="824.5,-195 690.5,-195 690.5,-165 824.5,-165 824.5,-195"/>
<text text-anchor="start" x="698.5" y="-183" font-family="Helvetica,sans-Serif" font-size="10.00">occ/dft/range_separated</text>
<text text-anchor="middle" x="757.5" y="-172" font-family="Helvetica,sans-Serif" font-size="10.00">_parameters.h</text>
</a>
</g>
</g>
<!-- Node1&#45;&gt;Node7 -->
<g id="edge7_Node000001_Node000007" class="edge">
<title>Node1&#45;&gt;Node7</title>
<g id="a_edge7_Node000001_Node000007"><a xlink:title=" ">
<path fill="none" stroke="#63b8ff" d="M634.59,-230.96C659.44,-220.85 689.55,-208.62 713.75,-198.78"/>
<polygon fill="#63b8ff" stroke="#63b8ff" points="715.1,-202.01 723.04,-195 712.46,-195.53 715.1,-202.01"/>
</a>
</g>
</g>
<!-- Node8 -->
<g id="Node000008" class="node">
<title>Node8</title>
<g id="a_Node000008"><a xlink:href="spinorbital_8h.html" target="_top" xlink:title=" ">
<polygon fill="white" stroke="#666666" points="558.5,-189.5 442.5,-189.5 442.5,-170.5 558.5,-170.5 558.5,-189.5"/>
<text text-anchor="middle" x="500.5" y="-177.5" font-family="Helvetica,sans-Serif" font-size="10.00">occ/qm/spinorbital.h</text>
</a>
</g>
</g>
<!-- Node1&#45;&gt;Node8 -->
<g id="edge8_Node000001_Node000008" class="edge">
<title>Node1&#45;&gt;Node8</title>
<g id="a_edge8_Node000001_Node000008"><a xlink:title=" ">
<path fill="none" stroke="#63b8ff" d="M562.09,-230.77C548.53,-219.81 531.92,-206.39 519.37,-196.25"/>
<polygon fill="#63b8ff" stroke="#63b8ff" points="521.39,-193.38 511.41,-189.82 516.99,-198.83 521.39,-193.38"/>
</a>
</g>
</g>
<!-- Node15 -->
<g id="Node000015" class="node">
<title>Node15</title>
<g id="a_Node000015"><a xlink:title=" ">
<polygon fill="#e0e0e0" stroke="#999999" points="754.5,-74 710.5,-74 710.5,-55 754.5,-55 754.5,-74"/>
<text text-anchor="middle" x="732.5" y="-62" font-family="Helvetica,sans-Serif" font-size="10.00">string</text>
</a>
</g>
</g>
<!-- Node1&#45;&gt;Node15 -->
<g id="edge22_Node000001_Node000015" class="edge">
<title>Node1&#45;&gt;Node15</title>
<g id="a_edge22_Node000001_Node000015"><a xlink:title=" ">
<path fill="none" stroke="#63b8ff" d="M587.14,-230.74C588.56,-212.43 592.85,-185.07 605.5,-165 630.43,-125.45 676.85,-95.17 706.13,-78.89"/>
<polygon fill="#63b8ff" stroke="#63b8ff" points="707.86,-81.93 714.99,-74.1 704.53,-75.78 707.86,-81.93"/>
</a>
</g>
</g>
<!-- Node18 -->
<g id="Node000018" class="node">
<title>Node18</title>
<g id="a_Node000018"><a xlink:title=" ">
<polygon fill="#e0e0e0" stroke="#999999" points="880,-189.5 843,-189.5 843,-170.5 880,-170.5 880,-189.5"/>
<text text-anchor="middle" x="861.5" y="-177.5" font-family="Helvetica,sans-Serif" font-size="10.00">xc.h</text>
</a>
</g>
</g>
<!-- Node1&#45;&gt;Node18 -->
<g id="edge23_Node000001_Node000018" class="edge">
<title>Node1&#45;&gt;Node18</title>
<g id="a_edge23_Node000001_Node000018"><a xlink:title=" ">
<path fill="none" stroke="#63b8ff" d="M650.64,-240.5C701.22,-231.56 773.05,-216.54 833.5,-195 834.55,-194.63 835.61,-194.22 836.67,-193.8"/>
<polygon fill="#63b8ff" stroke="#63b8ff" points="838.42,-196.85 846.1,-189.54 835.54,-190.47 838.42,-196.85"/>
</a>
</g>
</g>
<!-- Node4&#45;&gt;Node2 -->
<g id="edge6_Node000004_Node000002" class="edge">
<title>Node4&#45;&gt;Node2</title>
<g id="a_edge6_Node000004_Node000002"><a xlink:title=" ">
<path fill="none" stroke="#63b8ff" d="M109.04,-54.98C95.08,-46.77 73.71,-34.18 57.25,-24.49"/>
<polygon fill="#63b8ff" stroke="#63b8ff" points="58.62,-21.23 48.22,-19.17 55.06,-27.26 58.62,-21.23"/>
</a>
</g>
</g>
<!-- Node5 -->
<g id="Node000005" class="node">
<title>Node5</title>
<g id="a_Node000005"><a xlink:title=" ">
<polygon fill="#e0e0e0" stroke="#999999" points="162,-19 85,-19 85,0 162,0 162,-19"/>
<text text-anchor="middle" x="123.5" y="-7" font-family="Helvetica,sans-Serif" font-size="10.00">Eigen/Dense</text>
</a>
</g>
</g>
<!-- Node4&#45;&gt;Node5 -->
<g id="edge4_Node000004_Node000005" class="edge">
<title>Node4&#45;&gt;Node5</title>
<g id="a_edge4_Node000004_Node000005"><a xlink:title=" ">
<path fill="none" stroke="#63b8ff" d="M123.5,-54.75C123.5,-47.8 123.5,-37.85 123.5,-29.13"/>
<polygon fill="#63b8ff" stroke="#63b8ff" points="127,-29.09 123.5,-19.09 120,-29.09 127,-29.09"/>
</a>
</g>
</g>
<!-- Node6 -->
<g id="Node000006" class="node">
<title>Node6</title>
<g id="a_Node000006"><a xlink:title=" ">
<polygon fill="#e0e0e0" stroke="#999999" points="273,-19 180,-19 180,0 273,0 273,-19"/>
<text text-anchor="middle" x="226.5" y="-7" font-family="Helvetica,sans-Serif" font-size="10.00">Eigen/StdVector</text>
</a>
</g>
</g>
<!-- Node4&#45;&gt;Node6 -->
<g id="edge5_Node000004_Node000006" class="edge">
<title>Node4&#45;&gt;Node6</title>
<g id="a_edge5_Node000004_Node000006"><a xlink:title=" ">
<path fill="none" stroke="#63b8ff" d="M140.05,-54.98C156.39,-46.57 181.63,-33.59 200.63,-23.81"/>
<polygon fill="#63b8ff" stroke="#63b8ff" points="202.36,-26.86 209.65,-19.17 199.16,-20.63 202.36,-26.86"/>
</a>
</g>
</g>
<!-- Node8&#45;&gt;Node4 -->
<g id="edge9_Node000008_Node000004" class="edge">
<title>Node8&#45;&gt;Node4</title>
<g id="a_edge9_Node000008_Node000004"><a xlink:title=" ">
<path fill="none" stroke="#63b8ff" d="M472.16,-170.47C405.22,-150.31 237.22,-99.74 161.53,-76.95"/>
<polygon fill="#63b8ff" stroke="#63b8ff" points="162.49,-73.58 151.91,-74.05 160.47,-80.29 162.49,-73.58"/>
</a>
</g>
</g>
<!-- Node9 -->
<g id="Node000009" class="node">
<title>Node9</title>
<g id="a_Node000009"><a xlink:href="util_8h.html" target="_top" xlink:title=" ">
<polygon fill="white" stroke="#666666" points="432,-129 347,-129 347,-110 432,-110 432,-129"/>
<text text-anchor="middle" x="389.5" y="-117" font-family="Helvetica,sans-Serif" font-size="10.00">occ/core/util.h</text>
</a>
</g>
</g>
<!-- Node8&#45;&gt;Node9 -->
<g id="edge10_Node000008_Node000009" class="edge">
<title>Node8&#45;&gt;Node9</title>
<g id="a_edge10_Node000008_Node000009"><a xlink:title=" ">
<path fill="none" stroke="#63b8ff" d="M484.12,-170.37C465.92,-160.78 436.3,-145.17 415.05,-133.97"/>
<polygon fill="#63b8ff" stroke="#63b8ff" points="416.42,-130.73 405.95,-129.17 413.16,-136.93 416.42,-130.73"/>
</a>
</g>
</g>
<!-- Node17 -->
<g id="Node000017" class="node">
<title>Node17</title>
<g id="a_Node000017"><a xlink:href="qm_2opmatrix_8h.html" target="_top" xlink:title=" ">
<polygon fill="white" stroke="#666666" points="558.5,-129 450.5,-129 450.5,-110 558.5,-110 558.5,-129"/>
<text text-anchor="middle" x="504.5" y="-117" font-family="Helvetica,sans-Serif" font-size="10.00">occ/qm/opmatrix.h</text>
</a>
</g>
</g>
<!-- Node8&#45;&gt;Node17 -->
<g id="edge20_Node000008_Node000017" class="edge">
<title>Node8&#45;&gt;Node17</title>
<g id="a_edge20_Node000008_Node000017"><a xlink:title=" ">
<path fill="none" stroke="#63b8ff" d="M496.13,-170.37C494.92,-162.16 495.33,-149.54 496.9,-139.05"/>
<polygon fill="#63b8ff" stroke="#63b8ff" points="500.35,-139.67 498.94,-129.17 493.49,-138.25 500.35,-139.67"/>
</a>
</g>
</g>
<!-- Node9&#45;&gt;Node2 -->
<g id="edge14_Node000009_Node000002" class="edge">
<title>Node9&#45;&gt;Node2</title>
<g id="a_edge14_Node000009_Node000002"><a xlink:title=" ">
<path fill="none" stroke="#63b8ff" d="M428.33,-109.96C461.4,-101.81 505.15,-88.63 515.5,-74 520.38,-67.11 521.22,-61.21 515.5,-55 483.88,-20.69 158.27,-25.3 77.76,-18.81"/>
<polygon fill="#63b8ff" stroke="#63b8ff" points="77.68,-15.28 67.37,-17.71 76.94,-22.24 77.68,-15.28"/>
</a>
</g>
</g>
<!-- Node9&#45;&gt;Node4 -->
<g id="edge17_Node000009_Node000004" class="edge">
<title>Node9&#45;&gt;Node4</title>
<g id="a_edge17_Node000009_Node000004"><a xlink:title=" ">
<path fill="none" stroke="#63b8ff" d="M346.76,-109.98C300.46,-100.76 226.52,-86.03 176.54,-76.07"/>
<polygon fill="#63b8ff" stroke="#63b8ff" points="177.06,-72.6 166.57,-74.08 175.7,-79.47 177.06,-72.6"/>
</a>
</g>
</g>
<!-- Node10 -->
<g id="Node000010" class="node">
<title>Node10</title>
<g id="a_Node000010"><a xlink:title=" ">
<polygon fill="#e0e0e0" stroke="#999999" points="692.5,-74 628.5,-74 628.5,-55 692.5,-55 692.5,-74"/>
<text text-anchor="middle" x="660.5" y="-62" font-family="Helvetica,sans-Serif" font-size="10.00">algorithm</text>
</a>
</g>
</g>
<!-- Node9&#45;&gt;Node10 -->
<g id="edge11_Node000009_Node000010" class="edge">
<title>Node9&#45;&gt;Node10</title>
<g id="a_edge11_Node000009_Node000010"><a xlink:title=" ">
<path fill="none" stroke="#63b8ff" d="M432.15,-110.32C478.15,-101.46 553.55,-86.88 618.5,-74 618.6,-73.98 618.7,-73.96 618.8,-73.94"/>
<polygon fill="#63b8ff" stroke="#63b8ff" points="619.28,-77.41 628.4,-72.02 617.91,-70.55 619.28,-77.41"/>
</a>
</g>
</g>
<!-- Node11 -->
<g id="Node000011" class="node">
<title>Node11</title>
<g id="a_Node000011"><a xlink:title=" ">
<polygon fill="#e0e0e0" stroke="#999999" points="260,-74 211,-74 211,-55 260,-55 260,-74"/>
<text text-anchor="middle" x="235.5" y="-62" font-family="Helvetica,sans-Serif" font-size="10.00">cctype</text>
</a>
</g>
</g>
<!-- Node9&#45;&gt;Node11 -->
<g id="edge12_Node000009_Node000011" class="edge">
<title>Node9&#45;&gt;Node11</title>
<g id="a_edge12_Node000009_Node000011"><a xlink:title=" ">
<path fill="none" stroke="#63b8ff" d="M364.76,-109.98C339.05,-101.14 298.63,-87.23 269.84,-77.32"/>
<polygon fill="#63b8ff" stroke="#63b8ff" points="270.78,-73.94 260.18,-73.99 268.5,-80.56 270.78,-73.94"/>
</a>
</g>
</g>
<!-- Node12 -->
<g id="Node000012" class="node">
<title>Node12</title>
<g id="a_Node000012"><a xlink:title=" ">
<polygon fill="#e0e0e0" stroke="#999999" points="328.5,-74 278.5,-74 278.5,-55 328.5,-55 328.5,-74"/>
<text text-anchor="middle" x="303.5" y="-62" font-family="Helvetica,sans-Serif" font-size="10.00">chrono</text>
</a>
</g>
</g>
<!-- Node9&#45;&gt;Node12 -->
<g id="edge13_Node000009_Node000012" class="edge">
<title>Node9&#45;&gt;Node12</title>
<g id="a_edge13_Node000009_Node000012"><a xlink:title=" ">
<path fill="none" stroke="#63b8ff" d="M375.68,-109.98C362.35,-101.77 341.92,-89.18 326.19,-79.49"/>
<polygon fill="#63b8ff" stroke="#63b8ff" points="327.92,-76.44 317.57,-74.17 324.25,-82.4 327.92,-76.44"/>
</a>
</g>
</g>
<!-- Node13 -->
<g id="Node000013" class="node">
<title>Node13</title>
<g id="a_Node000013"><a xlink:title=" ">
<polygon fill="#e0e0e0" stroke="#999999" points="432.5,-74 346.5,-74 346.5,-55 432.5,-55 432.5,-74"/>
<text text-anchor="middle" x="389.5" y="-62" font-family="Helvetica,sans-Serif" font-size="10.00">fmt/ostream.h</text>
</a>
</g>
</g>
<!-- Node9&#45;&gt;Node13 -->
<g id="edge15_Node000009_Node000013" class="edge">
<title>Node9&#45;&gt;Node13</title>
<g id="a_edge15_Node000009_Node000013"><a xlink:title=" ">
<path fill="none" stroke="#63b8ff" d="M389.5,-109.75C389.5,-102.8 389.5,-92.85 389.5,-84.13"/>
<polygon fill="#63b8ff" stroke="#63b8ff" points="393,-84.09 389.5,-74.09 386,-84.09 393,-84.09"/>
</a>
</g>
</g>
<!-- Node14 -->
<g id="Node000014" class="node">
<title>Node14</title>
<g id="a_Node000014"><a xlink:title=" ">
<polygon fill="#e0e0e0" stroke="#999999" points="506.5,-74 450.5,-74 450.5,-55 506.5,-55 506.5,-74"/>
<text text-anchor="middle" x="478.5" y="-62" font-family="Helvetica,sans-Serif" font-size="10.00">numeric</text>
</a>
</g>
</g>
<!-- Node9&#45;&gt;Node14 -->
<g id="edge16_Node000009_Node000014" class="edge">
<title>Node9&#45;&gt;Node14</title>
<g id="a_edge16_Node000009_Node000014"><a xlink:title=" ">
<path fill="none" stroke="#63b8ff" d="M403.8,-109.98C417.6,-101.77 438.74,-89.18 455.01,-79.49"/>
<polygon fill="#63b8ff" stroke="#63b8ff" points="457.14,-82.29 463.94,-74.17 453.56,-76.28 457.14,-82.29"/>
</a>
</g>
</g>
<!-- Node9&#45;&gt;Node15 -->
<g id="edge18_Node000009_Node000015" class="edge">
<title>Node9&#45;&gt;Node15</title>
<g id="a_edge18_Node000009_Node000015"><a xlink:title=" ">
<path fill="none" stroke="#63b8ff" d="M432.05,-111.46C435.25,-110.96 438.42,-110.46 441.5,-110 553.7,-93.07 585.5,-97.22 700.35,-74"/>
<polygon fill="#63b8ff" stroke="#63b8ff" points="701.14,-77.41 710.23,-71.98 699.73,-70.56 701.14,-77.41"/>
</a>
</g>
</g>
<!-- Node16 -->
<g id="Node000016" class="node">
<title>Node16</title>
<g id="a_Node000016"><a xlink:title=" ">
<polygon fill="#e0e0e0" stroke="#999999" points="610,-74 563,-74 563,-55 610,-55 610,-74"/>
<text text-anchor="middle" x="586.5" y="-62" font-family="Helvetica,sans-Serif" font-size="10.00">vector</text>
</a>
</g>
</g>
<!-- Node9&#45;&gt;Node16 -->
<g id="edge19_Node000009_Node000016" class="edge">
<title>Node9&#45;&gt;Node16</title>
<g id="a_edge19_Node000009_Node000016"><a xlink:title=" ">
<path fill="none" stroke="#63b8ff" d="M421.15,-109.98C457.34,-100.25 516.32,-84.38 553.19,-74.46"/>
<polygon fill="#63b8ff" stroke="#63b8ff" points="554.22,-77.81 562.96,-71.83 552.4,-71.05 554.22,-77.81"/>
</a>
</g>
</g>
<!-- Node17&#45;&gt;Node8 -->
<g id="edge21_Node000017_Node000008" class="edge">
<title>Node17&#45;&gt;Node8</title>
<g id="a_edge21_Node000017_Node000008"><a xlink:title=" ">
<path fill="none" stroke="#63b8ff" d="M508.87,-129.17C510.08,-137.39 509.67,-150.01 508.09,-160.49"/>
<polygon fill="#63b8ff" stroke="#63b8ff" points="504.65,-159.87 506.05,-170.37 511.5,-161.29 504.65,-159.87"/>
</a>
</g>
</g>
</g>
</svg>
