<?xml version="1.0" encoding="UTF-8" standalone="no"?>
<!DOCTYPE svg PUBLIC "-//W3C//DTD SVG 1.1//EN"
 "http://www.w3.org/Graphics/SVG/1.1/DTD/svg11.dtd">
<!-- Generated by graphviz version 2.43.0 (0)
 -->
<!-- Title: /home/runner/work/occ/occ/include/occ/dft/functional.h Pages: 1 -->
<svg width="358pt" height="351pt"
 viewBox="0.00 0.00 358.00 351.00" xmlns="http://www.w3.org/2000/svg" xmlns:xlink="http://www.w3.org/1999/xlink">
<g id="graph0" class="graph" transform="scale(1 1) rotate(0) translate(4 347)">
<title>/home/runner/work/occ/occ/include/occ/dft/functional.h</title>
<!-- Node1 -->
<g id="node1" class="node">
<title>Node1</title>
<g id="a_node1"><a xlink:title=" ">
<polygon fill="#bfbfbf" stroke="black" points="76,-301.5 76,-342.5 204,-342.5 204,-301.5 76,-301.5"/>
<text text-anchor="start" x="84" y="-330.5" font-family="Helvetica,sans-Serif" font-size="10.00">/home/runner/work/occ</text>
<text text-anchor="start" x="84" y="-319.5" font-family="Helvetica,sans-Serif" font-size="10.00">/occ/include/occ/dft</text>
<text text-anchor="middle" x="140" y="-308.5" font-family="Helvetica,sans-Serif" font-size="10.00">/functional.h</text>
</a>
</g>
</g>
<!-- Node2 -->
<g id="node2" class="node">
<title>Node2</title>
<g id="a_node2"><a xlink:href="dft_8h.html" target="_top" xlink:title=" ">
<polygon fill="none" stroke="black" points="73,-156.5 73,-186.5 207,-186.5 207,-156.5 73,-156.5"/>
<text text-anchor="start" x="81" y="-174.5" font-family="Helvetica,sans-Serif" font-size="10.00">/home/runner/work/occ</text>
<text text-anchor="middle" x="140" y="-163.5" font-family="Helvetica,sans-Serif" font-size="10.00">/occ/include/occ/dft/dft.h</text>
</a>
</g>
</g>
<!-- Node1&#45;&gt;Node2 -->
<g id="edge1" class="edge">
<title>Node1&#45;&gt;Node2</title>
<path fill="none" stroke="midnightblue" d="M93.64,-295.56C82.95,-287.31 72.97,-277.1 67,-265 58.74,-248.26 58.33,-239.53 67,-223 75.44,-206.89 91.61,-194.91 106.59,-186.66"/>
<polygon fill="midnightblue" stroke="midnightblue" points="91.73,-298.51 101.9,-301.49 95.81,-292.82 91.73,-298.51"/>
</g>
<!-- Node6 -->
<g id="node6" class="node">
<title>Node6</title>
<g id="a_node6"><a xlink:href="dft__method_8h.html" target="_top" xlink:title=" ">
<polygon fill="none" stroke="black" points="76,-223.5 76,-264.5 204,-264.5 204,-223.5 76,-223.5"/>
<text text-anchor="start" x="84" y="-252.5" font-family="Helvetica,sans-Serif" font-size="10.00">/home/runner/work/occ</text>
<text text-anchor="start" x="84" y="-241.5" font-family="Helvetica,sans-Serif" font-size="10.00">/occ/include/occ/dft</text>
<text text-anchor="middle" x="140" y="-230.5" font-family="Helvetica,sans-Serif" font-size="10.00">/dft_method.h</text>
</a>
</g>
</g>
<!-- Node1&#45;&gt;Node6 -->
<g id="edge5" class="edge">
<title>Node1&#45;&gt;Node6</title>
<path fill="none" stroke="midnightblue" d="M140,-291.3C140,-282.3 140,-272.65 140,-264.51"/>
<polygon fill="midnightblue" stroke="midnightblue" points="136.5,-291.43 140,-301.43 143.5,-291.43 136.5,-291.43"/>
</g>
<!-- Node7 -->
<g id="node7" class="node">
<title>Node7</title>
<g id="a_node7"><a xlink:href="xc__potential__matrix_8h.html" target="_top" xlink:title=" ">
<polygon fill="none" stroke="black" points="222,-223.5 222,-264.5 350,-264.5 350,-223.5 222,-223.5"/>
<text text-anchor="start" x="230" y="-252.5" font-family="Helvetica,sans-Serif" font-size="10.00">/home/runner/work/occ</text>
<text text-anchor="start" x="230" y="-241.5" font-family="Helvetica,sans-Serif" font-size="10.00">/occ/include/occ/dft</text>
<text text-anchor="middle" x="286" y="-230.5" font-family="Helvetica,sans-Serif" font-size="10.00">/xc_potential_matrix.h</text>
</a>
</g>
</g>
<!-- Node1&#45;&gt;Node7 -->
<g id="edge7" class="edge">
<title>Node1&#45;&gt;Node7</title>
<path fill="none" stroke="midnightblue" d="M186.55,-296.77C206.56,-286.35 229.64,-274.34 248.53,-264.51"/>
<polygon fill="midnightblue" stroke="midnightblue" points="184.85,-293.71 177.6,-301.43 188.08,-299.92 184.85,-293.71"/>
</g>
<!-- Node3 -->
<g id="node3" class="node">
<title>Node3</title>
<g id="a_node3"><a xlink:href="smd__solvation_8h.html" target="_top" xlink:title=" ">
<polygon fill="none" stroke="black" points="0,-78.5 0,-119.5 132,-119.5 132,-78.5 0,-78.5"/>
<text text-anchor="start" x="8" y="-107.5" font-family="Helvetica,sans-Serif" font-size="10.00">/home/runner/work/occ</text>
<text text-anchor="start" x="8" y="-96.5" font-family="Helvetica,sans-Serif" font-size="10.00">/occ/include/occ/cg/smd</text>
<text text-anchor="middle" x="66" y="-85.5" font-family="Helvetica,sans-Serif" font-size="10.00">_solvation.h</text>
</a>
</g>
</g>
<!-- Node2&#45;&gt;Node3 -->
<g id="edge2" class="edge">
<title>Node2&#45;&gt;Node3</title>
<path fill="none" stroke="midnightblue" d="M117.54,-149.1C107.68,-139.71 96.19,-128.76 86.56,-119.59"/>
<polygon fill="midnightblue" stroke="midnightblue" points="115.37,-151.87 125.02,-156.23 120.2,-146.8 115.37,-151.87"/>
</g>
<!-- Node5 -->
<g id="node5" class="node">
<title>Node5</title>
<g id="a_node5"><a xlink:href="point__functors_8h.html" target="_top" xlink:title=" ">
<polygon fill="none" stroke="black" points="150,-78.5 150,-119.5 278,-119.5 278,-78.5 150,-78.5"/>
<text text-anchor="start" x="158" y="-107.5" font-family="Helvetica,sans-Serif" font-size="10.00">/home/runner/work/occ</text>
<text text-anchor="start" x="158" y="-96.5" font-family="Helvetica,sans-Serif" font-size="10.00">/occ/include/occ/main</text>
<text text-anchor="middle" x="214" y="-85.5" font-family="Helvetica,sans-Serif" font-size="10.00">/point_functors.h</text>
</a>
</g>
</g>
<!-- Node2&#45;&gt;Node5 -->
<g id="edge4" class="edge">
<title>Node2&#45;&gt;Node5</title>
<path fill="none" stroke="midnightblue" d="M162.46,-149.1C172.32,-139.71 183.81,-128.76 193.44,-119.59"/>
<polygon fill="midnightblue" stroke="midnightblue" points="159.8,-146.8 154.98,-156.23 164.63,-151.87 159.8,-146.8"/>
</g>
<!-- Node4 -->
<g id="node4" class="node">
<title>Node4</title>
<g id="a_node4"><a xlink:href="crystal__growth_8h.html" target="_top" xlink:title=" ">
<polygon fill="none" stroke="black" points="2,-0.5 2,-41.5 130,-41.5 130,-0.5 2,-0.5"/>
<text text-anchor="start" x="10" y="-29.5" font-family="Helvetica,sans-Serif" font-size="10.00">/home/runner/work/occ</text>
<text text-anchor="start" x="10" y="-18.5" font-family="Helvetica,sans-Serif" font-size="10.00">/occ/include/occ/driver</text>
<text text-anchor="middle" x="66" y="-7.5" font-family="Helvetica,sans-Serif" font-size="10.00">/crystal_growth.h</text>
</a>
</g>
</g>
<!-- Node3&#45;&gt;Node4 -->
<g id="edge3" class="edge">
<title>Node3&#45;&gt;Node4</title>
<path fill="none" stroke="midnightblue" d="M66,-68.3C66,-59.3 66,-49.65 66,-41.51"/>
<polygon fill="midnightblue" stroke="midnightblue" points="62.5,-68.43 66,-78.43 69.5,-68.43 62.5,-68.43"/>
</g>
<!-- Node6&#45;&gt;Node2 -->
<g id="edge6" class="edge">
<title>Node6&#45;&gt;Node2</title>
<path fill="none" stroke="midnightblue" d="M140,-213.08C140,-204.01 140,-194.45 140,-186.89"/>
<polygon fill="midnightblue" stroke="midnightblue" points="136.5,-213.36 140,-223.36 143.5,-213.36 136.5,-213.36"/>
</g>
<!-- Node7&#45;&gt;Node2 -->
<g id="edge8" class="edge">
<title>Node7&#45;&gt;Node2</title>
<path fill="none" stroke="midnightblue" d="M236.03,-218.87C213.82,-208.15 188.43,-195.89 169.34,-186.67"/>
<polygon fill="midnightblue" stroke="midnightblue" points="234.8,-222.17 245.33,-223.36 237.85,-215.86 234.8,-222.17"/>
</g>
</g>
</svg>
