<?xml version="1.0" encoding="UTF-8" standalone="no"?>
<!DOCTYPE svg PUBLIC "-//W3C//DTD SVG 1.1//EN"
 "http://www.w3.org/Graphics/SVG/1.1/DTD/svg11.dtd">
<!-- Generated by graphviz version 2.43.0 (0)
 -->
<!-- Title: /home/runner/work/occ/occ/include/occ/io/gaussian_input_file.h Pages: 1 -->
<svg width="901pt" height="269pt"
 viewBox="0.00 0.00 901.00 269.00" xmlns="http://www.w3.org/2000/svg" xmlns:xlink="http://www.w3.org/1999/xlink">
<g id="graph0" class="graph" transform="scale(1 1) rotate(0) translate(4 265)">
<title>/home/runner/work/occ/occ/include/occ/io/gaussian_input_file.h</title>
<!-- Node1 -->
<g id="Node000001" class="node">
<title>Node1</title>
<g id="a_Node000001"><a xlink:title=" ">
<polygon fill="#999999" stroke="#666666" points="259,-261 107,-261 107,-220 259,-220 259,-261"/>
<text text-anchor="start" x="115" y="-249" font-family="Helvetica,sans-Serif" font-size="10.00">/home/runner/work/occ</text>
<text text-anchor="start" x="115" y="-238" font-family="Helvetica,sans-Serif" font-size="10.00">/occ/include/occ/io/gaussian</text>
<text text-anchor="middle" x="183" y="-227" font-family="Helvetica,sans-Serif" font-size="10.00">_input_file.h</text>
</a>
</g>
</g>
<!-- Node2 -->
<g id="Node000002" class="node">
<title>Node2</title>
<g id="a_Node000002"><a xlink:title=" ">
<polygon fill="#e0e0e0" stroke="#999999" points="42,-184 0,-184 0,-165 42,-165 42,-184"/>
<text text-anchor="middle" x="21" y="-172" font-family="Helvetica,sans-Serif" font-size="10.00">array</text>
</a>
</g>
</g>
<!-- Node1&#45;&gt;Node2 -->
<g id="edge1_Node000001_Node000002" class="edge">
<title>Node1&#45;&gt;Node2</title>
<g id="a_edge1_Node000001_Node000002"><a xlink:title=" ">
<path fill="none" stroke="#63b8ff" d="M133.51,-219.95C106.93,-209.45 74.98,-196.82 51.93,-187.72"/>
<polygon fill="#63b8ff" stroke="#63b8ff" points="52.91,-184.34 42.32,-183.92 50.34,-190.85 52.91,-184.34"/>
</a>
</g>
</g>
<!-- Node3 -->
<g id="Node000003" class="node">
<title>Node3</title>
<g id="a_Node000003"><a xlink:title=" ">
<polygon fill="#e0e0e0" stroke="#999999" points="114,-184 60,-184 60,-165 114,-165 114,-184"/>
<text text-anchor="middle" x="87" y="-172" font-family="Helvetica,sans-Serif" font-size="10.00">istream</text>
</a>
</g>
</g>
<!-- Node1&#45;&gt;Node3 -->
<g id="edge2_Node000001_Node000003" class="edge">
<title>Node1&#45;&gt;Node3</title>
<g id="a_edge2_Node000001_Node000003"><a xlink:title=" ">
<path fill="none" stroke="#63b8ff" d="M153.68,-219.95C139.07,-210.21 121.73,-198.65 108.4,-189.76"/>
<polygon fill="#63b8ff" stroke="#63b8ff" points="110.15,-186.73 99.89,-184.09 106.27,-192.55 110.15,-186.73"/>
</a>
</g>
</g>
<!-- Node4 -->
<g id="Node000004" class="node">
<title>Node4</title>
<g id="a_Node000004"><a xlink:href="element_8h.html" target="_top" xlink:title=" ">
<polygon fill="white" stroke="#666666" points="280,-129 170,-129 170,-110 280,-110 280,-129"/>
<text text-anchor="middle" x="225" y="-117" font-family="Helvetica,sans-Serif" font-size="10.00">occ/core/element.h</text>
</a>
</g>
</g>
<!-- Node1&#45;&gt;Node4 -->
<g id="edge3_Node000001_Node000004" class="edge">
<title>Node1&#45;&gt;Node4</title>
<g id="a_edge3_Node000001_Node000004"><a xlink:title=" ">
<path fill="none" stroke="#63b8ff" d="M189.94,-219.85C197.9,-197.27 210.87,-160.52 218.61,-138.61"/>
<polygon fill="#63b8ff" stroke="#63b8ff" points="221.91,-139.77 221.94,-129.18 215.31,-137.44 221.91,-139.77"/>
</a>
</g>
</g>
<!-- Node5 -->
<g id="Node000005" class="node">
<title>Node5</title>
<g id="a_Node000005"><a xlink:title=" ">
<polygon fill="#e0e0e0" stroke="#999999" points="173,-74 129,-74 129,-55 173,-55 173,-74"/>
<text text-anchor="middle" x="151" y="-62" font-family="Helvetica,sans-Serif" font-size="10.00">string</text>
</a>
</g>
</g>
<!-- Node1&#45;&gt;Node5 -->
<g id="edge25_Node000001_Node000005" class="edge">
<title>Node1&#45;&gt;Node5</title>
<g id="a_edge25_Node000001_Node000005"><a xlink:title=" ">
<path fill="none" stroke="#63b8ff" d="M178.87,-219.98C174.26,-197.94 166.7,-160.97 161,-129 158.33,-114.03 155.67,-97 153.76,-84.35"/>
<polygon fill="#63b8ff" stroke="#63b8ff" points="157.18,-83.52 152.25,-74.15 150.26,-84.55 157.18,-83.52"/>
</a>
</g>
</g>
<!-- Node6 -->
<g id="Node000006" class="node">
<title>Node6</title>
<g id="a_Node000006"><a xlink:title=" ">
<polygon fill="#e0e0e0" stroke="#999999" points="238.5,-74 191.5,-74 191.5,-55 238.5,-55 238.5,-74"/>
<text text-anchor="middle" x="215" y="-62" font-family="Helvetica,sans-Serif" font-size="10.00">vector</text>
</a>
</g>
</g>
<!-- Node1&#45;&gt;Node6 -->
<g id="edge26_Node000001_Node000006" class="edge">
<title>Node1&#45;&gt;Node6</title>
<g id="a_edge26_Node000001_Node000006"><a xlink:title=" ">
<path fill="none" stroke="#63b8ff" d="M211.8,-219.7C237.55,-200.09 273.53,-167.48 289,-129 298.42,-105.57 271.73,-87.88 247.81,-77.2"/>
<polygon fill="#63b8ff" stroke="#63b8ff" points="249.11,-73.95 238.53,-73.32 246.41,-80.4 249.11,-73.95"/>
</a>
</g>
</g>
<!-- Node11 -->
<g id="Node000011" class="node">
<title>Node11</title>
<g id="a_Node000011"><a xlink:href="spinorbital_8h.html" target="_top" xlink:title=" ">
<polygon fill="white" stroke="#666666" points="530,-184 414,-184 414,-165 530,-165 530,-184"/>
<text text-anchor="middle" x="472" y="-172" font-family="Helvetica,sans-Serif" font-size="10.00">occ/qm/spinorbital.h</text>
</a>
</g>
</g>
<!-- Node1&#45;&gt;Node11 -->
<g id="edge10_Node000001_Node000011" class="edge">
<title>Node1&#45;&gt;Node11</title>
<g id="a_edge10_Node000001_Node000011"><a xlink:title=" ">
<path fill="none" stroke="#63b8ff" d="M259.31,-222.6C311.39,-211.07 378.81,-196.14 423.64,-186.21"/>
<polygon fill="#63b8ff" stroke="#63b8ff" points="424.4,-189.63 433.4,-184.05 422.88,-182.79 424.4,-189.63"/>
</a>
</g>
</g>
<!-- Node4&#45;&gt;Node5 -->
<g id="edge4_Node000004_Node000005" class="edge">
<title>Node4&#45;&gt;Node5</title>
<g id="a_edge4_Node000004_Node000005"><a xlink:title=" ">
<path fill="none" stroke="#63b8ff" d="M213.11,-109.98C201.85,-101.92 184.71,-89.65 171.29,-80.03"/>
<polygon fill="#63b8ff" stroke="#63b8ff" points="173.27,-77.15 163.11,-74.17 169.2,-82.84 173.27,-77.15"/>
</a>
</g>
</g>
<!-- Node4&#45;&gt;Node6 -->
<g id="edge5_Node000004_Node000006" class="edge">
<title>Node4&#45;&gt;Node6</title>
<g id="a_edge5_Node000004_Node000006"><a xlink:title=" ">
<path fill="none" stroke="#63b8ff" d="M223.35,-109.75C222.04,-102.8 220.16,-92.85 218.52,-84.13"/>
<polygon fill="#63b8ff" stroke="#63b8ff" points="221.91,-83.27 216.62,-74.09 215.04,-84.56 221.91,-83.27"/>
</a>
</g>
</g>
<!-- Node7 -->
<g id="Node000007" class="node">
<title>Node7</title>
<g id="a_Node000007"><a xlink:href="linear__algebra_8h.html" target="_top" xlink:title=" ">
<polygon fill="white" stroke="#666666" points="395.5,-74 256.5,-74 256.5,-55 395.5,-55 395.5,-74"/>
<text text-anchor="middle" x="326" y="-62" font-family="Helvetica,sans-Serif" font-size="10.00">occ/core/linear_algebra.h</text>
</a>
</g>
</g>
<!-- Node4&#45;&gt;Node7 -->
<g id="edge6_Node000004_Node000007" class="edge">
<title>Node4&#45;&gt;Node7</title>
<g id="a_edge6_Node000004_Node000007"><a xlink:title=" ">
<path fill="none" stroke="#63b8ff" d="M241.23,-109.98C257.18,-101.61 281.78,-88.7 300.38,-78.95"/>
<polygon fill="#63b8ff" stroke="#63b8ff" points="302.25,-81.92 309.48,-74.17 299,-75.72 302.25,-81.92"/>
</a>
</g>
</g>
<!-- Node8 -->
<g id="Node000008" class="node">
<title>Node8</title>
<g id="a_Node000008"><a xlink:title=" ">
<polygon fill="#e0e0e0" stroke="#999999" points="416.5,-19 339.5,-19 339.5,0 416.5,0 416.5,-19"/>
<text text-anchor="middle" x="378" y="-7" font-family="Helvetica,sans-Serif" font-size="10.00">Eigen/Dense</text>
</a>
</g>
</g>
<!-- Node7&#45;&gt;Node8 -->
<g id="edge7_Node000007_Node000008" class="edge">
<title>Node7&#45;&gt;Node8</title>
<g id="a_edge7_Node000007_Node000008"><a xlink:title=" ">
<path fill="none" stroke="#63b8ff" d="M334.59,-54.75C342.16,-47.03 353.38,-35.6 362.51,-26.28"/>
<polygon fill="#63b8ff" stroke="#63b8ff" points="365.07,-28.68 369.57,-19.09 360.07,-23.78 365.07,-28.68"/>
</a>
</g>
</g>
<!-- Node9 -->
<g id="Node000009" class="node">
<title>Node9</title>
<g id="a_Node000009"><a xlink:title=" ">
<polygon fill="#e0e0e0" stroke="#999999" points="321.5,-19 228.5,-19 228.5,0 321.5,0 321.5,-19"/>
<text text-anchor="middle" x="275" y="-7" font-family="Helvetica,sans-Serif" font-size="10.00">Eigen/StdVector</text>
</a>
</g>
</g>
<!-- Node7&#45;&gt;Node9 -->
<g id="edge8_Node000007_Node000009" class="edge">
<title>Node7&#45;&gt;Node9</title>
<g id="a_edge8_Node000007_Node000009"><a xlink:title=" ">
<path fill="none" stroke="#63b8ff" d="M317.58,-54.75C310.23,-47.11 299.37,-35.82 290.46,-26.56"/>
<polygon fill="#63b8ff" stroke="#63b8ff" points="292.72,-23.87 283.26,-19.09 287.68,-28.72 292.72,-23.87"/>
</a>
</g>
</g>
<!-- Node10 -->
<g id="Node000010" class="node">
<title>Node10</title>
<g id="a_Node000010"><a xlink:title=" ">
<polygon fill="#e0e0e0" stroke="#999999" points="642.5,-19 575.5,-19 575.5,0 642.5,0 642.5,-19"/>
<text text-anchor="middle" x="609" y="-7" font-family="Helvetica,sans-Serif" font-size="10.00">fmt/core.h</text>
</a>
</g>
</g>
<!-- Node7&#45;&gt;Node10 -->
<g id="edge9_Node000007_Node000010" class="edge">
<title>Node7&#45;&gt;Node10</title>
<g id="a_edge9_Node000007_Node000010"><a xlink:title=" ">
<path fill="none" stroke="#63b8ff" d="M371.47,-54.98C424.79,-45 512.55,-28.56 565.16,-18.71"/>
<polygon fill="#63b8ff" stroke="#63b8ff" points="566,-22.11 575.19,-16.83 564.72,-15.23 566,-22.11"/>
</a>
</g>
</g>
<!-- Node11&#45;&gt;Node7 -->
<g id="edge11_Node000011_Node000007" class="edge">
<title>Node11&#45;&gt;Node7</title>
<g id="a_edge11_Node000011_Node000007"><a xlink:title=" ">
<path fill="none" stroke="#63b8ff" d="M460.3,-164.84C435.42,-146.44 377.01,-103.23 346.06,-80.34"/>
<polygon fill="#63b8ff" stroke="#63b8ff" points="347.88,-77.33 337.76,-74.2 343.71,-82.96 347.88,-77.33"/>
</a>
</g>
</g>
<!-- Node12 -->
<g id="Node000012" class="node">
<title>Node12</title>
<g id="a_Node000012"><a xlink:href="util_8h.html" target="_top" xlink:title=" ">
<polygon fill="white" stroke="#666666" points="514.5,-129 429.5,-129 429.5,-110 514.5,-110 514.5,-129"/>
<text text-anchor="middle" x="472" y="-117" font-family="Helvetica,sans-Serif" font-size="10.00">occ/core/util.h</text>
</a>
</g>
</g>
<!-- Node11&#45;&gt;Node12 -->
<g id="edge12_Node000011_Node000012" class="edge">
<title>Node11&#45;&gt;Node12</title>
<g id="a_edge12_Node000011_Node000012"><a xlink:title=" ">
<path fill="none" stroke="#63b8ff" d="M472,-164.75C472,-157.8 472,-147.85 472,-139.13"/>
<polygon fill="#63b8ff" stroke="#63b8ff" points="475.5,-139.09 472,-129.09 468.5,-139.09 475.5,-139.09"/>
</a>
</g>
</g>
<!-- Node19 -->
<g id="Node000019" class="node">
<title>Node19</title>
<g id="a_Node000019"><a xlink:href="qm_2opmatrix_8h.html" target="_top" xlink:title=" ">
<polygon fill="white" stroke="#666666" points="641,-129 533,-129 533,-110 641,-110 641,-129"/>
<text text-anchor="middle" x="587" y="-117" font-family="Helvetica,sans-Serif" font-size="10.00">occ/qm/opmatrix.h</text>
</a>
</g>
</g>
<!-- Node11&#45;&gt;Node19 -->
<g id="edge23_Node000011_Node000019" class="edge">
<title>Node11&#45;&gt;Node19</title>
<g id="a_edge23_Node000011_Node000019"><a xlink:title=" ">
<path fill="none" stroke="#63b8ff" d="M485.36,-164.98C502.13,-156.38 530.94,-142.99 553.7,-133.15"/>
<polygon fill="#63b8ff" stroke="#63b8ff" points="555.21,-136.31 563.04,-129.17 552.47,-129.87 555.21,-136.31"/>
</a>
</g>
</g>
<!-- Node12&#45;&gt;Node5 -->
<g id="edge21_Node000012_Node000005" class="edge">
<title>Node12&#45;&gt;Node5</title>
<g id="a_edge21_Node000012_Node000005"><a xlink:title=" ">
<path fill="none" stroke="#63b8ff" d="M429.46,-113.53C374.63,-106.79 276.2,-93.52 183.13,-74.03"/>
<polygon fill="#63b8ff" stroke="#63b8ff" points="183.78,-70.59 173.28,-71.94 182.33,-77.44 183.78,-70.59"/>
</a>
</g>
</g>
<!-- Node12&#45;&gt;Node6 -->
<g id="edge22_Node000012_Node000006" class="edge">
<title>Node12&#45;&gt;Node6</title>
<g id="a_edge22_Node000012_Node000006"><a xlink:title=" ">
<path fill="none" stroke="#63b8ff" d="M429.11,-110.87C385.84,-102.98 316.88,-89.89 248.76,-74.3"/>
<polygon fill="#63b8ff" stroke="#63b8ff" points="249.25,-70.82 238.72,-71.98 247.68,-77.64 249.25,-70.82"/>
</a>
</g>
</g>
<!-- Node12&#45;&gt;Node7 -->
<g id="edge20_Node000012_Node000007" class="edge">
<title>Node12&#45;&gt;Node7</title>
<g id="a_edge20_Node000012_Node000007"><a xlink:title=" ">
<path fill="none" stroke="#63b8ff" d="M448.54,-109.98C424.42,-101.23 386.63,-87.51 359.4,-77.62"/>
<polygon fill="#63b8ff" stroke="#63b8ff" points="360.48,-74.29 349.88,-74.17 358.09,-80.87 360.48,-74.29"/>
</a>
</g>
</g>
<!-- Node12&#45;&gt;Node10 -->
<g id="edge16_Node000012_Node000010" class="edge">
<title>Node12&#45;&gt;Node10</title>
<g id="a_edge16_Node000012_Node000010"><a xlink:title=" ">
<path fill="none" stroke="#63b8ff" d="M514.55,-111.46C517.75,-110.96 520.92,-110.47 524,-110 581.24,-101.33 744,-117.67 782,-74 820.4,-29.87 715.72,-16.39 652.74,-12.28"/>
<polygon fill="#63b8ff" stroke="#63b8ff" points="652.83,-8.78 642.64,-11.68 652.41,-15.77 652.83,-8.78"/>
</a>
</g>
</g>
<!-- Node13 -->
<g id="Node000013" class="node">
<title>Node13</title>
<g id="a_Node000013"><a xlink:title=" ">
<polygon fill="#e0e0e0" stroke="#999999" points="893,-74 829,-74 829,-55 893,-55 893,-74"/>
<text text-anchor="middle" x="861" y="-62" font-family="Helvetica,sans-Serif" font-size="10.00">algorithm</text>
</a>
</g>
</g>
<!-- Node12&#45;&gt;Node13 -->
<g id="edge13_Node000012_Node000013" class="edge">
<title>Node12&#45;&gt;Node13</title>
<g id="a_edge13_Node000012_Node000013"><a xlink:title=" ">
<path fill="none" stroke="#63b8ff" d="M514.55,-111.41C517.74,-110.92 520.92,-110.44 524,-110 653,-91.48 686.2,-93.85 815,-74 816.26,-73.81 817.55,-73.6 818.84,-73.39"/>
<polygon fill="#63b8ff" stroke="#63b8ff" points="819.6,-76.81 828.87,-71.69 818.43,-69.91 819.6,-76.81"/>
</a>
</g>
</g>
<!-- Node14 -->
<g id="Node000014" class="node">
<title>Node14</title>
<g id="a_Node000014"><a xlink:title=" ">
<polygon fill="#e0e0e0" stroke="#999999" points="462.5,-74 413.5,-74 413.5,-55 462.5,-55 462.5,-74"/>
<text text-anchor="middle" x="438" y="-62" font-family="Helvetica,sans-Serif" font-size="10.00">cctype</text>
</a>
</g>
</g>
<!-- Node12&#45;&gt;Node14 -->
<g id="edge14_Node000012_Node000014" class="edge">
<title>Node12&#45;&gt;Node14</title>
<g id="a_edge14_Node000012_Node000014"><a xlink:title=" ">
<path fill="none" stroke="#63b8ff" d="M466.39,-109.75C461.68,-102.42 454.83,-91.73 449.03,-82.7"/>
<polygon fill="#63b8ff" stroke="#63b8ff" points="451.86,-80.62 443.51,-74.09 445.96,-84.4 451.86,-80.62"/>
</a>
</g>
</g>
<!-- Node15 -->
<g id="Node000015" class="node">
<title>Node15</title>
<g id="a_Node000015"><a xlink:title=" ">
<polygon fill="#e0e0e0" stroke="#999999" points="531,-74 481,-74 481,-55 531,-55 531,-74"/>
<text text-anchor="middle" x="506" y="-62" font-family="Helvetica,sans-Serif" font-size="10.00">chrono</text>
</a>
</g>
</g>
<!-- Node12&#45;&gt;Node15 -->
<g id="edge15_Node000012_Node000015" class="edge">
<title>Node12&#45;&gt;Node15</title>
<g id="a_edge15_Node000012_Node000015"><a xlink:title=" ">
<path fill="none" stroke="#63b8ff" d="M477.61,-109.75C482.32,-102.42 489.17,-91.73 494.97,-82.7"/>
<polygon fill="#63b8ff" stroke="#63b8ff" points="498.04,-84.4 500.49,-74.09 492.14,-80.62 498.04,-84.4"/>
</a>
</g>
</g>
<!-- Node16 -->
<g id="Node000016" class="node">
<title>Node16</title>
<g id="a_Node000016"><a xlink:title=" ">
<polygon fill="#e0e0e0" stroke="#999999" points="635,-74 549,-74 549,-55 635,-55 635,-74"/>
<text text-anchor="middle" x="592" y="-62" font-family="Helvetica,sans-Serif" font-size="10.00">fmt/ostream.h</text>
</a>
</g>
</g>
<!-- Node12&#45;&gt;Node16 -->
<g id="edge17_Node000012_Node000016" class="edge">
<title>Node12&#45;&gt;Node16</title>
<g id="a_edge17_Node000012_Node000016"><a xlink:title=" ">
<path fill="none" stroke="#63b8ff" d="M491.28,-109.98C510.67,-101.42 540.81,-88.11 563.07,-78.28"/>
<polygon fill="#63b8ff" stroke="#63b8ff" points="564.64,-81.41 572.37,-74.17 561.81,-75.01 564.64,-81.41"/>
</a>
</g>
</g>
<!-- Node17 -->
<g id="Node000017" class="node">
<title>Node17</title>
<g id="a_Node000017"><a xlink:title=" ">
<polygon fill="#e0e0e0" stroke="#999999" points="699,-74 653,-74 653,-55 699,-55 699,-74"/>
<text text-anchor="middle" x="676" y="-62" font-family="Helvetica,sans-Serif" font-size="10.00">locale</text>
</a>
</g>
</g>
<!-- Node12&#45;&gt;Node17 -->
<g id="edge18_Node000012_Node000017" class="edge">
<title>Node12&#45;&gt;Node17</title>
<g id="a_edge18_Node000012_Node000017"><a xlink:title=" ">
<path fill="none" stroke="#63b8ff" d="M505.31,-109.95C538.01,-101.54 589.56,-88.25 643.24,-74.19"/>
<polygon fill="#63b8ff" stroke="#63b8ff" points="644.15,-77.57 652.93,-71.65 642.37,-70.8 644.15,-77.57"/>
</a>
</g>
</g>
<!-- Node18 -->
<g id="Node000018" class="node">
<title>Node18</title>
<g id="a_Node000018"><a xlink:title=" ">
<polygon fill="#e0e0e0" stroke="#999999" points="773,-74 717,-74 717,-55 773,-55 773,-74"/>
<text text-anchor="middle" x="745" y="-62" font-family="Helvetica,sans-Serif" font-size="10.00">numeric</text>
</a>
</g>
</g>
<!-- Node12&#45;&gt;Node18 -->
<g id="edge19_Node000012_Node000018" class="edge">
<title>Node12&#45;&gt;Node18</title>
<g id="a_edge19_Node000012_Node000018"><a xlink:title=" ">
<path fill="none" stroke="#63b8ff" d="M514.73,-110.97C560.05,-102.86 633.97,-89.31 706.92,-74.16"/>
<polygon fill="#63b8ff" stroke="#63b8ff" points="707.67,-77.58 716.74,-72.11 706.24,-70.73 707.67,-77.58"/>
</a>
</g>
</g>
<!-- Node19&#45;&gt;Node11 -->
<g id="edge24_Node000019_Node000011" class="edge">
<title>Node19&#45;&gt;Node11</title>
<g id="a_edge24_Node000019_Node000011"><a xlink:title=" ">
<path fill="none" stroke="#63b8ff" d="M573.34,-129.17C556.42,-137.83 527.58,-151.23 504.89,-161.03"/>
<polygon fill="#63b8ff" stroke="#63b8ff" points="503.42,-157.85 495.59,-164.98 506.16,-164.29 503.42,-157.85"/>
</a>
</g>
</g>
</g>
</svg>
