<?xml version="1.0" encoding="UTF-8" standalone="no"?>
<!DOCTYPE svg PUBLIC "-//W3C//DTD SVG 1.1//EN"
 "http://www.w3.org/Graphics/SVG/1.1/DTD/svg11.dtd">
<!-- Generated by graphviz version 2.43.0 (0)
 -->
<!-- Title: /home/runner/work/occ/occ/include/occ/qm/gradients.h Pages: 1 -->
<svg width="793pt" height="313pt"
 viewBox="0.00 0.00 792.50 313.00" xmlns="http://www.w3.org/2000/svg" xmlns:xlink="http://www.w3.org/1999/xlink">
<g id="graph0" class="graph" transform="scale(1 1) rotate(0) translate(4 309)">
<title>/home/runner/work/occ/occ/include/occ/qm/gradients.h</title>
<!-- Node1 -->
<g id="Node000001" class="node">
<title>Node1</title>
<g id="a_Node000001"><a xlink:title=" ">
<polygon fill="#999999" stroke="#666666" points="372,-305 202,-305 202,-275 372,-275 372,-305"/>
<text text-anchor="start" x="210" y="-293" font-family="Helvetica,sans-Serif" font-size="10.00">/home/runner/work/occ</text>
<text text-anchor="middle" x="287" y="-282" font-family="Helvetica,sans-Serif" font-size="10.00">/occ/include/occ/qm/gradients.h</text>
</a>
</g>
</g>
<!-- Node2 -->
<g id="Node000002" class="node">
<title>Node2</title>
<g id="a_Node000002"><a xlink:href="log_8h.html" target="_top" xlink:title=" ">
<polygon fill="white" stroke="#666666" points="170,-239 86,-239 86,-220 170,-220 170,-239"/>
<text text-anchor="middle" x="128" y="-227" font-family="Helvetica,sans-Serif" font-size="10.00">occ/core/log.h</text>
</a>
</g>
</g>
<!-- Node1&#45;&gt;Node2 -->
<g id="edge1_Node000001_Node000002" class="edge">
<title>Node1&#45;&gt;Node2</title>
<g id="a_edge1_Node000001_Node000002"><a xlink:title=" ">
<path fill="none" stroke="#63b8ff" d="M248.92,-274.99C222.15,-265.14 186.7,-252.1 161.11,-242.68"/>
<polygon fill="#63b8ff" stroke="#63b8ff" points="162.07,-239.31 151.48,-239.14 159.66,-245.88 162.07,-239.31"/>
</a>
</g>
</g>
<!-- Node5 -->
<g id="Node000005" class="node">
<title>Node5</title>
<g id="a_Node000005"><a xlink:href="expectation_8h.html" target="_top" xlink:title=" ">
<polygon fill="white" stroke="#666666" points="348,-239 226,-239 226,-220 348,-220 348,-239"/>
<text text-anchor="middle" x="287" y="-227" font-family="Helvetica,sans-Serif" font-size="10.00">occ/qm/expectation.h</text>
</a>
</g>
</g>
<!-- Node1&#45;&gt;Node5 -->
<g id="edge4_Node000001_Node000005" class="edge">
<title>Node1&#45;&gt;Node5</title>
<g id="a_edge4_Node000001_Node000005"><a xlink:title=" ">
<path fill="none" stroke="#63b8ff" d="M287,-274.84C287,-267.21 287,-257.7 287,-249.45"/>
<polygon fill="#63b8ff" stroke="#63b8ff" points="290.5,-249.27 287,-239.27 283.5,-249.27 290.5,-249.27"/>
</a>
</g>
</g>
<!-- Node20 -->
<g id="Node000020" class="node">
<title>Node20</title>
<g id="a_Node000020"><a xlink:href="mo_8h.html" target="_top" xlink:title=" ">
<polygon fill="white" stroke="#666666" points="446,-239 366,-239 366,-220 446,-220 446,-239"/>
<text text-anchor="middle" x="406" y="-227" font-family="Helvetica,sans-Serif" font-size="10.00">occ/qm/mo.h</text>
</a>
</g>
</g>
<!-- Node1&#45;&gt;Node20 -->
<g id="edge23_Node000001_Node000020" class="edge">
<title>Node1&#45;&gt;Node20</title>
<g id="a_edge23_Node000001_Node000020"><a xlink:title=" ">
<path fill="none" stroke="#63b8ff" d="M315.5,-274.99C334.91,-265.45 360.43,-252.9 379.42,-243.57"/>
<polygon fill="#63b8ff" stroke="#63b8ff" points="381,-246.69 388.43,-239.14 377.91,-240.41 381,-246.69"/>
</a>
</g>
</g>
<!-- Node3 -->
<g id="Node000003" class="node">
<title>Node3</title>
<g id="a_Node000003"><a xlink:title=" ">
<polygon fill="#e0e0e0" stroke="#999999" points="99.5,-184 6.5,-184 6.5,-165 99.5,-165 99.5,-184"/>
<text text-anchor="middle" x="53" y="-172" font-family="Helvetica,sans-Serif" font-size="10.00">spdlog/spdlog.h</text>
</a>
</g>
</g>
<!-- Node2&#45;&gt;Node3 -->
<g id="edge2_Node000002_Node000003" class="edge">
<title>Node2&#45;&gt;Node3</title>
<g id="a_edge2_Node000002_Node000003"><a xlink:title=" ">
<path fill="none" stroke="#63b8ff" d="M115.95,-219.98C104.54,-211.92 87.17,-199.65 73.57,-190.03"/>
<polygon fill="#63b8ff" stroke="#63b8ff" points="75.46,-187.08 65.27,-184.17 71.42,-192.8 75.46,-187.08"/>
</a>
</g>
</g>
<!-- Node4 -->
<g id="Node000004" class="node">
<title>Node4</title>
<g id="a_Node000004"><a xlink:title=" ">
<polygon fill="#e0e0e0" stroke="#999999" points="44,-74 0,-74 0,-55 44,-55 44,-74"/>
<text text-anchor="middle" x="22" y="-62" font-family="Helvetica,sans-Serif" font-size="10.00">string</text>
</a>
</g>
</g>
<!-- Node2&#45;&gt;Node4 -->
<g id="edge3_Node000002_Node000004" class="edge">
<title>Node2&#45;&gt;Node4</title>
<g id="a_edge3_Node000002_Node000004"><a xlink:title=" ">
<path fill="none" stroke="#63b8ff" d="M126.44,-219.84C123.91,-207.18 118.14,-183.17 108,-165 89.41,-131.68 58.44,-99.46 39.18,-81.1"/>
<polygon fill="#63b8ff" stroke="#63b8ff" points="41.4,-78.39 31.71,-74.12 36.62,-83.51 41.4,-78.39"/>
</a>
</g>
</g>
<!-- Node6 -->
<g id="Node000006" class="node">
<title>Node6</title>
<g id="a_Node000006"><a xlink:href="spinorbital_8h.html" target="_top" xlink:title=" ">
<polygon fill="white" stroke="#666666" points="381,-184 265,-184 265,-165 381,-165 381,-184"/>
<text text-anchor="middle" x="323" y="-172" font-family="Helvetica,sans-Serif" font-size="10.00">occ/qm/spinorbital.h</text>
</a>
</g>
</g>
<!-- Node5&#45;&gt;Node6 -->
<g id="edge5_Node000005_Node000006" class="edge">
<title>Node5&#45;&gt;Node6</title>
<g id="a_edge5_Node000005_Node000006"><a xlink:title=" ">
<path fill="none" stroke="#63b8ff" d="M292.94,-219.75C297.98,-212.34 305.34,-201.5 311.51,-192.41"/>
<polygon fill="#63b8ff" stroke="#63b8ff" points="314.44,-194.33 317.17,-184.09 308.65,-190.39 314.44,-194.33"/>
</a>
</g>
</g>
<!-- Node7 -->
<g id="Node000007" class="node">
<title>Node7</title>
<g id="a_Node000007"><a xlink:href="linear__algebra_8h.html" target="_top" xlink:title=" ">
<polygon fill="white" stroke="#666666" points="764.5,-74 625.5,-74 625.5,-55 764.5,-55 764.5,-74"/>
<text text-anchor="middle" x="695" y="-62" font-family="Helvetica,sans-Serif" font-size="10.00">occ/core/linear_algebra.h</text>
</a>
</g>
</g>
<!-- Node6&#45;&gt;Node7 -->
<g id="edge6_Node000006_Node000007" class="edge">
<title>Node6&#45;&gt;Node7</title>
<g id="a_edge6_Node000006_Node000007"><a xlink:title=" ">
<path fill="none" stroke="#63b8ff" d="M352.5,-164.94C418.97,-145.64 580.49,-98.74 655.5,-76.97"/>
<polygon fill="#63b8ff" stroke="#63b8ff" points="656.87,-80.22 665.5,-74.07 654.92,-73.49 656.87,-80.22"/>
</a>
</g>
</g>
<!-- Node11 -->
<g id="Node000011" class="node">
<title>Node11</title>
<g id="a_Node000011"><a xlink:href="util_8h.html" target="_top" xlink:title=" ">
<polygon fill="white" stroke="#666666" points="403.5,-129 318.5,-129 318.5,-110 403.5,-110 403.5,-129"/>
<text text-anchor="middle" x="361" y="-117" font-family="Helvetica,sans-Serif" font-size="10.00">occ/core/util.h</text>
</a>
</g>
</g>
<!-- Node6&#45;&gt;Node11 -->
<g id="edge10_Node000006_Node000011" class="edge">
<title>Node6&#45;&gt;Node11</title>
<g id="a_edge10_Node000006_Node000011"><a xlink:title=" ">
<path fill="none" stroke="#63b8ff" d="M329.27,-164.75C334.59,-157.34 342.36,-146.5 348.88,-137.41"/>
<polygon fill="#63b8ff" stroke="#63b8ff" points="351.86,-139.26 354.84,-129.09 346.17,-135.18 351.86,-139.26"/>
</a>
</g>
</g>
<!-- Node19 -->
<g id="Node000019" class="node">
<title>Node19</title>
<g id="a_Node000019"><a xlink:href="qm_2opmatrix_8h.html" target="_top" xlink:title=" ">
<polygon fill="white" stroke="#666666" points="300,-129 192,-129 192,-110 300,-110 300,-129"/>
<text text-anchor="middle" x="246" y="-117" font-family="Helvetica,sans-Serif" font-size="10.00">occ/qm/opmatrix.h</text>
</a>
</g>
</g>
<!-- Node6&#45;&gt;Node19 -->
<g id="edge21_Node000006_Node000019" class="edge">
<title>Node6&#45;&gt;Node19</title>
<g id="a_edge21_Node000006_Node000019"><a xlink:title=" ">
<path fill="none" stroke="#63b8ff" d="M305.51,-164.98C292.15,-157 274.2,-144.88 261.39,-135.31"/>
<polygon fill="#63b8ff" stroke="#63b8ff" points="263.5,-132.52 253.45,-129.17 259.22,-138.06 263.5,-132.52"/>
</a>
</g>
</g>
<!-- Node8 -->
<g id="Node000008" class="node">
<title>Node8</title>
<g id="a_Node000008"><a xlink:title=" ">
<polygon fill="#e0e0e0" stroke="#999999" points="784.5,-19 707.5,-19 707.5,0 784.5,0 784.5,-19"/>
<text text-anchor="middle" x="746" y="-7" font-family="Helvetica,sans-Serif" font-size="10.00">Eigen/Dense</text>
</a>
</g>
</g>
<!-- Node7&#45;&gt;Node8 -->
<g id="edge7_Node000007_Node000008" class="edge">
<title>Node7&#45;&gt;Node8</title>
<g id="a_edge7_Node000007_Node000008"><a xlink:title=" ">
<path fill="none" stroke="#63b8ff" d="M703.42,-54.75C710.77,-47.11 721.63,-35.82 730.54,-26.56"/>
<polygon fill="#63b8ff" stroke="#63b8ff" points="733.32,-28.72 737.74,-19.09 728.28,-23.87 733.32,-28.72"/>
</a>
</g>
</g>
<!-- Node9 -->
<g id="Node000009" class="node">
<title>Node9</title>
<g id="a_Node000009"><a xlink:title=" ">
<polygon fill="#e0e0e0" stroke="#999999" points="689.5,-19 596.5,-19 596.5,0 689.5,0 689.5,-19"/>
<text text-anchor="middle" x="643" y="-7" font-family="Helvetica,sans-Serif" font-size="10.00">Eigen/StdVector</text>
</a>
</g>
</g>
<!-- Node7&#45;&gt;Node9 -->
<g id="edge8_Node000007_Node000009" class="edge">
<title>Node7&#45;&gt;Node9</title>
<g id="a_edge8_Node000007_Node000009"><a xlink:title=" ">
<path fill="none" stroke="#63b8ff" d="M686.41,-54.75C678.84,-47.03 667.62,-35.6 658.49,-26.28"/>
<polygon fill="#63b8ff" stroke="#63b8ff" points="660.93,-23.78 651.43,-19.09 655.93,-28.68 660.93,-23.78"/>
</a>
</g>
</g>
<!-- Node10 -->
<g id="Node000010" class="node">
<title>Node10</title>
<g id="a_Node000010"><a xlink:title=" ">
<polygon fill="#e0e0e0" stroke="#999999" points="367.5,-19 300.5,-19 300.5,0 367.5,0 367.5,-19"/>
<text text-anchor="middle" x="334" y="-7" font-family="Helvetica,sans-Serif" font-size="10.00">fmt/core.h</text>
</a>
</g>
</g>
<!-- Node7&#45;&gt;Node10 -->
<g id="edge9_Node000007_Node000010" class="edge">
<title>Node7&#45;&gt;Node10</title>
<g id="a_edge9_Node000007_Node000010"><a xlink:title=" ">
<path fill="none" stroke="#63b8ff" d="M637,-54.98C564.73,-44.37 442.85,-26.48 377.88,-16.94"/>
<polygon fill="#63b8ff" stroke="#63b8ff" points="378.36,-13.48 367.96,-15.49 377.34,-20.4 378.36,-13.48"/>
</a>
</g>
</g>
<!-- Node11&#45;&gt;Node4 -->
<g id="edge19_Node000011_Node000004" class="edge">
<title>Node11&#45;&gt;Node4</title>
<g id="a_edge19_Node000011_Node000004"><a xlink:title=" ">
<path fill="none" stroke="#63b8ff" d="M318.44,-111.47C315.25,-110.97 312.07,-110.47 309,-110 197.61,-92.91 168.73,-94.97 58,-74 56.72,-73.76 55.42,-73.5 54.11,-73.23"/>
<polygon fill="#63b8ff" stroke="#63b8ff" points="54.53,-69.74 44.02,-71.03 53.04,-76.58 54.53,-69.74"/>
</a>
</g>
</g>
<!-- Node11&#45;&gt;Node7 -->
<g id="edge18_Node000011_Node000007" class="edge">
<title>Node11&#45;&gt;Node7</title>
<g id="a_edge18_Node000011_Node000007"><a xlink:title=" ">
<path fill="none" stroke="#63b8ff" d="M403.64,-111.73C461.27,-102.59 564.47,-86.21 631.31,-75.61"/>
<polygon fill="#63b8ff" stroke="#63b8ff" points="631.98,-79.04 641.31,-74.02 630.88,-72.13 631.98,-79.04"/>
</a>
</g>
</g>
<!-- Node11&#45;&gt;Node10 -->
<g id="edge14_Node000011_Node000010" class="edge">
<title>Node11&#45;&gt;Node10</title>
<g id="a_edge14_Node000011_Node000010"><a xlink:title=" ">
<path fill="none" stroke="#63b8ff" d="M318.26,-111.5C242.2,-99.04 91.23,-74.27 91,-74 85.54,-67.56 85.59,-61.49 91,-55 115.84,-25.2 226.95,-15.29 289.97,-12.05"/>
<polygon fill="#63b8ff" stroke="#63b8ff" points="290.21,-15.54 300.03,-11.56 289.87,-8.55 290.21,-15.54"/>
</a>
</g>
</g>
<!-- Node12 -->
<g id="Node000012" class="node">
<title>Node12</title>
<g id="a_Node000012"><a xlink:title=" ">
<polygon fill="#e0e0e0" stroke="#999999" points="164,-74 100,-74 100,-55 164,-55 164,-74"/>
<text text-anchor="middle" x="132" y="-62" font-family="Helvetica,sans-Serif" font-size="10.00">algorithm</text>
</a>
</g>
</g>
<!-- Node11&#45;&gt;Node12 -->
<g id="edge11_Node000011_Node000012" class="edge">
<title>Node11&#45;&gt;Node12</title>
<g id="a_edge11_Node000011_Node000012"><a xlink:title=" ">
<path fill="none" stroke="#63b8ff" d="M324.21,-109.98C283.24,-100.5 217.15,-85.21 174.13,-75.25"/>
<polygon fill="#63b8ff" stroke="#63b8ff" points="174.79,-71.81 164.26,-72.97 173.21,-78.63 174.79,-71.81"/>
</a>
</g>
</g>
<!-- Node13 -->
<g id="Node000013" class="node">
<title>Node13</title>
<g id="a_Node000013"><a xlink:title=" ">
<polygon fill="#e0e0e0" stroke="#999999" points="231.5,-74 182.5,-74 182.5,-55 231.5,-55 231.5,-74"/>
<text text-anchor="middle" x="207" y="-62" font-family="Helvetica,sans-Serif" font-size="10.00">cctype</text>
</a>
</g>
</g>
<!-- Node11&#45;&gt;Node13 -->
<g id="edge12_Node000011_Node000013" class="edge">
<title>Node11&#45;&gt;Node13</title>
<g id="a_edge12_Node000011_Node000013"><a xlink:title=" ">
<path fill="none" stroke="#63b8ff" d="M336.26,-109.98C310.55,-101.14 270.13,-87.23 241.34,-77.32"/>
<polygon fill="#63b8ff" stroke="#63b8ff" points="242.28,-73.94 231.68,-73.99 240,-80.56 242.28,-73.94"/>
</a>
</g>
</g>
<!-- Node14 -->
<g id="Node000014" class="node">
<title>Node14</title>
<g id="a_Node000014"><a xlink:title=" ">
<polygon fill="#e0e0e0" stroke="#999999" points="300,-74 250,-74 250,-55 300,-55 300,-74"/>
<text text-anchor="middle" x="275" y="-62" font-family="Helvetica,sans-Serif" font-size="10.00">chrono</text>
</a>
</g>
</g>
<!-- Node11&#45;&gt;Node14 -->
<g id="edge13_Node000011_Node000014" class="edge">
<title>Node11&#45;&gt;Node14</title>
<g id="a_edge13_Node000011_Node000014"><a xlink:title=" ">
<path fill="none" stroke="#63b8ff" d="M347.18,-109.98C333.85,-101.77 313.42,-89.18 297.69,-79.49"/>
<polygon fill="#63b8ff" stroke="#63b8ff" points="299.42,-76.44 289.07,-74.17 295.75,-82.4 299.42,-76.44"/>
</a>
</g>
</g>
<!-- Node15 -->
<g id="Node000015" class="node">
<title>Node15</title>
<g id="a_Node000015"><a xlink:title=" ">
<polygon fill="#e0e0e0" stroke="#999999" points="404,-74 318,-74 318,-55 404,-55 404,-74"/>
<text text-anchor="middle" x="361" y="-62" font-family="Helvetica,sans-Serif" font-size="10.00">fmt/ostream.h</text>
</a>
</g>
</g>
<!-- Node11&#45;&gt;Node15 -->
<g id="edge15_Node000011_Node000015" class="edge">
<title>Node11&#45;&gt;Node15</title>
<g id="a_edge15_Node000011_Node000015"><a xlink:title=" ">
<path fill="none" stroke="#63b8ff" d="M361,-109.75C361,-102.8 361,-92.85 361,-84.13"/>
<polygon fill="#63b8ff" stroke="#63b8ff" points="364.5,-84.09 361,-74.09 357.5,-84.09 364.5,-84.09"/>
</a>
</g>
</g>
<!-- Node16 -->
<g id="Node000016" class="node">
<title>Node16</title>
<g id="a_Node000016"><a xlink:title=" ">
<polygon fill="#e0e0e0" stroke="#999999" points="468,-74 422,-74 422,-55 468,-55 468,-74"/>
<text text-anchor="middle" x="445" y="-62" font-family="Helvetica,sans-Serif" font-size="10.00">locale</text>
</a>
</g>
</g>
<!-- Node11&#45;&gt;Node16 -->
<g id="edge16_Node000011_Node000016" class="edge">
<title>Node11&#45;&gt;Node16</title>
<g id="a_edge16_Node000011_Node000016"><a xlink:title=" ">
<path fill="none" stroke="#63b8ff" d="M374.5,-109.98C387.4,-101.84 407.1,-89.41 422.4,-79.76"/>
<polygon fill="#63b8ff" stroke="#63b8ff" points="424.67,-82.47 431.26,-74.17 420.93,-76.55 424.67,-82.47"/>
</a>
</g>
</g>
<!-- Node17 -->
<g id="Node000017" class="node">
<title>Node17</title>
<g id="a_Node000017"><a xlink:title=" ">
<polygon fill="#e0e0e0" stroke="#999999" points="542,-74 486,-74 486,-55 542,-55 542,-74"/>
<text text-anchor="middle" x="514" y="-62" font-family="Helvetica,sans-Serif" font-size="10.00">numeric</text>
</a>
</g>
</g>
<!-- Node11&#45;&gt;Node17 -->
<g id="edge17_Node000011_Node000017" class="edge">
<title>Node11&#45;&gt;Node17</title>
<g id="a_edge17_Node000011_Node000017"><a xlink:title=" ">
<path fill="none" stroke="#63b8ff" d="M385.58,-109.98C411.05,-101.16 451.04,-87.31 479.63,-77.41"/>
<polygon fill="#63b8ff" stroke="#63b8ff" points="480.92,-80.66 489.23,-74.08 478.63,-74.05 480.92,-80.66"/>
</a>
</g>
</g>
<!-- Node18 -->
<g id="Node000018" class="node">
<title>Node18</title>
<g id="a_Node000018"><a xlink:title=" ">
<polygon fill="#e0e0e0" stroke="#999999" points="607.5,-74 560.5,-74 560.5,-55 607.5,-55 607.5,-74"/>
<text text-anchor="middle" x="584" y="-62" font-family="Helvetica,sans-Serif" font-size="10.00">vector</text>
</a>
</g>
</g>
<!-- Node11&#45;&gt;Node18 -->
<g id="edge20_Node000011_Node000018" class="edge">
<title>Node11&#45;&gt;Node18</title>
<g id="a_edge20_Node000011_Node000018"><a xlink:title=" ">
<path fill="none" stroke="#63b8ff" d="M398.55,-109.96C434.9,-101.64 491.8,-88.46 550.42,-74.1"/>
<polygon fill="#63b8ff" stroke="#63b8ff" points="551.35,-77.48 560.22,-71.69 549.68,-70.68 551.35,-77.48"/>
</a>
</g>
</g>
<!-- Node19&#45;&gt;Node6 -->
<g id="edge22_Node000019_Node000006" class="edge">
<title>Node19&#45;&gt;Node6</title>
<g id="a_edge22_Node000019_Node000006"><a xlink:title=" ">
<path fill="none" stroke="#63b8ff" d="M263.75,-129.17C277.04,-137.13 294.76,-149.11 307.49,-158.6"/>
<polygon fill="#63b8ff" stroke="#63b8ff" points="305.69,-161.63 315.74,-164.98 309.98,-156.1 305.69,-161.63"/>
</a>
</g>
</g>
<!-- Node20&#45;&gt;Node6 -->
<g id="edge26_Node000020_Node000006" class="edge">
<title>Node20&#45;&gt;Node6</title>
<g id="a_edge26_Node000020_Node000006"><a xlink:title=" ">
<path fill="none" stroke="#63b8ff" d="M392.66,-219.98C379.91,-211.84 360.45,-199.41 345.33,-189.76"/>
<polygon fill="#63b8ff" stroke="#63b8ff" points="346.89,-186.6 336.58,-184.17 343.12,-192.5 346.89,-186.6"/>
</a>
</g>
</g>
<!-- Node21 -->
<g id="Node000021" class="node">
<title>Node21</title>
<g id="a_Node000021"><a xlink:href="orbital__smearing_8h.html" target="_top" xlink:title=" ">
<polygon fill="white" stroke="#666666" points="727,-129 581,-129 581,-110 727,-110 727,-129"/>
<text text-anchor="middle" x="654" y="-117" font-family="Helvetica,sans-Serif" font-size="10.00">occ/qm/orbital_smearing.h</text>
</a>
</g>
</g>
<!-- Node20&#45;&gt;Node21 -->
<g id="edge24_Node000020_Node000021" class="edge">
<title>Node20&#45;&gt;Node21</title>
<g id="a_edge24_Node000020_Node000021"><a xlink:title=" ">
<path fill="none" stroke="#63b8ff" d="M425.88,-219.84C469.52,-200.84 573.89,-155.39 624.91,-133.17"/>
<polygon fill="#63b8ff" stroke="#63b8ff" points="626.6,-136.25 634.37,-129.05 623.81,-129.83 626.6,-136.25"/>
</a>
</g>
</g>
<!-- Node21&#45;&gt;Node7 -->
<g id="edge25_Node000021_Node000007" class="edge">
<title>Node21&#45;&gt;Node7</title>
<g id="a_edge25_Node000021_Node000007"><a xlink:title=" ">
<path fill="none" stroke="#63b8ff" d="M660.77,-109.75C666.56,-102.26 675.06,-91.28 682.14,-82.13"/>
<polygon fill="#63b8ff" stroke="#63b8ff" points="685.01,-84.14 688.36,-74.09 679.47,-79.86 685.01,-84.14"/>
</a>
</g>
</g>
</g>
</svg>
