<?xml version="1.0" encoding="UTF-8" standalone="no"?>
<!DOCTYPE svg PUBLIC "-//W3C//DTD SVG 1.1//EN"
 "http://www.w3.org/Graphics/SVG/1.1/DTD/svg11.dtd">
<!-- Generated by graphviz version 2.43.0 (0)
 -->
<!-- Title: /home/runner/work/occ/occ/include/occ/io/grid_settings.h Pages: 1 -->
<svg width="1564pt" height="588pt"
 viewBox="0.00 0.00 1564.00 588.00" xmlns="http://www.w3.org/2000/svg" xmlns:xlink="http://www.w3.org/1999/xlink">
<g id="graph0" class="graph" transform="scale(1 1) rotate(0) translate(4 584)">
<title>/home/runner/work/occ/occ/include/occ/io/grid_settings.h</title>
<!-- Node1 -->
<g id="Node000001" class="node">
<title>Node1</title>
<g id="a_Node000001"><a xlink:title=" ">
<polygon fill="#999999" stroke="#666666" points="707,-580 579,-580 579,-539 707,-539 707,-580"/>
<text text-anchor="start" x="587" y="-568" font-family="Helvetica,sans-Serif" font-size="10.00">/home/runner/work/occ</text>
<text text-anchor="start" x="587" y="-557" font-family="Helvetica,sans-Serif" font-size="10.00">/occ/include/occ/io/grid</text>
<text text-anchor="middle" x="643" y="-546" font-family="Helvetica,sans-Serif" font-size="10.00">_settings.h</text>
</a>
</g>
</g>
<!-- Node2 -->
<g id="Node000002" class="node">
<title>Node2</title>
<g id="a_Node000002"><a xlink:href="grid_8h.html" target="_top" xlink:title=" ">
<polygon fill="white" stroke="#666666" points="570,-503 442,-503 442,-462 570,-462 570,-503"/>
<text text-anchor="start" x="450" y="-491" font-family="Helvetica,sans-Serif" font-size="10.00">/home/runner/work/occ</text>
<text text-anchor="start" x="450" y="-480" font-family="Helvetica,sans-Serif" font-size="10.00">/occ/include/occ/dft</text>
<text text-anchor="middle" x="506" y="-469" font-family="Helvetica,sans-Serif" font-size="10.00">/grid.h</text>
</a>
</g>
</g>
<!-- Node1&#45;&gt;Node2 -->
<g id="edge1_Node000001_Node000002" class="edge">
<title>Node1&#45;&gt;Node2</title>
<g id="a_edge1_Node000001_Node000002"><a xlink:title=" ">
<path fill="none" stroke="#63b8ff" d="M598.35,-534.06C580.07,-524.05 559.2,-512.63 541.93,-503.17"/>
<polygon fill="#63b8ff" stroke="#63b8ff" points="596.91,-537.26 607.36,-538.99 600.27,-531.12 596.91,-537.26"/>
</a>
</g>
</g>
<!-- Node11 -->
<g id="Node000011" class="node">
<title>Node11</title>
<g id="a_Node000011"><a xlink:href="occ__input_8h.html" target="_top" xlink:title=" ">
<polygon fill="white" stroke="#666666" points="924,-349 796,-349 796,-308 924,-308 924,-349"/>
<text text-anchor="start" x="804" y="-337" font-family="Helvetica,sans-Serif" font-size="10.00">/home/runner/work/occ</text>
<text text-anchor="start" x="804" y="-326" font-family="Helvetica,sans-Serif" font-size="10.00">/occ/include/occ/io/occ</text>
<text text-anchor="middle" x="860" y="-315" font-family="Helvetica,sans-Serif" font-size="10.00">_input.h</text>
</a>
</g>
</g>
<!-- Node1&#45;&gt;Node11 -->
<g id="edge11_Node000001_Node000011" class="edge">
<title>Node1&#45;&gt;Node11</title>
<g id="a_edge11_Node000001_Node000011"><a xlink:title=" ">
<path fill="none" stroke="#63b8ff" d="M701.46,-534.57C746.72,-512.95 807.21,-476.72 841,-426 856.43,-402.84 859.92,-370.05 860.41,-349.28"/>
<polygon fill="#63b8ff" stroke="#63b8ff" points="699.92,-531.42 692.34,-538.83 702.88,-537.77 699.92,-531.42"/>
</a>
</g>
</g>
<!-- Node3 -->
<g id="Node000003" class="node">
<title>Node3</title>
<g id="a_Node000003"><a xlink:href="dft_8h.html" target="_top" xlink:title=" ">
<polygon fill="white" stroke="#666666" points="272,-343.5 138,-343.5 138,-313.5 272,-313.5 272,-343.5"/>
<text text-anchor="start" x="146" y="-331.5" font-family="Helvetica,sans-Serif" font-size="10.00">/home/runner/work/occ</text>
<text text-anchor="middle" x="205" y="-320.5" font-family="Helvetica,sans-Serif" font-size="10.00">/occ/include/occ/dft/dft.h</text>
</a>
</g>
</g>
<!-- Node2&#45;&gt;Node3 -->
<g id="edge2_Node000002_Node000003" class="edge">
<title>Node2&#45;&gt;Node3</title>
<g id="a_edge2_Node000002_Node000003"><a xlink:title=" ">
<path fill="none" stroke="#63b8ff" d="M431.36,-478.11C352.39,-472.79 235.33,-459.36 207,-426 187.37,-402.88 194.5,-364.21 200.36,-343.54"/>
<polygon fill="#63b8ff" stroke="#63b8ff" points="431.55,-481.63 441.75,-478.78 432,-474.65 431.55,-481.63"/>
</a>
</g>
</g>
<!-- Node7 -->
<g id="Node000007" class="node">
<title>Node7</title>
<g id="a_Node000007"><a xlink:href="dft_2hirshfeld_8h.html" target="_top" xlink:title=" ">
<polygon fill="white" stroke="#666666" points="344,-426 216,-426 216,-385 344,-385 344,-426"/>
<text text-anchor="start" x="224" y="-414" font-family="Helvetica,sans-Serif" font-size="10.00">/home/runner/work/occ</text>
<text text-anchor="start" x="224" y="-403" font-family="Helvetica,sans-Serif" font-size="10.00">/occ/include/occ/dft</text>
<text text-anchor="middle" x="280" y="-392" font-family="Helvetica,sans-Serif" font-size="10.00">/hirshfeld.h</text>
</a>
</g>
</g>
<!-- Node2&#45;&gt;Node7 -->
<g id="edge6_Node000002_Node000007" class="edge">
<title>Node2&#45;&gt;Node7</title>
<g id="a_edge6_Node000002_Node000007"><a xlink:title=" ">
<path fill="none" stroke="#63b8ff" d="M437.63,-458.81C406.13,-448.36 369.13,-436.08 338.89,-426.04"/>
<polygon fill="#63b8ff" stroke="#63b8ff" points="436.62,-462.16 447.21,-461.99 438.82,-455.52 436.62,-462.16"/>
</a>
</g>
</g>
<!-- Node8 -->
<g id="Node000008" class="node">
<title>Node8</title>
<g id="a_Node000008"><a xlink:href="nonlocal__correlation_8h.html" target="_top" xlink:title=" ">
<polygon fill="white" stroke="#666666" points="490,-426 362,-426 362,-385 490,-385 490,-426"/>
<text text-anchor="start" x="370" y="-414" font-family="Helvetica,sans-Serif" font-size="10.00">/home/runner/work/occ</text>
<text text-anchor="start" x="370" y="-403" font-family="Helvetica,sans-Serif" font-size="10.00">/occ/include/occ/dft</text>
<text text-anchor="middle" x="426" y="-392" font-family="Helvetica,sans-Serif" font-size="10.00">/nonlocal_correlation.h</text>
</a>
</g>
</g>
<!-- Node2&#45;&gt;Node8 -->
<g id="edge7_Node000002_Node000008" class="edge">
<title>Node2&#45;&gt;Node8</title>
<g id="a_edge7_Node000002_Node000008"><a xlink:title=" ">
<path fill="none" stroke="#63b8ff" d="M477.51,-454.79C467.41,-445.32 456.23,-434.84 446.88,-426.07"/>
<polygon fill="#63b8ff" stroke="#63b8ff" points="475.29,-457.51 484.98,-461.79 480.08,-452.4 475.29,-457.51"/>
</a>
</g>
</g>
<!-- Node9 -->
<g id="Node000009" class="node">
<title>Node9</title>
<g id="a_Node000009"><a xlink:href="seminumerical__exchange_8h.html" target="_top" xlink:title=" ">
<polygon fill="white" stroke="#666666" points="662,-426 508,-426 508,-385 662,-385 662,-426"/>
<text text-anchor="start" x="516" y="-414" font-family="Helvetica,sans-Serif" font-size="10.00">/home/runner/work/occ</text>
<text text-anchor="start" x="516" y="-403" font-family="Helvetica,sans-Serif" font-size="10.00">/occ/include/occ/dft</text>
<text text-anchor="middle" x="585" y="-392" font-family="Helvetica,sans-Serif" font-size="10.00">/seminumerical_exchange.h</text>
</a>
</g>
</g>
<!-- Node2&#45;&gt;Node9 -->
<g id="edge9_Node000002_Node000009" class="edge">
<title>Node2&#45;&gt;Node9</title>
<g id="a_edge9_Node000002_Node000009"><a xlink:title=" ">
<path fill="none" stroke="#63b8ff" d="M534.13,-454.79C544.11,-445.32 555.15,-434.84 564.38,-426.07"/>
<polygon fill="#63b8ff" stroke="#63b8ff" points="531.6,-452.37 526.76,-461.79 536.42,-457.45 531.6,-452.37"/>
</a>
</g>
</g>
<!-- Node10 -->
<g id="Node000010" class="node">
<title>Node10</title>
<g id="a_Node000010"><a xlink:href="xdm_8h.html" target="_top" xlink:title=" ">
<polygon fill="white" stroke="#666666" points="832,-420.5 680,-420.5 680,-390.5 832,-390.5 832,-420.5"/>
<text text-anchor="start" x="688" y="-408.5" font-family="Helvetica,sans-Serif" font-size="10.00">/home/runner/work/occ</text>
<text text-anchor="middle" x="756" y="-397.5" font-family="Helvetica,sans-Serif" font-size="10.00">/occ/include/occ/xdm/xdm.h</text>
</a>
</g>
</g>
<!-- Node2&#45;&gt;Node10 -->
<g id="edge10_Node000002_Node000010" class="edge">
<title>Node2&#45;&gt;Node10</title>
<g id="a_edge10_Node000002_Node000010"><a xlink:title=" ">
<path fill="none" stroke="#63b8ff" d="M579.66,-459.4C621.52,-446.84 672.67,-431.5 709.08,-420.57"/>
<polygon fill="#63b8ff" stroke="#63b8ff" points="578.63,-456.06 570.06,-462.28 580.64,-462.76 578.63,-456.06"/>
</a>
</g>
</g>
<!-- Node4 -->
<g id="Node000004" class="node">
<title>Node4</title>
<g id="a_Node000004"><a xlink:href="smd__solvation_8h.html" target="_top" xlink:title=" ">
<polygon fill="white" stroke="#666666" points="132,-272 0,-272 0,-231 132,-231 132,-272"/>
<text text-anchor="start" x="8" y="-260" font-family="Helvetica,sans-Serif" font-size="10.00">/home/runner/work/occ</text>
<text text-anchor="start" x="8" y="-249" font-family="Helvetica,sans-Serif" font-size="10.00">/occ/include/occ/cg/smd</text>
<text text-anchor="middle" x="66" y="-238" font-family="Helvetica,sans-Serif" font-size="10.00">_solvation.h</text>
</a>
</g>
</g>
<!-- Node3&#45;&gt;Node4 -->
<g id="edge3_Node000003_Node000004" class="edge">
<title>Node3&#45;&gt;Node4</title>
<g id="a_edge3_Node000003_Node000004"><a xlink:title=" ">
<path fill="none" stroke="#63b8ff" d="M169.78,-308.5C149.13,-297.35 123.09,-283.3 102.26,-272.06"/>
<polygon fill="#63b8ff" stroke="#63b8ff" points="168.39,-311.72 178.86,-313.39 171.72,-305.56 168.39,-311.72"/>
</a>
</g>
</g>
<!-- Node6 -->
<g id="Node000006" class="node">
<title>Node6</title>
<g id="a_Node000006"><a xlink:href="point__functors_8h.html" target="_top" xlink:title=" ">
<polygon fill="white" stroke="#666666" points="278,-272 150,-272 150,-231 278,-231 278,-272"/>
<text text-anchor="start" x="158" y="-260" font-family="Helvetica,sans-Serif" font-size="10.00">/home/runner/work/occ</text>
<text text-anchor="start" x="158" y="-249" font-family="Helvetica,sans-Serif" font-size="10.00">/occ/include/occ/main</text>
<text text-anchor="middle" x="214" y="-238" font-family="Helvetica,sans-Serif" font-size="10.00">/point_functors.h</text>
</a>
</g>
</g>
<!-- Node3&#45;&gt;Node6 -->
<g id="edge5_Node000003_Node000006" class="edge">
<title>Node3&#45;&gt;Node6</title>
<g id="a_edge5_Node000003_Node000006"><a xlink:title=" ">
<path fill="none" stroke="#63b8ff" d="M207.91,-303.23C209.12,-293.2 210.5,-281.71 211.64,-272.2"/>
<polygon fill="#63b8ff" stroke="#63b8ff" points="204.41,-303.05 206.69,-313.39 211.36,-303.88 204.41,-303.05"/>
</a>
</g>
</g>
<!-- Node5 -->
<g id="Node000005" class="node">
<title>Node5</title>
<g id="a_Node000005"><a xlink:href="crystal__growth_8h.html" target="_top" xlink:title=" ">
<polygon fill="white" stroke="#666666" points="400,-195 272,-195 272,-154 400,-154 400,-195"/>
<text text-anchor="start" x="280" y="-183" font-family="Helvetica,sans-Serif" font-size="10.00">/home/runner/work/occ</text>
<text text-anchor="start" x="280" y="-172" font-family="Helvetica,sans-Serif" font-size="10.00">/occ/include/occ/driver</text>
<text text-anchor="middle" x="336" y="-161" font-family="Helvetica,sans-Serif" font-size="10.00">/crystal_growth.h</text>
</a>
</g>
</g>
<!-- Node4&#45;&gt;Node5 -->
<g id="edge4_Node000004_Node000005" class="edge">
<title>Node4&#45;&gt;Node5</title>
<g id="a_edge4_Node000004_Node000005"><a xlink:title=" ">
<path fill="none" stroke="#63b8ff" d="M141.7,-229.47C182.59,-218.11 232.55,-204.24 271.56,-193.4"/>
<polygon fill="#63b8ff" stroke="#63b8ff" points="140.75,-226.1 132.05,-232.15 142.62,-232.85 140.75,-226.1"/>
</a>
</g>
</g>
<!-- Node8&#45;&gt;Node3 -->
<g id="edge8_Node000008_Node000003" class="edge">
<title>Node8&#45;&gt;Node3</title>
<g id="a_edge8_Node000008_Node000003"><a xlink:title=" ">
<path fill="none" stroke="#63b8ff" d="M358.89,-381.73C322.28,-369.3 278.11,-354.31 246.5,-343.58"/>
<polygon fill="#63b8ff" stroke="#63b8ff" points="357.92,-385.09 368.51,-384.99 360.17,-378.46 357.92,-385.09"/>
</a>
</g>
</g>
<!-- Node12 -->
<g id="Node000012" class="node">
<title>Node12</title>
<g id="a_Node000012"><a xlink:href="geometry__optimization_8h.html" target="_top" xlink:title=" ">
<polygon fill="white" stroke="#666666" points="439.5,-272 296.5,-272 296.5,-231 439.5,-231 439.5,-272"/>
<text text-anchor="start" x="304.5" y="-260" font-family="Helvetica,sans-Serif" font-size="10.00">/home/runner/work/occ</text>
<text text-anchor="start" x="304.5" y="-249" font-family="Helvetica,sans-Serif" font-size="10.00">/occ/include/occ/driver</text>
<text text-anchor="middle" x="368" y="-238" font-family="Helvetica,sans-Serif" font-size="10.00">/geometry_optimization.h</text>
</a>
</g>
</g>
<!-- Node11&#45;&gt;Node12 -->
<g id="edge12_Node000011_Node000012" class="edge">
<title>Node11&#45;&gt;Node12</title>
<g id="a_edge12_Node000011_Node000012"><a xlink:title=" ">
<path fill="none" stroke="#63b8ff" d="M785.92,-319.8C703.34,-310.68 566.02,-293.93 449,-272 446.01,-271.44 442.97,-270.84 439.91,-270.21"/>
<polygon fill="#63b8ff" stroke="#63b8ff" points="785.64,-323.29 795.96,-320.9 786.4,-316.33 785.64,-323.29"/>
</a>
</g>
</g>
<!-- Node13 -->
<g id="Node000013" class="node">
<title>Node13</title>
<g id="a_Node000013"><a xlink:href="single__point_8h.html" target="_top" xlink:title=" ">
<polygon fill="white" stroke="#666666" points="586,-272 458,-272 458,-231 586,-231 586,-272"/>
<text text-anchor="start" x="466" y="-260" font-family="Helvetica,sans-Serif" font-size="10.00">/home/runner/work/occ</text>
<text text-anchor="start" x="466" y="-249" font-family="Helvetica,sans-Serif" font-size="10.00">/occ/include/occ/driver</text>
<text text-anchor="middle" x="522" y="-238" font-family="Helvetica,sans-Serif" font-size="10.00">/single_point.h</text>
</a>
</g>
</g>
<!-- Node11&#45;&gt;Node13 -->
<g id="edge13_Node000011_Node000013" class="edge">
<title>Node11&#45;&gt;Node13</title>
<g id="a_edge13_Node000011_Node000013"><a xlink:title=" ">
<path fill="none" stroke="#63b8ff" d="M785.79,-312.94C732.76,-302.28 659.8,-287.1 596,-272 592.77,-271.23 589.46,-270.43 586.13,-269.61"/>
<polygon fill="#63b8ff" stroke="#63b8ff" points="785.29,-316.41 795.78,-314.94 786.67,-309.55 785.29,-316.41"/>
</a>
</g>
</g>
<!-- Node14 -->
<g id="Node000014" class="node">
<title>Node14</title>
<g id="a_Node000014"><a xlink:href="pair__energy_8h.html" target="_top" xlink:title=" ">
<polygon fill="white" stroke="#666666" points="753.5,-272 604.5,-272 604.5,-231 753.5,-231 753.5,-272"/>
<text text-anchor="start" x="612.5" y="-260" font-family="Helvetica,sans-Serif" font-size="10.00">/home/runner/work/occ</text>
<text text-anchor="start" x="612.5" y="-249" font-family="Helvetica,sans-Serif" font-size="10.00">/occ/include/occ/interaction</text>
<text text-anchor="middle" x="679" y="-238" font-family="Helvetica,sans-Serif" font-size="10.00">/pair_energy.h</text>
</a>
</g>
</g>
<!-- Node11&#45;&gt;Node14 -->
<g id="edge15_Node000011_Node000014" class="edge">
<title>Node11&#45;&gt;Node14</title>
<g id="a_edge15_Node000011_Node000014"><a xlink:title=" ">
<path fill="none" stroke="#63b8ff" d="M803.6,-304.13C778.74,-293.83 749.86,-281.86 726.16,-272.04"/>
<polygon fill="#63b8ff" stroke="#63b8ff" points="802.34,-307.4 812.92,-307.99 805.02,-300.93 802.34,-307.4"/>
</a>
</g>
</g>
<!-- Node24 -->
<g id="Node000024" class="node">
<title>Node24</title>
<g id="a_Node000024"><a xlink:href="cifparser_8h.html" target="_top" xlink:title=" ">
<polygon fill="white" stroke="#666666" points="932,-266.5 772,-266.5 772,-236.5 932,-236.5 932,-266.5"/>
<text text-anchor="start" x="780" y="-254.5" font-family="Helvetica,sans-Serif" font-size="10.00">/home/runner/work/occ</text>
<text text-anchor="middle" x="852" y="-243.5" font-family="Helvetica,sans-Serif" font-size="10.00">/occ/include/occ/io/cifparser.h</text>
</a>
</g>
</g>
<!-- Node11&#45;&gt;Node24 -->
<g id="edge30_Node000011_Node000024" class="edge">
<title>Node11&#45;&gt;Node24</title>
<g id="a_edge30_Node000011_Node000024"><a xlink:title=" ">
<path fill="none" stroke="#63b8ff" d="M856.81,-297.61C855.68,-287.01 854.46,-275.57 853.53,-266.86"/>
<polygon fill="#63b8ff" stroke="#63b8ff" points="853.36,-298.22 857.9,-307.79 860.32,-297.48 853.36,-298.22"/>
</a>
</g>
</g>
<!-- Node25 -->
<g id="Node000025" class="node">
<title>Node25</title>
<g id="a_Node000025"><a xlink:href="qcschema_8h.html" target="_top" xlink:title=" ">
<polygon fill="white" stroke="#666666" points="1117.5,-266.5 950.5,-266.5 950.5,-236.5 1117.5,-236.5 1117.5,-266.5"/>
<text text-anchor="start" x="958.5" y="-254.5" font-family="Helvetica,sans-Serif" font-size="10.00">/home/runner/work/occ</text>
<text text-anchor="middle" x="1034" y="-243.5" font-family="Helvetica,sans-Serif" font-size="10.00">/occ/include/occ/io/qcschema.h</text>
</a>
</g>
</g>
<!-- Node11&#45;&gt;Node25 -->
<g id="edge31_Node000011_Node000025" class="edge">
<title>Node11&#45;&gt;Node25</title>
<g id="a_edge31_Node000011_Node000025"><a xlink:title=" ">
<path fill="none" stroke="#63b8ff" d="M914.68,-303.93C943.14,-291.66 976.97,-277.08 1001.33,-266.58"/>
<polygon fill="#63b8ff" stroke="#63b8ff" points="913.06,-300.82 905.26,-307.99 915.83,-307.25 913.06,-300.82"/>
</a>
</g>
</g>
<!-- Node26 -->
<g id="Node000026" class="node">
<title>Node26</title>
<g id="a_Node000026"><a xlink:href="occ__pair_8h.html" target="_top" xlink:title=" ">
<polygon fill="white" stroke="#666666" points="1264,-272 1136,-272 1136,-231 1264,-231 1264,-272"/>
<text text-anchor="start" x="1144" y="-260" font-family="Helvetica,sans-Serif" font-size="10.00">/home/runner/work/occ</text>
<text text-anchor="start" x="1144" y="-249" font-family="Helvetica,sans-Serif" font-size="10.00">/occ/include/occ/main</text>
<text text-anchor="middle" x="1200" y="-238" font-family="Helvetica,sans-Serif" font-size="10.00">/occ_pair.h</text>
</a>
</g>
</g>
<!-- Node11&#45;&gt;Node26 -->
<g id="edge32_Node000011_Node000026" class="edge">
<title>Node11&#45;&gt;Node26</title>
<g id="a_edge32_Node000011_Node000026"><a xlink:title=" ">
<path fill="none" stroke="#63b8ff" d="M934.27,-313.22C987.98,-302.62 1062.19,-287.38 1127,-272 1129.94,-271.3 1132.93,-270.57 1135.96,-269.82"/>
<polygon fill="#63b8ff" stroke="#63b8ff" points="933.29,-309.85 924.15,-315.21 934.64,-316.72 933.29,-309.85"/>
</a>
</g>
</g>
<!-- Node27 -->
<g id="Node000027" class="node">
<title>Node27</title>
<g id="a_Node000027"><a xlink:href="occ__scf_8h.html" target="_top" xlink:title=" ">
<polygon fill="white" stroke="#666666" points="1410,-272 1282,-272 1282,-231 1410,-231 1410,-272"/>
<text text-anchor="start" x="1290" y="-260" font-family="Helvetica,sans-Serif" font-size="10.00">/home/runner/work/occ</text>
<text text-anchor="start" x="1290" y="-249" font-family="Helvetica,sans-Serif" font-size="10.00">/occ/include/occ/main</text>
<text text-anchor="middle" x="1346" y="-238" font-family="Helvetica,sans-Serif" font-size="10.00">/occ_scf.h</text>
</a>
</g>
</g>
<!-- Node11&#45;&gt;Node27 -->
<g id="edge33_Node000011_Node000027" class="edge">
<title>Node11&#45;&gt;Node27</title>
<g id="a_edge33_Node000011_Node000027"><a xlink:title=" ">
<path fill="none" stroke="#63b8ff" d="M934.19,-320.41C1017.22,-311.81 1155.52,-295.48 1273,-272 1275.83,-271.43 1278.71,-270.82 1281.62,-270.17"/>
<polygon fill="#63b8ff" stroke="#63b8ff" points="933.68,-316.94 924.09,-321.45 934.4,-323.91 933.68,-316.94"/>
</a>
</g>
</g>
<!-- Node28 -->
<g id="Node000028" class="node">
<title>Node28</title>
<g id="a_Node000028"><a xlink:href="properties_8h.html" target="_top" xlink:title=" ">
<polygon fill="white" stroke="#666666" points="1556,-272 1428,-272 1428,-231 1556,-231 1556,-272"/>
<text text-anchor="start" x="1436" y="-260" font-family="Helvetica,sans-Serif" font-size="10.00">/home/runner/work/occ</text>
<text text-anchor="start" x="1436" y="-249" font-family="Helvetica,sans-Serif" font-size="10.00">/occ/include/occ/main</text>
<text text-anchor="middle" x="1492" y="-238" font-family="Helvetica,sans-Serif" font-size="10.00">/properties.h</text>
</a>
</g>
</g>
<!-- Node11&#45;&gt;Node28 -->
<g id="edge34_Node000011_Node000028" class="edge">
<title>Node11&#45;&gt;Node28</title>
<g id="a_edge34_Node000011_Node000028"><a xlink:title=" ">
<path fill="none" stroke="#63b8ff" d="M934.29,-323.96C1041.88,-317.97 1247.04,-303.29 1419,-272 1421.84,-271.48 1424.73,-270.91 1427.64,-270.3"/>
<polygon fill="#63b8ff" stroke="#63b8ff" points="933.98,-320.47 924.18,-324.51 934.36,-327.46 933.98,-320.47"/>
</a>
</g>
</g>
<!-- Node13&#45;&gt;Node5 -->
<g id="edge14_Node000013_Node000005" class="edge">
<title>Node13&#45;&gt;Node5</title>
<g id="a_edge14_Node000013_Node000005"><a xlink:title=" ">
<path fill="none" stroke="#63b8ff" d="M464.05,-227.13C438.5,-216.83 408.81,-204.86 384.46,-195.04"/>
<polygon fill="#63b8ff" stroke="#63b8ff" points="463.03,-230.5 473.62,-230.99 465.65,-224 463.03,-230.5"/>
</a>
</g>
</g>
<!-- Node14&#45;&gt;Node5 -->
<g id="edge16_Node000014_Node000005" class="edge">
<title>Node14&#45;&gt;Node5</title>
<g id="a_edge16_Node000014_Node000005"><a xlink:title=" ">
<path fill="none" stroke="#63b8ff" d="M594.49,-230.94C511.41,-213.51 488.62,-212.99 410,-195 406.76,-194.26 403.45,-193.48 400.11,-192.67"/>
<polygon fill="#63b8ff" stroke="#63b8ff" points="593.87,-234.38 604.38,-233.03 595.32,-227.53 593.87,-234.38"/>
</a>
</g>
</g>
<!-- Node15 -->
<g id="Node000015" class="node">
<title>Node15</title>
<g id="a_Node000015"><a xlink:href="energy__model__base_8h.html" target="_top" xlink:title=" ">
<polygon fill="white" stroke="#666666" points="567.5,-195 418.5,-195 418.5,-154 567.5,-154 567.5,-195"/>
<text text-anchor="start" x="426.5" y="-183" font-family="Helvetica,sans-Serif" font-size="10.00">/home/runner/work/occ</text>
<text text-anchor="start" x="426.5" y="-172" font-family="Helvetica,sans-Serif" font-size="10.00">/occ/include/occ/interaction</text>
<text text-anchor="middle" x="493" y="-161" font-family="Helvetica,sans-Serif" font-size="10.00">/energy_model_base.h</text>
</a>
</g>
</g>
<!-- Node14&#45;&gt;Node15 -->
<g id="edge17_Node000014_Node000015" class="edge">
<title>Node14&#45;&gt;Node15</title>
<g id="a_edge17_Node000014_Node000015"><a xlink:title=" ">
<path fill="none" stroke="#63b8ff" d="M621.05,-227.13C595.5,-216.83 565.81,-204.86 541.46,-195.04"/>
<polygon fill="#63b8ff" stroke="#63b8ff" points="620.03,-230.5 630.62,-230.99 622.65,-224 620.03,-230.5"/>
</a>
</g>
</g>
<!-- Node17 -->
<g id="Node000017" class="node">
<title>Node17</title>
<g id="a_Node000017"><a xlink:href="lattice__energy_8h.html" target="_top" xlink:title=" ">
<polygon fill="white" stroke="#666666" points="753.5,-41 604.5,-41 604.5,0 753.5,0 753.5,-41"/>
<text text-anchor="start" x="612.5" y="-29" font-family="Helvetica,sans-Serif" font-size="10.00">/home/runner/work/occ</text>
<text text-anchor="start" x="612.5" y="-18" font-family="Helvetica,sans-Serif" font-size="10.00">/occ/include/occ/interaction</text>
<text text-anchor="middle" x="679" y="-7" font-family="Helvetica,sans-Serif" font-size="10.00">/lattice_energy.h</text>
</a>
</g>
</g>
<!-- Node14&#45;&gt;Node17 -->
<g id="edge27_Node000014_Node000017" class="edge">
<title>Node14&#45;&gt;Node17</title>
<g id="a_edge27_Node000014_Node000017"><a xlink:title=" ">
<path fill="none" stroke="#63b8ff" d="M692.64,-221.21C706.99,-186.46 725.72,-126.92 712,-77 708.46,-64.14 701.09,-51.24 694.2,-41.12"/>
<polygon fill="#63b8ff" stroke="#63b8ff" points="689.28,-220.18 688.56,-230.75 695.71,-222.94 689.28,-220.18"/>
</a>
</g>
</g>
<!-- Node18 -->
<g id="Node000018" class="node">
<title>Node18</title>
<g id="a_Node000018"><a xlink:href="wolf_8h.html" target="_top" xlink:title=" ">
<polygon fill="white" stroke="#666666" points="702.5,-118 553.5,-118 553.5,-77 702.5,-77 702.5,-118"/>
<text text-anchor="start" x="561.5" y="-106" font-family="Helvetica,sans-Serif" font-size="10.00">/home/runner/work/occ</text>
<text text-anchor="start" x="561.5" y="-95" font-family="Helvetica,sans-Serif" font-size="10.00">/occ/include/occ/interaction</text>
<text text-anchor="middle" x="628" y="-84" font-family="Helvetica,sans-Serif" font-size="10.00">/wolf.h</text>
</a>
</g>
</g>
<!-- Node14&#45;&gt;Node18 -->
<g id="edge29_Node000014_Node000018" class="edge">
<title>Node14&#45;&gt;Node18</title>
<g id="a_edge29_Node000014_Node000018"><a xlink:title=" ">
<path fill="none" stroke="#63b8ff" d="M669.23,-221.37C659.09,-191.16 643.52,-144.76 634.7,-118.47"/>
<polygon fill="#63b8ff" stroke="#63b8ff" points="665.94,-222.57 672.44,-230.94 672.57,-220.35 665.94,-222.57"/>
</a>
</g>
</g>
<!-- Node20 -->
<g id="Node000020" class="node">
<title>Node20</title>
<g id="a_Node000020"><a xlink:href="lattice__convergence__settings_8h.html" target="_top" xlink:title=" ">
<polygon fill="white" stroke="#666666" points="929.5,-195 758.5,-195 758.5,-154 929.5,-154 929.5,-195"/>
<text text-anchor="start" x="766.5" y="-183" font-family="Helvetica,sans-Serif" font-size="10.00">/home/runner/work/occ</text>
<text text-anchor="start" x="766.5" y="-172" font-family="Helvetica,sans-Serif" font-size="10.00">/occ/include/occ/interaction</text>
<text text-anchor="middle" x="844" y="-161" font-family="Helvetica,sans-Serif" font-size="10.00">/lattice_convergence_settings.h</text>
</a>
</g>
</g>
<!-- Node14&#45;&gt;Node20 -->
<g id="edge23_Node000014_Node000020" class="edge">
<title>Node14&#45;&gt;Node20</title>
<g id="a_edge23_Node000014_Node000020"><a xlink:title=" ">
<path fill="none" stroke="#63b8ff" d="M731.31,-226.72C753.77,-216.51 779.69,-204.73 801.01,-195.04"/>
<polygon fill="#63b8ff" stroke="#63b8ff" points="729.58,-223.67 721.92,-230.99 732.47,-230.04 729.58,-223.67"/>
</a>
</g>
</g>
<!-- Node23 -->
<g id="Node000023" class="node">
<title>Node23</title>
<g id="a_Node000023"><a xlink:href="pair__energy__store_8h.html" target="_top" xlink:title=" ">
<polygon fill="white" stroke="#666666" points="1096.5,-195 947.5,-195 947.5,-154 1096.5,-154 1096.5,-195"/>
<text text-anchor="start" x="955.5" y="-183" font-family="Helvetica,sans-Serif" font-size="10.00">/home/runner/work/occ</text>
<text text-anchor="start" x="955.5" y="-172" font-family="Helvetica,sans-Serif" font-size="10.00">/occ/include/occ/interaction</text>
<text text-anchor="middle" x="1022" y="-161" font-family="Helvetica,sans-Serif" font-size="10.00">/pair_energy_store.h</text>
</a>
</g>
</g>
<!-- Node14&#45;&gt;Node23 -->
<g id="edge28_Node000014_Node000023" class="edge">
<title>Node14&#45;&gt;Node23</title>
<g id="a_edge28_Node000014_Node000023"><a xlink:title=" ">
<path fill="none" stroke="#63b8ff" d="M763.57,-230.91C842.66,-213.8 864.06,-211.46 939,-195 941.75,-194.4 944.54,-193.78 947.37,-193.14"/>
<polygon fill="#63b8ff" stroke="#63b8ff" points="762.66,-227.52 753.63,-233.07 764.15,-234.36 762.66,-227.52"/>
</a>
</g>
</g>
<!-- Node16 -->
<g id="Node000016" class="node">
<title>Node16</title>
<g id="a_Node000016"><a xlink:href="ce__energy__model_8h.html" target="_top" xlink:title=" ">
<polygon fill="white" stroke="#666666" points="331.5,-118 182.5,-118 182.5,-77 331.5,-77 331.5,-118"/>
<text text-anchor="start" x="190.5" y="-106" font-family="Helvetica,sans-Serif" font-size="10.00">/home/runner/work/occ</text>
<text text-anchor="start" x="190.5" y="-95" font-family="Helvetica,sans-Serif" font-size="10.00">/occ/include/occ/interaction</text>
<text text-anchor="middle" x="257" y="-84" font-family="Helvetica,sans-Serif" font-size="10.00">/ce_energy_model.h</text>
</a>
</g>
</g>
<!-- Node15&#45;&gt;Node16 -->
<g id="edge18_Node000015_Node000016" class="edge">
<title>Node15&#45;&gt;Node16</title>
<g id="a_edge18_Node000015_Node000016"><a xlink:title=" ">
<path fill="none" stroke="#63b8ff" d="M422.03,-150.94C389.05,-140.46 350.2,-128.12 318.49,-118.04"/>
<polygon fill="#63b8ff" stroke="#63b8ff" points="421.02,-154.3 431.61,-153.99 423.14,-147.63 421.02,-154.3"/>
</a>
</g>
</g>
<!-- Node15&#45;&gt;Node17 -->
<g id="edge19_Node000015_Node000017" class="edge">
<title>Node15&#45;&gt;Node17</title>
<g id="a_edge19_Node000015_Node000017"><a xlink:title=" ">
<path fill="none" stroke="#63b8ff" d="M412.48,-149.18C398.78,-141.41 386.32,-131.25 378,-118 368.31,-102.57 366.34,-91 378,-77 406.26,-43.05 524.76,-29.79 604.37,-24.66"/>
<polygon fill="#63b8ff" stroke="#63b8ff" points="411.14,-152.42 421.62,-153.94 414.38,-146.22 411.14,-152.42"/>
</a>
</g>
</g>
<!-- Node15&#45;&gt;Node18 -->
<g id="edge20_Node000015_Node000018" class="edge">
<title>Node15&#45;&gt;Node18</title>
<g id="a_edge20_Node000015_Node000018"><a xlink:title=" ">
<path fill="none" stroke="#63b8ff" d="M537.25,-148.92C555.2,-138.95 575.65,-127.58 592.59,-118.17"/>
<polygon fill="#63b8ff" stroke="#63b8ff" points="535.16,-146.07 528.12,-153.99 538.56,-152.19 535.16,-146.07"/>
</a>
</g>
</g>
<!-- Node19 -->
<g id="Node000019" class="node">
<title>Node19</title>
<g id="a_Node000019"><a xlink:href="xtb__energy__model_8h.html" target="_top" xlink:title=" ">
<polygon fill="white" stroke="#666666" points="535.5,-118 386.5,-118 386.5,-77 535.5,-77 535.5,-118"/>
<text text-anchor="start" x="394.5" y="-106" font-family="Helvetica,sans-Serif" font-size="10.00">/home/runner/work/occ</text>
<text text-anchor="start" x="394.5" y="-95" font-family="Helvetica,sans-Serif" font-size="10.00">/occ/include/occ/interaction</text>
<text text-anchor="middle" x="461" y="-84" font-family="Helvetica,sans-Serif" font-size="10.00">/xtb_energy_model.h</text>
</a>
</g>
</g>
<!-- Node15&#45;&gt;Node19 -->
<g id="edge22_Node000015_Node000019" class="edge">
<title>Node15&#45;&gt;Node19</title>
<g id="a_edge22_Node000015_Node000019"><a xlink:title=" ">
<path fill="none" stroke="#63b8ff" d="M480.65,-144.55C476.87,-135.69 472.8,-126.15 469.35,-118.07"/>
<polygon fill="#63b8ff" stroke="#63b8ff" points="477.45,-145.97 484.59,-153.79 483.89,-143.22 477.45,-145.97"/>
</a>
</g>
</g>
<!-- Node18&#45;&gt;Node17 -->
<g id="edge21_Node000018_Node000017" class="edge">
<title>Node18&#45;&gt;Node17</title>
<g id="a_edge21_Node000018_Node000017"><a xlink:title=" ">
<path fill="none" stroke="#63b8ff" d="M647.11,-68.39C653.3,-59.3 660.02,-49.41 665.69,-41.07"/>
<polygon fill="#63b8ff" stroke="#63b8ff" points="644.13,-66.56 641.4,-76.79 649.92,-70.49 644.13,-66.56"/>
</a>
</g>
</g>
<!-- Node20&#45;&gt;Node17 -->
<g id="edge24_Node000020_Node000017" class="edge">
<title>Node20&#45;&gt;Node17</title>
<g id="a_edge24_Node000020_Node000017"><a xlink:title=" ">
<path fill="none" stroke="#63b8ff" d="M816.27,-146.58C789.26,-120.37 751.23,-83.56 744,-77 730.6,-64.83 715.21,-51.66 702.77,-41.2"/>
<polygon fill="#63b8ff" stroke="#63b8ff" points="813.95,-149.2 823.57,-153.65 818.83,-144.18 813.95,-149.2"/>
</a>
</g>
</g>
<!-- Node21 -->
<g id="Node000021" class="node">
<title>Node21</title>
<g id="a_Node000021"><a xlink:href="occ__cg_8h.html" target="_top" xlink:title=" ">
<polygon fill="white" stroke="#666666" points="924,-118 796,-118 796,-77 924,-77 924,-118"/>
<text text-anchor="start" x="804" y="-106" font-family="Helvetica,sans-Serif" font-size="10.00">/home/runner/work/occ</text>
<text text-anchor="start" x="804" y="-95" font-family="Helvetica,sans-Serif" font-size="10.00">/occ/include/occ/main</text>
<text text-anchor="middle" x="860" y="-84" font-family="Helvetica,sans-Serif" font-size="10.00">/occ_cg.h</text>
</a>
</g>
</g>
<!-- Node20&#45;&gt;Node21 -->
<g id="edge25_Node000020_Node000021" class="edge">
<title>Node20&#45;&gt;Node21</title>
<g id="a_edge25_Node000020_Node000021"><a xlink:title=" ">
<path fill="none" stroke="#63b8ff" d="M850.3,-143.98C852.15,-135.28 854.14,-125.98 855.82,-118.07"/>
<polygon fill="#63b8ff" stroke="#63b8ff" points="846.87,-143.28 848.2,-153.79 853.71,-144.74 846.87,-143.28"/>
</a>
</g>
</g>
<!-- Node22 -->
<g id="Node000022" class="node">
<title>Node22</title>
<g id="a_Node000022"><a xlink:href="occ__elat_8h.html" target="_top" xlink:title=" ">
<polygon fill="white" stroke="#666666" points="1070,-118 942,-118 942,-77 1070,-77 1070,-118"/>
<text text-anchor="start" x="950" y="-106" font-family="Helvetica,sans-Serif" font-size="10.00">/home/runner/work/occ</text>
<text text-anchor="start" x="950" y="-95" font-family="Helvetica,sans-Serif" font-size="10.00">/occ/include/occ/main</text>
<text text-anchor="middle" x="1006" y="-84" font-family="Helvetica,sans-Serif" font-size="10.00">/occ_elat.h</text>
</a>
</g>
</g>
<!-- Node20&#45;&gt;Node22 -->
<g id="edge26_Node000020_Node000022" class="edge">
<title>Node20&#45;&gt;Node22</title>
<g id="a_edge26_Node000020_Node000022"><a xlink:title=" ">
<path fill="none" stroke="#63b8ff" d="M895.36,-149.72C917.41,-139.51 942.86,-127.73 963.79,-118.04"/>
<polygon fill="#63b8ff" stroke="#63b8ff" points="893.74,-146.61 886.14,-153.99 896.69,-152.97 893.74,-146.61"/>
</a>
</g>
</g>
</g>
</svg>
