<?xml version="1.0" encoding="UTF-8" standalone="no"?>
<!DOCTYPE svg PUBLIC "-//W3C//DTD SVG 1.1//EN"
 "http://www.w3.org/Graphics/SVG/1.1/DTD/svg11.dtd">
<!-- Generated by graphviz version 2.43.0 (0)
 -->
<!-- Title: /home/runner/work/occ/occ/include/occ/dft/grid.h Pages: 1 -->
<svg width="970pt" height="330pt"
 viewBox="0.00 0.00 970.00 330.00" xmlns="http://www.w3.org/2000/svg" xmlns:xlink="http://www.w3.org/1999/xlink">
<g id="graph0" class="graph" transform="scale(1 1) rotate(0) translate(4 326)">
<title>/home/runner/work/occ/occ/include/occ/dft/grid.h</title>
<!-- Node1 -->
<g id="node1" class="node">
<title>Node1</title>
<g id="a_node1"><a xlink:title=" ">
<polygon fill="#bfbfbf" stroke="black" points="437.5,-280.5 437.5,-321.5 565.5,-321.5 565.5,-280.5 437.5,-280.5"/>
<text text-anchor="start" x="445.5" y="-309.5" font-family="Helvetica,sans-Serif" font-size="10.00">/home/runner/work/occ</text>
<text text-anchor="start" x="445.5" y="-298.5" font-family="Helvetica,sans-Serif" font-size="10.00">/occ/include/occ/dft</text>
<text text-anchor="middle" x="501.5" y="-287.5" font-family="Helvetica,sans-Serif" font-size="10.00">/grid.h</text>
</a>
</g>
</g>
<!-- Node2 -->
<g id="node2" class="node">
<title>Node2</title>
<g id="a_node2"><a xlink:href="linear__algebra_8h.html" target="_top" xlink:title=" ">
<polygon fill="none" stroke="black" points="58,-56.5 58,-75.5 197,-75.5 197,-56.5 58,-56.5"/>
<text text-anchor="middle" x="127.5" y="-63.5" font-family="Helvetica,sans-Serif" font-size="10.00">occ/core/linear_algebra.h</text>
</a>
</g>
</g>
<!-- Node1&#45;&gt;Node2 -->
<g id="edge1" class="edge">
<title>Node1&#45;&gt;Node2</title>
<path fill="none" stroke="midnightblue" d="M437.16,-290.87C330.38,-274.52 122.99,-237.28 69.5,-188 43.73,-164.25 30.89,-142.3 48.5,-112 57.24,-96.97 73.08,-86.54 88.29,-79.54"/>
<polygon fill="midnightblue" stroke="midnightblue" points="89.76,-82.72 97.62,-75.61 87.04,-76.27 89.76,-82.72"/>
</g>
<!-- Node6 -->
<g id="node6" class="node">
<title>Node6</title>
<g id="a_node6"><a xlink:href="grid__settings_8h.html" target="_top" xlink:title=" ">
<polygon fill="none" stroke="black" points="714.5,-224.5 714.5,-243.5 834.5,-243.5 834.5,-224.5 714.5,-224.5"/>
<text text-anchor="middle" x="774.5" y="-231.5" font-family="Helvetica,sans-Serif" font-size="10.00">occ/io/grid_settings.h</text>
</a>
</g>
</g>
<!-- Node1&#45;&gt;Node6 -->
<g id="edge5" class="edge">
<title>Node1&#45;&gt;Node6</title>
<path fill="none" stroke="midnightblue" d="M565.51,-284.76C615.51,-272.85 683.8,-256.6 728.51,-245.95"/>
<polygon fill="midnightblue" stroke="midnightblue" points="729.59,-249.29 738.51,-243.57 727.97,-242.48 729.59,-249.29"/>
</g>
<!-- Node7 -->
<g id="node7" class="node">
<title>Node7</title>
<g id="a_node7"><a xlink:href="shell_8h.html" target="_top" xlink:title=" ">
<polygon fill="none" stroke="black" points="276,-224.5 276,-243.5 363,-243.5 363,-224.5 276,-224.5"/>
<text text-anchor="middle" x="319.5" y="-231.5" font-family="Helvetica,sans-Serif" font-size="10.00">occ/qm/shell.h</text>
</a>
</g>
</g>
<!-- Node1&#45;&gt;Node7 -->
<g id="edge6" class="edge">
<title>Node1&#45;&gt;Node7</title>
<path fill="none" stroke="midnightblue" d="M446.89,-280.5C416.44,-269.62 379.48,-256.42 353.23,-247.05"/>
<polygon fill="midnightblue" stroke="midnightblue" points="354.32,-243.72 343.73,-243.65 351.97,-250.31 354.32,-243.72"/>
</g>
<!-- Node20 -->
<g id="node20" class="node">
<title>Node20</title>
<g id="a_node20"><a xlink:title=" ">
<polygon fill="none" stroke="#bfbfbf" points="915,-112.5 915,-131.5 962,-131.5 962,-112.5 915,-112.5"/>
<text text-anchor="middle" x="938.5" y="-119.5" font-family="Helvetica,sans-Serif" font-size="10.00">vector</text>
</a>
</g>
</g>
<!-- Node1&#45;&gt;Node20 -->
<g id="edge29" class="edge">
<title>Node1&#45;&gt;Node20</title>
<path fill="none" stroke="midnightblue" d="M549.94,-280.38C640.54,-243.69 833.22,-165.64 907.97,-135.36"/>
<polygon fill="midnightblue" stroke="midnightblue" points="909.35,-138.58 917.31,-131.58 906.72,-132.09 909.35,-138.58"/>
</g>
<!-- Node3 -->
<g id="node3" class="node">
<title>Node3</title>
<g id="a_node3"><a xlink:title=" ">
<polygon fill="none" stroke="#bfbfbf" points="0,-0.5 0,-19.5 77,-19.5 77,-0.5 0,-0.5"/>
<text text-anchor="middle" x="38.5" y="-7.5" font-family="Helvetica,sans-Serif" font-size="10.00">Eigen/Dense</text>
</a>
</g>
</g>
<!-- Node2&#45;&gt;Node3 -->
<g id="edge2" class="edge">
<title>Node2&#45;&gt;Node3</title>
<path fill="none" stroke="midnightblue" d="M113.2,-56.32C99.32,-47.9 78.01,-34.97 61.7,-25.07"/>
<polygon fill="midnightblue" stroke="midnightblue" points="63.13,-21.85 52.76,-19.65 59.5,-27.83 63.13,-21.85"/>
</g>
<!-- Node4 -->
<g id="node4" class="node">
<title>Node4</title>
<g id="a_node4"><a xlink:title=" ">
<polygon fill="none" stroke="#bfbfbf" points="95,-0.5 95,-19.5 188,-19.5 188,-0.5 95,-0.5"/>
<text text-anchor="middle" x="141.5" y="-7.5" font-family="Helvetica,sans-Serif" font-size="10.00">Eigen/StdVector</text>
</a>
</g>
</g>
<!-- Node2&#45;&gt;Node4 -->
<g id="edge3" class="edge">
<title>Node2&#45;&gt;Node4</title>
<path fill="none" stroke="midnightblue" d="M129.81,-56.08C131.67,-48.93 134.34,-38.64 136.65,-29.69"/>
<polygon fill="midnightblue" stroke="midnightblue" points="140.11,-30.31 139.23,-19.75 133.33,-28.55 140.11,-30.31"/>
</g>
<!-- Node5 -->
<g id="node5" class="node">
<title>Node5</title>
<g id="a_node5"><a xlink:title=" ">
<polygon fill="none" stroke="#bfbfbf" points="233,-0.5 233,-19.5 300,-19.5 300,-0.5 233,-0.5"/>
<text text-anchor="middle" x="266.5" y="-7.5" font-family="Helvetica,sans-Serif" font-size="10.00">fmt/core.h</text>
</a>
</g>
</g>
<!-- Node2&#45;&gt;Node5 -->
<g id="edge4" class="edge">
<title>Node2&#45;&gt;Node5</title>
<path fill="none" stroke="midnightblue" d="M149.52,-56.44C172.6,-47.48 209.06,-33.31 235.14,-23.18"/>
<polygon fill="midnightblue" stroke="midnightblue" points="236.52,-26.4 244.58,-19.52 233.99,-19.88 236.52,-26.4"/>
</g>
<!-- Node7&#45;&gt;Node2 -->
<g id="edge12" class="edge">
<title>Node7&#45;&gt;Node2</title>
<path fill="none" stroke="midnightblue" d="M275.73,-232.64C229.25,-230.39 155.23,-221.25 101.5,-188 68.31,-167.46 38.8,-146.26 57.5,-112 65.32,-97.68 79.86,-87.24 93.68,-80.04"/>
<polygon fill="midnightblue" stroke="midnightblue" points="95.52,-83.03 103.03,-75.56 92.5,-76.72 95.52,-83.03"/>
</g>
<!-- Node7&#45;&gt;Node5 -->
<g id="edge8" class="edge">
<title>Node7&#45;&gt;Node5</title>
<path fill="none" stroke="midnightblue" d="M316.09,-224.5C309.32,-207.3 294.08,-167.04 285.5,-132 276.76,-96.32 271.16,-53.7 268.45,-29.75"/>
<polygon fill="midnightblue" stroke="midnightblue" points="271.91,-29.17 267.35,-19.61 264.95,-29.93 271.91,-29.17"/>
</g>
<!-- Node8 -->
<g id="node8" class="node">
<title>Node8</title>
<g id="a_node8"><a xlink:title=" ">
<polygon fill="none" stroke="#bfbfbf" points="294.5,-112.5 294.5,-131.5 336.5,-131.5 336.5,-112.5 294.5,-112.5"/>
<text text-anchor="middle" x="315.5" y="-119.5" font-family="Helvetica,sans-Serif" font-size="10.00">array</text>
</a>
</g>
</g>
<!-- Node7&#45;&gt;Node8 -->
<g id="edge7" class="edge">
<title>Node7&#45;&gt;Node8</title>
<path fill="none" stroke="midnightblue" d="M319.19,-224.37C318.54,-206.62 317.05,-165.67 316.18,-141.6"/>
<polygon fill="midnightblue" stroke="midnightblue" points="319.67,-141.46 315.81,-131.59 312.68,-141.71 319.67,-141.46"/>
</g>
<!-- Node9 -->
<g id="node9" class="node">
<title>Node9</title>
<g id="a_node9"><a xlink:title=" ">
<polygon fill="none" stroke="#bfbfbf" points="560.5,-168.5 560.5,-187.5 620.5,-187.5 620.5,-168.5 560.5,-168.5"/>
<text text-anchor="middle" x="590.5" y="-175.5" font-family="Helvetica,sans-Serif" font-size="10.00">iostream</text>
</a>
</g>
</g>
<!-- Node7&#45;&gt;Node9 -->
<g id="edge9" class="edge">
<title>Node7&#45;&gt;Node9</title>
<path fill="none" stroke="midnightblue" d="M363.21,-225C407.82,-216.72 479.3,-203.17 550.28,-188.2"/>
<polygon fill="midnightblue" stroke="midnightblue" points="551.23,-191.58 560.29,-186.08 549.78,-184.73 551.23,-191.58"/>
</g>
<!-- Node10 -->
<g id="node10" class="node">
<title>Node10</title>
<g id="a_node10"><a xlink:href="atom_8h.html" target="_top" xlink:title=" ">
<polygon fill="none" stroke="black" points="67,-112.5 67,-131.5 162,-131.5 162,-112.5 67,-112.5"/>
<text text-anchor="middle" x="114.5" y="-119.5" font-family="Helvetica,sans-Serif" font-size="10.00">occ/core/atom.h</text>
</a>
</g>
</g>
<!-- Node7&#45;&gt;Node10 -->
<g id="edge10" class="edge">
<title>Node7&#45;&gt;Node10</title>
<path fill="none" stroke="midnightblue" d="M275.57,-229.77C220.99,-224.75 132.58,-212.91 112.5,-188 102.11,-175.11 104.28,-155.66 108.03,-141.4"/>
<polygon fill="midnightblue" stroke="midnightblue" points="111.42,-142.28 111.02,-131.69 104.73,-140.22 111.42,-142.28"/>
</g>
<!-- Node11 -->
<g id="node11" class="node">
<title>Node11</title>
<g id="a_node11"><a xlink:href="point__charge_8h.html" target="_top" xlink:title=" ">
<polygon fill="none" stroke="black" points="121.5,-168.5 121.5,-187.5 253.5,-187.5 253.5,-168.5 121.5,-168.5"/>
<text text-anchor="middle" x="187.5" y="-175.5" font-family="Helvetica,sans-Serif" font-size="10.00">occ/core/point_charge.h</text>
</a>
</g>
</g>
<!-- Node7&#45;&gt;Node11 -->
<g id="edge13" class="edge">
<title>Node7&#45;&gt;Node11</title>
<path fill="none" stroke="midnightblue" d="M298.58,-224.44C276.76,-215.52 242.35,-201.44 217.61,-191.32"/>
<polygon fill="midnightblue" stroke="midnightblue" points="218.9,-188.06 208.32,-187.52 216.25,-194.54 218.9,-188.06"/>
</g>
<!-- Node12 -->
<g id="node12" class="node">
<title>Node12</title>
<g id="a_node12"><a xlink:href="util_8h.html" target="_top" xlink:title=" ">
<polygon fill="none" stroke="black" points="457,-168.5 457,-187.5 542,-187.5 542,-168.5 457,-168.5"/>
<text text-anchor="middle" x="499.5" y="-175.5" font-family="Helvetica,sans-Serif" font-size="10.00">occ/core/util.h</text>
</a>
</g>
</g>
<!-- Node7&#45;&gt;Node12 -->
<g id="edge17" class="edge">
<title>Node7&#45;&gt;Node12</title>
<path fill="none" stroke="midnightblue" d="M348.02,-224.44C378.57,-215.28 427.21,-200.69 461.1,-190.52"/>
<polygon fill="midnightblue" stroke="midnightblue" points="462.54,-193.74 471.11,-187.52 460.53,-187.04 462.54,-193.74"/>
</g>
<!-- Node7&#45;&gt;Node20 -->
<g id="edge28" class="edge">
<title>Node7&#45;&gt;Node20</title>
<path fill="none" stroke="midnightblue" d="M363.23,-230.66C424.05,-226.52 537.12,-215.54 629.5,-188 649.7,-181.98 652.33,-174.11 672.5,-168 769.74,-138.52 801.12,-152.88 904.85,-131.88"/>
<polygon fill="midnightblue" stroke="midnightblue" points="905.71,-135.28 914.79,-129.81 904.28,-128.43 905.71,-135.28"/>
</g>
<!-- Node10&#45;&gt;Node2 -->
<g id="edge11" class="edge">
<title>Node10&#45;&gt;Node2</title>
<path fill="none" stroke="midnightblue" d="M116.65,-112.08C118.37,-104.93 120.85,-94.64 123,-85.69"/>
<polygon fill="midnightblue" stroke="midnightblue" points="126.46,-86.29 125.39,-75.75 119.65,-84.65 126.46,-86.29"/>
</g>
<!-- Node11&#45;&gt;Node2 -->
<g id="edge16" class="edge">
<title>Node11&#45;&gt;Node2</title>
<path fill="none" stroke="midnightblue" d="M186.65,-168.49C185.08,-155.57 180.85,-130.54 170.5,-112 164.35,-100.99 154.87,-90.67 146.38,-82.69"/>
<polygon fill="midnightblue" stroke="midnightblue" points="148.47,-79.86 138.68,-75.82 143.81,-85.09 148.47,-79.86"/>
</g>
<!-- Node11&#45;&gt;Node8 -->
<g id="edge14" class="edge">
<title>Node11&#45;&gt;Node8</title>
<path fill="none" stroke="midnightblue" d="M207.78,-168.44C228.85,-159.56 262.02,-145.56 285.99,-135.45"/>
<polygon fill="midnightblue" stroke="midnightblue" points="287.46,-138.63 295.31,-131.52 284.74,-132.18 287.46,-138.63"/>
</g>
<!-- Node11&#45;&gt;Node10 -->
<g id="edge15" class="edge">
<title>Node11&#45;&gt;Node10</title>
<path fill="none" stroke="midnightblue" d="M175.77,-168.32C164.66,-160.11 147.76,-147.6 134.52,-137.81"/>
<polygon fill="midnightblue" stroke="midnightblue" points="136.56,-134.97 126.44,-131.83 132.4,-140.59 136.56,-134.97"/>
</g>
<!-- Node12&#45;&gt;Node2 -->
<g id="edge25" class="edge">
<title>Node12&#45;&gt;Node2</title>
<path fill="none" stroke="midnightblue" d="M456.69,-170.37C413.07,-163.07 343.73,-149.94 285.5,-132 238.44,-117.5 185.96,-94.47 154.89,-80.07"/>
<polygon fill="midnightblue" stroke="midnightblue" points="156.13,-76.79 145.59,-75.72 153.16,-83.13 156.13,-76.79"/>
</g>
<!-- Node12&#45;&gt;Node5 -->
<g id="edge21" class="edge">
<title>Node12&#45;&gt;Node5</title>
<path fill="none" stroke="midnightblue" d="M466.69,-168.42C442.41,-161.13 409.23,-149.09 383.5,-132 339.05,-102.49 298.49,-53.53 278.88,-27.87"/>
<polygon fill="midnightblue" stroke="midnightblue" points="281.44,-25.44 272.64,-19.55 275.84,-29.65 281.44,-25.44"/>
</g>
<!-- Node13 -->
<g id="node13" class="node">
<title>Node13</title>
<g id="a_node13"><a xlink:title=" ">
<polygon fill="none" stroke="#bfbfbf" points="392.5,-112.5 392.5,-131.5 456.5,-131.5 456.5,-112.5 392.5,-112.5"/>
<text text-anchor="middle" x="424.5" y="-119.5" font-family="Helvetica,sans-Serif" font-size="10.00">algorithm</text>
</a>
</g>
</g>
<!-- Node12&#45;&gt;Node13 -->
<g id="edge18" class="edge">
<title>Node12&#45;&gt;Node13</title>
<path fill="none" stroke="midnightblue" d="M487.45,-168.32C476.04,-160.11 458.67,-147.6 445.07,-137.81"/>
<polygon fill="midnightblue" stroke="midnightblue" points="446.93,-134.84 436.77,-131.83 442.84,-140.52 446.93,-134.84"/>
</g>
<!-- Node14 -->
<g id="node14" class="node">
<title>Node14</title>
<g id="a_node14"><a xlink:title=" ">
<polygon fill="none" stroke="#bfbfbf" points="475,-112.5 475,-131.5 524,-131.5 524,-112.5 475,-112.5"/>
<text text-anchor="middle" x="499.5" y="-119.5" font-family="Helvetica,sans-Serif" font-size="10.00">cctype</text>
</a>
</g>
</g>
<!-- Node12&#45;&gt;Node14 -->
<g id="edge19" class="edge">
<title>Node12&#45;&gt;Node14</title>
<path fill="none" stroke="midnightblue" d="M499.5,-168.08C499.5,-161.01 499.5,-150.86 499.5,-141.99"/>
<polygon fill="midnightblue" stroke="midnightblue" points="503,-141.75 499.5,-131.75 496,-141.75 503,-141.75"/>
</g>
<!-- Node15 -->
<g id="node15" class="node">
<title>Node15</title>
<g id="a_node15"><a xlink:title=" ">
<polygon fill="none" stroke="#bfbfbf" points="542.5,-112.5 542.5,-131.5 592.5,-131.5 592.5,-112.5 542.5,-112.5"/>
<text text-anchor="middle" x="567.5" y="-119.5" font-family="Helvetica,sans-Serif" font-size="10.00">chrono</text>
</a>
</g>
</g>
<!-- Node12&#45;&gt;Node15 -->
<g id="edge20" class="edge">
<title>Node12&#45;&gt;Node15</title>
<path fill="none" stroke="midnightblue" d="M510.43,-168.32C520.67,-160.18 536.22,-147.84 548.5,-138.09"/>
<polygon fill="midnightblue" stroke="midnightblue" points="550.72,-140.79 556.38,-131.83 546.37,-135.31 550.72,-140.79"/>
</g>
<!-- Node16 -->
<g id="node16" class="node">
<title>Node16</title>
<g id="a_node16"><a xlink:title=" ">
<polygon fill="none" stroke="#bfbfbf" points="610.5,-112.5 610.5,-131.5 696.5,-131.5 696.5,-112.5 610.5,-112.5"/>
<text text-anchor="middle" x="653.5" y="-119.5" font-family="Helvetica,sans-Serif" font-size="10.00">fmt/ostream.h</text>
</a>
</g>
</g>
<!-- Node12&#45;&gt;Node16 -->
<g id="edge22" class="edge">
<title>Node12&#45;&gt;Node16</title>
<path fill="none" stroke="midnightblue" d="M523.9,-168.44C549.7,-159.4 590.58,-145.06 619.52,-134.92"/>
<polygon fill="midnightblue" stroke="midnightblue" points="620.93,-138.13 629.21,-131.52 618.62,-131.52 620.93,-138.13"/>
</g>
<!-- Node17 -->
<g id="node17" class="node">
<title>Node17</title>
<g id="a_node17"><a xlink:title=" ">
<polygon fill="none" stroke="#bfbfbf" points="714.5,-112.5 714.5,-131.5 760.5,-131.5 760.5,-112.5 714.5,-112.5"/>
<text text-anchor="middle" x="737.5" y="-119.5" font-family="Helvetica,sans-Serif" font-size="10.00">locale</text>
</a>
</g>
</g>
<!-- Node12&#45;&gt;Node17 -->
<g id="edge23" class="edge">
<title>Node12&#45;&gt;Node17</title>
<path fill="none" stroke="midnightblue" d="M542.28,-168.42C581.94,-160.3 642.81,-147.4 704.56,-132.12"/>
<polygon fill="midnightblue" stroke="midnightblue" points="705.62,-135.47 714.47,-129.65 703.92,-128.68 705.62,-135.47"/>
</g>
<!-- Node18 -->
<g id="node18" class="node">
<title>Node18</title>
<g id="a_node18"><a xlink:title=" ">
<polygon fill="none" stroke="#bfbfbf" points="778.5,-112.5 778.5,-131.5 834.5,-131.5 834.5,-112.5 778.5,-112.5"/>
<text text-anchor="middle" x="806.5" y="-119.5" font-family="Helvetica,sans-Serif" font-size="10.00">numeric</text>
</a>
</g>
</g>
<!-- Node12&#45;&gt;Node18 -->
<g id="edge24" class="edge">
<title>Node12&#45;&gt;Node18</title>
<path fill="none" stroke="midnightblue" d="M542.06,-169.61C545.26,-169.06 548.43,-168.52 551.5,-168 645.21,-152.15 671.6,-151.64 768.36,-132.11"/>
<polygon fill="midnightblue" stroke="midnightblue" points="769.17,-135.52 778.27,-130.1 767.77,-128.66 769.17,-135.52"/>
</g>
<!-- Node19 -->
<g id="node19" class="node">
<title>Node19</title>
<g id="a_node19"><a xlink:title=" ">
<polygon fill="none" stroke="#bfbfbf" points="852.5,-112.5 852.5,-131.5 896.5,-131.5 896.5,-112.5 852.5,-112.5"/>
<text text-anchor="middle" x="874.5" y="-119.5" font-family="Helvetica,sans-Serif" font-size="10.00">string</text>
</a>
</g>
</g>
<!-- Node12&#45;&gt;Node19 -->
<g id="edge26" class="edge">
<title>Node12&#45;&gt;Node19</title>
<path fill="none" stroke="midnightblue" d="M542.04,-169.46C545.24,-168.95 548.42,-168.46 551.5,-168 677.69,-149.31 713.67,-157.87 842.41,-131.93"/>
<polygon fill="midnightblue" stroke="midnightblue" points="843.16,-135.35 852.26,-129.92 841.76,-128.49 843.16,-135.35"/>
</g>
<!-- Node12&#45;&gt;Node20 -->
<g id="edge27" class="edge">
<title>Node12&#45;&gt;Node20</title>
<path fill="none" stroke="midnightblue" d="M542.03,-169.39C545.23,-168.89 548.41,-168.42 551.5,-168 704.96,-146.94 748.25,-160.33 904.83,-131.81"/>
<polygon fill="midnightblue" stroke="midnightblue" points="905.62,-135.22 914.82,-129.96 904.35,-128.34 905.62,-135.22"/>
</g>
</g>
</svg>
