<?xml version="1.0" encoding="UTF-8" standalone="no"?>
<!DOCTYPE svg PUBLIC "-//W3C//DTD SVG 1.1//EN"
 "http://www.w3.org/Graphics/SVG/1.1/DTD/svg11.dtd">
<!-- Generated by graphviz version 2.43.0 (0)
 -->
<!-- Title: /home/runner/work/occ/occ/include/occ/dft/grid.h Pages: 1 -->
<svg width="673pt" height="346pt"
 viewBox="0.00 0.00 673.00 346.00" xmlns="http://www.w3.org/2000/svg" xmlns:xlink="http://www.w3.org/1999/xlink">
<g id="graph0" class="graph" transform="scale(1 1) rotate(0) translate(4 342)">
<title>/home/runner/work/occ/occ/include/occ/dft/grid.h</title>
<!-- Node1 -->
<g id="Node000001" class="node">
<title>Node1</title>
<g id="a_Node000001"><a xlink:title=" ">
<polygon fill="#999999" stroke="#666666" points="323,-338 195,-338 195,-297 323,-297 323,-338"/>
<text text-anchor="start" x="203" y="-326" font-family="Helvetica,sans-Serif" font-size="10.00">/home/runner/work/occ</text>
<text text-anchor="start" x="203" y="-315" font-family="Helvetica,sans-Serif" font-size="10.00">/occ/include/occ/dft</text>
<text text-anchor="middle" x="259" y="-304" font-family="Helvetica,sans-Serif" font-size="10.00">/grid.h</text>
</a>
</g>
</g>
<!-- Node2 -->
<g id="Node000002" class="node">
<title>Node2</title>
<g id="a_Node000002"><a xlink:href="dft_8h.html" target="_top" xlink:title=" ">
<polygon fill="white" stroke="#666666" points="207,-184 73,-184 73,-154 207,-154 207,-184"/>
<text text-anchor="start" x="81" y="-172" font-family="Helvetica,sans-Serif" font-size="10.00">/home/runner/work/occ</text>
<text text-anchor="middle" x="140" y="-161" font-family="Helvetica,sans-Serif" font-size="10.00">/occ/include/occ/dft/dft.h</text>
</a>
</g>
</g>
<!-- Node1&#45;&gt;Node2 -->
<g id="edge1_Node000001_Node000002" class="edge">
<title>Node1&#45;&gt;Node2</title>
<g id="a_edge1_Node000001_Node000002"><a xlink:title=" ">
<path fill="none" stroke="#63b8ff" d="M184.86,-307.49C128.56,-298.95 57.87,-283.96 40,-261 28.81,-246.62 30.42,-235.5 40,-220 50.51,-202.99 68.75,-191.58 86.8,-184.01"/>
<polygon fill="#63b8ff" stroke="#63b8ff" points="184.43,-310.96 194.83,-308.96 185.45,-304.04 184.43,-310.96"/>
</a>
</g>
</g>
<!-- Node6 -->
<g id="Node000006" class="node">
<title>Node6</title>
<g id="a_Node000006"><a xlink:href="dft_2hirshfeld_8h.html" target="_top" xlink:title=" ">
<polygon fill="white" stroke="#666666" points="177,-261 49,-261 49,-220 177,-220 177,-261"/>
<text text-anchor="start" x="57" y="-249" font-family="Helvetica,sans-Serif" font-size="10.00">/home/runner/work/occ</text>
<text text-anchor="start" x="57" y="-238" font-family="Helvetica,sans-Serif" font-size="10.00">/occ/include/occ/dft</text>
<text text-anchor="middle" x="113" y="-227" font-family="Helvetica,sans-Serif" font-size="10.00">/hirshfeld.h</text>
</a>
</g>
</g>
<!-- Node1&#45;&gt;Node6 -->
<g id="edge5_Node000001_Node000006" class="edge">
<title>Node1&#45;&gt;Node6</title>
<g id="a_edge5_Node000001_Node000006"><a xlink:title=" ">
<path fill="none" stroke="#63b8ff" d="M211.91,-292.31C192.23,-282.2 169.65,-270.6 151.04,-261.04"/>
<polygon fill="#63b8ff" stroke="#63b8ff" points="210.53,-295.53 221.02,-296.99 213.73,-289.31 210.53,-295.53"/>
</a>
</g>
</g>
<!-- Node7 -->
<g id="Node000007" class="node">
<title>Node7</title>
<g id="a_Node000007"><a xlink:href="nonlocal__correlation_8h.html" target="_top" xlink:title=" ">
<polygon fill="white" stroke="#666666" points="323,-261 195,-261 195,-220 323,-220 323,-261"/>
<text text-anchor="start" x="203" y="-249" font-family="Helvetica,sans-Serif" font-size="10.00">/home/runner/work/occ</text>
<text text-anchor="start" x="203" y="-238" font-family="Helvetica,sans-Serif" font-size="10.00">/occ/include/occ/dft</text>
<text text-anchor="middle" x="259" y="-227" font-family="Helvetica,sans-Serif" font-size="10.00">/nonlocal_correlation.h</text>
</a>
</g>
</g>
<!-- Node1&#45;&gt;Node7 -->
<g id="edge6_Node000001_Node000007" class="edge">
<title>Node1&#45;&gt;Node7</title>
<g id="a_edge6_Node000001_Node000007"><a xlink:title=" ">
<path fill="none" stroke="#63b8ff" d="M259,-286.69C259,-278.08 259,-268.9 259,-261.07"/>
<polygon fill="#63b8ff" stroke="#63b8ff" points="255.5,-286.79 259,-296.79 262.5,-286.79 255.5,-286.79"/>
</a>
</g>
</g>
<!-- Node8 -->
<g id="Node000008" class="node">
<title>Node8</title>
<g id="a_Node000008"><a xlink:href="seminumerical__exchange_8h.html" target="_top" xlink:title=" ">
<polygon fill="white" stroke="#666666" points="495,-261 341,-261 341,-220 495,-220 495,-261"/>
<text text-anchor="start" x="349" y="-249" font-family="Helvetica,sans-Serif" font-size="10.00">/home/runner/work/occ</text>
<text text-anchor="start" x="349" y="-238" font-family="Helvetica,sans-Serif" font-size="10.00">/occ/include/occ/dft</text>
<text text-anchor="middle" x="418" y="-227" font-family="Helvetica,sans-Serif" font-size="10.00">/seminumerical_exchange.h</text>
</a>
</g>
</g>
<!-- Node1&#45;&gt;Node8 -->
<g id="edge8_Node000001_Node000008" class="edge">
<title>Node1&#45;&gt;Node8</title>
<g id="a_edge8_Node000001_Node000008"><a xlink:title=" ">
<path fill="none" stroke="#63b8ff" d="M309.41,-292.72C331.05,-282.51 356.03,-270.73 376.57,-261.04"/>
<polygon fill="#63b8ff" stroke="#63b8ff" points="307.91,-289.56 300.36,-296.99 310.9,-295.89 307.91,-289.56"/>
</a>
</g>
</g>
<!-- Node9 -->
<g id="Node000009" class="node">
<title>Node9</title>
<g id="a_Node000009"><a xlink:href="xdm_8h.html" target="_top" xlink:title=" ">
<polygon fill="white" stroke="#666666" points="665,-255.5 513,-255.5 513,-225.5 665,-225.5 665,-255.5"/>
<text text-anchor="start" x="521" y="-243.5" font-family="Helvetica,sans-Serif" font-size="10.00">/home/runner/work/occ</text>
<text text-anchor="middle" x="589" y="-232.5" font-family="Helvetica,sans-Serif" font-size="10.00">/occ/include/occ/xdm/xdm.h</text>
</a>
</g>
</g>
<!-- Node1&#45;&gt;Node9 -->
<g id="edge9_Node000001_Node000009" class="edge">
<title>Node1&#45;&gt;Node9</title>
<g id="a_edge9_Node000001_Node000009"><a xlink:title=" ">
<path fill="none" stroke="#63b8ff" d="M333.04,-299.78C381.65,-288.79 446.62,-274.08 504,-261 511.68,-259.25 519.74,-257.41 527.72,-255.58"/>
<polygon fill="#63b8ff" stroke="#63b8ff" points="332.22,-296.38 323.23,-302 333.76,-303.21 332.22,-296.38"/>
</a>
</g>
</g>
<!-- Node3 -->
<g id="Node000003" class="node">
<title>Node3</title>
<g id="a_Node000003"><a xlink:href="smd__solvation_8h.html" target="_top" xlink:title=" ">
<polygon fill="white" stroke="#666666" points="132,-118 0,-118 0,-77 132,-77 132,-118"/>
<text text-anchor="start" x="8" y="-106" font-family="Helvetica,sans-Serif" font-size="10.00">/home/runner/work/occ</text>
<text text-anchor="start" x="8" y="-95" font-family="Helvetica,sans-Serif" font-size="10.00">/occ/include/occ/cg/smd</text>
<text text-anchor="middle" x="66" y="-84" font-family="Helvetica,sans-Serif" font-size="10.00">_solvation.h</text>
</a>
</g>
</g>
<!-- Node2&#45;&gt;Node3 -->
<g id="edge2_Node000002_Node000003" class="edge">
<title>Node2&#45;&gt;Node3</title>
<g id="a_edge2_Node000002_Node000003"><a xlink:title=" ">
<path fill="none" stroke="#63b8ff" d="M117.6,-146.96C107.82,-137.78 96.43,-127.08 86.84,-118.07"/>
<polygon fill="#63b8ff" stroke="#63b8ff" points="115.34,-149.64 125.02,-153.94 120.13,-144.54 115.34,-149.64"/>
</a>
</g>
</g>
<!-- Node5 -->
<g id="Node000005" class="node">
<title>Node5</title>
<g id="a_Node000005"><a xlink:href="point__functors_8h.html" target="_top" xlink:title=" ">
<polygon fill="white" stroke="#666666" points="278,-118 150,-118 150,-77 278,-77 278,-118"/>
<text text-anchor="start" x="158" y="-106" font-family="Helvetica,sans-Serif" font-size="10.00">/home/runner/work/occ</text>
<text text-anchor="start" x="158" y="-95" font-family="Helvetica,sans-Serif" font-size="10.00">/occ/include/occ/main</text>
<text text-anchor="middle" x="214" y="-84" font-family="Helvetica,sans-Serif" font-size="10.00">/point_functors.h</text>
</a>
</g>
</g>
<!-- Node2&#45;&gt;Node5 -->
<g id="edge4_Node000002_Node000005" class="edge">
<title>Node2&#45;&gt;Node5</title>
<g id="a_edge4_Node000002_Node000005"><a xlink:title=" ">
<path fill="none" stroke="#63b8ff" d="M162.4,-146.96C172.18,-137.78 183.57,-127.08 193.16,-118.07"/>
<polygon fill="#63b8ff" stroke="#63b8ff" points="159.87,-144.54 154.98,-153.94 164.66,-149.64 159.87,-144.54"/>
</a>
</g>
</g>
<!-- Node4 -->
<g id="Node000004" class="node">
<title>Node4</title>
<g id="a_Node000004"><a xlink:href="crystal__growth_8h.html" target="_top" xlink:title=" ">
<polygon fill="white" stroke="#666666" points="130,-41 2,-41 2,0 130,0 130,-41"/>
<text text-anchor="start" x="10" y="-29" font-family="Helvetica,sans-Serif" font-size="10.00">/home/runner/work/occ</text>
<text text-anchor="start" x="10" y="-18" font-family="Helvetica,sans-Serif" font-size="10.00">/occ/include/occ/driver</text>
<text text-anchor="middle" x="66" y="-7" font-family="Helvetica,sans-Serif" font-size="10.00">/crystal_growth.h</text>
</a>
</g>
</g>
<!-- Node3&#45;&gt;Node4 -->
<g id="edge3_Node000003_Node000004" class="edge">
<title>Node3&#45;&gt;Node4</title>
<g id="a_edge3_Node000003_Node000004"><a xlink:title=" ">
<path fill="none" stroke="#63b8ff" d="M66,-66.69C66,-58.08 66,-48.9 66,-41.07"/>
<polygon fill="#63b8ff" stroke="#63b8ff" points="62.5,-66.79 66,-76.79 69.5,-66.79 62.5,-66.79"/>
</a>
</g>
</g>
<!-- Node7&#45;&gt;Node2 -->
<g id="edge7_Node000007_Node000002" class="edge">
<title>Node7&#45;&gt;Node2</title>
<g id="a_edge7_Node000007_Node000002"><a xlink:title=" ">
<path fill="none" stroke="#63b8ff" d="M216.57,-214.72C198.98,-204.44 179.21,-192.9 164.16,-184.11"/>
<polygon fill="#63b8ff" stroke="#63b8ff" points="215.13,-217.93 225.54,-219.96 218.67,-211.89 215.13,-217.93"/>
</a>
</g>
</g>
</g>
</svg>
