<?xml version="1.0" encoding="UTF-8" standalone="no"?>
<!DOCTYPE svg PUBLIC "-//W3C//DTD SVG 1.1//EN"
 "http://www.w3.org/Graphics/SVG/1.1/DTD/svg11.dtd">
<!-- Generated by graphviz version 2.43.0 (0)
 -->
<!-- Title: /home/runner/work/occ/occ/include/occ/dft/grid_types.h Pages: 1 -->
<svg width="435pt" height="159pt"
 viewBox="0.00 0.00 435.00 159.00" xmlns="http://www.w3.org/2000/svg" xmlns:xlink="http://www.w3.org/1999/xlink">
<g id="graph0" class="graph" transform="scale(1 1) rotate(0) translate(4 155)">
<title>/home/runner/work/occ/occ/include/occ/dft/grid_types.h</title>
<!-- Node1 -->
<g id="Node000001" class="node">
<title>Node1</title>
<g id="a_Node000001"><a xlink:title=" ">
<polygon fill="#999999" stroke="#666666" points="291.5,-151 163.5,-151 163.5,-110 291.5,-110 291.5,-151"/>
<text text-anchor="start" x="171.5" y="-139" font-family="Helvetica,sans-Serif" font-size="10.00">/home/runner/work/occ</text>
<text text-anchor="start" x="171.5" y="-128" font-family="Helvetica,sans-Serif" font-size="10.00">/occ/include/occ/dft</text>
<text text-anchor="middle" x="227.5" y="-117" font-family="Helvetica,sans-Serif" font-size="10.00">/grid_types.h</text>
</a>
</g>
</g>
<!-- Node2 -->
<g id="Node000002" class="node">
<title>Node2</title>
<g id="a_Node000002"><a xlink:title=" ">
<polygon fill="#e0e0e0" stroke="#999999" points="65.5,-74 15.5,-74 15.5,-55 65.5,-55 65.5,-74"/>
<text text-anchor="middle" x="40.5" y="-62" font-family="Helvetica,sans-Serif" font-size="10.00">cstdint</text>
</a>
</g>
</g>
<!-- Node1&#45;&gt;Node2 -->
<g id="edge1_Node000001_Node000002" class="edge">
<title>Node1&#45;&gt;Node2</title>
<g id="a_edge1_Node000001_Node000002"><a xlink:title=" ">
<path fill="none" stroke="#63b8ff" d="M170.38,-109.95C139.33,-99.32 101.94,-86.53 75.27,-77.4"/>
<polygon fill="#63b8ff" stroke="#63b8ff" points="76.2,-74.02 65.6,-74.09 73.93,-80.64 76.2,-74.02"/>
</a>
</g>
</g>
<!-- Node3 -->
<g id="Node000003" class="node">
<title>Node3</title>
<g id="a_Node000003"><a xlink:href="linear__algebra_8h.html" target="_top" xlink:title=" ">
<polygon fill="white" stroke="#666666" points="223,-74 84,-74 84,-55 223,-55 223,-74"/>
<text text-anchor="middle" x="153.5" y="-62" font-family="Helvetica,sans-Serif" font-size="10.00">occ/core/linear_algebra.h</text>
</a>
</g>
</g>
<!-- Node1&#45;&gt;Node3 -->
<g id="edge2_Node000001_Node000003" class="edge">
<title>Node1&#45;&gt;Node3</title>
<g id="a_edge2_Node000001_Node000003"><a xlink:title=" ">
<path fill="none" stroke="#63b8ff" d="M204.9,-109.95C194.14,-100.65 181.45,-89.68 171.38,-80.96"/>
<polygon fill="#63b8ff" stroke="#63b8ff" points="173.48,-78.15 163.63,-74.26 168.9,-83.45 173.48,-78.15"/>
</a>
</g>
</g>
<!-- Node7 -->
<g id="Node000007" class="node">
<title>Node7</title>
<g id="a_Node000007"><a xlink:href="grid__settings_8h.html" target="_top" xlink:title=" ">
<polygon fill="white" stroke="#666666" points="361.5,-74 241.5,-74 241.5,-55 361.5,-55 361.5,-74"/>
<text text-anchor="middle" x="301.5" y="-62" font-family="Helvetica,sans-Serif" font-size="10.00">occ/io/grid_settings.h</text>
</a>
</g>
</g>
<!-- Node1&#45;&gt;Node7 -->
<g id="edge6_Node000001_Node000007" class="edge">
<title>Node1&#45;&gt;Node7</title>
<g id="a_edge6_Node000001_Node000007"><a xlink:title=" ">
<path fill="none" stroke="#63b8ff" d="M250.1,-109.95C260.86,-100.65 273.55,-89.68 283.62,-80.96"/>
<polygon fill="#63b8ff" stroke="#63b8ff" points="286.1,-83.45 291.37,-74.26 281.52,-78.15 286.1,-83.45"/>
</a>
</g>
</g>
<!-- Node9 -->
<g id="Node000009" class="node">
<title>Node9</title>
<g id="a_Node000009"><a xlink:title=" ">
<polygon fill="#e0e0e0" stroke="#999999" points="427,-74 380,-74 380,-55 427,-55 427,-74"/>
<text text-anchor="middle" x="403.5" y="-62" font-family="Helvetica,sans-Serif" font-size="10.00">vector</text>
</a>
</g>
</g>
<!-- Node1&#45;&gt;Node9 -->
<g id="edge8_Node000001_Node000009" class="edge">
<title>Node1&#45;&gt;Node9</title>
<g id="a_edge8_Node000001_Node000009"><a xlink:title=" ">
<path fill="none" stroke="#63b8ff" d="M281.26,-109.95C310.36,-99.37 345.36,-86.64 370.45,-77.52"/>
<polygon fill="#63b8ff" stroke="#63b8ff" points="371.67,-80.8 379.87,-74.09 369.28,-74.22 371.67,-80.8"/>
</a>
</g>
</g>
<!-- Node4 -->
<g id="Node000004" class="node">
<title>Node4</title>
<g id="a_Node000004"><a xlink:title=" ">
<polygon fill="#e0e0e0" stroke="#999999" points="77,-19 0,-19 0,0 77,0 77,-19"/>
<text text-anchor="middle" x="38.5" y="-7" font-family="Helvetica,sans-Serif" font-size="10.00">Eigen/Dense</text>
</a>
</g>
</g>
<!-- Node3&#45;&gt;Node4 -->
<g id="edge3_Node000003_Node000004" class="edge">
<title>Node3&#45;&gt;Node4</title>
<g id="a_edge3_Node000003_Node000004"><a xlink:title=" ">
<path fill="none" stroke="#63b8ff" d="M135.02,-54.98C116.52,-46.46 87.82,-33.23 66.52,-23.41"/>
<polygon fill="#63b8ff" stroke="#63b8ff" points="67.86,-20.18 57.31,-19.17 64.93,-26.53 67.86,-20.18"/>
</a>
</g>
</g>
<!-- Node5 -->
<g id="Node000005" class="node">
<title>Node5</title>
<g id="a_Node000005"><a xlink:title=" ">
<polygon fill="#e0e0e0" stroke="#999999" points="188,-19 95,-19 95,0 188,0 188,-19"/>
<text text-anchor="middle" x="141.5" y="-7" font-family="Helvetica,sans-Serif" font-size="10.00">Eigen/StdVector</text>
</a>
</g>
</g>
<!-- Node3&#45;&gt;Node5 -->
<g id="edge4_Node000003_Node000005" class="edge">
<title>Node3&#45;&gt;Node5</title>
<g id="a_edge4_Node000003_Node000005"><a xlink:title=" ">
<path fill="none" stroke="#63b8ff" d="M151.52,-54.75C149.93,-47.72 147.64,-37.62 145.65,-28.84"/>
<polygon fill="#63b8ff" stroke="#63b8ff" points="149.07,-28.07 143.44,-19.09 142.24,-29.62 149.07,-28.07"/>
</a>
</g>
</g>
<!-- Node6 -->
<g id="Node000006" class="node">
<title>Node6</title>
<g id="a_Node000006"><a xlink:title=" ">
<polygon fill="#e0e0e0" stroke="#999999" points="273,-19 206,-19 206,0 273,0 273,-19"/>
<text text-anchor="middle" x="239.5" y="-7" font-family="Helvetica,sans-Serif" font-size="10.00">fmt/core.h</text>
</a>
</g>
</g>
<!-- Node3&#45;&gt;Node6 -->
<g id="edge5_Node000003_Node000006" class="edge">
<title>Node3&#45;&gt;Node6</title>
<g id="a_edge5_Node000003_Node000006"><a xlink:title=" ">
<path fill="none" stroke="#63b8ff" d="M167.32,-54.98C180.65,-46.77 201.08,-34.18 216.81,-24.49"/>
<polygon fill="#63b8ff" stroke="#63b8ff" points="218.75,-27.4 225.43,-19.17 215.08,-21.44 218.75,-27.4"/>
</a>
</g>
</g>
<!-- Node8 -->
<g id="Node000008" class="node">
<title>Node8</title>
<g id="a_Node000008"><a xlink:title=" ">
<polygon fill="#e0e0e0" stroke="#999999" points="335.5,-19 291.5,-19 291.5,0 335.5,0 335.5,-19"/>
<text text-anchor="middle" x="313.5" y="-7" font-family="Helvetica,sans-Serif" font-size="10.00">string</text>
</a>
</g>
</g>
<!-- Node7&#45;&gt;Node8 -->
<g id="edge7_Node000007_Node000008" class="edge">
<title>Node7&#45;&gt;Node8</title>
<g id="a_edge7_Node000007_Node000008"><a xlink:title=" ">
<path fill="none" stroke="#63b8ff" d="M303.48,-54.75C305.07,-47.72 307.36,-37.62 309.35,-28.84"/>
<polygon fill="#63b8ff" stroke="#63b8ff" points="312.76,-29.62 311.56,-19.09 305.93,-28.07 312.76,-29.62"/>
</a>
</g>
</g>
</g>
</svg>
