<?xml version="1.0" encoding="UTF-8" standalone="no"?>
<!DOCTYPE svg PUBLIC "-//W3C//DTD SVG 1.1//EN"
 "http://www.w3.org/Graphics/SVG/1.1/DTD/svg11.dtd">
<!-- Generated by graphviz version 2.43.0 (0)
 -->
<!-- Title: /home/runner/work/occ/occ/include/occ/dft/grid_types.h Pages: 1 -->
<svg width="849pt" height="434pt"
 viewBox="0.00 0.00 849.00 434.00" xmlns="http://www.w3.org/2000/svg" xmlns:xlink="http://www.w3.org/1999/xlink">
<g id="graph0" class="graph" transform="scale(1 1) rotate(0) translate(4 430)">
<title>/home/runner/work/occ/occ/include/occ/dft/grid_types.h</title>
<!-- Node1 -->
<g id="Node000001" class="node">
<title>Node1</title>
<g id="a_Node000001"><a xlink:title=" ">
<polygon fill="#999999" stroke="#666666" points="383,-426 255,-426 255,-385 383,-385 383,-426"/>
<text text-anchor="start" x="263" y="-414" font-family="Helvetica,sans-Serif" font-size="10.00">/home/runner/work/occ</text>
<text text-anchor="start" x="263" y="-403" font-family="Helvetica,sans-Serif" font-size="10.00">/occ/include/occ/dft</text>
<text text-anchor="middle" x="319" y="-392" font-family="Helvetica,sans-Serif" font-size="10.00">/grid_types.h</text>
</a>
</g>
</g>
<!-- Node2 -->
<g id="Node000002" class="node">
<title>Node2</title>
<g id="a_Node000002"><a xlink:href="dft_8h.html" target="_top" xlink:title=" ">
<polygon fill="white" stroke="#666666" points="207,-189.5 73,-189.5 73,-159.5 207,-159.5 207,-189.5"/>
<text text-anchor="start" x="81" y="-177.5" font-family="Helvetica,sans-Serif" font-size="10.00">/home/runner/work/occ</text>
<text text-anchor="middle" x="140" y="-166.5" font-family="Helvetica,sans-Serif" font-size="10.00">/occ/include/occ/dft/dft.h</text>
</a>
</g>
</g>
<!-- Node1&#45;&gt;Node2 -->
<g id="edge1_Node000001_Node000002" class="edge">
<title>Node1&#45;&gt;Node2</title>
<g id="a_edge1_Node000001_Node000002"><a xlink:title=" ">
<path fill="none" stroke="#63b8ff" d="M244.69,-397.72C211.77,-390.72 175.67,-376.73 154,-349 116.78,-301.38 129.17,-222.27 136.37,-189.94"/>
<polygon fill="#63b8ff" stroke="#63b8ff" points="244.3,-401.21 254.78,-399.68 245.63,-394.34 244.3,-401.21"/>
</a>
</g>
</g>
<!-- Node6 -->
<g id="Node000006" class="node">
<title>Node6</title>
<g id="a_Node000006"><a xlink:href="grid__utils_8h.html" target="_top" xlink:title=" ">
<polygon fill="white" stroke="#666666" points="291,-349 163,-349 163,-308 291,-308 291,-349"/>
<text text-anchor="start" x="171" y="-337" font-family="Helvetica,sans-Serif" font-size="10.00">/home/runner/work/occ</text>
<text text-anchor="start" x="171" y="-326" font-family="Helvetica,sans-Serif" font-size="10.00">/occ/include/occ/dft</text>
<text text-anchor="middle" x="227" y="-315" font-family="Helvetica,sans-Serif" font-size="10.00">/grid_utils.h</text>
</a>
</g>
</g>
<!-- Node1&#45;&gt;Node6 -->
<g id="edge5_Node000001_Node000006" class="edge">
<title>Node1&#45;&gt;Node6</title>
<g id="a_edge5_Node000001_Node000006"><a xlink:title=" ">
<path fill="none" stroke="#63b8ff" d="M286.92,-378.35C275.12,-368.73 261.98,-358.01 251.01,-349.07"/>
<polygon fill="#63b8ff" stroke="#63b8ff" points="284.87,-381.19 294.83,-384.79 289.29,-375.76 284.87,-381.19"/>
</a>
</g>
</g>
<!-- Node7 -->
<g id="Node000007" class="node">
<title>Node7</title>
<g id="a_Node000007"><a xlink:href="molecular__grid_8h.html" target="_top" xlink:title=" ">
<polygon fill="white" stroke="#666666" points="512,-272 384,-272 384,-231 512,-231 512,-272"/>
<text text-anchor="start" x="392" y="-260" font-family="Helvetica,sans-Serif" font-size="10.00">/home/runner/work/occ</text>
<text text-anchor="start" x="392" y="-249" font-family="Helvetica,sans-Serif" font-size="10.00">/occ/include/occ/dft</text>
<text text-anchor="middle" x="448" y="-238" font-family="Helvetica,sans-Serif" font-size="10.00">/molecular_grid.h</text>
</a>
</g>
</g>
<!-- Node1&#45;&gt;Node7 -->
<g id="edge6_Node000001_Node000007" class="edge">
<title>Node1&#45;&gt;Node7</title>
<g id="a_edge6_Node000001_Node000007"><a xlink:title=" ">
<path fill="none" stroke="#63b8ff" d="M332.61,-375.95C343.06,-355.71 358.78,-328.6 377,-308 388.92,-294.52 404.46,-281.96 417.96,-272.2"/>
<polygon fill="#63b8ff" stroke="#63b8ff" points="329.42,-374.49 328.04,-384.99 335.67,-377.64 329.42,-374.49"/>
</a>
</g>
</g>
<!-- Node12 -->
<g id="Node000012" class="node">
<title>Node12</title>
<g id="a_Node000012"><a xlink:href="molecular__grid__points_8h.html" target="_top" xlink:title=" ">
<polygon fill="white" stroke="#666666" points="522.5,-349 385.5,-349 385.5,-308 522.5,-308 522.5,-349"/>
<text text-anchor="start" x="393.5" y="-337" font-family="Helvetica,sans-Serif" font-size="10.00">/home/runner/work/occ</text>
<text text-anchor="start" x="393.5" y="-326" font-family="Helvetica,sans-Serif" font-size="10.00">/occ/include/occ/dft</text>
<text text-anchor="middle" x="454" y="-315" font-family="Helvetica,sans-Serif" font-size="10.00">/molecular_grid_points.h</text>
</a>
</g>
</g>
<!-- Node1&#45;&gt;Node12 -->
<g id="edge12_Node000001_Node000012" class="edge">
<title>Node1&#45;&gt;Node12</title>
<g id="a_edge12_Node000001_Node000012"><a xlink:title=" ">
<path fill="none" stroke="#63b8ff" d="M363.25,-379.92C381.2,-369.95 401.65,-358.58 418.59,-349.17"/>
<polygon fill="#63b8ff" stroke="#63b8ff" points="361.16,-377.07 354.12,-384.99 364.56,-383.19 361.16,-377.07"/>
</a>
</g>
</g>
<!-- Node13 -->
<g id="Node000013" class="node">
<title>Node13</title>
<g id="a_Node000013"><a xlink:href="nonlocal__correlation_8h.html" target="_top" xlink:title=" ">
<polygon fill="white" stroke="#666666" points="329,-272 201,-272 201,-231 329,-231 329,-272"/>
<text text-anchor="start" x="209" y="-260" font-family="Helvetica,sans-Serif" font-size="10.00">/home/runner/work/occ</text>
<text text-anchor="start" x="209" y="-249" font-family="Helvetica,sans-Serif" font-size="10.00">/occ/include/occ/dft</text>
<text text-anchor="middle" x="265" y="-238" font-family="Helvetica,sans-Serif" font-size="10.00">/nonlocal_correlation.h</text>
</a>
</g>
</g>
<!-- Node1&#45;&gt;Node13 -->
<g id="edge14_Node000001_Node000013" class="edge">
<title>Node1&#45;&gt;Node13</title>
<g id="a_edge14_Node000001_Node000013"><a xlink:title=" ">
<path fill="none" stroke="#63b8ff" d="M315.99,-374.56C313.34,-355.08 308.52,-329.42 300,-308 294.95,-295.3 286.94,-282.31 279.86,-272.09"/>
<polygon fill="#63b8ff" stroke="#63b8ff" points="312.54,-375.19 317.25,-384.68 319.48,-374.32 312.54,-375.19"/>
</a>
</g>
</g>
<!-- Node3 -->
<g id="Node000003" class="node">
<title>Node3</title>
<g id="a_Node000003"><a xlink:href="smd__solvation_8h.html" target="_top" xlink:title=" ">
<polygon fill="white" stroke="#666666" points="132,-118 0,-118 0,-77 132,-77 132,-118"/>
<text text-anchor="start" x="8" y="-106" font-family="Helvetica,sans-Serif" font-size="10.00">/home/runner/work/occ</text>
<text text-anchor="start" x="8" y="-95" font-family="Helvetica,sans-Serif" font-size="10.00">/occ/include/occ/cg/smd</text>
<text text-anchor="middle" x="66" y="-84" font-family="Helvetica,sans-Serif" font-size="10.00">_solvation.h</text>
</a>
</g>
</g>
<!-- Node2&#45;&gt;Node3 -->
<g id="edge2_Node000002_Node000003" class="edge">
<title>Node2&#45;&gt;Node3</title>
<g id="a_edge2_Node000002_Node000003"><a xlink:title=" ">
<path fill="none" stroke="#63b8ff" d="M118.86,-152.07C108.34,-141.41 95.72,-128.62 85.44,-118.2"/>
<polygon fill="#63b8ff" stroke="#63b8ff" points="116.57,-154.73 126.08,-159.39 121.55,-149.82 116.57,-154.73"/>
</a>
</g>
</g>
<!-- Node5 -->
<g id="Node000005" class="node">
<title>Node5</title>
<g id="a_Node000005"><a xlink:href="point__functors_8h.html" target="_top" xlink:title=" ">
<polygon fill="white" stroke="#666666" points="278,-118 150,-118 150,-77 278,-77 278,-118"/>
<text text-anchor="start" x="158" y="-106" font-family="Helvetica,sans-Serif" font-size="10.00">/home/runner/work/occ</text>
<text text-anchor="start" x="158" y="-95" font-family="Helvetica,sans-Serif" font-size="10.00">/occ/include/occ/main</text>
<text text-anchor="middle" x="214" y="-84" font-family="Helvetica,sans-Serif" font-size="10.00">/point_functors.h</text>
</a>
</g>
</g>
<!-- Node2&#45;&gt;Node5 -->
<g id="edge4_Node000002_Node000005" class="edge">
<title>Node2&#45;&gt;Node5</title>
<g id="a_edge4_Node000002_Node000005"><a xlink:title=" ">
<path fill="none" stroke="#63b8ff" d="M161.14,-152.07C171.66,-141.41 184.28,-128.62 194.56,-118.2"/>
<polygon fill="#63b8ff" stroke="#63b8ff" points="158.45,-149.82 153.92,-159.39 163.43,-154.73 158.45,-149.82"/>
</a>
</g>
</g>
<!-- Node4 -->
<g id="Node000004" class="node">
<title>Node4</title>
<g id="a_Node000004"><a xlink:href="crystal__growth_8h.html" target="_top" xlink:title=" ">
<polygon fill="white" stroke="#666666" points="130,-41 2,-41 2,0 130,0 130,-41"/>
<text text-anchor="start" x="10" y="-29" font-family="Helvetica,sans-Serif" font-size="10.00">/home/runner/work/occ</text>
<text text-anchor="start" x="10" y="-18" font-family="Helvetica,sans-Serif" font-size="10.00">/occ/include/occ/driver</text>
<text text-anchor="middle" x="66" y="-7" font-family="Helvetica,sans-Serif" font-size="10.00">/crystal_growth.h</text>
</a>
</g>
</g>
<!-- Node3&#45;&gt;Node4 -->
<g id="edge3_Node000003_Node000004" class="edge">
<title>Node3&#45;&gt;Node4</title>
<g id="a_edge3_Node000003_Node000004"><a xlink:title=" ">
<path fill="none" stroke="#63b8ff" d="M66,-66.69C66,-58.08 66,-48.9 66,-41.07"/>
<polygon fill="#63b8ff" stroke="#63b8ff" points="62.5,-66.79 66,-76.79 69.5,-66.79 62.5,-66.79"/>
</a>
</g>
</g>
<!-- Node7&#45;&gt;Node2 -->
<g id="edge7_Node000007_Node000002" class="edge">
<title>Node7&#45;&gt;Node2</title>
<g id="a_edge7_Node000007_Node000002"><a xlink:title=" ">
<path fill="none" stroke="#63b8ff" d="M374.12,-233.15C328.5,-222.36 268.8,-208.09 216,-195 208.99,-193.26 201.63,-191.41 194.36,-189.56"/>
<polygon fill="#63b8ff" stroke="#63b8ff" points="373.39,-236.57 383.92,-235.47 375,-229.76 373.39,-236.57"/>
</a>
</g>
</g>
<!-- Node8 -->
<g id="Node000008" class="node">
<title>Node8</title>
<g id="a_Node000008"><a xlink:href="dft_2hirshfeld_8h.html" target="_top" xlink:title=" ">
<polygon fill="white" stroke="#666666" points="353,-195 225,-195 225,-154 353,-154 353,-195"/>
<text text-anchor="start" x="233" y="-183" font-family="Helvetica,sans-Serif" font-size="10.00">/home/runner/work/occ</text>
<text text-anchor="start" x="233" y="-172" font-family="Helvetica,sans-Serif" font-size="10.00">/occ/include/occ/dft</text>
<text text-anchor="middle" x="289" y="-161" font-family="Helvetica,sans-Serif" font-size="10.00">/hirshfeld.h</text>
</a>
</g>
</g>
<!-- Node7&#45;&gt;Node8 -->
<g id="edge8_Node000007_Node000008" class="edge">
<title>Node7&#45;&gt;Node8</title>
<g id="a_edge8_Node000007_Node000008"><a xlink:title=" ">
<path fill="none" stroke="#63b8ff" d="M397.59,-226.72C375.95,-216.51 350.97,-204.73 330.43,-195.04"/>
<polygon fill="#63b8ff" stroke="#63b8ff" points="396.1,-229.89 406.64,-230.99 399.09,-223.56 396.1,-229.89"/>
</a>
</g>
</g>
<!-- Node9 -->
<g id="Node000009" class="node">
<title>Node9</title>
<g id="a_Node000009"><a xlink:href="seminumerical__exchange_8h.html" target="_top" xlink:title=" ">
<polygon fill="white" stroke="#666666" points="525,-195 371,-195 371,-154 525,-154 525,-195"/>
<text text-anchor="start" x="379" y="-183" font-family="Helvetica,sans-Serif" font-size="10.00">/home/runner/work/occ</text>
<text text-anchor="start" x="379" y="-172" font-family="Helvetica,sans-Serif" font-size="10.00">/occ/include/occ/dft</text>
<text text-anchor="middle" x="448" y="-161" font-family="Helvetica,sans-Serif" font-size="10.00">/seminumerical_exchange.h</text>
</a>
</g>
</g>
<!-- Node7&#45;&gt;Node9 -->
<g id="edge9_Node000007_Node000009" class="edge">
<title>Node7&#45;&gt;Node9</title>
<g id="a_edge9_Node000007_Node000009"><a xlink:title=" ">
<path fill="none" stroke="#63b8ff" d="M448,-220.69C448,-212.08 448,-202.9 448,-195.07"/>
<polygon fill="#63b8ff" stroke="#63b8ff" points="444.5,-220.79 448,-230.79 451.5,-220.79 444.5,-220.79"/>
</a>
</g>
</g>
<!-- Node10 -->
<g id="Node000010" class="node">
<title>Node10</title>
<g id="a_Node000010"><a xlink:href="voronoi__charges_8h.html" target="_top" xlink:title=" ">
<polygon fill="white" stroke="#666666" points="671,-195 543,-195 543,-154 671,-154 671,-195"/>
<text text-anchor="start" x="551" y="-183" font-family="Helvetica,sans-Serif" font-size="10.00">/home/runner/work/occ</text>
<text text-anchor="start" x="551" y="-172" font-family="Helvetica,sans-Serif" font-size="10.00">/occ/include/occ/dft</text>
<text text-anchor="middle" x="607" y="-161" font-family="Helvetica,sans-Serif" font-size="10.00">/voronoi_charges.h</text>
</a>
</g>
</g>
<!-- Node7&#45;&gt;Node10 -->
<g id="edge10_Node000007_Node000010" class="edge">
<title>Node7&#45;&gt;Node10</title>
<g id="a_edge10_Node000007_Node000010"><a xlink:title=" ">
<path fill="none" stroke="#63b8ff" d="M498.41,-226.72C520.05,-216.51 545.03,-204.73 565.57,-195.04"/>
<polygon fill="#63b8ff" stroke="#63b8ff" points="496.91,-223.56 489.36,-230.99 499.9,-229.89 496.91,-223.56"/>
</a>
</g>
</g>
<!-- Node11 -->
<g id="Node000011" class="node">
<title>Node11</title>
<g id="a_Node000011"><a xlink:href="xdm_8h.html" target="_top" xlink:title=" ">
<polygon fill="white" stroke="#666666" points="841,-189.5 689,-189.5 689,-159.5 841,-159.5 841,-189.5"/>
<text text-anchor="start" x="697" y="-177.5" font-family="Helvetica,sans-Serif" font-size="10.00">/home/runner/work/occ</text>
<text text-anchor="middle" x="765" y="-166.5" font-family="Helvetica,sans-Serif" font-size="10.00">/occ/include/occ/xdm/xdm.h</text>
</a>
</g>
</g>
<!-- Node7&#45;&gt;Node11 -->
<g id="edge11_Node000007_Node000011" class="edge">
<title>Node7&#45;&gt;Node11</title>
<g id="a_edge11_Node000007_Node000011"><a xlink:title=" ">
<path fill="none" stroke="#63b8ff" d="M522.01,-232.99C577.97,-219.75 653.78,-201.81 705.76,-189.51"/>
<polygon fill="#63b8ff" stroke="#63b8ff" points="521.08,-229.61 512.15,-235.32 522.69,-236.43 521.08,-229.61"/>
</a>
</g>
</g>
<!-- Node12&#45;&gt;Node7 -->
<g id="edge13_Node000012_Node000007" class="edge">
<title>Node12&#45;&gt;Node7</title>
<g id="a_edge13_Node000012_Node000007"><a xlink:title=" ">
<path fill="none" stroke="#63b8ff" d="M451.62,-297.69C450.93,-289.08 450.19,-279.9 449.57,-272.07"/>
<polygon fill="#63b8ff" stroke="#63b8ff" points="448.14,-298.11 452.42,-307.79 455.11,-297.55 448.14,-298.11"/>
</a>
</g>
</g>
<!-- Node13&#45;&gt;Node2 -->
<g id="edge15_Node000013_Node000002" class="edge">
<title>Node13&#45;&gt;Node2</title>
<g id="a_edge15_Node000013_Node000002"><a xlink:title=" ">
<path fill="none" stroke="#63b8ff" d="M223.87,-225.82C203.9,-213.84 180.62,-199.87 163.67,-189.7"/>
<polygon fill="#63b8ff" stroke="#63b8ff" points="222.11,-228.85 232.48,-230.99 225.71,-222.84 222.11,-228.85"/>
</a>
</g>
</g>
</g>
</svg>
