<?xml version="1.0" encoding="UTF-8" standalone="no"?>
<!DOCTYPE svg PUBLIC "-//W3C//DTD SVG 1.1//EN"
 "http://www.w3.org/Graphics/SVG/1.1/DTD/svg11.dtd">
<!-- Generated by graphviz version 2.43.0 (0)
 -->
<!-- Title: /home/runner/work/occ/occ/include/occ/gto/gto.h Pages: 1 -->
<svg width="1225pt" height="313pt"
 viewBox="0.00 0.00 1224.50 313.00" xmlns="http://www.w3.org/2000/svg" xmlns:xlink="http://www.w3.org/1999/xlink">
<g id="graph0" class="graph" transform="scale(1 1) rotate(0) translate(4 309)">
<title>/home/runner/work/occ/occ/include/occ/gto/gto.h</title>
<!-- Node1 -->
<g id="Node000001" class="node">
<title>Node1</title>
<g id="a_Node000001"><a xlink:title=" ">
<polygon fill="#999999" stroke="#666666" points="852,-305 712,-305 712,-275 852,-275 852,-305"/>
<text text-anchor="start" x="720" y="-293" font-family="Helvetica,sans-Serif" font-size="10.00">/home/runner/work/occ</text>
<text text-anchor="middle" x="782" y="-282" font-family="Helvetica,sans-Serif" font-size="10.00">/occ/include/occ/gto/gto.h</text>
</a>
</g>
</g>
<!-- Node2 -->
<g id="Node000002" class="node">
<title>Node2</title>
<g id="a_Node000002"><a xlink:title=" ">
<polygon fill="#e0e0e0" stroke="#999999" points="146,-129 104,-129 104,-110 146,-110 146,-129"/>
<text text-anchor="middle" x="125" y="-117" font-family="Helvetica,sans-Serif" font-size="10.00">array</text>
</a>
</g>
</g>
<!-- Node1&#45;&gt;Node2 -->
<g id="edge1_Node000001_Node000002" class="edge">
<title>Node1&#45;&gt;Node2</title>
<g id="a_edge1_Node000001_Node000002"><a xlink:title=" ">
<path fill="none" stroke="#63b8ff" d="M711.83,-289.33C608.76,-288.26 411.11,-280.34 249,-239 189,-223.7 155.06,-235.71 121,-184 112.27,-170.75 114.6,-152.39 118.32,-138.81"/>
<polygon fill="#63b8ff" stroke="#63b8ff" points="121.7,-139.73 121.42,-129.14 115.03,-137.6 121.7,-139.73"/>
</a>
</g>
</g>
<!-- Node3 -->
<g id="Node000003" class="node">
<title>Node3</title>
<g id="a_Node000003"><a xlink:title=" ">
<polygon fill="#e0e0e0" stroke="#999999" points="192.5,-19 125.5,-19 125.5,0 192.5,0 192.5,-19"/>
<text text-anchor="middle" x="159" y="-7" font-family="Helvetica,sans-Serif" font-size="10.00">fmt/core.h</text>
</a>
</g>
</g>
<!-- Node1&#45;&gt;Node3 -->
<g id="edge2_Node000001_Node000003" class="edge">
<title>Node1&#45;&gt;Node3</title>
<g id="a_edge2_Node000001_Node000003"><a xlink:title=" ">
<path fill="none" stroke="#63b8ff" d="M711.78,-286.04C571.58,-279.7 261.54,-263.36 158,-239 84.33,-221.67 0,-251.18 0,-175.5 0,-175.5 0,-175.5 0,-118.5 0,-62.42 68.51,-33.43 115.59,-20.13"/>
<polygon fill="#63b8ff" stroke="#63b8ff" points="116.53,-23.5 125.28,-17.52 114.71,-16.74 116.53,-23.5"/>
</a>
</g>
</g>
<!-- Node4 -->
<g id="Node000004" class="node">
<title>Node4</title>
<g id="a_Node000004"><a xlink:title=" ">
<polygon fill="#e0e0e0" stroke="#999999" points="1081,-239 967,-239 967,-220 1081,-220 1081,-239"/>
<text text-anchor="middle" x="1024" y="-227" font-family="Helvetica,sans-Serif" font-size="10.00">gau2grid/gau2grid.h</text>
</a>
</g>
</g>
<!-- Node1&#45;&gt;Node4 -->
<g id="edge3_Node000001_Node000004" class="edge">
<title>Node1&#45;&gt;Node4</title>
<g id="a_edge3_Node000001_Node000004"><a xlink:title=" ">
<path fill="none" stroke="#63b8ff" d="M839.97,-274.99C882.54,-264.7 939.57,-250.91 978.8,-241.43"/>
<polygon fill="#63b8ff" stroke="#63b8ff" points="979.72,-244.81 988.62,-239.05 978.07,-238 979.72,-244.81"/>
</a>
</g>
</g>
<!-- Node5 -->
<g id="Node000005" class="node">
<title>Node5</title>
<g id="a_Node000005"><a xlink:href="linear__algebra_8h.html" target="_top" xlink:title=" ">
<polygon fill="white" stroke="#666666" points="409.5,-74 270.5,-74 270.5,-55 409.5,-55 409.5,-74"/>
<text text-anchor="middle" x="340" y="-62" font-family="Helvetica,sans-Serif" font-size="10.00">occ/core/linear_algebra.h</text>
</a>
</g>
</g>
<!-- Node1&#45;&gt;Node5 -->
<g id="edge4_Node000001_Node000005" class="edge">
<title>Node1&#45;&gt;Node5</title>
<g id="a_edge4_Node000001_Node000005"><a xlink:title=" ">
<path fill="none" stroke="#63b8ff" d="M729.87,-274.97C652.74,-252.56 505.84,-203.5 399,-129 380.57,-116.15 363.57,-96.69 352.6,-82.7"/>
<polygon fill="#63b8ff" stroke="#63b8ff" points="355.15,-80.27 346.31,-74.42 349.57,-84.5 355.15,-80.27"/>
</a>
</g>
</g>
<!-- Node8 -->
<g id="Node000008" class="node">
<title>Node8</title>
<g id="a_Node000008"><a xlink:href="log_8h.html" target="_top" xlink:title=" ">
<polygon fill="white" stroke="#666666" points="1013,-184 929,-184 929,-165 1013,-165 1013,-184"/>
<text text-anchor="middle" x="971" y="-172" font-family="Helvetica,sans-Serif" font-size="10.00">occ/core/log.h</text>
</a>
</g>
</g>
<!-- Node1&#45;&gt;Node8 -->
<g id="edge8_Node000001_Node000008" class="edge">
<title>Node1&#45;&gt;Node8</title>
<g id="a_edge8_Node000001_Node000008"><a xlink:title=" ">
<path fill="none" stroke="#63b8ff" d="M837.02,-274.97C862.18,-266.94 891.55,-255.18 915,-239 933.26,-226.4 949.46,-206.59 959.67,-192.44"/>
<polygon fill="#63b8ff" stroke="#63b8ff" points="962.64,-194.31 965.49,-184.1 956.9,-190.3 962.64,-194.31"/>
</a>
</g>
</g>
<!-- Node11 -->
<g id="Node000011" class="node">
<title>Node11</title>
<g id="a_Node000011"><a xlink:title=" ">
<polygon fill="#e0e0e0" stroke="#999999" points="922,-129 878,-129 878,-110 922,-110 922,-129"/>
<text text-anchor="middle" x="900" y="-117" font-family="Helvetica,sans-Serif" font-size="10.00">string</text>
</a>
</g>
</g>
<!-- Node1&#45;&gt;Node11 -->
<g id="edge38_Node000001_Node000011" class="edge">
<title>Node1&#45;&gt;Node11</title>
<g id="a_edge38_Node000001_Node000011"><a xlink:title=" ">
<path fill="none" stroke="#63b8ff" d="M791.86,-274.92C813.43,-244.12 864.74,-170.85 888.08,-137.53"/>
<polygon fill="#63b8ff" stroke="#63b8ff" points="891,-139.45 893.87,-129.25 885.27,-135.44 891,-139.45"/>
</a>
</g>
</g>
<!-- Node12 -->
<g id="Node000012" class="node">
<title>Node12</title>
<g id="a_Node000012"><a xlink:title=" ">
<polygon fill="#e0e0e0" stroke="#999999" points="987.5,-129 940.5,-129 940.5,-110 987.5,-110 987.5,-129"/>
<text text-anchor="middle" x="964" y="-117" font-family="Helvetica,sans-Serif" font-size="10.00">vector</text>
</a>
</g>
</g>
<!-- Node1&#45;&gt;Node12 -->
<g id="edge39_Node000001_Node000012" class="edge">
<title>Node1&#45;&gt;Node12</title>
<g id="a_edge39_Node000001_Node000012"><a xlink:title=" ">
<path fill="none" stroke="#63b8ff" d="M797.93,-274.61C808.94,-264.65 823.9,-251.06 837,-239 876.86,-202.29 923.33,-158.73 947.5,-136.03"/>
<polygon fill="#63b8ff" stroke="#63b8ff" points="949.91,-138.56 954.8,-129.16 945.11,-133.46 949.91,-138.56"/>
</a>
</g>
</g>
<!-- Node13 -->
<g id="Node000013" class="node">
<title>Node13</title>
<g id="a_Node000013"><a xlink:href="timings_8h.html" target="_top" xlink:title=" ">
<polygon fill="white" stroke="#666666" points="835,-184 729,-184 729,-165 835,-165 835,-184"/>
<text text-anchor="middle" x="782" y="-172" font-family="Helvetica,sans-Serif" font-size="10.00">occ/core/timings.h</text>
</a>
</g>
</g>
<!-- Node1&#45;&gt;Node13 -->
<g id="edge13_Node000001_Node000013" class="edge">
<title>Node1&#45;&gt;Node13</title>
<g id="a_edge13_Node000001_Node000013"><a xlink:title=" ">
<path fill="none" stroke="#63b8ff" d="M782,-274.63C782,-254.21 782,-216.81 782,-194.24"/>
<polygon fill="#63b8ff" stroke="#63b8ff" points="785.5,-194.23 782,-184.23 778.5,-194.23 785.5,-194.23"/>
</a>
</g>
</g>
<!-- Node15 -->
<g id="Node000015" class="node">
<title>Node15</title>
<g id="a_Node000015"><a xlink:href="util_8h.html" target="_top" xlink:title=" ">
<polygon fill="white" stroke="#666666" points="710.5,-184 625.5,-184 625.5,-165 710.5,-165 710.5,-184"/>
<text text-anchor="middle" x="668" y="-172" font-family="Helvetica,sans-Serif" font-size="10.00">occ/core/util.h</text>
</a>
</g>
</g>
<!-- Node1&#45;&gt;Node15 -->
<g id="edge16_Node000001_Node000015" class="edge">
<title>Node1&#45;&gt;Node15</title>
<g id="a_edge16_Node000001_Node000015"><a xlink:title=" ">
<path fill="none" stroke="#63b8ff" d="M767.56,-274.63C746.22,-253.37 706.37,-213.71 684.11,-191.54"/>
<polygon fill="#63b8ff" stroke="#63b8ff" points="686.32,-188.8 676.77,-184.23 681.39,-193.77 686.32,-188.8"/>
</a>
</g>
</g>
<!-- Node20 -->
<g id="Node000020" class="node">
<title>Node20</title>
<g id="a_Node000020"><a xlink:href="shell__order_8h.html" target="_top" xlink:title=" ">
<polygon fill="white" stroke="#666666" points="1216.5,-239 1099.5,-239 1099.5,-220 1216.5,-220 1216.5,-239"/>
<text text-anchor="middle" x="1158" y="-227" font-family="Helvetica,sans-Serif" font-size="10.00">occ/gto/shell_order.h</text>
</a>
</g>
</g>
<!-- Node1&#45;&gt;Node20 -->
<g id="edge26_Node000001_Node000020" class="edge">
<title>Node1&#45;&gt;Node20</title>
<g id="a_edge26_Node000001_Node000020"><a xlink:title=" ">
<path fill="none" stroke="#63b8ff" d="M852.28,-278.07C921.43,-267.31 1026.12,-251.02 1093.28,-240.57"/>
<polygon fill="#63b8ff" stroke="#63b8ff" points="1093.97,-244 1103.31,-239.01 1092.89,-237.09 1093.97,-244"/>
</a>
</g>
</g>
<!-- Node22 -->
<g id="Node000022" class="node">
<title>Node22</title>
<g id="a_Node000022"><a xlink:href="shell_8h.html" target="_top" xlink:title=" ">
<polygon fill="white" stroke="#666666" points="345.5,-239 258.5,-239 258.5,-220 345.5,-220 345.5,-239"/>
<text text-anchor="middle" x="302" y="-227" font-family="Helvetica,sans-Serif" font-size="10.00">occ/qm/shell.h</text>
</a>
</g>
</g>
<!-- Node1&#45;&gt;Node22 -->
<g id="edge28_Node000001_Node000022" class="edge">
<title>Node1&#45;&gt;Node22</title>
<g id="a_edge28_Node000001_Node000022"><a xlink:title=" ">
<path fill="none" stroke="#63b8ff" d="M711.69,-280.96C628.59,-271.38 486.15,-254.68 364,-239 361.31,-238.66 358.56,-238.3 355.79,-237.93"/>
<polygon fill="#63b8ff" stroke="#63b8ff" points="356.06,-234.44 345.68,-236.58 355.13,-241.38 356.06,-234.44"/>
</a>
</g>
</g>
<!-- Node5&#45;&gt;Node3 -->
<g id="edge7_Node000005_Node000003" class="edge">
<title>Node5&#45;&gt;Node3</title>
<g id="a_edge7_Node000005_Node000003"><a xlink:title=" ">
<path fill="none" stroke="#63b8ff" d="M310.92,-54.98C280.4,-46.05 232.24,-31.94 198.34,-22.02"/>
<polygon fill="#63b8ff" stroke="#63b8ff" points="198.89,-18.53 188.31,-19.08 196.92,-25.25 198.89,-18.53"/>
</a>
</g>
</g>
<!-- Node6 -->
<g id="Node000006" class="node">
<title>Node6</title>
<g id="a_Node000006"><a xlink:title=" ">
<polygon fill="#e0e0e0" stroke="#999999" points="429.5,-19 352.5,-19 352.5,0 429.5,0 429.5,-19"/>
<text text-anchor="middle" x="391" y="-7" font-family="Helvetica,sans-Serif" font-size="10.00">Eigen/Dense</text>
</a>
</g>
</g>
<!-- Node5&#45;&gt;Node6 -->
<g id="edge5_Node000005_Node000006" class="edge">
<title>Node5&#45;&gt;Node6</title>
<g id="a_edge5_Node000005_Node000006"><a xlink:title=" ">
<path fill="none" stroke="#63b8ff" d="M348.42,-54.75C355.77,-47.11 366.63,-35.82 375.54,-26.56"/>
<polygon fill="#63b8ff" stroke="#63b8ff" points="378.32,-28.72 382.74,-19.09 373.28,-23.87 378.32,-28.72"/>
</a>
</g>
</g>
<!-- Node7 -->
<g id="Node000007" class="node">
<title>Node7</title>
<g id="a_Node000007"><a xlink:title=" ">
<polygon fill="#e0e0e0" stroke="#999999" points="334.5,-19 241.5,-19 241.5,0 334.5,0 334.5,-19"/>
<text text-anchor="middle" x="288" y="-7" font-family="Helvetica,sans-Serif" font-size="10.00">Eigen/StdVector</text>
</a>
</g>
</g>
<!-- Node5&#45;&gt;Node7 -->
<g id="edge6_Node000005_Node000007" class="edge">
<title>Node5&#45;&gt;Node7</title>
<g id="a_edge6_Node000005_Node000007"><a xlink:title=" ">
<path fill="none" stroke="#63b8ff" d="M331.41,-54.75C323.84,-47.03 312.62,-35.6 303.49,-26.28"/>
<polygon fill="#63b8ff" stroke="#63b8ff" points="305.93,-23.78 296.43,-19.09 300.93,-28.68 305.93,-23.78"/>
</a>
</g>
</g>
<!-- Node9 -->
<g id="Node000009" class="node">
<title>Node9</title>
<g id="a_Node000009"><a xlink:title=" ">
<polygon fill="#e0e0e0" stroke="#999999" points="1181.5,-129 1116.5,-129 1116.5,-110 1181.5,-110 1181.5,-129"/>
<text text-anchor="middle" x="1149" y="-117" font-family="Helvetica,sans-Serif" font-size="10.00">functional</text>
</a>
</g>
</g>
<!-- Node8&#45;&gt;Node9 -->
<g id="edge9_Node000008_Node000009" class="edge">
<title>Node8&#45;&gt;Node9</title>
<g id="a_edge9_Node000008_Node000009"><a xlink:title=" ">
<path fill="none" stroke="#63b8ff" d="M999.6,-164.98C1029.61,-156.05 1076.98,-141.94 1110.32,-132.02"/>
<polygon fill="#63b8ff" stroke="#63b8ff" points="1111.59,-135.29 1120.18,-129.08 1109.59,-128.58 1111.59,-135.29"/>
</a>
</g>
</g>
<!-- Node10 -->
<g id="Node000010" class="node">
<title>Node10</title>
<g id="a_Node000010"><a xlink:title=" ">
<polygon fill="#e0e0e0" stroke="#999999" points="1098.5,-129 1005.5,-129 1005.5,-110 1098.5,-110 1098.5,-129"/>
<text text-anchor="middle" x="1052" y="-117" font-family="Helvetica,sans-Serif" font-size="10.00">spdlog/spdlog.h</text>
</a>
</g>
</g>
<!-- Node8&#45;&gt;Node10 -->
<g id="edge10_Node000008_Node000010" class="edge">
<title>Node8&#45;&gt;Node10</title>
<g id="a_edge10_Node000008_Node000010"><a xlink:title=" ">
<path fill="none" stroke="#63b8ff" d="M984.01,-164.98C996.46,-156.84 1015.46,-144.41 1030.21,-134.76"/>
<polygon fill="#63b8ff" stroke="#63b8ff" points="1032.3,-137.57 1038.75,-129.17 1028.46,-131.72 1032.3,-137.57"/>
</a>
</g>
</g>
<!-- Node8&#45;&gt;Node11 -->
<g id="edge11_Node000008_Node000011" class="edge">
<title>Node8&#45;&gt;Node11</title>
<g id="a_edge11_Node000008_Node000011"><a xlink:title=" ">
<path fill="none" stroke="#63b8ff" d="M959.59,-164.98C948.89,-157 932.66,-144.88 919.84,-135.31"/>
<polygon fill="#63b8ff" stroke="#63b8ff" points="921.72,-132.35 911.61,-129.17 917.53,-137.96 921.72,-132.35"/>
</a>
</g>
</g>
<!-- Node8&#45;&gt;Node12 -->
<g id="edge12_Node000008_Node000012" class="edge">
<title>Node8&#45;&gt;Node12</title>
<g id="a_edge12_Node000008_Node000012"><a xlink:title=" ">
<path fill="none" stroke="#63b8ff" d="M969.84,-164.75C968.93,-157.8 967.61,-147.85 966.46,-139.13"/>
<polygon fill="#63b8ff" stroke="#63b8ff" points="969.91,-138.54 965.13,-129.09 962.97,-139.46 969.91,-138.54"/>
</a>
</g>
</g>
<!-- Node13&#45;&gt;Node11 -->
<g id="edge15_Node000013_Node000011" class="edge">
<title>Node13&#45;&gt;Node11</title>
<g id="a_edge15_Node000013_Node000011"><a xlink:title=" ">
<path fill="none" stroke="#63b8ff" d="M800.96,-164.98C820.03,-156.42 849.66,-143.11 871.55,-133.28"/>
<polygon fill="#63b8ff" stroke="#63b8ff" points="873.01,-136.46 880.7,-129.17 870.14,-130.07 873.01,-136.46"/>
</a>
</g>
</g>
<!-- Node14 -->
<g id="Node000014" class="node">
<title>Node14</title>
<g id="a_Node000014"><a xlink:title=" ">
<polygon fill="#e0e0e0" stroke="#999999" points="860,-129 810,-129 810,-110 860,-110 860,-129"/>
<text text-anchor="middle" x="835" y="-117" font-family="Helvetica,sans-Serif" font-size="10.00">chrono</text>
</a>
</g>
</g>
<!-- Node13&#45;&gt;Node14 -->
<g id="edge14_Node000013_Node000014" class="edge">
<title>Node13&#45;&gt;Node14</title>
<g id="a_edge14_Node000013_Node000014"><a xlink:title=" ">
<path fill="none" stroke="#63b8ff" d="M790.75,-164.75C798.47,-157.03 809.9,-145.6 819.22,-136.28"/>
<polygon fill="#63b8ff" stroke="#63b8ff" points="821.81,-138.64 826.41,-129.09 816.86,-133.69 821.81,-138.64"/>
</a>
</g>
</g>
<!-- Node15&#45;&gt;Node3 -->
<g id="edge20_Node000015_Node000003" class="edge">
<title>Node15&#45;&gt;Node3</title>
<g id="a_edge20_Node000015_Node000003"><a xlink:title=" ">
<path fill="none" stroke="#63b8ff" d="M625.14,-172.17C583.27,-169.03 519.24,-159.16 473,-129 438.68,-106.61 452.92,-76.45 418,-55 399.95,-43.91 271.78,-25.49 202.77,-16.21"/>
<polygon fill="#63b8ff" stroke="#63b8ff" points="203,-12.71 192.63,-14.86 202.08,-19.65 203,-12.71"/>
</a>
</g>
</g>
<!-- Node15&#45;&gt;Node5 -->
<g id="edge23_Node000015_Node000005" class="edge">
<title>Node15&#45;&gt;Node5</title>
<g id="a_edge23_Node000015_Node000005"><a xlink:title=" ">
<path fill="none" stroke="#63b8ff" d="M625.49,-169.97C578.66,-165 501.82,-153.64 440,-129 409.35,-116.78 377.84,-94.94 358.59,-80.33"/>
<polygon fill="#63b8ff" stroke="#63b8ff" points="360.7,-77.55 350.65,-74.19 356.42,-83.08 360.7,-77.55"/>
</a>
</g>
</g>
<!-- Node15&#45;&gt;Node11 -->
<g id="edge24_Node000015_Node000011" class="edge">
<title>Node15&#45;&gt;Node11</title>
<g id="a_edge24_Node000015_Node000011"><a xlink:title=" ">
<path fill="none" stroke="#63b8ff" d="M709.33,-164.98C747.92,-156.88 807.33,-144.06 867.61,-129.25"/>
<polygon fill="#63b8ff" stroke="#63b8ff" points="868.82,-132.56 877.68,-126.76 867.14,-125.76 868.82,-132.56"/>
</a>
</g>
</g>
<!-- Node15&#45;&gt;Node12 -->
<g id="edge25_Node000015_Node000012" class="edge">
<title>Node15&#45;&gt;Node12</title>
<g id="a_edge25_Node000015_Node000012"><a xlink:title=" ">
<path fill="none" stroke="#63b8ff" d="M710.68,-166.48C773.68,-156.09 887.92,-137.14 930.31,-128.9"/>
<polygon fill="#63b8ff" stroke="#63b8ff" points="931.16,-132.29 940.26,-126.87 929.77,-125.44 931.16,-132.29"/>
</a>
</g>
</g>
<!-- Node15&#45;&gt;Node14 -->
<g id="edge19_Node000015_Node000014" class="edge">
<title>Node15&#45;&gt;Node14</title>
<g id="a_edge19_Node000015_Node000014"><a xlink:title=" ">
<path fill="none" stroke="#63b8ff" d="M694.83,-164.98C723.45,-155.9 768.89,-141.48 800.23,-131.53"/>
<polygon fill="#63b8ff" stroke="#63b8ff" points="801.4,-134.84 809.87,-128.47 799.28,-128.16 801.4,-134.84"/>
</a>
</g>
</g>
<!-- Node16 -->
<g id="Node000016" class="node">
<title>Node16</title>
<g id="a_Node000016"><a xlink:title=" ">
<polygon fill="#e0e0e0" stroke="#999999" points="546,-129 482,-129 482,-110 546,-110 546,-129"/>
<text text-anchor="middle" x="514" y="-117" font-family="Helvetica,sans-Serif" font-size="10.00">algorithm</text>
</a>
</g>
</g>
<!-- Node15&#45;&gt;Node16 -->
<g id="edge17_Node000015_Node000016" class="edge">
<title>Node15&#45;&gt;Node16</title>
<g id="a_edge17_Node000015_Node000016"><a xlink:title=" ">
<path fill="none" stroke="#63b8ff" d="M643.26,-164.98C617.63,-156.16 577.37,-142.31 548.59,-132.41"/>
<polygon fill="#63b8ff" stroke="#63b8ff" points="549.53,-129.03 538.94,-129.08 547.25,-135.65 549.53,-129.03"/>
</a>
</g>
</g>
<!-- Node17 -->
<g id="Node000017" class="node">
<title>Node17</title>
<g id="a_Node000017"><a xlink:title=" ">
<polygon fill="#e0e0e0" stroke="#999999" points="613.5,-129 564.5,-129 564.5,-110 613.5,-110 613.5,-129"/>
<text text-anchor="middle" x="589" y="-117" font-family="Helvetica,sans-Serif" font-size="10.00">cctype</text>
</a>
</g>
</g>
<!-- Node15&#45;&gt;Node17 -->
<g id="edge18_Node000015_Node000017" class="edge">
<title>Node15&#45;&gt;Node17</title>
<g id="a_edge18_Node000015_Node000017"><a xlink:title=" ">
<path fill="none" stroke="#63b8ff" d="M655.31,-164.98C643.17,-156.84 624.64,-144.41 610.25,-134.76"/>
<polygon fill="#63b8ff" stroke="#63b8ff" points="612.18,-131.84 601.92,-129.17 608.28,-137.65 612.18,-131.84"/>
</a>
</g>
</g>
<!-- Node18 -->
<g id="Node000018" class="node">
<title>Node18</title>
<g id="a_Node000018"><a xlink:title=" ">
<polygon fill="#e0e0e0" stroke="#999999" points="718,-129 632,-129 632,-110 718,-110 718,-129"/>
<text text-anchor="middle" x="675" y="-117" font-family="Helvetica,sans-Serif" font-size="10.00">fmt/ostream.h</text>
</a>
</g>
</g>
<!-- Node15&#45;&gt;Node18 -->
<g id="edge21_Node000015_Node000018" class="edge">
<title>Node15&#45;&gt;Node18</title>
<g id="a_edge21_Node000015_Node000018"><a xlink:title=" ">
<path fill="none" stroke="#63b8ff" d="M669.16,-164.75C670.07,-157.8 671.39,-147.85 672.54,-139.13"/>
<polygon fill="#63b8ff" stroke="#63b8ff" points="676.03,-139.46 673.87,-129.09 669.09,-138.54 676.03,-139.46"/>
</a>
</g>
</g>
<!-- Node19 -->
<g id="Node000019" class="node">
<title>Node19</title>
<g id="a_Node000019"><a xlink:title=" ">
<polygon fill="#e0e0e0" stroke="#999999" points="792,-129 736,-129 736,-110 792,-110 792,-129"/>
<text text-anchor="middle" x="764" y="-117" font-family="Helvetica,sans-Serif" font-size="10.00">numeric</text>
</a>
</g>
</g>
<!-- Node15&#45;&gt;Node19 -->
<g id="edge22_Node000015_Node000019" class="edge">
<title>Node15&#45;&gt;Node19</title>
<g id="a_edge22_Node000015_Node000019"><a xlink:title=" ">
<path fill="none" stroke="#63b8ff" d="M683.42,-164.98C698.45,-156.69 721.54,-143.94 739.16,-134.22"/>
<polygon fill="#63b8ff" stroke="#63b8ff" points="741.23,-137.07 748.3,-129.17 737.85,-130.94 741.23,-137.07"/>
</a>
</g>
</g>
<!-- Node21 -->
<g id="Node000021" class="node">
<title>Node21</title>
<g id="a_Node000021"><a xlink:title=" ">
<polygon fill="#e0e0e0" stroke="#999999" points="1181.5,-184 1134.5,-184 1134.5,-165 1181.5,-165 1181.5,-184"/>
<text text-anchor="middle" x="1158" y="-172" font-family="Helvetica,sans-Serif" font-size="10.00">cmath</text>
</a>
</g>
</g>
<!-- Node20&#45;&gt;Node21 -->
<g id="edge27_Node000020_Node000021" class="edge">
<title>Node20&#45;&gt;Node21</title>
<g id="a_edge27_Node000020_Node000021"><a xlink:title=" ">
<path fill="none" stroke="#63b8ff" d="M1158,-219.75C1158,-212.8 1158,-202.85 1158,-194.13"/>
<polygon fill="#63b8ff" stroke="#63b8ff" points="1161.5,-194.09 1158,-184.09 1154.5,-194.09 1161.5,-194.09"/>
</a>
</g>
</g>
<!-- Node22&#45;&gt;Node2 -->
<g id="edge29_Node000022_Node000002" class="edge">
<title>Node22&#45;&gt;Node2</title>
<g id="a_edge29_Node000022_Node000002"><a xlink:title=" ">
<path fill="none" stroke="#63b8ff" d="M258.15,-222.58C213.75,-215.64 149.34,-202.66 133,-184 122.37,-171.86 121.22,-153.07 122.22,-139.07"/>
<polygon fill="#63b8ff" stroke="#63b8ff" points="125.71,-139.42 123.35,-129.09 118.75,-138.64 125.71,-139.42"/>
</a>
</g>
</g>
<!-- Node22&#45;&gt;Node3 -->
<g id="edge30_Node000022_Node000003" class="edge">
<title>Node22&#45;&gt;Node3</title>
<g id="a_edge30_Node000022_Node000003"><a xlink:title=" ">
<path fill="none" stroke="#63b8ff" d="M258.23,-228.03C218.37,-225.42 159.96,-215.84 121,-184 94.01,-161.94 85.17,-143.45 95,-110 104.55,-77.51 128.35,-45.59 144.08,-26.99"/>
<polygon fill="#63b8ff" stroke="#63b8ff" points="146.93,-29.05 150.86,-19.21 141.65,-24.45 146.93,-29.05"/>
</a>
</g>
</g>
<!-- Node22&#45;&gt;Node5 -->
<g id="edge33_Node000022_Node000005" class="edge">
<title>Node22&#45;&gt;Node5</title>
<g id="a_edge33_Node000022_Node000005"><a xlink:title=" ">
<path fill="none" stroke="#63b8ff" d="M304.04,-219.74C310,-194.2 327.43,-119.43 335.63,-84.23"/>
<polygon fill="#63b8ff" stroke="#63b8ff" points="339.08,-84.84 337.95,-74.31 332.27,-83.25 339.08,-84.84"/>
</a>
</g>
</g>
<!-- Node22&#45;&gt;Node15 -->
<g id="edge37_Node000022_Node000015" class="edge">
<title>Node22&#45;&gt;Node15</title>
<g id="a_edge37_Node000022_Node000015"><a xlink:title=" ">
<path fill="none" stroke="#63b8ff" d="M345.78,-222.16C413.24,-212.39 542.37,-193.69 615.01,-183.17"/>
<polygon fill="#63b8ff" stroke="#63b8ff" points="615.9,-186.58 625.3,-181.68 614.9,-179.65 615.9,-186.58"/>
</a>
</g>
</g>
<!-- Node23 -->
<g id="Node000023" class="node">
<title>Node23</title>
<g id="a_Node000023"><a xlink:href="atom_8h.html" target="_top" xlink:title=" ">
<polygon fill="white" stroke="#666666" points="311.5,-129 216.5,-129 216.5,-110 311.5,-110 311.5,-129"/>
<text text-anchor="middle" x="264" y="-117" font-family="Helvetica,sans-Serif" font-size="10.00">occ/core/atom.h</text>
</a>
</g>
</g>
<!-- Node22&#45;&gt;Node23 -->
<g id="edge31_Node000022_Node000023" class="edge">
<title>Node22&#45;&gt;Node23</title>
<g id="a_edge31_Node000022_Node000023"><a xlink:title=" ">
<path fill="none" stroke="#63b8ff" d="M299.72,-219.77C296.43,-207.44 289.97,-184.26 283,-165 279.78,-156.11 275.73,-146.44 272.19,-138.39"/>
<polygon fill="#63b8ff" stroke="#63b8ff" points="275.37,-136.94 268.08,-129.25 268.98,-139.8 275.37,-136.94"/>
</a>
</g>
</g>
<!-- Node24 -->
<g id="Node000024" class="node">
<title>Node24</title>
<g id="a_Node000024"><a xlink:href="point__charge_8h.html" target="_top" xlink:title=" ">
<polygon fill="white" stroke="#666666" points="274,-184 142,-184 142,-165 274,-165 274,-184"/>
<text text-anchor="middle" x="208" y="-172" font-family="Helvetica,sans-Serif" font-size="10.00">occ/core/point_charge.h</text>
</a>
</g>
</g>
<!-- Node22&#45;&gt;Node24 -->
<g id="edge34_Node000022_Node000024" class="edge">
<title>Node22&#45;&gt;Node24</title>
<g id="a_edge34_Node000022_Node000024"><a xlink:title=" ">
<path fill="none" stroke="#63b8ff" d="M286.9,-219.98C272.18,-211.69 249.58,-198.94 232.33,-189.22"/>
<polygon fill="#63b8ff" stroke="#63b8ff" points="233.81,-186.03 223.38,-184.17 230.37,-192.13 233.81,-186.03"/>
</a>
</g>
</g>
<!-- Node23&#45;&gt;Node5 -->
<g id="edge32_Node000023_Node000005" class="edge">
<title>Node23&#45;&gt;Node5</title>
<g id="a_edge32_Node000023_Node000005"><a xlink:title=" ">
<path fill="none" stroke="#63b8ff" d="M276.21,-109.98C287.78,-101.92 305.38,-89.65 319.16,-80.03"/>
<polygon fill="#63b8ff" stroke="#63b8ff" points="321.37,-82.76 327.57,-74.17 317.36,-77.02 321.37,-82.76"/>
</a>
</g>
</g>
<!-- Node24&#45;&gt;Node2 -->
<g id="edge35_Node000024_Node000002" class="edge">
<title>Node24&#45;&gt;Node2</title>
<g id="a_edge35_Node000024_Node000002"><a xlink:title=" ">
<path fill="none" stroke="#63b8ff" d="M194.66,-164.98C181.91,-156.84 162.45,-144.41 147.33,-134.76"/>
<polygon fill="#63b8ff" stroke="#63b8ff" points="148.89,-131.6 138.58,-129.17 145.12,-137.5 148.89,-131.6"/>
</a>
</g>
</g>
<!-- Node24&#45;&gt;Node23 -->
<g id="edge36_Node000024_Node000023" class="edge">
<title>Node24&#45;&gt;Node23</title>
<g id="a_edge36_Node000024_Node000023"><a xlink:title=" ">
<path fill="none" stroke="#63b8ff" d="M217,-164.98C225.19,-157.23 237.51,-145.58 247.47,-136.14"/>
<polygon fill="#63b8ff" stroke="#63b8ff" points="249.98,-138.59 254.84,-129.17 245.17,-133.5 249.98,-138.59"/>
</a>
</g>
</g>
</g>
</svg>
