<?xml version="1.0" encoding="UTF-8" standalone="no"?>
<!DOCTYPE svg PUBLIC "-//W3C//DTD SVG 1.1//EN"
 "http://www.w3.org/Graphics/SVG/1.1/DTD/svg11.dtd">
<!-- Generated by graphviz version 2.43.0 (0)
 -->
<!-- Title: /home/runner/work/occ/occ/include/occ/gto/gto.h Pages: 1 -->
<svg width="1194pt" height="319pt"
 viewBox="0.00 0.00 1194.49 319.00" xmlns="http://www.w3.org/2000/svg" xmlns:xlink="http://www.w3.org/1999/xlink">
<g id="graph0" class="graph" transform="scale(1 1) rotate(0) translate(4 315)">
<title>/home/runner/work/occ/occ/include/occ/gto/gto.h</title>
<!-- Node1 -->
<g id="node1" class="node">
<title>Node1</title>
<g id="a_node1"><a xlink:title=" ">
<polygon fill="#bfbfbf" stroke="black" points="607.99,-280.5 607.99,-310.5 747.99,-310.5 747.99,-280.5 607.99,-280.5"/>
<text text-anchor="start" x="615.99" y="-298.5" font-family="Helvetica,sans-Serif" font-size="10.00">/home/runner/work/occ</text>
<text text-anchor="middle" x="677.99" y="-287.5" font-family="Helvetica,sans-Serif" font-size="10.00">/occ/include/occ/gto/gto.h</text>
</a>
</g>
</g>
<!-- Node2 -->
<g id="node2" class="node">
<title>Node2</title>
<g id="a_node2"><a xlink:title=" ">
<polygon fill="none" stroke="#bfbfbf" points="23.99,-112.5 23.99,-131.5 65.99,-131.5 65.99,-112.5 23.99,-112.5"/>
<text text-anchor="middle" x="44.99" y="-119.5" font-family="Helvetica,sans-Serif" font-size="10.00">array</text>
</a>
</g>
</g>
<!-- Node1&#45;&gt;Node2 -->
<g id="edge1" class="edge">
<title>Node1&#45;&gt;Node2</title>
<path fill="none" stroke="midnightblue" d="M607.67,-289.68C521.9,-283.02 372.81,-268.91 246.99,-244 156.86,-226.15 105.14,-259.94 47.99,-188 37.79,-175.16 38.19,-155.97 40.46,-141.77"/>
<polygon fill="midnightblue" stroke="midnightblue" points="43.95,-142.17 42.5,-131.67 37.09,-140.78 43.95,-142.17"/>
</g>
<!-- Node3 -->
<g id="node3" class="node">
<title>Node3</title>
<g id="a_node3"><a xlink:title=" ">
<polygon fill="none" stroke="#bfbfbf" points="729.49,-112.5 729.49,-131.5 796.49,-131.5 796.49,-112.5 729.49,-112.5"/>
<text text-anchor="middle" x="762.99" y="-119.5" font-family="Helvetica,sans-Serif" font-size="10.00">fmt/core.h</text>
</a>
</g>
</g>
<!-- Node1&#45;&gt;Node3 -->
<g id="edge2" class="edge">
<title>Node1&#45;&gt;Node3</title>
<path fill="none" stroke="midnightblue" d="M676.63,-280.35C674.95,-255.56 674.67,-203.55 696.99,-168 705.62,-154.26 720.15,-143.68 733.38,-136.24"/>
<polygon fill="midnightblue" stroke="midnightblue" points="735.01,-139.34 742.25,-131.59 731.76,-133.14 735.01,-139.34"/>
</g>
<!-- Node4 -->
<g id="node4" class="node">
<title>Node4</title>
<g id="a_node4"><a xlink:title=" ">
<polygon fill="none" stroke="#bfbfbf" points="834.99,-224.5 834.99,-243.5 948.99,-243.5 948.99,-224.5 834.99,-224.5"/>
<text text-anchor="middle" x="891.99" y="-231.5" font-family="Helvetica,sans-Serif" font-size="10.00">gau2grid/gau2grid.h</text>
</a>
</g>
</g>
<!-- Node1&#45;&gt;Node4 -->
<g id="edge3" class="edge">
<title>Node1&#45;&gt;Node4</title>
<path fill="none" stroke="midnightblue" d="M728.44,-280.47C766,-270.03 816.61,-255.96 851.54,-246.25"/>
<polygon fill="midnightblue" stroke="midnightblue" points="852.7,-249.56 861.4,-243.51 850.82,-242.81 852.7,-249.56"/>
</g>
<!-- Node5 -->
<g id="node5" class="node">
<title>Node5</title>
<g id="a_node5"><a xlink:href="linear__algebra_8h.html" target="_top" xlink:title=" ">
<polygon fill="none" stroke="black" points="163.49,-56.5 163.49,-75.5 302.49,-75.5 302.49,-56.5 163.49,-56.5"/>
<text text-anchor="middle" x="232.99" y="-63.5" font-family="Helvetica,sans-Serif" font-size="10.00">occ/core/linear_algebra.h</text>
</a>
</g>
</g>
<!-- Node1&#45;&gt;Node5 -->
<g id="edge4" class="edge">
<title>Node1&#45;&gt;Node5</title>
<path fill="none" stroke="midnightblue" d="M607.98,-294.82C472.01,-294.43 177.69,-288.3 87.99,-244 27.88,-214.31 -27.35,-163.98 14.99,-112 32.45,-90.56 98.51,-79.03 153.37,-73.03"/>
<polygon fill="midnightblue" stroke="midnightblue" points="153.89,-76.49 163.47,-71.97 153.16,-69.53 153.89,-76.49"/>
</g>
<!-- Node9 -->
<g id="node9" class="node">
<title>Node9</title>
<g id="a_node9"><a xlink:href="log_8h.html" target="_top" xlink:title=" ">
<polygon fill="none" stroke="black" points="966.99,-224.5 966.99,-243.5 1050.99,-243.5 1050.99,-224.5 966.99,-224.5"/>
<text text-anchor="middle" x="1008.99" y="-231.5" font-family="Helvetica,sans-Serif" font-size="10.00">occ/core/log.h</text>
</a>
</g>
</g>
<!-- Node1&#45;&gt;Node9 -->
<g id="edge8" class="edge">
<title>Node1&#45;&gt;Node9</title>
<path fill="none" stroke="midnightblue" d="M748.19,-281.88C810.54,-270.67 900.26,-254.55 956.55,-244.43"/>
<polygon fill="midnightblue" stroke="midnightblue" points="957.44,-247.82 966.66,-242.61 956.2,-240.93 957.44,-247.82"/>
</g>
<!-- Node11 -->
<g id="node11" class="node">
<title>Node11</title>
<g id="a_node11"><a xlink:href="timings_8h.html" target="_top" xlink:title=" ">
<polygon fill="none" stroke="black" points="705.99,-168.5 705.99,-187.5 811.99,-187.5 811.99,-168.5 705.99,-168.5"/>
<text text-anchor="middle" x="758.99" y="-175.5" font-family="Helvetica,sans-Serif" font-size="10.00">occ/core/timings.h</text>
</a>
</g>
</g>
<!-- Node1&#45;&gt;Node11 -->
<g id="edge10" class="edge">
<title>Node1&#45;&gt;Node11</title>
<path fill="none" stroke="midnightblue" d="M687.92,-280.34C702.85,-259.05 731.02,-218.89 747.05,-196.03"/>
<polygon fill="midnightblue" stroke="midnightblue" points="750.04,-197.87 752.91,-187.67 744.3,-193.85 750.04,-197.87"/>
</g>
<!-- Node13 -->
<g id="node13" class="node">
<title>Node13</title>
<g id="a_node13"><a xlink:title=" ">
<polygon fill="none" stroke="#bfbfbf" points="882.99,-112.5 882.99,-131.5 926.99,-131.5 926.99,-112.5 882.99,-112.5"/>
<text text-anchor="middle" x="904.99" y="-119.5" font-family="Helvetica,sans-Serif" font-size="10.00">string</text>
</a>
</g>
</g>
<!-- Node1&#45;&gt;Node13 -->
<g id="edge38" class="edge">
<title>Node1&#45;&gt;Node13</title>
<path fill="none" stroke="midnightblue" d="M697.04,-280.48C724.53,-260.22 776.86,-221.5 820.99,-188 843.38,-171 868.89,-151.2 885.86,-137.96"/>
<polygon fill="midnightblue" stroke="midnightblue" points="888.17,-140.6 893.9,-131.69 883.86,-135.08 888.17,-140.6"/>
</g>
<!-- Node14 -->
<g id="node14" class="node">
<title>Node14</title>
<g id="a_node14"><a xlink:href="util_8h.html" target="_top" xlink:title=" ">
<polygon fill="none" stroke="black" points="564.49,-168.5 564.49,-187.5 649.49,-187.5 649.49,-168.5 564.49,-168.5"/>
<text text-anchor="middle" x="606.99" y="-175.5" font-family="Helvetica,sans-Serif" font-size="10.00">occ/core/util.h</text>
</a>
</g>
</g>
<!-- Node1&#45;&gt;Node14 -->
<g id="edge13" class="edge">
<title>Node1&#45;&gt;Node14</title>
<path fill="none" stroke="midnightblue" d="M669.29,-280.34C656.26,-259.15 631.73,-219.24 617.65,-196.34"/>
<polygon fill="midnightblue" stroke="midnightblue" points="620.54,-194.36 612.32,-187.67 614.58,-198.02 620.54,-194.36"/>
</g>
<!-- Node19 -->
<g id="node19" class="node">
<title>Node19</title>
<g id="a_node19"><a xlink:title=" ">
<polygon fill="none" stroke="#bfbfbf" points="299.49,-112.5 299.49,-131.5 346.49,-131.5 346.49,-112.5 299.49,-112.5"/>
<text text-anchor="middle" x="322.99" y="-119.5" font-family="Helvetica,sans-Serif" font-size="10.00">vector</text>
</a>
</g>
</g>
<!-- Node1&#45;&gt;Node19 -->
<g id="edge39" class="edge">
<title>Node1&#45;&gt;Node19</title>
<path fill="none" stroke="midnightblue" d="M648.94,-280.47C581.53,-247.9 415.25,-167.57 349.94,-136.02"/>
<polygon fill="midnightblue" stroke="midnightblue" points="351.24,-132.76 340.71,-131.56 348.19,-139.06 351.24,-132.76"/>
</g>
<!-- Node20 -->
<g id="node20" class="node">
<title>Node20</title>
<g id="a_node20"><a xlink:href="shell__order_8h.html" target="_top" xlink:title=" ">
<polygon fill="none" stroke="black" points="1069.49,-224.5 1069.49,-243.5 1186.49,-243.5 1186.49,-224.5 1069.49,-224.5"/>
<text text-anchor="middle" x="1127.99" y="-231.5" font-family="Helvetica,sans-Serif" font-size="10.00">occ/gto/shell_order.h</text>
</a>
</g>
</g>
<!-- Node1&#45;&gt;Node20 -->
<g id="edge24" class="edge">
<title>Node1&#45;&gt;Node20</title>
<path fill="none" stroke="midnightblue" d="M748.05,-285.24C822.49,-275.4 943.94,-259.35 1059.32,-244.09"/>
<polygon fill="midnightblue" stroke="midnightblue" points="1059.93,-247.54 1069.39,-242.76 1059.01,-240.6 1059.93,-247.54"/>
</g>
<!-- Node22 -->
<g id="node22" class="node">
<title>Node22</title>
<g id="a_node22"><a xlink:href="shell_8h.html" target="_top" xlink:title=" ">
<polygon fill="none" stroke="black" points="256.49,-224.5 256.49,-243.5 343.49,-243.5 343.49,-224.5 256.49,-224.5"/>
<text text-anchor="middle" x="299.99" y="-231.5" font-family="Helvetica,sans-Serif" font-size="10.00">occ/qm/shell.h</text>
</a>
</g>
</g>
<!-- Node1&#45;&gt;Node22 -->
<g id="edge26" class="edge">
<title>Node1&#45;&gt;Node22</title>
<path fill="none" stroke="midnightblue" d="M607.78,-283.45C534.31,-271.88 420.58,-253.98 353.88,-243.48"/>
<polygon fill="midnightblue" stroke="midnightblue" points="354.02,-239.96 343.6,-241.86 352.93,-246.88 354.02,-239.96"/>
</g>
<!-- Node6 -->
<g id="node6" class="node">
<title>Node6</title>
<g id="a_node6"><a xlink:title=" ">
<polygon fill="none" stroke="#bfbfbf" points="143.49,-0.5 143.49,-19.5 220.49,-19.5 220.49,-0.5 143.49,-0.5"/>
<text text-anchor="middle" x="181.99" y="-7.5" font-family="Helvetica,sans-Serif" font-size="10.00">Eigen/Dense</text>
</a>
</g>
</g>
<!-- Node5&#45;&gt;Node6 -->
<g id="edge5" class="edge">
<title>Node5&#45;&gt;Node6</title>
<path fill="none" stroke="midnightblue" d="M224.57,-56.08C217.14,-48.22 206.14,-36.57 197.18,-27.08"/>
<polygon fill="midnightblue" stroke="midnightblue" points="199.67,-24.62 190.26,-19.75 194.58,-29.42 199.67,-24.62"/>
</g>
<!-- Node7 -->
<g id="node7" class="node">
<title>Node7</title>
<g id="a_node7"><a xlink:title=" ">
<polygon fill="none" stroke="#bfbfbf" points="238.49,-0.5 238.49,-19.5 331.49,-19.5 331.49,-0.5 238.49,-0.5"/>
<text text-anchor="middle" x="284.99" y="-7.5" font-family="Helvetica,sans-Serif" font-size="10.00">Eigen/StdVector</text>
</a>
</g>
</g>
<!-- Node5&#45;&gt;Node7 -->
<g id="edge6" class="edge">
<title>Node5&#45;&gt;Node7</title>
<path fill="none" stroke="midnightblue" d="M241.58,-56.08C249.15,-48.22 260.37,-36.57 269.51,-27.08"/>
<polygon fill="midnightblue" stroke="midnightblue" points="272.15,-29.38 276.56,-19.75 267.11,-24.53 272.15,-29.38"/>
</g>
<!-- Node8 -->
<g id="node8" class="node">
<title>Node8</title>
<g id="a_node8"><a xlink:title=" ">
<polygon fill="none" stroke="#bfbfbf" points="503.99,-0.5 503.99,-19.5 589.99,-19.5 589.99,-0.5 503.99,-0.5"/>
<text text-anchor="middle" x="546.99" y="-7.5" font-family="Helvetica,sans-Serif" font-size="10.00">fmt/ostream.h</text>
</a>
</g>
</g>
<!-- Node5&#45;&gt;Node8 -->
<g id="edge7" class="edge">
<title>Node5&#45;&gt;Node8</title>
<path fill="none" stroke="midnightblue" d="M282.75,-56.44C340.29,-46.55 434.65,-30.32 493.66,-20.17"/>
<polygon fill="midnightblue" stroke="midnightblue" points="494.28,-23.62 503.54,-18.47 493.09,-16.72 494.28,-23.62"/>
</g>
<!-- Node10 -->
<g id="node10" class="node">
<title>Node10</title>
<g id="a_node10"><a xlink:title=" ">
<polygon fill="none" stroke="#bfbfbf" points="962.49,-168.5 962.49,-187.5 1055.49,-187.5 1055.49,-168.5 962.49,-168.5"/>
<text text-anchor="middle" x="1008.99" y="-175.5" font-family="Helvetica,sans-Serif" font-size="10.00">spdlog/spdlog.h</text>
</a>
</g>
</g>
<!-- Node9&#45;&gt;Node10 -->
<g id="edge9" class="edge">
<title>Node9&#45;&gt;Node10</title>
<path fill="none" stroke="midnightblue" d="M1008.99,-224.08C1008.99,-217.01 1008.99,-206.86 1008.99,-197.99"/>
<polygon fill="midnightblue" stroke="midnightblue" points="1012.49,-197.75 1008.99,-187.75 1005.49,-197.75 1012.49,-197.75"/>
</g>
<!-- Node12 -->
<g id="node12" class="node">
<title>Node12</title>
<g id="a_node12"><a xlink:title=" ">
<polygon fill="none" stroke="#bfbfbf" points="814.99,-112.5 814.99,-131.5 864.99,-131.5 864.99,-112.5 814.99,-112.5"/>
<text text-anchor="middle" x="839.99" y="-119.5" font-family="Helvetica,sans-Serif" font-size="10.00">chrono</text>
</a>
</g>
</g>
<!-- Node11&#45;&gt;Node12 -->
<g id="edge11" class="edge">
<title>Node11&#45;&gt;Node12</title>
<path fill="none" stroke="midnightblue" d="M772.01,-168.32C784.52,-159.98 803.67,-147.21 818.46,-137.35"/>
<polygon fill="midnightblue" stroke="midnightblue" points="820.63,-140.11 827.01,-131.65 816.75,-134.29 820.63,-140.11"/>
</g>
<!-- Node11&#45;&gt;Node13 -->
<g id="edge12" class="edge">
<title>Node11&#45;&gt;Node13</title>
<path fill="none" stroke="midnightblue" d="M782.13,-168.44C806.76,-159.33 845.91,-144.85 873.38,-134.69"/>
<polygon fill="midnightblue" stroke="midnightblue" points="874.76,-137.91 882.92,-131.16 872.33,-131.35 874.76,-137.91"/>
</g>
<!-- Node14&#45;&gt;Node3 -->
<g id="edge16" class="edge">
<title>Node14&#45;&gt;Node3</title>
<path fill="none" stroke="midnightblue" d="M631.71,-168.44C657.84,-159.4 699.25,-145.06 728.57,-134.92"/>
<polygon fill="midnightblue" stroke="midnightblue" points="730.08,-138.1 738.39,-131.52 727.79,-131.48 730.08,-138.1"/>
</g>
<!-- Node14&#45;&gt;Node5 -->
<g id="edge20" class="edge">
<title>Node14&#45;&gt;Node5</title>
<path fill="none" stroke="midnightblue" d="M618.17,-168.47C634.13,-155.31 659.85,-129.69 643.99,-112 622.33,-87.84 426.28,-75.36 312.96,-70.11"/>
<polygon fill="midnightblue" stroke="midnightblue" points="313.08,-66.62 302.93,-69.66 312.76,-73.61 313.08,-66.62"/>
</g>
<!-- Node14&#45;&gt;Node8 -->
<g id="edge17" class="edge">
<title>Node14&#45;&gt;Node8</title>
<path fill="none" stroke="midnightblue" d="M623.29,-168.43C642.76,-156.94 671.47,-135.28 660.99,-112 642.95,-71.92 600.28,-41.31 572.57,-24.77"/>
<polygon fill="midnightblue" stroke="midnightblue" points="574.21,-21.67 563.8,-19.7 570.71,-27.74 574.21,-21.67"/>
</g>
<!-- Node14&#45;&gt;Node12 -->
<g id="edge23" class="edge">
<title>Node14&#45;&gt;Node12</title>
<path fill="none" stroke="midnightblue" d="M646.14,-168.44C686.14,-159.62 750,-145.32 804.99,-132 805.09,-131.98 805.19,-131.95 805.29,-131.93"/>
<polygon fill="midnightblue" stroke="midnightblue" points="805.91,-135.38 814.78,-129.57 804.23,-128.58 805.91,-135.38"/>
</g>
<!-- Node14&#45;&gt;Node13 -->
<g id="edge21" class="edge">
<title>Node14&#45;&gt;Node13</title>
<path fill="none" stroke="midnightblue" d="M649.83,-171.34C700.81,-164.26 788.62,-150.98 872.75,-132.07"/>
<polygon fill="midnightblue" stroke="midnightblue" points="873.75,-135.43 882.72,-129.8 872.19,-128.61 873.75,-135.43"/>
</g>
<!-- Node15 -->
<g id="node15" class="node">
<title>Node15</title>
<g id="a_node15"><a xlink:title=" ">
<polygon fill="none" stroke="#bfbfbf" points="364.99,-112.5 364.99,-131.5 428.99,-131.5 428.99,-112.5 364.99,-112.5"/>
<text text-anchor="middle" x="396.99" y="-119.5" font-family="Helvetica,sans-Serif" font-size="10.00">algorithm</text>
</a>
</g>
</g>
<!-- Node14&#45;&gt;Node15 -->
<g id="edge14" class="edge">
<title>Node14&#45;&gt;Node15</title>
<path fill="none" stroke="midnightblue" d="M573.72,-168.44C537.22,-159.06 478.59,-143.98 438.97,-133.79"/>
<polygon fill="midnightblue" stroke="midnightblue" points="439.63,-130.35 429.08,-131.25 437.89,-137.13 439.63,-130.35"/>
</g>
<!-- Node16 -->
<g id="node16" class="node">
<title>Node16</title>
<g id="a_node16"><a xlink:title=" ">
<polygon fill="none" stroke="#bfbfbf" points="447.49,-112.5 447.49,-131.5 496.49,-131.5 496.49,-112.5 447.49,-112.5"/>
<text text-anchor="middle" x="471.99" y="-119.5" font-family="Helvetica,sans-Serif" font-size="10.00">cctype</text>
</a>
</g>
</g>
<!-- Node14&#45;&gt;Node16 -->
<g id="edge15" class="edge">
<title>Node14&#45;&gt;Node16</title>
<path fill="none" stroke="midnightblue" d="M585.6,-168.44C563.28,-159.52 528.09,-145.44 502.78,-135.32"/>
<polygon fill="midnightblue" stroke="midnightblue" points="503.87,-131.98 493.28,-131.52 501.27,-138.48 503.87,-131.98"/>
</g>
<!-- Node17 -->
<g id="node17" class="node">
<title>Node17</title>
<g id="a_node17"><a xlink:title=" ">
<polygon fill="none" stroke="#bfbfbf" points="514.99,-112.5 514.99,-131.5 560.99,-131.5 560.99,-112.5 514.99,-112.5"/>
<text text-anchor="middle" x="537.99" y="-119.5" font-family="Helvetica,sans-Serif" font-size="10.00">locale</text>
</a>
</g>
</g>
<!-- Node14&#45;&gt;Node17 -->
<g id="edge18" class="edge">
<title>Node14&#45;&gt;Node17</title>
<path fill="none" stroke="midnightblue" d="M595.91,-168.32C585.51,-160.18 569.73,-147.84 557.27,-138.09"/>
<polygon fill="midnightblue" stroke="midnightblue" points="559.31,-135.24 549.28,-131.83 555,-140.75 559.31,-135.24"/>
</g>
<!-- Node18 -->
<g id="node18" class="node">
<title>Node18</title>
<g id="a_node18"><a xlink:title=" ">
<polygon fill="none" stroke="#bfbfbf" points="578.99,-112.5 578.99,-131.5 634.99,-131.5 634.99,-112.5 578.99,-112.5"/>
<text text-anchor="middle" x="606.99" y="-119.5" font-family="Helvetica,sans-Serif" font-size="10.00">numeric</text>
</a>
</g>
</g>
<!-- Node14&#45;&gt;Node18 -->
<g id="edge19" class="edge">
<title>Node14&#45;&gt;Node18</title>
<path fill="none" stroke="midnightblue" d="M606.99,-168.08C606.99,-161.01 606.99,-150.86 606.99,-141.99"/>
<polygon fill="midnightblue" stroke="midnightblue" points="610.49,-141.75 606.99,-131.75 603.49,-141.75 610.49,-141.75"/>
</g>
<!-- Node14&#45;&gt;Node19 -->
<g id="edge22" class="edge">
<title>Node14&#45;&gt;Node19</title>
<path fill="none" stroke="midnightblue" d="M564.12,-170.5C516.03,-162.95 435.49,-149.52 356.8,-132.01"/>
<polygon fill="midnightblue" stroke="midnightblue" points="357.25,-128.52 346.72,-129.74 355.71,-135.35 357.25,-128.52"/>
</g>
<!-- Node21 -->
<g id="node21" class="node">
<title>Node21</title>
<g id="a_node21"><a xlink:title=" ">
<polygon fill="none" stroke="#bfbfbf" points="1104.49,-168.5 1104.49,-187.5 1151.49,-187.5 1151.49,-168.5 1104.49,-168.5"/>
<text text-anchor="middle" x="1127.99" y="-175.5" font-family="Helvetica,sans-Serif" font-size="10.00">cmath</text>
</a>
</g>
</g>
<!-- Node20&#45;&gt;Node21 -->
<g id="edge25" class="edge">
<title>Node20&#45;&gt;Node21</title>
<path fill="none" stroke="midnightblue" d="M1127.99,-224.08C1127.99,-217.01 1127.99,-206.86 1127.99,-197.99"/>
<polygon fill="midnightblue" stroke="midnightblue" points="1131.49,-197.75 1127.99,-187.75 1124.49,-197.75 1131.49,-197.75"/>
</g>
<!-- Node22&#45;&gt;Node2 -->
<g id="edge27" class="edge">
<title>Node22&#45;&gt;Node2</title>
<path fill="none" stroke="midnightblue" d="M256.28,-230.05C196,-225.1 91.62,-213.1 63.99,-188 51.09,-176.28 46.76,-156.34 45.4,-141.63"/>
<polygon fill="midnightblue" stroke="midnightblue" points="48.89,-141.42 44.85,-131.62 41.9,-141.8 48.89,-141.42"/>
</g>
<!-- Node22&#45;&gt;Node5 -->
<g id="edge31" class="edge">
<title>Node22&#45;&gt;Node5</title>
<path fill="none" stroke="midnightblue" d="M296.39,-224.08C285.8,-197.83 254.6,-120.55 240.3,-85.12"/>
<polygon fill="midnightblue" stroke="midnightblue" points="243.44,-83.53 236.45,-75.57 236.95,-86.15 243.44,-83.53"/>
</g>
<!-- Node22&#45;&gt;Node14 -->
<g id="edge36" class="edge">
<title>Node22&#45;&gt;Node14</title>
<path fill="none" stroke="midnightblue" d="M343.65,-225.32C399.2,-215.55 495.07,-198.69 554.53,-188.23"/>
<polygon fill="midnightblue" stroke="midnightblue" points="555.23,-191.66 564.47,-186.48 554.01,-184.76 555.23,-191.66"/>
</g>
<!-- Node22&#45;&gt;Node19 -->
<g id="edge37" class="edge">
<title>Node22&#45;&gt;Node19</title>
<path fill="none" stroke="midnightblue" d="M323.45,-224.41C339.15,-217.28 358.61,-205.46 367.99,-188 377.78,-169.78 360.45,-150.48 344.53,-137.69"/>
<polygon fill="midnightblue" stroke="midnightblue" points="346.58,-134.85 336.49,-131.64 342.37,-140.45 346.58,-134.85"/>
</g>
<!-- Node23 -->
<g id="node23" class="node">
<title>Node23</title>
<g id="a_node23"><a xlink:title=" ">
<polygon fill="none" stroke="#bfbfbf" points="298.99,-168.5 298.99,-187.5 358.99,-187.5 358.99,-168.5 298.99,-168.5"/>
<text text-anchor="middle" x="328.99" y="-175.5" font-family="Helvetica,sans-Serif" font-size="10.00">iostream</text>
</a>
</g>
</g>
<!-- Node22&#45;&gt;Node23 -->
<g id="edge28" class="edge">
<title>Node22&#45;&gt;Node23</title>
<path fill="none" stroke="midnightblue" d="M304.78,-224.08C308.75,-216.69 314.52,-205.95 319.43,-196.81"/>
<polygon fill="midnightblue" stroke="midnightblue" points="322.64,-198.22 324.29,-187.75 316.48,-194.91 322.64,-198.22"/>
</g>
<!-- Node24 -->
<g id="node24" class="node">
<title>Node24</title>
<g id="a_node24"><a xlink:href="atom_8h.html" target="_top" xlink:title=" ">
<polygon fill="none" stroke="black" points="147.49,-112.5 147.49,-131.5 242.49,-131.5 242.49,-112.5 147.49,-112.5"/>
<text text-anchor="middle" x="194.99" y="-119.5" font-family="Helvetica,sans-Serif" font-size="10.00">occ/core/atom.h</text>
</a>
</g>
</g>
<!-- Node22&#45;&gt;Node24 -->
<g id="edge29" class="edge">
<title>Node22&#45;&gt;Node24</title>
<path fill="none" stroke="midnightblue" d="M291.75,-224.38C283.09,-215.32 269.08,-200.66 256.99,-188 241.12,-171.37 222.97,-152.34 210.43,-139.19"/>
<polygon fill="midnightblue" stroke="midnightblue" points="212.85,-136.66 203.41,-131.83 207.78,-141.49 212.85,-136.66"/>
</g>
<!-- Node25 -->
<g id="node25" class="node">
<title>Node25</title>
<g id="a_node25"><a xlink:href="point__charge_8h.html" target="_top" xlink:title=" ">
<polygon fill="none" stroke="black" points="72.99,-168.5 72.99,-187.5 204.99,-187.5 204.99,-168.5 72.99,-168.5"/>
<text text-anchor="middle" x="138.99" y="-175.5" font-family="Helvetica,sans-Serif" font-size="10.00">occ/core/point_charge.h</text>
</a>
</g>
</g>
<!-- Node22&#45;&gt;Node25 -->
<g id="edge32" class="edge">
<title>Node22&#45;&gt;Node25</title>
<path fill="none" stroke="midnightblue" d="M274.48,-224.44C247.4,-215.36 204.4,-200.94 174.12,-190.78"/>
<polygon fill="midnightblue" stroke="midnightblue" points="174.98,-187.38 164.38,-187.52 172.75,-194.01 174.98,-187.38"/>
</g>
<!-- Node24&#45;&gt;Node5 -->
<g id="edge30" class="edge">
<title>Node24&#45;&gt;Node5</title>
<path fill="none" stroke="midnightblue" d="M201.27,-112.08C206.63,-104.46 214.51,-93.26 221.07,-83.94"/>
<polygon fill="midnightblue" stroke="midnightblue" points="223.94,-85.94 226.83,-75.75 218.22,-81.91 223.94,-85.94"/>
</g>
<!-- Node25&#45;&gt;Node2 -->
<g id="edge33" class="edge">
<title>Node25&#45;&gt;Node2</title>
<path fill="none" stroke="midnightblue" d="M123.89,-168.32C109.09,-159.82 86.3,-146.73 69.01,-136.8"/>
<polygon fill="midnightblue" stroke="midnightblue" points="70.47,-133.6 60.06,-131.65 66.98,-139.67 70.47,-133.6"/>
</g>
<!-- Node25&#45;&gt;Node5 -->
<g id="edge35" class="edge">
<title>Node25&#45;&gt;Node5</title>
<path fill="none" stroke="midnightblue" d="M136.04,-168.2C132.15,-154.89 127.01,-129.36 137.99,-112 148.04,-96.13 165.36,-85.74 182.49,-79"/>
<polygon fill="midnightblue" stroke="midnightblue" points="183.71,-82.28 191.94,-75.62 181.35,-75.69 183.71,-82.28"/>
</g>
<!-- Node25&#45;&gt;Node24 -->
<g id="edge34" class="edge">
<title>Node25&#45;&gt;Node24</title>
<path fill="none" stroke="midnightblue" d="M147.99,-168.32C156.19,-160.42 168.5,-148.55 178.46,-138.94"/>
<polygon fill="midnightblue" stroke="midnightblue" points="181.06,-141.29 185.83,-131.83 176.2,-136.26 181.06,-141.29"/>
</g>
</g>
</svg>
