<?xml version="1.0" encoding="UTF-8" standalone="no"?>
<!DOCTYPE svg PUBLIC "-//W3C//DTD SVG 1.1//EN"
 "http://www.w3.org/Graphics/SVG/1.1/DTD/svg11.dtd">
<!-- Generated by graphviz version 2.43.0 (0)
 -->
<!-- Title: /home/runner/work/occ/occ/include/occ/gto/gto.h Pages: 1 -->
<svg width="999pt" height="313pt"
 viewBox="0.00 0.00 998.80 313.00" xmlns="http://www.w3.org/2000/svg" xmlns:xlink="http://www.w3.org/1999/xlink">
<g id="graph0" class="graph" transform="scale(1 1) rotate(0) translate(4 309)">
<title>/home/runner/work/occ/occ/include/occ/gto/gto.h</title>
<!-- Node1 -->
<g id="Node000001" class="node">
<title>Node1</title>
<g id="a_Node000001"><a xlink:title=" ">
<polygon fill="#999999" stroke="#666666" points="467,-305 327,-305 327,-275 467,-275 467,-305"/>
<text text-anchor="start" x="335" y="-293" font-family="Helvetica,sans-Serif" font-size="10.00">/home/runner/work/occ</text>
<text text-anchor="middle" x="397" y="-282" font-family="Helvetica,sans-Serif" font-size="10.00">/occ/include/occ/gto/gto.h</text>
</a>
</g>
</g>
<!-- Node2 -->
<g id="Node000002" class="node">
<title>Node2</title>
<g id="a_Node000002"><a xlink:title=" ">
<polygon fill="#e0e0e0" stroke="#999999" points="973,-129 931,-129 931,-110 973,-110 973,-129"/>
<text text-anchor="middle" x="952" y="-117" font-family="Helvetica,sans-Serif" font-size="10.00">array</text>
</a>
</g>
</g>
<!-- Node1&#45;&gt;Node2 -->
<g id="edge1_Node000001_Node000002" class="edge">
<title>Node1&#45;&gt;Node2</title>
<g id="a_edge1_Node000001_Node000002"><a xlink:title=" ">
<path fill="none" stroke="#63b8ff" d="M467.15,-285.45C598.99,-277.23 876.14,-252.09 939,-184 950.08,-172 952.78,-153.18 953.03,-139.15"/>
<polygon fill="#63b8ff" stroke="#63b8ff" points="956.53,-139.06 952.83,-129.13 949.53,-139.2 956.53,-139.06"/>
</a>
</g>
</g>
<!-- Node3 -->
<g id="Node000003" class="node">
<title>Node3</title>
<g id="a_Node000003"><a xlink:title=" ">
<polygon fill="#e0e0e0" stroke="#999999" points="455.5,-19 388.5,-19 388.5,0 455.5,0 455.5,-19"/>
<text text-anchor="middle" x="422" y="-7" font-family="Helvetica,sans-Serif" font-size="10.00">fmt/core.h</text>
</a>
</g>
</g>
<!-- Node1&#45;&gt;Node3 -->
<g id="edge2_Node000001_Node000003" class="edge">
<title>Node1&#45;&gt;Node3</title>
<g id="a_edge2_Node000001_Node000003"><a xlink:title=" ">
<path fill="none" stroke="#63b8ff" d="M326.7,-285.88C237.03,-280.76 88.05,-268.08 42,-239 13.39,-220.94 0,-209.34 0,-175.5 0,-175.5 0,-175.5 0,-118.5 0,-41.1 269.77,-18.43 377.93,-12.45"/>
<polygon fill="#63b8ff" stroke="#63b8ff" points="378.38,-15.93 388.18,-11.91 378.01,-8.94 378.38,-15.93"/>
</a>
</g>
</g>
<!-- Node4 -->
<g id="Node000004" class="node">
<title>Node4</title>
<g id="a_Node000004"><a xlink:title=" ">
<polygon fill="#e0e0e0" stroke="#999999" points="180,-239 66,-239 66,-220 180,-220 180,-239"/>
<text text-anchor="middle" x="123" y="-227" font-family="Helvetica,sans-Serif" font-size="10.00">gau2grid/gau2grid.h</text>
</a>
</g>
</g>
<!-- Node1&#45;&gt;Node4 -->
<g id="edge3_Node000001_Node000004" class="edge">
<title>Node1&#45;&gt;Node4</title>
<g id="a_edge3_Node000001_Node000004"><a xlink:title=" ">
<path fill="none" stroke="#63b8ff" d="M331.37,-274.99C282.75,-264.61 217.5,-250.68 173.05,-241.19"/>
<polygon fill="#63b8ff" stroke="#63b8ff" points="173.57,-237.72 163.06,-239.05 172.11,-244.56 173.57,-237.72"/>
</a>
</g>
</g>
<!-- Node5 -->
<g id="Node000005" class="node">
<title>Node5</title>
<g id="a_Node000005"><a xlink:href="linear__algebra_8h.html" target="_top" xlink:title=" ">
<polygon fill="white" stroke="#666666" points="895.5,-74 756.5,-74 756.5,-55 895.5,-55 895.5,-74"/>
<text text-anchor="middle" x="826" y="-62" font-family="Helvetica,sans-Serif" font-size="10.00">occ/core/linear_algebra.h</text>
</a>
</g>
</g>
<!-- Node1&#45;&gt;Node5 -->
<g id="edge4_Node000001_Node000005" class="edge">
<title>Node1&#45;&gt;Node5</title>
<g id="a_edge4_Node000001_Node000005"><a xlink:title=" ">
<path fill="none" stroke="#63b8ff" d="M467.24,-285.05C578.81,-278.16 791.26,-262.44 863,-239 909.37,-223.85 925.51,-220.4 958,-184 981.02,-158.21 1002.83,-137.6 982,-110 970.67,-94.99 928.7,-83.53 891.14,-76"/>
<polygon fill="#63b8ff" stroke="#63b8ff" points="891.69,-72.54 881.21,-74.07 890.36,-79.41 891.69,-72.54"/>
</a>
</g>
</g>
<!-- Node8 -->
<g id="Node000008" class="node">
<title>Node8</title>
<g id="a_Node000008"><a xlink:href="log_8h.html" target="_top" xlink:title=" ">
<polygon fill="white" stroke="#666666" points="282,-239 198,-239 198,-220 282,-220 282,-239"/>
<text text-anchor="middle" x="240" y="-227" font-family="Helvetica,sans-Serif" font-size="10.00">occ/core/log.h</text>
</a>
</g>
</g>
<!-- Node1&#45;&gt;Node8 -->
<g id="edge8_Node000001_Node000008" class="edge">
<title>Node1&#45;&gt;Node8</title>
<g id="a_edge8_Node000001_Node000008"><a xlink:title=" ">
<path fill="none" stroke="#63b8ff" d="M359.39,-274.99C332.97,-265.14 297.96,-252.1 272.69,-242.68"/>
<polygon fill="#63b8ff" stroke="#63b8ff" points="273.78,-239.35 263.19,-239.14 271.33,-245.91 273.78,-239.35"/>
</a>
</g>
</g>
<!-- Node10 -->
<g id="Node000010" class="node">
<title>Node10</title>
<g id="a_Node000010"><a xlink:title=" ">
<polygon fill="#e0e0e0" stroke="#999999" points="72,-129 28,-129 28,-110 72,-110 72,-129"/>
<text text-anchor="middle" x="50" y="-117" font-family="Helvetica,sans-Serif" font-size="10.00">string</text>
</a>
</g>
</g>
<!-- Node1&#45;&gt;Node10 -->
<g id="edge39_Node000001_Node000010" class="edge">
<title>Node1&#45;&gt;Node10</title>
<g id="a_edge39_Node000001_Node000010"><a xlink:title=" ">
<path fill="none" stroke="#63b8ff" d="M326.64,-288.7C237.79,-286.69 92.22,-277.43 57,-239 32.13,-211.87 38.55,-164.93 44.71,-139.02"/>
<polygon fill="#63b8ff" stroke="#63b8ff" points="48.18,-139.59 47.32,-129.03 41.41,-137.82 48.18,-139.59"/>
</a>
</g>
</g>
<!-- Node11 -->
<g id="Node000011" class="node">
<title>Node11</title>
<g id="a_Node000011"><a xlink:href="timings_8h.html" target="_top" xlink:title=" ">
<polygon fill="white" stroke="#666666" points="341,-184 235,-184 235,-165 341,-165 341,-184"/>
<text text-anchor="middle" x="288" y="-172" font-family="Helvetica,sans-Serif" font-size="10.00">occ/core/timings.h</text>
</a>
</g>
</g>
<!-- Node1&#45;&gt;Node11 -->
<g id="edge11_Node000001_Node000011" class="edge">
<title>Node1&#45;&gt;Node11</title>
<g id="a_edge11_Node000001_Node000011"><a xlink:title=" ">
<path fill="none" stroke="#63b8ff" d="M374.33,-274.97C360.56,-265.78 343.16,-252.93 330,-239 316.85,-225.08 305.14,-206.59 297.44,-193.15"/>
<polygon fill="#63b8ff" stroke="#63b8ff" points="300.5,-191.44 292.59,-184.39 294.38,-194.84 300.5,-191.44"/>
</a>
</g>
</g>
<!-- Node13 -->
<g id="Node000013" class="node">
<title>Node13</title>
<g id="a_Node000013"><a xlink:href="util_8h.html" target="_top" xlink:title=" ">
<polygon fill="white" stroke="#666666" points="515.5,-184 430.5,-184 430.5,-165 515.5,-165 515.5,-184"/>
<text text-anchor="middle" x="473" y="-172" font-family="Helvetica,sans-Serif" font-size="10.00">occ/core/util.h</text>
</a>
</g>
</g>
<!-- Node1&#45;&gt;Node13 -->
<g id="edge14_Node000001_Node000013" class="edge">
<title>Node1&#45;&gt;Node13</title>
<g id="a_edge14_Node000001_Node000013"><a xlink:title=" ">
<path fill="none" stroke="#63b8ff" d="M425.95,-274.91C440.08,-266.49 455.95,-254.42 465,-239 472.83,-225.66 474.51,-208.05 474.42,-194.76"/>
<polygon fill="#63b8ff" stroke="#63b8ff" points="477.9,-194.25 473.98,-184.41 470.9,-194.54 477.9,-194.25"/>
</a>
</g>
</g>
<!-- Node19 -->
<g id="Node000019" class="node">
<title>Node19</title>
<g id="a_Node000019"><a xlink:title=" ">
<polygon fill="#e0e0e0" stroke="#999999" points="673.5,-129 626.5,-129 626.5,-110 673.5,-110 673.5,-129"/>
<text text-anchor="middle" x="650" y="-117" font-family="Helvetica,sans-Serif" font-size="10.00">vector</text>
</a>
</g>
</g>
<!-- Node1&#45;&gt;Node19 -->
<g id="edge40_Node000001_Node000019" class="edge">
<title>Node1&#45;&gt;Node19</title>
<g id="a_edge40_Node000001_Node000019"><a xlink:title=" ">
<path fill="none" stroke="#63b8ff" d="M422.25,-274.88C439.33,-265.14 462.29,-251.72 482,-239 536.87,-203.6 599.11,-158.28 630.17,-135.3"/>
<polygon fill="#63b8ff" stroke="#63b8ff" points="632.47,-137.94 638.42,-129.17 628.3,-132.32 632.47,-137.94"/>
</a>
</g>
</g>
<!-- Node20 -->
<g id="Node000020" class="node">
<title>Node20</title>
<g id="a_Node000020"><a xlink:href="shell__order_8h.html" target="_top" xlink:title=" ">
<polygon fill="white" stroke="#666666" points="455.5,-239 338.5,-239 338.5,-220 455.5,-220 455.5,-239"/>
<text text-anchor="middle" x="397" y="-227" font-family="Helvetica,sans-Serif" font-size="10.00">occ/gto/shell_order.h</text>
</a>
</g>
</g>
<!-- Node1&#45;&gt;Node20 -->
<g id="edge25_Node000001_Node000020" class="edge">
<title>Node1&#45;&gt;Node20</title>
<g id="a_edge25_Node000001_Node000020"><a xlink:title=" ">
<path fill="none" stroke="#63b8ff" d="M397,-274.84C397,-267.21 397,-257.7 397,-249.45"/>
<polygon fill="#63b8ff" stroke="#63b8ff" points="400.5,-249.27 397,-239.27 393.5,-249.27 400.5,-249.27"/>
</a>
</g>
</g>
<!-- Node22 -->
<g id="Node000022" class="node">
<title>Node22</title>
<g id="a_Node000022"><a xlink:href="shell_8h.html" target="_top" xlink:title=" ">
<polygon fill="white" stroke="#666666" points="739.5,-239 652.5,-239 652.5,-220 739.5,-220 739.5,-239"/>
<text text-anchor="middle" x="696" y="-227" font-family="Helvetica,sans-Serif" font-size="10.00">occ/qm/shell.h</text>
</a>
</g>
</g>
<!-- Node1&#45;&gt;Node22 -->
<g id="edge27_Node000001_Node000022" class="edge">
<title>Node1&#45;&gt;Node22</title>
<g id="a_edge27_Node000001_Node000022"><a xlink:title=" ">
<path fill="none" stroke="#63b8ff" d="M467.1,-275.28C520.6,-264.82 593.21,-250.61 642.19,-241.03"/>
<polygon fill="#63b8ff" stroke="#63b8ff" points="643.13,-244.41 652.27,-239.06 641.78,-237.54 643.13,-244.41"/>
</a>
</g>
</g>
<!-- Node5&#45;&gt;Node3 -->
<g id="edge7_Node000005_Node000003" class="edge">
<title>Node5&#45;&gt;Node3</title>
<g id="a_edge7_Node000005_Node000003"><a xlink:title=" ">
<path fill="none" stroke="#63b8ff" d="M761.09,-54.98C678.07,-44.09 536.56,-25.53 465.47,-16.2"/>
<polygon fill="#63b8ff" stroke="#63b8ff" points="465.88,-12.73 455.51,-14.9 464.97,-19.67 465.88,-12.73"/>
</a>
</g>
</g>
<!-- Node6 -->
<g id="Node000006" class="node">
<title>Node6</title>
<g id="a_Node000006"><a xlink:title=" ">
<polygon fill="#e0e0e0" stroke="#999999" points="915.5,-19 838.5,-19 838.5,0 915.5,0 915.5,-19"/>
<text text-anchor="middle" x="877" y="-7" font-family="Helvetica,sans-Serif" font-size="10.00">Eigen/Dense</text>
</a>
</g>
</g>
<!-- Node5&#45;&gt;Node6 -->
<g id="edge5_Node000005_Node000006" class="edge">
<title>Node5&#45;&gt;Node6</title>
<g id="a_edge5_Node000005_Node000006"><a xlink:title=" ">
<path fill="none" stroke="#63b8ff" d="M834.42,-54.75C841.77,-47.11 852.63,-35.82 861.54,-26.56"/>
<polygon fill="#63b8ff" stroke="#63b8ff" points="864.32,-28.72 868.74,-19.09 859.28,-23.87 864.32,-28.72"/>
</a>
</g>
</g>
<!-- Node7 -->
<g id="Node000007" class="node">
<title>Node7</title>
<g id="a_Node000007"><a xlink:title=" ">
<polygon fill="#e0e0e0" stroke="#999999" points="820.5,-19 727.5,-19 727.5,0 820.5,0 820.5,-19"/>
<text text-anchor="middle" x="774" y="-7" font-family="Helvetica,sans-Serif" font-size="10.00">Eigen/StdVector</text>
</a>
</g>
</g>
<!-- Node5&#45;&gt;Node7 -->
<g id="edge6_Node000005_Node000007" class="edge">
<title>Node5&#45;&gt;Node7</title>
<g id="a_edge6_Node000005_Node000007"><a xlink:title=" ">
<path fill="none" stroke="#63b8ff" d="M817.41,-54.75C809.84,-47.03 798.62,-35.6 789.49,-26.28"/>
<polygon fill="#63b8ff" stroke="#63b8ff" points="791.93,-23.78 782.43,-19.09 786.93,-28.68 791.93,-23.78"/>
</a>
</g>
</g>
<!-- Node9 -->
<g id="Node000009" class="node">
<title>Node9</title>
<g id="a_Node000009"><a xlink:title=" ">
<polygon fill="#e0e0e0" stroke="#999999" points="216.5,-184 123.5,-184 123.5,-165 216.5,-165 216.5,-184"/>
<text text-anchor="middle" x="170" y="-172" font-family="Helvetica,sans-Serif" font-size="10.00">spdlog/spdlog.h</text>
</a>
</g>
</g>
<!-- Node8&#45;&gt;Node9 -->
<g id="edge9_Node000008_Node000009" class="edge">
<title>Node8&#45;&gt;Node9</title>
<g id="a_edge9_Node000008_Node000009"><a xlink:title=" ">
<path fill="none" stroke="#63b8ff" d="M228.75,-219.98C218.2,-212 202.2,-199.88 189.56,-190.31"/>
<polygon fill="#63b8ff" stroke="#63b8ff" points="191.54,-187.42 181.45,-184.17 187.31,-193 191.54,-187.42"/>
</a>
</g>
</g>
<!-- Node8&#45;&gt;Node10 -->
<g id="edge10_Node000008_Node000010" class="edge">
<title>Node8&#45;&gt;Node10</title>
<g id="a_edge10_Node000008_Node000010"><a xlink:title=" ">
<path fill="none" stroke="#63b8ff" d="M202.5,-219.93C176.36,-212.87 141.41,-201.2 114,-184 93.8,-171.32 74.97,-151.24 63.04,-137.06"/>
<polygon fill="#63b8ff" stroke="#63b8ff" points="65.59,-134.64 56.55,-129.11 60.16,-139.07 65.59,-134.64"/>
</a>
</g>
</g>
<!-- Node11&#45;&gt;Node10 -->
<g id="edge13_Node000011_Node000010" class="edge">
<title>Node11&#45;&gt;Node10</title>
<g id="a_edge13_Node000011_Node000010"><a xlink:title=" ">
<path fill="none" stroke="#63b8ff" d="M245.02,-164.99C205.18,-156.94 144.02,-144.17 82.23,-129.2"/>
<polygon fill="#63b8ff" stroke="#63b8ff" points="82.86,-125.75 72.31,-126.78 81.2,-132.55 82.86,-125.75"/>
</a>
</g>
</g>
<!-- Node12 -->
<g id="Node000012" class="node">
<title>Node12</title>
<g id="a_Node000012"><a xlink:title=" ">
<polygon fill="#e0e0e0" stroke="#999999" points="140,-129 90,-129 90,-110 140,-110 140,-129"/>
<text text-anchor="middle" x="115" y="-117" font-family="Helvetica,sans-Serif" font-size="10.00">chrono</text>
</a>
</g>
</g>
<!-- Node11&#45;&gt;Node12 -->
<g id="edge12_Node000011_Node000012" class="edge">
<title>Node11&#45;&gt;Node12</title>
<g id="a_edge12_Node000011_Node000012"><a xlink:title=" ">
<path fill="none" stroke="#63b8ff" d="M260.2,-164.98C230.3,-155.82 182.66,-141.23 150.17,-131.27"/>
<polygon fill="#63b8ff" stroke="#63b8ff" points="150.78,-127.8 140.19,-128.22 148.73,-134.49 150.78,-127.8"/>
</a>
</g>
</g>
<!-- Node13&#45;&gt;Node3 -->
<g id="edge18_Node000013_Node000003" class="edge">
<title>Node13&#45;&gt;Node3</title>
<g id="a_edge18_Node000013_Node000003"><a xlink:title=" ">
<path fill="none" stroke="#63b8ff" d="M430.43,-166.36C427.58,-165.9 424.75,-165.44 422,-165 369.83,-156.66 221.41,-169.09 187,-129 128.99,-61.42 295.54,-28.06 378.33,-15.98"/>
<polygon fill="#63b8ff" stroke="#63b8ff" points="379.06,-19.41 388.47,-14.54 378.08,-12.48 379.06,-19.41"/>
</a>
</g>
</g>
<!-- Node13&#45;&gt;Node5 -->
<g id="edge22_Node000013_Node000005" class="edge">
<title>Node13&#45;&gt;Node5</title>
<g id="a_edge22_Node000013_Node000005"><a xlink:title=" ">
<path fill="none" stroke="#63b8ff" d="M494.27,-164.98C515.78,-156.27 549.91,-142.18 579,-129 596.56,-121.04 599.77,-116.29 618,-110 663.64,-94.26 716.9,-83 758.1,-75.73"/>
<polygon fill="#63b8ff" stroke="#63b8ff" points="758.78,-79.17 768.04,-74.02 757.59,-72.27 758.78,-79.17"/>
</a>
</g>
</g>
<!-- Node13&#45;&gt;Node10 -->
<g id="edge23_Node000013_Node000010" class="edge">
<title>Node13&#45;&gt;Node10</title>
<g id="a_edge23_Node000013_Node000010"><a xlink:title=" ">
<path fill="none" stroke="#63b8ff" d="M430.45,-166.21C427.59,-165.78 424.76,-165.37 422,-165 274.24,-144.9 232.54,-156.71 82.3,-128.95"/>
<polygon fill="#63b8ff" stroke="#63b8ff" points="82.72,-125.47 72.25,-127.07 81.43,-132.35 82.72,-125.47"/>
</a>
</g>
</g>
<!-- Node13&#45;&gt;Node12 -->
<g id="edge17_Node000013_Node000012" class="edge">
<title>Node13&#45;&gt;Node12</title>
<g id="a_edge17_Node000013_Node000012"><a xlink:title=" ">
<path fill="none" stroke="#63b8ff" d="M430.44,-166.3C427.58,-165.85 424.75,-165.41 422,-165 303.16,-147.12 272.36,-149.81 154,-129 152.73,-128.78 151.44,-128.54 150.15,-128.3"/>
<polygon fill="#63b8ff" stroke="#63b8ff" points="150.61,-124.82 140.12,-126.29 149.23,-131.68 150.61,-124.82"/>
</a>
</g>
</g>
<!-- Node14 -->
<g id="Node000014" class="node">
<title>Node14</title>
<g id="a_Node000014"><a xlink:title=" ">
<polygon fill="#e0e0e0" stroke="#999999" points="260,-129 196,-129 196,-110 260,-110 260,-129"/>
<text text-anchor="middle" x="228" y="-117" font-family="Helvetica,sans-Serif" font-size="10.00">algorithm</text>
</a>
</g>
</g>
<!-- Node13&#45;&gt;Node14 -->
<g id="edge15_Node000013_Node000014" class="edge">
<title>Node13&#45;&gt;Node14</title>
<g id="a_edge15_Node000013_Node000014"><a xlink:title=" ">
<path fill="none" stroke="#63b8ff" d="M433.64,-164.98C388.87,-155.3 316.05,-139.55 270.15,-129.62"/>
<polygon fill="#63b8ff" stroke="#63b8ff" points="270.74,-126.16 260.23,-127.47 269.26,-133.01 270.74,-126.16"/>
</a>
</g>
</g>
<!-- Node15 -->
<g id="Node000015" class="node">
<title>Node15</title>
<g id="a_Node000015"><a xlink:title=" ">
<polygon fill="#e0e0e0" stroke="#999999" points="327.5,-129 278.5,-129 278.5,-110 327.5,-110 327.5,-129"/>
<text text-anchor="middle" x="303" y="-117" font-family="Helvetica,sans-Serif" font-size="10.00">cctype</text>
</a>
</g>
</g>
<!-- Node13&#45;&gt;Node15 -->
<g id="edge16_Node000013_Node000015" class="edge">
<title>Node13&#45;&gt;Node15</title>
<g id="a_edge16_Node000013_Node000015"><a xlink:title=" ">
<path fill="none" stroke="#63b8ff" d="M445.69,-164.98C416.3,-155.82 369.49,-141.23 337.56,-131.27"/>
<polygon fill="#63b8ff" stroke="#63b8ff" points="338.35,-127.85 327.76,-128.22 336.26,-134.54 338.35,-127.85"/>
</a>
</g>
</g>
<!-- Node16 -->
<g id="Node000016" class="node">
<title>Node16</title>
<g id="a_Node000016"><a xlink:title=" ">
<polygon fill="#e0e0e0" stroke="#999999" points="432,-129 346,-129 346,-110 432,-110 432,-129"/>
<text text-anchor="middle" x="389" y="-117" font-family="Helvetica,sans-Serif" font-size="10.00">fmt/ostream.h</text>
</a>
</g>
</g>
<!-- Node13&#45;&gt;Node16 -->
<g id="edge19_Node000013_Node000016" class="edge">
<title>Node13&#45;&gt;Node16</title>
<g id="a_edge19_Node000013_Node000016"><a xlink:title=" ">
<path fill="none" stroke="#63b8ff" d="M459.5,-164.98C446.6,-156.84 426.9,-144.41 411.6,-134.76"/>
<polygon fill="#63b8ff" stroke="#63b8ff" points="413.07,-131.55 402.74,-129.17 409.33,-137.47 413.07,-131.55"/>
</a>
</g>
</g>
<!-- Node17 -->
<g id="Node000017" class="node">
<title>Node17</title>
<g id="a_Node000017"><a xlink:title=" ">
<polygon fill="#e0e0e0" stroke="#999999" points="496,-129 450,-129 450,-110 496,-110 496,-129"/>
<text text-anchor="middle" x="473" y="-117" font-family="Helvetica,sans-Serif" font-size="10.00">locale</text>
</a>
</g>
</g>
<!-- Node13&#45;&gt;Node17 -->
<g id="edge20_Node000013_Node000017" class="edge">
<title>Node13&#45;&gt;Node17</title>
<g id="a_edge20_Node000013_Node000017"><a xlink:title=" ">
<path fill="none" stroke="#63b8ff" d="M473,-164.75C473,-157.8 473,-147.85 473,-139.13"/>
<polygon fill="#63b8ff" stroke="#63b8ff" points="476.5,-139.09 473,-129.09 469.5,-139.09 476.5,-139.09"/>
</a>
</g>
</g>
<!-- Node18 -->
<g id="Node000018" class="node">
<title>Node18</title>
<g id="a_Node000018"><a xlink:title=" ">
<polygon fill="#e0e0e0" stroke="#999999" points="570,-129 514,-129 514,-110 570,-110 570,-129"/>
<text text-anchor="middle" x="542" y="-117" font-family="Helvetica,sans-Serif" font-size="10.00">numeric</text>
</a>
</g>
</g>
<!-- Node13&#45;&gt;Node18 -->
<g id="edge21_Node000013_Node000018" class="edge">
<title>Node13&#45;&gt;Node18</title>
<g id="a_edge21_Node000013_Node000018"><a xlink:title=" ">
<path fill="none" stroke="#63b8ff" d="M484.09,-164.98C494.49,-157 510.26,-144.88 522.72,-135.31"/>
<polygon fill="#63b8ff" stroke="#63b8ff" points="524.91,-138.04 530.71,-129.17 520.65,-132.49 524.91,-138.04"/>
</a>
</g>
</g>
<!-- Node13&#45;&gt;Node19 -->
<g id="edge24_Node000013_Node000019" class="edge">
<title>Node13&#45;&gt;Node19</title>
<g id="a_edge24_Node000013_Node000019"><a xlink:title=" ">
<path fill="none" stroke="#63b8ff" d="M501.44,-164.98C532.88,-155.57 583.46,-140.42 616.72,-130.46"/>
<polygon fill="#63b8ff" stroke="#63b8ff" points="617.87,-133.77 626.45,-127.55 615.86,-127.07 617.87,-133.77"/>
</a>
</g>
</g>
<!-- Node21 -->
<g id="Node000021" class="node">
<title>Node21</title>
<g id="a_Node000021"><a xlink:title=" ">
<polygon fill="#e0e0e0" stroke="#999999" points="412.5,-184 365.5,-184 365.5,-165 412.5,-165 412.5,-184"/>
<text text-anchor="middle" x="389" y="-172" font-family="Helvetica,sans-Serif" font-size="10.00">cmath</text>
</a>
</g>
</g>
<!-- Node20&#45;&gt;Node21 -->
<g id="edge26_Node000020_Node000021" class="edge">
<title>Node20&#45;&gt;Node21</title>
<g id="a_edge26_Node000020_Node000021"><a xlink:title=" ">
<path fill="none" stroke="#63b8ff" d="M395.68,-219.75C394.63,-212.8 393.13,-202.85 391.81,-194.13"/>
<polygon fill="#63b8ff" stroke="#63b8ff" points="395.25,-193.45 390.3,-184.09 388.33,-194.5 395.25,-193.45"/>
</a>
</g>
</g>
<!-- Node22&#45;&gt;Node2 -->
<g id="edge28_Node000022_Node000002" class="edge">
<title>Node22&#45;&gt;Node2</title>
<g id="a_edge28_Node000022_Node000002"><a xlink:title=" ">
<path fill="none" stroke="#63b8ff" d="M739.6,-224.09C795.72,-217.69 889.31,-204.31 917,-184 932.04,-172.96 941.4,-153.42 946.61,-138.92"/>
<polygon fill="#63b8ff" stroke="#63b8ff" points="950.06,-139.63 949.82,-129.04 943.4,-137.47 950.06,-139.63"/>
</a>
</g>
</g>
<!-- Node22&#45;&gt;Node3 -->
<g id="edge29_Node000022_Node000003" class="edge">
<title>Node22&#45;&gt;Node3</title>
<g id="a_edge29_Node000022_Node000003"><a xlink:title=" ">
<path fill="none" stroke="#63b8ff" d="M697.8,-219.95C701.74,-198.82 708.82,-143.41 683,-110 630.41,-41.95 525.42,-20.43 465.88,-13.63"/>
<polygon fill="#63b8ff" stroke="#63b8ff" points="465.97,-10.13 455.66,-12.56 465.24,-17.09 465.97,-10.13"/>
</a>
</g>
</g>
<!-- Node22&#45;&gt;Node5 -->
<g id="edge32_Node000022_Node000005" class="edge">
<title>Node22&#45;&gt;Node5</title>
<g id="a_edge32_Node000022_Node000005"><a xlink:title=" ">
<path fill="none" stroke="#63b8ff" d="M739.85,-224.33C789.67,-218.57 866.37,-206.3 884,-184 909.9,-151.25 869.51,-105.07 844.11,-81.18"/>
<polygon fill="#63b8ff" stroke="#63b8ff" points="846.24,-78.39 836.48,-74.25 841.53,-83.57 846.24,-78.39"/>
</a>
</g>
</g>
<!-- Node22&#45;&gt;Node13 -->
<g id="edge37_Node000022_Node000013" class="edge">
<title>Node22&#45;&gt;Node13</title>
<g id="a_edge37_Node000022_Node000013"><a xlink:title=" ">
<path fill="none" stroke="#63b8ff" d="M660.17,-219.98C621.84,-210.87 560.92,-196.4 519.05,-186.45"/>
<polygon fill="#63b8ff" stroke="#63b8ff" points="519.65,-182.99 509.11,-184.08 518.03,-189.8 519.65,-182.99"/>
</a>
</g>
</g>
<!-- Node22&#45;&gt;Node19 -->
<g id="edge38_Node000022_Node000019" class="edge">
<title>Node22&#45;&gt;Node19</title>
<g id="a_edge38_Node000022_Node000019"><a xlink:title=" ">
<path fill="none" stroke="#63b8ff" d="M687.63,-219.71C680.03,-211.23 669.12,-197.7 663,-184 656.61,-169.7 653.33,-152.17 651.66,-139.16"/>
<polygon fill="#63b8ff" stroke="#63b8ff" points="655.12,-138.64 650.57,-129.08 648.16,-139.39 655.12,-138.64"/>
</a>
</g>
</g>
<!-- Node23 -->
<g id="Node000023" class="node">
<title>Node23</title>
<g id="a_Node000023"><a xlink:href="atom_8h.html" target="_top" xlink:title=" ">
<polygon fill="white" stroke="#666666" points="825.5,-129 730.5,-129 730.5,-110 825.5,-110 825.5,-129"/>
<text text-anchor="middle" x="778" y="-117" font-family="Helvetica,sans-Serif" font-size="10.00">occ/core/atom.h</text>
</a>
</g>
</g>
<!-- Node22&#45;&gt;Node23 -->
<g id="edge30_Node000022_Node000023" class="edge">
<title>Node22&#45;&gt;Node23</title>
<g id="a_edge30_Node000022_Node000023"><a xlink:title=" ">
<path fill="none" stroke="#63b8ff" d="M700.31,-219.87C706.8,-207.24 719.83,-183.28 734,-165 741.97,-154.72 752.11,-144.32 760.65,-136.16"/>
<polygon fill="#63b8ff" stroke="#63b8ff" points="763.29,-138.49 768.22,-129.11 758.52,-133.37 763.29,-138.49"/>
</a>
</g>
</g>
<!-- Node24 -->
<g id="Node000024" class="node">
<title>Node24</title>
<g id="a_Node000024"><a xlink:href="point__charge_8h.html" target="_top" xlink:title=" ">
<polygon fill="white" stroke="#666666" points="875,-184 743,-184 743,-165 875,-165 875,-184"/>
<text text-anchor="middle" x="809" y="-172" font-family="Helvetica,sans-Serif" font-size="10.00">occ/core/point_charge.h</text>
</a>
</g>
</g>
<!-- Node22&#45;&gt;Node24 -->
<g id="edge33_Node000022_Node000024" class="edge">
<title>Node22&#45;&gt;Node24</title>
<g id="a_edge33_Node000022_Node000024"><a xlink:title=" ">
<path fill="none" stroke="#63b8ff" d="M714.16,-219.98C732.25,-211.5 760.28,-198.35 781.19,-188.54"/>
<polygon fill="#63b8ff" stroke="#63b8ff" points="782.95,-191.59 790.51,-184.17 779.97,-185.25 782.95,-191.59"/>
</a>
</g>
</g>
<!-- Node23&#45;&gt;Node5 -->
<g id="edge31_Node000023_Node000005" class="edge">
<title>Node23&#45;&gt;Node5</title>
<g id="a_edge31_Node000023_Node000005"><a xlink:title=" ">
<path fill="none" stroke="#63b8ff" d="M785.93,-109.75C792.85,-102.11 803.07,-90.82 811.45,-81.56"/>
<polygon fill="#63b8ff" stroke="#63b8ff" points="814.1,-83.85 818.22,-74.09 808.91,-79.15 814.1,-83.85"/>
</a>
</g>
</g>
<!-- Node24&#45;&gt;Node2 -->
<g id="edge34_Node000024_Node000002" class="edge">
<title>Node24&#45;&gt;Node2</title>
<g id="a_edge34_Node000024_Node000002"><a xlink:title=" ">
<path fill="none" stroke="#63b8ff" d="M831.98,-164.98C856.2,-156.01 894.49,-141.82 921.29,-131.88"/>
<polygon fill="#63b8ff" stroke="#63b8ff" points="922.79,-135.06 930.95,-128.3 920.35,-128.5 922.79,-135.06"/>
</a>
</g>
</g>
<!-- Node24&#45;&gt;Node5 -->
<g id="edge36_Node000024_Node000005" class="edge">
<title>Node24&#45;&gt;Node5</title>
<g id="a_edge36_Node000024_Node000005"><a xlink:title=" ">
<path fill="none" stroke="#63b8ff" d="M815.89,-164.93C822.27,-156.4 831.31,-142.65 835,-129 839.01,-114.2 836.1,-96.96 832.56,-84.17"/>
<polygon fill="#63b8ff" stroke="#63b8ff" points="835.78,-82.75 829.44,-74.26 829.1,-84.85 835.78,-82.75"/>
</a>
</g>
</g>
<!-- Node24&#45;&gt;Node23 -->
<g id="edge35_Node000024_Node000023" class="edge">
<title>Node24&#45;&gt;Node23</title>
<g id="a_edge35_Node000024_Node000023"><a xlink:title=" ">
<path fill="none" stroke="#63b8ff" d="M803.88,-164.75C799.64,-157.49 793.47,-146.95 788.22,-137.98"/>
<polygon fill="#63b8ff" stroke="#63b8ff" points="791.09,-135.95 783.02,-129.09 785.05,-139.49 791.09,-135.95"/>
</a>
</g>
</g>
</g>
</svg>
