<?xml version="1.0" encoding="UTF-8" standalone="no"?>
<!DOCTYPE svg PUBLIC "-//W3C//DTD SVG 1.1//EN"
 "http://www.w3.org/Graphics/SVG/1.1/DTD/svg11.dtd">
<!-- Generated by graphviz version 2.43.0 (0)
 -->
<!-- Title: /home/runner/work/occ/occ/include/occ/geometry/half_edge_mesh.h Pages: 1 -->
<svg width="741pt" height="218pt"
 viewBox="0.00 0.00 740.75 218.00" xmlns="http://www.w3.org/2000/svg" xmlns:xlink="http://www.w3.org/1999/xlink">
<g id="graph0" class="graph" transform="scale(1 1) rotate(0) translate(4 214)">
<title>/home/runner/work/occ/occ/include/occ/geometry/half_edge_mesh.h</title>
<!-- Node1 -->
<g id="node1" class="node">
<title>Node1</title>
<g id="a_node1"><a xlink:title=" ">
<polygon fill="#bfbfbf" stroke="black" points="227.25,-168.5 227.25,-209.5 371.25,-209.5 371.25,-168.5 227.25,-168.5"/>
<text text-anchor="start" x="235.25" y="-197.5" font-family="Helvetica,sans-Serif" font-size="10.00">/home/runner/work/occ</text>
<text text-anchor="start" x="235.25" y="-186.5" font-family="Helvetica,sans-Serif" font-size="10.00">/occ/include/occ/geometry</text>
<text text-anchor="middle" x="299.25" y="-175.5" font-family="Helvetica,sans-Serif" font-size="10.00">/half_edge_mesh.h</text>
</a>
</g>
</g>
<!-- Node2 -->
<g id="node2" class="node">
<title>Node2</title>
<g id="a_node2"><a xlink:href="mesh_8h.html" target="_top" xlink:title=" ">
<polygon fill="none" stroke="black" points="238.25,-112.5 238.25,-131.5 360.25,-131.5 360.25,-112.5 238.25,-112.5"/>
<text text-anchor="middle" x="299.25" y="-119.5" font-family="Helvetica,sans-Serif" font-size="10.00">occ/geometry/mesh.h</text>
</a>
</g>
</g>
<!-- Node1&#45;&gt;Node2 -->
<g id="edge1" class="edge">
<title>Node1&#45;&gt;Node2</title>
<path fill="none" stroke="midnightblue" d="M299.25,-168.5C299.25,-160.07 299.25,-150.24 299.25,-141.87"/>
<polygon fill="midnightblue" stroke="midnightblue" points="302.75,-141.65 299.25,-131.65 295.75,-141.65 302.75,-141.65"/>
</g>
<!-- Node3 -->
<g id="node3" class="node">
<title>Node3</title>
<g id="a_node3"><a xlink:title=" ">
<polygon fill="none" stroke="#bfbfbf" points="131.75,-0.5 131.75,-19.5 208.75,-19.5 208.75,-0.5 131.75,-0.5"/>
<text text-anchor="middle" x="170.25" y="-7.5" font-family="Helvetica,sans-Serif" font-size="10.00">Eigen/Dense</text>
</a>
</g>
</g>
<!-- Node2&#45;&gt;Node3 -->
<g id="edge2" class="edge">
<title>Node2&#45;&gt;Node3</title>
<path fill="none" stroke="midnightblue" d="M238.05,-120.51C161.59,-118.45 37.24,-109.82 8.25,-76 -26.24,-35.76 61.99,-20.17 121.37,-14.32"/>
<polygon fill="midnightblue" stroke="midnightblue" points="121.72,-17.81 131.36,-13.4 121.08,-10.84 121.72,-17.81"/>
</g>
<!-- Node4 -->
<g id="node4" class="node">
<title>Node4</title>
<g id="a_node4"><a xlink:title=" ">
<polygon fill="none" stroke="#bfbfbf" points="17.25,-56.5 17.25,-75.5 59.25,-75.5 59.25,-56.5 17.25,-56.5"/>
<text text-anchor="middle" x="38.25" y="-63.5" font-family="Helvetica,sans-Serif" font-size="10.00">array</text>
</a>
</g>
</g>
<!-- Node2&#45;&gt;Node4 -->
<g id="edge3" class="edge">
<title>Node2&#45;&gt;Node4</title>
<path fill="none" stroke="midnightblue" d="M247.55,-112.44C202.73,-104.68 135.96,-92.3 69.31,-76.08"/>
<polygon fill="midnightblue" stroke="midnightblue" points="70.03,-72.65 59.48,-73.65 68.36,-79.44 70.03,-72.65"/>
</g>
<!-- Node5 -->
<g id="node5" class="node">
<title>Node5</title>
<g id="a_node5"><a xlink:title=" ">
<polygon fill="none" stroke="#bfbfbf" points="77.25,-56.5 77.25,-75.5 129.25,-75.5 129.25,-56.5 77.25,-56.5"/>
<text text-anchor="middle" x="103.25" y="-63.5" font-family="Helvetica,sans-Serif" font-size="10.00">cassert</text>
</a>
</g>
</g>
<!-- Node2&#45;&gt;Node5 -->
<g id="edge4" class="edge">
<title>Node2&#45;&gt;Node5</title>
<path fill="none" stroke="midnightblue" d="M268.19,-112.44C233.17,-102.79 176.29,-87.12 139.32,-76.94"/>
<polygon fill="midnightblue" stroke="midnightblue" points="140.03,-73.5 129.46,-74.22 138.17,-80.25 140.03,-73.5"/>
</g>
<!-- Node6 -->
<g id="node6" class="node">
<title>Node6</title>
<g id="a_node6"><a xlink:title=" ">
<polygon fill="none" stroke="#bfbfbf" points="147.25,-56.5 147.25,-75.5 209.25,-75.5 209.25,-56.5 147.25,-56.5"/>
<text text-anchor="middle" x="178.25" y="-63.5" font-family="Helvetica,sans-Serif" font-size="10.00">cinttypes</text>
</a>
</g>
</g>
<!-- Node2&#45;&gt;Node6 -->
<g id="edge5" class="edge">
<title>Node2&#45;&gt;Node6</title>
<path fill="none" stroke="midnightblue" d="M280.08,-112.44C260.34,-103.64 229.37,-89.81 206.76,-79.72"/>
<polygon fill="midnightblue" stroke="midnightblue" points="207.89,-76.4 197.33,-75.52 205.04,-82.79 207.89,-76.4"/>
</g>
<!-- Node7 -->
<g id="node7" class="node">
<title>Node7</title>
<g id="a_node7"><a xlink:title=" ">
<polygon fill="none" stroke="#bfbfbf" points="227.25,-56.5 227.25,-75.5 271.25,-75.5 271.25,-56.5 227.25,-56.5"/>
<text text-anchor="middle" x="249.25" y="-63.5" font-family="Helvetica,sans-Serif" font-size="10.00">limits</text>
</a>
</g>
</g>
<!-- Node2&#45;&gt;Node7 -->
<g id="edge6" class="edge">
<title>Node2&#45;&gt;Node7</title>
<path fill="none" stroke="midnightblue" d="M290.99,-112.08C283.79,-104.3 273.14,-92.8 264.4,-83.37"/>
<polygon fill="midnightblue" stroke="midnightblue" points="266.72,-80.71 257.35,-75.75 261.58,-85.47 266.72,-80.71"/>
</g>
<!-- Node8 -->
<g id="node8" class="node">
<title>Node8</title>
<g id="a_node8"><a xlink:title=" ">
<polygon fill="none" stroke="#bfbfbf" points="417.25,-0.5 417.25,-19.5 475.25,-19.5 475.25,-0.5 417.25,-0.5"/>
<text text-anchor="middle" x="446.25" y="-7.5" font-family="Helvetica,sans-Serif" font-size="10.00">memory</text>
</a>
</g>
</g>
<!-- Node2&#45;&gt;Node8 -->
<g id="edge7" class="edge">
<title>Node2&#45;&gt;Node8</title>
<path fill="none" stroke="midnightblue" d="M348.52,-112.46C372.75,-106.03 400.84,-94.94 420.25,-76 433,-63.55 439.68,-44.04 443.05,-29.64"/>
<polygon fill="midnightblue" stroke="midnightblue" points="446.49,-30.32 445.04,-19.83 439.62,-28.93 446.49,-30.32"/>
</g>
<!-- Node9 -->
<g id="node9" class="node">
<title>Node9</title>
<g id="a_node9"><a xlink:href="plane_8h.html" target="_top" xlink:title=" ">
<polygon fill="none" stroke="black" points="289.25,-56.5 289.25,-75.5 411.25,-75.5 411.25,-56.5 289.25,-56.5"/>
<text text-anchor="middle" x="350.25" y="-63.5" font-family="Helvetica,sans-Serif" font-size="10.00">occ/geometry/plane.h</text>
</a>
</g>
</g>
<!-- Node2&#45;&gt;Node9 -->
<g id="edge8" class="edge">
<title>Node2&#45;&gt;Node9</title>
<path fill="none" stroke="midnightblue" d="M307.67,-112.08C315.1,-104.22 326.1,-92.57 335.06,-83.08"/>
<polygon fill="midnightblue" stroke="midnightblue" points="337.66,-85.42 341.99,-75.75 332.57,-80.62 337.66,-85.42"/>
</g>
<!-- Node10 -->
<g id="node10" class="node">
<title>Node10</title>
<g id="a_node10"><a xlink:href="pool_8h.html" target="_top" xlink:title=" ">
<polygon fill="none" stroke="black" points="467.25,-56.5 467.25,-75.5 583.25,-75.5 583.25,-56.5 467.25,-56.5"/>
<text text-anchor="middle" x="525.25" y="-63.5" font-family="Helvetica,sans-Serif" font-size="10.00">occ/geometry/pool.h</text>
</a>
</g>
</g>
<!-- Node2&#45;&gt;Node10 -->
<g id="edge10" class="edge">
<title>Node2&#45;&gt;Node10</title>
<path fill="none" stroke="midnightblue" d="M335.06,-112.44C374.24,-103.08 437.13,-88.06 479.77,-77.87"/>
<polygon fill="midnightblue" stroke="midnightblue" points="480.69,-81.24 489.61,-75.52 479.07,-74.44 480.69,-81.24"/>
</g>
<!-- Node11 -->
<g id="node11" class="node">
<title>Node11</title>
<g id="a_node11"><a xlink:title=" ">
<polygon fill="none" stroke="#bfbfbf" points="544.75,-0.5 544.75,-19.5 591.75,-19.5 591.75,-0.5 544.75,-0.5"/>
<text text-anchor="middle" x="568.25" y="-7.5" font-family="Helvetica,sans-Serif" font-size="10.00">vector</text>
</a>
</g>
</g>
<!-- Node2&#45;&gt;Node11 -->
<g id="edge14" class="edge">
<title>Node2&#45;&gt;Node11</title>
<path fill="none" stroke="midnightblue" d="M360.54,-120.58C437.49,-118.61 563.01,-110.08 592.25,-76 604.19,-62.09 593.41,-41.71 582.73,-27.49"/>
<polygon fill="midnightblue" stroke="midnightblue" points="585.31,-25.12 576.3,-19.55 579.87,-29.52 585.31,-25.12"/>
</g>
<!-- Node12 -->
<g id="node12" class="node">
<title>Node12</title>
<g id="a_node12"><a xlink:title=" ">
<polygon fill="none" stroke="#bfbfbf" points="639.75,-56.5 639.75,-75.5 732.75,-75.5 732.75,-56.5 639.75,-56.5"/>
<text text-anchor="middle" x="686.25" y="-63.5" font-family="Helvetica,sans-Serif" font-size="10.00">unordered_map</text>
</a>
</g>
</g>
<!-- Node2&#45;&gt;Node12 -->
<g id="edge13" class="edge">
<title>Node2&#45;&gt;Node12</title>
<path fill="none" stroke="midnightblue" d="M360.26,-112.75C425.77,-103.85 532.92,-89.18 625.25,-76 626.71,-75.79 628.18,-75.58 629.67,-75.37"/>
<polygon fill="midnightblue" stroke="midnightblue" points="630.24,-78.82 639.63,-73.92 629.23,-71.89 630.24,-78.82"/>
</g>
<!-- Node9&#45;&gt;Node3 -->
<g id="edge9" class="edge">
<title>Node9&#45;&gt;Node3</title>
<path fill="none" stroke="midnightblue" d="M321.73,-56.44C291.18,-47.28 242.54,-32.69 208.65,-22.52"/>
<polygon fill="midnightblue" stroke="midnightblue" points="209.22,-19.04 198.64,-19.52 207.21,-25.74 209.22,-19.04"/>
</g>
<!-- Node10&#45;&gt;Node8 -->
<g id="edge11" class="edge">
<title>Node10&#45;&gt;Node8</title>
<path fill="none" stroke="midnightblue" d="M512.56,-56.32C500.35,-47.98 481.67,-35.21 467.25,-25.35"/>
<polygon fill="midnightblue" stroke="midnightblue" points="469.14,-22.41 458.91,-19.65 465.19,-28.19 469.14,-22.41"/>
</g>
<!-- Node10&#45;&gt;Node11 -->
<g id="edge12" class="edge">
<title>Node10&#45;&gt;Node11</title>
<path fill="none" stroke="midnightblue" d="M532.35,-56.08C538.49,-48.38 547.52,-37.03 554.99,-27.65"/>
<polygon fill="midnightblue" stroke="midnightblue" points="557.79,-29.75 561.28,-19.75 552.31,-25.39 557.79,-29.75"/>
</g>
</g>
</svg>
