<?xml version="1.0" encoding="UTF-8" standalone="no"?>
<!DOCTYPE svg PUBLIC "-//W3C//DTD SVG 1.1//EN"
 "http://www.w3.org/Graphics/SVG/1.1/DTD/svg11.dtd">
<!-- Generated by graphviz version 2.43.0 (0)
 -->
<!-- Title: /home/runner/work/occ/occ/include/occ/qm/hf_fwd.h Pages: 1 -->
<svg width="642pt" height="269pt"
 viewBox="0.00 0.00 641.50 269.00" xmlns="http://www.w3.org/2000/svg" xmlns:xlink="http://www.w3.org/1999/xlink">
<g id="graph0" class="graph" transform="scale(1 1) rotate(0) translate(4 265)">
<title>/home/runner/work/occ/occ/include/occ/qm/hf_fwd.h</title>
<!-- Node1 -->
<g id="Node000001" class="node">
<title>Node1</title>
<g id="a_Node000001"><a xlink:title=" ">
<polygon fill="#999999" stroke="#666666" points="419.5,-261 262.5,-261 262.5,-231 419.5,-231 419.5,-261"/>
<text text-anchor="start" x="270.5" y="-249" font-family="Helvetica,sans-Serif" font-size="10.00">/home/runner/work/occ</text>
<text text-anchor="middle" x="341" y="-238" font-family="Helvetica,sans-Serif" font-size="10.00">/occ/include/occ/qm/hf_fwd.h</text>
</a>
</g>
</g>
<!-- Node2 -->
<g id="Node000002" class="node">
<title>Node2</title>
<g id="a_Node000002"><a xlink:href="pairinteraction_8h.html" target="_top" xlink:title=" ">
<polygon fill="white" stroke="#666666" points="415.5,-195 266.5,-195 266.5,-154 415.5,-154 415.5,-195"/>
<text text-anchor="start" x="274.5" y="-183" font-family="Helvetica,sans-Serif" font-size="10.00">/home/runner/work/occ</text>
<text text-anchor="start" x="274.5" y="-172" font-family="Helvetica,sans-Serif" font-size="10.00">/occ/include/occ/interaction</text>
<text text-anchor="middle" x="341" y="-161" font-family="Helvetica,sans-Serif" font-size="10.00">/pairinteraction.h</text>
</a>
</g>
</g>
<!-- Node1&#45;&gt;Node2 -->
<g id="edge1_Node000001_Node000002" class="edge">
<title>Node1&#45;&gt;Node2</title>
<g id="a_edge1_Node000001_Node000002"><a xlink:title=" ">
<path fill="none" stroke="#63b8ff" d="M341,-220.91C341,-212.47 341,-203.1 341,-195.07"/>
<polygon fill="#63b8ff" stroke="#63b8ff" points="337.5,-220.94 341,-230.94 344.5,-220.94 337.5,-220.94"/>
</a>
</g>
</g>
<!-- Node3 -->
<g id="Node000003" class="node">
<title>Node3</title>
<g id="a_Node000003"><a xlink:href="result__types_8h.html" target="_top" xlink:title=" ">
<polygon fill="white" stroke="#666666" points="261.5,-118 122.5,-118 122.5,-77 261.5,-77 261.5,-118"/>
<text text-anchor="start" x="130.5" y="-106" font-family="Helvetica,sans-Serif" font-size="10.00">/home/runner/work/occ</text>
<text text-anchor="start" x="130.5" y="-95" font-family="Helvetica,sans-Serif" font-size="10.00">/occ/include/occ/cg/result</text>
<text text-anchor="middle" x="192" y="-84" font-family="Helvetica,sans-Serif" font-size="10.00">_types.h</text>
</a>
</g>
</g>
<!-- Node2&#45;&gt;Node3 -->
<g id="edge2_Node000002_Node000003" class="edge">
<title>Node2&#45;&gt;Node3</title>
<g id="a_edge2_Node000002_Node000003"><a xlink:title=" ">
<path fill="none" stroke="#63b8ff" d="M293.22,-149.45C273.06,-139.3 249.9,-127.64 230.82,-118.04"/>
<polygon fill="#63b8ff" stroke="#63b8ff" points="291.74,-152.62 302.24,-153.99 294.88,-146.37 291.74,-152.62"/>
</a>
</g>
</g>
<!-- Node5 -->
<g id="Node000005" class="node">
<title>Node5</title>
<g id="a_Node000005"><a xlink:href="crystal__growth_8h.html" target="_top" xlink:title=" ">
<polygon fill="white" stroke="#666666" points="310,-41 182,-41 182,0 310,0 310,-41"/>
<text text-anchor="start" x="190" y="-29" font-family="Helvetica,sans-Serif" font-size="10.00">/home/runner/work/occ</text>
<text text-anchor="start" x="190" y="-18" font-family="Helvetica,sans-Serif" font-size="10.00">/occ/include/occ/driver</text>
<text text-anchor="middle" x="246" y="-7" font-family="Helvetica,sans-Serif" font-size="10.00">/crystal_growth.h</text>
</a>
</g>
</g>
<!-- Node2&#45;&gt;Node5 -->
<g id="edge6_Node000002_Node000005" class="edge">
<title>Node2&#45;&gt;Node5</title>
<g id="a_edge6_Node000002_Node000005"><a xlink:title=" ">
<path fill="none" stroke="#63b8ff" d="M323.28,-145.15C304.42,-114.97 275.05,-67.98 258.48,-41.47"/>
<polygon fill="#63b8ff" stroke="#63b8ff" points="320.51,-147.31 328.77,-153.94 326.44,-143.6 320.51,-147.31"/>
</a>
</g>
</g>
<!-- Node7 -->
<g id="Node000007" class="node">
<title>Node7</title>
<g id="a_Node000007"><a xlink:href="interaction__json_8h.html" target="_top" xlink:title=" ">
<polygon fill="white" stroke="#666666" points="633.5,-118 484.5,-118 484.5,-77 633.5,-77 633.5,-118"/>
<text text-anchor="start" x="492.5" y="-106" font-family="Helvetica,sans-Serif" font-size="10.00">/home/runner/work/occ</text>
<text text-anchor="start" x="492.5" y="-95" font-family="Helvetica,sans-Serif" font-size="10.00">/occ/include/occ/interaction</text>
<text text-anchor="middle" x="559" y="-84" font-family="Helvetica,sans-Serif" font-size="10.00">/interaction_json.h</text>
</a>
</g>
</g>
<!-- Node2&#45;&gt;Node7 -->
<g id="edge7_Node000002_Node000007" class="edge">
<title>Node2&#45;&gt;Node7</title>
<g id="a_edge7_Node000002_Node000007"><a xlink:title=" ">
<path fill="none" stroke="#63b8ff" d="M407.35,-150.67C437.64,-140.25 473.16,-128.03 502.2,-118.04"/>
<polygon fill="#63b8ff" stroke="#63b8ff" points="406.03,-147.43 397.71,-153.99 408.3,-154.05 406.03,-147.43"/>
</a>
</g>
</g>
<!-- Node8 -->
<g id="Node000008" class="node">
<title>Node8</title>
<g id="a_Node000008"><a xlink:href="pair__energy_8h.html" target="_top" xlink:title=" ">
<polygon fill="white" stroke="#666666" points="466.5,-118 317.5,-118 317.5,-77 466.5,-77 466.5,-118"/>
<text text-anchor="start" x="325.5" y="-106" font-family="Helvetica,sans-Serif" font-size="10.00">/home/runner/work/occ</text>
<text text-anchor="start" x="325.5" y="-95" font-family="Helvetica,sans-Serif" font-size="10.00">/occ/include/occ/interaction</text>
<text text-anchor="middle" x="392" y="-84" font-family="Helvetica,sans-Serif" font-size="10.00">/pair_energy.h</text>
</a>
</g>
</g>
<!-- Node2&#45;&gt;Node8 -->
<g id="edge8_Node000002_Node000008" class="edge">
<title>Node2&#45;&gt;Node8</title>
<g id="a_edge8_Node000002_Node000008"><a xlink:title=" ">
<path fill="none" stroke="#63b8ff" d="M360.11,-145.39C366.3,-136.3 373.02,-126.41 378.69,-118.07"/>
<polygon fill="#63b8ff" stroke="#63b8ff" points="357.13,-143.56 354.4,-153.79 362.92,-147.49 357.13,-143.56"/>
</a>
</g>
</g>
<!-- Node4 -->
<g id="Node000004" class="node">
<title>Node4</title>
<g id="a_Node000004"><a xlink:href="interaction__mapper_8h.html" target="_top" xlink:title=" ">
<polygon fill="white" stroke="#666666" points="164,-41 0,-41 0,0 164,0 164,-41"/>
<text text-anchor="start" x="8" y="-29" font-family="Helvetica,sans-Serif" font-size="10.00">/home/runner/work/occ</text>
<text text-anchor="start" x="8" y="-18" font-family="Helvetica,sans-Serif" font-size="10.00">/occ/include/occ/cg/interaction</text>
<text text-anchor="middle" x="82" y="-7" font-family="Helvetica,sans-Serif" font-size="10.00">_mapper.h</text>
</a>
</g>
</g>
<!-- Node3&#45;&gt;Node4 -->
<g id="edge3_Node000003_Node000004" class="edge">
<title>Node3&#45;&gt;Node4</title>
<g id="a_edge3_Node000003_Node000004"><a xlink:title=" ">
<path fill="none" stroke="#63b8ff" d="M154.74,-71.09C140.4,-61.32 124.28,-50.32 110.85,-41.17"/>
<polygon fill="#63b8ff" stroke="#63b8ff" points="153.15,-74.25 163.39,-76.99 157.1,-68.47 153.15,-74.25"/>
</a>
</g>
</g>
<!-- Node3&#45;&gt;Node5 -->
<g id="edge4_Node000003_Node000005" class="edge">
<title>Node3&#45;&gt;Node5</title>
<g id="a_edge4_Node000003_Node000005"><a xlink:title=" ">
<path fill="none" stroke="#63b8ff" d="M212.04,-68.67C218.64,-59.5 225.84,-49.5 231.91,-41.07"/>
<polygon fill="#63b8ff" stroke="#63b8ff" points="209.19,-66.63 206.19,-76.79 214.87,-70.72 209.19,-66.63"/>
</a>
</g>
</g>
<!-- Node6 -->
<g id="Node000006" class="node">
<title>Node6</title>
<g id="a_Node000006"><a xlink:href="occ__cg_8h.html" target="_top" xlink:title=" ">
<polygon fill="white" stroke="#666666" points="456,-41 328,-41 328,0 456,0 456,-41"/>
<text text-anchor="start" x="336" y="-29" font-family="Helvetica,sans-Serif" font-size="10.00">/home/runner/work/occ</text>
<text text-anchor="start" x="336" y="-18" font-family="Helvetica,sans-Serif" font-size="10.00">/occ/include/occ/main</text>
<text text-anchor="middle" x="392" y="-7" font-family="Helvetica,sans-Serif" font-size="10.00">/occ_cg.h</text>
</a>
</g>
</g>
<!-- Node3&#45;&gt;Node6 -->
<g id="edge5_Node000003_Node000006" class="edge">
<title>Node3&#45;&gt;Node6</title>
<g id="a_edge5_Node000003_Node000006"><a xlink:title=" ">
<path fill="none" stroke="#63b8ff" d="M253.59,-73.4C281.23,-63.04 313.47,-50.95 339.89,-41.04"/>
<polygon fill="#63b8ff" stroke="#63b8ff" points="252.16,-70.2 244.03,-76.99 254.62,-76.76 252.16,-70.2"/>
</a>
</g>
</g>
<!-- Node8&#45;&gt;Node5 -->
<g id="edge9_Node000008_Node000005" class="edge">
<title>Node8&#45;&gt;Node5</title>
<g id="a_edge9_Node000008_Node000005"><a xlink:title=" ">
<path fill="none" stroke="#63b8ff" d="M344.91,-72.31C325.23,-62.2 302.65,-50.6 284.04,-41.04"/>
<polygon fill="#63b8ff" stroke="#63b8ff" points="343.53,-75.53 354.02,-76.99 346.73,-69.31 343.53,-75.53"/>
</a>
</g>
</g>
<!-- Node8&#45;&gt;Node6 -->
<g id="edge10_Node000008_Node000006" class="edge">
<title>Node8&#45;&gt;Node6</title>
<g id="a_edge10_Node000008_Node000006"><a xlink:title=" ">
<path fill="none" stroke="#63b8ff" d="M392,-66.69C392,-58.08 392,-48.9 392,-41.07"/>
<polygon fill="#63b8ff" stroke="#63b8ff" points="388.5,-66.79 392,-76.79 395.5,-66.79 388.5,-66.79"/>
</a>
</g>
</g>
<!-- Node9 -->
<g id="Node000009" class="node">
<title>Node9</title>
<g id="a_Node000009"><a xlink:href="occ__elat_8h.html" target="_top" xlink:title=" ">
<polygon fill="white" stroke="#666666" points="602,-41 474,-41 474,0 602,0 602,-41"/>
<text text-anchor="start" x="482" y="-29" font-family="Helvetica,sans-Serif" font-size="10.00">/home/runner/work/occ</text>
<text text-anchor="start" x="482" y="-18" font-family="Helvetica,sans-Serif" font-size="10.00">/occ/include/occ/main</text>
<text text-anchor="middle" x="538" y="-7" font-family="Helvetica,sans-Serif" font-size="10.00">/occ_elat.h</text>
</a>
</g>
</g>
<!-- Node8&#45;&gt;Node9 -->
<g id="edge11_Node000008_Node000009" class="edge">
<title>Node8&#45;&gt;Node9</title>
<g id="a_edge11_Node000008_Node000009"><a xlink:title=" ">
<path fill="none" stroke="#63b8ff" d="M439.09,-72.31C458.77,-62.2 481.35,-50.6 499.96,-41.04"/>
<polygon fill="#63b8ff" stroke="#63b8ff" points="437.27,-69.31 429.98,-76.99 440.47,-75.53 437.27,-69.31"/>
</a>
</g>
</g>
</g>
</svg>
