<?xml version="1.0" encoding="UTF-8" standalone="no"?>
<!DOCTYPE svg PUBLIC "-//W3C//DTD SVG 1.1//EN"
 "http://www.w3.org/Graphics/SVG/1.1/DTD/svg11.dtd">
<!-- Generated by graphviz version 2.43.0 (0)
 -->
<!-- Title: /home/runner/work/occ/occ/include/occ/crystal/hkl.h Pages: 1 -->
<svg width="2840pt" height="577pt"
 viewBox="0.00 0.00 2840.00 577.00" xmlns="http://www.w3.org/2000/svg" xmlns:xlink="http://www.w3.org/1999/xlink">
<g id="graph0" class="graph" transform="scale(1 1) rotate(0) translate(4 573)">
<title>/home/runner/work/occ/occ/include/occ/crystal/hkl.h</title>
<!-- Node1 -->
<g id="Node000001" class="node">
<title>Node1</title>
<g id="a_Node000001"><a xlink:title=" ">
<polygon fill="#999999" stroke="#666666" points="2123.5,-569 1966.5,-569 1966.5,-539 2123.5,-539 2123.5,-569"/>
<text text-anchor="start" x="1974.5" y="-557" font-family="Helvetica,sans-Serif" font-size="10.00">/home/runner/work/occ</text>
<text text-anchor="middle" x="2045" y="-546" font-family="Helvetica,sans-Serif" font-size="10.00">/occ/include/occ/crystal/hkl.h</text>
</a>
</g>
</g>
<!-- Node2 -->
<g id="Node000002" class="node">
<title>Node2</title>
<g id="a_Node000002"><a xlink:href="crystal_8h.html" target="_top" xlink:title=" ">
<polygon fill="white" stroke="#666666" points="1656,-272 1526,-272 1526,-231 1656,-231 1656,-272"/>
<text text-anchor="start" x="1534" y="-260" font-family="Helvetica,sans-Serif" font-size="10.00">/home/runner/work/occ</text>
<text text-anchor="start" x="1534" y="-249" font-family="Helvetica,sans-Serif" font-size="10.00">/occ/include/occ/crystal</text>
<text text-anchor="middle" x="1591" y="-238" font-family="Helvetica,sans-Serif" font-size="10.00">/crystal.h</text>
</a>
</g>
</g>
<!-- Node1&#45;&gt;Node2 -->
<g id="edge1_Node000001_Node000002" class="edge">
<title>Node1&#45;&gt;Node2</title>
<g id="a_edge1_Node000001_Node000002"><a xlink:title=" ">
<path fill="none" stroke="#63b8ff" d="M2043.79,-528.79C2039.81,-478.1 2022.79,-361.1 1950,-308 1904.34,-274.69 1746.61,-260.82 1656.14,-255.49"/>
<polygon fill="#63b8ff" stroke="#63b8ff" points="2040.3,-529.09 2044.47,-538.83 2047.28,-528.61 2040.3,-529.09"/>
</a>
</g>
</g>
<!-- Node9 -->
<g id="Node000009" class="node">
<title>Node9</title>
<g id="a_Node000009"><a xlink:href="crystal_2surface_8h.html" target="_top" xlink:title=" ">
<polygon fill="white" stroke="#666666" points="2518,-195 2388,-195 2388,-154 2518,-154 2518,-195"/>
<text text-anchor="start" x="2396" y="-183" font-family="Helvetica,sans-Serif" font-size="10.00">/home/runner/work/occ</text>
<text text-anchor="start" x="2396" y="-172" font-family="Helvetica,sans-Serif" font-size="10.00">/occ/include/occ/crystal</text>
<text text-anchor="middle" x="2453" y="-161" font-family="Helvetica,sans-Serif" font-size="10.00">/surface.h</text>
</a>
</g>
</g>
<!-- Node1&#45;&gt;Node9 -->
<g id="edge43_Node000001_Node000009" class="edge">
<title>Node1&#45;&gt;Node9</title>
<g id="a_edge43_Node000001_Node000009"><a xlink:title=" ">
<path fill="none" stroke="#63b8ff" d="M2060.03,-530.12C2076.92,-502.16 2102,-452.84 2102,-406.5 2102,-406.5 2102,-406.5 2102,-327.5 2102,-296.21 2292.3,-228.59 2392.66,-195.1"/>
<polygon fill="#63b8ff" stroke="#63b8ff" points="2056.98,-528.41 2054.67,-538.75 2062.92,-532.1 2056.98,-528.41"/>
</a>
</g>
</g>
<!-- Node17 -->
<g id="Node000017" class="node">
<title>Node17</title>
<g id="a_Node000017"><a xlink:href="gmf_8h.html" target="_top" xlink:title=" ">
<polygon fill="white" stroke="#666666" points="2673.5,-189.5 2536.5,-189.5 2536.5,-159.5 2673.5,-159.5 2673.5,-189.5"/>
<text text-anchor="start" x="2544.5" y="-177.5" font-family="Helvetica,sans-Serif" font-size="10.00">/home/runner/work/occ</text>
<text text-anchor="middle" x="2605" y="-166.5" font-family="Helvetica,sans-Serif" font-size="10.00">/occ/include/occ/io/gmf.h</text>
</a>
</g>
</g>
<!-- Node1&#45;&gt;Node17 -->
<g id="edge50_Node000001_Node000017" class="edge">
<title>Node1&#45;&gt;Node17</title>
<g id="a_edge50_Node000001_Node000017"><a xlink:title=" ">
<path fill="none" stroke="#63b8ff" d="M2133.71,-540.62C2209.71,-524.41 2307,-487.8 2307,-406.5 2307,-406.5 2307,-406.5 2307,-327.5 2307,-272.33 2471.15,-215.32 2555.79,-189.6"/>
<polygon fill="#63b8ff" stroke="#63b8ff" points="2132.71,-537.25 2123.61,-542.68 2134.11,-544.11 2132.71,-537.25"/>
</a>
</g>
</g>
<!-- Node29 -->
<g id="Node000029" class="node">
<title>Node29</title>
<g id="a_Node000029"><a xlink:href="crystal__surface__energy_8h.html" target="_top" xlink:title=" ">
<polygon fill="white" stroke="#666666" points="2832,-195 2692,-195 2692,-154 2832,-154 2832,-195"/>
<text text-anchor="start" x="2700" y="-183" font-family="Helvetica,sans-Serif" font-size="10.00">/home/runner/work/occ</text>
<text text-anchor="start" x="2700" y="-172" font-family="Helvetica,sans-Serif" font-size="10.00">/occ/include/occ/main</text>
<text text-anchor="middle" x="2762" y="-161" font-family="Helvetica,sans-Serif" font-size="10.00">/crystal_surface_energy.h</text>
</a>
</g>
</g>
<!-- Node1&#45;&gt;Node29 -->
<g id="edge51_Node000001_Node000029" class="edge">
<title>Node1&#45;&gt;Node29</title>
<g id="a_edge51_Node000001_Node000029"><a xlink:title=" ">
<path fill="none" stroke="#63b8ff" d="M2133.75,-550.82C2307.98,-544.12 2678,-516.89 2678,-406.5 2678,-406.5 2678,-406.5 2678,-327.5 2678,-274.44 2717.7,-222.49 2742.52,-195.21"/>
<polygon fill="#63b8ff" stroke="#63b8ff" points="2133.43,-547.33 2123.57,-551.2 2133.69,-554.32 2133.43,-547.33"/>
</a>
</g>
</g>
<!-- Node32 -->
<g id="Node000032" class="node">
<title>Node32</title>
<g id="a_Node000032"><a xlink:href="site__index_8h.html" target="_top" xlink:title=" ">
<polygon fill="white" stroke="#666666" points="1752,-503 1622,-503 1622,-462 1752,-462 1752,-503"/>
<text text-anchor="start" x="1630" y="-491" font-family="Helvetica,sans-Serif" font-size="10.00">/home/runner/work/occ</text>
<text text-anchor="start" x="1630" y="-480" font-family="Helvetica,sans-Serif" font-size="10.00">/occ/include/occ/crystal</text>
<text text-anchor="middle" x="1687" y="-469" font-family="Helvetica,sans-Serif" font-size="10.00">/site_index.h</text>
</a>
</g>
</g>
<!-- Node1&#45;&gt;Node32 -->
<g id="edge36_Node000001_Node000032" class="edge">
<title>Node1&#45;&gt;Node32</title>
<g id="a_edge36_Node000001_Node000032"><a xlink:title=" ">
<path fill="none" stroke="#63b8ff" d="M1962.5,-536.98C1898.56,-524.57 1811.19,-507.61 1752.12,-496.14"/>
<polygon fill="#63b8ff" stroke="#63b8ff" points="1962.07,-540.47 1972.55,-538.94 1963.4,-533.59 1962.07,-540.47"/>
</a>
</g>
</g>
<!-- Node35 -->
<g id="Node000035" class="node">
<title>Node35</title>
<g id="a_Node000035"><a xlink:href="spacegroup_8h.html" target="_top" xlink:title=" ">
<polygon fill="white" stroke="#666666" points="1941,-349 1811,-349 1811,-308 1941,-308 1941,-349"/>
<text text-anchor="start" x="1819" y="-337" font-family="Helvetica,sans-Serif" font-size="10.00">/home/runner/work/occ</text>
<text text-anchor="start" x="1819" y="-326" font-family="Helvetica,sans-Serif" font-size="10.00">/occ/include/occ/crystal</text>
<text text-anchor="middle" x="1876" y="-315" font-family="Helvetica,sans-Serif" font-size="10.00">/spacegroup.h</text>
</a>
</g>
</g>
<!-- Node1&#45;&gt;Node35 -->
<g id="edge41_Node000001_Node000035" class="edge">
<title>Node1&#45;&gt;Node35</title>
<g id="a_edge41_Node000001_Node000035"><a xlink:title=" ">
<path fill="none" stroke="#63b8ff" d="M2035.43,-529.47C2020.68,-495.11 1989.86,-430.36 1950,-385 1937.92,-371.25 1921.92,-358.74 1907.89,-349.09"/>
<polygon fill="#63b8ff" stroke="#63b8ff" points="2032.22,-530.85 2039.32,-538.71 2038.67,-528.14 2032.22,-530.85"/>
</a>
</g>
</g>
<!-- Node36 -->
<g id="Node000036" class="node">
<title>Node36</title>
<g id="a_Node000036"><a xlink:href="unitcell_8h.html" target="_top" xlink:title=" ">
<polygon fill="white" stroke="#666666" points="1941,-503 1811,-503 1811,-462 1941,-462 1941,-503"/>
<text text-anchor="start" x="1819" y="-491" font-family="Helvetica,sans-Serif" font-size="10.00">/home/runner/work/occ</text>
<text text-anchor="start" x="1819" y="-480" font-family="Helvetica,sans-Serif" font-size="10.00">/occ/include/occ/crystal</text>
<text text-anchor="middle" x="1876" y="-469" font-family="Helvetica,sans-Serif" font-size="10.00">/unitcell.h</text>
</a>
</g>
</g>
<!-- Node1&#45;&gt;Node36 -->
<g id="edge44_Node000001_Node000036" class="edge">
<title>Node1&#45;&gt;Node36</title>
<g id="a_edge44_Node000001_Node000036"><a xlink:title=" ">
<path fill="none" stroke="#63b8ff" d="M2001.31,-535.03C1977.5,-525.24 1947.99,-513.11 1923.6,-503.07"/>
<polygon fill="#63b8ff" stroke="#63b8ff" points="2000.22,-538.37 2010.8,-538.94 2002.88,-531.9 2000.22,-538.37"/>
</a>
</g>
</g>
<!-- Node3 -->
<g id="Node000003" class="node">
<title>Node3</title>
<g id="a_Node000003"><a xlink:href="distance__partition_8h.html" target="_top" xlink:title=" ">
<polygon fill="white" stroke="#666666" points="538,-118 386,-118 386,-77 538,-77 538,-118"/>
<text text-anchor="start" x="394" y="-106" font-family="Helvetica,sans-Serif" font-size="10.00">/home/runner/work/occ</text>
<text text-anchor="start" x="394" y="-95" font-family="Helvetica,sans-Serif" font-size="10.00">/occ/include/occ/cg/distance</text>
<text text-anchor="middle" x="462" y="-84" font-family="Helvetica,sans-Serif" font-size="10.00">_partition.h</text>
</a>
</g>
</g>
<!-- Node2&#45;&gt;Node3 -->
<g id="edge2_Node000002_Node000003" class="edge">
<title>Node2&#45;&gt;Node3</title>
<g id="a_edge2_Node000002_Node000003"><a xlink:title=" ">
<path fill="none" stroke="#63b8ff" d="M1515.66,-249.52C1325.71,-246.48 831.1,-234.87 672,-195 605.64,-178.37 534.52,-141.09 494.42,-118.04"/>
<polygon fill="#63b8ff" stroke="#63b8ff" points="1515.78,-253.02 1525.83,-249.68 1515.88,-246.02 1515.78,-253.02"/>
</a>
</g>
</g>
<!-- Node4 -->
<g id="Node000004" class="node">
<title>Node4</title>
<g id="a_Node000004"><a xlink:href="crystal__growth_8h.html" target="_top" xlink:title=" ">
<polygon fill="white" stroke="#666666" points="767,-41 639,-41 639,0 767,0 767,-41"/>
<text text-anchor="start" x="647" y="-29" font-family="Helvetica,sans-Serif" font-size="10.00">/home/runner/work/occ</text>
<text text-anchor="start" x="647" y="-18" font-family="Helvetica,sans-Serif" font-size="10.00">/occ/include/occ/driver</text>
<text text-anchor="middle" x="703" y="-7" font-family="Helvetica,sans-Serif" font-size="10.00">/crystal_growth.h</text>
</a>
</g>
</g>
<!-- Node2&#45;&gt;Node4 -->
<g id="edge9_Node000002_Node000004" class="edge">
<title>Node2&#45;&gt;Node4</title>
<g id="a_edge9_Node000002_Node000004"><a xlink:title=" ">
<path fill="none" stroke="#63b8ff" d="M1515.87,-249.75C1310.61,-247.17 743.61,-236.4 562,-195 475.17,-175.2 426.42,-192.09 377,-118 366.89,-102.84 365.25,-90.92 377,-77 409.82,-38.12 553.47,-26.47 638.75,-22.99"/>
<polygon fill="#63b8ff" stroke="#63b8ff" points="1515.91,-253.25 1525.95,-249.87 1515.99,-246.25 1515.91,-253.25"/>
</a>
</g>
</g>
<!-- Node5 -->
<g id="Node000005" class="node">
<title>Node5</title>
<g id="a_Node000005"><a xlink:href="interaction__mapper_8h.html" target="_top" xlink:title=" ">
<polygon fill="white" stroke="#666666" points="164,-195 0,-195 0,-154 164,-154 164,-195"/>
<text text-anchor="start" x="8" y="-183" font-family="Helvetica,sans-Serif" font-size="10.00">/home/runner/work/occ</text>
<text text-anchor="start" x="8" y="-172" font-family="Helvetica,sans-Serif" font-size="10.00">/occ/include/occ/cg/interaction</text>
<text text-anchor="middle" x="82" y="-161" font-family="Helvetica,sans-Serif" font-size="10.00">_mapper.h</text>
</a>
</g>
</g>
<!-- Node2&#45;&gt;Node5 -->
<g id="edge4_Node000002_Node000005" class="edge">
<title>Node2&#45;&gt;Node5</title>
<g id="a_edge4_Node000002_Node000005"><a xlink:title=" ">
<path fill="none" stroke="#63b8ff" d="M1515.62,-248.31C1241.43,-240.24 306.27,-211.76 173,-195 170.11,-194.64 167.18,-194.23 164.23,-193.78"/>
<polygon fill="#63b8ff" stroke="#63b8ff" points="1515.77,-251.82 1525.86,-248.61 1515.97,-244.82 1515.77,-251.82"/>
</a>
</g>
</g>
<!-- Node6 -->
<g id="Node000006" class="node">
<title>Node6</title>
<g id="a_Node000006"><a xlink:href="neighbor__atoms_8h.html" target="_top" xlink:title=" ">
<polygon fill="white" stroke="#666666" points="2078,-195 1924,-195 1924,-154 2078,-154 2078,-195"/>
<text text-anchor="start" x="1932" y="-183" font-family="Helvetica,sans-Serif" font-size="10.00">/home/runner/work/occ</text>
<text text-anchor="start" x="1932" y="-172" font-family="Helvetica,sans-Serif" font-size="10.00">/occ/include/occ/cg/neighbor</text>
<text text-anchor="middle" x="2001" y="-161" font-family="Helvetica,sans-Serif" font-size="10.00">_atoms.h</text>
</a>
</g>
</g>
<!-- Node2&#45;&gt;Node6 -->
<g id="edge5_Node000002_Node000006" class="edge">
<title>Node2&#45;&gt;Node6</title>
<g id="a_edge5_Node000002_Node000006"><a xlink:title=" ">
<path fill="none" stroke="#63b8ff" d="M1666.32,-238.77C1732.12,-228.24 1830.12,-211.88 1915,-195 1917.85,-194.43 1920.76,-193.84 1923.69,-193.23"/>
<polygon fill="#63b8ff" stroke="#63b8ff" points="1665.37,-235.37 1656.04,-240.4 1666.47,-242.29 1665.37,-235.37"/>
</a>
</g>
</g>
<!-- Node8 -->
<g id="Node000008" class="node">
<title>Node8</title>
<g id="a_Node000008"><a xlink:href="dimer__labeller_8h.html" target="_top" xlink:title=" ">
<polygon fill="white" stroke="#666666" points="1048,-195 918,-195 918,-154 1048,-154 1048,-195"/>
<text text-anchor="start" x="926" y="-183" font-family="Helvetica,sans-Serif" font-size="10.00">/home/runner/work/occ</text>
<text text-anchor="start" x="926" y="-172" font-family="Helvetica,sans-Serif" font-size="10.00">/occ/include/occ/crystal</text>
<text text-anchor="middle" x="983" y="-161" font-family="Helvetica,sans-Serif" font-size="10.00">/dimer_labeller.h</text>
</a>
</g>
</g>
<!-- Node2&#45;&gt;Node8 -->
<g id="edge7_Node000002_Node000008" class="edge">
<title>Node2&#45;&gt;Node8</title>
<g id="a_edge7_Node000002_Node000008"><a xlink:title=" ">
<path fill="none" stroke="#63b8ff" d="M1515.52,-246.33C1411.61,-239.76 1218.94,-224.57 1057,-195 1054.12,-194.47 1051.2,-193.9 1048.25,-193.28"/>
<polygon fill="#63b8ff" stroke="#63b8ff" points="1515.4,-249.83 1525.6,-246.96 1515.84,-242.84 1515.4,-249.83"/>
</a>
</g>
</g>
<!-- Node2&#45;&gt;Node9 -->
<g id="edge8_Node000002_Node000009" class="edge">
<title>Node2&#45;&gt;Node9</title>
<g id="a_edge8_Node000002_Node000009"><a xlink:title=" ">
<path fill="none" stroke="#63b8ff" d="M1666.23,-247C1835.71,-238.83 2243.17,-217.48 2379,-195 2381.88,-194.52 2384.82,-193.98 2387.77,-193.4"/>
<polygon fill="#63b8ff" stroke="#63b8ff" points="1665.97,-243.51 1656.15,-247.49 1666.3,-250.5 1665.97,-243.51"/>
</a>
</g>
</g>
<!-- Node10 -->
<g id="Node000010" class="node">
<title>Node10</title>
<g id="a_Node000010"><a xlink:href="pair__energy_8h.html" target="_top" xlink:title=" ">
<polygon fill="white" stroke="#666666" points="1813.5,-118 1664.5,-118 1664.5,-77 1813.5,-77 1813.5,-118"/>
<text text-anchor="start" x="1672.5" y="-106" font-family="Helvetica,sans-Serif" font-size="10.00">/home/runner/work/occ</text>
<text text-anchor="start" x="1672.5" y="-95" font-family="Helvetica,sans-Serif" font-size="10.00">/occ/include/occ/interaction</text>
<text text-anchor="middle" x="1739" y="-84" font-family="Helvetica,sans-Serif" font-size="10.00">/pair_energy.h</text>
</a>
</g>
</g>
<!-- Node2&#45;&gt;Node10 -->
<g id="edge10_Node000002_Node000010" class="edge">
<title>Node2&#45;&gt;Node10</title>
<g id="a_edge10_Node000002_Node000010"><a xlink:title=" ">
<path fill="none" stroke="#63b8ff" d="M1515.74,-249.99C1346.89,-248.07 949.47,-238.89 909,-195 896.65,-181.6 896.43,-167.19 909,-154 937.62,-123.96 1613.9,-123.71 1655,-118 1658.11,-117.57 1661.28,-117.07 1664.48,-116.53"/>
<polygon fill="#63b8ff" stroke="#63b8ff" points="1515.76,-253.49 1525.79,-250.1 1515.83,-246.49 1515.76,-253.49"/>
</a>
</g>
</g>
<!-- Node13 -->
<g id="Node000013" class="node">
<title>Node13</title>
<g id="a_Node000013"><a xlink:href="cifparser_8h.html" target="_top" xlink:title=" ">
<polygon fill="white" stroke="#666666" points="716,-112.5 556,-112.5 556,-82.5 716,-82.5 716,-112.5"/>
<text text-anchor="start" x="564" y="-100.5" font-family="Helvetica,sans-Serif" font-size="10.00">/home/runner/work/occ</text>
<text text-anchor="middle" x="636" y="-89.5" font-family="Helvetica,sans-Serif" font-size="10.00">/occ/include/occ/io/cifparser.h</text>
</a>
</g>
</g>
<!-- Node2&#45;&gt;Node13 -->
<g id="edge14_Node000002_Node000013" class="edge">
<title>Node2&#45;&gt;Node13</title>
<g id="a_edge14_Node000002_Node000013"><a xlink:title=" ">
<path fill="none" stroke="#63b8ff" d="M1515.77,-248.87C1318.28,-244.14 795.38,-228.56 725,-195 687.15,-176.95 657.73,-135 644.18,-112.82"/>
<polygon fill="#63b8ff" stroke="#63b8ff" points="1515.69,-252.37 1525.77,-249.11 1515.86,-245.37 1515.69,-252.37"/>
</a>
</g>
</g>
<!-- Node14 -->
<g id="Node000014" class="node">
<title>Node14</title>
<g id="a_Node000014"><a xlink:href="crystal__json_8h.html" target="_top" xlink:title=" ">
<polygon fill="white" stroke="#666666" points="1208,-195 1066,-195 1066,-154 1208,-154 1208,-195"/>
<text text-anchor="start" x="1074" y="-183" font-family="Helvetica,sans-Serif" font-size="10.00">/home/runner/work/occ</text>
<text text-anchor="start" x="1074" y="-172" font-family="Helvetica,sans-Serif" font-size="10.00">/occ/include/occ/io/crystal</text>
<text text-anchor="middle" x="1137" y="-161" font-family="Helvetica,sans-Serif" font-size="10.00">_json.h</text>
</a>
</g>
</g>
<!-- Node2&#45;&gt;Node14 -->
<g id="edge15_Node000002_Node000014" class="edge">
<title>Node2&#45;&gt;Node14</title>
<g id="a_edge15_Node000002_Node000014"><a xlink:title=" ">
<path fill="none" stroke="#63b8ff" d="M1515.9,-241.41C1440.13,-231.77 1319.96,-215.14 1217,-195 1214.05,-194.42 1211.05,-193.81 1208.03,-193.17"/>
<polygon fill="#63b8ff" stroke="#63b8ff" points="1515.47,-244.89 1525.83,-242.67 1516.35,-237.94 1515.47,-244.89"/>
</a>
</g>
</g>
<!-- Node15 -->
<g id="Node000015" class="node">
<title>Node15</title>
<g id="a_Node000015"><a xlink:href="crystalgrower_8h.html" target="_top" xlink:title=" ">
<polygon fill="white" stroke="#666666" points="1410,-189.5 1226,-189.5 1226,-159.5 1410,-159.5 1410,-189.5"/>
<text text-anchor="start" x="1234" y="-177.5" font-family="Helvetica,sans-Serif" font-size="10.00">/home/runner/work/occ</text>
<text text-anchor="middle" x="1318" y="-166.5" font-family="Helvetica,sans-Serif" font-size="10.00">/occ/include/occ/io/crystalgrower.h</text>
</a>
</g>
</g>
<!-- Node2&#45;&gt;Node15 -->
<g id="edge16_Node000002_Node000015" class="edge">
<title>Node2&#45;&gt;Node15</title>
<g id="a_edge16_Node000002_Node000015"><a xlink:title=" ">
<path fill="none" stroke="#63b8ff" d="M1516.2,-229.95C1469.56,-217.14 1410.74,-200.98 1369.34,-189.6"/>
<polygon fill="#63b8ff" stroke="#63b8ff" points="1515.39,-233.36 1525.96,-232.63 1517.24,-226.61 1515.39,-233.36"/>
</a>
</g>
</g>
<!-- Node16 -->
<g id="Node000016" class="node">
<title>Node16</title>
<g id="a_Node000016"><a xlink:href="dftb__gen_8h.html" target="_top" xlink:title=" ">
<polygon fill="white" stroke="#666666" points="1588,-189.5 1428,-189.5 1428,-159.5 1588,-159.5 1588,-189.5"/>
<text text-anchor="start" x="1436" y="-177.5" font-family="Helvetica,sans-Serif" font-size="10.00">/home/runner/work/occ</text>
<text text-anchor="middle" x="1508" y="-166.5" font-family="Helvetica,sans-Serif" font-size="10.00">/occ/include/occ/io/dftb_gen.h</text>
</a>
</g>
</g>
<!-- Node2&#45;&gt;Node16 -->
<g id="edge17_Node000002_Node000016" class="edge">
<title>Node2&#45;&gt;Node16</title>
<g id="a_edge17_Node000002_Node000016"><a xlink:title=" ">
<path fill="none" stroke="#63b8ff" d="M1561.5,-223.84C1548.72,-212.3 1534.29,-199.25 1523.63,-189.63"/>
<polygon fill="#63b8ff" stroke="#63b8ff" points="1559.43,-226.69 1569.19,-230.79 1564.12,-221.49 1559.43,-226.69"/>
</a>
</g>
</g>
<!-- Node2&#45;&gt;Node17 -->
<g id="edge18_Node000002_Node000017" class="edge">
<title>Node2&#45;&gt;Node17</title>
<g id="a_edge18_Node000002_Node000017"><a xlink:title=" ">
<path fill="none" stroke="#63b8ff" d="M1666.31,-250.76C1825.95,-250.27 2209.74,-243.63 2527,-195 2535.97,-193.63 2545.41,-191.69 2554.51,-189.57"/>
<polygon fill="#63b8ff" stroke="#63b8ff" points="1666.11,-247.26 1656.12,-250.78 1666.13,-254.26 1666.11,-247.26"/>
</a>
</g>
</g>
<!-- Node18 -->
<g id="Node000018" class="node">
<title>Node18</title>
<g id="a_Node000018"><a xlink:href="kmcpp_8h.html" target="_top" xlink:title=" ">
<polygon fill="white" stroke="#666666" points="1757.5,-189.5 1606.5,-189.5 1606.5,-159.5 1757.5,-159.5 1757.5,-189.5"/>
<text text-anchor="start" x="1614.5" y="-177.5" font-family="Helvetica,sans-Serif" font-size="10.00">/home/runner/work/occ</text>
<text text-anchor="middle" x="1682" y="-166.5" font-family="Helvetica,sans-Serif" font-size="10.00">/occ/include/occ/io/kmcpp.h</text>
</a>
</g>
</g>
<!-- Node2&#45;&gt;Node18 -->
<g id="edge19_Node000002_Node000018" class="edge">
<title>Node2&#45;&gt;Node18</title>
<g id="a_edge19_Node000002_Node000018"><a xlink:title=" ">
<path fill="none" stroke="#63b8ff" d="M1622.95,-224.17C1637.05,-212.55 1653.07,-199.34 1664.86,-189.63"/>
<polygon fill="#63b8ff" stroke="#63b8ff" points="1620.4,-221.73 1614.91,-230.79 1624.85,-227.14 1620.4,-221.73"/>
</a>
</g>
</g>
<!-- Node19 -->
<g id="Node000019" class="node">
<title>Node19</title>
<g id="a_Node000019"><a xlink:href="load__geometry_8h.html" target="_top" xlink:title=" ">
<polygon fill="white" stroke="#666666" points="1906,-195 1776,-195 1776,-154 1906,-154 1906,-195"/>
<text text-anchor="start" x="1784" y="-183" font-family="Helvetica,sans-Serif" font-size="10.00">/home/runner/work/occ</text>
<text text-anchor="start" x="1784" y="-172" font-family="Helvetica,sans-Serif" font-size="10.00">/occ/include/occ/io/load</text>
<text text-anchor="middle" x="1841" y="-161" font-family="Helvetica,sans-Serif" font-size="10.00">_geometry.h</text>
</a>
</g>
</g>
<!-- Node2&#45;&gt;Node19 -->
<g id="edge20_Node000002_Node000019" class="edge">
<title>Node2&#45;&gt;Node19</title>
<g id="a_edge20_Node000002_Node000019"><a xlink:title=" ">
<path fill="none" stroke="#63b8ff" d="M1665.73,-228.08C1700.77,-217.57 1742.12,-205.16 1775.86,-195.04"/>
<polygon fill="#63b8ff" stroke="#63b8ff" points="1664.6,-224.76 1656.03,-230.99 1666.62,-231.47 1664.6,-224.76"/>
</a>
</g>
</g>
<!-- Node20 -->
<g id="Node000020" class="node">
<title>Node20</title>
<g id="a_Node000020"><a xlink:href="occ__input_8h.html" target="_top" xlink:title=" ">
<polygon fill="white" stroke="#666666" points="862,-195 734,-195 734,-154 862,-154 862,-195"/>
<text text-anchor="start" x="742" y="-183" font-family="Helvetica,sans-Serif" font-size="10.00">/home/runner/work/occ</text>
<text text-anchor="start" x="742" y="-172" font-family="Helvetica,sans-Serif" font-size="10.00">/occ/include/occ/io/occ</text>
<text text-anchor="middle" x="798" y="-161" font-family="Helvetica,sans-Serif" font-size="10.00">_input.h</text>
</a>
</g>
</g>
<!-- Node2&#45;&gt;Node20 -->
<g id="edge21_Node000002_Node000020" class="edge">
<title>Node2&#45;&gt;Node20</title>
<g id="a_edge21_Node000002_Node000020"><a xlink:title=" ">
<path fill="none" stroke="#63b8ff" d="M1515.68,-248.8C1384.8,-244.91 1107.22,-232.61 876,-195 871.45,-194.26 866.78,-193.39 862.1,-192.43"/>
<polygon fill="#63b8ff" stroke="#63b8ff" points="1515.89,-252.3 1525.99,-249.09 1516.09,-245.31 1515.89,-252.3"/>
</a>
</g>
</g>
<!-- Node27 -->
<g id="Node000027" class="node">
<title>Node27</title>
<g id="a_Node000027"><a xlink:href="void_8h.html" target="_top" xlink:title=" ">
<polygon fill="white" stroke="#666666" points="329.5,-195 182.5,-195 182.5,-154 329.5,-154 329.5,-195"/>
<text text-anchor="start" x="190.5" y="-183" font-family="Helvetica,sans-Serif" font-size="10.00">/home/runner/work/occ</text>
<text text-anchor="start" x="190.5" y="-172" font-family="Helvetica,sans-Serif" font-size="10.00">/occ/include/occ/isosurface</text>
<text text-anchor="middle" x="256" y="-161" font-family="Helvetica,sans-Serif" font-size="10.00">/void.h</text>
</a>
</g>
</g>
<!-- Node2&#45;&gt;Node27 -->
<g id="edge31_Node000002_Node000027" class="edge">
<title>Node2&#45;&gt;Node27</title>
<g id="a_edge31_Node000002_Node000027"><a xlink:title=" ">
<path fill="none" stroke="#63b8ff" d="M1515.7,-248.86C1282.22,-243.52 572.5,-225.17 344,-195 339.35,-194.39 334.57,-193.65 329.78,-192.82"/>
<polygon fill="#63b8ff" stroke="#63b8ff" points="1515.71,-252.37 1525.79,-249.09 1515.87,-245.37 1515.71,-252.37"/>
</a>
</g>
</g>
<!-- Node2&#45;&gt;Node29 -->
<g id="edge33_Node000002_Node000029" class="edge">
<title>Node2&#45;&gt;Node29</title>
<g id="a_edge33_Node000002_Node000029"><a xlink:title=" ">
<path fill="none" stroke="#63b8ff" d="M1666.25,-248.52C1879.54,-242.61 2485.36,-223.71 2682,-195 2685.25,-194.53 2688.57,-193.98 2691.91,-193.38"/>
<polygon fill="#63b8ff" stroke="#63b8ff" points="1665.99,-245.02 1656.09,-248.8 1666.18,-252.02 1665.99,-245.02"/>
</a>
</g>
</g>
<!-- Node30 -->
<g id="Node000030" class="node">
<title>Node30</title>
<g id="a_Node000030"><a xlink:href="tblite__wrapper_8h.html" target="_top" xlink:title=" ">
<polygon fill="white" stroke="#666666" points="2224,-195 2096,-195 2096,-154 2224,-154 2224,-195"/>
<text text-anchor="start" x="2104" y="-183" font-family="Helvetica,sans-Serif" font-size="10.00">/home/runner/work/occ</text>
<text text-anchor="start" x="2104" y="-172" font-family="Helvetica,sans-Serif" font-size="10.00">/occ/include/occ/xtb</text>
<text text-anchor="middle" x="2160" y="-161" font-family="Helvetica,sans-Serif" font-size="10.00">/tblite_wrapper.h</text>
</a>
</g>
</g>
<!-- Node2&#45;&gt;Node30 -->
<g id="edge34_Node000002_Node000030" class="edge">
<title>Node2&#45;&gt;Node30</title>
<g id="a_edge34_Node000002_Node000030"><a xlink:title=" ">
<path fill="none" stroke="#63b8ff" d="M1666.13,-245.61C1763.74,-238.45 1939.17,-222.85 2087,-195 2089.84,-194.47 2092.72,-193.88 2095.63,-193.25"/>
<polygon fill="#63b8ff" stroke="#63b8ff" points="1665.78,-242.12 1656.06,-246.34 1666.29,-249.11 1665.78,-242.12"/>
</a>
</g>
</g>
<!-- Node31 -->
<g id="Node000031" class="node">
<title>Node31</title>
<g id="a_Node000031"><a xlink:href="xtb__wrapper_8h.html" target="_top" xlink:title=" ">
<polygon fill="white" stroke="#666666" points="2370,-195 2242,-195 2242,-154 2370,-154 2370,-195"/>
<text text-anchor="start" x="2250" y="-183" font-family="Helvetica,sans-Serif" font-size="10.00">/home/runner/work/occ</text>
<text text-anchor="start" x="2250" y="-172" font-family="Helvetica,sans-Serif" font-size="10.00">/occ/include/occ/xtb</text>
<text text-anchor="middle" x="2306" y="-161" font-family="Helvetica,sans-Serif" font-size="10.00">/xtb_wrapper.h</text>
</a>
</g>
</g>
<!-- Node2&#45;&gt;Node31 -->
<g id="edge35_Node000002_Node000031" class="edge">
<title>Node2&#45;&gt;Node31</title>
<g id="a_edge35_Node000002_Node000031"><a xlink:title=" ">
<path fill="none" stroke="#63b8ff" d="M1666.41,-248.25C1786.94,-243.69 2030.1,-230.59 2233,-195 2235.84,-194.5 2238.74,-193.94 2241.65,-193.34"/>
<polygon fill="#63b8ff" stroke="#63b8ff" points="1666.05,-244.76 1656.19,-248.62 1666.31,-251.75 1666.05,-244.76"/>
</a>
</g>
</g>
<!-- Node3&#45;&gt;Node4 -->
<g id="edge3_Node000003_Node000004" class="edge">
<title>Node3&#45;&gt;Node4</title>
<g id="a_edge3_Node000003_Node000004"><a xlink:title=" ">
<path fill="none" stroke="#63b8ff" d="M534.48,-73.94C568.16,-63.46 607.82,-51.12 640.2,-41.04"/>
<polygon fill="#63b8ff" stroke="#63b8ff" points="533.2,-70.68 524.69,-76.99 535.28,-77.36 533.2,-70.68"/>
</a>
</g>
</g>
<!-- Node7 -->
<g id="Node000007" class="node">
<title>Node7</title>
<g id="a_Node000007"><a xlink:href="solvation__types_8h.html" target="_top" xlink:title=" ">
<polygon fill="white" stroke="#666666" points="2079,-118 1923,-118 1923,-77 2079,-77 2079,-118"/>
<text text-anchor="start" x="1931" y="-106" font-family="Helvetica,sans-Serif" font-size="10.00">/home/runner/work/occ</text>
<text text-anchor="start" x="1931" y="-95" font-family="Helvetica,sans-Serif" font-size="10.00">/occ/include/occ/cg/solvation</text>
<text text-anchor="middle" x="2001" y="-84" font-family="Helvetica,sans-Serif" font-size="10.00">_types.h</text>
</a>
</g>
</g>
<!-- Node6&#45;&gt;Node7 -->
<g id="edge6_Node000006_Node000007" class="edge">
<title>Node6&#45;&gt;Node7</title>
<g id="a_edge6_Node000006_Node000007"><a xlink:title=" ">
<path fill="none" stroke="#63b8ff" d="M2001,-143.69C2001,-135.08 2001,-125.9 2001,-118.07"/>
<polygon fill="#63b8ff" stroke="#63b8ff" points="1997.5,-143.79 2001,-153.79 2004.5,-143.79 1997.5,-143.79"/>
</a>
</g>
</g>
<!-- Node10&#45;&gt;Node4 -->
<g id="edge11_Node000010_Node000004" class="edge">
<title>Node10&#45;&gt;Node4</title>
<g id="a_edge11_Node000010_Node000004"><a xlink:title=" ">
<path fill="none" stroke="#63b8ff" d="M1654.46,-77.07C1315.55,-29.06 919.63,-22.28 767.16,-21.49"/>
<polygon fill="#63b8ff" stroke="#63b8ff" points="1654.07,-80.55 1664.47,-78.51 1655.07,-73.62 1654.07,-80.55"/>
</a>
</g>
</g>
<!-- Node11 -->
<g id="Node000011" class="node">
<title>Node11</title>
<g id="a_Node000011"><a xlink:href="occ__cg_8h.html" target="_top" xlink:title=" ">
<polygon fill="white" stroke="#666666" points="1876,-41 1748,-41 1748,0 1876,0 1876,-41"/>
<text text-anchor="start" x="1756" y="-29" font-family="Helvetica,sans-Serif" font-size="10.00">/home/runner/work/occ</text>
<text text-anchor="start" x="1756" y="-18" font-family="Helvetica,sans-Serif" font-size="10.00">/occ/include/occ/main</text>
<text text-anchor="middle" x="1812" y="-7" font-family="Helvetica,sans-Serif" font-size="10.00">/occ_cg.h</text>
</a>
</g>
</g>
<!-- Node10&#45;&gt;Node11 -->
<g id="edge12_Node000010_Node000011" class="edge">
<title>Node10&#45;&gt;Node11</title>
<g id="a_edge12_Node000010_Node000011"><a xlink:title=" ">
<path fill="none" stroke="#63b8ff" d="M1765.27,-69.51C1774.42,-60.11 1784.5,-49.76 1792.95,-41.07"/>
<polygon fill="#63b8ff" stroke="#63b8ff" points="1762.65,-67.19 1758.18,-76.79 1767.66,-72.07 1762.65,-67.19"/>
</a>
</g>
</g>
<!-- Node12 -->
<g id="Node000012" class="node">
<title>Node12</title>
<g id="a_Node000012"><a xlink:href="occ__elat_8h.html" target="_top" xlink:title=" ">
<polygon fill="white" stroke="#666666" points="1730,-41 1602,-41 1602,0 1730,0 1730,-41"/>
<text text-anchor="start" x="1610" y="-29" font-family="Helvetica,sans-Serif" font-size="10.00">/home/runner/work/occ</text>
<text text-anchor="start" x="1610" y="-18" font-family="Helvetica,sans-Serif" font-size="10.00">/occ/include/occ/main</text>
<text text-anchor="middle" x="1666" y="-7" font-family="Helvetica,sans-Serif" font-size="10.00">/occ_elat.h</text>
</a>
</g>
</g>
<!-- Node10&#45;&gt;Node12 -->
<g id="edge13_Node000010_Node000012" class="edge">
<title>Node10&#45;&gt;Node12</title>
<g id="a_edge13_Node000010_Node000012"><a xlink:title=" ">
<path fill="none" stroke="#63b8ff" d="M1712.73,-69.51C1703.58,-60.11 1693.5,-49.76 1685.05,-41.07"/>
<polygon fill="#63b8ff" stroke="#63b8ff" points="1710.34,-72.07 1719.82,-76.79 1715.35,-67.19 1710.34,-72.07"/>
</a>
</g>
</g>
<!-- Node20&#45;&gt;Node10 -->
<g id="edge25_Node000020_Node000010" class="edge">
<title>Node20&#45;&gt;Node10</title>
<g id="a_edge25_Node000020_Node000010"><a xlink:title=" ">
<path fill="none" stroke="#63b8ff" d="M872.13,-154.6C873.43,-154.39 874.72,-154.19 876,-154 1218.93,-103.72 1311.66,-165.38 1655,-118 1658.11,-117.57 1661.28,-117.08 1664.48,-116.54"/>
<polygon fill="#63b8ff" stroke="#63b8ff" points="871.29,-151.19 862.07,-156.41 872.53,-158.08 871.29,-151.19"/>
</a>
</g>
</g>
<!-- Node20&#45;&gt;Node13 -->
<g id="edge26_Node000020_Node000013" class="edge">
<title>Node20&#45;&gt;Node13</title>
<g id="a_edge26_Node000020_Node000013"><a xlink:title=" ">
<path fill="none" stroke="#63b8ff" d="M746.74,-149.77C720.32,-137.54 689,-123.04 666.42,-112.58"/>
<polygon fill="#63b8ff" stroke="#63b8ff" points="745.31,-152.97 755.86,-153.99 748.26,-146.61 745.31,-152.97"/>
</a>
</g>
</g>
<!-- Node21 -->
<g id="Node000021" class="node">
<title>Node21</title>
<g id="a_Node000021"><a xlink:href="geometry__optimization_8h.html" target="_top" xlink:title=" ">
<polygon fill="white" stroke="#666666" points="1461.5,-118 1318.5,-118 1318.5,-77 1461.5,-77 1461.5,-118"/>
<text text-anchor="start" x="1326.5" y="-106" font-family="Helvetica,sans-Serif" font-size="10.00">/home/runner/work/occ</text>
<text text-anchor="start" x="1326.5" y="-95" font-family="Helvetica,sans-Serif" font-size="10.00">/occ/include/occ/driver</text>
<text text-anchor="middle" x="1390" y="-84" font-family="Helvetica,sans-Serif" font-size="10.00">/geometry_optimization.h</text>
</a>
</g>
</g>
<!-- Node20&#45;&gt;Node21 -->
<g id="edge22_Node000020_Node000021" class="edge">
<title>Node20&#45;&gt;Node21</title>
<g id="a_edge22_Node000020_Node000021"><a xlink:title=" ">
<path fill="none" stroke="#63b8ff" d="M872.14,-154.66C873.43,-154.43 874.72,-154.21 876,-154 1066.52,-122.48 1118.35,-148.69 1309,-118 1312,-117.52 1315.05,-116.98 1318.13,-116.41"/>
<polygon fill="#63b8ff" stroke="#63b8ff" points="871.26,-151.27 862.1,-156.6 872.58,-158.14 871.26,-151.27"/>
</a>
</g>
</g>
<!-- Node22 -->
<g id="Node000022" class="node">
<title>Node22</title>
<g id="a_Node000022"><a xlink:href="single__point_8h.html" target="_top" xlink:title=" ">
<polygon fill="white" stroke="#666666" points="1008,-118 880,-118 880,-77 1008,-77 1008,-118"/>
<text text-anchor="start" x="888" y="-106" font-family="Helvetica,sans-Serif" font-size="10.00">/home/runner/work/occ</text>
<text text-anchor="start" x="888" y="-95" font-family="Helvetica,sans-Serif" font-size="10.00">/occ/include/occ/driver</text>
<text text-anchor="middle" x="944" y="-84" font-family="Helvetica,sans-Serif" font-size="10.00">/single_point.h</text>
</a>
</g>
</g>
<!-- Node20&#45;&gt;Node22 -->
<g id="edge23_Node000020_Node000022" class="edge">
<title>Node20&#45;&gt;Node22</title>
<g id="a_edge23_Node000020_Node000022"><a xlink:title=" ">
<path fill="none" stroke="#63b8ff" d="M845.09,-149.31C864.77,-139.2 887.35,-127.6 905.96,-118.04"/>
<polygon fill="#63b8ff" stroke="#63b8ff" points="843.27,-146.31 835.98,-153.99 846.47,-152.53 843.27,-146.31"/>
</a>
</g>
</g>
<!-- Node23 -->
<g id="Node000023" class="node">
<title>Node23</title>
<g id="a_Node000023"><a xlink:href="qcschema_8h.html" target="_top" xlink:title=" ">
<polygon fill="white" stroke="#666666" points="1646.5,-112.5 1479.5,-112.5 1479.5,-82.5 1646.5,-82.5 1646.5,-112.5"/>
<text text-anchor="start" x="1487.5" y="-100.5" font-family="Helvetica,sans-Serif" font-size="10.00">/home/runner/work/occ</text>
<text text-anchor="middle" x="1563" y="-89.5" font-family="Helvetica,sans-Serif" font-size="10.00">/occ/include/occ/io/qcschema.h</text>
</a>
</g>
</g>
<!-- Node20&#45;&gt;Node23 -->
<g id="edge27_Node000020_Node000023" class="edge">
<title>Node20&#45;&gt;Node23</title>
<g id="a_edge27_Node000020_Node000023"><a xlink:title=" ">
<path fill="none" stroke="#63b8ff" d="M872.13,-154.62C873.43,-154.41 874.72,-154.2 876,-154 1137.4,-113.76 1207.87,-153.23 1470,-118 1480.46,-116.59 1491.51,-114.67 1502.19,-112.58"/>
<polygon fill="#63b8ff" stroke="#63b8ff" points="871.28,-151.22 862.08,-156.48 872.55,-158.11 871.28,-151.22"/>
</a>
</g>
</g>
<!-- Node24 -->
<g id="Node000024" class="node">
<title>Node24</title>
<g id="a_Node000024"><a xlink:href="occ__pair_8h.html" target="_top" xlink:title=" ">
<polygon fill="white" stroke="#666666" points="862,-118 734,-118 734,-77 862,-77 862,-118"/>
<text text-anchor="start" x="742" y="-106" font-family="Helvetica,sans-Serif" font-size="10.00">/home/runner/work/occ</text>
<text text-anchor="start" x="742" y="-95" font-family="Helvetica,sans-Serif" font-size="10.00">/occ/include/occ/main</text>
<text text-anchor="middle" x="798" y="-84" font-family="Helvetica,sans-Serif" font-size="10.00">/occ_pair.h</text>
</a>
</g>
</g>
<!-- Node20&#45;&gt;Node24 -->
<g id="edge28_Node000020_Node000024" class="edge">
<title>Node20&#45;&gt;Node24</title>
<g id="a_edge28_Node000020_Node000024"><a xlink:title=" ">
<path fill="none" stroke="#63b8ff" d="M798,-143.69C798,-135.08 798,-125.9 798,-118.07"/>
<polygon fill="#63b8ff" stroke="#63b8ff" points="794.5,-143.79 798,-153.79 801.5,-143.79 794.5,-143.79"/>
</a>
</g>
</g>
<!-- Node25 -->
<g id="Node000025" class="node">
<title>Node25</title>
<g id="a_Node000025"><a xlink:href="occ__scf_8h.html" target="_top" xlink:title=" ">
<polygon fill="white" stroke="#666666" points="1154,-118 1026,-118 1026,-77 1154,-77 1154,-118"/>
<text text-anchor="start" x="1034" y="-106" font-family="Helvetica,sans-Serif" font-size="10.00">/home/runner/work/occ</text>
<text text-anchor="start" x="1034" y="-95" font-family="Helvetica,sans-Serif" font-size="10.00">/occ/include/occ/main</text>
<text text-anchor="middle" x="1090" y="-84" font-family="Helvetica,sans-Serif" font-size="10.00">/occ_scf.h</text>
</a>
</g>
</g>
<!-- Node20&#45;&gt;Node25 -->
<g id="edge29_Node000020_Node000025" class="edge">
<title>Node20&#45;&gt;Node25</title>
<g id="a_edge29_Node000020_Node000025"><a xlink:title=" ">
<path fill="none" stroke="#63b8ff" d="M871.96,-155.01C914.43,-144.33 968.76,-130.56 1017,-118 1019.92,-117.24 1022.9,-116.46 1025.92,-115.67"/>
<polygon fill="#63b8ff" stroke="#63b8ff" points="871.11,-151.61 862.26,-157.45 872.81,-158.4 871.11,-151.61"/>
</a>
</g>
</g>
<!-- Node26 -->
<g id="Node000026" class="node">
<title>Node26</title>
<g id="a_Node000026"><a xlink:href="properties_8h.html" target="_top" xlink:title=" ">
<polygon fill="white" stroke="#666666" points="1300,-118 1172,-118 1172,-77 1300,-77 1300,-118"/>
<text text-anchor="start" x="1180" y="-106" font-family="Helvetica,sans-Serif" font-size="10.00">/home/runner/work/occ</text>
<text text-anchor="start" x="1180" y="-95" font-family="Helvetica,sans-Serif" font-size="10.00">/occ/include/occ/main</text>
<text text-anchor="middle" x="1236" y="-84" font-family="Helvetica,sans-Serif" font-size="10.00">/properties.h</text>
</a>
</g>
</g>
<!-- Node20&#45;&gt;Node26 -->
<g id="edge30_Node000020_Node000026" class="edge">
<title>Node20&#45;&gt;Node26</title>
<g id="a_edge30_Node000020_Node000026"><a xlink:title=" ">
<path fill="none" stroke="#63b8ff" d="M872.15,-154.74C873.44,-154.48 874.73,-154.24 876,-154 1002.36,-130.37 1036.83,-142.65 1163,-118 1165.83,-117.45 1168.72,-116.84 1171.62,-116.21"/>
<polygon fill="#63b8ff" stroke="#63b8ff" points="871.22,-151.36 862.14,-156.82 872.64,-158.21 871.22,-151.36"/>
</a>
</g>
</g>
<!-- Node22&#45;&gt;Node4 -->
<g id="edge24_Node000022_Node000004" class="edge">
<title>Node22&#45;&gt;Node4</title>
<g id="a_edge24_Node000022_Node000004"><a xlink:title=" ">
<path fill="none" stroke="#63b8ff" d="M871.52,-73.94C837.84,-63.46 798.18,-51.12 765.8,-41.04"/>
<polygon fill="#63b8ff" stroke="#63b8ff" points="870.72,-77.36 881.31,-76.99 872.8,-70.68 870.72,-77.36"/>
</a>
</g>
</g>
<!-- Node28 -->
<g id="Node000028" class="node">
<title>Node28</title>
<g id="a_Node000028"><a xlink:href="isosurface_8h.html" target="_top" xlink:title=" ">
<polygon fill="white" stroke="#666666" points="329.5,-118 182.5,-118 182.5,-77 329.5,-77 329.5,-118"/>
<text text-anchor="start" x="190.5" y="-106" font-family="Helvetica,sans-Serif" font-size="10.00">/home/runner/work/occ</text>
<text text-anchor="start" x="190.5" y="-95" font-family="Helvetica,sans-Serif" font-size="10.00">/occ/include/occ/isosurface</text>
<text text-anchor="middle" x="256" y="-84" font-family="Helvetica,sans-Serif" font-size="10.00">/isosurface.h</text>
</a>
</g>
</g>
<!-- Node27&#45;&gt;Node28 -->
<g id="edge32_Node000027_Node000028" class="edge">
<title>Node27&#45;&gt;Node28</title>
<g id="a_edge32_Node000027_Node000028"><a xlink:title=" ">
<path fill="none" stroke="#63b8ff" d="M256,-143.69C256,-135.08 256,-125.9 256,-118.07"/>
<polygon fill="#63b8ff" stroke="#63b8ff" points="252.5,-143.79 256,-153.79 259.5,-143.79 252.5,-143.79"/>
</a>
</g>
</g>
<!-- Node33 -->
<g id="Node000033" class="node">
<title>Node33</title>
<g id="a_Node000033"><a xlink:href="dimer__mapping__table_8h.html" target="_top" xlink:title=" ">
<polygon fill="white" stroke="#666666" points="1754.5,-426 1619.5,-426 1619.5,-385 1754.5,-385 1754.5,-426"/>
<text text-anchor="start" x="1627.5" y="-414" font-family="Helvetica,sans-Serif" font-size="10.00">/home/runner/work/occ</text>
<text text-anchor="start" x="1627.5" y="-403" font-family="Helvetica,sans-Serif" font-size="10.00">/occ/include/occ/crystal</text>
<text text-anchor="middle" x="1687" y="-392" font-family="Helvetica,sans-Serif" font-size="10.00">/dimer_mapping_table.h</text>
</a>
</g>
</g>
<!-- Node32&#45;&gt;Node33 -->
<g id="edge37_Node000032_Node000033" class="edge">
<title>Node32&#45;&gt;Node33</title>
<g id="a_edge37_Node000032_Node000033"><a xlink:title=" ">
<path fill="none" stroke="#63b8ff" d="M1687,-451.69C1687,-443.08 1687,-433.9 1687,-426.07"/>
<polygon fill="#63b8ff" stroke="#63b8ff" points="1683.5,-451.79 1687,-461.79 1690.5,-451.79 1683.5,-451.79"/>
</a>
</g>
</g>
<!-- Node34 -->
<g id="Node000034" class="node">
<title>Node34</title>
<g id="a_Node000034"><a xlink:href="site__mapping__table_8h.html" target="_top" xlink:title=" ">
<polygon fill="white" stroke="#666666" points="1656,-349 1526,-349 1526,-308 1656,-308 1656,-349"/>
<text text-anchor="start" x="1534" y="-337" font-family="Helvetica,sans-Serif" font-size="10.00">/home/runner/work/occ</text>
<text text-anchor="start" x="1534" y="-326" font-family="Helvetica,sans-Serif" font-size="10.00">/occ/include/occ/crystal</text>
<text text-anchor="middle" x="1591" y="-315" font-family="Helvetica,sans-Serif" font-size="10.00">/site_mapping_table.h</text>
</a>
</g>
</g>
<!-- Node32&#45;&gt;Node34 -->
<g id="edge39_Node000032_Node000034" class="edge">
<title>Node32&#45;&gt;Node34</title>
<g id="a_edge39_Node000032_Node000034"><a xlink:title=" ">
<path fill="none" stroke="#63b8ff" d="M1640.07,-456.16C1628.67,-447.94 1617.59,-437.83 1610,-426 1594.97,-402.57 1591.38,-369.86 1590.75,-349.18"/>
<polygon fill="#63b8ff" stroke="#63b8ff" points="1638.15,-459.08 1648.39,-461.81 1642.08,-453.29 1638.15,-459.08"/>
</a>
</g>
</g>
<!-- Node33&#45;&gt;Node5 -->
<g id="edge38_Node000033_Node000005" class="edge">
<title>Node33&#45;&gt;Node5</title>
<g id="a_edge38_Node000033_Node000005"><a xlink:title=" ">
<path fill="none" stroke="#63b8ff" d="M1609.18,-395.78C1385.24,-370.26 720.24,-291.36 173,-195 170.14,-194.5 167.22,-193.97 164.29,-193.42"/>
<polygon fill="#63b8ff" stroke="#63b8ff" points="1608.86,-399.27 1619.19,-396.92 1609.65,-392.31 1608.86,-399.27"/>
</a>
</g>
</g>
<!-- Node34&#45;&gt;Node2 -->
<g id="edge40_Node000034_Node000002" class="edge">
<title>Node34&#45;&gt;Node2</title>
<g id="a_edge40_Node000034_Node000002"><a xlink:title=" ">
<path fill="none" stroke="#63b8ff" d="M1591,-297.69C1591,-289.08 1591,-279.9 1591,-272.07"/>
<polygon fill="#63b8ff" stroke="#63b8ff" points="1587.5,-297.79 1591,-307.79 1594.5,-297.79 1587.5,-297.79"/>
</a>
</g>
</g>
<!-- Node35&#45;&gt;Node2 -->
<g id="edge42_Node000035_Node000002" class="edge">
<title>Node35&#45;&gt;Node2</title>
<g id="a_edge42_Node000035_Node000002"><a xlink:title=" ">
<path fill="none" stroke="#63b8ff" d="M1801.26,-307.83C1756.24,-295.98 1699.45,-281.04 1656.24,-269.67"/>
<polygon fill="#63b8ff" stroke="#63b8ff" points="1800.41,-311.23 1810.97,-310.39 1802.19,-304.46 1800.41,-311.23"/>
</a>
</g>
</g>
<!-- Node36&#45;&gt;Node2 -->
<g id="edge45_Node000036_Node000002" class="edge">
<title>Node36&#45;&gt;Node2</title>
<g id="a_edge45_Node000036_Node000002"><a xlink:title=" ">
<path fill="none" stroke="#63b8ff" d="M1839.48,-455.99C1827.22,-446.94 1813.7,-436.41 1802,-426 1783.21,-409.29 1781.6,-401.92 1763,-385 1722.03,-347.72 1708.94,-341.73 1665,-308 1649.33,-295.97 1631.64,-282.69 1617.48,-272.14"/>
<polygon fill="#63b8ff" stroke="#63b8ff" points="1837.58,-458.94 1847.73,-462 1841.71,-453.28 1837.58,-458.94"/>
</a>
</g>
</g>
<!-- Node36&#45;&gt;Node9 -->
<g id="edge47_Node000036_Node000009" class="edge">
<title>Node36&#45;&gt;Node9</title>
<g id="a_edge47_Node000036_Node000009"><a xlink:title=" ">
<path fill="none" stroke="#63b8ff" d="M1915,-455.77C1926.88,-447.03 1939.55,-436.75 1950,-426 2024.03,-349.89 1996.88,-285.5 2088,-231 2199.84,-164.11 2251.04,-219.66 2379,-195 2381.87,-194.45 2384.79,-193.84 2387.74,-193.21"/>
<polygon fill="#63b8ff" stroke="#63b8ff" points="1912.62,-453.17 1906.53,-461.84 1916.7,-458.86 1912.62,-453.17"/>
</a>
</g>
</g>
<!-- Node36&#45;&gt;Node33 -->
<g id="edge46_Node000036_Node000033" class="edge">
<title>Node36&#45;&gt;Node33</title>
<g id="a_edge46_Node000036_Node000033"><a xlink:title=" ">
<path fill="none" stroke="#63b8ff" d="M1817.45,-458.27C1791.42,-447.94 1761.1,-435.9 1736.25,-426.04"/>
<polygon fill="#63b8ff" stroke="#63b8ff" points="1816.25,-461.56 1826.84,-461.99 1818.83,-455.05 1816.25,-461.56"/>
</a>
</g>
</g>
<!-- Node37 -->
<g id="Node000037" class="node">
<title>Node37</title>
<g id="a_Node000037"><a xlink:href="symmetryoperation_8h.html" target="_top" xlink:title=" ">
<polygon fill="white" stroke="#666666" points="1941,-426 1811,-426 1811,-385 1941,-385 1941,-426"/>
<text text-anchor="start" x="1819" y="-414" font-family="Helvetica,sans-Serif" font-size="10.00">/home/runner/work/occ</text>
<text text-anchor="start" x="1819" y="-403" font-family="Helvetica,sans-Serif" font-size="10.00">/occ/include/occ/crystal</text>
<text text-anchor="middle" x="1876" y="-392" font-family="Helvetica,sans-Serif" font-size="10.00">/symmetryoperation.h</text>
</a>
</g>
</g>
<!-- Node36&#45;&gt;Node37 -->
<g id="edge48_Node000036_Node000037" class="edge">
<title>Node36&#45;&gt;Node37</title>
<g id="a_edge48_Node000036_Node000037"><a xlink:title=" ">
<path fill="none" stroke="#63b8ff" d="M1876,-451.69C1876,-443.08 1876,-433.9 1876,-426.07"/>
<polygon fill="#63b8ff" stroke="#63b8ff" points="1872.5,-451.79 1876,-461.79 1879.5,-451.79 1872.5,-451.79"/>
</a>
</g>
</g>
<!-- Node37&#45;&gt;Node35 -->
<g id="edge49_Node000037_Node000035" class="edge">
<title>Node37&#45;&gt;Node35</title>
<g id="a_edge49_Node000037_Node000035"><a xlink:title=" ">
<path fill="none" stroke="#63b8ff" d="M1876,-374.69C1876,-366.08 1876,-356.9 1876,-349.07"/>
<polygon fill="#63b8ff" stroke="#63b8ff" points="1872.5,-374.79 1876,-384.79 1879.5,-374.79 1872.5,-374.79"/>
</a>
</g>
</g>
</g>
</svg>
