<?xml version="1.0" encoding="UTF-8" standalone="no"?>
<!DOCTYPE svg PUBLIC "-//W3C//DTD SVG 1.1//EN"
 "http://www.w3.org/Graphics/SVG/1.1/DTD/svg11.dtd">
<!-- Generated by graphviz version 2.43.0 (0)
 -->
<!-- Title: /home/runner/work/occ/occ/include/occ/crystal/hkl.h Pages: 1 -->
<svg width="2135pt" height="429pt"
 viewBox="0.00 0.00 2135.00 429.00" xmlns="http://www.w3.org/2000/svg" xmlns:xlink="http://www.w3.org/1999/xlink">
<g id="graph0" class="graph" transform="scale(1 1) rotate(0) translate(4 425)">
<title>/home/runner/work/occ/occ/include/occ/crystal/hkl.h</title>
<!-- Node1 -->
<g id="node1" class="node">
<title>Node1</title>
<g id="a_node1"><a xlink:title=" ">
<polygon fill="#bfbfbf" stroke="black" points="846.5,-390.5 846.5,-420.5 1003.5,-420.5 1003.5,-390.5 846.5,-390.5"/>
<text text-anchor="start" x="854.5" y="-408.5" font-family="Helvetica,sans-Serif" font-size="10.00">/home/runner/work/occ</text>
<text text-anchor="middle" x="925" y="-397.5" font-family="Helvetica,sans-Serif" font-size="10.00">/occ/include/occ/crystal/hkl.h</text>
</a>
</g>
</g>
<!-- Node2 -->
<g id="node2" class="node">
<title>Node2</title>
<g id="a_node2"><a xlink:href="crystal_8h.html" target="_top" xlink:title=" ">
<polygon fill="none" stroke="black" points="814,-234.5 814,-275.5 944,-275.5 944,-234.5 814,-234.5"/>
<text text-anchor="start" x="822" y="-263.5" font-family="Helvetica,sans-Serif" font-size="10.00">/home/runner/work/occ</text>
<text text-anchor="start" x="822" y="-252.5" font-family="Helvetica,sans-Serif" font-size="10.00">/occ/include/occ/crystal</text>
<text text-anchor="middle" x="879" y="-241.5" font-family="Helvetica,sans-Serif" font-size="10.00">/crystal.h</text>
</a>
</g>
</g>
<!-- Node1&#45;&gt;Node2 -->
<g id="edge1" class="edge">
<title>Node1&#45;&gt;Node2</title>
<path fill="none" stroke="midnightblue" d="M910.88,-381.6C906.2,-373.18 901.34,-363.39 898,-354 888.66,-327.71 883.55,-295.72 881.05,-275.61"/>
<polygon fill="midnightblue" stroke="midnightblue" points="907.97,-383.54 916.01,-390.44 914.02,-380.04 907.97,-383.54"/>
</g>
<!-- Node3 -->
<g id="node3" class="node">
<title>Node3</title>
<g id="a_node3"><a xlink:href="crystal_2surface_8h.html" target="_top" xlink:title=" ">
<polygon fill="none" stroke="black" points="0,-156.5 0,-197.5 130,-197.5 130,-156.5 0,-156.5"/>
<text text-anchor="start" x="8" y="-185.5" font-family="Helvetica,sans-Serif" font-size="10.00">/home/runner/work/occ</text>
<text text-anchor="start" x="8" y="-174.5" font-family="Helvetica,sans-Serif" font-size="10.00">/occ/include/occ/crystal</text>
<text text-anchor="middle" x="65" y="-163.5" font-family="Helvetica,sans-Serif" font-size="10.00">/surface.h</text>
</a>
</g>
</g>
<!-- Node1&#45;&gt;Node3 -->
<g id="edge30" class="edge">
<title>Node1&#45;&gt;Node3</title>
<path fill="none" stroke="midnightblue" d="M855.53,-388.16C813.88,-378.33 759.89,-365.53 712,-354 570.1,-319.83 533.86,-314.24 393,-276 299.8,-250.7 192.76,-218.03 127,-197.54"/>
<polygon fill="midnightblue" stroke="midnightblue" points="854.76,-391.57 865.3,-390.46 856.37,-384.76 854.76,-391.57"/>
</g>
<!-- Node8 -->
<g id="node8" class="node">
<title>Node8</title>
<g id="a_node8"><a xlink:href="gmf_8h.html" target="_top" xlink:title=" ">
<polygon fill="none" stroke="black" points="1831.5,-162 1831.5,-192 1968.5,-192 1968.5,-162 1831.5,-162"/>
<text text-anchor="start" x="1839.5" y="-180" font-family="Helvetica,sans-Serif" font-size="10.00">/home/runner/work/occ</text>
<text text-anchor="middle" x="1900" y="-169" font-family="Helvetica,sans-Serif" font-size="10.00">/occ/include/occ/io/gmf.h</text>
</a>
</g>
</g>
<!-- Node1&#45;&gt;Node8 -->
<g id="edge34" class="edge">
<title>Node1&#45;&gt;Node8</title>
<path fill="none" stroke="midnightblue" d="M998.65,-388.3C1152.22,-354.36 1517.77,-272.72 1823,-198 1830.65,-196.13 1838.71,-194.1 1846.61,-192.07"/>
<polygon fill="midnightblue" stroke="midnightblue" points="997.85,-384.89 988.84,-390.47 999.36,-391.73 997.85,-384.89"/>
</g>
<!-- Node22 -->
<g id="node22" class="node">
<title>Node22</title>
<g id="a_node22"><a xlink:href="crystal__surface__energy_8h.html" target="_top" xlink:title=" ">
<polygon fill="none" stroke="black" points="1987,-156.5 1987,-197.5 2127,-197.5 2127,-156.5 1987,-156.5"/>
<text text-anchor="start" x="1995" y="-185.5" font-family="Helvetica,sans-Serif" font-size="10.00">/home/runner/work/occ</text>
<text text-anchor="start" x="1995" y="-174.5" font-family="Helvetica,sans-Serif" font-size="10.00">/occ/include/occ/main</text>
<text text-anchor="middle" x="2057" y="-163.5" font-family="Helvetica,sans-Serif" font-size="10.00">/crystal_surface_energy.h</text>
</a>
</g>
</g>
<!-- Node1&#45;&gt;Node22 -->
<g id="edge35" class="edge">
<title>Node1&#45;&gt;Node22</title>
<path fill="none" stroke="midnightblue" d="M1013.75,-392.59C1080.98,-383.19 1175.54,-369.17 1258,-354 1580.02,-294.76 1659.25,-272.86 1978,-198 1980.89,-197.32 1983.84,-196.62 1986.82,-195.9"/>
<polygon fill="midnightblue" stroke="midnightblue" points="1013.04,-389.15 1003.62,-394 1014,-396.09 1013.04,-389.15"/>
</g>
<!-- Node26 -->
<g id="node26" class="node">
<title>Node26</title>
<g id="a_node26"><a xlink:href="spacegroup_8h.html" target="_top" xlink:title=" ">
<polygon fill="none" stroke="black" points="907,-312.5 907,-353.5 1037,-353.5 1037,-312.5 907,-312.5"/>
<text text-anchor="start" x="915" y="-341.5" font-family="Helvetica,sans-Serif" font-size="10.00">/home/runner/work/occ</text>
<text text-anchor="start" x="915" y="-330.5" font-family="Helvetica,sans-Serif" font-size="10.00">/occ/include/occ/crystal</text>
<text text-anchor="middle" x="972" y="-319.5" font-family="Helvetica,sans-Serif" font-size="10.00">/spacegroup.h</text>
</a>
</g>
</g>
<!-- Node1&#45;&gt;Node26 -->
<g id="edge28" class="edge">
<title>Node1&#45;&gt;Node26</title>
<path fill="none" stroke="midnightblue" d="M940.2,-381.7C946.25,-372.63 953.13,-362.31 958.94,-353.59"/>
<polygon fill="midnightblue" stroke="midnightblue" points="937.15,-379.97 934.51,-390.23 942.97,-383.85 937.15,-379.97"/>
</g>
<!-- Node27 -->
<g id="node27" class="node">
<title>Node27</title>
<g id="a_node27"><a xlink:href="unitcell_8h.html" target="_top" xlink:title=" ">
<polygon fill="none" stroke="black" points="721,-312.5 721,-353.5 851,-353.5 851,-312.5 721,-312.5"/>
<text text-anchor="start" x="729" y="-341.5" font-family="Helvetica,sans-Serif" font-size="10.00">/home/runner/work/occ</text>
<text text-anchor="start" x="729" y="-330.5" font-family="Helvetica,sans-Serif" font-size="10.00">/occ/include/occ/crystal</text>
<text text-anchor="middle" x="786" y="-319.5" font-family="Helvetica,sans-Serif" font-size="10.00">/unitcell.h</text>
</a>
</g>
</g>
<!-- Node1&#45;&gt;Node27 -->
<g id="edge31" class="edge">
<title>Node1&#45;&gt;Node27</title>
<path fill="none" stroke="midnightblue" d="M888.25,-385.86C868.61,-375.9 844.44,-363.64 824.54,-353.55"/>
<polygon fill="midnightblue" stroke="midnightblue" points="886.7,-389 897.21,-390.4 889.87,-382.76 886.7,-389"/>
</g>
<!-- Node2&#45;&gt;Node3 -->
<g id="edge2" class="edge">
<title>Node2&#45;&gt;Node3</title>
<path fill="none" stroke="midnightblue" d="M803.63,-248.26C751.05,-244.25 679.25,-238.79 616,-234 404,-217.94 348.55,-233.89 139,-198 136.11,-197.51 133.18,-196.95 130.22,-196.34"/>
<polygon fill="midnightblue" stroke="midnightblue" points="803.64,-251.77 813.88,-249.04 804.18,-244.79 803.64,-251.77"/>
</g>
<!-- Node4 -->
<g id="node4" class="node">
<title>Node4</title>
<g id="a_node4"><a xlink:href="cifparser_8h.html" target="_top" xlink:title=" ">
<polygon fill="none" stroke="black" points="134,-84 134,-114 294,-114 294,-84 134,-84"/>
<text text-anchor="start" x="142" y="-102" font-family="Helvetica,sans-Serif" font-size="10.00">/home/runner/work/occ</text>
<text text-anchor="middle" x="214" y="-91" font-family="Helvetica,sans-Serif" font-size="10.00">/occ/include/occ/io/cifparser.h</text>
</a>
</g>
</g>
<!-- Node2&#45;&gt;Node4 -->
<g id="edge3" class="edge">
<title>Node2&#45;&gt;Node4</title>
<path fill="none" stroke="midnightblue" d="M803.88,-250.42C748.49,-244.95 673.01,-231.39 615,-198 593.18,-185.44 599.29,-167.69 577,-156 468.23,-98.96 423.93,-141.49 303,-120 293.33,-118.28 283.13,-116.22 273.21,-114.09"/>
<polygon fill="midnightblue" stroke="midnightblue" points="803.7,-253.91 813.97,-251.35 804.34,-246.94 803.7,-253.91"/>
</g>
<!-- Node5 -->
<g id="node5" class="node">
<title>Node5</title>
<g id="a_node5"><a xlink:href="crystal__json_8h.html" target="_top" xlink:title=" ">
<polygon fill="none" stroke="black" points="808,-156.5 808,-197.5 950,-197.5 950,-156.5 808,-156.5"/>
<text text-anchor="start" x="816" y="-185.5" font-family="Helvetica,sans-Serif" font-size="10.00">/home/runner/work/occ</text>
<text text-anchor="start" x="816" y="-174.5" font-family="Helvetica,sans-Serif" font-size="10.00">/occ/include/occ/io/crystal</text>
<text text-anchor="middle" x="879" y="-163.5" font-family="Helvetica,sans-Serif" font-size="10.00">_json.h</text>
</a>
</g>
</g>
<!-- Node2&#45;&gt;Node5 -->
<g id="edge4" class="edge">
<title>Node2&#45;&gt;Node5</title>
<path fill="none" stroke="midnightblue" d="M879,-224.3C879,-215.3 879,-205.65 879,-197.51"/>
<polygon fill="midnightblue" stroke="midnightblue" points="875.5,-224.43 879,-234.43 882.5,-224.43 875.5,-224.43"/>
</g>
<!-- Node6 -->
<g id="node6" class="node">
<title>Node6</title>
<g id="a_node6"><a xlink:href="crystalgrower_8h.html" target="_top" xlink:title=" ">
<polygon fill="none" stroke="black" points="968,-162 968,-192 1152,-192 1152,-162 968,-162"/>
<text text-anchor="start" x="976" y="-180" font-family="Helvetica,sans-Serif" font-size="10.00">/home/runner/work/occ</text>
<text text-anchor="middle" x="1060" y="-169" font-family="Helvetica,sans-Serif" font-size="10.00">/occ/include/occ/io/crystalgrower.h</text>
</a>
</g>
</g>
<!-- Node2&#45;&gt;Node6 -->
<g id="edge5" class="edge">
<title>Node2&#45;&gt;Node6</title>
<path fill="none" stroke="midnightblue" d="M935.1,-230.45C965.01,-217.89 1000.81,-202.85 1026.4,-192.11"/>
<polygon fill="midnightblue" stroke="midnightblue" points="933.48,-227.33 925.61,-234.43 936.19,-233.78 933.48,-227.33"/>
</g>
<!-- Node7 -->
<g id="node7" class="node">
<title>Node7</title>
<g id="a_node7"><a xlink:href="dftb__gen_8h.html" target="_top" xlink:title=" ">
<polygon fill="none" stroke="black" points="1170,-162 1170,-192 1330,-192 1330,-162 1170,-162"/>
<text text-anchor="start" x="1178" y="-180" font-family="Helvetica,sans-Serif" font-size="10.00">/home/runner/work/occ</text>
<text text-anchor="middle" x="1250" y="-169" font-family="Helvetica,sans-Serif" font-size="10.00">/occ/include/occ/io/dftb_gen.h</text>
</a>
</g>
</g>
<!-- Node2&#45;&gt;Node7 -->
<g id="edge6" class="edge">
<title>Node2&#45;&gt;Node7</title>
<path fill="none" stroke="midnightblue" d="M954.05,-239.63C1010.92,-228.61 1090.98,-212.82 1161,-198 1169.83,-196.13 1179.14,-194.1 1188.28,-192.08"/>
<polygon fill="midnightblue" stroke="midnightblue" points="953.21,-236.22 944.06,-241.56 954.54,-243.1 953.21,-236.22"/>
</g>
<!-- Node2&#45;&gt;Node8 -->
<g id="edge7" class="edge">
<title>Node2&#45;&gt;Node8</title>
<path fill="none" stroke="midnightblue" d="M954.36,-251.43C1147.4,-244.53 1656.12,-224.36 1823,-198 1832.41,-196.51 1842.35,-194.37 1851.83,-192.04"/>
<polygon fill="midnightblue" stroke="midnightblue" points="954.18,-247.93 944.31,-251.78 954.43,-254.93 954.18,-247.93"/>
</g>
<!-- Node9 -->
<g id="node9" class="node">
<title>Node9</title>
<g id="a_node9"><a xlink:href="kmcpp_8h.html" target="_top" xlink:title=" ">
<polygon fill="none" stroke="black" points="1348.5,-162 1348.5,-192 1499.5,-192 1499.5,-162 1348.5,-162"/>
<text text-anchor="start" x="1356.5" y="-180" font-family="Helvetica,sans-Serif" font-size="10.00">/home/runner/work/occ</text>
<text text-anchor="middle" x="1424" y="-169" font-family="Helvetica,sans-Serif" font-size="10.00">/occ/include/occ/io/kmcpp.h</text>
</a>
</g>
</g>
<!-- Node2&#45;&gt;Node9 -->
<g id="edge8" class="edge">
<title>Node2&#45;&gt;Node9</title>
<path fill="none" stroke="midnightblue" d="M954.07,-247.42C1045.45,-238.82 1204.25,-221.98 1339,-198 1348.55,-196.3 1358.64,-194.2 1368.4,-192.01"/>
<polygon fill="midnightblue" stroke="midnightblue" points="953.72,-243.94 944.09,-248.35 954.37,-250.91 953.72,-243.94"/>
</g>
<!-- Node10 -->
<g id="node10" class="node">
<title>Node10</title>
<g id="a_node10"><a xlink:href="load__geometry_8h.html" target="_top" xlink:title=" ">
<polygon fill="none" stroke="black" points="1518,-156.5 1518,-197.5 1648,-197.5 1648,-156.5 1518,-156.5"/>
<text text-anchor="start" x="1526" y="-185.5" font-family="Helvetica,sans-Serif" font-size="10.00">/home/runner/work/occ</text>
<text text-anchor="start" x="1526" y="-174.5" font-family="Helvetica,sans-Serif" font-size="10.00">/occ/include/occ/io/load</text>
<text text-anchor="middle" x="1583" y="-163.5" font-family="Helvetica,sans-Serif" font-size="10.00">_geometry.h</text>
</a>
</g>
</g>
<!-- Node2&#45;&gt;Node10 -->
<g id="edge9" class="edge">
<title>Node2&#45;&gt;Node10</title>
<path fill="none" stroke="midnightblue" d="M954.42,-251.57C1073.2,-246.78 1310.73,-233.32 1509,-198 1511.88,-197.49 1514.82,-196.91 1517.77,-196.3"/>
<polygon fill="midnightblue" stroke="midnightblue" points="954.2,-248.07 944.34,-251.96 954.47,-255.07 954.2,-248.07"/>
</g>
<!-- Node11 -->
<g id="node11" class="node">
<title>Node11</title>
<g id="a_node11"><a xlink:href="occ__input_8h.html" target="_top" xlink:title=" ">
<polygon fill="none" stroke="black" points="624,-156.5 624,-197.5 752,-197.5 752,-156.5 624,-156.5"/>
<text text-anchor="start" x="632" y="-185.5" font-family="Helvetica,sans-Serif" font-size="10.00">/home/runner/work/occ</text>
<text text-anchor="start" x="632" y="-174.5" font-family="Helvetica,sans-Serif" font-size="10.00">/occ/include/occ/io/occ</text>
<text text-anchor="middle" x="688" y="-163.5" font-family="Helvetica,sans-Serif" font-size="10.00">_input.h</text>
</a>
</g>
</g>
<!-- Node2&#45;&gt;Node11 -->
<g id="edge10" class="edge">
<title>Node2&#45;&gt;Node11</title>
<path fill="none" stroke="midnightblue" d="M820.21,-230.61C793.55,-220 762.39,-207.6 737.02,-197.51"/>
<polygon fill="midnightblue" stroke="midnightblue" points="819.23,-233.98 829.81,-234.43 821.82,-227.48 819.23,-233.98"/>
</g>
<!-- Node15 -->
<g id="node15" class="node">
<title>Node15</title>
<g id="a_node15"><a xlink:href="pair__energy_8h.html" target="_top" xlink:title=" ">
<polygon fill="none" stroke="black" points="1082,-78.5 1082,-119.5 1210,-119.5 1210,-78.5 1082,-78.5"/>
<text text-anchor="start" x="1090" y="-107.5" font-family="Helvetica,sans-Serif" font-size="10.00">/home/runner/work/occ</text>
<text text-anchor="start" x="1090" y="-96.5" font-family="Helvetica,sans-Serif" font-size="10.00">/occ/include/occ/main</text>
<text text-anchor="middle" x="1146" y="-85.5" font-family="Helvetica,sans-Serif" font-size="10.00">/pair_energy.h</text>
</a>
</g>
</g>
<!-- Node2&#45;&gt;Node15 -->
<g id="edge24" class="edge">
<title>Node2&#45;&gt;Node15</title>
<path fill="none" stroke="midnightblue" d="M827.63,-228.91C816.16,-220.73 805.49,-210.46 799,-198 790.38,-181.44 786.69,-170.03 799,-156 839.5,-109.83 1012.8,-132.14 1073,-120 1075.83,-119.43 1078.72,-118.81 1081.63,-118.15"/>
<polygon fill="midnightblue" stroke="midnightblue" points="825.8,-231.89 836.07,-234.5 829.67,-226.06 825.8,-231.89"/>
</g>
<!-- Node20 -->
<g id="node20" class="node">
<title>Node20</title>
<g id="a_node20"><a xlink:href="void_8h.html" target="_top" xlink:title=" ">
<polygon fill="none" stroke="black" points="1666.5,-156.5 1666.5,-197.5 1813.5,-197.5 1813.5,-156.5 1666.5,-156.5"/>
<text text-anchor="start" x="1674.5" y="-185.5" font-family="Helvetica,sans-Serif" font-size="10.00">/home/runner/work/occ</text>
<text text-anchor="start" x="1674.5" y="-174.5" font-family="Helvetica,sans-Serif" font-size="10.00">/occ/include/occ/isosurface</text>
<text text-anchor="middle" x="1740" y="-163.5" font-family="Helvetica,sans-Serif" font-size="10.00">/void.h</text>
</a>
</g>
</g>
<!-- Node2&#45;&gt;Node20 -->
<g id="edge21" class="edge">
<title>Node2&#45;&gt;Node20</title>
<path fill="none" stroke="midnightblue" d="M954.36,-252.69C1093.83,-249.35 1401.29,-237.73 1657,-198 1660.08,-197.52 1663.21,-196.99 1666.36,-196.41"/>
<polygon fill="midnightblue" stroke="midnightblue" points="954.13,-249.19 944.21,-252.92 954.29,-256.19 954.13,-249.19"/>
</g>
<!-- Node2&#45;&gt;Node22 -->
<g id="edge23" class="edge">
<title>Node2&#45;&gt;Node22</title>
<path fill="none" stroke="midnightblue" d="M954.43,-252.09C1168.98,-246.36 1779.93,-227.82 1978,-198 1980.94,-197.56 1983.93,-197.05 1986.93,-196.5"/>
<polygon fill="midnightblue" stroke="midnightblue" points="954.12,-248.6 944.21,-252.36 954.3,-255.6 954.12,-248.6"/>
</g>
<!-- Node23 -->
<g id="node23" class="node">
<title>Node23</title>
<g id="a_node23"><a xlink:href="solvation__partition_8h.html" target="_top" xlink:title=" ">
<polygon fill="none" stroke="black" points="148,-156.5 148,-197.5 276,-197.5 276,-156.5 148,-156.5"/>
<text text-anchor="start" x="156" y="-185.5" font-family="Helvetica,sans-Serif" font-size="10.00">/home/runner/work/occ</text>
<text text-anchor="start" x="156" y="-174.5" font-family="Helvetica,sans-Serif" font-size="10.00">/occ/include/occ/main</text>
<text text-anchor="middle" x="212" y="-163.5" font-family="Helvetica,sans-Serif" font-size="10.00">/solvation_partition.h</text>
</a>
</g>
</g>
<!-- Node2&#45;&gt;Node23 -->
<g id="edge25" class="edge">
<title>Node2&#45;&gt;Node23</title>
<path fill="none" stroke="midnightblue" d="M803.89,-248.55C667.15,-238.37 382.67,-215.84 285,-198 282.16,-197.48 279.26,-196.9 276.35,-196.28"/>
<polygon fill="midnightblue" stroke="midnightblue" points="803.64,-252.04 813.88,-249.29 804.16,-245.06 803.64,-252.04"/>
</g>
<!-- Node24 -->
<g id="node24" class="node">
<title>Node24</title>
<g id="a_node24"><a xlink:href="tblite__wrapper_8h.html" target="_top" xlink:title=" ">
<polygon fill="none" stroke="black" points="294,-156.5 294,-197.5 422,-197.5 422,-156.5 294,-156.5"/>
<text text-anchor="start" x="302" y="-185.5" font-family="Helvetica,sans-Serif" font-size="10.00">/home/runner/work/occ</text>
<text text-anchor="start" x="302" y="-174.5" font-family="Helvetica,sans-Serif" font-size="10.00">/occ/include/occ/xtb</text>
<text text-anchor="middle" x="358" y="-163.5" font-family="Helvetica,sans-Serif" font-size="10.00">/tblite_wrapper.h</text>
</a>
</g>
</g>
<!-- Node2&#45;&gt;Node24 -->
<g id="edge26" class="edge">
<title>Node2&#45;&gt;Node24</title>
<path fill="none" stroke="midnightblue" d="M803.94,-247.92C714.53,-239.93 560.92,-223.78 431,-198 428.16,-197.44 425.28,-196.82 422.37,-196.17"/>
<polygon fill="midnightblue" stroke="midnightblue" points="803.72,-251.42 813.99,-248.81 804.34,-244.45 803.72,-251.42"/>
</g>
<!-- Node25 -->
<g id="node25" class="node">
<title>Node25</title>
<g id="a_node25"><a xlink:href="xtb__wrapper_8h.html" target="_top" xlink:title=" ">
<polygon fill="none" stroke="black" points="440,-156.5 440,-197.5 568,-197.5 568,-156.5 440,-156.5"/>
<text text-anchor="start" x="448" y="-185.5" font-family="Helvetica,sans-Serif" font-size="10.00">/home/runner/work/occ</text>
<text text-anchor="start" x="448" y="-174.5" font-family="Helvetica,sans-Serif" font-size="10.00">/occ/include/occ/xtb</text>
<text text-anchor="middle" x="504" y="-163.5" font-family="Helvetica,sans-Serif" font-size="10.00">/xtb_wrapper.h</text>
</a>
</g>
</g>
<!-- Node2&#45;&gt;Node25 -->
<g id="edge27" class="edge">
<title>Node2&#45;&gt;Node25</title>
<path fill="none" stroke="midnightblue" d="M803.69,-241.19C743.49,-230.61 657.05,-214.68 582,-198 577.5,-197 572.86,-195.92 568.19,-194.81"/>
<polygon fill="midnightblue" stroke="midnightblue" points="803.41,-244.69 813.86,-242.97 804.62,-237.8 803.41,-244.69"/>
</g>
<!-- Node11&#45;&gt;Node4 -->
<g id="edge11" class="edge">
<title>Node11&#45;&gt;Node4</title>
<path fill="none" stroke="midnightblue" d="M613.85,-156.74C612.56,-156.48 611.28,-156.24 610,-156 474.94,-130.88 438.42,-143.09 303,-120 293.01,-118.3 282.45,-116.19 272.23,-114"/>
<polygon fill="midnightblue" stroke="midnightblue" points="613.37,-160.21 623.88,-158.83 614.81,-153.36 613.37,-160.21"/>
</g>
<!-- Node12 -->
<g id="node12" class="node">
<title>Node12</title>
<g id="a_node12"><a xlink:href="qcschema_8h.html" target="_top" xlink:title=" ">
<polygon fill="none" stroke="black" points="604.5,-84 604.5,-114 771.5,-114 771.5,-84 604.5,-84"/>
<text text-anchor="start" x="612.5" y="-102" font-family="Helvetica,sans-Serif" font-size="10.00">/home/runner/work/occ</text>
<text text-anchor="middle" x="688" y="-91" font-family="Helvetica,sans-Serif" font-size="10.00">/occ/include/occ/io/qcschema.h</text>
</a>
</g>
</g>
<!-- Node11&#45;&gt;Node12 -->
<g id="edge12" class="edge">
<title>Node11&#45;&gt;Node12</title>
<path fill="none" stroke="midnightblue" d="M688,-146.28C688,-135.25 688,-123.25 688,-114.23"/>
<polygon fill="midnightblue" stroke="midnightblue" points="684.5,-146.43 688,-156.43 691.5,-146.43 684.5,-146.43"/>
</g>
<!-- Node13 -->
<g id="node13" class="node">
<title>Node13</title>
<g id="a_node13"><a xlink:href="occ__pair_8h.html" target="_top" xlink:title=" ">
<polygon fill="none" stroke="black" points="790,-78.5 790,-119.5 918,-119.5 918,-78.5 790,-78.5"/>
<text text-anchor="start" x="798" y="-107.5" font-family="Helvetica,sans-Serif" font-size="10.00">/home/runner/work/occ</text>
<text text-anchor="start" x="798" y="-96.5" font-family="Helvetica,sans-Serif" font-size="10.00">/occ/include/occ/main</text>
<text text-anchor="middle" x="854" y="-85.5" font-family="Helvetica,sans-Serif" font-size="10.00">/occ_pair.h</text>
</a>
</g>
</g>
<!-- Node11&#45;&gt;Node13 -->
<g id="edge13" class="edge">
<title>Node11&#45;&gt;Node13</title>
<path fill="none" stroke="midnightblue" d="M740.01,-152.19C762.97,-141.67 789.63,-129.47 811.4,-119.51"/>
<polygon fill="midnightblue" stroke="midnightblue" points="738.38,-149.08 730.75,-156.43 741.3,-155.45 738.38,-149.08"/>
</g>
<!-- Node14 -->
<g id="node14" class="node">
<title>Node14</title>
<g id="a_node14"><a xlink:href="occ__scf_8h.html" target="_top" xlink:title=" ">
<polygon fill="none" stroke="black" points="936,-78.5 936,-119.5 1064,-119.5 1064,-78.5 936,-78.5"/>
<text text-anchor="start" x="944" y="-107.5" font-family="Helvetica,sans-Serif" font-size="10.00">/home/runner/work/occ</text>
<text text-anchor="start" x="944" y="-96.5" font-family="Helvetica,sans-Serif" font-size="10.00">/occ/include/occ/main</text>
<text text-anchor="middle" x="1000" y="-85.5" font-family="Helvetica,sans-Serif" font-size="10.00">/occ_scf.h</text>
</a>
</g>
</g>
<!-- Node11&#45;&gt;Node14 -->
<g id="edge14" class="edge">
<title>Node11&#45;&gt;Node14</title>
<path fill="none" stroke="midnightblue" d="M762.18,-156.92C763.47,-156.61 764.74,-156.3 766,-156 837.3,-138.89 855.84,-137.69 927,-120 929.93,-119.27 932.93,-118.51 935.95,-117.73"/>
<polygon fill="midnightblue" stroke="midnightblue" points="761.11,-153.58 752.23,-159.36 762.78,-160.38 761.11,-153.58"/>
</g>
<!-- Node11&#45;&gt;Node15 -->
<g id="edge15" class="edge">
<title>Node11&#45;&gt;Node15</title>
<path fill="none" stroke="midnightblue" d="M762.15,-156.74C763.44,-156.48 764.72,-156.24 766,-156 901.06,-130.88 938.15,-146.22 1073,-120 1075.84,-119.45 1078.73,-118.84 1081.64,-118.2"/>
<polygon fill="midnightblue" stroke="midnightblue" points="761.19,-153.36 752.12,-158.83 762.63,-160.21 761.19,-153.36"/>
</g>
<!-- Node18 -->
<g id="node18" class="node">
<title>Node18</title>
<g id="a_node18"><a xlink:href="properties_8h.html" target="_top" xlink:title=" ">
<polygon fill="none" stroke="black" points="312,-78.5 312,-119.5 440,-119.5 440,-78.5 312,-78.5"/>
<text text-anchor="start" x="320" y="-107.5" font-family="Helvetica,sans-Serif" font-size="10.00">/home/runner/work/occ</text>
<text text-anchor="start" x="320" y="-96.5" font-family="Helvetica,sans-Serif" font-size="10.00">/occ/include/occ/main</text>
<text text-anchor="middle" x="376" y="-85.5" font-family="Helvetica,sans-Serif" font-size="10.00">/properties.h</text>
</a>
</g>
</g>
<!-- Node11&#45;&gt;Node18 -->
<g id="edge19" class="edge">
<title>Node11&#45;&gt;Node18</title>
<path fill="none" stroke="midnightblue" d="M613.82,-156.92C612.53,-156.61 611.26,-156.3 610,-156 538.7,-138.89 520.16,-137.69 449,-120 446.07,-119.27 443.07,-118.51 440.05,-117.73"/>
<polygon fill="midnightblue" stroke="midnightblue" points="613.22,-160.38 623.77,-159.36 614.89,-153.58 613.22,-160.38"/>
</g>
<!-- Node19 -->
<g id="node19" class="node">
<title>Node19</title>
<g id="a_node19"><a xlink:href="single__point_8h.html" target="_top" xlink:title=" ">
<polygon fill="none" stroke="black" points="458,-78.5 458,-119.5 586,-119.5 586,-78.5 458,-78.5"/>
<text text-anchor="start" x="466" y="-107.5" font-family="Helvetica,sans-Serif" font-size="10.00">/home/runner/work/occ</text>
<text text-anchor="start" x="466" y="-96.5" font-family="Helvetica,sans-Serif" font-size="10.00">/occ/include/occ/main</text>
<text text-anchor="middle" x="522" y="-85.5" font-family="Helvetica,sans-Serif" font-size="10.00">/single_point.h</text>
</a>
</g>
</g>
<!-- Node11&#45;&gt;Node19 -->
<g id="edge20" class="edge">
<title>Node11&#45;&gt;Node19</title>
<path fill="none" stroke="midnightblue" d="M635.99,-152.19C613.03,-141.67 586.37,-129.47 564.6,-119.51"/>
<polygon fill="midnightblue" stroke="midnightblue" points="634.7,-155.45 645.25,-156.43 637.62,-149.08 634.7,-155.45"/>
</g>
<!-- Node15&#45;&gt;Node15 -->
<g id="edge18" class="edge">
<title>Node15&#45;&gt;Node15</title>
<path fill="none" stroke="midnightblue" d="M1220.15,-109.45C1225.04,-107.02 1228,-103.54 1228,-99 1228,-91.92 1220.79,-87.41 1210.29,-85.47"/>
<polygon fill="midnightblue" stroke="midnightblue" points="1218.79,-106.21 1210.29,-112.53 1220.88,-112.89 1218.79,-106.21"/>
</g>
<!-- Node16 -->
<g id="node16" class="node">
<title>Node16</title>
<g id="a_node16"><a xlink:href="occ__cg_8h.html" target="_top" xlink:title=" ">
<polygon fill="none" stroke="black" points="1009,-0.5 1009,-41.5 1137,-41.5 1137,-0.5 1009,-0.5"/>
<text text-anchor="start" x="1017" y="-29.5" font-family="Helvetica,sans-Serif" font-size="10.00">/home/runner/work/occ</text>
<text text-anchor="start" x="1017" y="-18.5" font-family="Helvetica,sans-Serif" font-size="10.00">/occ/include/occ/main</text>
<text text-anchor="middle" x="1073" y="-7.5" font-family="Helvetica,sans-Serif" font-size="10.00">/occ_cg.h</text>
</a>
</g>
</g>
<!-- Node15&#45;&gt;Node16 -->
<g id="edge16" class="edge">
<title>Node15&#45;&gt;Node16</title>
<path fill="none" stroke="midnightblue" d="M1120.26,-71.2C1110.86,-61.42 1100.41,-50.54 1091.74,-41.51"/>
<polygon fill="midnightblue" stroke="midnightblue" points="1117.75,-73.64 1127.2,-78.43 1122.8,-68.79 1117.75,-73.64"/>
</g>
<!-- Node17 -->
<g id="node17" class="node">
<title>Node17</title>
<g id="a_node17"><a xlink:href="occ__elat_8h.html" target="_top" xlink:title=" ">
<polygon fill="none" stroke="black" points="1155,-0.5 1155,-41.5 1283,-41.5 1283,-0.5 1155,-0.5"/>
<text text-anchor="start" x="1163" y="-29.5" font-family="Helvetica,sans-Serif" font-size="10.00">/home/runner/work/occ</text>
<text text-anchor="start" x="1163" y="-18.5" font-family="Helvetica,sans-Serif" font-size="10.00">/occ/include/occ/main</text>
<text text-anchor="middle" x="1219" y="-7.5" font-family="Helvetica,sans-Serif" font-size="10.00">/occ_elat.h</text>
</a>
</g>
</g>
<!-- Node15&#45;&gt;Node17 -->
<g id="edge17" class="edge">
<title>Node15&#45;&gt;Node17</title>
<path fill="none" stroke="midnightblue" d="M1171.74,-71.2C1181.14,-61.42 1191.59,-50.54 1200.26,-41.51"/>
<polygon fill="midnightblue" stroke="midnightblue" points="1169.2,-68.79 1164.8,-78.43 1174.25,-73.64 1169.2,-68.79"/>
</g>
<!-- Node21 -->
<g id="node21" class="node">
<title>Node21</title>
<g id="a_node21"><a xlink:href="isosurface_8h.html" target="_top" xlink:title=" ">
<polygon fill="none" stroke="black" points="1666.5,-78.5 1666.5,-119.5 1813.5,-119.5 1813.5,-78.5 1666.5,-78.5"/>
<text text-anchor="start" x="1674.5" y="-107.5" font-family="Helvetica,sans-Serif" font-size="10.00">/home/runner/work/occ</text>
<text text-anchor="start" x="1674.5" y="-96.5" font-family="Helvetica,sans-Serif" font-size="10.00">/occ/include/occ/isosurface</text>
<text text-anchor="middle" x="1740" y="-85.5" font-family="Helvetica,sans-Serif" font-size="10.00">/isosurface.h</text>
</a>
</g>
</g>
<!-- Node20&#45;&gt;Node21 -->
<g id="edge22" class="edge">
<title>Node20&#45;&gt;Node21</title>
<path fill="none" stroke="midnightblue" d="M1740,-146.3C1740,-137.3 1740,-127.65 1740,-119.51"/>
<polygon fill="midnightblue" stroke="midnightblue" points="1736.5,-146.43 1740,-156.43 1743.5,-146.43 1736.5,-146.43"/>
</g>
<!-- Node26&#45;&gt;Node2 -->
<g id="edge29" class="edge">
<title>Node26&#45;&gt;Node2</title>
<path fill="none" stroke="midnightblue" d="M940.26,-306.06C928.02,-296.06 914.25,-284.8 902.87,-275.51"/>
<polygon fill="midnightblue" stroke="midnightblue" points="938.09,-308.81 948.05,-312.43 942.52,-303.39 938.09,-308.81"/>
</g>
<!-- Node27&#45;&gt;Node2 -->
<g id="edge32" class="edge">
<title>Node27&#45;&gt;Node2</title>
<path fill="none" stroke="midnightblue" d="M817.74,-306.06C829.98,-296.06 843.75,-284.8 855.13,-275.51"/>
<polygon fill="midnightblue" stroke="midnightblue" points="815.48,-303.39 809.95,-312.43 819.91,-308.81 815.48,-303.39"/>
</g>
<!-- Node27&#45;&gt;Node3 -->
<g id="edge33" class="edge">
<title>Node27&#45;&gt;Node3</title>
<path fill="none" stroke="midnightblue" d="M710.93,-310.81C632.22,-289.19 504.69,-255.78 393,-234 281.09,-212.18 250.69,-220.92 139,-198 136.13,-197.41 133.21,-196.78 130.27,-196.11"/>
<polygon fill="midnightblue" stroke="midnightblue" points="710.18,-314.24 720.75,-313.52 712.04,-307.49 710.18,-314.24"/>
</g>
</g>
</svg>
