<?xml version="1.0" encoding="UTF-8" standalone="no"?>
<!DOCTYPE svg PUBLIC "-//W3C//DTD SVG 1.1//EN"
 "http://www.w3.org/Graphics/SVG/1.1/DTD/svg11.dtd">
<!-- Generated by graphviz version 2.43.0 (0)
 -->
<!-- Title: /home/runner/work/occ/occ/include/occ/geometry/icosphere_mesh.h Pages: 1 -->
<svg width="334pt" height="162pt"
 viewBox="0.00 0.00 333.78 162.00" xmlns="http://www.w3.org/2000/svg" xmlns:xlink="http://www.w3.org/1999/xlink">
<g id="graph0" class="graph" transform="scale(1 1) rotate(0) translate(4 158)">
<title>/home/runner/work/occ/occ/include/occ/geometry/icosphere_mesh.h</title>
<!-- Node1 -->
<g id="node1" class="node">
<title>Node1</title>
<g id="a_node1"><a xlink:title=" ">
<polygon fill="#bfbfbf" stroke="black" points="12.28,-112.5 12.28,-153.5 156.28,-153.5 156.28,-112.5 12.28,-112.5"/>
<text text-anchor="start" x="20.28" y="-141.5" font-family="Helvetica,sans-Serif" font-size="10.00">/home/runner/work/occ</text>
<text text-anchor="start" x="20.28" y="-130.5" font-family="Helvetica,sans-Serif" font-size="10.00">/occ/include/occ/geometry</text>
<text text-anchor="middle" x="84.28" y="-119.5" font-family="Helvetica,sans-Serif" font-size="10.00">/icosphere_mesh.h</text>
</a>
</g>
</g>
<!-- Node2 -->
<g id="node2" class="node">
<title>Node2</title>
<g id="a_node2"><a xlink:title=" ">
<polygon fill="none" stroke="#bfbfbf" points="23.78,-0.5 23.78,-19.5 100.78,-19.5 100.78,-0.5 23.78,-0.5"/>
<text text-anchor="middle" x="62.28" y="-7.5" font-family="Helvetica,sans-Serif" font-size="10.00">Eigen/Dense</text>
</a>
</g>
</g>
<!-- Node1&#45;&gt;Node2 -->
<g id="edge1" class="edge">
<title>Node1&#45;&gt;Node2</title>
<path fill="none" stroke="midnightblue" d="M40.4,-112.35C25.88,-103.47 11.38,-91.44 3.28,-76 -7.45,-55.54 15.21,-36.52 35.48,-24.41"/>
<polygon fill="midnightblue" stroke="midnightblue" points="37.2,-27.46 44.2,-19.51 33.77,-21.36 37.2,-27.46"/>
</g>
<!-- Node3 -->
<g id="node3" class="node">
<title>Node3</title>
<g id="a_node3"><a xlink:title=" ">
<polygon fill="none" stroke="#bfbfbf" points="12.78,-56.5 12.78,-75.5 155.78,-75.5 155.78,-56.5 12.78,-56.5"/>
<text text-anchor="middle" x="84.28" y="-63.5" font-family="Helvetica,sans-Serif" font-size="10.00">ankerl/unordered_dense.h</text>
</a>
</g>
</g>
<!-- Node1&#45;&gt;Node3 -->
<g id="edge2" class="edge">
<title>Node1&#45;&gt;Node3</title>
<path fill="none" stroke="midnightblue" d="M84.28,-112.5C84.28,-104.07 84.28,-94.24 84.28,-85.87"/>
<polygon fill="midnightblue" stroke="midnightblue" points="87.78,-85.65 84.28,-75.65 80.78,-85.65 87.78,-85.65"/>
</g>
<!-- Node4 -->
<g id="node4" class="node">
<title>Node4</title>
<g id="a_node4"><a xlink:href="linear__algebra_8h.html" target="_top" xlink:title=" ">
<polygon fill="none" stroke="black" points="173.78,-56.5 173.78,-75.5 312.78,-75.5 312.78,-56.5 173.78,-56.5"/>
<text text-anchor="middle" x="243.28" y="-63.5" font-family="Helvetica,sans-Serif" font-size="10.00">occ/core/linear_algebra.h</text>
</a>
</g>
</g>
<!-- Node1&#45;&gt;Node4 -->
<g id="edge3" class="edge">
<title>Node1&#45;&gt;Node4</title>
<path fill="none" stroke="midnightblue" d="M131.98,-112.5C158.12,-101.81 189.74,-88.89 212.59,-79.54"/>
<polygon fill="midnightblue" stroke="midnightblue" points="214.18,-82.68 222.11,-75.65 211.53,-76.2 214.18,-82.68"/>
</g>
<!-- Node4&#45;&gt;Node2 -->
<g id="edge4" class="edge">
<title>Node4&#45;&gt;Node2</title>
<path fill="none" stroke="midnightblue" d="M214.6,-56.44C183.75,-47.24 134.55,-32.56 100.45,-22.39"/>
<polygon fill="midnightblue" stroke="midnightblue" points="101.41,-19.02 90.82,-19.52 99.4,-25.73 101.41,-19.02"/>
</g>
<!-- Node5 -->
<g id="node5" class="node">
<title>Node5</title>
<g id="a_node5"><a xlink:title=" ">
<polygon fill="none" stroke="#bfbfbf" points="147.78,-0.5 147.78,-19.5 240.78,-19.5 240.78,-0.5 147.78,-0.5"/>
<text text-anchor="middle" x="194.28" y="-7.5" font-family="Helvetica,sans-Serif" font-size="10.00">Eigen/StdVector</text>
</a>
</g>
</g>
<!-- Node4&#45;&gt;Node5 -->
<g id="edge5" class="edge">
<title>Node4&#45;&gt;Node5</title>
<path fill="none" stroke="midnightblue" d="M235.19,-56.08C228.12,-48.3 217.69,-36.8 209.13,-27.37"/>
<polygon fill="midnightblue" stroke="midnightblue" points="211.53,-24.8 202.22,-19.75 206.35,-29.51 211.53,-24.8"/>
</g>
<!-- Node6 -->
<g id="node6" class="node">
<title>Node6</title>
<g id="a_node6"><a xlink:title=" ">
<polygon fill="none" stroke="#bfbfbf" points="258.78,-0.5 258.78,-19.5 325.78,-19.5 325.78,-0.5 258.78,-0.5"/>
<text text-anchor="middle" x="292.28" y="-7.5" font-family="Helvetica,sans-Serif" font-size="10.00">fmt/core.h</text>
</a>
</g>
</g>
<!-- Node4&#45;&gt;Node6 -->
<g id="edge6" class="edge">
<title>Node4&#45;&gt;Node6</title>
<path fill="none" stroke="midnightblue" d="M251.37,-56.08C258.43,-48.3 268.86,-36.8 277.43,-27.37"/>
<polygon fill="midnightblue" stroke="midnightblue" points="280.21,-29.51 284.34,-19.75 275.02,-24.8 280.21,-29.51"/>
</g>
</g>
</svg>
