<?xml version="1.0" encoding="UTF-8" standalone="no"?>
<!DOCTYPE svg PUBLIC "-//W3C//DTD SVG 1.1//EN"
 "http://www.w3.org/Graphics/SVG/1.1/DTD/svg11.dtd">
<!-- Generated by graphviz version 2.43.0 (0)
 -->
<!-- Title: Graphical Class Hierarchy Pages: 1 -->
<svg width="350pt" height="134pt"
 viewBox="0.00 0.00 350.00 134.00" xmlns="http://www.w3.org/2000/svg" xmlns:xlink="http://www.w3.org/1999/xlink">
<g id="graph0" class="graph" transform="scale(1 1) rotate(0) translate(4 130)">
<title>Graphical Class Hierarchy</title>
<!-- Node0 -->
<g id="Node000000" class="node">
<title>Node0</title>
<g id="a_Node000000"><a xlink:href="classocc_1_1driver_1_1CrystalGrowthCalculator.html" target="_top" xlink:title=" ">
<polygon fill="white" stroke="#666666" points="143,-78 0,-78 0,-48 143,-48 143,-78"/>
<text text-anchor="start" x="8" y="-66" font-family="Helvetica,sans-Serif" font-size="10.00">occ::driver::CrystalGrowth</text>
<text text-anchor="middle" x="71.5" y="-55" font-family="Helvetica,sans-Serif" font-size="10.00">Calculator</text>
</a>
</g>
</g>
<!-- Node1 -->
<g id="Node000001" class="node">
<title>Node1</title>
<g id="a_Node000001"><a xlink:href="classocc_1_1driver_1_1CEModelCrystalGrowthCalculator.html" target="_top" xlink:title=" ">
<polygon fill="white" stroke="#666666" points="336,-126 185,-126 185,-96 336,-96 336,-126"/>
<text text-anchor="start" x="193" y="-114" font-family="Helvetica,sans-Serif" font-size="10.00">occ::driver::CEModelCrystal</text>
<text text-anchor="middle" x="260.5" y="-103" font-family="Helvetica,sans-Serif" font-size="10.00">GrowthCalculator</text>
</a>
</g>
</g>
<!-- Node0&#45;&gt;Node1 -->
<g id="edge8_Node000000_Node000001" class="edge">
<title>Node0&#45;&gt;Node1</title>
<g id="a_edge8_Node000000_Node000001"><a xlink:title=" ">
<path fill="none" stroke="#63b8ff" d="M140.99,-80.58C160.7,-85.64 182.01,-91.11 201.05,-96"/>
<polygon fill="#63b8ff" stroke="#63b8ff" points="141.71,-77.15 131.15,-78.06 139.97,-83.93 141.71,-77.15"/>
</a>
</g>
</g>
<!-- Node2 -->
<g id="Node000002" class="node">
<title>Node2</title>
<g id="a_Node000002"><a xlink:href="classocc_1_1driver_1_1DummyCrystalGrowthCalculator.html" target="_top" xlink:title=" ">
<polygon fill="white" stroke="#666666" points="334,-78 187,-78 187,-48 334,-48 334,-78"/>
<text text-anchor="start" x="195" y="-66" font-family="Helvetica,sans-Serif" font-size="10.00">occ::driver::DummyCrystal</text>
<text text-anchor="middle" x="260.5" y="-55" font-family="Helvetica,sans-Serif" font-size="10.00">GrowthCalculator</text>
</a>
</g>
</g>
<!-- Node0&#45;&gt;Node2 -->
<g id="edge9_Node000000_Node000002" class="edge">
<title>Node0&#45;&gt;Node2</title>
<g id="a_edge9_Node000000_Node000002"><a xlink:title=" ">
<path fill="none" stroke="#63b8ff" d="M153.34,-63C164.48,-63 175.86,-63 186.84,-63"/>
<polygon fill="#63b8ff" stroke="#63b8ff" points="153.2,-59.5 143.2,-63 153.2,-66.5 153.2,-59.5"/>
</a>
</g>
</g>
<!-- Node3 -->
<g id="Node000003" class="node">
<title>Node3</title>
<g id="a_Node000003"><a xlink:href="classocc_1_1driver_1_1XTBCrystalGrowthCalculator.html" target="_top" xlink:title=" ">
<polygon fill="white" stroke="#666666" points="342,-30 179,-30 179,0 342,0 342,-30"/>
<text text-anchor="start" x="187" y="-18" font-family="Helvetica,sans-Serif" font-size="10.00">occ::driver::XTBCrystalGrowth</text>
<text text-anchor="middle" x="260.5" y="-7" font-family="Helvetica,sans-Serif" font-size="10.00">Calculator</text>
</a>
</g>
</g>
<!-- Node0&#45;&gt;Node3 -->
<g id="edge10_Node000000_Node000003" class="edge">
<title>Node0&#45;&gt;Node3</title>
<g id="a_edge10_Node000000_Node000003"><a xlink:title=" ">
<path fill="none" stroke="#63b8ff" d="M140.99,-45.42C160.7,-40.36 182.01,-34.89 201.05,-30"/>
<polygon fill="#63b8ff" stroke="#63b8ff" points="139.97,-42.07 131.15,-47.94 141.71,-48.85 139.97,-42.07"/>
</a>
</g>
</g>
</g>
</svg>
