<?xml version="1.0" encoding="UTF-8" standalone="no"?>
<!DOCTYPE svg PUBLIC "-//W3C//DTD SVG 1.1//EN"
 "http://www.w3.org/Graphics/SVG/1.1/DTD/svg11.dtd">
<!-- Generated by graphviz version 2.43.0 (0)
 -->
<!-- Title: Graphical Class Hierarchy Pages: 1 -->
<svg width="293pt" height="78pt"
 viewBox="0.00 0.00 293.00 77.50" xmlns="http://www.w3.org/2000/svg" xmlns:xlink="http://www.w3.org/1999/xlink">
<g id="graph0" class="graph" transform="scale(1 1) rotate(0) translate(4 73.5)">
<title>Graphical Class Hierarchy</title>
<!-- Node236 -->
<g id="node1" class="node">
<title>Node236</title>
<g id="a_node1"><a xlink:title=" ">
<polygon fill="none" stroke="#bfbfbf" points="0,-28 0,-47 81,-47 81,-28 0,-28"/>
<text text-anchor="middle" x="40.5" y="-35" font-family="Helvetica,sans-Serif" font-size="10.00">CLI::Validator</text>
</a>
</g>
</g>
<!-- Node0 -->
<g id="node2" class="node">
<title>Node0</title>
<g id="a_node2"><a xlink:href="structocc_1_1main_1_1MultiplicityValidator.html" target="_top" xlink:title=" ">
<polygon fill="none" stroke="black" points="117,-50 117,-69 285,-69 285,-50 117,-50"/>
<text text-anchor="middle" x="201" y="-57" font-family="Helvetica,sans-Serif" font-size="10.00">occ::main::MultiplicityValidator</text>
</a>
</g>
</g>
<!-- Node236&#45;&gt;Node0 -->
<g id="edge1" class="edge">
<title>Node236&#45;&gt;Node0</title>
<path fill="none" stroke="midnightblue" d="M91.04,-44.38C103.81,-46.15 117.78,-48.09 131.33,-49.97"/>
<polygon fill="midnightblue" stroke="midnightblue" points="91.47,-40.9 81.09,-42.99 90.51,-47.84 91.47,-40.9"/>
</g>
<!-- Node238 -->
<g id="node3" class="node">
<title>Node238</title>
<g id="a_node3"><a xlink:href="structocc_1_1main_1_1SpinorbitalKindValidator.html" target="_top" xlink:title=" ">
<polygon fill="none" stroke="black" points="129,-0.5 129,-30.5 273,-30.5 273,-0.5 129,-0.5"/>
<text text-anchor="start" x="137" y="-18.5" font-family="Helvetica,sans-Serif" font-size="10.00">occ::main::SpinorbitalKind</text>
<text text-anchor="middle" x="201" y="-7.5" font-family="Helvetica,sans-Serif" font-size="10.00">Validator</text>
</a>
</g>
</g>
<!-- Node236&#45;&gt;Node238 -->
<g id="edge2" class="edge">
<title>Node236&#45;&gt;Node238</title>
<path fill="none" stroke="midnightblue" d="M91.27,-30.59C103.2,-28.94 116.16,-27.14 128.85,-25.38"/>
<polygon fill="midnightblue" stroke="midnightblue" points="90.51,-27.16 81.09,-32.01 91.47,-34.1 90.51,-27.16"/>
</g>
</g>
</svg>
