<?xml version="1.0" encoding="UTF-8" standalone="no"?>
<!DOCTYPE svg PUBLIC "-//W3C//DTD SVG 1.1//EN"
 "http://www.w3.org/Graphics/SVG/1.1/DTD/svg11.dtd">
<!-- Generated by graphviz version 2.43.0 (0)
 -->
<!-- Title: Graphical Class Hierarchy Pages: 1 -->
<svg width="326pt" height="134pt"
 viewBox="0.00 0.00 326.00 134.00" xmlns="http://www.w3.org/2000/svg" xmlns:xlink="http://www.w3.org/1999/xlink">
<g id="graph0" class="graph" transform="scale(1 1) rotate(0) translate(4 130)">
<title>Graphical Class Hierarchy</title>
<!-- Node0 -->
<g id="Node000000" class="node">
<title>Node0</title>
<g id="a_Node000000"><a xlink:href="classocc_1_1interaction_1_1EnergyModelBase.html" target="_top" xlink:title=" ">
<polygon fill="white" stroke="#666666" points="131,-78 0,-78 0,-48 131,-48 131,-78"/>
<text text-anchor="start" x="8" y="-66" font-family="Helvetica,sans-Serif" font-size="10.00">occ::interaction::Energy</text>
<text text-anchor="middle" x="65.5" y="-55" font-family="Helvetica,sans-Serif" font-size="10.00">ModelBase</text>
</a>
</g>
</g>
<!-- Node1 -->
<g id="Node000001" class="node">
<title>Node1</title>
<g id="a_Node000001"><a xlink:href="classocc_1_1interaction_1_1CEEnergyModel.html" target="_top" xlink:title=" ">
<polygon fill="white" stroke="#666666" points="314.5,-126 170.5,-126 170.5,-96 314.5,-96 314.5,-126"/>
<text text-anchor="start" x="178.5" y="-114" font-family="Helvetica,sans-Serif" font-size="10.00">occ::interaction::CEEnergy</text>
<text text-anchor="middle" x="242.5" y="-103" font-family="Helvetica,sans-Serif" font-size="10.00">Model</text>
</a>
</g>
</g>
<!-- Node0&#45;&gt;Node1 -->
<g id="edge14_Node000000_Node000001" class="edge">
<title>Node0&#45;&gt;Node1</title>
<g id="a_edge14_Node000000_Node000001"><a xlink:title=" ">
<path fill="none" stroke="#63b8ff" d="M131.1,-80.72C149.4,-85.74 169.15,-91.15 186.8,-96"/>
<polygon fill="#63b8ff" stroke="#63b8ff" points="131.96,-77.33 121.39,-78.06 130.11,-84.08 131.96,-77.33"/>
</a>
</g>
</g>
<!-- Node2 -->
<g id="Node000002" class="node">
<title>Node2</title>
<g id="a_Node000002"><a xlink:href="classocc_1_1interaction_1_1ExternalEnergyModel.html" target="_top" xlink:title=" ">
<polygon fill="white" stroke="#666666" points="311.5,-78 173.5,-78 173.5,-48 311.5,-48 311.5,-78"/>
<text text-anchor="start" x="181.5" y="-66" font-family="Helvetica,sans-Serif" font-size="10.00">occ::interaction::External</text>
<text text-anchor="middle" x="242.5" y="-55" font-family="Helvetica,sans-Serif" font-size="10.00">EnergyModel</text>
</a>
</g>
</g>
<!-- Node0&#45;&gt;Node2 -->
<g id="edge15_Node000000_Node000002" class="edge">
<title>Node0&#45;&gt;Node2</title>
<g id="a_edge15_Node000000_Node000002"><a xlink:title=" ">
<path fill="none" stroke="#63b8ff" d="M141.26,-63C151.9,-63 162.79,-63 173.29,-63"/>
<polygon fill="#63b8ff" stroke="#63b8ff" points="141.17,-59.5 131.17,-63 141.17,-66.5 141.17,-59.5"/>
</a>
</g>
</g>
<!-- Node3 -->
<g id="Node000003" class="node">
<title>Node3</title>
<g id="a_Node000003"><a xlink:href="classocc_1_1interaction_1_1XTBEnergyModel.html" target="_top" xlink:title=" ">
<polygon fill="white" stroke="#666666" points="318,-30 167,-30 167,0 318,0 318,-30"/>
<text text-anchor="start" x="175" y="-18" font-family="Helvetica,sans-Serif" font-size="10.00">occ::interaction::XTBEnergy</text>
<text text-anchor="middle" x="242.5" y="-7" font-family="Helvetica,sans-Serif" font-size="10.00">Model</text>
</a>
</g>
</g>
<!-- Node0&#45;&gt;Node3 -->
<g id="edge16_Node000000_Node000003" class="edge">
<title>Node0&#45;&gt;Node3</title>
<g id="a_edge16_Node000000_Node000003"><a xlink:title=" ">
<path fill="none" stroke="#63b8ff" d="M131.1,-45.28C149.4,-40.26 169.15,-34.85 186.8,-30"/>
<polygon fill="#63b8ff" stroke="#63b8ff" points="130.11,-41.92 121.39,-47.94 131.96,-48.67 130.11,-41.92"/>
</a>
</g>
</g>
</g>
</svg>
