<?xml version="1.0" encoding="UTF-8" standalone="no"?>
<!DOCTYPE svg PUBLIC "-//W3C//DTD SVG 1.1//EN"
 "http://www.w3.org/Graphics/SVG/1.1/DTD/svg11.dtd">
<!-- Generated by graphviz version 2.43.0 (0)
 -->
<!-- Title: /home/runner/work/occ/occ/include/occ/core/interpolator.h Pages: 1 -->
<svg width="815pt" height="284pt"
 viewBox="0.00 0.00 815.00 284.00" xmlns="http://www.w3.org/2000/svg" xmlns:xlink="http://www.w3.org/1999/xlink">
<g id="graph0" class="graph" transform="scale(1 1) rotate(0) translate(4 280)">
<title>/home/runner/work/occ/occ/include/occ/core/interpolator.h</title>
<!-- Node1 -->
<g id="node1" class="node">
<title>Node1</title>
<g id="a_node1"><a xlink:title=" ">
<polygon fill="#bfbfbf" stroke="black" points="417.5,-234.5 417.5,-275.5 545.5,-275.5 545.5,-234.5 417.5,-234.5"/>
<text text-anchor="start" x="425.5" y="-263.5" font-family="Helvetica,sans-Serif" font-size="10.00">/home/runner/work/occ</text>
<text text-anchor="start" x="425.5" y="-252.5" font-family="Helvetica,sans-Serif" font-size="10.00">/occ/include/occ/core</text>
<text text-anchor="middle" x="481.5" y="-241.5" font-family="Helvetica,sans-Serif" font-size="10.00">/interpolator.h</text>
</a>
</g>
</g>
<!-- Node2 -->
<g id="node2" class="node">
<title>Node2</title>
<g id="a_node2"><a xlink:href="common_8h.html" target="_top" xlink:title=" ">
<polygon fill="none" stroke="black" points="330,-156.5 330,-197.5 477,-197.5 477,-156.5 330,-156.5"/>
<text text-anchor="start" x="338" y="-185.5" font-family="Helvetica,sans-Serif" font-size="10.00">/home/runner/work/occ</text>
<text text-anchor="start" x="338" y="-174.5" font-family="Helvetica,sans-Serif" font-size="10.00">/occ/include/occ/isosurface</text>
<text text-anchor="middle" x="403.5" y="-163.5" font-family="Helvetica,sans-Serif" font-size="10.00">/common.h</text>
</a>
</g>
</g>
<!-- Node1&#45;&gt;Node2 -->
<g id="edge1" class="edge">
<title>Node1&#45;&gt;Node2</title>
<path fill="none" stroke="midnightblue" d="M454,-227.2C443.95,-217.42 432.79,-206.54 423.52,-197.51"/>
<polygon fill="midnightblue" stroke="midnightblue" points="451.81,-229.96 461.41,-234.43 456.69,-224.94 451.81,-229.96"/>
</g>
<!-- Node9 -->
<g id="node9" class="node">
<title>Node9</title>
<g id="a_node9"><a xlink:href="point__functors_8h.html" target="_top" xlink:title=" ">
<polygon fill="none" stroke="black" points="495.5,-156.5 495.5,-197.5 623.5,-197.5 623.5,-156.5 495.5,-156.5"/>
<text text-anchor="start" x="503.5" y="-185.5" font-family="Helvetica,sans-Serif" font-size="10.00">/home/runner/work/occ</text>
<text text-anchor="start" x="503.5" y="-174.5" font-family="Helvetica,sans-Serif" font-size="10.00">/occ/include/occ/main</text>
<text text-anchor="middle" x="559.5" y="-163.5" font-family="Helvetica,sans-Serif" font-size="10.00">/point_functors.h</text>
</a>
</g>
</g>
<!-- Node1&#45;&gt;Node9 -->
<g id="edge12" class="edge">
<title>Node1&#45;&gt;Node9</title>
<path fill="none" stroke="midnightblue" d="M509,-227.2C519.05,-217.42 530.21,-206.54 539.48,-197.51"/>
<polygon fill="midnightblue" stroke="midnightblue" points="506.31,-224.94 501.59,-234.43 511.19,-229.96 506.31,-224.94"/>
</g>
<!-- Node3 -->
<g id="node3" class="node">
<title>Node3</title>
<g id="a_node3"><a xlink:href="electric__potential_8h.html" target="_top" xlink:title=" ">
<polygon fill="none" stroke="black" points="0,-78.5 0,-119.5 147,-119.5 147,-78.5 0,-78.5"/>
<text text-anchor="start" x="8" y="-107.5" font-family="Helvetica,sans-Serif" font-size="10.00">/home/runner/work/occ</text>
<text text-anchor="start" x="8" y="-96.5" font-family="Helvetica,sans-Serif" font-size="10.00">/occ/include/occ/isosurface</text>
<text text-anchor="middle" x="73.5" y="-85.5" font-family="Helvetica,sans-Serif" font-size="10.00">/electric_potential.h</text>
</a>
</g>
</g>
<!-- Node2&#45;&gt;Node3 -->
<g id="edge2" class="edge">
<title>Node2&#45;&gt;Node3</title>
<path fill="none" stroke="midnightblue" d="M319.85,-157.49C271.73,-146.74 210.16,-132.84 155.5,-120 152.79,-119.36 150.03,-118.71 147.24,-118.05"/>
<polygon fill="midnightblue" stroke="midnightblue" points="319.38,-160.97 329.9,-159.73 320.91,-154.14 319.38,-160.97"/>
</g>
<!-- Node5 -->
<g id="node5" class="node">
<title>Node5</title>
<g id="a_node5"><a xlink:href="electron__density_8h.html" target="_top" xlink:title=" ">
<polygon fill="none" stroke="black" points="165,-78.5 165,-119.5 312,-119.5 312,-78.5 165,-78.5"/>
<text text-anchor="start" x="173" y="-107.5" font-family="Helvetica,sans-Serif" font-size="10.00">/home/runner/work/occ</text>
<text text-anchor="start" x="173" y="-96.5" font-family="Helvetica,sans-Serif" font-size="10.00">/occ/include/occ/isosurface</text>
<text text-anchor="middle" x="238.5" y="-85.5" font-family="Helvetica,sans-Serif" font-size="10.00">/electron_density.h</text>
</a>
</g>
</g>
<!-- Node2&#45;&gt;Node5 -->
<g id="edge4" class="edge">
<title>Node2&#45;&gt;Node5</title>
<path fill="none" stroke="midnightblue" d="M351.81,-152.19C328.98,-141.67 302.48,-129.47 280.85,-119.51"/>
<polygon fill="midnightblue" stroke="midnightblue" points="350.46,-155.42 361.01,-156.43 353.39,-149.07 350.46,-155.42"/>
</g>
<!-- Node6 -->
<g id="node6" class="node">
<title>Node6</title>
<g id="a_node6"><a xlink:href="promolecule__density_8h.html" target="_top" xlink:title=" ">
<polygon fill="none" stroke="black" points="330,-78.5 330,-119.5 477,-119.5 477,-78.5 330,-78.5"/>
<text text-anchor="start" x="338" y="-107.5" font-family="Helvetica,sans-Serif" font-size="10.00">/home/runner/work/occ</text>
<text text-anchor="start" x="338" y="-96.5" font-family="Helvetica,sans-Serif" font-size="10.00">/occ/include/occ/isosurface</text>
<text text-anchor="middle" x="403.5" y="-85.5" font-family="Helvetica,sans-Serif" font-size="10.00">/promolecule_density.h</text>
</a>
</g>
</g>
<!-- Node2&#45;&gt;Node6 -->
<g id="edge6" class="edge">
<title>Node2&#45;&gt;Node6</title>
<path fill="none" stroke="midnightblue" d="M403.5,-146.3C403.5,-137.3 403.5,-127.65 403.5,-119.51"/>
<polygon fill="midnightblue" stroke="midnightblue" points="400,-146.43 403.5,-156.43 407,-146.43 400,-146.43"/>
</g>
<!-- Node7 -->
<g id="node7" class="node">
<title>Node7</title>
<g id="a_node7"><a xlink:href="stockholder__weight_8h.html" target="_top" xlink:title=" ">
<polygon fill="none" stroke="black" points="495,-78.5 495,-119.5 642,-119.5 642,-78.5 495,-78.5"/>
<text text-anchor="start" x="503" y="-107.5" font-family="Helvetica,sans-Serif" font-size="10.00">/home/runner/work/occ</text>
<text text-anchor="start" x="503" y="-96.5" font-family="Helvetica,sans-Serif" font-size="10.00">/occ/include/occ/isosurface</text>
<text text-anchor="middle" x="568.5" y="-85.5" font-family="Helvetica,sans-Serif" font-size="10.00">/stockholder_weight.h</text>
</a>
</g>
</g>
<!-- Node2&#45;&gt;Node7 -->
<g id="edge8" class="edge">
<title>Node2&#45;&gt;Node7</title>
<path fill="none" stroke="midnightblue" d="M455.19,-152.19C478.02,-141.67 504.52,-129.47 526.15,-119.51"/>
<polygon fill="midnightblue" stroke="midnightblue" points="453.61,-149.07 445.99,-156.43 456.54,-155.42 453.61,-149.07"/>
</g>
<!-- Node8 -->
<g id="node8" class="node">
<title>Node8</title>
<g id="a_node8"><a xlink:href="void_8h.html" target="_top" xlink:title=" ">
<polygon fill="none" stroke="black" points="660,-78.5 660,-119.5 807,-119.5 807,-78.5 660,-78.5"/>
<text text-anchor="start" x="668" y="-107.5" font-family="Helvetica,sans-Serif" font-size="10.00">/home/runner/work/occ</text>
<text text-anchor="start" x="668" y="-96.5" font-family="Helvetica,sans-Serif" font-size="10.00">/occ/include/occ/isosurface</text>
<text text-anchor="middle" x="733.5" y="-85.5" font-family="Helvetica,sans-Serif" font-size="10.00">/void.h</text>
</a>
</g>
</g>
<!-- Node2&#45;&gt;Node8 -->
<g id="edge10" class="edge">
<title>Node2&#45;&gt;Node8</title>
<path fill="none" stroke="midnightblue" d="M487.07,-155.89C561.28,-138.99 581.37,-136.2 651.5,-120 654.21,-119.37 656.97,-118.73 659.76,-118.07"/>
<polygon fill="midnightblue" stroke="midnightblue" points="486.21,-152.5 477.25,-158.14 487.78,-159.32 486.21,-152.5"/>
</g>
<!-- Node4 -->
<g id="node4" class="node">
<title>Node4</title>
<g id="a_node4"><a xlink:href="isosurface_8h.html" target="_top" xlink:title=" ">
<polygon fill="none" stroke="black" points="330,-0.5 330,-41.5 477,-41.5 477,-0.5 330,-0.5"/>
<text text-anchor="start" x="338" y="-29.5" font-family="Helvetica,sans-Serif" font-size="10.00">/home/runner/work/occ</text>
<text text-anchor="start" x="338" y="-18.5" font-family="Helvetica,sans-Serif" font-size="10.00">/occ/include/occ/isosurface</text>
<text text-anchor="middle" x="403.5" y="-7.5" font-family="Helvetica,sans-Serif" font-size="10.00">/isosurface.h</text>
</a>
</g>
</g>
<!-- Node3&#45;&gt;Node4 -->
<g id="edge3" class="edge">
<title>Node3&#45;&gt;Node4</title>
<path fill="none" stroke="midnightblue" d="M157.02,-77.66C220.5,-62.8 282.93,-48.74 329.9,-38.27"/>
<polygon fill="midnightblue" stroke="midnightblue" points="156.18,-74.26 147.24,-79.95 157.78,-81.07 156.18,-74.26"/>
</g>
<!-- Node5&#45;&gt;Node4 -->
<g id="edge5" class="edge">
<title>Node5&#45;&gt;Node4</title>
<path fill="none" stroke="midnightblue" d="M290.19,-74.19C313.02,-63.67 339.52,-51.47 361.15,-41.51"/>
<polygon fill="midnightblue" stroke="midnightblue" points="288.61,-71.07 280.99,-78.43 291.54,-77.42 288.61,-71.07"/>
</g>
<!-- Node6&#45;&gt;Node4 -->
<g id="edge7" class="edge">
<title>Node6&#45;&gt;Node4</title>
<path fill="none" stroke="midnightblue" d="M403.5,-68.3C403.5,-59.3 403.5,-49.65 403.5,-41.51"/>
<polygon fill="midnightblue" stroke="midnightblue" points="400,-68.43 403.5,-78.43 407,-68.43 400,-68.43"/>
</g>
<!-- Node7&#45;&gt;Node4 -->
<g id="edge9" class="edge">
<title>Node7&#45;&gt;Node4</title>
<path fill="none" stroke="midnightblue" d="M516.81,-74.19C493.98,-63.67 467.48,-51.47 445.85,-41.51"/>
<polygon fill="midnightblue" stroke="midnightblue" points="515.46,-77.42 526.01,-78.43 518.39,-71.07 515.46,-77.42"/>
</g>
<!-- Node8&#45;&gt;Node4 -->
<g id="edge11" class="edge">
<title>Node8&#45;&gt;Node4</title>
<path fill="none" stroke="midnightblue" d="M649.98,-77.66C586.5,-62.8 524.07,-48.74 477.1,-38.27"/>
<polygon fill="midnightblue" stroke="midnightblue" points="649.22,-81.07 659.76,-79.95 650.82,-74.26 649.22,-81.07"/>
</g>
</g>
</svg>
