<?xml version="1.0" encoding="UTF-8" standalone="no"?>
<!DOCTYPE svg PUBLIC "-//W3C//DTD SVG 1.1//EN"
 "http://www.w3.org/Graphics/SVG/1.1/DTD/svg11.dtd">
<!-- Generated by graphviz version 2.43.0 (0)
 -->
<!-- Title: /home/runner/work/occ/occ/include/occ/opt/internal_coordinates.h Pages: 1 -->
<svg width="1249pt" height="269pt"
 viewBox="0.00 0.00 1249.18 269.00" xmlns="http://www.w3.org/2000/svg" xmlns:xlink="http://www.w3.org/1999/xlink">
<g id="graph0" class="graph" transform="scale(1 1) rotate(0) translate(4 265)">
<title>/home/runner/work/occ/occ/include/occ/opt/internal_coordinates.h</title>
<!-- Node1 -->
<g id="Node000001" class="node">
<title>Node1</title>
<g id="a_Node000001"><a xlink:title=" ">
<polygon fill="#999999" stroke="#666666" points="611.5,-261 483.5,-261 483.5,-220 611.5,-220 611.5,-261"/>
<text text-anchor="start" x="491.5" y="-249" font-family="Helvetica,sans-Serif" font-size="10.00">/home/runner/work/occ</text>
<text text-anchor="start" x="491.5" y="-238" font-family="Helvetica,sans-Serif" font-size="10.00">/occ/include/occ/opt</text>
<text text-anchor="middle" x="547.5" y="-227" font-family="Helvetica,sans-Serif" font-size="10.00">/internal_coordinates.h</text>
</a>
</g>
</g>
<!-- Node2 -->
<g id="Node000002" class="node">
<title>Node2</title>
<g id="a_Node000002"><a xlink:href="graph_8h.html" target="_top" xlink:title=" ">
<polygon fill="white" stroke="#666666" points="308,-184 211,-184 211,-165 308,-165 308,-184"/>
<text text-anchor="middle" x="259.5" y="-172" font-family="Helvetica,sans-Serif" font-size="10.00">occ/core/graph.h</text>
</a>
</g>
</g>
<!-- Node1&#45;&gt;Node2 -->
<g id="edge1_Node000001_Node000002" class="edge">
<title>Node1&#45;&gt;Node2</title>
<g id="a_edge1_Node000001_Node000002"><a xlink:title=" ">
<path fill="none" stroke="#63b8ff" d="M483.23,-225.22C430.14,-213.42 355.94,-196.93 307.81,-186.23"/>
<polygon fill="#63b8ff" stroke="#63b8ff" points="308.47,-182.8 297.95,-184.04 306.95,-189.63 308.47,-182.8"/>
</a>
</g>
</g>
<!-- Node7 -->
<g id="Node000007" class="node">
<title>Node7</title>
<g id="a_Node000007"><a xlink:href="linear__algebra_8h.html" target="_top" xlink:title=" ">
<polygon fill="white" stroke="#666666" points="665,-74 526,-74 526,-55 665,-55 665,-74"/>
<text text-anchor="middle" x="595.5" y="-62" font-family="Helvetica,sans-Serif" font-size="10.00">occ/core/linear_algebra.h</text>
</a>
</g>
</g>
<!-- Node1&#45;&gt;Node7 -->
<g id="edge6_Node000001_Node000007" class="edge">
<title>Node1&#45;&gt;Node7</title>
<g id="a_edge6_Node000001_Node000007"><a xlink:title=" ">
<path fill="none" stroke="#63b8ff" d="M490.41,-219.92C432.02,-196.82 354.68,-155.71 391.5,-110 407.25,-90.45 465.68,-79.03 515.99,-72.66"/>
<polygon fill="#63b8ff" stroke="#63b8ff" points="516.42,-76.13 525.93,-71.45 515.58,-69.18 516.42,-76.13"/>
</a>
</g>
</g>
<!-- Node10 -->
<g id="Node000010" class="node">
<title>Node10</title>
<g id="a_Node000010"><a xlink:href="molecule_8h.html" target="_top" xlink:title=" ">
<polygon fill="white" stroke="#666666" points="994.5,-184 880.5,-184 880.5,-165 994.5,-165 994.5,-184"/>
<text text-anchor="middle" x="937.5" y="-172" font-family="Helvetica,sans-Serif" font-size="10.00">occ/core/molecule.h</text>
</a>
</g>
</g>
<!-- Node1&#45;&gt;Node10 -->
<g id="edge9_Node000001_Node000010" class="edge">
<title>Node1&#45;&gt;Node10</title>
<g id="a_edge9_Node000001_Node000010"><a xlink:title=" ">
<path fill="none" stroke="#63b8ff" d="M611.9,-228.93C684.9,-216.95 803.09,-197.56 875.2,-185.72"/>
<polygon fill="#63b8ff" stroke="#63b8ff" points="876.2,-189.11 885.5,-184.03 875.06,-182.2 876.2,-189.11"/>
</a>
</g>
</g>
<!-- Node17 -->
<g id="Node000017" class="node">
<title>Node17</title>
<g id="a_Node000017"><a xlink:title=" ">
<polygon fill="#e0e0e0" stroke="#999999" points="1087,-74 1040,-74 1040,-55 1087,-55 1087,-74"/>
<text text-anchor="middle" x="1063.5" y="-62" font-family="Helvetica,sans-Serif" font-size="10.00">vector</text>
</a>
</g>
</g>
<!-- Node1&#45;&gt;Node17 -->
<g id="edge27_Node000001_Node000017" class="edge">
<title>Node1&#45;&gt;Node17</title>
<g id="a_edge27_Node000001_Node000017"><a xlink:title=" ">
<path fill="none" stroke="#63b8ff" d="M611.77,-239.63C767.4,-238.39 1157.33,-225.54 1233.5,-129 1270.97,-81.52 1156.64,-69.54 1097.11,-66.52"/>
<polygon fill="#63b8ff" stroke="#63b8ff" points="1097.17,-63.02 1087.03,-66.07 1096.86,-70.01 1097.17,-63.02"/>
</a>
</g>
</g>
<!-- Node19 -->
<g id="Node000019" class="node">
<title>Node19</title>
<g id="a_Node000019"><a xlink:href="angle__coordinate_8h.html" target="_top" xlink:title=" ">
<polygon fill="white" stroke="#666666" points="548.5,-129 400.5,-129 400.5,-110 548.5,-110 548.5,-129"/>
<text text-anchor="middle" x="474.5" y="-117" font-family="Helvetica,sans-Serif" font-size="10.00">occ/opt/angle_coordinate.h</text>
</a>
</g>
</g>
<!-- Node1&#45;&gt;Node19 -->
<g id="edge20_Node000001_Node000019" class="edge">
<title>Node1&#45;&gt;Node19</title>
<g id="a_edge20_Node000001_Node000019"><a xlink:title=" ">
<path fill="none" stroke="#63b8ff" d="M496.52,-219.86C481.2,-211.28 466.18,-199.55 457.5,-184 449.44,-169.57 455.95,-151.14 463.11,-137.86"/>
<polygon fill="#63b8ff" stroke="#63b8ff" points="466.14,-139.61 468.25,-129.22 460.13,-136.03 466.14,-139.61"/>
</a>
</g>
</g>
<!-- Node20 -->
<g id="Node000020" class="node">
<title>Node20</title>
<g id="a_Node000020"><a xlink:href="bond__coordinate_8h.html" target="_top" xlink:title=" ">
<polygon fill="white" stroke="#666666" points="791,-184 646,-184 646,-165 791,-165 791,-184"/>
<text text-anchor="middle" x="718.5" y="-172" font-family="Helvetica,sans-Serif" font-size="10.00">occ/opt/bond_coordinate.h</text>
</a>
</g>
</g>
<!-- Node1&#45;&gt;Node20 -->
<g id="edge22_Node000001_Node000020" class="edge">
<title>Node1&#45;&gt;Node20</title>
<g id="a_edge22_Node000001_Node000020"><a xlink:title=" ">
<path fill="none" stroke="#63b8ff" d="M599.73,-219.95C627.88,-209.42 661.72,-196.75 686.06,-187.64"/>
<polygon fill="#63b8ff" stroke="#63b8ff" points="687.4,-190.88 695.54,-184.09 684.95,-184.32 687.4,-190.88"/>
</a>
</g>
</g>
<!-- Node21 -->
<g id="Node000021" class="node">
<title>Node21</title>
<g id="a_Node000021"><a xlink:href="dihedral__coordinate_8h.html" target="_top" xlink:title=" ">
<polygon fill="white" stroke="#666666" points="628,-184 467,-184 467,-165 628,-165 628,-184"/>
<text text-anchor="middle" x="547.5" y="-172" font-family="Helvetica,sans-Serif" font-size="10.00">occ/opt/dihedral_coordinate.h</text>
</a>
</g>
</g>
<!-- Node1&#45;&gt;Node21 -->
<g id="edge24_Node000001_Node000021" class="edge">
<title>Node1&#45;&gt;Node21</title>
<g id="a_edge24_Node000001_Node000021"><a xlink:title=" ">
<path fill="none" stroke="#63b8ff" d="M547.5,-219.95C547.5,-211.85 547.5,-202.5 547.5,-194.47"/>
<polygon fill="#63b8ff" stroke="#63b8ff" points="551,-194.26 547.5,-184.26 544,-194.26 551,-194.26"/>
</a>
</g>
</g>
<!-- Node3 -->
<g id="Node000003" class="node">
<title>Node3</title>
<g id="a_Node000003"><a xlink:title=" ">
<polygon fill="#e0e0e0" stroke="#999999" points="143,-129 0,-129 0,-110 143,-110 143,-129"/>
<text text-anchor="middle" x="71.5" y="-117" font-family="Helvetica,sans-Serif" font-size="10.00">ankerl/unordered_dense.h</text>
</a>
</g>
</g>
<!-- Node2&#45;&gt;Node3 -->
<g id="edge2_Node000002_Node000003" class="edge">
<title>Node2&#45;&gt;Node3</title>
<g id="a_edge2_Node000002_Node000003"><a xlink:title=" ">
<path fill="none" stroke="#63b8ff" d="M229.29,-164.98C197.46,-156.01 147.14,-141.82 111.9,-131.89"/>
<polygon fill="#63b8ff" stroke="#63b8ff" points="112.52,-128.43 101.94,-129.08 110.62,-135.16 112.52,-128.43"/>
</a>
</g>
</g>
<!-- Node4 -->
<g id="Node000004" class="node">
<title>Node4</title>
<g id="a_Node000004"><a xlink:title=" ">
<polygon fill="#e0e0e0" stroke="#999999" points="217.5,-129 161.5,-129 161.5,-110 217.5,-110 217.5,-129"/>
<text text-anchor="middle" x="189.5" y="-117" font-family="Helvetica,sans-Serif" font-size="10.00">optional</text>
</a>
</g>
</g>
<!-- Node2&#45;&gt;Node4 -->
<g id="edge3_Node000002_Node000004" class="edge">
<title>Node2&#45;&gt;Node4</title>
<g id="a_edge3_Node000002_Node000004"><a xlink:title=" ">
<path fill="none" stroke="#63b8ff" d="M248.25,-164.98C237.7,-157 221.7,-144.88 209.06,-135.31"/>
<polygon fill="#63b8ff" stroke="#63b8ff" points="211.04,-132.42 200.95,-129.17 206.81,-138 211.04,-132.42"/>
</a>
</g>
</g>
<!-- Node5 -->
<g id="Node000005" class="node">
<title>Node5</title>
<g id="a_Node000005"><a xlink:title=" ">
<polygon fill="#e0e0e0" stroke="#999999" points="283,-129 236,-129 236,-110 283,-110 283,-129"/>
<text text-anchor="middle" x="259.5" y="-117" font-family="Helvetica,sans-Serif" font-size="10.00">queue</text>
</a>
</g>
</g>
<!-- Node2&#45;&gt;Node5 -->
<g id="edge4_Node000002_Node000005" class="edge">
<title>Node2&#45;&gt;Node5</title>
<g id="a_edge4_Node000002_Node000005"><a xlink:title=" ">
<path fill="none" stroke="#63b8ff" d="M259.5,-164.75C259.5,-157.8 259.5,-147.85 259.5,-139.13"/>
<polygon fill="#63b8ff" stroke="#63b8ff" points="263,-139.09 259.5,-129.09 256,-139.09 263,-139.09"/>
</a>
</g>
</g>
<!-- Node6 -->
<g id="Node000006" class="node">
<title>Node6</title>
<g id="a_Node000006"><a xlink:title=" ">
<polygon fill="#e0e0e0" stroke="#999999" points="344,-129 301,-129 301,-110 344,-110 344,-129"/>
<text text-anchor="middle" x="322.5" y="-117" font-family="Helvetica,sans-Serif" font-size="10.00">stack</text>
</a>
</g>
</g>
<!-- Node2&#45;&gt;Node6 -->
<g id="edge5_Node000002_Node000006" class="edge">
<title>Node2&#45;&gt;Node6</title>
<g id="a_edge5_Node000002_Node000006"><a xlink:title=" ">
<path fill="none" stroke="#63b8ff" d="M269.62,-164.98C278.94,-157.15 292.97,-145.34 304.24,-135.86"/>
<polygon fill="#63b8ff" stroke="#63b8ff" points="306.79,-138.29 312.19,-129.17 302.29,-132.93 306.79,-138.29"/>
</a>
</g>
</g>
<!-- Node8 -->
<g id="Node000008" class="node">
<title>Node8</title>
<g id="a_Node000008"><a xlink:title=" ">
<polygon fill="#e0e0e0" stroke="#999999" points="581,-19 512,-19 512,0 581,0 581,-19"/>
<text text-anchor="middle" x="546.5" y="-7" font-family="Helvetica,sans-Serif" font-size="10.00">Eigen/Core</text>
</a>
</g>
</g>
<!-- Node7&#45;&gt;Node8 -->
<g id="edge7_Node000007_Node000008" class="edge">
<title>Node7&#45;&gt;Node8</title>
<g id="a_edge7_Node000007_Node000008"><a xlink:title=" ">
<path fill="none" stroke="#63b8ff" d="M587.41,-54.75C580.34,-47.11 569.91,-35.82 561.35,-26.56"/>
<polygon fill="#63b8ff" stroke="#63b8ff" points="563.8,-24.06 554.44,-19.09 558.66,-28.81 563.8,-24.06"/>
</a>
</g>
</g>
<!-- Node9 -->
<g id="Node000009" class="node">
<title>Node9</title>
<g id="a_Node000009"><a xlink:title=" ">
<polygon fill="#e0e0e0" stroke="#999999" points="692,-19 599,-19 599,0 692,0 692,-19"/>
<text text-anchor="middle" x="645.5" y="-7" font-family="Helvetica,sans-Serif" font-size="10.00">Eigen/StdVector</text>
</a>
</g>
</g>
<!-- Node7&#45;&gt;Node9 -->
<g id="edge8_Node000007_Node000009" class="edge">
<title>Node7&#45;&gt;Node9</title>
<g id="a_edge8_Node000007_Node000009"><a xlink:title=" ">
<path fill="none" stroke="#63b8ff" d="M603.76,-54.75C610.96,-47.11 621.61,-35.82 630.35,-26.56"/>
<polygon fill="#63b8ff" stroke="#63b8ff" points="633.08,-28.76 637.4,-19.09 627.99,-23.96 633.08,-28.76"/>
</a>
</g>
</g>
<!-- Node11 -->
<g id="Node000011" class="node">
<title>Node11</title>
<g id="a_Node000011"><a xlink:title=" ">
<polygon fill="#e0e0e0" stroke="#999999" points="990.5,-129 884.5,-129 884.5,-110 990.5,-110 990.5,-129"/>
<text text-anchor="middle" x="937.5" y="-117" font-family="Helvetica,sans-Serif" font-size="10.00">Eigen/Eigenvalues</text>
</a>
</g>
</g>
<!-- Node10&#45;&gt;Node11 -->
<g id="edge10_Node000010_Node000011" class="edge">
<title>Node10&#45;&gt;Node11</title>
<g id="a_edge10_Node000010_Node000011"><a xlink:title=" ">
<path fill="none" stroke="#63b8ff" d="M937.5,-164.75C937.5,-157.8 937.5,-147.85 937.5,-139.13"/>
<polygon fill="#63b8ff" stroke="#63b8ff" points="941,-139.09 937.5,-129.09 934,-139.09 941,-139.09"/>
</a>
</g>
</g>
<!-- Node12 -->
<g id="Node000012" class="node">
<title>Node12</title>
<g id="a_Node000012"><a xlink:title=" ">
<polygon fill="#e0e0e0" stroke="#999999" points="1104,-129 1009,-129 1009,-110 1104,-110 1104,-129"/>
<text text-anchor="middle" x="1056.5" y="-117" font-family="Helvetica,sans-Serif" font-size="10.00">Eigen/Geometry</text>
</a>
</g>
</g>
<!-- Node10&#45;&gt;Node12 -->
<g id="edge11_Node000010_Node000012" class="edge">
<title>Node10&#45;&gt;Node12</title>
<g id="a_edge11_Node000010_Node000012"><a xlink:title=" ">
<path fill="none" stroke="#63b8ff" d="M956.62,-164.98C975.85,-156.42 1005.73,-143.11 1027.81,-133.28"/>
<polygon fill="#63b8ff" stroke="#63b8ff" points="1029.32,-136.44 1037.03,-129.17 1026.47,-130.04 1029.32,-136.44"/>
</a>
</g>
</g>
<!-- Node13 -->
<g id="Node000013" class="node">
<title>Node13</title>
<g id="a_Node000013"><a xlink:title=" ">
<polygon fill="#e0e0e0" stroke="#999999" points="1164.5,-129 1122.5,-129 1122.5,-110 1164.5,-110 1164.5,-129"/>
<text text-anchor="middle" x="1143.5" y="-117" font-family="Helvetica,sans-Serif" font-size="10.00">array</text>
</a>
</g>
</g>
<!-- Node10&#45;&gt;Node13 -->
<g id="edge12_Node000010_Node000013" class="edge">
<title>Node10&#45;&gt;Node13</title>
<g id="a_edge12_Node000010_Node000013"><a xlink:title=" ">
<path fill="none" stroke="#63b8ff" d="M972.64,-164.93C1006.2,-156.67 1058.45,-143.64 1112.47,-129.22"/>
<polygon fill="#63b8ff" stroke="#63b8ff" points="1113.46,-132.58 1122.22,-126.61 1111.65,-125.82 1113.46,-132.58"/>
</a>
</g>
</g>
<!-- Node14 -->
<g id="Node000014" class="node">
<title>Node14</title>
<g id="a_Node000014"><a xlink:href="atom_8h.html" target="_top" xlink:title=" ">
<polygon fill="white" stroke="#666666" points="738,-129 643,-129 643,-110 738,-110 738,-129"/>
<text text-anchor="middle" x="690.5" y="-117" font-family="Helvetica,sans-Serif" font-size="10.00">occ/core/atom.h</text>
</a>
</g>
</g>
<!-- Node10&#45;&gt;Node14 -->
<g id="edge13_Node000010_Node000014" class="edge">
<title>Node10&#45;&gt;Node14</title>
<g id="a_edge13_Node000010_Node000014"><a xlink:title=" ">
<path fill="none" stroke="#63b8ff" d="M897.82,-164.98C855,-155.8 786.74,-141.15 740.34,-131.19"/>
<polygon fill="#63b8ff" stroke="#63b8ff" points="741.01,-127.76 730.5,-129.08 739.54,-134.6 741.01,-127.76"/>
</a>
</g>
</g>
<!-- Node15 -->
<g id="Node000015" class="node">
<title>Node15</title>
<g id="a_Node000015"><a xlink:href="element_8h.html" target="_top" xlink:title=" ">
<polygon fill="white" stroke="#666666" points="866.5,-129 756.5,-129 756.5,-110 866.5,-110 866.5,-129"/>
<text text-anchor="middle" x="811.5" y="-117" font-family="Helvetica,sans-Serif" font-size="10.00">occ/core/element.h</text>
</a>
</g>
</g>
<!-- Node10&#45;&gt;Node15 -->
<g id="edge15_Node000010_Node000015" class="edge">
<title>Node10&#45;&gt;Node15</title>
<g id="a_edge15_Node000010_Node000015"><a xlink:title=" ">
<path fill="none" stroke="#63b8ff" d="M917.26,-164.98C896.8,-156.38 864.97,-142.99 841.57,-133.15"/>
<polygon fill="#63b8ff" stroke="#63b8ff" points="842.69,-129.82 832.11,-129.17 839.97,-136.27 842.69,-129.82"/>
</a>
</g>
</g>
<!-- Node18 -->
<g id="Node000018" class="node">
<title>Node18</title>
<g id="a_Node000018"><a xlink:title=" ">
<polygon fill="#e0e0e0" stroke="#999999" points="1224,-129 1183,-129 1183,-110 1224,-110 1224,-129"/>
<text text-anchor="middle" x="1203.5" y="-117" font-family="Helvetica,sans-Serif" font-size="10.00">tuple</text>
</a>
</g>
</g>
<!-- Node10&#45;&gt;Node18 -->
<g id="edge19_Node000010_Node000018" class="edge">
<title>Node10&#45;&gt;Node18</title>
<g id="a_edge19_Node000010_Node000018"><a xlink:title=" ">
<path fill="none" stroke="#63b8ff" d="M990.28,-164.94C1036.04,-157.21 1104.24,-144.93 1172.79,-128.98"/>
<polygon fill="#63b8ff" stroke="#63b8ff" points="1173.97,-132.3 1182.91,-126.6 1172.37,-125.48 1173.97,-132.3"/>
</a>
</g>
</g>
<!-- Node14&#45;&gt;Node7 -->
<g id="edge14_Node000014_Node000007" class="edge">
<title>Node14&#45;&gt;Node7</title>
<g id="a_edge14_Node000014_Node000007"><a xlink:title=" ">
<path fill="none" stroke="#63b8ff" d="M675.24,-109.98C660.37,-101.69 637.52,-88.94 620.08,-79.22"/>
<polygon fill="#63b8ff" stroke="#63b8ff" points="621.48,-75.99 611.04,-74.17 618.07,-82.1 621.48,-75.99"/>
</a>
</g>
</g>
<!-- Node15&#45;&gt;Node7 -->
<g id="edge18_Node000015_Node000007" class="edge">
<title>Node15&#45;&gt;Node7</title>
<g id="a_edge18_Node000015_Node000007"><a xlink:title=" ">
<path fill="none" stroke="#63b8ff" d="M776.8,-109.98C739.75,-100.89 680.91,-86.46 640.37,-76.51"/>
<polygon fill="#63b8ff" stroke="#63b8ff" points="641.02,-73.07 630.48,-74.08 639.35,-79.86 641.02,-73.07"/>
</a>
</g>
</g>
<!-- Node16 -->
<g id="Node000016" class="node">
<title>Node16</title>
<g id="a_Node000016"><a xlink:title=" ">
<polygon fill="#e0e0e0" stroke="#999999" points="833.5,-74 789.5,-74 789.5,-55 833.5,-55 833.5,-74"/>
<text text-anchor="middle" x="811.5" y="-62" font-family="Helvetica,sans-Serif" font-size="10.00">string</text>
</a>
</g>
</g>
<!-- Node15&#45;&gt;Node16 -->
<g id="edge16_Node000015_Node000016" class="edge">
<title>Node15&#45;&gt;Node16</title>
<g id="a_edge16_Node000015_Node000016"><a xlink:title=" ">
<path fill="none" stroke="#63b8ff" d="M811.5,-109.75C811.5,-102.8 811.5,-92.85 811.5,-84.13"/>
<polygon fill="#63b8ff" stroke="#63b8ff" points="815,-84.09 811.5,-74.09 808,-84.09 815,-84.09"/>
</a>
</g>
</g>
<!-- Node15&#45;&gt;Node17 -->
<g id="edge17_Node000015_Node000017" class="edge">
<title>Node15&#45;&gt;Node17</title>
<g id="a_edge17_Node000015_Node000017"><a xlink:title=" ">
<path fill="none" stroke="#63b8ff" d="M851.99,-109.98C901.3,-99.61 983.68,-82.29 1029.73,-72.6"/>
<polygon fill="#63b8ff" stroke="#63b8ff" points="1030.73,-75.97 1039.8,-70.49 1029.29,-69.12 1030.73,-75.97"/>
</a>
</g>
</g>
<!-- Node19&#45;&gt;Node7 -->
<g id="edge21_Node000019_Node000007" class="edge">
<title>Node19&#45;&gt;Node7</title>
<g id="a_edge21_Node000019_Node000007"><a xlink:title=" ">
<path fill="none" stroke="#63b8ff" d="M493.94,-109.98C513.49,-101.42 543.88,-88.11 566.32,-78.28"/>
<polygon fill="#63b8ff" stroke="#63b8ff" points="567.95,-81.39 575.71,-74.17 565.14,-74.98 567.95,-81.39"/>
</a>
</g>
</g>
<!-- Node20&#45;&gt;Node7 -->
<g id="edge23_Node000020_Node000007" class="edge">
<title>Node20&#45;&gt;Node7</title>
<g id="a_edge23_Node000020_Node000007"><a xlink:title=" ">
<path fill="none" stroke="#63b8ff" d="M694.66,-164.89C676.58,-157.48 651.95,-145.37 634.5,-129 620.82,-116.16 610.12,-97.49 603.42,-83.71"/>
<polygon fill="#63b8ff" stroke="#63b8ff" points="606.45,-81.93 599.09,-74.31 600.09,-84.86 606.45,-81.93"/>
</a>
</g>
</g>
<!-- Node21&#45;&gt;Node7 -->
<g id="edge25_Node000021_Node000007" class="edge">
<title>Node21&#45;&gt;Node7</title>
<g id="a_edge25_Node000021_Node000007"><a xlink:title=" ">
<path fill="none" stroke="#63b8ff" d="M551.43,-164.66C559.31,-146.93 577.18,-106.73 587.58,-83.32"/>
<polygon fill="#63b8ff" stroke="#63b8ff" points="590.79,-84.72 591.65,-74.16 584.39,-81.87 590.79,-84.72"/>
</a>
</g>
</g>
<!-- Node21&#45;&gt;Node19 -->
<g id="edge26_Node000021_Node000019" class="edge">
<title>Node21&#45;&gt;Node19</title>
<g id="a_edge26_Node000021_Node000019"><a xlink:title=" ">
<path fill="none" stroke="#63b8ff" d="M535.77,-164.98C524.77,-157 508.08,-144.88 494.9,-135.31"/>
<polygon fill="#63b8ff" stroke="#63b8ff" points="496.59,-132.21 486.44,-129.17 492.48,-137.88 496.59,-132.21"/>
</a>
</g>
</g>
</g>
</svg>
