<?xml version="1.0" encoding="UTF-8" standalone="no"?>
<!DOCTYPE svg PUBLIC "-//W3C//DTD SVG 1.1//EN"
 "http://www.w3.org/Graphics/SVG/1.1/DTD/svg11.dtd">
<!-- Generated by graphviz version 2.43.0 (0)
 -->
<!-- Title: /home/runner/work/occ/occ/include/occ/main/isosurface.h Pages: 1 -->
<svg width="1028pt" height="296pt"
 viewBox="0.00 0.00 1027.69 296.00" xmlns="http://www.w3.org/2000/svg" xmlns:xlink="http://www.w3.org/1999/xlink">
<g id="graph0" class="graph" transform="scale(1 1) rotate(0) translate(4 292)">
<title>/home/runner/work/occ/occ/include/occ/main/isosurface.h</title>
<!-- Node1 -->
<g id="node1" class="node">
<title>Node1</title>
<g id="a_node1"><a xlink:title=" ">
<polygon fill="#bfbfbf" stroke="black" points="438.5,-246.5 438.5,-287.5 566.5,-287.5 566.5,-246.5 438.5,-246.5"/>
<text text-anchor="start" x="446.5" y="-275.5" font-family="Helvetica,sans-Serif" font-size="10.00">/home/runner/work/occ</text>
<text text-anchor="start" x="446.5" y="-264.5" font-family="Helvetica,sans-Serif" font-size="10.00">/occ/include/occ/main</text>
<text text-anchor="middle" x="502.5" y="-253.5" font-family="Helvetica,sans-Serif" font-size="10.00">/isosurface.h</text>
</a>
</g>
</g>
<!-- Node2 -->
<g id="node2" class="node">
<title>Node2</title>
<g id="a_node2"><a xlink:title=" ">
<polygon fill="none" stroke="#bfbfbf" points="887,-123.5 887,-153.5 1004,-153.5 1004,-123.5 887,-123.5"/>
<text text-anchor="start" x="895" y="-141.5" font-family="Helvetica,sans-Serif" font-size="10.00">occ/3rdparty/parallel</text>
<text text-anchor="middle" x="945.5" y="-130.5" font-family="Helvetica,sans-Serif" font-size="10.00">_hashmap/phmap.h</text>
</a>
</g>
</g>
<!-- Node1&#45;&gt;Node2 -->
<g id="edge1" class="edge">
<title>Node1&#45;&gt;Node2</title>
<path fill="none" stroke="midnightblue" d="M566.77,-256.48C622.87,-247.32 706.08,-231.66 776.5,-210 822.55,-195.84 873.3,-173.74 907.05,-158.06"/>
<polygon fill="midnightblue" stroke="midnightblue" points="908.96,-161.03 916.53,-153.62 905.99,-154.69 908.96,-161.03"/>
</g>
<!-- Node3 -->
<g id="node3" class="node">
<title>Node3</title>
<g id="a_node3"><a xlink:href="interpolator_8h.html" target="_top" xlink:title=" ">
<polygon fill="none" stroke="black" points="92,-190.5 92,-209.5 217,-209.5 217,-190.5 92,-190.5"/>
<text text-anchor="middle" x="154.5" y="-197.5" font-family="Helvetica,sans-Serif" font-size="10.00">occ/core/interpolator.h</text>
</a>
</g>
</g>
<!-- Node1&#45;&gt;Node3 -->
<g id="edge2" class="edge">
<title>Node1&#45;&gt;Node3</title>
<path fill="none" stroke="midnightblue" d="M438.27,-254C372.78,-241.77 272.24,-222.99 210.07,-211.38"/>
<polygon fill="midnightblue" stroke="midnightblue" points="210.53,-207.91 200.06,-209.51 209.25,-214.79 210.53,-207.91"/>
</g>
<!-- Node6 -->
<g id="node6" class="node">
<title>Node6</title>
<g id="a_node6"><a xlink:href="linear__algebra_8h.html" target="_top" xlink:title=" ">
<polygon fill="none" stroke="black" points="433,-67.5 433,-86.5 572,-86.5 572,-67.5 433,-67.5"/>
<text text-anchor="middle" x="502.5" y="-74.5" font-family="Helvetica,sans-Serif" font-size="10.00">occ/core/linear_algebra.h</text>
</a>
</g>
</g>
<!-- Node1&#45;&gt;Node6 -->
<g id="edge10" class="edge">
<title>Node1&#45;&gt;Node6</title>
<path fill="none" stroke="midnightblue" d="M457.94,-246.38C405.01,-220.27 328.06,-171.72 363.5,-123 377.53,-103.71 400.02,-92.51 422.85,-86.08"/>
<polygon fill="midnightblue" stroke="midnightblue" points="423.8,-89.45 432.64,-83.6 422.08,-82.66 423.8,-89.45"/>
</g>
<!-- Node11 -->
<g id="node11" class="node">
<title>Node11</title>
<g id="a_node11"><a xlink:href="molecule_8h.html" target="_top" xlink:title=" ">
<polygon fill="none" stroke="black" points="445.5,-190.5 445.5,-209.5 559.5,-209.5 559.5,-190.5 445.5,-190.5"/>
<text text-anchor="middle" x="502.5" y="-197.5" font-family="Helvetica,sans-Serif" font-size="10.00">occ/core/molecule.h</text>
</a>
</g>
</g>
<!-- Node1&#45;&gt;Node11 -->
<g id="edge11" class="edge">
<title>Node1&#45;&gt;Node11</title>
<path fill="none" stroke="midnightblue" d="M502.5,-246.5C502.5,-238.07 502.5,-228.24 502.5,-219.87"/>
<polygon fill="midnightblue" stroke="midnightblue" points="506,-219.65 502.5,-209.65 499,-219.65 506,-219.65"/>
</g>
<!-- Node16 -->
<g id="node16" class="node">
<title>Node16</title>
<g id="a_node16"><a xlink:title=" ">
<polygon fill="none" stroke="#bfbfbf" points="835,-67.5 835,-86.5 882,-86.5 882,-67.5 835,-67.5"/>
<text text-anchor="middle" x="858.5" y="-74.5" font-family="Helvetica,sans-Serif" font-size="10.00">vector</text>
</a>
</g>
</g>
<!-- Node1&#45;&gt;Node16 -->
<g id="edge28" class="edge">
<title>Node1&#45;&gt;Node16</title>
<path fill="none" stroke="midnightblue" d="M566.51,-261.98C691.25,-252.63 959.32,-224.6 1012.5,-154 1046.29,-109.14 946.98,-89.15 892.15,-81.72"/>
<polygon fill="midnightblue" stroke="midnightblue" points="892.51,-78.24 882.15,-80.43 891.62,-85.18 892.51,-78.24"/>
</g>
<!-- Node18 -->
<g id="node18" class="node">
<title>Node18</title>
<g id="a_node18"><a xlink:href="units_8h.html" target="_top" xlink:title=" ">
<polygon fill="none" stroke="black" points="235,-190.5 235,-209.5 328,-209.5 328,-190.5 235,-190.5"/>
<text text-anchor="middle" x="281.5" y="-197.5" font-family="Helvetica,sans-Serif" font-size="10.00">occ/core/units.h</text>
</a>
</g>
</g>
<!-- Node1&#45;&gt;Node18 -->
<g id="edge20" class="edge">
<title>Node1&#45;&gt;Node18</title>
<path fill="none" stroke="midnightblue" d="M438.28,-247.11C400.05,-235.87 352.8,-221.97 320.22,-212.39"/>
<polygon fill="midnightblue" stroke="midnightblue" points="321.19,-209.03 310.61,-209.56 319.22,-215.74 321.19,-209.03"/>
</g>
<!-- Node19 -->
<g id="node19" class="node">
<title>Node19</title>
<g id="a_node19"><a xlink:href="slaterbasis_8h.html" target="_top" xlink:title=" ">
<polygon fill="none" stroke="black" points="639,-190.5 639,-209.5 768,-209.5 768,-190.5 639,-190.5"/>
<text text-anchor="middle" x="703.5" y="-197.5" font-family="Helvetica,sans-Serif" font-size="10.00">occ/slater/slaterbasis.h</text>
</a>
</g>
</g>
<!-- Node1&#45;&gt;Node19 -->
<g id="edge22" class="edge">
<title>Node1&#45;&gt;Node19</title>
<path fill="none" stroke="midnightblue" d="M562.81,-246.5C596.84,-235.49 638.23,-222.11 667.28,-212.71"/>
<polygon fill="midnightblue" stroke="midnightblue" points="668.57,-215.97 677.01,-209.57 666.42,-209.31 668.57,-215.97"/>
</g>
<!-- Node4 -->
<g id="node4" class="node">
<title>Node4</title>
<g id="a_node4"><a xlink:title=" ">
<polygon fill="none" stroke="#bfbfbf" points="256,-129 256,-148 303,-148 303,-129 256,-129"/>
<text text-anchor="middle" x="279.5" y="-136" font-family="Helvetica,sans-Serif" font-size="10.00">cmath</text>
</a>
</g>
</g>
<!-- Node3&#45;&gt;Node4 -->
<g id="edge3" class="edge">
<title>Node3&#45;&gt;Node4</title>
<path fill="none" stroke="midnightblue" d="M172.41,-190.48C193.39,-180.49 228.35,-163.85 252.59,-152.31"/>
<polygon fill="midnightblue" stroke="midnightblue" points="254.1,-155.47 261.62,-148.01 251.09,-149.15 254.1,-155.47"/>
</g>
<!-- Node5 -->
<g id="node5" class="node">
<title>Node5</title>
<g id="a_node5"><a xlink:title=" ">
<polygon fill="none" stroke="#bfbfbf" points="123,-129 123,-148 190,-148 190,-129 123,-129"/>
<text text-anchor="middle" x="156.5" y="-136" font-family="Helvetica,sans-Serif" font-size="10.00">fmt/core.h</text>
</a>
</g>
</g>
<!-- Node3&#45;&gt;Node5 -->
<g id="edge4" class="edge">
<title>Node3&#45;&gt;Node5</title>
<path fill="none" stroke="midnightblue" d="M154.79,-190.48C155.07,-182.08 155.51,-168.98 155.87,-158.16"/>
<polygon fill="midnightblue" stroke="midnightblue" points="159.38,-158.12 156.21,-148.01 152.38,-157.89 159.38,-158.12"/>
</g>
<!-- Node3&#45;&gt;Node6 -->
<g id="edge5" class="edge">
<title>Node3&#45;&gt;Node6</title>
<path fill="none" stroke="midnightblue" d="M162.1,-190.25C176.69,-174.08 210.38,-139.66 246.5,-123 302.01,-97.39 370.46,-86.29 422.61,-81.5"/>
<polygon fill="midnightblue" stroke="midnightblue" points="423.15,-84.97 432.81,-80.63 422.55,-78 423.15,-84.97"/>
</g>
<!-- Node10 -->
<g id="node10" class="node">
<title>Node10</title>
<g id="a_node10"><a xlink:href="macros_8h.html" target="_top" xlink:title=" ">
<polygon fill="none" stroke="black" points="0,-129 0,-148 105,-148 105,-129 0,-129"/>
<text text-anchor="middle" x="52.5" y="-136" font-family="Helvetica,sans-Serif" font-size="10.00">occ/core/macros.h</text>
</a>
</g>
</g>
<!-- Node3&#45;&gt;Node10 -->
<g id="edge9" class="edge">
<title>Node3&#45;&gt;Node10</title>
<path fill="none" stroke="midnightblue" d="M139.89,-190.48C123.15,-180.71 95.5,-164.58 75.78,-153.08"/>
<polygon fill="midnightblue" stroke="midnightblue" points="77.49,-150.02 67.09,-148.01 73.96,-156.07 77.49,-150.02"/>
</g>
<!-- Node7 -->
<g id="node7" class="node">
<title>Node7</title>
<g id="a_node7"><a xlink:title=" ">
<polygon fill="none" stroke="#bfbfbf" points="361,-6 361,-25 438,-25 438,-6 361,-6"/>
<text text-anchor="middle" x="399.5" y="-13" font-family="Helvetica,sans-Serif" font-size="10.00">Eigen/Dense</text>
</a>
</g>
</g>
<!-- Node6&#45;&gt;Node7 -->
<g id="edge6" class="edge">
<title>Node6&#45;&gt;Node7</title>
<path fill="none" stroke="midnightblue" d="M487.74,-67.48C470.84,-57.71 442.92,-41.58 423.01,-30.08"/>
<polygon fill="midnightblue" stroke="midnightblue" points="424.64,-26.98 414.23,-25.01 421.14,-33.04 424.64,-26.98"/>
</g>
<!-- Node8 -->
<g id="node8" class="node">
<title>Node8</title>
<g id="a_node8"><a xlink:title=" ">
<polygon fill="none" stroke="#bfbfbf" points="456,-6 456,-25 549,-25 549,-6 456,-6"/>
<text text-anchor="middle" x="502.5" y="-13" font-family="Helvetica,sans-Serif" font-size="10.00">Eigen/StdVector</text>
</a>
</g>
</g>
<!-- Node6&#45;&gt;Node8 -->
<g id="edge7" class="edge">
<title>Node6&#45;&gt;Node8</title>
<path fill="none" stroke="midnightblue" d="M502.5,-67.48C502.5,-59.08 502.5,-45.98 502.5,-35.16"/>
<polygon fill="midnightblue" stroke="midnightblue" points="506,-35.01 502.5,-25.01 499,-35.01 506,-35.01"/>
</g>
<!-- Node9 -->
<g id="node9" class="node">
<title>Node9</title>
<g id="a_node9"><a xlink:title=" ">
<polygon fill="none" stroke="#bfbfbf" points="567,-0.5 567,-30.5 674,-30.5 674,-0.5 567,-0.5"/>
<text text-anchor="start" x="575" y="-18.5" font-family="Helvetica,sans-Serif" font-size="10.00">occ/3rdparty/eigen</text>
<text text-anchor="middle" x="620.5" y="-7.5" font-family="Helvetica,sans-Serif" font-size="10.00">&#45;fmt/fmt.h</text>
</a>
</g>
</g>
<!-- Node6&#45;&gt;Node9 -->
<g id="edge8" class="edge">
<title>Node6&#45;&gt;Node9</title>
<path fill="none" stroke="midnightblue" d="M519.41,-67.48C536.06,-59.08 562.05,-45.97 583.51,-35.15"/>
<polygon fill="midnightblue" stroke="midnightblue" points="585.34,-38.15 592.69,-30.52 582.18,-31.9 585.34,-38.15"/>
</g>
<!-- Node11&#45;&gt;Node6 -->
<g id="edge18" class="edge">
<title>Node11&#45;&gt;Node6</title>
<path fill="none" stroke="midnightblue" d="M502.5,-190.3C502.5,-170.85 502.5,-123.49 502.5,-96.9"/>
<polygon fill="midnightblue" stroke="midnightblue" points="506,-96.62 502.5,-86.62 499,-96.62 506,-96.62"/>
</g>
<!-- Node12 -->
<g id="node12" class="node">
<title>Node12</title>
<g id="a_node12"><a xlink:title=" ">
<polygon fill="none" stroke="#bfbfbf" points="432.5,-129 432.5,-148 474.5,-148 474.5,-129 432.5,-129"/>
<text text-anchor="middle" x="453.5" y="-136" font-family="Helvetica,sans-Serif" font-size="10.00">array</text>
</a>
</g>
</g>
<!-- Node11&#45;&gt;Node12 -->
<g id="edge12" class="edge">
<title>Node11&#45;&gt;Node12</title>
<path fill="none" stroke="midnightblue" d="M495.48,-190.48C488.06,-181.46 476.17,-167.02 466.93,-155.81"/>
<polygon fill="midnightblue" stroke="midnightblue" points="469.57,-153.5 460.51,-148.01 464.16,-157.95 469.57,-153.5"/>
</g>
<!-- Node13 -->
<g id="node13" class="node">
<title>Node13</title>
<g id="a_node13"><a xlink:href="atom_8h.html" target="_top" xlink:title=" ">
<polygon fill="none" stroke="black" points="531,-129 531,-148 626,-148 626,-129 531,-129"/>
<text text-anchor="middle" x="578.5" y="-136" font-family="Helvetica,sans-Serif" font-size="10.00">occ/core/atom.h</text>
</a>
</g>
</g>
<!-- Node11&#45;&gt;Node13 -->
<g id="edge13" class="edge">
<title>Node11&#45;&gt;Node13</title>
<path fill="none" stroke="midnightblue" d="M513.39,-190.48C525.47,-181.02 545.17,-165.6 559.74,-154.19"/>
<polygon fill="midnightblue" stroke="midnightblue" points="561.91,-156.93 567.63,-148.01 557.6,-151.42 561.91,-156.93"/>
</g>
<!-- Node14 -->
<g id="node14" class="node">
<title>Node14</title>
<g id="a_node14"><a xlink:href="element_8h.html" target="_top" xlink:title=" ">
<polygon fill="none" stroke="black" points="682.5,-129 682.5,-148 792.5,-148 792.5,-129 682.5,-129"/>
<text text-anchor="middle" x="737.5" y="-136" font-family="Helvetica,sans-Serif" font-size="10.00">occ/core/element.h</text>
</a>
</g>
</g>
<!-- Node11&#45;&gt;Node14 -->
<g id="edge15" class="edge">
<title>Node11&#45;&gt;Node14</title>
<path fill="none" stroke="midnightblue" d="M536.17,-190.48C577.7,-179.96 648.39,-162.06 694,-150.51"/>
<polygon fill="midnightblue" stroke="midnightblue" points="695.06,-153.86 703.89,-148.01 693.34,-147.07 695.06,-153.86"/>
</g>
<!-- Node17 -->
<g id="node17" class="node">
<title>Node17</title>
<g id="a_node17"><a xlink:title=" ">
<polygon fill="none" stroke="#bfbfbf" points="373,-129 373,-148 414,-148 414,-129 373,-129"/>
<text text-anchor="middle" x="393.5" y="-136" font-family="Helvetica,sans-Serif" font-size="10.00">tuple</text>
</a>
</g>
</g>
<!-- Node11&#45;&gt;Node17 -->
<g id="edge19" class="edge">
<title>Node11&#45;&gt;Node17</title>
<path fill="none" stroke="midnightblue" d="M486.88,-190.48C468.91,-180.67 439.18,-164.43 418.09,-152.92"/>
<polygon fill="midnightblue" stroke="midnightblue" points="419.54,-149.73 409.09,-148.01 416.19,-155.87 419.54,-149.73"/>
</g>
<!-- Node13&#45;&gt;Node6 -->
<g id="edge14" class="edge">
<title>Node13&#45;&gt;Node6</title>
<path fill="none" stroke="midnightblue" d="M567.61,-128.98C555.53,-119.52 535.83,-104.1 521.26,-92.69"/>
<polygon fill="midnightblue" stroke="midnightblue" points="523.4,-89.92 513.37,-86.51 519.09,-95.43 523.4,-89.92"/>
</g>
<!-- Node15 -->
<g id="node15" class="node">
<title>Node15</title>
<g id="a_node15"><a xlink:title=" ">
<polygon fill="none" stroke="#bfbfbf" points="743.5,-67.5 743.5,-86.5 787.5,-86.5 787.5,-67.5 743.5,-67.5"/>
<text text-anchor="middle" x="765.5" y="-74.5" font-family="Helvetica,sans-Serif" font-size="10.00">string</text>
</a>
</g>
</g>
<!-- Node14&#45;&gt;Node15 -->
<g id="edge16" class="edge">
<title>Node14&#45;&gt;Node15</title>
<path fill="none" stroke="midnightblue" d="M741.51,-128.98C745.59,-120.32 752.02,-106.65 757.2,-95.65"/>
<polygon fill="midnightblue" stroke="midnightblue" points="760.4,-97.05 761.5,-86.51 754.07,-94.07 760.4,-97.05"/>
</g>
<!-- Node14&#45;&gt;Node16 -->
<g id="edge17" class="edge">
<title>Node14&#45;&gt;Node16</title>
<path fill="none" stroke="midnightblue" d="M754.84,-128.98C775.05,-119.03 808.69,-102.49 832.14,-90.96"/>
<polygon fill="midnightblue" stroke="midnightblue" points="833.77,-94.06 841.2,-86.51 830.68,-87.78 833.77,-94.06"/>
</g>
<!-- Node18&#45;&gt;Node4 -->
<g id="edge21" class="edge">
<title>Node18&#45;&gt;Node4</title>
<path fill="none" stroke="midnightblue" d="M281.21,-190.48C280.93,-182.08 280.49,-168.98 280.13,-158.16"/>
<polygon fill="midnightblue" stroke="midnightblue" points="283.62,-157.89 279.79,-148.01 276.62,-158.12 283.62,-157.89"/>
</g>
<!-- Node19&#45;&gt;Node2 -->
<g id="edge23" class="edge">
<title>Node19&#45;&gt;Node2</title>
<path fill="none" stroke="midnightblue" d="M738.17,-190.48C774.7,-181.49 833.13,-167.13 878.66,-155.93"/>
<polygon fill="midnightblue" stroke="midnightblue" points="879.59,-159.31 888.47,-153.52 877.92,-152.51 879.59,-159.31"/>
</g>
<!-- Node19&#45;&gt;Node6 -->
<g id="edge25" class="edge">
<title>Node19&#45;&gt;Node6</title>
<path fill="none" stroke="midnightblue" d="M697.92,-190.4C687.36,-174.79 662.95,-141.69 634.5,-123 610.29,-107.1 579.89,-96.24 554.36,-89.17"/>
<polygon fill="midnightblue" stroke="midnightblue" points="555.04,-85.73 544.48,-86.55 553.25,-92.5 555.04,-85.73"/>
</g>
<!-- Node19&#45;&gt;Node13 -->
<g id="edge24" class="edge">
<title>Node19&#45;&gt;Node13</title>
<path fill="none" stroke="midnightblue" d="M685.59,-190.48C664.61,-180.49 629.65,-163.85 605.41,-152.31"/>
<polygon fill="midnightblue" stroke="midnightblue" points="606.91,-149.15 596.38,-148.01 603.9,-155.47 606.91,-149.15"/>
</g>
<!-- Node19&#45;&gt;Node15 -->
<g id="edge26" class="edge">
<title>Node19&#45;&gt;Node15</title>
<path fill="none" stroke="midnightblue" d="M746.57,-190.49C766.9,-184.07 789.32,-172.99 801.5,-154 813.98,-134.53 797.24,-110.06 782.65,-94.23"/>
<polygon fill="midnightblue" stroke="midnightblue" points="784.89,-91.51 775.39,-86.81 779.89,-96.41 784.89,-91.51"/>
</g>
<!-- Node19&#45;&gt;Node16 -->
<g id="edge27" class="edge">
<title>Node19&#45;&gt;Node16</title>
<path fill="none" stroke="midnightblue" d="M744.83,-190.45C768.62,-183.81 797.8,-172.51 818.5,-154 835.82,-138.51 846.88,-113.71 852.88,-96.68"/>
<polygon fill="midnightblue" stroke="midnightblue" points="856.33,-97.38 856.11,-86.78 849.68,-95.21 856.33,-97.38"/>
</g>
</g>
</svg>
