<?xml version="1.0" encoding="UTF-8" standalone="no"?>
<!DOCTYPE svg PUBLIC "-//W3C//DTD SVG 1.1//EN"
 "http://www.w3.org/Graphics/SVG/1.1/DTD/svg11.dtd">
<!-- Generated by graphviz version 2.43.0 (0)
 -->
<!-- Title: /home/runner/work/occ/occ/include/occ/core/kdtree.h Pages: 1 -->
<svg width="340pt" height="159pt"
 viewBox="0.00 0.00 340.00 159.00" xmlns="http://www.w3.org/2000/svg" xmlns:xlink="http://www.w3.org/1999/xlink">
<g id="graph0" class="graph" transform="scale(1 1) rotate(0) translate(4 155)">
<title>/home/runner/work/occ/occ/include/occ/core/kdtree.h</title>
<!-- Node1 -->
<g id="Node000001" class="node">
<title>Node1</title>
<g id="a_Node000001"><a xlink:title=" ">
<polygon fill="#999999" stroke="#666666" points="219.5,-151 91.5,-151 91.5,-110 219.5,-110 219.5,-151"/>
<text text-anchor="start" x="99.5" y="-139" font-family="Helvetica,sans-Serif" font-size="10.00">/home/runner/work/occ</text>
<text text-anchor="start" x="99.5" y="-128" font-family="Helvetica,sans-Serif" font-size="10.00">/occ/include/occ/core</text>
<text text-anchor="middle" x="155.5" y="-117" font-family="Helvetica,sans-Serif" font-size="10.00">/kdtree.h</text>
</a>
</g>
</g>
<!-- Node2 -->
<g id="Node000002" class="node">
<title>Node2</title>
<g id="a_Node000002"><a xlink:title=" ">
<polygon fill="#e0e0e0" stroke="#999999" points="149,-74 0,-74 0,-55 149,-55 149,-74"/>
<text text-anchor="middle" x="74.5" y="-62" font-family="Helvetica,sans-Serif" font-size="10.00">occ/3rdparty/nanoflann.hpp</text>
</a>
</g>
</g>
<!-- Node1&#45;&gt;Node2 -->
<g id="edge1_Node000001_Node000002" class="edge">
<title>Node1&#45;&gt;Node2</title>
<g id="a_edge1_Node000001_Node000002"><a xlink:title=" ">
<path fill="none" stroke="#63b8ff" d="M130.76,-109.95C118.86,-100.55 104.82,-89.46 93.74,-80.7"/>
<polygon fill="#63b8ff" stroke="#63b8ff" points="95.6,-77.71 85.59,-74.26 91.26,-83.21 95.6,-77.71"/>
</a>
</g>
</g>
<!-- Node3 -->
<g id="Node000003" class="node">
<title>Node3</title>
<g id="a_Node000003"><a xlink:href="linear__algebra_8h.html" target="_top" xlink:title=" ">
<polygon fill="white" stroke="#666666" points="306,-74 167,-74 167,-55 306,-55 306,-74"/>
<text text-anchor="middle" x="236.5" y="-62" font-family="Helvetica,sans-Serif" font-size="10.00">occ/core/linear_algebra.h</text>
</a>
</g>
</g>
<!-- Node1&#45;&gt;Node3 -->
<g id="edge2_Node000001_Node000003" class="edge">
<title>Node1&#45;&gt;Node3</title>
<g id="a_edge2_Node000001_Node000003"><a xlink:title=" ">
<path fill="none" stroke="#63b8ff" d="M180.24,-109.95C192.14,-100.55 206.18,-89.46 217.26,-80.7"/>
<polygon fill="#63b8ff" stroke="#63b8ff" points="219.74,-83.21 225.41,-74.26 215.4,-77.71 219.74,-83.21"/>
</a>
</g>
</g>
<!-- Node4 -->
<g id="Node000004" class="node">
<title>Node4</title>
<g id="a_Node000004"><a xlink:title=" ">
<polygon fill="#e0e0e0" stroke="#999999" points="221,-19 152,-19 152,0 221,0 221,-19"/>
<text text-anchor="middle" x="186.5" y="-7" font-family="Helvetica,sans-Serif" font-size="10.00">Eigen/Core</text>
</a>
</g>
</g>
<!-- Node3&#45;&gt;Node4 -->
<g id="edge3_Node000003_Node000004" class="edge">
<title>Node3&#45;&gt;Node4</title>
<g id="a_edge3_Node000003_Node000004"><a xlink:title=" ">
<path fill="none" stroke="#63b8ff" d="M228.24,-54.75C221.04,-47.11 210.39,-35.82 201.65,-26.56"/>
<polygon fill="#63b8ff" stroke="#63b8ff" points="204.01,-23.96 194.6,-19.09 198.92,-28.76 204.01,-23.96"/>
</a>
</g>
</g>
<!-- Node5 -->
<g id="Node000005" class="node">
<title>Node5</title>
<g id="a_Node000005"><a xlink:title=" ">
<polygon fill="#e0e0e0" stroke="#999999" points="332,-19 239,-19 239,0 332,0 332,-19"/>
<text text-anchor="middle" x="285.5" y="-7" font-family="Helvetica,sans-Serif" font-size="10.00">Eigen/StdVector</text>
</a>
</g>
</g>
<!-- Node3&#45;&gt;Node5 -->
<g id="edge4_Node000003_Node000005" class="edge">
<title>Node3&#45;&gt;Node5</title>
<g id="a_edge4_Node000003_Node000005"><a xlink:title=" ">
<path fill="none" stroke="#63b8ff" d="M244.59,-54.75C251.66,-47.11 262.09,-35.82 270.65,-26.56"/>
<polygon fill="#63b8ff" stroke="#63b8ff" points="273.34,-28.81 277.56,-19.09 268.2,-24.06 273.34,-28.81"/>
</a>
</g>
</g>
</g>
</svg>
