<?xml version="1.0" encoding="UTF-8" standalone="no"?>
<!DOCTYPE svg PUBLIC "-//W3C//DTD SVG 1.1//EN"
 "http://www.w3.org/Graphics/SVG/1.1/DTD/svg11.dtd">
<!-- Generated by graphviz version 2.43.0 (0)
 -->
<!-- Title: /home/runner/work/occ/occ/include/occ/geometry/linear_hashed_marching_cubes.h Pages: 1 -->
<svg width="1645pt" height="251pt"
 viewBox="0.00 0.00 1645.00 251.00" xmlns="http://www.w3.org/2000/svg" xmlns:xlink="http://www.w3.org/1999/xlink">
<g id="graph0" class="graph" transform="scale(1 1) rotate(0) translate(4 247)">
<title>/home/runner/work/occ/occ/include/occ/geometry/linear_hashed_marching_cubes.h</title>
<!-- Node1 -->
<g id="node1" class="node">
<title>Node1</title>
<g id="a_node1"><a xlink:title=" ">
<polygon fill="#bfbfbf" stroke="black" points="413.5,-190.5 413.5,-242.5 557.5,-242.5 557.5,-190.5 413.5,-190.5"/>
<text text-anchor="start" x="421.5" y="-230.5" font-family="Helvetica,sans-Serif" font-size="10.00">/home/runner/work/occ</text>
<text text-anchor="start" x="421.5" y="-219.5" font-family="Helvetica,sans-Serif" font-size="10.00">/occ/include/occ/geometry</text>
<text text-anchor="start" x="421.5" y="-208.5" font-family="Helvetica,sans-Serif" font-size="10.00">/linear_hashed_marching</text>
<text text-anchor="middle" x="485.5" y="-197.5" font-family="Helvetica,sans-Serif" font-size="10.00">_cubes.h</text>
</a>
</g>
</g>
<!-- Node2 -->
<g id="node2" class="node">
<title>Node2</title>
<g id="a_node2"><a xlink:title=" ">
<polygon fill="none" stroke="#bfbfbf" points="0,-62 0,-81 143,-81 143,-62 0,-62"/>
<text text-anchor="middle" x="71.5" y="-69" font-family="Helvetica,sans-Serif" font-size="10.00">ankerl/unordered_dense.h</text>
</a>
</g>
</g>
<!-- Node1&#45;&gt;Node2 -->
<g id="edge1" class="edge">
<title>Node1&#45;&gt;Node2</title>
<path fill="none" stroke="midnightblue" d="M413.07,-192.55C377.8,-181.22 334.84,-167.18 296.5,-154 227.61,-130.32 147.53,-100.85 103.92,-84.62"/>
<polygon fill="midnightblue" stroke="midnightblue" points="105,-81.29 94.41,-81.08 102.56,-87.85 105,-81.29"/>
</g>
<!-- Node3 -->
<g id="node3" class="node">
<title>Node3</title>
<g id="a_node3"><a xlink:title=" ">
<polygon fill="none" stroke="#bfbfbf" points="161.5,-62 161.5,-81 209.5,-81 209.5,-62 161.5,-62"/>
<text text-anchor="middle" x="185.5" y="-69" font-family="Helvetica,sans-Serif" font-size="10.00">mutex</text>
</a>
</g>
</g>
<!-- Node1&#45;&gt;Node3 -->
<g id="edge2" class="edge">
<title>Node1&#45;&gt;Node3</title>
<path fill="none" stroke="midnightblue" d="M432.9,-190.43C368.62,-159.79 262.31,-109.11 212.64,-85.44"/>
<polygon fill="midnightblue" stroke="midnightblue" points="214.02,-82.22 203.49,-81.08 211.01,-88.54 214.02,-82.22"/>
</g>
<!-- Node4 -->
<g id="node4" class="node">
<title>Node4</title>
<g id="a_node4"><a xlink:title=" ">
<polygon fill="none" stroke="#bfbfbf" points="228,-62 228,-81 399,-81 399,-62 228,-62"/>
<text text-anchor="middle" x="313.5" y="-69" font-family="Helvetica,sans-Serif" font-size="10.00">occ/3rdparty/concurrentqueue.h</text>
</a>
</g>
</g>
<!-- Node1&#45;&gt;Node4 -->
<g id="edge3" class="edge">
<title>Node1&#45;&gt;Node4</title>
<path fill="none" stroke="midnightblue" d="M455.15,-190.26C419.33,-160.49 360.96,-111.96 331.59,-87.54"/>
<polygon fill="midnightblue" stroke="midnightblue" points="333.72,-84.76 323.79,-81.05 329.24,-90.14 333.72,-84.76"/>
</g>
<!-- Node5 -->
<g id="node5" class="node">
<title>Node5</title>
<g id="a_node5"><a xlink:href="timings_8h.html" target="_top" xlink:title=" ">
<polygon fill="none" stroke="black" points="1047.5,-62 1047.5,-81 1153.5,-81 1153.5,-62 1047.5,-62"/>
<text text-anchor="middle" x="1100.5" y="-69" font-family="Helvetica,sans-Serif" font-size="10.00">occ/core/timings.h</text>
</a>
</g>
</g>
<!-- Node1&#45;&gt;Node5 -->
<g id="edge4" class="edge">
<title>Node1&#45;&gt;Node5</title>
<path fill="none" stroke="midnightblue" d="M557.55,-198.75C685.07,-169.1 947.09,-108.17 1053.77,-83.37"/>
<polygon fill="midnightblue" stroke="midnightblue" points="1054.65,-86.76 1063.59,-81.08 1053.06,-79.94 1054.65,-86.76"/>
</g>
<!-- Node8 -->
<g id="node8" class="node">
<title>Node8</title>
<g id="a_node8"><a xlink:href="linear__hashed__octree_8h.html" target="_top" xlink:title=" ">
<polygon fill="none" stroke="black" points="486.5,-123.5 486.5,-153.5 600.5,-153.5 600.5,-123.5 486.5,-123.5"/>
<text text-anchor="start" x="494.5" y="-141.5" font-family="Helvetica,sans-Serif" font-size="10.00">occ/geometry/linear</text>
<text text-anchor="middle" x="543.5" y="-130.5" font-family="Helvetica,sans-Serif" font-size="10.00">_hashed_octree.h</text>
</a>
</g>
</g>
<!-- Node1&#45;&gt;Node8 -->
<g id="edge7" class="edge">
<title>Node1&#45;&gt;Node8</title>
<path fill="none" stroke="midnightblue" d="M504.81,-190.19C511.81,-181.03 519.65,-170.76 526.43,-161.86"/>
<polygon fill="midnightblue" stroke="midnightblue" points="529.27,-163.92 532.55,-153.85 523.7,-159.67 529.27,-163.92"/>
</g>
<!-- Node22 -->
<g id="node22" class="node">
<title>Node22</title>
<g id="a_node22"><a xlink:href="marching__cubes_8h.html" target="_top" xlink:title=" ">
<polygon fill="none" stroke="black" points="1162.5,-123.5 1162.5,-153.5 1294.5,-153.5 1294.5,-123.5 1162.5,-123.5"/>
<text text-anchor="start" x="1170.5" y="-141.5" font-family="Helvetica,sans-Serif" font-size="10.00">occ/geometry/marching</text>
<text text-anchor="middle" x="1228.5" y="-130.5" font-family="Helvetica,sans-Serif" font-size="10.00">_cubes.h</text>
</a>
</g>
</g>
<!-- Node1&#45;&gt;Node22 -->
<g id="edge26" class="edge">
<title>Node1&#45;&gt;Node22</title>
<path fill="none" stroke="midnightblue" d="M557.76,-208.11C698.51,-193.71 1008.25,-162.03 1152.19,-147.31"/>
<polygon fill="midnightblue" stroke="midnightblue" points="1152.67,-150.78 1162.26,-146.28 1151.96,-143.81 1152.67,-150.78"/>
</g>
<!-- Node6 -->
<g id="node6" class="node">
<title>Node6</title>
<g id="a_node6"><a xlink:title=" ">
<polygon fill="none" stroke="#bfbfbf" points="1140.5,-0.5 1140.5,-19.5 1190.5,-19.5 1190.5,-0.5 1140.5,-0.5"/>
<text text-anchor="middle" x="1165.5" y="-7.5" font-family="Helvetica,sans-Serif" font-size="10.00">chrono</text>
</a>
</g>
</g>
<!-- Node5&#45;&gt;Node6 -->
<g id="edge5" class="edge">
<title>Node5&#45;&gt;Node6</title>
<path fill="none" stroke="midnightblue" d="M1109.81,-61.98C1119.95,-52.7 1136.36,-37.67 1148.75,-26.33"/>
<polygon fill="midnightblue" stroke="midnightblue" points="1151.19,-28.84 1156.2,-19.51 1146.46,-23.68 1151.19,-28.84"/>
</g>
<!-- Node7 -->
<g id="node7" class="node">
<title>Node7</title>
<g id="a_node7"><a xlink:title=" ">
<polygon fill="none" stroke="#bfbfbf" points="1078.5,-0.5 1078.5,-19.5 1122.5,-19.5 1122.5,-0.5 1078.5,-0.5"/>
<text text-anchor="middle" x="1100.5" y="-7.5" font-family="Helvetica,sans-Serif" font-size="10.00">string</text>
</a>
</g>
</g>
<!-- Node5&#45;&gt;Node7 -->
<g id="edge6" class="edge">
<title>Node5&#45;&gt;Node7</title>
<path fill="none" stroke="midnightblue" d="M1100.5,-61.98C1100.5,-53.58 1100.5,-40.48 1100.5,-29.66"/>
<polygon fill="midnightblue" stroke="midnightblue" points="1104,-29.51 1100.5,-19.51 1097,-29.51 1104,-29.51"/>
</g>
<!-- Node8&#45;&gt;Node2 -->
<g id="edge8" class="edge">
<title>Node8&#45;&gt;Node2</title>
<path fill="none" stroke="midnightblue" d="M486.39,-131.01C410.13,-122.13 270.88,-105.23 152.5,-87 144.18,-85.72 135.39,-84.26 126.8,-82.77"/>
<polygon fill="midnightblue" stroke="midnightblue" points="127.3,-79.3 116.85,-81.02 126.09,-86.2 127.3,-79.3"/>
</g>
<!-- Node8&#45;&gt;Node3 -->
<g id="edge10" class="edge">
<title>Node8&#45;&gt;Node3</title>
<path fill="none" stroke="midnightblue" d="M486.45,-133.15C420.78,-127.11 310.17,-113.77 218.5,-87 216.35,-86.37 214.16,-85.64 211.98,-84.84"/>
<polygon fill="midnightblue" stroke="midnightblue" points="213.23,-81.57 202.65,-81.04 210.6,-88.05 213.23,-81.57"/>
</g>
<!-- Node8&#45;&gt;Node4 -->
<g id="edge11" class="edge">
<title>Node8&#45;&gt;Node4</title>
<path fill="none" stroke="midnightblue" d="M493.88,-123.48C451.93,-111.62 392.61,-94.86 353.62,-83.84"/>
<polygon fill="midnightblue" stroke="midnightblue" points="354.25,-80.38 343.68,-81.03 352.35,-87.12 354.25,-80.38"/>
</g>
<!-- Node9 -->
<g id="node9" class="node">
<title>Node9</title>
<g id="a_node9"><a xlink:title=" ">
<polygon fill="none" stroke="#bfbfbf" points="520,-62 520,-81 567,-81 567,-62 520,-62"/>
<text text-anchor="middle" x="543.5" y="-69" font-family="Helvetica,sans-Serif" font-size="10.00">deque</text>
</a>
</g>
</g>
<!-- Node8&#45;&gt;Node9 -->
<g id="edge9" class="edge">
<title>Node8&#45;&gt;Node9</title>
<path fill="none" stroke="midnightblue" d="M543.5,-123.4C543.5,-114.06 543.5,-101.71 543.5,-91.52"/>
<polygon fill="midnightblue" stroke="midnightblue" points="547,-91.19 543.5,-81.19 540,-91.19 547,-91.19"/>
</g>
<!-- Node10 -->
<g id="node10" class="node">
<title>Node10</title>
<g id="a_node10"><a xlink:href="log_8h.html" target="_top" xlink:title=" ">
<polygon fill="none" stroke="black" points="417.5,-62 417.5,-81 501.5,-81 501.5,-62 417.5,-62"/>
<text text-anchor="middle" x="459.5" y="-69" font-family="Helvetica,sans-Serif" font-size="10.00">occ/core/log.h</text>
</a>
</g>
</g>
<!-- Node8&#45;&gt;Node10 -->
<g id="edge12" class="edge">
<title>Node8&#45;&gt;Node10</title>
<path fill="none" stroke="midnightblue" d="M525.27,-123.4C511.53,-112.76 492.72,-98.2 478.73,-87.38"/>
<polygon fill="midnightblue" stroke="midnightblue" points="480.79,-84.55 470.74,-81.19 476.5,-90.08 480.79,-84.55"/>
</g>
<!-- Node12 -->
<g id="node12" class="node">
<title>Node12</title>
<g id="a_node12"><a xlink:href="parallel_8h.html" target="_top" xlink:title=" ">
<polygon fill="none" stroke="black" points="623.5,-62 623.5,-81 729.5,-81 729.5,-62 623.5,-62"/>
<text text-anchor="middle" x="676.5" y="-69" font-family="Helvetica,sans-Serif" font-size="10.00">occ/core/parallel.h</text>
</a>
</g>
</g>
<!-- Node8&#45;&gt;Node12 -->
<g id="edge14" class="edge">
<title>Node8&#45;&gt;Node12</title>
<path fill="none" stroke="midnightblue" d="M572.36,-123.4C595.39,-112.14 627.39,-96.5 649.82,-85.54"/>
<polygon fill="midnightblue" stroke="midnightblue" points="651.65,-88.54 659.09,-81.01 648.57,-82.25 651.65,-88.54"/>
</g>
<!-- Node13 -->
<g id="node13" class="node">
<title>Node13</title>
<g id="a_node13"><a xlink:title=" ">
<polygon fill="none" stroke="#bfbfbf" points="589.5,-0.5 589.5,-19.5 637.5,-19.5 637.5,-0.5 589.5,-0.5"/>
<text text-anchor="middle" x="613.5" y="-7.5" font-family="Helvetica,sans-Serif" font-size="10.00">thread</text>
</a>
</g>
</g>
<!-- Node8&#45;&gt;Node13 -->
<g id="edge24" class="edge">
<title>Node8&#45;&gt;Node13</title>
<path fill="none" stroke="midnightblue" d="M553.14,-123.15C559.71,-113.17 568.45,-99.47 575.5,-87 586.47,-67.59 597.73,-44.61 605.11,-29.04"/>
<polygon fill="midnightblue" stroke="midnightblue" points="608.47,-30.12 609.56,-19.58 602.14,-27.14 608.47,-30.12"/>
</g>
<!-- Node14 -->
<g id="node14" class="node">
<title>Node14</title>
<g id="a_node14"><a xlink:title=" ">
<polygon fill="none" stroke="#bfbfbf" points="674,-0.5 674,-19.5 721,-19.5 721,-0.5 674,-0.5"/>
<text text-anchor="middle" x="697.5" y="-7.5" font-family="Helvetica,sans-Serif" font-size="10.00">vector</text>
</a>
</g>
</g>
<!-- Node8&#45;&gt;Node14 -->
<g id="edge25" class="edge">
<title>Node8&#45;&gt;Node14</title>
<path fill="none" stroke="midnightblue" d="M600.89,-130.42C652.16,-122.78 721.7,-108.71 738.5,-87 753.33,-67.85 733.11,-42.6 716.17,-26.58"/>
<polygon fill="midnightblue" stroke="midnightblue" points="718.08,-23.58 708.29,-19.52 713.41,-28.8 718.08,-23.58"/>
</g>
<!-- Node15 -->
<g id="node15" class="node">
<title>Node15</title>
<g id="a_node15"><a xlink:href="morton_8h.html" target="_top" xlink:title=" ">
<polygon fill="none" stroke="black" points="898,-62 898,-81 1029,-81 1029,-62 898,-62"/>
<text text-anchor="middle" x="963.5" y="-69" font-family="Helvetica,sans-Serif" font-size="10.00">occ/geometry/morton.h</text>
</a>
</g>
</g>
<!-- Node8&#45;&gt;Node15 -->
<g id="edge17" class="edge">
<title>Node8&#45;&gt;Node15</title>
<path fill="none" stroke="midnightblue" d="M600.58,-128.67C678.23,-116.65 816.79,-95.2 898.4,-82.58"/>
<polygon fill="midnightblue" stroke="midnightblue" points="899.2,-85.99 908.55,-81 898.13,-79.08 899.2,-85.99"/>
</g>
<!-- Node21 -->
<g id="node21" class="node">
<title>Node21</title>
<g id="a_node21"><a xlink:title=" ">
<polygon fill="none" stroke="#bfbfbf" points="785.5,-62 785.5,-81 841.5,-81 841.5,-62 785.5,-62"/>
<text text-anchor="middle" x="813.5" y="-69" font-family="Helvetica,sans-Serif" font-size="10.00">optional</text>
</a>
</g>
</g>
<!-- Node8&#45;&gt;Node21 -->
<g id="edge23" class="edge">
<title>Node8&#45;&gt;Node21</title>
<path fill="none" stroke="midnightblue" d="M600.64,-126.73C647.03,-117.54 713.95,-103.25 771.5,-87 774.45,-86.17 777.49,-85.24 780.53,-84.28"/>
<polygon fill="midnightblue" stroke="midnightblue" points="781.71,-87.58 790.1,-81.11 779.51,-80.93 781.71,-87.58"/>
</g>
<!-- Node11 -->
<g id="node11" class="node">
<title>Node11</title>
<g id="a_node11"><a xlink:title=" ">
<polygon fill="none" stroke="#bfbfbf" points="413,-0.5 413,-19.5 506,-19.5 506,-0.5 413,-0.5"/>
<text text-anchor="middle" x="459.5" y="-7.5" font-family="Helvetica,sans-Serif" font-size="10.00">spdlog/spdlog.h</text>
</a>
</g>
</g>
<!-- Node10&#45;&gt;Node11 -->
<g id="edge13" class="edge">
<title>Node10&#45;&gt;Node11</title>
<path fill="none" stroke="midnightblue" d="M459.5,-61.98C459.5,-53.58 459.5,-40.48 459.5,-29.66"/>
<polygon fill="midnightblue" stroke="midnightblue" points="463,-29.51 459.5,-19.51 456,-29.51 463,-29.51"/>
</g>
<!-- Node12&#45;&gt;Node13 -->
<g id="edge15" class="edge">
<title>Node12&#45;&gt;Node13</title>
<path fill="none" stroke="midnightblue" d="M667.47,-61.98C657.74,-52.78 642.04,-37.96 630.08,-26.66"/>
<polygon fill="midnightblue" stroke="midnightblue" points="632.18,-23.83 622.51,-19.51 627.38,-28.92 632.18,-23.83"/>
</g>
<!-- Node12&#45;&gt;Node14 -->
<g id="edge16" class="edge">
<title>Node12&#45;&gt;Node14</title>
<path fill="none" stroke="midnightblue" d="M679.51,-61.98C682.53,-53.4 687.29,-39.93 691.15,-28.98"/>
<polygon fill="midnightblue" stroke="midnightblue" points="694.47,-30.1 694.5,-19.51 687.87,-27.77 694.47,-30.1"/>
</g>
<!-- Node16 -->
<g id="node16" class="node">
<title>Node16</title>
<g id="a_node16"><a xlink:title=" ">
<polygon fill="none" stroke="#bfbfbf" points="862.5,-0.5 862.5,-19.5 926.5,-19.5 926.5,-0.5 862.5,-0.5"/>
<text text-anchor="middle" x="894.5" y="-7.5" font-family="Helvetica,sans-Serif" font-size="10.00">algorithm</text>
</a>
</g>
</g>
<!-- Node15&#45;&gt;Node16 -->
<g id="edge18" class="edge">
<title>Node15&#45;&gt;Node16</title>
<path fill="none" stroke="midnightblue" d="M953.61,-61.98C942.85,-52.7 925.43,-37.67 912.28,-26.33"/>
<polygon fill="midnightblue" stroke="midnightblue" points="914.23,-23.39 904.37,-19.51 909.66,-28.69 914.23,-23.39"/>
</g>
<!-- Node17 -->
<g id="node17" class="node">
<title>Node17</title>
<g id="a_node17"><a xlink:title=" ">
<polygon fill="none" stroke="#bfbfbf" points="1208.5,-0.5 1208.5,-19.5 1250.5,-19.5 1250.5,-0.5 1208.5,-0.5"/>
<text text-anchor="middle" x="1229.5" y="-7.5" font-family="Helvetica,sans-Serif" font-size="10.00">array</text>
</a>
</g>
</g>
<!-- Node15&#45;&gt;Node17 -->
<g id="edge19" class="edge">
<title>Node15&#45;&gt;Node17</title>
<path fill="none" stroke="midnightblue" d="M1005.33,-61.97C1058.9,-50.98 1149.75,-32.11 1198.28,-20.12"/>
<polygon fill="midnightblue" stroke="midnightblue" points="1199.42,-23.45 1208.25,-17.6 1197.7,-16.66 1199.42,-23.45"/>
</g>
<!-- Node18 -->
<g id="node18" class="node">
<title>Node18</title>
<g id="a_node18"><a xlink:title=" ">
<polygon fill="none" stroke="#bfbfbf" points="945,-0.5 945,-19.5 992,-19.5 992,-0.5 945,-0.5"/>
<text text-anchor="middle" x="968.5" y="-7.5" font-family="Helvetica,sans-Serif" font-size="10.00">cmath</text>
</a>
</g>
</g>
<!-- Node15&#45;&gt;Node18 -->
<g id="edge20" class="edge">
<title>Node15&#45;&gt;Node18</title>
<path fill="none" stroke="midnightblue" d="M964.22,-61.98C964.92,-53.58 966.02,-40.48 966.93,-29.66"/>
<polygon fill="midnightblue" stroke="midnightblue" points="970.44,-29.77 967.78,-19.51 963.46,-29.18 970.44,-29.77"/>
</g>
<!-- Node19 -->
<g id="node19" class="node">
<title>Node19</title>
<g id="a_node19"><a xlink:title=" ">
<polygon fill="none" stroke="#bfbfbf" points="1010.5,-0.5 1010.5,-19.5 1060.5,-19.5 1060.5,-0.5 1010.5,-0.5"/>
<text text-anchor="middle" x="1035.5" y="-7.5" font-family="Helvetica,sans-Serif" font-size="10.00">cstdint</text>
</a>
</g>
</g>
<!-- Node15&#45;&gt;Node19 -->
<g id="edge21" class="edge">
<title>Node15&#45;&gt;Node19</title>
<path fill="none" stroke="midnightblue" d="M973.82,-61.98C985.15,-52.61 1003.57,-37.38 1017.34,-26.01"/>
<polygon fill="midnightblue" stroke="midnightblue" points="1019.72,-28.58 1025.2,-19.51 1015.27,-23.18 1019.72,-28.58"/>
</g>
<!-- Node20 -->
<g id="node20" class="node">
<title>Node20</title>
<g id="a_node20"><a xlink:href="macros_8h.html" target="_top" xlink:title=" ">
<polygon fill="none" stroke="black" points="739,-0.5 739,-19.5 844,-19.5 844,-0.5 739,-0.5"/>
<text text-anchor="middle" x="791.5" y="-7.5" font-family="Helvetica,sans-Serif" font-size="10.00">occ/core/macros.h</text>
</a>
</g>
</g>
<!-- Node15&#45;&gt;Node20 -->
<g id="edge22" class="edge">
<title>Node15&#45;&gt;Node20</title>
<path fill="none" stroke="midnightblue" d="M938.86,-61.98C909.22,-51.72 859.32,-34.46 825.9,-22.9"/>
<polygon fill="midnightblue" stroke="midnightblue" points="826.69,-19.47 816.1,-19.51 824.4,-26.09 826.69,-19.47"/>
</g>
<!-- Node22&#45;&gt;Node5 -->
<g id="edge32" class="edge">
<title>Node22&#45;&gt;Node5</title>
<path fill="none" stroke="midnightblue" d="M1200.73,-123.4C1178.56,-112.14 1147.76,-96.5 1126.17,-85.54"/>
<polygon fill="midnightblue" stroke="midnightblue" points="1127.75,-82.41 1117.25,-81.01 1124.58,-88.66 1127.75,-82.41"/>
</g>
<!-- Node22&#45;&gt;Node14 -->
<g id="edge39" class="edge">
<title>Node22&#45;&gt;Node14</title>
<path fill="none" stroke="midnightblue" d="M1162.37,-137.92C1091.69,-136.08 977.75,-126.42 888.5,-87 868.56,-78.19 869.78,-66.16 850.5,-56 845.1,-53.15 774.53,-32.87 731.14,-20.53"/>
<polygon fill="midnightblue" stroke="midnightblue" points="731.85,-17.09 721.28,-17.73 729.94,-23.83 731.85,-17.09"/>
</g>
<!-- Node22&#45;&gt;Node17 -->
<g id="edge27" class="edge">
<title>Node22&#45;&gt;Node17</title>
<path fill="none" stroke="midnightblue" d="M1294.54,-126.66C1347.27,-115.02 1408.11,-93.02 1380.5,-56 1348.79,-13.48 1316.94,-33.53 1260.8,-20.09"/>
<polygon fill="midnightblue" stroke="midnightblue" points="1261.37,-16.62 1250.8,-17.4 1259.55,-23.38 1261.37,-16.62"/>
</g>
<!-- Node23 -->
<g id="node23" class="node">
<title>Node23</title>
<g id="a_node23"><a xlink:href="linear__algebra_8h.html" target="_top" xlink:title=" ">
<polygon fill="none" stroke="black" points="1429,-62 1429,-81 1568,-81 1568,-62 1429,-62"/>
<text text-anchor="middle" x="1498.5" y="-69" font-family="Helvetica,sans-Serif" font-size="10.00">occ/core/linear_algebra.h</text>
</a>
</g>
</g>
<!-- Node22&#45;&gt;Node23 -->
<g id="edge28" class="edge">
<title>Node22&#45;&gt;Node23</title>
<path fill="none" stroke="midnightblue" d="M1286.75,-123.48C1336.62,-111.47 1407.41,-94.43 1453.15,-83.42"/>
<polygon fill="midnightblue" stroke="midnightblue" points="1454.17,-86.77 1463.07,-81.03 1452.53,-79.97 1454.17,-86.77"/>
</g>
<!-- Node27 -->
<g id="node27" class="node">
<title>Node27</title>
<g id="a_node27"><a xlink:href="index__cache_8h.html" target="_top" xlink:title=" ">
<polygon fill="none" stroke="black" points="1172,-56.5 1172,-86.5 1285,-86.5 1285,-56.5 1172,-56.5"/>
<text text-anchor="start" x="1180" y="-74.5" font-family="Helvetica,sans-Serif" font-size="10.00">occ/geometry/index</text>
<text text-anchor="middle" x="1228.5" y="-63.5" font-family="Helvetica,sans-Serif" font-size="10.00">_cache.h</text>
</a>
</g>
</g>
<!-- Node22&#45;&gt;Node27 -->
<g id="edge33" class="edge">
<title>Node22&#45;&gt;Node27</title>
<path fill="none" stroke="midnightblue" d="M1228.5,-123.4C1228.5,-115.64 1228.5,-105.81 1228.5,-96.86"/>
<polygon fill="midnightblue" stroke="midnightblue" points="1232,-96.58 1228.5,-86.58 1225,-96.58 1232,-96.58"/>
</g>
<!-- Node29 -->
<g id="node29" class="node">
<title>Node29</title>
<g id="a_node29"><a xlink:title=" ">
<polygon fill="none" stroke="#bfbfbf" points="1303,-62 1303,-81 1372,-81 1372,-62 1303,-62"/>
<text text-anchor="middle" x="1337.5" y="-69" font-family="Helvetica,sans-Serif" font-size="10.00">type_traits</text>
</a>
</g>
</g>
<!-- Node22&#45;&gt;Node29 -->
<g id="edge38" class="edge">
<title>Node22&#45;&gt;Node29</title>
<path fill="none" stroke="midnightblue" d="M1252.15,-123.4C1270.68,-112.34 1296.31,-97.06 1314.64,-86.13"/>
<polygon fill="midnightblue" stroke="midnightblue" points="1316.44,-89.13 1323.23,-81.01 1312.85,-83.12 1316.44,-89.13"/>
</g>
<!-- Node24 -->
<g id="node24" class="node">
<title>Node24</title>
<g id="a_node24"><a xlink:title=" ">
<polygon fill="none" stroke="#bfbfbf" points="1560,-0.5 1560,-19.5 1637,-19.5 1637,-0.5 1560,-0.5"/>
<text text-anchor="middle" x="1598.5" y="-7.5" font-family="Helvetica,sans-Serif" font-size="10.00">Eigen/Dense</text>
</a>
</g>
</g>
<!-- Node23&#45;&gt;Node24 -->
<g id="edge29" class="edge">
<title>Node23&#45;&gt;Node24</title>
<path fill="none" stroke="midnightblue" d="M1512.83,-61.98C1529.16,-52.25 1556.1,-36.23 1575.41,-24.74"/>
<polygon fill="midnightblue" stroke="midnightblue" points="1577.39,-27.63 1584.2,-19.51 1573.82,-21.61 1577.39,-27.63"/>
</g>
<!-- Node25 -->
<g id="node25" class="node">
<title>Node25</title>
<g id="a_node25"><a xlink:title=" ">
<polygon fill="none" stroke="#bfbfbf" points="1344,-0.5 1344,-19.5 1437,-19.5 1437,-0.5 1344,-0.5"/>
<text text-anchor="middle" x="1390.5" y="-7.5" font-family="Helvetica,sans-Serif" font-size="10.00">Eigen/StdVector</text>
</a>
</g>
</g>
<!-- Node23&#45;&gt;Node25 -->
<g id="edge30" class="edge">
<title>Node23&#45;&gt;Node25</title>
<path fill="none" stroke="midnightblue" d="M1483.03,-61.98C1465.22,-52.17 1435.76,-35.93 1414.87,-24.42"/>
<polygon fill="midnightblue" stroke="midnightblue" points="1416.39,-21.27 1405.95,-19.51 1413.01,-27.4 1416.39,-21.27"/>
</g>
<!-- Node26 -->
<g id="node26" class="node">
<title>Node26</title>
<g id="a_node26"><a xlink:title=" ">
<polygon fill="none" stroke="#bfbfbf" points="1455.5,-0.5 1455.5,-19.5 1541.5,-19.5 1541.5,-0.5 1455.5,-0.5"/>
<text text-anchor="middle" x="1498.5" y="-7.5" font-family="Helvetica,sans-Serif" font-size="10.00">fmt/ostream.h</text>
</a>
</g>
</g>
<!-- Node23&#45;&gt;Node26 -->
<g id="edge31" class="edge">
<title>Node23&#45;&gt;Node26</title>
<path fill="none" stroke="midnightblue" d="M1498.5,-61.98C1498.5,-53.58 1498.5,-40.48 1498.5,-29.66"/>
<polygon fill="midnightblue" stroke="midnightblue" points="1502,-29.51 1498.5,-19.51 1495,-29.51 1502,-29.51"/>
</g>
<!-- Node27&#45;&gt;Node14 -->
<g id="edge37" class="edge">
<title>Node27&#45;&gt;Node14</title>
<path fill="none" stroke="midnightblue" d="M1171.71,-57.52C1168.6,-56.97 1165.52,-56.45 1162.5,-56 974.81,-27.71 921.36,-53.39 731.19,-19.99"/>
<polygon fill="midnightblue" stroke="midnightblue" points="731.61,-16.51 721.15,-18.2 730.38,-23.4 731.61,-16.51"/>
</g>
<!-- Node27&#45;&gt;Node17 -->
<g id="edge34" class="edge">
<title>Node27&#45;&gt;Node17</title>
<path fill="none" stroke="midnightblue" d="M1228.74,-56.4C1228.87,-48.47 1229.04,-38.46 1229.18,-29.86"/>
<polygon fill="midnightblue" stroke="midnightblue" points="1232.69,-29.72 1229.35,-19.66 1225.69,-29.6 1232.69,-29.72"/>
</g>
<!-- Node27&#45;&gt;Node19 -->
<g id="edge36" class="edge">
<title>Node27&#45;&gt;Node19</title>
<path fill="none" stroke="midnightblue" d="M1182.76,-56.4C1148.26,-45.76 1101.66,-31.4 1070.19,-21.7"/>
<polygon fill="midnightblue" stroke="midnightblue" points="1071.13,-18.32 1060.54,-18.72 1069.07,-25.01 1071.13,-18.32"/>
</g>
<!-- Node28 -->
<g id="node28" class="node">
<title>Node28</title>
<g id="a_node28"><a xlink:title=" ">
<polygon fill="none" stroke="#bfbfbf" points="1269,-0.5 1269,-19.5 1322,-19.5 1322,-0.5 1269,-0.5"/>
<text text-anchor="middle" x="1295.5" y="-7.5" font-family="Helvetica,sans-Serif" font-size="10.00">cstddef</text>
</a>
</g>
</g>
<!-- Node27&#45;&gt;Node28 -->
<g id="edge35" class="edge">
<title>Node27&#45;&gt;Node28</title>
<path fill="none" stroke="midnightblue" d="M1244.38,-56.4C1254.52,-47.4 1267.66,-35.72 1278.09,-26.47"/>
<polygon fill="midnightblue" stroke="midnightblue" points="1280.6,-28.92 1285.75,-19.66 1275.95,-23.68 1280.6,-28.92"/>
</g>
</g>
</svg>
