<?xml version="1.0" encoding="UTF-8" standalone="no"?>
<!DOCTYPE svg PUBLIC "-//W3C//DTD SVG 1.1//EN"
 "http://www.w3.org/Graphics/SVG/1.1/DTD/svg11.dtd">
<!-- Generated by graphviz version 2.43.0 (0)
 -->
<!-- Title: /home/runner/work/occ/occ/include/occ/core/linear_algebra.h Pages: 1 -->
<svg width="321pt" height="117pt"
 viewBox="0.00 0.00 321.00 117.00" xmlns="http://www.w3.org/2000/svg" xmlns:xlink="http://www.w3.org/1999/xlink">
<g id="graph0" class="graph" transform="scale(1 1) rotate(0) translate(4 113)">
<title>/home/runner/work/occ/occ/include/occ/core/linear_algebra.h</title>
<!-- Node1 -->
<g id="node1" class="node">
<title>Node1</title>
<g id="a_node1"><a xlink:title=" ">
<polygon fill="#bfbfbf" stroke="black" points="77.5,-67.5 77.5,-108.5 205.5,-108.5 205.5,-67.5 77.5,-67.5"/>
<text text-anchor="start" x="85.5" y="-96.5" font-family="Helvetica,sans-Serif" font-size="10.00">/home/runner/work/occ</text>
<text text-anchor="start" x="85.5" y="-85.5" font-family="Helvetica,sans-Serif" font-size="10.00">/occ/include/occ/core</text>
<text text-anchor="middle" x="141.5" y="-74.5" font-family="Helvetica,sans-Serif" font-size="10.00">/linear_algebra.h</text>
</a>
</g>
</g>
<!-- Node2 -->
<g id="node2" class="node">
<title>Node2</title>
<g id="a_node2"><a xlink:title=" ">
<polygon fill="none" stroke="#bfbfbf" points="0,-6 0,-25 77,-25 77,-6 0,-6"/>
<text text-anchor="middle" x="38.5" y="-13" font-family="Helvetica,sans-Serif" font-size="10.00">Eigen/Dense</text>
</a>
</g>
</g>
<!-- Node1&#45;&gt;Node2 -->
<g id="edge1" class="edge">
<title>Node1&#45;&gt;Node2</title>
<path fill="none" stroke="midnightblue" d="M112.81,-67.36C95.89,-55.78 74.86,-41.39 59.49,-30.87"/>
<polygon fill="midnightblue" stroke="midnightblue" points="61.4,-27.93 51.17,-25.17 57.45,-33.71 61.4,-27.93"/>
</g>
<!-- Node3 -->
<g id="node3" class="node">
<title>Node3</title>
<g id="a_node3"><a xlink:title=" ">
<polygon fill="none" stroke="#bfbfbf" points="95,-6 95,-25 188,-25 188,-6 95,-6"/>
<text text-anchor="middle" x="141.5" y="-13" font-family="Helvetica,sans-Serif" font-size="10.00">Eigen/StdVector</text>
</a>
</g>
</g>
<!-- Node1&#45;&gt;Node3 -->
<g id="edge2" class="edge">
<title>Node1&#45;&gt;Node3</title>
<path fill="none" stroke="midnightblue" d="M141.5,-67.36C141.5,-57.3 141.5,-45.1 141.5,-35.18"/>
<polygon fill="midnightblue" stroke="midnightblue" points="145,-35.17 141.5,-25.17 138,-35.17 145,-35.17"/>
</g>
<!-- Node4 -->
<g id="node4" class="node">
<title>Node4</title>
<g id="a_node4"><a xlink:title=" ">
<polygon fill="none" stroke="#bfbfbf" points="206,-0.5 206,-30.5 313,-30.5 313,-0.5 206,-0.5"/>
<text text-anchor="start" x="214" y="-18.5" font-family="Helvetica,sans-Serif" font-size="10.00">occ/3rdparty/eigen</text>
<text text-anchor="middle" x="259.5" y="-7.5" font-family="Helvetica,sans-Serif" font-size="10.00">&#45;fmt/fmt.h</text>
</a>
</g>
</g>
<!-- Node1&#45;&gt;Node4 -->
<g id="edge3" class="edge">
<title>Node1&#45;&gt;Node4</title>
<path fill="none" stroke="midnightblue" d="M174.37,-67.36C190.83,-57.53 210.68,-45.67 227.07,-35.87"/>
<polygon fill="midnightblue" stroke="midnightblue" points="228.99,-38.8 235.78,-30.67 225.4,-32.79 228.99,-38.8"/>
</g>
</g>
</svg>
