<?xml version="1.0" encoding="UTF-8" standalone="no"?>
<!DOCTYPE svg PUBLIC "-//W3C//DTD SVG 1.1//EN"
 "http://www.w3.org/Graphics/SVG/1.1/DTD/svg11.dtd">
<!-- Generated by graphviz version 2.43.0 (0)
 -->
<!-- Title: /home/runner/work/occ/occ/include/occ/geometry/linear_hashed_octree.h Pages: 1 -->
<svg width="1107pt" height="159pt"
 viewBox="0.00 0.00 1107.00 159.00" xmlns="http://www.w3.org/2000/svg" xmlns:xlink="http://www.w3.org/1999/xlink">
<g id="graph0" class="graph" transform="scale(1 1) rotate(0) translate(4 155)">
<title>/home/runner/work/occ/occ/include/occ/geometry/linear_hashed_octree.h</title>
<!-- Node1 -->
<g id="Node000001" class="node">
<title>Node1</title>
<g id="a_Node000001"><a xlink:title=" ">
<polygon fill="#999999" stroke="#666666" points="631.5,-151 487.5,-151 487.5,-110 631.5,-110 631.5,-151"/>
<text text-anchor="start" x="495.5" y="-139" font-family="Helvetica,sans-Serif" font-size="10.00">/home/runner/work/occ</text>
<text text-anchor="start" x="495.5" y="-128" font-family="Helvetica,sans-Serif" font-size="10.00">/occ/include/occ/geometry</text>
<text text-anchor="middle" x="559.5" y="-117" font-family="Helvetica,sans-Serif" font-size="10.00">/linear_hashed_octree.h</text>
</a>
</g>
</g>
<!-- Node2 -->
<g id="Node000002" class="node">
<title>Node2</title>
<g id="a_Node000002"><a xlink:title=" ">
<polygon fill="#e0e0e0" stroke="#999999" points="143,-74 0,-74 0,-55 143,-55 143,-74"/>
<text text-anchor="middle" x="71.5" y="-62" font-family="Helvetica,sans-Serif" font-size="10.00">ankerl/unordered_dense.h</text>
</a>
</g>
</g>
<!-- Node1&#45;&gt;Node2 -->
<g id="edge1_Node000001_Node000002" class="edge">
<title>Node1&#45;&gt;Node2</title>
<g id="a_edge1_Node000001_Node000002"><a xlink:title=" ">
<path fill="none" stroke="#63b8ff" d="M487.49,-120.06C396.14,-108.08 239.33,-87.51 146.54,-75.34"/>
<polygon fill="#63b8ff" stroke="#63b8ff" points="146.76,-71.84 136.39,-74.01 145.85,-78.78 146.76,-71.84"/>
</a>
</g>
</g>
<!-- Node3 -->
<g id="Node000003" class="node">
<title>Node3</title>
<g id="a_Node000003"><a xlink:title=" ">
<polygon fill="#e0e0e0" stroke="#999999" points="208,-74 161,-74 161,-55 208,-55 208,-74"/>
<text text-anchor="middle" x="184.5" y="-62" font-family="Helvetica,sans-Serif" font-size="10.00">deque</text>
</a>
</g>
</g>
<!-- Node1&#45;&gt;Node3 -->
<g id="edge2_Node000001_Node000003" class="edge">
<title>Node1&#45;&gt;Node3</title>
<g id="a_edge2_Node000001_Node000003"><a xlink:title=" ">
<path fill="none" stroke="#63b8ff" d="M487.42,-119.75C420.2,-110.22 316.99,-94.45 218.1,-73.95"/>
<polygon fill="#63b8ff" stroke="#63b8ff" points="218.74,-70.51 208.23,-71.89 217.3,-77.36 218.74,-70.51"/>
</a>
</g>
</g>
<!-- Node4 -->
<g id="Node000004" class="node">
<title>Node4</title>
<g id="a_Node000004"><a xlink:title=" ">
<polygon fill="#e0e0e0" stroke="#999999" points="274.5,-74 226.5,-74 226.5,-55 274.5,-55 274.5,-74"/>
<text text-anchor="middle" x="250.5" y="-62" font-family="Helvetica,sans-Serif" font-size="10.00">mutex</text>
</a>
</g>
</g>
<!-- Node1&#45;&gt;Node4 -->
<g id="edge3_Node000001_Node000004" class="edge">
<title>Node1&#45;&gt;Node4</title>
<g id="a_edge3_Node000001_Node000004"><a xlink:title=" ">
<path fill="none" stroke="#63b8ff" d="M487.21,-116.06C433.8,-105.88 359.09,-91.11 284.64,-74.17"/>
<polygon fill="#63b8ff" stroke="#63b8ff" points="285.14,-70.69 274.61,-71.87 283.58,-77.51 285.14,-70.69"/>
</a>
</g>
</g>
<!-- Node5 -->
<g id="Node000005" class="node">
<title>Node5</title>
<g id="a_Node000005"><a xlink:title=" ">
<polygon fill="#e0e0e0" stroke="#999999" points="464,-74 293,-74 293,-55 464,-55 464,-74"/>
<text text-anchor="middle" x="378.5" y="-62" font-family="Helvetica,sans-Serif" font-size="10.00">occ/3rdparty/concurrentqueue.h</text>
</a>
</g>
</g>
<!-- Node1&#45;&gt;Node5 -->
<g id="edge4_Node000001_Node000005" class="edge">
<title>Node1&#45;&gt;Node5</title>
<g id="a_edge4_Node000001_Node000005"><a xlink:title=" ">
<path fill="none" stroke="#63b8ff" d="M504.21,-109.95C474.29,-99.37 438.29,-86.64 412.49,-77.52"/>
<polygon fill="#63b8ff" stroke="#63b8ff" points="413.39,-74.13 402.8,-74.09 411.06,-80.73 413.39,-74.13"/>
</a>
</g>
</g>
<!-- Node6 -->
<g id="Node000006" class="node">
<title>Node6</title>
<g id="a_Node000006"><a xlink:href="log_8h.html" target="_top" xlink:title=" ">
<polygon fill="white" stroke="#666666" points="566.5,-74 482.5,-74 482.5,-55 566.5,-55 566.5,-74"/>
<text text-anchor="middle" x="524.5" y="-62" font-family="Helvetica,sans-Serif" font-size="10.00">occ/core/log.h</text>
</a>
</g>
</g>
<!-- Node1&#45;&gt;Node6 -->
<g id="edge5_Node000001_Node000006" class="edge">
<title>Node1&#45;&gt;Node6</title>
<g id="a_edge5_Node000001_Node000006"><a xlink:title=" ">
<path fill="none" stroke="#63b8ff" d="M548.81,-109.95C544.13,-101.39 538.68,-91.42 534.12,-83.1"/>
<polygon fill="#63b8ff" stroke="#63b8ff" points="537.16,-81.35 529.29,-74.26 531.02,-84.71 537.16,-81.35"/>
</a>
</g>
</g>
<!-- Node9 -->
<g id="Node000009" class="node">
<title>Node9</title>
<g id="a_Node000009"><a xlink:href="parallel_8h.html" target="_top" xlink:title=" ">
<polygon fill="white" stroke="#666666" points="728.5,-74 622.5,-74 622.5,-55 728.5,-55 728.5,-74"/>
<text text-anchor="middle" x="675.5" y="-62" font-family="Helvetica,sans-Serif" font-size="10.00">occ/core/parallel.h</text>
</a>
</g>
</g>
<!-- Node1&#45;&gt;Node9 -->
<g id="edge8_Node000001_Node000009" class="edge">
<title>Node1&#45;&gt;Node9</title>
<g id="a_edge8_Node000001_Node000009"><a xlink:title=" ">
<path fill="none" stroke="#63b8ff" d="M594.93,-109.95C613.09,-99.93 634.74,-87.99 651.03,-79"/>
<polygon fill="#63b8ff" stroke="#63b8ff" points="652.86,-81.99 659.93,-74.09 649.48,-75.86 652.86,-81.99"/>
</a>
</g>
</g>
<!-- Node10 -->
<g id="Node000010" class="node">
<title>Node10</title>
<g id="a_Node000010"><a xlink:title=" ">
<polygon fill="#e0e0e0" stroke="#999999" points="625.5,-19 577.5,-19 577.5,0 625.5,0 625.5,-19"/>
<text text-anchor="middle" x="601.5" y="-7" font-family="Helvetica,sans-Serif" font-size="10.00">thread</text>
</a>
</g>
</g>
<!-- Node1&#45;&gt;Node10 -->
<g id="edge18_Node000001_Node000010" class="edge">
<title>Node1&#45;&gt;Node10</title>
<g id="a_edge18_Node000001_Node000010"><a xlink:title=" ">
<path fill="none" stroke="#63b8ff" d="M566.44,-109.85C574.4,-87.27 587.37,-50.52 595.11,-28.61"/>
<polygon fill="#63b8ff" stroke="#63b8ff" points="598.41,-29.77 598.44,-19.18 591.81,-27.44 598.41,-29.77"/>
</a>
</g>
</g>
<!-- Node11 -->
<g id="Node000011" class="node">
<title>Node11</title>
<g id="a_Node000011"><a xlink:title=" ">
<polygon fill="#e0e0e0" stroke="#999999" points="699,-19 652,-19 652,0 699,0 699,-19"/>
<text text-anchor="middle" x="675.5" y="-7" font-family="Helvetica,sans-Serif" font-size="10.00">vector</text>
</a>
</g>
</g>
<!-- Node1&#45;&gt;Node11 -->
<g id="edge19_Node000001_Node000011" class="edge">
<title>Node1&#45;&gt;Node11</title>
<g id="a_edge19_Node000001_Node000011"><a xlink:title=" ">
<path fill="none" stroke="#63b8ff" d="M631.89,-126.52C669.83,-120.81 713.33,-106.85 737.5,-74 751.54,-54.91 726.33,-35.84 703.96,-23.65"/>
<polygon fill="#63b8ff" stroke="#63b8ff" points="705.48,-20.5 694.99,-19.03 702.28,-26.72 705.48,-20.5"/>
</a>
</g>
</g>
<!-- Node12 -->
<g id="Node000012" class="node">
<title>Node12</title>
<g id="a_Node000012"><a xlink:href="morton_8h.html" target="_top" xlink:title=" ">
<polygon fill="white" stroke="#666666" points="916,-74 785,-74 785,-55 916,-55 916,-74"/>
<text text-anchor="middle" x="850.5" y="-62" font-family="Helvetica,sans-Serif" font-size="10.00">occ/geometry/morton.h</text>
</a>
</g>
</g>
<!-- Node1&#45;&gt;Node12 -->
<g id="edge11_Node000001_Node000012" class="edge">
<title>Node1&#45;&gt;Node12</title>
<g id="a_edge11_Node000001_Node000012"><a xlink:title=" ">
<path fill="none" stroke="#63b8ff" d="M631.81,-113.6C684.81,-101.94 755.34,-86.43 801.79,-76.21"/>
<polygon fill="#63b8ff" stroke="#63b8ff" points="802.59,-79.62 811.61,-74.05 801.09,-72.78 802.59,-79.62"/>
</a>
</g>
</g>
<!-- Node18 -->
<g id="Node000018" class="node">
<title>Node18</title>
<g id="a_Node000018"><a xlink:title=" ">
<polygon fill="#e0e0e0" stroke="#999999" points="990.5,-74 934.5,-74 934.5,-55 990.5,-55 990.5,-74"/>
<text text-anchor="middle" x="962.5" y="-62" font-family="Helvetica,sans-Serif" font-size="10.00">optional</text>
</a>
</g>
</g>
<!-- Node1&#45;&gt;Node18 -->
<g id="edge17_Node000001_Node000018" class="edge">
<title>Node1&#45;&gt;Node18</title>
<g id="a_edge17_Node000001_Node000018"><a xlink:title=" ">
<path fill="none" stroke="#63b8ff" d="M631.65,-120.19C703.43,-110.56 816.89,-94.34 924.23,-74.12"/>
<polygon fill="#63b8ff" stroke="#63b8ff" points="925.09,-77.52 934.26,-72.22 923.79,-70.64 925.09,-77.52"/>
</a>
</g>
</g>
<!-- Node7 -->
<g id="Node000007" class="node">
<title>Node7</title>
<g id="a_Node000007"><a xlink:title=" ">
<polygon fill="#e0e0e0" stroke="#999999" points="487,-19 394,-19 394,0 487,0 487,-19"/>
<text text-anchor="middle" x="440.5" y="-7" font-family="Helvetica,sans-Serif" font-size="10.00">spdlog/spdlog.h</text>
</a>
</g>
</g>
<!-- Node6&#45;&gt;Node7 -->
<g id="edge6_Node000006_Node000007" class="edge">
<title>Node6&#45;&gt;Node7</title>
<g id="a_edge6_Node000006_Node000007"><a xlink:title=" ">
<path fill="none" stroke="#63b8ff" d="M511,-54.98C498.1,-46.84 478.4,-34.41 463.1,-24.76"/>
<polygon fill="#63b8ff" stroke="#63b8ff" points="464.57,-21.55 454.24,-19.17 460.83,-27.47 464.57,-21.55"/>
</a>
</g>
</g>
<!-- Node8 -->
<g id="Node000008" class="node">
<title>Node8</title>
<g id="a_Node000008"><a xlink:title=" ">
<polygon fill="#e0e0e0" stroke="#999999" points="549.5,-19 505.5,-19 505.5,0 549.5,0 549.5,-19"/>
<text text-anchor="middle" x="527.5" y="-7" font-family="Helvetica,sans-Serif" font-size="10.00">string</text>
</a>
</g>
</g>
<!-- Node6&#45;&gt;Node8 -->
<g id="edge7_Node000006_Node000008" class="edge">
<title>Node6&#45;&gt;Node8</title>
<g id="a_edge7_Node000006_Node000008"><a xlink:title=" ">
<path fill="none" stroke="#63b8ff" d="M525,-54.75C525.39,-47.8 525.95,-37.85 526.45,-29.13"/>
<polygon fill="#63b8ff" stroke="#63b8ff" points="529.94,-29.27 527.01,-19.09 522.95,-28.88 529.94,-29.27"/>
</a>
</g>
</g>
<!-- Node9&#45;&gt;Node10 -->
<g id="edge9_Node000009_Node000010" class="edge">
<title>Node9&#45;&gt;Node10</title>
<g id="a_edge9_Node000009_Node000010"><a xlink:title=" ">
<path fill="none" stroke="#63b8ff" d="M663.61,-54.98C652.35,-46.92 635.21,-34.65 621.79,-25.03"/>
<polygon fill="#63b8ff" stroke="#63b8ff" points="623.77,-22.15 613.61,-19.17 619.7,-27.84 623.77,-22.15"/>
</a>
</g>
</g>
<!-- Node9&#45;&gt;Node11 -->
<g id="edge10_Node000009_Node000011" class="edge">
<title>Node9&#45;&gt;Node11</title>
<g id="a_edge10_Node000009_Node000011"><a xlink:title=" ">
<path fill="none" stroke="#63b8ff" d="M675.5,-54.75C675.5,-47.8 675.5,-37.85 675.5,-29.13"/>
<polygon fill="#63b8ff" stroke="#63b8ff" points="679,-29.09 675.5,-19.09 672,-29.09 679,-29.09"/>
</a>
</g>
</g>
<!-- Node13 -->
<g id="Node000013" class="node">
<title>Node13</title>
<g id="a_Node000013"><a xlink:title=" ">
<polygon fill="#e0e0e0" stroke="#999999" points="781.5,-19 717.5,-19 717.5,0 781.5,0 781.5,-19"/>
<text text-anchor="middle" x="749.5" y="-7" font-family="Helvetica,sans-Serif" font-size="10.00">algorithm</text>
</a>
</g>
</g>
<!-- Node12&#45;&gt;Node13 -->
<g id="edge12_Node000012_Node000013" class="edge">
<title>Node12&#45;&gt;Node13</title>
<g id="a_edge12_Node000012_Node000013"><a xlink:title=" ">
<path fill="none" stroke="#63b8ff" d="M834.27,-54.98C818.32,-46.61 793.72,-33.7 775.12,-23.95"/>
<polygon fill="#63b8ff" stroke="#63b8ff" points="776.5,-20.72 766.02,-19.17 773.25,-26.92 776.5,-20.72"/>
</a>
</g>
</g>
<!-- Node14 -->
<g id="Node000014" class="node">
<title>Node14</title>
<g id="a_Node000014"><a xlink:title=" ">
<polygon fill="#e0e0e0" stroke="#999999" points="841.5,-19 799.5,-19 799.5,0 841.5,0 841.5,-19"/>
<text text-anchor="middle" x="820.5" y="-7" font-family="Helvetica,sans-Serif" font-size="10.00">array</text>
</a>
</g>
</g>
<!-- Node12&#45;&gt;Node14 -->
<g id="edge13_Node000012_Node000014" class="edge">
<title>Node12&#45;&gt;Node14</title>
<g id="a_edge13_Node000012_Node000014"><a xlink:title=" ">
<path fill="none" stroke="#63b8ff" d="M845.55,-54.75C841.44,-47.49 835.47,-36.95 830.4,-27.98"/>
<polygon fill="#63b8ff" stroke="#63b8ff" points="833.33,-26.07 825.36,-19.09 827.24,-29.52 833.33,-26.07"/>
</a>
</g>
</g>
<!-- Node15 -->
<g id="Node000015" class="node">
<title>Node15</title>
<g id="a_Node000015"><a xlink:title=" ">
<polygon fill="#e0e0e0" stroke="#999999" points="907,-19 860,-19 860,0 907,0 907,-19"/>
<text text-anchor="middle" x="883.5" y="-7" font-family="Helvetica,sans-Serif" font-size="10.00">cmath</text>
</a>
</g>
</g>
<!-- Node12&#45;&gt;Node15 -->
<g id="edge14_Node000012_Node000015" class="edge">
<title>Node12&#45;&gt;Node15</title>
<g id="a_edge14_Node000012_Node000015"><a xlink:title=" ">
<path fill="none" stroke="#63b8ff" d="M855.95,-54.75C860.51,-47.42 867.17,-36.73 872.79,-27.7"/>
<polygon fill="#63b8ff" stroke="#63b8ff" points="875.84,-29.43 878.15,-19.09 869.9,-25.73 875.84,-29.43"/>
</a>
</g>
</g>
<!-- Node16 -->
<g id="Node000016" class="node">
<title>Node16</title>
<g id="a_Node000016"><a xlink:title=" ">
<polygon fill="#e0e0e0" stroke="#999999" points="975.5,-19 925.5,-19 925.5,0 975.5,0 975.5,-19"/>
<text text-anchor="middle" x="950.5" y="-7" font-family="Helvetica,sans-Serif" font-size="10.00">cstdint</text>
</a>
</g>
</g>
<!-- Node12&#45;&gt;Node16 -->
<g id="edge15_Node000012_Node000016" class="edge">
<title>Node12&#45;&gt;Node16</title>
<g id="a_edge15_Node000012_Node000016"><a xlink:title=" ">
<path fill="none" stroke="#63b8ff" d="M866.57,-54.98C882.36,-46.61 906.72,-33.7 925.13,-23.95"/>
<polygon fill="#63b8ff" stroke="#63b8ff" points="926.94,-26.95 934.14,-19.17 923.67,-20.76 926.94,-26.95"/>
</a>
</g>
</g>
<!-- Node17 -->
<g id="Node000017" class="node">
<title>Node17</title>
<g id="a_Node000017"><a xlink:href="macros_8h.html" target="_top" xlink:title=" ">
<polygon fill="white" stroke="#666666" points="1099,-19 994,-19 994,0 1099,0 1099,-19"/>
<text text-anchor="middle" x="1046.5" y="-7" font-family="Helvetica,sans-Serif" font-size="10.00">occ/core/macros.h</text>
</a>
</g>
</g>
<!-- Node12&#45;&gt;Node17 -->
<g id="edge16_Node000012_Node000017" class="edge">
<title>Node12&#45;&gt;Node17</title>
<g id="a_edge16_Node000012_Node000017"><a xlink:title=" ">
<path fill="none" stroke="#63b8ff" d="M881.99,-54.98C915.32,-45.97 968.1,-31.7 1004.85,-21.76"/>
<polygon fill="#63b8ff" stroke="#63b8ff" points="1006.02,-25.07 1014.76,-19.08 1004.2,-18.31 1006.02,-25.07"/>
</a>
</g>
</g>
</g>
</svg>
