<?xml version="1.0" encoding="UTF-8" standalone="no"?>
<!DOCTYPE svg PUBLIC "-//W3C//DTD SVG 1.1//EN"
 "http://www.w3.org/Graphics/SVG/1.1/DTD/svg11.dtd">
<!-- Generated by graphviz version 2.43.0 (0)
 -->
<!-- Title: /home/runner/work/occ/occ/include/occ/io/load_geometry.h Pages: 1 -->
<svg width="1509pt" height="464pt"
 viewBox="0.00 0.00 1508.87 464.00" xmlns="http://www.w3.org/2000/svg" xmlns:xlink="http://www.w3.org/1999/xlink">
<g id="graph0" class="graph" transform="scale(1 1) rotate(0) translate(4 460)">
<title>/home/runner/work/occ/occ/include/occ/io/load_geometry.h</title>
<!-- Node1 -->
<g id="node1" class="node">
<title>Node1</title>
<g id="a_node1"><a xlink:title=" ">
<polygon fill="#bfbfbf" stroke="black" points="248.37,-414.5 248.37,-455.5 378.37,-455.5 378.37,-414.5 248.37,-414.5"/>
<text text-anchor="start" x="256.37" y="-443.5" font-family="Helvetica,sans-Serif" font-size="10.00">/home/runner/work/occ</text>
<text text-anchor="start" x="256.37" y="-432.5" font-family="Helvetica,sans-Serif" font-size="10.00">/occ/include/occ/io/load</text>
<text text-anchor="middle" x="313.37" y="-421.5" font-family="Helvetica,sans-Serif" font-size="10.00">_geometry.h</text>
</a>
</g>
</g>
<!-- Node2 -->
<g id="node2" class="node">
<title>Node2</title>
<g id="a_node2"><a xlink:href="crystal_8h.html" target="_top" xlink:title=" ">
<polygon fill="none" stroke="black" points="461.37,-358.5 461.37,-377.5 575.37,-377.5 575.37,-358.5 461.37,-358.5"/>
<text text-anchor="middle" x="518.37" y="-365.5" font-family="Helvetica,sans-Serif" font-size="10.00">occ/crystal/crystal.h</text>
</a>
</g>
</g>
<!-- Node1&#45;&gt;Node2 -->
<g id="edge1" class="edge">
<title>Node1&#45;&gt;Node2</title>
<path fill="none" stroke="midnightblue" d="M374.87,-414.5C409.73,-403.44 452.17,-389.99 481.81,-380.59"/>
<polygon fill="midnightblue" stroke="midnightblue" points="482.87,-383.93 491.35,-377.57 480.76,-377.25 482.87,-383.93"/>
</g>
<!-- Node10 -->
<g id="node10" class="node">
<title>Node10</title>
<g id="a_node10"><a xlink:href="molecule_8h.html" target="_top" xlink:title=" ">
<polygon fill="none" stroke="black" points="452.37,-174 452.37,-193 566.37,-193 566.37,-174 452.37,-174"/>
<text text-anchor="middle" x="509.37" y="-181" font-family="Helvetica,sans-Serif" font-size="10.00">occ/core/molecule.h</text>
</a>
</g>
</g>
<!-- Node1&#45;&gt;Node10 -->
<g id="edge68" class="edge">
<title>Node1&#45;&gt;Node10</title>
<path fill="none" stroke="midnightblue" d="M265.75,-414.46C209.2,-388.43 127.07,-339.97 165.37,-291 206.27,-238.7 248.19,-278.3 310.37,-255 328.61,-248.16 331.35,-242.4 349.37,-235 388.44,-218.95 434.58,-204.88 467.25,-195.7"/>
<polygon fill="midnightblue" stroke="midnightblue" points="468.23,-199.06 476.93,-193.01 466.36,-192.31 468.23,-199.06"/>
</g>
<!-- Node3 -->
<g id="node3" class="node">
<title>Node3</title>
<g id="a_node3"><a xlink:href="bondgraph_8h.html" target="_top" xlink:title=" ">
<polygon fill="none" stroke="black" points="174.87,-297 174.87,-316 295.87,-316 295.87,-297 174.87,-297"/>
<text text-anchor="middle" x="235.37" y="-304" font-family="Helvetica,sans-Serif" font-size="10.00">occ/core/bondgraph.h</text>
</a>
</g>
</g>
<!-- Node2&#45;&gt;Node3 -->
<g id="edge2" class="edge">
<title>Node2&#45;&gt;Node3</title>
<path fill="none" stroke="midnightblue" d="M477.82,-358.48C427.17,-347.83 340.53,-329.61 285.69,-318.08"/>
<polygon fill="midnightblue" stroke="midnightblue" points="286.35,-314.64 275.84,-316.01 284.91,-321.49 286.35,-314.64"/>
</g>
<!-- Node9 -->
<g id="node9" class="node">
<title>Node9</title>
<g id="a_node9"><a xlink:href="dimer_8h.html" target="_top" xlink:title=" ">
<polygon fill="none" stroke="black" points="204.87,-235.5 204.87,-254.5 301.87,-254.5 301.87,-235.5 204.87,-235.5"/>
<text text-anchor="middle" x="253.37" y="-242.5" font-family="Helvetica,sans-Serif" font-size="10.00">occ/core/dimer.h</text>
</a>
</g>
</g>
<!-- Node2&#45;&gt;Node9 -->
<g id="edge8" class="edge">
<title>Node2&#45;&gt;Node9</title>
<path fill="none" stroke="midnightblue" d="M514.46,-358.33C506.76,-342.3 488.02,-308.09 461.37,-291 436.97,-275.36 364.36,-261.99 311.79,-253.98"/>
<polygon fill="midnightblue" stroke="midnightblue" points="312.3,-250.52 301.89,-252.5 311.26,-257.44 312.3,-250.52"/>
</g>
<!-- Node2&#45;&gt;Node10 -->
<g id="edge24" class="edge">
<title>Node2&#45;&gt;Node10</title>
<path fill="none" stroke="midnightblue" d="M517.93,-358.2C516.55,-330.19 512.24,-242.71 510.31,-203.66"/>
<polygon fill="midnightblue" stroke="midnightblue" points="513.79,-203.03 509.8,-193.21 506.79,-203.37 513.79,-203.03"/>
</g>
<!-- Node13 -->
<g id="node13" class="node">
<title>Node13</title>
<g id="a_node13"><a xlink:href="linear__algebra_8h.html" target="_top" xlink:title=" ">
<polygon fill="none" stroke="black" points="753.87,-56.5 753.87,-75.5 892.87,-75.5 892.87,-56.5 753.87,-56.5"/>
<text text-anchor="middle" x="823.37" y="-63.5" font-family="Helvetica,sans-Serif" font-size="10.00">occ/core/linear_algebra.h</text>
</a>
</g>
</g>
<!-- Node2&#45;&gt;Node13 -->
<g id="edge23" class="edge">
<title>Node2&#45;&gt;Node13</title>
<path fill="none" stroke="midnightblue" d="M522.36,-358.46C536.51,-328.95 586.9,-229.71 652.37,-168 695.14,-127.68 756.77,-96.27 793.18,-79.79"/>
<polygon fill="midnightblue" stroke="midnightblue" points="795.03,-82.8 802.75,-75.54 792.19,-76.4 795.03,-82.8"/>
</g>
<!-- Node19 -->
<g id="node19" class="node">
<title>Node19</title>
<g id="a_node19"><a xlink:title=" ">
<polygon fill="none" stroke="#bfbfbf" points="424.87,-56.5 424.87,-75.5 471.87,-75.5 471.87,-56.5 424.87,-56.5"/>
<text text-anchor="middle" x="448.37" y="-63.5" font-family="Helvetica,sans-Serif" font-size="10.00">vector</text>
</a>
</g>
</g>
<!-- Node2&#45;&gt;Node19 -->
<g id="edge67" class="edge">
<title>Node2&#45;&gt;Node19</title>
<path fill="none" stroke="midnightblue" d="M461.35,-366.13C390.38,-363.61 266.24,-354.43 165.37,-322 79.64,-294.44 30.28,-285.24 4.37,-199 -27.33,-93.54 128.97,-136.35 236.37,-112 299.29,-97.73 373.03,-82.39 414.87,-73.81"/>
<polygon fill="midnightblue" stroke="midnightblue" points="415.7,-77.22 424.79,-71.78 414.29,-70.36 415.7,-77.22"/>
</g>
<!-- Node21 -->
<g id="node21" class="node">
<title>Node21</title>
<g id="a_node21"><a xlink:href="asymmetric__unit_8h.html" target="_top" xlink:title=" ">
<polygon fill="none" stroke="black" points="660.87,-168.5 660.87,-198.5 791.87,-198.5 791.87,-168.5 660.87,-168.5"/>
<text text-anchor="start" x="668.87" y="-186.5" font-family="Helvetica,sans-Serif" font-size="10.00">occ/crystal/asymmetric</text>
<text text-anchor="middle" x="726.37" y="-175.5" font-family="Helvetica,sans-Serif" font-size="10.00">_unit.h</text>
</a>
</g>
</g>
<!-- Node2&#45;&gt;Node21 -->
<g id="edge25" class="edge">
<title>Node2&#45;&gt;Node21</title>
<path fill="none" stroke="midnightblue" d="M528.36,-358.4C538.85,-349.36 555.8,-334.72 570.37,-322 617.54,-280.8 672.43,-232.29 702.9,-205.3"/>
<polygon fill="midnightblue" stroke="midnightblue" points="705.3,-207.85 710.46,-198.6 700.66,-202.61 705.3,-207.85"/>
</g>
<!-- Node22 -->
<g id="node22" class="node">
<title>Node22</title>
<g id="a_node22"><a xlink:href="hkl_8h.html" target="_top" xlink:title=" ">
<polygon fill="none" stroke="black" points="888.37,-112.5 888.37,-131.5 984.37,-131.5 984.37,-112.5 888.37,-112.5"/>
<text text-anchor="middle" x="936.37" y="-119.5" font-family="Helvetica,sans-Serif" font-size="10.00">occ/crystal/hkl.h</text>
</a>
</g>
</g>
<!-- Node2&#45;&gt;Node22 -->
<g id="edge30" class="edge">
<title>Node2&#45;&gt;Node22</title>
<path fill="none" stroke="midnightblue" d="M535.29,-358.34C552.07,-349.61 578.37,-335.52 600.37,-322 658.65,-286.17 665.64,-264.52 727.37,-235 777.6,-210.98 798.48,-225.65 847.37,-199 876.65,-183.04 904.97,-156.3 921.52,-139.17"/>
<polygon fill="midnightblue" stroke="midnightblue" points="924.33,-141.29 928.66,-131.62 919.25,-136.48 924.33,-141.29"/>
</g>
<!-- Node24 -->
<g id="node24" class="node">
<title>Node24</title>
<g id="a_node24"><a xlink:href="spacegroup_8h.html" target="_top" xlink:title=" ">
<polygon fill="none" stroke="black" points="782.87,-297 782.87,-316 919.87,-316 919.87,-297 782.87,-297"/>
<text text-anchor="middle" x="851.37" y="-304" font-family="Helvetica,sans-Serif" font-size="10.00">occ/crystal/spacegroup.h</text>
</a>
</g>
</g>
<!-- Node2&#45;&gt;Node24 -->
<g id="edge33" class="edge">
<title>Node2&#45;&gt;Node24</title>
<path fill="none" stroke="midnightblue" d="M566.08,-358.48C626.17,-347.74 729.33,-329.31 793.75,-317.79"/>
<polygon fill="midnightblue" stroke="midnightblue" points="794.52,-321.21 803.75,-316.01 793.29,-314.32 794.52,-321.21"/>
</g>
<!-- Node28 -->
<g id="node28" class="node">
<title>Node28</title>
<g id="a_node28"><a xlink:href="unitcell_8h.html" target="_top" xlink:title=" ">
<polygon fill="none" stroke="black" points="1078.87,-174 1078.87,-193 1195.87,-193 1195.87,-174 1078.87,-174"/>
<text text-anchor="middle" x="1137.37" y="-181" font-family="Helvetica,sans-Serif" font-size="10.00">occ/crystal/unitcell.h</text>
</a>
</g>
</g>
<!-- Node2&#45;&gt;Node28 -->
<g id="edge60" class="edge">
<title>Node2&#45;&gt;Node28</title>
<path fill="none" stroke="midnightblue" d="M575.52,-366.91C724.28,-365.29 1117.17,-351.76 1192.37,-255 1207.54,-235.48 1182.55,-212.96 1161.5,-198.73"/>
<polygon fill="midnightblue" stroke="midnightblue" points="1163.15,-195.63 1152.84,-193.17 1159.37,-201.52 1163.15,-195.63"/>
</g>
<!-- Node37 -->
<g id="node37" class="node">
<title>Node37</title>
<g id="a_node37"><a xlink:href="site__mapping__table_8h.html" target="_top" xlink:title=" ">
<polygon fill="none" stroke="black" points="314.37,-291.5 314.37,-321.5 452.37,-321.5 452.37,-291.5 314.37,-291.5"/>
<text text-anchor="start" x="322.37" y="-309.5" font-family="Helvetica,sans-Serif" font-size="10.00">occ/crystal/site_mapping</text>
<text text-anchor="middle" x="383.37" y="-298.5" font-family="Helvetica,sans-Serif" font-size="10.00">_table.h</text>
</a>
</g>
</g>
<!-- Node2&#45;&gt;Node37 -->
<g id="edge61" class="edge">
<title>Node2&#45;&gt;Node37</title>
<path fill="none" stroke="midnightblue" d="M499.03,-358.48C479.63,-349.93 449.17,-336.5 424.37,-325.57"/>
<polygon fill="midnightblue" stroke="midnightblue" points="425.75,-322.35 415.18,-321.52 422.92,-328.76 425.75,-322.35"/>
</g>
<!-- Node4 -->
<g id="node4" class="node">
<title>Node4</title>
<g id="a_node4"><a xlink:href="graph_8h.html" target="_top" xlink:title=" ">
<polygon fill="none" stroke="black" points="50.87,-235.5 50.87,-254.5 147.87,-254.5 147.87,-235.5 50.87,-235.5"/>
<text text-anchor="middle" x="99.37" y="-242.5" font-family="Helvetica,sans-Serif" font-size="10.00">occ/core/graph.h</text>
</a>
</g>
</g>
<!-- Node3&#45;&gt;Node4 -->
<g id="edge3" class="edge">
<title>Node3&#45;&gt;Node4</title>
<path fill="none" stroke="midnightblue" d="M215.88,-296.98C192.96,-286.95 154.68,-270.2 128.29,-258.65"/>
<polygon fill="midnightblue" stroke="midnightblue" points="129.38,-255.31 118.82,-254.51 126.58,-261.72 129.38,-255.31"/>
</g>
<!-- Node5 -->
<g id="node5" class="node">
<title>Node5</title>
<g id="a_node5"><a xlink:title=" ">
<polygon fill="none" stroke="#bfbfbf" points="252.87,-174 252.87,-193 395.87,-193 395.87,-174 252.87,-174"/>
<text text-anchor="middle" x="324.37" y="-181" font-family="Helvetica,sans-Serif" font-size="10.00">ankerl/unordered_dense.h</text>
</a>
</g>
</g>
<!-- Node4&#45;&gt;Node5 -->
<g id="edge4" class="edge">
<title>Node4&#45;&gt;Node5</title>
<path fill="none" stroke="midnightblue" d="M131.6,-235.48C171.29,-224.98 238.77,-207.14 282.44,-195.59"/>
<polygon fill="midnightblue" stroke="midnightblue" points="283.42,-198.95 292.19,-193.01 281.63,-192.18 283.42,-198.95"/>
</g>
<!-- Node6 -->
<g id="node6" class="node">
<title>Node6</title>
<g id="a_node6"><a xlink:title=" ">
<polygon fill="none" stroke="#bfbfbf" points="140.37,-174 140.37,-193 196.37,-193 196.37,-174 140.37,-174"/>
<text text-anchor="middle" x="168.37" y="-181" font-family="Helvetica,sans-Serif" font-size="10.00">optional</text>
</a>
</g>
</g>
<!-- Node4&#45;&gt;Node6 -->
<g id="edge5" class="edge">
<title>Node4&#45;&gt;Node6</title>
<path fill="none" stroke="midnightblue" d="M109.25,-235.48C120.01,-226.2 137.44,-211.17 150.59,-199.83"/>
<polygon fill="midnightblue" stroke="midnightblue" points="153.21,-202.19 158.5,-193.01 148.64,-196.89 153.21,-202.19"/>
</g>
<!-- Node7 -->
<g id="node7" class="node">
<title>Node7</title>
<g id="a_node7"><a xlink:title=" ">
<polygon fill="none" stroke="#bfbfbf" points="74.87,-174 74.87,-193 121.87,-193 121.87,-174 74.87,-174"/>
<text text-anchor="middle" x="98.37" y="-181" font-family="Helvetica,sans-Serif" font-size="10.00">queue</text>
</a>
</g>
</g>
<!-- Node4&#45;&gt;Node7 -->
<g id="edge6" class="edge">
<title>Node4&#45;&gt;Node7</title>
<path fill="none" stroke="midnightblue" d="M99.22,-235.48C99.08,-227.08 98.86,-213.98 98.68,-203.16"/>
<polygon fill="midnightblue" stroke="midnightblue" points="102.18,-202.95 98.51,-193.01 95.18,-203.07 102.18,-202.95"/>
</g>
<!-- Node8 -->
<g id="node8" class="node">
<title>Node8</title>
<g id="a_node8"><a xlink:title=" ">
<polygon fill="none" stroke="#bfbfbf" points="13.87,-174 13.87,-193 56.87,-193 56.87,-174 13.87,-174"/>
<text text-anchor="middle" x="35.37" y="-181" font-family="Helvetica,sans-Serif" font-size="10.00">stack</text>
</a>
</g>
</g>
<!-- Node4&#45;&gt;Node8 -->
<g id="edge7" class="edge">
<title>Node4&#45;&gt;Node8</title>
<path fill="none" stroke="midnightblue" d="M90.2,-235.48C80.22,-226.2 64.06,-211.17 51.86,-199.83"/>
<polygon fill="midnightblue" stroke="midnightblue" points="54.23,-197.25 44.52,-193.01 49.46,-202.38 54.23,-197.25"/>
</g>
<!-- Node9&#45;&gt;Node5 -->
<g id="edge9" class="edge">
<title>Node9&#45;&gt;Node5</title>
<path fill="none" stroke="midnightblue" d="M263.54,-235.48C274.72,-226.11 292.88,-210.88 306.46,-199.51"/>
<polygon fill="midnightblue" stroke="midnightblue" points="308.8,-202.11 314.21,-193.01 304.3,-196.75 308.8,-202.11"/>
</g>
<!-- Node9&#45;&gt;Node6 -->
<g id="edge22" class="edge">
<title>Node9&#45;&gt;Node6</title>
<path fill="none" stroke="midnightblue" d="M241.19,-235.48C227.56,-225.93 205.24,-210.31 188.89,-198.87"/>
<polygon fill="midnightblue" stroke="midnightblue" points="190.72,-195.88 180.52,-193.01 186.71,-201.61 190.72,-195.88"/>
</g>
<!-- Node9&#45;&gt;Node10 -->
<g id="edge10" class="edge">
<title>Node9&#45;&gt;Node10</title>
<path fill="none" stroke="midnightblue" d="M290.05,-235.48C335.57,-224.89 413.27,-206.84 462.91,-195.3"/>
<polygon fill="midnightblue" stroke="midnightblue" points="463.81,-198.68 472.76,-193.01 462.22,-191.86 463.81,-198.68"/>
</g>
<!-- Node11 -->
<g id="node11" class="node">
<title>Node11</title>
<g id="a_node11"><a xlink:title=" ">
<polygon fill="none" stroke="#bfbfbf" points="298.37,-112.5 298.37,-131.5 340.37,-131.5 340.37,-112.5 298.37,-112.5"/>
<text text-anchor="middle" x="319.37" y="-119.5" font-family="Helvetica,sans-Serif" font-size="10.00">array</text>
</a>
</g>
</g>
<!-- Node10&#45;&gt;Node11 -->
<g id="edge11" class="edge">
<title>Node10&#45;&gt;Node11</title>
<path fill="none" stroke="midnightblue" d="M482.15,-173.98C447.16,-163.02 386.59,-144.05 350.02,-132.6"/>
<polygon fill="midnightblue" stroke="midnightblue" points="350.97,-129.23 340.38,-129.58 348.88,-135.91 350.97,-129.23"/>
</g>
<!-- Node12 -->
<g id="node12" class="node">
<title>Node12</title>
<g id="a_node12"><a xlink:href="atom_8h.html" target="_top" xlink:title=" ">
<polygon fill="none" stroke="black" points="358.87,-112.5 358.87,-131.5 453.87,-131.5 453.87,-112.5 358.87,-112.5"/>
<text text-anchor="middle" x="406.37" y="-119.5" font-family="Helvetica,sans-Serif" font-size="10.00">occ/core/atom.h</text>
</a>
</g>
</g>
<!-- Node10&#45;&gt;Node12 -->
<g id="edge12" class="edge">
<title>Node10&#45;&gt;Node12</title>
<path fill="none" stroke="midnightblue" d="M494.61,-173.98C477.71,-164.21 449.78,-148.08 429.88,-136.58"/>
<polygon fill="midnightblue" stroke="midnightblue" points="431.51,-133.48 421.1,-131.51 428.01,-139.54 431.51,-133.48"/>
</g>
<!-- Node10&#45;&gt;Node13 -->
<g id="edge20" class="edge">
<title>Node10&#45;&gt;Node13</title>
<path fill="none" stroke="midnightblue" d="M504.94,-173.91C498.08,-159.29 487.19,-129.45 502.37,-112 533.02,-76.75 658.89,-68.3 743.61,-66.71"/>
<polygon fill="midnightblue" stroke="midnightblue" points="743.78,-70.2 753.73,-66.54 743.67,-63.2 743.78,-70.2"/>
</g>
<!-- Node17 -->
<g id="node17" class="node">
<title>Node17</title>
<g id="a_node17"><a xlink:href="element_8h.html" target="_top" xlink:title=" ">
<polygon fill="none" stroke="black" points="570.37,-112.5 570.37,-131.5 680.37,-131.5 680.37,-112.5 570.37,-112.5"/>
<text text-anchor="middle" x="625.37" y="-119.5" font-family="Helvetica,sans-Serif" font-size="10.00">occ/core/element.h</text>
</a>
</g>
</g>
<!-- Node10&#45;&gt;Node17 -->
<g id="edge17" class="edge">
<title>Node10&#45;&gt;Node17</title>
<path fill="none" stroke="midnightblue" d="M525.99,-173.98C545.28,-164.08 577.33,-147.64 599.8,-136.12"/>
<polygon fill="midnightblue" stroke="midnightblue" points="601.48,-139.19 608.78,-131.51 598.28,-132.96 601.48,-139.19"/>
</g>
<!-- Node20 -->
<g id="node20" class="node">
<title>Node20</title>
<g id="a_node20"><a xlink:title=" ">
<polygon fill="none" stroke="#bfbfbf" points="510.87,-112.5 510.87,-131.5 551.87,-131.5 551.87,-112.5 510.87,-112.5"/>
<text text-anchor="middle" x="531.37" y="-119.5" font-family="Helvetica,sans-Serif" font-size="10.00">tuple</text>
</a>
</g>
</g>
<!-- Node10&#45;&gt;Node20 -->
<g id="edge21" class="edge">
<title>Node10&#45;&gt;Node20</title>
<path fill="none" stroke="midnightblue" d="M512.52,-173.98C515.69,-165.4 520.67,-151.93 524.72,-140.98"/>
<polygon fill="midnightblue" stroke="midnightblue" points="528.04,-142.1 528.22,-131.51 521.47,-139.67 528.04,-142.1"/>
</g>
<!-- Node12&#45;&gt;Node13 -->
<g id="edge13" class="edge">
<title>Node12&#45;&gt;Node13</title>
<path fill="none" stroke="midnightblue" d="M454.08,-113.98C458.91,-113.3 463.73,-112.63 468.37,-112 562.68,-99.18 671.26,-85.58 743.25,-76.74"/>
<polygon fill="midnightblue" stroke="midnightblue" points="744.1,-80.16 753.6,-75.47 743.25,-73.21 744.1,-80.16"/>
</g>
<!-- Node14 -->
<g id="node14" class="node">
<title>Node14</title>
<g id="a_node14"><a xlink:title=" ">
<polygon fill="none" stroke="#bfbfbf" points="835.87,-0.5 835.87,-19.5 912.87,-19.5 912.87,-0.5 835.87,-0.5"/>
<text text-anchor="middle" x="874.37" y="-7.5" font-family="Helvetica,sans-Serif" font-size="10.00">Eigen/Dense</text>
</a>
</g>
</g>
<!-- Node13&#45;&gt;Node14 -->
<g id="edge14" class="edge">
<title>Node13&#45;&gt;Node14</title>
<path fill="none" stroke="midnightblue" d="M831.79,-56.08C839.22,-48.22 850.22,-36.57 859.18,-27.08"/>
<polygon fill="midnightblue" stroke="midnightblue" points="861.78,-29.42 866.1,-19.75 856.69,-24.62 861.78,-29.42"/>
</g>
<!-- Node15 -->
<g id="node15" class="node">
<title>Node15</title>
<g id="a_node15"><a xlink:title=" ">
<polygon fill="none" stroke="#bfbfbf" points="724.87,-0.5 724.87,-19.5 817.87,-19.5 817.87,-0.5 724.87,-0.5"/>
<text text-anchor="middle" x="771.37" y="-7.5" font-family="Helvetica,sans-Serif" font-size="10.00">Eigen/StdVector</text>
</a>
</g>
</g>
<!-- Node13&#45;&gt;Node15 -->
<g id="edge15" class="edge">
<title>Node13&#45;&gt;Node15</title>
<path fill="none" stroke="midnightblue" d="M814.78,-56.08C807.21,-48.22 795.99,-36.57 786.85,-27.08"/>
<polygon fill="midnightblue" stroke="midnightblue" points="789.25,-24.53 779.79,-19.75 784.21,-29.38 789.25,-24.53"/>
</g>
<!-- Node16 -->
<g id="node16" class="node">
<title>Node16</title>
<g id="a_node16"><a xlink:title=" ">
<polygon fill="none" stroke="#bfbfbf" points="1038.37,-0.5 1038.37,-19.5 1124.37,-19.5 1124.37,-0.5 1038.37,-0.5"/>
<text text-anchor="middle" x="1081.37" y="-7.5" font-family="Helvetica,sans-Serif" font-size="10.00">fmt/ostream.h</text>
</a>
</g>
</g>
<!-- Node13&#45;&gt;Node16 -->
<g id="edge16" class="edge">
<title>Node13&#45;&gt;Node16</title>
<path fill="none" stroke="midnightblue" d="M864.25,-56.44C909.35,-47 981.98,-31.8 1030.67,-21.61"/>
<polygon fill="midnightblue" stroke="midnightblue" points="1031.61,-24.99 1040.68,-19.52 1030.17,-18.14 1031.61,-24.99"/>
</g>
<!-- Node18 -->
<g id="node18" class="node">
<title>Node18</title>
<g id="a_node18"><a xlink:title=" ">
<polygon fill="none" stroke="#bfbfbf" points="911.37,-56.5 911.37,-75.5 955.37,-75.5 955.37,-56.5 911.37,-56.5"/>
<text text-anchor="middle" x="933.37" y="-63.5" font-family="Helvetica,sans-Serif" font-size="10.00">string</text>
</a>
</g>
</g>
<!-- Node17&#45;&gt;Node18 -->
<g id="edge18" class="edge">
<title>Node17&#45;&gt;Node18</title>
<path fill="none" stroke="midnightblue" d="M680.41,-114.07C734.38,-106.82 819.14,-94.23 901.12,-76.06"/>
<polygon fill="midnightblue" stroke="midnightblue" points="902.11,-79.42 911.1,-73.82 900.58,-72.59 902.11,-79.42"/>
</g>
<!-- Node17&#45;&gt;Node19 -->
<g id="edge19" class="edge">
<title>Node17&#45;&gt;Node19</title>
<path fill="none" stroke="midnightblue" d="M597.32,-112.44C565.96,-102.88 515.2,-87.39 481.8,-77.2"/>
<polygon fill="midnightblue" stroke="midnightblue" points="482.62,-73.79 472.03,-74.22 480.58,-80.49 482.62,-73.79"/>
</g>
<!-- Node21&#45;&gt;Node13 -->
<g id="edge27" class="edge">
<title>Node21&#45;&gt;Node13</title>
<path fill="none" stroke="midnightblue" d="M738.26,-168.34C756.29,-146.86 790.47,-106.17 809.57,-83.43"/>
<polygon fill="midnightblue" stroke="midnightblue" points="812.34,-85.58 816.09,-75.67 806.98,-81.08 812.34,-85.58"/>
</g>
<!-- Node21&#45;&gt;Node17 -->
<g id="edge26" class="edge">
<title>Node21&#45;&gt;Node17</title>
<path fill="none" stroke="midnightblue" d="M702.43,-168.4C686.24,-158.86 664.96,-146.32 648.86,-136.84"/>
<polygon fill="midnightblue" stroke="midnightblue" points="650.46,-133.72 640.06,-131.66 646.9,-139.75 650.46,-133.72"/>
</g>
<!-- Node21&#45;&gt;Node18 -->
<g id="edge28" class="edge">
<title>Node21&#45;&gt;Node18</title>
<path fill="none" stroke="midnightblue" d="M751.75,-168.34C791.86,-145.96 869.39,-102.7 908.91,-80.65"/>
<polygon fill="midnightblue" stroke="midnightblue" points="911.07,-83.45 918.09,-75.52 907.66,-77.34 911.07,-83.45"/>
</g>
<!-- Node21&#45;&gt;Node19 -->
<g id="edge29" class="edge">
<title>Node21&#45;&gt;Node19</title>
<path fill="none" stroke="midnightblue" d="M722.96,-168.42C718.27,-152.16 708.16,-125.88 689.37,-112 656.97,-88.08 540.8,-74.94 482.39,-69.71"/>
<polygon fill="midnightblue" stroke="midnightblue" points="482.46,-66.2 472.19,-68.82 481.85,-73.17 482.46,-66.2"/>
</g>
<!-- Node22&#45;&gt;Node13 -->
<g id="edge32" class="edge">
<title>Node22&#45;&gt;Node13</title>
<path fill="none" stroke="midnightblue" d="M918.46,-112.44C900.11,-103.68 871.36,-89.94 850.27,-79.86"/>
<polygon fill="midnightblue" stroke="midnightblue" points="851.72,-76.67 841.19,-75.52 848.7,-82.99 851.72,-76.67"/>
</g>
<!-- Node23 -->
<g id="node23" class="node">
<title>Node23</title>
<g id="a_node23"><a xlink:title=" ">
<polygon fill="none" stroke="#bfbfbf" points="973.87,-56.5 973.87,-75.5 1040.87,-75.5 1040.87,-56.5 973.87,-56.5"/>
<text text-anchor="middle" x="1007.37" y="-63.5" font-family="Helvetica,sans-Serif" font-size="10.00">fmt/core.h</text>
</a>
</g>
</g>
<!-- Node22&#45;&gt;Node23 -->
<g id="edge31" class="edge">
<title>Node22&#45;&gt;Node23</title>
<path fill="none" stroke="midnightblue" d="M947.77,-112.32C958.48,-104.18 974.71,-91.84 987.53,-82.09"/>
<polygon fill="midnightblue" stroke="midnightblue" points="989.91,-84.67 995.75,-75.83 985.67,-79.1 989.91,-84.67"/>
</g>
<!-- Node24&#45;&gt;Node18 -->
<g id="edge57" class="edge">
<title>Node24&#45;&gt;Node18</title>
<path fill="none" stroke="midnightblue" d="M920.12,-298.92C1006.12,-289.98 1144.04,-273.04 1159.37,-255 1199.57,-207.67 1136.46,-253.28 1070.37,-199 1034.64,-169.66 1047.14,-143.56 1013.37,-112 999,-98.57 979.9,-87.64 963.96,-79.91"/>
<polygon fill="midnightblue" stroke="midnightblue" points="965.06,-76.56 954.52,-75.52 962.11,-82.91 965.06,-76.56"/>
</g>
<!-- Node24&#45;&gt;Node19 -->
<g id="edge59" class="edge">
<title>Node24&#45;&gt;Node19</title>
<path fill="none" stroke="midnightblue" d="M785.88,-296.97C702.73,-284.27 556.49,-255.54 443.37,-199 423.56,-189.1 423.93,-178.37 404.37,-168 357.05,-142.91 321.08,-175.16 289.37,-132 256.02,-86.62 358.38,-72.82 414.39,-68.7"/>
<polygon fill="midnightblue" stroke="midnightblue" points="414.84,-72.18 424.59,-68.02 414.38,-65.2 414.84,-72.18"/>
</g>
<!-- Node24&#45;&gt;Node20 -->
<g id="edge58" class="edge">
<title>Node24&#45;&gt;Node20</title>
<path fill="none" stroke="midnightblue" d="M825.98,-296.9C800.42,-287.85 760.19,-272.49 727.37,-255 658.91,-218.51 584.64,-163.9 550.5,-137.86"/>
<polygon fill="midnightblue" stroke="midnightblue" points="552.41,-134.9 542.34,-131.59 548.14,-140.46 552.41,-134.9"/>
</g>
<!-- Node24&#45;&gt;Node22 -->
<g id="edge36" class="edge">
<title>Node24&#45;&gt;Node22</title>
<path fill="none" stroke="midnightblue" d="M873.23,-296.9C890.55,-288.85 913.7,-275.02 925.37,-255 946.13,-219.36 943.2,-168.86 939.58,-141.82"/>
<polygon fill="midnightblue" stroke="midnightblue" points="943.02,-141.14 938.06,-131.78 936.1,-142.19 943.02,-141.14"/>
</g>
<!-- Node25 -->
<g id="node25" class="node">
<title>Node25</title>
<g id="a_node25"><a xlink:title=" ">
<polygon fill="none" stroke="#bfbfbf" points="736.37,-235.5 736.37,-254.5 860.37,-254.5 860.37,-235.5 736.37,-235.5"/>
<text text-anchor="middle" x="798.37" y="-242.5" font-family="Helvetica,sans-Serif" font-size="10.00">gemmi/symmetry.hpp</text>
</a>
</g>
</g>
<!-- Node24&#45;&gt;Node25 -->
<g id="edge34" class="edge">
<title>Node24&#45;&gt;Node25</title>
<path fill="none" stroke="midnightblue" d="M843.77,-296.98C835.67,-287.87 822.63,-273.24 812.6,-261.98"/>
<polygon fill="midnightblue" stroke="midnightblue" points="815.21,-259.65 805.95,-254.51 809.98,-264.3 815.21,-259.65"/>
</g>
<!-- Node26 -->
<g id="node26" class="node">
<title>Node26</title>
<g id="a_node26"><a xlink:title=" ">
<polygon fill="none" stroke="#bfbfbf" points="878.37,-235.5 878.37,-254.5 916.37,-254.5 916.37,-235.5 878.37,-235.5"/>
<text text-anchor="middle" x="897.37" y="-242.5" font-family="Helvetica,sans-Serif" font-size="10.00">map</text>
</a>
</g>
</g>
<!-- Node24&#45;&gt;Node26 -->
<g id="edge35" class="edge">
<title>Node24&#45;&gt;Node26</title>
<path fill="none" stroke="midnightblue" d="M857.96,-296.98C864.86,-288.05 875.87,-273.81 884.5,-262.64"/>
<polygon fill="midnightblue" stroke="midnightblue" points="887.44,-264.56 890.79,-254.51 881.9,-260.28 887.44,-264.56"/>
</g>
<!-- Node27 -->
<g id="node27" class="node">
<title>Node27</title>
<g id="a_node27"><a xlink:href="symmetryoperation_8h.html" target="_top" xlink:title=" ">
<polygon fill="none" stroke="black" points="972.37,-235.5 972.37,-254.5 1150.37,-254.5 1150.37,-235.5 972.37,-235.5"/>
<text text-anchor="middle" x="1061.37" y="-242.5" font-family="Helvetica,sans-Serif" font-size="10.00">occ/crystal/symmetryoperation.h</text>
</a>
</g>
</g>
<!-- Node24&#45;&gt;Node27 -->
<g id="edge37" class="edge">
<title>Node24&#45;&gt;Node27</title>
<path fill="none" stroke="midnightblue" d="M881.46,-296.98C918.26,-286.55 980.68,-268.86 1021.46,-257.31"/>
<polygon fill="midnightblue" stroke="midnightblue" points="1022.67,-260.6 1031.34,-254.51 1020.76,-253.87 1022.67,-260.6"/>
</g>
<!-- Node27&#45;&gt;Node13 -->
<g id="edge38" class="edge">
<title>Node27&#45;&gt;Node13</title>
<path fill="none" stroke="midnightblue" d="M1043.63,-235.43C1009.64,-218.51 933.87,-178.44 879.37,-132 862.44,-117.58 846.21,-97.87 835.62,-83.95"/>
<polygon fill="midnightblue" stroke="midnightblue" points="838.3,-81.69 829.53,-75.75 832.68,-85.86 838.3,-81.69"/>
</g>
<!-- Node27&#45;&gt;Node18 -->
<g id="edge56" class="edge">
<title>Node27&#45;&gt;Node18</title>
<path fill="none" stroke="midnightblue" d="M1056.45,-235.44C1051.32,-226.44 1043.09,-211.82 1036.37,-199 1016.33,-160.8 1020.93,-145.18 993.37,-112 983.22,-99.79 969.13,-89 957.16,-81.05"/>
<polygon fill="midnightblue" stroke="midnightblue" points="958.82,-77.97 948.51,-75.55 955.07,-83.87 958.82,-77.97"/>
</g>
<!-- Node27&#45;&gt;Node28 -->
<g id="edge39" class="edge">
<title>Node27&#45;&gt;Node28</title>
<path fill="none" stroke="midnightblue" d="M1072.26,-235.48C1084.33,-226.02 1104.03,-210.6 1118.61,-199.19"/>
<polygon fill="midnightblue" stroke="midnightblue" points="1120.78,-201.93 1126.5,-193.01 1116.47,-196.42 1120.78,-201.93"/>
</g>
<!-- Node28&#45;&gt;Node13 -->
<g id="edge40" class="edge">
<title>Node28&#45;&gt;Node13</title>
<path fill="none" stroke="midnightblue" d="M1122.25,-173.86C1096.49,-159.42 1042.14,-130.19 993.37,-112 954.31,-97.43 908.57,-85.6 874.37,-77.74"/>
<polygon fill="midnightblue" stroke="midnightblue" points="875.13,-74.32 864.6,-75.52 873.58,-81.15 875.13,-74.32"/>
</g>
<!-- Node28&#45;&gt;Node18 -->
<g id="edge55" class="edge">
<title>Node28&#45;&gt;Node18</title>
<path fill="none" stroke="midnightblue" d="M1135.49,-173.65C1131.83,-158.64 1122.29,-128.22 1102.37,-112 1053.55,-72.24 1026.12,-92.52 965.37,-76 965.27,-75.97 965.17,-75.95 965.06,-75.92"/>
<polygon fill="midnightblue" stroke="midnightblue" points="965.96,-72.53 955.39,-73.25 964.1,-79.28 965.96,-72.53"/>
</g>
<!-- Node28&#45;&gt;Node22 -->
<g id="edge54" class="edge">
<title>Node28&#45;&gt;Node22</title>
<path fill="none" stroke="midnightblue" d="M1108.57,-173.98C1073.49,-163.59 1014.1,-146.01 975.06,-134.45"/>
<polygon fill="midnightblue" stroke="midnightblue" points="975.69,-130.99 965.11,-131.51 973.71,-137.7 975.69,-130.99"/>
</g>
<!-- Node29 -->
<g id="node29" class="node">
<title>Node29</title>
<g id="a_node29"><a xlink:href="units_8h.html" target="_top" xlink:title=" ">
<polygon fill="none" stroke="black" points="1344.87,-112.5 1344.87,-131.5 1437.87,-131.5 1437.87,-112.5 1344.87,-112.5"/>
<text text-anchor="middle" x="1391.37" y="-119.5" font-family="Helvetica,sans-Serif" font-size="10.00">occ/core/units.h</text>
</a>
</g>
</g>
<!-- Node28&#45;&gt;Node29 -->
<g id="edge41" class="edge">
<title>Node28&#45;&gt;Node29</title>
<path fill="none" stroke="midnightblue" d="M1173.76,-173.98C1218.93,-163.39 1296.02,-145.34 1345.28,-133.8"/>
<polygon fill="midnightblue" stroke="midnightblue" points="1346.1,-137.2 1355.04,-131.51 1344.51,-130.38 1346.1,-137.2"/>
</g>
<!-- Node31 -->
<g id="node31" class="node">
<title>Node31</title>
<g id="a_node31"><a xlink:href="util_8h.html" target="_top" xlink:title=" ">
<polygon fill="none" stroke="black" points="1154.87,-112.5 1154.87,-131.5 1239.87,-131.5 1239.87,-112.5 1154.87,-112.5"/>
<text text-anchor="middle" x="1197.37" y="-119.5" font-family="Helvetica,sans-Serif" font-size="10.00">occ/core/util.h</text>
</a>
</g>
</g>
<!-- Node28&#45;&gt;Node31 -->
<g id="edge43" class="edge">
<title>Node28&#45;&gt;Node31</title>
<path fill="none" stroke="midnightblue" d="M1145.96,-173.98C1155.23,-164.78 1170.18,-149.96 1181.58,-138.66"/>
<polygon fill="midnightblue" stroke="midnightblue" points="1184.15,-141.04 1188.79,-131.51 1179.22,-136.07 1184.15,-141.04"/>
</g>
<!-- Node30 -->
<g id="node30" class="node">
<title>Node30</title>
<g id="a_node30"><a xlink:title=" ">
<polygon fill="none" stroke="#bfbfbf" points="1453.87,-56.5 1453.87,-75.5 1500.87,-75.5 1500.87,-56.5 1453.87,-56.5"/>
<text text-anchor="middle" x="1477.37" y="-63.5" font-family="Helvetica,sans-Serif" font-size="10.00">cmath</text>
</a>
</g>
</g>
<!-- Node29&#45;&gt;Node30 -->
<g id="edge42" class="edge">
<title>Node29&#45;&gt;Node30</title>
<path fill="none" stroke="midnightblue" d="M1405.18,-112.32C1418.6,-103.9 1439.19,-90.97 1454.95,-81.07"/>
<polygon fill="midnightblue" stroke="midnightblue" points="1456.98,-83.94 1463.58,-75.65 1453.25,-78.01 1456.98,-83.94"/>
</g>
<!-- Node31&#45;&gt;Node13 -->
<g id="edge50" class="edge">
<title>Node31&#45;&gt;Node13</title>
<path fill="none" stroke="midnightblue" d="M1154.83,-114.86C1090.88,-105.63 969.31,-88.07 892.51,-76.98"/>
<polygon fill="midnightblue" stroke="midnightblue" points="892.84,-73.49 882.44,-75.53 891.84,-80.42 892.84,-73.49"/>
</g>
<!-- Node31&#45;&gt;Node16 -->
<g id="edge47" class="edge">
<title>Node31&#45;&gt;Node16</title>
<path fill="none" stroke="midnightblue" d="M1188.27,-112.37C1168.78,-93.89 1122.8,-50.29 1097.97,-26.74"/>
<polygon fill="midnightblue" stroke="midnightblue" points="1100.09,-23.93 1090.43,-19.59 1095.28,-29.01 1100.09,-23.93"/>
</g>
<!-- Node31&#45;&gt;Node18 -->
<g id="edge51" class="edge">
<title>Node31&#45;&gt;Node18</title>
<path fill="none" stroke="midnightblue" d="M1154.81,-113.83C1110.2,-106.08 1037.9,-92.83 965.85,-75.94"/>
<polygon fill="midnightblue" stroke="midnightblue" points="966.22,-72.43 955.69,-73.53 964.61,-79.24 966.22,-72.43"/>
</g>
<!-- Node31&#45;&gt;Node19 -->
<g id="edge52" class="edge">
<title>Node31&#45;&gt;Node19</title>
<path fill="none" stroke="midnightblue" d="M1154.68,-117.92C1019.8,-108.2 604.5,-78.26 482.44,-69.46"/>
<polygon fill="midnightblue" stroke="midnightblue" points="482.43,-65.95 472.2,-68.72 481.93,-72.93 482.43,-65.95"/>
</g>
<!-- Node31&#45;&gt;Node23 -->
<g id="edge46" class="edge">
<title>Node31&#45;&gt;Node23</title>
<path fill="none" stroke="midnightblue" d="M1167.26,-112.44C1134.74,-103.2 1082.79,-88.44 1046.98,-78.26"/>
<polygon fill="midnightblue" stroke="midnightblue" points="1047.91,-74.88 1037.33,-75.52 1045.99,-81.62 1047.91,-74.88"/>
</g>
<!-- Node32 -->
<g id="node32" class="node">
<title>Node32</title>
<g id="a_node32"><a xlink:title=" ">
<polygon fill="none" stroke="#bfbfbf" points="1165.37,-56.5 1165.37,-75.5 1229.37,-75.5 1229.37,-56.5 1165.37,-56.5"/>
<text text-anchor="middle" x="1197.37" y="-63.5" font-family="Helvetica,sans-Serif" font-size="10.00">algorithm</text>
</a>
</g>
</g>
<!-- Node31&#45;&gt;Node32 -->
<g id="edge44" class="edge">
<title>Node31&#45;&gt;Node32</title>
<path fill="none" stroke="midnightblue" d="M1197.37,-112.08C1197.37,-105.01 1197.37,-94.86 1197.37,-85.99"/>
<polygon fill="midnightblue" stroke="midnightblue" points="1200.87,-85.75 1197.37,-75.75 1193.87,-85.75 1200.87,-85.75"/>
</g>
<!-- Node33 -->
<g id="node33" class="node">
<title>Node33</title>
<g id="a_node33"><a xlink:title=" ">
<polygon fill="none" stroke="#bfbfbf" points="1247.87,-56.5 1247.87,-75.5 1296.87,-75.5 1296.87,-56.5 1247.87,-56.5"/>
<text text-anchor="middle" x="1272.37" y="-63.5" font-family="Helvetica,sans-Serif" font-size="10.00">cctype</text>
</a>
</g>
</g>
<!-- Node31&#45;&gt;Node33 -->
<g id="edge45" class="edge">
<title>Node31&#45;&gt;Node33</title>
<path fill="none" stroke="midnightblue" d="M1209.42,-112.32C1220.83,-104.11 1238.2,-91.6 1251.8,-81.81"/>
<polygon fill="midnightblue" stroke="midnightblue" points="1254.03,-84.52 1260.1,-75.83 1249.94,-78.84 1254.03,-84.52"/>
</g>
<!-- Node34 -->
<g id="node34" class="node">
<title>Node34</title>
<g id="a_node34"><a xlink:title=" ">
<polygon fill="none" stroke="#bfbfbf" points="1315.37,-56.5 1315.37,-75.5 1361.37,-75.5 1361.37,-56.5 1315.37,-56.5"/>
<text text-anchor="middle" x="1338.37" y="-63.5" font-family="Helvetica,sans-Serif" font-size="10.00">locale</text>
</a>
</g>
</g>
<!-- Node31&#45;&gt;Node34 -->
<g id="edge48" class="edge">
<title>Node31&#45;&gt;Node34</title>
<path fill="none" stroke="midnightblue" d="M1219.71,-112.44C1243.12,-103.48 1280.1,-89.31 1306.56,-79.18"/>
<polygon fill="midnightblue" stroke="midnightblue" points="1308.04,-82.36 1316.13,-75.52 1305.54,-75.82 1308.04,-82.36"/>
</g>
<!-- Node35 -->
<g id="node35" class="node">
<title>Node35</title>
<g id="a_node35"><a xlink:title=" ">
<polygon fill="none" stroke="#bfbfbf" points="1379.37,-56.5 1379.37,-75.5 1435.37,-75.5 1435.37,-56.5 1379.37,-56.5"/>
<text text-anchor="middle" x="1407.37" y="-63.5" font-family="Helvetica,sans-Serif" font-size="10.00">numeric</text>
</a>
</g>
</g>
<!-- Node31&#45;&gt;Node35 -->
<g id="edge49" class="edge">
<title>Node31&#45;&gt;Node35</title>
<path fill="none" stroke="midnightblue" d="M1230.64,-112.44C1268.41,-102.73 1329.9,-86.92 1369.48,-76.74"/>
<polygon fill="midnightblue" stroke="midnightblue" points="1370.48,-80.1 1379.29,-74.22 1368.73,-73.32 1370.48,-80.1"/>
</g>
<!-- Node36 -->
<g id="node36" class="node">
<title>Node36</title>
<g id="a_node36"><a xlink:title=" ">
<polygon fill="none" stroke="#bfbfbf" points="1059.37,-56.5 1059.37,-75.5 1109.37,-75.5 1109.37,-56.5 1059.37,-56.5"/>
<text text-anchor="middle" x="1084.37" y="-63.5" font-family="Helvetica,sans-Serif" font-size="10.00">chrono</text>
</a>
</g>
</g>
<!-- Node31&#45;&gt;Node36 -->
<g id="edge53" class="edge">
<title>Node31&#45;&gt;Node36</title>
<path fill="none" stroke="midnightblue" d="M1179.46,-112.44C1161.11,-103.68 1132.36,-89.94 1111.27,-79.86"/>
<polygon fill="midnightblue" stroke="midnightblue" points="1112.72,-76.67 1102.19,-75.52 1109.7,-82.99 1112.72,-76.67"/>
</g>
<!-- Node37&#45;&gt;Node4 -->
<g id="edge62" class="edge">
<title>Node37&#45;&gt;Node4</title>
<path fill="none" stroke="midnightblue" d="M316.42,-291.47C265.39,-280.78 196.22,-266.29 149.8,-256.57"/>
<polygon fill="midnightblue" stroke="midnightblue" points="150.47,-253.13 139.97,-254.51 149.04,-259.98 150.47,-253.13"/>
</g>
<!-- Node37&#45;&gt;Node19 -->
<g id="edge66" class="edge">
<title>Node37&#45;&gt;Node19</title>
<path fill="none" stroke="midnightblue" d="M315.54,-291.47C264.83,-280.3 202.99,-264.94 195.37,-255 189.96,-247.95 193.34,-243.65 195.37,-235 202.33,-205.29 232.46,-130.95 256.37,-112 302.4,-75.51 372.96,-67.72 414.51,-66.55"/>
<polygon fill="midnightblue" stroke="midnightblue" points="414.72,-70.05 424.66,-66.38 414.6,-63.05 414.72,-70.05"/>
</g>
<!-- Node38 -->
<g id="node38" class="node">
<title>Node38</title>
<g id="a_node38"><a xlink:href="site__index_8h.html" target="_top" xlink:title=" ">
<polygon fill="none" stroke="black" points="358.87,-235.5 358.87,-254.5 489.87,-254.5 489.87,-235.5 358.87,-235.5"/>
<text text-anchor="middle" x="424.37" y="-242.5" font-family="Helvetica,sans-Serif" font-size="10.00">occ/crystal/site_index.h</text>
</a>
</g>
</g>
<!-- Node37&#45;&gt;Node38 -->
<g id="edge63" class="edge">
<title>Node37&#45;&gt;Node38</title>
<path fill="none" stroke="midnightblue" d="M393.08,-291.4C398.92,-282.93 406.38,-272.1 412.56,-263.14"/>
<polygon fill="midnightblue" stroke="midnightblue" points="415.61,-264.88 418.4,-254.66 409.85,-260.91 415.61,-264.88"/>
</g>
<!-- Node38&#45;&gt;Node5 -->
<g id="edge64" class="edge">
<title>Node38&#45;&gt;Node5</title>
<path fill="none" stroke="midnightblue" d="M410.04,-235.48C393.7,-225.75 366.77,-209.73 347.46,-198.24"/>
<polygon fill="midnightblue" stroke="midnightblue" points="349.05,-195.11 338.67,-193.01 345.47,-201.13 349.05,-195.11"/>
</g>
<!-- Node38&#45;&gt;Node22 -->
<g id="edge65" class="edge">
<title>Node38&#45;&gt;Node22</title>
<path fill="none" stroke="midnightblue" d="M490.07,-243.89C566.64,-242.02 696.1,-233.39 801.37,-199 845.31,-184.64 891.11,-155.3 916.46,-137.57"/>
<polygon fill="midnightblue" stroke="midnightblue" points="918.71,-140.26 924.83,-131.61 914.65,-134.56 918.71,-140.26"/>
</g>
</g>
</svg>
