<?xml version="1.0" encoding="UTF-8" standalone="no"?>
<!DOCTYPE svg PUBLIC "-//W3C//DTD SVG 1.1//EN"
 "http://www.w3.org/Graphics/SVG/1.1/DTD/svg11.dtd">
<!-- Generated by graphviz version 2.43.0 (0)
 -->
<!-- Title: /home/runner/work/occ/occ/include/occ/core/log.h Pages: 1 -->
<svg width="465pt" height="262pt"
 viewBox="0.00 0.00 464.90 262.00" xmlns="http://www.w3.org/2000/svg" xmlns:xlink="http://www.w3.org/1999/xlink">
<g id="graph0" class="graph" transform="scale(1 1) rotate(0) translate(4 258)">
<title>/home/runner/work/occ/occ/include/occ/core/log.h</title>
<!-- Node1 -->
<g id="node1" class="node">
<title>Node1</title>
<g id="a_node1"><a xlink:title=" ">
<polygon fill="#bfbfbf" stroke="black" points="163.9,-223.5 163.9,-253.5 308.9,-253.5 308.9,-223.5 163.9,-223.5"/>
<text text-anchor="start" x="171.9" y="-241.5" font-family="Helvetica,sans-Serif" font-size="10.00">/home/runner/work/occ</text>
<text text-anchor="middle" x="236.4" y="-230.5" font-family="Helvetica,sans-Serif" font-size="10.00">/occ/include/occ/core/log.h</text>
</a>
</g>
</g>
<!-- Node2 -->
<g id="node2" class="node">
<title>Node2</title>
<g id="a_node2"><a xlink:href="gto_8h.html" target="_top" xlink:title=" ">
<polygon fill="none" stroke="black" points="9.4,-151 9.4,-181 149.4,-181 149.4,-151 9.4,-151"/>
<text text-anchor="start" x="17.4" y="-169" font-family="Helvetica,sans-Serif" font-size="10.00">/home/runner/work/occ</text>
<text text-anchor="middle" x="79.4" y="-158" font-family="Helvetica,sans-Serif" font-size="10.00">/occ/include/occ/gto/gto.h</text>
</a>
</g>
</g>
<!-- Node1&#45;&gt;Node2 -->
<g id="edge1" class="edge">
<title>Node1&#45;&gt;Node2</title>
<path fill="none" stroke="midnightblue" d="M195.61,-219.19C169.12,-207.29 135.11,-192.02 110.74,-181.07"/>
<polygon fill="midnightblue" stroke="midnightblue" points="194.45,-222.5 205,-223.4 197.31,-216.11 194.45,-222.5"/>
</g>
<!-- Node6 -->
<g id="node6" class="node">
<title>Node6</title>
<g id="a_node6"><a xlink:href="scf_8h.html" target="_top" xlink:title=" ">
<polygon fill="none" stroke="black" points="167.4,-151 167.4,-181 305.4,-181 305.4,-151 167.4,-151"/>
<text text-anchor="start" x="175.4" y="-169" font-family="Helvetica,sans-Serif" font-size="10.00">/home/runner/work/occ</text>
<text text-anchor="middle" x="236.4" y="-158" font-family="Helvetica,sans-Serif" font-size="10.00">/occ/include/occ/qm/scf.h</text>
</a>
</g>
</g>
<!-- Node1&#45;&gt;Node6 -->
<g id="edge7" class="edge">
<title>Node1&#45;&gt;Node6</title>
<path fill="none" stroke="midnightblue" d="M236.4,-213.23C236.4,-202.57 236.4,-190.41 236.4,-181.25"/>
<polygon fill="midnightblue" stroke="midnightblue" points="232.9,-213.23 236.4,-223.23 239.9,-213.23 232.9,-213.23"/>
</g>
<!-- Node7 -->
<g id="node7" class="node">
<title>Node7</title>
<g id="a_node7"><a xlink:href="solvation__correction_8h.html" target="_top" xlink:title=" ">
<polygon fill="none" stroke="black" points="323.9,-145.5 323.9,-186.5 456.9,-186.5 456.9,-145.5 323.9,-145.5"/>
<text text-anchor="start" x="331.9" y="-174.5" font-family="Helvetica,sans-Serif" font-size="10.00">/home/runner/work/occ</text>
<text text-anchor="start" x="331.9" y="-163.5" font-family="Helvetica,sans-Serif" font-size="10.00">/occ/include/occ/solvent</text>
<text text-anchor="middle" x="390.4" y="-152.5" font-family="Helvetica,sans-Serif" font-size="10.00">/solvation_correction.h</text>
</a>
</g>
</g>
<!-- Node1&#45;&gt;Node7 -->
<g id="edge8" class="edge">
<title>Node1&#45;&gt;Node7</title>
<path fill="none" stroke="midnightblue" d="M276.52,-219.13C298.39,-209.12 325.45,-196.73 347.7,-186.55"/>
<polygon fill="midnightblue" stroke="midnightblue" points="274.83,-216.06 267.19,-223.4 277.74,-222.42 274.83,-216.06"/>
</g>
<!-- Node3 -->
<g id="node3" class="node">
<title>Node3</title>
<g id="a_node3"><a xlink:href="dft_8h.html" target="_top" xlink:title=" ">
<polygon fill="none" stroke="black" points="12.4,-0.5 12.4,-30.5 146.4,-30.5 146.4,-0.5 12.4,-0.5"/>
<text text-anchor="start" x="20.4" y="-18.5" font-family="Helvetica,sans-Serif" font-size="10.00">/home/runner/work/occ</text>
<text text-anchor="middle" x="79.4" y="-7.5" font-family="Helvetica,sans-Serif" font-size="10.00">/occ/include/occ/dft/dft.h</text>
</a>
</g>
</g>
<!-- Node2&#45;&gt;Node3 -->
<g id="edge2" class="edge">
<title>Node2&#45;&gt;Node3</title>
<path fill="none" stroke="midnightblue" d="M41.22,-145.45C27.64,-136.35 13.87,-124.16 6.4,-109 -1.86,-92.26 -2.27,-83.53 6.4,-67 14.84,-50.89 31.01,-38.91 45.99,-30.66"/>
<polygon fill="midnightblue" stroke="midnightblue" points="39.72,-148.63 50.05,-150.97 43.43,-142.7 39.72,-148.63"/>
</g>
<!-- Node4 -->
<g id="node4" class="node">
<title>Node4</title>
<g id="a_node4"><a xlink:href="xc__potential__matrix_8h.html" target="_top" xlink:title=" ">
<polygon fill="none" stroke="black" points="15.4,-67.5 15.4,-108.5 143.4,-108.5 143.4,-67.5 15.4,-67.5"/>
<text text-anchor="start" x="23.4" y="-96.5" font-family="Helvetica,sans-Serif" font-size="10.00">/home/runner/work/occ</text>
<text text-anchor="start" x="23.4" y="-85.5" font-family="Helvetica,sans-Serif" font-size="10.00">/occ/include/occ/dft</text>
<text text-anchor="middle" x="79.4" y="-74.5" font-family="Helvetica,sans-Serif" font-size="10.00">/xc_potential_matrix.h</text>
</a>
</g>
</g>
<!-- Node2&#45;&gt;Node4 -->
<g id="edge3" class="edge">
<title>Node2&#45;&gt;Node4</title>
<path fill="none" stroke="midnightblue" d="M79.4,-140.66C79.4,-130.33 79.4,-118.44 79.4,-108.68"/>
<polygon fill="midnightblue" stroke="midnightblue" points="75.9,-140.7 79.4,-150.7 82.9,-140.71 75.9,-140.7"/>
</g>
<!-- Node5 -->
<g id="node5" class="node">
<title>Node5</title>
<g id="a_node5"><a xlink:href="density_8h.html" target="_top" xlink:title=" ">
<polygon fill="none" stroke="black" points="161.4,-67.5 161.4,-108.5 289.4,-108.5 289.4,-67.5 161.4,-67.5"/>
<text text-anchor="start" x="169.4" y="-96.5" font-family="Helvetica,sans-Serif" font-size="10.00">/home/runner/work/occ</text>
<text text-anchor="start" x="169.4" y="-85.5" font-family="Helvetica,sans-Serif" font-size="10.00">/occ/include/occ/gto</text>
<text text-anchor="middle" x="225.4" y="-74.5" font-family="Helvetica,sans-Serif" font-size="10.00">/density.h</text>
</a>
</g>
</g>
<!-- Node2&#45;&gt;Node5 -->
<g id="edge5" class="edge">
<title>Node2&#45;&gt;Node5</title>
<path fill="none" stroke="midnightblue" d="M115.52,-146.2C137.47,-134.77 165.46,-120.2 187.69,-108.63"/>
<polygon fill="midnightblue" stroke="midnightblue" points="113.77,-143.16 106.52,-150.88 117,-149.37 113.77,-143.16"/>
</g>
<!-- Node4&#45;&gt;Node3 -->
<g id="edge4" class="edge">
<title>Node4&#45;&gt;Node3</title>
<path fill="none" stroke="midnightblue" d="M79.4,-57.08C79.4,-48.01 79.4,-38.45 79.4,-30.89"/>
<polygon fill="midnightblue" stroke="midnightblue" points="75.9,-57.36 79.4,-67.36 82.9,-57.36 75.9,-57.36"/>
</g>
<!-- Node5&#45;&gt;Node3 -->
<g id="edge6" class="edge">
<title>Node5&#45;&gt;Node3</title>
<path fill="none" stroke="midnightblue" d="M175.43,-62.87C153.22,-52.15 127.83,-39.89 108.74,-30.67"/>
<polygon fill="midnightblue" stroke="midnightblue" points="174.2,-66.17 184.73,-67.36 177.25,-59.86 174.2,-66.17"/>
</g>
</g>
</svg>
