<?xml version="1.0" encoding="UTF-8" standalone="no"?>
<!DOCTYPE svg PUBLIC "-//W3C//DTD SVG 1.1//EN"
 "http://www.w3.org/Graphics/SVG/1.1/DTD/svg11.dtd">
<!-- Generated by graphviz version 2.43.0 (0)
 -->
<!-- Title: /home/runner/work/occ/occ/include/occ/isosurface/logsumexp.h Pages: 1 -->
<svg width="2431pt" height="280pt"
 viewBox="0.00 0.00 2430.66 280.00" xmlns="http://www.w3.org/2000/svg" xmlns:xlink="http://www.w3.org/1999/xlink">
<g id="graph0" class="graph" transform="scale(1 1) rotate(0) translate(4 276)">
<title>/home/runner/work/occ/occ/include/occ/isosurface/logsumexp.h</title>
<!-- Node1 -->
<g id="Node000001" class="node">
<title>Node1</title>
<g id="a_Node000001"><a xlink:title=" ">
<polygon fill="#999999" stroke="#666666" points="848.66,-272 701.66,-272 701.66,-231 848.66,-231 848.66,-272"/>
<text text-anchor="start" x="709.66" y="-260" font-family="Helvetica,sans-Serif" font-size="10.00">/home/runner/work/occ</text>
<text text-anchor="start" x="709.66" y="-249" font-family="Helvetica,sans-Serif" font-size="10.00">/occ/include/occ/isosurface</text>
<text text-anchor="middle" x="775.16" y="-238" font-family="Helvetica,sans-Serif" font-size="10.00">/logsumexp.h</text>
</a>
</g>
</g>
<!-- Node2 -->
<g id="Node000002" class="node">
<title>Node2</title>
<g id="a_Node000002"><a xlink:title=" ">
<polygon fill="#e0e0e0" stroke="#999999" points="351.66,-19 282.66,-19 282.66,0 351.66,0 351.66,-19"/>
<text text-anchor="middle" x="317.16" y="-7" font-family="Helvetica,sans-Serif" font-size="10.00">Eigen/Core</text>
</a>
</g>
</g>
<!-- Node1&#45;&gt;Node2 -->
<g id="edge1_Node000001_Node000002" class="edge">
<title>Node1&#45;&gt;Node2</title>
<g id="a_edge1_Node000001_Node000002"><a xlink:title=" ">
<path fill="none" stroke="#63b8ff" d="M701.39,-245.39C518.77,-231.98 57.26,-193.09 14.16,-140 -58.62,-50.35 171.76,-21.56 272.47,-13.4"/>
<polygon fill="#63b8ff" stroke="#63b8ff" points="272.95,-16.87 282.65,-12.61 272.41,-9.89 272.95,-16.87"/>
</a>
</g>
</g>
<!-- Node3 -->
<g id="Node000003" class="node">
<title>Node3</title>
<g id="a_Node000003"><a xlink:href="molecule_8h.html" target="_top" xlink:title=" ">
<polygon fill="white" stroke="#666666" points="399.16,-195 285.16,-195 285.16,-176 399.16,-176 399.16,-195"/>
<text text-anchor="middle" x="342.16" y="-183" font-family="Helvetica,sans-Serif" font-size="10.00">occ/core/molecule.h</text>
</a>
</g>
</g>
<!-- Node1&#45;&gt;Node3 -->
<g id="edge2_Node000001_Node000003" class="edge">
<title>Node1&#45;&gt;Node3</title>
<g id="a_edge2_Node000001_Node000003"><a xlink:title=" ">
<path fill="none" stroke="#63b8ff" d="M701.22,-239.57C619.39,-227.48 488.64,-208.15 409.54,-196.46"/>
<polygon fill="#63b8ff" stroke="#63b8ff" points="409.61,-192.93 399.21,-194.93 408.59,-199.86 409.61,-192.93"/>
</a>
</g>
</g>
<!-- Node14 -->
<g id="Node000014" class="node">
<title>Node14</title>
<g id="a_Node000014"><a xlink:href="parallel_8h.html" target="_top" xlink:title=" ">
<polygon fill="white" stroke="#666666" points="1301.16,-195 1195.16,-195 1195.16,-176 1301.16,-176 1301.16,-195"/>
<text text-anchor="middle" x="1248.16" y="-183" font-family="Helvetica,sans-Serif" font-size="10.00">occ/core/parallel.h</text>
</a>
</g>
</g>
<!-- Node1&#45;&gt;Node14 -->
<g id="edge15_Node000001_Node000014" class="edge">
<title>Node1&#45;&gt;Node14</title>
<g id="a_edge15_Node000001_Node000014"><a xlink:title=" ">
<path fill="none" stroke="#63b8ff" d="M848.81,-240.54C941.1,-228.05 1097.71,-206.86 1184.86,-195.07"/>
<polygon fill="#63b8ff" stroke="#63b8ff" points="1185.43,-198.52 1194.87,-193.71 1184.5,-191.58 1185.43,-198.52"/>
</a>
</g>
</g>
<!-- Node28 -->
<g id="Node000028" class="node">
<title>Node28</title>
<g id="a_Node000028"><a xlink:href="common_8h.html" target="_top" xlink:title=" ">
<polygon fill="white" stroke="#666666" points="2210.66,-195 2069.66,-195 2069.66,-176 2210.66,-176 2210.66,-195"/>
<text text-anchor="middle" x="2140.16" y="-183" font-family="Helvetica,sans-Serif" font-size="10.00">occ/isosurface/common.h</text>
</a>
</g>
</g>
<!-- Node1&#45;&gt;Node28 -->
<g id="edge31_Node000001_Node000028" class="edge">
<title>Node1&#45;&gt;Node28</title>
<g id="a_edge31_Node000001_Node000028"><a xlink:title=" ">
<path fill="none" stroke="#63b8ff" d="M849.04,-247.04C1084.19,-236.01 1814.22,-201.78 2059.13,-190.3"/>
<polygon fill="#63b8ff" stroke="#63b8ff" points="2059.55,-193.78 2069.38,-189.82 2059.22,-186.79 2059.55,-193.78"/>
</a>
</g>
</g>
<!-- Node4 -->
<g id="Node000004" class="node">
<title>Node4</title>
<g id="a_Node000004"><a xlink:title=" ">
<polygon fill="#e0e0e0" stroke="#999999" points="189.16,-134.5 83.16,-134.5 83.16,-115.5 189.16,-115.5 189.16,-134.5"/>
<text text-anchor="middle" x="136.16" y="-122.5" font-family="Helvetica,sans-Serif" font-size="10.00">Eigen/Eigenvalues</text>
</a>
</g>
</g>
<!-- Node3&#45;&gt;Node4 -->
<g id="edge3_Node000003_Node000004" class="edge">
<title>Node3&#45;&gt;Node4</title>
<g id="a_edge3_Node000003_Node000004"><a xlink:title=" ">
<path fill="none" stroke="#63b8ff" d="M312.21,-175.99C276.2,-165.77 215.66,-148.58 175.81,-137.26"/>
<polygon fill="#63b8ff" stroke="#63b8ff" points="176.73,-133.88 166.15,-134.52 174.82,-140.62 176.73,-133.88"/>
</a>
</g>
</g>
<!-- Node5 -->
<g id="Node000005" class="node">
<title>Node5</title>
<g id="a_Node000005"><a xlink:title=" ">
<polygon fill="#e0e0e0" stroke="#999999" points="302.66,-134.5 207.66,-134.5 207.66,-115.5 302.66,-115.5 302.66,-134.5"/>
<text text-anchor="middle" x="255.16" y="-122.5" font-family="Helvetica,sans-Serif" font-size="10.00">Eigen/Geometry</text>
</a>
</g>
</g>
<!-- Node3&#45;&gt;Node5 -->
<g id="edge4_Node000003_Node000005" class="edge">
<title>Node3&#45;&gt;Node5</title>
<g id="a_edge4_Node000003_Node000005"><a xlink:title=" ">
<path fill="none" stroke="#63b8ff" d="M329.33,-175.87C315.45,-166.54 293.1,-151.51 276.55,-140.38"/>
<polygon fill="#63b8ff" stroke="#63b8ff" points="278.3,-137.34 268.05,-134.67 274.4,-143.15 278.3,-137.34"/>
</a>
</g>
</g>
<!-- Node6 -->
<g id="Node000006" class="node">
<title>Node6</title>
<g id="a_Node000006"><a xlink:title=" ">
<polygon fill="#e0e0e0" stroke="#999999" points="363.16,-134.5 321.16,-134.5 321.16,-115.5 363.16,-115.5 363.16,-134.5"/>
<text text-anchor="middle" x="342.16" y="-122.5" font-family="Helvetica,sans-Serif" font-size="10.00">array</text>
</a>
</g>
</g>
<!-- Node3&#45;&gt;Node6 -->
<g id="edge5_Node000003_Node000006" class="edge">
<title>Node3&#45;&gt;Node6</title>
<g id="a_edge5_Node000003_Node000006"><a xlink:title=" ">
<path fill="none" stroke="#63b8ff" d="M342.16,-175.87C342.16,-167.75 342.16,-155.31 342.16,-144.89"/>
<polygon fill="#63b8ff" stroke="#63b8ff" points="345.66,-144.67 342.16,-134.67 338.66,-144.67 345.66,-144.67"/>
</a>
</g>
</g>
<!-- Node7 -->
<g id="Node000007" class="node">
<title>Node7</title>
<g id="a_Node000007"><a xlink:href="atom_8h.html" target="_top" xlink:title=" ">
<polygon fill="white" stroke="#666666" points="728.66,-134.5 633.66,-134.5 633.66,-115.5 728.66,-115.5 728.66,-134.5"/>
<text text-anchor="middle" x="681.16" y="-122.5" font-family="Helvetica,sans-Serif" font-size="10.00">occ/core/atom.h</text>
</a>
</g>
</g>
<!-- Node3&#45;&gt;Node7 -->
<g id="edge6_Node000003_Node000007" class="edge">
<title>Node3&#45;&gt;Node7</title>
<g id="a_edge6_Node000003_Node000007"><a xlink:title=" ">
<path fill="none" stroke="#63b8ff" d="M399.4,-176.91C456.55,-169 546.79,-155.58 624.16,-140 628.85,-139.06 633.73,-137.99 638.58,-136.87"/>
<polygon fill="#63b8ff" stroke="#63b8ff" points="639.49,-140.26 648.42,-134.54 637.88,-133.44 639.49,-140.26"/>
</a>
</g>
</g>
<!-- Node10 -->
<g id="Node000010" class="node">
<title>Node10</title>
<g id="a_Node000010"><a xlink:href="element_8h.html" target="_top" xlink:title=" ">
<polygon fill="white" stroke="#666666" points="615.16,-134.5 505.16,-134.5 505.16,-115.5 615.16,-115.5 615.16,-134.5"/>
<text text-anchor="middle" x="560.16" y="-122.5" font-family="Helvetica,sans-Serif" font-size="10.00">occ/core/element.h</text>
</a>
</g>
</g>
<!-- Node3&#45;&gt;Node10 -->
<g id="edge10_Node000003_Node000010" class="edge">
<title>Node3&#45;&gt;Node10</title>
<g id="a_edge10_Node000003_Node000010"><a xlink:title=" ">
<path fill="none" stroke="#63b8ff" d="M373.86,-175.99C412.13,-165.73 476.57,-148.43 518.74,-137.12"/>
<polygon fill="#63b8ff" stroke="#63b8ff" points="519.67,-140.49 528.43,-134.52 517.86,-133.73 519.67,-140.49"/>
</a>
</g>
</g>
<!-- Node13 -->
<g id="Node000013" class="node">
<title>Node13</title>
<g id="a_Node000013"><a xlink:title=" ">
<polygon fill="#e0e0e0" stroke="#999999" points="64.66,-134.5 23.66,-134.5 23.66,-115.5 64.66,-115.5 64.66,-134.5"/>
<text text-anchor="middle" x="44.16" y="-122.5" font-family="Helvetica,sans-Serif" font-size="10.00">tuple</text>
</a>
</g>
</g>
<!-- Node3&#45;&gt;Node13 -->
<g id="edge14_Node000003_Node000013" class="edge">
<title>Node3&#45;&gt;Node13</title>
<g id="a_edge14_Node000003_Node000013"><a xlink:title=" ">
<path fill="none" stroke="#63b8ff" d="M284.92,-179.55C229.94,-173.73 145,-161.96 74.16,-140 72.72,-139.55 71.26,-139.05 69.8,-138.51"/>
<polygon fill="#63b8ff" stroke="#63b8ff" points="70.92,-135.18 60.35,-134.53 68.21,-141.64 70.92,-135.18"/>
</a>
</g>
</g>
<!-- Node8 -->
<g id="Node000008" class="node">
<title>Node8</title>
<g id="a_Node000008"><a xlink:href="linear__algebra_8h.html" target="_top" xlink:title=" ">
<polygon fill="white" stroke="#666666" points="778.66,-74 639.66,-74 639.66,-55 778.66,-55 778.66,-74"/>
<text text-anchor="middle" x="709.16" y="-62" font-family="Helvetica,sans-Serif" font-size="10.00">occ/core/linear_algebra.h</text>
</a>
</g>
</g>
<!-- Node7&#45;&gt;Node8 -->
<g id="edge7_Node000007_Node000008" class="edge">
<title>Node7&#45;&gt;Node8</title>
<g id="a_edge7_Node000007_Node000008"><a xlink:title=" ">
<path fill="none" stroke="#63b8ff" d="M685.29,-115.37C689.31,-106.99 695.52,-94.01 700.6,-83.39"/>
<polygon fill="#63b8ff" stroke="#63b8ff" points="703.85,-84.7 705.02,-74.17 697.54,-81.68 703.85,-84.7"/>
</a>
</g>
</g>
<!-- Node8&#45;&gt;Node2 -->
<g id="edge8_Node000008_Node000002" class="edge">
<title>Node8&#45;&gt;Node2</title>
<g id="a_edge8_Node000008_Node000002"><a xlink:title=" ">
<path fill="none" stroke="#63b8ff" d="M646.18,-54.98C566.62,-44.23 431.68,-25.98 361.91,-16.55"/>
<polygon fill="#63b8ff" stroke="#63b8ff" points="362.08,-13.04 351.7,-15.17 361.14,-19.98 362.08,-13.04"/>
</a>
</g>
</g>
<!-- Node9 -->
<g id="Node000009" class="node">
<title>Node9</title>
<g id="a_Node000009"><a xlink:title=" ">
<polygon fill="#e0e0e0" stroke="#999999" points="755.66,-19 662.66,-19 662.66,0 755.66,0 755.66,-19"/>
<text text-anchor="middle" x="709.16" y="-7" font-family="Helvetica,sans-Serif" font-size="10.00">Eigen/StdVector</text>
</a>
</g>
</g>
<!-- Node8&#45;&gt;Node9 -->
<g id="edge9_Node000008_Node000009" class="edge">
<title>Node8&#45;&gt;Node9</title>
<g id="a_edge9_Node000008_Node000009"><a xlink:title=" ">
<path fill="none" stroke="#63b8ff" d="M709.16,-54.75C709.16,-47.8 709.16,-37.85 709.16,-29.13"/>
<polygon fill="#63b8ff" stroke="#63b8ff" points="712.66,-29.09 709.16,-19.09 705.66,-29.09 712.66,-29.09"/>
</a>
</g>
</g>
<!-- Node10&#45;&gt;Node8 -->
<g id="edge13_Node000010_Node000008" class="edge">
<title>Node10&#45;&gt;Node8</title>
<g id="a_edge13_Node000010_Node000008"><a xlink:title=" ">
<path fill="none" stroke="#63b8ff" d="M581.83,-115.49C607.1,-105.57 649.08,-89.09 677.88,-77.78"/>
<polygon fill="#63b8ff" stroke="#63b8ff" points="679.44,-80.93 687.47,-74.02 676.88,-74.41 679.44,-80.93"/>
</a>
</g>
</g>
<!-- Node11 -->
<g id="Node000011" class="node">
<title>Node11</title>
<g id="a_Node000011"><a xlink:title=" ">
<polygon fill="#e0e0e0" stroke="#999999" points="553.16,-74 509.16,-74 509.16,-55 553.16,-55 553.16,-74"/>
<text text-anchor="middle" x="531.16" y="-62" font-family="Helvetica,sans-Serif" font-size="10.00">string</text>
</a>
</g>
</g>
<!-- Node10&#45;&gt;Node11 -->
<g id="edge11_Node000010_Node000011" class="edge">
<title>Node10&#45;&gt;Node11</title>
<g id="a_edge11_Node000010_Node000011"><a xlink:title=" ">
<path fill="none" stroke="#63b8ff" d="M555.88,-115.37C551.73,-106.99 545.3,-94.01 540.03,-83.39"/>
<polygon fill="#63b8ff" stroke="#63b8ff" points="543.04,-81.57 535.46,-74.17 536.77,-84.68 543.04,-81.57"/>
</a>
</g>
</g>
<!-- Node12 -->
<g id="Node000012" class="node">
<title>Node12</title>
<g id="a_Node000012"><a xlink:title=" ">
<polygon fill="#e0e0e0" stroke="#999999" points="621.66,-74 574.66,-74 574.66,-55 621.66,-55 621.66,-74"/>
<text text-anchor="middle" x="598.16" y="-62" font-family="Helvetica,sans-Serif" font-size="10.00">vector</text>
</a>
</g>
</g>
<!-- Node10&#45;&gt;Node12 -->
<g id="edge12_Node000010_Node000012" class="edge">
<title>Node10&#45;&gt;Node12</title>
<g id="a_edge12_Node000010_Node000012"><a xlink:title=" ">
<path fill="none" stroke="#63b8ff" d="M565.77,-115.37C571.33,-106.81 579.99,-93.47 586.96,-82.74"/>
<polygon fill="#63b8ff" stroke="#63b8ff" points="590.02,-84.46 592.53,-74.17 584.15,-80.65 590.02,-84.46"/>
</a>
</g>
</g>
<!-- Node14&#45;&gt;Node12 -->
<g id="edge23_Node000014_Node000012" class="edge">
<title>Node14&#45;&gt;Node12</title>
<g id="a_edge23_Node000014_Node000012"><a xlink:title=" ">
<path fill="none" stroke="#63b8ff" d="M1194.9,-183.18C1088.03,-179.93 851.22,-169.53 776.16,-140 755.81,-131.99 756.53,-120.15 737.16,-110 718.68,-100.31 666.42,-84.66 631.52,-74.74"/>
<polygon fill="#63b8ff" stroke="#63b8ff" points="632.31,-71.33 621.73,-71.98 630.41,-78.06 632.31,-71.33"/>
</a>
</g>
</g>
<!-- Node15 -->
<g id="Node000015" class="node">
<title>Node15</title>
<g id="a_Node000015"><a xlink:title=" ">
<polygon fill="#e0e0e0" stroke="#999999" points="1241.16,-134.5 1177.16,-134.5 1177.16,-115.5 1241.16,-115.5 1241.16,-134.5"/>
<text text-anchor="middle" x="1209.16" y="-122.5" font-family="Helvetica,sans-Serif" font-size="10.00">algorithm</text>
</a>
</g>
</g>
<!-- Node14&#45;&gt;Node15 -->
<g id="edge16_Node000014_Node000015" class="edge">
<title>Node14&#45;&gt;Node15</title>
<g id="a_edge16_Node000014_Node000015"><a xlink:title=" ">
<path fill="none" stroke="#63b8ff" d="M1242.41,-175.87C1236.71,-167.31 1227.81,-153.97 1220.66,-143.24"/>
<polygon fill="#63b8ff" stroke="#63b8ff" points="1223.4,-141.05 1214.94,-134.67 1217.58,-144.93 1223.4,-141.05"/>
</a>
</g>
</g>
<!-- Node16 -->
<g id="Node000016" class="node">
<title>Node16</title>
<g id="a_Node000016"><a xlink:title=" ">
<polygon fill="#e0e0e0" stroke="#999999" points="1317.16,-134.5 1259.16,-134.5 1259.16,-115.5 1317.16,-115.5 1317.16,-134.5"/>
<text text-anchor="middle" x="1288.16" y="-122.5" font-family="Helvetica,sans-Serif" font-size="10.00">memory</text>
</a>
</g>
</g>
<!-- Node14&#45;&gt;Node16 -->
<g id="edge17_Node000014_Node000016" class="edge">
<title>Node14&#45;&gt;Node16</title>
<g id="a_edge17_Node000014_Node000016"><a xlink:title=" ">
<path fill="none" stroke="#63b8ff" d="M1254.07,-175.87C1259.91,-167.31 1269.04,-153.97 1276.38,-143.24"/>
<polygon fill="#63b8ff" stroke="#63b8ff" points="1279.48,-144.9 1282.24,-134.67 1273.7,-140.95 1279.48,-144.9"/>
</a>
</g>
</g>
<!-- Node17 -->
<g id="Node000017" class="node">
<title>Node17</title>
<g id="a_Node000017"><a xlink:href="timings_8h.html" target="_top" xlink:title=" ">
<polygon fill="white" stroke="#666666" points="487.16,-134.5 381.16,-134.5 381.16,-115.5 487.16,-115.5 487.16,-134.5"/>
<text text-anchor="middle" x="434.16" y="-122.5" font-family="Helvetica,sans-Serif" font-size="10.00">occ/core/timings.h</text>
</a>
</g>
</g>
<!-- Node14&#45;&gt;Node17 -->
<g id="edge18_Node000014_Node000017" class="edge">
<title>Node14&#45;&gt;Node17</title>
<g id="a_edge18_Node000014_Node000017"><a xlink:title=" ">
<path fill="none" stroke="#63b8ff" d="M1194.99,-184.32C1071.59,-183.26 756.45,-176.84 496.16,-140 490.14,-139.15 483.84,-138.01 477.66,-136.76"/>
<polygon fill="#63b8ff" stroke="#63b8ff" points="477.96,-133.24 467.44,-134.56 476.48,-140.09 477.96,-133.24"/>
</a>
</g>
</g>
<!-- Node19 -->
<g id="Node000019" class="node">
<title>Node19</title>
<g id="a_Node000019"><a xlink:title=" ">
<polygon fill="#e0e0e0" stroke="#999999" points="1383.16,-134.5 1335.16,-134.5 1335.16,-115.5 1383.16,-115.5 1383.16,-134.5"/>
<text text-anchor="middle" x="1359.16" y="-122.5" font-family="Helvetica,sans-Serif" font-size="10.00">thread</text>
</a>
</g>
</g>
<!-- Node14&#45;&gt;Node19 -->
<g id="edge21_Node000014_Node000019" class="edge">
<title>Node14&#45;&gt;Node19</title>
<g id="a_edge21_Node000014_Node000019"><a xlink:title=" ">
<path fill="none" stroke="#63b8ff" d="M1264.54,-175.87C1282.74,-166.28 1312.36,-150.67 1333.61,-139.47"/>
<polygon fill="#63b8ff" stroke="#63b8ff" points="1335.5,-142.43 1342.72,-134.67 1332.24,-136.23 1335.5,-142.43"/>
</a>
</g>
</g>
<!-- Node20 -->
<g id="Node000020" class="node">
<title>Node20</title>
<g id="a_Node000020"><a xlink:title=" ">
<polygon fill="#e0e0e0" stroke="#999999" points="1470.66,-134.5 1401.66,-134.5 1401.66,-115.5 1470.66,-115.5 1470.66,-134.5"/>
<text text-anchor="middle" x="1436.16" y="-122.5" font-family="Helvetica,sans-Serif" font-size="10.00">type_traits</text>
</a>
</g>
</g>
<!-- Node14&#45;&gt;Node20 -->
<g id="edge22_Node000014_Node000020" class="edge">
<title>Node14&#45;&gt;Node20</title>
<g id="a_edge22_Node000014_Node000020"><a xlink:title=" ">
<path fill="none" stroke="#63b8ff" d="M1276.06,-175.95C1305.08,-167.05 1351.84,-152.65 1392.16,-140 1394.57,-139.24 1397.06,-138.46 1399.56,-137.67"/>
<polygon fill="#63b8ff" stroke="#63b8ff" points="1400.71,-140.98 1409.18,-134.62 1398.59,-134.31 1400.71,-140.98"/>
</a>
</g>
</g>
<!-- Node21 -->
<g id="Node000021" class="node">
<title>Node21</title>
<g id="a_Node000021"><a xlink:title=" ">
<polygon fill="#e0e0e0" stroke="#999999" points="1603.66,-134.5 1488.66,-134.5 1488.66,-115.5 1603.66,-115.5 1603.66,-134.5"/>
<text text-anchor="middle" x="1546.16" y="-122.5" font-family="Helvetica,sans-Serif" font-size="10.00">tbb/blocked_range.h</text>
</a>
</g>
</g>
<!-- Node14&#45;&gt;Node21 -->
<g id="edge24_Node000014_Node000021" class="edge">
<title>Node14&#45;&gt;Node21</title>
<g id="a_edge24_Node000014_Node000021"><a xlink:title=" ">
<path fill="none" stroke="#63b8ff" d="M1293.79,-175.93C1340.41,-167.12 1414.9,-152.9 1479.16,-140 1484.55,-138.92 1490.18,-137.77 1495.79,-136.62"/>
<polygon fill="#63b8ff" stroke="#63b8ff" points="1496.71,-140 1505.79,-134.54 1495.29,-133.14 1496.71,-140"/>
</a>
</g>
</g>
<!-- Node22 -->
<g id="Node000022" class="node">
<title>Node22</title>
<g id="a_Node000022"><a xlink:title=" ">
<polygon fill="#e0e0e0" stroke="#999999" points="1748.66,-134.5 1621.66,-134.5 1621.66,-115.5 1748.66,-115.5 1748.66,-134.5"/>
<text text-anchor="middle" x="1685.16" y="-122.5" font-family="Helvetica,sans-Serif" font-size="10.00">tbb/blocked_range2d.h</text>
</a>
</g>
</g>
<!-- Node14&#45;&gt;Node22 -->
<g id="edge25_Node000014_Node000022" class="edge">
<title>Node14&#45;&gt;Node22</title>
<g id="a_edge25_Node000014_Node000022"><a xlink:title=" ">
<path fill="none" stroke="#63b8ff" d="M1301.37,-179.14C1372.41,-171.72 1502.1,-157.26 1612.16,-140 1618.93,-138.94 1626.03,-137.72 1633.03,-136.44"/>
<polygon fill="#63b8ff" stroke="#63b8ff" points="1633.98,-139.83 1643.17,-134.56 1632.7,-132.95 1633.98,-139.83"/>
</a>
</g>
</g>
<!-- Node23 -->
<g id="Node000023" class="node">
<title>Node23</title>
<g id="a_Node000023"><a xlink:title=" ">
<polygon fill="#e0e0e0" stroke="#999999" points="1897.66,-140 1766.66,-140 1766.66,-110 1897.66,-110 1897.66,-140"/>
<text text-anchor="start" x="1774.66" y="-128" font-family="Helvetica,sans-Serif" font-size="10.00">tbb/enumerable_thread</text>
<text text-anchor="middle" x="1832.16" y="-117" font-family="Helvetica,sans-Serif" font-size="10.00">_specific.h</text>
</a>
</g>
</g>
<!-- Node14&#45;&gt;Node23 -->
<g id="edge26_Node000014_Node000023" class="edge">
<title>Node14&#45;&gt;Node23</title>
<g id="a_edge26_Node000014_Node000023"><a xlink:title=" ">
<path fill="none" stroke="#63b8ff" d="M1301.48,-181.55C1392.59,-176.14 1584.24,-163.13 1756.37,-140.01"/>
<polygon fill="#63b8ff" stroke="#63b8ff" points="1756.93,-143.47 1766.37,-138.66 1755.99,-136.53 1756.93,-143.47"/>
</a>
</g>
</g>
<!-- Node24 -->
<g id="Node000024" class="node">
<title>Node24</title>
<g id="a_Node000024"><a xlink:title=" ">
<polygon fill="#e0e0e0" stroke="#999999" points="2028.66,-134.5 1915.66,-134.5 1915.66,-115.5 2028.66,-115.5 2028.66,-134.5"/>
<text text-anchor="middle" x="1972.16" y="-122.5" font-family="Helvetica,sans-Serif" font-size="10.00">tbb/global_control.h</text>
</a>
</g>
</g>
<!-- Node14&#45;&gt;Node24 -->
<g id="edge27_Node000014_Node000024" class="edge">
<title>Node14&#45;&gt;Node24</title>
<g id="a_edge27_Node000014_Node000024"><a xlink:title=" ">
<path fill="none" stroke="#63b8ff" d="M1301.31,-183.45C1413.53,-180.68 1682.76,-171.09 1906.16,-140 1912.79,-139.08 1919.74,-137.87 1926.55,-136.55"/>
<polygon fill="#63b8ff" stroke="#63b8ff" points="1927.26,-139.98 1936.36,-134.56 1925.86,-133.12 1927.26,-139.98"/>
</a>
</g>
</g>
<!-- Node25 -->
<g id="Node000025" class="node">
<title>Node25</title>
<g id="a_Node000025"><a xlink:title=" ">
<polygon fill="#e0e0e0" stroke="#999999" points="884.66,-134.5 785.66,-134.5 785.66,-115.5 884.66,-115.5 884.66,-134.5"/>
<text text-anchor="middle" x="835.16" y="-122.5" font-family="Helvetica,sans-Serif" font-size="10.00">tbb/parallel_for.h</text>
</a>
</g>
</g>
<!-- Node14&#45;&gt;Node25 -->
<g id="edge28_Node000014_Node000025" class="edge">
<title>Node14&#45;&gt;Node25</title>
<g id="a_edge28_Node000014_Node000025"><a xlink:title=" ">
<path fill="none" stroke="#63b8ff" d="M1194.95,-179.71C1125.27,-173.01 999.48,-159.43 893.16,-140 888.13,-139.08 882.89,-138 877.7,-136.84"/>
<polygon fill="#63b8ff" stroke="#63b8ff" points="878.38,-133.41 867.85,-134.57 876.8,-140.23 878.38,-133.41"/>
</a>
</g>
</g>
<!-- Node26 -->
<g id="Node000026" class="node">
<title>Node26</title>
<g id="a_Node000026"><a xlink:title=" ">
<polygon fill="#e0e0e0" stroke="#999999" points="1021.66,-134.5 902.66,-134.5 902.66,-115.5 1021.66,-115.5 1021.66,-134.5"/>
<text text-anchor="middle" x="962.16" y="-122.5" font-family="Helvetica,sans-Serif" font-size="10.00">tbb/parallel_invoke.h</text>
</a>
</g>
</g>
<!-- Node14&#45;&gt;Node26 -->
<g id="edge29_Node000014_Node000026" class="edge">
<title>Node14&#45;&gt;Node26</title>
<g id="a_edge29_Node000014_Node000026"><a xlink:title=" ">
<path fill="none" stroke="#63b8ff" d="M1206.37,-175.99C1162.48,-167.05 1091.47,-152.57 1030.16,-140 1024.78,-138.9 1019.15,-137.74 1013.54,-136.59"/>
<polygon fill="#63b8ff" stroke="#63b8ff" points="1014.02,-133.11 1003.52,-134.53 1012.6,-139.97 1014.02,-133.11"/>
</a>
</g>
</g>
<!-- Node27 -->
<g id="Node000027" class="node">
<title>Node27</title>
<g id="a_Node000027"><a xlink:title=" ">
<polygon fill="#e0e0e0" stroke="#999999" points="1158.66,-134.5 1039.66,-134.5 1039.66,-115.5 1158.66,-115.5 1158.66,-134.5"/>
<text text-anchor="middle" x="1099.16" y="-122.5" font-family="Helvetica,sans-Serif" font-size="10.00">tbb/parallel_reduce.h</text>
</a>
</g>
</g>
<!-- Node14&#45;&gt;Node27 -->
<g id="edge30_Node000014_Node000027" class="edge">
<title>Node14&#45;&gt;Node27</title>
<g id="a_edge30_Node000014_Node000027"><a xlink:title=" ">
<path fill="none" stroke="#63b8ff" d="M1226.5,-175.99C1201.23,-166.07 1159.25,-149.59 1130.45,-138.28"/>
<polygon fill="#63b8ff" stroke="#63b8ff" points="1131.44,-134.91 1120.86,-134.52 1128.88,-141.43 1131.44,-134.91"/>
</a>
</g>
</g>
<!-- Node17&#45;&gt;Node11 -->
<g id="edge20_Node000017_Node000011" class="edge">
<title>Node17&#45;&gt;Node11</title>
<g id="a_edge20_Node000017_Node000011"><a xlink:title=" ">
<path fill="none" stroke="#63b8ff" d="M448.48,-115.37C464.16,-105.91 489.56,-90.59 508.08,-79.42"/>
<polygon fill="#63b8ff" stroke="#63b8ff" points="510.04,-82.33 516.79,-74.17 506.42,-76.33 510.04,-82.33"/>
</a>
</g>
</g>
<!-- Node18 -->
<g id="Node000018" class="node">
<title>Node18</title>
<g id="a_Node000018"><a xlink:title=" ">
<polygon fill="#e0e0e0" stroke="#999999" points="459.16,-74 409.16,-74 409.16,-55 459.16,-55 459.16,-74"/>
<text text-anchor="middle" x="434.16" y="-62" font-family="Helvetica,sans-Serif" font-size="10.00">chrono</text>
</a>
</g>
</g>
<!-- Node17&#45;&gt;Node18 -->
<g id="edge19_Node000017_Node000018" class="edge">
<title>Node17&#45;&gt;Node18</title>
<g id="a_edge19_Node000017_Node000018"><a xlink:title=" ">
<path fill="none" stroke="#63b8ff" d="M434.16,-115.37C434.16,-107.25 434.16,-94.81 434.16,-84.39"/>
<polygon fill="#63b8ff" stroke="#63b8ff" points="437.66,-84.17 434.16,-74.17 430.66,-84.17 437.66,-84.17"/>
</a>
</g>
</g>
<!-- Node28&#45;&gt;Node8 -->
<g id="edge37_Node000028_Node000008" class="edge">
<title>Node28&#45;&gt;Node8</title>
<g id="a_edge37_Node000028_Node000008"><a xlink:title=" ">
<path fill="none" stroke="#63b8ff" d="M2135.16,-175.49C2125.37,-158.93 2101.96,-124.05 2071.16,-110 2012.7,-83.32 1072.03,-69.87 789.07,-66.41"/>
<polygon fill="#63b8ff" stroke="#63b8ff" points="788.92,-62.91 778.88,-66.29 788.84,-69.91 788.92,-62.91"/>
</a>
</g>
</g>
<!-- Node28&#45;&gt;Node12 -->
<g id="edge42_Node000028_Node000012" class="edge">
<title>Node28&#45;&gt;Node12</title>
<g id="a_edge42_Node000028_Node000012"><a xlink:title=" ">
<path fill="none" stroke="#63b8ff" d="M2125.47,-175.9C2111.2,-167.36 2089.12,-153.59 2071.16,-140 2055.09,-127.84 2055.92,-117.37 2037.16,-110 1894.31,-53.89 825.7,-94.65 631.85,-73.69"/>
<polygon fill="#63b8ff" stroke="#63b8ff" points="632.16,-70.21 621.8,-72.44 631.29,-77.15 632.16,-70.21"/>
</a>
</g>
</g>
<!-- Node29 -->
<g id="Node000029" class="node">
<title>Node29</title>
<g id="a_Node000029"><a xlink:href="interpolator_8h.html" target="_top" xlink:title=" ">
<polygon fill="white" stroke="#666666" points="2248.66,-134.5 2123.66,-134.5 2123.66,-115.5 2248.66,-115.5 2248.66,-134.5"/>
<text text-anchor="middle" x="2186.16" y="-122.5" font-family="Helvetica,sans-Serif" font-size="10.00">occ/core/interpolator.h</text>
</a>
</g>
</g>
<!-- Node28&#45;&gt;Node29 -->
<g id="edge32_Node000028_Node000029" class="edge">
<title>Node28&#45;&gt;Node29</title>
<g id="a_edge32_Node000028_Node000029"><a xlink:title=" ">
<path fill="none" stroke="#63b8ff" d="M2146.95,-175.87C2153.81,-167.14 2164.59,-153.43 2173.12,-142.59"/>
<polygon fill="#63b8ff" stroke="#63b8ff" points="2175.92,-144.69 2179.35,-134.67 2170.42,-140.36 2175.92,-144.69"/>
</a>
</g>
</g>
<!-- Node33 -->
<g id="Node000033" class="node">
<title>Node33</title>
<g id="a_Node000033"><a xlink:href="units_8h.html" target="_top" xlink:title=" ">
<polygon fill="white" stroke="#666666" points="2359.66,-134.5 2266.66,-134.5 2266.66,-115.5 2359.66,-115.5 2359.66,-134.5"/>
<text text-anchor="middle" x="2313.16" y="-122.5" font-family="Helvetica,sans-Serif" font-size="10.00">occ/core/units.h</text>
</a>
</g>
</g>
<!-- Node28&#45;&gt;Node33 -->
<g id="edge38_Node000028_Node000033" class="edge">
<title>Node28&#45;&gt;Node33</title>
<g id="a_edge38_Node000028_Node000033"><a xlink:title=" ">
<path fill="none" stroke="#63b8ff" d="M2165.32,-175.99C2195.04,-165.94 2244.68,-149.16 2278.15,-137.84"/>
<polygon fill="#63b8ff" stroke="#63b8ff" points="2279.63,-141.04 2287.98,-134.52 2277.38,-134.4 2279.63,-141.04"/>
</a>
</g>
</g>
<!-- Node35 -->
<g id="Node000035" class="node">
<title>Node35</title>
<g id="a_Node000035"><a xlink:title=" ">
<polygon fill="#e0e0e0" stroke="#999999" points="2422.66,-134.5 2377.66,-134.5 2377.66,-115.5 2422.66,-115.5 2422.66,-134.5"/>
<text text-anchor="middle" x="2400.16" y="-122.5" font-family="Helvetica,sans-Serif" font-size="10.00">utility</text>
</a>
</g>
</g>
<!-- Node28&#45;&gt;Node35 -->
<g id="edge41_Node000028_Node000035" class="edge">
<title>Node28&#45;&gt;Node35</title>
<g id="a_edge41_Node000028_Node000035"><a xlink:title=" ">
<path fill="none" stroke="#63b8ff" d="M2205.33,-175.96C2251.71,-168.89 2315.13,-157.19 2369.16,-140 2370.61,-139.54 2372.07,-139.03 2373.54,-138.49"/>
<polygon fill="#63b8ff" stroke="#63b8ff" points="2375.14,-141.62 2383.06,-134.58 2372.48,-135.14 2375.14,-141.62"/>
</a>
</g>
</g>
<!-- Node29&#45;&gt;Node8 -->
<g id="edge35_Node000029_Node000008" class="edge">
<title>Node29&#45;&gt;Node8</title>
<g id="a_edge35_Node000029_Node000008"><a xlink:title=" ">
<path fill="none" stroke="#63b8ff" d="M2145.57,-115.46C2133.87,-113.31 2121.05,-111.26 2109.16,-110 1850.4,-82.52 1045.84,-69.88 788.9,-66.48"/>
<polygon fill="#63b8ff" stroke="#63b8ff" points="788.94,-62.98 778.9,-66.35 788.85,-69.98 788.94,-62.98"/>
</a>
</g>
</g>
<!-- Node30 -->
<g id="Node000030" class="node">
<title>Node30</title>
<g id="a_Node000030"><a xlink:title=" ">
<polygon fill="#e0e0e0" stroke="#999999" points="2284.66,-74 2237.66,-74 2237.66,-55 2284.66,-55 2284.66,-74"/>
<text text-anchor="middle" x="2261.16" y="-62" font-family="Helvetica,sans-Serif" font-size="10.00">cmath</text>
</a>
</g>
</g>
<!-- Node29&#45;&gt;Node30 -->
<g id="edge33_Node000029_Node000030" class="edge">
<title>Node29&#45;&gt;Node30</title>
<g id="a_edge33_Node000029_Node000030"><a xlink:title=" ">
<path fill="none" stroke="#63b8ff" d="M2197.23,-115.37C2208.97,-106.21 2227.75,-91.56 2241.93,-80.51"/>
<polygon fill="#63b8ff" stroke="#63b8ff" points="2244.32,-83.08 2250.05,-74.17 2240.01,-77.56 2244.32,-83.08"/>
</a>
</g>
</g>
<!-- Node31 -->
<g id="Node000031" class="node">
<title>Node31</title>
<g id="a_Node000031"><a xlink:title=" ">
<polygon fill="#e0e0e0" stroke="#999999" points="2219.66,-74 2152.66,-74 2152.66,-55 2219.66,-55 2219.66,-74"/>
<text text-anchor="middle" x="2186.16" y="-62" font-family="Helvetica,sans-Serif" font-size="10.00">fmt/core.h</text>
</a>
</g>
</g>
<!-- Node29&#45;&gt;Node31 -->
<g id="edge34_Node000029_Node000031" class="edge">
<title>Node29&#45;&gt;Node31</title>
<g id="a_edge34_Node000029_Node000031"><a xlink:title=" ">
<path fill="none" stroke="#63b8ff" d="M2186.16,-115.37C2186.16,-107.25 2186.16,-94.81 2186.16,-84.39"/>
<polygon fill="#63b8ff" stroke="#63b8ff" points="2189.66,-84.17 2186.16,-74.17 2182.66,-84.17 2189.66,-84.17"/>
</a>
</g>
</g>
<!-- Node32 -->
<g id="Node000032" class="node">
<title>Node32</title>
<g id="a_Node000032"><a xlink:href="macros_8h.html" target="_top" xlink:title=" ">
<polygon fill="white" stroke="#666666" points="2134.66,-74 2029.66,-74 2029.66,-55 2134.66,-55 2134.66,-74"/>
<text text-anchor="middle" x="2082.16" y="-62" font-family="Helvetica,sans-Serif" font-size="10.00">occ/core/macros.h</text>
</a>
</g>
</g>
<!-- Node29&#45;&gt;Node32 -->
<g id="edge36_Node000029_Node000032" class="edge">
<title>Node29&#45;&gt;Node32</title>
<g id="a_edge36_Node000029_Node000032"><a xlink:title=" ">
<path fill="none" stroke="#63b8ff" d="M2170.82,-115.37C2153.84,-105.82 2126.27,-90.31 2106.37,-79.12"/>
<polygon fill="#63b8ff" stroke="#63b8ff" points="2108,-76.02 2097.57,-74.17 2104.57,-82.12 2108,-76.02"/>
</a>
</g>
</g>
<!-- Node33&#45;&gt;Node30 -->
<g id="edge39_Node000033_Node000030" class="edge">
<title>Node33&#45;&gt;Node30</title>
<g id="a_edge39_Node000033_Node000030"><a xlink:title=" ">
<path fill="none" stroke="#63b8ff" d="M2305.49,-115.37C2297.66,-106.55 2285.3,-92.66 2275.63,-81.77"/>
<polygon fill="#63b8ff" stroke="#63b8ff" points="2278.13,-79.32 2268.87,-74.17 2272.9,-83.97 2278.13,-79.32"/>
</a>
</g>
</g>
<!-- Node34 -->
<g id="Node000034" class="node">
<title>Node34</title>
<g id="a_Node000034"><a xlink:href="constants_8h.html" target="_top" xlink:title=" ">
<polygon fill="white" stroke="#666666" points="2419.16,-74 2303.16,-74 2303.16,-55 2419.16,-55 2419.16,-74"/>
<text text-anchor="middle" x="2361.16" y="-62" font-family="Helvetica,sans-Serif" font-size="10.00">occ/core/constants.h</text>
</a>
</g>
</g>
<!-- Node33&#45;&gt;Node34 -->
<g id="edge40_Node000033_Node000034" class="edge">
<title>Node33&#45;&gt;Node34</title>
<g id="a_edge40_Node000033_Node000034"><a xlink:title=" ">
<path fill="none" stroke="#63b8ff" d="M2320.25,-115.37C2327.41,-106.64 2338.66,-92.93 2347.55,-82.09"/>
<polygon fill="#63b8ff" stroke="#63b8ff" points="2350.41,-84.12 2354.05,-74.17 2345,-79.68 2350.41,-84.12"/>
</a>
</g>
</g>
</g>
</svg>
