<?xml version="1.0" encoding="UTF-8" standalone="no"?>
<!DOCTYPE svg PUBLIC "-//W3C//DTD SVG 1.1//EN"
 "http://www.w3.org/Graphics/SVG/1.1/DTD/svg11.dtd">
<!-- Generated by graphviz version 2.43.0 (0)
 -->
<!-- Title: /home/runner/work/occ/occ/include/occ/isosurface/logsumexp.h Pages: 1 -->
<svg width="1039pt" height="269pt"
 viewBox="0.00 0.00 1039.00 269.00" xmlns="http://www.w3.org/2000/svg" xmlns:xlink="http://www.w3.org/1999/xlink">
<g id="graph0" class="graph" transform="scale(1 1) rotate(0) translate(4 265)">
<title>/home/runner/work/occ/occ/include/occ/isosurface/logsumexp.h</title>
<!-- Node1 -->
<g id="Node000001" class="node">
<title>Node1</title>
<g id="a_Node000001"><a xlink:title=" ">
<polygon fill="#999999" stroke="#666666" points="361.5,-261 214.5,-261 214.5,-220 361.5,-220 361.5,-261"/>
<text text-anchor="start" x="222.5" y="-249" font-family="Helvetica,sans-Serif" font-size="10.00">/home/runner/work/occ</text>
<text text-anchor="start" x="222.5" y="-238" font-family="Helvetica,sans-Serif" font-size="10.00">/occ/include/occ/isosurface</text>
<text text-anchor="middle" x="288" y="-227" font-family="Helvetica,sans-Serif" font-size="10.00">/logsumexp.h</text>
</a>
</g>
</g>
<!-- Node2 -->
<g id="Node000002" class="node">
<title>Node2</title>
<g id="a_Node000002"><a xlink:title=" ">
<polygon fill="#e0e0e0" stroke="#999999" points="128.5,-184 59.5,-184 59.5,-165 128.5,-165 128.5,-184"/>
<text text-anchor="middle" x="94" y="-172" font-family="Helvetica,sans-Serif" font-size="10.00">Eigen/Core</text>
</a>
</g>
</g>
<!-- Node1&#45;&gt;Node2 -->
<g id="edge1_Node000001_Node000002" class="edge">
<title>Node1&#45;&gt;Node2</title>
<g id="a_edge1_Node000001_Node000002"><a xlink:title=" ">
<path fill="none" stroke="#63b8ff" d="M228.74,-219.95C196.29,-209.24 157.16,-196.34 129.45,-187.19"/>
<polygon fill="#63b8ff" stroke="#63b8ff" points="130.38,-183.82 119.79,-184.01 128.19,-190.46 130.38,-183.82"/>
</a>
</g>
</g>
<!-- Node3 -->
<g id="Node000003" class="node">
<title>Node3</title>
<g id="a_Node000003"><a xlink:href="molecule_8h.html" target="_top" xlink:title=" ">
<polygon fill="white" stroke="#666666" points="464,-184 350,-184 350,-165 464,-165 464,-184"/>
<text text-anchor="middle" x="407" y="-172" font-family="Helvetica,sans-Serif" font-size="10.00">occ/core/molecule.h</text>
</a>
</g>
</g>
<!-- Node1&#45;&gt;Node3 -->
<g id="edge2_Node000001_Node000003" class="edge">
<title>Node1&#45;&gt;Node3</title>
<g id="a_edge2_Node000001_Node000003"><a xlink:title=" ">
<path fill="none" stroke="#63b8ff" d="M324.35,-219.95C342.98,-209.93 365.19,-197.99 381.89,-189"/>
<polygon fill="#63b8ff" stroke="#63b8ff" points="383.88,-191.91 391.02,-184.09 380.56,-185.75 383.88,-191.91"/>
</a>
</g>
</g>
<!-- Node14 -->
<g id="Node000014" class="node">
<title>Node14</title>
<g id="a_Node000014"><a xlink:href="parallel_8h.html" target="_top" xlink:title=" ">
<polygon fill="white" stroke="#666666" points="253,-184 147,-184 147,-165 253,-165 253,-184"/>
<text text-anchor="middle" x="200" y="-172" font-family="Helvetica,sans-Serif" font-size="10.00">occ/core/parallel.h</text>
</a>
</g>
</g>
<!-- Node1&#45;&gt;Node14 -->
<g id="edge14_Node000001_Node000014" class="edge">
<title>Node1&#45;&gt;Node14</title>
<g id="a_edge14_Node000001_Node000014"><a xlink:title=" ">
<path fill="none" stroke="#63b8ff" d="M261.12,-219.95C247.94,-210.37 232.34,-199.02 220.19,-190.19"/>
<polygon fill="#63b8ff" stroke="#63b8ff" points="222.19,-187.31 212.05,-184.26 218.07,-192.97 222.19,-187.31"/>
</a>
</g>
</g>
<!-- Node18 -->
<g id="Node000018" class="node">
<title>Node18</title>
<g id="a_Node000018"><a xlink:href="common_8h.html" target="_top" xlink:title=" ">
<polygon fill="white" stroke="#666666" points="791.5,-184 650.5,-184 650.5,-165 791.5,-165 791.5,-184"/>
<text text-anchor="middle" x="721" y="-172" font-family="Helvetica,sans-Serif" font-size="10.00">occ/isosurface/common.h</text>
</a>
</g>
</g>
<!-- Node1&#45;&gt;Node18 -->
<g id="edge20_Node000001_Node000018" class="edge">
<title>Node1&#45;&gt;Node18</title>
<g id="a_edge20_Node000001_Node000018"><a xlink:title=" ">
<path fill="none" stroke="#63b8ff" d="M361.94,-228.57C443.54,-216.51 573.78,-197.26 652.95,-185.56"/>
<polygon fill="#63b8ff" stroke="#63b8ff" points="653.91,-188.95 663.29,-184.03 652.89,-182.03 653.91,-188.95"/>
</a>
</g>
</g>
<!-- Node4 -->
<g id="Node000004" class="node">
<title>Node4</title>
<g id="a_Node000004"><a xlink:title=" ">
<polygon fill="#e0e0e0" stroke="#999999" points="458,-129 416,-129 416,-110 458,-110 458,-129"/>
<text text-anchor="middle" x="437" y="-117" font-family="Helvetica,sans-Serif" font-size="10.00">array</text>
</a>
</g>
</g>
<!-- Node3&#45;&gt;Node4 -->
<g id="edge3_Node000003_Node000004" class="edge">
<title>Node3&#45;&gt;Node4</title>
<g id="a_edge3_Node000003_Node000004"><a xlink:title=" ">
<path fill="none" stroke="#63b8ff" d="M411.95,-164.75C416.06,-157.49 422.03,-146.95 427.1,-137.98"/>
<polygon fill="#63b8ff" stroke="#63b8ff" points="430.26,-139.52 432.14,-129.09 424.17,-136.07 430.26,-139.52"/>
</a>
</g>
</g>
<!-- Node5 -->
<g id="Node000005" class="node">
<title>Node5</title>
<g id="a_Node000005"><a xlink:href="atom_8h.html" target="_top" xlink:title=" ">
<polygon fill="white" stroke="#666666" points="571.5,-129 476.5,-129 476.5,-110 571.5,-110 571.5,-129"/>
<text text-anchor="middle" x="524" y="-117" font-family="Helvetica,sans-Serif" font-size="10.00">occ/core/atom.h</text>
</a>
</g>
</g>
<!-- Node3&#45;&gt;Node5 -->
<g id="edge4_Node000003_Node000005" class="edge">
<title>Node3&#45;&gt;Node5</title>
<g id="a_edge4_Node000003_Node000005"><a xlink:title=" ">
<path fill="none" stroke="#63b8ff" d="M425.8,-164.98C444.62,-156.46 473.82,-143.23 495.5,-133.41"/>
<polygon fill="#63b8ff" stroke="#63b8ff" points="497.2,-136.48 504.86,-129.17 494.31,-130.11 497.2,-136.48"/>
</a>
</g>
</g>
<!-- Node6 -->
<g id="Node000006" class="node">
<title>Node6</title>
<g id="a_Node000006"><a xlink:href="linear__algebra_8h.html" target="_top" xlink:title=" ">
<polygon fill="white" stroke="#666666" points="669.5,-74 530.5,-74 530.5,-55 669.5,-55 669.5,-74"/>
<text text-anchor="middle" x="600" y="-62" font-family="Helvetica,sans-Serif" font-size="10.00">occ/core/linear_algebra.h</text>
</a>
</g>
</g>
<!-- Node3&#45;&gt;Node6 -->
<g id="edge12_Node000003_Node000006" class="edge">
<title>Node3&#45;&gt;Node6</title>
<g id="a_edge12_Node000003_Node000006"><a xlink:title=" ">
<path fill="none" stroke="#63b8ff" d="M464.04,-172.85C501.83,-169.41 549.97,-158.81 581,-129 593.05,-117.43 597.54,-98.56 599.18,-84.39"/>
<polygon fill="#63b8ff" stroke="#63b8ff" points="602.68,-84.5 599.96,-74.26 595.7,-83.96 602.68,-84.5"/>
</a>
</g>
</g>
<!-- Node10 -->
<g id="Node000010" class="node">
<title>Node10</title>
<g id="a_Node000010"><a xlink:href="element_8h.html" target="_top" xlink:title=" ">
<polygon fill="white" stroke="#666666" points="338,-129 228,-129 228,-110 338,-110 338,-129"/>
<text text-anchor="middle" x="283" y="-117" font-family="Helvetica,sans-Serif" font-size="10.00">occ/core/element.h</text>
</a>
</g>
</g>
<!-- Node3&#45;&gt;Node10 -->
<g id="edge9_Node000003_Node000010" class="edge">
<title>Node3&#45;&gt;Node10</title>
<g id="a_edge9_Node000003_Node000010"><a xlink:title=" ">
<path fill="none" stroke="#63b8ff" d="M387.08,-164.98C366.95,-156.38 335.62,-142.99 312.59,-133.15"/>
<polygon fill="#63b8ff" stroke="#63b8ff" points="313.86,-129.88 303.29,-129.17 311.1,-136.32 313.86,-129.88"/>
</a>
</g>
</g>
<!-- Node13 -->
<g id="Node000013" class="node">
<title>Node13</title>
<g id="a_Node000013"><a xlink:title=" ">
<polygon fill="#e0e0e0" stroke="#999999" points="397.5,-129 356.5,-129 356.5,-110 397.5,-110 397.5,-129"/>
<text text-anchor="middle" x="377" y="-117" font-family="Helvetica,sans-Serif" font-size="10.00">tuple</text>
</a>
</g>
</g>
<!-- Node3&#45;&gt;Node13 -->
<g id="edge13_Node000003_Node000013" class="edge">
<title>Node3&#45;&gt;Node13</title>
<g id="a_edge13_Node000003_Node000013"><a xlink:title=" ">
<path fill="none" stroke="#63b8ff" d="M402.05,-164.75C397.94,-157.49 391.97,-146.95 386.9,-137.98"/>
<polygon fill="#63b8ff" stroke="#63b8ff" points="389.83,-136.07 381.86,-129.09 383.74,-139.52 389.83,-136.07"/>
</a>
</g>
</g>
<!-- Node5&#45;&gt;Node6 -->
<g id="edge5_Node000005_Node000006" class="edge">
<title>Node5&#45;&gt;Node6</title>
<g id="a_edge5_Node000005_Node000006"><a xlink:title=" ">
<path fill="none" stroke="#63b8ff" d="M536.21,-109.98C547.78,-101.92 565.38,-89.65 579.16,-80.03"/>
<polygon fill="#63b8ff" stroke="#63b8ff" points="581.37,-82.76 587.57,-74.17 577.36,-77.02 581.37,-82.76"/>
</a>
</g>
</g>
<!-- Node7 -->
<g id="Node000007" class="node">
<title>Node7</title>
<g id="a_Node000007"><a xlink:title=" ">
<polygon fill="#e0e0e0" stroke="#999999" points="535.5,-19 458.5,-19 458.5,0 535.5,0 535.5,-19"/>
<text text-anchor="middle" x="497" y="-7" font-family="Helvetica,sans-Serif" font-size="10.00">Eigen/Dense</text>
</a>
</g>
</g>
<!-- Node6&#45;&gt;Node7 -->
<g id="edge6_Node000006_Node000007" class="edge">
<title>Node6&#45;&gt;Node7</title>
<g id="a_edge6_Node000006_Node000007"><a xlink:title=" ">
<path fill="none" stroke="#63b8ff" d="M583.45,-54.98C567.11,-46.57 541.87,-33.59 522.87,-23.81"/>
<polygon fill="#63b8ff" stroke="#63b8ff" points="524.34,-20.63 513.85,-19.17 521.14,-26.86 524.34,-20.63"/>
</a>
</g>
</g>
<!-- Node8 -->
<g id="Node000008" class="node">
<title>Node8</title>
<g id="a_Node000008"><a xlink:title=" ">
<polygon fill="#e0e0e0" stroke="#999999" points="646.5,-19 553.5,-19 553.5,0 646.5,0 646.5,-19"/>
<text text-anchor="middle" x="600" y="-7" font-family="Helvetica,sans-Serif" font-size="10.00">Eigen/StdVector</text>
</a>
</g>
</g>
<!-- Node6&#45;&gt;Node8 -->
<g id="edge7_Node000006_Node000008" class="edge">
<title>Node6&#45;&gt;Node8</title>
<g id="a_edge7_Node000006_Node000008"><a xlink:title=" ">
<path fill="none" stroke="#63b8ff" d="M600,-54.75C600,-47.8 600,-37.85 600,-29.13"/>
<polygon fill="#63b8ff" stroke="#63b8ff" points="603.5,-29.09 600,-19.09 596.5,-29.09 603.5,-29.09"/>
</a>
</g>
</g>
<!-- Node9 -->
<g id="Node000009" class="node">
<title>Node9</title>
<g id="a_Node000009"><a xlink:title=" ">
<polygon fill="#e0e0e0" stroke="#999999" points="731.5,-19 664.5,-19 664.5,0 731.5,0 731.5,-19"/>
<text text-anchor="middle" x="698" y="-7" font-family="Helvetica,sans-Serif" font-size="10.00">fmt/core.h</text>
</a>
</g>
</g>
<!-- Node6&#45;&gt;Node9 -->
<g id="edge8_Node000006_Node000009" class="edge">
<title>Node6&#45;&gt;Node9</title>
<g id="a_edge8_Node000006_Node000009"><a xlink:title=" ">
<path fill="none" stroke="#63b8ff" d="M615.75,-54.98C631.23,-46.61 655.09,-33.7 673.14,-23.95"/>
<polygon fill="#63b8ff" stroke="#63b8ff" points="674.84,-27.01 681.97,-19.17 671.51,-20.85 674.84,-27.01"/>
</a>
</g>
</g>
<!-- Node11 -->
<g id="Node000011" class="node">
<title>Node11</title>
<g id="a_Node000011"><a xlink:title=" ">
<polygon fill="#e0e0e0" stroke="#999999" points="224,-74 180,-74 180,-55 224,-55 224,-74"/>
<text text-anchor="middle" x="202" y="-62" font-family="Helvetica,sans-Serif" font-size="10.00">string</text>
</a>
</g>
</g>
<!-- Node10&#45;&gt;Node11 -->
<g id="edge10_Node000010_Node000011" class="edge">
<title>Node10&#45;&gt;Node11</title>
<g id="a_edge10_Node000010_Node000011"><a xlink:title=" ">
<path fill="none" stroke="#63b8ff" d="M269.99,-109.98C257.54,-101.84 238.54,-89.41 223.79,-79.76"/>
<polygon fill="#63b8ff" stroke="#63b8ff" points="225.54,-76.72 215.25,-74.17 221.7,-82.57 225.54,-76.72"/>
</a>
</g>
</g>
<!-- Node12 -->
<g id="Node000012" class="node">
<title>Node12</title>
<g id="a_Node000012"><a xlink:title=" ">
<polygon fill="#e0e0e0" stroke="#999999" points="306.5,-74 259.5,-74 259.5,-55 306.5,-55 306.5,-74"/>
<text text-anchor="middle" x="283" y="-62" font-family="Helvetica,sans-Serif" font-size="10.00">vector</text>
</a>
</g>
</g>
<!-- Node10&#45;&gt;Node12 -->
<g id="edge11_Node000010_Node000012" class="edge">
<title>Node10&#45;&gt;Node12</title>
<g id="a_edge11_Node000010_Node000012"><a xlink:title=" ">
<path fill="none" stroke="#63b8ff" d="M283,-109.75C283,-102.8 283,-92.85 283,-84.13"/>
<polygon fill="#63b8ff" stroke="#63b8ff" points="286.5,-84.09 283,-74.09 279.5,-84.09 286.5,-84.09"/>
</a>
</g>
</g>
<!-- Node14&#45;&gt;Node12 -->
<g id="edge19_Node000014_Node000012" class="edge">
<title>Node14&#45;&gt;Node12</title>
<g id="a_edge19_Node000014_Node000012"><a xlink:title=" ">
<path fill="none" stroke="#63b8ff" d="M200.76,-164.9C202.29,-151.9 206.71,-126.96 219,-110 228.39,-97.04 242.77,-86.55 255.52,-79.02"/>
<polygon fill="#63b8ff" stroke="#63b8ff" points="257.38,-81.99 264.42,-74.07 253.98,-75.87 257.38,-81.99"/>
</a>
</g>
</g>
<!-- Node15 -->
<g id="Node000015" class="node">
<title>Node15</title>
<g id="a_Node000015"><a xlink:href="timings_8h.html" target="_top" xlink:title=" ">
<polygon fill="white" stroke="#666666" points="172,-129 66,-129 66,-110 172,-110 172,-129"/>
<text text-anchor="middle" x="119" y="-117" font-family="Helvetica,sans-Serif" font-size="10.00">occ/core/timings.h</text>
</a>
</g>
</g>
<!-- Node14&#45;&gt;Node15 -->
<g id="edge15_Node000014_Node000015" class="edge">
<title>Node14&#45;&gt;Node15</title>
<g id="a_edge15_Node000014_Node000015"><a xlink:title=" ">
<path fill="none" stroke="#63b8ff" d="M186.99,-164.98C174.54,-156.84 155.54,-144.41 140.79,-134.76"/>
<polygon fill="#63b8ff" stroke="#63b8ff" points="142.54,-131.72 132.25,-129.17 138.7,-137.57 142.54,-131.72"/>
</a>
</g>
</g>
<!-- Node17 -->
<g id="Node000017" class="node">
<title>Node17</title>
<g id="a_Node000017"><a xlink:title=" ">
<polygon fill="#e0e0e0" stroke="#999999" points="48,-129 0,-129 0,-110 48,-110 48,-129"/>
<text text-anchor="middle" x="24" y="-117" font-family="Helvetica,sans-Serif" font-size="10.00">thread</text>
</a>
</g>
</g>
<!-- Node14&#45;&gt;Node17 -->
<g id="edge18_Node000014_Node000017" class="edge">
<title>Node14&#45;&gt;Node17</title>
<g id="a_edge18_Node000014_Node000017"><a xlink:title=" ">
<path fill="none" stroke="#63b8ff" d="M171.72,-164.98C140.73,-155.65 91.01,-140.68 57.93,-130.72"/>
<polygon fill="#63b8ff" stroke="#63b8ff" points="58.83,-127.33 48.24,-127.8 56.81,-134.03 58.83,-127.33"/>
</a>
</g>
</g>
<!-- Node15&#45;&gt;Node11 -->
<g id="edge17_Node000015_Node000011" class="edge">
<title>Node15&#45;&gt;Node11</title>
<g id="a_edge17_Node000015_Node000011"><a xlink:title=" ">
<path fill="none" stroke="#63b8ff" d="M132.34,-109.98C145.09,-101.84 164.55,-89.41 179.67,-79.76"/>
<polygon fill="#63b8ff" stroke="#63b8ff" points="181.88,-82.5 188.42,-74.17 178.11,-76.6 181.88,-82.5"/>
</a>
</g>
</g>
<!-- Node16 -->
<g id="Node000016" class="node">
<title>Node16</title>
<g id="a_Node000016"><a xlink:title=" ">
<polygon fill="#e0e0e0" stroke="#999999" points="144,-74 94,-74 94,-55 144,-55 144,-74"/>
<text text-anchor="middle" x="119" y="-62" font-family="Helvetica,sans-Serif" font-size="10.00">chrono</text>
</a>
</g>
</g>
<!-- Node15&#45;&gt;Node16 -->
<g id="edge16_Node000015_Node000016" class="edge">
<title>Node15&#45;&gt;Node16</title>
<g id="a_edge16_Node000015_Node000016"><a xlink:title=" ">
<path fill="none" stroke="#63b8ff" d="M119,-109.75C119,-102.8 119,-92.85 119,-84.13"/>
<polygon fill="#63b8ff" stroke="#63b8ff" points="122.5,-84.09 119,-74.09 115.5,-84.09 122.5,-84.09"/>
</a>
</g>
</g>
<!-- Node18&#45;&gt;Node6 -->
<g id="edge26_Node000018_Node000006" class="edge">
<title>Node18&#45;&gt;Node6</title>
<g id="a_edge26_Node000018_Node000006"><a xlink:title=" ">
<path fill="none" stroke="#63b8ff" d="M711.72,-164.76C698.57,-152.42 673.67,-129.24 652,-110 640.89,-100.14 628.23,-89.3 618.19,-80.79"/>
<polygon fill="#63b8ff" stroke="#63b8ff" points="620.35,-78.03 610.45,-74.26 615.84,-83.38 620.35,-78.03"/>
</a>
</g>
</g>
<!-- Node18&#45;&gt;Node12 -->
<g id="edge31_Node000018_Node000012" class="edge">
<title>Node18&#45;&gt;Node12</title>
<g id="a_edge31_Node000018_Node000012"><a xlink:title=" ">
<path fill="none" stroke="#63b8ff" d="M705.59,-164.78C680.38,-150.92 628.35,-123.98 581,-110 487.68,-82.45 372.64,-71.44 316.72,-67.48"/>
<polygon fill="#63b8ff" stroke="#63b8ff" points="316.87,-63.99 306.66,-66.8 316.4,-70.97 316.87,-63.99"/>
</a>
</g>
</g>
<!-- Node19 -->
<g id="Node000019" class="node">
<title>Node19</title>
<g id="a_Node000019"><a xlink:href="interpolator_8h.html" target="_top" xlink:title=" ">
<polygon fill="white" stroke="#666666" points="829.5,-129 704.5,-129 704.5,-110 829.5,-110 829.5,-129"/>
<text text-anchor="middle" x="767" y="-117" font-family="Helvetica,sans-Serif" font-size="10.00">occ/core/interpolator.h</text>
</a>
</g>
</g>
<!-- Node18&#45;&gt;Node19 -->
<g id="edge21_Node000018_Node000019" class="edge">
<title>Node18&#45;&gt;Node19</title>
<g id="a_edge21_Node000018_Node000019"><a xlink:title=" ">
<path fill="none" stroke="#63b8ff" d="M728.6,-164.75C735.16,-157.18 744.82,-146.05 752.81,-136.84"/>
<polygon fill="#63b8ff" stroke="#63b8ff" points="755.63,-138.94 759.55,-129.09 750.35,-134.35 755.63,-138.94"/>
</a>
</g>
</g>
<!-- Node22 -->
<g id="Node000022" class="node">
<title>Node22</title>
<g id="a_Node000022"><a xlink:href="units_8h.html" target="_top" xlink:title=" ">
<polygon fill="white" stroke="#666666" points="1003.5,-129 910.5,-129 910.5,-110 1003.5,-110 1003.5,-129"/>
<text text-anchor="middle" x="957" y="-117" font-family="Helvetica,sans-Serif" font-size="10.00">occ/core/units.h</text>
</a>
</g>
</g>
<!-- Node18&#45;&gt;Node22 -->
<g id="edge27_Node000018_Node000022" class="edge">
<title>Node18&#45;&gt;Node22</title>
<g id="a_edge27_Node000018_Node000022"><a xlink:title=" ">
<path fill="none" stroke="#63b8ff" d="M758.92,-164.98C799.65,-155.84 864.5,-141.27 908.82,-131.32"/>
<polygon fill="#63b8ff" stroke="#63b8ff" points="909.8,-134.69 918.79,-129.08 908.26,-127.86 909.8,-134.69"/>
</a>
</g>
</g>
<!-- Node24 -->
<g id="Node000024" class="node">
<title>Node24</title>
<g id="a_Node000024"><a xlink:title=" ">
<polygon fill="#e0e0e0" stroke="#999999" points="892.5,-129 847.5,-129 847.5,-110 892.5,-110 892.5,-129"/>
<text text-anchor="middle" x="870" y="-117" font-family="Helvetica,sans-Serif" font-size="10.00">utility</text>
</a>
</g>
</g>
<!-- Node18&#45;&gt;Node24 -->
<g id="edge30_Node000018_Node000024" class="edge">
<title>Node18&#45;&gt;Node24</title>
<g id="a_edge30_Node000018_Node000024"><a xlink:title=" ">
<path fill="none" stroke="#63b8ff" d="M744.94,-164.98C770,-156.07 809.5,-142.02 837.4,-132.1"/>
<polygon fill="#63b8ff" stroke="#63b8ff" points="838.85,-135.3 847.1,-128.65 836.5,-128.7 838.85,-135.3"/>
</a>
</g>
</g>
<!-- Node19&#45;&gt;Node6 -->
<g id="edge24_Node000019_Node000006" class="edge">
<title>Node19&#45;&gt;Node6</title>
<g id="a_edge24_Node000019_Node000006"><a xlink:title=" ">
<path fill="none" stroke="#63b8ff" d="M740.17,-109.98C712.13,-101.09 667.95,-87.07 636.7,-77.15"/>
<polygon fill="#63b8ff" stroke="#63b8ff" points="637.63,-73.77 627.04,-74.08 635.51,-80.44 637.63,-73.77"/>
</a>
</g>
</g>
<!-- Node19&#45;&gt;Node9 -->
<g id="edge23_Node000019_Node000009" class="edge">
<title>Node19&#45;&gt;Node9</title>
<g id="a_edge23_Node000019_Node000009"><a xlink:title=" ">
<path fill="none" stroke="#63b8ff" d="M753.97,-109.72C742.92,-101.64 727.42,-88.71 718,-74 709.24,-60.31 704.07,-42.5 701.19,-29.23"/>
<polygon fill="#63b8ff" stroke="#63b8ff" points="704.61,-28.49 699.28,-19.33 697.74,-29.82 704.61,-28.49"/>
</a>
</g>
</g>
<!-- Node20 -->
<g id="Node000020" class="node">
<title>Node20</title>
<g id="a_Node000020"><a xlink:title=" ">
<polygon fill="#e0e0e0" stroke="#999999" points="896.5,-74 849.5,-74 849.5,-55 896.5,-55 896.5,-74"/>
<text text-anchor="middle" x="873" y="-62" font-family="Helvetica,sans-Serif" font-size="10.00">cmath</text>
</a>
</g>
</g>
<!-- Node19&#45;&gt;Node20 -->
<g id="edge22_Node000019_Node000020" class="edge">
<title>Node19&#45;&gt;Node20</title>
<g id="a_edge22_Node000019_Node000020"><a xlink:title=" ">
<path fill="none" stroke="#63b8ff" d="M784.03,-109.98C800.93,-101.54 827.06,-88.47 846.64,-78.68"/>
<polygon fill="#63b8ff" stroke="#63b8ff" points="848.28,-81.77 855.66,-74.17 845.15,-75.51 848.28,-81.77"/>
</a>
</g>
</g>
<!-- Node21 -->
<g id="Node000021" class="node">
<title>Node21</title>
<g id="a_Node000021"><a xlink:href="macros_8h.html" target="_top" xlink:title=" ">
<polygon fill="white" stroke="#666666" points="831.5,-74 726.5,-74 726.5,-55 831.5,-55 831.5,-74"/>
<text text-anchor="middle" x="779" y="-62" font-family="Helvetica,sans-Serif" font-size="10.00">occ/core/macros.h</text>
</a>
</g>
</g>
<!-- Node19&#45;&gt;Node21 -->
<g id="edge25_Node000019_Node000021" class="edge">
<title>Node19&#45;&gt;Node21</title>
<g id="a_edge25_Node000019_Node000021"><a xlink:title=" ">
<path fill="none" stroke="#63b8ff" d="M768.98,-109.75C770.57,-102.72 772.86,-92.62 774.85,-83.84"/>
<polygon fill="#63b8ff" stroke="#63b8ff" points="778.26,-84.62 777.06,-74.09 771.43,-83.07 778.26,-84.62"/>
</a>
</g>
</g>
<!-- Node22&#45;&gt;Node20 -->
<g id="edge28_Node000022_Node000020" class="edge">
<title>Node22&#45;&gt;Node20</title>
<g id="a_edge28_Node000022_Node000020"><a xlink:title=" ">
<path fill="none" stroke="#63b8ff" d="M943.5,-109.98C930.6,-101.84 910.9,-89.41 895.6,-79.76"/>
<polygon fill="#63b8ff" stroke="#63b8ff" points="897.07,-76.55 886.74,-74.17 893.33,-82.47 897.07,-76.55"/>
</a>
</g>
</g>
<!-- Node23 -->
<g id="Node000023" class="node">
<title>Node23</title>
<g id="a_Node000023"><a xlink:href="constants_8h.html" target="_top" xlink:title=" ">
<polygon fill="white" stroke="#666666" points="1031,-74 915,-74 915,-55 1031,-55 1031,-74"/>
<text text-anchor="middle" x="973" y="-62" font-family="Helvetica,sans-Serif" font-size="10.00">occ/core/constants.h</text>
</a>
</g>
</g>
<!-- Node22&#45;&gt;Node23 -->
<g id="edge29_Node000022_Node000023" class="edge">
<title>Node22&#45;&gt;Node23</title>
<g id="a_edge29_Node000022_Node000023"><a xlink:title=" ">
<path fill="none" stroke="#63b8ff" d="M959.64,-109.75C961.76,-102.72 964.81,-92.62 967.46,-83.84"/>
<polygon fill="#63b8ff" stroke="#63b8ff" points="970.87,-84.67 970.41,-74.09 964.17,-82.65 970.87,-84.67"/>
</a>
</g>
</g>
</g>
</svg>
