<?xml version="1.0" encoding="UTF-8" standalone="no"?>
<!DOCTYPE svg PUBLIC "-//W3C//DTD SVG 1.1//EN"
 "http://www.w3.org/Graphics/SVG/1.1/DTD/svg11.dtd">
<!-- Generated by graphviz version 2.43.0 (0)
 -->
<!-- Title: /home/runner/work/occ/occ/include/occ/core/macros.h Pages: 1 -->
<svg width="978pt" height="373pt"
 viewBox="0.00 0.00 977.50 373.00" xmlns="http://www.w3.org/2000/svg" xmlns:xlink="http://www.w3.org/1999/xlink">
<g id="graph0" class="graph" transform="scale(1 1) rotate(0) translate(4 369)">
<title>/home/runner/work/occ/occ/include/occ/core/macros.h</title>
<!-- Node1 -->
<g id="node1" class="node">
<title>Node1</title>
<g id="a_node1"><a xlink:title=" ">
<polygon fill="#bfbfbf" stroke="black" points="606.5,-323.5 606.5,-364.5 734.5,-364.5 734.5,-323.5 606.5,-323.5"/>
<text text-anchor="start" x="614.5" y="-352.5" font-family="Helvetica,sans-Serif" font-size="10.00">/home/runner/work/occ</text>
<text text-anchor="start" x="614.5" y="-341.5" font-family="Helvetica,sans-Serif" font-size="10.00">/occ/include/occ/core</text>
<text text-anchor="middle" x="670.5" y="-330.5" font-family="Helvetica,sans-Serif" font-size="10.00">/macros.h</text>
</a>
</g>
</g>
<!-- Node2 -->
<g id="node2" class="node">
<title>Node2</title>
<g id="a_node2"><a xlink:href="interpolator_8h.html" target="_top" xlink:title=" ">
<polygon fill="none" stroke="black" points="529.5,-245.5 529.5,-286.5 657.5,-286.5 657.5,-245.5 529.5,-245.5"/>
<text text-anchor="start" x="537.5" y="-274.5" font-family="Helvetica,sans-Serif" font-size="10.00">/home/runner/work/occ</text>
<text text-anchor="start" x="537.5" y="-263.5" font-family="Helvetica,sans-Serif" font-size="10.00">/occ/include/occ/core</text>
<text text-anchor="middle" x="593.5" y="-252.5" font-family="Helvetica,sans-Serif" font-size="10.00">/interpolator.h</text>
</a>
</g>
</g>
<!-- Node1&#45;&gt;Node2 -->
<g id="edge1" class="edge">
<title>Node1&#45;&gt;Node2</title>
<path fill="none" stroke="midnightblue" d="M643.35,-316.2C633.43,-306.42 622.41,-295.54 613.26,-286.51"/>
<polygon fill="midnightblue" stroke="midnightblue" points="641.09,-318.89 650.67,-323.43 646.01,-313.91 641.09,-318.89"/>
</g>
<!-- Node11 -->
<g id="node11" class="node">
<title>Node11</title>
<g id="a_node11"><a xlink:href="morton_8h.html" target="_top" xlink:title=" ">
<polygon fill="none" stroke="black" points="721.5,-245.5 721.5,-286.5 865.5,-286.5 865.5,-245.5 721.5,-245.5"/>
<text text-anchor="start" x="729.5" y="-274.5" font-family="Helvetica,sans-Serif" font-size="10.00">/home/runner/work/occ</text>
<text text-anchor="start" x="729.5" y="-263.5" font-family="Helvetica,sans-Serif" font-size="10.00">/occ/include/occ/geometry</text>
<text text-anchor="middle" x="793.5" y="-252.5" font-family="Helvetica,sans-Serif" font-size="10.00">/morton.h</text>
</a>
</g>
</g>
<!-- Node1&#45;&gt;Node11 -->
<g id="edge14" class="edge">
<title>Node1&#45;&gt;Node11</title>
<path fill="none" stroke="midnightblue" d="M711.09,-317.92C727.63,-307.7 746.45,-296.07 761.93,-286.51"/>
<polygon fill="midnightblue" stroke="midnightblue" points="708.84,-315.19 702.18,-323.43 712.52,-321.15 708.84,-315.19"/>
</g>
<!-- Node3 -->
<g id="node3" class="node">
<title>Node3</title>
<g id="a_node3"><a xlink:href="common_8h.html" target="_top" xlink:title=" ">
<polygon fill="none" stroke="black" points="353,-167.5 353,-208.5 500,-208.5 500,-167.5 353,-167.5"/>
<text text-anchor="start" x="361" y="-196.5" font-family="Helvetica,sans-Serif" font-size="10.00">/home/runner/work/occ</text>
<text text-anchor="start" x="361" y="-185.5" font-family="Helvetica,sans-Serif" font-size="10.00">/occ/include/occ/isosurface</text>
<text text-anchor="middle" x="426.5" y="-174.5" font-family="Helvetica,sans-Serif" font-size="10.00">/common.h</text>
</a>
</g>
</g>
<!-- Node2&#45;&gt;Node3 -->
<g id="edge2" class="edge">
<title>Node2&#45;&gt;Node3</title>
<path fill="none" stroke="midnightblue" d="M541.18,-241.19C518.08,-230.67 491.25,-218.47 469.36,-208.51"/>
<polygon fill="midnightblue" stroke="midnightblue" points="539.94,-244.47 550.49,-245.43 542.84,-238.1 539.94,-244.47"/>
</g>
<!-- Node10 -->
<g id="node10" class="node">
<title>Node10</title>
<g id="a_node10"><a xlink:href="point__functors_8h.html" target="_top" xlink:title=" ">
<polygon fill="none" stroke="black" points="529.5,-167.5 529.5,-208.5 657.5,-208.5 657.5,-167.5 529.5,-167.5"/>
<text text-anchor="start" x="537.5" y="-196.5" font-family="Helvetica,sans-Serif" font-size="10.00">/home/runner/work/occ</text>
<text text-anchor="start" x="537.5" y="-185.5" font-family="Helvetica,sans-Serif" font-size="10.00">/occ/include/occ/main</text>
<text text-anchor="middle" x="593.5" y="-174.5" font-family="Helvetica,sans-Serif" font-size="10.00">/point_functors.h</text>
</a>
</g>
</g>
<!-- Node2&#45;&gt;Node10 -->
<g id="edge13" class="edge">
<title>Node2&#45;&gt;Node10</title>
<path fill="none" stroke="midnightblue" d="M593.5,-235.3C593.5,-226.3 593.5,-216.65 593.5,-208.51"/>
<polygon fill="midnightblue" stroke="midnightblue" points="590,-235.43 593.5,-245.43 597,-235.43 590,-235.43"/>
</g>
<!-- Node4 -->
<g id="node4" class="node">
<title>Node4</title>
<g id="a_node4"><a xlink:href="electric__potential_8h.html" target="_top" xlink:title=" ">
<polygon fill="none" stroke="black" points="0,-84 0,-125 147,-125 147,-84 0,-84"/>
<text text-anchor="start" x="8" y="-113" font-family="Helvetica,sans-Serif" font-size="10.00">/home/runner/work/occ</text>
<text text-anchor="start" x="8" y="-102" font-family="Helvetica,sans-Serif" font-size="10.00">/occ/include/occ/isosurface</text>
<text text-anchor="middle" x="73.5" y="-91" font-family="Helvetica,sans-Serif" font-size="10.00">/electric_potential.h</text>
</a>
</g>
</g>
<!-- Node3&#45;&gt;Node4 -->
<g id="edge3" class="edge">
<title>Node3&#45;&gt;Node4</title>
<path fill="none" stroke="midnightblue" d="M342.89,-171.91C289.07,-161.66 217.79,-147.08 155.5,-131 148.57,-129.21 141.36,-127.2 134.21,-125.1"/>
<polygon fill="midnightblue" stroke="midnightblue" points="342.25,-175.35 352.73,-173.77 343.55,-168.48 342.25,-175.35"/>
</g>
<!-- Node6 -->
<g id="node6" class="node">
<title>Node6</title>
<g id="a_node6"><a xlink:href="electron__density_8h.html" target="_top" xlink:title=" ">
<polygon fill="none" stroke="black" points="165,-84 165,-125 312,-125 312,-84 165,-84"/>
<text text-anchor="start" x="173" y="-113" font-family="Helvetica,sans-Serif" font-size="10.00">/home/runner/work/occ</text>
<text text-anchor="start" x="173" y="-102" font-family="Helvetica,sans-Serif" font-size="10.00">/occ/include/occ/isosurface</text>
<text text-anchor="middle" x="238.5" y="-91" font-family="Helvetica,sans-Serif" font-size="10.00">/electron_density.h</text>
</a>
</g>
</g>
<!-- Node3&#45;&gt;Node6 -->
<g id="edge5" class="edge">
<title>Node3&#45;&gt;Node6</title>
<path fill="none" stroke="midnightblue" d="M372.17,-163.45C344.05,-151.26 310.12,-136.55 283.49,-125"/>
<polygon fill="midnightblue" stroke="midnightblue" points="370.9,-166.71 381.47,-167.48 373.69,-160.29 370.9,-166.71"/>
</g>
<!-- Node7 -->
<g id="node7" class="node">
<title>Node7</title>
<g id="a_node7"><a xlink:href="promolecule__density_8h.html" target="_top" xlink:title=" ">
<polygon fill="none" stroke="black" points="330,-84 330,-125 477,-125 477,-84 330,-84"/>
<text text-anchor="start" x="338" y="-113" font-family="Helvetica,sans-Serif" font-size="10.00">/home/runner/work/occ</text>
<text text-anchor="start" x="338" y="-102" font-family="Helvetica,sans-Serif" font-size="10.00">/occ/include/occ/isosurface</text>
<text text-anchor="middle" x="403.5" y="-91" font-family="Helvetica,sans-Serif" font-size="10.00">/promolecule_density.h</text>
</a>
</g>
</g>
<!-- Node3&#45;&gt;Node7 -->
<g id="edge7" class="edge">
<title>Node3&#45;&gt;Node7</title>
<path fill="none" stroke="midnightblue" d="M418.15,-157.4C415.11,-146.63 411.75,-134.73 409.02,-125.05"/>
<polygon fill="midnightblue" stroke="midnightblue" points="414.85,-158.6 420.93,-167.27 421.58,-156.7 414.85,-158.6"/>
</g>
<!-- Node8 -->
<g id="node8" class="node">
<title>Node8</title>
<g id="a_node8"><a xlink:href="stockholder__weight_8h.html" target="_top" xlink:title=" ">
<polygon fill="none" stroke="black" points="495,-84 495,-125 642,-125 642,-84 495,-84"/>
<text text-anchor="start" x="503" y="-113" font-family="Helvetica,sans-Serif" font-size="10.00">/home/runner/work/occ</text>
<text text-anchor="start" x="503" y="-102" font-family="Helvetica,sans-Serif" font-size="10.00">/occ/include/occ/isosurface</text>
<text text-anchor="middle" x="568.5" y="-91" font-family="Helvetica,sans-Serif" font-size="10.00">/stockholder_weight.h</text>
</a>
</g>
</g>
<!-- Node3&#45;&gt;Node8 -->
<g id="edge9" class="edge">
<title>Node3&#45;&gt;Node8</title>
<path fill="none" stroke="midnightblue" d="M469.45,-162.35C490.22,-150.43 514.79,-136.32 534.27,-125.14"/>
<polygon fill="midnightblue" stroke="midnightblue" points="467.44,-159.47 460.51,-167.48 470.93,-165.54 467.44,-159.47"/>
</g>
<!-- Node9 -->
<g id="node9" class="node">
<title>Node9</title>
<g id="a_node9"><a xlink:href="void_8h.html" target="_top" xlink:title=" ">
<polygon fill="none" stroke="black" points="660,-84 660,-125 807,-125 807,-84 660,-84"/>
<text text-anchor="start" x="668" y="-113" font-family="Helvetica,sans-Serif" font-size="10.00">/home/runner/work/occ</text>
<text text-anchor="start" x="668" y="-102" font-family="Helvetica,sans-Serif" font-size="10.00">/occ/include/occ/isosurface</text>
<text text-anchor="middle" x="733.5" y="-91" font-family="Helvetica,sans-Serif" font-size="10.00">/void.h</text>
</a>
</g>
</g>
<!-- Node3&#45;&gt;Node9 -->
<g id="edge11" class="edge">
<title>Node3&#45;&gt;Node9</title>
<path fill="none" stroke="midnightblue" d="M510.11,-167.21C552.34,-156.94 604.29,-143.86 650.5,-131 657.18,-129.14 664.14,-127.13 671.06,-125.07"/>
<polygon fill="midnightblue" stroke="midnightblue" points="509.05,-163.87 500.15,-169.63 510.7,-170.67 509.05,-163.87"/>
</g>
<!-- Node5 -->
<g id="node5" class="node">
<title>Node5</title>
<g id="a_node5"><a xlink:href="isosurface_8h.html" target="_top" xlink:title=" ">
<polygon fill="none" stroke="black" points="330,-0.5 330,-41.5 477,-41.5 477,-0.5 330,-0.5"/>
<text text-anchor="start" x="338" y="-29.5" font-family="Helvetica,sans-Serif" font-size="10.00">/home/runner/work/occ</text>
<text text-anchor="start" x="338" y="-18.5" font-family="Helvetica,sans-Serif" font-size="10.00">/occ/include/occ/isosurface</text>
<text text-anchor="middle" x="403.5" y="-7.5" font-family="Helvetica,sans-Serif" font-size="10.00">/isosurface.h</text>
</a>
</g>
</g>
<!-- Node4&#45;&gt;Node5 -->
<g id="edge4" class="edge">
<title>Node4&#45;&gt;Node5</title>
<path fill="none" stroke="midnightblue" d="M144.53,-81.03C148.23,-79.98 151.9,-78.96 155.5,-78 213.7,-62.41 280.34,-47.52 329.88,-37.02"/>
<polygon fill="midnightblue" stroke="midnightblue" points="143.32,-77.74 134.69,-83.89 145.27,-84.46 143.32,-77.74"/>
</g>
<!-- Node6&#45;&gt;Node5 -->
<g id="edge6" class="edge">
<title>Node6&#45;&gt;Node5</title>
<path fill="none" stroke="midnightblue" d="M287.15,-79.47C311.64,-67.37 340.94,-52.9 364.02,-41.5"/>
<polygon fill="midnightblue" stroke="midnightblue" points="285.44,-76.41 278.02,-83.98 288.54,-82.69 285.44,-76.41"/>
</g>
<!-- Node7&#45;&gt;Node5 -->
<g id="edge8" class="edge">
<title>Node7&#45;&gt;Node5</title>
<path fill="none" stroke="midnightblue" d="M403.5,-73.56C403.5,-62.88 403.5,-51.13 403.5,-41.55"/>
<polygon fill="midnightblue" stroke="midnightblue" points="400,-73.77 403.5,-83.77 407,-73.77 400,-73.77"/>
</g>
<!-- Node8&#45;&gt;Node5 -->
<g id="edge10" class="edge">
<title>Node8&#45;&gt;Node5</title>
<path fill="none" stroke="midnightblue" d="M519.85,-79.47C495.36,-67.37 466.06,-52.9 442.98,-41.5"/>
<polygon fill="midnightblue" stroke="midnightblue" points="518.46,-82.69 528.98,-83.98 521.56,-76.41 518.46,-82.69"/>
</g>
<!-- Node9&#45;&gt;Node5 -->
<g id="edge12" class="edge">
<title>Node9&#45;&gt;Node5</title>
<path fill="none" stroke="midnightblue" d="M661.93,-81.14C658.07,-80.05 654.24,-79 650.5,-78 592.61,-62.57 526.38,-47.7 477.08,-37.17"/>
<polygon fill="midnightblue" stroke="midnightblue" points="660.98,-84.51 671.55,-83.91 662.91,-77.78 660.98,-84.51"/>
</g>
<!-- Node12 -->
<g id="node12" class="node">
<title>Node12</title>
<g id="a_node12"><a xlink:href="linear__hashed__octree_8h.html" target="_top" xlink:title=" ">
<polygon fill="none" stroke="black" points="813.5,-167.5 813.5,-208.5 957.5,-208.5 957.5,-167.5 813.5,-167.5"/>
<text text-anchor="start" x="821.5" y="-196.5" font-family="Helvetica,sans-Serif" font-size="10.00">/home/runner/work/occ</text>
<text text-anchor="start" x="821.5" y="-185.5" font-family="Helvetica,sans-Serif" font-size="10.00">/occ/include/occ/geometry</text>
<text text-anchor="middle" x="885.5" y="-174.5" font-family="Helvetica,sans-Serif" font-size="10.00">/linear_hashed_octree.h</text>
</a>
</g>
</g>
<!-- Node11&#45;&gt;Node12 -->
<g id="edge15" class="edge">
<title>Node11&#45;&gt;Node12</title>
<path fill="none" stroke="midnightblue" d="M825.24,-238.78C837.27,-228.84 850.74,-217.72 861.89,-208.51"/>
<polygon fill="midnightblue" stroke="midnightblue" points="822.67,-236.36 817.19,-245.43 827.13,-241.76 822.67,-236.36"/>
</g>
<!-- Node13 -->
<g id="node13" class="node">
<title>Node13</title>
<g id="a_node13"><a xlink:href="linear__hashed__marching__cubes_8h.html" target="_top" xlink:title=" ">
<polygon fill="none" stroke="black" points="825.5,-78.5 825.5,-130.5 969.5,-130.5 969.5,-78.5 825.5,-78.5"/>
<text text-anchor="start" x="833.5" y="-118.5" font-family="Helvetica,sans-Serif" font-size="10.00">/home/runner/work/occ</text>
<text text-anchor="start" x="833.5" y="-107.5" font-family="Helvetica,sans-Serif" font-size="10.00">/occ/include/occ/geometry</text>
<text text-anchor="start" x="833.5" y="-96.5" font-family="Helvetica,sans-Serif" font-size="10.00">/linear_hashed_marching</text>
<text text-anchor="middle" x="897.5" y="-85.5" font-family="Helvetica,sans-Serif" font-size="10.00">_cubes.h</text>
</a>
</g>
</g>
<!-- Node12&#45;&gt;Node13 -->
<g id="edge16" class="edge">
<title>Node12&#45;&gt;Node13</title>
<path fill="none" stroke="midnightblue" d="M889.9,-157.12C891.18,-148.41 892.57,-138.99 893.8,-130.61"/>
<polygon fill="midnightblue" stroke="midnightblue" points="886.4,-156.87 888.4,-167.27 893.32,-157.89 886.4,-156.87"/>
</g>
</g>
</svg>
