<?xml version="1.0" encoding="UTF-8" standalone="no"?>
<!DOCTYPE svg PUBLIC "-//W3C//DTD SVG 1.1//EN"
 "http://www.w3.org/Graphics/SVG/1.1/DTD/svg11.dtd">
<!-- Generated by graphviz version 2.43.0 (0)
 -->
<!-- Title: /home/runner/work/occ/occ/include/occ/geometry/marching_cubes.h Pages: 1 -->
<svg width="566pt" height="173pt"
 viewBox="0.00 0.00 566.00 173.00" xmlns="http://www.w3.org/2000/svg" xmlns:xlink="http://www.w3.org/1999/xlink">
<g id="graph0" class="graph" transform="scale(1 1) rotate(0) translate(4 169)">
<title>/home/runner/work/occ/occ/include/occ/geometry/marching_cubes.h</title>
<!-- Node1 -->
<g id="node1" class="node">
<title>Node1</title>
<g id="a_node1"><a xlink:title=" ">
<polygon fill="#bfbfbf" stroke="black" points="109,-123.5 109,-164.5 253,-164.5 253,-123.5 109,-123.5"/>
<text text-anchor="start" x="117" y="-152.5" font-family="Helvetica,sans-Serif" font-size="10.00">/home/runner/work/occ</text>
<text text-anchor="start" x="117" y="-141.5" font-family="Helvetica,sans-Serif" font-size="10.00">/occ/include/occ/geometry</text>
<text text-anchor="middle" x="181" y="-130.5" font-family="Helvetica,sans-Serif" font-size="10.00">/marching_cubes.h</text>
</a>
</g>
</g>
<!-- Node2 -->
<g id="node2" class="node">
<title>Node2</title>
<g id="a_node2"><a xlink:title=" ">
<polygon fill="none" stroke="#bfbfbf" points="0,-0.5 0,-19.5 42,-19.5 42,-0.5 0,-0.5"/>
<text text-anchor="middle" x="21" y="-7.5" font-family="Helvetica,sans-Serif" font-size="10.00">array</text>
</a>
</g>
</g>
<!-- Node1&#45;&gt;Node2 -->
<g id="edge1" class="edge">
<title>Node1&#45;&gt;Node2</title>
<path fill="none" stroke="midnightblue" d="M131.03,-123.39C111.57,-114.22 89.92,-101.98 73,-87 54.16,-70.33 38.84,-45.44 29.82,-28.73"/>
<polygon fill="midnightblue" stroke="midnightblue" points="32.76,-26.8 25.05,-19.54 26.55,-30.02 32.76,-26.8"/>
</g>
<!-- Node3 -->
<g id="node3" class="node">
<title>Node3</title>
<g id="a_node3"><a xlink:href="linear__algebra_8h.html" target="_top" xlink:title=" ">
<polygon fill="none" stroke="black" points="294.5,-62 294.5,-81 433.5,-81 433.5,-62 294.5,-62"/>
<text text-anchor="middle" x="364" y="-69" font-family="Helvetica,sans-Serif" font-size="10.00">occ/core/linear_algebra.h</text>
</a>
</g>
</g>
<!-- Node1&#45;&gt;Node3 -->
<g id="edge2" class="edge">
<title>Node1&#45;&gt;Node3</title>
<path fill="none" stroke="midnightblue" d="M231.98,-123.36C264,-111.02 304.33,-95.49 331.93,-84.85"/>
<polygon fill="midnightblue" stroke="midnightblue" points="333.41,-88.03 341.49,-81.17 330.9,-81.5 333.41,-88.03"/>
</g>
<!-- Node7 -->
<g id="node7" class="node">
<title>Node7</title>
<g id="a_node7"><a xlink:href="index__cache_8h.html" target="_top" xlink:title=" ">
<polygon fill="none" stroke="black" points="82.5,-56.5 82.5,-86.5 195.5,-86.5 195.5,-56.5 82.5,-56.5"/>
<text text-anchor="start" x="90.5" y="-74.5" font-family="Helvetica,sans-Serif" font-size="10.00">occ/geometry/index</text>
<text text-anchor="middle" x="139" y="-63.5" font-family="Helvetica,sans-Serif" font-size="10.00">_cache.h</text>
</a>
</g>
</g>
<!-- Node1&#45;&gt;Node7 -->
<g id="edge6" class="edge">
<title>Node1&#45;&gt;Node7</title>
<path fill="none" stroke="midnightblue" d="M169.3,-123.36C164.18,-114.77 158.15,-104.64 152.81,-95.68"/>
<polygon fill="midnightblue" stroke="midnightblue" points="155.7,-93.69 147.57,-86.89 149.68,-97.27 155.7,-93.69"/>
</g>
<!-- Node10 -->
<g id="node10" class="node">
<title>Node10</title>
<g id="a_node10"><a xlink:title=" ">
<polygon fill="none" stroke="#bfbfbf" points="200.5,-0.5 200.5,-19.5 247.5,-19.5 247.5,-0.5 200.5,-0.5"/>
<text text-anchor="middle" x="224" y="-7.5" font-family="Helvetica,sans-Serif" font-size="10.00">vector</text>
</a>
</g>
</g>
<!-- Node1&#45;&gt;Node10 -->
<g id="edge11" class="edge">
<title>Node1&#45;&gt;Node10</title>
<path fill="none" stroke="midnightblue" d="M189.85,-123.29C194.42,-112.66 199.89,-99.26 204,-87 210.49,-67.64 216.23,-44.94 219.88,-29.42"/>
<polygon fill="midnightblue" stroke="midnightblue" points="223.32,-30.07 222.14,-19.54 216.49,-28.51 223.32,-30.07"/>
</g>
<!-- Node4 -->
<g id="node4" class="node">
<title>Node4</title>
<g id="a_node4"><a xlink:title=" ">
<polygon fill="none" stroke="#bfbfbf" points="265.5,-0.5 265.5,-19.5 342.5,-19.5 342.5,-0.5 265.5,-0.5"/>
<text text-anchor="middle" x="304" y="-7.5" font-family="Helvetica,sans-Serif" font-size="10.00">Eigen/Dense</text>
</a>
</g>
</g>
<!-- Node3&#45;&gt;Node4 -->
<g id="edge3" class="edge">
<title>Node3&#45;&gt;Node4</title>
<path fill="none" stroke="midnightblue" d="M355.4,-61.98C346.14,-52.78 331.18,-37.96 319.79,-26.66"/>
<polygon fill="midnightblue" stroke="midnightblue" points="322.15,-24.07 312.58,-19.51 317.22,-29.04 322.15,-24.07"/>
</g>
<!-- Node5 -->
<g id="node5" class="node">
<title>Node5</title>
<g id="a_node5"><a xlink:title=" ">
<polygon fill="none" stroke="#bfbfbf" points="360.5,-0.5 360.5,-19.5 453.5,-19.5 453.5,-0.5 360.5,-0.5"/>
<text text-anchor="middle" x="407" y="-7.5" font-family="Helvetica,sans-Serif" font-size="10.00">Eigen/StdVector</text>
</a>
</g>
</g>
<!-- Node3&#45;&gt;Node5 -->
<g id="edge4" class="edge">
<title>Node3&#45;&gt;Node5</title>
<path fill="none" stroke="midnightblue" d="M370.16,-61.98C376.61,-53.05 386.9,-38.81 394.97,-27.64"/>
<polygon fill="midnightblue" stroke="midnightblue" points="397.83,-29.66 400.85,-19.51 392.16,-25.56 397.83,-29.66"/>
</g>
<!-- Node6 -->
<g id="node6" class="node">
<title>Node6</title>
<g id="a_node6"><a xlink:title=" ">
<polygon fill="none" stroke="#bfbfbf" points="472,-0.5 472,-19.5 558,-19.5 558,-0.5 472,-0.5"/>
<text text-anchor="middle" x="515" y="-7.5" font-family="Helvetica,sans-Serif" font-size="10.00">fmt/ostream.h</text>
</a>
</g>
</g>
<!-- Node3&#45;&gt;Node6 -->
<g id="edge5" class="edge">
<title>Node3&#45;&gt;Node6</title>
<path fill="none" stroke="midnightblue" d="M385.63,-61.98C411.42,-51.81 454.71,-34.76 484.04,-23.2"/>
<polygon fill="midnightblue" stroke="midnightblue" points="485.38,-26.43 493.41,-19.51 482.82,-19.92 485.38,-26.43"/>
</g>
<!-- Node7&#45;&gt;Node2 -->
<g id="edge7" class="edge">
<title>Node7&#45;&gt;Node2</title>
<path fill="none" stroke="midnightblue" d="M111.04,-56.4C91.68,-46.64 66.09,-33.74 47.14,-24.18"/>
<polygon fill="midnightblue" stroke="midnightblue" points="48.67,-21.04 38.17,-19.66 45.52,-27.29 48.67,-21.04"/>
</g>
<!-- Node8 -->
<g id="node8" class="node">
<title>Node8</title>
<g id="a_node8"><a xlink:title=" ">
<polygon fill="none" stroke="#bfbfbf" points="60.5,-0.5 60.5,-19.5 113.5,-19.5 113.5,-0.5 60.5,-0.5"/>
<text text-anchor="middle" x="87" y="-7.5" font-family="Helvetica,sans-Serif" font-size="10.00">cstddef</text>
</a>
</g>
</g>
<!-- Node7&#45;&gt;Node8 -->
<g id="edge8" class="edge">
<title>Node7&#45;&gt;Node8</title>
<path fill="none" stroke="midnightblue" d="M126.68,-56.4C119.04,-47.66 109.21,-36.41 101.24,-27.3"/>
<polygon fill="midnightblue" stroke="midnightblue" points="103.78,-24.88 94.57,-19.66 98.51,-29.49 103.78,-24.88"/>
</g>
<!-- Node9 -->
<g id="node9" class="node">
<title>Node9</title>
<g id="a_node9"><a xlink:title=" ">
<polygon fill="none" stroke="#bfbfbf" points="132,-0.5 132,-19.5 182,-19.5 182,-0.5 132,-0.5"/>
<text text-anchor="middle" x="157" y="-7.5" font-family="Helvetica,sans-Serif" font-size="10.00">cstdint</text>
</a>
</g>
</g>
<!-- Node7&#45;&gt;Node9 -->
<g id="edge9" class="edge">
<title>Node7&#45;&gt;Node9</title>
<path fill="none" stroke="midnightblue" d="M143.27,-56.4C145.72,-48.29 148.83,-38.01 151.47,-29.28"/>
<polygon fill="midnightblue" stroke="midnightblue" points="154.84,-30.24 154.38,-19.66 148.14,-28.22 154.84,-30.24"/>
</g>
<!-- Node7&#45;&gt;Node10 -->
<g id="edge10" class="edge">
<title>Node7&#45;&gt;Node10</title>
<path fill="none" stroke="midnightblue" d="M159.14,-56.4C172.39,-47.13 189.68,-35.03 203.08,-25.65"/>
<polygon fill="midnightblue" stroke="midnightblue" points="205.45,-28.26 211.63,-19.66 201.43,-22.53 205.45,-28.26"/>
</g>
</g>
</svg>
