<?xml version="1.0" encoding="UTF-8" standalone="no"?>
<!DOCTYPE svg PUBLIC "-//W3C//DTD SVG 1.1//EN"
 "http://www.w3.org/Graphics/SVG/1.1/DTD/svg11.dtd">
<!-- Generated by graphviz version 2.43.0 (0)
 -->
<!-- Title: /home/runner/work/occ/occ/include/occ/geometry/marching_cubes.h Pages: 1 -->
<svg width="524pt" height="184pt"
 viewBox="0.00 0.00 524.00 184.00" xmlns="http://www.w3.org/2000/svg" xmlns:xlink="http://www.w3.org/1999/xlink">
<g id="graph0" class="graph" transform="scale(1 1) rotate(0) translate(4 180)">
<title>/home/runner/work/occ/occ/include/occ/geometry/marching_cubes.h</title>
<!-- Node1 -->
<g id="node1" class="node">
<title>Node1</title>
<g id="a_node1"><a xlink:title=" ">
<polygon fill="#bfbfbf" stroke="black" points="296.5,-134.5 296.5,-175.5 440.5,-175.5 440.5,-134.5 296.5,-134.5"/>
<text text-anchor="start" x="304.5" y="-163.5" font-family="Helvetica,sans-Serif" font-size="10.00">/home/runner/work/occ</text>
<text text-anchor="start" x="304.5" y="-152.5" font-family="Helvetica,sans-Serif" font-size="10.00">/occ/include/occ/geometry</text>
<text text-anchor="middle" x="368.5" y="-141.5" font-family="Helvetica,sans-Serif" font-size="10.00">/marching_cubes.h</text>
</a>
</g>
</g>
<!-- Node2 -->
<g id="node2" class="node">
<title>Node2</title>
<g id="a_node2"><a xlink:title=" ">
<polygon fill="none" stroke="#bfbfbf" points="331.5,-6 331.5,-25 373.5,-25 373.5,-6 331.5,-6"/>
<text text-anchor="middle" x="352.5" y="-13" font-family="Helvetica,sans-Serif" font-size="10.00">array</text>
</a>
</g>
</g>
<!-- Node1&#45;&gt;Node2 -->
<g id="edge1" class="edge">
<title>Node1&#45;&gt;Node2</title>
<path fill="none" stroke="midnightblue" d="M358.23,-134.37C353.32,-123.89 347.98,-110.58 345.5,-98 341.3,-76.72 344.6,-51.82 347.95,-35.19"/>
<polygon fill="midnightblue" stroke="midnightblue" points="351.43,-35.67 350.19,-25.15 344.6,-34.15 351.43,-35.67"/>
</g>
<!-- Node3 -->
<g id="node3" class="node">
<title>Node3</title>
<g id="a_node3"><a xlink:href="linear__algebra_8h.html" target="_top" xlink:title=" ">
<polygon fill="none" stroke="black" points="129,-73 129,-92 268,-92 268,-73 129,-73"/>
<text text-anchor="middle" x="198.5" y="-80" font-family="Helvetica,sans-Serif" font-size="10.00">occ/core/linear_algebra.h</text>
</a>
</g>
</g>
<!-- Node1&#45;&gt;Node3 -->
<g id="edge2" class="edge">
<title>Node1&#45;&gt;Node3</title>
<path fill="none" stroke="midnightblue" d="M321.15,-134.36C291.66,-122.13 254.59,-106.76 228.97,-96.14"/>
<polygon fill="midnightblue" stroke="midnightblue" points="229.99,-92.77 219.41,-92.17 227.31,-99.24 229.99,-92.77"/>
</g>
<!-- Node7 -->
<g id="node7" class="node">
<title>Node7</title>
<g id="a_node7"><a xlink:href="index__cache_8h.html" target="_top" xlink:title=" ">
<polygon fill="none" stroke="black" points="355,-67.5 355,-97.5 468,-97.5 468,-67.5 355,-67.5"/>
<text text-anchor="start" x="363" y="-85.5" font-family="Helvetica,sans-Serif" font-size="10.00">occ/geometry/index</text>
<text text-anchor="middle" x="411.5" y="-74.5" font-family="Helvetica,sans-Serif" font-size="10.00">_cache.h</text>
</a>
</g>
</g>
<!-- Node1&#45;&gt;Node7 -->
<g id="edge6" class="edge">
<title>Node1&#45;&gt;Node7</title>
<path fill="none" stroke="midnightblue" d="M380.48,-134.36C385.72,-125.77 391.9,-115.64 397.36,-106.68"/>
<polygon fill="midnightblue" stroke="midnightblue" points="400.5,-108.25 402.72,-97.89 394.53,-104.61 400.5,-108.25"/>
</g>
<!-- Node9 -->
<g id="node9" class="node">
<title>Node9</title>
<g id="a_node9"><a xlink:title=" ">
<polygon fill="none" stroke="#bfbfbf" points="469,-6 469,-25 516,-25 516,-6 469,-6"/>
<text text-anchor="middle" x="492.5" y="-13" font-family="Helvetica,sans-Serif" font-size="10.00">vector</text>
</a>
</g>
</g>
<!-- Node1&#45;&gt;Node9 -->
<g id="edge10" class="edge">
<title>Node1&#45;&gt;Node9</title>
<path fill="none" stroke="midnightblue" d="M429.87,-134.39C447.71,-125.87 465.57,-114.05 477.5,-98 491.08,-79.73 493.6,-52.9 493.55,-35.08"/>
<polygon fill="midnightblue" stroke="midnightblue" points="497.05,-34.97 493.25,-25.08 490.05,-35.18 497.05,-34.97"/>
</g>
<!-- Node4 -->
<g id="node4" class="node">
<title>Node4</title>
<g id="a_node4"><a xlink:title=" ">
<polygon fill="none" stroke="#bfbfbf" points="236,-6 236,-25 313,-25 313,-6 236,-6"/>
<text text-anchor="middle" x="274.5" y="-13" font-family="Helvetica,sans-Serif" font-size="10.00">Eigen/Dense</text>
</a>
</g>
</g>
<!-- Node3&#45;&gt;Node4 -->
<g id="edge3" class="edge">
<title>Node3&#45;&gt;Node4</title>
<path fill="none" stroke="midnightblue" d="M208.75,-72.73C220.94,-62.31 241.52,-44.71 256.41,-31.97"/>
<polygon fill="midnightblue" stroke="midnightblue" points="259.09,-34.29 264.41,-25.13 254.54,-28.97 259.09,-34.29"/>
</g>
<!-- Node5 -->
<g id="node5" class="node">
<title>Node5</title>
<g id="a_node5"><a xlink:title=" ">
<polygon fill="none" stroke="#bfbfbf" points="0,-6 0,-25 93,-25 93,-6 0,-6"/>
<text text-anchor="middle" x="46.5" y="-13" font-family="Helvetica,sans-Serif" font-size="10.00">Eigen/StdVector</text>
</a>
</g>
</g>
<!-- Node3&#45;&gt;Node5 -->
<g id="edge4" class="edge">
<title>Node3&#45;&gt;Node5</title>
<path fill="none" stroke="midnightblue" d="M178.32,-72.87C152.2,-61.7 106.47,-42.15 76.34,-29.26"/>
<polygon fill="midnightblue" stroke="midnightblue" points="77.34,-25.88 66.77,-25.17 74.59,-32.32 77.34,-25.88"/>
</g>
<!-- Node6 -->
<g id="node6" class="node">
<title>Node6</title>
<g id="a_node6"><a xlink:title=" ">
<polygon fill="none" stroke="#bfbfbf" points="111,-0.5 111,-30.5 218,-30.5 218,-0.5 111,-0.5"/>
<text text-anchor="start" x="119" y="-18.5" font-family="Helvetica,sans-Serif" font-size="10.00">occ/3rdparty/eigen</text>
<text text-anchor="middle" x="164.5" y="-7.5" font-family="Helvetica,sans-Serif" font-size="10.00">&#45;fmt/fmt.h</text>
</a>
</g>
</g>
<!-- Node3&#45;&gt;Node6 -->
<g id="edge5" class="edge">
<title>Node3&#45;&gt;Node6</title>
<path fill="none" stroke="midnightblue" d="M193.91,-72.73C189.5,-64.29 182.62,-51.14 176.62,-39.68"/>
<polygon fill="midnightblue" stroke="midnightblue" points="179.61,-37.83 171.87,-30.59 173.4,-41.07 179.61,-37.83"/>
</g>
<!-- Node7&#45;&gt;Node2 -->
<g id="edge7" class="edge">
<title>Node7&#45;&gt;Node2</title>
<path fill="none" stroke="midnightblue" d="M398.7,-67.4C389.41,-57.16 376.82,-43.3 367.13,-32.62"/>
<polygon fill="midnightblue" stroke="midnightblue" points="369.7,-30.25 360.39,-25.19 364.52,-34.95 369.7,-30.25"/>
</g>
<!-- Node8 -->
<g id="node8" class="node">
<title>Node8</title>
<g id="a_node8"><a xlink:title=" ">
<polygon fill="none" stroke="#bfbfbf" points="391.5,-6 391.5,-25 441.5,-25 441.5,-6 391.5,-6"/>
<text text-anchor="middle" x="416.5" y="-13" font-family="Helvetica,sans-Serif" font-size="10.00">cstdint</text>
</a>
</g>
</g>
<!-- Node7&#45;&gt;Node8 -->
<g id="edge8" class="edge">
<title>Node7&#45;&gt;Node8</title>
<path fill="none" stroke="midnightblue" d="M412.58,-67.4C413.31,-57.96 414.27,-45.45 415.06,-35.19"/>
<polygon fill="midnightblue" stroke="midnightblue" points="418.55,-35.43 415.83,-25.19 411.57,-34.9 418.55,-35.43"/>
</g>
<!-- Node7&#45;&gt;Node9 -->
<g id="edge9" class="edge">
<title>Node7&#45;&gt;Node9</title>
<path fill="none" stroke="midnightblue" d="M429.08,-67.4C442.21,-56.86 460.13,-42.48 473.57,-31.69"/>
<polygon fill="midnightblue" stroke="midnightblue" points="476.06,-34.18 481.67,-25.19 471.68,-28.72 476.06,-34.18"/>
</g>
</g>
</svg>
