<?xml version="1.0" encoding="UTF-8" standalone="no"?>
<!DOCTYPE svg PUBLIC "-//W3C//DTD SVG 1.1//EN"
 "http://www.w3.org/Graphics/SVG/1.1/DTD/svg11.dtd">
<!-- Generated by graphviz version 2.43.0 (0)
 -->
<!-- Title: /home/runner/work/occ/occ/include/occ/geometry/mesh.h Pages: 1 -->
<svg width="740pt" height="159pt"
 viewBox="0.00 0.00 740.43 159.00" xmlns="http://www.w3.org/2000/svg" xmlns:xlink="http://www.w3.org/1999/xlink">
<g id="graph0" class="graph" transform="scale(1 1) rotate(0) translate(4 155)">
<title>/home/runner/work/occ/occ/include/occ/geometry/mesh.h</title>
<!-- Node1 -->
<g id="Node000001" class="node">
<title>Node1</title>
<g id="a_Node000001"><a xlink:title=" ">
<polygon fill="#999999" stroke="#666666" points="370.93,-151 226.93,-151 226.93,-110 370.93,-110 370.93,-151"/>
<text text-anchor="start" x="234.93" y="-139" font-family="Helvetica,sans-Serif" font-size="10.00">/home/runner/work/occ</text>
<text text-anchor="start" x="234.93" y="-128" font-family="Helvetica,sans-Serif" font-size="10.00">/occ/include/occ/geometry</text>
<text text-anchor="middle" x="298.93" y="-117" font-family="Helvetica,sans-Serif" font-size="10.00">/mesh.h</text>
</a>
</g>
</g>
<!-- Node2 -->
<g id="Node000002" class="node">
<title>Node2</title>
<g id="a_Node000002"><a xlink:title=" ">
<polygon fill="#e0e0e0" stroke="#999999" points="208.43,-19 131.43,-19 131.43,0 208.43,0 208.43,-19"/>
<text text-anchor="middle" x="169.93" y="-7" font-family="Helvetica,sans-Serif" font-size="10.00">Eigen/Dense</text>
</a>
</g>
</g>
<!-- Node1&#45;&gt;Node2 -->
<g id="edge1_Node000001_Node000002" class="edge">
<title>Node1&#45;&gt;Node2</title>
<g id="a_edge1_Node000001_Node000002"><a xlink:title=" ">
<path fill="none" stroke="#63b8ff" d="M226.75,-125.96C149.76,-120.5 35.18,-106.94 7.93,-74 -25.68,-33.38 61.82,-18.63 120.93,-13.36"/>
<polygon fill="#63b8ff" stroke="#63b8ff" points="121.56,-16.82 131.23,-12.51 120.98,-9.84 121.56,-16.82"/>
</a>
</g>
</g>
<!-- Node3 -->
<g id="Node000003" class="node">
<title>Node3</title>
<g id="a_Node000003"><a xlink:title=" ">
<polygon fill="#e0e0e0" stroke="#999999" points="58.93,-74 16.93,-74 16.93,-55 58.93,-55 58.93,-74"/>
<text text-anchor="middle" x="37.93" y="-62" font-family="Helvetica,sans-Serif" font-size="10.00">array</text>
</a>
</g>
</g>
<!-- Node1&#45;&gt;Node3 -->
<g id="edge2_Node000001_Node000003" class="edge">
<title>Node1&#45;&gt;Node3</title>
<g id="a_edge2_Node000001_Node000003"><a xlink:title=" ">
<path fill="none" stroke="#63b8ff" d="M226.69,-112.93C183.45,-102.83 127.2,-89.37 68.95,-74.19"/>
<polygon fill="#63b8ff" stroke="#63b8ff" points="69.76,-70.79 59.2,-71.64 67.99,-77.56 69.76,-70.79"/>
</a>
</g>
</g>
<!-- Node4 -->
<g id="Node000004" class="node">
<title>Node4</title>
<g id="a_Node000004"><a xlink:title=" ">
<polygon fill="#e0e0e0" stroke="#999999" points="128.93,-74 76.93,-74 76.93,-55 128.93,-55 128.93,-74"/>
<text text-anchor="middle" x="102.93" y="-62" font-family="Helvetica,sans-Serif" font-size="10.00">cassert</text>
</a>
</g>
</g>
<!-- Node1&#45;&gt;Node4 -->
<g id="edge3_Node000001_Node000004" class="edge">
<title>Node1&#45;&gt;Node4</title>
<g id="a_edge3_Node000001_Node000004"><a xlink:title=" ">
<path fill="none" stroke="#63b8ff" d="M239.05,-109.95C206.27,-99.24 166.74,-86.34 138.74,-77.19"/>
<polygon fill="#63b8ff" stroke="#63b8ff" points="139.57,-73.78 128.98,-74.01 137.4,-80.44 139.57,-73.78"/>
</a>
</g>
</g>
<!-- Node5 -->
<g id="Node000005" class="node">
<title>Node5</title>
<g id="a_Node000005"><a xlink:title=" ">
<polygon fill="#e0e0e0" stroke="#999999" points="208.93,-74 146.93,-74 146.93,-55 208.93,-55 208.93,-74"/>
<text text-anchor="middle" x="177.93" y="-62" font-family="Helvetica,sans-Serif" font-size="10.00">cinttypes</text>
</a>
</g>
</g>
<!-- Node1&#45;&gt;Node5 -->
<g id="edge4_Node000001_Node000005" class="edge">
<title>Node1&#45;&gt;Node5</title>
<g id="a_edge4_Node000001_Node000005"><a xlink:title=" ">
<path fill="none" stroke="#63b8ff" d="M261.96,-109.95C243.02,-99.93 220.44,-87.99 203.45,-79"/>
<polygon fill="#63b8ff" stroke="#63b8ff" points="204.65,-75.67 194.17,-74.09 201.37,-81.86 204.65,-75.67"/>
</a>
</g>
</g>
<!-- Node6 -->
<g id="Node000006" class="node">
<title>Node6</title>
<g id="a_Node000006"><a xlink:title=" ">
<polygon fill="#e0e0e0" stroke="#999999" points="270.93,-74 226.93,-74 226.93,-55 270.93,-55 270.93,-74"/>
<text text-anchor="middle" x="248.93" y="-62" font-family="Helvetica,sans-Serif" font-size="10.00">limits</text>
</a>
</g>
</g>
<!-- Node1&#45;&gt;Node6 -->
<g id="edge5_Node000001_Node000006" class="edge">
<title>Node1&#45;&gt;Node6</title>
<g id="a_edge5_Node000001_Node000006"><a xlink:title=" ">
<path fill="none" stroke="#63b8ff" d="M283.65,-109.95C276.75,-101.11 268.67,-90.77 262.04,-82.29"/>
<polygon fill="#63b8ff" stroke="#63b8ff" points="264.68,-79.99 255.77,-74.26 259.17,-84.3 264.68,-79.99"/>
</a>
</g>
</g>
<!-- Node7 -->
<g id="Node000007" class="node">
<title>Node7</title>
<g id="a_Node000007"><a xlink:title=" ">
<polygon fill="#e0e0e0" stroke="#999999" points="474.93,-19 416.93,-19 416.93,0 474.93,0 474.93,-19"/>
<text text-anchor="middle" x="445.93" y="-7" font-family="Helvetica,sans-Serif" font-size="10.00">memory</text>
</a>
</g>
</g>
<!-- Node1&#45;&gt;Node7 -->
<g id="edge6_Node000001_Node000007" class="edge">
<title>Node1&#45;&gt;Node7</title>
<g id="a_edge6_Node000001_Node000007"><a xlink:title=" ">
<path fill="none" stroke="#63b8ff" d="M364.58,-109.92C384.36,-101.45 404.81,-89.76 419.93,-74 431.77,-61.66 438.51,-43.18 442.14,-29.33"/>
<polygon fill="#63b8ff" stroke="#63b8ff" points="445.59,-29.96 444.43,-19.43 438.77,-28.38 445.59,-29.96"/>
</a>
</g>
</g>
<!-- Node8 -->
<g id="Node000008" class="node">
<title>Node8</title>
<g id="a_Node000008"><a xlink:href="plane_8h.html" target="_top" xlink:title=" ">
<polygon fill="white" stroke="#666666" points="410.93,-74 288.93,-74 288.93,-55 410.93,-55 410.93,-74"/>
<text text-anchor="middle" x="349.93" y="-62" font-family="Helvetica,sans-Serif" font-size="10.00">occ/geometry/plane.h</text>
</a>
</g>
</g>
<!-- Node1&#45;&gt;Node8 -->
<g id="edge7_Node000001_Node000008" class="edge">
<title>Node1&#45;&gt;Node8</title>
<g id="a_edge7_Node000001_Node000008"><a xlink:title=" ">
<path fill="none" stroke="#63b8ff" d="M314.5,-109.95C321.55,-101.11 329.79,-90.77 336.55,-82.29"/>
<polygon fill="#63b8ff" stroke="#63b8ff" points="339.45,-84.26 342.94,-74.26 333.97,-79.9 339.45,-84.26"/>
</a>
</g>
</g>
<!-- Node9 -->
<g id="Node000009" class="node">
<title>Node9</title>
<g id="a_Node000009"><a xlink:href="pool_8h.html" target="_top" xlink:title=" ">
<polygon fill="white" stroke="#666666" points="582.93,-74 466.93,-74 466.93,-55 582.93,-55 582.93,-74"/>
<text text-anchor="middle" x="524.93" y="-62" font-family="Helvetica,sans-Serif" font-size="10.00">occ/geometry/pool.h</text>
</a>
</g>
</g>
<!-- Node1&#45;&gt;Node9 -->
<g id="edge9_Node000001_Node000009" class="edge">
<title>Node1&#45;&gt;Node9</title>
<g id="a_edge9_Node000001_Node000009"><a xlink:title=" ">
<path fill="none" stroke="#63b8ff" d="M367.96,-109.95C406.26,-99.1 452.55,-86 484.9,-76.84"/>
<polygon fill="#63b8ff" stroke="#63b8ff" points="486.21,-80.1 494.88,-74.01 484.31,-73.37 486.21,-80.1"/>
</a>
</g>
</g>
<!-- Node10 -->
<g id="Node000010" class="node">
<title>Node10</title>
<g id="a_Node000010"><a xlink:title=" ">
<polygon fill="#e0e0e0" stroke="#999999" points="591.43,-19 544.43,-19 544.43,0 591.43,0 591.43,-19"/>
<text text-anchor="middle" x="567.93" y="-7" font-family="Helvetica,sans-Serif" font-size="10.00">vector</text>
</a>
</g>
</g>
<!-- Node1&#45;&gt;Node10 -->
<g id="edge13_Node000001_Node000010" class="edge">
<title>Node1&#45;&gt;Node10</title>
<g id="a_edge13_Node000001_Node000010"><a xlink:title=" ">
<path fill="none" stroke="#63b8ff" d="M371.24,-126.06C448.76,-120.69 564.43,-107.19 591.93,-74 603.15,-60.45 593.12,-41.11 582.81,-27.34"/>
<polygon fill="#63b8ff" stroke="#63b8ff" points="585.23,-24.77 576.21,-19.21 579.8,-29.18 585.23,-24.77"/>
</a>
</g>
</g>
<!-- Node11 -->
<g id="Node000011" class="node">
<title>Node11</title>
<g id="a_Node000011"><a xlink:title=" ">
<polygon fill="#e0e0e0" stroke="#999999" points="732.43,-74 639.43,-74 639.43,-55 732.43,-55 732.43,-74"/>
<text text-anchor="middle" x="685.93" y="-62" font-family="Helvetica,sans-Serif" font-size="10.00">unordered_map</text>
</a>
</g>
</g>
<!-- Node1&#45;&gt;Node11 -->
<g id="edge12_Node000001_Node000011" class="edge">
<title>Node1&#45;&gt;Node11</title>
<g id="a_edge12_Node000001_Node000011"><a xlink:title=" ">
<path fill="none" stroke="#63b8ff" d="M371.26,-117.54C445.86,-105.2 560.67,-86.21 629.03,-74.91"/>
<polygon fill="#63b8ff" stroke="#63b8ff" points="629.89,-78.31 639.18,-73.23 628.75,-71.41 629.89,-78.31"/>
</a>
</g>
</g>
<!-- Node8&#45;&gt;Node2 -->
<g id="edge8_Node000008_Node000002" class="edge">
<title>Node8&#45;&gt;Node2</title>
<g id="a_edge8_Node000008_Node000002"><a xlink:title=" ">
<path fill="none" stroke="#63b8ff" d="M321.01,-54.98C290.65,-46.05 242.76,-31.94 209.04,-22.02"/>
<polygon fill="#63b8ff" stroke="#63b8ff" points="209.65,-18.55 199.07,-19.08 207.68,-25.26 209.65,-18.55"/>
</a>
</g>
</g>
<!-- Node9&#45;&gt;Node7 -->
<g id="edge10_Node000009_Node000007" class="edge">
<title>Node9&#45;&gt;Node7</title>
<g id="a_edge10_Node000009_Node000007"><a xlink:title=" ">
<path fill="none" stroke="#63b8ff" d="M512.23,-54.98C500.1,-46.84 481.57,-34.41 467.18,-24.76"/>
<polygon fill="#63b8ff" stroke="#63b8ff" points="469.1,-21.84 458.85,-19.17 465.2,-27.65 469.1,-21.84"/>
</a>
</g>
</g>
<!-- Node9&#45;&gt;Node10 -->
<g id="edge11_Node000009_Node000010" class="edge">
<title>Node9&#45;&gt;Node10</title>
<g id="a_edge11_Node000009_Node000010"><a xlink:title=" ">
<path fill="none" stroke="#63b8ff" d="M532.03,-54.75C538.1,-47.26 547.01,-36.28 554.44,-27.13"/>
<polygon fill="#63b8ff" stroke="#63b8ff" points="557.37,-29.06 560.96,-19.09 551.94,-24.65 557.37,-29.06"/>
</a>
</g>
</g>
</g>
</svg>
