<?xml version="1.0" encoding="UTF-8" standalone="no"?>
<!DOCTYPE svg PUBLIC "-//W3C//DTD SVG 1.1//EN"
 "http://www.w3.org/Graphics/SVG/1.1/DTD/svg11.dtd">
<!-- Generated by graphviz version 2.43.0 (0)
 -->
<!-- Title: /home/runner/work/occ/occ/include/occ/geometry/mesh.h Pages: 1 -->
<svg width="352pt" height="203pt"
 viewBox="0.00 0.00 352.00 203.00" xmlns="http://www.w3.org/2000/svg" xmlns:xlink="http://www.w3.org/1999/xlink">
<g id="graph0" class="graph" transform="scale(1 1) rotate(0) translate(4 199)">
<title>/home/runner/work/occ/occ/include/occ/geometry/mesh.h</title>
<!-- Node1 -->
<g id="Node000001" class="node">
<title>Node1</title>
<g id="a_Node000001"><a xlink:title=" ">
<polygon fill="#999999" stroke="#666666" points="244,-195 100,-195 100,-154 244,-154 244,-195"/>
<text text-anchor="start" x="108" y="-183" font-family="Helvetica,sans-Serif" font-size="10.00">/home/runner/work/occ</text>
<text text-anchor="start" x="108" y="-172" font-family="Helvetica,sans-Serif" font-size="10.00">/occ/include/occ/geometry</text>
<text text-anchor="middle" x="172" y="-161" font-family="Helvetica,sans-Serif" font-size="10.00">/mesh.h</text>
</a>
</g>
</g>
<!-- Node2 -->
<g id="Node000002" class="node">
<title>Node2</title>
<g id="a_Node000002"><a xlink:href="convex__hull_8h.html" target="_top" xlink:title=" ">
<polygon fill="white" stroke="#666666" points="144,-118 0,-118 0,-77 144,-77 144,-118"/>
<text text-anchor="start" x="8" y="-106" font-family="Helvetica,sans-Serif" font-size="10.00">/home/runner/work/occ</text>
<text text-anchor="start" x="8" y="-95" font-family="Helvetica,sans-Serif" font-size="10.00">/occ/include/occ/geometry</text>
<text text-anchor="middle" x="72" y="-84" font-family="Helvetica,sans-Serif" font-size="10.00">/convex_hull.h</text>
</a>
</g>
</g>
<!-- Node1&#45;&gt;Node2 -->
<g id="edge1_Node000001_Node000002" class="edge">
<title>Node1&#45;&gt;Node2</title>
<g id="a_edge1_Node000001_Node000002"><a xlink:title=" ">
<path fill="none" stroke="#63b8ff" d="M137.75,-147.82C124.82,-138.11 110.32,-127.24 98.23,-118.17"/>
<polygon fill="#63b8ff" stroke="#63b8ff" points="135.89,-150.79 145.99,-153.99 140.09,-145.19 135.89,-150.79"/>
</a>
</g>
</g>
<!-- Node3 -->
<g id="Node000003" class="node">
<title>Node3</title>
<g id="a_Node000003"><a xlink:href="quickhull_8h.html" target="_top" xlink:title=" ">
<polygon fill="white" stroke="#666666" points="244,-41 100,-41 100,0 244,0 244,-41"/>
<text text-anchor="start" x="108" y="-29" font-family="Helvetica,sans-Serif" font-size="10.00">/home/runner/work/occ</text>
<text text-anchor="start" x="108" y="-18" font-family="Helvetica,sans-Serif" font-size="10.00">/occ/include/occ/geometry</text>
<text text-anchor="middle" x="172" y="-7" font-family="Helvetica,sans-Serif" font-size="10.00">/quickhull.h</text>
</a>
</g>
</g>
<!-- Node1&#45;&gt;Node3 -->
<g id="edge5_Node000001_Node000003" class="edge">
<title>Node1&#45;&gt;Node3</title>
<g id="a_edge5_Node000001_Node000003"><a xlink:title=" ">
<path fill="none" stroke="#63b8ff" d="M172,-143.58C172,-113.36 172,-67.53 172,-41.47"/>
<polygon fill="#63b8ff" stroke="#63b8ff" points="168.5,-143.94 172,-153.94 175.5,-143.94 168.5,-143.94"/>
</a>
</g>
</g>
<!-- Node4 -->
<g id="Node000004" class="node">
<title>Node4</title>
<g id="a_Node000004"><a xlink:href="half__edge__mesh_8h.html" target="_top" xlink:title=" ">
<polygon fill="white" stroke="#666666" points="344,-118 200,-118 200,-77 344,-77 344,-118"/>
<text text-anchor="start" x="208" y="-106" font-family="Helvetica,sans-Serif" font-size="10.00">/home/runner/work/occ</text>
<text text-anchor="start" x="208" y="-95" font-family="Helvetica,sans-Serif" font-size="10.00">/occ/include/occ/geometry</text>
<text text-anchor="middle" x="272" y="-84" font-family="Helvetica,sans-Serif" font-size="10.00">/half_edge_mesh.h</text>
</a>
</g>
</g>
<!-- Node1&#45;&gt;Node4 -->
<g id="edge3_Node000001_Node000004" class="edge">
<title>Node1&#45;&gt;Node4</title>
<g id="a_edge3_Node000001_Node000004"><a xlink:title=" ">
<path fill="none" stroke="#63b8ff" d="M206.25,-147.82C219.18,-138.11 233.68,-127.24 245.77,-118.17"/>
<polygon fill="#63b8ff" stroke="#63b8ff" points="203.91,-145.19 198.01,-153.99 208.11,-150.79 203.91,-145.19"/>
</a>
</g>
</g>
<!-- Node2&#45;&gt;Node3 -->
<g id="edge2_Node000002_Node000003" class="edge">
<title>Node2&#45;&gt;Node3</title>
<g id="a_edge2_Node000002_Node000003"><a xlink:title=" ">
<path fill="none" stroke="#63b8ff" d="M106.25,-70.82C119.18,-61.11 133.68,-50.24 145.77,-41.17"/>
<polygon fill="#63b8ff" stroke="#63b8ff" points="103.91,-68.19 98.01,-76.99 108.11,-73.79 103.91,-68.19"/>
</a>
</g>
</g>
<!-- Node4&#45;&gt;Node3 -->
<g id="edge4_Node000004_Node000003" class="edge">
<title>Node4&#45;&gt;Node3</title>
<g id="a_edge4_Node000004_Node000003"><a xlink:title=" ">
<path fill="none" stroke="#63b8ff" d="M237.75,-70.82C224.82,-61.11 210.32,-50.24 198.23,-41.17"/>
<polygon fill="#63b8ff" stroke="#63b8ff" points="235.89,-73.79 245.99,-76.99 240.09,-68.19 235.89,-73.79"/>
</a>
</g>
</g>
</g>
</svg>
