<?xml version="1.0" encoding="UTF-8" standalone="no"?>
<!DOCTYPE svg PUBLIC "-//W3C//DTD SVG 1.1//EN"
 "http://www.w3.org/Graphics/SVG/1.1/DTD/svg11.dtd">
<!-- Generated by graphviz version 2.43.0 (0)
 -->
<!-- Title: /home/runner/work/occ/occ/include/occ/geometry/mesh.h Pages: 1 -->
<svg width="740pt" height="162pt"
 viewBox="0.00 0.00 740.45 162.00" xmlns="http://www.w3.org/2000/svg" xmlns:xlink="http://www.w3.org/1999/xlink">
<g id="graph0" class="graph" transform="scale(1 1) rotate(0) translate(4 158)">
<title>/home/runner/work/occ/occ/include/occ/geometry/mesh.h</title>
<!-- Node1 -->
<g id="node1" class="node">
<title>Node1</title>
<g id="a_node1"><a xlink:title=" ">
<polygon fill="#bfbfbf" stroke="black" points="226.95,-112.5 226.95,-153.5 370.95,-153.5 370.95,-112.5 226.95,-112.5"/>
<text text-anchor="start" x="234.95" y="-141.5" font-family="Helvetica,sans-Serif" font-size="10.00">/home/runner/work/occ</text>
<text text-anchor="start" x="234.95" y="-130.5" font-family="Helvetica,sans-Serif" font-size="10.00">/occ/include/occ/geometry</text>
<text text-anchor="middle" x="298.95" y="-119.5" font-family="Helvetica,sans-Serif" font-size="10.00">/mesh.h</text>
</a>
</g>
</g>
<!-- Node2 -->
<g id="node2" class="node">
<title>Node2</title>
<g id="a_node2"><a xlink:title=" ">
<polygon fill="none" stroke="#bfbfbf" points="131.45,-0.5 131.45,-19.5 208.45,-19.5 208.45,-0.5 131.45,-0.5"/>
<text text-anchor="middle" x="169.95" y="-7.5" font-family="Helvetica,sans-Serif" font-size="10.00">Eigen/Dense</text>
</a>
</g>
</g>
<!-- Node1&#45;&gt;Node2 -->
<g id="edge1" class="edge">
<title>Node1&#45;&gt;Node2</title>
<path fill="none" stroke="midnightblue" d="M226.77,-128.34C149.78,-122.74 35.19,-108.97 7.95,-76 -25.72,-35.22 61.81,-19.83 120.93,-14.17"/>
<polygon fill="midnightblue" stroke="midnightblue" points="121.6,-17.62 131.25,-13.25 120.97,-10.65 121.6,-17.62"/>
</g>
<!-- Node3 -->
<g id="node3" class="node">
<title>Node3</title>
<g id="a_node3"><a xlink:title=" ">
<polygon fill="none" stroke="#bfbfbf" points="16.95,-56.5 16.95,-75.5 58.95,-75.5 58.95,-56.5 16.95,-56.5"/>
<text text-anchor="middle" x="37.95" y="-63.5" font-family="Helvetica,sans-Serif" font-size="10.00">array</text>
</a>
</g>
</g>
<!-- Node1&#45;&gt;Node3 -->
<g id="edge2" class="edge">
<title>Node1&#45;&gt;Node3</title>
<path fill="none" stroke="midnightblue" d="M226.9,-115.58C183.62,-105.47 127.24,-91.88 68.97,-76.18"/>
<polygon fill="midnightblue" stroke="midnightblue" points="69.79,-72.77 59.22,-73.53 67.96,-79.53 69.79,-72.77"/>
</g>
<!-- Node4 -->
<g id="node4" class="node">
<title>Node4</title>
<g id="a_node4"><a xlink:title=" ">
<polygon fill="none" stroke="#bfbfbf" points="76.95,-56.5 76.95,-75.5 128.95,-75.5 128.95,-56.5 76.95,-56.5"/>
<text text-anchor="middle" x="102.95" y="-63.5" font-family="Helvetica,sans-Serif" font-size="10.00">cassert</text>
</a>
</g>
</g>
<!-- Node1&#45;&gt;Node4 -->
<g id="edge3" class="edge">
<title>Node1&#45;&gt;Node4</title>
<path fill="none" stroke="midnightblue" d="M240.15,-112.5C207.11,-101.54 166.95,-88.22 138.64,-78.84"/>
<polygon fill="midnightblue" stroke="midnightblue" points="139.38,-75.39 128.79,-75.57 137.18,-82.04 139.38,-75.39"/>
</g>
<!-- Node5 -->
<g id="node5" class="node">
<title>Node5</title>
<g id="a_node5"><a xlink:title=" ">
<polygon fill="none" stroke="#bfbfbf" points="146.95,-56.5 146.95,-75.5 208.95,-75.5 208.95,-56.5 146.95,-56.5"/>
<text text-anchor="middle" x="177.95" y="-63.5" font-family="Helvetica,sans-Serif" font-size="10.00">cinttypes</text>
</a>
</g>
</g>
<!-- Node1&#45;&gt;Node5 -->
<g id="edge4" class="edge">
<title>Node1&#45;&gt;Node5</title>
<path fill="none" stroke="midnightblue" d="M262.65,-112.5C243.39,-102.15 220.2,-89.69 202.96,-80.43"/>
<polygon fill="midnightblue" stroke="midnightblue" points="204.53,-77.3 194.06,-75.65 201.21,-83.47 204.53,-77.3"/>
</g>
<!-- Node6 -->
<g id="node6" class="node">
<title>Node6</title>
<g id="a_node6"><a xlink:title=" ">
<polygon fill="none" stroke="#bfbfbf" points="226.95,-56.5 226.95,-75.5 270.95,-75.5 270.95,-56.5 226.95,-56.5"/>
<text text-anchor="middle" x="248.95" y="-63.5" font-family="Helvetica,sans-Serif" font-size="10.00">limits</text>
</a>
</g>
</g>
<!-- Node1&#45;&gt;Node6 -->
<g id="edge5" class="edge">
<title>Node1&#45;&gt;Node6</title>
<path fill="none" stroke="midnightblue" d="M283.95,-112.5C276.88,-103.3 268.52,-92.44 261.75,-83.63"/>
<polygon fill="midnightblue" stroke="midnightblue" points="264.48,-81.44 255.61,-75.65 258.93,-85.71 264.48,-81.44"/>
</g>
<!-- Node7 -->
<g id="node7" class="node">
<title>Node7</title>
<g id="a_node7"><a xlink:title=" ">
<polygon fill="none" stroke="#bfbfbf" points="416.95,-0.5 416.95,-19.5 474.95,-19.5 474.95,-0.5 416.95,-0.5"/>
<text text-anchor="middle" x="445.95" y="-7.5" font-family="Helvetica,sans-Serif" font-size="10.00">memory</text>
</a>
</g>
</g>
<!-- Node1&#45;&gt;Node7 -->
<g id="edge6" class="edge">
<title>Node1&#45;&gt;Node7</title>
<path fill="none" stroke="midnightblue" d="M364.06,-112.48C384.04,-103.91 404.74,-92.04 419.95,-76 432.1,-63.2 438.83,-44.01 442.38,-29.8"/>
<polygon fill="midnightblue" stroke="midnightblue" points="445.88,-30.2 444.59,-19.68 439.04,-28.7 445.88,-30.2"/>
</g>
<!-- Node8 -->
<g id="node8" class="node">
<title>Node8</title>
<g id="a_node8"><a xlink:href="plane_8h.html" target="_top" xlink:title=" ">
<polygon fill="none" stroke="black" points="288.95,-56.5 288.95,-75.5 410.95,-75.5 410.95,-56.5 288.95,-56.5"/>
<text text-anchor="middle" x="349.95" y="-63.5" font-family="Helvetica,sans-Serif" font-size="10.00">occ/geometry/plane.h</text>
</a>
</g>
</g>
<!-- Node1&#45;&gt;Node8 -->
<g id="edge7" class="edge">
<title>Node1&#45;&gt;Node8</title>
<path fill="none" stroke="midnightblue" d="M314.26,-112.5C321.47,-103.3 330,-92.44 336.9,-83.63"/>
<polygon fill="midnightblue" stroke="midnightblue" points="339.75,-85.68 343.17,-75.65 334.24,-81.36 339.75,-85.68"/>
</g>
<!-- Node9 -->
<g id="node9" class="node">
<title>Node9</title>
<g id="a_node9"><a xlink:href="pool_8h.html" target="_top" xlink:title=" ">
<polygon fill="none" stroke="black" points="466.95,-56.5 466.95,-75.5 582.95,-75.5 582.95,-56.5 466.95,-56.5"/>
<text text-anchor="middle" x="524.95" y="-63.5" font-family="Helvetica,sans-Serif" font-size="10.00">occ/geometry/pool.h</text>
</a>
</g>
</g>
<!-- Node1&#45;&gt;Node9 -->
<g id="edge9" class="edge">
<title>Node1&#45;&gt;Node9</title>
<path fill="none" stroke="midnightblue" d="M366.76,-112.5C405.53,-101.35 452.79,-87.76 485.51,-78.35"/>
<polygon fill="midnightblue" stroke="midnightblue" points="486.52,-81.69 495.17,-75.57 484.59,-74.97 486.52,-81.69"/>
</g>
<!-- Node10 -->
<g id="node10" class="node">
<title>Node10</title>
<g id="a_node10"><a xlink:title=" ">
<polygon fill="none" stroke="#bfbfbf" points="544.45,-0.5 544.45,-19.5 591.45,-19.5 591.45,-0.5 544.45,-0.5"/>
<text text-anchor="middle" x="567.95" y="-7.5" font-family="Helvetica,sans-Serif" font-size="10.00">vector</text>
</a>
</g>
</g>
<!-- Node1&#45;&gt;Node10 -->
<g id="edge13" class="edge">
<title>Node1&#45;&gt;Node10</title>
<path fill="none" stroke="midnightblue" d="M371.28,-128.43C448.8,-122.92 564.48,-109.22 591.95,-76 603.51,-62.03 593.14,-41.98 582.66,-27.85"/>
<polygon fill="midnightblue" stroke="midnightblue" points="585.29,-25.54 576.31,-19.92 579.83,-29.92 585.29,-25.54"/>
</g>
<!-- Node11 -->
<g id="node11" class="node">
<title>Node11</title>
<g id="a_node11"><a xlink:title=" ">
<polygon fill="none" stroke="#bfbfbf" points="639.45,-56.5 639.45,-75.5 732.45,-75.5 732.45,-56.5 639.45,-56.5"/>
<text text-anchor="middle" x="685.95" y="-63.5" font-family="Helvetica,sans-Serif" font-size="10.00">unordered_map</text>
</a>
</g>
</g>
<!-- Node1&#45;&gt;Node11 -->
<g id="edge12" class="edge">
<title>Node1&#45;&gt;Node11</title>
<path fill="none" stroke="midnightblue" d="M371.29,-119.85C445.89,-107.32 560.7,-88.04 629.06,-76.56"/>
<polygon fill="midnightblue" stroke="midnightblue" points="629.93,-79.96 639.21,-74.85 628.77,-73.06 629.93,-79.96"/>
</g>
<!-- Node8&#45;&gt;Node2 -->
<g id="edge8" class="edge">
<title>Node8&#45;&gt;Node2</title>
<path fill="none" stroke="midnightblue" d="M321.43,-56.44C290.89,-47.28 242.25,-32.69 208.35,-22.52"/>
<polygon fill="midnightblue" stroke="midnightblue" points="208.93,-19.04 198.34,-19.52 206.92,-25.74 208.93,-19.04"/>
</g>
<!-- Node9&#45;&gt;Node7 -->
<g id="edge10" class="edge">
<title>Node9&#45;&gt;Node7</title>
<path fill="none" stroke="midnightblue" d="M512.26,-56.32C500.05,-47.98 481.38,-35.21 466.95,-25.35"/>
<polygon fill="midnightblue" stroke="midnightblue" points="468.85,-22.41 458.62,-19.65 464.9,-28.19 468.85,-22.41"/>
</g>
<!-- Node9&#45;&gt;Node10 -->
<g id="edge11" class="edge">
<title>Node9&#45;&gt;Node10</title>
<path fill="none" stroke="midnightblue" d="M532.06,-56.08C538.19,-48.38 547.22,-37.03 554.69,-27.65"/>
<polygon fill="midnightblue" stroke="midnightblue" points="557.49,-29.75 560.99,-19.75 552.02,-25.39 557.49,-29.75"/>
</g>
</g>
</svg>
