<?xml version="1.0" encoding="UTF-8" standalone="no"?>
<!DOCTYPE svg PUBLIC "-//W3C//DTD SVG 1.1//EN"
 "http://www.w3.org/Graphics/SVG/1.1/DTD/svg11.dtd">
<!-- Generated by graphviz version 2.43.0 (0)
 -->
<!-- Title: /home/runner/work/occ/occ/include/occ/qm/mo_integral_engine.h Pages: 1 -->
<svg width="1630pt" height="445pt"
 viewBox="0.00 0.00 1630.00 445.00" xmlns="http://www.w3.org/2000/svg" xmlns:xlink="http://www.w3.org/1999/xlink">
<g id="graph0" class="graph" transform="scale(1 1) rotate(0) translate(4 441)">
<title>/home/runner/work/occ/occ/include/occ/qm/mo_integral_engine.h</title>
<!-- Node1 -->
<g id="Node000001" class="node">
<title>Node1</title>
<g id="a_Node000001"><a xlink:title=" ">
<polygon fill="#999999" stroke="#666666" points="448.5,-437 317.5,-437 317.5,-396 448.5,-396 448.5,-437"/>
<text text-anchor="start" x="325.5" y="-425" font-family="Helvetica,sans-Serif" font-size="10.00">/home/runner/work/occ</text>
<text text-anchor="start" x="325.5" y="-414" font-family="Helvetica,sans-Serif" font-size="10.00">/occ/include/occ/qm/mo</text>
<text text-anchor="middle" x="383" y="-403" font-family="Helvetica,sans-Serif" font-size="10.00">_integral_engine.h</text>
</a>
</g>
</g>
<!-- Node2 -->
<g id="Node000002" class="node">
<title>Node2</title>
<g id="a_Node000002"><a xlink:title=" ">
<polygon fill="#e0e0e0" stroke="#999999" points="271,-129 229,-129 229,-110 271,-110 271,-129"/>
<text text-anchor="middle" x="250" y="-117" font-family="Helvetica,sans-Serif" font-size="10.00">array</text>
</a>
</g>
</g>
<!-- Node1&#45;&gt;Node2 -->
<g id="edge1_Node000001_Node000002" class="edge">
<title>Node1&#45;&gt;Node2</title>
<g id="a_edge1_Node000001_Node000002"><a xlink:title=" ">
<path fill="none" stroke="#63b8ff" d="M317.3,-405.54C217.2,-388.48 38,-349.74 38,-291 38,-291 38,-291 38,-228.5 38,-148.39 159.66,-127.68 218.65,-122.34"/>
<polygon fill="#63b8ff" stroke="#63b8ff" points="219.21,-125.81 228.9,-121.51 218.65,-118.83 219.21,-125.81"/>
</a>
</g>
</g>
<!-- Node3 -->
<g id="Node000003" class="node">
<title>Node3</title>
<g id="a_Node000003"><a xlink:href="linear__algebra_8h.html" target="_top" xlink:title=" ">
<polygon fill="white" stroke="#666666" points="552.5,-74 413.5,-74 413.5,-55 552.5,-55 552.5,-74"/>
<text text-anchor="middle" x="483" y="-62" font-family="Helvetica,sans-Serif" font-size="10.00">occ/core/linear_algebra.h</text>
</a>
</g>
</g>
<!-- Node1&#45;&gt;Node3 -->
<g id="edge2_Node000001_Node000003" class="edge">
<title>Node1&#45;&gt;Node3</title>
<g id="a_edge2_Node000001_Node000003"><a xlink:title=" ">
<path fill="none" stroke="#63b8ff" d="M317.42,-412.57C255.09,-407.69 160,-394.67 85,-360 40.83,-339.58 0,-339.66 0,-291 0,-291 0,-291 0,-173.5 0,-91.87 266.04,-71.92 403.23,-67.06"/>
<polygon fill="#63b8ff" stroke="#63b8ff" points="403.41,-70.55 413.28,-66.72 403.17,-63.56 403.41,-70.55"/>
</a>
</g>
</g>
<!-- Node7 -->
<g id="Node000007" class="node">
<title>Node7</title>
<g id="a_Node000007"><a xlink:href="integral__engine_8h.html" target="_top" xlink:title=" ">
<polygon fill="white" stroke="#666666" points="798,-360 658,-360 658,-341 798,-341 798,-360"/>
<text text-anchor="middle" x="728" y="-348" font-family="Helvetica,sans-Serif" font-size="10.00">occ/qm/integral_engine.h</text>
</a>
</g>
</g>
<!-- Node1&#45;&gt;Node7 -->
<g id="edge6_Node000001_Node000007" class="edge">
<title>Node1&#45;&gt;Node7</title>
<g id="a_edge6_Node000001_Node000007"><a xlink:title=" ">
<path fill="none" stroke="#63b8ff" d="M448.7,-403.31C513.43,-391.3 611.23,-373.16 672.27,-361.84"/>
<polygon fill="#63b8ff" stroke="#63b8ff" points="672.91,-365.28 682.11,-360.01 671.63,-358.4 672.91,-365.28"/>
</a>
</g>
</g>
<!-- Node33 -->
<g id="Node000033" class="node">
<title>Node33</title>
<g id="a_Node000033"><a xlink:href="mo_8h.html" target="_top" xlink:title=" ">
<polygon fill="white" stroke="#666666" points="1462,-299.5 1382,-299.5 1382,-280.5 1462,-280.5 1462,-299.5"/>
<text text-anchor="middle" x="1422" y="-287.5" font-family="Helvetica,sans-Serif" font-size="10.00">occ/qm/mo.h</text>
</a>
</g>
</g>
<!-- Node1&#45;&gt;Node33 -->
<g id="edge69_Node000001_Node000033" class="edge">
<title>Node1&#45;&gt;Node33</title>
<g id="a_edge69_Node000001_Node000033"><a xlink:title=" ">
<path fill="none" stroke="#63b8ff" d="M448.59,-411.37C607.43,-400.68 1024.91,-368.39 1368,-305 1372.69,-304.13 1377.58,-303.08 1382.41,-301.95"/>
<polygon fill="#63b8ff" stroke="#63b8ff" points="1383.31,-305.33 1392.18,-299.54 1381.63,-298.54 1383.31,-305.33"/>
</a>
</g>
</g>
<!-- Node4 -->
<g id="Node000004" class="node">
<title>Node4</title>
<g id="a_Node000004"><a xlink:title=" ">
<polygon fill="#e0e0e0" stroke="#999999" points="418.5,-19 341.5,-19 341.5,0 418.5,0 418.5,-19"/>
<text text-anchor="middle" x="380" y="-7" font-family="Helvetica,sans-Serif" font-size="10.00">Eigen/Dense</text>
</a>
</g>
</g>
<!-- Node3&#45;&gt;Node4 -->
<g id="edge3_Node000003_Node000004" class="edge">
<title>Node3&#45;&gt;Node4</title>
<g id="a_edge3_Node000003_Node000004"><a xlink:title=" ">
<path fill="none" stroke="#63b8ff" d="M466.45,-54.98C450.11,-46.57 424.87,-33.59 405.87,-23.81"/>
<polygon fill="#63b8ff" stroke="#63b8ff" points="407.34,-20.63 396.85,-19.17 404.14,-26.86 407.34,-20.63"/>
</a>
</g>
</g>
<!-- Node5 -->
<g id="Node000005" class="node">
<title>Node5</title>
<g id="a_Node000005"><a xlink:title=" ">
<polygon fill="#e0e0e0" stroke="#999999" points="529.5,-19 436.5,-19 436.5,0 529.5,0 529.5,-19"/>
<text text-anchor="middle" x="483" y="-7" font-family="Helvetica,sans-Serif" font-size="10.00">Eigen/StdVector</text>
</a>
</g>
</g>
<!-- Node3&#45;&gt;Node5 -->
<g id="edge4_Node000003_Node000005" class="edge">
<title>Node3&#45;&gt;Node5</title>
<g id="a_edge4_Node000003_Node000005"><a xlink:title=" ">
<path fill="none" stroke="#63b8ff" d="M483,-54.75C483,-47.8 483,-37.85 483,-29.13"/>
<polygon fill="#63b8ff" stroke="#63b8ff" points="486.5,-29.09 483,-19.09 479.5,-29.09 486.5,-29.09"/>
</a>
</g>
</g>
<!-- Node6 -->
<g id="Node000006" class="node">
<title>Node6</title>
<g id="a_Node000006"><a xlink:title=" ">
<polygon fill="#e0e0e0" stroke="#999999" points="614.5,-19 547.5,-19 547.5,0 614.5,0 614.5,-19"/>
<text text-anchor="middle" x="581" y="-7" font-family="Helvetica,sans-Serif" font-size="10.00">fmt/core.h</text>
</a>
</g>
</g>
<!-- Node3&#45;&gt;Node6 -->
<g id="edge5_Node000003_Node000006" class="edge">
<title>Node3&#45;&gt;Node6</title>
<g id="a_edge5_Node000003_Node000006"><a xlink:title=" ">
<path fill="none" stroke="#63b8ff" d="M498.75,-54.98C514.23,-46.61 538.09,-33.7 556.14,-23.95"/>
<polygon fill="#63b8ff" stroke="#63b8ff" points="557.84,-27.01 564.97,-19.17 554.51,-20.85 557.84,-27.01"/>
</a>
</g>
</g>
<!-- Node7&#45;&gt;Node2 -->
<g id="edge7_Node000007_Node000002" class="edge">
<title>Node7&#45;&gt;Node2</title>
<g id="a_edge7_Node000007_Node000002"><a xlink:title=" ">
<path fill="none" stroke="#63b8ff" d="M657.66,-349.13C536.6,-347.55 294.49,-339.96 218,-305 150.51,-274.15 84.38,-225.75 127,-165 147.56,-135.7 189.44,-125.61 218.59,-122.18"/>
<polygon fill="#63b8ff" stroke="#63b8ff" points="219.07,-125.65 228.68,-121.2 218.39,-118.68 219.07,-125.65"/>
</a>
</g>
</g>
<!-- Node8 -->
<g id="Node000008" class="node">
<title>Node8</title>
<g id="a_Node000008"><a xlink:href="atom_8h.html" target="_top" xlink:title=" ">
<polygon fill="white" stroke="#666666" points="458.5,-129 363.5,-129 363.5,-110 458.5,-110 458.5,-129"/>
<text text-anchor="middle" x="411" y="-117" font-family="Helvetica,sans-Serif" font-size="10.00">occ/core/atom.h</text>
</a>
</g>
</g>
<!-- Node7&#45;&gt;Node8 -->
<g id="edge8_Node000007_Node000008" class="edge">
<title>Node7&#45;&gt;Node8</title>
<g id="a_edge8_Node000007_Node000008"><a xlink:title=" ">
<path fill="none" stroke="#63b8ff" d="M657.99,-345.55C556.27,-339.22 372.91,-325.4 310,-305 219.7,-275.72 172.58,-270.73 134,-184 130.57,-176.28 128.52,-171.43 134,-165 148.06,-148.5 276.5,-133.43 353.45,-125.78"/>
<polygon fill="#63b8ff" stroke="#63b8ff" points="353.88,-129.26 363.49,-124.8 353.19,-122.29 353.88,-129.26"/>
</a>
</g>
</g>
<!-- Node9 -->
<g id="Node000009" class="node">
<title>Node9</title>
<g id="a_Node000009"><a xlink:href="log_8h.html" target="_top" xlink:title=" ">
<polygon fill="white" stroke="#666666" points="1458,-184 1374,-184 1374,-165 1458,-165 1458,-184"/>
<text text-anchor="middle" x="1416" y="-172" font-family="Helvetica,sans-Serif" font-size="10.00">occ/core/log.h</text>
</a>
</g>
</g>
<!-- Node7&#45;&gt;Node9 -->
<g id="edge10_Node000007_Node000009" class="edge">
<title>Node7&#45;&gt;Node9</title>
<g id="a_edge10_Node000007_Node000009"><a xlink:title=" ">
<path fill="none" stroke="#63b8ff" d="M798.27,-347.73C947.07,-343.49 1284.08,-331.11 1329,-305 1372.4,-279.77 1398.55,-223.2 1409.69,-193.89"/>
<polygon fill="#63b8ff" stroke="#63b8ff" points="1413.12,-194.71 1413.23,-184.12 1406.53,-192.33 1413.12,-194.71"/>
</a>
</g>
</g>
<!-- Node13 -->
<g id="Node000013" class="node">
<title>Node13</title>
<g id="a_Node000013"><a xlink:title=" ">
<polygon fill="#e0e0e0" stroke="#999999" points="651.5,-129 604.5,-129 604.5,-110 651.5,-110 651.5,-129"/>
<text text-anchor="middle" x="628" y="-117" font-family="Helvetica,sans-Serif" font-size="10.00">vector</text>
</a>
</g>
</g>
<!-- Node7&#45;&gt;Node13 -->
<g id="edge68_Node000007_Node000013" class="edge">
<title>Node7&#45;&gt;Node13</title>
<g id="a_edge68_Node000007_Node000013"><a xlink:title=" ">
<path fill="none" stroke="#63b8ff" d="M726.8,-340.8C722.68,-313.22 707.3,-226.02 670,-165 663.45,-154.28 653.99,-143.98 645.71,-135.98"/>
<polygon fill="#63b8ff" stroke="#63b8ff" points="647.98,-133.31 638.26,-129.09 643.23,-138.45 647.98,-133.31"/>
</a>
</g>
</g>
<!-- Node14 -->
<g id="Node000014" class="node">
<title>Node14</title>
<g id="a_Node000014"><a xlink:href="multipole_8h.html" target="_top" xlink:title=" ">
<polygon fill="white" stroke="#666666" points="320,-239 204,-239 204,-220 320,-220 320,-239"/>
<text text-anchor="middle" x="262" y="-227" font-family="Helvetica,sans-Serif" font-size="10.00">occ/core/multipole.h</text>
</a>
</g>
</g>
<!-- Node7&#45;&gt;Node14 -->
<g id="edge15_Node000007_Node000014" class="edge">
<title>Node7&#45;&gt;Node14</title>
<g id="a_edge15_Node000007_Node000014"><a xlink:title=" ">
<path fill="none" stroke="#63b8ff" d="M657.89,-345.08C567.79,-338.68 416.79,-325.33 365,-305 330.64,-291.51 297.21,-263.85 278.17,-246.29"/>
<polygon fill="#63b8ff" stroke="#63b8ff" points="280.37,-243.56 270.7,-239.24 275.57,-248.65 280.37,-243.56"/>
</a>
</g>
</g>
<!-- Node16 -->
<g id="Node000016" class="node">
<title>Node16</title>
<g id="a_Node000016"><a xlink:href="parallel_8h.html" target="_top" xlink:title=" ">
<polygon fill="white" stroke="#666666" points="700,-299.5 594,-299.5 594,-280.5 700,-280.5 700,-299.5"/>
<text text-anchor="middle" x="647" y="-287.5" font-family="Helvetica,sans-Serif" font-size="10.00">occ/core/parallel.h</text>
</a>
</g>
</g>
<!-- Node7&#45;&gt;Node16 -->
<g id="edge19_Node000007_Node000016" class="edge">
<title>Node7&#45;&gt;Node16</title>
<g id="a_edge19_Node000007_Node000016"><a xlink:title=" ">
<path fill="none" stroke="#63b8ff" d="M716.05,-340.87C703.25,-331.62 682.7,-316.78 667.35,-305.69"/>
<polygon fill="#63b8ff" stroke="#63b8ff" points="669.16,-302.68 659,-299.67 665.06,-308.36 669.16,-302.68"/>
</a>
</g>
</g>
<!-- Node17 -->
<g id="Node000017" class="node">
<title>Node17</title>
<g id="a_Node000017"><a xlink:href="timings_8h.html" target="_top" xlink:title=" ">
<polygon fill="white" stroke="#666666" points="1154,-239 1048,-239 1048,-220 1154,-220 1154,-239"/>
<text text-anchor="middle" x="1101" y="-227" font-family="Helvetica,sans-Serif" font-size="10.00">occ/core/timings.h</text>
</a>
</g>
</g>
<!-- Node7&#45;&gt;Node17 -->
<g id="edge25_Node000007_Node000017" class="edge">
<title>Node7&#45;&gt;Node17</title>
<g id="a_edge25_Node000007_Node000017"><a xlink:title=" ">
<path fill="none" stroke="#63b8ff" d="M798.04,-347.04C910.8,-342.36 1122.28,-330.28 1145,-305 1161.37,-286.79 1139.05,-261.56 1120.67,-245.63"/>
<polygon fill="#63b8ff" stroke="#63b8ff" points="1122.6,-242.69 1112.66,-239.03 1118.15,-248.09 1122.6,-242.69"/>
</a>
</g>
</g>
<!-- Node20 -->
<g id="Node000020" class="node">
<title>Node20</title>
<g id="a_Node000020"><a xlink:href="cint__interface_8h.html" target="_top" xlink:title=" ">
<polygon fill="white" stroke="#666666" points="504.5,-299.5 373.5,-299.5 373.5,-280.5 504.5,-280.5 504.5,-299.5"/>
<text text-anchor="middle" x="439" y="-287.5" font-family="Helvetica,sans-Serif" font-size="10.00">occ/qm/cint_interface.h</text>
</a>
</g>
</g>
<!-- Node7&#45;&gt;Node20 -->
<g id="edge26_Node000007_Node000020" class="edge">
<title>Node7&#45;&gt;Node20</title>
<g id="a_edge26_Node000007_Node000020"><a xlink:title=" ">
<path fill="none" stroke="#63b8ff" d="M685.98,-340.99C634.4,-330.55 546.92,-312.85 491.11,-301.55"/>
<polygon fill="#63b8ff" stroke="#63b8ff" points="491.57,-298.07 481.07,-299.52 490.18,-304.93 491.57,-298.07"/>
</a>
</g>
</g>
<!-- Node21 -->
<g id="Node000021" class="node">
<title>Node21</title>
<g id="a_Node000021"><a xlink:href="shell_8h.html" target="_top" xlink:title=" ">
<polygon fill="white" stroke="#666666" points="595.5,-239 508.5,-239 508.5,-220 595.5,-220 595.5,-239"/>
<text text-anchor="middle" x="552" y="-227" font-family="Helvetica,sans-Serif" font-size="10.00">occ/qm/shell.h</text>
</a>
</g>
</g>
<!-- Node7&#45;&gt;Node21 -->
<g id="edge60_Node000007_Node000021" class="edge">
<title>Node7&#45;&gt;Node21</title>
<g id="a_edge60_Node000007_Node000021"><a xlink:title=" ">
<path fill="none" stroke="#63b8ff" d="M661.63,-340.98C635.23,-334.72 606.16,-323.85 585,-305 568.54,-290.33 559.89,-265.91 555.64,-249.05"/>
<polygon fill="#63b8ff" stroke="#63b8ff" points="559.05,-248.23 553.45,-239.24 552.21,-249.76 559.05,-248.23"/>
</a>
</g>
</g>
<!-- Node30 -->
<g id="Node000030" class="node">
<title>Node30</title>
<g id="a_Node000030"><a xlink:href="expectation_8h.html" target="_top" xlink:title=" ">
<polygon fill="white" stroke="#666666" points="1320,-299.5 1198,-299.5 1198,-280.5 1320,-280.5 1320,-299.5"/>
<text text-anchor="middle" x="1259" y="-287.5" font-family="Helvetica,sans-Serif" font-size="10.00">occ/qm/expectation.h</text>
</a>
</g>
</g>
<!-- Node7&#45;&gt;Node30 -->
<g id="edge50_Node000007_Node000030" class="edge">
<title>Node7&#45;&gt;Node30</title>
<g id="a_edge50_Node000007_Node000030"><a xlink:title=" ">
<path fill="none" stroke="#63b8ff" d="M798.34,-344.13C887.05,-337 1044.2,-323.15 1178,-305 1186.14,-303.9 1194.72,-302.58 1203.13,-301.2"/>
<polygon fill="#63b8ff" stroke="#63b8ff" points="1203.97,-304.61 1213.25,-299.5 1202.81,-297.71 1203.97,-304.61"/>
</a>
</g>
</g>
<!-- Node7&#45;&gt;Node33 -->
<g id="edge56_Node000007_Node000033" class="edge">
<title>Node7&#45;&gt;Node33</title>
<g id="a_edge56_Node000007_Node000033"><a xlink:title=" ">
<path fill="none" stroke="#63b8ff" d="M798.09,-348.84C916.35,-346.78 1162.71,-338.46 1368,-305 1372.88,-304.2 1377.96,-303.17 1382.97,-302.02"/>
<polygon fill="#63b8ff" stroke="#63b8ff" points="1384.18,-305.33 1393.06,-299.55 1382.52,-298.53 1384.18,-305.33"/>
</a>
</g>
</g>
<!-- Node35 -->
<g id="Node000035" class="node">
<title>Node35</title>
<g id="a_Node000035"><a xlink:href="shellblock__norm_8h.html" target="_top" xlink:title=" ">
<polygon fill="white" stroke="#666666" points="900,-299.5 756,-299.5 756,-280.5 900,-280.5 900,-299.5"/>
<text text-anchor="middle" x="828" y="-287.5" font-family="Helvetica,sans-Serif" font-size="10.00">occ/qm/shellblock_norm.h</text>
</a>
</g>
</g>
<!-- Node7&#45;&gt;Node35 -->
<g id="edge61_Node000007_Node000035" class="edge">
<title>Node7&#45;&gt;Node35</title>
<g id="a_edge61_Node000007_Node000035"><a xlink:title=" ">
<path fill="none" stroke="#63b8ff" d="M742.76,-340.87C759,-331.36 785.35,-315.95 804.46,-304.77"/>
<polygon fill="#63b8ff" stroke="#63b8ff" points="806.32,-307.74 813.18,-299.67 802.79,-301.7 806.32,-307.74"/>
</a>
</g>
</g>
<!-- Node36 -->
<g id="Node000036" class="node">
<title>Node36</title>
<g id="a_Node000036"><a xlink:title=" ">
<polygon fill="#e0e0e0" stroke="#999999" points="974,-299.5 918,-299.5 918,-280.5 974,-280.5 974,-299.5"/>
<text text-anchor="middle" x="946" y="-287.5" font-family="Helvetica,sans-Serif" font-size="10.00">optional</text>
</a>
</g>
</g>
<!-- Node7&#45;&gt;Node36 -->
<g id="edge66_Node000007_Node000036" class="edge">
<title>Node7&#45;&gt;Node36</title>
<g id="a_edge66_Node000007_Node000036"><a xlink:title=" ">
<path fill="none" stroke="#63b8ff" d="M768.64,-340.98C805.58,-332.89 861.41,-319.79 909,-305 910.92,-304.4 912.88,-303.76 914.85,-303.09"/>
<polygon fill="#63b8ff" stroke="#63b8ff" points="916.4,-306.25 924.63,-299.59 914.04,-299.66 916.4,-306.25"/>
</a>
</g>
</g>
<!-- Node37 -->
<g id="Node000037" class="node">
<title>Node37</title>
<g id="a_Node000037"><a xlink:title=" ">
<polygon fill="#e0e0e0" stroke="#999999" points="1135.5,-305 992.5,-305 992.5,-275 1135.5,-275 1135.5,-305"/>
<text text-anchor="start" x="1000.5" y="-293" font-family="Helvetica,sans-Serif" font-size="10.00">unsupported/Eigen/CXX11</text>
<text text-anchor="middle" x="1064" y="-282" font-family="Helvetica,sans-Serif" font-size="10.00">/Tensor</text>
</a>
</g>
</g>
<!-- Node7&#45;&gt;Node37 -->
<g id="edge67_Node000007_Node000037" class="edge">
<title>Node7&#45;&gt;Node37</title>
<g id="a_edge67_Node000007_Node000037"><a xlink:title=" ">
<path fill="none" stroke="#63b8ff" d="M776.86,-340.99C830.67,-331.62 918.1,-316.4 982.36,-305.21"/>
<polygon fill="#63b8ff" stroke="#63b8ff" points="983.22,-308.62 992.47,-303.45 982.02,-301.72 983.22,-308.62"/>
</a>
</g>
</g>
<!-- Node8&#45;&gt;Node3 -->
<g id="edge9_Node000008_Node000003" class="edge">
<title>Node8&#45;&gt;Node3</title>
<g id="a_edge9_Node000008_Node000003"><a xlink:title=" ">
<path fill="none" stroke="#63b8ff" d="M422.57,-109.98C433.42,-102 449.88,-89.88 462.88,-80.31"/>
<polygon fill="#63b8ff" stroke="#63b8ff" points="465.24,-82.92 471.22,-74.17 461.09,-77.28 465.24,-82.92"/>
</a>
</g>
</g>
<!-- Node10 -->
<g id="Node000010" class="node">
<title>Node10</title>
<g id="a_Node000010"><a xlink:title=" ">
<polygon fill="#e0e0e0" stroke="#999999" points="1409.5,-129 1344.5,-129 1344.5,-110 1409.5,-110 1409.5,-129"/>
<text text-anchor="middle" x="1377" y="-117" font-family="Helvetica,sans-Serif" font-size="10.00">functional</text>
</a>
</g>
</g>
<!-- Node9&#45;&gt;Node10 -->
<g id="edge11_Node000009_Node000010" class="edge">
<title>Node9&#45;&gt;Node10</title>
<g id="a_edge11_Node000009_Node000010"><a xlink:title=" ">
<path fill="none" stroke="#63b8ff" d="M1409.56,-164.75C1404.11,-157.34 1396.14,-146.5 1389.44,-137.41"/>
<polygon fill="#63b8ff" stroke="#63b8ff" points="1392.07,-135.07 1383.32,-129.09 1386.43,-139.22 1392.07,-135.07"/>
</a>
</g>
</g>
<!-- Node11 -->
<g id="Node000011" class="node">
<title>Node11</title>
<g id="a_Node000011"><a xlink:title=" ">
<polygon fill="#e0e0e0" stroke="#999999" points="1520.5,-129 1427.5,-129 1427.5,-110 1520.5,-110 1520.5,-129"/>
<text text-anchor="middle" x="1474" y="-117" font-family="Helvetica,sans-Serif" font-size="10.00">spdlog/spdlog.h</text>
</a>
</g>
</g>
<!-- Node9&#45;&gt;Node11 -->
<g id="edge12_Node000009_Node000011" class="edge">
<title>Node9&#45;&gt;Node11</title>
<g id="a_edge12_Node000009_Node000011"><a xlink:title=" ">
<path fill="none" stroke="#63b8ff" d="M1425.32,-164.98C1433.81,-157.23 1446.56,-145.58 1456.88,-136.14"/>
<polygon fill="#63b8ff" stroke="#63b8ff" points="1459.49,-138.5 1464.51,-129.17 1454.77,-133.33 1459.49,-138.5"/>
</a>
</g>
</g>
<!-- Node12 -->
<g id="Node000012" class="node">
<title>Node12</title>
<g id="a_Node000012"><a xlink:title=" ">
<polygon fill="#e0e0e0" stroke="#999999" points="1250,-129 1206,-129 1206,-110 1250,-110 1250,-129"/>
<text text-anchor="middle" x="1228" y="-117" font-family="Helvetica,sans-Serif" font-size="10.00">string</text>
</a>
</g>
</g>
<!-- Node9&#45;&gt;Node12 -->
<g id="edge13_Node000009_Node000012" class="edge">
<title>Node9&#45;&gt;Node12</title>
<g id="a_edge13_Node000009_Node000012"><a xlink:title=" ">
<path fill="none" stroke="#63b8ff" d="M1385.79,-164.98C1351.31,-155.26 1295.15,-139.43 1259.95,-129.51"/>
<polygon fill="#63b8ff" stroke="#63b8ff" points="1260.76,-126.1 1250.18,-126.75 1258.86,-132.84 1260.76,-126.1"/>
</a>
</g>
</g>
<!-- Node9&#45;&gt;Node13 -->
<g id="edge14_Node000009_Node000013" class="edge">
<title>Node9&#45;&gt;Node13</title>
<g id="a_edge14_Node000009_Node000013"><a xlink:title=" ">
<path fill="none" stroke="#63b8ff" d="M1373.75,-166.09C1370.79,-165.68 1367.86,-165.31 1365,-165 1070.79,-132.62 994.9,-154.36 700,-129 687.49,-127.92 673.79,-126.4 661.74,-124.93"/>
<polygon fill="#63b8ff" stroke="#63b8ff" points="661.99,-121.44 651.63,-123.67 661.12,-128.38 661.99,-121.44"/>
</a>
</g>
</g>
<!-- Node14&#45;&gt;Node2 -->
<g id="edge16_Node000014_Node000002" class="edge">
<title>Node14&#45;&gt;Node2</title>
<g id="a_edge16_Node000014_Node000002"><a xlink:title=" ">
<path fill="none" stroke="#63b8ff" d="M261.02,-219.66C259.07,-202.17 254.7,-162.8 252.09,-139.27"/>
<polygon fill="#63b8ff" stroke="#63b8ff" points="255.55,-138.71 250.96,-129.16 248.59,-139.48 255.55,-138.71"/>
</a>
</g>
</g>
<!-- Node14&#45;&gt;Node3 -->
<g id="edge18_Node000014_Node000003" class="edge">
<title>Node14&#45;&gt;Node3</title>
<g id="a_edge18_Node000014_Node000003"><a xlink:title=" ">
<path fill="none" stroke="#63b8ff" d="M266.41,-219.97C277.98,-198.4 311.37,-141.15 355,-110 377.21,-94.14 405.58,-83.52 429.97,-76.64"/>
<polygon fill="#63b8ff" stroke="#63b8ff" points="431.04,-79.98 439.79,-74.01 429.22,-73.22 431.04,-79.98"/>
</a>
</g>
</g>
<!-- Node15 -->
<g id="Node000015" class="node">
<title>Node15</title>
<g id="a_Node000015"><a xlink:title=" ">
<polygon fill="#e0e0e0" stroke="#999999" points="221.5,-184 142.5,-184 142.5,-165 221.5,-165 221.5,-184"/>
<text text-anchor="middle" x="182" y="-172" font-family="Helvetica,sans-Serif" font-size="10.00">fmt/format.h</text>
</a>
</g>
</g>
<!-- Node14&#45;&gt;Node15 -->
<g id="edge17_Node000014_Node000015" class="edge">
<title>Node14&#45;&gt;Node15</title>
<g id="a_edge17_Node000014_Node000015"><a xlink:title=" ">
<path fill="none" stroke="#63b8ff" d="M249.15,-219.98C236.86,-211.84 218.09,-199.41 203.52,-189.76"/>
<polygon fill="#63b8ff" stroke="#63b8ff" points="205.36,-186.78 195.09,-184.17 201.49,-192.61 205.36,-186.78"/>
</a>
</g>
</g>
<!-- Node16&#45;&gt;Node13 -->
<g id="edge24_Node000016_Node000013" class="edge">
<title>Node16&#45;&gt;Node13</title>
<g id="a_edge24_Node000016_Node000013"><a xlink:title=" ">
<path fill="none" stroke="#63b8ff" d="M653.31,-280.28C661.88,-267.39 675.62,-242.36 671,-220 664.74,-189.71 648.79,-157.3 638.18,-137.98"/>
<polygon fill="#63b8ff" stroke="#63b8ff" points="641.16,-136.14 633.19,-129.15 635.06,-139.58 641.16,-136.14"/>
</a>
</g>
</g>
<!-- Node16&#45;&gt;Node17 -->
<g id="edge20_Node000016_Node000017" class="edge">
<title>Node16&#45;&gt;Node17</title>
<g id="a_edge20_Node000016_Node000017"><a xlink:title=" ">
<path fill="none" stroke="#63b8ff" d="M700.18,-281.41C715.3,-279.29 731.79,-277.02 747,-275 848.69,-261.49 966.95,-246.84 1037.79,-238.17"/>
<polygon fill="#63b8ff" stroke="#63b8ff" points="1038.39,-241.63 1047.89,-236.94 1037.54,-234.68 1038.39,-241.63"/>
</a>
</g>
</g>
<!-- Node19 -->
<g id="Node000019" class="node">
<title>Node19</title>
<g id="a_Node000019"><a xlink:title=" ">
<polygon fill="#e0e0e0" stroke="#999999" points="662,-239 614,-239 614,-220 662,-220 662,-239"/>
<text text-anchor="middle" x="638" y="-227" font-family="Helvetica,sans-Serif" font-size="10.00">thread</text>
</a>
</g>
</g>
<!-- Node16&#45;&gt;Node19 -->
<g id="edge23_Node000016_Node000019" class="edge">
<title>Node16&#45;&gt;Node19</title>
<g id="a_edge23_Node000016_Node000019"><a xlink:title=" ">
<path fill="none" stroke="#63b8ff" d="M645.67,-280.37C644.41,-272.16 642.47,-259.54 640.85,-249.05"/>
<polygon fill="#63b8ff" stroke="#63b8ff" points="644.31,-248.52 639.33,-239.17 637.39,-249.58 644.31,-248.52"/>
</a>
</g>
</g>
<!-- Node17&#45;&gt;Node12 -->
<g id="edge22_Node000017_Node000012" class="edge">
<title>Node17&#45;&gt;Node12</title>
<g id="a_edge22_Node000017_Node000012"><a xlink:title=" ">
<path fill="none" stroke="#63b8ff" d="M1109.37,-219.94C1121.76,-207.41 1145.91,-183.55 1168,-165 1180.51,-154.5 1195.22,-143.57 1206.95,-135.16"/>
<polygon fill="#63b8ff" stroke="#63b8ff" points="1209.12,-137.92 1215.25,-129.28 1205.07,-132.21 1209.12,-137.92"/>
</a>
</g>
</g>
<!-- Node18 -->
<g id="Node000018" class="node">
<title>Node18</title>
<g id="a_Node000018"><a xlink:title=" ">
<polygon fill="#e0e0e0" stroke="#999999" points="1188,-129 1138,-129 1138,-110 1188,-110 1188,-129"/>
<text text-anchor="middle" x="1163" y="-117" font-family="Helvetica,sans-Serif" font-size="10.00">chrono</text>
</a>
</g>
</g>
<!-- Node17&#45;&gt;Node18 -->
<g id="edge21_Node000017_Node000018" class="edge">
<title>Node17&#45;&gt;Node18</title>
<g id="a_edge21_Node000017_Node000018"><a xlink:title=" ">
<path fill="none" stroke="#63b8ff" d="M1104.02,-219.97C1108.6,-207.48 1117.96,-183.67 1129,-165 1134.74,-155.29 1142.26,-145.24 1148.77,-137.15"/>
<polygon fill="#63b8ff" stroke="#63b8ff" points="1151.63,-139.19 1155.3,-129.26 1146.23,-134.73 1151.63,-139.19"/>
</a>
</g>
</g>
<!-- Node20&#45;&gt;Node14 -->
<g id="edge27_Node000020_Node000014" class="edge">
<title>Node20&#45;&gt;Node14</title>
<g id="a_edge27_Node000020_Node000014"><a xlink:title=" ">
<path fill="none" stroke="#63b8ff" d="M413.26,-280.49C382.72,-270.4 331.63,-253.51 297.38,-242.19"/>
<polygon fill="#63b8ff" stroke="#63b8ff" points="298.36,-238.83 287.77,-239.02 296.16,-245.48 298.36,-238.83"/>
</a>
</g>
</g>
<!-- Node20&#45;&gt;Node21 -->
<g id="edge28_Node000020_Node000021" class="edge">
<title>Node20&#45;&gt;Node21</title>
<g id="a_edge28_Node000020_Node000021"><a xlink:title=" ">
<path fill="none" stroke="#63b8ff" d="M455.67,-280.37C474.28,-270.73 504.62,-255.03 526.28,-243.81"/>
<polygon fill="#63b8ff" stroke="#63b8ff" points="527.99,-246.87 535.26,-239.17 524.77,-240.66 527.99,-246.87"/>
</a>
</g>
</g>
<!-- Node29 -->
<g id="Node000029" class="node">
<title>Node29</title>
<g id="a_Node000029"><a xlink:title=" ">
<polygon fill="#e0e0e0" stroke="#999999" points="490,-239 338,-239 338,-220 490,-220 490,-239"/>
<text text-anchor="middle" x="414" y="-227" font-family="Helvetica,sans-Serif" font-size="10.00">occ/3rdparty/cint_wrapper.h</text>
</a>
</g>
</g>
<!-- Node20&#45;&gt;Node29 -->
<g id="edge49_Node000020_Node000029" class="edge">
<title>Node20&#45;&gt;Node29</title>
<g id="a_edge49_Node000020_Node000029"><a xlink:title=" ">
<path fill="none" stroke="#63b8ff" d="M435.31,-280.37C431.73,-271.99 426.18,-259.01 421.65,-248.39"/>
<polygon fill="#63b8ff" stroke="#63b8ff" points="424.85,-246.99 417.7,-239.17 418.42,-249.74 424.85,-246.99"/>
</a>
</g>
</g>
<!-- Node21&#45;&gt;Node2 -->
<g id="edge29_Node000021_Node000002" class="edge">
<title>Node21&#45;&gt;Node2</title>
<g id="a_edge29_Node000021_Node000002"><a xlink:title=" ">
<path fill="none" stroke="#63b8ff" d="M508.26,-221.09C456.58,-211.99 373.94,-196.25 345,-184 315.96,-171.7 286.35,-150.19 268.08,-135.65"/>
<polygon fill="#63b8ff" stroke="#63b8ff" points="270.04,-132.73 260.07,-129.14 265.62,-138.17 270.04,-132.73"/>
</a>
</g>
</g>
<!-- Node21&#45;&gt;Node3 -->
<g id="edge32_Node000021_Node000003" class="edge">
<title>Node21&#45;&gt;Node3</title>
<g id="a_edge32_Node000021_Node000003"><a xlink:title=" ">
<path fill="none" stroke="#63b8ff" d="M548.29,-219.74C537.43,-194.09 505.56,-118.78 490.74,-83.78"/>
<polygon fill="#63b8ff" stroke="#63b8ff" points="493.85,-82.15 486.73,-74.31 487.4,-84.88 493.85,-82.15"/>
</a>
</g>
</g>
<!-- Node21&#45;&gt;Node6 -->
<g id="edge30_Node000021_Node000006" class="edge">
<title>Node21&#45;&gt;Node6</title>
<g id="a_edge30_Node000021_Node000006"><a xlink:title=" ">
<path fill="none" stroke="#63b8ff" d="M553.14,-219.95C557.39,-187.95 572.46,-74.68 578.49,-29.4"/>
<polygon fill="#63b8ff" stroke="#63b8ff" points="581.99,-29.6 579.84,-19.22 575.05,-28.67 581.99,-29.6"/>
</a>
</g>
</g>
<!-- Node21&#45;&gt;Node8 -->
<g id="edge31_Node000021_Node000008" class="edge">
<title>Node21&#45;&gt;Node8</title>
<g id="a_edge31_Node000021_Node000008"><a xlink:title=" ">
<path fill="none" stroke="#63b8ff" d="M545.79,-219.81C536.09,-206.69 516.25,-181.6 495,-165 478.58,-152.17 457.93,-141.18 441.22,-133.33"/>
<polygon fill="#63b8ff" stroke="#63b8ff" points="442.44,-130.04 431.89,-129.07 439.54,-136.41 442.44,-130.04"/>
</a>
</g>
</g>
<!-- Node21&#45;&gt;Node13 -->
<g id="edge48_Node000021_Node000013" class="edge">
<title>Node21&#45;&gt;Node13</title>
<g id="a_edge48_Node000021_Node000013"><a xlink:title=" ">
<path fill="none" stroke="#63b8ff" d="M565.63,-219.75C577.24,-211.7 593.62,-198.78 604,-184 613.52,-170.44 619.83,-152.61 623.57,-139.3"/>
<polygon fill="#63b8ff" stroke="#63b8ff" points="627.02,-139.93 626.13,-129.38 620.25,-138.19 627.02,-139.93"/>
</a>
</g>
</g>
<!-- Node22 -->
<g id="Node000022" class="node">
<title>Node22</title>
<g id="a_Node000022"><a xlink:href="point__charge_8h.html" target="_top" xlink:title=" ">
<polygon fill="white" stroke="#666666" points="486,-184 354,-184 354,-165 486,-165 486,-184"/>
<text text-anchor="middle" x="420" y="-172" font-family="Helvetica,sans-Serif" font-size="10.00">occ/core/point_charge.h</text>
</a>
</g>
</g>
<!-- Node21&#45;&gt;Node22 -->
<g id="edge33_Node000021_Node000022" class="edge">
<title>Node21&#45;&gt;Node22</title>
<g id="a_edge33_Node000021_Node000022"><a xlink:title=" ">
<path fill="none" stroke="#63b8ff" d="M530.79,-219.98C509.27,-211.34 475.72,-197.87 451.17,-188.02"/>
<polygon fill="#63b8ff" stroke="#63b8ff" points="452.18,-184.65 441.59,-184.17 449.57,-191.14 452.18,-184.65"/>
</a>
</g>
</g>
<!-- Node23 -->
<g id="Node000023" class="node">
<title>Node23</title>
<g id="a_Node000023"><a xlink:href="util_8h.html" target="_top" xlink:title=" ">
<polygon fill="white" stroke="#666666" points="980.5,-184 895.5,-184 895.5,-165 980.5,-165 980.5,-184"/>
<text text-anchor="middle" x="938" y="-172" font-family="Helvetica,sans-Serif" font-size="10.00">occ/core/util.h</text>
</a>
</g>
</g>
<!-- Node21&#45;&gt;Node23 -->
<g id="edge37_Node000021_Node000023" class="edge">
<title>Node21&#45;&gt;Node23</title>
<g id="a_edge37_Node000021_Node000023"><a xlink:title=" ">
<path fill="none" stroke="#63b8ff" d="M595.66,-221.41C598.82,-220.92 601.96,-220.45 605,-220 703.87,-205.47 819.56,-190.46 885.27,-182.11"/>
<polygon fill="#63b8ff" stroke="#63b8ff" points="885.89,-185.56 895.37,-180.83 885.01,-178.62 885.89,-185.56"/>
</a>
</g>
</g>
<!-- Node22&#45;&gt;Node2 -->
<g id="edge34_Node000022_Node000002" class="edge">
<title>Node22&#45;&gt;Node2</title>
<g id="a_edge34_Node000022_Node000002"><a xlink:title=" ">
<path fill="none" stroke="#63b8ff" d="M392.69,-164.98C362.11,-155.45 312.69,-140.04 280.77,-130.09"/>
<polygon fill="#63b8ff" stroke="#63b8ff" points="281.66,-126.7 271.07,-127.07 279.58,-133.39 281.66,-126.7"/>
</a>
</g>
</g>
<!-- Node22&#45;&gt;Node3 -->
<g id="edge36_Node000022_Node000003" class="edge">
<title>Node22&#45;&gt;Node3</title>
<g id="a_edge36_Node000022_Node000003"><a xlink:title=" ">
<path fill="none" stroke="#63b8ff" d="M433.02,-164.82C444.01,-156.81 459.3,-143.92 468,-129 475.94,-115.37 479.68,-97.79 481.44,-84.58"/>
<polygon fill="#63b8ff" stroke="#63b8ff" points="484.96,-84.62 482.53,-74.31 477.99,-83.88 484.96,-84.62"/>
</a>
</g>
</g>
<!-- Node22&#45;&gt;Node8 -->
<g id="edge35_Node000022_Node000008" class="edge">
<title>Node22&#45;&gt;Node8</title>
<g id="a_edge35_Node000022_Node000008"><a xlink:title=" ">
<path fill="none" stroke="#63b8ff" d="M418.51,-164.75C417.33,-157.8 415.64,-147.85 414.16,-139.13"/>
<polygon fill="#63b8ff" stroke="#63b8ff" points="417.58,-138.36 412.46,-129.09 410.68,-139.53 417.58,-138.36"/>
</a>
</g>
</g>
<!-- Node23&#45;&gt;Node3 -->
<g id="edge45_Node000023_Node000003" class="edge">
<title>Node23&#45;&gt;Node3</title>
<g id="a_edge45_Node000023_Node000003"><a xlink:title=" ">
<path fill="none" stroke="#63b8ff" d="M895.44,-169.04C847.14,-163.18 766.46,-150.96 700,-129 681.69,-122.95 679.12,-116.6 661,-110 620.82,-95.37 573.83,-83.85 538.22,-76.19"/>
<polygon fill="#63b8ff" stroke="#63b8ff" points="538.54,-72.68 528.03,-74.04 537.09,-79.53 538.54,-72.68"/>
</a>
</g>
</g>
<!-- Node23&#45;&gt;Node6 -->
<g id="edge41_Node000023_Node000006" class="edge">
<title>Node23&#45;&gt;Node6</title>
<g id="a_edge41_Node000023_Node000006"><a xlink:title=" ">
<path fill="none" stroke="#63b8ff" d="M980.55,-170.46C1036.38,-164.86 1123.64,-149.62 1091,-110 1031.89,-38.25 737.4,-17.54 624.84,-12.19"/>
<polygon fill="#63b8ff" stroke="#63b8ff" points="624.68,-8.68 614.53,-11.72 624.36,-15.67 624.68,-8.68"/>
</a>
</g>
</g>
<!-- Node23&#45;&gt;Node12 -->
<g id="edge46_Node000023_Node000012" class="edge">
<title>Node23&#45;&gt;Node12</title>
<g id="a_edge46_Node000023_Node000012"><a xlink:title=" ">
<path fill="none" stroke="#63b8ff" d="M980.87,-167.44C1030.43,-160.15 1114.61,-146.88 1195.83,-129.08"/>
<polygon fill="#63b8ff" stroke="#63b8ff" points="1196.71,-132.47 1205.71,-126.89 1195.19,-125.64 1196.71,-132.47"/>
</a>
</g>
</g>
<!-- Node23&#45;&gt;Node13 -->
<g id="edge47_Node000023_Node000013" class="edge">
<title>Node23&#45;&gt;Node13</title>
<g id="a_edge47_Node000023_Node000013"><a xlink:title=" ">
<path fill="none" stroke="#63b8ff" d="M895.46,-167.32C841.81,-159.35 746.8,-144.63 666,-129 664.55,-128.72 663.07,-128.42 661.57,-128.12"/>
<polygon fill="#63b8ff" stroke="#63b8ff" points="662.18,-124.67 651.67,-126.02 660.73,-131.52 662.18,-124.67"/>
</a>
</g>
</g>
<!-- Node23&#45;&gt;Node18 -->
<g id="edge40_Node000023_Node000018" class="edge">
<title>Node23&#45;&gt;Node18</title>
<g id="a_edge40_Node000023_Node000018"><a xlink:title=" ">
<path fill="none" stroke="#63b8ff" d="M974.15,-164.98C1016.5,-155.01 1086.17,-138.6 1128.01,-128.74"/>
<polygon fill="#63b8ff" stroke="#63b8ff" points="1128.83,-132.14 1137.76,-126.45 1127.23,-125.33 1128.83,-132.14"/>
</a>
</g>
</g>
<!-- Node24 -->
<g id="Node000024" class="node">
<title>Node24</title>
<g id="a_Node000024"><a xlink:title=" ">
<polygon fill="#e0e0e0" stroke="#999999" points="1082,-129 1018,-129 1018,-110 1082,-110 1082,-129"/>
<text text-anchor="middle" x="1050" y="-117" font-family="Helvetica,sans-Serif" font-size="10.00">algorithm</text>
</a>
</g>
</g>
<!-- Node23&#45;&gt;Node24 -->
<g id="edge38_Node000023_Node000024" class="edge">
<title>Node23&#45;&gt;Node24</title>
<g id="a_edge38_Node000023_Node000024"><a xlink:title=" ">
<path fill="none" stroke="#63b8ff" d="M955.99,-164.98C973.93,-156.5 1001.72,-143.35 1022.43,-133.54"/>
<polygon fill="#63b8ff" stroke="#63b8ff" points="1024.14,-136.61 1031.68,-129.17 1021.14,-130.28 1024.14,-136.61"/>
</a>
</g>
</g>
<!-- Node25 -->
<g id="Node000025" class="node">
<title>Node25</title>
<g id="a_Node000025"><a xlink:title=" ">
<polygon fill="#e0e0e0" stroke="#999999" points="757.5,-129 708.5,-129 708.5,-110 757.5,-110 757.5,-129"/>
<text text-anchor="middle" x="733" y="-117" font-family="Helvetica,sans-Serif" font-size="10.00">cctype</text>
</a>
</g>
</g>
<!-- Node23&#45;&gt;Node25 -->
<g id="edge39_Node000023_Node000025" class="edge">
<title>Node23&#45;&gt;Node25</title>
<g id="a_edge39_Node000023_Node000025"><a xlink:title=" ">
<path fill="none" stroke="#63b8ff" d="M905.06,-164.98C867.35,-155.23 805.84,-139.33 767.49,-129.42"/>
<polygon fill="#63b8ff" stroke="#63b8ff" points="768.35,-126.03 757.8,-126.91 766.6,-132.8 768.35,-126.03"/>
</a>
</g>
</g>
<!-- Node26 -->
<g id="Node000026" class="node">
<title>Node26</title>
<g id="a_Node000026"><a xlink:title=" ">
<polygon fill="#e0e0e0" stroke="#999999" points="862,-129 776,-129 776,-110 862,-110 862,-129"/>
<text text-anchor="middle" x="819" y="-117" font-family="Helvetica,sans-Serif" font-size="10.00">fmt/ostream.h</text>
</a>
</g>
</g>
<!-- Node23&#45;&gt;Node26 -->
<g id="edge42_Node000023_Node000026" class="edge">
<title>Node23&#45;&gt;Node26</title>
<g id="a_edge42_Node000023_Node000026"><a xlink:title=" ">
<path fill="none" stroke="#63b8ff" d="M918.88,-164.98C899.65,-156.42 869.77,-143.11 847.69,-133.28"/>
<polygon fill="#63b8ff" stroke="#63b8ff" points="849.03,-130.04 838.47,-129.17 846.18,-136.44 849.03,-130.04"/>
</a>
</g>
</g>
<!-- Node27 -->
<g id="Node000027" class="node">
<title>Node27</title>
<g id="a_Node000027"><a xlink:title=" ">
<polygon fill="#e0e0e0" stroke="#999999" points="926,-129 880,-129 880,-110 926,-110 926,-129"/>
<text text-anchor="middle" x="903" y="-117" font-family="Helvetica,sans-Serif" font-size="10.00">locale</text>
</a>
</g>
</g>
<!-- Node23&#45;&gt;Node27 -->
<g id="edge43_Node000023_Node000027" class="edge">
<title>Node23&#45;&gt;Node27</title>
<g id="a_edge43_Node000023_Node000027"><a xlink:title=" ">
<path fill="none" stroke="#63b8ff" d="M932.22,-164.75C927.38,-157.42 920.32,-146.73 914.36,-137.7"/>
<polygon fill="#63b8ff" stroke="#63b8ff" points="917.1,-135.5 908.67,-129.09 911.26,-139.36 917.1,-135.5"/>
</a>
</g>
</g>
<!-- Node28 -->
<g id="Node000028" class="node">
<title>Node28</title>
<g id="a_Node000028"><a xlink:title=" ">
<polygon fill="#e0e0e0" stroke="#999999" points="1000,-129 944,-129 944,-110 1000,-110 1000,-129"/>
<text text-anchor="middle" x="972" y="-117" font-family="Helvetica,sans-Serif" font-size="10.00">numeric</text>
</a>
</g>
</g>
<!-- Node23&#45;&gt;Node28 -->
<g id="edge44_Node000023_Node000028" class="edge">
<title>Node23&#45;&gt;Node28</title>
<g id="a_edge44_Node000023_Node000028"><a xlink:title=" ">
<path fill="none" stroke="#63b8ff" d="M943.61,-164.75C948.32,-157.42 955.17,-146.73 960.97,-137.7"/>
<polygon fill="#63b8ff" stroke="#63b8ff" points="964.04,-139.4 966.49,-129.09 958.14,-135.62 964.04,-139.4"/>
</a>
</g>
</g>
<!-- Node31 -->
<g id="Node000031" class="node">
<title>Node31</title>
<g id="a_Node000031"><a xlink:href="spinorbital_8h.html" target="_top" xlink:title=" ">
<polygon fill="white" stroke="#666666" points="1326,-239 1210,-239 1210,-220 1326,-220 1326,-239"/>
<text text-anchor="middle" x="1268" y="-227" font-family="Helvetica,sans-Serif" font-size="10.00">occ/qm/spinorbital.h</text>
</a>
</g>
</g>
<!-- Node30&#45;&gt;Node31 -->
<g id="edge51_Node000030_Node000031" class="edge">
<title>Node30&#45;&gt;Node31</title>
<g id="a_edge51_Node000030_Node000031"><a xlink:title=" ">
<path fill="none" stroke="#63b8ff" d="M1260.33,-280.37C1261.59,-272.16 1263.53,-259.54 1265.15,-249.05"/>
<polygon fill="#63b8ff" stroke="#63b8ff" points="1268.61,-249.58 1266.67,-239.17 1261.69,-248.52 1268.61,-249.58"/>
</a>
</g>
</g>
<!-- Node31&#45;&gt;Node3 -->
<g id="edge52_Node000031_Node000003" class="edge">
<title>Node31&#45;&gt;Node3</title>
<g id="a_edge52_Node000031_Node000003"><a xlink:title=" ">
<path fill="none" stroke="#63b8ff" d="M1258.75,-219.72C1246.87,-207.32 1228.9,-184.06 1239,-165 1252.33,-139.84 1278.67,-154.16 1292,-129 1295.95,-121.54 1297.8,-116.13 1292,-110 1267.19,-83.78 761.85,-71 562.69,-66.96"/>
<polygon fill="#63b8ff" stroke="#63b8ff" points="562.65,-63.46 552.58,-66.76 562.51,-70.46 562.65,-63.46"/>
</a>
</g>
</g>
<!-- Node31&#45;&gt;Node23 -->
<g id="edge53_Node000031_Node000023" class="edge">
<title>Node31&#45;&gt;Node23</title>
<g id="a_edge53_Node000031_Node000023"><a xlink:title=" ">
<path fill="none" stroke="#63b8ff" d="M1214.98,-219.98C1153.28,-210.08 1052.03,-193.81 990.54,-183.94"/>
<polygon fill="#63b8ff" stroke="#63b8ff" points="991.08,-180.48 980.65,-182.35 989.97,-187.39 991.08,-180.48"/>
</a>
</g>
</g>
<!-- Node32 -->
<g id="Node000032" class="node">
<title>Node32</title>
<g id="a_Node000032"><a xlink:href="qm_2opmatrix_8h.html" target="_top" xlink:title=" ">
<polygon fill="white" stroke="#666666" points="1356,-184 1248,-184 1248,-165 1356,-165 1356,-184"/>
<text text-anchor="middle" x="1302" y="-172" font-family="Helvetica,sans-Serif" font-size="10.00">occ/qm/opmatrix.h</text>
</a>
</g>
</g>
<!-- Node31&#45;&gt;Node32 -->
<g id="edge54_Node000031_Node000032" class="edge">
<title>Node31&#45;&gt;Node32</title>
<g id="a_edge54_Node000031_Node000032"><a xlink:title=" ">
<path fill="none" stroke="#63b8ff" d="M1268.45,-219.75C1271.64,-212.26 1278.3,-201.28 1285.02,-192.13"/>
<polygon fill="#63b8ff" stroke="#63b8ff" points="1287.91,-194.11 1291.36,-184.09 1282.42,-189.77 1287.91,-194.11"/>
</a>
</g>
</g>
<!-- Node32&#45;&gt;Node31 -->
<g id="edge55_Node000032_Node000031" class="edge">
<title>Node32&#45;&gt;Node31</title>
<g id="a_edge55_Node000032_Node000031"><a xlink:title=" ">
<path fill="none" stroke="#63b8ff" d="M1301.62,-184.09C1298.48,-191.52 1291.84,-202.5 1285.13,-211.67"/>
<polygon fill="#63b8ff" stroke="#63b8ff" points="1282.21,-209.72 1278.78,-219.75 1287.71,-214.05 1282.21,-209.72"/>
</a>
</g>
</g>
<!-- Node33&#45;&gt;Node31 -->
<g id="edge59_Node000033_Node000031" class="edge">
<title>Node33&#45;&gt;Node31</title>
<g id="a_edge59_Node000033_Node000031"><a xlink:title=" ">
<path fill="none" stroke="#63b8ff" d="M1399.61,-280.49C1373.38,-270.53 1329.72,-253.95 1299.94,-242.63"/>
<polygon fill="#63b8ff" stroke="#63b8ff" points="1301.01,-239.3 1290.42,-239.02 1298.53,-245.84 1301.01,-239.3"/>
</a>
</g>
</g>
<!-- Node34 -->
<g id="Node000034" class="node">
<title>Node34</title>
<g id="a_Node000034"><a xlink:href="orbital__smearing_8h.html" target="_top" xlink:title=" ">
<polygon fill="white" stroke="#666666" points="1622,-184 1476,-184 1476,-165 1622,-165 1622,-184"/>
<text text-anchor="middle" x="1549" y="-172" font-family="Helvetica,sans-Serif" font-size="10.00">occ/qm/orbital_smearing.h</text>
</a>
</g>
</g>
<!-- Node33&#45;&gt;Node34 -->
<g id="edge57_Node000033_Node000034" class="edge">
<title>Node33&#45;&gt;Node34</title>
<g id="a_edge57_Node000033_Node000034"><a xlink:title=" ">
<path fill="none" stroke="#63b8ff" d="M1431.55,-280.47C1452.88,-261.41 1504.65,-215.13 1531.78,-190.89"/>
<polygon fill="#63b8ff" stroke="#63b8ff" points="1534.22,-193.4 1539.34,-184.13 1529.56,-188.18 1534.22,-193.4"/>
</a>
</g>
</g>
<!-- Node34&#45;&gt;Node3 -->
<g id="edge58_Node000034_Node000003" class="edge">
<title>Node34&#45;&gt;Node3</title>
<g id="a_edge58_Node000034_Node000003"><a xlink:title=" ">
<path fill="none" stroke="#63b8ff" d="M1549.3,-164.8C1549.27,-150.71 1546.89,-123.14 1530,-110 1492.02,-80.45 801.48,-69.35 563.12,-66.38"/>
<polygon fill="#63b8ff" stroke="#63b8ff" points="562.83,-62.88 552.79,-66.26 562.75,-69.88 562.83,-62.88"/>
</a>
</g>
</g>
<!-- Node35&#45;&gt;Node3 -->
<g id="edge62_Node000035_Node000003" class="edge">
<title>Node35&#45;&gt;Node3</title>
<g id="a_edge62_Node000035_Node000003"><a xlink:title=" ">
<path fill="none" stroke="#63b8ff" d="M875.93,-280.47C886.79,-278.6 898.29,-276.68 909,-275 1021.63,-257.29 1062.78,-293.36 1163,-239 1170.13,-235.13 1256.15,-136.59 1259,-129 1261.97,-121.09 1264.8,-116.14 1259,-110 1235.36,-84.97 756.17,-71.57 562.84,-67.16"/>
<polygon fill="#63b8ff" stroke="#63b8ff" points="562.82,-63.66 552.74,-66.93 562.66,-70.66 562.82,-63.66"/>
</a>
</g>
</g>
<!-- Node35&#45;&gt;Node17 -->
<g id="edge63_Node000035_Node000017" class="edge">
<title>Node35&#45;&gt;Node17</title>
<g id="a_edge63_Node000035_Node000017"><a xlink:title=" ">
<path fill="none" stroke="#63b8ff" d="M867.7,-280.49C916.32,-270.07 998.71,-252.42 1051.45,-241.12"/>
<polygon fill="#63b8ff" stroke="#63b8ff" points="1052.21,-244.53 1061.26,-239.02 1050.74,-237.69 1052.21,-244.53"/>
</a>
</g>
</g>
<!-- Node35&#45;&gt;Node21 -->
<g id="edge64_Node000035_Node000021" class="edge">
<title>Node35&#45;&gt;Node21</title>
<g id="a_edge64_Node000035_Node000021"><a xlink:title=" ">
<path fill="none" stroke="#63b8ff" d="M787.87,-280.49C738.71,-270.07 655.41,-252.42 602.1,-241.12"/>
<polygon fill="#63b8ff" stroke="#63b8ff" points="602.69,-237.67 592.18,-239.02 601.24,-244.51 602.69,-237.67"/>
</a>
</g>
</g>
<!-- Node35&#45;&gt;Node31 -->
<g id="edge65_Node000035_Node000031" class="edge">
<title>Node35&#45;&gt;Node31</title>
<g id="a_edge65_Node000035_Node000031"><a xlink:title=" ">
<path fill="none" stroke="#63b8ff" d="M875.05,-280.48C886.17,-278.57 897.99,-276.63 909,-275 963.45,-266.92 1111.68,-249.04 1199.71,-238.57"/>
<polygon fill="#63b8ff" stroke="#63b8ff" points="1200.36,-242.02 1209.88,-237.36 1199.53,-235.07 1200.36,-242.02"/>
</a>
</g>
</g>
</g>
</svg>
