<?xml version="1.0" encoding="UTF-8" standalone="no"?>
<!DOCTYPE svg PUBLIC "-//W3C//DTD SVG 1.1//EN"
 "http://www.w3.org/Graphics/SVG/1.1/DTD/svg11.dtd">
<!-- Generated by graphviz version 2.43.0 (0)
 -->
<!-- Title: /home/runner/work/occ/occ/include/occ/qm/io/moldenreader.h Pages: 1 -->
<svg width="932pt" height="324pt"
 viewBox="0.00 0.00 932.00 324.00" xmlns="http://www.w3.org/2000/svg" xmlns:xlink="http://www.w3.org/1999/xlink">
<g id="graph0" class="graph" transform="scale(1 1) rotate(0) translate(4 320)">
<title>/home/runner/work/occ/occ/include/occ/qm/io/moldenreader.h</title>
<!-- Node1 -->
<g id="Node000001" class="node">
<title>Node1</title>
<g id="a_Node000001"><a xlink:title=" ">
<polygon fill="#999999" stroke="#666666" points="524,-316 396,-316 396,-275 524,-275 524,-316"/>
<text text-anchor="start" x="404" y="-304" font-family="Helvetica,sans-Serif" font-size="10.00">/home/runner/work/occ</text>
<text text-anchor="start" x="404" y="-293" font-family="Helvetica,sans-Serif" font-size="10.00">/occ/include/occ/qm/io</text>
<text text-anchor="middle" x="460" y="-282" font-family="Helvetica,sans-Serif" font-size="10.00">/moldenreader.h</text>
</a>
</g>
</g>
<!-- Node2 -->
<g id="Node000002" class="node">
<title>Node2</title>
<g id="a_Node000002"><a xlink:title=" ">
<polygon fill="#e0e0e0" stroke="#999999" points="54,-239 0,-239 0,-220 54,-220 54,-239"/>
<text text-anchor="middle" x="27" y="-227" font-family="Helvetica,sans-Serif" font-size="10.00">istream</text>
</a>
</g>
</g>
<!-- Node1&#45;&gt;Node2 -->
<g id="edge1_Node000001_Node000002" class="edge">
<title>Node1&#45;&gt;Node2</title>
<g id="a_edge1_Node000001_Node000002"><a xlink:title=" ">
<path fill="none" stroke="#63b8ff" d="M395.98,-286.71C318.21,-276.95 183.11,-259.06 68,-239 66.75,-238.78 65.48,-238.55 64.2,-238.32"/>
<polygon fill="#63b8ff" stroke="#63b8ff" points="64.78,-234.87 54.3,-236.41 63.46,-241.74 64.78,-234.87"/>
</a>
</g>
</g>
<!-- Node3 -->
<g id="Node000003" class="node">
<title>Node3</title>
<g id="a_Node000003"><a xlink:href="linear__algebra_8h.html" target="_top" xlink:title=" ">
<polygon fill="white" stroke="#666666" points="306.5,-74 167.5,-74 167.5,-55 306.5,-55 306.5,-74"/>
<text text-anchor="middle" x="237" y="-62" font-family="Helvetica,sans-Serif" font-size="10.00">occ/core/linear_algebra.h</text>
</a>
</g>
</g>
<!-- Node1&#45;&gt;Node3 -->
<g id="edge2_Node000001_Node000003" class="edge">
<title>Node1&#45;&gt;Node3</title>
<g id="a_edge2_Node000001_Node000003"><a xlink:title=" ">
<path fill="none" stroke="#63b8ff" d="M395.91,-290.31C321.5,-282.03 199.81,-257.37 128,-184 104.4,-159.88 91.51,-137.55 111,-110 122.29,-94.03 139.81,-83.76 158.24,-77.15"/>
<polygon fill="#63b8ff" stroke="#63b8ff" points="159.48,-80.43 167.92,-74.03 157.33,-73.77 159.48,-80.43"/>
</a>
</g>
</g>
<!-- Node6 -->
<g id="Node000006" class="node">
<title>Node6</title>
<g id="a_Node000006"><a xlink:href="shell_8h.html" target="_top" xlink:title=" ">
<polygon fill="white" stroke="#666666" points="408.5,-239 321.5,-239 321.5,-220 408.5,-220 408.5,-239"/>
<text text-anchor="middle" x="365" y="-227" font-family="Helvetica,sans-Serif" font-size="10.00">occ/gto/shell.h</text>
</a>
</g>
</g>
<!-- Node1&#45;&gt;Node6 -->
<g id="edge5_Node000001_Node000006" class="edge">
<title>Node1&#45;&gt;Node6</title>
<g id="a_edge5_Node000001_Node000006"><a xlink:title=" ">
<path fill="none" stroke="#63b8ff" d="M430.98,-274.95C416.62,-265.27 399.58,-253.8 386.42,-244.93"/>
<polygon fill="#63b8ff" stroke="#63b8ff" points="388.25,-241.95 378,-239.26 384.34,-247.75 388.25,-241.95"/>
</a>
</g>
</g>
<!-- Node17 -->
<g id="Node000017" class="node">
<title>Node17</title>
<g id="a_Node000017"><a xlink:title=" ">
<polygon fill="#e0e0e0" stroke="#999999" points="914,-74 870,-74 870,-55 914,-55 914,-74"/>
<text text-anchor="middle" x="892" y="-62" font-family="Helvetica,sans-Serif" font-size="10.00">string</text>
</a>
</g>
</g>
<!-- Node1&#45;&gt;Node17 -->
<g id="edge34_Node000001_Node000017" class="edge">
<title>Node1&#45;&gt;Node17</title>
<g id="a_edge34_Node000001_Node000017"><a xlink:title=" ">
<path fill="none" stroke="#63b8ff" d="M524.16,-288.91C601.8,-279.22 733.01,-253.16 821,-184 854.82,-157.42 876.11,-109.91 885.82,-83.85"/>
<polygon fill="#63b8ff" stroke="#63b8ff" points="889.22,-84.71 889.27,-74.12 882.63,-82.37 889.22,-84.71"/>
</a>
</g>
</g>
<!-- Node19 -->
<g id="Node000019" class="node">
<title>Node19</title>
<g id="a_Node000019"><a xlink:href="qm_2spinorbital_8h.html" target="_top" xlink:title=" ">
<polygon fill="white" stroke="#666666" points="635,-239 519,-239 519,-220 635,-220 635,-239"/>
<text text-anchor="middle" x="577" y="-227" font-family="Helvetica,sans-Serif" font-size="10.00">occ/qm/spinorbital.h</text>
</a>
</g>
</g>
<!-- Node1&#45;&gt;Node19 -->
<g id="edge25_Node000001_Node000019" class="edge">
<title>Node1&#45;&gt;Node19</title>
<g id="a_edge25_Node000001_Node000019"><a xlink:title=" ">
<path fill="none" stroke="#63b8ff" d="M495.74,-274.95C514.05,-264.93 535.89,-252.99 552.32,-244"/>
<polygon fill="#63b8ff" stroke="#63b8ff" points="554.2,-246.96 561.29,-239.09 550.84,-240.82 554.2,-246.96"/>
</a>
</g>
</g>
<!-- Node22 -->
<g id="Node000022" class="node">
<title>Node22</title>
<g id="a_Node000022"><a xlink:title=" ">
<polygon fill="#e0e0e0" stroke="#999999" points="924,-239 868,-239 868,-220 924,-220 924,-239"/>
<text text-anchor="middle" x="896" y="-227" font-family="Helvetica,sans-Serif" font-size="10.00">optional</text>
</a>
</g>
</g>
<!-- Node1&#45;&gt;Node22 -->
<g id="edge33_Node000001_Node000022" class="edge">
<title>Node1&#45;&gt;Node22</title>
<g id="a_edge33_Node000001_Node000022"><a xlink:title=" ">
<path fill="none" stroke="#63b8ff" d="M524.33,-286.64C602.49,-276.81 738.26,-258.85 854,-239 855.1,-238.81 856.22,-238.62 857.34,-238.41"/>
<polygon fill="#63b8ff" stroke="#63b8ff" points="858.39,-241.78 867.58,-236.49 857.1,-234.9 858.39,-241.78"/>
</a>
</g>
</g>
<!-- Node4 -->
<g id="Node000004" class="node">
<title>Node4</title>
<g id="a_Node000004"><a xlink:title=" ">
<polygon fill="#e0e0e0" stroke="#999999" points="222.5,-19 153.5,-19 153.5,0 222.5,0 222.5,-19"/>
<text text-anchor="middle" x="188" y="-7" font-family="Helvetica,sans-Serif" font-size="10.00">Eigen/Core</text>
</a>
</g>
</g>
<!-- Node3&#45;&gt;Node4 -->
<g id="edge3_Node000003_Node000004" class="edge">
<title>Node3&#45;&gt;Node4</title>
<g id="a_edge3_Node000003_Node000004"><a xlink:title=" ">
<path fill="none" stroke="#63b8ff" d="M228.91,-54.75C221.84,-47.11 211.41,-35.82 202.85,-26.56"/>
<polygon fill="#63b8ff" stroke="#63b8ff" points="205.3,-24.06 195.94,-19.09 200.16,-28.81 205.3,-24.06"/>
</a>
</g>
</g>
<!-- Node5 -->
<g id="Node000005" class="node">
<title>Node5</title>
<g id="a_Node000005"><a xlink:title=" ">
<polygon fill="#e0e0e0" stroke="#999999" points="333.5,-19 240.5,-19 240.5,0 333.5,0 333.5,-19"/>
<text text-anchor="middle" x="287" y="-7" font-family="Helvetica,sans-Serif" font-size="10.00">Eigen/StdVector</text>
</a>
</g>
</g>
<!-- Node3&#45;&gt;Node5 -->
<g id="edge4_Node000003_Node000005" class="edge">
<title>Node3&#45;&gt;Node5</title>
<g id="a_edge4_Node000003_Node000005"><a xlink:title=" ">
<path fill="none" stroke="#63b8ff" d="M245.26,-54.75C252.46,-47.11 263.11,-35.82 271.85,-26.56"/>
<polygon fill="#63b8ff" stroke="#63b8ff" points="274.58,-28.76 278.9,-19.09 269.49,-23.96 274.58,-28.76"/>
</a>
</g>
</g>
<!-- Node6&#45;&gt;Node3 -->
<g id="edge10_Node000006_Node000003" class="edge">
<title>Node6&#45;&gt;Node3</title>
<g id="a_edge10_Node000006_Node000003"><a xlink:title=" ">
<path fill="none" stroke="#63b8ff" d="M361.03,-219.78C351.4,-199.17 325.16,-146.47 293,-110 283.02,-98.68 269.9,-88.08 258.86,-80.07"/>
<polygon fill="#63b8ff" stroke="#63b8ff" points="260.76,-77.12 250.56,-74.23 256.73,-82.85 260.76,-77.12"/>
</a>
</g>
</g>
<!-- Node7 -->
<g id="Node000007" class="node">
<title>Node7</title>
<g id="a_Node000007"><a xlink:title=" ">
<polygon fill="#e0e0e0" stroke="#999999" points="162,-129 120,-129 120,-110 162,-110 162,-129"/>
<text text-anchor="middle" x="141" y="-117" font-family="Helvetica,sans-Serif" font-size="10.00">array</text>
</a>
</g>
</g>
<!-- Node6&#45;&gt;Node7 -->
<g id="edge6_Node000006_Node000007" class="edge">
<title>Node6&#45;&gt;Node7</title>
<g id="a_edge6_Node000006_Node000007"><a xlink:title=" ">
<path fill="none" stroke="#63b8ff" d="M321.14,-226.28C262.04,-222.27 161.61,-211.49 139,-184 128.83,-171.63 130.84,-152.87 134.48,-138.94"/>
<polygon fill="#63b8ff" stroke="#63b8ff" points="137.94,-139.61 137.56,-129.02 131.25,-137.54 137.94,-139.61"/>
</a>
</g>
</g>
<!-- Node8 -->
<g id="Node000008" class="node">
<title>Node8</title>
<g id="a_Node000008"><a xlink:title=" ">
<polygon fill="#e0e0e0" stroke="#999999" points="456.5,-74 389.5,-74 389.5,-55 456.5,-55 456.5,-74"/>
<text text-anchor="middle" x="423" y="-62" font-family="Helvetica,sans-Serif" font-size="10.00">fmt/core.h</text>
</a>
</g>
</g>
<!-- Node6&#45;&gt;Node8 -->
<g id="edge7_Node000006_Node000008" class="edge">
<title>Node6&#45;&gt;Node8</title>
<g id="a_edge7_Node000006_Node000008"><a xlink:title=" ">
<path fill="none" stroke="#63b8ff" d="M368.12,-219.74C377.24,-194.09 404.04,-118.78 416.5,-83.78"/>
<polygon fill="#63b8ff" stroke="#63b8ff" points="419.81,-84.9 419.87,-74.31 413.22,-82.55 419.81,-84.9"/>
</a>
</g>
</g>
<!-- Node9 -->
<g id="Node000009" class="node">
<title>Node9</title>
<g id="a_Node000009"><a xlink:href="atom_8h.html" target="_top" xlink:title=" ">
<polygon fill="white" stroke="#666666" points="284.5,-129 189.5,-129 189.5,-110 284.5,-110 284.5,-129"/>
<text text-anchor="middle" x="237" y="-117" font-family="Helvetica,sans-Serif" font-size="10.00">occ/core/atom.h</text>
</a>
</g>
</g>
<!-- Node6&#45;&gt;Node9 -->
<g id="edge8_Node000006_Node000009" class="edge">
<title>Node6&#45;&gt;Node9</title>
<g id="a_edge8_Node000006_Node000009"><a xlink:title=" ">
<path fill="none" stroke="#63b8ff" d="M354.53,-219.66C332.76,-201.3 282.41,-158.81 255.21,-135.87"/>
<polygon fill="#63b8ff" stroke="#63b8ff" points="257.16,-132.93 247.26,-129.16 252.65,-138.28 257.16,-132.93"/>
</a>
</g>
</g>
<!-- Node10 -->
<g id="Node000010" class="node">
<title>Node10</title>
<g id="a_Node000010"><a xlink:href="point__charge_8h.html" target="_top" xlink:title=" ">
<polygon fill="white" stroke="#666666" points="280,-184 148,-184 148,-165 280,-165 280,-184"/>
<text text-anchor="middle" x="214" y="-172" font-family="Helvetica,sans-Serif" font-size="10.00">occ/core/point_charge.h</text>
</a>
</g>
</g>
<!-- Node6&#45;&gt;Node10 -->
<g id="edge11_Node000006_Node000010" class="edge">
<title>Node6&#45;&gt;Node10</title>
<g id="a_edge11_Node000006_Node000010"><a xlink:title=" ">
<path fill="none" stroke="#63b8ff" d="M340.74,-219.98C315.68,-211.19 276.37,-197.39 248.17,-187.49"/>
<polygon fill="#63b8ff" stroke="#63b8ff" points="249.3,-184.18 238.7,-184.17 246.98,-190.78 249.3,-184.18"/>
</a>
</g>
</g>
<!-- Node11 -->
<g id="Node000011" class="node">
<title>Node11</title>
<g id="a_Node000011"><a xlink:href="util_8h.html" target="_top" xlink:title=" ">
<polygon fill="white" stroke="#666666" points="611.5,-129 526.5,-129 526.5,-110 611.5,-110 611.5,-129"/>
<text text-anchor="middle" x="569" y="-117" font-family="Helvetica,sans-Serif" font-size="10.00">occ/core/util.h</text>
</a>
</g>
</g>
<!-- Node6&#45;&gt;Node11 -->
<g id="edge14_Node000006_Node000011" class="edge">
<title>Node6&#45;&gt;Node11</title>
<g id="a_edge14_Node000006_Node000011"><a xlink:title=" ">
<path fill="none" stroke="#63b8ff" d="M381.35,-219.84C416.95,-201 501.67,-156.14 544.02,-133.73"/>
<polygon fill="#63b8ff" stroke="#63b8ff" points="545.66,-136.82 552.86,-129.05 542.38,-130.63 545.66,-136.82"/>
</a>
</g>
</g>
<!-- Node18 -->
<g id="Node000018" class="node">
<title>Node18</title>
<g id="a_Node000018"><a xlink:title=" ">
<polygon fill="#e0e0e0" stroke="#999999" points="371.5,-74 324.5,-74 324.5,-55 371.5,-55 371.5,-74"/>
<text text-anchor="middle" x="348" y="-62" font-family="Helvetica,sans-Serif" font-size="10.00">vector</text>
</a>
</g>
</g>
<!-- Node6&#45;&gt;Node18 -->
<g id="edge24_Node000006_Node000018" class="edge">
<title>Node6&#45;&gt;Node18</title>
<g id="a_edge24_Node000006_Node000018"><a xlink:title=" ">
<path fill="none" stroke="#63b8ff" d="M365.29,-219.81C365.79,-200.13 366.27,-150.7 360,-110 358.66,-101.3 356.26,-91.86 353.95,-83.92"/>
<polygon fill="#63b8ff" stroke="#63b8ff" points="357.26,-82.77 350.97,-74.24 350.57,-84.83 357.26,-82.77"/>
</a>
</g>
</g>
<!-- Node9&#45;&gt;Node3 -->
<g id="edge9_Node000009_Node000003" class="edge">
<title>Node9&#45;&gt;Node3</title>
<g id="a_edge9_Node000009_Node000003"><a xlink:title=" ">
<path fill="none" stroke="#63b8ff" d="M237,-109.75C237,-102.8 237,-92.85 237,-84.13"/>
<polygon fill="#63b8ff" stroke="#63b8ff" points="240.5,-84.09 237,-74.09 233.5,-84.09 240.5,-84.09"/>
</a>
</g>
</g>
<!-- Node10&#45;&gt;Node7 -->
<g id="edge12_Node000010_Node000007" class="edge">
<title>Node10&#45;&gt;Node7</title>
<g id="a_edge12_Node000010_Node000007"><a xlink:title=" ">
<path fill="none" stroke="#63b8ff" d="M202.27,-164.98C191.27,-157 174.58,-144.88 161.4,-135.31"/>
<polygon fill="#63b8ff" stroke="#63b8ff" points="163.09,-132.21 152.94,-129.17 158.98,-137.88 163.09,-132.21"/>
</a>
</g>
</g>
<!-- Node10&#45;&gt;Node9 -->
<g id="edge13_Node000010_Node000009" class="edge">
<title>Node10&#45;&gt;Node9</title>
<g id="a_edge13_Node000010_Node000009"><a xlink:title=" ">
<path fill="none" stroke="#63b8ff" d="M217.8,-164.75C220.91,-157.57 225.42,-147.18 229.29,-138.27"/>
<polygon fill="#63b8ff" stroke="#63b8ff" points="232.5,-139.66 233.27,-129.09 226.08,-136.87 232.5,-139.66"/>
</a>
</g>
</g>
<!-- Node11&#45;&gt;Node3 -->
<g id="edge21_Node000011_Node000003" class="edge">
<title>Node11&#45;&gt;Node3</title>
<g id="a_edge21_Node000011_Node000003"><a xlink:title=" ">
<path fill="none" stroke="#63b8ff" d="M526.28,-111.68C468.89,-102.52 366.47,-86.17 300.17,-75.58"/>
<polygon fill="#63b8ff" stroke="#63b8ff" points="300.68,-72.12 290.25,-74 299.57,-79.03 300.68,-72.12"/>
</a>
</g>
</g>
<!-- Node11&#45;&gt;Node8 -->
<g id="edge18_Node000011_Node000008" class="edge">
<title>Node11&#45;&gt;Node8</title>
<g id="a_edge18_Node000011_Node000008"><a xlink:title=" ">
<path fill="none" stroke="#63b8ff" d="M545.54,-109.98C521.42,-101.23 483.63,-87.51 456.4,-77.62"/>
<polygon fill="#63b8ff" stroke="#63b8ff" points="457.48,-74.29 446.88,-74.17 455.09,-80.87 457.48,-74.29"/>
</a>
</g>
</g>
<!-- Node12 -->
<g id="Node000012" class="node">
<title>Node12</title>
<g id="a_Node000012"><a xlink:title=" ">
<polygon fill="#e0e0e0" stroke="#999999" points="852,-74 788,-74 788,-55 852,-55 852,-74"/>
<text text-anchor="middle" x="820" y="-62" font-family="Helvetica,sans-Serif" font-size="10.00">algorithm</text>
</a>
</g>
</g>
<!-- Node11&#45;&gt;Node12 -->
<g id="edge15_Node000011_Node000012" class="edge">
<title>Node11&#45;&gt;Node12</title>
<g id="a_edge15_Node000011_Node000012"><a xlink:title=" ">
<path fill="none" stroke="#63b8ff" d="M609.33,-109.98C655.55,-100.23 730.95,-84.3 777.9,-74.39"/>
<polygon fill="#63b8ff" stroke="#63b8ff" points="778.69,-77.8 787.75,-72.31 777.24,-70.95 778.69,-77.8"/>
</a>
</g>
</g>
<!-- Node13 -->
<g id="Node000013" class="node">
<title>Node13</title>
<g id="a_Node000013"><a xlink:title=" ">
<polygon fill="#e0e0e0" stroke="#999999" points="523.5,-74 474.5,-74 474.5,-55 523.5,-55 523.5,-74"/>
<text text-anchor="middle" x="499" y="-62" font-family="Helvetica,sans-Serif" font-size="10.00">cctype</text>
</a>
</g>
</g>
<!-- Node11&#45;&gt;Node13 -->
<g id="edge16_Node000011_Node000013" class="edge">
<title>Node11&#45;&gt;Node13</title>
<g id="a_edge16_Node000011_Node000013"><a xlink:title=" ">
<path fill="none" stroke="#63b8ff" d="M557.75,-109.98C547.2,-102 531.2,-89.88 518.56,-80.31"/>
<polygon fill="#63b8ff" stroke="#63b8ff" points="520.54,-77.42 510.45,-74.17 516.31,-83 520.54,-77.42"/>
</a>
</g>
</g>
<!-- Node14 -->
<g id="Node000014" class="node">
<title>Node14</title>
<g id="a_Node000014"><a xlink:title=" ">
<polygon fill="#e0e0e0" stroke="#999999" points="592,-74 542,-74 542,-55 592,-55 592,-74"/>
<text text-anchor="middle" x="567" y="-62" font-family="Helvetica,sans-Serif" font-size="10.00">chrono</text>
</a>
</g>
</g>
<!-- Node11&#45;&gt;Node14 -->
<g id="edge17_Node000011_Node000014" class="edge">
<title>Node11&#45;&gt;Node14</title>
<g id="a_edge17_Node000011_Node000014"><a xlink:title=" ">
<path fill="none" stroke="#63b8ff" d="M568.67,-109.75C568.41,-102.8 568.03,-92.85 567.7,-84.13"/>
<polygon fill="#63b8ff" stroke="#63b8ff" points="571.2,-83.95 567.32,-74.09 564.2,-84.21 571.2,-83.95"/>
</a>
</g>
</g>
<!-- Node15 -->
<g id="Node000015" class="node">
<title>Node15</title>
<g id="a_Node000015"><a xlink:title=" ">
<polygon fill="#e0e0e0" stroke="#999999" points="696,-74 610,-74 610,-55 696,-55 696,-74"/>
<text text-anchor="middle" x="653" y="-62" font-family="Helvetica,sans-Serif" font-size="10.00">fmt/ostream.h</text>
</a>
</g>
</g>
<!-- Node11&#45;&gt;Node15 -->
<g id="edge19_Node000011_Node000015" class="edge">
<title>Node11&#45;&gt;Node15</title>
<g id="a_edge19_Node000011_Node000015"><a xlink:title=" ">
<path fill="none" stroke="#63b8ff" d="M582.5,-109.98C595.4,-101.84 615.1,-89.41 630.4,-79.76"/>
<polygon fill="#63b8ff" stroke="#63b8ff" points="632.67,-82.47 639.26,-74.17 628.93,-76.55 632.67,-82.47"/>
</a>
</g>
</g>
<!-- Node16 -->
<g id="Node000016" class="node">
<title>Node16</title>
<g id="a_Node000016"><a xlink:title=" ">
<polygon fill="#e0e0e0" stroke="#999999" points="770,-74 714,-74 714,-55 770,-55 770,-74"/>
<text text-anchor="middle" x="742" y="-62" font-family="Helvetica,sans-Serif" font-size="10.00">numeric</text>
</a>
</g>
</g>
<!-- Node11&#45;&gt;Node16 -->
<g id="edge20_Node000011_Node000016" class="edge">
<title>Node11&#45;&gt;Node16</title>
<g id="a_edge20_Node000011_Node000016"><a xlink:title=" ">
<path fill="none" stroke="#63b8ff" d="M596.8,-109.98C625.97,-101.05 672,-86.94 704.4,-77.02"/>
<polygon fill="#63b8ff" stroke="#63b8ff" points="705.45,-80.36 713.99,-74.08 703.4,-73.66 705.45,-80.36"/>
</a>
</g>
</g>
<!-- Node11&#45;&gt;Node17 -->
<g id="edge22_Node000011_Node000017" class="edge">
<title>Node11&#45;&gt;Node17</title>
<g id="a_edge22_Node000011_Node000017"><a xlink:title=" ">
<path fill="none" stroke="#63b8ff" d="M611.84,-113.56C667.05,-106.84 766.15,-93.6 859.8,-74.04"/>
<polygon fill="#63b8ff" stroke="#63b8ff" points="860.67,-77.44 869.72,-71.94 859.22,-70.59 860.67,-77.44"/>
</a>
</g>
</g>
<!-- Node11&#45;&gt;Node18 -->
<g id="edge23_Node000011_Node000018" class="edge">
<title>Node11&#45;&gt;Node18</title>
<g id="a_edge23_Node000011_Node000018"><a xlink:title=" ">
<path fill="none" stroke="#63b8ff" d="M531.85,-109.93C495.89,-101.59 439.59,-88.4 381.5,-74.08"/>
<polygon fill="#63b8ff" stroke="#63b8ff" points="382.33,-70.68 371.78,-71.68 380.65,-77.48 382.33,-70.68"/>
</a>
</g>
</g>
<!-- Node19&#45;&gt;Node3 -->
<g id="edge26_Node000019_Node000003" class="edge">
<title>Node19&#45;&gt;Node3</title>
<g id="a_edge26_Node000019_Node000003"><a xlink:title=" ">
<path fill="none" stroke="#63b8ff" d="M559.2,-219.97C503.33,-193.18 331.2,-110.66 264.14,-78.51"/>
<polygon fill="#63b8ff" stroke="#63b8ff" points="265.57,-75.31 255.04,-74.15 262.54,-81.63 265.57,-75.31"/>
</a>
</g>
</g>
<!-- Node19&#45;&gt;Node11 -->
<g id="edge30_Node000019_Node000011" class="edge">
<title>Node19&#45;&gt;Node11</title>
<g id="a_edge30_Node000019_Node000011"><a xlink:title=" ">
<path fill="none" stroke="#63b8ff" d="M571.16,-219.76C565.75,-211.1 558.1,-197.26 555,-184 551.43,-168.71 555.87,-151.3 560.67,-138.58"/>
<polygon fill="#63b8ff" stroke="#63b8ff" points="563.98,-139.72 564.62,-129.14 557.53,-137.01 563.98,-139.72"/>
</a>
</g>
</g>
<!-- Node20 -->
<g id="Node000020" class="node">
<title>Node20</title>
<g id="a_Node000020"><a xlink:href="core_2spinorbital_8h.html" target="_top" xlink:title=" ">
<polygon fill="white" stroke="#666666" points="811.5,-184 690.5,-184 690.5,-165 811.5,-165 811.5,-184"/>
<text text-anchor="middle" x="751" y="-172" font-family="Helvetica,sans-Serif" font-size="10.00">occ/core/spinorbital.h</text>
</a>
</g>
</g>
<!-- Node19&#45;&gt;Node20 -->
<g id="edge27_Node000019_Node000020" class="edge">
<title>Node19&#45;&gt;Node20</title>
<g id="a_edge27_Node000019_Node000020"><a xlink:title=" ">
<path fill="none" stroke="#63b8ff" d="M604.96,-219.98C634.3,-211.05 680.6,-196.94 713.19,-187.02"/>
<polygon fill="#63b8ff" stroke="#63b8ff" points="714.28,-190.34 722.82,-184.08 712.24,-183.65 714.28,-190.34"/>
</a>
</g>
</g>
<!-- Node21 -->
<g id="Node000021" class="node">
<title>Node21</title>
<g id="a_Node000021"><a xlink:href="qm_2opmatrix_8h.html" target="_top" xlink:title=" ">
<polygon fill="white" stroke="#666666" points="672,-184 564,-184 564,-165 672,-165 672,-184"/>
<text text-anchor="middle" x="618" y="-172" font-family="Helvetica,sans-Serif" font-size="10.00">occ/qm/opmatrix.h</text>
</a>
</g>
</g>
<!-- Node19&#45;&gt;Node21 -->
<g id="edge31_Node000019_Node000021" class="edge">
<title>Node19&#45;&gt;Node21</title>
<g id="a_edge31_Node000019_Node000021"><a xlink:title=" ">
<path fill="none" stroke="#63b8ff" d="M578.6,-219.75C582.87,-212.11 591.24,-200.82 599.31,-191.56"/>
<polygon fill="#63b8ff" stroke="#63b8ff" points="602,-193.81 606.22,-184.09 596.87,-189.05 602,-193.81"/>
</a>
</g>
</g>
<!-- Node20&#45;&gt;Node11 -->
<g id="edge28_Node000020_Node000011" class="edge">
<title>Node20&#45;&gt;Node11</title>
<g id="a_edge28_Node000020_Node000011"><a xlink:title=" ">
<path fill="none" stroke="#63b8ff" d="M721.76,-164.98C690.94,-156.01 642.22,-141.82 608.11,-131.89"/>
<polygon fill="#63b8ff" stroke="#63b8ff" points="609.05,-128.52 598.47,-129.08 607.09,-135.24 609.05,-128.52"/>
</a>
</g>
</g>
<!-- Node20&#45;&gt;Node17 -->
<g id="edge29_Node000020_Node000017" class="edge">
<title>Node20&#45;&gt;Node17</title>
<g id="a_edge29_Node000020_Node000017"><a xlink:title=" ">
<path fill="none" stroke="#63b8ff" d="M760.43,-164.93C774.38,-152.4 801.51,-128.53 826,-110 840.1,-99.33 856.59,-88.21 869.56,-79.75"/>
<polygon fill="#63b8ff" stroke="#63b8ff" points="871.8,-82.48 878.3,-74.11 868,-76.6 871.8,-82.48"/>
</a>
</g>
</g>
<!-- Node21&#45;&gt;Node19 -->
<g id="edge32_Node000021_Node000019" class="edge">
<title>Node21&#45;&gt;Node19</title>
<g id="a_edge32_Node000021_Node000019"><a xlink:title=" ">
<path fill="none" stroke="#63b8ff" d="M616.49,-184.09C612.28,-191.68 603.94,-202.95 595.86,-212.24"/>
<polygon fill="#63b8ff" stroke="#63b8ff" points="593.14,-210.02 588.94,-219.75 598.29,-214.77 593.14,-210.02"/>
</a>
</g>
</g>
</g>
</svg>
