<?xml version="1.0" encoding="UTF-8" standalone="no"?>
<!DOCTYPE svg PUBLIC "-//W3C//DTD SVG 1.1//EN"
 "http://www.w3.org/Graphics/SVG/1.1/DTD/svg11.dtd">
<!-- Generated by graphviz version 2.43.0 (0)
 -->
<!-- Title: /home/runner/work/occ/occ/include/occ/io/moldenreader.h Pages: 1 -->
<svg width="1128pt" height="313pt"
 viewBox="0.00 0.00 1128.00 313.00" xmlns="http://www.w3.org/2000/svg" xmlns:xlink="http://www.w3.org/1999/xlink">
<g id="graph0" class="graph" transform="scale(1 1) rotate(0) translate(4 309)">
<title>/home/runner/work/occ/occ/include/occ/io/moldenreader.h</title>
<!-- Node1 -->
<g id="Node000001" class="node">
<title>Node1</title>
<g id="a_Node000001"><a xlink:title=" ">
<polygon fill="#999999" stroke="#666666" points="552.5,-305 367.5,-305 367.5,-275 552.5,-275 552.5,-305"/>
<text text-anchor="start" x="375.5" y="-293" font-family="Helvetica,sans-Serif" font-size="10.00">/home/runner/work/occ</text>
<text text-anchor="middle" x="460" y="-282" font-family="Helvetica,sans-Serif" font-size="10.00">/occ/include/occ/io/moldenreader.h</text>
</a>
</g>
</g>
<!-- Node2 -->
<g id="Node000002" class="node">
<title>Node2</title>
<g id="a_Node000002"><a xlink:title=" ">
<polygon fill="#e0e0e0" stroke="#999999" points="54,-239 0,-239 0,-220 54,-220 54,-239"/>
<text text-anchor="middle" x="27" y="-227" font-family="Helvetica,sans-Serif" font-size="10.00">istream</text>
</a>
</g>
</g>
<!-- Node1&#45;&gt;Node2 -->
<g id="edge1_Node000001_Node000002" class="edge">
<title>Node1&#45;&gt;Node2</title>
<g id="a_edge1_Node000001_Node000002"><a xlink:title=" ">
<path fill="none" stroke="#63b8ff" d="M367.43,-279.24C287.81,-270.36 170.01,-256.05 68,-239 66.75,-238.79 65.48,-238.57 64.2,-238.34"/>
<polygon fill="#63b8ff" stroke="#63b8ff" points="64.77,-234.89 54.29,-236.47 63.47,-241.77 64.77,-234.89"/>
</a>
</g>
</g>
<!-- Node3 -->
<g id="Node000003" class="node">
<title>Node3</title>
<g id="a_Node000003"><a xlink:href="linear__algebra_8h.html" target="_top" xlink:title=" ">
<polygon fill="white" stroke="#666666" points="355.5,-74 216.5,-74 216.5,-55 355.5,-55 355.5,-74"/>
<text text-anchor="middle" x="286" y="-62" font-family="Helvetica,sans-Serif" font-size="10.00">occ/core/linear_algebra.h</text>
</a>
</g>
</g>
<!-- Node1&#45;&gt;Node3 -->
<g id="edge2_Node000001_Node000003" class="edge">
<title>Node1&#45;&gt;Node3</title>
<g id="a_edge2_Node000001_Node000003"><a xlink:title=" ">
<path fill="none" stroke="#63b8ff" d="M367.45,-281.81C293.81,-271.41 192.7,-246.01 128,-184 103.4,-160.43 87.03,-136.85 108,-110 120.57,-93.9 165.2,-82.77 206.62,-75.66"/>
<polygon fill="#63b8ff" stroke="#63b8ff" points="207.21,-79.11 216.51,-74.03 206.07,-72.21 207.21,-79.11"/>
</a>
</g>
</g>
<!-- Node7 -->
<g id="Node000007" class="node">
<title>Node7</title>
<g id="a_Node000007"><a xlink:href="shell_8h.html" target="_top" xlink:title=" ">
<polygon fill="white" stroke="#666666" points="408.5,-239 321.5,-239 321.5,-220 408.5,-220 408.5,-239"/>
<text text-anchor="middle" x="365" y="-227" font-family="Helvetica,sans-Serif" font-size="10.00">occ/qm/shell.h</text>
</a>
</g>
</g>
<!-- Node1&#45;&gt;Node7 -->
<g id="edge6_Node000001_Node000007" class="edge">
<title>Node1&#45;&gt;Node7</title>
<g id="a_edge6_Node000001_Node000007"><a xlink:title=" ">
<path fill="none" stroke="#63b8ff" d="M437,-274.84C422,-265.6 402.5,-253.59 387.57,-244.4"/>
<polygon fill="#63b8ff" stroke="#63b8ff" points="389.31,-241.36 378.96,-239.09 385.64,-247.32 389.31,-241.36"/>
</a>
</g>
</g>
<!-- Node18 -->
<g id="Node000018" class="node">
<title>Node18</title>
<g id="a_Node000018"><a xlink:title=" ">
<polygon fill="#e0e0e0" stroke="#999999" points="1058,-129 1014,-129 1014,-110 1058,-110 1058,-129"/>
<text text-anchor="middle" x="1036" y="-117" font-family="Helvetica,sans-Serif" font-size="10.00">string</text>
</a>
</g>
</g>
<!-- Node1&#45;&gt;Node18 -->
<g id="edge34_Node000001_Node000018" class="edge">
<title>Node1&#45;&gt;Node18</title>
<g id="a_edge34_Node000001_Node000018"><a xlink:title=" ">
<path fill="none" stroke="#63b8ff" d="M552.69,-284.89C671.54,-278.65 870.46,-264.73 939,-239 978.71,-224.09 992.23,-218.43 1017,-184 1026.56,-170.72 1031.36,-152.6 1033.74,-139.12"/>
<polygon fill="#63b8ff" stroke="#63b8ff" points="1037.22,-139.49 1035.22,-129.09 1030.3,-138.47 1037.22,-139.49"/>
</a>
</g>
</g>
<!-- Node19 -->
<g id="Node000019" class="node">
<title>Node19</title>
<g id="a_Node000019"><a xlink:title=" ">
<polygon fill="#e0e0e0" stroke="#999999" points="459.5,-129 412.5,-129 412.5,-110 459.5,-110 459.5,-129"/>
<text text-anchor="middle" x="436" y="-117" font-family="Helvetica,sans-Serif" font-size="10.00">vector</text>
</a>
</g>
</g>
<!-- Node1&#45;&gt;Node19 -->
<g id="edge35_Node000001_Node000019" class="edge">
<title>Node1&#45;&gt;Node19</title>
<g id="a_edge35_Node000001_Node000019"><a xlink:title=" ">
<path fill="none" stroke="#63b8ff" d="M458,-274.92C453.68,-244.65 443.53,-173.35 438.67,-139.27"/>
<polygon fill="#63b8ff" stroke="#63b8ff" points="442.12,-138.66 437.25,-129.25 435.19,-139.65 442.12,-138.66"/>
</a>
</g>
</g>
<!-- Node20 -->
<g id="Node000020" class="node">
<title>Node20</title>
<g id="a_Node000020"><a xlink:href="spinorbital_8h.html" target="_top" xlink:title=" ">
<polygon fill="white" stroke="#666666" points="930,-239 814,-239 814,-220 930,-220 930,-239"/>
<text text-anchor="middle" x="872" y="-227" font-family="Helvetica,sans-Serif" font-size="10.00">occ/qm/spinorbital.h</text>
</a>
</g>
</g>
<!-- Node1&#45;&gt;Node20 -->
<g id="edge28_Node000001_Node000020" class="edge">
<title>Node1&#45;&gt;Node20</title>
<g id="a_edge28_Node000001_Node000020"><a xlink:title=" ">
<path fill="none" stroke="#63b8ff" d="M552.72,-275.84C628.89,-265.02 735.06,-249.94 803.67,-240.2"/>
<polygon fill="#63b8ff" stroke="#63b8ff" points="804.52,-243.62 813.93,-238.75 803.53,-236.69 804.52,-243.62"/>
</a>
</g>
</g>
<!-- Node22 -->
<g id="Node000022" class="node">
<title>Node22</title>
<g id="a_Node000022"><a xlink:title=" ">
<polygon fill="#e0e0e0" stroke="#999999" points="1120,-239 1064,-239 1064,-220 1120,-220 1120,-239"/>
<text text-anchor="middle" x="1092" y="-227" font-family="Helvetica,sans-Serif" font-size="10.00">optional</text>
</a>
</g>
</g>
<!-- Node1&#45;&gt;Node22 -->
<g id="edge33_Node000001_Node000022" class="edge">
<title>Node1&#45;&gt;Node22</title>
<g id="a_edge33_Node000001_Node000022"><a xlink:title=" ">
<path fill="none" stroke="#63b8ff" d="M552.6,-284.46C669.1,-277.98 875.1,-264.02 1050,-239 1051.1,-238.84 1052.22,-238.67 1053.35,-238.5"/>
<polygon fill="#63b8ff" stroke="#63b8ff" points="1054.36,-241.87 1063.61,-236.71 1053.16,-234.98 1054.36,-241.87"/>
</a>
</g>
</g>
<!-- Node4 -->
<g id="Node000004" class="node">
<title>Node4</title>
<g id="a_Node000004"><a xlink:title=" ">
<polygon fill="#e0e0e0" stroke="#999999" points="221.5,-19 144.5,-19 144.5,0 221.5,0 221.5,-19"/>
<text text-anchor="middle" x="183" y="-7" font-family="Helvetica,sans-Serif" font-size="10.00">Eigen/Dense</text>
</a>
</g>
</g>
<!-- Node3&#45;&gt;Node4 -->
<g id="edge3_Node000003_Node000004" class="edge">
<title>Node3&#45;&gt;Node4</title>
<g id="a_edge3_Node000003_Node000004"><a xlink:title=" ">
<path fill="none" stroke="#63b8ff" d="M269.45,-54.98C253.11,-46.57 227.87,-33.59 208.87,-23.81"/>
<polygon fill="#63b8ff" stroke="#63b8ff" points="210.34,-20.63 199.85,-19.17 207.14,-26.86 210.34,-20.63"/>
</a>
</g>
</g>
<!-- Node5 -->
<g id="Node000005" class="node">
<title>Node5</title>
<g id="a_Node000005"><a xlink:title=" ">
<polygon fill="#e0e0e0" stroke="#999999" points="332.5,-19 239.5,-19 239.5,0 332.5,0 332.5,-19"/>
<text text-anchor="middle" x="286" y="-7" font-family="Helvetica,sans-Serif" font-size="10.00">Eigen/StdVector</text>
</a>
</g>
</g>
<!-- Node3&#45;&gt;Node5 -->
<g id="edge4_Node000003_Node000005" class="edge">
<title>Node3&#45;&gt;Node5</title>
<g id="a_edge4_Node000003_Node000005"><a xlink:title=" ">
<path fill="none" stroke="#63b8ff" d="M286,-54.75C286,-47.8 286,-37.85 286,-29.13"/>
<polygon fill="#63b8ff" stroke="#63b8ff" points="289.5,-29.09 286,-19.09 282.5,-29.09 289.5,-29.09"/>
</a>
</g>
</g>
<!-- Node6 -->
<g id="Node000006" class="node">
<title>Node6</title>
<g id="a_Node000006"><a xlink:title=" ">
<polygon fill="#e0e0e0" stroke="#999999" points="417.5,-19 350.5,-19 350.5,0 417.5,0 417.5,-19"/>
<text text-anchor="middle" x="384" y="-7" font-family="Helvetica,sans-Serif" font-size="10.00">fmt/core.h</text>
</a>
</g>
</g>
<!-- Node3&#45;&gt;Node6 -->
<g id="edge5_Node000003_Node000006" class="edge">
<title>Node3&#45;&gt;Node6</title>
<g id="a_edge5_Node000003_Node000006"><a xlink:title=" ">
<path fill="none" stroke="#63b8ff" d="M301.75,-54.98C317.23,-46.61 341.09,-33.7 359.14,-23.95"/>
<polygon fill="#63b8ff" stroke="#63b8ff" points="360.84,-27.01 367.97,-19.17 357.51,-20.85 360.84,-27.01"/>
</a>
</g>
</g>
<!-- Node7&#45;&gt;Node3 -->
<g id="edge11_Node000007_Node000003" class="edge">
<title>Node7&#45;&gt;Node3</title>
<g id="a_edge11_Node000007_Node000003"><a xlink:title=" ">
<path fill="none" stroke="#63b8ff" d="M363.45,-219.96C359.53,-199.75 347.93,-147.86 326,-110 319.91,-99.48 311.03,-89.28 303.18,-81.31"/>
<polygon fill="#63b8ff" stroke="#63b8ff" points="305.43,-78.61 295.82,-74.15 300.55,-83.63 305.43,-78.61"/>
</a>
</g>
</g>
<!-- Node7&#45;&gt;Node6 -->
<g id="edge8_Node000007_Node000006" class="edge">
<title>Node7&#45;&gt;Node6</title>
<g id="a_edge8_Node000007_Node000006"><a xlink:title=" ">
<path fill="none" stroke="#63b8ff" d="M365.74,-219.95C368.53,-187.95 378.41,-74.68 382.35,-29.4"/>
<polygon fill="#63b8ff" stroke="#63b8ff" points="385.86,-29.49 383.24,-19.22 378.88,-28.88 385.86,-29.49"/>
</a>
</g>
</g>
<!-- Node8 -->
<g id="Node000008" class="node">
<title>Node8</title>
<g id="a_Node000008"><a xlink:title=" ">
<polygon fill="#e0e0e0" stroke="#999999" points="159,-129 117,-129 117,-110 159,-110 159,-129"/>
<text text-anchor="middle" x="138" y="-117" font-family="Helvetica,sans-Serif" font-size="10.00">array</text>
</a>
</g>
</g>
<!-- Node7&#45;&gt;Node8 -->
<g id="edge7_Node000007_Node000008" class="edge">
<title>Node7&#45;&gt;Node8</title>
<g id="a_edge7_Node000007_Node000008"><a xlink:title=" ">
<path fill="none" stroke="#63b8ff" d="M321.2,-226.23C262.17,-222.16 161.82,-211.31 139,-184 128.74,-171.72 129.79,-152.94 132.63,-138.99"/>
<polygon fill="#63b8ff" stroke="#63b8ff" points="136.09,-139.6 135.11,-129.05 129.29,-137.91 136.09,-139.6"/>
</a>
</g>
</g>
<!-- Node9 -->
<g id="Node000009" class="node">
<title>Node9</title>
<g id="a_Node000009"><a xlink:href="atom_8h.html" target="_top" xlink:title=" ">
<polygon fill="white" stroke="#666666" points="317.5,-129 222.5,-129 222.5,-110 317.5,-110 317.5,-129"/>
<text text-anchor="middle" x="270" y="-117" font-family="Helvetica,sans-Serif" font-size="10.00">occ/core/atom.h</text>
</a>
</g>
</g>
<!-- Node7&#45;&gt;Node9 -->
<g id="edge9_Node000007_Node000009" class="edge">
<title>Node7&#45;&gt;Node9</title>
<g id="a_edge9_Node000007_Node000009"><a xlink:title=" ">
<path fill="none" stroke="#63b8ff" d="M357.23,-219.66C341.28,-201.54 304.67,-159.91 284.31,-136.77"/>
<polygon fill="#63b8ff" stroke="#63b8ff" points="286.85,-134.36 277.62,-129.16 281.59,-138.98 286.85,-134.36"/>
</a>
</g>
</g>
<!-- Node10 -->
<g id="Node000010" class="node">
<title>Node10</title>
<g id="a_Node000010"><a xlink:href="point__charge_8h.html" target="_top" xlink:title=" ">
<polygon fill="white" stroke="#666666" points="280,-184 148,-184 148,-165 280,-165 280,-184"/>
<text text-anchor="middle" x="214" y="-172" font-family="Helvetica,sans-Serif" font-size="10.00">occ/core/point_charge.h</text>
</a>
</g>
</g>
<!-- Node7&#45;&gt;Node10 -->
<g id="edge12_Node000007_Node000010" class="edge">
<title>Node7&#45;&gt;Node10</title>
<g id="a_edge12_Node000007_Node000010"><a xlink:title=" ">
<path fill="none" stroke="#63b8ff" d="M340.74,-219.98C315.68,-211.19 276.37,-197.39 248.17,-187.49"/>
<polygon fill="#63b8ff" stroke="#63b8ff" points="249.3,-184.18 238.7,-184.17 246.98,-190.78 249.3,-184.18"/>
</a>
</g>
</g>
<!-- Node11 -->
<g id="Node000011" class="node">
<title>Node11</title>
<g id="a_Node000011"><a xlink:href="util_8h.html" target="_top" xlink:title=" ">
<polygon fill="white" stroke="#666666" points="749.5,-184 664.5,-184 664.5,-165 749.5,-165 749.5,-184"/>
<text text-anchor="middle" x="707" y="-172" font-family="Helvetica,sans-Serif" font-size="10.00">occ/core/util.h</text>
</a>
</g>
</g>
<!-- Node7&#45;&gt;Node11 -->
<g id="edge16_Node000007_Node000011" class="edge">
<title>Node7&#45;&gt;Node11</title>
<g id="a_edge16_Node000007_Node000011"><a xlink:title=" ">
<path fill="none" stroke="#63b8ff" d="M408.66,-221.73C471.44,-212.01 587.03,-194.09 654.42,-183.65"/>
<polygon fill="#63b8ff" stroke="#63b8ff" points="655.06,-187.09 664.4,-182.1 653.99,-180.17 655.06,-187.09"/>
</a>
</g>
</g>
<!-- Node7&#45;&gt;Node19 -->
<g id="edge27_Node000007_Node000019" class="edge">
<title>Node7&#45;&gt;Node19</title>
<g id="a_edge27_Node000007_Node000019"><a xlink:title=" ">
<path fill="none" stroke="#63b8ff" d="M371.84,-219.82C378.7,-210.98 389.46,-196.8 398,-184 408.12,-168.84 418.69,-150.99 426.11,-138.08"/>
<polygon fill="#63b8ff" stroke="#63b8ff" points="429.2,-139.72 431.1,-129.3 423.12,-136.26 429.2,-139.72"/>
</a>
</g>
</g>
<!-- Node9&#45;&gt;Node3 -->
<g id="edge10_Node000009_Node000003" class="edge">
<title>Node9&#45;&gt;Node3</title>
<g id="a_edge10_Node000009_Node000003"><a xlink:title=" ">
<path fill="none" stroke="#63b8ff" d="M272.64,-109.75C274.76,-102.72 277.81,-92.62 280.46,-83.84"/>
<polygon fill="#63b8ff" stroke="#63b8ff" points="283.87,-84.67 283.41,-74.09 277.17,-82.65 283.87,-84.67"/>
</a>
</g>
</g>
<!-- Node10&#45;&gt;Node3 -->
<g id="edge15_Node000010_Node000003" class="edge">
<title>Node10&#45;&gt;Node3</title>
<g id="a_edge15_Node000010_Node000003"><a xlink:title=" ">
<path fill="none" stroke="#63b8ff" d="M211.22,-164.61C207.72,-151.67 203.28,-127.3 213,-110 221.11,-95.56 236.01,-85.26 250.25,-78.22"/>
<polygon fill="#63b8ff" stroke="#63b8ff" points="251.77,-81.38 259.43,-74.06 248.88,-75 251.77,-81.38"/>
</a>
</g>
</g>
<!-- Node10&#45;&gt;Node8 -->
<g id="edge13_Node000010_Node000008" class="edge">
<title>Node10&#45;&gt;Node8</title>
<g id="a_edge13_Node000010_Node000008"><a xlink:title=" ">
<path fill="none" stroke="#63b8ff" d="M201.79,-164.98C190.22,-156.92 172.62,-144.65 158.84,-135.03"/>
<polygon fill="#63b8ff" stroke="#63b8ff" points="160.64,-132.02 150.43,-129.17 156.63,-137.76 160.64,-132.02"/>
</a>
</g>
</g>
<!-- Node10&#45;&gt;Node9 -->
<g id="edge14_Node000010_Node000009" class="edge">
<title>Node10&#45;&gt;Node9</title>
<g id="a_edge14_Node000010_Node000009"><a xlink:title=" ">
<path fill="none" stroke="#63b8ff" d="M223,-164.98C231.19,-157.23 243.51,-145.58 253.47,-136.14"/>
<polygon fill="#63b8ff" stroke="#63b8ff" points="255.98,-138.59 260.84,-129.17 251.17,-133.5 255.98,-138.59"/>
</a>
</g>
</g>
<!-- Node11&#45;&gt;Node3 -->
<g id="edge24_Node000011_Node000003" class="edge">
<title>Node11&#45;&gt;Node3</title>
<g id="a_edge24_Node000011_Node000003"><a xlink:title=" ">
<path fill="none" stroke="#63b8ff" d="M680.51,-164.9C654.66,-156.34 614.33,-142.57 580,-129 560.57,-121.32 556.99,-116.09 537,-110 480.96,-92.92 415.76,-81.61 365.86,-74.66"/>
<polygon fill="#63b8ff" stroke="#63b8ff" points="366.15,-71.17 355.77,-73.29 365.21,-78.11 366.15,-71.17"/>
</a>
</g>
</g>
<!-- Node11&#45;&gt;Node6 -->
<g id="edge20_Node000011_Node000006" class="edge">
<title>Node11&#45;&gt;Node6</title>
<g id="a_edge20_Node000011_Node000006"><a xlink:title=" ">
<path fill="none" stroke="#63b8ff" d="M688.54,-164.99C669.51,-156.18 639.05,-141.9 613,-129 538.2,-91.95 450.86,-46 408.95,-23.78"/>
<polygon fill="#63b8ff" stroke="#63b8ff" points="410.48,-20.63 400,-19.03 407.19,-26.81 410.48,-20.63"/>
</a>
</g>
</g>
<!-- Node12 -->
<g id="Node000012" class="node">
<title>Node12</title>
<g id="a_Node000012"><a xlink:title=" ">
<polygon fill="#e0e0e0" stroke="#999999" points="928,-129 864,-129 864,-110 928,-110 928,-129"/>
<text text-anchor="middle" x="896" y="-117" font-family="Helvetica,sans-Serif" font-size="10.00">algorithm</text>
</a>
</g>
</g>
<!-- Node11&#45;&gt;Node12 -->
<g id="edge17_Node000011_Node000012" class="edge">
<title>Node11&#45;&gt;Node12</title>
<g id="a_edge17_Node000011_Node000012"><a xlink:title=" ">
<path fill="none" stroke="#63b8ff" d="M737.37,-164.98C769.37,-156.01 819.96,-141.82 855.38,-131.89"/>
<polygon fill="#63b8ff" stroke="#63b8ff" points="856.71,-135.15 865.4,-129.08 854.82,-128.41 856.71,-135.15"/>
</a>
</g>
</g>
<!-- Node13 -->
<g id="Node000013" class="node">
<title>Node13</title>
<g id="a_Node000013"><a xlink:title=" ">
<polygon fill="#e0e0e0" stroke="#999999" points="995.5,-129 946.5,-129 946.5,-110 995.5,-110 995.5,-129"/>
<text text-anchor="middle" x="971" y="-117" font-family="Helvetica,sans-Serif" font-size="10.00">cctype</text>
</a>
</g>
</g>
<!-- Node11&#45;&gt;Node13 -->
<g id="edge18_Node000011_Node000013" class="edge">
<title>Node11&#45;&gt;Node13</title>
<g id="a_edge18_Node000011_Node000013"><a xlink:title=" ">
<path fill="none" stroke="#63b8ff" d="M749.53,-165.98C793.72,-158.01 865.1,-144.69 936.14,-129.09"/>
<polygon fill="#63b8ff" stroke="#63b8ff" points="937.15,-132.45 946.15,-126.88 935.63,-125.62 937.15,-132.45"/>
</a>
</g>
</g>
<!-- Node14 -->
<g id="Node000014" class="node">
<title>Node14</title>
<g id="a_Node000014"><a xlink:title=" ">
<polygon fill="#e0e0e0" stroke="#999999" points="528,-129 478,-129 478,-110 528,-110 528,-129"/>
<text text-anchor="middle" x="503" y="-117" font-family="Helvetica,sans-Serif" font-size="10.00">chrono</text>
</a>
</g>
</g>
<!-- Node11&#45;&gt;Node14 -->
<g id="edge19_Node000011_Node000014" class="edge">
<title>Node11&#45;&gt;Node14</title>
<g id="a_edge19_Node000011_Node000014"><a xlink:title=" ">
<path fill="none" stroke="#63b8ff" d="M674.22,-164.98C637.06,-155.33 576.68,-139.64 538.44,-129.71"/>
<polygon fill="#63b8ff" stroke="#63b8ff" points="538.84,-126.2 528.28,-127.07 537.08,-132.97 538.84,-126.2"/>
</a>
</g>
</g>
<!-- Node15 -->
<g id="Node000015" class="node">
<title>Node15</title>
<g id="a_Node000015"><a xlink:title=" ">
<polygon fill="#e0e0e0" stroke="#999999" points="708,-129 622,-129 622,-110 708,-110 708,-129"/>
<text text-anchor="middle" x="665" y="-117" font-family="Helvetica,sans-Serif" font-size="10.00">fmt/ostream.h</text>
</a>
</g>
</g>
<!-- Node11&#45;&gt;Node15 -->
<g id="edge21_Node000011_Node000015" class="edge">
<title>Node11&#45;&gt;Node15</title>
<g id="a_edge21_Node000011_Node000015"><a xlink:title=" ">
<path fill="none" stroke="#63b8ff" d="M700.06,-164.75C694.13,-157.26 685.43,-146.28 678.18,-137.13"/>
<polygon fill="#63b8ff" stroke="#63b8ff" points="680.76,-134.75 671.81,-129.09 675.27,-139.1 680.76,-134.75"/>
</a>
</g>
</g>
<!-- Node16 -->
<g id="Node000016" class="node">
<title>Node16</title>
<g id="a_Node000016"><a xlink:title=" ">
<polygon fill="#e0e0e0" stroke="#999999" points="772,-129 726,-129 726,-110 772,-110 772,-129"/>
<text text-anchor="middle" x="749" y="-117" font-family="Helvetica,sans-Serif" font-size="10.00">locale</text>
</a>
</g>
</g>
<!-- Node11&#45;&gt;Node16 -->
<g id="edge22_Node000011_Node000016" class="edge">
<title>Node11&#45;&gt;Node16</title>
<g id="a_edge22_Node000011_Node000016"><a xlink:title=" ">
<path fill="none" stroke="#63b8ff" d="M713.94,-164.75C719.87,-157.26 728.57,-146.28 735.82,-137.13"/>
<polygon fill="#63b8ff" stroke="#63b8ff" points="738.73,-139.1 742.19,-129.09 733.24,-134.75 738.73,-139.1"/>
</a>
</g>
</g>
<!-- Node17 -->
<g id="Node000017" class="node">
<title>Node17</title>
<g id="a_Node000017"><a xlink:title=" ">
<polygon fill="#e0e0e0" stroke="#999999" points="846,-129 790,-129 790,-110 846,-110 846,-129"/>
<text text-anchor="middle" x="818" y="-117" font-family="Helvetica,sans-Serif" font-size="10.00">numeric</text>
</a>
</g>
</g>
<!-- Node11&#45;&gt;Node17 -->
<g id="edge23_Node000011_Node000017" class="edge">
<title>Node11&#45;&gt;Node17</title>
<g id="a_edge23_Node000011_Node000017"><a xlink:title=" ">
<path fill="none" stroke="#63b8ff" d="M724.83,-164.98C742.61,-156.5 770.15,-143.35 790.68,-133.54"/>
<polygon fill="#63b8ff" stroke="#63b8ff" points="792.33,-136.64 799.84,-129.17 789.31,-130.32 792.33,-136.64"/>
</a>
</g>
</g>
<!-- Node11&#45;&gt;Node18 -->
<g id="edge25_Node000011_Node000018" class="edge">
<title>Node11&#45;&gt;Node18</title>
<g id="a_edge25_Node000011_Node000018"><a xlink:title=" ">
<path fill="none" stroke="#63b8ff" d="M749.72,-168.75C805.92,-162.14 907.86,-148.92 1003.86,-129.02"/>
<polygon fill="#63b8ff" stroke="#63b8ff" points="1004.66,-132.43 1013.73,-126.95 1003.22,-125.58 1004.66,-132.43"/>
</a>
</g>
</g>
<!-- Node11&#45;&gt;Node19 -->
<g id="edge26_Node000011_Node000019" class="edge">
<title>Node11&#45;&gt;Node19</title>
<g id="a_edge26_Node000011_Node000019"><a xlink:title=" ">
<path fill="none" stroke="#63b8ff" d="M664.26,-166.4C618.54,-158.61 543.69,-145.29 469.71,-129.03"/>
<polygon fill="#63b8ff" stroke="#63b8ff" points="470.27,-125.57 459.75,-126.82 468.75,-132.4 470.27,-125.57"/>
</a>
</g>
</g>
<!-- Node20&#45;&gt;Node3 -->
<g id="edge29_Node000020_Node000003" class="edge">
<title>Node20&#45;&gt;Node3</title>
<g id="a_edge29_Node000020_Node000003"><a xlink:title=" ">
<path fill="none" stroke="#63b8ff" d="M871.96,-219.65C872.4,-205.84 875.38,-179.29 891,-165 951.47,-109.69 1123.28,-169.57 1067,-110 1043.18,-84.78 559.77,-71.47 365.65,-67.12"/>
<polygon fill="#63b8ff" stroke="#63b8ff" points="365.59,-63.62 355.52,-66.9 365.44,-70.62 365.59,-63.62"/>
</a>
</g>
</g>
<!-- Node20&#45;&gt;Node11 -->
<g id="edge30_Node000020_Node000011" class="edge">
<title>Node20&#45;&gt;Node11</title>
<g id="a_edge30_Node000020_Node000011"><a xlink:title=" ">
<path fill="none" stroke="#63b8ff" d="M845.49,-219.98C817.79,-211.09 774.14,-197.07 743.26,-187.15"/>
<polygon fill="#63b8ff" stroke="#63b8ff" points="744.31,-183.81 733.72,-184.08 742.17,-190.47 744.31,-183.81"/>
</a>
</g>
</g>
<!-- Node21 -->
<g id="Node000021" class="node">
<title>Node21</title>
<g id="a_Node000021"><a xlink:href="qm_2opmatrix_8h.html" target="_top" xlink:title=" ">
<polygon fill="white" stroke="#666666" points="1008,-184 900,-184 900,-165 1008,-165 1008,-184"/>
<text text-anchor="middle" x="954" y="-172" font-family="Helvetica,sans-Serif" font-size="10.00">occ/qm/opmatrix.h</text>
</a>
</g>
</g>
<!-- Node20&#45;&gt;Node21 -->
<g id="edge31_Node000020_Node000021" class="edge">
<title>Node20&#45;&gt;Node21</title>
<g id="a_edge31_Node000020_Node000021"><a xlink:title=" ">
<path fill="none" stroke="#63b8ff" d="M880.06,-219.98C891.06,-211.69 910.49,-198.94 926.78,-189.22"/>
<polygon fill="#63b8ff" stroke="#63b8ff" points="928.56,-192.23 935.44,-184.17 925.03,-186.18 928.56,-192.23"/>
</a>
</g>
</g>
<!-- Node21&#45;&gt;Node20 -->
<g id="edge32_Node000021_Node000020" class="edge">
<title>Node21&#45;&gt;Node20</title>
<g id="a_edge32_Node000021_Node000020"><a xlink:title=" ">
<path fill="none" stroke="#63b8ff" d="M945.73,-184.17C934.73,-192.44 915.52,-205.04 899.37,-214.7"/>
<polygon fill="#63b8ff" stroke="#63b8ff" points="897.17,-211.93 890.29,-219.98 900.69,-217.97 897.17,-211.93"/>
</a>
</g>
</g>
</g>
</svg>
