<?xml version="1.0" encoding="UTF-8" standalone="no"?>
<!DOCTYPE svg PUBLIC "-//W3C//DTD SVG 1.1//EN"
 "http://www.w3.org/Graphics/SVG/1.1/DTD/svg11.dtd">
<!-- Generated by graphviz version 2.43.0 (0)
 -->
<!-- Title: /home/runner/work/occ/occ/include/occ/io/moldenreader.h Pages: 1 -->
<svg width="1040pt" height="313pt"
 viewBox="0.00 0.00 1040.00 313.00" xmlns="http://www.w3.org/2000/svg" xmlns:xlink="http://www.w3.org/1999/xlink">
<g id="graph0" class="graph" transform="scale(1 1) rotate(0) translate(4 309)">
<title>/home/runner/work/occ/occ/include/occ/io/moldenreader.h</title>
<!-- Node1 -->
<g id="Node000001" class="node">
<title>Node1</title>
<g id="a_Node000001"><a xlink:title=" ">
<polygon fill="#999999" stroke="#666666" points="558.5,-305 373.5,-305 373.5,-275 558.5,-275 558.5,-305"/>
<text text-anchor="start" x="381.5" y="-293" font-family="Helvetica,sans-Serif" font-size="10.00">/home/runner/work/occ</text>
<text text-anchor="middle" x="466" y="-282" font-family="Helvetica,sans-Serif" font-size="10.00">/occ/include/occ/io/moldenreader.h</text>
</a>
</g>
</g>
<!-- Node2 -->
<g id="Node000002" class="node">
<title>Node2</title>
<g id="a_Node000002"><a xlink:title=" ">
<polygon fill="#e0e0e0" stroke="#999999" points="54,-239 0,-239 0,-220 54,-220 54,-239"/>
<text text-anchor="middle" x="27" y="-227" font-family="Helvetica,sans-Serif" font-size="10.00">istream</text>
</a>
</g>
</g>
<!-- Node1&#45;&gt;Node2 -->
<g id="edge1_Node000001_Node000002" class="edge">
<title>Node1&#45;&gt;Node2</title>
<g id="a_edge1_Node000001_Node000002"><a xlink:title=" ">
<path fill="none" stroke="#63b8ff" d="M373.21,-279.45C292.36,-270.63 172.08,-256.3 68,-239 66.75,-238.79 65.48,-238.57 64.2,-238.35"/>
<polygon fill="#63b8ff" stroke="#63b8ff" points="64.77,-234.89 54.29,-236.47 63.47,-241.77 64.77,-234.89"/>
</a>
</g>
</g>
<!-- Node3 -->
<g id="Node000003" class="node">
<title>Node3</title>
<g id="a_Node000003"><a xlink:href="linear__algebra_8h.html" target="_top" xlink:title=" ">
<polygon fill="white" stroke="#666666" points="355.5,-74 216.5,-74 216.5,-55 355.5,-55 355.5,-74"/>
<text text-anchor="middle" x="286" y="-62" font-family="Helvetica,sans-Serif" font-size="10.00">occ/core/linear_algebra.h</text>
</a>
</g>
</g>
<!-- Node1&#45;&gt;Node3 -->
<g id="edge2_Node000001_Node000003" class="edge">
<title>Node1&#45;&gt;Node3</title>
<g id="a_edge2_Node000001_Node000003"><a xlink:title=" ">
<path fill="none" stroke="#63b8ff" d="M373.14,-284.88C299.89,-276.28 201.44,-251.81 148,-184 127.55,-158.05 121.36,-136.57 141,-110 156.41,-89.16 181.4,-77.76 206.34,-71.63"/>
<polygon fill="#63b8ff" stroke="#63b8ff" points="207.22,-75.02 216.24,-69.46 205.72,-68.18 207.22,-75.02"/>
</a>
</g>
</g>
<!-- Node7 -->
<g id="Node000007" class="node">
<title>Node7</title>
<g id="a_Node000007"><a xlink:href="shell_8h.html" target="_top" xlink:title=" ">
<polygon fill="white" stroke="#666666" points="389.5,-239 302.5,-239 302.5,-220 389.5,-220 389.5,-239"/>
<text text-anchor="middle" x="346" y="-227" font-family="Helvetica,sans-Serif" font-size="10.00">occ/qm/shell.h</text>
</a>
</g>
</g>
<!-- Node1&#45;&gt;Node7 -->
<g id="edge6_Node000001_Node000007" class="edge">
<title>Node1&#45;&gt;Node7</title>
<g id="a_edge6_Node000001_Node000007"><a xlink:title=" ">
<path fill="none" stroke="#63b8ff" d="M437.26,-274.99C417.68,-265.45 391.95,-252.9 372.8,-243.57"/>
<polygon fill="#63b8ff" stroke="#63b8ff" points="374.24,-240.38 363.72,-239.14 371.18,-246.67 374.24,-240.38"/>
</a>
</g>
</g>
<!-- Node17 -->
<g id="Node000017" class="node">
<title>Node17</title>
<g id="a_Node000017"><a xlink:title=" ">
<polygon fill="#e0e0e0" stroke="#999999" points="1032,-129 988,-129 988,-110 1032,-110 1032,-129"/>
<text text-anchor="middle" x="1010" y="-117" font-family="Helvetica,sans-Serif" font-size="10.00">string</text>
</a>
</g>
</g>
<!-- Node1&#45;&gt;Node17 -->
<g id="edge31_Node000001_Node000017" class="edge">
<title>Node1&#45;&gt;Node17</title>
<g id="a_edge31_Node000001_Node000017"><a xlink:title=" ">
<path fill="none" stroke="#63b8ff" d="M521.88,-274.98C559.18,-265.4 609.22,-252.11 653,-239 773.89,-202.81 915.69,-153.73 977.95,-131.85"/>
<polygon fill="#63b8ff" stroke="#63b8ff" points="979.32,-135.08 987.59,-128.45 977,-128.47 979.32,-135.08"/>
</a>
</g>
</g>
<!-- Node19 -->
<g id="Node000019" class="node">
<title>Node19</title>
<g id="a_Node000019"><a xlink:href="spinorbital_8h.html" target="_top" xlink:title=" ">
<polygon fill="white" stroke="#666666" points="644,-239 528,-239 528,-220 644,-220 644,-239"/>
<text text-anchor="middle" x="586" y="-227" font-family="Helvetica,sans-Serif" font-size="10.00">occ/qm/spinorbital.h</text>
</a>
</g>
</g>
<!-- Node1&#45;&gt;Node19 -->
<g id="edge25_Node000001_Node000019" class="edge">
<title>Node1&#45;&gt;Node19</title>
<g id="a_edge25_Node000001_Node000019"><a xlink:title=" ">
<path fill="none" stroke="#63b8ff" d="M494.74,-274.99C514.32,-265.45 540.05,-252.9 559.2,-243.57"/>
<polygon fill="#63b8ff" stroke="#63b8ff" points="560.82,-246.67 568.28,-239.14 557.76,-240.38 560.82,-246.67"/>
</a>
</g>
</g>
<!-- Node21 -->
<g id="Node000021" class="node">
<title>Node21</title>
<g id="a_Node000021"><a xlink:title=" ">
<polygon fill="#e0e0e0" stroke="#999999" points="867,-239 811,-239 811,-220 867,-220 867,-239"/>
<text text-anchor="middle" x="839" y="-227" font-family="Helvetica,sans-Serif" font-size="10.00">optional</text>
</a>
</g>
</g>
<!-- Node1&#45;&gt;Node21 -->
<g id="edge30_Node000001_Node000021" class="edge">
<title>Node1&#45;&gt;Node21</title>
<g id="a_edge30_Node000001_Node000021"><a xlink:title=" ">
<path fill="none" stroke="#63b8ff" d="M558.59,-276.27C625.07,-266.83 716.73,-253.18 797,-239 798.1,-238.81 799.21,-238.61 800.34,-238.4"/>
<polygon fill="#63b8ff" stroke="#63b8ff" points="801.4,-241.76 810.57,-236.45 800.09,-234.88 801.4,-241.76"/>
</a>
</g>
</g>
<!-- Node4 -->
<g id="Node000004" class="node">
<title>Node4</title>
<g id="a_Node000004"><a xlink:title=" ">
<polygon fill="#e0e0e0" stroke="#999999" points="221.5,-19 144.5,-19 144.5,0 221.5,0 221.5,-19"/>
<text text-anchor="middle" x="183" y="-7" font-family="Helvetica,sans-Serif" font-size="10.00">Eigen/Dense</text>
</a>
</g>
</g>
<!-- Node3&#45;&gt;Node4 -->
<g id="edge3_Node000003_Node000004" class="edge">
<title>Node3&#45;&gt;Node4</title>
<g id="a_edge3_Node000003_Node000004"><a xlink:title=" ">
<path fill="none" stroke="#63b8ff" d="M269.45,-54.98C253.11,-46.57 227.87,-33.59 208.87,-23.81"/>
<polygon fill="#63b8ff" stroke="#63b8ff" points="210.34,-20.63 199.85,-19.17 207.14,-26.86 210.34,-20.63"/>
</a>
</g>
</g>
<!-- Node5 -->
<g id="Node000005" class="node">
<title>Node5</title>
<g id="a_Node000005"><a xlink:title=" ">
<polygon fill="#e0e0e0" stroke="#999999" points="332.5,-19 239.5,-19 239.5,0 332.5,0 332.5,-19"/>
<text text-anchor="middle" x="286" y="-7" font-family="Helvetica,sans-Serif" font-size="10.00">Eigen/StdVector</text>
</a>
</g>
</g>
<!-- Node3&#45;&gt;Node5 -->
<g id="edge4_Node000003_Node000005" class="edge">
<title>Node3&#45;&gt;Node5</title>
<g id="a_edge4_Node000003_Node000005"><a xlink:title=" ">
<path fill="none" stroke="#63b8ff" d="M286,-54.75C286,-47.8 286,-37.85 286,-29.13"/>
<polygon fill="#63b8ff" stroke="#63b8ff" points="289.5,-29.09 286,-19.09 282.5,-29.09 289.5,-29.09"/>
</a>
</g>
</g>
<!-- Node6 -->
<g id="Node000006" class="node">
<title>Node6</title>
<g id="a_Node000006"><a xlink:title=" ">
<polygon fill="#e0e0e0" stroke="#999999" points="417.5,-19 350.5,-19 350.5,0 417.5,0 417.5,-19"/>
<text text-anchor="middle" x="384" y="-7" font-family="Helvetica,sans-Serif" font-size="10.00">fmt/core.h</text>
</a>
</g>
</g>
<!-- Node3&#45;&gt;Node6 -->
<g id="edge5_Node000003_Node000006" class="edge">
<title>Node3&#45;&gt;Node6</title>
<g id="a_edge5_Node000003_Node000006"><a xlink:title=" ">
<path fill="none" stroke="#63b8ff" d="M301.75,-54.98C317.23,-46.61 341.09,-33.7 359.14,-23.95"/>
<polygon fill="#63b8ff" stroke="#63b8ff" points="360.84,-27.01 367.97,-19.17 357.51,-20.85 360.84,-27.01"/>
</a>
</g>
</g>
<!-- Node7&#45;&gt;Node3 -->
<g id="edge11_Node000007_Node000003" class="edge">
<title>Node7&#45;&gt;Node3</title>
<g id="a_edge11_Node000007_Node000003"><a xlink:title=" ">
<path fill="none" stroke="#63b8ff" d="M302.11,-222.88C255.4,-216 185.68,-202.9 167,-184 143.52,-160.25 134.52,-137.12 154,-110 166.54,-92.53 186.3,-81.83 206.74,-75.3"/>
<polygon fill="#63b8ff" stroke="#63b8ff" points="207.84,-78.63 216.48,-72.51 205.9,-71.9 207.84,-78.63"/>
</a>
</g>
</g>
<!-- Node7&#45;&gt;Node6 -->
<g id="edge8_Node000007_Node000006" class="edge">
<title>Node7&#45;&gt;Node6</title>
<g id="a_edge8_Node000007_Node000006"><a xlink:title=" ">
<path fill="none" stroke="#63b8ff" d="M347.49,-219.95C353.08,-187.88 372.9,-74.2 380.76,-29.12"/>
<polygon fill="#63b8ff" stroke="#63b8ff" points="384.21,-29.68 382.48,-19.22 377.31,-28.47 384.21,-29.68"/>
</a>
</g>
</g>
<!-- Node8 -->
<g id="Node000008" class="node">
<title>Node8</title>
<g id="a_Node000008"><a xlink:title=" ">
<polygon fill="#e0e0e0" stroke="#999999" points="205,-129 163,-129 163,-110 205,-110 205,-129"/>
<text text-anchor="middle" x="184" y="-117" font-family="Helvetica,sans-Serif" font-size="10.00">array</text>
</a>
</g>
</g>
<!-- Node7&#45;&gt;Node8 -->
<g id="edge7_Node000007_Node000008" class="edge">
<title>Node7&#45;&gt;Node8</title>
<g id="a_edge7_Node000007_Node000008"><a xlink:title=" ">
<path fill="none" stroke="#63b8ff" d="M302.09,-223.02C257.27,-216.43 192.19,-203.71 177,-184 167.18,-171.26 170.73,-152.57 175.66,-138.77"/>
<polygon fill="#63b8ff" stroke="#63b8ff" points="178.97,-139.92 179.49,-129.34 172.48,-137.29 178.97,-139.92"/>
</a>
</g>
</g>
<!-- Node9 -->
<g id="Node000009" class="node">
<title>Node9</title>
<g id="a_Node000009"><a xlink:href="atom_8h.html" target="_top" xlink:title=" ">
<polygon fill="white" stroke="#666666" points="333.5,-129 238.5,-129 238.5,-110 333.5,-110 333.5,-129"/>
<text text-anchor="middle" x="286" y="-117" font-family="Helvetica,sans-Serif" font-size="10.00">occ/core/atom.h</text>
</a>
</g>
</g>
<!-- Node7&#45;&gt;Node9 -->
<g id="edge9_Node000007_Node000009" class="edge">
<title>Node7&#45;&gt;Node9</title>
<g id="a_edge9_Node000007_Node000009"><a xlink:title=" ">
<path fill="none" stroke="#63b8ff" d="M344.68,-219.79C342.48,-207.08 337.25,-183 327,-165 320.86,-154.21 311.64,-143.89 303.51,-135.92"/>
<polygon fill="#63b8ff" stroke="#63b8ff" points="305.86,-133.33 296.17,-129.05 301.08,-138.44 305.86,-133.33"/>
</a>
</g>
</g>
<!-- Node10 -->
<g id="Node000010" class="node">
<title>Node10</title>
<g id="a_Node000010"><a xlink:href="point__charge_8h.html" target="_top" xlink:title=" ">
<polygon fill="white" stroke="#666666" points="318,-184 186,-184 186,-165 318,-165 318,-184"/>
<text text-anchor="middle" x="252" y="-172" font-family="Helvetica,sans-Serif" font-size="10.00">occ/core/point_charge.h</text>
</a>
</g>
</g>
<!-- Node7&#45;&gt;Node10 -->
<g id="edge12_Node000007_Node000010" class="edge">
<title>Node7&#45;&gt;Node10</title>
<g id="a_edge12_Node000007_Node000010"><a xlink:title=" ">
<path fill="none" stroke="#63b8ff" d="M330.9,-219.98C316.18,-211.69 293.58,-198.94 276.33,-189.22"/>
<polygon fill="#63b8ff" stroke="#63b8ff" points="277.81,-186.03 267.38,-184.17 274.37,-192.13 277.81,-186.03"/>
</a>
</g>
</g>
<!-- Node11 -->
<g id="Node000011" class="node">
<title>Node11</title>
<g id="a_Node000011"><a xlink:href="util_8h.html" target="_top" xlink:title=" ">
<polygon fill="white" stroke="#666666" points="628.5,-184 543.5,-184 543.5,-165 628.5,-165 628.5,-184"/>
<text text-anchor="middle" x="586" y="-172" font-family="Helvetica,sans-Serif" font-size="10.00">occ/core/util.h</text>
</a>
</g>
</g>
<!-- Node7&#45;&gt;Node11 -->
<g id="edge15_Node000007_Node000011" class="edge">
<title>Node7&#45;&gt;Node11</title>
<g id="a_edge15_Node000007_Node000011"><a xlink:title=" ">
<path fill="none" stroke="#63b8ff" d="M384.56,-219.98C426.07,-210.82 492.21,-196.21 537.29,-186.26"/>
<polygon fill="#63b8ff" stroke="#63b8ff" points="538.13,-189.66 547.14,-184.08 536.62,-182.82 538.13,-189.66"/>
</a>
</g>
</g>
<!-- Node9&#45;&gt;Node3 -->
<g id="edge10_Node000009_Node000003" class="edge">
<title>Node9&#45;&gt;Node3</title>
<g id="a_edge10_Node000009_Node000003"><a xlink:title=" ">
<path fill="none" stroke="#63b8ff" d="M286,-109.75C286,-102.8 286,-92.85 286,-84.13"/>
<polygon fill="#63b8ff" stroke="#63b8ff" points="289.5,-84.09 286,-74.09 282.5,-84.09 289.5,-84.09"/>
</a>
</g>
</g>
<!-- Node10&#45;&gt;Node8 -->
<g id="edge13_Node000010_Node000008" class="edge">
<title>Node10&#45;&gt;Node8</title>
<g id="a_edge13_Node000010_Node000008"><a xlink:title=" ">
<path fill="none" stroke="#63b8ff" d="M241.07,-164.98C230.92,-157.07 215.58,-145.11 203.35,-135.58"/>
<polygon fill="#63b8ff" stroke="#63b8ff" points="205.16,-132.56 195.12,-129.17 200.86,-138.08 205.16,-132.56"/>
</a>
</g>
</g>
<!-- Node10&#45;&gt;Node9 -->
<g id="edge14_Node000010_Node000009" class="edge">
<title>Node10&#45;&gt;Node9</title>
<g id="a_edge14_Node000010_Node000009"><a xlink:title=" ">
<path fill="none" stroke="#63b8ff" d="M257.61,-164.75C262.32,-157.42 269.17,-146.73 274.97,-137.7"/>
<polygon fill="#63b8ff" stroke="#63b8ff" points="278.04,-139.4 280.49,-129.09 272.14,-135.62 278.04,-139.4"/>
</a>
</g>
</g>
<!-- Node11&#45;&gt;Node3 -->
<g id="edge22_Node000011_Node000003" class="edge">
<title>Node11&#45;&gt;Node3</title>
<g id="a_edge22_Node000011_Node000003"><a xlink:title=" ">
<path fill="none" stroke="#63b8ff" d="M565.03,-164.94C543.42,-156.08 508.77,-141.77 479,-129 459.8,-120.77 455.61,-117.21 436,-110 400.5,-96.95 359.23,-84.93 328.98,-76.68"/>
<polygon fill="#63b8ff" stroke="#63b8ff" points="329.73,-73.26 319.17,-74.03 327.91,-80.02 329.73,-73.26"/>
</a>
</g>
</g>
<!-- Node11&#45;&gt;Node6 -->
<g id="edge19_Node000011_Node000006" class="edge">
<title>Node11&#45;&gt;Node6</title>
<g id="a_edge19_Node000011_Node000006"><a xlink:title=" ">
<path fill="none" stroke="#63b8ff" d="M628.54,-166.39C631.74,-165.9 634.92,-165.43 638,-165 705.76,-155.44 984.93,-162.47 941,-110 875.35,-31.59 548.02,-14.9 428.11,-11.41"/>
<polygon fill="#63b8ff" stroke="#63b8ff" points="427.93,-7.9 417.84,-11.13 427.74,-14.9 427.93,-7.9"/>
</a>
</g>
</g>
<!-- Node12 -->
<g id="Node000012" class="node">
<title>Node12</title>
<g id="a_Node000012"><a xlink:title=" ">
<polygon fill="#e0e0e0" stroke="#999999" points="618,-129 554,-129 554,-110 618,-110 618,-129"/>
<text text-anchor="middle" x="586" y="-117" font-family="Helvetica,sans-Serif" font-size="10.00">algorithm</text>
</a>
</g>
</g>
<!-- Node11&#45;&gt;Node12 -->
<g id="edge16_Node000011_Node000012" class="edge">
<title>Node11&#45;&gt;Node12</title>
<g id="a_edge16_Node000011_Node000012"><a xlink:title=" ">
<path fill="none" stroke="#63b8ff" d="M586,-164.75C586,-157.8 586,-147.85 586,-139.13"/>
<polygon fill="#63b8ff" stroke="#63b8ff" points="589.5,-139.09 586,-129.09 582.5,-139.09 589.5,-139.09"/>
</a>
</g>
</g>
<!-- Node13 -->
<g id="Node000013" class="node">
<title>Node13</title>
<g id="a_Node000013"><a xlink:title=" ">
<polygon fill="#e0e0e0" stroke="#999999" points="685.5,-129 636.5,-129 636.5,-110 685.5,-110 685.5,-129"/>
<text text-anchor="middle" x="661" y="-117" font-family="Helvetica,sans-Serif" font-size="10.00">cctype</text>
</a>
</g>
</g>
<!-- Node11&#45;&gt;Node13 -->
<g id="edge17_Node000011_Node000013" class="edge">
<title>Node11&#45;&gt;Node13</title>
<g id="a_edge17_Node000011_Node000013"><a xlink:title=" ">
<path fill="none" stroke="#63b8ff" d="M598.05,-164.98C609.46,-156.92 626.83,-144.65 640.43,-135.03"/>
<polygon fill="#63b8ff" stroke="#63b8ff" points="642.58,-137.8 648.73,-129.17 638.54,-132.08 642.58,-137.8"/>
</a>
</g>
</g>
<!-- Node14 -->
<g id="Node000014" class="node">
<title>Node14</title>
<g id="a_Node000014"><a xlink:title=" ">
<polygon fill="#e0e0e0" stroke="#999999" points="754,-129 704,-129 704,-110 754,-110 754,-129"/>
<text text-anchor="middle" x="729" y="-117" font-family="Helvetica,sans-Serif" font-size="10.00">chrono</text>
</a>
</g>
</g>
<!-- Node11&#45;&gt;Node14 -->
<g id="edge18_Node000011_Node000014" class="edge">
<title>Node11&#45;&gt;Node14</title>
<g id="a_edge18_Node000011_Node000014"><a xlink:title=" ">
<path fill="none" stroke="#63b8ff" d="M608.98,-164.98C632.5,-156.27 669.29,-142.63 695.94,-132.75"/>
<polygon fill="#63b8ff" stroke="#63b8ff" points="697.45,-135.93 705.61,-129.17 695.01,-129.36 697.45,-135.93"/>
</a>
</g>
</g>
<!-- Node15 -->
<g id="Node000015" class="node">
<title>Node15</title>
<g id="a_Node000015"><a xlink:title=" ">
<polygon fill="#e0e0e0" stroke="#999999" points="858,-129 772,-129 772,-110 858,-110 858,-129"/>
<text text-anchor="middle" x="815" y="-117" font-family="Helvetica,sans-Serif" font-size="10.00">fmt/ostream.h</text>
</a>
</g>
</g>
<!-- Node11&#45;&gt;Node15 -->
<g id="edge20_Node000011_Node000015" class="edge">
<title>Node11&#45;&gt;Node15</title>
<g id="a_edge20_Node000011_Node000015"><a xlink:title=" ">
<path fill="none" stroke="#63b8ff" d="M622.79,-164.98C662.24,-155.86 724.98,-141.33 767.98,-131.38"/>
<polygon fill="#63b8ff" stroke="#63b8ff" points="768.97,-134.75 777.92,-129.08 767.39,-127.93 768.97,-134.75"/>
</a>
</g>
</g>
<!-- Node16 -->
<g id="Node000016" class="node">
<title>Node16</title>
<g id="a_Node000016"><a xlink:title=" ">
<polygon fill="#e0e0e0" stroke="#999999" points="932,-129 876,-129 876,-110 932,-110 932,-129"/>
<text text-anchor="middle" x="904" y="-117" font-family="Helvetica,sans-Serif" font-size="10.00">numeric</text>
</a>
</g>
</g>
<!-- Node11&#45;&gt;Node16 -->
<g id="edge21_Node000011_Node000016" class="edge">
<title>Node11&#45;&gt;Node16</title>
<g id="a_edge21_Node000011_Node000016"><a xlink:title=" ">
<path fill="none" stroke="#63b8ff" d="M628.56,-166.52C631.76,-166 634.93,-165.49 638,-165 736.55,-149.2 764.14,-148.57 865.7,-129.14"/>
<polygon fill="#63b8ff" stroke="#63b8ff" points="866.6,-132.53 875.76,-127.2 865.28,-125.66 866.6,-132.53"/>
</a>
</g>
</g>
<!-- Node11&#45;&gt;Node17 -->
<g id="edge23_Node000011_Node000017" class="edge">
<title>Node11&#45;&gt;Node17</title>
<g id="a_edge23_Node000011_Node000017"><a xlink:title=" ">
<path fill="none" stroke="#63b8ff" d="M628.54,-166.35C631.74,-165.87 634.92,-165.42 638,-165 786.83,-144.88 825.96,-154.31 974,-129 975.25,-128.79 976.51,-128.56 977.79,-128.31"/>
<polygon fill="#63b8ff" stroke="#63b8ff" points="978.56,-131.73 987.62,-126.24 977.11,-124.88 978.56,-131.73"/>
</a>
</g>
</g>
<!-- Node18 -->
<g id="Node000018" class="node">
<title>Node18</title>
<g id="a_Node000018"><a xlink:title=" ">
<polygon fill="#e0e0e0" stroke="#999999" points="535.5,-129 488.5,-129 488.5,-110 535.5,-110 535.5,-129"/>
<text text-anchor="middle" x="512" y="-117" font-family="Helvetica,sans-Serif" font-size="10.00">vector</text>
</a>
</g>
</g>
<!-- Node11&#45;&gt;Node18 -->
<g id="edge24_Node000011_Node000018" class="edge">
<title>Node11&#45;&gt;Node18</title>
<g id="a_edge24_Node000011_Node000018"><a xlink:title=" ">
<path fill="none" stroke="#63b8ff" d="M574.11,-164.98C562.85,-156.92 545.71,-144.65 532.29,-135.03"/>
<polygon fill="#63b8ff" stroke="#63b8ff" points="534.27,-132.15 524.11,-129.17 530.2,-137.84 534.27,-132.15"/>
</a>
</g>
</g>
<!-- Node19&#45;&gt;Node3 -->
<g id="edge26_Node000019_Node000003" class="edge">
<title>Node19&#45;&gt;Node3</title>
<g id="a_edge26_Node000019_Node000003"><a xlink:title=" ">
<path fill="none" stroke="#63b8ff" d="M570.29,-219.97C521.3,-193.35 370.98,-111.67 311.05,-79.11"/>
<polygon fill="#63b8ff" stroke="#63b8ff" points="312.37,-75.85 301.91,-74.15 309.03,-82 312.37,-75.85"/>
</a>
</g>
</g>
<!-- Node19&#45;&gt;Node11 -->
<g id="edge27_Node000019_Node000011" class="edge">
<title>Node19&#45;&gt;Node11</title>
<g id="a_edge27_Node000019_Node000011"><a xlink:title=" ">
<path fill="none" stroke="#63b8ff" d="M586,-219.75C586,-212.8 586,-202.85 586,-194.13"/>
<polygon fill="#63b8ff" stroke="#63b8ff" points="589.5,-194.09 586,-184.09 582.5,-194.09 589.5,-194.09"/>
</a>
</g>
</g>
<!-- Node20 -->
<g id="Node000020" class="node">
<title>Node20</title>
<g id="a_Node000020"><a xlink:href="qm_2opmatrix_8h.html" target="_top" xlink:title=" ">
<polygon fill="white" stroke="#666666" points="755,-184 647,-184 647,-165 755,-165 755,-184"/>
<text text-anchor="middle" x="701" y="-172" font-family="Helvetica,sans-Serif" font-size="10.00">occ/qm/opmatrix.h</text>
</a>
</g>
</g>
<!-- Node19&#45;&gt;Node20 -->
<g id="edge28_Node000019_Node000020" class="edge">
<title>Node19&#45;&gt;Node20</title>
<g id="a_edge28_Node000019_Node000020"><a xlink:title=" ">
<path fill="none" stroke="#63b8ff" d="M599.36,-219.98C616.13,-211.38 644.94,-197.99 667.7,-188.15"/>
<polygon fill="#63b8ff" stroke="#63b8ff" points="669.21,-191.31 677.04,-184.17 666.47,-184.87 669.21,-191.31"/>
</a>
</g>
</g>
<!-- Node20&#45;&gt;Node19 -->
<g id="edge29_Node000020_Node000019" class="edge">
<title>Node20&#45;&gt;Node19</title>
<g id="a_edge29_Node000020_Node000019"><a xlink:title=" ">
<path fill="none" stroke="#63b8ff" d="M687.34,-184.17C670.42,-192.83 641.58,-206.23 618.89,-216.03"/>
<polygon fill="#63b8ff" stroke="#63b8ff" points="617.42,-212.85 609.59,-219.98 620.16,-219.29 617.42,-212.85"/>
</a>
</g>
</g>
</g>
</svg>
