<?xml version="1.0" encoding="UTF-8" standalone="no"?>
<!DOCTYPE svg PUBLIC "-//W3C//DTD SVG 1.1//EN"
 "http://www.w3.org/Graphics/SVG/1.1/DTD/svg11.dtd">
<!-- Generated by graphviz version 2.43.0 (0)
 -->
<!-- Title: /home/runner/work/occ/occ/include/occ/main/monomer_wavefunctions.h Pages: 1 -->
<svg width="1772pt" height="442pt"
 viewBox="0.00 0.00 1772.00 442.00" xmlns="http://www.w3.org/2000/svg" xmlns:xlink="http://www.w3.org/1999/xlink">
<g id="graph0" class="graph" transform="scale(1 1) rotate(0) translate(4 438)">
<title>/home/runner/work/occ/occ/include/occ/main/monomer_wavefunctions.h</title>
<!-- Node1 -->
<g id="node1" class="node">
<title>Node1</title>
<g id="a_node1"><a xlink:title=" ">
<polygon fill="#bfbfbf" stroke="black" points="905,-392.5 905,-433.5 1057,-433.5 1057,-392.5 905,-392.5"/>
<text text-anchor="start" x="913" y="-421.5" font-family="Helvetica,sans-Serif" font-size="10.00">/home/runner/work/occ</text>
<text text-anchor="start" x="913" y="-410.5" font-family="Helvetica,sans-Serif" font-size="10.00">/occ/include/occ/main</text>
<text text-anchor="middle" x="981" y="-399.5" font-family="Helvetica,sans-Serif" font-size="10.00">/monomer_wavefunctions.h</text>
</a>
</g>
</g>
<!-- Node2 -->
<g id="node2" class="node">
<title>Node2</title>
<g id="a_node2"><a xlink:href="molecule_8h.html" target="_top" xlink:title=" ">
<polygon fill="none" stroke="black" points="1395,-224.5 1395,-243.5 1509,-243.5 1509,-224.5 1395,-224.5"/>
<text text-anchor="middle" x="1452" y="-231.5" font-family="Helvetica,sans-Serif" font-size="10.00">occ/core/molecule.h</text>
</a>
</g>
</g>
<!-- Node1&#45;&gt;Node2 -->
<g id="edge1" class="edge">
<title>Node1&#45;&gt;Node2</title>
<path fill="none" stroke="midnightblue" d="M1033.2,-392.38C1131.05,-355.61 1339.38,-277.32 1419.59,-247.18"/>
<polygon fill="midnightblue" stroke="midnightblue" points="1421.03,-250.38 1429.16,-243.58 1418.57,-243.83 1421.03,-250.38"/>
</g>
<!-- Node13 -->
<g id="node13" class="node">
<title>Node13</title>
<g id="a_node13"><a xlink:href="wavefunction_8h.html" target="_top" xlink:title=" ">
<polygon fill="none" stroke="black" points="785,-336.5 785,-355.5 915,-355.5 915,-336.5 785,-336.5"/>
<text text-anchor="middle" x="850" y="-343.5" font-family="Helvetica,sans-Serif" font-size="10.00">occ/qm/wavefunction.h</text>
</a>
</g>
</g>
<!-- Node1&#45;&gt;Node13 -->
<g id="edge13" class="edge">
<title>Node1&#45;&gt;Node13</title>
<path fill="none" stroke="midnightblue" d="M941.7,-392.5C920.65,-382.05 895.27,-369.46 876.56,-360.18"/>
<polygon fill="midnightblue" stroke="midnightblue" points="877.95,-356.96 867.44,-355.65 874.84,-363.23 877.95,-356.96"/>
</g>
<!-- Node3 -->
<g id="node3" class="node">
<title>Node3</title>
<g id="a_node3"><a xlink:title=" ">
<polygon fill="none" stroke="#bfbfbf" points="1254,-112.5 1254,-131.5 1296,-131.5 1296,-112.5 1254,-112.5"/>
<text text-anchor="middle" x="1275" y="-119.5" font-family="Helvetica,sans-Serif" font-size="10.00">array</text>
</a>
</g>
</g>
<!-- Node2&#45;&gt;Node3 -->
<g id="edge2" class="edge">
<title>Node2&#45;&gt;Node3</title>
<path fill="none" stroke="midnightblue" d="M1394.86,-226.16C1365.8,-220.18 1331.55,-208.98 1307,-188 1292.83,-175.89 1284.34,-156.01 1279.7,-141.42"/>
<polygon fill="midnightblue" stroke="midnightblue" points="1282.99,-140.17 1276.88,-131.51 1276.25,-142.09 1282.99,-140.17"/>
</g>
<!-- Node4 -->
<g id="node4" class="node">
<title>Node4</title>
<g id="a_node4"><a xlink:href="atom_8h.html" target="_top" xlink:title=" ">
<polygon fill="none" stroke="black" points="1428.5,-112.5 1428.5,-131.5 1523.5,-131.5 1523.5,-112.5 1428.5,-112.5"/>
<text text-anchor="middle" x="1476" y="-119.5" font-family="Helvetica,sans-Serif" font-size="10.00">occ/core/atom.h</text>
</a>
</g>
</g>
<!-- Node2&#45;&gt;Node4 -->
<g id="edge3" class="edge">
<title>Node2&#45;&gt;Node4</title>
<path fill="none" stroke="midnightblue" d="M1480.02,-224.4C1497.17,-217.51 1517.75,-205.98 1528,-188 1538.82,-169.01 1518.71,-149.77 1500.43,-137.2"/>
<polygon fill="midnightblue" stroke="midnightblue" points="1502.05,-134.08 1491.75,-131.6 1498.25,-139.97 1502.05,-134.08"/>
</g>
<!-- Node5 -->
<g id="node5" class="node">
<title>Node5</title>
<g id="a_node5"><a xlink:href="linear__algebra_8h.html" target="_top" xlink:title=" ">
<polygon fill="none" stroke="black" points="1142.5,-56.5 1142.5,-75.5 1281.5,-75.5 1281.5,-56.5 1142.5,-56.5"/>
<text text-anchor="middle" x="1212" y="-63.5" font-family="Helvetica,sans-Serif" font-size="10.00">occ/core/linear_algebra.h</text>
</a>
</g>
</g>
<!-- Node2&#45;&gt;Node5 -->
<g id="edge11" class="edge">
<title>Node2&#45;&gt;Node5</title>
<path fill="none" stroke="midnightblue" d="M1509.14,-232.04C1542.53,-228.16 1582.26,-217.11 1604,-188 1624.21,-160.94 1626.48,-137.21 1604,-112 1583.63,-89.15 1400.62,-76.27 1292,-70.58"/>
<polygon fill="midnightblue" stroke="midnightblue" points="1291.9,-67.07 1281.73,-70.05 1291.54,-74.06 1291.9,-67.07"/>
</g>
<!-- Node9 -->
<g id="node9" class="node">
<title>Node9</title>
<g id="a_node9"><a xlink:href="element_8h.html" target="_top" xlink:title=" ">
<polygon fill="none" stroke="black" points="998,-168.5 998,-187.5 1108,-187.5 1108,-168.5 998,-168.5"/>
<text text-anchor="middle" x="1053" y="-175.5" font-family="Helvetica,sans-Serif" font-size="10.00">occ/core/element.h</text>
</a>
</g>
</g>
<!-- Node2&#45;&gt;Node9 -->
<g id="edge8" class="edge">
<title>Node2&#45;&gt;Node9</title>
<path fill="none" stroke="midnightblue" d="M1394.83,-225.26C1321.62,-215.36 1195.06,-198.23 1118.18,-187.82"/>
<polygon fill="midnightblue" stroke="midnightblue" points="1118.51,-184.33 1108.14,-186.46 1117.58,-191.27 1118.51,-184.33"/>
</g>
<!-- Node12 -->
<g id="node12" class="node">
<title>Node12</title>
<g id="a_node12"><a xlink:title=" ">
<polygon fill="none" stroke="#bfbfbf" points="1656.5,-168.5 1656.5,-187.5 1697.5,-187.5 1697.5,-168.5 1656.5,-168.5"/>
<text text-anchor="middle" x="1677" y="-175.5" font-family="Helvetica,sans-Serif" font-size="10.00">tuple</text>
</a>
</g>
</g>
<!-- Node2&#45;&gt;Node12 -->
<g id="edge12" class="edge">
<title>Node2&#45;&gt;Node12</title>
<path fill="none" stroke="midnightblue" d="M1488.83,-224.5C1527.14,-215.6 1588.85,-201.13 1642,-188 1643.45,-187.64 1644.93,-187.27 1646.42,-186.9"/>
<polygon fill="midnightblue" stroke="midnightblue" points="1647.46,-190.25 1656.29,-184.4 1645.73,-183.46 1647.46,-190.25"/>
</g>
<!-- Node4&#45;&gt;Node5 -->
<g id="edge4" class="edge">
<title>Node4&#45;&gt;Node5</title>
<path fill="none" stroke="midnightblue" d="M1434.17,-112.44C1387.92,-102.98 1313.39,-87.74 1263.56,-77.55"/>
<polygon fill="midnightblue" stroke="midnightblue" points="1264.13,-74.09 1253.64,-75.52 1262.73,-80.95 1264.13,-74.09"/>
</g>
<!-- Node6 -->
<g id="node6" class="node">
<title>Node6</title>
<g id="a_node6"><a xlink:title=" ">
<polygon fill="none" stroke="#bfbfbf" points="1122.5,-0.5 1122.5,-19.5 1199.5,-19.5 1199.5,-0.5 1122.5,-0.5"/>
<text text-anchor="middle" x="1161" y="-7.5" font-family="Helvetica,sans-Serif" font-size="10.00">Eigen/Dense</text>
</a>
</g>
</g>
<!-- Node5&#45;&gt;Node6 -->
<g id="edge5" class="edge">
<title>Node5&#45;&gt;Node6</title>
<path fill="none" stroke="midnightblue" d="M1203.58,-56.08C1196.15,-48.22 1185.15,-36.57 1176.19,-27.08"/>
<polygon fill="midnightblue" stroke="midnightblue" points="1178.68,-24.62 1169.26,-19.75 1173.59,-29.42 1178.68,-24.62"/>
</g>
<!-- Node7 -->
<g id="node7" class="node">
<title>Node7</title>
<g id="a_node7"><a xlink:title=" ">
<polygon fill="none" stroke="#bfbfbf" points="1217.5,-0.5 1217.5,-19.5 1310.5,-19.5 1310.5,-0.5 1217.5,-0.5"/>
<text text-anchor="middle" x="1264" y="-7.5" font-family="Helvetica,sans-Serif" font-size="10.00">Eigen/StdVector</text>
</a>
</g>
</g>
<!-- Node5&#45;&gt;Node7 -->
<g id="edge6" class="edge">
<title>Node5&#45;&gt;Node7</title>
<path fill="none" stroke="midnightblue" d="M1220.59,-56.08C1228.16,-48.22 1239.38,-36.57 1248.51,-27.08"/>
<polygon fill="midnightblue" stroke="midnightblue" points="1251.16,-29.38 1255.57,-19.75 1246.12,-24.53 1251.16,-29.38"/>
</g>
<!-- Node8 -->
<g id="node8" class="node">
<title>Node8</title>
<g id="a_node8"><a xlink:title=" ">
<polygon fill="none" stroke="#bfbfbf" points="530,-0.5 530,-19.5 616,-19.5 616,-0.5 530,-0.5"/>
<text text-anchor="middle" x="573" y="-7.5" font-family="Helvetica,sans-Serif" font-size="10.00">fmt/ostream.h</text>
</a>
</g>
</g>
<!-- Node5&#45;&gt;Node8 -->
<g id="edge7" class="edge">
<title>Node5&#45;&gt;Node8</title>
<path fill="none" stroke="midnightblue" d="M1142.4,-59.12C1013.66,-48.24 741.02,-25.2 625.98,-15.48"/>
<polygon fill="midnightblue" stroke="midnightblue" points="626.26,-11.99 616,-14.63 625.67,-18.96 626.26,-11.99"/>
</g>
<!-- Node10 -->
<g id="node10" class="node">
<title>Node10</title>
<g id="a_node10"><a xlink:title=" ">
<polygon fill="none" stroke="#bfbfbf" points="981,-112.5 981,-131.5 1025,-131.5 1025,-112.5 981,-112.5"/>
<text text-anchor="middle" x="1003" y="-119.5" font-family="Helvetica,sans-Serif" font-size="10.00">string</text>
</a>
</g>
</g>
<!-- Node9&#45;&gt;Node10 -->
<g id="edge9" class="edge">
<title>Node9&#45;&gt;Node10</title>
<path fill="none" stroke="midnightblue" d="M1044.74,-168.08C1037.54,-160.3 1026.89,-148.8 1018.15,-139.37"/>
<polygon fill="midnightblue" stroke="midnightblue" points="1020.47,-136.71 1011.1,-131.75 1015.33,-141.47 1020.47,-136.71"/>
</g>
<!-- Node11 -->
<g id="node11" class="node">
<title>Node11</title>
<g id="a_node11"><a xlink:title=" ">
<polygon fill="none" stroke="#bfbfbf" points="865.5,-112.5 865.5,-131.5 912.5,-131.5 912.5,-112.5 865.5,-112.5"/>
<text text-anchor="middle" x="889" y="-119.5" font-family="Helvetica,sans-Serif" font-size="10.00">vector</text>
</a>
</g>
</g>
<!-- Node9&#45;&gt;Node11 -->
<g id="edge10" class="edge">
<title>Node9&#45;&gt;Node11</title>
<path fill="none" stroke="midnightblue" d="M1027.01,-168.44C998.77,-159.15 953.56,-144.26 922.63,-134.07"/>
<polygon fill="midnightblue" stroke="midnightblue" points="923.33,-130.62 912.73,-130.82 921.14,-137.27 923.33,-130.62"/>
</g>
<!-- Node13&#45;&gt;Node5 -->
<g id="edge15" class="edge">
<title>Node13&#45;&gt;Node5</title>
<path fill="none" stroke="midnightblue" d="M915.37,-344C1124.56,-339.95 1764,-320.56 1764,-235 1764,-235 1764,-235 1764,-177 1764,-81.9 1444.86,-67.82 1291.91,-66.54"/>
<polygon fill="midnightblue" stroke="midnightblue" points="1291.65,-63.04 1281.63,-66.47 1291.61,-70.04 1291.65,-63.04"/>
</g>
<!-- Node14 -->
<g id="node14" class="node">
<title>Node14</title>
<g id="a_node14"><a xlink:title=" ">
<polygon fill="none" stroke="#bfbfbf" points="780.5,-112.5 780.5,-131.5 847.5,-131.5 847.5,-112.5 780.5,-112.5"/>
<text text-anchor="middle" x="814" y="-119.5" font-family="Helvetica,sans-Serif" font-size="10.00">fmt/core.h</text>
</a>
</g>
</g>
<!-- Node13&#45;&gt;Node14 -->
<g id="edge14" class="edge">
<title>Node13&#45;&gt;Node14</title>
<path fill="none" stroke="midnightblue" d="M844.85,-336.38C839.87,-327.57 832.55,-313.33 829,-300 814.07,-244 812.98,-174.84 813.45,-142.01"/>
<polygon fill="midnightblue" stroke="midnightblue" points="816.96,-141.73 813.67,-131.66 809.96,-141.58 816.96,-141.73"/>
</g>
<!-- Node15 -->
<g id="node15" class="node">
<title>Node15</title>
<g id="a_node15"><a xlink:href="fchkreader_8h.html" target="_top" xlink:title=" ">
<polygon fill="none" stroke="black" points="644.5,-280.5 644.5,-299.5 753.5,-299.5 753.5,-280.5 644.5,-280.5"/>
<text text-anchor="middle" x="699" y="-287.5" font-family="Helvetica,sans-Serif" font-size="10.00">occ/io/fchkreader.h</text>
</a>
</g>
</g>
<!-- Node13&#45;&gt;Node15 -->
<g id="edge16" class="edge">
<title>Node13&#45;&gt;Node15</title>
<path fill="none" stroke="midnightblue" d="M826.07,-336.44C800.78,-327.4 760.7,-313.06 732.32,-302.92"/>
<polygon fill="midnightblue" stroke="midnightblue" points="733.41,-299.59 722.81,-299.52 731.05,-306.18 733.41,-299.59"/>
</g>
<!-- Node18 -->
<g id="node18" class="node">
<title>Node18</title>
<g id="a_node18"><a xlink:href="shell_8h.html" target="_top" xlink:title=" ">
<polygon fill="none" stroke="black" points="954.5,-224.5 954.5,-243.5 1041.5,-243.5 1041.5,-224.5 954.5,-224.5"/>
<text text-anchor="middle" x="998" y="-231.5" font-family="Helvetica,sans-Serif" font-size="10.00">occ/qm/shell.h</text>
</a>
</g>
</g>
<!-- Node13&#45;&gt;Node18 -->
<g id="edge79" class="edge">
<title>Node13&#45;&gt;Node18</title>
<path fill="none" stroke="midnightblue" d="M879.66,-336.4C901.08,-329.15 929.84,-317.18 951,-300 967.16,-286.88 980.48,-266.91 988.76,-252.58"/>
<polygon fill="midnightblue" stroke="midnightblue" points="991.89,-254.15 993.66,-243.7 985.76,-250.76 991.89,-254.15"/>
</g>
<!-- Node27 -->
<g id="node27" class="node">
<title>Node27</title>
<g id="a_node27"><a xlink:href="spinorbital_8h.html" target="_top" xlink:title=" ">
<polygon fill="none" stroke="black" points="408,-224.5 408,-243.5 524,-243.5 524,-224.5 408,-224.5"/>
<text text-anchor="middle" x="466" y="-231.5" font-family="Helvetica,sans-Serif" font-size="10.00">occ/qm/spinorbital.h</text>
</a>
</g>
</g>
<!-- Node13&#45;&gt;Node27 -->
<g id="edge80" class="edge">
<title>Node13&#45;&gt;Node27</title>
<path fill="none" stroke="midnightblue" d="M784.8,-342.56C699.5,-338.33 555.64,-327.29 511,-300 493.3,-289.18 480.82,-268.49 473.56,-253.34"/>
<polygon fill="midnightblue" stroke="midnightblue" points="476.63,-251.65 469.37,-243.94 470.24,-254.49 476.63,-251.65"/>
</g>
<!-- Node29 -->
<g id="node29" class="node">
<title>Node29</title>
<g id="a_node29"><a xlink:href="fchkwriter_8h.html" target="_top" xlink:title=" ">
<polygon fill="none" stroke="black" points="520,-280.5 520,-299.5 626,-299.5 626,-280.5 520,-280.5"/>
<text text-anchor="middle" x="573" y="-287.5" font-family="Helvetica,sans-Serif" font-size="10.00">occ/io/fchkwriter.h</text>
</a>
</g>
</g>
<!-- Node13&#45;&gt;Node29 -->
<g id="edge48" class="edge">
<title>Node13&#45;&gt;Node29</title>
<path fill="none" stroke="midnightblue" d="M806.11,-336.44C757.48,-326.96 679.05,-311.67 626.78,-301.48"/>
<polygon fill="midnightblue" stroke="midnightblue" points="627.17,-297.99 616.69,-299.52 625.83,-304.87 627.17,-297.99"/>
</g>
<!-- Node32 -->
<g id="node32" class="node">
<title>Node32</title>
<g id="a_node32"><a xlink:href="moldenreader_8h.html" target="_top" xlink:title=" ">
<polygon fill="none" stroke="black" points="998.5,-280.5 998.5,-299.5 1123.5,-299.5 1123.5,-280.5 998.5,-280.5"/>
<text text-anchor="middle" x="1061" y="-287.5" font-family="Helvetica,sans-Serif" font-size="10.00">occ/io/moldenreader.h</text>
</a>
</g>
</g>
<!-- Node13&#45;&gt;Node32 -->
<g id="edge58" class="edge">
<title>Node13&#45;&gt;Node32</title>
<path fill="none" stroke="midnightblue" d="M883.43,-336.44C919.86,-327.12 978.23,-312.18 1018.03,-302"/>
<polygon fill="midnightblue" stroke="midnightblue" points="1018.9,-305.39 1027.72,-299.52 1017.17,-298.61 1018.9,-305.39"/>
</g>
<!-- Node34 -->
<g id="node34" class="node">
<title>Node34</title>
<g id="a_node34"><a xlink:href="orca__json_8h.html" target="_top" xlink:title=" ">
<polygon fill="none" stroke="black" points="838,-280.5 838,-299.5 942,-299.5 942,-280.5 838,-280.5"/>
<text text-anchor="middle" x="890" y="-287.5" font-family="Helvetica,sans-Serif" font-size="10.00">occ/io/orca_json.h</text>
</a>
</g>
</g>
<!-- Node13&#45;&gt;Node34 -->
<g id="edge66" class="edge">
<title>Node13&#45;&gt;Node34</title>
<path fill="none" stroke="midnightblue" d="M856.61,-336.08C862.26,-328.46 870.54,-317.26 877.45,-307.94"/>
<polygon fill="midnightblue" stroke="midnightblue" points="880.38,-309.87 883.52,-299.75 874.75,-305.7 880.38,-309.87"/>
</g>
<!-- Node35 -->
<g id="node35" class="node">
<title>Node35</title>
<g id="a_node35"><a xlink:href="mo_8h.html" target="_top" xlink:title=" ">
<polygon fill="none" stroke="black" points="384,-280.5 384,-299.5 464,-299.5 464,-280.5 384,-280.5"/>
<text text-anchor="middle" x="424" y="-287.5" font-family="Helvetica,sans-Serif" font-size="10.00">occ/qm/mo.h</text>
</a>
</g>
</g>
<!-- Node13&#45;&gt;Node35 -->
<g id="edge75" class="edge">
<title>Node13&#45;&gt;Node35</title>
<path fill="none" stroke="midnightblue" d="M784.7,-338C710.32,-329.81 585.21,-315.41 478,-300 476.73,-299.82 475.44,-299.63 474.15,-299.44"/>
<polygon fill="midnightblue" stroke="midnightblue" points="474.49,-295.95 464.07,-297.88 473.42,-302.87 474.49,-295.95"/>
</g>
<!-- Node15&#45;&gt;Node5 -->
<g id="edge19" class="edge">
<title>Node15&#45;&gt;Node5</title>
<path fill="none" stroke="midnightblue" d="M644.21,-281.07C558.35,-268.6 401.57,-245.66 399,-244 347.74,-210.84 318.99,-156.29 361,-112 387.3,-84.27 925.59,-71.99 1132.21,-68.28"/>
<polygon fill="midnightblue" stroke="midnightblue" points="1132.45,-71.78 1142.39,-68.1 1132.33,-64.78 1132.45,-71.78"/>
</g>
<!-- Node15&#45;&gt;Node11 -->
<g id="edge47" class="edge">
<title>Node15&#45;&gt;Node11</title>
<path fill="none" stroke="midnightblue" d="M693.21,-280.2C685.53,-267.33 673.94,-242.85 683,-224 700.26,-188.09 717.98,-187 753,-168 770.83,-158.33 821.16,-142.71 855.33,-132.65"/>
<polygon fill="midnightblue" stroke="midnightblue" points="856.74,-135.88 865.36,-129.72 854.78,-129.17 856.74,-135.88"/>
</g>
<!-- Node16 -->
<g id="node16" class="node">
<title>Node16</title>
<g id="a_node16"><a xlink:title=" ">
<polygon fill="none" stroke="#bfbfbf" points="580.5,-224.5 580.5,-243.5 635.5,-243.5 635.5,-224.5 580.5,-224.5"/>
<text text-anchor="middle" x="608" y="-231.5" font-family="Helvetica,sans-Serif" font-size="10.00">fstream</text>
</a>
</g>
</g>
<!-- Node15&#45;&gt;Node16 -->
<g id="edge17" class="edge">
<title>Node15&#45;&gt;Node16</title>
<path fill="none" stroke="midnightblue" d="M684.38,-280.32C670.05,-271.82 647.99,-258.73 631.25,-248.8"/>
<polygon fill="midnightblue" stroke="midnightblue" points="632.97,-245.75 622.58,-243.65 629.4,-251.77 632.97,-245.75"/>
</g>
<!-- Node17 -->
<g id="node17" class="node">
<title>Node17</title>
<g id="a_node17"><a xlink:title=" ">
<polygon fill="none" stroke="#bfbfbf" points="692,-224.5 692,-243.5 746,-243.5 746,-224.5 692,-224.5"/>
<text text-anchor="middle" x="719" y="-231.5" font-family="Helvetica,sans-Serif" font-size="10.00">istream</text>
</a>
</g>
</g>
<!-- Node15&#45;&gt;Node17 -->
<g id="edge18" class="edge">
<title>Node15&#45;&gt;Node17</title>
<path fill="none" stroke="midnightblue" d="M702.3,-280.08C704.98,-272.85 708.85,-262.41 712.19,-253.4"/>
<polygon fill="midnightblue" stroke="midnightblue" points="715.57,-254.34 715.76,-243.75 709,-251.91 715.57,-254.34"/>
</g>
<!-- Node15&#45;&gt;Node18 -->
<g id="edge20" class="edge">
<title>Node15&#45;&gt;Node18</title>
<path fill="none" stroke="midnightblue" d="M746.38,-280.44C800.17,-270.73 887.75,-254.91 944.1,-244.73"/>
<polygon fill="midnightblue" stroke="midnightblue" points="945.03,-248.12 954.25,-242.9 943.79,-241.23 945.03,-248.12"/>
</g>
<!-- Node15&#45;&gt;Node27 -->
<g id="edge42" class="edge">
<title>Node15&#45;&gt;Node27</title>
<path fill="none" stroke="midnightblue" d="M662.08,-280.44C621.6,-271.06 556.58,-255.99 512.62,-245.8"/>
<polygon fill="midnightblue" stroke="midnightblue" points="513.28,-242.36 502.75,-243.52 511.7,-249.18 513.28,-242.36"/>
</g>
<!-- Node18&#45;&gt;Node3 -->
<g id="edge21" class="edge">
<title>Node18&#45;&gt;Node3</title>
<path fill="none" stroke="midnightblue" d="M1041.68,-233.41C1090.23,-231.93 1169.25,-223.57 1226,-188 1244.1,-176.66 1257.9,-156.06 1266.18,-141.08"/>
<polygon fill="midnightblue" stroke="midnightblue" points="1269.5,-142.28 1271.01,-131.79 1263.29,-139.05 1269.5,-142.28"/>
</g>
<!-- Node18&#45;&gt;Node4 -->
<g id="edge23" class="edge">
<title>Node18&#45;&gt;Node4</title>
<path fill="none" stroke="midnightblue" d="M1041.87,-230.03C1153.59,-222.28 1441.13,-201.16 1457,-188 1470.42,-176.88 1474.67,-156.85 1475.87,-141.95"/>
<polygon fill="midnightblue" stroke="midnightblue" points="1479.37,-141.93 1476.29,-131.79 1472.38,-141.64 1479.37,-141.93"/>
</g>
<!-- Node18&#45;&gt;Node5 -->
<g id="edge24" class="edge">
<title>Node18&#45;&gt;Node5</title>
<path fill="none" stroke="midnightblue" d="M1035.42,-224.48C1060.24,-217.54 1092.61,-205.91 1117,-188 1156.13,-159.27 1187.59,-110.33 1202.54,-84.37"/>
<polygon fill="midnightblue" stroke="midnightblue" points="1205.6,-86.07 1207.45,-75.64 1199.5,-82.64 1205.6,-86.07"/>
</g>
<!-- Node18&#45;&gt;Node11 -->
<g id="edge41" class="edge">
<title>Node18&#45;&gt;Node11</title>
<path fill="none" stroke="midnightblue" d="M969.34,-224.48C950.38,-217.48 926.29,-205.8 911,-188 899.73,-174.88 894.16,-155.74 891.46,-141.62"/>
<polygon fill="midnightblue" stroke="midnightblue" points="894.89,-140.91 889.85,-131.59 887.98,-142.02 894.89,-140.91"/>
</g>
<!-- Node18&#45;&gt;Node14 -->
<g id="edge40" class="edge">
<title>Node18&#45;&gt;Node14</title>
<path fill="none" stroke="midnightblue" d="M974.07,-224.44C952.84,-216.38 921.36,-203.3 896,-188 871.89,-173.46 846.92,-152.7 830.97,-138.58"/>
<polygon fill="midnightblue" stroke="midnightblue" points="833.28,-135.95 823.5,-131.87 828.6,-141.16 833.28,-135.95"/>
</g>
<!-- Node19 -->
<g id="node19" class="node">
<title>Node19</title>
<g id="a_node19"><a xlink:title=" ">
<polygon fill="none" stroke="#bfbfbf" points="920,-168.5 920,-187.5 980,-187.5 980,-168.5 920,-168.5"/>
<text text-anchor="middle" x="950" y="-175.5" font-family="Helvetica,sans-Serif" font-size="10.00">iostream</text>
</a>
</g>
</g>
<!-- Node18&#45;&gt;Node19 -->
<g id="edge22" class="edge">
<title>Node18&#45;&gt;Node19</title>
<path fill="none" stroke="midnightblue" d="M990.07,-224.08C983.15,-216.3 972.93,-204.8 964.55,-195.37"/>
<polygon fill="midnightblue" stroke="midnightblue" points="967.04,-192.9 957.78,-187.75 961.81,-197.55 967.04,-192.9"/>
</g>
<!-- Node20 -->
<g id="node20" class="node">
<title>Node20</title>
<g id="a_node20"><a xlink:href="point__charge_8h.html" target="_top" xlink:title=" ">
<polygon fill="none" stroke="black" points="1316,-168.5 1316,-187.5 1448,-187.5 1448,-168.5 1316,-168.5"/>
<text text-anchor="middle" x="1382" y="-175.5" font-family="Helvetica,sans-Serif" font-size="10.00">occ/core/point_charge.h</text>
</a>
</g>
</g>
<!-- Node18&#45;&gt;Node20 -->
<g id="edge25" class="edge">
<title>Node18&#45;&gt;Node20</title>
<path fill="none" stroke="midnightblue" d="M1041.68,-226.86C1107.33,-217.63 1232.16,-200.07 1311.01,-188.98"/>
<polygon fill="midnightblue" stroke="midnightblue" points="1311.93,-192.39 1321.34,-187.53 1310.95,-185.46 1311.93,-192.39"/>
</g>
<!-- Node21 -->
<g id="node21" class="node">
<title>Node21</title>
<g id="a_node21"><a xlink:href="util_8h.html" target="_top" xlink:title=" ">
<polygon fill="none" stroke="black" points="512.5,-168.5 512.5,-187.5 597.5,-187.5 597.5,-168.5 512.5,-168.5"/>
<text text-anchor="middle" x="555" y="-175.5" font-family="Helvetica,sans-Serif" font-size="10.00">occ/core/util.h</text>
</a>
</g>
</g>
<!-- Node18&#45;&gt;Node21 -->
<g id="edge29" class="edge">
<title>Node18&#45;&gt;Node21</title>
<path fill="none" stroke="midnightblue" d="M954.31,-227.67C872.42,-217.69 696.16,-196.21 607.78,-185.43"/>
<polygon fill="midnightblue" stroke="midnightblue" points="608.06,-181.94 597.71,-184.21 607.21,-188.89 608.06,-181.94"/>
</g>
<!-- Node20&#45;&gt;Node3 -->
<g id="edge26" class="edge">
<title>Node20&#45;&gt;Node3</title>
<path fill="none" stroke="midnightblue" d="M1364.81,-168.32C1347.65,-159.66 1321.05,-146.24 1301.25,-136.25"/>
<polygon fill="midnightblue" stroke="midnightblue" points="1302.65,-133.04 1292.15,-131.65 1299.5,-139.28 1302.65,-133.04"/>
</g>
<!-- Node20&#45;&gt;Node4 -->
<g id="edge27" class="edge">
<title>Node20&#45;&gt;Node4</title>
<path fill="none" stroke="midnightblue" d="M1397.1,-168.32C1411.9,-159.82 1434.69,-146.73 1451.98,-136.8"/>
<polygon fill="midnightblue" stroke="midnightblue" points="1454.01,-139.67 1460.93,-131.65 1450.52,-133.6 1454.01,-139.67"/>
</g>
<!-- Node20&#45;&gt;Node5 -->
<g id="edge28" class="edge">
<title>Node20&#45;&gt;Node5</title>
<path fill="none" stroke="midnightblue" d="M1373.11,-168.19C1359.36,-154.88 1331.7,-129.34 1305,-112 1285.27,-99.19 1261.35,-87.7 1242.71,-79.53"/>
<polygon fill="midnightblue" stroke="midnightblue" points="1244.06,-76.3 1233.49,-75.57 1241.3,-82.74 1244.06,-76.3"/>
</g>
<!-- Node21&#45;&gt;Node5 -->
<g id="edge36" class="edge">
<title>Node21&#45;&gt;Node5</title>
<path fill="none" stroke="midnightblue" d="M597.59,-169.19C634.2,-161.79 688.06,-149.23 733,-132 750.82,-125.17 752.73,-117.51 771,-112 836.49,-92.24 1023.67,-78.22 1131.96,-71.5"/>
<polygon fill="midnightblue" stroke="midnightblue" points="1132.42,-74.98 1142.19,-70.87 1131.99,-67.99 1132.42,-74.98"/>
</g>
<!-- Node21&#45;&gt;Node8 -->
<g id="edge33" class="edge">
<title>Node21&#45;&gt;Node8</title>
<path fill="none" stroke="midnightblue" d="M512.37,-169.05C462.43,-159.31 385.4,-142.78 377,-132 371.54,-124.99 372.37,-119.59 377,-112 407.88,-61.35 473.2,-35.01 519.95,-22.11"/>
<polygon fill="midnightblue" stroke="midnightblue" points="520.85,-25.49 529.62,-19.55 519.06,-18.72 520.85,-25.49"/>
</g>
<!-- Node21&#45;&gt;Node10 -->
<g id="edge37" class="edge">
<title>Node21&#45;&gt;Node10</title>
<path fill="none" stroke="midnightblue" d="M597.55,-171.87C686.62,-161.13 891.04,-136.5 970.53,-126.91"/>
<polygon fill="midnightblue" stroke="midnightblue" points="971.39,-130.34 980.9,-125.66 970.55,-123.39 971.39,-130.34"/>
</g>
<!-- Node21&#45;&gt;Node11 -->
<g id="edge38" class="edge">
<title>Node21&#45;&gt;Node11</title>
<path fill="none" stroke="midnightblue" d="M597.63,-170.22C602.48,-169.46 607.35,-168.71 612,-168 717.19,-151.94 746.98,-154.3 855.27,-131.93"/>
<polygon fill="midnightblue" stroke="midnightblue" points="856.22,-135.3 865.29,-129.83 854.78,-128.45 856.22,-135.3"/>
</g>
<!-- Node21&#45;&gt;Node14 -->
<g id="edge32" class="edge">
<title>Node21&#45;&gt;Node14</title>
<path fill="none" stroke="midnightblue" d="M596.04,-168.44C643.58,-158.53 721.59,-142.27 770.25,-132.12"/>
<polygon fill="midnightblue" stroke="midnightblue" points="771.09,-135.52 780.17,-130.05 769.66,-128.67 771.09,-135.52"/>
</g>
<!-- Node22 -->
<g id="node22" class="node">
<title>Node22</title>
<g id="a_node22"><a xlink:title=" ">
<polygon fill="none" stroke="#bfbfbf" points="660,-112.5 660,-131.5 724,-131.5 724,-112.5 660,-112.5"/>
<text text-anchor="middle" x="692" y="-119.5" font-family="Helvetica,sans-Serif" font-size="10.00">algorithm</text>
</a>
</g>
</g>
<!-- Node21&#45;&gt;Node22 -->
<g id="edge30" class="edge">
<title>Node21&#45;&gt;Node22</title>
<path fill="none" stroke="midnightblue" d="M576.71,-168.44C599.35,-159.52 635.07,-145.44 660.75,-135.32"/>
<polygon fill="midnightblue" stroke="midnightblue" points="662.37,-138.44 670.39,-131.52 659.81,-131.93 662.37,-138.44"/>
</g>
<!-- Node23 -->
<g id="node23" class="node">
<title>Node23</title>
<g id="a_node23"><a xlink:title=" ">
<polygon fill="none" stroke="#bfbfbf" points="386.5,-112.5 386.5,-131.5 435.5,-131.5 435.5,-112.5 386.5,-112.5"/>
<text text-anchor="middle" x="411" y="-119.5" font-family="Helvetica,sans-Serif" font-size="10.00">cctype</text>
</a>
</g>
</g>
<!-- Node21&#45;&gt;Node23 -->
<g id="edge31" class="edge">
<title>Node21&#45;&gt;Node23</title>
<path fill="none" stroke="midnightblue" d="M532.18,-168.44C508.17,-159.44 470.17,-145.19 443.13,-135.05"/>
<polygon fill="midnightblue" stroke="midnightblue" points="444.3,-131.75 433.71,-131.52 441.84,-138.3 444.3,-131.75"/>
</g>
<!-- Node24 -->
<g id="node24" class="node">
<title>Node24</title>
<g id="a_node24"><a xlink:title=" ">
<polygon fill="none" stroke="#bfbfbf" points="454,-112.5 454,-131.5 500,-131.5 500,-112.5 454,-112.5"/>
<text text-anchor="middle" x="477" y="-119.5" font-family="Helvetica,sans-Serif" font-size="10.00">locale</text>
</a>
</g>
</g>
<!-- Node21&#45;&gt;Node24 -->
<g id="edge34" class="edge">
<title>Node21&#45;&gt;Node24</title>
<path fill="none" stroke="midnightblue" d="M542.47,-168.32C530.41,-159.98 511.97,-147.21 497.73,-137.35"/>
<polygon fill="midnightblue" stroke="midnightblue" points="499.72,-134.47 489.5,-131.65 495.73,-140.22 499.72,-134.47"/>
</g>
<!-- Node25 -->
<g id="node25" class="node">
<title>Node25</title>
<g id="a_node25"><a xlink:title=" ">
<polygon fill="none" stroke="#bfbfbf" points="518,-112.5 518,-131.5 574,-131.5 574,-112.5 518,-112.5"/>
<text text-anchor="middle" x="546" y="-119.5" font-family="Helvetica,sans-Serif" font-size="10.00">numeric</text>
</a>
</g>
</g>
<!-- Node21&#45;&gt;Node25 -->
<g id="edge35" class="edge">
<title>Node21&#45;&gt;Node25</title>
<path fill="none" stroke="midnightblue" d="M553.51,-168.08C552.32,-160.93 550.61,-150.64 549.12,-141.69"/>
<polygon fill="midnightblue" stroke="midnightblue" points="552.55,-141.04 547.46,-131.75 545.65,-142.19 552.55,-141.04"/>
</g>
<!-- Node26 -->
<g id="node26" class="node">
<title>Node26</title>
<g id="a_node26"><a xlink:title=" ">
<polygon fill="none" stroke="#bfbfbf" points="592,-112.5 592,-131.5 642,-131.5 642,-112.5 592,-112.5"/>
<text text-anchor="middle" x="617" y="-119.5" font-family="Helvetica,sans-Serif" font-size="10.00">chrono</text>
</a>
</g>
</g>
<!-- Node21&#45;&gt;Node26 -->
<g id="edge39" class="edge">
<title>Node21&#45;&gt;Node26</title>
<path fill="none" stroke="midnightblue" d="M564.96,-168.32C574.13,-160.34 587.94,-148.31 599.03,-138.65"/>
<polygon fill="midnightblue" stroke="midnightblue" points="601.62,-141.04 606.86,-131.83 597.02,-135.76 601.62,-141.04"/>
</g>
<!-- Node27&#45;&gt;Node5 -->
<g id="edge43" class="edge">
<title>Node27&#45;&gt;Node5</title>
<path fill="none" stroke="midnightblue" d="M429.3,-224.35C410.17,-217.77 388.43,-206.58 377,-188 359.31,-159.23 353.77,-136.52 377,-112 402.73,-84.85 928.46,-72.24 1132.26,-68.37"/>
<polygon fill="midnightblue" stroke="midnightblue" points="1132.37,-71.86 1142.3,-68.18 1132.23,-64.87 1132.37,-71.86"/>
</g>
<!-- Node27&#45;&gt;Node21 -->
<g id="edge44" class="edge">
<title>Node27&#45;&gt;Node21</title>
<path fill="none" stroke="midnightblue" d="M480.3,-224.32C494.18,-215.9 515.49,-202.97 531.8,-193.07"/>
<polygon fill="midnightblue" stroke="midnightblue" points="534,-195.83 540.74,-187.65 530.37,-189.85 534,-195.83"/>
</g>
<!-- Node28 -->
<g id="node28" class="node">
<title>Node28</title>
<g id="a_node28"><a xlink:href="qm_2opmatrix_8h.html" target="_top" xlink:title=" ">
<polygon fill="none" stroke="black" points="386,-168.5 386,-187.5 494,-187.5 494,-168.5 386,-168.5"/>
<text text-anchor="middle" x="440" y="-175.5" font-family="Helvetica,sans-Serif" font-size="10.00">occ/qm/opmatrix.h</text>
</a>
</g>
</g>
<!-- Node27&#45;&gt;Node28 -->
<g id="edge45" class="edge">
<title>Node27&#45;&gt;Node28</title>
<path fill="none" stroke="midnightblue" d="M456.54,-224.08C451.53,-216.85 446.08,-206.41 442.42,-197.4"/>
<polygon fill="midnightblue" stroke="midnightblue" points="445.66,-196.06 439.08,-187.75 439.05,-198.35 445.66,-196.06"/>
</g>
<!-- Node28&#45;&gt;Node27 -->
<g id="edge46" class="edge">
<title>Node28&#45;&gt;Node27</title>
<path fill="none" stroke="midnightblue" d="M449.34,-187.75C454.35,-194.94 459.81,-205.36 463.49,-214.4"/>
<polygon fill="midnightblue" stroke="midnightblue" points="460.27,-215.79 466.87,-224.08 466.88,-213.49 460.27,-215.79"/>
</g>
<!-- Node29&#45;&gt;Node3 -->
<g id="edge49" class="edge">
<title>Node29&#45;&gt;Node3</title>
<path fill="none" stroke="midnightblue" d="M622.17,-280.47C747,-258.73 1069.61,-201.98 1117,-188 1164.49,-173.99 1217.23,-150.61 1248.18,-136.04"/>
<polygon fill="midnightblue" stroke="midnightblue" points="1249.9,-139.1 1257.43,-131.64 1246.89,-132.78 1249.9,-139.1"/>
</g>
<!-- Node29&#45;&gt;Node5 -->
<g id="edge53" class="edge">
<title>Node29&#45;&gt;Node5</title>
<path fill="none" stroke="midnightblue" d="M519.58,-284.04C402.47,-273.1 133.24,-247.59 130,-244 124.04,-237.4 125.4,-231.6 130,-224 185.59,-132.16 240.45,-140.32 344,-112 491.05,-71.78 946.7,-67.02 1132.2,-66.79"/>
<polygon fill="midnightblue" stroke="midnightblue" points="1132.43,-70.29 1142.43,-66.79 1132.43,-63.29 1132.43,-70.29"/>
</g>
<!-- Node29&#45;&gt;Node11 -->
<g id="edge57" class="edge">
<title>Node29&#45;&gt;Node11</title>
<path fill="none" stroke="midnightblue" d="M569.71,-280.11C565.35,-266.69 559.48,-241.02 571,-224 606.71,-171.26 776.12,-150.57 855.15,-132.04"/>
<polygon fill="midnightblue" stroke="midnightblue" points="856.35,-135.35 865.22,-129.55 854.68,-128.55 856.35,-135.35"/>
</g>
<!-- Node29&#45;&gt;Node16 -->
<g id="edge50" class="edge">
<title>Node29&#45;&gt;Node16</title>
<path fill="none" stroke="midnightblue" d="M578.78,-280.08C583.67,-272.53 590.83,-261.49 596.83,-252.23"/>
<polygon fill="midnightblue" stroke="midnightblue" points="599.83,-254.05 602.33,-243.75 593.95,-250.24 599.83,-254.05"/>
</g>
<!-- Node29&#45;&gt;Node17 -->
<g id="edge51" class="edge">
<title>Node29&#45;&gt;Node17</title>
<path fill="none" stroke="midnightblue" d="M596.13,-280.44C620.48,-271.44 659.01,-257.19 686.42,-247.05"/>
<polygon fill="midnightblue" stroke="midnightblue" points="687.81,-250.27 695.97,-243.52 685.38,-243.7 687.81,-250.27"/>
</g>
<!-- Node29&#45;&gt;Node18 -->
<g id="edge54" class="edge">
<title>Node29&#45;&gt;Node18</title>
<path fill="none" stroke="midnightblue" d="M626.09,-281.22C629.1,-280.8 632.09,-280.39 635,-280 744.77,-265.23 873.47,-249.7 944.35,-241.3"/>
<polygon fill="midnightblue" stroke="midnightblue" points="944.86,-244.76 954.38,-240.11 944.04,-237.81 944.86,-244.76"/>
</g>
<!-- Node29&#45;&gt;Node27 -->
<g id="edge55" class="edge">
<title>Node29&#45;&gt;Node27</title>
<path fill="none" stroke="midnightblue" d="M555.81,-280.32C538.65,-271.66 512.05,-258.24 492.25,-248.25"/>
<polygon fill="midnightblue" stroke="midnightblue" points="493.65,-245.04 483.15,-243.65 490.5,-251.28 493.65,-245.04"/>
</g>
<!-- Node30 -->
<g id="node30" class="node">
<title>Node30</title>
<g id="a_node30"><a xlink:title=" ">
<polygon fill="none" stroke="#bfbfbf" points="139.5,-224.5 139.5,-243.5 282.5,-243.5 282.5,-224.5 139.5,-224.5"/>
<text text-anchor="middle" x="211" y="-231.5" font-family="Helvetica,sans-Serif" font-size="10.00">ankerl/unordered_dense.h</text>
</a>
</g>
</g>
<!-- Node29&#45;&gt;Node30 -->
<g id="edge52" class="edge">
<title>Node29&#45;&gt;Node30</title>
<path fill="none" stroke="midnightblue" d="M519.97,-281.09C455.87,-271.53 347.9,-255.42 278.07,-245"/>
<polygon fill="midnightblue" stroke="midnightblue" points="278.46,-241.52 268.05,-243.51 277.43,-248.45 278.46,-241.52"/>
</g>
<!-- Node31 -->
<g id="node31" class="node">
<title>Node31</title>
<g id="a_node31"><a xlink:title=" ">
<polygon fill="none" stroke="#bfbfbf" points="300.5,-224.5 300.5,-243.5 351.5,-243.5 351.5,-224.5 300.5,-224.5"/>
<text text-anchor="middle" x="326" y="-231.5" font-family="Helvetica,sans-Serif" font-size="10.00">variant</text>
</a>
</g>
</g>
<!-- Node29&#45;&gt;Node31 -->
<g id="edge56" class="edge">
<title>Node29&#45;&gt;Node31</title>
<path fill="none" stroke="midnightblue" d="M533.3,-280.46C491.61,-271.47 424.17,-256.87 366,-244 364.57,-243.68 363.1,-243.36 361.63,-243.03"/>
<polygon fill="midnightblue" stroke="midnightblue" points="362.34,-239.6 351.81,-240.84 360.81,-246.43 362.34,-239.6"/>
</g>
<!-- Node32&#45;&gt;Node5 -->
<g id="edge60" class="edge">
<title>Node32&#45;&gt;Node5</title>
<path fill="none" stroke="midnightblue" d="M1123.74,-289.68C1272.25,-289.74 1638.07,-280.32 1707,-188 1744.46,-137.83 1693.51,-137.47 1624,-112 1564.89,-90.34 1394.08,-77.27 1291.9,-71.16"/>
<polygon fill="midnightblue" stroke="midnightblue" points="1291.81,-67.65 1281.62,-70.56 1291.4,-74.64 1291.81,-67.65"/>
</g>
<!-- Node32&#45;&gt;Node10 -->
<g id="edge64" class="edge">
<title>Node32&#45;&gt;Node10</title>
<path fill="none" stroke="midnightblue" d="M1070.93,-280.28C1093.23,-259.65 1143.3,-206.66 1117,-168 1098.83,-141.29 1062.1,-130.43 1035.23,-126.02"/>
<polygon fill="midnightblue" stroke="midnightblue" points="1035.51,-122.52 1025.12,-124.58 1034.53,-129.45 1035.51,-122.52"/>
</g>
<!-- Node32&#45;&gt;Node11 -->
<g id="edge65" class="edge">
<title>Node32&#45;&gt;Node11</title>
<path fill="none" stroke="midnightblue" d="M1026.91,-280.49C1002.6,-273.35 969.95,-261.47 945,-244 917.91,-225.03 909.28,-218.29 896,-188 889.66,-173.53 888.14,-155.57 888.08,-142.2"/>
<polygon fill="midnightblue" stroke="midnightblue" points="891.59,-141.91 888.32,-131.84 884.59,-141.76 891.59,-141.91"/>
</g>
<!-- Node32&#45;&gt;Node17 -->
<g id="edge59" class="edge">
<title>Node32&#45;&gt;Node17</title>
<path fill="none" stroke="midnightblue" d="M1006.81,-280.44C936.84,-269.4 816.88,-250.45 756.31,-240.89"/>
<polygon fill="midnightblue" stroke="midnightblue" points="756.84,-237.43 746.42,-239.33 755.75,-244.35 756.84,-237.43"/>
</g>
<!-- Node32&#45;&gt;Node18 -->
<g id="edge61" class="edge">
<title>Node32&#45;&gt;Node18</title>
<path fill="none" stroke="midnightblue" d="M1050.88,-280.32C1041.47,-272.26 1027.26,-260.08 1015.93,-250.37"/>
<polygon fill="midnightblue" stroke="midnightblue" points="1018.18,-247.68 1008.31,-243.83 1013.62,-253 1018.18,-247.68"/>
</g>
<!-- Node32&#45;&gt;Node27 -->
<g id="edge62" class="edge">
<title>Node32&#45;&gt;Node27</title>
<path fill="none" stroke="midnightblue" d="M998.45,-283.32C886.07,-273.12 650.91,-251.78 534.41,-241.21"/>
<polygon fill="midnightblue" stroke="midnightblue" points="534.47,-237.7 524.19,-240.28 533.84,-244.67 534.47,-237.7"/>
</g>
<!-- Node33 -->
<g id="node33" class="node">
<title>Node33</title>
<g id="a_node33"><a xlink:title=" ">
<polygon fill="none" stroke="#bfbfbf" points="1262,-224.5 1262,-243.5 1318,-243.5 1318,-224.5 1262,-224.5"/>
<text text-anchor="middle" x="1290" y="-231.5" font-family="Helvetica,sans-Serif" font-size="10.00">optional</text>
</a>
</g>
</g>
<!-- Node32&#45;&gt;Node33 -->
<g id="edge63" class="edge">
<title>Node32&#45;&gt;Node33</title>
<path fill="none" stroke="midnightblue" d="M1097.29,-280.44C1139.55,-270.48 1209.05,-254.09 1252.03,-243.95"/>
<polygon fill="midnightblue" stroke="midnightblue" points="1252.9,-247.35 1261.83,-241.64 1251.29,-240.53 1252.9,-247.35"/>
</g>
<!-- Node34&#45;&gt;Node4 -->
<g id="edge69" class="edge">
<title>Node34&#45;&gt;Node4</title>
<path fill="none" stroke="midnightblue" d="M923.51,-280.42C977.58,-266.83 1087.56,-240.23 1182,-224 1247.09,-212.81 1433.22,-237.45 1477,-188 1487.97,-175.61 1486.05,-156.09 1482.4,-141.67"/>
<polygon fill="midnightblue" stroke="midnightblue" points="1485.68,-140.42 1479.46,-131.84 1478.97,-142.43 1485.68,-140.42"/>
</g>
<!-- Node34&#45;&gt;Node5 -->
<g id="edge70" class="edge">
<title>Node34&#45;&gt;Node5</title>
<path fill="none" stroke="midnightblue" d="M939.78,-280.48C991.58,-271.57 1075.03,-257.09 1147,-244 1194.17,-235.42 1205.73,-231.99 1253,-224 1359.79,-205.96 1401.98,-245.1 1494,-188 1519.77,-172.01 1523.92,-160.94 1533,-132 1535.66,-123.52 1538.83,-118.71 1533,-112 1502.35,-76.75 1376.48,-68.3 1291.76,-66.71"/>
<polygon fill="midnightblue" stroke="midnightblue" points="1291.7,-63.2 1281.64,-66.54 1291.58,-70.2 1291.7,-63.2"/>
</g>
<!-- Node34&#45;&gt;Node10 -->
<g id="edge73" class="edge">
<title>Node34&#45;&gt;Node10</title>
<path fill="none" stroke="midnightblue" d="M889.02,-280.36C887.06,-258.97 884.89,-202.79 911,-168 925.52,-148.66 950.58,-137.17 970.88,-130.64"/>
<polygon fill="midnightblue" stroke="midnightblue" points="972.09,-133.93 980.69,-127.75 970.11,-127.22 972.09,-133.93"/>
</g>
<!-- Node34&#45;&gt;Node11 -->
<g id="edge74" class="edge">
<title>Node34&#45;&gt;Node11</title>
<path fill="none" stroke="midnightblue" d="M867.53,-280.47C822.78,-262.18 729.64,-216.88 764,-168 769.49,-160.19 820.21,-143.64 855.33,-132.94"/>
<polygon fill="midnightblue" stroke="midnightblue" points="856.66,-136.2 865.22,-129.95 854.63,-129.49 856.66,-136.2"/>
</g>
<!-- Node34&#45;&gt;Node16 -->
<g id="edge67" class="edge">
<title>Node34&#45;&gt;Node16</title>
<path fill="none" stroke="midnightblue" d="M845.32,-280.44C790.25,-269.9 697.64,-252.16 645.89,-242.26"/>
<polygon fill="midnightblue" stroke="midnightblue" points="646.29,-238.77 635.81,-240.32 644.97,-245.64 646.29,-238.77"/>
</g>
<!-- Node34&#45;&gt;Node17 -->
<g id="edge68" class="edge">
<title>Node34&#45;&gt;Node17</title>
<path fill="none" stroke="midnightblue" d="M862.9,-280.44C834.01,-271.32 788.08,-256.81 755.89,-246.65"/>
<polygon fill="midnightblue" stroke="midnightblue" points="756.56,-243.19 745.97,-243.52 754.45,-249.87 756.56,-243.19"/>
</g>
<!-- Node34&#45;&gt;Node18 -->
<g id="edge71" class="edge">
<title>Node34&#45;&gt;Node18</title>
<path fill="none" stroke="midnightblue" d="M907.35,-280.32C924.67,-271.66 951.52,-258.24 971.5,-248.25"/>
<polygon fill="midnightblue" stroke="midnightblue" points="973.31,-251.26 980.69,-243.65 970.18,-245 973.31,-251.26"/>
</g>
<!-- Node34&#45;&gt;Node27 -->
<g id="edge72" class="edge">
<title>Node34&#45;&gt;Node27</title>
<path fill="none" stroke="midnightblue" d="M837.58,-282.32C761.04,-272.58 618.63,-254.44 534.07,-243.67"/>
<polygon fill="midnightblue" stroke="midnightblue" points="534.42,-240.19 524.06,-242.39 533.54,-247.13 534.42,-240.19"/>
</g>
<!-- Node35&#45;&gt;Node27 -->
<g id="edge76" class="edge">
<title>Node35&#45;&gt;Node27</title>
<path fill="none" stroke="midnightblue" d="M430.94,-280.08C436.93,-272.38 445.75,-261.03 453.05,-251.65"/>
<polygon fill="midnightblue" stroke="midnightblue" points="455.82,-253.79 459.19,-243.75 450.29,-249.5 455.82,-253.79"/>
</g>
<!-- Node36 -->
<g id="node36" class="node">
<title>Node36</title>
<g id="a_node36"><a xlink:href="orbital__smearing_8h.html" target="_top" xlink:title=" ">
<polygon fill="none" stroke="black" points="0,-168.5 0,-187.5 146,-187.5 146,-168.5 0,-168.5"/>
<text text-anchor="middle" x="73" y="-175.5" font-family="Helvetica,sans-Serif" font-size="10.00">occ/qm/orbital_smearing.h</text>
</a>
</g>
</g>
<!-- Node35&#45;&gt;Node36 -->
<g id="edge77" class="edge">
<title>Node35&#45;&gt;Node36</title>
<path fill="none" stroke="midnightblue" d="M383.97,-288.5C306.63,-286.75 140.44,-278.91 97,-244 83.1,-232.83 77.25,-212.81 74.79,-197.92"/>
<polygon fill="midnightblue" stroke="midnightblue" points="78.23,-197.25 73.49,-187.78 71.29,-198.14 78.23,-197.25"/>
</g>
<!-- Node36&#45;&gt;Node5 -->
<g id="edge78" class="edge">
<title>Node36&#45;&gt;Node5</title>
<path fill="none" stroke="midnightblue" d="M81.09,-168.2C95.34,-153.37 126.61,-123.89 160,-112 250.52,-79.75 902.06,-70.12 1131.95,-67.71"/>
<polygon fill="midnightblue" stroke="midnightblue" points="1132.28,-71.2 1142.24,-67.6 1132.21,-64.21 1132.28,-71.2"/>
</g>
</g>
</svg>
