<?xml version="1.0" encoding="UTF-8" standalone="no"?>
<!DOCTYPE svg PUBLIC "-//W3C//DTD SVG 1.1//EN"
 "http://www.w3.org/Graphics/SVG/1.1/DTD/svg11.dtd">
<!-- Generated by graphviz version 2.43.0 (0)
 -->
<!-- Title: /home/runner/work/occ/occ/include/occ/main/monomer_wavefunctions.h Pages: 1 -->
<svg width="1622pt" height="434pt"
 viewBox="0.00 0.00 1622.00 434.00" xmlns="http://www.w3.org/2000/svg" xmlns:xlink="http://www.w3.org/1999/xlink">
<g id="graph0" class="graph" transform="scale(1 1) rotate(0) translate(4 430)">
<title>/home/runner/work/occ/occ/include/occ/main/monomer_wavefunctions.h</title>
<!-- Node1 -->
<g id="Node000001" class="node">
<title>Node1</title>
<g id="a_Node000001"><a xlink:title=" ">
<polygon fill="#999999" stroke="#666666" points="431,-426 279,-426 279,-385 431,-385 431,-426"/>
<text text-anchor="start" x="287" y="-414" font-family="Helvetica,sans-Serif" font-size="10.00">/home/runner/work/occ</text>
<text text-anchor="start" x="287" y="-403" font-family="Helvetica,sans-Serif" font-size="10.00">/occ/include/occ/main</text>
<text text-anchor="middle" x="355" y="-392" font-family="Helvetica,sans-Serif" font-size="10.00">/monomer_wavefunctions.h</text>
</a>
</g>
</g>
<!-- Node2 -->
<g id="Node000002" class="node">
<title>Node2</title>
<g id="a_Node000002"><a xlink:href="molecule_8h.html" target="_top" xlink:title=" ">
<polygon fill="white" stroke="#666666" points="180,-239 66,-239 66,-220 180,-220 180,-239"/>
<text text-anchor="middle" x="123" y="-227" font-family="Helvetica,sans-Serif" font-size="10.00">occ/core/molecule.h</text>
</a>
</g>
</g>
<!-- Node1&#45;&gt;Node2 -->
<g id="edge1_Node000001_Node000002" class="edge">
<title>Node1&#45;&gt;Node2</title>
<g id="a_edge1_Node000001_Node000002"><a xlink:title=" ">
<path fill="none" stroke="#63b8ff" d="M328.84,-384.88C281.93,-349.7 184.52,-276.64 142.73,-245.3"/>
<polygon fill="#63b8ff" stroke="#63b8ff" points="144.8,-242.47 134.7,-239.27 140.6,-248.07 144.8,-242.47"/>
</a>
</g>
</g>
<!-- Node13 -->
<g id="Node000013" class="node">
<title>Node13</title>
<g id="a_Node000013"><a xlink:href="wavefunction_8h.html" target="_top" xlink:title=" ">
<polygon fill="white" stroke="#666666" points="781,-349 651,-349 651,-330 781,-330 781,-349"/>
<text text-anchor="middle" x="716" y="-337" font-family="Helvetica,sans-Serif" font-size="10.00">occ/qm/wavefunction.h</text>
</a>
</g>
</g>
<!-- Node1&#45;&gt;Node13 -->
<g id="edge14_Node000001_Node000013" class="edge">
<title>Node1&#45;&gt;Node13</title>
<g id="a_edge14_Node000001_Node000013"><a xlink:title=" ">
<path fill="none" stroke="#63b8ff" d="M431.12,-391.01C498.82,-379 596.37,-361.71 657.95,-350.79"/>
<polygon fill="#63b8ff" stroke="#63b8ff" points="658.65,-354.22 667.89,-349.03 657.43,-347.33 658.65,-354.22"/>
</a>
</g>
</g>
<!-- Node3 -->
<g id="Node000003" class="node">
<title>Node3</title>
<g id="a_Node000003"><a xlink:title=" ">
<polygon fill="#e0e0e0" stroke="#999999" points="372,-129 330,-129 330,-110 372,-110 372,-129"/>
<text text-anchor="middle" x="351" y="-117" font-family="Helvetica,sans-Serif" font-size="10.00">array</text>
</a>
</g>
</g>
<!-- Node2&#45;&gt;Node3 -->
<g id="edge2_Node000002_Node000003" class="edge">
<title>Node2&#45;&gt;Node3</title>
<g id="a_edge2_Node000002_Node000003"><a xlink:title=" ">
<path fill="none" stroke="#63b8ff" d="M141.27,-219.84C181.23,-200.92 276.55,-155.77 323.67,-133.45"/>
<polygon fill="#63b8ff" stroke="#63b8ff" points="325.42,-136.49 332.96,-129.05 322.42,-130.16 325.42,-136.49"/>
</a>
</g>
</g>
<!-- Node4 -->
<g id="Node000004" class="node">
<title>Node4</title>
<g id="a_Node000004"><a xlink:href="atom_8h.html" target="_top" xlink:title=" ">
<polygon fill="white" stroke="#666666" points="592.5,-129 497.5,-129 497.5,-110 592.5,-110 592.5,-129"/>
<text text-anchor="middle" x="545" y="-117" font-family="Helvetica,sans-Serif" font-size="10.00">occ/core/atom.h</text>
</a>
</g>
</g>
<!-- Node2&#45;&gt;Node4 -->
<g id="edge3_Node000002_Node000004" class="edge">
<title>Node2&#45;&gt;Node4</title>
<g id="a_edge3_Node000002_Node000004"><a xlink:title=" ">
<path fill="none" stroke="#63b8ff" d="M180.22,-223.17C291.46,-212.7 526.58,-189.93 533,-184 544.96,-172.94 547.22,-154 546.93,-139.68"/>
<polygon fill="#63b8ff" stroke="#63b8ff" points="550.4,-139.18 546.28,-129.42 543.41,-139.62 550.4,-139.18"/>
</a>
</g>
</g>
<!-- Node5 -->
<g id="Node000005" class="node">
<title>Node5</title>
<g id="a_Node000005"><a xlink:href="linear__algebra_8h.html" target="_top" xlink:title=" ">
<polygon fill="white" stroke="#666666" points="652.5,-74 513.5,-74 513.5,-55 652.5,-55 652.5,-74"/>
<text text-anchor="middle" x="583" y="-62" font-family="Helvetica,sans-Serif" font-size="10.00">occ/core/linear_algebra.h</text>
</a>
</g>
</g>
<!-- Node2&#45;&gt;Node5 -->
<g id="edge12_Node000002_Node000005" class="edge">
<title>Node2&#45;&gt;Node5</title>
<g id="a_edge12_Node000002_Node000005"><a xlink:title=" ">
<path fill="none" stroke="#63b8ff" d="M125.6,-219.76C132.84,-197.15 155.53,-136.68 198,-110 247.25,-79.07 405.56,-69.62 503.17,-66.74"/>
<polygon fill="#63b8ff" stroke="#63b8ff" points="503.4,-70.24 513.3,-66.46 503.21,-63.24 503.4,-70.24"/>
</a>
</g>
</g>
<!-- Node9 -->
<g id="Node000009" class="node">
<title>Node9</title>
<g id="a_Node000009"><a xlink:href="element_8h.html" target="_top" xlink:title=" ">
<polygon fill="white" stroke="#666666" points="994,-184 884,-184 884,-165 994,-165 994,-184"/>
<text text-anchor="middle" x="939" y="-172" font-family="Helvetica,sans-Serif" font-size="10.00">occ/core/element.h</text>
</a>
</g>
</g>
<!-- Node2&#45;&gt;Node9 -->
<g id="edge8_Node000002_Node000009" class="edge">
<title>Node2&#45;&gt;Node9</title>
<g id="a_edge8_Node000002_Node000009"><a xlink:title=" ">
<path fill="none" stroke="#63b8ff" d="M180.2,-223.63C195.41,-222.39 211.82,-221.09 227,-220 464.9,-202.85 747.81,-186.32 873.37,-179.18"/>
<polygon fill="#63b8ff" stroke="#63b8ff" points="873.8,-182.66 883.58,-178.6 873.4,-175.67 873.8,-182.66"/>
</a>
</g>
</g>
<!-- Node12 -->
<g id="Node000012" class="node">
<title>Node12</title>
<g id="a_Node000012"><a xlink:title=" ">
<polygon fill="#e0e0e0" stroke="#999999" points="107.5,-184 66.5,-184 66.5,-165 107.5,-165 107.5,-184"/>
<text text-anchor="middle" x="87" y="-172" font-family="Helvetica,sans-Serif" font-size="10.00">tuple</text>
</a>
</g>
</g>
<!-- Node2&#45;&gt;Node12 -->
<g id="edge13_Node000002_Node000012" class="edge">
<title>Node2&#45;&gt;Node12</title>
<g id="a_edge13_Node000002_Node000012"><a xlink:title=" ">
<path fill="none" stroke="#63b8ff" d="M117.06,-219.75C112.02,-212.34 104.66,-201.5 98.49,-192.41"/>
<polygon fill="#63b8ff" stroke="#63b8ff" points="101.35,-190.39 92.83,-184.09 95.56,-194.33 101.35,-190.39"/>
</a>
</g>
</g>
<!-- Node4&#45;&gt;Node5 -->
<g id="edge4_Node000004_Node000005" class="edge">
<title>Node4&#45;&gt;Node5</title>
<g id="a_edge4_Node000004_Node000005"><a xlink:title=" ">
<path fill="none" stroke="#63b8ff" d="M551.27,-109.75C556.59,-102.34 564.36,-91.5 570.88,-82.41"/>
<polygon fill="#63b8ff" stroke="#63b8ff" points="573.86,-84.26 576.84,-74.09 568.17,-80.18 573.86,-84.26"/>
</a>
</g>
</g>
<!-- Node6 -->
<g id="Node000006" class="node">
<title>Node6</title>
<g id="a_Node000006"><a xlink:title=" ">
<polygon fill="#e0e0e0" stroke="#999999" points="672.5,-19 595.5,-19 595.5,0 672.5,0 672.5,-19"/>
<text text-anchor="middle" x="634" y="-7" font-family="Helvetica,sans-Serif" font-size="10.00">Eigen/Dense</text>
</a>
</g>
</g>
<!-- Node5&#45;&gt;Node6 -->
<g id="edge5_Node000005_Node000006" class="edge">
<title>Node5&#45;&gt;Node6</title>
<g id="a_edge5_Node000005_Node000006"><a xlink:title=" ">
<path fill="none" stroke="#63b8ff" d="M591.42,-54.75C598.77,-47.11 609.63,-35.82 618.54,-26.56"/>
<polygon fill="#63b8ff" stroke="#63b8ff" points="621.32,-28.72 625.74,-19.09 616.28,-23.87 621.32,-28.72"/>
</a>
</g>
</g>
<!-- Node7 -->
<g id="Node000007" class="node">
<title>Node7</title>
<g id="a_Node000007"><a xlink:title=" ">
<polygon fill="#e0e0e0" stroke="#999999" points="577.5,-19 484.5,-19 484.5,0 577.5,0 577.5,-19"/>
<text text-anchor="middle" x="531" y="-7" font-family="Helvetica,sans-Serif" font-size="10.00">Eigen/StdVector</text>
</a>
</g>
</g>
<!-- Node5&#45;&gt;Node7 -->
<g id="edge6_Node000005_Node000007" class="edge">
<title>Node5&#45;&gt;Node7</title>
<g id="a_edge6_Node000005_Node000007"><a xlink:title=" ">
<path fill="none" stroke="#63b8ff" d="M574.41,-54.75C566.84,-47.03 555.62,-35.6 546.49,-26.28"/>
<polygon fill="#63b8ff" stroke="#63b8ff" points="548.93,-23.78 539.43,-19.09 543.93,-28.68 548.93,-23.78"/>
</a>
</g>
</g>
<!-- Node8 -->
<g id="Node000008" class="node">
<title>Node8</title>
<g id="a_Node000008"><a xlink:title=" ">
<polygon fill="#e0e0e0" stroke="#999999" points="305.5,-19 238.5,-19 238.5,0 305.5,0 305.5,-19"/>
<text text-anchor="middle" x="272" y="-7" font-family="Helvetica,sans-Serif" font-size="10.00">fmt/core.h</text>
</a>
</g>
</g>
<!-- Node5&#45;&gt;Node8 -->
<g id="edge7_Node000005_Node000008" class="edge">
<title>Node5&#45;&gt;Node8</title>
<g id="a_edge7_Node000005_Node000008"><a xlink:title=" ">
<path fill="none" stroke="#63b8ff" d="M533.03,-54.98C472.9,-44.74 372.91,-27.7 315.71,-17.95"/>
<polygon fill="#63b8ff" stroke="#63b8ff" points="316,-14.45 305.55,-16.22 314.82,-21.35 316,-14.45"/>
</a>
</g>
</g>
<!-- Node9&#45;&gt;Node5 -->
<g id="edge11_Node000009_Node000005" class="edge">
<title>Node9&#45;&gt;Node5</title>
<g id="a_edge11_Node000009_Node000005"><a xlink:title=" ">
<path fill="none" stroke="#63b8ff" d="M891.86,-165C853,-157.39 796.71,-144.97 749,-129 729.19,-122.37 725.39,-117.78 706,-110 676.55,-98.18 642.6,-86.01 617.84,-77.38"/>
<polygon fill="#63b8ff" stroke="#63b8ff" points="618.76,-74 608.16,-74.03 616.47,-80.61 618.76,-74"/>
</a>
</g>
</g>
<!-- Node10 -->
<g id="Node000010" class="node">
<title>Node10</title>
<g id="a_Node000010"><a xlink:title=" ">
<polygon fill="#e0e0e0" stroke="#999999" points="1333,-129 1289,-129 1289,-110 1333,-110 1333,-129"/>
<text text-anchor="middle" x="1311" y="-117" font-family="Helvetica,sans-Serif" font-size="10.00">string</text>
</a>
</g>
</g>
<!-- Node9&#45;&gt;Node10 -->
<g id="edge9_Node000009_Node000010" class="edge">
<title>Node9&#45;&gt;Node10</title>
<g id="a_edge9_Node000009_Node000010"><a xlink:title=" ">
<path fill="none" stroke="#63b8ff" d="M994.29,-165.62C1072.93,-154.42 1214.59,-134.24 1278.35,-125.15"/>
<polygon fill="#63b8ff" stroke="#63b8ff" points="1279.19,-128.57 1288.6,-123.69 1278.21,-121.64 1279.19,-128.57"/>
</a>
</g>
</g>
<!-- Node11 -->
<g id="Node000011" class="node">
<title>Node11</title>
<g id="a_Node000011"><a xlink:title=" ">
<polygon fill="#e0e0e0" stroke="#999999" points="696.5,-129 649.5,-129 649.5,-110 696.5,-110 696.5,-129"/>
<text text-anchor="middle" x="673" y="-117" font-family="Helvetica,sans-Serif" font-size="10.00">vector</text>
</a>
</g>
</g>
<!-- Node9&#45;&gt;Node11 -->
<g id="edge10_Node000009_Node000011" class="edge">
<title>Node9&#45;&gt;Node11</title>
<g id="a_edge10_Node000009_Node000011"><a xlink:title=" ">
<path fill="none" stroke="#63b8ff" d="M893.5,-165C847.43,-156.3 774.16,-142.22 711,-129 709.55,-128.7 708.08,-128.38 706.58,-128.06"/>
<polygon fill="#63b8ff" stroke="#63b8ff" points="707.21,-124.62 696.7,-125.91 705.72,-131.46 707.21,-124.62"/>
</a>
</g>
</g>
<!-- Node13&#45;&gt;Node5 -->
<g id="edge16_Node000013_Node000005" class="edge">
<title>Node13&#45;&gt;Node5</title>
<g id="a_edge16_Node000013_Node000005"><a xlink:title=" ">
<path fill="none" stroke="#63b8ff" d="M650.86,-338.91C499.91,-338.34 133.26,-327.64 57,-239 -69.05,-92.49 327.08,-69.09 503.13,-65.8"/>
<polygon fill="#63b8ff" stroke="#63b8ff" points="503.44,-69.29 513.38,-65.62 503.32,-62.29 503.44,-69.29"/>
</a>
</g>
</g>
<!-- Node13&#45;&gt;Node8 -->
<g id="edge15_Node000013_Node000008" class="edge">
<title>Node13&#45;&gt;Node8</title>
<g id="a_edge15_Node000013_Node000008"><a xlink:title=" ">
<path fill="none" stroke="#63b8ff" d="M650.99,-337.35C516.16,-334.36 210.4,-324.37 111,-294 56.64,-277.39 0,-287.34 0,-230.5 0,-230.5 0,-230.5 0,-118.5 0,-69.94 151.68,-33.68 228.5,-18.43"/>
<polygon fill="#63b8ff" stroke="#63b8ff" points="229.23,-21.85 238.37,-16.5 227.89,-14.98 229.23,-21.85"/>
</a>
</g>
</g>
<!-- Node14 -->
<g id="Node000014" class="node">
<title>Node14</title>
<g id="a_Node000014"><a xlink:href="fchkreader_8h.html" target="_top" xlink:title=" ">
<polygon fill="white" stroke="#666666" points="812.5,-294 703.5,-294 703.5,-275 812.5,-275 812.5,-294"/>
<text text-anchor="middle" x="758" y="-282" font-family="Helvetica,sans-Serif" font-size="10.00">occ/io/fchkreader.h</text>
</a>
</g>
</g>
<!-- Node13&#45;&gt;Node14 -->
<g id="edge17_Node000013_Node000014" class="edge">
<title>Node13&#45;&gt;Node14</title>
<g id="a_edge17_Node000013_Node000014"><a xlink:title=" ">
<path fill="none" stroke="#63b8ff" d="M722.94,-329.75C728.87,-322.26 737.57,-311.28 744.82,-302.13"/>
<polygon fill="#63b8ff" stroke="#63b8ff" points="747.73,-304.1 751.19,-294.09 742.24,-299.75 747.73,-304.1"/>
</a>
</g>
</g>
<!-- Node17 -->
<g id="Node000017" class="node">
<title>Node17</title>
<g id="a_Node000017"><a xlink:href="shell_8h.html" target="_top" xlink:title=" ">
<polygon fill="white" stroke="#666666" points="742.5,-239 655.5,-239 655.5,-220 742.5,-220 742.5,-239"/>
<text text-anchor="middle" x="699" y="-227" font-family="Helvetica,sans-Serif" font-size="10.00">occ/qm/shell.h</text>
</a>
</g>
</g>
<!-- Node13&#45;&gt;Node17 -->
<g id="edge79_Node000013_Node000017" class="edge">
<title>Node13&#45;&gt;Node17</title>
<g id="a_edge79_Node000013_Node000017"><a xlink:title=" ">
<path fill="none" stroke="#63b8ff" d="M710.42,-329.72C705.26,-321.03 697.95,-307.17 695,-294 691.67,-279.16 693.08,-261.92 695.09,-249.15"/>
<polygon fill="#63b8ff" stroke="#63b8ff" points="698.55,-249.72 696.91,-239.25 691.66,-248.45 698.55,-249.72"/>
</a>
</g>
</g>
<!-- Node26 -->
<g id="Node000026" class="node">
<title>Node26</title>
<g id="a_Node000026"><a xlink:href="spinorbital_8h.html" target="_top" xlink:title=" ">
<polygon fill="white" stroke="#666666" points="1260,-239 1144,-239 1144,-220 1260,-220 1260,-239"/>
<text text-anchor="middle" x="1202" y="-227" font-family="Helvetica,sans-Serif" font-size="10.00">occ/qm/spinorbital.h</text>
</a>
</g>
</g>
<!-- Node13&#45;&gt;Node26 -->
<g id="edge80_Node000013_Node000026" class="edge">
<title>Node13&#45;&gt;Node26</title>
<g id="a_edge80_Node000013_Node000026"><a xlink:title=" ">
<path fill="none" stroke="#63b8ff" d="M767.95,-329.96C814.39,-321.94 884.14,-308.97 944,-294 971.96,-287.01 978.15,-282.42 1006,-275 1054.54,-262.07 1110.48,-249.61 1150.13,-241.18"/>
<polygon fill="#63b8ff" stroke="#63b8ff" points="1151.04,-244.56 1160.1,-239.07 1149.6,-237.72 1151.04,-244.56"/>
</a>
</g>
</g>
<!-- Node28 -->
<g id="Node000028" class="node">
<title>Node28</title>
<g id="a_Node000028"><a xlink:href="fchkwriter_8h.html" target="_top" xlink:title=" ">
<polygon fill="white" stroke="#666666" points="596,-294 490,-294 490,-275 596,-275 596,-294"/>
<text text-anchor="middle" x="543" y="-282" font-family="Helvetica,sans-Serif" font-size="10.00">occ/io/fchkwriter.h</text>
</a>
</g>
</g>
<!-- Node13&#45;&gt;Node28 -->
<g id="edge48_Node000013_Node000028" class="edge">
<title>Node13&#45;&gt;Node28</title>
<g id="a_edge48_Node000013_Node000028"><a xlink:title=" ">
<path fill="none" stroke="#63b8ff" d="M688.2,-329.98C659.03,-321.05 613,-306.94 580.6,-297.02"/>
<polygon fill="#63b8ff" stroke="#63b8ff" points="581.6,-293.66 571.01,-294.08 579.55,-300.36 581.6,-293.66"/>
</a>
</g>
</g>
<!-- Node31 -->
<g id="Node000031" class="node">
<title>Node31</title>
<g id="a_Node000031"><a xlink:href="moldenreader_8h.html" target="_top" xlink:title=" ">
<polygon fill="white" stroke="#666666" points="1139.5,-294 1014.5,-294 1014.5,-275 1139.5,-275 1139.5,-294"/>
<text text-anchor="middle" x="1077" y="-282" font-family="Helvetica,sans-Serif" font-size="10.00">occ/io/moldenreader.h</text>
</a>
</g>
</g>
<!-- Node13&#45;&gt;Node31 -->
<g id="edge58_Node000013_Node000031" class="edge">
<title>Node13&#45;&gt;Node31</title>
<g id="a_edge58_Node000013_Node000031"><a xlink:title=" ">
<path fill="none" stroke="#63b8ff" d="M774,-329.98C837.98,-320.59 940.85,-305.49 1008.68,-295.53"/>
<polygon fill="#63b8ff" stroke="#63b8ff" points="1009.46,-298.95 1018.84,-294.04 1008.44,-292.03 1009.46,-298.95"/>
</a>
</g>
</g>
<!-- Node33 -->
<g id="Node000033" class="node">
<title>Node33</title>
<g id="a_Node000033"><a xlink:href="orca__json_8h.html" target="_top" xlink:title=" ">
<polygon fill="white" stroke="#666666" points="935,-294 831,-294 831,-275 935,-275 935,-294"/>
<text text-anchor="middle" x="883" y="-282" font-family="Helvetica,sans-Serif" font-size="10.00">occ/io/orca_json.h</text>
</a>
</g>
</g>
<!-- Node13&#45;&gt;Node33 -->
<g id="edge66_Node000013_Node000033" class="edge">
<title>Node13&#45;&gt;Node33</title>
<g id="a_edge66_Node000013_Node000033"><a xlink:title=" ">
<path fill="none" stroke="#63b8ff" d="M742.83,-329.98C770.87,-321.09 815.05,-307.07 846.3,-297.15"/>
<polygon fill="#63b8ff" stroke="#63b8ff" points="847.49,-300.44 855.96,-294.08 845.37,-293.77 847.49,-300.44"/>
</a>
</g>
</g>
<!-- Node34 -->
<g id="Node000034" class="node">
<title>Node34</title>
<g id="a_Node000034"><a xlink:href="mo_8h.html" target="_top" xlink:title=" ">
<polygon fill="white" stroke="#666666" points="1242,-294 1162,-294 1162,-275 1242,-275 1242,-294"/>
<text text-anchor="middle" x="1202" y="-282" font-family="Helvetica,sans-Serif" font-size="10.00">occ/qm/mo.h</text>
</a>
</g>
</g>
<!-- Node13&#45;&gt;Node34 -->
<g id="edge75_Node000013_Node000034" class="edge">
<title>Node13&#45;&gt;Node34</title>
<g id="a_edge75_Node000013_Node000034"><a xlink:title=" ">
<path fill="none" stroke="#63b8ff" d="M781.06,-332.97C865.89,-325.5 1018.82,-311.11 1149,-294 1149.91,-293.88 1150.83,-293.76 1151.75,-293.63"/>
<polygon fill="#63b8ff" stroke="#63b8ff" points="1152.41,-297.07 1161.81,-292.19 1151.42,-290.14 1152.41,-297.07"/>
</a>
</g>
</g>
<!-- Node14&#45;&gt;Node5 -->
<g id="edge20_Node000014_Node000005" class="edge">
<title>Node14&#45;&gt;Node5</title>
<g id="a_edge20_Node000014_Node000005"><a xlink:title=" ">
<path fill="none" stroke="#63b8ff" d="M735.27,-274.94C712.69,-266.31 677.18,-252.38 647,-239 629.37,-231.19 626.42,-225.69 608,-220 502.85,-187.52 457.83,-239.85 363,-184 336.5,-168.39 330.85,-158.14 321,-129 318.29,-121 315.55,-116.45 321,-110 344.01,-82.76 434.74,-72.19 503.03,-68.09"/>
<polygon fill="#63b8ff" stroke="#63b8ff" points="503.57,-71.57 513.36,-67.51 503.18,-64.58 503.57,-71.57"/>
</a>
</g>
</g>
<!-- Node14&#45;&gt;Node11 -->
<g id="edge47_Node000014_Node000011" class="edge">
<title>Node14&#45;&gt;Node11</title>
<g id="a_edge47_Node000014_Node000011"><a xlink:title=" ">
<path fill="none" stroke="#63b8ff" d="M758.47,-274.79C759.17,-253.77 758.24,-199.42 733,-165 723.83,-152.5 710.15,-141.97 698.16,-134.3"/>
<polygon fill="#63b8ff" stroke="#63b8ff" points="699.79,-131.19 689.43,-129 696.16,-137.18 699.79,-131.19"/>
</a>
</g>
</g>
<!-- Node15 -->
<g id="Node000015" class="node">
<title>Node15</title>
<g id="a_Node000015"><a xlink:title=" ">
<polygon fill="#e0e0e0" stroke="#999999" points="598.5,-239 543.5,-239 543.5,-220 598.5,-220 598.5,-239"/>
<text text-anchor="middle" x="571" y="-227" font-family="Helvetica,sans-Serif" font-size="10.00">fstream</text>
</a>
</g>
</g>
<!-- Node14&#45;&gt;Node15 -->
<g id="edge18_Node000014_Node000015" class="edge">
<title>Node14&#45;&gt;Node15</title>
<g id="a_edge18_Node000014_Node000015"><a xlink:title=" ">
<path fill="none" stroke="#63b8ff" d="M727.96,-274.98C695.44,-265.77 643.55,-251.06 608.41,-241.1"/>
<polygon fill="#63b8ff" stroke="#63b8ff" points="609.11,-237.66 598.53,-238.3 607.2,-244.4 609.11,-237.66"/>
</a>
</g>
</g>
<!-- Node16 -->
<g id="Node000016" class="node">
<title>Node16</title>
<g id="a_Node000016"><a xlink:title=" ">
<polygon fill="#e0e0e0" stroke="#999999" points="853,-239 799,-239 799,-220 853,-220 853,-239"/>
<text text-anchor="middle" x="826" y="-227" font-family="Helvetica,sans-Serif" font-size="10.00">istream</text>
</a>
</g>
</g>
<!-- Node14&#45;&gt;Node16 -->
<g id="edge19_Node000014_Node000016" class="edge">
<title>Node14&#45;&gt;Node16</title>
<g id="a_edge19_Node000014_Node000016"><a xlink:title=" ">
<path fill="none" stroke="#63b8ff" d="M768.93,-274.98C779.08,-267.07 794.42,-255.11 806.65,-245.58"/>
<polygon fill="#63b8ff" stroke="#63b8ff" points="809.14,-248.08 814.88,-239.17 804.84,-242.56 809.14,-248.08"/>
</a>
</g>
</g>
<!-- Node14&#45;&gt;Node17 -->
<g id="edge21_Node000014_Node000017" class="edge">
<title>Node14&#45;&gt;Node17</title>
<g id="a_edge21_Node000014_Node000017"><a xlink:title=" ">
<path fill="none" stroke="#63b8ff" d="M748.52,-274.98C739.8,-267.15 726.66,-255.34 716.1,-245.86"/>
<polygon fill="#63b8ff" stroke="#63b8ff" points="718.43,-243.25 708.65,-239.17 713.75,-248.46 718.43,-243.25"/>
</a>
</g>
</g>
<!-- Node14&#45;&gt;Node26 -->
<g id="edge42_Node000014_Node000026" class="edge">
<title>Node14&#45;&gt;Node26</title>
<g id="a_edge42_Node000014_Node000026"><a xlink:title=" ">
<path fill="none" stroke="#63b8ff" d="M812.81,-276.16C815.92,-275.77 819,-275.38 822,-275 930.75,-261.41 1057.16,-246.85 1133.3,-238.22"/>
<polygon fill="#63b8ff" stroke="#63b8ff" points="1134.16,-241.65 1143.7,-237.04 1133.37,-234.69 1134.16,-241.65"/>
</a>
</g>
</g>
<!-- Node17&#45;&gt;Node3 -->
<g id="edge22_Node000017_Node000003" class="edge">
<title>Node17&#45;&gt;Node3</title>
<g id="a_edge22_Node000017_Node000003"><a xlink:title=" ">
<path fill="none" stroke="#63b8ff" d="M655.3,-222.06C650.48,-221.36 645.63,-220.66 641,-220 583.69,-211.8 430.07,-217.7 383,-184 368.12,-173.35 359.75,-153.74 355.33,-139.13"/>
<polygon fill="#63b8ff" stroke="#63b8ff" points="358.63,-137.92 352.68,-129.15 351.86,-139.71 358.63,-137.92"/>
</a>
</g>
</g>
<!-- Node17&#45;&gt;Node4 -->
<g id="edge24_Node000017_Node000004" class="edge">
<title>Node17&#45;&gt;Node4</title>
<g id="a_edge24_Node000017_Node000004"><a xlink:title=" ">
<path fill="none" stroke="#63b8ff" d="M679.26,-219.97C661.48,-211.87 634.98,-198.76 614,-184 593.74,-169.75 573.19,-150.01 559.85,-136.34"/>
<polygon fill="#63b8ff" stroke="#63b8ff" points="562.34,-133.87 552.89,-129.08 557.29,-138.72 562.34,-133.87"/>
</a>
</g>
</g>
<!-- Node17&#45;&gt;Node5 -->
<g id="edge25_Node000017_Node000005" class="edge">
<title>Node17&#45;&gt;Node5</title>
<g id="a_edge25_Node000017_Node000005"><a xlink:title=" ">
<path fill="none" stroke="#63b8ff" d="M692.76,-219.74C674.35,-193.87 619.99,-117.48 595.37,-82.88"/>
<polygon fill="#63b8ff" stroke="#63b8ff" points="597.92,-80.43 589.27,-74.31 592.21,-84.48 597.92,-80.43"/>
</a>
</g>
</g>
<!-- Node17&#45;&gt;Node8 -->
<g id="edge23_Node000017_Node000008" class="edge">
<title>Node17&#45;&gt;Node8</title>
<g id="a_edge23_Node000017_Node000008"><a xlink:title=" ">
<path fill="none" stroke="#63b8ff" d="M655.35,-223.62C567.26,-213.64 375.52,-191.26 363,-184 305.39,-150.62 282.68,-66.84 275.18,-29.26"/>
<polygon fill="#63b8ff" stroke="#63b8ff" points="278.57,-28.38 273.31,-19.19 271.69,-29.66 278.57,-28.38"/>
</a>
</g>
</g>
<!-- Node17&#45;&gt;Node11 -->
<g id="edge41_Node000017_Node000011" class="edge">
<title>Node17&#45;&gt;Node11</title>
<g id="a_edge41_Node000017_Node000011"><a xlink:title=" ">
<path fill="none" stroke="#63b8ff" d="M705.41,-219.67C713.62,-207.22 725.89,-183.9 718,-165 713.14,-153.36 703.58,-143.2 694.52,-135.55"/>
<polygon fill="#63b8ff" stroke="#63b8ff" points="696.52,-132.67 686.49,-129.25 692.2,-138.17 696.52,-132.67"/>
</a>
</g>
</g>
<!-- Node18 -->
<g id="Node000018" class="node">
<title>Node18</title>
<g id="a_Node000018"><a xlink:href="point__charge_8h.html" target="_top" xlink:title=" ">
<polygon fill="white" stroke="#666666" points="524,-184 392,-184 392,-165 524,-165 524,-184"/>
<text text-anchor="middle" x="458" y="-172" font-family="Helvetica,sans-Serif" font-size="10.00">occ/core/point_charge.h</text>
</a>
</g>
</g>
<!-- Node17&#45;&gt;Node18 -->
<g id="edge26_Node000017_Node000018" class="edge">
<title>Node17&#45;&gt;Node18</title>
<g id="a_edge26_Node000017_Node000018"><a xlink:title=" ">
<path fill="none" stroke="#63b8ff" d="M660.28,-219.98C618.59,-210.82 552.18,-196.21 506.91,-186.26"/>
<polygon fill="#63b8ff" stroke="#63b8ff" points="507.54,-182.81 497.02,-184.08 506.04,-189.65 507.54,-182.81"/>
</a>
</g>
</g>
<!-- Node19 -->
<g id="Node000019" class="node">
<title>Node19</title>
<g id="a_Node000019"><a xlink:href="util_8h.html" target="_top" xlink:title=" ">
<polygon fill="white" stroke="#666666" points="1097.5,-184 1012.5,-184 1012.5,-165 1097.5,-165 1097.5,-184"/>
<text text-anchor="middle" x="1055" y="-172" font-family="Helvetica,sans-Serif" font-size="10.00">occ/core/util.h</text>
</a>
</g>
</g>
<!-- Node17&#45;&gt;Node19 -->
<g id="edge30_Node000017_Node000019" class="edge">
<title>Node17&#45;&gt;Node19</title>
<g id="a_edge30_Node000017_Node000019"><a xlink:title=" ">
<path fill="none" stroke="#63b8ff" d="M742.58,-222.35C799.74,-214.24 903.4,-199.35 1002.55,-184.05"/>
<polygon fill="#63b8ff" stroke="#63b8ff" points="1003.09,-187.5 1012.44,-182.52 1002.02,-180.59 1003.09,-187.5"/>
</a>
</g>
</g>
<!-- Node18&#45;&gt;Node3 -->
<g id="edge27_Node000018_Node000003" class="edge">
<title>Node18&#45;&gt;Node3</title>
<g id="a_edge27_Node000018_Node000003"><a xlink:title=" ">
<path fill="none" stroke="#63b8ff" d="M440.81,-164.98C423.75,-156.54 397.37,-143.47 377.6,-133.68"/>
<polygon fill="#63b8ff" stroke="#63b8ff" points="379.02,-130.47 368.5,-129.17 375.91,-136.75 379.02,-130.47"/>
</a>
</g>
</g>
<!-- Node18&#45;&gt;Node4 -->
<g id="edge28_Node000018_Node000004" class="edge">
<title>Node18&#45;&gt;Node4</title>
<g id="a_edge28_Node000018_Node000004"><a xlink:title=" ">
<path fill="none" stroke="#63b8ff" d="M471.98,-164.98C485.47,-156.77 506.13,-144.18 522.04,-134.49"/>
<polygon fill="#63b8ff" stroke="#63b8ff" points="524.05,-137.36 530.77,-129.17 520.41,-131.38 524.05,-137.36"/>
</a>
</g>
</g>
<!-- Node18&#45;&gt;Node5 -->
<g id="edge29_Node000018_Node000005" class="edge">
<title>Node18&#45;&gt;Node5</title>
<g id="a_edge29_Node000018_Node000005"><a xlink:title=" ">
<path fill="none" stroke="#63b8ff" d="M460.29,-164.58C464.15,-151.17 473.12,-125.69 489,-110 503.92,-95.26 524.64,-84.74 542.84,-77.64"/>
<polygon fill="#63b8ff" stroke="#63b8ff" points="544.18,-80.87 552.36,-74.14 541.76,-74.3 544.18,-80.87"/>
</a>
</g>
</g>
<!-- Node19&#45;&gt;Node5 -->
<g id="edge38_Node000019_Node000005" class="edge">
<title>Node19&#45;&gt;Node5</title>
<g id="a_edge38_Node000019_Node000005"><a xlink:title=" ">
<path fill="none" stroke="#63b8ff" d="M1097.95,-166.15C1150.32,-156.76 1233.03,-140.36 1242,-129 1247.23,-122.37 1247.77,-116.17 1242,-110 1203.22,-68.51 829.83,-64.59 662.93,-64.93"/>
<polygon fill="#63b8ff" stroke="#63b8ff" points="662.71,-61.43 652.72,-64.96 662.73,-68.43 662.71,-61.43"/>
</a>
</g>
</g>
<!-- Node19&#45;&gt;Node8 -->
<g id="edge34_Node000019_Node000008" class="edge">
<title>Node19&#45;&gt;Node8</title>
<g id="a_edge34_Node000019_Node000008"><a xlink:title=" ">
<path fill="none" stroke="#63b8ff" d="M1012.43,-166.54C1009.24,-166.02 1006.07,-165.5 1003,-165 904.78,-148.97 875.24,-163.78 782,-129 723.29,-107.1 721.21,-75.49 662,-55 598.88,-33.16 403.74,-18.67 315.78,-13.09"/>
<polygon fill="#63b8ff" stroke="#63b8ff" points="315.8,-9.58 305.61,-12.45 315.37,-16.57 315.8,-9.58"/>
</a>
</g>
</g>
<!-- Node19&#45;&gt;Node10 -->
<g id="edge39_Node000019_Node000010" class="edge">
<title>Node19&#45;&gt;Node10</title>
<g id="a_edge39_Node000019_Node000010"><a xlink:title=" ">
<path fill="none" stroke="#63b8ff" d="M1097.67,-165.29C1142.06,-156.66 1213.53,-142.47 1275,-129 1276.27,-128.72 1277.56,-128.43 1278.87,-128.14"/>
<polygon fill="#63b8ff" stroke="#63b8ff" points="1279.98,-131.48 1288.94,-125.83 1278.41,-124.66 1279.98,-131.48"/>
</a>
</g>
</g>
<!-- Node19&#45;&gt;Node11 -->
<g id="edge40_Node000019_Node000011" class="edge">
<title>Node19&#45;&gt;Node11</title>
<g id="a_edge40_Node000019_Node000011"><a xlink:title=" ">
<path fill="none" stroke="#63b8ff" d="M1012.45,-166.44C1009.25,-165.95 1006.08,-165.46 1003,-165 894.85,-148.87 766.37,-132.28 706.64,-124.72"/>
<polygon fill="#63b8ff" stroke="#63b8ff" points="707,-121.24 696.64,-123.46 706.12,-128.18 707,-121.24"/>
</a>
</g>
</g>
<!-- Node20 -->
<g id="Node000020" class="node">
<title>Node20</title>
<g id="a_Node000020"><a xlink:title=" ">
<polygon fill="#e0e0e0" stroke="#999999" points="1097,-129 1033,-129 1033,-110 1097,-110 1097,-129"/>
<text text-anchor="middle" x="1065" y="-117" font-family="Helvetica,sans-Serif" font-size="10.00">algorithm</text>
</a>
</g>
</g>
<!-- Node19&#45;&gt;Node20 -->
<g id="edge31_Node000019_Node000020" class="edge">
<title>Node19&#45;&gt;Node20</title>
<g id="a_edge31_Node000019_Node000020"><a xlink:title=" ">
<path fill="none" stroke="#63b8ff" d="M1056.65,-164.75C1057.96,-157.8 1059.84,-147.85 1061.48,-139.13"/>
<polygon fill="#63b8ff" stroke="#63b8ff" points="1064.96,-139.56 1063.38,-129.09 1058.09,-138.27 1064.96,-139.56"/>
</a>
</g>
</g>
<!-- Node21 -->
<g id="Node000021" class="node">
<title>Node21</title>
<g id="a_Node000021"><a xlink:title=" ">
<polygon fill="#e0e0e0" stroke="#999999" points="1164.5,-129 1115.5,-129 1115.5,-110 1164.5,-110 1164.5,-129"/>
<text text-anchor="middle" x="1140" y="-117" font-family="Helvetica,sans-Serif" font-size="10.00">cctype</text>
</a>
</g>
</g>
<!-- Node19&#45;&gt;Node21 -->
<g id="edge32_Node000019_Node000021" class="edge">
<title>Node19&#45;&gt;Node21</title>
<g id="a_edge32_Node000019_Node000021"><a xlink:title=" ">
<path fill="none" stroke="#63b8ff" d="M1068.66,-164.98C1081.84,-156.77 1102.03,-144.18 1117.57,-134.49"/>
<polygon fill="#63b8ff" stroke="#63b8ff" points="1119.46,-137.43 1126.09,-129.17 1115.76,-131.49 1119.46,-137.43"/>
</a>
</g>
</g>
<!-- Node22 -->
<g id="Node000022" class="node">
<title>Node22</title>
<g id="a_Node000022"><a xlink:title=" ">
<polygon fill="#e0e0e0" stroke="#999999" points="1233,-129 1183,-129 1183,-110 1233,-110 1233,-129"/>
<text text-anchor="middle" x="1208" y="-117" font-family="Helvetica,sans-Serif" font-size="10.00">chrono</text>
</a>
</g>
</g>
<!-- Node19&#45;&gt;Node22 -->
<g id="edge33_Node000019_Node000022" class="edge">
<title>Node19&#45;&gt;Node22</title>
<g id="a_edge33_Node000019_Node000022"><a xlink:title=" ">
<path fill="none" stroke="#63b8ff" d="M1079.58,-164.98C1105.05,-156.16 1145.04,-142.31 1173.63,-132.41"/>
<polygon fill="#63b8ff" stroke="#63b8ff" points="1174.92,-135.66 1183.23,-129.08 1172.63,-129.05 1174.92,-135.66"/>
</a>
</g>
</g>
<!-- Node23 -->
<g id="Node000023" class="node">
<title>Node23</title>
<g id="a_Node000023"><a xlink:title=" ">
<polygon fill="#e0e0e0" stroke="#999999" points="877,-129 791,-129 791,-110 877,-110 877,-129"/>
<text text-anchor="middle" x="834" y="-117" font-family="Helvetica,sans-Serif" font-size="10.00">fmt/ostream.h</text>
</a>
</g>
</g>
<!-- Node19&#45;&gt;Node23 -->
<g id="edge35_Node000019_Node000023" class="edge">
<title>Node19&#45;&gt;Node23</title>
<g id="a_edge35_Node000019_Node000023"><a xlink:title=" ">
<path fill="none" stroke="#63b8ff" d="M1019.49,-164.98C981.51,-155.87 921.13,-141.4 879.64,-131.45"/>
<polygon fill="#63b8ff" stroke="#63b8ff" points="880.33,-128.01 869.79,-129.08 878.69,-134.82 880.33,-128.01"/>
</a>
</g>
</g>
<!-- Node24 -->
<g id="Node000024" class="node">
<title>Node24</title>
<g id="a_Node000024"><a xlink:title=" ">
<polygon fill="#e0e0e0" stroke="#999999" points="941,-129 895,-129 895,-110 941,-110 941,-129"/>
<text text-anchor="middle" x="918" y="-117" font-family="Helvetica,sans-Serif" font-size="10.00">locale</text>
</a>
</g>
</g>
<!-- Node19&#45;&gt;Node24 -->
<g id="edge36_Node000019_Node000024" class="edge">
<title>Node19&#45;&gt;Node24</title>
<g id="a_edge36_Node000019_Node000024"><a xlink:title=" ">
<path fill="none" stroke="#63b8ff" d="M1032.99,-164.98C1010.55,-156.3 975.52,-142.75 950.01,-132.88"/>
<polygon fill="#63b8ff" stroke="#63b8ff" points="951,-129.51 940.41,-129.17 948.48,-136.04 951,-129.51"/>
</a>
</g>
</g>
<!-- Node25 -->
<g id="Node000025" class="node">
<title>Node25</title>
<g id="a_Node000025"><a xlink:title=" ">
<polygon fill="#e0e0e0" stroke="#999999" points="1015,-129 959,-129 959,-110 1015,-110 1015,-129"/>
<text text-anchor="middle" x="987" y="-117" font-family="Helvetica,sans-Serif" font-size="10.00">numeric</text>
</a>
</g>
</g>
<!-- Node19&#45;&gt;Node25 -->
<g id="edge37_Node000019_Node000025" class="edge">
<title>Node19&#45;&gt;Node25</title>
<g id="a_edge37_Node000019_Node000025"><a xlink:title=" ">
<path fill="none" stroke="#63b8ff" d="M1044.07,-164.98C1033.92,-157.07 1018.58,-145.11 1006.35,-135.58"/>
<polygon fill="#63b8ff" stroke="#63b8ff" points="1008.16,-132.56 998.12,-129.17 1003.86,-138.08 1008.16,-132.56"/>
</a>
</g>
</g>
<!-- Node26&#45;&gt;Node5 -->
<g id="edge43_Node000026_Node000005" class="edge">
<title>Node26&#45;&gt;Node5</title>
<g id="a_edge43_Node000026_Node000005"><a xlink:title=" ">
<path fill="none" stroke="#63b8ff" d="M1227.35,-219.93C1278.39,-201.44 1385.15,-155.75 1342,-110 1318.96,-85.57 852.91,-71.86 662.75,-67.26"/>
<polygon fill="#63b8ff" stroke="#63b8ff" points="662.62,-63.76 652.54,-67.02 662.45,-70.76 662.62,-63.76"/>
</a>
</g>
</g>
<!-- Node26&#45;&gt;Node19 -->
<g id="edge44_Node000026_Node000019" class="edge">
<title>Node26&#45;&gt;Node19</title>
<g id="a_edge44_Node000026_Node000019"><a xlink:title=" ">
<path fill="none" stroke="#63b8ff" d="M1178.38,-219.98C1154.1,-211.23 1116.05,-197.51 1088.63,-187.62"/>
<polygon fill="#63b8ff" stroke="#63b8ff" points="1089.64,-184.27 1079.05,-184.17 1087.27,-190.85 1089.64,-184.27"/>
</a>
</g>
</g>
<!-- Node27 -->
<g id="Node000027" class="node">
<title>Node27</title>
<g id="a_Node000027"><a xlink:href="qm_2opmatrix_8h.html" target="_top" xlink:title=" ">
<polygon fill="white" stroke="#666666" points="1262,-184 1154,-184 1154,-165 1262,-165 1262,-184"/>
<text text-anchor="middle" x="1208" y="-172" font-family="Helvetica,sans-Serif" font-size="10.00">occ/qm/opmatrix.h</text>
</a>
</g>
</g>
<!-- Node26&#45;&gt;Node27 -->
<g id="edge45_Node000026_Node000027" class="edge">
<title>Node26&#45;&gt;Node27</title>
<g id="a_edge45_Node000026_Node000027"><a xlink:title=" ">
<path fill="none" stroke="#63b8ff" d="M1197.82,-219.75C1197.11,-212.72 1197.82,-202.62 1199.47,-193.84"/>
<polygon fill="#63b8ff" stroke="#63b8ff" points="1202.87,-194.64 1201.9,-184.09 1196.08,-192.95 1202.87,-194.64"/>
</a>
</g>
</g>
<!-- Node27&#45;&gt;Node26 -->
<g id="edge46_Node000027_Node000026" class="edge">
<title>Node27&#45;&gt;Node26</title>
<g id="a_edge46_Node000027_Node000026"><a xlink:title=" ">
<path fill="none" stroke="#63b8ff" d="M1212.16,-184.09C1212.9,-191.06 1212.2,-201.15 1210.57,-209.95"/>
<polygon fill="#63b8ff" stroke="#63b8ff" points="1207.15,-209.2 1208.16,-219.75 1213.95,-210.88 1207.15,-209.2"/>
</a>
</g>
</g>
<!-- Node28&#45;&gt;Node3 -->
<g id="edge50_Node000028_Node000003" class="edge">
<title>Node28&#45;&gt;Node3</title>
<g id="a_edge50_Node000028_Node000003"><a xlink:title=" ">
<path fill="none" stroke="#63b8ff" d="M489.68,-284.05C408.65,-283.61 260.39,-277.42 227,-239 221.46,-232.63 223.35,-227.61 227,-220 246.71,-178.91 292.59,-149.43 322.67,-133.68"/>
<polygon fill="#63b8ff" stroke="#63b8ff" points="324.48,-136.68 331.83,-129.05 321.33,-130.43 324.48,-136.68"/>
</a>
</g>
</g>
<!-- Node28&#45;&gt;Node5 -->
<g id="edge53_Node000028_Node000005" class="edge">
<title>Node28&#45;&gt;Node5</title>
<g id="a_edge53_Node000028_Node000005"><a xlink:title=" ">
<path fill="none" stroke="#63b8ff" d="M534.31,-274.98C519.67,-261.14 488.59,-233.92 457,-220 381.15,-186.57 326.65,-248.02 274,-184 253.11,-158.6 252.47,-134.86 274,-110 303.1,-76.41 421.71,-67.59 503.22,-65.6"/>
<polygon fill="#63b8ff" stroke="#63b8ff" points="503.54,-69.09 513.46,-65.38 503.39,-62.09 503.54,-69.09"/>
</a>
</g>
</g>
<!-- Node28&#45;&gt;Node11 -->
<g id="edge57_Node000028_Node000011" class="edge">
<title>Node28&#45;&gt;Node11</title>
<g id="a_edge57_Node000028_Node000011"><a xlink:title=" ">
<path fill="none" stroke="#63b8ff" d="M538.89,-274.74C533.54,-261.96 525.89,-237.8 535,-220 557.05,-176.92 607.39,-148.23 640.79,-133.16"/>
<polygon fill="#63b8ff" stroke="#63b8ff" points="642.36,-136.29 650.14,-129.09 639.57,-129.87 642.36,-136.29"/>
</a>
</g>
</g>
<!-- Node28&#45;&gt;Node15 -->
<g id="edge51_Node000028_Node000015" class="edge">
<title>Node28&#45;&gt;Node15</title>
<g id="a_edge51_Node000028_Node000015"><a xlink:title=" ">
<path fill="none" stroke="#63b8ff" d="M547.62,-274.75C551.46,-267.49 557.02,-256.95 561.76,-247.98"/>
<polygon fill="#63b8ff" stroke="#63b8ff" points="564.89,-249.57 566.46,-239.09 558.7,-246.3 564.89,-249.57"/>
</a>
</g>
</g>
<!-- Node28&#45;&gt;Node16 -->
<g id="edge52_Node000028_Node000016" class="edge">
<title>Node28&#45;&gt;Node16</title>
<g id="a_edge52_Node000028_Node000016"><a xlink:title=" ">
<path fill="none" stroke="#63b8ff" d="M588.47,-274.98C644.16,-264.55 737.43,-247.09 788.97,-237.44"/>
<polygon fill="#63b8ff" stroke="#63b8ff" points="789.81,-240.84 799,-235.56 788.53,-233.96 789.81,-240.84"/>
</a>
</g>
</g>
<!-- Node28&#45;&gt;Node17 -->
<g id="edge54_Node000028_Node000017" class="edge">
<title>Node28&#45;&gt;Node17</title>
<g id="a_edge54_Node000028_Node000017"><a xlink:title=" ">
<path fill="none" stroke="#63b8ff" d="M568.06,-274.98C594.03,-266.16 634.81,-252.31 663.96,-242.41"/>
<polygon fill="#63b8ff" stroke="#63b8ff" points="665.4,-245.61 673.74,-239.08 663.15,-238.99 665.4,-245.61"/>
</a>
</g>
</g>
<!-- Node28&#45;&gt;Node26 -->
<g id="edge55_Node000028_Node000026" class="edge">
<title>Node28&#45;&gt;Node26</title>
<g id="a_edge55_Node000028_Node000026"><a xlink:title=" ">
<path fill="none" stroke="#63b8ff" d="M596.09,-279.23C714.91,-269.67 1002.11,-246.58 1133.87,-235.98"/>
<polygon fill="#63b8ff" stroke="#63b8ff" points="1134.16,-239.47 1143.85,-235.18 1133.6,-232.49 1134.16,-239.47"/>
</a>
</g>
</g>
<!-- Node29 -->
<g id="Node000029" class="node">
<title>Node29</title>
<g id="a_Node000029"><a xlink:title=" ">
<polygon fill="#e0e0e0" stroke="#999999" points="448.5,-239 305.5,-239 305.5,-220 448.5,-220 448.5,-239"/>
<text text-anchor="middle" x="377" y="-227" font-family="Helvetica,sans-Serif" font-size="10.00">ankerl/unordered_dense.h</text>
</a>
</g>
</g>
<!-- Node28&#45;&gt;Node29 -->
<g id="edge49_Node000028_Node000029" class="edge">
<title>Node28&#45;&gt;Node29</title>
<g id="a_edge49_Node000028_Node000029"><a xlink:title=" ">
<path fill="none" stroke="#63b8ff" d="M516.33,-274.98C488.46,-266.09 444.55,-252.07 413.48,-242.15"/>
<polygon fill="#63b8ff" stroke="#63b8ff" points="414.47,-238.79 403.88,-239.08 412.34,-245.46 414.47,-238.79"/>
</a>
</g>
</g>
<!-- Node30 -->
<g id="Node000030" class="node">
<title>Node30</title>
<g id="a_Node000030"><a xlink:title=" ">
<polygon fill="#e0e0e0" stroke="#999999" points="287.5,-239 236.5,-239 236.5,-220 287.5,-220 287.5,-239"/>
<text text-anchor="middle" x="262" y="-227" font-family="Helvetica,sans-Serif" font-size="10.00">variant</text>
</a>
</g>
</g>
<!-- Node28&#45;&gt;Node30 -->
<g id="edge56_Node000028_Node000030" class="edge">
<title>Node28&#45;&gt;Node30</title>
<g id="a_edge56_Node000028_Node000030"><a xlink:title=" ">
<path fill="none" stroke="#63b8ff" d="M489.8,-274.97C441.89,-267.05 369.34,-254.47 297.68,-239.25"/>
<polygon fill="#63b8ff" stroke="#63b8ff" points="298.09,-235.76 287.58,-237.09 296.62,-242.61 298.09,-235.76"/>
</a>
</g>
</g>
<!-- Node31&#45;&gt;Node5 -->
<g id="edge60_Node000031_Node000005" class="edge">
<title>Node31&#45;&gt;Node5</title>
<g id="a_edge60_Node000031_Node000005"><a xlink:title=" ">
<path fill="none" stroke="#63b8ff" d="M1139.85,-276.43C1237.84,-265.25 1416.39,-244.24 1421,-239 1436.83,-220.99 1449.03,-160.85 1380,-110 1323.27,-68.21 853.63,-64.73 662.98,-65.07"/>
<polygon fill="#63b8ff" stroke="#63b8ff" points="662.73,-61.57 652.74,-65.09 662.75,-68.57 662.73,-61.57"/>
</a>
</g>
</g>
<!-- Node31&#45;&gt;Node10 -->
<g id="edge64_Node000031_Node000010" class="edge">
<title>Node31&#45;&gt;Node10</title>
<g id="a_edge64_Node000031_Node000010"><a xlink:title=" ">
<path fill="none" stroke="#63b8ff" d="M1139.62,-275.58C1188.06,-268.27 1249.99,-255.98 1269,-239 1298.07,-213.04 1307.02,-165.64 1309.78,-139.34"/>
<polygon fill="#63b8ff" stroke="#63b8ff" points="1313.28,-139.45 1310.64,-129.19 1306.3,-138.85 1313.28,-139.45"/>
</a>
</g>
</g>
<!-- Node31&#45;&gt;Node11 -->
<g id="edge65_Node000031_Node000011" class="edge">
<title>Node31&#45;&gt;Node11</title>
<g id="a_edge65_Node000031_Node000011"><a xlink:title=" ">
<path fill="none" stroke="#63b8ff" d="M1060.58,-274.9C1020.46,-254.12 913.95,-200.28 821,-165 815.51,-162.92 748.32,-142.87 706.38,-130.41"/>
<polygon fill="#63b8ff" stroke="#63b8ff" points="707.15,-126.98 696.57,-127.49 705.16,-133.69 707.15,-126.98"/>
</a>
</g>
</g>
<!-- Node31&#45;&gt;Node16 -->
<g id="edge59_Node000031_Node000016" class="edge">
<title>Node31&#45;&gt;Node16</title>
<g id="a_edge59_Node000031_Node000016"><a xlink:title=" ">
<path fill="none" stroke="#63b8ff" d="M1036.67,-274.98C988.75,-264.86 909.44,-248.12 863.02,-238.32"/>
<polygon fill="#63b8ff" stroke="#63b8ff" points="863.58,-234.86 853.08,-236.22 862.14,-241.71 863.58,-234.86"/>
</a>
</g>
</g>
<!-- Node31&#45;&gt;Node17 -->
<g id="edge61_Node000031_Node000017" class="edge">
<title>Node31&#45;&gt;Node17</title>
<g id="a_edge61_Node000031_Node000017"><a xlink:title=" ">
<path fill="none" stroke="#63b8ff" d="M1016.27,-274.98C943.52,-264.78 822.75,-247.85 753.08,-238.08"/>
<polygon fill="#63b8ff" stroke="#63b8ff" points="753.16,-234.56 742.77,-236.64 752.19,-241.49 753.16,-234.56"/>
</a>
</g>
</g>
<!-- Node31&#45;&gt;Node26 -->
<g id="edge62_Node000031_Node000026" class="edge">
<title>Node31&#45;&gt;Node26</title>
<g id="a_edge62_Node000031_Node000026"><a xlink:title=" ">
<path fill="none" stroke="#63b8ff" d="M1097.08,-274.98C1117.37,-266.38 1148.96,-252.99 1172.17,-243.15"/>
<polygon fill="#63b8ff" stroke="#63b8ff" points="1173.71,-246.3 1181.55,-239.17 1170.98,-239.85 1173.71,-246.3"/>
</a>
</g>
</g>
<!-- Node32 -->
<g id="Node000032" class="node">
<title>Node32</title>
<g id="a_Node000032"><a xlink:title=" ">
<polygon fill="#e0e0e0" stroke="#999999" points="1412,-239 1356,-239 1356,-220 1412,-220 1412,-239"/>
<text text-anchor="middle" x="1384" y="-227" font-family="Helvetica,sans-Serif" font-size="10.00">optional</text>
</a>
</g>
</g>
<!-- Node31&#45;&gt;Node32 -->
<g id="edge63_Node000031_Node000032" class="edge">
<title>Node31&#45;&gt;Node32</title>
<g id="a_edge63_Node000031_Node000032"><a xlink:title=" ">
<path fill="none" stroke="#63b8ff" d="M1130.89,-274.99C1184.5,-266.4 1269.06,-252.5 1342,-239 1343.1,-238.8 1344.21,-238.59 1345.33,-238.38"/>
<polygon fill="#63b8ff" stroke="#63b8ff" points="1346.41,-241.73 1355.56,-236.39 1345.07,-234.86 1346.41,-241.73"/>
</a>
</g>
</g>
<!-- Node33&#45;&gt;Node4 -->
<g id="edge69_Node000033_Node000004" class="edge">
<title>Node33&#45;&gt;Node4</title>
<g id="a_edge69_Node000033_Node000004"><a xlink:title=" ">
<path fill="none" stroke="#63b8ff" d="M882.56,-274.81C881.41,-261.24 877.22,-234.99 862,-220 842.03,-200.33 669.6,-153.16 587.77,-131.6"/>
<polygon fill="#63b8ff" stroke="#63b8ff" points="588.58,-128.19 578.02,-129.04 586.8,-134.96 588.58,-128.19"/>
</a>
</g>
</g>
<!-- Node33&#45;&gt;Node5 -->
<g id="edge70_Node000033_Node000005" class="edge">
<title>Node33&#45;&gt;Node5</title>
<g id="a_edge70_Node000033_Node000005"><a xlink:title=" ">
<path fill="none" stroke="#63b8ff" d="M935.06,-279.21C1033.34,-270.86 1239.06,-252.09 1269,-239 1333.28,-210.88 1408.17,-161.01 1360,-110 1336.33,-84.94 856.53,-71.55 662.94,-67.16"/>
<polygon fill="#63b8ff" stroke="#63b8ff" points="662.91,-63.65 652.83,-66.93 662.75,-70.65 662.91,-63.65"/>
</a>
</g>
</g>
<!-- Node33&#45;&gt;Node10 -->
<g id="edge73_Node000033_Node000010" class="edge">
<title>Node33&#45;&gt;Node10</title>
<g id="a_edge73_Node000033_Node000010"><a xlink:title=" ">
<path fill="none" stroke="#63b8ff" d="M903.22,-274.89C942.66,-258 1032.53,-219.13 1107,-184 1124.08,-175.94 1127.35,-171.7 1145,-165 1190.38,-147.78 1245.11,-134.47 1278.99,-127.06"/>
<polygon fill="#63b8ff" stroke="#63b8ff" points="1279.76,-130.48 1288.8,-124.95 1278.29,-123.63 1279.76,-130.48"/>
</a>
</g>
</g>
<!-- Node33&#45;&gt;Node11 -->
<g id="edge74_Node000033_Node000011" class="edge">
<title>Node33&#45;&gt;Node11</title>
<g id="a_edge74_Node000033_Node000011"><a xlink:title=" ">
<path fill="none" stroke="#63b8ff" d="M888.21,-274.95C895.35,-262 906.1,-237.14 895,-220 883.96,-202.95 764.15,-155.34 705.28,-132.73"/>
<polygon fill="#63b8ff" stroke="#63b8ff" points="706.3,-129.37 695.71,-129.06 703.8,-135.9 706.3,-129.37"/>
</a>
</g>
</g>
<!-- Node33&#45;&gt;Node15 -->
<g id="edge67_Node000033_Node000015" class="edge">
<title>Node33&#45;&gt;Node15</title>
<g id="a_edge67_Node000033_Node000015"><a xlink:title=" ">
<path fill="none" stroke="#63b8ff" d="M832.87,-274.98C770.28,-264.35 664.62,-246.4 608.56,-236.88"/>
<polygon fill="#63b8ff" stroke="#63b8ff" points="609.14,-233.43 598.69,-235.2 607.96,-240.33 609.14,-233.43"/>
</a>
</g>
</g>
<!-- Node33&#45;&gt;Node16 -->
<g id="edge68_Node000033_Node000016" class="edge">
<title>Node33&#45;&gt;Node16</title>
<g id="a_edge68_Node000033_Node000016"><a xlink:title=" ">
<path fill="none" stroke="#63b8ff" d="M873.84,-274.98C865.5,-267.23 852.97,-255.58 842.82,-246.14"/>
<polygon fill="#63b8ff" stroke="#63b8ff" points="845.03,-243.42 835.32,-239.17 840.26,-248.54 845.03,-243.42"/>
</a>
</g>
</g>
<!-- Node33&#45;&gt;Node17 -->
<g id="edge71_Node000033_Node000017" class="edge">
<title>Node33&#45;&gt;Node17</title>
<g id="a_edge71_Node000033_Node000017"><a xlink:title=" ">
<path fill="none" stroke="#63b8ff" d="M853.44,-274.98C822.28,-266.01 773.03,-251.82 738.54,-241.89"/>
<polygon fill="#63b8ff" stroke="#63b8ff" points="739.37,-238.49 728.79,-239.08 737.43,-245.21 739.37,-238.49"/>
</a>
</g>
</g>
<!-- Node33&#45;&gt;Node26 -->
<g id="edge72_Node000033_Node000026" class="edge">
<title>Node33&#45;&gt;Node26</title>
<g id="a_edge72_Node000033_Node000026"><a xlink:title=" ">
<path fill="none" stroke="#63b8ff" d="M934.25,-274.98C990.44,-265.65 1080.57,-250.67 1140.52,-240.71"/>
<polygon fill="#63b8ff" stroke="#63b8ff" points="1141.32,-244.13 1150.61,-239.04 1140.17,-237.22 1141.32,-244.13"/>
</a>
</g>
</g>
<!-- Node34&#45;&gt;Node26 -->
<g id="edge78_Node000034_Node000026" class="edge">
<title>Node34&#45;&gt;Node26</title>
<g id="a_edge78_Node000034_Node000026"><a xlink:title=" ">
<path fill="none" stroke="#63b8ff" d="M1202,-274.75C1202,-267.8 1202,-257.85 1202,-249.13"/>
<polygon fill="#63b8ff" stroke="#63b8ff" points="1205.5,-249.09 1202,-239.09 1198.5,-249.09 1205.5,-249.09"/>
</a>
</g>
</g>
<!-- Node35 -->
<g id="Node000035" class="node">
<title>Node35</title>
<g id="a_Node000035"><a xlink:href="orbital__smearing_8h.html" target="_top" xlink:title=" ">
<polygon fill="white" stroke="#666666" points="1614,-184 1468,-184 1468,-165 1614,-165 1614,-184"/>
<text text-anchor="middle" x="1541" y="-172" font-family="Helvetica,sans-Serif" font-size="10.00">occ/qm/orbital_smearing.h</text>
</a>
</g>
</g>
<!-- Node34&#45;&gt;Node35 -->
<g id="edge76_Node000034_Node000035" class="edge">
<title>Node34&#45;&gt;Node35</title>
<g id="a_edge76_Node000034_Node000035"><a xlink:title=" ">
<path fill="none" stroke="#63b8ff" d="M1242.44,-281.97C1293.59,-278.79 1383.49,-269.03 1454,-239 1481.25,-227.39 1508.08,-205.84 1524.59,-191.09"/>
<polygon fill="#63b8ff" stroke="#63b8ff" points="1527.22,-193.43 1532.22,-184.09 1522.49,-188.27 1527.22,-193.43"/>
</a>
</g>
</g>
<!-- Node35&#45;&gt;Node5 -->
<g id="edge77_Node000035_Node000005" class="edge">
<title>Node35&#45;&gt;Node5</title>
<g id="a_edge77_Node000035_Node000005"><a xlink:title=" ">
<path fill="none" stroke="#63b8ff" d="M1532.86,-164.93C1518.52,-150.49 1487.13,-121.75 1454,-110 1380.71,-84.01 864.18,-71.08 662.96,-66.98"/>
<polygon fill="#63b8ff" stroke="#63b8ff" points="662.82,-63.48 652.76,-66.78 662.68,-70.48 662.82,-63.48"/>
</a>
</g>
</g>
</g>
</svg>
