<?xml version="1.0" encoding="UTF-8" standalone="no"?>
<!DOCTYPE svg PUBLIC "-//W3C//DTD SVG 1.1//EN"
 "http://www.w3.org/Graphics/SVG/1.1/DTD/svg11.dtd">
<!-- Generated by graphviz version 2.43.0 (0)
 -->
<!-- Title: /home/runner/work/occ/occ/include/occ/core/multipole.h Pages: 1 -->
<svg width="579pt" height="577pt"
 viewBox="0.00 0.00 578.50 577.00" xmlns="http://www.w3.org/2000/svg" xmlns:xlink="http://www.w3.org/1999/xlink">
<g id="graph0" class="graph" transform="scale(1 1) rotate(0) translate(4 573)">
<title>/home/runner/work/occ/occ/include/occ/core/multipole.h</title>
<!-- Node1 -->
<g id="Node000001" class="node">
<title>Node1</title>
<g id="a_Node000001"><a xlink:title=" ">
<polygon fill="#999999" stroke="#666666" points="332,-569 204,-569 204,-528 332,-528 332,-569"/>
<text text-anchor="start" x="212" y="-557" font-family="Helvetica,sans-Serif" font-size="10.00">/home/runner/work/occ</text>
<text text-anchor="start" x="212" y="-546" font-family="Helvetica,sans-Serif" font-size="10.00">/occ/include/occ/core</text>
<text text-anchor="middle" x="268" y="-535" font-family="Helvetica,sans-Serif" font-size="10.00">/multipole.h</text>
</a>
</g>
</g>
<!-- Node2 -->
<g id="Node000002" class="node">
<title>Node2</title>
<g id="a_Node000002"><a xlink:href="dft_2hirshfeld_8h.html" target="_top" xlink:title=" ">
<polygon fill="white" stroke="#666666" points="136,-492 8,-492 8,-451 136,-451 136,-492"/>
<text text-anchor="start" x="16" y="-480" font-family="Helvetica,sans-Serif" font-size="10.00">/home/runner/work/occ</text>
<text text-anchor="start" x="16" y="-469" font-family="Helvetica,sans-Serif" font-size="10.00">/occ/include/occ/dft</text>
<text text-anchor="middle" x="72" y="-458" font-family="Helvetica,sans-Serif" font-size="10.00">/hirshfeld.h</text>
</a>
</g>
</g>
<!-- Node1&#45;&gt;Node2 -->
<g id="edge1_Node000001_Node000002" class="edge">
<title>Node1&#45;&gt;Node2</title>
<g id="a_edge1_Node000001_Node000002"><a xlink:title=" ">
<path fill="none" stroke="#63b8ff" d="M207.64,-524.4C180.56,-514.04 148.96,-501.95 123.07,-492.04"/>
<polygon fill="#63b8ff" stroke="#63b8ff" points="206.42,-527.69 217.01,-527.99 208.93,-521.15 206.42,-527.69"/>
</a>
</g>
</g>
<!-- Node3 -->
<g id="Node000003" class="node">
<title>Node3</title>
<g id="a_Node000003"><a xlink:href="cint__interface_8h.html" target="_top" xlink:title=" ">
<polygon fill="white" stroke="#666666" points="288,-492 154,-492 154,-451 288,-451 288,-492"/>
<text text-anchor="start" x="162" y="-480" font-family="Helvetica,sans-Serif" font-size="10.00">/home/runner/work/occ</text>
<text text-anchor="start" x="162" y="-469" font-family="Helvetica,sans-Serif" font-size="10.00">/occ/include/occ/qm/cint</text>
<text text-anchor="middle" x="221" y="-458" font-family="Helvetica,sans-Serif" font-size="10.00">_interface.h</text>
</a>
</g>
</g>
<!-- Node1&#45;&gt;Node3 -->
<g id="edge2_Node000001_Node000003" class="edge">
<title>Node1&#45;&gt;Node3</title>
<g id="a_edge2_Node000001_Node000003"><a xlink:title=" ">
<path fill="none" stroke="#63b8ff" d="M250.21,-519.11C244.56,-510.09 238.44,-500.33 233.27,-492.07"/>
<polygon fill="#63b8ff" stroke="#63b8ff" points="247.38,-521.18 255.65,-527.79 253.31,-517.46 247.38,-521.18"/>
</a>
</g>
</g>
<!-- Node4 -->
<g id="Node000004" class="node">
<title>Node4</title>
<g id="a_Node000004"><a xlink:href="integral__engine_8h.html" target="_top" xlink:title=" ">
<polygon fill="white" stroke="#666666" points="297.5,-415 144.5,-415 144.5,-374 297.5,-374 297.5,-415"/>
<text text-anchor="start" x="152.5" y="-403" font-family="Helvetica,sans-Serif" font-size="10.00">/home/runner/work/occ</text>
<text text-anchor="start" x="152.5" y="-392" font-family="Helvetica,sans-Serif" font-size="10.00">/occ/include/occ/qm/integral</text>
<text text-anchor="middle" x="221" y="-381" font-family="Helvetica,sans-Serif" font-size="10.00">_engine.h</text>
</a>
</g>
</g>
<!-- Node1&#45;&gt;Node4 -->
<g id="edge18_Node000001_Node000004" class="edge">
<title>Node1&#45;&gt;Node4</title>
<g id="a_edge18_Node000001_Node000004"><a xlink:title=" ">
<path fill="none" stroke="#63b8ff" d="M287.54,-519.03C298.52,-499.26 308.01,-472.68 297,-451 289.38,-436 275.59,-424.08 261.82,-415.2"/>
<polygon fill="#63b8ff" stroke="#63b8ff" points="284.39,-517.49 282.29,-527.87 290.41,-521.06 284.39,-517.49"/>
</a>
</g>
</g>
<!-- Node6 -->
<g id="Node000006" class="node">
<title>Node6</title>
<g id="a_Node000006"><a xlink:href="hf_8h.html" target="_top" xlink:title=" ">
<polygon fill="white" stroke="#666666" points="354,-261 220,-261 220,-231 354,-231 354,-261"/>
<text text-anchor="start" x="228" y="-249" font-family="Helvetica,sans-Serif" font-size="10.00">/home/runner/work/occ</text>
<text text-anchor="middle" x="287" y="-238" font-family="Helvetica,sans-Serif" font-size="10.00">/occ/include/occ/qm/hf.h</text>
</a>
</g>
</g>
<!-- Node1&#45;&gt;Node6 -->
<g id="edge17_Node000001_Node000006" class="edge">
<title>Node1&#45;&gt;Node6</title>
<g id="a_edge17_Node000001_Node000006"><a xlink:title=" ">
<path fill="none" stroke="#63b8ff" d="M293.73,-520.07C300.91,-511.51 308.3,-501.74 314,-492 350.99,-428.72 359.67,-410.07 373,-338 376.31,-320.08 382.09,-312.79 373,-297 363.53,-280.53 346.32,-268.99 329.77,-261.17"/>
<polygon fill="#63b8ff" stroke="#63b8ff" points="290.87,-518.03 286.96,-527.87 296.16,-522.61 290.87,-518.03"/>
</a>
</g>
</g>
<!-- Node3&#45;&gt;Node4 -->
<g id="edge3_Node000003_Node000004" class="edge">
<title>Node3&#45;&gt;Node4</title>
<g id="a_edge3_Node000003_Node000004"><a xlink:title=" ">
<path fill="none" stroke="#63b8ff" d="M221,-440.69C221,-432.08 221,-422.9 221,-415.07"/>
<polygon fill="#63b8ff" stroke="#63b8ff" points="217.5,-440.79 221,-450.79 224.5,-440.79 217.5,-440.79"/>
</a>
</g>
</g>
<!-- Node5 -->
<g id="Node000005" class="node">
<title>Node5</title>
<g id="a_Node000005"><a xlink:href="seminumerical__exchange_8h.html" target="_top" xlink:title=" ">
<polygon fill="white" stroke="#666666" points="154,-338 0,-338 0,-297 154,-297 154,-338"/>
<text text-anchor="start" x="8" y="-326" font-family="Helvetica,sans-Serif" font-size="10.00">/home/runner/work/occ</text>
<text text-anchor="start" x="8" y="-315" font-family="Helvetica,sans-Serif" font-size="10.00">/occ/include/occ/dft</text>
<text text-anchor="middle" x="77" y="-304" font-family="Helvetica,sans-Serif" font-size="10.00">/seminumerical_exchange.h</text>
</a>
</g>
</g>
<!-- Node4&#45;&gt;Node5 -->
<g id="edge4_Node000004_Node000005" class="edge">
<title>Node4&#45;&gt;Node5</title>
<g id="a_edge4_Node000004_Node000005"><a xlink:title=" ">
<path fill="none" stroke="#63b8ff" d="M174.56,-369.31C155.14,-359.2 132.87,-347.6 114.52,-338.04"/>
<polygon fill="#63b8ff" stroke="#63b8ff" points="173.06,-372.48 183.54,-373.99 176.29,-366.27 173.06,-372.48"/>
</a>
</g>
</g>
<!-- Node4&#45;&gt;Node6 -->
<g id="edge5_Node000004_Node000006" class="edge">
<title>Node4&#45;&gt;Node6</title>
<g id="a_edge5_Node000004_Node000006"><a xlink:title=" ">
<path fill="none" stroke="#63b8ff" d="M204.9,-364.47C196.08,-344.38 189.12,-317.65 201,-297 210.47,-280.53 227.68,-268.99 244.23,-261.17"/>
<polygon fill="#63b8ff" stroke="#63b8ff" points="201.85,-366.21 209.3,-373.74 208.17,-363.21 201.85,-366.21"/>
</a>
</g>
</g>
<!-- Node15 -->
<g id="Node000015" class="node">
<title>Node15</title>
<g id="a_Node000015"><a xlink:href="integral__engine__df_8h.html" target="_top" xlink:title=" ">
<polygon fill="white" stroke="#666666" points="363.5,-338 210.5,-338 210.5,-297 363.5,-297 363.5,-338"/>
<text text-anchor="start" x="218.5" y="-326" font-family="Helvetica,sans-Serif" font-size="10.00">/home/runner/work/occ</text>
<text text-anchor="start" x="218.5" y="-315" font-family="Helvetica,sans-Serif" font-size="10.00">/occ/include/occ/qm/integral</text>
<text text-anchor="middle" x="287" y="-304" font-family="Helvetica,sans-Serif" font-size="10.00">_engine_df.h</text>
</a>
</g>
</g>
<!-- Node4&#45;&gt;Node15 -->
<g id="edge15_Node000004_Node000015" class="edge">
<title>Node4&#45;&gt;Node15</title>
<g id="a_edge15_Node000004_Node000015"><a xlink:title=" ">
<path fill="none" stroke="#63b8ff" d="M244.99,-366.23C253.2,-356.91 262.21,-346.67 269.78,-338.07"/>
<polygon fill="#63b8ff" stroke="#63b8ff" points="242.32,-363.98 238.34,-373.79 247.57,-368.6 242.32,-363.98"/>
</a>
</g>
</g>
<!-- Node7 -->
<g id="Node000007" class="node">
<title>Node7</title>
<g id="a_Node000007"><a xlink:href="dft_8h.html" target="_top" xlink:title=" ">
<polygon fill="white" stroke="#666666" points="259,-189.5 125,-189.5 125,-159.5 259,-159.5 259,-189.5"/>
<text text-anchor="start" x="133" y="-177.5" font-family="Helvetica,sans-Serif" font-size="10.00">/home/runner/work/occ</text>
<text text-anchor="middle" x="192" y="-166.5" font-family="Helvetica,sans-Serif" font-size="10.00">/occ/include/occ/dft/dft.h</text>
</a>
</g>
</g>
<!-- Node6&#45;&gt;Node7 -->
<g id="edge6_Node000006_Node000007" class="edge">
<title>Node6&#45;&gt;Node7</title>
<g id="a_edge6_Node000006_Node000007"><a xlink:title=" ">
<path fill="none" stroke="#63b8ff" d="M259.58,-224.94C244.09,-213.6 225.1,-199.71 211.2,-189.54"/>
<polygon fill="#63b8ff" stroke="#63b8ff" points="257.64,-227.86 267.78,-230.94 261.77,-222.21 257.64,-227.86"/>
</a>
</g>
</g>
<!-- Node10 -->
<g id="Node000010" class="node">
<title>Node10</title>
<g id="a_Node000010"><a xlink:href="point__functors_8h.html" target="_top" xlink:title=" ">
<polygon fill="white" stroke="#666666" points="338,-118 210,-118 210,-77 338,-77 338,-118"/>
<text text-anchor="start" x="218" y="-106" font-family="Helvetica,sans-Serif" font-size="10.00">/home/runner/work/occ</text>
<text text-anchor="start" x="218" y="-95" font-family="Helvetica,sans-Serif" font-size="10.00">/occ/include/occ/main</text>
<text text-anchor="middle" x="274" y="-84" font-family="Helvetica,sans-Serif" font-size="10.00">/point_functors.h</text>
</a>
</g>
</g>
<!-- Node6&#45;&gt;Node10 -->
<g id="edge14_Node000006_Node000010" class="edge">
<title>Node6&#45;&gt;Node10</title>
<g id="a_edge14_Node000006_Node000010"><a xlink:title=" ">
<path fill="none" stroke="#63b8ff" d="M284.87,-220.96C282.32,-192.3 278.12,-144.92 275.75,-118.27"/>
<polygon fill="#63b8ff" stroke="#63b8ff" points="281.38,-221.3 285.75,-230.95 288.36,-220.68 281.38,-221.3"/>
</a>
</g>
</g>
<!-- Node11 -->
<g id="Node000011" class="node">
<title>Node11</title>
<g id="a_Node000011"><a xlink:href="electric__potential_8h.html" target="_top" xlink:title=" ">
<polygon fill="white" stroke="#666666" points="489.5,-195 342.5,-195 342.5,-154 489.5,-154 489.5,-195"/>
<text text-anchor="start" x="350.5" y="-183" font-family="Helvetica,sans-Serif" font-size="10.00">/home/runner/work/occ</text>
<text text-anchor="start" x="350.5" y="-172" font-family="Helvetica,sans-Serif" font-size="10.00">/occ/include/occ/isosurface</text>
<text text-anchor="middle" x="416" y="-161" font-family="Helvetica,sans-Serif" font-size="10.00">/electric_potential.h</text>
</a>
</g>
</g>
<!-- Node6&#45;&gt;Node11 -->
<g id="edge10_Node000006_Node000011" class="edge">
<title>Node6&#45;&gt;Node11</title>
<g id="a_edge10_Node000006_Node000011"><a xlink:title=" ">
<path fill="none" stroke="#63b8ff" d="M322.06,-226.11C339.92,-216.49 361.63,-204.79 379.67,-195.07"/>
<polygon fill="#63b8ff" stroke="#63b8ff" points="320.25,-223.11 313.11,-230.94 323.57,-229.27 320.25,-223.11"/>
</a>
</g>
</g>
<!-- Node8 -->
<g id="Node000008" class="node">
<title>Node8</title>
<g id="a_Node000008"><a xlink:href="smd__solvation_8h.html" target="_top" xlink:title=" ">
<polygon fill="white" stroke="#666666" points="192,-118 60,-118 60,-77 192,-77 192,-118"/>
<text text-anchor="start" x="68" y="-106" font-family="Helvetica,sans-Serif" font-size="10.00">/home/runner/work/occ</text>
<text text-anchor="start" x="68" y="-95" font-family="Helvetica,sans-Serif" font-size="10.00">/occ/include/occ/cg/smd</text>
<text text-anchor="middle" x="126" y="-84" font-family="Helvetica,sans-Serif" font-size="10.00">_solvation.h</text>
</a>
</g>
</g>
<!-- Node7&#45;&gt;Node8 -->
<g id="edge7_Node000007_Node000008" class="edge">
<title>Node7&#45;&gt;Node8</title>
<g id="a_edge7_Node000007_Node000008"><a xlink:title=" ">
<path fill="none" stroke="#63b8ff" d="M172.87,-151.76C163.55,-141.17 152.41,-128.52 143.34,-118.2"/>
<polygon fill="#63b8ff" stroke="#63b8ff" points="170.35,-154.2 179.59,-159.39 175.61,-149.57 170.35,-154.2"/>
</a>
</g>
</g>
<!-- Node7&#45;&gt;Node10 -->
<g id="edge9_Node000007_Node000010" class="edge">
<title>Node7&#45;&gt;Node10</title>
<g id="a_edge9_Node000007_Node000010"><a xlink:title=" ">
<path fill="none" stroke="#63b8ff" d="M215.09,-152.38C226.81,-141.66 240.96,-128.72 252.46,-118.2"/>
<polygon fill="#63b8ff" stroke="#63b8ff" points="212.44,-150.06 207.42,-159.39 217.16,-155.23 212.44,-150.06"/>
</a>
</g>
</g>
<!-- Node9 -->
<g id="Node000009" class="node">
<title>Node9</title>
<g id="a_Node000009"><a xlink:href="crystal__growth_8h.html" target="_top" xlink:title=" ">
<polygon fill="white" stroke="#666666" points="190,-41 62,-41 62,0 190,0 190,-41"/>
<text text-anchor="start" x="70" y="-29" font-family="Helvetica,sans-Serif" font-size="10.00">/home/runner/work/occ</text>
<text text-anchor="start" x="70" y="-18" font-family="Helvetica,sans-Serif" font-size="10.00">/occ/include/occ/driver</text>
<text text-anchor="middle" x="126" y="-7" font-family="Helvetica,sans-Serif" font-size="10.00">/crystal_growth.h</text>
</a>
</g>
</g>
<!-- Node8&#45;&gt;Node9 -->
<g id="edge8_Node000008_Node000009" class="edge">
<title>Node8&#45;&gt;Node9</title>
<g id="a_edge8_Node000008_Node000009"><a xlink:title=" ">
<path fill="none" stroke="#63b8ff" d="M126,-66.69C126,-58.08 126,-48.9 126,-41.07"/>
<polygon fill="#63b8ff" stroke="#63b8ff" points="122.5,-66.79 126,-76.79 129.5,-66.79 122.5,-66.79"/>
</a>
</g>
</g>
<!-- Node12 -->
<g id="Node000012" class="node">
<title>Node12</title>
<g id="a_Node000012"><a xlink:href="isosurface_8h.html" target="_top" xlink:title=" ">
<polygon fill="white" stroke="#666666" points="503.5,-118 356.5,-118 356.5,-77 503.5,-77 503.5,-118"/>
<text text-anchor="start" x="364.5" y="-106" font-family="Helvetica,sans-Serif" font-size="10.00">/home/runner/work/occ</text>
<text text-anchor="start" x="364.5" y="-95" font-family="Helvetica,sans-Serif" font-size="10.00">/occ/include/occ/isosurface</text>
<text text-anchor="middle" x="430" y="-84" font-family="Helvetica,sans-Serif" font-size="10.00">/isosurface.h</text>
</a>
</g>
</g>
<!-- Node11&#45;&gt;Node12 -->
<g id="edge11_Node000011_Node000012" class="edge">
<title>Node11&#45;&gt;Node12</title>
<g id="a_edge11_Node000011_Node000012"><a xlink:title=" ">
<path fill="none" stroke="#63b8ff" d="M421.56,-143.69C423.17,-135.08 424.89,-125.9 426.35,-118.07"/>
<polygon fill="#63b8ff" stroke="#63b8ff" points="418.07,-143.32 419.68,-153.79 424.95,-144.61 418.07,-143.32"/>
</a>
</g>
</g>
<!-- Node13 -->
<g id="Node000013" class="node">
<title>Node13</title>
<g id="a_Node000013"><a xlink:href="obj_8h.html" target="_top" xlink:title=" ">
<polygon fill="white" stroke="#666666" points="421.5,-35.5 288.5,-35.5 288.5,-5.5 421.5,-5.5 421.5,-35.5"/>
<text text-anchor="start" x="296.5" y="-23.5" font-family="Helvetica,sans-Serif" font-size="10.00">/home/runner/work/occ</text>
<text text-anchor="middle" x="355" y="-12.5" font-family="Helvetica,sans-Serif" font-size="10.00">/occ/include/occ/io/obj.h</text>
</a>
</g>
</g>
<!-- Node12&#45;&gt;Node13 -->
<g id="edge12_Node000012_Node000013" class="edge">
<title>Node12&#45;&gt;Node13</title>
<g id="a_edge12_Node000012_Node000013"><a xlink:title=" ">
<path fill="none" stroke="#63b8ff" d="M403.07,-69.57C391.68,-58.18 378.89,-45.39 369.36,-35.86"/>
<polygon fill="#63b8ff" stroke="#63b8ff" points="400.75,-72.2 410.29,-76.79 405.7,-67.25 400.75,-72.2"/>
</a>
</g>
</g>
<!-- Node14 -->
<g id="Node000014" class="node">
<title>Node14</title>
<g id="a_Node000014"><a xlink:href="ply_8h.html" target="_top" xlink:title=" ">
<polygon fill="white" stroke="#666666" points="570.5,-35.5 439.5,-35.5 439.5,-5.5 570.5,-5.5 570.5,-35.5"/>
<text text-anchor="start" x="447.5" y="-23.5" font-family="Helvetica,sans-Serif" font-size="10.00">/home/runner/work/occ</text>
<text text-anchor="middle" x="505" y="-12.5" font-family="Helvetica,sans-Serif" font-size="10.00">/occ/include/occ/io/ply.h</text>
</a>
</g>
</g>
<!-- Node12&#45;&gt;Node14 -->
<g id="edge13_Node000012_Node000014" class="edge">
<title>Node12&#45;&gt;Node14</title>
<g id="a_edge13_Node000012_Node000014"><a xlink:title=" ">
<path fill="none" stroke="#63b8ff" d="M456.93,-69.57C468.32,-58.18 481.11,-45.39 490.64,-35.86"/>
<polygon fill="#63b8ff" stroke="#63b8ff" points="454.3,-67.25 449.71,-76.79 459.25,-72.2 454.3,-67.25"/>
</a>
</g>
</g>
<!-- Node15&#45;&gt;Node6 -->
<g id="edge16_Node000015_Node000006" class="edge">
<title>Node15&#45;&gt;Node6</title>
<g id="a_edge16_Node000015_Node000006"><a xlink:title=" ">
<path fill="none" stroke="#63b8ff" d="M287,-286.66C287,-277.76 287,-268.42 287,-261.04"/>
<polygon fill="#63b8ff" stroke="#63b8ff" points="283.5,-286.77 287,-296.77 290.5,-286.77 283.5,-286.77"/>
</a>
</g>
</g>
</g>
</svg>
