<?xml version="1.0" encoding="UTF-8" standalone="no"?>
<!DOCTYPE svg PUBLIC "-//W3C//DTD SVG 1.1//EN"
 "http://www.w3.org/Graphics/SVG/1.1/DTD/svg11.dtd">
<!-- Generated by graphviz version 2.43.0 (0)
 -->
<!-- Title: /home/runner/work/occ/occ/include/occ/dma/mult.h Pages: 1 -->
<svg width="685pt" height="203pt"
 viewBox="0.00 0.00 684.50 203.00" xmlns="http://www.w3.org/2000/svg" xmlns:xlink="http://www.w3.org/1999/xlink">
<g id="graph0" class="graph" transform="scale(1 1) rotate(0) translate(4 199)">
<title>/home/runner/work/occ/occ/include/occ/dma/mult.h</title>
<!-- Node1 -->
<g id="Node000001" class="node">
<title>Node1</title>
<g id="a_Node000001"><a xlink:title=" ">
<polygon fill="#999999" stroke="#666666" points="390,-195 262,-195 262,-154 390,-154 390,-195"/>
<text text-anchor="start" x="270" y="-183" font-family="Helvetica,sans-Serif" font-size="10.00">/home/runner/work/occ</text>
<text text-anchor="start" x="270" y="-172" font-family="Helvetica,sans-Serif" font-size="10.00">/occ/include/occ/dma</text>
<text text-anchor="middle" x="326" y="-161" font-family="Helvetica,sans-Serif" font-size="10.00">/mult.h</text>
</a>
</g>
</g>
<!-- Node2 -->
<g id="Node000002" class="node">
<title>Node2</title>
<g id="a_Node000002"><a xlink:href="add__qlm_8h.html" target="_top" xlink:title=" ">
<polygon fill="white" stroke="#666666" points="128,-118 0,-118 0,-77 128,-77 128,-118"/>
<text text-anchor="start" x="8" y="-106" font-family="Helvetica,sans-Serif" font-size="10.00">/home/runner/work/occ</text>
<text text-anchor="start" x="8" y="-95" font-family="Helvetica,sans-Serif" font-size="10.00">/occ/include/occ/dma</text>
<text text-anchor="middle" x="64" y="-84" font-family="Helvetica,sans-Serif" font-size="10.00">/add_qlm.h</text>
</a>
</g>
</g>
<!-- Node1&#45;&gt;Node2 -->
<g id="edge1_Node000001_Node000002" class="edge">
<title>Node1&#45;&gt;Node2</title>
<g id="a_edge1_Node000001_Node000002"><a xlink:title=" ">
<path fill="none" stroke="#63b8ff" d="M252.19,-152.37C213.2,-141.21 165.81,-127.64 128.34,-116.92"/>
<polygon fill="#63b8ff" stroke="#63b8ff" points="251.33,-155.77 261.91,-155.15 253.26,-149.04 251.33,-155.77"/>
</a>
</g>
</g>
<!-- Node4 -->
<g id="Node000004" class="node">
<title>Node4</title>
<g id="a_Node000004"><a xlink:href="dma_8h.html" target="_top" xlink:title=" ">
<polygon fill="white" stroke="#666666" points="298,-112.5 146,-112.5 146,-82.5 298,-82.5 298,-112.5"/>
<text text-anchor="start" x="154" y="-100.5" font-family="Helvetica,sans-Serif" font-size="10.00">/home/runner/work/occ</text>
<text text-anchor="middle" x="222" y="-89.5" font-family="Helvetica,sans-Serif" font-size="10.00">/occ/include/occ/dma/dma.h</text>
</a>
</g>
</g>
<!-- Node1&#45;&gt;Node4 -->
<g id="edge3_Node000001_Node000004" class="edge">
<title>Node1&#45;&gt;Node4</title>
<g id="a_edge3_Node000001_Node000004"><a xlink:title=" ">
<path fill="none" stroke="#63b8ff" d="M290.66,-148.01C274.3,-136.22 255.48,-122.65 241.69,-112.7"/>
<polygon fill="#63b8ff" stroke="#63b8ff" points="288.79,-150.98 298.95,-153.99 292.88,-145.3 288.79,-150.98"/>
</a>
</g>
</g>
<!-- Node5 -->
<g id="Node000005" class="node">
<title>Node5</title>
<g id="a_Node000005"><a xlink:href="multipole__calculator_8h.html" target="_top" xlink:title=" ">
<polygon fill="white" stroke="#666666" points="420,-41 292,-41 292,0 420,0 420,-41"/>
<text text-anchor="start" x="300" y="-29" font-family="Helvetica,sans-Serif" font-size="10.00">/home/runner/work/occ</text>
<text text-anchor="start" x="300" y="-18" font-family="Helvetica,sans-Serif" font-size="10.00">/occ/include/occ/dma</text>
<text text-anchor="middle" x="356" y="-7" font-family="Helvetica,sans-Serif" font-size="10.00">/multipole_calculator.h</text>
</a>
</g>
</g>
<!-- Node1&#45;&gt;Node5 -->
<g id="edge9_Node000001_Node000005" class="edge">
<title>Node1&#45;&gt;Node5</title>
<g id="a_edge9_Node000001_Node000005"><a xlink:title=" ">
<path fill="none" stroke="#63b8ff" d="M331.83,-143.98C337.79,-113.76 346.89,-67.64 352.06,-41.47"/>
<polygon fill="#63b8ff" stroke="#63b8ff" points="328.36,-143.45 329.86,-153.94 335.23,-144.81 328.36,-143.45"/>
</a>
</g>
</g>
<!-- Node7 -->
<g id="Node000007" class="node">
<title>Node7</title>
<g id="a_Node000007"><a xlink:href="linear__multipole__calculator_8h.html" target="_top" xlink:title=" ">
<polygon fill="white" stroke="#666666" points="515.5,-118 354.5,-118 354.5,-77 515.5,-77 515.5,-118"/>
<text text-anchor="start" x="362.5" y="-106" font-family="Helvetica,sans-Serif" font-size="10.00">/home/runner/work/occ</text>
<text text-anchor="start" x="362.5" y="-95" font-family="Helvetica,sans-Serif" font-size="10.00">/occ/include/occ/dma</text>
<text text-anchor="middle" x="435" y="-84" font-family="Helvetica,sans-Serif" font-size="10.00">/linear_multipole_calculator.h</text>
</a>
</g>
</g>
<!-- Node1&#45;&gt;Node7 -->
<g id="edge7_Node000001_Node000007" class="edge">
<title>Node1&#45;&gt;Node7</title>
<g id="a_edge7_Node000001_Node000007"><a xlink:title=" ">
<path fill="none" stroke="#63b8ff" d="M362.93,-148.09C377.13,-138.32 393.11,-127.32 406.41,-118.17"/>
<polygon fill="#63b8ff" stroke="#63b8ff" points="360.61,-145.44 354.35,-153.99 364.58,-151.21 360.61,-145.44"/>
</a>
</g>
</g>
<!-- Node8 -->
<g id="Node000008" class="node">
<title>Node8</title>
<g id="a_Node000008"><a xlink:href="linear__multipole__shifter_8h.html" target="_top" xlink:title=" ">
<polygon fill="white" stroke="#666666" points="676.5,-118 533.5,-118 533.5,-77 676.5,-77 676.5,-118"/>
<text text-anchor="start" x="541.5" y="-106" font-family="Helvetica,sans-Serif" font-size="10.00">/home/runner/work/occ</text>
<text text-anchor="start" x="541.5" y="-95" font-family="Helvetica,sans-Serif" font-size="10.00">/occ/include/occ/dma</text>
<text text-anchor="middle" x="605" y="-84" font-family="Helvetica,sans-Serif" font-size="10.00">/linear_multipole_shifter.h</text>
</a>
</g>
</g>
<!-- Node1&#45;&gt;Node8 -->
<g id="edge8_Node000001_Node000008" class="edge">
<title>Node1&#45;&gt;Node8</title>
<g id="a_edge8_Node000001_Node000008"><a xlink:title=" ">
<path fill="none" stroke="#63b8ff" d="M399.75,-153.67C441.1,-142.56 492.45,-128.76 533.44,-117.74"/>
<polygon fill="#63b8ff" stroke="#63b8ff" points="398.76,-150.32 390.01,-156.29 400.57,-157.08 398.76,-150.32"/>
</a>
</g>
</g>
<!-- Node3 -->
<g id="Node000003" class="node">
<title>Node3</title>
<g id="a_Node000003"><a xlink:href="multipole__shifter_8h.html" target="_top" xlink:title=" ">
<polygon fill="white" stroke="#666666" points="128,-41 0,-41 0,0 128,0 128,-41"/>
<text text-anchor="start" x="8" y="-29" font-family="Helvetica,sans-Serif" font-size="10.00">/home/runner/work/occ</text>
<text text-anchor="start" x="8" y="-18" font-family="Helvetica,sans-Serif" font-size="10.00">/occ/include/occ/dma</text>
<text text-anchor="middle" x="64" y="-7" font-family="Helvetica,sans-Serif" font-size="10.00">/multipole_shifter.h</text>
</a>
</g>
</g>
<!-- Node2&#45;&gt;Node3 -->
<g id="edge2_Node000002_Node000003" class="edge">
<title>Node2&#45;&gt;Node3</title>
<g id="a_edge2_Node000002_Node000003"><a xlink:title=" ">
<path fill="none" stroke="#63b8ff" d="M64,-66.69C64,-58.08 64,-48.9 64,-41.07"/>
<polygon fill="#63b8ff" stroke="#63b8ff" points="60.5,-66.79 64,-76.79 67.5,-66.79 60.5,-66.79"/>
</a>
</g>
</g>
<!-- Node4&#45;&gt;Node3 -->
<g id="edge5_Node000004_Node000003" class="edge">
<title>Node4&#45;&gt;Node3</title>
<g id="a_edge5_Node000004_Node000003"><a xlink:title=" ">
<path fill="none" stroke="#63b8ff" d="M183.23,-78.1C159.56,-66.86 129.32,-52.5 105.21,-41.06"/>
<polygon fill="#63b8ff" stroke="#63b8ff" points="181.75,-81.27 192.28,-82.39 184.75,-74.94 181.75,-81.27"/>
</a>
</g>
</g>
<!-- Node4&#45;&gt;Node5 -->
<g id="edge4_Node000004_Node000005" class="edge">
<title>Node4&#45;&gt;Node5</title>
<g id="a_edge4_Node000004_Node000005"><a xlink:title=" ">
<path fill="none" stroke="#63b8ff" d="M255.95,-77.5C275.86,-66.35 300.97,-52.3 321.05,-41.06"/>
<polygon fill="#63b8ff" stroke="#63b8ff" points="254.22,-74.45 247.2,-82.39 257.64,-80.56 254.22,-74.45"/>
</a>
</g>
</g>
<!-- Node6 -->
<g id="Node000006" class="node">
<title>Node6</title>
<g id="a_Node000006"><a xlink:href="occ__dma_8h.html" target="_top" xlink:title=" ">
<polygon fill="white" stroke="#666666" points="274,-41 146,-41 146,0 274,0 274,-41"/>
<text text-anchor="start" x="154" y="-29" font-family="Helvetica,sans-Serif" font-size="10.00">/home/runner/work/occ</text>
<text text-anchor="start" x="154" y="-18" font-family="Helvetica,sans-Serif" font-size="10.00">/occ/include/occ/main</text>
<text text-anchor="middle" x="210" y="-7" font-family="Helvetica,sans-Serif" font-size="10.00">/occ_dma.h</text>
</a>
</g>
</g>
<!-- Node4&#45;&gt;Node6 -->
<g id="edge6_Node000004_Node000006" class="edge">
<title>Node4&#45;&gt;Node6</title>
<g id="a_edge6_Node000004_Node000006"><a xlink:title=" ">
<path fill="none" stroke="#63b8ff" d="M218.12,-72.23C216.51,-62.2 214.67,-50.71 213.15,-41.2"/>
<polygon fill="#63b8ff" stroke="#63b8ff" points="214.71,-73.07 219.74,-82.39 221.62,-71.97 214.71,-73.07"/>
</a>
</g>
</g>
</g>
</svg>
