<?xml version="1.0" encoding="UTF-8" standalone="no"?>
<!DOCTYPE svg PUBLIC "-//W3C//DTD SVG 1.1//EN"
 "http://www.w3.org/Graphics/SVG/1.1/DTD/svg11.dtd">
<!-- Generated by graphviz version 2.43.0 (0)
 -->
<!-- Title: /home/runner/work/occ/occ/include/occ/core/multipole.h Pages: 1 -->
<svg width="1137pt" height="588pt"
 viewBox="0.00 0.00 1137.00 588.00" xmlns="http://www.w3.org/2000/svg" xmlns:xlink="http://www.w3.org/1999/xlink">
<g id="graph0" class="graph" transform="scale(1 1) rotate(0) translate(4 584)">
<title>/home/runner/work/occ/occ/include/occ/core/multipole.h</title>
<!-- Node1 -->
<g id="Node000001" class="node">
<title>Node1</title>
<g id="a_Node000001"><a xlink:title=" ">
<polygon fill="#999999" stroke="#666666" points="356,-580 228,-580 228,-539 356,-539 356,-580"/>
<text text-anchor="start" x="236" y="-568" font-family="Helvetica,sans-Serif" font-size="10.00">/home/runner/work/occ</text>
<text text-anchor="start" x="236" y="-557" font-family="Helvetica,sans-Serif" font-size="10.00">/occ/include/occ/core</text>
<text text-anchor="middle" x="292" y="-546" font-family="Helvetica,sans-Serif" font-size="10.00">/multipole.h</text>
</a>
</g>
</g>
<!-- Node2 -->
<g id="Node000002" class="node">
<title>Node2</title>
<g id="a_Node000002"><a xlink:href="dft_2hirshfeld_8h.html" target="_top" xlink:title=" ">
<polygon fill="white" stroke="#666666" points="217,-503 89,-503 89,-462 217,-462 217,-503"/>
<text text-anchor="start" x="97" y="-491" font-family="Helvetica,sans-Serif" font-size="10.00">/home/runner/work/occ</text>
<text text-anchor="start" x="97" y="-480" font-family="Helvetica,sans-Serif" font-size="10.00">/occ/include/occ/dft</text>
<text text-anchor="middle" x="153" y="-469" font-family="Helvetica,sans-Serif" font-size="10.00">/hirshfeld.h</text>
</a>
</g>
</g>
<!-- Node1&#45;&gt;Node2 -->
<g id="edge1_Node000001_Node000002" class="edge">
<title>Node1&#45;&gt;Node2</title>
<g id="a_edge1_Node000001_Node000002"><a xlink:title=" ">
<path fill="none" stroke="#63b8ff" d="M246.95,-534.19C228.35,-524.15 207.06,-512.67 189.46,-503.17"/>
<polygon fill="#63b8ff" stroke="#63b8ff" points="245.38,-537.32 255.84,-538.99 248.7,-531.16 245.38,-537.32"/>
</a>
</g>
</g>
<!-- Node3 -->
<g id="Node000003" class="node">
<title>Node3</title>
<g id="a_Node000003"><a xlink:href="cint__interface_8h.html" target="_top" xlink:title=" ">
<polygon fill="white" stroke="#666666" points="436,-503 302,-503 302,-462 436,-462 436,-503"/>
<text text-anchor="start" x="310" y="-491" font-family="Helvetica,sans-Serif" font-size="10.00">/home/runner/work/occ</text>
<text text-anchor="start" x="310" y="-480" font-family="Helvetica,sans-Serif" font-size="10.00">/occ/include/occ/qm/cint</text>
<text text-anchor="middle" x="369" y="-469" font-family="Helvetica,sans-Serif" font-size="10.00">_interface.h</text>
</a>
</g>
</g>
<!-- Node1&#45;&gt;Node3 -->
<g id="edge2_Node000001_Node000003" class="edge">
<title>Node1&#45;&gt;Node3</title>
<g id="a_edge2_Node000001_Node000003"><a xlink:title=" ">
<path fill="none" stroke="#63b8ff" d="M319.42,-531.79C329.15,-522.32 339.9,-511.84 348.9,-503.07"/>
<polygon fill="#63b8ff" stroke="#63b8ff" points="316.95,-529.31 312.23,-538.79 321.84,-534.32 316.95,-529.31"/>
</a>
</g>
</g>
<!-- Node4 -->
<g id="Node000004" class="node">
<title>Node4</title>
<g id="a_Node000004"><a xlink:href="integral__engine_8h.html" target="_top" xlink:title=" ">
<polygon fill="white" stroke="#666666" points="561.5,-426 408.5,-426 408.5,-385 561.5,-385 561.5,-426"/>
<text text-anchor="start" x="416.5" y="-414" font-family="Helvetica,sans-Serif" font-size="10.00">/home/runner/work/occ</text>
<text text-anchor="start" x="416.5" y="-403" font-family="Helvetica,sans-Serif" font-size="10.00">/occ/include/occ/qm/integral</text>
<text text-anchor="middle" x="485" y="-392" font-family="Helvetica,sans-Serif" font-size="10.00">_engine.h</text>
</a>
</g>
</g>
<!-- Node1&#45;&gt;Node4 -->
<g id="edge29_Node000001_Node000004" class="edge">
<title>Node1&#45;&gt;Node4</title>
<g id="a_edge29_Node000001_Node000004"><a xlink:title=" ">
<path fill="none" stroke="#63b8ff" d="M365.73,-544.98C393.4,-536.77 423.35,-523.7 445,-503 466.76,-482.2 477.12,-447.8 481.71,-426.18"/>
<polygon fill="#63b8ff" stroke="#63b8ff" points="364.74,-541.63 356.05,-547.69 366.63,-548.37 364.74,-541.63"/>
</a>
</g>
</g>
<!-- Node11 -->
<g id="Node000011" class="node">
<title>Node11</title>
<g id="a_Node000011"><a xlink:href="hf_8h.html" target="_top" xlink:title=" ">
<polygon fill="white" stroke="#666666" points="336,-266.5 202,-266.5 202,-236.5 336,-236.5 336,-266.5"/>
<text text-anchor="start" x="210" y="-254.5" font-family="Helvetica,sans-Serif" font-size="10.00">/home/runner/work/occ</text>
<text text-anchor="middle" x="269" y="-243.5" font-family="Helvetica,sans-Serif" font-size="10.00">/occ/include/occ/qm/hf.h</text>
</a>
</g>
</g>
<!-- Node1&#45;&gt;Node11 -->
<g id="edge28_Node000001_Node000011" class="edge">
<title>Node1&#45;&gt;Node11</title>
<g id="a_edge28_Node000001_Node000011"><a xlink:title=" ">
<path fill="none" stroke="#63b8ff" d="M289.42,-528.85C285.92,-488.27 279.6,-413.15 275,-349 272.9,-319.7 270.87,-285.36 269.79,-266.57"/>
<polygon fill="#63b8ff" stroke="#63b8ff" points="285.93,-529.21 290.28,-538.87 292.91,-528.6 285.93,-529.21"/>
</a>
</g>
</g>
<!-- Node3&#45;&gt;Node4 -->
<g id="edge3_Node000003_Node000004" class="edge">
<title>Node3&#45;&gt;Node4</title>
<g id="a_edge3_Node000003_Node000004"><a xlink:title=" ">
<path fill="none" stroke="#63b8ff" d="M407.87,-456.37C423.09,-446.53 440.29,-435.41 454.57,-426.17"/>
<polygon fill="#63b8ff" stroke="#63b8ff" points="405.67,-453.62 399.17,-461.99 409.47,-459.5 405.67,-453.62"/>
</a>
</g>
</g>
<!-- Node5 -->
<g id="Node000005" class="node">
<title>Node5</title>
<g id="a_Node000005"><a xlink:href="seminumerical__exchange_8h.html" target="_top" xlink:title=" ">
<polygon fill="white" stroke="#666666" points="675,-349 521,-349 521,-308 675,-308 675,-349"/>
<text text-anchor="start" x="529" y="-337" font-family="Helvetica,sans-Serif" font-size="10.00">/home/runner/work/occ</text>
<text text-anchor="start" x="529" y="-326" font-family="Helvetica,sans-Serif" font-size="10.00">/occ/include/occ/dft</text>
<text text-anchor="middle" x="598" y="-315" font-family="Helvetica,sans-Serif" font-size="10.00">/seminumerical_exchange.h</text>
</a>
</g>
</g>
<!-- Node4&#45;&gt;Node5 -->
<g id="edge4_Node000004_Node000005" class="edge">
<title>Node4&#45;&gt;Node5</title>
<g id="a_edge4_Node000004_Node000005"><a xlink:title=" ">
<path fill="none" stroke="#63b8ff" d="M522.86,-379.37C537.69,-369.53 554.44,-358.41 568.36,-349.17"/>
<polygon fill="#63b8ff" stroke="#63b8ff" points="520.79,-376.54 514.39,-384.99 524.66,-382.38 520.79,-376.54"/>
</a>
</g>
</g>
<!-- Node6 -->
<g id="Node000006" class="node">
<title>Node6</title>
<g id="a_Node000006"><a xlink:href="dma_8h.html" target="_top" xlink:title=" ">
<polygon fill="white" stroke="#666666" points="995,-343.5 843,-343.5 843,-313.5 995,-313.5 995,-343.5"/>
<text text-anchor="start" x="851" y="-331.5" font-family="Helvetica,sans-Serif" font-size="10.00">/home/runner/work/occ</text>
<text text-anchor="middle" x="919" y="-320.5" font-family="Helvetica,sans-Serif" font-size="10.00">/occ/include/occ/dma/dma.h</text>
</a>
</g>
</g>
<!-- Node4&#45;&gt;Node6 -->
<g id="edge5_Node000004_Node000006" class="edge">
<title>Node4&#45;&gt;Node6</title>
<g id="a_edge5_Node000004_Node000006"><a xlink:title=" ">
<path fill="none" stroke="#63b8ff" d="M571.72,-392.38C642.51,-382.08 745.02,-366.26 834,-349 842.47,-347.36 851.39,-345.48 860.12,-343.55"/>
<polygon fill="#63b8ff" stroke="#63b8ff" points="570.91,-388.96 561.51,-393.86 571.91,-395.89 570.91,-388.96"/>
</a>
</g>
</g>
<!-- Node4&#45;&gt;Node11 -->
<g id="edge10_Node000004_Node000011" class="edge">
<title>Node4&#45;&gt;Node11</title>
<g id="a_edge10_Node000004_Node000011"><a xlink:title=" ">
<path fill="none" stroke="#63b8ff" d="M398.38,-395.34C364.6,-387.75 327.87,-373.98 302,-349 278.95,-326.74 271.99,-287.72 269.9,-266.76"/>
<polygon fill="#63b8ff" stroke="#63b8ff" points="397.78,-398.79 408.28,-397.41 399.21,-391.93 397.78,-398.79"/>
</a>
</g>
</g>
<!-- Node21 -->
<g id="Node000021" class="node">
<title>Node21</title>
<g id="a_Node000021"><a xlink:href="integral__engine__df_8h.html" target="_top" xlink:title=" ">
<polygon fill="white" stroke="#666666" points="464.5,-349 311.5,-349 311.5,-308 464.5,-308 464.5,-349"/>
<text text-anchor="start" x="319.5" y="-337" font-family="Helvetica,sans-Serif" font-size="10.00">/home/runner/work/occ</text>
<text text-anchor="start" x="319.5" y="-326" font-family="Helvetica,sans-Serif" font-size="10.00">/occ/include/occ/qm/integral</text>
<text text-anchor="middle" x="388" y="-315" font-family="Helvetica,sans-Serif" font-size="10.00">_engine_df.h</text>
</a>
</g>
</g>
<!-- Node4&#45;&gt;Node21 -->
<g id="edge21_Node000004_Node000021" class="edge">
<title>Node4&#45;&gt;Node21</title>
<g id="a_edge21_Node000004_Node000021"><a xlink:title=" ">
<path fill="none" stroke="#63b8ff" d="M451.78,-378.82C439.23,-369.11 425.17,-358.24 413.44,-349.17"/>
<polygon fill="#63b8ff" stroke="#63b8ff" points="449.72,-381.64 459.77,-384.99 454,-376.1 449.72,-381.64"/>
</a>
</g>
</g>
<!-- Node23 -->
<g id="Node000023" class="node">
<title>Node23</title>
<g id="a_Node000023"><a xlink:href="mo__integral__engine_8h.html" target="_top" xlink:title=" ">
<polygon fill="white" stroke="#666666" points="824.5,-349 693.5,-349 693.5,-308 824.5,-308 824.5,-349"/>
<text text-anchor="start" x="701.5" y="-337" font-family="Helvetica,sans-Serif" font-size="10.00">/home/runner/work/occ</text>
<text text-anchor="start" x="701.5" y="-326" font-family="Helvetica,sans-Serif" font-size="10.00">/occ/include/occ/qm/mo</text>
<text text-anchor="middle" x="759" y="-315" font-family="Helvetica,sans-Serif" font-size="10.00">_integral_engine.h</text>
</a>
</g>
</g>
<!-- Node4&#45;&gt;Node23 -->
<g id="edge24_Node000004_Node000023" class="edge">
<title>Node4&#45;&gt;Node23</title>
<g id="a_edge24_Node000004_Node000023"><a xlink:title=" ">
<path fill="none" stroke="#63b8ff" d="M566.13,-382.29C606.66,-371.2 655.07,-357.95 693.25,-347.5"/>
<polygon fill="#63b8ff" stroke="#63b8ff" points="565,-378.97 556.28,-384.99 566.84,-385.73 565,-378.97"/>
</a>
</g>
</g>
<!-- Node24 -->
<g id="Node000024" class="node">
<title>Node24</title>
<g id="a_Node000024"><a xlink:href="post__hf__method_8h.html" target="_top" xlink:title=" ">
<polygon fill="white" stroke="#666666" points="576.5,-272 439.5,-272 439.5,-231 576.5,-231 576.5,-272"/>
<text text-anchor="start" x="447.5" y="-260" font-family="Helvetica,sans-Serif" font-size="10.00">/home/runner/work/occ</text>
<text text-anchor="start" x="447.5" y="-249" font-family="Helvetica,sans-Serif" font-size="10.00">/occ/include/occ/qm/post</text>
<text text-anchor="middle" x="508" y="-238" font-family="Helvetica,sans-Serif" font-size="10.00">_hf_method.h</text>
</a>
</g>
</g>
<!-- Node4&#45;&gt;Node24 -->
<g id="edge27_Node000004_Node000024" class="edge">
<title>Node4&#45;&gt;Node24</title>
<g id="a_edge27_Node000004_Node000024"><a xlink:title=" ">
<path fill="none" stroke="#63b8ff" d="M489.47,-374.98C494.04,-344.76 501.02,-298.64 504.98,-272.47"/>
<polygon fill="#63b8ff" stroke="#63b8ff" points="486,-374.53 487.96,-384.94 492.92,-375.58 486,-374.53"/>
</a>
</g>
</g>
<!-- Node7 -->
<g id="Node000007" class="node">
<title>Node7</title>
<g id="a_Node000007"><a xlink:href="multipole__calculator_8h.html" target="_top" xlink:title=" ">
<polygon fill="white" stroke="#666666" points="837,-272 709,-272 709,-231 837,-231 837,-272"/>
<text text-anchor="start" x="717" y="-260" font-family="Helvetica,sans-Serif" font-size="10.00">/home/runner/work/occ</text>
<text text-anchor="start" x="717" y="-249" font-family="Helvetica,sans-Serif" font-size="10.00">/occ/include/occ/dma</text>
<text text-anchor="middle" x="773" y="-238" font-family="Helvetica,sans-Serif" font-size="10.00">/multipole_calculator.h</text>
</a>
</g>
</g>
<!-- Node6&#45;&gt;Node7 -->
<g id="edge6_Node000006_Node000007" class="edge">
<title>Node6&#45;&gt;Node7</title>
<g id="a_edge6_Node000006_Node000007"><a xlink:title=" ">
<path fill="none" stroke="#63b8ff" d="M882.59,-308.8C860.81,-297.61 833.16,-283.4 811.08,-272.06"/>
<polygon fill="#63b8ff" stroke="#63b8ff" points="881.04,-311.94 891.54,-313.39 884.24,-305.71 881.04,-311.94"/>
</a>
</g>
</g>
<!-- Node8 -->
<g id="Node000008" class="node">
<title>Node8</title>
<g id="a_Node000008"><a xlink:href="multipole__shifter_8h.html" target="_top" xlink:title=" ">
<polygon fill="white" stroke="#666666" points="983,-272 855,-272 855,-231 983,-231 983,-272"/>
<text text-anchor="start" x="863" y="-260" font-family="Helvetica,sans-Serif" font-size="10.00">/home/runner/work/occ</text>
<text text-anchor="start" x="863" y="-249" font-family="Helvetica,sans-Serif" font-size="10.00">/occ/include/occ/dma</text>
<text text-anchor="middle" x="919" y="-238" font-family="Helvetica,sans-Serif" font-size="10.00">/multipole_shifter.h</text>
</a>
</g>
</g>
<!-- Node6&#45;&gt;Node8 -->
<g id="edge7_Node000006_Node000008" class="edge">
<title>Node6&#45;&gt;Node8</title>
<g id="a_edge7_Node000006_Node000008"><a xlink:title=" ">
<path fill="none" stroke="#63b8ff" d="M919,-303.23C919,-293.2 919,-281.71 919,-272.2"/>
<polygon fill="#63b8ff" stroke="#63b8ff" points="915.5,-303.39 919,-313.39 922.5,-303.39 915.5,-303.39"/>
</a>
</g>
</g>
<!-- Node9 -->
<g id="Node000009" class="node">
<title>Node9</title>
<g id="a_Node000009"><a xlink:href="dma__driver_8h.html" target="_top" xlink:title=" ">
<polygon fill="white" stroke="#666666" points="1129,-272 1001,-272 1001,-231 1129,-231 1129,-272"/>
<text text-anchor="start" x="1009" y="-260" font-family="Helvetica,sans-Serif" font-size="10.00">/home/runner/work/occ</text>
<text text-anchor="start" x="1009" y="-249" font-family="Helvetica,sans-Serif" font-size="10.00">/occ/include/occ/driver</text>
<text text-anchor="middle" x="1065" y="-238" font-family="Helvetica,sans-Serif" font-size="10.00">/dma_driver.h</text>
</a>
</g>
</g>
<!-- Node6&#45;&gt;Node9 -->
<g id="edge8_Node000006_Node000009" class="edge">
<title>Node6&#45;&gt;Node9</title>
<g id="a_edge8_Node000006_Node000009"><a xlink:title=" ">
<path fill="none" stroke="#63b8ff" d="M955.41,-308.8C977.19,-297.61 1004.84,-283.4 1026.92,-272.06"/>
<polygon fill="#63b8ff" stroke="#63b8ff" points="953.76,-305.71 946.46,-313.39 956.96,-311.94 953.76,-305.71"/>
</a>
</g>
</g>
<!-- Node10 -->
<g id="Node000010" class="node">
<title>Node10</title>
<g id="a_Node000010"><a xlink:href="occ__dma_8h.html" target="_top" xlink:title=" ">
<polygon fill="white" stroke="#666666" points="1129,-195 1001,-195 1001,-154 1129,-154 1129,-195"/>
<text text-anchor="start" x="1009" y="-183" font-family="Helvetica,sans-Serif" font-size="10.00">/home/runner/work/occ</text>
<text text-anchor="start" x="1009" y="-172" font-family="Helvetica,sans-Serif" font-size="10.00">/occ/include/occ/main</text>
<text text-anchor="middle" x="1065" y="-161" font-family="Helvetica,sans-Serif" font-size="10.00">/occ_dma.h</text>
</a>
</g>
</g>
<!-- Node9&#45;&gt;Node10 -->
<g id="edge9_Node000009_Node000010" class="edge">
<title>Node9&#45;&gt;Node10</title>
<g id="a_edge9_Node000009_Node000010"><a xlink:title=" ">
<path fill="none" stroke="#63b8ff" d="M1065,-220.69C1065,-212.08 1065,-202.9 1065,-195.07"/>
<polygon fill="#63b8ff" stroke="#63b8ff" points="1061.5,-220.79 1065,-230.79 1068.5,-220.79 1061.5,-220.79"/>
</a>
</g>
</g>
<!-- Node12 -->
<g id="Node000012" class="node">
<title>Node12</title>
<g id="a_Node000012"><a xlink:href="dft_8h.html" target="_top" xlink:title=" ">
<polygon fill="white" stroke="#666666" points="213,-189.5 79,-189.5 79,-159.5 213,-159.5 213,-189.5"/>
<text text-anchor="start" x="87" y="-177.5" font-family="Helvetica,sans-Serif" font-size="10.00">/home/runner/work/occ</text>
<text text-anchor="middle" x="146" y="-166.5" font-family="Helvetica,sans-Serif" font-size="10.00">/occ/include/occ/dft/dft.h</text>
</a>
</g>
</g>
<!-- Node11&#45;&gt;Node12 -->
<g id="edge11_Node000011_Node000012" class="edge">
<title>Node11&#45;&gt;Node12</title>
<g id="a_edge11_Node000011_Node000012"><a xlink:title=" ">
<path fill="none" stroke="#63b8ff" d="M237.15,-231.08C215.82,-218.08 188.24,-201.26 169.03,-189.54"/>
<polygon fill="#63b8ff" stroke="#63b8ff" points="235.5,-234.18 245.86,-236.39 239.15,-228.2 235.5,-234.18"/>
</a>
</g>
</g>
<!-- Node15 -->
<g id="Node000015" class="node">
<title>Node15</title>
<g id="a_Node000015"><a xlink:href="point__functors_8h.html" target="_top" xlink:title=" ">
<polygon fill="white" stroke="#666666" points="278,-118 150,-118 150,-77 278,-77 278,-118"/>
<text text-anchor="start" x="158" y="-106" font-family="Helvetica,sans-Serif" font-size="10.00">/home/runner/work/occ</text>
<text text-anchor="start" x="158" y="-95" font-family="Helvetica,sans-Serif" font-size="10.00">/occ/include/occ/main</text>
<text text-anchor="middle" x="214" y="-84" font-family="Helvetica,sans-Serif" font-size="10.00">/point_functors.h</text>
</a>
</g>
</g>
<!-- Node11&#45;&gt;Node15 -->
<g id="edge20_Node000011_Node000015" class="edge">
<title>Node11&#45;&gt;Node15</title>
<g id="a_edge20_Node000011_Node000015"><a xlink:title=" ">
<path fill="none" stroke="#63b8ff" d="M260.44,-226.85C249.63,-196.96 231.21,-146.05 221.12,-118.18"/>
<polygon fill="#63b8ff" stroke="#63b8ff" points="257.23,-228.26 263.92,-236.47 263.81,-225.88 257.23,-228.26"/>
</a>
</g>
</g>
<!-- Node16 -->
<g id="Node000016" class="node">
<title>Node16</title>
<g id="a_Node000016"><a xlink:href="electric__potential_8h.html" target="_top" xlink:title=" ">
<polygon fill="white" stroke="#666666" points="416.5,-195 269.5,-195 269.5,-154 416.5,-154 416.5,-195"/>
<text text-anchor="start" x="277.5" y="-183" font-family="Helvetica,sans-Serif" font-size="10.00">/home/runner/work/occ</text>
<text text-anchor="start" x="277.5" y="-172" font-family="Helvetica,sans-Serif" font-size="10.00">/occ/include/occ/isosurface</text>
<text text-anchor="middle" x="343" y="-161" font-family="Helvetica,sans-Serif" font-size="10.00">/electric_potential.h</text>
</a>
</g>
</g>
<!-- Node11&#45;&gt;Node16 -->
<g id="edge15_Node000011_Node000016" class="edge">
<title>Node11&#45;&gt;Node16</title>
<g id="a_edge15_Node000011_Node000016"><a xlink:title=" ">
<path fill="none" stroke="#63b8ff" d="M290.14,-229.07C300.66,-218.41 313.28,-205.62 323.56,-195.2"/>
<polygon fill="#63b8ff" stroke="#63b8ff" points="287.45,-226.82 282.92,-236.39 292.43,-231.73 287.45,-226.82"/>
</a>
</g>
</g>
<!-- Node13 -->
<g id="Node000013" class="node">
<title>Node13</title>
<g id="a_Node000013"><a xlink:href="smd__solvation_8h.html" target="_top" xlink:title=" ">
<polygon fill="white" stroke="#666666" points="132,-118 0,-118 0,-77 132,-77 132,-118"/>
<text text-anchor="start" x="8" y="-106" font-family="Helvetica,sans-Serif" font-size="10.00">/home/runner/work/occ</text>
<text text-anchor="start" x="8" y="-95" font-family="Helvetica,sans-Serif" font-size="10.00">/occ/include/occ/cg/smd</text>
<text text-anchor="middle" x="66" y="-84" font-family="Helvetica,sans-Serif" font-size="10.00">_solvation.h</text>
</a>
</g>
</g>
<!-- Node12&#45;&gt;Node13 -->
<g id="edge12_Node000012_Node000013" class="edge">
<title>Node12&#45;&gt;Node13</title>
<g id="a_edge12_Node000012_Node000013"><a xlink:title=" ">
<path fill="none" stroke="#63b8ff" d="M123.48,-152.38C112.04,-141.66 98.23,-128.72 87.02,-118.2"/>
<polygon fill="#63b8ff" stroke="#63b8ff" points="121.26,-155.11 130.95,-159.39 126.05,-150 121.26,-155.11"/>
</a>
</g>
</g>
<!-- Node12&#45;&gt;Node15 -->
<g id="edge14_Node000012_Node000015" class="edge">
<title>Node12&#45;&gt;Node15</title>
<g id="a_edge14_Node000012_Node000015"><a xlink:title=" ">
<path fill="none" stroke="#63b8ff" d="M165.71,-151.76C175.32,-141.17 186.79,-128.52 196.14,-118.2"/>
<polygon fill="#63b8ff" stroke="#63b8ff" points="162.91,-149.63 158.79,-159.39 168.1,-154.34 162.91,-149.63"/>
</a>
</g>
</g>
<!-- Node14 -->
<g id="Node000014" class="node">
<title>Node14</title>
<g id="a_Node000014"><a xlink:href="crystal__growth_8h.html" target="_top" xlink:title=" ">
<polygon fill="white" stroke="#666666" points="130,-41 2,-41 2,0 130,0 130,-41"/>
<text text-anchor="start" x="10" y="-29" font-family="Helvetica,sans-Serif" font-size="10.00">/home/runner/work/occ</text>
<text text-anchor="start" x="10" y="-18" font-family="Helvetica,sans-Serif" font-size="10.00">/occ/include/occ/driver</text>
<text text-anchor="middle" x="66" y="-7" font-family="Helvetica,sans-Serif" font-size="10.00">/crystal_growth.h</text>
</a>
</g>
</g>
<!-- Node13&#45;&gt;Node14 -->
<g id="edge13_Node000013_Node000014" class="edge">
<title>Node13&#45;&gt;Node14</title>
<g id="a_edge13_Node000013_Node000014"><a xlink:title=" ">
<path fill="none" stroke="#63b8ff" d="M66,-66.69C66,-58.08 66,-48.9 66,-41.07"/>
<polygon fill="#63b8ff" stroke="#63b8ff" points="62.5,-66.79 66,-76.79 69.5,-66.79 62.5,-66.79"/>
</a>
</g>
</g>
<!-- Node17 -->
<g id="Node000017" class="node">
<title>Node17</title>
<g id="a_Node000017"><a xlink:href="isosurface_8h.html" target="_top" xlink:title=" ">
<polygon fill="white" stroke="#666666" points="443.5,-118 296.5,-118 296.5,-77 443.5,-77 443.5,-118"/>
<text text-anchor="start" x="304.5" y="-106" font-family="Helvetica,sans-Serif" font-size="10.00">/home/runner/work/occ</text>
<text text-anchor="start" x="304.5" y="-95" font-family="Helvetica,sans-Serif" font-size="10.00">/occ/include/occ/isosurface</text>
<text text-anchor="middle" x="370" y="-84" font-family="Helvetica,sans-Serif" font-size="10.00">/isosurface.h</text>
</a>
</g>
</g>
<!-- Node16&#45;&gt;Node17 -->
<g id="edge16_Node000016_Node000017" class="edge">
<title>Node16&#45;&gt;Node17</title>
<g id="a_edge16_Node000016_Node000017"><a xlink:title=" ">
<path fill="none" stroke="#63b8ff" d="M353.53,-144.26C356.69,-135.48 360.08,-126.07 362.95,-118.07"/>
<polygon fill="#63b8ff" stroke="#63b8ff" points="350.19,-143.2 350.09,-153.79 356.77,-145.57 350.19,-143.2"/>
</a>
</g>
</g>
<!-- Node18 -->
<g id="Node000018" class="node">
<title>Node18</title>
<g id="a_Node000018"><a xlink:href="isosurface__json_8h.html" target="_top" xlink:title=" ">
<polygon fill="white" stroke="#666666" points="612.5,-41 453.5,-41 453.5,0 612.5,0 612.5,-41"/>
<text text-anchor="start" x="461.5" y="-29" font-family="Helvetica,sans-Serif" font-size="10.00">/home/runner/work/occ</text>
<text text-anchor="start" x="461.5" y="-18" font-family="Helvetica,sans-Serif" font-size="10.00">/occ/include/occ/io/isosurface</text>
<text text-anchor="middle" x="533" y="-7" font-family="Helvetica,sans-Serif" font-size="10.00">_json.h</text>
</a>
</g>
</g>
<!-- Node17&#45;&gt;Node18 -->
<g id="edge17_Node000017_Node000018" class="edge">
<title>Node17&#45;&gt;Node18</title>
<g id="a_edge17_Node000017_Node000018"><a xlink:title=" ">
<path fill="none" stroke="#63b8ff" d="M421.68,-72.72C443.86,-62.51 469.47,-50.73 490.53,-41.04"/>
<polygon fill="#63b8ff" stroke="#63b8ff" points="420.02,-69.63 412.4,-76.99 422.95,-75.99 420.02,-69.63"/>
</a>
</g>
</g>
<!-- Node19 -->
<g id="Node000019" class="node">
<title>Node19</title>
<g id="a_Node000019"><a xlink:href="obj_8h.html" target="_top" xlink:title=" ">
<polygon fill="white" stroke="#666666" points="286.5,-35.5 153.5,-35.5 153.5,-5.5 286.5,-5.5 286.5,-35.5"/>
<text text-anchor="start" x="161.5" y="-23.5" font-family="Helvetica,sans-Serif" font-size="10.00">/home/runner/work/occ</text>
<text text-anchor="middle" x="220" y="-12.5" font-family="Helvetica,sans-Serif" font-size="10.00">/occ/include/occ/io/obj.h</text>
</a>
</g>
</g>
<!-- Node17&#45;&gt;Node19 -->
<g id="edge18_Node000017_Node000019" class="edge">
<title>Node17&#45;&gt;Node19</title>
<g id="a_edge18_Node000017_Node000019"><a xlink:title=" ">
<path fill="none" stroke="#63b8ff" d="M321.93,-72.46C297.68,-60.34 269.11,-46.06 248.4,-35.7"/>
<polygon fill="#63b8ff" stroke="#63b8ff" points="320.47,-75.65 330.98,-76.99 323.6,-69.39 320.47,-75.65"/>
</a>
</g>
</g>
<!-- Node20 -->
<g id="Node000020" class="node">
<title>Node20</title>
<g id="a_Node000020"><a xlink:href="ply_8h.html" target="_top" xlink:title=" ">
<polygon fill="white" stroke="#666666" points="435.5,-35.5 304.5,-35.5 304.5,-5.5 435.5,-5.5 435.5,-35.5"/>
<text text-anchor="start" x="312.5" y="-23.5" font-family="Helvetica,sans-Serif" font-size="10.00">/home/runner/work/occ</text>
<text text-anchor="middle" x="370" y="-12.5" font-family="Helvetica,sans-Serif" font-size="10.00">/occ/include/occ/io/ply.h</text>
</a>
</g>
</g>
<!-- Node17&#45;&gt;Node20 -->
<g id="edge19_Node000017_Node000020" class="edge">
<title>Node17&#45;&gt;Node20</title>
<g id="a_edge19_Node000017_Node000020"><a xlink:title=" ">
<path fill="none" stroke="#63b8ff" d="M370,-66.61C370,-56.01 370,-44.57 370,-35.86"/>
<polygon fill="#63b8ff" stroke="#63b8ff" points="366.5,-66.79 370,-76.79 373.5,-66.79 366.5,-66.79"/>
</a>
</g>
</g>
<!-- Node21&#45;&gt;Node11 -->
<g id="edge22_Node000021_Node000011" class="edge">
<title>Node21&#45;&gt;Node11</title>
<g id="a_edge22_Node000021_Node000011"><a xlink:title=" ">
<path fill="none" stroke="#63b8ff" d="M348.33,-302.5C329.44,-290.59 307.53,-276.78 291.53,-266.7"/>
<polygon fill="#63b8ff" stroke="#63b8ff" points="346.72,-305.62 357.04,-307.99 350.45,-299.7 346.72,-305.62"/>
</a>
</g>
</g>
<!-- Node22 -->
<g id="Node000022" class="node">
<title>Node22</title>
<g id="a_Node000022"><a xlink:href="mp2_8h.html" target="_top" xlink:title=" ">
<polygon fill="white" stroke="#666666" points="581,-189.5 435,-189.5 435,-159.5 581,-159.5 581,-189.5"/>
<text text-anchor="start" x="443" y="-177.5" font-family="Helvetica,sans-Serif" font-size="10.00">/home/runner/work/occ</text>
<text text-anchor="middle" x="508" y="-166.5" font-family="Helvetica,sans-Serif" font-size="10.00">/occ/include/occ/qm/mp2.h</text>
</a>
</g>
</g>
<!-- Node21&#45;&gt;Node22 -->
<g id="edge23_Node000021_Node000022" class="edge">
<title>Node21&#45;&gt;Node22</title>
<g id="a_edge23_Node000021_Node000022"><a xlink:title=" ">
<path fill="none" stroke="#63b8ff" d="M396.21,-298.01C402.92,-277.65 413.95,-250.79 430,-231 444.03,-213.7 464.74,-199.31 481.3,-189.52"/>
<polygon fill="#63b8ff" stroke="#63b8ff" points="392.82,-297.12 393.17,-307.7 399.5,-299.21 392.82,-297.12"/>
</a>
</g>
</g>
<!-- Node23&#45;&gt;Node24 -->
<g id="edge25_Node000023_Node000024" class="edge">
<title>Node23&#45;&gt;Node24</title>
<g id="a_edge25_Node000023_Node000024"><a xlink:title=" ">
<path fill="none" stroke="#63b8ff" d="M683.97,-305.08C648.79,-294.57 607.27,-282.16 573.4,-272.04"/>
<polygon fill="#63b8ff" stroke="#63b8ff" points="683.12,-308.48 693.71,-307.99 685.13,-301.77 683.12,-308.48"/>
</a>
</g>
</g>
<!-- Node24&#45;&gt;Node22 -->
<g id="edge26_Node000024_Node000022" class="edge">
<title>Node24&#45;&gt;Node22</title>
<g id="a_edge26_Node000024_Node000022"><a xlink:title=" ">
<path fill="none" stroke="#63b8ff" d="M508,-220.61C508,-210.01 508,-198.57 508,-189.86"/>
<polygon fill="#63b8ff" stroke="#63b8ff" points="504.5,-220.79 508,-230.79 511.5,-220.79 504.5,-220.79"/>
</a>
</g>
</g>
</g>
</svg>
