<?xml version="1.0" encoding="UTF-8" standalone="no"?>
<!DOCTYPE svg PUBLIC "-//W3C//DTD SVG 1.1//EN"
 "http://www.w3.org/Graphics/SVG/1.1/DTD/svg11.dtd">
<!-- Generated by graphviz version 2.43.0 (0)
 -->
<!-- Title: /home/runner/work/occ/occ/include/occ/dma/mult.h Pages: 1 -->
<svg width="1950pt" height="665pt"
 viewBox="0.00 0.00 1950.00 665.00" xmlns="http://www.w3.org/2000/svg" xmlns:xlink="http://www.w3.org/1999/xlink">
<g id="graph0" class="graph" transform="scale(1 1) rotate(0) translate(4 661)">
<title>/home/runner/work/occ/occ/include/occ/dma/mult.h</title>
<!-- Node1 -->
<g id="Node000001" class="node">
<title>Node1</title>
<g id="a_Node000001"><a xlink:title=" ">
<polygon fill="#999999" stroke="#666666" points="1114,-657 986,-657 986,-616 1114,-616 1114,-657"/>
<text text-anchor="start" x="994" y="-645" font-family="Helvetica,sans-Serif" font-size="10.00">/home/runner/work/occ</text>
<text text-anchor="start" x="994" y="-634" font-family="Helvetica,sans-Serif" font-size="10.00">/occ/include/occ/dma</text>
<text text-anchor="middle" x="1050" y="-623" font-family="Helvetica,sans-Serif" font-size="10.00">/mult.h</text>
</a>
</g>
</g>
<!-- Node2 -->
<g id="Node000002" class="node">
<title>Node2</title>
<g id="a_Node000002"><a xlink:href="add__qlm_8h.html" target="_top" xlink:title=" ">
<polygon fill="white" stroke="#666666" points="162,-580 34,-580 34,-539 162,-539 162,-580"/>
<text text-anchor="start" x="42" y="-568" font-family="Helvetica,sans-Serif" font-size="10.00">/home/runner/work/occ</text>
<text text-anchor="start" x="42" y="-557" font-family="Helvetica,sans-Serif" font-size="10.00">/occ/include/occ/dma</text>
<text text-anchor="middle" x="98" y="-546" font-family="Helvetica,sans-Serif" font-size="10.00">/add_qlm.h</text>
</a>
</g>
</g>
<!-- Node1&#45;&gt;Node2 -->
<g id="edge1_Node000001_Node000002" class="edge">
<title>Node1&#45;&gt;Node2</title>
<g id="a_edge1_Node000001_Node000002"><a xlink:title=" ">
<path fill="none" stroke="#63b8ff" d="M975.96,-634.58C826.11,-631.86 476.4,-621.25 186,-580 178.25,-578.9 170.18,-577.49 162.19,-575.92"/>
<polygon fill="#63b8ff" stroke="#63b8ff" points="975.92,-638.08 985.97,-634.75 976.04,-631.08 975.92,-638.08"/>
</a>
</g>
</g>
<!-- Node4 -->
<g id="Node000004" class="node">
<title>Node4</title>
<g id="a_Node000004"><a xlink:href="dma_8h.html" target="_top" xlink:title=" ">
<polygon fill="white" stroke="#666666" points="347,-574.5 195,-574.5 195,-544.5 347,-544.5 347,-574.5"/>
<text text-anchor="start" x="203" y="-562.5" font-family="Helvetica,sans-Serif" font-size="10.00">/home/runner/work/occ</text>
<text text-anchor="middle" x="271" y="-551.5" font-family="Helvetica,sans-Serif" font-size="10.00">/occ/include/occ/dma/dma.h</text>
</a>
</g>
</g>
<!-- Node1&#45;&gt;Node4 -->
<g id="edge3_Node000001_Node000004" class="edge">
<title>Node1&#45;&gt;Node4</title>
<g id="a_edge3_Node000001_Node000004"><a xlink:title=" ">
<path fill="none" stroke="#63b8ff" d="M975.51,-632.3C849.78,-626.26 587.68,-610.91 368,-580 357.37,-578.5 346.15,-576.58 335.26,-574.52"/>
<polygon fill="#63b8ff" stroke="#63b8ff" points="975.63,-635.81 985.79,-632.79 975.96,-628.82 975.63,-635.81"/>
</a>
</g>
</g>
<!-- Node5 -->
<g id="Node000005" class="node">
<title>Node5</title>
<g id="a_Node000005"><a xlink:href="multipole__calculator_8h.html" target="_top" xlink:title=" ">
<polygon fill="white" stroke="#666666" points="420,-503 292,-503 292,-462 420,-462 420,-503"/>
<text text-anchor="start" x="300" y="-491" font-family="Helvetica,sans-Serif" font-size="10.00">/home/runner/work/occ</text>
<text text-anchor="start" x="300" y="-480" font-family="Helvetica,sans-Serif" font-size="10.00">/occ/include/occ/dma</text>
<text text-anchor="middle" x="356" y="-469" font-family="Helvetica,sans-Serif" font-size="10.00">/multipole_calculator.h</text>
</a>
</g>
</g>
<!-- Node1&#45;&gt;Node5 -->
<g id="edge10_Node000001_Node000005" class="edge">
<title>Node1&#45;&gt;Node5</title>
<g id="a_edge10_Node000001_Node000005"><a xlink:title=" ">
<path fill="none" stroke="#63b8ff" d="M975.67,-636.33C831.53,-636.74 520.09,-631.44 428,-580 397.16,-562.77 375.66,-526.24 364.61,-503.39"/>
<polygon fill="#63b8ff" stroke="#63b8ff" points="975.77,-639.83 985.75,-636.29 975.74,-632.83 975.77,-639.83"/>
</a>
</g>
</g>
<!-- Node8 -->
<g id="Node000008" class="node">
<title>Node8</title>
<g id="a_Node000008"><a xlink:href="linear__multipole__calculator_8h.html" target="_top" xlink:title=" ">
<polygon fill="white" stroke="#666666" points="598.5,-580 437.5,-580 437.5,-539 598.5,-539 598.5,-580"/>
<text text-anchor="start" x="445.5" y="-568" font-family="Helvetica,sans-Serif" font-size="10.00">/home/runner/work/occ</text>
<text text-anchor="start" x="445.5" y="-557" font-family="Helvetica,sans-Serif" font-size="10.00">/occ/include/occ/dma</text>
<text text-anchor="middle" x="518" y="-546" font-family="Helvetica,sans-Serif" font-size="10.00">/linear_multipole_calculator.h</text>
</a>
</g>
</g>
<!-- Node1&#45;&gt;Node8 -->
<g id="edge8_Node000001_Node000008" class="edge">
<title>Node1&#45;&gt;Node8</title>
<g id="a_edge8_Node000001_Node000008"><a xlink:title=" ">
<path fill="none" stroke="#63b8ff" d="M975.73,-628.28C887.48,-619.23 735.96,-602.16 607,-580 604.35,-579.54 601.66,-579.06 598.94,-578.56"/>
<polygon fill="#63b8ff" stroke="#63b8ff" points="975.6,-631.79 985.91,-629.32 976.31,-624.82 975.6,-631.79"/>
</a>
</g>
</g>
<!-- Node9 -->
<g id="Node000009" class="node">
<title>Node9</title>
<g id="a_Node000009"><a xlink:href="linear__multipole__shifter_8h.html" target="_top" xlink:title=" ">
<polygon fill="white" stroke="#666666" points="759.5,-580 616.5,-580 616.5,-539 759.5,-539 759.5,-580"/>
<text text-anchor="start" x="624.5" y="-568" font-family="Helvetica,sans-Serif" font-size="10.00">/home/runner/work/occ</text>
<text text-anchor="start" x="624.5" y="-557" font-family="Helvetica,sans-Serif" font-size="10.00">/occ/include/occ/dma</text>
<text text-anchor="middle" x="688" y="-546" font-family="Helvetica,sans-Serif" font-size="10.00">/linear_multipole_shifter.h</text>
</a>
</g>
</g>
<!-- Node1&#45;&gt;Node9 -->
<g id="edge9_Node000001_Node000009" class="edge">
<title>Node1&#45;&gt;Node9</title>
<g id="a_edge9_Node000001_Node000009"><a xlink:title=" ">
<path fill="none" stroke="#63b8ff" d="M975.66,-621.06C920.05,-610.14 842.17,-594.58 774,-580 769.36,-579.01 764.58,-577.97 759.77,-576.91"/>
<polygon fill="#63b8ff" stroke="#63b8ff" points="975.29,-624.56 985.77,-623.05 976.63,-617.69 975.29,-624.56"/>
</a>
</g>
</g>
<!-- Node10 -->
<g id="Node000010" class="node">
<title>Node10</title>
<g id="a_Node000010"><a xlink:href="cartesian__interaction_8h.html" target="_top" xlink:title=" ">
<polygon fill="white" stroke="#666666" points="569.5,-503 438.5,-503 438.5,-462 569.5,-462 569.5,-503"/>
<text text-anchor="start" x="446.5" y="-491" font-family="Helvetica,sans-Serif" font-size="10.00">/home/runner/work/occ</text>
<text text-anchor="start" x="446.5" y="-480" font-family="Helvetica,sans-Serif" font-size="10.00">/occ/include/occ/mults</text>
<text text-anchor="middle" x="504" y="-469" font-family="Helvetica,sans-Serif" font-size="10.00">/cartesian_interaction.h</text>
</a>
</g>
</g>
<!-- Node1&#45;&gt;Node10 -->
<g id="edge11_Node000001_Node000010" class="edge">
<title>Node1&#45;&gt;Node10</title>
<g id="a_edge11_Node000001_Node000010"><a xlink:title=" ">
<path fill="none" stroke="#63b8ff" d="M975.78,-629.82C925.45,-623.36 858.9,-609.54 807,-580 785.14,-567.56 790.08,-551.04 768,-539 692.93,-498.06 662.42,-521.77 579,-503 575.98,-502.32 572.9,-501.61 569.79,-500.87"/>
<polygon fill="#63b8ff" stroke="#63b8ff" points="975.59,-633.33 985.94,-631.06 976.44,-626.38 975.59,-633.33"/>
</a>
</g>
</g>
<!-- Node11 -->
<g id="Node000011" class="node">
<title>Node11</title>
<g id="a_Node000011"><a xlink:href="cartesian__molecule_8h.html" target="_top" xlink:title=" ">
<polygon fill="white" stroke="#666666" points="1098,-426 970,-426 970,-385 1098,-385 1098,-426"/>
<text text-anchor="start" x="978" y="-414" font-family="Helvetica,sans-Serif" font-size="10.00">/home/runner/work/occ</text>
<text text-anchor="start" x="978" y="-403" font-family="Helvetica,sans-Serif" font-size="10.00">/occ/include/occ/mults</text>
<text text-anchor="middle" x="1034" y="-392" font-family="Helvetica,sans-Serif" font-size="10.00">/cartesian_molecule.h</text>
</a>
</g>
</g>
<!-- Node1&#45;&gt;Node11 -->
<g id="edge12_Node000001_Node000011" class="edge">
<title>Node1&#45;&gt;Node11</title>
<g id="a_edge12_Node000001_Node000011"><a xlink:title=" ">
<path fill="none" stroke="#63b8ff" d="M1041.24,-606.21C1039.11,-597.82 1037.12,-588.62 1036,-580 1028.79,-524.59 1030.98,-458.38 1032.73,-426.12"/>
<polygon fill="#63b8ff" stroke="#63b8ff" points="1037.88,-607.2 1043.87,-615.94 1044.64,-605.37 1037.88,-607.2"/>
</a>
</g>
</g>
<!-- Node18 -->
<g id="Node000018" class="node">
<title>Node18</title>
<g id="a_Node000018"><a xlink:href="multipole__source_8h.html" target="_top" xlink:title=" ">
<polygon fill="white" stroke="#666666" points="1152,-272 1024,-272 1024,-231 1152,-231 1152,-272"/>
<text text-anchor="start" x="1032" y="-260" font-family="Helvetica,sans-Serif" font-size="10.00">/home/runner/work/occ</text>
<text text-anchor="start" x="1032" y="-249" font-family="Helvetica,sans-Serif" font-size="10.00">/occ/include/occ/mults</text>
<text text-anchor="middle" x="1088" y="-238" font-family="Helvetica,sans-Serif" font-size="10.00">/multipole_source.h</text>
</a>
</g>
</g>
<!-- Node1&#45;&gt;Node18 -->
<g id="edge37_Node000001_Node000018" class="edge">
<title>Node1&#45;&gt;Node18</title>
<g id="a_edge37_Node000001_Node000018"><a xlink:title=" ">
<path fill="none" stroke="#63b8ff" d="M1057.47,-605.96C1062.35,-586.83 1068.93,-561.41 1075,-539 1088.66,-488.62 1099.82,-477.7 1107,-426 1109.51,-407.95 1108.3,-403.18 1107,-385 1104.12,-344.67 1096.38,-297.95 1091.71,-272.16"/>
<polygon fill="#63b8ff" stroke="#63b8ff" points="1054.02,-605.32 1054.95,-615.87 1060.8,-607.05 1054.02,-605.32"/>
</a>
</g>
</g>
<!-- Node22 -->
<g id="Node000022" class="node">
<title>Node22</title>
<g id="a_Node000022"><a xlink:href="cartesian__multipole_8h.html" target="_top" xlink:title=" ">
<polygon fill="white" stroke="#666666" points="944,-580 816,-580 816,-539 944,-539 944,-580"/>
<text text-anchor="start" x="824" y="-568" font-family="Helvetica,sans-Serif" font-size="10.00">/home/runner/work/occ</text>
<text text-anchor="start" x="824" y="-557" font-family="Helvetica,sans-Serif" font-size="10.00">/occ/include/occ/mults</text>
<text text-anchor="middle" x="880" y="-546" font-family="Helvetica,sans-Serif" font-size="10.00">/cartesian_multipole.h</text>
</a>
</g>
</g>
<!-- Node1&#45;&gt;Node22 -->
<g id="edge26_Node000001_Node000022" class="edge">
<title>Node1&#45;&gt;Node22</title>
<g id="a_edge26_Node000001_Node000022"><a xlink:title=" ">
<path fill="none" stroke="#63b8ff" d="M996.41,-611.86C973.2,-601.62 946.35,-589.77 924.3,-580.04"/>
<polygon fill="#63b8ff" stroke="#63b8ff" points="995.22,-615.16 1005.78,-615.99 998.04,-608.75 995.22,-615.16"/>
</a>
</g>
</g>
<!-- Node26 -->
<g id="Node000026" class="node">
<title>Node26</title>
<g id="a_Node000026"><a xlink:href="mults_2esp_8h.html" target="_top" xlink:title=" ">
<polygon fill="white" stroke="#666666" points="1454,-574.5 1300,-574.5 1300,-544.5 1454,-544.5 1454,-574.5"/>
<text text-anchor="start" x="1308" y="-562.5" font-family="Helvetica,sans-Serif" font-size="10.00">/home/runner/work/occ</text>
<text text-anchor="middle" x="1377" y="-551.5" font-family="Helvetica,sans-Serif" font-size="10.00">/occ/include/occ/mults/esp.h</text>
</a>
</g>
</g>
<!-- Node1&#45;&gt;Node26 -->
<g id="edge35_Node000001_Node000026" class="edge">
<title>Node1&#45;&gt;Node26</title>
<g id="a_edge35_Node000001_Node000026"><a xlink:title=" ">
<path fill="none" stroke="#63b8ff" d="M1124.03,-618.52C1181.9,-605.25 1261.37,-587.02 1315.7,-574.56"/>
<polygon fill="#63b8ff" stroke="#63b8ff" points="1123.18,-615.12 1114.21,-620.77 1124.74,-621.95 1123.18,-615.12"/>
</a>
</g>
</g>
<!-- Node27 -->
<g id="Node000027" class="node">
<title>Node27</title>
<g id="a_Node000027"><a xlink:href="multipole__interactions_8h.html" target="_top" xlink:title=" ">
<polygon fill="white" stroke="#666666" points="1600,-503 1462,-503 1462,-462 1600,-462 1600,-503"/>
<text text-anchor="start" x="1470" y="-491" font-family="Helvetica,sans-Serif" font-size="10.00">/home/runner/work/occ</text>
<text text-anchor="start" x="1470" y="-480" font-family="Helvetica,sans-Serif" font-size="10.00">/occ/include/occ/mults</text>
<text text-anchor="middle" x="1531" y="-469" font-family="Helvetica,sans-Serif" font-size="10.00">/multipole_interactions.h</text>
</a>
</g>
</g>
<!-- Node1&#45;&gt;Node27 -->
<g id="edge36_Node000001_Node000027" class="edge">
<title>Node1&#45;&gt;Node27</title>
<g id="a_edge36_Node000001_Node000027"><a xlink:title=" ">
<path fill="none" stroke="#63b8ff" d="M1124.11,-632.6C1227.22,-627.38 1407.55,-613.63 1463,-580 1478.42,-570.65 1504.78,-528.54 1519.75,-503.14"/>
<polygon fill="#63b8ff" stroke="#63b8ff" points="1123.89,-629.1 1114.07,-633.09 1124.23,-636.09 1123.89,-629.1"/>
</a>
</g>
</g>
<!-- Node28 -->
<g id="Node000028" class="node">
<title>Node28</title>
<g id="a_Node000028"><a xlink:href="orient__io_8h.html" target="_top" xlink:title=" ">
<polygon fill="white" stroke="#666666" points="1796,-580 1668,-580 1668,-539 1796,-539 1796,-580"/>
<text text-anchor="start" x="1676" y="-568" font-family="Helvetica,sans-Serif" font-size="10.00">/home/runner/work/occ</text>
<text text-anchor="start" x="1676" y="-557" font-family="Helvetica,sans-Serif" font-size="10.00">/occ/include/occ/mults</text>
<text text-anchor="middle" x="1732" y="-546" font-family="Helvetica,sans-Serif" font-size="10.00">/orient_io.h</text>
</a>
</g>
</g>
<!-- Node1&#45;&gt;Node28 -->
<g id="edge38_Node000001_Node000028" class="edge">
<title>Node1&#45;&gt;Node28</title>
<g id="a_edge38_Node000001_Node000028"><a xlink:title=" ">
<path fill="none" stroke="#63b8ff" d="M1124.16,-632.81C1239.37,-627.72 1467.99,-613.96 1659,-580 1661.84,-579.49 1664.73,-578.93 1667.65,-578.33"/>
<polygon fill="#63b8ff" stroke="#63b8ff" points="1123.88,-629.32 1114.04,-633.25 1124.18,-636.31 1123.88,-629.32"/>
</a>
</g>
</g>
<!-- Node29 -->
<g id="Node000029" class="node">
<title>Node29</title>
<g id="a_Node000029"><a xlink:href="rigid__body_8h.html" target="_top" xlink:title=" ">
<polygon fill="white" stroke="#666666" points="1244,-503 1116,-503 1116,-462 1244,-462 1244,-503"/>
<text text-anchor="start" x="1124" y="-491" font-family="Helvetica,sans-Serif" font-size="10.00">/home/runner/work/occ</text>
<text text-anchor="start" x="1124" y="-480" font-family="Helvetica,sans-Serif" font-size="10.00">/occ/include/occ/mults</text>
<text text-anchor="middle" x="1180" y="-469" font-family="Helvetica,sans-Serif" font-size="10.00">/rigid_body.h</text>
</a>
</g>
</g>
<!-- Node1&#45;&gt;Node29 -->
<g id="edge39_Node000001_Node000029" class="edge">
<title>Node1&#45;&gt;Node29</title>
<g id="a_edge39_Node000001_Node000029"><a xlink:title=" ">
<path fill="none" stroke="#63b8ff" d="M1063.19,-606.86C1073.39,-586.58 1088.8,-559.45 1107,-539 1119.17,-525.32 1135.14,-512.73 1149.03,-503.02"/>
<polygon fill="#63b8ff" stroke="#63b8ff" points="1060.01,-605.41 1058.75,-615.93 1066.3,-608.49 1060.01,-605.41"/>
</a>
</g>
</g>
<!-- Node30 -->
<g id="Node000030" class="node">
<title>Node30</title>
<g id="a_Node000030"><a xlink:href="rigid__molecule_8h.html" target="_top" xlink:title=" ">
<polygon fill="white" stroke="#666666" points="1337,-426 1209,-426 1209,-385 1337,-385 1337,-426"/>
<text text-anchor="start" x="1217" y="-414" font-family="Helvetica,sans-Serif" font-size="10.00">/home/runner/work/occ</text>
<text text-anchor="start" x="1217" y="-403" font-family="Helvetica,sans-Serif" font-size="10.00">/occ/include/occ/mults</text>
<text text-anchor="middle" x="1273" y="-392" font-family="Helvetica,sans-Serif" font-size="10.00">/rigid_molecule.h</text>
</a>
</g>
</g>
<!-- Node1&#45;&gt;Node30 -->
<g id="edge41_Node000001_Node000030" class="edge">
<title>Node1&#45;&gt;Node30</title>
<g id="a_edge41_Node000001_Node000030"><a xlink:title=" ">
<path fill="none" stroke="#63b8ff" d="M1124.08,-624.14C1174.87,-614.76 1236.02,-599.79 1253,-580 1290.62,-536.17 1283.33,-461.5 1277.13,-426.15"/>
<polygon fill="#63b8ff" stroke="#63b8ff" points="1123.3,-620.72 1114.07,-625.94 1124.54,-627.61 1123.3,-620.72"/>
</a>
</g>
</g>
<!-- Node32 -->
<g id="Node000032" class="node">
<title>Node32</title>
<g id="a_Node000032"><a xlink:href="mults_2rotation_8h.html" target="_top" xlink:title=" ">
<polygon fill="white" stroke="#666666" points="1942,-580 1814,-580 1814,-539 1942,-539 1942,-580"/>
<text text-anchor="start" x="1822" y="-568" font-family="Helvetica,sans-Serif" font-size="10.00">/home/runner/work/occ</text>
<text text-anchor="start" x="1822" y="-557" font-family="Helvetica,sans-Serif" font-size="10.00">/occ/include/occ/mults</text>
<text text-anchor="middle" x="1878" y="-546" font-family="Helvetica,sans-Serif" font-size="10.00">/rotation.h</text>
</a>
</g>
</g>
<!-- Node1&#45;&gt;Node32 -->
<g id="edge45_Node000001_Node000032" class="edge">
<title>Node1&#45;&gt;Node32</title>
<g id="a_edge45_Node000001_Node000032"><a xlink:title=" ">
<path fill="none" stroke="#63b8ff" d="M1124.42,-634.64C1260.48,-632.06 1558.07,-621.68 1805,-580 1807.85,-579.52 1810.74,-578.98 1813.66,-578.39"/>
<polygon fill="#63b8ff" stroke="#63b8ff" points="1124.06,-631.15 1114.12,-634.83 1124.18,-638.15 1124.06,-631.15"/>
</a>
</g>
</g>
<!-- Node33 -->
<g id="Node000033" class="node">
<title>Node33</title>
<g id="a_Node000033"><a xlink:href="sfunction__term__builder_8h.html" target="_top" xlink:title=" ">
<polygon fill="white" stroke="#666666" points="1650,-580 1510,-580 1510,-539 1650,-539 1650,-580"/>
<text text-anchor="start" x="1518" y="-568" font-family="Helvetica,sans-Serif" font-size="10.00">/home/runner/work/occ</text>
<text text-anchor="start" x="1518" y="-557" font-family="Helvetica,sans-Serif" font-size="10.00">/occ/include/occ/mults</text>
<text text-anchor="middle" x="1580" y="-546" font-family="Helvetica,sans-Serif" font-size="10.00">/sfunction_term_builder.h</text>
</a>
</g>
</g>
<!-- Node1&#45;&gt;Node33 -->
<g id="edge46_Node000001_Node000033" class="edge">
<title>Node1&#45;&gt;Node33</title>
<g id="a_edge46_Node000001_Node000033"><a xlink:title=" ">
<path fill="none" stroke="#63b8ff" d="M1124.18,-628.66C1212.97,-619.92 1365.99,-603.11 1496,-580 1500.57,-579.19 1505.26,-578.29 1509.99,-577.33"/>
<polygon fill="#63b8ff" stroke="#63b8ff" points="1123.81,-625.18 1114.2,-629.63 1124.49,-632.15 1123.81,-625.18"/>
</a>
</g>
</g>
<!-- Node34 -->
<g id="Node000034" class="node">
<title>Node34</title>
<g id="a_Node000034"><a xlink:href="torque_8h.html" target="_top" xlink:title=" ">
<polygon fill="white" stroke="#666666" points="1244,-580 1116,-580 1116,-539 1244,-539 1244,-580"/>
<text text-anchor="start" x="1124" y="-568" font-family="Helvetica,sans-Serif" font-size="10.00">/home/runner/work/occ</text>
<text text-anchor="start" x="1124" y="-557" font-family="Helvetica,sans-Serif" font-size="10.00">/occ/include/occ/mults</text>
<text text-anchor="middle" x="1180" y="-546" font-family="Helvetica,sans-Serif" font-size="10.00">/torque.h</text>
</a>
</g>
</g>
<!-- Node1&#45;&gt;Node34 -->
<g id="edge48_Node000001_Node000034" class="edge">
<title>Node1&#45;&gt;Node34</title>
<g id="a_edge48_Node000001_Node000034"><a xlink:title=" ">
<path fill="none" stroke="#63b8ff" d="M1092.61,-610.92C1109.89,-600.95 1129.59,-589.58 1145.9,-580.17"/>
<polygon fill="#63b8ff" stroke="#63b8ff" points="1090.73,-607.96 1083.82,-615.99 1094.23,-614.02 1090.73,-607.96"/>
</a>
</g>
</g>
<!-- Node3 -->
<g id="Node000003" class="node">
<title>Node3</title>
<g id="a_Node000003"><a xlink:href="multipole__shifter_8h.html" target="_top" xlink:title=" ">
<polygon fill="white" stroke="#666666" points="128,-503 0,-503 0,-462 128,-462 128,-503"/>
<text text-anchor="start" x="8" y="-491" font-family="Helvetica,sans-Serif" font-size="10.00">/home/runner/work/occ</text>
<text text-anchor="start" x="8" y="-480" font-family="Helvetica,sans-Serif" font-size="10.00">/occ/include/occ/dma</text>
<text text-anchor="middle" x="64" y="-469" font-family="Helvetica,sans-Serif" font-size="10.00">/multipole_shifter.h</text>
</a>
</g>
</g>
<!-- Node2&#45;&gt;Node3 -->
<g id="edge2_Node000002_Node000003" class="edge">
<title>Node2&#45;&gt;Node3</title>
<g id="a_edge2_Node000002_Node000003"><a xlink:title=" ">
<path fill="none" stroke="#63b8ff" d="M84.87,-529.55C80.86,-520.69 76.54,-511.15 72.87,-503.07"/>
<polygon fill="#63b8ff" stroke="#63b8ff" points="81.75,-531.13 89.07,-538.79 88.13,-528.24 81.75,-531.13"/>
</a>
</g>
</g>
<!-- Node4&#45;&gt;Node3 -->
<g id="edge5_Node000004_Node000003" class="edge">
<title>Node4&#45;&gt;Node3</title>
<g id="a_edge5_Node000004_Node000003"><a xlink:title=" ">
<path fill="none" stroke="#63b8ff" d="M222.66,-540.99C191.31,-529.63 150.41,-514.81 117.99,-503.06"/>
<polygon fill="#63b8ff" stroke="#63b8ff" points="221.47,-544.28 232.06,-544.39 223.86,-537.7 221.47,-544.28"/>
</a>
</g>
</g>
<!-- Node4&#45;&gt;Node5 -->
<g id="edge4_Node000004_Node000005" class="edge">
<title>Node4&#45;&gt;Node5</title>
<g id="a_edge4_Node000004_Node000005"><a xlink:title=" ">
<path fill="none" stroke="#63b8ff" d="M294.58,-537.69C306.8,-526.91 321.64,-513.82 333.67,-503.2"/>
<polygon fill="#63b8ff" stroke="#63b8ff" points="292.17,-535.15 286.99,-544.39 296.8,-540.4 292.17,-535.15"/>
</a>
</g>
</g>
<!-- Node6 -->
<g id="Node000006" class="node">
<title>Node6</title>
<g id="a_Node000006"><a xlink:href="dma__driver_8h.html" target="_top" xlink:title=" ">
<polygon fill="white" stroke="#666666" points="274,-503 146,-503 146,-462 274,-462 274,-503"/>
<text text-anchor="start" x="154" y="-491" font-family="Helvetica,sans-Serif" font-size="10.00">/home/runner/work/occ</text>
<text text-anchor="start" x="154" y="-480" font-family="Helvetica,sans-Serif" font-size="10.00">/occ/include/occ/driver</text>
<text text-anchor="middle" x="210" y="-469" font-family="Helvetica,sans-Serif" font-size="10.00">/dma_driver.h</text>
</a>
</g>
</g>
<!-- Node4&#45;&gt;Node6 -->
<g id="edge6_Node000004_Node000006" class="edge">
<title>Node4&#45;&gt;Node6</title>
<g id="a_edge6_Node000004_Node000006"><a xlink:title=" ">
<path fill="none" stroke="#63b8ff" d="M253.07,-536.45C244.5,-525.92 234.33,-513.41 226.03,-503.2"/>
<polygon fill="#63b8ff" stroke="#63b8ff" points="250.5,-538.84 259.53,-544.39 255.93,-534.43 250.5,-538.84"/>
</a>
</g>
</g>
<!-- Node7 -->
<g id="Node000007" class="node">
<title>Node7</title>
<g id="a_Node000007"><a xlink:href="occ__dma_8h.html" target="_top" xlink:title=" ">
<polygon fill="white" stroke="#666666" points="274,-426 146,-426 146,-385 274,-385 274,-426"/>
<text text-anchor="start" x="154" y="-414" font-family="Helvetica,sans-Serif" font-size="10.00">/home/runner/work/occ</text>
<text text-anchor="start" x="154" y="-403" font-family="Helvetica,sans-Serif" font-size="10.00">/occ/include/occ/main</text>
<text text-anchor="middle" x="210" y="-392" font-family="Helvetica,sans-Serif" font-size="10.00">/occ_dma.h</text>
</a>
</g>
</g>
<!-- Node6&#45;&gt;Node7 -->
<g id="edge7_Node000006_Node000007" class="edge">
<title>Node6&#45;&gt;Node7</title>
<g id="a_edge7_Node000006_Node000007"><a xlink:title=" ">
<path fill="none" stroke="#63b8ff" d="M210,-451.69C210,-443.08 210,-433.9 210,-426.07"/>
<polygon fill="#63b8ff" stroke="#63b8ff" points="206.5,-451.79 210,-461.79 213.5,-451.79 206.5,-451.79"/>
</a>
</g>
</g>
<!-- Node12 -->
<g id="Node000012" class="node">
<title>Node12</title>
<g id="a_Node000012"><a xlink:href="cartesian__force_8h.html" target="_top" xlink:title=" ">
<polygon fill="white" stroke="#666666" points="1060,-349 932,-349 932,-308 1060,-308 1060,-349"/>
<text text-anchor="start" x="940" y="-337" font-family="Helvetica,sans-Serif" font-size="10.00">/home/runner/work/occ</text>
<text text-anchor="start" x="940" y="-326" font-family="Helvetica,sans-Serif" font-size="10.00">/occ/include/occ/mults</text>
<text text-anchor="middle" x="996" y="-315" font-family="Helvetica,sans-Serif" font-size="10.00">/cartesian_force.h</text>
</a>
</g>
</g>
<!-- Node11&#45;&gt;Node12 -->
<g id="edge13_Node000011_Node000012" class="edge">
<title>Node11&#45;&gt;Node12</title>
<g id="a_edge13_Node000011_Node000012"><a xlink:title=" ">
<path fill="none" stroke="#63b8ff" d="M1019.47,-375.83C1014.94,-366.89 1010.05,-357.24 1005.92,-349.07"/>
<polygon fill="#63b8ff" stroke="#63b8ff" points="1016.37,-377.46 1024.02,-384.79 1022.62,-374.29 1016.37,-377.46"/>
</a>
</g>
</g>
<!-- Node16 -->
<g id="Node000016" class="node">
<title>Node16</title>
<g id="a_Node000016"><a xlink:href="ewald__sum_8h.html" target="_top" xlink:title=" ">
<polygon fill="white" stroke="#666666" points="968,-118 840,-118 840,-77 968,-77 968,-118"/>
<text text-anchor="start" x="848" y="-106" font-family="Helvetica,sans-Serif" font-size="10.00">/home/runner/work/occ</text>
<text text-anchor="start" x="848" y="-95" font-family="Helvetica,sans-Serif" font-size="10.00">/occ/include/occ/mults</text>
<text text-anchor="middle" x="904" y="-84" font-family="Helvetica,sans-Serif" font-size="10.00">/ewald_sum.h</text>
</a>
</g>
</g>
<!-- Node11&#45;&gt;Node16 -->
<g id="edge23_Node000011_Node000016" class="edge">
<title>Node11&#45;&gt;Node16</title>
<g id="a_edge23_Node000011_Node000016"><a xlink:title=" ">
<path fill="none" stroke="#63b8ff" d="M960.66,-381.25C945.98,-373.28 932.25,-362.77 923,-349 874.12,-276.23 890.29,-163.3 899.49,-118.14"/>
<polygon fill="#63b8ff" stroke="#63b8ff" points="959.38,-384.52 969.89,-385.88 962.53,-378.27 959.38,-384.52"/>
</a>
</g>
</g>
<!-- Node11&#45;&gt;Node18 -->
<g id="edge25_Node000011_Node000018" class="edge">
<title>Node11&#45;&gt;Node18</title>
<g id="a_edge25_Node000011_Node000018"><a xlink:title=" ">
<path fill="none" stroke="#63b8ff" d="M1054.46,-376.5C1059.87,-368.01 1065.25,-358.43 1069,-349 1079.1,-323.61 1083.99,-292.26 1086.25,-272.32"/>
<polygon fill="#63b8ff" stroke="#63b8ff" points="1051.49,-374.64 1048.86,-384.91 1057.32,-378.52 1051.49,-374.64"/>
</a>
</g>
</g>
<!-- Node20 -->
<g id="Node000020" class="node">
<title>Node20</title>
<g id="a_Node000020"><a xlink:href="cartesian__hessian_8h.html" target="_top" xlink:title=" ">
<polygon fill="white" stroke="#666666" points="724,-349 596,-349 596,-308 724,-308 724,-349"/>
<text text-anchor="start" x="604" y="-337" font-family="Helvetica,sans-Serif" font-size="10.00">/home/runner/work/occ</text>
<text text-anchor="start" x="604" y="-326" font-family="Helvetica,sans-Serif" font-size="10.00">/occ/include/occ/mults</text>
<text text-anchor="middle" x="660" y="-315" font-family="Helvetica,sans-Serif" font-size="10.00">/cartesian_hessian.h</text>
</a>
</g>
</g>
<!-- Node11&#45;&gt;Node20 -->
<g id="edge22_Node000011_Node000020" class="edge">
<title>Node11&#45;&gt;Node20</title>
<g id="a_edge22_Node000011_Node000020"><a xlink:title=" ">
<path fill="none" stroke="#63b8ff" d="M959.98,-384.9C858.86,-364.11 830.22,-369.6 733,-349 730.05,-348.37 727.04,-347.7 724,-347"/>
<polygon fill="#63b8ff" stroke="#63b8ff" points="959.49,-388.38 970,-387 960.93,-381.52 959.49,-388.38"/>
</a>
</g>
</g>
<!-- Node21 -->
<g id="Node000021" class="node">
<title>Node21</title>
<g id="a_Node000021"><a xlink:href="multipole__coarsening_8h.html" target="_top" xlink:title=" ">
<polygon fill="white" stroke="#666666" points="876,-349 742,-349 742,-308 876,-308 876,-349"/>
<text text-anchor="start" x="750" y="-337" font-family="Helvetica,sans-Serif" font-size="10.00">/home/runner/work/occ</text>
<text text-anchor="start" x="750" y="-326" font-family="Helvetica,sans-Serif" font-size="10.00">/occ/include/occ/mults</text>
<text text-anchor="middle" x="809" y="-315" font-family="Helvetica,sans-Serif" font-size="10.00">/multipole_coarsening.h</text>
</a>
</g>
</g>
<!-- Node11&#45;&gt;Node21 -->
<g id="edge24_Node000011_Node000021" class="edge">
<title>Node11&#45;&gt;Node21</title>
<g id="a_edge24_Node000011_Node000021"><a xlink:title=" ">
<path fill="none" stroke="#63b8ff" d="M965.93,-381.81C934.57,-371.36 897.73,-359.08 867.63,-349.04"/>
<polygon fill="#63b8ff" stroke="#63b8ff" points="964.88,-385.15 975.47,-384.99 967.09,-378.51 964.88,-385.15"/>
</a>
</g>
</g>
<!-- Node13 -->
<g id="Node000013" class="node">
<title>Node13</title>
<g id="a_Node000013"><a xlink:href="crystal__energy_8h.html" target="_top" xlink:title=" ">
<polygon fill="white" stroke="#666666" points="1097,-195 969,-195 969,-154 1097,-154 1097,-195"/>
<text text-anchor="start" x="977" y="-183" font-family="Helvetica,sans-Serif" font-size="10.00">/home/runner/work/occ</text>
<text text-anchor="start" x="977" y="-172" font-family="Helvetica,sans-Serif" font-size="10.00">/occ/include/occ/mults</text>
<text text-anchor="middle" x="1033" y="-161" font-family="Helvetica,sans-Serif" font-size="10.00">/crystal_energy.h</text>
</a>
</g>
</g>
<!-- Node12&#45;&gt;Node13 -->
<g id="edge14_Node000012_Node000013" class="edge">
<title>Node12&#45;&gt;Node13</title>
<g id="a_edge14_Node000012_Node000013"><a xlink:title=" ">
<path fill="none" stroke="#63b8ff" d="M1000.9,-297.8C1004.3,-278.61 1009.24,-253.17 1015,-231 1018.13,-218.94 1022.41,-205.66 1026.01,-195.11"/>
<polygon fill="#63b8ff" stroke="#63b8ff" points="997.44,-297.3 999.18,-307.75 1004.33,-298.5 997.44,-297.3"/>
</a>
</g>
</g>
<!-- Node12&#45;&gt;Node18 -->
<g id="edge19_Node000012_Node000018" class="edge">
<title>Node12&#45;&gt;Node18</title>
<g id="a_edge19_Node000012_Node000018"><a xlink:title=" ">
<path fill="none" stroke="#63b8ff" d="M1028.08,-301.35C1039.88,-291.73 1053.02,-281.01 1063.99,-272.07"/>
<polygon fill="#63b8ff" stroke="#63b8ff" points="1025.71,-298.76 1020.17,-307.79 1030.13,-304.19 1025.71,-298.76"/>
</a>
</g>
</g>
<!-- Node14 -->
<g id="Node000014" class="node">
<title>Node14</title>
<g id="a_Node000014"><a xlink:href="crystal__optimizer_8h.html" target="_top" xlink:title=" ">
<polygon fill="white" stroke="#666666" points="1114,-118 986,-118 986,-77 1114,-77 1114,-118"/>
<text text-anchor="start" x="994" y="-106" font-family="Helvetica,sans-Serif" font-size="10.00">/home/runner/work/occ</text>
<text text-anchor="start" x="994" y="-95" font-family="Helvetica,sans-Serif" font-size="10.00">/occ/include/occ/mults</text>
<text text-anchor="middle" x="1050" y="-84" font-family="Helvetica,sans-Serif" font-size="10.00">/crystal_optimizer.h</text>
</a>
</g>
</g>
<!-- Node13&#45;&gt;Node14 -->
<g id="edge15_Node000013_Node000014" class="edge">
<title>Node13&#45;&gt;Node14</title>
<g id="a_edge15_Node000013_Node000014"><a xlink:title=" ">
<path fill="none" stroke="#63b8ff" d="M1039.69,-143.98C1041.66,-135.28 1043.77,-125.98 1045.56,-118.07"/>
<polygon fill="#63b8ff" stroke="#63b8ff" points="1036.26,-143.27 1037.47,-153.79 1043.09,-144.82 1036.26,-143.27"/>
</a>
</g>
</g>
<!-- Node15 -->
<g id="Node000015" class="node">
<title>Node15</title>
<g id="a_Node000015"><a xlink:href="crystal__strain_8h.html" target="_top" xlink:title=" ">
<polygon fill="white" stroke="#666666" points="1299,-118 1171,-118 1171,-77 1299,-77 1299,-118"/>
<text text-anchor="start" x="1179" y="-106" font-family="Helvetica,sans-Serif" font-size="10.00">/home/runner/work/occ</text>
<text text-anchor="start" x="1179" y="-95" font-family="Helvetica,sans-Serif" font-size="10.00">/occ/include/occ/mults</text>
<text text-anchor="middle" x="1235" y="-84" font-family="Helvetica,sans-Serif" font-size="10.00">/crystal_strain.h</text>
</a>
</g>
</g>
<!-- Node13&#45;&gt;Node15 -->
<g id="edge16_Node000013_Node000015" class="edge">
<title>Node13&#45;&gt;Node15</title>
<g id="a_edge16_Node000013_Node000015"><a xlink:title=" ">
<path fill="none" stroke="#63b8ff" d="M1095.21,-150.4C1123.12,-140.04 1155.69,-127.95 1182.37,-118.04"/>
<polygon fill="#63b8ff" stroke="#63b8ff" points="1093.7,-147.23 1085.55,-153.99 1096.14,-153.79 1093.7,-147.23"/>
</a>
</g>
</g>
<!-- Node13&#45;&gt;Node16 -->
<g id="edge17_Node000013_Node000016" class="edge">
<title>Node13&#45;&gt;Node16</title>
<g id="a_edge17_Node000013_Node000016"><a xlink:title=" ">
<path fill="none" stroke="#63b8ff" d="M990.72,-148.92C973.57,-138.95 954.02,-127.58 937.84,-118.17"/>
<polygon fill="#63b8ff" stroke="#63b8ff" points="989.04,-151.99 999.44,-153.99 992.56,-145.94 989.04,-151.99"/>
</a>
</g>
</g>
<!-- Node17 -->
<g id="Node000017" class="node">
<title>Node17</title>
<g id="a_Node000017"><a xlink:href="strain__ad_8h.html" target="_top" xlink:title=" ">
<polygon fill="white" stroke="#666666" points="968,-41 840,-41 840,0 968,0 968,-41"/>
<text text-anchor="start" x="848" y="-29" font-family="Helvetica,sans-Serif" font-size="10.00">/home/runner/work/occ</text>
<text text-anchor="start" x="848" y="-18" font-family="Helvetica,sans-Serif" font-size="10.00">/occ/include/occ/mults</text>
<text text-anchor="middle" x="904" y="-7" font-family="Helvetica,sans-Serif" font-size="10.00">/strain_ad.h</text>
</a>
</g>
</g>
<!-- Node16&#45;&gt;Node17 -->
<g id="edge18_Node000016_Node000017" class="edge">
<title>Node16&#45;&gt;Node17</title>
<g id="a_edge18_Node000016_Node000017"><a xlink:title=" ">
<path fill="none" stroke="#63b8ff" d="M904,-66.69C904,-58.08 904,-48.9 904,-41.07"/>
<polygon fill="#63b8ff" stroke="#63b8ff" points="900.5,-66.79 904,-76.79 907.5,-66.79 900.5,-66.79"/>
</a>
</g>
</g>
<!-- Node18&#45;&gt;Node13 -->
<g id="edge20_Node000018_Node000013" class="edge">
<title>Node18&#45;&gt;Node13</title>
<g id="a_edge20_Node000018_Node000013"><a xlink:title=" ">
<path fill="none" stroke="#63b8ff" d="M1067.59,-222.67C1060.87,-213.5 1053.53,-203.5 1047.35,-195.07"/>
<polygon fill="#63b8ff" stroke="#63b8ff" points="1064.81,-224.8 1073.55,-230.79 1070.46,-220.66 1064.81,-224.8"/>
</a>
</g>
</g>
<!-- Node19 -->
<g id="Node000019" class="node">
<title>Node19</title>
<g id="a_Node000019"><a xlink:href="rigid__body__dynamics_8h.html" target="_top" xlink:title=" ">
<polygon fill="white" stroke="#666666" points="1247,-195 1115,-195 1115,-154 1247,-154 1247,-195"/>
<text text-anchor="start" x="1123" y="-183" font-family="Helvetica,sans-Serif" font-size="10.00">/home/runner/work/occ</text>
<text text-anchor="start" x="1123" y="-172" font-family="Helvetica,sans-Serif" font-size="10.00">/occ/include/occ/mults</text>
<text text-anchor="middle" x="1181" y="-161" font-family="Helvetica,sans-Serif" font-size="10.00">/rigid_body_dynamics.h</text>
</a>
</g>
</g>
<!-- Node18&#45;&gt;Node19 -->
<g id="edge21_Node000018_Node000019" class="edge">
<title>Node18&#45;&gt;Node19</title>
<g id="a_edge21_Node000018_Node000019"><a xlink:title=" ">
<path fill="none" stroke="#63b8ff" d="M1120.43,-224.35C1132.35,-214.73 1145.64,-204.01 1156.73,-195.07"/>
<polygon fill="#63b8ff" stroke="#63b8ff" points="1118.02,-221.79 1112.43,-230.79 1122.42,-227.24 1118.02,-221.79"/>
</a>
</g>
</g>
<!-- Node22&#45;&gt;Node10 -->
<g id="edge28_Node000022_Node000010" class="edge">
<title>Node22&#45;&gt;Node10</title>
<g id="a_edge28_Node000022_Node000010"><a xlink:title=" ">
<path fill="none" stroke="#63b8ff" d="M805.84,-539.8C804.55,-539.53 803.27,-539.26 802,-539 703.66,-518.81 677.25,-523.65 579,-503 575.97,-502.36 572.88,-501.68 569.77,-500.97"/>
<polygon fill="#63b8ff" stroke="#63b8ff" points="805.31,-543.27 815.83,-542 806.81,-536.43 805.31,-543.27"/>
</a>
</g>
</g>
<!-- Node22&#45;&gt;Node11 -->
<g id="edge32_Node000022_Node000011" class="edge">
<title>Node22&#45;&gt;Node11</title>
<g id="a_edge32_Node000022_Node000011"><a xlink:title=" ">
<path fill="none" stroke="#63b8ff" d="M916.98,-532.88C928.94,-523.96 941.95,-513.53 953,-503 978.65,-478.56 1004.28,-446.41 1019.63,-426.09"/>
<polygon fill="#63b8ff" stroke="#63b8ff" points="914.9,-530.06 908.91,-538.8 919.05,-535.71 914.9,-530.06"/>
</a>
</g>
</g>
<!-- Node22&#45;&gt;Node20 -->
<g id="edge27_Node000022_Node000020" class="edge">
<title>Node22&#45;&gt;Node20</title>
<g id="a_edge27_Node000022_Node000020"><a xlink:title=" ">
<path fill="none" stroke="#63b8ff" d="M831.65,-533.69C817.12,-525.04 801.68,-514.57 789,-503 736.59,-455.19 691.25,-383.41 671.11,-349.11"/>
<polygon fill="#63b8ff" stroke="#63b8ff" points="830.14,-536.86 840.55,-538.83 833.64,-530.8 830.14,-536.86"/>
</a>
</g>
</g>
<!-- Node22&#45;&gt;Node21 -->
<g id="edge34_Node000022_Node000021" class="edge">
<title>Node22&#45;&gt;Node21</title>
<g id="a_edge34_Node000022_Node000021"><a xlink:title=" ">
<path fill="none" stroke="#63b8ff" d="M834.98,-533.04C824.17,-524.83 813.8,-514.75 807,-503 778.54,-453.86 793.08,-383.02 802.72,-349.08"/>
<polygon fill="#63b8ff" stroke="#63b8ff" points="833.1,-536 843.27,-538.96 837.17,-530.31 833.1,-536"/>
</a>
</g>
</g>
<!-- Node23 -->
<g id="Node000023" class="node">
<title>Node23</title>
<g id="a_Node000023"><a xlink:href="cartesian__kernels_8h.html" target="_top" xlink:title=" ">
<polygon fill="white" stroke="#666666" points="944,-503 816,-503 816,-462 944,-462 944,-503"/>
<text text-anchor="start" x="824" y="-491" font-family="Helvetica,sans-Serif" font-size="10.00">/home/runner/work/occ</text>
<text text-anchor="start" x="824" y="-480" font-family="Helvetica,sans-Serif" font-size="10.00">/occ/include/occ/mults</text>
<text text-anchor="middle" x="880" y="-469" font-family="Helvetica,sans-Serif" font-size="10.00">/cartesian_kernels.h</text>
</a>
</g>
</g>
<!-- Node22&#45;&gt;Node23 -->
<g id="edge29_Node000022_Node000023" class="edge">
<title>Node22&#45;&gt;Node23</title>
<g id="a_edge29_Node000022_Node000023"><a xlink:title=" ">
<path fill="none" stroke="#63b8ff" d="M880,-528.69C880,-520.08 880,-510.9 880,-503.07"/>
<polygon fill="#63b8ff" stroke="#63b8ff" points="876.5,-528.79 880,-538.79 883.5,-528.79 876.5,-528.79"/>
</a>
</g>
</g>
<!-- Node25 -->
<g id="Node000025" class="node">
<title>Node25</title>
<g id="a_Node000025"><a xlink:href="cartesian__rotation_8h.html" target="_top" xlink:title=" ">
<polygon fill="white" stroke="#666666" points="716,-503 588,-503 588,-462 716,-462 716,-503"/>
<text text-anchor="start" x="596" y="-491" font-family="Helvetica,sans-Serif" font-size="10.00">/home/runner/work/occ</text>
<text text-anchor="start" x="596" y="-480" font-family="Helvetica,sans-Serif" font-size="10.00">/occ/include/occ/mults</text>
<text text-anchor="middle" x="652" y="-469" font-family="Helvetica,sans-Serif" font-size="10.00">/cartesian_rotation.h</text>
</a>
</g>
</g>
<!-- Node22&#45;&gt;Node25 -->
<g id="edge33_Node000022_Node000025" class="edge">
<title>Node22&#45;&gt;Node25</title>
<g id="a_edge33_Node000022_Node000025"><a xlink:title=" ">
<path fill="none" stroke="#63b8ff" d="M811.02,-535.81C779.25,-525.36 741.91,-513.08 711.41,-503.04"/>
<polygon fill="#63b8ff" stroke="#63b8ff" points="810.1,-539.19 820.69,-538.99 812.29,-532.54 810.1,-539.19"/>
</a>
</g>
</g>
<!-- Node23&#45;&gt;Node11 -->
<g id="edge30_Node000023_Node000011" class="edge">
<title>Node23&#45;&gt;Node11</title>
<g id="a_edge30_Node000023_Node000011"><a xlink:title=" ">
<path fill="none" stroke="#63b8ff" d="M929.1,-457.59C950,-447.41 974.07,-435.69 993.87,-426.04"/>
<polygon fill="#63b8ff" stroke="#63b8ff" points="927.52,-454.47 920.06,-461.99 930.58,-460.76 927.52,-454.47"/>
</a>
</g>
</g>
<!-- Node24 -->
<g id="Node000024" class="node">
<title>Node24</title>
<g id="a_Node000024"><a xlink:href="interaction__tensor__simd_8h.html" target="_top" xlink:title=" ">
<polygon fill="white" stroke="#666666" points="952,-426 806,-426 806,-385 952,-385 952,-426"/>
<text text-anchor="start" x="814" y="-414" font-family="Helvetica,sans-Serif" font-size="10.00">/home/runner/work/occ</text>
<text text-anchor="start" x="814" y="-403" font-family="Helvetica,sans-Serif" font-size="10.00">/occ/include/occ/mults</text>
<text text-anchor="middle" x="879" y="-392" font-family="Helvetica,sans-Serif" font-size="10.00">/interaction_tensor_simd.h</text>
</a>
</g>
</g>
<!-- Node23&#45;&gt;Node24 -->
<g id="edge31_Node000023_Node000024" class="edge">
<title>Node23&#45;&gt;Node24</title>
<g id="a_edge31_Node000023_Node000024"><a xlink:title=" ">
<path fill="none" stroke="#63b8ff" d="M879.6,-451.69C879.49,-443.08 879.37,-433.9 879.26,-426.07"/>
<polygon fill="#63b8ff" stroke="#63b8ff" points="876.1,-451.84 879.74,-461.79 883.1,-451.75 876.1,-451.84"/>
</a>
</g>
</g>
<!-- Node29&#45;&gt;Node19 -->
<g id="edge40_Node000029_Node000019" class="edge">
<title>Node29&#45;&gt;Node19</title>
<g id="a_edge40_Node000029_Node000019"><a xlink:title=" ">
<path fill="none" stroke="#63b8ff" d="M1180.1,-451.59C1180.3,-389.41 1180.76,-247.62 1180.94,-195.34"/>
<polygon fill="#63b8ff" stroke="#63b8ff" points="1176.6,-451.88 1180.06,-461.89 1183.6,-451.9 1176.6,-451.88"/>
</a>
</g>
</g>
<!-- Node31 -->
<g id="Node000031" class="node">
<title>Node31</title>
<g id="a_Node000031"><a xlink:href="crystal__energy__setup_8h.html" target="_top" xlink:title=" ">
<polygon fill="white" stroke="#666666" points="1341.5,-272 1208.5,-272 1208.5,-231 1341.5,-231 1341.5,-272"/>
<text text-anchor="start" x="1216.5" y="-260" font-family="Helvetica,sans-Serif" font-size="10.00">/home/runner/work/occ</text>
<text text-anchor="start" x="1216.5" y="-249" font-family="Helvetica,sans-Serif" font-size="10.00">/occ/include/occ/mults</text>
<text text-anchor="middle" x="1275" y="-238" font-family="Helvetica,sans-Serif" font-size="10.00">/crystal_energy_setup.h</text>
</a>
</g>
</g>
<!-- Node30&#45;&gt;Node31 -->
<g id="edge42_Node000030_Node000031" class="edge">
<title>Node30&#45;&gt;Node31</title>
<g id="a_edge42_Node000030_Node000031"><a xlink:title=" ">
<path fill="none" stroke="#63b8ff" d="M1273.39,-374.58C1273.79,-344.36 1274.39,-298.53 1274.74,-272.47"/>
<polygon fill="#63b8ff" stroke="#63b8ff" points="1269.89,-374.89 1273.26,-384.94 1276.89,-374.99 1269.89,-374.89"/>
</a>
</g>
</g>
<!-- Node31&#45;&gt;Node13 -->
<g id="edge43_Node000031_Node000013" class="edge">
<title>Node31&#45;&gt;Node13</title>
<g id="a_edge43_Node000031_Node000013"><a xlink:title=" ">
<path fill="none" stroke="#63b8ff" d="M1202.22,-227.94C1168.4,-217.46 1128.57,-205.12 1096.06,-195.04"/>
<polygon fill="#63b8ff" stroke="#63b8ff" points="1201.46,-231.37 1212.05,-230.99 1203.53,-224.69 1201.46,-231.37"/>
</a>
</g>
</g>
<!-- Node31&#45;&gt;Node15 -->
<g id="edge44_Node000031_Node000015" class="edge">
<title>Node31&#45;&gt;Node15</title>
<g id="a_edge44_Node000031_Node000015"><a xlink:title=" ">
<path fill="none" stroke="#63b8ff" d="M1270.46,-220.7C1267.2,-201.47 1262.29,-176.03 1256,-154 1252.52,-141.82 1247.54,-128.53 1243.3,-118.01"/>
<polygon fill="#63b8ff" stroke="#63b8ff" points="1267.02,-221.38 1272.09,-230.68 1273.93,-220.25 1267.02,-221.38"/>
</a>
</g>
</g>
<!-- Node33&#45;&gt;Node27 -->
<g id="edge47_Node000033_Node000027" class="edge">
<title>Node33&#45;&gt;Node27</title>
<g id="a_edge47_Node000033_Node000027"><a xlink:title=" ">
<path fill="none" stroke="#63b8ff" d="M1561.64,-530.39C1555.69,-521.3 1549.24,-511.41 1543.79,-503.07"/>
<polygon fill="#63b8ff" stroke="#63b8ff" points="1558.73,-532.34 1567.13,-538.79 1564.59,-528.51 1558.73,-532.34"/>
</a>
</g>
</g>
<!-- Node34&#45;&gt;Node29 -->
<g id="edge49_Node000034_Node000029" class="edge">
<title>Node34&#45;&gt;Node29</title>
<g id="a_edge49_Node000034_Node000029"><a xlink:title=" ">
<path fill="none" stroke="#63b8ff" d="M1180,-528.69C1180,-520.08 1180,-510.9 1180,-503.07"/>
<polygon fill="#63b8ff" stroke="#63b8ff" points="1176.5,-528.79 1180,-538.79 1183.5,-528.79 1176.5,-528.79"/>
</a>
</g>
</g>
</g>
</svg>
