<?xml version="1.0" encoding="UTF-8" standalone="no"?>
<!DOCTYPE svg PUBLIC "-//W3C//DTD SVG 1.1//EN"
 "http://www.w3.org/Graphics/SVG/1.1/DTD/svg11.dtd">
<!-- Generated by graphviz version 2.43.0 (0)
 -->
<!-- Title: /home/runner/work/occ/occ/include/occ/core/multipole.h Pages: 1 -->
<svg width="2228pt" height="588pt"
 viewBox="0.00 0.00 2228.00 588.00" xmlns="http://www.w3.org/2000/svg" xmlns:xlink="http://www.w3.org/1999/xlink">
<g id="graph0" class="graph" transform="scale(1 1) rotate(0) translate(4 584)">
<title>/home/runner/work/occ/occ/include/occ/core/multipole.h</title>
<!-- Node1 -->
<g id="Node000001" class="node">
<title>Node1</title>
<g id="a_Node000001"><a xlink:title=" ">
<polygon fill="#999999" stroke="#666666" points="546,-580 418,-580 418,-539 546,-539 546,-580"/>
<text text-anchor="start" x="426" y="-568" font-family="Helvetica,sans-Serif" font-size="10.00">/home/runner/work/occ</text>
<text text-anchor="start" x="426" y="-557" font-family="Helvetica,sans-Serif" font-size="10.00">/occ/include/occ/core</text>
<text text-anchor="middle" x="482" y="-546" font-family="Helvetica,sans-Serif" font-size="10.00">/multipole.h</text>
</a>
</g>
</g>
<!-- Node2 -->
<g id="Node000002" class="node">
<title>Node2</title>
<g id="a_Node000002"><a xlink:href="dft_2hirshfeld_8h.html" target="_top" xlink:title=" ">
<polygon fill="white" stroke="#666666" points="454,-503 326,-503 326,-462 454,-462 454,-503"/>
<text text-anchor="start" x="334" y="-491" font-family="Helvetica,sans-Serif" font-size="10.00">/home/runner/work/occ</text>
<text text-anchor="start" x="334" y="-480" font-family="Helvetica,sans-Serif" font-size="10.00">/occ/include/occ/dft</text>
<text text-anchor="middle" x="390" y="-469" font-family="Helvetica,sans-Serif" font-size="10.00">/hirshfeld.h</text>
</a>
</g>
</g>
<!-- Node1&#45;&gt;Node2 -->
<g id="edge1_Node000001_Node000002" class="edge">
<title>Node1&#45;&gt;Node2</title>
<g id="a_edge1_Node000001_Node000002"><a xlink:title=" ">
<path fill="none" stroke="#63b8ff" d="M449.92,-532.35C438.12,-522.73 424.98,-512.01 414.01,-503.07"/>
<polygon fill="#63b8ff" stroke="#63b8ff" points="447.87,-535.19 457.83,-538.79 452.29,-529.76 447.87,-535.19"/>
</a>
</g>
</g>
<!-- Node3 -->
<g id="Node000003" class="node">
<title>Node3</title>
<g id="a_Node000003"><a xlink:href="cint__interface_8h.html" target="_top" xlink:title=" ">
<polygon fill="white" stroke="#666666" points="676,-503 542,-503 542,-462 676,-462 676,-503"/>
<text text-anchor="start" x="550" y="-491" font-family="Helvetica,sans-Serif" font-size="10.00">/home/runner/work/occ</text>
<text text-anchor="start" x="550" y="-480" font-family="Helvetica,sans-Serif" font-size="10.00">/occ/include/occ/qm/cint</text>
<text text-anchor="middle" x="609" y="-469" font-family="Helvetica,sans-Serif" font-size="10.00">_interface.h</text>
</a>
</g>
</g>
<!-- Node1&#45;&gt;Node3 -->
<g id="edge2_Node000001_Node000003" class="edge">
<title>Node1&#45;&gt;Node3</title>
<g id="a_edge2_Node000001_Node000003"><a xlink:title=" ">
<path fill="none" stroke="#63b8ff" d="M524.09,-533.64C540.86,-523.74 559.9,-512.5 575.69,-503.17"/>
<polygon fill="#63b8ff" stroke="#63b8ff" points="521.87,-530.89 515.04,-538.99 525.43,-536.92 521.87,-530.89"/>
</a>
</g>
</g>
<!-- Node22 -->
<g id="Node000022" class="node">
<title>Node22</title>
<g id="a_Node000022"><a xlink:href="hf_8h.html" target="_top" xlink:title=" ">
<polygon fill="white" stroke="#666666" points="549,-266.5 415,-266.5 415,-236.5 549,-236.5 549,-266.5"/>
<text text-anchor="start" x="423" y="-254.5" font-family="Helvetica,sans-Serif" font-size="10.00">/home/runner/work/occ</text>
<text text-anchor="middle" x="482" y="-243.5" font-family="Helvetica,sans-Serif" font-size="10.00">/occ/include/occ/qm/hf.h</text>
</a>
</g>
</g>
<!-- Node1&#45;&gt;Node22 -->
<g id="edge51_Node000001_Node000022" class="edge">
<title>Node1&#45;&gt;Node22</title>
<g id="a_edge51_Node000001_Node000022"><a xlink:title=" ">
<path fill="none" stroke="#63b8ff" d="M482,-528.59C482,-464.04 482,-313.72 482,-266.77"/>
<polygon fill="#63b8ff" stroke="#63b8ff" points="478.5,-528.89 482,-538.89 485.5,-528.89 478.5,-528.89"/>
</a>
</g>
</g>
<!-- Node4 -->
<g id="Node000004" class="node">
<title>Node4</title>
<g id="a_Node000004"><a xlink:href="integral__engine_8h.html" target="_top" xlink:title=" ">
<polygon fill="white" stroke="#666666" points="806.5,-426 653.5,-426 653.5,-385 806.5,-385 806.5,-426"/>
<text text-anchor="start" x="661.5" y="-414" font-family="Helvetica,sans-Serif" font-size="10.00">/home/runner/work/occ</text>
<text text-anchor="start" x="661.5" y="-403" font-family="Helvetica,sans-Serif" font-size="10.00">/occ/include/occ/qm/integral</text>
<text text-anchor="middle" x="730" y="-392" font-family="Helvetica,sans-Serif" font-size="10.00">_engine.h</text>
</a>
</g>
</g>
<!-- Node3&#45;&gt;Node4 -->
<g id="edge3_Node000003_Node000004" class="edge">
<title>Node3&#45;&gt;Node4</title>
<g id="a_edge3_Node000003_Node000004"><a xlink:title=" ">
<path fill="none" stroke="#63b8ff" d="M649.1,-456.64C665.08,-446.74 683.22,-435.5 698.26,-426.17"/>
<polygon fill="#63b8ff" stroke="#63b8ff" points="647.13,-453.75 640.48,-461.99 650.82,-459.7 647.13,-453.75"/>
</a>
</g>
</g>
<!-- Node5 -->
<g id="Node000005" class="node">
<title>Node5</title>
<g id="a_Node000005"><a xlink:href="dma_8h.html" target="_top" xlink:title=" ">
<polygon fill="white" stroke="#666666" points="1510,-343.5 1358,-343.5 1358,-313.5 1510,-313.5 1510,-343.5"/>
<text text-anchor="start" x="1366" y="-331.5" font-family="Helvetica,sans-Serif" font-size="10.00">/home/runner/work/occ</text>
<text text-anchor="middle" x="1434" y="-320.5" font-family="Helvetica,sans-Serif" font-size="10.00">/occ/include/occ/dma/dma.h</text>
</a>
</g>
</g>
<!-- Node4&#45;&gt;Node5 -->
<g id="edge4_Node000004_Node000005" class="edge">
<title>Node4&#45;&gt;Node5</title>
<g id="a_edge4_Node000004_Node000005"><a xlink:title=" ">
<path fill="none" stroke="#63b8ff" d="M816.89,-400.45C937.07,-393.99 1160.55,-378.92 1349,-349 1358.27,-347.53 1368.04,-345.63 1377.51,-343.59"/>
<polygon fill="#63b8ff" stroke="#63b8ff" points="816.45,-396.96 806.65,-400.99 816.82,-403.95 816.45,-396.96"/>
</a>
</g>
</g>
<!-- Node10 -->
<g id="Node000010" class="node">
<title>Node10</title>
<g id="a_Node000010"><a xlink:href="thc_8h.html" target="_top" xlink:title=" ">
<polygon fill="white" stroke="#666666" points="1875.5,-343.5 1722.5,-343.5 1722.5,-313.5 1875.5,-313.5 1875.5,-343.5"/>
<text text-anchor="start" x="1730.5" y="-331.5" font-family="Helvetica,sans-Serif" font-size="10.00">/home/runner/work/occ</text>
<text text-anchor="middle" x="1799" y="-320.5" font-family="Helvetica,sans-Serif" font-size="10.00">/occ/include/occ/qm/cc/thc.h</text>
</a>
</g>
</g>
<!-- Node4&#45;&gt;Node10 -->
<g id="edge9_Node000004_Node000010" class="edge">
<title>Node4&#45;&gt;Node10</title>
<g id="a_edge9_Node000004_Node000010"><a xlink:title=" ">
<path fill="none" stroke="#63b8ff" d="M816.96,-398.4C1021.23,-384.07 1528.98,-348.44 1722.46,-334.87"/>
<polygon fill="#63b8ff" stroke="#63b8ff" points="816.61,-394.91 806.88,-399.11 817.1,-401.9 816.61,-394.91"/>
</a>
</g>
</g>
<!-- Node19 -->
<g id="Node000019" class="node">
<title>Node19</title>
<g id="a_Node000019"><a xlink:href="mo__integral__engine_8h.html" target="_top" xlink:title=" ">
<polygon fill="white" stroke="#666666" points="282,-349 114,-349 114,-308 282,-308 282,-349"/>
<text text-anchor="start" x="122" y="-337" font-family="Helvetica,sans-Serif" font-size="10.00">/home/runner/work/occ</text>
<text text-anchor="start" x="122" y="-326" font-family="Helvetica,sans-Serif" font-size="10.00">/occ/include/occ/qm/correlation</text>
<text text-anchor="middle" x="198" y="-315" font-family="Helvetica,sans-Serif" font-size="10.00">/mo_integral_engine.h</text>
</a>
</g>
</g>
<!-- Node4&#45;&gt;Node19 -->
<g id="edge19_Node000004_Node000019" class="edge">
<title>Node4&#45;&gt;Node19</title>
<g id="a_edge19_Node000004_Node000019"><a xlink:title=" ">
<path fill="none" stroke="#63b8ff" d="M643.17,-395.62C554.39,-386.05 412.65,-369.41 291,-349 288.07,-348.51 285.1,-347.99 282.09,-347.45"/>
<polygon fill="#63b8ff" stroke="#63b8ff" points="642.88,-399.11 653.2,-396.69 643.63,-392.15 642.88,-399.11"/>
</a>
</g>
</g>
<!-- Node20 -->
<g id="Node000020" class="node">
<title>Node20</title>
<g id="a_Node000020"><a xlink:href="post__hf__method_8h.html" target="_top" xlink:title=" ">
<polygon fill="white" stroke="#666666" points="172,-272 4,-272 4,-231 172,-231 172,-272"/>
<text text-anchor="start" x="12" y="-260" font-family="Helvetica,sans-Serif" font-size="10.00">/home/runner/work/occ</text>
<text text-anchor="start" x="12" y="-249" font-family="Helvetica,sans-Serif" font-size="10.00">/occ/include/occ/qm/correlation</text>
<text text-anchor="middle" x="88" y="-238" font-family="Helvetica,sans-Serif" font-size="10.00">/post_hf_method.h</text>
</a>
</g>
</g>
<!-- Node4&#45;&gt;Node20 -->
<g id="edge22_Node000004_Node000020" class="edge">
<title>Node4&#45;&gt;Node20</title>
<g id="a_edge22_Node000004_Node000020"><a xlink:title=" ">
<path fill="none" stroke="#63b8ff" d="M642.76,-402.55C480.19,-398.07 143.78,-384.58 105,-349 83.94,-329.68 83.2,-294.16 85.18,-272.02"/>
<polygon fill="#63b8ff" stroke="#63b8ff" points="643.12,-406.06 653.21,-402.83 643.31,-399.06 643.12,-406.06"/>
</a>
</g>
</g>
<!-- Node4&#45;&gt;Node22 -->
<g id="edge23_Node000004_Node000022" class="edge">
<title>Node4&#45;&gt;Node22</title>
<g id="a_edge23_Node000004_Node000022"><a xlink:title=" ">
<path fill="none" stroke="#63b8ff" d="M643.47,-393.59C608.27,-385.73 568.92,-372.22 539,-349 511.02,-327.29 494.02,-287.67 486.52,-266.59"/>
<polygon fill="#63b8ff" stroke="#63b8ff" points="642.77,-397.02 653.27,-395.66 644.21,-390.17 642.77,-397.02"/>
</a>
</g>
</g>
<!-- Node33 -->
<g id="Node000033" class="node">
<title>Node33</title>
<g id="a_Node000033"><a xlink:href="integral__engine__df_8h.html" target="_top" xlink:title=" ">
<polygon fill="white" stroke="#666666" points="453.5,-349 300.5,-349 300.5,-308 453.5,-308 453.5,-349"/>
<text text-anchor="start" x="308.5" y="-337" font-family="Helvetica,sans-Serif" font-size="10.00">/home/runner/work/occ</text>
<text text-anchor="start" x="308.5" y="-326" font-family="Helvetica,sans-Serif" font-size="10.00">/occ/include/occ/qm/integral</text>
<text text-anchor="middle" x="377" y="-315" font-family="Helvetica,sans-Serif" font-size="10.00">_engine_df.h</text>
</a>
</g>
</g>
<!-- Node4&#45;&gt;Node33 -->
<g id="edge36_Node000004_Node000033" class="edge">
<title>Node4&#45;&gt;Node33</title>
<g id="a_edge36_Node000004_Node000033"><a xlink:title=" ">
<path fill="none" stroke="#63b8ff" d="M643.51,-386.12C585.46,-373.79 509.66,-357.69 453.75,-345.81"/>
<polygon fill="#63b8ff" stroke="#63b8ff" points="642.9,-389.57 653.4,-388.23 644.35,-382.72 642.9,-389.57"/>
</a>
</g>
</g>
<!-- Node36 -->
<g id="Node000036" class="node">
<title>Node36</title>
<g id="a_Node000036"><a xlink:href="qm_2seminumerical__exchange_8h.html" target="_top" xlink:title=" ">
<polygon fill="white" stroke="#666666" points="736,-349 548,-349 548,-308 736,-308 736,-349"/>
<text text-anchor="start" x="556" y="-337" font-family="Helvetica,sans-Serif" font-size="10.00">/home/runner/work/occ</text>
<text text-anchor="start" x="556" y="-326" font-family="Helvetica,sans-Serif" font-size="10.00">/occ/include/occ/qm/seminumerical</text>
<text text-anchor="middle" x="642" y="-315" font-family="Helvetica,sans-Serif" font-size="10.00">_exchange.h</text>
</a>
</g>
</g>
<!-- Node4&#45;&gt;Node36 -->
<g id="edge41_Node000004_Node000036" class="edge">
<title>Node4&#45;&gt;Node36</title>
<g id="a_edge41_Node000004_Node000036"><a xlink:title=" ">
<path fill="none" stroke="#63b8ff" d="M698.99,-378.07C687.79,-368.52 675.35,-357.93 664.97,-349.07"/>
<polygon fill="#63b8ff" stroke="#63b8ff" points="697,-380.97 706.88,-384.79 701.54,-375.64 697,-380.97"/>
</a>
</g>
</g>
<!-- Node38 -->
<g id="Node000038" class="node">
<title>Node38</title>
<g id="a_Node000038"><a xlink:href="gfn2__engine_8h.html" target="_top" xlink:title=" ">
<polygon fill="white" stroke="#666666" points="882,-349 754,-349 754,-308 882,-308 882,-349"/>
<text text-anchor="start" x="762" y="-337" font-family="Helvetica,sans-Serif" font-size="10.00">/home/runner/work/occ</text>
<text text-anchor="start" x="762" y="-326" font-family="Helvetica,sans-Serif" font-size="10.00">/occ/include/occ/xtb</text>
<text text-anchor="middle" x="818" y="-315" font-family="Helvetica,sans-Serif" font-size="10.00">/gfn2_engine.h</text>
</a>
</g>
</g>
<!-- Node4&#45;&gt;Node38 -->
<g id="edge45_Node000004_Node000038" class="edge">
<title>Node4&#45;&gt;Node38</title>
<g id="a_edge45_Node000004_Node000038"><a xlink:title=" ">
<path fill="none" stroke="#63b8ff" d="M761.01,-378.07C772.21,-368.52 784.65,-357.93 795.03,-349.07"/>
<polygon fill="#63b8ff" stroke="#63b8ff" points="758.46,-375.64 753.12,-384.79 763,-380.97 758.46,-375.64"/>
</a>
</g>
</g>
<!-- Node40 -->
<g id="Node000040" class="node">
<title>Node40</title>
<g id="a_Node000040"><a xlink:href="gfn2__periodic__calculator_8h.html" target="_top" xlink:title=" ">
<polygon fill="white" stroke="#666666" points="1339.5,-349 1192.5,-349 1192.5,-308 1339.5,-308 1339.5,-349"/>
<text text-anchor="start" x="1200.5" y="-337" font-family="Helvetica,sans-Serif" font-size="10.00">/home/runner/work/occ</text>
<text text-anchor="start" x="1200.5" y="-326" font-family="Helvetica,sans-Serif" font-size="10.00">/occ/include/occ/xtb</text>
<text text-anchor="middle" x="1266" y="-315" font-family="Helvetica,sans-Serif" font-size="10.00">/gfn2_periodic_calculator.h</text>
</a>
</g>
</g>
<!-- Node4&#45;&gt;Node40 -->
<g id="edge47_Node000004_Node000040" class="edge">
<title>Node4&#45;&gt;Node40</title>
<g id="a_edge47_Node000004_Node000040"><a xlink:title=" ">
<path fill="none" stroke="#63b8ff" d="M816.57,-396.72C908.04,-387.84 1056.31,-371.57 1183,-349 1186.06,-348.45 1189.18,-347.87 1192.32,-347.25"/>
<polygon fill="#63b8ff" stroke="#63b8ff" points="816.14,-393.25 806.52,-397.69 816.81,-400.21 816.14,-393.25"/>
</a>
</g>
</g>
<!-- Node41 -->
<g id="Node000041" class="node">
<title>Node41</title>
<g id="a_Node000041"><a xlink:href="h0__gradient_8h.html" target="_top" xlink:title=" ">
<polygon fill="white" stroke="#666666" points="1028,-349 900,-349 900,-308 1028,-308 1028,-349"/>
<text text-anchor="start" x="908" y="-337" font-family="Helvetica,sans-Serif" font-size="10.00">/home/runner/work/occ</text>
<text text-anchor="start" x="908" y="-326" font-family="Helvetica,sans-Serif" font-size="10.00">/occ/include/occ/xtb</text>
<text text-anchor="middle" x="964" y="-315" font-family="Helvetica,sans-Serif" font-size="10.00">/h0_gradient.h</text>
</a>
</g>
</g>
<!-- Node4&#45;&gt;Node41 -->
<g id="edge49_Node000004_Node000041" class="edge">
<title>Node4&#45;&gt;Node41</title>
<g id="a_edge49_Node000004_Node000041"><a xlink:title=" ">
<path fill="none" stroke="#63b8ff" d="M800.79,-381.81C833.4,-371.36 871.72,-359.08 903.03,-349.04"/>
<polygon fill="#63b8ff" stroke="#63b8ff" points="799.32,-378.61 790.87,-384.99 801.46,-385.27 799.32,-378.61"/>
</a>
</g>
</g>
<!-- Node42 -->
<g id="Node000042" class="node">
<title>Node42</title>
<g id="a_Node000042"><a xlink:href="multipole__ints_8h.html" target="_top" xlink:title=" ">
<polygon fill="white" stroke="#666666" points="1174,-349 1046,-349 1046,-308 1174,-308 1174,-349"/>
<text text-anchor="start" x="1054" y="-337" font-family="Helvetica,sans-Serif" font-size="10.00">/home/runner/work/occ</text>
<text text-anchor="start" x="1054" y="-326" font-family="Helvetica,sans-Serif" font-size="10.00">/occ/include/occ/xtb</text>
<text text-anchor="middle" x="1110" y="-315" font-family="Helvetica,sans-Serif" font-size="10.00">/multipole_ints.h</text>
</a>
</g>
</g>
<!-- Node4&#45;&gt;Node42 -->
<g id="edge50_Node000004_Node000042" class="edge">
<title>Node4&#45;&gt;Node42</title>
<g id="a_edge50_Node000004_Node000042"><a xlink:title=" ">
<path fill="none" stroke="#63b8ff" d="M816.76,-390.77C878.46,-380.53 963.15,-365.51 1037,-349 1039.94,-348.34 1042.95,-347.64 1045.98,-346.92"/>
<polygon fill="#63b8ff" stroke="#63b8ff" points="815.98,-387.35 806.68,-392.43 817.12,-394.26 815.98,-387.35"/>
</a>
</g>
</g>
<!-- Node6 -->
<g id="Node000006" class="node">
<title>Node6</title>
<g id="a_Node000006"><a xlink:href="multipole__calculator_8h.html" target="_top" xlink:title=" ">
<polygon fill="white" stroke="#666666" points="1279,-272 1151,-272 1151,-231 1279,-231 1279,-272"/>
<text text-anchor="start" x="1159" y="-260" font-family="Helvetica,sans-Serif" font-size="10.00">/home/runner/work/occ</text>
<text text-anchor="start" x="1159" y="-249" font-family="Helvetica,sans-Serif" font-size="10.00">/occ/include/occ/dma</text>
<text text-anchor="middle" x="1215" y="-238" font-family="Helvetica,sans-Serif" font-size="10.00">/multipole_calculator.h</text>
</a>
</g>
</g>
<!-- Node5&#45;&gt;Node6 -->
<g id="edge5_Node000005_Node000006" class="edge">
<title>Node5&#45;&gt;Node6</title>
<g id="a_edge5_Node000005_Node000006"><a xlink:title=" ">
<path fill="none" stroke="#63b8ff" d="M1383.55,-310.22C1350.33,-298.85 1306.77,-283.93 1272.25,-272.11"/>
<polygon fill="#63b8ff" stroke="#63b8ff" points="1382.47,-313.55 1393.06,-313.48 1384.74,-306.93 1382.47,-313.55"/>
</a>
</g>
</g>
<!-- Node7 -->
<g id="Node000007" class="node">
<title>Node7</title>
<g id="a_Node000007"><a xlink:href="multipole__shifter_8h.html" target="_top" xlink:title=" ">
<polygon fill="white" stroke="#666666" points="1425,-272 1297,-272 1297,-231 1425,-231 1425,-272"/>
<text text-anchor="start" x="1305" y="-260" font-family="Helvetica,sans-Serif" font-size="10.00">/home/runner/work/occ</text>
<text text-anchor="start" x="1305" y="-249" font-family="Helvetica,sans-Serif" font-size="10.00">/occ/include/occ/dma</text>
<text text-anchor="middle" x="1361" y="-238" font-family="Helvetica,sans-Serif" font-size="10.00">/multipole_shifter.h</text>
</a>
</g>
</g>
<!-- Node5&#45;&gt;Node7 -->
<g id="edge6_Node000005_Node000007" class="edge">
<title>Node5&#45;&gt;Node7</title>
<g id="a_edge6_Node000005_Node000007"><a xlink:title=" ">
<path fill="none" stroke="#63b8ff" d="M1413.14,-306.07C1402.77,-295.41 1390.31,-282.62 1380.18,-272.2"/>
<polygon fill="#63b8ff" stroke="#63b8ff" points="1410.79,-308.67 1420.27,-313.39 1415.8,-303.79 1410.79,-308.67"/>
</a>
</g>
</g>
<!-- Node8 -->
<g id="Node000008" class="node">
<title>Node8</title>
<g id="a_Node000008"><a xlink:href="dma__driver_8h.html" target="_top" xlink:title=" ">
<polygon fill="white" stroke="#666666" points="1571,-272 1443,-272 1443,-231 1571,-231 1571,-272"/>
<text text-anchor="start" x="1451" y="-260" font-family="Helvetica,sans-Serif" font-size="10.00">/home/runner/work/occ</text>
<text text-anchor="start" x="1451" y="-249" font-family="Helvetica,sans-Serif" font-size="10.00">/occ/include/occ/driver</text>
<text text-anchor="middle" x="1507" y="-238" font-family="Helvetica,sans-Serif" font-size="10.00">/dma_driver.h</text>
</a>
</g>
</g>
<!-- Node5&#45;&gt;Node8 -->
<g id="edge7_Node000005_Node000008" class="edge">
<title>Node5&#45;&gt;Node8</title>
<g id="a_edge7_Node000005_Node000008"><a xlink:title=" ">
<path fill="none" stroke="#63b8ff" d="M1454.86,-306.07C1465.23,-295.41 1477.69,-282.62 1487.82,-272.2"/>
<polygon fill="#63b8ff" stroke="#63b8ff" points="1452.2,-303.79 1447.73,-313.39 1457.21,-308.67 1452.2,-303.79"/>
</a>
</g>
</g>
<!-- Node9 -->
<g id="Node000009" class="node">
<title>Node9</title>
<g id="a_Node000009"><a xlink:href="occ__dma_8h.html" target="_top" xlink:title=" ">
<polygon fill="white" stroke="#666666" points="1571,-195 1443,-195 1443,-154 1571,-154 1571,-195"/>
<text text-anchor="start" x="1451" y="-183" font-family="Helvetica,sans-Serif" font-size="10.00">/home/runner/work/occ</text>
<text text-anchor="start" x="1451" y="-172" font-family="Helvetica,sans-Serif" font-size="10.00">/occ/include/occ/main</text>
<text text-anchor="middle" x="1507" y="-161" font-family="Helvetica,sans-Serif" font-size="10.00">/occ_dma.h</text>
</a>
</g>
</g>
<!-- Node8&#45;&gt;Node9 -->
<g id="edge8_Node000008_Node000009" class="edge">
<title>Node8&#45;&gt;Node9</title>
<g id="a_edge8_Node000008_Node000009"><a xlink:title=" ">
<path fill="none" stroke="#63b8ff" d="M1507,-220.69C1507,-212.08 1507,-202.9 1507,-195.07"/>
<polygon fill="#63b8ff" stroke="#63b8ff" points="1503.5,-220.79 1507,-230.79 1510.5,-220.79 1503.5,-220.79"/>
</a>
</g>
</g>
<!-- Node11 -->
<g id="Node000011" class="node">
<title>Node11</title>
<g id="a_Node000011"><a xlink:href="integrals_8h.html" target="_top" xlink:title=" ">
<polygon fill="white" stroke="#666666" points="2074,-272 1946,-272 1946,-231 2074,-231 2074,-272"/>
<text text-anchor="start" x="1954" y="-260" font-family="Helvetica,sans-Serif" font-size="10.00">/home/runner/work/occ</text>
<text text-anchor="start" x="1954" y="-249" font-family="Helvetica,sans-Serif" font-size="10.00">/occ/include/occ/qm/cc</text>
<text text-anchor="middle" x="2010" y="-238" font-family="Helvetica,sans-Serif" font-size="10.00">/integrals.h</text>
</a>
</g>
</g>
<!-- Node10&#45;&gt;Node11 -->
<g id="edge10_Node000010_Node000011" class="edge">
<title>Node10&#45;&gt;Node11</title>
<g id="a_edge10_Node000010_Node000011"><a xlink:title=" ">
<path fill="none" stroke="#63b8ff" d="M1848.27,-309.99C1880.23,-298.63 1921.92,-283.81 1954.96,-272.06"/>
<polygon fill="#63b8ff" stroke="#63b8ff" points="1846.94,-306.75 1838.69,-313.39 1849.28,-313.34 1846.94,-306.75"/>
</a>
</g>
</g>
<!-- Node14 -->
<g id="Node000014" class="node">
<title>Node14</title>
<g id="a_Node000014"><a xlink:href="thc__mp2_8h.html" target="_top" xlink:title=" ">
<polygon fill="white" stroke="#666666" points="1717,-272 1589,-272 1589,-231 1717,-231 1717,-272"/>
<text text-anchor="start" x="1597" y="-260" font-family="Helvetica,sans-Serif" font-size="10.00">/home/runner/work/occ</text>
<text text-anchor="start" x="1597" y="-249" font-family="Helvetica,sans-Serif" font-size="10.00">/occ/include/occ/qm/cc</text>
<text text-anchor="middle" x="1653" y="-238" font-family="Helvetica,sans-Serif" font-size="10.00">/thc_mp2.h</text>
</a>
</g>
</g>
<!-- Node10&#45;&gt;Node14 -->
<g id="edge13_Node000010_Node000014" class="edge">
<title>Node10&#45;&gt;Node14</title>
<g id="a_edge13_Node000010_Node000014"><a xlink:title=" ">
<path fill="none" stroke="#63b8ff" d="M1762.59,-308.8C1740.81,-297.61 1713.16,-283.4 1691.08,-272.06"/>
<polygon fill="#63b8ff" stroke="#63b8ff" points="1761.04,-311.94 1771.54,-313.39 1764.24,-305.71 1761.04,-311.94"/>
</a>
</g>
</g>
<!-- Node15 -->
<g id="Node000015" class="node">
<title>Node15</title>
<g id="a_Node000015"><a xlink:href="uccsd_8h.html" target="_top" xlink:title=" ">
<polygon fill="white" stroke="#666666" points="1863,-272 1735,-272 1735,-231 1863,-231 1863,-272"/>
<text text-anchor="start" x="1743" y="-260" font-family="Helvetica,sans-Serif" font-size="10.00">/home/runner/work/occ</text>
<text text-anchor="start" x="1743" y="-249" font-family="Helvetica,sans-Serif" font-size="10.00">/occ/include/occ/qm/cc</text>
<text text-anchor="middle" x="1799" y="-238" font-family="Helvetica,sans-Serif" font-size="10.00">/uccsd.h</text>
</a>
</g>
</g>
<!-- Node10&#45;&gt;Node15 -->
<g id="edge14_Node000010_Node000015" class="edge">
<title>Node10&#45;&gt;Node15</title>
<g id="a_edge14_Node000010_Node000015"><a xlink:title=" ">
<path fill="none" stroke="#63b8ff" d="M1799,-303.23C1799,-293.2 1799,-281.71 1799,-272.2"/>
<polygon fill="#63b8ff" stroke="#63b8ff" points="1795.5,-303.39 1799,-313.39 1802.5,-303.39 1795.5,-303.39"/>
</a>
</g>
</g>
<!-- Node17 -->
<g id="Node000017" class="node">
<title>Node17</title>
<g id="a_Node000017"><a xlink:href="uintegrals_8h.html" target="_top" xlink:title=" ">
<polygon fill="white" stroke="#666666" points="1928,-195 1800,-195 1800,-154 1928,-154 1928,-195"/>
<text text-anchor="start" x="1808" y="-183" font-family="Helvetica,sans-Serif" font-size="10.00">/home/runner/work/occ</text>
<text text-anchor="start" x="1808" y="-172" font-family="Helvetica,sans-Serif" font-size="10.00">/occ/include/occ/qm/cc</text>
<text text-anchor="middle" x="1864" y="-161" font-family="Helvetica,sans-Serif" font-size="10.00">/uintegrals.h</text>
</a>
</g>
</g>
<!-- Node10&#45;&gt;Node17 -->
<g id="edge18_Node000010_Node000017" class="edge">
<title>Node10&#45;&gt;Node17</title>
<g id="a_edge18_Node000010_Node000017"><a xlink:title=" ">
<path fill="none" stroke="#63b8ff" d="M1837.48,-307.98C1850.96,-299 1864.57,-286.98 1872,-272 1884.1,-247.6 1877.68,-215.44 1871.34,-195.11"/>
<polygon fill="#63b8ff" stroke="#63b8ff" points="1835.35,-305.19 1828.71,-313.44 1839.05,-311.13 1835.35,-305.19"/>
</a>
</g>
</g>
<!-- Node12 -->
<g id="Node000012" class="node">
<title>Node12</title>
<g id="a_Node000012"><a xlink:href="ccsd_8h.html" target="_top" xlink:title=" ">
<polygon fill="white" stroke="#666666" points="2074,-195 1946,-195 1946,-154 2074,-154 2074,-195"/>
<text text-anchor="start" x="1954" y="-183" font-family="Helvetica,sans-Serif" font-size="10.00">/home/runner/work/occ</text>
<text text-anchor="start" x="1954" y="-172" font-family="Helvetica,sans-Serif" font-size="10.00">/occ/include/occ/qm/cc</text>
<text text-anchor="middle" x="2010" y="-161" font-family="Helvetica,sans-Serif" font-size="10.00">/ccsd.h</text>
</a>
</g>
</g>
<!-- Node11&#45;&gt;Node12 -->
<g id="edge11_Node000011_Node000012" class="edge">
<title>Node11&#45;&gt;Node12</title>
<g id="a_edge11_Node000011_Node000012"><a xlink:title=" ">
<path fill="none" stroke="#63b8ff" d="M2010,-220.69C2010,-212.08 2010,-202.9 2010,-195.07"/>
<polygon fill="#63b8ff" stroke="#63b8ff" points="2006.5,-220.79 2010,-230.79 2013.5,-220.79 2006.5,-220.79"/>
</a>
</g>
</g>
<!-- Node13 -->
<g id="Node000013" class="node">
<title>Node13</title>
<g id="a_Node000013"><a xlink:href="triples_8h.html" target="_top" xlink:title=" ">
<polygon fill="white" stroke="#666666" points="2220,-195 2092,-195 2092,-154 2220,-154 2220,-195"/>
<text text-anchor="start" x="2100" y="-183" font-family="Helvetica,sans-Serif" font-size="10.00">/home/runner/work/occ</text>
<text text-anchor="start" x="2100" y="-172" font-family="Helvetica,sans-Serif" font-size="10.00">/occ/include/occ/qm/cc</text>
<text text-anchor="middle" x="2156" y="-161" font-family="Helvetica,sans-Serif" font-size="10.00">/triples.h</text>
</a>
</g>
</g>
<!-- Node11&#45;&gt;Node13 -->
<g id="edge12_Node000011_Node000013" class="edge">
<title>Node11&#45;&gt;Node13</title>
<g id="a_edge12_Node000011_Node000013"><a xlink:title=" ">
<path fill="none" stroke="#63b8ff" d="M2057.09,-226.31C2076.77,-216.2 2099.35,-204.6 2117.96,-195.04"/>
<polygon fill="#63b8ff" stroke="#63b8ff" points="2055.27,-223.31 2047.98,-230.99 2058.47,-229.53 2055.27,-223.31"/>
</a>
</g>
</g>
<!-- Node16 -->
<g id="Node000016" class="node">
<title>Node16</title>
<g id="a_Node000016"><a xlink:href="uccsd__so_8h.html" target="_top" xlink:title=" ">
<polygon fill="white" stroke="#666666" points="1782,-195 1654,-195 1654,-154 1782,-154 1782,-195"/>
<text text-anchor="start" x="1662" y="-183" font-family="Helvetica,sans-Serif" font-size="10.00">/home/runner/work/occ</text>
<text text-anchor="start" x="1662" y="-172" font-family="Helvetica,sans-Serif" font-size="10.00">/occ/include/occ/qm/cc</text>
<text text-anchor="middle" x="1718" y="-161" font-family="Helvetica,sans-Serif" font-size="10.00">/uccsd_so.h</text>
</a>
</g>
</g>
<!-- Node15&#45;&gt;Node16 -->
<g id="edge15_Node000015_Node000016" class="edge">
<title>Node15&#45;&gt;Node16</title>
<g id="a_edge15_Node000015_Node000016"><a xlink:title=" ">
<path fill="none" stroke="#63b8ff" d="M1770.15,-223.79C1759.92,-214.32 1748.61,-203.84 1739.14,-195.07"/>
<polygon fill="#63b8ff" stroke="#63b8ff" points="1768,-226.57 1777.72,-230.79 1772.76,-221.43 1768,-226.57"/>
</a>
</g>
</g>
<!-- Node15&#45;&gt;Node17 -->
<g id="edge16_Node000015_Node000017" class="edge">
<title>Node15&#45;&gt;Node17</title>
<g id="a_edge16_Node000015_Node000017"><a xlink:title=" ">
<path fill="none" stroke="#63b8ff" d="M1822.63,-223.23C1830.71,-213.91 1839.59,-203.67 1847.04,-195.07"/>
<polygon fill="#63b8ff" stroke="#63b8ff" points="1819.98,-220.95 1816.08,-230.79 1825.27,-225.53 1819.98,-220.95"/>
</a>
</g>
</g>
<!-- Node18 -->
<g id="Node000018" class="node">
<title>Node18</title>
<g id="a_Node000018"><a xlink:href="utriples_8h.html" target="_top" xlink:title=" ">
<polygon fill="white" stroke="#666666" points="1928,-118 1800,-118 1800,-77 1928,-77 1928,-118"/>
<text text-anchor="start" x="1808" y="-106" font-family="Helvetica,sans-Serif" font-size="10.00">/home/runner/work/occ</text>
<text text-anchor="start" x="1808" y="-95" font-family="Helvetica,sans-Serif" font-size="10.00">/occ/include/occ/qm/cc</text>
<text text-anchor="middle" x="1864" y="-84" font-family="Helvetica,sans-Serif" font-size="10.00">/utriples.h</text>
</a>
</g>
</g>
<!-- Node17&#45;&gt;Node18 -->
<g id="edge17_Node000017_Node000018" class="edge">
<title>Node17&#45;&gt;Node18</title>
<g id="a_edge17_Node000017_Node000018"><a xlink:title=" ">
<path fill="none" stroke="#63b8ff" d="M1864,-143.69C1864,-135.08 1864,-125.9 1864,-118.07"/>
<polygon fill="#63b8ff" stroke="#63b8ff" points="1860.5,-143.79 1864,-153.79 1867.5,-143.79 1860.5,-143.79"/>
</a>
</g>
</g>
<!-- Node19&#45;&gt;Node20 -->
<g id="edge20_Node000019_Node000020" class="edge">
<title>Node19&#45;&gt;Node20</title>
<g id="a_edge20_Node000019_Node000020"><a xlink:title=" ">
<path fill="none" stroke="#63b8ff" d="M160.74,-302.09C146.4,-292.32 130.28,-281.32 116.85,-272.17"/>
<polygon fill="#63b8ff" stroke="#63b8ff" points="159.15,-305.25 169.39,-307.99 163.1,-299.47 159.15,-305.25"/>
</a>
</g>
</g>
<!-- Node21 -->
<g id="Node000021" class="node">
<title>Node21</title>
<g id="a_Node000021"><a xlink:href="mp2_8h.html" target="_top" xlink:title=" ">
<polygon fill="white" stroke="#666666" points="202,-189.5 0,-189.5 0,-159.5 202,-159.5 202,-189.5"/>
<text text-anchor="start" x="8" y="-177.5" font-family="Helvetica,sans-Serif" font-size="10.00">/home/runner/work/occ</text>
<text text-anchor="middle" x="101" y="-166.5" font-family="Helvetica,sans-Serif" font-size="10.00">/occ/include/occ/qm/correlation/mp2.h</text>
</a>
</g>
</g>
<!-- Node20&#45;&gt;Node21 -->
<g id="edge21_Node000020_Node000021" class="edge">
<title>Node20&#45;&gt;Node21</title>
<g id="a_edge21_Node000020_Node000021"><a xlink:title=" ">
<path fill="none" stroke="#63b8ff" d="M93.18,-220.61C95.02,-210.01 97,-198.57 98.51,-189.86"/>
<polygon fill="#63b8ff" stroke="#63b8ff" points="89.67,-220.34 91.42,-230.79 96.57,-221.54 89.67,-220.34"/>
</a>
</g>
</g>
<!-- Node23 -->
<g id="Node000023" class="node">
<title>Node23</title>
<g id="a_Node000023"><a xlink:href="dft_8h.html" target="_top" xlink:title=" ">
<polygon fill="white" stroke="#666666" points="645,-189.5 511,-189.5 511,-159.5 645,-159.5 645,-189.5"/>
<text text-anchor="start" x="519" y="-177.5" font-family="Helvetica,sans-Serif" font-size="10.00">/home/runner/work/occ</text>
<text text-anchor="middle" x="578" y="-166.5" font-family="Helvetica,sans-Serif" font-size="10.00">/occ/include/occ/dft/dft.h</text>
</a>
</g>
</g>
<!-- Node22&#45;&gt;Node23 -->
<g id="edge24_Node000022_Node000023" class="edge">
<title>Node22&#45;&gt;Node23</title>
<g id="a_edge24_Node000022_Node000023"><a xlink:title=" ">
<path fill="none" stroke="#63b8ff" d="M508.21,-230.03C524.65,-217.18 545.43,-200.94 560.02,-189.54"/>
<polygon fill="#63b8ff" stroke="#63b8ff" points="505.78,-227.48 500.06,-236.39 510.09,-232.99 505.78,-227.48"/>
</a>
</g>
</g>
<!-- Node26 -->
<g id="Node000026" class="node">
<title>Node26</title>
<g id="a_Node000026"><a xlink:href="isosurface_2point__functors_8h.html" target="_top" xlink:title=" ">
<polygon fill="white" stroke="#666666" points="822.5,-118 675.5,-118 675.5,-77 822.5,-77 822.5,-118"/>
<text text-anchor="start" x="683.5" y="-106" font-family="Helvetica,sans-Serif" font-size="10.00">/home/runner/work/occ</text>
<text text-anchor="start" x="683.5" y="-95" font-family="Helvetica,sans-Serif" font-size="10.00">/occ/include/occ/isosurface</text>
<text text-anchor="middle" x="749" y="-84" font-family="Helvetica,sans-Serif" font-size="10.00">/point_functors.h</text>
</a>
</g>
</g>
<!-- Node22&#45;&gt;Node26 -->
<g id="edge34_Node000022_Node000026" class="edge">
<title>Node22&#45;&gt;Node26</title>
<g id="a_edge34_Node000022_Node000026"><a xlink:title=" ">
<path fill="none" stroke="#63b8ff" d="M544.61,-233.69C585.76,-222 635.33,-206.51 654,-195 687.22,-174.51 717.3,-140.02 734.35,-118.3"/>
<polygon fill="#63b8ff" stroke="#63b8ff" points="543.57,-230.35 534.89,-236.43 545.47,-237.09 543.57,-230.35"/>
</a>
</g>
</g>
<!-- Node27 -->
<g id="Node000027" class="node">
<title>Node27</title>
<g id="a_Node000027"><a xlink:href="main_2point__functors_8h.html" target="_top" xlink:title=" ">
<polygon fill="white" stroke="#666666" points="507,-118 379,-118 379,-77 507,-77 507,-118"/>
<text text-anchor="start" x="387" y="-106" font-family="Helvetica,sans-Serif" font-size="10.00">/home/runner/work/occ</text>
<text text-anchor="start" x="387" y="-95" font-family="Helvetica,sans-Serif" font-size="10.00">/occ/include/occ/main</text>
<text text-anchor="middle" x="443" y="-84" font-family="Helvetica,sans-Serif" font-size="10.00">/point_functors.h</text>
</a>
</g>
</g>
<!-- Node22&#45;&gt;Node27 -->
<g id="edge35_Node000022_Node000027" class="edge">
<title>Node22&#45;&gt;Node27</title>
<g id="a_edge35_Node000022_Node000027"><a xlink:title=" ">
<path fill="none" stroke="#63b8ff" d="M475.83,-226.46C468.15,-196.51 455.17,-145.93 448.05,-118.18"/>
<polygon fill="#63b8ff" stroke="#63b8ff" points="472.53,-227.66 478.4,-236.47 479.31,-225.92 472.53,-227.66"/>
</a>
</g>
</g>
<!-- Node28 -->
<g id="Node000028" class="node">
<title>Node28</title>
<g id="a_Node000028"><a xlink:href="electric__potential_8h.html" target="_top" xlink:title=" ">
<polygon fill="white" stroke="#666666" points="416.5,-195 269.5,-195 269.5,-154 416.5,-154 416.5,-195"/>
<text text-anchor="start" x="277.5" y="-183" font-family="Helvetica,sans-Serif" font-size="10.00">/home/runner/work/occ</text>
<text text-anchor="start" x="277.5" y="-172" font-family="Helvetica,sans-Serif" font-size="10.00">/occ/include/occ/isosurface</text>
<text text-anchor="middle" x="343" y="-161" font-family="Helvetica,sans-Serif" font-size="10.00">/electric_potential.h</text>
</a>
</g>
</g>
<!-- Node22&#45;&gt;Node28 -->
<g id="edge29_Node000022_Node000028" class="edge">
<title>Node22&#45;&gt;Node28</title>
<g id="a_edge29_Node000022_Node000028"><a xlink:title=" ">
<path fill="none" stroke="#63b8ff" d="M446.78,-231.5C426.13,-220.35 400.09,-206.3 379.26,-195.06"/>
<polygon fill="#63b8ff" stroke="#63b8ff" points="445.39,-234.72 455.86,-236.39 448.72,-228.56 445.39,-234.72"/>
</a>
</g>
</g>
<!-- Node24 -->
<g id="Node000024" class="node">
<title>Node24</title>
<g id="a_Node000024"><a xlink:href="smd__solvation_8h.html" target="_top" xlink:title=" ">
<polygon fill="white" stroke="#666666" points="657,-118 525,-118 525,-77 657,-77 657,-118"/>
<text text-anchor="start" x="533" y="-106" font-family="Helvetica,sans-Serif" font-size="10.00">/home/runner/work/occ</text>
<text text-anchor="start" x="533" y="-95" font-family="Helvetica,sans-Serif" font-size="10.00">/occ/include/occ/cg/smd</text>
<text text-anchor="middle" x="591" y="-84" font-family="Helvetica,sans-Serif" font-size="10.00">_solvation.h</text>
</a>
</g>
</g>
<!-- Node23&#45;&gt;Node24 -->
<g id="edge25_Node000023_Node000024" class="edge">
<title>Node23&#45;&gt;Node24</title>
<g id="a_edge25_Node000023_Node000024"><a xlink:title=" ">
<path fill="none" stroke="#63b8ff" d="M582.21,-149.23C583.95,-139.2 585.94,-127.71 587.58,-118.2"/>
<polygon fill="#63b8ff" stroke="#63b8ff" points="578.7,-148.94 580.45,-159.39 585.6,-150.14 578.7,-148.94"/>
</a>
</g>
</g>
<!-- Node23&#45;&gt;Node26 -->
<g id="edge27_Node000023_Node000026" class="edge">
<title>Node23&#45;&gt;Node26</title>
<g id="a_edge27_Node000023_Node000026"><a xlink:title=" ">
<path fill="none" stroke="#63b8ff" d="M619.62,-155.25C645.29,-143.99 678.19,-129.56 704.4,-118.06"/>
<polygon fill="#63b8ff" stroke="#63b8ff" points="617.92,-152.17 610.16,-159.39 620.73,-158.58 617.92,-152.17"/>
</a>
</g>
</g>
<!-- Node23&#45;&gt;Node27 -->
<g id="edge28_Node000023_Node000027" class="edge">
<title>Node23&#45;&gt;Node27</title>
<g id="a_edge28_Node000023_Node000027"><a xlink:title=" ">
<path fill="none" stroke="#63b8ff" d="M543.8,-154.5C523.74,-143.35 498.44,-129.3 478.21,-118.06"/>
<polygon fill="#63b8ff" stroke="#63b8ff" points="542.17,-157.6 552.61,-159.39 545.57,-151.48 542.17,-157.6"/>
</a>
</g>
</g>
<!-- Node25 -->
<g id="Node000025" class="node">
<title>Node25</title>
<g id="a_Node000025"><a xlink:href="crystal__growth_8h.html" target="_top" xlink:title=" ">
<polygon fill="white" stroke="#666666" points="655,-41 527,-41 527,0 655,0 655,-41"/>
<text text-anchor="start" x="535" y="-29" font-family="Helvetica,sans-Serif" font-size="10.00">/home/runner/work/occ</text>
<text text-anchor="start" x="535" y="-18" font-family="Helvetica,sans-Serif" font-size="10.00">/occ/include/occ/driver</text>
<text text-anchor="middle" x="591" y="-7" font-family="Helvetica,sans-Serif" font-size="10.00">/crystal_growth.h</text>
</a>
</g>
</g>
<!-- Node24&#45;&gt;Node25 -->
<g id="edge26_Node000024_Node000025" class="edge">
<title>Node24&#45;&gt;Node25</title>
<g id="a_edge26_Node000024_Node000025"><a xlink:title=" ">
<path fill="none" stroke="#63b8ff" d="M591,-66.69C591,-58.08 591,-48.9 591,-41.07"/>
<polygon fill="#63b8ff" stroke="#63b8ff" points="587.5,-66.79 591,-76.79 594.5,-66.79 587.5,-66.79"/>
</a>
</g>
</g>
<!-- Node29 -->
<g id="Node000029" class="node">
<title>Node29</title>
<g id="a_Node000029"><a xlink:href="isosurface_8h.html" target="_top" xlink:title=" ">
<polygon fill="white" stroke="#666666" points="360.5,-118 213.5,-118 213.5,-77 360.5,-77 360.5,-118"/>
<text text-anchor="start" x="221.5" y="-106" font-family="Helvetica,sans-Serif" font-size="10.00">/home/runner/work/occ</text>
<text text-anchor="start" x="221.5" y="-95" font-family="Helvetica,sans-Serif" font-size="10.00">/occ/include/occ/isosurface</text>
<text text-anchor="middle" x="287" y="-84" font-family="Helvetica,sans-Serif" font-size="10.00">/isosurface.h</text>
</a>
</g>
</g>
<!-- Node28&#45;&gt;Node29 -->
<g id="edge30_Node000028_Node000029" class="edge">
<title>Node28&#45;&gt;Node29</title>
<g id="a_edge30_Node000028_Node000029"><a xlink:title=" ">
<path fill="none" stroke="#63b8ff" d="M322.22,-145.67C315.37,-136.5 307.9,-126.5 301.62,-118.07"/>
<polygon fill="#63b8ff" stroke="#63b8ff" points="319.5,-147.88 328.29,-153.79 325.11,-143.69 319.5,-147.88"/>
</a>
</g>
</g>
<!-- Node30 -->
<g id="Node000030" class="node">
<title>Node30</title>
<g id="a_Node000030"><a xlink:href="isosurface__json_8h.html" target="_top" xlink:title=" ">
<polygon fill="white" stroke="#666666" points="202.5,-41 43.5,-41 43.5,0 202.5,0 202.5,-41"/>
<text text-anchor="start" x="51.5" y="-29" font-family="Helvetica,sans-Serif" font-size="10.00">/home/runner/work/occ</text>
<text text-anchor="start" x="51.5" y="-18" font-family="Helvetica,sans-Serif" font-size="10.00">/occ/include/occ/io/isosurface</text>
<text text-anchor="middle" x="123" y="-7" font-family="Helvetica,sans-Serif" font-size="10.00">_json.h</text>
</a>
</g>
</g>
<!-- Node29&#45;&gt;Node30 -->
<g id="edge31_Node000029_Node000030" class="edge">
<title>Node29&#45;&gt;Node30</title>
<g id="a_edge31_Node000029_Node000030"><a xlink:title=" ">
<path fill="none" stroke="#63b8ff" d="M235.01,-72.72C212.68,-62.51 186.92,-50.73 165.73,-41.04"/>
<polygon fill="#63b8ff" stroke="#63b8ff" points="233.79,-76.01 244.34,-76.99 236.7,-69.65 233.79,-76.01"/>
</a>
</g>
</g>
<!-- Node31 -->
<g id="Node000031" class="node">
<title>Node31</title>
<g id="a_Node000031"><a xlink:href="obj_8h.html" target="_top" xlink:title=" ">
<polygon fill="white" stroke="#666666" points="353.5,-35.5 220.5,-35.5 220.5,-5.5 353.5,-5.5 353.5,-35.5"/>
<text text-anchor="start" x="228.5" y="-23.5" font-family="Helvetica,sans-Serif" font-size="10.00">/home/runner/work/occ</text>
<text text-anchor="middle" x="287" y="-12.5" font-family="Helvetica,sans-Serif" font-size="10.00">/occ/include/occ/io/obj.h</text>
</a>
</g>
</g>
<!-- Node29&#45;&gt;Node31 -->
<g id="edge32_Node000029_Node000031" class="edge">
<title>Node29&#45;&gt;Node31</title>
<g id="a_edge32_Node000029_Node000031"><a xlink:title=" ">
<path fill="none" stroke="#63b8ff" d="M287,-66.61C287,-56.01 287,-44.57 287,-35.86"/>
<polygon fill="#63b8ff" stroke="#63b8ff" points="283.5,-66.79 287,-76.79 290.5,-66.79 283.5,-66.79"/>
</a>
</g>
</g>
<!-- Node32 -->
<g id="Node000032" class="node">
<title>Node32</title>
<g id="a_Node000032"><a xlink:href="ply_8h.html" target="_top" xlink:title=" ">
<polygon fill="white" stroke="#666666" points="502.5,-35.5 371.5,-35.5 371.5,-5.5 502.5,-5.5 502.5,-35.5"/>
<text text-anchor="start" x="379.5" y="-23.5" font-family="Helvetica,sans-Serif" font-size="10.00">/home/runner/work/occ</text>
<text text-anchor="middle" x="437" y="-12.5" font-family="Helvetica,sans-Serif" font-size="10.00">/occ/include/occ/io/ply.h</text>
</a>
</g>
</g>
<!-- Node29&#45;&gt;Node32 -->
<g id="edge33_Node000029_Node000032" class="edge">
<title>Node29&#45;&gt;Node32</title>
<g id="a_edge33_Node000029_Node000032"><a xlink:title=" ">
<path fill="none" stroke="#63b8ff" d="M335.07,-72.46C359.32,-60.34 387.89,-46.06 408.6,-35.7"/>
<polygon fill="#63b8ff" stroke="#63b8ff" points="333.4,-69.39 326.02,-76.99 336.53,-75.65 333.4,-69.39"/>
</a>
</g>
</g>
<!-- Node33&#45;&gt;Node21 -->
<g id="edge39_Node000033_Node000021" class="edge">
<title>Node33&#45;&gt;Node21</title>
<g id="a_edge39_Node000033_Node000021"><a xlink:title=" ">
<path fill="none" stroke="#63b8ff" d="M382.35,-297.7C384.35,-276.51 383.02,-248.76 367,-231 355.19,-217.91 266.46,-201.18 194.67,-189.53"/>
<polygon fill="#63b8ff" stroke="#63b8ff" points="378.85,-297.45 381.11,-307.8 385.8,-298.3 378.85,-297.45"/>
</a>
</g>
</g>
<!-- Node33&#45;&gt;Node22 -->
<g id="edge40_Node000033_Node000022" class="edge">
<title>Node33&#45;&gt;Node22</title>
<g id="a_edge40_Node000033_Node000022"><a xlink:title=" ">
<path fill="none" stroke="#63b8ff" d="M412.68,-302.01C429.2,-290.22 448.19,-276.65 462.12,-266.7"/>
<polygon fill="#63b8ff" stroke="#63b8ff" points="410.42,-299.33 404.31,-307.99 414.49,-305.03 410.42,-299.33"/>
</a>
</g>
</g>
<!-- Node34 -->
<g id="Node000034" class="node">
<title>Node34</title>
<g id="a_Node000034"><a xlink:href="acceleration_8h.html" target="_top" xlink:title=" ">
<polygon fill="white" stroke="#666666" points="695,-272 567,-272 567,-231 695,-231 695,-272"/>
<text text-anchor="start" x="575" y="-260" font-family="Helvetica,sans-Serif" font-size="10.00">/home/runner/work/occ</text>
<text text-anchor="start" x="575" y="-249" font-family="Helvetica,sans-Serif" font-size="10.00">/occ/include/occ/driver</text>
<text text-anchor="middle" x="631" y="-238" font-family="Helvetica,sans-Serif" font-size="10.00">/acceleration.h</text>
</a>
</g>
</g>
<!-- Node33&#45;&gt;Node34 -->
<g id="edge37_Node000033_Node000034" class="edge">
<title>Node33&#45;&gt;Node34</title>
<g id="a_edge37_Node000033_Node000034"><a xlink:title=" ">
<path fill="none" stroke="#63b8ff" d="M453.09,-305.03C489.26,-294.35 532.03,-281.72 566.58,-271.52"/>
<polygon fill="#63b8ff" stroke="#63b8ff" points="451.67,-301.8 443.07,-307.99 453.65,-308.52 451.67,-301.8"/>
</a>
</g>
</g>
<!-- Node35 -->
<g id="Node000035" class="node">
<title>Node35</title>
<g id="a_Node000035"><a xlink:href="df__integrals_8h.html" target="_top" xlink:title=" ">
<polygon fill="white" stroke="#666666" points="358,-272 190,-272 190,-231 358,-231 358,-272"/>
<text text-anchor="start" x="198" y="-260" font-family="Helvetica,sans-Serif" font-size="10.00">/home/runner/work/occ</text>
<text text-anchor="start" x="198" y="-249" font-family="Helvetica,sans-Serif" font-size="10.00">/occ/include/occ/qm/correlation</text>
<text text-anchor="middle" x="274" y="-238" font-family="Helvetica,sans-Serif" font-size="10.00">/df_integrals.h</text>
</a>
</g>
</g>
<!-- Node33&#45;&gt;Node35 -->
<g id="edge38_Node000033_Node000035" class="edge">
<title>Node33&#45;&gt;Node35</title>
<g id="a_edge38_Node000033_Node000035"><a xlink:title=" ">
<path fill="none" stroke="#63b8ff" d="M342.11,-302.09C328.69,-292.32 313.58,-281.32 301.02,-272.17"/>
<polygon fill="#63b8ff" stroke="#63b8ff" points="340.06,-304.93 350.21,-307.99 344.18,-299.27 340.06,-304.93"/>
</a>
</g>
</g>
<!-- Node36&#45;&gt;Node22 -->
<g id="edge44_Node000036_Node000022" class="edge">
<title>Node36&#45;&gt;Node22</title>
<g id="a_edge44_Node000036_Node000022"><a xlink:title=" ">
<path fill="none" stroke="#63b8ff" d="M591.03,-303.61C565.01,-291.41 534.25,-276.99 512.04,-266.58"/>
<polygon fill="#63b8ff" stroke="#63b8ff" points="589.84,-306.92 600.38,-307.99 592.81,-300.58 589.84,-306.92"/>
</a>
</g>
</g>
<!-- Node36&#45;&gt;Node34 -->
<g id="edge43_Node000036_Node000034" class="edge">
<title>Node36&#45;&gt;Node34</title>
<g id="a_edge43_Node000036_Node000034"><a xlink:title=" ">
<path fill="none" stroke="#63b8ff" d="M637.63,-297.69C636.36,-289.08 635.02,-279.9 633.87,-272.07"/>
<polygon fill="#63b8ff" stroke="#63b8ff" points="634.2,-298.41 639.11,-307.79 641.12,-297.39 634.2,-298.41"/>
</a>
</g>
</g>
<!-- Node37 -->
<g id="Node000037" class="node">
<title>Node37</title>
<g id="a_Node000037"><a xlink:href="dft_2seminumerical__exchange_8h.html" target="_top" xlink:title=" ">
<polygon fill="white" stroke="#666666" points="867,-272 713,-272 713,-231 867,-231 867,-272"/>
<text text-anchor="start" x="721" y="-260" font-family="Helvetica,sans-Serif" font-size="10.00">/home/runner/work/occ</text>
<text text-anchor="start" x="721" y="-249" font-family="Helvetica,sans-Serif" font-size="10.00">/occ/include/occ/dft</text>
<text text-anchor="middle" x="790" y="-238" font-family="Helvetica,sans-Serif" font-size="10.00">/seminumerical_exchange.h</text>
</a>
</g>
</g>
<!-- Node36&#45;&gt;Node37 -->
<g id="edge42_Node000036_Node000037" class="edge">
<title>Node36&#45;&gt;Node37</title>
<g id="a_edge42_Node000036_Node000037"><a xlink:title=" ">
<path fill="none" stroke="#63b8ff" d="M689.46,-303.45C709.48,-293.3 732.49,-281.64 751.44,-272.04"/>
<polygon fill="#63b8ff" stroke="#63b8ff" points="687.84,-300.35 680.5,-307.99 691,-306.59 687.84,-300.35"/>
</a>
</g>
</g>
<!-- Node39 -->
<g id="Node000039" class="node">
<title>Node39</title>
<g id="a_Node000039"><a xlink:href="xtb__calculator_8h.html" target="_top" xlink:title=" ">
<polygon fill="white" stroke="#666666" points="1110,-272 982,-272 982,-231 1110,-231 1110,-272"/>
<text text-anchor="start" x="990" y="-260" font-family="Helvetica,sans-Serif" font-size="10.00">/home/runner/work/occ</text>
<text text-anchor="start" x="990" y="-249" font-family="Helvetica,sans-Serif" font-size="10.00">/occ/include/occ/xtb</text>
<text text-anchor="middle" x="1046" y="-238" font-family="Helvetica,sans-Serif" font-size="10.00">/xtb_calculator.h</text>
</a>
</g>
</g>
<!-- Node38&#45;&gt;Node39 -->
<g id="edge46_Node000038_Node000039" class="edge">
<title>Node38&#45;&gt;Node39</title>
<g id="a_edge46_Node000038_Node000039"><a xlink:title=" ">
<path fill="none" stroke="#63b8ff" d="M886.98,-304.81C918.75,-294.36 956.09,-282.08 986.59,-272.04"/>
<polygon fill="#63b8ff" stroke="#63b8ff" points="885.71,-301.54 877.31,-307.99 887.9,-308.19 885.71,-301.54"/>
</a>
</g>
</g>
<!-- Node40&#45;&gt;Node39 -->
<g id="edge48_Node000040_Node000039" class="edge">
<title>Node40&#45;&gt;Node39</title>
<g id="a_edge48_Node000040_Node000039"><a xlink:title=" ">
<path fill="none" stroke="#63b8ff" d="M1199.05,-304.67C1168.47,-294.25 1132.63,-282.03 1103.32,-272.04"/>
<polygon fill="#63b8ff" stroke="#63b8ff" points="1198.18,-308.08 1208.77,-307.99 1200.44,-301.45 1198.18,-308.08"/>
</a>
</g>
</g>
</g>
</svg>
