<?xml version="1.0" encoding="UTF-8" standalone="no"?>
<!DOCTYPE svg PUBLIC "-//W3C//DTD SVG 1.1//EN"
 "http://www.w3.org/Graphics/SVG/1.1/DTD/svg11.dtd">
<!-- Generated by graphviz version 2.43.0 (0)
 -->
<!-- Title: /home/runner/work/occ/occ/include/occ/mults/multipole_coarsening.h Pages: 1 -->
<svg width="731pt" height="412pt"
 viewBox="0.00 0.00 730.50 412.00" xmlns="http://www.w3.org/2000/svg" xmlns:xlink="http://www.w3.org/1999/xlink">
<g id="graph0" class="graph" transform="scale(1 1) rotate(0) translate(4 408)">
<title>/home/runner/work/occ/occ/include/occ/mults/multipole_coarsening.h</title>
<!-- Node1 -->
<g id="Node000001" class="node">
<title>Node1</title>
<g id="a_Node000001"><a xlink:title=" ">
<polygon fill="#999999" stroke="#666666" points="395.5,-404 261.5,-404 261.5,-363 395.5,-363 395.5,-404"/>
<text text-anchor="start" x="269.5" y="-392" font-family="Helvetica,sans-Serif" font-size="10.00">/home/runner/work/occ</text>
<text text-anchor="start" x="269.5" y="-381" font-family="Helvetica,sans-Serif" font-size="10.00">/occ/include/occ/mults</text>
<text text-anchor="middle" x="328.5" y="-370" font-family="Helvetica,sans-Serif" font-size="10.00">/multipole_coarsening.h</text>
</a>
</g>
</g>
<!-- Node2 -->
<g id="Node000002" class="node">
<title>Node2</title>
<g id="a_Node000002"><a xlink:href="cartesian__multipole_8h.html" target="_top" xlink:title=" ">
<polygon fill="white" stroke="#666666" points="426.5,-195 314.5,-195 314.5,-165 426.5,-165 426.5,-195"/>
<text text-anchor="start" x="322.5" y="-183" font-family="Helvetica,sans-Serif" font-size="10.00">occ/mults/cartesian</text>
<text text-anchor="middle" x="370.5" y="-172" font-family="Helvetica,sans-Serif" font-size="10.00">_multipole.h</text>
</a>
</g>
</g>
<!-- Node1&#45;&gt;Node2 -->
<g id="edge1_Node000001_Node000002" class="edge">
<title>Node1&#45;&gt;Node2</title>
<g id="a_edge1_Node000001_Node000002"><a xlink:title=" ">
<path fill="none" stroke="#63b8ff" d="M326.24,-362.74C323.58,-333.21 321.28,-276.18 336.5,-231 339.83,-221.11 345.71,-211.35 351.65,-203.13"/>
<polygon fill="#63b8ff" stroke="#63b8ff" points="354.45,-205.23 357.75,-195.16 348.89,-200.97 354.45,-205.23"/>
</a>
</g>
</g>
<!-- Node16 -->
<g id="Node000016" class="node">
<title>Node16</title>
<g id="a_Node000016"><a xlink:href="cartesian__molecule_8h.html" target="_top" xlink:title=" ">
<polygon fill="white" stroke="#666666" points="464.5,-327 352.5,-327 352.5,-297 464.5,-297 464.5,-327"/>
<text text-anchor="start" x="360.5" y="-315" font-family="Helvetica,sans-Serif" font-size="10.00">occ/mults/cartesian</text>
<text text-anchor="middle" x="408.5" y="-304" font-family="Helvetica,sans-Serif" font-size="10.00">_molecule.h</text>
</a>
</g>
</g>
<!-- Node1&#45;&gt;Node16 -->
<g id="edge18_Node000001_Node000016" class="edge">
<title>Node1&#45;&gt;Node16</title>
<g id="a_edge18_Node000001_Node000016"><a xlink:title=" ">
<path fill="none" stroke="#63b8ff" d="M351.21,-362.77C361.67,-353.69 374.07,-342.91 384.66,-333.71"/>
<polygon fill="#63b8ff" stroke="#63b8ff" points="387.09,-336.24 392.34,-327.04 382.5,-330.95 387.09,-336.24"/>
</a>
</g>
</g>
<!-- Node3 -->
<g id="Node000003" class="node">
<title>Node3</title>
<g id="a_Node000003"><a xlink:href="rints_8h.html" target="_top" xlink:title=" ">
<polygon fill="white" stroke="#666666" points="523.5,-129 435.5,-129 435.5,-110 523.5,-110 523.5,-129"/>
<text text-anchor="middle" x="479.5" y="-117" font-family="Helvetica,sans-Serif" font-size="10.00">occ/ints/rints.h</text>
</a>
</g>
</g>
<!-- Node2&#45;&gt;Node3 -->
<g id="edge2_Node000002_Node000003" class="edge">
<title>Node2&#45;&gt;Node3</title>
<g id="a_edge2_Node000002_Node000003"><a xlink:title=" ">
<path fill="none" stroke="#63b8ff" d="M396.61,-164.99C414.14,-155.58 437.12,-143.24 454.44,-133.95"/>
<polygon fill="#63b8ff" stroke="#63b8ff" points="456.25,-136.95 463.4,-129.14 452.94,-130.78 456.25,-136.95"/>
</a>
</g>
</g>
<!-- Node6 -->
<g id="Node000006" class="node">
<title>Node6</title>
<g id="a_Node000006"><a xlink:title=" ">
<polygon fill="#e0e0e0" stroke="#999999" points="505,-19 458,-19 458,0 505,0 505,-19"/>
<text text-anchor="middle" x="481.5" y="-7" font-family="Helvetica,sans-Serif" font-size="10.00">cmath</text>
</a>
</g>
</g>
<!-- Node2&#45;&gt;Node6 -->
<g id="edge16_Node000002_Node000006" class="edge">
<title>Node2&#45;&gt;Node6</title>
<g id="a_edge16_Node000002_Node000006"><a xlink:title=" ">
<path fill="none" stroke="#63b8ff" d="M379.77,-164.92C399.98,-134.26 447.92,-61.48 470,-27.96"/>
<polygon fill="#63b8ff" stroke="#63b8ff" points="473.15,-29.53 475.73,-19.25 467.31,-25.68 473.15,-29.53"/>
</a>
</g>
</g>
<!-- Node8 -->
<g id="Node000008" class="node">
<title>Node8</title>
<g id="a_Node000008"><a xlink:href="mult_8h.html" target="_top" xlink:title=" ">
<polygon fill="white" stroke="#666666" points="311.5,-129 219.5,-129 219.5,-110 311.5,-110 311.5,-129"/>
<text text-anchor="middle" x="265.5" y="-117" font-family="Helvetica,sans-Serif" font-size="10.00">occ/dma/mult.h</text>
</a>
</g>
</g>
<!-- Node2&#45;&gt;Node8 -->
<g id="edge9_Node000002_Node000008" class="edge">
<title>Node2&#45;&gt;Node8</title>
<g id="a_edge9_Node000002_Node000008"><a xlink:title=" ">
<path fill="none" stroke="#63b8ff" d="M345.35,-164.99C328.61,-155.66 306.73,-143.47 290.11,-134.21"/>
<polygon fill="#63b8ff" stroke="#63b8ff" points="291.45,-130.95 281.01,-129.14 288.04,-137.06 291.45,-130.95"/>
</a>
</g>
</g>
<!-- Node15 -->
<g id="Node000015" class="node">
<title>Node15</title>
<g id="a_Node000015"><a xlink:title=" ">
<polygon fill="#e0e0e0" stroke="#999999" points="379.5,-129 329.5,-129 329.5,-110 379.5,-110 379.5,-129"/>
<text text-anchor="middle" x="354.5" y="-117" font-family="Helvetica,sans-Serif" font-size="10.00">cstring</text>
</a>
</g>
</g>
<!-- Node2&#45;&gt;Node15 -->
<g id="edge17_Node000002_Node000015" class="edge">
<title>Node2&#45;&gt;Node15</title>
<g id="a_edge17_Node000002_Node000015"><a xlink:title=" ">
<path fill="none" stroke="#63b8ff" d="M366.63,-164.84C364.52,-157.13 361.88,-147.49 359.61,-139.17"/>
<polygon fill="#63b8ff" stroke="#63b8ff" points="362.91,-137.99 356.9,-129.27 356.16,-139.84 362.91,-137.99"/>
</a>
</g>
</g>
<!-- Node4 -->
<g id="Node000004" class="node">
<title>Node4</title>
<g id="a_Node000004"><a xlink:href="boys_8h.html" target="_top" xlink:title=" ">
<polygon fill="white" stroke="#666666" points="618,-74 529,-74 529,-55 618,-55 618,-74"/>
<text text-anchor="middle" x="573.5" y="-62" font-family="Helvetica,sans-Serif" font-size="10.00">occ/ints/boys.h</text>
</a>
</g>
</g>
<!-- Node3&#45;&gt;Node4 -->
<g id="edge3_Node000003_Node000004" class="edge">
<title>Node3&#45;&gt;Node4</title>
<g id="a_edge3_Node000003_Node000004"><a xlink:title=" ">
<path fill="none" stroke="#63b8ff" d="M494.6,-109.98C509.32,-101.69 531.92,-88.94 549.17,-79.22"/>
<polygon fill="#63b8ff" stroke="#63b8ff" points="551.13,-82.13 558.12,-74.17 547.69,-76.03 551.13,-82.13"/>
</a>
</g>
</g>
<!-- Node5 -->
<g id="Node000005" class="node">
<title>Node5</title>
<g id="a_Node000005"><a xlink:title=" ">
<polygon fill="#e0e0e0" stroke="#999999" points="686.5,-19 644.5,-19 644.5,0 686.5,0 686.5,-19"/>
<text text-anchor="middle" x="665.5" y="-7" font-family="Helvetica,sans-Serif" font-size="10.00">array</text>
</a>
</g>
</g>
<!-- Node3&#45;&gt;Node5 -->
<g id="edge7_Node000003_Node000005" class="edge">
<title>Node3&#45;&gt;Node5</title>
<g id="a_edge7_Node000003_Node000005"><a xlink:title=" ">
<path fill="none" stroke="#63b8ff" d="M523.53,-113.81C555.19,-108.54 597.44,-97.41 627.5,-74 642.51,-62.31 652.87,-42.9 658.93,-28.61"/>
<polygon fill="#63b8ff" stroke="#63b8ff" points="662.19,-29.88 662.6,-19.3 655.68,-27.32 662.19,-29.88"/>
</a>
</g>
</g>
<!-- Node3&#45;&gt;Node6 -->
<g id="edge8_Node000003_Node000006" class="edge">
<title>Node3&#45;&gt;Node6</title>
<g id="a_edge8_Node000003_Node000006"><a xlink:title=" ">
<path fill="none" stroke="#63b8ff" d="M479.66,-109.66C479.99,-92.17 480.72,-52.8 481.15,-29.27"/>
<polygon fill="#63b8ff" stroke="#63b8ff" points="484.65,-29.22 481.34,-19.16 477.66,-29.09 484.65,-29.22"/>
</a>
</g>
</g>
<!-- Node4&#45;&gt;Node5 -->
<g id="edge4_Node000004_Node000005" class="edge">
<title>Node4&#45;&gt;Node5</title>
<g id="a_edge4_Node000004_Node000005"><a xlink:title=" ">
<path fill="none" stroke="#63b8ff" d="M588.28,-54.98C602.68,-46.69 624.81,-33.94 641.69,-24.22"/>
<polygon fill="#63b8ff" stroke="#63b8ff" points="643.53,-27.19 650.45,-19.17 640.04,-21.13 643.53,-27.19"/>
</a>
</g>
</g>
<!-- Node4&#45;&gt;Node6 -->
<g id="edge5_Node000004_Node000006" class="edge">
<title>Node4&#45;&gt;Node6</title>
<g id="a_edge5_Node000004_Node000006"><a xlink:title=" ">
<path fill="none" stroke="#63b8ff" d="M558.72,-54.98C544.32,-46.69 522.19,-33.94 505.31,-24.22"/>
<polygon fill="#63b8ff" stroke="#63b8ff" points="506.96,-21.13 496.55,-19.17 503.47,-27.19 506.96,-21.13"/>
</a>
</g>
</g>
<!-- Node7 -->
<g id="Node000007" class="node">
<title>Node7</title>
<g id="a_Node000007"><a xlink:title=" ">
<polygon fill="#e0e0e0" stroke="#999999" points="602.5,-19 544.5,-19 544.5,0 602.5,0 602.5,-19"/>
<text text-anchor="middle" x="573.5" y="-7" font-family="Helvetica,sans-Serif" font-size="10.00">memory</text>
</a>
</g>
</g>
<!-- Node4&#45;&gt;Node7 -->
<g id="edge6_Node000004_Node000007" class="edge">
<title>Node4&#45;&gt;Node7</title>
<g id="a_edge6_Node000004_Node000007"><a xlink:title=" ">
<path fill="none" stroke="#63b8ff" d="M573.5,-54.75C573.5,-47.8 573.5,-37.85 573.5,-29.13"/>
<polygon fill="#63b8ff" stroke="#63b8ff" points="577,-29.09 573.5,-19.09 570,-29.09 577,-29.09"/>
</a>
</g>
</g>
<!-- Node9 -->
<g id="Node000009" class="node">
<title>Node9</title>
<g id="a_Node000009"><a xlink:href="linear__algebra_8h.html" target="_top" xlink:title=" ">
<polygon fill="white" stroke="#666666" points="193,-74 54,-74 54,-55 193,-55 193,-74"/>
<text text-anchor="middle" x="123.5" y="-62" font-family="Helvetica,sans-Serif" font-size="10.00">occ/core/linear_algebra.h</text>
</a>
</g>
</g>
<!-- Node8&#45;&gt;Node9 -->
<g id="edge10_Node000008_Node000009" class="edge">
<title>Node8&#45;&gt;Node9</title>
<g id="a_edge10_Node000008_Node000009"><a xlink:title=" ">
<path fill="none" stroke="#63b8ff" d="M242.69,-109.98C219.33,-101.27 182.8,-87.63 156.33,-77.75"/>
<polygon fill="#63b8ff" stroke="#63b8ff" points="157.32,-74.39 146.73,-74.17 154.87,-80.95 157.32,-74.39"/>
</a>
</g>
</g>
<!-- Node13 -->
<g id="Node000013" class="node">
<title>Node13</title>
<g id="a_Node000013"><a xlink:href="macros_8h.html" target="_top" xlink:title=" ">
<polygon fill="white" stroke="#666666" points="379,-74 274,-74 274,-55 379,-55 379,-74"/>
<text text-anchor="middle" x="326.5" y="-62" font-family="Helvetica,sans-Serif" font-size="10.00">occ/core/macros.h</text>
</a>
</g>
</g>
<!-- Node8&#45;&gt;Node13 -->
<g id="edge14_Node000008_Node000013" class="edge">
<title>Node8&#45;&gt;Node13</title>
<g id="a_edge14_Node000008_Node000013"><a xlink:title=" ">
<path fill="none" stroke="#63b8ff" d="M275.3,-109.98C284.32,-102.15 297.91,-90.34 308.82,-80.86"/>
<polygon fill="#63b8ff" stroke="#63b8ff" points="311.27,-83.37 316.52,-74.17 306.68,-78.09 311.27,-83.37"/>
</a>
</g>
</g>
<!-- Node14 -->
<g id="Node000014" class="node">
<title>Node14</title>
<g id="a_Node000014"><a xlink:title=" ">
<polygon fill="#e0e0e0" stroke="#999999" points="255.5,-74 211.5,-74 211.5,-55 255.5,-55 255.5,-74"/>
<text text-anchor="middle" x="233.5" y="-62" font-family="Helvetica,sans-Serif" font-size="10.00">string</text>
</a>
</g>
</g>
<!-- Node8&#45;&gt;Node14 -->
<g id="edge15_Node000008_Node000014" class="edge">
<title>Node8&#45;&gt;Node14</title>
<g id="a_edge15_Node000008_Node000014"><a xlink:title=" ">
<path fill="none" stroke="#63b8ff" d="M260.22,-109.75C255.79,-102.42 249.34,-91.73 243.88,-82.7"/>
<polygon fill="#63b8ff" stroke="#63b8ff" points="246.85,-80.84 238.69,-74.09 240.86,-84.46 246.85,-80.84"/>
</a>
</g>
</g>
<!-- Node10 -->
<g id="Node000010" class="node">
<title>Node10</title>
<g id="a_Node000010"><a xlink:title=" ">
<polygon fill="#e0e0e0" stroke="#999999" points="162,-19 85,-19 85,0 162,0 162,-19"/>
<text text-anchor="middle" x="123.5" y="-7" font-family="Helvetica,sans-Serif" font-size="10.00">Eigen/Dense</text>
</a>
</g>
</g>
<!-- Node9&#45;&gt;Node10 -->
<g id="edge11_Node000009_Node000010" class="edge">
<title>Node9&#45;&gt;Node10</title>
<g id="a_edge11_Node000009_Node000010"><a xlink:title=" ">
<path fill="none" stroke="#63b8ff" d="M123.5,-54.75C123.5,-47.8 123.5,-37.85 123.5,-29.13"/>
<polygon fill="#63b8ff" stroke="#63b8ff" points="127,-29.09 123.5,-19.09 120,-29.09 127,-29.09"/>
</a>
</g>
</g>
<!-- Node11 -->
<g id="Node000011" class="node">
<title>Node11</title>
<g id="a_Node000011"><a xlink:title=" ">
<polygon fill="#e0e0e0" stroke="#999999" points="273,-19 180,-19 180,0 273,0 273,-19"/>
<text text-anchor="middle" x="226.5" y="-7" font-family="Helvetica,sans-Serif" font-size="10.00">Eigen/StdVector</text>
</a>
</g>
</g>
<!-- Node9&#45;&gt;Node11 -->
<g id="edge12_Node000009_Node000011" class="edge">
<title>Node9&#45;&gt;Node11</title>
<g id="a_edge12_Node000009_Node000011"><a xlink:title=" ">
<path fill="none" stroke="#63b8ff" d="M140.05,-54.98C156.39,-46.57 181.63,-33.59 200.63,-23.81"/>
<polygon fill="#63b8ff" stroke="#63b8ff" points="202.36,-26.86 209.65,-19.17 199.16,-20.63 202.36,-26.86"/>
</a>
</g>
</g>
<!-- Node12 -->
<g id="Node000012" class="node">
<title>Node12</title>
<g id="a_Node000012"><a xlink:title=" ">
<polygon fill="#e0e0e0" stroke="#999999" points="67,-19 0,-19 0,0 67,0 67,-19"/>
<text text-anchor="middle" x="33.5" y="-7" font-family="Helvetica,sans-Serif" font-size="10.00">fmt/core.h</text>
</a>
</g>
</g>
<!-- Node9&#45;&gt;Node12 -->
<g id="edge13_Node000009_Node000012" class="edge">
<title>Node9&#45;&gt;Node12</title>
<g id="a_edge13_Node000009_Node000012"><a xlink:title=" ">
<path fill="none" stroke="#63b8ff" d="M109.04,-54.98C95.08,-46.77 73.71,-34.18 57.25,-24.49"/>
<polygon fill="#63b8ff" stroke="#63b8ff" points="58.62,-21.23 48.22,-19.17 55.06,-27.26 58.62,-21.23"/>
</a>
</g>
</g>
<!-- Node16&#45;&gt;Node2 -->
<g id="edge19_Node000016_Node000002" class="edge">
<title>Node16&#45;&gt;Node2</title>
<g id="a_edge19_Node000016_Node000002"><a xlink:title=" ">
<path fill="none" stroke="#63b8ff" d="M379.69,-296.84C366.05,-288.47 351.11,-276.45 343.5,-261 334.32,-242.36 343.59,-219.83 353.68,-203.44"/>
<polygon fill="#63b8ff" stroke="#63b8ff" points="356.65,-205.3 359.27,-195.03 350.82,-201.42 356.65,-205.3"/>
</a>
</g>
</g>
<!-- Node16&#45;&gt;Node5 -->
<g id="edge29_Node000016_Node000005" class="edge">
<title>Node16&#45;&gt;Node5</title>
<g id="a_edge29_Node000016_Node000005"><a xlink:title=" ">
<path fill="none" stroke="#63b8ff" d="M464.64,-311.8C554.95,-309.84 722.5,-291.33 722.5,-181 722.5,-181 722.5,-181 722.5,-118.5 722.5,-82.51 697.44,-46.76 680.55,-26.76"/>
<polygon fill="#63b8ff" stroke="#63b8ff" points="683.14,-24.4 673.91,-19.2 677.88,-29.02 683.14,-24.4"/>
</a>
</g>
</g>
<!-- Node16&#45;&gt;Node8 -->
<g id="edge27_Node000016_Node000008" class="edge">
<title>Node16&#45;&gt;Node8</title>
<g id="a_edge27_Node000016_Node000008"><a xlink:title=" ">
<path fill="none" stroke="#63b8ff" d="M381.74,-296.82C367,-288 349.18,-275.58 336.5,-261 303.58,-223.15 281.37,-167.35 271.43,-138.79"/>
<polygon fill="#63b8ff" stroke="#63b8ff" points="274.74,-137.64 268.23,-129.28 268.1,-139.87 274.74,-137.64"/>
</a>
</g>
</g>
<!-- Node16&#45;&gt;Node9 -->
<g id="edge26_Node000016_Node000009" class="edge">
<title>Node16&#45;&gt;Node9</title>
<g id="a_edge26_Node000016_Node000009"><a xlink:title=" ">
<path fill="none" stroke="#63b8ff" d="M374.58,-296.87C355.19,-287.99 330.94,-275.49 311.5,-261 236.67,-205.23 165.02,-118.63 136.48,-82.37"/>
<polygon fill="#63b8ff" stroke="#63b8ff" points="139.08,-80.02 130.18,-74.28 133.56,-84.32 139.08,-80.02"/>
</a>
</g>
</g>
<!-- Node17 -->
<g id="Node000017" class="node">
<title>Node17</title>
<g id="a_Node000017"><a xlink:href="cartesian__kernels_8h.html" target="_top" xlink:title=" ">
<polygon fill="white" stroke="#666666" points="464.5,-261 352.5,-261 352.5,-231 464.5,-231 464.5,-261"/>
<text text-anchor="start" x="360.5" y="-249" font-family="Helvetica,sans-Serif" font-size="10.00">occ/mults/cartesian</text>
<text text-anchor="middle" x="408.5" y="-238" font-family="Helvetica,sans-Serif" font-size="10.00">_kernels.h</text>
</a>
</g>
</g>
<!-- Node16&#45;&gt;Node17 -->
<g id="edge20_Node000016_Node000017" class="edge">
<title>Node16&#45;&gt;Node17</title>
<g id="a_edge20_Node000016_Node000017"><a xlink:title=" ">
<path fill="none" stroke="#63b8ff" d="M408.5,-296.8C408.5,-289.34 408.5,-279.99 408.5,-271.41"/>
<polygon fill="#63b8ff" stroke="#63b8ff" points="412,-271.16 408.5,-261.16 405,-271.16 412,-271.16"/>
</a>
</g>
</g>
<!-- Node19 -->
<g id="Node000019" class="node">
<title>Node19</title>
<g id="a_Node000019"><a xlink:title=" ">
<polygon fill="#e0e0e0" stroke="#999999" points="530,-255.5 483,-255.5 483,-236.5 530,-236.5 530,-255.5"/>
<text text-anchor="middle" x="506.5" y="-243.5" font-family="Helvetica,sans-Serif" font-size="10.00">vector</text>
</a>
</g>
</g>
<!-- Node16&#45;&gt;Node19 -->
<g id="edge28_Node000016_Node000019" class="edge">
<title>Node16&#45;&gt;Node19</title>
<g id="a_edge28_Node000016_Node000019"><a xlink:title=" ">
<path fill="none" stroke="#63b8ff" d="M430.25,-296.8C446.37,-286.27 468.26,-271.97 484.45,-261.4"/>
<polygon fill="#63b8ff" stroke="#63b8ff" points="486.78,-264.06 493.24,-255.66 482.96,-258.2 486.78,-264.06"/>
</a>
</g>
</g>
<!-- Node20 -->
<g id="Node000020" class="node">
<title>Node20</title>
<g id="a_Node000020"><a xlink:title=" ">
<polygon fill="#e0e0e0" stroke="#999999" points="593,-255.5 548,-255.5 548,-236.5 593,-236.5 593,-255.5"/>
<text text-anchor="middle" x="570.5" y="-243.5" font-family="Helvetica,sans-Serif" font-size="10.00">utility</text>
</a>
</g>
</g>
<!-- Node16&#45;&gt;Node20 -->
<g id="edge30_Node000016_Node000020" class="edge">
<title>Node16&#45;&gt;Node20</title>
<g id="a_edge30_Node000016_Node000020"><a xlink:title=" ">
<path fill="none" stroke="#63b8ff" d="M447.14,-296.94C473.36,-287.23 508.71,-273.82 539.5,-261 540.51,-260.58 541.53,-260.15 542.57,-259.71"/>
<polygon fill="#63b8ff" stroke="#63b8ff" points="544.14,-262.84 551.89,-255.62 541.33,-256.43 544.14,-262.84"/>
</a>
</g>
</g>
<!-- Node21 -->
<g id="Node000021" class="node">
<title>Node21</title>
<g id="a_Node000021"><a xlink:title=" ">
<polygon fill="#e0e0e0" stroke="#999999" points="667.5,-255.5 611.5,-255.5 611.5,-236.5 667.5,-236.5 667.5,-255.5"/>
<text text-anchor="middle" x="639.5" y="-243.5" font-family="Helvetica,sans-Serif" font-size="10.00">optional</text>
</a>
</g>
</g>
<!-- Node16&#45;&gt;Node21 -->
<g id="edge31_Node000016_Node000021" class="edge">
<title>Node16&#45;&gt;Node21</title>
<g id="a_edge31_Node000016_Node000021"><a xlink:title=" ">
<path fill="none" stroke="#63b8ff" d="M464.57,-298.27C503.56,-289 556.58,-275.56 602.5,-261 604.41,-260.39 606.38,-259.74 608.35,-259.06"/>
<polygon fill="#63b8ff" stroke="#63b8ff" points="609.9,-262.23 618.12,-255.55 607.52,-255.64 609.9,-262.23"/>
</a>
</g>
</g>
<!-- Node17&#45;&gt;Node2 -->
<g id="edge25_Node000017_Node000002" class="edge">
<title>Node17&#45;&gt;Node2</title>
<g id="a_edge25_Node000017_Node000002"><a xlink:title=" ">
<path fill="none" stroke="#63b8ff" d="M400.07,-230.8C395.39,-222.92 389.47,-212.95 384.15,-203.99"/>
<polygon fill="#63b8ff" stroke="#63b8ff" points="387.02,-201.98 378.91,-195.16 381.01,-205.55 387.02,-201.98"/>
</a>
</g>
</g>
<!-- Node18 -->
<g id="Node000018" class="node">
<title>Node18</title>
<g id="a_Node000018"><a xlink:href="interaction__tensor_8h.html" target="_top" xlink:title=" ">
<polygon fill="white" stroke="#666666" points="580,-195 461,-195 461,-165 580,-165 580,-195"/>
<text text-anchor="start" x="469" y="-183" font-family="Helvetica,sans-Serif" font-size="10.00">occ/mults/interaction</text>
<text text-anchor="middle" x="520.5" y="-172" font-family="Helvetica,sans-Serif" font-size="10.00">_tensor.h</text>
</a>
</g>
</g>
<!-- Node17&#45;&gt;Node18 -->
<g id="edge21_Node000017_Node000018" class="edge">
<title>Node17&#45;&gt;Node18</title>
<g id="a_edge21_Node000017_Node000018"><a xlink:title=" ">
<path fill="none" stroke="#63b8ff" d="M433.08,-230.95C448.98,-221.87 469.88,-209.93 487.26,-200"/>
<polygon fill="#63b8ff" stroke="#63b8ff" points="489.03,-203.01 495.98,-195.01 485.56,-196.93 489.03,-203.01"/>
</a>
</g>
</g>
<!-- Node18&#45;&gt;Node3 -->
<g id="edge22_Node000018_Node000003" class="edge">
<title>Node18&#45;&gt;Node3</title>
<g id="a_edge22_Node000018_Node000003"><a xlink:title=" ">
<path fill="none" stroke="#63b8ff" d="M510.58,-164.84C504.81,-156.61 497.5,-146.18 491.42,-137.51"/>
<polygon fill="#63b8ff" stroke="#63b8ff" points="494.25,-135.45 485.64,-129.27 488.52,-139.46 494.25,-135.45"/>
</a>
</g>
</g>
<!-- Node18&#45;&gt;Node5 -->
<g id="edge23_Node000018_Node000005" class="edge">
<title>Node18&#45;&gt;Node5</title>
<g id="a_edge23_Node000018_Node000005"><a xlink:title=" ">
<path fill="none" stroke="#63b8ff" d="M546.25,-164.97C575.74,-147.54 623.36,-115.04 649.5,-74 658.09,-60.52 662.07,-42.69 663.91,-29.35"/>
<polygon fill="#63b8ff" stroke="#63b8ff" points="667.39,-29.73 665.01,-19.4 660.44,-28.96 667.39,-29.73"/>
</a>
</g>
</g>
<!-- Node18&#45;&gt;Node6 -->
<g id="edge24_Node000018_Node000006" class="edge">
<title>Node18&#45;&gt;Node6</title>
<g id="a_edge24_Node000018_Node000006"><a xlink:title=" ">
<path fill="none" stroke="#63b8ff" d="M526.32,-164.88C531.31,-150.86 537.04,-128.79 532.5,-110 525.02,-79.01 506.14,-46.82 493.57,-27.74"/>
<polygon fill="#63b8ff" stroke="#63b8ff" points="496.33,-25.57 487.83,-19.25 490.54,-29.5 496.33,-25.57"/>
</a>
</g>
</g>
</g>
</svg>
