<?xml version="1.0" encoding="UTF-8" standalone="no"?>
<!DOCTYPE svg PUBLIC "-//W3C//DTD SVG 1.1//EN"
 "http://www.w3.org/Graphics/SVG/1.1/DTD/svg11.dtd">
<!-- Generated by graphviz version 2.43.0 (0)
 -->
<!-- Title: /home/runner/work/occ/occ/include/occ/dft/nonlocal_correlation.h Pages: 1 -->
<svg width="916pt" height="397pt"
 viewBox="0.00 0.00 915.63 397.00" xmlns="http://www.w3.org/2000/svg" xmlns:xlink="http://www.w3.org/1999/xlink">
<g id="graph0" class="graph" transform="scale(1 1) rotate(0) translate(4 393)">
<title>/home/runner/work/occ/occ/include/occ/dft/nonlocal_correlation.h</title>
<!-- Node1 -->
<g id="node1" class="node">
<title>Node1</title>
<g id="a_node1"><a xlink:title=" ">
<polygon fill="#bfbfbf" stroke="black" points="424.8,-347.5 424.8,-388.5 552.8,-388.5 552.8,-347.5 424.8,-347.5"/>
<text text-anchor="start" x="432.8" y="-376.5" font-family="Helvetica,sans-Serif" font-size="10.00">/home/runner/work/occ</text>
<text text-anchor="start" x="432.8" y="-365.5" font-family="Helvetica,sans-Serif" font-size="10.00">/occ/include/occ/dft</text>
<text text-anchor="middle" x="488.8" y="-354.5" font-family="Helvetica,sans-Serif" font-size="10.00">/nonlocal_correlation.h</text>
</a>
</g>
</g>
<!-- Node2 -->
<g id="node2" class="node">
<title>Node2</title>
<g id="a_node2"><a xlink:href="grid_8h.html" target="_top" xlink:title=" ">
<polygon fill="none" stroke="black" points="448.8,-291.5 448.8,-310.5 528.8,-310.5 528.8,-291.5 448.8,-291.5"/>
<text text-anchor="middle" x="488.8" y="-298.5" font-family="Helvetica,sans-Serif" font-size="10.00">occ/dft/grid.h</text>
</a>
</g>
</g>
<!-- Node1&#45;&gt;Node2 -->
<g id="edge1" class="edge">
<title>Node1&#45;&gt;Node2</title>
<path fill="none" stroke="midnightblue" d="M488.8,-347.5C488.8,-339.07 488.8,-329.24 488.8,-320.87"/>
<polygon fill="midnightblue" stroke="midnightblue" points="492.3,-320.65 488.8,-310.65 485.3,-320.65 492.3,-320.65"/>
</g>
<!-- Node8 -->
<g id="node8" class="node">
<title>Node8</title>
<g id="a_node8"><a xlink:href="shell_8h.html" target="_top" xlink:title=" ">
<polygon fill="none" stroke="black" points="217.3,-235.5 217.3,-254.5 304.3,-254.5 304.3,-235.5 217.3,-235.5"/>
<text text-anchor="middle" x="260.8" y="-242.5" font-family="Helvetica,sans-Serif" font-size="10.00">occ/qm/shell.h</text>
</a>
</g>
</g>
<!-- Node1&#45;&gt;Node8 -->
<g id="edge35" class="edge">
<title>Node1&#45;&gt;Node8</title>
<path fill="none" stroke="midnightblue" d="M451.92,-347.42C405.25,-322.66 326.11,-280.66 285.89,-259.31"/>
<polygon fill="midnightblue" stroke="midnightblue" points="287.47,-256.19 277,-254.6 284.19,-262.38 287.47,-256.19"/>
</g>
<!-- Node22 -->
<g id="node22" class="node">
<title>Node22</title>
<g id="a_node22"><a xlink:href="mo_8h.html" target="_top" xlink:title=" ">
<polygon fill="none" stroke="black" points="725.8,-291.5 725.8,-310.5 805.8,-310.5 805.8,-291.5 725.8,-291.5"/>
<text text-anchor="middle" x="765.8" y="-298.5" font-family="Helvetica,sans-Serif" font-size="10.00">occ/qm/mo.h</text>
</a>
</g>
</g>
<!-- Node1&#45;&gt;Node22 -->
<g id="edge29" class="edge">
<title>Node1&#45;&gt;Node22</title>
<path fill="none" stroke="midnightblue" d="M553.05,-351.92C604.01,-339.97 674.02,-323.54 719.58,-312.85"/>
<polygon fill="midnightblue" stroke="midnightblue" points="720.55,-316.21 729.48,-310.52 718.95,-309.4 720.55,-316.21"/>
</g>
<!-- Node3 -->
<g id="node3" class="node">
<title>Node3</title>
<g id="a_node3"><a xlink:href="linear__algebra_8h.html" target="_top" xlink:title=" ">
<polygon fill="none" stroke="black" points="241.3,-67.5 241.3,-86.5 380.3,-86.5 380.3,-67.5 241.3,-67.5"/>
<text text-anchor="middle" x="310.8" y="-74.5" font-family="Helvetica,sans-Serif" font-size="10.00">occ/core/linear_algebra.h</text>
</a>
</g>
</g>
<!-- Node2&#45;&gt;Node3 -->
<g id="edge2" class="edge">
<title>Node2&#45;&gt;Node3</title>
<path fill="none" stroke="midnightblue" d="M507.33,-291.33C534.64,-278.61 587.37,-254.33 632.8,-235 634.39,-234.33 861.84,-144.42 862.8,-143 867.79,-135.64 868.83,-129.54 862.8,-123 831.48,-89.02 535.86,-80.7 390.6,-78.66"/>
<polygon fill="midnightblue" stroke="midnightblue" points="390.45,-75.16 380.4,-78.52 390.36,-82.16 390.45,-75.16"/>
</g>
<!-- Node7 -->
<g id="node7" class="node">
<title>Node7</title>
<g id="a_node7"><a xlink:href="grid__settings_8h.html" target="_top" xlink:title=" ">
<polygon fill="none" stroke="black" points="641.8,-235.5 641.8,-254.5 761.8,-254.5 761.8,-235.5 641.8,-235.5"/>
<text text-anchor="middle" x="701.8" y="-242.5" font-family="Helvetica,sans-Serif" font-size="10.00">occ/io/grid_settings.h</text>
</a>
</g>
</g>
<!-- Node2&#45;&gt;Node7 -->
<g id="edge6" class="edge">
<title>Node2&#45;&gt;Node7</title>
<path fill="none" stroke="midnightblue" d="M522.55,-291.44C559.32,-282.12 618.25,-267.18 658.43,-257"/>
<polygon fill="midnightblue" stroke="midnightblue" points="659.38,-260.37 668.21,-254.52 657.66,-253.58 659.38,-260.37"/>
</g>
<!-- Node2&#45;&gt;Node8 -->
<g id="edge7" class="edge">
<title>Node2&#45;&gt;Node8</title>
<path fill="none" stroke="midnightblue" d="M452.68,-291.44C413.15,-282.08 349.71,-267.06 306.69,-256.87"/>
<polygon fill="midnightblue" stroke="midnightblue" points="307.3,-253.42 296.76,-254.52 305.69,-260.23 307.3,-253.42"/>
</g>
<!-- Node21 -->
<g id="node21" class="node">
<title>Node21</title>
<g id="a_node21"><a xlink:title=" ">
<polygon fill="none" stroke="#bfbfbf" points="230.3,-123.5 230.3,-142.5 277.3,-142.5 277.3,-123.5 230.3,-123.5"/>
<text text-anchor="middle" x="253.8" y="-130.5" font-family="Helvetica,sans-Serif" font-size="10.00">vector</text>
</a>
</g>
</g>
<!-- Node2&#45;&gt;Node21 -->
<g id="edge28" class="edge">
<title>Node2&#45;&gt;Node21</title>
<path fill="none" stroke="midnightblue" d="M481.34,-291.32C462.49,-269.83 410.74,-213.46 357.8,-179 335.74,-164.64 308.33,-153 287.19,-145.15"/>
<polygon fill="midnightblue" stroke="midnightblue" points="288.26,-141.82 277.66,-141.72 285.88,-148.4 288.26,-141.82"/>
</g>
<!-- Node4 -->
<g id="node4" class="node">
<title>Node4</title>
<g id="a_node4"><a xlink:title=" ">
<polygon fill="none" stroke="#bfbfbf" points="169.3,-6 169.3,-25 246.3,-25 246.3,-6 169.3,-6"/>
<text text-anchor="middle" x="207.8" y="-13" font-family="Helvetica,sans-Serif" font-size="10.00">Eigen/Dense</text>
</a>
</g>
</g>
<!-- Node3&#45;&gt;Node4 -->
<g id="edge3" class="edge">
<title>Node3&#45;&gt;Node4</title>
<path fill="none" stroke="midnightblue" d="M296.05,-67.48C279.14,-57.71 251.22,-41.58 231.31,-30.08"/>
<polygon fill="midnightblue" stroke="midnightblue" points="232.94,-26.98 222.53,-25.01 229.44,-33.04 232.94,-26.98"/>
</g>
<!-- Node5 -->
<g id="node5" class="node">
<title>Node5</title>
<g id="a_node5"><a xlink:title=" ">
<polygon fill="none" stroke="#bfbfbf" points="264.3,-6 264.3,-25 357.3,-25 357.3,-6 264.3,-6"/>
<text text-anchor="middle" x="310.8" y="-13" font-family="Helvetica,sans-Serif" font-size="10.00">Eigen/StdVector</text>
</a>
</g>
</g>
<!-- Node3&#45;&gt;Node5 -->
<g id="edge4" class="edge">
<title>Node3&#45;&gt;Node5</title>
<path fill="none" stroke="midnightblue" d="M310.8,-67.48C310.8,-59.08 310.8,-45.98 310.8,-35.16"/>
<polygon fill="midnightblue" stroke="midnightblue" points="314.3,-35.01 310.8,-25.01 307.3,-35.01 314.3,-35.01"/>
</g>
<!-- Node6 -->
<g id="node6" class="node">
<title>Node6</title>
<g id="a_node6"><a xlink:title=" ">
<polygon fill="none" stroke="#bfbfbf" points="375.3,-0.5 375.3,-30.5 482.3,-30.5 482.3,-0.5 375.3,-0.5"/>
<text text-anchor="start" x="383.3" y="-18.5" font-family="Helvetica,sans-Serif" font-size="10.00">occ/3rdparty/eigen</text>
<text text-anchor="middle" x="428.8" y="-7.5" font-family="Helvetica,sans-Serif" font-size="10.00">&#45;fmt/fmt.h</text>
</a>
</g>
</g>
<!-- Node3&#45;&gt;Node6 -->
<g id="edge5" class="edge">
<title>Node3&#45;&gt;Node6</title>
<path fill="none" stroke="midnightblue" d="M327.71,-67.48C344.36,-59.08 370.35,-45.97 391.81,-35.15"/>
<polygon fill="midnightblue" stroke="midnightblue" points="393.64,-38.15 400.99,-30.52 390.49,-31.9 393.64,-38.15"/>
</g>
<!-- Node8&#45;&gt;Node3 -->
<g id="edge12" class="edge">
<title>Node8&#45;&gt;Node3</title>
<path fill="none" stroke="midnightblue" d="M216.93,-239.62C160.46,-233.22 66.35,-219.79 38.8,-199 9.95,-177.22 -13.8,-150.39 9.8,-123 37.82,-90.49 151.49,-81.12 230.83,-78.61"/>
<polygon fill="midnightblue" stroke="midnightblue" points="231.4,-82.1 241.29,-78.31 231.2,-75.1 231.4,-82.1"/>
</g>
<!-- Node9 -->
<g id="node9" class="node">
<title>Node9</title>
<g id="a_node9"><a xlink:title=" ">
<polygon fill="none" stroke="#bfbfbf" points="18.8,-123.5 18.8,-142.5 60.8,-142.5 60.8,-123.5 18.8,-123.5"/>
<text text-anchor="middle" x="39.8" y="-130.5" font-family="Helvetica,sans-Serif" font-size="10.00">array</text>
</a>
</g>
</g>
<!-- Node8&#45;&gt;Node9 -->
<g id="edge8" class="edge">
<title>Node8&#45;&gt;Node9</title>
<path fill="none" stroke="midnightblue" d="M217.19,-240.03C163.41,-234.22 76.34,-221.58 53.8,-199 41.84,-187.01 38.99,-167.4 38.74,-152.85"/>
<polygon fill="midnightblue" stroke="midnightblue" points="42.24,-152.59 38.97,-142.51 35.25,-152.43 42.24,-152.59"/>
</g>
<!-- Node10 -->
<g id="node10" class="node">
<title>Node10</title>
<g id="a_node10"><a xlink:title=" ">
<polygon fill="none" stroke="#bfbfbf" points="288.8,-179.5 288.8,-198.5 348.8,-198.5 348.8,-179.5 288.8,-179.5"/>
<text text-anchor="middle" x="318.8" y="-186.5" font-family="Helvetica,sans-Serif" font-size="10.00">iostream</text>
</a>
</g>
</g>
<!-- Node8&#45;&gt;Node10 -->
<g id="edge9" class="edge">
<title>Node8&#45;&gt;Node10</title>
<path fill="none" stroke="midnightblue" d="M270.12,-235.32C278.7,-227.34 291.62,-215.31 301.99,-205.65"/>
<polygon fill="midnightblue" stroke="midnightblue" points="304.38,-208.21 309.32,-198.83 299.61,-203.09 304.38,-208.21"/>
</g>
<!-- Node11 -->
<g id="node11" class="node">
<title>Node11</title>
<g id="a_node11"><a xlink:href="atom_8h.html" target="_top" xlink:title=" ">
<polygon fill="none" stroke="black" points="117.3,-123.5 117.3,-142.5 212.3,-142.5 212.3,-123.5 117.3,-123.5"/>
<text text-anchor="middle" x="164.8" y="-130.5" font-family="Helvetica,sans-Serif" font-size="10.00">occ/core/atom.h</text>
</a>
</g>
</g>
<!-- Node8&#45;&gt;Node11 -->
<g id="edge10" class="edge">
<title>Node8&#45;&gt;Node11</title>
<path fill="none" stroke="midnightblue" d="M253.27,-235.37C237.29,-217.05 199.76,-174.05 179.08,-150.36"/>
<polygon fill="midnightblue" stroke="midnightblue" points="181.51,-147.82 172.3,-142.59 176.24,-152.43 181.51,-147.82"/>
</g>
<!-- Node12 -->
<g id="node12" class="node">
<title>Node12</title>
<g id="a_node12"><a xlink:href="point__charge_8h.html" target="_top" xlink:title=" ">
<polygon fill="none" stroke="black" points="62.8,-179.5 62.8,-198.5 194.8,-198.5 194.8,-179.5 62.8,-179.5"/>
<text text-anchor="middle" x="128.8" y="-186.5" font-family="Helvetica,sans-Serif" font-size="10.00">occ/core/point_charge.h</text>
</a>
</g>
</g>
<!-- Node8&#45;&gt;Node12 -->
<g id="edge13" class="edge">
<title>Node8&#45;&gt;Node12</title>
<path fill="none" stroke="midnightblue" d="M239.89,-235.44C218.07,-226.52 183.65,-212.44 158.91,-202.32"/>
<polygon fill="midnightblue" stroke="midnightblue" points="160.2,-199.06 149.62,-198.52 157.55,-205.54 160.2,-199.06"/>
</g>
<!-- Node13 -->
<g id="node13" class="node">
<title>Node13</title>
<g id="a_node13"><a xlink:href="util_8h.html" target="_top" xlink:title=" ">
<polygon fill="none" stroke="black" points="486.3,-179.5 486.3,-198.5 571.3,-198.5 571.3,-179.5 486.3,-179.5"/>
<text text-anchor="middle" x="528.8" y="-186.5" font-family="Helvetica,sans-Serif" font-size="10.00">occ/core/util.h</text>
</a>
</g>
</g>
<!-- Node8&#45;&gt;Node13 -->
<g id="edge17" class="edge">
<title>Node8&#45;&gt;Node13</title>
<path fill="none" stroke="midnightblue" d="M303.27,-235.44C350.22,-225.98 425.88,-210.74 476.46,-200.55"/>
<polygon fill="midnightblue" stroke="midnightblue" points="477.43,-203.92 486.54,-198.52 476.04,-197.06 477.43,-203.92"/>
</g>
<!-- Node8&#45;&gt;Node21 -->
<g id="edge27" class="edge">
<title>Node8&#45;&gt;Node21</title>
<path fill="none" stroke="midnightblue" d="M260.25,-235.37C259.12,-217.62 256.52,-176.67 254.99,-152.6"/>
<polygon fill="midnightblue" stroke="midnightblue" points="258.48,-152.35 254.35,-142.59 251.49,-152.79 258.48,-152.35"/>
</g>
<!-- Node11&#45;&gt;Node3 -->
<g id="edge11" class="edge">
<title>Node11&#45;&gt;Node3</title>
<path fill="none" stroke="midnightblue" d="M187.94,-123.44C212.29,-114.44 250.81,-100.19 278.23,-90.05"/>
<polygon fill="midnightblue" stroke="midnightblue" points="279.61,-93.27 287.78,-86.52 277.18,-86.7 279.61,-93.27"/>
</g>
<!-- Node12&#45;&gt;Node3 -->
<g id="edge16" class="edge">
<title>Node12&#45;&gt;Node3</title>
<path fill="none" stroke="midnightblue" d="M121.17,-179.07C110.61,-165.58 94.29,-139.83 107.8,-123 123.39,-103.58 181.16,-92.02 231.1,-85.49"/>
<polygon fill="midnightblue" stroke="midnightblue" points="231.81,-88.93 241.3,-84.21 230.94,-81.98 231.81,-88.93"/>
</g>
<!-- Node12&#45;&gt;Node9 -->
<g id="edge14" class="edge">
<title>Node12&#45;&gt;Node9</title>
<path fill="none" stroke="midnightblue" d="M114.5,-179.32C100.62,-170.9 79.31,-157.97 63,-148.07"/>
<polygon fill="midnightblue" stroke="midnightblue" points="64.43,-144.85 54.07,-142.65 60.8,-150.83 64.43,-144.85"/>
</g>
<!-- Node12&#45;&gt;Node11 -->
<g id="edge15" class="edge">
<title>Node12&#45;&gt;Node11</title>
<path fill="none" stroke="midnightblue" d="M134.75,-179.08C139.78,-171.53 147.14,-160.49 153.32,-151.23"/>
<polygon fill="midnightblue" stroke="midnightblue" points="156.33,-153.01 158.97,-142.75 150.51,-149.13 156.33,-153.01"/>
</g>
<!-- Node13&#45;&gt;Node3 -->
<g id="edge24" class="edge">
<title>Node13&#45;&gt;Node3</title>
<path fill="none" stroke="midnightblue" d="M518.91,-179.37C502.98,-165.82 470.23,-139.43 438.8,-123 411.44,-108.69 378.53,-97.24 352.94,-89.47"/>
<polygon fill="midnightblue" stroke="midnightblue" points="353.74,-86.05 343.16,-86.57 351.75,-92.76 353.74,-86.05"/>
</g>
<!-- Node14 -->
<g id="node14" class="node">
<title>Node14</title>
<g id="a_node14"><a xlink:title=" ">
<polygon fill="none" stroke="#bfbfbf" points="789.8,-123.5 789.8,-142.5 853.8,-142.5 853.8,-123.5 789.8,-123.5"/>
<text text-anchor="middle" x="821.8" y="-130.5" font-family="Helvetica,sans-Serif" font-size="10.00">algorithm</text>
</a>
</g>
</g>
<!-- Node13&#45;&gt;Node14 -->
<g id="edge18" class="edge">
<title>Node13&#45;&gt;Node14</title>
<path fill="none" stroke="midnightblue" d="M571.71,-180.87C619.87,-172.74 700.61,-158.78 779.49,-143.2"/>
<polygon fill="midnightblue" stroke="midnightblue" points="780.47,-146.57 789.6,-141.19 779.11,-139.71 780.47,-146.57"/>
</g>
<!-- Node15 -->
<g id="node15" class="node">
<title>Node15</title>
<g id="a_node15"><a xlink:title=" ">
<polygon fill="none" stroke="#bfbfbf" points="295.3,-123.5 295.3,-142.5 344.3,-142.5 344.3,-123.5 295.3,-123.5"/>
<text text-anchor="middle" x="319.8" y="-130.5" font-family="Helvetica,sans-Serif" font-size="10.00">cctype</text>
</a>
</g>
</g>
<!-- Node13&#45;&gt;Node15 -->
<g id="edge19" class="edge">
<title>Node13&#45;&gt;Node15</title>
<path fill="none" stroke="midnightblue" d="M494.69,-179.45C461.22,-171.02 408.45,-157.64 354.4,-143.4"/>
<polygon fill="midnightblue" stroke="midnightblue" points="355.22,-139.99 344.66,-140.82 353.43,-146.76 355.22,-139.99"/>
</g>
<!-- Node16 -->
<g id="node16" class="node">
<title>Node16</title>
<g id="a_node16"><a xlink:title=" ">
<polygon fill="none" stroke="#bfbfbf" points="362.3,-123.5 362.3,-142.5 429.3,-142.5 429.3,-123.5 362.3,-123.5"/>
<text text-anchor="middle" x="395.8" y="-130.5" font-family="Helvetica,sans-Serif" font-size="10.00">fmt/core.h</text>
</a>
</g>
</g>
<!-- Node13&#45;&gt;Node16 -->
<g id="edge20" class="edge">
<title>Node13&#45;&gt;Node16</title>
<path fill="none" stroke="midnightblue" d="M507.73,-179.44C485.74,-170.52 451.07,-156.44 426.14,-146.32"/>
<polygon fill="midnightblue" stroke="midnightblue" points="427.36,-143.04 416.78,-142.52 424.73,-149.52 427.36,-143.04"/>
</g>
<!-- Node17 -->
<g id="node17" class="node">
<title>Node17</title>
<g id="a_node17"><a xlink:title=" ">
<polygon fill="none" stroke="#bfbfbf" points="485.8,-123.5 485.8,-142.5 571.8,-142.5 571.8,-123.5 485.8,-123.5"/>
<text text-anchor="middle" x="528.8" y="-130.5" font-family="Helvetica,sans-Serif" font-size="10.00">fmt/ostream.h</text>
</a>
</g>
</g>
<!-- Node13&#45;&gt;Node17 -->
<g id="edge21" class="edge">
<title>Node13&#45;&gt;Node17</title>
<path fill="none" stroke="midnightblue" d="M528.8,-179.08C528.8,-172.01 528.8,-161.86 528.8,-152.99"/>
<polygon fill="midnightblue" stroke="midnightblue" points="532.3,-152.75 528.8,-142.75 525.3,-152.75 532.3,-152.75"/>
</g>
<!-- Node18 -->
<g id="node18" class="node">
<title>Node18</title>
<g id="a_node18"><a xlink:title=" ">
<polygon fill="none" stroke="#bfbfbf" points="589.8,-123.5 589.8,-142.5 635.8,-142.5 635.8,-123.5 589.8,-123.5"/>
<text text-anchor="middle" x="612.8" y="-130.5" font-family="Helvetica,sans-Serif" font-size="10.00">locale</text>
</a>
</g>
</g>
<!-- Node13&#45;&gt;Node18 -->
<g id="edge22" class="edge">
<title>Node13&#45;&gt;Node18</title>
<path fill="none" stroke="midnightblue" d="M542.3,-179.32C555.4,-170.9 575.52,-157.97 590.91,-148.07"/>
<polygon fill="midnightblue" stroke="midnightblue" points="592.82,-151.01 599.34,-142.65 589.04,-145.12 592.82,-151.01"/>
</g>
<!-- Node19 -->
<g id="node19" class="node">
<title>Node19</title>
<g id="a_node19"><a xlink:title=" ">
<polygon fill="none" stroke="#bfbfbf" points="653.8,-123.5 653.8,-142.5 709.8,-142.5 709.8,-123.5 653.8,-123.5"/>
<text text-anchor="middle" x="681.8" y="-130.5" font-family="Helvetica,sans-Serif" font-size="10.00">numeric</text>
</a>
</g>
</g>
<!-- Node13&#45;&gt;Node19 -->
<g id="edge23" class="edge">
<title>Node13&#45;&gt;Node19</title>
<path fill="none" stroke="midnightblue" d="M553.05,-179.44C578.67,-170.4 619.29,-156.06 648.04,-145.92"/>
<polygon fill="midnightblue" stroke="midnightblue" points="649.41,-149.15 657.67,-142.52 647.08,-142.54 649.41,-149.15"/>
</g>
<!-- Node20 -->
<g id="node20" class="node">
<title>Node20</title>
<g id="a_node20"><a xlink:title=" ">
<polygon fill="none" stroke="#bfbfbf" points="727.8,-123.5 727.8,-142.5 771.8,-142.5 771.8,-123.5 727.8,-123.5"/>
<text text-anchor="middle" x="749.8" y="-130.5" font-family="Helvetica,sans-Serif" font-size="10.00">string</text>
</a>
</g>
</g>
<!-- Node13&#45;&gt;Node20 -->
<g id="edge25" class="edge">
<title>Node13&#45;&gt;Node20</title>
<path fill="none" stroke="midnightblue" d="M567.52,-179.43C603.91,-171.24 660.11,-158.25 717.52,-143.25"/>
<polygon fill="midnightblue" stroke="midnightblue" points="718.71,-146.55 727.49,-140.62 716.93,-139.78 718.71,-146.55"/>
</g>
<!-- Node13&#45;&gt;Node21 -->
<g id="edge26" class="edge">
<title>Node13&#45;&gt;Node21</title>
<path fill="none" stroke="midnightblue" d="M485.98,-181.28C439.34,-173.7 362.35,-160.4 287.56,-143.26"/>
<polygon fill="midnightblue" stroke="midnightblue" points="288.04,-139.77 277.51,-140.93 286.46,-146.59 288.04,-139.77"/>
</g>
<!-- Node23 -->
<g id="node23" class="node">
<title>Node23</title>
<g id="a_node23"><a xlink:href="spinorbital_8h.html" target="_top" xlink:title=" ">
<polygon fill="none" stroke="black" points="779.8,-235.5 779.8,-254.5 895.8,-254.5 895.8,-235.5 779.8,-235.5"/>
<text text-anchor="middle" x="837.8" y="-242.5" font-family="Helvetica,sans-Serif" font-size="10.00">occ/qm/spinorbital.h</text>
</a>
</g>
</g>
<!-- Node22&#45;&gt;Node23 -->
<g id="edge30" class="edge">
<title>Node22&#45;&gt;Node23</title>
<path fill="none" stroke="midnightblue" d="M777.37,-291.32C788.22,-283.18 804.68,-270.84 817.69,-261.09"/>
<polygon fill="midnightblue" stroke="midnightblue" points="820.13,-263.63 826.03,-254.83 815.93,-258.03 820.13,-263.63"/>
</g>
<!-- Node23&#45;&gt;Node3 -->
<g id="edge31" class="edge">
<title>Node23&#45;&gt;Node3</title>
<path fill="none" stroke="midnightblue" d="M858.65,-235.43C873.38,-228.13 892.01,-216.09 900.8,-199 909.18,-182.71 911.91,-138.91 895.8,-123 860.63,-88.25 542.29,-80.33 390.55,-78.53"/>
<polygon fill="midnightblue" stroke="midnightblue" points="390.4,-75.02 380.36,-78.41 390.32,-82.02 390.4,-75.02"/>
</g>
<!-- Node23&#45;&gt;Node13 -->
<g id="edge32" class="edge">
<title>Node23&#45;&gt;Node13</title>
<path fill="none" stroke="midnightblue" d="M788.84,-235.44C732.33,-225.57 639.74,-209.39 581.64,-199.23"/>
<polygon fill="midnightblue" stroke="midnightblue" points="582.02,-195.75 571.57,-197.47 580.81,-202.64 582.02,-195.75"/>
</g>
<!-- Node24 -->
<g id="node24" class="node">
<title>Node24</title>
<g id="a_node24"><a xlink:href="qm_2opmatrix_8h.html" target="_top" xlink:title=" ">
<polygon fill="none" stroke="black" points="783.8,-179.5 783.8,-198.5 891.8,-198.5 891.8,-179.5 783.8,-179.5"/>
<text text-anchor="middle" x="837.8" y="-186.5" font-family="Helvetica,sans-Serif" font-size="10.00">occ/qm/opmatrix.h</text>
</a>
</g>
</g>
<!-- Node23&#45;&gt;Node24 -->
<g id="edge33" class="edge">
<title>Node23&#45;&gt;Node24</title>
<path fill="none" stroke="midnightblue" d="M832.64,-235.08C831.13,-227.93 830.7,-217.64 831.35,-208.69"/>
<polygon fill="midnightblue" stroke="midnightblue" points="834.82,-209.13 832.67,-198.75 827.88,-208.2 834.82,-209.13"/>
</g>
<!-- Node24&#45;&gt;Node23 -->
<g id="edge34" class="edge">
<title>Node24&#45;&gt;Node23</title>
<path fill="none" stroke="midnightblue" d="M842.93,-198.75C844.46,-205.86 844.91,-216.14 844.28,-225.1"/>
<polygon fill="midnightblue" stroke="midnightblue" points="840.8,-224.71 842.97,-235.08 847.74,-225.62 840.8,-224.71"/>
</g>
</g>
</svg>
