<?xml version="1.0" encoding="UTF-8" standalone="no"?>
<!DOCTYPE svg PUBLIC "-//W3C//DTD SVG 1.1//EN"
 "http://www.w3.org/Graphics/SVG/1.1/DTD/svg11.dtd">
<!-- Generated by graphviz version 2.43.0 (0)
 -->
<!-- Title: /home/runner/work/occ/occ/include/occ/dft/nonlocal_correlation.h Pages: 1 -->
<svg width="1148pt" height="386pt"
 viewBox="0.00 0.00 1147.57 386.00" xmlns="http://www.w3.org/2000/svg" xmlns:xlink="http://www.w3.org/1999/xlink">
<g id="graph0" class="graph" transform="scale(1 1) rotate(0) translate(4 382)">
<title>/home/runner/work/occ/occ/include/occ/dft/nonlocal_correlation.h</title>
<!-- Node1 -->
<g id="node1" class="node">
<title>Node1</title>
<g id="a_node1"><a xlink:title=" ">
<polygon fill="#bfbfbf" stroke="black" points="191.57,-336.5 191.57,-377.5 319.57,-377.5 319.57,-336.5 191.57,-336.5"/>
<text text-anchor="start" x="199.57" y="-365.5" font-family="Helvetica,sans-Serif" font-size="10.00">/home/runner/work/occ</text>
<text text-anchor="start" x="199.57" y="-354.5" font-family="Helvetica,sans-Serif" font-size="10.00">/occ/include/occ/dft</text>
<text text-anchor="middle" x="255.57" y="-343.5" font-family="Helvetica,sans-Serif" font-size="10.00">/nonlocal_correlation.h</text>
</a>
</g>
</g>
<!-- Node2 -->
<g id="node2" class="node">
<title>Node2</title>
<g id="a_node2"><a xlink:href="grid_8h.html" target="_top" xlink:title=" ">
<polygon fill="none" stroke="black" points="147.57,-280.5 147.57,-299.5 227.57,-299.5 227.57,-280.5 147.57,-280.5"/>
<text text-anchor="middle" x="187.57" y="-287.5" font-family="Helvetica,sans-Serif" font-size="10.00">occ/dft/grid.h</text>
</a>
</g>
</g>
<!-- Node1&#45;&gt;Node2 -->
<g id="edge1" class="edge">
<title>Node1&#45;&gt;Node2</title>
<path fill="none" stroke="midnightblue" d="M235.17,-336.5C225.24,-327.01 213.47,-315.76 204.11,-306.81"/>
<polygon fill="midnightblue" stroke="midnightblue" points="206.27,-304.03 196.62,-299.65 201.43,-309.09 206.27,-304.03"/>
</g>
<!-- Node8 -->
<g id="node8" class="node">
<title>Node8</title>
<g id="a_node8"><a xlink:href="shell_8h.html" target="_top" xlink:title=" ">
<polygon fill="none" stroke="black" points="178.07,-224.5 178.07,-243.5 265.07,-243.5 265.07,-224.5 178.07,-224.5"/>
<text text-anchor="middle" x="221.57" y="-231.5" font-family="Helvetica,sans-Serif" font-size="10.00">occ/qm/shell.h</text>
</a>
</g>
</g>
<!-- Node1&#45;&gt;Node8 -->
<g id="edge38" class="edge">
<title>Node1&#45;&gt;Node8</title>
<path fill="none" stroke="midnightblue" d="M251.06,-336.2C247.45,-320.8 242.09,-298.93 236.57,-280 233.98,-271.09 230.76,-261.31 227.97,-253.15"/>
<polygon fill="midnightblue" stroke="midnightblue" points="231.23,-251.86 224.64,-243.57 224.62,-254.16 231.23,-251.86"/>
</g>
<!-- Node22 -->
<g id="node22" class="node">
<title>Node22</title>
<g id="a_node22"><a xlink:href="mo_8h.html" target="_top" xlink:title=" ">
<polygon fill="none" stroke="black" points="870.57,-280.5 870.57,-299.5 950.57,-299.5 950.57,-280.5 870.57,-280.5"/>
<text text-anchor="middle" x="910.57" y="-287.5" font-family="Helvetica,sans-Serif" font-size="10.00">occ/qm/mo.h</text>
</a>
</g>
</g>
<!-- Node1&#45;&gt;Node22 -->
<g id="edge30" class="edge">
<title>Node1&#45;&gt;Node22</title>
<path fill="none" stroke="midnightblue" d="M319.87,-349.62C450.03,-336.7 742.32,-307.7 860.03,-296.02"/>
<polygon fill="midnightblue" stroke="midnightblue" points="860.59,-299.48 870.2,-295.01 859.9,-292.51 860.59,-299.48"/>
</g>
<!-- Node3 -->
<g id="node3" class="node">
<title>Node3</title>
<g id="a_node3"><a xlink:href="linear__algebra_8h.html" target="_top" xlink:title=" ">
<polygon fill="none" stroke="black" points="130.07,-56.5 130.07,-75.5 269.07,-75.5 269.07,-56.5 130.07,-56.5"/>
<text text-anchor="middle" x="199.57" y="-63.5" font-family="Helvetica,sans-Serif" font-size="10.00">occ/core/linear_algebra.h</text>
</a>
</g>
</g>
<!-- Node2&#45;&gt;Node3 -->
<g id="edge2" class="edge">
<title>Node2&#45;&gt;Node3</title>
<path fill="none" stroke="midnightblue" d="M147.31,-282.85C105.78,-275.62 45.1,-262.24 30.57,-244 -6.02,-198.06 -11.41,-158.41 24.57,-112 37.09,-95.85 82.18,-84.49 123.45,-77.22"/>
<polygon fill="midnightblue" stroke="midnightblue" points="124.29,-80.63 133.56,-75.5 123.12,-73.73 124.29,-80.63"/>
</g>
<!-- Node7 -->
<g id="node7" class="node">
<title>Node7</title>
<g id="a_node7"><a xlink:href="grid__settings_8h.html" target="_top" xlink:title=" ">
<polygon fill="none" stroke="black" points="39.57,-224.5 39.57,-243.5 159.57,-243.5 159.57,-224.5 39.57,-224.5"/>
<text text-anchor="middle" x="99.57" y="-231.5" font-family="Helvetica,sans-Serif" font-size="10.00">occ/io/grid_settings.h</text>
</a>
</g>
</g>
<!-- Node2&#45;&gt;Node7 -->
<g id="edge6" class="edge">
<title>Node2&#45;&gt;Node7</title>
<path fill="none" stroke="midnightblue" d="M173.43,-280.32C159.71,-271.9 138.64,-258.97 122.51,-249.07"/>
<polygon fill="midnightblue" stroke="midnightblue" points="124.03,-245.9 113.67,-243.65 120.37,-251.87 124.03,-245.9"/>
</g>
<!-- Node2&#45;&gt;Node8 -->
<g id="edge7" class="edge">
<title>Node2&#45;&gt;Node8</title>
<path fill="none" stroke="midnightblue" d="M193.19,-280.08C197.94,-272.53 204.89,-261.49 210.72,-252.23"/>
<polygon fill="midnightblue" stroke="midnightblue" points="213.7,-254.08 216.06,-243.75 207.77,-250.35 213.7,-254.08"/>
</g>
<!-- Node20 -->
<g id="node20" class="node">
<title>Node20</title>
<g id="a_node20"><a xlink:title=" ">
<polygon fill="none" stroke="#bfbfbf" points="831.07,-112.5 831.07,-131.5 878.07,-131.5 878.07,-112.5 831.07,-112.5"/>
<text text-anchor="middle" x="854.57" y="-119.5" font-family="Helvetica,sans-Serif" font-size="10.00">vector</text>
</a>
</g>
</g>
<!-- Node2&#45;&gt;Node20 -->
<g id="edge29" class="edge">
<title>Node2&#45;&gt;Node20</title>
<path fill="none" stroke="midnightblue" d="M227.71,-281.97C309.6,-267.28 501.52,-231.11 659.57,-188 717.56,-172.18 783.67,-149.04 822.1,-135.06"/>
<polygon fill="midnightblue" stroke="midnightblue" points="823.52,-138.26 831.71,-131.54 821.12,-131.69 823.52,-138.26"/>
</g>
<!-- Node4 -->
<g id="node4" class="node">
<title>Node4</title>
<g id="a_node4"><a xlink:title=" ">
<polygon fill="none" stroke="#bfbfbf" points="53.07,-0.5 53.07,-19.5 130.07,-19.5 130.07,-0.5 53.07,-0.5"/>
<text text-anchor="middle" x="91.57" y="-7.5" font-family="Helvetica,sans-Serif" font-size="10.00">Eigen/Dense</text>
</a>
</g>
</g>
<!-- Node3&#45;&gt;Node4 -->
<g id="edge3" class="edge">
<title>Node3&#45;&gt;Node4</title>
<path fill="none" stroke="midnightblue" d="M182.22,-56.32C164.9,-47.66 138.06,-34.24 118.07,-24.25"/>
<polygon fill="midnightblue" stroke="midnightblue" points="119.39,-21 108.88,-19.65 116.26,-27.26 119.39,-21"/>
</g>
<!-- Node5 -->
<g id="node5" class="node">
<title>Node5</title>
<g id="a_node5"><a xlink:title=" ">
<polygon fill="none" stroke="#bfbfbf" points="148.07,-0.5 148.07,-19.5 241.07,-19.5 241.07,-0.5 148.07,-0.5"/>
<text text-anchor="middle" x="194.57" y="-7.5" font-family="Helvetica,sans-Serif" font-size="10.00">Eigen/StdVector</text>
</a>
</g>
</g>
<!-- Node3&#45;&gt;Node5 -->
<g id="edge4" class="edge">
<title>Node3&#45;&gt;Node5</title>
<path fill="none" stroke="midnightblue" d="M198.75,-56.08C198.09,-49.01 197.15,-38.86 196.33,-29.99"/>
<polygon fill="midnightblue" stroke="midnightblue" points="199.79,-29.39 195.38,-19.75 192.82,-30.03 199.79,-29.39"/>
</g>
<!-- Node6 -->
<g id="node6" class="node">
<title>Node6</title>
<g id="a_node6"><a xlink:title=" ">
<polygon fill="none" stroke="#bfbfbf" points="259.57,-0.5 259.57,-19.5 345.57,-19.5 345.57,-0.5 259.57,-0.5"/>
<text text-anchor="middle" x="302.57" y="-7.5" font-family="Helvetica,sans-Serif" font-size="10.00">fmt/ostream.h</text>
</a>
</g>
</g>
<!-- Node3&#45;&gt;Node6 -->
<g id="edge5" class="edge">
<title>Node3&#45;&gt;Node6</title>
<path fill="none" stroke="midnightblue" d="M216.12,-56.32C232.56,-47.7 258.01,-34.36 277.04,-24.39"/>
<polygon fill="midnightblue" stroke="midnightblue" points="278.83,-27.4 286.06,-19.65 275.58,-21.2 278.83,-27.4"/>
</g>
<!-- Node8&#45;&gt;Node3 -->
<g id="edge12" class="edge">
<title>Node8&#45;&gt;Node3</title>
<path fill="none" stroke="midnightblue" d="M177.81,-225.38C135.39,-217.24 74.83,-203.42 56.57,-188 35.6,-170.3 36.49,-158.8 30.57,-132 28.65,-123.32 25.15,-119.05 30.57,-112 42.79,-96.1 87.41,-84.63 127.72,-77.24"/>
<polygon fill="midnightblue" stroke="midnightblue" points="128.35,-80.69 137.59,-75.5 127.13,-73.79 128.35,-80.69"/>
</g>
<!-- Node9 -->
<g id="node9" class="node">
<title>Node9</title>
<g id="a_node9"><a xlink:title=" ">
<polygon fill="none" stroke="#bfbfbf" points="39.57,-112.5 39.57,-131.5 81.57,-131.5 81.57,-112.5 39.57,-112.5"/>
<text text-anchor="middle" x="60.57" y="-119.5" font-family="Helvetica,sans-Serif" font-size="10.00">array</text>
</a>
</g>
</g>
<!-- Node8&#45;&gt;Node9 -->
<g id="edge8" class="edge">
<title>Node8&#45;&gt;Node9</title>
<path fill="none" stroke="midnightblue" d="M177.69,-225.6C137.69,-217.91 82.72,-204.68 68.57,-188 57.89,-175.41 56.75,-156.2 57.77,-141.92"/>
<polygon fill="midnightblue" stroke="midnightblue" points="61.27,-142.07 58.9,-131.75 54.31,-141.3 61.27,-142.07"/>
</g>
<!-- Node10 -->
<g id="node10" class="node">
<title>Node10</title>
<g id="a_node10"><a xlink:title=" ">
<polygon fill="none" stroke="#bfbfbf" points="77.57,-168.5 77.57,-187.5 137.57,-187.5 137.57,-168.5 77.57,-168.5"/>
<text text-anchor="middle" x="107.57" y="-175.5" font-family="Helvetica,sans-Serif" font-size="10.00">iostream</text>
</a>
</g>
</g>
<!-- Node8&#45;&gt;Node10 -->
<g id="edge9" class="edge">
<title>Node8&#45;&gt;Node10</title>
<path fill="none" stroke="midnightblue" d="M203.51,-224.44C185,-215.68 155.99,-201.94 134.72,-191.86"/>
<polygon fill="midnightblue" stroke="midnightblue" points="136.09,-188.63 125.55,-187.52 133.09,-194.96 136.09,-188.63"/>
</g>
<!-- Node11 -->
<g id="node11" class="node">
<title>Node11</title>
<g id="a_node11"><a xlink:href="atom_8h.html" target="_top" xlink:title=" ">
<polygon fill="none" stroke="black" points="100.07,-112.5 100.07,-131.5 195.07,-131.5 195.07,-112.5 100.07,-112.5"/>
<text text-anchor="middle" x="147.57" y="-119.5" font-family="Helvetica,sans-Serif" font-size="10.00">occ/core/atom.h</text>
</a>
</g>
</g>
<!-- Node8&#45;&gt;Node11 -->
<g id="edge10" class="edge">
<title>Node8&#45;&gt;Node11</title>
<path fill="none" stroke="midnightblue" d="M213.74,-224.39C205.91,-215.58 193.75,-201.33 184.57,-188 174.01,-172.66 163.67,-154.1 156.62,-140.75"/>
<polygon fill="midnightblue" stroke="midnightblue" points="159.63,-138.96 151.91,-131.69 153.42,-142.18 159.63,-138.96"/>
</g>
<!-- Node12 -->
<g id="node12" class="node">
<title>Node12</title>
<g id="a_node12"><a xlink:href="point__charge_8h.html" target="_top" xlink:title=" ">
<polygon fill="none" stroke="black" points="193.57,-168.5 193.57,-187.5 325.57,-187.5 325.57,-168.5 193.57,-168.5"/>
<text text-anchor="middle" x="259.57" y="-175.5" font-family="Helvetica,sans-Serif" font-size="10.00">occ/core/point_charge.h</text>
</a>
</g>
</g>
<!-- Node8&#45;&gt;Node12 -->
<g id="edge13" class="edge">
<title>Node8&#45;&gt;Node12</title>
<path fill="none" stroke="midnightblue" d="M227.85,-224.08C233.21,-216.46 241.09,-205.26 247.65,-195.94"/>
<polygon fill="midnightblue" stroke="midnightblue" points="250.52,-197.94 253.41,-187.75 244.8,-193.91 250.52,-197.94"/>
</g>
<!-- Node13 -->
<g id="node13" class="node">
<title>Node13</title>
<g id="a_node13"><a xlink:href="util_8h.html" target="_top" xlink:title=" ">
<polygon fill="none" stroke="black" points="506.07,-168.5 506.07,-187.5 591.07,-187.5 591.07,-168.5 506.07,-168.5"/>
<text text-anchor="middle" x="548.57" y="-175.5" font-family="Helvetica,sans-Serif" font-size="10.00">occ/core/util.h</text>
</a>
</g>
</g>
<!-- Node8&#45;&gt;Node13 -->
<g id="edge17" class="edge">
<title>Node8&#45;&gt;Node13</title>
<path fill="none" stroke="midnightblue" d="M265.33,-225.77C325.05,-215.91 431.94,-198.26 495.96,-187.69"/>
<polygon fill="midnightblue" stroke="midnightblue" points="496.55,-191.14 505.85,-186.06 495.41,-184.23 496.55,-191.14"/>
</g>
<!-- Node8&#45;&gt;Node20 -->
<g id="edge28" class="edge">
<title>Node8&#45;&gt;Node20</title>
<path fill="none" stroke="midnightblue" d="M265.21,-229.64C335.87,-223.79 479.51,-210.19 599.57,-188 680.1,-173.11 772.88,-147.21 821.27,-133.01"/>
<polygon fill="midnightblue" stroke="midnightblue" points="822.3,-136.35 830.9,-130.17 820.32,-129.64 822.3,-136.35"/>
</g>
<!-- Node11&#45;&gt;Node3 -->
<g id="edge11" class="edge">
<title>Node11&#45;&gt;Node3</title>
<path fill="none" stroke="midnightblue" d="M156.16,-112.08C163.73,-104.22 174.95,-92.57 184.09,-83.08"/>
<polygon fill="midnightblue" stroke="midnightblue" points="186.73,-85.38 191.14,-75.75 181.69,-80.53 186.73,-85.38"/>
</g>
<!-- Node12&#45;&gt;Node3 -->
<g id="edge16" class="edge">
<title>Node12&#45;&gt;Node3</title>
<path fill="none" stroke="midnightblue" d="M254.86,-168.37C245.05,-150.38 222.24,-108.55 209.19,-84.63"/>
<polygon fill="midnightblue" stroke="midnightblue" points="212.12,-82.69 204.26,-75.59 205.97,-86.05 212.12,-82.69"/>
</g>
<!-- Node12&#45;&gt;Node9 -->
<g id="edge14" class="edge">
<title>Node12&#45;&gt;Node9</title>
<path fill="none" stroke="midnightblue" d="M226.14,-168.43C193.99,-160.11 143.78,-146.93 91.61,-132.23"/>
<polygon fill="midnightblue" stroke="midnightblue" points="92.43,-128.83 81.85,-129.47 90.52,-135.56 92.43,-128.83"/>
</g>
<!-- Node12&#45;&gt;Node11 -->
<g id="edge15" class="edge">
<title>Node12&#45;&gt;Node11</title>
<path fill="none" stroke="midnightblue" d="M241.58,-168.32C223.53,-159.62 195.52,-146.12 174.77,-136.11"/>
<polygon fill="midnightblue" stroke="midnightblue" points="176.05,-132.84 165.52,-131.65 173.01,-139.15 176.05,-132.84"/>
</g>
<!-- Node13&#45;&gt;Node3 -->
<g id="edge24" class="edge">
<title>Node13&#45;&gt;Node3</title>
<path fill="none" stroke="midnightblue" d="M505.82,-175.86C452.28,-173.08 358.7,-163.64 285.57,-132 258.37,-120.23 231.9,-98.14 215.68,-83.01"/>
<polygon fill="midnightblue" stroke="midnightblue" points="217.82,-80.21 208.18,-75.82 212.98,-85.27 217.82,-80.21"/>
</g>
<!-- Node13&#45;&gt;Node6 -->
<g id="edge21" class="edge">
<title>Node13&#45;&gt;Node6</title>
<path fill="none" stroke="midnightblue" d="M505.93,-174.47C446.6,-170.03 343.58,-158.61 318.57,-132 292.54,-104.31 295.13,-56.02 299.02,-29.59"/>
<polygon fill="midnightblue" stroke="midnightblue" points="302.47,-30.17 300.68,-19.73 295.57,-29 302.47,-30.17"/>
</g>
<!-- Node14 -->
<g id="node14" class="node">
<title>Node14</title>
<g id="a_node14"><a xlink:title=" ">
<polygon fill="none" stroke="#bfbfbf" points="327.57,-112.5 327.57,-131.5 391.57,-131.5 391.57,-112.5 327.57,-112.5"/>
<text text-anchor="middle" x="359.57" y="-119.5" font-family="Helvetica,sans-Serif" font-size="10.00">algorithm</text>
</a>
</g>
</g>
<!-- Node13&#45;&gt;Node14 -->
<g id="edge18" class="edge">
<title>Node13&#45;&gt;Node14</title>
<path fill="none" stroke="midnightblue" d="M518.62,-168.44C486.41,-159.24 435.04,-144.56 399.43,-134.39"/>
<polygon fill="midnightblue" stroke="midnightblue" points="399.96,-130.9 389.38,-131.52 398.03,-137.63 399.96,-130.9"/>
</g>
<!-- Node15 -->
<g id="node15" class="node">
<title>Node15</title>
<g id="a_node15"><a xlink:title=" ">
<polygon fill="none" stroke="#bfbfbf" points="410.07,-112.5 410.07,-131.5 459.07,-131.5 459.07,-112.5 410.07,-112.5"/>
<text text-anchor="middle" x="434.57" y="-119.5" font-family="Helvetica,sans-Serif" font-size="10.00">cctype</text>
</a>
</g>
</g>
<!-- Node13&#45;&gt;Node15 -->
<g id="edge19" class="edge">
<title>Node13&#45;&gt;Node15</title>
<path fill="none" stroke="midnightblue" d="M530.51,-168.44C512,-159.68 482.99,-145.94 461.72,-135.86"/>
<polygon fill="midnightblue" stroke="midnightblue" points="463.09,-132.63 452.55,-131.52 460.09,-138.96 463.09,-132.63"/>
</g>
<!-- Node16 -->
<g id="node16" class="node">
<title>Node16</title>
<g id="a_node16"><a xlink:title=" ">
<polygon fill="none" stroke="#bfbfbf" points="477.07,-112.5 477.07,-131.5 544.07,-131.5 544.07,-112.5 477.07,-112.5"/>
<text text-anchor="middle" x="510.57" y="-119.5" font-family="Helvetica,sans-Serif" font-size="10.00">fmt/core.h</text>
</a>
</g>
</g>
<!-- Node13&#45;&gt;Node16 -->
<g id="edge20" class="edge">
<title>Node13&#45;&gt;Node16</title>
<path fill="none" stroke="midnightblue" d="M542.3,-168.08C536.93,-160.46 529.05,-149.26 522.49,-139.94"/>
<polygon fill="midnightblue" stroke="midnightblue" points="525.35,-137.91 516.73,-131.75 519.62,-141.94 525.35,-137.91"/>
</g>
<!-- Node17 -->
<g id="node17" class="node">
<title>Node17</title>
<g id="a_node17"><a xlink:title=" ">
<polygon fill="none" stroke="#bfbfbf" points="562.57,-112.5 562.57,-131.5 608.57,-131.5 608.57,-112.5 562.57,-112.5"/>
<text text-anchor="middle" x="585.57" y="-119.5" font-family="Helvetica,sans-Serif" font-size="10.00">locale</text>
</a>
</g>
</g>
<!-- Node13&#45;&gt;Node17 -->
<g id="edge22" class="edge">
<title>Node13&#45;&gt;Node17</title>
<path fill="none" stroke="midnightblue" d="M554.68,-168.08C559.85,-160.53 567.42,-149.49 573.77,-140.23"/>
<polygon fill="midnightblue" stroke="midnightblue" points="576.81,-141.98 579.58,-131.75 571.04,-138.02 576.81,-141.98"/>
</g>
<!-- Node18 -->
<g id="node18" class="node">
<title>Node18</title>
<g id="a_node18"><a xlink:title=" ">
<polygon fill="none" stroke="#bfbfbf" points="626.57,-112.5 626.57,-131.5 682.57,-131.5 682.57,-112.5 626.57,-112.5"/>
<text text-anchor="middle" x="654.57" y="-119.5" font-family="Helvetica,sans-Serif" font-size="10.00">numeric</text>
</a>
</g>
</g>
<!-- Node13&#45;&gt;Node18 -->
<g id="edge23" class="edge">
<title>Node13&#45;&gt;Node18</title>
<path fill="none" stroke="midnightblue" d="M565.6,-168.32C582.6,-159.66 608.95,-146.24 628.56,-136.25"/>
<polygon fill="midnightblue" stroke="midnightblue" points="630.26,-139.31 637.58,-131.65 627.08,-133.08 630.26,-139.31"/>
</g>
<!-- Node19 -->
<g id="node19" class="node">
<title>Node19</title>
<g id="a_node19"><a xlink:title=" ">
<polygon fill="none" stroke="#bfbfbf" points="700.57,-112.5 700.57,-131.5 744.57,-131.5 744.57,-112.5 700.57,-112.5"/>
<text text-anchor="middle" x="722.57" y="-119.5" font-family="Helvetica,sans-Serif" font-size="10.00">string</text>
</a>
</g>
</g>
<!-- Node13&#45;&gt;Node19 -->
<g id="edge25" class="edge">
<title>Node13&#45;&gt;Node19</title>
<path fill="none" stroke="midnightblue" d="M576.14,-168.44C607.32,-158.77 658,-143.04 690.81,-132.86"/>
<polygon fill="midnightblue" stroke="midnightblue" points="691.86,-136.2 700.37,-129.89 689.79,-129.51 691.86,-136.2"/>
</g>
<!-- Node13&#45;&gt;Node20 -->
<g id="edge26" class="edge">
<title>Node13&#45;&gt;Node20</title>
<path fill="none" stroke="midnightblue" d="M591.39,-171.33C643.41,-164.14 734,-150.63 821.08,-131.91"/>
<polygon fill="midnightblue" stroke="midnightblue" points="821.82,-135.33 830.85,-129.78 820.33,-128.49 821.82,-135.33"/>
</g>
<!-- Node21 -->
<g id="node21" class="node">
<title>Node21</title>
<g id="a_node21"><a xlink:title=" ">
<polygon fill="none" stroke="#bfbfbf" points="762.57,-112.5 762.57,-131.5 812.57,-131.5 812.57,-112.5 762.57,-112.5"/>
<text text-anchor="middle" x="787.57" y="-119.5" font-family="Helvetica,sans-Serif" font-size="10.00">chrono</text>
</a>
</g>
</g>
<!-- Node13&#45;&gt;Node21 -->
<g id="edge27" class="edge">
<title>Node13&#45;&gt;Node21</title>
<path fill="none" stroke="midnightblue" d="M589.92,-168.47C629.3,-160.22 690.48,-147.09 752.41,-132.21"/>
<polygon fill="midnightblue" stroke="midnightblue" points="753.45,-135.56 762.35,-129.8 751.81,-128.75 753.45,-135.56"/>
</g>
<!-- Node23 -->
<g id="node23" class="node">
<title>Node23</title>
<g id="a_node23"><a xlink:href="spinorbital_8h.html" target="_top" xlink:title=" ">
<polygon fill="none" stroke="black" points="852.57,-224.5 852.57,-243.5 968.57,-243.5 968.57,-224.5 852.57,-224.5"/>
<text text-anchor="middle" x="910.57" y="-231.5" font-family="Helvetica,sans-Serif" font-size="10.00">occ/qm/spinorbital.h</text>
</a>
</g>
</g>
<!-- Node22&#45;&gt;Node23 -->
<g id="edge31" class="edge">
<title>Node22&#45;&gt;Node23</title>
<path fill="none" stroke="midnightblue" d="M910.57,-280.08C910.57,-273.01 910.57,-262.86 910.57,-253.99"/>
<polygon fill="midnightblue" stroke="midnightblue" points="914.07,-253.75 910.57,-243.75 907.07,-253.75 914.07,-253.75"/>
</g>
<!-- Node25 -->
<g id="node25" class="node">
<title>Node25</title>
<g id="a_node25"><a xlink:href="orbital__smearing_8h.html" target="_top" xlink:title=" ">
<polygon fill="none" stroke="black" points="993.57,-224.5 993.57,-243.5 1139.57,-243.5 1139.57,-224.5 993.57,-224.5"/>
<text text-anchor="middle" x="1066.57" y="-231.5" font-family="Helvetica,sans-Serif" font-size="10.00">occ/qm/orbital_smearing.h</text>
</a>
</g>
</g>
<!-- Node22&#45;&gt;Node25 -->
<g id="edge36" class="edge">
<title>Node22&#45;&gt;Node25</title>
<path fill="none" stroke="midnightblue" d="M935.29,-280.44C961.42,-271.4 1002.83,-257.06 1032.15,-246.92"/>
<polygon fill="midnightblue" stroke="midnightblue" points="1033.66,-250.1 1041.97,-243.52 1031.37,-243.48 1033.66,-250.1"/>
</g>
<!-- Node23&#45;&gt;Node3 -->
<g id="edge32" class="edge">
<title>Node23&#45;&gt;Node3</title>
<path fill="none" stroke="midnightblue" d="M911.98,-224.29C915.07,-201.72 919.73,-141.1 886.57,-112 841.83,-72.75 450.83,-67.33 279.46,-66.87"/>
<polygon fill="midnightblue" stroke="midnightblue" points="279.25,-63.36 269.24,-66.84 279.23,-70.36 279.25,-63.36"/>
</g>
<!-- Node23&#45;&gt;Node13 -->
<g id="edge33" class="edge">
<title>Node23&#45;&gt;Node13</title>
<path fill="none" stroke="midnightblue" d="M853.21,-224.44C783.9,-214.1 668.26,-196.85 601.16,-186.85"/>
<polygon fill="midnightblue" stroke="midnightblue" points="601.63,-183.38 591.23,-185.36 600.6,-190.3 601.63,-183.38"/>
</g>
<!-- Node24 -->
<g id="node24" class="node">
<title>Node24</title>
<g id="a_node24"><a xlink:href="qm_2opmatrix_8h.html" target="_top" xlink:title=" ">
<polygon fill="none" stroke="black" points="934.57,-168.5 934.57,-187.5 1042.57,-187.5 1042.57,-168.5 934.57,-168.5"/>
<text text-anchor="middle" x="988.57" y="-175.5" font-family="Helvetica,sans-Serif" font-size="10.00">occ/qm/opmatrix.h</text>
</a>
</g>
</g>
<!-- Node23&#45;&gt;Node24 -->
<g id="edge34" class="edge">
<title>Node23&#45;&gt;Node24</title>
<path fill="none" stroke="midnightblue" d="M917.99,-224.32C928.33,-215.9 946.71,-202.97 962.23,-193.07"/>
<polygon fill="midnightblue" stroke="midnightblue" points="964.31,-195.9 970.96,-187.65 960.62,-189.96 964.31,-195.9"/>
</g>
<!-- Node24&#45;&gt;Node23 -->
<g id="edge35" class="edge">
<title>Node24&#45;&gt;Node23</title>
<path fill="none" stroke="midnightblue" d="M980.96,-187.83C970.58,-196.26 952.32,-209.1 936.9,-218.94"/>
<polygon fill="midnightblue" stroke="midnightblue" points="934.87,-216.07 928.22,-224.32 938.56,-222.02 934.87,-216.07"/>
</g>
<!-- Node25&#45;&gt;Node3 -->
<g id="edge37" class="edge">
<title>Node25&#45;&gt;Node3</title>
<path fill="none" stroke="midnightblue" d="M1066.98,-224.3C1067.15,-210.65 1065.5,-184.13 1051.57,-168 1006.97,-116.33 975.21,-126.78 908.57,-112 790.75,-85.86 438.72,-73.39 279.43,-68.96"/>
<polygon fill="midnightblue" stroke="midnightblue" points="279.32,-65.46 269.22,-68.68 279.12,-72.46 279.32,-65.46"/>
</g>
</g>
</svg>
