<?xml version="1.0" encoding="UTF-8" standalone="no"?>
<!DOCTYPE svg PUBLIC "-//W3C//DTD SVG 1.1//EN"
 "http://www.w3.org/Graphics/SVG/1.1/DTD/svg11.dtd">
<!-- Generated by graphviz version 2.43.0 (0)
 -->
<!-- Title: /home/runner/work/occ/occ/include/occ/dft/nonlocal_correlation.h Pages: 1 -->
<svg width="1094pt" height="379pt"
 viewBox="0.00 0.00 1093.90 379.00" xmlns="http://www.w3.org/2000/svg" xmlns:xlink="http://www.w3.org/1999/xlink">
<g id="graph0" class="graph" transform="scale(1 1) rotate(0) translate(4 375)">
<title>/home/runner/work/occ/occ/include/occ/dft/nonlocal_correlation.h</title>
<!-- Node1 -->
<g id="Node000001" class="node">
<title>Node1</title>
<g id="a_Node000001"><a xlink:title=" ">
<polygon fill="#999999" stroke="#666666" points="413.4,-371 285.4,-371 285.4,-330 413.4,-330 413.4,-371"/>
<text text-anchor="start" x="293.4" y="-359" font-family="Helvetica,sans-Serif" font-size="10.00">/home/runner/work/occ</text>
<text text-anchor="start" x="293.4" y="-348" font-family="Helvetica,sans-Serif" font-size="10.00">/occ/include/occ/dft</text>
<text text-anchor="middle" x="349.4" y="-337" font-family="Helvetica,sans-Serif" font-size="10.00">/nonlocal_correlation.h</text>
</a>
</g>
</g>
<!-- Node2 -->
<g id="Node000002" class="node">
<title>Node2</title>
<g id="a_Node000002"><a xlink:href="grid__types_8h.html" target="_top" xlink:title=" ">
<polygon fill="white" stroke="#666666" points="199.4,-239 65.4,-239 65.4,-220 199.4,-220 199.4,-239"/>
<text text-anchor="middle" x="132.4" y="-227" font-family="Helvetica,sans-Serif" font-size="10.00">occ/numint/grid_types.h</text>
</a>
</g>
</g>
<!-- Node1&#45;&gt;Node2 -->
<g id="edge1_Node000001_Node000002" class="edge">
<title>Node1&#45;&gt;Node2</title>
<g id="a_edge1_Node000001_Node000002"><a xlink:title=" ">
<path fill="none" stroke="#63b8ff" d="M313.56,-329.85C269.28,-305.57 195.12,-264.9 156.87,-243.92"/>
<polygon fill="#63b8ff" stroke="#63b8ff" points="158.41,-240.77 147.96,-239.03 155.04,-246.91 158.41,-240.77"/>
</a>
</g>
</g>
<!-- Node11 -->
<g id="Node000011" class="node">
<title>Node11</title>
<g id="a_Node000011"><a xlink:href="mo_8h.html" target="_top" xlink:title=" ">
<polygon fill="white" stroke="#666666" points="571.4,-294 491.4,-294 491.4,-275 571.4,-275 571.4,-294"/>
<text text-anchor="middle" x="531.4" y="-282" font-family="Helvetica,sans-Serif" font-size="10.00">occ/qm/mo.h</text>
</a>
</g>
</g>
<!-- Node1&#45;&gt;Node11 -->
<g id="edge10_Node000001_Node000011" class="edge">
<title>Node1&#45;&gt;Node11</title>
<g id="a_edge10_Node000001_Node000011"><a xlink:title=" ">
<path fill="none" stroke="#63b8ff" d="M404.99,-329.95C435.08,-319.37 471.28,-306.64 497.22,-297.52"/>
<polygon fill="#63b8ff" stroke="#63b8ff" points="498.69,-300.71 506.96,-294.09 496.37,-294.11 498.69,-300.71"/>
</a>
</g>
</g>
<!-- Node12 -->
<g id="Node000012" class="node">
<title>Node12</title>
<g id="a_Node000012"><a xlink:href="shell_8h.html" target="_top" xlink:title=" ">
<polygon fill="white" stroke="#666666" points="392.9,-239 305.9,-239 305.9,-220 392.9,-220 392.9,-239"/>
<text text-anchor="middle" x="349.4" y="-227" font-family="Helvetica,sans-Serif" font-size="10.00">occ/gto/shell.h</text>
</a>
</g>
</g>
<!-- Node1&#45;&gt;Node12 -->
<g id="edge41_Node000001_Node000012" class="edge">
<title>Node1&#45;&gt;Node12</title>
<g id="a_edge41_Node000001_Node000012"><a xlink:title=" ">
<path fill="none" stroke="#63b8ff" d="M349.4,-329.85C349.4,-307.48 349.4,-271.19 349.4,-249.21"/>
<polygon fill="#63b8ff" stroke="#63b8ff" points="352.9,-249.18 349.4,-239.18 345.9,-249.18 352.9,-249.18"/>
</a>
</g>
</g>
<!-- Node3 -->
<g id="Node000003" class="node">
<title>Node3</title>
<g id="a_Node000003"><a xlink:title=" ">
<polygon fill="#e0e0e0" stroke="#999999" points="66.4,-184 16.4,-184 16.4,-165 66.4,-165 66.4,-184"/>
<text text-anchor="middle" x="41.4" y="-172" font-family="Helvetica,sans-Serif" font-size="10.00">cstdint</text>
</a>
</g>
</g>
<!-- Node2&#45;&gt;Node3 -->
<g id="edge2_Node000002_Node000003" class="edge">
<title>Node2&#45;&gt;Node3</title>
<g id="a_edge2_Node000002_Node000003"><a xlink:title=" ">
<path fill="none" stroke="#63b8ff" d="M117.78,-219.98C103.53,-211.69 81.64,-198.94 64.95,-189.22"/>
<polygon fill="#63b8ff" stroke="#63b8ff" points="66.69,-186.18 56.28,-184.17 63.16,-192.23 66.69,-186.18"/>
</a>
</g>
</g>
<!-- Node4 -->
<g id="Node000004" class="node">
<title>Node4</title>
<g id="a_Node000004"><a xlink:href="linear__algebra_8h.html" target="_top" xlink:title=" ">
<polygon fill="white" stroke="#666666" points="430.9,-74 291.9,-74 291.9,-55 430.9,-55 430.9,-74"/>
<text text-anchor="middle" x="361.4" y="-62" font-family="Helvetica,sans-Serif" font-size="10.00">occ/core/linear_algebra.h</text>
</a>
</g>
</g>
<!-- Node2&#45;&gt;Node4 -->
<g id="edge3_Node000002_Node000004" class="edge">
<title>Node2&#45;&gt;Node4</title>
<g id="a_edge3_Node000002_Node000004"><a xlink:title=" ">
<path fill="none" stroke="#63b8ff" d="M134.21,-219.8C139.27,-197.83 155.63,-139.72 192.4,-110 217.52,-89.69 250.97,-78.58 281.49,-72.53"/>
<polygon fill="#63b8ff" stroke="#63b8ff" points="282.5,-75.9 291.71,-70.66 281.24,-69.01 282.5,-75.9"/>
</a>
</g>
</g>
<!-- Node7 -->
<g id="Node000007" class="node">
<title>Node7</title>
<g id="a_Node000007"><a xlink:href="grid__settings_8h.html" target="_top" xlink:title=" ">
<polygon fill="white" stroke="#666666" points="570.4,-184 424.4,-184 424.4,-165 570.4,-165 570.4,-184"/>
<text text-anchor="middle" x="497.4" y="-172" font-family="Helvetica,sans-Serif" font-size="10.00">occ/numint/grid_settings.h</text>
</a>
</g>
</g>
<!-- Node2&#45;&gt;Node7 -->
<g id="edge6_Node000002_Node000007" class="edge">
<title>Node2&#45;&gt;Node7</title>
<g id="a_edge6_Node000002_Node000007"><a xlink:title=" ">
<path fill="none" stroke="#63b8ff" d="M191.04,-219.98C255.73,-210.59 359.74,-195.49 428.32,-185.53"/>
<polygon fill="#63b8ff" stroke="#63b8ff" points="429.2,-188.94 438.6,-184.04 428.2,-182.01 429.2,-188.94"/>
</a>
</g>
</g>
<!-- Node10 -->
<g id="Node000010" class="node">
<title>Node10</title>
<g id="a_Node000010"><a xlink:title=" ">
<polygon fill="#e0e0e0" stroke="#999999" points="117.9,-74 70.9,-74 70.9,-55 117.9,-55 117.9,-74"/>
<text text-anchor="middle" x="94.4" y="-62" font-family="Helvetica,sans-Serif" font-size="10.00">vector</text>
</a>
</g>
</g>
<!-- Node2&#45;&gt;Node10 -->
<g id="edge9_Node000002_Node000010" class="edge">
<title>Node2&#45;&gt;Node10</title>
<g id="a_edge9_Node000002_Node000010"><a xlink:title=" ">
<path fill="none" stroke="#63b8ff" d="M65.16,-220.22C43.09,-213.95 20.81,-203.01 7.4,-184 -19.61,-145.71 36.86,-101.39 70.97,-79.39"/>
<polygon fill="#63b8ff" stroke="#63b8ff" points="72.89,-82.32 79.5,-74.04 69.17,-76.39 72.89,-82.32"/>
</a>
</g>
</g>
<!-- Node5 -->
<g id="Node000005" class="node">
<title>Node5</title>
<g id="a_Node000005"><a xlink:title=" ">
<polygon fill="#e0e0e0" stroke="#999999" points="345.9,-19 276.9,-19 276.9,0 345.9,0 345.9,-19"/>
<text text-anchor="middle" x="311.4" y="-7" font-family="Helvetica,sans-Serif" font-size="10.00">Eigen/Core</text>
</a>
</g>
</g>
<!-- Node4&#45;&gt;Node5 -->
<g id="edge4_Node000004_Node000005" class="edge">
<title>Node4&#45;&gt;Node5</title>
<g id="a_edge4_Node000004_Node000005"><a xlink:title=" ">
<path fill="none" stroke="#63b8ff" d="M353.14,-54.75C345.93,-47.11 335.29,-35.82 326.55,-26.56"/>
<polygon fill="#63b8ff" stroke="#63b8ff" points="328.91,-23.96 319.5,-19.09 323.82,-28.76 328.91,-23.96"/>
</a>
</g>
</g>
<!-- Node6 -->
<g id="Node000006" class="node">
<title>Node6</title>
<g id="a_Node000006"><a xlink:title=" ">
<polygon fill="#e0e0e0" stroke="#999999" points="456.9,-19 363.9,-19 363.9,0 456.9,0 456.9,-19"/>
<text text-anchor="middle" x="410.4" y="-7" font-family="Helvetica,sans-Serif" font-size="10.00">Eigen/StdVector</text>
</a>
</g>
</g>
<!-- Node4&#45;&gt;Node6 -->
<g id="edge5_Node000004_Node000006" class="edge">
<title>Node4&#45;&gt;Node6</title>
<g id="a_edge5_Node000004_Node000006"><a xlink:title=" ">
<path fill="none" stroke="#63b8ff" d="M369.49,-54.75C376.55,-47.11 386.98,-35.82 395.55,-26.56"/>
<polygon fill="#63b8ff" stroke="#63b8ff" points="398.24,-28.81 402.46,-19.09 393.1,-24.06 398.24,-28.81"/>
</a>
</g>
</g>
<!-- Node8 -->
<g id="Node000008" class="node">
<title>Node8</title>
<g id="a_Node000008"><a xlink:title=" ">
<polygon fill="#e0e0e0" stroke="#999999" points="370.4,-129 328.4,-129 328.4,-110 370.4,-110 370.4,-129"/>
<text text-anchor="middle" x="349.4" y="-117" font-family="Helvetica,sans-Serif" font-size="10.00">array</text>
</a>
</g>
</g>
<!-- Node7&#45;&gt;Node8 -->
<g id="edge7_Node000007_Node000008" class="edge">
<title>Node7&#45;&gt;Node8</title>
<g id="a_edge7_Node000007_Node000008"><a xlink:title=" ">
<path fill="none" stroke="#63b8ff" d="M473.62,-164.98C448.29,-155.92 408.11,-141.53 380.33,-131.58"/>
<polygon fill="#63b8ff" stroke="#63b8ff" points="381.31,-128.21 370.71,-128.13 378.95,-134.8 381.31,-128.21"/>
</a>
</g>
</g>
<!-- Node9 -->
<g id="Node000009" class="node">
<title>Node9</title>
<g id="a_Node000009"><a xlink:title=" ">
<polygon fill="#e0e0e0" stroke="#999999" points="604.4,-74 560.4,-74 560.4,-55 604.4,-55 604.4,-74"/>
<text text-anchor="middle" x="582.4" y="-62" font-family="Helvetica,sans-Serif" font-size="10.00">string</text>
</a>
</g>
</g>
<!-- Node7&#45;&gt;Node9 -->
<g id="edge8_Node000007_Node000009" class="edge">
<title>Node7&#45;&gt;Node9</title>
<g id="a_edge8_Node000007_Node000009"><a xlink:title=" ">
<path fill="none" stroke="#63b8ff" d="M507.63,-164.95C517.46,-156.43 532.41,-142.69 543.4,-129 555.01,-114.53 565.86,-96.34 573.14,-83.14"/>
<polygon fill="#63b8ff" stroke="#63b8ff" points="576.32,-84.63 577.98,-74.16 570.16,-81.31 576.32,-84.63"/>
</a>
</g>
</g>
<!-- Node11&#45;&gt;Node12 -->
<g id="edge11_Node000011_Node000012" class="edge">
<title>Node11&#45;&gt;Node12</title>
<g id="a_edge11_Node000011_Node000012"><a xlink:title=" ">
<path fill="none" stroke="#63b8ff" d="M502.16,-274.98C471.33,-266.01 422.62,-251.82 388.51,-241.89"/>
<polygon fill="#63b8ff" stroke="#63b8ff" points="389.45,-238.52 378.87,-239.08 387.49,-245.24 389.45,-238.52"/>
</a>
</g>
</g>
<!-- Node22 -->
<g id="Node000022" class="node">
<title>Node22</title>
<g id="a_Node000022"><a xlink:href="orbital__smearing_8h.html" target="_top" xlink:title=" ">
<polygon fill="white" stroke="#666666" points="534.4,-129 388.4,-129 388.4,-110 534.4,-110 534.4,-129"/>
<text text-anchor="middle" x="461.4" y="-117" font-family="Helvetica,sans-Serif" font-size="10.00">occ/qm/orbital_smearing.h</text>
</a>
</g>
</g>
<!-- Node11&#45;&gt;Node22 -->
<g id="edge31_Node000011_Node000022" class="edge">
<title>Node11&#45;&gt;Node22</title>
<g id="a_edge31_Node000011_Node000022"><a xlink:title=" ">
<path fill="none" stroke="#63b8ff" d="M540.31,-274.83C560.27,-254.34 604.9,-201.88 579.4,-165 568.31,-148.98 550.68,-138.71 532.38,-132.15"/>
<polygon fill="#63b8ff" stroke="#63b8ff" points="533.38,-128.79 522.79,-129.04 531.22,-135.45 533.38,-128.79"/>
</a>
</g>
</g>
<!-- Node23 -->
<g id="Node000023" class="node">
<title>Node23</title>
<g id="a_Node000023"><a xlink:href="qm_2spinorbital_8h.html" target="_top" xlink:title=" ">
<polygon fill="white" stroke="#666666" points="884.4,-239 768.4,-239 768.4,-220 884.4,-220 884.4,-239"/>
<text text-anchor="middle" x="826.4" y="-227" font-family="Helvetica,sans-Serif" font-size="10.00">occ/qm/spinorbital.h</text>
</a>
</g>
</g>
<!-- Node11&#45;&gt;Node23 -->
<g id="edge33_Node000011_Node000023" class="edge">
<title>Node11&#45;&gt;Node23</title>
<g id="a_edge33_Node000011_Node000023"><a xlink:title=" ">
<path fill="none" stroke="#63b8ff" d="M571.49,-276.3C622.46,-267.14 710.82,-251.27 768.95,-240.82"/>
<polygon fill="#63b8ff" stroke="#63b8ff" points="769.85,-244.22 779.07,-239 768.61,-237.33 769.85,-244.22"/>
</a>
</g>
</g>
<!-- Node12&#45;&gt;Node4 -->
<g id="edge16_Node000012_Node000004" class="edge">
<title>Node12&#45;&gt;Node4</title>
<g id="a_edge16_Node000012_Node000004"><a xlink:title=" ">
<path fill="none" stroke="#63b8ff" d="M305.76,-223.9C277.7,-218.69 242.5,-207.61 220.4,-184 197.46,-159.5 185.18,-136.79 205.4,-110 216.73,-94.99 258.7,-83.53 296.25,-76"/>
<polygon fill="#63b8ff" stroke="#63b8ff" points="297.04,-79.41 306.19,-74.07 295.71,-72.54 297.04,-79.41"/>
</a>
</g>
</g>
<!-- Node12&#45;&gt;Node8 -->
<g id="edge12_Node000012_Node000008" class="edge">
<title>Node12&#45;&gt;Node8</title>
<g id="a_edge12_Node000012_Node000008"><a xlink:title=" ">
<path fill="none" stroke="#63b8ff" d="M357.61,-219.74C367.84,-207.75 383.27,-185.37 377.4,-165 374.53,-155.06 368.71,-145.2 363.12,-137.29"/>
<polygon fill="#63b8ff" stroke="#63b8ff" points="365.9,-135.16 357.07,-129.3 360.31,-139.39 365.9,-135.16"/>
</a>
</g>
</g>
<!-- Node12&#45;&gt;Node10 -->
<g id="edge30_Node000012_Node000010" class="edge">
<title>Node12&#45;&gt;Node10</title>
<g id="a_edge30_Node000012_Node000010"><a xlink:title=" ">
<path fill="none" stroke="#63b8ff" d="M305.65,-221.81C274.72,-215.59 233.25,-204.16 201.4,-184 158.82,-157.06 122.76,-108.63 105.43,-82.81"/>
<polygon fill="#63b8ff" stroke="#63b8ff" points="108.14,-80.56 99.73,-74.12 102.28,-84.4 108.14,-80.56"/>
</a>
</g>
</g>
<!-- Node13 -->
<g id="Node000013" class="node">
<title>Node13</title>
<g id="a_Node000013"><a xlink:title=" ">
<polygon fill="#e0e0e0" stroke="#999999" points="689.9,-74 622.9,-74 622.9,-55 689.9,-55 689.9,-74"/>
<text text-anchor="middle" x="656.4" y="-62" font-family="Helvetica,sans-Serif" font-size="10.00">fmt/core.h</text>
</a>
</g>
</g>
<!-- Node12&#45;&gt;Node13 -->
<g id="edge13_Node000012_Node000013" class="edge">
<title>Node12&#45;&gt;Node13</title>
<g id="a_edge13_Node000012_Node000013"><a xlink:title=" ">
<path fill="none" stroke="#63b8ff" d="M393.06,-224.15C451.02,-217.68 549.54,-204.11 579.4,-184 616.24,-159.18 639.48,-110.2 649.94,-83.64"/>
<polygon fill="#63b8ff" stroke="#63b8ff" points="653.29,-84.66 653.53,-74.06 646.74,-82.2 653.29,-84.66"/>
</a>
</g>
</g>
<!-- Node14 -->
<g id="Node000014" class="node">
<title>Node14</title>
<g id="a_Node000014"><a xlink:href="atom_8h.html" target="_top" xlink:title=" ">
<polygon fill="white" stroke="#666666" points="309.9,-129 214.9,-129 214.9,-110 309.9,-110 309.9,-129"/>
<text text-anchor="middle" x="262.4" y="-117" font-family="Helvetica,sans-Serif" font-size="10.00">occ/core/atom.h</text>
</a>
</g>
</g>
<!-- Node12&#45;&gt;Node14 -->
<g id="edge14_Node000012_Node000014" class="edge">
<title>Node12&#45;&gt;Node14</title>
<g id="a_edge14_Node000012_Node000014"><a xlink:title=" ">
<path fill="none" stroke="#63b8ff" d="M305.7,-224.89C278.31,-220.11 244.97,-209.12 227.4,-184 216.54,-168.48 230.54,-149.27 243.92,-136.06"/>
<polygon fill="#63b8ff" stroke="#63b8ff" points="246.55,-138.4 251.54,-129.06 241.81,-133.25 246.55,-138.4"/>
</a>
</g>
</g>
<!-- Node15 -->
<g id="Node000015" class="node">
<title>Node15</title>
<g id="a_Node000015"><a xlink:href="point__charge_8h.html" target="_top" xlink:title=" ">
<polygon fill="white" stroke="#666666" points="368.4,-184 236.4,-184 236.4,-165 368.4,-165 368.4,-184"/>
<text text-anchor="middle" x="302.4" y="-172" font-family="Helvetica,sans-Serif" font-size="10.00">occ/core/point_charge.h</text>
</a>
</g>
</g>
<!-- Node12&#45;&gt;Node15 -->
<g id="edge17_Node000012_Node000015" class="edge">
<title>Node12&#45;&gt;Node15</title>
<g id="a_edge17_Node000012_Node000015"><a xlink:title=" ">
<path fill="none" stroke="#63b8ff" d="M341.64,-219.75C334.93,-212.18 325.06,-201.05 316.89,-191.84"/>
<polygon fill="#63b8ff" stroke="#63b8ff" points="319.27,-189.25 310.01,-184.09 314.03,-193.89 319.27,-189.25"/>
</a>
</g>
</g>
<!-- Node16 -->
<g id="Node000016" class="node">
<title>Node16</title>
<g id="a_Node000016"><a xlink:href="util_8h.html" target="_top" xlink:title=" ">
<polygon fill="white" stroke="#666666" points="833.9,-129 748.9,-129 748.9,-110 833.9,-110 833.9,-129"/>
<text text-anchor="middle" x="791.4" y="-117" font-family="Helvetica,sans-Serif" font-size="10.00">occ/core/util.h</text>
</a>
</g>
</g>
<!-- Node12&#45;&gt;Node16 -->
<g id="edge20_Node000012_Node000016" class="edge">
<title>Node12&#45;&gt;Node16</title>
<g id="a_edge20_Node000012_Node000016"><a xlink:title=" ">
<path fill="none" stroke="#63b8ff" d="M392.98,-227.77C506.4,-225.42 804,-216.22 833.4,-184 847.13,-168.95 829.1,-149 812.58,-135.51"/>
<polygon fill="#63b8ff" stroke="#63b8ff" points="814.31,-132.43 804.25,-129.11 810.04,-137.98 814.31,-132.43"/>
</a>
</g>
</g>
<!-- Node14&#45;&gt;Node4 -->
<g id="edge15_Node000014_Node000004" class="edge">
<title>Node14&#45;&gt;Node4</title>
<g id="a_edge15_Node000014_Node000004"><a xlink:title=" ">
<path fill="none" stroke="#63b8ff" d="M278.3,-109.98C293.94,-101.61 318.05,-88.7 336.28,-78.95"/>
<polygon fill="#63b8ff" stroke="#63b8ff" points="338.04,-81.98 345.2,-74.17 334.73,-75.8 338.04,-81.98"/>
</a>
</g>
</g>
<!-- Node15&#45;&gt;Node8 -->
<g id="edge18_Node000015_Node000008" class="edge">
<title>Node15&#45;&gt;Node8</title>
<g id="a_edge18_Node000015_Node000008"><a xlink:title=" ">
<path fill="none" stroke="#63b8ff" d="M310.16,-164.75C316.86,-157.18 326.74,-146.05 334.9,-136.84"/>
<polygon fill="#63b8ff" stroke="#63b8ff" points="337.76,-138.89 341.78,-129.09 332.53,-134.25 337.76,-138.89"/>
</a>
</g>
</g>
<!-- Node15&#45;&gt;Node14 -->
<g id="edge19_Node000015_Node000014" class="edge">
<title>Node15&#45;&gt;Node14</title>
<g id="a_edge19_Node000015_Node000014"><a xlink:title=" ">
<path fill="none" stroke="#63b8ff" d="M295.79,-164.75C290.14,-157.26 281.85,-146.28 274.95,-137.13"/>
<polygon fill="#63b8ff" stroke="#63b8ff" points="277.7,-134.96 268.88,-129.09 272.11,-139.18 277.7,-134.96"/>
</a>
</g>
</g>
<!-- Node16&#45;&gt;Node4 -->
<g id="edge27_Node000016_Node000004" class="edge">
<title>Node16&#45;&gt;Node4</title>
<g id="a_edge27_Node000016_Node000004"><a xlink:title=" ">
<path fill="none" stroke="#63b8ff" d="M748.59,-113.22C676.83,-104.38 531.19,-86.43 440.41,-75.24"/>
<polygon fill="#63b8ff" stroke="#63b8ff" points="440.8,-71.76 430.44,-74.01 439.94,-78.71 440.8,-71.76"/>
</a>
</g>
</g>
<!-- Node16&#45;&gt;Node9 -->
<g id="edge28_Node000016_Node000009" class="edge">
<title>Node16&#45;&gt;Node9</title>
<g id="a_edge28_Node000016_Node000009"><a xlink:title=" ">
<path fill="none" stroke="#63b8ff" d="M756.77,-109.94C721.06,-101.08 663.79,-86.77 614.4,-74 614.3,-73.97 614.19,-73.95 614.09,-73.92"/>
<polygon fill="#63b8ff" stroke="#63b8ff" points="614.98,-70.54 604.42,-71.39 613.21,-77.31 614.98,-70.54"/>
</a>
</g>
</g>
<!-- Node16&#45;&gt;Node10 -->
<g id="edge29_Node000016_Node000010" class="edge">
<title>Node16&#45;&gt;Node10</title>
<g id="a_edge29_Node000016_Node000010"><a xlink:title=" ">
<path fill="none" stroke="#63b8ff" d="M748.85,-115.26C621.16,-105.55 243.01,-76.8 127.97,-68.05"/>
<polygon fill="#63b8ff" stroke="#63b8ff" points="128.22,-64.56 117.99,-67.29 127.69,-71.54 128.22,-64.56"/>
</a>
</g>
</g>
<!-- Node16&#45;&gt;Node13 -->
<g id="edge24_Node000016_Node000013" class="edge">
<title>Node16&#45;&gt;Node13</title>
<g id="a_edge24_Node000016_Node000013"><a xlink:title=" ">
<path fill="none" stroke="#63b8ff" d="M769.71,-109.98C747.6,-101.3 713.07,-87.75 687.94,-77.88"/>
<polygon fill="#63b8ff" stroke="#63b8ff" points="689.07,-74.57 678.48,-74.17 686.51,-81.08 689.07,-74.57"/>
</a>
</g>
</g>
<!-- Node17 -->
<g id="Node000017" class="node">
<title>Node17</title>
<g id="a_Node000017"><a xlink:title=" ">
<polygon fill="#e0e0e0" stroke="#999999" points="1018.4,-74 954.4,-74 954.4,-55 1018.4,-55 1018.4,-74"/>
<text text-anchor="middle" x="986.4" y="-62" font-family="Helvetica,sans-Serif" font-size="10.00">algorithm</text>
</a>
</g>
</g>
<!-- Node16&#45;&gt;Node17 -->
<g id="edge21_Node000016_Node000017" class="edge">
<title>Node16&#45;&gt;Node17</title>
<g id="a_edge21_Node000016_Node000017"><a xlink:title=" ">
<path fill="none" stroke="#63b8ff" d="M822.73,-109.98C855.89,-100.97 908.39,-86.7 944.96,-76.76"/>
<polygon fill="#63b8ff" stroke="#63b8ff" points="946.09,-80.08 954.82,-74.08 944.25,-73.33 946.09,-80.08"/>
</a>
</g>
</g>
<!-- Node18 -->
<g id="Node000018" class="node">
<title>Node18</title>
<g id="a_Node000018"><a xlink:title=" ">
<polygon fill="#e0e0e0" stroke="#999999" points="1085.9,-74 1036.9,-74 1036.9,-55 1085.9,-55 1085.9,-74"/>
<text text-anchor="middle" x="1061.4" y="-62" font-family="Helvetica,sans-Serif" font-size="10.00">cctype</text>
</a>
</g>
</g>
<!-- Node16&#45;&gt;Node18 -->
<g id="edge22_Node000016_Node000018" class="edge">
<title>Node16&#45;&gt;Node18</title>
<g id="a_edge22_Node000016_Node000018"><a xlink:title=" ">
<path fill="none" stroke="#63b8ff" d="M834.18,-111.21C879.54,-103.31 953.5,-89.93 1026.7,-74.04"/>
<polygon fill="#63b8ff" stroke="#63b8ff" points="1027.53,-77.45 1036.55,-71.89 1026.04,-70.61 1027.53,-77.45"/>
</a>
</g>
</g>
<!-- Node19 -->
<g id="Node000019" class="node">
<title>Node19</title>
<g id="a_Node000019"><a xlink:title=" ">
<polygon fill="#e0e0e0" stroke="#999999" points="758.4,-74 708.4,-74 708.4,-55 758.4,-55 758.4,-74"/>
<text text-anchor="middle" x="733.4" y="-62" font-family="Helvetica,sans-Serif" font-size="10.00">chrono</text>
</a>
</g>
</g>
<!-- Node16&#45;&gt;Node19 -->
<g id="edge23_Node000016_Node000019" class="edge">
<title>Node16&#45;&gt;Node19</title>
<g id="a_edge23_Node000016_Node000019"><a xlink:title=" ">
<path fill="none" stroke="#63b8ff" d="M782.08,-109.98C773.59,-102.23 760.84,-90.58 750.51,-81.14"/>
<polygon fill="#63b8ff" stroke="#63b8ff" points="752.63,-78.33 742.88,-74.17 747.91,-83.5 752.63,-78.33"/>
</a>
</g>
</g>
<!-- Node20 -->
<g id="Node000020" class="node">
<title>Node20</title>
<g id="a_Node000020"><a xlink:title=" ">
<polygon fill="#e0e0e0" stroke="#999999" points="862.4,-74 776.4,-74 776.4,-55 862.4,-55 862.4,-74"/>
<text text-anchor="middle" x="819.4" y="-62" font-family="Helvetica,sans-Serif" font-size="10.00">fmt/ostream.h</text>
</a>
</g>
</g>
<!-- Node16&#45;&gt;Node20 -->
<g id="edge25_Node000016_Node000020" class="edge">
<title>Node16&#45;&gt;Node20</title>
<g id="a_edge25_Node000016_Node000020"><a xlink:title=" ">
<path fill="none" stroke="#63b8ff" d="M796.02,-109.75C799.85,-102.49 805.42,-91.95 810.16,-82.98"/>
<polygon fill="#63b8ff" stroke="#63b8ff" points="813.28,-84.57 814.86,-74.09 807.09,-81.3 813.28,-84.57"/>
</a>
</g>
</g>
<!-- Node21 -->
<g id="Node000021" class="node">
<title>Node21</title>
<g id="a_Node000021"><a xlink:title=" ">
<polygon fill="#e0e0e0" stroke="#999999" points="936.4,-74 880.4,-74 880.4,-55 936.4,-55 936.4,-74"/>
<text text-anchor="middle" x="908.4" y="-62" font-family="Helvetica,sans-Serif" font-size="10.00">numeric</text>
</a>
</g>
</g>
<!-- Node16&#45;&gt;Node21 -->
<g id="edge26_Node000016_Node000021" class="edge">
<title>Node16&#45;&gt;Node21</title>
<g id="a_edge26_Node000016_Node000021"><a xlink:title=" ">
<path fill="none" stroke="#63b8ff" d="M810.19,-109.98C829.02,-101.46 858.22,-88.23 879.89,-78.41"/>
<polygon fill="#63b8ff" stroke="#63b8ff" points="881.59,-81.48 889.26,-74.17 878.7,-75.11 881.59,-81.48"/>
</a>
</g>
</g>
<!-- Node22&#45;&gt;Node4 -->
<g id="edge32_Node000022_Node000004" class="edge">
<title>Node22&#45;&gt;Node4</title>
<g id="a_edge32_Node000022_Node000004"><a xlink:title=" ">
<path fill="none" stroke="#63b8ff" d="M445.33,-109.98C429.53,-101.61 405.18,-88.7 386.77,-78.95"/>
<polygon fill="#63b8ff" stroke="#63b8ff" points="388.23,-75.76 377.76,-74.17 384.95,-81.95 388.23,-75.76"/>
</a>
</g>
</g>
<!-- Node23&#45;&gt;Node4 -->
<g id="edge34_Node000023_Node000004" class="edge">
<title>Node23&#45;&gt;Node4</title>
<g id="a_edge34_Node000023_Node000004"><a xlink:title=" ">
<path fill="none" stroke="#63b8ff" d="M797.42,-219.93C770.4,-211.66 729.17,-198.31 694.4,-184 625.28,-155.56 613.66,-135.47 543.4,-110 502.45,-95.16 454.54,-83.67 418.16,-76.08"/>
<polygon fill="#63b8ff" stroke="#63b8ff" points="418.71,-72.62 408.22,-74.05 417.31,-79.48 418.71,-72.62"/>
</a>
</g>
</g>
<!-- Node23&#45;&gt;Node16 -->
<g id="edge38_Node000023_Node000016" class="edge">
<title>Node23&#45;&gt;Node16</title>
<g id="a_edge38_Node000023_Node000016"><a xlink:title=" ">
<path fill="none" stroke="#63b8ff" d="M838.73,-219.82C854.32,-207.72 877.81,-185.04 866.4,-165 858.1,-150.43 842.95,-140.14 828.42,-133.15"/>
<polygon fill="#63b8ff" stroke="#63b8ff" points="829.61,-129.85 819.04,-129.02 826.79,-136.25 829.61,-129.85"/>
</a>
</g>
</g>
<!-- Node24 -->
<g id="Node000024" class="node">
<title>Node24</title>
<g id="a_Node000024"><a xlink:href="core_2spinorbital_8h.html" target="_top" xlink:title=" ">
<polygon fill="white" stroke="#666666" points="823.9,-184 702.9,-184 702.9,-165 823.9,-165 823.9,-184"/>
<text text-anchor="middle" x="763.4" y="-172" font-family="Helvetica,sans-Serif" font-size="10.00">occ/core/spinorbital.h</text>
</a>
</g>
</g>
<!-- Node23&#45;&gt;Node24 -->
<g id="edge35_Node000023_Node000024" class="edge">
<title>Node23&#45;&gt;Node24</title>
<g id="a_edge35_Node000023_Node000024"><a xlink:title=" ">
<path fill="none" stroke="#63b8ff" d="M816.27,-219.98C806.96,-212.15 792.93,-200.34 781.66,-190.86"/>
<polygon fill="#63b8ff" stroke="#63b8ff" points="783.61,-187.93 773.7,-184.17 779.1,-193.29 783.61,-187.93"/>
</a>
</g>
</g>
<!-- Node25 -->
<g id="Node000025" class="node">
<title>Node25</title>
<g id="a_Node000025"><a xlink:href="qm_2opmatrix_8h.html" target="_top" xlink:title=" ">
<polygon fill="white" stroke="#666666" points="1026.4,-184 918.4,-184 918.4,-165 1026.4,-165 1026.4,-184"/>
<text text-anchor="middle" x="972.4" y="-172" font-family="Helvetica,sans-Serif" font-size="10.00">occ/qm/opmatrix.h</text>
</a>
</g>
</g>
<!-- Node23&#45;&gt;Node25 -->
<g id="edge39_Node000023_Node000025" class="edge">
<title>Node23&#45;&gt;Node25</title>
<g id="a_edge39_Node000023_Node000025"><a xlink:title=" ">
<path fill="none" stroke="#63b8ff" d="M844.74,-219.98C867.09,-211.16 905.05,-197.31 933.86,-187.41"/>
<polygon fill="#63b8ff" stroke="#63b8ff" points="935.29,-190.62 943.63,-184.08 933.03,-183.99 935.29,-190.62"/>
</a>
</g>
</g>
<!-- Node24&#45;&gt;Node9 -->
<g id="edge37_Node000024_Node000009" class="edge">
<title>Node24&#45;&gt;Node9</title>
<g id="a_edge37_Node000024_Node000009"><a xlink:title=" ">
<path fill="none" stroke="#63b8ff" d="M748.89,-164.84C717.57,-146.16 643.39,-101.9 605.52,-79.3"/>
<polygon fill="#63b8ff" stroke="#63b8ff" points="607.1,-76.17 596.72,-74.05 603.51,-82.18 607.1,-76.17"/>
</a>
</g>
</g>
<!-- Node24&#45;&gt;Node16 -->
<g id="edge36_Node000024_Node000016" class="edge">
<title>Node24&#45;&gt;Node16</title>
<g id="a_edge36_Node000024_Node000016"><a xlink:title=" ">
<path fill="none" stroke="#63b8ff" d="M768.02,-164.75C771.85,-157.49 777.42,-146.95 782.16,-137.98"/>
<polygon fill="#63b8ff" stroke="#63b8ff" points="785.28,-139.57 786.86,-129.09 779.09,-136.3 785.28,-139.57"/>
</a>
</g>
</g>
<!-- Node25&#45;&gt;Node23 -->
<g id="edge40_Node000025_Node000023" class="edge">
<title>Node25&#45;&gt;Node23</title>
<g id="a_edge40_Node000025_Node000023"><a xlink:title=" ">
<path fill="none" stroke="#63b8ff" d="M953.66,-184.17C931.19,-193.02 893.36,-206.83 864.69,-216.68"/>
<polygon fill="#63b8ff" stroke="#63b8ff" points="863.31,-213.45 854.97,-219.98 865.56,-220.08 863.31,-213.45"/>
</a>
</g>
</g>
</g>
</svg>
