<?xml version="1.0" encoding="UTF-8" standalone="no"?>
<!DOCTYPE svg PUBLIC "-//W3C//DTD SVG 1.1//EN"
 "http://www.w3.org/Graphics/SVG/1.1/DTD/svg11.dtd">
<!-- Generated by graphviz version 2.43.0 (0)
 -->
<!-- Title: /home/runner/work/occ/occ/include/occ/io/occ_input.h Pages: 1 -->
<svg width="2113pt" height="419pt"
 viewBox="0.00 0.00 2113.00 419.00" xmlns="http://www.w3.org/2000/svg" xmlns:xlink="http://www.w3.org/1999/xlink">
<g id="graph0" class="graph" transform="scale(1 1) rotate(0) translate(4 415)">
<title>/home/runner/work/occ/occ/include/occ/io/occ_input.h</title>
<!-- Node1 -->
<g id="node1" class="node">
<title>Node1</title>
<g id="a_node1"><a xlink:title=" ">
<polygon fill="#bfbfbf" stroke="black" points="545,-369.5 545,-410.5 673,-410.5 673,-369.5 545,-369.5"/>
<text text-anchor="start" x="553" y="-398.5" font-family="Helvetica,sans-Serif" font-size="10.00">/home/runner/work/occ</text>
<text text-anchor="start" x="553" y="-387.5" font-family="Helvetica,sans-Serif" font-size="10.00">/occ/include/occ/io/occ</text>
<text text-anchor="middle" x="609" y="-376.5" font-family="Helvetica,sans-Serif" font-size="10.00">_input.h</text>
</a>
</g>
</g>
<!-- Node2 -->
<g id="node2" class="node">
<title>Node2</title>
<g id="a_node2"><a xlink:title=" ">
<polygon fill="none" stroke="#bfbfbf" points="0,-129 0,-148 42,-148 42,-129 0,-129"/>
<text text-anchor="middle" x="21" y="-136" font-family="Helvetica,sans-Serif" font-size="10.00">array</text>
</a>
</g>
</g>
<!-- Node1&#45;&gt;Node2 -->
<g id="edge1" class="edge">
<title>Node1&#45;&gt;Node2</title>
<path fill="none" stroke="midnightblue" d="M544.75,-387.91C430.56,-384.93 197.78,-373.89 129,-333 63.1,-293.83 34.36,-198.4 24.85,-158.03"/>
<polygon fill="midnightblue" stroke="midnightblue" points="28.25,-157.19 22.67,-148.19 21.42,-158.71 28.25,-157.19"/>
</g>
<!-- Node3 -->
<g id="node3" class="node">
<title>Node3</title>
<g id="a_node3"><a xlink:title=" ">
<polygon fill="none" stroke="#bfbfbf" points="138,-313.5 138,-332.5 192,-332.5 192,-313.5 138,-313.5"/>
<text text-anchor="middle" x="165" y="-320.5" font-family="Helvetica,sans-Serif" font-size="10.00">istream</text>
</a>
</g>
</g>
<!-- Node1&#45;&gt;Node3 -->
<g id="edge2" class="edge">
<title>Node1&#45;&gt;Node3</title>
<path fill="none" stroke="midnightblue" d="M544.89,-381.66C465.18,-372.17 325.08,-354.31 206,-333 204.75,-332.78 203.48,-332.54 202.2,-332.3"/>
<polygon fill="midnightblue" stroke="midnightblue" points="202.78,-328.84 192.29,-330.3 201.4,-335.71 202.78,-328.84"/>
</g>
<!-- Node4 -->
<g id="node4" class="node">
<title>Node4</title>
<g id="a_node4"><a xlink:href="element_8h.html" target="_top" xlink:title=" ">
<polygon fill="none" stroke="black" points="1157,-129 1157,-148 1267,-148 1267,-129 1157,-129"/>
<text text-anchor="middle" x="1212" y="-136" font-family="Helvetica,sans-Serif" font-size="10.00">occ/core/element.h</text>
</a>
</g>
</g>
<!-- Node1&#45;&gt;Node4 -->
<g id="edge3" class="edge">
<title>Node1&#45;&gt;Node4</title>
<path fill="none" stroke="midnightblue" d="M673,-389.16C833.19,-388.07 1244.6,-375.54 1329,-277 1367.93,-231.55 1283.72,-177.42 1238.39,-152.83"/>
<polygon fill="midnightblue" stroke="midnightblue" points="1239.84,-149.64 1229.36,-148.04 1236.56,-155.82 1239.84,-149.64"/>
</g>
<!-- Node6 -->
<g id="node6" class="node">
<title>Node6</title>
<g id="a_node6"><a xlink:title=" ">
<polygon fill="none" stroke="#bfbfbf" points="1426.5,-67.5 1426.5,-86.5 1473.5,-86.5 1473.5,-67.5 1426.5,-67.5"/>
<text text-anchor="middle" x="1450" y="-74.5" font-family="Helvetica,sans-Serif" font-size="10.00">vector</text>
</a>
</g>
</g>
<!-- Node1&#45;&gt;Node6 -->
<g id="edge72" class="edge">
<title>Node1&#45;&gt;Node6</title>
<path fill="none" stroke="midnightblue" d="M673.33,-388.95C913.64,-387.94 1745,-376.59 1745,-268 1745,-268 1745,-268 1745,-204.5 1745,-163.95 1736.52,-147.22 1704,-123 1669.69,-97.45 1545.15,-84.98 1484.15,-80.29"/>
<polygon fill="midnightblue" stroke="midnightblue" points="1484.11,-76.78 1473.88,-79.53 1483.59,-83.76 1484.11,-76.78"/>
</g>
<!-- Node7 -->
<g id="node7" class="node">
<title>Node7</title>
<g id="a_node7"><a xlink:href="molecule_8h.html" target="_top" xlink:title=" ">
<polygon fill="none" stroke="black" points="251,-196 251,-215 365,-215 365,-196 251,-196"/>
<text text-anchor="middle" x="308" y="-203" font-family="Helvetica,sans-Serif" font-size="10.00">occ/core/molecule.h</text>
</a>
</g>
</g>
<!-- Node1&#45;&gt;Node7 -->
<g id="edge6" class="edge">
<title>Node1&#45;&gt;Node7</title>
<path fill="none" stroke="midnightblue" d="M564.16,-369.42C519.11,-348.94 448.46,-314.59 392,-277 366.9,-260.29 340.7,-237.27 324.38,-222.14"/>
<polygon fill="midnightblue" stroke="midnightblue" points="326.48,-219.32 316.79,-215.03 321.69,-224.42 326.48,-219.32"/>
</g>
<!-- Node14 -->
<g id="node14" class="node">
<title>Node14</title>
<g id="a_node14"><a xlink:href="point__charge_8h.html" target="_top" xlink:title=" ">
<polygon fill="none" stroke="black" points="59,-196 59,-215 191,-215 191,-196 59,-196"/>
<text text-anchor="middle" x="125" y="-203" font-family="Helvetica,sans-Serif" font-size="10.00">occ/core/point_charge.h</text>
</a>
</g>
</g>
<!-- Node1&#45;&gt;Node14 -->
<g id="edge16" class="edge">
<title>Node1&#45;&gt;Node14</title>
<path fill="none" stroke="midnightblue" d="M551.43,-369.4C520.9,-358.87 482.81,-345.51 449,-333 340.55,-292.86 213.05,-241.99 155.68,-218.9"/>
<polygon fill="midnightblue" stroke="midnightblue" points="156.71,-215.54 146.13,-215.05 154.1,-222.03 156.71,-215.54"/>
</g>
<!-- Node15 -->
<g id="node15" class="node">
<title>Node15</title>
<g id="a_node15"><a xlink:href="crystal_8h.html" target="_top" xlink:title=" ">
<polygon fill="none" stroke="black" points="552,-313.5 552,-332.5 666,-332.5 666,-313.5 552,-313.5"/>
<text text-anchor="middle" x="609" y="-320.5" font-family="Helvetica,sans-Serif" font-size="10.00">occ/crystal/crystal.h</text>
</a>
</g>
</g>
<!-- Node1&#45;&gt;Node15 -->
<g id="edge20" class="edge">
<title>Node1&#45;&gt;Node15</title>
<path fill="none" stroke="midnightblue" d="M609,-369.5C609,-361.07 609,-351.24 609,-342.87"/>
<polygon fill="midnightblue" stroke="midnightblue" points="612.5,-342.65 609,-332.65 605.5,-342.65 612.5,-342.65"/>
</g>
<!-- Node39 -->
<g id="node39" class="node">
<title>Node39</title>
<g id="a_node39"><a xlink:href="grid__settings_8h.html" target="_top" xlink:title=" ">
<polygon fill="none" stroke="black" points="1773,-313.5 1773,-332.5 1893,-332.5 1893,-313.5 1773,-313.5"/>
<text text-anchor="middle" x="1833" y="-320.5" font-family="Helvetica,sans-Serif" font-size="10.00">occ/io/grid_settings.h</text>
</a>
</g>
</g>
<!-- Node1&#45;&gt;Node39 -->
<g id="edge66" class="edge">
<title>Node1&#45;&gt;Node39</title>
<path fill="none" stroke="midnightblue" d="M673,-387.51C847.47,-383.09 1345.97,-368.13 1759,-333 1760.27,-332.89 1761.55,-332.78 1762.84,-332.66"/>
<polygon fill="midnightblue" stroke="midnightblue" points="1763.25,-336.14 1772.86,-331.68 1762.57,-329.17 1763.25,-336.14"/>
</g>
<!-- Node40 -->
<g id="node40" class="node">
<title>Node40</title>
<g id="a_node40"><a xlink:href="spinorbital_8h.html" target="_top" xlink:title=" ">
<polygon fill="none" stroke="black" points="1863,-196 1863,-215 1979,-215 1979,-196 1863,-196"/>
<text text-anchor="middle" x="1921" y="-203" font-family="Helvetica,sans-Serif" font-size="10.00">occ/qm/spinorbital.h</text>
</a>
</g>
</g>
<!-- Node1&#45;&gt;Node40 -->
<g id="edge67" class="edge">
<title>Node1&#45;&gt;Node40</title>
<path fill="none" stroke="midnightblue" d="M673.17,-388.47C927.87,-386.06 1855.9,-374.46 1902,-333 1932.04,-305.98 1928.98,-253.47 1924.69,-225.35"/>
<polygon fill="midnightblue" stroke="midnightblue" points="1928.1,-224.5 1922.93,-215.25 1921.2,-225.7 1928.1,-224.5"/>
</g>
<!-- Node5 -->
<g id="node5" class="node">
<title>Node5</title>
<g id="a_node5"><a xlink:title=" ">
<polygon fill="none" stroke="#bfbfbf" points="1088,-67.5 1088,-86.5 1132,-86.5 1132,-67.5 1088,-67.5"/>
<text text-anchor="middle" x="1110" y="-74.5" font-family="Helvetica,sans-Serif" font-size="10.00">string</text>
</a>
</g>
</g>
<!-- Node4&#45;&gt;Node5 -->
<g id="edge4" class="edge">
<title>Node4&#45;&gt;Node5</title>
<path fill="none" stroke="midnightblue" d="M1197.39,-128.98C1180.65,-119.21 1153,-103.08 1133.28,-91.58"/>
<polygon fill="midnightblue" stroke="midnightblue" points="1134.99,-88.52 1124.59,-86.51 1131.46,-94.57 1134.99,-88.52"/>
</g>
<!-- Node4&#45;&gt;Node6 -->
<g id="edge5" class="edge">
<title>Node4&#45;&gt;Node6</title>
<path fill="none" stroke="midnightblue" d="M1246.1,-128.98C1291.53,-117.62 1371.41,-97.65 1416.53,-86.37"/>
<polygon fill="midnightblue" stroke="midnightblue" points="1417.55,-89.72 1426.4,-83.9 1415.85,-82.93 1417.55,-89.72"/>
</g>
<!-- Node7&#45;&gt;Node2 -->
<g id="edge7" class="edge">
<title>Node7&#45;&gt;Node2</title>
<path fill="none" stroke="midnightblue" d="M270.18,-195.94C212.82,-182.94 104.89,-158.5 51.92,-146.5"/>
<polygon fill="midnightblue" stroke="midnightblue" points="52.62,-143.07 42.09,-144.28 51.07,-149.9 52.62,-143.07"/>
</g>
<!-- Node7&#45;&gt;Node4 -->
<g id="edge13" class="edge">
<title>Node7&#45;&gt;Node4</title>
<path fill="none" stroke="midnightblue" d="M365.27,-197.82C389.8,-195.12 418.78,-192.14 445,-190 723.2,-167.3 793.77,-176.38 1072,-154 1096.4,-152.04 1123.14,-149.39 1146.66,-146.89"/>
<polygon fill="midnightblue" stroke="midnightblue" points="1147.29,-150.35 1156.86,-145.8 1146.55,-143.39 1147.29,-150.35"/>
</g>
<!-- Node8 -->
<g id="node8" class="node">
<title>Node8</title>
<g id="a_node8"><a xlink:href="atom_8h.html" target="_top" xlink:title=" ">
<polygon fill="none" stroke="black" points="98.5,-129 98.5,-148 193.5,-148 193.5,-129 98.5,-129"/>
<text text-anchor="middle" x="146" y="-136" font-family="Helvetica,sans-Serif" font-size="10.00">occ/core/atom.h</text>
</a>
</g>
</g>
<!-- Node7&#45;&gt;Node8 -->
<g id="edge8" class="edge">
<title>Node7&#45;&gt;Node8</title>
<path fill="none" stroke="midnightblue" d="M286.49,-195.87C258.33,-184.57 208.8,-164.7 176.7,-151.82"/>
<polygon fill="midnightblue" stroke="midnightblue" points="177.93,-148.54 167.34,-148.06 175.32,-155.04 177.93,-148.54"/>
</g>
<!-- Node9 -->
<g id="node9" class="node">
<title>Node9</title>
<g id="a_node9"><a xlink:href="linear__algebra_8h.html" target="_top" xlink:title=" ">
<polygon fill="none" stroke="black" points="474.5,-67.5 474.5,-86.5 613.5,-86.5 613.5,-67.5 474.5,-67.5"/>
<text text-anchor="middle" x="544" y="-74.5" font-family="Helvetica,sans-Serif" font-size="10.00">occ/core/linear_algebra.h</text>
</a>
</g>
</g>
<!-- Node7&#45;&gt;Node9 -->
<g id="edge14" class="edge">
<title>Node7&#45;&gt;Node9</title>
<path fill="none" stroke="midnightblue" d="M300.15,-195.88C286.49,-179.82 261.47,-144.95 280,-123 291.92,-108.87 390.9,-94.93 464.18,-86.4"/>
<polygon fill="midnightblue" stroke="midnightblue" points="464.8,-89.85 474.34,-85.23 464,-82.9 464.8,-89.85"/>
</g>
<!-- Node13 -->
<g id="node13" class="node">
<title>Node13</title>
<g id="a_node13"><a xlink:title=" ">
<polygon fill="none" stroke="#bfbfbf" points="288.5,-129 288.5,-148 329.5,-148 329.5,-129 288.5,-129"/>
<text text-anchor="middle" x="309" y="-136" font-family="Helvetica,sans-Serif" font-size="10.00">tuple</text>
</a>
</g>
</g>
<!-- Node7&#45;&gt;Node13 -->
<g id="edge15" class="edge">
<title>Node7&#45;&gt;Node13</title>
<path fill="none" stroke="midnightblue" d="M308.13,-195.73C308.28,-186.18 308.52,-170.62 308.71,-158.28"/>
<polygon fill="midnightblue" stroke="midnightblue" points="312.21,-158.18 308.87,-148.13 305.21,-158.07 312.21,-158.18"/>
</g>
<!-- Node8&#45;&gt;Node9 -->
<g id="edge9" class="edge">
<title>Node8&#45;&gt;Node9</title>
<path fill="none" stroke="midnightblue" d="M179.99,-128.93C189.05,-126.81 198.87,-124.68 208,-123 295,-107.04 395.65,-94.31 463.94,-86.52"/>
<polygon fill="midnightblue" stroke="midnightblue" points="464.65,-89.96 474.19,-85.36 463.86,-83 464.65,-89.96"/>
</g>
<!-- Node10 -->
<g id="node10" class="node">
<title>Node10</title>
<g id="a_node10"><a xlink:title=" ">
<polygon fill="none" stroke="#bfbfbf" points="402.5,-6 402.5,-25 479.5,-25 479.5,-6 402.5,-6"/>
<text text-anchor="middle" x="441" y="-13" font-family="Helvetica,sans-Serif" font-size="10.00">Eigen/Dense</text>
</a>
</g>
</g>
<!-- Node9&#45;&gt;Node10 -->
<g id="edge10" class="edge">
<title>Node9&#45;&gt;Node10</title>
<path fill="none" stroke="midnightblue" d="M529.24,-67.48C512.34,-57.71 484.42,-41.58 464.51,-30.08"/>
<polygon fill="midnightblue" stroke="midnightblue" points="466.14,-26.98 455.73,-25.01 462.64,-33.04 466.14,-26.98"/>
</g>
<!-- Node11 -->
<g id="node11" class="node">
<title>Node11</title>
<g id="a_node11"><a xlink:title=" ">
<polygon fill="none" stroke="#bfbfbf" points="497.5,-6 497.5,-25 590.5,-25 590.5,-6 497.5,-6"/>
<text text-anchor="middle" x="544" y="-13" font-family="Helvetica,sans-Serif" font-size="10.00">Eigen/StdVector</text>
</a>
</g>
</g>
<!-- Node9&#45;&gt;Node11 -->
<g id="edge11" class="edge">
<title>Node9&#45;&gt;Node11</title>
<path fill="none" stroke="midnightblue" d="M544,-67.48C544,-59.08 544,-45.98 544,-35.16"/>
<polygon fill="midnightblue" stroke="midnightblue" points="547.5,-35.01 544,-25.01 540.5,-35.01 547.5,-35.01"/>
</g>
<!-- Node12 -->
<g id="node12" class="node">
<title>Node12</title>
<g id="a_node12"><a xlink:title=" ">
<polygon fill="none" stroke="#bfbfbf" points="608.5,-0.5 608.5,-30.5 715.5,-30.5 715.5,-0.5 608.5,-0.5"/>
<text text-anchor="start" x="616.5" y="-18.5" font-family="Helvetica,sans-Serif" font-size="10.00">occ/3rdparty/eigen</text>
<text text-anchor="middle" x="662" y="-7.5" font-family="Helvetica,sans-Serif" font-size="10.00">&#45;fmt/fmt.h</text>
</a>
</g>
</g>
<!-- Node9&#45;&gt;Node12 -->
<g id="edge12" class="edge">
<title>Node9&#45;&gt;Node12</title>
<path fill="none" stroke="midnightblue" d="M560.91,-67.48C577.56,-59.08 603.55,-45.97 625.01,-35.15"/>
<polygon fill="midnightblue" stroke="midnightblue" points="626.84,-38.15 634.19,-30.52 623.68,-31.9 626.84,-38.15"/>
</g>
<!-- Node14&#45;&gt;Node2 -->
<g id="edge17" class="edge">
<title>Node14&#45;&gt;Node2</title>
<path fill="none" stroke="midnightblue" d="M110.97,-195.73C93.67,-184.92 64.01,-166.38 43.51,-153.57"/>
<polygon fill="midnightblue" stroke="midnightblue" points="45.14,-150.46 34.8,-148.13 41.43,-156.4 45.14,-150.46"/>
</g>
<!-- Node14&#45;&gt;Node8 -->
<g id="edge18" class="edge">
<title>Node14&#45;&gt;Node8</title>
<path fill="none" stroke="midnightblue" d="M127.83,-195.73C130.95,-186.09 136.05,-170.3 140.05,-157.91"/>
<polygon fill="midnightblue" stroke="midnightblue" points="143.47,-158.72 143.21,-148.13 136.81,-156.57 143.47,-158.72"/>
</g>
<!-- Node14&#45;&gt;Node9 -->
<g id="edge19" class="edge">
<title>Node14&#45;&gt;Node9</title>
<path fill="none" stroke="midnightblue" d="M115.64,-195.89C99.28,-179.85 69.06,-145.01 89,-123 95.23,-116.13 334.98,-95.3 463.88,-84.56"/>
<polygon fill="midnightblue" stroke="midnightblue" points="464.43,-88.02 474.11,-83.71 463.85,-81.05 464.43,-88.02"/>
</g>
<!-- Node15&#45;&gt;Node6 -->
<g id="edge65" class="edge">
<title>Node15&#45;&gt;Node6</title>
<path fill="none" stroke="midnightblue" d="M666.27,-321.62C788.6,-320.11 1084.24,-312.72 1329,-277 1438.24,-261.06 1468.22,-261.31 1571,-221 1626.79,-199.12 1657.95,-205.84 1688,-154 1694.91,-142.08 1696.79,-133.61 1688,-123 1662.44,-92.15 1543.06,-82.29 1483.69,-79.27"/>
<polygon fill="midnightblue" stroke="midnightblue" points="1483.84,-75.77 1473.68,-78.8 1483.51,-82.77 1483.84,-75.77"/>
</g>
<!-- Node15&#45;&gt;Node7 -->
<g id="edge31" class="edge">
<title>Node15&#45;&gt;Node7</title>
<path fill="none" stroke="midnightblue" d="M564.22,-313.43C528.94,-305.93 478.88,-293.63 437,-277 397.46,-261.3 354.71,-236.15 329.7,-220.52"/>
<polygon fill="midnightblue" stroke="midnightblue" points="331.35,-217.42 321.03,-215.03 327.61,-223.34 331.35,-217.42"/>
</g>
<!-- Node15&#45;&gt;Node9 -->
<g id="edge30" class="edge">
<title>Node15&#45;&gt;Node9</title>
<path fill="none" stroke="midnightblue" d="M551.82,-315.11C457.78,-302.42 277.33,-271.9 242,-221 222.48,-192.87 264.66,-126.47 269,-123 284.18,-110.85 388.77,-96.21 464.47,-87"/>
<polygon fill="midnightblue" stroke="midnightblue" points="464.97,-90.47 474.48,-85.8 464.13,-83.52 464.97,-90.47"/>
</g>
<!-- Node16 -->
<g id="node16" class="node">
<title>Node16</title>
<g id="a_node16"><a xlink:href="bondgraph_8h.html" target="_top" xlink:title=" ">
<polygon fill="none" stroke="black" points="1198.5,-257.5 1198.5,-276.5 1319.5,-276.5 1319.5,-257.5 1198.5,-257.5"/>
<text text-anchor="middle" x="1259" y="-264.5" font-family="Helvetica,sans-Serif" font-size="10.00">occ/core/bondgraph.h</text>
</a>
</g>
</g>
<!-- Node15&#45;&gt;Node16 -->
<g id="edge21" class="edge">
<title>Node15&#45;&gt;Node16</title>
<path fill="none" stroke="midnightblue" d="M666.11,-317.26C784.95,-307.38 1058.54,-284.65 1188.27,-273.88"/>
<polygon fill="midnightblue" stroke="midnightblue" points="1188.81,-277.34 1198.49,-273.03 1188.23,-270.37 1188.81,-277.34"/>
</g>
<!-- Node22 -->
<g id="node22" class="node">
<title>Node22</title>
<g id="a_node22"><a xlink:href="dimer_8h.html" target="_top" xlink:title=" ">
<polygon fill="none" stroke="black" points="445.5,-257.5 445.5,-276.5 542.5,-276.5 542.5,-257.5 445.5,-257.5"/>
<text text-anchor="middle" x="494" y="-264.5" font-family="Helvetica,sans-Serif" font-size="10.00">occ/core/dimer.h</text>
</a>
</g>
</g>
<!-- Node15&#45;&gt;Node22 -->
<g id="edge27" class="edge">
<title>Node15&#45;&gt;Node22</title>
<path fill="none" stroke="midnightblue" d="M590.78,-313.44C572.1,-304.68 542.84,-290.94 521.38,-280.86"/>
<polygon fill="midnightblue" stroke="midnightblue" points="522.68,-277.6 512.14,-276.52 519.7,-283.93 522.68,-277.6"/>
</g>
<!-- Node23 -->
<g id="node23" class="node">
<title>Node23</title>
<g id="a_node23"><a xlink:href="asymmetric__unit_8h.html" target="_top" xlink:title=" ">
<polygon fill="none" stroke="black" points="1063.5,-190.5 1063.5,-220.5 1194.5,-220.5 1194.5,-190.5 1063.5,-190.5"/>
<text text-anchor="start" x="1071.5" y="-208.5" font-family="Helvetica,sans-Serif" font-size="10.00">occ/crystal/asymmetric</text>
<text text-anchor="middle" x="1129" y="-197.5" font-family="Helvetica,sans-Serif" font-size="10.00">_unit.h</text>
</a>
</g>
</g>
<!-- Node15&#45;&gt;Node23 -->
<g id="edge32" class="edge">
<title>Node15&#45;&gt;Node23</title>
<path fill="none" stroke="midnightblue" d="M647.66,-313.41C734.02,-294.23 943.81,-247.63 1055.77,-222.77"/>
<polygon fill="midnightblue" stroke="midnightblue" points="1056.63,-226.16 1065.63,-220.58 1055.11,-219.33 1056.63,-226.16"/>
</g>
<!-- Node24 -->
<g id="node24" class="node">
<title>Node24</title>
<g id="a_node24"><a xlink:href="hkl_8h.html" target="_top" xlink:title=" ">
<polygon fill="none" stroke="black" points="535,-129 535,-148 631,-148 631,-129 535,-129"/>
<text text-anchor="middle" x="583" y="-136" font-family="Helvetica,sans-Serif" font-size="10.00">occ/crystal/hkl.h</text>
</a>
</g>
</g>
<!-- Node15&#45;&gt;Node24 -->
<g id="edge37" class="edge">
<title>Node15&#45;&gt;Node24</title>
<path fill="none" stroke="midnightblue" d="M607.75,-313.2C603.74,-285.07 591.19,-196.96 585.66,-158.16"/>
<polygon fill="midnightblue" stroke="midnightblue" points="589.12,-157.62 584.24,-148.21 582.19,-158.61 589.12,-157.62"/>
</g>
<!-- Node25 -->
<g id="node25" class="node">
<title>Node25</title>
<g id="a_node25"><a xlink:href="spacegroup_8h.html" target="_top" xlink:title=" ">
<polygon fill="none" stroke="black" points="691.5,-196 691.5,-215 828.5,-215 828.5,-196 691.5,-196"/>
<text text-anchor="middle" x="760" y="-203" font-family="Helvetica,sans-Serif" font-size="10.00">occ/crystal/spacegroup.h</text>
</a>
</g>
</g>
<!-- Node15&#45;&gt;Node25 -->
<g id="edge39" class="edge">
<title>Node15&#45;&gt;Node25</title>
<path fill="none" stroke="midnightblue" d="M620.35,-313.32C645.93,-293.75 708.34,-246.02 740.35,-221.53"/>
<polygon fill="midnightblue" stroke="midnightblue" points="742.7,-224.14 748.52,-215.28 738.45,-218.58 742.7,-224.14"/>
</g>
<!-- Node29 -->
<g id="node29" class="node">
<title>Node29</title>
<g id="a_node29"><a xlink:href="unitcell_8h.html" target="_top" xlink:title=" ">
<polygon fill="none" stroke="black" points="453.5,-196 453.5,-215 570.5,-215 570.5,-196 453.5,-196"/>
<text text-anchor="middle" x="512" y="-203" font-family="Helvetica,sans-Serif" font-size="10.00">occ/crystal/unitcell.h</text>
</a>
</g>
</g>
<!-- Node15&#45;&gt;Node29 -->
<g id="edge49" class="edge">
<title>Node15&#45;&gt;Node29</title>
<path fill="none" stroke="midnightblue" d="M601.71,-313.32C585.63,-294.17 546.89,-248.04 525.97,-223.13"/>
<polygon fill="midnightblue" stroke="midnightblue" points="528.49,-220.69 519.38,-215.28 523.13,-225.19 528.49,-220.69"/>
</g>
<!-- Node17 -->
<g id="node17" class="node">
<title>Node17</title>
<g id="a_node17"><a xlink:href="graph_8h.html" target="_top" xlink:title=" ">
<polygon fill="none" stroke="black" points="1464.5,-196 1464.5,-215 1561.5,-215 1561.5,-196 1464.5,-196"/>
<text text-anchor="middle" x="1513" y="-203" font-family="Helvetica,sans-Serif" font-size="10.00">occ/core/graph.h</text>
</a>
</g>
</g>
<!-- Node16&#45;&gt;Node17 -->
<g id="edge22" class="edge">
<title>Node16&#45;&gt;Node17</title>
<path fill="none" stroke="midnightblue" d="M1295.39,-257.48C1340.57,-246.89 1417.65,-228.84 1466.91,-217.3"/>
<polygon fill="midnightblue" stroke="midnightblue" points="1467.74,-220.7 1476.68,-215.01 1466.14,-213.88 1467.74,-220.7"/>
</g>
<!-- Node18 -->
<g id="node18" class="node">
<title>Node18</title>
<g id="a_node18"><a xlink:title=" ">
<polygon fill="none" stroke="#bfbfbf" points="1561.5,-123.5 1561.5,-153.5 1678.5,-153.5 1678.5,-123.5 1561.5,-123.5"/>
<text text-anchor="start" x="1569.5" y="-141.5" font-family="Helvetica,sans-Serif" font-size="10.00">occ/3rdparty/parallel</text>
<text text-anchor="middle" x="1620" y="-130.5" font-family="Helvetica,sans-Serif" font-size="10.00">_hashmap/phmap.h</text>
</a>
</g>
</g>
<!-- Node17&#45;&gt;Node18 -->
<g id="edge23" class="edge">
<title>Node17&#45;&gt;Node18</title>
<path fill="none" stroke="midnightblue" d="M1527.43,-195.73C1542.93,-186.32 1568.06,-171.05 1588.23,-158.8"/>
<polygon fill="midnightblue" stroke="midnightblue" points="1590.08,-161.77 1596.81,-153.59 1586.44,-155.79 1590.08,-161.77"/>
</g>
<!-- Node19 -->
<g id="node19" class="node">
<title>Node19</title>
<g id="a_node19"><a xlink:title=" ">
<polygon fill="none" stroke="#bfbfbf" points="1361,-129 1361,-148 1417,-148 1417,-129 1361,-129"/>
<text text-anchor="middle" x="1389" y="-136" font-family="Helvetica,sans-Serif" font-size="10.00">optional</text>
</a>
</g>
</g>
<!-- Node17&#45;&gt;Node19 -->
<g id="edge24" class="edge">
<title>Node17&#45;&gt;Node19</title>
<path fill="none" stroke="midnightblue" d="M1496.53,-195.87C1475.6,-184.89 1439.22,-165.82 1414.64,-152.94"/>
<polygon fill="midnightblue" stroke="midnightblue" points="1416.02,-149.71 1405.53,-148.17 1412.77,-155.91 1416.02,-149.71"/>
</g>
<!-- Node20 -->
<g id="node20" class="node">
<title>Node20</title>
<g id="a_node20"><a xlink:title=" ">
<polygon fill="none" stroke="#bfbfbf" points="1435.5,-129 1435.5,-148 1482.5,-148 1482.5,-129 1435.5,-129"/>
<text text-anchor="middle" x="1459" y="-136" font-family="Helvetica,sans-Serif" font-size="10.00">queue</text>
</a>
</g>
</g>
<!-- Node17&#45;&gt;Node20 -->
<g id="edge25" class="edge">
<title>Node17&#45;&gt;Node20</title>
<path fill="none" stroke="midnightblue" d="M1505.72,-195.73C1497.3,-185.6 1483.25,-168.69 1472.75,-156.06"/>
<polygon fill="midnightblue" stroke="midnightblue" points="1475.25,-153.58 1466.17,-148.13 1469.87,-158.06 1475.25,-153.58"/>
</g>
<!-- Node21 -->
<g id="node21" class="node">
<title>Node21</title>
<g id="a_node21"><a xlink:title=" ">
<polygon fill="none" stroke="#bfbfbf" points="1500.5,-129 1500.5,-148 1543.5,-148 1543.5,-129 1500.5,-129"/>
<text text-anchor="middle" x="1522" y="-136" font-family="Helvetica,sans-Serif" font-size="10.00">stack</text>
</a>
</g>
</g>
<!-- Node17&#45;&gt;Node21 -->
<g id="edge26" class="edge">
<title>Node17&#45;&gt;Node21</title>
<path fill="none" stroke="midnightblue" d="M1514.21,-195.73C1515.54,-186.18 1517.69,-170.62 1519.4,-158.28"/>
<polygon fill="midnightblue" stroke="midnightblue" points="1522.9,-158.51 1520.81,-148.13 1515.97,-157.55 1522.9,-158.51"/>
</g>
<!-- Node22&#45;&gt;Node7 -->
<g id="edge28" class="edge">
<title>Node22&#45;&gt;Node7</title>
<path fill="none" stroke="midnightblue" d="M467.35,-257.48C435.03,-247.14 380.4,-229.66 344.27,-218.1"/>
<polygon fill="midnightblue" stroke="midnightblue" points="345.19,-214.72 334.6,-215.01 343.06,-221.39 345.19,-214.72"/>
</g>
<!-- Node22&#45;&gt;Node19 -->
<g id="edge29" class="edge">
<title>Node22&#45;&gt;Node19</title>
<path fill="none" stroke="midnightblue" d="M542.83,-265.13C681.9,-262.29 1078.15,-251.68 1204,-221 1265.09,-206.11 1331.28,-172.14 1365.51,-153.1"/>
<polygon fill="midnightblue" stroke="midnightblue" points="1367.3,-156.11 1374.29,-148.15 1363.86,-150.01 1367.3,-156.11"/>
</g>
<!-- Node23&#45;&gt;Node4 -->
<g id="edge33" class="edge">
<title>Node23&#45;&gt;Node4</title>
<path fill="none" stroke="midnightblue" d="M1147.01,-190.4C1160.59,-179.76 1179.18,-165.2 1193,-154.38"/>
<polygon fill="midnightblue" stroke="midnightblue" points="1195.18,-157.12 1200.9,-148.19 1190.87,-151.6 1195.18,-157.12"/>
</g>
<!-- Node23&#45;&gt;Node5 -->
<g id="edge35" class="edge">
<title>Node23&#45;&gt;Node5</title>
<path fill="none" stroke="midnightblue" d="M1126.89,-190.48C1123.46,-167.62 1116.65,-122.3 1112.81,-96.71"/>
<polygon fill="midnightblue" stroke="midnightblue" points="1116.27,-96.16 1111.32,-86.79 1109.34,-97.2 1116.27,-96.16"/>
</g>
<!-- Node23&#45;&gt;Node6 -->
<g id="edge36" class="edge">
<title>Node23&#45;&gt;Node6</title>
<path fill="none" stroke="midnightblue" d="M1194.72,-191.9C1229.73,-183.77 1272.89,-171.4 1309,-154 1330.22,-143.77 1331.64,-134.86 1352,-123 1373.59,-110.42 1399.3,-98.73 1418.97,-90.42"/>
<polygon fill="midnightblue" stroke="midnightblue" points="1420.48,-93.58 1428.37,-86.5 1417.8,-87.11 1420.48,-93.58"/>
</g>
<!-- Node23&#45;&gt;Node9 -->
<g id="edge34" class="edge">
<title>Node23&#45;&gt;Node9</title>
<path fill="none" stroke="midnightblue" d="M1063.38,-200.16C1010.64,-194.65 935.75,-182.18 876,-154 856.29,-144.7 857.92,-131.85 838,-123 769.86,-92.73 685.05,-82.29 624.06,-78.94"/>
<polygon fill="midnightblue" stroke="midnightblue" points="623.88,-75.43 613.72,-78.43 623.53,-82.42 623.88,-75.43"/>
</g>
<!-- Node24&#45;&gt;Node9 -->
<g id="edge38" class="edge">
<title>Node24&#45;&gt;Node9</title>
<path fill="none" stroke="midnightblue" d="M577.41,-128.98C571.62,-120.14 562.41,-106.09 555.13,-94.98"/>
<polygon fill="midnightblue" stroke="midnightblue" points="557.99,-92.95 549.58,-86.51 552.13,-96.79 557.99,-92.95"/>
</g>
<!-- Node25&#45;&gt;Node5 -->
<g id="edge46" class="edge">
<title>Node25&#45;&gt;Node5</title>
<path fill="none" stroke="midnightblue" d="M828.55,-200.63C908.43,-194.91 1034.31,-181.7 1072,-154 1090.9,-140.11 1100.98,-114.16 1105.91,-96.48"/>
<polygon fill="midnightblue" stroke="midnightblue" points="1109.32,-97.28 1108.34,-86.73 1102.52,-95.58 1109.32,-97.28"/>
</g>
<!-- Node25&#45;&gt;Node6 -->
<g id="edge48" class="edge">
<title>Node25&#45;&gt;Node6</title>
<path fill="none" stroke="midnightblue" d="M828.64,-200.25C959.7,-191.79 1236.19,-172.06 1276,-154 1294.33,-145.69 1291.65,-133.2 1309,-123 1342.98,-103.02 1386.87,-90.83 1416.59,-84.26"/>
<polygon fill="midnightblue" stroke="midnightblue" points="1417.41,-87.67 1426.47,-82.17 1415.96,-80.82 1417.41,-87.67"/>
</g>
<!-- Node25&#45;&gt;Node13 -->
<g id="edge47" class="edge">
<title>Node25&#45;&gt;Node13</title>
<path fill="none" stroke="midnightblue" d="M691.34,-199.03C589.47,-190.45 403.38,-172.85 339,-154 337.13,-153.45 335.23,-152.8 333.34,-152.07"/>
<polygon fill="midnightblue" stroke="midnightblue" points="334.74,-148.87 324.18,-148.04 331.92,-155.27 334.74,-148.87"/>
</g>
<!-- Node25&#45;&gt;Node24 -->
<g id="edge42" class="edge">
<title>Node25&#45;&gt;Node24</title>
<path fill="none" stroke="midnightblue" d="M736.5,-195.87C705.6,-184.52 651.14,-164.52 616.09,-151.65"/>
<polygon fill="midnightblue" stroke="midnightblue" points="616.91,-148.23 606.32,-148.06 614.5,-154.8 616.91,-148.23"/>
</g>
<!-- Node26 -->
<g id="node26" class="node">
<title>Node26</title>
<g id="a_node26"><a xlink:title=" ">
<polygon fill="none" stroke="#bfbfbf" points="649,-129 649,-148 773,-148 773,-129 649,-129"/>
<text text-anchor="middle" x="711" y="-136" font-family="Helvetica,sans-Serif" font-size="10.00">gemmi/symmetry.hpp</text>
</a>
</g>
</g>
<!-- Node25&#45;&gt;Node26 -->
<g id="edge40" class="edge">
<title>Node25&#45;&gt;Node26</title>
<path fill="none" stroke="midnightblue" d="M753.39,-195.73C745.82,-185.7 733.25,-169.01 723.76,-156.42"/>
<polygon fill="midnightblue" stroke="midnightblue" points="726.32,-154.01 717.5,-148.13 720.73,-158.22 726.32,-154.01"/>
</g>
<!-- Node27 -->
<g id="node27" class="node">
<title>Node27</title>
<g id="a_node27"><a xlink:title=" ">
<polygon fill="none" stroke="#bfbfbf" points="791,-129 791,-148 829,-148 829,-129 791,-129"/>
<text text-anchor="middle" x="810" y="-136" font-family="Helvetica,sans-Serif" font-size="10.00">map</text>
</a>
</g>
</g>
<!-- Node25&#45;&gt;Node27 -->
<g id="edge41" class="edge">
<title>Node25&#45;&gt;Node27</title>
<path fill="none" stroke="midnightblue" d="M766.74,-195.73C774.54,-185.6 787.55,-168.69 797.26,-156.06"/>
<polygon fill="midnightblue" stroke="midnightblue" points="800.04,-158.19 803.36,-148.13 794.49,-153.92 800.04,-158.19"/>
</g>
<!-- Node28 -->
<g id="node28" class="node">
<title>Node28</title>
<g id="a_node28"><a xlink:href="symmetryoperation_8h.html" target="_top" xlink:title=" ">
<polygon fill="none" stroke="black" points="885,-129 885,-148 1063,-148 1063,-129 885,-129"/>
<text text-anchor="middle" x="974" y="-136" font-family="Helvetica,sans-Serif" font-size="10.00">occ/crystal/symmetryoperation.h</text>
</a>
</g>
</g>
<!-- Node25&#45;&gt;Node28 -->
<g id="edge43" class="edge">
<title>Node25&#45;&gt;Node28</title>
<path fill="none" stroke="midnightblue" d="M788.42,-195.87C826.42,-184.33 893.88,-163.84 936.15,-151"/>
<polygon fill="midnightblue" stroke="midnightblue" points="937.25,-154.32 945.81,-148.06 935.22,-147.62 937.25,-154.32"/>
</g>
<!-- Node28&#45;&gt;Node5 -->
<g id="edge45" class="edge">
<title>Node28&#45;&gt;Node5</title>
<path fill="none" stroke="midnightblue" d="M993.49,-128.98C1016.41,-118.95 1054.69,-102.2 1081.08,-90.65"/>
<polygon fill="midnightblue" stroke="midnightblue" points="1082.79,-93.72 1090.55,-86.51 1079.99,-87.31 1082.79,-93.72"/>
</g>
<!-- Node28&#45;&gt;Node9 -->
<g id="edge44" class="edge">
<title>Node28&#45;&gt;Node9</title>
<path fill="none" stroke="midnightblue" d="M913.82,-129C899.77,-127.02 884.86,-124.93 871,-123 783.41,-110.81 682.58,-96.96 616.32,-87.89"/>
<polygon fill="midnightblue" stroke="midnightblue" points="616.77,-84.42 606.39,-86.53 615.82,-91.35 616.77,-84.42"/>
</g>
<!-- Node29&#45;&gt;Node5 -->
<g id="edge64" class="edge">
<title>Node29&#45;&gt;Node5</title>
<path fill="none" stroke="midnightblue" d="M510.44,-195.77C507.99,-178.89 505.41,-141.76 526,-123 566.96,-85.69 961.46,-79.29 1077.84,-78.21"/>
<polygon fill="midnightblue" stroke="midnightblue" points="1077.94,-81.71 1087.91,-78.13 1077.88,-74.71 1077.94,-81.71"/>
</g>
<!-- Node29&#45;&gt;Node9 -->
<g id="edge50" class="edge">
<title>Node29&#45;&gt;Node9</title>
<path fill="none" stroke="midnightblue" d="M506.31,-195.57C497.28,-180.18 481.77,-147.9 493,-123 498.62,-110.56 509.56,-100.17 519.88,-92.53"/>
<polygon fill="midnightblue" stroke="midnightblue" points="522.01,-95.31 528.27,-86.76 518.04,-89.54 522.01,-95.31"/>
</g>
<!-- Node29&#45;&gt;Node24 -->
<g id="edge63" class="edge">
<title>Node29&#45;&gt;Node24</title>
<path fill="none" stroke="midnightblue" d="M521.58,-195.73C532.97,-185.31 552.19,-167.71 566.1,-154.97"/>
<polygon fill="midnightblue" stroke="midnightblue" points="568.56,-157.46 573.58,-148.13 563.84,-152.3 568.56,-157.46"/>
</g>
<!-- Node30 -->
<g id="node30" class="node">
<title>Node30</title>
<g id="a_node30"><a xlink:href="units_8h.html" target="_top" xlink:title=" ">
<polygon fill="none" stroke="black" points="347.5,-129 347.5,-148 440.5,-148 440.5,-129 347.5,-129"/>
<text text-anchor="middle" x="394" y="-136" font-family="Helvetica,sans-Serif" font-size="10.00">occ/core/units.h</text>
</a>
</g>
</g>
<!-- Node29&#45;&gt;Node30 -->
<g id="edge51" class="edge">
<title>Node29&#45;&gt;Node30</title>
<path fill="none" stroke="midnightblue" d="M496.09,-195.73C476.18,-184.77 441.89,-165.88 418.6,-153.05"/>
<polygon fill="midnightblue" stroke="midnightblue" points="420.11,-149.89 409.66,-148.13 416.73,-156.02 420.11,-149.89"/>
</g>
<!-- Node32 -->
<g id="node32" class="node">
<title>Node32</title>
<g id="a_node32"><a xlink:href="util_8h.html" target="_top" xlink:title=" ">
<polygon fill="none" stroke="black" points="1811.5,-129 1811.5,-148 1896.5,-148 1896.5,-129 1811.5,-129"/>
<text text-anchor="middle" x="1854" y="-136" font-family="Helvetica,sans-Serif" font-size="10.00">occ/core/util.h</text>
</a>
</g>
</g>
<!-- Node29&#45;&gt;Node32 -->
<g id="edge53" class="edge">
<title>Node29&#45;&gt;Node32</title>
<path fill="none" stroke="midnightblue" d="M570.51,-198.83C603.52,-195.81 645.53,-192.26 683,-190 1129.14,-163.11 1241.89,-181.46 1688,-154 1725.91,-151.67 1768.6,-147.91 1801.19,-144.81"/>
<polygon fill="midnightblue" stroke="midnightblue" points="1801.78,-148.27 1811.4,-143.83 1801.11,-141.3 1801.78,-148.27"/>
</g>
<!-- Node31 -->
<g id="node31" class="node">
<title>Node31</title>
<g id="a_node31"><a xlink:title=" ">
<polygon fill="none" stroke="#bfbfbf" points="370.5,-67.5 370.5,-86.5 417.5,-86.5 417.5,-67.5 370.5,-67.5"/>
<text text-anchor="middle" x="394" y="-74.5" font-family="Helvetica,sans-Serif" font-size="10.00">cmath</text>
</a>
</g>
</g>
<!-- Node30&#45;&gt;Node31 -->
<g id="edge52" class="edge">
<title>Node30&#45;&gt;Node31</title>
<path fill="none" stroke="midnightblue" d="M394,-128.98C394,-120.58 394,-107.48 394,-96.66"/>
<polygon fill="midnightblue" stroke="midnightblue" points="397.5,-96.51 394,-86.51 390.5,-96.51 397.5,-96.51"/>
</g>
<!-- Node32&#45;&gt;Node5 -->
<g id="edge61" class="edge">
<title>Node32&#45;&gt;Node5</title>
<path fill="none" stroke="midnightblue" d="M1824.63,-128.93C1815.82,-126.66 1806.08,-124.44 1797,-123 1668.36,-102.6 1260.82,-84.32 1142.5,-79.34"/>
<polygon fill="midnightblue" stroke="midnightblue" points="1142.42,-75.83 1132.28,-78.91 1142.13,-82.82 1142.42,-75.83"/>
</g>
<!-- Node32&#45;&gt;Node6 -->
<g id="edge62" class="edge">
<title>Node32&#45;&gt;Node6</title>
<path fill="none" stroke="midnightblue" d="M1823.39,-128.99C1814.89,-126.83 1805.63,-124.65 1797,-123 1683.07,-101.2 1546.04,-86.89 1483.76,-81.02"/>
<polygon fill="midnightblue" stroke="midnightblue" points="1484,-77.53 1473.72,-80.08 1483.35,-84.49 1484,-77.53"/>
</g>
<!-- Node32&#45;&gt;Node9 -->
<g id="edge60" class="edge">
<title>Node32&#45;&gt;Node9</title>
<path fill="none" stroke="midnightblue" d="M1825.53,-128.99C1816.49,-126.63 1806.4,-124.35 1797,-123 1681.58,-106.44 881.63,-86.08 623.85,-79.88"/>
<polygon fill="midnightblue" stroke="midnightblue" points="623.9,-76.38 613.82,-79.64 623.73,-83.38 623.9,-76.38"/>
</g>
<!-- Node33 -->
<g id="node33" class="node">
<title>Node33</title>
<g id="a_node33"><a xlink:title=" ">
<polygon fill="none" stroke="#bfbfbf" points="1784,-67.5 1784,-86.5 1848,-86.5 1848,-67.5 1784,-67.5"/>
<text text-anchor="middle" x="1816" y="-74.5" font-family="Helvetica,sans-Serif" font-size="10.00">algorithm</text>
</a>
</g>
</g>
<!-- Node32&#45;&gt;Node33 -->
<g id="edge54" class="edge">
<title>Node32&#45;&gt;Node33</title>
<path fill="none" stroke="midnightblue" d="M1848.56,-128.98C1842.91,-120.14 1833.94,-106.09 1826.84,-94.98"/>
<polygon fill="midnightblue" stroke="midnightblue" points="1829.77,-93.05 1821.43,-86.51 1823.87,-96.82 1829.77,-93.05"/>
</g>
<!-- Node34 -->
<g id="node34" class="node">
<title>Node34</title>
<g id="a_node34"><a xlink:title=" ">
<polygon fill="none" stroke="#bfbfbf" points="1866.5,-67.5 1866.5,-86.5 1915.5,-86.5 1915.5,-67.5 1866.5,-67.5"/>
<text text-anchor="middle" x="1891" y="-74.5" font-family="Helvetica,sans-Serif" font-size="10.00">cctype</text>
</a>
</g>
</g>
<!-- Node32&#45;&gt;Node34 -->
<g id="edge55" class="edge">
<title>Node32&#45;&gt;Node34</title>
<path fill="none" stroke="midnightblue" d="M1859.3,-128.98C1864.74,-120.23 1873.36,-106.37 1880.24,-95.31"/>
<polygon fill="midnightblue" stroke="midnightblue" points="1883.4,-96.85 1885.71,-86.51 1877.46,-93.15 1883.4,-96.85"/>
</g>
<!-- Node35 -->
<g id="node35" class="node">
<title>Node35</title>
<g id="a_node35"><a xlink:title=" ">
<polygon fill="none" stroke="#bfbfbf" points="1933.5,-67.5 1933.5,-86.5 2000.5,-86.5 2000.5,-67.5 1933.5,-67.5"/>
<text text-anchor="middle" x="1967" y="-74.5" font-family="Helvetica,sans-Serif" font-size="10.00">fmt/core.h</text>
</a>
</g>
</g>
<!-- Node32&#45;&gt;Node35 -->
<g id="edge56" class="edge">
<title>Node32&#45;&gt;Node35</title>
<path fill="none" stroke="midnightblue" d="M1870.19,-128.98C1888.9,-119.12 1919.92,-102.79 1941.8,-91.27"/>
<polygon fill="midnightblue" stroke="midnightblue" points="1943.62,-94.27 1950.84,-86.51 1940.36,-88.07 1943.62,-94.27"/>
</g>
<!-- Node36 -->
<g id="node36" class="node">
<title>Node36</title>
<g id="a_node36"><a xlink:title=" ">
<polygon fill="none" stroke="#bfbfbf" points="2019,-67.5 2019,-86.5 2105,-86.5 2105,-67.5 2019,-67.5"/>
<text text-anchor="middle" x="2062" y="-74.5" font-family="Helvetica,sans-Serif" font-size="10.00">fmt/ostream.h</text>
</a>
</g>
</g>
<!-- Node32&#45;&gt;Node36 -->
<g id="edge57" class="edge">
<title>Node32&#45;&gt;Node36</title>
<path fill="none" stroke="midnightblue" d="M1883.8,-128.98C1920.25,-118.55 1982.08,-100.86 2022.47,-89.31"/>
<polygon fill="midnightblue" stroke="midnightblue" points="2023.6,-92.62 2032.25,-86.51 2021.68,-85.89 2023.6,-92.62"/>
</g>
<!-- Node37 -->
<g id="node37" class="node">
<title>Node37</title>
<g id="a_node37"><a xlink:title=" ">
<polygon fill="none" stroke="#bfbfbf" points="1646,-67.5 1646,-86.5 1692,-86.5 1692,-67.5 1646,-67.5"/>
<text text-anchor="middle" x="1669" y="-74.5" font-family="Helvetica,sans-Serif" font-size="10.00">locale</text>
</a>
</g>
</g>
<!-- Node32&#45;&gt;Node37 -->
<g id="edge58" class="edge">
<title>Node32&#45;&gt;Node37</title>
<path fill="none" stroke="midnightblue" d="M1827.49,-128.98C1794.48,-118.36 1738.08,-100.22 1702.22,-88.68"/>
<polygon fill="midnightblue" stroke="midnightblue" points="1702.83,-85.2 1692.24,-85.47 1700.69,-91.87 1702.83,-85.2"/>
</g>
<!-- Node38 -->
<g id="node38" class="node">
<title>Node38</title>
<g id="a_node38"><a xlink:title=" ">
<polygon fill="none" stroke="#bfbfbf" points="1710,-67.5 1710,-86.5 1766,-86.5 1766,-67.5 1710,-67.5"/>
<text text-anchor="middle" x="1738" y="-74.5" font-family="Helvetica,sans-Serif" font-size="10.00">numeric</text>
</a>
</g>
</g>
<!-- Node32&#45;&gt;Node38 -->
<g id="edge59" class="edge">
<title>Node32&#45;&gt;Node38</title>
<path fill="none" stroke="midnightblue" d="M1837.38,-128.98C1818.08,-119.08 1786.04,-102.64 1763.57,-91.12"/>
<polygon fill="midnightblue" stroke="midnightblue" points="1765.08,-87.96 1754.59,-86.51 1761.89,-94.19 1765.08,-87.96"/>
</g>
<!-- Node40&#45;&gt;Node9 -->
<g id="edge68" class="edge">
<title>Node40&#45;&gt;Node9</title>
<path fill="none" stroke="midnightblue" d="M1902.5,-195.89C1863.73,-178.33 1770.73,-138.73 1688,-123 1584.41,-103.3 866.51,-85.34 623.9,-79.77"/>
<polygon fill="midnightblue" stroke="midnightblue" points="623.82,-76.27 613.74,-79.54 623.66,-83.27 623.82,-76.27"/>
</g>
<!-- Node40&#45;&gt;Node32 -->
<g id="edge69" class="edge">
<title>Node40&#45;&gt;Node32</title>
<path fill="none" stroke="midnightblue" d="M1911.96,-195.73C1901.32,-185.4 1883.42,-168.04 1870.32,-155.33"/>
<polygon fill="midnightblue" stroke="midnightblue" points="1872.51,-152.58 1862.89,-148.13 1867.63,-157.6 1872.51,-152.58"/>
</g>
<!-- Node41 -->
<g id="node41" class="node">
<title>Node41</title>
<g id="a_node41"><a xlink:href="qm_2opmatrix_8h.html" target="_top" xlink:title=" ">
<polygon fill="none" stroke="black" points="1915,-129 1915,-148 2023,-148 2023,-129 1915,-129"/>
<text text-anchor="middle" x="1969" y="-136" font-family="Helvetica,sans-Serif" font-size="10.00">occ/qm/opmatrix.h</text>
</a>
</g>
</g>
<!-- Node40&#45;&gt;Node41 -->
<g id="edge70" class="edge">
<title>Node40&#45;&gt;Node41</title>
<path fill="none" stroke="midnightblue" d="M1922.68,-195.73C1928.09,-185.5 1940.36,-168.36 1951.11,-155.69"/>
<polygon fill="midnightblue" stroke="midnightblue" points="1953.82,-157.92 1957.87,-148.13 1948.6,-153.25 1953.82,-157.92"/>
</g>
<!-- Node41&#45;&gt;Node40 -->
<g id="edge71" class="edge">
<title>Node41&#45;&gt;Node40</title>
<path fill="none" stroke="midnightblue" d="M1967.39,-148.13C1962.05,-158.3 1949.8,-175.42 1939.03,-188.13"/>
<polygon fill="midnightblue" stroke="midnightblue" points="1936.3,-185.94 1932.26,-195.73 1941.53,-190.6 1936.3,-185.94"/>
</g>
</g>
</svg>
