<?xml version="1.0" encoding="UTF-8" standalone="no"?>
<!DOCTYPE svg PUBLIC "-//W3C//DTD SVG 1.1//EN"
 "http://www.w3.org/Graphics/SVG/1.1/DTD/svg11.dtd">
<!-- Generated by graphviz version 2.43.0 (0)
 -->
<!-- Title: /home/runner/work/occ/occ/include/occ/io/occ_input.h Pages: 1 -->
<svg width="2061pt" height="419pt"
 viewBox="0.00 0.00 2060.50 419.00" xmlns="http://www.w3.org/2000/svg" xmlns:xlink="http://www.w3.org/1999/xlink">
<g id="graph0" class="graph" transform="scale(1 1) rotate(0) translate(4 415)">
<title>/home/runner/work/occ/occ/include/occ/io/occ_input.h</title>
<!-- Node1 -->
<g id="node1" class="node">
<title>Node1</title>
<g id="a_node1"><a xlink:title=" ">
<polygon fill="#bfbfbf" stroke="black" points="693,-369.5 693,-410.5 821,-410.5 821,-369.5 693,-369.5"/>
<text text-anchor="start" x="701" y="-398.5" font-family="Helvetica,sans-Serif" font-size="10.00">/home/runner/work/occ</text>
<text text-anchor="start" x="701" y="-387.5" font-family="Helvetica,sans-Serif" font-size="10.00">/occ/include/occ/io/occ</text>
<text text-anchor="middle" x="757" y="-376.5" font-family="Helvetica,sans-Serif" font-size="10.00">_input.h</text>
</a>
</g>
</g>
<!-- Node2 -->
<g id="node2" class="node">
<title>Node2</title>
<g id="a_node2"><a xlink:title=" ">
<polygon fill="none" stroke="#bfbfbf" points="516,-129 516,-148 558,-148 558,-129 516,-129"/>
<text text-anchor="middle" x="537" y="-136" font-family="Helvetica,sans-Serif" font-size="10.00">array</text>
</a>
</g>
</g>
<!-- Node1&#45;&gt;Node2 -->
<g id="edge1" class="edge">
<title>Node1&#45;&gt;Node2</title>
<path fill="none" stroke="midnightblue" d="M692.84,-382.45C628.72,-372.07 533.45,-345.39 489,-277 473.5,-253.15 507.41,-246.51 520,-221 529.87,-200.99 534.02,-175.48 535.76,-158.37"/>
<polygon fill="midnightblue" stroke="midnightblue" points="539.27,-158.3 536.62,-148.05 532.3,-157.72 539.27,-158.3"/>
</g>
<!-- Node3 -->
<g id="node3" class="node">
<title>Node3</title>
<g id="a_node3"><a xlink:title=" ">
<polygon fill="none" stroke="#bfbfbf" points="388,-313.5 388,-332.5 442,-332.5 442,-313.5 388,-313.5"/>
<text text-anchor="middle" x="415" y="-320.5" font-family="Helvetica,sans-Serif" font-size="10.00">istream</text>
</a>
</g>
</g>
<!-- Node1&#45;&gt;Node3 -->
<g id="edge2" class="edge">
<title>Node1&#45;&gt;Node3</title>
<path fill="none" stroke="midnightblue" d="M692.88,-377.69C631.86,-366.78 537.53,-349.53 456,-333 454.75,-332.75 453.49,-332.49 452.21,-332.22"/>
<polygon fill="midnightblue" stroke="midnightblue" points="452.83,-328.78 442.32,-330.13 451.38,-335.62 452.83,-328.78"/>
</g>
<!-- Node4 -->
<g id="node4" class="node">
<title>Node4</title>
<g id="a_node4"><a xlink:href="element_8h.html" target="_top" xlink:title=" ">
<polygon fill="none" stroke="black" points="766,-129 766,-148 876,-148 876,-129 766,-129"/>
<text text-anchor="middle" x="821" y="-136" font-family="Helvetica,sans-Serif" font-size="10.00">occ/core/element.h</text>
</a>
</g>
</g>
<!-- Node1&#45;&gt;Node4 -->
<g id="edge3" class="edge">
<title>Node1&#45;&gt;Node4</title>
<path fill="none" stroke="midnightblue" d="M762.02,-369.42C774.05,-322.51 804.41,-204.19 816.21,-158.19"/>
<polygon fill="midnightblue" stroke="midnightblue" points="819.63,-158.93 818.72,-148.37 812.85,-157.19 819.63,-158.93"/>
</g>
<!-- Node6 -->
<g id="node6" class="node">
<title>Node6</title>
<g id="a_node6"><a xlink:title=" ">
<polygon fill="none" stroke="#bfbfbf" points="592.5,-67.5 592.5,-86.5 639.5,-86.5 639.5,-67.5 592.5,-67.5"/>
<text text-anchor="middle" x="616" y="-74.5" font-family="Helvetica,sans-Serif" font-size="10.00">vector</text>
</a>
</g>
</g>
<!-- Node1&#45;&gt;Node6 -->
<g id="edge68" class="edge">
<title>Node1&#45;&gt;Node6</title>
<path fill="none" stroke="midnightblue" d="M692.79,-385.47C510,-374.58 0,-337.91 0,-268 0,-268 0,-268 0,-204.5 0,-162.69 11.65,-145.33 47,-123 92.29,-94.39 467.08,-82.01 582.38,-78.85"/>
<polygon fill="midnightblue" stroke="midnightblue" points="582.5,-82.35 592.4,-78.58 582.31,-75.35 582.5,-82.35"/>
</g>
<!-- Node7 -->
<g id="node7" class="node">
<title>Node7</title>
<g id="a_node7"><a xlink:href="molecule_8h.html" target="_top" xlink:title=" ">
<polygon fill="none" stroke="black" points="643,-196 643,-215 757,-215 757,-196 643,-196"/>
<text text-anchor="middle" x="700" y="-203" font-family="Helvetica,sans-Serif" font-size="10.00">occ/core/molecule.h</text>
</a>
</g>
</g>
<!-- Node1&#45;&gt;Node7 -->
<g id="edge6" class="edge">
<title>Node1&#45;&gt;Node7</title>
<path fill="none" stroke="midnightblue" d="M755.95,-369.33C754.76,-353.8 752.24,-331.71 747,-313 737.81,-280.22 720.37,-244.47 709.51,-223.85"/>
<polygon fill="midnightblue" stroke="midnightblue" points="712.59,-222.18 704.77,-215.02 706.42,-225.49 712.59,-222.18"/>
</g>
<!-- Node14 -->
<g id="node14" class="node">
<title>Node14</title>
<g id="a_node14"><a xlink:href="crystal_8h.html" target="_top" xlink:title=" ">
<polygon fill="none" stroke="black" points="624,-313.5 624,-332.5 738,-332.5 738,-313.5 624,-313.5"/>
<text text-anchor="middle" x="681" y="-320.5" font-family="Helvetica,sans-Serif" font-size="10.00">occ/crystal/crystal.h</text>
</a>
</g>
</g>
<!-- Node1&#45;&gt;Node14 -->
<g id="edge16" class="edge">
<title>Node1&#45;&gt;Node14</title>
<path fill="none" stroke="midnightblue" d="M734.2,-369.5C722.88,-359.82 709.41,-348.3 698.86,-339.27"/>
<polygon fill="midnightblue" stroke="midnightblue" points="700.99,-336.49 691.12,-332.65 696.44,-341.81 700.99,-336.49"/>
</g>
<!-- Node38 -->
<g id="node38" class="node">
<title>Node38</title>
<g id="a_node38"><a xlink:href="grid__settings_8h.html" target="_top" xlink:title=" ">
<polygon fill="none" stroke="black" points="918,-313.5 918,-332.5 1038,-332.5 1038,-313.5 918,-313.5"/>
<text text-anchor="middle" x="978" y="-320.5" font-family="Helvetica,sans-Serif" font-size="10.00">occ/io/grid_settings.h</text>
</a>
</g>
</g>
<!-- Node1&#45;&gt;Node38 -->
<g id="edge62" class="edge">
<title>Node1&#45;&gt;Node38</title>
<path fill="none" stroke="midnightblue" d="M821.22,-370.11C859.45,-358.87 906.7,-344.97 939.28,-335.39"/>
<polygon fill="midnightblue" stroke="midnightblue" points="940.28,-338.74 948.89,-332.56 938.31,-332.03 940.28,-338.74"/>
</g>
<!-- Node39 -->
<g id="node39" class="node">
<title>Node39</title>
<g id="a_node39"><a xlink:href="spinorbital_8h.html" target="_top" xlink:title=" ">
<polygon fill="none" stroke="black" points="1748,-196 1748,-215 1864,-215 1864,-196 1748,-196"/>
<text text-anchor="middle" x="1806" y="-203" font-family="Helvetica,sans-Serif" font-size="10.00">occ/qm/spinorbital.h</text>
</a>
</g>
</g>
<!-- Node1&#45;&gt;Node39 -->
<g id="edge63" class="edge">
<title>Node1&#45;&gt;Node39</title>
<path fill="none" stroke="midnightblue" d="M821.04,-377.86C1010.19,-344.95 1564.51,-248.51 1747,-216.77"/>
<polygon fill="midnightblue" stroke="midnightblue" points="1747.69,-220.2 1756.94,-215.03 1746.49,-213.3 1747.69,-220.2"/>
</g>
<!-- Node5 -->
<g id="node5" class="node">
<title>Node5</title>
<g id="a_node5"><a xlink:title=" ">
<polygon fill="none" stroke="#bfbfbf" points="1371,-67.5 1371,-86.5 1415,-86.5 1415,-67.5 1371,-67.5"/>
<text text-anchor="middle" x="1393" y="-74.5" font-family="Helvetica,sans-Serif" font-size="10.00">string</text>
</a>
</g>
</g>
<!-- Node4&#45;&gt;Node5 -->
<g id="edge4" class="edge">
<title>Node4&#45;&gt;Node5</title>
<path fill="none" stroke="midnightblue" d="M854.37,-128.97C864.18,-126.72 874.97,-124.51 885,-123 1093.48,-91.62 1149.99,-121.39 1358,-87 1358.92,-86.85 1359.85,-86.68 1360.79,-86.51"/>
<polygon fill="midnightblue" stroke="midnightblue" points="1361.88,-89.85 1370.91,-84.31 1360.39,-83.01 1361.88,-89.85"/>
</g>
<!-- Node4&#45;&gt;Node6 -->
<g id="edge5" class="edge">
<title>Node4&#45;&gt;Node6</title>
<path fill="none" stroke="midnightblue" d="M791.63,-128.98C753.95,-118.04 688.75,-99.11 649.27,-87.66"/>
<polygon fill="midnightblue" stroke="midnightblue" points="650.16,-84.27 639.58,-84.84 648.21,-90.99 650.16,-84.27"/>
</g>
<!-- Node7&#45;&gt;Node2 -->
<g id="edge7" class="edge">
<title>Node7&#45;&gt;Node2</title>
<path fill="none" stroke="midnightblue" d="M678.35,-195.87C649.94,-184.54 599.91,-164.59 567.62,-151.71"/>
<polygon fill="midnightblue" stroke="midnightblue" points="568.8,-148.41 558.22,-147.96 566.21,-154.92 568.8,-148.41"/>
</g>
<!-- Node7&#45;&gt;Node4 -->
<g id="edge13" class="edge">
<title>Node7&#45;&gt;Node4</title>
<path fill="none" stroke="midnightblue" d="M716.32,-195.73C736.82,-184.72 772.2,-165.71 796.09,-152.88"/>
<polygon fill="midnightblue" stroke="midnightblue" points="797.79,-155.94 804.94,-148.13 794.47,-149.78 797.79,-155.94"/>
</g>
<!-- Node8 -->
<g id="node8" class="node">
<title>Node8</title>
<g id="a_node8"><a xlink:href="atom_8h.html" target="_top" xlink:title=" ">
<polygon fill="none" stroke="black" points="652.5,-129 652.5,-148 747.5,-148 747.5,-129 652.5,-129"/>
<text text-anchor="middle" x="700" y="-136" font-family="Helvetica,sans-Serif" font-size="10.00">occ/core/atom.h</text>
</a>
</g>
</g>
<!-- Node7&#45;&gt;Node8 -->
<g id="edge8" class="edge">
<title>Node7&#45;&gt;Node8</title>
<path fill="none" stroke="midnightblue" d="M700,-195.73C700,-186.18 700,-170.62 700,-158.28"/>
<polygon fill="midnightblue" stroke="midnightblue" points="703.5,-158.13 700,-148.13 696.5,-158.13 703.5,-158.13"/>
</g>
<!-- Node9 -->
<g id="node9" class="node">
<title>Node9</title>
<g id="a_node9"><a xlink:href="linear__algebra_8h.html" target="_top" xlink:title=" ">
<polygon fill="none" stroke="black" points="1209.5,-67.5 1209.5,-86.5 1348.5,-86.5 1348.5,-67.5 1209.5,-67.5"/>
<text text-anchor="middle" x="1279" y="-74.5" font-family="Helvetica,sans-Serif" font-size="10.00">occ/core/linear_algebra.h</text>
</a>
</g>
</g>
<!-- Node7&#45;&gt;Node9 -->
<g id="edge14" class="edge">
<title>Node7&#45;&gt;Node9</title>
<path fill="none" stroke="midnightblue" d="M686.13,-195.83C662.87,-180.27 620.64,-147 643,-123 680.15,-83.13 1036.49,-77.97 1198.97,-77.71"/>
<polygon fill="midnightblue" stroke="midnightblue" points="1199.39,-81.21 1209.38,-77.7 1199.38,-74.21 1199.39,-81.21"/>
</g>
<!-- Node13 -->
<g id="node13" class="node">
<title>Node13</title>
<g id="a_node13"><a xlink:title=" ">
<polygon fill="none" stroke="#bfbfbf" points="894.5,-129 894.5,-148 935.5,-148 935.5,-129 894.5,-129"/>
<text text-anchor="middle" x="915" y="-136" font-family="Helvetica,sans-Serif" font-size="10.00">tuple</text>
</a>
</g>
</g>
<!-- Node7&#45;&gt;Node13 -->
<g id="edge15" class="edge">
<title>Node7&#45;&gt;Node13</title>
<path fill="none" stroke="midnightblue" d="M739.28,-195.99C777.19,-187.27 835.89,-172.39 885,-154 886.42,-153.47 887.87,-152.89 889.32,-152.29"/>
<polygon fill="midnightblue" stroke="midnightblue" points="891.06,-155.34 898.73,-148.03 888.18,-148.96 891.06,-155.34"/>
</g>
<!-- Node8&#45;&gt;Node9 -->
<g id="edge9" class="edge">
<title>Node8&#45;&gt;Node9</title>
<path fill="none" stroke="midnightblue" d="M729.68,-128.97C738.42,-126.73 748.04,-124.52 757,-123 912.37,-96.72 1096.49,-85.4 1199.31,-80.83"/>
<polygon fill="midnightblue" stroke="midnightblue" points="1199.47,-84.33 1209.31,-80.39 1199.16,-77.33 1199.47,-84.33"/>
</g>
<!-- Node10 -->
<g id="node10" class="node">
<title>Node10</title>
<g id="a_node10"><a xlink:title=" ">
<polygon fill="none" stroke="#bfbfbf" points="1137.5,-6 1137.5,-25 1214.5,-25 1214.5,-6 1137.5,-6"/>
<text text-anchor="middle" x="1176" y="-13" font-family="Helvetica,sans-Serif" font-size="10.00">Eigen/Dense</text>
</a>
</g>
</g>
<!-- Node9&#45;&gt;Node10 -->
<g id="edge10" class="edge">
<title>Node9&#45;&gt;Node10</title>
<path fill="none" stroke="midnightblue" d="M1264.24,-67.48C1247.34,-57.71 1219.42,-41.58 1199.51,-30.08"/>
<polygon fill="midnightblue" stroke="midnightblue" points="1201.14,-26.98 1190.73,-25.01 1197.64,-33.04 1201.14,-26.98"/>
</g>
<!-- Node11 -->
<g id="node11" class="node">
<title>Node11</title>
<g id="a_node11"><a xlink:title=" ">
<polygon fill="none" stroke="#bfbfbf" points="1232.5,-6 1232.5,-25 1325.5,-25 1325.5,-6 1232.5,-6"/>
<text text-anchor="middle" x="1279" y="-13" font-family="Helvetica,sans-Serif" font-size="10.00">Eigen/StdVector</text>
</a>
</g>
</g>
<!-- Node9&#45;&gt;Node11 -->
<g id="edge11" class="edge">
<title>Node9&#45;&gt;Node11</title>
<path fill="none" stroke="midnightblue" d="M1279,-67.48C1279,-59.08 1279,-45.98 1279,-35.16"/>
<polygon fill="midnightblue" stroke="midnightblue" points="1282.5,-35.01 1279,-25.01 1275.5,-35.01 1282.5,-35.01"/>
</g>
<!-- Node12 -->
<g id="node12" class="node">
<title>Node12</title>
<g id="a_node12"><a xlink:title=" ">
<polygon fill="none" stroke="#bfbfbf" points="1343.5,-0.5 1343.5,-30.5 1450.5,-30.5 1450.5,-0.5 1343.5,-0.5"/>
<text text-anchor="start" x="1351.5" y="-18.5" font-family="Helvetica,sans-Serif" font-size="10.00">occ/3rdparty/eigen</text>
<text text-anchor="middle" x="1397" y="-7.5" font-family="Helvetica,sans-Serif" font-size="10.00">&#45;fmt/fmt.h</text>
</a>
</g>
</g>
<!-- Node9&#45;&gt;Node12 -->
<g id="edge12" class="edge">
<title>Node9&#45;&gt;Node12</title>
<path fill="none" stroke="midnightblue" d="M1295.91,-67.48C1312.56,-59.08 1338.55,-45.97 1360.01,-35.15"/>
<polygon fill="midnightblue" stroke="midnightblue" points="1361.84,-38.15 1369.19,-30.52 1358.68,-31.9 1361.84,-38.15"/>
</g>
<!-- Node14&#45;&gt;Node6 -->
<g id="edge61" class="edge">
<title>Node14&#45;&gt;Node6</title>
<path fill="none" stroke="midnightblue" d="M623.93,-319.43C522.31,-314.29 314.27,-301.15 246,-277 151.52,-243.58 104.78,-242.1 57,-154 50.43,-141.89 47.66,-133.13 57,-123 92.7,-84.32 466.96,-78.88 582.33,-78.12"/>
<polygon fill="midnightblue" stroke="midnightblue" points="582.38,-81.62 592.36,-78.06 582.34,-74.62 582.38,-81.62"/>
</g>
<!-- Node14&#45;&gt;Node7 -->
<g id="edge27" class="edge">
<title>Node14&#45;&gt;Node7</title>
<path fill="none" stroke="midnightblue" d="M682.43,-313.32C685.48,-294.76 692.71,-250.84 696.88,-225.47"/>
<polygon fill="midnightblue" stroke="midnightblue" points="700.39,-225.72 698.56,-215.28 693.48,-224.58 700.39,-225.72"/>
</g>
<!-- Node14&#45;&gt;Node9 -->
<g id="edge26" class="edge">
<title>Node14&#45;&gt;Node9</title>
<path fill="none" stroke="midnightblue" d="M674.33,-313.48C651.46,-283.17 580.4,-179.4 633,-123 670.88,-82.38 1035.21,-77.66 1199.43,-77.62"/>
<polygon fill="midnightblue" stroke="midnightblue" points="1199.47,-81.12 1209.48,-77.62 1199.48,-74.12 1199.47,-81.12"/>
</g>
<!-- Node15 -->
<g id="node15" class="node">
<title>Node15</title>
<g id="a_node15"><a xlink:href="bondgraph_8h.html" target="_top" xlink:title=" ">
<polygon fill="none" stroke="black" points="255.5,-257.5 255.5,-276.5 376.5,-276.5 376.5,-257.5 255.5,-257.5"/>
<text text-anchor="middle" x="316" y="-264.5" font-family="Helvetica,sans-Serif" font-size="10.00">occ/core/bondgraph.h</text>
</a>
</g>
</g>
<!-- Node14&#45;&gt;Node15 -->
<g id="edge17" class="edge">
<title>Node14&#45;&gt;Node15</title>
<path fill="none" stroke="midnightblue" d="M623.97,-313.56C558.9,-303.94 452.58,-288.21 383.45,-277.98"/>
<polygon fill="midnightblue" stroke="midnightblue" points="383.94,-274.51 373.53,-276.51 382.91,-281.44 383.94,-274.51"/>
</g>
<!-- Node21 -->
<g id="node21" class="node">
<title>Node21</title>
<g id="a_node21"><a xlink:href="dimer_8h.html" target="_top" xlink:title=" ">
<polygon fill="none" stroke="black" points="498.5,-257.5 498.5,-276.5 595.5,-276.5 595.5,-257.5 498.5,-257.5"/>
<text text-anchor="middle" x="547" y="-264.5" font-family="Helvetica,sans-Serif" font-size="10.00">occ/core/dimer.h</text>
</a>
</g>
</g>
<!-- Node14&#45;&gt;Node21 -->
<g id="edge23" class="edge">
<title>Node14&#45;&gt;Node21</title>
<path fill="none" stroke="midnightblue" d="M659.77,-313.44C637.62,-304.52 602.68,-290.44 577.56,-280.32"/>
<polygon fill="midnightblue" stroke="midnightblue" points="578.72,-277.01 568.13,-276.52 576.1,-283.5 578.72,-277.01"/>
</g>
<!-- Node22 -->
<g id="node22" class="node">
<title>Node22</title>
<g id="a_node22"><a xlink:href="asymmetric__unit_8h.html" target="_top" xlink:title=" ">
<polygon fill="none" stroke="black" points="380.5,-190.5 380.5,-220.5 511.5,-220.5 511.5,-190.5 380.5,-190.5"/>
<text text-anchor="start" x="388.5" y="-208.5" font-family="Helvetica,sans-Serif" font-size="10.00">occ/crystal/asymmetric</text>
<text text-anchor="middle" x="446" y="-197.5" font-family="Helvetica,sans-Serif" font-size="10.00">_unit.h</text>
</a>
</g>
</g>
<!-- Node14&#45;&gt;Node22 -->
<g id="edge28" class="edge">
<title>Node14&#45;&gt;Node22</title>
<path fill="none" stroke="midnightblue" d="M672.84,-313.16C659.62,-299.34 632.17,-272.58 604,-257 577.63,-242.41 546.41,-231.31 518.72,-223.29"/>
<polygon fill="midnightblue" stroke="midnightblue" points="519.66,-219.91 509.08,-220.57 517.76,-226.65 519.66,-219.91"/>
</g>
<!-- Node23 -->
<g id="node23" class="node">
<title>Node23</title>
<g id="a_node23"><a xlink:href="hkl_8h.html" target="_top" xlink:title=" ">
<polygon fill="none" stroke="black" points="1424,-129 1424,-148 1520,-148 1520,-129 1424,-129"/>
<text text-anchor="middle" x="1472" y="-136" font-family="Helvetica,sans-Serif" font-size="10.00">occ/crystal/hkl.h</text>
</a>
</g>
</g>
<!-- Node14&#45;&gt;Node23 -->
<g id="edge33" class="edge">
<title>Node14&#45;&gt;Node23</title>
<path fill="none" stroke="midnightblue" d="M718.09,-313.44C847.84,-283.51 1281.27,-183.5 1425.14,-150.31"/>
<polygon fill="midnightblue" stroke="midnightblue" points="1426.03,-153.7 1434.99,-148.04 1424.46,-146.88 1426.03,-153.7"/>
</g>
<!-- Node24 -->
<g id="node24" class="node">
<title>Node24</title>
<g id="a_node24"><a xlink:href="spacegroup_8h.html" target="_top" xlink:title=" ">
<polygon fill="none" stroke="black" points="918.5,-196 918.5,-215 1055.5,-215 1055.5,-196 918.5,-196"/>
<text text-anchor="middle" x="987" y="-203" font-family="Helvetica,sans-Serif" font-size="10.00">occ/crystal/spacegroup.h</text>
</a>
</g>
</g>
<!-- Node14&#45;&gt;Node24 -->
<g id="edge35" class="edge">
<title>Node14&#45;&gt;Node24</title>
<path fill="none" stroke="midnightblue" d="M689.08,-313.34C702.71,-299.27 731.78,-271.54 762,-257 807.95,-234.89 863.87,-222.28 908.47,-215.19"/>
<polygon fill="midnightblue" stroke="midnightblue" points="909.03,-218.64 918.38,-213.67 907.97,-211.73 909.03,-218.64"/>
</g>
<!-- Node28 -->
<g id="node28" class="node">
<title>Node28</title>
<g id="a_node28"><a xlink:href="unitcell_8h.html" target="_top" xlink:title=" ">
<polygon fill="none" stroke="black" points="1527.5,-196 1527.5,-215 1644.5,-215 1644.5,-196 1527.5,-196"/>
<text text-anchor="middle" x="1586" y="-203" font-family="Helvetica,sans-Serif" font-size="10.00">occ/crystal/unitcell.h</text>
</a>
</g>
</g>
<!-- Node14&#45;&gt;Node28 -->
<g id="edge45" class="edge">
<title>Node14&#45;&gt;Node28</title>
<path fill="none" stroke="midnightblue" d="M738.3,-314.69C897.64,-294.35 1345.54,-237.19 1517.54,-215.24"/>
<polygon fill="midnightblue" stroke="midnightblue" points="1518.01,-218.71 1527.49,-213.97 1517.13,-211.76 1518.01,-218.71"/>
</g>
<!-- Node16 -->
<g id="node16" class="node">
<title>Node16</title>
<g id="a_node16"><a xlink:href="graph_8h.html" target="_top" xlink:title=" ">
<polygon fill="none" stroke="black" points="202.5,-196 202.5,-215 299.5,-215 299.5,-196 202.5,-196"/>
<text text-anchor="middle" x="251" y="-203" font-family="Helvetica,sans-Serif" font-size="10.00">occ/core/graph.h</text>
</a>
</g>
</g>
<!-- Node15&#45;&gt;Node16 -->
<g id="edge18" class="edge">
<title>Node15&#45;&gt;Node16</title>
<path fill="none" stroke="midnightblue" d="M306.69,-257.48C296.55,-248.2 280.14,-233.17 267.75,-221.83"/>
<polygon fill="midnightblue" stroke="midnightblue" points="270.04,-219.18 260.3,-215.01 265.31,-224.34 270.04,-219.18"/>
</g>
<!-- Node17 -->
<g id="node17" class="node">
<title>Node17</title>
<g id="a_node17"><a xlink:title=" ">
<polygon fill="none" stroke="#bfbfbf" points="192.5,-123.5 192.5,-153.5 309.5,-153.5 309.5,-123.5 192.5,-123.5"/>
<text text-anchor="start" x="200.5" y="-141.5" font-family="Helvetica,sans-Serif" font-size="10.00">occ/3rdparty/parallel</text>
<text text-anchor="middle" x="251" y="-130.5" font-family="Helvetica,sans-Serif" font-size="10.00">_hashmap/phmap.h</text>
</a>
</g>
</g>
<!-- Node16&#45;&gt;Node17 -->
<g id="edge19" class="edge">
<title>Node16&#45;&gt;Node17</title>
<path fill="none" stroke="midnightblue" d="M251,-195.73C251,-187.54 251,-174.92 251,-163.71"/>
<polygon fill="midnightblue" stroke="midnightblue" points="254.5,-163.59 251,-153.59 247.5,-163.59 254.5,-163.59"/>
</g>
<!-- Node18 -->
<g id="node18" class="node">
<title>Node18</title>
<g id="a_node18"><a xlink:title=" ">
<polygon fill="none" stroke="#bfbfbf" points="328,-129 328,-148 384,-148 384,-129 328,-129"/>
<text text-anchor="middle" x="356" y="-136" font-family="Helvetica,sans-Serif" font-size="10.00">optional</text>
</a>
</g>
</g>
<!-- Node16&#45;&gt;Node18 -->
<g id="edge20" class="edge">
<title>Node16&#45;&gt;Node18</title>
<path fill="none" stroke="midnightblue" d="M265.16,-195.73C282.71,-184.87 312.84,-166.22 333.56,-153.39"/>
<polygon fill="midnightblue" stroke="midnightblue" points="335.4,-156.37 342.06,-148.13 331.72,-150.41 335.4,-156.37"/>
</g>
<!-- Node19 -->
<g id="node19" class="node">
<title>Node19</title>
<g id="a_node19"><a xlink:title=" ">
<polygon fill="none" stroke="#bfbfbf" points="66.5,-129 66.5,-148 113.5,-148 113.5,-129 66.5,-129"/>
<text text-anchor="middle" x="90" y="-136" font-family="Helvetica,sans-Serif" font-size="10.00">queue</text>
</a>
</g>
</g>
<!-- Node16&#45;&gt;Node19 -->
<g id="edge21" class="edge">
<title>Node16&#45;&gt;Node19</title>
<path fill="none" stroke="midnightblue" d="M228.02,-195.92C202.1,-186.15 158.78,-169.52 122,-154 120.63,-153.42 119.23,-152.82 117.82,-152.21"/>
<polygon fill="midnightblue" stroke="midnightblue" points="119.1,-148.95 108.54,-148.1 116.27,-155.35 119.1,-148.95"/>
</g>
<!-- Node20 -->
<g id="node20" class="node">
<title>Node20</title>
<g id="a_node20"><a xlink:title=" ">
<polygon fill="none" stroke="#bfbfbf" points="131.5,-129 131.5,-148 174.5,-148 174.5,-129 131.5,-129"/>
<text text-anchor="middle" x="153" y="-136" font-family="Helvetica,sans-Serif" font-size="10.00">stack</text>
</a>
</g>
</g>
<!-- Node16&#45;&gt;Node20 -->
<g id="edge22" class="edge">
<title>Node16&#45;&gt;Node20</title>
<path fill="none" stroke="midnightblue" d="M237.78,-195.73C221.55,-184.96 193.78,-166.55 174.47,-153.74"/>
<polygon fill="midnightblue" stroke="midnightblue" points="176.28,-150.74 166.01,-148.13 172.41,-156.57 176.28,-150.74"/>
</g>
<!-- Node21&#45;&gt;Node7 -->
<g id="edge24" class="edge">
<title>Node21&#45;&gt;Node7</title>
<path fill="none" stroke="midnightblue" d="M568.92,-257.48C595.05,-247.31 638.91,-230.26 668.63,-218.7"/>
<polygon fill="midnightblue" stroke="midnightblue" points="670.07,-221.9 678.12,-215.01 667.53,-215.37 670.07,-221.9"/>
</g>
<!-- Node21&#45;&gt;Node18 -->
<g id="edge25" class="edge">
<title>Node21&#45;&gt;Node18</title>
<path fill="none" stroke="midnightblue" d="M498.15,-259.47C452.26,-252.33 388.17,-239.38 371,-221 355.31,-204.19 353.36,-176.61 354.12,-158.25"/>
<polygon fill="midnightblue" stroke="midnightblue" points="357.61,-158.42 354.83,-148.19 350.63,-157.92 357.61,-158.42"/>
</g>
<!-- Node22&#45;&gt;Node4 -->
<g id="edge29" class="edge">
<title>Node22&#45;&gt;Node4</title>
<path fill="none" stroke="midnightblue" d="M511.51,-194.96C574.39,-185.53 671.94,-170.21 756,-154 762.11,-152.82 768.52,-151.5 774.84,-150.14"/>
<polygon fill="midnightblue" stroke="midnightblue" points="775.61,-153.56 784.64,-148 774.12,-146.72 775.61,-153.56"/>
</g>
<!-- Node22&#45;&gt;Node5 -->
<g id="edge31" class="edge">
<title>Node22&#45;&gt;Node5</title>
<path fill="none" stroke="midnightblue" d="M454.56,-190.24C467.67,-168.95 492.7,-130.54 507,-123 590.71,-78.85 1264.38,-100.86 1358,-87 1358.92,-86.86 1359.86,-86.71 1360.8,-86.55"/>
<polygon fill="midnightblue" stroke="midnightblue" points="1361.86,-89.9 1370.92,-84.42 1360.42,-83.05 1361.86,-89.9"/>
</g>
<!-- Node22&#45;&gt;Node6 -->
<g id="edge32" class="edge">
<title>Node22&#45;&gt;Node6</title>
<path fill="none" stroke="midnightblue" d="M438.74,-190.48C430.73,-172.82 420.82,-142.44 436,-123 453.83,-100.16 535.49,-87.2 582.46,-81.51"/>
<polygon fill="midnightblue" stroke="midnightblue" points="582.95,-84.98 592.48,-80.34 582.14,-78.02 582.95,-84.98"/>
</g>
<!-- Node22&#45;&gt;Node9 -->
<g id="edge30" class="edge">
<title>Node22&#45;&gt;Node9</title>
<path fill="none" stroke="midnightblue" d="M446.34,-190.25C447.64,-171.45 453,-138.89 474,-123 530.85,-79.98 1007.04,-76.93 1199.13,-77.48"/>
<polygon fill="midnightblue" stroke="midnightblue" points="1199.16,-80.98 1209.17,-77.51 1199.18,-73.98 1199.16,-80.98"/>
</g>
<!-- Node23&#45;&gt;Node9 -->
<g id="edge34" class="edge">
<title>Node23&#45;&gt;Node9</title>
<path fill="none" stroke="midnightblue" d="M1444.35,-128.98C1410.81,-118.64 1354.13,-101.16 1316.63,-89.6"/>
<polygon fill="midnightblue" stroke="midnightblue" points="1317.19,-86.11 1306.6,-86.51 1315.13,-92.8 1317.19,-86.11"/>
</g>
<!-- Node24&#45;&gt;Node5 -->
<g id="edge42" class="edge">
<title>Node24&#45;&gt;Node5</title>
<path fill="none" stroke="midnightblue" d="M1033.02,-195.99C1045.04,-193.89 1057.99,-191.75 1070,-190 1137.97,-180.09 1326.28,-200.32 1377,-154 1392.68,-139.68 1395.12,-114.21 1394.68,-96.74"/>
<polygon fill="midnightblue" stroke="midnightblue" points="1398.17,-96.38 1394.08,-86.6 1391.18,-96.79 1398.17,-96.38"/>
</g>
<!-- Node24&#45;&gt;Node6 -->
<g id="edge44" class="edge">
<title>Node24&#45;&gt;Node6</title>
<path fill="none" stroke="midnightblue" d="M985.19,-195.87C981.13,-178.81 969.55,-140.89 944,-123 896.99,-90.09 723.76,-81.14 649.82,-78.8"/>
<polygon fill="midnightblue" stroke="midnightblue" points="649.75,-75.29 639.65,-78.5 649.54,-82.29 649.75,-75.29"/>
</g>
<!-- Node24&#45;&gt;Node13 -->
<g id="edge43" class="edge">
<title>Node24&#45;&gt;Node13</title>
<path fill="none" stroke="midnightblue" d="M977.29,-195.73C965.74,-185.31 946.25,-167.71 932.14,-154.97"/>
<polygon fill="midnightblue" stroke="midnightblue" points="934.32,-152.23 924.56,-148.13 929.63,-157.43 934.32,-152.23"/>
</g>
<!-- Node24&#45;&gt;Node23 -->
<g id="edge38" class="edge">
<title>Node24&#45;&gt;Node23</title>
<path fill="none" stroke="midnightblue" d="M1032.58,-195.97C1044.71,-193.85 1057.83,-191.71 1070,-190 1220.49,-168.91 1260.17,-179.35 1410,-154 1416.22,-152.95 1422.75,-151.64 1429.15,-150.25"/>
<polygon fill="midnightblue" stroke="midnightblue" points="1430.03,-153.64 1439.01,-148.02 1428.49,-146.81 1430.03,-153.64"/>
</g>
<!-- Node25 -->
<g id="node25" class="node">
<title>Node25</title>
<g id="a_node25"><a xlink:title=" ">
<polygon fill="none" stroke="#bfbfbf" points="1048,-129 1048,-148 1172,-148 1172,-129 1048,-129"/>
<text text-anchor="middle" x="1110" y="-136" font-family="Helvetica,sans-Serif" font-size="10.00">gemmi/symmetry.hpp</text>
</a>
</g>
</g>
<!-- Node24&#45;&gt;Node25 -->
<g id="edge36" class="edge">
<title>Node24&#45;&gt;Node25</title>
<path fill="none" stroke="midnightblue" d="M1003.33,-195.87C1024.1,-184.89 1060.19,-165.82 1084.57,-152.94"/>
<polygon fill="midnightblue" stroke="midnightblue" points="1086.39,-155.93 1093.6,-148.17 1083.12,-149.75 1086.39,-155.93"/>
</g>
<!-- Node26 -->
<g id="node26" class="node">
<title>Node26</title>
<g id="a_node26"><a xlink:title=" ">
<polygon fill="none" stroke="#bfbfbf" points="992,-129 992,-148 1030,-148 1030,-129 992,-129"/>
<text text-anchor="middle" x="1011" y="-136" font-family="Helvetica,sans-Serif" font-size="10.00">map</text>
</a>
</g>
</g>
<!-- Node24&#45;&gt;Node26 -->
<g id="edge37" class="edge">
<title>Node24&#45;&gt;Node26</title>
<path fill="none" stroke="midnightblue" d="M990.24,-195.73C993.84,-185.99 999.75,-169.98 1004.34,-157.53"/>
<polygon fill="midnightblue" stroke="midnightblue" points="1007.63,-158.72 1007.81,-148.13 1001.07,-156.3 1007.63,-158.72"/>
</g>
<!-- Node27 -->
<g id="node27" class="node">
<title>Node27</title>
<g id="a_node27"><a xlink:href="symmetryoperation_8h.html" target="_top" xlink:title=" ">
<polygon fill="none" stroke="black" points="1190,-129 1190,-148 1368,-148 1368,-129 1190,-129"/>
<text text-anchor="middle" x="1279" y="-136" font-family="Helvetica,sans-Serif" font-size="10.00">occ/crystal/symmetryoperation.h</text>
</a>
</g>
</g>
<!-- Node24&#45;&gt;Node27 -->
<g id="edge39" class="edge">
<title>Node24&#45;&gt;Node27</title>
<path fill="none" stroke="midnightblue" d="M1025.47,-195.94C1078.21,-184.2 1172.96,-163.11 1230.5,-150.3"/>
<polygon fill="midnightblue" stroke="midnightblue" points="1231.44,-153.67 1240.44,-148.08 1229.92,-146.84 1231.44,-153.67"/>
</g>
<!-- Node27&#45;&gt;Node5 -->
<g id="edge41" class="edge">
<title>Node27&#45;&gt;Node5</title>
<path fill="none" stroke="midnightblue" d="M1295.33,-128.98C1314.21,-119.12 1345.51,-102.79 1367.58,-91.27"/>
<polygon fill="midnightblue" stroke="midnightblue" points="1369.45,-94.24 1376.7,-86.51 1366.21,-88.03 1369.45,-94.24"/>
</g>
<!-- Node27&#45;&gt;Node9 -->
<g id="edge40" class="edge">
<title>Node27&#45;&gt;Node9</title>
<path fill="none" stroke="midnightblue" d="M1279,-128.98C1279,-120.58 1279,-107.48 1279,-96.66"/>
<polygon fill="midnightblue" stroke="midnightblue" points="1282.5,-96.51 1279,-86.51 1275.5,-96.51 1282.5,-96.51"/>
</g>
<!-- Node28&#45;&gt;Node5 -->
<g id="edge60" class="edge">
<title>Node28&#45;&gt;Node5</title>
<path fill="none" stroke="midnightblue" d="M1586.07,-195.99C1585.71,-179.48 1582.5,-142.97 1562,-123 1525.28,-87.23 1463.49,-79.07 1425.67,-77.66"/>
<polygon fill="midnightblue" stroke="midnightblue" points="1425.29,-74.15 1415.21,-77.42 1425.13,-81.15 1425.29,-74.15"/>
</g>
<!-- Node28&#45;&gt;Node9 -->
<g id="edge46" class="edge">
<title>Node28&#45;&gt;Node9</title>
<path fill="none" stroke="midnightblue" d="M1582.66,-195.91C1575.59,-178.94 1557.36,-141.15 1529,-123 1514.02,-113.41 1418.65,-98.04 1350.15,-87.98"/>
<polygon fill="midnightblue" stroke="midnightblue" points="1350.65,-84.52 1340.25,-86.54 1349.64,-91.44 1350.65,-84.52"/>
</g>
<!-- Node28&#45;&gt;Node23 -->
<g id="edge59" class="edge">
<title>Node28&#45;&gt;Node23</title>
<path fill="none" stroke="midnightblue" d="M1570.63,-195.73C1551.48,-184.82 1518.56,-166.05 1496.06,-153.22"/>
<polygon fill="midnightblue" stroke="midnightblue" points="1497.55,-150.04 1487.13,-148.13 1494.08,-156.12 1497.55,-150.04"/>
</g>
<!-- Node29 -->
<g id="node29" class="node">
<title>Node29</title>
<g id="a_node29"><a xlink:href="units_8h.html" target="_top" xlink:title=" ">
<polygon fill="none" stroke="black" points="1652.5,-129 1652.5,-148 1745.5,-148 1745.5,-129 1652.5,-129"/>
<text text-anchor="middle" x="1699" y="-136" font-family="Helvetica,sans-Serif" font-size="10.00">occ/core/units.h</text>
</a>
</g>
</g>
<!-- Node28&#45;&gt;Node29 -->
<g id="edge47" class="edge">
<title>Node28&#45;&gt;Node29</title>
<path fill="none" stroke="midnightblue" d="M1601.24,-195.73C1620.22,-184.82 1652.85,-166.05 1675.15,-153.22"/>
<polygon fill="midnightblue" stroke="midnightblue" points="1677.08,-156.15 1684,-148.13 1673.59,-150.08 1677.08,-156.15"/>
</g>
<!-- Node31 -->
<g id="node31" class="node">
<title>Node31</title>
<g id="a_node31"><a xlink:href="util_8h.html" target="_top" xlink:title=" ">
<polygon fill="none" stroke="black" points="1763.5,-129 1763.5,-148 1848.5,-148 1848.5,-129 1763.5,-129"/>
<text text-anchor="middle" x="1806" y="-136" font-family="Helvetica,sans-Serif" font-size="10.00">occ/core/util.h</text>
</a>
</g>
</g>
<!-- Node28&#45;&gt;Node31 -->
<g id="edge49" class="edge">
<title>Node28&#45;&gt;Node31</title>
<path fill="none" stroke="midnightblue" d="M1615.21,-195.87C1654.36,-184.3 1723.93,-163.75 1767.37,-150.91"/>
<polygon fill="midnightblue" stroke="midnightblue" points="1768.42,-154.25 1777.02,-148.06 1766.43,-147.54 1768.42,-154.25"/>
</g>
<!-- Node30 -->
<g id="node30" class="node">
<title>Node30</title>
<g id="a_node30"><a xlink:title=" ">
<polygon fill="none" stroke="#bfbfbf" points="1528.5,-67.5 1528.5,-86.5 1575.5,-86.5 1575.5,-67.5 1528.5,-67.5"/>
<text text-anchor="middle" x="1552" y="-74.5" font-family="Helvetica,sans-Serif" font-size="10.00">cmath</text>
</a>
</g>
</g>
<!-- Node29&#45;&gt;Node30 -->
<g id="edge48" class="edge">
<title>Node29&#45;&gt;Node30</title>
<path fill="none" stroke="midnightblue" d="M1677.94,-128.98C1652.94,-118.86 1611.06,-101.9 1582.51,-90.35"/>
<polygon fill="midnightblue" stroke="midnightblue" points="1583.61,-87.02 1573.02,-86.51 1580.98,-93.51 1583.61,-87.02"/>
</g>
<!-- Node31&#45;&gt;Node5 -->
<g id="edge57" class="edge">
<title>Node31&#45;&gt;Node5</title>
<path fill="none" stroke="midnightblue" d="M1778.93,-128.97C1771.25,-126.78 1762.85,-124.59 1755,-123 1634.73,-98.58 1489.11,-85.34 1425.44,-80.35"/>
<polygon fill="midnightblue" stroke="midnightblue" points="1425.47,-76.85 1415.23,-79.57 1424.93,-83.83 1425.47,-76.85"/>
</g>
<!-- Node31&#45;&gt;Node6 -->
<g id="edge58" class="edge">
<title>Node31&#45;&gt;Node6</title>
<path fill="none" stroke="midnightblue" d="M1780.58,-128.99C1772.5,-126.63 1763.45,-124.35 1755,-123 1533.89,-87.72 813.76,-79.65 649.55,-78.25"/>
<polygon fill="midnightblue" stroke="midnightblue" points="649.57,-74.75 639.54,-78.17 649.51,-81.75 649.57,-74.75"/>
</g>
<!-- Node31&#45;&gt;Node9 -->
<g id="edge56" class="edge">
<title>Node31&#45;&gt;Node9</title>
<path fill="none" stroke="midnightblue" d="M1779.49,-128.95C1771.67,-126.71 1763.05,-124.5 1755,-123 1582.57,-90.88 1536.53,-104.45 1362,-87 1360.92,-86.89 1359.83,-86.78 1358.73,-86.67"/>
<polygon fill="midnightblue" stroke="midnightblue" points="1359.04,-83.18 1348.73,-85.65 1358.32,-90.15 1359.04,-83.18"/>
</g>
<!-- Node32 -->
<g id="node32" class="node">
<title>Node32</title>
<g id="a_node32"><a xlink:title=" ">
<polygon fill="none" stroke="#bfbfbf" points="1921,-67.5 1921,-86.5 1985,-86.5 1985,-67.5 1921,-67.5"/>
<text text-anchor="middle" x="1953" y="-74.5" font-family="Helvetica,sans-Serif" font-size="10.00">algorithm</text>
</a>
</g>
</g>
<!-- Node31&#45;&gt;Node32 -->
<g id="edge50" class="edge">
<title>Node31&#45;&gt;Node32</title>
<path fill="none" stroke="midnightblue" d="M1827.06,-128.98C1852.06,-118.86 1893.94,-101.9 1922.49,-90.35"/>
<polygon fill="midnightblue" stroke="midnightblue" points="1924.02,-93.51 1931.98,-86.51 1921.39,-87.02 1924.02,-93.51"/>
</g>
<!-- Node33 -->
<g id="node33" class="node">
<title>Node33</title>
<g id="a_node33"><a xlink:title=" ">
<polygon fill="none" stroke="#bfbfbf" points="2003.5,-67.5 2003.5,-86.5 2052.5,-86.5 2052.5,-67.5 2003.5,-67.5"/>
<text text-anchor="middle" x="2028" y="-74.5" font-family="Helvetica,sans-Serif" font-size="10.00">cctype</text>
</a>
</g>
</g>
<!-- Node31&#45;&gt;Node33 -->
<g id="edge51" class="edge">
<title>Node31&#45;&gt;Node33</title>
<path fill="none" stroke="midnightblue" d="M1836.23,-129C1843.36,-127.01 1850.95,-124.92 1858,-123 1861.33,-122.1 1944.61,-100.06 1993.35,-87.17"/>
<polygon fill="midnightblue" stroke="midnightblue" points="1994.41,-90.5 2003.19,-84.56 1992.62,-83.74 1994.41,-90.5"/>
</g>
<!-- Node34 -->
<g id="node34" class="node">
<title>Node34</title>
<g id="a_node34"><a xlink:title=" ">
<polygon fill="none" stroke="#bfbfbf" points="1593.5,-67.5 1593.5,-86.5 1660.5,-86.5 1660.5,-67.5 1593.5,-67.5"/>
<text text-anchor="middle" x="1627" y="-74.5" font-family="Helvetica,sans-Serif" font-size="10.00">fmt/core.h</text>
</a>
</g>
</g>
<!-- Node31&#45;&gt;Node34 -->
<g id="edge52" class="edge">
<title>Node31&#45;&gt;Node34</title>
<path fill="none" stroke="midnightblue" d="M1780.35,-128.98C1749.38,-118.68 1697.13,-101.31 1662.35,-89.75"/>
<polygon fill="midnightblue" stroke="midnightblue" points="1663.19,-86.34 1652.6,-86.51 1660.98,-92.98 1663.19,-86.34"/>
</g>
<!-- Node35 -->
<g id="node35" class="node">
<title>Node35</title>
<g id="a_node35"><a xlink:title=" ">
<polygon fill="none" stroke="#bfbfbf" points="1679,-67.5 1679,-86.5 1765,-86.5 1765,-67.5 1679,-67.5"/>
<text text-anchor="middle" x="1722" y="-74.5" font-family="Helvetica,sans-Serif" font-size="10.00">fmt/ostream.h</text>
</a>
</g>
</g>
<!-- Node31&#45;&gt;Node35 -->
<g id="edge53" class="edge">
<title>Node31&#45;&gt;Node35</title>
<path fill="none" stroke="midnightblue" d="M1793.96,-128.98C1780.49,-119.43 1758.43,-103.81 1742.28,-92.37"/>
<polygon fill="midnightblue" stroke="midnightblue" points="1744.2,-89.43 1734.01,-86.51 1740.15,-95.15 1744.2,-89.43"/>
</g>
<!-- Node36 -->
<g id="node36" class="node">
<title>Node36</title>
<g id="a_node36"><a xlink:title=" ">
<polygon fill="none" stroke="#bfbfbf" points="1783,-67.5 1783,-86.5 1829,-86.5 1829,-67.5 1783,-67.5"/>
<text text-anchor="middle" x="1806" y="-74.5" font-family="Helvetica,sans-Serif" font-size="10.00">locale</text>
</a>
</g>
</g>
<!-- Node31&#45;&gt;Node36 -->
<g id="edge54" class="edge">
<title>Node31&#45;&gt;Node36</title>
<path fill="none" stroke="midnightblue" d="M1806,-128.98C1806,-120.58 1806,-107.48 1806,-96.66"/>
<polygon fill="midnightblue" stroke="midnightblue" points="1809.5,-96.51 1806,-86.51 1802.5,-96.51 1809.5,-96.51"/>
</g>
<!-- Node37 -->
<g id="node37" class="node">
<title>Node37</title>
<g id="a_node37"><a xlink:title=" ">
<polygon fill="none" stroke="#bfbfbf" points="1847,-67.5 1847,-86.5 1903,-86.5 1903,-67.5 1847,-67.5"/>
<text text-anchor="middle" x="1875" y="-74.5" font-family="Helvetica,sans-Serif" font-size="10.00">numeric</text>
</a>
</g>
</g>
<!-- Node31&#45;&gt;Node37 -->
<g id="edge55" class="edge">
<title>Node31&#45;&gt;Node37</title>
<path fill="none" stroke="midnightblue" d="M1815.89,-128.98C1826.65,-119.7 1844.07,-104.67 1857.22,-93.33"/>
<polygon fill="midnightblue" stroke="midnightblue" points="1859.84,-95.69 1865.13,-86.51 1855.27,-90.39 1859.84,-95.69"/>
</g>
<!-- Node39&#45;&gt;Node9 -->
<g id="edge64" class="edge">
<title>Node39&#45;&gt;Node9</title>
<path fill="none" stroke="midnightblue" d="M1777.2,-195.94C1744.71,-186.18 1690.36,-169.57 1644,-154 1605.49,-141.06 1597.34,-133.17 1558,-123 1491.82,-105.89 1415.03,-94.08 1358.79,-86.86"/>
<polygon fill="midnightblue" stroke="midnightblue" points="1358.89,-83.35 1348.53,-85.57 1358.02,-90.29 1358.89,-83.35"/>
</g>
<!-- Node39&#45;&gt;Node31 -->
<g id="edge65" class="edge">
<title>Node39&#45;&gt;Node31</title>
<path fill="none" stroke="midnightblue" d="M1806,-195.73C1806,-186.18 1806,-170.62 1806,-158.28"/>
<polygon fill="midnightblue" stroke="midnightblue" points="1809.5,-158.13 1806,-148.13 1802.5,-158.13 1809.5,-158.13"/>
</g>
<!-- Node40 -->
<g id="node40" class="node">
<title>Node40</title>
<g id="a_node40"><a xlink:href="qm_2opmatrix_8h.html" target="_top" xlink:title=" ">
<polygon fill="none" stroke="black" points="1867,-129 1867,-148 1975,-148 1975,-129 1867,-129"/>
<text text-anchor="middle" x="1921" y="-136" font-family="Helvetica,sans-Serif" font-size="10.00">occ/qm/opmatrix.h</text>
</a>
</g>
</g>
<!-- Node39&#45;&gt;Node40 -->
<g id="edge66" class="edge">
<title>Node39&#45;&gt;Node40</title>
<path fill="none" stroke="midnightblue" d="M1816.72,-195.73C1833.96,-184.67 1867.55,-165.54 1892.07,-152.71"/>
<polygon fill="midnightblue" stroke="midnightblue" points="1893.69,-155.82 1900.98,-148.13 1890.48,-149.59 1893.69,-155.82"/>
</g>
<!-- Node40&#45;&gt;Node39 -->
<g id="edge67" class="edge">
<title>Node40&#45;&gt;Node39</title>
<path fill="none" stroke="midnightblue" d="M1910.43,-148.17C1893.24,-159.21 1859.55,-178.4 1834.96,-191.27"/>
<polygon fill="midnightblue" stroke="midnightblue" points="1833.32,-188.18 1826.03,-195.87 1836.52,-194.4 1833.32,-188.18"/>
</g>
</g>
</svg>
