<?xml version="1.0" encoding="UTF-8" standalone="no"?>
<!DOCTYPE svg PUBLIC "-//W3C//DTD SVG 1.1//EN"
 "http://www.w3.org/Graphics/SVG/1.1/DTD/svg11.dtd">
<!-- Generated by graphviz version 2.43.0 (0)
 -->
<!-- Title: /home/runner/work/occ/occ/include/occ/main/occ_isosurface.h Pages: 1 -->
<svg width="379pt" height="170pt"
 viewBox="0.00 0.00 379.39 170.00" xmlns="http://www.w3.org/2000/svg" xmlns:xlink="http://www.w3.org/1999/xlink">
<g id="graph0" class="graph" transform="scale(1 1) rotate(0) translate(4 166)">
<title>/home/runner/work/occ/occ/include/occ/main/occ_isosurface.h</title>
<!-- Node1 -->
<g id="Node000001" class="node">
<title>Node1</title>
<g id="a_Node000001"><a xlink:title=" ">
<polygon fill="#999999" stroke="#666666" points="287,-162 159,-162 159,-121 287,-121 287,-162"/>
<text text-anchor="start" x="167" y="-150" font-family="Helvetica,sans-Serif" font-size="10.00">/home/runner/work/occ</text>
<text text-anchor="start" x="167" y="-139" font-family="Helvetica,sans-Serif" font-size="10.00">/occ/include/occ/main</text>
<text text-anchor="middle" x="223" y="-128" font-family="Helvetica,sans-Serif" font-size="10.00">/occ_isosurface.h</text>
</a>
</g>
</g>
<!-- Node2 -->
<g id="Node000002" class="node">
<title>Node2</title>
<g id="a_Node000002"><a xlink:title=" ">
<polygon fill="#e0e0e0" stroke="#999999" points="74,-79.5 0,-79.5 0,-60.5 74,-60.5 74,-79.5"/>
<text text-anchor="middle" x="37" y="-67.5" font-family="Helvetica,sans-Serif" font-size="10.00">CLI/App.hpp</text>
</a>
</g>
</g>
<!-- Node1&#45;&gt;Node2 -->
<g id="edge1_Node000001_Node000002" class="edge">
<title>Node1&#45;&gt;Node2</title>
<g id="a_edge1_Node000001_Node000002"><a xlink:title=" ">
<path fill="none" stroke="#63b8ff" d="M170.69,-120.96C138.16,-108.8 97.34,-93.55 69.42,-83.11"/>
<polygon fill="#63b8ff" stroke="#63b8ff" points="70.35,-79.73 59.76,-79.5 67.9,-86.28 70.35,-79.73"/>
</a>
</g>
</g>
<!-- Node3 -->
<g id="Node000003" class="node">
<title>Node3</title>
<g id="a_Node000003"><a xlink:href="orbital__index_8h.html" target="_top" xlink:title=" ">
<polygon fill="white" stroke="#666666" points="213.5,-85 92.5,-85 92.5,-55 213.5,-55 213.5,-85"/>
<text text-anchor="start" x="100.5" y="-73" font-family="Helvetica,sans-Serif" font-size="10.00">occ/isosurface/orbital</text>
<text text-anchor="middle" x="153" y="-62" font-family="Helvetica,sans-Serif" font-size="10.00">_index.h</text>
</a>
</g>
</g>
<!-- Node1&#45;&gt;Node3 -->
<g id="edge2_Node000001_Node000003" class="edge">
<title>Node1&#45;&gt;Node3</title>
<g id="a_edge2_Node000001_Node000003"><a xlink:title=" ">
<path fill="none" stroke="#63b8ff" d="M203.13,-120.77C194.16,-111.87 183.55,-101.33 174.41,-92.25"/>
<polygon fill="#63b8ff" stroke="#63b8ff" points="176.7,-89.6 167.14,-85.04 171.77,-94.57 176.7,-89.6"/>
</a>
</g>
</g>
<!-- Node5 -->
<g id="Node000005" class="node">
<title>Node5</title>
<g id="a_Node000005"><a xlink:title=" ">
<polygon fill="#e0e0e0" stroke="#999999" points="317.5,-19 270.5,-19 270.5,0 317.5,0 317.5,-19"/>
<text text-anchor="middle" x="294" y="-7" font-family="Helvetica,sans-Serif" font-size="10.00">vector</text>
</a>
</g>
</g>
<!-- Node1&#45;&gt;Node5 -->
<g id="edge8_Node000001_Node000005" class="edge">
<title>Node1&#45;&gt;Node5</title>
<g id="a_edge8_Node000001_Node000005"><a xlink:title=" ">
<path fill="none" stroke="#63b8ff" d="M287.02,-132.2C316.21,-124.86 348.17,-111.04 366,-85 373.53,-74 372.49,-66.65 366,-55 357.61,-39.94 341.79,-29.34 327.11,-22.27"/>
<polygon fill="#63b8ff" stroke="#63b8ff" points="328.28,-18.97 317.72,-18.13 325.45,-25.37 328.28,-18.97"/>
</a>
</g>
</g>
<!-- Node6 -->
<g id="Node000006" class="node">
<title>Node6</title>
<g id="a_Node000006"><a xlink:href="surface__types_8h.html" target="_top" xlink:title=" ">
<polygon fill="white" stroke="#666666" points="356.5,-85 231.5,-85 231.5,-55 356.5,-55 356.5,-85"/>
<text text-anchor="start" x="239.5" y="-73" font-family="Helvetica,sans-Serif" font-size="10.00">occ/isosurface/surface</text>
<text text-anchor="middle" x="294" y="-62" font-family="Helvetica,sans-Serif" font-size="10.00">_types.h</text>
</a>
</g>
</g>
<!-- Node1&#45;&gt;Node6 -->
<g id="edge5_Node000001_Node000006" class="edge">
<title>Node1&#45;&gt;Node6</title>
<g id="a_edge5_Node000001_Node000006"><a xlink:title=" ">
<path fill="none" stroke="#63b8ff" d="M243.16,-120.77C252.25,-111.87 263.01,-101.33 272.29,-92.25"/>
<polygon fill="#63b8ff" stroke="#63b8ff" points="274.96,-94.53 279.66,-85.04 270.06,-89.53 274.96,-94.53"/>
</a>
</g>
</g>
<!-- Node4 -->
<g id="Node000004" class="node">
<title>Node4</title>
<g id="a_Node000004"><a xlink:title=" ">
<polygon fill="#e0e0e0" stroke="#999999" points="214,-19 170,-19 170,0 214,0 214,-19"/>
<text text-anchor="middle" x="192" y="-7" font-family="Helvetica,sans-Serif" font-size="10.00">string</text>
</a>
</g>
</g>
<!-- Node3&#45;&gt;Node4 -->
<g id="edge3_Node000003_Node000004" class="edge">
<title>Node3&#45;&gt;Node4</title>
<g id="a_edge3_Node000003_Node000004"><a xlink:title=" ">
<path fill="none" stroke="#63b8ff" d="M162.44,-54.84C167.87,-46.69 174.73,-36.4 180.48,-27.78"/>
<polygon fill="#63b8ff" stroke="#63b8ff" points="183.52,-29.53 186.16,-19.27 177.7,-25.65 183.52,-29.53"/>
</a>
</g>
</g>
<!-- Node3&#45;&gt;Node5 -->
<g id="edge4_Node000003_Node000005" class="edge">
<title>Node3&#45;&gt;Node5</title>
<g id="a_edge4_Node000003_Node000005"><a xlink:title=" ">
<path fill="none" stroke="#63b8ff" d="M186.77,-54.99C210.19,-45.27 241.12,-32.44 263.73,-23.06"/>
<polygon fill="#63b8ff" stroke="#63b8ff" points="265.28,-26.2 273.18,-19.14 262.6,-19.74 265.28,-26.2"/>
</a>
</g>
</g>
<!-- Node6&#45;&gt;Node4 -->
<g id="edge6_Node000006_Node000004" class="edge">
<title>Node6&#45;&gt;Node4</title>
<g id="a_edge6_Node000006_Node000004"><a xlink:title=" ">
<path fill="none" stroke="#63b8ff" d="M269.57,-54.99C253.31,-45.66 232.05,-33.47 215.9,-24.21"/>
<polygon fill="#63b8ff" stroke="#63b8ff" points="217.48,-21.08 207.06,-19.14 214,-27.15 217.48,-21.08"/>
</a>
</g>
</g>
<!-- Node6&#45;&gt;Node5 -->
<g id="edge7_Node000006_Node000005" class="edge">
<title>Node6&#45;&gt;Node5</title>
<g id="a_edge7_Node000006_Node000005"><a xlink:title=" ">
<path fill="none" stroke="#63b8ff" d="M294,-54.84C294,-47.21 294,-37.7 294,-29.45"/>
<polygon fill="#63b8ff" stroke="#63b8ff" points="297.5,-29.27 294,-19.27 290.5,-29.27 297.5,-29.27"/>
</a>
</g>
</g>
</g>
</svg>
