<?xml version="1.0" encoding="UTF-8" standalone="no"?>
<!DOCTYPE svg PUBLIC "-//W3C//DTD SVG 1.1//EN"
 "http://www.w3.org/Graphics/SVG/1.1/DTD/svg11.dtd">
<!-- Generated by graphviz version 2.43.0 (0)
 -->
<!-- Title: /home/runner/work/occ/occ/include/occ/main/occ_lua.h Pages: 1 -->
<svg width="210pt" height="104pt"
 viewBox="0.00 0.00 209.50 104.00" xmlns="http://www.w3.org/2000/svg" xmlns:xlink="http://www.w3.org/1999/xlink">
<g id="graph0" class="graph" transform="scale(1 1) rotate(0) translate(4 100)">
<title>/home/runner/work/occ/occ/include/occ/main/occ_lua.h</title>
<!-- Node1 -->
<g id="Node000001" class="node">
<title>Node1</title>
<g id="a_Node000001"><a xlink:title=" ">
<polygon fill="#999999" stroke="#666666" points="178,-96 50,-96 50,-55 178,-55 178,-96"/>
<text text-anchor="start" x="58" y="-84" font-family="Helvetica,sans-Serif" font-size="10.00">/home/runner/work/occ</text>
<text text-anchor="start" x="58" y="-73" font-family="Helvetica,sans-Serif" font-size="10.00">/occ/include/occ/main</text>
<text text-anchor="middle" x="114" y="-62" font-family="Helvetica,sans-Serif" font-size="10.00">/occ_lua.h</text>
</a>
</g>
</g>
<!-- Node2 -->
<g id="Node000002" class="node">
<title>Node2</title>
<g id="a_Node000002"><a xlink:title=" ">
<polygon fill="#e0e0e0" stroke="#999999" points="74,-19 0,-19 0,0 74,0 74,-19"/>
<text text-anchor="middle" x="37" y="-7" font-family="Helvetica,sans-Serif" font-size="10.00">CLI/App.hpp</text>
</a>
</g>
</g>
<!-- Node1&#45;&gt;Node2 -->
<g id="edge1_Node000001_Node000002" class="edge">
<title>Node1&#45;&gt;Node2</title>
<g id="a_edge1_Node000001_Node000002"><a xlink:title=" ">
<path fill="none" stroke="#63b8ff" d="M90.48,-54.95C79.17,-45.55 65.82,-34.46 55.29,-25.7"/>
<polygon fill="#63b8ff" stroke="#63b8ff" points="57.47,-22.96 47.54,-19.26 52.99,-28.34 57.47,-22.96"/>
</a>
</g>
</g>
<!-- Node3 -->
<g id="Node000003" class="node">
<title>Node3</title>
<g id="a_Node000003"><a xlink:title=" ">
<polygon fill="#e0e0e0" stroke="#999999" points="136,-19 92,-19 92,0 136,0 136,-19"/>
<text text-anchor="middle" x="114" y="-7" font-family="Helvetica,sans-Serif" font-size="10.00">string</text>
</a>
</g>
</g>
<!-- Node1&#45;&gt;Node3 -->
<g id="edge2_Node000001_Node000003" class="edge">
<title>Node1&#45;&gt;Node3</title>
<g id="a_edge2_Node000001_Node000003"><a xlink:title=" ">
<path fill="none" stroke="#63b8ff" d="M114,-54.95C114,-46.85 114,-37.5 114,-29.47"/>
<polygon fill="#63b8ff" stroke="#63b8ff" points="117.5,-29.26 114,-19.26 110.5,-29.26 117.5,-29.26"/>
</a>
</g>
</g>
<!-- Node4 -->
<g id="Node000004" class="node">
<title>Node4</title>
<g id="a_Node000004"><a xlink:title=" ">
<polygon fill="#e0e0e0" stroke="#999999" points="201.5,-19 154.5,-19 154.5,0 201.5,0 201.5,-19"/>
<text text-anchor="middle" x="178" y="-7" font-family="Helvetica,sans-Serif" font-size="10.00">vector</text>
</a>
</g>
</g>
<!-- Node1&#45;&gt;Node4 -->
<g id="edge3_Node000001_Node000004" class="edge">
<title>Node1&#45;&gt;Node4</title>
<g id="a_edge3_Node000001_Node000004"><a xlink:title=" ">
<path fill="none" stroke="#63b8ff" d="M133.55,-54.95C142.67,-45.83 153.39,-35.11 162.01,-26.49"/>
<polygon fill="#63b8ff" stroke="#63b8ff" points="164.64,-28.81 169.24,-19.26 159.69,-23.86 164.64,-28.81"/>
</a>
</g>
</g>
</g>
</svg>
