<?xml version="1.0" encoding="UTF-8" standalone="no"?>
<!DOCTYPE svg PUBLIC "-//W3C//DTD SVG 1.1//EN"
 "http://www.w3.org/Graphics/SVG/1.1/DTD/svg11.dtd">
<!-- Generated by graphviz version 2.43.0 (0)
 -->
<!-- Title: /home/runner/work/occ/occ/include/occ/qm/orbital_smearing.h Pages: 1 -->
<svg width="2404pt" height="507pt"
 viewBox="0.00 0.00 2404.00 507.00" xmlns="http://www.w3.org/2000/svg" xmlns:xlink="http://www.w3.org/1999/xlink">
<g id="graph0" class="graph" transform="scale(1 1) rotate(0) translate(4 503)">
<title>/home/runner/work/occ/occ/include/occ/qm/orbital_smearing.h</title>
<!-- Node1 -->
<g id="node1" class="node">
<title>Node1</title>
<g id="a_node1"><a xlink:title=" ">
<polygon fill="#bfbfbf" stroke="black" points="646.5,-457.5 646.5,-498.5 793.5,-498.5 793.5,-457.5 646.5,-457.5"/>
<text text-anchor="start" x="654.5" y="-486.5" font-family="Helvetica,sans-Serif" font-size="10.00">/home/runner/work/occ</text>
<text text-anchor="start" x="654.5" y="-475.5" font-family="Helvetica,sans-Serif" font-size="10.00">/occ/include/occ/qm/orbital</text>
<text text-anchor="middle" x="720" y="-464.5" font-family="Helvetica,sans-Serif" font-size="10.00">_smearing.h</text>
</a>
</g>
</g>
<!-- Node2 -->
<g id="node2" class="node">
<title>Node2</title>
<g id="a_node2"><a xlink:href="mo_8h.html" target="_top" xlink:title=" ">
<polygon fill="none" stroke="black" points="650,-390.5 650,-420.5 790,-420.5 790,-390.5 650,-390.5"/>
<text text-anchor="start" x="658" y="-408.5" font-family="Helvetica,sans-Serif" font-size="10.00">/home/runner/work/occ</text>
<text text-anchor="middle" x="720" y="-397.5" font-family="Helvetica,sans-Serif" font-size="10.00">/occ/include/occ/qm/mo.h</text>
</a>
</g>
</g>
<!-- Node1&#45;&gt;Node2 -->
<g id="edge1" class="edge">
<title>Node1&#45;&gt;Node2</title>
<path fill="none" stroke="midnightblue" d="M720,-447.08C720,-438.01 720,-428.45 720,-420.89"/>
<polygon fill="midnightblue" stroke="midnightblue" points="716.5,-447.36 720,-457.36 723.5,-447.36 716.5,-447.36"/>
</g>
<!-- Node3 -->
<g id="node3" class="node">
<title>Node3</title>
<g id="a_node3"><a xlink:href="dft_8h.html" target="_top" xlink:title=" ">
<polygon fill="none" stroke="black" points="672,-84 672,-114 806,-114 806,-84 672,-84"/>
<text text-anchor="start" x="680" y="-102" font-family="Helvetica,sans-Serif" font-size="10.00">/home/runner/work/occ</text>
<text text-anchor="middle" x="739" y="-91" font-family="Helvetica,sans-Serif" font-size="10.00">/occ/include/occ/dft/dft.h</text>
</a>
</g>
</g>
<!-- Node2&#45;&gt;Node3 -->
<g id="edge2" class="edge">
<title>Node2&#45;&gt;Node3</title>
<path fill="none" stroke="midnightblue" d="M721.53,-380.02C725.33,-319.14 735.11,-162.35 738.11,-114.25"/>
<polygon fill="midnightblue" stroke="midnightblue" points="718.02,-380.02 720.89,-390.22 725.01,-380.46 718.02,-380.02"/>
</g>
<!-- Node5 -->
<g id="node5" class="node">
<title>Node5</title>
<g id="a_node5"><a xlink:href="nonlocal__correlation_8h.html" target="_top" xlink:title=" ">
<polygon fill="none" stroke="black" points="0,-234.5 0,-275.5 128,-275.5 128,-234.5 0,-234.5"/>
<text text-anchor="start" x="8" y="-263.5" font-family="Helvetica,sans-Serif" font-size="10.00">/home/runner/work/occ</text>
<text text-anchor="start" x="8" y="-252.5" font-family="Helvetica,sans-Serif" font-size="10.00">/occ/include/occ/dft</text>
<text text-anchor="middle" x="64" y="-241.5" font-family="Helvetica,sans-Serif" font-size="10.00">/nonlocal_correlation.h</text>
</a>
</g>
</g>
<!-- Node2&#45;&gt;Node5 -->
<g id="edge4" class="edge">
<title>Node2&#45;&gt;Node5</title>
<path fill="none" stroke="midnightblue" d="M639.53,-401.82C486.26,-396.13 163.81,-381.08 121,-354 92.72,-336.11 76.87,-298.77 69.4,-275.69"/>
<polygon fill="midnightblue" stroke="midnightblue" points="639.7,-405.33 649.82,-402.2 639.96,-398.34 639.7,-405.33"/>
</g>
<!-- Node6 -->
<g id="node6" class="node">
<title>Node6</title>
<g id="a_node6"><a xlink:href="seminumerical__exchange_8h.html" target="_top" xlink:title=" ">
<polygon fill="none" stroke="black" points="146,-234.5 146,-275.5 300,-275.5 300,-234.5 146,-234.5"/>
<text text-anchor="start" x="154" y="-263.5" font-family="Helvetica,sans-Serif" font-size="10.00">/home/runner/work/occ</text>
<text text-anchor="start" x="154" y="-252.5" font-family="Helvetica,sans-Serif" font-size="10.00">/occ/include/occ/dft</text>
<text text-anchor="middle" x="223" y="-241.5" font-family="Helvetica,sans-Serif" font-size="10.00">/seminumerical_exchange.h</text>
</a>
</g>
</g>
<!-- Node2&#45;&gt;Node6 -->
<g id="edge6" class="edge">
<title>Node2&#45;&gt;Node6</title>
<path fill="none" stroke="midnightblue" d="M639.68,-403.49C486.89,-400.72 166.57,-390.58 133,-354 120.38,-340.25 123.93,-328.32 133,-312 141.76,-296.23 157,-284.33 172.48,-275.65"/>
<polygon fill="midnightblue" stroke="midnightblue" points="639.88,-406.99 649.94,-403.67 640,-399.99 639.88,-406.99"/>
</g>
<!-- Node7 -->
<g id="node7" class="node">
<title>Node7</title>
<g id="a_node7"><a xlink:href="conversion_8h.html" target="_top" xlink:title=" ">
<polygon fill="none" stroke="black" points="313.5,-318 313.5,-348 484.5,-348 484.5,-318 313.5,-318"/>
<text text-anchor="start" x="321.5" y="-336" font-family="Helvetica,sans-Serif" font-size="10.00">/home/runner/work/occ</text>
<text text-anchor="middle" x="399" y="-325" font-family="Helvetica,sans-Serif" font-size="10.00">/occ/include/occ/io/conversion.h</text>
</a>
</g>
</g>
<!-- Node2&#45;&gt;Node7 -->
<g id="edge7" class="edge">
<title>Node2&#45;&gt;Node7</title>
<path fill="none" stroke="midnightblue" d="M646.1,-388.27C590.74,-376.11 515.76,-359.64 462.96,-348.05"/>
<polygon fill="midnightblue" stroke="midnightblue" points="645.68,-391.76 656.2,-390.49 647.18,-384.92 645.68,-391.76"/>
</g>
<!-- Node8 -->
<g id="node8" class="node">
<title>Node8</title>
<g id="a_node8"><a xlink:href="gradients_8h.html" target="_top" xlink:title=" ">
<polygon fill="none" stroke="black" points="503,-318 503,-348 673,-348 673,-318 503,-318"/>
<text text-anchor="start" x="511" y="-336" font-family="Helvetica,sans-Serif" font-size="10.00">/home/runner/work/occ</text>
<text text-anchor="middle" x="588" y="-325" font-family="Helvetica,sans-Serif" font-size="10.00">/occ/include/occ/qm/gradients.h</text>
</a>
</g>
</g>
<!-- Node2&#45;&gt;Node8 -->
<g id="edge8" class="edge">
<title>Node2&#45;&gt;Node8</title>
<path fill="none" stroke="midnightblue" d="M684.53,-385.56C662.44,-373.76 634.48,-358.83 614.35,-348.07"/>
<polygon fill="midnightblue" stroke="midnightblue" points="683.14,-388.78 693.61,-390.4 686.43,-382.6 683.14,-388.78"/>
</g>
<!-- Node9 -->
<g id="node9" class="node">
<title>Node9</title>
<g id="a_node9"><a xlink:href="hf_8h.html" target="_top" xlink:title=" ">
<polygon fill="none" stroke="black" points="577,-162 577,-192 711,-192 711,-162 577,-162"/>
<text text-anchor="start" x="585" y="-180" font-family="Helvetica,sans-Serif" font-size="10.00">/home/runner/work/occ</text>
<text text-anchor="middle" x="644" y="-169" font-family="Helvetica,sans-Serif" font-size="10.00">/occ/include/occ/qm/hf.h</text>
</a>
</g>
</g>
<!-- Node2&#45;&gt;Node9 -->
<g id="edge9" class="edge">
<title>Node2&#45;&gt;Node9</title>
<path fill="none" stroke="midnightblue" d="M712.01,-380.67C696.21,-333.6 661.44,-229.97 648.75,-192.16"/>
<polygon fill="midnightblue" stroke="midnightblue" points="708.75,-381.96 715.25,-390.33 715.38,-379.74 708.75,-381.96"/>
</g>
<!-- Node12 -->
<g id="node12" class="node">
<title>Node12</title>
<g id="a_node12"><a xlink:href="integral__engine_8h.html" target="_top" xlink:title=" ">
<polygon fill="none" stroke="black" points="142.5,-312.5 142.5,-353.5 295.5,-353.5 295.5,-312.5 142.5,-312.5"/>
<text text-anchor="start" x="150.5" y="-341.5" font-family="Helvetica,sans-Serif" font-size="10.00">/home/runner/work/occ</text>
<text text-anchor="start" x="150.5" y="-330.5" font-family="Helvetica,sans-Serif" font-size="10.00">/occ/include/occ/qm/integral</text>
<text text-anchor="middle" x="219" y="-319.5" font-family="Helvetica,sans-Serif" font-size="10.00">_engine.h</text>
</a>
</g>
</g>
<!-- Node2&#45;&gt;Node12 -->
<g id="edge14" class="edge">
<title>Node2&#45;&gt;Node12</title>
<path fill="none" stroke="midnightblue" d="M639.94,-397.33C556.08,-389.22 420.73,-374.44 305,-354 301.98,-353.47 298.91,-352.89 295.81,-352.29"/>
<polygon fill="midnightblue" stroke="midnightblue" points="639.62,-400.82 649.9,-398.29 640.28,-393.85 639.62,-400.82"/>
</g>
<!-- Node14 -->
<g id="node14" class="node">
<title>Node14</title>
<g id="a_node14"><a xlink:href="partitioning_8h.html" target="_top" xlink:title=" ">
<polygon fill="none" stroke="black" points="767.5,-318 767.5,-348 948.5,-348 948.5,-318 767.5,-318"/>
<text text-anchor="start" x="775.5" y="-336" font-family="Helvetica,sans-Serif" font-size="10.00">/home/runner/work/occ</text>
<text text-anchor="middle" x="858" y="-325" font-family="Helvetica,sans-Serif" font-size="10.00">/occ/include/occ/qm/partitioning.h</text>
</a>
</g>
</g>
<!-- Node2&#45;&gt;Node14 -->
<g id="edge19" class="edge">
<title>Node2&#45;&gt;Node14</title>
<path fill="none" stroke="midnightblue" d="M756.77,-385.72C779.92,-373.89 809.31,-358.87 830.45,-348.07"/>
<polygon fill="midnightblue" stroke="midnightblue" points="754.91,-382.74 747.59,-390.4 758.09,-388.97 754.91,-382.74"/>
</g>
<!-- Node15 -->
<g id="node15" class="node">
<title>Node15</title>
<g id="a_node15"><a xlink:href="scf_8h.html" target="_top" xlink:title=" ">
<polygon fill="none" stroke="black" points="767,-162 767,-192 905,-192 905,-162 767,-162"/>
<text text-anchor="start" x="775" y="-180" font-family="Helvetica,sans-Serif" font-size="10.00">/home/runner/work/occ</text>
<text text-anchor="middle" x="836" y="-169" font-family="Helvetica,sans-Serif" font-size="10.00">/occ/include/occ/qm/scf.h</text>
</a>
</g>
</g>
<!-- Node2&#45;&gt;Node15 -->
<g id="edge20" class="edge">
<title>Node2&#45;&gt;Node15</title>
<path fill="none" stroke="midnightblue" d="M800.23,-398.15C861.35,-391.46 938.26,-378.37 958,-354 1004.34,-296.8 906.02,-222.8 859.08,-192.2"/>
<polygon fill="midnightblue" stroke="midnightblue" points="799.76,-394.68 790.18,-399.21 800.5,-401.65 799.76,-394.68"/>
</g>
<!-- Node16 -->
<g id="node16" class="node">
<title>Node16</title>
<g id="a_node16"><a xlink:href="wavefunction_8h.html" target="_top" xlink:title=" ">
<polygon fill="none" stroke="black" points="1522.5,-240 1522.5,-270 1713.5,-270 1713.5,-240 1522.5,-240"/>
<text text-anchor="start" x="1530.5" y="-258" font-family="Helvetica,sans-Serif" font-size="10.00">/home/runner/work/occ</text>
<text text-anchor="middle" x="1618" y="-247" font-family="Helvetica,sans-Serif" font-size="10.00">/occ/include/occ/qm/wavefunction.h</text>
</a>
</g>
</g>
<!-- Node2&#45;&gt;Node16 -->
<g id="edge21" class="edge">
<title>Node2&#45;&gt;Node16</title>
<path fill="none" stroke="midnightblue" d="M800.29,-401.55C856.37,-396.7 931.55,-384.44 991,-354 1015.06,-341.68 1010.41,-323.24 1035,-312 1119.38,-273.41 1379.74,-261.38 1522.29,-257.65"/>
<polygon fill="midnightblue" stroke="midnightblue" points="799.74,-398.09 790.05,-402.38 800.3,-405.06 799.74,-398.09"/>
</g>
<!-- Node29 -->
<g id="node29" class="node">
<title>Node29</title>
<g id="a_node29"><a xlink:href="solvation__correction_8h.html" target="_top" xlink:title=" ">
<polygon fill="none" stroke="black" points="1043.5,-312.5 1043.5,-353.5 1176.5,-353.5 1176.5,-312.5 1043.5,-312.5"/>
<text text-anchor="start" x="1051.5" y="-341.5" font-family="Helvetica,sans-Serif" font-size="10.00">/home/runner/work/occ</text>
<text text-anchor="start" x="1051.5" y="-330.5" font-family="Helvetica,sans-Serif" font-size="10.00">/occ/include/occ/solvent</text>
<text text-anchor="middle" x="1110" y="-319.5" font-family="Helvetica,sans-Serif" font-size="10.00">/solvation_correction.h</text>
</a>
</g>
</g>
<!-- Node2&#45;&gt;Node29 -->
<g id="edge41" class="edge">
<title>Node2&#45;&gt;Node29</title>
<path fill="none" stroke="midnightblue" d="M800.44,-393.16C862.99,-383.9 951.82,-369.81 1029,-354 1033.68,-353.04 1038.5,-352 1043.35,-350.91"/>
<polygon fill="midnightblue" stroke="midnightblue" points="799.63,-389.74 790.24,-394.66 800.65,-396.67 799.63,-389.74"/>
</g>
<!-- Node30 -->
<g id="node30" class="node">
<title>Node30</title>
<g id="a_node30"><a xlink:href="xdm_8h.html" target="_top" xlink:title=" ">
<polygon fill="none" stroke="black" points="1195,-318 1195,-348 1347,-348 1347,-318 1195,-318"/>
<text text-anchor="start" x="1203" y="-336" font-family="Helvetica,sans-Serif" font-size="10.00">/home/runner/work/occ</text>
<text text-anchor="middle" x="1271" y="-325" font-family="Helvetica,sans-Serif" font-size="10.00">/occ/include/occ/xdm/xdm.h</text>
</a>
</g>
</g>
<!-- Node2&#45;&gt;Node30 -->
<g id="edge42" class="edge">
<title>Node2&#45;&gt;Node30</title>
<path fill="none" stroke="midnightblue" d="M800.45,-398.81C893.66,-391.51 1051.67,-376.99 1186,-354 1195.71,-352.34 1205.97,-350.23 1215.88,-348.01"/>
<polygon fill="midnightblue" stroke="midnightblue" points="799.94,-395.34 790.24,-399.6 800.48,-402.32 799.94,-395.34"/>
</g>
<!-- Node4 -->
<g id="node4" class="node">
<title>Node4</title>
<g id="a_node4"><a xlink:href="point__functors_8h.html" target="_top" xlink:title=" ">
<polygon fill="none" stroke="black" points="675,-0.5 675,-41.5 803,-41.5 803,-0.5 675,-0.5"/>
<text text-anchor="start" x="683" y="-29.5" font-family="Helvetica,sans-Serif" font-size="10.00">/home/runner/work/occ</text>
<text text-anchor="start" x="683" y="-18.5" font-family="Helvetica,sans-Serif" font-size="10.00">/occ/include/occ/main</text>
<text text-anchor="middle" x="739" y="-7.5" font-family="Helvetica,sans-Serif" font-size="10.00">/point_functors.h</text>
</a>
</g>
</g>
<!-- Node3&#45;&gt;Node4 -->
<g id="edge3" class="edge">
<title>Node3&#45;&gt;Node4</title>
<path fill="none" stroke="midnightblue" d="M739,-73.66C739,-63.33 739,-51.44 739,-41.68"/>
<polygon fill="midnightblue" stroke="midnightblue" points="735.5,-73.7 739,-83.7 742.5,-73.71 735.5,-73.7"/>
</g>
<!-- Node5&#45;&gt;Node3 -->
<g id="edge5" class="edge">
<title>Node5&#45;&gt;Node3</title>
<path fill="none" stroke="midnightblue" d="M137.85,-233.84C337.68,-184.47 562.29,-136.66 671.94,-113.82"/>
<polygon fill="midnightblue" stroke="midnightblue" points="136.91,-230.46 128.05,-236.26 138.6,-237.26 136.91,-230.46"/>
</g>
<!-- Node9&#45;&gt;Node3 -->
<g id="edge10" class="edge">
<title>Node9&#45;&gt;Node3</title>
<path fill="none" stroke="midnightblue" d="M669.93,-155.25C686.21,-142.23 706.77,-125.78 721.21,-114.23"/>
<polygon fill="midnightblue" stroke="midnightblue" points="667.49,-152.72 661.87,-161.7 671.86,-158.19 667.49,-152.72"/>
</g>
<!-- Node9&#45;&gt;Node4 -->
<g id="edge13" class="edge">
<title>Node9&#45;&gt;Node4</title>
<path fill="none" stroke="midnightblue" d="M643.88,-151.82C644.84,-130.81 648.89,-100.33 663,-78 672.46,-63.04 687.46,-50.73 701.65,-41.51"/>
<polygon fill="midnightblue" stroke="midnightblue" points="640.38,-151.77 643.62,-161.85 647.38,-151.95 640.38,-151.77"/>
</g>
<!-- Node10 -->
<g id="node10" class="node">
<title>Node10</title>
<g id="a_node10"><a xlink:href="electric__potential_8h.html" target="_top" xlink:title=" ">
<polygon fill="none" stroke="black" points="1864.5,-78.5 1864.5,-119.5 2011.5,-119.5 2011.5,-78.5 1864.5,-78.5"/>
<text text-anchor="start" x="1872.5" y="-107.5" font-family="Helvetica,sans-Serif" font-size="10.00">/home/runner/work/occ</text>
<text text-anchor="start" x="1872.5" y="-96.5" font-family="Helvetica,sans-Serif" font-size="10.00">/occ/include/occ/isosurface</text>
<text text-anchor="middle" x="1938" y="-85.5" font-family="Helvetica,sans-Serif" font-size="10.00">/electric_potential.h</text>
</a>
</g>
</g>
<!-- Node9&#45;&gt;Node10 -->
<g id="edge11" class="edge">
<title>Node9&#45;&gt;Node10</title>
<path fill="none" stroke="midnightblue" d="M721.22,-161.1C733.49,-159.12 746.06,-157.32 758,-156 1174.6,-109.76 1678.09,-101.66 1864.22,-100.27"/>
<polygon fill="midnightblue" stroke="midnightblue" points="720.3,-157.7 711.01,-162.79 721.45,-164.61 720.3,-157.7"/>
</g>
<!-- Node11 -->
<g id="node11" class="node">
<title>Node11</title>
<g id="a_node11"><a xlink:href="isosurface_8h.html" target="_top" xlink:title=" ">
<polygon fill="none" stroke="black" points="1873.5,-0.5 1873.5,-41.5 2020.5,-41.5 2020.5,-0.5 1873.5,-0.5"/>
<text text-anchor="start" x="1881.5" y="-29.5" font-family="Helvetica,sans-Serif" font-size="10.00">/home/runner/work/occ</text>
<text text-anchor="start" x="1881.5" y="-18.5" font-family="Helvetica,sans-Serif" font-size="10.00">/occ/include/occ/isosurface</text>
<text text-anchor="middle" x="1947" y="-7.5" font-family="Helvetica,sans-Serif" font-size="10.00">/isosurface.h</text>
</a>
</g>
</g>
<!-- Node10&#45;&gt;Node11 -->
<g id="edge12" class="edge">
<title>Node10&#45;&gt;Node11</title>
<path fill="none" stroke="midnightblue" d="M1941.52,-68.3C1942.58,-59.3 1943.73,-49.65 1944.69,-41.51"/>
<polygon fill="midnightblue" stroke="midnightblue" points="1938.02,-68.09 1940.32,-78.43 1944.97,-68.91 1938.02,-68.09"/>
</g>
<!-- Node12&#45;&gt;Node6 -->
<g id="edge15" class="edge">
<title>Node12&#45;&gt;Node6</title>
<path fill="none" stroke="midnightblue" d="M220.56,-302.3C221.04,-293.3 221.54,-283.65 221.97,-275.51"/>
<polygon fill="midnightblue" stroke="midnightblue" points="217.06,-302.26 220.03,-312.43 224.05,-302.63 217.06,-302.26"/>
</g>
<!-- Node12&#45;&gt;Node9 -->
<g id="edge16" class="edge">
<title>Node12&#45;&gt;Node9</title>
<path fill="none" stroke="midnightblue" d="M265.04,-307.7C307.12,-286.19 371.52,-255.04 430,-234 478.6,-216.51 535.21,-201.94 577.99,-192.05"/>
<polygon fill="midnightblue" stroke="midnightblue" points="263.18,-304.72 255.88,-312.4 266.38,-310.94 263.18,-304.72"/>
</g>
<!-- Node13 -->
<g id="node13" class="node">
<title>Node13</title>
<g id="a_node13"><a xlink:href="integral__engine__df_8h.html" target="_top" xlink:title=" ">
<polygon fill="none" stroke="black" points="438.5,-234.5 438.5,-275.5 591.5,-275.5 591.5,-234.5 438.5,-234.5"/>
<text text-anchor="start" x="446.5" y="-263.5" font-family="Helvetica,sans-Serif" font-size="10.00">/home/runner/work/occ</text>
<text text-anchor="start" x="446.5" y="-252.5" font-family="Helvetica,sans-Serif" font-size="10.00">/occ/include/occ/qm/integral</text>
<text text-anchor="middle" x="515" y="-241.5" font-family="Helvetica,sans-Serif" font-size="10.00">_engine_df.h</text>
</a>
</g>
</g>
<!-- Node12&#45;&gt;Node13 -->
<g id="edge17" class="edge">
<title>Node12&#45;&gt;Node13</title>
<path fill="none" stroke="midnightblue" d="M304.98,-309.92C347.38,-299.04 398.07,-286.02 439.03,-275.51"/>
<polygon fill="midnightblue" stroke="midnightblue" points="304.04,-306.55 295.23,-312.43 305.78,-313.33 304.04,-306.55"/>
</g>
<!-- Node13&#45;&gt;Node9 -->
<g id="edge18" class="edge">
<title>Node13&#45;&gt;Node9</title>
<path fill="none" stroke="midnightblue" d="M556.9,-229.31C577.74,-217.04 602.18,-202.64 619.85,-192.23"/>
<polygon fill="midnightblue" stroke="midnightblue" points="555.06,-226.34 548.22,-234.43 558.61,-232.37 555.06,-226.34"/>
</g>
<!-- Node16&#45;&gt;Node4 -->
<g id="edge36" class="edge">
<title>Node16&#45;&gt;Node4</title>
<path fill="none" stroke="midnightblue" d="M1512.26,-243.18C1432.28,-233.63 1330.11,-218.11 1293,-198 1270.6,-185.87 1275.87,-169.06 1254,-156 1107.87,-68.7 905.31,-37.65 803.25,-27.11"/>
<polygon fill="midnightblue" stroke="midnightblue" points="1512.06,-246.68 1522.4,-244.37 1512.87,-239.73 1512.06,-246.68"/>
</g>
<!-- Node16&#45;&gt;Node10 -->
<g id="edge30" class="edge">
<title>Node16&#45;&gt;Node10</title>
<path fill="none" stroke="midnightblue" d="M1723.87,-247.9C1848.07,-239.64 2039.96,-222.99 2062,-198 2074.35,-184 2072.12,-171.68 2062,-156 2050.34,-137.94 2031.3,-125.65 2011.6,-117.3"/>
<polygon fill="midnightblue" stroke="midnightblue" points="1723.31,-244.43 1713.57,-248.57 1723.77,-251.41 1723.31,-244.43"/>
</g>
<!-- Node16&#45;&gt;Node15 -->
<g id="edge40" class="edge">
<title>Node16&#45;&gt;Node15</title>
<path fill="none" stroke="midnightblue" d="M1512.11,-251.23C1373.75,-246.33 1124.31,-233.06 914,-198 904.76,-196.46 895.02,-194.36 885.66,-192.09"/>
<polygon fill="midnightblue" stroke="midnightblue" points="1512.17,-254.74 1522.29,-251.59 1512.41,-247.74 1512.17,-254.74"/>
</g>
<!-- Node17 -->
<g id="node17" class="node">
<title>Node17</title>
<g id="a_node17"><a xlink:href="density_8h.html" target="_top" xlink:title=" ">
<polygon fill="none" stroke="black" points="923,-156.5 923,-197.5 1051,-197.5 1051,-156.5 923,-156.5"/>
<text text-anchor="start" x="931" y="-185.5" font-family="Helvetica,sans-Serif" font-size="10.00">/home/runner/work/occ</text>
<text text-anchor="start" x="931" y="-174.5" font-family="Helvetica,sans-Serif" font-size="10.00">/occ/include/occ/gto</text>
<text text-anchor="middle" x="987" y="-163.5" font-family="Helvetica,sans-Serif" font-size="10.00">/density.h</text>
</a>
</g>
</g>
<!-- Node16&#45;&gt;Node17 -->
<g id="edge22" class="edge">
<title>Node16&#45;&gt;Node17</title>
<path fill="none" stroke="midnightblue" d="M1512.22,-248.53C1399.64,-241.52 1216.64,-226.66 1061,-198 1057.73,-197.4 1054.39,-196.72 1051.03,-195.99"/>
<polygon fill="midnightblue" stroke="midnightblue" points="1512.03,-252.03 1522.22,-249.15 1512.46,-245.04 1512.03,-252.03"/>
</g>
<!-- Node18 -->
<g id="node18" class="node">
<title>Node18</title>
<g id="a_node18"><a xlink:href="pairinteraction_8h.html" target="_top" xlink:title=" ">
<polygon fill="none" stroke="black" points="2184.5,-156.5 2184.5,-197.5 2333.5,-197.5 2333.5,-156.5 2184.5,-156.5"/>
<text text-anchor="start" x="2192.5" y="-185.5" font-family="Helvetica,sans-Serif" font-size="10.00">/home/runner/work/occ</text>
<text text-anchor="start" x="2192.5" y="-174.5" font-family="Helvetica,sans-Serif" font-size="10.00">/occ/include/occ/interaction</text>
<text text-anchor="middle" x="2259" y="-163.5" font-family="Helvetica,sans-Serif" font-size="10.00">/pairinteraction.h</text>
</a>
</g>
</g>
<!-- Node16&#45;&gt;Node18 -->
<g id="edge24" class="edge">
<title>Node16&#45;&gt;Node18</title>
<path fill="none" stroke="midnightblue" d="M1724.14,-247.13C1835.84,-239 2016.55,-223.27 2171,-198 2175.33,-197.29 2179.76,-196.5 2184.23,-195.65"/>
<polygon fill="midnightblue" stroke="midnightblue" points="1723.6,-243.66 1713.88,-247.87 1724.1,-250.64 1723.6,-243.66"/>
</g>
<!-- Node19 -->
<g id="node19" class="node">
<title>Node19</title>
<g id="a_node19"><a xlink:href="pair__energy_8h.html" target="_top" xlink:title=" ">
<polygon fill="none" stroke="black" points="2195,-78.5 2195,-119.5 2323,-119.5 2323,-78.5 2195,-78.5"/>
<text text-anchor="start" x="2203" y="-107.5" font-family="Helvetica,sans-Serif" font-size="10.00">/home/runner/work/occ</text>
<text text-anchor="start" x="2203" y="-96.5" font-family="Helvetica,sans-Serif" font-size="10.00">/occ/include/occ/main</text>
<text text-anchor="middle" x="2259" y="-85.5" font-family="Helvetica,sans-Serif" font-size="10.00">/pair_energy.h</text>
</a>
</g>
</g>
<!-- Node16&#45;&gt;Node19 -->
<g id="edge35" class="edge">
<title>Node16&#45;&gt;Node19</title>
<path fill="none" stroke="midnightblue" d="M1723.75,-247.34C1845.11,-238.73 2036.13,-221.95 2104,-198 2117.51,-193.23 2188.65,-146.72 2229.7,-119.52"/>
<polygon fill="midnightblue" stroke="midnightblue" points="1723.41,-243.86 1713.68,-248.05 1723.9,-250.84 1723.41,-243.86"/>
</g>
<!-- Node22 -->
<g id="node22" class="node">
<title>Node22</title>
<g id="a_node22"><a xlink:href="wavefunction__json_8h.html" target="_top" xlink:title=" ">
<polygon fill="none" stroke="black" points="1069.5,-156.5 1069.5,-197.5 1244.5,-197.5 1244.5,-156.5 1069.5,-156.5"/>
<text text-anchor="start" x="1077.5" y="-185.5" font-family="Helvetica,sans-Serif" font-size="10.00">/home/runner/work/occ</text>
<text text-anchor="start" x="1077.5" y="-174.5" font-family="Helvetica,sans-Serif" font-size="10.00">/occ/include/occ/io/wavefunction</text>
<text text-anchor="middle" x="1157" y="-163.5" font-family="Helvetica,sans-Serif" font-size="10.00">_json.h</text>
</a>
</g>
</g>
<!-- Node16&#45;&gt;Node22 -->
<g id="edge29" class="edge">
<title>Node16&#45;&gt;Node22</title>
<path fill="none" stroke="midnightblue" d="M1512.28,-238.61C1440.68,-227.92 1344,-212.96 1259,-198 1254.29,-197.17 1249.46,-196.3 1244.59,-195.4"/>
<polygon fill="midnightblue" stroke="midnightblue" points="1511.81,-242.08 1522.22,-240.09 1512.84,-235.16 1511.81,-242.08"/>
</g>
<!-- Node23 -->
<g id="node23" class="node">
<title>Node23</title>
<g id="a_node23"><a xlink:href="electron__density_8h.html" target="_top" xlink:title=" ">
<polygon fill="none" stroke="black" points="2029.5,-78.5 2029.5,-119.5 2176.5,-119.5 2176.5,-78.5 2029.5,-78.5"/>
<text text-anchor="start" x="2037.5" y="-107.5" font-family="Helvetica,sans-Serif" font-size="10.00">/home/runner/work/occ</text>
<text text-anchor="start" x="2037.5" y="-96.5" font-family="Helvetica,sans-Serif" font-size="10.00">/occ/include/occ/isosurface</text>
<text text-anchor="middle" x="2103" y="-85.5" font-family="Helvetica,sans-Serif" font-size="10.00">/electron_density.h</text>
</a>
</g>
</g>
<!-- Node16&#45;&gt;Node23 -->
<g id="edge31" class="edge">
<title>Node16&#45;&gt;Node23</title>
<path fill="none" stroke="midnightblue" d="M1724.03,-254.78C1843.93,-253.37 2029.12,-243.57 2080,-198 2101.87,-178.41 2104.94,-142.33 2104.47,-119.83"/>
<polygon fill="midnightblue" stroke="midnightblue" points="1723.69,-251.28 1713.72,-254.88 1723.76,-258.28 1723.69,-251.28"/>
</g>
<!-- Node24 -->
<g id="node24" class="node">
<title>Node24</title>
<g id="a_node24"><a xlink:href="geometry__optimization_8h.html" target="_top" xlink:title=" ">
<polygon fill="none" stroke="black" points="1301.5,-156.5 1301.5,-197.5 1444.5,-197.5 1444.5,-156.5 1301.5,-156.5"/>
<text text-anchor="start" x="1309.5" y="-185.5" font-family="Helvetica,sans-Serif" font-size="10.00">/home/runner/work/occ</text>
<text text-anchor="start" x="1309.5" y="-174.5" font-family="Helvetica,sans-Serif" font-size="10.00">/occ/include/occ/main</text>
<text text-anchor="middle" x="1373" y="-163.5" font-family="Helvetica,sans-Serif" font-size="10.00">/geometry_optimization.h</text>
</a>
</g>
</g>
<!-- Node16&#45;&gt;Node24 -->
<g id="edge33" class="edge">
<title>Node16&#45;&gt;Node24</title>
<path fill="none" stroke="midnightblue" d="M1562.99,-236.94C1525.31,-225.25 1475.24,-209.71 1435.96,-197.53"/>
<polygon fill="midnightblue" stroke="midnightblue" points="1562.19,-240.35 1572.78,-239.97 1564.26,-233.67 1562.19,-240.35"/>
</g>
<!-- Node25 -->
<g id="node25" class="node">
<title>Node25</title>
<g id="a_node25"><a xlink:href="monomer__wavefunctions_8h.html" target="_top" xlink:title=" ">
<polygon fill="none" stroke="black" points="1463,-156.5 1463,-197.5 1615,-197.5 1615,-156.5 1463,-156.5"/>
<text text-anchor="start" x="1471" y="-185.5" font-family="Helvetica,sans-Serif" font-size="10.00">/home/runner/work/occ</text>
<text text-anchor="start" x="1471" y="-174.5" font-family="Helvetica,sans-Serif" font-size="10.00">/occ/include/occ/main</text>
<text text-anchor="middle" x="1539" y="-163.5" font-family="Helvetica,sans-Serif" font-size="10.00">/monomer_wavefunctions.h</text>
</a>
</g>
</g>
<!-- Node16&#45;&gt;Node25 -->
<g id="edge34" class="edge">
<title>Node16&#45;&gt;Node25</title>
<path fill="none" stroke="midnightblue" d="M1595.7,-232.55C1584.32,-221.6 1570.57,-208.37 1559.46,-197.68"/>
<polygon fill="midnightblue" stroke="midnightblue" points="1593.51,-235.29 1603.14,-239.7 1598.36,-230.25 1593.51,-235.29"/>
</g>
<!-- Node26 -->
<g id="node26" class="node">
<title>Node26</title>
<g id="a_node26"><a xlink:href="properties_8h.html" target="_top" xlink:title=" ">
<polygon fill="none" stroke="black" points="1633,-156.5 1633,-197.5 1761,-197.5 1761,-156.5 1633,-156.5"/>
<text text-anchor="start" x="1641" y="-185.5" font-family="Helvetica,sans-Serif" font-size="10.00">/home/runner/work/occ</text>
<text text-anchor="start" x="1641" y="-174.5" font-family="Helvetica,sans-Serif" font-size="10.00">/occ/include/occ/main</text>
<text text-anchor="middle" x="1697" y="-163.5" font-family="Helvetica,sans-Serif" font-size="10.00">/properties.h</text>
</a>
</g>
</g>
<!-- Node16&#45;&gt;Node26 -->
<g id="edge37" class="edge">
<title>Node16&#45;&gt;Node26</title>
<path fill="none" stroke="midnightblue" d="M1640.3,-232.55C1651.68,-221.6 1665.43,-208.37 1676.54,-197.68"/>
<polygon fill="midnightblue" stroke="midnightblue" points="1637.64,-230.25 1632.86,-239.7 1642.49,-235.29 1637.64,-230.25"/>
</g>
<!-- Node27 -->
<g id="node27" class="node">
<title>Node27</title>
<g id="a_node27"><a xlink:href="single__point_8h.html" target="_top" xlink:title=" ">
<polygon fill="none" stroke="black" points="1779,-156.5 1779,-197.5 1907,-197.5 1907,-156.5 1779,-156.5"/>
<text text-anchor="start" x="1787" y="-185.5" font-family="Helvetica,sans-Serif" font-size="10.00">/home/runner/work/occ</text>
<text text-anchor="start" x="1787" y="-174.5" font-family="Helvetica,sans-Serif" font-size="10.00">/occ/include/occ/main</text>
<text text-anchor="middle" x="1843" y="-163.5" font-family="Helvetica,sans-Serif" font-size="10.00">/single_point.h</text>
</a>
</g>
</g>
<!-- Node16&#45;&gt;Node27 -->
<g id="edge38" class="edge">
<title>Node16&#45;&gt;Node27</title>
<path fill="none" stroke="midnightblue" d="M1669.41,-236.64C1703.91,-224.98 1749.42,-209.61 1785.18,-197.53"/>
<polygon fill="midnightblue" stroke="midnightblue" points="1667.88,-233.46 1659.53,-239.97 1670.12,-240.09 1667.88,-233.46"/>
</g>
<!-- Node28 -->
<g id="node28" class="node">
<title>Node28</title>
<g id="a_node28"><a xlink:href="solvation__partition_8h.html" target="_top" xlink:title=" ">
<polygon fill="none" stroke="black" points="1925,-156.5 1925,-197.5 2053,-197.5 2053,-156.5 1925,-156.5"/>
<text text-anchor="start" x="1933" y="-185.5" font-family="Helvetica,sans-Serif" font-size="10.00">/home/runner/work/occ</text>
<text text-anchor="start" x="1933" y="-174.5" font-family="Helvetica,sans-Serif" font-size="10.00">/occ/include/occ/main</text>
<text text-anchor="middle" x="1989" y="-163.5" font-family="Helvetica,sans-Serif" font-size="10.00">/solvation_partition.h</text>
</a>
</g>
</g>
<!-- Node16&#45;&gt;Node28 -->
<g id="edge39" class="edge">
<title>Node16&#45;&gt;Node28</title>
<path fill="none" stroke="midnightblue" d="M1712.85,-238.21C1771.6,-227.93 1848.48,-213.57 1916,-198 1918.95,-197.32 1921.95,-196.6 1924.98,-195.86"/>
<polygon fill="midnightblue" stroke="midnightblue" points="1712.09,-234.79 1702.84,-239.96 1713.29,-241.69 1712.09,-234.79"/>
</g>
<!-- Node17&#45;&gt;Node3 -->
<g id="edge23" class="edge">
<title>Node17&#45;&gt;Node3</title>
<path fill="none" stroke="midnightblue" d="M913.32,-153.42C871.71,-140.67 821.01,-125.13 785.03,-114.11"/>
<polygon fill="midnightblue" stroke="midnightblue" points="912.55,-156.84 923.13,-156.43 914.6,-150.15 912.55,-156.84"/>
</g>
<!-- Node18&#45;&gt;Node19 -->
<g id="edge25" class="edge">
<title>Node18&#45;&gt;Node19</title>
<path fill="none" stroke="midnightblue" d="M2259,-146.3C2259,-137.3 2259,-127.65 2259,-119.51"/>
<polygon fill="midnightblue" stroke="midnightblue" points="2255.5,-146.43 2259,-156.43 2262.5,-146.43 2255.5,-146.43"/>
</g>
<!-- Node19&#45;&gt;Node19 -->
<g id="edge28" class="edge">
<title>Node19&#45;&gt;Node19</title>
<path fill="none" stroke="midnightblue" d="M2333.15,-109.45C2338.04,-107.02 2341,-103.54 2341,-99 2341,-91.92 2333.79,-87.41 2323.29,-85.47"/>
<polygon fill="midnightblue" stroke="midnightblue" points="2331.79,-106.21 2323.29,-112.53 2333.88,-112.89 2331.79,-106.21"/>
</g>
<!-- Node20 -->
<g id="node20" class="node">
<title>Node20</title>
<g id="a_node20"><a xlink:href="occ__cg_8h.html" target="_top" xlink:title=" ">
<polygon fill="none" stroke="black" points="2122,-0.5 2122,-41.5 2250,-41.5 2250,-0.5 2122,-0.5"/>
<text text-anchor="start" x="2130" y="-29.5" font-family="Helvetica,sans-Serif" font-size="10.00">/home/runner/work/occ</text>
<text text-anchor="start" x="2130" y="-18.5" font-family="Helvetica,sans-Serif" font-size="10.00">/occ/include/occ/main</text>
<text text-anchor="middle" x="2186" y="-7.5" font-family="Helvetica,sans-Serif" font-size="10.00">/occ_cg.h</text>
</a>
</g>
</g>
<!-- Node19&#45;&gt;Node20 -->
<g id="edge26" class="edge">
<title>Node19&#45;&gt;Node20</title>
<path fill="none" stroke="midnightblue" d="M2233.26,-71.2C2223.86,-61.42 2213.41,-50.54 2204.74,-41.51"/>
<polygon fill="midnightblue" stroke="midnightblue" points="2230.75,-73.64 2240.2,-78.43 2235.8,-68.79 2230.75,-73.64"/>
</g>
<!-- Node21 -->
<g id="node21" class="node">
<title>Node21</title>
<g id="a_node21"><a xlink:href="occ__elat_8h.html" target="_top" xlink:title=" ">
<polygon fill="none" stroke="black" points="2268,-0.5 2268,-41.5 2396,-41.5 2396,-0.5 2268,-0.5"/>
<text text-anchor="start" x="2276" y="-29.5" font-family="Helvetica,sans-Serif" font-size="10.00">/home/runner/work/occ</text>
<text text-anchor="start" x="2276" y="-18.5" font-family="Helvetica,sans-Serif" font-size="10.00">/occ/include/occ/main</text>
<text text-anchor="middle" x="2332" y="-7.5" font-family="Helvetica,sans-Serif" font-size="10.00">/occ_elat.h</text>
</a>
</g>
</g>
<!-- Node19&#45;&gt;Node21 -->
<g id="edge27" class="edge">
<title>Node19&#45;&gt;Node21</title>
<path fill="none" stroke="midnightblue" d="M2284.74,-71.2C2294.14,-61.42 2304.59,-50.54 2313.26,-41.51"/>
<polygon fill="midnightblue" stroke="midnightblue" points="2282.2,-68.79 2277.8,-78.43 2287.25,-73.64 2282.2,-68.79"/>
</g>
<!-- Node23&#45;&gt;Node11 -->
<g id="edge32" class="edge">
<title>Node23&#45;&gt;Node11</title>
<path fill="none" stroke="midnightblue" d="M2053.55,-73.91C2032.1,-63.46 2007.31,-51.38 1987.04,-41.51"/>
<polygon fill="midnightblue" stroke="midnightblue" points="2052.3,-77.19 2062.83,-78.43 2055.37,-70.9 2052.3,-77.19"/>
</g>
</g>
</svg>
