<?xml version="1.0" encoding="UTF-8" standalone="no"?>
<!DOCTYPE svg PUBLIC "-//W3C//DTD SVG 1.1//EN"
 "http://www.w3.org/Graphics/SVG/1.1/DTD/svg11.dtd">
<!-- Generated by graphviz version 2.43.0 (0)
 -->
<!-- Title: /home/runner/work/occ/occ/include/occ/io/orca_json.h Pages: 1 -->
<svg width="1351pt" height="324pt"
 viewBox="0.00 0.00 1350.50 324.00" xmlns="http://www.w3.org/2000/svg" xmlns:xlink="http://www.w3.org/1999/xlink">
<g id="graph0" class="graph" transform="scale(1 1) rotate(0) translate(4 320)">
<title>/home/runner/work/occ/occ/include/occ/io/orca_json.h</title>
<!-- Node1 -->
<g id="Node000001" class="node">
<title>Node1</title>
<g id="a_Node000001"><a xlink:title=" ">
<polygon fill="#999999" stroke="#666666" points="410.5,-316 280.5,-316 280.5,-275 410.5,-275 410.5,-316"/>
<text text-anchor="start" x="288.5" y="-304" font-family="Helvetica,sans-Serif" font-size="10.00">/home/runner/work/occ</text>
<text text-anchor="start" x="288.5" y="-293" font-family="Helvetica,sans-Serif" font-size="10.00">/occ/include/occ/io/orca</text>
<text text-anchor="middle" x="345.5" y="-282" font-family="Helvetica,sans-Serif" font-size="10.00">_json.h</text>
</a>
</g>
</g>
<!-- Node2 -->
<g id="Node000002" class="node">
<title>Node2</title>
<g id="a_Node000002"><a xlink:title=" ">
<polygon fill="#e0e0e0" stroke="#999999" points="55,-239 0,-239 0,-220 55,-220 55,-239"/>
<text text-anchor="middle" x="27.5" y="-227" font-family="Helvetica,sans-Serif" font-size="10.00">fstream</text>
</a>
</g>
</g>
<!-- Node1&#45;&gt;Node2 -->
<g id="edge1_Node000001_Node000002" class="edge">
<title>Node1&#45;&gt;Node2</title>
<g id="a_edge1_Node000001_Node000002"><a xlink:title=" ">
<path fill="none" stroke="#63b8ff" d="M280.37,-282.23C225.68,-271.78 145.23,-256.11 65.57,-239.18"/>
<polygon fill="#63b8ff" stroke="#63b8ff" points="65.87,-235.66 55.36,-237 64.41,-242.51 65.87,-235.66"/>
</a>
</g>
</g>
<!-- Node3 -->
<g id="Node000003" class="node">
<title>Node3</title>
<g id="a_Node000003"><a xlink:title=" ">
<polygon fill="#e0e0e0" stroke="#999999" points="127.5,-239 73.5,-239 73.5,-220 127.5,-220 127.5,-239"/>
<text text-anchor="middle" x="100.5" y="-227" font-family="Helvetica,sans-Serif" font-size="10.00">istream</text>
</a>
</g>
</g>
<!-- Node1&#45;&gt;Node3 -->
<g id="edge2_Node000001_Node000003" class="edge">
<title>Node1&#45;&gt;Node3</title>
<g id="a_edge2_Node000001_Node000003"><a xlink:title=" ">
<path fill="none" stroke="#63b8ff" d="M280.49,-277.52C234.88,-265.6 175.51,-250.09 137.69,-240.22"/>
<polygon fill="#63b8ff" stroke="#63b8ff" points="138.19,-236.73 127.63,-237.59 136.42,-243.5 138.19,-236.73"/>
</a>
</g>
</g>
<!-- Node4 -->
<g id="Node000004" class="node">
<title>Node4</title>
<g id="a_Node000004"><a xlink:href="atom_8h.html" target="_top" xlink:title=" ">
<polygon fill="white" stroke="#666666" points="331,-129 236,-129 236,-110 331,-110 331,-129"/>
<text text-anchor="middle" x="283.5" y="-117" font-family="Helvetica,sans-Serif" font-size="10.00">occ/core/atom.h</text>
</a>
</g>
</g>
<!-- Node1&#45;&gt;Node4 -->
<g id="edge3_Node000001_Node000004" class="edge">
<title>Node1&#45;&gt;Node4</title>
<g id="a_edge3_Node000001_Node000004"><a xlink:title=" ">
<path fill="none" stroke="#63b8ff" d="M317.97,-274.89C292.91,-255.19 257.59,-222.31 242.5,-184 235.47,-166.14 249.86,-147.95 263.49,-135.65"/>
<polygon fill="#63b8ff" stroke="#63b8ff" points="265.85,-138.24 271.26,-129.13 261.35,-132.88 265.85,-138.24"/>
</a>
</g>
</g>
<!-- Node5 -->
<g id="Node000005" class="node">
<title>Node5</title>
<g id="a_Node000005"><a xlink:href="linear__algebra_8h.html" target="_top" xlink:title=" ">
<polygon fill="white" stroke="#666666" points="545,-74 406,-74 406,-55 545,-55 545,-74"/>
<text text-anchor="middle" x="475.5" y="-62" font-family="Helvetica,sans-Serif" font-size="10.00">occ/core/linear_algebra.h</text>
</a>
</g>
</g>
<!-- Node1&#45;&gt;Node5 -->
<g id="edge8_Node000001_Node000005" class="edge">
<title>Node1&#45;&gt;Node5</title>
<g id="a_edge8_Node000001_Node000005"><a xlink:title=" ">
<path fill="none" stroke="#63b8ff" d="M305.33,-274.97C289.71,-265.79 272.68,-253.63 260.5,-239 222.57,-193.43 188.44,-155.46 226.5,-110 247.87,-84.47 331.29,-73.57 395.75,-68.93"/>
<polygon fill="#63b8ff" stroke="#63b8ff" points="396.18,-72.41 405.92,-68.24 395.71,-65.42 396.18,-72.41"/>
</a>
</g>
</g>
<!-- Node9 -->
<g id="Node000009" class="node">
<title>Node9</title>
<g id="a_Node000009"><a xlink:href="shell_8h.html" target="_top" xlink:title=" ">
<polygon fill="white" stroke="#666666" points="541,-239 454,-239 454,-220 541,-220 541,-239"/>
<text text-anchor="middle" x="497.5" y="-227" font-family="Helvetica,sans-Serif" font-size="10.00">occ/qm/shell.h</text>
</a>
</g>
</g>
<!-- Node1&#45;&gt;Node9 -->
<g id="edge9_Node000001_Node000009" class="edge">
<title>Node1&#45;&gt;Node9</title>
<g id="a_edge9_Node000001_Node000009"><a xlink:title=" ">
<path fill="none" stroke="#63b8ff" d="M391.93,-274.95C416.61,-264.56 446.22,-252.09 467.8,-243.01"/>
<polygon fill="#63b8ff" stroke="#63b8ff" points="469.24,-246.2 477.09,-239.09 466.52,-239.75 469.24,-246.2"/>
</a>
</g>
</g>
<!-- Node20 -->
<g id="Node000020" class="node">
<title>Node20</title>
<g id="a_Node000020"><a xlink:title=" ">
<polygon fill="#e0e0e0" stroke="#999999" points="1342.5,-129 1298.5,-129 1298.5,-110 1342.5,-110 1342.5,-129"/>
<text text-anchor="middle" x="1320.5" y="-117" font-family="Helvetica,sans-Serif" font-size="10.00">string</text>
</a>
</g>
</g>
<!-- Node1&#45;&gt;Node20 -->
<g id="edge36_Node000001_Node000020" class="edge">
<title>Node1&#45;&gt;Node20</title>
<g id="a_edge36_Node000001_Node000020"><a xlink:title=" ">
<path fill="none" stroke="#63b8ff" d="M410.51,-295.09C591.19,-296.02 1096.21,-293.52 1251.5,-239 1291.52,-224.95 1309.98,-221.66 1329.5,-184 1336.78,-169.96 1333.21,-151.95 1328.59,-138.7"/>
<polygon fill="#63b8ff" stroke="#63b8ff" points="1331.79,-137.27 1324.85,-129.26 1325.28,-139.85 1331.79,-137.27"/>
</a>
</g>
</g>
<!-- Node21 -->
<g id="Node000021" class="node">
<title>Node21</title>
<g id="a_Node000021"><a xlink:title=" ">
<polygon fill="#e0e0e0" stroke="#999999" points="649,-129 602,-129 602,-110 649,-110 649,-129"/>
<text text-anchor="middle" x="625.5" y="-117" font-family="Helvetica,sans-Serif" font-size="10.00">vector</text>
</a>
</g>
</g>
<!-- Node1&#45;&gt;Node21 -->
<g id="edge37_Node000001_Node000021" class="edge">
<title>Node1&#45;&gt;Node21</title>
<g id="a_edge37_Node000001_Node000021"><a xlink:title=" ">
<path fill="none" stroke="#63b8ff" d="M410.52,-284.97C452.15,-276.94 506.27,-262.83 549.5,-239 581.18,-221.54 590.97,-215.07 609.5,-184 617.61,-170.41 621.63,-152.82 623.61,-139.6"/>
<polygon fill="#63b8ff" stroke="#63b8ff" points="627.13,-139.67 624.88,-129.32 620.18,-138.82 627.13,-139.67"/>
</a>
</g>
</g>
<!-- Node22 -->
<g id="Node000022" class="node">
<title>Node22</title>
<g id="a_Node000022"><a xlink:href="spinorbital_8h.html" target="_top" xlink:title=" ">
<polygon fill="white" stroke="#666666" points="1242.5,-239 1126.5,-239 1126.5,-220 1242.5,-220 1242.5,-239"/>
<text text-anchor="middle" x="1184.5" y="-227" font-family="Helvetica,sans-Serif" font-size="10.00">occ/qm/spinorbital.h</text>
</a>
</g>
</g>
<!-- Node1&#45;&gt;Node22 -->
<g id="edge31_Node000001_Node000022" class="edge">
<title>Node1&#45;&gt;Node22</title>
<g id="a_edge31_Node000001_Node000022"><a xlink:title=" ">
<path fill="none" stroke="#63b8ff" d="M410.64,-289.53C566.14,-277.67 957.85,-247.79 1116.35,-235.7"/>
<polygon fill="#63b8ff" stroke="#63b8ff" points="1116.75,-239.18 1126.45,-234.93 1116.21,-232.2 1116.75,-239.18"/>
</a>
</g>
</g>
<!-- Node4&#45;&gt;Node5 -->
<g id="edge4_Node000004_Node000005" class="edge">
<title>Node4&#45;&gt;Node5</title>
<g id="a_edge4_Node000004_Node000005"><a xlink:title=" ">
<path fill="none" stroke="#63b8ff" d="M314.35,-109.98C347,-100.97 398.7,-86.7 434.7,-76.76"/>
<polygon fill="#63b8ff" stroke="#63b8ff" points="435.7,-80.12 444.41,-74.08 433.84,-73.37 435.7,-80.12"/>
</a>
</g>
</g>
<!-- Node6 -->
<g id="Node000006" class="node">
<title>Node6</title>
<g id="a_Node000006"><a xlink:title=" ">
<polygon fill="#e0e0e0" stroke="#999999" points="411,-19 334,-19 334,0 411,0 411,-19"/>
<text text-anchor="middle" x="372.5" y="-7" font-family="Helvetica,sans-Serif" font-size="10.00">Eigen/Dense</text>
</a>
</g>
</g>
<!-- Node5&#45;&gt;Node6 -->
<g id="edge5_Node000005_Node000006" class="edge">
<title>Node5&#45;&gt;Node6</title>
<g id="a_edge5_Node000005_Node000006"><a xlink:title=" ">
<path fill="none" stroke="#63b8ff" d="M458.95,-54.98C442.61,-46.57 417.37,-33.59 398.37,-23.81"/>
<polygon fill="#63b8ff" stroke="#63b8ff" points="399.84,-20.63 389.35,-19.17 396.64,-26.86 399.84,-20.63"/>
</a>
</g>
</g>
<!-- Node7 -->
<g id="Node000007" class="node">
<title>Node7</title>
<g id="a_Node000007"><a xlink:title=" ">
<polygon fill="#e0e0e0" stroke="#999999" points="522,-19 429,-19 429,0 522,0 522,-19"/>
<text text-anchor="middle" x="475.5" y="-7" font-family="Helvetica,sans-Serif" font-size="10.00">Eigen/StdVector</text>
</a>
</g>
</g>
<!-- Node5&#45;&gt;Node7 -->
<g id="edge6_Node000005_Node000007" class="edge">
<title>Node5&#45;&gt;Node7</title>
<g id="a_edge6_Node000005_Node000007"><a xlink:title=" ">
<path fill="none" stroke="#63b8ff" d="M475.5,-54.75C475.5,-47.8 475.5,-37.85 475.5,-29.13"/>
<polygon fill="#63b8ff" stroke="#63b8ff" points="479,-29.09 475.5,-19.09 472,-29.09 479,-29.09"/>
</a>
</g>
</g>
<!-- Node8 -->
<g id="Node000008" class="node">
<title>Node8</title>
<g id="a_Node000008"><a xlink:title=" ">
<polygon fill="#e0e0e0" stroke="#999999" points="607,-19 540,-19 540,0 607,0 607,-19"/>
<text text-anchor="middle" x="573.5" y="-7" font-family="Helvetica,sans-Serif" font-size="10.00">fmt/core.h</text>
</a>
</g>
</g>
<!-- Node5&#45;&gt;Node8 -->
<g id="edge7_Node000005_Node000008" class="edge">
<title>Node5&#45;&gt;Node8</title>
<g id="a_edge7_Node000005_Node000008"><a xlink:title=" ">
<path fill="none" stroke="#63b8ff" d="M491.25,-54.98C506.73,-46.61 530.59,-33.7 548.64,-23.95"/>
<polygon fill="#63b8ff" stroke="#63b8ff" points="550.34,-27.01 557.47,-19.17 547.01,-20.85 550.34,-27.01"/>
</a>
</g>
</g>
<!-- Node9&#45;&gt;Node4 -->
<g id="edge13_Node000009_Node000004" class="edge">
<title>Node9&#45;&gt;Node4</title>
<g id="a_edge13_Node000009_Node000004"><a xlink:title=" ">
<path fill="none" stroke="#63b8ff" d="M453.89,-227.12C390.04,-224.08 275.93,-214.42 250.5,-184 238.38,-169.5 252.32,-149.81 265.63,-136.21"/>
<polygon fill="#63b8ff" stroke="#63b8ff" points="268.37,-138.44 273.19,-129 263.53,-133.37 268.37,-138.44"/>
</a>
</g>
</g>
<!-- Node9&#45;&gt;Node5 -->
<g id="edge14_Node000009_Node000005" class="edge">
<title>Node9&#45;&gt;Node5</title>
<g id="a_edge14_Node000009_Node000005"><a xlink:title=" ">
<path fill="none" stroke="#63b8ff" d="M500.61,-219.9C507.32,-200 521.53,-149.43 508.5,-110 505.04,-99.54 498.07,-89.53 491.42,-81.66"/>
<polygon fill="#63b8ff" stroke="#63b8ff" points="493.83,-79.1 484.52,-74.04 488.64,-83.8 493.83,-79.1"/>
</a>
</g>
</g>
<!-- Node9&#45;&gt;Node8 -->
<g id="edge11_Node000009_Node000008" class="edge">
<title>Node9&#45;&gt;Node8</title>
<g id="a_edge11_Node000009_Node000008"><a xlink:title=" ">
<path fill="none" stroke="#63b8ff" d="M504.38,-219.78C510.89,-211.13 520.54,-197.3 526.5,-184 550.57,-130.24 564.7,-61.44 570.46,-29"/>
<polygon fill="#63b8ff" stroke="#63b8ff" points="573.91,-29.57 572.15,-19.13 567.01,-28.39 573.91,-29.57"/>
</a>
</g>
</g>
<!-- Node10 -->
<g id="Node000010" class="node">
<title>Node10</title>
<g id="a_Node000010"><a xlink:title=" ">
<polygon fill="#e0e0e0" stroke="#999999" points="499.5,-129 457.5,-129 457.5,-110 499.5,-110 499.5,-129"/>
<text text-anchor="middle" x="478.5" y="-117" font-family="Helvetica,sans-Serif" font-size="10.00">array</text>
</a>
</g>
</g>
<!-- Node9&#45;&gt;Node10 -->
<g id="edge10_Node000009_Node000010" class="edge">
<title>Node9&#45;&gt;Node10</title>
<g id="a_edge10_Node000009_Node000010"><a xlink:title=" ">
<path fill="none" stroke="#63b8ff" d="M495.95,-219.66C492.87,-202.17 485.94,-162.8 481.8,-139.27"/>
<polygon fill="#63b8ff" stroke="#63b8ff" points="485.2,-138.4 480.02,-129.16 478.31,-139.61 485.2,-138.4"/>
</a>
</g>
</g>
<!-- Node11 -->
<g id="Node000011" class="node">
<title>Node11</title>
<g id="a_Node000011"><a xlink:title=" ">
<polygon fill="#e0e0e0" stroke="#999999" points="319.5,-184 259.5,-184 259.5,-165 319.5,-165 319.5,-184"/>
<text text-anchor="middle" x="289.5" y="-172" font-family="Helvetica,sans-Serif" font-size="10.00">iostream</text>
</a>
</g>
</g>
<!-- Node9&#45;&gt;Node11 -->
<g id="edge12_Node000009_Node000011" class="edge">
<title>Node9&#45;&gt;Node11</title>
<g id="a_edge12_Node000009_Node000011"><a xlink:title=" ">
<path fill="none" stroke="#63b8ff" d="M464.08,-219.98C427.42,-210.64 368.61,-195.66 329.52,-185.7"/>
<polygon fill="#63b8ff" stroke="#63b8ff" points="330.35,-182.3 319.79,-183.22 328.62,-189.08 330.35,-182.3"/>
</a>
</g>
</g>
<!-- Node12 -->
<g id="Node000012" class="node">
<title>Node12</title>
<g id="a_Node000012"><a xlink:href="point__charge_8h.html" target="_top" xlink:title=" ">
<polygon fill="white" stroke="#666666" points="469.5,-184 337.5,-184 337.5,-165 469.5,-165 469.5,-184"/>
<text text-anchor="middle" x="403.5" y="-172" font-family="Helvetica,sans-Serif" font-size="10.00">occ/core/point_charge.h</text>
</a>
</g>
</g>
<!-- Node9&#45;&gt;Node12 -->
<g id="edge15_Node000009_Node000012" class="edge">
<title>Node9&#45;&gt;Node12</title>
<g id="a_edge15_Node000009_Node000012"><a xlink:title=" ">
<path fill="none" stroke="#63b8ff" d="M482.4,-219.98C467.68,-211.69 445.08,-198.94 427.83,-189.22"/>
<polygon fill="#63b8ff" stroke="#63b8ff" points="429.31,-186.03 418.88,-184.17 425.87,-192.13 429.31,-186.03"/>
</a>
</g>
</g>
<!-- Node13 -->
<g id="Node000013" class="node">
<title>Node13</title>
<g id="a_Node000013"><a xlink:href="util_8h.html" target="_top" xlink:title=" ">
<polygon fill="white" stroke="#666666" points="955,-184 870,-184 870,-165 955,-165 955,-184"/>
<text text-anchor="middle" x="912.5" y="-172" font-family="Helvetica,sans-Serif" font-size="10.00">occ/core/util.h</text>
</a>
</g>
</g>
<!-- Node9&#45;&gt;Node13 -->
<g id="edge19_Node000009_Node000013" class="edge">
<title>Node9&#45;&gt;Node13</title>
<g id="a_edge19_Node000009_Node000013"><a xlink:title=" ">
<path fill="none" stroke="#63b8ff" d="M541.13,-222.93C617.94,-213.12 777.01,-192.8 859.81,-182.23"/>
<polygon fill="#63b8ff" stroke="#63b8ff" points="860.29,-185.7 869.77,-180.96 859.4,-178.75 860.29,-185.7"/>
</a>
</g>
</g>
<!-- Node9&#45;&gt;Node21 -->
<g id="edge30_Node000009_Node000021" class="edge">
<title>Node9&#45;&gt;Node21</title>
<g id="a_edge30_Node000009_Node000021"><a xlink:title=" ">
<path fill="none" stroke="#63b8ff" d="M524.33,-219.87C543.61,-212.64 569.31,-200.79 587.5,-184 601.19,-171.36 611.57,-152.66 617.99,-138.83"/>
<polygon fill="#63b8ff" stroke="#63b8ff" points="621.32,-139.94 622.12,-129.37 614.91,-137.14 621.32,-139.94"/>
</a>
</g>
</g>
<!-- Node12&#45;&gt;Node4 -->
<g id="edge17_Node000012_Node000004" class="edge">
<title>Node12&#45;&gt;Node4</title>
<g id="a_edge17_Node000012_Node000004"><a xlink:title=" ">
<path fill="none" stroke="#63b8ff" d="M384.22,-164.98C364.83,-156.42 334.69,-143.11 312.43,-133.28"/>
<polygon fill="#63b8ff" stroke="#63b8ff" points="313.69,-130.01 303.13,-129.17 310.86,-136.41 313.69,-130.01"/>
</a>
</g>
</g>
<!-- Node12&#45;&gt;Node5 -->
<g id="edge18_Node000012_Node000005" class="edge">
<title>Node12&#45;&gt;Node5</title>
<g id="a_edge18_Node000012_Node000005"><a xlink:title=" ">
<path fill="none" stroke="#63b8ff" d="M409.39,-164.66C421.32,-146.77 448.5,-106 464.04,-82.69"/>
<polygon fill="#63b8ff" stroke="#63b8ff" points="467.09,-84.42 469.73,-74.16 461.27,-80.54 467.09,-84.42"/>
</a>
</g>
</g>
<!-- Node12&#45;&gt;Node10 -->
<g id="edge16_Node000012_Node000010" class="edge">
<title>Node12&#45;&gt;Node10</title>
<g id="a_edge16_Node000012_Node000010"><a xlink:title=" ">
<path fill="none" stroke="#63b8ff" d="M415.55,-164.98C426.96,-156.92 444.33,-144.65 457.93,-135.03"/>
<polygon fill="#63b8ff" stroke="#63b8ff" points="460.08,-137.8 466.23,-129.17 456.04,-132.08 460.08,-137.8"/>
</a>
</g>
</g>
<!-- Node13&#45;&gt;Node5 -->
<g id="edge27_Node000013_Node000005" class="edge">
<title>Node13&#45;&gt;Node5</title>
<g id="a_edge27_Node000013_Node000005"><a xlink:title=" ">
<path fill="none" stroke="#63b8ff" d="M869.86,-167.93C825.68,-161.43 755.03,-148.94 696.5,-129 678.25,-122.78 675.63,-116.55 657.5,-110 616.53,-95.2 568.62,-83.71 532.25,-76.11"/>
<polygon fill="#63b8ff" stroke="#63b8ff" points="532.81,-72.66 522.31,-74.08 531.4,-79.51 532.81,-72.66"/>
</a>
</g>
</g>
<!-- Node13&#45;&gt;Node8 -->
<g id="edge23_Node000013_Node000008" class="edge">
<title>Node13&#45;&gt;Node8</title>
<g id="a_edge23_Node000013_Node000008"><a xlink:title=" ">
<path fill="none" stroke="#63b8ff" d="M955.07,-172.06C1018.04,-168.94 1131.33,-159.17 1156.5,-129 1161.91,-122.52 1161.95,-116.45 1156.5,-110 1087.17,-27.84 741.2,-13.52 617.53,-11.02"/>
<polygon fill="#63b8ff" stroke="#63b8ff" points="617.36,-7.52 607.3,-10.83 617.23,-14.52 617.36,-7.52"/>
</a>
</g>
</g>
<!-- Node14 -->
<g id="Node000014" class="node">
<title>Node14</title>
<g id="a_Node000014"><a xlink:title=" ">
<polygon fill="#e0e0e0" stroke="#999999" points="907.5,-129 843.5,-129 843.5,-110 907.5,-110 907.5,-129"/>
<text text-anchor="middle" x="875.5" y="-117" font-family="Helvetica,sans-Serif" font-size="10.00">algorithm</text>
</a>
</g>
</g>
<!-- Node13&#45;&gt;Node14 -->
<g id="edge20_Node000013_Node000014" class="edge">
<title>Node13&#45;&gt;Node14</title>
<g id="a_edge20_Node000013_Node000014"><a xlink:title=" ">
<path fill="none" stroke="#63b8ff" d="M906.39,-164.75C901.22,-157.34 893.65,-146.5 887.31,-137.41"/>
<polygon fill="#63b8ff" stroke="#63b8ff" points="890.09,-135.29 881.5,-129.09 884.35,-139.29 890.09,-135.29"/>
</a>
</g>
</g>
<!-- Node15 -->
<g id="Node000015" class="node">
<title>Node15</title>
<g id="a_Node000015"><a xlink:title=" ">
<polygon fill="#e0e0e0" stroke="#999999" points="975,-129 926,-129 926,-110 975,-110 975,-129"/>
<text text-anchor="middle" x="950.5" y="-117" font-family="Helvetica,sans-Serif" font-size="10.00">cctype</text>
</a>
</g>
</g>
<!-- Node13&#45;&gt;Node15 -->
<g id="edge21_Node000013_Node000015" class="edge">
<title>Node13&#45;&gt;Node15</title>
<g id="a_edge21_Node000013_Node000015"><a xlink:title=" ">
<path fill="none" stroke="#63b8ff" d="M918.77,-164.75C924.09,-157.34 931.86,-146.5 938.38,-137.41"/>
<polygon fill="#63b8ff" stroke="#63b8ff" points="941.36,-139.26 944.34,-129.09 935.67,-135.18 941.36,-139.26"/>
</a>
</g>
</g>
<!-- Node16 -->
<g id="Node000016" class="node">
<title>Node16</title>
<g id="a_Node000016"><a xlink:title=" ">
<polygon fill="#e0e0e0" stroke="#999999" points="1043.5,-129 993.5,-129 993.5,-110 1043.5,-110 1043.5,-129"/>
<text text-anchor="middle" x="1018.5" y="-117" font-family="Helvetica,sans-Serif" font-size="10.00">chrono</text>
</a>
</g>
</g>
<!-- Node13&#45;&gt;Node16 -->
<g id="edge22_Node000013_Node000016" class="edge">
<title>Node13&#45;&gt;Node16</title>
<g id="a_edge22_Node000013_Node000016"><a xlink:title=" ">
<path fill="none" stroke="#63b8ff" d="M929.53,-164.98C946.43,-156.54 972.56,-143.47 992.14,-133.68"/>
<polygon fill="#63b8ff" stroke="#63b8ff" points="993.78,-136.77 1001.16,-129.17 990.65,-130.51 993.78,-136.77"/>
</a>
</g>
</g>
<!-- Node17 -->
<g id="Node000017" class="node">
<title>Node17</title>
<g id="a_Node000017"><a xlink:title=" ">
<polygon fill="#e0e0e0" stroke="#999999" points="1147.5,-129 1061.5,-129 1061.5,-110 1147.5,-110 1147.5,-129"/>
<text text-anchor="middle" x="1104.5" y="-117" font-family="Helvetica,sans-Serif" font-size="10.00">fmt/ostream.h</text>
</a>
</g>
</g>
<!-- Node13&#45;&gt;Node17 -->
<g id="edge24_Node000013_Node000017" class="edge">
<title>Node13&#45;&gt;Node17</title>
<g id="a_edge24_Node000013_Node000017"><a xlink:title=" ">
<path fill="none" stroke="#63b8ff" d="M943.35,-164.98C976,-155.97 1027.7,-141.7 1063.7,-131.76"/>
<polygon fill="#63b8ff" stroke="#63b8ff" points="1064.7,-135.12 1073.41,-129.08 1062.84,-128.37 1064.7,-135.12"/>
</a>
</g>
</g>
<!-- Node18 -->
<g id="Node000018" class="node">
<title>Node18</title>
<g id="a_Node000018"><a xlink:title=" ">
<polygon fill="#e0e0e0" stroke="#999999" points="751.5,-129 705.5,-129 705.5,-110 751.5,-110 751.5,-129"/>
<text text-anchor="middle" x="728.5" y="-117" font-family="Helvetica,sans-Serif" font-size="10.00">locale</text>
</a>
</g>
</g>
<!-- Node13&#45;&gt;Node18 -->
<g id="edge25_Node000013_Node000018" class="edge">
<title>Node13&#45;&gt;Node18</title>
<g id="a_edge25_Node000013_Node000018"><a xlink:title=" ">
<path fill="none" stroke="#63b8ff" d="M882.94,-164.98C849.65,-155.4 795.72,-139.86 761.2,-129.92"/>
<polygon fill="#63b8ff" stroke="#63b8ff" points="762.16,-126.55 751.58,-127.15 760.22,-133.28 762.16,-126.55"/>
</a>
</g>
</g>
<!-- Node19 -->
<g id="Node000019" class="node">
<title>Node19</title>
<g id="a_Node000019"><a xlink:title=" ">
<polygon fill="#e0e0e0" stroke="#999999" points="825.5,-129 769.5,-129 769.5,-110 825.5,-110 825.5,-129"/>
<text text-anchor="middle" x="797.5" y="-117" font-family="Helvetica,sans-Serif" font-size="10.00">numeric</text>
</a>
</g>
</g>
<!-- Node13&#45;&gt;Node19 -->
<g id="edge26_Node000013_Node000019" class="edge">
<title>Node13&#45;&gt;Node19</title>
<g id="a_edge26_Node000013_Node000019"><a xlink:title=" ">
<path fill="none" stroke="#63b8ff" d="M894.02,-164.98C875.52,-156.46 846.82,-143.23 825.52,-133.41"/>
<polygon fill="#63b8ff" stroke="#63b8ff" points="826.86,-130.18 816.31,-129.17 823.93,-136.53 826.86,-130.18"/>
</a>
</g>
</g>
<!-- Node13&#45;&gt;Node20 -->
<g id="edge28_Node000013_Node000020" class="edge">
<title>Node13&#45;&gt;Node20</title>
<g id="a_edge28_Node000013_Node000020"><a xlink:title=" ">
<path fill="none" stroke="#63b8ff" d="M955.01,-167.98C1036.91,-157.34 1214.93,-134.21 1288.1,-124.71"/>
<polygon fill="#63b8ff" stroke="#63b8ff" points="1288.64,-128.17 1298.11,-123.41 1287.74,-121.23 1288.64,-128.17"/>
</a>
</g>
</g>
<!-- Node13&#45;&gt;Node21 -->
<g id="edge29_Node000013_Node000021" class="edge">
<title>Node13&#45;&gt;Node21</title>
<g id="a_edge29_Node000013_Node000021"><a xlink:title=" ">
<path fill="none" stroke="#63b8ff" d="M869.66,-166.42C819.96,-158.08 735.61,-143.5 663.5,-129 662.05,-128.71 660.57,-128.4 659.08,-128.09"/>
<polygon fill="#63b8ff" stroke="#63b8ff" points="659.7,-124.65 649.18,-125.96 658.22,-131.49 659.7,-124.65"/>
</a>
</g>
</g>
<!-- Node22&#45;&gt;Node5 -->
<g id="edge32_Node000022_Node000005" class="edge">
<title>Node22&#45;&gt;Node5</title>
<g id="a_edge32_Node000022_Node000005"><a xlink:title=" ">
<path fill="none" stroke="#63b8ff" d="M1185.52,-219.92C1187.62,-197.72 1189.75,-138.12 1156.5,-110 1111.51,-71.95 725.2,-66.16 555.22,-65.48"/>
<polygon fill="#63b8ff" stroke="#63b8ff" points="555.09,-61.98 545.08,-65.44 555.06,-68.98 555.09,-61.98"/>
</a>
</g>
</g>
<!-- Node22&#45;&gt;Node13 -->
<g id="edge33_Node000022_Node000013" class="edge">
<title>Node22&#45;&gt;Node13</title>
<g id="a_edge33_Node000022_Node000013"><a xlink:title=" ">
<path fill="none" stroke="#63b8ff" d="M1140.8,-219.98C1092.93,-210.66 1016.18,-195.7 965.06,-185.74"/>
<polygon fill="#63b8ff" stroke="#63b8ff" points="965.68,-182.3 955.2,-183.82 964.34,-189.17 965.68,-182.3"/>
</a>
</g>
</g>
<!-- Node23 -->
<g id="Node000023" class="node">
<title>Node23</title>
<g id="a_Node000023"><a xlink:href="qm_2opmatrix_8h.html" target="_top" xlink:title=" ">
<polygon fill="white" stroke="#666666" points="1320.5,-184 1212.5,-184 1212.5,-165 1320.5,-165 1320.5,-184"/>
<text text-anchor="middle" x="1266.5" y="-172" font-family="Helvetica,sans-Serif" font-size="10.00">occ/qm/opmatrix.h</text>
</a>
</g>
</g>
<!-- Node22&#45;&gt;Node23 -->
<g id="edge34_Node000022_Node000023" class="edge">
<title>Node22&#45;&gt;Node23</title>
<g id="a_edge34_Node000022_Node000023"><a xlink:title=" ">
<path fill="none" stroke="#63b8ff" d="M1192.56,-219.98C1203.56,-211.69 1222.99,-198.94 1239.28,-189.22"/>
<polygon fill="#63b8ff" stroke="#63b8ff" points="1241.06,-192.23 1247.94,-184.17 1237.53,-186.18 1241.06,-192.23"/>
</a>
</g>
</g>
<!-- Node23&#45;&gt;Node22 -->
<g id="edge35_Node000023_Node000022" class="edge">
<title>Node23&#45;&gt;Node22</title>
<g id="a_edge35_Node000023_Node000022"><a xlink:title=" ">
<path fill="none" stroke="#63b8ff" d="M1258.23,-184.17C1247.23,-192.44 1228.02,-205.04 1211.87,-214.7"/>
<polygon fill="#63b8ff" stroke="#63b8ff" points="1209.67,-211.93 1202.79,-219.98 1213.19,-217.97 1209.67,-211.93"/>
</a>
</g>
</g>
</g>
</svg>
