<?xml version="1.0" encoding="UTF-8" standalone="no"?>
<!DOCTYPE svg PUBLIC "-//W3C//DTD SVG 1.1//EN"
 "http://www.w3.org/Graphics/SVG/1.1/DTD/svg11.dtd">
<!-- Generated by graphviz version 2.43.0 (0)
 -->
<!-- Title: /home/runner/work/occ/occ/include/occ/interaction/pair_energy.h Pages: 1 -->
<svg width="428pt" height="126pt"
 viewBox="0.00 0.00 428.00 126.00" xmlns="http://www.w3.org/2000/svg" xmlns:xlink="http://www.w3.org/1999/xlink">
<g id="graph0" class="graph" transform="scale(1 1) rotate(0) translate(4 122)">
<title>/home/runner/work/occ/occ/include/occ/interaction/pair_energy.h</title>
<!-- Node1 -->
<g id="Node000001" class="node">
<title>Node1</title>
<g id="a_Node000001"><a xlink:title=" ">
<polygon fill="#999999" stroke="#666666" points="284.5,-118 135.5,-118 135.5,-77 284.5,-77 284.5,-118"/>
<text text-anchor="start" x="143.5" y="-106" font-family="Helvetica,sans-Serif" font-size="10.00">/home/runner/work/occ</text>
<text text-anchor="start" x="143.5" y="-95" font-family="Helvetica,sans-Serif" font-size="10.00">/occ/include/occ/interaction</text>
<text text-anchor="middle" x="210" y="-84" font-family="Helvetica,sans-Serif" font-size="10.00">/pair_energy.h</text>
</a>
</g>
</g>
<!-- Node2 -->
<g id="Node000002" class="node">
<title>Node2</title>
<g id="a_Node000002"><a xlink:href="crystal__growth_8h.html" target="_top" xlink:title=" ">
<polygon fill="white" stroke="#666666" points="128,-41 0,-41 0,0 128,0 128,-41"/>
<text text-anchor="start" x="8" y="-29" font-family="Helvetica,sans-Serif" font-size="10.00">/home/runner/work/occ</text>
<text text-anchor="start" x="8" y="-18" font-family="Helvetica,sans-Serif" font-size="10.00">/occ/include/occ/driver</text>
<text text-anchor="middle" x="64" y="-7" font-family="Helvetica,sans-Serif" font-size="10.00">/crystal_growth.h</text>
</a>
</g>
</g>
<!-- Node1&#45;&gt;Node2 -->
<g id="edge1_Node000001_Node000002" class="edge">
<title>Node1&#45;&gt;Node2</title>
<g id="a_edge1_Node000001_Node000002"><a xlink:title=" ">
<path fill="none" stroke="#63b8ff" d="M162.91,-72.31C143.23,-62.2 120.65,-50.6 102.04,-41.04"/>
<polygon fill="#63b8ff" stroke="#63b8ff" points="161.53,-75.53 172.02,-76.99 164.73,-69.31 161.53,-75.53"/>
</a>
</g>
</g>
<!-- Node3 -->
<g id="Node000003" class="node">
<title>Node3</title>
<g id="a_Node000003"><a xlink:href="occ__cg_8h.html" target="_top" xlink:title=" ">
<polygon fill="white" stroke="#666666" points="274,-41 146,-41 146,0 274,0 274,-41"/>
<text text-anchor="start" x="154" y="-29" font-family="Helvetica,sans-Serif" font-size="10.00">/home/runner/work/occ</text>
<text text-anchor="start" x="154" y="-18" font-family="Helvetica,sans-Serif" font-size="10.00">/occ/include/occ/main</text>
<text text-anchor="middle" x="210" y="-7" font-family="Helvetica,sans-Serif" font-size="10.00">/occ_cg.h</text>
</a>
</g>
</g>
<!-- Node1&#45;&gt;Node3 -->
<g id="edge2_Node000001_Node000003" class="edge">
<title>Node1&#45;&gt;Node3</title>
<g id="a_edge2_Node000001_Node000003"><a xlink:title=" ">
<path fill="none" stroke="#63b8ff" d="M210,-66.69C210,-58.08 210,-48.9 210,-41.07"/>
<polygon fill="#63b8ff" stroke="#63b8ff" points="206.5,-66.79 210,-76.79 213.5,-66.79 206.5,-66.79"/>
</a>
</g>
</g>
<!-- Node4 -->
<g id="Node000004" class="node">
<title>Node4</title>
<g id="a_Node000004"><a xlink:href="occ__elat_8h.html" target="_top" xlink:title=" ">
<polygon fill="white" stroke="#666666" points="420,-41 292,-41 292,0 420,0 420,-41"/>
<text text-anchor="start" x="300" y="-29" font-family="Helvetica,sans-Serif" font-size="10.00">/home/runner/work/occ</text>
<text text-anchor="start" x="300" y="-18" font-family="Helvetica,sans-Serif" font-size="10.00">/occ/include/occ/main</text>
<text text-anchor="middle" x="356" y="-7" font-family="Helvetica,sans-Serif" font-size="10.00">/occ_elat.h</text>
</a>
</g>
</g>
<!-- Node1&#45;&gt;Node4 -->
<g id="edge3_Node000001_Node000004" class="edge">
<title>Node1&#45;&gt;Node4</title>
<g id="a_edge3_Node000001_Node000004"><a xlink:title=" ">
<path fill="none" stroke="#63b8ff" d="M257.09,-72.31C276.77,-62.2 299.35,-50.6 317.96,-41.04"/>
<polygon fill="#63b8ff" stroke="#63b8ff" points="255.27,-69.31 247.98,-76.99 258.47,-75.53 255.27,-69.31"/>
</a>
</g>
</g>
</g>
</svg>
