<?xml version="1.0" encoding="UTF-8" standalone="no"?>
<!DOCTYPE svg PUBLIC "-//W3C//DTD SVG 1.1//EN"
 "http://www.w3.org/Graphics/SVG/1.1/DTD/svg11.dtd">
<!-- Generated by graphviz version 2.43.0 (0)
 -->
<!-- Title: /home/runner/work/occ/occ/include/occ/qm/partitioning.h Pages: 1 -->
<svg width="917pt" height="319pt"
 viewBox="0.00 0.00 916.76 319.00" xmlns="http://www.w3.org/2000/svg" xmlns:xlink="http://www.w3.org/1999/xlink">
<g id="graph0" class="graph" transform="scale(1 1) rotate(0) translate(4 315)">
<title>/home/runner/work/occ/occ/include/occ/qm/partitioning.h</title>
<!-- Node1 -->
<g id="node1" class="node">
<title>Node1</title>
<g id="a_node1"><a xlink:title=" ">
<polygon fill="#bfbfbf" stroke="black" points="359.5,-280.5 359.5,-310.5 540.5,-310.5 540.5,-280.5 359.5,-280.5"/>
<text text-anchor="start" x="367.5" y="-298.5" font-family="Helvetica,sans-Serif" font-size="10.00">/home/runner/work/occ</text>
<text text-anchor="middle" x="450" y="-287.5" font-family="Helvetica,sans-Serif" font-size="10.00">/occ/include/occ/qm/partitioning.h</text>
</a>
</g>
</g>
<!-- Node2 -->
<g id="node2" class="node">
<title>Node2</title>
<g id="a_node2"><a xlink:href="spinorbital_8h.html" target="_top" xlink:title=" ">
<polygon fill="none" stroke="black" points="235,-168.5 235,-187.5 351,-187.5 351,-168.5 235,-168.5"/>
<text text-anchor="middle" x="293" y="-175.5" font-family="Helvetica,sans-Serif" font-size="10.00">occ/qm/spinorbital.h</text>
</a>
</g>
</g>
<!-- Node1&#45;&gt;Node2 -->
<g id="edge1" class="edge">
<title>Node1&#45;&gt;Node2</title>
<path fill="none" stroke="midnightblue" d="M430.75,-280.34C400.79,-258.3 343.3,-216.01 312.93,-193.66"/>
<polygon fill="midnightblue" stroke="midnightblue" points="314.91,-190.78 304.78,-187.67 310.77,-196.41 314.91,-190.78"/>
</g>
<!-- Node17 -->
<g id="node17" class="node">
<title>Node17</title>
<g id="a_node17"><a xlink:href="mo_8h.html" target="_top" xlink:title=" ">
<polygon fill="none" stroke="black" points="410,-224.5 410,-243.5 490,-243.5 490,-224.5 410,-224.5"/>
<text text-anchor="middle" x="450" y="-231.5" font-family="Helvetica,sans-Serif" font-size="10.00">occ/qm/mo.h</text>
</a>
</g>
</g>
<!-- Node1&#45;&gt;Node17 -->
<g id="edge19" class="edge">
<title>Node1&#45;&gt;Node17</title>
<path fill="none" stroke="midnightblue" d="M450,-280.4C450,-272.47 450,-262.46 450,-253.86"/>
<polygon fill="midnightblue" stroke="midnightblue" points="453.5,-253.66 450,-243.66 446.5,-253.66 453.5,-253.66"/>
</g>
<!-- Node19 -->
<g id="node19" class="node">
<title>Node19</title>
<g id="a_node19"><a xlink:href="shell_8h.html" target="_top" xlink:title=" ">
<polygon fill="none" stroke="black" points="604.5,-224.5 604.5,-243.5 691.5,-243.5 691.5,-224.5 604.5,-224.5"/>
<text text-anchor="middle" x="648" y="-231.5" font-family="Helvetica,sans-Serif" font-size="10.00">occ/qm/shell.h</text>
</a>
</g>
</g>
<!-- Node1&#45;&gt;Node19 -->
<g id="edge23" class="edge">
<title>Node1&#45;&gt;Node19</title>
<path fill="none" stroke="midnightblue" d="M496.67,-280.47C531.13,-270.12 577.46,-256.2 609.74,-246.5"/>
<polygon fill="midnightblue" stroke="midnightblue" points="611.12,-249.74 619.69,-243.51 609.11,-243.03 611.12,-249.74"/>
</g>
<!-- Node3 -->
<g id="node3" class="node">
<title>Node3</title>
<g id="a_node3"><a xlink:href="linear__algebra_8h.html" target="_top" xlink:title=" ">
<polygon fill="none" stroke="black" points="606.5,-56.5 606.5,-75.5 745.5,-75.5 745.5,-56.5 606.5,-56.5"/>
<text text-anchor="middle" x="676" y="-63.5" font-family="Helvetica,sans-Serif" font-size="10.00">occ/core/linear_algebra.h</text>
</a>
</g>
</g>
<!-- Node2&#45;&gt;Node3 -->
<g id="edge2" class="edge">
<title>Node2&#45;&gt;Node3</title>
<path fill="none" stroke="midnightblue" d="M322.73,-168.46C391.11,-148.82 559.53,-100.45 636.49,-78.35"/>
<polygon fill="midnightblue" stroke="midnightblue" points="637.64,-81.66 646.28,-75.53 635.71,-74.93 637.64,-81.66"/>
</g>
<!-- Node7 -->
<g id="node7" class="node">
<title>Node7</title>
<g id="a_node7"><a xlink:href="util_8h.html" target="_top" xlink:title=" ">
<polygon fill="none" stroke="black" points="343.5,-112.5 343.5,-131.5 428.5,-131.5 428.5,-112.5 343.5,-112.5"/>
<text text-anchor="middle" x="386" y="-119.5" font-family="Helvetica,sans-Serif" font-size="10.00">occ/core/util.h</text>
</a>
</g>
</g>
<!-- Node2&#45;&gt;Node7 -->
<g id="edge6" class="edge">
<title>Node2&#45;&gt;Node7</title>
<path fill="none" stroke="midnightblue" d="M307.94,-168.32C322.59,-159.82 345.13,-146.73 362.24,-136.8"/>
<polygon fill="midnightblue" stroke="midnightblue" points="364.2,-139.7 371.1,-131.65 360.69,-133.65 364.2,-139.7"/>
</g>
<!-- Node16 -->
<g id="node16" class="node">
<title>Node16</title>
<g id="a_node16"><a xlink:href="qm_2opmatrix_8h.html" target="_top" xlink:title=" ">
<polygon fill="none" stroke="black" points="217,-112.5 217,-131.5 325,-131.5 325,-112.5 217,-112.5"/>
<text text-anchor="middle" x="271" y="-119.5" font-family="Helvetica,sans-Serif" font-size="10.00">occ/qm/opmatrix.h</text>
</a>
</g>
</g>
<!-- Node2&#45;&gt;Node16 -->
<g id="edge17" class="edge">
<title>Node2&#45;&gt;Node16</title>
<path fill="none" stroke="midnightblue" d="M284.2,-168.08C279.78,-160.93 275.15,-150.64 272.16,-141.69"/>
<polygon fill="midnightblue" stroke="midnightblue" points="275.45,-140.47 269.43,-131.75 268.7,-142.32 275.45,-140.47"/>
</g>
<!-- Node4 -->
<g id="node4" class="node">
<title>Node4</title>
<g id="a_node4"><a xlink:title=" ">
<polygon fill="none" stroke="#bfbfbf" points="726.5,-0.5 726.5,-19.5 803.5,-19.5 803.5,-0.5 726.5,-0.5"/>
<text text-anchor="middle" x="765" y="-7.5" font-family="Helvetica,sans-Serif" font-size="10.00">Eigen/Dense</text>
</a>
</g>
</g>
<!-- Node3&#45;&gt;Node4 -->
<g id="edge3" class="edge">
<title>Node3&#45;&gt;Node4</title>
<path fill="none" stroke="midnightblue" d="M690.3,-56.32C704.18,-47.9 725.49,-34.97 741.8,-25.07"/>
<polygon fill="midnightblue" stroke="midnightblue" points="744,-27.83 750.74,-19.65 740.37,-21.85 744,-27.83"/>
</g>
<!-- Node5 -->
<g id="node5" class="node">
<title>Node5</title>
<g id="a_node5"><a xlink:title=" ">
<polygon fill="none" stroke="#bfbfbf" points="615.5,-0.5 615.5,-19.5 708.5,-19.5 708.5,-0.5 615.5,-0.5"/>
<text text-anchor="middle" x="662" y="-7.5" font-family="Helvetica,sans-Serif" font-size="10.00">Eigen/StdVector</text>
</a>
</g>
</g>
<!-- Node3&#45;&gt;Node5 -->
<g id="edge4" class="edge">
<title>Node3&#45;&gt;Node5</title>
<path fill="none" stroke="midnightblue" d="M673.69,-56.08C671.83,-48.93 669.16,-38.64 666.85,-29.69"/>
<polygon fill="midnightblue" stroke="midnightblue" points="670.17,-28.55 664.27,-19.75 663.39,-30.31 670.17,-28.55"/>
</g>
<!-- Node6 -->
<g id="node6" class="node">
<title>Node6</title>
<g id="a_node6"><a xlink:title=" ">
<polygon fill="none" stroke="#bfbfbf" points="497,-0.5 497,-19.5 583,-19.5 583,-0.5 497,-0.5"/>
<text text-anchor="middle" x="540" y="-7.5" font-family="Helvetica,sans-Serif" font-size="10.00">fmt/ostream.h</text>
</a>
</g>
</g>
<!-- Node3&#45;&gt;Node6 -->
<g id="edge5" class="edge">
<title>Node3&#45;&gt;Node6</title>
<path fill="none" stroke="midnightblue" d="M654.45,-56.44C631.97,-47.52 596.51,-33.44 571.02,-23.32"/>
<polygon fill="midnightblue" stroke="midnightblue" points="572.03,-19.95 561.45,-19.52 569.45,-26.46 572.03,-19.95"/>
</g>
<!-- Node7&#45;&gt;Node3 -->
<g id="edge13" class="edge">
<title>Node7&#45;&gt;Node3</title>
<path fill="none" stroke="midnightblue" d="M428.79,-113.03C479.52,-103.59 564.2,-87.82 620.08,-77.41"/>
<polygon fill="midnightblue" stroke="midnightblue" points="620.97,-80.81 630.16,-75.54 619.69,-73.93 620.97,-80.81"/>
</g>
<!-- Node7&#45;&gt;Node6 -->
<g id="edge10" class="edge">
<title>Node7&#45;&gt;Node6</title>
<path fill="none" stroke="midnightblue" d="M419.24,-112.45C442.01,-105.39 471.95,-93.64 494,-76 510.14,-63.09 523.11,-43.09 531.12,-28.68"/>
<polygon fill="midnightblue" stroke="midnightblue" points="534.26,-30.24 535.84,-19.76 528.07,-26.96 534.26,-30.24"/>
</g>
<!-- Node8 -->
<g id="node8" class="node">
<title>Node8</title>
<g id="a_node8"><a xlink:title=" ">
<polygon fill="none" stroke="#bfbfbf" points="0,-56.5 0,-75.5 64,-75.5 64,-56.5 0,-56.5"/>
<text text-anchor="middle" x="32" y="-63.5" font-family="Helvetica,sans-Serif" font-size="10.00">algorithm</text>
</a>
</g>
</g>
<!-- Node7&#45;&gt;Node8 -->
<g id="edge7" class="edge">
<title>Node7&#45;&gt;Node8</title>
<path fill="none" stroke="midnightblue" d="M343.45,-113.51C340.26,-112.99 337.08,-112.48 334,-112 221.46,-94.5 189.98,-96.44 74.15,-76.09"/>
<polygon fill="midnightblue" stroke="midnightblue" points="74.64,-72.62 64.18,-74.32 73.42,-79.51 74.64,-72.62"/>
</g>
<!-- Node9 -->
<g id="node9" class="node">
<title>Node9</title>
<g id="a_node9"><a xlink:title=" ">
<polygon fill="none" stroke="#bfbfbf" points="82.5,-56.5 82.5,-75.5 131.5,-75.5 131.5,-56.5 82.5,-56.5"/>
<text text-anchor="middle" x="107" y="-63.5" font-family="Helvetica,sans-Serif" font-size="10.00">cctype</text>
</a>
</g>
</g>
<!-- Node7&#45;&gt;Node9 -->
<g id="edge8" class="edge">
<title>Node7&#45;&gt;Node9</title>
<path fill="none" stroke="midnightblue" d="M343.46,-113.42C284.46,-102.89 181.31,-84.35 141.88,-76.19"/>
<polygon fill="midnightblue" stroke="midnightblue" points="142.32,-72.7 131.81,-74.01 140.84,-79.55 142.32,-72.7"/>
</g>
<!-- Node10 -->
<g id="node10" class="node">
<title>Node10</title>
<g id="a_node10"><a xlink:title=" ">
<polygon fill="none" stroke="#bfbfbf" points="149.5,-56.5 149.5,-75.5 216.5,-75.5 216.5,-56.5 149.5,-56.5"/>
<text text-anchor="middle" x="183" y="-63.5" font-family="Helvetica,sans-Serif" font-size="10.00">fmt/core.h</text>
</a>
</g>
</g>
<!-- Node7&#45;&gt;Node10 -->
<g id="edge9" class="edge">
<title>Node7&#45;&gt;Node10</title>
<path fill="none" stroke="midnightblue" d="M353.83,-112.44C318.94,-103.16 263.11,-88.31 224.83,-78.13"/>
<polygon fill="midnightblue" stroke="midnightblue" points="225.58,-74.7 215.02,-75.52 223.78,-81.47 225.58,-74.7"/>
</g>
<!-- Node11 -->
<g id="node11" class="node">
<title>Node11</title>
<g id="a_node11"><a xlink:title=" ">
<polygon fill="none" stroke="#bfbfbf" points="235,-56.5 235,-75.5 281,-75.5 281,-56.5 235,-56.5"/>
<text text-anchor="middle" x="258" y="-63.5" font-family="Helvetica,sans-Serif" font-size="10.00">locale</text>
</a>
</g>
</g>
<!-- Node7&#45;&gt;Node11 -->
<g id="edge11" class="edge">
<title>Node7&#45;&gt;Node11</title>
<path fill="none" stroke="midnightblue" d="M365.72,-112.44C344.65,-103.56 311.48,-89.56 287.51,-79.45"/>
<polygon fill="midnightblue" stroke="midnightblue" points="288.76,-76.18 278.19,-75.52 286.04,-82.63 288.76,-76.18"/>
</g>
<!-- Node12 -->
<g id="node12" class="node">
<title>Node12</title>
<g id="a_node12"><a xlink:title=" ">
<polygon fill="none" stroke="#bfbfbf" points="299,-56.5 299,-75.5 355,-75.5 355,-56.5 299,-56.5"/>
<text text-anchor="middle" x="327" y="-63.5" font-family="Helvetica,sans-Serif" font-size="10.00">numeric</text>
</a>
</g>
</g>
<!-- Node7&#45;&gt;Node12 -->
<g id="edge12" class="edge">
<title>Node7&#45;&gt;Node12</title>
<path fill="none" stroke="midnightblue" d="M376.52,-112.32C367.8,-104.34 354.66,-92.31 344.1,-82.65"/>
<polygon fill="midnightblue" stroke="midnightblue" points="346.39,-80 336.65,-75.83 341.67,-85.17 346.39,-80"/>
</g>
<!-- Node13 -->
<g id="node13" class="node">
<title>Node13</title>
<g id="a_node13"><a xlink:title=" ">
<polygon fill="none" stroke="#bfbfbf" points="373,-56.5 373,-75.5 417,-75.5 417,-56.5 373,-56.5"/>
<text text-anchor="middle" x="395" y="-63.5" font-family="Helvetica,sans-Serif" font-size="10.00">string</text>
</a>
</g>
</g>
<!-- Node7&#45;&gt;Node13 -->
<g id="edge14" class="edge">
<title>Node7&#45;&gt;Node13</title>
<path fill="none" stroke="midnightblue" d="M387.49,-112.08C388.68,-104.93 390.39,-94.64 391.88,-85.69"/>
<polygon fill="midnightblue" stroke="midnightblue" points="395.35,-86.19 393.54,-75.75 388.45,-85.04 395.35,-86.19"/>
</g>
<!-- Node14 -->
<g id="node14" class="node">
<title>Node14</title>
<g id="a_node14"><a xlink:title=" ">
<polygon fill="none" stroke="#bfbfbf" points="541.5,-56.5 541.5,-75.5 588.5,-75.5 588.5,-56.5 541.5,-56.5"/>
<text text-anchor="middle" x="565" y="-63.5" font-family="Helvetica,sans-Serif" font-size="10.00">vector</text>
</a>
</g>
</g>
<!-- Node7&#45;&gt;Node14 -->
<g id="edge15" class="edge">
<title>Node7&#45;&gt;Node14</title>
<path fill="none" stroke="midnightblue" d="M414.36,-112.44C446.17,-102.85 497.7,-87.3 531.47,-77.11"/>
<polygon fill="midnightblue" stroke="midnightblue" points="532.78,-80.38 541.34,-74.14 530.76,-73.67 532.78,-80.38"/>
</g>
<!-- Node15 -->
<g id="node15" class="node">
<title>Node15</title>
<g id="a_node15"><a xlink:title=" ">
<polygon fill="none" stroke="#bfbfbf" points="435,-56.5 435,-75.5 485,-75.5 485,-56.5 435,-56.5"/>
<text text-anchor="middle" x="460" y="-63.5" font-family="Helvetica,sans-Serif" font-size="10.00">chrono</text>
</a>
</g>
</g>
<!-- Node7&#45;&gt;Node15 -->
<g id="edge16" class="edge">
<title>Node7&#45;&gt;Node15</title>
<path fill="none" stroke="midnightblue" d="M397.89,-112.32C409.15,-104.11 426.29,-91.6 439.71,-81.81"/>
<polygon fill="midnightblue" stroke="midnightblue" points="441.88,-84.56 447.89,-75.83 437.75,-78.9 441.88,-84.56"/>
</g>
<!-- Node16&#45;&gt;Node2 -->
<g id="edge18" class="edge">
<title>Node16&#45;&gt;Node2</title>
<path fill="none" stroke="midnightblue" d="M279.7,-131.75C284.17,-138.94 288.85,-149.36 291.87,-158.4"/>
<polygon fill="midnightblue" stroke="midnightblue" points="288.51,-159.37 294.53,-168.08 295.26,-157.51 288.51,-159.37"/>
</g>
<!-- Node17&#45;&gt;Node2 -->
<g id="edge20" class="edge">
<title>Node17&#45;&gt;Node2</title>
<path fill="none" stroke="midnightblue" d="M425.12,-224.44C398.71,-215.36 356.78,-200.94 327.26,-190.78"/>
<polygon fill="midnightblue" stroke="midnightblue" points="328.36,-187.46 317.76,-187.52 326.08,-194.08 328.36,-187.46"/>
</g>
<!-- Node18 -->
<g id="node18" class="node">
<title>Node18</title>
<g id="a_node18"><a xlink:href="orbital__smearing_8h.html" target="_top" xlink:title=" ">
<polygon fill="none" stroke="black" points="407,-168.5 407,-187.5 553,-187.5 553,-168.5 407,-168.5"/>
<text text-anchor="middle" x="480" y="-175.5" font-family="Helvetica,sans-Serif" font-size="10.00">occ/qm/orbital_smearing.h</text>
</a>
</g>
</g>
<!-- Node17&#45;&gt;Node18 -->
<g id="edge21" class="edge">
<title>Node17&#45;&gt;Node18</title>
<path fill="none" stroke="midnightblue" d="M454.95,-224.08C459.1,-216.61 465.15,-205.72 470.27,-196.52"/>
<polygon fill="midnightblue" stroke="midnightblue" points="473.34,-198.19 475.14,-187.75 467.22,-194.79 473.34,-198.19"/>
</g>
<!-- Node18&#45;&gt;Node3 -->
<g id="edge22" class="edge">
<title>Node18&#45;&gt;Node3</title>
<path fill="none" stroke="midnightblue" d="M495.38,-168.37C529.37,-149.29 611.1,-103.42 651.94,-80.51"/>
<polygon fill="midnightblue" stroke="midnightblue" points="653.68,-83.54 660.69,-75.59 650.26,-77.43 653.68,-83.54"/>
</g>
<!-- Node19&#45;&gt;Node3 -->
<g id="edge28" class="edge">
<title>Node19&#45;&gt;Node3</title>
<path fill="none" stroke="midnightblue" d="M644.77,-224.14C640.62,-211.61 634.36,-188 638,-168 643.54,-137.55 657.75,-104.34 667.14,-84.61"/>
<polygon fill="midnightblue" stroke="midnightblue" points="670.29,-86.13 671.54,-75.61 664,-83.06 670.29,-86.13"/>
</g>
<!-- Node19&#45;&gt;Node7 -->
<g id="edge33" class="edge">
<title>Node19&#45;&gt;Node7</title>
<path fill="none" stroke="midnightblue" d="M604.28,-230.97C540.49,-227.08 426.4,-216.27 398,-188 386.06,-176.12 383.87,-156.5 384.17,-141.91"/>
<polygon fill="midnightblue" stroke="midnightblue" points="387.69,-141.74 384.81,-131.54 380.7,-141.31 387.69,-141.74"/>
</g>
<!-- Node19&#45;&gt;Node14 -->
<g id="edge34" class="edge">
<title>Node19&#45;&gt;Node14</title>
<path fill="none" stroke="midnightblue" d="M643.54,-224.08C630.36,-197.72 591.44,-119.88 573.83,-84.66"/>
<polygon fill="midnightblue" stroke="midnightblue" points="576.89,-82.95 569.28,-75.57 570.63,-86.08 576.89,-82.95"/>
</g>
<!-- Node20 -->
<g id="node20" class="node">
<title>Node20</title>
<g id="a_node20"><a xlink:title=" ">
<polygon fill="none" stroke="#bfbfbf" points="714,-112.5 714,-131.5 756,-131.5 756,-112.5 714,-112.5"/>
<text text-anchor="middle" x="735" y="-119.5" font-family="Helvetica,sans-Serif" font-size="10.00">array</text>
</a>
</g>
</g>
<!-- Node19&#45;&gt;Node20 -->
<g id="edge24" class="edge">
<title>Node19&#45;&gt;Node20</title>
<path fill="none" stroke="midnightblue" d="M668.08,-224.43C683.34,-216.93 703.74,-204.64 716,-188 725.92,-174.54 730.68,-155.98 732.96,-142.14"/>
<polygon fill="midnightblue" stroke="midnightblue" points="736.48,-142.21 734.34,-131.84 729.54,-141.28 736.48,-142.21"/>
</g>
<!-- Node21 -->
<g id="node21" class="node">
<title>Node21</title>
<g id="a_node21"><a xlink:title=" ">
<polygon fill="none" stroke="#bfbfbf" points="647,-168.5 647,-187.5 707,-187.5 707,-168.5 647,-168.5"/>
<text text-anchor="middle" x="677" y="-175.5" font-family="Helvetica,sans-Serif" font-size="10.00">iostream</text>
</a>
</g>
</g>
<!-- Node19&#45;&gt;Node21 -->
<g id="edge25" class="edge">
<title>Node19&#45;&gt;Node21</title>
<path fill="none" stroke="midnightblue" d="M652.79,-224.08C656.76,-216.69 662.53,-205.95 667.43,-196.81"/>
<polygon fill="midnightblue" stroke="midnightblue" points="670.65,-198.22 672.3,-187.75 664.49,-194.91 670.65,-198.22"/>
</g>
<!-- Node22 -->
<g id="node22" class="node">
<title>Node22</title>
<g id="a_node22"><a xlink:href="atom_8h.html" target="_top" xlink:title=" ">
<polygon fill="none" stroke="black" points="812.5,-112.5 812.5,-131.5 907.5,-131.5 907.5,-112.5 812.5,-112.5"/>
<text text-anchor="middle" x="860" y="-119.5" font-family="Helvetica,sans-Serif" font-size="10.00">occ/core/atom.h</text>
</a>
</g>
</g>
<!-- Node19&#45;&gt;Node22 -->
<g id="edge26" class="edge">
<title>Node19&#45;&gt;Node22</title>
<path fill="none" stroke="midnightblue" d="M691.56,-231.85C757.39,-229.08 877.38,-219.71 904,-188 917.63,-171.77 898.45,-151.26 881.3,-137.67"/>
<polygon fill="midnightblue" stroke="midnightblue" points="883.3,-134.8 873.2,-131.6 879.11,-140.4 883.3,-134.8"/>
</g>
<!-- Node23 -->
<g id="node23" class="node">
<title>Node23</title>
<g id="a_node23"><a xlink:href="point__charge_8h.html" target="_top" xlink:title=" ">
<polygon fill="none" stroke="black" points="763,-168.5 763,-187.5 895,-187.5 895,-168.5 763,-168.5"/>
<text text-anchor="middle" x="829" y="-175.5" font-family="Helvetica,sans-Serif" font-size="10.00">occ/core/point_charge.h</text>
</a>
</g>
</g>
<!-- Node19&#45;&gt;Node23 -->
<g id="edge29" class="edge">
<title>Node19&#45;&gt;Node23</title>
<path fill="none" stroke="midnightblue" d="M676.68,-224.44C707.53,-215.24 756.73,-200.56 790.83,-190.39"/>
<polygon fill="midnightblue" stroke="midnightblue" points="791.87,-193.73 800.45,-187.52 789.87,-187.02 791.87,-193.73"/>
</g>
<!-- Node22&#45;&gt;Node3 -->
<g id="edge27" class="edge">
<title>Node22&#45;&gt;Node3</title>
<path fill="none" stroke="midnightblue" d="M830.84,-112.44C799.49,-103.24 749.47,-88.56 714.8,-78.39"/>
<polygon fill="midnightblue" stroke="midnightblue" points="715.6,-74.97 705.02,-75.52 713.63,-81.69 715.6,-74.97"/>
</g>
<!-- Node23&#45;&gt;Node3 -->
<g id="edge32" class="edge">
<title>Node23&#45;&gt;Node3</title>
<path fill="none" stroke="midnightblue" d="M821.88,-168.11C810.81,-154.68 788.28,-129 765,-112 747.07,-98.91 724.76,-87.64 706.97,-79.65"/>
<polygon fill="midnightblue" stroke="midnightblue" points="708.17,-76.36 697.61,-75.56 705.37,-82.77 708.17,-76.36"/>
</g>
<!-- Node23&#45;&gt;Node20 -->
<g id="edge30" class="edge">
<title>Node23&#45;&gt;Node20</title>
<path fill="none" stroke="midnightblue" d="M813.9,-168.32C799.1,-159.82 776.31,-146.73 759.02,-136.8"/>
<polygon fill="midnightblue" stroke="midnightblue" points="760.48,-133.6 750.07,-131.65 756.99,-139.67 760.48,-133.6"/>
</g>
<!-- Node23&#45;&gt;Node22 -->
<g id="edge31" class="edge">
<title>Node23&#45;&gt;Node22</title>
<path fill="none" stroke="midnightblue" d="M834.12,-168.08C838.41,-160.61 844.66,-149.72 849.94,-140.52"/>
<polygon fill="midnightblue" stroke="midnightblue" points="853.03,-142.17 854.98,-131.75 846.96,-138.68 853.03,-142.17"/>
</g>
</g>
</svg>
