<?xml version="1.0" encoding="UTF-8" standalone="no"?>
<!DOCTYPE svg PUBLIC "-//W3C//DTD SVG 1.1//EN"
 "http://www.w3.org/Graphics/SVG/1.1/DTD/svg11.dtd">
<!-- Generated by graphviz version 2.43.0 (0)
 -->
<!-- Title: /home/runner/work/occ/occ/include/occ/core/point_group.h Pages: 1 -->
<svg width="534pt" height="285pt"
 viewBox="0.00 0.00 533.52 285.00" xmlns="http://www.w3.org/2000/svg" xmlns:xlink="http://www.w3.org/1999/xlink">
<g id="graph0" class="graph" transform="scale(1 1) rotate(0) translate(4 281)">
<title>/home/runner/work/occ/occ/include/occ/core/point_group.h</title>
<!-- Node1 -->
<g id="node1" class="node">
<title>Node1</title>
<g id="a_node1"><a xlink:title=" ">
<polygon fill="#bfbfbf" stroke="black" points="213.5,-235.5 213.5,-276.5 341.5,-276.5 341.5,-235.5 213.5,-235.5"/>
<text text-anchor="start" x="221.5" y="-264.5" font-family="Helvetica,sans-Serif" font-size="10.00">/home/runner/work/occ</text>
<text text-anchor="start" x="221.5" y="-253.5" font-family="Helvetica,sans-Serif" font-size="10.00">/occ/include/occ/core</text>
<text text-anchor="middle" x="277.5" y="-242.5" font-family="Helvetica,sans-Serif" font-size="10.00">/point_group.h</text>
</a>
</g>
</g>
<!-- Node2 -->
<g id="node2" class="node">
<title>Node2</title>
<g id="a_node2"><a xlink:href="linear__algebra_8h.html" target="_top" xlink:title=" ">
<polygon fill="none" stroke="black" points="72,-67.5 72,-86.5 211,-86.5 211,-67.5 72,-67.5"/>
<text text-anchor="middle" x="141.5" y="-74.5" font-family="Helvetica,sans-Serif" font-size="10.00">occ/core/linear_algebra.h</text>
</a>
</g>
</g>
<!-- Node1&#45;&gt;Node2 -->
<g id="edge1" class="edge">
<title>Node1&#45;&gt;Node2</title>
<path fill="none" stroke="midnightblue" d="M240.9,-235.35C209.5,-216.3 166.16,-184.25 145.5,-143 138.3,-128.63 137.86,-110.17 138.9,-96.6"/>
<polygon fill="midnightblue" stroke="midnightblue" points="142.39,-96.86 140,-86.54 135.43,-96.1 142.39,-96.86"/>
</g>
<!-- Node6 -->
<g id="node6" class="node">
<title>Node6</title>
<g id="a_node6"><a xlink:href="molecule_8h.html" target="_top" xlink:title=" ">
<polygon fill="none" stroke="black" points="220.5,-179.5 220.5,-198.5 334.5,-198.5 334.5,-179.5 220.5,-179.5"/>
<text text-anchor="middle" x="277.5" y="-186.5" font-family="Helvetica,sans-Serif" font-size="10.00">occ/core/molecule.h</text>
</a>
</g>
</g>
<!-- Node1&#45;&gt;Node6 -->
<g id="edge5" class="edge">
<title>Node1&#45;&gt;Node6</title>
<path fill="none" stroke="midnightblue" d="M277.5,-235.5C277.5,-227.07 277.5,-217.24 277.5,-208.87"/>
<polygon fill="midnightblue" stroke="midnightblue" points="281,-208.65 277.5,-198.65 274,-208.65 281,-208.65"/>
</g>
<!-- Node13 -->
<g id="node13" class="node">
<title>Node13</title>
<g id="a_node13"><a xlink:href="rotor_8h.html" target="_top" xlink:title=" ">
<polygon fill="none" stroke="black" points="423.5,-179.5 423.5,-198.5 515.5,-198.5 515.5,-179.5 423.5,-179.5"/>
<text text-anchor="middle" x="469.5" y="-186.5" font-family="Helvetica,sans-Serif" font-size="10.00">occ/core/rotor.h</text>
</a>
</g>
</g>
<!-- Node1&#45;&gt;Node13 -->
<g id="edge14" class="edge">
<title>Node1&#45;&gt;Node13</title>
<path fill="none" stroke="midnightblue" d="M335.11,-235.5C367.37,-224.57 406.57,-211.3 434.28,-201.92"/>
<polygon fill="midnightblue" stroke="midnightblue" points="435.59,-205.17 443.94,-198.65 433.35,-198.54 435.59,-205.17"/>
</g>
<!-- Node3 -->
<g id="node3" class="node">
<title>Node3</title>
<g id="a_node3"><a xlink:title=" ">
<polygon fill="none" stroke="#bfbfbf" points="0,-6 0,-25 77,-25 77,-6 0,-6"/>
<text text-anchor="middle" x="38.5" y="-13" font-family="Helvetica,sans-Serif" font-size="10.00">Eigen/Dense</text>
</a>
</g>
</g>
<!-- Node2&#45;&gt;Node3 -->
<g id="edge2" class="edge">
<title>Node2&#45;&gt;Node3</title>
<path fill="none" stroke="midnightblue" d="M126.74,-67.48C109.84,-57.71 81.92,-41.58 62.01,-30.08"/>
<polygon fill="midnightblue" stroke="midnightblue" points="63.64,-26.98 53.23,-25.01 60.14,-33.04 63.64,-26.98"/>
</g>
<!-- Node4 -->
<g id="node4" class="node">
<title>Node4</title>
<g id="a_node4"><a xlink:title=" ">
<polygon fill="none" stroke="#bfbfbf" points="95,-6 95,-25 188,-25 188,-6 95,-6"/>
<text text-anchor="middle" x="141.5" y="-13" font-family="Helvetica,sans-Serif" font-size="10.00">Eigen/StdVector</text>
</a>
</g>
</g>
<!-- Node2&#45;&gt;Node4 -->
<g id="edge3" class="edge">
<title>Node2&#45;&gt;Node4</title>
<path fill="none" stroke="midnightblue" d="M141.5,-67.48C141.5,-59.08 141.5,-45.98 141.5,-35.16"/>
<polygon fill="midnightblue" stroke="midnightblue" points="145,-35.01 141.5,-25.01 138,-35.01 145,-35.01"/>
</g>
<!-- Node5 -->
<g id="node5" class="node">
<title>Node5</title>
<g id="a_node5"><a xlink:title=" ">
<polygon fill="none" stroke="#bfbfbf" points="206,-0.5 206,-30.5 313,-30.5 313,-0.5 206,-0.5"/>
<text text-anchor="start" x="214" y="-18.5" font-family="Helvetica,sans-Serif" font-size="10.00">occ/3rdparty/eigen</text>
<text text-anchor="middle" x="259.5" y="-7.5" font-family="Helvetica,sans-Serif" font-size="10.00">&#45;fmt/fmt.h</text>
</a>
</g>
</g>
<!-- Node2&#45;&gt;Node5 -->
<g id="edge4" class="edge">
<title>Node2&#45;&gt;Node5</title>
<path fill="none" stroke="midnightblue" d="M158.41,-67.48C175.06,-59.08 201.05,-45.97 222.51,-35.15"/>
<polygon fill="midnightblue" stroke="midnightblue" points="224.34,-38.15 231.69,-30.52 221.18,-31.9 224.34,-38.15"/>
</g>
<!-- Node6&#45;&gt;Node2 -->
<g id="edge12" class="edge">
<title>Node6&#45;&gt;Node2</title>
<path fill="none" stroke="midnightblue" d="M227.61,-179.42C204.33,-173.03 177.97,-161.97 160.5,-143 148.94,-130.44 144.38,-111.22 142.6,-96.93"/>
<polygon fill="midnightblue" stroke="midnightblue" points="146.07,-96.4 141.69,-86.76 139.09,-97.03 146.07,-96.4"/>
</g>
<!-- Node7 -->
<g id="node7" class="node">
<title>Node7</title>
<g id="a_node7"><a xlink:title=" ">
<polygon fill="none" stroke="#bfbfbf" points="169.5,-123.5 169.5,-142.5 211.5,-142.5 211.5,-123.5 169.5,-123.5"/>
<text text-anchor="middle" x="190.5" y="-130.5" font-family="Helvetica,sans-Serif" font-size="10.00">array</text>
</a>
</g>
</g>
<!-- Node6&#45;&gt;Node7 -->
<g id="edge6" class="edge">
<title>Node6&#45;&gt;Node7</title>
<path fill="none" stroke="midnightblue" d="M263.52,-179.32C249.95,-170.9 229.12,-157.97 213.18,-148.07"/>
<polygon fill="midnightblue" stroke="midnightblue" points="214.79,-144.95 204.44,-142.65 211.09,-150.9 214.79,-144.95"/>
</g>
<!-- Node8 -->
<g id="node8" class="node">
<title>Node8</title>
<g id="a_node8"><a xlink:href="atom_8h.html" target="_top" xlink:title=" ">
<polygon fill="none" stroke="black" points="230,-123.5 230,-142.5 325,-142.5 325,-123.5 230,-123.5"/>
<text text-anchor="middle" x="277.5" y="-130.5" font-family="Helvetica,sans-Serif" font-size="10.00">occ/core/atom.h</text>
</a>
</g>
</g>
<!-- Node6&#45;&gt;Node8 -->
<g id="edge7" class="edge">
<title>Node6&#45;&gt;Node8</title>
<path fill="none" stroke="midnightblue" d="M277.5,-179.08C277.5,-172.01 277.5,-161.86 277.5,-152.99"/>
<polygon fill="midnightblue" stroke="midnightblue" points="281,-152.75 277.5,-142.75 274,-152.75 281,-152.75"/>
</g>
<!-- Node9 -->
<g id="node9" class="node">
<title>Node9</title>
<g id="a_node9"><a xlink:href="element_8h.html" target="_top" xlink:title=" ">
<polygon fill="none" stroke="black" points="343.5,-123.5 343.5,-142.5 453.5,-142.5 453.5,-123.5 343.5,-123.5"/>
<text text-anchor="middle" x="398.5" y="-130.5" font-family="Helvetica,sans-Serif" font-size="10.00">occ/core/element.h</text>
</a>
</g>
</g>
<!-- Node6&#45;&gt;Node9 -->
<g id="edge9" class="edge">
<title>Node6&#45;&gt;Node9</title>
<path fill="none" stroke="midnightblue" d="M296.67,-179.44C316.41,-170.64 347.39,-156.81 369.99,-146.72"/>
<polygon fill="midnightblue" stroke="midnightblue" points="371.71,-149.79 379.42,-142.52 368.86,-143.4 371.71,-149.79"/>
</g>
<!-- Node12 -->
<g id="node12" class="node">
<title>Node12</title>
<g id="a_node12"><a xlink:title=" ">
<polygon fill="none" stroke="#bfbfbf" points="472,-123.5 472,-142.5 513,-142.5 513,-123.5 472,-123.5"/>
<text text-anchor="middle" x="492.5" y="-130.5" font-family="Helvetica,sans-Serif" font-size="10.00">tuple</text>
</a>
</g>
</g>
<!-- Node6&#45;&gt;Node12 -->
<g id="edge13" class="edge">
<title>Node6&#45;&gt;Node12</title>
<path fill="none" stroke="midnightblue" d="M315.21,-179.44C350.65,-171.26 405.38,-158.28 462.04,-143.01"/>
<polygon fill="midnightblue" stroke="midnightblue" points="463.15,-146.34 471.88,-140.34 461.32,-139.58 463.15,-146.34"/>
</g>
<!-- Node8&#45;&gt;Node2 -->
<g id="edge8" class="edge">
<title>Node8&#45;&gt;Node2</title>
<path fill="none" stroke="midnightblue" d="M255.95,-123.44C233.47,-114.52 198.01,-100.44 172.52,-90.32"/>
<polygon fill="midnightblue" stroke="midnightblue" points="173.53,-86.95 162.95,-86.52 170.95,-93.46 173.53,-86.95"/>
</g>
<!-- Node10 -->
<g id="node10" class="node">
<title>Node10</title>
<g id="a_node10"><a xlink:title=" ">
<polygon fill="none" stroke="#bfbfbf" points="479.5,-67.5 479.5,-86.5 523.5,-86.5 523.5,-67.5 479.5,-67.5"/>
<text text-anchor="middle" x="501.5" y="-74.5" font-family="Helvetica,sans-Serif" font-size="10.00">string</text>
</a>
</g>
</g>
<!-- Node9&#45;&gt;Node10 -->
<g id="edge10" class="edge">
<title>Node9&#45;&gt;Node10</title>
<path fill="none" stroke="midnightblue" d="M415.05,-123.32C431.49,-114.7 456.93,-101.36 475.97,-91.39"/>
<polygon fill="midnightblue" stroke="midnightblue" points="477.76,-94.4 484.99,-86.65 474.51,-88.2 477.76,-94.4"/>
</g>
<!-- Node11 -->
<g id="node11" class="node">
<title>Node11</title>
<g id="a_node11"><a xlink:title=" ">
<polygon fill="none" stroke="#bfbfbf" points="375,-67.5 375,-86.5 422,-86.5 422,-67.5 375,-67.5"/>
<text text-anchor="middle" x="398.5" y="-74.5" font-family="Helvetica,sans-Serif" font-size="10.00">vector</text>
</a>
</g>
</g>
<!-- Node9&#45;&gt;Node11 -->
<g id="edge11" class="edge">
<title>Node9&#45;&gt;Node11</title>
<path fill="none" stroke="midnightblue" d="M398.5,-123.08C398.5,-116.01 398.5,-105.86 398.5,-96.99"/>
<polygon fill="midnightblue" stroke="midnightblue" points="402,-96.75 398.5,-86.75 395,-96.75 402,-96.75"/>
</g>
<!-- Node13&#45;&gt;Node10 -->
<g id="edge15" class="edge">
<title>Node13&#45;&gt;Node10</title>
<path fill="none" stroke="midnightblue" d="M485.83,-179.39C498.46,-171.72 515,-159.21 522.5,-143 529.71,-127.41 522.04,-108.65 514.02,-95.3"/>
<polygon fill="midnightblue" stroke="midnightblue" points="516.75,-93.09 508.32,-86.66 510.9,-96.94 516.75,-93.09"/>
</g>
</g>
</svg>
