<?xml version="1.0" encoding="UTF-8" standalone="no"?>
<!DOCTYPE svg PUBLIC "-//W3C//DTD SVG 1.1//EN"
 "http://www.w3.org/Graphics/SVG/1.1/DTD/svg11.dtd">
<!-- Generated by graphviz version 2.43.0 (0)
 -->
<!-- Title: /home/runner/work/occ/occ/include/occ/core/point_charge.h Pages: 1 -->
<svg width="2569pt" height="496pt"
 viewBox="0.00 0.00 2569.11 496.00" xmlns="http://www.w3.org/2000/svg" xmlns:xlink="http://www.w3.org/1999/xlink">
<g id="graph0" class="graph" transform="scale(1 1) rotate(0) translate(4 492)">
<title>/home/runner/work/occ/occ/include/occ/core/point_charge.h</title>
<!-- Node1 -->
<g id="node1" class="node">
<title>Node1</title>
<g id="a_node1"><a xlink:title=" ">
<polygon fill="#bfbfbf" stroke="black" points="1875.11,-446.5 1875.11,-487.5 2003.11,-487.5 2003.11,-446.5 1875.11,-446.5"/>
<text text-anchor="start" x="1883.11" y="-475.5" font-family="Helvetica,sans-Serif" font-size="10.00">/home/runner/work/occ</text>
<text text-anchor="start" x="1883.11" y="-464.5" font-family="Helvetica,sans-Serif" font-size="10.00">/occ/include/occ/core</text>
<text text-anchor="middle" x="1939.11" y="-453.5" font-family="Helvetica,sans-Serif" font-size="10.00">/point_charge.h</text>
</a>
</g>
</g>
<!-- Node2 -->
<g id="node2" class="node">
<title>Node2</title>
<g id="a_node2"><a xlink:href="hf_8h.html" target="_top" xlink:title=" ">
<polygon fill="none" stroke="black" points="900.11,-73 900.11,-103 1034.11,-103 1034.11,-73 900.11,-73"/>
<text text-anchor="start" x="908.11" y="-91" font-family="Helvetica,sans-Serif" font-size="10.00">/home/runner/work/occ</text>
<text text-anchor="middle" x="967.11" y="-80" font-family="Helvetica,sans-Serif" font-size="10.00">/occ/include/occ/qm/hf.h</text>
</a>
</g>
</g>
<!-- Node1&#45;&gt;Node2 -->
<g id="edge1" class="edge">
<title>Node1&#45;&gt;Node2</title>
<path fill="none" stroke="midnightblue" d="M2013.41,-464.44C2178.45,-458.95 2561.11,-434.24 2561.11,-323 2561.11,-323 2561.11,-323 2561.11,-243 2561.11,-130.66 2437.76,-169.43 2328.11,-145 2134.48,-101.85 1634.32,-117.23 1436.11,-109 1293,-103.06 1125.34,-95.85 1034.29,-91.91"/>
<polygon fill="midnightblue" stroke="midnightblue" points="2013.22,-460.94 2003.33,-464.76 2013.44,-467.94 2013.22,-460.94"/>
</g>
<!-- Node4 -->
<g id="node4" class="node">
<title>Node4</title>
<g id="a_node4"><a xlink:href="shell_8h.html" target="_top" xlink:title=" ">
<polygon fill="none" stroke="black" points="1243.11,-379.5 1243.11,-409.5 1391.11,-409.5 1391.11,-379.5 1243.11,-379.5"/>
<text text-anchor="start" x="1251.11" y="-397.5" font-family="Helvetica,sans-Serif" font-size="10.00">/home/runner/work/occ</text>
<text text-anchor="middle" x="1317.11" y="-386.5" font-family="Helvetica,sans-Serif" font-size="10.00">/occ/include/occ/qm/shell.h</text>
</a>
</g>
</g>
<!-- Node1&#45;&gt;Node4 -->
<g id="edge3" class="edge">
<title>Node1&#45;&gt;Node4</title>
<path fill="none" stroke="midnightblue" d="M1864.72,-457.57C1745.07,-444.01 1511.2,-417.5 1391.53,-403.94"/>
<polygon fill="midnightblue" stroke="midnightblue" points="1864.56,-461.07 1874.89,-458.72 1865.35,-454.12 1864.56,-461.07"/>
</g>
<!-- Node3 -->
<g id="node3" class="node">
<title>Node3</title>
<g id="a_node3"><a xlink:href="dft_8h.html" target="_top" xlink:title=" ">
<polygon fill="none" stroke="black" points="206.11,-0.5 206.11,-30.5 340.11,-30.5 340.11,-0.5 206.11,-0.5"/>
<text text-anchor="start" x="214.11" y="-18.5" font-family="Helvetica,sans-Serif" font-size="10.00">/home/runner/work/occ</text>
<text text-anchor="middle" x="273.11" y="-7.5" font-family="Helvetica,sans-Serif" font-size="10.00">/occ/include/occ/dft/dft.h</text>
</a>
</g>
</g>
<!-- Node2&#45;&gt;Node3 -->
<g id="edge2" class="edge">
<title>Node2&#45;&gt;Node3</title>
<path fill="none" stroke="midnightblue" d="M889.94,-79.16C753,-65.25 469.78,-36.48 340.32,-23.33"/>
<polygon fill="midnightblue" stroke="midnightblue" points="889.63,-82.65 899.94,-80.18 890.34,-75.68 889.63,-82.65"/>
</g>
<!-- Node5 -->
<g id="node5" class="node">
<title>Node5</title>
<g id="a_node5"><a xlink:href="grid_8h.html" target="_top" xlink:title=" ">
<polygon fill="none" stroke="black" points="293.11,-301.5 293.11,-342.5 421.11,-342.5 421.11,-301.5 293.11,-301.5"/>
<text text-anchor="start" x="301.11" y="-330.5" font-family="Helvetica,sans-Serif" font-size="10.00">/home/runner/work/occ</text>
<text text-anchor="start" x="301.11" y="-319.5" font-family="Helvetica,sans-Serif" font-size="10.00">/occ/include/occ/dft</text>
<text text-anchor="middle" x="357.11" y="-308.5" font-family="Helvetica,sans-Serif" font-size="10.00">/grid.h</text>
</a>
</g>
</g>
<!-- Node4&#45;&gt;Node5 -->
<g id="edge4" class="edge">
<title>Node4&#45;&gt;Node5</title>
<path fill="none" stroke="midnightblue" d="M1232.74,-394.08C1075.07,-393.98 725.41,-388.09 435.11,-343 430.55,-342.29 425.87,-341.43 421.18,-340.48"/>
<polygon fill="midnightblue" stroke="midnightblue" points="1232.84,-397.58 1242.84,-394.08 1232.84,-390.58 1232.84,-397.58"/>
</g>
<!-- Node6 -->
<g id="node6" class="node">
<title>Node6</title>
<g id="a_node6"><a xlink:href="nonlocal__correlation_8h.html" target="_top" xlink:title=" ">
<polygon fill="none" stroke="black" points="201.11,-223.5 201.11,-264.5 329.11,-264.5 329.11,-223.5 201.11,-223.5"/>
<text text-anchor="start" x="209.11" y="-252.5" font-family="Helvetica,sans-Serif" font-size="10.00">/home/runner/work/occ</text>
<text text-anchor="start" x="209.11" y="-241.5" font-family="Helvetica,sans-Serif" font-size="10.00">/occ/include/occ/dft</text>
<text text-anchor="middle" x="265.11" y="-230.5" font-family="Helvetica,sans-Serif" font-size="10.00">/nonlocal_correlation.h</text>
</a>
</g>
</g>
<!-- Node4&#45;&gt;Node6 -->
<g id="edge10" class="edge">
<title>Node4&#45;&gt;Node6</title>
<path fill="none" stroke="midnightblue" d="M1232.86,-392.19C992.72,-388.09 319.75,-373.88 284.11,-343 261.98,-323.82 260.79,-287.25 262.53,-264.62"/>
<polygon fill="midnightblue" stroke="midnightblue" points="1232.88,-395.69 1242.93,-392.36 1232.99,-388.69 1232.88,-395.69"/>
</g>
<!-- Node8 -->
<g id="node8" class="node">
<title>Node8</title>
<g id="a_node8"><a xlink:href="xdm_8h.html" target="_top" xlink:title=" ">
<polygon fill="none" stroke="black" points="423.11,-229 423.11,-259 575.11,-259 575.11,-229 423.11,-229"/>
<text text-anchor="start" x="431.11" y="-247" font-family="Helvetica,sans-Serif" font-size="10.00">/home/runner/work/occ</text>
<text text-anchor="middle" x="499.11" y="-236" font-family="Helvetica,sans-Serif" font-size="10.00">/occ/include/occ/xdm/xdm.h</text>
</a>
</g>
</g>
<!-- Node4&#45;&gt;Node8 -->
<g id="edge50" class="edge">
<title>Node4&#45;&gt;Node8</title>
<path fill="none" stroke="midnightblue" d="M1232.87,-391.58C1023.25,-386.39 493.11,-370.59 467.11,-343 444.89,-319.42 470.09,-280.2 486.76,-259.23"/>
<polygon fill="midnightblue" stroke="midnightblue" points="1232.83,-395.08 1242.91,-391.83 1233,-388.08 1232.83,-395.08"/>
</g>
<!-- Node9 -->
<g id="node9" class="node">
<title>Node9</title>
<g id="a_node9"><a xlink:href="gto_8h.html" target="_top" xlink:title=" ">
<polygon fill="none" stroke="black" points="34.11,-151 34.11,-181 174.11,-181 174.11,-151 34.11,-151"/>
<text text-anchor="start" x="42.11" y="-169" font-family="Helvetica,sans-Serif" font-size="10.00">/home/runner/work/occ</text>
<text text-anchor="middle" x="104.11" y="-158" font-family="Helvetica,sans-Serif" font-size="10.00">/occ/include/occ/gto/gto.h</text>
</a>
</g>
</g>
<!-- Node4&#45;&gt;Node9 -->
<g id="edge11" class="edge">
<title>Node4&#45;&gt;Node9</title>
<path fill="none" stroke="midnightblue" d="M1232.54,-393.21C997.29,-391.89 346.74,-384.49 260.11,-343 184.8,-306.93 130.26,-216.18 111.37,-181.12"/>
<polygon fill="midnightblue" stroke="midnightblue" points="1232.73,-396.71 1242.75,-393.27 1232.77,-389.72 1232.73,-396.71"/>
</g>
<!-- Node12 -->
<g id="node12" class="node">
<title>Node12</title>
<g id="a_node12"><a xlink:href="basis__g94_8h.html" target="_top" xlink:title=" ">
<polygon fill="none" stroke="black" points="476.61,-307 476.61,-337 643.61,-337 643.61,-307 476.61,-307"/>
<text text-anchor="start" x="484.61" y="-325" font-family="Helvetica,sans-Serif" font-size="10.00">/home/runner/work/occ</text>
<text text-anchor="middle" x="560.11" y="-314" font-family="Helvetica,sans-Serif" font-size="10.00">/occ/include/occ/io/basis_g94.h</text>
</a>
</g>
</g>
<!-- Node4&#45;&gt;Node12 -->
<g id="edge17" class="edge">
<title>Node4&#45;&gt;Node12</title>
<path fill="none" stroke="midnightblue" d="M1232.92,-390.84C1106.31,-385.99 859.59,-373.28 652.11,-343 641.28,-341.42 629.81,-339.29 618.79,-337.02"/>
<polygon fill="midnightblue" stroke="midnightblue" points="1232.82,-394.34 1242.94,-391.21 1233.08,-387.34 1232.82,-394.34"/>
</g>
<!-- Node13 -->
<g id="node13" class="node">
<title>Node13</title>
<g id="a_node13"><a xlink:href="conversion_8h.html" target="_top" xlink:title=" ">
<polygon fill="none" stroke="black" points="661.61,-307 661.61,-337 832.61,-337 832.61,-307 661.61,-307"/>
<text text-anchor="start" x="669.61" y="-325" font-family="Helvetica,sans-Serif" font-size="10.00">/home/runner/work/occ</text>
<text text-anchor="middle" x="747.11" y="-314" font-family="Helvetica,sans-Serif" font-size="10.00">/occ/include/occ/io/conversion.h</text>
</a>
</g>
</g>
<!-- Node4&#45;&gt;Node13 -->
<g id="edge18" class="edge">
<title>Node4&#45;&gt;Node13</title>
<path fill="none" stroke="midnightblue" d="M1232.6,-387.12C1137.35,-379.33 978.05,-364.48 842.11,-343 831.46,-341.32 820.19,-339.22 809.29,-337.03"/>
<polygon fill="midnightblue" stroke="midnightblue" points="1232.51,-390.63 1242.76,-387.95 1233.07,-383.65 1232.51,-390.63"/>
</g>
<!-- Node14 -->
<g id="node14" class="node">
<title>Node14</title>
<g id="a_node14"><a xlink:href="fchkreader_8h.html" target="_top" xlink:title=" ">
<polygon fill="none" stroke="black" points="1576.11,-307 1576.11,-337 1746.11,-337 1746.11,-307 1576.11,-307"/>
<text text-anchor="start" x="1584.11" y="-325" font-family="Helvetica,sans-Serif" font-size="10.00">/home/runner/work/occ</text>
<text text-anchor="middle" x="1661.11" y="-314" font-family="Helvetica,sans-Serif" font-size="10.00">/occ/include/occ/io/fchkreader.h</text>
</a>
</g>
</g>
<!-- Node4&#45;&gt;Node14 -->
<g id="edge19" class="edge">
<title>Node4&#45;&gt;Node14</title>
<path fill="none" stroke="midnightblue" d="M1397.38,-377.5C1446.43,-367.68 1510.43,-354.76 1567.11,-343 1576.34,-341.09 1586.08,-339.04 1595.64,-337.02"/>
<polygon fill="midnightblue" stroke="midnightblue" points="1396.58,-374.09 1387.46,-379.49 1397.96,-380.96 1396.58,-374.09"/>
</g>
<!-- Node15 -->
<g id="node15" class="node">
<title>Node15</title>
<g id="a_node15"><a xlink:href="wavefunction_8h.html" target="_top" xlink:title=" ">
<polygon fill="none" stroke="black" points="1621.61,-229 1621.61,-259 1812.61,-259 1812.61,-229 1621.61,-229"/>
<text text-anchor="start" x="1629.61" y="-247" font-family="Helvetica,sans-Serif" font-size="10.00">/home/runner/work/occ</text>
<text text-anchor="middle" x="1717.11" y="-236" font-family="Helvetica,sans-Serif" font-size="10.00">/occ/include/occ/qm/wavefunction.h</text>
</a>
</g>
</g>
<!-- Node4&#45;&gt;Node15 -->
<g id="edge48" class="edge">
<title>Node4&#45;&gt;Node15</title>
<path fill="none" stroke="midnightblue" d="M1401.49,-389.72C1522.15,-383.43 1732.04,-368.89 1755.11,-343 1776.97,-318.48 1749.3,-279.99 1730.95,-259.3"/>
<polygon fill="midnightblue" stroke="midnightblue" points="1400.99,-386.24 1391.18,-390.25 1401.35,-393.23 1400.99,-386.24"/>
</g>
<!-- Node22 -->
<g id="node22" class="node">
<title>Node22</title>
<g id="a_node22"><a xlink:href="scf_8h.html" target="_top" xlink:title=" ">
<polygon fill="none" stroke="black" points="2181.11,-151 2181.11,-181 2319.11,-181 2319.11,-151 2181.11,-151"/>
<text text-anchor="start" x="2189.11" y="-169" font-family="Helvetica,sans-Serif" font-size="10.00">/home/runner/work/occ</text>
<text text-anchor="middle" x="2250.11" y="-158" font-family="Helvetica,sans-Serif" font-size="10.00">/occ/include/occ/qm/scf.h</text>
</a>
</g>
</g>
<!-- Node4&#45;&gt;Node22 -->
<g id="edge45" class="edge">
<title>Node4&#45;&gt;Node22</title>
<path fill="none" stroke="midnightblue" d="M1401.41,-392.52C1642.46,-389.3 2319.51,-377.23 2352.11,-343 2400.82,-291.85 2311.17,-213.2 2269.61,-181.24"/>
<polygon fill="midnightblue" stroke="midnightblue" points="1401.25,-389.02 1391.29,-392.65 1401.34,-396.02 1401.25,-389.02"/>
</g>
<!-- Node23 -->
<g id="node23" class="node">
<title>Node23</title>
<g id="a_node23"><a xlink:href="fchkwriter_8h.html" target="_top" xlink:title=" ">
<polygon fill="none" stroke="black" points="1801.61,-307 1801.61,-337 1968.61,-337 1968.61,-307 1801.61,-307"/>
<text text-anchor="start" x="1809.61" y="-325" font-family="Helvetica,sans-Serif" font-size="10.00">/home/runner/work/occ</text>
<text text-anchor="middle" x="1885.11" y="-314" font-family="Helvetica,sans-Serif" font-size="10.00">/occ/include/occ/io/fchkwriter.h</text>
</a>
</g>
</g>
<!-- Node4&#45;&gt;Node23 -->
<g id="edge30" class="edge">
<title>Node4&#45;&gt;Node23</title>
<path fill="none" stroke="midnightblue" d="M1401.3,-386.94C1495.78,-379.01 1653.47,-364.05 1788.11,-343 1798.98,-341.3 1810.48,-339.2 1821.62,-337.01"/>
<polygon fill="midnightblue" stroke="midnightblue" points="1400.9,-383.46 1391.23,-387.78 1401.49,-390.44 1400.9,-383.46"/>
</g>
<!-- Node24 -->
<g id="node24" class="node">
<title>Node24</title>
<g id="a_node24"><a xlink:href="moldenreader_8h.html" target="_top" xlink:title=" ">
<polygon fill="none" stroke="black" points="1224.61,-307 1224.61,-337 1409.61,-337 1409.61,-307 1224.61,-307"/>
<text text-anchor="start" x="1232.61" y="-325" font-family="Helvetica,sans-Serif" font-size="10.00">/home/runner/work/occ</text>
<text text-anchor="middle" x="1317.11" y="-314" font-family="Helvetica,sans-Serif" font-size="10.00">/occ/include/occ/io/moldenreader.h</text>
</a>
</g>
</g>
<!-- Node4&#45;&gt;Node24 -->
<g id="edge32" class="edge">
<title>Node4&#45;&gt;Node24</title>
<path fill="none" stroke="midnightblue" d="M1317.11,-369.23C1317.11,-358.57 1317.11,-346.41 1317.11,-337.25"/>
<polygon fill="midnightblue" stroke="midnightblue" points="1313.61,-369.23 1317.11,-379.23 1320.61,-369.23 1313.61,-369.23"/>
</g>
<!-- Node25 -->
<g id="node25" class="node">
<title>Node25</title>
<g id="a_node25"><a xlink:href="orca__json_8h.html" target="_top" xlink:title=" ">
<polygon fill="none" stroke="black" points="1428.11,-301.5 1428.11,-342.5 1558.11,-342.5 1558.11,-301.5 1428.11,-301.5"/>
<text text-anchor="start" x="1436.11" y="-330.5" font-family="Helvetica,sans-Serif" font-size="10.00">/home/runner/work/occ</text>
<text text-anchor="start" x="1436.11" y="-319.5" font-family="Helvetica,sans-Serif" font-size="10.00">/occ/include/occ/io/orca</text>
<text text-anchor="middle" x="1493.11" y="-308.5" font-family="Helvetica,sans-Serif" font-size="10.00">_json.h</text>
</a>
</g>
</g>
<!-- Node4&#45;&gt;Node25 -->
<g id="edge34" class="edge">
<title>Node4&#45;&gt;Node25</title>
<path fill="none" stroke="midnightblue" d="M1361.63,-375.67C1386.85,-365.57 1418.43,-352.92 1444.31,-342.55"/>
<polygon fill="midnightblue" stroke="midnightblue" points="1360.29,-372.44 1352.3,-379.4 1362.89,-378.93 1360.29,-372.44"/>
</g>
<!-- Node26 -->
<g id="node26" class="node">
<title>Node26</title>
<g id="a_node26"><a xlink:href="cint__interface_8h.html" target="_top" xlink:title=" ">
<polygon fill="none" stroke="black" points="851.11,-301.5 851.11,-342.5 985.11,-342.5 985.11,-301.5 851.11,-301.5"/>
<text text-anchor="start" x="859.11" y="-330.5" font-family="Helvetica,sans-Serif" font-size="10.00">/home/runner/work/occ</text>
<text text-anchor="start" x="859.11" y="-319.5" font-family="Helvetica,sans-Serif" font-size="10.00">/occ/include/occ/qm/cint</text>
<text text-anchor="middle" x="918.11" y="-308.5" font-family="Helvetica,sans-Serif" font-size="10.00">_interface.h</text>
</a>
</g>
</g>
<!-- Node4&#45;&gt;Node26 -->
<g id="edge36" class="edge">
<title>Node4&#45;&gt;Node26</title>
<path fill="none" stroke="midnightblue" d="M1232.81,-382.1C1168.52,-372.92 1077.9,-358.95 999.11,-343 994.57,-342.08 989.9,-341.08 985.2,-340.03"/>
<polygon fill="midnightblue" stroke="midnightblue" points="1232.51,-385.59 1242.9,-383.53 1233.49,-378.66 1232.51,-385.59"/>
</g>
<!-- Node27 -->
<g id="node27" class="node">
<title>Node27</title>
<g id="a_node27"><a xlink:href="integral__engine_8h.html" target="_top" xlink:title=" ">
<polygon fill="none" stroke="black" points="889.61,-223.5 889.61,-264.5 1042.61,-264.5 1042.61,-223.5 889.61,-223.5"/>
<text text-anchor="start" x="897.61" y="-252.5" font-family="Helvetica,sans-Serif" font-size="10.00">/home/runner/work/occ</text>
<text text-anchor="start" x="897.61" y="-241.5" font-family="Helvetica,sans-Serif" font-size="10.00">/occ/include/occ/qm/integral</text>
<text text-anchor="middle" x="966.11" y="-230.5" font-family="Helvetica,sans-Serif" font-size="10.00">_engine.h</text>
</a>
</g>
</g>
<!-- Node4&#45;&gt;Node27 -->
<g id="edge42" class="edge">
<title>Node4&#45;&gt;Node27</title>
<path fill="none" stroke="midnightblue" d="M1232.45,-385.72C1161.01,-377.85 1065.39,-363.85 1033.11,-343 1017.88,-333.16 991.92,-290.53 977.19,-264.85"/>
<polygon fill="midnightblue" stroke="midnightblue" points="1232.48,-389.24 1242.8,-386.84 1233.23,-382.28 1232.48,-389.24"/>
</g>
<!-- Node29 -->
<g id="node29" class="node">
<title>Node29</title>
<g id="a_node29"><a xlink:href="merge_8h.html" target="_top" xlink:title=" ">
<polygon fill="none" stroke="black" points="1987.11,-307 1987.11,-337 2143.11,-337 2143.11,-307 1987.11,-307"/>
<text text-anchor="start" x="1995.11" y="-325" font-family="Helvetica,sans-Serif" font-size="10.00">/home/runner/work/occ</text>
<text text-anchor="middle" x="2065.11" y="-314" font-family="Helvetica,sans-Serif" font-size="10.00">/occ/include/occ/qm/merge.h</text>
</a>
</g>
</g>
<!-- Node4&#45;&gt;Node29 -->
<g id="edge43" class="edge">
<title>Node4&#45;&gt;Node29</title>
<path fill="none" stroke="midnightblue" d="M1401.73,-391.09C1527.9,-386.57 1772.54,-374.3 1978.11,-343 1988.38,-341.44 1999.23,-339.32 2009.66,-337.05"/>
<polygon fill="midnightblue" stroke="midnightblue" points="1401.25,-387.6 1391.37,-391.45 1401.49,-394.6 1401.25,-387.6"/>
</g>
<!-- Node30 -->
<g id="node30" class="node">
<title>Node30</title>
<g id="a_node30"><a xlink:href="partitioning_8h.html" target="_top" xlink:title=" ">
<polygon fill="none" stroke="black" points="2161.61,-307 2161.61,-337 2342.61,-337 2342.61,-307 2161.61,-307"/>
<text text-anchor="start" x="2169.61" y="-325" font-family="Helvetica,sans-Serif" font-size="10.00">/home/runner/work/occ</text>
<text text-anchor="middle" x="2252.11" y="-314" font-family="Helvetica,sans-Serif" font-size="10.00">/occ/include/occ/qm/partitioning.h</text>
</a>
</g>
</g>
<!-- Node4&#45;&gt;Node30 -->
<g id="edge44" class="edge">
<title>Node4&#45;&gt;Node30</title>
<path fill="none" stroke="midnightblue" d="M1401.28,-392.22C1552.29,-389.07 1878.98,-378.4 2152.11,-343 2164.05,-341.45 2176.7,-339.32 2188.85,-337.01"/>
<polygon fill="midnightblue" stroke="midnightblue" points="1401.08,-388.72 1391.15,-392.42 1401.22,-395.72 1401.08,-388.72"/>
</g>
<!-- Node31 -->
<g id="node31" class="node">
<title>Node31</title>
<g id="a_node31"><a xlink:href="shellblock__norm_8h.html" target="_top" xlink:title=" ">
<polygon fill="none" stroke="black" points="1041.61,-301.5 1041.61,-342.5 1206.61,-342.5 1206.61,-301.5 1041.61,-301.5"/>
<text text-anchor="start" x="1049.61" y="-330.5" font-family="Helvetica,sans-Serif" font-size="10.00">/home/runner/work/occ</text>
<text text-anchor="start" x="1049.61" y="-319.5" font-family="Helvetica,sans-Serif" font-size="10.00">/occ/include/occ/qm/shellblock</text>
<text text-anchor="middle" x="1124.11" y="-308.5" font-family="Helvetica,sans-Serif" font-size="10.00">_norm.h</text>
</a>
</g>
</g>
<!-- Node4&#45;&gt;Node31 -->
<g id="edge46" class="edge">
<title>Node4&#45;&gt;Node31</title>
<path fill="none" stroke="midnightblue" d="M1269.02,-375.93C1241.25,-365.79 1206.26,-353.01 1177.62,-342.55"/>
<polygon fill="midnightblue" stroke="midnightblue" points="1267.93,-379.26 1278.52,-379.4 1270.33,-372.68 1267.93,-379.26"/>
</g>
<!-- Node32 -->
<g id="node32" class="node">
<title>Node32</title>
<g id="a_node32"><a xlink:href="solvation__correction_8h.html" target="_top" xlink:title=" ">
<polygon fill="none" stroke="black" points="2399.61,-301.5 2399.61,-342.5 2532.61,-342.5 2532.61,-301.5 2399.61,-301.5"/>
<text text-anchor="start" x="2407.61" y="-330.5" font-family="Helvetica,sans-Serif" font-size="10.00">/home/runner/work/occ</text>
<text text-anchor="start" x="2407.61" y="-319.5" font-family="Helvetica,sans-Serif" font-size="10.00">/occ/include/occ/solvent</text>
<text text-anchor="middle" x="2466.11" y="-308.5" font-family="Helvetica,sans-Serif" font-size="10.00">/solvation_correction.h</text>
</a>
</g>
</g>
<!-- Node4&#45;&gt;Node32 -->
<g id="edge49" class="edge">
<title>Node4&#45;&gt;Node32</title>
<path fill="none" stroke="midnightblue" d="M1401.44,-391.64C1619.07,-386.48 2195.82,-370.58 2385.11,-343 2389.84,-342.31 2394.7,-341.47 2399.57,-340.52"/>
<polygon fill="midnightblue" stroke="midnightblue" points="1401.27,-388.14 1391.35,-391.87 1401.43,-395.14 1401.27,-388.14"/>
</g>
<!-- Node5&#45;&gt;Node3 -->
<g id="edge5" class="edge">
<title>Node5&#45;&gt;Node3</title>
<path fill="none" stroke="midnightblue" d="M357.65,-291.24C357.42,-242.17 352.2,-142.22 317.11,-67 310.62,-53.09 299.13,-40.1 289.51,-30.78"/>
<polygon fill="midnightblue" stroke="midnightblue" points="354.15,-291.46 357.62,-301.47 361.15,-291.48 354.15,-291.46"/>
</g>
<!-- Node5&#45;&gt;Node6 -->
<g id="edge6" class="edge">
<title>Node5&#45;&gt;Node6</title>
<path fill="none" stroke="midnightblue" d="M325.37,-294.78C313.34,-284.84 299.87,-273.72 288.72,-264.51"/>
<polygon fill="midnightblue" stroke="midnightblue" points="323.48,-297.76 333.42,-301.43 327.94,-292.36 323.48,-297.76"/>
</g>
<!-- Node7 -->
<g id="node7" class="node">
<title>Node7</title>
<g id="a_node7"><a xlink:href="seminumerical__exchange_8h.html" target="_top" xlink:title=" ">
<polygon fill="none" stroke="black" points="509.11,-145.5 509.11,-186.5 663.11,-186.5 663.11,-145.5 509.11,-145.5"/>
<text text-anchor="start" x="517.11" y="-174.5" font-family="Helvetica,sans-Serif" font-size="10.00">/home/runner/work/occ</text>
<text text-anchor="start" x="517.11" y="-163.5" font-family="Helvetica,sans-Serif" font-size="10.00">/occ/include/occ/dft</text>
<text text-anchor="middle" x="586.11" y="-152.5" font-family="Helvetica,sans-Serif" font-size="10.00">/seminumerical_exchange.h</text>
</a>
</g>
</g>
<!-- Node5&#45;&gt;Node7 -->
<g id="edge8" class="edge">
<title>Node5&#45;&gt;Node7</title>
<path fill="none" stroke="midnightblue" d="M367.48,-291.74C376.61,-269.92 391.94,-240.91 414.11,-223 441.11,-201.2 476.84,-187.78 508.75,-179.58"/>
<polygon fill="midnightblue" stroke="midnightblue" points="364.16,-290.6 363.72,-301.19 370.67,-293.19 364.16,-290.6"/>
</g>
<!-- Node5&#45;&gt;Node8 -->
<g id="edge9" class="edge">
<title>Node5&#45;&gt;Node8</title>
<path fill="none" stroke="midnightblue" d="M402.62,-296.64C425.69,-284.3 452.9,-269.73 472.53,-259.23"/>
<polygon fill="midnightblue" stroke="midnightblue" points="400.85,-293.62 393.68,-301.43 404.15,-299.8 400.85,-293.62"/>
</g>
<!-- Node6&#45;&gt;Node3 -->
<g id="edge7" class="edge">
<title>Node6&#45;&gt;Node3</title>
<path fill="none" stroke="midnightblue" d="M278.85,-213.71C293.49,-178.62 312.93,-118.16 300.11,-67 296.83,-53.88 289.41,-40.45 283.18,-30.74"/>
<polygon fill="midnightblue" stroke="midnightblue" points="275.45,-212.76 274.69,-223.33 281.87,-215.54 275.45,-212.76"/>
</g>
<!-- Node9&#45;&gt;Node3 -->
<g id="edge12" class="edge">
<title>Node9&#45;&gt;Node3</title>
<path fill="none" stroke="midnightblue" d="M51.1,-146.48C34.33,-137.83 17.68,-125.66 8.11,-109 -1.19,-92.81 -3.79,-81.38 8.11,-67 32.74,-37.23 135.71,-24.86 205.8,-19.82"/>
<polygon fill="midnightblue" stroke="midnightblue" points="49.85,-149.77 60.38,-150.94 52.88,-143.46 49.85,-149.77"/>
</g>
<!-- Node10 -->
<g id="node10" class="node">
<title>Node10</title>
<g id="a_node10"><a xlink:href="xc__potential__matrix_8h.html" target="_top" xlink:title=" ">
<polygon fill="none" stroke="black" points="17.11,-67.5 17.11,-108.5 145.11,-108.5 145.11,-67.5 17.11,-67.5"/>
<text text-anchor="start" x="25.11" y="-96.5" font-family="Helvetica,sans-Serif" font-size="10.00">/home/runner/work/occ</text>
<text text-anchor="start" x="25.11" y="-85.5" font-family="Helvetica,sans-Serif" font-size="10.00">/occ/include/occ/dft</text>
<text text-anchor="middle" x="81.11" y="-74.5" font-family="Helvetica,sans-Serif" font-size="10.00">/xc_potential_matrix.h</text>
</a>
</g>
</g>
<!-- Node9&#45;&gt;Node10 -->
<g id="edge13" class="edge">
<title>Node9&#45;&gt;Node10</title>
<path fill="none" stroke="midnightblue" d="M96.84,-140.98C93.69,-130.58 90.05,-118.55 87.07,-108.68"/>
<polygon fill="midnightblue" stroke="midnightblue" points="93.54,-142.15 99.79,-150.7 100.24,-140.12 93.54,-142.15"/>
</g>
<!-- Node11 -->
<g id="node11" class="node">
<title>Node11</title>
<g id="a_node11"><a xlink:href="density_8h.html" target="_top" xlink:title=" ">
<polygon fill="none" stroke="black" points="163.11,-67.5 163.11,-108.5 291.11,-108.5 291.11,-67.5 163.11,-67.5"/>
<text text-anchor="start" x="171.11" y="-96.5" font-family="Helvetica,sans-Serif" font-size="10.00">/home/runner/work/occ</text>
<text text-anchor="start" x="171.11" y="-85.5" font-family="Helvetica,sans-Serif" font-size="10.00">/occ/include/occ/gto</text>
<text text-anchor="middle" x="227.11" y="-74.5" font-family="Helvetica,sans-Serif" font-size="10.00">/density.h</text>
</a>
</g>
</g>
<!-- Node9&#45;&gt;Node11 -->
<g id="edge15" class="edge">
<title>Node9&#45;&gt;Node11</title>
<path fill="none" stroke="midnightblue" d="M135.51,-145.6C153.77,-134.31 176.74,-120.12 195.11,-108.77"/>
<polygon fill="midnightblue" stroke="midnightblue" points="133.63,-142.65 126.96,-150.88 137.31,-148.6 133.63,-142.65"/>
</g>
<!-- Node10&#45;&gt;Node3 -->
<g id="edge14" class="edge">
<title>Node10&#45;&gt;Node3</title>
<path fill="none" stroke="midnightblue" d="M143.88,-63.95C173.85,-52.95 208.75,-40.13 234.72,-30.6"/>
<polygon fill="midnightblue" stroke="midnightblue" points="142.52,-60.72 134.34,-67.46 144.93,-67.29 142.52,-60.72"/>
</g>
<!-- Node11&#45;&gt;Node3 -->
<g id="edge16" class="edge">
<title>Node11&#45;&gt;Node3</title>
<path fill="none" stroke="midnightblue" d="M245.48,-58.85C251.74,-49.26 258.47,-38.94 263.72,-30.89"/>
<polygon fill="midnightblue" stroke="midnightblue" points="242.46,-57.07 239.93,-67.36 248.32,-60.9 242.46,-57.07"/>
</g>
<!-- Node14&#45;&gt;Node15 -->
<g id="edge20" class="edge">
<title>Node14&#45;&gt;Node15</title>
<path fill="none" stroke="midnightblue" d="M1677.73,-298.44C1687.1,-285.73 1698.5,-270.25 1706.63,-259.23"/>
<polygon fill="midnightblue" stroke="midnightblue" points="1674.76,-296.58 1671.64,-306.7 1680.39,-300.73 1674.76,-296.58"/>
</g>
<!-- Node16 -->
<g id="node16" class="node">
<title>Node16</title>
<g id="a_node16"><a xlink:href="pairinteraction_8h.html" target="_top" xlink:title=" ">
<polygon fill="none" stroke="black" points="1310.61,-145.5 1310.61,-186.5 1459.61,-186.5 1459.61,-145.5 1310.61,-145.5"/>
<text text-anchor="start" x="1318.61" y="-174.5" font-family="Helvetica,sans-Serif" font-size="10.00">/home/runner/work/occ</text>
<text text-anchor="start" x="1318.61" y="-163.5" font-family="Helvetica,sans-Serif" font-size="10.00">/occ/include/occ/interaction</text>
<text text-anchor="middle" x="1385.11" y="-152.5" font-family="Helvetica,sans-Serif" font-size="10.00">/pairinteraction.h</text>
</a>
</g>
</g>
<!-- Node15&#45;&gt;Node16 -->
<g id="edge21" class="edge">
<title>Node15&#45;&gt;Node16</title>
<path fill="none" stroke="midnightblue" d="M1644.16,-226.76C1594.73,-215.7 1527.94,-200.65 1469.11,-187 1466.04,-186.29 1462.92,-185.56 1459.76,-184.82"/>
<polygon fill="midnightblue" stroke="midnightblue" points="1643.6,-230.22 1654.12,-228.99 1645.13,-223.39 1643.6,-230.22"/>
</g>
<!-- Node17 -->
<g id="node17" class="node">
<title>Node17</title>
<g id="a_node17"><a xlink:href="pair__energy_8h.html" target="_top" xlink:title=" ">
<polygon fill="none" stroke="black" points="1445.11,-67.5 1445.11,-108.5 1573.11,-108.5 1573.11,-67.5 1445.11,-67.5"/>
<text text-anchor="start" x="1453.11" y="-96.5" font-family="Helvetica,sans-Serif" font-size="10.00">/home/runner/work/occ</text>
<text text-anchor="start" x="1453.11" y="-85.5" font-family="Helvetica,sans-Serif" font-size="10.00">/occ/include/occ/main</text>
<text text-anchor="middle" x="1509.11" y="-74.5" font-family="Helvetica,sans-Serif" font-size="10.00">/pair_energy.h</text>
</a>
</g>
</g>
<!-- Node15&#45;&gt;Node17 -->
<g id="edge25" class="edge">
<title>Node15&#45;&gt;Node17</title>
<path fill="none" stroke="midnightblue" d="M1692.63,-222.2C1680.76,-211.88 1666.43,-199.06 1654.11,-187 1635.9,-169.18 1635.33,-160.5 1615.11,-145 1596.45,-130.69 1573.61,-118.1 1553.92,-108.5"/>
<polygon fill="midnightblue" stroke="midnightblue" points="1690.55,-225.03 1700.4,-228.92 1695.12,-219.73 1690.55,-225.03"/>
</g>
<!-- Node18 -->
<g id="node18" class="node">
<title>Node18</title>
<g id="a_node18"><a xlink:href="wavefunction__json_8h.html" target="_top" xlink:title=" ">
<polygon fill="none" stroke="black" points="1662.61,-145.5 1662.61,-186.5 1837.61,-186.5 1837.61,-145.5 1662.61,-145.5"/>
<text text-anchor="start" x="1670.61" y="-174.5" font-family="Helvetica,sans-Serif" font-size="10.00">/home/runner/work/occ</text>
<text text-anchor="start" x="1670.61" y="-163.5" font-family="Helvetica,sans-Serif" font-size="10.00">/occ/include/occ/io/wavefunction</text>
<text text-anchor="middle" x="1750.11" y="-152.5" font-family="Helvetica,sans-Serif" font-size="10.00">_json.h</text>
</a>
</g>
</g>
<!-- Node15&#45;&gt;Node18 -->
<g id="edge24" class="edge">
<title>Node15&#45;&gt;Node18</title>
<path fill="none" stroke="midnightblue" d="M1727.4,-219.31C1731.95,-208.83 1737.24,-196.65 1741.57,-186.68"/>
<polygon fill="midnightblue" stroke="midnightblue" points="1724.09,-218.14 1723.32,-228.7 1730.51,-220.93 1724.09,-218.14"/>
</g>
<!-- Node19 -->
<g id="node19" class="node">
<title>Node19</title>
<g id="a_node19"><a xlink:href="properties_8h.html" target="_top" xlink:title=" ">
<polygon fill="none" stroke="black" points="1856.11,-145.5 1856.11,-186.5 1984.11,-186.5 1984.11,-145.5 1856.11,-145.5"/>
<text text-anchor="start" x="1864.11" y="-174.5" font-family="Helvetica,sans-Serif" font-size="10.00">/home/runner/work/occ</text>
<text text-anchor="start" x="1864.11" y="-163.5" font-family="Helvetica,sans-Serif" font-size="10.00">/occ/include/occ/main</text>
<text text-anchor="middle" x="1920.11" y="-152.5" font-family="Helvetica,sans-Serif" font-size="10.00">/properties.h</text>
</a>
</g>
</g>
<!-- Node15&#45;&gt;Node19 -->
<g id="edge26" class="edge">
<title>Node15&#45;&gt;Node19</title>
<path fill="none" stroke="midnightblue" d="M1764.5,-225.26C1795.42,-213.68 1835.81,-198.56 1867.68,-186.63"/>
<polygon fill="midnightblue" stroke="midnightblue" points="1762.96,-222.1 1754.82,-228.88 1765.41,-228.65 1762.96,-222.1"/>
</g>
<!-- Node20 -->
<g id="node20" class="node">
<title>Node20</title>
<g id="a_node20"><a xlink:href="single__point_8h.html" target="_top" xlink:title=" ">
<polygon fill="none" stroke="black" points="2002.11,-145.5 2002.11,-186.5 2130.11,-186.5 2130.11,-145.5 2002.11,-145.5"/>
<text text-anchor="start" x="2010.11" y="-174.5" font-family="Helvetica,sans-Serif" font-size="10.00">/home/runner/work/occ</text>
<text text-anchor="start" x="2010.11" y="-163.5" font-family="Helvetica,sans-Serif" font-size="10.00">/occ/include/occ/main</text>
<text text-anchor="middle" x="2066.11" y="-152.5" font-family="Helvetica,sans-Serif" font-size="10.00">/single_point.h</text>
</a>
</g>
</g>
<!-- Node15&#45;&gt;Node20 -->
<g id="edge27" class="edge">
<title>Node15&#45;&gt;Node20</title>
<path fill="none" stroke="midnightblue" d="M1803.25,-227.07C1857.86,-216.59 1929.87,-202.06 1993.11,-187 1996.05,-186.3 1999.05,-185.56 2002.08,-184.8"/>
<polygon fill="midnightblue" stroke="midnightblue" points="1802.43,-223.66 1793.27,-228.98 1803.74,-230.54 1802.43,-223.66"/>
</g>
<!-- Node21 -->
<g id="node21" class="node">
<title>Node21</title>
<g id="a_node21"><a xlink:href="solvation__partition_8h.html" target="_top" xlink:title=" ">
<polygon fill="none" stroke="black" points="1478.11,-145.5 1478.11,-186.5 1606.11,-186.5 1606.11,-145.5 1478.11,-145.5"/>
<text text-anchor="start" x="1486.11" y="-174.5" font-family="Helvetica,sans-Serif" font-size="10.00">/home/runner/work/occ</text>
<text text-anchor="start" x="1486.11" y="-163.5" font-family="Helvetica,sans-Serif" font-size="10.00">/occ/include/occ/main</text>
<text text-anchor="middle" x="1542.11" y="-152.5" font-family="Helvetica,sans-Serif" font-size="10.00">/solvation_partition.h</text>
</a>
</g>
</g>
<!-- Node15&#45;&gt;Node21 -->
<g id="edge28" class="edge">
<title>Node15&#45;&gt;Node21</title>
<path fill="none" stroke="midnightblue" d="M1675.22,-224.81C1648.7,-213.29 1614.43,-198.41 1587.31,-186.63"/>
<polygon fill="midnightblue" stroke="midnightblue" points="1674.04,-228.11 1684.61,-228.88 1676.83,-221.69 1674.04,-228.11"/>
</g>
<!-- Node15&#45;&gt;Node22 -->
<g id="edge29" class="edge">
<title>Node15&#45;&gt;Node22</title>
<path fill="none" stroke="midnightblue" d="M1822.8,-230.35C1908.27,-219.79 2031.65,-203.8 2139.11,-187 2152.65,-184.88 2167.09,-182.43 2180.92,-179.98"/>
<polygon fill="midnightblue" stroke="midnightblue" points="1822.32,-226.89 1812.83,-231.58 1823.18,-233.83 1822.32,-226.89"/>
</g>
<!-- Node16&#45;&gt;Node17 -->
<g id="edge22" class="edge">
<title>Node16&#45;&gt;Node17</title>
<path fill="none" stroke="midnightblue" d="M1426.03,-139.92C1442.7,-129.7 1461.68,-118.07 1477.29,-108.51"/>
<polygon fill="midnightblue" stroke="midnightblue" points="1423.74,-137.22 1417.04,-145.43 1427.4,-143.19 1423.74,-137.22"/>
</g>
<!-- Node17&#45;&gt;Node17 -->
<g id="edge23" class="edge">
<title>Node17&#45;&gt;Node17</title>
<path fill="none" stroke="midnightblue" d="M1583.26,-97.64C1588.15,-95.4 1591.11,-92.19 1591.11,-88 1591.11,-81.46 1583.9,-77.3 1573.4,-75.51"/>
<polygon fill="midnightblue" stroke="midnightblue" points="1582.04,-94.35 1573.4,-100.49 1583.98,-101.08 1582.04,-94.35"/>
</g>
<!-- Node23&#45;&gt;Node15 -->
<g id="edge31" class="edge">
<title>Node23&#45;&gt;Node15</title>
<path fill="none" stroke="midnightblue" d="M1844.66,-302.7C1815,-289.28 1775.33,-271.34 1748.15,-259.04"/>
<polygon fill="midnightblue" stroke="midnightblue" points="1843.35,-305.95 1853.91,-306.88 1846.24,-299.57 1843.35,-305.95"/>
</g>
<!-- Node24&#45;&gt;Node15 -->
<g id="edge33" class="edge">
<title>Node24&#45;&gt;Node15</title>
<path fill="none" stroke="midnightblue" d="M1398.41,-305C1405.41,-303.64 1412.38,-302.29 1419.11,-301 1494.72,-286.48 1581.2,-270.28 1641.45,-259.05"/>
<polygon fill="midnightblue" stroke="midnightblue" points="1397.3,-301.65 1388.16,-307 1398.64,-308.52 1397.3,-301.65"/>
</g>
<!-- Node25&#45;&gt;Node15 -->
<g id="edge35" class="edge">
<title>Node25&#45;&gt;Node15</title>
<path fill="none" stroke="midnightblue" d="M1560.62,-298.1C1598.02,-285.41 1643.32,-270.04 1675.53,-259.11"/>
<polygon fill="midnightblue" stroke="midnightblue" points="1559.14,-294.9 1550.8,-301.43 1561.39,-301.53 1559.14,-294.9"/>
</g>
<!-- Node26&#45;&gt;Node27 -->
<g id="edge37" class="edge">
<title>Node26&#45;&gt;Node27</title>
<path fill="none" stroke="midnightblue" d="M935.95,-292.76C941.89,-283.35 948.37,-273.1 953.79,-264.51"/>
<polygon fill="midnightblue" stroke="midnightblue" points="932.85,-291.1 930.47,-301.43 938.77,-294.84 932.85,-291.1"/>
</g>
<!-- Node27&#45;&gt;Node2 -->
<g id="edge39" class="edge">
<title>Node27&#45;&gt;Node2</title>
<path fill="none" stroke="midnightblue" d="M945.69,-214.99C940.55,-206.42 935.76,-196.7 933.11,-187 928.2,-168.99 928.08,-162.98 933.11,-145 937.46,-129.45 947.45,-113.92 955.48,-103.17"/>
<polygon fill="midnightblue" stroke="midnightblue" points="942.75,-216.89 951.08,-223.44 948.65,-213.13 942.75,-216.89"/>
</g>
<!-- Node27&#45;&gt;Node7 -->
<g id="edge38" class="edge">
<title>Node27&#45;&gt;Node7</title>
<path fill="none" stroke="midnightblue" d="M879.37,-225.65C814.25,-212.63 725.89,-194.95 663.22,-182.42"/>
<polygon fill="midnightblue" stroke="midnightblue" points="878.72,-229.09 889.21,-227.62 880.09,-222.23 878.72,-229.09"/>
</g>
<!-- Node28 -->
<g id="node28" class="node">
<title>Node28</title>
<g id="a_node28"><a xlink:href="integral__engine__df_8h.html" target="_top" xlink:title=" ">
<polygon fill="none" stroke="black" points="942.61,-145.5 942.61,-186.5 1095.61,-186.5 1095.61,-145.5 942.61,-145.5"/>
<text text-anchor="start" x="950.61" y="-174.5" font-family="Helvetica,sans-Serif" font-size="10.00">/home/runner/work/occ</text>
<text text-anchor="start" x="950.61" y="-163.5" font-family="Helvetica,sans-Serif" font-size="10.00">/occ/include/occ/qm/integral</text>
<text text-anchor="middle" x="1019.11" y="-152.5" font-family="Helvetica,sans-Serif" font-size="10.00">_engine_df.h</text>
</a>
</g>
</g>
<!-- Node27&#45;&gt;Node28 -->
<g id="edge40" class="edge">
<title>Node27&#45;&gt;Node28</title>
<path fill="none" stroke="midnightblue" d="M985.6,-215.05C992.22,-205.57 999.46,-195.18 1005.51,-186.51"/>
<polygon fill="midnightblue" stroke="midnightblue" points="982.61,-213.22 979.76,-223.43 988.35,-217.23 982.61,-213.22"/>
</g>
<!-- Node28&#45;&gt;Node2 -->
<g id="edge41" class="edge">
<title>Node28&#45;&gt;Node2</title>
<path fill="none" stroke="midnightblue" d="M999.94,-136.98C992.08,-125.5 983.33,-112.71 976.84,-103.23"/>
<polygon fill="midnightblue" stroke="midnightblue" points="997.18,-139.15 1005.72,-145.43 1002.96,-135.2 997.18,-139.15"/>
</g>
<!-- Node31&#45;&gt;Node27 -->
<g id="edge47" class="edge">
<title>Node31&#45;&gt;Node27</title>
<path fill="none" stroke="midnightblue" d="M1074.32,-297.05C1052.53,-286.57 1027.28,-274.42 1006.66,-264.51"/>
<polygon fill="midnightblue" stroke="midnightblue" points="1072.89,-300.25 1083.42,-301.43 1075.93,-293.94 1072.89,-300.25"/>
</g>
</g>
</svg>
