<?xml version="1.0" encoding="UTF-8" standalone="no"?>
<!DOCTYPE svg PUBLIC "-//W3C//DTD SVG 1.1//EN"
 "http://www.w3.org/Graphics/SVG/1.1/DTD/svg11.dtd">
<!-- Generated by graphviz version 2.43.0 (0)
 -->
<!-- Title: /home/runner/work/occ/occ/include/occ/interaction/polarization_partitioning.h Pages: 1 -->
<svg width="533pt" height="324pt"
 viewBox="0.00 0.00 533.03 324.00" xmlns="http://www.w3.org/2000/svg" xmlns:xlink="http://www.w3.org/1999/xlink">
<g id="graph0" class="graph" transform="scale(1 1) rotate(0) translate(4 320)">
<title>/home/runner/work/occ/occ/include/occ/interaction/polarization_partitioning.h</title>
<!-- Node1 -->
<g id="Node000001" class="node">
<title>Node1</title>
<g id="a_Node000001"><a xlink:title=" ">
<polygon fill="#999999" stroke="#666666" points="368,-316 219,-316 219,-275 368,-275 368,-316"/>
<text text-anchor="start" x="227" y="-304" font-family="Helvetica,sans-Serif" font-size="10.00">/home/runner/work/occ</text>
<text text-anchor="start" x="227" y="-293" font-family="Helvetica,sans-Serif" font-size="10.00">/occ/include/occ/interaction</text>
<text text-anchor="middle" x="293.5" y="-282" font-family="Helvetica,sans-Serif" font-size="10.00">/polarization_partitioning.h</text>
</a>
</g>
</g>
<!-- Node2 -->
<g id="Node000002" class="node">
<title>Node2</title>
<g id="a_Node000002"><a xlink:href="linear__algebra_8h.html" target="_top" xlink:title=" ">
<polygon fill="white" stroke="#666666" points="211,-74 72,-74 72,-55 211,-55 211,-74"/>
<text text-anchor="middle" x="141.5" y="-62" font-family="Helvetica,sans-Serif" font-size="10.00">occ/core/linear_algebra.h</text>
</a>
</g>
</g>
<!-- Node1&#45;&gt;Node2 -->
<g id="edge1_Node000001_Node000002" class="edge">
<title>Node1&#45;&gt;Node2</title>
<g id="a_edge1_Node000001_Node000002"><a xlink:title=" ">
<path fill="none" stroke="#63b8ff" d="M237.09,-274.87C197.19,-257.67 146.67,-228.39 122.5,-184 104.89,-151.66 120.65,-107.49 132.1,-83.24"/>
<polygon fill="#63b8ff" stroke="#63b8ff" points="135.3,-84.67 136.63,-74.16 129.04,-81.54 135.3,-84.67"/>
</a>
</g>
</g>
<!-- Node6 -->
<g id="Node000006" class="node">
<title>Node6</title>
<g id="a_Node000006"><a xlink:href="dimer_8h.html" target="_top" xlink:title=" ">
<polygon fill="white" stroke="#666666" points="364,-239 267,-239 267,-220 364,-220 364,-239"/>
<text text-anchor="middle" x="315.5" y="-227" font-family="Helvetica,sans-Serif" font-size="10.00">occ/core/dimer.h</text>
</a>
</g>
</g>
<!-- Node1&#45;&gt;Node6 -->
<g id="edge5_Node000001_Node000006" class="edge">
<title>Node1&#45;&gt;Node6</title>
<g id="a_edge5_Node000001_Node000006"><a xlink:title=" ">
<path fill="none" stroke="#63b8ff" d="M300.22,-274.95C303.07,-266.67 306.37,-257.07 309.17,-248.92"/>
<polygon fill="#63b8ff" stroke="#63b8ff" points="312.55,-249.86 312.49,-239.26 305.93,-247.58 312.55,-249.86"/>
</a>
</g>
</g>
<!-- Node7 -->
<g id="Node000007" class="node">
<title>Node7</title>
<g id="a_Node000007"><a xlink:title=" ">
<polygon fill="#e0e0e0" stroke="#999999" points="275,-184 132,-184 132,-165 275,-165 275,-184"/>
<text text-anchor="middle" x="203.5" y="-172" font-family="Helvetica,sans-Serif" font-size="10.00">ankerl/unordered_dense.h</text>
</a>
</g>
</g>
<!-- Node1&#45;&gt;Node7 -->
<g id="edge17_Node000001_Node000007" class="edge">
<title>Node1&#45;&gt;Node7</title>
<g id="a_edge17_Node000001_Node000007"><a xlink:title=" ">
<path fill="none" stroke="#63b8ff" d="M278.64,-274.85C261.25,-251.86 232.75,-214.18 216.31,-192.43"/>
<polygon fill="#63b8ff" stroke="#63b8ff" points="218.88,-190.04 210.06,-184.18 213.3,-194.26 218.88,-190.04"/>
</a>
</g>
</g>
<!-- Node13 -->
<g id="Node000013" class="node">
<title>Node13</title>
<g id="a_Node000013"><a xlink:title=" ">
<polygon fill="#e0e0e0" stroke="#999999" points="525,-74 478,-74 478,-55 525,-55 525,-74"/>
<text text-anchor="middle" x="501.5" y="-62" font-family="Helvetica,sans-Serif" font-size="10.00">vector</text>
</a>
</g>
</g>
<!-- Node1&#45;&gt;Node13 -->
<g id="edge18_Node000001_Node000013" class="edge">
<title>Node1&#45;&gt;Node13</title>
<g id="a_edge18_Node000001_Node000013"><a xlink:title=" ">
<path fill="none" stroke="#63b8ff" d="M344.44,-274.95C387.34,-256.52 448.3,-225.54 490.5,-184 516.04,-158.86 530.34,-144.96 522.5,-110 520.42,-100.74 516.2,-91.14 512.07,-83.23"/>
<polygon fill="#63b8ff" stroke="#63b8ff" points="515.01,-81.31 507.08,-74.28 508.9,-84.72 515.01,-81.31"/>
</a>
</g>
</g>
<!-- Node3 -->
<g id="Node000003" class="node">
<title>Node3</title>
<g id="a_Node000003"><a xlink:title=" ">
<polygon fill="#e0e0e0" stroke="#999999" points="77,-19 0,-19 0,0 77,0 77,-19"/>
<text text-anchor="middle" x="38.5" y="-7" font-family="Helvetica,sans-Serif" font-size="10.00">Eigen/Dense</text>
</a>
</g>
</g>
<!-- Node2&#45;&gt;Node3 -->
<g id="edge2_Node000002_Node000003" class="edge">
<title>Node2&#45;&gt;Node3</title>
<g id="a_edge2_Node000002_Node000003"><a xlink:title=" ">
<path fill="none" stroke="#63b8ff" d="M124.95,-54.98C108.61,-46.57 83.37,-33.59 64.37,-23.81"/>
<polygon fill="#63b8ff" stroke="#63b8ff" points="65.84,-20.63 55.35,-19.17 62.64,-26.86 65.84,-20.63"/>
</a>
</g>
</g>
<!-- Node4 -->
<g id="Node000004" class="node">
<title>Node4</title>
<g id="a_Node000004"><a xlink:title=" ">
<polygon fill="#e0e0e0" stroke="#999999" points="188,-19 95,-19 95,0 188,0 188,-19"/>
<text text-anchor="middle" x="141.5" y="-7" font-family="Helvetica,sans-Serif" font-size="10.00">Eigen/StdVector</text>
</a>
</g>
</g>
<!-- Node2&#45;&gt;Node4 -->
<g id="edge3_Node000002_Node000004" class="edge">
<title>Node2&#45;&gt;Node4</title>
<g id="a_edge3_Node000002_Node000004"><a xlink:title=" ">
<path fill="none" stroke="#63b8ff" d="M141.5,-54.75C141.5,-47.8 141.5,-37.85 141.5,-29.13"/>
<polygon fill="#63b8ff" stroke="#63b8ff" points="145,-29.09 141.5,-19.09 138,-29.09 145,-29.09"/>
</a>
</g>
</g>
<!-- Node5 -->
<g id="Node000005" class="node">
<title>Node5</title>
<g id="a_Node000005"><a xlink:title=" ">
<polygon fill="#e0e0e0" stroke="#999999" points="273,-19 206,-19 206,0 273,0 273,-19"/>
<text text-anchor="middle" x="239.5" y="-7" font-family="Helvetica,sans-Serif" font-size="10.00">fmt/core.h</text>
</a>
</g>
</g>
<!-- Node2&#45;&gt;Node5 -->
<g id="edge4_Node000002_Node000005" class="edge">
<title>Node2&#45;&gt;Node5</title>
<g id="a_edge4_Node000002_Node000005"><a xlink:title=" ">
<path fill="none" stroke="#63b8ff" d="M157.25,-54.98C172.73,-46.61 196.59,-33.7 214.64,-23.95"/>
<polygon fill="#63b8ff" stroke="#63b8ff" points="216.34,-27.01 223.47,-19.17 213.01,-20.85 216.34,-27.01"/>
</a>
</g>
</g>
<!-- Node6&#45;&gt;Node7 -->
<g id="edge6_Node000006_Node000007" class="edge">
<title>Node6&#45;&gt;Node7</title>
<g id="a_edge6_Node000006_Node000007"><a xlink:title=" ">
<path fill="none" stroke="#63b8ff" d="M297.51,-219.98C279.57,-211.5 251.78,-198.35 231.07,-188.54"/>
<polygon fill="#63b8ff" stroke="#63b8ff" points="232.36,-185.28 221.82,-184.17 229.36,-191.61 232.36,-185.28"/>
</a>
</g>
</g>
<!-- Node8 -->
<g id="Node000008" class="node">
<title>Node8</title>
<g id="a_Node000008"><a xlink:href="molecule_8h.html" target="_top" xlink:title=" ">
<polygon fill="white" stroke="#666666" points="407.5,-184 293.5,-184 293.5,-165 407.5,-165 407.5,-184"/>
<text text-anchor="middle" x="350.5" y="-172" font-family="Helvetica,sans-Serif" font-size="10.00">occ/core/molecule.h</text>
</a>
</g>
</g>
<!-- Node6&#45;&gt;Node8 -->
<g id="edge7_Node000006_Node000008" class="edge">
<title>Node6&#45;&gt;Node8</title>
<g id="a_edge7_Node000006_Node000008"><a xlink:title=" ">
<path fill="none" stroke="#63b8ff" d="M321.28,-219.75C326.12,-212.42 333.18,-201.73 339.14,-192.7"/>
<polygon fill="#63b8ff" stroke="#63b8ff" points="342.24,-194.36 344.83,-184.09 336.4,-190.5 342.24,-194.36"/>
</a>
</g>
</g>
<!-- Node15 -->
<g id="Node000015" class="node">
<title>Node15</title>
<g id="a_Node000015"><a xlink:title=" ">
<polygon fill="#e0e0e0" stroke="#999999" points="481.5,-184 425.5,-184 425.5,-165 481.5,-165 481.5,-184"/>
<text text-anchor="middle" x="453.5" y="-172" font-family="Helvetica,sans-Serif" font-size="10.00">optional</text>
</a>
</g>
</g>
<!-- Node6&#45;&gt;Node15 -->
<g id="edge16_Node000006_Node000015" class="edge">
<title>Node6&#45;&gt;Node15</title>
<g id="a_edge16_Node000006_Node000015"><a xlink:title=" ">
<path fill="none" stroke="#63b8ff" d="M337.67,-219.98C360.27,-211.3 395.56,-197.75 421.25,-187.88"/>
<polygon fill="#63b8ff" stroke="#63b8ff" points="422.84,-191.02 430.92,-184.17 420.33,-184.49 422.84,-191.02"/>
</a>
</g>
</g>
<!-- Node8&#45;&gt;Node2 -->
<g id="edge14_Node000008_Node000002" class="edge">
<title>Node8&#45;&gt;Node2</title>
<g id="a_edge14_Node000008_Node000002"><a xlink:title=" ">
<path fill="none" stroke="#63b8ff" d="M303.2,-164.97C250.39,-155.06 170.92,-138.81 160.5,-129 148.33,-117.55 143.86,-98.66 142.26,-84.46"/>
<polygon fill="#63b8ff" stroke="#63b8ff" points="145.74,-84.01 141.5,-74.3 138.76,-84.53 145.74,-84.01"/>
</a>
</g>
</g>
<!-- Node9 -->
<g id="Node000009" class="node">
<title>Node9</title>
<g id="a_Node000009"><a xlink:title=" ">
<polygon fill="#e0e0e0" stroke="#999999" points="211.5,-129 169.5,-129 169.5,-110 211.5,-110 211.5,-129"/>
<text text-anchor="middle" x="190.5" y="-117" font-family="Helvetica,sans-Serif" font-size="10.00">array</text>
</a>
</g>
</g>
<!-- Node8&#45;&gt;Node9 -->
<g id="edge8_Node000008_Node000009" class="edge">
<title>Node8&#45;&gt;Node9</title>
<g id="a_edge8_Node000008_Node000009"><a xlink:title=" ">
<path fill="none" stroke="#63b8ff" d="M324.79,-164.98C296.54,-155.63 251.18,-140.6 221.11,-130.64"/>
<polygon fill="#63b8ff" stroke="#63b8ff" points="222.14,-127.29 211.55,-127.47 219.94,-133.94 222.14,-127.29"/>
</a>
</g>
</g>
<!-- Node10 -->
<g id="Node000010" class="node">
<title>Node10</title>
<g id="a_Node000010"><a xlink:href="atom_8h.html" target="_top" xlink:title=" ">
<polygon fill="white" stroke="#666666" points="325,-129 230,-129 230,-110 325,-110 325,-129"/>
<text text-anchor="middle" x="277.5" y="-117" font-family="Helvetica,sans-Serif" font-size="10.00">occ/core/atom.h</text>
</a>
</g>
</g>
<!-- Node8&#45;&gt;Node10 -->
<g id="edge9_Node000008_Node000010" class="edge">
<title>Node8&#45;&gt;Node10</title>
<g id="a_edge9_Node000008_Node000010"><a xlink:title=" ">
<path fill="none" stroke="#63b8ff" d="M338.77,-164.98C327.77,-157 311.08,-144.88 297.9,-135.31"/>
<polygon fill="#63b8ff" stroke="#63b8ff" points="299.59,-132.21 289.44,-129.17 295.48,-137.88 299.59,-132.21"/>
</a>
</g>
</g>
<!-- Node11 -->
<g id="Node000011" class="node">
<title>Node11</title>
<g id="a_Node000011"><a xlink:href="element_8h.html" target="_top" xlink:title=" ">
<polygon fill="white" stroke="#666666" points="453.5,-129 343.5,-129 343.5,-110 453.5,-110 453.5,-129"/>
<text text-anchor="middle" x="398.5" y="-117" font-family="Helvetica,sans-Serif" font-size="10.00">occ/core/element.h</text>
</a>
</g>
</g>
<!-- Node8&#45;&gt;Node11 -->
<g id="edge11_Node000008_Node000011" class="edge">
<title>Node8&#45;&gt;Node11</title>
<g id="a_edge11_Node000008_Node000011"><a xlink:title=" ">
<path fill="none" stroke="#63b8ff" d="M358.43,-164.75C365.35,-157.11 375.57,-145.82 383.95,-136.56"/>
<polygon fill="#63b8ff" stroke="#63b8ff" points="386.6,-138.85 390.72,-129.09 381.41,-134.15 386.6,-138.85"/>
</a>
</g>
</g>
<!-- Node14 -->
<g id="Node000014" class="node">
<title>Node14</title>
<g id="a_Node000014"><a xlink:title=" ">
<polygon fill="#e0e0e0" stroke="#999999" points="513,-129 472,-129 472,-110 513,-110 513,-129"/>
<text text-anchor="middle" x="492.5" y="-117" font-family="Helvetica,sans-Serif" font-size="10.00">tuple</text>
</a>
</g>
</g>
<!-- Node8&#45;&gt;Node14 -->
<g id="edge15_Node000008_Node000014" class="edge">
<title>Node8&#45;&gt;Node14</title>
<g id="a_edge15_Node000008_Node000014"><a xlink:title=" ">
<path fill="none" stroke="#63b8ff" d="M373.31,-164.98C397.37,-156.01 435.39,-141.82 462,-131.88"/>
<polygon fill="#63b8ff" stroke="#63b8ff" points="463.45,-135.08 471.59,-128.3 461,-128.52 463.45,-135.08"/>
</a>
</g>
</g>
<!-- Node10&#45;&gt;Node2 -->
<g id="edge10_Node000010_Node000002" class="edge">
<title>Node10&#45;&gt;Node2</title>
<g id="a_edge10_Node000010_Node000002"><a xlink:title=" ">
<path fill="none" stroke="#63b8ff" d="M255.65,-109.98C233.38,-101.3 198.6,-87.75 173.28,-77.88"/>
<polygon fill="#63b8ff" stroke="#63b8ff" points="174.34,-74.54 163.75,-74.17 171.79,-81.06 174.34,-74.54"/>
</a>
</g>
</g>
<!-- Node12 -->
<g id="Node000012" class="node">
<title>Node12</title>
<g id="a_Node000012"><a xlink:title=" ">
<polygon fill="#e0e0e0" stroke="#999999" points="420.5,-74 376.5,-74 376.5,-55 420.5,-55 420.5,-74"/>
<text text-anchor="middle" x="398.5" y="-62" font-family="Helvetica,sans-Serif" font-size="10.00">string</text>
</a>
</g>
</g>
<!-- Node11&#45;&gt;Node12 -->
<g id="edge12_Node000011_Node000012" class="edge">
<title>Node11&#45;&gt;Node12</title>
<g id="a_edge12_Node000011_Node000012"><a xlink:title=" ">
<path fill="none" stroke="#63b8ff" d="M398.5,-109.75C398.5,-102.8 398.5,-92.85 398.5,-84.13"/>
<polygon fill="#63b8ff" stroke="#63b8ff" points="402,-84.09 398.5,-74.09 395,-84.09 402,-84.09"/>
</a>
</g>
</g>
<!-- Node11&#45;&gt;Node13 -->
<g id="edge13_Node000011_Node000013" class="edge">
<title>Node11&#45;&gt;Node13</title>
<g id="a_edge13_Node000011_Node000013"><a xlink:title=" ">
<path fill="none" stroke="#63b8ff" d="M415.05,-109.98C431.39,-101.57 456.63,-88.59 475.63,-78.81"/>
<polygon fill="#63b8ff" stroke="#63b8ff" points="477.36,-81.86 484.65,-74.17 474.16,-75.63 477.36,-81.86"/>
</a>
</g>
</g>
</g>
</svg>
