<?xml version="1.0" encoding="UTF-8" standalone="no"?>
<!DOCTYPE svg PUBLIC "-//W3C//DTD SVG 1.1//EN"
 "http://www.w3.org/Graphics/SVG/1.1/DTD/svg11.dtd">
<!-- Generated by graphviz version 2.43.0 (0)
 -->
<!-- Title: /home/runner/work/occ/occ/include/occ/interaction/polarization_partitioning.h Pages: 1 -->
<svg width="208pt" height="280pt"
 viewBox="0.00 0.00 208.00 280.00" xmlns="http://www.w3.org/2000/svg" xmlns:xlink="http://www.w3.org/1999/xlink">
<g id="graph0" class="graph" transform="scale(1 1) rotate(0) translate(4 276)">
<title>/home/runner/work/occ/occ/include/occ/interaction/polarization_partitioning.h</title>
<!-- Node1 -->
<g id="Node000001" class="node">
<title>Node1</title>
<g id="a_Node000001"><a xlink:title=" ">
<polygon fill="#999999" stroke="#666666" points="149,-272 0,-272 0,-231 149,-231 149,-272"/>
<text text-anchor="start" x="8" y="-260" font-family="Helvetica,sans-Serif" font-size="10.00">/home/runner/work/occ</text>
<text text-anchor="start" x="8" y="-249" font-family="Helvetica,sans-Serif" font-size="10.00">/occ/include/occ/interaction</text>
<text text-anchor="middle" x="74.5" y="-238" font-family="Helvetica,sans-Serif" font-size="10.00">/polarization_partitioning.h</text>
</a>
</g>
</g>
<!-- Node2 -->
<g id="Node000002" class="node">
<title>Node2</title>
<g id="a_Node000002"><a xlink:href="interaction__json_8h.html" target="_top" xlink:title=" ">
<polygon fill="white" stroke="#666666" points="149,-118 0,-118 0,-77 149,-77 149,-118"/>
<text text-anchor="start" x="8" y="-106" font-family="Helvetica,sans-Serif" font-size="10.00">/home/runner/work/occ</text>
<text text-anchor="start" x="8" y="-95" font-family="Helvetica,sans-Serif" font-size="10.00">/occ/include/occ/interaction</text>
<text text-anchor="middle" x="74.5" y="-84" font-family="Helvetica,sans-Serif" font-size="10.00">/interaction_json.h</text>
</a>
</g>
</g>
<!-- Node1&#45;&gt;Node2 -->
<g id="edge1_Node000001_Node000002" class="edge">
<title>Node1&#45;&gt;Node2</title>
<g id="a_edge1_Node000001_Node000002"><a xlink:title=" ">
<path fill="none" stroke="#63b8ff" d="M54.41,-222.21C49.54,-213.84 45.01,-204.39 42.5,-195 37.79,-177.4 37.79,-171.6 42.5,-154 45.92,-141.21 53.08,-128.32 59.76,-118.19"/>
<polygon fill="#63b8ff" stroke="#63b8ff" points="51.51,-224.16 59.76,-230.81 57.45,-220.47 51.51,-224.16"/>
</a>
</g>
</g>
<!-- Node4 -->
<g id="Node000004" class="node">
<title>Node4</title>
<g id="a_Node000004"><a xlink:href="lattice__energy_8h.html" target="_top" xlink:title=" ">
<polygon fill="white" stroke="#666666" points="200,-195 51,-195 51,-154 200,-154 200,-195"/>
<text text-anchor="start" x="59" y="-183" font-family="Helvetica,sans-Serif" font-size="10.00">/home/runner/work/occ</text>
<text text-anchor="start" x="59" y="-172" font-family="Helvetica,sans-Serif" font-size="10.00">/occ/include/occ/interaction</text>
<text text-anchor="middle" x="125.5" y="-161" font-family="Helvetica,sans-Serif" font-size="10.00">/lattice_energy.h</text>
</a>
</g>
</g>
<!-- Node1&#45;&gt;Node4 -->
<g id="edge3_Node000001_Node000004" class="edge">
<title>Node1&#45;&gt;Node4</title>
<g id="a_edge3_Node000001_Node000004"><a xlink:title=" ">
<path fill="none" stroke="#63b8ff" d="M93.61,-222.39C99.8,-213.3 106.52,-203.41 112.19,-195.07"/>
<polygon fill="#63b8ff" stroke="#63b8ff" points="90.63,-220.56 87.9,-230.79 96.42,-224.49 90.63,-220.56"/>
</a>
</g>
</g>
<!-- Node3 -->
<g id="Node000003" class="node">
<title>Node3</title>
<g id="a_Node000003"><a xlink:href="elastic__fitting_8h.html" target="_top" xlink:title=" ">
<polygon fill="white" stroke="#666666" points="139,-41 10,-41 10,0 139,0 139,-41"/>
<text text-anchor="start" x="18" y="-29" font-family="Helvetica,sans-Serif" font-size="10.00">/home/runner/work/occ</text>
<text text-anchor="start" x="18" y="-18" font-family="Helvetica,sans-Serif" font-size="10.00">/occ/include/occ/elastic</text>
<text text-anchor="middle" x="74.5" y="-7" font-family="Helvetica,sans-Serif" font-size="10.00">_fit/elastic_fitting.h</text>
</a>
</g>
</g>
<!-- Node2&#45;&gt;Node3 -->
<g id="edge2_Node000002_Node000003" class="edge">
<title>Node2&#45;&gt;Node3</title>
<g id="a_edge2_Node000002_Node000003"><a xlink:title=" ">
<path fill="none" stroke="#63b8ff" d="M74.5,-66.69C74.5,-58.08 74.5,-48.9 74.5,-41.07"/>
<polygon fill="#63b8ff" stroke="#63b8ff" points="71,-66.79 74.5,-76.79 78,-66.79 71,-66.79"/>
</a>
</g>
</g>
<!-- Node4&#45;&gt;Node2 -->
<g id="edge4_Node000004_Node000002" class="edge">
<title>Node4&#45;&gt;Node2</title>
<g id="a_edge4_Node000004_Node000002"><a xlink:title=" ">
<path fill="none" stroke="#63b8ff" d="M106.39,-145.39C100.2,-136.3 93.48,-126.41 87.81,-118.07"/>
<polygon fill="#63b8ff" stroke="#63b8ff" points="103.58,-147.49 112.1,-153.79 109.37,-143.56 103.58,-147.49"/>
</a>
</g>
</g>
</g>
</svg>
