<?xml version="1.0" encoding="UTF-8" standalone="no"?>
<!DOCTYPE svg PUBLIC "-//W3C//DTD SVG 1.1//EN"
 "http://www.w3.org/Graphics/SVG/1.1/DTD/svg11.dtd">
<!-- Generated by graphviz version 2.43.0 (0)
 -->
<!-- Title: /home/runner/work/occ/occ/include/occ/main/properties.h Pages: 1 -->
<svg width="1549pt" height="464pt"
 viewBox="0.00 0.00 1549.35 464.00" xmlns="http://www.w3.org/2000/svg" xmlns:xlink="http://www.w3.org/1999/xlink">
<g id="graph0" class="graph" transform="scale(1 1) rotate(0) translate(4 460)">
<title>/home/runner/work/occ/occ/include/occ/main/properties.h</title>
<!-- Node1 -->
<g id="node1" class="node">
<title>Node1</title>
<g id="a_node1"><a xlink:title=" ">
<polygon fill="#bfbfbf" stroke="black" points="488,-414.5 488,-455.5 616,-455.5 616,-414.5 488,-414.5"/>
<text text-anchor="start" x="496" y="-443.5" font-family="Helvetica,sans-Serif" font-size="10.00">/home/runner/work/occ</text>
<text text-anchor="start" x="496" y="-432.5" font-family="Helvetica,sans-Serif" font-size="10.00">/occ/include/occ/main</text>
<text text-anchor="middle" x="552" y="-421.5" font-family="Helvetica,sans-Serif" font-size="10.00">/properties.h</text>
</a>
</g>
</g>
<!-- Node2 -->
<g id="node2" class="node">
<title>Node2</title>
<g id="a_node2"><a xlink:href="occ__input_8h.html" target="_top" xlink:title=" ">
<polygon fill="none" stroke="black" points="308,-302.5 308,-321.5 412,-321.5 412,-302.5 308,-302.5"/>
<text text-anchor="middle" x="360" y="-309.5" font-family="Helvetica,sans-Serif" font-size="10.00">occ/io/occ_input.h</text>
</a>
</g>
</g>
<!-- Node1&#45;&gt;Node2 -->
<g id="edge1" class="edge">
<title>Node1&#45;&gt;Node2</title>
<path fill="none" stroke="midnightblue" d="M520.72,-414.29C481.87,-389.81 416.55,-348.64 382.37,-327.1"/>
<polygon fill="midnightblue" stroke="midnightblue" points="383.93,-323.95 373.61,-321.57 380.2,-329.87 383.93,-323.95"/>
</g>
<!-- Node17 -->
<g id="node17" class="node">
<title>Node17</title>
<g id="a_node17"><a xlink:href="wavefunction_8h.html" target="_top" xlink:title=" ">
<polygon fill="none" stroke="black" points="680,-358.5 680,-377.5 810,-377.5 810,-358.5 680,-358.5"/>
<text text-anchor="middle" x="745" y="-365.5" font-family="Helvetica,sans-Serif" font-size="10.00">occ/qm/wavefunction.h</text>
</a>
</g>
</g>
<!-- Node1&#45;&gt;Node17 -->
<g id="edge22" class="edge">
<title>Node1&#45;&gt;Node17</title>
<path fill="none" stroke="midnightblue" d="M609.91,-414.5C642.44,-403.54 681.98,-390.22 709.86,-380.84"/>
<polygon fill="midnightblue" stroke="midnightblue" points="711.2,-384.08 719.56,-377.57 708.97,-377.44 711.2,-384.08"/>
</g>
<!-- Node3 -->
<g id="node3" class="node">
<title>Node3</title>
<g id="a_node3"><a xlink:title=" ">
<polygon fill="none" stroke="#bfbfbf" points="655,-123.5 655,-142.5 697,-142.5 697,-123.5 655,-123.5"/>
<text text-anchor="middle" x="676" y="-130.5" font-family="Helvetica,sans-Serif" font-size="10.00">array</text>
</a>
</g>
</g>
<!-- Node2&#45;&gt;Node3 -->
<g id="edge2" class="edge">
<title>Node2&#45;&gt;Node3</title>
<path fill="none" stroke="midnightblue" d="M354.61,-302.21C346.15,-287.16 332.08,-256.03 346,-235 379.72,-184.06 569.09,-150.19 644.76,-138.52"/>
<polygon fill="midnightblue" stroke="midnightblue" points="645.29,-141.98 654.65,-137.02 644.24,-135.06 645.29,-141.98"/>
</g>
<!-- Node4 -->
<g id="node4" class="node">
<title>Node4</title>
<g id="a_node4"><a xlink:title=" ">
<polygon fill="none" stroke="#bfbfbf" points="538,-241 538,-260 592,-260 592,-241 538,-241"/>
<text text-anchor="middle" x="565" y="-248" font-family="Helvetica,sans-Serif" font-size="10.00">istream</text>
</a>
</g>
</g>
<!-- Node2&#45;&gt;Node4 -->
<g id="edge3" class="edge">
<title>Node2&#45;&gt;Node4</title>
<path fill="none" stroke="midnightblue" d="M389.37,-302.48C425.93,-291.86 488.4,-273.73 528.14,-262.2"/>
<polygon fill="midnightblue" stroke="midnightblue" points="529.34,-265.49 537.97,-259.35 527.39,-258.77 529.34,-265.49"/>
</g>
<!-- Node5 -->
<g id="node5" class="node">
<title>Node5</title>
<g id="a_node5"><a xlink:href="element_8h.html" target="_top" xlink:title=" ">
<polygon fill="none" stroke="black" points="278,-179.5 278,-198.5 388,-198.5 388,-179.5 278,-179.5"/>
<text text-anchor="middle" x="333" y="-186.5" font-family="Helvetica,sans-Serif" font-size="10.00">occ/core/element.h</text>
</a>
</g>
</g>
<!-- Node2&#45;&gt;Node5 -->
<g id="edge4" class="edge">
<title>Node2&#45;&gt;Node5</title>
<path fill="none" stroke="midnightblue" d="M344.22,-302.47C331.8,-294.77 315.39,-282.18 308,-266 299.11,-246.54 309.97,-222.98 320.03,-207.31"/>
<polygon fill="midnightblue" stroke="midnightblue" points="323.19,-208.88 326.01,-198.67 317.44,-204.9 323.19,-208.88"/>
</g>
<!-- Node7 -->
<g id="node7" class="node">
<title>Node7</title>
<g id="a_node7"><a xlink:title=" ">
<polygon fill="none" stroke="#bfbfbf" points="715.5,-123.5 715.5,-142.5 762.5,-142.5 762.5,-123.5 715.5,-123.5"/>
<text text-anchor="middle" x="739" y="-130.5" font-family="Helvetica,sans-Serif" font-size="10.00">vector</text>
</a>
</g>
</g>
<!-- Node2&#45;&gt;Node7 -->
<g id="edge21" class="edge">
<title>Node2&#45;&gt;Node7</title>
<path fill="none" stroke="midnightblue" d="M359.55,-302.39C359.23,-286.77 360.9,-253.63 379,-235 381.93,-231.98 616.7,-167.48 705.49,-143.17"/>
<polygon fill="midnightblue" stroke="midnightblue" points="706.61,-146.49 715.33,-140.47 704.76,-139.74 706.61,-146.49"/>
</g>
<!-- Node8 -->
<g id="node8" class="node">
<title>Node8</title>
<g id="a_node8"><a xlink:href="molecule_8h.html" target="_top" xlink:title=" ">
<polygon fill="none" stroke="black" points="142,-241 142,-260 256,-260 256,-241 142,-241"/>
<text text-anchor="middle" x="199" y="-248" font-family="Helvetica,sans-Serif" font-size="10.00">occ/core/molecule.h</text>
</a>
</g>
</g>
<!-- Node2&#45;&gt;Node8 -->
<g id="edge7" class="edge">
<title>Node2&#45;&gt;Node8</title>
<path fill="none" stroke="midnightblue" d="M336.93,-302.48C309.32,-292.27 262.88,-275.11 231.6,-263.55"/>
<polygon fill="midnightblue" stroke="midnightblue" points="232.62,-260.19 222.02,-260.01 230.19,-266.76 232.62,-260.19"/>
</g>
<!-- Node15 -->
<g id="node15" class="node">
<title>Node15</title>
<g id="a_node15"><a xlink:href="spinorbital_8h.html" target="_top" xlink:title=" ">
<polygon fill="none" stroke="black" points="648,-241 648,-260 764,-260 764,-241 648,-241"/>
<text text-anchor="middle" x="706" y="-248" font-family="Helvetica,sans-Serif" font-size="10.00">occ/qm/spinorbital.h</text>
</a>
</g>
</g>
<!-- Node2&#45;&gt;Node15 -->
<g id="edge17" class="edge">
<title>Node2&#45;&gt;Node15</title>
<path fill="none" stroke="midnightblue" d="M409.57,-302.48C472.14,-291.72 579.64,-273.23 646.55,-261.72"/>
<polygon fill="midnightblue" stroke="midnightblue" points="647.26,-265.15 656.52,-260.01 646.07,-258.25 647.26,-265.15"/>
</g>
<!-- Node6 -->
<g id="node6" class="node">
<title>Node6</title>
<g id="a_node6"><a xlink:title=" ">
<polygon fill="none" stroke="#bfbfbf" points="353,-123.5 353,-142.5 397,-142.5 397,-123.5 353,-123.5"/>
<text text-anchor="middle" x="375" y="-130.5" font-family="Helvetica,sans-Serif" font-size="10.00">string</text>
</a>
</g>
</g>
<!-- Node5&#45;&gt;Node6 -->
<g id="edge5" class="edge">
<title>Node5&#45;&gt;Node6</title>
<path fill="none" stroke="midnightblue" d="M339.94,-179.08C345.93,-171.38 354.75,-160.03 362.05,-150.65"/>
<polygon fill="midnightblue" stroke="midnightblue" points="364.82,-152.79 368.19,-142.75 359.29,-148.5 364.82,-152.79"/>
</g>
<!-- Node5&#45;&gt;Node7 -->
<g id="edge6" class="edge">
<title>Node5&#45;&gt;Node7</title>
<path fill="none" stroke="midnightblue" d="M388.06,-183.89C459.19,-178.02 586.91,-165.58 705.34,-142.85"/>
<polygon fill="midnightblue" stroke="midnightblue" points="706.16,-146.26 715.3,-140.91 704.82,-139.39 706.16,-146.26"/>
</g>
<!-- Node8&#45;&gt;Node3 -->
<g id="edge8" class="edge">
<title>Node8&#45;&gt;Node3</title>
<path fill="none" stroke="midnightblue" d="M204.67,-240.7C215.22,-225.18 239.48,-193.24 269,-179 335.4,-146.96 561.36,-137.3 644.75,-134.79"/>
<polygon fill="midnightblue" stroke="midnightblue" points="644.98,-138.28 654.87,-134.49 644.78,-131.28 644.98,-138.28"/>
</g>
<!-- Node8&#45;&gt;Node5 -->
<g id="edge14" class="edge">
<title>Node8&#45;&gt;Node5</title>
<path fill="none" stroke="midnightblue" d="M218.2,-240.98C240.79,-230.95 278.5,-214.2 304.5,-202.65"/>
<polygon fill="midnightblue" stroke="midnightblue" points="306.12,-205.77 313.84,-198.51 303.28,-199.37 306.12,-205.77"/>
</g>
<!-- Node9 -->
<g id="node9" class="node">
<title>Node9</title>
<g id="a_node9"><a xlink:href="atom_8h.html" target="_top" xlink:title=" ">
<polygon fill="none" stroke="black" points="1296.5,-123.5 1296.5,-142.5 1391.5,-142.5 1391.5,-123.5 1296.5,-123.5"/>
<text text-anchor="middle" x="1344" y="-130.5" font-family="Helvetica,sans-Serif" font-size="10.00">occ/core/atom.h</text>
</a>
</g>
</g>
<!-- Node8&#45;&gt;Node9 -->
<g id="edge9" class="edge">
<title>Node8&#45;&gt;Node9</title>
<path fill="none" stroke="midnightblue" d="M256.12,-244.45C291.49,-241.44 337.86,-237.69 379,-235 538.42,-224.58 941.93,-237.4 1097,-199 1117.46,-193.93 1120.03,-185.75 1140,-179 1188.24,-162.68 1244.94,-150.72 1286.3,-143.25"/>
<polygon fill="midnightblue" stroke="midnightblue" points="1286.97,-146.69 1296.21,-141.5 1285.75,-139.8 1286.97,-146.69"/>
</g>
<!-- Node10 -->
<g id="node10" class="node">
<title>Node10</title>
<g id="a_node10"><a xlink:href="linear__algebra_8h.html" target="_top" xlink:title=" ">
<polygon fill="none" stroke="black" points="1198.5,-67.5 1198.5,-86.5 1337.5,-86.5 1337.5,-67.5 1198.5,-67.5"/>
<text text-anchor="middle" x="1268" y="-74.5" font-family="Helvetica,sans-Serif" font-size="10.00">occ/core/linear_algebra.h</text>
</a>
</g>
</g>
<!-- Node8&#45;&gt;Node10 -->
<g id="edge15" class="edge">
<title>Node8&#45;&gt;Node10</title>
<path fill="none" stroke="midnightblue" d="M201.99,-240.66C207.26,-226.18 219.43,-197.22 238,-179 276.04,-141.69 292.61,-137.08 344,-123 501.89,-79.75 994.22,-76.85 1188.25,-77.46"/>
<polygon fill="midnightblue" stroke="midnightblue" points="1188.36,-80.96 1198.38,-77.49 1188.39,-73.96 1188.36,-80.96"/>
</g>
<!-- Node14 -->
<g id="node14" class="node">
<title>Node14</title>
<g id="a_node14"><a xlink:title=" ">
<polygon fill="none" stroke="#bfbfbf" points="142.5,-179.5 142.5,-198.5 183.5,-198.5 183.5,-179.5 142.5,-179.5"/>
<text text-anchor="middle" x="163" y="-186.5" font-family="Helvetica,sans-Serif" font-size="10.00">tuple</text>
</a>
</g>
</g>
<!-- Node8&#45;&gt;Node14 -->
<g id="edge16" class="edge">
<title>Node8&#45;&gt;Node14</title>
<path fill="none" stroke="midnightblue" d="M193.84,-240.98C188.55,-232.23 180.16,-218.37 173.47,-207.31"/>
<polygon fill="midnightblue" stroke="midnightblue" points="176.32,-205.25 168.15,-198.51 170.33,-208.88 176.32,-205.25"/>
</g>
<!-- Node9&#45;&gt;Node10 -->
<g id="edge10" class="edge">
<title>Node9&#45;&gt;Node10</title>
<path fill="none" stroke="midnightblue" d="M1331.79,-123.32C1320.22,-115.11 1302.62,-102.6 1288.84,-92.81"/>
<polygon fill="midnightblue" stroke="midnightblue" points="1290.61,-89.77 1280.43,-86.83 1286.56,-95.48 1290.61,-89.77"/>
</g>
<!-- Node11 -->
<g id="node11" class="node">
<title>Node11</title>
<g id="a_node11"><a xlink:title=" ">
<polygon fill="none" stroke="#bfbfbf" points="1126.5,-6 1126.5,-25 1203.5,-25 1203.5,-6 1126.5,-6"/>
<text text-anchor="middle" x="1165" y="-13" font-family="Helvetica,sans-Serif" font-size="10.00">Eigen/Dense</text>
</a>
</g>
</g>
<!-- Node10&#45;&gt;Node11 -->
<g id="edge11" class="edge">
<title>Node10&#45;&gt;Node11</title>
<path fill="none" stroke="midnightblue" d="M1253.24,-67.48C1236.34,-57.71 1208.42,-41.58 1188.51,-30.08"/>
<polygon fill="midnightblue" stroke="midnightblue" points="1190.14,-26.98 1179.73,-25.01 1186.64,-33.04 1190.14,-26.98"/>
</g>
<!-- Node12 -->
<g id="node12" class="node">
<title>Node12</title>
<g id="a_node12"><a xlink:title=" ">
<polygon fill="none" stroke="#bfbfbf" points="1221.5,-6 1221.5,-25 1314.5,-25 1314.5,-6 1221.5,-6"/>
<text text-anchor="middle" x="1268" y="-13" font-family="Helvetica,sans-Serif" font-size="10.00">Eigen/StdVector</text>
</a>
</g>
</g>
<!-- Node10&#45;&gt;Node12 -->
<g id="edge12" class="edge">
<title>Node10&#45;&gt;Node12</title>
<path fill="none" stroke="midnightblue" d="M1268,-67.48C1268,-59.08 1268,-45.98 1268,-35.16"/>
<polygon fill="midnightblue" stroke="midnightblue" points="1271.5,-35.01 1268,-25.01 1264.5,-35.01 1271.5,-35.01"/>
</g>
<!-- Node13 -->
<g id="node13" class="node">
<title>Node13</title>
<g id="a_node13"><a xlink:title=" ">
<polygon fill="none" stroke="#bfbfbf" points="1332.5,-0.5 1332.5,-30.5 1439.5,-30.5 1439.5,-0.5 1332.5,-0.5"/>
<text text-anchor="start" x="1340.5" y="-18.5" font-family="Helvetica,sans-Serif" font-size="10.00">occ/3rdparty/eigen</text>
<text text-anchor="middle" x="1386" y="-7.5" font-family="Helvetica,sans-Serif" font-size="10.00">&#45;fmt/fmt.h</text>
</a>
</g>
</g>
<!-- Node10&#45;&gt;Node13 -->
<g id="edge13" class="edge">
<title>Node10&#45;&gt;Node13</title>
<path fill="none" stroke="midnightblue" d="M1284.91,-67.48C1301.56,-59.08 1327.55,-45.97 1349.01,-35.15"/>
<polygon fill="midnightblue" stroke="midnightblue" points="1350.84,-38.15 1358.19,-30.52 1347.68,-31.9 1350.84,-38.15"/>
</g>
<!-- Node15&#45;&gt;Node10 -->
<g id="edge18" class="edge">
<title>Node15&#45;&gt;Node10</title>
<path fill="none" stroke="midnightblue" d="M722.66,-240.87C745.59,-227.83 782.22,-202.2 765,-179 730.16,-132.06 606.19,-165.8 646,-123 682.19,-84.09 1028.65,-78.4 1188.24,-77.85"/>
<polygon fill="midnightblue" stroke="midnightblue" points="1188.48,-81.35 1198.47,-77.82 1188.46,-74.35 1188.48,-81.35"/>
</g>
<!-- Node16 -->
<g id="node16" class="node">
<title>Node16</title>
<g id="a_node16"><a xlink:href="qm_2opmatrix_8h.html" target="_top" xlink:title=" ">
<polygon fill="none" stroke="black" points="648,-179.5 648,-198.5 756,-198.5 756,-179.5 648,-179.5"/>
<text text-anchor="middle" x="702" y="-186.5" font-family="Helvetica,sans-Serif" font-size="10.00">occ/qm/opmatrix.h</text>
</a>
</g>
</g>
<!-- Node15&#45;&gt;Node16 -->
<g id="edge19" class="edge">
<title>Node15&#45;&gt;Node16</title>
<path fill="none" stroke="midnightblue" d="M700.53,-240.98C698.13,-232.58 696.78,-219.48 696.94,-208.66"/>
<polygon fill="midnightblue" stroke="midnightblue" points="700.44,-208.74 697.67,-198.51 693.46,-208.23 700.44,-208.74"/>
</g>
<!-- Node16&#45;&gt;Node15 -->
<g id="edge20" class="edge">
<title>Node16&#45;&gt;Node15</title>
<path fill="none" stroke="midnightblue" d="M707.47,-198.51C709.87,-206.9 711.22,-220 711.06,-230.82"/>
<polygon fill="midnightblue" stroke="midnightblue" points="707.56,-230.75 710.33,-240.98 714.54,-231.25 707.56,-230.75"/>
</g>
<!-- Node17&#45;&gt;Node10 -->
<g id="edge23" class="edge">
<title>Node17&#45;&gt;Node10</title>
<path fill="none" stroke="midnightblue" d="M679.86,-363.72C498.34,-353.71 0,-320.01 0,-251.5 0,-251.5 0,-251.5 0,-188 0,-121.01 70.97,-139.11 136,-123 237.22,-97.93 947.63,-83.51 1188.41,-79.31"/>
<polygon fill="midnightblue" stroke="midnightblue" points="1188.55,-82.8 1198.49,-79.13 1188.43,-75.8 1188.55,-82.8"/>
</g>
<!-- Node17&#45;&gt;Node15 -->
<g id="edge80" class="edge">
<title>Node17&#45;&gt;Node15</title>
<path fill="none" stroke="midnightblue" d="M759.7,-358.43C778.31,-346.43 806.54,-323.65 794,-302 783.48,-283.83 763.67,-271.63 745.51,-263.78"/>
<polygon fill="midnightblue" stroke="midnightblue" points="746.8,-260.53 736.22,-260.06 744.2,-267.03 746.8,-260.53"/>
</g>
<!-- Node18 -->
<g id="node18" class="node">
<title>Node18</title>
<g id="a_node18"><a xlink:href="fchkreader_8h.html" target="_top" xlink:title=" ">
<polygon fill="none" stroke="black" points="975.5,-302.5 975.5,-321.5 1084.5,-321.5 1084.5,-302.5 975.5,-302.5"/>
<text text-anchor="middle" x="1030" y="-309.5" font-family="Helvetica,sans-Serif" font-size="10.00">occ/io/fchkreader.h</text>
</a>
</g>
</g>
<!-- Node17&#45;&gt;Node18 -->
<g id="edge24" class="edge">
<title>Node17&#45;&gt;Node18</title>
<path fill="none" stroke="midnightblue" d="M790.16,-358.44C840.29,-348.94 921.22,-333.61 975.01,-323.42"/>
<polygon fill="midnightblue" stroke="midnightblue" points="975.88,-326.82 985.05,-321.52 974.58,-319.94 975.88,-326.82"/>
</g>
<!-- Node20 -->
<g id="node20" class="node">
<title>Node20</title>
<g id="a_node20"><a xlink:href="shell_8h.html" target="_top" xlink:title=" ">
<polygon fill="none" stroke="black" points="1213.5,-241 1213.5,-260 1300.5,-260 1300.5,-241 1213.5,-241"/>
<text text-anchor="middle" x="1257" y="-248" font-family="Helvetica,sans-Serif" font-size="10.00">occ/qm/shell.h</text>
</a>
</g>
</g>
<!-- Node17&#45;&gt;Node20 -->
<g id="edge79" class="edge">
<title>Node17&#45;&gt;Node20</title>
<path fill="none" stroke="midnightblue" d="M810.07,-364.05C880.98,-359.59 997.24,-348.59 1094,-322 1145.19,-307.93 1201.26,-280.89 1232.49,-264.7"/>
<polygon fill="midnightblue" stroke="midnightblue" points="1234.12,-267.79 1241.35,-260.05 1230.87,-261.6 1234.12,-267.79"/>
</g>
<!-- Node30 -->
<g id="node30" class="node">
<title>Node30</title>
<g id="a_node30"><a xlink:href="fchkwriter_8h.html" target="_top" xlink:title=" ">
<polygon fill="none" stroke="black" points="851,-302.5 851,-321.5 957,-321.5 957,-302.5 851,-302.5"/>
<text text-anchor="middle" x="904" y="-309.5" font-family="Helvetica,sans-Serif" font-size="10.00">occ/io/fchkwriter.h</text>
</a>
</g>
</g>
<!-- Node17&#45;&gt;Node30 -->
<g id="edge50" class="edge">
<title>Node17&#45;&gt;Node30</title>
<path fill="none" stroke="midnightblue" d="M770.19,-358.44C796.94,-349.36 839.4,-334.94 869.31,-324.78"/>
<polygon fill="midnightblue" stroke="midnightblue" points="870.58,-328.05 878.92,-321.52 868.33,-321.42 870.58,-328.05"/>
</g>
<!-- Node33 -->
<g id="node33" class="node">
<title>Node33</title>
<g id="a_node33"><a xlink:href="moldenreader_8h.html" target="_top" xlink:title=" ">
<polygon fill="none" stroke="black" points="439.5,-302.5 439.5,-321.5 564.5,-321.5 564.5,-302.5 439.5,-302.5"/>
<text text-anchor="middle" x="502" y="-309.5" font-family="Helvetica,sans-Serif" font-size="10.00">occ/io/moldenreader.h</text>
</a>
</g>
</g>
<!-- Node17&#45;&gt;Node33 -->
<g id="edge60" class="edge">
<title>Node17&#45;&gt;Node33</title>
<path fill="none" stroke="midnightblue" d="M706.5,-358.44C664.19,-349.04 596.18,-333.93 550.33,-323.74"/>
<polygon fill="midnightblue" stroke="midnightblue" points="550.85,-320.27 540.32,-321.52 549.33,-327.1 550.85,-320.27"/>
</g>
<!-- Node35 -->
<g id="node35" class="node">
<title>Node35</title>
<g id="a_node35"><a xlink:href="orca__json_8h.html" target="_top" xlink:title=" ">
<polygon fill="none" stroke="black" points="583,-302.5 583,-321.5 687,-321.5 687,-302.5 583,-302.5"/>
<text text-anchor="middle" x="635" y="-309.5" font-family="Helvetica,sans-Serif" font-size="10.00">occ/io/orca_json.h</text>
</a>
</g>
</g>
<!-- Node17&#45;&gt;Node35 -->
<g id="edge68" class="edge">
<title>Node17&#45;&gt;Node35</title>
<path fill="none" stroke="midnightblue" d="M727.33,-358.32C709.61,-349.62 682.1,-336.12 661.71,-326.11"/>
<polygon fill="midnightblue" stroke="midnightblue" points="663.15,-322.92 652.63,-321.65 660.06,-329.2 663.15,-322.92"/>
</g>
<!-- Node36 -->
<g id="node36" class="node">
<title>Node36</title>
<g id="a_node36"><a xlink:href="mo_8h.html" target="_top" xlink:title=" ">
<polygon fill="none" stroke="black" points="705,-302.5 705,-321.5 785,-321.5 785,-302.5 705,-302.5"/>
<text text-anchor="middle" x="745" y="-309.5" font-family="Helvetica,sans-Serif" font-size="10.00">occ/qm/mo.h</text>
</a>
</g>
</g>
<!-- Node17&#45;&gt;Node36 -->
<g id="edge77" class="edge">
<title>Node17&#45;&gt;Node36</title>
<path fill="none" stroke="midnightblue" d="M745,-358.08C745,-351.01 745,-340.86 745,-331.99"/>
<polygon fill="midnightblue" stroke="midnightblue" points="748.5,-331.75 745,-321.75 741.5,-331.75 748.5,-331.75"/>
</g>
<!-- Node18&#45;&gt;Node4 -->
<g id="edge26" class="edge">
<title>Node18&#45;&gt;Node4</title>
<path fill="none" stroke="midnightblue" d="M975.2,-303.18C972.09,-302.77 969.01,-302.38 966,-302 820.92,-283.82 783.54,-288.08 639,-266 626.99,-264.17 613.96,-261.76 602.23,-259.43"/>
<polygon fill="midnightblue" stroke="midnightblue" points="602.81,-255.97 592.32,-257.42 601.42,-262.84 602.81,-255.97"/>
</g>
<!-- Node18&#45;&gt;Node7 -->
<g id="edge49" class="edge">
<title>Node18&#45;&gt;Node7</title>
<path fill="none" stroke="midnightblue" d="M1078.04,-302.41C1128.06,-291.41 1195.33,-269.53 1166,-235 1133.92,-197.25 994.2,-210.45 946,-199 883.5,-184.15 812.4,-160.24 771.9,-145.93"/>
<polygon fill="midnightblue" stroke="midnightblue" points="772.88,-142.56 762.29,-142.51 770.54,-149.16 772.88,-142.56"/>
</g>
<!-- Node18&#45;&gt;Node10 -->
<g id="edge27" class="edge">
<title>Node18&#45;&gt;Node10</title>
<path fill="none" stroke="midnightblue" d="M1084.81,-309.92C1204.7,-307 1481.82,-296.94 1510,-266 1552.79,-219.01 1550.63,-171.88 1510,-123 1489.56,-98.41 1410.3,-87.19 1347.99,-82.11"/>
<polygon fill="midnightblue" stroke="midnightblue" points="1347.99,-78.6 1337.75,-81.32 1347.45,-85.58 1347.99,-78.6"/>
</g>
<!-- Node18&#45;&gt;Node15 -->
<g id="edge48" class="edge">
<title>Node18&#45;&gt;Node15</title>
<path fill="none" stroke="midnightblue" d="M983.58,-302.48C925.23,-291.76 825.16,-273.38 762.45,-261.87"/>
<polygon fill="midnightblue" stroke="midnightblue" points="762.8,-258.37 752.34,-260.01 761.54,-265.26 762.8,-258.37"/>
</g>
<!-- Node19 -->
<g id="node19" class="node">
<title>Node19</title>
<g id="a_node19"><a xlink:title=" ">
<polygon fill="none" stroke="#bfbfbf" points="820.5,-241 820.5,-260 875.5,-260 875.5,-241 820.5,-241"/>
<text text-anchor="middle" x="848" y="-248" font-family="Helvetica,sans-Serif" font-size="10.00">fstream</text>
</a>
</g>
</g>
<!-- Node18&#45;&gt;Node19 -->
<g id="edge25" class="edge">
<title>Node18&#45;&gt;Node19</title>
<path fill="none" stroke="midnightblue" d="M1003.92,-302.48C972.43,-292.18 919.3,-274.81 883.94,-263.25"/>
<polygon fill="midnightblue" stroke="midnightblue" points="884.62,-259.79 874.03,-260.01 882.45,-266.44 884.62,-259.79"/>
</g>
<!-- Node18&#45;&gt;Node20 -->
<g id="edge28" class="edge">
<title>Node18&#45;&gt;Node20</title>
<path fill="none" stroke="midnightblue" d="M1062.52,-302.48C1102.56,-291.98 1170.64,-274.14 1214.7,-262.59"/>
<polygon fill="midnightblue" stroke="midnightblue" points="1215.75,-265.93 1224.54,-260.01 1213.98,-259.16 1215.75,-265.93"/>
</g>
<!-- Node20&#45;&gt;Node3 -->
<g id="edge29" class="edge">
<title>Node20&#45;&gt;Node3</title>
<path fill="none" stroke="midnightblue" d="M1213.49,-242.5C1134.99,-229.85 975.4,-204.01 950,-199 841.26,-177.55 814.26,-170.91 707,-143 706.9,-142.97 706.8,-142.95 706.7,-142.92"/>
<polygon fill="midnightblue" stroke="midnightblue" points="707.87,-139.61 697.3,-140.35 706.03,-146.37 707.87,-139.61"/>
</g>
<!-- Node20&#45;&gt;Node7 -->
<g id="edge47" class="edge">
<title>Node20&#45;&gt;Node7</title>
<path fill="none" stroke="midnightblue" d="M1224.58,-240.96C1216.27,-238.89 1207.33,-236.77 1199,-235 1108.52,-215.77 1082.37,-226.36 994,-199 973.48,-192.65 970.44,-185.62 950,-179 876.21,-155.11 852.39,-161.09 772.74,-143.01"/>
<polygon fill="midnightblue" stroke="midnightblue" points="773.28,-139.54 762.74,-140.68 771.69,-146.36 773.28,-139.54"/>
</g>
<!-- Node20&#45;&gt;Node9 -->
<g id="edge31" class="edge">
<title>Node20&#45;&gt;Node9</title>
<path fill="none" stroke="midnightblue" d="M1300.84,-247.11C1334.34,-242.7 1378.48,-230.77 1401,-199 1414.38,-180.12 1390.97,-160.41 1370.23,-147.71"/>
<polygon fill="midnightblue" stroke="midnightblue" points="1371.73,-144.54 1361.32,-142.56 1368.23,-150.59 1371.73,-144.54"/>
</g>
<!-- Node20&#45;&gt;Node10 -->
<g id="edge32" class="edge">
<title>Node20&#45;&gt;Node10</title>
<path fill="none" stroke="midnightblue" d="M1300.64,-248.81C1337.9,-245.63 1389.52,-234.53 1416,-199 1436.19,-171.92 1437.14,-150.12 1417,-123 1400.71,-101.07 1374.06,-89.44 1347.76,-83.4"/>
<polygon fill="midnightblue" stroke="midnightblue" points="1348.22,-79.92 1337.72,-81.35 1346.82,-86.78 1348.22,-79.92"/>
</g>
<!-- Node21 -->
<g id="node21" class="node">
<title>Node21</title>
<g id="a_node21"><a xlink:title=" ">
<polygon fill="none" stroke="#bfbfbf" points="1182,-179.5 1182,-198.5 1242,-198.5 1242,-179.5 1182,-179.5"/>
<text text-anchor="middle" x="1212" y="-186.5" font-family="Helvetica,sans-Serif" font-size="10.00">iostream</text>
</a>
</g>
</g>
<!-- Node20&#45;&gt;Node21 -->
<g id="edge30" class="edge">
<title>Node20&#45;&gt;Node21</title>
<path fill="none" stroke="midnightblue" d="M1250.55,-240.98C1243.8,-232.05 1233.03,-217.81 1224.59,-206.64"/>
<polygon fill="midnightblue" stroke="midnightblue" points="1227.26,-204.37 1218.44,-198.51 1221.68,-208.6 1227.26,-204.37"/>
</g>
<!-- Node22 -->
<g id="node22" class="node">
<title>Node22</title>
<g id="a_node22"><a xlink:href="point__charge_8h.html" target="_top" xlink:title=" ">
<polygon fill="none" stroke="black" points="1260,-179.5 1260,-198.5 1392,-198.5 1392,-179.5 1260,-179.5"/>
<text text-anchor="middle" x="1326" y="-186.5" font-family="Helvetica,sans-Serif" font-size="10.00">occ/core/point_charge.h</text>
</a>
</g>
</g>
<!-- Node20&#45;&gt;Node22 -->
<g id="edge33" class="edge">
<title>Node20&#45;&gt;Node22</title>
<path fill="none" stroke="midnightblue" d="M1266.89,-240.98C1277.65,-231.7 1295.07,-216.67 1308.22,-205.33"/>
<polygon fill="midnightblue" stroke="midnightblue" points="1310.84,-207.69 1316.13,-198.51 1306.27,-202.39 1310.84,-207.69"/>
</g>
<!-- Node23 -->
<g id="node23" class="node">
<title>Node23</title>
<g id="a_node23"><a xlink:href="util_8h.html" target="_top" xlink:title=" ">
<polygon fill="none" stroke="black" points="1002.5,-179.5 1002.5,-198.5 1087.5,-198.5 1087.5,-179.5 1002.5,-179.5"/>
<text text-anchor="middle" x="1045" y="-186.5" font-family="Helvetica,sans-Serif" font-size="10.00">occ/core/util.h</text>
</a>
</g>
</g>
<!-- Node20&#45;&gt;Node23 -->
<g id="edge37" class="edge">
<title>Node20&#45;&gt;Node23</title>
<path fill="none" stroke="midnightblue" d="M1226.63,-240.98C1189.39,-230.53 1126.19,-212.79 1085.02,-201.23"/>
<polygon fill="midnightblue" stroke="midnightblue" points="1085.89,-197.84 1075.32,-198.51 1084,-204.58 1085.89,-197.84"/>
</g>
<!-- Node22&#45;&gt;Node3 -->
<g id="edge34" class="edge">
<title>Node22&#45;&gt;Node3</title>
<path fill="none" stroke="midnightblue" d="M1259.77,-179.86C1256.81,-179.55 1253.87,-179.27 1251,-179 1009.73,-156.56 945.63,-185.02 707,-143 706.9,-142.98 706.8,-142.96 706.7,-142.95"/>
<polygon fill="midnightblue" stroke="midnightblue" points="707.73,-139.59 697.2,-140.81 706.19,-146.42 707.73,-139.59"/>
</g>
<!-- Node22&#45;&gt;Node9 -->
<g id="edge35" class="edge">
<title>Node22&#45;&gt;Node9</title>
<path fill="none" stroke="midnightblue" d="M1328.97,-179.08C1331.38,-171.85 1334.86,-161.41 1337.87,-152.4"/>
<polygon fill="midnightblue" stroke="midnightblue" points="1341.24,-153.34 1341.08,-142.75 1334.6,-151.13 1341.24,-153.34"/>
</g>
<!-- Node22&#45;&gt;Node10 -->
<g id="edge36" class="edge">
<title>Node22&#45;&gt;Node10</title>
<path fill="none" stroke="midnightblue" d="M1350.51,-179.38C1378.48,-168.15 1418.27,-147.08 1401,-123 1388.3,-105.3 1368.27,-94.48 1347.57,-87.88"/>
<polygon fill="midnightblue" stroke="midnightblue" points="1348.28,-84.45 1337.7,-85.06 1346.35,-91.18 1348.28,-84.45"/>
</g>
<!-- Node23&#45;&gt;Node6 -->
<g id="edge45" class="edge">
<title>Node23&#45;&gt;Node6</title>
<path fill="none" stroke="midnightblue" d="M1002.33,-184.56C877.91,-174.53 517.43,-145.48 407.33,-136.61"/>
<polygon fill="midnightblue" stroke="midnightblue" points="407.43,-133.1 397.18,-135.79 406.86,-140.08 407.43,-133.1"/>
</g>
<!-- Node23&#45;&gt;Node7 -->
<g id="edge46" class="edge">
<title>Node23&#45;&gt;Node7</title>
<path fill="none" stroke="midnightblue" d="M1002.4,-181.23C937.28,-170.84 816.67,-151.45 772.76,-142.86"/>
<polygon fill="midnightblue" stroke="midnightblue" points="773.22,-139.38 762.72,-140.78 771.81,-146.23 773.22,-139.38"/>
</g>
<!-- Node23&#45;&gt;Node10 -->
<g id="edge44" class="edge">
<title>Node23&#45;&gt;Node10</title>
<path fill="none" stroke="midnightblue" d="M1087.94,-180.92C1144.24,-171.28 1237.28,-153.96 1249,-143 1261.6,-131.22 1266,-111.58 1267.46,-96.97"/>
<polygon fill="midnightblue" stroke="midnightblue" points="1270.98,-96.77 1268.1,-86.57 1263.99,-96.34 1270.98,-96.77"/>
</g>
<!-- Node24 -->
<g id="node24" class="node">
<title>Node24</title>
<g id="a_node24"><a xlink:title=" ">
<polygon fill="none" stroke="#bfbfbf" points="919,-123.5 919,-142.5 983,-142.5 983,-123.5 919,-123.5"/>
<text text-anchor="middle" x="951" y="-130.5" font-family="Helvetica,sans-Serif" font-size="10.00">algorithm</text>
</a>
</g>
</g>
<!-- Node23&#45;&gt;Node24 -->
<g id="edge38" class="edge">
<title>Node23&#45;&gt;Node24</title>
<path fill="none" stroke="midnightblue" d="M1029.9,-179.32C1015.1,-170.82 992.31,-157.73 975.02,-147.8"/>
<polygon fill="midnightblue" stroke="midnightblue" points="976.48,-144.6 966.07,-142.65 972.99,-150.67 976.48,-144.6"/>
</g>
<!-- Node25 -->
<g id="node25" class="node">
<title>Node25</title>
<g id="a_node25"><a xlink:title=" ">
<polygon fill="none" stroke="#bfbfbf" points="1001.5,-123.5 1001.5,-142.5 1050.5,-142.5 1050.5,-123.5 1001.5,-123.5"/>
<text text-anchor="middle" x="1026" y="-130.5" font-family="Helvetica,sans-Serif" font-size="10.00">cctype</text>
</a>
</g>
</g>
<!-- Node23&#45;&gt;Node25 -->
<g id="edge39" class="edge">
<title>Node23&#45;&gt;Node25</title>
<path fill="none" stroke="midnightblue" d="M1041.86,-179.08C1039.32,-171.85 1035.64,-161.41 1032.47,-152.4"/>
<polygon fill="midnightblue" stroke="midnightblue" points="1035.7,-151.02 1029.08,-142.75 1029.1,-153.35 1035.7,-151.02"/>
</g>
<!-- Node26 -->
<g id="node26" class="node">
<title>Node26</title>
<g id="a_node26"><a xlink:title=" ">
<polygon fill="none" stroke="#bfbfbf" points="1068.5,-123.5 1068.5,-142.5 1135.5,-142.5 1135.5,-123.5 1068.5,-123.5"/>
<text text-anchor="middle" x="1102" y="-130.5" font-family="Helvetica,sans-Serif" font-size="10.00">fmt/core.h</text>
</a>
</g>
</g>
<!-- Node23&#45;&gt;Node26 -->
<g id="edge40" class="edge">
<title>Node23&#45;&gt;Node26</title>
<path fill="none" stroke="midnightblue" d="M1054.16,-179.32C1062.5,-171.42 1075.03,-159.55 1085.18,-149.94"/>
<polygon fill="midnightblue" stroke="midnightblue" points="1087.82,-152.25 1092.68,-142.83 1083.01,-147.17 1087.82,-152.25"/>
</g>
<!-- Node27 -->
<g id="node27" class="node">
<title>Node27</title>
<g id="a_node27"><a xlink:title=" ">
<polygon fill="none" stroke="#bfbfbf" points="1154,-123.5 1154,-142.5 1240,-142.5 1240,-123.5 1154,-123.5"/>
<text text-anchor="middle" x="1197" y="-130.5" font-family="Helvetica,sans-Serif" font-size="10.00">fmt/ostream.h</text>
</a>
</g>
</g>
<!-- Node23&#45;&gt;Node27 -->
<g id="edge41" class="edge">
<title>Node23&#45;&gt;Node27</title>
<path fill="none" stroke="midnightblue" d="M1069.08,-179.44C1094.54,-170.4 1134.89,-156.06 1163.46,-145.92"/>
<polygon fill="midnightblue" stroke="midnightblue" points="1164.78,-149.16 1173.03,-142.52 1162.43,-142.57 1164.78,-149.16"/>
</g>
<!-- Node28 -->
<g id="node28" class="node">
<title>Node28</title>
<g id="a_node28"><a xlink:title=" ">
<polygon fill="none" stroke="#bfbfbf" points="781,-123.5 781,-142.5 827,-142.5 827,-123.5 781,-123.5"/>
<text text-anchor="middle" x="804" y="-130.5" font-family="Helvetica,sans-Serif" font-size="10.00">locale</text>
</a>
</g>
</g>
<!-- Node23&#45;&gt;Node28 -->
<g id="edge42" class="edge">
<title>Node23&#45;&gt;Node28</title>
<path fill="none" stroke="midnightblue" d="M1002.39,-179.63C962.18,-171.56 900,-158.61 837.12,-143.16"/>
<polygon fill="midnightblue" stroke="midnightblue" points="837.57,-139.67 827.03,-140.66 835.89,-146.46 837.57,-139.67"/>
</g>
<!-- Node29 -->
<g id="node29" class="node">
<title>Node29</title>
<g id="a_node29"><a xlink:title=" ">
<polygon fill="none" stroke="#bfbfbf" points="845,-123.5 845,-142.5 901,-142.5 901,-123.5 845,-123.5"/>
<text text-anchor="middle" x="873" y="-130.5" font-family="Helvetica,sans-Serif" font-size="10.00">numeric</text>
</a>
</g>
</g>
<!-- Node23&#45;&gt;Node29 -->
<g id="edge43" class="edge">
<title>Node23&#45;&gt;Node29</title>
<path fill="none" stroke="midnightblue" d="M1017.75,-179.44C988.56,-170.28 942.08,-155.69 909.69,-145.52"/>
<polygon fill="midnightblue" stroke="midnightblue" points="910.72,-142.17 900.13,-142.52 908.62,-148.85 910.72,-142.17"/>
</g>
<!-- Node30&#45;&gt;Node3 -->
<g id="edge51" class="edge">
<title>Node30&#45;&gt;Node3</title>
<path fill="none" stroke="midnightblue" d="M903.84,-302.16C903.16,-287.03 899.9,-255.78 885,-235 871.6,-216.31 818.58,-189.26 798,-179 768.17,-164.12 732.16,-151.44 707.03,-143.36"/>
<polygon fill="midnightblue" stroke="midnightblue" points="707.9,-139.97 697.31,-140.3 705.79,-146.64 707.9,-139.97"/>
</g>
<!-- Node30&#45;&gt;Node4 -->
<g id="edge53" class="edge">
<title>Node30&#45;&gt;Node4</title>
<path fill="none" stroke="midnightblue" d="M851.14,-302.43C797.6,-293.65 712.45,-279.43 639,-266 626.95,-263.8 613.82,-261.27 602.01,-258.94"/>
<polygon fill="midnightblue" stroke="midnightblue" points="602.52,-255.48 592.03,-256.97 601.16,-262.34 602.52,-255.48"/>
</g>
<!-- Node30&#45;&gt;Node7 -->
<g id="edge59" class="edge">
<title>Node30&#45;&gt;Node7</title>
<path fill="none" stroke="midnightblue" d="M908.93,-302.48C916.71,-287.84 929.78,-257.3 918,-235 902.64,-205.91 816.55,-166.33 769.58,-146.46"/>
<polygon fill="midnightblue" stroke="midnightblue" points="770.77,-143.16 760.19,-142.53 768.07,-149.62 770.77,-143.16"/>
</g>
<!-- Node30&#45;&gt;Node10 -->
<g id="edge55" class="edge">
<title>Node30&#45;&gt;Node10</title>
<path fill="none" stroke="midnightblue" d="M957.26,-303.25C960.55,-302.81 963.82,-302.39 967,-302 1119.12,-283.16 1163.49,-311.05 1310,-266 1370.25,-247.47 1402.14,-252.79 1435,-199 1452.61,-170.17 1456.57,-149.8 1436,-123 1423.88,-107.21 1379.7,-95.75 1339.68,-88.35"/>
<polygon fill="midnightblue" stroke="midnightblue" points="1340.08,-84.86 1329.62,-86.55 1338.85,-91.75 1340.08,-84.86"/>
</g>
<!-- Node30&#45;&gt;Node15 -->
<g id="edge57" class="edge">
<title>Node30&#45;&gt;Node15</title>
<path fill="none" stroke="midnightblue" d="M875.63,-302.48C841.08,-292.09 782.58,-274.51 744.12,-262.95"/>
<polygon fill="midnightblue" stroke="midnightblue" points="744.9,-259.54 734.32,-260.01 742.89,-266.24 744.9,-259.54"/>
</g>
<!-- Node30&#45;&gt;Node19 -->
<g id="edge52" class="edge">
<title>Node30&#45;&gt;Node19</title>
<path fill="none" stroke="midnightblue" d="M895.98,-302.48C887.41,-293.37 873.64,-278.74 863.04,-267.48"/>
<polygon fill="midnightblue" stroke="midnightblue" points="865.41,-264.89 856.01,-260.01 860.31,-269.69 865.41,-264.89"/>
</g>
<!-- Node30&#45;&gt;Node20 -->
<g id="edge56" class="edge">
<title>Node30&#45;&gt;Node20</title>
<path fill="none" stroke="midnightblue" d="M954.58,-302.48C1020.67,-291.33 1135.93,-271.91 1203.46,-260.53"/>
<polygon fill="midnightblue" stroke="midnightblue" points="1204.19,-263.95 1213.47,-258.84 1203.02,-257.05 1204.19,-263.95"/>
</g>
<!-- Node31 -->
<g id="node31" class="node">
<title>Node31</title>
<g id="a_node31"><a xlink:title=" ">
<polygon fill="none" stroke="#bfbfbf" points="970.5,-235.5 970.5,-265.5 1087.5,-265.5 1087.5,-235.5 970.5,-235.5"/>
<text text-anchor="start" x="978.5" y="-253.5" font-family="Helvetica,sans-Serif" font-size="10.00">occ/3rdparty/parallel</text>
<text text-anchor="middle" x="1029" y="-242.5" font-family="Helvetica,sans-Serif" font-size="10.00">_hashmap/phmap.h</text>
</a>
</g>
</g>
<!-- Node30&#45;&gt;Node31 -->
<g id="edge54" class="edge">
<title>Node30&#45;&gt;Node31</title>
<path fill="none" stroke="midnightblue" d="M921.91,-302.48C939.71,-294 967.58,-280.74 990.42,-269.86"/>
<polygon fill="midnightblue" stroke="midnightblue" points="992.01,-272.98 999.54,-265.52 989.01,-266.66 992.01,-272.98"/>
</g>
<!-- Node32 -->
<g id="node32" class="node">
<title>Node32</title>
<g id="a_node32"><a xlink:title=" ">
<polygon fill="none" stroke="#bfbfbf" points="1105.5,-241 1105.5,-260 1156.5,-260 1156.5,-241 1105.5,-241"/>
<text text-anchor="middle" x="1131" y="-248" font-family="Helvetica,sans-Serif" font-size="10.00">variant</text>
</a>
</g>
</g>
<!-- Node30&#45;&gt;Node32 -->
<g id="edge58" class="edge">
<title>Node30&#45;&gt;Node32</title>
<path fill="none" stroke="midnightblue" d="M950.64,-302.5C990.12,-294.73 1047.95,-282.04 1097,-266 1098.92,-265.37 1100.88,-264.68 1102.85,-263.95"/>
<polygon fill="midnightblue" stroke="midnightblue" points="1104.54,-267.04 1112.52,-260.07 1101.93,-260.54 1104.54,-267.04"/>
</g>
<!-- Node33&#45;&gt;Node4 -->
<g id="edge61" class="edge">
<title>Node33&#45;&gt;Node4</title>
<path fill="none" stroke="midnightblue" d="M511.03,-302.48C520.76,-293.28 536.46,-278.46 548.42,-267.16"/>
<polygon fill="midnightblue" stroke="midnightblue" points="551.12,-269.42 555.99,-260.01 546.32,-264.33 551.12,-269.42"/>
</g>
<!-- Node33&#45;&gt;Node6 -->
<g id="edge66" class="edge">
<title>Node33&#45;&gt;Node6</title>
<path fill="none" stroke="midnightblue" d="M439.09,-303.86C334.39,-291.9 135.52,-268.85 133,-266 125.08,-257.06 121.27,-194.05 134,-179 160.39,-147.79 282.82,-138.08 342.33,-135.18"/>
<polygon fill="midnightblue" stroke="midnightblue" points="342.85,-138.66 352.68,-134.71 342.53,-131.67 342.85,-138.66"/>
</g>
<!-- Node33&#45;&gt;Node7 -->
<g id="edge67" class="edge">
<title>Node33&#45;&gt;Node7</title>
<path fill="none" stroke="midnightblue" d="M503.14,-302.04C505.49,-286.73 512.16,-255.23 529,-235 553.07,-206.08 653.04,-165.87 705.89,-146.04"/>
<polygon fill="midnightblue" stroke="midnightblue" points="707.34,-149.23 715.49,-142.46 704.9,-142.67 707.34,-149.23"/>
</g>
<!-- Node33&#45;&gt;Node10 -->
<g id="edge62" class="edge">
<title>Node33&#45;&gt;Node10</title>
<path fill="none" stroke="midnightblue" d="M439.09,-303.81C331.45,-291.48 123.31,-267.47 122,-266 77.47,-215.89 109.83,-152.57 170,-123 260.53,-78.51 950.8,-76.82 1188.15,-77.57"/>
<polygon fill="midnightblue" stroke="midnightblue" points="1188.41,-81.07 1198.43,-77.61 1188.44,-74.07 1188.41,-81.07"/>
</g>
<!-- Node33&#45;&gt;Node15 -->
<g id="edge64" class="edge">
<title>Node33&#45;&gt;Node15</title>
<path fill="none" stroke="midnightblue" d="M531.23,-302.48C566.9,-292.07 627.36,-274.44 666.98,-262.88"/>
<polygon fill="midnightblue" stroke="midnightblue" points="668.21,-266.17 676.83,-260.01 666.25,-259.45 668.21,-266.17"/>
</g>
<!-- Node33&#45;&gt;Node20 -->
<g id="edge63" class="edge">
<title>Node33&#45;&gt;Node20</title>
<path fill="none" stroke="midnightblue" d="M564.8,-302.91C567.91,-302.59 570.99,-302.28 574,-302 836.47,-277.64 903.98,-294.77 1166,-266 1178.05,-264.68 1190.94,-262.87 1203.12,-260.97"/>
<polygon fill="midnightblue" stroke="midnightblue" points="1203.82,-264.4 1213.15,-259.37 1202.72,-257.49 1203.82,-264.4"/>
</g>
<!-- Node34 -->
<g id="node34" class="node">
<title>Node34</title>
<g id="a_node34"><a xlink:title=" ">
<polygon fill="none" stroke="#bfbfbf" points="388,-241 388,-260 444,-260 444,-241 388,-241"/>
<text text-anchor="middle" x="416" y="-248" font-family="Helvetica,sans-Serif" font-size="10.00">optional</text>
</a>
</g>
</g>
<!-- Node33&#45;&gt;Node34 -->
<g id="edge65" class="edge">
<title>Node33&#45;&gt;Node34</title>
<path fill="none" stroke="midnightblue" d="M489.68,-302.48C475.88,-292.93 453.3,-277.31 436.77,-265.87"/>
<polygon fill="midnightblue" stroke="midnightblue" points="438.51,-262.82 428.3,-260.01 434.53,-268.58 438.51,-262.82"/>
</g>
<!-- Node35&#45;&gt;Node4 -->
<g id="edge70" class="edge">
<title>Node35&#45;&gt;Node4</title>
<path fill="none" stroke="midnightblue" d="M624.97,-302.48C613.95,-293.11 596.04,-277.88 582.66,-266.51"/>
<polygon fill="midnightblue" stroke="midnightblue" points="584.9,-263.82 575.01,-260.01 580.36,-269.15 584.9,-263.82"/>
</g>
<!-- Node35&#45;&gt;Node6 -->
<g id="edge75" class="edge">
<title>Node35&#45;&gt;Node6</title>
<path fill="none" stroke="midnightblue" d="M608.64,-302.37C586.5,-294.54 554.49,-281.8 529,-266 473.13,-231.36 416.85,-177.04 390.47,-150.17"/>
<polygon fill="midnightblue" stroke="midnightblue" points="392.75,-147.5 383.27,-142.76 387.73,-152.38 392.75,-147.5"/>
</g>
<!-- Node35&#45;&gt;Node7 -->
<g id="edge76" class="edge">
<title>Node35&#45;&gt;Node7</title>
<path fill="none" stroke="midnightblue" d="M632.39,-302.35C626.16,-279.81 612.76,-218.27 639,-179 646.93,-167.14 679.84,-153.75 705.77,-144.68"/>
<polygon fill="midnightblue" stroke="midnightblue" points="706.96,-147.97 715.3,-141.42 704.7,-141.34 706.96,-147.97"/>
</g>
<!-- Node35&#45;&gt;Node9 -->
<g id="edge71" class="edge">
<title>Node35&#45;&gt;Node9</title>
<path fill="none" stroke="midnightblue" d="M673.08,-302.49C701.65,-295.19 741.15,-283.13 773,-266 792.5,-255.51 791.54,-243.46 812,-235 944.27,-180.35 994.57,-238.96 1132,-199 1151.47,-193.34 1153.99,-186.06 1173,-179 1212.29,-164.41 1258.31,-152.58 1292.7,-144.72"/>
<polygon fill="midnightblue" stroke="midnightblue" points="1293.54,-148.12 1302.53,-142.51 1292,-141.29 1293.54,-148.12"/>
</g>
<!-- Node35&#45;&gt;Node10 -->
<g id="edge72" class="edge">
<title>Node35&#45;&gt;Node10</title>
<path fill="none" stroke="midnightblue" d="M582.79,-303.07C579.82,-302.69 576.87,-302.33 574,-302 525.16,-296.41 166.32,-302.15 133,-266 125.63,-258 122.26,-195.76 134,-179 173.88,-122.08 211.97,-137.21 280,-123 452.74,-86.92 985.05,-79.77 1188.14,-78.35"/>
<polygon fill="midnightblue" stroke="midnightblue" points="1188.46,-81.85 1198.43,-78.28 1188.41,-74.85 1188.46,-81.85"/>
</g>
<!-- Node35&#45;&gt;Node15 -->
<g id="edge74" class="edge">
<title>Node35&#45;&gt;Node15</title>
<path fill="none" stroke="midnightblue" d="M645.17,-302.48C656.35,-293.11 674.52,-277.88 688.09,-266.51"/>
<polygon fill="midnightblue" stroke="midnightblue" points="690.43,-269.11 695.85,-260.01 685.93,-263.75 690.43,-269.11"/>
</g>
<!-- Node35&#45;&gt;Node19 -->
<g id="edge69" class="edge">
<title>Node35&#45;&gt;Node19</title>
<path fill="none" stroke="midnightblue" d="M670.59,-302.46C705.33,-293.93 759.59,-280.1 806,-266 808.77,-265.16 811.63,-264.25 814.49,-263.32"/>
<polygon fill="midnightblue" stroke="midnightblue" points="815.75,-266.59 824.11,-260.09 813.52,-259.95 815.75,-266.59"/>
</g>
<!-- Node35&#45;&gt;Node20 -->
<g id="edge73" class="edge">
<title>Node35&#45;&gt;Node20</title>
<path fill="none" stroke="midnightblue" d="M687.21,-303.05C690.18,-302.68 693.13,-302.32 696,-302 904.2,-278.7 957.94,-290.5 1166,-266 1178.04,-264.58 1190.93,-262.73 1203.1,-260.83"/>
<polygon fill="midnightblue" stroke="midnightblue" points="1203.81,-264.26 1213.13,-259.23 1202.7,-257.35 1203.81,-264.26"/>
</g>
<!-- Node36&#45;&gt;Node15 -->
<g id="edge78" class="edge">
<title>Node36&#45;&gt;Node15</title>
<path fill="none" stroke="midnightblue" d="M739.41,-302.48C733.62,-293.64 724.41,-279.59 717.13,-268.48"/>
<polygon fill="midnightblue" stroke="midnightblue" points="719.99,-266.45 711.58,-260.01 714.13,-270.29 719.99,-266.45"/>
</g>
</g>
</svg>
