<?xml version="1.0" encoding="UTF-8" standalone="no"?>
<!DOCTYPE svg PUBLIC "-//W3C//DTD SVG 1.1//EN"
 "http://www.w3.org/Graphics/SVG/1.1/DTD/svg11.dtd">
<!-- Generated by graphviz version 2.43.0 (0)
 -->
<!-- Title: /home/runner/work/occ/occ/include/occ/io/qcschema.h Pages: 1 -->
<svg width="2113pt" height="464pt"
 viewBox="0.00 0.00 2113.00 464.00" xmlns="http://www.w3.org/2000/svg" xmlns:xlink="http://www.w3.org/1999/xlink">
<g id="graph0" class="graph" transform="scale(1 1) rotate(0) translate(4 460)">
<title>/home/runner/work/occ/occ/include/occ/io/qcschema.h</title>
<!-- Node1 -->
<g id="node1" class="node">
<title>Node1</title>
<g id="a_node1"><a xlink:title=" ">
<polygon fill="#bfbfbf" stroke="black" points="102.5,-425.5 102.5,-455.5 269.5,-455.5 269.5,-425.5 102.5,-425.5"/>
<text text-anchor="start" x="110.5" y="-443.5" font-family="Helvetica,sans-Serif" font-size="10.00">/home/runner/work/occ</text>
<text text-anchor="middle" x="186" y="-432.5" font-family="Helvetica,sans-Serif" font-size="10.00">/occ/include/occ/io/qcschema.h</text>
</a>
</g>
</g>
<!-- Node2 -->
<g id="node2" class="node">
<title>Node2</title>
<g id="a_node2"><a xlink:title=" ">
<polygon fill="none" stroke="#bfbfbf" points="0,-129 0,-148 42,-148 42,-129 0,-129"/>
<text text-anchor="middle" x="21" y="-136" font-family="Helvetica,sans-Serif" font-size="10.00">array</text>
</a>
</g>
</g>
<!-- Node1&#45;&gt;Node2 -->
<g id="edge1" class="edge">
<title>Node1&#45;&gt;Node2</title>
<path fill="none" stroke="midnightblue" d="M119.37,-425.48C67.76,-410.26 5,-380.19 5,-324 5,-324 5,-324 5,-266 5,-227.4 12.42,-182.69 17.16,-158.1"/>
<polygon fill="midnightblue" stroke="midnightblue" points="20.64,-158.53 19.16,-148.04 13.78,-157.16 20.64,-158.53"/>
</g>
<!-- Node3 -->
<g id="node3" class="node">
<title>Node3</title>
<g id="a_node3"><a xlink:title=" ">
<polygon fill="none" stroke="#bfbfbf" points="187,-313.5 187,-332.5 241,-332.5 241,-313.5 187,-313.5"/>
<text text-anchor="middle" x="214" y="-320.5" font-family="Helvetica,sans-Serif" font-size="10.00">istream</text>
</a>
</g>
</g>
<!-- Node1&#45;&gt;Node3 -->
<g id="edge2" class="edge">
<title>Node1&#45;&gt;Node3</title>
<path fill="none" stroke="midnightblue" d="M189.43,-425.34C194.48,-404.53 203.9,-365.66 209.49,-342.58"/>
<polygon fill="midnightblue" stroke="midnightblue" points="212.94,-343.21 211.9,-332.67 206.14,-341.56 212.94,-343.21"/>
</g>
<!-- Node4 -->
<g id="node4" class="node">
<title>Node4</title>
<g id="a_node4"><a xlink:href="element_8h.html" target="_top" xlink:title=" ">
<polygon fill="none" stroke="black" points="288,-129 288,-148 398,-148 398,-129 288,-129"/>
<text text-anchor="middle" x="343" y="-136" font-family="Helvetica,sans-Serif" font-size="10.00">occ/core/element.h</text>
</a>
</g>
</g>
<!-- Node1&#45;&gt;Node4 -->
<g id="edge3" class="edge">
<title>Node1&#45;&gt;Node4</title>
<path fill="none" stroke="midnightblue" d="M181.24,-425.21C174.04,-401.1 162.73,-351.21 178,-313 207.13,-240.1 283.08,-180.33 320.92,-154"/>
<polygon fill="midnightblue" stroke="midnightblue" points="322.95,-156.85 329.24,-148.32 319,-151.07 322.95,-156.85"/>
</g>
<!-- Node7 -->
<g id="node7" class="node">
<title>Node7</title>
<g id="a_node7"><a xlink:href="occ__input_8h.html" target="_top" xlink:title=" ">
<polygon fill="none" stroke="black" points="337,-369.5 337,-388.5 441,-388.5 441,-369.5 337,-369.5"/>
<text text-anchor="middle" x="389" y="-376.5" font-family="Helvetica,sans-Serif" font-size="10.00">occ/io/occ_input.h</text>
</a>
</g>
</g>
<!-- Node1&#45;&gt;Node7 -->
<g id="edge6" class="edge">
<title>Node1&#45;&gt;Node7</title>
<path fill="none" stroke="midnightblue" d="M233.85,-425.47C269.33,-415.08 317.09,-401.08 350.2,-391.37"/>
<polygon fill="midnightblue" stroke="midnightblue" points="351.37,-394.68 359.98,-388.51 349.4,-387.96 351.37,-394.68"/>
</g>
<!-- Node5 -->
<g id="node5" class="node">
<title>Node5</title>
<g id="a_node5"><a xlink:title=" ">
<polygon fill="none" stroke="#bfbfbf" points="735,-67.5 735,-86.5 779,-86.5 779,-67.5 735,-67.5"/>
<text text-anchor="middle" x="757" y="-74.5" font-family="Helvetica,sans-Serif" font-size="10.00">string</text>
</a>
</g>
</g>
<!-- Node4&#45;&gt;Node5 -->
<g id="edge4" class="edge">
<title>Node4&#45;&gt;Node5</title>
<path fill="none" stroke="midnightblue" d="M398.4,-129.54C486.22,-116.92 654.6,-92.72 724.91,-82.61"/>
<polygon fill="midnightblue" stroke="midnightblue" points="725.54,-86.06 734.94,-81.17 724.55,-79.13 725.54,-86.06"/>
</g>
<!-- Node6 -->
<g id="node6" class="node">
<title>Node6</title>
<g id="a_node6"><a xlink:title=" ">
<polygon fill="none" stroke="#bfbfbf" points="1107.5,-67.5 1107.5,-86.5 1154.5,-86.5 1154.5,-67.5 1107.5,-67.5"/>
<text text-anchor="middle" x="1131" y="-74.5" font-family="Helvetica,sans-Serif" font-size="10.00">vector</text>
</a>
</g>
</g>
<!-- Node4&#45;&gt;Node6 -->
<g id="edge5" class="edge">
<title>Node4&#45;&gt;Node6</title>
<path fill="none" stroke="midnightblue" d="M397.97,-128.99C413.47,-126.8 430.37,-124.61 446,-123 695.36,-97.29 997.38,-83.45 1097.19,-79.33"/>
<polygon fill="midnightblue" stroke="midnightblue" points="1097.44,-82.82 1107.28,-78.92 1097.15,-75.83 1097.44,-82.82"/>
</g>
<!-- Node7&#45;&gt;Node2 -->
<g id="edge7" class="edge">
<title>Node7&#45;&gt;Node2</title>
<path fill="none" stroke="midnightblue" d="M370.87,-369.49C303.09,-337.64 68.15,-227.04 62,-221 43.94,-203.27 32.46,-175.93 26.37,-157.88"/>
<polygon fill="midnightblue" stroke="midnightblue" points="29.68,-156.73 23.34,-148.24 23,-158.83 29.68,-156.73"/>
</g>
<!-- Node7&#45;&gt;Node3 -->
<g id="edge8" class="edge">
<title>Node7&#45;&gt;Node3</title>
<path fill="none" stroke="midnightblue" d="M361.27,-369.44C331.4,-360.23 283.73,-345.52 250.75,-335.34"/>
<polygon fill="midnightblue" stroke="midnightblue" points="251.61,-331.94 241.02,-332.34 249.55,-338.63 251.61,-331.94"/>
</g>
<!-- Node7&#45;&gt;Node4 -->
<g id="edge9" class="edge">
<title>Node7&#45;&gt;Node4</title>
<path fill="none" stroke="midnightblue" d="M381.38,-369.28C374.17,-360.61 363.51,-346.68 357,-333 334.81,-286.36 332.95,-272.18 326,-221 324.15,-207.35 323.77,-203.6 326,-190 327.8,-178.99 331.68,-167.14 335.28,-157.7"/>
<polygon fill="midnightblue" stroke="midnightblue" points="338.61,-158.8 339.09,-148.22 332.11,-156.19 338.61,-158.8"/>
</g>
<!-- Node7&#45;&gt;Node6 -->
<g id="edge76" class="edge">
<title>Node7&#45;&gt;Node6</title>
<path fill="none" stroke="midnightblue" d="M441.1,-376.67C694.17,-369.88 1783,-336.66 1783,-268 1783,-268 1783,-268 1783,-204.5 1783,-160.3 1764.4,-144.89 1726,-123 1719.85,-119.5 1290.25,-89.16 1164.95,-80.37"/>
<polygon fill="midnightblue" stroke="midnightblue" points="1165,-76.87 1154.78,-79.66 1164.51,-83.85 1165,-76.87"/>
</g>
<!-- Node8 -->
<g id="node8" class="node">
<title>Node8</title>
<g id="a_node8"><a xlink:href="molecule_8h.html" target="_top" xlink:title=" ">
<polygon fill="none" stroke="black" points="335,-196 335,-215 449,-215 449,-196 335,-196"/>
<text text-anchor="middle" x="392" y="-203" font-family="Helvetica,sans-Serif" font-size="10.00">occ/core/molecule.h</text>
</a>
</g>
</g>
<!-- Node7&#45;&gt;Node8 -->
<g id="edge10" class="edge">
<title>Node7&#45;&gt;Node8</title>
<path fill="none" stroke="midnightblue" d="M382.37,-369.27C376.23,-360.61 367.54,-346.67 364,-333 354.03,-294.51 371.17,-248.87 382.74,-224.3"/>
<polygon fill="midnightblue" stroke="midnightblue" points="385.98,-225.66 387.27,-215.14 379.7,-222.56 385.98,-225.66"/>
</g>
<!-- Node15 -->
<g id="node15" class="node">
<title>Node15</title>
<g id="a_node15"><a xlink:href="point__charge_8h.html" target="_top" xlink:title=" ">
<polygon fill="none" stroke="black" points="71,-196 71,-215 203,-215 203,-196 71,-196"/>
<text text-anchor="middle" x="137" y="-203" font-family="Helvetica,sans-Serif" font-size="10.00">occ/core/point_charge.h</text>
</a>
</g>
</g>
<!-- Node7&#45;&gt;Node15 -->
<g id="edge20" class="edge">
<title>Node7&#45;&gt;Node15</title>
<path fill="none" stroke="midnightblue" d="M432.51,-369.5C473.82,-359.54 526.27,-340.78 502,-313 462.75,-268.08 291.47,-298.94 236,-277 203.67,-264.21 171.95,-238.68 153.44,-222.11"/>
<polygon fill="midnightblue" stroke="midnightblue" points="155.65,-219.38 145.91,-215.2 150.92,-224.54 155.65,-219.38"/>
</g>
<!-- Node16 -->
<g id="node16" class="node">
<title>Node16</title>
<g id="a_node16"><a xlink:href="crystal_8h.html" target="_top" xlink:title=" ">
<polygon fill="none" stroke="black" points="877,-313.5 877,-332.5 991,-332.5 991,-313.5 877,-313.5"/>
<text text-anchor="middle" x="934" y="-320.5" font-family="Helvetica,sans-Serif" font-size="10.00">occ/crystal/crystal.h</text>
</a>
</g>
</g>
<!-- Node7&#45;&gt;Node16 -->
<g id="edge24" class="edge">
<title>Node7&#45;&gt;Node16</title>
<path fill="none" stroke="midnightblue" d="M441.26,-372.82C540.6,-362.98 756.57,-341.58 866.62,-330.68"/>
<polygon fill="midnightblue" stroke="midnightblue" points="867,-334.16 876.61,-329.69 866.31,-327.19 867,-334.16"/>
</g>
<!-- Node40 -->
<g id="node40" class="node">
<title>Node40</title>
<g id="a_node40"><a xlink:href="grid__settings_8h.html" target="_top" xlink:title=" ">
<polygon fill="none" stroke="black" points="373,-313.5 373,-332.5 493,-332.5 493,-313.5 373,-313.5"/>
<text text-anchor="middle" x="433" y="-320.5" font-family="Helvetica,sans-Serif" font-size="10.00">occ/io/grid_settings.h</text>
</a>
</g>
</g>
<!-- Node7&#45;&gt;Node40 -->
<g id="edge70" class="edge">
<title>Node7&#45;&gt;Node40</title>
<path fill="none" stroke="midnightblue" d="M396.27,-369.08C402.54,-361.38 411.79,-350.03 419.43,-340.65"/>
<polygon fill="midnightblue" stroke="midnightblue" points="422.27,-342.71 425.87,-332.75 416.84,-338.29 422.27,-342.71"/>
</g>
<!-- Node41 -->
<g id="node41" class="node">
<title>Node41</title>
<g id="a_node41"><a xlink:href="spinorbital_8h.html" target="_top" xlink:title=" ">
<polygon fill="none" stroke="black" points="1811,-196 1811,-215 1927,-215 1927,-196 1811,-196"/>
<text text-anchor="middle" x="1869" y="-203" font-family="Helvetica,sans-Serif" font-size="10.00">occ/qm/spinorbital.h</text>
</a>
</g>
</g>
<!-- Node7&#45;&gt;Node41 -->
<g id="edge71" class="edge">
<title>Node7&#45;&gt;Node41</title>
<path fill="none" stroke="midnightblue" d="M441.27,-377.75C689.29,-376.41 1737.93,-368.62 1797,-333 1836.74,-309.04 1856.51,-254.37 1864.52,-225.37"/>
<polygon fill="midnightblue" stroke="midnightblue" points="1868,-225.87 1867.1,-215.31 1861.22,-224.13 1868,-225.87"/>
</g>
<!-- Node8&#45;&gt;Node2 -->
<g id="edge11" class="edge">
<title>Node8&#45;&gt;Node2</title>
<path fill="none" stroke="midnightblue" d="M336.3,-195.99C275.42,-186.5 175.06,-170.34 89,-154 76.92,-151.71 63.7,-148.94 52.14,-146.45"/>
<polygon fill="midnightblue" stroke="midnightblue" points="52.6,-142.97 42.09,-144.25 51.11,-149.8 52.6,-142.97"/>
</g>
<!-- Node8&#45;&gt;Node4 -->
<g id="edge17" class="edge">
<title>Node8&#45;&gt;Node4</title>
<path fill="none" stroke="midnightblue" d="M385.39,-195.73C377.82,-185.7 365.25,-169.01 355.76,-156.42"/>
<polygon fill="midnightblue" stroke="midnightblue" points="358.32,-154.01 349.5,-148.13 352.73,-158.22 358.32,-154.01"/>
</g>
<!-- Node9 -->
<g id="node9" class="node">
<title>Node9</title>
<g id="a_node9"><a xlink:href="atom_8h.html" target="_top" xlink:title=" ">
<polygon fill="none" stroke="black" points="98.5,-129 98.5,-148 193.5,-148 193.5,-129 98.5,-129"/>
<text text-anchor="middle" x="146" y="-136" font-family="Helvetica,sans-Serif" font-size="10.00">occ/core/atom.h</text>
</a>
</g>
</g>
<!-- Node8&#45;&gt;Node9 -->
<g id="edge12" class="edge">
<title>Node8&#45;&gt;Node9</title>
<path fill="none" stroke="midnightblue" d="M359.59,-195.94C315.62,-184.32 236.99,-163.54 188.38,-150.7"/>
<polygon fill="midnightblue" stroke="midnightblue" points="189.05,-147.25 178.48,-148.08 187.26,-154.02 189.05,-147.25"/>
</g>
<!-- Node10 -->
<g id="node10" class="node">
<title>Node10</title>
<g id="a_node10"><a xlink:href="linear__algebra_8h.html" target="_top" xlink:title=" ">
<polygon fill="none" stroke="black" points="444.5,-67.5 444.5,-86.5 583.5,-86.5 583.5,-67.5 444.5,-67.5"/>
<text text-anchor="middle" x="514" y="-74.5" font-family="Helvetica,sans-Serif" font-size="10.00">occ/core/linear_algebra.h</text>
</a>
</g>
</g>
<!-- Node8&#45;&gt;Node10 -->
<g id="edge18" class="edge">
<title>Node8&#45;&gt;Node10</title>
<path fill="none" stroke="midnightblue" d="M360.35,-195.98C318.02,-183.07 251.34,-156.46 279,-123 298.58,-99.32 374.01,-87.98 434.2,-82.63"/>
<polygon fill="midnightblue" stroke="midnightblue" points="434.81,-86.09 444.48,-81.76 434.22,-79.11 434.81,-86.09"/>
</g>
<!-- Node14 -->
<g id="node14" class="node">
<title>Node14</title>
<g id="a_node14"><a xlink:title=" ">
<polygon fill="none" stroke="#bfbfbf" points="454.5,-129 454.5,-148 495.5,-148 495.5,-129 454.5,-129"/>
<text text-anchor="middle" x="475" y="-136" font-family="Helvetica,sans-Serif" font-size="10.00">tuple</text>
</a>
</g>
</g>
<!-- Node8&#45;&gt;Node14 -->
<g id="edge19" class="edge">
<title>Node8&#45;&gt;Node14</title>
<path fill="none" stroke="midnightblue" d="M403.19,-195.73C416.63,-185.21 439.4,-167.38 455.7,-154.62"/>
<polygon fill="midnightblue" stroke="midnightblue" points="458.27,-157.05 463.98,-148.13 453.95,-151.54 458.27,-157.05"/>
</g>
<!-- Node9&#45;&gt;Node10 -->
<g id="edge13" class="edge">
<title>Node9&#45;&gt;Node10</title>
<path fill="none" stroke="midnightblue" d="M180.33,-128.93C189.3,-126.84 198.99,-124.71 208,-123 284.58,-108.44 372.71,-95.92 434.66,-87.81"/>
<polygon fill="midnightblue" stroke="midnightblue" points="435.29,-91.26 444.75,-86.5 434.39,-84.32 435.29,-91.26"/>
</g>
<!-- Node11 -->
<g id="node11" class="node">
<title>Node11</title>
<g id="a_node11"><a xlink:title=" ">
<polygon fill="none" stroke="#bfbfbf" points="372.5,-6 372.5,-25 449.5,-25 449.5,-6 372.5,-6"/>
<text text-anchor="middle" x="411" y="-13" font-family="Helvetica,sans-Serif" font-size="10.00">Eigen/Dense</text>
</a>
</g>
</g>
<!-- Node10&#45;&gt;Node11 -->
<g id="edge14" class="edge">
<title>Node10&#45;&gt;Node11</title>
<path fill="none" stroke="midnightblue" d="M499.24,-67.48C482.34,-57.71 454.42,-41.58 434.51,-30.08"/>
<polygon fill="midnightblue" stroke="midnightblue" points="436.14,-26.98 425.73,-25.01 432.64,-33.04 436.14,-26.98"/>
</g>
<!-- Node12 -->
<g id="node12" class="node">
<title>Node12</title>
<g id="a_node12"><a xlink:title=" ">
<polygon fill="none" stroke="#bfbfbf" points="467.5,-6 467.5,-25 560.5,-25 560.5,-6 467.5,-6"/>
<text text-anchor="middle" x="514" y="-13" font-family="Helvetica,sans-Serif" font-size="10.00">Eigen/StdVector</text>
</a>
</g>
</g>
<!-- Node10&#45;&gt;Node12 -->
<g id="edge15" class="edge">
<title>Node10&#45;&gt;Node12</title>
<path fill="none" stroke="midnightblue" d="M514,-67.48C514,-59.08 514,-45.98 514,-35.16"/>
<polygon fill="midnightblue" stroke="midnightblue" points="517.5,-35.01 514,-25.01 510.5,-35.01 517.5,-35.01"/>
</g>
<!-- Node13 -->
<g id="node13" class="node">
<title>Node13</title>
<g id="a_node13"><a xlink:title=" ">
<polygon fill="none" stroke="#bfbfbf" points="578.5,-0.5 578.5,-30.5 685.5,-30.5 685.5,-0.5 578.5,-0.5"/>
<text text-anchor="start" x="586.5" y="-18.5" font-family="Helvetica,sans-Serif" font-size="10.00">occ/3rdparty/eigen</text>
<text text-anchor="middle" x="632" y="-7.5" font-family="Helvetica,sans-Serif" font-size="10.00">&#45;fmt/fmt.h</text>
</a>
</g>
</g>
<!-- Node10&#45;&gt;Node13 -->
<g id="edge16" class="edge">
<title>Node10&#45;&gt;Node13</title>
<path fill="none" stroke="midnightblue" d="M530.91,-67.48C547.56,-59.08 573.55,-45.97 595.01,-35.15"/>
<polygon fill="midnightblue" stroke="midnightblue" points="596.84,-38.15 604.19,-30.52 593.68,-31.9 596.84,-38.15"/>
</g>
<!-- Node15&#45;&gt;Node2 -->
<g id="edge21" class="edge">
<title>Node15&#45;&gt;Node2</title>
<path fill="none" stroke="midnightblue" d="M121.36,-195.73C101.79,-184.77 68.08,-165.88 45.18,-153.05"/>
<polygon fill="midnightblue" stroke="midnightblue" points="46.83,-149.96 36.4,-148.13 43.41,-156.07 46.83,-149.96"/>
</g>
<!-- Node15&#45;&gt;Node9 -->
<g id="edge22" class="edge">
<title>Node15&#45;&gt;Node9</title>
<path fill="none" stroke="midnightblue" d="M138.21,-195.73C139.54,-186.18 141.69,-170.62 143.4,-158.28"/>
<polygon fill="midnightblue" stroke="midnightblue" points="146.9,-158.51 144.81,-148.13 139.97,-157.55 146.9,-158.51"/>
</g>
<!-- Node15&#45;&gt;Node10 -->
<g id="edge23" class="edge">
<title>Node15&#45;&gt;Node10</title>
<path fill="none" stroke="midnightblue" d="M125.23,-195.92C105.07,-180.21 68.02,-146.32 89,-123 111.61,-97.87 317.43,-85.71 434.13,-80.8"/>
<polygon fill="midnightblue" stroke="midnightblue" points="434.6,-84.28 444.45,-80.37 434.32,-77.28 434.6,-84.28"/>
</g>
<!-- Node16&#45;&gt;Node6 -->
<g id="edge69" class="edge">
<title>Node16&#45;&gt;Node6</title>
<path fill="none" stroke="midnightblue" d="M991.11,-320.99C1089.96,-315.63 1288.49,-287.91 1352,-154 1357.9,-141.55 1360.72,-133.67 1352,-123 1328.73,-94.51 1220.57,-83.6 1164.66,-79.81"/>
<polygon fill="midnightblue" stroke="midnightblue" points="1164.75,-76.31 1154.54,-79.16 1164.3,-83.3 1164.75,-76.31"/>
</g>
<!-- Node16&#45;&gt;Node8 -->
<g id="edge35" class="edge">
<title>Node16&#45;&gt;Node8</title>
<path fill="none" stroke="midnightblue" d="M893.7,-313.41C796.38,-292.67 548.68,-239.89 442.06,-217.17"/>
<polygon fill="midnightblue" stroke="midnightblue" points="442.7,-213.73 432.19,-215.06 441.24,-220.57 442.7,-213.73"/>
</g>
<!-- Node16&#45;&gt;Node10 -->
<g id="edge34" class="edge">
<title>Node16&#45;&gt;Node10</title>
<path fill="none" stroke="midnightblue" d="M876.77,-317.59C744.1,-306.57 419.74,-274.78 326,-221 291.84,-201.4 281.76,-190.91 268,-154 263.19,-141.09 259.18,-133.58 268,-123 288.98,-97.83 370.73,-86.7 434.3,-81.8"/>
<polygon fill="midnightblue" stroke="midnightblue" points="434.61,-85.29 444.33,-81.07 434.1,-78.31 434.61,-85.29"/>
</g>
<!-- Node17 -->
<g id="node17" class="node">
<title>Node17</title>
<g id="a_node17"><a xlink:href="bondgraph_8h.html" target="_top" xlink:title=" ">
<polygon fill="none" stroke="black" points="1435.5,-257.5 1435.5,-276.5 1556.5,-276.5 1556.5,-257.5 1435.5,-257.5"/>
<text text-anchor="middle" x="1496" y="-264.5" font-family="Helvetica,sans-Serif" font-size="10.00">occ/core/bondgraph.h</text>
</a>
</g>
</g>
<!-- Node16&#45;&gt;Node17 -->
<g id="edge25" class="edge">
<title>Node16&#45;&gt;Node17</title>
<path fill="none" stroke="midnightblue" d="M991.24,-316.5C1094.61,-306.57 1312.13,-285.67 1424.87,-274.83"/>
<polygon fill="midnightblue" stroke="midnightblue" points="1425.5,-278.29 1435.12,-273.85 1424.83,-271.32 1425.5,-278.29"/>
</g>
<!-- Node23 -->
<g id="node23" class="node">
<title>Node23</title>
<g id="a_node23"><a xlink:href="dimer_8h.html" target="_top" xlink:title=" ">
<polygon fill="none" stroke="black" points="1010.5,-257.5 1010.5,-276.5 1107.5,-276.5 1107.5,-257.5 1010.5,-257.5"/>
<text text-anchor="middle" x="1059" y="-264.5" font-family="Helvetica,sans-Serif" font-size="10.00">occ/core/dimer.h</text>
</a>
</g>
</g>
<!-- Node16&#45;&gt;Node23 -->
<g id="edge31" class="edge">
<title>Node16&#45;&gt;Node23</title>
<path fill="none" stroke="midnightblue" d="M953.81,-313.44C974.29,-304.6 1006.48,-290.69 1029.86,-280.59"/>
<polygon fill="midnightblue" stroke="midnightblue" points="1031.49,-283.7 1039.29,-276.52 1028.72,-277.27 1031.49,-283.7"/>
</g>
<!-- Node24 -->
<g id="node24" class="node">
<title>Node24</title>
<g id="a_node24"><a xlink:href="asymmetric__unit_8h.html" target="_top" xlink:title=" ">
<polygon fill="none" stroke="black" points="653.5,-190.5 653.5,-220.5 784.5,-220.5 784.5,-190.5 653.5,-190.5"/>
<text text-anchor="start" x="661.5" y="-208.5" font-family="Helvetica,sans-Serif" font-size="10.00">occ/crystal/asymmetric</text>
<text text-anchor="middle" x="719" y="-197.5" font-family="Helvetica,sans-Serif" font-size="10.00">_unit.h</text>
</a>
</g>
</g>
<!-- Node16&#45;&gt;Node24 -->
<g id="edge36" class="edge">
<title>Node16&#45;&gt;Node24</title>
<path fill="none" stroke="midnightblue" d="M917.84,-313.32C883.23,-294.73 801.28,-250.7 754.09,-225.35"/>
<polygon fill="midnightblue" stroke="midnightblue" points="755.61,-222.19 745.14,-220.55 752.3,-228.36 755.61,-222.19"/>
</g>
<!-- Node25 -->
<g id="node25" class="node">
<title>Node25</title>
<g id="a_node25"><a xlink:href="hkl_8h.html" target="_top" xlink:title=" ">
<polygon fill="none" stroke="black" points="1059,-129 1059,-148 1155,-148 1155,-129 1059,-129"/>
<text text-anchor="middle" x="1107" y="-136" font-family="Helvetica,sans-Serif" font-size="10.00">occ/crystal/hkl.h</text>
</a>
</g>
</g>
<!-- Node16&#45;&gt;Node25 -->
<g id="edge41" class="edge">
<title>Node16&#45;&gt;Node25</title>
<path fill="none" stroke="midnightblue" d="M942.34,-313.2C969.58,-284.47 1056.14,-193.15 1091.62,-155.73"/>
<polygon fill="midnightblue" stroke="midnightblue" points="1094.4,-157.88 1098.74,-148.21 1089.32,-153.06 1094.4,-157.88"/>
</g>
<!-- Node26 -->
<g id="node26" class="node">
<title>Node26</title>
<g id="a_node26"><a xlink:href="spacegroup_8h.html" target="_top" xlink:title=" ">
<polygon fill="none" stroke="black" points="816.5,-196 816.5,-215 953.5,-215 953.5,-196 816.5,-196"/>
<text text-anchor="middle" x="885" y="-203" font-family="Helvetica,sans-Serif" font-size="10.00">occ/crystal/spacegroup.h</text>
</a>
</g>
</g>
<!-- Node16&#45;&gt;Node26 -->
<g id="edge43" class="edge">
<title>Node16&#45;&gt;Node26</title>
<path fill="none" stroke="midnightblue" d="M930.32,-313.32C922.37,-294.59 903.47,-250.05 892.76,-224.79"/>
<polygon fill="midnightblue" stroke="midnightblue" points="895.85,-223.12 888.73,-215.28 889.41,-225.85 895.85,-223.12"/>
</g>
<!-- Node30 -->
<g id="node30" class="node">
<title>Node30</title>
<g id="a_node30"><a xlink:href="unitcell_8h.html" target="_top" xlink:title=" ">
<polygon fill="none" stroke="black" points="1143.5,-196 1143.5,-215 1260.5,-215 1260.5,-196 1143.5,-196"/>
<text text-anchor="middle" x="1202" y="-203" font-family="Helvetica,sans-Serif" font-size="10.00">occ/crystal/unitcell.h</text>
</a>
</g>
</g>
<!-- Node16&#45;&gt;Node30 -->
<g id="edge53" class="edge">
<title>Node16&#45;&gt;Node30</title>
<path fill="none" stroke="midnightblue" d="M991.15,-314.74C1028.46,-308.39 1077.41,-296.95 1117,-277 1144.41,-263.19 1170.78,-239.08 1186.69,-222.95"/>
<polygon fill="midnightblue" stroke="midnightblue" points="1189.6,-224.98 1194.01,-215.35 1184.55,-220.13 1189.6,-224.98"/>
</g>
<!-- Node18 -->
<g id="node18" class="node">
<title>Node18</title>
<g id="a_node18"><a xlink:href="graph_8h.html" target="_top" xlink:title=" ">
<polygon fill="none" stroke="black" points="1483.5,-196 1483.5,-215 1580.5,-215 1580.5,-196 1483.5,-196"/>
<text text-anchor="middle" x="1532" y="-203" font-family="Helvetica,sans-Serif" font-size="10.00">occ/core/graph.h</text>
</a>
</g>
</g>
<!-- Node17&#45;&gt;Node18 -->
<g id="edge26" class="edge">
<title>Node17&#45;&gt;Node18</title>
<path fill="none" stroke="midnightblue" d="M1501.16,-257.48C1506.45,-248.73 1514.84,-234.87 1521.53,-223.81"/>
<polygon fill="midnightblue" stroke="midnightblue" points="1524.67,-225.38 1526.85,-215.01 1518.68,-221.75 1524.67,-225.38"/>
</g>
<!-- Node19 -->
<g id="node19" class="node">
<title>Node19</title>
<g id="a_node19"><a xlink:title=" ">
<polygon fill="none" stroke="#bfbfbf" points="1473.5,-123.5 1473.5,-153.5 1590.5,-153.5 1590.5,-123.5 1473.5,-123.5"/>
<text text-anchor="start" x="1481.5" y="-141.5" font-family="Helvetica,sans-Serif" font-size="10.00">occ/3rdparty/parallel</text>
<text text-anchor="middle" x="1532" y="-130.5" font-family="Helvetica,sans-Serif" font-size="10.00">_hashmap/phmap.h</text>
</a>
</g>
</g>
<!-- Node18&#45;&gt;Node19 -->
<g id="edge27" class="edge">
<title>Node18&#45;&gt;Node19</title>
<path fill="none" stroke="midnightblue" d="M1532,-195.73C1532,-187.54 1532,-174.92 1532,-163.71"/>
<polygon fill="midnightblue" stroke="midnightblue" points="1535.5,-163.59 1532,-153.59 1528.5,-163.59 1535.5,-163.59"/>
</g>
<!-- Node20 -->
<g id="node20" class="node">
<title>Node20</title>
<g id="a_node20"><a xlink:title=" ">
<polygon fill="none" stroke="#bfbfbf" points="1399,-129 1399,-148 1455,-148 1455,-129 1399,-129"/>
<text text-anchor="middle" x="1427" y="-136" font-family="Helvetica,sans-Serif" font-size="10.00">optional</text>
</a>
</g>
</g>
<!-- Node18&#45;&gt;Node20 -->
<g id="edge28" class="edge">
<title>Node18&#45;&gt;Node20</title>
<path fill="none" stroke="midnightblue" d="M1517.84,-195.73C1500.29,-184.87 1470.16,-166.22 1449.44,-153.39"/>
<polygon fill="midnightblue" stroke="midnightblue" points="1451.28,-150.41 1440.94,-148.13 1447.6,-156.37 1451.28,-150.41"/>
</g>
<!-- Node21 -->
<g id="node21" class="node">
<title>Node21</title>
<g id="a_node21"><a xlink:title=" ">
<polygon fill="none" stroke="#bfbfbf" points="1608.5,-129 1608.5,-148 1655.5,-148 1655.5,-129 1608.5,-129"/>
<text text-anchor="middle" x="1632" y="-136" font-family="Helvetica,sans-Serif" font-size="10.00">queue</text>
</a>
</g>
</g>
<!-- Node18&#45;&gt;Node21 -->
<g id="edge29" class="edge">
<title>Node18&#45;&gt;Node21</title>
<path fill="none" stroke="midnightblue" d="M1545.49,-195.73C1562.05,-184.96 1590.38,-166.55 1610.09,-153.74"/>
<polygon fill="midnightblue" stroke="midnightblue" points="1612.25,-156.51 1618.73,-148.13 1608.44,-150.64 1612.25,-156.51"/>
</g>
<!-- Node22 -->
<g id="node22" class="node">
<title>Node22</title>
<g id="a_node22"><a xlink:title=" ">
<polygon fill="none" stroke="#bfbfbf" points="1673.5,-129 1673.5,-148 1716.5,-148 1716.5,-129 1673.5,-129"/>
<text text-anchor="middle" x="1695" y="-136" font-family="Helvetica,sans-Serif" font-size="10.00">stack</text>
</a>
</g>
</g>
<!-- Node18&#45;&gt;Node22 -->
<g id="edge30" class="edge">
<title>Node18&#45;&gt;Node22</title>
<path fill="none" stroke="midnightblue" d="M1556.77,-195.83C1583.68,-186.24 1627.8,-170.02 1665,-154 1666.2,-153.49 1667.41,-152.95 1668.64,-152.4"/>
<polygon fill="midnightblue" stroke="midnightblue" points="1670.4,-155.44 1677.99,-148.04 1667.44,-149.09 1670.4,-155.44"/>
</g>
<!-- Node23&#45;&gt;Node8 -->
<g id="edge32" class="edge">
<title>Node23&#45;&gt;Node8</title>
<path fill="none" stroke="midnightblue" d="M1010.49,-261.67C893.19,-251.21 593.92,-224.51 459.35,-212.51"/>
<polygon fill="midnightblue" stroke="midnightblue" points="459.44,-209 449.17,-211.6 458.82,-215.97 459.44,-209"/>
</g>
<!-- Node23&#45;&gt;Node20 -->
<g id="edge33" class="edge">
<title>Node23&#45;&gt;Node20</title>
<path fill="none" stroke="midnightblue" d="M1107.79,-259.41C1151.23,-252.65 1216.06,-240.35 1270,-221 1320.34,-202.94 1374.85,-171.73 1404.55,-153.63"/>
<polygon fill="midnightblue" stroke="midnightblue" points="1406.62,-156.47 1413.29,-148.24 1402.94,-150.51 1406.62,-156.47"/>
</g>
<!-- Node24&#45;&gt;Node4 -->
<g id="edge37" class="edge">
<title>Node24&#45;&gt;Node4</title>
<path fill="none" stroke="midnightblue" d="M653.28,-194.55C591.01,-184.92 494.96,-169.53 412,-154 405.45,-152.77 398.57,-151.41 391.79,-150.03"/>
<polygon fill="midnightblue" stroke="midnightblue" points="392.49,-146.6 381.99,-148.01 391.07,-153.46 392.49,-146.6"/>
</g>
<!-- Node24&#45;&gt;Node5 -->
<g id="edge39" class="edge">
<title>Node24&#45;&gt;Node5</title>
<path fill="none" stroke="midnightblue" d="M723.1,-190.35C727.82,-174.07 735.86,-146.58 743,-123 745.67,-114.18 748.7,-104.41 751.26,-96.23"/>
<polygon fill="midnightblue" stroke="midnightblue" points="754.62,-97.2 754.28,-86.61 747.94,-95.11 754.62,-97.2"/>
</g>
<!-- Node24&#45;&gt;Node6 -->
<g id="edge40" class="edge">
<title>Node24&#45;&gt;Node6</title>
<path fill="none" stroke="midnightblue" d="M730.83,-190.22C747.32,-171.38 779.16,-138.77 814,-123 864.09,-100.33 1026.09,-85.82 1097.11,-80.4"/>
<polygon fill="midnightblue" stroke="midnightblue" points="1097.59,-83.88 1107.3,-79.64 1097.07,-76.89 1097.59,-83.88"/>
</g>
<!-- Node24&#45;&gt;Node10 -->
<g id="edge38" class="edge">
<title>Node24&#45;&gt;Node10</title>
<path fill="none" stroke="midnightblue" d="M653.26,-201.71C581.05,-197.11 471.86,-185.08 446,-154 437.19,-143.41 439.48,-135.14 446,-123 453.62,-108.82 467.9,-98.35 481.41,-91.1"/>
<polygon fill="midnightblue" stroke="midnightblue" points="483.13,-94.16 490.55,-86.59 480.03,-87.88 483.13,-94.16"/>
</g>
<!-- Node25&#45;&gt;Node10 -->
<g id="edge42" class="edge">
<title>Node25&#45;&gt;Node10</title>
<path fill="none" stroke="midnightblue" d="M1058.75,-129.55C1043.79,-127.24 1027.24,-124.85 1012,-123 864.89,-105.14 692.53,-91.09 594.01,-83.71"/>
<polygon fill="midnightblue" stroke="midnightblue" points="594.07,-80.2 583.83,-82.95 593.55,-87.19 594.07,-80.2"/>
</g>
<!-- Node26&#45;&gt;Node5 -->
<g id="edge50" class="edge">
<title>Node26&#45;&gt;Node5</title>
<path fill="none" stroke="midnightblue" d="M870.41,-195.99C855.32,-186.79 831.54,-171.11 814,-154 795.44,-135.9 778.19,-111.38 767.63,-95.15"/>
<polygon fill="midnightblue" stroke="midnightblue" points="770.55,-93.22 762.23,-86.66 764.64,-96.97 770.55,-93.22"/>
</g>
<!-- Node26&#45;&gt;Node6 -->
<g id="edge52" class="edge">
<title>Node26&#45;&gt;Node6</title>
<path fill="none" stroke="midnightblue" d="M913.39,-195.99C939.91,-187.41 980.09,-172.76 1012,-154 1030.79,-142.96 1031.96,-135.23 1050,-123 1067.48,-111.15 1088.32,-99.63 1104.49,-91.21"/>
<polygon fill="midnightblue" stroke="midnightblue" points="1106.11,-94.31 1113.41,-86.63 1102.91,-88.08 1106.11,-94.31"/>
</g>
<!-- Node26&#45;&gt;Node14 -->
<g id="edge51" class="edge">
<title>Node26&#45;&gt;Node14</title>
<path fill="none" stroke="midnightblue" d="M833.55,-195.98C820.65,-193.94 806.83,-191.82 794,-190 665.41,-171.78 628.32,-191.58 504,-154 502.33,-153.5 500.65,-152.9 498.97,-152.25"/>
<polygon fill="midnightblue" stroke="midnightblue" points="500.2,-148.97 489.65,-148.03 497.32,-155.34 500.2,-148.97"/>
</g>
<!-- Node26&#45;&gt;Node25 -->
<g id="edge46" class="edge">
<title>Node26&#45;&gt;Node25</title>
<path fill="none" stroke="midnightblue" d="M914.48,-195.87C953.98,-184.3 1024.18,-163.75 1068.02,-150.91"/>
<polygon fill="midnightblue" stroke="midnightblue" points="1069.14,-154.23 1077.75,-148.06 1067.17,-147.51 1069.14,-154.23"/>
</g>
<!-- Node27 -->
<g id="node27" class="node">
<title>Node27</title>
<g id="a_node27"><a xlink:title=" ">
<polygon fill="none" stroke="#bfbfbf" points="823,-129 823,-148 947,-148 947,-129 823,-129"/>
<text text-anchor="middle" x="885" y="-136" font-family="Helvetica,sans-Serif" font-size="10.00">gemmi/symmetry.hpp</text>
</a>
</g>
</g>
<!-- Node26&#45;&gt;Node27 -->
<g id="edge44" class="edge">
<title>Node26&#45;&gt;Node27</title>
<path fill="none" stroke="midnightblue" d="M885,-195.73C885,-186.18 885,-170.62 885,-158.28"/>
<polygon fill="midnightblue" stroke="midnightblue" points="888.5,-158.13 885,-148.13 881.5,-158.13 888.5,-158.13"/>
</g>
<!-- Node28 -->
<g id="node28" class="node">
<title>Node28</title>
<g id="a_node28"><a xlink:title=" ">
<polygon fill="none" stroke="#bfbfbf" points="965,-129 965,-148 1003,-148 1003,-129 965,-129"/>
<text text-anchor="middle" x="984" y="-136" font-family="Helvetica,sans-Serif" font-size="10.00">map</text>
</a>
</g>
</g>
<!-- Node26&#45;&gt;Node28 -->
<g id="edge45" class="edge">
<title>Node26&#45;&gt;Node28</title>
<path fill="none" stroke="midnightblue" d="M898.35,-195.73C914.75,-184.96 942.8,-166.55 962.31,-153.74"/>
<polygon fill="midnightblue" stroke="midnightblue" points="964.42,-156.54 970.86,-148.13 960.58,-150.69 964.42,-156.54"/>
</g>
<!-- Node29 -->
<g id="node29" class="node">
<title>Node29</title>
<g id="a_node29"><a xlink:href="symmetryoperation_8h.html" target="_top" xlink:title=" ">
<polygon fill="none" stroke="black" points="513,-129 513,-148 691,-148 691,-129 513,-129"/>
<text text-anchor="middle" x="602" y="-136" font-family="Helvetica,sans-Serif" font-size="10.00">occ/crystal/symmetryoperation.h</text>
</a>
</g>
</g>
<!-- Node26&#45;&gt;Node29 -->
<g id="edge47" class="edge">
<title>Node26&#45;&gt;Node29</title>
<path fill="none" stroke="midnightblue" d="M847.71,-195.94C796.7,-184.22 705.15,-163.19 649.36,-150.38"/>
<polygon fill="midnightblue" stroke="midnightblue" points="649.9,-146.91 639.37,-148.08 648.33,-153.73 649.9,-146.91"/>
</g>
<!-- Node29&#45;&gt;Node5 -->
<g id="edge49" class="edge">
<title>Node29&#45;&gt;Node5</title>
<path fill="none" stroke="midnightblue" d="M624.21,-128.98C650.68,-118.81 695.11,-101.76 725.22,-90.2"/>
<polygon fill="midnightblue" stroke="midnightblue" points="726.75,-93.36 734.83,-86.51 724.24,-86.83 726.75,-93.36"/>
</g>
<!-- Node29&#45;&gt;Node10 -->
<g id="edge48" class="edge">
<title>Node29&#45;&gt;Node10</title>
<path fill="none" stroke="midnightblue" d="M589.39,-128.98C575.28,-119.43 552.17,-103.81 535.25,-92.37"/>
<polygon fill="midnightblue" stroke="midnightblue" points="536.83,-89.21 526.58,-86.51 532.91,-95.01 536.83,-89.21"/>
</g>
<!-- Node30&#45;&gt;Node5 -->
<g id="edge68" class="edge">
<title>Node30&#45;&gt;Node5</title>
<path fill="none" stroke="midnightblue" d="M1204.61,-195.97C1209.1,-179.41 1216.05,-142.84 1197,-123 1168.84,-93.67 886.07,-82.07 789.29,-78.94"/>
<polygon fill="midnightblue" stroke="midnightblue" points="789.32,-75.44 779.21,-78.62 789.1,-82.43 789.32,-75.44"/>
</g>
<!-- Node30&#45;&gt;Node10 -->
<g id="edge54" class="edge">
<title>Node30&#45;&gt;Node10</title>
<path fill="none" stroke="midnightblue" d="M1200.83,-195.76C1198.01,-178.5 1189.09,-140.23 1164,-123 1140.84,-107.09 762.08,-88.77 593.66,-81.36"/>
<polygon fill="midnightblue" stroke="midnightblue" points="593.75,-77.87 583.6,-80.92 593.44,-84.86 593.75,-77.87"/>
</g>
<!-- Node30&#45;&gt;Node25 -->
<g id="edge67" class="edge">
<title>Node30&#45;&gt;Node25</title>
<path fill="none" stroke="midnightblue" d="M1189.19,-195.73C1173.52,-185.01 1146.78,-166.72 1128.07,-153.91"/>
<polygon fill="midnightblue" stroke="midnightblue" points="1129.84,-150.89 1119.61,-148.13 1125.89,-156.66 1129.84,-150.89"/>
</g>
<!-- Node31 -->
<g id="node31" class="node">
<title>Node31</title>
<g id="a_node31"><a xlink:href="units_8h.html" target="_top" xlink:title=" ">
<polygon fill="none" stroke="black" points="1249.5,-129 1249.5,-148 1342.5,-148 1342.5,-129 1249.5,-129"/>
<text text-anchor="middle" x="1296" y="-136" font-family="Helvetica,sans-Serif" font-size="10.00">occ/core/units.h</text>
</a>
</g>
</g>
<!-- Node30&#45;&gt;Node31 -->
<g id="edge55" class="edge">
<title>Node30&#45;&gt;Node31</title>
<path fill="none" stroke="midnightblue" d="M1214.68,-195.73C1230.18,-185.01 1256.64,-166.72 1275.16,-153.91"/>
<polygon fill="midnightblue" stroke="midnightblue" points="1277.29,-156.69 1283.52,-148.13 1273.31,-150.94 1277.29,-156.69"/>
</g>
<!-- Node33 -->
<g id="node33" class="node">
<title>Node33</title>
<g id="a_node33"><a xlink:href="util_8h.html" target="_top" xlink:title=" ">
<polygon fill="none" stroke="black" points="1811.5,-129 1811.5,-148 1896.5,-148 1896.5,-129 1811.5,-129"/>
<text text-anchor="middle" x="1854" y="-136" font-family="Helvetica,sans-Serif" font-size="10.00">occ/core/util.h</text>
</a>
</g>
</g>
<!-- Node30&#45;&gt;Node33 -->
<g id="edge57" class="edge">
<title>Node30&#45;&gt;Node33</title>
<path fill="none" stroke="midnightblue" d="M1260.58,-199.18C1357.46,-190.3 1557.16,-171.7 1726,-154 1750.8,-151.4 1778.28,-148.31 1801.4,-145.66"/>
<polygon fill="midnightblue" stroke="midnightblue" points="1801.82,-149.13 1811.35,-144.51 1801.02,-142.18 1801.82,-149.13"/>
</g>
<!-- Node32 -->
<g id="node32" class="node">
<title>Node32</title>
<g id="a_node32"><a xlink:title=" ">
<polygon fill="none" stroke="#bfbfbf" points="1272.5,-67.5 1272.5,-86.5 1319.5,-86.5 1319.5,-67.5 1272.5,-67.5"/>
<text text-anchor="middle" x="1296" y="-74.5" font-family="Helvetica,sans-Serif" font-size="10.00">cmath</text>
</a>
</g>
</g>
<!-- Node31&#45;&gt;Node32 -->
<g id="edge56" class="edge">
<title>Node31&#45;&gt;Node32</title>
<path fill="none" stroke="midnightblue" d="M1296,-128.98C1296,-120.58 1296,-107.48 1296,-96.66"/>
<polygon fill="midnightblue" stroke="midnightblue" points="1299.5,-96.51 1296,-86.51 1292.5,-96.51 1299.5,-96.51"/>
</g>
<!-- Node33&#45;&gt;Node5 -->
<g id="edge65" class="edge">
<title>Node33&#45;&gt;Node5</title>
<path fill="none" stroke="midnightblue" d="M1811.09,-129.96C1794.82,-127.36 1776.1,-124.68 1759,-123 1564.36,-103.83 939.83,-83.66 789.68,-79"/>
<polygon fill="midnightblue" stroke="midnightblue" points="789.42,-75.49 779.32,-78.68 789.21,-82.49 789.42,-75.49"/>
</g>
<!-- Node33&#45;&gt;Node6 -->
<g id="edge66" class="edge">
<title>Node33&#45;&gt;Node6</title>
<path fill="none" stroke="midnightblue" d="M1824.63,-128.94C1815.81,-126.67 1806.08,-124.45 1797,-123 1562.54,-85.58 1500.89,-103.01 1264,-87 1230.16,-84.71 1191.48,-82.09 1164.59,-80.27"/>
<polygon fill="midnightblue" stroke="midnightblue" points="1164.76,-76.78 1154.54,-79.59 1164.29,-83.76 1164.76,-76.78"/>
</g>
<!-- Node33&#45;&gt;Node10 -->
<g id="edge64" class="edge">
<title>Node33&#45;&gt;Node10</title>
<path fill="none" stroke="midnightblue" d="M1811.1,-129.87C1794.83,-127.26 1776.11,-124.6 1759,-123 1301.6,-80.27 1185.05,-104.74 726,-87 682.32,-85.31 633.58,-83.25 593.86,-81.53"/>
<polygon fill="midnightblue" stroke="midnightblue" points="593.84,-78.03 583.7,-81.09 593.54,-85.02 593.84,-78.03"/>
</g>
<!-- Node34 -->
<g id="node34" class="node">
<title>Node34</title>
<g id="a_node34"><a xlink:title=" ">
<polygon fill="none" stroke="#bfbfbf" points="1784,-67.5 1784,-86.5 1848,-86.5 1848,-67.5 1784,-67.5"/>
<text text-anchor="middle" x="1816" y="-74.5" font-family="Helvetica,sans-Serif" font-size="10.00">algorithm</text>
</a>
</g>
</g>
<!-- Node33&#45;&gt;Node34 -->
<g id="edge58" class="edge">
<title>Node33&#45;&gt;Node34</title>
<path fill="none" stroke="midnightblue" d="M1848.56,-128.98C1842.91,-120.14 1833.94,-106.09 1826.84,-94.98"/>
<polygon fill="midnightblue" stroke="midnightblue" points="1829.77,-93.05 1821.43,-86.51 1823.87,-96.82 1829.77,-93.05"/>
</g>
<!-- Node35 -->
<g id="node35" class="node">
<title>Node35</title>
<g id="a_node35"><a xlink:title=" ">
<polygon fill="none" stroke="#bfbfbf" points="1866.5,-67.5 1866.5,-86.5 1915.5,-86.5 1915.5,-67.5 1866.5,-67.5"/>
<text text-anchor="middle" x="1891" y="-74.5" font-family="Helvetica,sans-Serif" font-size="10.00">cctype</text>
</a>
</g>
</g>
<!-- Node33&#45;&gt;Node35 -->
<g id="edge59" class="edge">
<title>Node33&#45;&gt;Node35</title>
<path fill="none" stroke="midnightblue" d="M1859.3,-128.98C1864.74,-120.23 1873.36,-106.37 1880.24,-95.31"/>
<polygon fill="midnightblue" stroke="midnightblue" points="1883.4,-96.85 1885.71,-86.51 1877.46,-93.15 1883.4,-96.85"/>
</g>
<!-- Node36 -->
<g id="node36" class="node">
<title>Node36</title>
<g id="a_node36"><a xlink:title=" ">
<polygon fill="none" stroke="#bfbfbf" points="1933.5,-67.5 1933.5,-86.5 2000.5,-86.5 2000.5,-67.5 1933.5,-67.5"/>
<text text-anchor="middle" x="1967" y="-74.5" font-family="Helvetica,sans-Serif" font-size="10.00">fmt/core.h</text>
</a>
</g>
</g>
<!-- Node33&#45;&gt;Node36 -->
<g id="edge60" class="edge">
<title>Node33&#45;&gt;Node36</title>
<path fill="none" stroke="midnightblue" d="M1870.19,-128.98C1888.9,-119.12 1919.92,-102.79 1941.8,-91.27"/>
<polygon fill="midnightblue" stroke="midnightblue" points="1943.62,-94.27 1950.84,-86.51 1940.36,-88.07 1943.62,-94.27"/>
</g>
<!-- Node37 -->
<g id="node37" class="node">
<title>Node37</title>
<g id="a_node37"><a xlink:title=" ">
<polygon fill="none" stroke="#bfbfbf" points="2019,-67.5 2019,-86.5 2105,-86.5 2105,-67.5 2019,-67.5"/>
<text text-anchor="middle" x="2062" y="-74.5" font-family="Helvetica,sans-Serif" font-size="10.00">fmt/ostream.h</text>
</a>
</g>
</g>
<!-- Node33&#45;&gt;Node37 -->
<g id="edge61" class="edge">
<title>Node33&#45;&gt;Node37</title>
<path fill="none" stroke="midnightblue" d="M1883.8,-128.98C1920.25,-118.55 1982.08,-100.86 2022.47,-89.31"/>
<polygon fill="midnightblue" stroke="midnightblue" points="2023.6,-92.62 2032.25,-86.51 2021.68,-85.89 2023.6,-92.62"/>
</g>
<!-- Node38 -->
<g id="node38" class="node">
<title>Node38</title>
<g id="a_node38"><a xlink:title=" ">
<polygon fill="none" stroke="#bfbfbf" points="1646,-67.5 1646,-86.5 1692,-86.5 1692,-67.5 1646,-67.5"/>
<text text-anchor="middle" x="1669" y="-74.5" font-family="Helvetica,sans-Serif" font-size="10.00">locale</text>
</a>
</g>
</g>
<!-- Node33&#45;&gt;Node38 -->
<g id="edge62" class="edge">
<title>Node33&#45;&gt;Node38</title>
<path fill="none" stroke="midnightblue" d="M1827.49,-128.98C1794.48,-118.36 1738.08,-100.22 1702.22,-88.68"/>
<polygon fill="midnightblue" stroke="midnightblue" points="1702.83,-85.2 1692.24,-85.47 1700.69,-91.87 1702.83,-85.2"/>
</g>
<!-- Node39 -->
<g id="node39" class="node">
<title>Node39</title>
<g id="a_node39"><a xlink:title=" ">
<polygon fill="none" stroke="#bfbfbf" points="1710,-67.5 1710,-86.5 1766,-86.5 1766,-67.5 1710,-67.5"/>
<text text-anchor="middle" x="1738" y="-74.5" font-family="Helvetica,sans-Serif" font-size="10.00">numeric</text>
</a>
</g>
</g>
<!-- Node33&#45;&gt;Node39 -->
<g id="edge63" class="edge">
<title>Node33&#45;&gt;Node39</title>
<path fill="none" stroke="midnightblue" d="M1837.38,-128.98C1818.08,-119.08 1786.04,-102.64 1763.57,-91.12"/>
<polygon fill="midnightblue" stroke="midnightblue" points="1765.08,-87.96 1754.59,-86.51 1761.89,-94.19 1765.08,-87.96"/>
</g>
<!-- Node41&#45;&gt;Node10 -->
<g id="edge72" class="edge">
<title>Node41&#45;&gt;Node10</title>
<path fill="none" stroke="midnightblue" d="M1858.34,-195.96C1835.64,-178.36 1780.15,-138.39 1726,-123 1619.06,-92.59 837.1,-91.36 726,-87 682.32,-85.29 633.58,-83.23 593.86,-81.51"/>
<polygon fill="midnightblue" stroke="midnightblue" points="593.84,-78.01 583.7,-81.07 593.54,-85 593.84,-78.01"/>
</g>
<!-- Node41&#45;&gt;Node33 -->
<g id="edge73" class="edge">
<title>Node41&#45;&gt;Node33</title>
<path fill="none" stroke="midnightblue" d="M1866.98,-195.73C1864.75,-186.09 1861.11,-170.3 1858.25,-157.91"/>
<polygon fill="midnightblue" stroke="midnightblue" points="1861.65,-157.08 1855.99,-148.13 1854.83,-158.66 1861.65,-157.08"/>
</g>
<!-- Node42 -->
<g id="node42" class="node">
<title>Node42</title>
<g id="a_node42"><a xlink:href="qm_2opmatrix_8h.html" target="_top" xlink:title=" ">
<polygon fill="none" stroke="black" points="1915,-129 1915,-148 2023,-148 2023,-129 1915,-129"/>
<text text-anchor="middle" x="1969" y="-136" font-family="Helvetica,sans-Serif" font-size="10.00">occ/qm/opmatrix.h</text>
</a>
</g>
</g>
<!-- Node41&#45;&gt;Node42 -->
<g id="edge74" class="edge">
<title>Node41&#45;&gt;Node42</title>
<path fill="none" stroke="midnightblue" d="M1877.7,-195.73C1892.19,-184.82 1920.79,-166.05 1942.26,-153.22"/>
<polygon fill="midnightblue" stroke="midnightblue" points="1944.1,-156.2 1950.97,-148.13 1940.57,-150.16 1944.1,-156.2"/>
</g>
<!-- Node42&#45;&gt;Node41 -->
<g id="edge75" class="edge">
<title>Node42&#45;&gt;Node41</title>
<path fill="none" stroke="midnightblue" d="M1960.49,-148.13C1946.11,-158.98 1917.54,-177.74 1896.01,-190.62"/>
<polygon fill="midnightblue" stroke="midnightblue" points="1894.13,-187.66 1887.27,-195.73 1897.67,-193.7 1894.13,-187.66"/>
</g>
</g>
</svg>
