<?xml version="1.0" encoding="UTF-8" standalone="no"?>
<!DOCTYPE svg PUBLIC "-//W3C//DTD SVG 1.1//EN"
 "http://www.w3.org/Graphics/SVG/1.1/DTD/svg11.dtd">
<!-- Generated by graphviz version 2.43.0 (0)
 -->
<!-- Title: /home/runner/work/occ/occ/include/occ/qm/opmatrix.h Pages: 1 -->
<svg width="2117pt" height="485pt"
 viewBox="0.00 0.00 2116.65 485.00" xmlns="http://www.w3.org/2000/svg" xmlns:xlink="http://www.w3.org/1999/xlink">
<g id="graph0" class="graph" transform="scale(1 1) rotate(0) translate(4 481)">
<title>/home/runner/work/occ/occ/include/occ/qm/opmatrix.h</title>
<!-- Node1 -->
<g id="node1" class="node">
<title>Node1</title>
<g id="a_node1"><a xlink:title=" ">
<polygon fill="#bfbfbf" stroke="black" points="876.5,-446.5 876.5,-476.5 1045.5,-476.5 1045.5,-446.5 876.5,-446.5"/>
<text text-anchor="start" x="884.5" y="-464.5" font-family="Helvetica,sans-Serif" font-size="10.00">/home/runner/work/occ</text>
<text text-anchor="middle" x="961" y="-453.5" font-family="Helvetica,sans-Serif" font-size="10.00">/occ/include/occ/qm/opmatrix.h</text>
</a>
</g>
</g>
<!-- Node2 -->
<g id="node2" class="node">
<title>Node2</title>
<g id="a_node2"><a xlink:href="scf_8h.html" target="_top" xlink:title=" ">
<polygon fill="none" stroke="black" points="606,-151 606,-181 744,-181 744,-151 606,-151"/>
<text text-anchor="start" x="614" y="-169" font-family="Helvetica,sans-Serif" font-size="10.00">/home/runner/work/occ</text>
<text text-anchor="middle" x="675" y="-158" font-family="Helvetica,sans-Serif" font-size="10.00">/occ/include/occ/qm/scf.h</text>
</a>
</g>
</g>
<!-- Node1&#45;&gt;Node2 -->
<g id="edge1" class="edge">
<title>Node1&#45;&gt;Node2</title>
<path fill="none" stroke="midnightblue" d="M866.08,-459.33C691.19,-454.94 328.8,-434.73 251,-343 239.29,-329.19 234.38,-243.14 253,-223 305.17,-166.56 521.35,-200.58 597,-187 606.08,-185.37 615.66,-183.25 624.89,-181"/>
<polygon fill="midnightblue" stroke="midnightblue" points="866.23,-462.83 876.31,-459.57 866.39,-455.84 866.23,-462.83"/>
</g>
<!-- Node3 -->
<g id="node3" class="node">
<title>Node3</title>
<g id="a_node3"><a xlink:href="spinorbital_8h.html" target="_top" xlink:title=" ">
<polygon fill="none" stroke="black" points="873,-379.5 873,-409.5 1049,-409.5 1049,-379.5 873,-379.5"/>
<text text-anchor="start" x="881" y="-397.5" font-family="Helvetica,sans-Serif" font-size="10.00">/home/runner/work/occ</text>
<text text-anchor="middle" x="961" y="-386.5" font-family="Helvetica,sans-Serif" font-size="10.00">/occ/include/occ/qm/spinorbital.h</text>
</a>
</g>
</g>
<!-- Node1&#45;&gt;Node3 -->
<g id="edge2" class="edge">
<title>Node1&#45;&gt;Node3</title>
<path fill="none" stroke="midnightblue" d="M954.45,-436.4C954.01,-427.37 954.3,-417.41 955.33,-409.58"/>
<polygon fill="midnightblue" stroke="midnightblue" points="950.97,-436.74 955.32,-446.4 957.94,-436.13 950.97,-436.74"/>
</g>
<!-- Node3&#45;&gt;Node1 -->
<g id="edge51" class="edge">
<title>Node3&#45;&gt;Node1</title>
<path fill="none" stroke="midnightblue" d="M967.54,-419.57C967.99,-428.6 967.71,-438.56 966.68,-446.4"/>
<polygon fill="midnightblue" stroke="midnightblue" points="971.03,-419.24 966.67,-409.58 964.05,-419.84 971.03,-419.24"/>
</g>
<!-- Node3&#45;&gt;Node2 -->
<g id="edge54" class="edge">
<title>Node3&#45;&gt;Node2</title>
<path fill="none" stroke="midnightblue" d="M862.72,-389.43C789.09,-384.07 697.09,-371.68 673,-343 633.5,-295.97 657.26,-214.29 669.29,-181.37"/>
<polygon fill="midnightblue" stroke="midnightblue" points="862.76,-392.94 872.97,-390.14 863.24,-385.96 862.76,-392.94"/>
</g>
<!-- Node4 -->
<g id="node4" class="node">
<title>Node4</title>
<g id="a_node4"><a xlink:href="dft_8h.html" target="_top" xlink:title=" ">
<polygon fill="none" stroke="black" points="203,-0.5 203,-30.5 337,-30.5 337,-0.5 203,-0.5"/>
<text text-anchor="start" x="211" y="-18.5" font-family="Helvetica,sans-Serif" font-size="10.00">/home/runner/work/occ</text>
<text text-anchor="middle" x="270" y="-7.5" font-family="Helvetica,sans-Serif" font-size="10.00">/occ/include/occ/dft/dft.h</text>
</a>
</g>
</g>
<!-- Node3&#45;&gt;Node4 -->
<g id="edge3" class="edge">
<title>Node3&#45;&gt;Node4</title>
<path fill="none" stroke="midnightblue" d="M1059.52,-392.36C1326.67,-388.83 2047.46,-376.27 2086,-343 2119.59,-314.01 2105,-289.37 2105,-245 2105,-245 2105,-245 2105,-165 2105,51.43 1842.87,-92.89 1628,-67 1373.86,-36.38 574.81,-21.39 337.25,-17.53"/>
<polygon fill="midnightblue" stroke="midnightblue" points="1059.4,-388.86 1049.44,-392.49 1059.49,-395.86 1059.4,-388.86"/>
</g>
<!-- Node5 -->
<g id="node5" class="node">
<title>Node5</title>
<g id="a_node5"><a xlink:href="functional_8h.html" target="_top" xlink:title=" ">
<polygon fill="none" stroke="black" points="0,-301.5 0,-342.5 128,-342.5 128,-301.5 0,-301.5"/>
<text text-anchor="start" x="8" y="-330.5" font-family="Helvetica,sans-Serif" font-size="10.00">/home/runner/work/occ</text>
<text text-anchor="start" x="8" y="-319.5" font-family="Helvetica,sans-Serif" font-size="10.00">/occ/include/occ/dft</text>
<text text-anchor="middle" x="64" y="-308.5" font-family="Helvetica,sans-Serif" font-size="10.00">/functional.h</text>
</a>
</g>
</g>
<!-- Node3&#45;&gt;Node5 -->
<g id="edge4" class="edge">
<title>Node3&#45;&gt;Node5</title>
<path fill="none" stroke="midnightblue" d="M862.43,-393.43C707.94,-391.96 399.75,-383.62 142,-343 137.44,-342.28 132.76,-341.42 128.07,-340.45"/>
<polygon fill="midnightblue" stroke="midnightblue" points="862.81,-396.93 872.84,-393.52 862.87,-389.93 862.81,-396.93"/>
</g>
<!-- Node6 -->
<g id="node6" class="node">
<title>Node6</title>
<g id="a_node6"><a xlink:href="xc__potential__matrix_8h.html" target="_top" xlink:title=" ">
<polygon fill="none" stroke="black" points="40,-223.5 40,-264.5 168,-264.5 168,-223.5 40,-223.5"/>
<text text-anchor="start" x="48" y="-252.5" font-family="Helvetica,sans-Serif" font-size="10.00">/home/runner/work/occ</text>
<text text-anchor="start" x="48" y="-241.5" font-family="Helvetica,sans-Serif" font-size="10.00">/occ/include/occ/dft</text>
<text text-anchor="middle" x="104" y="-230.5" font-family="Helvetica,sans-Serif" font-size="10.00">/xc_potential_matrix.h</text>
</a>
</g>
</g>
<!-- Node3&#45;&gt;Node6 -->
<g id="edge8" class="edge">
<title>Node3&#45;&gt;Node6</title>
<path fill="none" stroke="midnightblue" d="M862.57,-394.45C688.04,-394.87 332,-389.72 218,-343 176.7,-326.07 139.71,-288.03 119.7,-264.64"/>
<polygon fill="midnightblue" stroke="midnightblue" points="862.79,-397.94 872.78,-394.41 862.77,-390.94 862.79,-397.94"/>
</g>
<!-- Node7 -->
<g id="node7" class="node">
<title>Node7</title>
<g id="a_node7"><a xlink:href="density_8h.html" target="_top" xlink:title=" ">
<polygon fill="none" stroke="black" points="132,-67.5 132,-108.5 260,-108.5 260,-67.5 132,-67.5"/>
<text text-anchor="start" x="140" y="-96.5" font-family="Helvetica,sans-Serif" font-size="10.00">/home/runner/work/occ</text>
<text text-anchor="start" x="140" y="-85.5" font-family="Helvetica,sans-Serif" font-size="10.00">/occ/include/occ/gto</text>
<text text-anchor="middle" x="196" y="-74.5" font-family="Helvetica,sans-Serif" font-size="10.00">/density.h</text>
</a>
</g>
</g>
<!-- Node3&#45;&gt;Node7 -->
<g id="edge9" class="edge">
<title>Node3&#45;&gt;Node7</title>
<path fill="none" stroke="midnightblue" d="M862.69,-392.94C678.57,-390.97 296.16,-382.15 251,-343 181.46,-282.7 187.82,-157.21 193.28,-108.72"/>
<polygon fill="midnightblue" stroke="midnightblue" points="862.88,-396.44 872.92,-393.05 862.95,-389.44 862.88,-396.44"/>
</g>
<!-- Node8 -->
<g id="node8" class="node">
<title>Node8</title>
<g id="a_node8"><a xlink:href="pairinteraction_8h.html" target="_top" xlink:title=" ">
<polygon fill="none" stroke="black" points="1462.5,-145.5 1462.5,-186.5 1611.5,-186.5 1611.5,-145.5 1462.5,-145.5"/>
<text text-anchor="start" x="1470.5" y="-174.5" font-family="Helvetica,sans-Serif" font-size="10.00">/home/runner/work/occ</text>
<text text-anchor="start" x="1470.5" y="-163.5" font-family="Helvetica,sans-Serif" font-size="10.00">/occ/include/occ/interaction</text>
<text text-anchor="middle" x="1537" y="-152.5" font-family="Helvetica,sans-Serif" font-size="10.00">/pairinteraction.h</text>
</a>
</g>
</g>
<!-- Node3&#45;&gt;Node8 -->
<g id="edge11" class="edge">
<title>Node3&#45;&gt;Node8</title>
<path fill="none" stroke="midnightblue" d="M1059.55,-390.33C1205.97,-384.72 1467.3,-370.91 1500,-343 1545.83,-303.87 1543.59,-223.71 1539.71,-186.62"/>
<polygon fill="midnightblue" stroke="midnightblue" points="1059.07,-386.85 1049.21,-390.72 1059.34,-393.84 1059.07,-386.85"/>
</g>
<!-- Node10 -->
<g id="node10" class="node">
<title>Node10</title>
<g id="a_node10"><a xlink:href="fchkreader_8h.html" target="_top" xlink:title=" ">
<polygon fill="none" stroke="black" points="1303,-307 1303,-337 1473,-337 1473,-307 1303,-307"/>
<text text-anchor="start" x="1311" y="-325" font-family="Helvetica,sans-Serif" font-size="10.00">/home/runner/work/occ</text>
<text text-anchor="middle" x="1388" y="-314" font-family="Helvetica,sans-Serif" font-size="10.00">/occ/include/occ/io/fchkreader.h</text>
</a>
</g>
</g>
<!-- Node3&#45;&gt;Node10 -->
<g id="edge14" class="edge">
<title>Node3&#45;&gt;Node10</title>
<path fill="none" stroke="midnightblue" d="M1059.51,-379.56C1124.75,-370.02 1212.14,-356.67 1289,-343 1299.27,-341.17 1310.12,-339.11 1320.71,-337.03"/>
<polygon fill="midnightblue" stroke="midnightblue" points="1058.63,-376.15 1049.24,-381.05 1059.64,-383.07 1058.63,-376.15"/>
</g>
<!-- Node11 -->
<g id="node11" class="node">
<title>Node11</title>
<g id="a_node11"><a xlink:href="wavefunction_8h.html" target="_top" xlink:title=" ">
<polygon fill="none" stroke="black" points="1059.5,-229 1059.5,-259 1250.5,-259 1250.5,-229 1059.5,-229"/>
<text text-anchor="start" x="1067.5" y="-247" font-family="Helvetica,sans-Serif" font-size="10.00">/home/runner/work/occ</text>
<text text-anchor="middle" x="1155" y="-236" font-family="Helvetica,sans-Serif" font-size="10.00">/occ/include/occ/qm/wavefunction.h</text>
</a>
</g>
</g>
<!-- Node3&#45;&gt;Node11 -->
<g id="edge57" class="edge">
<title>Node3&#45;&gt;Node11</title>
<path fill="none" stroke="midnightblue" d="M1059.32,-389.99C1135.41,-384.97 1231.9,-372.74 1257,-343 1269.04,-328.73 1266.51,-317.06 1257,-301 1245.17,-281.01 1223.38,-267.68 1202.98,-259.06"/>
<polygon fill="midnightblue" stroke="midnightblue" points="1058.97,-386.51 1049.21,-390.63 1059.41,-393.5 1058.97,-386.51"/>
</g>
<!-- Node15 -->
<g id="node15" class="node">
<title>Node15</title>
<g id="a_node15"><a xlink:href="fchkwriter_8h.html" target="_top" xlink:title=" ">
<polygon fill="none" stroke="black" points="877.5,-307 877.5,-337 1044.5,-337 1044.5,-307 877.5,-307"/>
<text text-anchor="start" x="885.5" y="-325" font-family="Helvetica,sans-Serif" font-size="10.00">/home/runner/work/occ</text>
<text text-anchor="middle" x="961" y="-314" font-family="Helvetica,sans-Serif" font-size="10.00">/occ/include/occ/io/fchkwriter.h</text>
</a>
</g>
</g>
<!-- Node3&#45;&gt;Node15 -->
<g id="edge22" class="edge">
<title>Node3&#45;&gt;Node15</title>
<path fill="none" stroke="midnightblue" d="M961,-369.23C961,-358.57 961,-346.41 961,-337.25"/>
<polygon fill="midnightblue" stroke="midnightblue" points="957.5,-369.23 961,-379.23 964.5,-369.23 957.5,-369.23"/>
</g>
<!-- Node16 -->
<g id="node16" class="node">
<title>Node16</title>
<g id="a_node16"><a xlink:href="gaussian__input__file_8h.html" target="_top" xlink:title=" ">
<polygon fill="none" stroke="black" points="1567,-301.5 1567,-342.5 1719,-342.5 1719,-301.5 1567,-301.5"/>
<text text-anchor="start" x="1575" y="-330.5" font-family="Helvetica,sans-Serif" font-size="10.00">/home/runner/work/occ</text>
<text text-anchor="start" x="1575" y="-319.5" font-family="Helvetica,sans-Serif" font-size="10.00">/occ/include/occ/io/gaussian</text>
<text text-anchor="middle" x="1643" y="-308.5" font-family="Helvetica,sans-Serif" font-size="10.00">_input_file.h</text>
</a>
</g>
</g>
<!-- Node3&#45;&gt;Node16 -->
<g id="edge24" class="edge">
<title>Node3&#45;&gt;Node16</title>
<path fill="none" stroke="midnightblue" d="M1059.28,-389.14C1177.12,-382.99 1380.36,-369.42 1553,-343 1557.43,-342.32 1561.97,-341.55 1566.54,-340.72"/>
<polygon fill="midnightblue" stroke="midnightblue" points="1059,-385.65 1049.2,-389.66 1059.36,-392.64 1059,-385.65"/>
</g>
<!-- Node17 -->
<g id="node17" class="node">
<title>Node17</title>
<g id="a_node17"><a xlink:href="moldenreader_8h.html" target="_top" xlink:title=" ">
<polygon fill="none" stroke="black" points="1062.5,-307 1062.5,-337 1247.5,-337 1247.5,-307 1062.5,-307"/>
<text text-anchor="start" x="1070.5" y="-325" font-family="Helvetica,sans-Serif" font-size="10.00">/home/runner/work/occ</text>
<text text-anchor="middle" x="1155" y="-314" font-family="Helvetica,sans-Serif" font-size="10.00">/occ/include/occ/io/moldenreader.h</text>
</a>
</g>
</g>
<!-- Node3&#45;&gt;Node17 -->
<g id="edge25" class="edge">
<title>Node3&#45;&gt;Node17</title>
<path fill="none" stroke="midnightblue" d="M1009.25,-375.96C1042.28,-363.96 1085.5,-348.26 1116.27,-337.07"/>
<polygon fill="midnightblue" stroke="midnightblue" points="1008,-372.7 999.79,-379.4 1010.39,-379.28 1008,-372.7"/>
</g>
<!-- Node18 -->
<g id="node18" class="node">
<title>Node18</title>
<g id="a_node18"><a xlink:href="occ__input_8h.html" target="_top" xlink:title=" ">
<polygon fill="none" stroke="black" points="1383,-223.5 1383,-264.5 1511,-264.5 1511,-223.5 1383,-223.5"/>
<text text-anchor="start" x="1391" y="-252.5" font-family="Helvetica,sans-Serif" font-size="10.00">/home/runner/work/occ</text>
<text text-anchor="start" x="1391" y="-241.5" font-family="Helvetica,sans-Serif" font-size="10.00">/occ/include/occ/io/occ</text>
<text text-anchor="middle" x="1447" y="-230.5" font-family="Helvetica,sans-Serif" font-size="10.00">_input.h</text>
</a>
</g>
</g>
<!-- Node3&#45;&gt;Node18 -->
<g id="edge27" class="edge">
<title>Node3&#45;&gt;Node18</title>
<path fill="none" stroke="midnightblue" d="M1059.16,-390.97C1202.25,-386.24 1454.19,-373.64 1482,-343 1502.16,-320.79 1481.46,-286.18 1464.41,-264.59"/>
<polygon fill="midnightblue" stroke="midnightblue" points="1058.93,-387.47 1049.05,-391.29 1059.16,-394.47 1058.93,-387.47"/>
</g>
<!-- Node20 -->
<g id="node20" class="node">
<title>Node20</title>
<g id="a_node20"><a xlink:href="expectation_8h.html" target="_top" xlink:title=" ">
<polygon fill="none" stroke="black" points="444,-307 444,-337 626,-337 626,-307 444,-307"/>
<text text-anchor="start" x="452" y="-325" font-family="Helvetica,sans-Serif" font-size="10.00">/home/runner/work/occ</text>
<text text-anchor="middle" x="535" y="-314" font-family="Helvetica,sans-Serif" font-size="10.00">/occ/include/occ/qm/expectation.h</text>
</a>
</g>
</g>
<!-- Node3&#45;&gt;Node20 -->
<g id="edge32" class="edge">
<title>Node3&#45;&gt;Node20</title>
<path fill="none" stroke="midnightblue" d="M862.97,-378.91C799.33,-369.24 714.65,-355.98 640,-343 629.3,-341.14 618.01,-339.09 606.96,-337.02"/>
<polygon fill="midnightblue" stroke="midnightblue" points="862.58,-382.4 873,-380.44 863.63,-375.48 862.58,-382.4"/>
</g>
<!-- Node23 -->
<g id="node23" class="node">
<title>Node23</title>
<g id="a_node23"><a xlink:href="hf_8h.html" target="_top" xlink:title=" ">
<polygon fill="none" stroke="black" points="278,-73 278,-103 412,-103 412,-73 278,-73"/>
<text text-anchor="start" x="286" y="-91" font-family="Helvetica,sans-Serif" font-size="10.00">/home/runner/work/occ</text>
<text text-anchor="middle" x="345" y="-80" font-family="Helvetica,sans-Serif" font-size="10.00">/occ/include/occ/qm/hf.h</text>
</a>
</g>
</g>
<!-- Node3&#45;&gt;Node23 -->
<g id="edge41" class="edge">
<title>Node3&#45;&gt;Node23</title>
<path fill="none" stroke="midnightblue" d="M904.98,-374.78C890.77,-367.22 877.22,-356.89 869,-343 859.49,-326.94 859.37,-316.99 869,-301 886.64,-271.7 919.36,-294.3 937,-265 946.63,-249.01 946.99,-238.77 937,-223 893.6,-154.47 849.82,-167.88 772,-145 648.27,-108.61 497.41,-95.84 412.16,-91.37"/>
<polygon fill="midnightblue" stroke="midnightblue" points="903.83,-378.12 914.36,-379.36 906.91,-371.83 903.83,-378.12"/>
</g>
<!-- Node26 -->
<g id="node26" class="node">
<title>Node26</title>
<g id="a_node26"><a xlink:href="mo_8h.html" target="_top" xlink:title=" ">
<polygon fill="none" stroke="black" points="682,-307 682,-337 822,-337 822,-307 682,-307"/>
<text text-anchor="start" x="690" y="-325" font-family="Helvetica,sans-Serif" font-size="10.00">/home/runner/work/occ</text>
<text text-anchor="middle" x="752" y="-314" font-family="Helvetica,sans-Serif" font-size="10.00">/occ/include/occ/qm/mo.h</text>
</a>
</g>
</g>
<!-- Node3&#45;&gt;Node26 -->
<g id="edge42" class="edge">
<title>Node3&#45;&gt;Node26</title>
<path fill="none" stroke="midnightblue" d="M909.73,-376.2C874.09,-364.18 827.19,-348.36 793.82,-337.11"/>
<polygon fill="midnightblue" stroke="midnightblue" points="908.86,-379.61 919.46,-379.49 911.1,-372.97 908.86,-379.61"/>
</g>
<!-- Node28 -->
<g id="node28" class="node">
<title>Node28</title>
<g id="a_node28"><a xlink:href="orb_8h.html" target="_top" xlink:title=" ">
<polygon fill="none" stroke="black" points="1737,-307 1737,-337 1877,-337 1877,-307 1737,-307"/>
<text text-anchor="start" x="1745" y="-325" font-family="Helvetica,sans-Serif" font-size="10.00">/home/runner/work/occ</text>
<text text-anchor="middle" x="1807" y="-314" font-family="Helvetica,sans-Serif" font-size="10.00">/occ/include/occ/qm/orb.h</text>
</a>
</g>
</g>
<!-- Node3&#45;&gt;Node28 -->
<g id="edge52" class="edge">
<title>Node3&#45;&gt;Node28</title>
<path fill="none" stroke="midnightblue" d="M1059.6,-392.73C1206.23,-390.3 1490.03,-380.64 1728,-343 1737.5,-341.5 1747.53,-339.38 1757.14,-337.08"/>
<polygon fill="midnightblue" stroke="midnightblue" points="1059.23,-389.24 1049.29,-392.9 1059.34,-396.24 1059.23,-389.24"/>
</g>
<!-- Node29 -->
<g id="node29" class="node">
<title>Node29</title>
<g id="a_node29"><a xlink:href="partitioning_8h.html" target="_top" xlink:title=" ">
<polygon fill="none" stroke="black" points="1895.5,-307 1895.5,-337 2076.5,-337 2076.5,-307 1895.5,-307"/>
<text text-anchor="start" x="1903.5" y="-325" font-family="Helvetica,sans-Serif" font-size="10.00">/home/runner/work/occ</text>
<text text-anchor="middle" x="1986" y="-314" font-family="Helvetica,sans-Serif" font-size="10.00">/occ/include/occ/qm/partitioning.h</text>
</a>
</g>
</g>
<!-- Node3&#45;&gt;Node29 -->
<g id="edge53" class="edge">
<title>Node3&#45;&gt;Node29</title>
<path fill="none" stroke="midnightblue" d="M1059.2,-392.74C1228.59,-390.39 1586.37,-380.94 1886,-343 1898.03,-341.48 1910.78,-339.34 1923.01,-337.02"/>
<polygon fill="midnightblue" stroke="midnightblue" points="1059.01,-389.24 1049.06,-392.87 1059.1,-396.24 1059.01,-389.24"/>
</g>
<!-- Node30 -->
<g id="node30" class="node">
<title>Node30</title>
<g id="a_node30"><a xlink:href="shellblock__norm_8h.html" target="_top" xlink:title=" ">
<polygon fill="none" stroke="black" points="260.5,-301.5 260.5,-342.5 425.5,-342.5 425.5,-301.5 260.5,-301.5"/>
<text text-anchor="start" x="268.5" y="-330.5" font-family="Helvetica,sans-Serif" font-size="10.00">/home/runner/work/occ</text>
<text text-anchor="start" x="268.5" y="-319.5" font-family="Helvetica,sans-Serif" font-size="10.00">/occ/include/occ/qm/shellblock</text>
<text text-anchor="middle" x="343" y="-308.5" font-family="Helvetica,sans-Serif" font-size="10.00">_norm.h</text>
</a>
</g>
</g>
<!-- Node3&#45;&gt;Node30 -->
<g id="edge55" class="edge">
<title>Node3&#45;&gt;Node30</title>
<path fill="none" stroke="midnightblue" d="M862.61,-387.55C756.6,-380.32 583.18,-366.14 435,-343 431.93,-342.52 428.81,-342 425.67,-341.45"/>
<polygon fill="midnightblue" stroke="midnightblue" points="862.44,-391.04 872.65,-388.22 862.91,-384.06 862.44,-391.04"/>
</g>
<!-- Node5&#45;&gt;Node4 -->
<g id="edge5" class="edge">
<title>Node5&#45;&gt;Node4</title>
<path fill="none" stroke="midnightblue" d="M43.58,-292.99C38.44,-284.42 33.64,-274.7 31,-265 26.09,-246.99 27.19,-241.27 31,-223 46.44,-148.96 42.31,-117.07 99,-67 127.54,-41.8 168.13,-29.15 202.6,-22.82"/>
<polygon fill="midnightblue" stroke="midnightblue" points="40.64,-294.89 48.97,-301.44 46.54,-291.13 40.64,-294.89"/>
</g>
<!-- Node5&#45;&gt;Node6 -->
<g id="edge6" class="edge">
<title>Node5&#45;&gt;Node6</title>
<path fill="none" stroke="midnightblue" d="M79.02,-292.47C83.92,-283.14 89.26,-273.01 93.73,-264.51"/>
<polygon fill="midnightblue" stroke="midnightblue" points="75.86,-290.95 74.3,-301.43 82.06,-294.21 75.86,-290.95"/>
</g>
<!-- Node6&#45;&gt;Node4 -->
<g id="edge7" class="edge">
<title>Node6&#45;&gt;Node4</title>
<path fill="none" stroke="midnightblue" d="M98.34,-213.34C92.85,-175.18 89.61,-108.82 123,-67 142.36,-42.75 173.99,-30.09 202.96,-23.51"/>
<polygon fill="midnightblue" stroke="midnightblue" points="94.9,-213.99 99.92,-223.32 101.81,-212.89 94.9,-213.99"/>
</g>
<!-- Node7&#45;&gt;Node4 -->
<g id="edge10" class="edge">
<title>Node7&#45;&gt;Node4</title>
<path fill="none" stroke="midnightblue" d="M224.02,-60.31C234.5,-50.32 246.01,-39.35 254.89,-30.89"/>
<polygon fill="midnightblue" stroke="midnightblue" points="221.44,-57.93 216.61,-67.36 226.27,-63 221.44,-57.93"/>
</g>
<!-- Node9 -->
<g id="node9" class="node">
<title>Node9</title>
<g id="a_node9"><a xlink:href="pair__energy_8h.html" target="_top" xlink:title=" ">
<polygon fill="none" stroke="black" points="1473,-67.5 1473,-108.5 1601,-108.5 1601,-67.5 1473,-67.5"/>
<text text-anchor="start" x="1481" y="-96.5" font-family="Helvetica,sans-Serif" font-size="10.00">/home/runner/work/occ</text>
<text text-anchor="start" x="1481" y="-85.5" font-family="Helvetica,sans-Serif" font-size="10.00">/occ/include/occ/main</text>
<text text-anchor="middle" x="1537" y="-74.5" font-family="Helvetica,sans-Serif" font-size="10.00">/pair_energy.h</text>
</a>
</g>
</g>
<!-- Node8&#45;&gt;Node9 -->
<g id="edge12" class="edge">
<title>Node8&#45;&gt;Node9</title>
<path fill="none" stroke="midnightblue" d="M1537,-135.3C1537,-126.3 1537,-116.65 1537,-108.51"/>
<polygon fill="midnightblue" stroke="midnightblue" points="1533.5,-135.43 1537,-145.43 1540.5,-135.43 1533.5,-135.43"/>
</g>
<!-- Node9&#45;&gt;Node9 -->
<g id="edge13" class="edge">
<title>Node9&#45;&gt;Node9</title>
<path fill="none" stroke="midnightblue" d="M1611.15,-97.64C1616.04,-95.4 1619,-92.19 1619,-88 1619,-81.46 1611.79,-77.3 1601.29,-75.51"/>
<polygon fill="midnightblue" stroke="midnightblue" points="1609.92,-94.35 1601.29,-100.49 1611.87,-101.08 1609.92,-94.35"/>
</g>
<!-- Node10&#45;&gt;Node11 -->
<g id="edge15" class="edge">
<title>Node10&#45;&gt;Node11</title>
<path fill="none" stroke="midnightblue" d="M1335.35,-303.83C1293.92,-290.31 1236.91,-271.72 1198.15,-259.07"/>
<polygon fill="midnightblue" stroke="midnightblue" points="1334.4,-307.2 1344.99,-306.97 1336.57,-300.54 1334.4,-307.2"/>
</g>
<!-- Node11&#45;&gt;Node2 -->
<g id="edge21" class="edge">
<title>Node11&#45;&gt;Node2</title>
<path fill="none" stroke="midnightblue" d="M1056.4,-227.39C963.27,-212.64 826,-190.91 744.04,-177.93"/>
<polygon fill="midnightblue" stroke="midnightblue" points="1055.98,-230.86 1066.4,-228.97 1057.07,-223.95 1055.98,-230.86"/>
</g>
<!-- Node11&#45;&gt;Node8 -->
<g id="edge16" class="edge">
<title>Node11&#45;&gt;Node8</title>
<path fill="none" stroke="midnightblue" d="M1245.59,-227.14C1304.76,-216.5 1383.64,-201.76 1453,-187 1456.08,-186.34 1459.22,-185.66 1462.39,-184.96"/>
<polygon fill="midnightblue" stroke="midnightblue" points="1244.75,-223.74 1235.52,-228.95 1245.98,-230.63 1244.75,-223.74"/>
</g>
<!-- Node11&#45;&gt;Node9 -->
<g id="edge17" class="edge">
<title>Node11&#45;&gt;Node9</title>
<path fill="none" stroke="midnightblue" d="M1148.84,-218.97C1144.74,-196.87 1142.98,-164.65 1161,-145 1201.81,-100.49 1376.41,-91 1472.67,-89.21"/>
<polygon fill="midnightblue" stroke="midnightblue" points="1145.45,-219.85 1150.96,-228.9 1152.29,-218.39 1145.45,-219.85"/>
</g>
<!-- Node12 -->
<g id="node12" class="node">
<title>Node12</title>
<g id="a_node12"><a xlink:href="properties_8h.html" target="_top" xlink:title=" ">
<polygon fill="none" stroke="black" points="1316,-145.5 1316,-186.5 1444,-186.5 1444,-145.5 1316,-145.5"/>
<text text-anchor="start" x="1324" y="-174.5" font-family="Helvetica,sans-Serif" font-size="10.00">/home/runner/work/occ</text>
<text text-anchor="start" x="1324" y="-163.5" font-family="Helvetica,sans-Serif" font-size="10.00">/occ/include/occ/main</text>
<text text-anchor="middle" x="1380" y="-152.5" font-family="Helvetica,sans-Serif" font-size="10.00">/properties.h</text>
</a>
</g>
</g>
<!-- Node11&#45;&gt;Node12 -->
<g id="edge18" class="edge">
<title>Node11&#45;&gt;Node12</title>
<path fill="none" stroke="midnightblue" d="M1206.41,-225.64C1240.91,-213.98 1286.42,-198.61 1322.18,-186.53"/>
<polygon fill="midnightblue" stroke="midnightblue" points="1204.88,-222.46 1196.53,-228.97 1207.12,-229.09 1204.88,-222.46"/>
</g>
<!-- Node13 -->
<g id="node13" class="node">
<title>Node13</title>
<g id="a_node13"><a xlink:href="single__point_8h.html" target="_top" xlink:title=" ">
<polygon fill="none" stroke="black" points="1170,-145.5 1170,-186.5 1298,-186.5 1298,-145.5 1170,-145.5"/>
<text text-anchor="start" x="1178" y="-174.5" font-family="Helvetica,sans-Serif" font-size="10.00">/home/runner/work/occ</text>
<text text-anchor="start" x="1178" y="-163.5" font-family="Helvetica,sans-Serif" font-size="10.00">/occ/include/occ/main</text>
<text text-anchor="middle" x="1234" y="-152.5" font-family="Helvetica,sans-Serif" font-size="10.00">/single_point.h</text>
</a>
</g>
</g>
<!-- Node11&#45;&gt;Node13 -->
<g id="edge19" class="edge">
<title>Node11&#45;&gt;Node13</title>
<path fill="none" stroke="midnightblue" d="M1177.3,-221.55C1188.68,-210.6 1202.43,-197.37 1213.54,-186.68"/>
<polygon fill="midnightblue" stroke="midnightblue" points="1174.64,-219.25 1169.86,-228.7 1179.49,-224.29 1174.64,-219.25"/>
</g>
<!-- Node14 -->
<g id="node14" class="node">
<title>Node14</title>
<g id="a_node14"><a xlink:href="solvation__partition_8h.html" target="_top" xlink:title=" ">
<polygon fill="none" stroke="black" points="986,-145.5 986,-186.5 1114,-186.5 1114,-145.5 986,-145.5"/>
<text text-anchor="start" x="994" y="-174.5" font-family="Helvetica,sans-Serif" font-size="10.00">/home/runner/work/occ</text>
<text text-anchor="start" x="994" y="-163.5" font-family="Helvetica,sans-Serif" font-size="10.00">/occ/include/occ/main</text>
<text text-anchor="middle" x="1050" y="-152.5" font-family="Helvetica,sans-Serif" font-size="10.00">/solvation_partition.h</text>
</a>
</g>
</g>
<!-- Node11&#45;&gt;Node14 -->
<g id="edge20" class="edge">
<title>Node11&#45;&gt;Node14</title>
<path fill="none" stroke="midnightblue" d="M1127.09,-222.8C1111.64,-211.62 1092.52,-197.78 1077.19,-186.68"/>
<polygon fill="midnightblue" stroke="midnightblue" points="1125.1,-225.68 1135.25,-228.7 1129.2,-220.01 1125.1,-225.68"/>
</g>
<!-- Node15&#45;&gt;Node11 -->
<g id="edge23" class="edge">
<title>Node15&#45;&gt;Node11</title>
<path fill="none" stroke="midnightblue" d="M1006.39,-303.22C1040.77,-289.75 1087.37,-271.5 1119.16,-259.04"/>
<polygon fill="midnightblue" stroke="midnightblue" points="1005.07,-299.98 997.04,-306.88 1007.62,-306.49 1005.07,-299.98"/>
</g>
<!-- Node17&#45;&gt;Node11 -->
<g id="edge26" class="edge">
<title>Node17&#45;&gt;Node11</title>
<path fill="none" stroke="midnightblue" d="M1155,-296.59C1155,-284.26 1155,-269.72 1155,-259.23"/>
<polygon fill="midnightblue" stroke="midnightblue" points="1151.5,-296.7 1155,-306.7 1158.5,-296.71 1151.5,-296.7"/>
</g>
<!-- Node18&#45;&gt;Node9 -->
<g id="edge29" class="edge">
<title>Node18&#45;&gt;Node9</title>
<path fill="none" stroke="midnightblue" d="M1521.35,-238.76C1557.6,-232.48 1598.19,-218.3 1621,-187 1631.99,-171.91 1629.81,-161.46 1621,-145 1612.65,-129.39 1597.81,-117.38 1582.91,-108.56"/>
<polygon fill="midnightblue" stroke="midnightblue" points="1520.6,-235.33 1511.26,-240.32 1521.68,-242.25 1520.6,-235.33"/>
</g>
<!-- Node18&#45;&gt;Node12 -->
<g id="edge30" class="edge">
<title>Node18&#45;&gt;Node12</title>
<path fill="none" stroke="midnightblue" d="M1423.12,-215.92C1414.56,-206.2 1405.08,-195.45 1397.2,-186.51"/>
<polygon fill="midnightblue" stroke="midnightblue" points="1420.51,-218.24 1429.75,-223.43 1425.76,-213.61 1420.51,-218.24"/>
</g>
<!-- Node18&#45;&gt;Node13 -->
<g id="edge31" class="edge">
<title>Node18&#45;&gt;Node13</title>
<path fill="none" stroke="midnightblue" d="M1382.61,-220.03C1352.63,-209.33 1317.33,-196.73 1288.67,-186.51"/>
<polygon fill="midnightblue" stroke="midnightblue" points="1381.55,-223.36 1392.15,-223.43 1383.91,-216.77 1381.55,-223.36"/>
</g>
<!-- Node19 -->
<g id="node19" class="node">
<title>Node19</title>
<g id="a_node19"><a xlink:href="qcschema_8h.html" target="_top" xlink:title=" ">
<polygon fill="none" stroke="black" points="1666.5,-151 1666.5,-181 1833.5,-181 1833.5,-151 1666.5,-151"/>
<text text-anchor="start" x="1674.5" y="-169" font-family="Helvetica,sans-Serif" font-size="10.00">/home/runner/work/occ</text>
<text text-anchor="middle" x="1750" y="-158" font-family="Helvetica,sans-Serif" font-size="10.00">/occ/include/occ/io/qcschema.h</text>
</a>
</g>
</g>
<!-- Node18&#45;&gt;Node19 -->
<g id="edge28" class="edge">
<title>Node18&#45;&gt;Node19</title>
<path fill="none" stroke="midnightblue" d="M1521.01,-224.44C1574.37,-211.05 1645.29,-193.26 1693.98,-181.05"/>
<polygon fill="midnightblue" stroke="midnightblue" points="1520.11,-221.05 1511.26,-226.88 1521.81,-227.84 1520.11,-221.05"/>
</g>
<!-- Node20&#45;&gt;Node2 -->
<g id="edge39" class="edge">
<title>Node20&#45;&gt;Node2</title>
<path fill="none" stroke="midnightblue" d="M497.85,-301.23C484.64,-292.11 471.25,-279.95 464,-265 455.86,-248.2 452.62,-237.8 464,-223 465.23,-221.4 558.42,-197.09 620.53,-181.03"/>
<polygon fill="midnightblue" stroke="midnightblue" points="496.14,-304.29 506.44,-306.78 499.94,-298.41 496.14,-304.29"/>
</g>
<!-- Node21 -->
<g id="node21" class="node">
<title>Node21</title>
<g id="a_node21"><a xlink:href="integral__engine_8h.html" target="_top" xlink:title=" ">
<polygon fill="none" stroke="black" points="262.5,-223.5 262.5,-264.5 415.5,-264.5 415.5,-223.5 262.5,-223.5"/>
<text text-anchor="start" x="270.5" y="-252.5" font-family="Helvetica,sans-Serif" font-size="10.00">/home/runner/work/occ</text>
<text text-anchor="start" x="270.5" y="-241.5" font-family="Helvetica,sans-Serif" font-size="10.00">/occ/include/occ/qm/integral</text>
<text text-anchor="middle" x="339" y="-230.5" font-family="Helvetica,sans-Serif" font-size="10.00">_engine.h</text>
</a>
</g>
</g>
<!-- Node20&#45;&gt;Node21 -->
<g id="edge33" class="edge">
<title>Node20&#45;&gt;Node21</title>
<path fill="none" stroke="midnightblue" d="M489.24,-303.26C459.39,-291.68 420.4,-276.56 389.62,-264.63"/>
<polygon fill="midnightblue" stroke="midnightblue" points="488,-306.53 498.59,-306.88 490.53,-300 488,-306.53"/>
</g>
<!-- Node25 -->
<g id="node25" class="node">
<title>Node25</title>
<g id="a_node25"><a xlink:href="solvation__correction_8h.html" target="_top" xlink:title=" ">
<polygon fill="none" stroke="black" points="472.5,-223.5 472.5,-264.5 605.5,-264.5 605.5,-223.5 472.5,-223.5"/>
<text text-anchor="start" x="480.5" y="-252.5" font-family="Helvetica,sans-Serif" font-size="10.00">/home/runner/work/occ</text>
<text text-anchor="start" x="480.5" y="-241.5" font-family="Helvetica,sans-Serif" font-size="10.00">/occ/include/occ/solvent</text>
<text text-anchor="middle" x="539" y="-230.5" font-family="Helvetica,sans-Serif" font-size="10.00">/solvation_correction.h</text>
</a>
</g>
</g>
<!-- Node20&#45;&gt;Node25 -->
<g id="edge40" class="edge">
<title>Node20&#45;&gt;Node25</title>
<path fill="none" stroke="midnightblue" d="M536.28,-296.66C536.82,-286.33 537.45,-274.44 537.96,-264.68"/>
<polygon fill="midnightblue" stroke="midnightblue" points="532.78,-296.53 535.75,-306.7 539.77,-296.9 532.78,-296.53"/>
</g>
<!-- Node22 -->
<g id="node22" class="node">
<title>Node22</title>
<g id="a_node22"><a xlink:href="seminumerical__exchange_8h.html" target="_top" xlink:title=" ">
<polygon fill="none" stroke="black" points="434,-145.5 434,-186.5 588,-186.5 588,-145.5 434,-145.5"/>
<text text-anchor="start" x="442" y="-174.5" font-family="Helvetica,sans-Serif" font-size="10.00">/home/runner/work/occ</text>
<text text-anchor="start" x="442" y="-163.5" font-family="Helvetica,sans-Serif" font-size="10.00">/occ/include/occ/dft</text>
<text text-anchor="middle" x="511" y="-152.5" font-family="Helvetica,sans-Serif" font-size="10.00">/seminumerical_exchange.h</text>
</a>
</g>
</g>
<!-- Node21&#45;&gt;Node22 -->
<g id="edge34" class="edge">
<title>Node21&#45;&gt;Node22</title>
<path fill="none" stroke="midnightblue" d="M392.57,-219.33C416.44,-208.78 444.21,-196.51 466.86,-186.51"/>
<polygon fill="midnightblue" stroke="midnightblue" points="391.03,-216.19 383.29,-223.43 393.86,-222.59 391.03,-216.19"/>
</g>
<!-- Node21&#45;&gt;Node23 -->
<g id="edge35" class="edge">
<title>Node21&#45;&gt;Node23</title>
<path fill="none" stroke="midnightblue" d="M282.79,-217.9C270.87,-209.82 259.83,-199.6 253,-187 244.1,-170.59 243.85,-161.27 253,-145 263.99,-125.44 284.89,-111.91 304,-103.06"/>
<polygon fill="midnightblue" stroke="midnightblue" points="281.24,-221.06 291.58,-223.41 284.96,-215.13 281.24,-221.06"/>
</g>
<!-- Node24 -->
<g id="node24" class="node">
<title>Node24</title>
<g id="a_node24"><a xlink:href="integral__engine__df_8h.html" target="_top" xlink:title=" ">
<polygon fill="none" stroke="black" points="262.5,-145.5 262.5,-186.5 415.5,-186.5 415.5,-145.5 262.5,-145.5"/>
<text text-anchor="start" x="270.5" y="-174.5" font-family="Helvetica,sans-Serif" font-size="10.00">/home/runner/work/occ</text>
<text text-anchor="start" x="270.5" y="-163.5" font-family="Helvetica,sans-Serif" font-size="10.00">/occ/include/occ/qm/integral</text>
<text text-anchor="middle" x="339" y="-152.5" font-family="Helvetica,sans-Serif" font-size="10.00">_engine_df.h</text>
</a>
</g>
</g>
<!-- Node21&#45;&gt;Node24 -->
<g id="edge37" class="edge">
<title>Node21&#45;&gt;Node24</title>
<path fill="none" stroke="midnightblue" d="M339,-213.3C339,-204.3 339,-194.65 339,-186.51"/>
<polygon fill="midnightblue" stroke="midnightblue" points="335.5,-213.43 339,-223.43 342.5,-213.43 335.5,-213.43"/>
</g>
<!-- Node23&#45;&gt;Node4 -->
<g id="edge36" class="edge">
<title>Node23&#45;&gt;Node4</title>
<path fill="none" stroke="midnightblue" d="M322.28,-65.64C310.15,-54.24 295.58,-40.54 284.9,-30.5"/>
<polygon fill="midnightblue" stroke="midnightblue" points="320.14,-68.43 329.82,-72.73 324.93,-63.33 320.14,-68.43"/>
</g>
<!-- Node24&#45;&gt;Node23 -->
<g id="edge38" class="edge">
<title>Node24&#45;&gt;Node23</title>
<path fill="none" stroke="midnightblue" d="M341.35,-135.28C342.22,-124.25 343.16,-112.25 343.88,-103.23"/>
<polygon fill="midnightblue" stroke="midnightblue" points="337.84,-135.18 340.55,-145.43 344.82,-135.73 337.84,-135.18"/>
</g>
<!-- Node26&#45;&gt;Node2 -->
<g id="edge47" class="edge">
<title>Node26&#45;&gt;Node2</title>
<path fill="none" stroke="midnightblue" d="M740.3,-297.61C724.11,-265.23 695.37,-207.74 682.09,-181.18"/>
<polygon fill="midnightblue" stroke="midnightblue" points="737.29,-299.41 744.89,-306.79 743.55,-296.28 737.29,-299.41"/>
</g>
<!-- Node26&#45;&gt;Node4 -->
<g id="edge43" class="edge">
<title>Node26&#45;&gt;Node4</title>
<path fill="none" stroke="midnightblue" d="M832.26,-306.52C876.04,-296.82 923.94,-282.6 937,-265 948.12,-250.01 946.99,-238.77 937,-223 871.41,-119.44 493.14,-50.62 337.19,-26.29"/>
<polygon fill="midnightblue" stroke="midnightblue" points="831.45,-303.12 822.41,-308.65 832.93,-309.96 831.45,-303.12"/>
</g>
<!-- Node26&#45;&gt;Node11 -->
<g id="edge48" class="edge">
<title>Node26&#45;&gt;Node11</title>
<path fill="none" stroke="midnightblue" d="M832.17,-305.88C904.48,-292.25 1009.99,-272.35 1080.49,-259.05"/>
<polygon fill="midnightblue" stroke="midnightblue" points="831.38,-302.47 822.2,-307.76 832.67,-309.35 831.38,-302.47"/>
</g>
<!-- Node26&#45;&gt;Node21 -->
<g id="edge46" class="edge">
<title>Node26&#45;&gt;Node21</title>
<path fill="none" stroke="midnightblue" d="M671.74,-306.23C597.72,-292.61 488.6,-272.53 415.73,-259.12"/>
<polygon fill="midnightblue" stroke="midnightblue" points="671.47,-309.74 681.94,-308.11 672.74,-302.86 671.47,-309.74"/>
</g>
<!-- Node26&#45;&gt;Node22 -->
<g id="edge44" class="edge">
<title>Node26&#45;&gt;Node22</title>
<path fill="none" stroke="midnightblue" d="M725.72,-300.67C698.63,-280.09 654.86,-247.85 615,-223 594.12,-209.98 569.96,-196.86 550.19,-186.6"/>
<polygon fill="midnightblue" stroke="midnightblue" points="723.83,-303.63 733.9,-306.92 728.07,-298.07 723.83,-303.63"/>
</g>
<!-- Node26&#45;&gt;Node23 -->
<g id="edge45" class="edge">
<title>Node26&#45;&gt;Node23</title>
<path fill="none" stroke="midnightblue" d="M755.93,-296.59C762.24,-253.61 772.12,-166.93 753,-145 709.59,-95.22 516.34,-88.13 412.13,-88.03"/>
<polygon fill="midnightblue" stroke="midnightblue" points="752.43,-296.33 754.38,-306.74 759.35,-297.39 752.43,-296.33"/>
</g>
<!-- Node26&#45;&gt;Node25 -->
<g id="edge49" class="edge">
<title>Node26&#45;&gt;Node25</title>
<path fill="none" stroke="midnightblue" d="M702.7,-303.41C670.2,-291.81 627.6,-276.61 594.01,-264.63"/>
<polygon fill="midnightblue" stroke="midnightblue" points="701.84,-306.82 712.44,-306.88 704.19,-300.23 701.84,-306.82"/>
</g>
<!-- Node27 -->
<g id="node27" class="node">
<title>Node27</title>
<g id="a_node27"><a xlink:href="xdm_8h.html" target="_top" xlink:title=" ">
<polygon fill="none" stroke="black" points="776,-229 776,-259 928,-259 928,-229 776,-229"/>
<text text-anchor="start" x="784" y="-247" font-family="Helvetica,sans-Serif" font-size="10.00">/home/runner/work/occ</text>
<text text-anchor="middle" x="852" y="-236" font-family="Helvetica,sans-Serif" font-size="10.00">/occ/include/occ/xdm/xdm.h</text>
</a>
</g>
</g>
<!-- Node26&#45;&gt;Node27 -->
<g id="edge50" class="edge">
<title>Node26&#45;&gt;Node27</title>
<path fill="none" stroke="midnightblue" d="M778.83,-300.61C796.03,-287.54 817.93,-270.89 833.28,-259.23"/>
<polygon fill="midnightblue" stroke="midnightblue" points="776.65,-297.87 770.81,-306.7 780.89,-303.44 776.65,-297.87"/>
</g>
<!-- Node30&#45;&gt;Node21 -->
<g id="edge56" class="edge">
<title>Node30&#45;&gt;Node21</title>
<path fill="none" stroke="midnightblue" d="M341.44,-291.3C340.96,-282.3 340.46,-272.65 340.03,-264.51"/>
<polygon fill="midnightblue" stroke="midnightblue" points="337.95,-291.63 341.97,-301.43 344.94,-291.26 337.95,-291.63"/>
</g>
</g>
</svg>
