<?xml version="1.0" encoding="UTF-8" standalone="no"?>
<!DOCTYPE svg PUBLIC "-//W3C//DTD SVG 1.1//EN"
 "http://www.w3.org/Graphics/SVG/1.1/DTD/svg11.dtd">
<!-- Generated by graphviz version 2.43.0 (0)
 -->
<!-- Title: /home/runner/work/occ/occ/include/occ/dft/range_separated_parameters.h Pages: 1 -->
<svg width="404pt" height="423pt"
 viewBox="0.00 0.00 404.00 423.00" xmlns="http://www.w3.org/2000/svg" xmlns:xlink="http://www.w3.org/1999/xlink">
<g id="graph0" class="graph" transform="scale(1 1) rotate(0) translate(4 419)">
<title>/home/runner/work/occ/occ/include/occ/dft/range_separated_parameters.h</title>
<!-- Node1 -->
<g id="Node000001" class="node">
<title>Node1</title>
<g id="a_Node000001"><a xlink:title=" ">
<polygon fill="#999999" stroke="#666666" points="188,-415 16,-415 16,-374 188,-374 188,-415"/>
<text text-anchor="start" x="24" y="-403" font-family="Helvetica,sans-Serif" font-size="10.00">/home/runner/work/occ</text>
<text text-anchor="start" x="24" y="-392" font-family="Helvetica,sans-Serif" font-size="10.00">/occ/include/occ/dft</text>
<text text-anchor="middle" x="102" y="-381" font-family="Helvetica,sans-Serif" font-size="10.00">/range_separated_parameters.h</text>
</a>
</g>
</g>
<!-- Node2 -->
<g id="Node000002" class="node">
<title>Node2</title>
<g id="a_Node000002"><a xlink:href="dft_8h.html" target="_top" xlink:title=" ">
<polygon fill="white" stroke="#666666" points="207,-184 73,-184 73,-154 207,-154 207,-184"/>
<text text-anchor="start" x="81" y="-172" font-family="Helvetica,sans-Serif" font-size="10.00">/home/runner/work/occ</text>
<text text-anchor="middle" x="140" y="-161" font-family="Helvetica,sans-Serif" font-size="10.00">/occ/include/occ/dft/dft.h</text>
</a>
</g>
</g>
<!-- Node1&#45;&gt;Node2 -->
<g id="edge1_Node000001_Node000002" class="edge">
<title>Node1&#45;&gt;Node2</title>
<g id="a_edge1_Node000001_Node000002"><a xlink:title=" ">
<path fill="none" stroke="#63b8ff" d="M96.64,-363.71C91.58,-328.14 87.26,-267.5 106,-220 111.16,-206.92 120.24,-193.83 127.71,-184.33"/>
<polygon fill="#63b8ff" stroke="#63b8ff" points="93.23,-364.55 98.21,-373.9 100.14,-363.49 93.23,-364.55"/>
</a>
</g>
</g>
<!-- Node6 -->
<g id="Node000006" class="node">
<title>Node6</title>
<g id="a_Node000006"><a xlink:href="functional_8h.html" target="_top" xlink:title=" ">
<polygon fill="white" stroke="#666666" points="231,-338 103,-338 103,-297 231,-297 231,-338"/>
<text text-anchor="start" x="111" y="-326" font-family="Helvetica,sans-Serif" font-size="10.00">/home/runner/work/occ</text>
<text text-anchor="start" x="111" y="-315" font-family="Helvetica,sans-Serif" font-size="10.00">/occ/include/occ/dft</text>
<text text-anchor="middle" x="167" y="-304" font-family="Helvetica,sans-Serif" font-size="10.00">/functional.h</text>
</a>
</g>
</g>
<!-- Node1&#45;&gt;Node6 -->
<g id="edge5_Node000001_Node000006" class="edge">
<title>Node1&#45;&gt;Node6</title>
<g id="a_edge5_Node000001_Node000006"><a xlink:title=" ">
<path fill="none" stroke="#63b8ff" d="M125.63,-366.23C133.71,-356.91 142.59,-346.67 150.04,-338.07"/>
<polygon fill="#63b8ff" stroke="#63b8ff" points="122.98,-363.95 119.08,-373.79 128.27,-368.53 122.98,-363.95"/>
</a>
</g>
</g>
<!-- Node3 -->
<g id="Node000003" class="node">
<title>Node3</title>
<g id="a_Node000003"><a xlink:href="smd__solvation_8h.html" target="_top" xlink:title=" ">
<polygon fill="white" stroke="#666666" points="132,-118 0,-118 0,-77 132,-77 132,-118"/>
<text text-anchor="start" x="8" y="-106" font-family="Helvetica,sans-Serif" font-size="10.00">/home/runner/work/occ</text>
<text text-anchor="start" x="8" y="-95" font-family="Helvetica,sans-Serif" font-size="10.00">/occ/include/occ/cg/smd</text>
<text text-anchor="middle" x="66" y="-84" font-family="Helvetica,sans-Serif" font-size="10.00">_solvation.h</text>
</a>
</g>
</g>
<!-- Node2&#45;&gt;Node3 -->
<g id="edge2_Node000002_Node000003" class="edge">
<title>Node2&#45;&gt;Node3</title>
<g id="a_edge2_Node000002_Node000003"><a xlink:title=" ">
<path fill="none" stroke="#63b8ff" d="M117.6,-146.96C107.82,-137.78 96.43,-127.08 86.84,-118.07"/>
<polygon fill="#63b8ff" stroke="#63b8ff" points="115.34,-149.64 125.02,-153.94 120.13,-144.54 115.34,-149.64"/>
</a>
</g>
</g>
<!-- Node5 -->
<g id="Node000005" class="node">
<title>Node5</title>
<g id="a_Node000005"><a xlink:href="point__functors_8h.html" target="_top" xlink:title=" ">
<polygon fill="white" stroke="#666666" points="278,-118 150,-118 150,-77 278,-77 278,-118"/>
<text text-anchor="start" x="158" y="-106" font-family="Helvetica,sans-Serif" font-size="10.00">/home/runner/work/occ</text>
<text text-anchor="start" x="158" y="-95" font-family="Helvetica,sans-Serif" font-size="10.00">/occ/include/occ/main</text>
<text text-anchor="middle" x="214" y="-84" font-family="Helvetica,sans-Serif" font-size="10.00">/point_functors.h</text>
</a>
</g>
</g>
<!-- Node2&#45;&gt;Node5 -->
<g id="edge4_Node000002_Node000005" class="edge">
<title>Node2&#45;&gt;Node5</title>
<g id="a_edge4_Node000002_Node000005"><a xlink:title=" ">
<path fill="none" stroke="#63b8ff" d="M162.4,-146.96C172.18,-137.78 183.57,-127.08 193.16,-118.07"/>
<polygon fill="#63b8ff" stroke="#63b8ff" points="159.87,-144.54 154.98,-153.94 164.66,-149.64 159.87,-144.54"/>
</a>
</g>
</g>
<!-- Node4 -->
<g id="Node000004" class="node">
<title>Node4</title>
<g id="a_Node000004"><a xlink:href="crystal__growth_8h.html" target="_top" xlink:title=" ">
<polygon fill="white" stroke="#666666" points="130,-41 2,-41 2,0 130,0 130,-41"/>
<text text-anchor="start" x="10" y="-29" font-family="Helvetica,sans-Serif" font-size="10.00">/home/runner/work/occ</text>
<text text-anchor="start" x="10" y="-18" font-family="Helvetica,sans-Serif" font-size="10.00">/occ/include/occ/driver</text>
<text text-anchor="middle" x="66" y="-7" font-family="Helvetica,sans-Serif" font-size="10.00">/crystal_growth.h</text>
</a>
</g>
</g>
<!-- Node3&#45;&gt;Node4 -->
<g id="edge3_Node000003_Node000004" class="edge">
<title>Node3&#45;&gt;Node4</title>
<g id="a_edge3_Node000003_Node000004"><a xlink:title=" ">
<path fill="none" stroke="#63b8ff" d="M66,-66.69C66,-58.08 66,-48.9 66,-41.07"/>
<polygon fill="#63b8ff" stroke="#63b8ff" points="62.5,-66.79 66,-76.79 69.5,-66.79 62.5,-66.79"/>
</a>
</g>
</g>
<!-- Node6&#45;&gt;Node2 -->
<g id="edge6_Node000006_Node000002" class="edge">
<title>Node6&#45;&gt;Node2</title>
<g id="a_edge6_Node000006_Node000002"><a xlink:title=" ">
<path fill="none" stroke="#63b8ff" d="M132.87,-289.68C124.83,-281.43 117.34,-271.68 113,-261 102.27,-234.59 118.37,-202.31 129.94,-184.16"/>
<polygon fill="#63b8ff" stroke="#63b8ff" points="130.69,-292.44 140.34,-296.82 135.53,-287.38 130.69,-292.44"/>
</a>
</g>
</g>
<!-- Node7 -->
<g id="Node000007" class="node">
<title>Node7</title>
<g id="a_Node000007"><a xlink:href="dft__method_8h.html" target="_top" xlink:title=" ">
<polygon fill="white" stroke="#666666" points="250,-261 122,-261 122,-220 250,-220 250,-261"/>
<text text-anchor="start" x="130" y="-249" font-family="Helvetica,sans-Serif" font-size="10.00">/home/runner/work/occ</text>
<text text-anchor="start" x="130" y="-238" font-family="Helvetica,sans-Serif" font-size="10.00">/occ/include/occ/dft</text>
<text text-anchor="middle" x="186" y="-227" font-family="Helvetica,sans-Serif" font-size="10.00">/dft_method.h</text>
</a>
</g>
</g>
<!-- Node6&#45;&gt;Node7 -->
<g id="edge7_Node000006_Node000007" class="edge">
<title>Node6&#45;&gt;Node7</title>
<g id="a_edge7_Node000006_Node000007"><a xlink:title=" ">
<path fill="none" stroke="#63b8ff" d="M174.48,-286.98C176.68,-278.28 179.04,-268.98 181.04,-261.07"/>
<polygon fill="#63b8ff" stroke="#63b8ff" points="171.06,-286.24 171.99,-296.79 177.84,-287.96 171.06,-286.24"/>
</a>
</g>
</g>
<!-- Node8 -->
<g id="Node000008" class="node">
<title>Node8</title>
<g id="a_Node000008"><a xlink:href="xc__potential__matrix_8h.html" target="_top" xlink:title=" ">
<polygon fill="white" stroke="#666666" points="396,-261 268,-261 268,-220 396,-220 396,-261"/>
<text text-anchor="start" x="276" y="-249" font-family="Helvetica,sans-Serif" font-size="10.00">/home/runner/work/occ</text>
<text text-anchor="start" x="276" y="-238" font-family="Helvetica,sans-Serif" font-size="10.00">/occ/include/occ/dft</text>
<text text-anchor="middle" x="332" y="-227" font-family="Helvetica,sans-Serif" font-size="10.00">/xc_potential_matrix.h</text>
</a>
</g>
</g>
<!-- Node6&#45;&gt;Node8 -->
<g id="edge9_Node000006_Node000008" class="edge">
<title>Node6&#45;&gt;Node8</title>
<g id="a_edge9_Node000006_Node000008"><a xlink:title=" ">
<path fill="none" stroke="#63b8ff" d="M219.31,-292.72C241.77,-282.51 267.69,-270.73 289.01,-261.04"/>
<polygon fill="#63b8ff" stroke="#63b8ff" points="217.58,-289.67 209.92,-296.99 220.47,-296.04 217.58,-289.67"/>
</a>
</g>
</g>
<!-- Node7&#45;&gt;Node2 -->
<g id="edge8_Node000007_Node000002" class="edge">
<title>Node7&#45;&gt;Node2</title>
<g id="a_edge8_Node000007_Node000002"><a xlink:title=" ">
<path fill="none" stroke="#63b8ff" d="M167.4,-211.4C161.17,-201.99 154.49,-191.9 149.29,-184.04"/>
<polygon fill="#63b8ff" stroke="#63b8ff" points="164.5,-213.36 172.94,-219.77 170.34,-209.5 164.5,-213.36"/>
</a>
</g>
</g>
<!-- Node8&#45;&gt;Node2 -->
<g id="edge10_Node000008_Node000002" class="edge">
<title>Node8&#45;&gt;Node2</title>
<g id="a_edge10_Node000008_Node000002"><a xlink:title=" ">
<path fill="none" stroke="#63b8ff" d="M268.55,-216.53C238.84,-205.78 204.43,-193.32 178.69,-184"/>
<polygon fill="#63b8ff" stroke="#63b8ff" points="267.41,-219.84 278.01,-219.96 269.79,-213.26 267.41,-219.84"/>
</a>
</g>
</g>
</g>
</svg>
