<?xml version="1.0" encoding="UTF-8" standalone="no"?>
<!DOCTYPE svg PUBLIC "-//W3C//DTD SVG 1.1//EN"
 "http://www.w3.org/Graphics/SVG/1.1/DTD/svg11.dtd">
<!-- Generated by graphviz version 2.43.0 (0)
 -->
<!-- Title: /home/runner/work/occ/occ/include/occ/ints/rints.h Pages: 1 -->
<svg width="520pt" height="203pt"
 viewBox="0.00 0.00 520.00 203.00" xmlns="http://www.w3.org/2000/svg" xmlns:xlink="http://www.w3.org/1999/xlink">
<g id="graph0" class="graph" transform="scale(1 1) rotate(0) translate(4 199)">
<title>/home/runner/work/occ/occ/include/occ/ints/rints.h</title>
<!-- Node1 -->
<g id="Node000001" class="node">
<title>Node1</title>
<g id="a_Node000001"><a xlink:title=" ">
<polygon fill="#999999" stroke="#666666" points="293,-195 165,-195 165,-154 293,-154 293,-195"/>
<text text-anchor="start" x="173" y="-183" font-family="Helvetica,sans-Serif" font-size="10.00">/home/runner/work/occ</text>
<text text-anchor="start" x="173" y="-172" font-family="Helvetica,sans-Serif" font-size="10.00">/occ/include/occ/ints</text>
<text text-anchor="middle" x="229" y="-161" font-family="Helvetica,sans-Serif" font-size="10.00">/rints.h</text>
</a>
</g>
</g>
<!-- Node2 -->
<g id="Node000002" class="node">
<title>Node2</title>
<g id="a_Node000002"><a xlink:href="hermite__kernels_8h.html" target="_top" xlink:title=" ">
<polygon fill="white" stroke="#666666" points="128,-41 0,-41 0,0 128,0 128,-41"/>
<text text-anchor="start" x="8" y="-29" font-family="Helvetica,sans-Serif" font-size="10.00">/home/runner/work/occ</text>
<text text-anchor="start" x="8" y="-18" font-family="Helvetica,sans-Serif" font-size="10.00">/occ/include/occ/ints</text>
<text text-anchor="middle" x="64" y="-7" font-family="Helvetica,sans-Serif" font-size="10.00">/hermite_kernels.h</text>
</a>
</g>
</g>
<!-- Node1&#45;&gt;Node2 -->
<g id="edge1_Node000001_Node000002" class="edge">
<title>Node1&#45;&gt;Node2</title>
<g id="a_edge1_Node000001_Node000002"><a xlink:title=" ">
<path fill="none" stroke="#63b8ff" d="M154.75,-160.77C128.56,-152.69 101.14,-139.5 83,-118 64.83,-96.47 62.19,-62.6 62.61,-41.25"/>
<polygon fill="#63b8ff" stroke="#63b8ff" points="154.13,-164.23 164.71,-163.63 156.06,-157.51 154.13,-164.23"/>
</a>
</g>
</g>
<!-- Node3 -->
<g id="Node000003" class="node">
<title>Node3</title>
<g id="a_Node000003"><a xlink:href="kernels_8h.html" target="_top" xlink:title=" ">
<polygon fill="white" stroke="#666666" points="220,-118 92,-118 92,-77 220,-77 220,-118"/>
<text text-anchor="start" x="100" y="-106" font-family="Helvetica,sans-Serif" font-size="10.00">/home/runner/work/occ</text>
<text text-anchor="start" x="100" y="-95" font-family="Helvetica,sans-Serif" font-size="10.00">/occ/include/occ/ints</text>
<text text-anchor="middle" x="156" y="-84" font-family="Helvetica,sans-Serif" font-size="10.00">/kernels.h</text>
</a>
</g>
</g>
<!-- Node1&#45;&gt;Node3 -->
<g id="edge2_Node000001_Node000003" class="edge">
<title>Node1&#45;&gt;Node3</title>
<g id="a_edge2_Node000001_Node000003"><a xlink:title=" ">
<path fill="none" stroke="#63b8ff" d="M202.73,-146.51C193.58,-137.11 183.5,-126.76 175.05,-118.07"/>
<polygon fill="#63b8ff" stroke="#63b8ff" points="200.34,-149.07 209.82,-153.79 205.35,-144.19 200.34,-149.07"/>
</a>
</g>
</g>
<!-- Node5 -->
<g id="Node000005" class="node">
<title>Node5</title>
<g id="a_Node000005"><a xlink:href="rints__specialized_8h.html" target="_top" xlink:title=" ">
<polygon fill="white" stroke="#666666" points="366,-118 238,-118 238,-77 366,-77 366,-118"/>
<text text-anchor="start" x="246" y="-106" font-family="Helvetica,sans-Serif" font-size="10.00">/home/runner/work/occ</text>
<text text-anchor="start" x="246" y="-95" font-family="Helvetica,sans-Serif" font-size="10.00">/occ/include/occ/ints</text>
<text text-anchor="middle" x="302" y="-84" font-family="Helvetica,sans-Serif" font-size="10.00">/rints_specialized.h</text>
</a>
</g>
</g>
<!-- Node1&#45;&gt;Node5 -->
<g id="edge5_Node000001_Node000005" class="edge">
<title>Node1&#45;&gt;Node5</title>
<g id="a_edge5_Node000001_Node000005"><a xlink:title=" ">
<path fill="none" stroke="#63b8ff" d="M255.27,-146.51C264.42,-137.11 274.5,-126.76 282.95,-118.07"/>
<polygon fill="#63b8ff" stroke="#63b8ff" points="252.65,-144.19 248.18,-153.79 257.66,-149.07 252.65,-144.19"/>
</a>
</g>
</g>
<!-- Node6 -->
<g id="Node000006" class="node">
<title>Node6</title>
<g id="a_Node000006"><a xlink:href="rints__specialized__3c_8h.html" target="_top" xlink:title=" ">
<polygon fill="white" stroke="#666666" points="512,-118 384,-118 384,-77 512,-77 512,-118"/>
<text text-anchor="start" x="392" y="-106" font-family="Helvetica,sans-Serif" font-size="10.00">/home/runner/work/occ</text>
<text text-anchor="start" x="392" y="-95" font-family="Helvetica,sans-Serif" font-size="10.00">/occ/include/occ/ints</text>
<text text-anchor="middle" x="448" y="-84" font-family="Helvetica,sans-Serif" font-size="10.00">/rints_specialized_3c.h</text>
</a>
</g>
</g>
<!-- Node1&#45;&gt;Node6 -->
<g id="edge6_Node000001_Node000006" class="edge">
<title>Node1&#45;&gt;Node6</title>
<g id="a_edge6_Node000001_Node000006"><a xlink:title=" ">
<path fill="none" stroke="#63b8ff" d="M295.65,-150.67C326.08,-140.25 361.76,-128.03 390.94,-118.04"/>
<polygon fill="#63b8ff" stroke="#63b8ff" points="294.29,-147.44 285.97,-153.99 296.56,-154.06 294.29,-147.44"/>
</a>
</g>
</g>
<!-- Node3&#45;&gt;Node2 -->
<g id="edge4_Node000003_Node000002" class="edge">
<title>Node3&#45;&gt;Node2</title>
<g id="a_edge4_Node000003_Node000002"><a xlink:title=" ">
<path fill="none" stroke="#63b8ff" d="M123.92,-70.35C112.12,-60.73 98.98,-50.01 88.01,-41.07"/>
<polygon fill="#63b8ff" stroke="#63b8ff" points="121.87,-73.19 131.83,-76.79 126.29,-67.76 121.87,-73.19"/>
</a>
</g>
</g>
<!-- Node4 -->
<g id="Node000004" class="node">
<title>Node4</title>
<g id="a_Node000004"><a xlink:href="eri3_8h.html" target="_top" xlink:title=" ">
<polygon fill="white" stroke="#666666" points="274,-41 146,-41 146,0 274,0 274,-41"/>
<text text-anchor="start" x="154" y="-29" font-family="Helvetica,sans-Serif" font-size="10.00">/home/runner/work/occ</text>
<text text-anchor="start" x="154" y="-18" font-family="Helvetica,sans-Serif" font-size="10.00">/occ/include/occ/ints</text>
<text text-anchor="middle" x="210" y="-7" font-family="Helvetica,sans-Serif" font-size="10.00">/eri3.h</text>
</a>
</g>
</g>
<!-- Node3&#45;&gt;Node4 -->
<g id="edge3_Node000003_Node000004" class="edge">
<title>Node3&#45;&gt;Node4</title>
<g id="a_edge3_Node000003_Node000004"><a xlink:title=" ">
<path fill="none" stroke="#63b8ff" d="M176.04,-68.67C182.64,-59.5 189.84,-49.5 195.91,-41.07"/>
<polygon fill="#63b8ff" stroke="#63b8ff" points="173.19,-66.63 170.19,-76.79 178.87,-70.72 173.19,-66.63"/>
</a>
</g>
</g>
</g>
</svg>
