<?xml version="1.0" encoding="UTF-8" standalone="no"?>
<!DOCTYPE svg PUBLIC "-//W3C//DTD SVG 1.1//EN"
 "http://www.w3.org/Graphics/SVG/1.1/DTD/svg11.dtd">
<!-- Generated by graphviz version 2.43.0 (0)
 -->
<!-- Title: /home/runner/work/occ/occ/include/occ/qm/scf_method.h Pages: 1 -->
<svg width="1234pt" height="379pt"
 viewBox="0.00 0.00 1234.00 379.00" xmlns="http://www.w3.org/2000/svg" xmlns:xlink="http://www.w3.org/1999/xlink">
<g id="graph0" class="graph" transform="scale(1 1) rotate(0) translate(4 375)">
<title>/home/runner/work/occ/occ/include/occ/qm/scf_method.h</title>
<!-- Node1 -->
<g id="Node000001" class="node">
<title>Node1</title>
<g id="a_Node000001"><a xlink:title=" ">
<polygon fill="#999999" stroke="#666666" points="382,-371 252,-371 252,-330 382,-330 382,-371"/>
<text text-anchor="start" x="260" y="-359" font-family="Helvetica,sans-Serif" font-size="10.00">/home/runner/work/occ</text>
<text text-anchor="start" x="260" y="-348" font-family="Helvetica,sans-Serif" font-size="10.00">/occ/include/occ/qm/scf</text>
<text text-anchor="middle" x="317" y="-337" font-family="Helvetica,sans-Serif" font-size="10.00">_method.h</text>
</a>
</g>
</g>
<!-- Node2 -->
<g id="Node000002" class="node">
<title>Node2</title>
<g id="a_Node000002"><a xlink:title=" ">
<polygon fill="#e0e0e0" stroke="#999999" points="60,-294 0,-294 0,-275 60,-275 60,-294"/>
<text text-anchor="middle" x="30" y="-282" font-family="Helvetica,sans-Serif" font-size="10.00">concepts</text>
</a>
</g>
</g>
<!-- Node1&#45;&gt;Node2 -->
<g id="edge1_Node000001_Node000002" class="edge">
<title>Node1&#45;&gt;Node2</title>
<g id="a_edge1_Node000001_Node000002"><a xlink:title=" ">
<path fill="none" stroke="#63b8ff" d="M251.88,-334.98C195.94,-322.51 117.1,-304.92 70.01,-294.42"/>
<polygon fill="#63b8ff" stroke="#63b8ff" points="70.7,-290.99 60.18,-292.23 69.18,-297.82 70.7,-290.99"/>
</a>
</g>
</g>
<!-- Node3 -->
<g id="Node000003" class="node">
<title>Node3</title>
<g id="a_Node000003"><a xlink:href="energy__components_8h.html" target="_top" xlink:title=" ">
<polygon fill="white" stroke="#666666" points="401,-294 233,-294 233,-275 401,-275 401,-294"/>
<text text-anchor="middle" x="317" y="-282" font-family="Helvetica,sans-Serif" font-size="10.00">occ/core/energy_components.h</text>
</a>
</g>
</g>
<!-- Node1&#45;&gt;Node3 -->
<g id="edge2_Node000001_Node000003" class="edge">
<title>Node1&#45;&gt;Node3</title>
<g id="a_edge2_Node000001_Node000003"><a xlink:title=" ">
<path fill="none" stroke="#63b8ff" d="M317,-329.95C317,-321.85 317,-312.5 317,-304.47"/>
<polygon fill="#63b8ff" stroke="#63b8ff" points="320.5,-304.26 317,-294.26 313.5,-304.26 320.5,-304.26"/>
</a>
</g>
</g>
<!-- Node7 -->
<g id="Node000007" class="node">
<title>Node7</title>
<g id="a_Node000007"><a xlink:href="point__charge_8h.html" target="_top" xlink:title=" ">
<polygon fill="white" stroke="#666666" points="310,-184 178,-184 178,-165 310,-165 310,-184"/>
<text text-anchor="middle" x="244" y="-172" font-family="Helvetica,sans-Serif" font-size="10.00">occ/core/point_charge.h</text>
</a>
</g>
</g>
<!-- Node1&#45;&gt;Node7 -->
<g id="edge6_Node000001_Node000007" class="edge">
<title>Node1&#45;&gt;Node7</title>
<g id="a_edge6_Node000001_Node000007"><a xlink:title=" ">
<path fill="none" stroke="#63b8ff" d="M251.78,-334.34C202.77,-319.15 138.98,-290.42 108,-239 90.11,-209.31 127.54,-193.33 167.62,-184.83"/>
<polygon fill="#63b8ff" stroke="#63b8ff" points="168.43,-188.23 177.56,-182.87 167.08,-181.37 168.43,-188.23"/>
</a>
</g>
</g>
<!-- Node14 -->
<g id="Node000014" class="node">
<title>Node14</title>
<g id="a_Node000014"><a xlink:href="mo_8h.html" target="_top" xlink:title=" ">
<polygon fill="white" stroke="#666666" points="565,-294 485,-294 485,-275 565,-275 565,-294"/>
<text text-anchor="middle" x="525" y="-282" font-family="Helvetica,sans-Serif" font-size="10.00">occ/qm/mo.h</text>
</a>
</g>
</g>
<!-- Node1&#45;&gt;Node14 -->
<g id="edge13_Node000001_Node000014" class="edge">
<title>Node1&#45;&gt;Node14</title>
<g id="a_edge13_Node000001_Node000014"><a xlink:title=" ">
<path fill="none" stroke="#63b8ff" d="M380.54,-329.95C415.64,-319.15 458.02,-306.11 487.77,-296.95"/>
<polygon fill="#63b8ff" stroke="#63b8ff" points="488.82,-300.29 497.35,-294.01 486.76,-293.6 488.82,-300.29"/>
</a>
</g>
</g>
<!-- Node24 -->
<g id="Node000024" class="node">
<title>Node24</title>
<g id="a_Node000024"><a xlink:href="spinorbital_8h.html" target="_top" xlink:title=" ">
<polygon fill="white" stroke="#666666" points="1001,-239 885,-239 885,-220 1001,-220 1001,-239"/>
<text text-anchor="middle" x="943" y="-227" font-family="Helvetica,sans-Serif" font-size="10.00">occ/qm/spinorbital.h</text>
</a>
</g>
</g>
<!-- Node1&#45;&gt;Node24 -->
<g id="edge38_Node000001_Node000024" class="edge">
<title>Node1&#45;&gt;Node24</title>
<g id="a_edge38_Node000001_Node000024"><a xlink:title=" ">
<path fill="none" stroke="#63b8ff" d="M382.22,-337.1C505.94,-313.58 772.63,-262.89 887.98,-240.96"/>
<polygon fill="#63b8ff" stroke="#63b8ff" points="888.83,-244.36 898,-239.05 887.52,-237.48 888.83,-244.36"/>
</a>
</g>
</g>
<!-- Node4 -->
<g id="Node000004" class="node">
<title>Node4</title>
<g id="a_Node000004"><a xlink:title=" ">
<polygon fill="#e0e0e0" stroke="#999999" points="259.5,-239 116.5,-239 116.5,-220 259.5,-220 259.5,-239"/>
<text text-anchor="middle" x="188" y="-227" font-family="Helvetica,sans-Serif" font-size="10.00">ankerl/unordered_dense.h</text>
</a>
</g>
</g>
<!-- Node3&#45;&gt;Node4 -->
<g id="edge3_Node000003_Node000004" class="edge">
<title>Node3&#45;&gt;Node4</title>
<g id="a_edge3_Node000003_Node000004"><a xlink:title=" ">
<path fill="none" stroke="#63b8ff" d="M296.27,-274.98C275.24,-266.34 242.45,-252.87 218.46,-243.02"/>
<polygon fill="#63b8ff" stroke="#63b8ff" points="219.68,-239.73 209.1,-239.17 217.02,-246.21 219.68,-239.73"/>
</a>
</g>
</g>
<!-- Node5 -->
<g id="Node000005" class="node">
<title>Node5</title>
<g id="a_Node000005"><a xlink:title=" ">
<polygon fill="#e0e0e0" stroke="#999999" points="356.5,-239 277.5,-239 277.5,-220 356.5,-220 356.5,-239"/>
<text text-anchor="middle" x="317" y="-227" font-family="Helvetica,sans-Serif" font-size="10.00">fmt/format.h</text>
</a>
</g>
</g>
<!-- Node3&#45;&gt;Node5 -->
<g id="edge4_Node000003_Node000005" class="edge">
<title>Node3&#45;&gt;Node5</title>
<g id="a_edge4_Node000003_Node000005"><a xlink:title=" ">
<path fill="none" stroke="#63b8ff" d="M317,-274.75C317,-267.8 317,-257.85 317,-249.13"/>
<polygon fill="#63b8ff" stroke="#63b8ff" points="320.5,-249.09 317,-239.09 313.5,-249.09 320.5,-249.09"/>
</a>
</g>
</g>
<!-- Node6 -->
<g id="Node000006" class="node">
<title>Node6</title>
<g id="a_Node000006"><a xlink:title=" ">
<polygon fill="#e0e0e0" stroke="#999999" points="489.5,-129 442.5,-129 442.5,-110 489.5,-110 489.5,-129"/>
<text text-anchor="middle" x="466" y="-117" font-family="Helvetica,sans-Serif" font-size="10.00">vector</text>
</a>
</g>
</g>
<!-- Node3&#45;&gt;Node6 -->
<g id="edge5_Node000003_Node000006" class="edge">
<title>Node3&#45;&gt;Node6</title>
<g id="a_edge5_Node000003_Node000006"><a xlink:title=" ">
<path fill="none" stroke="#63b8ff" d="M370.7,-274.98C410.09,-267.51 458.75,-255.29 471,-239 493.09,-209.62 481.94,-163.6 473.17,-138.43"/>
<polygon fill="#63b8ff" stroke="#63b8ff" points="476.44,-137.17 469.66,-129.03 469.88,-139.62 476.44,-137.17"/>
</a>
</g>
</g>
<!-- Node8 -->
<g id="Node000008" class="node">
<title>Node8</title>
<g id="a_Node000008"><a xlink:title=" ">
<polygon fill="#e0e0e0" stroke="#999999" points="203,-129 161,-129 161,-110 203,-110 203,-129"/>
<text text-anchor="middle" x="182" y="-117" font-family="Helvetica,sans-Serif" font-size="10.00">array</text>
</a>
</g>
</g>
<!-- Node7&#45;&gt;Node8 -->
<g id="edge7_Node000007_Node000008" class="edge">
<title>Node7&#45;&gt;Node8</title>
<g id="a_edge7_Node000007_Node000008"><a xlink:title=" ">
<path fill="none" stroke="#63b8ff" d="M234.04,-164.98C224.87,-157.15 211.06,-145.34 199.97,-135.86"/>
<polygon fill="#63b8ff" stroke="#63b8ff" points="202.02,-133.01 192.14,-129.17 197.47,-138.33 202.02,-133.01"/>
</a>
</g>
</g>
<!-- Node9 -->
<g id="Node000009" class="node">
<title>Node9</title>
<g id="a_Node000009"><a xlink:href="atom_8h.html" target="_top" xlink:title=" ">
<polygon fill="white" stroke="#666666" points="347.5,-129 252.5,-129 252.5,-110 347.5,-110 347.5,-129"/>
<text text-anchor="middle" x="300" y="-117" font-family="Helvetica,sans-Serif" font-size="10.00">occ/core/atom.h</text>
</a>
</g>
</g>
<!-- Node7&#45;&gt;Node9 -->
<g id="edge8_Node000007_Node000009" class="edge">
<title>Node7&#45;&gt;Node9</title>
<g id="a_edge8_Node000007_Node000009"><a xlink:title=" ">
<path fill="none" stroke="#63b8ff" d="M253,-164.98C261.19,-157.23 273.51,-145.58 283.47,-136.14"/>
<polygon fill="#63b8ff" stroke="#63b8ff" points="285.98,-138.59 290.84,-129.17 281.17,-133.5 285.98,-138.59"/>
</a>
</g>
</g>
<!-- Node10 -->
<g id="Node000010" class="node">
<title>Node10</title>
<g id="a_Node000010"><a xlink:href="linear__algebra_8h.html" target="_top" xlink:title=" ">
<polygon fill="white" stroke="#666666" points="415.5,-74 276.5,-74 276.5,-55 415.5,-55 415.5,-74"/>
<text text-anchor="middle" x="346" y="-62" font-family="Helvetica,sans-Serif" font-size="10.00">occ/core/linear_algebra.h</text>
</a>
</g>
</g>
<!-- Node9&#45;&gt;Node10 -->
<g id="edge9_Node000009_Node000010" class="edge">
<title>Node9&#45;&gt;Node10</title>
<g id="a_edge9_Node000009_Node000010"><a xlink:title=" ">
<path fill="none" stroke="#63b8ff" d="M307.6,-109.75C314.16,-102.18 323.82,-91.05 331.81,-81.84"/>
<polygon fill="#63b8ff" stroke="#63b8ff" points="334.63,-83.94 338.55,-74.09 329.35,-79.35 334.63,-83.94"/>
</a>
</g>
</g>
<!-- Node11 -->
<g id="Node000011" class="node">
<title>Node11</title>
<g id="a_Node000011"><a xlink:title=" ">
<polygon fill="#e0e0e0" stroke="#999999" points="281.5,-19 204.5,-19 204.5,0 281.5,0 281.5,-19"/>
<text text-anchor="middle" x="243" y="-7" font-family="Helvetica,sans-Serif" font-size="10.00">Eigen/Dense</text>
</a>
</g>
</g>
<!-- Node10&#45;&gt;Node11 -->
<g id="edge10_Node000010_Node000011" class="edge">
<title>Node10&#45;&gt;Node11</title>
<g id="a_edge10_Node000010_Node000011"><a xlink:title=" ">
<path fill="none" stroke="#63b8ff" d="M329.45,-54.98C313.11,-46.57 287.87,-33.59 268.87,-23.81"/>
<polygon fill="#63b8ff" stroke="#63b8ff" points="270.34,-20.63 259.85,-19.17 267.14,-26.86 270.34,-20.63"/>
</a>
</g>
</g>
<!-- Node12 -->
<g id="Node000012" class="node">
<title>Node12</title>
<g id="a_Node000012"><a xlink:title=" ">
<polygon fill="#e0e0e0" stroke="#999999" points="392.5,-19 299.5,-19 299.5,0 392.5,0 392.5,-19"/>
<text text-anchor="middle" x="346" y="-7" font-family="Helvetica,sans-Serif" font-size="10.00">Eigen/StdVector</text>
</a>
</g>
</g>
<!-- Node10&#45;&gt;Node12 -->
<g id="edge11_Node000010_Node000012" class="edge">
<title>Node10&#45;&gt;Node12</title>
<g id="a_edge11_Node000010_Node000012"><a xlink:title=" ">
<path fill="none" stroke="#63b8ff" d="M346,-54.75C346,-47.8 346,-37.85 346,-29.13"/>
<polygon fill="#63b8ff" stroke="#63b8ff" points="349.5,-29.09 346,-19.09 342.5,-29.09 349.5,-29.09"/>
</a>
</g>
</g>
<!-- Node13 -->
<g id="Node000013" class="node">
<title>Node13</title>
<g id="a_Node000013"><a xlink:title=" ">
<polygon fill="#e0e0e0" stroke="#999999" points="477.5,-19 410.5,-19 410.5,0 477.5,0 477.5,-19"/>
<text text-anchor="middle" x="444" y="-7" font-family="Helvetica,sans-Serif" font-size="10.00">fmt/core.h</text>
</a>
</g>
</g>
<!-- Node10&#45;&gt;Node13 -->
<g id="edge12_Node000010_Node000013" class="edge">
<title>Node10&#45;&gt;Node13</title>
<g id="a_edge12_Node000010_Node000013"><a xlink:title=" ">
<path fill="none" stroke="#63b8ff" d="M361.75,-54.98C377.23,-46.61 401.09,-33.7 419.14,-23.95"/>
<polygon fill="#63b8ff" stroke="#63b8ff" points="420.84,-27.01 427.97,-19.17 417.51,-20.85 420.84,-27.01"/>
</a>
</g>
</g>
<!-- Node15 -->
<g id="Node000015" class="node">
<title>Node15</title>
<g id="a_Node000015"><a xlink:href="shell_8h.html" target="_top" xlink:title=" ">
<polygon fill="white" stroke="#666666" points="461.5,-239 374.5,-239 374.5,-220 461.5,-220 461.5,-239"/>
<text text-anchor="middle" x="418" y="-227" font-family="Helvetica,sans-Serif" font-size="10.00">occ/gto/shell.h</text>
</a>
</g>
</g>
<!-- Node14&#45;&gt;Node15 -->
<g id="edge14_Node000014_Node000015" class="edge">
<title>Node14&#45;&gt;Node15</title>
<g id="a_edge14_Node000014_Node000015"><a xlink:title=" ">
<path fill="none" stroke="#63b8ff" d="M507.81,-274.98C490.75,-266.54 464.37,-253.47 444.6,-243.68"/>
<polygon fill="#63b8ff" stroke="#63b8ff" points="446.02,-240.47 435.5,-239.17 442.91,-246.75 446.02,-240.47"/>
</a>
</g>
</g>
<!-- Node23 -->
<g id="Node000023" class="node">
<title>Node23</title>
<g id="a_Node000023"><a xlink:href="orbital__smearing_8h.html" target="_top" xlink:title=" ">
<polygon fill="white" stroke="#666666" points="664,-184 518,-184 518,-165 664,-165 664,-184"/>
<text text-anchor="middle" x="591" y="-172" font-family="Helvetica,sans-Serif" font-size="10.00">occ/qm/orbital_smearing.h</text>
</a>
</g>
</g>
<!-- Node14&#45;&gt;Node23 -->
<g id="edge31_Node000014_Node000023" class="edge">
<title>Node14&#45;&gt;Node23</title>
<g id="a_edge31_Node000014_Node000023"><a xlink:title=" ">
<path fill="none" stroke="#63b8ff" d="M530.4,-274.66C541.33,-256.77 566.25,-216 580.49,-192.69"/>
<polygon fill="#63b8ff" stroke="#63b8ff" points="583.48,-194.52 585.71,-184.16 577.51,-190.87 583.48,-194.52"/>
</a>
</g>
</g>
<!-- Node14&#45;&gt;Node24 -->
<g id="edge33_Node000014_Node000024" class="edge">
<title>Node14&#45;&gt;Node24</title>
<g id="a_edge33_Node000014_Node000024"><a xlink:title=" ">
<path fill="none" stroke="#63b8ff" d="M565.08,-278.42C636.53,-269.36 786.64,-250.32 874.66,-239.17"/>
<polygon fill="#63b8ff" stroke="#63b8ff" points="875.33,-242.61 884.81,-237.88 874.45,-235.66 875.33,-242.61"/>
</a>
</g>
</g>
<!-- Node15&#45;&gt;Node6 -->
<g id="edge30_Node000015_Node000006" class="edge">
<title>Node15&#45;&gt;Node6</title>
<g id="a_edge30_Node000015_Node000006"><a xlink:title=" ">
<path fill="none" stroke="#63b8ff" d="M421.93,-219.66C429.81,-201.93 447.68,-161.73 458.08,-138.32"/>
<polygon fill="#63b8ff" stroke="#63b8ff" points="461.29,-139.72 462.15,-129.16 454.89,-136.87 461.29,-139.72"/>
</a>
</g>
</g>
<!-- Node15&#45;&gt;Node7 -->
<g id="edge19_Node000015_Node000007" class="edge">
<title>Node15&#45;&gt;Node7</title>
<g id="a_edge19_Node000015_Node000007"><a xlink:title=" ">
<path fill="none" stroke="#63b8ff" d="M390.04,-219.98C360.7,-211.05 314.4,-196.94 281.81,-187.02"/>
<polygon fill="#63b8ff" stroke="#63b8ff" points="282.76,-183.65 272.18,-184.08 280.72,-190.34 282.76,-183.65"/>
</a>
</g>
</g>
<!-- Node15&#45;&gt;Node8 -->
<g id="edge15_Node000015_Node000008" class="edge">
<title>Node15&#45;&gt;Node8</title>
<g id="a_edge15_Node000015_Node000008"><a xlink:title=" ">
<path fill="none" stroke="#63b8ff" d="M374.41,-221.07C303.46,-208.93 170.65,-185.97 169,-184 158.42,-171.36 164.2,-152.4 171.08,-138.49"/>
<polygon fill="#63b8ff" stroke="#63b8ff" points="174.32,-139.86 176.07,-129.41 168.19,-136.49 174.32,-139.86"/>
</a>
</g>
</g>
<!-- Node15&#45;&gt;Node9 -->
<g id="edge17_Node000015_Node000009" class="edge">
<title>Node15&#45;&gt;Node9</title>
<g id="a_edge17_Node000015_Node000009"><a xlink:title=" ">
<path fill="none" stroke="#63b8ff" d="M406.07,-219.71C394.48,-211.02 376.56,-197.15 362,-184 344.95,-168.61 326.74,-149.61 314.49,-136.43"/>
<polygon fill="#63b8ff" stroke="#63b8ff" points="317.05,-134.04 307.71,-129.05 311.9,-138.78 317.05,-134.04"/>
</a>
</g>
</g>
<!-- Node15&#45;&gt;Node10 -->
<g id="edge18_Node000015_Node000010" class="edge">
<title>Node15&#45;&gt;Node10</title>
<g id="a_edge18_Node000015_Node000010"><a xlink:title=" ">
<path fill="none" stroke="#63b8ff" d="M414.13,-219.74C402.8,-194.09 369.54,-118.78 354.07,-83.78"/>
<polygon fill="#63b8ff" stroke="#63b8ff" points="357.13,-82.04 349.89,-74.31 350.73,-84.87 357.13,-82.04"/>
</a>
</g>
</g>
<!-- Node15&#45;&gt;Node13 -->
<g id="edge16_Node000015_Node000013" class="edge">
<title>Node15&#45;&gt;Node13</title>
<g id="a_edge16_Node000015_Node000013"><a xlink:title=" ">
<path fill="none" stroke="#63b8ff" d="M419.02,-219.95C422.84,-187.95 436.35,-74.68 441.75,-29.4"/>
<polygon fill="#63b8ff" stroke="#63b8ff" points="445.25,-29.57 442.96,-19.22 438.3,-28.74 445.25,-29.57"/>
</a>
</g>
</g>
<!-- Node16 -->
<g id="Node000016" class="node">
<title>Node16</title>
<g id="a_Node000016"><a xlink:href="util_8h.html" target="_top" xlink:title=" ">
<polygon fill="white" stroke="#666666" points="838.5,-184 753.5,-184 753.5,-165 838.5,-165 838.5,-184"/>
<text text-anchor="middle" x="796" y="-172" font-family="Helvetica,sans-Serif" font-size="10.00">occ/core/util.h</text>
</a>
</g>
</g>
<!-- Node15&#45;&gt;Node16 -->
<g id="edge20_Node000015_Node000016" class="edge">
<title>Node15&#45;&gt;Node16</title>
<g id="a_edge20_Node000015_Node000016"><a xlink:title=" ">
<path fill="none" stroke="#63b8ff" d="M461.73,-222.37C531.52,-212.58 667.85,-193.47 743.05,-182.92"/>
<polygon fill="#63b8ff" stroke="#63b8ff" points="743.82,-186.35 753.24,-181.5 742.85,-179.42 743.82,-186.35"/>
</a>
</g>
</g>
<!-- Node16&#45;&gt;Node6 -->
<g id="edge29_Node000016_Node000006" class="edge">
<title>Node16&#45;&gt;Node6</title>
<g id="a_edge29_Node000016_Node000006"><a xlink:title=" ">
<path fill="none" stroke="#63b8ff" d="M753.2,-166.63C686.73,-155.95 560.08,-135.61 499.68,-125.91"/>
<polygon fill="#63b8ff" stroke="#63b8ff" points="499.97,-122.41 489.54,-124.28 498.86,-129.32 499.97,-122.41"/>
</a>
</g>
</g>
<!-- Node16&#45;&gt;Node10 -->
<g id="edge27_Node000016_Node000010" class="edge">
<title>Node16&#45;&gt;Node10</title>
<g id="a_edge27_Node000016_Node000010"><a xlink:title=" ">
<path fill="none" stroke="#63b8ff" d="M796.21,-164.91C796.05,-150.99 793.49,-123.65 777,-110 750.57,-88.12 542.93,-74.83 425.77,-68.99"/>
<polygon fill="#63b8ff" stroke="#63b8ff" points="425.93,-65.5 415.77,-68.5 425.58,-72.49 425.93,-65.5"/>
</a>
</g>
</g>
<!-- Node16&#45;&gt;Node13 -->
<g id="edge24_Node000016_Node000013" class="edge">
<title>Node16&#45;&gt;Node13</title>
<g id="a_edge24_Node000016_Node000013"><a xlink:title=" ">
<path fill="none" stroke="#63b8ff" d="M799.24,-164.66C803.5,-151.34 809.11,-126 797,-110 759.42,-60.36 573.28,-28.5 487.47,-16.22"/>
<polygon fill="#63b8ff" stroke="#63b8ff" points="487.91,-12.75 477.52,-14.82 486.93,-19.68 487.91,-12.75"/>
</a>
</g>
</g>
<!-- Node17 -->
<g id="Node000017" class="node">
<title>Node17</title>
<g id="a_Node000017"><a xlink:title=" ">
<polygon fill="#e0e0e0" stroke="#999999" points="926,-129 862,-129 862,-110 926,-110 926,-129"/>
<text text-anchor="middle" x="894" y="-117" font-family="Helvetica,sans-Serif" font-size="10.00">algorithm</text>
</a>
</g>
</g>
<!-- Node16&#45;&gt;Node17 -->
<g id="edge21_Node000016_Node000017" class="edge">
<title>Node16&#45;&gt;Node17</title>
<g id="a_edge21_Node000016_Node000017"><a xlink:title=" ">
<path fill="none" stroke="#63b8ff" d="M811.75,-164.98C827.23,-156.61 851.09,-143.7 869.14,-133.95"/>
<polygon fill="#63b8ff" stroke="#63b8ff" points="870.84,-137.01 877.97,-129.17 867.51,-130.85 870.84,-137.01"/>
</a>
</g>
</g>
<!-- Node18 -->
<g id="Node000018" class="node">
<title>Node18</title>
<g id="a_Node000018"><a xlink:title=" ">
<polygon fill="#e0e0e0" stroke="#999999" points="993.5,-129 944.5,-129 944.5,-110 993.5,-110 993.5,-129"/>
<text text-anchor="middle" x="969" y="-117" font-family="Helvetica,sans-Serif" font-size="10.00">cctype</text>
</a>
</g>
</g>
<!-- Node16&#45;&gt;Node18 -->
<g id="edge22_Node000016_Node000018" class="edge">
<title>Node16&#45;&gt;Node18</title>
<g id="a_edge22_Node000016_Node000018"><a xlink:title=" ">
<path fill="none" stroke="#63b8ff" d="M823.8,-164.98C853.87,-155.77 901.89,-141.06 934.39,-131.1"/>
<polygon fill="#63b8ff" stroke="#63b8ff" points="935.82,-134.33 944.36,-128.05 933.77,-127.63 935.82,-134.33"/>
</a>
</g>
</g>
<!-- Node19 -->
<g id="Node000019" class="node">
<title>Node19</title>
<g id="a_Node000019"><a xlink:title=" ">
<polygon fill="#e0e0e0" stroke="#999999" points="1062,-129 1012,-129 1012,-110 1062,-110 1062,-129"/>
<text text-anchor="middle" x="1037" y="-117" font-family="Helvetica,sans-Serif" font-size="10.00">chrono</text>
</a>
</g>
</g>
<!-- Node16&#45;&gt;Node19 -->
<g id="edge23_Node000016_Node000019" class="edge">
<title>Node16&#45;&gt;Node19</title>
<g id="a_edge23_Node000016_Node000019"><a xlink:title=" ">
<path fill="none" stroke="#63b8ff" d="M837.72,-164.96C877.47,-156.72 939.22,-143.68 1001.74,-129.24"/>
<polygon fill="#63b8ff" stroke="#63b8ff" points="1002.82,-132.58 1011.77,-126.91 1001.24,-125.76 1002.82,-132.58"/>
</a>
</g>
</g>
<!-- Node20 -->
<g id="Node000020" class="node">
<title>Node20</title>
<g id="a_Node000020"><a xlink:title=" ">
<polygon fill="#e0e0e0" stroke="#999999" points="632,-129 546,-129 546,-110 632,-110 632,-129"/>
<text text-anchor="middle" x="589" y="-117" font-family="Helvetica,sans-Serif" font-size="10.00">fmt/ostream.h</text>
</a>
</g>
</g>
<!-- Node16&#45;&gt;Node20 -->
<g id="edge25_Node000016_Node000020" class="edge">
<title>Node16&#45;&gt;Node20</title>
<g id="a_edge25_Node000016_Node000020"><a xlink:title=" ">
<path fill="none" stroke="#63b8ff" d="M762.74,-164.98C727.39,-155.93 671.33,-141.58 632.49,-131.64"/>
<polygon fill="#63b8ff" stroke="#63b8ff" points="633.07,-128.17 622.52,-129.08 631.34,-134.95 633.07,-128.17"/>
</a>
</g>
</g>
<!-- Node21 -->
<g id="Node000021" class="node">
<title>Node21</title>
<g id="a_Node000021"><a xlink:title=" ">
<polygon fill="#e0e0e0" stroke="#999999" points="706,-129 650,-129 650,-110 706,-110 706,-129"/>
<text text-anchor="middle" x="678" y="-117" font-family="Helvetica,sans-Serif" font-size="10.00">numeric</text>
</a>
</g>
</g>
<!-- Node16&#45;&gt;Node21 -->
<g id="edge26_Node000016_Node000021" class="edge">
<title>Node16&#45;&gt;Node21</title>
<g id="a_edge26_Node000016_Node000021"><a xlink:title=" ">
<path fill="none" stroke="#63b8ff" d="M777.04,-164.98C757.97,-156.42 728.34,-143.11 706.45,-133.28"/>
<polygon fill="#63b8ff" stroke="#63b8ff" points="707.86,-130.07 697.3,-129.17 704.99,-136.46 707.86,-130.07"/>
</a>
</g>
</g>
<!-- Node22 -->
<g id="Node000022" class="node">
<title>Node22</title>
<g id="a_Node000022"><a xlink:title=" ">
<polygon fill="#e0e0e0" stroke="#999999" points="768,-129 724,-129 724,-110 768,-110 768,-129"/>
<text text-anchor="middle" x="746" y="-117" font-family="Helvetica,sans-Serif" font-size="10.00">string</text>
</a>
</g>
</g>
<!-- Node16&#45;&gt;Node22 -->
<g id="edge28_Node000016_Node000022" class="edge">
<title>Node16&#45;&gt;Node22</title>
<g id="a_edge28_Node000016_Node000022"><a xlink:title=" ">
<path fill="none" stroke="#63b8ff" d="M787.74,-164.75C780.54,-157.11 769.89,-145.82 761.15,-136.56"/>
<polygon fill="#63b8ff" stroke="#63b8ff" points="763.51,-133.96 754.1,-129.09 758.42,-138.76 763.51,-133.96"/>
</a>
</g>
</g>
<!-- Node23&#45;&gt;Node10 -->
<g id="edge32_Node000023_Node000010" class="edge">
<title>Node23&#45;&gt;Node10</title>
<g id="a_edge32_Node000023_Node000010"><a xlink:title=" ">
<path fill="none" stroke="#63b8ff" d="M580.92,-164.89C564.67,-151.43 531.25,-125.33 499,-110 467.01,-94.8 428.75,-83.67 398.49,-76.35"/>
<polygon fill="#63b8ff" stroke="#63b8ff" points="399.1,-72.89 388.56,-74.01 397.49,-79.71 399.1,-72.89"/>
</a>
</g>
</g>
<!-- Node24&#45;&gt;Node10 -->
<g id="edge34_Node000024_Node000010" class="edge">
<title>Node24&#45;&gt;Node10</title>
<g id="a_edge34_Node000024_Node000010"><a xlink:title=" ">
<path fill="none" stroke="#63b8ff" d="M965.7,-219.88C1012.54,-200.92 1112.18,-153.79 1071,-110 1049.17,-86.78 609.63,-72.48 425.77,-67.5"/>
<polygon fill="#63b8ff" stroke="#63b8ff" points="425.71,-63.99 415.62,-67.22 425.52,-70.99 425.71,-63.99"/>
</a>
</g>
</g>
<!-- Node24&#45;&gt;Node16 -->
<g id="edge35_Node000024_Node000016" class="edge">
<title>Node24&#45;&gt;Node16</title>
<g id="a_edge35_Node000024_Node000016"><a xlink:title=" ">
<path fill="none" stroke="#63b8ff" d="M919.38,-219.98C895.1,-211.23 857.05,-197.51 829.63,-187.62"/>
<polygon fill="#63b8ff" stroke="#63b8ff" points="830.64,-184.27 820.05,-184.17 828.27,-190.85 830.64,-184.27"/>
</a>
</g>
</g>
<!-- Node25 -->
<g id="Node000025" class="node">
<title>Node25</title>
<g id="a_Node000025"><a xlink:href="qm_2opmatrix_8h.html" target="_top" xlink:title=" ">
<polygon fill="white" stroke="#666666" points="1226,-184 1118,-184 1118,-165 1226,-165 1226,-184"/>
<text text-anchor="middle" x="1172" y="-172" font-family="Helvetica,sans-Serif" font-size="10.00">occ/qm/opmatrix.h</text>
</a>
</g>
</g>
<!-- Node24&#45;&gt;Node25 -->
<g id="edge36_Node000024_Node000025" class="edge">
<title>Node24&#45;&gt;Node25</title>
<g id="a_edge36_Node000024_Node000025"><a xlink:title=" ">
<path fill="none" stroke="#63b8ff" d="M974.68,-219.98C1012.27,-210.82 1075.23,-196.21 1119.97,-186.26"/>
<polygon fill="#63b8ff" stroke="#63b8ff" points="1120.78,-189.66 1129.79,-184.08 1119.27,-182.83 1120.78,-189.66"/>
</a>
</g>
</g>
<!-- Node25&#45;&gt;Node24 -->
<g id="edge37_Node000025_Node000024" class="edge">
<title>Node25&#45;&gt;Node24</title>
<g id="a_edge37_Node000025_Node000024"><a xlink:title=" ">
<path fill="none" stroke="#63b8ff" d="M1140.05,-184.08C1102.34,-193.28 1039.36,-207.88 994.71,-217.82"/>
<polygon fill="#63b8ff" stroke="#63b8ff" points="993.91,-214.41 984.91,-219.98 995.43,-221.24 993.91,-214.41"/>
</a>
</g>
</g>
</g>
</svg>
