<?xml version="1.0" encoding="UTF-8" standalone="no"?>
<!DOCTYPE svg PUBLIC "-//W3C//DTD SVG 1.1//EN"
 "http://www.w3.org/Graphics/SVG/1.1/DTD/svg11.dtd">
<!-- Generated by graphviz version 2.43.0 (0)
 -->
<!-- Title: /home/runner/work/occ/occ/include/occ/dft/seminumerical_exchange.h Pages: 1 -->
<svg width="1434pt" height="442pt"
 viewBox="0.00 0.00 1434.00 442.00" xmlns="http://www.w3.org/2000/svg" xmlns:xlink="http://www.w3.org/1999/xlink">
<g id="graph0" class="graph" transform="scale(1 1) rotate(0) translate(4 438)">
<title>/home/runner/work/occ/occ/include/occ/dft/seminumerical_exchange.h</title>
<!-- Node1 -->
<g id="node1" class="node">
<title>Node1</title>
<g id="a_node1"><a xlink:title=" ">
<polygon fill="#bfbfbf" stroke="black" points="654,-392.5 654,-433.5 808,-433.5 808,-392.5 654,-392.5"/>
<text text-anchor="start" x="662" y="-421.5" font-family="Helvetica,sans-Serif" font-size="10.00">/home/runner/work/occ</text>
<text text-anchor="start" x="662" y="-410.5" font-family="Helvetica,sans-Serif" font-size="10.00">/occ/include/occ/dft</text>
<text text-anchor="middle" x="731" y="-399.5" font-family="Helvetica,sans-Serif" font-size="10.00">/seminumerical_exchange.h</text>
</a>
</g>
</g>
<!-- Node2 -->
<g id="node2" class="node">
<title>Node2</title>
<g id="a_node2"><a xlink:href="atom_8h.html" target="_top" xlink:title=" ">
<polygon fill="none" stroke="black" points="1030.5,-112.5 1030.5,-131.5 1125.5,-131.5 1125.5,-112.5 1030.5,-112.5"/>
<text text-anchor="middle" x="1078" y="-119.5" font-family="Helvetica,sans-Serif" font-size="10.00">occ/core/atom.h</text>
</a>
</g>
</g>
<!-- Node1&#45;&gt;Node2 -->
<g id="edge1" class="edge">
<title>Node1&#45;&gt;Node2</title>
<path fill="none" stroke="midnightblue" d="M808.15,-412.88C974.08,-412.7 1350,-400.23 1350,-291 1350,-291 1350,-291 1350,-233 1350,-202.77 1352.63,-188.03 1330,-168 1326.34,-164.76 1208.96,-144.77 1135.71,-132.54"/>
<polygon fill="midnightblue" stroke="midnightblue" points="1136.12,-129.06 1125.68,-130.87 1134.97,-135.97 1136.12,-129.06"/>
</g>
<!-- Node3 -->
<g id="node3" class="node">
<title>Node3</title>
<g id="a_node3"><a xlink:href="linear__algebra_8h.html" target="_top" xlink:title=" ">
<polygon fill="none" stroke="black" points="827.5,-56.5 827.5,-75.5 966.5,-75.5 966.5,-56.5 827.5,-56.5"/>
<text text-anchor="middle" x="897" y="-63.5" font-family="Helvetica,sans-Serif" font-size="10.00">occ/core/linear_algebra.h</text>
</a>
</g>
</g>
<!-- Node1&#45;&gt;Node3 -->
<g id="edge6" class="edge">
<title>Node1&#45;&gt;Node3</title>
<path fill="none" stroke="midnightblue" d="M808.19,-409.1C946.05,-403.18 1228.84,-387.55 1322,-356 1373.63,-338.52 1426,-345.51 1426,-291 1426,-291 1426,-291 1426,-177 1426,-86.42 1124.97,-69.91 977.08,-67.26"/>
<polygon fill="midnightblue" stroke="midnightblue" points="976.76,-63.75 966.7,-67.09 976.64,-70.75 976.76,-63.75"/>
</g>
<!-- Node7 -->
<g id="node7" class="node">
<title>Node7</title>
<g id="a_node7"><a xlink:href="grid_8h.html" target="_top" xlink:title=" ">
<polygon fill="none" stroke="black" points="144,-280.5 144,-299.5 224,-299.5 224,-280.5 144,-280.5"/>
<text text-anchor="middle" x="184" y="-287.5" font-family="Helvetica,sans-Serif" font-size="10.00">occ/dft/grid.h</text>
</a>
</g>
</g>
<!-- Node1&#45;&gt;Node7 -->
<g id="edge7" class="edge">
<title>Node1&#45;&gt;Node7</title>
<path fill="none" stroke="midnightblue" d="M653.79,-394.92C539.28,-369.59 327.75,-322.8 232.6,-301.75"/>
<polygon fill="midnightblue" stroke="midnightblue" points="233.19,-298.3 222.67,-299.55 231.68,-305.13 233.19,-298.3"/>
</g>
<!-- Node20 -->
<g id="node20" class="node">
<title>Node20</title>
<g id="a_node20"><a xlink:title=" ">
<polygon fill="none" stroke="#bfbfbf" points="230.5,-112.5 230.5,-131.5 277.5,-131.5 277.5,-112.5 230.5,-112.5"/>
<text text-anchor="middle" x="254" y="-119.5" font-family="Helvetica,sans-Serif" font-size="10.00">vector</text>
</a>
</g>
</g>
<!-- Node1&#45;&gt;Node20 -->
<g id="edge68" class="edge">
<title>Node1&#45;&gt;Node20</title>
<path fill="none" stroke="midnightblue" d="M653.81,-407.24C465.9,-394.63 0,-356.73 0,-291 0,-291 0,-291 0,-233 0,-138.35 150.36,-124.23 219.71,-122.75"/>
<polygon fill="midnightblue" stroke="midnightblue" points="220.15,-126.25 230.1,-122.61 220.06,-119.25 220.15,-126.25"/>
</g>
<!-- Node22 -->
<g id="node22" class="node">
<title>Node22</title>
<g id="a_node22"><a xlink:href="integral__engine_8h.html" target="_top" xlink:title=" ">
<polygon fill="none" stroke="black" points="763,-336.5 763,-355.5 903,-355.5 903,-336.5 763,-336.5"/>
<text text-anchor="middle" x="833" y="-343.5" font-family="Helvetica,sans-Serif" font-size="10.00">occ/qm/integral_engine.h</text>
</a>
</g>
</g>
<!-- Node1&#45;&gt;Node22 -->
<g id="edge32" class="edge">
<title>Node1&#45;&gt;Node22</title>
<path fill="none" stroke="midnightblue" d="M761.6,-392.5C777.39,-382.44 796.3,-370.38 810.7,-361.21"/>
<polygon fill="midnightblue" stroke="midnightblue" points="812.87,-363.98 819.42,-355.65 809.11,-358.08 812.87,-363.98"/>
</g>
<!-- Node35 -->
<g id="node35" class="node">
<title>Node35</title>
<g id="a_node35"><a xlink:href="mo_8h.html" target="_top" xlink:title=" ">
<polygon fill="none" stroke="black" points="404,-280.5 404,-299.5 484,-299.5 484,-280.5 404,-280.5"/>
<text text-anchor="middle" x="444" y="-287.5" font-family="Helvetica,sans-Serif" font-size="10.00">occ/qm/mo.h</text>
</a>
</g>
</g>
<!-- Node1&#45;&gt;Node35 -->
<g id="edge67" class="edge">
<title>Node1&#45;&gt;Node35</title>
<path fill="none" stroke="midnightblue" d="M684.57,-392.42C625.08,-367.34 523.68,-324.59 473.68,-303.51"/>
<polygon fill="midnightblue" stroke="midnightblue" points="474.96,-300.26 464.39,-299.6 472.24,-306.71 474.96,-300.26"/>
</g>
<!-- Node2&#45;&gt;Node3 -->
<g id="edge2" class="edge">
<title>Node2&#45;&gt;Node3</title>
<path fill="none" stroke="midnightblue" d="M1049.32,-112.44C1018.47,-103.24 969.27,-88.56 935.17,-78.39"/>
<polygon fill="midnightblue" stroke="midnightblue" points="936.13,-75.02 925.55,-75.52 934.13,-81.73 936.13,-75.02"/>
</g>
<!-- Node4 -->
<g id="node4" class="node">
<title>Node4</title>
<g id="a_node4"><a xlink:title=" ">
<polygon fill="none" stroke="#bfbfbf" points="910.5,-0.5 910.5,-19.5 987.5,-19.5 987.5,-0.5 910.5,-0.5"/>
<text text-anchor="middle" x="949" y="-7.5" font-family="Helvetica,sans-Serif" font-size="10.00">Eigen/Dense</text>
</a>
</g>
</g>
<!-- Node3&#45;&gt;Node4 -->
<g id="edge3" class="edge">
<title>Node3&#45;&gt;Node4</title>
<path fill="none" stroke="midnightblue" d="M905.59,-56.08C913.16,-48.22 924.38,-36.57 933.51,-27.08"/>
<polygon fill="midnightblue" stroke="midnightblue" points="936.16,-29.38 940.57,-19.75 931.12,-24.53 936.16,-29.38"/>
</g>
<!-- Node5 -->
<g id="node5" class="node">
<title>Node5</title>
<g id="a_node5"><a xlink:title=" ">
<polygon fill="none" stroke="#bfbfbf" points="799.5,-0.5 799.5,-19.5 892.5,-19.5 892.5,-0.5 799.5,-0.5"/>
<text text-anchor="middle" x="846" y="-7.5" font-family="Helvetica,sans-Serif" font-size="10.00">Eigen/StdVector</text>
</a>
</g>
</g>
<!-- Node3&#45;&gt;Node5 -->
<g id="edge4" class="edge">
<title>Node3&#45;&gt;Node5</title>
<path fill="none" stroke="midnightblue" d="M888.58,-56.08C881.15,-48.22 870.15,-36.57 861.19,-27.08"/>
<polygon fill="midnightblue" stroke="midnightblue" points="863.68,-24.62 854.26,-19.75 858.59,-29.42 863.68,-24.62"/>
</g>
<!-- Node6 -->
<g id="node6" class="node">
<title>Node6</title>
<g id="a_node6"><a xlink:title=" ">
<polygon fill="none" stroke="#bfbfbf" points="577,-0.5 577,-19.5 663,-19.5 663,-0.5 577,-0.5"/>
<text text-anchor="middle" x="620" y="-7.5" font-family="Helvetica,sans-Serif" font-size="10.00">fmt/ostream.h</text>
</a>
</g>
</g>
<!-- Node3&#45;&gt;Node6 -->
<g id="edge5" class="edge">
<title>Node3&#45;&gt;Node6</title>
<path fill="none" stroke="midnightblue" d="M853.11,-56.44C804.34,-46.94 725.59,-31.58 673.32,-21.39"/>
<polygon fill="midnightblue" stroke="midnightblue" points="673.72,-17.91 663.23,-19.43 672.38,-24.78 673.72,-17.91"/>
</g>
<!-- Node7&#45;&gt;Node3 -->
<g id="edge8" class="edge">
<title>Node7&#45;&gt;Node3</title>
<path fill="none" stroke="midnightblue" d="M182.62,-280.24C178.59,-251.03 170.06,-156.28 221,-112 265.09,-73.67 647.96,-67.73 817.16,-66.99"/>
<polygon fill="midnightblue" stroke="midnightblue" points="817.28,-70.49 827.26,-66.95 817.25,-63.49 817.28,-70.49"/>
</g>
<!-- Node8 -->
<g id="node8" class="node">
<title>Node8</title>
<g id="a_node8"><a xlink:href="grid__settings_8h.html" target="_top" xlink:title=" ">
<polygon fill="none" stroke="black" points="28,-224.5 28,-243.5 148,-243.5 148,-224.5 28,-224.5"/>
<text text-anchor="middle" x="88" y="-231.5" font-family="Helvetica,sans-Serif" font-size="10.00">occ/io/grid_settings.h</text>
</a>
</g>
</g>
<!-- Node7&#45;&gt;Node8 -->
<g id="edge9" class="edge">
<title>Node7&#45;&gt;Node8</title>
<path fill="none" stroke="midnightblue" d="M168.58,-280.32C153.46,-271.82 130.18,-258.73 112.53,-248.8"/>
<polygon fill="midnightblue" stroke="midnightblue" points="113.82,-245.51 103.39,-243.65 110.39,-251.61 113.82,-245.51"/>
</g>
<!-- Node9 -->
<g id="node9" class="node">
<title>Node9</title>
<g id="a_node9"><a xlink:href="shell_8h.html" target="_top" xlink:title=" ">
<polygon fill="none" stroke="black" points="781.5,-224.5 781.5,-243.5 868.5,-243.5 868.5,-224.5 781.5,-224.5"/>
<text text-anchor="middle" x="825" y="-231.5" font-family="Helvetica,sans-Serif" font-size="10.00">occ/qm/shell.h</text>
</a>
</g>
</g>
<!-- Node7&#45;&gt;Node9 -->
<g id="edge10" class="edge">
<title>Node7&#45;&gt;Node9</title>
<path fill="none" stroke="midnightblue" d="M224.26,-284.65C238.96,-283.11 255.73,-281.41 271,-280 454.29,-263.08 672.01,-246.39 771.1,-238.98"/>
<polygon fill="midnightblue" stroke="midnightblue" points="771.45,-242.47 781.16,-238.23 770.93,-235.48 771.45,-242.47"/>
</g>
<!-- Node7&#45;&gt;Node20 -->
<g id="edge31" class="edge">
<title>Node7&#45;&gt;Node20</title>
<path fill="none" stroke="midnightblue" d="M187.76,-280.08C198.83,-253.83 231.42,-176.55 246.36,-141.12"/>
<polygon fill="midnightblue" stroke="midnightblue" points="249.73,-142.14 250.39,-131.57 243.28,-139.42 249.73,-142.14"/>
</g>
<!-- Node9&#45;&gt;Node2 -->
<g id="edge13" class="edge">
<title>Node9&#45;&gt;Node2</title>
<path fill="none" stroke="midnightblue" d="M868.62,-224.97C930.21,-213.5 1036,-193.22 1043,-188 1058.38,-176.54 1067.74,-156.26 1072.86,-141.39"/>
<polygon fill="midnightblue" stroke="midnightblue" points="1076.24,-142.32 1075.87,-131.73 1069.56,-140.24 1076.24,-142.32"/>
</g>
<!-- Node9&#45;&gt;Node3 -->
<g id="edge14" class="edge">
<title>Node9&#45;&gt;Node3</title>
<path fill="none" stroke="midnightblue" d="M820.05,-224.44C813.01,-210.98 802.28,-184.72 815,-168 851.3,-120.28 908.7,-179.72 945,-132 958.06,-114.83 938.1,-94.82 920.08,-81.59"/>
<polygon fill="midnightblue" stroke="midnightblue" points="921.76,-78.49 911.54,-75.68 917.77,-84.25 921.76,-78.49"/>
</g>
<!-- Node10 -->
<g id="node10" class="node">
<title>Node10</title>
<g id="a_node10"><a xlink:title=" ">
<polygon fill="none" stroke="#bfbfbf" points="1144,-112.5 1144,-131.5 1186,-131.5 1186,-112.5 1144,-112.5"/>
<text text-anchor="middle" x="1165" y="-119.5" font-family="Helvetica,sans-Serif" font-size="10.00">array</text>
</a>
</g>
</g>
<!-- Node9&#45;&gt;Node10 -->
<g id="edge11" class="edge">
<title>Node9&#45;&gt;Node10</title>
<path fill="none" stroke="midnightblue" d="M868.77,-225.29C935.74,-213.42 1056.89,-191.67 1066,-188 1096.76,-175.61 1128.06,-153.03 1147.01,-138.02"/>
<polygon fill="midnightblue" stroke="midnightblue" points="1149.23,-140.73 1154.8,-131.72 1144.82,-135.29 1149.23,-140.73"/>
</g>
<!-- Node11 -->
<g id="node11" class="node">
<title>Node11</title>
<g id="a_node11"><a xlink:title=" ">
<polygon fill="none" stroke="#bfbfbf" points="824,-168.5 824,-187.5 884,-187.5 884,-168.5 824,-168.5"/>
<text text-anchor="middle" x="854" y="-175.5" font-family="Helvetica,sans-Serif" font-size="10.00">iostream</text>
</a>
</g>
</g>
<!-- Node9&#45;&gt;Node11 -->
<g id="edge12" class="edge">
<title>Node9&#45;&gt;Node11</title>
<path fill="none" stroke="midnightblue" d="M829.79,-224.08C833.76,-216.69 839.53,-205.95 844.43,-196.81"/>
<polygon fill="midnightblue" stroke="midnightblue" points="847.65,-198.22 849.3,-187.75 841.49,-194.91 847.65,-198.22"/>
</g>
<!-- Node12 -->
<g id="node12" class="node">
<title>Node12</title>
<g id="a_node12"><a xlink:href="point__charge_8h.html" target="_top" xlink:title=" ">
<polygon fill="none" stroke="black" points="902,-168.5 902,-187.5 1034,-187.5 1034,-168.5 902,-168.5"/>
<text text-anchor="middle" x="968" y="-175.5" font-family="Helvetica,sans-Serif" font-size="10.00">occ/core/point_charge.h</text>
</a>
</g>
</g>
<!-- Node9&#45;&gt;Node12 -->
<g id="edge15" class="edge">
<title>Node9&#45;&gt;Node12</title>
<path fill="none" stroke="midnightblue" d="M847.66,-224.44C871.4,-215.48 908.91,-201.31 935.74,-191.18"/>
<polygon fill="midnightblue" stroke="midnightblue" points="937.33,-194.32 945.45,-187.52 934.86,-187.77 937.33,-194.32"/>
</g>
<!-- Node13 -->
<g id="node13" class="node">
<title>Node13</title>
<g id="a_node13"><a xlink:href="util_8h.html" target="_top" xlink:title=" ">
<polygon fill="none" stroke="black" points="558.5,-168.5 558.5,-187.5 643.5,-187.5 643.5,-168.5 558.5,-168.5"/>
<text text-anchor="middle" x="601" y="-175.5" font-family="Helvetica,sans-Serif" font-size="10.00">occ/core/util.h</text>
</a>
</g>
</g>
<!-- Node9&#45;&gt;Node13 -->
<g id="edge19" class="edge">
<title>Node9&#45;&gt;Node13</title>
<path fill="none" stroke="midnightblue" d="M789.51,-224.44C750.68,-215.08 688.34,-200.06 646.08,-189.87"/>
<polygon fill="midnightblue" stroke="midnightblue" points="646.87,-186.46 636.33,-187.52 645.23,-193.26 646.87,-186.46"/>
</g>
<!-- Node9&#45;&gt;Node20 -->
<g id="edge30" class="edge">
<title>Node9&#45;&gt;Node20</title>
<path fill="none" stroke="midnightblue" d="M781.26,-227.19C726.63,-219.63 630.44,-205.31 549,-188 514.84,-180.74 507.01,-175.96 473,-168 407.71,-152.71 330.81,-137.57 287.7,-129.33"/>
<polygon fill="midnightblue" stroke="midnightblue" points="288.23,-125.87 277.75,-127.44 286.92,-132.75 288.23,-125.87"/>
</g>
<!-- Node12&#45;&gt;Node2 -->
<g id="edge17" class="edge">
<title>Node12&#45;&gt;Node2</title>
<path fill="none" stroke="midnightblue" d="M985.67,-168.32C1003.39,-159.62 1030.9,-146.12 1051.29,-136.11"/>
<polygon fill="midnightblue" stroke="midnightblue" points="1052.94,-139.2 1060.37,-131.65 1049.85,-132.92 1052.94,-139.2"/>
</g>
<!-- Node12&#45;&gt;Node3 -->
<g id="edge18" class="edge">
<title>Node12&#45;&gt;Node3</title>
<path fill="none" stroke="midnightblue" d="M972.67,-168.34C979.04,-155.21 988.54,-129.91 978,-112 969.08,-96.84 953.01,-86.43 937.52,-79.46"/>
<polygon fill="midnightblue" stroke="midnightblue" points="938.6,-76.12 928.02,-75.56 935.94,-82.6 938.6,-76.12"/>
</g>
<!-- Node12&#45;&gt;Node10 -->
<g id="edge16" class="edge">
<title>Node12&#45;&gt;Node10</title>
<path fill="none" stroke="midnightblue" d="M1000.18,-168.46C1033.66,-159.53 1087.57,-145.03 1134,-132 1134.1,-131.97 1134.2,-131.95 1134.29,-131.92"/>
<polygon fill="midnightblue" stroke="midnightblue" points="1135.01,-135.35 1143.67,-129.25 1133.09,-128.62 1135.01,-135.35"/>
</g>
<!-- Node13&#45;&gt;Node3 -->
<g id="edge26" class="edge">
<title>Node13&#45;&gt;Node3</title>
<path fill="none" stroke="midnightblue" d="M561.47,-168.49C516.53,-158.41 448.41,-141.78 441,-132 435.63,-124.91 435.03,-118.59 441,-112 465.71,-84.73 692.96,-73.37 817.03,-69.17"/>
<polygon fill="midnightblue" stroke="midnightblue" points="817.36,-72.66 827.24,-68.83 817.13,-65.66 817.36,-72.66"/>
</g>
<!-- Node13&#45;&gt;Node6 -->
<g id="edge23" class="edge">
<title>Node13&#45;&gt;Node6</title>
<path fill="none" stroke="midnightblue" d="M558.16,-171.48C513.57,-164.74 448.17,-151.76 433,-132 427.59,-124.95 428.45,-119.63 433,-112 462.7,-62.21 526.38,-35.49 571.15,-22.28"/>
<polygon fill="midnightblue" stroke="midnightblue" points="572.28,-25.6 580.95,-19.51 570.38,-18.86 572.28,-25.6"/>
</g>
<!-- Node14 -->
<g id="node14" class="node">
<title>Node14</title>
<g id="a_node14"><a xlink:title=" ">
<polygon fill="none" stroke="#bfbfbf" points="674,-112.5 674,-131.5 738,-131.5 738,-112.5 674,-112.5"/>
<text text-anchor="middle" x="706" y="-119.5" font-family="Helvetica,sans-Serif" font-size="10.00">algorithm</text>
</a>
</g>
</g>
<!-- Node13&#45;&gt;Node14 -->
<g id="edge20" class="edge">
<title>Node13&#45;&gt;Node14</title>
<path fill="none" stroke="midnightblue" d="M617.87,-168.32C634.71,-159.66 660.81,-146.24 680.24,-136.25"/>
<polygon fill="midnightblue" stroke="midnightblue" points="681.88,-139.34 689.17,-131.65 678.68,-133.12 681.88,-139.34"/>
</g>
<!-- Node15 -->
<g id="node15" class="node">
<title>Node15</title>
<g id="a_node15"><a xlink:title=" ">
<polygon fill="none" stroke="#bfbfbf" points="756.5,-112.5 756.5,-131.5 805.5,-131.5 805.5,-112.5 756.5,-112.5"/>
<text text-anchor="middle" x="781" y="-119.5" font-family="Helvetica,sans-Serif" font-size="10.00">cctype</text>
</a>
</g>
</g>
<!-- Node13&#45;&gt;Node15 -->
<g id="edge21" class="edge">
<title>Node13&#45;&gt;Node15</title>
<path fill="none" stroke="midnightblue" d="M629.52,-168.44C661.23,-158.93 712.45,-143.56 746.42,-133.37"/>
<polygon fill="midnightblue" stroke="midnightblue" points="747.8,-136.61 756.37,-130.39 745.79,-129.91 747.8,-136.61"/>
</g>
<!-- Node16 -->
<g id="node16" class="node">
<title>Node16</title>
<g id="a_node16"><a xlink:title=" ">
<polygon fill="none" stroke="#bfbfbf" points="450.5,-112.5 450.5,-131.5 517.5,-131.5 517.5,-112.5 450.5,-112.5"/>
<text text-anchor="middle" x="484" y="-119.5" font-family="Helvetica,sans-Serif" font-size="10.00">fmt/core.h</text>
</a>
</g>
</g>
<!-- Node13&#45;&gt;Node16 -->
<g id="edge22" class="edge">
<title>Node13&#45;&gt;Node16</title>
<path fill="none" stroke="midnightblue" d="M582.46,-168.44C563.38,-159.64 533.43,-145.81 511.56,-135.72"/>
<polygon fill="midnightblue" stroke="midnightblue" points="513,-132.53 502.45,-131.52 510.07,-138.88 513,-132.53"/>
</g>
<!-- Node17 -->
<g id="node17" class="node">
<title>Node17</title>
<g id="a_node17"><a xlink:title=" ">
<polygon fill="none" stroke="#bfbfbf" points="536,-112.5 536,-131.5 582,-131.5 582,-112.5 536,-112.5"/>
<text text-anchor="middle" x="559" y="-119.5" font-family="Helvetica,sans-Serif" font-size="10.00">locale</text>
</a>
</g>
</g>
<!-- Node13&#45;&gt;Node17 -->
<g id="edge24" class="edge">
<title>Node13&#45;&gt;Node17</title>
<path fill="none" stroke="midnightblue" d="M594.06,-168.08C588.07,-160.38 579.25,-149.03 571.95,-139.65"/>
<polygon fill="midnightblue" stroke="midnightblue" points="574.71,-137.5 565.81,-131.75 569.18,-141.79 574.71,-137.5"/>
</g>
<!-- Node18 -->
<g id="node18" class="node">
<title>Node18</title>
<g id="a_node18"><a xlink:title=" ">
<polygon fill="none" stroke="#bfbfbf" points="600,-112.5 600,-131.5 656,-131.5 656,-112.5 600,-112.5"/>
<text text-anchor="middle" x="628" y="-119.5" font-family="Helvetica,sans-Serif" font-size="10.00">numeric</text>
</a>
</g>
</g>
<!-- Node13&#45;&gt;Node18 -->
<g id="edge25" class="edge">
<title>Node13&#45;&gt;Node18</title>
<path fill="none" stroke="midnightblue" d="M605.46,-168.08C609.15,-160.69 614.52,-149.95 619.09,-140.81"/>
<polygon fill="midnightblue" stroke="midnightblue" points="622.28,-142.26 623.62,-131.75 616.02,-139.13 622.28,-142.26"/>
</g>
<!-- Node19 -->
<g id="node19" class="node">
<title>Node19</title>
<g id="a_node19"><a xlink:title=" ">
<polygon fill="none" stroke="#bfbfbf" points="892,-112.5 892,-131.5 936,-131.5 936,-112.5 892,-112.5"/>
<text text-anchor="middle" x="914" y="-119.5" font-family="Helvetica,sans-Serif" font-size="10.00">string</text>
</a>
</g>
</g>
<!-- Node13&#45;&gt;Node19 -->
<g id="edge27" class="edge">
<title>Node13&#45;&gt;Node19</title>
<path fill="none" stroke="midnightblue" d="M643.56,-169.58C646.75,-169.04 649.93,-168.51 653,-168 751.9,-151.7 780.25,-154.28 881.69,-132.06"/>
<polygon fill="midnightblue" stroke="midnightblue" points="882.73,-135.41 891.74,-129.83 881.22,-128.58 882.73,-135.41"/>
</g>
<!-- Node13&#45;&gt;Node20 -->
<g id="edge28" class="edge">
<title>Node13&#45;&gt;Node20</title>
<path fill="none" stroke="midnightblue" d="M558.45,-170.38C488.68,-159.52 351.36,-138.15 287.78,-128.26"/>
<polygon fill="midnightblue" stroke="midnightblue" points="288.29,-124.79 277.87,-126.71 287.21,-131.71 288.29,-124.79"/>
</g>
<!-- Node21 -->
<g id="node21" class="node">
<title>Node21</title>
<g id="a_node21"><a xlink:title=" ">
<polygon fill="none" stroke="#bfbfbf" points="824,-112.5 824,-131.5 874,-131.5 874,-112.5 824,-112.5"/>
<text text-anchor="middle" x="849" y="-119.5" font-family="Helvetica,sans-Serif" font-size="10.00">chrono</text>
</a>
</g>
</g>
<!-- Node13&#45;&gt;Node21 -->
<g id="edge29" class="edge">
<title>Node13&#45;&gt;Node21</title>
<path fill="none" stroke="midnightblue" d="M643.55,-168.58C686.64,-159.92 755.12,-145.78 814,-132 814.1,-131.98 814.2,-131.95 814.3,-131.93"/>
<polygon fill="midnightblue" stroke="midnightblue" points="814.91,-135.38 823.8,-129.62 813.25,-128.58 814.91,-135.38"/>
</g>
<!-- Node22&#45;&gt;Node2 -->
<g id="edge34" class="edge">
<title>Node22&#45;&gt;Node2</title>
<path fill="none" stroke="midnightblue" d="M892.87,-336.45C921.18,-330.07 954.15,-319.02 979,-300 1010.73,-275.72 1001.44,-254.7 1027,-224 1042.09,-205.87 1054.61,-208.66 1066,-188 1073.88,-173.71 1076.71,-155.24 1077.67,-141.65"/>
<polygon fill="midnightblue" stroke="midnightblue" points="1081.17,-141.71 1078.1,-131.57 1074.17,-141.41 1081.17,-141.71"/>
</g>
<!-- Node22&#45;&gt;Node9 -->
<g id="edge59" class="edge">
<title>Node22&#45;&gt;Node9</title>
<path fill="none" stroke="midnightblue" d="M832.37,-336.37C831.08,-318.62 828.1,-277.67 826.35,-253.6"/>
<polygon fill="midnightblue" stroke="midnightblue" points="829.84,-253.31 825.62,-243.59 822.86,-253.82 829.84,-253.31"/>
</g>
<!-- Node22&#45;&gt;Node10 -->
<g id="edge33" class="edge">
<title>Node22&#45;&gt;Node10</title>
<path fill="none" stroke="midnightblue" d="M903.07,-344.88C1014.16,-343.57 1224.71,-336.2 1289,-300 1347.8,-266.89 1406.12,-220.71 1364,-168 1343.36,-142.17 1246.96,-130.08 1196.3,-125.43"/>
<polygon fill="midnightblue" stroke="midnightblue" points="1196.49,-121.93 1186.23,-124.55 1195.88,-128.9 1196.49,-121.93"/>
</g>
<!-- Node22&#45;&gt;Node20 -->
<g id="edge66" class="edge">
<title>Node22&#45;&gt;Node20</title>
<path fill="none" stroke="midnightblue" d="M762.95,-344.32C620.04,-342.25 305.38,-333.84 271,-300 228.32,-257.99 240.56,-178 249,-141.72"/>
<polygon fill="midnightblue" stroke="midnightblue" points="252.5,-142.13 251.53,-131.58 245.71,-140.44 252.5,-142.13"/>
</g>
<!-- Node23 -->
<g id="node23" class="node">
<title>Node23</title>
<g id="a_node23"><a xlink:href="log_8h.html" target="_top" xlink:title=" ">
<polygon fill="none" stroke="black" points="886,-280.5 886,-299.5 970,-299.5 970,-280.5 886,-280.5"/>
<text text-anchor="middle" x="928" y="-287.5" font-family="Helvetica,sans-Serif" font-size="10.00">occ/core/log.h</text>
</a>
</g>
</g>
<!-- Node22&#45;&gt;Node23 -->
<g id="edge35" class="edge">
<title>Node22&#45;&gt;Node23</title>
<path fill="none" stroke="midnightblue" d="M848.26,-336.32C863.22,-327.82 886.25,-314.73 903.73,-304.8"/>
<polygon fill="midnightblue" stroke="midnightblue" points="905.81,-307.64 912.77,-299.65 902.35,-301.55 905.81,-307.64"/>
</g>
<!-- Node25 -->
<g id="node25" class="node">
<title>Node25</title>
<g id="a_node25"><a xlink:href="multipole_8h.html" target="_top" xlink:title=" ">
<polygon fill="none" stroke="black" points="1206,-224.5 1206,-243.5 1322,-243.5 1322,-224.5 1206,-224.5"/>
<text text-anchor="middle" x="1264" y="-231.5" font-family="Helvetica,sans-Serif" font-size="10.00">occ/core/multipole.h</text>
</a>
</g>
</g>
<!-- Node22&#45;&gt;Node25 -->
<g id="edge37" class="edge">
<title>Node22&#45;&gt;Node25</title>
<path fill="none" stroke="midnightblue" d="M903.34,-339.94C988.92,-333.07 1127.96,-319.37 1176,-300 1203.9,-288.75 1230.96,-266.54 1247.54,-251.24"/>
<polygon fill="midnightblue" stroke="midnightblue" points="1250.37,-253.38 1255.21,-243.96 1245.55,-248.31 1250.37,-253.38"/>
</g>
<!-- Node27 -->
<g id="node27" class="node">
<title>Node27</title>
<g id="a_node27"><a xlink:href="parallel_8h.html" target="_top" xlink:title=" ">
<polygon fill="none" stroke="black" points="280,-280.5 280,-299.5 386,-299.5 386,-280.5 280,-280.5"/>
<text text-anchor="middle" x="333" y="-287.5" font-family="Helvetica,sans-Serif" font-size="10.00">occ/core/parallel.h</text>
</a>
</g>
</g>
<!-- Node22&#45;&gt;Node27 -->
<g id="edge41" class="edge">
<title>Node22&#45;&gt;Node27</title>
<path fill="none" stroke="midnightblue" d="M762.73,-338.69C678.24,-330.9 531.9,-316.76 396.24,-300.11"/>
<polygon fill="midnightblue" stroke="midnightblue" points="396.43,-296.61 386.08,-298.85 395.58,-303.55 396.43,-296.61"/>
</g>
<!-- Node29 -->
<g id="node29" class="node">
<title>Node29</title>
<g id="a_node29"><a xlink:href="timings_8h.html" target="_top" xlink:title=" ">
<polygon fill="none" stroke="black" points="662,-168.5 662,-187.5 768,-187.5 768,-168.5 662,-168.5"/>
<text text-anchor="middle" x="715" y="-175.5" font-family="Helvetica,sans-Serif" font-size="10.00">occ/core/timings.h</text>
</a>
</g>
</g>
<!-- Node22&#45;&gt;Node29 -->
<g id="edge44" class="edge">
<title>Node22&#45;&gt;Node29</title>
<path fill="none" stroke="midnightblue" d="M828.45,-336.35C821.67,-323.67 808.28,-299.43 795,-280 773.67,-248.79 745.64,-214.77 729.05,-195.25"/>
<polygon fill="midnightblue" stroke="midnightblue" points="731.66,-192.92 722.5,-187.6 726.34,-197.47 731.66,-192.92"/>
</g>
<!-- Node30 -->
<g id="node30" class="node">
<title>Node30</title>
<g id="a_node30"><a xlink:href="cint__interface_8h.html" target="_top" xlink:title=" ">
<polygon fill="none" stroke="black" points="1036.5,-280.5 1036.5,-299.5 1167.5,-299.5 1167.5,-280.5 1036.5,-280.5"/>
<text text-anchor="middle" x="1102" y="-287.5" font-family="Helvetica,sans-Serif" font-size="10.00">occ/qm/cint_interface.h</text>
</a>
</g>
</g>
<!-- Node22&#45;&gt;Node30 -->
<g id="edge47" class="edge">
<title>Node22&#45;&gt;Node30</title>
<path fill="none" stroke="midnightblue" d="M875.62,-336.44C922.75,-326.98 998.69,-311.74 1049.46,-301.55"/>
<polygon fill="midnightblue" stroke="midnightblue" points="1050.46,-304.92 1059.58,-299.52 1049.08,-298.05 1050.46,-304.92"/>
</g>
<!-- Node32 -->
<g id="node32" class="node">
<title>Node32</title>
<g id="a_node32"><a xlink:href="expectation_8h.html" target="_top" xlink:title=" ">
<polygon fill="none" stroke="black" points="502,-280.5 502,-299.5 624,-299.5 624,-280.5 502,-280.5"/>
<text text-anchor="middle" x="563" y="-287.5" font-family="Helvetica,sans-Serif" font-size="10.00">occ/qm/expectation.h</text>
</a>
</g>
</g>
<!-- Node22&#45;&gt;Node32 -->
<g id="edge51" class="edge">
<title>Node22&#45;&gt;Node32</title>
<path fill="none" stroke="midnightblue" d="M790.22,-336.44C742.82,-326.96 666.37,-311.67 615.42,-301.48"/>
<polygon fill="midnightblue" stroke="midnightblue" points="616.07,-298.05 605.58,-299.52 614.7,-304.91 616.07,-298.05"/>
</g>
<!-- Node22&#45;&gt;Node35 -->
<g id="edge57" class="edge">
<title>Node22&#45;&gt;Node35</title>
<path fill="none" stroke="midnightblue" d="M762.85,-336.76C696.29,-328.7 593.2,-315.6 494.26,-300.13"/>
<polygon fill="midnightblue" stroke="midnightblue" points="494.51,-296.63 484.08,-298.53 493.42,-303.54 494.51,-296.63"/>
</g>
<!-- Node36 -->
<g id="node36" class="node">
<title>Node36</title>
<g id="a_node36"><a xlink:href="shellblock__norm_8h.html" target="_top" xlink:title=" ">
<polygon fill="none" stroke="black" points="642,-280.5 642,-299.5 786,-299.5 786,-280.5 642,-280.5"/>
<text text-anchor="middle" x="714" y="-287.5" font-family="Helvetica,sans-Serif" font-size="10.00">occ/qm/shellblock_norm.h</text>
</a>
</g>
</g>
<!-- Node22&#45;&gt;Node36 -->
<g id="edge60" class="edge">
<title>Node22&#45;&gt;Node36</title>
<path fill="none" stroke="midnightblue" d="M814.14,-336.44C794.73,-327.64 764.27,-313.81 742.04,-303.72"/>
<polygon fill="midnightblue" stroke="midnightblue" points="743.32,-300.46 732.77,-299.52 740.43,-306.84 743.32,-300.46"/>
</g>
<!-- Node37 -->
<g id="node37" class="node">
<title>Node37</title>
<g id="a_node37"><a xlink:title=" ">
<polygon fill="none" stroke="#bfbfbf" points="1224,-280.5 1224,-299.5 1280,-299.5 1280,-280.5 1224,-280.5"/>
<text text-anchor="middle" x="1252" y="-287.5" font-family="Helvetica,sans-Serif" font-size="10.00">optional</text>
</a>
</g>
</g>
<!-- Node22&#45;&gt;Node37 -->
<g id="edge65" class="edge">
<title>Node22&#45;&gt;Node37</title>
<path fill="none" stroke="midnightblue" d="M903.1,-338.59C979.02,-331.19 1103.53,-317.72 1210,-300 1211.24,-299.79 1212.5,-299.57 1213.77,-299.35"/>
<polygon fill="midnightblue" stroke="midnightblue" points="1214.44,-302.78 1223.6,-297.46 1213.12,-295.91 1214.44,-302.78"/>
</g>
<!-- Node24 -->
<g id="node24" class="node">
<title>Node24</title>
<g id="a_node24"><a xlink:title=" ">
<polygon fill="none" stroke="#bfbfbf" points="886.5,-224.5 886.5,-243.5 979.5,-243.5 979.5,-224.5 886.5,-224.5"/>
<text text-anchor="middle" x="933" y="-231.5" font-family="Helvetica,sans-Serif" font-size="10.00">spdlog/spdlog.h</text>
</a>
</g>
</g>
<!-- Node23&#45;&gt;Node24 -->
<g id="edge36" class="edge">
<title>Node23&#45;&gt;Node24</title>
<path fill="none" stroke="midnightblue" d="M928.83,-280.08C929.48,-273.01 930.42,-262.86 931.24,-253.99"/>
<polygon fill="midnightblue" stroke="midnightblue" points="934.75,-254.03 932.19,-243.75 927.78,-253.39 934.75,-254.03"/>
</g>
<!-- Node25&#45;&gt;Node3 -->
<g id="edge40" class="edge">
<title>Node25&#45;&gt;Node3</title>
<path fill="none" stroke="midnightblue" d="M1257.45,-224.28C1250.9,-215.38 1240.72,-201.07 1233,-188 1213.8,-155.48 1225.55,-134.2 1195,-112 1161.08,-87.34 1052.79,-75.92 976.57,-70.83"/>
<polygon fill="midnightblue" stroke="midnightblue" points="976.71,-67.33 966.51,-70.18 976.26,-74.31 976.71,-67.33"/>
</g>
<!-- Node25&#45;&gt;Node10 -->
<g id="edge38" class="edge">
<title>Node25&#45;&gt;Node10</title>
<path fill="none" stroke="midnightblue" d="M1247.68,-224.4C1233.7,-216.41 1213.71,-203.44 1200,-188 1187.66,-174.1 1178.07,-155.09 1172.07,-141.22"/>
<polygon fill="midnightblue" stroke="midnightblue" points="1175.23,-139.7 1168.2,-131.78 1168.76,-142.36 1175.23,-139.7"/>
</g>
<!-- Node26 -->
<g id="node26" class="node">
<title>Node26</title>
<g id="a_node26"><a xlink:title=" ">
<polygon fill="none" stroke="#bfbfbf" points="1242.5,-168.5 1242.5,-187.5 1321.5,-187.5 1321.5,-168.5 1242.5,-168.5"/>
<text text-anchor="middle" x="1282" y="-175.5" font-family="Helvetica,sans-Serif" font-size="10.00">fmt/format.h</text>
</a>
</g>
</g>
<!-- Node25&#45;&gt;Node26 -->
<g id="edge39" class="edge">
<title>Node25&#45;&gt;Node26</title>
<path fill="none" stroke="midnightblue" d="M1266.97,-224.08C1269.38,-216.85 1272.86,-206.41 1275.87,-197.4"/>
<polygon fill="midnightblue" stroke="midnightblue" points="1279.24,-198.34 1279.08,-187.75 1272.6,-196.13 1279.24,-198.34"/>
</g>
<!-- Node27&#45;&gt;Node20 -->
<g id="edge43" class="edge">
<title>Node27&#45;&gt;Node20</title>
<path fill="none" stroke="midnightblue" d="M328.24,-280.46C323.27,-271.47 315.35,-256.86 309,-244 291.21,-207.93 272.15,-164.88 261.79,-141.08"/>
<polygon fill="midnightblue" stroke="midnightblue" points="264.87,-139.38 257.68,-131.6 258.45,-142.16 264.87,-139.38"/>
</g>
<!-- Node28 -->
<g id="node28" class="node">
<title>Node28</title>
<g id="a_node28"><a xlink:title=" ">
<polygon fill="none" stroke="#bfbfbf" points="318,-224.5 318,-243.5 366,-243.5 366,-224.5 318,-224.5"/>
<text text-anchor="middle" x="342" y="-231.5" font-family="Helvetica,sans-Serif" font-size="10.00">thread</text>
</a>
</g>
</g>
<!-- Node27&#45;&gt;Node28 -->
<g id="edge42" class="edge">
<title>Node27&#45;&gt;Node28</title>
<path fill="none" stroke="midnightblue" d="M334.49,-280.08C335.68,-272.93 337.39,-262.64 338.88,-253.69"/>
<polygon fill="midnightblue" stroke="midnightblue" points="342.35,-254.19 340.54,-243.75 335.45,-253.04 342.35,-254.19"/>
</g>
<!-- Node29&#45;&gt;Node19 -->
<g id="edge46" class="edge">
<title>Node29&#45;&gt;Node19</title>
<path fill="none" stroke="midnightblue" d="M747.58,-168.49C779.48,-160.11 829.71,-146.78 881.9,-132.27"/>
<polygon fill="midnightblue" stroke="midnightblue" points="882.97,-135.6 891.66,-129.54 881.09,-128.86 882.97,-135.6"/>
</g>
<!-- Node29&#45;&gt;Node21 -->
<g id="edge45" class="edge">
<title>Node29&#45;&gt;Node21</title>
<path fill="none" stroke="midnightblue" d="M736.23,-168.44C758.38,-159.52 793.32,-145.44 818.44,-135.32"/>
<polygon fill="midnightblue" stroke="midnightblue" points="819.9,-138.5 827.87,-131.52 817.28,-132.01 819.9,-138.5"/>
</g>
<!-- Node30&#45;&gt;Node9 -->
<g id="edge49" class="edge">
<title>Node30&#45;&gt;Node9</title>
<path fill="none" stroke="midnightblue" d="M1058.11,-280.44C1009.48,-270.96 931.05,-255.67 878.78,-245.48"/>
<polygon fill="midnightblue" stroke="midnightblue" points="879.17,-241.99 868.69,-243.52 877.83,-248.87 879.17,-241.99"/>
</g>
<!-- Node30&#45;&gt;Node25 -->
<g id="edge48" class="edge">
<title>Node30&#45;&gt;Node25</title>
<path fill="none" stroke="midnightblue" d="M1127.67,-280.44C1154.92,-271.36 1198.18,-256.94 1228.65,-246.78"/>
<polygon fill="midnightblue" stroke="midnightblue" points="1230.07,-250 1238.45,-243.52 1227.86,-243.36 1230.07,-250"/>
</g>
<!-- Node31 -->
<g id="node31" class="node">
<title>Node31</title>
<g id="a_node31"><a xlink:title=" ">
<polygon fill="none" stroke="#bfbfbf" points="1036,-224.5 1036,-243.5 1188,-243.5 1188,-224.5 1036,-224.5"/>
<text text-anchor="middle" x="1112" y="-231.5" font-family="Helvetica,sans-Serif" font-size="10.00">occ/3rdparty/cint_wrapper.h</text>
</a>
</g>
</g>
<!-- Node30&#45;&gt;Node31 -->
<g id="edge50" class="edge">
<title>Node30&#45;&gt;Node31</title>
<path fill="none" stroke="midnightblue" d="M1103.65,-280.08C1104.98,-272.93 1106.88,-262.64 1108.54,-253.69"/>
<polygon fill="midnightblue" stroke="midnightblue" points="1112,-254.22 1110.38,-243.75 1105.12,-252.95 1112,-254.22"/>
</g>
<!-- Node33 -->
<g id="node33" class="node">
<title>Node33</title>
<g id="a_node33"><a xlink:href="spinorbital_8h.html" target="_top" xlink:title=" ">
<polygon fill="none" stroke="black" points="386,-224.5 386,-243.5 502,-243.5 502,-224.5 386,-224.5"/>
<text text-anchor="middle" x="444" y="-231.5" font-family="Helvetica,sans-Serif" font-size="10.00">occ/qm/spinorbital.h</text>
</a>
</g>
</g>
<!-- Node32&#45;&gt;Node33 -->
<g id="edge52" class="edge">
<title>Node32&#45;&gt;Node33</title>
<path fill="none" stroke="midnightblue" d="M544.14,-280.44C524.73,-271.64 494.27,-257.81 472.04,-247.72"/>
<polygon fill="midnightblue" stroke="midnightblue" points="473.32,-244.46 462.77,-243.52 470.43,-250.84 473.32,-244.46"/>
</g>
<!-- Node33&#45;&gt;Node3 -->
<g id="edge53" class="edge">
<title>Node33&#45;&gt;Node3</title>
<path fill="none" stroke="midnightblue" d="M407.92,-224.45C387.3,-217.79 362.53,-206.47 347,-188 324.84,-161.65 308.64,-137.29 332,-112 364.21,-77.12 668.96,-69.26 817.03,-67.5"/>
<polygon fill="midnightblue" stroke="midnightblue" points="817.45,-70.99 827.41,-67.38 817.37,-63.99 817.45,-70.99"/>
</g>
<!-- Node33&#45;&gt;Node13 -->
<g id="edge54" class="edge">
<title>Node33&#45;&gt;Node13</title>
<path fill="none" stroke="midnightblue" d="M468.88,-224.44C495.29,-215.36 537.22,-200.94 566.74,-190.78"/>
<polygon fill="midnightblue" stroke="midnightblue" points="567.92,-194.08 576.24,-187.52 565.64,-187.46 567.92,-194.08"/>
</g>
<!-- Node34 -->
<g id="node34" class="node">
<title>Node34</title>
<g id="a_node34"><a xlink:href="qm_2opmatrix_8h.html" target="_top" xlink:title=" ">
<polygon fill="none" stroke="black" points="356,-168.5 356,-187.5 464,-187.5 464,-168.5 356,-168.5"/>
<text text-anchor="middle" x="410" y="-175.5" font-family="Helvetica,sans-Serif" font-size="10.00">occ/qm/opmatrix.h</text>
</a>
</g>
</g>
<!-- Node33&#45;&gt;Node34 -->
<g id="edge55" class="edge">
<title>Node33&#45;&gt;Node34</title>
<path fill="none" stroke="midnightblue" d="M433.22,-224.08C427.01,-216.69 419.84,-205.95 414.82,-196.81"/>
<polygon fill="midnightblue" stroke="midnightblue" points="417.93,-195.19 410.38,-187.75 411.64,-198.27 417.93,-195.19"/>
</g>
<!-- Node34&#45;&gt;Node33 -->
<g id="edge56" class="edge">
<title>Node34&#45;&gt;Node33</title>
<path fill="none" stroke="midnightblue" d="M420.64,-187.75C426.84,-195.09 434.02,-205.82 439.06,-214.98"/>
<polygon fill="midnightblue" stroke="midnightblue" points="435.99,-216.66 443.55,-224.08 442.27,-213.57 435.99,-216.66"/>
</g>
<!-- Node35&#45;&gt;Node33 -->
<g id="edge58" class="edge">
<title>Node35&#45;&gt;Node33</title>
<path fill="none" stroke="midnightblue" d="M444,-280.08C444,-273.01 444,-262.86 444,-253.99"/>
<polygon fill="midnightblue" stroke="midnightblue" points="447.5,-253.75 444,-243.75 440.5,-253.75 447.5,-253.75"/>
</g>
<!-- Node36&#45;&gt;Node3 -->
<g id="edge61" class="edge">
<title>Node36&#45;&gt;Node3</title>
<path fill="none" stroke="midnightblue" d="M696.27,-280.4C636.94,-251.47 448.24,-157.97 433,-132 428.5,-124.33 427.03,-118.58 433,-112 458.26,-84.17 691.22,-73.03 817.12,-69.02"/>
<polygon fill="midnightblue" stroke="midnightblue" points="817.59,-72.5 827.47,-68.7 817.37,-65.51 817.59,-72.5"/>
</g>
<!-- Node36&#45;&gt;Node9 -->
<g id="edge63" class="edge">
<title>Node36&#45;&gt;Node9</title>
<path fill="none" stroke="midnightblue" d="M731.83,-280.32C749.72,-271.62 777.48,-258.12 798.05,-248.11"/>
<polygon fill="midnightblue" stroke="midnightblue" points="799.75,-251.18 807.21,-243.65 796.69,-244.88 799.75,-251.18"/>
</g>
<!-- Node36&#45;&gt;Node29 -->
<g id="edge62" class="edge">
<title>Node36&#45;&gt;Node29</title>
<path fill="none" stroke="midnightblue" d="M714.08,-280.37C714.24,-262.62 714.61,-221.67 714.83,-197.6"/>
<polygon fill="midnightblue" stroke="midnightblue" points="718.33,-197.62 714.92,-187.59 711.33,-197.56 718.33,-197.62"/>
</g>
<!-- Node36&#45;&gt;Node33 -->
<g id="edge64" class="edge">
<title>Node36&#45;&gt;Node33</title>
<path fill="none" stroke="midnightblue" d="M671.22,-280.44C623.82,-270.96 547.37,-255.67 496.42,-245.48"/>
<polygon fill="midnightblue" stroke="midnightblue" points="497.07,-242.05 486.58,-243.52 495.7,-248.91 497.07,-242.05"/>
</g>
</g>
</svg>
