<?xml version="1.0" encoding="UTF-8" standalone="no"?>
<!DOCTYPE svg PUBLIC "-//W3C//DTD SVG 1.1//EN"
 "http://www.w3.org/Graphics/SVG/1.1/DTD/svg11.dtd">
<!-- Generated by graphviz version 2.43.0 (0)
 -->
<!-- Title: /home/runner/work/occ/occ/include/occ/dft/seminumerical_exchange.h Pages: 1 -->
<svg width="1326pt" height="453pt"
 viewBox="0.00 0.00 1326.00 453.00" xmlns="http://www.w3.org/2000/svg" xmlns:xlink="http://www.w3.org/1999/xlink">
<g id="graph0" class="graph" transform="scale(1 1) rotate(0) translate(4 449)">
<title>/home/runner/work/occ/occ/include/occ/dft/seminumerical_exchange.h</title>
<!-- Node1 -->
<g id="node1" class="node">
<title>Node1</title>
<g id="a_node1"><a xlink:title=" ">
<polygon fill="#bfbfbf" stroke="black" points="931,-403.5 931,-444.5 1085,-444.5 1085,-403.5 931,-403.5"/>
<text text-anchor="start" x="939" y="-432.5" font-family="Helvetica,sans-Serif" font-size="10.00">/home/runner/work/occ</text>
<text text-anchor="start" x="939" y="-421.5" font-family="Helvetica,sans-Serif" font-size="10.00">/occ/include/occ/dft</text>
<text text-anchor="middle" x="1008" y="-410.5" font-family="Helvetica,sans-Serif" font-size="10.00">/seminumerical_exchange.h</text>
</a>
</g>
</g>
<!-- Node2 -->
<g id="node2" class="node">
<title>Node2</title>
<g id="a_node2"><a xlink:href="atom_8h.html" target="_top" xlink:title=" ">
<polygon fill="none" stroke="black" points="864.5,-123.5 864.5,-142.5 959.5,-142.5 959.5,-123.5 864.5,-123.5"/>
<text text-anchor="middle" x="912" y="-130.5" font-family="Helvetica,sans-Serif" font-size="10.00">occ/core/atom.h</text>
</a>
</g>
</g>
<!-- Node1&#45;&gt;Node2 -->
<g id="edge1" class="edge">
<title>Node1&#45;&gt;Node2</title>
<path fill="none" stroke="midnightblue" d="M1085.22,-420.46C1165.63,-413.2 1280,-387.8 1280,-302 1280,-302 1280,-302 1280,-244 1280,-180.59 1213.01,-199.48 1153,-179 1135.91,-173.17 1035.61,-155.3 969.9,-143.91"/>
<polygon fill="midnightblue" stroke="midnightblue" points="970.12,-140.4 959.67,-142.14 968.93,-147.3 970.12,-140.4"/>
</g>
<!-- Node3 -->
<g id="node3" class="node">
<title>Node3</title>
<g id="a_node3"><a xlink:href="linear__algebra_8h.html" target="_top" xlink:title=" ">
<polygon fill="none" stroke="black" points="842.5,-67.5 842.5,-86.5 981.5,-86.5 981.5,-67.5 842.5,-67.5"/>
<text text-anchor="middle" x="912" y="-74.5" font-family="Helvetica,sans-Serif" font-size="10.00">occ/core/linear_algebra.h</text>
</a>
</g>
</g>
<!-- Node1&#45;&gt;Node3 -->
<g id="edge6" class="edge">
<title>Node1&#45;&gt;Node3</title>
<path fill="none" stroke="midnightblue" d="M1085.07,-421.36C1141.01,-416.85 1216.32,-403.64 1272,-367 1301.57,-347.55 1318,-337.39 1318,-302 1318,-302 1318,-302 1318,-188 1318,-121.12 1110.17,-93.63 991.9,-83.41"/>
<polygon fill="midnightblue" stroke="midnightblue" points="992.05,-79.91 981.79,-82.55 991.46,-86.88 992.05,-79.91"/>
</g>
<!-- Node7 -->
<g id="node7" class="node">
<title>Node7</title>
<g id="a_node7"><a xlink:href="grid_8h.html" target="_top" xlink:title=" ">
<polygon fill="none" stroke="black" points="29,-291.5 29,-310.5 109,-310.5 109,-291.5 29,-291.5"/>
<text text-anchor="middle" x="69" y="-298.5" font-family="Helvetica,sans-Serif" font-size="10.00">occ/dft/grid.h</text>
</a>
</g>
</g>
<!-- Node1&#45;&gt;Node7 -->
<g id="edge7" class="edge">
<title>Node1&#45;&gt;Node7</title>
<path fill="none" stroke="midnightblue" d="M930.71,-414.76C777.69,-398.12 425.21,-358.19 119.04,-311.09"/>
<polygon fill="midnightblue" stroke="midnightblue" points="119.5,-307.62 109.08,-309.55 118.43,-314.54 119.5,-307.62"/>
</g>
<!-- Node20 -->
<g id="node20" class="node">
<title>Node20</title>
<g id="a_node20"><a xlink:title=" ">
<polygon fill="none" stroke="#bfbfbf" points="85.5,-123.5 85.5,-142.5 132.5,-142.5 132.5,-123.5 85.5,-123.5"/>
<text text-anchor="middle" x="109" y="-130.5" font-family="Helvetica,sans-Serif" font-size="10.00">vector</text>
</a>
</g>
</g>
<!-- Node1&#45;&gt;Node20 -->
<g id="edge61" class="edge">
<title>Node1&#45;&gt;Node20</title>
<path fill="none" stroke="midnightblue" d="M930.99,-421.83C695.36,-417.22 0,-395.69 0,-302 0,-302 0,-302 0,-244 0,-198.12 48.44,-164.53 80.73,-147.23"/>
<polygon fill="midnightblue" stroke="midnightblue" points="82.47,-150.27 89.76,-142.58 79.27,-144.04 82.47,-150.27"/>
</g>
<!-- Node21 -->
<g id="node21" class="node">
<title>Node21</title>
<g id="a_node21"><a xlink:href="integral__engine_8h.html" target="_top" xlink:title=" ">
<polygon fill="none" stroke="black" points="715,-347.5 715,-366.5 855,-366.5 855,-347.5 715,-347.5"/>
<text text-anchor="middle" x="785" y="-354.5" font-family="Helvetica,sans-Serif" font-size="10.00">occ/qm/integral_engine.h</text>
</a>
</g>
</g>
<!-- Node1&#45;&gt;Node21 -->
<g id="edge30" class="edge">
<title>Node1&#45;&gt;Node21</title>
<path fill="none" stroke="midnightblue" d="M941.09,-403.5C903.01,-392.4 856.61,-378.87 824.34,-369.47"/>
<polygon fill="midnightblue" stroke="midnightblue" points="824.97,-366.01 814.39,-366.57 823.01,-372.73 824.97,-366.01"/>
</g>
<!-- Node33 -->
<g id="node33" class="node">
<title>Node33</title>
<g id="a_node33"><a xlink:href="mo_8h.html" target="_top" xlink:title=" ">
<polygon fill="none" stroke="black" points="1172,-291.5 1172,-310.5 1252,-310.5 1252,-291.5 1172,-291.5"/>
<text text-anchor="middle" x="1212" y="-298.5" font-family="Helvetica,sans-Serif" font-size="10.00">occ/qm/mo.h</text>
</a>
</g>
</g>
<!-- Node1&#45;&gt;Node33 -->
<g id="edge60" class="edge">
<title>Node1&#45;&gt;Node33</title>
<path fill="none" stroke="midnightblue" d="M1041.23,-403.29C1082.69,-378.7 1152.51,-337.28 1188.69,-315.82"/>
<polygon fill="midnightblue" stroke="midnightblue" points="1190.73,-318.69 1197.54,-310.57 1187.16,-312.67 1190.73,-318.69"/>
</g>
<!-- Node2&#45;&gt;Node3 -->
<g id="edge2" class="edge">
<title>Node2&#45;&gt;Node3</title>
<path fill="none" stroke="midnightblue" d="M912,-123.08C912,-116.01 912,-105.86 912,-96.99"/>
<polygon fill="midnightblue" stroke="midnightblue" points="915.5,-96.75 912,-86.75 908.5,-96.75 915.5,-96.75"/>
</g>
<!-- Node4 -->
<g id="node4" class="node">
<title>Node4</title>
<g id="a_node4"><a xlink:title=" ">
<polygon fill="none" stroke="#bfbfbf" points="770.5,-6 770.5,-25 847.5,-25 847.5,-6 770.5,-6"/>
<text text-anchor="middle" x="809" y="-13" font-family="Helvetica,sans-Serif" font-size="10.00">Eigen/Dense</text>
</a>
</g>
</g>
<!-- Node3&#45;&gt;Node4 -->
<g id="edge3" class="edge">
<title>Node3&#45;&gt;Node4</title>
<path fill="none" stroke="midnightblue" d="M897.24,-67.48C880.34,-57.71 852.42,-41.58 832.51,-30.08"/>
<polygon fill="midnightblue" stroke="midnightblue" points="834.14,-26.98 823.73,-25.01 830.64,-33.04 834.14,-26.98"/>
</g>
<!-- Node5 -->
<g id="node5" class="node">
<title>Node5</title>
<g id="a_node5"><a xlink:title=" ">
<polygon fill="none" stroke="#bfbfbf" points="865.5,-6 865.5,-25 958.5,-25 958.5,-6 865.5,-6"/>
<text text-anchor="middle" x="912" y="-13" font-family="Helvetica,sans-Serif" font-size="10.00">Eigen/StdVector</text>
</a>
</g>
</g>
<!-- Node3&#45;&gt;Node5 -->
<g id="edge4" class="edge">
<title>Node3&#45;&gt;Node5</title>
<path fill="none" stroke="midnightblue" d="M912,-67.48C912,-59.08 912,-45.98 912,-35.16"/>
<polygon fill="midnightblue" stroke="midnightblue" points="915.5,-35.01 912,-25.01 908.5,-35.01 915.5,-35.01"/>
</g>
<!-- Node6 -->
<g id="node6" class="node">
<title>Node6</title>
<g id="a_node6"><a xlink:title=" ">
<polygon fill="none" stroke="#bfbfbf" points="976.5,-0.5 976.5,-30.5 1083.5,-30.5 1083.5,-0.5 976.5,-0.5"/>
<text text-anchor="start" x="984.5" y="-18.5" font-family="Helvetica,sans-Serif" font-size="10.00">occ/3rdparty/eigen</text>
<text text-anchor="middle" x="1030" y="-7.5" font-family="Helvetica,sans-Serif" font-size="10.00">&#45;fmt/fmt.h</text>
</a>
</g>
</g>
<!-- Node3&#45;&gt;Node6 -->
<g id="edge5" class="edge">
<title>Node3&#45;&gt;Node6</title>
<path fill="none" stroke="midnightblue" d="M928.91,-67.48C945.56,-59.08 971.55,-45.97 993.01,-35.15"/>
<polygon fill="midnightblue" stroke="midnightblue" points="994.84,-38.15 1002.19,-30.52 991.68,-31.9 994.84,-38.15"/>
</g>
<!-- Node7&#45;&gt;Node3 -->
<g id="edge8" class="edge">
<title>Node7&#45;&gt;Node3</title>
<path fill="none" stroke="midnightblue" d="M65.91,-291.46C56.19,-262.93 29.58,-170.09 76,-123 102.29,-96.33 628.33,-83.43 832.22,-79.42"/>
<polygon fill="midnightblue" stroke="midnightblue" points="832.34,-82.92 842.27,-79.23 832.2,-75.92 832.34,-82.92"/>
</g>
<!-- Node8 -->
<g id="node8" class="node">
<title>Node8</title>
<g id="a_node8"><a xlink:href="shell_8h.html" target="_top" xlink:title=" ">
<polygon fill="none" stroke="black" points="498.5,-235.5 498.5,-254.5 585.5,-254.5 585.5,-235.5 498.5,-235.5"/>
<text text-anchor="middle" x="542" y="-242.5" font-family="Helvetica,sans-Serif" font-size="10.00">occ/qm/shell.h</text>
</a>
</g>
</g>
<!-- Node7&#45;&gt;Node8 -->
<g id="edge9" class="edge">
<title>Node7&#45;&gt;Node8</title>
<path fill="none" stroke="midnightblue" d="M109.07,-292.35C112.08,-291.87 115.09,-291.41 118,-291 278.86,-268.46 323.07,-276.55 488.34,-254.99"/>
<polygon fill="midnightblue" stroke="midnightblue" points="488.91,-258.44 498.36,-253.66 487.99,-251.5 488.91,-258.44"/>
</g>
<!-- Node7&#45;&gt;Node20 -->
<g id="edge29" class="edge">
<title>Node7&#45;&gt;Node20</title>
<path fill="none" stroke="midnightblue" d="M71.15,-291.08C77.45,-264.95 95.94,-188.21 104.52,-152.58"/>
<polygon fill="midnightblue" stroke="midnightblue" points="108,-153.11 106.94,-142.57 101.19,-151.47 108,-153.11"/>
</g>
<!-- Node8&#45;&gt;Node2 -->
<g id="edge12" class="edge">
<title>Node8&#45;&gt;Node2</title>
<path fill="none" stroke="midnightblue" d="M576.13,-235.47C610.37,-226.79 664.55,-212.69 711,-199 769.86,-181.66 837.65,-159.22 877.54,-145.75"/>
<polygon fill="midnightblue" stroke="midnightblue" points="878.71,-149.05 887.06,-142.53 876.47,-142.42 878.71,-149.05"/>
</g>
<!-- Node8&#45;&gt;Node3 -->
<g id="edge13" class="edge">
<title>Node8&#45;&gt;Node3</title>
<path fill="none" stroke="midnightblue" d="M498.34,-236.19C431.9,-224.25 312.09,-202.46 303,-199 291.73,-194.71 215.93,-153.5 210,-143 205.63,-135.26 203.92,-129.48 210,-123 231.01,-100.6 652.7,-85.61 832.21,-80.22"/>
<polygon fill="midnightblue" stroke="midnightblue" points="832.49,-83.72 842.38,-79.92 832.28,-76.72 832.49,-83.72"/>
</g>
<!-- Node9 -->
<g id="node9" class="node">
<title>Node9</title>
<g id="a_node9"><a xlink:title=" ">
<polygon fill="none" stroke="#bfbfbf" points="804,-123.5 804,-142.5 846,-142.5 846,-123.5 804,-123.5"/>
<text text-anchor="middle" x="825" y="-130.5" font-family="Helvetica,sans-Serif" font-size="10.00">array</text>
</a>
</g>
</g>
<!-- Node8&#45;&gt;Node9 -->
<g id="edge10" class="edge">
<title>Node8&#45;&gt;Node9</title>
<path fill="none" stroke="midnightblue" d="M541.82,-235.34C542.04,-221.27 544.67,-193.54 561,-179 569.67,-171.28 725.63,-148.2 793.68,-138.44"/>
<polygon fill="midnightblue" stroke="midnightblue" points="794.41,-141.87 803.81,-136.99 793.42,-134.94 794.41,-141.87"/>
</g>
<!-- Node10 -->
<g id="node10" class="node">
<title>Node10</title>
<g id="a_node10"><a xlink:title=" ">
<polygon fill="none" stroke="#bfbfbf" points="312,-179.5 312,-198.5 372,-198.5 372,-179.5 312,-179.5"/>
<text text-anchor="middle" x="342" y="-186.5" font-family="Helvetica,sans-Serif" font-size="10.00">iostream</text>
</a>
</g>
</g>
<!-- Node8&#45;&gt;Node10 -->
<g id="edge11" class="edge">
<title>Node8&#45;&gt;Node10</title>
<path fill="none" stroke="midnightblue" d="M510.31,-235.44C475.68,-226.09 420.1,-211.09 382.37,-200.9"/>
<polygon fill="midnightblue" stroke="midnightblue" points="382.8,-197.39 372.23,-198.16 380.98,-204.15 382.8,-197.39"/>
</g>
<!-- Node11 -->
<g id="node11" class="node">
<title>Node11</title>
<g id="a_node11"><a xlink:href="point__charge_8h.html" target="_top" xlink:title=" ">
<polygon fill="none" stroke="black" points="570,-179.5 570,-198.5 702,-198.5 702,-179.5 570,-179.5"/>
<text text-anchor="middle" x="636" y="-186.5" font-family="Helvetica,sans-Serif" font-size="10.00">occ/core/point_charge.h</text>
</a>
</g>
</g>
<!-- Node8&#45;&gt;Node11 -->
<g id="edge14" class="edge">
<title>Node8&#45;&gt;Node11</title>
<path fill="none" stroke="midnightblue" d="M557.1,-235.32C571.9,-226.82 594.69,-213.73 611.98,-203.8"/>
<polygon fill="midnightblue" stroke="midnightblue" points="614.01,-206.67 620.93,-198.65 610.52,-200.6 614.01,-206.67"/>
</g>
<!-- Node12 -->
<g id="node12" class="node">
<title>Node12</title>
<g id="a_node12"><a xlink:href="util_8h.html" target="_top" xlink:title=" ">
<polygon fill="none" stroke="black" points="390.5,-179.5 390.5,-198.5 475.5,-198.5 475.5,-179.5 390.5,-179.5"/>
<text text-anchor="middle" x="433" y="-186.5" font-family="Helvetica,sans-Serif" font-size="10.00">occ/core/util.h</text>
</a>
</g>
</g>
<!-- Node8&#45;&gt;Node12 -->
<g id="edge18" class="edge">
<title>Node8&#45;&gt;Node12</title>
<path fill="none" stroke="midnightblue" d="M524.49,-235.32C506.93,-226.62 479.67,-213.12 459.47,-203.11"/>
<polygon fill="midnightblue" stroke="midnightblue" points="460.98,-199.96 450.47,-198.65 457.88,-206.23 460.98,-199.96"/>
</g>
<!-- Node8&#45;&gt;Node20 -->
<g id="edge28" class="edge">
<title>Node8&#45;&gt;Node20</title>
<path fill="none" stroke="midnightblue" d="M498.33,-236.57C495.17,-236.03 492.04,-235.51 489,-235 391.71,-218.74 364.83,-226.15 270,-199 247.78,-192.64 243.4,-187.72 222,-179 194.4,-167.76 162.89,-155.23 140.17,-146.26"/>
<polygon fill="midnightblue" stroke="midnightblue" points="141.29,-142.94 130.7,-142.53 138.72,-149.45 141.29,-142.94"/>
</g>
<!-- Node11&#45;&gt;Node2 -->
<g id="edge16" class="edge">
<title>Node11&#45;&gt;Node2</title>
<path fill="none" stroke="midnightblue" d="M679.73,-179.44C728.18,-169.96 806.33,-154.67 858.42,-144.48"/>
<polygon fill="midnightblue" stroke="midnightblue" points="859.33,-147.87 868.47,-142.52 857.99,-141 859.33,-147.87"/>
</g>
<!-- Node11&#45;&gt;Node3 -->
<g id="edge17" class="edge">
<title>Node11&#45;&gt;Node3</title>
<path fill="none" stroke="midnightblue" d="M661.88,-179.46C686.64,-171.03 724.87,-157.36 757,-143 774.42,-135.21 777.62,-130.88 795,-123 822.23,-110.65 853.92,-98.6 877.45,-90.08"/>
<polygon fill="midnightblue" stroke="midnightblue" points="878.77,-93.32 887,-86.65 876.41,-86.73 878.77,-93.32"/>
</g>
<!-- Node11&#45;&gt;Node9 -->
<g id="edge15" class="edge">
<title>Node11&#45;&gt;Node9</title>
<path fill="none" stroke="midnightblue" d="M665.95,-179.44C701,-169.43 758.75,-152.93 794.18,-142.81"/>
<polygon fill="midnightblue" stroke="midnightblue" points="795.32,-146.12 803.97,-140.01 793.39,-139.39 795.32,-146.12"/>
</g>
<!-- Node12&#45;&gt;Node3 -->
<g id="edge25" class="edge">
<title>Node12&#45;&gt;Node3</title>
<path fill="none" stroke="midnightblue" d="M390.36,-180.49C329.25,-169.53 223.46,-149.72 218,-143 212.4,-136.1 211.92,-129.49 218,-123 259.24,-79 658.73,-76.27 832.23,-77.19"/>
<polygon fill="midnightblue" stroke="midnightblue" points="832.31,-80.69 842.33,-77.25 832.35,-73.69 832.31,-80.69"/>
</g>
<!-- Node13 -->
<g id="node13" class="node">
<title>Node13</title>
<g id="a_node13"><a xlink:title=" ">
<polygon fill="none" stroke="#bfbfbf" points="622,-123.5 622,-142.5 686,-142.5 686,-123.5 622,-123.5"/>
<text text-anchor="middle" x="654" y="-130.5" font-family="Helvetica,sans-Serif" font-size="10.00">algorithm</text>
</a>
</g>
</g>
<!-- Node12&#45;&gt;Node13 -->
<g id="edge19" class="edge">
<title>Node12&#45;&gt;Node13</title>
<path fill="none" stroke="midnightblue" d="M468.02,-179.44C507.03,-169.91 570.1,-154.5 611.81,-144.31"/>
<polygon fill="midnightblue" stroke="midnightblue" points="612.78,-147.68 621.66,-141.9 611.12,-140.88 612.78,-147.68"/>
</g>
<!-- Node14 -->
<g id="node14" class="node">
<title>Node14</title>
<g id="a_node14"><a xlink:title=" ">
<polygon fill="none" stroke="#bfbfbf" points="227.5,-123.5 227.5,-142.5 276.5,-142.5 276.5,-123.5 227.5,-123.5"/>
<text text-anchor="middle" x="252" y="-130.5" font-family="Helvetica,sans-Serif" font-size="10.00">cctype</text>
</a>
</g>
</g>
<!-- Node12&#45;&gt;Node14 -->
<g id="edge20" class="edge">
<title>Node12&#45;&gt;Node14</title>
<path fill="none" stroke="midnightblue" d="M404.32,-179.44C372.43,-169.93 320.93,-154.56 286.77,-144.37"/>
<polygon fill="midnightblue" stroke="midnightblue" points="287.35,-140.89 276.76,-141.39 285.35,-147.6 287.35,-140.89"/>
</g>
<!-- Node15 -->
<g id="node15" class="node">
<title>Node15</title>
<g id="a_node15"><a xlink:title=" ">
<polygon fill="none" stroke="#bfbfbf" points="294.5,-123.5 294.5,-142.5 361.5,-142.5 361.5,-123.5 294.5,-123.5"/>
<text text-anchor="middle" x="328" y="-130.5" font-family="Helvetica,sans-Serif" font-size="10.00">fmt/core.h</text>
</a>
</g>
</g>
<!-- Node12&#45;&gt;Node15 -->
<g id="edge21" class="edge">
<title>Node12&#45;&gt;Node15</title>
<path fill="none" stroke="midnightblue" d="M416.13,-179.32C399.29,-170.66 373.19,-157.24 353.76,-147.25"/>
<polygon fill="midnightblue" stroke="midnightblue" points="355.32,-144.12 344.83,-142.65 352.12,-150.34 355.32,-144.12"/>
</g>
<!-- Node16 -->
<g id="node16" class="node">
<title>Node16</title>
<g id="a_node16"><a xlink:title=" ">
<polygon fill="none" stroke="#bfbfbf" points="380,-123.5 380,-142.5 466,-142.5 466,-123.5 380,-123.5"/>
<text text-anchor="middle" x="423" y="-130.5" font-family="Helvetica,sans-Serif" font-size="10.00">fmt/ostream.h</text>
</a>
</g>
</g>
<!-- Node12&#45;&gt;Node16 -->
<g id="edge22" class="edge">
<title>Node12&#45;&gt;Node16</title>
<path fill="none" stroke="midnightblue" d="M431.35,-179.08C430.02,-171.93 428.12,-161.64 426.46,-152.69"/>
<polygon fill="midnightblue" stroke="midnightblue" points="429.88,-151.95 424.62,-142.75 423,-153.22 429.88,-151.95"/>
</g>
<!-- Node17 -->
<g id="node17" class="node">
<title>Node17</title>
<g id="a_node17"><a xlink:title=" ">
<polygon fill="none" stroke="#bfbfbf" points="484,-123.5 484,-142.5 530,-142.5 530,-123.5 484,-123.5"/>
<text text-anchor="middle" x="507" y="-130.5" font-family="Helvetica,sans-Serif" font-size="10.00">locale</text>
</a>
</g>
</g>
<!-- Node12&#45;&gt;Node17 -->
<g id="edge23" class="edge">
<title>Node12&#45;&gt;Node17</title>
<path fill="none" stroke="midnightblue" d="M444.89,-179.32C456.15,-171.11 473.29,-158.6 486.71,-148.81"/>
<polygon fill="midnightblue" stroke="midnightblue" points="488.88,-151.56 494.89,-142.83 484.75,-145.9 488.88,-151.56"/>
</g>
<!-- Node18 -->
<g id="node18" class="node">
<title>Node18</title>
<g id="a_node18"><a xlink:title=" ">
<polygon fill="none" stroke="#bfbfbf" points="548,-123.5 548,-142.5 604,-142.5 604,-123.5 548,-123.5"/>
<text text-anchor="middle" x="576" y="-130.5" font-family="Helvetica,sans-Serif" font-size="10.00">numeric</text>
</a>
</g>
</g>
<!-- Node12&#45;&gt;Node18 -->
<g id="edge24" class="edge">
<title>Node12&#45;&gt;Node18</title>
<path fill="none" stroke="midnightblue" d="M455.66,-179.44C479.4,-170.48 516.91,-156.31 543.74,-146.18"/>
<polygon fill="midnightblue" stroke="midnightblue" points="545.33,-149.32 553.45,-142.52 542.86,-142.77 545.33,-149.32"/>
</g>
<!-- Node19 -->
<g id="node19" class="node">
<title>Node19</title>
<g id="a_node19"><a xlink:title=" ">
<polygon fill="none" stroke="#bfbfbf" points="704,-123.5 704,-142.5 748,-142.5 748,-123.5 704,-123.5"/>
<text text-anchor="middle" x="726" y="-130.5" font-family="Helvetica,sans-Serif" font-size="10.00">string</text>
</a>
</g>
</g>
<!-- Node12&#45;&gt;Node19 -->
<g id="edge26" class="edge">
<title>Node12&#45;&gt;Node19</title>
<path fill="none" stroke="midnightblue" d="M475.5,-181.3C534.66,-171.87 639.79,-154.75 693.67,-143.05"/>
<polygon fill="midnightblue" stroke="midnightblue" points="694.74,-146.4 703.73,-140.79 693.2,-139.57 694.74,-146.4"/>
</g>
<!-- Node12&#45;&gt;Node20 -->
<g id="edge27" class="edge">
<title>Node12&#45;&gt;Node20</title>
<path fill="none" stroke="midnightblue" d="M390.44,-180.61C387.24,-180.06 384.07,-179.52 381,-179 295.13,-164.47 193.91,-147.86 142.54,-139.47"/>
<polygon fill="midnightblue" stroke="midnightblue" points="143.09,-136.01 132.66,-137.85 141.96,-142.92 143.09,-136.01"/>
</g>
<!-- Node21&#45;&gt;Node2 -->
<g id="edge32" class="edge">
<title>Node21&#45;&gt;Node2</title>
<path fill="none" stroke="midnightblue" d="M784.53,-347.19C783.53,-319.37 783.97,-232.1 825,-179 836.65,-163.93 854.76,-153.43 871.45,-146.39"/>
<polygon fill="midnightblue" stroke="midnightblue" points="873.01,-149.54 881.05,-142.63 870.46,-143.02 873.01,-149.54"/>
</g>
<!-- Node21&#45;&gt;Node8 -->
<g id="edge53" class="edge">
<title>Node21&#45;&gt;Node8</title>
<path fill="none" stroke="midnightblue" d="M765.93,-347.37C723.35,-328.09 620.32,-281.45 570.25,-258.79"/>
<polygon fill="midnightblue" stroke="midnightblue" points="571.53,-255.53 560.98,-254.59 568.65,-261.9 571.53,-255.53"/>
</g>
<!-- Node21&#45;&gt;Node9 -->
<g id="edge31" class="edge">
<title>Node21&#45;&gt;Node9</title>
<path fill="none" stroke="midnightblue" d="M775.98,-347.34C767.93,-338.93 756.7,-325.36 752,-311 741.49,-278.9 741.69,-267.17 752,-235 762.99,-200.72 790.53,-168.34 808.46,-149.86"/>
<polygon fill="midnightblue" stroke="midnightblue" points="811.11,-152.16 815.71,-142.62 806.16,-147.21 811.11,-152.16"/>
</g>
<!-- Node21&#45;&gt;Node20 -->
<g id="edge59" class="edge">
<title>Node21&#45;&gt;Node20</title>
<path fill="none" stroke="midnightblue" d="M714.89,-350.48C650.08,-344.33 551.48,-332.34 468,-311 399.46,-293.48 382.97,-285.2 319,-255 247.79,-221.38 168.47,-172.25 130.95,-148.26"/>
<polygon fill="midnightblue" stroke="midnightblue" points="132.65,-145.19 122.34,-142.72 128.86,-151.07 132.65,-145.19"/>
</g>
<!-- Node22 -->
<g id="node22" class="node">
<title>Node22</title>
<g id="a_node22"><a xlink:href="multipole_8h.html" target="_top" xlink:title=" ">
<polygon fill="none" stroke="black" points="834,-179.5 834,-198.5 950,-198.5 950,-179.5 834,-179.5"/>
<text text-anchor="middle" x="892" y="-186.5" font-family="Helvetica,sans-Serif" font-size="10.00">occ/core/multipole.h</text>
</a>
</g>
</g>
<!-- Node21&#45;&gt;Node22 -->
<g id="edge33" class="edge">
<title>Node21&#45;&gt;Node22</title>
<path fill="none" stroke="midnightblue" d="M788.94,-347.4C798.46,-327.04 823.97,-274.58 852,-235 859.16,-224.89 868.26,-214.5 875.97,-206.25"/>
<polygon fill="midnightblue" stroke="midnightblue" points="878.71,-208.45 883.1,-198.81 873.65,-203.61 878.71,-208.45"/>
</g>
<!-- Node24 -->
<g id="node24" class="node">
<title>Node24</title>
<g id="a_node24"><a xlink:href="parallel_8h.html" target="_top" xlink:title=" ">
<polygon fill="none" stroke="black" points="127,-291.5 127,-310.5 233,-310.5 233,-291.5 127,-291.5"/>
<text text-anchor="middle" x="180" y="-298.5" font-family="Helvetica,sans-Serif" font-size="10.00">occ/core/parallel.h</text>
</a>
</g>
</g>
<!-- Node21&#45;&gt;Node24 -->
<g id="edge37" class="edge">
<title>Node21&#45;&gt;Node24</title>
<path fill="none" stroke="midnightblue" d="M714.82,-351.26C612.01,-344.05 414.49,-329.24 247,-311 245.72,-310.86 244.43,-310.72 243.12,-310.57"/>
<polygon fill="midnightblue" stroke="midnightblue" points="243.34,-307.07 233,-309.37 242.52,-314.02 243.34,-307.07"/>
</g>
<!-- Node26 -->
<g id="node26" class="node">
<title>Node26</title>
<g id="a_node26"><a xlink:href="timings_8h.html" target="_top" xlink:title=" ">
<polygon fill="none" stroke="black" points="861,-235.5 861,-254.5 967,-254.5 967,-235.5 861,-235.5"/>
<text text-anchor="middle" x="914" y="-242.5" font-family="Helvetica,sans-Serif" font-size="10.00">occ/core/timings.h</text>
</a>
</g>
</g>
<!-- Node21&#45;&gt;Node26 -->
<g id="edge40" class="edge">
<title>Node21&#45;&gt;Node26</title>
<path fill="none" stroke="midnightblue" d="M795.32,-347.16C809.92,-334.64 837.48,-311.04 861,-291 872.63,-281.09 885.71,-269.98 895.97,-261.28"/>
<polygon fill="midnightblue" stroke="midnightblue" points="898.47,-263.75 903.83,-254.62 893.94,-258.41 898.47,-263.75"/>
</g>
<!-- Node28 -->
<g id="node28" class="node">
<title>Node28</title>
<g id="a_node28"><a xlink:href="cint__interface_8h.html" target="_top" xlink:title=" ">
<polygon fill="none" stroke="black" points="476.5,-291.5 476.5,-310.5 607.5,-310.5 607.5,-291.5 476.5,-291.5"/>
<text text-anchor="middle" x="542" y="-298.5" font-family="Helvetica,sans-Serif" font-size="10.00">occ/qm/cint_interface.h</text>
</a>
</g>
</g>
<!-- Node21&#45;&gt;Node28 -->
<g id="edge43" class="edge">
<title>Node21&#45;&gt;Node28</title>
<path fill="none" stroke="midnightblue" d="M746.5,-347.44C704.19,-338.04 636.18,-322.93 590.33,-312.74"/>
<polygon fill="midnightblue" stroke="midnightblue" points="590.85,-309.27 580.32,-310.52 589.33,-316.1 590.85,-309.27"/>
</g>
<!-- Node30 -->
<g id="node30" class="node">
<title>Node30</title>
<g id="a_node30"><a xlink:href="expectation_8h.html" target="_top" xlink:title=" ">
<polygon fill="none" stroke="black" points="1032,-291.5 1032,-310.5 1154,-310.5 1154,-291.5 1032,-291.5"/>
<text text-anchor="middle" x="1093" y="-298.5" font-family="Helvetica,sans-Serif" font-size="10.00">occ/qm/expectation.h</text>
</a>
</g>
</g>
<!-- Node21&#45;&gt;Node30 -->
<g id="edge46" class="edge">
<title>Node21&#45;&gt;Node30</title>
<path fill="none" stroke="midnightblue" d="M833.8,-347.44C888.21,-337.9 976.17,-322.48 1034.29,-312.29"/>
<polygon fill="midnightblue" stroke="midnightblue" points="1035.18,-315.69 1044.42,-310.52 1033.97,-308.8 1035.18,-315.69"/>
</g>
<!-- Node21&#45;&gt;Node33 -->
<g id="edge51" class="edge">
<title>Node21&#45;&gt;Node33</title>
<path fill="none" stroke="midnightblue" d="M855.19,-348.98C929,-341.3 1048.73,-327.99 1161.71,-311.11"/>
<polygon fill="midnightblue" stroke="midnightblue" points="1162.56,-314.52 1171.92,-309.57 1161.51,-307.6 1162.56,-314.52"/>
</g>
<!-- Node34 -->
<g id="node34" class="node">
<title>Node34</title>
<g id="a_node34"><a xlink:href="shellblock__norm_8h.html" target="_top" xlink:title=" ">
<polygon fill="none" stroke="black" points="870,-291.5 870,-310.5 1014,-310.5 1014,-291.5 870,-291.5"/>
<text text-anchor="middle" x="942" y="-298.5" font-family="Helvetica,sans-Serif" font-size="10.00">occ/qm/shellblock_norm.h</text>
</a>
</g>
</g>
<!-- Node21&#45;&gt;Node34 -->
<g id="edge54" class="edge">
<title>Node21&#45;&gt;Node34</title>
<path fill="none" stroke="midnightblue" d="M809.88,-347.44C836.29,-338.36 878.22,-323.94 907.74,-313.78"/>
<polygon fill="midnightblue" stroke="midnightblue" points="908.92,-317.08 917.24,-310.52 906.64,-310.46 908.92,-317.08"/>
</g>
<!-- Node22&#45;&gt;Node3 -->
<g id="edge36" class="edge">
<title>Node22&#45;&gt;Node3</title>
<path fill="none" stroke="midnightblue" d="M936.27,-179.46C985.12,-169.6 1057.95,-153.39 1066,-143 1091.19,-110.46 1041.23,-94.03 991.64,-85.84"/>
<polygon fill="midnightblue" stroke="midnightblue" points="992.17,-82.38 981.75,-84.31 991.1,-89.3 992.17,-82.38"/>
</g>
<!-- Node22&#45;&gt;Node9 -->
<g id="edge34" class="edge">
<title>Node22&#45;&gt;Node9</title>
<path fill="none" stroke="midnightblue" d="M881.24,-179.32C871.23,-171.26 856.11,-159.08 844.07,-149.37"/>
<polygon fill="midnightblue" stroke="midnightblue" points="845.94,-146.38 835.96,-142.83 841.55,-151.83 845.94,-146.38"/>
</g>
<!-- Node23 -->
<g id="node23" class="node">
<title>Node23</title>
<g id="a_node23"><a xlink:title=" ">
<polygon fill="none" stroke="#bfbfbf" points="977.5,-123.5 977.5,-142.5 1056.5,-142.5 1056.5,-123.5 977.5,-123.5"/>
<text text-anchor="middle" x="1017" y="-130.5" font-family="Helvetica,sans-Serif" font-size="10.00">fmt/format.h</text>
</a>
</g>
</g>
<!-- Node22&#45;&gt;Node23 -->
<g id="edge35" class="edge">
<title>Node22&#45;&gt;Node23</title>
<path fill="none" stroke="midnightblue" d="M911.81,-179.44C932.29,-170.6 964.48,-156.69 987.86,-146.59"/>
<polygon fill="midnightblue" stroke="midnightblue" points="989.49,-149.7 997.29,-142.52 986.72,-143.27 989.49,-149.7"/>
</g>
<!-- Node24&#45;&gt;Node20 -->
<g id="edge39" class="edge">
<title>Node24&#45;&gt;Node20</title>
<path fill="none" stroke="midnightblue" d="M178.05,-291.41C175.05,-278.8 168.85,-254.65 161,-235 148.86,-204.6 130.61,-171.17 119.27,-151.41"/>
<polygon fill="midnightblue" stroke="midnightblue" points="122.23,-149.54 114.18,-142.65 116.17,-153.06 122.23,-149.54"/>
</g>
<!-- Node25 -->
<g id="node25" class="node">
<title>Node25</title>
<g id="a_node25"><a xlink:title=" ">
<polygon fill="none" stroke="#bfbfbf" points="104,-235.5 104,-254.5 152,-254.5 152,-235.5 104,-235.5"/>
<text text-anchor="middle" x="128" y="-242.5" font-family="Helvetica,sans-Serif" font-size="10.00">thread</text>
</a>
</g>
</g>
<!-- Node24&#45;&gt;Node25 -->
<g id="edge38" class="edge">
<title>Node24&#45;&gt;Node25</title>
<path fill="none" stroke="midnightblue" d="M171.41,-291.08C163.84,-283.22 152.62,-271.57 143.49,-262.08"/>
<polygon fill="midnightblue" stroke="midnightblue" points="145.88,-259.53 136.43,-254.75 140.84,-264.38 145.88,-259.53"/>
</g>
<!-- Node26&#45;&gt;Node19 -->
<g id="edge42" class="edge">
<title>Node26&#45;&gt;Node19</title>
<path fill="none" stroke="midnightblue" d="M860.69,-241.03C766.91,-235.26 580.47,-221.11 561,-199 499.19,-128.82 449.08,-209.91 693.7,-143.29"/>
<polygon fill="midnightblue" stroke="midnightblue" points="694.96,-146.58 703.66,-140.54 693.09,-139.83 694.96,-146.58"/>
</g>
<!-- Node27 -->
<g id="node27" class="node">
<title>Node27</title>
<g id="a_node27"><a xlink:title=" ">
<polygon fill="none" stroke="#bfbfbf" points="968,-179.5 968,-198.5 1018,-198.5 1018,-179.5 968,-179.5"/>
<text text-anchor="middle" x="993" y="-186.5" font-family="Helvetica,sans-Serif" font-size="10.00">chrono</text>
</a>
</g>
</g>
<!-- Node26&#45;&gt;Node27 -->
<g id="edge41" class="edge">
<title>Node26&#45;&gt;Node27</title>
<path fill="none" stroke="midnightblue" d="M926.69,-235.32C938.9,-226.98 957.58,-214.21 972,-204.35"/>
<polygon fill="midnightblue" stroke="midnightblue" points="974.06,-207.19 980.34,-198.65 970.11,-201.41 974.06,-207.19"/>
</g>
<!-- Node28&#45;&gt;Node8 -->
<g id="edge44" class="edge">
<title>Node28&#45;&gt;Node8</title>
<path fill="none" stroke="midnightblue" d="M542,-291.08C542,-284.01 542,-273.86 542,-264.99"/>
<polygon fill="midnightblue" stroke="midnightblue" points="545.5,-264.75 542,-254.75 538.5,-264.75 545.5,-264.75"/>
</g>
<!-- Node29 -->
<g id="node29" class="node">
<title>Node29</title>
<g id="a_node29"><a xlink:title=" ">
<polygon fill="none" stroke="#bfbfbf" points="328,-235.5 328,-254.5 480,-254.5 480,-235.5 328,-235.5"/>
<text text-anchor="middle" x="404" y="-242.5" font-family="Helvetica,sans-Serif" font-size="10.00">occ/3rdparty/cint_wrapper.h</text>
</a>
</g>
</g>
<!-- Node28&#45;&gt;Node29 -->
<g id="edge45" class="edge">
<title>Node28&#45;&gt;Node29</title>
<path fill="none" stroke="midnightblue" d="M520.13,-291.44C497.22,-282.48 461.02,-268.31 435.13,-258.18"/>
<polygon fill="midnightblue" stroke="midnightblue" points="436.35,-254.9 425.76,-254.52 433.8,-261.42 436.35,-254.9"/>
</g>
<!-- Node31 -->
<g id="node31" class="node">
<title>Node31</title>
<g id="a_node31"><a xlink:href="spinorbital_8h.html" target="_top" xlink:title=" ">
<polygon fill="none" stroke="black" points="1033,-235.5 1033,-254.5 1149,-254.5 1149,-235.5 1033,-235.5"/>
<text text-anchor="middle" x="1091" y="-242.5" font-family="Helvetica,sans-Serif" font-size="10.00">occ/qm/spinorbital.h</text>
</a>
</g>
</g>
<!-- Node30&#45;&gt;Node31 -->
<g id="edge47" class="edge">
<title>Node30&#45;&gt;Node31</title>
<path fill="none" stroke="midnightblue" d="M1092.67,-291.08C1092.41,-284.01 1092.03,-273.86 1091.7,-264.99"/>
<polygon fill="midnightblue" stroke="midnightblue" points="1095.19,-264.61 1091.32,-254.75 1088.2,-264.87 1095.19,-264.61"/>
</g>
<!-- Node31&#45;&gt;Node3 -->
<g id="edge48" class="edge">
<title>Node31&#45;&gt;Node3</title>
<path fill="none" stroke="midnightblue" d="M1110.4,-235.41C1132.64,-224.21 1164.62,-203.18 1153,-179 1124.34,-119.38 1050.14,-94.91 991.58,-84.89"/>
<polygon fill="midnightblue" stroke="midnightblue" points="992.01,-81.41 981.59,-83.29 990.91,-88.33 992.01,-81.41"/>
</g>
<!-- Node32 -->
<g id="node32" class="node">
<title>Node32</title>
<g id="a_node32"><a xlink:href="qm_2opmatrix_8h.html" target="_top" xlink:title=" ">
<polygon fill="none" stroke="black" points="1036,-179.5 1036,-198.5 1144,-198.5 1144,-179.5 1036,-179.5"/>
<text text-anchor="middle" x="1090" y="-186.5" font-family="Helvetica,sans-Serif" font-size="10.00">occ/qm/opmatrix.h</text>
</a>
</g>
</g>
<!-- Node31&#45;&gt;Node32 -->
<g id="edge49" class="edge">
<title>Node31&#45;&gt;Node32</title>
<path fill="none" stroke="midnightblue" d="M1085.67,-235.08C1084.03,-227.93 1083.41,-217.64 1083.89,-208.69"/>
<polygon fill="midnightblue" stroke="midnightblue" points="1087.37,-209.09 1085.03,-198.75 1080.41,-208.29 1087.37,-209.09"/>
</g>
<!-- Node32&#45;&gt;Node31 -->
<g id="edge50" class="edge">
<title>Node32&#45;&gt;Node31</title>
<path fill="none" stroke="midnightblue" d="M1095.29,-198.75C1096.95,-205.86 1097.59,-216.14 1097.12,-225.1"/>
<polygon fill="midnightblue" stroke="midnightblue" points="1093.64,-224.75 1096,-235.08 1100.6,-225.54 1093.64,-224.75"/>
</g>
<!-- Node33&#45;&gt;Node31 -->
<g id="edge52" class="edge">
<title>Node33&#45;&gt;Node31</title>
<path fill="none" stroke="midnightblue" d="M1192.83,-291.44C1173.09,-282.64 1142.11,-268.81 1119.51,-258.72"/>
<polygon fill="midnightblue" stroke="midnightblue" points="1120.64,-255.4 1110.08,-254.52 1117.79,-261.79 1120.64,-255.4"/>
</g>
<!-- Node34&#45;&gt;Node3 -->
<g id="edge55" class="edge">
<title>Node34&#45;&gt;Node3</title>
<path fill="none" stroke="midnightblue" d="M998.94,-291.5C1059.13,-281.98 1146.91,-266.42 1158,-255 1181.74,-230.57 1178.4,-211.44 1168,-179 1158.67,-149.87 1153.62,-139.71 1128,-123 1087.75,-96.75 1035.09,-85.42 991.83,-80.69"/>
<polygon fill="midnightblue" stroke="midnightblue" points="991.92,-77.18 981.62,-79.68 991.23,-84.15 991.92,-77.18"/>
</g>
<!-- Node34&#45;&gt;Node8 -->
<g id="edge57" class="edge">
<title>Node34&#45;&gt;Node8</title>
<path fill="none" stroke="midnightblue" d="M878.62,-291.44C800.46,-280.89 668.97,-263.14 595.6,-253.24"/>
<polygon fill="midnightblue" stroke="midnightblue" points="596.02,-249.76 585.65,-251.89 595.09,-256.7 596.02,-249.76"/>
</g>
<!-- Node34&#45;&gt;Node26 -->
<g id="edge56" class="edge">
<title>Node34&#45;&gt;Node26</title>
<path fill="none" stroke="midnightblue" d="M937.38,-291.08C933.54,-283.69 927.98,-272.95 923.24,-263.81"/>
<polygon fill="midnightblue" stroke="midnightblue" points="926.25,-262.02 918.54,-254.75 920.03,-265.24 926.25,-262.02"/>
</g>
<!-- Node34&#45;&gt;Node31 -->
<g id="edge58" class="edge">
<title>Node34&#45;&gt;Node31</title>
<path fill="none" stroke="midnightblue" d="M965.61,-291.44C990.46,-282.44 1029.77,-268.19 1057.75,-258.05"/>
<polygon fill="midnightblue" stroke="midnightblue" points="1059.29,-261.21 1067.5,-254.52 1056.91,-254.63 1059.29,-261.21"/>
</g>
</g>
</svg>
