<?xml version="1.0" encoding="UTF-8" standalone="no"?>
<!DOCTYPE svg PUBLIC "-//W3C//DTD SVG 1.1//EN"
 "http://www.w3.org/Graphics/SVG/1.1/DTD/svg11.dtd">
<!-- Generated by graphviz version 2.43.0 (0)
 -->
<!-- Title: /home/runner/work/occ/occ/include/occ/qm/shellblock_norm.h Pages: 1 -->
<svg width="1023pt" height="324pt"
 viewBox="0.00 0.00 1022.84 324.00" xmlns="http://www.w3.org/2000/svg" xmlns:xlink="http://www.w3.org/1999/xlink">
<g id="graph0" class="graph" transform="scale(1 1) rotate(0) translate(4 320)">
<title>/home/runner/work/occ/occ/include/occ/qm/shellblock_norm.h</title>
<!-- Node1 -->
<g id="Node000001" class="node">
<title>Node1</title>
<g id="a_Node000001"><a xlink:title=" ">
<polygon fill="#999999" stroke="#666666" points="563.28,-316 398.28,-316 398.28,-275 563.28,-275 563.28,-316"/>
<text text-anchor="start" x="406.28" y="-304" font-family="Helvetica,sans-Serif" font-size="10.00">/home/runner/work/occ</text>
<text text-anchor="start" x="406.28" y="-293" font-family="Helvetica,sans-Serif" font-size="10.00">/occ/include/occ/qm/shellblock</text>
<text text-anchor="middle" x="480.78" y="-282" font-family="Helvetica,sans-Serif" font-size="10.00">_norm.h</text>
</a>
</g>
</g>
<!-- Node2 -->
<g id="Node000002" class="node">
<title>Node2</title>
<g id="a_Node000002"><a xlink:href="linear__algebra_8h.html" target="_top" xlink:title=" ">
<polygon fill="white" stroke="#666666" points="353.28,-74 214.28,-74 214.28,-55 353.28,-55 353.28,-74"/>
<text text-anchor="middle" x="283.78" y="-62" font-family="Helvetica,sans-Serif" font-size="10.00">occ/core/linear_algebra.h</text>
</a>
</g>
</g>
<!-- Node1&#45;&gt;Node2 -->
<g id="edge1_Node000001_Node000002" class="edge">
<title>Node1&#45;&gt;Node2</title>
<g id="a_edge1_Node000001_Node000002"><a xlink:title=" ">
<path fill="none" stroke="#63b8ff" d="M398.18,-286.5C278.48,-273.05 65.84,-241.58 17.78,-184 -3.31,-158.73 -6.51,-135.1 14.78,-110 38.71,-81.79 133.71,-71.44 204.06,-67.65"/>
<polygon fill="#63b8ff" stroke="#63b8ff" points="204.44,-71.14 214.25,-67.14 204.09,-64.15 204.44,-71.14"/>
</a>
</g>
</g>
<!-- Node6 -->
<g id="Node000006" class="node">
<title>Node6</title>
<g id="a_Node000006"><a xlink:href="timings_8h.html" target="_top" xlink:title=" ">
<polygon fill="white" stroke="#666666" points="1003.78,-184 897.78,-184 897.78,-165 1003.78,-165 1003.78,-184"/>
<text text-anchor="middle" x="950.78" y="-172" font-family="Helvetica,sans-Serif" font-size="10.00">occ/core/timings.h</text>
</a>
</g>
</g>
<!-- Node1&#45;&gt;Node6 -->
<g id="edge5_Node000001_Node000006" class="edge">
<title>Node1&#45;&gt;Node6</title>
<g id="a_edge5_Node000001_Node000006"><a xlink:title=" ">
<path fill="none" stroke="#63b8ff" d="M563.41,-275.79C608.78,-265.34 665.98,-251.86 716.78,-239 785.21,-221.67 864.4,-199.8 910.89,-186.77"/>
<polygon fill="#63b8ff" stroke="#63b8ff" points="911.89,-190.12 920.58,-184.05 910,-183.38 911.89,-190.12"/>
</a>
</g>
</g>
<!-- Node9 -->
<g id="Node000009" class="node">
<title>Node9</title>
<g id="a_Node000009"><a xlink:href="shell_8h.html" target="_top" xlink:title=" ">
<polygon fill="white" stroke="#666666" points="355.28,-239 268.28,-239 268.28,-220 355.28,-220 355.28,-239"/>
<text text-anchor="middle" x="311.78" y="-227" font-family="Helvetica,sans-Serif" font-size="10.00">occ/qm/shell.h</text>
</a>
</g>
</g>
<!-- Node1&#45;&gt;Node9 -->
<g id="edge8_Node000001_Node000009" class="edge">
<title>Node1&#45;&gt;Node9</title>
<g id="a_edge8_Node000001_Node000009"><a xlink:title=" ">
<path fill="none" stroke="#63b8ff" d="M429.16,-274.95C401.34,-264.42 367.9,-251.75 343.84,-242.64"/>
<polygon fill="#63b8ff" stroke="#63b8ff" points="345.06,-239.36 334.47,-239.09 342.58,-245.91 345.06,-239.36"/>
</a>
</g>
</g>
<!-- Node21 -->
<g id="Node000021" class="node">
<title>Node21</title>
<g id="a_Node000021"><a xlink:href="spinorbital_8h.html" target="_top" xlink:title=" ">
<polygon fill="white" stroke="#666666" points="707.78,-239 591.78,-239 591.78,-220 707.78,-220 707.78,-239"/>
<text text-anchor="middle" x="649.78" y="-227" font-family="Helvetica,sans-Serif" font-size="10.00">occ/qm/spinorbital.h</text>
</a>
</g>
</g>
<!-- Node1&#45;&gt;Node21 -->
<g id="edge31_Node000001_Node000021" class="edge">
<title>Node1&#45;&gt;Node21</title>
<g id="a_edge31_Node000001_Node000021"><a xlink:title=" ">
<path fill="none" stroke="#63b8ff" d="M532.4,-274.95C560.22,-264.42 593.66,-251.75 617.72,-242.64"/>
<polygon fill="#63b8ff" stroke="#63b8ff" points="618.98,-245.91 627.09,-239.09 616.5,-239.36 618.98,-245.91"/>
</a>
</g>
</g>
<!-- Node3 -->
<g id="Node000003" class="node">
<title>Node3</title>
<g id="a_Node000003"><a xlink:title=" ">
<polygon fill="#e0e0e0" stroke="#999999" points="374.28,-19 297.28,-19 297.28,0 374.28,0 374.28,-19"/>
<text text-anchor="middle" x="335.78" y="-7" font-family="Helvetica,sans-Serif" font-size="10.00">Eigen/Dense</text>
</a>
</g>
</g>
<!-- Node2&#45;&gt;Node3 -->
<g id="edge2_Node000002_Node000003" class="edge">
<title>Node2&#45;&gt;Node3</title>
<g id="a_edge2_Node000002_Node000003"><a xlink:title=" ">
<path fill="none" stroke="#63b8ff" d="M292.37,-54.75C299.94,-47.03 311.16,-35.6 320.3,-26.28"/>
<polygon fill="#63b8ff" stroke="#63b8ff" points="322.85,-28.68 327.35,-19.09 317.85,-23.78 322.85,-28.68"/>
</a>
</g>
</g>
<!-- Node4 -->
<g id="Node000004" class="node">
<title>Node4</title>
<g id="a_Node000004"><a xlink:title=" ">
<polygon fill="#e0e0e0" stroke="#999999" points="279.28,-19 186.28,-19 186.28,0 279.28,0 279.28,-19"/>
<text text-anchor="middle" x="232.78" y="-7" font-family="Helvetica,sans-Serif" font-size="10.00">Eigen/StdVector</text>
</a>
</g>
</g>
<!-- Node2&#45;&gt;Node4 -->
<g id="edge3_Node000002_Node000004" class="edge">
<title>Node2&#45;&gt;Node4</title>
<g id="a_edge3_Node000002_Node000004"><a xlink:title=" ">
<path fill="none" stroke="#63b8ff" d="M275.36,-54.75C268.01,-47.11 257.15,-35.82 248.24,-26.56"/>
<polygon fill="#63b8ff" stroke="#63b8ff" points="250.5,-23.87 241.05,-19.09 245.46,-28.72 250.5,-23.87"/>
</a>
</g>
</g>
<!-- Node5 -->
<g id="Node000005" class="node">
<title>Node5</title>
<g id="a_Node000005"><a xlink:title=" ">
<polygon fill="#e0e0e0" stroke="#999999" points="889.28,-19 822.28,-19 822.28,0 889.28,0 889.28,-19"/>
<text text-anchor="middle" x="855.78" y="-7" font-family="Helvetica,sans-Serif" font-size="10.00">fmt/core.h</text>
</a>
</g>
</g>
<!-- Node2&#45;&gt;Node5 -->
<g id="edge4_Node000002_Node000005" class="edge">
<title>Node2&#45;&gt;Node5</title>
<g id="a_edge4_Node000002_Node000005"><a xlink:title=" ">
<path fill="none" stroke="#63b8ff" d="M353.35,-57.05C472.71,-45.99 713.18,-23.71 811.93,-14.56"/>
<polygon fill="#63b8ff" stroke="#63b8ff" points="812.51,-18.02 822.15,-13.62 811.87,-11.05 812.51,-18.02"/>
</a>
</g>
</g>
<!-- Node7 -->
<g id="Node000007" class="node">
<title>Node7</title>
<g id="a_Node000007"><a xlink:title=" ">
<polygon fill="#e0e0e0" stroke="#999999" points="933.78,-129 883.78,-129 883.78,-110 933.78,-110 933.78,-129"/>
<text text-anchor="middle" x="908.78" y="-117" font-family="Helvetica,sans-Serif" font-size="10.00">chrono</text>
</a>
</g>
</g>
<!-- Node6&#45;&gt;Node7 -->
<g id="edge6_Node000006_Node000007" class="edge">
<title>Node6&#45;&gt;Node7</title>
<g id="a_edge6_Node000006_Node000007"><a xlink:title=" ">
<path fill="none" stroke="#63b8ff" d="M943.85,-164.75C937.91,-157.26 929.21,-146.28 921.96,-137.13"/>
<polygon fill="#63b8ff" stroke="#63b8ff" points="924.54,-134.75 915.59,-129.09 919.06,-139.1 924.54,-134.75"/>
</a>
</g>
</g>
<!-- Node8 -->
<g id="Node000008" class="node">
<title>Node8</title>
<g id="a_Node000008"><a xlink:title=" ">
<polygon fill="#e0e0e0" stroke="#999999" points="995.78,-129 951.78,-129 951.78,-110 995.78,-110 995.78,-129"/>
<text text-anchor="middle" x="973.78" y="-117" font-family="Helvetica,sans-Serif" font-size="10.00">string</text>
</a>
</g>
</g>
<!-- Node6&#45;&gt;Node8 -->
<g id="edge7_Node000006_Node000008" class="edge">
<title>Node6&#45;&gt;Node8</title>
<g id="a_edge7_Node000006_Node000008"><a xlink:title=" ">
<path fill="none" stroke="#63b8ff" d="M954.58,-164.75C957.69,-157.57 962.2,-147.18 966.07,-138.27"/>
<polygon fill="#63b8ff" stroke="#63b8ff" points="969.28,-139.66 970.05,-129.09 962.86,-136.87 969.28,-139.66"/>
</a>
</g>
</g>
<!-- Node9&#45;&gt;Node2 -->
<g id="edge14_Node000009_Node000002" class="edge">
<title>Node9&#45;&gt;Node2</title>
<g id="a_edge14_Node000009_Node000002"><a xlink:title=" ">
<path fill="none" stroke="#63b8ff" d="M310.28,-219.74C305.89,-194.2 293.05,-119.43 287,-84.23"/>
<polygon fill="#63b8ff" stroke="#63b8ff" points="290.44,-83.57 285.29,-74.31 283.54,-84.76 290.44,-83.57"/>
</a>
</g>
</g>
<!-- Node9&#45;&gt;Node5 -->
<g id="edge10_Node000009_Node000005" class="edge">
<title>Node9&#45;&gt;Node5</title>
<g id="a_edge10_Node000009_Node000005"><a xlink:title=" ">
<path fill="none" stroke="#63b8ff" d="M355.49,-226.2C428.07,-221.79 577.75,-210.15 701.78,-184 729.57,-178.14 735.1,-171.33 762.78,-165 815.78,-152.88 969.28,-170.18 1004.78,-129 1044.59,-82.84 949.71,-41.68 893.54,-22.28"/>
<polygon fill="#63b8ff" stroke="#63b8ff" points="894.48,-18.9 883.88,-19.03 892.24,-25.54 894.48,-18.9"/>
</a>
</g>
</g>
<!-- Node10 -->
<g id="Node000010" class="node">
<title>Node10</title>
<g id="a_Node000010"><a xlink:title=" ">
<polygon fill="#e0e0e0" stroke="#999999" points="65.78,-129 23.78,-129 23.78,-110 65.78,-110 65.78,-129"/>
<text text-anchor="middle" x="44.78" y="-117" font-family="Helvetica,sans-Serif" font-size="10.00">array</text>
</a>
</g>
</g>
<!-- Node9&#45;&gt;Node10 -->
<g id="edge9_Node000009_Node000010" class="edge">
<title>Node9&#45;&gt;Node10</title>
<g id="a_edge9_Node000009_Node000010"><a xlink:title=" ">
<path fill="none" stroke="#63b8ff" d="M268.04,-228.31C196.01,-226.96 57.31,-219.67 26.78,-184 15.76,-171.13 23.48,-151.94 31.96,-138.03"/>
<polygon fill="#63b8ff" stroke="#63b8ff" points="35.1,-139.64 37.74,-129.38 29.27,-135.75 35.1,-139.64"/>
</a>
</g>
</g>
<!-- Node11 -->
<g id="Node000011" class="node">
<title>Node11</title>
<g id="a_Node000011"><a xlink:title=" ">
<polygon fill="#e0e0e0" stroke="#999999" points="283.78,-184 223.78,-184 223.78,-165 283.78,-165 283.78,-184"/>
<text text-anchor="middle" x="253.78" y="-172" font-family="Helvetica,sans-Serif" font-size="10.00">iostream</text>
</a>
</g>
</g>
<!-- Node9&#45;&gt;Node11 -->
<g id="edge11_Node000009_Node000011" class="edge">
<title>Node9&#45;&gt;Node11</title>
<g id="a_edge11_Node000009_Node000011"><a xlink:title=" ">
<path fill="none" stroke="#63b8ff" d="M302.46,-219.98C293.97,-212.23 281.22,-200.58 270.9,-191.14"/>
<polygon fill="#63b8ff" stroke="#63b8ff" points="273.01,-188.33 263.27,-184.17 268.29,-193.5 273.01,-188.33"/>
</a>
</g>
</g>
<!-- Node12 -->
<g id="Node000012" class="node">
<title>Node12</title>
<g id="a_Node000012"><a xlink:href="atom_8h.html" target="_top" xlink:title=" ">
<polygon fill="white" stroke="#666666" points="243.28,-129 148.28,-129 148.28,-110 243.28,-110 243.28,-129"/>
<text text-anchor="middle" x="195.78" y="-117" font-family="Helvetica,sans-Serif" font-size="10.00">occ/core/atom.h</text>
</a>
</g>
</g>
<!-- Node9&#45;&gt;Node12 -->
<g id="edge12_Node000009_Node000012" class="edge">
<title>Node9&#45;&gt;Node12</title>
<g id="a_edge12_Node000009_Node000012"><a xlink:title=" ">
<path fill="none" stroke="#63b8ff" d="M275.9,-219.98C255.35,-213.37 230.59,-202.18 214.78,-184 204.05,-171.65 199.37,-153.43 197.34,-139.67"/>
<polygon fill="#63b8ff" stroke="#63b8ff" points="200.78,-138.93 196.18,-129.39 193.83,-139.72 200.78,-138.93"/>
</a>
</g>
</g>
<!-- Node13 -->
<g id="Node000013" class="node">
<title>Node13</title>
<g id="a_Node000013"><a xlink:href="point__charge_8h.html" target="_top" xlink:title=" ">
<polygon fill="white" stroke="#666666" points="167.78,-184 35.78,-184 35.78,-165 167.78,-165 167.78,-184"/>
<text text-anchor="middle" x="101.78" y="-172" font-family="Helvetica,sans-Serif" font-size="10.00">occ/core/point_charge.h</text>
</a>
</g>
</g>
<!-- Node9&#45;&gt;Node13 -->
<g id="edge15_Node000009_Node000013" class="edge">
<title>Node9&#45;&gt;Node13</title>
<g id="a_edge15_Node000009_Node000013"><a xlink:title=" ">
<path fill="none" stroke="#63b8ff" d="M278.04,-219.98C242.1,-210.91 185.06,-196.52 145.65,-186.57"/>
<polygon fill="#63b8ff" stroke="#63b8ff" points="146.34,-183.14 135.79,-184.08 144.63,-189.92 146.34,-183.14"/>
</a>
</g>
</g>
<!-- Node14 -->
<g id="Node000014" class="node">
<title>Node14</title>
<g id="a_Node000014"><a xlink:href="util_8h.html" target="_top" xlink:title=" ">
<polygon fill="white" stroke="#666666" points="692.28,-184 607.28,-184 607.28,-165 692.28,-165 692.28,-184"/>
<text text-anchor="middle" x="649.78" y="-172" font-family="Helvetica,sans-Serif" font-size="10.00">occ/core/util.h</text>
</a>
</g>
</g>
<!-- Node9&#45;&gt;Node14 -->
<g id="edge19_Node000009_Node000014" class="edge">
<title>Node9&#45;&gt;Node14</title>
<g id="a_edge19_Node000009_Node000014"><a xlink:title=" ">
<path fill="none" stroke="#63b8ff" d="M355.62,-221.63C417.51,-211.92 530.34,-194.23 596.83,-183.8"/>
<polygon fill="#63b8ff" stroke="#63b8ff" points="597.75,-187.2 607.08,-182.2 596.66,-180.29 597.75,-187.2"/>
</a>
</g>
</g>
<!-- Node20 -->
<g id="Node000020" class="node">
<title>Node20</title>
<g id="a_Node000020"><a xlink:title=" ">
<polygon fill="#e0e0e0" stroke="#999999" points="359.28,-129 312.28,-129 312.28,-110 359.28,-110 359.28,-129"/>
<text text-anchor="middle" x="335.78" y="-117" font-family="Helvetica,sans-Serif" font-size="10.00">vector</text>
</a>
</g>
</g>
<!-- Node9&#45;&gt;Node20 -->
<g id="edge30_Node000009_Node000020" class="edge">
<title>Node9&#45;&gt;Node20</title>
<g id="a_edge30_Node000009_Node000020"><a xlink:title=" ">
<path fill="none" stroke="#63b8ff" d="M314.96,-219.74C318.09,-210.84 322.82,-196.62 325.78,-184 329.26,-169.19 331.86,-152.16 333.55,-139.46"/>
<polygon fill="#63b8ff" stroke="#63b8ff" points="337.06,-139.56 334.83,-129.21 330.11,-138.7 337.06,-139.56"/>
</a>
</g>
</g>
<!-- Node12&#45;&gt;Node2 -->
<g id="edge13_Node000012_Node000002" class="edge">
<title>Node12&#45;&gt;Node2</title>
<g id="a_edge13_Node000012_Node000002"><a xlink:title=" ">
<path fill="none" stroke="#63b8ff" d="M209.92,-109.98C223.57,-101.77 244.47,-89.18 260.56,-79.49"/>
<polygon fill="#63b8ff" stroke="#63b8ff" points="262.62,-82.33 269.39,-74.17 259.01,-76.33 262.62,-82.33"/>
</a>
</g>
</g>
<!-- Node13&#45;&gt;Node2 -->
<g id="edge18_Node000013_Node000002" class="edge">
<title>Node13&#45;&gt;Node2</title>
<g id="a_edge18_Node000013_Node000002"><a xlink:title=" ">
<path fill="none" stroke="#63b8ff" d="M104.55,-164.72C109.32,-151.01 120.39,-124.59 138.78,-110 159.73,-93.39 186.86,-82.95 211.99,-76.41"/>
<polygon fill="#63b8ff" stroke="#63b8ff" points="212.98,-79.77 221.87,-74 211.32,-72.97 212.98,-79.77"/>
</a>
</g>
</g>
<!-- Node13&#45;&gt;Node10 -->
<g id="edge16_Node000013_Node000010" class="edge">
<title>Node13&#45;&gt;Node10</title>
<g id="a_edge16_Node000013_Node000010"><a xlink:title=" ">
<path fill="none" stroke="#63b8ff" d="M92.62,-164.98C84.28,-157.23 71.75,-145.58 61.6,-136.14"/>
<polygon fill="#63b8ff" stroke="#63b8ff" points="63.81,-133.42 54.11,-129.17 59.05,-138.54 63.81,-133.42"/>
</a>
</g>
</g>
<!-- Node13&#45;&gt;Node12 -->
<g id="edge17_Node000013_Node000012" class="edge">
<title>Node13&#45;&gt;Node12</title>
<g id="a_edge17_Node000013_Node000012"><a xlink:title=" ">
<path fill="none" stroke="#63b8ff" d="M116.88,-164.98C131.6,-156.69 154.21,-143.94 171.46,-134.22"/>
<polygon fill="#63b8ff" stroke="#63b8ff" points="173.41,-137.13 180.4,-129.17 169.97,-131.03 173.41,-137.13"/>
</a>
</g>
</g>
<!-- Node14&#45;&gt;Node2 -->
<g id="edge27_Node000014_Node000002" class="edge">
<title>Node14&#45;&gt;Node2</title>
<g id="a_edge27_Node000014_Node000002"><a xlink:title=" ">
<path fill="none" stroke="#63b8ff" d="M607.11,-166.83C565.17,-159.68 499.67,-146.88 444.78,-129 424.91,-122.53 421.12,-117.91 401.78,-110 373.59,-98.47 341.19,-86.33 317.48,-77.64"/>
<polygon fill="#63b8ff" stroke="#63b8ff" points="318.48,-74.28 307.89,-74.15 316.09,-80.86 318.48,-74.28"/>
</a>
</g>
</g>
<!-- Node14&#45;&gt;Node5 -->
<g id="edge23_Node000014_Node000005" class="edge">
<title>Node14&#45;&gt;Node5</title>
<g id="a_edge23_Node000014_Node000005"><a xlink:title=" ">
<path fill="none" stroke="#63b8ff" d="M692.38,-168.85C741.35,-162.59 817.49,-149.79 836.78,-129 862.09,-101.73 861.34,-54.84 858.56,-28.98"/>
<polygon fill="#63b8ff" stroke="#63b8ff" points="862.03,-28.48 857.28,-19.01 855.09,-29.37 862.03,-28.48"/>
</a>
</g>
</g>
<!-- Node14&#45;&gt;Node7 -->
<g id="edge22_Node000014_Node000007" class="edge">
<title>Node14&#45;&gt;Node7</title>
<g id="a_edge22_Node000014_Node000007"><a xlink:title=" ">
<path fill="none" stroke="#63b8ff" d="M692.41,-165.08C736.75,-156.26 808.19,-141.94 869.78,-129 871.04,-128.74 872.32,-128.46 873.62,-128.19"/>
<polygon fill="#63b8ff" stroke="#63b8ff" points="874.58,-131.56 883.62,-126.04 873.11,-124.72 874.58,-131.56"/>
</a>
</g>
</g>
<!-- Node14&#45;&gt;Node8 -->
<g id="edge28_Node000014_Node000008" class="edge">
<title>Node14&#45;&gt;Node8</title>
<g id="a_edge28_Node000014_Node000008"><a xlink:title=" ">
<path fill="none" stroke="#63b8ff" d="M692.76,-168.57C748.16,-161.86 847.61,-148.64 941.56,-129.05"/>
<polygon fill="#63b8ff" stroke="#63b8ff" points="942.45,-132.44 951.51,-126.94 941,-125.59 942.45,-132.44"/>
</a>
</g>
</g>
<!-- Node15 -->
<g id="Node000015" class="node">
<title>Node15</title>
<g id="a_Node000015"><a xlink:title=" ">
<polygon fill="#e0e0e0" stroke="#999999" points="759.78,-129 695.78,-129 695.78,-110 759.78,-110 759.78,-129"/>
<text text-anchor="middle" x="727.78" y="-117" font-family="Helvetica,sans-Serif" font-size="10.00">algorithm</text>
</a>
</g>
</g>
<!-- Node14&#45;&gt;Node15 -->
<g id="edge20_Node000014_Node000015" class="edge">
<title>Node14&#45;&gt;Node15</title>
<g id="a_edge20_Node000014_Node000015"><a xlink:title=" ">
<path fill="none" stroke="#63b8ff" d="M662.31,-164.98C674.18,-156.92 692.25,-144.65 706.39,-135.03"/>
<polygon fill="#63b8ff" stroke="#63b8ff" points="708.72,-137.69 715.02,-129.17 704.78,-131.9 708.72,-137.69"/>
</a>
</g>
</g>
<!-- Node16 -->
<g id="Node000016" class="node">
<title>Node16</title>
<g id="a_Node000016"><a xlink:title=" ">
<polygon fill="#e0e0e0" stroke="#999999" points="827.28,-129 778.28,-129 778.28,-110 827.28,-110 827.28,-129"/>
<text text-anchor="middle" x="802.78" y="-117" font-family="Helvetica,sans-Serif" font-size="10.00">cctype</text>
</a>
</g>
</g>
<!-- Node14&#45;&gt;Node16 -->
<g id="edge21_Node000014_Node000016" class="edge">
<title>Node14&#45;&gt;Node16</title>
<g id="a_edge21_Node000014_Node000016"><a xlink:title=" ">
<path fill="none" stroke="#63b8ff" d="M674.36,-164.98C699.9,-156.14 740.06,-142.23 768.67,-132.32"/>
<polygon fill="#63b8ff" stroke="#63b8ff" points="769.96,-135.57 778.26,-128.99 767.67,-128.96 769.96,-135.57"/>
</a>
</g>
</g>
<!-- Node17 -->
<g id="Node000017" class="node">
<title>Node17</title>
<g id="a_Node000017"><a xlink:title=" ">
<polygon fill="#e0e0e0" stroke="#999999" points="539.78,-129 453.78,-129 453.78,-110 539.78,-110 539.78,-129"/>
<text text-anchor="middle" x="496.78" y="-117" font-family="Helvetica,sans-Serif" font-size="10.00">fmt/ostream.h</text>
</a>
</g>
</g>
<!-- Node14&#45;&gt;Node17 -->
<g id="edge24_Node000014_Node000017" class="edge">
<title>Node14&#45;&gt;Node17</title>
<g id="a_edge24_Node000014_Node000017"><a xlink:title=" ">
<path fill="none" stroke="#63b8ff" d="M625.2,-164.98C599.73,-156.16 559.74,-142.31 531.15,-132.41"/>
<polygon fill="#63b8ff" stroke="#63b8ff" points="532.15,-129.05 521.56,-129.08 529.86,-135.66 532.15,-129.05"/>
</a>
</g>
</g>
<!-- Node18 -->
<g id="Node000018" class="node">
<title>Node18</title>
<g id="a_Node000018"><a xlink:title=" ">
<polygon fill="#e0e0e0" stroke="#999999" points="603.78,-129 557.78,-129 557.78,-110 603.78,-110 603.78,-129"/>
<text text-anchor="middle" x="580.78" y="-117" font-family="Helvetica,sans-Serif" font-size="10.00">locale</text>
</a>
</g>
</g>
<!-- Node14&#45;&gt;Node18 -->
<g id="edge25_Node000014_Node000018" class="edge">
<title>Node14&#45;&gt;Node18</title>
<g id="a_edge25_Node000014_Node000018"><a xlink:title=" ">
<path fill="none" stroke="#63b8ff" d="M638.69,-164.98C628.3,-157 612.52,-144.88 600.06,-135.31"/>
<polygon fill="#63b8ff" stroke="#63b8ff" points="602.13,-132.49 592.07,-129.17 597.87,-138.04 602.13,-132.49"/>
</a>
</g>
</g>
<!-- Node19 -->
<g id="Node000019" class="node">
<title>Node19</title>
<g id="a_Node000019"><a xlink:title=" ">
<polygon fill="#e0e0e0" stroke="#999999" points="677.78,-129 621.78,-129 621.78,-110 677.78,-110 677.78,-129"/>
<text text-anchor="middle" x="649.78" y="-117" font-family="Helvetica,sans-Serif" font-size="10.00">numeric</text>
</a>
</g>
</g>
<!-- Node14&#45;&gt;Node19 -->
<g id="edge26_Node000014_Node000019" class="edge">
<title>Node14&#45;&gt;Node19</title>
<g id="a_edge26_Node000014_Node000019"><a xlink:title=" ">
<path fill="none" stroke="#63b8ff" d="M649.78,-164.75C649.78,-157.8 649.78,-147.85 649.78,-139.13"/>
<polygon fill="#63b8ff" stroke="#63b8ff" points="653.28,-139.09 649.78,-129.09 646.28,-139.09 653.28,-139.09"/>
</a>
</g>
</g>
<!-- Node14&#45;&gt;Node20 -->
<g id="edge29_Node000014_Node000020" class="edge">
<title>Node14&#45;&gt;Node20</title>
<g id="a_edge29_Node000014_Node000020"><a xlink:title=" ">
<path fill="none" stroke="#63b8ff" d="M607.11,-166.3C543.96,-155.64 426.93,-135.89 369.44,-126.18"/>
<polygon fill="#63b8ff" stroke="#63b8ff" points="369.87,-122.7 359.42,-124.49 368.7,-129.61 369.87,-122.7"/>
</a>
</g>
</g>
<!-- Node21&#45;&gt;Node2 -->
<g id="edge32_Node000021_Node000002" class="edge">
<title>Node21&#45;&gt;Node2</title>
<g id="a_edge32_Node000021_Node000002"><a xlink:title=" ">
<path fill="none" stroke="#63b8ff" d="M625.4,-219.9C580.43,-203.78 481.74,-167.19 401.78,-129 386.16,-121.54 382.99,-118.27 367.78,-110 348.27,-99.38 326.06,-87.63 309.38,-78.87"/>
<polygon fill="#63b8ff" stroke="#63b8ff" points="310.74,-75.63 300.26,-74.09 307.49,-81.83 310.74,-75.63"/>
</a>
</g>
</g>
<!-- Node21&#45;&gt;Node14 -->
<g id="edge33_Node000021_Node000014" class="edge">
<title>Node21&#45;&gt;Node14</title>
<g id="a_edge33_Node000021_Node000014"><a xlink:title=" ">
<path fill="none" stroke="#63b8ff" d="M649.78,-219.75C649.78,-212.8 649.78,-202.85 649.78,-194.13"/>
<polygon fill="#63b8ff" stroke="#63b8ff" points="653.28,-194.09 649.78,-184.09 646.28,-194.09 653.28,-194.09"/>
</a>
</g>
</g>
<!-- Node22 -->
<g id="Node000022" class="node">
<title>Node22</title>
<g id="a_Node000022"><a xlink:href="qm_2opmatrix_8h.html" target="_top" xlink:title=" ">
<polygon fill="white" stroke="#666666" points="879.78,-184 771.78,-184 771.78,-165 879.78,-165 879.78,-184"/>
<text text-anchor="middle" x="825.78" y="-172" font-family="Helvetica,sans-Serif" font-size="10.00">occ/qm/opmatrix.h</text>
</a>
</g>
</g>
<!-- Node21&#45;&gt;Node22 -->
<g id="edge34_Node000021_Node000022" class="edge">
<title>Node21&#45;&gt;Node22</title>
<g id="a_edge34_Node000021_Node000022"><a xlink:title=" ">
<path fill="none" stroke="#63b8ff" d="M672.94,-219.98C700.77,-211.01 747.7,-196.82 782.3,-186.89"/>
<polygon fill="#63b8ff" stroke="#63b8ff" points="783.49,-190.19 792.15,-184.08 781.58,-183.46 783.49,-190.19"/>
</a>
</g>
</g>
<!-- Node22&#45;&gt;Node21 -->
<g id="edge35_Node000022_Node000021" class="edge">
<title>Node22&#45;&gt;Node21</title>
<g id="a_edge35_Node000022_Node000021"><a xlink:title=" ">
<path fill="none" stroke="#63b8ff" d="M802.41,-184.08C774.49,-193.08 727.55,-207.27 693.01,-217.18"/>
<polygon fill="#63b8ff" stroke="#63b8ff" points="691.83,-213.88 683.17,-219.98 693.75,-220.61 691.83,-213.88"/>
</a>
</g>
</g>
</g>
</svg>
