<?xml version="1.0" encoding="UTF-8" standalone="no"?>
<!DOCTYPE svg PUBLIC "-//W3C//DTD SVG 1.1//EN"
 "http://www.w3.org/Graphics/SVG/1.1/DTD/svg11.dtd">
<!-- Generated by graphviz version 2.43.0 (0)
 -->
<!-- Title: /home/runner/work/occ/occ/include/occ/gto/shell.h Pages: 1 -->
<svg width="1039pt" height="269pt"
 viewBox="0.00 0.00 1039.24 269.00" xmlns="http://www.w3.org/2000/svg" xmlns:xlink="http://www.w3.org/1999/xlink">
<g id="graph0" class="graph" transform="scale(1 1) rotate(0) translate(4 265)">
<title>/home/runner/work/occ/occ/include/occ/gto/shell.h</title>
<!-- Node1 -->
<g id="Node000001" class="node">
<title>Node1</title>
<g id="a_Node000001"><a xlink:title=" ">
<polygon fill="#999999" stroke="#666666" points="308,-261 180,-261 180,-220 308,-220 308,-261"/>
<text text-anchor="start" x="188" y="-249" font-family="Helvetica,sans-Serif" font-size="10.00">/home/runner/work/occ</text>
<text text-anchor="start" x="188" y="-238" font-family="Helvetica,sans-Serif" font-size="10.00">/occ/include/occ/gto</text>
<text text-anchor="middle" x="244" y="-227" font-family="Helvetica,sans-Serif" font-size="10.00">/shell.h</text>
</a>
</g>
</g>
<!-- Node2 -->
<g id="Node000002" class="node">
<title>Node2</title>
<g id="a_Node000002"><a xlink:title=" ">
<polygon fill="#e0e0e0" stroke="#999999" points="42,-129 0,-129 0,-110 42,-110 42,-129"/>
<text text-anchor="middle" x="21" y="-117" font-family="Helvetica,sans-Serif" font-size="10.00">array</text>
</a>
</g>
</g>
<!-- Node1&#45;&gt;Node2 -->
<g id="edge1_Node000001_Node000002" class="edge">
<title>Node1&#45;&gt;Node2</title>
<g id="a_edge1_Node000001_Node000002"><a xlink:title=" ">
<path fill="none" stroke="#63b8ff" d="M179.95,-238.72C134.13,-234.69 74.21,-221.77 37,-184 25.42,-172.24 21.83,-153.39 20.89,-139.28"/>
<polygon fill="#63b8ff" stroke="#63b8ff" points="24.38,-139.1 20.6,-129.21 17.39,-139.3 24.38,-139.1"/>
</a>
</g>
</g>
<!-- Node3 -->
<g id="Node000003" class="node">
<title>Node3</title>
<g id="a_Node000003"><a xlink:title=" ">
<polygon fill="#e0e0e0" stroke="#999999" points="242.5,-129 175.5,-129 175.5,-110 242.5,-110 242.5,-129"/>
<text text-anchor="middle" x="209" y="-117" font-family="Helvetica,sans-Serif" font-size="10.00">fmt/core.h</text>
</a>
</g>
</g>
<!-- Node1&#45;&gt;Node3 -->
<g id="edge2_Node000001_Node000003" class="edge">
<title>Node1&#45;&gt;Node3</title>
<g id="a_edge2_Node000001_Node000003"><a xlink:title=" ">
<path fill="none" stroke="#63b8ff" d="M238.22,-219.85C231.61,-197.37 220.87,-160.86 214.42,-138.91"/>
<polygon fill="#63b8ff" stroke="#63b8ff" points="217.73,-137.78 211.55,-129.18 211.02,-139.76 217.73,-137.78"/>
</a>
</g>
</g>
<!-- Node4 -->
<g id="Node000004" class="node">
<title>Node4</title>
<g id="a_Node000004"><a xlink:href="atom_8h.html" target="_top" xlink:title=" ">
<polygon fill="white" stroke="#666666" points="157.5,-129 62.5,-129 62.5,-110 157.5,-110 157.5,-129"/>
<text text-anchor="middle" x="110" y="-117" font-family="Helvetica,sans-Serif" font-size="10.00">occ/core/atom.h</text>
</a>
</g>
</g>
<!-- Node1&#45;&gt;Node4 -->
<g id="edge3_Node000001_Node000004" class="edge">
<title>Node1&#45;&gt;Node4</title>
<g id="a_edge3_Node000001_Node000004"><a xlink:title=" ">
<path fill="none" stroke="#63b8ff" d="M232,-219.73C221.55,-203.63 205.23,-181.02 187,-165 172.5,-152.26 153.79,-141.35 138.45,-133.52"/>
<polygon fill="#63b8ff" stroke="#63b8ff" points="139.91,-130.34 129.4,-129.05 136.82,-136.61 139.91,-130.34"/>
</a>
</g>
</g>
<!-- Node5 -->
<g id="Node000005" class="node">
<title>Node5</title>
<g id="a_Node000005"><a xlink:href="linear__algebra_8h.html" target="_top" xlink:title=" ">
<polygon fill="white" stroke="#666666" points="340.5,-74 201.5,-74 201.5,-55 340.5,-55 340.5,-74"/>
<text text-anchor="middle" x="271" y="-62" font-family="Helvetica,sans-Serif" font-size="10.00">occ/core/linear_algebra.h</text>
</a>
</g>
</g>
<!-- Node1&#45;&gt;Node5 -->
<g id="edge7_Node000001_Node000005" class="edge">
<title>Node1&#45;&gt;Node5</title>
<g id="a_edge7_Node000001_Node000005"><a xlink:title=" ">
<path fill="none" stroke="#63b8ff" d="M308.26,-238.77C511.34,-235.37 1120.17,-216.3 1020,-110 997.32,-85.93 539.02,-72.04 350.72,-67.33"/>
<polygon fill="#63b8ff" stroke="#63b8ff" points="350.69,-63.83 340.61,-67.08 350.52,-70.83 350.69,-63.83"/>
</a>
</g>
</g>
<!-- Node8 -->
<g id="Node000008" class="node">
<title>Node8</title>
<g id="a_Node000008"><a xlink:href="point__charge_8h.html" target="_top" xlink:title=" ">
<polygon fill="white" stroke="#666666" points="178,-184 46,-184 46,-165 178,-165 178,-184"/>
<text text-anchor="middle" x="112" y="-172" font-family="Helvetica,sans-Serif" font-size="10.00">occ/core/point_charge.h</text>
</a>
</g>
</g>
<!-- Node1&#45;&gt;Node8 -->
<g id="edge8_Node000001_Node000008" class="edge">
<title>Node1&#45;&gt;Node8</title>
<g id="a_edge8_Node000001_Node000008"><a xlink:title=" ">
<path fill="none" stroke="#63b8ff" d="M203.68,-219.95C182.63,-209.75 157.46,-197.54 138.82,-188.5"/>
<polygon fill="#63b8ff" stroke="#63b8ff" points="140.25,-185.31 129.72,-184.09 137.19,-191.6 140.25,-185.31"/>
</a>
</g>
</g>
<!-- Node9 -->
<g id="Node000009" class="node">
<title>Node9</title>
<g id="a_Node000009"><a xlink:href="util_8h.html" target="_top" xlink:title=" ">
<polygon fill="white" stroke="#666666" points="571.5,-184 486.5,-184 486.5,-165 571.5,-165 571.5,-184"/>
<text text-anchor="middle" x="529" y="-172" font-family="Helvetica,sans-Serif" font-size="10.00">occ/core/util.h</text>
</a>
</g>
</g>
<!-- Node1&#45;&gt;Node9 -->
<g id="edge11_Node000001_Node000009" class="edge">
<title>Node1&#45;&gt;Node9</title>
<g id="a_edge11_Node000001_Node000009"><a xlink:title=" ">
<path fill="none" stroke="#63b8ff" d="M308.31,-225.06C360.78,-213.28 433.72,-196.9 481.14,-186.25"/>
<polygon fill="#63b8ff" stroke="#63b8ff" points="482.16,-189.61 491.15,-184 480.62,-182.78 482.16,-189.61"/>
</a>
</g>
</g>
<!-- Node18 -->
<g id="Node000018" class="node">
<title>Node18</title>
<g id="a_Node000018"><a xlink:title=" ">
<polygon fill="#e0e0e0" stroke="#999999" points="1010.5,-129 963.5,-129 963.5,-110 1010.5,-110 1010.5,-129"/>
<text text-anchor="middle" x="987" y="-117" font-family="Helvetica,sans-Serif" font-size="10.00">vector</text>
</a>
</g>
</g>
<!-- Node1&#45;&gt;Node18 -->
<g id="edge23_Node000001_Node000018" class="edge">
<title>Node1&#45;&gt;Node18</title>
<g id="a_edge23_Node000001_Node000018"><a xlink:title=" ">
<path fill="none" stroke="#63b8ff" d="M308.02,-231.67C431.21,-216.14 709.83,-178.76 953.17,-128.98"/>
<polygon fill="#63b8ff" stroke="#63b8ff" points="954.18,-132.35 963.27,-126.91 952.77,-125.49 954.18,-132.35"/>
</a>
</g>
</g>
<!-- Node4&#45;&gt;Node5 -->
<g id="edge4_Node000004_Node000005" class="edge">
<title>Node4&#45;&gt;Node5</title>
<g id="a_edge4_Node000004_Node000005"><a xlink:title=" ">
<path fill="none" stroke="#63b8ff" d="M135.87,-109.98C162.78,-101.13 205.12,-87.19 235.23,-77.28"/>
<polygon fill="#63b8ff" stroke="#63b8ff" points="236.53,-80.53 244.93,-74.08 234.34,-73.88 236.53,-80.53"/>
</a>
</g>
</g>
<!-- Node6 -->
<g id="Node000006" class="node">
<title>Node6</title>
<g id="a_Node000006"><a xlink:title=" ">
<polygon fill="#e0e0e0" stroke="#999999" points="256.5,-19 187.5,-19 187.5,0 256.5,0 256.5,-19"/>
<text text-anchor="middle" x="222" y="-7" font-family="Helvetica,sans-Serif" font-size="10.00">Eigen/Core</text>
</a>
</g>
</g>
<!-- Node5&#45;&gt;Node6 -->
<g id="edge5_Node000005_Node000006" class="edge">
<title>Node5&#45;&gt;Node6</title>
<g id="a_edge5_Node000005_Node000006"><a xlink:title=" ">
<path fill="none" stroke="#63b8ff" d="M262.91,-54.75C255.84,-47.11 245.41,-35.82 236.85,-26.56"/>
<polygon fill="#63b8ff" stroke="#63b8ff" points="239.3,-24.06 229.94,-19.09 234.16,-28.81 239.3,-24.06"/>
</a>
</g>
</g>
<!-- Node7 -->
<g id="Node000007" class="node">
<title>Node7</title>
<g id="a_Node000007"><a xlink:title=" ">
<polygon fill="#e0e0e0" stroke="#999999" points="367.5,-19 274.5,-19 274.5,0 367.5,0 367.5,-19"/>
<text text-anchor="middle" x="321" y="-7" font-family="Helvetica,sans-Serif" font-size="10.00">Eigen/StdVector</text>
</a>
</g>
</g>
<!-- Node5&#45;&gt;Node7 -->
<g id="edge6_Node000005_Node000007" class="edge">
<title>Node5&#45;&gt;Node7</title>
<g id="a_edge6_Node000005_Node000007"><a xlink:title=" ">
<path fill="none" stroke="#63b8ff" d="M279.26,-54.75C286.46,-47.11 297.11,-35.82 305.85,-26.56"/>
<polygon fill="#63b8ff" stroke="#63b8ff" points="308.58,-28.76 312.9,-19.09 303.49,-23.96 308.58,-28.76"/>
</a>
</g>
</g>
<!-- Node8&#45;&gt;Node2 -->
<g id="edge9_Node000008_Node000002" class="edge">
<title>Node8&#45;&gt;Node2</title>
<g id="a_edge9_Node000008_Node000002"><a xlink:title=" ">
<path fill="none" stroke="#63b8ff" d="M97.38,-164.98C83.14,-156.69 61.25,-143.94 44.55,-134.22"/>
<polygon fill="#63b8ff" stroke="#63b8ff" points="46.29,-131.18 35.89,-129.17 42.77,-137.23 46.29,-131.18"/>
</a>
</g>
</g>
<!-- Node8&#45;&gt;Node4 -->
<g id="edge10_Node000008_Node000004" class="edge">
<title>Node8&#45;&gt;Node4</title>
<g id="a_edge10_Node000008_Node000004"><a xlink:title=" ">
<path fill="none" stroke="#63b8ff" d="M111.67,-164.75C111.41,-157.8 111.03,-147.85 110.7,-139.13"/>
<polygon fill="#63b8ff" stroke="#63b8ff" points="114.2,-138.95 110.32,-129.09 107.2,-139.21 114.2,-138.95"/>
</a>
</g>
</g>
<!-- Node9&#45;&gt;Node3 -->
<g id="edge16_Node000009_Node000003" class="edge">
<title>Node9&#45;&gt;Node3</title>
<g id="a_edge16_Node000009_Node000003"><a xlink:title=" ">
<path fill="none" stroke="#63b8ff" d="M486.1,-166.66C432.48,-158.07 337.9,-142.78 257,-129 255.54,-128.75 254.06,-128.5 252.56,-128.24"/>
<polygon fill="#63b8ff" stroke="#63b8ff" points="253.01,-124.77 242.56,-126.5 251.81,-131.66 253.01,-124.77"/>
</a>
</g>
</g>
<!-- Node9&#45;&gt;Node5 -->
<g id="edge20_Node000009_Node000005" class="edge">
<title>Node9&#45;&gt;Node5</title>
<g id="a_edge20_Node000009_Node000005"><a xlink:title=" ">
<path fill="none" stroke="#63b8ff" d="M486.29,-170.81C425.53,-166.14 318.33,-154.46 290,-129 277.57,-117.83 273.13,-98.91 271.61,-84.62"/>
<polygon fill="#63b8ff" stroke="#63b8ff" points="275.09,-84.13 270.93,-74.38 268.1,-84.6 275.09,-84.13"/>
</a>
</g>
</g>
<!-- Node10 -->
<g id="Node000010" class="node">
<title>Node10</title>
<g id="a_Node000010"><a xlink:title=" ">
<polygon fill="#e0e0e0" stroke="#999999" points="727,-129 603,-129 603,-110 727,-110 727,-129"/>
<text text-anchor="middle" x="665" y="-117" font-family="Helvetica,sans-Serif" font-size="10.00">libecpint/mathutil.hpp</text>
</a>
</g>
</g>
<!-- Node9&#45;&gt;Node10 -->
<g id="edge12_Node000009_Node000010" class="edge">
<title>Node9&#45;&gt;Node10</title>
<g id="a_edge12_Node000009_Node000010"><a xlink:title=" ">
<path fill="none" stroke="#63b8ff" d="M550.85,-164.98C573.12,-156.3 607.9,-142.75 633.22,-132.88"/>
<polygon fill="#63b8ff" stroke="#63b8ff" points="634.71,-136.06 642.75,-129.17 632.16,-129.54 634.71,-136.06"/>
</a>
</g>
</g>
<!-- Node11 -->
<g id="Node000011" class="node">
<title>Node11</title>
<g id="a_Node000011"><a xlink:title=" ">
<polygon fill="#e0e0e0" stroke="#999999" points="809,-129 745,-129 745,-110 809,-110 809,-129"/>
<text text-anchor="middle" x="777" y="-117" font-family="Helvetica,sans-Serif" font-size="10.00">algorithm</text>
</a>
</g>
</g>
<!-- Node9&#45;&gt;Node11 -->
<g id="edge13_Node000009_Node000011" class="edge">
<title>Node9&#45;&gt;Node11</title>
<g id="a_edge13_Node000009_Node000011"><a xlink:title=" ">
<path fill="none" stroke="#63b8ff" d="M568.85,-164.98C614.29,-155.27 688.29,-139.46 734.72,-129.54"/>
<polygon fill="#63b8ff" stroke="#63b8ff" points="735.71,-132.9 744.76,-127.39 734.25,-126.06 735.71,-132.9"/>
</a>
</g>
</g>
<!-- Node12 -->
<g id="Node000012" class="node">
<title>Node12</title>
<g id="a_Node000012"><a xlink:title=" ">
<polygon fill="#e0e0e0" stroke="#999999" points="876.5,-129 827.5,-129 827.5,-110 876.5,-110 876.5,-129"/>
<text text-anchor="middle" x="852" y="-117" font-family="Helvetica,sans-Serif" font-size="10.00">cctype</text>
</a>
</g>
</g>
<!-- Node9&#45;&gt;Node12 -->
<g id="edge14_Node000009_Node000012" class="edge">
<title>Node9&#45;&gt;Node12</title>
<g id="a_edge14_Node000009_Node000012"><a xlink:title=" ">
<path fill="none" stroke="#63b8ff" d="M571.82,-168.16C626.49,-161.07 724.19,-147.47 817.31,-128.97"/>
<polygon fill="#63b8ff" stroke="#63b8ff" points="818.06,-132.39 827.18,-126.99 816.68,-125.53 818.06,-132.39"/>
</a>
</g>
</g>
<!-- Node13 -->
<g id="Node000013" class="node">
<title>Node13</title>
<g id="a_Node000013"><a xlink:title=" ">
<polygon fill="#e0e0e0" stroke="#999999" points="945,-129 895,-129 895,-110 945,-110 945,-129"/>
<text text-anchor="middle" x="920" y="-117" font-family="Helvetica,sans-Serif" font-size="10.00">chrono</text>
</a>
</g>
</g>
<!-- Node9&#45;&gt;Node13 -->
<g id="edge15_Node000009_Node000013" class="edge">
<title>Node9&#45;&gt;Node13</title>
<g id="a_edge15_Node000009_Node000013"><a xlink:title=" ">
<path fill="none" stroke="#63b8ff" d="M571.57,-169.87C636.92,-163.94 766.02,-150.77 884.83,-129.01"/>
<polygon fill="#63b8ff" stroke="#63b8ff" points="885.63,-132.42 894.82,-127.15 884.35,-125.54 885.63,-132.42"/>
</a>
</g>
</g>
<!-- Node14 -->
<g id="Node000014" class="node">
<title>Node14</title>
<g id="a_Node000014"><a xlink:title=" ">
<polygon fill="#e0e0e0" stroke="#999999" points="385,-129 299,-129 299,-110 385,-110 385,-129"/>
<text text-anchor="middle" x="342" y="-117" font-family="Helvetica,sans-Serif" font-size="10.00">fmt/ostream.h</text>
</a>
</g>
</g>
<!-- Node9&#45;&gt;Node14 -->
<g id="edge17_Node000009_Node000014" class="edge">
<title>Node9&#45;&gt;Node14</title>
<g id="a_edge17_Node000009_Node000014"><a xlink:title=" ">
<path fill="none" stroke="#63b8ff" d="M498.96,-164.98C467.29,-156.01 417.23,-141.82 382.19,-131.89"/>
<polygon fill="#63b8ff" stroke="#63b8ff" points="382.86,-128.44 372.28,-129.08 380.95,-135.18 382.86,-128.44"/>
</a>
</g>
</g>
<!-- Node15 -->
<g id="Node000015" class="node">
<title>Node15</title>
<g id="a_Node000015"><a xlink:title=" ">
<polygon fill="#e0e0e0" stroke="#999999" points="449,-129 403,-129 403,-110 449,-110 449,-129"/>
<text text-anchor="middle" x="426" y="-117" font-family="Helvetica,sans-Serif" font-size="10.00">locale</text>
</a>
</g>
</g>
<!-- Node9&#45;&gt;Node15 -->
<g id="edge18_Node000009_Node000015" class="edge">
<title>Node9&#45;&gt;Node15</title>
<g id="a_edge18_Node000009_Node000015"><a xlink:title=" ">
<path fill="none" stroke="#63b8ff" d="M512.45,-164.98C496.11,-156.57 470.87,-143.59 451.87,-133.81"/>
<polygon fill="#63b8ff" stroke="#63b8ff" points="453.34,-130.63 442.85,-129.17 450.14,-136.86 453.34,-130.63"/>
</a>
</g>
</g>
<!-- Node16 -->
<g id="Node000016" class="node">
<title>Node16</title>
<g id="a_Node000016"><a xlink:title=" ">
<polygon fill="#e0e0e0" stroke="#999999" points="523,-129 467,-129 467,-110 523,-110 523,-129"/>
<text text-anchor="middle" x="495" y="-117" font-family="Helvetica,sans-Serif" font-size="10.00">numeric</text>
</a>
</g>
</g>
<!-- Node9&#45;&gt;Node16 -->
<g id="edge19_Node000009_Node000016" class="edge">
<title>Node9&#45;&gt;Node16</title>
<g id="a_edge19_Node000009_Node000016"><a xlink:title=" ">
<path fill="none" stroke="#63b8ff" d="M523.39,-164.75C518.68,-157.42 511.83,-146.73 506.03,-137.7"/>
<polygon fill="#63b8ff" stroke="#63b8ff" points="508.86,-135.62 500.51,-129.09 502.96,-139.4 508.86,-135.62"/>
</a>
</g>
</g>
<!-- Node17 -->
<g id="Node000017" class="node">
<title>Node17</title>
<g id="a_Node000017"><a xlink:title=" ">
<polygon fill="#e0e0e0" stroke="#999999" points="585,-129 541,-129 541,-110 585,-110 585,-129"/>
<text text-anchor="middle" x="563" y="-117" font-family="Helvetica,sans-Serif" font-size="10.00">string</text>
</a>
</g>
</g>
<!-- Node9&#45;&gt;Node17 -->
<g id="edge21_Node000009_Node000017" class="edge">
<title>Node9&#45;&gt;Node17</title>
<g id="a_edge21_Node000009_Node000017"><a xlink:title=" ">
<path fill="none" stroke="#63b8ff" d="M534.61,-164.75C539.32,-157.42 546.17,-146.73 551.97,-137.7"/>
<polygon fill="#63b8ff" stroke="#63b8ff" points="555.04,-139.4 557.49,-129.09 549.14,-135.62 555.04,-139.4"/>
</a>
</g>
</g>
<!-- Node9&#45;&gt;Node18 -->
<g id="edge22_Node000009_Node000018" class="edge">
<title>Node9&#45;&gt;Node18</title>
<g id="a_edge22_Node000009_Node000018"><a xlink:title=" ">
<path fill="none" stroke="#63b8ff" d="M571.52,-171.13C646.64,-166.5 807.82,-154.54 953.3,-128.84"/>
<polygon fill="#63b8ff" stroke="#63b8ff" points="954.07,-132.26 963.3,-127.05 952.84,-125.37 954.07,-132.26"/>
</a>
</g>
</g>
</g>
</svg>
