<?xml version="1.0" encoding="UTF-8" standalone="no"?>
<!DOCTYPE svg PUBLIC "-//W3C//DTD SVG 1.1//EN"
 "http://www.w3.org/Graphics/SVG/1.1/DTD/svg11.dtd">
<!-- Generated by graphviz version 2.43.0 (0)
 -->
<!-- Title: /home/runner/work/occ/occ/include/occ/qm/shell.h Pages: 1 -->
<svg width="2469pt" height="418pt"
 viewBox="0.00 0.00 2468.50 418.00" xmlns="http://www.w3.org/2000/svg" xmlns:xlink="http://www.w3.org/1999/xlink">
<g id="graph0" class="graph" transform="scale(1 1) rotate(0) translate(4 414)">
<title>/home/runner/work/occ/occ/include/occ/qm/shell.h</title>
<!-- Node1 -->
<g id="node1" class="node">
<title>Node1</title>
<g id="a_node1"><a xlink:title=" ">
<polygon fill="#bfbfbf" stroke="black" points="1060,-379.5 1060,-409.5 1208,-409.5 1208,-379.5 1060,-379.5"/>
<text text-anchor="start" x="1068" y="-397.5" font-family="Helvetica,sans-Serif" font-size="10.00">/home/runner/work/occ</text>
<text text-anchor="middle" x="1134" y="-386.5" font-family="Helvetica,sans-Serif" font-size="10.00">/occ/include/occ/qm/shell.h</text>
</a>
</g>
</g>
<!-- Node2 -->
<g id="node2" class="node">
<title>Node2</title>
<g id="a_node2"><a xlink:href="grid_8h.html" target="_top" xlink:title=" ">
<polygon fill="none" stroke="black" points="558,-301.5 558,-342.5 686,-342.5 686,-301.5 558,-301.5"/>
<text text-anchor="start" x="566" y="-330.5" font-family="Helvetica,sans-Serif" font-size="10.00">/home/runner/work/occ</text>
<text text-anchor="start" x="566" y="-319.5" font-family="Helvetica,sans-Serif" font-size="10.00">/occ/include/occ/dft</text>
<text text-anchor="middle" x="622" y="-308.5" font-family="Helvetica,sans-Serif" font-size="10.00">/grid.h</text>
</a>
</g>
</g>
<!-- Node1&#45;&gt;Node2 -->
<g id="edge1" class="edge">
<title>Node1&#45;&gt;Node2</title>
<path fill="none" stroke="midnightblue" d="M1049.65,-387.08C961.83,-379.61 820.53,-365.36 700,-343 695.46,-342.16 690.8,-341.2 686.12,-340.17"/>
<polygon fill="midnightblue" stroke="midnightblue" points="1049.57,-390.59 1059.83,-387.94 1050.15,-383.61 1049.57,-390.59"/>
</g>
<!-- Node4 -->
<g id="node4" class="node">
<title>Node4</title>
<g id="a_node4"><a xlink:href="nonlocal__correlation_8h.html" target="_top" xlink:title=" ">
<polygon fill="none" stroke="black" points="805,-223.5 805,-264.5 933,-264.5 933,-223.5 805,-223.5"/>
<text text-anchor="start" x="813" y="-252.5" font-family="Helvetica,sans-Serif" font-size="10.00">/home/runner/work/occ</text>
<text text-anchor="start" x="813" y="-241.5" font-family="Helvetica,sans-Serif" font-size="10.00">/occ/include/occ/dft</text>
<text text-anchor="middle" x="869" y="-230.5" font-family="Helvetica,sans-Serif" font-size="10.00">/nonlocal_correlation.h</text>
</a>
</g>
</g>
<!-- Node1&#45;&gt;Node4 -->
<g id="edge7" class="edge">
<title>Node1&#45;&gt;Node4</title>
<path fill="none" stroke="midnightblue" d="M1049.69,-394.07C953.69,-392.7 805.52,-383.79 770,-343 757.74,-328.92 760.6,-317.12 770,-301 779.35,-284.97 795.18,-273.16 811.48,-264.63"/>
<polygon fill="midnightblue" stroke="midnightblue" points="1049.93,-397.57 1059.97,-394.19 1050.01,-390.57 1049.93,-397.57"/>
</g>
<!-- Node6 -->
<g id="node6" class="node">
<title>Node6</title>
<g id="a_node6"><a xlink:href="xdm_8h.html" target="_top" xlink:title=" ">
<polygon fill="none" stroke="black" points="635,-229 635,-259 787,-259 787,-229 635,-229"/>
<text text-anchor="start" x="643" y="-247" font-family="Helvetica,sans-Serif" font-size="10.00">/home/runner/work/occ</text>
<text text-anchor="middle" x="711" y="-236" font-family="Helvetica,sans-Serif" font-size="10.00">/occ/include/occ/xdm/xdm.h</text>
</a>
</g>
</g>
<!-- Node1&#45;&gt;Node6 -->
<g id="edge48" class="edge">
<title>Node1&#45;&gt;Node6</title>
<path fill="none" stroke="midnightblue" d="M1049.69,-391.34C953.35,-387.32 803.15,-375.82 758,-343 729.92,-322.59 717.92,-280.89 713.4,-259.05"/>
<polygon fill="midnightblue" stroke="midnightblue" points="1049.58,-394.84 1059.71,-391.74 1049.86,-387.84 1049.58,-394.84"/>
</g>
<!-- Node7 -->
<g id="node7" class="node">
<title>Node7</title>
<g id="a_node7"><a xlink:href="gto_8h.html" target="_top" xlink:title=" ">
<polygon fill="none" stroke="black" points="57,-151 57,-181 197,-181 197,-151 57,-151"/>
<text text-anchor="start" x="65" y="-169" font-family="Helvetica,sans-Serif" font-size="10.00">/home/runner/work/occ</text>
<text text-anchor="middle" x="127" y="-158" font-family="Helvetica,sans-Serif" font-size="10.00">/occ/include/occ/gto/gto.h</text>
</a>
</g>
</g>
<!-- Node1&#45;&gt;Node7 -->
<g id="edge8" class="edge">
<title>Node1&#45;&gt;Node7</title>
<path fill="none" stroke="midnightblue" d="M1049.66,-393.98C833.06,-394.49 269.39,-391.15 201,-343 145.71,-304.07 131.55,-215.42 128.08,-181.02"/>
<polygon fill="midnightblue" stroke="midnightblue" points="1049.72,-397.48 1059.71,-393.95 1049.7,-390.48 1049.72,-397.48"/>
</g>
<!-- Node10 -->
<g id="node10" class="node">
<title>Node10</title>
<g id="a_node10"><a xlink:href="basis__g94_8h.html" target="_top" xlink:title=" ">
<polygon fill="none" stroke="black" points="779.5,-307 779.5,-337 946.5,-337 946.5,-307 779.5,-307"/>
<text text-anchor="start" x="787.5" y="-325" font-family="Helvetica,sans-Serif" font-size="10.00">/home/runner/work/occ</text>
<text text-anchor="middle" x="863" y="-314" font-family="Helvetica,sans-Serif" font-size="10.00">/occ/include/occ/io/basis_g94.h</text>
</a>
</g>
</g>
<!-- Node1&#45;&gt;Node10 -->
<g id="edge14" class="edge">
<title>Node1&#45;&gt;Node10</title>
<path fill="none" stroke="midnightblue" d="M1070.17,-376.89C1023.66,-364.79 961.33,-348.58 917.23,-337.11"/>
<polygon fill="midnightblue" stroke="midnightblue" points="1069.58,-380.36 1080.14,-379.49 1071.34,-373.58 1069.58,-380.36"/>
</g>
<!-- Node11 -->
<g id="node11" class="node">
<title>Node11</title>
<g id="a_node11"><a xlink:href="conversion_8h.html" target="_top" xlink:title=" ">
<polygon fill="none" stroke="black" points="964.5,-307 964.5,-337 1135.5,-337 1135.5,-307 964.5,-307"/>
<text text-anchor="start" x="972.5" y="-325" font-family="Helvetica,sans-Serif" font-size="10.00">/home/runner/work/occ</text>
<text text-anchor="middle" x="1050" y="-314" font-family="Helvetica,sans-Serif" font-size="10.00">/occ/include/occ/io/conversion.h</text>
</a>
</g>
</g>
<!-- Node1&#45;&gt;Node11 -->
<g id="edge15" class="edge">
<title>Node1&#45;&gt;Node11</title>
<path fill="none" stroke="midnightblue" d="M1109.32,-372.79C1095.59,-361.27 1078.87,-347.23 1066.69,-337"/>
<polygon fill="midnightblue" stroke="midnightblue" points="1107.09,-375.49 1117,-379.23 1111.59,-370.12 1107.09,-375.49"/>
</g>
<!-- Node12 -->
<g id="node12" class="node">
<title>Node12</title>
<g id="a_node12"><a xlink:href="fchkreader_8h.html" target="_top" xlink:title=" ">
<polygon fill="none" stroke="black" points="1340,-307 1340,-337 1510,-337 1510,-307 1340,-307"/>
<text text-anchor="start" x="1348" y="-325" font-family="Helvetica,sans-Serif" font-size="10.00">/home/runner/work/occ</text>
<text text-anchor="middle" x="1425" y="-314" font-family="Helvetica,sans-Serif" font-size="10.00">/occ/include/occ/io/fchkreader.h</text>
</a>
</g>
</g>
<!-- Node1&#45;&gt;Node12 -->
<g id="edge16" class="edge">
<title>Node1&#45;&gt;Node12</title>
<path fill="none" stroke="midnightblue" d="M1201.6,-377.12C1251.64,-365 1319.11,-348.65 1366.77,-337.11"/>
<polygon fill="midnightblue" stroke="midnightblue" points="1200.73,-373.73 1191.84,-379.49 1202.38,-380.53 1200.73,-373.73"/>
</g>
<!-- Node13 -->
<g id="node13" class="node">
<title>Node13</title>
<g id="a_node13"><a xlink:href="wavefunction_8h.html" target="_top" xlink:title=" ">
<polygon fill="none" stroke="black" points="1383.5,-229 1383.5,-259 1574.5,-259 1574.5,-229 1383.5,-229"/>
<text text-anchor="start" x="1391.5" y="-247" font-family="Helvetica,sans-Serif" font-size="10.00">/home/runner/work/occ</text>
<text text-anchor="middle" x="1479" y="-236" font-family="Helvetica,sans-Serif" font-size="10.00">/occ/include/occ/qm/wavefunction.h</text>
</a>
</g>
</g>
<!-- Node1&#45;&gt;Node13 -->
<g id="edge46" class="edge">
<title>Node1&#45;&gt;Node13</title>
<path fill="none" stroke="midnightblue" d="M1215.11,-376.65C1241.28,-368.95 1269.56,-358.07 1293,-343 1314.17,-329.39 1310.2,-315.18 1331,-301 1359.14,-281.81 1394.75,-268.07 1423.98,-259"/>
<polygon fill="midnightblue" stroke="midnightblue" points="1213.87,-373.36 1205.2,-379.45 1215.78,-380.1 1213.87,-373.36"/>
</g>
<!-- Node20 -->
<g id="node20" class="node">
<title>Node20</title>
<g id="a_node20"><a xlink:href="scf_8h.html" target="_top" xlink:title=" ">
<polygon fill="none" stroke="black" points="1844,-151 1844,-181 1982,-181 1982,-151 1844,-151"/>
<text text-anchor="start" x="1852" y="-169" font-family="Helvetica,sans-Serif" font-size="10.00">/home/runner/work/occ</text>
<text text-anchor="middle" x="1913" y="-158" font-family="Helvetica,sans-Serif" font-size="10.00">/occ/include/occ/qm/scf.h</text>
</a>
</g>
</g>
<!-- Node1&#45;&gt;Node20 -->
<g id="edge43" class="edge">
<title>Node1&#45;&gt;Node20</title>
<path fill="none" stroke="midnightblue" d="M1218.48,-394.25C1409.34,-395.08 1860.97,-391.79 1908,-343 1950.85,-298.54 1929.19,-214.66 1918.15,-181.26"/>
<polygon fill="midnightblue" stroke="midnightblue" points="1218.23,-390.75 1208.21,-394.2 1218.2,-397.75 1218.23,-390.75"/>
</g>
<!-- Node21 -->
<g id="node21" class="node">
<title>Node21</title>
<g id="a_node21"><a xlink:href="fchkwriter_8h.html" target="_top" xlink:title=" ">
<polygon fill="none" stroke="black" points="1528.5,-307 1528.5,-337 1695.5,-337 1695.5,-307 1528.5,-307"/>
<text text-anchor="start" x="1536.5" y="-325" font-family="Helvetica,sans-Serif" font-size="10.00">/home/runner/work/occ</text>
<text text-anchor="middle" x="1612" y="-314" font-family="Helvetica,sans-Serif" font-size="10.00">/occ/include/occ/io/fchkwriter.h</text>
</a>
</g>
</g>
<!-- Node1&#45;&gt;Node21 -->
<g id="edge27" class="edge">
<title>Node1&#45;&gt;Node21</title>
<path fill="none" stroke="midnightblue" d="M1218.36,-384.44C1296.56,-375.56 1416.01,-360.8 1519,-343 1529.09,-341.26 1539.75,-339.18 1550.11,-337.04"/>
<polygon fill="midnightblue" stroke="midnightblue" points="1217.62,-381 1208.08,-385.6 1218.41,-387.95 1217.62,-381"/>
</g>
<!-- Node22 -->
<g id="node22" class="node">
<title>Node22</title>
<g id="a_node22"><a xlink:href="moldenreader_8h.html" target="_top" xlink:title=" ">
<polygon fill="none" stroke="black" points="1713.5,-307 1713.5,-337 1898.5,-337 1898.5,-307 1713.5,-307"/>
<text text-anchor="start" x="1721.5" y="-325" font-family="Helvetica,sans-Serif" font-size="10.00">/home/runner/work/occ</text>
<text text-anchor="middle" x="1806" y="-314" font-family="Helvetica,sans-Serif" font-size="10.00">/occ/include/occ/io/moldenreader.h</text>
</a>
</g>
</g>
<!-- Node1&#45;&gt;Node22 -->
<g id="edge29" class="edge">
<title>Node1&#45;&gt;Node22</title>
<path fill="none" stroke="midnightblue" d="M1218.4,-388.87C1330.11,-382.1 1533.03,-367.56 1705,-343 1716.5,-341.36 1728.67,-339.26 1740.44,-337.04"/>
<polygon fill="midnightblue" stroke="midnightblue" points="1217.98,-385.39 1208.21,-389.49 1218.4,-392.38 1217.98,-385.39"/>
</g>
<!-- Node23 -->
<g id="node23" class="node">
<title>Node23</title>
<g id="a_node23"><a xlink:href="orca__json_8h.html" target="_top" xlink:title=" ">
<polygon fill="none" stroke="black" points="1154,-301.5 1154,-342.5 1284,-342.5 1284,-301.5 1154,-301.5"/>
<text text-anchor="start" x="1162" y="-330.5" font-family="Helvetica,sans-Serif" font-size="10.00">/home/runner/work/occ</text>
<text text-anchor="start" x="1162" y="-319.5" font-family="Helvetica,sans-Serif" font-size="10.00">/occ/include/occ/io/orca</text>
<text text-anchor="middle" x="1219" y="-308.5" font-family="Helvetica,sans-Serif" font-size="10.00">_json.h</text>
</a>
</g>
</g>
<!-- Node1&#45;&gt;Node23 -->
<g id="edge31" class="edge">
<title>Node1&#45;&gt;Node23</title>
<path fill="none" stroke="midnightblue" d="M1159.13,-372.66C1170.6,-363.15 1184.1,-351.94 1195.38,-342.59"/>
<polygon fill="midnightblue" stroke="midnightblue" points="1156.66,-370.16 1151.2,-379.23 1161.13,-375.54 1156.66,-370.16"/>
</g>
<!-- Node24 -->
<g id="node24" class="node">
<title>Node24</title>
<g id="a_node24"><a xlink:href="cint__interface_8h.html" target="_top" xlink:title=" ">
<polygon fill="none" stroke="black" points="222,-301.5 222,-342.5 356,-342.5 356,-301.5 222,-301.5"/>
<text text-anchor="start" x="230" y="-330.5" font-family="Helvetica,sans-Serif" font-size="10.00">/home/runner/work/occ</text>
<text text-anchor="start" x="230" y="-319.5" font-family="Helvetica,sans-Serif" font-size="10.00">/occ/include/occ/qm/cint</text>
<text text-anchor="middle" x="289" y="-308.5" font-family="Helvetica,sans-Serif" font-size="10.00">_interface.h</text>
</a>
</g>
</g>
<!-- Node1&#45;&gt;Node24 -->
<g id="edge33" class="edge">
<title>Node1&#45;&gt;Node24</title>
<path fill="none" stroke="midnightblue" d="M1049.38,-393.23C907.11,-391.59 611.39,-383.13 365,-343 362.17,-342.54 359.3,-342.02 356.4,-341.45"/>
<polygon fill="midnightblue" stroke="midnightblue" points="1049.73,-396.73 1059.77,-393.34 1049.81,-389.73 1049.73,-396.73"/>
</g>
<!-- Node25 -->
<g id="node25" class="node">
<title>Node25</title>
<g id="a_node25"><a xlink:href="integral__engine_8h.html" target="_top" xlink:title=" ">
<polygon fill="none" stroke="black" points="267.5,-223.5 267.5,-264.5 420.5,-264.5 420.5,-223.5 267.5,-223.5"/>
<text text-anchor="start" x="275.5" y="-252.5" font-family="Helvetica,sans-Serif" font-size="10.00">/home/runner/work/occ</text>
<text text-anchor="start" x="275.5" y="-241.5" font-family="Helvetica,sans-Serif" font-size="10.00">/occ/include/occ/qm/integral</text>
<text text-anchor="middle" x="344" y="-230.5" font-family="Helvetica,sans-Serif" font-size="10.00">_engine.h</text>
</a>
</g>
</g>
<!-- Node1&#45;&gt;Node25 -->
<g id="edge40" class="edge">
<title>Node1&#45;&gt;Node25</title>
<path fill="none" stroke="midnightblue" d="M1049.5,-391.98C827.27,-387.57 241.51,-373.12 213,-343 200.17,-329.44 202.72,-316.58 213,-301 225.6,-281.91 246.2,-269.3 267.37,-260.98"/>
<polygon fill="midnightblue" stroke="midnightblue" points="1049.74,-395.48 1059.81,-392.18 1049.88,-388.49 1049.74,-395.48"/>
</g>
<!-- Node28 -->
<g id="node28" class="node">
<title>Node28</title>
<g id="a_node28"><a xlink:href="merge_8h.html" target="_top" xlink:title=" ">
<polygon fill="none" stroke="black" points="1954,-307 1954,-337 2110,-337 2110,-307 1954,-307"/>
<text text-anchor="start" x="1962" y="-325" font-family="Helvetica,sans-Serif" font-size="10.00">/home/runner/work/occ</text>
<text text-anchor="middle" x="2032" y="-314" font-family="Helvetica,sans-Serif" font-size="10.00">/occ/include/occ/qm/merge.h</text>
</a>
</g>
</g>
<!-- Node1&#45;&gt;Node28 -->
<g id="edge41" class="edge">
<title>Node1&#45;&gt;Node28</title>
<path fill="none" stroke="midnightblue" d="M1218.59,-392.41C1365.85,-389.57 1678.61,-379.39 1940,-343 1951.01,-341.47 1962.66,-339.34 1973.84,-337.04"/>
<polygon fill="midnightblue" stroke="midnightblue" points="1218.21,-388.91 1208.27,-392.6 1218.34,-395.91 1218.21,-388.91"/>
</g>
<!-- Node29 -->
<g id="node29" class="node">
<title>Node29</title>
<g id="a_node29"><a xlink:href="partitioning_8h.html" target="_top" xlink:title=" ">
<polygon fill="none" stroke="black" points="2128.5,-307 2128.5,-337 2309.5,-337 2309.5,-307 2128.5,-307"/>
<text text-anchor="start" x="2136.5" y="-325" font-family="Helvetica,sans-Serif" font-size="10.00">/home/runner/work/occ</text>
<text text-anchor="middle" x="2219" y="-314" font-family="Helvetica,sans-Serif" font-size="10.00">/occ/include/occ/qm/partitioning.h</text>
</a>
</g>
</g>
<!-- Node1&#45;&gt;Node29 -->
<g id="edge42" class="edge">
<title>Node1&#45;&gt;Node29</title>
<path fill="none" stroke="midnightblue" d="M1218.33,-393.32C1389.02,-392.04 1787.44,-384.43 2119,-343 2131.03,-341.5 2143.79,-339.37 2156.01,-337.05"/>
<polygon fill="midnightblue" stroke="midnightblue" points="1218.13,-389.82 1208.15,-393.39 1218.18,-396.82 1218.13,-389.82"/>
</g>
<!-- Node30 -->
<g id="node30" class="node">
<title>Node30</title>
<g id="a_node30"><a xlink:href="shellblock__norm_8h.html" target="_top" xlink:title=" ">
<polygon fill="none" stroke="black" points="374.5,-301.5 374.5,-342.5 539.5,-342.5 539.5,-301.5 374.5,-301.5"/>
<text text-anchor="start" x="382.5" y="-330.5" font-family="Helvetica,sans-Serif" font-size="10.00">/home/runner/work/occ</text>
<text text-anchor="start" x="382.5" y="-319.5" font-family="Helvetica,sans-Serif" font-size="10.00">/occ/include/occ/qm/shellblock</text>
<text text-anchor="middle" x="457" y="-308.5" font-family="Helvetica,sans-Serif" font-size="10.00">_norm.h</text>
</a>
</g>
</g>
<!-- Node1&#45;&gt;Node30 -->
<g id="edge44" class="edge">
<title>Node1&#45;&gt;Node30</title>
<path fill="none" stroke="midnightblue" d="M1049.7,-389.62C935.66,-383.59 726.09,-369.78 549,-343 545.93,-342.54 542.81,-342.03 539.66,-341.49"/>
<polygon fill="midnightblue" stroke="midnightblue" points="1049.6,-393.11 1059.76,-390.14 1049.96,-386.12 1049.6,-393.11"/>
</g>
<!-- Node31 -->
<g id="node31" class="node">
<title>Node31</title>
<g id="a_node31"><a xlink:href="solvation__correction_8h.html" target="_top" xlink:title=" ">
<polygon fill="none" stroke="black" points="2327.5,-301.5 2327.5,-342.5 2460.5,-342.5 2460.5,-301.5 2327.5,-301.5"/>
<text text-anchor="start" x="2335.5" y="-330.5" font-family="Helvetica,sans-Serif" font-size="10.00">/home/runner/work/occ</text>
<text text-anchor="start" x="2335.5" y="-319.5" font-family="Helvetica,sans-Serif" font-size="10.00">/occ/include/occ/solvent</text>
<text text-anchor="middle" x="2394" y="-308.5" font-family="Helvetica,sans-Serif" font-size="10.00">/solvation_correction.h</text>
</a>
</g>
</g>
<!-- Node1&#45;&gt;Node31 -->
<g id="edge47" class="edge">
<title>Node1&#45;&gt;Node31</title>
<path fill="none" stroke="midnightblue" d="M1218.42,-392.29C1452.5,-388.56 2106.52,-375.46 2319,-343 2321.66,-342.59 2324.37,-342.13 2327.09,-341.62"/>
<polygon fill="midnightblue" stroke="midnightblue" points="1218.2,-388.8 1208.26,-392.45 1218.31,-395.79 1218.2,-388.8"/>
</g>
<!-- Node3 -->
<g id="node3" class="node">
<title>Node3</title>
<g id="a_node3"><a xlink:href="dft_8h.html" target="_top" xlink:title=" ">
<polygon fill="none" stroke="black" points="255,-0.5 255,-30.5 389,-30.5 389,-0.5 255,-0.5"/>
<text text-anchor="start" x="263" y="-18.5" font-family="Helvetica,sans-Serif" font-size="10.00">/home/runner/work/occ</text>
<text text-anchor="middle" x="322" y="-7.5" font-family="Helvetica,sans-Serif" font-size="10.00">/occ/include/occ/dft/dft.h</text>
</a>
</g>
</g>
<!-- Node2&#45;&gt;Node3 -->
<g id="edge2" class="edge">
<title>Node2&#45;&gt;Node3</title>
<path fill="none" stroke="midnightblue" d="M622.94,-291.04C622.68,-253.79 617.46,-189.7 588,-145 543.33,-77.24 452.24,-44.15 389.19,-28.76"/>
<polygon fill="midnightblue" stroke="midnightblue" points="619.44,-291.22 622.88,-301.24 626.44,-291.25 619.44,-291.22"/>
</g>
<!-- Node2&#45;&gt;Node4 -->
<g id="edge3" class="edge">
<title>Node2&#45;&gt;Node4</title>
<path fill="none" stroke="midnightblue" d="M695.31,-298.44C730.37,-287.66 771.93,-274.87 805.61,-264.51"/>
<polygon fill="midnightblue" stroke="midnightblue" points="694.14,-295.14 685.61,-301.43 696.2,-301.83 694.14,-295.14"/>
</g>
<!-- Node5 -->
<g id="node5" class="node">
<title>Node5</title>
<g id="a_node5"><a xlink:href="seminumerical__exchange_8h.html" target="_top" xlink:title=" ">
<polygon fill="none" stroke="black" points="425,-145.5 425,-186.5 579,-186.5 579,-145.5 425,-145.5"/>
<text text-anchor="start" x="433" y="-174.5" font-family="Helvetica,sans-Serif" font-size="10.00">/home/runner/work/occ</text>
<text text-anchor="start" x="433" y="-163.5" font-family="Helvetica,sans-Serif" font-size="10.00">/occ/include/occ/dft</text>
<text text-anchor="middle" x="502" y="-152.5" font-family="Helvetica,sans-Serif" font-size="10.00">/seminumerical_exchange.h</text>
</a>
</g>
</g>
<!-- Node2&#45;&gt;Node5 -->
<g id="edge5" class="edge">
<title>Node2&#45;&gt;Node5</title>
<path fill="none" stroke="midnightblue" d="M600.46,-293.36C576.55,-262.68 538.57,-213.94 517.45,-186.83"/>
<polygon fill="midnightblue" stroke="midnightblue" points="597.89,-295.76 606.8,-301.5 603.42,-291.46 597.89,-295.76"/>
</g>
<!-- Node2&#45;&gt;Node6 -->
<g id="edge6" class="edge">
<title>Node2&#45;&gt;Node6</title>
<path fill="none" stroke="midnightblue" d="M652.85,-294.66C666.78,-282.76 682.69,-269.18 694.34,-259.23"/>
<polygon fill="midnightblue" stroke="midnightblue" points="650.25,-292.27 644.92,-301.43 654.8,-297.6 650.25,-292.27"/>
</g>
<!-- Node4&#45;&gt;Node3 -->
<g id="edge4" class="edge">
<title>Node4&#45;&gt;Node3</title>
<path fill="none" stroke="midnightblue" d="M840.85,-216.39C797.38,-176.94 709.64,-103.67 621,-67 545.35,-35.71 451.29,-23.8 389.09,-19.27"/>
<polygon fill="midnightblue" stroke="midnightblue" points="838.7,-219.17 848.44,-223.35 843.43,-214.01 838.7,-219.17"/>
</g>
<!-- Node7&#45;&gt;Node3 -->
<g id="edge9" class="edge">
<title>Node7&#45;&gt;Node3</title>
<path fill="none" stroke="midnightblue" d="M132.96,-141.25C139.68,-119.13 152.68,-86.7 175,-67 197.25,-47.36 227.53,-35.27 254.81,-27.87"/>
<polygon fill="midnightblue" stroke="midnightblue" points="129.59,-140.31 130.23,-150.89 136.33,-142.22 129.59,-140.31"/>
</g>
<!-- Node8 -->
<g id="node8" class="node">
<title>Node8</title>
<g id="a_node8"><a xlink:href="xc__potential__matrix_8h.html" target="_top" xlink:title=" ">
<polygon fill="none" stroke="black" points="184,-67.5 184,-108.5 312,-108.5 312,-67.5 184,-67.5"/>
<text text-anchor="start" x="192" y="-96.5" font-family="Helvetica,sans-Serif" font-size="10.00">/home/runner/work/occ</text>
<text text-anchor="start" x="192" y="-85.5" font-family="Helvetica,sans-Serif" font-size="10.00">/occ/include/occ/dft</text>
<text text-anchor="middle" x="248" y="-74.5" font-family="Helvetica,sans-Serif" font-size="10.00">/xc_potential_matrix.h</text>
</a>
</g>
</g>
<!-- Node7&#45;&gt;Node8 -->
<g id="edge10" class="edge">
<title>Node7&#45;&gt;Node8</title>
<path fill="none" stroke="midnightblue" d="M158.38,-145.29C176.27,-134.06 198.62,-120.02 216.52,-108.77"/>
<polygon fill="midnightblue" stroke="midnightblue" points="156.08,-142.6 149.48,-150.88 159.81,-148.53 156.08,-142.6"/>
</g>
<!-- Node9 -->
<g id="node9" class="node">
<title>Node9</title>
<g id="a_node9"><a xlink:href="density_8h.html" target="_top" xlink:title=" ">
<polygon fill="none" stroke="black" points="0,-67.5 0,-108.5 128,-108.5 128,-67.5 0,-67.5"/>
<text text-anchor="start" x="8" y="-96.5" font-family="Helvetica,sans-Serif" font-size="10.00">/home/runner/work/occ</text>
<text text-anchor="start" x="8" y="-85.5" font-family="Helvetica,sans-Serif" font-size="10.00">/occ/include/occ/gto</text>
<text text-anchor="middle" x="64" y="-74.5" font-family="Helvetica,sans-Serif" font-size="10.00">/density.h</text>
</a>
</g>
</g>
<!-- Node7&#45;&gt;Node9 -->
<g id="edge12" class="edge">
<title>Node7&#45;&gt;Node9</title>
<path fill="none" stroke="midnightblue" d="M108.69,-142.91C99.72,-132.09 89,-119.16 80.31,-108.68"/>
<polygon fill="midnightblue" stroke="midnightblue" points="106.07,-145.24 115.15,-150.7 111.46,-140.77 106.07,-145.24"/>
</g>
<!-- Node8&#45;&gt;Node3 -->
<g id="edge11" class="edge">
<title>Node8&#45;&gt;Node3</title>
<path fill="none" stroke="midnightblue" d="M276.02,-60.31C286.5,-50.32 298.01,-39.35 306.89,-30.89"/>
<polygon fill="midnightblue" stroke="midnightblue" points="273.44,-57.93 268.61,-67.36 278.27,-63 273.44,-57.93"/>
</g>
<!-- Node9&#45;&gt;Node3 -->
<g id="edge13" class="edge">
<title>Node9&#45;&gt;Node3</title>
<path fill="none" stroke="midnightblue" d="M137.85,-66.82C180.38,-55.2 232.75,-40.89 270.76,-30.5"/>
<polygon fill="midnightblue" stroke="midnightblue" points="136.83,-63.47 128.11,-69.48 138.68,-70.22 136.83,-63.47"/>
</g>
<!-- Node12&#45;&gt;Node13 -->
<g id="edge17" class="edge">
<title>Node12&#45;&gt;Node13</title>
<path fill="none" stroke="midnightblue" d="M1441.03,-298.44C1450.06,-285.73 1461.06,-270.25 1468.89,-259.23"/>
<polygon fill="midnightblue" stroke="midnightblue" points="1438.1,-296.53 1435.16,-306.7 1443.8,-300.58 1438.1,-296.53"/>
</g>
<!-- Node14 -->
<g id="node14" class="node">
<title>Node14</title>
<g id="a_node14"><a xlink:href="pairinteraction_8h.html" target="_top" xlink:title=" ">
<polygon fill="none" stroke="black" points="1431.5,-145.5 1431.5,-186.5 1580.5,-186.5 1580.5,-145.5 1431.5,-145.5"/>
<text text-anchor="start" x="1439.5" y="-174.5" font-family="Helvetica,sans-Serif" font-size="10.00">/home/runner/work/occ</text>
<text text-anchor="start" x="1439.5" y="-163.5" font-family="Helvetica,sans-Serif" font-size="10.00">/occ/include/occ/interaction</text>
<text text-anchor="middle" x="1506" y="-152.5" font-family="Helvetica,sans-Serif" font-size="10.00">/pairinteraction.h</text>
</a>
</g>
</g>
<!-- Node13&#45;&gt;Node14 -->
<g id="edge18" class="edge">
<title>Node13&#45;&gt;Node14</title>
<path fill="none" stroke="midnightblue" d="M1487.53,-218.98C1491.23,-208.58 1495.5,-196.55 1499.01,-186.68"/>
<polygon fill="midnightblue" stroke="midnightblue" points="1484.13,-218.11 1484.08,-228.7 1490.72,-220.45 1484.13,-218.11"/>
</g>
<!-- Node15 -->
<g id="node15" class="node">
<title>Node15</title>
<g id="a_node15"><a xlink:href="pair__energy_8h.html" target="_top" xlink:title=" ">
<polygon fill="none" stroke="black" points="1493,-67.5 1493,-108.5 1621,-108.5 1621,-67.5 1493,-67.5"/>
<text text-anchor="start" x="1501" y="-96.5" font-family="Helvetica,sans-Serif" font-size="10.00">/home/runner/work/occ</text>
<text text-anchor="start" x="1501" y="-85.5" font-family="Helvetica,sans-Serif" font-size="10.00">/occ/include/occ/main</text>
<text text-anchor="middle" x="1557" y="-74.5" font-family="Helvetica,sans-Serif" font-size="10.00">/pair_energy.h</text>
</a>
</g>
</g>
<!-- Node13&#45;&gt;Node15 -->
<g id="edge22" class="edge">
<title>Node13&#45;&gt;Node15</title>
<path fill="none" stroke="midnightblue" d="M1543.01,-225.01C1561.37,-216.55 1579.3,-204.38 1590,-187 1605.34,-162.08 1587.77,-129.16 1572.97,-108.54"/>
<polygon fill="midnightblue" stroke="midnightblue" points="1541.52,-221.83 1533.69,-228.98 1544.27,-228.27 1541.52,-221.83"/>
</g>
<!-- Node16 -->
<g id="node16" class="node">
<title>Node16</title>
<g id="a_node16"><a xlink:href="wavefunction__json_8h.html" target="_top" xlink:title=" ">
<polygon fill="none" stroke="black" points="1636.5,-145.5 1636.5,-186.5 1811.5,-186.5 1811.5,-145.5 1636.5,-145.5"/>
<text text-anchor="start" x="1644.5" y="-174.5" font-family="Helvetica,sans-Serif" font-size="10.00">/home/runner/work/occ</text>
<text text-anchor="start" x="1644.5" y="-163.5" font-family="Helvetica,sans-Serif" font-size="10.00">/occ/include/occ/io/wavefunction</text>
<text text-anchor="middle" x="1724" y="-152.5" font-family="Helvetica,sans-Serif" font-size="10.00">_json.h</text>
</a>
</g>
</g>
<!-- Node13&#45;&gt;Node16 -->
<g id="edge21" class="edge">
<title>Node13&#45;&gt;Node16</title>
<path fill="none" stroke="midnightblue" d="M1534.01,-225.94C1571.69,-214.25 1621.76,-198.71 1661.04,-186.53"/>
<polygon fill="midnightblue" stroke="midnightblue" points="1532.74,-222.67 1524.22,-228.97 1534.81,-229.35 1532.74,-222.67"/>
</g>
<!-- Node17 -->
<g id="node17" class="node">
<title>Node17</title>
<g id="a_node17"><a xlink:href="properties_8h.html" target="_top" xlink:title=" ">
<polygon fill="none" stroke="black" points="993,-145.5 993,-186.5 1121,-186.5 1121,-145.5 993,-145.5"/>
<text text-anchor="start" x="1001" y="-174.5" font-family="Helvetica,sans-Serif" font-size="10.00">/home/runner/work/occ</text>
<text text-anchor="start" x="1001" y="-163.5" font-family="Helvetica,sans-Serif" font-size="10.00">/occ/include/occ/main</text>
<text text-anchor="middle" x="1057" y="-152.5" font-family="Helvetica,sans-Serif" font-size="10.00">/properties.h</text>
</a>
</g>
</g>
<!-- Node13&#45;&gt;Node17 -->
<g id="edge23" class="edge">
<title>Node13&#45;&gt;Node17</title>
<path fill="none" stroke="midnightblue" d="M1373.23,-229.07C1303.74,-219.17 1211.03,-204.55 1130,-187 1127.17,-186.39 1124.3,-185.73 1121.39,-185.05"/>
<polygon fill="midnightblue" stroke="midnightblue" points="1372.92,-232.56 1383.31,-230.49 1373.9,-225.63 1372.92,-232.56"/>
</g>
<!-- Node18 -->
<g id="node18" class="node">
<title>Node18</title>
<g id="a_node18"><a xlink:href="single__point_8h.html" target="_top" xlink:title=" ">
<polygon fill="none" stroke="black" points="1139,-145.5 1139,-186.5 1267,-186.5 1267,-145.5 1139,-145.5"/>
<text text-anchor="start" x="1147" y="-174.5" font-family="Helvetica,sans-Serif" font-size="10.00">/home/runner/work/occ</text>
<text text-anchor="start" x="1147" y="-163.5" font-family="Helvetica,sans-Serif" font-size="10.00">/occ/include/occ/main</text>
<text text-anchor="middle" x="1203" y="-152.5" font-family="Helvetica,sans-Serif" font-size="10.00">/single_point.h</text>
</a>
</g>
</g>
<!-- Node13&#45;&gt;Node18 -->
<g id="edge24" class="edge">
<title>Node13&#45;&gt;Node18</title>
<path fill="none" stroke="midnightblue" d="M1418.18,-226.25C1373.37,-213.91 1312.55,-197.17 1267.01,-184.63"/>
<polygon fill="midnightblue" stroke="midnightblue" points="1417.49,-229.69 1428.06,-228.97 1419.34,-222.94 1417.49,-229.69"/>
</g>
<!-- Node19 -->
<g id="node19" class="node">
<title>Node19</title>
<g id="a_node19"><a xlink:href="solvation__partition_8h.html" target="_top" xlink:title=" ">
<polygon fill="none" stroke="black" points="1285,-145.5 1285,-186.5 1413,-186.5 1413,-145.5 1285,-145.5"/>
<text text-anchor="start" x="1293" y="-174.5" font-family="Helvetica,sans-Serif" font-size="10.00">/home/runner/work/occ</text>
<text text-anchor="start" x="1293" y="-163.5" font-family="Helvetica,sans-Serif" font-size="10.00">/occ/include/occ/main</text>
<text text-anchor="middle" x="1349" y="-152.5" font-family="Helvetica,sans-Serif" font-size="10.00">/solvation_partition.h</text>
</a>
</g>
</g>
<!-- Node13&#45;&gt;Node19 -->
<g id="edge25" class="edge">
<title>Node13&#45;&gt;Node19</title>
<path fill="none" stroke="midnightblue" d="M1446.08,-223.75C1426.73,-212.44 1402.32,-198.17 1382.82,-186.77"/>
<polygon fill="midnightblue" stroke="midnightblue" points="1444.45,-226.86 1454.85,-228.88 1447.99,-220.81 1444.45,-226.86"/>
</g>
<!-- Node13&#45;&gt;Node20 -->
<g id="edge26" class="edge">
<title>Node13&#45;&gt;Node20</title>
<path fill="none" stroke="midnightblue" d="M1583.13,-227.38C1651.02,-216.85 1741.45,-202.15 1821,-187 1830.47,-185.2 1840.47,-183.16 1850.24,-181.1"/>
<polygon fill="midnightblue" stroke="midnightblue" points="1582.2,-223.98 1572.86,-228.97 1583.27,-230.9 1582.2,-223.98"/>
</g>
<!-- Node14&#45;&gt;Node15 -->
<g id="edge19" class="edge">
<title>Node14&#45;&gt;Node15</title>
<path fill="none" stroke="midnightblue" d="M1524.76,-137.05C1531.12,-127.57 1538.09,-117.18 1543.91,-108.51"/>
<polygon fill="midnightblue" stroke="midnightblue" points="1521.8,-135.17 1519.13,-145.43 1527.61,-139.07 1521.8,-135.17"/>
</g>
<!-- Node15&#45;&gt;Node15 -->
<g id="edge20" class="edge">
<title>Node15&#45;&gt;Node15</title>
<path fill="none" stroke="midnightblue" d="M1631.15,-97.64C1636.04,-95.4 1639,-92.19 1639,-88 1639,-81.46 1631.79,-77.3 1621.29,-75.51"/>
<polygon fill="midnightblue" stroke="midnightblue" points="1629.92,-94.35 1621.29,-100.49 1631.87,-101.08 1629.92,-94.35"/>
</g>
<!-- Node21&#45;&gt;Node13 -->
<g id="edge28" class="edge">
<title>Node21&#45;&gt;Node13</title>
<path fill="none" stroke="midnightblue" d="M1578.44,-301.82C1555.14,-288.51 1524.62,-271.07 1503.57,-259.04"/>
<polygon fill="midnightblue" stroke="midnightblue" points="1576.88,-304.96 1587.3,-306.88 1580.35,-298.88 1576.88,-304.96"/>
</g>
<!-- Node22&#45;&gt;Node13 -->
<g id="edge30" class="edge">
<title>Node22&#45;&gt;Node13</title>
<path fill="none" stroke="midnightblue" d="M1735.74,-304.67C1677.24,-291.07 1594.82,-271.92 1539.28,-259.01"/>
<polygon fill="midnightblue" stroke="midnightblue" points="1735.11,-308.12 1745.64,-306.97 1736.69,-301.3 1735.11,-308.12"/>
</g>
<!-- Node23&#45;&gt;Node13 -->
<g id="edge32" class="edge">
<title>Node23&#45;&gt;Node13</title>
<path fill="none" stroke="midnightblue" d="M1294.09,-299.05C1338.17,-286.16 1392.58,-270.26 1430.93,-259.05"/>
<polygon fill="midnightblue" stroke="midnightblue" points="1292.89,-295.75 1284.27,-301.92 1294.85,-302.47 1292.89,-295.75"/>
</g>
<!-- Node24&#45;&gt;Node25 -->
<g id="edge34" class="edge">
<title>Node24&#45;&gt;Node25</title>
<path fill="none" stroke="midnightblue" d="M309.23,-293.05C316.09,-283.57 323.6,-273.18 329.88,-264.51"/>
<polygon fill="midnightblue" stroke="midnightblue" points="306.19,-291.27 303.16,-301.43 311.86,-295.38 306.19,-291.27"/>
</g>
<!-- Node25&#45;&gt;Node5 -->
<g id="edge35" class="edge">
<title>Node25&#45;&gt;Node5</title>
<path fill="none" stroke="midnightblue" d="M393.79,-219.05C415.59,-208.57 440.83,-196.42 461.45,-186.51"/>
<polygon fill="midnightblue" stroke="midnightblue" points="392.18,-215.94 384.69,-223.43 395.22,-222.25 392.18,-215.94"/>
</g>
<!-- Node26 -->
<g id="node26" class="node">
<title>Node26</title>
<g id="a_node26"><a xlink:href="hf_8h.html" target="_top" xlink:title=" ">
<polygon fill="none" stroke="black" points="330,-73 330,-103 464,-103 464,-73 330,-73"/>
<text text-anchor="start" x="338" y="-91" font-family="Helvetica,sans-Serif" font-size="10.00">/home/runner/work/occ</text>
<text text-anchor="middle" x="397" y="-80" font-family="Helvetica,sans-Serif" font-size="10.00">/occ/include/occ/qm/hf.h</text>
</a>
</g>
</g>
<!-- Node25&#45;&gt;Node26 -->
<g id="edge36" class="edge">
<title>Node25&#45;&gt;Node26</title>
<path fill="none" stroke="midnightblue" d="M363.07,-214.8C368.22,-206.17 373.36,-196.46 377,-187 388.03,-158.31 393.37,-122.44 395.61,-103.04"/>
<polygon fill="midnightblue" stroke="midnightblue" points="360.07,-213 357.77,-223.34 366.02,-216.69 360.07,-213"/>
</g>
<!-- Node27 -->
<g id="node27" class="node">
<title>Node27</title>
<g id="a_node27"><a xlink:href="integral__engine__df_8h.html" target="_top" xlink:title=" ">
<polygon fill="none" stroke="black" points="215.5,-145.5 215.5,-186.5 368.5,-186.5 368.5,-145.5 215.5,-145.5"/>
<text text-anchor="start" x="223.5" y="-174.5" font-family="Helvetica,sans-Serif" font-size="10.00">/home/runner/work/occ</text>
<text text-anchor="start" x="223.5" y="-163.5" font-family="Helvetica,sans-Serif" font-size="10.00">/occ/include/occ/qm/integral</text>
<text text-anchor="middle" x="292" y="-152.5" font-family="Helvetica,sans-Serif" font-size="10.00">_engine_df.h</text>
</a>
</g>
</g>
<!-- Node25&#45;&gt;Node27 -->
<g id="edge38" class="edge">
<title>Node25&#45;&gt;Node27</title>
<path fill="none" stroke="midnightblue" d="M324.87,-215.05C318.39,-205.57 311.28,-195.18 305.35,-186.51"/>
<polygon fill="midnightblue" stroke="midnightblue" points="322.07,-217.15 330.61,-223.43 327.85,-213.2 322.07,-217.15"/>
</g>
<!-- Node26&#45;&gt;Node3 -->
<g id="edge37" class="edge">
<title>Node26&#45;&gt;Node3</title>
<path fill="none" stroke="midnightblue" d="M374.28,-65.64C362.15,-54.24 347.58,-40.54 336.9,-30.5"/>
<polygon fill="midnightblue" stroke="midnightblue" points="372.14,-68.43 381.82,-72.73 376.93,-63.33 372.14,-68.43"/>
</g>
<!-- Node27&#45;&gt;Node26 -->
<g id="edge39" class="edge">
<title>Node27&#45;&gt;Node26</title>
<path fill="none" stroke="midnightblue" d="M327.47,-139.32C344.13,-127.27 363.34,-113.36 377.35,-103.23"/>
<polygon fill="midnightblue" stroke="midnightblue" points="325.09,-136.73 319.04,-145.43 329.19,-142.4 325.09,-136.73"/>
</g>
<!-- Node30&#45;&gt;Node25 -->
<g id="edge45" class="edge">
<title>Node30&#45;&gt;Node25</title>
<path fill="none" stroke="midnightblue" d="M419.29,-295.64C404.2,-285.49 387.09,-273.98 373,-264.51"/>
<polygon fill="midnightblue" stroke="midnightblue" points="417.65,-298.75 427.9,-301.43 421.56,-292.94 417.65,-298.75"/>
</g>
</g>
</svg>
