<?xml version="1.0" encoding="UTF-8" standalone="no"?>
<!DOCTYPE svg PUBLIC "-//W3C//DTD SVG 1.1//EN"
 "http://www.w3.org/Graphics/SVG/1.1/DTD/svg11.dtd">
<!-- Generated by graphviz version 2.43.0 (0)
 -->
<!-- Title: /home/runner/work/occ/occ/include/occ/io/shelxfile.h Pages: 1 -->
<svg width="659pt" height="148pt"
 viewBox="0.00 0.00 659.00 148.00" xmlns="http://www.w3.org/2000/svg" xmlns:xlink="http://www.w3.org/1999/xlink">
<g id="graph0" class="graph" transform="scale(1 1) rotate(0) translate(4 144)">
<title>/home/runner/work/occ/occ/include/occ/io/shelxfile.h</title>
<!-- Node1 -->
<g id="Node000001" class="node">
<title>Node1</title>
<g id="a_Node000001"><a xlink:title=" ">
<polygon fill="#999999" stroke="#666666" points="499,-140 340,-140 340,-110 499,-110 499,-140"/>
<text text-anchor="start" x="348" y="-128" font-family="Helvetica,sans-Serif" font-size="10.00">/home/runner/work/occ</text>
<text text-anchor="middle" x="419.5" y="-117" font-family="Helvetica,sans-Serif" font-size="10.00">/occ/include/occ/io/shelxfile.h</text>
</a>
</g>
</g>
<!-- Node2 -->
<g id="Node000002" class="node">
<title>Node2</title>
<g id="a_Node000002"><a xlink:title=" ">
<polygon fill="#e0e0e0" stroke="#999999" points="143,-74 0,-74 0,-55 143,-55 143,-74"/>
<text text-anchor="middle" x="71.5" y="-62" font-family="Helvetica,sans-Serif" font-size="10.00">ankerl/unordered_dense.h</text>
</a>
</g>
</g>
<!-- Node1&#45;&gt;Node2 -->
<g id="edge1_Node000001_Node000002" class="edge">
<title>Node1&#45;&gt;Node2</title>
<g id="a_edge1_Node000001_Node000002"><a xlink:title=" ">
<path fill="none" stroke="#63b8ff" d="M339.66,-110.58C276.53,-99.97 189.73,-85.38 132.19,-75.7"/>
<polygon fill="#63b8ff" stroke="#63b8ff" points="132.59,-72.22 122.15,-74.01 131.43,-79.12 132.59,-72.22"/>
</a>
</g>
</g>
<!-- Node3 -->
<g id="Node000003" class="node">
<title>Node3</title>
<g id="a_Node000003"><a xlink:title=" ">
<polygon fill="#e0e0e0" stroke="#999999" points="216,-74 161,-74 161,-55 216,-55 216,-74"/>
<text text-anchor="middle" x="188.5" y="-62" font-family="Helvetica,sans-Serif" font-size="10.00">fstream</text>
</a>
</g>
</g>
<!-- Node1&#45;&gt;Node3 -->
<g id="edge2_Node000001_Node000003" class="edge">
<title>Node1&#45;&gt;Node3</title>
<g id="a_edge2_Node000001_Node000003"><a xlink:title=" ">
<path fill="none" stroke="#63b8ff" d="M364.17,-109.99C321.47,-99.17 263.54,-84.5 226.09,-75.02"/>
<polygon fill="#63b8ff" stroke="#63b8ff" points="226.65,-71.55 216.1,-72.49 224.94,-78.34 226.65,-71.55"/>
</a>
</g>
</g>
<!-- Node4 -->
<g id="Node000004" class="node">
<title>Node4</title>
<g id="a_Node000004"><a xlink:href="linear__algebra_8h.html" target="_top" xlink:title=" ">
<polygon fill="white" stroke="#666666" points="373,-74 234,-74 234,-55 373,-55 373,-74"/>
<text text-anchor="middle" x="303.5" y="-62" font-family="Helvetica,sans-Serif" font-size="10.00">occ/core/linear_algebra.h</text>
</a>
</g>
</g>
<!-- Node1&#45;&gt;Node4 -->
<g id="edge3_Node000001_Node000004" class="edge">
<title>Node1&#45;&gt;Node4</title>
<g id="a_edge3_Node000001_Node000004"><a xlink:title=" ">
<path fill="none" stroke="#63b8ff" d="M391.72,-109.99C372.88,-100.49 348.15,-88.02 329.66,-78.69"/>
<polygon fill="#63b8ff" stroke="#63b8ff" points="331.14,-75.52 320.63,-74.14 327.98,-81.77 331.14,-75.52"/>
</a>
</g>
</g>
<!-- Node8 -->
<g id="Node000008" class="node">
<title>Node8</title>
<g id="a_Node000008"><a xlink:title=" ">
<polygon fill="#e0e0e0" stroke="#999999" points="447.5,-74 391.5,-74 391.5,-55 447.5,-55 447.5,-74"/>
<text text-anchor="middle" x="419.5" y="-62" font-family="Helvetica,sans-Serif" font-size="10.00">optional</text>
</a>
</g>
</g>
<!-- Node1&#45;&gt;Node8 -->
<g id="edge7_Node000001_Node000008" class="edge">
<title>Node1&#45;&gt;Node8</title>
<g id="a_edge7_Node000001_Node000008"><a xlink:title=" ">
<path fill="none" stroke="#63b8ff" d="M419.5,-109.84C419.5,-102.21 419.5,-92.7 419.5,-84.45"/>
<polygon fill="#63b8ff" stroke="#63b8ff" points="423,-84.27 419.5,-74.27 416,-84.27 423,-84.27"/>
</a>
</g>
</g>
<!-- Node9 -->
<g id="Node000009" class="node">
<title>Node9</title>
<g id="a_Node000009"><a xlink:title=" ">
<polygon fill="#e0e0e0" stroke="#999999" points="523,-74 466,-74 466,-55 523,-55 523,-74"/>
<text text-anchor="middle" x="494.5" y="-62" font-family="Helvetica,sans-Serif" font-size="10.00">ostream</text>
</a>
</g>
</g>
<!-- Node1&#45;&gt;Node9 -->
<g id="edge8_Node000001_Node000009" class="edge">
<title>Node1&#45;&gt;Node9</title>
<g id="a_edge8_Node000001_Node000009"><a xlink:title=" ">
<path fill="none" stroke="#63b8ff" d="M437.66,-109.84C448.99,-101 463.56,-89.63 475.12,-80.62"/>
<polygon fill="#63b8ff" stroke="#63b8ff" points="477.53,-83.18 483.26,-74.27 473.22,-77.66 477.53,-83.18"/>
</a>
</g>
</g>
<!-- Node10 -->
<g id="Node000010" class="node">
<title>Node10</title>
<g id="a_Node000010"><a xlink:title=" ">
<polygon fill="#e0e0e0" stroke="#999999" points="585.5,-74 541.5,-74 541.5,-55 585.5,-55 585.5,-74"/>
<text text-anchor="middle" x="563.5" y="-62" font-family="Helvetica,sans-Serif" font-size="10.00">string</text>
</a>
</g>
</g>
<!-- Node1&#45;&gt;Node10 -->
<g id="edge9_Node000001_Node000010" class="edge">
<title>Node1&#45;&gt;Node10</title>
<g id="a_edge9_Node000001_Node000010"><a xlink:title=" ">
<path fill="none" stroke="#63b8ff" d="M453.99,-109.99C478.02,-100.23 509.77,-87.33 532.9,-77.93"/>
<polygon fill="#63b8ff" stroke="#63b8ff" points="534.29,-81.15 542.23,-74.14 531.65,-74.66 534.29,-81.15"/>
</a>
</g>
</g>
<!-- Node11 -->
<g id="Node000011" class="node">
<title>Node11</title>
<g id="a_Node000011"><a xlink:title=" ">
<polygon fill="#e0e0e0" stroke="#999999" points="651,-74 604,-74 604,-55 651,-55 651,-74"/>
<text text-anchor="middle" x="627.5" y="-62" font-family="Helvetica,sans-Serif" font-size="10.00">vector</text>
</a>
</g>
</g>
<!-- Node1&#45;&gt;Node11 -->
<g id="edge10_Node000001_Node000011" class="edge">
<title>Node1&#45;&gt;Node11</title>
<g id="a_edge10_Node000001_Node000011"><a xlink:title=" ">
<path fill="none" stroke="#63b8ff" d="M469.32,-109.99C507.88,-99.14 560.22,-84.42 593.93,-74.94"/>
<polygon fill="#63b8ff" stroke="#63b8ff" points="595.08,-78.25 603.76,-72.18 593.19,-71.51 595.08,-78.25"/>
</a>
</g>
</g>
<!-- Node5 -->
<g id="Node000005" class="node">
<title>Node5</title>
<g id="a_Node000005"><a xlink:title=" ">
<polygon fill="#e0e0e0" stroke="#999999" points="239,-19 162,-19 162,0 239,0 239,-19"/>
<text text-anchor="middle" x="200.5" y="-7" font-family="Helvetica,sans-Serif" font-size="10.00">Eigen/Dense</text>
</a>
</g>
</g>
<!-- Node4&#45;&gt;Node5 -->
<g id="edge4_Node000004_Node000005" class="edge">
<title>Node4&#45;&gt;Node5</title>
<g id="a_edge4_Node000004_Node000005"><a xlink:title=" ">
<path fill="none" stroke="#63b8ff" d="M286.95,-54.98C270.61,-46.57 245.37,-33.59 226.37,-23.81"/>
<polygon fill="#63b8ff" stroke="#63b8ff" points="227.84,-20.63 217.35,-19.17 224.64,-26.86 227.84,-20.63"/>
</a>
</g>
</g>
<!-- Node6 -->
<g id="Node000006" class="node">
<title>Node6</title>
<g id="a_Node000006"><a xlink:title=" ">
<polygon fill="#e0e0e0" stroke="#999999" points="350,-19 257,-19 257,0 350,0 350,-19"/>
<text text-anchor="middle" x="303.5" y="-7" font-family="Helvetica,sans-Serif" font-size="10.00">Eigen/StdVector</text>
</a>
</g>
</g>
<!-- Node4&#45;&gt;Node6 -->
<g id="edge5_Node000004_Node000006" class="edge">
<title>Node4&#45;&gt;Node6</title>
<g id="a_edge5_Node000004_Node000006"><a xlink:title=" ">
<path fill="none" stroke="#63b8ff" d="M303.5,-54.75C303.5,-47.8 303.5,-37.85 303.5,-29.13"/>
<polygon fill="#63b8ff" stroke="#63b8ff" points="307,-29.09 303.5,-19.09 300,-29.09 307,-29.09"/>
</a>
</g>
</g>
<!-- Node7 -->
<g id="Node000007" class="node">
<title>Node7</title>
<g id="a_Node000007"><a xlink:title=" ">
<polygon fill="#e0e0e0" stroke="#999999" points="435,-19 368,-19 368,0 435,0 435,-19"/>
<text text-anchor="middle" x="401.5" y="-7" font-family="Helvetica,sans-Serif" font-size="10.00">fmt/core.h</text>
</a>
</g>
</g>
<!-- Node4&#45;&gt;Node7 -->
<g id="edge6_Node000004_Node000007" class="edge">
<title>Node4&#45;&gt;Node7</title>
<g id="a_edge6_Node000004_Node000007"><a xlink:title=" ">
<path fill="none" stroke="#63b8ff" d="M319.25,-54.98C334.73,-46.61 358.59,-33.7 376.64,-23.95"/>
<polygon fill="#63b8ff" stroke="#63b8ff" points="378.34,-27.01 385.47,-19.17 375.01,-20.85 378.34,-27.01"/>
</a>
</g>
</g>
</g>
</svg>
