<?xml version="1.0" encoding="UTF-8" standalone="no"?>
<!DOCTYPE svg PUBLIC "-//W3C//DTD SVG 1.1//EN"
 "http://www.w3.org/Graphics/SVG/1.1/DTD/svg11.dtd">
<!-- Generated by graphviz version 2.43.0 (0)
 -->
<!-- Title: /home/runner/work/occ/occ/include/occ/qm/shellblock_norm.h Pages: 1 -->
<svg width="1037pt" height="324pt"
 viewBox="0.00 0.00 1037.25 324.00" xmlns="http://www.w3.org/2000/svg" xmlns:xlink="http://www.w3.org/1999/xlink">
<g id="graph0" class="graph" transform="scale(1 1) rotate(0) translate(4 320)">
<title>/home/runner/work/occ/occ/include/occ/qm/shellblock_norm.h</title>
<!-- Node1 -->
<g id="Node000001" class="node">
<title>Node1</title>
<g id="a_Node000001"><a xlink:title=" ">
<polygon fill="#999999" stroke="#666666" points="609.75,-316 444.75,-316 444.75,-275 609.75,-275 609.75,-316"/>
<text text-anchor="start" x="452.75" y="-304" font-family="Helvetica,sans-Serif" font-size="10.00">/home/runner/work/occ</text>
<text text-anchor="start" x="452.75" y="-293" font-family="Helvetica,sans-Serif" font-size="10.00">/occ/include/occ/qm/shellblock</text>
<text text-anchor="middle" x="527.25" y="-282" font-family="Helvetica,sans-Serif" font-size="10.00">_norm.h</text>
</a>
</g>
</g>
<!-- Node2 -->
<g id="Node000002" class="node">
<title>Node2</title>
<g id="a_Node000002"><a xlink:href="linear__algebra_8h.html" target="_top" xlink:title=" ">
<polygon fill="white" stroke="#666666" points="257.75,-74 118.75,-74 118.75,-55 257.75,-55 257.75,-74"/>
<text text-anchor="middle" x="188.25" y="-62" font-family="Helvetica,sans-Serif" font-size="10.00">occ/core/linear_algebra.h</text>
</a>
</g>
</g>
<!-- Node1&#45;&gt;Node2 -->
<g id="edge1_Node000001_Node000002" class="edge">
<title>Node1&#45;&gt;Node2</title>
<g id="a_edge1_Node000001_Node000002"><a xlink:title=" ">
<path fill="none" stroke="#63b8ff" d="M444.69,-286.35C319.33,-272.34 89.28,-239.69 30.25,-184 5.47,-160.62 -10.72,-136.85 10.25,-110 22.82,-93.9 67.45,-82.77 108.87,-75.66"/>
<polygon fill="#63b8ff" stroke="#63b8ff" points="109.46,-79.11 118.76,-74.03 108.32,-72.21 109.46,-79.11"/>
</a>
</g>
</g>
<!-- Node6 -->
<g id="Node000006" class="node">
<title>Node6</title>
<g id="a_Node000006"><a xlink:href="timings_8h.html" target="_top" xlink:title=" ">
<polygon fill="white" stroke="#666666" points="1029.25,-184 923.25,-184 923.25,-165 1029.25,-165 1029.25,-184"/>
<text text-anchor="middle" x="976.25" y="-172" font-family="Helvetica,sans-Serif" font-size="10.00">occ/core/timings.h</text>
</a>
</g>
</g>
<!-- Node1&#45;&gt;Node6 -->
<g id="edge5_Node000001_Node000006" class="edge">
<title>Node1&#45;&gt;Node6</title>
<g id="a_edge5_Node000001_Node000006"><a xlink:title=" ">
<path fill="none" stroke="#63b8ff" d="M609.9,-285.32C672.91,-276.97 761.31,-262.33 836.25,-239 878.42,-225.87 924.57,-203.18 951.94,-188.78"/>
<polygon fill="#63b8ff" stroke="#63b8ff" points="953.62,-191.85 960.79,-184.06 950.32,-185.67 953.62,-191.85"/>
</a>
</g>
</g>
<!-- Node9 -->
<g id="Node000009" class="node">
<title>Node9</title>
<g id="a_Node000009"><a xlink:href="shell_8h.html" target="_top" xlink:title=" ">
<polygon fill="white" stroke="#666666" points="310.75,-239 223.75,-239 223.75,-220 310.75,-220 310.75,-239"/>
<text text-anchor="middle" x="267.25" y="-227" font-family="Helvetica,sans-Serif" font-size="10.00">occ/qm/shell.h</text>
</a>
</g>
</g>
<!-- Node1&#45;&gt;Node9 -->
<g id="edge8_Node000001_Node000009" class="edge">
<title>Node1&#45;&gt;Node9</title>
<g id="a_edge8_Node000001_Node000009"><a xlink:title=" ">
<path fill="none" stroke="#63b8ff" d="M447.83,-274.95C403.19,-263.96 349.13,-250.65 311.86,-241.48"/>
<polygon fill="#63b8ff" stroke="#63b8ff" points="312.36,-238 301.81,-239.01 310.69,-244.8 312.36,-238"/>
</a>
</g>
</g>
<!-- Node20 -->
<g id="Node000020" class="node">
<title>Node20</title>
<g id="a_Node000020"><a xlink:href="spinorbital_8h.html" target="_top" xlink:title=" ">
<polygon fill="white" stroke="#666666" points="827.25,-239 711.25,-239 711.25,-220 827.25,-220 827.25,-239"/>
<text text-anchor="middle" x="769.25" y="-227" font-family="Helvetica,sans-Serif" font-size="10.00">occ/qm/spinorbital.h</text>
</a>
</g>
</g>
<!-- Node1&#45;&gt;Node20 -->
<g id="edge30_Node000001_Node000020" class="edge">
<title>Node1&#45;&gt;Node20</title>
<g id="a_edge30_Node000001_Node000020"><a xlink:title=" ">
<path fill="none" stroke="#63b8ff" d="M601.17,-274.95C642.54,-264.01 692.61,-250.77 727.28,-241.6"/>
<polygon fill="#63b8ff" stroke="#63b8ff" points="728.31,-244.95 737.08,-239.01 726.52,-238.18 728.31,-244.95"/>
</a>
</g>
</g>
<!-- Node3 -->
<g id="Node000003" class="node">
<title>Node3</title>
<g id="a_Node000003"><a xlink:title=" ">
<polygon fill="#e0e0e0" stroke="#999999" points="230.75,-19 153.75,-19 153.75,0 230.75,0 230.75,-19"/>
<text text-anchor="middle" x="192.25" y="-7" font-family="Helvetica,sans-Serif" font-size="10.00">Eigen/Dense</text>
</a>
</g>
</g>
<!-- Node2&#45;&gt;Node3 -->
<g id="edge2_Node000002_Node000003" class="edge">
<title>Node2&#45;&gt;Node3</title>
<g id="a_edge2_Node000002_Node000003"><a xlink:title=" ">
<path fill="none" stroke="#63b8ff" d="M188.91,-54.75C189.43,-47.8 190.19,-37.85 190.84,-29.13"/>
<polygon fill="#63b8ff" stroke="#63b8ff" points="194.34,-29.32 191.6,-19.09 187.36,-28.8 194.34,-29.32"/>
</a>
</g>
</g>
<!-- Node4 -->
<g id="Node000004" class="node">
<title>Node4</title>
<g id="a_Node000004"><a xlink:title=" ">
<polygon fill="#e0e0e0" stroke="#999999" points="135.75,-19 42.75,-19 42.75,0 135.75,0 135.75,-19"/>
<text text-anchor="middle" x="89.25" y="-7" font-family="Helvetica,sans-Serif" font-size="10.00">Eigen/StdVector</text>
</a>
</g>
</g>
<!-- Node2&#45;&gt;Node4 -->
<g id="edge3_Node000002_Node000004" class="edge">
<title>Node2&#45;&gt;Node4</title>
<g id="a_edge3_Node000002_Node000004"><a xlink:title=" ">
<path fill="none" stroke="#63b8ff" d="M172.34,-54.98C156.7,-46.61 132.59,-33.7 114.37,-23.95"/>
<polygon fill="#63b8ff" stroke="#63b8ff" points="115.91,-20.8 105.44,-19.17 112.61,-26.98 115.91,-20.8"/>
</a>
</g>
</g>
<!-- Node5 -->
<g id="Node000005" class="node">
<title>Node5</title>
<g id="a_Node000005"><a xlink:title=" ">
<polygon fill="#e0e0e0" stroke="#999999" points="319.75,-19 252.75,-19 252.75,0 319.75,0 319.75,-19"/>
<text text-anchor="middle" x="286.25" y="-7" font-family="Helvetica,sans-Serif" font-size="10.00">fmt/core.h</text>
</a>
</g>
</g>
<!-- Node2&#45;&gt;Node5 -->
<g id="edge4_Node000002_Node000005" class="edge">
<title>Node2&#45;&gt;Node5</title>
<g id="a_edge4_Node000002_Node000005"><a xlink:title=" ">
<path fill="none" stroke="#63b8ff" d="M203.99,-54.98C219.48,-46.61 243.34,-33.7 261.39,-23.95"/>
<polygon fill="#63b8ff" stroke="#63b8ff" points="263.09,-27.01 270.22,-19.17 259.76,-20.85 263.09,-27.01"/>
</a>
</g>
</g>
<!-- Node7 -->
<g id="Node000007" class="node">
<title>Node7</title>
<g id="a_Node000007"><a xlink:title=" ">
<polygon fill="#e0e0e0" stroke="#999999" points="936.25,-129 886.25,-129 886.25,-110 936.25,-110 936.25,-129"/>
<text text-anchor="middle" x="911.25" y="-117" font-family="Helvetica,sans-Serif" font-size="10.00">chrono</text>
</a>
</g>
</g>
<!-- Node6&#45;&gt;Node7 -->
<g id="edge6_Node000006_Node000007" class="edge">
<title>Node6&#45;&gt;Node7</title>
<g id="a_edge6_Node000006_Node000007"><a xlink:title=" ">
<path fill="none" stroke="#63b8ff" d="M965.81,-164.98C956.1,-157.07 941.43,-145.11 929.75,-135.58"/>
<polygon fill="#63b8ff" stroke="#63b8ff" points="931.84,-132.78 921.88,-129.17 927.42,-138.2 931.84,-132.78"/>
</a>
</g>
</g>
<!-- Node8 -->
<g id="Node000008" class="node">
<title>Node8</title>
<g id="a_Node000008"><a xlink:title=" ">
<polygon fill="#e0e0e0" stroke="#999999" points="998.25,-129 954.25,-129 954.25,-110 998.25,-110 998.25,-129"/>
<text text-anchor="middle" x="976.25" y="-117" font-family="Helvetica,sans-Serif" font-size="10.00">string</text>
</a>
</g>
</g>
<!-- Node6&#45;&gt;Node8 -->
<g id="edge7_Node000006_Node000008" class="edge">
<title>Node6&#45;&gt;Node8</title>
<g id="a_edge7_Node000006_Node000008"><a xlink:title=" ">
<path fill="none" stroke="#63b8ff" d="M976.25,-164.75C976.25,-157.8 976.25,-147.85 976.25,-139.13"/>
<polygon fill="#63b8ff" stroke="#63b8ff" points="979.75,-139.09 976.25,-129.09 972.75,-139.09 979.75,-139.09"/>
</a>
</g>
</g>
<!-- Node9&#45;&gt;Node2 -->
<g id="edge13_Node000009_Node000002" class="edge">
<title>Node9&#45;&gt;Node2</title>
<g id="a_edge13_Node000009_Node000002"><a xlink:title=" ">
<path fill="none" stroke="#63b8ff" d="M265.7,-219.96C261.78,-199.75 250.18,-147.86 228.25,-110 222.16,-99.48 213.28,-89.28 205.43,-81.31"/>
<polygon fill="#63b8ff" stroke="#63b8ff" points="207.68,-78.61 198.07,-74.15 202.8,-83.63 207.68,-78.61"/>
</a>
</g>
</g>
<!-- Node9&#45;&gt;Node5 -->
<g id="edge10_Node000009_Node000005" class="edge">
<title>Node9&#45;&gt;Node5</title>
<g id="a_edge10_Node000009_Node000005"><a xlink:title=" ">
<path fill="none" stroke="#63b8ff" d="M267.99,-219.95C270.78,-187.95 280.66,-74.68 284.6,-29.4"/>
<polygon fill="#63b8ff" stroke="#63b8ff" points="288.11,-29.49 285.49,-19.22 281.13,-28.88 288.11,-29.49"/>
</a>
</g>
</g>
<!-- Node10 -->
<g id="Node000010" class="node">
<title>Node10</title>
<g id="a_Node000010"><a xlink:title=" ">
<polygon fill="#e0e0e0" stroke="#999999" points="61.25,-129 19.25,-129 19.25,-110 61.25,-110 61.25,-129"/>
<text text-anchor="middle" x="40.25" y="-117" font-family="Helvetica,sans-Serif" font-size="10.00">array</text>
</a>
</g>
</g>
<!-- Node9&#45;&gt;Node10 -->
<g id="edge9_Node000009_Node000010" class="edge">
<title>Node9&#45;&gt;Node10</title>
<g id="a_edge9_Node000009_Node000010"><a xlink:title=" ">
<path fill="none" stroke="#63b8ff" d="M223.45,-226.23C164.42,-222.16 64.07,-211.31 41.25,-184 30.98,-171.72 32.04,-152.94 34.88,-138.99"/>
<polygon fill="#63b8ff" stroke="#63b8ff" points="38.33,-139.6 37.36,-129.05 31.54,-137.91 38.33,-139.6"/>
</a>
</g>
</g>
<!-- Node11 -->
<g id="Node000011" class="node">
<title>Node11</title>
<g id="a_Node000011"><a xlink:href="atom_8h.html" target="_top" xlink:title=" ">
<polygon fill="white" stroke="#666666" points="219.75,-129 124.75,-129 124.75,-110 219.75,-110 219.75,-129"/>
<text text-anchor="middle" x="172.25" y="-117" font-family="Helvetica,sans-Serif" font-size="10.00">occ/core/atom.h</text>
</a>
</g>
</g>
<!-- Node9&#45;&gt;Node11 -->
<g id="edge11_Node000009_Node000011" class="edge">
<title>Node9&#45;&gt;Node11</title>
<g id="a_edge11_Node000009_Node000011"><a xlink:title=" ">
<path fill="none" stroke="#63b8ff" d="M259.47,-219.66C243.53,-201.54 206.92,-159.91 186.56,-136.77"/>
<polygon fill="#63b8ff" stroke="#63b8ff" points="189.1,-134.36 179.87,-129.16 183.84,-138.98 189.1,-134.36"/>
</a>
</g>
</g>
<!-- Node12 -->
<g id="Node000012" class="node">
<title>Node12</title>
<g id="a_Node000012"><a xlink:href="point__charge_8h.html" target="_top" xlink:title=" ">
<polygon fill="white" stroke="#666666" points="182.25,-184 50.25,-184 50.25,-165 182.25,-165 182.25,-184"/>
<text text-anchor="middle" x="116.25" y="-172" font-family="Helvetica,sans-Serif" font-size="10.00">occ/core/point_charge.h</text>
</a>
</g>
</g>
<!-- Node9&#45;&gt;Node12 -->
<g id="edge14_Node000009_Node000012" class="edge">
<title>Node9&#45;&gt;Node12</title>
<g id="a_edge14_Node000009_Node000012"><a xlink:title=" ">
<path fill="none" stroke="#63b8ff" d="M242.99,-219.98C217.93,-211.19 178.62,-197.39 150.42,-187.49"/>
<polygon fill="#63b8ff" stroke="#63b8ff" points="151.55,-184.18 140.95,-184.17 149.23,-190.78 151.55,-184.18"/>
</a>
</g>
</g>
<!-- Node13 -->
<g id="Node000013" class="node">
<title>Node13</title>
<g id="a_Node000013"><a xlink:href="util_8h.html" target="_top" xlink:title=" ">
<polygon fill="white" stroke="#666666" points="695.75,-184 610.75,-184 610.75,-165 695.75,-165 695.75,-184"/>
<text text-anchor="middle" x="653.25" y="-172" font-family="Helvetica,sans-Serif" font-size="10.00">occ/core/util.h</text>
</a>
</g>
</g>
<!-- Node9&#45;&gt;Node13 -->
<g id="edge18_Node000009_Node000013" class="edge">
<title>Node9&#45;&gt;Node13</title>
<g id="a_edge18_Node000009_Node000013"><a xlink:title=" ">
<path fill="none" stroke="#63b8ff" d="M310.78,-222.52C382.1,-212.73 523.61,-193.3 600.51,-182.74"/>
<polygon fill="#63b8ff" stroke="#63b8ff" points="601.04,-186.2 610.47,-181.37 600.09,-179.27 601.04,-186.2"/>
</a>
</g>
</g>
<!-- Node19 -->
<g id="Node000019" class="node">
<title>Node19</title>
<g id="a_Node000019"><a xlink:title=" ">
<polygon fill="#e0e0e0" stroke="#999999" points="361.75,-129 314.75,-129 314.75,-110 361.75,-110 361.75,-129"/>
<text text-anchor="middle" x="338.25" y="-117" font-family="Helvetica,sans-Serif" font-size="10.00">vector</text>
</a>
</g>
</g>
<!-- Node9&#45;&gt;Node19 -->
<g id="edge29_Node000009_Node000019" class="edge">
<title>Node9&#45;&gt;Node19</title>
<g id="a_edge29_Node000009_Node000019"><a xlink:title=" ">
<path fill="none" stroke="#63b8ff" d="M274.09,-219.82C280.95,-210.98 291.7,-196.8 300.25,-184 310.37,-168.84 320.94,-150.99 328.36,-138.08"/>
<polygon fill="#63b8ff" stroke="#63b8ff" points="331.45,-139.72 333.35,-129.3 325.37,-136.26 331.45,-139.72"/>
</a>
</g>
</g>
<!-- Node11&#45;&gt;Node2 -->
<g id="edge12_Node000011_Node000002" class="edge">
<title>Node11&#45;&gt;Node2</title>
<g id="a_edge12_Node000011_Node000002"><a xlink:title=" ">
<path fill="none" stroke="#63b8ff" d="M174.89,-109.75C177.01,-102.72 180.06,-92.62 182.71,-83.84"/>
<polygon fill="#63b8ff" stroke="#63b8ff" points="186.12,-84.67 185.66,-74.09 179.42,-82.65 186.12,-84.67"/>
</a>
</g>
</g>
<!-- Node12&#45;&gt;Node2 -->
<g id="edge17_Node000012_Node000002" class="edge">
<title>Node12&#45;&gt;Node2</title>
<g id="a_edge17_Node000012_Node000002"><a xlink:title=" ">
<path fill="none" stroke="#63b8ff" d="M113.47,-164.61C109.97,-151.67 105.53,-127.3 115.25,-110 123.36,-95.56 138.26,-85.26 152.5,-78.22"/>
<polygon fill="#63b8ff" stroke="#63b8ff" points="154.02,-81.38 161.68,-74.06 151.13,-75 154.02,-81.38"/>
</a>
</g>
</g>
<!-- Node12&#45;&gt;Node10 -->
<g id="edge15_Node000012_Node000010" class="edge">
<title>Node12&#45;&gt;Node10</title>
<g id="a_edge15_Node000012_Node000010"><a xlink:title=" ">
<path fill="none" stroke="#63b8ff" d="M104.04,-164.98C92.47,-156.92 74.87,-144.65 61.09,-135.03"/>
<polygon fill="#63b8ff" stroke="#63b8ff" points="62.89,-132.02 52.68,-129.17 58.88,-137.76 62.89,-132.02"/>
</a>
</g>
</g>
<!-- Node12&#45;&gt;Node11 -->
<g id="edge16_Node000012_Node000011" class="edge">
<title>Node12&#45;&gt;Node11</title>
<g id="a_edge16_Node000012_Node000011"><a xlink:title=" ">
<path fill="none" stroke="#63b8ff" d="M125.25,-164.98C133.44,-157.23 145.75,-145.58 155.72,-136.14"/>
<polygon fill="#63b8ff" stroke="#63b8ff" points="158.23,-138.59 163.09,-129.17 153.42,-133.5 158.23,-138.59"/>
</a>
</g>
</g>
<!-- Node13&#45;&gt;Node2 -->
<g id="edge26_Node000013_Node000002" class="edge">
<title>Node13&#45;&gt;Node2</title>
<g id="a_edge26_Node000013_Node000002"><a xlink:title=" ">
<path fill="none" stroke="#63b8ff" d="M610.5,-169.28C561.09,-163.59 477.78,-151.47 409.25,-129 390.93,-122.99 388.38,-116.55 370.25,-110 329.28,-95.2 281.37,-83.71 245,-76.11"/>
<polygon fill="#63b8ff" stroke="#63b8ff" points="245.56,-72.66 235.06,-74.08 244.15,-79.51 245.56,-72.66"/>
</a>
</g>
</g>
<!-- Node13&#45;&gt;Node5 -->
<g id="edge22_Node000013_Node000005" class="edge">
<title>Node13&#45;&gt;Node5</title>
<g id="a_edge22_Node000013_Node000005"><a xlink:title=" ">
<path fill="none" stroke="#63b8ff" d="M677.8,-164.82C705.78,-153.59 745.43,-132.74 727.25,-110 677.72,-48.05 431.55,-21.9 330.08,-13.64"/>
<polygon fill="#63b8ff" stroke="#63b8ff" points="330.11,-10.13 319.87,-12.83 329.56,-17.11 330.11,-10.13"/>
</a>
</g>
</g>
<!-- Node13&#45;&gt;Node7 -->
<g id="edge21_Node000013_Node000007" class="edge">
<title>Node13&#45;&gt;Node7</title>
<g id="a_edge21_Node000013_Node000007"><a xlink:title=" ">
<path fill="none" stroke="#63b8ff" d="M694.7,-164.98C744.89,-154.67 828.56,-137.49 875.86,-127.77"/>
<polygon fill="#63b8ff" stroke="#63b8ff" points="876.84,-131.14 885.93,-125.7 875.43,-124.28 876.84,-131.14"/>
</a>
</g>
</g>
<!-- Node13&#45;&gt;Node8 -->
<g id="edge27_Node000013_Node000008" class="edge">
<title>Node13&#45;&gt;Node8</title>
<g id="a_edge27_Node000013_Node000008"><a xlink:title=" ">
<path fill="none" stroke="#63b8ff" d="M696.09,-168.56C751.3,-161.84 850.4,-148.6 944.05,-129.04"/>
<polygon fill="#63b8ff" stroke="#63b8ff" points="944.92,-132.44 953.97,-126.94 943.47,-125.59 944.92,-132.44"/>
</a>
</g>
</g>
<!-- Node14 -->
<g id="Node000014" class="node">
<title>Node14</title>
<g id="a_Node000014"><a xlink:title=" ">
<polygon fill="#e0e0e0" stroke="#999999" points="482.25,-129 418.25,-129 418.25,-110 482.25,-110 482.25,-129"/>
<text text-anchor="middle" x="450.25" y="-117" font-family="Helvetica,sans-Serif" font-size="10.00">algorithm</text>
</a>
</g>
</g>
<!-- Node13&#45;&gt;Node14 -->
<g id="edge19_Node000013_Node000014" class="edge">
<title>Node13&#45;&gt;Node14</title>
<g id="a_edge19_Node000013_Node000014"><a xlink:title=" ">
<path fill="none" stroke="#63b8ff" d="M620.63,-164.98C585.76,-155.88 530.33,-141.41 492.22,-131.46"/>
<polygon fill="#63b8ff" stroke="#63b8ff" points="493.01,-128.05 482.45,-128.91 491.24,-134.82 493.01,-128.05"/>
</a>
</g>
</g>
<!-- Node15 -->
<g id="Node000015" class="node">
<title>Node15</title>
<g id="a_Node000015"><a xlink:title=" ">
<polygon fill="#e0e0e0" stroke="#999999" points="549.75,-129 500.75,-129 500.75,-110 549.75,-110 549.75,-129"/>
<text text-anchor="middle" x="525.25" y="-117" font-family="Helvetica,sans-Serif" font-size="10.00">cctype</text>
</a>
</g>
</g>
<!-- Node13&#45;&gt;Node15 -->
<g id="edge20_Node000013_Node000015" class="edge">
<title>Node13&#45;&gt;Node15</title>
<g id="a_edge20_Node000013_Node000015"><a xlink:title=" ">
<path fill="none" stroke="#63b8ff" d="M632.68,-164.98C611.81,-156.34 579.28,-142.87 555.48,-133.02"/>
<polygon fill="#63b8ff" stroke="#63b8ff" points="556.77,-129.76 546.19,-129.17 554.09,-136.23 556.77,-129.76"/>
</a>
</g>
</g>
<!-- Node16 -->
<g id="Node000016" class="node">
<title>Node16</title>
<g id="a_Node000016"><a xlink:title=" ">
<polygon fill="#e0e0e0" stroke="#999999" points="654.25,-129 568.25,-129 568.25,-110 654.25,-110 654.25,-129"/>
<text text-anchor="middle" x="611.25" y="-117" font-family="Helvetica,sans-Serif" font-size="10.00">fmt/ostream.h</text>
</a>
</g>
</g>
<!-- Node13&#45;&gt;Node16 -->
<g id="edge23_Node000013_Node000016" class="edge">
<title>Node13&#45;&gt;Node16</title>
<g id="a_edge23_Node000013_Node000016"><a xlink:title=" ">
<path fill="none" stroke="#63b8ff" d="M646.31,-164.75C640.38,-157.26 631.68,-146.28 624.43,-137.13"/>
<polygon fill="#63b8ff" stroke="#63b8ff" points="627.01,-134.75 618.06,-129.09 621.52,-139.1 627.01,-134.75"/>
</a>
</g>
</g>
<!-- Node17 -->
<g id="Node000017" class="node">
<title>Node17</title>
<g id="a_Node000017"><a xlink:title=" ">
<polygon fill="#e0e0e0" stroke="#999999" points="718.25,-129 672.25,-129 672.25,-110 718.25,-110 718.25,-129"/>
<text text-anchor="middle" x="695.25" y="-117" font-family="Helvetica,sans-Serif" font-size="10.00">locale</text>
</a>
</g>
</g>
<!-- Node13&#45;&gt;Node17 -->
<g id="edge24_Node000013_Node000017" class="edge">
<title>Node13&#45;&gt;Node17</title>
<g id="a_edge24_Node000013_Node000017"><a xlink:title=" ">
<path fill="none" stroke="#63b8ff" d="M660.18,-164.75C666.12,-157.26 674.82,-146.28 682.07,-137.13"/>
<polygon fill="#63b8ff" stroke="#63b8ff" points="684.98,-139.1 688.44,-129.09 679.49,-134.75 684.98,-139.1"/>
</a>
</g>
</g>
<!-- Node18 -->
<g id="Node000018" class="node">
<title>Node18</title>
<g id="a_Node000018"><a xlink:title=" ">
<polygon fill="#e0e0e0" stroke="#999999" points="830.25,-129 774.25,-129 774.25,-110 830.25,-110 830.25,-129"/>
<text text-anchor="middle" x="802.25" y="-117" font-family="Helvetica,sans-Serif" font-size="10.00">numeric</text>
</a>
</g>
</g>
<!-- Node13&#45;&gt;Node18 -->
<g id="edge25_Node000013_Node000018" class="edge">
<title>Node13&#45;&gt;Node18</title>
<g id="a_edge25_Node000013_Node000018"><a xlink:title=" ">
<path fill="none" stroke="#63b8ff" d="M677.19,-164.98C701.81,-156.23 740.37,-142.51 768.17,-132.62"/>
<polygon fill="#63b8ff" stroke="#63b8ff" points="769.63,-135.82 777.87,-129.17 767.28,-129.22 769.63,-135.82"/>
</a>
</g>
</g>
<!-- Node13&#45;&gt;Node19 -->
<g id="edge28_Node000013_Node000019" class="edge">
<title>Node13&#45;&gt;Node19</title>
<g id="a_edge28_Node000013_Node000019"><a xlink:title=" ">
<path fill="none" stroke="#63b8ff" d="M610.4,-167.44C555.85,-159.54 458.76,-144.84 376.25,-129 374.8,-128.72 373.32,-128.43 371.82,-128.12"/>
<polygon fill="#63b8ff" stroke="#63b8ff" points="372.43,-124.68 361.92,-126.03 370.98,-131.52 372.43,-124.68"/>
</a>
</g>
</g>
<!-- Node20&#45;&gt;Node2 -->
<g id="edge31_Node000020_Node000002" class="edge">
<title>Node20&#45;&gt;Node2</title>
<g id="a_edge31_Node000020_Node000002"><a xlink:title=" ">
<path fill="none" stroke="#63b8ff" d="M770.03,-219.91C771.58,-206.92 776.02,-182 788.25,-165 807.71,-137.93 862,-134.36 839.25,-110 801.02,-69.07 433.46,-64.82 268.13,-65.01"/>
<polygon fill="#63b8ff" stroke="#63b8ff" points="268.01,-61.51 258.01,-65.02 268.02,-68.51 268.01,-61.51"/>
</a>
</g>
</g>
<!-- Node20&#45;&gt;Node13 -->
<g id="edge32_Node000020_Node000013" class="edge">
<title>Node20&#45;&gt;Node13</title>
<g id="a_edge32_Node000020_Node000013"><a xlink:title=" ">
<path fill="none" stroke="#63b8ff" d="M750.61,-219.98C731.95,-211.46 703,-198.23 681.51,-188.41"/>
<polygon fill="#63b8ff" stroke="#63b8ff" points="682.78,-185.14 672.23,-184.17 679.87,-191.51 682.78,-185.14"/>
</a>
</g>
</g>
<!-- Node21 -->
<g id="Node000021" class="node">
<title>Node21</title>
<g id="a_Node000021"><a xlink:href="qm_2opmatrix_8h.html" target="_top" xlink:title=" ">
<polygon fill="white" stroke="#666666" points="905.25,-184 797.25,-184 797.25,-165 905.25,-165 905.25,-184"/>
<text text-anchor="middle" x="851.25" y="-172" font-family="Helvetica,sans-Serif" font-size="10.00">occ/qm/opmatrix.h</text>
</a>
</g>
</g>
<!-- Node20&#45;&gt;Node21 -->
<g id="edge33_Node000020_Node000021" class="edge">
<title>Node20&#45;&gt;Node21</title>
<g id="a_edge33_Node000020_Node000021"><a xlink:title=" ">
<path fill="none" stroke="#63b8ff" d="M777.31,-219.98C788.31,-211.69 807.74,-198.94 824.03,-189.22"/>
<polygon fill="#63b8ff" stroke="#63b8ff" points="825.81,-192.23 832.69,-184.17 822.28,-186.18 825.81,-192.23"/>
</a>
</g>
</g>
<!-- Node21&#45;&gt;Node20 -->
<g id="edge34_Node000021_Node000020" class="edge">
<title>Node21&#45;&gt;Node20</title>
<g id="a_edge34_Node000021_Node000020"><a xlink:title=" ">
<path fill="none" stroke="#63b8ff" d="M842.98,-184.17C831.98,-192.44 812.77,-205.04 796.62,-214.7"/>
<polygon fill="#63b8ff" stroke="#63b8ff" points="794.42,-211.93 787.54,-219.98 797.94,-217.97 794.42,-211.93"/>
</a>
</g>
</g>
</g>
</svg>
