<?xml version="1.0" encoding="UTF-8" standalone="no"?>
<!DOCTYPE svg PUBLIC "-//W3C//DTD SVG 1.1//EN"
 "http://www.w3.org/Graphics/SVG/1.1/DTD/svg11.dtd">
<!-- Generated by graphviz version 2.43.0 (0)
 -->
<!-- Title: /home/runner/work/occ/occ/include/occ/sht/sht.h Pages: 1 -->
<svg width="427pt" height="207pt"
 viewBox="0.00 0.00 427.00 207.00" xmlns="http://www.w3.org/2000/svg" xmlns:xlink="http://www.w3.org/1999/xlink">
<g id="graph0" class="graph" transform="scale(1 1) rotate(0) translate(4 203)">
<title>/home/runner/work/occ/occ/include/occ/sht/sht.h</title>
<!-- Node1 -->
<g id="node1" class="node">
<title>Node1</title>
<g id="a_node1"><a xlink:title=" ">
<polygon fill="#bfbfbf" stroke="black" points="130.5,-168.5 130.5,-198.5 269.5,-198.5 269.5,-168.5 130.5,-168.5"/>
<text text-anchor="start" x="138.5" y="-186.5" font-family="Helvetica,sans-Serif" font-size="10.00">/home/runner/work/occ</text>
<text text-anchor="middle" x="200" y="-175.5" font-family="Helvetica,sans-Serif" font-size="10.00">/occ/include/occ/sht/sht.h</text>
</a>
</g>
</g>
<!-- Node2 -->
<g id="node2" class="node">
<title>Node2</title>
<g id="a_node2"><a xlink:title=" ">
<polygon fill="none" stroke="#bfbfbf" points="0,-112.5 0,-131.5 132,-131.5 132,-112.5 0,-112.5"/>
<text text-anchor="middle" x="66" y="-119.5" font-family="Helvetica,sans-Serif" font-size="10.00">occ/3rdparty/pocketfft.h</text>
</a>
</g>
</g>
<!-- Node1&#45;&gt;Node2 -->
<g id="edge1" class="edge">
<title>Node1&#45;&gt;Node2</title>
<path fill="none" stroke="midnightblue" d="M168.24,-168.4C145.96,-158.51 116.41,-145.38 94.81,-135.79"/>
<polygon fill="midnightblue" stroke="midnightblue" points="96.06,-132.52 85.5,-131.66 93.22,-138.91 96.06,-132.52"/>
</g>
<!-- Node3 -->
<g id="node3" class="node">
<title>Node3</title>
<g id="a_node3"><a xlink:href="linear__algebra_8h.html" target="_top" xlink:title=" ">
<polygon fill="none" stroke="black" points="136.5,-56.5 136.5,-75.5 275.5,-75.5 275.5,-56.5 136.5,-56.5"/>
<text text-anchor="middle" x="206" y="-63.5" font-family="Helvetica,sans-Serif" font-size="10.00">occ/core/linear_algebra.h</text>
</a>
</g>
</g>
<!-- Node1&#45;&gt;Node3 -->
<g id="edge2" class="edge">
<title>Node1&#45;&gt;Node3</title>
<path fill="none" stroke="midnightblue" d="M190.91,-168.23C182.99,-154.03 173.58,-131.57 179,-112 181.79,-101.92 187.51,-91.83 192.97,-83.77"/>
<polygon fill="midnightblue" stroke="midnightblue" points="195.82,-85.79 198.85,-75.64 190.15,-81.69 195.82,-85.79"/>
</g>
<!-- Node7 -->
<g id="node7" class="node">
<title>Node7</title>
<g id="a_node7"><a xlink:href="timings_8h.html" target="_top" xlink:title=" ">
<polygon fill="none" stroke="black" points="312,-112.5 312,-131.5 418,-131.5 418,-112.5 312,-112.5"/>
<text text-anchor="middle" x="365" y="-119.5" font-family="Helvetica,sans-Serif" font-size="10.00">occ/core/timings.h</text>
</a>
</g>
</g>
<!-- Node1&#45;&gt;Node7 -->
<g id="edge6" class="edge">
<title>Node1&#45;&gt;Node7</title>
<path fill="none" stroke="midnightblue" d="M239.1,-168.4C267.16,-158.28 304.57,-144.79 331.31,-135.15"/>
<polygon fill="midnightblue" stroke="midnightblue" points="332.77,-138.34 340.99,-131.66 330.4,-131.76 332.77,-138.34"/>
</g>
<!-- Node10 -->
<g id="node10" class="node">
<title>Node10</title>
<g id="a_node10"><a xlink:href="legendre_8h.html" target="_top" xlink:title=" ">
<polygon fill="none" stroke="black" points="188,-112.5 188,-131.5 294,-131.5 294,-112.5 188,-112.5"/>
<text text-anchor="middle" x="241" y="-119.5" font-family="Helvetica,sans-Serif" font-size="10.00">occ/sht/legendre.h</text>
</a>
</g>
</g>
<!-- Node1&#45;&gt;Node10 -->
<g id="edge9" class="edge">
<title>Node1&#45;&gt;Node10</title>
<path fill="none" stroke="midnightblue" d="M209.72,-168.4C215.55,-159.93 223.02,-149.1 229.19,-140.14"/>
<polygon fill="midnightblue" stroke="midnightblue" points="232.24,-141.88 235.03,-131.66 226.48,-137.91 232.24,-141.88"/>
</g>
<!-- Node4 -->
<g id="node4" class="node">
<title>Node4</title>
<g id="a_node4"><a xlink:title=" ">
<polygon fill="none" stroke="#bfbfbf" points="64.5,-0.5 64.5,-19.5 141.5,-19.5 141.5,-0.5 64.5,-0.5"/>
<text text-anchor="middle" x="103" y="-7.5" font-family="Helvetica,sans-Serif" font-size="10.00">Eigen/Dense</text>
</a>
</g>
</g>
<!-- Node3&#45;&gt;Node4 -->
<g id="edge3" class="edge">
<title>Node3&#45;&gt;Node4</title>
<path fill="none" stroke="midnightblue" d="M189.45,-56.32C173.01,-47.7 147.57,-34.36 128.53,-24.39"/>
<polygon fill="midnightblue" stroke="midnightblue" points="129.99,-21.2 119.51,-19.65 126.74,-27.4 129.99,-21.2"/>
</g>
<!-- Node5 -->
<g id="node5" class="node">
<title>Node5</title>
<g id="a_node5"><a xlink:title=" ">
<polygon fill="none" stroke="#bfbfbf" points="159.5,-0.5 159.5,-19.5 252.5,-19.5 252.5,-0.5 159.5,-0.5"/>
<text text-anchor="middle" x="206" y="-7.5" font-family="Helvetica,sans-Serif" font-size="10.00">Eigen/StdVector</text>
</a>
</g>
</g>
<!-- Node3&#45;&gt;Node5 -->
<g id="edge4" class="edge">
<title>Node3&#45;&gt;Node5</title>
<path fill="none" stroke="midnightblue" d="M206,-56.08C206,-49.01 206,-38.86 206,-29.99"/>
<polygon fill="midnightblue" stroke="midnightblue" points="209.5,-29.75 206,-19.75 202.5,-29.75 209.5,-29.75"/>
</g>
<!-- Node6 -->
<g id="node6" class="node">
<title>Node6</title>
<g id="a_node6"><a xlink:title=" ">
<polygon fill="none" stroke="#bfbfbf" points="270.5,-0.5 270.5,-19.5 337.5,-19.5 337.5,-0.5 270.5,-0.5"/>
<text text-anchor="middle" x="304" y="-7.5" font-family="Helvetica,sans-Serif" font-size="10.00">fmt/core.h</text>
</a>
</g>
</g>
<!-- Node3&#45;&gt;Node6 -->
<g id="edge5" class="edge">
<title>Node3&#45;&gt;Node6</title>
<path fill="none" stroke="midnightblue" d="M221.75,-56.32C237.32,-47.74 261.38,-34.49 279.46,-24.52"/>
<polygon fill="midnightblue" stroke="midnightblue" points="281.22,-27.55 288.29,-19.65 277.85,-21.42 281.22,-27.55"/>
</g>
<!-- Node8 -->
<g id="node8" class="node">
<title>Node8</title>
<g id="a_node8"><a xlink:title=" ">
<polygon fill="none" stroke="#bfbfbf" points="307,-56.5 307,-75.5 357,-75.5 357,-56.5 307,-56.5"/>
<text text-anchor="middle" x="332" y="-63.5" font-family="Helvetica,sans-Serif" font-size="10.00">chrono</text>
</a>
</g>
</g>
<!-- Node7&#45;&gt;Node8 -->
<g id="edge7" class="edge">
<title>Node7&#45;&gt;Node8</title>
<path fill="none" stroke="midnightblue" d="M359.55,-112.08C354.99,-104.61 348.33,-93.72 342.71,-84.52"/>
<polygon fill="midnightblue" stroke="midnightblue" points="345.55,-82.46 337.35,-75.75 339.58,-86.11 345.55,-82.46"/>
</g>
<!-- Node9 -->
<g id="node9" class="node">
<title>Node9</title>
<g id="a_node9"><a xlink:title=" ">
<polygon fill="none" stroke="#bfbfbf" points="375,-56.5 375,-75.5 419,-75.5 419,-56.5 375,-56.5"/>
<text text-anchor="middle" x="397" y="-63.5" font-family="Helvetica,sans-Serif" font-size="10.00">string</text>
</a>
</g>
</g>
<!-- Node7&#45;&gt;Node9 -->
<g id="edge8" class="edge">
<title>Node7&#45;&gt;Node9</title>
<path fill="none" stroke="midnightblue" d="M370.28,-112.08C374.71,-104.61 381.16,-93.72 386.62,-84.52"/>
<polygon fill="midnightblue" stroke="midnightblue" points="389.73,-86.14 391.81,-75.75 383.71,-82.57 389.73,-86.14"/>
</g>
<!-- Node10&#45;&gt;Node3 -->
<g id="edge10" class="edge">
<title>Node10&#45;&gt;Node3</title>
<path fill="none" stroke="midnightblue" d="M235.22,-112.08C230.33,-104.53 223.17,-93.49 217.17,-84.23"/>
<polygon fill="midnightblue" stroke="midnightblue" points="220.05,-82.24 211.67,-75.75 214.17,-86.05 220.05,-82.24"/>
</g>
</g>
</svg>
