<?xml version="1.0" encoding="UTF-8" standalone="no"?>
<!DOCTYPE svg PUBLIC "-//W3C//DTD SVG 1.1//EN"
 "http://www.w3.org/Graphics/SVG/1.1/DTD/svg11.dtd">
<!-- Generated by graphviz version 2.43.0 (0)
 -->
<!-- Title: /home/runner/work/occ/occ/include/occ/main/single_point.h Pages: 1 -->
<svg width="1566pt" height="464pt"
 viewBox="0.00 0.00 1566.37 464.00" xmlns="http://www.w3.org/2000/svg" xmlns:xlink="http://www.w3.org/1999/xlink">
<g id="graph0" class="graph" transform="scale(1 1) rotate(0) translate(4 460)">
<title>/home/runner/work/occ/occ/include/occ/main/single_point.h</title>
<!-- Node1 -->
<g id="node1" class="node">
<title>Node1</title>
<g id="a_node1"><a xlink:title=" ">
<polygon fill="#bfbfbf" stroke="black" points="1219,-414.5 1219,-455.5 1347,-455.5 1347,-414.5 1219,-414.5"/>
<text text-anchor="start" x="1227" y="-443.5" font-family="Helvetica,sans-Serif" font-size="10.00">/home/runner/work/occ</text>
<text text-anchor="start" x="1227" y="-432.5" font-family="Helvetica,sans-Serif" font-size="10.00">/occ/include/occ/main</text>
<text text-anchor="middle" x="1283" y="-421.5" font-family="Helvetica,sans-Serif" font-size="10.00">/single_point.h</text>
</a>
</g>
</g>
<!-- Node2 -->
<g id="node2" class="node">
<title>Node2</title>
<g id="a_node2"><a xlink:href="occ__input_8h.html" target="_top" xlink:title=" ">
<polygon fill="none" stroke="black" points="1311,-302.5 1311,-321.5 1415,-321.5 1415,-302.5 1311,-302.5"/>
<text text-anchor="middle" x="1363" y="-309.5" font-family="Helvetica,sans-Serif" font-size="10.00">occ/io/occ_input.h</text>
</a>
</g>
</g>
<!-- Node1&#45;&gt;Node2 -->
<g id="edge1" class="edge">
<title>Node1&#45;&gt;Node2</title>
<path fill="none" stroke="midnightblue" d="M1296.03,-414.29C1311.53,-390.85 1337.13,-352.13 1351.78,-329.96"/>
<polygon fill="midnightblue" stroke="midnightblue" points="1354.74,-331.85 1357.33,-321.57 1348.9,-327.99 1354.74,-331.85"/>
</g>
<!-- Node17 -->
<g id="node17" class="node">
<title>Node17</title>
<g id="a_node17"><a xlink:href="wavefunction_8h.html" target="_top" xlink:title=" ">
<polygon fill="none" stroke="black" points="746,-358.5 746,-377.5 876,-377.5 876,-358.5 746,-358.5"/>
<text text-anchor="middle" x="811" y="-365.5" font-family="Helvetica,sans-Serif" font-size="10.00">occ/qm/wavefunction.h</text>
</a>
</g>
</g>
<!-- Node1&#45;&gt;Node17 -->
<g id="edge22" class="edge">
<title>Node1&#45;&gt;Node17</title>
<path fill="none" stroke="midnightblue" d="M1218.85,-425.17C1131.15,-413.09 974.28,-391.49 882.77,-378.88"/>
<polygon fill="midnightblue" stroke="midnightblue" points="883.14,-375.4 872.76,-377.5 882.18,-382.34 883.14,-375.4"/>
</g>
<!-- Node34 -->
<g id="node34" class="node">
<title>Node34</title>
<g id="a_node34"><a xlink:title=" ">
<polygon fill="none" stroke="#bfbfbf" points="1267,-241 1267,-260 1323,-260 1323,-241 1267,-241"/>
<text text-anchor="middle" x="1295" y="-248" font-family="Helvetica,sans-Serif" font-size="10.00">optional</text>
</a>
</g>
</g>
<!-- Node1&#45;&gt;Node34 -->
<g id="edge82" class="edge">
<title>Node1&#45;&gt;Node34</title>
<path fill="none" stroke="midnightblue" d="M1284.28,-414.47C1286.61,-379.11 1291.49,-304.94 1293.77,-270.2"/>
<polygon fill="midnightblue" stroke="midnightblue" points="1297.27,-270.25 1294.44,-260.04 1290.29,-269.79 1297.27,-270.25"/>
</g>
<!-- Node3 -->
<g id="node3" class="node">
<title>Node3</title>
<g id="a_node3"><a xlink:title=" ">
<polygon fill="none" stroke="#bfbfbf" points="1163,-123.5 1163,-142.5 1205,-142.5 1205,-123.5 1163,-123.5"/>
<text text-anchor="middle" x="1184" y="-130.5" font-family="Helvetica,sans-Serif" font-size="10.00">array</text>
</a>
</g>
</g>
<!-- Node2&#45;&gt;Node3 -->
<g id="edge2" class="edge">
<title>Node2&#45;&gt;Node3</title>
<path fill="none" stroke="midnightblue" d="M1415.08,-304.83C1461.61,-298.12 1524.72,-285.65 1540,-266 1548.46,-255.12 1543.97,-248.19 1540,-235 1531.41,-206.43 1528.22,-194.93 1503,-179 1455.44,-148.95 1285.64,-138.34 1215.08,-135.17"/>
<polygon fill="midnightblue" stroke="midnightblue" points="1215.17,-131.67 1205.03,-134.74 1214.87,-138.67 1215.17,-131.67"/>
</g>
<!-- Node4 -->
<g id="node4" class="node">
<title>Node4</title>
<g id="a_node4"><a xlink:title=" ">
<polygon fill="none" stroke="#bfbfbf" points="909,-241 909,-260 963,-260 963,-241 909,-241"/>
<text text-anchor="middle" x="936" y="-248" font-family="Helvetica,sans-Serif" font-size="10.00">istream</text>
</a>
</g>
</g>
<!-- Node2&#45;&gt;Node4 -->
<g id="edge3" class="edge">
<title>Node2&#45;&gt;Node4</title>
<path fill="none" stroke="midnightblue" d="M1310.64,-303.7C1223.12,-291.51 1049.22,-267.28 973.11,-256.67"/>
<polygon fill="midnightblue" stroke="midnightblue" points="973.43,-253.18 963.04,-255.27 972.47,-260.12 973.43,-253.18"/>
</g>
<!-- Node5 -->
<g id="node5" class="node">
<title>Node5</title>
<g id="a_node5"><a xlink:href="element_8h.html" target="_top" xlink:title=" ">
<polygon fill="none" stroke="black" points="782,-179.5 782,-198.5 892,-198.5 892,-179.5 782,-179.5"/>
<text text-anchor="middle" x="837" y="-186.5" font-family="Helvetica,sans-Serif" font-size="10.00">occ/core/element.h</text>
</a>
</g>
</g>
<!-- Node2&#45;&gt;Node5 -->
<g id="edge4" class="edge">
<title>Node2&#45;&gt;Node5</title>
<path fill="none" stroke="midnightblue" d="M1366.63,-302.37C1372.58,-286.71 1382.12,-253.51 1365,-235 1330.27,-197.44 956.88,-204.31 906,-199 904.89,-198.88 903.77,-198.76 902.64,-198.64"/>
<polygon fill="midnightblue" stroke="midnightblue" points="902.66,-195.12 892.33,-197.47 901.87,-202.08 902.66,-195.12"/>
</g>
<!-- Node7 -->
<g id="node7" class="node">
<title>Node7</title>
<g id="a_node7"><a xlink:title=" ">
<polygon fill="none" stroke="#bfbfbf" points="619.5,-123.5 619.5,-142.5 666.5,-142.5 666.5,-123.5 619.5,-123.5"/>
<text text-anchor="middle" x="643" y="-130.5" font-family="Helvetica,sans-Serif" font-size="10.00">vector</text>
</a>
</g>
</g>
<!-- Node2&#45;&gt;Node7 -->
<g id="edge21" class="edge">
<title>Node2&#45;&gt;Node7</title>
<path fill="none" stroke="midnightblue" d="M1362.32,-302.12C1360.54,-285.74 1354.21,-250.98 1332,-235 1230.97,-162.28 892.43,-234.08 773,-199 755.44,-193.84 753.26,-187.4 737,-179 715.1,-167.69 689.88,-155.67 671.08,-146.9"/>
<polygon fill="midnightblue" stroke="midnightblue" points="672.44,-143.67 661.89,-142.63 669.49,-150.02 672.44,-143.67"/>
</g>
<!-- Node8 -->
<g id="node8" class="node">
<title>Node8</title>
<g id="a_node8"><a xlink:href="molecule_8h.html" target="_top" xlink:title=" ">
<polygon fill="none" stroke="black" points="1417,-241 1417,-260 1531,-260 1531,-241 1417,-241"/>
<text text-anchor="middle" x="1474" y="-248" font-family="Helvetica,sans-Serif" font-size="10.00">occ/core/molecule.h</text>
</a>
</g>
</g>
<!-- Node2&#45;&gt;Node8 -->
<g id="edge7" class="edge">
<title>Node2&#45;&gt;Node8</title>
<path fill="none" stroke="midnightblue" d="M1378.9,-302.48C1397.28,-292.62 1427.76,-276.29 1449.24,-264.77"/>
<polygon fill="midnightblue" stroke="midnightblue" points="1450.97,-267.82 1458.13,-260.01 1447.66,-261.65 1450.97,-267.82"/>
</g>
<!-- Node15 -->
<g id="node15" class="node">
<title>Node15</title>
<g id="a_node15"><a xlink:href="spinorbital_8h.html" target="_top" xlink:title=" ">
<polygon fill="none" stroke="black" points="1095,-241 1095,-260 1211,-260 1211,-241 1095,-241"/>
<text text-anchor="middle" x="1153" y="-248" font-family="Helvetica,sans-Serif" font-size="10.00">occ/qm/spinorbital.h</text>
</a>
</g>
</g>
<!-- Node2&#45;&gt;Node15 -->
<g id="edge17" class="edge">
<title>Node2&#45;&gt;Node15</title>
<path fill="none" stroke="midnightblue" d="M1332.91,-302.48C1296.11,-292.05 1233.69,-274.36 1192.91,-262.81"/>
<polygon fill="midnightblue" stroke="midnightblue" points="1193.61,-259.37 1183.03,-260.01 1191.7,-266.1 1193.61,-259.37"/>
</g>
<!-- Node6 -->
<g id="node6" class="node">
<title>Node6</title>
<g id="a_node6"><a xlink:title=" ">
<polygon fill="none" stroke="#bfbfbf" points="691,-123.5 691,-142.5 735,-142.5 735,-123.5 691,-123.5"/>
<text text-anchor="middle" x="713" y="-130.5" font-family="Helvetica,sans-Serif" font-size="10.00">string</text>
</a>
</g>
</g>
<!-- Node5&#45;&gt;Node6 -->
<g id="edge5" class="edge">
<title>Node5&#45;&gt;Node6</title>
<path fill="none" stroke="midnightblue" d="M817.35,-179.44C797.04,-170.6 765.1,-156.69 741.9,-146.59"/>
<polygon fill="midnightblue" stroke="midnightblue" points="743.12,-143.3 732.56,-142.52 740.33,-149.72 743.12,-143.3"/>
</g>
<!-- Node5&#45;&gt;Node7 -->
<g id="edge6" class="edge">
<title>Node5&#45;&gt;Node7</title>
<path fill="none" stroke="midnightblue" d="M806.26,-179.44C770.81,-169.58 712.74,-153.41 676.26,-143.26"/>
<polygon fill="midnightblue" stroke="midnightblue" points="677.15,-139.87 666.58,-140.56 675.27,-146.62 677.15,-139.87"/>
</g>
<!-- Node8&#45;&gt;Node3 -->
<g id="edge8" class="edge">
<title>Node8&#45;&gt;Node3</title>
<path fill="none" stroke="midnightblue" d="M1458.26,-240.87C1432.02,-226.69 1377.41,-198.15 1329,-179 1290.63,-163.82 1244.97,-150.38 1215.28,-142.23"/>
<polygon fill="midnightblue" stroke="midnightblue" points="1216.05,-138.81 1205.48,-139.57 1214.22,-145.56 1216.05,-138.81"/>
</g>
<!-- Node8&#45;&gt;Node5 -->
<g id="edge14" class="edge">
<title>Node8&#45;&gt;Node5</title>
<path fill="none" stroke="midnightblue" d="M1436.94,-240.99C1426.05,-238.75 1414.09,-236.53 1403,-235 1183.6,-204.78 1126.34,-221.33 906,-199 904.89,-198.89 903.77,-198.77 902.64,-198.65"/>
<polygon fill="midnightblue" stroke="midnightblue" points="902.66,-195.13 892.33,-197.5 901.88,-202.09 902.66,-195.13"/>
</g>
<!-- Node9 -->
<g id="node9" class="node">
<title>Node9</title>
<g id="a_node9"><a xlink:href="atom_8h.html" target="_top" xlink:title=" ">
<polygon fill="none" stroke="black" points="872.5,-123.5 872.5,-142.5 967.5,-142.5 967.5,-123.5 872.5,-123.5"/>
<text text-anchor="middle" x="920" y="-130.5" font-family="Helvetica,sans-Serif" font-size="10.00">occ/core/atom.h</text>
</a>
</g>
</g>
<!-- Node8&#45;&gt;Node9 -->
<g id="edge9" class="edge">
<title>Node8&#45;&gt;Node9</title>
<path fill="none" stroke="midnightblue" d="M1424.98,-240.98C1411.41,-238.81 1396.66,-236.64 1383,-235 1333.86,-229.1 977.37,-230.26 939,-199 925.49,-187.99 921.26,-167.94 920.08,-153.01"/>
<polygon fill="midnightblue" stroke="midnightblue" points="923.57,-152.68 919.68,-142.82 916.58,-152.95 923.57,-152.68"/>
</g>
<!-- Node10 -->
<g id="node10" class="node">
<title>Node10</title>
<g id="a_node10"><a xlink:href="linear__algebra_8h.html" target="_top" xlink:title=" ">
<polygon fill="none" stroke="black" points="944.5,-67.5 944.5,-86.5 1083.5,-86.5 1083.5,-67.5 944.5,-67.5"/>
<text text-anchor="middle" x="1014" y="-74.5" font-family="Helvetica,sans-Serif" font-size="10.00">occ/core/linear_algebra.h</text>
</a>
</g>
</g>
<!-- Node8&#45;&gt;Node10 -->
<g id="edge15" class="edge">
<title>Node8&#45;&gt;Node10</title>
<path fill="none" stroke="midnightblue" d="M1482.38,-240.72C1494.15,-227.29 1513.04,-200.9 1503,-179 1487.11,-144.34 1472.99,-138.15 1438,-123 1378.09,-97.07 1199.47,-85.51 1094.15,-80.83"/>
<polygon fill="midnightblue" stroke="midnightblue" points="1094.02,-77.32 1083.88,-80.38 1093.72,-84.31 1094.02,-77.32"/>
</g>
<!-- Node14 -->
<g id="node14" class="node">
<title>Node14</title>
<g id="a_node14"><a xlink:title=" ">
<polygon fill="none" stroke="#bfbfbf" points="1452.5,-179.5 1452.5,-198.5 1493.5,-198.5 1493.5,-179.5 1452.5,-179.5"/>
<text text-anchor="middle" x="1473" y="-186.5" font-family="Helvetica,sans-Serif" font-size="10.00">tuple</text>
</a>
</g>
</g>
<!-- Node8&#45;&gt;Node14 -->
<g id="edge16" class="edge">
<title>Node8&#45;&gt;Node14</title>
<path fill="none" stroke="midnightblue" d="M1473.86,-240.98C1473.72,-232.58 1473.5,-219.48 1473.31,-208.66"/>
<polygon fill="midnightblue" stroke="midnightblue" points="1476.81,-208.45 1473.14,-198.51 1469.81,-208.57 1476.81,-208.45"/>
</g>
<!-- Node9&#45;&gt;Node10 -->
<g id="edge10" class="edge">
<title>Node9&#45;&gt;Node10</title>
<path fill="none" stroke="midnightblue" d="M935.1,-123.32C949.9,-114.82 972.69,-101.73 989.98,-91.8"/>
<polygon fill="midnightblue" stroke="midnightblue" points="992.01,-94.67 998.93,-86.65 988.52,-88.6 992.01,-94.67"/>
</g>
<!-- Node11 -->
<g id="node11" class="node">
<title>Node11</title>
<g id="a_node11"><a xlink:title=" ">
<polygon fill="none" stroke="#bfbfbf" points="872.5,-6 872.5,-25 949.5,-25 949.5,-6 872.5,-6"/>
<text text-anchor="middle" x="911" y="-13" font-family="Helvetica,sans-Serif" font-size="10.00">Eigen/Dense</text>
</a>
</g>
</g>
<!-- Node10&#45;&gt;Node11 -->
<g id="edge11" class="edge">
<title>Node10&#45;&gt;Node11</title>
<path fill="none" stroke="midnightblue" d="M999.24,-67.48C982.34,-57.71 954.42,-41.58 934.51,-30.08"/>
<polygon fill="midnightblue" stroke="midnightblue" points="936.14,-26.98 925.73,-25.01 932.64,-33.04 936.14,-26.98"/>
</g>
<!-- Node12 -->
<g id="node12" class="node">
<title>Node12</title>
<g id="a_node12"><a xlink:title=" ">
<polygon fill="none" stroke="#bfbfbf" points="967.5,-6 967.5,-25 1060.5,-25 1060.5,-6 967.5,-6"/>
<text text-anchor="middle" x="1014" y="-13" font-family="Helvetica,sans-Serif" font-size="10.00">Eigen/StdVector</text>
</a>
</g>
</g>
<!-- Node10&#45;&gt;Node12 -->
<g id="edge12" class="edge">
<title>Node10&#45;&gt;Node12</title>
<path fill="none" stroke="midnightblue" d="M1014,-67.48C1014,-59.08 1014,-45.98 1014,-35.16"/>
<polygon fill="midnightblue" stroke="midnightblue" points="1017.5,-35.01 1014,-25.01 1010.5,-35.01 1017.5,-35.01"/>
</g>
<!-- Node13 -->
<g id="node13" class="node">
<title>Node13</title>
<g id="a_node13"><a xlink:title=" ">
<polygon fill="none" stroke="#bfbfbf" points="1078.5,-0.5 1078.5,-30.5 1185.5,-30.5 1185.5,-0.5 1078.5,-0.5"/>
<text text-anchor="start" x="1086.5" y="-18.5" font-family="Helvetica,sans-Serif" font-size="10.00">occ/3rdparty/eigen</text>
<text text-anchor="middle" x="1132" y="-7.5" font-family="Helvetica,sans-Serif" font-size="10.00">&#45;fmt/fmt.h</text>
</a>
</g>
</g>
<!-- Node10&#45;&gt;Node13 -->
<g id="edge13" class="edge">
<title>Node10&#45;&gt;Node13</title>
<path fill="none" stroke="midnightblue" d="M1030.91,-67.48C1047.56,-59.08 1073.55,-45.97 1095.01,-35.15"/>
<polygon fill="midnightblue" stroke="midnightblue" points="1096.84,-38.15 1104.19,-30.52 1093.68,-31.9 1096.84,-38.15"/>
</g>
<!-- Node15&#45;&gt;Node10 -->
<g id="edge18" class="edge">
<title>Node15&#45;&gt;Node10</title>
<path fill="none" stroke="midnightblue" d="M1191.77,-240.96C1241.01,-229.74 1320.61,-210.14 1329,-199 1334.35,-191.9 1333.71,-186.54 1329,-179 1301.9,-135.66 1160.17,-103.76 1076.34,-88.34"/>
<polygon fill="midnightblue" stroke="midnightblue" points="1076.88,-84.88 1066.42,-86.54 1075.63,-91.77 1076.88,-84.88"/>
</g>
<!-- Node16 -->
<g id="node16" class="node">
<title>Node16</title>
<g id="a_node16"><a xlink:href="qm_2opmatrix_8h.html" target="_top" xlink:title=" ">
<polygon fill="none" stroke="black" points="1212,-179.5 1212,-198.5 1320,-198.5 1320,-179.5 1212,-179.5"/>
<text text-anchor="middle" x="1266" y="-186.5" font-family="Helvetica,sans-Serif" font-size="10.00">occ/qm/opmatrix.h</text>
</a>
</g>
</g>
<!-- Node15&#45;&gt;Node16 -->
<g id="edge19" class="edge">
<title>Node15&#45;&gt;Node16</title>
<path fill="none" stroke="midnightblue" d="M1164.29,-240.98C1181,-231.03 1212.15,-214.49 1235.7,-202.96"/>
<polygon fill="midnightblue" stroke="midnightblue" points="1237.45,-206 1244.94,-198.51 1234.41,-199.7 1237.45,-206"/>
</g>
<!-- Node16&#45;&gt;Node15 -->
<g id="edge20" class="edge">
<title>Node16&#45;&gt;Node15</title>
<path fill="none" stroke="midnightblue" d="M1254.74,-198.51C1238.04,-208.44 1206.9,-224.98 1183.34,-236.52"/>
<polygon fill="midnightblue" stroke="midnightblue" points="1181.58,-233.48 1174.09,-240.98 1184.62,-239.79 1181.58,-233.48"/>
</g>
<!-- Node17&#45;&gt;Node10 -->
<g id="edge24" class="edge">
<title>Node17&#45;&gt;Node10</title>
<path fill="none" stroke="midnightblue" d="M745.66,-364.55C552.9,-356.44 0,-326.65 0,-251.5 0,-251.5 0,-251.5 0,-188 0,-147.46 26.99,-139.54 64,-123 142.33,-88 719.69,-80.17 934.12,-78.46"/>
<polygon fill="midnightblue" stroke="midnightblue" points="934.39,-81.96 944.36,-78.38 934.33,-74.96 934.39,-81.96"/>
</g>
<!-- Node17&#45;&gt;Node15 -->
<g id="edge81" class="edge">
<title>Node17&#45;&gt;Node15</title>
<path fill="none" stroke="midnightblue" d="M876.22,-361.15C945.73,-354.08 1050.56,-340.75 1086,-322 1109.71,-309.46 1129.79,-285.34 1141.62,-268.84"/>
<polygon fill="midnightblue" stroke="midnightblue" points="1144.81,-270.37 1147.59,-260.15 1139.04,-266.41 1144.81,-270.37"/>
</g>
<!-- Node18 -->
<g id="node18" class="node">
<title>Node18</title>
<g id="a_node18"><a xlink:title=" ">
<polygon fill="none" stroke="#bfbfbf" points="534.5,-123.5 534.5,-142.5 601.5,-142.5 601.5,-123.5 534.5,-123.5"/>
<text text-anchor="middle" x="568" y="-130.5" font-family="Helvetica,sans-Serif" font-size="10.00">fmt/core.h</text>
</a>
</g>
</g>
<!-- Node17&#45;&gt;Node18 -->
<g id="edge23" class="edge">
<title>Node17&#45;&gt;Node18</title>
<path fill="none" stroke="midnightblue" d="M745.94,-367.8C666.16,-366.94 527.76,-359.41 416,-322 369.52,-306.44 345.31,-308.56 321,-266 300.85,-230.73 316.78,-203.74 349,-179 352.5,-176.31 461.56,-154.73 524.43,-142.46"/>
<polygon fill="midnightblue" stroke="midnightblue" points="525.33,-145.85 534.47,-140.5 523.99,-138.98 525.33,-145.85"/>
</g>
<!-- Node19 -->
<g id="node19" class="node">
<title>Node19</title>
<g id="a_node19"><a xlink:href="fchkreader_8h.html" target="_top" xlink:title=" ">
<polygon fill="none" stroke="black" points="588.5,-302.5 588.5,-321.5 697.5,-321.5 697.5,-302.5 588.5,-302.5"/>
<text text-anchor="middle" x="643" y="-309.5" font-family="Helvetica,sans-Serif" font-size="10.00">occ/io/fchkreader.h</text>
</a>
</g>
</g>
<!-- Node17&#45;&gt;Node19 -->
<g id="edge25" class="edge">
<title>Node17&#45;&gt;Node19</title>
<path fill="none" stroke="midnightblue" d="M784.38,-358.44C755.99,-349.32 710.86,-334.81 679.25,-324.65"/>
<polygon fill="midnightblue" stroke="midnightblue" points="680.09,-321.24 669.5,-321.52 677.94,-327.91 680.09,-321.24"/>
</g>
<!-- Node21 -->
<g id="node21" class="node">
<title>Node21</title>
<g id="a_node21"><a xlink:href="shell_8h.html" target="_top" xlink:title=" ">
<polygon fill="none" stroke="black" points="599.5,-241 599.5,-260 686.5,-260 686.5,-241 599.5,-241"/>
<text text-anchor="middle" x="643" y="-248" font-family="Helvetica,sans-Serif" font-size="10.00">occ/qm/shell.h</text>
</a>
</g>
</g>
<!-- Node17&#45;&gt;Node21 -->
<g id="edge80" class="edge">
<title>Node17&#45;&gt;Node21</title>
<path fill="none" stroke="midnightblue" d="M798.37,-358.32C769.79,-338.67 699.89,-290.61 664.41,-266.22"/>
<polygon fill="midnightblue" stroke="midnightblue" points="666,-263.06 655.77,-260.28 662.03,-268.83 666,-263.06"/>
</g>
<!-- Node30 -->
<g id="node30" class="node">
<title>Node30</title>
<g id="a_node30"><a xlink:href="fchkwriter_8h.html" target="_top" xlink:title=" ">
<polygon fill="none" stroke="black" points="798,-302.5 798,-321.5 904,-321.5 904,-302.5 798,-302.5"/>
<text text-anchor="middle" x="851" y="-309.5" font-family="Helvetica,sans-Serif" font-size="10.00">occ/io/fchkwriter.h</text>
</a>
</g>
</g>
<!-- Node17&#45;&gt;Node30 -->
<g id="edge51" class="edge">
<title>Node17&#45;&gt;Node30</title>
<path fill="none" stroke="midnightblue" d="M817.61,-358.08C823.26,-350.46 831.54,-339.26 838.45,-329.94"/>
<polygon fill="midnightblue" stroke="midnightblue" points="841.38,-331.87 844.52,-321.75 835.75,-327.7 841.38,-331.87"/>
</g>
<!-- Node33 -->
<g id="node33" class="node">
<title>Node33</title>
<g id="a_node33"><a xlink:href="moldenreader_8h.html" target="_top" xlink:title=" ">
<polygon fill="none" stroke="black" points="951.5,-302.5 951.5,-321.5 1076.5,-321.5 1076.5,-302.5 951.5,-302.5"/>
<text text-anchor="middle" x="1014" y="-309.5" font-family="Helvetica,sans-Serif" font-size="10.00">occ/io/moldenreader.h</text>
</a>
</g>
</g>
<!-- Node17&#45;&gt;Node33 -->
<g id="edge61" class="edge">
<title>Node17&#45;&gt;Node33</title>
<path fill="none" stroke="midnightblue" d="M843.17,-358.44C878.06,-349.16 933.89,-334.31 972.17,-324.13"/>
<polygon fill="midnightblue" stroke="midnightblue" points="973.22,-327.47 981.98,-321.52 971.42,-320.7 973.22,-327.47"/>
</g>
<!-- Node35 -->
<g id="node35" class="node">
<title>Node35</title>
<g id="a_node35"><a xlink:href="orca__json_8h.html" target="_top" xlink:title=" ">
<polygon fill="none" stroke="black" points="425,-302.5 425,-321.5 529,-321.5 529,-302.5 425,-302.5"/>
<text text-anchor="middle" x="477" y="-309.5" font-family="Helvetica,sans-Serif" font-size="10.00">occ/io/orca_json.h</text>
</a>
</g>
</g>
<!-- Node17&#45;&gt;Node35 -->
<g id="edge69" class="edge">
<title>Node17&#45;&gt;Node35</title>
<path fill="none" stroke="midnightblue" d="M758.08,-358.44C698.66,-348.84 602.34,-333.26 539.33,-323.08"/>
<polygon fill="midnightblue" stroke="midnightblue" points="539.56,-319.57 529.13,-321.43 538.44,-326.48 539.56,-319.57"/>
</g>
<!-- Node36 -->
<g id="node36" class="node">
<title>Node36</title>
<g id="a_node36"><a xlink:href="mo_8h.html" target="_top" xlink:title=" ">
<polygon fill="none" stroke="black" points="1133,-302.5 1133,-321.5 1213,-321.5 1213,-302.5 1133,-302.5"/>
<text text-anchor="middle" x="1173" y="-309.5" font-family="Helvetica,sans-Serif" font-size="10.00">occ/qm/mo.h</text>
</a>
</g>
</g>
<!-- Node17&#45;&gt;Node36 -->
<g id="edge78" class="edge">
<title>Node17&#45;&gt;Node36</title>
<path fill="none" stroke="midnightblue" d="M871.83,-358.48C934,-349.69 1033.31,-335.4 1119,-322 1120.27,-321.8 1121.55,-321.6 1122.85,-321.39"/>
<polygon fill="midnightblue" stroke="midnightblue" points="1123.59,-324.82 1132.91,-319.77 1122.48,-317.91 1123.59,-324.82"/>
</g>
<!-- Node19&#45;&gt;Node4 -->
<g id="edge27" class="edge">
<title>Node19&#45;&gt;Node4</title>
<path fill="none" stroke="midnightblue" d="M697.65,-304.81C750.19,-298.07 831.51,-285.56 900,-266 902.44,-265.3 904.94,-264.5 907.43,-263.63"/>
<polygon fill="midnightblue" stroke="midnightblue" points="908.71,-266.89 916.83,-260.09 906.24,-260.34 908.71,-266.89"/>
</g>
<!-- Node19&#45;&gt;Node7 -->
<g id="edge50" class="edge">
<title>Node19&#45;&gt;Node7</title>
<path fill="none" stroke="midnightblue" d="M624.8,-302.42C607.1,-293.85 579.65,-279.99 557,-266 536.96,-253.62 535.11,-245.47 514,-235 461.99,-209.21 358.49,-223.31 396,-179 425.53,-144.12 548.61,-152.42 609.12,-142.89"/>
<polygon fill="midnightblue" stroke="midnightblue" points="610.13,-146.27 619.31,-140.97 608.83,-139.39 610.13,-146.27"/>
</g>
<!-- Node19&#45;&gt;Node10 -->
<g id="edge28" class="edge">
<title>Node19&#45;&gt;Node10</title>
<path fill="none" stroke="midnightblue" d="M589.76,-302.47C438.57,-277.18 22.08,-199.57 95,-123 123.74,-92.82 716.32,-81.94 934.38,-78.95"/>
<polygon fill="midnightblue" stroke="midnightblue" points="934.52,-82.45 944.47,-78.81 934.43,-75.45 934.52,-82.45"/>
</g>
<!-- Node19&#45;&gt;Node15 -->
<g id="edge49" class="edge">
<title>Node19&#45;&gt;Node15</title>
<path fill="none" stroke="midnightblue" d="M697.58,-304.63C791.24,-293.71 982.34,-271.41 1084.69,-259.47"/>
<polygon fill="midnightblue" stroke="midnightblue" points="1085.39,-262.91 1094.92,-258.28 1084.58,-255.96 1085.39,-262.91"/>
</g>
<!-- Node20 -->
<g id="node20" class="node">
<title>Node20</title>
<g id="a_node20"><a xlink:title=" ">
<polygon fill="none" stroke="#bfbfbf" points="449.5,-241 449.5,-260 504.5,-260 504.5,-241 449.5,-241"/>
<text text-anchor="middle" x="477" y="-248" font-family="Helvetica,sans-Serif" font-size="10.00">fstream</text>
</a>
</g>
</g>
<!-- Node19&#45;&gt;Node20 -->
<g id="edge26" class="edge">
<title>Node19&#45;&gt;Node20</title>
<path fill="none" stroke="midnightblue" d="M619.22,-302.48C590.62,-292.22 542.45,-274.96 510.2,-263.4"/>
<polygon fill="midnightblue" stroke="midnightblue" points="511.33,-260.09 500.74,-260.01 508.97,-266.68 511.33,-260.09"/>
</g>
<!-- Node19&#45;&gt;Node21 -->
<g id="edge29" class="edge">
<title>Node19&#45;&gt;Node21</title>
<path fill="none" stroke="midnightblue" d="M643,-302.48C643,-294.08 643,-280.98 643,-270.16"/>
<polygon fill="midnightblue" stroke="midnightblue" points="646.5,-270.01 643,-260.01 639.5,-270.01 646.5,-270.01"/>
</g>
<!-- Node21&#45;&gt;Node3 -->
<g id="edge30" class="edge">
<title>Node21&#45;&gt;Node3</title>
<path fill="none" stroke="midnightblue" d="M670.56,-240.93C678.69,-238.69 687.64,-236.48 696,-235 789.54,-218.4 1036.32,-240.04 1122,-199 1143.9,-188.51 1162.09,-166.74 1172.99,-151.29"/>
<polygon fill="midnightblue" stroke="midnightblue" points="1176.13,-152.89 1178.8,-142.64 1170.32,-148.99 1176.13,-152.89"/>
</g>
<!-- Node21&#45;&gt;Node7 -->
<g id="edge48" class="edge">
<title>Node21&#45;&gt;Node7</title>
<path fill="none" stroke="midnightblue" d="M609.13,-240.96C573.04,-230.09 523.57,-209.06 543,-179 550.75,-167.02 583.69,-153.65 609.68,-144.62"/>
<polygon fill="midnightblue" stroke="midnightblue" points="610.88,-147.9 619.23,-141.38 608.63,-141.27 610.88,-147.9"/>
</g>
<!-- Node21&#45;&gt;Node9 -->
<g id="edge32" class="edge">
<title>Node21&#45;&gt;Node9</title>
<path fill="none" stroke="midnightblue" d="M656.59,-240.94C679.77,-226.62 728.72,-197.56 773,-179 806.36,-165.01 845.59,-153.23 875.14,-145.23"/>
<polygon fill="midnightblue" stroke="midnightblue" points="876.39,-148.51 885.15,-142.56 874.59,-141.75 876.39,-148.51"/>
</g>
<!-- Node21&#45;&gt;Node10 -->
<g id="edge33" class="edge">
<title>Node21&#45;&gt;Node10</title>
<path fill="none" stroke="midnightblue" d="M670.57,-240.97C678.69,-238.73 687.65,-236.51 696,-235 739.15,-227.18 1059.44,-231.39 1089,-199 1119.91,-165.13 1066.61,-116.79 1034.93,-92.75"/>
<polygon fill="midnightblue" stroke="midnightblue" points="1036.79,-89.77 1026.66,-86.65 1032.63,-95.4 1036.79,-89.77"/>
</g>
<!-- Node22 -->
<g id="node22" class="node">
<title>Node22</title>
<g id="a_node22"><a xlink:title=" ">
<polygon fill="none" stroke="#bfbfbf" points="552,-179.5 552,-198.5 612,-198.5 612,-179.5 552,-179.5"/>
<text text-anchor="middle" x="582" y="-186.5" font-family="Helvetica,sans-Serif" font-size="10.00">iostream</text>
</a>
</g>
</g>
<!-- Node21&#45;&gt;Node22 -->
<g id="edge31" class="edge">
<title>Node21&#45;&gt;Node22</title>
<path fill="none" stroke="midnightblue" d="M634.26,-240.98C624.84,-231.78 609.64,-216.96 598.05,-205.66"/>
<polygon fill="midnightblue" stroke="midnightblue" points="600.33,-202.99 590.72,-198.51 595.44,-208 600.33,-202.99"/>
</g>
<!-- Node23 -->
<g id="node23" class="node">
<title>Node23</title>
<g id="a_node23"><a xlink:href="point__charge_8h.html" target="_top" xlink:title=" ">
<polygon fill="none" stroke="black" points="948,-179.5 948,-198.5 1080,-198.5 1080,-179.5 948,-179.5"/>
<text text-anchor="middle" x="1014" y="-186.5" font-family="Helvetica,sans-Serif" font-size="10.00">occ/core/point_charge.h</text>
</a>
</g>
</g>
<!-- Node21&#45;&gt;Node23 -->
<g id="edge34" class="edge">
<title>Node21&#45;&gt;Node23</title>
<path fill="none" stroke="midnightblue" d="M671.72,-240.93C679.55,-238.79 688.06,-236.64 696,-235 777.89,-218.07 872.98,-205.54 937.69,-198.05"/>
<polygon fill="midnightblue" stroke="midnightblue" points="938.27,-201.51 947.8,-196.9 937.47,-194.55 938.27,-201.51"/>
</g>
<!-- Node24 -->
<g id="node24" class="node">
<title>Node24</title>
<g id="a_node24"><a xlink:href="util_8h.html" target="_top" xlink:title=" ">
<polygon fill="none" stroke="black" points="182.5,-179.5 182.5,-198.5 267.5,-198.5 267.5,-179.5 182.5,-179.5"/>
<text text-anchor="middle" x="225" y="-186.5" font-family="Helvetica,sans-Serif" font-size="10.00">occ/core/util.h</text>
</a>
</g>
</g>
<!-- Node21&#45;&gt;Node24 -->
<g id="edge38" class="edge">
<title>Node21&#45;&gt;Node24</title>
<path fill="none" stroke="midnightblue" d="M599.45,-243.3C522.07,-232.29 360.93,-209.35 277.53,-197.48"/>
<polygon fill="midnightblue" stroke="midnightblue" points="277.91,-194 267.52,-196.05 276.92,-200.93 277.91,-194"/>
</g>
<!-- Node23&#45;&gt;Node3 -->
<g id="edge35" class="edge">
<title>Node23&#45;&gt;Node3</title>
<path fill="none" stroke="midnightblue" d="M1040.94,-179.44C1071.43,-169.76 1121.03,-154 1153.09,-143.82"/>
<polygon fill="midnightblue" stroke="midnightblue" points="1154.36,-147.09 1162.83,-140.73 1152.24,-140.42 1154.36,-147.09"/>
</g>
<!-- Node23&#45;&gt;Node9 -->
<g id="edge36" class="edge">
<title>Node23&#45;&gt;Node9</title>
<path fill="none" stroke="midnightblue" d="M998.9,-179.32C984.1,-170.82 961.31,-157.73 944.02,-147.8"/>
<polygon fill="midnightblue" stroke="midnightblue" points="945.48,-144.6 935.07,-142.65 941.99,-150.67 945.48,-144.6"/>
</g>
<!-- Node23&#45;&gt;Node10 -->
<g id="edge37" class="edge">
<title>Node23&#45;&gt;Node10</title>
<path fill="none" stroke="midnightblue" d="M1014,-179.37C1014,-161.62 1014,-120.67 1014,-96.6"/>
<polygon fill="midnightblue" stroke="midnightblue" points="1017.5,-96.59 1014,-86.59 1010.5,-96.59 1017.5,-96.59"/>
</g>
<!-- Node24&#45;&gt;Node6 -->
<g id="edge46" class="edge">
<title>Node24&#45;&gt;Node6</title>
<path fill="none" stroke="midnightblue" d="M267.54,-185.73C347.85,-181.02 527.07,-168.42 676,-143 677.51,-142.74 679.04,-142.46 680.59,-142.15"/>
<polygon fill="midnightblue" stroke="midnightblue" points="681.77,-145.48 690.8,-139.93 680.28,-138.64 681.77,-145.48"/>
</g>
<!-- Node24&#45;&gt;Node7 -->
<g id="edge47" class="edge">
<title>Node24&#45;&gt;Node7</title>
<path fill="none" stroke="midnightblue" d="M267.65,-183.89C350.14,-175.8 529.73,-157.5 609.25,-143.03"/>
<polygon fill="midnightblue" stroke="midnightblue" points="610.17,-146.42 619.34,-141.11 608.86,-139.54 610.17,-146.42"/>
</g>
<!-- Node24&#45;&gt;Node10 -->
<g id="edge45" class="edge">
<title>Node24&#45;&gt;Node10</title>
<path fill="none" stroke="midnightblue" d="M267.6,-181.03C339.15,-169.27 476.67,-146.45 487,-143 505.48,-136.84 507.29,-128.44 526,-123 600.42,-101.36 816.08,-87.73 934.25,-81.67"/>
<polygon fill="midnightblue" stroke="midnightblue" points="934.52,-85.16 944.33,-81.16 934.17,-78.17 934.52,-85.16"/>
</g>
<!-- Node24&#45;&gt;Node18 -->
<g id="edge41" class="edge">
<title>Node24&#45;&gt;Node18</title>
<path fill="none" stroke="midnightblue" d="M267.64,-181.24C272.48,-180.48 277.35,-179.72 282,-179 387.73,-162.66 414.52,-160.86 520,-143 521.46,-142.75 522.95,-142.5 524.45,-142.23"/>
<polygon fill="midnightblue" stroke="midnightblue" points="525.23,-145.65 534.46,-140.44 524,-138.76 525.23,-145.65"/>
</g>
<!-- Node25 -->
<g id="node25" class="node">
<title>Node25</title>
<g id="a_node25"><a xlink:title=" ">
<polygon fill="none" stroke="#bfbfbf" points="346,-123.5 346,-142.5 410,-142.5 410,-123.5 346,-123.5"/>
<text text-anchor="middle" x="378" y="-130.5" font-family="Helvetica,sans-Serif" font-size="10.00">algorithm</text>
</a>
</g>
</g>
<!-- Node24&#45;&gt;Node25 -->
<g id="edge39" class="edge">
<title>Node24&#45;&gt;Node25</title>
<path fill="none" stroke="midnightblue" d="M249.24,-179.44C274.87,-170.4 315.49,-156.06 344.24,-145.92"/>
<polygon fill="midnightblue" stroke="midnightblue" points="345.61,-149.15 353.87,-142.52 343.28,-142.54 345.61,-149.15"/>
</g>
<!-- Node26 -->
<g id="node26" class="node">
<title>Node26</title>
<g id="a_node26"><a xlink:title=" ">
<polygon fill="none" stroke="#bfbfbf" points="428.5,-123.5 428.5,-142.5 477.5,-142.5 477.5,-123.5 428.5,-123.5"/>
<text text-anchor="middle" x="453" y="-130.5" font-family="Helvetica,sans-Serif" font-size="10.00">cctype</text>
</a>
</g>
</g>
<!-- Node24&#45;&gt;Node26 -->
<g id="edge40" class="edge">
<title>Node24&#45;&gt;Node26</title>
<path fill="none" stroke="midnightblue" d="M263.37,-179.47C300.49,-171.13 358.61,-157.86 418.18,-143.15"/>
<polygon fill="midnightblue" stroke="midnightblue" points="419.28,-146.48 428.14,-140.68 417.59,-139.69 419.28,-146.48"/>
</g>
<!-- Node27 -->
<g id="node27" class="node">
<title>Node27</title>
<g id="a_node27"><a xlink:title=" ">
<polygon fill="none" stroke="#bfbfbf" points="104,-123.5 104,-142.5 190,-142.5 190,-123.5 104,-123.5"/>
<text text-anchor="middle" x="147" y="-130.5" font-family="Helvetica,sans-Serif" font-size="10.00">fmt/ostream.h</text>
</a>
</g>
</g>
<!-- Node24&#45;&gt;Node27 -->
<g id="edge42" class="edge">
<title>Node24&#45;&gt;Node27</title>
<path fill="none" stroke="midnightblue" d="M212.47,-179.32C200.41,-170.98 181.97,-158.21 167.73,-148.35"/>
<polygon fill="midnightblue" stroke="midnightblue" points="169.72,-145.47 159.5,-142.65 165.73,-151.22 169.72,-145.47"/>
</g>
<!-- Node28 -->
<g id="node28" class="node">
<title>Node28</title>
<g id="a_node28"><a xlink:title=" ">
<polygon fill="none" stroke="#bfbfbf" points="208,-123.5 208,-142.5 254,-142.5 254,-123.5 208,-123.5"/>
<text text-anchor="middle" x="231" y="-130.5" font-family="Helvetica,sans-Serif" font-size="10.00">locale</text>
</a>
</g>
</g>
<!-- Node24&#45;&gt;Node28 -->
<g id="edge43" class="edge">
<title>Node24&#45;&gt;Node28</title>
<path fill="none" stroke="midnightblue" d="M225.99,-179.08C226.79,-171.93 227.93,-161.64 228.92,-152.69"/>
<polygon fill="midnightblue" stroke="midnightblue" points="232.4,-153.08 230.03,-142.75 225.44,-152.3 232.4,-153.08"/>
</g>
<!-- Node29 -->
<g id="node29" class="node">
<title>Node29</title>
<g id="a_node29"><a xlink:title=" ">
<polygon fill="none" stroke="#bfbfbf" points="272,-123.5 272,-142.5 328,-142.5 328,-123.5 272,-123.5"/>
<text text-anchor="middle" x="300" y="-130.5" font-family="Helvetica,sans-Serif" font-size="10.00">numeric</text>
</a>
</g>
</g>
<!-- Node24&#45;&gt;Node29 -->
<g id="edge44" class="edge">
<title>Node24&#45;&gt;Node29</title>
<path fill="none" stroke="midnightblue" d="M237.05,-179.32C248.46,-171.11 265.83,-158.6 279.43,-148.81"/>
<polygon fill="midnightblue" stroke="midnightblue" points="281.66,-151.52 287.73,-142.83 277.57,-145.84 281.66,-151.52"/>
</g>
<!-- Node30&#45;&gt;Node3 -->
<g id="edge52" class="edge">
<title>Node30&#45;&gt;Node3</title>
<path fill="none" stroke="midnightblue" d="M881.57,-302.49C948.93,-283.29 1107.42,-235.42 1149,-199 1163.14,-186.62 1172.56,-167.1 1178.03,-152.68"/>
<polygon fill="midnightblue" stroke="midnightblue" points="1181.47,-153.44 1181.46,-142.85 1174.86,-151.14 1181.47,-153.44"/>
</g>
<!-- Node30&#45;&gt;Node4 -->
<g id="edge54" class="edge">
<title>Node30&#45;&gt;Node4</title>
<path fill="none" stroke="midnightblue" d="M863.18,-302.48C876.81,-292.93 899.13,-277.31 915.47,-265.87"/>
<polygon fill="midnightblue" stroke="midnightblue" points="917.66,-268.61 923.84,-260.01 913.64,-262.88 917.66,-268.61"/>
</g>
<!-- Node30&#45;&gt;Node7 -->
<g id="edge60" class="edge">
<title>Node30&#45;&gt;Node7</title>
<path fill="none" stroke="midnightblue" d="M797.87,-306.1C732.36,-299.33 625.46,-285.67 591,-266 557.05,-246.62 547.5,-235.69 534,-199 530.93,-190.66 529.06,-186.39 534,-179 538.53,-172.22 579.61,-156.46 610.01,-145.52"/>
<polygon fill="midnightblue" stroke="midnightblue" points="611.2,-148.81 619.45,-142.15 608.85,-142.22 611.2,-148.81"/>
</g>
<!-- Node30&#45;&gt;Node10 -->
<g id="edge56" class="edge">
<title>Node30&#45;&gt;Node10</title>
<path fill="none" stroke="midnightblue" d="M904.06,-305.32C1002.7,-294.64 1205.66,-272.11 1220,-266 1240.05,-257.46 1239.31,-246.21 1258,-235 1293.53,-213.68 1321.04,-233.5 1344,-199 1405.94,-105.92 1210.18,-84.1 1093.87,-79.21"/>
<polygon fill="midnightblue" stroke="midnightblue" points="1093.69,-75.7 1083.56,-78.81 1093.42,-82.7 1093.69,-75.7"/>
</g>
<!-- Node30&#45;&gt;Node15 -->
<g id="edge58" class="edge">
<title>Node30&#45;&gt;Node15</title>
<path fill="none" stroke="midnightblue" d="M894.27,-302.48C948.43,-291.8 1041.17,-273.53 1099.66,-262.01"/>
<polygon fill="midnightblue" stroke="midnightblue" points="1100.68,-265.38 1109.81,-260.01 1099.32,-258.51 1100.68,-265.38"/>
</g>
<!-- Node30&#45;&gt;Node20 -->
<g id="edge53" class="edge">
<title>Node30&#45;&gt;Node20</title>
<path fill="none" stroke="midnightblue" d="M797.82,-303.31C738.88,-294.68 641.03,-280.04 557,-266 543.27,-263.71 528.24,-261.03 514.96,-258.6"/>
<polygon fill="midnightblue" stroke="midnightblue" points="515.2,-255.09 504.74,-256.72 513.94,-261.97 515.2,-255.09"/>
</g>
<!-- Node30&#45;&gt;Node21 -->
<g id="edge57" class="edge">
<title>Node30&#45;&gt;Node21</title>
<path fill="none" stroke="midnightblue" d="M821.2,-302.48C784.75,-292.05 722.92,-274.36 682.53,-262.81"/>
<polygon fill="midnightblue" stroke="midnightblue" points="683.32,-259.39 672.75,-260.01 681.4,-266.12 683.32,-259.39"/>
</g>
<!-- Node31 -->
<g id="node31" class="node">
<title>Node31</title>
<g id="a_node31"><a xlink:title=" ">
<polygon fill="none" stroke="#bfbfbf" points="704.5,-235.5 704.5,-265.5 821.5,-265.5 821.5,-235.5 704.5,-235.5"/>
<text text-anchor="start" x="712.5" y="-253.5" font-family="Helvetica,sans-Serif" font-size="10.00">occ/3rdparty/parallel</text>
<text text-anchor="middle" x="763" y="-242.5" font-family="Helvetica,sans-Serif" font-size="10.00">_hashmap/phmap.h</text>
</a>
</g>
</g>
<!-- Node30&#45;&gt;Node31 -->
<g id="edge55" class="edge">
<title>Node30&#45;&gt;Node31</title>
<path fill="none" stroke="midnightblue" d="M838.39,-302.48C826.36,-294.34 807.8,-281.79 792.1,-271.18"/>
<polygon fill="midnightblue" stroke="midnightblue" points="793.98,-268.22 783.74,-265.52 790.06,-274.02 793.98,-268.22"/>
</g>
<!-- Node32 -->
<g id="node32" class="node">
<title>Node32</title>
<g id="a_node32"><a xlink:title=" ">
<polygon fill="none" stroke="#bfbfbf" points="839.5,-241 839.5,-260 890.5,-260 890.5,-241 839.5,-241"/>
<text text-anchor="middle" x="865" y="-248" font-family="Helvetica,sans-Serif" font-size="10.00">variant</text>
</a>
</g>
</g>
<!-- Node30&#45;&gt;Node32 -->
<g id="edge59" class="edge">
<title>Node30&#45;&gt;Node32</title>
<path fill="none" stroke="midnightblue" d="M853.01,-302.48C855,-293.99 858.13,-280.7 860.69,-269.82"/>
<polygon fill="midnightblue" stroke="midnightblue" points="864.11,-270.54 863,-260.01 857.3,-268.94 864.11,-270.54"/>
</g>
<!-- Node33&#45;&gt;Node4 -->
<g id="edge62" class="edge">
<title>Node33&#45;&gt;Node4</title>
<path fill="none" stroke="midnightblue" d="M1002.82,-302.48C990.43,-293.02 970.21,-277.6 955.25,-266.19"/>
<polygon fill="midnightblue" stroke="midnightblue" points="957.23,-263.29 947.15,-260.01 952.98,-268.86 957.23,-263.29"/>
</g>
<!-- Node33&#45;&gt;Node6 -->
<g id="edge67" class="edge">
<title>Node33&#45;&gt;Node6</title>
<path fill="none" stroke="midnightblue" d="M1022.31,-302.48C1036.14,-287.27 1060.68,-255.19 1043,-235 1003.13,-189.46 826.72,-226.9 773,-199 751.78,-187.98 734.18,-166.32 723.64,-151.04"/>
<polygon fill="midnightblue" stroke="midnightblue" points="726.45,-148.94 718.03,-142.51 720.6,-152.78 726.45,-148.94"/>
</g>
<!-- Node33&#45;&gt;Node7 -->
<g id="edge68" class="edge">
<title>Node33&#45;&gt;Node7</title>
<path fill="none" stroke="midnightblue" d="M1011.88,-302.24C1007.48,-286.05 995.71,-251.6 972,-235 887.61,-175.9 839.2,-235.89 743,-199 711.65,-186.98 679.89,-164.1 660.82,-148.95"/>
<polygon fill="midnightblue" stroke="midnightblue" points="662.97,-146.19 653,-142.6 658.55,-151.62 662.97,-146.19"/>
</g>
<!-- Node33&#45;&gt;Node10 -->
<g id="edge63" class="edge">
<title>Node33&#45;&gt;Node10</title>
<path fill="none" stroke="midnightblue" d="M1076.53,-305.79C1215.72,-294.16 1539.03,-267.06 1540,-266 1587.86,-213.88 1532.76,-155.69 1470,-123 1406.54,-89.94 1207.12,-81.12 1094.14,-78.8"/>
<polygon fill="midnightblue" stroke="midnightblue" points="1093.88,-75.3 1083.81,-78.6 1093.74,-82.29 1093.88,-75.3"/>
</g>
<!-- Node33&#45;&gt;Node15 -->
<g id="edge65" class="edge">
<title>Node33&#45;&gt;Node15</title>
<path fill="none" stroke="midnightblue" d="M1033.92,-302.48C1057.45,-292.4 1096.81,-275.55 1123.79,-264"/>
<polygon fill="midnightblue" stroke="midnightblue" points="1125.31,-267.16 1133.12,-260.01 1122.55,-260.73 1125.31,-267.16"/>
</g>
<!-- Node33&#45;&gt;Node21 -->
<g id="edge64" class="edge">
<title>Node33&#45;&gt;Node21</title>
<path fill="none" stroke="midnightblue" d="M951.45,-304.52C887.02,-297.28 783.91,-284.17 696,-266 691.29,-265.03 686.37,-263.87 681.52,-262.65"/>
<polygon fill="midnightblue" stroke="midnightblue" points="682.28,-259.23 671.72,-260.07 680.5,-266 682.28,-259.23"/>
</g>
<!-- Node33&#45;&gt;Node34 -->
<g id="edge66" class="edge">
<title>Node33&#45;&gt;Node34</title>
<path fill="none" stroke="midnightblue" d="M1072.49,-302.44C1121.2,-294.73 1192.19,-282.13 1253,-266 1256.03,-265.2 1259.16,-264.28 1262.28,-263.31"/>
<polygon fill="midnightblue" stroke="midnightblue" points="1263.67,-266.54 1272.08,-260.09 1261.49,-259.89 1263.67,-266.54"/>
</g>
<!-- Node35&#45;&gt;Node4 -->
<g id="edge71" class="edge">
<title>Node35&#45;&gt;Node4</title>
<path fill="none" stroke="midnightblue" d="M529.22,-306.26C634.42,-296.59 864.8,-274.78 900,-266 902.67,-265.33 905.4,-264.51 908.1,-263.6"/>
<polygon fill="midnightblue" stroke="midnightblue" points="909.5,-266.82 917.64,-260.03 907.05,-260.26 909.5,-266.82"/>
</g>
<!-- Node35&#45;&gt;Node6 -->
<g id="edge76" class="edge">
<title>Node35&#45;&gt;Node6</title>
<path fill="none" stroke="midnightblue" d="M467.29,-302.3C452.44,-287.9 427.17,-258.37 441,-235 467.34,-190.49 494.98,-198.2 543,-179 555.85,-173.86 635.75,-153.43 681.3,-141.95"/>
<polygon fill="midnightblue" stroke="midnightblue" points="682.15,-145.34 691,-139.51 680.45,-138.55 682.15,-145.34"/>
</g>
<!-- Node35&#45;&gt;Node7 -->
<g id="edge77" class="edge">
<title>Node35&#45;&gt;Node7</title>
<path fill="none" stroke="midnightblue" d="M424.96,-309.74C392.29,-305.91 352.42,-295.02 331,-266 322.82,-254.92 325.96,-247.82 331,-235 343.41,-203.39 353.02,-194.97 383,-179 470.71,-132.27 508.4,-162.87 609.34,-143.07"/>
<polygon fill="midnightblue" stroke="midnightblue" points="610.24,-146.46 619.31,-141 608.81,-139.61 610.24,-146.46"/>
</g>
<!-- Node35&#45;&gt;Node9 -->
<g id="edge72" class="edge">
<title>Node35&#45;&gt;Node9</title>
<path fill="none" stroke="midnightblue" d="M467.29,-302.3C452.44,-287.9 427.17,-258.37 441,-235 467.34,-190.49 493.76,-194.8 543,-179 601.02,-160.39 771.85,-145.19 862.3,-138.18"/>
<polygon fill="midnightblue" stroke="midnightblue" points="862.69,-141.66 872.39,-137.41 862.15,-134.68 862.69,-141.66"/>
</g>
<!-- Node35&#45;&gt;Node10 -->
<g id="edge73" class="edge">
<title>Node35&#45;&gt;Node10</title>
<path fill="none" stroke="midnightblue" d="M424.86,-305.19C294.83,-288.85 -25.8,-236.13 82,-123 111.19,-92.37 713.53,-81.76 934.03,-78.9"/>
<polygon fill="midnightblue" stroke="midnightblue" points="934.29,-82.4 944.24,-78.77 934.2,-75.4 934.29,-82.4"/>
</g>
<!-- Node35&#45;&gt;Node15 -->
<g id="edge75" class="edge">
<title>Node35&#45;&gt;Node15</title>
<path fill="none" stroke="midnightblue" d="M529.2,-306.41C650.08,-295.77 949.21,-269.44 1084.54,-257.53"/>
<polygon fill="midnightblue" stroke="midnightblue" points="1085.13,-260.99 1094.78,-256.62 1084.51,-254.01 1085.13,-260.99"/>
</g>
<!-- Node35&#45;&gt;Node20 -->
<g id="edge70" class="edge">
<title>Node35&#45;&gt;Node20</title>
<path fill="none" stroke="midnightblue" d="M477,-302.48C477,-294.08 477,-280.98 477,-270.16"/>
<polygon fill="midnightblue" stroke="midnightblue" points="480.5,-270.01 477,-260.01 473.5,-270.01 480.5,-270.01"/>
</g>
<!-- Node35&#45;&gt;Node21 -->
<g id="edge74" class="edge">
<title>Node35&#45;&gt;Node21</title>
<path fill="none" stroke="midnightblue" d="M500.78,-302.48C529.38,-292.22 577.55,-274.96 609.8,-263.4"/>
<polygon fill="midnightblue" stroke="midnightblue" points="611.03,-266.68 619.26,-260.01 608.67,-260.09 611.03,-266.68"/>
</g>
<!-- Node36&#45;&gt;Node15 -->
<g id="edge79" class="edge">
<title>Node36&#45;&gt;Node15</title>
<path fill="none" stroke="midnightblue" d="M1170.13,-302.48C1167.28,-293.99 1162.82,-280.7 1159.16,-269.82"/>
<polygon fill="midnightblue" stroke="midnightblue" points="1162.36,-268.37 1155.86,-260.01 1155.73,-270.6 1162.36,-268.37"/>
</g>
</g>
</svg>
