<?xml version="1.0" encoding="UTF-8" standalone="no"?>
<!DOCTYPE svg PUBLIC "-//W3C//DTD SVG 1.1//EN"
 "http://www.w3.org/Graphics/SVG/1.1/DTD/svg11.dtd">
<!-- Generated by graphviz version 2.43.0 (0)
 -->
<!-- Title: /home/runner/work/occ/occ/include/occ/crystal/site_index.h Pages: 1 -->
<svg width="2648pt" height="440pt"
 viewBox="0.00 0.00 2648.44 440.00" xmlns="http://www.w3.org/2000/svg" xmlns:xlink="http://www.w3.org/1999/xlink">
<g id="graph0" class="graph" transform="scale(1 1) rotate(0) translate(4 436)">
<title>/home/runner/work/occ/occ/include/occ/crystal/site_index.h</title>
<!-- Node1 -->
<g id="node1" class="node">
<title>Node1</title>
<g id="a_node1"><a xlink:title=" ">
<polygon fill="#bfbfbf" stroke="black" points="775,-390.5 775,-431.5 905,-431.5 905,-390.5 775,-390.5"/>
<text text-anchor="start" x="783" y="-419.5" font-family="Helvetica,sans-Serif" font-size="10.00">/home/runner/work/occ</text>
<text text-anchor="start" x="783" y="-408.5" font-family="Helvetica,sans-Serif" font-size="10.00">/occ/include/occ/crystal</text>
<text text-anchor="middle" x="840" y="-397.5" font-family="Helvetica,sans-Serif" font-size="10.00">/site_index.h</text>
</a>
</g>
</g>
<!-- Node2 -->
<g id="node2" class="node">
<title>Node2</title>
<g id="a_node2"><a xlink:href="dimer__mapping__table_8h.html" target="_top" xlink:title=" ">
<polygon fill="none" stroke="black" points="697.5,-234.5 697.5,-275.5 832.5,-275.5 832.5,-234.5 697.5,-234.5"/>
<text text-anchor="start" x="705.5" y="-263.5" font-family="Helvetica,sans-Serif" font-size="10.00">/home/runner/work/occ</text>
<text text-anchor="start" x="705.5" y="-252.5" font-family="Helvetica,sans-Serif" font-size="10.00">/occ/include/occ/crystal</text>
<text text-anchor="middle" x="765" y="-241.5" font-family="Helvetica,sans-Serif" font-size="10.00">/dimer_mapping_table.h</text>
</a>
</g>
</g>
<!-- Node1&#45;&gt;Node2 -->
<g id="edge1" class="edge">
<title>Node1&#45;&gt;Node2</title>
<path fill="none" stroke="midnightblue" d="M825.96,-381.17C810.99,-350.43 787.69,-302.59 774.66,-275.83"/>
<polygon fill="midnightblue" stroke="midnightblue" points="822.98,-383.04 830.5,-390.5 829.27,-379.97 822.98,-383.04"/>
</g>
<!-- Node4 -->
<g id="node4" class="node">
<title>Node4</title>
<g id="a_node4"><a xlink:href="site__mapping__table_8h.html" target="_top" xlink:title=" ">
<polygon fill="none" stroke="black" points="836,-312.5 836,-353.5 966,-353.5 966,-312.5 836,-312.5"/>
<text text-anchor="start" x="844" y="-341.5" font-family="Helvetica,sans-Serif" font-size="10.00">/home/runner/work/occ</text>
<text text-anchor="start" x="844" y="-330.5" font-family="Helvetica,sans-Serif" font-size="10.00">/occ/include/occ/crystal</text>
<text text-anchor="middle" x="901" y="-319.5" font-family="Helvetica,sans-Serif" font-size="10.00">/site_mapping_table.h</text>
</a>
</g>
</g>
<!-- Node1&#45;&gt;Node4 -->
<g id="edge3" class="edge">
<title>Node1&#45;&gt;Node4</title>
<path fill="none" stroke="midnightblue" d="M861.97,-382.63C869.71,-372.99 878.24,-362.36 885.34,-353.51"/>
<polygon fill="midnightblue" stroke="midnightblue" points="859.24,-380.44 855.71,-390.43 864.7,-384.82 859.24,-380.44"/>
</g>
<!-- Node3 -->
<g id="node3" class="node">
<title>Node3</title>
<g id="a_node3"><a xlink:href="interaction__mapper_8h.html" target="_top" xlink:title=" ">
<polygon fill="none" stroke="black" points="83,-156.5 83,-197.5 247,-197.5 247,-156.5 83,-156.5"/>
<text text-anchor="start" x="91" y="-185.5" font-family="Helvetica,sans-Serif" font-size="10.00">/home/runner/work/occ</text>
<text text-anchor="start" x="91" y="-174.5" font-family="Helvetica,sans-Serif" font-size="10.00">/occ/include/occ/cg/interaction</text>
<text text-anchor="middle" x="165" y="-163.5" font-family="Helvetica,sans-Serif" font-size="10.00">_mapper.h</text>
</a>
</g>
</g>
<!-- Node2&#45;&gt;Node3 -->
<g id="edge2" class="edge">
<title>Node2&#45;&gt;Node3</title>
<path fill="none" stroke="midnightblue" d="M687.23,-247.66C587.96,-239.04 411.1,-221.92 261,-198 256.46,-197.28 251.81,-196.48 247.12,-195.64"/>
<polygon fill="midnightblue" stroke="midnightblue" points="687.21,-251.17 697.47,-248.54 687.81,-244.2 687.21,-251.17"/>
</g>
<!-- Node5 -->
<g id="node5" class="node">
<title>Node5</title>
<g id="a_node5"><a xlink:href="crystal_8h.html" target="_top" xlink:title=" ">
<polygon fill="none" stroke="black" points="1370,-234.5 1370,-275.5 1500,-275.5 1500,-234.5 1370,-234.5"/>
<text text-anchor="start" x="1378" y="-263.5" font-family="Helvetica,sans-Serif" font-size="10.00">/home/runner/work/occ</text>
<text text-anchor="start" x="1378" y="-252.5" font-family="Helvetica,sans-Serif" font-size="10.00">/occ/include/occ/crystal</text>
<text text-anchor="middle" x="1435" y="-241.5" font-family="Helvetica,sans-Serif" font-size="10.00">/crystal.h</text>
</a>
</g>
</g>
<!-- Node4&#45;&gt;Node5 -->
<g id="edge4" class="edge">
<title>Node4&#45;&gt;Node5</title>
<path fill="none" stroke="midnightblue" d="M976.43,-321.26C1081.55,-306.3 1270.36,-279.43 1369.75,-265.29"/>
<polygon fill="midnightblue" stroke="midnightblue" points="975.62,-317.84 966.21,-322.72 976.61,-324.77 975.62,-317.84"/>
</g>
<!-- Node5&#45;&gt;Node3 -->
<g id="edge7" class="edge">
<title>Node5&#45;&gt;Node3</title>
<path fill="none" stroke="midnightblue" d="M1359.48,-251.09C1117.27,-241.67 369.32,-211.78 261,-198 256.44,-197.42 251.77,-196.74 247.08,-195.99"/>
<polygon fill="midnightblue" stroke="midnightblue" points="1359.48,-254.59 1369.61,-251.49 1359.75,-247.6 1359.48,-254.59"/>
</g>
<!-- Node6 -->
<g id="node6" class="node">
<title>Node6</title>
<g id="a_node6"><a xlink:href="distance__partition_8h.html" target="_top" xlink:title=" ">
<polygon fill="none" stroke="black" points="2286,-78.5 2286,-119.5 2438,-119.5 2438,-78.5 2286,-78.5"/>
<text text-anchor="start" x="2294" y="-107.5" font-family="Helvetica,sans-Serif" font-size="10.00">/home/runner/work/occ</text>
<text text-anchor="start" x="2294" y="-96.5" font-family="Helvetica,sans-Serif" font-size="10.00">/occ/include/occ/cg/distance</text>
<text text-anchor="middle" x="2362" y="-85.5" font-family="Helvetica,sans-Serif" font-size="10.00">_partition.h</text>
</a>
</g>
</g>
<!-- Node5&#45;&gt;Node6 -->
<g id="edge5" class="edge">
<title>Node5&#45;&gt;Node6</title>
<path fill="none" stroke="midnightblue" d="M1510.61,-252.46C1734.14,-247.53 2378.27,-230.54 2409,-198 2430.37,-175.36 2404.67,-141.19 2383.7,-119.76"/>
<polygon fill="midnightblue" stroke="midnightblue" points="1510.21,-248.96 1500.29,-252.68 1510.36,-255.96 1510.21,-248.96"/>
</g>
<!-- Node7 -->
<g id="node7" class="node">
<title>Node7</title>
<g id="a_node7"><a xlink:href="crystal__growth_8h.html" target="_top" xlink:title=" ">
<polygon fill="none" stroke="black" points="1770,-0.5 1770,-41.5 1898,-41.5 1898,-0.5 1770,-0.5"/>
<text text-anchor="start" x="1778" y="-29.5" font-family="Helvetica,sans-Serif" font-size="10.00">/home/runner/work/occ</text>
<text text-anchor="start" x="1778" y="-18.5" font-family="Helvetica,sans-Serif" font-size="10.00">/occ/include/occ/driver</text>
<text text-anchor="middle" x="1834" y="-7.5" font-family="Helvetica,sans-Serif" font-size="10.00">/crystal_growth.h</text>
</a>
</g>
</g>
<!-- Node5&#45;&gt;Node7 -->
<g id="edge12" class="edge">
<title>Node5&#45;&gt;Node7</title>
<path fill="none" stroke="midnightblue" d="M1510.35,-253.25C1764.25,-250.34 2574.89,-237.96 2613,-198 2649.81,-159.4 2649.34,-117.04 2613,-78 2564.73,-26.14 2076.06,-21.63 1898.25,-21.73"/>
<polygon fill="midnightblue" stroke="midnightblue" points="1510.07,-249.75 1500.11,-253.36 1510.15,-256.75 1510.07,-249.75"/>
</g>
<!-- Node8 -->
<g id="node8" class="node">
<title>Node8</title>
<g id="a_node8"><a xlink:href="neighbor__atoms_8h.html" target="_top" xlink:title=" ">
<polygon fill="none" stroke="black" points="2246,-156.5 2246,-197.5 2400,-197.5 2400,-156.5 2246,-156.5"/>
<text text-anchor="start" x="2254" y="-185.5" font-family="Helvetica,sans-Serif" font-size="10.00">/home/runner/work/occ</text>
<text text-anchor="start" x="2254" y="-174.5" font-family="Helvetica,sans-Serif" font-size="10.00">/occ/include/occ/cg/neighbor</text>
<text text-anchor="middle" x="2323" y="-163.5" font-family="Helvetica,sans-Serif" font-size="10.00">_atoms.h</text>
</a>
</g>
</g>
<!-- Node5&#45;&gt;Node8 -->
<g id="edge8" class="edge">
<title>Node5&#45;&gt;Node8</title>
<path fill="none" stroke="midnightblue" d="M1510.47,-252.72C1653.14,-249.41 1971.89,-237.82 2237,-198 2239.88,-197.57 2242.81,-197.09 2245.76,-196.57"/>
<polygon fill="midnightblue" stroke="midnightblue" points="1510.01,-249.23 1500.09,-252.95 1510.17,-256.23 1510.01,-249.23"/>
</g>
<!-- Node10 -->
<g id="node10" class="node">
<title>Node10</title>
<g id="a_node10"><a xlink:href="dimer__labeller_8h.html" target="_top" xlink:title=" ">
<polygon fill="none" stroke="black" points="449,-156.5 449,-197.5 579,-197.5 579,-156.5 449,-156.5"/>
<text text-anchor="start" x="457" y="-185.5" font-family="Helvetica,sans-Serif" font-size="10.00">/home/runner/work/occ</text>
<text text-anchor="start" x="457" y="-174.5" font-family="Helvetica,sans-Serif" font-size="10.00">/occ/include/occ/crystal</text>
<text text-anchor="middle" x="514" y="-163.5" font-family="Helvetica,sans-Serif" font-size="10.00">/dimer_labeller.h</text>
</a>
</g>
</g>
<!-- Node5&#45;&gt;Node10 -->
<g id="edge10" class="edge">
<title>Node5&#45;&gt;Node10</title>
<path fill="none" stroke="midnightblue" d="M1359.58,-254C1210.91,-252.9 869.97,-244.95 588,-198 585.11,-197.52 582.17,-196.97 579.22,-196.38"/>
<polygon fill="midnightblue" stroke="midnightblue" points="1359.92,-257.5 1369.95,-254.07 1359.97,-250.5 1359.92,-257.5"/>
</g>
<!-- Node11 -->
<g id="node11" class="node">
<title>Node11</title>
<g id="a_node11"><a xlink:href="crystal_2surface_8h.html" target="_top" xlink:title=" ">
<polygon fill="none" stroke="black" points="597,-156.5 597,-197.5 727,-197.5 727,-156.5 597,-156.5"/>
<text text-anchor="start" x="605" y="-185.5" font-family="Helvetica,sans-Serif" font-size="10.00">/home/runner/work/occ</text>
<text text-anchor="start" x="605" y="-174.5" font-family="Helvetica,sans-Serif" font-size="10.00">/occ/include/occ/crystal</text>
<text text-anchor="middle" x="662" y="-163.5" font-family="Helvetica,sans-Serif" font-size="10.00">/surface.h</text>
</a>
</g>
</g>
<!-- Node5&#45;&gt;Node11 -->
<g id="edge11" class="edge">
<title>Node5&#45;&gt;Node11</title>
<path fill="none" stroke="midnightblue" d="M1359.79,-252.5C1231.11,-248.93 960.81,-237.04 736,-198 733.12,-197.5 730.18,-196.94 727.22,-196.33"/>
<polygon fill="midnightblue" stroke="midnightblue" points="1359.84,-256 1369.93,-252.77 1360.03,-249.01 1359.84,-256"/>
</g>
<!-- Node12 -->
<g id="node12" class="node">
<title>Node12</title>
<g id="a_node12"><a xlink:href="pair__energy_8h.html" target="_top" xlink:title=" ">
<polygon fill="none" stroke="black" points="62.5,-78.5 62.5,-119.5 211.5,-119.5 211.5,-78.5 62.5,-78.5"/>
<text text-anchor="start" x="70.5" y="-107.5" font-family="Helvetica,sans-Serif" font-size="10.00">/home/runner/work/occ</text>
<text text-anchor="start" x="70.5" y="-96.5" font-family="Helvetica,sans-Serif" font-size="10.00">/occ/include/occ/interaction</text>
<text text-anchor="middle" x="137" y="-85.5" font-family="Helvetica,sans-Serif" font-size="10.00">/pair_energy.h</text>
</a>
</g>
</g>
<!-- Node5&#45;&gt;Node12 -->
<g id="edge13" class="edge">
<title>Node5&#45;&gt;Node12</title>
<path fill="none" stroke="midnightblue" d="M1359.79,-251.08C1109.36,-241.27 318.13,-209.43 294,-198 271.25,-187.23 276.23,-170.98 256,-156 236,-141.18 211.46,-128.83 189.87,-119.53"/>
<polygon fill="midnightblue" stroke="midnightblue" points="1359.76,-254.58 1369.89,-251.48 1360.03,-247.59 1359.76,-254.58"/>
</g>
<!-- Node15 -->
<g id="node15" class="node">
<title>Node15</title>
<g id="a_node15"><a xlink:href="cifparser_8h.html" target="_top" xlink:title=" ">
<polygon fill="none" stroke="black" points="1575,-84 1575,-114 1735,-114 1735,-84 1575,-84"/>
<text text-anchor="start" x="1583" y="-102" font-family="Helvetica,sans-Serif" font-size="10.00">/home/runner/work/occ</text>
<text text-anchor="middle" x="1655" y="-91" font-family="Helvetica,sans-Serif" font-size="10.00">/occ/include/occ/io/cifparser.h</text>
</a>
</g>
</g>
<!-- Node5&#45;&gt;Node15 -->
<g id="edge17" class="edge">
<title>Node5&#45;&gt;Node15</title>
<path fill="none" stroke="midnightblue" d="M1510.23,-251.34C1593.25,-246.63 1719.14,-233.66 1749,-198 1760.98,-183.69 1758.22,-172.23 1749,-156 1737.83,-136.35 1716.73,-122.86 1697.35,-114.06"/>
<polygon fill="midnightblue" stroke="midnightblue" points="1509.87,-247.85 1500.07,-251.89 1510.24,-254.84 1509.87,-247.85"/>
</g>
<!-- Node16 -->
<g id="node16" class="node">
<title>Node16</title>
<g id="a_node16"><a xlink:href="crystal__json_8h.html" target="_top" xlink:title=" ">
<polygon fill="none" stroke="black" points="745,-156.5 745,-197.5 887,-197.5 887,-156.5 745,-156.5"/>
<text text-anchor="start" x="753" y="-185.5" font-family="Helvetica,sans-Serif" font-size="10.00">/home/runner/work/occ</text>
<text text-anchor="start" x="753" y="-174.5" font-family="Helvetica,sans-Serif" font-size="10.00">/occ/include/occ/io/crystal</text>
<text text-anchor="middle" x="816" y="-163.5" font-family="Helvetica,sans-Serif" font-size="10.00">_json.h</text>
</a>
</g>
</g>
<!-- Node5&#45;&gt;Node16 -->
<g id="edge18" class="edge">
<title>Node5&#45;&gt;Node16</title>
<path fill="none" stroke="midnightblue" d="M1359.73,-249.55C1255.11,-242.61 1060.1,-226.89 896,-198 893.18,-197.5 890.31,-196.96 887.42,-196.39"/>
<polygon fill="midnightblue" stroke="midnightblue" points="1359.67,-253.06 1369.87,-250.22 1360.12,-246.07 1359.67,-253.06"/>
</g>
<!-- Node17 -->
<g id="node17" class="node">
<title>Node17</title>
<g id="a_node17"><a xlink:href="crystalgrower_8h.html" target="_top" xlink:title=" ">
<polygon fill="none" stroke="black" points="905,-162 905,-192 1089,-192 1089,-162 905,-162"/>
<text text-anchor="start" x="913" y="-180" font-family="Helvetica,sans-Serif" font-size="10.00">/home/runner/work/occ</text>
<text text-anchor="middle" x="997" y="-169" font-family="Helvetica,sans-Serif" font-size="10.00">/occ/include/occ/io/crystalgrower.h</text>
</a>
</g>
</g>
<!-- Node5&#45;&gt;Node17 -->
<g id="edge19" class="edge">
<title>Node5&#45;&gt;Node17</title>
<path fill="none" stroke="midnightblue" d="M1359.73,-242.17C1291.36,-231.27 1187.77,-214.34 1098,-198 1087.8,-196.14 1077.04,-194.1 1066.49,-192.05"/>
<polygon fill="midnightblue" stroke="midnightblue" points="1359.55,-245.69 1369.98,-243.8 1360.65,-238.78 1359.55,-245.69"/>
</g>
<!-- Node18 -->
<g id="node18" class="node">
<title>Node18</title>
<g id="a_node18"><a xlink:href="dftb__gen_8h.html" target="_top" xlink:title=" ">
<polygon fill="none" stroke="black" points="1107,-162 1107,-192 1267,-192 1267,-162 1107,-162"/>
<text text-anchor="start" x="1115" y="-180" font-family="Helvetica,sans-Serif" font-size="10.00">/home/runner/work/occ</text>
<text text-anchor="middle" x="1187" y="-169" font-family="Helvetica,sans-Serif" font-size="10.00">/occ/include/occ/io/dftb_gen.h</text>
</a>
</g>
</g>
<!-- Node5&#45;&gt;Node18 -->
<g id="edge20" class="edge">
<title>Node5&#45;&gt;Node18</title>
<path fill="none" stroke="midnightblue" d="M1361.32,-231.42C1319.71,-218.67 1269.01,-203.13 1233.03,-192.11"/>
<polygon fill="midnightblue" stroke="midnightblue" points="1360.55,-234.84 1371.13,-234.43 1362.6,-228.15 1360.55,-234.84"/>
</g>
<!-- Node19 -->
<g id="node19" class="node">
<title>Node19</title>
<g id="a_node19"><a xlink:href="gmf_8h.html" target="_top" xlink:title=" ">
<polygon fill="none" stroke="black" points="1285.5,-162 1285.5,-192 1422.5,-192 1422.5,-162 1285.5,-162"/>
<text text-anchor="start" x="1293.5" y="-180" font-family="Helvetica,sans-Serif" font-size="10.00">/home/runner/work/occ</text>
<text text-anchor="middle" x="1354" y="-169" font-family="Helvetica,sans-Serif" font-size="10.00">/occ/include/occ/io/gmf.h</text>
</a>
</g>
</g>
<!-- Node5&#45;&gt;Node19 -->
<g id="edge21" class="edge">
<title>Node5&#45;&gt;Node19</title>
<path fill="none" stroke="midnightblue" d="M1406.57,-227.32C1393.98,-215.51 1379.67,-202.08 1369.16,-192.23"/>
<polygon fill="midnightblue" stroke="midnightblue" points="1404.45,-230.14 1414.14,-234.43 1409.24,-225.03 1404.45,-230.14"/>
</g>
<!-- Node20 -->
<g id="node20" class="node">
<title>Node20</title>
<g id="a_node20"><a xlink:href="kmcpp_8h.html" target="_top" xlink:title=" ">
<polygon fill="none" stroke="black" points="1440.5,-162 1440.5,-192 1591.5,-192 1591.5,-162 1440.5,-162"/>
<text text-anchor="start" x="1448.5" y="-180" font-family="Helvetica,sans-Serif" font-size="10.00">/home/runner/work/occ</text>
<text text-anchor="middle" x="1516" y="-169" font-family="Helvetica,sans-Serif" font-size="10.00">/occ/include/occ/io/kmcpp.h</text>
</a>
</g>
</g>
<!-- Node5&#45;&gt;Node20 -->
<g id="edge22" class="edge">
<title>Node5&#45;&gt;Node20</title>
<path fill="none" stroke="midnightblue" d="M1463.43,-227.32C1476.02,-215.51 1490.33,-202.08 1500.84,-192.23"/>
<polygon fill="midnightblue" stroke="midnightblue" points="1460.76,-225.03 1455.86,-234.43 1465.55,-230.14 1460.76,-225.03"/>
</g>
<!-- Node21 -->
<g id="node21" class="node">
<title>Node21</title>
<g id="a_node21"><a xlink:href="load__geometry_8h.html" target="_top" xlink:title=" ">
<polygon fill="none" stroke="black" points="1610,-156.5 1610,-197.5 1740,-197.5 1740,-156.5 1610,-156.5"/>
<text text-anchor="start" x="1618" y="-185.5" font-family="Helvetica,sans-Serif" font-size="10.00">/home/runner/work/occ</text>
<text text-anchor="start" x="1618" y="-174.5" font-family="Helvetica,sans-Serif" font-size="10.00">/occ/include/occ/io/load</text>
<text text-anchor="middle" x="1675" y="-163.5" font-family="Helvetica,sans-Serif" font-size="10.00">_geometry.h</text>
</a>
</g>
</g>
<!-- Node5&#45;&gt;Node21 -->
<g id="edge23" class="edge">
<title>Node5&#45;&gt;Node21</title>
<path fill="none" stroke="midnightblue" d="M1506.67,-231.3C1540.64,-220.55 1580.82,-207.82 1613.4,-197.51"/>
<polygon fill="midnightblue" stroke="midnightblue" points="1505.28,-228.07 1496.81,-234.43 1507.4,-234.75 1505.28,-228.07"/>
</g>
<!-- Node22 -->
<g id="node22" class="node">
<title>Node22</title>
<g id="a_node22"><a xlink:href="occ__input_8h.html" target="_top" xlink:title=" ">
<polygon fill="none" stroke="black" points="303,-156.5 303,-197.5 431,-197.5 431,-156.5 303,-156.5"/>
<text text-anchor="start" x="311" y="-185.5" font-family="Helvetica,sans-Serif" font-size="10.00">/home/runner/work/occ</text>
<text text-anchor="start" x="311" y="-174.5" font-family="Helvetica,sans-Serif" font-size="10.00">/occ/include/occ/io/occ</text>
<text text-anchor="middle" x="367" y="-163.5" font-family="Helvetica,sans-Serif" font-size="10.00">_input.h</text>
</a>
</g>
</g>
<!-- Node5&#45;&gt;Node22 -->
<g id="edge24" class="edge">
<title>Node5&#45;&gt;Node22</title>
<path fill="none" stroke="midnightblue" d="M1359.81,-251.83C1159.63,-245.71 616.96,-226.89 440,-198 437.15,-197.53 434.24,-197 431.32,-196.41"/>
<polygon fill="midnightblue" stroke="midnightblue" points="1359.83,-255.33 1369.93,-252.13 1360.05,-248.33 1359.83,-255.33"/>
</g>
<!-- Node29 -->
<g id="node29" class="node">
<title>Node29</title>
<g id="a_node29"><a xlink:href="void_8h.html" target="_top" xlink:title=" ">
<polygon fill="none" stroke="black" points="2456.5,-156.5 2456.5,-197.5 2603.5,-197.5 2603.5,-156.5 2456.5,-156.5"/>
<text text-anchor="start" x="2464.5" y="-185.5" font-family="Helvetica,sans-Serif" font-size="10.00">/home/runner/work/occ</text>
<text text-anchor="start" x="2464.5" y="-174.5" font-family="Helvetica,sans-Serif" font-size="10.00">/occ/include/occ/isosurface</text>
<text text-anchor="middle" x="2530" y="-163.5" font-family="Helvetica,sans-Serif" font-size="10.00">/void.h</text>
</a>
</g>
</g>
<!-- Node5&#45;&gt;Node29 -->
<g id="edge34" class="edge">
<title>Node5&#45;&gt;Node29</title>
<path fill="none" stroke="midnightblue" d="M1510.39,-254.12C1678.48,-253.44 2096.38,-246.53 2442,-198 2446.65,-197.35 2451.43,-196.57 2456.22,-195.71"/>
<polygon fill="midnightblue" stroke="midnightblue" points="1510.15,-250.62 1500.16,-254.15 1510.17,-257.62 1510.15,-250.62"/>
</g>
<!-- Node31 -->
<g id="node31" class="node">
<title>Node31</title>
<g id="a_node31"><a xlink:href="crystal__surface__energy_8h.html" target="_top" xlink:title=" ">
<polygon fill="none" stroke="black" points="1796,-156.5 1796,-197.5 1936,-197.5 1936,-156.5 1796,-156.5"/>
<text text-anchor="start" x="1804" y="-185.5" font-family="Helvetica,sans-Serif" font-size="10.00">/home/runner/work/occ</text>
<text text-anchor="start" x="1804" y="-174.5" font-family="Helvetica,sans-Serif" font-size="10.00">/occ/include/occ/main</text>
<text text-anchor="middle" x="1866" y="-163.5" font-family="Helvetica,sans-Serif" font-size="10.00">/crystal_surface_energy.h</text>
</a>
</g>
</g>
<!-- Node5&#45;&gt;Node31 -->
<g id="edge36" class="edge">
<title>Node5&#45;&gt;Node31</title>
<path fill="none" stroke="midnightblue" d="M1510.29,-243.49C1580.77,-233.26 1688.88,-216.57 1782,-198 1786.56,-197.09 1791.24,-196.11 1795.96,-195.08"/>
<polygon fill="midnightblue" stroke="midnightblue" points="1509.57,-240.05 1500.17,-244.95 1510.57,-246.98 1509.57,-240.05"/>
</g>
<!-- Node32 -->
<g id="node32" class="node">
<title>Node32</title>
<g id="a_node32"><a xlink:href="tblite__wrapper_8h.html" target="_top" xlink:title=" ">
<polygon fill="none" stroke="black" points="1954,-156.5 1954,-197.5 2082,-197.5 2082,-156.5 1954,-156.5"/>
<text text-anchor="start" x="1962" y="-185.5" font-family="Helvetica,sans-Serif" font-size="10.00">/home/runner/work/occ</text>
<text text-anchor="start" x="1962" y="-174.5" font-family="Helvetica,sans-Serif" font-size="10.00">/occ/include/occ/xtb</text>
<text text-anchor="middle" x="2018" y="-163.5" font-family="Helvetica,sans-Serif" font-size="10.00">/tblite_wrapper.h</text>
</a>
</g>
</g>
<!-- Node5&#45;&gt;Node32 -->
<g id="edge37" class="edge">
<title>Node5&#45;&gt;Node32</title>
<path fill="none" stroke="midnightblue" d="M1510.31,-249.47C1610.3,-242.6 1792.1,-227.15 1945,-198 1947.84,-197.46 1950.73,-196.86 1953.64,-196.23"/>
<polygon fill="midnightblue" stroke="midnightblue" points="1510.04,-245.98 1500.3,-250.14 1510.51,-252.96 1510.04,-245.98"/>
</g>
<!-- Node33 -->
<g id="node33" class="node">
<title>Node33</title>
<g id="a_node33"><a xlink:href="xtb__wrapper_8h.html" target="_top" xlink:title=" ">
<polygon fill="none" stroke="black" points="2100,-156.5 2100,-197.5 2228,-197.5 2228,-156.5 2100,-156.5"/>
<text text-anchor="start" x="2108" y="-185.5" font-family="Helvetica,sans-Serif" font-size="10.00">/home/runner/work/occ</text>
<text text-anchor="start" x="2108" y="-174.5" font-family="Helvetica,sans-Serif" font-size="10.00">/occ/include/occ/xtb</text>
<text text-anchor="middle" x="2164" y="-163.5" font-family="Helvetica,sans-Serif" font-size="10.00">/xtb_wrapper.h</text>
</a>
</g>
</g>
<!-- Node5&#45;&gt;Node33 -->
<g id="edge38" class="edge">
<title>Node5&#45;&gt;Node33</title>
<path fill="none" stroke="midnightblue" d="M1510.25,-252.03C1632.81,-247.82 1882.76,-235.09 2091,-198 2093.85,-197.49 2096.74,-196.93 2099.66,-196.31"/>
<polygon fill="midnightblue" stroke="midnightblue" points="1510.1,-248.53 1500.22,-252.36 1510.33,-255.53 1510.1,-248.53"/>
</g>
<!-- Node6&#45;&gt;Node7 -->
<g id="edge6" class="edge">
<title>Node6&#45;&gt;Node7</title>
<path fill="none" stroke="midnightblue" d="M2275.58,-77.83C2135.72,-53.05 1982.57,-36.3 1898.15,-27.97"/>
<polygon fill="midnightblue" stroke="midnightblue" points="2275.16,-81.31 2285.62,-79.63 2276.4,-74.42 2275.16,-81.31"/>
</g>
<!-- Node9 -->
<g id="node9" class="node">
<title>Node9</title>
<g id="a_node9"><a xlink:href="solvation__types_8h.html" target="_top" xlink:title=" ">
<polygon fill="none" stroke="black" points="2112,-78.5 2112,-119.5 2268,-119.5 2268,-78.5 2112,-78.5"/>
<text text-anchor="start" x="2120" y="-107.5" font-family="Helvetica,sans-Serif" font-size="10.00">/home/runner/work/occ</text>
<text text-anchor="start" x="2120" y="-96.5" font-family="Helvetica,sans-Serif" font-size="10.00">/occ/include/occ/cg/solvation</text>
<text text-anchor="middle" x="2190" y="-85.5" font-family="Helvetica,sans-Serif" font-size="10.00">_types.h</text>
</a>
</g>
</g>
<!-- Node8&#45;&gt;Node9 -->
<g id="edge9" class="edge">
<title>Node8&#45;&gt;Node9</title>
<path fill="none" stroke="midnightblue" d="M2279.61,-151.2C2261.61,-140.92 2241.03,-129.16 2224.13,-119.51"/>
<polygon fill="midnightblue" stroke="midnightblue" points="2278.33,-154.51 2288.75,-156.43 2281.8,-148.43 2278.33,-154.51"/>
</g>
<!-- Node12&#45;&gt;Node7 -->
<g id="edge14" class="edge">
<title>Node12&#45;&gt;Node7</title>
<path fill="none" stroke="midnightblue" d="M221.46,-78.14C548.23,-36.28 1511.89,-24.89 1769.89,-22.52"/>
<polygon fill="midnightblue" stroke="midnightblue" points="220.97,-74.67 211.51,-79.45 221.88,-81.61 220.97,-74.67"/>
</g>
<!-- Node13 -->
<g id="node13" class="node">
<title>Node13</title>
<g id="a_node13"><a xlink:href="occ__cg_8h.html" target="_top" xlink:title=" ">
<polygon fill="none" stroke="black" points="0,-0.5 0,-41.5 128,-41.5 128,-0.5 0,-0.5"/>
<text text-anchor="start" x="8" y="-29.5" font-family="Helvetica,sans-Serif" font-size="10.00">/home/runner/work/occ</text>
<text text-anchor="start" x="8" y="-18.5" font-family="Helvetica,sans-Serif" font-size="10.00">/occ/include/occ/main</text>
<text text-anchor="middle" x="64" y="-7.5" font-family="Helvetica,sans-Serif" font-size="10.00">/occ_cg.h</text>
</a>
</g>
</g>
<!-- Node12&#45;&gt;Node13 -->
<g id="edge15" class="edge">
<title>Node12&#45;&gt;Node13</title>
<path fill="none" stroke="midnightblue" d="M111.26,-71.2C101.86,-61.42 91.41,-50.54 82.74,-41.51"/>
<polygon fill="midnightblue" stroke="midnightblue" points="108.75,-73.64 118.2,-78.43 113.8,-68.79 108.75,-73.64"/>
</g>
<!-- Node14 -->
<g id="node14" class="node">
<title>Node14</title>
<g id="a_node14"><a xlink:href="occ__elat_8h.html" target="_top" xlink:title=" ">
<polygon fill="none" stroke="black" points="146,-0.5 146,-41.5 274,-41.5 274,-0.5 146,-0.5"/>
<text text-anchor="start" x="154" y="-29.5" font-family="Helvetica,sans-Serif" font-size="10.00">/home/runner/work/occ</text>
<text text-anchor="start" x="154" y="-18.5" font-family="Helvetica,sans-Serif" font-size="10.00">/occ/include/occ/main</text>
<text text-anchor="middle" x="210" y="-7.5" font-family="Helvetica,sans-Serif" font-size="10.00">/occ_elat.h</text>
</a>
</g>
</g>
<!-- Node12&#45;&gt;Node14 -->
<g id="edge16" class="edge">
<title>Node12&#45;&gt;Node14</title>
<path fill="none" stroke="midnightblue" d="M162.74,-71.2C172.14,-61.42 182.59,-50.54 191.26,-41.51"/>
<polygon fill="midnightblue" stroke="midnightblue" points="160.2,-68.79 155.8,-78.43 165.25,-73.64 160.2,-68.79"/>
</g>
<!-- Node22&#45;&gt;Node12 -->
<g id="edge28" class="edge">
<title>Node22&#45;&gt;Node12</title>
<path fill="none" stroke="midnightblue" d="M297.89,-153.17C265.43,-142.44 227.12,-129.78 196.03,-119.51"/>
<polygon fill="midnightblue" stroke="midnightblue" points="297.18,-156.61 307.77,-156.43 299.37,-149.97 297.18,-156.61"/>
</g>
<!-- Node22&#45;&gt;Node15 -->
<g id="edge29" class="edge">
<title>Node22&#45;&gt;Node15</title>
<path fill="none" stroke="midnightblue" d="M441.44,-155.97C854.55,-93.22 965.36,-142.91 1379,-120 1444.96,-116.35 1519.68,-110.85 1574.73,-106.54"/>
<polygon fill="midnightblue" stroke="midnightblue" points="440.67,-152.55 431.31,-157.52 441.73,-159.47 440.67,-152.55"/>
</g>
<!-- Node23 -->
<g id="node23" class="node">
<title>Node23</title>
<g id="a_node23"><a xlink:href="geometry__optimization_8h.html" target="_top" xlink:title=" ">
<polygon fill="none" stroke="black" points="668.5,-78.5 668.5,-119.5 811.5,-119.5 811.5,-78.5 668.5,-78.5"/>
<text text-anchor="start" x="676.5" y="-107.5" font-family="Helvetica,sans-Serif" font-size="10.00">/home/runner/work/occ</text>
<text text-anchor="start" x="676.5" y="-96.5" font-family="Helvetica,sans-Serif" font-size="10.00">/occ/include/occ/driver</text>
<text text-anchor="middle" x="740" y="-85.5" font-family="Helvetica,sans-Serif" font-size="10.00">/geometry_optimization.h</text>
</a>
</g>
</g>
<!-- Node22&#45;&gt;Node23 -->
<g id="edge25" class="edge">
<title>Node22&#45;&gt;Node23</title>
<path fill="none" stroke="midnightblue" d="M440.94,-155.91C538.11,-135.23 565.49,-139.2 659,-120 661.98,-119.39 665.02,-118.74 668.08,-118.07"/>
<polygon fill="midnightblue" stroke="midnightblue" points="440.04,-152.53 431,-158.06 441.51,-159.37 440.04,-152.53"/>
</g>
<!-- Node24 -->
<g id="node24" class="node">
<title>Node24</title>
<g id="a_node24"><a xlink:href="single__point_8h.html" target="_top" xlink:title=" ">
<polygon fill="none" stroke="black" points="1242,-78.5 1242,-119.5 1370,-119.5 1370,-78.5 1242,-78.5"/>
<text text-anchor="start" x="1250" y="-107.5" font-family="Helvetica,sans-Serif" font-size="10.00">/home/runner/work/occ</text>
<text text-anchor="start" x="1250" y="-96.5" font-family="Helvetica,sans-Serif" font-size="10.00">/occ/include/occ/driver</text>
<text text-anchor="middle" x="1306" y="-85.5" font-family="Helvetica,sans-Serif" font-size="10.00">/single_point.h</text>
</a>
</g>
</g>
<!-- Node22&#45;&gt;Node24 -->
<g id="edge26" class="edge">
<title>Node22&#45;&gt;Node24</title>
<path fill="none" stroke="midnightblue" d="M441.39,-155.94C689.95,-115.11 757.22,-136.13 1005,-120 1086.66,-114.69 1180.77,-108.41 1241.71,-104.32"/>
<polygon fill="midnightblue" stroke="midnightblue" points="440.62,-152.52 431.33,-157.61 441.77,-159.43 440.62,-152.52"/>
</g>
<!-- Node25 -->
<g id="node25" class="node">
<title>Node25</title>
<g id="a_node25"><a xlink:href="qcschema_8h.html" target="_top" xlink:title=" ">
<polygon fill="none" stroke="black" points="829.5,-84 829.5,-114 996.5,-114 996.5,-84 829.5,-84"/>
<text text-anchor="start" x="837.5" y="-102" font-family="Helvetica,sans-Serif" font-size="10.00">/home/runner/work/occ</text>
<text text-anchor="middle" x="913" y="-91" font-family="Helvetica,sans-Serif" font-size="10.00">/occ/include/occ/io/qcschema.h</text>
</a>
</g>
</g>
<!-- Node22&#45;&gt;Node25 -->
<g id="edge30" class="edge">
<title>Node22&#45;&gt;Node25</title>
<path fill="none" stroke="midnightblue" d="M441.24,-155.94C608.65,-126.23 655.53,-145.39 820,-120 830.61,-118.36 841.83,-116.27 852.66,-114.05"/>
<polygon fill="midnightblue" stroke="midnightblue" points="440.57,-152.5 431.35,-157.72 441.81,-159.39 440.57,-152.5"/>
</g>
<!-- Node26 -->
<g id="node26" class="node">
<title>Node26</title>
<g id="a_node26"><a xlink:href="occ__pair_8h.html" target="_top" xlink:title=" ">
<polygon fill="none" stroke="black" points="230,-78.5 230,-119.5 358,-119.5 358,-78.5 230,-78.5"/>
<text text-anchor="start" x="238" y="-107.5" font-family="Helvetica,sans-Serif" font-size="10.00">/home/runner/work/occ</text>
<text text-anchor="start" x="238" y="-96.5" font-family="Helvetica,sans-Serif" font-size="10.00">/occ/include/occ/main</text>
<text text-anchor="middle" x="294" y="-85.5" font-family="Helvetica,sans-Serif" font-size="10.00">/occ_pair.h</text>
</a>
</g>
</g>
<!-- Node22&#45;&gt;Node26 -->
<g id="edge31" class="edge">
<title>Node22&#45;&gt;Node26</title>
<path fill="none" stroke="midnightblue" d="M341.26,-149.2C331.86,-139.42 321.41,-128.54 312.74,-119.51"/>
<polygon fill="midnightblue" stroke="midnightblue" points="338.75,-151.64 348.2,-156.43 343.8,-146.79 338.75,-151.64"/>
</g>
<!-- Node27 -->
<g id="node27" class="node">
<title>Node27</title>
<g id="a_node27"><a xlink:href="occ__scf_8h.html" target="_top" xlink:title=" ">
<polygon fill="none" stroke="black" points="376,-78.5 376,-119.5 504,-119.5 504,-78.5 376,-78.5"/>
<text text-anchor="start" x="384" y="-107.5" font-family="Helvetica,sans-Serif" font-size="10.00">/home/runner/work/occ</text>
<text text-anchor="start" x="384" y="-96.5" font-family="Helvetica,sans-Serif" font-size="10.00">/occ/include/occ/main</text>
<text text-anchor="middle" x="440" y="-85.5" font-family="Helvetica,sans-Serif" font-size="10.00">/occ_scf.h</text>
</a>
</g>
</g>
<!-- Node22&#45;&gt;Node27 -->
<g id="edge32" class="edge">
<title>Node22&#45;&gt;Node27</title>
<path fill="none" stroke="midnightblue" d="M392.74,-149.2C402.14,-139.42 412.59,-128.54 421.26,-119.51"/>
<polygon fill="midnightblue" stroke="midnightblue" points="390.2,-146.79 385.8,-156.43 395.25,-151.64 390.2,-146.79"/>
</g>
<!-- Node28 -->
<g id="node28" class="node">
<title>Node28</title>
<g id="a_node28"><a xlink:href="properties_8h.html" target="_top" xlink:title=" ">
<polygon fill="none" stroke="black" points="522,-78.5 522,-119.5 650,-119.5 650,-78.5 522,-78.5"/>
<text text-anchor="start" x="530" y="-107.5" font-family="Helvetica,sans-Serif" font-size="10.00">/home/runner/work/occ</text>
<text text-anchor="start" x="530" y="-96.5" font-family="Helvetica,sans-Serif" font-size="10.00">/occ/include/occ/main</text>
<text text-anchor="middle" x="586" y="-85.5" font-family="Helvetica,sans-Serif" font-size="10.00">/properties.h</text>
</a>
</g>
</g>
<!-- Node22&#45;&gt;Node28 -->
<g id="edge33" class="edge">
<title>Node22&#45;&gt;Node28</title>
<path fill="none" stroke="midnightblue" d="M433.2,-153.03C464.03,-142.33 500.32,-129.73 529.79,-119.51"/>
<polygon fill="midnightblue" stroke="midnightblue" points="431.7,-149.84 423.4,-156.43 433.99,-156.46 431.7,-149.84"/>
</g>
<!-- Node24&#45;&gt;Node7 -->
<g id="edge27" class="edge">
<title>Node24&#45;&gt;Node7</title>
<path fill="none" stroke="midnightblue" d="M1380.32,-87.3C1484.33,-72.33 1671.56,-45.38 1769.82,-31.24"/>
<polygon fill="midnightblue" stroke="midnightblue" points="1379.61,-83.87 1370.22,-88.76 1380.61,-90.8 1379.61,-83.87"/>
</g>
<!-- Node30 -->
<g id="node30" class="node">
<title>Node30</title>
<g id="a_node30"><a xlink:href="isosurface_8h.html" target="_top" xlink:title=" ">
<polygon fill="none" stroke="black" points="2456.5,-78.5 2456.5,-119.5 2603.5,-119.5 2603.5,-78.5 2456.5,-78.5"/>
<text text-anchor="start" x="2464.5" y="-107.5" font-family="Helvetica,sans-Serif" font-size="10.00">/home/runner/work/occ</text>
<text text-anchor="start" x="2464.5" y="-96.5" font-family="Helvetica,sans-Serif" font-size="10.00">/occ/include/occ/isosurface</text>
<text text-anchor="middle" x="2530" y="-85.5" font-family="Helvetica,sans-Serif" font-size="10.00">/isosurface.h</text>
</a>
</g>
</g>
<!-- Node29&#45;&gt;Node30 -->
<g id="edge35" class="edge">
<title>Node29&#45;&gt;Node30</title>
<path fill="none" stroke="midnightblue" d="M2530,-146.3C2530,-137.3 2530,-127.65 2530,-119.51"/>
<polygon fill="midnightblue" stroke="midnightblue" points="2526.5,-146.43 2530,-156.43 2533.5,-146.43 2526.5,-146.43"/>
</g>
</g>
</svg>
