<?xml version="1.0" encoding="UTF-8" standalone="no"?>
<!DOCTYPE svg PUBLIC "-//W3C//DTD SVG 1.1//EN"
 "http://www.w3.org/Graphics/SVG/1.1/DTD/svg11.dtd">
<!-- Generated by graphviz version 2.43.0 (0)
 -->
<!-- Title: /home/runner/work/occ/occ/include/occ/slater/slaterbasis.h Pages: 1 -->
<svg width="430pt" height="229pt"
 viewBox="0.00 0.00 430.00 229.00" xmlns="http://www.w3.org/2000/svg" xmlns:xlink="http://www.w3.org/1999/xlink">
<g id="graph0" class="graph" transform="scale(1 1) rotate(0) translate(4 225)">
<title>/home/runner/work/occ/occ/include/occ/slater/slaterbasis.h</title>
<!-- Node1 -->
<g id="node1" class="node">
<title>Node1</title>
<g id="a_node1"><a xlink:title=" ">
<polygon fill="#bfbfbf" stroke="black" points="220.5,-179.5 220.5,-220.5 348.5,-220.5 348.5,-179.5 220.5,-179.5"/>
<text text-anchor="start" x="228.5" y="-208.5" font-family="Helvetica,sans-Serif" font-size="10.00">/home/runner/work/occ</text>
<text text-anchor="start" x="228.5" y="-197.5" font-family="Helvetica,sans-Serif" font-size="10.00">/occ/include/occ/slater</text>
<text text-anchor="middle" x="284.5" y="-186.5" font-family="Helvetica,sans-Serif" font-size="10.00">/slaterbasis.h</text>
</a>
</g>
</g>
<!-- Node2 -->
<g id="node2" class="node">
<title>Node2</title>
<g id="a_node2"><a xlink:title=" ">
<polygon fill="none" stroke="#bfbfbf" points="0,-123.5 0,-142.5 143,-142.5 143,-123.5 0,-123.5"/>
<text text-anchor="middle" x="71.5" y="-130.5" font-family="Helvetica,sans-Serif" font-size="10.00">ankerl/unordered_dense.h</text>
</a>
</g>
</g>
<!-- Node1&#45;&gt;Node2 -->
<g id="edge1" class="edge">
<title>Node1&#45;&gt;Node2</title>
<path fill="none" stroke="midnightblue" d="M220.59,-179.5C184.37,-168.44 140.28,-154.99 109.48,-145.59"/>
<polygon fill="midnightblue" stroke="midnightblue" points="110.16,-142.14 99.57,-142.57 108.12,-148.83 110.16,-142.14"/>
</g>
<!-- Node3 -->
<g id="node3" class="node">
<title>Node3</title>
<g id="a_node3"><a xlink:href="atom_8h.html" target="_top" xlink:title=" ">
<polygon fill="none" stroke="black" points="161,-123.5 161,-142.5 256,-142.5 256,-123.5 161,-123.5"/>
<text text-anchor="middle" x="208.5" y="-130.5" font-family="Helvetica,sans-Serif" font-size="10.00">occ/core/atom.h</text>
</a>
</g>
</g>
<!-- Node1&#45;&gt;Node3 -->
<g id="edge2" class="edge">
<title>Node1&#45;&gt;Node3</title>
<path fill="none" stroke="midnightblue" d="M261.7,-179.5C250.38,-169.82 236.91,-158.3 226.36,-149.27"/>
<polygon fill="midnightblue" stroke="midnightblue" points="228.49,-146.49 218.62,-142.65 223.94,-151.81 228.49,-146.49"/>
</g>
<!-- Node4 -->
<g id="node4" class="node">
<title>Node4</title>
<g id="a_node4"><a xlink:href="linear__algebra_8h.html" target="_top" xlink:title=" ">
<polygon fill="none" stroke="black" points="177,-67.5 177,-86.5 316,-86.5 316,-67.5 177,-67.5"/>
<text text-anchor="middle" x="246.5" y="-74.5" font-family="Helvetica,sans-Serif" font-size="10.00">occ/core/linear_algebra.h</text>
</a>
</g>
</g>
<!-- Node1&#45;&gt;Node4 -->
<g id="edge7" class="edge">
<title>Node1&#45;&gt;Node4</title>
<path fill="none" stroke="midnightblue" d="M280.47,-179.4C277.08,-163.91 271.79,-141.83 265.5,-123 262.48,-113.95 258.44,-104.16 254.87,-96.04"/>
<polygon fill="midnightblue" stroke="midnightblue" points="258.01,-94.48 250.7,-86.81 251.63,-97.36 258.01,-94.48"/>
</g>
<!-- Node8 -->
<g id="node8" class="node">
<title>Node8</title>
<g id="a_node8"><a xlink:title=" ">
<polygon fill="none" stroke="#bfbfbf" points="312.5,-123.5 312.5,-142.5 356.5,-142.5 356.5,-123.5 312.5,-123.5"/>
<text text-anchor="middle" x="334.5" y="-130.5" font-family="Helvetica,sans-Serif" font-size="10.00">string</text>
</a>
</g>
</g>
<!-- Node1&#45;&gt;Node8 -->
<g id="edge8" class="edge">
<title>Node1&#45;&gt;Node8</title>
<path fill="none" stroke="midnightblue" d="M299.5,-179.5C306.58,-170.3 314.93,-159.44 321.71,-150.63"/>
<polygon fill="midnightblue" stroke="midnightblue" points="324.52,-152.71 327.84,-142.65 318.97,-148.44 324.52,-152.71"/>
</g>
<!-- Node9 -->
<g id="node9" class="node">
<title>Node9</title>
<g id="a_node9"><a xlink:title=" ">
<polygon fill="none" stroke="#bfbfbf" points="375,-123.5 375,-142.5 422,-142.5 422,-123.5 375,-123.5"/>
<text text-anchor="middle" x="398.5" y="-130.5" font-family="Helvetica,sans-Serif" font-size="10.00">vector</text>
</a>
</g>
</g>
<!-- Node1&#45;&gt;Node9 -->
<g id="edge9" class="edge">
<title>Node1&#45;&gt;Node9</title>
<path fill="none" stroke="midnightblue" d="M318.7,-179.5C336.69,-169.24 358.29,-156.93 374.49,-147.69"/>
<polygon fill="midnightblue" stroke="midnightblue" points="376.37,-150.65 383.32,-142.65 372.9,-144.57 376.37,-150.65"/>
</g>
<!-- Node3&#45;&gt;Node4 -->
<g id="edge3" class="edge">
<title>Node3&#45;&gt;Node4</title>
<path fill="none" stroke="midnightblue" d="M214.77,-123.08C220.14,-115.46 228.02,-104.26 234.58,-94.94"/>
<polygon fill="midnightblue" stroke="midnightblue" points="237.45,-96.94 240.34,-86.75 231.72,-92.91 237.45,-96.94"/>
</g>
<!-- Node5 -->
<g id="node5" class="node">
<title>Node5</title>
<g id="a_node5"><a xlink:title=" ">
<polygon fill="none" stroke="#bfbfbf" points="105,-6 105,-25 182,-25 182,-6 105,-6"/>
<text text-anchor="middle" x="143.5" y="-13" font-family="Helvetica,sans-Serif" font-size="10.00">Eigen/Dense</text>
</a>
</g>
</g>
<!-- Node4&#45;&gt;Node5 -->
<g id="edge4" class="edge">
<title>Node4&#45;&gt;Node5</title>
<path fill="none" stroke="midnightblue" d="M231.74,-67.48C214.84,-57.71 186.92,-41.58 167.01,-30.08"/>
<polygon fill="midnightblue" stroke="midnightblue" points="168.64,-26.98 158.23,-25.01 165.14,-33.04 168.64,-26.98"/>
</g>
<!-- Node6 -->
<g id="node6" class="node">
<title>Node6</title>
<g id="a_node6"><a xlink:title=" ">
<polygon fill="none" stroke="#bfbfbf" points="200,-6 200,-25 293,-25 293,-6 200,-6"/>
<text text-anchor="middle" x="246.5" y="-13" font-family="Helvetica,sans-Serif" font-size="10.00">Eigen/StdVector</text>
</a>
</g>
</g>
<!-- Node4&#45;&gt;Node6 -->
<g id="edge5" class="edge">
<title>Node4&#45;&gt;Node6</title>
<path fill="none" stroke="midnightblue" d="M246.5,-67.48C246.5,-59.08 246.5,-45.98 246.5,-35.16"/>
<polygon fill="midnightblue" stroke="midnightblue" points="250,-35.01 246.5,-25.01 243,-35.01 250,-35.01"/>
</g>
<!-- Node7 -->
<g id="node7" class="node">
<title>Node7</title>
<g id="a_node7"><a xlink:title=" ">
<polygon fill="none" stroke="#bfbfbf" points="311,-0.5 311,-30.5 418,-30.5 418,-0.5 311,-0.5"/>
<text text-anchor="start" x="319" y="-18.5" font-family="Helvetica,sans-Serif" font-size="10.00">occ/3rdparty/eigen</text>
<text text-anchor="middle" x="364.5" y="-7.5" font-family="Helvetica,sans-Serif" font-size="10.00">&#45;fmt/fmt.h</text>
</a>
</g>
</g>
<!-- Node4&#45;&gt;Node7 -->
<g id="edge6" class="edge">
<title>Node4&#45;&gt;Node7</title>
<path fill="none" stroke="midnightblue" d="M263.41,-67.48C280.06,-59.08 306.05,-45.97 327.51,-35.15"/>
<polygon fill="midnightblue" stroke="midnightblue" points="329.34,-38.15 336.69,-30.52 326.18,-31.9 329.34,-38.15"/>
</g>
</g>
</svg>
