<?xml version="1.0" encoding="UTF-8" standalone="no"?>
<!DOCTYPE svg PUBLIC "-//W3C//DTD SVG 1.1//EN"
 "http://www.w3.org/Graphics/SVG/1.1/DTD/svg11.dtd">
<!-- Generated by graphviz version 2.43.0 (0)
 -->
<!-- Title: /home/runner/work/occ/occ/include/occ/slater/slaterbasis.h Pages: 1 -->
<svg width="669pt" height="269pt"
 viewBox="0.00 0.00 669.00 269.00" xmlns="http://www.w3.org/2000/svg" xmlns:xlink="http://www.w3.org/1999/xlink">
<g id="graph0" class="graph" transform="scale(1 1) rotate(0) translate(4 265)">
<title>/home/runner/work/occ/occ/include/occ/slater/slaterbasis.h</title>
<!-- Node1 -->
<g id="Node000001" class="node">
<title>Node1</title>
<g id="a_Node000001"><a xlink:title=" ">
<polygon fill="#999999" stroke="#666666" points="347,-261 219,-261 219,-220 347,-220 347,-261"/>
<text text-anchor="start" x="227" y="-249" font-family="Helvetica,sans-Serif" font-size="10.00">/home/runner/work/occ</text>
<text text-anchor="start" x="227" y="-238" font-family="Helvetica,sans-Serif" font-size="10.00">/occ/include/occ/slater</text>
<text text-anchor="middle" x="283" y="-227" font-family="Helvetica,sans-Serif" font-size="10.00">/slaterbasis.h</text>
</a>
</g>
</g>
<!-- Node2 -->
<g id="Node000002" class="node">
<title>Node2</title>
<g id="a_Node000002"><a xlink:href="dft_2hirshfeld_8h.html" target="_top" xlink:title=" ">
<polygon fill="white" stroke="#666666" points="128,-184 0,-184 0,-143 128,-143 128,-184"/>
<text text-anchor="start" x="8" y="-172" font-family="Helvetica,sans-Serif" font-size="10.00">/home/runner/work/occ</text>
<text text-anchor="start" x="8" y="-161" font-family="Helvetica,sans-Serif" font-size="10.00">/occ/include/occ/dft</text>
<text text-anchor="middle" x="64" y="-150" font-family="Helvetica,sans-Serif" font-size="10.00">/hirshfeld.h</text>
</a>
</g>
</g>
<!-- Node1&#45;&gt;Node2 -->
<g id="edge1_Node000001_Node000002" class="edge">
<title>Node1&#45;&gt;Node2</title>
<g id="a_edge1_Node000001_Node000002"><a xlink:title=" ">
<path fill="none" stroke="#63b8ff" d="M216.35,-216.67C185.92,-206.25 150.24,-194.03 121.06,-184.04"/>
<polygon fill="#63b8ff" stroke="#63b8ff" points="215.44,-220.06 226.03,-219.99 217.71,-213.44 215.44,-220.06"/>
</a>
</g>
</g>
<!-- Node3 -->
<g id="Node000003" class="node">
<title>Node3</title>
<g id="a_Node000003"><a xlink:href="voronoi__charges_8h.html" target="_top" xlink:title=" ">
<polygon fill="white" stroke="#666666" points="274,-184 146,-184 146,-143 274,-143 274,-184"/>
<text text-anchor="start" x="154" y="-172" font-family="Helvetica,sans-Serif" font-size="10.00">/home/runner/work/occ</text>
<text text-anchor="start" x="154" y="-161" font-family="Helvetica,sans-Serif" font-size="10.00">/occ/include/occ/dft</text>
<text text-anchor="middle" x="210" y="-150" font-family="Helvetica,sans-Serif" font-size="10.00">/voronoi_charges.h</text>
</a>
</g>
</g>
<!-- Node1&#45;&gt;Node3 -->
<g id="edge2_Node000001_Node000003" class="edge">
<title>Node1&#45;&gt;Node3</title>
<g id="a_edge2_Node000001_Node000003"><a xlink:title=" ">
<path fill="none" stroke="#63b8ff" d="M256.73,-212.51C247.58,-203.11 237.5,-192.76 229.05,-184.07"/>
<polygon fill="#63b8ff" stroke="#63b8ff" points="254.34,-215.07 263.82,-219.79 259.35,-210.19 254.34,-215.07"/>
</a>
</g>
</g>
<!-- Node4 -->
<g id="Node000004" class="node">
<title>Node4</title>
<g id="a_Node000004"><a xlink:href="thakkar__basis_8h.html" target="_top" xlink:title=" ">
<polygon fill="white" stroke="#666666" points="420,-184 292,-184 292,-143 420,-143 420,-184"/>
<text text-anchor="start" x="300" y="-172" font-family="Helvetica,sans-Serif" font-size="10.00">/home/runner/work/occ</text>
<text text-anchor="start" x="300" y="-161" font-family="Helvetica,sans-Serif" font-size="10.00">/occ/include/occ/slater</text>
<text text-anchor="middle" x="356" y="-150" font-family="Helvetica,sans-Serif" font-size="10.00">/thakkar_basis.h</text>
</a>
</g>
</g>
<!-- Node1&#45;&gt;Node4 -->
<g id="edge3_Node000001_Node000004" class="edge">
<title>Node1&#45;&gt;Node4</title>
<g id="a_edge3_Node000001_Node000004"><a xlink:title=" ">
<path fill="none" stroke="#63b8ff" d="M309.27,-212.51C318.42,-203.11 328.5,-192.76 336.95,-184.07"/>
<polygon fill="#63b8ff" stroke="#63b8ff" points="306.65,-210.19 302.18,-219.79 311.66,-215.07 306.65,-210.19"/>
</a>
</g>
</g>
<!-- Node5 -->
<g id="Node000005" class="node">
<title>Node5</title>
<g id="a_Node000005"><a xlink:href="xdm_8h.html" target="_top" xlink:title=" ">
<polygon fill="white" stroke="#666666" points="590,-178.5 438,-178.5 438,-148.5 590,-148.5 590,-178.5"/>
<text text-anchor="start" x="446" y="-166.5" font-family="Helvetica,sans-Serif" font-size="10.00">/home/runner/work/occ</text>
<text text-anchor="middle" x="514" y="-155.5" font-family="Helvetica,sans-Serif" font-size="10.00">/occ/include/occ/xdm/xdm.h</text>
</a>
</g>
</g>
<!-- Node1&#45;&gt;Node5 -->
<g id="edge4_Node000001_Node000005" class="edge">
<title>Node1&#45;&gt;Node5</title>
<g id="a_edge4_Node000001_Node000005"><a xlink:title=" ">
<path fill="none" stroke="#63b8ff" d="M352.66,-216.88C391.02,-204.43 437.44,-189.36 470.63,-178.58"/>
<polygon fill="#63b8ff" stroke="#63b8ff" points="351.52,-213.57 343.09,-219.99 353.68,-220.23 351.52,-213.57"/>
</a>
</g>
</g>
<!-- Node6 -->
<g id="Node000006" class="node">
<title>Node6</title>
<g id="a_Node000006"><a xlink:href="gradients_8h.html" target="_top" xlink:title=" ">
<polygon fill="white" stroke="#666666" points="515,-101.5 345,-101.5 345,-71.5 515,-71.5 515,-101.5"/>
<text text-anchor="start" x="353" y="-89.5" font-family="Helvetica,sans-Serif" font-size="10.00">/home/runner/work/occ</text>
<text text-anchor="middle" x="430" y="-78.5" font-family="Helvetica,sans-Serif" font-size="10.00">/occ/include/occ/qm/gradients.h</text>
</a>
</g>
</g>
<!-- Node5&#45;&gt;Node6 -->
<g id="edge5_Node000005_Node000006" class="edge">
<title>Node5&#45;&gt;Node6</title>
<g id="a_edge5_Node000005_Node000006"><a xlink:title=" ">
<path fill="none" stroke="#63b8ff" d="M490.67,-141.67C476.35,-128.88 458.38,-112.84 445.73,-101.54"/>
<polygon fill="#63b8ff" stroke="#63b8ff" points="488.41,-144.34 498.2,-148.39 493.07,-139.12 488.41,-144.34"/>
</a>
</g>
</g>
<!-- Node8 -->
<g id="Node000008" class="node">
<title>Node8</title>
<g id="a_Node000008"><a xlink:href="xdm__parameters_8h.html" target="_top" xlink:title=" ">
<polygon fill="white" stroke="#666666" points="661,-107 533,-107 533,-66 661,-66 661,-107"/>
<text text-anchor="start" x="541" y="-95" font-family="Helvetica,sans-Serif" font-size="10.00">/home/runner/work/occ</text>
<text text-anchor="start" x="541" y="-84" font-family="Helvetica,sans-Serif" font-size="10.00">/occ/include/occ/xdm</text>
<text text-anchor="middle" x="597" y="-73" font-family="Helvetica,sans-Serif" font-size="10.00">/xdm_parameters.h</text>
</a>
</g>
</g>
<!-- Node5&#45;&gt;Node8 -->
<g id="edge7_Node000005_Node000008" class="edge">
<title>Node5&#45;&gt;Node8</title>
<g id="a_edge7_Node000005_Node000008"><a xlink:title=" ">
<path fill="none" stroke="#63b8ff" d="M537.37,-141.38C549.23,-130.66 563.56,-117.72 575.19,-107.2"/>
<polygon fill="#63b8ff" stroke="#63b8ff" points="534.68,-139.09 529.61,-148.39 539.38,-144.29 534.68,-139.09"/>
</a>
</g>
</g>
<!-- Node7 -->
<g id="Node000007" class="node">
<title>Node7</title>
<g id="a_Node000007"><a xlink:href="hessians_8h.html" target="_top" xlink:title=" ">
<polygon fill="white" stroke="#666666" points="513.5,-30 346.5,-30 346.5,0 513.5,0 513.5,-30"/>
<text text-anchor="start" x="354.5" y="-18" font-family="Helvetica,sans-Serif" font-size="10.00">/home/runner/work/occ</text>
<text text-anchor="middle" x="430" y="-7" font-family="Helvetica,sans-Serif" font-size="10.00">/occ/include/occ/qm/hessians.h</text>
</a>
</g>
</g>
<!-- Node6&#45;&gt;Node7 -->
<g id="edge6_Node000006_Node000007" class="edge">
<title>Node6&#45;&gt;Node7</title>
<g id="a_edge6_Node000006_Node000007"><a xlink:title=" ">
<path fill="none" stroke="#63b8ff" d="M430,-61.25C430,-50.81 430,-38.99 430,-30.04"/>
<polygon fill="#63b8ff" stroke="#63b8ff" points="426.5,-61.44 430,-71.44 433.5,-61.44 426.5,-61.44"/>
</a>
</g>
</g>
</g>
</svg>
