<?xml version="1.0" encoding="UTF-8" standalone="no"?>
<!DOCTYPE svg PUBLIC "-//W3C//DTD SVG 1.1//EN"
 "http://www.w3.org/Graphics/SVG/1.1/DTD/svg11.dtd">
<!-- Generated by graphviz version 2.43.0 (0)
 -->
<!-- Title: /home/runner/work/occ/occ/include/occ/solvent/smd_parameters.h Pages: 1 -->
<svg width="388pt" height="362pt"
 viewBox="0.00 0.00 387.50 362.00" xmlns="http://www.w3.org/2000/svg" xmlns:xlink="http://www.w3.org/1999/xlink">
<g id="graph0" class="graph" transform="scale(1 1) rotate(0) translate(4 358)">
<title>/home/runner/work/occ/occ/include/occ/solvent/smd_parameters.h</title>
<!-- Node1 -->
<g id="node1" class="node">
<title>Node1</title>
<g id="a_node1"><a xlink:title=" ">
<polygon fill="#bfbfbf" stroke="black" points="151.5,-312.5 151.5,-353.5 284.5,-353.5 284.5,-312.5 151.5,-312.5"/>
<text text-anchor="start" x="159.5" y="-341.5" font-family="Helvetica,sans-Serif" font-size="10.00">/home/runner/work/occ</text>
<text text-anchor="start" x="159.5" y="-330.5" font-family="Helvetica,sans-Serif" font-size="10.00">/occ/include/occ/solvent</text>
<text text-anchor="middle" x="218" y="-319.5" font-family="Helvetica,sans-Serif" font-size="10.00">/smd_parameters.h</text>
</a>
</g>
</g>
<!-- Node2 -->
<g id="node2" class="node">
<title>Node2</title>
<g id="a_node2"><a xlink:href="solvent__json_8h.html" target="_top" xlink:title=" ">
<polygon fill="none" stroke="black" points="44.5,-234.5 44.5,-275.5 189.5,-275.5 189.5,-234.5 44.5,-234.5"/>
<text text-anchor="start" x="52.5" y="-263.5" font-family="Helvetica,sans-Serif" font-size="10.00">/home/runner/work/occ</text>
<text text-anchor="start" x="52.5" y="-252.5" font-family="Helvetica,sans-Serif" font-size="10.00">/occ/include/occ/io/solvent</text>
<text text-anchor="middle" x="117" y="-241.5" font-family="Helvetica,sans-Serif" font-size="10.00">_json.h</text>
</a>
</g>
</g>
<!-- Node1&#45;&gt;Node2 -->
<g id="edge1" class="edge">
<title>Node1&#45;&gt;Node2</title>
<path fill="none" stroke="midnightblue" d="M183.91,-306.35C170.52,-296.27 155.4,-284.89 142.92,-275.51"/>
<polygon fill="midnightblue" stroke="midnightblue" points="181.9,-309.21 191.99,-312.43 186.1,-303.62 181.9,-309.21"/>
</g>
<!-- Node3 -->
<g id="node3" class="node">
<title>Node3</title>
<g id="a_node3"><a xlink:href="parameters_8h.html" target="_top" xlink:title=" ">
<polygon fill="none" stroke="black" points="100.5,-156.5 100.5,-197.5 233.5,-197.5 233.5,-156.5 100.5,-156.5"/>
<text text-anchor="start" x="108.5" y="-185.5" font-family="Helvetica,sans-Serif" font-size="10.00">/home/runner/work/occ</text>
<text text-anchor="start" x="108.5" y="-174.5" font-family="Helvetica,sans-Serif" font-size="10.00">/occ/include/occ/solvent</text>
<text text-anchor="middle" x="167" y="-163.5" font-family="Helvetica,sans-Serif" font-size="10.00">/parameters.h</text>
</a>
</g>
</g>
<!-- Node1&#45;&gt;Node3 -->
<g id="edge7" class="edge">
<title>Node1&#45;&gt;Node3</title>
<path fill="none" stroke="midnightblue" d="M214.36,-302.4C211.34,-282.61 206.2,-256.23 198,-234 193.31,-221.28 186.05,-207.97 179.73,-197.51"/>
<polygon fill="midnightblue" stroke="midnightblue" points="210.9,-302.96 215.78,-312.37 217.83,-301.97 210.9,-302.96"/>
</g>
<!-- Node7 -->
<g id="node7" class="node">
<title>Node7</title>
<g id="a_node7"><a xlink:href="draco_8h.html" target="_top" xlink:title=" ">
<polygon fill="none" stroke="black" points="246.5,-234.5 246.5,-275.5 379.5,-275.5 379.5,-234.5 246.5,-234.5"/>
<text text-anchor="start" x="254.5" y="-263.5" font-family="Helvetica,sans-Serif" font-size="10.00">/home/runner/work/occ</text>
<text text-anchor="start" x="254.5" y="-252.5" font-family="Helvetica,sans-Serif" font-size="10.00">/occ/include/occ/solvent</text>
<text text-anchor="middle" x="313" y="-241.5" font-family="Helvetica,sans-Serif" font-size="10.00">/draco.h</text>
</a>
</g>
</g>
<!-- Node1&#45;&gt;Node7 -->
<g id="edge6" class="edge">
<title>Node1&#45;&gt;Node7</title>
<path fill="none" stroke="midnightblue" d="M250.42,-306.06C262.93,-296.06 276.99,-284.8 288.62,-275.51"/>
<polygon fill="midnightblue" stroke="midnightblue" points="248.09,-303.45 242.46,-312.43 252.46,-308.91 248.09,-303.45"/>
</g>
<!-- Node2&#45;&gt;Node3 -->
<g id="edge2" class="edge">
<title>Node2&#45;&gt;Node3</title>
<path fill="none" stroke="midnightblue" d="M135.39,-226.05C141.63,-216.57 148.46,-206.18 154.17,-197.51"/>
<polygon fill="midnightblue" stroke="midnightblue" points="132.45,-224.15 129.88,-234.43 138.3,-228 132.45,-224.15"/>
</g>
<!-- Node4 -->
<g id="node4" class="node">
<title>Node4</title>
<g id="a_node4"><a xlink:href="smd_8h.html" target="_top" xlink:title=" ">
<polygon fill="none" stroke="black" points="0,-84 0,-114 166,-114 166,-84 0,-84"/>
<text text-anchor="start" x="8" y="-102" font-family="Helvetica,sans-Serif" font-size="10.00">/home/runner/work/occ</text>
<text text-anchor="middle" x="83" y="-91" font-family="Helvetica,sans-Serif" font-size="10.00">/occ/include/occ/solvent/smd.h</text>
</a>
</g>
</g>
<!-- Node3&#45;&gt;Node4 -->
<g id="edge3" class="edge">
<title>Node3&#45;&gt;Node4</title>
<path fill="none" stroke="midnightblue" d="M137.89,-149.66C124.74,-137.76 109.72,-124.18 98.72,-114.23"/>
<polygon fill="midnightblue" stroke="midnightblue" points="135.6,-152.31 145.37,-156.43 140.3,-147.12 135.6,-152.31"/>
</g>
<!-- Node5 -->
<g id="node5" class="node">
<title>Node5</title>
<g id="a_node5"><a xlink:href="solvation__correction_8h.html" target="_top" xlink:title=" ">
<polygon fill="none" stroke="black" points="184.5,-78.5 184.5,-119.5 317.5,-119.5 317.5,-78.5 184.5,-78.5"/>
<text text-anchor="start" x="192.5" y="-107.5" font-family="Helvetica,sans-Serif" font-size="10.00">/home/runner/work/occ</text>
<text text-anchor="start" x="192.5" y="-96.5" font-family="Helvetica,sans-Serif" font-size="10.00">/occ/include/occ/solvent</text>
<text text-anchor="middle" x="251" y="-85.5" font-family="Helvetica,sans-Serif" font-size="10.00">/solvation_correction.h</text>
</a>
</g>
</g>
<!-- Node3&#45;&gt;Node5 -->
<g id="edge4" class="edge">
<title>Node3&#45;&gt;Node5</title>
<path fill="none" stroke="midnightblue" d="M196.3,-149.49C207.2,-139.63 219.36,-128.63 229.44,-119.51"/>
<polygon fill="midnightblue" stroke="midnightblue" points="193.7,-147.12 188.63,-156.43 198.4,-152.31 193.7,-147.12"/>
</g>
<!-- Node6 -->
<g id="node6" class="node">
<title>Node6</title>
<g id="a_node6"><a xlink:href="smd__solvation_8h.html" target="_top" xlink:title=" ">
<polygon fill="none" stroke="black" points="185,-0.5 185,-41.5 317,-41.5 317,-0.5 185,-0.5"/>
<text text-anchor="start" x="193" y="-29.5" font-family="Helvetica,sans-Serif" font-size="10.00">/home/runner/work/occ</text>
<text text-anchor="start" x="193" y="-18.5" font-family="Helvetica,sans-Serif" font-size="10.00">/occ/include/occ/cg/smd</text>
<text text-anchor="middle" x="251" y="-7.5" font-family="Helvetica,sans-Serif" font-size="10.00">_solvation.h</text>
</a>
</g>
</g>
<!-- Node5&#45;&gt;Node6 -->
<g id="edge5" class="edge">
<title>Node5&#45;&gt;Node6</title>
<path fill="none" stroke="midnightblue" d="M251,-68.3C251,-59.3 251,-49.65 251,-41.51"/>
<polygon fill="midnightblue" stroke="midnightblue" points="247.5,-68.43 251,-78.43 254.5,-68.43 247.5,-68.43"/>
</g>
</g>
</svg>
