<?xml version="1.0" encoding="UTF-8" standalone="no"?>
<!DOCTYPE svg PUBLIC "-//W3C//DTD SVG 1.1//EN"
 "http://www.w3.org/Graphics/SVG/1.1/DTD/svg11.dtd">
<!-- Generated by graphviz version 2.43.0 (0)
 -->
<!-- Title: /home/runner/work/occ/occ/include/occ/solvent/solvation_correction.h Pages: 1 -->
<svg width="1619pt" height="324pt"
 viewBox="0.00 0.00 1619.00 324.00" xmlns="http://www.w3.org/2000/svg" xmlns:xlink="http://www.w3.org/1999/xlink">
<g id="graph0" class="graph" transform="scale(1 1) rotate(0) translate(4 320)">
<title>/home/runner/work/occ/occ/include/occ/solvent/solvation_correction.h</title>
<!-- Node1 -->
<g id="Node000001" class="node">
<title>Node1</title>
<g id="a_Node000001"><a xlink:title=" ">
<polygon fill="#999999" stroke="#666666" points="869.5,-316 736.5,-316 736.5,-275 869.5,-275 869.5,-316"/>
<text text-anchor="start" x="744.5" y="-304" font-family="Helvetica,sans-Serif" font-size="10.00">/home/runner/work/occ</text>
<text text-anchor="start" x="744.5" y="-293" font-family="Helvetica,sans-Serif" font-size="10.00">/occ/include/occ/solvent</text>
<text text-anchor="middle" x="803" y="-282" font-family="Helvetica,sans-Serif" font-size="10.00">/solvation_correction.h</text>
</a>
</g>
</g>
<!-- Node2 -->
<g id="Node000002" class="node">
<title>Node2</title>
<g id="a_Node000002"><a xlink:title=" ">
<polygon fill="#e0e0e0" stroke="#999999" points="778,-129 736,-129 736,-110 778,-110 778,-129"/>
<text text-anchor="middle" x="757" y="-117" font-family="Helvetica,sans-Serif" font-size="10.00">array</text>
</a>
</g>
</g>
<!-- Node1&#45;&gt;Node2 -->
<g id="edge1_Node000001_Node000002" class="edge">
<title>Node1&#45;&gt;Node2</title>
<g id="a_edge1_Node000001_Node000002"><a xlink:title=" ">
<path fill="none" stroke="#63b8ff" d="M797.81,-274.88C788.86,-241.02 770.64,-172.09 761.89,-139.01"/>
<polygon fill="#63b8ff" stroke="#63b8ff" points="765.26,-138.05 759.32,-129.27 758.49,-139.84 765.26,-138.05"/>
</a>
</g>
</g>
<!-- Node3 -->
<g id="Node000003" class="node">
<title>Node3</title>
<g id="a_Node000003"><a xlink:href="atom_8h.html" target="_top" xlink:title=" ">
<polygon fill="white" stroke="#666666" points="477.5,-129 382.5,-129 382.5,-110 477.5,-110 477.5,-129"/>
<text text-anchor="middle" x="430" y="-117" font-family="Helvetica,sans-Serif" font-size="10.00">occ/core/atom.h</text>
</a>
</g>
</g>
<!-- Node1&#45;&gt;Node3 -->
<g id="edge2_Node000001_Node000003" class="edge">
<title>Node1&#45;&gt;Node3</title>
<g id="a_edge2_Node000001_Node000003"><a xlink:title=" ">
<path fill="none" stroke="#63b8ff" d="M736.34,-284.42C639.31,-268.22 466.72,-233.18 430,-184 420.53,-171.31 421.68,-152.88 424.52,-139.14"/>
<polygon fill="#63b8ff" stroke="#63b8ff" points="427.95,-139.87 426.99,-129.32 421.16,-138.16 427.95,-139.87"/>
</a>
</g>
</g>
<!-- Node8 -->
<g id="Node000008" class="node">
<title>Node8</title>
<g id="a_Node000008"><a xlink:href="energy__components_8h.html" target="_top" xlink:title=" ">
<polygon fill="white" stroke="#666666" points="1037,-239 869,-239 869,-220 1037,-220 1037,-239"/>
<text text-anchor="middle" x="953" y="-227" font-family="Helvetica,sans-Serif" font-size="10.00">occ/core/energy_components.h</text>
</a>
</g>
</g>
<!-- Node1&#45;&gt;Node8 -->
<g id="edge7_Node000001_Node000008" class="edge">
<title>Node1&#45;&gt;Node8</title>
<g id="a_edge7_Node000001_Node000008"><a xlink:title=" ">
<path fill="none" stroke="#63b8ff" d="M848.82,-274.95C873.07,-264.6 902.13,-252.2 923.4,-243.13"/>
<polygon fill="#63b8ff" stroke="#63b8ff" points="925.04,-246.24 932.86,-239.09 922.29,-239.8 925.04,-246.24"/>
</a>
</g>
</g>
<!-- Node12 -->
<g id="Node000012" class="node">
<title>Node12</title>
<g id="a_Node000012"><a xlink:href="log_8h.html" target="_top" xlink:title=" ">
<polygon fill="white" stroke="#666666" points="1463,-129 1379,-129 1379,-110 1463,-110 1463,-129"/>
<text text-anchor="middle" x="1421" y="-117" font-family="Helvetica,sans-Serif" font-size="10.00">occ/core/log.h</text>
</a>
</g>
</g>
<!-- Node1&#45;&gt;Node12 -->
<g id="edge11_Node000001_Node000012" class="edge">
<title>Node1&#45;&gt;Node12</title>
<g id="a_edge11_Node000001_Node000012"><a xlink:title=" ">
<path fill="none" stroke="#63b8ff" d="M869.88,-292.6C988.19,-288.33 1228.98,-275.33 1304,-239 1351.95,-215.78 1391.49,-164.59 1409.88,-137.73"/>
<polygon fill="#63b8ff" stroke="#63b8ff" points="1412.85,-139.59 1415.49,-129.32 1407.03,-135.7 1412.85,-139.59"/>
</a>
</g>
</g>
<!-- Node16 -->
<g id="Node000016" class="node">
<title>Node16</title>
<g id="a_Node000016"><a xlink:href="timings_8h.html" target="_top" xlink:title=" ">
<polygon fill="white" stroke="#666666" points="940,-129 834,-129 834,-110 940,-110 940,-129"/>
<text text-anchor="middle" x="887" y="-117" font-family="Helvetica,sans-Serif" font-size="10.00">occ/core/timings.h</text>
</a>
</g>
</g>
<!-- Node1&#45;&gt;Node16 -->
<g id="edge16_Node000001_Node000016" class="edge">
<title>Node1&#45;&gt;Node16</title>
<g id="a_edge16_Node000001_Node000016"><a xlink:title=" ">
<path fill="none" stroke="#63b8ff" d="M812.38,-274.72C824.45,-249.28 846.13,-203.78 865,-165 869.34,-156.07 874.23,-146.17 878.29,-137.98"/>
<polygon fill="#63b8ff" stroke="#63b8ff" points="881.43,-139.53 882.75,-129.02 875.17,-136.41 881.43,-139.53"/>
</a>
</g>
</g>
<!-- Node18 -->
<g id="Node000018" class="node">
<title>Node18</title>
<g id="a_Node000018"><a xlink:href="units_8h.html" target="_top" xlink:title=" ">
<polygon fill="white" stroke="#666666" points="1510.5,-239 1417.5,-239 1417.5,-220 1510.5,-220 1510.5,-239"/>
<text text-anchor="middle" x="1464" y="-227" font-family="Helvetica,sans-Serif" font-size="10.00">occ/core/units.h</text>
</a>
</g>
</g>
<!-- Node1&#45;&gt;Node18 -->
<g id="edge19_Node000001_Node000018" class="edge">
<title>Node1&#45;&gt;Node18</title>
<g id="a_edge19_Node000001_Node000018"><a xlink:title=" ">
<path fill="none" stroke="#63b8ff" d="M869.69,-289.34C980.56,-280.54 1209.72,-261.39 1403,-239 1404.46,-238.83 1405.94,-238.66 1407.43,-238.47"/>
<polygon fill="#63b8ff" stroke="#63b8ff" points="1407.92,-241.94 1417.4,-237.22 1407.04,-235 1407.92,-241.94"/>
</a>
</g>
</g>
<!-- Node21 -->
<g id="Node000021" class="node">
<title>Node21</title>
<g id="a_Node000021"><a xlink:href="expectation_8h.html" target="_top" xlink:title=" ">
<polygon fill="white" stroke="#666666" points="361,-239 239,-239 239,-220 361,-220 361,-239"/>
<text text-anchor="middle" x="300" y="-227" font-family="Helvetica,sans-Serif" font-size="10.00">occ/qm/expectation.h</text>
</a>
</g>
</g>
<!-- Node1&#45;&gt;Node21 -->
<g id="edge22_Node000001_Node000021" class="edge">
<title>Node1&#45;&gt;Node21</title>
<g id="a_edge22_Node000001_Node000021"><a xlink:title=" ">
<path fill="none" stroke="#63b8ff" d="M736.47,-286.03C641.69,-273.98 468.56,-251.95 371.26,-239.57"/>
<polygon fill="#63b8ff" stroke="#63b8ff" points="371.59,-236.08 361.23,-238.29 370.7,-243.02 371.59,-236.08"/>
</a>
</g>
</g>
<!-- Node30 -->
<g id="Node000030" class="node">
<title>Node30</title>
<g id="a_Node000030"><a xlink:href="mo_8h.html" target="_top" xlink:title=" ">
<polygon fill="white" stroke="#666666" points="221,-239 141,-239 141,-220 221,-220 221,-239"/>
<text text-anchor="middle" x="181" y="-227" font-family="Helvetica,sans-Serif" font-size="10.00">occ/qm/mo.h</text>
</a>
</g>
</g>
<!-- Node1&#45;&gt;Node30 -->
<g id="edge38_Node000001_Node000030" class="edge">
<title>Node1&#45;&gt;Node30</title>
<g id="a_edge38_Node000001_Node000030"><a xlink:title=" ">
<path fill="none" stroke="#63b8ff" d="M736.2,-289.67C631,-281.7 420.08,-264.26 231.19,-239.06"/>
<polygon fill="#63b8ff" stroke="#63b8ff" points="231.45,-235.57 221.07,-237.7 230.52,-242.51 231.45,-235.57"/>
</a>
</g>
</g>
<!-- Node32 -->
<g id="Node000032" class="node">
<title>Node32</title>
<g id="a_Node000032"><a xlink:href="shell_8h.html" target="_top" xlink:title=" ">
<polygon fill="white" stroke="#666666" points="713.5,-239 626.5,-239 626.5,-220 713.5,-220 713.5,-239"/>
<text text-anchor="middle" x="670" y="-227" font-family="Helvetica,sans-Serif" font-size="10.00">occ/qm/shell.h</text>
</a>
</g>
</g>
<!-- Node1&#45;&gt;Node32 -->
<g id="edge42_Node000001_Node000032" class="edge">
<title>Node1&#45;&gt;Node32</title>
<g id="a_edge42_Node000001_Node000032"><a xlink:title=" ">
<path fill="none" stroke="#63b8ff" d="M762.37,-274.95C741.17,-264.75 715.8,-252.54 697.02,-243.5"/>
<polygon fill="#63b8ff" stroke="#63b8ff" points="698.38,-240.27 687.85,-239.09 695.35,-246.58 698.38,-240.27"/>
</a>
</g>
</g>
<!-- Node34 -->
<g id="Node000034" class="node">
<title>Node34</title>
<g id="a_Node000034"><a xlink:href="cosmo_8h.html" target="_top" xlink:title=" ">
<polygon fill="white" stroke="#666666" points="116,-239 0,-239 0,-220 116,-220 116,-239"/>
<text text-anchor="middle" x="58" y="-227" font-family="Helvetica,sans-Serif" font-size="10.00">occ/solvent/cosmo.h</text>
</a>
</g>
</g>
<!-- Node1&#45;&gt;Node34 -->
<g id="edge53_Node000001_Node000034" class="edge">
<title>Node1&#45;&gt;Node34</title>
<g id="a_edge53_Node000001_Node000034"><a xlink:title=" ">
<path fill="none" stroke="#63b8ff" d="M736.27,-289.69C615.58,-280.83 353.02,-260.83 132,-239 130.07,-238.81 128.11,-238.61 126.14,-238.41"/>
<polygon fill="#63b8ff" stroke="#63b8ff" points="126.46,-234.92 116.15,-237.36 125.73,-241.89 126.46,-234.92"/>
</a>
</g>
</g>
<!-- Node35 -->
<g id="Node000035" class="node">
<title>Node35</title>
<g id="a_Node000035"><a xlink:href="parameters_8h.html" target="_top" xlink:title=" ">
<polygon fill="white" stroke="#666666" points="1295,-239 1155,-239 1155,-220 1295,-220 1295,-239"/>
<text text-anchor="middle" x="1225" y="-227" font-family="Helvetica,sans-Serif" font-size="10.00">occ/solvent/parameters.h</text>
</a>
</g>
</g>
<!-- Node1&#45;&gt;Node35 -->
<g id="edge55_Node000001_Node000035" class="edge">
<title>Node1&#45;&gt;Node35</title>
<g id="a_edge55_Node000001_Node000035"><a xlink:title=" ">
<path fill="none" stroke="#63b8ff" d="M869.87,-284.36C948.94,-272.37 1079.74,-252.53 1158.6,-240.57"/>
<polygon fill="#63b8ff" stroke="#63b8ff" points="1159.54,-243.97 1168.9,-239.01 1158.49,-237.05 1159.54,-243.97"/>
</a>
</g>
</g>
<!-- Node4 -->
<g id="Node000004" class="node">
<title>Node4</title>
<g id="a_Node000004"><a xlink:href="linear__algebra_8h.html" target="_top" xlink:title=" ">
<polygon fill="white" stroke="#666666" points="473.5,-74 334.5,-74 334.5,-55 473.5,-55 473.5,-74"/>
<text text-anchor="middle" x="404" y="-62" font-family="Helvetica,sans-Serif" font-size="10.00">occ/core/linear_algebra.h</text>
</a>
</g>
</g>
<!-- Node3&#45;&gt;Node4 -->
<g id="edge3_Node000003_Node000004" class="edge">
<title>Node3&#45;&gt;Node4</title>
<g id="a_edge3_Node000003_Node000004"><a xlink:title=" ">
<path fill="none" stroke="#63b8ff" d="M425.71,-109.75C422.19,-102.57 417.09,-92.18 412.72,-83.27"/>
<polygon fill="#63b8ff" stroke="#63b8ff" points="415.76,-81.53 408.21,-74.09 409.48,-84.61 415.76,-81.53"/>
</a>
</g>
</g>
<!-- Node5 -->
<g id="Node000005" class="node">
<title>Node5</title>
<g id="a_Node000005"><a xlink:title=" ">
<polygon fill="#e0e0e0" stroke="#999999" points="446.5,-19 369.5,-19 369.5,0 446.5,0 446.5,-19"/>
<text text-anchor="middle" x="408" y="-7" font-family="Helvetica,sans-Serif" font-size="10.00">Eigen/Dense</text>
</a>
</g>
</g>
<!-- Node4&#45;&gt;Node5 -->
<g id="edge4_Node000004_Node000005" class="edge">
<title>Node4&#45;&gt;Node5</title>
<g id="a_edge4_Node000004_Node000005"><a xlink:title=" ">
<path fill="none" stroke="#63b8ff" d="M404.66,-54.75C405.18,-47.8 405.94,-37.85 406.59,-29.13"/>
<polygon fill="#63b8ff" stroke="#63b8ff" points="410.09,-29.32 407.35,-19.09 403.11,-28.8 410.09,-29.32"/>
</a>
</g>
</g>
<!-- Node6 -->
<g id="Node000006" class="node">
<title>Node6</title>
<g id="a_Node000006"><a xlink:title=" ">
<polygon fill="#e0e0e0" stroke="#999999" points="351.5,-19 258.5,-19 258.5,0 351.5,0 351.5,-19"/>
<text text-anchor="middle" x="305" y="-7" font-family="Helvetica,sans-Serif" font-size="10.00">Eigen/StdVector</text>
</a>
</g>
</g>
<!-- Node4&#45;&gt;Node6 -->
<g id="edge5_Node000004_Node000006" class="edge">
<title>Node4&#45;&gt;Node6</title>
<g id="a_edge5_Node000004_Node000006"><a xlink:title=" ">
<path fill="none" stroke="#63b8ff" d="M388.09,-54.98C372.45,-46.61 348.34,-33.7 330.12,-23.95"/>
<polygon fill="#63b8ff" stroke="#63b8ff" points="331.66,-20.8 321.2,-19.17 328.36,-26.98 331.66,-20.8"/>
</a>
</g>
</g>
<!-- Node7 -->
<g id="Node000007" class="node">
<title>Node7</title>
<g id="a_Node000007"><a xlink:title=" ">
<polygon fill="#e0e0e0" stroke="#999999" points="535.5,-19 468.5,-19 468.5,0 535.5,0 535.5,-19"/>
<text text-anchor="middle" x="502" y="-7" font-family="Helvetica,sans-Serif" font-size="10.00">fmt/core.h</text>
</a>
</g>
</g>
<!-- Node4&#45;&gt;Node7 -->
<g id="edge6_Node000004_Node000007" class="edge">
<title>Node4&#45;&gt;Node7</title>
<g id="a_edge6_Node000004_Node000007"><a xlink:title=" ">
<path fill="none" stroke="#63b8ff" d="M419.75,-54.98C435.23,-46.61 459.09,-33.7 477.14,-23.95"/>
<polygon fill="#63b8ff" stroke="#63b8ff" points="478.84,-27.01 485.97,-19.17 475.51,-20.85 478.84,-27.01"/>
</a>
</g>
</g>
<!-- Node9 -->
<g id="Node000009" class="node">
<title>Node9</title>
<g id="a_Node000009"><a xlink:title=" ">
<polygon fill="#e0e0e0" stroke="#999999" points="1147.5,-184 1004.5,-184 1004.5,-165 1147.5,-165 1147.5,-184"/>
<text text-anchor="middle" x="1076" y="-172" font-family="Helvetica,sans-Serif" font-size="10.00">ankerl/unordered_dense.h</text>
</a>
</g>
</g>
<!-- Node8&#45;&gt;Node9 -->
<g id="edge8_Node000008_Node000009" class="edge">
<title>Node8&#45;&gt;Node9</title>
<g id="a_edge8_Node000008_Node000009"><a xlink:title=" ">
<path fill="none" stroke="#63b8ff" d="M972.76,-219.98C992.73,-211.38 1023.8,-197.99 1046.65,-188.15"/>
<polygon fill="#63b8ff" stroke="#63b8ff" points="1048.08,-191.34 1055.88,-184.17 1045.31,-184.91 1048.08,-191.34"/>
</a>
</g>
</g>
<!-- Node10 -->
<g id="Node000010" class="node">
<title>Node10</title>
<g id="a_Node000010"><a xlink:title=" ">
<polygon fill="#e0e0e0" stroke="#999999" points="986.5,-184 907.5,-184 907.5,-165 986.5,-165 986.5,-184"/>
<text text-anchor="middle" x="947" y="-172" font-family="Helvetica,sans-Serif" font-size="10.00">fmt/format.h</text>
</a>
</g>
</g>
<!-- Node8&#45;&gt;Node10 -->
<g id="edge9_Node000008_Node000010" class="edge">
<title>Node8&#45;&gt;Node10</title>
<g id="a_edge9_Node000008_Node000010"><a xlink:title=" ">
<path fill="none" stroke="#63b8ff" d="M952.01,-219.75C951.22,-212.8 950.1,-202.85 949.11,-194.13"/>
<polygon fill="#63b8ff" stroke="#63b8ff" points="952.58,-193.63 947.97,-184.09 945.62,-194.42 952.58,-193.63"/>
</a>
</g>
</g>
<!-- Node11 -->
<g id="Node000011" class="node">
<title>Node11</title>
<g id="a_Node000011"><a xlink:title=" ">
<polygon fill="#e0e0e0" stroke="#999999" points="1075.5,-74 1028.5,-74 1028.5,-55 1075.5,-55 1075.5,-74"/>
<text text-anchor="middle" x="1052" y="-62" font-family="Helvetica,sans-Serif" font-size="10.00">vector</text>
</a>
</g>
</g>
<!-- Node8&#45;&gt;Node11 -->
<g id="edge10_Node000008_Node000011" class="edge">
<title>Node8&#45;&gt;Node11</title>
<g id="a_edge10_Node000008_Node000011"><a xlink:title=" ">
<path fill="none" stroke="#63b8ff" d="M935.95,-219.99C915.63,-208.61 885.87,-187.29 898,-165 901.67,-158.26 987.26,-105.18 1029.22,-79.42"/>
<polygon fill="#63b8ff" stroke="#63b8ff" points="1031.24,-82.29 1037.94,-74.08 1027.58,-76.32 1031.24,-82.29"/>
</a>
</g>
</g>
<!-- Node12&#45;&gt;Node11 -->
<g id="edge15_Node000012_Node000011" class="edge">
<title>Node12&#45;&gt;Node11</title>
<g id="a_edge15_Node000012_Node000011"><a xlink:title=" ">
<path fill="none" stroke="#63b8ff" d="M1378.67,-112.42C1304.64,-101.79 1153.11,-80.02 1085.67,-70.34"/>
<polygon fill="#63b8ff" stroke="#63b8ff" points="1085.99,-66.85 1075.59,-68.89 1084.99,-73.77 1085.99,-66.85"/>
</a>
</g>
</g>
<!-- Node13 -->
<g id="Node000013" class="node">
<title>Node13</title>
<g id="a_Node000013"><a xlink:title=" ">
<polygon fill="#e0e0e0" stroke="#999999" points="1404.5,-74 1339.5,-74 1339.5,-55 1404.5,-55 1404.5,-74"/>
<text text-anchor="middle" x="1372" y="-62" font-family="Helvetica,sans-Serif" font-size="10.00">functional</text>
</a>
</g>
</g>
<!-- Node12&#45;&gt;Node13 -->
<g id="edge12_Node000012_Node000013" class="edge">
<title>Node12&#45;&gt;Node13</title>
<g id="a_edge12_Node000012_Node000013"><a xlink:title=" ">
<path fill="none" stroke="#63b8ff" d="M1412.91,-109.75C1405.84,-102.11 1395.41,-90.82 1386.85,-81.56"/>
<polygon fill="#63b8ff" stroke="#63b8ff" points="1389.3,-79.06 1379.94,-74.09 1384.16,-83.81 1389.3,-79.06"/>
</a>
</g>
</g>
<!-- Node14 -->
<g id="Node000014" class="node">
<title>Node14</title>
<g id="a_Node000014"><a xlink:title=" ">
<polygon fill="#e0e0e0" stroke="#999999" points="1515.5,-74 1422.5,-74 1422.5,-55 1515.5,-55 1515.5,-74"/>
<text text-anchor="middle" x="1469" y="-62" font-family="Helvetica,sans-Serif" font-size="10.00">spdlog/spdlog.h</text>
</a>
</g>
</g>
<!-- Node12&#45;&gt;Node14 -->
<g id="edge13_Node000012_Node000014" class="edge">
<title>Node12&#45;&gt;Node14</title>
<g id="a_edge13_Node000012_Node000014"><a xlink:title=" ">
<path fill="none" stroke="#63b8ff" d="M1428.93,-109.75C1435.85,-102.11 1446.07,-90.82 1454.45,-81.56"/>
<polygon fill="#63b8ff" stroke="#63b8ff" points="1457.1,-83.85 1461.22,-74.09 1451.91,-79.15 1457.1,-83.85"/>
</a>
</g>
</g>
<!-- Node15 -->
<g id="Node000015" class="node">
<title>Node15</title>
<g id="a_Node000015"><a xlink:title=" ">
<polygon fill="#e0e0e0" stroke="#999999" points="1249,-74 1205,-74 1205,-55 1249,-55 1249,-74"/>
<text text-anchor="middle" x="1227" y="-62" font-family="Helvetica,sans-Serif" font-size="10.00">string</text>
</a>
</g>
</g>
<!-- Node12&#45;&gt;Node15 -->
<g id="edge14_Node000012_Node000015" class="edge">
<title>Node12&#45;&gt;Node15</title>
<g id="a_edge14_Node000012_Node000015"><a xlink:title=" ">
<path fill="none" stroke="#63b8ff" d="M1389.83,-109.98C1353.96,-100.18 1295.34,-84.17 1259.08,-74.26"/>
<polygon fill="#63b8ff" stroke="#63b8ff" points="1259.61,-70.78 1249.04,-71.52 1257.77,-77.53 1259.61,-70.78"/>
</a>
</g>
</g>
<!-- Node16&#45;&gt;Node15 -->
<g id="edge18_Node000016_Node000015" class="edge">
<title>Node16&#45;&gt;Node15</title>
<g id="a_edge18_Node000016_Node000015"><a xlink:title=" ">
<path fill="none" stroke="#63b8ff" d="M940.12,-110.22C1011.51,-99.09 1136.18,-79.66 1194.8,-70.52"/>
<polygon fill="#63b8ff" stroke="#63b8ff" points="1195.61,-73.94 1204.95,-68.94 1194.53,-67.02 1195.61,-73.94"/>
</a>
</g>
</g>
<!-- Node17 -->
<g id="Node000017" class="node">
<title>Node17</title>
<g id="a_Node000017"><a xlink:title=" ">
<polygon fill="#e0e0e0" stroke="#999999" points="1010,-74 960,-74 960,-55 1010,-55 1010,-74"/>
<text text-anchor="middle" x="985" y="-62" font-family="Helvetica,sans-Serif" font-size="10.00">chrono</text>
</a>
</g>
</g>
<!-- Node16&#45;&gt;Node17 -->
<g id="edge17_Node000016_Node000017" class="edge">
<title>Node16&#45;&gt;Node17</title>
<g id="a_edge17_Node000016_Node000017"><a xlink:title=" ">
<path fill="none" stroke="#63b8ff" d="M902.75,-109.98C918.23,-101.61 942.09,-88.7 960.14,-78.95"/>
<polygon fill="#63b8ff" stroke="#63b8ff" points="961.84,-82.01 968.97,-74.17 958.51,-75.85 961.84,-82.01"/>
</a>
</g>
</g>
<!-- Node19 -->
<g id="Node000019" class="node">
<title>Node19</title>
<g id="a_Node000019"><a xlink:title=" ">
<polygon fill="#e0e0e0" stroke="#999999" points="1476.5,-184 1429.5,-184 1429.5,-165 1476.5,-165 1476.5,-184"/>
<text text-anchor="middle" x="1453" y="-172" font-family="Helvetica,sans-Serif" font-size="10.00">cmath</text>
</a>
</g>
</g>
<!-- Node18&#45;&gt;Node19 -->
<g id="edge20_Node000018_Node000019" class="edge">
<title>Node18&#45;&gt;Node19</title>
<g id="a_edge20_Node000018_Node000019"><a xlink:title=" ">
<path fill="none" stroke="#63b8ff" d="M1462.18,-219.75C1460.74,-212.8 1458.68,-202.85 1456.87,-194.13"/>
<polygon fill="#63b8ff" stroke="#63b8ff" points="1460.24,-193.17 1454.78,-184.09 1453.39,-194.59 1460.24,-193.17"/>
</a>
</g>
</g>
<!-- Node20 -->
<g id="Node000020" class="node">
<title>Node20</title>
<g id="a_Node000020"><a xlink:href="constants_8h.html" target="_top" xlink:title=" ">
<polygon fill="white" stroke="#666666" points="1611,-184 1495,-184 1495,-165 1611,-165 1611,-184"/>
<text text-anchor="middle" x="1553" y="-172" font-family="Helvetica,sans-Serif" font-size="10.00">occ/core/constants.h</text>
</a>
</g>
</g>
<!-- Node18&#45;&gt;Node20 -->
<g id="edge21_Node000018_Node000020" class="edge">
<title>Node18&#45;&gt;Node20</title>
<g id="a_edge21_Node000018_Node000020"><a xlink:title=" ">
<path fill="none" stroke="#63b8ff" d="M1478.3,-219.98C1492.1,-211.77 1513.24,-199.18 1529.51,-189.49"/>
<polygon fill="#63b8ff" stroke="#63b8ff" points="1531.64,-192.29 1538.44,-184.17 1528.06,-186.28 1531.64,-192.29"/>
</a>
</g>
</g>
<!-- Node22 -->
<g id="Node000022" class="node">
<title>Node22</title>
<g id="a_Node000022"><a xlink:href="spinorbital_8h.html" target="_top" xlink:title=" ">
<polygon fill="white" stroke="#666666" points="359,-184 243,-184 243,-165 359,-165 359,-184"/>
<text text-anchor="middle" x="301" y="-172" font-family="Helvetica,sans-Serif" font-size="10.00">occ/qm/spinorbital.h</text>
</a>
</g>
</g>
<!-- Node21&#45;&gt;Node22 -->
<g id="edge23_Node000021_Node000022" class="edge">
<title>Node21&#45;&gt;Node22</title>
<g id="a_edge23_Node000021_Node000022"><a xlink:title=" ">
<path fill="none" stroke="#63b8ff" d="M300.17,-219.75C300.3,-212.8 300.48,-202.85 300.65,-194.13"/>
<polygon fill="#63b8ff" stroke="#63b8ff" points="304.15,-194.15 300.84,-184.09 297.15,-194.02 304.15,-194.15"/>
</a>
</g>
</g>
<!-- Node22&#45;&gt;Node4 -->
<g id="edge24_Node000022_Node000004" class="edge">
<title>Node22&#45;&gt;Node4</title>
<g id="a_edge24_Node000022_Node000004"><a xlink:title=" ">
<path fill="none" stroke="#63b8ff" d="M309.43,-164.66C326.79,-146.46 366.76,-104.55 388.77,-81.47"/>
<polygon fill="#63b8ff" stroke="#63b8ff" points="391.37,-83.81 395.74,-74.16 386.31,-78.98 391.37,-83.81"/>
</a>
</g>
</g>
<!-- Node23 -->
<g id="Node000023" class="node">
<title>Node23</title>
<g id="a_Node000023"><a xlink:href="util_8h.html" target="_top" xlink:title=" ">
<polygon fill="white" stroke="#666666" points="717.5,-129 632.5,-129 632.5,-110 717.5,-110 717.5,-129"/>
<text text-anchor="middle" x="675" y="-117" font-family="Helvetica,sans-Serif" font-size="10.00">occ/core/util.h</text>
</a>
</g>
</g>
<!-- Node22&#45;&gt;Node23 -->
<g id="edge25_Node000022_Node000023" class="edge">
<title>Node22&#45;&gt;Node23</title>
<g id="a_edge25_Node000022_Node000023"><a xlink:title=" ">
<path fill="none" stroke="#63b8ff" d="M359.03,-165.28C430.94,-155.09 552.48,-137.86 621.99,-128.01"/>
<polygon fill="#63b8ff" stroke="#63b8ff" points="622.86,-131.42 632.27,-126.56 621.88,-124.49 622.86,-131.42"/>
</a>
</g>
</g>
<!-- Node29 -->
<g id="Node000029" class="node">
<title>Node29</title>
<g id="a_Node000029"><a xlink:href="qm_2opmatrix_8h.html" target="_top" xlink:title=" ">
<polygon fill="white" stroke="#666666" points="326,-129 218,-129 218,-110 326,-110 326,-129"/>
<text text-anchor="middle" x="272" y="-117" font-family="Helvetica,sans-Serif" font-size="10.00">occ/qm/opmatrix.h</text>
</a>
</g>
</g>
<!-- Node22&#45;&gt;Node29 -->
<g id="edge36_Node000022_Node000029" class="edge">
<title>Node22&#45;&gt;Node29</title>
<g id="a_edge36_Node000022_Node000029"><a xlink:title=" ">
<path fill="none" stroke="#63b8ff" d="M291.04,-164.75C285.63,-157.65 279.6,-147.4 275.44,-138.56"/>
<polygon fill="#63b8ff" stroke="#63b8ff" points="278.6,-137.02 271.57,-129.09 272.12,-139.67 278.6,-137.02"/>
</a>
</g>
</g>
<!-- Node23&#45;&gt;Node4 -->
<g id="edge33_Node000023_Node000004" class="edge">
<title>Node23&#45;&gt;Node4</title>
<g id="a_edge33_Node000023_Node000004"><a xlink:title=" ">
<path fill="none" stroke="#63b8ff" d="M632.36,-110.16C585.13,-100.92 508.89,-86.01 457.64,-75.99"/>
<polygon fill="#63b8ff" stroke="#63b8ff" points="458.23,-72.54 447.74,-74.05 456.88,-79.41 458.23,-72.54"/>
</a>
</g>
</g>
<!-- Node23&#45;&gt;Node7 -->
<g id="edge29_Node000023_Node000007" class="edge">
<title>Node23&#45;&gt;Node7</title>
<g id="a_edge29_Node000023_Node000007"><a xlink:title=" ">
<path fill="none" stroke="#63b8ff" d="M640.71,-109.99C616.47,-102.91 583.96,-91.18 559,-74 540.58,-61.32 524.07,-41.52 513.61,-27.4"/>
<polygon fill="#63b8ff" stroke="#63b8ff" points="516.33,-25.18 507.66,-19.08 510.63,-29.25 516.33,-25.18"/>
</a>
</g>
</g>
<!-- Node23&#45;&gt;Node11 -->
<g id="edge35_Node000023_Node000011" class="edge">
<title>Node23&#45;&gt;Node11</title>
<g id="a_edge35_Node000023_Node000011"><a xlink:title=" ">
<path fill="none" stroke="#63b8ff" d="M717.55,-111.41C720.74,-110.92 723.92,-110.44 727,-110 853.28,-91.9 888.81,-98.04 1018.38,-73.87"/>
<polygon fill="#63b8ff" stroke="#63b8ff" points="1019.11,-77.29 1028.29,-72 1017.81,-70.42 1019.11,-77.29"/>
</a>
</g>
</g>
<!-- Node23&#45;&gt;Node15 -->
<g id="edge34_Node000023_Node000015" class="edge">
<title>Node23&#45;&gt;Node15</title>
<g id="a_edge34_Node000023_Node000015"><a xlink:title=" ">
<path fill="none" stroke="#63b8ff" d="M717.53,-111.29C720.73,-110.82 723.91,-110.39 727,-110 902.48,-87.88 1113.98,-72.86 1194.1,-67.59"/>
<polygon fill="#63b8ff" stroke="#63b8ff" points="1194.76,-71.05 1204.51,-66.91 1194.3,-64.07 1194.76,-71.05"/>
</a>
</g>
</g>
<!-- Node23&#45;&gt;Node17 -->
<g id="edge28_Node000023_Node000017" class="edge">
<title>Node23&#45;&gt;Node17</title>
<g id="a_edge28_Node000023_Node000017"><a xlink:title=" ">
<path fill="none" stroke="#63b8ff" d="M717.57,-111.53C720.76,-111.01 723.93,-110.5 727,-110 823.42,-94.37 850.54,-94.24 949.95,-74.07"/>
<polygon fill="#63b8ff" stroke="#63b8ff" points="950.71,-77.49 959.8,-72.05 949.31,-70.63 950.71,-77.49"/>
</a>
</g>
</g>
<!-- Node24 -->
<g id="Node000024" class="node">
<title>Node24</title>
<g id="a_Node000024"><a xlink:title=" ">
<polygon fill="#e0e0e0" stroke="#999999" points="632,-74 568,-74 568,-55 632,-55 632,-74"/>
<text text-anchor="middle" x="600" y="-62" font-family="Helvetica,sans-Serif" font-size="10.00">algorithm</text>
</a>
</g>
</g>
<!-- Node23&#45;&gt;Node24 -->
<g id="edge26_Node000023_Node000024" class="edge">
<title>Node23&#45;&gt;Node24</title>
<g id="a_edge26_Node000023_Node000024"><a xlink:title=" ">
<path fill="none" stroke="#63b8ff" d="M662.95,-109.98C651.54,-101.92 634.17,-89.65 620.57,-80.03"/>
<polygon fill="#63b8ff" stroke="#63b8ff" points="622.46,-77.08 612.27,-74.17 618.42,-82.8 622.46,-77.08"/>
</a>
</g>
</g>
<!-- Node25 -->
<g id="Node000025" class="node">
<title>Node25</title>
<g id="a_Node000025"><a xlink:title=" ">
<polygon fill="#e0e0e0" stroke="#999999" points="699.5,-74 650.5,-74 650.5,-55 699.5,-55 699.5,-74"/>
<text text-anchor="middle" x="675" y="-62" font-family="Helvetica,sans-Serif" font-size="10.00">cctype</text>
</a>
</g>
</g>
<!-- Node23&#45;&gt;Node25 -->
<g id="edge27_Node000023_Node000025" class="edge">
<title>Node23&#45;&gt;Node25</title>
<g id="a_edge27_Node000023_Node000025"><a xlink:title=" ">
<path fill="none" stroke="#63b8ff" d="M675,-109.75C675,-102.8 675,-92.85 675,-84.13"/>
<polygon fill="#63b8ff" stroke="#63b8ff" points="678.5,-84.09 675,-74.09 671.5,-84.09 678.5,-84.09"/>
</a>
</g>
</g>
<!-- Node26 -->
<g id="Node000026" class="node">
<title>Node26</title>
<g id="a_Node000026"><a xlink:title=" ">
<polygon fill="#e0e0e0" stroke="#999999" points="804,-74 718,-74 718,-55 804,-55 804,-74"/>
<text text-anchor="middle" x="761" y="-62" font-family="Helvetica,sans-Serif" font-size="10.00">fmt/ostream.h</text>
</a>
</g>
</g>
<!-- Node23&#45;&gt;Node26 -->
<g id="edge30_Node000023_Node000026" class="edge">
<title>Node23&#45;&gt;Node26</title>
<g id="a_edge30_Node000023_Node000026"><a xlink:title=" ">
<path fill="none" stroke="#63b8ff" d="M688.82,-109.98C702.15,-101.77 722.58,-89.18 738.31,-79.49"/>
<polygon fill="#63b8ff" stroke="#63b8ff" points="740.25,-82.4 746.93,-74.17 736.58,-76.44 740.25,-82.4"/>
</a>
</g>
</g>
<!-- Node27 -->
<g id="Node000027" class="node">
<title>Node27</title>
<g id="a_Node000027"><a xlink:title=" ">
<polygon fill="#e0e0e0" stroke="#999999" points="868,-74 822,-74 822,-55 868,-55 868,-74"/>
<text text-anchor="middle" x="845" y="-62" font-family="Helvetica,sans-Serif" font-size="10.00">locale</text>
</a>
</g>
</g>
<!-- Node23&#45;&gt;Node27 -->
<g id="edge31_Node000023_Node000027" class="edge">
<title>Node23&#45;&gt;Node27</title>
<g id="a_edge31_Node000023_Node000027"><a xlink:title=" ">
<path fill="none" stroke="#63b8ff" d="M702.31,-109.98C732.21,-100.66 780.13,-85.72 812.08,-75.76"/>
<polygon fill="#63b8ff" stroke="#63b8ff" points="813.35,-79.04 821.85,-72.72 811.26,-72.35 813.35,-79.04"/>
</a>
</g>
</g>
<!-- Node28 -->
<g id="Node000028" class="node">
<title>Node28</title>
<g id="a_Node000028"><a xlink:title=" ">
<polygon fill="#e0e0e0" stroke="#999999" points="942,-74 886,-74 886,-55 942,-55 942,-74"/>
<text text-anchor="middle" x="914" y="-62" font-family="Helvetica,sans-Serif" font-size="10.00">numeric</text>
</a>
</g>
</g>
<!-- Node23&#45;&gt;Node28 -->
<g id="edge32_Node000023_Node000028" class="edge">
<title>Node23&#45;&gt;Node28</title>
<g id="a_edge32_Node000023_Node000028"><a xlink:title=" ">
<path fill="none" stroke="#63b8ff" d="M714.13,-109.99C752.77,-101.56 813.82,-88.18 875.78,-74.26"/>
<polygon fill="#63b8ff" stroke="#63b8ff" points="876.74,-77.63 885.72,-72.02 875.2,-70.8 876.74,-77.63"/>
</a>
</g>
</g>
<!-- Node29&#45;&gt;Node22 -->
<g id="edge37_Node000029_Node000022" class="edge">
<title>Node29&#45;&gt;Node22</title>
<g id="a_edge37_Node000029_Node000022"><a xlink:title=" ">
<path fill="none" stroke="#63b8ff" d="M281.83,-129.09C287.23,-136.14 293.27,-146.37 297.46,-155.24"/>
<polygon fill="#63b8ff" stroke="#63b8ff" points="294.33,-156.84 301.38,-164.75 300.8,-154.17 294.33,-156.84"/>
</a>
</g>
</g>
<!-- Node30&#45;&gt;Node22 -->
<g id="edge41_Node000030_Node000022" class="edge">
<title>Node30&#45;&gt;Node22</title>
<g id="a_edge41_Node000030_Node000022"><a xlink:title=" ">
<path fill="none" stroke="#63b8ff" d="M200.28,-219.98C219.67,-211.42 249.81,-198.11 272.07,-188.28"/>
<polygon fill="#63b8ff" stroke="#63b8ff" points="273.64,-191.41 281.37,-184.17 270.81,-185.01 273.64,-191.41"/>
</a>
</g>
</g>
<!-- Node31 -->
<g id="Node000031" class="node">
<title>Node31</title>
<g id="a_Node000031"><a xlink:href="orbital__smearing_8h.html" target="_top" xlink:title=" ">
<polygon fill="white" stroke="#666666" points="225,-184 79,-184 79,-165 225,-165 225,-184"/>
<text text-anchor="middle" x="152" y="-172" font-family="Helvetica,sans-Serif" font-size="10.00">occ/qm/orbital_smearing.h</text>
</a>
</g>
</g>
<!-- Node30&#45;&gt;Node31 -->
<g id="edge39_Node000030_Node000031" class="edge">
<title>Node30&#45;&gt;Node31</title>
<g id="a_edge39_Node000030_Node000031"><a xlink:title=" ">
<path fill="none" stroke="#63b8ff" d="M176.21,-219.75C172.24,-212.49 166.47,-201.95 161.57,-192.98"/>
<polygon fill="#63b8ff" stroke="#63b8ff" points="164.57,-191.18 156.7,-184.09 158.43,-194.54 164.57,-191.18"/>
</a>
</g>
</g>
<!-- Node31&#45;&gt;Node4 -->
<g id="edge40_Node000031_Node000004" class="edge">
<title>Node31&#45;&gt;Node4</title>
<g id="a_edge40_Node000031_Node000004"><a xlink:title=" ">
<path fill="none" stroke="#63b8ff" d="M157.13,-164.99C165.92,-151.16 185.25,-123.97 209,-110 243.74,-89.56 287.07,-78.51 324.06,-72.53"/>
<polygon fill="#63b8ff" stroke="#63b8ff" points="324.95,-75.93 334.31,-70.98 323.9,-69.01 324.95,-75.93"/>
</a>
</g>
</g>
<!-- Node32&#45;&gt;Node2 -->
<g id="edge43_Node000032_Node000002" class="edge">
<title>Node32&#45;&gt;Node2</title>
<g id="a_edge43_Node000032_Node000002"><a xlink:title=" ">
<path fill="none" stroke="#63b8ff" d="M677.12,-219.66C691.66,-201.61 724.96,-160.28 743.65,-137.08"/>
<polygon fill="#63b8ff" stroke="#63b8ff" points="746.48,-139.14 750.03,-129.16 741.03,-134.75 746.48,-139.14"/>
</a>
</g>
</g>
<!-- Node32&#45;&gt;Node3 -->
<g id="edge45_Node000032_Node000003" class="edge">
<title>Node32&#45;&gt;Node3</title>
<g id="a_edge45_Node000032_Node000003"><a xlink:title=" ">
<path fill="none" stroke="#63b8ff" d="M626.44,-225.51C568.21,-220.61 469.38,-208.81 444,-184 432.28,-172.54 429.35,-153.66 429.01,-139.45"/>
<polygon fill="#63b8ff" stroke="#63b8ff" points="432.51,-139.35 429.17,-129.3 425.51,-139.24 432.51,-139.35"/>
</a>
</g>
</g>
<!-- Node32&#45;&gt;Node4 -->
<g id="edge46_Node000032_Node000004" class="edge">
<title>Node32&#45;&gt;Node4</title>
<g id="a_edge46_Node000032_Node000004"><a xlink:title=" ">
<path fill="none" stroke="#63b8ff" d="M660.48,-219.87C646.39,-207.26 618.96,-183.3 594,-165 557.41,-138.18 548.1,-131.22 508,-110 484.62,-97.63 457.06,-85.96 436.18,-77.68"/>
<polygon fill="#63b8ff" stroke="#63b8ff" points="437.4,-74.39 426.81,-74.01 434.85,-80.91 437.4,-74.39"/>
</a>
</g>
</g>
<!-- Node32&#45;&gt;Node7 -->
<g id="edge44_Node000032_Node000007" class="edge">
<title>Node32&#45;&gt;Node7</title>
<g id="a_edge44_Node000032_Node000007"><a xlink:title=" ">
<path fill="none" stroke="#63b8ff" d="M663.45,-219.67C654.12,-207.22 636.32,-183.91 620,-165 583.64,-122.87 565.97,-119.55 534,-74 523.93,-59.65 515.18,-41.68 509.39,-28.52"/>
<polygon fill="#63b8ff" stroke="#63b8ff" points="512.54,-26.99 505.41,-19.16 506.1,-29.73 512.54,-26.99"/>
</a>
</g>
</g>
<!-- Node32&#45;&gt;Node11 -->
<g id="edge52_Node000032_Node000011" class="edge">
<title>Node32&#45;&gt;Node11</title>
<g id="a_edge52_Node000032_Node000011"><a xlink:title=" ">
<path fill="none" stroke="#63b8ff" d="M681.56,-219.63C717.35,-192.19 823.97,-110.46 825,-110 902.24,-75.68 931.27,-91.68 1018.22,-73.96"/>
<polygon fill="#63b8ff" stroke="#63b8ff" points="1019.2,-77.33 1028.25,-71.82 1017.74,-70.49 1019.2,-77.33"/>
</a>
</g>
</g>
<!-- Node32&#45;&gt;Node23 -->
<g id="edge51_Node000032_Node000023" class="edge">
<title>Node32&#45;&gt;Node23</title>
<g id="a_edge51_Node000032_Node000023"><a xlink:title=" ">
<path fill="none" stroke="#63b8ff" d="M670.41,-219.66C671.22,-202.17 673.04,-162.8 674.13,-139.27"/>
<polygon fill="#63b8ff" stroke="#63b8ff" points="677.63,-139.31 674.6,-129.16 670.64,-138.99 677.63,-139.31"/>
</a>
</g>
</g>
<!-- Node33 -->
<g id="Node000033" class="node">
<title>Node33</title>
<g id="a_Node000033"><a xlink:href="point__charge_8h.html" target="_top" xlink:title=" ">
<polygon fill="white" stroke="#666666" points="585,-184 453,-184 453,-165 585,-165 585,-184"/>
<text text-anchor="middle" x="519" y="-172" font-family="Helvetica,sans-Serif" font-size="10.00">occ/core/point_charge.h</text>
</a>
</g>
</g>
<!-- Node32&#45;&gt;Node33 -->
<g id="edge47_Node000032_Node000033" class="edge">
<title>Node32&#45;&gt;Node33</title>
<g id="a_edge47_Node000032_Node000033"><a xlink:title=" ">
<path fill="none" stroke="#63b8ff" d="M645.74,-219.98C620.68,-211.19 581.37,-197.39 553.17,-187.49"/>
<polygon fill="#63b8ff" stroke="#63b8ff" points="554.3,-184.18 543.7,-184.17 551.98,-190.78 554.3,-184.18"/>
</a>
</g>
</g>
<!-- Node33&#45;&gt;Node2 -->
<g id="edge48_Node000033_Node000002" class="edge">
<title>Node33&#45;&gt;Node2</title>
<g id="a_edge48_Node000033_Node000002"><a xlink:title=" ">
<path fill="none" stroke="#63b8ff" d="M561.98,-164.99C603.95,-156.51 669.58,-142.79 726,-129 726.1,-128.98 726.2,-128.95 726.3,-128.93"/>
<polygon fill="#63b8ff" stroke="#63b8ff" points="726.88,-132.39 735.7,-126.51 725.14,-125.61 726.88,-132.39"/>
</a>
</g>
</g>
<!-- Node33&#45;&gt;Node3 -->
<g id="edge49_Node000033_Node000003" class="edge">
<title>Node33&#45;&gt;Node3</title>
<g id="a_edge49_Node000033_Node000003"><a xlink:title=" ">
<path fill="none" stroke="#63b8ff" d="M504.7,-164.98C490.9,-156.77 469.76,-144.18 453.49,-134.49"/>
<polygon fill="#63b8ff" stroke="#63b8ff" points="454.94,-131.28 444.56,-129.17 451.36,-137.29 454.94,-131.28"/>
</a>
</g>
</g>
<!-- Node33&#45;&gt;Node4 -->
<g id="edge50_Node000033_Node000004" class="edge">
<title>Node33&#45;&gt;Node4</title>
<g id="a_edge50_Node000033_Node000004"><a xlink:title=" ">
<path fill="none" stroke="#63b8ff" d="M516.29,-164.69C511.84,-151.42 501.84,-126.13 486,-110 472.34,-96.09 453.39,-85.42 437.16,-78.02"/>
<polygon fill="#63b8ff" stroke="#63b8ff" points="438.53,-74.81 427.97,-74.04 435.75,-81.23 438.53,-74.81"/>
</a>
</g>
</g>
<!-- Node34&#45;&gt;Node4 -->
<g id="edge54_Node000034_Node000004" class="edge">
<title>Node34&#45;&gt;Node4</title>
<g id="a_edge54_Node000034_Node000004"><a xlink:title=" ">
<path fill="none" stroke="#63b8ff" d="M57.33,-219.72C56.79,-206.49 57.63,-181.25 70,-165 103.59,-120.87 129.49,-127.82 182,-110 229.66,-93.83 285.17,-82.7 328.76,-75.62"/>
<polygon fill="#63b8ff" stroke="#63b8ff" points="329.4,-79.06 338.72,-74.04 328.3,-72.15 329.4,-79.06"/>
</a>
</g>
</g>
<!-- Node35&#45;&gt;Node9 -->
<g id="edge56_Node000035_Node000009" class="edge">
<title>Node35&#45;&gt;Node9</title>
<g id="a_edge56_Node000035_Node000009"><a xlink:title=" ">
<path fill="none" stroke="#63b8ff" d="M1201.06,-219.98C1176.44,-211.23 1137.88,-197.51 1110.08,-187.62"/>
<polygon fill="#63b8ff" stroke="#63b8ff" points="1110.97,-184.22 1100.38,-184.17 1108.62,-190.82 1110.97,-184.22"/>
</a>
</g>
</g>
<!-- Node35&#45;&gt;Node15 -->
<g id="edge61_Node000035_Node000015" class="edge">
<title>Node35&#45;&gt;Node15</title>
<g id="a_edge61_Node000035_Node000015"><a xlink:title=" ">
<path fill="none" stroke="#63b8ff" d="M1251.52,-219.88C1269.76,-212.77 1293.42,-201.06 1309,-184 1332.22,-158.56 1351.02,-138.71 1332,-110 1315.93,-85.74 1283.69,-74.66 1259.16,-69.64"/>
<polygon fill="#63b8ff" stroke="#63b8ff" points="1259.64,-66.17 1249.18,-67.83 1258.4,-73.05 1259.64,-66.17"/>
</a>
</g>
</g>
<!-- Node36 -->
<g id="Node000036" class="node">
<title>Node36</title>
<g id="a_Node000036"><a xlink:href="solvent__json_8h.html" target="_top" xlink:title=" ">
<polygon fill="white" stroke="#666666" points="1284.5,-184 1165.5,-184 1165.5,-165 1284.5,-165 1284.5,-184"/>
<text text-anchor="middle" x="1225" y="-172" font-family="Helvetica,sans-Serif" font-size="10.00">occ/io/solvent_json.h</text>
</a>
</g>
</g>
<!-- Node35&#45;&gt;Node36 -->
<g id="edge57_Node000035_Node000036" class="edge">
<title>Node35&#45;&gt;Node36</title>
<g id="a_edge57_Node000035_Node000036"><a xlink:title=" ">
<path fill="none" stroke="#63b8ff" d="M1225,-219.75C1225,-212.8 1225,-202.85 1225,-194.13"/>
<polygon fill="#63b8ff" stroke="#63b8ff" points="1228.5,-194.09 1225,-184.09 1221.5,-194.09 1228.5,-194.09"/>
</a>
</g>
</g>
<!-- Node38 -->
<g id="Node000038" class="node">
<title>Node38</title>
<g id="a_Node000038"><a xlink:href="smd__parameters_8h.html" target="_top" xlink:title=" ">
<polygon fill="white" stroke="#666666" points="1323.5,-129 1156.5,-129 1156.5,-110 1323.5,-110 1323.5,-129"/>
<text text-anchor="middle" x="1240" y="-117" font-family="Helvetica,sans-Serif" font-size="10.00">occ/solvent/smd_parameters.h</text>
</a>
</g>
</g>
<!-- Node35&#45;&gt;Node38 -->
<g id="edge60_Node000035_Node000038" class="edge">
<title>Node35&#45;&gt;Node38</title>
<g id="a_edge60_Node000035_Node000038"><a xlink:title=" ">
<path fill="none" stroke="#63b8ff" d="M1248.78,-219.92C1264.43,-212.89 1283.67,-201.25 1293,-184 1303.21,-165.11 1283.41,-146.62 1265.18,-134.51"/>
<polygon fill="#63b8ff" stroke="#63b8ff" points="1266.83,-131.42 1256.49,-129.11 1263.13,-137.36 1266.83,-131.42"/>
</a>
</g>
</g>
<!-- Node37 -->
<g id="Node000037" class="node">
<title>Node37</title>
<g id="a_Node000037"><a xlink:title=" ">
<polygon fill="#e0e0e0" stroke="#999999" points="1138,-129 1028,-129 1028,-110 1138,-110 1138,-129"/>
<text text-anchor="middle" x="1083" y="-117" font-family="Helvetica,sans-Serif" font-size="10.00">nlohmann/json.hpp</text>
</a>
</g>
</g>
<!-- Node36&#45;&gt;Node37 -->
<g id="edge58_Node000036_Node000037" class="edge">
<title>Node36&#45;&gt;Node37</title>
<g id="a_edge58_Node000036_Node000037"><a xlink:title=" ">
<path fill="none" stroke="#63b8ff" d="M1202.19,-164.98C1178.83,-156.27 1142.3,-142.63 1115.83,-132.75"/>
<polygon fill="#63b8ff" stroke="#63b8ff" points="1116.82,-129.39 1106.23,-129.17 1114.37,-135.95 1116.82,-129.39"/>
</a>
</g>
</g>
<!-- Node36&#45;&gt;Node38 -->
<g id="edge59_Node000036_Node000038" class="edge">
<title>Node36&#45;&gt;Node38</title>
<g id="a_edge59_Node000036_Node000038"><a xlink:title=" ">
<path fill="none" stroke="#63b8ff" d="M1227.48,-164.75C1229.46,-157.72 1232.32,-147.62 1234.81,-138.84"/>
<polygon fill="#63b8ff" stroke="#63b8ff" points="1238.21,-139.66 1237.57,-129.09 1231.48,-137.76 1238.21,-139.66"/>
</a>
</g>
</g>
</g>
</svg>
