<?xml version="1.0" encoding="UTF-8" standalone="no"?>
<!DOCTYPE svg PUBLIC "-//W3C//DTD SVG 1.1//EN"
 "http://www.w3.org/Graphics/SVG/1.1/DTD/svg11.dtd">
<!-- Generated by graphviz version 2.43.0 (0)
 -->
<!-- Title: /home/runner/work/occ/occ/include/occ/io/solvent_json.h Pages: 1 -->
<svg width="326pt" height="362pt"
 viewBox="0.00 0.00 325.50 362.00" xmlns="http://www.w3.org/2000/svg" xmlns:xlink="http://www.w3.org/1999/xlink">
<g id="graph0" class="graph" transform="scale(1 1) rotate(0) translate(4 358)">
<title>/home/runner/work/occ/occ/include/occ/io/solvent_json.h</title>
<!-- Node1 -->
<g id="node1" class="node">
<title>Node1</title>
<g id="a_node1"><a xlink:title=" ">
<polygon fill="#bfbfbf" stroke="black" points="94.5,-312.5 94.5,-353.5 239.5,-353.5 239.5,-312.5 94.5,-312.5"/>
<text text-anchor="start" x="102.5" y="-341.5" font-family="Helvetica,sans-Serif" font-size="10.00">/home/runner/work/occ</text>
<text text-anchor="start" x="102.5" y="-330.5" font-family="Helvetica,sans-Serif" font-size="10.00">/occ/include/occ/io/solvent</text>
<text text-anchor="middle" x="167" y="-319.5" font-family="Helvetica,sans-Serif" font-size="10.00">_json.h</text>
</a>
</g>
</g>
<!-- Node2 -->
<g id="node2" class="node">
<title>Node2</title>
<g id="a_node2"><a xlink:href="parameters_8h.html" target="_top" xlink:title=" ">
<polygon fill="none" stroke="black" points="100.5,-234.5 100.5,-275.5 233.5,-275.5 233.5,-234.5 100.5,-234.5"/>
<text text-anchor="start" x="108.5" y="-263.5" font-family="Helvetica,sans-Serif" font-size="10.00">/home/runner/work/occ</text>
<text text-anchor="start" x="108.5" y="-252.5" font-family="Helvetica,sans-Serif" font-size="10.00">/occ/include/occ/solvent</text>
<text text-anchor="middle" x="167" y="-241.5" font-family="Helvetica,sans-Serif" font-size="10.00">/parameters.h</text>
</a>
</g>
</g>
<!-- Node1&#45;&gt;Node2 -->
<g id="edge1" class="edge">
<title>Node1&#45;&gt;Node2</title>
<path fill="none" stroke="midnightblue" d="M167,-302.3C167,-293.3 167,-283.65 167,-275.51"/>
<polygon fill="midnightblue" stroke="midnightblue" points="163.5,-302.43 167,-312.43 170.5,-302.43 163.5,-302.43"/>
</g>
<!-- Node3 -->
<g id="node3" class="node">
<title>Node3</title>
<g id="a_node3"><a xlink:href="smd_8h.html" target="_top" xlink:title=" ">
<polygon fill="none" stroke="black" points="0,-162 0,-192 166,-192 166,-162 0,-162"/>
<text text-anchor="start" x="8" y="-180" font-family="Helvetica,sans-Serif" font-size="10.00">/home/runner/work/occ</text>
<text text-anchor="middle" x="83" y="-169" font-family="Helvetica,sans-Serif" font-size="10.00">/occ/include/occ/solvent/smd.h</text>
</a>
</g>
</g>
<!-- Node2&#45;&gt;Node3 -->
<g id="edge2" class="edge">
<title>Node2&#45;&gt;Node3</title>
<path fill="none" stroke="midnightblue" d="M137.89,-227.66C124.74,-215.76 109.72,-202.18 98.72,-192.23"/>
<polygon fill="midnightblue" stroke="midnightblue" points="135.6,-230.31 145.37,-234.43 140.3,-225.12 135.6,-230.31"/>
</g>
<!-- Node4 -->
<g id="node4" class="node">
<title>Node4</title>
<g id="a_node4"><a xlink:href="solvation__correction_8h.html" target="_top" xlink:title=" ">
<polygon fill="none" stroke="black" points="184.5,-156.5 184.5,-197.5 317.5,-197.5 317.5,-156.5 184.5,-156.5"/>
<text text-anchor="start" x="192.5" y="-185.5" font-family="Helvetica,sans-Serif" font-size="10.00">/home/runner/work/occ</text>
<text text-anchor="start" x="192.5" y="-174.5" font-family="Helvetica,sans-Serif" font-size="10.00">/occ/include/occ/solvent</text>
<text text-anchor="middle" x="251" y="-163.5" font-family="Helvetica,sans-Serif" font-size="10.00">/solvation_correction.h</text>
</a>
</g>
</g>
<!-- Node2&#45;&gt;Node4 -->
<g id="edge3" class="edge">
<title>Node2&#45;&gt;Node4</title>
<path fill="none" stroke="midnightblue" d="M196.3,-227.49C207.2,-217.63 219.36,-206.63 229.44,-197.51"/>
<polygon fill="midnightblue" stroke="midnightblue" points="193.7,-225.12 188.63,-234.43 198.4,-230.31 193.7,-225.12"/>
</g>
<!-- Node5 -->
<g id="node5" class="node">
<title>Node5</title>
<g id="a_node5"><a xlink:href="smd__solvation_8h.html" target="_top" xlink:title=" ">
<polygon fill="none" stroke="black" points="185,-78.5 185,-119.5 317,-119.5 317,-78.5 185,-78.5"/>
<text text-anchor="start" x="193" y="-107.5" font-family="Helvetica,sans-Serif" font-size="10.00">/home/runner/work/occ</text>
<text text-anchor="start" x="193" y="-96.5" font-family="Helvetica,sans-Serif" font-size="10.00">/occ/include/occ/cg/smd</text>
<text text-anchor="middle" x="251" y="-85.5" font-family="Helvetica,sans-Serif" font-size="10.00">_solvation.h</text>
</a>
</g>
</g>
<!-- Node4&#45;&gt;Node5 -->
<g id="edge4" class="edge">
<title>Node4&#45;&gt;Node5</title>
<path fill="none" stroke="midnightblue" d="M251,-146.3C251,-137.3 251,-127.65 251,-119.51"/>
<polygon fill="midnightblue" stroke="midnightblue" points="247.5,-146.43 251,-156.43 254.5,-146.43 247.5,-146.43"/>
</g>
<!-- Node6 -->
<g id="node6" class="node">
<title>Node6</title>
<g id="a_node6"><a xlink:href="crystal__growth_8h.html" target="_top" xlink:title=" ">
<polygon fill="none" stroke="black" points="187,-0.5 187,-41.5 315,-41.5 315,-0.5 187,-0.5"/>
<text text-anchor="start" x="195" y="-29.5" font-family="Helvetica,sans-Serif" font-size="10.00">/home/runner/work/occ</text>
<text text-anchor="start" x="195" y="-18.5" font-family="Helvetica,sans-Serif" font-size="10.00">/occ/include/occ/driver</text>
<text text-anchor="middle" x="251" y="-7.5" font-family="Helvetica,sans-Serif" font-size="10.00">/crystal_growth.h</text>
</a>
</g>
</g>
<!-- Node5&#45;&gt;Node6 -->
<g id="edge5" class="edge">
<title>Node5&#45;&gt;Node6</title>
<path fill="none" stroke="midnightblue" d="M251,-68.3C251,-59.3 251,-49.65 251,-41.51"/>
<polygon fill="midnightblue" stroke="midnightblue" points="247.5,-68.43 251,-78.43 254.5,-68.43 247.5,-68.43"/>
</g>
</g>
</svg>
