<?xml version="1.0" encoding="UTF-8" standalone="no"?>
<!DOCTYPE svg PUBLIC "-//W3C//DTD SVG 1.1//EN"
 "http://www.w3.org/Graphics/SVG/1.1/DTD/svg11.dtd">
<!-- Generated by graphviz version 2.43.0 (0)
 -->
<!-- Title: /home/runner/work/occ/occ/include/occ/cg/solvation_types.h Pages: 1 -->
<svg width="1852pt" height="520pt"
 viewBox="0.00 0.00 1851.50 520.00" xmlns="http://www.w3.org/2000/svg" xmlns:xlink="http://www.w3.org/1999/xlink">
<g id="graph0" class="graph" transform="scale(1 1) rotate(0) translate(4 516)">
<title>/home/runner/work/occ/occ/include/occ/cg/solvation_types.h</title>
<!-- Node1 -->
<g id="node1" class="node">
<title>Node1</title>
<g id="a_node1"><a xlink:title=" ">
<polygon fill="#bfbfbf" stroke="black" points="1133.5,-470.5 1133.5,-511.5 1289.5,-511.5 1289.5,-470.5 1133.5,-470.5"/>
<text text-anchor="start" x="1141.5" y="-499.5" font-family="Helvetica,sans-Serif" font-size="10.00">/home/runner/work/occ</text>
<text text-anchor="start" x="1141.5" y="-488.5" font-family="Helvetica,sans-Serif" font-size="10.00">/occ/include/occ/cg/solvation</text>
<text text-anchor="middle" x="1211.5" y="-477.5" font-family="Helvetica,sans-Serif" font-size="10.00">_types.h</text>
</a>
</g>
</g>
<!-- Node2 -->
<g id="node2" class="node">
<title>Node2</title>
<g id="a_node2"><a xlink:href="linear__algebra_8h.html" target="_top" xlink:title=" ">
<polygon fill="none" stroke="black" points="574,-56.5 574,-75.5 713,-75.5 713,-56.5 574,-56.5"/>
<text text-anchor="middle" x="643.5" y="-63.5" font-family="Helvetica,sans-Serif" font-size="10.00">occ/core/linear_algebra.h</text>
</a>
</g>
</g>
<!-- Node1&#45;&gt;Node2 -->
<g id="edge1" class="edge">
<title>Node1&#45;&gt;Node2</title>
<path fill="none" stroke="midnightblue" d="M1133.31,-489.15C890.47,-485.49 165.5,-466.4 165.5,-369 165.5,-369 165.5,-369 165.5,-182.5 165.5,-141.36 189.13,-131.24 225.5,-112 282.32,-81.95 458.83,-71.95 563.43,-68.63"/>
<polygon fill="midnightblue" stroke="midnightblue" points="563.74,-72.12 573.63,-68.32 563.53,-65.13 563.74,-72.12"/>
</g>
<!-- Node6 -->
<g id="node6" class="node">
<title>Node6</title>
<g id="a_node6"><a xlink:href="neighbor__atoms_8h.html" target="_top" xlink:title=" ">
<polygon fill="none" stroke="black" points="688.5,-414.5 688.5,-433.5 826.5,-433.5 826.5,-414.5 688.5,-414.5"/>
<text text-anchor="middle" x="757.5" y="-421.5" font-family="Helvetica,sans-Serif" font-size="10.00">occ/cg/neighbor_atoms.h</text>
</a>
</g>
</g>
<!-- Node1&#45;&gt;Node6 -->
<g id="edge5" class="edge">
<title>Node1&#45;&gt;Node6</title>
<path fill="none" stroke="midnightblue" d="M1133.45,-478.83C1047.3,-466.49 909.89,-446.82 827.22,-434.98"/>
<polygon fill="midnightblue" stroke="midnightblue" points="827.56,-431.5 817.17,-433.54 826.57,-438.43 827.56,-431.5"/>
</g>
<!-- Node19 -->
<g id="node19" class="node">
<title>Node19</title>
<g id="a_node19"><a xlink:title=" ">
<polygon fill="none" stroke="#bfbfbf" points="1473.5,-56.5 1473.5,-75.5 1517.5,-75.5 1517.5,-56.5 1473.5,-56.5"/>
<text text-anchor="middle" x="1495.5" y="-63.5" font-family="Helvetica,sans-Serif" font-size="10.00">string</text>
</a>
</g>
</g>
<!-- Node1&#45;&gt;Node19 -->
<g id="edge75" class="edge">
<title>Node1&#45;&gt;Node19</title>
<path fill="none" stroke="midnightblue" d="M1289.7,-484.35C1415.17,-473.12 1647.5,-442.4 1647.5,-369 1647.5,-369 1647.5,-369 1647.5,-182.5 1647.5,-122.7 1571.98,-89.81 1527.41,-75.62"/>
<polygon fill="midnightblue" stroke="midnightblue" points="1528.19,-72.2 1517.6,-72.63 1526.15,-78.89 1528.19,-72.2"/>
</g>
<!-- Node20 -->
<g id="node20" class="node">
<title>Node20</title>
<g id="a_node20"><a xlink:title=" ">
<polygon fill="none" stroke="#bfbfbf" points="1283,-56.5 1283,-75.5 1330,-75.5 1330,-56.5 1283,-56.5"/>
<text text-anchor="middle" x="1306.5" y="-63.5" font-family="Helvetica,sans-Serif" font-size="10.00">vector</text>
</a>
</g>
</g>
<!-- Node1&#45;&gt;Node20 -->
<g id="edge76" class="edge">
<title>Node1&#45;&gt;Node20</title>
<path fill="none" stroke="midnightblue" d="M1289.66,-482.27C1405.57,-468.61 1609.5,-435.17 1609.5,-369 1609.5,-369 1609.5,-369 1609.5,-182.5 1609.5,-125.39 1419.18,-86.26 1340.21,-72.48"/>
<polygon fill="midnightblue" stroke="midnightblue" points="1340.72,-69.01 1330.28,-70.77 1339.54,-75.91 1340.72,-69.01"/>
</g>
<!-- Node40 -->
<g id="node40" class="node">
<title>Node40</title>
<g id="a_node40"><a xlink:href="solvation__contribution_8h.html" target="_top" xlink:title=" ">
<polygon fill="none" stroke="black" points="1675.5,-414.5 1675.5,-433.5 1843.5,-433.5 1843.5,-414.5 1675.5,-414.5"/>
<text text-anchor="middle" x="1759.5" y="-421.5" font-family="Helvetica,sans-Serif" font-size="10.00">occ/cg/solvation_contribution.h</text>
</a>
</g>
</g>
<!-- Node1&#45;&gt;Node40 -->
<g id="edge71" class="edge">
<title>Node1&#45;&gt;Node40</title>
<path fill="none" stroke="midnightblue" d="M1289.72,-480.72C1392.61,-468.52 1572.59,-447.17 1677.38,-434.74"/>
<polygon fill="midnightblue" stroke="midnightblue" points="1678.07,-438.18 1687.59,-433.53 1677.25,-431.23 1678.07,-438.18"/>
</g>
<!-- Node42 -->
<g id="node42" class="node">
<title>Node42</title>
<g id="a_node42"><a xlink:href="solvent__surface_8h.html" target="_top" xlink:title=" ">
<polygon fill="none" stroke="black" points="0,-358.5 0,-377.5 137,-377.5 137,-358.5 0,-358.5"/>
<text text-anchor="middle" x="68.5" y="-365.5" font-family="Helvetica,sans-Serif" font-size="10.00">occ/cg/solvent_surface.h</text>
</a>
</g>
</g>
<!-- Node1&#45;&gt;Node42 -->
<g id="edge73" class="edge">
<title>Node1&#45;&gt;Node42</title>
<path fill="none" stroke="midnightblue" d="M1133.19,-488.58C903.6,-484.04 242.53,-468.12 151.5,-434 124.06,-423.72 98.48,-400.87 83.17,-385.2"/>
<polygon fill="midnightblue" stroke="midnightblue" points="85.55,-382.63 76.14,-377.77 80.46,-387.44 85.55,-382.63"/>
</g>
<!-- Node3 -->
<g id="node3" class="node">
<title>Node3</title>
<g id="a_node3"><a xlink:title=" ">
<polygon fill="none" stroke="#bfbfbf" points="657,-0.5 657,-19.5 734,-19.5 734,-0.5 657,-0.5"/>
<text text-anchor="middle" x="695.5" y="-7.5" font-family="Helvetica,sans-Serif" font-size="10.00">Eigen/Dense</text>
</a>
</g>
</g>
<!-- Node2&#45;&gt;Node3 -->
<g id="edge2" class="edge">
<title>Node2&#45;&gt;Node3</title>
<path fill="none" stroke="midnightblue" d="M652.09,-56.08C659.66,-48.22 670.88,-36.57 680.01,-27.08"/>
<polygon fill="midnightblue" stroke="midnightblue" points="682.66,-29.38 687.07,-19.75 677.62,-24.53 682.66,-29.38"/>
</g>
<!-- Node4 -->
<g id="node4" class="node">
<title>Node4</title>
<g id="a_node4"><a xlink:title=" ">
<polygon fill="none" stroke="#bfbfbf" points="546,-0.5 546,-19.5 639,-19.5 639,-0.5 546,-0.5"/>
<text text-anchor="middle" x="592.5" y="-7.5" font-family="Helvetica,sans-Serif" font-size="10.00">Eigen/StdVector</text>
</a>
</g>
</g>
<!-- Node2&#45;&gt;Node4 -->
<g id="edge3" class="edge">
<title>Node2&#45;&gt;Node4</title>
<path fill="none" stroke="midnightblue" d="M635.08,-56.08C627.65,-48.22 616.65,-36.57 607.69,-27.08"/>
<polygon fill="midnightblue" stroke="midnightblue" points="610.18,-24.62 600.76,-19.75 605.09,-29.42 610.18,-24.62"/>
</g>
<!-- Node5 -->
<g id="node5" class="node">
<title>Node5</title>
<g id="a_node5"><a xlink:title=" ">
<polygon fill="none" stroke="#bfbfbf" points="978.5,-0.5 978.5,-19.5 1064.5,-19.5 1064.5,-0.5 978.5,-0.5"/>
<text text-anchor="middle" x="1021.5" y="-7.5" font-family="Helvetica,sans-Serif" font-size="10.00">fmt/ostream.h</text>
</a>
</g>
</g>
<!-- Node2&#45;&gt;Node5 -->
<g id="edge4" class="edge">
<title>Node2&#45;&gt;Node5</title>
<path fill="none" stroke="midnightblue" d="M703.4,-56.44C776.41,-46.01 898.68,-28.55 968.44,-18.58"/>
<polygon fill="midnightblue" stroke="midnightblue" points="968.94,-22.04 978.35,-17.16 967.95,-15.11 968.94,-22.04"/>
</g>
<!-- Node6&#45;&gt;Node2 -->
<g id="edge6" class="edge">
<title>Node6&#45;&gt;Node2</title>
<path fill="none" stroke="midnightblue" d="M688.46,-422.93C539.95,-420.9 203.5,-405.5 203.5,-307.5 203.5,-307.5 203.5,-307.5 203.5,-182.5 203.5,-141.93 225.89,-131.45 261.5,-112 311.95,-84.45 467.3,-73.6 563.65,-69.45"/>
<polygon fill="midnightblue" stroke="midnightblue" points="563.8,-72.95 573.65,-69.04 563.51,-65.96 563.8,-72.95"/>
</g>
<!-- Node7 -->
<g id="node7" class="node">
<title>Node7</title>
<g id="a_node7"><a xlink:href="crystal_8h.html" target="_top" xlink:title=" ">
<polygon fill="none" stroke="black" points="700.5,-358.5 700.5,-377.5 814.5,-377.5 814.5,-358.5 700.5,-358.5"/>
<text text-anchor="middle" x="757.5" y="-365.5" font-family="Helvetica,sans-Serif" font-size="10.00">occ/crystal/crystal.h</text>
</a>
</g>
</g>
<!-- Node6&#45;&gt;Node7 -->
<g id="edge7" class="edge">
<title>Node6&#45;&gt;Node7</title>
<path fill="none" stroke="midnightblue" d="M757.5,-414.08C757.5,-407.01 757.5,-396.86 757.5,-387.99"/>
<polygon fill="midnightblue" stroke="midnightblue" points="761,-387.75 757.5,-377.75 754,-387.75 761,-387.75"/>
</g>
<!-- Node7&#45;&gt;Node2 -->
<g id="edge26" class="edge">
<title>Node7&#45;&gt;Node2</title>
<path fill="none" stroke="midnightblue" d="M700.31,-365.6C565.96,-360.76 241.5,-339.39 241.5,-246 241.5,-246 241.5,-246 241.5,-182.5 241.5,-142.76 261.99,-131.7 296.5,-112 340.65,-86.8 475.4,-75.32 563.4,-70.39"/>
<polygon fill="midnightblue" stroke="midnightblue" points="563.83,-73.87 573.63,-69.83 563.45,-66.88 563.83,-73.87"/>
</g>
<!-- Node8 -->
<g id="node8" class="node">
<title>Node8</title>
<g id="a_node8"><a xlink:href="bondgraph_8h.html" target="_top" xlink:title=" ">
<polygon fill="none" stroke="black" points="487,-297 487,-316 608,-316 608,-297 487,-297"/>
<text text-anchor="middle" x="547.5" y="-304" font-family="Helvetica,sans-Serif" font-size="10.00">occ/core/bondgraph.h</text>
</a>
</g>
</g>
<!-- Node7&#45;&gt;Node8 -->
<g id="edge8" class="edge">
<title>Node7&#45;&gt;Node8</title>
<path fill="none" stroke="midnightblue" d="M727.41,-358.48C690.61,-348.05 628.19,-330.36 587.41,-318.81"/>
<polygon fill="midnightblue" stroke="midnightblue" points="588.11,-315.37 577.53,-316.01 586.2,-322.1 588.11,-315.37"/>
</g>
<!-- Node14 -->
<g id="node14" class="node">
<title>Node14</title>
<g id="a_node14"><a xlink:href="dimer_8h.html" target="_top" xlink:title=" ">
<polygon fill="none" stroke="black" points="379,-235.5 379,-254.5 476,-254.5 476,-235.5 379,-235.5"/>
<text text-anchor="middle" x="427.5" y="-242.5" font-family="Helvetica,sans-Serif" font-size="10.00">occ/core/dimer.h</text>
</a>
</g>
</g>
<!-- Node7&#45;&gt;Node14 -->
<g id="edge14" class="edge">
<title>Node7&#45;&gt;Node14</title>
<path fill="none" stroke="midnightblue" d="M700.48,-363.24C629.56,-357.66 513.42,-345.23 477.5,-322 456.22,-308.23 441.97,-281.86 434.3,-264.09"/>
<polygon fill="midnightblue" stroke="midnightblue" points="437.53,-262.75 430.54,-254.79 431.04,-265.37 437.53,-262.75"/>
</g>
<!-- Node15 -->
<g id="node15" class="node">
<title>Node15</title>
<g id="a_node15"><a xlink:href="molecule_8h.html" target="_top" xlink:title=" ">
<polygon fill="none" stroke="black" points="269.5,-174 269.5,-193 383.5,-193 383.5,-174 269.5,-174"/>
<text text-anchor="middle" x="326.5" y="-181" font-family="Helvetica,sans-Serif" font-size="10.00">occ/core/molecule.h</text>
</a>
</g>
</g>
<!-- Node7&#45;&gt;Node15 -->
<g id="edge27" class="edge">
<title>Node7&#45;&gt;Node15</title>
<path fill="none" stroke="midnightblue" d="M700.24,-362.68C622.91,-356.17 489.65,-342.4 445.5,-322 391.17,-296.89 352.05,-233.57 335.41,-202.4"/>
<polygon fill="midnightblue" stroke="midnightblue" points="338.33,-200.44 330.63,-193.16 332.11,-203.65 338.33,-200.44"/>
</g>
<!-- Node7&#45;&gt;Node20 -->
<g id="edge70" class="edge">
<title>Node7&#45;&gt;Node20</title>
<path fill="none" stroke="midnightblue" d="M814.65,-365.88C951.19,-361.79 1289.47,-342.81 1349.5,-255 1354.52,-247.66 1352.3,-243.43 1349.5,-235 1340.48,-207.88 1281.52,-159.12 1272.5,-132 1266.7,-114.55 1278.26,-96.11 1289.44,-83.35"/>
<polygon fill="midnightblue" stroke="midnightblue" points="1292.21,-85.51 1296.54,-75.84 1287.12,-80.7 1292.21,-85.51"/>
</g>
<!-- Node22 -->
<g id="node22" class="node">
<title>Node22</title>
<g id="a_node22"><a xlink:href="asymmetric__unit_8h.html" target="_top" xlink:title=" ">
<polygon fill="none" stroke="black" points="1363,-168.5 1363,-198.5 1494,-198.5 1494,-168.5 1363,-168.5"/>
<text text-anchor="start" x="1371" y="-186.5" font-family="Helvetica,sans-Serif" font-size="10.00">occ/crystal/asymmetric</text>
<text text-anchor="middle" x="1428.5" y="-175.5" font-family="Helvetica,sans-Serif" font-size="10.00">_unit.h</text>
</a>
</g>
</g>
<!-- Node7&#45;&gt;Node22 -->
<g id="edge28" class="edge">
<title>Node7&#45;&gt;Node22</title>
<path fill="none" stroke="midnightblue" d="M814.51,-366.97C964.43,-366.37 1361.2,-361.04 1404.5,-322 1435.89,-293.69 1435.65,-240.12 1432.3,-208.86"/>
<polygon fill="midnightblue" stroke="midnightblue" points="1435.76,-208.3 1431.04,-198.81 1428.82,-209.17 1435.76,-208.3"/>
</g>
<!-- Node23 -->
<g id="node23" class="node">
<title>Node23</title>
<g id="a_node23"><a xlink:href="hkl_8h.html" target="_top" xlink:title=" ">
<polygon fill="none" stroke="black" points="723.5,-112.5 723.5,-131.5 819.5,-131.5 819.5,-112.5 723.5,-112.5"/>
<text text-anchor="middle" x="771.5" y="-119.5" font-family="Helvetica,sans-Serif" font-size="10.00">occ/crystal/hkl.h</text>
</a>
</g>
</g>
<!-- Node7&#45;&gt;Node23 -->
<g id="edge33" class="edge">
<title>Node7&#45;&gt;Node23</title>
<path fill="none" stroke="midnightblue" d="M764.13,-358.27C770.27,-349.61 778.96,-335.67 782.5,-322 799.26,-257.32 784.48,-176.99 776.2,-141.42"/>
<polygon fill="midnightblue" stroke="midnightblue" points="779.56,-140.41 773.79,-131.52 772.76,-142.07 779.56,-140.41"/>
</g>
<!-- Node25 -->
<g id="node25" class="node">
<title>Node25</title>
<g id="a_node25"><a xlink:href="spacegroup_8h.html" target="_top" xlink:title=" ">
<polygon fill="none" stroke="black" points="1032,-297 1032,-316 1169,-316 1169,-297 1032,-297"/>
<text text-anchor="middle" x="1100.5" y="-304" font-family="Helvetica,sans-Serif" font-size="10.00">occ/crystal/spacegroup.h</text>
</a>
</g>
</g>
<!-- Node7&#45;&gt;Node25 -->
<g id="edge36" class="edge">
<title>Node7&#45;&gt;Node25</title>
<path fill="none" stroke="midnightblue" d="M806.64,-358.48C868.66,-347.72 975.23,-329.23 1041.56,-317.72"/>
<polygon fill="midnightblue" stroke="midnightblue" points="1042.19,-321.17 1051.45,-316.01 1041,-314.27 1042.19,-321.17"/>
</g>
<!-- Node29 -->
<g id="node29" class="node">
<title>Node29</title>
<g id="a_node29"><a xlink:href="unitcell_8h.html" target="_top" xlink:title=" ">
<polygon fill="none" stroke="black" points="954,-174 954,-193 1071,-193 1071,-174 954,-174"/>
<text text-anchor="middle" x="1012.5" y="-181" font-family="Helvetica,sans-Serif" font-size="10.00">occ/crystal/unitcell.h</text>
</a>
</g>
</g>
<!-- Node7&#45;&gt;Node29 -->
<g id="edge63" class="edge">
<title>Node7&#45;&gt;Node29</title>
<path fill="none" stroke="midnightblue" d="M769.61,-358.41C782.31,-349.39 802.85,-334.75 820.5,-322 873.6,-283.63 886.11,-272.97 939.5,-235 956.87,-222.65 976.77,-208.9 991.41,-198.88"/>
<polygon fill="midnightblue" stroke="midnightblue" points="993.49,-201.69 999.77,-193.16 989.54,-195.91 993.49,-201.69"/>
</g>
<!-- Node38 -->
<g id="node38" class="node">
<title>Node38</title>
<g id="a_node38"><a xlink:href="site__mapping__table_8h.html" target="_top" xlink:title=" ">
<polygon fill="none" stroke="black" points="635.5,-291.5 635.5,-321.5 773.5,-321.5 773.5,-291.5 635.5,-291.5"/>
<text text-anchor="start" x="643.5" y="-309.5" font-family="Helvetica,sans-Serif" font-size="10.00">occ/crystal/site_mapping</text>
<text text-anchor="middle" x="704.5" y="-298.5" font-family="Helvetica,sans-Serif" font-size="10.00">_table.h</text>
</a>
</g>
</g>
<!-- Node7&#45;&gt;Node38 -->
<g id="edge64" class="edge">
<title>Node7&#45;&gt;Node38</title>
<path fill="none" stroke="midnightblue" d="M749.91,-358.48C743.13,-350.87 732.91,-339.4 723.89,-329.26"/>
<polygon fill="midnightblue" stroke="midnightblue" points="726.26,-326.66 716.99,-321.52 721.03,-331.32 726.26,-326.66"/>
</g>
<!-- Node9 -->
<g id="node9" class="node">
<title>Node9</title>
<g id="a_node9"><a xlink:href="graph_8h.html" target="_top" xlink:title=" ">
<polygon fill="none" stroke="black" points="494,-235.5 494,-254.5 591,-254.5 591,-235.5 494,-235.5"/>
<text text-anchor="middle" x="542.5" y="-242.5" font-family="Helvetica,sans-Serif" font-size="10.00">occ/core/graph.h</text>
</a>
</g>
</g>
<!-- Node8&#45;&gt;Node9 -->
<g id="edge9" class="edge">
<title>Node8&#45;&gt;Node9</title>
<path fill="none" stroke="midnightblue" d="M546.78,-296.98C546.08,-288.58 544.98,-275.48 544.07,-264.66"/>
<polygon fill="midnightblue" stroke="midnightblue" points="547.54,-264.18 543.22,-254.51 540.56,-264.77 547.54,-264.18"/>
</g>
<!-- Node10 -->
<g id="node10" class="node">
<title>Node10</title>
<g id="a_node10"><a xlink:title=" ">
<polygon fill="none" stroke="#bfbfbf" points="602,-174 602,-193 745,-193 745,-174 602,-174"/>
<text text-anchor="middle" x="673.5" y="-181" font-family="Helvetica,sans-Serif" font-size="10.00">ankerl/unordered_dense.h</text>
</a>
</g>
</g>
<!-- Node9&#45;&gt;Node10 -->
<g id="edge10" class="edge">
<title>Node9&#45;&gt;Node10</title>
<path fill="none" stroke="midnightblue" d="M561.27,-235.48C583.35,-225.45 620.22,-208.7 645.64,-197.15"/>
<polygon fill="midnightblue" stroke="midnightblue" points="647.11,-200.33 654.77,-193.01 644.21,-193.96 647.11,-200.33"/>
</g>
<!-- Node11 -->
<g id="node11" class="node">
<title>Node11</title>
<g id="a_node11"><a xlink:title=" ">
<polygon fill="none" stroke="#bfbfbf" points="401.5,-174 401.5,-193 457.5,-193 457.5,-174 401.5,-174"/>
<text text-anchor="middle" x="429.5" y="-181" font-family="Helvetica,sans-Serif" font-size="10.00">optional</text>
</a>
</g>
</g>
<!-- Node9&#45;&gt;Node11 -->
<g id="edge11" class="edge">
<title>Node9&#45;&gt;Node11</title>
<path fill="none" stroke="midnightblue" d="M526.31,-235.48C507.6,-225.62 476.58,-209.29 454.7,-197.77"/>
<polygon fill="midnightblue" stroke="midnightblue" points="456.14,-194.57 445.66,-193.01 452.88,-200.77 456.14,-194.57"/>
</g>
<!-- Node12 -->
<g id="node12" class="node">
<title>Node12</title>
<g id="a_node12"><a xlink:title=" ">
<polygon fill="none" stroke="#bfbfbf" points="476,-174 476,-193 523,-193 523,-174 476,-174"/>
<text text-anchor="middle" x="499.5" y="-181" font-family="Helvetica,sans-Serif" font-size="10.00">queue</text>
</a>
</g>
</g>
<!-- Node9&#45;&gt;Node12 -->
<g id="edge12" class="edge">
<title>Node9&#45;&gt;Node12</title>
<path fill="none" stroke="midnightblue" d="M536.34,-235.48C529.89,-226.55 519.6,-212.31 511.53,-201.14"/>
<polygon fill="midnightblue" stroke="midnightblue" points="514.34,-199.06 505.65,-193.01 508.67,-203.16 514.34,-199.06"/>
</g>
<!-- Node13 -->
<g id="node13" class="node">
<title>Node13</title>
<g id="a_node13"><a xlink:title=" ">
<polygon fill="none" stroke="#bfbfbf" points="541,-174 541,-193 584,-193 584,-174 541,-174"/>
<text text-anchor="middle" x="562.5" y="-181" font-family="Helvetica,sans-Serif" font-size="10.00">stack</text>
</a>
</g>
</g>
<!-- Node9&#45;&gt;Node13 -->
<g id="edge13" class="edge">
<title>Node9&#45;&gt;Node13</title>
<path fill="none" stroke="midnightblue" d="M545.37,-235.48C548.22,-226.99 552.68,-213.7 556.34,-202.82"/>
<polygon fill="midnightblue" stroke="midnightblue" points="559.77,-203.6 559.64,-193.01 553.14,-201.37 559.77,-203.6"/>
</g>
<!-- Node14&#45;&gt;Node10 -->
<g id="edge15" class="edge">
<title>Node14&#45;&gt;Node10</title>
<path fill="none" stroke="midnightblue" d="M462.75,-235.48C506.4,-224.92 580.84,-206.91 628.56,-195.37"/>
<polygon fill="midnightblue" stroke="midnightblue" points="629.42,-198.76 638.32,-193.01 627.78,-191.96 629.42,-198.76"/>
</g>
<!-- Node14&#45;&gt;Node11 -->
<g id="edge25" class="edge">
<title>Node14&#45;&gt;Node11</title>
<path fill="none" stroke="midnightblue" d="M427.79,-235.48C428.07,-227.08 428.51,-213.98 428.87,-203.16"/>
<polygon fill="midnightblue" stroke="midnightblue" points="432.38,-203.12 429.21,-193.01 425.38,-202.89 432.38,-203.12"/>
</g>
<!-- Node14&#45;&gt;Node15 -->
<g id="edge16" class="edge">
<title>Node14&#45;&gt;Node15</title>
<path fill="none" stroke="midnightblue" d="M413.03,-235.48C396.53,-225.75 369.32,-209.73 349.82,-198.24"/>
<polygon fill="midnightblue" stroke="midnightblue" points="351.34,-195.07 340.94,-193.01 347.78,-201.1 351.34,-195.07"/>
</g>
<!-- Node15&#45;&gt;Node2 -->
<g id="edge23" class="edge">
<title>Node15&#45;&gt;Node2</title>
<path fill="none" stroke="midnightblue" d="M358.56,-173.99C392.45,-164.72 447.29,-148.94 493.5,-132 537.07,-116.03 586.18,-93.94 615.98,-80.07"/>
<polygon fill="midnightblue" stroke="midnightblue" points="617.73,-83.11 625.3,-75.7 614.76,-76.77 617.73,-83.11"/>
</g>
<!-- Node16 -->
<g id="node16" class="node">
<title>Node16</title>
<g id="a_node16"><a xlink:title=" ">
<polygon fill="none" stroke="#bfbfbf" points="305.5,-112.5 305.5,-131.5 347.5,-131.5 347.5,-112.5 305.5,-112.5"/>
<text text-anchor="middle" x="326.5" y="-119.5" font-family="Helvetica,sans-Serif" font-size="10.00">array</text>
</a>
</g>
</g>
<!-- Node15&#45;&gt;Node16 -->
<g id="edge17" class="edge">
<title>Node15&#45;&gt;Node16</title>
<path fill="none" stroke="midnightblue" d="M326.5,-173.98C326.5,-165.58 326.5,-152.48 326.5,-141.66"/>
<polygon fill="midnightblue" stroke="midnightblue" points="330,-141.51 326.5,-131.51 323,-141.51 330,-141.51"/>
</g>
<!-- Node17 -->
<g id="node17" class="node">
<title>Node17</title>
<g id="a_node17"><a xlink:href="atom_8h.html" target="_top" xlink:title=" ">
<polygon fill="none" stroke="black" points="390,-112.5 390,-131.5 485,-131.5 485,-112.5 390,-112.5"/>
<text text-anchor="middle" x="437.5" y="-119.5" font-family="Helvetica,sans-Serif" font-size="10.00">occ/core/atom.h</text>
</a>
</g>
</g>
<!-- Node15&#45;&gt;Node17 -->
<g id="edge18" class="edge">
<title>Node15&#45;&gt;Node17</title>
<path fill="none" stroke="midnightblue" d="M342.4,-173.98C360.78,-164.12 391.26,-147.79 412.74,-136.27"/>
<polygon fill="midnightblue" stroke="midnightblue" points="414.47,-139.32 421.63,-131.51 411.16,-133.15 414.47,-139.32"/>
</g>
<!-- Node18 -->
<g id="node18" class="node">
<title>Node18</title>
<g id="a_node18"><a xlink:href="element_8h.html" target="_top" xlink:title=" ">
<polygon fill="none" stroke="black" points="1281.5,-112.5 1281.5,-131.5 1391.5,-131.5 1391.5,-112.5 1281.5,-112.5"/>
<text text-anchor="middle" x="1336.5" y="-119.5" font-family="Helvetica,sans-Serif" font-size="10.00">occ/core/element.h</text>
</a>
</g>
</g>
<!-- Node15&#45;&gt;Node18 -->
<g id="edge20" class="edge">
<title>Node15&#45;&gt;Node18</title>
<path fill="none" stroke="midnightblue" d="M360.22,-173.94C370.52,-171.64 381.92,-169.4 392.5,-168 729.93,-123.32 817.53,-148.55 1157.5,-132 1195.1,-130.17 1237.14,-128.06 1271.03,-126.34"/>
<polygon fill="midnightblue" stroke="midnightblue" points="1271.46,-129.83 1281.27,-125.82 1271.1,-122.83 1271.46,-129.83"/>
</g>
<!-- Node21 -->
<g id="node21" class="node">
<title>Node21</title>
<g id="a_node21"><a xlink:title=" ">
<polygon fill="none" stroke="#bfbfbf" points="631,-112.5 631,-131.5 672,-131.5 672,-112.5 631,-112.5"/>
<text text-anchor="middle" x="651.5" y="-119.5" font-family="Helvetica,sans-Serif" font-size="10.00">tuple</text>
</a>
</g>
</g>
<!-- Node15&#45;&gt;Node21 -->
<g id="edge24" class="edge">
<title>Node15&#45;&gt;Node21</title>
<path fill="none" stroke="midnightblue" d="M364.13,-173.93C373.39,-171.91 383.29,-169.81 392.5,-168 474.72,-151.83 572.24,-135.71 620.81,-127.88"/>
<polygon fill="midnightblue" stroke="midnightblue" points="621.64,-131.29 630.96,-126.25 620.53,-124.38 621.64,-131.29"/>
</g>
<!-- Node17&#45;&gt;Node2 -->
<g id="edge19" class="edge">
<title>Node17&#45;&gt;Node2</title>
<path fill="none" stroke="midnightblue" d="M470.14,-112.44C505.55,-103.16 562.21,-88.31 601.05,-78.13"/>
<polygon fill="midnightblue" stroke="midnightblue" points="602.23,-81.44 611.01,-75.52 600.45,-74.67 602.23,-81.44"/>
</g>
<!-- Node18&#45;&gt;Node19 -->
<g id="edge21" class="edge">
<title>Node18&#45;&gt;Node19</title>
<path fill="none" stroke="midnightblue" d="M1361.69,-112.44C1389.39,-103.04 1433.92,-87.91 1463.92,-77.72"/>
<polygon fill="midnightblue" stroke="midnightblue" points="1465.15,-81 1473.5,-74.47 1462.9,-74.37 1465.15,-81"/>
</g>
<!-- Node18&#45;&gt;Node20 -->
<g id="edge22" class="edge">
<title>Node18&#45;&gt;Node20</title>
<path fill="none" stroke="midnightblue" d="M1331.55,-112.08C1327.4,-104.61 1321.35,-93.72 1316.23,-84.52"/>
<polygon fill="midnightblue" stroke="midnightblue" points="1319.28,-82.79 1311.36,-75.75 1313.16,-86.19 1319.28,-82.79"/>
</g>
<!-- Node22&#45;&gt;Node2 -->
<g id="edge30" class="edge">
<title>Node22&#45;&gt;Node2</title>
<path fill="none" stroke="midnightblue" d="M1362.86,-180.35C1287.01,-176.34 1159.21,-164.85 1054.5,-132 1035.91,-126.17 1034.13,-117.7 1015.5,-112 1001.7,-107.77 828.15,-87.77 723.05,-75.9"/>
<polygon fill="midnightblue" stroke="midnightblue" points="723.43,-72.42 713.1,-74.78 722.64,-79.38 723.43,-72.42"/>
</g>
<!-- Node22&#45;&gt;Node18 -->
<g id="edge29" class="edge">
<title>Node22&#45;&gt;Node18</title>
<path fill="none" stroke="midnightblue" d="M1406.7,-168.4C1392.09,-158.95 1372.93,-146.56 1358.32,-137.11"/>
<polygon fill="midnightblue" stroke="midnightblue" points="1360.18,-134.15 1349.89,-131.66 1356.38,-140.03 1360.18,-134.15"/>
</g>
<!-- Node22&#45;&gt;Node19 -->
<g id="edge31" class="edge">
<title>Node22&#45;&gt;Node19</title>
<path fill="none" stroke="midnightblue" d="M1443.18,-168.1C1452.29,-158.53 1463.71,-145.32 1471.5,-132 1480.04,-117.4 1486.44,-99.23 1490.48,-85.81"/>
<polygon fill="midnightblue" stroke="midnightblue" points="1493.94,-86.42 1493.3,-75.84 1487.21,-84.51 1493.94,-86.42"/>
</g>
<!-- Node22&#45;&gt;Node20 -->
<g id="edge32" class="edge">
<title>Node22&#45;&gt;Node20</title>
<path fill="none" stroke="midnightblue" d="M1426.08,-168.41C1422.76,-152.88 1415.42,-127.98 1400.5,-112 1384.23,-94.58 1359.81,-83.17 1339.94,-76.2"/>
<polygon fill="midnightblue" stroke="midnightblue" points="1340.91,-72.84 1330.32,-73.04 1338.73,-79.49 1340.91,-72.84"/>
</g>
<!-- Node23&#45;&gt;Node2 -->
<g id="edge35" class="edge">
<title>Node23&#45;&gt;Node2</title>
<path fill="none" stroke="midnightblue" d="M751.22,-112.44C730.15,-103.56 696.98,-89.56 673.01,-79.45"/>
<polygon fill="midnightblue" stroke="midnightblue" points="674.26,-76.18 663.69,-75.52 671.54,-82.63 674.26,-76.18"/>
</g>
<!-- Node24 -->
<g id="node24" class="node">
<title>Node24</title>
<g id="a_node24"><a xlink:title=" ">
<polygon fill="none" stroke="#bfbfbf" points="738,-56.5 738,-75.5 805,-75.5 805,-56.5 738,-56.5"/>
<text text-anchor="middle" x="771.5" y="-63.5" font-family="Helvetica,sans-Serif" font-size="10.00">fmt/core.h</text>
</a>
</g>
</g>
<!-- Node23&#45;&gt;Node24 -->
<g id="edge34" class="edge">
<title>Node23&#45;&gt;Node24</title>
<path fill="none" stroke="midnightblue" d="M771.5,-112.08C771.5,-105.01 771.5,-94.86 771.5,-85.99"/>
<polygon fill="midnightblue" stroke="midnightblue" points="775,-85.75 771.5,-75.75 768,-85.75 775,-85.75"/>
</g>
<!-- Node25&#45;&gt;Node19 -->
<g id="edge60" class="edge">
<title>Node25&#45;&gt;Node19</title>
<path fill="none" stroke="midnightblue" d="M1169.43,-298.37C1278.09,-285.54 1481.32,-254.6 1524.5,-199 1548.24,-168.43 1540.54,-148.79 1528.5,-112 1525.01,-101.34 1517.93,-91.12 1511.21,-83.12"/>
<polygon fill="midnightblue" stroke="midnightblue" points="1513.8,-80.76 1504.52,-75.66 1508.6,-85.44 1513.8,-80.76"/>
</g>
<!-- Node25&#45;&gt;Node20 -->
<g id="edge62" class="edge">
<title>Node25&#45;&gt;Node20</title>
<path fill="none" stroke="midnightblue" d="M1169.23,-300C1230.35,-293.51 1313.14,-280.25 1333.5,-255 1339.08,-248.08 1336.9,-243.21 1333.5,-235 1324.84,-214.09 1312.91,-215.56 1297.5,-199 1270.67,-170.17 1253.26,-168.91 1239.5,-132 1236.4,-123.67 1235.32,-119.84 1239.5,-112 1247.05,-97.83 1261.26,-87.33 1274.66,-80.06"/>
<polygon fill="midnightblue" stroke="midnightblue" points="1276.33,-83.13 1283.71,-75.53 1273.2,-76.87 1276.33,-83.13"/>
</g>
<!-- Node25&#45;&gt;Node21 -->
<g id="edge61" class="edge">
<title>Node25&#45;&gt;Node21</title>
<path fill="none" stroke="midnightblue" d="M1057.62,-296.92C1019.11,-288.52 961.42,-274.19 913.5,-255 838.36,-224.91 826.15,-203.7 753.5,-168 729.61,-156.26 701.96,-144.15 681.48,-135.45"/>
<polygon fill="midnightblue" stroke="midnightblue" points="682.62,-132.14 672.05,-131.48 679.9,-138.59 682.62,-132.14"/>
</g>
<!-- Node25&#45;&gt;Node23 -->
<g id="edge39" class="edge">
<title>Node25&#45;&gt;Node23</title>
<path fill="none" stroke="midnightblue" d="M1049.53,-296.97C1016.21,-289.67 972.86,-276.78 939.5,-255 896.51,-226.93 904.25,-199.23 863.5,-168 845.67,-154.34 823.04,-143.21 804.69,-135.43"/>
<polygon fill="midnightblue" stroke="midnightblue" points="805.84,-132.12 795.26,-131.57 803.19,-138.6 805.84,-132.12"/>
</g>
<!-- Node26 -->
<g id="node26" class="node">
<title>Node26</title>
<g id="a_node26"><a xlink:title=" ">
<polygon fill="none" stroke="#bfbfbf" points="1200.5,-235.5 1200.5,-254.5 1324.5,-254.5 1324.5,-235.5 1200.5,-235.5"/>
<text text-anchor="middle" x="1262.5" y="-242.5" font-family="Helvetica,sans-Serif" font-size="10.00">gemmi/symmetry.hpp</text>
</a>
</g>
</g>
<!-- Node25&#45;&gt;Node26 -->
<g id="edge37" class="edge">
<title>Node25&#45;&gt;Node26</title>
<path fill="none" stroke="midnightblue" d="M1123.71,-296.98C1151.5,-286.77 1198.22,-269.61 1229.69,-258.05"/>
<polygon fill="midnightblue" stroke="midnightblue" points="1231.15,-261.24 1239.33,-254.51 1228.74,-254.67 1231.15,-261.24"/>
</g>
<!-- Node27 -->
<g id="node27" class="node">
<title>Node27</title>
<g id="a_node27"><a xlink:title=" ">
<polygon fill="none" stroke="#bfbfbf" points="1144.5,-235.5 1144.5,-254.5 1182.5,-254.5 1182.5,-235.5 1144.5,-235.5"/>
<text text-anchor="middle" x="1163.5" y="-242.5" font-family="Helvetica,sans-Serif" font-size="10.00">map</text>
</a>
</g>
</g>
<!-- Node25&#45;&gt;Node27 -->
<g id="edge38" class="edge">
<title>Node25&#45;&gt;Node27</title>
<path fill="none" stroke="midnightblue" d="M1109.53,-296.98C1119.26,-287.78 1134.96,-272.96 1146.92,-261.66"/>
<polygon fill="midnightblue" stroke="midnightblue" points="1149.62,-263.92 1154.49,-254.51 1144.82,-258.83 1149.62,-263.92"/>
</g>
<!-- Node28 -->
<g id="node28" class="node">
<title>Node28</title>
<g id="a_node28"><a xlink:href="symmetryoperation_8h.html" target="_top" xlink:title=" ">
<polygon fill="none" stroke="black" points="948.5,-235.5 948.5,-254.5 1126.5,-254.5 1126.5,-235.5 948.5,-235.5"/>
<text text-anchor="middle" x="1037.5" y="-242.5" font-family="Helvetica,sans-Serif" font-size="10.00">occ/crystal/symmetryoperation.h</text>
</a>
</g>
</g>
<!-- Node25&#45;&gt;Node28 -->
<g id="edge40" class="edge">
<title>Node25&#45;&gt;Node28</title>
<path fill="none" stroke="midnightblue" d="M1091.47,-296.98C1081.74,-287.78 1066.04,-272.96 1054.08,-261.66"/>
<polygon fill="midnightblue" stroke="midnightblue" points="1056.18,-258.83 1046.51,-254.51 1051.38,-263.92 1056.18,-258.83"/>
</g>
<!-- Node28&#45;&gt;Node2 -->
<g id="edge41" class="edge">
<title>Node28&#45;&gt;Node2</title>
<path fill="none" stroke="midnightblue" d="M1016.95,-235.43C997.7,-227.08 968.4,-213.56 944.5,-199 916.98,-182.24 857.64,-125.76 828.5,-112 793,-95.24 750.61,-84.35 715.38,-77.48"/>
<polygon fill="midnightblue" stroke="midnightblue" points="715.64,-73.97 705.17,-75.56 714.35,-80.85 715.64,-73.97"/>
</g>
<!-- Node28&#45;&gt;Node19 -->
<g id="edge59" class="edge">
<title>Node28&#45;&gt;Node19</title>
<path fill="none" stroke="midnightblue" d="M1126.7,-235.76C1261.55,-223.25 1501.93,-200.73 1503.5,-199 1531.83,-167.8 1515.42,-113.48 1503.87,-85.24"/>
<polygon fill="midnightblue" stroke="midnightblue" points="1506.96,-83.58 1499.78,-75.79 1500.54,-86.36 1506.96,-83.58"/>
</g>
<!-- Node28&#45;&gt;Node29 -->
<g id="edge42" class="edge">
<title>Node28&#45;&gt;Node29</title>
<path fill="none" stroke="midnightblue" d="M1033.92,-235.48C1030.32,-226.9 1024.65,-213.43 1020.06,-202.48"/>
<polygon fill="midnightblue" stroke="midnightblue" points="1023.18,-200.87 1016.08,-193.01 1016.72,-203.58 1023.18,-200.87"/>
</g>
<!-- Node29&#45;&gt;Node2 -->
<g id="edge43" class="edge">
<title>Node29&#45;&gt;Node2</title>
<path fill="none" stroke="midnightblue" d="M994.11,-173.9C954.04,-155.15 862.36,-112.28 861.5,-112 813.18,-95.98 756.86,-84.53 713.57,-77.19"/>
<polygon fill="midnightblue" stroke="midnightblue" points="714.14,-73.74 703.7,-75.55 712.99,-80.64 714.14,-73.74"/>
</g>
<!-- Node29&#45;&gt;Node19 -->
<g id="edge58" class="edge">
<title>Node29&#45;&gt;Node19</title>
<path fill="none" stroke="midnightblue" d="M1071.1,-183.27C1148.91,-182.43 1289.44,-174.4 1400.5,-132 1430.5,-120.54 1460.27,-97.86 1478.28,-82.55"/>
<polygon fill="midnightblue" stroke="midnightblue" points="1480.89,-84.92 1486.12,-75.72 1476.29,-79.65 1480.89,-84.92"/>
</g>
<!-- Node29&#45;&gt;Node23 -->
<g id="edge57" class="edge">
<title>Node29&#45;&gt;Node23</title>
<path fill="none" stroke="midnightblue" d="M977.97,-173.98C935.29,-163.44 862.58,-145.49 815.82,-133.94"/>
<polygon fill="midnightblue" stroke="midnightblue" points="816.51,-130.51 805.97,-131.51 814.83,-137.3 816.51,-130.51"/>
</g>
<!-- Node30 -->
<g id="node30" class="node">
<title>Node30</title>
<g id="a_node30"><a xlink:href="units_8h.html" target="_top" xlink:title=" ">
<polygon fill="none" stroke="black" points="914,-112.5 914,-131.5 1007,-131.5 1007,-112.5 914,-112.5"/>
<text text-anchor="middle" x="960.5" y="-119.5" font-family="Helvetica,sans-Serif" font-size="10.00">occ/core/units.h</text>
</a>
</g>
</g>
<!-- Node29&#45;&gt;Node30 -->
<g id="edge44" class="edge">
<title>Node29&#45;&gt;Node30</title>
<path fill="none" stroke="midnightblue" d="M1005.05,-173.98C997.17,-164.96 984.56,-150.52 974.76,-139.31"/>
<polygon fill="midnightblue" stroke="midnightblue" points="977.15,-136.74 967.94,-131.51 971.88,-141.34 977.15,-136.74"/>
</g>
<!-- Node32 -->
<g id="node32" class="node">
<title>Node32</title>
<g id="a_node32"><a xlink:href="util_8h.html" target="_top" xlink:title=" ">
<polygon fill="none" stroke="black" points="1064,-112.5 1064,-131.5 1149,-131.5 1149,-112.5 1064,-112.5"/>
<text text-anchor="middle" x="1106.5" y="-119.5" font-family="Helvetica,sans-Serif" font-size="10.00">occ/core/util.h</text>
</a>
</g>
</g>
<!-- Node29&#45;&gt;Node32 -->
<g id="edge46" class="edge">
<title>Node29&#45;&gt;Node32</title>
<path fill="none" stroke="midnightblue" d="M1025.97,-173.98C1041.18,-164.34 1066.19,-148.52 1084.3,-137.05"/>
<polygon fill="midnightblue" stroke="midnightblue" points="1086.48,-139.81 1093.06,-131.51 1082.74,-133.9 1086.48,-139.81"/>
</g>
<!-- Node31 -->
<g id="node31" class="node">
<title>Node31</title>
<g id="a_node31"><a xlink:title=" ">
<polygon fill="none" stroke="#bfbfbf" points="823,-56.5 823,-75.5 870,-75.5 870,-56.5 823,-56.5"/>
<text text-anchor="middle" x="846.5" y="-63.5" font-family="Helvetica,sans-Serif" font-size="10.00">cmath</text>
</a>
</g>
</g>
<!-- Node30&#45;&gt;Node31 -->
<g id="edge45" class="edge">
<title>Node30&#45;&gt;Node31</title>
<path fill="none" stroke="midnightblue" d="M942.44,-112.44C923.93,-103.68 894.92,-89.94 873.64,-79.86"/>
<polygon fill="midnightblue" stroke="midnightblue" points="875.01,-76.63 864.48,-75.52 872.02,-82.96 875.01,-76.63"/>
</g>
<!-- Node32&#45;&gt;Node2 -->
<g id="edge53" class="edge">
<title>Node32&#45;&gt;Node2</title>
<path fill="none" stroke="midnightblue" d="M1063.89,-114.05C1059.04,-113.33 1054.17,-112.63 1049.5,-112 1018.06,-107.78 832.26,-87.48 723.22,-75.63"/>
<polygon fill="midnightblue" stroke="midnightblue" points="723.55,-72.15 713.23,-74.55 722.8,-79.11 723.55,-72.15"/>
</g>
<!-- Node32&#45;&gt;Node5 -->
<g id="edge50" class="edge">
<title>Node32&#45;&gt;Node5</title>
<path fill="none" stroke="midnightblue" d="M1146.25,-112.43C1180.1,-104.24 1224.89,-90.94 1235.5,-76 1240.65,-68.75 1241.1,-62.9 1235.5,-56 1215.68,-31.58 1131.87,-19.92 1075.21,-14.73"/>
<polygon fill="midnightblue" stroke="midnightblue" points="1075.23,-11.22 1064.97,-13.84 1074.62,-18.19 1075.23,-11.22"/>
</g>
<!-- Node32&#45;&gt;Node19 -->
<g id="edge54" class="edge">
<title>Node32&#45;&gt;Node19</title>
<path fill="none" stroke="midnightblue" d="M1149.24,-115.07C1227.71,-104.17 1393.11,-81.21 1463.11,-71.5"/>
<polygon fill="midnightblue" stroke="midnightblue" points="1463.69,-74.95 1473.11,-70.11 1462.73,-68.02 1463.69,-74.95"/>
</g>
<!-- Node32&#45;&gt;Node20 -->
<g id="edge55" class="edge">
<title>Node32&#45;&gt;Node20</title>
<path fill="none" stroke="midnightblue" d="M1138.19,-112.44C1174.94,-102.52 1235.26,-86.23 1272.83,-76.09"/>
<polygon fill="midnightblue" stroke="midnightblue" points="1274.04,-79.39 1282.79,-73.4 1272.22,-72.63 1274.04,-79.39"/>
</g>
<!-- Node32&#45;&gt;Node24 -->
<g id="edge49" class="edge">
<title>Node32&#45;&gt;Node24</title>
<path fill="none" stroke="midnightblue" d="M1063.86,-114.24C1059.02,-113.48 1054.15,-112.72 1049.5,-112 947.83,-96.22 919.56,-95.18 815.38,-76.27"/>
<polygon fill="midnightblue" stroke="midnightblue" points="815.86,-72.8 805.39,-74.44 814.6,-79.68 815.86,-72.8"/>
</g>
<!-- Node33 -->
<g id="node33" class="node">
<title>Node33</title>
<g id="a_node33"><a xlink:title=" ">
<polygon fill="none" stroke="#bfbfbf" points="888.5,-56.5 888.5,-75.5 952.5,-75.5 952.5,-56.5 888.5,-56.5"/>
<text text-anchor="middle" x="920.5" y="-63.5" font-family="Helvetica,sans-Serif" font-size="10.00">algorithm</text>
</a>
</g>
</g>
<!-- Node32&#45;&gt;Node33 -->
<g id="edge47" class="edge">
<title>Node32&#45;&gt;Node33</title>
<path fill="none" stroke="midnightblue" d="M1077.03,-112.44C1045.33,-103.24 994.77,-88.56 959.73,-78.39"/>
<polygon fill="midnightblue" stroke="midnightblue" points="960.41,-74.94 949.83,-75.52 958.46,-81.67 960.41,-74.94"/>
</g>
<!-- Node34 -->
<g id="node34" class="node">
<title>Node34</title>
<g id="a_node34"><a xlink:title=" ">
<polygon fill="none" stroke="#bfbfbf" points="971,-56.5 971,-75.5 1020,-75.5 1020,-56.5 971,-56.5"/>
<text text-anchor="middle" x="995.5" y="-63.5" font-family="Helvetica,sans-Serif" font-size="10.00">cctype</text>
</a>
</g>
</g>
<!-- Node32&#45;&gt;Node34 -->
<g id="edge48" class="edge">
<title>Node32&#45;&gt;Node34</title>
<path fill="none" stroke="midnightblue" d="M1088.67,-112.32C1070.78,-103.62 1043.02,-90.12 1022.45,-80.11"/>
<polygon fill="midnightblue" stroke="midnightblue" points="1023.81,-76.88 1013.29,-75.65 1020.75,-83.18 1023.81,-76.88"/>
</g>
<!-- Node35 -->
<g id="node35" class="node">
<title>Node35</title>
<g id="a_node35"><a xlink:title=" ">
<polygon fill="none" stroke="#bfbfbf" points="1038.5,-56.5 1038.5,-75.5 1084.5,-75.5 1084.5,-56.5 1038.5,-56.5"/>
<text text-anchor="middle" x="1061.5" y="-63.5" font-family="Helvetica,sans-Serif" font-size="10.00">locale</text>
</a>
</g>
</g>
<!-- Node32&#45;&gt;Node35 -->
<g id="edge51" class="edge">
<title>Node32&#45;&gt;Node35</title>
<path fill="none" stroke="midnightblue" d="M1099.07,-112.08C1092.65,-104.38 1083.19,-93.03 1075.38,-83.65"/>
<polygon fill="midnightblue" stroke="midnightblue" points="1077.88,-81.19 1068.79,-75.75 1072.51,-85.67 1077.88,-81.19"/>
</g>
<!-- Node36 -->
<g id="node36" class="node">
<title>Node36</title>
<g id="a_node36"><a xlink:title=" ">
<polygon fill="none" stroke="#bfbfbf" points="1102.5,-56.5 1102.5,-75.5 1158.5,-75.5 1158.5,-56.5 1102.5,-56.5"/>
<text text-anchor="middle" x="1130.5" y="-63.5" font-family="Helvetica,sans-Serif" font-size="10.00">numeric</text>
</a>
</g>
</g>
<!-- Node32&#45;&gt;Node36 -->
<g id="edge52" class="edge">
<title>Node32&#45;&gt;Node36</title>
<path fill="none" stroke="midnightblue" d="M1110.46,-112.08C1113.71,-104.77 1118.42,-94.18 1122.45,-85.1"/>
<polygon fill="midnightblue" stroke="midnightblue" points="1125.75,-86.31 1126.61,-75.75 1119.35,-83.47 1125.75,-86.31"/>
</g>
<!-- Node37 -->
<g id="node37" class="node">
<title>Node37</title>
<g id="a_node37"><a xlink:title=" ">
<polygon fill="none" stroke="#bfbfbf" points="1176.5,-56.5 1176.5,-75.5 1226.5,-75.5 1226.5,-56.5 1176.5,-56.5"/>
<text text-anchor="middle" x="1201.5" y="-63.5" font-family="Helvetica,sans-Serif" font-size="10.00">chrono</text>
</a>
</g>
</g>
<!-- Node32&#45;&gt;Node37 -->
<g id="edge56" class="edge">
<title>Node32&#45;&gt;Node37</title>
<path fill="none" stroke="midnightblue" d="M1121.76,-112.32C1136.72,-103.82 1159.75,-90.73 1177.23,-80.8"/>
<polygon fill="midnightblue" stroke="midnightblue" points="1179.31,-83.64 1186.27,-75.65 1175.85,-77.55 1179.31,-83.64"/>
</g>
<!-- Node38&#45;&gt;Node9 -->
<g id="edge65" class="edge">
<title>Node38&#45;&gt;Node9</title>
<path fill="none" stroke="midnightblue" d="M666.11,-291.4C638.56,-281.28 601.83,-267.79 575.58,-258.15"/>
<polygon fill="midnightblue" stroke="midnightblue" points="576.67,-254.82 566.07,-254.66 574.25,-261.39 576.67,-254.82"/>
</g>
<!-- Node38&#45;&gt;Node20 -->
<g id="edge69" class="edge">
<title>Node38&#45;&gt;Node20</title>
<path fill="none" stroke="midnightblue" d="M749.4,-291.45C796.58,-276.83 873.03,-253.51 939.5,-235 1001.39,-217.77 1020.06,-223.38 1079.5,-199 1100.84,-190.25 1230.27,-112.86 1283.58,-80.81"/>
<polygon fill="midnightblue" stroke="midnightblue" points="1285.56,-83.71 1292.32,-75.55 1281.95,-77.71 1285.56,-83.71"/>
</g>
<!-- Node39 -->
<g id="node39" class="node">
<title>Node39</title>
<g id="a_node39"><a xlink:href="site__index_8h.html" target="_top" xlink:title=" ">
<polygon fill="none" stroke="black" points="609,-235.5 609,-254.5 740,-254.5 740,-235.5 609,-235.5"/>
<text text-anchor="middle" x="674.5" y="-242.5" font-family="Helvetica,sans-Serif" font-size="10.00">occ/crystal/site_index.h</text>
</a>
</g>
</g>
<!-- Node38&#45;&gt;Node39 -->
<g id="edge66" class="edge">
<title>Node38&#45;&gt;Node39</title>
<path fill="none" stroke="midnightblue" d="M697.39,-291.4C693.21,-283.11 687.89,-272.55 683.43,-263.71"/>
<polygon fill="midnightblue" stroke="midnightblue" points="686.49,-262.01 678.87,-254.66 680.24,-265.16 686.49,-262.01"/>
</g>
<!-- Node39&#45;&gt;Node10 -->
<g id="edge67" class="edge">
<title>Node39&#45;&gt;Node10</title>
<path fill="none" stroke="midnightblue" d="M674.36,-235.48C674.22,-227.08 674,-213.98 673.81,-203.16"/>
<polygon fill="midnightblue" stroke="midnightblue" points="677.31,-202.95 673.64,-193.01 670.31,-203.07 677.31,-202.95"/>
</g>
<!-- Node39&#45;&gt;Node23 -->
<g id="edge68" class="edge">
<title>Node39&#45;&gt;Node23</title>
<path fill="none" stroke="midnightblue" d="M700.68,-235.4C718.19,-228.32 740.35,-216.56 753.5,-199 765.92,-182.42 769.92,-158.57 771.14,-142.03"/>
<polygon fill="midnightblue" stroke="midnightblue" points="774.64,-142.07 771.6,-131.92 767.65,-141.75 774.64,-142.07"/>
</g>
<!-- Node41 -->
<g id="node41" class="node">
<title>Node41</title>
<g id="a_node41"><a xlink:title=" ">
<polygon fill="none" stroke="#bfbfbf" points="1737,-358.5 1737,-377.5 1782,-377.5 1782,-358.5 1737,-358.5"/>
<text text-anchor="middle" x="1759.5" y="-365.5" font-family="Helvetica,sans-Serif" font-size="10.00">utility</text>
</a>
</g>
</g>
<!-- Node40&#45;&gt;Node41 -->
<g id="edge72" class="edge">
<title>Node40&#45;&gt;Node41</title>
<path fill="none" stroke="midnightblue" d="M1759.5,-414.08C1759.5,-407.01 1759.5,-396.86 1759.5,-387.99"/>
<polygon fill="midnightblue" stroke="midnightblue" points="1763,-387.75 1759.5,-377.75 1756,-387.75 1763,-387.75"/>
</g>
<!-- Node42&#45;&gt;Node2 -->
<g id="edge74" class="edge">
<title>Node42&#45;&gt;Node2</title>
<path fill="none" stroke="midnightblue" d="M72.18,-358.38C80.19,-338.79 98.5,-289.29 98.5,-246 98.5,-246 98.5,-246 98.5,-182.5 98.5,-143.3 117.26,-131.09 151.5,-112 220.11,-73.74 442.4,-67.19 563.34,-66.56"/>
<polygon fill="midnightblue" stroke="midnightblue" points="563.66,-70.06 573.65,-66.52 563.63,-63.06 563.66,-70.06"/>
</g>
</g>
</svg>
