<?xml version="1.0" encoding="UTF-8" standalone="no"?>
<!DOCTYPE svg PUBLIC "-//W3C//DTD SVG 1.1//EN"
 "http://www.w3.org/Graphics/SVG/1.1/DTD/svg11.dtd">
<!-- Generated by graphviz version 2.43.0 (0)
 -->
<!-- Title: /home/runner/work/occ/occ/include/occ/solvent/solvation_correction.h Pages: 1 -->
<svg width="1532pt" height="324pt"
 viewBox="0.00 0.00 1531.50 324.00" xmlns="http://www.w3.org/2000/svg" xmlns:xlink="http://www.w3.org/1999/xlink">
<g id="graph0" class="graph" transform="scale(1 1) rotate(0) translate(4 320)">
<title>/home/runner/work/occ/occ/include/occ/solvent/solvation_correction.h</title>
<!-- Node1 -->
<g id="Node000001" class="node">
<title>Node1</title>
<g id="a_Node000001"><a xlink:title=" ">
<polygon fill="#999999" stroke="#666666" points="876.5,-316 743.5,-316 743.5,-275 876.5,-275 876.5,-316"/>
<text text-anchor="start" x="751.5" y="-304" font-family="Helvetica,sans-Serif" font-size="10.00">/home/runner/work/occ</text>
<text text-anchor="start" x="751.5" y="-293" font-family="Helvetica,sans-Serif" font-size="10.00">/occ/include/occ/solvent</text>
<text text-anchor="middle" x="810" y="-282" font-family="Helvetica,sans-Serif" font-size="10.00">/solvation_correction.h</text>
</a>
</g>
</g>
<!-- Node2 -->
<g id="Node000002" class="node">
<title>Node2</title>
<g id="a_Node000002"><a xlink:title=" ">
<polygon fill="#e0e0e0" stroke="#999999" points="762,-129 720,-129 720,-110 762,-110 762,-129"/>
<text text-anchor="middle" x="741" y="-117" font-family="Helvetica,sans-Serif" font-size="10.00">array</text>
</a>
</g>
</g>
<!-- Node1&#45;&gt;Node2 -->
<g id="edge1_Node000001_Node000002" class="edge">
<title>Node1&#45;&gt;Node2</title>
<g id="a_edge1_Node000001_Node000002"><a xlink:title=" ">
<path fill="none" stroke="#63b8ff" d="M802.22,-274.88C788.73,-240.87 761.22,-171.49 748.17,-138.58"/>
<polygon fill="#63b8ff" stroke="#63b8ff" points="751.42,-137.28 744.48,-129.27 744.91,-139.86 751.42,-137.28"/>
</a>
</g>
</g>
<!-- Node3 -->
<g id="Node000003" class="node">
<title>Node3</title>
<g id="a_Node000003"><a xlink:href="atom_8h.html" target="_top" xlink:title=" ">
<polygon fill="white" stroke="#666666" points="521.5,-129 426.5,-129 426.5,-110 521.5,-110 521.5,-129"/>
<text text-anchor="middle" x="474" y="-117" font-family="Helvetica,sans-Serif" font-size="10.00">occ/core/atom.h</text>
</a>
</g>
</g>
<!-- Node1&#45;&gt;Node3 -->
<g id="edge2_Node000001_Node000003" class="edge">
<title>Node1&#45;&gt;Node3</title>
<g id="a_edge2_Node000001_Node000003"><a xlink:title=" ">
<path fill="none" stroke="#63b8ff" d="M743.41,-294.28C664.3,-289.98 535.46,-269.32 475,-184 465.94,-171.21 466.63,-153.04 469.04,-139.41"/>
<polygon fill="#63b8ff" stroke="#63b8ff" points="472.55,-139.77 471.29,-129.25 465.71,-138.25 472.55,-139.77"/>
</a>
</g>
</g>
<!-- Node8 -->
<g id="Node000008" class="node">
<title>Node8</title>
<g id="a_Node000008"><a xlink:href="energy__components_8h.html" target="_top" xlink:title=" ">
<polygon fill="white" stroke="#666666" points="1044,-239 876,-239 876,-220 1044,-220 1044,-239"/>
<text text-anchor="middle" x="960" y="-227" font-family="Helvetica,sans-Serif" font-size="10.00">occ/core/energy_components.h</text>
</a>
</g>
</g>
<!-- Node1&#45;&gt;Node8 -->
<g id="edge7_Node000001_Node000008" class="edge">
<title>Node1&#45;&gt;Node8</title>
<g id="a_edge7_Node000001_Node000008"><a xlink:title=" ">
<path fill="none" stroke="#63b8ff" d="M855.82,-274.95C880.07,-264.6 909.13,-252.2 930.4,-243.13"/>
<polygon fill="#63b8ff" stroke="#63b8ff" points="932.04,-246.24 939.86,-239.09 929.29,-239.8 932.04,-246.24"/>
</a>
</g>
</g>
<!-- Node12 -->
<g id="Node000012" class="node">
<title>Node12</title>
<g id="a_Node000012"><a xlink:href="log_8h.html" target="_top" xlink:title=" ">
<polygon fill="white" stroke="#666666" points="1471,-129 1387,-129 1387,-110 1471,-110 1471,-129"/>
<text text-anchor="middle" x="1429" y="-117" font-family="Helvetica,sans-Serif" font-size="10.00">occ/core/log.h</text>
</a>
</g>
</g>
<!-- Node1&#45;&gt;Node12 -->
<g id="edge11_Node000001_Node000012" class="edge">
<title>Node1&#45;&gt;Node12</title>
<g id="a_edge11_Node000001_Node000012"><a xlink:title=" ">
<path fill="none" stroke="#63b8ff" d="M876.51,-294.4C966.25,-292.48 1130.06,-282.58 1262,-239 1325.6,-217.99 1386.04,-163.73 1413.52,-136.53"/>
<polygon fill="#63b8ff" stroke="#63b8ff" points="1416.11,-138.89 1420.67,-129.33 1411.14,-133.96 1416.11,-138.89"/>
</a>
</g>
</g>
<!-- Node16 -->
<g id="Node000016" class="node">
<title>Node16</title>
<g id="a_Node000016"><a xlink:href="timings_8h.html" target="_top" xlink:title=" ">
<polygon fill="white" stroke="#666666" points="924,-129 818,-129 818,-110 924,-110 924,-129"/>
<text text-anchor="middle" x="871" y="-117" font-family="Helvetica,sans-Serif" font-size="10.00">occ/core/timings.h</text>
</a>
</g>
</g>
<!-- Node1&#45;&gt;Node16 -->
<g id="edge16_Node000001_Node000016" class="edge">
<title>Node1&#45;&gt;Node16</title>
<g id="a_edge16_Node000001_Node000016"><a xlink:title=" ">
<path fill="none" stroke="#63b8ff" d="M816.88,-274.88C828.75,-241.02 852.92,-172.09 864.51,-139.01"/>
<polygon fill="#63b8ff" stroke="#63b8ff" points="867.92,-139.87 867.92,-129.27 861.31,-137.55 867.92,-139.87"/>
</a>
</g>
</g>
<!-- Node18 -->
<g id="Node000018" class="node">
<title>Node18</title>
<g id="a_Node000018"><a xlink:href="units_8h.html" target="_top" xlink:title=" ">
<polygon fill="white" stroke="#666666" points="1518.5,-239 1425.5,-239 1425.5,-220 1518.5,-220 1518.5,-239"/>
<text text-anchor="middle" x="1472" y="-227" font-family="Helvetica,sans-Serif" font-size="10.00">occ/core/units.h</text>
</a>
</g>
</g>
<!-- Node1&#45;&gt;Node18 -->
<g id="edge19_Node000001_Node000018" class="edge">
<title>Node1&#45;&gt;Node18</title>
<g id="a_edge19_Node000001_Node000018"><a xlink:title=" ">
<path fill="none" stroke="#63b8ff" d="M876.81,-289.35C987.86,-280.56 1217.39,-261.42 1411,-239 1412.46,-238.83 1413.94,-238.66 1415.43,-238.47"/>
<polygon fill="#63b8ff" stroke="#63b8ff" points="1415.92,-241.94 1425.4,-237.22 1415.04,-235 1415.92,-241.94"/>
</a>
</g>
</g>
<!-- Node20 -->
<g id="Node000020" class="node">
<title>Node20</title>
<g id="a_Node000020"><a xlink:href="expectation_8h.html" target="_top" xlink:title=" ">
<polygon fill="white" stroke="#666666" points="256,-239 134,-239 134,-220 256,-220 256,-239"/>
<text text-anchor="middle" x="195" y="-227" font-family="Helvetica,sans-Serif" font-size="10.00">occ/qm/expectation.h</text>
</a>
</g>
</g>
<!-- Node1&#45;&gt;Node20 -->
<g id="edge21_Node000001_Node000020" class="edge">
<title>Node1&#45;&gt;Node20</title>
<g id="a_edge21_Node000001_Node000020"><a xlink:title=" ">
<path fill="none" stroke="#63b8ff" d="M743.26,-288.12C642.38,-278.39 444.77,-258.97 266.18,-239.11"/>
<polygon fill="#63b8ff" stroke="#63b8ff" points="266.4,-235.62 256.08,-237.99 265.63,-242.57 266.4,-235.62"/>
</a>
</g>
</g>
<!-- Node29 -->
<g id="Node000029" class="node">
<title>Node29</title>
<g id="a_Node000029"><a xlink:href="mo_8h.html" target="_top" xlink:title=" ">
<polygon fill="white" stroke="#666666" points="354,-239 274,-239 274,-220 354,-220 354,-239"/>
<text text-anchor="middle" x="314" y="-227" font-family="Helvetica,sans-Serif" font-size="10.00">occ/qm/mo.h</text>
</a>
</g>
</g>
<!-- Node1&#45;&gt;Node29 -->
<g id="edge37_Node000001_Node000029" class="edge">
<title>Node1&#45;&gt;Node29</title>
<g id="a_edge37_Node000001_Node000029"><a xlink:title=" ">
<path fill="none" stroke="#63b8ff" d="M743.36,-285.9C642.62,-272.9 453.79,-248.54 363.96,-236.95"/>
<polygon fill="#63b8ff" stroke="#63b8ff" points="364.39,-233.47 354.02,-235.66 363.49,-240.41 364.39,-233.47"/>
</a>
</g>
</g>
<!-- Node31 -->
<g id="Node000031" class="node">
<title>Node31</title>
<g id="a_Node000031"><a xlink:href="shell_8h.html" target="_top" xlink:title=" ">
<polygon fill="white" stroke="#666666" points="720.5,-239 633.5,-239 633.5,-220 720.5,-220 720.5,-239"/>
<text text-anchor="middle" x="677" y="-227" font-family="Helvetica,sans-Serif" font-size="10.00">occ/qm/shell.h</text>
</a>
</g>
</g>
<!-- Node1&#45;&gt;Node31 -->
<g id="edge41_Node000001_Node000031" class="edge">
<title>Node1&#45;&gt;Node31</title>
<g id="a_edge41_Node000001_Node000031"><a xlink:title=" ">
<path fill="none" stroke="#63b8ff" d="M769.37,-274.95C748.17,-264.75 722.8,-252.54 704.02,-243.5"/>
<polygon fill="#63b8ff" stroke="#63b8ff" points="705.38,-240.27 694.85,-239.09 702.35,-246.58 705.38,-240.27"/>
</a>
</g>
</g>
<!-- Node33 -->
<g id="Node000033" class="node">
<title>Node33</title>
<g id="a_Node000033"><a xlink:href="cosmo_8h.html" target="_top" xlink:title=" ">
<polygon fill="white" stroke="#666666" points="116,-239 0,-239 0,-220 116,-220 116,-239"/>
<text text-anchor="middle" x="58" y="-227" font-family="Helvetica,sans-Serif" font-size="10.00">occ/solvent/cosmo.h</text>
</a>
</g>
</g>
<!-- Node1&#45;&gt;Node33 -->
<g id="edge52_Node000001_Node000033" class="edge">
<title>Node1&#45;&gt;Node33</title>
<g id="a_edge52_Node000001_Node000033"><a xlink:title=" ">
<path fill="none" stroke="#63b8ff" d="M743.3,-290.1C622.44,-281.92 358.97,-263.06 126.1,-239.07"/>
<polygon fill="#63b8ff" stroke="#63b8ff" points="126.39,-235.58 116.09,-238.03 125.67,-242.54 126.39,-235.58"/>
</a>
</g>
</g>
<!-- Node34 -->
<g id="Node000034" class="node">
<title>Node34</title>
<g id="a_Node000034"><a xlink:href="parameters_8h.html" target="_top" xlink:title=" ">
<polygon fill="white" stroke="#666666" points="1253,-239 1113,-239 1113,-220 1253,-220 1253,-239"/>
<text text-anchor="middle" x="1183" y="-227" font-family="Helvetica,sans-Serif" font-size="10.00">occ/solvent/parameters.h</text>
</a>
</g>
</g>
<!-- Node1&#45;&gt;Node34 -->
<g id="edge54_Node000001_Node000034" class="edge">
<title>Node1&#45;&gt;Node34</title>
<g id="a_edge54_Node000001_Node000034"><a xlink:title=" ">
<path fill="none" stroke="#63b8ff" d="M876.68,-283.06C946.74,-271.04 1055.92,-252.3 1123.26,-240.75"/>
<polygon fill="#63b8ff" stroke="#63b8ff" points="1124.02,-244.17 1133.28,-239.03 1122.84,-237.27 1124.02,-244.17"/>
</a>
</g>
</g>
<!-- Node4 -->
<g id="Node000004" class="node">
<title>Node4</title>
<g id="a_Node000004"><a xlink:href="linear__algebra_8h.html" target="_top" xlink:title=" ">
<polygon fill="white" stroke="#666666" points="325.5,-74 186.5,-74 186.5,-55 325.5,-55 325.5,-74"/>
<text text-anchor="middle" x="256" y="-62" font-family="Helvetica,sans-Serif" font-size="10.00">occ/core/linear_algebra.h</text>
</a>
</g>
</g>
<!-- Node3&#45;&gt;Node4 -->
<g id="edge3_Node000003_Node000004" class="edge">
<title>Node3&#45;&gt;Node4</title>
<g id="a_edge3_Node000003_Node000004"><a xlink:title=" ">
<path fill="none" stroke="#63b8ff" d="M438.97,-109.98C401.5,-100.87 341.95,-86.4 301.02,-76.45"/>
<polygon fill="#63b8ff" stroke="#63b8ff" points="301.84,-73.04 291.3,-74.08 300.19,-79.85 301.84,-73.04"/>
</a>
</g>
</g>
<!-- Node5 -->
<g id="Node000005" class="node">
<title>Node5</title>
<g id="a_Node000005"><a xlink:title=" ">
<polygon fill="#e0e0e0" stroke="#999999" points="346.5,-19 269.5,-19 269.5,0 346.5,0 346.5,-19"/>
<text text-anchor="middle" x="308" y="-7" font-family="Helvetica,sans-Serif" font-size="10.00">Eigen/Dense</text>
</a>
</g>
</g>
<!-- Node4&#45;&gt;Node5 -->
<g id="edge4_Node000004_Node000005" class="edge">
<title>Node4&#45;&gt;Node5</title>
<g id="a_edge4_Node000004_Node000005"><a xlink:title=" ">
<path fill="none" stroke="#63b8ff" d="M264.59,-54.75C272.16,-47.03 283.38,-35.6 292.51,-26.28"/>
<polygon fill="#63b8ff" stroke="#63b8ff" points="295.07,-28.68 299.57,-19.09 290.07,-23.78 295.07,-28.68"/>
</a>
</g>
</g>
<!-- Node6 -->
<g id="Node000006" class="node">
<title>Node6</title>
<g id="a_Node000006"><a xlink:title=" ">
<polygon fill="#e0e0e0" stroke="#999999" points="251.5,-19 158.5,-19 158.5,0 251.5,0 251.5,-19"/>
<text text-anchor="middle" x="205" y="-7" font-family="Helvetica,sans-Serif" font-size="10.00">Eigen/StdVector</text>
</a>
</g>
</g>
<!-- Node4&#45;&gt;Node6 -->
<g id="edge5_Node000004_Node000006" class="edge">
<title>Node4&#45;&gt;Node6</title>
<g id="a_edge5_Node000004_Node000006"><a xlink:title=" ">
<path fill="none" stroke="#63b8ff" d="M247.58,-54.75C240.23,-47.11 229.37,-35.82 220.46,-26.56"/>
<polygon fill="#63b8ff" stroke="#63b8ff" points="222.72,-23.87 213.26,-19.09 217.68,-28.72 222.72,-23.87"/>
</a>
</g>
</g>
<!-- Node7 -->
<g id="Node000007" class="node">
<title>Node7</title>
<g id="a_Node000007"><a xlink:title=" ">
<polygon fill="#e0e0e0" stroke="#999999" points="779.5,-19 712.5,-19 712.5,0 779.5,0 779.5,-19"/>
<text text-anchor="middle" x="746" y="-7" font-family="Helvetica,sans-Serif" font-size="10.00">fmt/core.h</text>
</a>
</g>
</g>
<!-- Node4&#45;&gt;Node7 -->
<g id="edge6_Node000004_Node000007" class="edge">
<title>Node4&#45;&gt;Node7</title>
<g id="a_edge6_Node000004_Node000007"><a xlink:title=" ">
<path fill="none" stroke="#63b8ff" d="M325.68,-55.96C428.28,-44.87 617.02,-24.45 702.22,-15.24"/>
<polygon fill="#63b8ff" stroke="#63b8ff" points="702.76,-18.7 712.33,-14.14 702.01,-11.74 702.76,-18.7"/>
</a>
</g>
</g>
<!-- Node9 -->
<g id="Node000009" class="node">
<title>Node9</title>
<g id="a_Node000009"><a xlink:title=" ">
<polygon fill="#e0e0e0" stroke="#999999" points="1154.5,-184 1011.5,-184 1011.5,-165 1154.5,-165 1154.5,-184"/>
<text text-anchor="middle" x="1083" y="-172" font-family="Helvetica,sans-Serif" font-size="10.00">ankerl/unordered_dense.h</text>
</a>
</g>
</g>
<!-- Node8&#45;&gt;Node9 -->
<g id="edge8_Node000008_Node000009" class="edge">
<title>Node8&#45;&gt;Node9</title>
<g id="a_edge8_Node000008_Node000009"><a xlink:title=" ">
<path fill="none" stroke="#63b8ff" d="M979.76,-219.98C999.73,-211.38 1030.8,-197.99 1053.65,-188.15"/>
<polygon fill="#63b8ff" stroke="#63b8ff" points="1055.08,-191.34 1062.88,-184.17 1052.31,-184.91 1055.08,-191.34"/>
</a>
</g>
</g>
<!-- Node10 -->
<g id="Node000010" class="node">
<title>Node10</title>
<g id="a_Node000010"><a xlink:title=" ">
<polygon fill="#e0e0e0" stroke="#999999" points="993.5,-184 914.5,-184 914.5,-165 993.5,-165 993.5,-184"/>
<text text-anchor="middle" x="954" y="-172" font-family="Helvetica,sans-Serif" font-size="10.00">fmt/format.h</text>
</a>
</g>
</g>
<!-- Node8&#45;&gt;Node10 -->
<g id="edge9_Node000008_Node000010" class="edge">
<title>Node8&#45;&gt;Node10</title>
<g id="a_edge9_Node000008_Node000010"><a xlink:title=" ">
<path fill="none" stroke="#63b8ff" d="M959.01,-219.75C958.22,-212.8 957.1,-202.85 956.11,-194.13"/>
<polygon fill="#63b8ff" stroke="#63b8ff" points="959.58,-193.63 954.97,-184.09 952.62,-194.42 959.58,-193.63"/>
</a>
</g>
</g>
<!-- Node11 -->
<g id="Node000011" class="node">
<title>Node11</title>
<g id="a_Node000011"><a xlink:title=" ">
<polygon fill="#e0e0e0" stroke="#999999" points="951.5,-74 904.5,-74 904.5,-55 951.5,-55 951.5,-74"/>
<text text-anchor="middle" x="928" y="-62" font-family="Helvetica,sans-Serif" font-size="10.00">vector</text>
</a>
</g>
</g>
<!-- Node8&#45;&gt;Node11 -->
<g id="edge10_Node000008_Node000011" class="edge">
<title>Node8&#45;&gt;Node11</title>
<g id="a_edge10_Node000008_Node000011"><a xlink:title=" ">
<path fill="none" stroke="#63b8ff" d="M943.11,-219.95C930.29,-212.43 913.62,-200.15 906,-184 894.38,-159.37 924.39,-154.83 933,-129 937.81,-114.56 936,-97.28 933.3,-84.4"/>
<polygon fill="#63b8ff" stroke="#63b8ff" points="936.63,-83.27 930.84,-74.39 929.83,-84.94 936.63,-83.27"/>
</a>
</g>
</g>
<!-- Node12&#45;&gt;Node11 -->
<g id="edge15_Node000012_Node000011" class="edge">
<title>Node12&#45;&gt;Node11</title>
<g id="a_edge15_Node000012_Node000011"><a xlink:title=" ">
<path fill="none" stroke="#63b8ff" d="M1386.72,-114.03C1289.24,-103.71 1050.33,-78.44 961.76,-69.07"/>
<polygon fill="#63b8ff" stroke="#63b8ff" points="962.04,-65.58 951.72,-68.01 961.3,-72.54 962.04,-65.58"/>
</a>
</g>
</g>
<!-- Node13 -->
<g id="Node000013" class="node">
<title>Node13</title>
<g id="a_Node000013"><a xlink:title=" ">
<polygon fill="#e0e0e0" stroke="#999999" points="1412.5,-74 1347.5,-74 1347.5,-55 1412.5,-55 1412.5,-74"/>
<text text-anchor="middle" x="1380" y="-62" font-family="Helvetica,sans-Serif" font-size="10.00">functional</text>
</a>
</g>
</g>
<!-- Node12&#45;&gt;Node13 -->
<g id="edge12_Node000012_Node000013" class="edge">
<title>Node12&#45;&gt;Node13</title>
<g id="a_edge12_Node000012_Node000013"><a xlink:title=" ">
<path fill="none" stroke="#63b8ff" d="M1420.91,-109.75C1413.84,-102.11 1403.41,-90.82 1394.85,-81.56"/>
<polygon fill="#63b8ff" stroke="#63b8ff" points="1397.3,-79.06 1387.94,-74.09 1392.16,-83.81 1397.3,-79.06"/>
</a>
</g>
</g>
<!-- Node14 -->
<g id="Node000014" class="node">
<title>Node14</title>
<g id="a_Node000014"><a xlink:title=" ">
<polygon fill="#e0e0e0" stroke="#999999" points="1523.5,-74 1430.5,-74 1430.5,-55 1523.5,-55 1523.5,-74"/>
<text text-anchor="middle" x="1477" y="-62" font-family="Helvetica,sans-Serif" font-size="10.00">spdlog/spdlog.h</text>
</a>
</g>
</g>
<!-- Node12&#45;&gt;Node14 -->
<g id="edge13_Node000012_Node000014" class="edge">
<title>Node12&#45;&gt;Node14</title>
<g id="a_edge13_Node000012_Node000014"><a xlink:title=" ">
<path fill="none" stroke="#63b8ff" d="M1436.93,-109.75C1443.85,-102.11 1454.07,-90.82 1462.45,-81.56"/>
<polygon fill="#63b8ff" stroke="#63b8ff" points="1465.1,-83.85 1469.22,-74.09 1459.91,-79.15 1465.1,-83.85"/>
</a>
</g>
</g>
<!-- Node15 -->
<g id="Node000015" class="node">
<title>Node15</title>
<g id="a_Node000015"><a xlink:title=" ">
<polygon fill="#e0e0e0" stroke="#999999" points="1198,-74 1154,-74 1154,-55 1198,-55 1198,-74"/>
<text text-anchor="middle" x="1176" y="-62" font-family="Helvetica,sans-Serif" font-size="10.00">string</text>
</a>
</g>
</g>
<!-- Node12&#45;&gt;Node15 -->
<g id="edge14_Node000012_Node000015" class="edge">
<title>Node12&#45;&gt;Node15</title>
<g id="a_edge14_Node000012_Node000015"><a xlink:title=" ">
<path fill="none" stroke="#63b8ff" d="M1388.35,-109.98C1338.2,-99.48 1253.96,-81.83 1208.11,-72.23"/>
<polygon fill="#63b8ff" stroke="#63b8ff" points="1208.63,-68.76 1198.12,-70.13 1207.19,-75.61 1208.63,-68.76"/>
</a>
</g>
</g>
<!-- Node16&#45;&gt;Node15 -->
<g id="edge18_Node000016_Node000015" class="edge">
<title>Node16&#45;&gt;Node15</title>
<g id="a_edge18_Node000016_Node000015"><a xlink:title=" ">
<path fill="none" stroke="#63b8ff" d="M920,-109.98C982.99,-99.04 1090.58,-80.34 1143.99,-71.06"/>
<polygon fill="#63b8ff" stroke="#63b8ff" points="1144.66,-74.5 1153.91,-69.34 1143.46,-67.6 1144.66,-74.5"/>
</a>
</g>
</g>
<!-- Node17 -->
<g id="Node000017" class="node">
<title>Node17</title>
<g id="a_Node000017"><a xlink:title=" ">
<polygon fill="#e0e0e0" stroke="#999999" points="824,-74 774,-74 774,-55 824,-55 824,-74"/>
<text text-anchor="middle" x="799" y="-62" font-family="Helvetica,sans-Serif" font-size="10.00">chrono</text>
</a>
</g>
</g>
<!-- Node16&#45;&gt;Node17 -->
<g id="edge17_Node000016_Node000017" class="edge">
<title>Node16&#45;&gt;Node17</title>
<g id="a_edge17_Node000016_Node000017"><a xlink:title=" ">
<path fill="none" stroke="#63b8ff" d="M859.43,-109.98C848.58,-102 832.12,-89.88 819.12,-80.31"/>
<polygon fill="#63b8ff" stroke="#63b8ff" points="820.91,-77.28 810.78,-74.17 816.76,-82.92 820.91,-77.28"/>
</a>
</g>
</g>
<!-- Node19 -->
<g id="Node000019" class="node">
<title>Node19</title>
<g id="a_Node000019"><a xlink:title=" ">
<polygon fill="#e0e0e0" stroke="#999999" points="1495.5,-184 1448.5,-184 1448.5,-165 1495.5,-165 1495.5,-184"/>
<text text-anchor="middle" x="1472" y="-172" font-family="Helvetica,sans-Serif" font-size="10.00">cmath</text>
</a>
</g>
</g>
<!-- Node18&#45;&gt;Node19 -->
<g id="edge20_Node000018_Node000019" class="edge">
<title>Node18&#45;&gt;Node19</title>
<g id="a_edge20_Node000018_Node000019"><a xlink:title=" ">
<path fill="none" stroke="#63b8ff" d="M1472,-219.75C1472,-212.8 1472,-202.85 1472,-194.13"/>
<polygon fill="#63b8ff" stroke="#63b8ff" points="1475.5,-194.09 1472,-184.09 1468.5,-194.09 1475.5,-194.09"/>
</a>
</g>
</g>
<!-- Node21 -->
<g id="Node000021" class="node">
<title>Node21</title>
<g id="a_Node000021"><a xlink:href="spinorbital_8h.html" target="_top" xlink:title=" ">
<polygon fill="white" stroke="#666666" points="202,-184 86,-184 86,-165 202,-165 202,-184"/>
<text text-anchor="middle" x="144" y="-172" font-family="Helvetica,sans-Serif" font-size="10.00">occ/qm/spinorbital.h</text>
</a>
</g>
</g>
<!-- Node20&#45;&gt;Node21 -->
<g id="edge22_Node000020_Node000021" class="edge">
<title>Node20&#45;&gt;Node21</title>
<g id="a_edge22_Node000020_Node000021"><a xlink:title=" ">
<path fill="none" stroke="#63b8ff" d="M186.58,-219.75C179.23,-212.11 168.37,-200.82 159.46,-191.56"/>
<polygon fill="#63b8ff" stroke="#63b8ff" points="161.72,-188.87 152.26,-184.09 156.68,-193.72 161.72,-188.87"/>
</a>
</g>
</g>
<!-- Node21&#45;&gt;Node4 -->
<g id="edge23_Node000021_Node000004" class="edge">
<title>Node21&#45;&gt;Node4</title>
<g id="a_edge23_Node000021_Node000004"><a xlink:title=" ">
<path fill="none" stroke="#63b8ff" d="M158.68,-164.89C172.08,-156.65 192.02,-143.36 207,-129 221.7,-114.91 235.6,-96.19 244.81,-82.74"/>
<polygon fill="#63b8ff" stroke="#63b8ff" points="247.75,-84.64 250.39,-74.38 241.93,-80.75 247.75,-84.64"/>
</a>
</g>
</g>
<!-- Node22 -->
<g id="Node000022" class="node">
<title>Node22</title>
<g id="a_Node000022"><a xlink:href="util_8h.html" target="_top" xlink:title=" ">
<polygon fill="white" stroke="#666666" points="663.5,-129 578.5,-129 578.5,-110 663.5,-110 663.5,-129"/>
<text text-anchor="middle" x="621" y="-117" font-family="Helvetica,sans-Serif" font-size="10.00">occ/core/util.h</text>
</a>
</g>
</g>
<!-- Node21&#45;&gt;Node22 -->
<g id="edge24_Node000021_Node000022" class="edge">
<title>Node21&#45;&gt;Node22</title>
<g id="a_edge24_Node000021_Node000022"><a xlink:title=" ">
<path fill="none" stroke="#63b8ff" d="M202.1,-166.06C205.11,-165.7 208.09,-165.34 211,-165 339.28,-149.9 490.36,-133.99 568.41,-125.9"/>
<polygon fill="#63b8ff" stroke="#63b8ff" points="568.89,-129.37 578.47,-124.86 568.17,-122.41 568.89,-129.37"/>
</a>
</g>
</g>
<!-- Node28 -->
<g id="Node000028" class="node">
<title>Node28</title>
<g id="a_Node000028"><a xlink:href="qm_2opmatrix_8h.html" target="_top" xlink:title=" ">
<polygon fill="white" stroke="#666666" points="198,-129 90,-129 90,-110 198,-110 198,-129"/>
<text text-anchor="middle" x="144" y="-117" font-family="Helvetica,sans-Serif" font-size="10.00">occ/qm/opmatrix.h</text>
</a>
</g>
</g>
<!-- Node21&#45;&gt;Node28 -->
<g id="edge35_Node000021_Node000028" class="edge">
<title>Node21&#45;&gt;Node28</title>
<g id="a_edge35_Node000021_Node000028"><a xlink:title=" ">
<path fill="none" stroke="#63b8ff" d="M138.83,-164.75C137.34,-157.8 136.9,-147.85 137.52,-139.13"/>
<polygon fill="#63b8ff" stroke="#63b8ff" points="141.01,-139.47 138.87,-129.09 134.07,-138.53 141.01,-139.47"/>
</a>
</g>
</g>
<!-- Node22&#45;&gt;Node4 -->
<g id="edge32_Node000022_Node000004" class="edge">
<title>Node22&#45;&gt;Node4</title>
<g id="a_edge32_Node000022_Node000004"><a xlink:title=" ">
<path fill="none" stroke="#63b8ff" d="M578.36,-112.12C573.52,-111.4 568.65,-110.68 564,-110 482.22,-98 388.19,-84.45 325.76,-75.49"/>
<polygon fill="#63b8ff" stroke="#63b8ff" points="326.03,-71.99 315.63,-74.03 325.03,-78.92 326.03,-71.99"/>
</a>
</g>
</g>
<!-- Node22&#45;&gt;Node7 -->
<g id="edge28_Node000022_Node000007" class="edge">
<title>Node22&#45;&gt;Node7</title>
<g id="a_edge28_Node000022_Node000007"><a xlink:title=" ">
<path fill="none" stroke="#63b8ff" d="M663.03,-109.97C684.87,-103.51 710.39,-92.48 727,-74 738.06,-61.7 742.69,-43.19 744.62,-29.32"/>
<polygon fill="#63b8ff" stroke="#63b8ff" points="748.14,-29.31 745.69,-19.01 741.18,-28.59 748.14,-29.31"/>
</a>
</g>
</g>
<!-- Node22&#45;&gt;Node11 -->
<g id="edge34_Node000022_Node000011" class="edge">
<title>Node22&#45;&gt;Node11</title>
<g id="a_edge34_Node000022_Node000011"><a xlink:title=" ">
<path fill="none" stroke="#63b8ff" d="M663.69,-111.13C725.29,-100.5 837.88,-81.06 894.13,-71.35"/>
<polygon fill="#63b8ff" stroke="#63b8ff" points="895.02,-74.75 904.28,-69.6 893.83,-67.85 895.02,-74.75"/>
</a>
</g>
</g>
<!-- Node22&#45;&gt;Node15 -->
<g id="edge33_Node000022_Node000015" class="edge">
<title>Node22&#45;&gt;Node15</title>
<g id="a_edge33_Node000022_Node000015"><a xlink:title=" ">
<path fill="none" stroke="#63b8ff" d="M663.63,-114.43C770.68,-104.21 1049.02,-77.63 1143.83,-68.57"/>
<polygon fill="#63b8ff" stroke="#63b8ff" points="1144.33,-72.04 1153.95,-67.61 1143.66,-65.07 1144.33,-72.04"/>
</a>
</g>
</g>
<!-- Node22&#45;&gt;Node17 -->
<g id="edge27_Node000022_Node000017" class="edge">
<title>Node22&#45;&gt;Node17</title>
<g id="a_edge27_Node000022_Node000017"><a xlink:title=" ">
<path fill="none" stroke="#63b8ff" d="M649.6,-109.98C680.77,-100.7 730.66,-85.85 764.11,-75.89"/>
<polygon fill="#63b8ff" stroke="#63b8ff" points="765.34,-79.17 773.92,-72.97 763.34,-72.47 765.34,-79.17"/>
</a>
</g>
</g>
<!-- Node23 -->
<g id="Node000023" class="node">
<title>Node23</title>
<g id="a_Node000023"><a xlink:title=" ">
<polygon fill="#e0e0e0" stroke="#999999" points="408,-74 344,-74 344,-55 408,-55 408,-74"/>
<text text-anchor="middle" x="376" y="-62" font-family="Helvetica,sans-Serif" font-size="10.00">algorithm</text>
</a>
</g>
</g>
<!-- Node22&#45;&gt;Node23 -->
<g id="edge25_Node000022_Node000023" class="edge">
<title>Node22&#45;&gt;Node23</title>
<g id="a_edge25_Node000022_Node000023"><a xlink:title=" ">
<path fill="none" stroke="#63b8ff" d="M581.64,-109.98C536.87,-100.3 464.05,-84.55 418.15,-74.62"/>
<polygon fill="#63b8ff" stroke="#63b8ff" points="418.74,-71.16 408.23,-72.47 417.26,-78.01 418.74,-71.16"/>
</a>
</g>
</g>
<!-- Node24 -->
<g id="Node000024" class="node">
<title>Node24</title>
<g id="a_Node000024"><a xlink:title=" ">
<polygon fill="#e0e0e0" stroke="#999999" points="475.5,-74 426.5,-74 426.5,-55 475.5,-55 475.5,-74"/>
<text text-anchor="middle" x="451" y="-62" font-family="Helvetica,sans-Serif" font-size="10.00">cctype</text>
</a>
</g>
</g>
<!-- Node22&#45;&gt;Node24 -->
<g id="edge26_Node000022_Node000024" class="edge">
<title>Node22&#45;&gt;Node24</title>
<g id="a_edge26_Node000022_Node000024"><a xlink:title=" ">
<path fill="none" stroke="#63b8ff" d="M593.69,-109.98C564.3,-100.82 517.49,-86.23 485.56,-76.27"/>
<polygon fill="#63b8ff" stroke="#63b8ff" points="486.35,-72.85 475.76,-73.22 484.26,-79.54 486.35,-72.85"/>
</a>
</g>
</g>
<!-- Node25 -->
<g id="Node000025" class="node">
<title>Node25</title>
<g id="a_Node000025"><a xlink:title=" ">
<polygon fill="#e0e0e0" stroke="#999999" points="580,-74 494,-74 494,-55 580,-55 580,-74"/>
<text text-anchor="middle" x="537" y="-62" font-family="Helvetica,sans-Serif" font-size="10.00">fmt/ostream.h</text>
</a>
</g>
</g>
<!-- Node22&#45;&gt;Node25 -->
<g id="edge29_Node000022_Node000025" class="edge">
<title>Node22&#45;&gt;Node25</title>
<g id="a_edge29_Node000022_Node000025"><a xlink:title=" ">
<path fill="none" stroke="#63b8ff" d="M607.5,-109.98C594.6,-101.84 574.9,-89.41 559.6,-79.76"/>
<polygon fill="#63b8ff" stroke="#63b8ff" points="561.07,-76.55 550.74,-74.17 557.33,-82.47 561.07,-76.55"/>
</a>
</g>
</g>
<!-- Node26 -->
<g id="Node000026" class="node">
<title>Node26</title>
<g id="a_Node000026"><a xlink:title=" ">
<polygon fill="#e0e0e0" stroke="#999999" points="644,-74 598,-74 598,-55 644,-55 644,-74"/>
<text text-anchor="middle" x="621" y="-62" font-family="Helvetica,sans-Serif" font-size="10.00">locale</text>
</a>
</g>
</g>
<!-- Node22&#45;&gt;Node26 -->
<g id="edge30_Node000022_Node000026" class="edge">
<title>Node22&#45;&gt;Node26</title>
<g id="a_edge30_Node000022_Node000026"><a xlink:title=" ">
<path fill="none" stroke="#63b8ff" d="M621,-109.75C621,-102.8 621,-92.85 621,-84.13"/>
<polygon fill="#63b8ff" stroke="#63b8ff" points="624.5,-84.09 621,-74.09 617.5,-84.09 624.5,-84.09"/>
</a>
</g>
</g>
<!-- Node27 -->
<g id="Node000027" class="node">
<title>Node27</title>
<g id="a_Node000027"><a xlink:title=" ">
<polygon fill="#e0e0e0" stroke="#999999" points="718,-74 662,-74 662,-55 718,-55 718,-74"/>
<text text-anchor="middle" x="690" y="-62" font-family="Helvetica,sans-Serif" font-size="10.00">numeric</text>
</a>
</g>
</g>
<!-- Node22&#45;&gt;Node27 -->
<g id="edge31_Node000022_Node000027" class="edge">
<title>Node22&#45;&gt;Node27</title>
<g id="a_edge31_Node000022_Node000027"><a xlink:title=" ">
<path fill="none" stroke="#63b8ff" d="M632.09,-109.98C642.49,-102 658.26,-89.88 670.72,-80.31"/>
<polygon fill="#63b8ff" stroke="#63b8ff" points="672.91,-83.04 678.71,-74.17 668.65,-77.49 672.91,-83.04"/>
</a>
</g>
</g>
<!-- Node28&#45;&gt;Node21 -->
<g id="edge36_Node000028_Node000021" class="edge">
<title>Node28&#45;&gt;Node21</title>
<g id="a_edge36_Node000028_Node000021"><a xlink:title=" ">
<path fill="none" stroke="#63b8ff" d="M149.13,-129.09C150.64,-135.99 151.09,-145.93 150.49,-154.66"/>
<polygon fill="#63b8ff" stroke="#63b8ff" points="147,-154.38 149.17,-164.75 153.94,-155.29 147,-154.38"/>
</a>
</g>
</g>
<!-- Node29&#45;&gt;Node21 -->
<g id="edge40_Node000029_Node000021" class="edge">
<title>Node29&#45;&gt;Node21</title>
<g id="a_edge40_Node000029_Node000021"><a xlink:title=" ">
<path fill="none" stroke="#63b8ff" d="M286.69,-219.98C258.15,-211.09 213.17,-197.07 181.36,-187.15"/>
<polygon fill="#63b8ff" stroke="#63b8ff" points="182.12,-183.72 171.53,-184.08 180.03,-190.4 182.12,-183.72"/>
</a>
</g>
</g>
<!-- Node30 -->
<g id="Node000030" class="node">
<title>Node30</title>
<g id="a_Node000030"><a xlink:href="orbital__smearing_8h.html" target="_top" xlink:title=" ">
<polygon fill="white" stroke="#666666" points="366,-184 220,-184 220,-165 366,-165 366,-184"/>
<text text-anchor="middle" x="293" y="-172" font-family="Helvetica,sans-Serif" font-size="10.00">occ/qm/orbital_smearing.h</text>
</a>
</g>
</g>
<!-- Node29&#45;&gt;Node30 -->
<g id="edge38_Node000029_Node000030" class="edge">
<title>Node29&#45;&gt;Node30</title>
<g id="a_edge38_Node000029_Node000030"><a xlink:title=" ">
<path fill="none" stroke="#63b8ff" d="M310.53,-219.75C307.72,-212.65 303.66,-202.4 300.15,-193.56"/>
<polygon fill="#63b8ff" stroke="#63b8ff" points="303.34,-192.1 296.4,-184.09 296.83,-194.68 303.34,-192.1"/>
</a>
</g>
</g>
<!-- Node30&#45;&gt;Node4 -->
<g id="edge39_Node000030_Node000004" class="edge">
<title>Node30&#45;&gt;Node4</title>
<g id="a_edge39_Node000030_Node000004"><a xlink:title=" ">
<path fill="none" stroke="#63b8ff" d="M289.97,-164.66C283.93,-147.01 270.25,-107.09 262.21,-83.64"/>
<polygon fill="#63b8ff" stroke="#63b8ff" points="265.52,-82.48 258.97,-74.16 258.9,-84.75 265.52,-82.48"/>
</a>
</g>
</g>
<!-- Node31&#45;&gt;Node2 -->
<g id="edge42_Node000031_Node000002" class="edge">
<title>Node31&#45;&gt;Node2</title>
<g id="a_edge42_Node000031_Node000002"><a xlink:title=" ">
<path fill="none" stroke="#63b8ff" d="M684.07,-219.97C691.11,-211.25 702.01,-197.15 710,-184 718.95,-169.28 727.41,-151.59 733.22,-138.63"/>
<polygon fill="#63b8ff" stroke="#63b8ff" points="736.46,-139.96 737.28,-129.4 730.05,-137.15 736.46,-139.96"/>
</a>
</g>
</g>
<!-- Node31&#45;&gt;Node3 -->
<g id="edge44_Node000031_Node000003" class="edge">
<title>Node31&#45;&gt;Node3</title>
<g id="a_edge44_Node000031_Node000003"><a xlink:title=" ">
<path fill="none" stroke="#63b8ff" d="M633.13,-223.46C584.1,-216.94 508.98,-203.99 489,-184 477.37,-172.37 474.11,-153.51 473.46,-139.36"/>
<polygon fill="#63b8ff" stroke="#63b8ff" points="476.96,-139.22 473.4,-129.25 469.96,-139.27 476.96,-139.22"/>
</a>
</g>
</g>
<!-- Node31&#45;&gt;Node4 -->
<g id="edge45_Node000031_Node000004" class="edge">
<title>Node31&#45;&gt;Node4</title>
<g id="a_edge45_Node000031_Node000004"><a xlink:title=" ">
<path fill="none" stroke="#63b8ff" d="M633.44,-222.51C591.84,-215.95 527.84,-203.67 475,-184 398.44,-155.49 315.57,-104.5 277.43,-79.75"/>
<polygon fill="#63b8ff" stroke="#63b8ff" points="279.01,-76.6 268.72,-74.05 275.17,-82.46 279.01,-76.6"/>
</a>
</g>
</g>
<!-- Node31&#45;&gt;Node7 -->
<g id="edge43_Node000031_Node000007" class="edge">
<title>Node31&#45;&gt;Node7</title>
<g id="a_edge43_Node000031_Node000007"><a xlink:title=" ">
<path fill="none" stroke="#63b8ff" d="M676.83,-219.97C676.88,-198.4 680.09,-141.14 711,-110 750.82,-69.87 799.15,-119.28 833,-74 849.92,-51.36 816.54,-33.32 786.35,-22.34"/>
<polygon fill="#63b8ff" stroke="#63b8ff" points="787.32,-18.97 776.73,-19.03 785.04,-25.59 787.32,-18.97"/>
</a>
</g>
</g>
<!-- Node31&#45;&gt;Node11 -->
<g id="edge51_Node000031_Node000011" class="edge">
<title>Node31&#45;&gt;Node11</title>
<g id="a_edge51_Node000031_Node000011"><a xlink:title=" ">
<path fill="none" stroke="#63b8ff" d="M687.7,-219.8C698.51,-210.95 715.62,-196.76 730,-184 765.99,-152.08 768.12,-135.36 809,-110 835.85,-93.34 869.92,-81.39 894.71,-74.1"/>
<polygon fill="#63b8ff" stroke="#63b8ff" points="895.73,-77.45 904.39,-71.35 893.82,-70.71 895.73,-77.45"/>
</a>
</g>
</g>
<!-- Node31&#45;&gt;Node22 -->
<g id="edge50_Node000031_Node000022" class="edge">
<title>Node31&#45;&gt;Node22</title>
<g id="a_edge50_Node000031_Node000022"><a xlink:title=" ">
<path fill="none" stroke="#63b8ff" d="M672.42,-219.66C663.22,-201.93 642.38,-161.73 630.24,-138.32"/>
<polygon fill="#63b8ff" stroke="#63b8ff" points="633.2,-136.42 625.49,-129.16 626.99,-139.65 633.2,-136.42"/>
</a>
</g>
</g>
<!-- Node32 -->
<g id="Node000032" class="node">
<title>Node32</title>
<g id="a_Node000032"><a xlink:href="point__charge_8h.html" target="_top" xlink:title=" ">
<polygon fill="white" stroke="#666666" points="630,-184 498,-184 498,-165 630,-165 630,-184"/>
<text text-anchor="middle" x="564" y="-172" font-family="Helvetica,sans-Serif" font-size="10.00">occ/core/point_charge.h</text>
</a>
</g>
</g>
<!-- Node31&#45;&gt;Node32 -->
<g id="edge46_Node000031_Node000032" class="edge">
<title>Node31&#45;&gt;Node32</title>
<g id="a_edge46_Node000031_Node000032"><a xlink:title=" ">
<path fill="none" stroke="#63b8ff" d="M658.84,-219.98C640.75,-211.5 612.72,-198.35 591.81,-188.54"/>
<polygon fill="#63b8ff" stroke="#63b8ff" points="593.03,-185.25 582.49,-184.17 590.05,-191.59 593.03,-185.25"/>
</a>
</g>
</g>
<!-- Node32&#45;&gt;Node2 -->
<g id="edge47_Node000032_Node000002" class="edge">
<title>Node32&#45;&gt;Node2</title>
<g id="a_edge47_Node000032_Node000002"><a xlink:title=" ">
<path fill="none" stroke="#63b8ff" d="M592.44,-164.98C624.67,-155.33 677.04,-139.65 710.22,-129.72"/>
<polygon fill="#63b8ff" stroke="#63b8ff" points="711.28,-133.05 719.85,-126.83 709.27,-126.35 711.28,-133.05"/>
</a>
</g>
</g>
<!-- Node32&#45;&gt;Node3 -->
<g id="edge48_Node000032_Node000003" class="edge">
<title>Node32&#45;&gt;Node3</title>
<g id="a_edge48_Node000032_Node000003"><a xlink:title=" ">
<path fill="none" stroke="#63b8ff" d="M549.54,-164.98C535.58,-156.77 514.21,-144.18 497.75,-134.49"/>
<polygon fill="#63b8ff" stroke="#63b8ff" points="499.12,-131.23 488.72,-129.17 495.56,-137.26 499.12,-131.23"/>
</a>
</g>
</g>
<!-- Node32&#45;&gt;Node4 -->
<g id="edge49_Node000032_Node000004" class="edge">
<title>Node32&#45;&gt;Node4</title>
<g id="a_edge49_Node000032_Node000004"><a xlink:title=" ">
<path fill="none" stroke="#63b8ff" d="M562.01,-164.88C558.3,-150.91 548.93,-123.52 530,-110 514.28,-98.78 410.81,-84.16 335.65,-74.8"/>
<polygon fill="#63b8ff" stroke="#63b8ff" points="336.06,-71.33 325.71,-73.57 335.2,-78.27 336.06,-71.33"/>
</a>
</g>
</g>
<!-- Node33&#45;&gt;Node4 -->
<g id="edge53_Node000033_Node000004" class="edge">
<title>Node33&#45;&gt;Node4</title>
<g id="a_edge53_Node000033_Node000004"><a xlink:title=" ">
<path fill="none" stroke="#63b8ff" d="M56.86,-219.98C54.5,-198.43 51.5,-141.24 81,-110 95.45,-94.7 142.86,-83.21 184.7,-75.74"/>
<polygon fill="#63b8ff" stroke="#63b8ff" points="185.37,-79.18 194.63,-74.02 184.18,-72.28 185.37,-79.18"/>
</a>
</g>
</g>
<!-- Node34&#45;&gt;Node9 -->
<g id="edge55_Node000034_Node000009" class="edge">
<title>Node34&#45;&gt;Node9</title>
<g id="a_edge55_Node000034_Node000009"><a xlink:title=" ">
<path fill="none" stroke="#63b8ff" d="M1166.93,-219.98C1151.14,-211.61 1126.78,-198.7 1108.37,-188.95"/>
<polygon fill="#63b8ff" stroke="#63b8ff" points="1109.83,-185.76 1099.36,-184.17 1106.56,-191.95 1109.83,-185.76"/>
</a>
</g>
</g>
<!-- Node34&#45;&gt;Node15 -->
<g id="edge60_Node000034_Node000015" class="edge">
<title>Node34&#45;&gt;Node15</title>
<g id="a_edge60_Node000034_Node000015"><a xlink:title=" ">
<path fill="none" stroke="#63b8ff" d="M1238.55,-219.97C1278.55,-212.57 1327.57,-200.44 1340,-184 1359.83,-157.76 1359.98,-136.12 1340,-110 1324.06,-89.16 1251.13,-75.8 1208.07,-69.58"/>
<polygon fill="#63b8ff" stroke="#63b8ff" points="1208.47,-66.11 1198.08,-68.19 1207.5,-73.04 1208.47,-66.11"/>
</a>
</g>
</g>
<!-- Node35 -->
<g id="Node000035" class="node">
<title>Node35</title>
<g id="a_Node000035"><a xlink:href="solvent__json_8h.html" target="_top" xlink:title=" ">
<polygon fill="white" stroke="#666666" points="1330.5,-184 1211.5,-184 1211.5,-165 1330.5,-165 1330.5,-184"/>
<text text-anchor="middle" x="1271" y="-172" font-family="Helvetica,sans-Serif" font-size="10.00">occ/io/solvent_json.h</text>
</a>
</g>
</g>
<!-- Node34&#45;&gt;Node35 -->
<g id="edge56_Node000034_Node000035" class="edge">
<title>Node34&#45;&gt;Node35</title>
<g id="a_edge56_Node000034_Node000035"><a xlink:title=" ">
<path fill="none" stroke="#63b8ff" d="M1197.14,-219.98C1210.79,-211.77 1231.69,-199.18 1247.78,-189.49"/>
<polygon fill="#63b8ff" stroke="#63b8ff" points="1249.84,-192.33 1256.6,-184.17 1246.23,-186.33 1249.84,-192.33"/>
</a>
</g>
</g>
<!-- Node37 -->
<g id="Node000037" class="node">
<title>Node37</title>
<g id="a_Node000037"><a xlink:href="smd__parameters_8h.html" target="_top" xlink:title=" ">
<polygon fill="white" stroke="#666666" points="1202.5,-129 1035.5,-129 1035.5,-110 1202.5,-110 1202.5,-129"/>
<text text-anchor="middle" x="1119" y="-117" font-family="Helvetica,sans-Serif" font-size="10.00">occ/solvent/smd_parameters.h</text>
</a>
</g>
</g>
<!-- Node34&#45;&gt;Node37 -->
<g id="edge59_Node000034_Node000037" class="edge">
<title>Node34&#45;&gt;Node37</title>
<g id="a_edge59_Node000034_Node000037"><a xlink:title=" ">
<path fill="none" stroke="#63b8ff" d="M1181.79,-219.73C1179.73,-206.94 1174.66,-182.76 1164,-165 1157.33,-153.89 1147.26,-143.58 1138.33,-135.68"/>
<polygon fill="#63b8ff" stroke="#63b8ff" points="1140.49,-132.92 1130.59,-129.16 1135.98,-138.28 1140.49,-132.92"/>
</a>
</g>
</g>
<!-- Node36 -->
<g id="Node000036" class="node">
<title>Node36</title>
<g id="a_Node000036"><a xlink:title=" ">
<polygon fill="#e0e0e0" stroke="#999999" points="1331,-129 1221,-129 1221,-110 1331,-110 1331,-129"/>
<text text-anchor="middle" x="1276" y="-117" font-family="Helvetica,sans-Serif" font-size="10.00">nlohmann/json.hpp</text>
</a>
</g>
</g>
<!-- Node35&#45;&gt;Node36 -->
<g id="edge57_Node000035_Node000036" class="edge">
<title>Node35&#45;&gt;Node36</title>
<g id="a_edge57_Node000035_Node000036"><a xlink:title=" ">
<path fill="none" stroke="#63b8ff" d="M1271.83,-164.75C1272.48,-157.8 1273.42,-147.85 1274.24,-139.13"/>
<polygon fill="#63b8ff" stroke="#63b8ff" points="1277.73,-139.37 1275.19,-129.09 1270.77,-138.72 1277.73,-139.37"/>
</a>
</g>
</g>
<!-- Node35&#45;&gt;Node37 -->
<g id="edge58_Node000035_Node000037" class="edge">
<title>Node35&#45;&gt;Node37</title>
<g id="a_edge58_Node000035_Node000037"><a xlink:title=" ">
<path fill="none" stroke="#63b8ff" d="M1246.58,-164.98C1221.28,-156.16 1181.55,-142.31 1153.14,-132.41"/>
<polygon fill="#63b8ff" stroke="#63b8ff" points="1154.21,-129.07 1143.61,-129.08 1151.9,-135.68 1154.21,-129.07"/>
</a>
</g>
</g>
</g>
</svg>
