<?xml version="1.0" encoding="UTF-8" standalone="no"?>
<!DOCTYPE svg PUBLIC "-//W3C//DTD SVG 1.1//EN"
 "http://www.w3.org/Graphics/SVG/1.1/DTD/svg11.dtd">
<!-- Generated by graphviz version 2.43.0 (0)
 -->
<!-- Title: /home/runner/work/occ/occ/include/occ/solvent/solvation_correction.h Pages: 1 -->
<svg width="1447pt" height="352pt"
 viewBox="0.00 0.00 1447.00 352.00" xmlns="http://www.w3.org/2000/svg" xmlns:xlink="http://www.w3.org/1999/xlink">
<g id="graph0" class="graph" transform="scale(1 1) rotate(0) translate(4 348)">
<title>/home/runner/work/occ/occ/include/occ/solvent/solvation_correction.h</title>
<!-- Node1 -->
<g id="node1" class="node">
<title>Node1</title>
<g id="a_node1"><a xlink:title=" ">
<polygon fill="#bfbfbf" stroke="black" points="681.5,-302.5 681.5,-343.5 814.5,-343.5 814.5,-302.5 681.5,-302.5"/>
<text text-anchor="start" x="689.5" y="-331.5" font-family="Helvetica,sans-Serif" font-size="10.00">/home/runner/work/occ</text>
<text text-anchor="start" x="689.5" y="-320.5" font-family="Helvetica,sans-Serif" font-size="10.00">/occ/include/occ/solvent</text>
<text text-anchor="middle" x="748" y="-309.5" font-family="Helvetica,sans-Serif" font-size="10.00">/solvation_correction.h</text>
</a>
</g>
</g>
<!-- Node2 -->
<g id="node2" class="node">
<title>Node2</title>
<g id="a_node2"><a xlink:title=" ">
<polygon fill="none" stroke="#bfbfbf" points="1010,-123.5 1010,-142.5 1052,-142.5 1052,-123.5 1010,-123.5"/>
<text text-anchor="middle" x="1031" y="-130.5" font-family="Helvetica,sans-Serif" font-size="10.00">array</text>
</a>
</g>
</g>
<!-- Node1&#45;&gt;Node2 -->
<g id="edge1" class="edge">
<title>Node1&#45;&gt;Node2</title>
<path fill="none" stroke="midnightblue" d="M814.58,-316.78C884.68,-309.82 988.51,-294.88 1015,-266 1043.39,-235.05 1039.51,-181.42 1034.89,-152.98"/>
<polygon fill="midnightblue" stroke="midnightblue" points="1038.26,-151.99 1033.02,-142.79 1031.38,-153.25 1038.26,-151.99"/>
</g>
<!-- Node3 -->
<g id="node3" class="node">
<title>Node3</title>
<g id="a_node3"><a xlink:href="atom_8h.html" target="_top" xlink:title=" ">
<polygon fill="none" stroke="black" points="1162.5,-123.5 1162.5,-142.5 1257.5,-142.5 1257.5,-123.5 1162.5,-123.5"/>
<text text-anchor="middle" x="1210" y="-130.5" font-family="Helvetica,sans-Serif" font-size="10.00">occ/core/atom.h</text>
</a>
</g>
</g>
<!-- Node1&#45;&gt;Node3 -->
<g id="edge2" class="edge">
<title>Node1&#45;&gt;Node3</title>
<path fill="none" stroke="midnightblue" d="M814.56,-316.5C932.92,-305.14 1172.07,-274.59 1220,-210 1232.48,-193.18 1225.84,-168.33 1218.87,-151.67"/>
<polygon fill="midnightblue" stroke="midnightblue" points="1222.01,-150.13 1214.66,-142.5 1215.65,-153.05 1222.01,-150.13"/>
</g>
<!-- Node8 -->
<g id="node8" class="node">
<title>Node8</title>
<g id="a_node8"><a xlink:href="energy__components_8h.html" target="_top" xlink:title=" ">
<polygon fill="none" stroke="black" points="520,-246.5 520,-265.5 688,-265.5 688,-246.5 520,-246.5"/>
<text text-anchor="middle" x="604" y="-253.5" font-family="Helvetica,sans-Serif" font-size="10.00">occ/core/energy_components.h</text>
</a>
</g>
</g>
<!-- Node1&#45;&gt;Node8 -->
<g id="edge7" class="edge">
<title>Node1&#45;&gt;Node8</title>
<path fill="none" stroke="midnightblue" d="M704.8,-302.5C681.34,-291.91 653,-279.12 632.35,-269.8"/>
<polygon fill="midnightblue" stroke="midnightblue" points="633.72,-266.58 623.17,-265.65 630.84,-272.96 633.72,-266.58"/>
</g>
<!-- Node12 -->
<g id="node12" class="node">
<title>Node12</title>
<g id="a_node12"><a xlink:href="log_8h.html" target="_top" xlink:title=" ">
<polygon fill="none" stroke="black" points="706,-246.5 706,-265.5 790,-265.5 790,-246.5 706,-246.5"/>
<text text-anchor="middle" x="748" y="-253.5" font-family="Helvetica,sans-Serif" font-size="10.00">occ/core/log.h</text>
</a>
</g>
</g>
<!-- Node1&#45;&gt;Node12 -->
<g id="edge11" class="edge">
<title>Node1&#45;&gt;Node12</title>
<path fill="none" stroke="midnightblue" d="M748,-302.5C748,-294.07 748,-284.24 748,-275.87"/>
<polygon fill="midnightblue" stroke="midnightblue" points="751.5,-275.65 748,-265.65 744.5,-275.65 751.5,-275.65"/>
</g>
<!-- Node14 -->
<g id="node14" class="node">
<title>Node14</title>
<g id="a_node14"><a xlink:href="timings_8h.html" target="_top" xlink:title=" ">
<polygon fill="none" stroke="black" points="0,-246.5 0,-265.5 106,-265.5 106,-246.5 0,-246.5"/>
<text text-anchor="middle" x="53" y="-253.5" font-family="Helvetica,sans-Serif" font-size="10.00">occ/core/timings.h</text>
</a>
</g>
</g>
<!-- Node1&#45;&gt;Node14 -->
<g id="edge13" class="edge">
<title>Node1&#45;&gt;Node14</title>
<path fill="none" stroke="midnightblue" d="M681.35,-317.34C567.63,-309.11 328.63,-290.64 116.17,-266.08"/>
<polygon fill="midnightblue" stroke="midnightblue" points="116.41,-262.58 106.07,-264.9 115.6,-269.54 116.41,-262.58"/>
</g>
<!-- Node17 -->
<g id="node17" class="node">
<title>Node17</title>
<g id="a_node17"><a xlink:href="units_8h.html" target="_top" xlink:title=" ">
<polygon fill="none" stroke="black" points="807.5,-246.5 807.5,-265.5 900.5,-265.5 900.5,-246.5 807.5,-246.5"/>
<text text-anchor="middle" x="854" y="-253.5" font-family="Helvetica,sans-Serif" font-size="10.00">occ/core/units.h</text>
</a>
</g>
</g>
<!-- Node1&#45;&gt;Node17 -->
<g id="edge16" class="edge">
<title>Node1&#45;&gt;Node17</title>
<path fill="none" stroke="midnightblue" d="M779.8,-302.5C796.37,-292.34 816.24,-280.16 831.25,-270.95"/>
<polygon fill="midnightblue" stroke="midnightblue" points="833.19,-273.86 839.89,-265.65 829.54,-267.9 833.19,-273.86"/>
</g>
<!-- Node19 -->
<g id="node19" class="node">
<title>Node19</title>
<g id="a_node19"><a xlink:href="expectation_8h.html" target="_top" xlink:title=" ">
<polygon fill="none" stroke="black" points="222,-246.5 222,-265.5 344,-265.5 344,-246.5 222,-246.5"/>
<text text-anchor="middle" x="283" y="-253.5" font-family="Helvetica,sans-Serif" font-size="10.00">occ/qm/expectation.h</text>
</a>
</g>
</g>
<!-- Node1&#45;&gt;Node19 -->
<g id="edge18" class="edge">
<title>Node1&#45;&gt;Node19</title>
<path fill="none" stroke="midnightblue" d="M681.38,-312.69C594.45,-300.54 442.96,-279.36 353.95,-266.92"/>
<polygon fill="midnightblue" stroke="midnightblue" points="354.33,-263.44 343.95,-265.52 353.36,-270.37 354.33,-263.44"/>
</g>
<!-- Node29 -->
<g id="node29" class="node">
<title>Node29</title>
<g id="a_node29"><a xlink:href="mo_8h.html" target="_top" xlink:title=" ">
<polygon fill="none" stroke="black" points="124,-246.5 124,-265.5 204,-265.5 204,-246.5 124,-246.5"/>
<text text-anchor="middle" x="164" y="-253.5" font-family="Helvetica,sans-Serif" font-size="10.00">occ/qm/mo.h</text>
</a>
</g>
</g>
<!-- Node1&#45;&gt;Node29 -->
<g id="edge33" class="edge">
<title>Node1&#45;&gt;Node29</title>
<path fill="none" stroke="midnightblue" d="M681.49,-316.7C582.05,-308.42 388.55,-290.87 214.2,-266.07"/>
<polygon fill="midnightblue" stroke="midnightblue" points="214.47,-262.58 204.07,-264.62 213.47,-269.5 214.47,-262.58"/>
</g>
<!-- Node30 -->
<g id="node30" class="node">
<title>Node30</title>
<g id="a_node30"><a xlink:href="shell_8h.html" target="_top" xlink:title=" ">
<polygon fill="none" stroke="black" points="918.5,-246.5 918.5,-265.5 1005.5,-265.5 1005.5,-246.5 918.5,-246.5"/>
<text text-anchor="middle" x="962" y="-253.5" font-family="Helvetica,sans-Serif" font-size="10.00">occ/qm/shell.h</text>
</a>
</g>
</g>
<!-- Node1&#45;&gt;Node30 -->
<g id="edge35" class="edge">
<title>Node1&#45;&gt;Node30</title>
<path fill="none" stroke="midnightblue" d="M812.21,-302.5C848.6,-291.44 892.9,-277.99 923.84,-268.59"/>
<polygon fill="midnightblue" stroke="midnightblue" points="925.24,-271.82 933.79,-265.57 923.21,-265.12 925.24,-271.82"/>
</g>
<!-- Node33 -->
<g id="node33" class="node">
<title>Node33</title>
<g id="a_node33"><a xlink:href="cosmo_8h.html" target="_top" xlink:title=" ">
<polygon fill="none" stroke="black" points="1323,-123.5 1323,-142.5 1439,-142.5 1439,-123.5 1323,-123.5"/>
<text text-anchor="middle" x="1381" y="-130.5" font-family="Helvetica,sans-Serif" font-size="10.00">occ/solvent/cosmo.h</text>
</a>
</g>
</g>
<!-- Node1&#45;&gt;Node33 -->
<g id="edge46" class="edge">
<title>Node1&#45;&gt;Node33</title>
<path fill="none" stroke="midnightblue" d="M814.62,-320.57C896.73,-317.07 1039.53,-305.28 1155,-266 1202.49,-249.84 1209.65,-235.25 1253,-210 1289.99,-188.45 1332.71,-162.97 1358.25,-147.66"/>
<polygon fill="midnightblue" stroke="midnightblue" points="1360.06,-150.66 1366.84,-142.51 1356.46,-144.65 1360.06,-150.66"/>
</g>
<!-- Node34 -->
<g id="node34" class="node">
<title>Node34</title>
<g id="a_node34"><a xlink:href="parameters_8h.html" target="_top" xlink:title=" ">
<polygon fill="none" stroke="black" points="362,-246.5 362,-265.5 502,-265.5 502,-246.5 362,-246.5"/>
<text text-anchor="middle" x="432" y="-253.5" font-family="Helvetica,sans-Serif" font-size="10.00">occ/solvent/parameters.h</text>
</a>
</g>
</g>
<!-- Node1&#45;&gt;Node34 -->
<g id="edge48" class="edge">
<title>Node1&#45;&gt;Node34</title>
<path fill="none" stroke="midnightblue" d="M681.37,-308.29C622.34,-296.15 537.39,-278.68 483.45,-267.58"/>
<polygon fill="midnightblue" stroke="midnightblue" points="483.93,-264.11 473.43,-265.52 482.52,-270.96 483.93,-264.11"/>
</g>
<!-- Node4 -->
<g id="node4" class="node">
<title>Node4</title>
<g id="a_node4"><a xlink:href="linear__algebra_8h.html" target="_top" xlink:title=" ">
<polygon fill="none" stroke="black" points="1098.5,-67.5 1098.5,-86.5 1237.5,-86.5 1237.5,-67.5 1098.5,-67.5"/>
<text text-anchor="middle" x="1168" y="-74.5" font-family="Helvetica,sans-Serif" font-size="10.00">occ/core/linear_algebra.h</text>
</a>
</g>
</g>
<!-- Node3&#45;&gt;Node4 -->
<g id="edge3" class="edge">
<title>Node3&#45;&gt;Node4</title>
<path fill="none" stroke="midnightblue" d="M1203.06,-123.08C1197.07,-115.38 1188.25,-104.03 1180.95,-94.65"/>
<polygon fill="midnightblue" stroke="midnightblue" points="1183.71,-92.5 1174.81,-86.75 1178.18,-96.79 1183.71,-92.5"/>
</g>
<!-- Node5 -->
<g id="node5" class="node">
<title>Node5</title>
<g id="a_node5"><a xlink:title=" ">
<polygon fill="none" stroke="#bfbfbf" points="1026.5,-6 1026.5,-25 1103.5,-25 1103.5,-6 1026.5,-6"/>
<text text-anchor="middle" x="1065" y="-13" font-family="Helvetica,sans-Serif" font-size="10.00">Eigen/Dense</text>
</a>
</g>
</g>
<!-- Node4&#45;&gt;Node5 -->
<g id="edge4" class="edge">
<title>Node4&#45;&gt;Node5</title>
<path fill="none" stroke="midnightblue" d="M1153.24,-67.48C1136.34,-57.71 1108.42,-41.58 1088.51,-30.08"/>
<polygon fill="midnightblue" stroke="midnightblue" points="1090.14,-26.98 1079.73,-25.01 1086.64,-33.04 1090.14,-26.98"/>
</g>
<!-- Node6 -->
<g id="node6" class="node">
<title>Node6</title>
<g id="a_node6"><a xlink:title=" ">
<polygon fill="none" stroke="#bfbfbf" points="1121.5,-6 1121.5,-25 1214.5,-25 1214.5,-6 1121.5,-6"/>
<text text-anchor="middle" x="1168" y="-13" font-family="Helvetica,sans-Serif" font-size="10.00">Eigen/StdVector</text>
</a>
</g>
</g>
<!-- Node4&#45;&gt;Node6 -->
<g id="edge5" class="edge">
<title>Node4&#45;&gt;Node6</title>
<path fill="none" stroke="midnightblue" d="M1168,-67.48C1168,-59.08 1168,-45.98 1168,-35.16"/>
<polygon fill="midnightblue" stroke="midnightblue" points="1171.5,-35.01 1168,-25.01 1164.5,-35.01 1171.5,-35.01"/>
</g>
<!-- Node7 -->
<g id="node7" class="node">
<title>Node7</title>
<g id="a_node7"><a xlink:title=" ">
<polygon fill="none" stroke="#bfbfbf" points="1232.5,-0.5 1232.5,-30.5 1339.5,-30.5 1339.5,-0.5 1232.5,-0.5"/>
<text text-anchor="start" x="1240.5" y="-18.5" font-family="Helvetica,sans-Serif" font-size="10.00">occ/3rdparty/eigen</text>
<text text-anchor="middle" x="1286" y="-7.5" font-family="Helvetica,sans-Serif" font-size="10.00">&#45;fmt/fmt.h</text>
</a>
</g>
</g>
<!-- Node4&#45;&gt;Node7 -->
<g id="edge6" class="edge">
<title>Node4&#45;&gt;Node7</title>
<path fill="none" stroke="midnightblue" d="M1184.91,-67.48C1201.56,-59.08 1227.55,-45.97 1249.01,-35.15"/>
<polygon fill="midnightblue" stroke="midnightblue" points="1250.84,-38.15 1258.19,-30.52 1247.68,-31.9 1250.84,-38.15"/>
</g>
<!-- Node9 -->
<g id="node9" class="node">
<title>Node9</title>
<g id="a_node9"><a xlink:title=" ">
<polygon fill="none" stroke="#bfbfbf" points="516.5,-185 516.5,-204 595.5,-204 595.5,-185 516.5,-185"/>
<text text-anchor="middle" x="556" y="-192" font-family="Helvetica,sans-Serif" font-size="10.00">fmt/format.h</text>
</a>
</g>
</g>
<!-- Node8&#45;&gt;Node9 -->
<g id="edge8" class="edge">
<title>Node8&#45;&gt;Node9</title>
<path fill="none" stroke="midnightblue" d="M597.12,-246.48C589.85,-237.46 578.2,-223.02 569.16,-211.81"/>
<polygon fill="midnightblue" stroke="midnightblue" points="571.87,-209.59 562.86,-204.01 566.42,-213.99 571.87,-209.59"/>
</g>
<!-- Node10 -->
<g id="node10" class="node">
<title>Node10</title>
<g id="a_node10"><a xlink:title=" ">
<polygon fill="none" stroke="#bfbfbf" points="376.5,-179.5 376.5,-209.5 493.5,-209.5 493.5,-179.5 376.5,-179.5"/>
<text text-anchor="start" x="384.5" y="-197.5" font-family="Helvetica,sans-Serif" font-size="10.00">occ/3rdparty/parallel</text>
<text text-anchor="middle" x="435" y="-186.5" font-family="Helvetica,sans-Serif" font-size="10.00">_hashmap/phmap.h</text>
</a>
</g>
</g>
<!-- Node8&#45;&gt;Node10 -->
<g id="edge9" class="edge">
<title>Node8&#45;&gt;Node10</title>
<path fill="none" stroke="midnightblue" d="M579.79,-246.48C554.97,-237.74 515.69,-223.91 484.29,-212.86"/>
<polygon fill="midnightblue" stroke="midnightblue" points="485.42,-209.54 474.83,-209.52 483.1,-216.15 485.42,-209.54"/>
</g>
<!-- Node11 -->
<g id="node11" class="node">
<title>Node11</title>
<g id="a_node11"><a xlink:title=" ">
<polygon fill="none" stroke="#bfbfbf" points="709.5,-67.5 709.5,-86.5 756.5,-86.5 756.5,-67.5 709.5,-67.5"/>
<text text-anchor="middle" x="733" y="-74.5" font-family="Helvetica,sans-Serif" font-size="10.00">vector</text>
</a>
</g>
</g>
<!-- Node8&#45;&gt;Node11 -->
<g id="edge10" class="edge">
<title>Node8&#45;&gt;Node11</title>
<path fill="none" stroke="midnightblue" d="M607.81,-246.18C614.28,-231.61 628.26,-201.84 644,-179 666.4,-146.5 697.97,-112.93 716.87,-93.84"/>
<polygon fill="midnightblue" stroke="midnightblue" points="719.53,-96.13 724.13,-86.59 714.58,-91.18 719.53,-96.13"/>
</g>
<!-- Node13 -->
<g id="node13" class="node">
<title>Node13</title>
<g id="a_node13"><a xlink:title=" ">
<polygon fill="none" stroke="#bfbfbf" points="652.5,-185 652.5,-204 745.5,-204 745.5,-185 652.5,-185"/>
<text text-anchor="middle" x="699" y="-192" font-family="Helvetica,sans-Serif" font-size="10.00">spdlog/spdlog.h</text>
</a>
</g>
</g>
<!-- Node12&#45;&gt;Node13 -->
<g id="edge12" class="edge">
<title>Node12&#45;&gt;Node13</title>
<path fill="none" stroke="midnightblue" d="M740.98,-246.48C733.56,-237.46 721.67,-223.02 712.43,-211.81"/>
<polygon fill="midnightblue" stroke="midnightblue" points="715.07,-209.5 706.01,-204.01 709.66,-213.95 715.07,-209.5"/>
</g>
<!-- Node15 -->
<g id="node15" class="node">
<title>Node15</title>
<g id="a_node15"><a xlink:title=" ">
<polygon fill="none" stroke="#bfbfbf" points="81,-185 81,-204 131,-204 131,-185 81,-185"/>
<text text-anchor="middle" x="106" y="-192" font-family="Helvetica,sans-Serif" font-size="10.00">chrono</text>
</a>
</g>
</g>
<!-- Node14&#45;&gt;Node15 -->
<g id="edge14" class="edge">
<title>Node14&#45;&gt;Node15</title>
<path fill="none" stroke="midnightblue" d="M60.59,-246.48C68.7,-237.37 81.73,-222.74 91.76,-211.48"/>
<polygon fill="midnightblue" stroke="midnightblue" points="94.38,-213.8 98.42,-204.01 89.16,-209.15 94.38,-213.8"/>
</g>
<!-- Node16 -->
<g id="node16" class="node">
<title>Node16</title>
<g id="a_node16"><a xlink:title=" ">
<polygon fill="none" stroke="#bfbfbf" points="83,-67.5 83,-86.5 127,-86.5 127,-67.5 83,-67.5"/>
<text text-anchor="middle" x="105" y="-74.5" font-family="Helvetica,sans-Serif" font-size="10.00">string</text>
</a>
</g>
</g>
<!-- Node14&#45;&gt;Node16 -->
<g id="edge15" class="edge">
<title>Node14&#45;&gt;Node16</title>
<path fill="none" stroke="midnightblue" d="M55.02,-246.05C58.29,-231.79 65.07,-203.05 72,-179 80.4,-149.83 91.63,-116.44 98.59,-96.3"/>
<polygon fill="midnightblue" stroke="midnightblue" points="101.99,-97.18 101.97,-86.58 95.38,-94.88 101.99,-97.18"/>
</g>
<!-- Node18 -->
<g id="node18" class="node">
<title>Node18</title>
<g id="a_node18"><a xlink:title=" ">
<polygon fill="none" stroke="#bfbfbf" points="763.5,-185 763.5,-204 810.5,-204 810.5,-185 763.5,-185"/>
<text text-anchor="middle" x="787" y="-192" font-family="Helvetica,sans-Serif" font-size="10.00">cmath</text>
</a>
</g>
</g>
<!-- Node17&#45;&gt;Node18 -->
<g id="edge17" class="edge">
<title>Node17&#45;&gt;Node18</title>
<path fill="none" stroke="midnightblue" d="M844.4,-246.48C833.95,-237.2 817.03,-222.17 804.26,-210.83"/>
<polygon fill="midnightblue" stroke="midnightblue" points="806.38,-208.03 796.58,-204.01 801.73,-213.27 806.38,-208.03"/>
</g>
<!-- Node20 -->
<g id="node20" class="node">
<title>Node20</title>
<g id="a_node20"><a xlink:href="spinorbital_8h.html" target="_top" xlink:title=" ">
<polygon fill="none" stroke="black" points="233,-185 233,-204 349,-204 349,-185 233,-185"/>
<text text-anchor="middle" x="291" y="-192" font-family="Helvetica,sans-Serif" font-size="10.00">occ/qm/spinorbital.h</text>
</a>
</g>
</g>
<!-- Node19&#45;&gt;Node20 -->
<g id="edge19" class="edge">
<title>Node19&#45;&gt;Node20</title>
<path fill="none" stroke="midnightblue" d="M284.15,-246.48C285.27,-238.08 287.04,-224.98 288.49,-214.16"/>
<polygon fill="midnightblue" stroke="midnightblue" points="291.99,-214.39 289.86,-204.01 285.05,-213.45 291.99,-214.39"/>
</g>
<!-- Node20&#45;&gt;Node4 -->
<g id="edge20" class="edge">
<title>Node20&#45;&gt;Node4</title>
<path fill="none" stroke="midnightblue" d="M333.13,-184.97C344.13,-182.88 355.99,-180.74 367,-179 630.12,-137.35 944.06,-101.87 1088.33,-86.36"/>
<polygon fill="midnightblue" stroke="midnightblue" points="1088.85,-89.83 1098.42,-85.28 1088.1,-82.87 1088.85,-89.83"/>
</g>
<!-- Node21 -->
<g id="node21" class="node">
<title>Node21</title>
<g id="a_node21"><a xlink:href="util_8h.html" target="_top" xlink:title=" ">
<polygon fill="none" stroke="black" points="467.5,-123.5 467.5,-142.5 552.5,-142.5 552.5,-123.5 467.5,-123.5"/>
<text text-anchor="middle" x="510" y="-130.5" font-family="Helvetica,sans-Serif" font-size="10.00">occ/core/util.h</text>
</a>
</g>
</g>
<!-- Node20&#45;&gt;Node21 -->
<g id="edge21" class="edge">
<title>Node20&#45;&gt;Node21</title>
<path fill="none" stroke="midnightblue" d="M322.38,-184.98C360.92,-174.5 426.41,-156.71 468.92,-145.16"/>
<polygon fill="midnightblue" stroke="midnightblue" points="469.95,-148.51 478.68,-142.51 468.11,-141.75 469.95,-148.51"/>
</g>
<!-- Node28 -->
<g id="node28" class="node">
<title>Node28</title>
<g id="a_node28"><a xlink:href="qm_2opmatrix_8h.html" target="_top" xlink:title=" ">
<polygon fill="none" stroke="black" points="237,-123.5 237,-142.5 345,-142.5 345,-123.5 237,-123.5"/>
<text text-anchor="middle" x="291" y="-130.5" font-family="Helvetica,sans-Serif" font-size="10.00">occ/qm/opmatrix.h</text>
</a>
</g>
</g>
<!-- Node20&#45;&gt;Node28 -->
<g id="edge31" class="edge">
<title>Node20&#45;&gt;Node28</title>
<path fill="none" stroke="midnightblue" d="M286.1,-184.98C284.27,-176.58 283.8,-163.48 284.69,-152.66"/>
<polygon fill="midnightblue" stroke="midnightblue" points="288.19,-152.9 286.1,-142.51 281.25,-151.93 288.19,-152.9"/>
</g>
<!-- Node21&#45;&gt;Node4 -->
<g id="edge28" class="edge">
<title>Node21&#45;&gt;Node4</title>
<path fill="none" stroke="midnightblue" d="M552.67,-128.5C660.95,-119.61 947.77,-96.07 1088.23,-84.55"/>
<polygon fill="midnightblue" stroke="midnightblue" points="1088.81,-88.01 1098.49,-83.7 1088.24,-81.03 1088.81,-88.01"/>
</g>
<!-- Node21&#45;&gt;Node11 -->
<g id="edge30" class="edge">
<title>Node21&#45;&gt;Node11</title>
<path fill="none" stroke="midnightblue" d="M547.58,-123.49C583.95,-115.17 640.87,-101.92 699.44,-87.08"/>
<polygon fill="midnightblue" stroke="midnightblue" points="700.4,-90.44 709.23,-84.58 698.68,-83.66 700.4,-90.44"/>
</g>
<!-- Node21&#45;&gt;Node16 -->
<g id="edge29" class="edge">
<title>Node21&#45;&gt;Node16</title>
<path fill="none" stroke="midnightblue" d="M467.42,-126.32C385.93,-115.46 209.57,-91.94 137.09,-82.28"/>
<polygon fill="midnightblue" stroke="midnightblue" points="137.55,-78.81 127.17,-80.96 136.62,-85.75 137.55,-78.81"/>
</g>
<!-- Node22 -->
<g id="node22" class="node">
<title>Node22</title>
<g id="a_node22"><a xlink:title=" ">
<polygon fill="none" stroke="#bfbfbf" points="232,-67.5 232,-86.5 296,-86.5 296,-67.5 232,-67.5"/>
<text text-anchor="middle" x="264" y="-74.5" font-family="Helvetica,sans-Serif" font-size="10.00">algorithm</text>
</a>
</g>
</g>
<!-- Node21&#45;&gt;Node22 -->
<g id="edge22" class="edge">
<title>Node21&#45;&gt;Node22</title>
<path fill="none" stroke="midnightblue" d="M471.02,-123.44C426.06,-113.57 352.39,-97.4 306.13,-87.25"/>
<polygon fill="midnightblue" stroke="midnightblue" points="306.65,-83.78 296.13,-85.05 305.15,-90.62 306.65,-83.78"/>
</g>
<!-- Node23 -->
<g id="node23" class="node">
<title>Node23</title>
<g id="a_node23"><a xlink:title=" ">
<polygon fill="none" stroke="#bfbfbf" points="314.5,-67.5 314.5,-86.5 363.5,-86.5 363.5,-67.5 314.5,-67.5"/>
<text text-anchor="middle" x="339" y="-74.5" font-family="Helvetica,sans-Serif" font-size="10.00">cctype</text>
</a>
</g>
</g>
<!-- Node21&#45;&gt;Node23 -->
<g id="edge23" class="edge">
<title>Node21&#45;&gt;Node23</title>
<path fill="none" stroke="midnightblue" d="M482.9,-123.44C453.33,-114.1 405.9,-99.13 373.65,-88.94"/>
<polygon fill="midnightblue" stroke="midnightblue" points="374.34,-85.49 363.75,-85.82 372.23,-92.16 374.34,-85.49"/>
</g>
<!-- Node24 -->
<g id="node24" class="node">
<title>Node24</title>
<g id="a_node24"><a xlink:title=" ">
<polygon fill="none" stroke="#bfbfbf" points="381.5,-67.5 381.5,-86.5 448.5,-86.5 448.5,-67.5 381.5,-67.5"/>
<text text-anchor="middle" x="415" y="-74.5" font-family="Helvetica,sans-Serif" font-size="10.00">fmt/core.h</text>
</a>
</g>
</g>
<!-- Node21&#45;&gt;Node24 -->
<g id="edge24" class="edge">
<title>Node21&#45;&gt;Node24</title>
<path fill="none" stroke="midnightblue" d="M494.74,-123.32C479.78,-114.82 456.75,-101.73 439.27,-91.8"/>
<polygon fill="midnightblue" stroke="midnightblue" points="440.65,-88.55 430.23,-86.65 437.19,-94.64 440.65,-88.55"/>
</g>
<!-- Node25 -->
<g id="node25" class="node">
<title>Node25</title>
<g id="a_node25"><a xlink:title=" ">
<polygon fill="none" stroke="#bfbfbf" points="467,-67.5 467,-86.5 553,-86.5 553,-67.5 467,-67.5"/>
<text text-anchor="middle" x="510" y="-74.5" font-family="Helvetica,sans-Serif" font-size="10.00">fmt/ostream.h</text>
</a>
</g>
</g>
<!-- Node21&#45;&gt;Node25 -->
<g id="edge25" class="edge">
<title>Node21&#45;&gt;Node25</title>
<path fill="none" stroke="midnightblue" d="M510,-123.08C510,-116.01 510,-105.86 510,-96.99"/>
<polygon fill="midnightblue" stroke="midnightblue" points="513.5,-96.75 510,-86.75 506.5,-96.75 513.5,-96.75"/>
</g>
<!-- Node26 -->
<g id="node26" class="node">
<title>Node26</title>
<g id="a_node26"><a xlink:title=" ">
<polygon fill="none" stroke="#bfbfbf" points="571,-67.5 571,-86.5 617,-86.5 617,-67.5 571,-67.5"/>
<text text-anchor="middle" x="594" y="-74.5" font-family="Helvetica,sans-Serif" font-size="10.00">locale</text>
</a>
</g>
</g>
<!-- Node21&#45;&gt;Node26 -->
<g id="edge26" class="edge">
<title>Node21&#45;&gt;Node26</title>
<path fill="none" stroke="midnightblue" d="M523.5,-123.32C536.6,-114.9 556.71,-101.97 572.11,-92.07"/>
<polygon fill="midnightblue" stroke="midnightblue" points="574.02,-95.01 580.54,-86.65 570.23,-89.12 574.02,-95.01"/>
</g>
<!-- Node27 -->
<g id="node27" class="node">
<title>Node27</title>
<g id="a_node27"><a xlink:title=" ">
<polygon fill="none" stroke="#bfbfbf" points="635,-67.5 635,-86.5 691,-86.5 691,-67.5 635,-67.5"/>
<text text-anchor="middle" x="663" y="-74.5" font-family="Helvetica,sans-Serif" font-size="10.00">numeric</text>
</a>
</g>
</g>
<!-- Node21&#45;&gt;Node27 -->
<g id="edge27" class="edge">
<title>Node21&#45;&gt;Node27</title>
<path fill="none" stroke="midnightblue" d="M534.24,-123.44C559.87,-114.4 600.49,-100.06 629.24,-89.92"/>
<polygon fill="midnightblue" stroke="midnightblue" points="630.61,-93.15 638.87,-86.52 628.28,-86.54 630.61,-93.15"/>
</g>
<!-- Node28&#45;&gt;Node20 -->
<g id="edge32" class="edge">
<title>Node28&#45;&gt;Node20</title>
<path fill="none" stroke="midnightblue" d="M295.9,-142.51C297.73,-150.9 298.2,-164 297.32,-174.82"/>
<polygon fill="midnightblue" stroke="midnightblue" points="293.81,-174.59 295.9,-184.98 300.75,-175.55 293.81,-174.59"/>
</g>
<!-- Node29&#45;&gt;Node20 -->
<g id="edge34" class="edge">
<title>Node29&#45;&gt;Node20</title>
<path fill="none" stroke="midnightblue" d="M182.2,-246.48C203.51,-236.49 239.03,-219.85 263.66,-208.31"/>
<polygon fill="midnightblue" stroke="midnightblue" points="265.27,-211.42 272.84,-204.01 262.3,-205.08 265.27,-211.42"/>
</g>
<!-- Node30&#45;&gt;Node2 -->
<g id="edge36" class="edge">
<title>Node30&#45;&gt;Node2</title>
<path fill="none" stroke="midnightblue" d="M954.11,-246.48C941.54,-231.82 919.77,-201.28 934,-179 948.38,-156.48 977.26,-145.05 999.78,-139.37"/>
<polygon fill="midnightblue" stroke="midnightblue" points="1000.63,-142.77 1009.61,-137.14 999.09,-135.94 1000.63,-142.77"/>
</g>
<!-- Node30&#45;&gt;Node3 -->
<g id="edge38" class="edge">
<title>Node30&#45;&gt;Node3</title>
<path fill="none" stroke="midnightblue" d="M1005.6,-252.73C1066.9,-248.58 1174,-237.5 1200,-210 1214.33,-194.85 1214.86,-169.78 1213.12,-152.6"/>
<polygon fill="midnightblue" stroke="midnightblue" points="1216.58,-152.08 1211.77,-142.64 1209.65,-153.02 1216.58,-152.08"/>
</g>
<!-- Node30&#45;&gt;Node4 -->
<g id="edge39" class="edge">
<title>Node30&#45;&gt;Node4</title>
<path fill="none" stroke="midnightblue" d="M1005.72,-251.43C1069.72,-245.53 1185.12,-232.15 1220,-210 1257.1,-186.44 1290.79,-159.95 1267,-123 1256.69,-106.99 1239.15,-96.62 1221.67,-89.92"/>
<polygon fill="midnightblue" stroke="midnightblue" points="1222.6,-86.54 1212.01,-86.56 1220.3,-93.15 1222.6,-86.54"/>
</g>
<!-- Node30&#45;&gt;Node11 -->
<g id="edge45" class="edge">
<title>Node30&#45;&gt;Node11</title>
<path fill="none" stroke="midnightblue" d="M950.95,-246.46C914.61,-218.37 798.44,-128.58 752.23,-92.86"/>
<polygon fill="midnightblue" stroke="midnightblue" points="754.26,-90.01 744.2,-86.66 749.97,-95.54 754.26,-90.01"/>
</g>
<!-- Node30&#45;&gt;Node21 -->
<g id="edge44" class="edge">
<title>Node30&#45;&gt;Node21</title>
<path fill="none" stroke="midnightblue" d="M939.75,-246.37C919.27,-238.08 888.31,-224.68 863,-210 842.62,-198.18 841.84,-187.83 820,-179 734.4,-144.37 625.97,-135.88 562.66,-134.09"/>
<polygon fill="midnightblue" stroke="midnightblue" points="562.6,-130.59 552.52,-133.85 562.43,-137.59 562.6,-130.59"/>
</g>
<!-- Node31 -->
<g id="node31" class="node">
<title>Node31</title>
<g id="a_node31"><a xlink:title=" ">
<polygon fill="none" stroke="#bfbfbf" points="943,-185 943,-204 1003,-204 1003,-185 943,-185"/>
<text text-anchor="middle" x="973" y="-192" font-family="Helvetica,sans-Serif" font-size="10.00">iostream</text>
</a>
</g>
</g>
<!-- Node30&#45;&gt;Node31 -->
<g id="edge37" class="edge">
<title>Node30&#45;&gt;Node31</title>
<path fill="none" stroke="midnightblue" d="M963.58,-246.48C965.13,-238.08 967.55,-224.98 969.55,-214.16"/>
<polygon fill="midnightblue" stroke="midnightblue" points="973.05,-214.48 971.43,-204.01 966.17,-213.21 973.05,-214.48"/>
</g>
<!-- Node32 -->
<g id="node32" class="node">
<title>Node32</title>
<g id="a_node32"><a xlink:href="point__charge_8h.html" target="_top" xlink:title=" ">
<polygon fill="none" stroke="black" points="1059,-185 1059,-204 1191,-204 1191,-185 1059,-185"/>
<text text-anchor="middle" x="1125" y="-192" font-family="Helvetica,sans-Serif" font-size="10.00">occ/core/point_charge.h</text>
</a>
</g>
</g>
<!-- Node30&#45;&gt;Node32 -->
<g id="edge40" class="edge">
<title>Node30&#45;&gt;Node32</title>
<path fill="none" stroke="midnightblue" d="M985.35,-246.48C1013.31,-236.27 1060.33,-219.11 1091.99,-207.55"/>
<polygon fill="midnightblue" stroke="midnightblue" points="1093.5,-210.73 1101.69,-204.01 1091.1,-204.15 1093.5,-210.73"/>
</g>
<!-- Node32&#45;&gt;Node2 -->
<g id="edge41" class="edge">
<title>Node32&#45;&gt;Node2</title>
<path fill="none" stroke="midnightblue" d="M1111.53,-184.98C1096.32,-175.34 1071.31,-159.52 1053.2,-148.05"/>
<polygon fill="midnightblue" stroke="midnightblue" points="1054.76,-144.9 1044.44,-142.51 1051.02,-150.81 1054.76,-144.9"/>
</g>
<!-- Node32&#45;&gt;Node3 -->
<g id="edge42" class="edge">
<title>Node32&#45;&gt;Node3</title>
<path fill="none" stroke="midnightblue" d="M1137.18,-184.98C1150.81,-175.43 1173.13,-159.81 1189.47,-148.37"/>
<polygon fill="midnightblue" stroke="midnightblue" points="1191.66,-151.11 1197.84,-142.51 1187.64,-145.38 1191.66,-151.11"/>
</g>
<!-- Node32&#45;&gt;Node4 -->
<g id="edge43" class="edge">
<title>Node32&#45;&gt;Node4</title>
<path fill="none" stroke="midnightblue" d="M1128.23,-184.82C1135.2,-166.09 1151.79,-121.55 1161.19,-96.29"/>
<polygon fill="midnightblue" stroke="midnightblue" points="1164.52,-97.37 1164.73,-86.78 1157.96,-94.93 1164.52,-97.37"/>
</g>
<!-- Node33&#45;&gt;Node4 -->
<g id="edge47" class="edge">
<title>Node33&#45;&gt;Node4</title>
<path fill="none" stroke="midnightblue" d="M1347.25,-123.44C1310.48,-114.12 1251.55,-99.18 1211.38,-89"/>
<polygon fill="midnightblue" stroke="midnightblue" points="1212.15,-85.58 1201.59,-86.52 1210.43,-92.37 1212.15,-85.58"/>
</g>
<!-- Node34&#45;&gt;Node10 -->
<g id="edge49" class="edge">
<title>Node34&#45;&gt;Node10</title>
<path fill="none" stroke="midnightblue" d="M432.43,-246.48C432.78,-239.47 433.3,-229.19 433.78,-219.7"/>
<polygon fill="midnightblue" stroke="midnightblue" points="437.28,-219.69 434.29,-209.52 430.29,-219.33 437.28,-219.69"/>
</g>
</g>
</svg>
