<?xml version="1.0" encoding="UTF-8" standalone="no"?>
<!DOCTYPE svg PUBLIC "-//W3C//DTD SVG 1.1//EN"
 "http://www.w3.org/Graphics/SVG/1.1/DTD/svg11.dtd">
<!-- Generated by graphviz version 2.43.0 (0)
 -->
<!-- Title: /home/runner/work/occ/occ/include/occ/crystal/spacegroup.h Pages: 1 -->
<svg width="970pt" height="324pt"
 viewBox="0.00 0.00 970.00 324.00" xmlns="http://www.w3.org/2000/svg" xmlns:xlink="http://www.w3.org/1999/xlink">
<g id="graph0" class="graph" transform="scale(1 1) rotate(0) translate(4 320)">
<title>/home/runner/work/occ/occ/include/occ/crystal/spacegroup.h</title>
<!-- Node1 -->
<g id="Node000001" class="node">
<title>Node1</title>
<g id="a_Node000001"><a xlink:title=" ">
<polygon fill="#999999" stroke="#666666" points="512.5,-316 382.5,-316 382.5,-275 512.5,-275 512.5,-316"/>
<text text-anchor="start" x="390.5" y="-304" font-family="Helvetica,sans-Serif" font-size="10.00">/home/runner/work/occ</text>
<text text-anchor="start" x="390.5" y="-293" font-family="Helvetica,sans-Serif" font-size="10.00">/occ/include/occ/crystal</text>
<text text-anchor="middle" x="447.5" y="-282" font-family="Helvetica,sans-Serif" font-size="10.00">/spacegroup.h</text>
</a>
</g>
</g>
<!-- Node2 -->
<g id="Node000002" class="node">
<title>Node2</title>
<g id="a_Node000002"><a xlink:title=" ">
<polygon fill="#e0e0e0" stroke="#999999" points="212.5,-239 88.5,-239 88.5,-220 212.5,-220 212.5,-239"/>
<text text-anchor="middle" x="150.5" y="-227" font-family="Helvetica,sans-Serif" font-size="10.00">gemmi/symmetry.hpp</text>
</a>
</g>
</g>
<!-- Node1&#45;&gt;Node2 -->
<g id="edge1_Node000001_Node000002" class="edge">
<title>Node1&#45;&gt;Node2</title>
<g id="a_edge1_Node000001_Node000002"><a xlink:title=" ">
<path fill="none" stroke="#63b8ff" d="M382.32,-280.45C327.37,-268.61 249.91,-251.92 199.94,-241.15"/>
<polygon fill="#63b8ff" stroke="#63b8ff" points="200.54,-237.7 190.03,-239.02 199.06,-244.55 200.54,-237.7"/>
</a>
</g>
</g>
<!-- Node3 -->
<g id="Node000003" class="node">
<title>Node3</title>
<g id="a_Node000003"><a xlink:title=" ">
<polygon fill="#e0e0e0" stroke="#999999" points="268.5,-239 230.5,-239 230.5,-220 268.5,-220 268.5,-239"/>
<text text-anchor="middle" x="249.5" y="-227" font-family="Helvetica,sans-Serif" font-size="10.00">map</text>
</a>
</g>
</g>
<!-- Node1&#45;&gt;Node3 -->
<g id="edge2_Node000001_Node000003" class="edge">
<title>Node1&#45;&gt;Node3</title>
<g id="a_edge2_Node000001_Node000003"><a xlink:title=" ">
<path fill="none" stroke="#63b8ff" d="M387.02,-274.95C350.96,-263.29 306.82,-249.03 278.44,-239.86"/>
<polygon fill="#63b8ff" stroke="#63b8ff" points="279.34,-236.47 268.74,-236.72 277.18,-243.13 279.34,-236.47"/>
</a>
</g>
</g>
<!-- Node4 -->
<g id="Node000004" class="node">
<title>Node4</title>
<g id="a_Node000004"><a xlink:href="hkl_8h.html" target="_top" xlink:title=" ">
<polygon fill="white" stroke="#666666" points="344.5,-129 248.5,-129 248.5,-110 344.5,-110 344.5,-129"/>
<text text-anchor="middle" x="296.5" y="-117" font-family="Helvetica,sans-Serif" font-size="10.00">occ/crystal/hkl.h</text>
</a>
</g>
</g>
<!-- Node1&#45;&gt;Node4 -->
<g id="edge3_Node000001_Node000004" class="edge">
<title>Node1&#45;&gt;Node4</title>
<g id="a_edge3_Node000001_Node000004"><a xlink:title=" ">
<path fill="none" stroke="#63b8ff" d="M399.35,-274.95C381.92,-266.02 363.18,-254.04 349.5,-239 322.69,-209.52 307.63,-164.22 300.88,-139.03"/>
<polygon fill="#63b8ff" stroke="#63b8ff" points="304.26,-138.12 298.42,-129.28 297.47,-139.83 304.26,-138.12"/>
</a>
</g>
</g>
<!-- Node9 -->
<g id="Node000009" class="node">
<title>Node9</title>
<g id="a_Node000009"><a xlink:href="symmetryoperation_8h.html" target="_top" xlink:title=" ">
<polygon fill="white" stroke="#666666" points="536.5,-239 358.5,-239 358.5,-220 536.5,-220 536.5,-239"/>
<text text-anchor="middle" x="447.5" y="-227" font-family="Helvetica,sans-Serif" font-size="10.00">occ/crystal/symmetryoperation.h</text>
</a>
</g>
</g>
<!-- Node1&#45;&gt;Node9 -->
<g id="edge8_Node000001_Node000009" class="edge">
<title>Node1&#45;&gt;Node9</title>
<g id="a_edge8_Node000001_Node000009"><a xlink:title=" ">
<path fill="none" stroke="#63b8ff" d="M447.5,-274.95C447.5,-266.85 447.5,-257.5 447.5,-249.47"/>
<polygon fill="#63b8ff" stroke="#63b8ff" points="451,-249.26 447.5,-239.26 444,-249.26 451,-249.26"/>
</a>
</g>
</g>
<!-- Node20 -->
<g id="Node000020" class="node">
<title>Node20</title>
<g id="a_Node000020"><a xlink:title=" ">
<polygon fill="#e0e0e0" stroke="#999999" points="896.5,-74 852.5,-74 852.5,-55 896.5,-55 896.5,-74"/>
<text text-anchor="middle" x="874.5" y="-62" font-family="Helvetica,sans-Serif" font-size="10.00">string</text>
</a>
</g>
</g>
<!-- Node1&#45;&gt;Node20 -->
<g id="edge28_Node000001_Node000020" class="edge">
<title>Node1&#45;&gt;Node20</title>
<g id="a_edge28_Node000001_Node000020"><a xlink:title=" ">
<path fill="none" stroke="#63b8ff" d="M482.56,-274.95C501.3,-264.42 524.74,-251.13 545.5,-239 641.38,-182.96 659.78,-158.89 759.5,-110 786.92,-96.56 819.48,-84.28 842.94,-76.04"/>
<polygon fill="#63b8ff" stroke="#63b8ff" points="844.1,-79.35 852.4,-72.77 841.81,-72.73 844.1,-79.35"/>
</a>
</g>
</g>
<!-- Node21 -->
<g id="Node000021" class="node">
<title>Node21</title>
<g id="a_Node000021"><a xlink:title=" ">
<polygon fill="#e0e0e0" stroke="#999999" points="962,-74 915,-74 915,-55 962,-55 962,-74"/>
<text text-anchor="middle" x="938.5" y="-62" font-family="Helvetica,sans-Serif" font-size="10.00">vector</text>
</a>
</g>
</g>
<!-- Node1&#45;&gt;Node21 -->
<g id="edge30_Node000001_Node000021" class="edge">
<title>Node1&#45;&gt;Node21</title>
<g id="a_edge30_Node000001_Node000021"><a xlink:title=" ">
<path fill="none" stroke="#63b8ff" d="M493.22,-274.95C517.46,-264.48 547.69,-251.24 574.5,-239 701.78,-180.87 852.2,-107.75 912.04,-78.48"/>
<polygon fill="#63b8ff" stroke="#63b8ff" points="913.72,-81.55 921.17,-74.01 910.65,-75.26 913.72,-81.55"/>
</a>
</g>
</g>
<!-- Node22 -->
<g id="Node000022" class="node">
<title>Node22</title>
<g id="a_Node000022"><a xlink:title=" ">
<polygon fill="#e0e0e0" stroke="#999999" points="843,-239 802,-239 802,-220 843,-220 843,-239"/>
<text text-anchor="middle" x="822.5" y="-227" font-family="Helvetica,sans-Serif" font-size="10.00">tuple</text>
</a>
</g>
</g>
<!-- Node1&#45;&gt;Node22 -->
<g id="edge29_Node000001_Node000022" class="edge">
<title>Node1&#45;&gt;Node22</title>
<g id="a_edge29_Node000001_Node000022"><a xlink:title=" ">
<path fill="none" stroke="#63b8ff" d="M512.63,-285.38C581.27,-275.42 692.39,-258.28 787.5,-239 788.96,-238.7 790.44,-238.39 791.94,-238.07"/>
<polygon fill="#63b8ff" stroke="#63b8ff" points="792.87,-241.44 801.83,-235.8 791.3,-234.62 792.87,-241.44"/>
</a>
</g>
</g>
<!-- Node5 -->
<g id="Node000005" class="node">
<title>Node5</title>
<g id="a_Node000005"><a xlink:title=" ">
<polygon fill="#e0e0e0" stroke="#999999" points="238,-74 171,-74 171,-55 238,-55 238,-74"/>
<text text-anchor="middle" x="204.5" y="-62" font-family="Helvetica,sans-Serif" font-size="10.00">fmt/core.h</text>
</a>
</g>
</g>
<!-- Node4&#45;&gt;Node5 -->
<g id="edge4_Node000004_Node000005" class="edge">
<title>Node4&#45;&gt;Node5</title>
<g id="a_edge4_Node000004_Node000005"><a xlink:title=" ">
<path fill="none" stroke="#63b8ff" d="M281.72,-109.98C267.32,-101.69 245.19,-88.94 228.31,-79.22"/>
<polygon fill="#63b8ff" stroke="#63b8ff" points="229.96,-76.13 219.55,-74.17 226.47,-82.19 229.96,-76.13"/>
</a>
</g>
</g>
<!-- Node6 -->
<g id="Node000006" class="node">
<title>Node6</title>
<g id="a_Node000006"><a xlink:href="linear__algebra_8h.html" target="_top" xlink:title=" ">
<polygon fill="white" stroke="#666666" points="153,-74 14,-74 14,-55 153,-55 153,-74"/>
<text text-anchor="middle" x="83.5" y="-62" font-family="Helvetica,sans-Serif" font-size="10.00">occ/core/linear_algebra.h</text>
</a>
</g>
</g>
<!-- Node4&#45;&gt;Node6 -->
<g id="edge5_Node000004_Node000006" class="edge">
<title>Node4&#45;&gt;Node6</title>
<g id="a_edge5_Node000004_Node000006"><a xlink:title=" ">
<path fill="none" stroke="#63b8ff" d="M262.28,-109.98C225.74,-100.89 167.72,-86.46 127.74,-76.51"/>
<polygon fill="#63b8ff" stroke="#63b8ff" points="128.54,-73.1 117.99,-74.08 126.85,-79.89 128.54,-73.1"/>
</a>
</g>
</g>
<!-- Node7 -->
<g id="Node000007" class="node">
<title>Node7</title>
<g id="a_Node000007"><a xlink:title=" ">
<polygon fill="#e0e0e0" stroke="#999999" points="69,-19 0,-19 0,0 69,0 69,-19"/>
<text text-anchor="middle" x="34.5" y="-7" font-family="Helvetica,sans-Serif" font-size="10.00">Eigen/Core</text>
</a>
</g>
</g>
<!-- Node6&#45;&gt;Node7 -->
<g id="edge6_Node000006_Node000007" class="edge">
<title>Node6&#45;&gt;Node7</title>
<g id="a_edge6_Node000006_Node000007"><a xlink:title=" ">
<path fill="none" stroke="#63b8ff" d="M75.41,-54.75C68.34,-47.11 57.91,-35.82 49.35,-26.56"/>
<polygon fill="#63b8ff" stroke="#63b8ff" points="51.8,-24.06 42.44,-19.09 46.66,-28.81 51.8,-24.06"/>
</a>
</g>
</g>
<!-- Node8 -->
<g id="Node000008" class="node">
<title>Node8</title>
<g id="a_Node000008"><a xlink:title=" ">
<polygon fill="#e0e0e0" stroke="#999999" points="180,-19 87,-19 87,0 180,0 180,-19"/>
<text text-anchor="middle" x="133.5" y="-7" font-family="Helvetica,sans-Serif" font-size="10.00">Eigen/StdVector</text>
</a>
</g>
</g>
<!-- Node6&#45;&gt;Node8 -->
<g id="edge7_Node000006_Node000008" class="edge">
<title>Node6&#45;&gt;Node8</title>
<g id="a_edge7_Node000006_Node000008"><a xlink:title=" ">
<path fill="none" stroke="#63b8ff" d="M91.76,-54.75C98.96,-47.11 109.61,-35.82 118.35,-26.56"/>
<polygon fill="#63b8ff" stroke="#63b8ff" points="121.08,-28.76 125.4,-19.09 115.99,-23.96 121.08,-28.76"/>
</a>
</g>
</g>
<!-- Node9&#45;&gt;Node6 -->
<g id="edge9_Node000009_Node000006" class="edge">
<title>Node9&#45;&gt;Node6</title>
<g id="a_edge9_Node000009_Node000006"><a xlink:title=" ">
<path fill="none" stroke="#63b8ff" d="M428.44,-219.97C368.51,-193.13 183.6,-110.32 112.12,-78.31"/>
<polygon fill="#63b8ff" stroke="#63b8ff" points="113.37,-75.04 102.81,-74.15 110.5,-81.43 113.37,-75.04"/>
</a>
</g>
</g>
<!-- Node10 -->
<g id="Node000010" class="node">
<title>Node10</title>
<g id="a_Node000010"><a xlink:href="unitcell_8h.html" target="_top" xlink:title=" ">
<polygon fill="white" stroke="#666666" points="506,-184 389,-184 389,-165 506,-165 506,-184"/>
<text text-anchor="middle" x="447.5" y="-172" font-family="Helvetica,sans-Serif" font-size="10.00">occ/crystal/unitcell.h</text>
</a>
</g>
</g>
<!-- Node9&#45;&gt;Node10 -->
<g id="edge10_Node000009_Node000010" class="edge">
<title>Node9&#45;&gt;Node10</title>
<g id="a_edge10_Node000009_Node000010"><a xlink:title=" ">
<path fill="none" stroke="#63b8ff" d="M447.5,-219.75C447.5,-212.8 447.5,-202.85 447.5,-194.13"/>
<polygon fill="#63b8ff" stroke="#63b8ff" points="451,-194.09 447.5,-184.09 444,-194.09 451,-194.09"/>
</a>
</g>
</g>
<!-- Node9&#45;&gt;Node20 -->
<g id="edge27_Node000009_Node000020" class="edge">
<title>Node9&#45;&gt;Node20</title>
<g id="a_edge27_Node000009_Node000020"><a xlink:title=" ">
<path fill="none" stroke="#63b8ff" d="M467.12,-219.84C525.51,-194.11 695.72,-119.28 721.5,-110 743.74,-101.99 804.49,-84.84 842.41,-74.32"/>
<polygon fill="#63b8ff" stroke="#63b8ff" points="843.75,-77.59 852.45,-71.55 841.88,-70.84 843.75,-77.59"/>
</a>
</g>
</g>
<!-- Node10&#45;&gt;Node4 -->
<g id="edge25_Node000010_Node000004" class="edge">
<title>Node10&#45;&gt;Node4</title>
<g id="a_edge25_Node000010_Node000004"><a xlink:title=" ">
<path fill="none" stroke="#63b8ff" d="M423.24,-164.98C398.18,-156.19 358.87,-142.39 330.67,-132.49"/>
<polygon fill="#63b8ff" stroke="#63b8ff" points="331.8,-129.18 321.2,-129.17 329.48,-135.78 331.8,-129.18"/>
</a>
</g>
</g>
<!-- Node10&#45;&gt;Node6 -->
<g id="edge11_Node000010_Node000006" class="edge">
<title>Node10&#45;&gt;Node6</title>
<g id="a_edge11_Node000010_Node000006"><a xlink:title=" ">
<path fill="none" stroke="#63b8ff" d="M437.89,-164.89C421.73,-150.93 387.54,-123.54 353.5,-110 319.75,-96.57 230,-83.31 163.18,-74.81"/>
<polygon fill="#63b8ff" stroke="#63b8ff" points="163.44,-71.31 153.08,-73.53 162.57,-78.26 163.44,-71.31"/>
</a>
</g>
</g>
<!-- Node11 -->
<g id="Node000011" class="node">
<title>Node11</title>
<g id="a_Node000011"><a xlink:href="units_8h.html" target="_top" xlink:title=" ">
<polygon fill="white" stroke="#666666" points="494,-129 401,-129 401,-110 494,-110 494,-129"/>
<text text-anchor="middle" x="447.5" y="-117" font-family="Helvetica,sans-Serif" font-size="10.00">occ/core/units.h</text>
</a>
</g>
</g>
<!-- Node10&#45;&gt;Node11 -->
<g id="edge12_Node000010_Node000011" class="edge">
<title>Node10&#45;&gt;Node11</title>
<g id="a_edge12_Node000010_Node000011"><a xlink:title=" ">
<path fill="none" stroke="#63b8ff" d="M447.5,-164.75C447.5,-157.8 447.5,-147.85 447.5,-139.13"/>
<polygon fill="#63b8ff" stroke="#63b8ff" points="451,-139.09 447.5,-129.09 444,-139.09 451,-139.09"/>
</a>
</g>
</g>
<!-- Node14 -->
<g id="Node000014" class="node">
<title>Node14</title>
<g id="a_Node000014"><a xlink:href="util_8h.html" target="_top" xlink:title=" ">
<polygon fill="white" stroke="#666666" points="631,-129 546,-129 546,-110 631,-110 631,-129"/>
<text text-anchor="middle" x="588.5" y="-117" font-family="Helvetica,sans-Serif" font-size="10.00">occ/core/util.h</text>
</a>
</g>
</g>
<!-- Node10&#45;&gt;Node14 -->
<g id="edge15_Node000010_Node000014" class="edge">
<title>Node10&#45;&gt;Node14</title>
<g id="a_edge15_Node000010_Node000014"><a xlink:title=" ">
<path fill="none" stroke="#63b8ff" d="M470.15,-164.98C493.35,-156.27 529.62,-142.63 555.9,-132.75"/>
<polygon fill="#63b8ff" stroke="#63b8ff" points="557.3,-135.97 565.43,-129.17 554.84,-129.41 557.3,-135.97"/>
</a>
</g>
</g>
<!-- Node10&#45;&gt;Node20 -->
<g id="edge26_Node000010_Node000020" class="edge">
<title>Node10&#45;&gt;Node20</title>
<g id="a_edge26_Node000010_Node000020"><a xlink:title=" ">
<path fill="none" stroke="#63b8ff" d="M495.1,-164.95C534.36,-157.3 591.23,-144.87 639.5,-129 659.73,-122.35 663.24,-116.59 683.5,-110 749.84,-88.42 770.97,-91.33 842.27,-74.19"/>
<polygon fill="#63b8ff" stroke="#63b8ff" points="843.3,-77.54 852.18,-71.75 841.64,-70.74 843.3,-77.54"/>
</a>
</g>
</g>
<!-- Node12 -->
<g id="Node000012" class="node">
<title>Node12</title>
<g id="a_Node000012"><a xlink:title=" ">
<polygon fill="#e0e0e0" stroke="#999999" points="438,-74 391,-74 391,-55 438,-55 438,-74"/>
<text text-anchor="middle" x="414.5" y="-62" font-family="Helvetica,sans-Serif" font-size="10.00">cmath</text>
</a>
</g>
</g>
<!-- Node11&#45;&gt;Node12 -->
<g id="edge13_Node000011_Node000012" class="edge">
<title>Node11&#45;&gt;Node12</title>
<g id="a_edge13_Node000011_Node000012"><a xlink:title=" ">
<path fill="none" stroke="#63b8ff" d="M442.05,-109.75C437.49,-102.42 430.83,-91.73 425.21,-82.7"/>
<polygon fill="#63b8ff" stroke="#63b8ff" points="428.1,-80.73 419.85,-74.09 422.16,-84.43 428.1,-80.73"/>
</a>
</g>
</g>
<!-- Node13 -->
<g id="Node000013" class="node">
<title>Node13</title>
<g id="a_Node000013"><a xlink:href="constants_8h.html" target="_top" xlink:title=" ">
<polygon fill="white" stroke="#666666" points="372.5,-74 256.5,-74 256.5,-55 372.5,-55 372.5,-74"/>
<text text-anchor="middle" x="314.5" y="-62" font-family="Helvetica,sans-Serif" font-size="10.00">occ/core/constants.h</text>
</a>
</g>
</g>
<!-- Node11&#45;&gt;Node13 -->
<g id="edge14_Node000011_Node000013" class="edge">
<title>Node11&#45;&gt;Node13</title>
<g id="a_edge14_Node000011_Node000013"><a xlink:title=" ">
<path fill="none" stroke="#63b8ff" d="M426.13,-109.98C404.35,-101.3 370.34,-87.75 345.58,-77.88"/>
<polygon fill="#63b8ff" stroke="#63b8ff" points="346.84,-74.62 336.26,-74.17 344.25,-81.12 346.84,-74.62"/>
</a>
</g>
</g>
<!-- Node14&#45;&gt;Node5 -->
<g id="edge19_Node000014_Node000005" class="edge">
<title>Node14&#45;&gt;Node5</title>
<g id="a_edge19_Node000014_Node000005"><a xlink:title=" ">
<path fill="none" stroke="#63b8ff" d="M545.84,-113.84C482.98,-106.78 361.56,-92.37 248.16,-74.01"/>
<polygon fill="#63b8ff" stroke="#63b8ff" points="248.7,-70.55 238.26,-72.39 247.57,-77.46 248.7,-70.55"/>
</a>
</g>
</g>
<!-- Node14&#45;&gt;Node6 -->
<g id="edge22_Node000014_Node000006" class="edge">
<title>Node14&#45;&gt;Node6</title>
<g id="a_edge22_Node000014_Node000006"><a xlink:title=" ">
<path fill="none" stroke="#63b8ff" d="M545.77,-114.11C470.61,-106.38 309.58,-89.76 163.3,-74.19"/>
<polygon fill="#63b8ff" stroke="#63b8ff" points="163.55,-70.7 153.24,-73.12 162.81,-77.66 163.55,-70.7"/>
</a>
</g>
</g>
<!-- Node15 -->
<g id="Node000015" class="node">
<title>Node15</title>
<g id="a_Node000015"><a xlink:title=" ">
<polygon fill="#e0e0e0" stroke="#999999" points="698.5,-74 634.5,-74 634.5,-55 698.5,-55 698.5,-74"/>
<text text-anchor="middle" x="666.5" y="-62" font-family="Helvetica,sans-Serif" font-size="10.00">algorithm</text>
</a>
</g>
</g>
<!-- Node14&#45;&gt;Node15 -->
<g id="edge16_Node000014_Node000015" class="edge">
<title>Node14&#45;&gt;Node15</title>
<g id="a_edge16_Node000014_Node000015"><a xlink:title=" ">
<path fill="none" stroke="#63b8ff" d="M601.03,-109.98C612.9,-101.92 630.96,-89.65 645.11,-80.03"/>
<polygon fill="#63b8ff" stroke="#63b8ff" points="647.44,-82.69 653.74,-74.17 643.5,-76.9 647.44,-82.69"/>
</a>
</g>
</g>
<!-- Node16 -->
<g id="Node000016" class="node">
<title>Node16</title>
<g id="a_Node000016"><a xlink:title=" ">
<polygon fill="#e0e0e0" stroke="#999999" points="766,-74 717,-74 717,-55 766,-55 766,-74"/>
<text text-anchor="middle" x="741.5" y="-62" font-family="Helvetica,sans-Serif" font-size="10.00">cctype</text>
</a>
</g>
</g>
<!-- Node14&#45;&gt;Node16 -->
<g id="edge17_Node000014_Node000016" class="edge">
<title>Node14&#45;&gt;Node16</title>
<g id="a_edge17_Node000014_Node000016"><a xlink:title=" ">
<path fill="none" stroke="#63b8ff" d="M613.08,-109.98C638.62,-101.14 678.78,-87.23 707.39,-77.32"/>
<polygon fill="#63b8ff" stroke="#63b8ff" points="708.68,-80.57 716.98,-73.99 706.38,-73.96 708.68,-80.57"/>
</a>
</g>
</g>
<!-- Node17 -->
<g id="Node000017" class="node">
<title>Node17</title>
<g id="a_Node000017"><a xlink:title=" ">
<polygon fill="#e0e0e0" stroke="#999999" points="834.5,-74 784.5,-74 784.5,-55 834.5,-55 834.5,-74"/>
<text text-anchor="middle" x="809.5" y="-62" font-family="Helvetica,sans-Serif" font-size="10.00">chrono</text>
</a>
</g>
</g>
<!-- Node14&#45;&gt;Node17 -->
<g id="edge18_Node000014_Node000017" class="edge">
<title>Node14&#45;&gt;Node17</title>
<g id="a_edge18_Node000014_Node000017"><a xlink:title=" ">
<path fill="none" stroke="#63b8ff" d="M624.51,-109.92C661.99,-100.99 722.37,-86.57 774.5,-74 774.6,-73.98 774.7,-73.95 774.8,-73.93"/>
<polygon fill="#63b8ff" stroke="#63b8ff" points="775.37,-77.39 784.27,-71.64 773.72,-70.59 775.37,-77.39"/>
</a>
</g>
</g>
<!-- Node18 -->
<g id="Node000018" class="node">
<title>Node18</title>
<g id="a_Node000018"><a xlink:title=" ">
<polygon fill="#e0e0e0" stroke="#999999" points="542.5,-74 456.5,-74 456.5,-55 542.5,-55 542.5,-74"/>
<text text-anchor="middle" x="499.5" y="-62" font-family="Helvetica,sans-Serif" font-size="10.00">fmt/ostream.h</text>
</a>
</g>
</g>
<!-- Node14&#45;&gt;Node18 -->
<g id="edge20_Node000014_Node000018" class="edge">
<title>Node14&#45;&gt;Node18</title>
<g id="a_edge20_Node000014_Node000018"><a xlink:title=" ">
<path fill="none" stroke="#63b8ff" d="M574.2,-109.98C560.4,-101.77 539.26,-89.18 522.99,-79.49"/>
<polygon fill="#63b8ff" stroke="#63b8ff" points="524.44,-76.28 514.06,-74.17 520.86,-82.29 524.44,-76.28"/>
</a>
</g>
</g>
<!-- Node19 -->
<g id="Node000019" class="node">
<title>Node19</title>
<g id="a_Node000019"><a xlink:title=" ">
<polygon fill="#e0e0e0" stroke="#999999" points="616.5,-74 560.5,-74 560.5,-55 616.5,-55 616.5,-74"/>
<text text-anchor="middle" x="588.5" y="-62" font-family="Helvetica,sans-Serif" font-size="10.00">numeric</text>
</a>
</g>
</g>
<!-- Node14&#45;&gt;Node19 -->
<g id="edge21_Node000014_Node000019" class="edge">
<title>Node14&#45;&gt;Node19</title>
<g id="a_edge21_Node000014_Node000019"><a xlink:title=" ">
<path fill="none" stroke="#63b8ff" d="M588.5,-109.75C588.5,-102.8 588.5,-92.85 588.5,-84.13"/>
<polygon fill="#63b8ff" stroke="#63b8ff" points="592,-84.09 588.5,-74.09 585,-84.09 592,-84.09"/>
</a>
</g>
</g>
<!-- Node14&#45;&gt;Node20 -->
<g id="edge23_Node000014_Node000020" class="edge">
<title>Node14&#45;&gt;Node20</title>
<g id="a_edge23_Node000014_Node000020"><a xlink:title=" ">
<path fill="none" stroke="#63b8ff" d="M631.12,-111.57C688.92,-102.08 790.12,-85.17 842.43,-74.03"/>
<polygon fill="#63b8ff" stroke="#63b8ff" points="843.2,-77.45 852.21,-71.88 841.69,-70.61 843.2,-77.45"/>
</a>
</g>
</g>
<!-- Node14&#45;&gt;Node21 -->
<g id="edge24_Node000014_Node000021" class="edge">
<title>Node14&#45;&gt;Node21</title>
<g id="a_edge24_Node000014_Node000021"><a xlink:title=" ">
<path fill="none" stroke="#63b8ff" d="M631.06,-114.07C690.23,-107.57 800.87,-94.19 904.75,-73.93"/>
<polygon fill="#63b8ff" stroke="#63b8ff" points="905.65,-77.32 914.78,-71.95 904.29,-70.46 905.65,-77.32"/>
</a>
</g>
</g>
</g>
</svg>
