<?xml version="1.0" encoding="UTF-8" standalone="no"?>
<!DOCTYPE svg PUBLIC "-//W3C//DTD SVG 1.1//EN"
 "http://www.w3.org/Graphics/SVG/1.1/DTD/svg11.dtd">
<!-- Generated by graphviz version 2.43.0 (0)
 -->
<!-- Title: /home/runner/work/occ/occ/include/occ/crystal/spacegroup.h Pages: 1 -->
<svg width="2135pt" height="362pt"
 viewBox="0.00 0.00 2135.00 362.00" xmlns="http://www.w3.org/2000/svg" xmlns:xlink="http://www.w3.org/1999/xlink">
<g id="graph0" class="graph" transform="scale(1 1) rotate(0) translate(4 358)">
<title>/home/runner/work/occ/occ/include/occ/crystal/spacegroup.h</title>
<!-- Node1 -->
<g id="node1" class="node">
<title>Node1</title>
<g id="a_node1"><a xlink:title=" ">
<polygon fill="#bfbfbf" stroke="black" points="1051,-312.5 1051,-353.5 1181,-353.5 1181,-312.5 1051,-312.5"/>
<text text-anchor="start" x="1059" y="-341.5" font-family="Helvetica,sans-Serif" font-size="10.00">/home/runner/work/occ</text>
<text text-anchor="start" x="1059" y="-330.5" font-family="Helvetica,sans-Serif" font-size="10.00">/occ/include/occ/crystal</text>
<text text-anchor="middle" x="1116" y="-319.5" font-family="Helvetica,sans-Serif" font-size="10.00">/spacegroup.h</text>
</a>
</g>
</g>
<!-- Node2 -->
<g id="node2" class="node">
<title>Node2</title>
<g id="a_node2"><a xlink:href="crystal_8h.html" target="_top" xlink:title=" ">
<polygon fill="none" stroke="black" points="1051,-234.5 1051,-275.5 1181,-275.5 1181,-234.5 1051,-234.5"/>
<text text-anchor="start" x="1059" y="-263.5" font-family="Helvetica,sans-Serif" font-size="10.00">/home/runner/work/occ</text>
<text text-anchor="start" x="1059" y="-252.5" font-family="Helvetica,sans-Serif" font-size="10.00">/occ/include/occ/crystal</text>
<text text-anchor="middle" x="1116" y="-241.5" font-family="Helvetica,sans-Serif" font-size="10.00">/crystal.h</text>
</a>
</g>
</g>
<!-- Node1&#45;&gt;Node2 -->
<g id="edge1" class="edge">
<title>Node1&#45;&gt;Node2</title>
<path fill="none" stroke="midnightblue" d="M1116,-302.3C1116,-293.3 1116,-283.65 1116,-275.51"/>
<polygon fill="midnightblue" stroke="midnightblue" points="1112.5,-302.43 1116,-312.43 1119.5,-302.43 1112.5,-302.43"/>
</g>
<!-- Node3 -->
<g id="node3" class="node">
<title>Node3</title>
<g id="a_node3"><a xlink:href="crystal_2surface_8h.html" target="_top" xlink:title=" ">
<polygon fill="none" stroke="black" points="0,-156.5 0,-197.5 130,-197.5 130,-156.5 0,-156.5"/>
<text text-anchor="start" x="8" y="-185.5" font-family="Helvetica,sans-Serif" font-size="10.00">/home/runner/work/occ</text>
<text text-anchor="start" x="8" y="-174.5" font-family="Helvetica,sans-Serif" font-size="10.00">/occ/include/occ/crystal</text>
<text text-anchor="middle" x="65" y="-163.5" font-family="Helvetica,sans-Serif" font-size="10.00">/surface.h</text>
</a>
</g>
</g>
<!-- Node2&#45;&gt;Node3 -->
<g id="edge2" class="edge">
<title>Node2&#45;&gt;Node3</title>
<path fill="none" stroke="midnightblue" d="M1040.24,-254.52C875.95,-254.58 475.03,-248.96 144,-198 139.53,-197.31 134.94,-196.48 130.33,-195.56"/>
<polygon fill="midnightblue" stroke="midnightblue" points="1040.72,-258.02 1050.71,-254.51 1040.71,-251.02 1040.72,-258.02"/>
</g>
<!-- Node4 -->
<g id="node4" class="node">
<title>Node4</title>
<g id="a_node4"><a xlink:href="cifparser_8h.html" target="_top" xlink:title=" ">
<polygon fill="none" stroke="black" points="311,-84 311,-114 471,-114 471,-84 311,-84"/>
<text text-anchor="start" x="319" y="-102" font-family="Helvetica,sans-Serif" font-size="10.00">/home/runner/work/occ</text>
<text text-anchor="middle" x="391" y="-91" font-family="Helvetica,sans-Serif" font-size="10.00">/occ/include/occ/io/cifparser.h</text>
</a>
</g>
</g>
<!-- Node2&#45;&gt;Node4 -->
<g id="edge3" class="edge">
<title>Node2&#45;&gt;Node4</title>
<path fill="none" stroke="midnightblue" d="M1040.83,-252.3C823.27,-247.01 206.49,-229.3 177,-198 130.9,-149.07 232.41,-122.56 310.86,-109.86"/>
<polygon fill="midnightblue" stroke="midnightblue" points="1040.81,-255.8 1050.89,-252.54 1040.98,-248.8 1040.81,-255.8"/>
</g>
<!-- Node5 -->
<g id="node5" class="node">
<title>Node5</title>
<g id="a_node5"><a xlink:href="crystal__json_8h.html" target="_top" xlink:title=" ">
<polygon fill="none" stroke="black" points="186,-156.5 186,-197.5 328,-197.5 328,-156.5 186,-156.5"/>
<text text-anchor="start" x="194" y="-185.5" font-family="Helvetica,sans-Serif" font-size="10.00">/home/runner/work/occ</text>
<text text-anchor="start" x="194" y="-174.5" font-family="Helvetica,sans-Serif" font-size="10.00">/occ/include/occ/io/crystal</text>
<text text-anchor="middle" x="257" y="-163.5" font-family="Helvetica,sans-Serif" font-size="10.00">_json.h</text>
</a>
</g>
</g>
<!-- Node2&#45;&gt;Node5 -->
<g id="edge4" class="edge">
<title>Node2&#45;&gt;Node5</title>
<path fill="none" stroke="midnightblue" d="M1040.77,-252.91C901.2,-249.94 593.03,-238.89 337,-198 334.17,-197.55 331.3,-197.05 328.4,-196.5"/>
<polygon fill="midnightblue" stroke="midnightblue" points="1040.86,-256.41 1050.93,-253.12 1041.01,-249.42 1040.86,-256.41"/>
</g>
<!-- Node6 -->
<g id="node6" class="node">
<title>Node6</title>
<g id="a_node6"><a xlink:href="crystalgrower_8h.html" target="_top" xlink:title=" ">
<polygon fill="none" stroke="black" points="346,-162 346,-192 530,-192 530,-162 346,-162"/>
<text text-anchor="start" x="354" y="-180" font-family="Helvetica,sans-Serif" font-size="10.00">/home/runner/work/occ</text>
<text text-anchor="middle" x="438" y="-169" font-family="Helvetica,sans-Serif" font-size="10.00">/occ/include/occ/io/crystalgrower.h</text>
</a>
</g>
</g>
<!-- Node2&#45;&gt;Node6 -->
<g id="edge5" class="edge">
<title>Node2&#45;&gt;Node6</title>
<path fill="none" stroke="midnightblue" d="M1040.81,-249.08C930.4,-241.33 718.11,-224.36 539,-198 527.59,-196.32 515.52,-194.22 503.85,-192.01"/>
<polygon fill="midnightblue" stroke="midnightblue" points="1040.63,-252.58 1050.85,-249.78 1041.11,-245.6 1040.63,-252.58"/>
</g>
<!-- Node7 -->
<g id="node7" class="node">
<title>Node7</title>
<g id="a_node7"><a xlink:href="dftb__gen_8h.html" target="_top" xlink:title=" ">
<polygon fill="none" stroke="black" points="548,-162 548,-192 708,-192 708,-162 548,-162"/>
<text text-anchor="start" x="556" y="-180" font-family="Helvetica,sans-Serif" font-size="10.00">/home/runner/work/occ</text>
<text text-anchor="middle" x="628" y="-169" font-family="Helvetica,sans-Serif" font-size="10.00">/occ/include/occ/io/dftb_gen.h</text>
</a>
</g>
</g>
<!-- Node2&#45;&gt;Node7 -->
<g id="edge6" class="edge">
<title>Node2&#45;&gt;Node7</title>
<path fill="none" stroke="midnightblue" d="M1040.74,-245.3C960.3,-235.56 829.19,-218.44 717,-198 707.34,-196.24 697.14,-194.16 687.23,-192.02"/>
<polygon fill="midnightblue" stroke="midnightblue" points="1040.43,-248.78 1050.78,-246.5 1041.27,-241.83 1040.43,-248.78"/>
</g>
<!-- Node8 -->
<g id="node8" class="node">
<title>Node8</title>
<g id="a_node8"><a xlink:href="gmf_8h.html" target="_top" xlink:title=" ">
<polygon fill="none" stroke="black" points="726.5,-162 726.5,-192 863.5,-192 863.5,-162 726.5,-162"/>
<text text-anchor="start" x="734.5" y="-180" font-family="Helvetica,sans-Serif" font-size="10.00">/home/runner/work/occ</text>
<text text-anchor="middle" x="795" y="-169" font-family="Helvetica,sans-Serif" font-size="10.00">/occ/include/occ/io/gmf.h</text>
</a>
</g>
</g>
<!-- Node2&#45;&gt;Node8 -->
<g id="edge7" class="edge">
<title>Node2&#45;&gt;Node8</title>
<path fill="none" stroke="midnightblue" d="M1041.14,-237.4C992.79,-226.53 928.58,-211.84 872,-198 864.35,-196.13 856.29,-194.1 848.39,-192.08"/>
<polygon fill="midnightblue" stroke="midnightblue" points="1040.37,-240.81 1050.89,-239.59 1041.9,-233.98 1040.37,-240.81"/>
</g>
<!-- Node9 -->
<g id="node9" class="node">
<title>Node9</title>
<g id="a_node9"><a xlink:href="kmcpp_8h.html" target="_top" xlink:title=" ">
<polygon fill="none" stroke="black" points="881.5,-162 881.5,-192 1032.5,-192 1032.5,-162 881.5,-162"/>
<text text-anchor="start" x="889.5" y="-180" font-family="Helvetica,sans-Serif" font-size="10.00">/home/runner/work/occ</text>
<text text-anchor="middle" x="957" y="-169" font-family="Helvetica,sans-Serif" font-size="10.00">/occ/include/occ/io/kmcpp.h</text>
</a>
</g>
</g>
<!-- Node2&#45;&gt;Node9 -->
<g id="edge8" class="edge">
<title>Node2&#45;&gt;Node9</title>
<path fill="none" stroke="midnightblue" d="M1065.73,-229.97C1039.75,-217.55 1008.94,-202.83 986.76,-192.23"/>
<polygon fill="midnightblue" stroke="midnightblue" points="1064.52,-233.27 1075.05,-234.43 1067.54,-226.96 1064.52,-233.27"/>
</g>
<!-- Node10 -->
<g id="node10" class="node">
<title>Node10</title>
<g id="a_node10"><a xlink:href="load__geometry_8h.html" target="_top" xlink:title=" ">
<polygon fill="none" stroke="black" points="1051,-156.5 1051,-197.5 1181,-197.5 1181,-156.5 1051,-156.5"/>
<text text-anchor="start" x="1059" y="-185.5" font-family="Helvetica,sans-Serif" font-size="10.00">/home/runner/work/occ</text>
<text text-anchor="start" x="1059" y="-174.5" font-family="Helvetica,sans-Serif" font-size="10.00">/occ/include/occ/io/load</text>
<text text-anchor="middle" x="1116" y="-163.5" font-family="Helvetica,sans-Serif" font-size="10.00">_geometry.h</text>
</a>
</g>
</g>
<!-- Node2&#45;&gt;Node10 -->
<g id="edge9" class="edge">
<title>Node2&#45;&gt;Node10</title>
<path fill="none" stroke="midnightblue" d="M1116,-224.3C1116,-215.3 1116,-205.65 1116,-197.51"/>
<polygon fill="midnightblue" stroke="midnightblue" points="1112.5,-224.43 1116,-234.43 1119.5,-224.43 1112.5,-224.43"/>
</g>
<!-- Node11 -->
<g id="node11" class="node">
<title>Node11</title>
<g id="a_node11"><a xlink:href="occ__input_8h.html" target="_top" xlink:title=" ">
<polygon fill="none" stroke="black" points="1199,-156.5 1199,-197.5 1327,-197.5 1327,-156.5 1199,-156.5"/>
<text text-anchor="start" x="1207" y="-185.5" font-family="Helvetica,sans-Serif" font-size="10.00">/home/runner/work/occ</text>
<text text-anchor="start" x="1207" y="-174.5" font-family="Helvetica,sans-Serif" font-size="10.00">/occ/include/occ/io/occ</text>
<text text-anchor="middle" x="1263" y="-163.5" font-family="Helvetica,sans-Serif" font-size="10.00">_input.h</text>
</a>
</g>
</g>
<!-- Node2&#45;&gt;Node11 -->
<g id="edge10" class="edge">
<title>Node2&#45;&gt;Node11</title>
<path fill="none" stroke="midnightblue" d="M1162.87,-229.77C1183.02,-219.35 1206.26,-207.34 1225.27,-197.51"/>
<polygon fill="midnightblue" stroke="midnightblue" points="1161.13,-226.73 1153.86,-234.43 1164.35,-232.94 1161.13,-226.73"/>
</g>
<!-- Node15 -->
<g id="node15" class="node">
<title>Node15</title>
<g id="a_node15"><a xlink:href="pair__energy_8h.html" target="_top" xlink:title=" ">
<polygon fill="none" stroke="black" points="1418,-78.5 1418,-119.5 1546,-119.5 1546,-78.5 1418,-78.5"/>
<text text-anchor="start" x="1426" y="-107.5" font-family="Helvetica,sans-Serif" font-size="10.00">/home/runner/work/occ</text>
<text text-anchor="start" x="1426" y="-96.5" font-family="Helvetica,sans-Serif" font-size="10.00">/occ/include/occ/main</text>
<text text-anchor="middle" x="1482" y="-85.5" font-family="Helvetica,sans-Serif" font-size="10.00">/pair_energy.h</text>
</a>
</g>
</g>
<!-- Node2&#45;&gt;Node15 -->
<g id="edge24" class="edge">
<title>Node2&#45;&gt;Node15</title>
<path fill="none" stroke="midnightblue" d="M1191.24,-245.69C1235.77,-238.22 1291.89,-224.19 1336,-198 1357.9,-184.99 1354.76,-171.46 1375,-156 1393.74,-141.68 1416.68,-129.13 1436.5,-119.56"/>
<polygon fill="midnightblue" stroke="midnightblue" points="1190.67,-242.24 1181.35,-247.28 1191.78,-249.15 1190.67,-242.24"/>
</g>
<!-- Node20 -->
<g id="node20" class="node">
<title>Node20</title>
<g id="a_node20"><a xlink:href="void_8h.html" target="_top" xlink:title=" ">
<polygon fill="none" stroke="black" points="1383.5,-156.5 1383.5,-197.5 1530.5,-197.5 1530.5,-156.5 1383.5,-156.5"/>
<text text-anchor="start" x="1391.5" y="-185.5" font-family="Helvetica,sans-Serif" font-size="10.00">/home/runner/work/occ</text>
<text text-anchor="start" x="1391.5" y="-174.5" font-family="Helvetica,sans-Serif" font-size="10.00">/occ/include/occ/isosurface</text>
<text text-anchor="middle" x="1457" y="-163.5" font-family="Helvetica,sans-Serif" font-size="10.00">/void.h</text>
</a>
</g>
</g>
<!-- Node2&#45;&gt;Node20 -->
<g id="edge21" class="edge">
<title>Node2&#45;&gt;Node20</title>
<path fill="none" stroke="midnightblue" d="M1190.85,-237.55C1241.22,-226.45 1309.12,-211.43 1369,-198 1373.59,-196.97 1378.31,-195.91 1383.07,-194.84"/>
<polygon fill="midnightblue" stroke="midnightblue" points="1190.03,-234.14 1181.02,-239.71 1191.54,-240.98 1190.03,-234.14"/>
</g>
<!-- Node22 -->
<g id="node22" class="node">
<title>Node22</title>
<g id="a_node22"><a xlink:href="crystal__surface__energy_8h.html" target="_top" xlink:title=" ">
<polygon fill="none" stroke="black" points="1549,-156.5 1549,-197.5 1689,-197.5 1689,-156.5 1549,-156.5"/>
<text text-anchor="start" x="1557" y="-185.5" font-family="Helvetica,sans-Serif" font-size="10.00">/home/runner/work/occ</text>
<text text-anchor="start" x="1557" y="-174.5" font-family="Helvetica,sans-Serif" font-size="10.00">/occ/include/occ/main</text>
<text text-anchor="middle" x="1619" y="-163.5" font-family="Helvetica,sans-Serif" font-size="10.00">/crystal_surface_energy.h</text>
</a>
</g>
</g>
<!-- Node2&#45;&gt;Node22 -->
<g id="edge23" class="edge">
<title>Node2&#45;&gt;Node22</title>
<path fill="none" stroke="midnightblue" d="M1191.11,-246.76C1276.19,-237.93 1418.78,-221.27 1540,-198 1542.92,-197.44 1545.89,-196.84 1548.88,-196.2"/>
<polygon fill="midnightblue" stroke="midnightblue" points="1190.62,-243.29 1181.03,-247.79 1191.33,-250.25 1190.62,-243.29"/>
</g>
<!-- Node23 -->
<g id="node23" class="node">
<title>Node23</title>
<g id="a_node23"><a xlink:href="solvation__partition_8h.html" target="_top" xlink:title=" ">
<polygon fill="none" stroke="black" points="1707,-156.5 1707,-197.5 1835,-197.5 1835,-156.5 1707,-156.5"/>
<text text-anchor="start" x="1715" y="-185.5" font-family="Helvetica,sans-Serif" font-size="10.00">/home/runner/work/occ</text>
<text text-anchor="start" x="1715" y="-174.5" font-family="Helvetica,sans-Serif" font-size="10.00">/occ/include/occ/main</text>
<text text-anchor="middle" x="1771" y="-163.5" font-family="Helvetica,sans-Serif" font-size="10.00">/solvation_partition.h</text>
</a>
</g>
</g>
<!-- Node2&#45;&gt;Node23 -->
<g id="edge25" class="edge">
<title>Node2&#45;&gt;Node23</title>
<path fill="none" stroke="midnightblue" d="M1191.23,-250.89C1302.69,-245.34 1517.92,-231.08 1698,-198 1700.84,-197.48 1703.74,-196.9 1706.65,-196.27"/>
<polygon fill="midnightblue" stroke="midnightblue" points="1190.91,-247.4 1181.09,-251.38 1191.25,-254.39 1190.91,-247.4"/>
</g>
<!-- Node24 -->
<g id="node24" class="node">
<title>Node24</title>
<g id="a_node24"><a xlink:href="tblite__wrapper_8h.html" target="_top" xlink:title=" ">
<polygon fill="none" stroke="black" points="1853,-156.5 1853,-197.5 1981,-197.5 1981,-156.5 1853,-156.5"/>
<text text-anchor="start" x="1861" y="-185.5" font-family="Helvetica,sans-Serif" font-size="10.00">/home/runner/work/occ</text>
<text text-anchor="start" x="1861" y="-174.5" font-family="Helvetica,sans-Serif" font-size="10.00">/occ/include/occ/xtb</text>
<text text-anchor="middle" x="1917" y="-163.5" font-family="Helvetica,sans-Serif" font-size="10.00">/tblite_wrapper.h</text>
</a>
</g>
</g>
<!-- Node2&#45;&gt;Node24 -->
<g id="edge26" class="edge">
<title>Node2&#45;&gt;Node24</title>
<path fill="none" stroke="midnightblue" d="M1191.35,-252.92C1324.15,-249.98 1608.17,-238.99 1844,-198 1846.85,-197.5 1849.75,-196.95 1852.66,-196.34"/>
<polygon fill="midnightblue" stroke="midnightblue" points="1191.2,-249.43 1181.28,-253.14 1191.35,-256.42 1191.2,-249.43"/>
</g>
<!-- Node25 -->
<g id="node25" class="node">
<title>Node25</title>
<g id="a_node25"><a xlink:href="xtb__wrapper_8h.html" target="_top" xlink:title=" ">
<polygon fill="none" stroke="black" points="1999,-156.5 1999,-197.5 2127,-197.5 2127,-156.5 1999,-156.5"/>
<text text-anchor="start" x="2007" y="-185.5" font-family="Helvetica,sans-Serif" font-size="10.00">/home/runner/work/occ</text>
<text text-anchor="start" x="2007" y="-174.5" font-family="Helvetica,sans-Serif" font-size="10.00">/occ/include/occ/xtb</text>
<text text-anchor="middle" x="2063" y="-163.5" font-family="Helvetica,sans-Serif" font-size="10.00">/xtb_wrapper.h</text>
</a>
</g>
</g>
<!-- Node2&#45;&gt;Node25 -->
<g id="edge27" class="edge">
<title>Node2&#45;&gt;Node25</title>
<path fill="none" stroke="midnightblue" d="M1191.37,-254.31C1343.46,-253.8 1697.54,-246.91 1990,-198 1992.85,-197.52 1995.75,-196.98 1998.67,-196.39"/>
<polygon fill="midnightblue" stroke="midnightblue" points="1191.2,-250.81 1181.21,-254.33 1191.22,-257.81 1191.2,-250.81"/>
</g>
<!-- Node11&#45;&gt;Node4 -->
<g id="edge11" class="edge">
<title>Node11&#45;&gt;Node4</title>
<path fill="none" stroke="midnightblue" d="M1188.49,-155.92C946.19,-115.98 880.41,-137.62 639,-120 582.89,-115.9 519.67,-110.8 471.11,-106.77"/>
<polygon fill="midnightblue" stroke="midnightblue" points="1188.23,-159.43 1198.67,-157.62 1189.38,-152.52 1188.23,-159.43"/>
</g>
<!-- Node12 -->
<g id="node12" class="node">
<title>Node12</title>
<g id="a_node12"><a xlink:href="qcschema_8h.html" target="_top" xlink:title=" ">
<polygon fill="none" stroke="black" points="648.5,-84 648.5,-114 815.5,-114 815.5,-84 648.5,-84"/>
<text text-anchor="start" x="656.5" y="-102" font-family="Helvetica,sans-Serif" font-size="10.00">/home/runner/work/occ</text>
<text text-anchor="middle" x="732" y="-91" font-family="Helvetica,sans-Serif" font-size="10.00">/occ/include/occ/io/qcschema.h</text>
</a>
</g>
</g>
<!-- Node11&#45;&gt;Node12 -->
<g id="edge12" class="edge">
<title>Node11&#45;&gt;Node12</title>
<path fill="none" stroke="midnightblue" d="M1188.41,-155.87C1027.87,-127.11 982.75,-144.66 825,-120 814.39,-118.34 803.18,-116.24 792.35,-114.02"/>
<polygon fill="midnightblue" stroke="midnightblue" points="1188.18,-159.38 1198.65,-157.74 1189.44,-152.5 1188.18,-159.38"/>
</g>
<!-- Node13 -->
<g id="node13" class="node">
<title>Node13</title>
<g id="a_node13"><a xlink:href="occ__pair_8h.html" target="_top" xlink:title=" ">
<polygon fill="none" stroke="black" points="834,-78.5 834,-119.5 962,-119.5 962,-78.5 834,-78.5"/>
<text text-anchor="start" x="842" y="-107.5" font-family="Helvetica,sans-Serif" font-size="10.00">/home/runner/work/occ</text>
<text text-anchor="start" x="842" y="-96.5" font-family="Helvetica,sans-Serif" font-size="10.00">/occ/include/occ/main</text>
<text text-anchor="middle" x="898" y="-85.5" font-family="Helvetica,sans-Serif" font-size="10.00">/occ_pair.h</text>
</a>
</g>
</g>
<!-- Node11&#45;&gt;Node13 -->
<g id="edge13" class="edge">
<title>Node11&#45;&gt;Node13</title>
<path fill="none" stroke="midnightblue" d="M1189.05,-155.91C1091.87,-135.31 1064.26,-140.38 971,-120 968.05,-119.35 965.04,-118.66 962,-117.94"/>
<polygon fill="midnightblue" stroke="midnightblue" points="1188.49,-159.37 1199,-158.06 1189.96,-152.53 1188.49,-159.37"/>
</g>
<!-- Node14 -->
<g id="node14" class="node">
<title>Node14</title>
<g id="a_node14"><a xlink:href="occ__scf_8h.html" target="_top" xlink:title=" ">
<polygon fill="none" stroke="black" points="980,-78.5 980,-119.5 1108,-119.5 1108,-78.5 980,-78.5"/>
<text text-anchor="start" x="988" y="-107.5" font-family="Helvetica,sans-Serif" font-size="10.00">/home/runner/work/occ</text>
<text text-anchor="start" x="988" y="-96.5" font-family="Helvetica,sans-Serif" font-size="10.00">/occ/include/occ/main</text>
<text text-anchor="middle" x="1044" y="-85.5" font-family="Helvetica,sans-Serif" font-size="10.00">/occ_scf.h</text>
</a>
</g>
</g>
<!-- Node11&#45;&gt;Node14 -->
<g id="edge14" class="edge">
<title>Node11&#45;&gt;Node14</title>
<path fill="none" stroke="midnightblue" d="M1196.8,-153.03C1165.97,-142.33 1129.68,-129.73 1100.21,-119.51"/>
<polygon fill="midnightblue" stroke="midnightblue" points="1196.01,-156.46 1206.6,-156.43 1198.3,-149.84 1196.01,-156.46"/>
</g>
<!-- Node11&#45;&gt;Node15 -->
<g id="edge15" class="edge">
<title>Node11&#45;&gt;Node15</title>
<path fill="none" stroke="midnightblue" d="M1329.2,-153.03C1360.03,-142.33 1396.32,-129.73 1425.79,-119.51"/>
<polygon fill="midnightblue" stroke="midnightblue" points="1327.7,-149.84 1319.4,-156.43 1329.99,-156.46 1327.7,-149.84"/>
</g>
<!-- Node18 -->
<g id="node18" class="node">
<title>Node18</title>
<g id="a_node18"><a xlink:href="properties_8h.html" target="_top" xlink:title=" ">
<polygon fill="none" stroke="black" points="1126,-78.5 1126,-119.5 1254,-119.5 1254,-78.5 1126,-78.5"/>
<text text-anchor="start" x="1134" y="-107.5" font-family="Helvetica,sans-Serif" font-size="10.00">/home/runner/work/occ</text>
<text text-anchor="start" x="1134" y="-96.5" font-family="Helvetica,sans-Serif" font-size="10.00">/occ/include/occ/main</text>
<text text-anchor="middle" x="1190" y="-85.5" font-family="Helvetica,sans-Serif" font-size="10.00">/properties.h</text>
</a>
</g>
</g>
<!-- Node11&#45;&gt;Node18 -->
<g id="edge19" class="edge">
<title>Node11&#45;&gt;Node18</title>
<path fill="none" stroke="midnightblue" d="M1237.26,-149.2C1227.86,-139.42 1217.41,-128.54 1208.74,-119.51"/>
<polygon fill="midnightblue" stroke="midnightblue" points="1234.75,-151.64 1244.2,-156.43 1239.8,-146.79 1234.75,-151.64"/>
</g>
<!-- Node19 -->
<g id="node19" class="node">
<title>Node19</title>
<g id="a_node19"><a xlink:href="single__point_8h.html" target="_top" xlink:title=" ">
<polygon fill="none" stroke="black" points="1272,-78.5 1272,-119.5 1400,-119.5 1400,-78.5 1272,-78.5"/>
<text text-anchor="start" x="1280" y="-107.5" font-family="Helvetica,sans-Serif" font-size="10.00">/home/runner/work/occ</text>
<text text-anchor="start" x="1280" y="-96.5" font-family="Helvetica,sans-Serif" font-size="10.00">/occ/include/occ/main</text>
<text text-anchor="middle" x="1336" y="-85.5" font-family="Helvetica,sans-Serif" font-size="10.00">/single_point.h</text>
</a>
</g>
</g>
<!-- Node11&#45;&gt;Node19 -->
<g id="edge20" class="edge">
<title>Node11&#45;&gt;Node19</title>
<path fill="none" stroke="midnightblue" d="M1288.74,-149.2C1298.14,-139.42 1308.59,-128.54 1317.26,-119.51"/>
<polygon fill="midnightblue" stroke="midnightblue" points="1286.2,-146.79 1281.8,-156.43 1291.25,-151.64 1286.2,-146.79"/>
</g>
<!-- Node15&#45;&gt;Node15 -->
<g id="edge18" class="edge">
<title>Node15&#45;&gt;Node15</title>
<path fill="none" stroke="midnightblue" d="M1556.15,-109.45C1561.04,-107.02 1564,-103.54 1564,-99 1564,-91.92 1556.79,-87.41 1546.29,-85.47"/>
<polygon fill="midnightblue" stroke="midnightblue" points="1554.79,-106.21 1546.29,-112.53 1556.88,-112.89 1554.79,-106.21"/>
</g>
<!-- Node16 -->
<g id="node16" class="node">
<title>Node16</title>
<g id="a_node16"><a xlink:href="occ__cg_8h.html" target="_top" xlink:title=" ">
<polygon fill="none" stroke="black" points="1345,-0.5 1345,-41.5 1473,-41.5 1473,-0.5 1345,-0.5"/>
<text text-anchor="start" x="1353" y="-29.5" font-family="Helvetica,sans-Serif" font-size="10.00">/home/runner/work/occ</text>
<text text-anchor="start" x="1353" y="-18.5" font-family="Helvetica,sans-Serif" font-size="10.00">/occ/include/occ/main</text>
<text text-anchor="middle" x="1409" y="-7.5" font-family="Helvetica,sans-Serif" font-size="10.00">/occ_cg.h</text>
</a>
</g>
</g>
<!-- Node15&#45;&gt;Node16 -->
<g id="edge16" class="edge">
<title>Node15&#45;&gt;Node16</title>
<path fill="none" stroke="midnightblue" d="M1456.26,-71.2C1446.86,-61.42 1436.41,-50.54 1427.74,-41.51"/>
<polygon fill="midnightblue" stroke="midnightblue" points="1453.75,-73.64 1463.2,-78.43 1458.8,-68.79 1453.75,-73.64"/>
</g>
<!-- Node17 -->
<g id="node17" class="node">
<title>Node17</title>
<g id="a_node17"><a xlink:href="occ__elat_8h.html" target="_top" xlink:title=" ">
<polygon fill="none" stroke="black" points="1491,-0.5 1491,-41.5 1619,-41.5 1619,-0.5 1491,-0.5"/>
<text text-anchor="start" x="1499" y="-29.5" font-family="Helvetica,sans-Serif" font-size="10.00">/home/runner/work/occ</text>
<text text-anchor="start" x="1499" y="-18.5" font-family="Helvetica,sans-Serif" font-size="10.00">/occ/include/occ/main</text>
<text text-anchor="middle" x="1555" y="-7.5" font-family="Helvetica,sans-Serif" font-size="10.00">/occ_elat.h</text>
</a>
</g>
</g>
<!-- Node15&#45;&gt;Node17 -->
<g id="edge17" class="edge">
<title>Node15&#45;&gt;Node17</title>
<path fill="none" stroke="midnightblue" d="M1507.74,-71.2C1517.14,-61.42 1527.59,-50.54 1536.26,-41.51"/>
<polygon fill="midnightblue" stroke="midnightblue" points="1505.2,-68.79 1500.8,-78.43 1510.25,-73.64 1505.2,-68.79"/>
</g>
<!-- Node21 -->
<g id="node21" class="node">
<title>Node21</title>
<g id="a_node21"><a xlink:href="isosurface_8h.html" target="_top" xlink:title=" ">
<polygon fill="none" stroke="black" points="1582.5,-78.5 1582.5,-119.5 1729.5,-119.5 1729.5,-78.5 1582.5,-78.5"/>
<text text-anchor="start" x="1590.5" y="-107.5" font-family="Helvetica,sans-Serif" font-size="10.00">/home/runner/work/occ</text>
<text text-anchor="start" x="1590.5" y="-96.5" font-family="Helvetica,sans-Serif" font-size="10.00">/occ/include/occ/isosurface</text>
<text text-anchor="middle" x="1656" y="-85.5" font-family="Helvetica,sans-Serif" font-size="10.00">/isosurface.h</text>
</a>
</g>
</g>
<!-- Node20&#45;&gt;Node21 -->
<g id="edge22" class="edge">
<title>Node20&#45;&gt;Node21</title>
<path fill="none" stroke="midnightblue" d="M1517.88,-152.75C1545.74,-142.11 1578.37,-129.65 1604.93,-119.51"/>
<polygon fill="midnightblue" stroke="midnightblue" points="1516.34,-149.59 1508.25,-156.43 1518.84,-156.13 1516.34,-149.59"/>
</g>
</g>
</svg>
