<?xml version="1.0" encoding="UTF-8" standalone="no"?>
<!DOCTYPE svg PUBLIC "-//W3C//DTD SVG 1.1//EN"
 "http://www.w3.org/Graphics/SVG/1.1/DTD/svg11.dtd">
<!-- Generated by graphviz version 2.43.0 (0)
 -->
<!-- Title: /home/runner/work/occ/occ/include/occ/qm/split_ri_j.h Pages: 1 -->
<svg width="1142pt" height="511pt"
 viewBox="0.00 0.00 1141.50 511.00" xmlns="http://www.w3.org/2000/svg" xmlns:xlink="http://www.w3.org/1999/xlink">
<g id="graph0" class="graph" transform="scale(1 1) rotate(0) translate(4 507)">
<title>/home/runner/work/occ/occ/include/occ/qm/split_ri_j.h</title>
<!-- Node1 -->
<g id="Node000001" class="node">
<title>Node1</title>
<g id="a_Node000001"><a xlink:title=" ">
<polygon fill="#999999" stroke="#666666" points="399.5,-503 262.5,-503 262.5,-462 399.5,-462 399.5,-503"/>
<text text-anchor="start" x="270.5" y="-491" font-family="Helvetica,sans-Serif" font-size="10.00">/home/runner/work/occ</text>
<text text-anchor="start" x="270.5" y="-480" font-family="Helvetica,sans-Serif" font-size="10.00">/occ/include/occ/qm/split</text>
<text text-anchor="middle" x="331" y="-469" font-family="Helvetica,sans-Serif" font-size="10.00">_ri_j.h</text>
</a>
</g>
</g>
<!-- Node2 -->
<g id="Node000002" class="node">
<title>Node2</title>
<g id="a_Node000002"><a xlink:href="integral__engine__df_8h.html" target="_top" xlink:title=" ">
<polygon fill="white" stroke="#666666" points="407.5,-426 254.5,-426 254.5,-385 407.5,-385 407.5,-426"/>
<text text-anchor="start" x="262.5" y="-414" font-family="Helvetica,sans-Serif" font-size="10.00">/home/runner/work/occ</text>
<text text-anchor="start" x="262.5" y="-403" font-family="Helvetica,sans-Serif" font-size="10.00">/occ/include/occ/qm/integral</text>
<text text-anchor="middle" x="331" y="-392" font-family="Helvetica,sans-Serif" font-size="10.00">_engine_df.h</text>
</a>
</g>
</g>
<!-- Node1&#45;&gt;Node2 -->
<g id="edge1_Node000001_Node000002" class="edge">
<title>Node1&#45;&gt;Node2</title>
<g id="a_edge1_Node000001_Node000002"><a xlink:title=" ">
<path fill="none" stroke="#63b8ff" d="M331,-451.69C331,-443.08 331,-433.9 331,-426.07"/>
<polygon fill="#63b8ff" stroke="#63b8ff" points="327.5,-451.79 331,-461.79 334.5,-451.79 327.5,-451.79"/>
</a>
</g>
</g>
<!-- Node3 -->
<g id="Node000003" class="node">
<title>Node3</title>
<g id="a_Node000003"><a xlink:href="acceleration_8h.html" target="_top" xlink:title=" ">
<polygon fill="white" stroke="#666666" points="128,-349 0,-349 0,-308 128,-308 128,-349"/>
<text text-anchor="start" x="8" y="-337" font-family="Helvetica,sans-Serif" font-size="10.00">/home/runner/work/occ</text>
<text text-anchor="start" x="8" y="-326" font-family="Helvetica,sans-Serif" font-size="10.00">/occ/include/occ/driver</text>
<text text-anchor="middle" x="64" y="-315" font-family="Helvetica,sans-Serif" font-size="10.00">/acceleration.h</text>
</a>
</g>
</g>
<!-- Node2&#45;&gt;Node3 -->
<g id="edge2_Node000002_Node000003" class="edge">
<title>Node2&#45;&gt;Node3</title>
<g id="a_edge2_Node000002_Node000003"><a xlink:title=" ">
<path fill="none" stroke="#63b8ff" d="M251.69,-382.22C212.25,-371.14 165.2,-357.93 128.07,-347.5"/>
<polygon fill="#63b8ff" stroke="#63b8ff" points="250.97,-385.66 261.55,-384.99 252.87,-378.92 250.97,-385.66"/>
</a>
</g>
</g>
<!-- Node4 -->
<g id="Node000004" class="node">
<title>Node4</title>
<g id="a_Node000004"><a xlink:href="df__integrals_8h.html" target="_top" xlink:title=" ">
<polygon fill="white" stroke="#666666" points="314,-349 146,-349 146,-308 314,-308 314,-349"/>
<text text-anchor="start" x="154" y="-337" font-family="Helvetica,sans-Serif" font-size="10.00">/home/runner/work/occ</text>
<text text-anchor="start" x="154" y="-326" font-family="Helvetica,sans-Serif" font-size="10.00">/occ/include/occ/qm/correlation</text>
<text text-anchor="middle" x="230" y="-315" font-family="Helvetica,sans-Serif" font-size="10.00">/df_integrals.h</text>
</a>
</g>
</g>
<!-- Node2&#45;&gt;Node4 -->
<g id="edge3_Node000002_Node000004" class="edge">
<title>Node2&#45;&gt;Node4</title>
<g id="a_edge3_Node000002_Node000004"><a xlink:title=" ">
<path fill="none" stroke="#63b8ff" d="M296.41,-378.82C283.35,-369.11 268.7,-358.24 256.49,-349.17"/>
<polygon fill="#63b8ff" stroke="#63b8ff" points="294.61,-381.84 304.73,-384.99 298.79,-376.22 294.61,-381.84"/>
</a>
</g>
</g>
<!-- Node5 -->
<g id="Node000005" class="node">
<title>Node5</title>
<g id="a_Node000005"><a xlink:href="mp2_8h.html" target="_top" xlink:title=" ">
<polygon fill="white" stroke="#666666" points="534,-343.5 332,-343.5 332,-313.5 534,-313.5 534,-343.5"/>
<text text-anchor="start" x="340" y="-331.5" font-family="Helvetica,sans-Serif" font-size="10.00">/home/runner/work/occ</text>
<text text-anchor="middle" x="433" y="-320.5" font-family="Helvetica,sans-Serif" font-size="10.00">/occ/include/occ/qm/correlation/mp2.h</text>
</a>
</g>
</g>
<!-- Node2&#45;&gt;Node5 -->
<g id="edge4_Node000002_Node000005" class="edge">
<title>Node2&#45;&gt;Node5</title>
<g id="a_edge4_Node000002_Node000005"><a xlink:title=" ">
<path fill="none" stroke="#63b8ff" d="M365.66,-379.01C381.71,-367.22 400.16,-353.65 413.69,-343.7"/>
<polygon fill="#63b8ff" stroke="#63b8ff" points="363.52,-376.25 357.53,-384.99 367.66,-381.89 363.52,-376.25"/>
</a>
</g>
</g>
<!-- Node6 -->
<g id="Node000006" class="node">
<title>Node6</title>
<g id="a_Node000006"><a xlink:href="hf_8h.html" target="_top" xlink:title=" ">
<polygon fill="white" stroke="#666666" points="686,-343.5 552,-343.5 552,-313.5 686,-313.5 686,-343.5"/>
<text text-anchor="start" x="560" y="-331.5" font-family="Helvetica,sans-Serif" font-size="10.00">/home/runner/work/occ</text>
<text text-anchor="middle" x="619" y="-320.5" font-family="Helvetica,sans-Serif" font-size="10.00">/occ/include/occ/qm/hf.h</text>
</a>
</g>
</g>
<!-- Node2&#45;&gt;Node6 -->
<g id="edge5_Node000002_Node000006" class="edge">
<title>Node2&#45;&gt;Node6</title>
<g id="a_edge5_Node000002_Node000006"><a xlink:title=" ">
<path fill="none" stroke="#63b8ff" d="M415.72,-382.44C463.96,-369.88 522.94,-354.52 564.92,-343.58"/>
<polygon fill="#63b8ff" stroke="#63b8ff" points="414.71,-379.08 405.92,-384.99 416.48,-385.86 414.71,-379.08"/>
</a>
</g>
</g>
<!-- Node7 -->
<g id="Node000007" class="node">
<title>Node7</title>
<g id="a_Node000007"><a xlink:href="dft_8h.html" target="_top" xlink:title=" ">
<polygon fill="white" stroke="#666666" points="540,-266.5 406,-266.5 406,-236.5 540,-236.5 540,-266.5"/>
<text text-anchor="start" x="414" y="-254.5" font-family="Helvetica,sans-Serif" font-size="10.00">/home/runner/work/occ</text>
<text text-anchor="middle" x="473" y="-243.5" font-family="Helvetica,sans-Serif" font-size="10.00">/occ/include/occ/dft/dft.h</text>
</a>
</g>
</g>
<!-- Node6&#45;&gt;Node7 -->
<g id="edge6_Node000006_Node000007" class="edge">
<title>Node6&#45;&gt;Node7</title>
<g id="a_edge6_Node000006_Node000007"><a xlink:title=" ">
<path fill="none" stroke="#63b8ff" d="M582.54,-308.77C557.05,-295.68 523.55,-278.47 500.34,-266.54"/>
<polygon fill="#63b8ff" stroke="#63b8ff" points="581.04,-311.94 591.54,-313.39 584.24,-305.71 581.04,-311.94"/>
</a>
</g>
</g>
<!-- Node12 -->
<g id="Node000012" class="node">
<title>Node12</title>
<g id="a_Node000012"><a xlink:href="point__functors_8h.html" target="_top" xlink:title=" ">
<polygon fill="white" stroke="#666666" points="575.5,-195 428.5,-195 428.5,-154 575.5,-154 575.5,-195"/>
<text text-anchor="start" x="436.5" y="-183" font-family="Helvetica,sans-Serif" font-size="10.00">/home/runner/work/occ</text>
<text text-anchor="start" x="436.5" y="-172" font-family="Helvetica,sans-Serif" font-size="10.00">/occ/include/occ/isosurface</text>
<text text-anchor="middle" x="502" y="-161" font-family="Helvetica,sans-Serif" font-size="10.00">/point_functors.h</text>
</a>
</g>
</g>
<!-- Node6&#45;&gt;Node12 -->
<g id="edge17_Node000006_Node000012" class="edge">
<title>Node6&#45;&gt;Node12</title>
<g id="a_edge17_Node000006_Node000012"><a xlink:title=" ">
<path fill="none" stroke="#63b8ff" d="M603.27,-304.82C589.39,-285.04 568.38,-255.71 549,-231 539.49,-218.88 528.37,-205.71 519.34,-195.24"/>
<polygon fill="#63b8ff" stroke="#63b8ff" points="600.53,-307 609.12,-313.19 606.26,-302.99 600.53,-307"/>
</a>
</g>
</g>
<!-- Node13 -->
<g id="Node000013" class="node">
<title>Node13</title>
<g id="a_Node000013"><a xlink:href="electric__potential_8h.html" target="_top" xlink:title=" ">
<polygon fill="white" stroke="#666666" points="743.5,-272 596.5,-272 596.5,-231 743.5,-231 743.5,-272"/>
<text text-anchor="start" x="604.5" y="-260" font-family="Helvetica,sans-Serif" font-size="10.00">/home/runner/work/occ</text>
<text text-anchor="start" x="604.5" y="-249" font-family="Helvetica,sans-Serif" font-size="10.00">/occ/include/occ/isosurface</text>
<text text-anchor="middle" x="670" y="-238" font-family="Helvetica,sans-Serif" font-size="10.00">/electric_potential.h</text>
</a>
</g>
</g>
<!-- Node6&#45;&gt;Node13 -->
<g id="edge12_Node000006_Node000013" class="edge">
<title>Node6&#45;&gt;Node13</title>
<g id="a_edge12_Node000006_Node000013"><a xlink:title=" ">
<path fill="none" stroke="#63b8ff" d="M634.42,-304.82C641.49,-294.42 649.8,-282.21 656.6,-272.2"/>
<polygon fill="#63b8ff" stroke="#63b8ff" points="631.32,-303.16 628.59,-313.39 637.11,-307.09 631.32,-303.16"/>
</a>
</g>
</g>
<!-- Node18 -->
<g id="Node000018" class="node">
<title>Node18</title>
<g id="a_Node000018"><a xlink:href="scf__impl_8h.html" target="_top" xlink:title=" ">
<polygon fill="white" stroke="#666666" points="894,-272 764,-272 764,-231 894,-231 894,-272"/>
<text text-anchor="start" x="772" y="-260" font-family="Helvetica,sans-Serif" font-size="10.00">/home/runner/work/occ</text>
<text text-anchor="start" x="772" y="-249" font-family="Helvetica,sans-Serif" font-size="10.00">/occ/include/occ/qm/scf</text>
<text text-anchor="middle" x="829" y="-238" font-family="Helvetica,sans-Serif" font-size="10.00">_impl.h</text>
</a>
</g>
</g>
<!-- Node6&#45;&gt;Node18 -->
<g id="edge18_Node000006_Node000018" class="edge">
<title>Node6&#45;&gt;Node18</title>
<g id="a_edge18_Node000006_Node000018"><a xlink:title=" ">
<path fill="none" stroke="#63b8ff" d="M668.04,-309.99C699.85,-298.63 741.34,-283.81 774.23,-272.06"/>
<polygon fill="#63b8ff" stroke="#63b8ff" points="666.74,-306.73 658.5,-313.39 669.09,-313.33 666.74,-306.73"/>
</a>
</g>
</g>
<!-- Node8 -->
<g id="Node000008" class="node">
<title>Node8</title>
<g id="a_Node000008"><a xlink:href="smd__solvation_8h.html" target="_top" xlink:title=" ">
<polygon fill="white" stroke="#666666" points="404,-195 272,-195 272,-154 404,-154 404,-195"/>
<text text-anchor="start" x="280" y="-183" font-family="Helvetica,sans-Serif" font-size="10.00">/home/runner/work/occ</text>
<text text-anchor="start" x="280" y="-172" font-family="Helvetica,sans-Serif" font-size="10.00">/occ/include/occ/cg/smd</text>
<text text-anchor="middle" x="338" y="-161" font-family="Helvetica,sans-Serif" font-size="10.00">_solvation.h</text>
</a>
</g>
</g>
<!-- Node7&#45;&gt;Node8 -->
<g id="edge7_Node000007_Node000008" class="edge">
<title>Node7&#45;&gt;Node8</title>
<g id="a_edge7_Node000007_Node000008"><a xlink:title=" ">
<path fill="none" stroke="#63b8ff" d="M438.8,-231.5C418.74,-220.35 393.44,-206.3 373.21,-195.06"/>
<polygon fill="#63b8ff" stroke="#63b8ff" points="437.17,-234.6 447.61,-236.39 440.57,-228.48 437.17,-234.6"/>
</a>
</g>
</g>
<!-- Node7&#45;&gt;Node12 -->
<g id="edge11_Node000007_Node000012" class="edge">
<title>Node7&#45;&gt;Node12</title>
<g id="a_edge11_Node000007_Node000012"><a xlink:title=" ">
<path fill="none" stroke="#63b8ff" d="M482.14,-226.87C486.07,-216.69 490.63,-204.91 494.38,-195.2"/>
<polygon fill="#63b8ff" stroke="#63b8ff" points="478.8,-225.8 478.45,-236.39 485.33,-228.33 478.8,-225.8"/>
</a>
</g>
</g>
<!-- Node9 -->
<g id="Node000009" class="node">
<title>Node9</title>
<g id="a_Node000009"><a xlink:href="crystal__growth_8h.html" target="_top" xlink:title=" ">
<polygon fill="white" stroke="#666666" points="399,-118 271,-118 271,-77 399,-77 399,-118"/>
<text text-anchor="start" x="279" y="-106" font-family="Helvetica,sans-Serif" font-size="10.00">/home/runner/work/occ</text>
<text text-anchor="start" x="279" y="-95" font-family="Helvetica,sans-Serif" font-size="10.00">/occ/include/occ/driver</text>
<text text-anchor="middle" x="335" y="-84" font-family="Helvetica,sans-Serif" font-size="10.00">/crystal_growth.h</text>
</a>
</g>
</g>
<!-- Node8&#45;&gt;Node9 -->
<g id="edge8_Node000008_Node000009" class="edge">
<title>Node8&#45;&gt;Node9</title>
<g id="a_edge8_Node000008_Node000009"><a xlink:title=" ">
<path fill="none" stroke="#63b8ff" d="M336.81,-143.69C336.46,-135.08 336.1,-125.9 335.78,-118.07"/>
<polygon fill="#63b8ff" stroke="#63b8ff" points="333.31,-143.94 337.21,-153.79 340.31,-143.66 333.31,-143.94"/>
</a>
</g>
</g>
<!-- Node10 -->
<g id="Node000010" class="node">
<title>Node10</title>
<g id="a_Node000010"><a xlink:href="cg__pipeline_8h.html" target="_top" xlink:title=" ">
<polygon fill="white" stroke="#666666" points="326,-41 198,-41 198,0 326,0 326,-41"/>
<text text-anchor="start" x="206" y="-29" font-family="Helvetica,sans-Serif" font-size="10.00">/home/runner/work/occ</text>
<text text-anchor="start" x="206" y="-18" font-family="Helvetica,sans-Serif" font-size="10.00">/occ/include/occ/driver</text>
<text text-anchor="middle" x="262" y="-7" font-family="Helvetica,sans-Serif" font-size="10.00">/cg_pipeline.h</text>
</a>
</g>
</g>
<!-- Node9&#45;&gt;Node10 -->
<g id="edge9_Node000009_Node000010" class="edge">
<title>Node9&#45;&gt;Node10</title>
<g id="a_edge9_Node000009_Node000010"><a xlink:title=" ">
<path fill="none" stroke="#63b8ff" d="M308.73,-69.51C299.58,-60.11 289.5,-49.76 281.05,-41.07"/>
<polygon fill="#63b8ff" stroke="#63b8ff" points="306.34,-72.07 315.82,-76.79 311.35,-67.19 306.34,-72.07"/>
</a>
</g>
</g>
<!-- Node11 -->
<g id="Node000011" class="node">
<title>Node11</title>
<g id="a_Node000011"><a xlink:href="dma__cg_8h.html" target="_top" xlink:title=" ">
<polygon fill="white" stroke="#666666" points="472,-41 344,-41 344,0 472,0 472,-41"/>
<text text-anchor="start" x="352" y="-29" font-family="Helvetica,sans-Serif" font-size="10.00">/home/runner/work/occ</text>
<text text-anchor="start" x="352" y="-18" font-family="Helvetica,sans-Serif" font-size="10.00">/occ/include/occ/mults</text>
<text text-anchor="middle" x="408" y="-7" font-family="Helvetica,sans-Serif" font-size="10.00">/dma_cg.h</text>
</a>
</g>
</g>
<!-- Node9&#45;&gt;Node11 -->
<g id="edge10_Node000009_Node000011" class="edge">
<title>Node9&#45;&gt;Node11</title>
<g id="a_edge10_Node000009_Node000011"><a xlink:title=" ">
<path fill="none" stroke="#63b8ff" d="M361.27,-69.51C370.42,-60.11 380.5,-49.76 388.95,-41.07"/>
<polygon fill="#63b8ff" stroke="#63b8ff" points="358.65,-67.19 354.18,-76.79 363.66,-72.07 358.65,-67.19"/>
</a>
</g>
</g>
<!-- Node14 -->
<g id="Node000014" class="node">
<title>Node14</title>
<g id="a_Node000014"><a xlink:href="isosurface_8h.html" target="_top" xlink:title=" ">
<polygon fill="white" stroke="#666666" points="743.5,-195 596.5,-195 596.5,-154 743.5,-154 743.5,-195"/>
<text text-anchor="start" x="604.5" y="-183" font-family="Helvetica,sans-Serif" font-size="10.00">/home/runner/work/occ</text>
<text text-anchor="start" x="604.5" y="-172" font-family="Helvetica,sans-Serif" font-size="10.00">/occ/include/occ/isosurface</text>
<text text-anchor="middle" x="670" y="-161" font-family="Helvetica,sans-Serif" font-size="10.00">/isosurface.h</text>
</a>
</g>
</g>
<!-- Node13&#45;&gt;Node14 -->
<g id="edge13_Node000013_Node000014" class="edge">
<title>Node13&#45;&gt;Node14</title>
<g id="a_edge13_Node000013_Node000014"><a xlink:title=" ">
<path fill="none" stroke="#63b8ff" d="M670,-220.69C670,-212.08 670,-202.9 670,-195.07"/>
<polygon fill="#63b8ff" stroke="#63b8ff" points="666.5,-220.79 670,-230.79 673.5,-220.79 666.5,-220.79"/>
</a>
</g>
</g>
<!-- Node15 -->
<g id="Node000015" class="node">
<title>Node15</title>
<g id="a_Node000015"><a xlink:href="isosurface__json_8h.html" target="_top" xlink:title=" ">
<polygon fill="white" stroke="#666666" points="564.5,-118 417.5,-118 417.5,-77 564.5,-77 564.5,-118"/>
<text text-anchor="start" x="425.5" y="-106" font-family="Helvetica,sans-Serif" font-size="10.00">/home/runner/work/occ</text>
<text text-anchor="start" x="425.5" y="-95" font-family="Helvetica,sans-Serif" font-size="10.00">/occ/include/occ/isosurface</text>
<text text-anchor="middle" x="491" y="-84" font-family="Helvetica,sans-Serif" font-size="10.00">/isosurface_json.h</text>
</a>
</g>
</g>
<!-- Node14&#45;&gt;Node15 -->
<g id="edge14_Node000014_Node000015" class="edge">
<title>Node14&#45;&gt;Node15</title>
<g id="a_edge14_Node000014_Node000015"><a xlink:title=" ">
<path fill="none" stroke="#63b8ff" d="M613.9,-150C589.39,-139.72 560.97,-127.82 537.64,-118.04"/>
<polygon fill="#63b8ff" stroke="#63b8ff" points="612.86,-153.35 623.44,-153.99 615.57,-146.9 612.86,-153.35"/>
</a>
</g>
</g>
<!-- Node16 -->
<g id="Node000016" class="node">
<title>Node16</title>
<g id="a_Node000016"><a xlink:href="obj_8h.html" target="_top" xlink:title=" ">
<polygon fill="white" stroke="#666666" points="757,-112.5 583,-112.5 583,-82.5 757,-82.5 757,-112.5"/>
<text text-anchor="start" x="591" y="-100.5" font-family="Helvetica,sans-Serif" font-size="10.00">/home/runner/work/occ</text>
<text text-anchor="middle" x="670" y="-89.5" font-family="Helvetica,sans-Serif" font-size="10.00">/occ/include/occ/isosurface/obj.h</text>
</a>
</g>
</g>
<!-- Node14&#45;&gt;Node16 -->
<g id="edge15_Node000014_Node000016" class="edge">
<title>Node14&#45;&gt;Node16</title>
<g id="a_edge15_Node000014_Node000016"><a xlink:title=" ">
<path fill="none" stroke="#63b8ff" d="M670,-143.61C670,-133.01 670,-121.57 670,-112.86"/>
<polygon fill="#63b8ff" stroke="#63b8ff" points="666.5,-143.79 670,-153.79 673.5,-143.79 666.5,-143.79"/>
</a>
</g>
</g>
<!-- Node17 -->
<g id="Node000017" class="node">
<title>Node17</title>
<g id="a_Node000017"><a xlink:href="ply_8h.html" target="_top" xlink:title=" ">
<polygon fill="white" stroke="#666666" points="948.5,-112.5 775.5,-112.5 775.5,-82.5 948.5,-82.5 948.5,-112.5"/>
<text text-anchor="start" x="783.5" y="-100.5" font-family="Helvetica,sans-Serif" font-size="10.00">/home/runner/work/occ</text>
<text text-anchor="middle" x="862" y="-89.5" font-family="Helvetica,sans-Serif" font-size="10.00">/occ/include/occ/isosurface/ply.h</text>
</a>
</g>
</g>
<!-- Node14&#45;&gt;Node17 -->
<g id="edge16_Node000014_Node000017" class="edge">
<title>Node14&#45;&gt;Node17</title>
<g id="a_edge16_Node000014_Node000017"><a xlink:title=" ">
<path fill="none" stroke="#63b8ff" d="M729.52,-150.25C761.09,-137.92 798.84,-123.17 825.95,-112.58"/>
<polygon fill="#63b8ff" stroke="#63b8ff" points="727.99,-147.09 719.94,-153.99 730.53,-153.61 727.99,-147.09"/>
</a>
</g>
</g>
<!-- Node19 -->
<g id="Node000019" class="node">
<title>Node19</title>
<g id="a_Node000019"><a xlink:href="scf_8h.html" target="_top" xlink:title=" ">
<polygon fill="white" stroke="#666666" points="1009,-189.5 871,-189.5 871,-159.5 1009,-159.5 1009,-189.5"/>
<text text-anchor="start" x="879" y="-177.5" font-family="Helvetica,sans-Serif" font-size="10.00">/home/runner/work/occ</text>
<text text-anchor="middle" x="940" y="-166.5" font-family="Helvetica,sans-Serif" font-size="10.00">/occ/include/occ/qm/scf.h</text>
</a>
</g>
</g>
<!-- Node18&#45;&gt;Node19 -->
<g id="edge19_Node000018_Node000019" class="edge">
<title>Node18&#45;&gt;Node19</title>
<g id="a_edge19_Node000018_Node000019"><a xlink:title=" ">
<path fill="none" stroke="#63b8ff" d="M866.24,-225.34C883.81,-213.47 904.13,-199.74 918.98,-189.7"/>
<polygon fill="#63b8ff" stroke="#63b8ff" points="864.2,-222.49 857.87,-230.99 868.12,-228.29 864.2,-222.49"/>
</a>
</g>
</g>
<!-- Node20 -->
<g id="Node000020" class="node">
<title>Node20</title>
<g id="a_Node000020"><a xlink:href="hessians_8h.html" target="_top" xlink:title=" ">
<polygon fill="white" stroke="#666666" points="1133.5,-112.5 966.5,-112.5 966.5,-82.5 1133.5,-82.5 1133.5,-112.5"/>
<text text-anchor="start" x="974.5" y="-100.5" font-family="Helvetica,sans-Serif" font-size="10.00">/home/runner/work/occ</text>
<text text-anchor="middle" x="1050" y="-89.5" font-family="Helvetica,sans-Serif" font-size="10.00">/occ/include/occ/qm/hessians.h</text>
</a>
</g>
</g>
<!-- Node19&#45;&gt;Node20 -->
<g id="edge20_Node000019_Node000020" class="edge">
<title>Node19&#45;&gt;Node20</title>
<g id="a_edge20_Node000019_Node000020"><a xlink:title=" ">
<path fill="none" stroke="#63b8ff" d="M969,-153.73C988,-140.78 1012.37,-124.15 1029.4,-112.54"/>
<polygon fill="#63b8ff" stroke="#63b8ff" points="966.98,-150.87 960.69,-159.39 970.92,-156.65 966.98,-150.87"/>
</a>
</g>
</g>
</g>
</svg>
