<?xml version="1.0" encoding="UTF-8" standalone="no"?>
<!DOCTYPE svg PUBLIC "-//W3C//DTD SVG 1.1//EN"
 "http://www.w3.org/Graphics/SVG/1.1/DTD/svg11.dtd">
<!-- Generated by graphviz version 2.43.0 (0)
 -->
<!-- Title: /home/runner/work/occ/occ/include/occ/isosurface/stockholder_weight.h Pages: 1 -->
<svg width="2441pt" height="390pt"
 viewBox="0.00 0.00 2441.00 390.00" xmlns="http://www.w3.org/2000/svg" xmlns:xlink="http://www.w3.org/1999/xlink">
<g id="graph0" class="graph" transform="scale(1 1) rotate(0) translate(4 386)">
<title>/home/runner/work/occ/occ/include/occ/isosurface/stockholder_weight.h</title>
<!-- Node1 -->
<g id="Node000001" class="node">
<title>Node1</title>
<g id="a_Node000001"><a xlink:title=" ">
<polygon fill="#999999" stroke="#666666" points="1825.5,-382 1678.5,-382 1678.5,-341 1825.5,-341 1825.5,-382"/>
<text text-anchor="start" x="1686.5" y="-370" font-family="Helvetica,sans-Serif" font-size="10.00">/home/runner/work/occ</text>
<text text-anchor="start" x="1686.5" y="-359" font-family="Helvetica,sans-Serif" font-size="10.00">/occ/include/occ/isosurface</text>
<text text-anchor="middle" x="1752" y="-348" font-family="Helvetica,sans-Serif" font-size="10.00">/stockholder_weight.h</text>
</a>
</g>
</g>
<!-- Node2 -->
<g id="Node000002" class="node">
<title>Node2</title>
<g id="a_Node000002"><a xlink:title=" ">
<polygon fill="#e0e0e0" stroke="#999999" points="1725.5,-195 1582.5,-195 1582.5,-176 1725.5,-176 1725.5,-195"/>
<text text-anchor="middle" x="1654" y="-183" font-family="Helvetica,sans-Serif" font-size="10.00">ankerl/unordered_dense.h</text>
</a>
</g>
</g>
<!-- Node1&#45;&gt;Node2 -->
<g id="edge1_Node000001_Node000002" class="edge">
<title>Node1&#45;&gt;Node2</title>
<g id="a_edge1_Node000001_Node000002"><a xlink:title=" ">
<path fill="none" stroke="#63b8ff" d="M1740.95,-340.88C1721.71,-306.73 1682.38,-236.89 1663.95,-204.16"/>
<polygon fill="#63b8ff" stroke="#63b8ff" points="1666.9,-202.27 1658.94,-195.27 1660.8,-205.7 1666.9,-202.27"/>
</a>
</g>
</g>
<!-- Node3 -->
<g id="Node000003" class="node">
<title>Node3</title>
<g id="a_Node000003"><a xlink:href="molecule_8h.html" target="_top" xlink:title=" ">
<polygon fill="white" stroke="#666666" points="1858,-195 1744,-195 1744,-176 1858,-176 1858,-195"/>
<text text-anchor="middle" x="1801" y="-183" font-family="Helvetica,sans-Serif" font-size="10.00">occ/core/molecule.h</text>
</a>
</g>
</g>
<!-- Node1&#45;&gt;Node3 -->
<g id="edge2_Node000001_Node000003" class="edge">
<title>Node1&#45;&gt;Node3</title>
<g id="a_edge2_Node000001_Node000003"><a xlink:title=" ">
<path fill="none" stroke="#63b8ff" d="M1752.47,-340.98C1753.65,-315.05 1757.77,-268.18 1772,-231 1775.78,-221.11 1782,-211.14 1787.72,-203.16"/>
<polygon fill="#63b8ff" stroke="#63b8ff" points="1790.57,-205.18 1793.79,-195.09 1784.98,-200.97 1790.57,-205.18"/>
</a>
</g>
</g>
<!-- Node15 -->
<g id="Node000015" class="node">
<title>Node15</title>
<g id="a_Node000015"><a xlink:href="parallel_8h.html" target="_top" xlink:title=" ">
<polygon fill="white" stroke="#666666" points="820,-195 714,-195 714,-176 820,-176 820,-195"/>
<text text-anchor="middle" x="767" y="-183" font-family="Helvetica,sans-Serif" font-size="10.00">occ/core/parallel.h</text>
</a>
</g>
</g>
<!-- Node1&#45;&gt;Node15 -->
<g id="edge15_Node000001_Node000015" class="edge">
<title>Node1&#45;&gt;Node15</title>
<g id="a_edge15_Node000001_Node000015"><a xlink:title=" ">
<path fill="none" stroke="#63b8ff" d="M1678.37,-347.49C1490.27,-314.27 994.99,-226.77 825.14,-196.77"/>
<polygon fill="#63b8ff" stroke="#63b8ff" points="825.6,-193.3 815.14,-195 824.38,-200.19 825.6,-193.3"/>
</a>
</g>
</g>
<!-- Node29 -->
<g id="Node000029" class="node">
<title>Node29</title>
<g id="a_Node000029"><a xlink:href="common_8h.html" target="_top" xlink:title=" ">
<polygon fill="white" stroke="#666666" points="2140.5,-195 1999.5,-195 1999.5,-176 2140.5,-176 2140.5,-195"/>
<text text-anchor="middle" x="2070" y="-183" font-family="Helvetica,sans-Serif" font-size="10.00">occ/isosurface/common.h</text>
</a>
</g>
</g>
<!-- Node1&#45;&gt;Node29 -->
<g id="edge31_Node000001_Node000029" class="edge">
<title>Node1&#45;&gt;Node29</title>
<g id="a_edge31_Node000001_Node000029"><a xlink:title=" ">
<path fill="none" stroke="#63b8ff" d="M1825.04,-340.94C1853.64,-331.89 1886.19,-319.83 1914,-305 1969.48,-275.42 2026.19,-226.76 2053.41,-202.01"/>
<polygon fill="#63b8ff" stroke="#63b8ff" points="2055.89,-204.49 2060.88,-195.14 2051.15,-199.33 2055.89,-204.49"/>
</a>
</g>
</g>
<!-- Node37 -->
<g id="Node000037" class="node">
<title>Node37</title>
<g id="a_Node000037"><a xlink:href="slater_2hirshfeld_8h.html" target="_top" xlink:title=" ">
<polygon fill="white" stroke="#666666" points="1904.5,-305 1785.5,-305 1785.5,-286 1904.5,-286 1904.5,-305"/>
<text text-anchor="middle" x="1845" y="-293" font-family="Helvetica,sans-Serif" font-size="10.00">occ/slater/hirshfeld.h</text>
</a>
</g>
</g>
<!-- Node1&#45;&gt;Node37 -->
<g id="edge43_Node000001_Node000037" class="edge">
<title>Node1&#45;&gt;Node37</title>
<g id="a_edge43_Node000001_Node000037"><a xlink:title=" ">
<path fill="none" stroke="#63b8ff" d="M1780.41,-340.95C1794.34,-331.37 1810.83,-320.02 1823.66,-311.19"/>
<polygon fill="#63b8ff" stroke="#63b8ff" points="1826.02,-313.81 1832.27,-305.26 1822.05,-308.05 1826.02,-313.81"/>
</a>
</g>
</g>
<!-- Node4 -->
<g id="Node000004" class="node">
<title>Node4</title>
<g id="a_Node000004"><a xlink:title=" ">
<polygon fill="#e0e0e0" stroke="#999999" points="1529,-134.5 1423,-134.5 1423,-115.5 1529,-115.5 1529,-134.5"/>
<text text-anchor="middle" x="1476" y="-122.5" font-family="Helvetica,sans-Serif" font-size="10.00">Eigen/Eigenvalues</text>
</a>
</g>
</g>
<!-- Node3&#45;&gt;Node4 -->
<g id="edge3_Node000003_Node000004" class="edge">
<title>Node3&#45;&gt;Node4</title>
<g id="a_edge3_Node000003_Node000004"><a xlink:title=" ">
<path fill="none" stroke="#63b8ff" d="M1745.43,-176C1692.09,-167.62 1609.33,-154.08 1538,-140 1532.92,-139 1527.62,-137.89 1522.35,-136.76"/>
<polygon fill="#63b8ff" stroke="#63b8ff" points="1522.84,-133.28 1512.32,-134.55 1521.33,-140.12 1522.84,-133.28"/>
</a>
</g>
</g>
<!-- Node5 -->
<g id="Node000005" class="node">
<title>Node5</title>
<g id="a_Node000005"><a xlink:title=" ">
<polygon fill="#e0e0e0" stroke="#999999" points="1642.5,-134.5 1547.5,-134.5 1547.5,-115.5 1642.5,-115.5 1642.5,-134.5"/>
<text text-anchor="middle" x="1595" y="-122.5" font-family="Helvetica,sans-Serif" font-size="10.00">Eigen/Geometry</text>
</a>
</g>
</g>
<!-- Node3&#45;&gt;Node5 -->
<g id="edge4_Node000003_Node000005" class="edge">
<title>Node3&#45;&gt;Node5</title>
<g id="a_edge4_Node000003_Node000005"><a xlink:title=" ">
<path fill="none" stroke="#63b8ff" d="M1771.05,-175.99C1735.04,-165.77 1674.5,-148.58 1634.65,-137.26"/>
<polygon fill="#63b8ff" stroke="#63b8ff" points="1635.57,-133.88 1624.99,-134.52 1633.65,-140.62 1635.57,-133.88"/>
</a>
</g>
</g>
<!-- Node6 -->
<g id="Node000006" class="node">
<title>Node6</title>
<g id="a_Node000006"><a xlink:title=" ">
<polygon fill="#e0e0e0" stroke="#999999" points="1703,-134.5 1661,-134.5 1661,-115.5 1703,-115.5 1703,-134.5"/>
<text text-anchor="middle" x="1682" y="-122.5" font-family="Helvetica,sans-Serif" font-size="10.00">array</text>
</a>
</g>
</g>
<!-- Node3&#45;&gt;Node6 -->
<g id="edge5_Node000003_Node000006" class="edge">
<title>Node3&#45;&gt;Node6</title>
<g id="a_edge5_Node000003_Node000006"><a xlink:title=" ">
<path fill="none" stroke="#63b8ff" d="M1783.7,-175.99C1763.95,-166.29 1731.45,-150.31 1708.51,-139.03"/>
<polygon fill="#63b8ff" stroke="#63b8ff" points="1709.84,-135.79 1699.32,-134.52 1706.75,-142.07 1709.84,-135.79"/>
</a>
</g>
</g>
<!-- Node7 -->
<g id="Node000007" class="node">
<title>Node7</title>
<g id="a_Node000007"><a xlink:href="atom_8h.html" target="_top" xlink:title=" ">
<polygon fill="white" stroke="#666666" points="2003.5,-134.5 1908.5,-134.5 1908.5,-115.5 2003.5,-115.5 2003.5,-134.5"/>
<text text-anchor="middle" x="1956" y="-122.5" font-family="Helvetica,sans-Serif" font-size="10.00">occ/core/atom.h</text>
</a>
</g>
</g>
<!-- Node3&#45;&gt;Node7 -->
<g id="edge6_Node000003_Node000007" class="edge">
<title>Node3&#45;&gt;Node7</title>
<g id="a_edge6_Node000003_Node000007"><a xlink:title=" ">
<path fill="none" stroke="#63b8ff" d="M1823.54,-175.99C1849.94,-166.03 1893.88,-149.45 1923.85,-138.13"/>
<polygon fill="#63b8ff" stroke="#63b8ff" points="1925.31,-141.32 1933.43,-134.52 1922.84,-134.77 1925.31,-141.32"/>
</a>
</g>
</g>
<!-- Node11 -->
<g id="Node000011" class="node">
<title>Node11</title>
<g id="a_Node000011"><a xlink:href="element_8h.html" target="_top" xlink:title=" ">
<polygon fill="white" stroke="#666666" points="1831,-134.5 1721,-134.5 1721,-115.5 1831,-115.5 1831,-134.5"/>
<text text-anchor="middle" x="1776" y="-122.5" font-family="Helvetica,sans-Serif" font-size="10.00">occ/core/element.h</text>
</a>
</g>
</g>
<!-- Node3&#45;&gt;Node11 -->
<g id="edge10_Node000003_Node000011" class="edge">
<title>Node3&#45;&gt;Node11</title>
<g id="a_edge10_Node000003_Node000011"><a xlink:title=" ">
<path fill="none" stroke="#63b8ff" d="M1797.31,-175.87C1793.73,-167.49 1788.18,-154.51 1783.65,-143.89"/>
<polygon fill="#63b8ff" stroke="#63b8ff" points="1786.85,-142.49 1779.7,-134.67 1780.42,-145.24 1786.85,-142.49"/>
</a>
</g>
</g>
<!-- Node14 -->
<g id="Node000014" class="node">
<title>Node14</title>
<g id="a_Node000014"><a xlink:title=" ">
<polygon fill="#e0e0e0" stroke="#999999" points="1890.5,-134.5 1849.5,-134.5 1849.5,-115.5 1890.5,-115.5 1890.5,-134.5"/>
<text text-anchor="middle" x="1870" y="-122.5" font-family="Helvetica,sans-Serif" font-size="10.00">tuple</text>
</a>
</g>
</g>
<!-- Node3&#45;&gt;Node14 -->
<g id="edge14_Node000003_Node000014" class="edge">
<title>Node3&#45;&gt;Node14</title>
<g id="a_edge14_Node000003_Node000014"><a xlink:title=" ">
<path fill="none" stroke="#63b8ff" d="M1811.18,-175.87C1821.88,-166.8 1838.94,-152.34 1851.93,-141.32"/>
<polygon fill="#63b8ff" stroke="#63b8ff" points="1854.41,-143.8 1859.78,-134.67 1849.89,-138.46 1854.41,-143.8"/>
</a>
</g>
</g>
<!-- Node8 -->
<g id="Node000008" class="node">
<title>Node8</title>
<g id="a_Node000008"><a xlink:href="linear__algebra_8h.html" target="_top" xlink:title=" ">
<polygon fill="white" stroke="#666666" points="2025.5,-74 1886.5,-74 1886.5,-55 2025.5,-55 2025.5,-74"/>
<text text-anchor="middle" x="1956" y="-62" font-family="Helvetica,sans-Serif" font-size="10.00">occ/core/linear_algebra.h</text>
</a>
</g>
</g>
<!-- Node7&#45;&gt;Node8 -->
<g id="edge7_Node000007_Node000008" class="edge">
<title>Node7&#45;&gt;Node8</title>
<g id="a_edge7_Node000007_Node000008"><a xlink:title=" ">
<path fill="none" stroke="#63b8ff" d="M1956,-115.37C1956,-107.25 1956,-94.81 1956,-84.39"/>
<polygon fill="#63b8ff" stroke="#63b8ff" points="1959.5,-84.17 1956,-74.17 1952.5,-84.17 1959.5,-84.17"/>
</a>
</g>
</g>
<!-- Node9 -->
<g id="Node000009" class="node">
<title>Node9</title>
<g id="a_Node000009"><a xlink:title=" ">
<polygon fill="#e0e0e0" stroke="#999999" points="1940.5,-19 1871.5,-19 1871.5,0 1940.5,0 1940.5,-19"/>
<text text-anchor="middle" x="1906" y="-7" font-family="Helvetica,sans-Serif" font-size="10.00">Eigen/Core</text>
</a>
</g>
</g>
<!-- Node8&#45;&gt;Node9 -->
<g id="edge8_Node000008_Node000009" class="edge">
<title>Node8&#45;&gt;Node9</title>
<g id="a_edge8_Node000008_Node000009"><a xlink:title=" ">
<path fill="none" stroke="#63b8ff" d="M1947.74,-54.75C1940.54,-47.11 1929.89,-35.82 1921.15,-26.56"/>
<polygon fill="#63b8ff" stroke="#63b8ff" points="1923.51,-23.96 1914.1,-19.09 1918.42,-28.76 1923.51,-23.96"/>
</a>
</g>
</g>
<!-- Node10 -->
<g id="Node000010" class="node">
<title>Node10</title>
<g id="a_Node000010"><a xlink:title=" ">
<polygon fill="#e0e0e0" stroke="#999999" points="2051.5,-19 1958.5,-19 1958.5,0 2051.5,0 2051.5,-19"/>
<text text-anchor="middle" x="2005" y="-7" font-family="Helvetica,sans-Serif" font-size="10.00">Eigen/StdVector</text>
</a>
</g>
</g>
<!-- Node8&#45;&gt;Node10 -->
<g id="edge9_Node000008_Node000010" class="edge">
<title>Node8&#45;&gt;Node10</title>
<g id="a_edge9_Node000008_Node000010"><a xlink:title=" ">
<path fill="none" stroke="#63b8ff" d="M1964.09,-54.75C1971.16,-47.11 1981.59,-35.82 1990.15,-26.56"/>
<polygon fill="#63b8ff" stroke="#63b8ff" points="1992.84,-28.81 1997.06,-19.09 1987.7,-24.06 1992.84,-28.81"/>
</a>
</g>
</g>
<!-- Node11&#45;&gt;Node8 -->
<g id="edge13_Node000011_Node000008" class="edge">
<title>Node11&#45;&gt;Node8</title>
<g id="a_edge13_Node000011_Node000008"><a xlink:title=" ">
<path fill="none" stroke="#63b8ff" d="M1802.17,-115.49C1833.23,-105.4 1885.19,-88.51 1920.02,-77.19"/>
<polygon fill="#63b8ff" stroke="#63b8ff" points="1921.37,-80.44 1929.79,-74.02 1919.2,-73.78 1921.37,-80.44"/>
</a>
</g>
</g>
<!-- Node12 -->
<g id="Node000012" class="node">
<title>Node12</title>
<g id="a_Node000012"><a xlink:title=" ">
<polygon fill="#e0e0e0" stroke="#999999" points="975,-74 931,-74 931,-55 975,-55 975,-74"/>
<text text-anchor="middle" x="953" y="-62" font-family="Helvetica,sans-Serif" font-size="10.00">string</text>
</a>
</g>
</g>
<!-- Node11&#45;&gt;Node12 -->
<g id="edge11_Node000011_Node000012" class="edge">
<title>Node11&#45;&gt;Node12</title>
<g id="a_edge11_Node000011_Node000012"><a xlink:title=" ">
<path fill="none" stroke="#63b8ff" d="M1741.63,-115.45C1732.09,-113.35 1721.69,-111.34 1712,-110 1432.58,-71.49 1090.8,-66.26 985.45,-65.59"/>
<polygon fill="#63b8ff" stroke="#63b8ff" points="985.19,-62.09 975.17,-65.53 985.15,-69.09 985.19,-62.09"/>
</a>
</g>
</g>
<!-- Node13 -->
<g id="Node000013" class="node">
<title>Node13</title>
<g id="a_Node000013"><a xlink:title=" ">
<polygon fill="#e0e0e0" stroke="#999999" points="1799.5,-74 1752.5,-74 1752.5,-55 1799.5,-55 1799.5,-74"/>
<text text-anchor="middle" x="1776" y="-62" font-family="Helvetica,sans-Serif" font-size="10.00">vector</text>
</a>
</g>
</g>
<!-- Node11&#45;&gt;Node13 -->
<g id="edge12_Node000011_Node000013" class="edge">
<title>Node11&#45;&gt;Node13</title>
<g id="a_edge12_Node000011_Node000013"><a xlink:title=" ">
<path fill="none" stroke="#63b8ff" d="M1776,-115.37C1776,-107.25 1776,-94.81 1776,-84.39"/>
<polygon fill="#63b8ff" stroke="#63b8ff" points="1779.5,-84.17 1776,-74.17 1772.5,-84.17 1779.5,-84.17"/>
</a>
</g>
</g>
<!-- Node15&#45;&gt;Node13 -->
<g id="edge23_Node000015_Node000013" class="edge">
<title>Node15&#45;&gt;Node13</title>
<g id="a_edge23_Node000015_Node000013"><a xlink:title=" ">
<path fill="none" stroke="#63b8ff" d="M820.17,-184.58C949.13,-184.16 1275.33,-179.12 1376,-140 1396.06,-132.21 1394.14,-118.29 1414,-110 1472.88,-85.43 1663.38,-71.97 1741.8,-67.35"/>
<polygon fill="#63b8ff" stroke="#63b8ff" points="1742.31,-70.83 1752.09,-66.76 1741.91,-63.84 1742.31,-70.83"/>
</a>
</g>
</g>
<!-- Node16 -->
<g id="Node000016" class="node">
<title>Node16</title>
<g id="a_Node000016"><a xlink:title=" ">
<polygon fill="#e0e0e0" stroke="#999999" points="1367,-134.5 1303,-134.5 1303,-115.5 1367,-115.5 1367,-134.5"/>
<text text-anchor="middle" x="1335" y="-122.5" font-family="Helvetica,sans-Serif" font-size="10.00">algorithm</text>
</a>
</g>
</g>
<!-- Node15&#45;&gt;Node16 -->
<g id="edge16_Node000015_Node000016" class="edge">
<title>Node15&#45;&gt;Node16</title>
<g id="a_edge16_Node000015_Node000016"><a xlink:title=" ">
<path fill="none" stroke="#63b8ff" d="M820.23,-184.15C915.86,-182.6 1122.68,-175.07 1293,-140 1296.24,-139.33 1299.57,-138.5 1302.88,-137.56"/>
<polygon fill="#63b8ff" stroke="#63b8ff" points="1304.08,-140.86 1312.6,-134.56 1302.01,-134.17 1304.08,-140.86"/>
</a>
</g>
</g>
<!-- Node17 -->
<g id="Node000017" class="node">
<title>Node17</title>
<g id="a_Node000017"><a xlink:title=" ">
<polygon fill="#e0e0e0" stroke="#999999" points="58,-134.5 0,-134.5 0,-115.5 58,-115.5 58,-134.5"/>
<text text-anchor="middle" x="29" y="-122.5" font-family="Helvetica,sans-Serif" font-size="10.00">memory</text>
</a>
</g>
</g>
<!-- Node15&#45;&gt;Node17 -->
<g id="edge17_Node000015_Node000017" class="edge">
<title>Node15&#45;&gt;Node17</title>
<g id="a_edge17_Node000015_Node000017"><a xlink:title=" ">
<path fill="none" stroke="#63b8ff" d="M713.95,-183.11C572.8,-179.1 190.46,-166.09 67,-140 64.16,-139.4 61.25,-138.63 58.37,-137.76"/>
<polygon fill="#63b8ff" stroke="#63b8ff" points="59.39,-134.41 48.8,-134.52 57.15,-141.04 59.39,-134.41"/>
</a>
</g>
</g>
<!-- Node18 -->
<g id="Node000018" class="node">
<title>Node18</title>
<g id="a_Node000018"><a xlink:href="timings_8h.html" target="_top" xlink:title=" ">
<polygon fill="white" stroke="#666666" points="182,-134.5 76,-134.5 76,-115.5 182,-115.5 182,-134.5"/>
<text text-anchor="middle" x="129" y="-122.5" font-family="Helvetica,sans-Serif" font-size="10.00">occ/core/timings.h</text>
</a>
</g>
</g>
<!-- Node15&#45;&gt;Node18 -->
<g id="edge18_Node000015_Node000018" class="edge">
<title>Node15&#45;&gt;Node18</title>
<g id="a_edge18_Node000015_Node000018"><a xlink:title=" ">
<path fill="none" stroke="#63b8ff" d="M713.9,-182.97C612,-179.46 382.17,-168.81 191,-140 185.06,-139.1 178.84,-137.96 172.73,-136.7"/>
<polygon fill="#63b8ff" stroke="#63b8ff" points="173.13,-133.21 162.62,-134.52 171.66,-140.05 173.13,-133.21"/>
</a>
</g>
</g>
<!-- Node20 -->
<g id="Node000020" class="node">
<title>Node20</title>
<g id="a_Node000020"><a xlink:title=" ">
<polygon fill="#e0e0e0" stroke="#999999" points="248,-134.5 200,-134.5 200,-115.5 248,-115.5 248,-134.5"/>
<text text-anchor="middle" x="224" y="-122.5" font-family="Helvetica,sans-Serif" font-size="10.00">thread</text>
</a>
</g>
</g>
<!-- Node15&#45;&gt;Node20 -->
<g id="edge21_Node000015_Node000020" class="edge">
<title>Node15&#45;&gt;Node20</title>
<g id="a_edge21_Node000015_Node000020"><a xlink:title=" ">
<path fill="none" stroke="#63b8ff" d="M713.98,-185.29C620.3,-185.51 420,-180.6 257,-140 255.05,-139.51 253.07,-138.93 251.1,-138.28"/>
<polygon fill="#63b8ff" stroke="#63b8ff" points="252.05,-134.9 241.46,-134.61 249.56,-141.44 252.05,-134.9"/>
</a>
</g>
</g>
<!-- Node21 -->
<g id="Node000021" class="node">
<title>Node21</title>
<g id="a_Node000021"><a xlink:title=" ">
<polygon fill="#e0e0e0" stroke="#999999" points="335.5,-134.5 266.5,-134.5 266.5,-115.5 335.5,-115.5 335.5,-134.5"/>
<text text-anchor="middle" x="301" y="-122.5" font-family="Helvetica,sans-Serif" font-size="10.00">type_traits</text>
</a>
</g>
</g>
<!-- Node15&#45;&gt;Node21 -->
<g id="edge22_Node000015_Node000021" class="edge">
<title>Node15&#45;&gt;Node21</title>
<g id="a_edge22_Node000015_Node000021"><a xlink:title=" ">
<path fill="none" stroke="#63b8ff" d="M713.68,-182.48C632.92,-178.61 475.09,-167.91 344,-140 340.77,-139.31 337.45,-138.48 334.15,-137.55"/>
<polygon fill="#63b8ff" stroke="#63b8ff" points="335,-134.15 324.41,-134.61 332.97,-140.85 335,-134.15"/>
</a>
</g>
</g>
<!-- Node22 -->
<g id="Node000022" class="node">
<title>Node22</title>
<g id="a_Node000022"><a xlink:title=" ">
<polygon fill="#e0e0e0" stroke="#999999" points="468.5,-134.5 353.5,-134.5 353.5,-115.5 468.5,-115.5 468.5,-134.5"/>
<text text-anchor="middle" x="411" y="-122.5" font-family="Helvetica,sans-Serif" font-size="10.00">tbb/blocked_range.h</text>
</a>
</g>
</g>
<!-- Node15&#45;&gt;Node22 -->
<g id="edge24_Node000015_Node000022" class="edge">
<title>Node15&#45;&gt;Node22</title>
<g id="a_edge24_Node000015_Node000022"><a xlink:title=" ">
<path fill="none" stroke="#63b8ff" d="M713.93,-177.28C655.67,-169.14 559.43,-155.05 477,-140 471.24,-138.95 465.22,-137.77 459.25,-136.56"/>
<polygon fill="#63b8ff" stroke="#63b8ff" points="459.82,-133.11 449.32,-134.51 458.4,-139.96 459.82,-133.11"/>
</a>
</g>
</g>
<!-- Node23 -->
<g id="Node000023" class="node">
<title>Node23</title>
<g id="a_Node000023"><a xlink:title=" ">
<polygon fill="#e0e0e0" stroke="#999999" points="613.5,-134.5 486.5,-134.5 486.5,-115.5 613.5,-115.5 613.5,-134.5"/>
<text text-anchor="middle" x="550" y="-122.5" font-family="Helvetica,sans-Serif" font-size="10.00">tbb/blocked_range2d.h</text>
</a>
</g>
</g>
<!-- Node15&#45;&gt;Node23 -->
<g id="edge25_Node000015_Node000023" class="edge">
<title>Node15&#45;&gt;Node23</title>
<g id="a_edge25_Node000015_Node000023"><a xlink:title=" ">
<path fill="none" stroke="#63b8ff" d="M735.45,-175.99C697.44,-165.75 633.48,-148.5 591.5,-137.19"/>
<polygon fill="#63b8ff" stroke="#63b8ff" points="592.16,-133.74 581.59,-134.52 590.34,-140.5 592.16,-133.74"/>
</a>
</g>
</g>
<!-- Node24 -->
<g id="Node000024" class="node">
<title>Node24</title>
<g id="a_Node000024"><a xlink:title=" ">
<polygon fill="#e0e0e0" stroke="#999999" points="762.5,-140 631.5,-140 631.5,-110 762.5,-110 762.5,-140"/>
<text text-anchor="start" x="639.5" y="-128" font-family="Helvetica,sans-Serif" font-size="10.00">tbb/enumerable_thread</text>
<text text-anchor="middle" x="697" y="-117" font-family="Helvetica,sans-Serif" font-size="10.00">_specific.h</text>
</a>
</g>
</g>
<!-- Node15&#45;&gt;Node24 -->
<g id="edge26_Node000015_Node000024" class="edge">
<title>Node15&#45;&gt;Node24</title>
<g id="a_edge26_Node000015_Node000024"><a xlink:title=" ">
<path fill="none" stroke="#63b8ff" d="M756.67,-175.87C747.52,-168.22 733.81,-156.76 721.83,-146.75"/>
<polygon fill="#63b8ff" stroke="#63b8ff" points="723.81,-143.84 713.89,-140.11 719.32,-149.21 723.81,-143.84"/>
</a>
</g>
</g>
<!-- Node25 -->
<g id="Node000025" class="node">
<title>Node25</title>
<g id="a_Node000025"><a xlink:title=" ">
<polygon fill="#e0e0e0" stroke="#999999" points="893.5,-134.5 780.5,-134.5 780.5,-115.5 893.5,-115.5 893.5,-134.5"/>
<text text-anchor="middle" x="837" y="-122.5" font-family="Helvetica,sans-Serif" font-size="10.00">tbb/global_control.h</text>
</a>
</g>
</g>
<!-- Node15&#45;&gt;Node25 -->
<g id="edge27_Node000015_Node000025" class="edge">
<title>Node15&#45;&gt;Node25</title>
<g id="a_edge27_Node000015_Node000025"><a xlink:title=" ">
<path fill="none" stroke="#63b8ff" d="M777.33,-175.87C788.19,-166.8 805.49,-152.34 818.67,-141.32"/>
<polygon fill="#63b8ff" stroke="#63b8ff" points="821.2,-143.77 826.63,-134.67 816.71,-138.39 821.2,-143.77"/>
</a>
</g>
</g>
<!-- Node26 -->
<g id="Node000026" class="node">
<title>Node26</title>
<g id="a_Node000026"><a xlink:title=" ">
<polygon fill="#e0e0e0" stroke="#999999" points="1010.5,-134.5 911.5,-134.5 911.5,-115.5 1010.5,-115.5 1010.5,-134.5"/>
<text text-anchor="middle" x="961" y="-122.5" font-family="Helvetica,sans-Serif" font-size="10.00">tbb/parallel_for.h</text>
</a>
</g>
</g>
<!-- Node15&#45;&gt;Node26 -->
<g id="edge28_Node000015_Node000026" class="edge">
<title>Node15&#45;&gt;Node26</title>
<g id="a_edge28_Node000015_Node000026"><a xlink:title=" ">
<path fill="none" stroke="#63b8ff" d="M795.21,-175.99C828.97,-165.81 885.65,-148.72 923.18,-137.4"/>
<polygon fill="#63b8ff" stroke="#63b8ff" points="924.19,-140.75 932.76,-134.52 922.17,-134.05 924.19,-140.75"/>
</a>
</g>
</g>
<!-- Node27 -->
<g id="Node000027" class="node">
<title>Node27</title>
<g id="a_Node000027"><a xlink:title=" ">
<polygon fill="#e0e0e0" stroke="#999999" points="1147.5,-134.5 1028.5,-134.5 1028.5,-115.5 1147.5,-115.5 1147.5,-134.5"/>
<text text-anchor="middle" x="1088" y="-122.5" font-family="Helvetica,sans-Serif" font-size="10.00">tbb/parallel_invoke.h</text>
</a>
</g>
</g>
<!-- Node15&#45;&gt;Node27 -->
<g id="edge29_Node000015_Node000027" class="edge">
<title>Node15&#45;&gt;Node27</title>
<g id="a_edge29_Node000015_Node000027"><a xlink:title=" ">
<path fill="none" stroke="#63b8ff" d="M817.75,-175.93C868.69,-167.23 949.38,-153.21 1019,-140 1024.77,-138.91 1030.8,-137.73 1036.8,-136.54"/>
<polygon fill="#63b8ff" stroke="#63b8ff" points="1037.69,-139.93 1046.8,-134.54 1036.31,-133.07 1037.69,-139.93"/>
</a>
</g>
</g>
<!-- Node28 -->
<g id="Node000028" class="node">
<title>Node28</title>
<g id="a_Node000028"><a xlink:title=" ">
<polygon fill="#e0e0e0" stroke="#999999" points="1284.5,-134.5 1165.5,-134.5 1165.5,-115.5 1284.5,-115.5 1284.5,-134.5"/>
<text text-anchor="middle" x="1225" y="-122.5" font-family="Helvetica,sans-Serif" font-size="10.00">tbb/parallel_reduce.h</text>
</a>
</g>
</g>
<!-- Node15&#45;&gt;Node28 -->
<g id="edge30_Node000015_Node000028" class="edge">
<title>Node15&#45;&gt;Node28</title>
<g id="a_edge30_Node000015_Node000028"><a xlink:title=" ">
<path fill="none" stroke="#63b8ff" d="M820.05,-179.89C895.11,-173.05 1036.49,-158.92 1156,-140 1162.42,-138.98 1169.14,-137.79 1175.78,-136.53"/>
<polygon fill="#63b8ff" stroke="#63b8ff" points="1176.92,-139.87 1186.06,-134.51 1175.57,-133 1176.92,-139.87"/>
</a>
</g>
</g>
<!-- Node18&#45;&gt;Node12 -->
<g id="edge20_Node000018_Node000012" class="edge">
<title>Node18&#45;&gt;Node12</title>
<g id="a_edge20_Node000018_Node000012"><a xlink:title=" ">
<path fill="none" stroke="#63b8ff" d="M162.28,-115.43C171.52,-113.34 181.6,-111.33 191,-110 471.68,-70.39 815.31,-65.9 920.73,-65.5"/>
<polygon fill="#63b8ff" stroke="#63b8ff" points="920.75,-69 930.74,-65.47 920.73,-62 920.75,-69"/>
</a>
</g>
</g>
<!-- Node19 -->
<g id="Node000019" class="node">
<title>Node19</title>
<g id="a_Node000019"><a xlink:title=" ">
<polygon fill="#e0e0e0" stroke="#999999" points="154,-74 104,-74 104,-55 154,-55 154,-74"/>
<text text-anchor="middle" x="129" y="-62" font-family="Helvetica,sans-Serif" font-size="10.00">chrono</text>
</a>
</g>
</g>
<!-- Node18&#45;&gt;Node19 -->
<g id="edge19_Node000018_Node000019" class="edge">
<title>Node18&#45;&gt;Node19</title>
<g id="a_edge19_Node000018_Node000019"><a xlink:title=" ">
<path fill="none" stroke="#63b8ff" d="M129,-115.37C129,-107.25 129,-94.81 129,-84.39"/>
<polygon fill="#63b8ff" stroke="#63b8ff" points="132.5,-84.17 129,-74.17 125.5,-84.17 132.5,-84.17"/>
</a>
</g>
</g>
<!-- Node29&#45;&gt;Node8 -->
<g id="edge37_Node000029_Node000008" class="edge">
<title>Node29&#45;&gt;Node8</title>
<g id="a_edge37_Node000029_Node000008"><a xlink:title=" ">
<path fill="none" stroke="#63b8ff" d="M2069.35,-175.62C2067.81,-160.46 2062.68,-129.35 2046,-110 2033.13,-95.08 2014.07,-84.65 1996.8,-77.67"/>
<polygon fill="#63b8ff" stroke="#63b8ff" points="1998.04,-74.39 1987.45,-74.14 1995.56,-80.94 1998.04,-74.39"/>
</a>
</g>
</g>
<!-- Node29&#45;&gt;Node13 -->
<g id="edge42_Node000029_Node000013" class="edge">
<title>Node29&#45;&gt;Node13</title>
<g id="a_edge42_Node000029_Node000013"><a xlink:title=" ">
<path fill="none" stroke="#63b8ff" d="M2066.09,-175.93C2058.38,-160.1 2039.63,-126.39 2013,-110 1979.35,-89.29 1866.48,-74.93 1809.5,-68.81"/>
<polygon fill="#63b8ff" stroke="#63b8ff" points="1809.86,-65.33 1799.55,-67.77 1809.13,-72.29 1809.86,-65.33"/>
</a>
</g>
</g>
<!-- Node30 -->
<g id="Node000030" class="node">
<title>Node30</title>
<g id="a_Node000030"><a xlink:href="interpolator_8h.html" target="_top" xlink:title=" ">
<polygon fill="white" stroke="#666666" points="2223.5,-134.5 2098.5,-134.5 2098.5,-115.5 2223.5,-115.5 2223.5,-134.5"/>
<text text-anchor="middle" x="2161" y="-122.5" font-family="Helvetica,sans-Serif" font-size="10.00">occ/core/interpolator.h</text>
</a>
</g>
</g>
<!-- Node29&#45;&gt;Node30 -->
<g id="edge32_Node000029_Node000030" class="edge">
<title>Node29&#45;&gt;Node30</title>
<g id="a_edge32_Node000029_Node000030"><a xlink:title=" ">
<path fill="none" stroke="#63b8ff" d="M2083.43,-175.87C2098.08,-166.45 2121.76,-151.23 2139.1,-140.08"/>
<polygon fill="#63b8ff" stroke="#63b8ff" points="2141,-143.02 2147.52,-134.67 2137.21,-137.13 2141,-143.02"/>
</a>
</g>
</g>
<!-- Node34 -->
<g id="Node000034" class="node">
<title>Node34</title>
<g id="a_Node000034"><a xlink:href="units_8h.html" target="_top" xlink:title=" ">
<polygon fill="white" stroke="#666666" points="2397.5,-134.5 2304.5,-134.5 2304.5,-115.5 2397.5,-115.5 2397.5,-134.5"/>
<text text-anchor="middle" x="2351" y="-122.5" font-family="Helvetica,sans-Serif" font-size="10.00">occ/core/units.h</text>
</a>
</g>
</g>
<!-- Node29&#45;&gt;Node34 -->
<g id="edge38_Node000029_Node000034" class="edge">
<title>Node29&#45;&gt;Node34</title>
<g id="a_edge38_Node000029_Node000034"><a xlink:title=" ">
<path fill="none" stroke="#63b8ff" d="M2117.34,-175.96C2163.18,-167.51 2234.56,-153.86 2296,-140 2300.16,-139.06 2304.49,-138.04 2308.81,-136.99"/>
<polygon fill="#63b8ff" stroke="#63b8ff" points="2309.93,-140.32 2318.79,-134.51 2308.24,-133.52 2309.93,-140.32"/>
</a>
</g>
</g>
<!-- Node36 -->
<g id="Node000036" class="node">
<title>Node36</title>
<g id="a_Node000036"><a xlink:title=" ">
<polygon fill="#e0e0e0" stroke="#999999" points="2286.5,-134.5 2241.5,-134.5 2241.5,-115.5 2286.5,-115.5 2286.5,-134.5"/>
<text text-anchor="middle" x="2264" y="-122.5" font-family="Helvetica,sans-Serif" font-size="10.00">utility</text>
</a>
</g>
</g>
<!-- Node29&#45;&gt;Node36 -->
<g id="edge41_Node000029_Node000036" class="edge">
<title>Node29&#45;&gt;Node36</title>
<g id="a_edge41_Node000029_Node000036"><a xlink:title=" ">
<path fill="none" stroke="#63b8ff" d="M2107.75,-175.99C2141.12,-168.04 2190.91,-155.14 2233,-140 2234.22,-139.56 2235.46,-139.1 2236.7,-138.61"/>
<polygon fill="#63b8ff" stroke="#63b8ff" points="2238.3,-141.73 2246.17,-134.63 2235.59,-135.28 2238.3,-141.73"/>
</a>
</g>
</g>
<!-- Node30&#45;&gt;Node8 -->
<g id="edge35_Node000030_Node000008" class="edge">
<title>Node30&#45;&gt;Node8</title>
<g id="a_edge35_Node000030_Node000008"><a xlink:title=" ">
<path fill="none" stroke="#63b8ff" d="M2131.19,-115.49C2095.44,-105.29 2035.37,-88.15 1995.71,-76.83"/>
<polygon fill="#63b8ff" stroke="#63b8ff" points="1996.42,-73.4 1985.84,-74.02 1994.5,-80.13 1996.42,-73.4"/>
</a>
</g>
</g>
<!-- Node31 -->
<g id="Node000031" class="node">
<title>Node31</title>
<g id="a_Node000031"><a xlink:title=" ">
<polygon fill="#e0e0e0" stroke="#999999" points="2298.5,-74 2251.5,-74 2251.5,-55 2298.5,-55 2298.5,-74"/>
<text text-anchor="middle" x="2275" y="-62" font-family="Helvetica,sans-Serif" font-size="10.00">cmath</text>
</a>
</g>
</g>
<!-- Node30&#45;&gt;Node31 -->
<g id="edge33_Node000030_Node000031" class="edge">
<title>Node30&#45;&gt;Node31</title>
<g id="a_edge33_Node000030_Node000031"><a xlink:title=" ">
<path fill="none" stroke="#63b8ff" d="M2177.82,-115.37C2196.6,-105.73 2227.2,-90.03 2249.05,-78.81"/>
<polygon fill="#63b8ff" stroke="#63b8ff" points="2250.81,-81.85 2258.11,-74.17 2247.61,-75.62 2250.81,-81.85"/>
</a>
</g>
</g>
<!-- Node32 -->
<g id="Node000032" class="node">
<title>Node32</title>
<g id="a_Node000032"><a xlink:title=" ">
<polygon fill="#e0e0e0" stroke="#999999" points="2110.5,-74 2043.5,-74 2043.5,-55 2110.5,-55 2110.5,-74"/>
<text text-anchor="middle" x="2077" y="-62" font-family="Helvetica,sans-Serif" font-size="10.00">fmt/core.h</text>
</a>
</g>
</g>
<!-- Node30&#45;&gt;Node32 -->
<g id="edge34_Node000030_Node000032" class="edge">
<title>Node30&#45;&gt;Node32</title>
<g id="a_edge34_Node000030_Node000032"><a xlink:title=" ">
<path fill="none" stroke="#63b8ff" d="M2148.61,-115.37C2135.21,-106.04 2113.62,-91.01 2097.65,-79.88"/>
<polygon fill="#63b8ff" stroke="#63b8ff" points="2099.65,-77.01 2089.45,-74.17 2095.65,-82.75 2099.65,-77.01"/>
</a>
</g>
</g>
<!-- Node33 -->
<g id="Node000033" class="node">
<title>Node33</title>
<g id="a_Node000033"><a xlink:href="macros_8h.html" target="_top" xlink:title=" ">
<polygon fill="white" stroke="#666666" points="2233.5,-74 2128.5,-74 2128.5,-55 2233.5,-55 2233.5,-74"/>
<text text-anchor="middle" x="2181" y="-62" font-family="Helvetica,sans-Serif" font-size="10.00">occ/core/macros.h</text>
</a>
</g>
</g>
<!-- Node30&#45;&gt;Node33 -->
<g id="edge36_Node000030_Node000033" class="edge">
<title>Node30&#45;&gt;Node33</title>
<g id="a_edge36_Node000030_Node000033"><a xlink:title=" ">
<path fill="none" stroke="#63b8ff" d="M2163.95,-115.37C2166.79,-107.07 2171.16,-94.28 2174.77,-83.72"/>
<polygon fill="#63b8ff" stroke="#63b8ff" points="2178.11,-84.76 2178.04,-74.17 2171.49,-82.5 2178.11,-84.76"/>
</a>
</g>
</g>
<!-- Node34&#45;&gt;Node31 -->
<g id="edge39_Node000034_Node000031" class="edge">
<title>Node34&#45;&gt;Node31</title>
<g id="a_edge39_Node000034_Node000031"><a xlink:title=" ">
<path fill="none" stroke="#63b8ff" d="M2339.79,-115.37C2327.89,-106.21 2308.86,-91.56 2294.49,-80.51"/>
<polygon fill="#63b8ff" stroke="#63b8ff" points="2296.32,-77.49 2286.26,-74.17 2292.05,-83.04 2296.32,-77.49"/>
</a>
</g>
</g>
<!-- Node35 -->
<g id="Node000035" class="node">
<title>Node35</title>
<g id="a_Node000035"><a xlink:href="constants_8h.html" target="_top" xlink:title=" ">
<polygon fill="white" stroke="#666666" points="2433,-74 2317,-74 2317,-55 2433,-55 2433,-74"/>
<text text-anchor="middle" x="2375" y="-62" font-family="Helvetica,sans-Serif" font-size="10.00">occ/core/constants.h</text>
</a>
</g>
</g>
<!-- Node34&#45;&gt;Node35 -->
<g id="edge40_Node000034_Node000035" class="edge">
<title>Node34&#45;&gt;Node35</title>
<g id="a_edge40_Node000034_Node000035"><a xlink:title=" ">
<path fill="none" stroke="#63b8ff" d="M2354.54,-115.37C2357.94,-107.07 2363.19,-94.28 2367.52,-83.72"/>
<polygon fill="#63b8ff" stroke="#63b8ff" points="2370.89,-84.75 2371.44,-74.17 2364.41,-82.09 2370.89,-84.75"/>
</a>
</g>
</g>
<!-- Node38 -->
<g id="Node000038" class="node">
<title>Node38</title>
<g id="a_Node000038"><a xlink:href="promolecule_8h.html" target="_top" xlink:title=" ">
<polygon fill="white" stroke="#666666" points="1917.5,-250 1780.5,-250 1780.5,-231 1917.5,-231 1917.5,-250"/>
<text text-anchor="middle" x="1849" y="-238" font-family="Helvetica,sans-Serif" font-size="10.00">occ/slater/promolecule.h</text>
</a>
</g>
</g>
<!-- Node37&#45;&gt;Node38 -->
<g id="edge44_Node000037_Node000038" class="edge">
<title>Node37&#45;&gt;Node38</title>
<g id="a_edge44_Node000037_Node000038"><a xlink:title=" ">
<path fill="none" stroke="#63b8ff" d="M1845.66,-285.75C1846.18,-278.8 1846.94,-268.85 1847.59,-260.13"/>
<polygon fill="#63b8ff" stroke="#63b8ff" points="1851.09,-260.32 1848.35,-250.09 1844.11,-259.8 1851.09,-260.32"/>
</a>
</g>
</g>
<!-- Node38&#45;&gt;Node2 -->
<g id="edge45_Node000038_Node000002" class="edge">
<title>Node38&#45;&gt;Node2</title>
<g id="a_edge45_Node000038_Node000002"><a xlink:title=" ">
<path fill="none" stroke="#63b8ff" d="M1817.67,-230.98C1784.51,-221.97 1732,-207.7 1695.44,-197.76"/>
<polygon fill="#63b8ff" stroke="#63b8ff" points="1696.14,-194.33 1685.58,-195.08 1694.31,-201.08 1696.14,-194.33"/>
</a>
</g>
</g>
<!-- Node38&#45;&gt;Node3 -->
<g id="edge47_Node000038_Node000003" class="edge">
<title>Node38&#45;&gt;Node3</title>
<g id="a_edge47_Node000038_Node000003"><a xlink:title=" ">
<path fill="none" stroke="#63b8ff" d="M1841.07,-230.75C1834.15,-223.11 1823.93,-211.82 1815.55,-202.56"/>
<polygon fill="#63b8ff" stroke="#63b8ff" points="1818.09,-200.15 1808.78,-195.09 1812.9,-204.85 1818.09,-200.15"/>
</a>
</g>
</g>
<!-- Node38&#45;&gt;Node29 -->
<g id="edge48_Node000038_Node000029" class="edge">
<title>Node38&#45;&gt;Node29</title>
<g id="a_edge48_Node000038_Node000029"><a xlink:title=" ">
<path fill="none" stroke="#63b8ff" d="M1884.51,-230.98C1922.49,-221.87 1982.87,-207.4 2024.36,-197.45"/>
<polygon fill="#63b8ff" stroke="#63b8ff" points="2025.31,-200.82 2034.21,-195.08 2023.67,-194.01 2025.31,-200.82"/>
</a>
</g>
</g>
<!-- Node38&#45;&gt;Node30 -->
<g id="edge46_Node000038_Node000030" class="edge">
<title>Node38&#45;&gt;Node30</title>
<g id="a_edge46_Node000038_Node000030"><a xlink:title=" ">
<path fill="none" stroke="#63b8ff" d="M1866.18,-230.91C1892.57,-217.93 1944.89,-193 1991,-176 2033.16,-160.45 2082.56,-146.37 2117.21,-137.14"/>
<polygon fill="#63b8ff" stroke="#63b8ff" points="2118.24,-140.49 2127.02,-134.55 2116.46,-133.72 2118.24,-140.49"/>
</a>
</g>
</g>
</g>
</svg>
