<?xml version="1.0" encoding="UTF-8" standalone="no"?>
<!DOCTYPE svg PUBLIC "-//W3C//DTD SVG 1.1//EN"
 "http://www.w3.org/Graphics/SVG/1.1/DTD/svg11.dtd">
<!-- Generated by graphviz version 2.43.0 (0)
 -->
<!-- Title: occ::isosurface::pointwise::DeformationDensityFunctor Pages: 1 -->
<svg width="1044pt" height="114pt"
 viewBox="0.00 0.00 1044.00 113.50" xmlns="http://www.w3.org/2000/svg" xmlns:xlink="http://www.w3.org/1999/xlink">
<g id="graph0" class="graph" transform="scale(1 1) rotate(0) translate(4 109.5)">
<title>occ::isosurface::pointwise::DeformationDensityFunctor</title>
<!-- Node1 -->
<g id="Node000001" class="node">
<title>Node1</title>
<g id="a_Node000001"><a xlink:title=" ">
<polygon fill="#999999" stroke="#666666" points="1036,-81.5 878,-81.5 878,-51.5 1036,-51.5 1036,-81.5"/>
<text text-anchor="start" x="886" y="-69.5" font-family="Helvetica,sans-Serif" font-size="10.00">occ::isosurface::pointwise</text>
<text text-anchor="middle" x="957" y="-58.5" font-family="Helvetica,sans-Serif" font-size="10.00">::DeformationDensityFunctor</text>
</a>
</g>
</g>
<!-- Node2 -->
<g id="Node000002" class="node">
<title>Node2</title>
<g id="a_Node000002"><a xlink:href="structocc_1_1isosurface_1_1pointwise_1_1PromolDensityFunctor.html" target="_top" xlink:title=" ">
<polygon fill="white" stroke="#666666" points="796,-105.5 653,-105.5 653,-75.5 796,-75.5 796,-105.5"/>
<text text-anchor="start" x="661" y="-93.5" font-family="Helvetica,sans-Serif" font-size="10.00">occ::isosurface::pointwise</text>
<text text-anchor="middle" x="724.5" y="-82.5" font-family="Helvetica,sans-Serif" font-size="10.00">::PromolDensityFunctor</text>
</a>
</g>
</g>
<!-- Node2&#45;&gt;Node1 -->
<g id="edge1_Node000001_Node000002" class="edge">
<title>Node2&#45;&gt;Node1</title>
<g id="a_edge1_Node000001_Node000002"><a xlink:title=" ">
<path fill="none" stroke="#9a32cd" stroke-dasharray="5,2" d="M806.37,-82.08C829.54,-79.67 854.76,-77.04 877.78,-74.64"/>
<polygon fill="#9a32cd" stroke="#9a32cd" points="805.81,-78.62 796.22,-83.14 806.53,-85.58 805.81,-78.62"/>
</a>
</g>
<text text-anchor="middle" x="837" y="-83.5" font-family="Helvetica,sans-Serif" font-size="10.00" fill="grey"> pro_func</text>
</g>
<!-- Node3 -->
<g id="Node000003" class="node">
<title>Node3</title>
<g id="a_Node000003"><a xlink:href="classocc_1_1slater_1_1PromoleculeDensity.html" target="_top" xlink:title=" ">
<polygon fill="white" stroke="#666666" points="579,-105.5 445,-105.5 445,-75.5 579,-75.5 579,-105.5"/>
<text text-anchor="start" x="453" y="-93.5" font-family="Helvetica,sans-Serif" font-size="10.00">occ::slater::Promolecule</text>
<text text-anchor="middle" x="512" y="-82.5" font-family="Helvetica,sans-Serif" font-size="10.00">Density</text>
</a>
</g>
</g>
<!-- Node3&#45;&gt;Node2 -->
<g id="edge2_Node000002_Node000003" class="edge">
<title>Node3&#45;&gt;Node2</title>
<g id="a_edge2_Node000002_Node000003"><a xlink:title=" ">
<path fill="none" stroke="#9a32cd" stroke-dasharray="5,2" d="M589.11,-90.5C609.95,-90.5 632.45,-90.5 652.97,-90.5"/>
<polygon fill="#9a32cd" stroke="#9a32cd" points="589.03,-87 579.03,-90.5 589.03,-94 589.03,-87"/>
</a>
</g>
<text text-anchor="middle" x="616" y="-93.5" font-family="Helvetica,sans-Serif" font-size="10.00" fill="grey"> promol</text>
</g>
<!-- Node4 -->
<g id="Node000004" class="node">
<title>Node4</title>
<g id="a_Node000004"><a xlink:href="structocc_1_1isosurface_1_1pointwise_1_1ElectronDensityFunctor.html" target="_top" xlink:title=" ">
<polygon fill="white" stroke="#666666" points="796,-57.5 653,-57.5 653,-27.5 796,-27.5 796,-57.5"/>
<text text-anchor="start" x="661" y="-45.5" font-family="Helvetica,sans-Serif" font-size="10.00">occ::isosurface::pointwise</text>
<text text-anchor="middle" x="724.5" y="-34.5" font-family="Helvetica,sans-Serif" font-size="10.00">::ElectronDensityFunctor</text>
</a>
</g>
</g>
<!-- Node4&#45;&gt;Node1 -->
<g id="edge3_Node000001_Node000004" class="edge">
<title>Node4&#45;&gt;Node1</title>
<g id="a_edge3_Node000001_Node000004"><a xlink:title=" ">
<path fill="none" stroke="#9a32cd" stroke-dasharray="5,2" d="M806.37,-50.92C829.54,-53.33 854.76,-55.96 877.78,-58.36"/>
<polygon fill="#9a32cd" stroke="#9a32cd" points="806.53,-47.42 796.22,-49.86 805.81,-54.38 806.53,-47.42"/>
</a>
</g>
<text text-anchor="middle" x="837" y="-58.5" font-family="Helvetica,sans-Serif" font-size="10.00" fill="grey"> rho_func</text>
</g>
<!-- Node5 -->
<g id="Node000005" class="node">
<title>Node5</title>
<g id="a_Node000005"><a xlink:href="structocc_1_1qm_1_1Wavefunction.html" target="_top" xlink:title=" ">
<polygon fill="white" stroke="#666666" points="576,-56 448,-56 448,-37 576,-37 576,-56"/>
<text text-anchor="middle" x="512" y="-44" font-family="Helvetica,sans-Serif" font-size="10.00">occ::qm::Wavefunction</text>
</a>
</g>
</g>
<!-- Node5&#45;&gt;Node4 -->
<g id="edge4_Node000004_Node000005" class="edge">
<title>Node5&#45;&gt;Node4</title>
<g id="a_edge4_Node000004_Node000005"><a xlink:title=" ">
<path fill="none" stroke="#9a32cd" stroke-dasharray="5,2" d="M586.22,-45.11C607.76,-44.7 631.27,-44.25 652.65,-43.85"/>
<polygon fill="#9a32cd" stroke="#9a32cd" points="586.09,-41.61 576.16,-45.3 586.22,-48.61 586.09,-41.61"/>
</a>
</g>
<text text-anchor="middle" x="616" y="-47.5" font-family="Helvetica,sans-Serif" font-size="10.00" fill="grey"> wfn</text>
</g>
<!-- Node6 -->
<g id="Node000006" class="node">
<title>Node6</title>
<g id="a_Node000006"><a xlink:href="classocc_1_1gto_1_1AOBasis.html" target="_top" xlink:title=" ">
<polygon fill="white" stroke="#666666" points="349,-93 248,-93 248,-74 349,-74 349,-93"/>
<text text-anchor="middle" x="298.5" y="-81" font-family="Helvetica,sans-Serif" font-size="10.00">occ::gto::AOBasis</text>
</a>
</g>
</g>
<!-- Node6&#45;&gt;Node5 -->
<g id="edge5_Node000005_Node000006" class="edge">
<title>Node6&#45;&gt;Node5</title>
<g id="a_edge5_Node000005_Node000006"><a xlink:title=" ">
<path fill="none" stroke="#9a32cd" stroke-dasharray="5,2" d="M359.1,-73.29C380.51,-69.6 404.84,-65.39 427,-61.5 436.92,-59.76 447.5,-57.88 457.68,-56.07"/>
<polygon fill="#9a32cd" stroke="#9a32cd" points="358.42,-69.86 349.16,-75 359.61,-76.75 358.42,-69.86"/>
</a>
</g>
<text text-anchor="middle" x="408.5" y="-70.5" font-family="Helvetica,sans-Serif" font-size="10.00" fill="grey"> basis</text>
</g>
<!-- Node7 -->
<g id="Node000007" class="node">
<title>Node7</title>
<g id="a_Node000007"><a xlink:href="structocc_1_1qm_1_1MolecularOrbitals.html" target="_top" xlink:title=" ">
<polygon fill="white" stroke="#666666" points="372,-56 225,-56 225,-37 372,-37 372,-56"/>
<text text-anchor="middle" x="298.5" y="-44" font-family="Helvetica,sans-Serif" font-size="10.00">occ::qm::MolecularOrbitals</text>
</a>
</g>
</g>
<!-- Node7&#45;&gt;Node5 -->
<g id="edge6_Node000005_Node000007" class="edge">
<title>Node7&#45;&gt;Node5</title>
<g id="a_edge6_Node000005_Node000007"><a xlink:title=" ">
<path fill="none" stroke="#9a32cd" stroke-dasharray="5,2" d="M382.52,-46.5C404.29,-46.5 427.42,-46.5 447.96,-46.5"/>
<polygon fill="#9a32cd" stroke="#9a32cd" points="382.29,-43 372.29,-46.5 382.29,-50 382.29,-43"/>
</a>
</g>
<text text-anchor="middle" x="408.5" y="-49.5" font-family="Helvetica,sans-Serif" font-size="10.00" fill="grey"> mo</text>
</g>
<!-- Node8 -->
<g id="Node000008" class="node">
<title>Node8</title>
<g id="a_Node000008"><a xlink:title=" ">
<polygon fill="white" stroke="#666666" points="115.5,-74 24.5,-74 24.5,-55 115.5,-55 115.5,-74"/>
<text text-anchor="middle" x="70" y="-62" font-family="Helvetica,sans-Serif" font-size="10.00">SpinorbitalKind</text>
</a>
</g>
</g>
<!-- Node8&#45;&gt;Node7 -->
<g id="edge7_Node000007_Node000008" class="edge">
<title>Node8&#45;&gt;Node7</title>
<g id="a_edge7_Node000007_Node000008"><a xlink:title=" ">
<path fill="none" stroke="#9a32cd" stroke-dasharray="5,2" d="M125.93,-60.13C155.63,-57.77 192.69,-54.83 224.76,-52.28"/>
<polygon fill="#9a32cd" stroke="#9a32cd" points="125.44,-56.66 115.75,-60.94 125.99,-63.64 125.44,-56.66"/>
</a>
</g>
<text text-anchor="middle" x="182.5" y="-59.5" font-family="Helvetica,sans-Serif" font-size="10.00" fill="grey"> kind</text>
</g>
<!-- Node9 -->
<g id="Node000009" class="node">
<title>Node9</title>
<g id="a_Node000009"><a xlink:href="structocc_1_1qm_1_1OrbitalSmearing.html" target="_top" xlink:title=" ">
<polygon fill="white" stroke="#666666" points="140,-37 0,-37 0,-18 140,-18 140,-37"/>
<text text-anchor="middle" x="70" y="-25" font-family="Helvetica,sans-Serif" font-size="10.00">occ::qm::OrbitalSmearing</text>
</a>
</g>
</g>
<!-- Node9&#45;&gt;Node7 -->
<g id="edge8_Node000007_Node000009" class="edge">
<title>Node9&#45;&gt;Node7</title>
<g id="a_edge8_Node000007_Node000009"><a xlink:title=" ">
<path fill="none" stroke="#9a32cd" stroke-dasharray="5,2" d="M150.38,-33.82C168.96,-35.33 188.68,-36.95 207,-38.5 212.82,-38.99 218.84,-39.51 224.89,-40.03"/>
<polygon fill="#9a32cd" stroke="#9a32cd" points="150.44,-30.31 140.19,-33 149.88,-37.29 150.44,-30.31"/>
</a>
</g>
<text text-anchor="middle" x="182.5" y="-41.5" font-family="Helvetica,sans-Serif" font-size="10.00" fill="grey"> smearing</text>
</g>
<!-- Node10 -->
<g id="Node000010" class="node">
<title>Node10</title>
<g id="a_Node000010"><a xlink:href="structocc_1_1qm_1_1Energy.html" target="_top" xlink:title=" ">
<polygon fill="white" stroke="#666666" points="346,-19 251,-19 251,0 346,0 346,-19"/>
<text text-anchor="middle" x="298.5" y="-7" font-family="Helvetica,sans-Serif" font-size="10.00">occ::qm::Energy</text>
</a>
</g>
</g>
<!-- Node10&#45;&gt;Node5 -->
<g id="edge9_Node000005_Node000010" class="edge">
<title>Node10&#45;&gt;Node5</title>
<g id="a_edge9_Node000005_Node000010"><a xlink:title=" ">
<path fill="none" stroke="#9a32cd" stroke-dasharray="5,2" d="M356.05,-19.18C378.18,-22.99 403.79,-27.42 427,-31.5 436.92,-33.24 447.5,-35.12 457.68,-36.93"/>
<polygon fill="#9a32cd" stroke="#9a32cd" points="356.59,-15.73 346.14,-17.48 355.4,-22.62 356.59,-15.73"/>
</a>
</g>
<text text-anchor="middle" x="408.5" y="-34.5" font-family="Helvetica,sans-Serif" font-size="10.00" fill="grey"> energy</text>
</g>
<!-- Node11 -->
<g id="Node000011" class="node">
<title>Node11</title>
<g id="a_Node000011"><a xlink:title=" ">
<polygon fill="white" stroke="#666666" points="559,-19 465,-19 465,0 559,0 559,-19"/>
<text text-anchor="middle" x="512" y="-7" font-family="Helvetica,sans-Serif" font-size="10.00">SpinComponent</text>
</a>
</g>
</g>
<!-- Node11&#45;&gt;Node4 -->
<g id="edge10_Node000004_Node000011" class="edge">
<title>Node11&#45;&gt;Node4</title>
<g id="a_edge10_Node000004_Node000011"><a xlink:title=" ">
<path fill="none" stroke="#9a32cd" stroke-dasharray="5,2" d="M568.98,-18.19C589.72,-21.42 613.43,-25.11 635,-28.5 640.84,-29.42 646.9,-30.37 652.98,-31.33"/>
<polygon fill="#9a32cd" stroke="#9a32cd" points="569.48,-14.73 559.06,-16.65 568.4,-21.64 569.48,-14.73"/>
</a>
</g>
<text text-anchor="middle" x="616" y="-31.5" font-family="Helvetica,sans-Serif" font-size="10.00" fill="grey"> spin</text>
</g>
</g>
</svg>
