<?xml version="1.0" encoding="UTF-8" standalone="no"?>
<!DOCTYPE svg PUBLIC "-//W3C//DTD SVG 1.1//EN"
 "http://www.w3.org/Graphics/SVG/1.1/DTD/svg11.dtd">
<!-- Generated by graphviz version 2.43.0 (0)
 -->
<!-- Title: occ::main::CGDimer Pages: 1 -->
<svg width="284pt" height="95pt"
 viewBox="0.00 0.00 283.50 95.00" xmlns="http://www.w3.org/2000/svg" xmlns:xlink="http://www.w3.org/1999/xlink">
<g id="graph0" class="graph" transform="scale(1 1) rotate(0) translate(4 91)">
<title>occ::main::CGDimer</title>
<!-- Node1 -->
<g id="node1" class="node">
<title>Node1</title>
<g id="a_node1"><a xlink:title=" ">
<polygon fill="#bfbfbf" stroke="black" points="64,-0.5 64,-19.5 178,-19.5 178,-0.5 64,-0.5"/>
<text text-anchor="middle" x="121" y="-7.5" font-family="Helvetica,sans-Serif" font-size="10.00">occ::main::CGDimer</text>
</a>
</g>
</g>
<!-- Node2 -->
<g id="node2" class="node">
<title>Node2</title>
<g id="a_node2"><a xlink:href="classocc_1_1core_1_1Dimer.html" target="_top" xlink:title="Storage class for relevant information of a dimer (pair) of Molecule objects.">
<polygon fill="none" stroke="black" points="0,-67.5 0,-86.5 96,-86.5 96,-67.5 0,-67.5"/>
<text text-anchor="middle" x="48" y="-74.5" font-family="Helvetica,sans-Serif" font-size="10.00">occ::core::Dimer</text>
</a>
</g>
</g>
<!-- Node2&#45;&gt;Node1 -->
<g id="edge1" class="edge">
<title>Node2&#45;&gt;Node1</title>
<path fill="none" stroke="#9a32cd" stroke-dasharray="5,2" d="M65.57,-60.36C79.92,-47.58 99.67,-29.99 111.31,-19.63"/>
<polygon fill="#9a32cd" stroke="#9a32cd" points="62.99,-57.97 57.85,-67.23 67.64,-63.2 62.99,-57.97"/>
<text text-anchor="middle" x="105" y="-41" font-family="Helvetica,sans-Serif" font-size="10.00"> dimer</text>
</g>
<!-- Node3 -->
<g id="node3" class="node">
<title>Node3</title>
<g id="a_node3"><a xlink:href="structocc_1_1main_1_1DimerSolventTerm.html" target="_top" xlink:title=" ">
<polygon fill="none" stroke="black" points="114.5,-67.5 114.5,-86.5 275.5,-86.5 275.5,-67.5 114.5,-67.5"/>
<text text-anchor="middle" x="195" y="-74.5" font-family="Helvetica,sans-Serif" font-size="10.00">occ::main::DimerSolventTerm</text>
</a>
</g>
</g>
<!-- Node3&#45;&gt;Node1 -->
<g id="edge2" class="edge">
<title>Node3&#45;&gt;Node1</title>
<path fill="none" stroke="#9a32cd" stroke-dasharray="5,2" d="M177.19,-60.36C162.64,-47.58 142.62,-29.99 130.82,-19.63"/>
<polygon fill="#9a32cd" stroke="#9a32cd" points="175.2,-63.26 185.02,-67.23 179.82,-58 175.2,-63.26"/>
<text text-anchor="middle" x="196" y="-41" font-family="Helvetica,sans-Serif" font-size="10.00"> solvent_term</text>
</g>
</g>
</svg>
