<?xml version="1.0" encoding="UTF-8" standalone="no"?>
<!DOCTYPE svg PUBLIC "-//W3C//DTD SVG 1.1//EN"
 "http://www.w3.org/Graphics/SVG/1.1/DTD/svg11.dtd">
<!-- Generated by graphviz version 2.43.0 (0)
 -->
<!-- Title: occ::qm::Wavefunction Pages: 1 -->
<svg width="443pt" height="184pt"
 viewBox="0.00 0.00 443.00 184.00" xmlns="http://www.w3.org/2000/svg" xmlns:xlink="http://www.w3.org/1999/xlink">
<g id="graph0" class="graph" transform="scale(1 1) rotate(0) translate(4 180)">
<title>occ::qm::Wavefunction</title>
<!-- Node1 -->
<g id="node1" class="node">
<title>Node1</title>
<g id="a_node1"><a xlink:title=" ">
<polygon fill="#bfbfbf" stroke="black" points="103.5,-0.5 103.5,-19.5 231.5,-19.5 231.5,-0.5 103.5,-0.5"/>
<text text-anchor="middle" x="167.5" y="-7.5" font-family="Helvetica,sans-Serif" font-size="10.00">occ::qm::Wavefunction</text>
</a>
</g>
</g>
<!-- Node2 -->
<g id="node2" class="node">
<title>Node2</title>
<g id="a_node2"><a xlink:href="structocc_1_1qm_1_1Energy.html" target="_top" xlink:title=" ">
<polygon fill="none" stroke="black" points="0,-67.5 0,-86.5 95,-86.5 95,-67.5 0,-67.5"/>
<text text-anchor="middle" x="47.5" y="-74.5" font-family="Helvetica,sans-Serif" font-size="10.00">occ::qm::Energy</text>
</a>
</g>
</g>
<!-- Node2&#45;&gt;Node1 -->
<g id="edge1" class="edge">
<title>Node2&#45;&gt;Node1</title>
<path fill="none" stroke="#9a32cd" stroke-dasharray="5,2" d="M59.22,-58.63C64.9,-51.36 72.27,-43.37 80.5,-38 93.35,-29.61 108.95,-23.71 123.37,-19.6"/>
<polygon fill="#9a32cd" stroke="#9a32cd" points="56.04,-57.05 53,-67.2 61.71,-61.16 56.04,-57.05"/>
<text text-anchor="middle" x="99" y="-41" font-family="Helvetica,sans-Serif" font-size="10.00"> energy</text>
</g>
<!-- Node3 -->
<g id="node3" class="node">
<title>Node3</title>
<g id="a_node3"><a xlink:href="structocc_1_1qm_1_1MolecularOrbitals.html" target="_top" xlink:title=" ">
<polygon fill="none" stroke="black" points="169,-67.5 169,-86.5 316,-86.5 316,-67.5 169,-67.5"/>
<text text-anchor="middle" x="242.5" y="-74.5" font-family="Helvetica,sans-Serif" font-size="10.00">occ::qm::MolecularOrbitals</text>
</a>
</g>
</g>
<!-- Node3&#45;&gt;Node1 -->
<g id="edge2" class="edge">
<title>Node3&#45;&gt;Node1</title>
<path fill="none" stroke="#9a32cd" stroke-dasharray="5,2" d="M224.45,-60.36C209.71,-47.58 189.41,-29.99 177.45,-19.63"/>
<polygon fill="#9a32cd" stroke="#9a32cd" points="222.54,-63.33 232.39,-67.23 227.12,-58.04 222.54,-63.33"/>
<text text-anchor="middle" x="219" y="-41" font-family="Helvetica,sans-Serif" font-size="10.00"> mo</text>
</g>
<!-- Node4 -->
<g id="node4" class="node">
<title>Node4</title>
<g id="a_node4"><a xlink:title=" ">
<polygon fill="none" stroke="#bfbfbf" points="125,-156.5 125,-175.5 170,-175.5 170,-156.5 125,-156.5"/>
<text text-anchor="middle" x="147.5" y="-163.5" font-family="Helvetica,sans-Serif" font-size="10.00">size_t</text>
</a>
</g>
</g>
<!-- Node4&#45;&gt;Node1 -->
<g id="edge4" class="edge">
<title>Node4&#45;&gt;Node1</title>
<path fill="none" stroke="#9a32cd" stroke-dasharray="5,2" d="M143.01,-146.61C138.88,-126.73 134.28,-94.23 140.5,-67 144.59,-49.11 155.15,-30.29 161.79,-19.66"/>
<polygon fill="#9a32cd" stroke="#9a32cd" points="139.62,-147.5 145.24,-156.48 146.45,-145.96 139.62,-147.5"/>
<text text-anchor="middle" x="150" y="-74.5" font-family="Helvetica,sans-Serif" font-size="10.00"> nbf</text>
</g>
<!-- Node4&#45;&gt;Node3 -->
<g id="edge3" class="edge">
<title>Node4&#45;&gt;Node3</title>
<path fill="none" stroke="#9a32cd" stroke-dasharray="5,2" d="M164.44,-149.48C184.47,-131.14 217.1,-101.26 233.08,-86.62"/>
<polygon fill="#9a32cd" stroke="#9a32cd" points="161.97,-147.01 156.96,-156.34 166.69,-152.17 161.97,-147.01"/>
<text text-anchor="middle" x="233.5" y="-130" font-family="Helvetica,sans-Serif" font-size="10.00"> n_alpha</text>
<text text-anchor="middle" x="233.5" y="-119" font-family="Helvetica,sans-Serif" font-size="10.00">n_ao</text>
<text text-anchor="middle" x="233.5" y="-108" font-family="Helvetica,sans-Serif" font-size="10.00">n_beta</text>
</g>
<!-- Node5 -->
<g id="node5" class="node">
<title>Node5</title>
<g id="a_node5"><a xlink:href="classocc_1_1qm_1_1AOBasis.html" target="_top" xlink:title=" ">
<polygon fill="none" stroke="black" points="334,-67.5 334,-86.5 435,-86.5 435,-67.5 334,-67.5"/>
<text text-anchor="middle" x="384.5" y="-74.5" font-family="Helvetica,sans-Serif" font-size="10.00">occ::qm::AOBasis</text>
</a>
</g>
</g>
<!-- Node5&#45;&gt;Node1 -->
<g id="edge5" class="edge">
<title>Node5&#45;&gt;Node1</title>
<path fill="none" stroke="#9a32cd" stroke-dasharray="5,2" d="M345.87,-64.43C302.9,-51.56 234.5,-31.07 196.09,-19.56"/>
<polygon fill="#9a32cd" stroke="#9a32cd" points="345.1,-67.85 355.68,-67.37 347.11,-61.15 345.1,-67.85"/>
<text text-anchor="middle" x="304" y="-41" font-family="Helvetica,sans-Serif" font-size="10.00"> basis</text>
</g>
</g>
</svg>
