<?xml version="1.0" encoding="UTF-8" standalone="no"?>
<!DOCTYPE svg PUBLIC "-//W3C//DTD SVG 1.1//EN"
 "http://www.w3.org/Graphics/SVG/1.1/DTD/svg11.dtd">
<!-- Generated by graphviz version 2.43.0 (0)
 -->
<!-- Title: occ::qm::SCF&lt; Procedure &gt; Pages: 1 -->
<svg width="1059pt" height="272pt"
 viewBox="0.00 0.00 1059.00 271.50" xmlns="http://www.w3.org/2000/svg" xmlns:xlink="http://www.w3.org/1999/xlink">
<g id="graph0" class="graph" transform="scale(1 1) rotate(0) translate(4 267.5)">
<title>occ::qm::SCF&lt; Procedure &gt;</title>
<!-- Node1 -->
<g id="Node000001" class="node">
<title>Node1</title>
<g id="a_Node000001"><a xlink:title=" ">
<polygon fill="#999999" stroke="#666666" points="1051,-188.5 900,-188.5 900,-169.5 1051,-169.5 1051,-188.5"/>
<text text-anchor="middle" x="975.5" y="-176.5" font-family="Helvetica,sans-Serif" font-size="10.00">occ::qm::SCF&lt; Procedure &gt;</text>
</a>
</g>
</g>
<!-- Node2 -->
<g id="Node000002" class="node">
<title>Node2</title>
<g id="a_Node000002"><a xlink:href="structocc_1_1qm_1_1SCFConvergenceSettings.html" target="_top" xlink:title=" ">
<polygon fill="white" stroke="#666666" points="738,-263.5 555,-263.5 555,-244.5 738,-244.5 738,-263.5"/>
<text text-anchor="middle" x="646.5" y="-251.5" font-family="Helvetica,sans-Serif" font-size="10.00">occ::qm::SCFConvergenceSettings</text>
</a>
</g>
</g>
<!-- Node2&#45;&gt;Node1 -->
<g id="edge1_Node000001_Node000002" class="edge">
<title>Node2&#45;&gt;Node1</title>
<g id="a_edge1_Node000001_Node000002"><a xlink:title=" ">
<path fill="none" stroke="#9a32cd" stroke-dasharray="5,2" d="M748.09,-246.23C790.06,-241.36 838.97,-233.52 882,-221 909.44,-213.02 939.19,-198.32 957.34,-188.6"/>
<polygon fill="#9a32cd" stroke="#9a32cd" points="747.68,-242.76 738.13,-247.35 748.46,-249.71 747.68,-242.76"/>
</a>
</g>
<text text-anchor="middle" x="819" y="-247" font-family="Helvetica,sans-Serif" font-size="10.00" fill="grey"> convergence_settings</text>
</g>
<!-- Node3 -->
<g id="Node000003" class="node">
<title>Node3</title>
<g id="a_Node000003"><a xlink:title=" ">
<polygon fill="white" stroke="#666666" points="679,-226.5 614,-226.5 614,-207.5 679,-207.5 679,-226.5"/>
<text text-anchor="middle" x="646.5" y="-214.5" font-family="Helvetica,sans-Serif" font-size="10.00">Procedure</text>
</a>
</g>
</g>
<!-- Node3&#45;&gt;Node1 -->
<g id="edge2_Node000001_Node000003" class="edge">
<title>Node3&#45;&gt;Node1</title>
<g id="a_edge2_Node000001_Node000003"><a xlink:title=" ">
<path fill="none" stroke="#9a32cd" stroke-dasharray="5,2" d="M689.12,-213.35C736.06,-209.09 814.63,-201.54 882,-193 892.47,-191.67 903.59,-190.12 914.35,-188.53"/>
<polygon fill="#9a32cd" stroke="#9a32cd" points="688.68,-209.88 679.04,-214.26 689.31,-216.85 688.68,-209.88"/>
</a>
</g>
<text text-anchor="middle" x="819" y="-209" font-family="Helvetica,sans-Serif" font-size="10.00" fill="grey"> m_procedure</text>
</g>
<!-- Node4 -->
<g id="Node000004" class="node">
<title>Node4</title>
<g id="a_Node000004"><a xlink:href="structocc_1_1qm_1_1SCFContext.html" target="_top" xlink:title=" ">
<polygon fill="white" stroke="#666666" points="705.5,-131.5 587.5,-131.5 587.5,-112.5 705.5,-112.5 705.5,-131.5"/>
<text text-anchor="middle" x="646.5" y="-119.5" font-family="Helvetica,sans-Serif" font-size="10.00">occ::qm::SCFContext</text>
</a>
</g>
</g>
<!-- Node4&#45;&gt;Node1 -->
<g id="edge3_Node000001_Node000004" class="edge">
<title>Node4&#45;&gt;Node1</title>
<g id="a_edge3_Node000001_Node000004"><a xlink:title=" ">
<path fill="none" stroke="#9a32cd" stroke-dasharray="5,2" d="M715.73,-128.97C762.73,-134.34 826.47,-142.76 882,-154 902.54,-158.16 925.27,-164.28 943.06,-169.43"/>
<polygon fill="#9a32cd" stroke="#9a32cd" points="716,-125.48 705.67,-127.84 715.22,-132.43 716,-125.48"/>
</a>
</g>
<text text-anchor="middle" x="819" y="-157" font-family="Helvetica,sans-Serif" font-size="10.00" fill="grey"> ctx</text>
</g>
<!-- Node5 -->
<g id="Node000005" class="node">
<title>Node5</title>
<g id="a_Node000005"><a xlink:title=" ">
<polygon fill="white" stroke="#666666" points="100,-149.5 55,-149.5 55,-130.5 100,-130.5 100,-149.5"/>
<text text-anchor="middle" x="77.5" y="-137.5" font-family="Helvetica,sans-Serif" font-size="10.00">size_t</text>
</a>
</g>
</g>
<!-- Node5&#45;&gt;Node1 -->
<g id="edge12_Node000001_Node000005" class="edge">
<title>Node5&#45;&gt;Node1</title>
<g id="a_edge12_Node000001_Node000005"><a xlink:title=" ">
<path fill="none" stroke="#9a32cd" stroke-dasharray="5,2" d="M110.36,-143.93C128.66,-146.04 152.09,-148.52 173,-150 440.02,-168.94 758.01,-175.79 899.82,-178.02"/>
<polygon fill="#9a32cd" stroke="#9a32cd" points="110.57,-140.43 100.23,-142.73 109.75,-147.38 110.57,-140.43"/>
</a>
</g>
<text text-anchor="middle" x="488" y="-171" font-family="Helvetica,sans-Serif" font-size="10.00" fill="grey"> last_reset_iteration</text>
</g>
<!-- Node5&#45;&gt;Node4 -->
<g id="edge4_Node000004_Node000005" class="edge">
<title>Node5&#45;&gt;Node4</title>
<g id="a_edge4_Node000004_Node000005"><a xlink:title=" ">
<path fill="none" stroke="#9a32cd" stroke-dasharray="5,2" d="M110.62,-139.09C185.4,-136.95 376.93,-131.39 537,-126 553.3,-125.45 570.97,-124.82 587.22,-124.22"/>
<polygon fill="#9a32cd" stroke="#9a32cd" points="110.35,-135.6 100.45,-139.38 110.55,-142.59 110.35,-135.6"/>
</a>
</g>
<text text-anchor="middle" x="330.5" y="-138" font-family="Helvetica,sans-Serif" font-size="10.00" fill="grey"> nbf</text>
</g>
<!-- Node9 -->
<g id="Node000009" class="node">
<title>Node9</title>
<g id="a_Node000009"><a xlink:href="structocc_1_1qm_1_1MolecularOrbitals.html" target="_top" xlink:title=" ">
<polygon fill="white" stroke="#666666" points="404,-102.5 257,-102.5 257,-83.5 404,-83.5 404,-102.5"/>
<text text-anchor="middle" x="330.5" y="-90.5" font-family="Helvetica,sans-Serif" font-size="10.00">occ::qm::MolecularOrbitals</text>
</a>
</g>
</g>
<!-- Node5&#45;&gt;Node9 -->
<g id="edge9_Node000009_Node000005" class="edge">
<title>Node5&#45;&gt;Node9</title>
<g id="a_edge9_Node000009_Node000005"><a xlink:title=" ">
<path fill="none" stroke="#9a32cd" stroke-dasharray="5,2" d="M100.99,-125.08C119.46,-113.77 146.75,-99.17 173,-93 199.85,-86.69 230.01,-85.39 256.63,-86.11"/>
<polygon fill="#9a32cd" stroke="#9a32cd" points="99.03,-122.18 92.44,-130.47 102.76,-128.1 99.03,-122.18"/>
</a>
</g>
<text text-anchor="middle" x="197.5" y="-118" font-family="Helvetica,sans-Serif" font-size="10.00" fill="grey"> n_alpha</text>
<text text-anchor="middle" x="197.5" y="-107" font-family="Helvetica,sans-Serif" font-size="10.00" fill="grey">n_ao</text>
<text text-anchor="middle" x="197.5" y="-96" font-family="Helvetica,sans-Serif" font-size="10.00" fill="grey">n_beta</text>
</g>
<!-- Node6 -->
<g id="Node000006" class="node">
<title>Node6</title>
<g id="a_Node000006"><a xlink:href="classocc_1_1qm_1_1CanonicalOrthogonalizer.html" target="_top" xlink:title=" ">
<polygon fill="white" stroke="#666666" points="421,-65.5 240,-65.5 240,-46.5 421,-46.5 421,-65.5"/>
<text text-anchor="middle" x="330.5" y="-53.5" font-family="Helvetica,sans-Serif" font-size="10.00">occ::qm::CanonicalOrthogonalizer</text>
</a>
</g>
</g>
<!-- Node6&#45;&gt;Node4 -->
<g id="edge5_Node000004_Node000006" class="edge">
<title>Node6&#45;&gt;Node4</title>
<g id="a_edge5_Node000004_Node000006"><a xlink:title=" ">
<path fill="none" stroke="#9a32cd" stroke-dasharray="5,2" d="M431.4,-60.06C466.1,-64.41 504.45,-72.65 537,-88 546.68,-92.56 545.42,-99.23 555,-104 564.9,-108.92 576.03,-112.5 587.02,-115.1"/>
<polygon fill="#9a32cd" stroke="#9a32cd" points="431.57,-56.55 421.24,-58.88 430.77,-63.51 431.57,-56.55"/>
</a>
</g>
<text text-anchor="middle" x="488" y="-91" font-family="Helvetica,sans-Serif" font-size="10.00" fill="grey"> orthogonalizer</text>
</g>
<!-- Node7 -->
<g id="Node000007" class="node">
<title>Node7</title>
<g id="a_Node000007"><a xlink:href="classocc_1_1core_1_1EnergyComponents.html" target="_top" xlink:title="Storage class for components of energy, separated by the dot character.">
<polygon fill="white" stroke="#666666" points="411,-26.5 250,-26.5 250,-7.5 411,-7.5 411,-26.5"/>
<text text-anchor="middle" x="330.5" y="-14.5" font-family="Helvetica,sans-Serif" font-size="10.00">occ::core::EnergyComponents</text>
</a>
</g>
</g>
<!-- Node7&#45;&gt;Node4 -->
<g id="edge6_Node000004_Node000007" class="edge">
<title>Node7&#45;&gt;Node4</title>
<g id="a_edge6_Node000004_Node000007"><a xlink:title=" ">
<path fill="none" stroke="#9a32cd" stroke-dasharray="5,2" d="M421.36,-9.84C460.93,-11.39 505.49,-20.19 537,-47 557.23,-64.21 535.21,-86.27 555,-104 563.95,-112.02 575.42,-116.88 587.17,-119.75"/>
<polygon fill="#9a32cd" stroke="#9a32cd" points="421.23,-6.33 411.15,-9.59 421.06,-13.33 421.23,-6.33"/>
</a>
</g>
<text text-anchor="middle" x="488" y="-50" font-family="Helvetica,sans-Serif" font-size="10.00" fill="grey"> energy</text>
</g>
<!-- Node8 -->
<g id="Node000008" class="node">
<title>Node8</title>
<g id="a_Node000008"><a xlink:title=" ">
<polygon fill="white" stroke="#666666" points="155,-30 0,-30 0,0 155,0 155,-30"/>
<text text-anchor="start" x="8" y="-18" font-family="Helvetica,sans-Serif" font-size="10.00">ankerl::unordered_dense</text>
<text text-anchor="middle" x="77.5" y="-7" font-family="Helvetica,sans-Serif" font-size="10.00">::map&lt; std::string, double &gt;</text>
</a>
</g>
</g>
<!-- Node8&#45;&gt;Node7 -->
<g id="edge7_Node000007_Node000008" class="edge">
<title>Node8&#45;&gt;Node7</title>
<g id="a_edge7_Node000007_Node000008"><a xlink:title=" ">
<path fill="none" stroke="#63b8ff" d="M165.52,-15.69C192.9,-15.91 222.98,-16.15 249.82,-16.37"/>
<polygon fill="#63b8ff" stroke="#63b8ff" points="165.2,-12.19 155.17,-15.61 165.14,-19.19 165.2,-12.19"/>
</a>
</g>
</g>
<!-- Node9&#45;&gt;Node4 -->
<g id="edge8_Node000004_Node000009" class="edge">
<title>Node9&#45;&gt;Node4</title>
<g id="a_edge8_Node000004_Node000009"><a xlink:title=" ">
<path fill="none" stroke="#9a32cd" stroke-dasharray="5,2" d="M414.32,-100.65C468.83,-105.68 538.85,-112.15 587.47,-116.64"/>
<polygon fill="#9a32cd" stroke="#9a32cd" points="414.61,-97.16 404.33,-99.73 413.96,-104.13 414.61,-97.16"/>
</a>
</g>
<text text-anchor="middle" x="488" y="-114" font-family="Helvetica,sans-Serif" font-size="10.00" fill="grey"> mo</text>
</g>
<!-- Node10 -->
<g id="Node000010" class="node">
<title>Node10</title>
<g id="a_Node000010"><a xlink:href="structocc_1_1qm_1_1OrbitalSmearing.html" target="_top" xlink:title=" ">
<polygon fill="white" stroke="#666666" points="147.5,-67.5 7.5,-67.5 7.5,-48.5 147.5,-48.5 147.5,-67.5"/>
<text text-anchor="middle" x="77.5" y="-55.5" font-family="Helvetica,sans-Serif" font-size="10.00">occ::qm::OrbitalSmearing</text>
</a>
</g>
</g>
<!-- Node10&#45;&gt;Node9 -->
<g id="edge10_Node000009_Node000010" class="edge">
<title>Node10&#45;&gt;Node9</title>
<g id="a_edge10_Node000009_Node000010"><a xlink:title=" ">
<path fill="none" stroke="#9a32cd" stroke-dasharray="5,2" d="M157.76,-49C179.14,-49.11 201.9,-51.64 222,-59 231.78,-62.58 230.63,-69.45 240,-74 248,-77.88 256.79,-80.98 265.63,-83.44"/>
<polygon fill="#9a32cd" stroke="#9a32cd" points="157.68,-45.5 147.72,-49.11 157.76,-52.5 157.68,-45.5"/>
</a>
</g>
<text text-anchor="middle" x="197.5" y="-62" font-family="Helvetica,sans-Serif" font-size="10.00" fill="grey"> smearing</text>
</g>
<!-- Node11 -->
<g id="Node000011" class="node">
<title>Node11</title>
<g id="a_Node000011"><a xlink:href="classocc_1_1qm_1_1ConvergenceAccelerator.html" target="_top" xlink:title="Encapsulates SCF convergence acceleration strategies (CDIIS, EDIIS, ADIIS)">
<polygon fill="white" stroke="#666666" points="736.5,-94.5 556.5,-94.5 556.5,-75.5 736.5,-75.5 736.5,-94.5"/>
<text text-anchor="middle" x="646.5" y="-82.5" font-family="Helvetica,sans-Serif" font-size="10.00">occ::qm::ConvergenceAccelerator</text>
</a>
</g>
</g>
<!-- Node11&#45;&gt;Node1 -->
<g id="edge11_Node000001_Node000011" class="edge">
<title>Node11&#45;&gt;Node1</title>
<g id="a_edge11_Node000001_Node000011"><a xlink:title=" ">
<path fill="none" stroke="#9a32cd" stroke-dasharray="5,2" d="M746.73,-89.89C789.41,-94.39 839.22,-102.91 882,-119 914.25,-131.13 946.88,-155.86 963.41,-169.48"/>
<polygon fill="#9a32cd" stroke="#9a32cd" points="746.9,-86.39 736.61,-88.88 746.21,-93.35 746.9,-86.39"/>
</a>
</g>
<text text-anchor="middle" x="819" y="-122" font-family="Helvetica,sans-Serif" font-size="10.00" fill="grey"> convergence_accelerator</text>
</g>
</g>
</svg>
