<?xml version="1.0" encoding="UTF-8" standalone="no"?>
<!DOCTYPE svg PUBLIC "-//W3C//DTD SVG 1.1//EN"
 "http://www.w3.org/Graphics/SVG/1.1/DTD/svg11.dtd">
<!-- Generated by graphviz version 2.43.0 (0)
 -->
<!-- Title: occ::isosurface::XCDensityFunctor Pages: 1 -->
<svg width="785pt" height="187pt"
 viewBox="0.00 0.00 785.00 187.00" xmlns="http://www.w3.org/2000/svg" xmlns:xlink="http://www.w3.org/1999/xlink">
<g id="graph0" class="graph" transform="scale(1 1) rotate(0) translate(4 183)">
<title>occ::isosurface::XCDensityFunctor</title>
<!-- Node1 -->
<g id="Node000001" class="node">
<title>Node1</title>
<g id="a_Node000001"><a xlink:title=" ">
<polygon fill="#999999" stroke="#666666" points="777,-61.5 631,-61.5 631,-31.5 777,-31.5 777,-61.5"/>
<text text-anchor="start" x="639" y="-49.5" font-family="Helvetica,sans-Serif" font-size="10.00">occ::isosurface::XCDensity</text>
<text text-anchor="middle" x="704" y="-38.5" font-family="Helvetica,sans-Serif" font-size="10.00">Functor</text>
</a>
</g>
</g>
<!-- Node2 -->
<g id="Node000002" class="node">
<title>Node2</title>
<g id="a_Node000002"><a xlink:href="structocc_1_1qm_1_1Wavefunction.html" target="_top" xlink:title=" ">
<polygon fill="white" stroke="#666666" points="573,-93 445,-93 445,-74 573,-74 573,-93"/>
<text text-anchor="middle" x="509" y="-81" font-family="Helvetica,sans-Serif" font-size="10.00">occ::qm::Wavefunction</text>
</a>
</g>
</g>
<!-- Node2&#45;&gt;Node1 -->
<g id="edge1_Node000001_Node000002" class="edge">
<title>Node2&#45;&gt;Node1</title>
<g id="a_edge1_Node000001_Node000002"><a xlink:title=" ">
<path fill="none" stroke="#9a32cd" stroke-dasharray="5,2" d="M569.61,-72.07C588.99,-68.36 610.71,-64.19 630.91,-60.32"/>
<polygon fill="#9a32cd" stroke="#9a32cd" points="568.86,-68.65 559.7,-73.97 570.18,-75.53 568.86,-68.65"/>
</a>
</g>
<text text-anchor="middle" x="602" y="-69.5" font-family="Helvetica,sans-Serif" font-size="10.00" fill="grey"> wfn</text>
</g>
<!-- Node3 -->
<g id="Node000003" class="node">
<title>Node3</title>
<g id="a_Node000003"><a xlink:href="classocc_1_1qm_1_1AOBasis.html" target="_top" xlink:title=" ">
<polygon fill="white" stroke="#666666" points="349,-179 248,-179 248,-160 349,-160 349,-179"/>
<text text-anchor="middle" x="298.5" y="-167" font-family="Helvetica,sans-Serif" font-size="10.00">occ::qm::AOBasis</text>
</a>
</g>
</g>
<!-- Node3&#45;&gt;Node2 -->
<g id="edge2_Node000002_Node000003" class="edge">
<title>Node3&#45;&gt;Node2</title>
<g id="a_edge2_Node000002_Node000003"><a xlink:title=" ">
<path fill="none" stroke="#9a32cd" stroke-dasharray="5,2" d="M359.1,-163.5C381.11,-159.83 405.83,-153.94 427,-144.5 455.94,-131.59 484.23,-106.68 498.47,-93.02"/>
<polygon fill="#9a32cd" stroke="#9a32cd" points="358.55,-160.04 349.21,-165.03 359.62,-166.96 358.55,-160.04"/>
</a>
</g>
<text text-anchor="middle" x="408.5" y="-159.5" font-family="Helvetica,sans-Serif" font-size="10.00" fill="grey"> basis</text>
</g>
<!-- Node4 -->
<g id="Node000004" class="node">
<title>Node4</title>
<g id="a_Node000004"><a xlink:title=" ">
<polygon fill="white" stroke="#666666" points="92.5,-117 47.5,-117 47.5,-98 92.5,-98 92.5,-117"/>
<text text-anchor="middle" x="70" y="-105" font-family="Helvetica,sans-Serif" font-size="10.00">size_t</text>
</a>
</g>
</g>
<!-- Node4&#45;&gt;Node2 -->
<g id="edge3_Node000002_Node000004" class="edge">
<title>Node4&#45;&gt;Node2</title>
<g id="a_edge3_Node000002_Node000004"><a xlink:title=" ">
<path fill="none" stroke="#9a32cd" stroke-dasharray="5,2" d="M102.93,-111.6C119.35,-113.51 139.71,-115.56 158,-116.5 277.66,-122.67 308.23,-114.32 427,-98.5 438.06,-97.03 449.9,-95.06 461.01,-93.04"/>
<polygon fill="#9a32cd" stroke="#9a32cd" points="103.11,-108.1 92.76,-110.38 102.27,-115.05 103.11,-108.1"/>
</a>
</g>
<text text-anchor="middle" x="298.5" y="-121.5" font-family="Helvetica,sans-Serif" font-size="10.00" fill="grey"> nbf</text>
</g>
<!-- Node5 -->
<g id="Node000005" class="node">
<title>Node5</title>
<g id="a_Node000005"><a xlink:href="structocc_1_1qm_1_1MolecularOrbitals.html" target="_top" xlink:title=" ">
<polygon fill="white" stroke="#666666" points="372,-93 225,-93 225,-74 372,-74 372,-93"/>
<text text-anchor="middle" x="298.5" y="-81" font-family="Helvetica,sans-Serif" font-size="10.00">occ::qm::MolecularOrbitals</text>
</a>
</g>
</g>
<!-- Node4&#45;&gt;Node5 -->
<g id="edge5_Node000005_Node000004" class="edge">
<title>Node4&#45;&gt;Node5</title>
<g id="a_edge5_Node000005_Node000004"><a xlink:title=" ">
<path fill="none" stroke="#9a32cd" stroke-dasharray="5,2" d="M102.43,-96.63C118.78,-91.54 139.23,-86.04 158,-83.5 179.6,-80.58 203.25,-79.71 224.85,-79.81"/>
<polygon fill="#9a32cd" stroke="#9a32cd" points="101.28,-93.32 92.83,-99.71 103.42,-99.98 101.28,-93.32"/>
</a>
</g>
<text text-anchor="middle" x="182.5" y="-108.5" font-family="Helvetica,sans-Serif" font-size="10.00" fill="grey"> n_alpha</text>
<text text-anchor="middle" x="182.5" y="-97.5" font-family="Helvetica,sans-Serif" font-size="10.00" fill="grey">n_ao</text>
<text text-anchor="middle" x="182.5" y="-86.5" font-family="Helvetica,sans-Serif" font-size="10.00" fill="grey">n_beta</text>
</g>
<!-- Node5&#45;&gt;Node2 -->
<g id="edge4_Node000002_Node000005" class="edge">
<title>Node5&#45;&gt;Node2</title>
<g id="a_edge4_Node000002_Node000005"><a xlink:title=" ">
<path fill="none" stroke="#9a32cd" stroke-dasharray="5,2" d="M382.27,-83.5C403.16,-83.5 425.26,-83.5 445,-83.5"/>
<polygon fill="#9a32cd" stroke="#9a32cd" points="382.13,-80 372.13,-83.5 382.13,-87 382.13,-80"/>
</a>
</g>
<text text-anchor="middle" x="408.5" y="-86.5" font-family="Helvetica,sans-Serif" font-size="10.00" fill="grey"> mo</text>
</g>
<!-- Node6 -->
<g id="Node000006" class="node">
<title>Node6</title>
<g id="a_Node000006"><a xlink:href="structocc_1_1qm_1_1OrbitalSmearing.html" target="_top" xlink:title=" ">
<polygon fill="white" stroke="#666666" points="140,-58 0,-58 0,-39 140,-39 140,-58"/>
<text text-anchor="middle" x="70" y="-46" font-family="Helvetica,sans-Serif" font-size="10.00">occ::qm::OrbitalSmearing</text>
</a>
</g>
</g>
<!-- Node6&#45;&gt;Node5 -->
<g id="edge6_Node000005_Node000006" class="edge">
<title>Node6&#45;&gt;Node5</title>
<g id="a_edge6_Node000005_Node000006"><a xlink:title=" ">
<path fill="none" stroke="#9a32cd" stroke-dasharray="5,2" d="M149.98,-56.58C168.72,-58.83 188.6,-61.49 207,-64.5 223,-67.12 240.46,-70.62 255.74,-73.92"/>
<polygon fill="#9a32cd" stroke="#9a32cd" points="150.35,-53.09 140.01,-55.4 149.53,-60.05 150.35,-53.09"/>
</a>
</g>
<text text-anchor="middle" x="182.5" y="-67.5" font-family="Helvetica,sans-Serif" font-size="10.00" fill="grey"> smearing</text>
</g>
<!-- Node7 -->
<g id="Node000007" class="node">
<title>Node7</title>
<g id="a_Node000007"><a xlink:href="structocc_1_1qm_1_1Energy.html" target="_top" xlink:title=" ">
<polygon fill="white" stroke="#666666" points="346,-56 251,-56 251,-37 346,-37 346,-56"/>
<text text-anchor="middle" x="298.5" y="-44" font-family="Helvetica,sans-Serif" font-size="10.00">occ::qm::Energy</text>
</a>
</g>
</g>
<!-- Node7&#45;&gt;Node2 -->
<g id="edge7_Node000002_Node000007" class="edge">
<title>Node7&#45;&gt;Node2</title>
<g id="a_edge7_Node000002_Node000007"><a xlink:title=" ">
<path fill="none" stroke="#9a32cd" stroke-dasharray="5,2" d="M356.06,-56.11C378.2,-59.91 403.8,-64.35 427,-68.5 436.71,-70.24 447.08,-72.13 457.03,-73.96"/>
<polygon fill="#9a32cd" stroke="#9a32cd" points="356.6,-52.65 346.15,-54.41 355.42,-59.55 356.6,-52.65"/>
</a>
</g>
<text text-anchor="middle" x="408.5" y="-71.5" font-family="Helvetica,sans-Serif" font-size="10.00" fill="grey"> energy</text>
</g>
<!-- Node8 -->
<g id="Node000008" class="node">
<title>Node8</title>
<g id="a_Node000008"><a xlink:href="classocc_1_1dft_1_1DFT.html" target="_top" xlink:title=" ">
<polygon fill="white" stroke="#666666" points="547.5,-38 470.5,-38 470.5,-19 547.5,-19 547.5,-38"/>
<text text-anchor="middle" x="509" y="-26" font-family="Helvetica,sans-Serif" font-size="10.00">occ::dft::DFT</text>
</a>
</g>
</g>
<!-- Node8&#45;&gt;Node1 -->
<g id="edge8_Node000001_Node000008" class="edge">
<title>Node8&#45;&gt;Node1</title>
<g id="a_edge8_Node000001_Node000008"><a xlink:title=" ">
<path fill="none" stroke="#9a32cd" stroke-dasharray="5,2" d="M558.19,-28.55C575.5,-28.92 595.16,-29.76 613,-31.5 618.83,-32.07 624.86,-32.79 630.9,-33.6"/>
<polygon fill="#9a32cd" stroke="#9a32cd" points="557.8,-25.04 547.75,-28.37 557.69,-32.04 557.8,-25.04"/>
</a>
</g>
<text text-anchor="middle" x="602" y="-34.5" font-family="Helvetica,sans-Serif" font-size="10.00" fill="grey"> ks</text>
</g>
<!-- Node9 -->
<g id="Node000009" class="node">
<title>Node9</title>
<g id="a_Node000009"><a xlink:href="classocc_1_1qm_1_1SCFMethodBase.html" target="_top" xlink:title=" ">
<polygon fill="white" stroke="#666666" points="368.5,-19 228.5,-19 228.5,0 368.5,0 368.5,-19"/>
<text text-anchor="middle" x="298.5" y="-7" font-family="Helvetica,sans-Serif" font-size="10.00">occ::qm::SCFMethodBase</text>
</a>
</g>
</g>
<!-- Node9&#45;&gt;Node8 -->
<g id="edge9_Node000008_Node000009" class="edge">
<title>Node9&#45;&gt;Node8</title>
<g id="a_edge9_Node000008_Node000009"><a xlink:title=" ">
<path fill="none" stroke="#63b8ff" d="M378.72,-16.72C410.15,-19.58 444.81,-22.74 470.33,-25.07"/>
<polygon fill="#63b8ff" stroke="#63b8ff" points="378.91,-13.22 368.64,-15.8 378.28,-20.19 378.91,-13.22"/>
</a>
</g>
</g>
</g>
</svg>
