<?xml version="1.0" encoding="UTF-8" standalone="no"?>
<!DOCTYPE svg PUBLIC "-//W3C//DTD SVG 1.1//EN"
 "http://www.w3.org/Graphics/SVG/1.1/DTD/svg11.dtd">
<!-- Generated by graphviz version 2.43.0 (0)
 -->
<!-- Title: occ::interaction::transform::TransformResult Pages: 1 -->
<svg width="443pt" height="258pt"
 viewBox="0.00 0.00 443.00 258.00" xmlns="http://www.w3.org/2000/svg" xmlns:xlink="http://www.w3.org/1999/xlink">
<g id="graph0" class="graph" transform="scale(1 1) rotate(0) translate(4 254)">
<title>occ::interaction::transform::TransformResult</title>
<!-- Node1 -->
<g id="Node000001" class="node">
<title>Node1</title>
<g id="a_Node000001"><a xlink:title=" ">
<polygon fill="#999999" stroke="#666666" points="246.5,-30 100.5,-30 100.5,0 246.5,0 246.5,-30"/>
<text text-anchor="start" x="108.5" y="-18" font-family="Helvetica,sans-Serif" font-size="10.00">occ::interaction::transform</text>
<text text-anchor="middle" x="173.5" y="-7" font-family="Helvetica,sans-Serif" font-size="10.00">::TransformResult</text>
</a>
</g>
</g>
<!-- Node2 -->
<g id="Node000002" class="node">
<title>Node2</title>
<g id="a_Node000002"><a xlink:href="structocc_1_1qm_1_1Wavefunction.html" target="_top" xlink:title=" ">
<polygon fill="white" stroke="#666666" points="237.5,-96 109.5,-96 109.5,-77 237.5,-77 237.5,-96"/>
<text text-anchor="middle" x="173.5" y="-84" font-family="Helvetica,sans-Serif" font-size="10.00">occ::qm::Wavefunction</text>
</a>
</g>
</g>
<!-- Node2&#45;&gt;Node1 -->
<g id="edge1_Node000001_Node000002" class="edge">
<title>Node2&#45;&gt;Node1</title>
<g id="a_edge1_Node000001_Node000002"><a xlink:title=" ">
<path fill="none" stroke="#9a32cd" stroke-dasharray="5,2" d="M173.5,-66.71C173.5,-55.19 173.5,-40.68 173.5,-30.14"/>
<polygon fill="#9a32cd" stroke="#9a32cd" points="170,-66.98 173.5,-76.98 177,-66.98 170,-66.98"/>
</a>
</g>
<text text-anchor="middle" x="184.5" y="-51" font-family="Helvetica,sans-Serif" font-size="10.00" fill="grey"> wfn</text>
</g>
<!-- Node3 -->
<g id="Node000003" class="node">
<title>Node3</title>
<g id="a_Node000003"><a xlink:href="classocc_1_1qm_1_1AOBasis.html" target="_top" xlink:title=" ">
<polygon fill="white" stroke="#666666" points="101,-162 0,-162 0,-143 101,-143 101,-162"/>
<text text-anchor="middle" x="50.5" y="-150" font-family="Helvetica,sans-Serif" font-size="10.00">occ::qm::AOBasis</text>
</a>
</g>
</g>
<!-- Node3&#45;&gt;Node2 -->
<g id="edge2_Node000002_Node000003" class="edge">
<title>Node3&#45;&gt;Node2</title>
<g id="a_edge2_Node000002_Node000003"><a xlink:title=" ">
<path fill="none" stroke="#9a32cd" stroke-dasharray="5,2" d="M65.93,-135.78C73.91,-128.36 84.13,-119.87 94.5,-114 108.1,-106.31 124.28,-100.39 138.45,-96.12"/>
<polygon fill="#9a32cd" stroke="#9a32cd" points="63.26,-133.49 58.52,-142.97 68.14,-138.52 63.26,-133.49"/>
</a>
</g>
<text text-anchor="middle" x="109" y="-117" font-family="Helvetica,sans-Serif" font-size="10.00" fill="grey"> basis</text>
</g>
<!-- Node4 -->
<g id="Node000004" class="node">
<title>Node4</title>
<g id="a_Node000004"><a xlink:title=" ">
<polygon fill="white" stroke="#666666" points="160,-250 115,-250 115,-231 160,-231 160,-250"/>
<text text-anchor="middle" x="137.5" y="-238" font-family="Helvetica,sans-Serif" font-size="10.00">size_t</text>
</a>
</g>
</g>
<!-- Node4&#45;&gt;Node2 -->
<g id="edge3_Node000002_Node000004" class="edge">
<title>Node4&#45;&gt;Node2</title>
<g id="a_edge3_Node000002_Node000004"><a xlink:title=" ">
<path fill="none" stroke="#9a32cd" stroke-dasharray="5,2" d="M137.28,-220.7C137.5,-200.99 139.15,-169.28 146.5,-143 151.41,-125.46 161.7,-106.74 168.07,-96.14"/>
<polygon fill="#9a32cd" stroke="#9a32cd" points="133.78,-220.79 137.28,-230.79 140.78,-220.79 133.78,-220.79"/>
</a>
</g>
<text text-anchor="middle" x="156" y="-150" font-family="Helvetica,sans-Serif" font-size="10.00" fill="grey"> nbf</text>
</g>
<!-- Node5 -->
<g id="Node000005" class="node">
<title>Node5</title>
<g id="a_Node000005"><a xlink:href="structocc_1_1qm_1_1MolecularOrbitals.html" target="_top" xlink:title=" ">
<polygon fill="white" stroke="#666666" points="322,-162 175,-162 175,-143 322,-143 322,-162"/>
<text text-anchor="middle" x="248.5" y="-150" font-family="Helvetica,sans-Serif" font-size="10.00">occ::qm::MolecularOrbitals</text>
</a>
</g>
</g>
<!-- Node4&#45;&gt;Node5 -->
<g id="edge5_Node000005_Node000004" class="edge">
<title>Node4&#45;&gt;Node5</title>
<g id="a_edge5_Node000005_Node000004"><a xlink:title=" ">
<path fill="none" stroke="#9a32cd" stroke-dasharray="5,2" d="M152.84,-223.66C165.51,-211.03 184.3,-193.32 202.5,-180 211.57,-173.36 222.45,-167.03 231.34,-162.22"/>
<polygon fill="#9a32cd" stroke="#9a32cd" points="150.35,-221.2 145.81,-230.78 155.32,-226.12 150.35,-221.2"/>
</a>
</g>
<text text-anchor="middle" x="223.5" y="-205" font-family="Helvetica,sans-Serif" font-size="10.00" fill="grey"> n_alpha</text>
<text text-anchor="middle" x="223.5" y="-194" font-family="Helvetica,sans-Serif" font-size="10.00" fill="grey">n_ao</text>
<text text-anchor="middle" x="223.5" y="-183" font-family="Helvetica,sans-Serif" font-size="10.00" fill="grey">n_beta</text>
</g>
<!-- Node5&#45;&gt;Node2 -->
<g id="edge4_Node000002_Node000005" class="edge">
<title>Node5&#45;&gt;Node2</title>
<g id="a_edge4_Node000002_Node000005"><a xlink:title=" ">
<path fill="none" stroke="#9a32cd" stroke-dasharray="5,2" d="M230.55,-136.18C215.99,-123.76 195.98,-106.68 183.94,-96.41"/>
<polygon fill="#9a32cd" stroke="#9a32cd" points="228.51,-139.04 238.39,-142.87 233.05,-133.72 228.51,-139.04"/>
</a>
</g>
<text text-anchor="middle" x="225" y="-117" font-family="Helvetica,sans-Serif" font-size="10.00" fill="grey"> mo</text>
</g>
<!-- Node6 -->
<g id="Node000006" class="node">
<title>Node6</title>
<g id="a_Node000006"><a xlink:href="structocc_1_1qm_1_1OrbitalSmearing.html" target="_top" xlink:title=" ">
<polygon fill="white" stroke="#666666" points="318.5,-250 178.5,-250 178.5,-231 318.5,-231 318.5,-250"/>
<text text-anchor="middle" x="248.5" y="-238" font-family="Helvetica,sans-Serif" font-size="10.00">occ::qm::OrbitalSmearing</text>
</a>
</g>
</g>
<!-- Node6&#45;&gt;Node5 -->
<g id="edge6_Node000005_Node000006" class="edge">
<title>Node6&#45;&gt;Node5</title>
<g id="a_edge6_Node000005_Node000006"><a xlink:title=" ">
<path fill="none" stroke="#9a32cd" stroke-dasharray="5,2" d="M248.5,-220.91C248.5,-202.67 248.5,-175.65 248.5,-162.03"/>
<polygon fill="#9a32cd" stroke="#9a32cd" points="245,-220.94 248.5,-230.94 252,-220.94 245,-220.94"/>
</a>
</g>
<text text-anchor="middle" x="273" y="-194" font-family="Helvetica,sans-Serif" font-size="10.00" fill="grey"> smearing</text>
</g>
<!-- Node7 -->
<g id="Node000007" class="node">
<title>Node7</title>
<g id="a_Node000007"><a xlink:href="structocc_1_1qm_1_1Energy.html" target="_top" xlink:title=" ">
<polygon fill="white" stroke="#666666" points="435,-162 340,-162 340,-143 435,-143 435,-162"/>
<text text-anchor="middle" x="387.5" y="-150" font-family="Helvetica,sans-Serif" font-size="10.00">occ::qm::Energy</text>
</a>
</g>
</g>
<!-- Node7&#45;&gt;Node2 -->
<g id="edge7_Node000002_Node000007" class="edge">
<title>Node7&#45;&gt;Node2</title>
<g id="a_edge7_Node000002_Node000007"><a xlink:title=" ">
<path fill="none" stroke="#9a32cd" stroke-dasharray="5,2" d="M348.99,-139.98C306.8,-127.37 240.1,-107.42 202.24,-96.1"/>
<polygon fill="#9a32cd" stroke="#9a32cd" points="348.06,-143.36 358.64,-142.87 350.06,-136.65 348.06,-143.36"/>
</a>
</g>
<text text-anchor="middle" x="311" y="-117" font-family="Helvetica,sans-Serif" font-size="10.00" fill="grey"> energy</text>
</g>
</g>
</svg>
