<?xml version="1.0" encoding="UTF-8" standalone="no"?>
<!DOCTYPE svg PUBLIC "-//W3C//DTD SVG 1.1//EN"
 "http://www.w3.org/Graphics/SVG/1.1/DTD/svg11.dtd">
<!-- Generated by graphviz version 2.43.0 (0)
 -->
<!-- Title: occ::scf::SCF&lt; Procedure &gt; Pages: 1 -->
<svg width="726pt" height="283pt"
 viewBox="0.00 0.00 726.00 282.50" xmlns="http://www.w3.org/2000/svg" xmlns:xlink="http://www.w3.org/1999/xlink">
<g id="graph0" class="graph" transform="scale(1 1) rotate(0) translate(4 278.5)">
<title>occ::scf::SCF&lt; Procedure &gt;</title>
<!-- Node1 -->
<g id="node1" class="node">
<title>Node1</title>
<g id="a_node1"><a xlink:title=" ">
<polygon fill="#bfbfbf" stroke="black" points="569,-105 569,-124 718,-124 718,-105 569,-105"/>
<text text-anchor="middle" x="643.5" y="-112" font-family="Helvetica,sans-Serif" font-size="10.00">occ::scf::SCF&lt; Procedure &gt;</text>
</a>
</g>
</g>
<!-- Node2 -->
<g id="node2" class="node">
<title>Node2</title>
<g id="a_node2"><a xlink:href="classocc_1_1qm_1_1CDIIS.html" target="_top" xlink:title=" ">
<polygon fill="none" stroke="black" points="288,-242 288,-261 375,-261 375,-242 288,-242"/>
<text text-anchor="middle" x="331.5" y="-249" font-family="Helvetica,sans-Serif" font-size="10.00">occ::qm::CDIIS</text>
</a>
</g>
</g>
<!-- Node2&#45;&gt;Node1 -->
<g id="edge1" class="edge">
<title>Node2&#45;&gt;Node1</title>
<path fill="none" stroke="#9a32cd" stroke-dasharray="5,2" d="M385.03,-242.49C430.73,-233.24 497.78,-216.23 551,-188.5 584.7,-170.94 617.73,-139.83 633.28,-124.13"/>
<polygon fill="#9a32cd" stroke="#9a32cd" points="384.18,-239.09 375.05,-244.45 385.53,-245.95 384.18,-239.09"/>
<text text-anchor="middle" x="496" y="-231.5" font-family="Helvetica,sans-Serif" font-size="10.00"> diis</text>
</g>
<!-- Node3 -->
<g id="node3" class="node">
<title>Node3</title>
<g id="a_node3"><a xlink:href="classocc_1_1core_1_1diis_1_1DIIS.html" target="_top" xlink:title=" ">
<polygon fill="none" stroke="black" points="23,-255 23,-274 132,-274 132,-255 23,-255"/>
<text text-anchor="middle" x="77.5" y="-262" font-family="Helvetica,sans-Serif" font-size="10.00">occ::core::diis::DIIS</text>
</a>
</g>
</g>
<!-- Node3&#45;&gt;Node2 -->
<g id="edge2" class="edge">
<title>Node3&#45;&gt;Node2</title>
<path fill="none" stroke="midnightblue" d="M142.32,-261.21C187.84,-258.86 247.81,-255.77 287.69,-253.71"/>
<polygon fill="midnightblue" stroke="midnightblue" points="142.06,-257.72 132.25,-261.73 142.42,-264.71 142.06,-257.72"/>
</g>
<!-- Node4 -->
<g id="node4" class="node">
<title>Node4</title>
<g id="a_node4"><a xlink:href="structocc_1_1qm_1_1MolecularOrbitals.html" target="_top" xlink:title=" ">
<polygon fill="none" stroke="black" points="258,-178 258,-197 405,-197 405,-178 258,-178"/>
<text text-anchor="middle" x="331.5" y="-185" font-family="Helvetica,sans-Serif" font-size="10.00">occ::qm::MolecularOrbitals</text>
</a>
</g>
</g>
<!-- Node4&#45;&gt;Node1 -->
<g id="edge3" class="edge">
<title>Node4&#45;&gt;Node1</title>
<path fill="none" stroke="#9a32cd" stroke-dasharray="5,2" d="M415.23,-178.26C456.5,-172.54 506.89,-163.89 551,-151.5 576.41,-144.37 604.36,-132.43 622.6,-124.04"/>
<polygon fill="#9a32cd" stroke="#9a32cd" points="414.66,-174.8 405.22,-179.61 415.6,-181.74 414.66,-174.8"/>
<text text-anchor="middle" x="496" y="-176.5" font-family="Helvetica,sans-Serif" font-size="10.00"> mo</text>
</g>
<!-- Node5 -->
<g id="node5" class="node">
<title>Node5</title>
<g id="a_node5"><a xlink:href="structocc_1_1qm_1_1OrbitalSmearing.html" target="_top" xlink:title=" ">
<polygon fill="none" stroke="black" points="7.5,-217 7.5,-236 147.5,-236 147.5,-217 7.5,-217"/>
<text text-anchor="middle" x="77.5" y="-224" font-family="Helvetica,sans-Serif" font-size="10.00">occ::qm::OrbitalSmearing</text>
</a>
</g>
</g>
<!-- Node5&#45;&gt;Node4 -->
<g id="edge4" class="edge">
<title>Node5&#45;&gt;Node4</title>
<path fill="none" stroke="#9a32cd" stroke-dasharray="5,2" d="M150.94,-215.44C173.69,-211.96 198.89,-208.08 222,-204.5 237.54,-202.09 254.34,-199.47 269.96,-197.02"/>
<polygon fill="#9a32cd" stroke="#9a32cd" points="150.37,-211.99 141.02,-216.96 151.43,-218.91 150.37,-211.99"/>
<text text-anchor="middle" x="197.5" y="-214.5" font-family="Helvetica,sans-Serif" font-size="10.00"> smearing</text>
</g>
<!-- Node6 -->
<g id="node6" class="node">
<title>Node6</title>
<g id="a_node6"><a xlink:title=" ">
<polygon fill="none" stroke="#bfbfbf" points="55,-145 55,-164 100,-164 100,-145 55,-145"/>
<text text-anchor="middle" x="77.5" y="-152" font-family="Helvetica,sans-Serif" font-size="10.00">size_t</text>
</a>
</g>
</g>
<!-- Node6&#45;&gt;Node1 -->
<g id="edge7" class="edge">
<title>Node6&#45;&gt;Node1</title>
<path fill="none" stroke="#9a32cd" stroke-dasharray="5,2" d="M110.53,-152.55C186.83,-147.85 385.36,-135.35 551,-122.5 556.72,-122.06 562.65,-121.58 568.6,-121.09"/>
<polygon fill="#9a32cd" stroke="#9a32cd" points="109.94,-149.08 100.18,-153.18 110.37,-156.06 109.94,-149.08"/>
<text text-anchor="middle" x="331.5" y="-157.5" font-family="Helvetica,sans-Serif" font-size="10.00"> last_reset_iteration</text>
<text text-anchor="middle" x="331.5" y="-146.5" font-family="Helvetica,sans-Serif" font-size="10.00">nbf</text>
</g>
<!-- Node6&#45;&gt;Node4 -->
<g id="edge5" class="edge">
<title>Node6&#45;&gt;Node4</title>
<path fill="none" stroke="#9a32cd" stroke-dasharray="5,2" d="M110.41,-158.02C139.51,-161.29 183.68,-166.41 222,-171.5 236.91,-173.48 252.95,-175.76 268,-177.97"/>
<polygon fill="#9a32cd" stroke="#9a32cd" points="110.73,-154.53 100.4,-156.9 109.95,-161.49 110.73,-154.53"/>
<text text-anchor="middle" x="197.5" y="-196.5" font-family="Helvetica,sans-Serif" font-size="10.00"> n_alpha</text>
<text text-anchor="middle" x="197.5" y="-185.5" font-family="Helvetica,sans-Serif" font-size="10.00">n_ao</text>
<text text-anchor="middle" x="197.5" y="-174.5" font-family="Helvetica,sans-Serif" font-size="10.00">n_beta</text>
</g>
<!-- Node7 -->
<g id="node7" class="node">
<title>Node7</title>
<g id="a_node7"><a xlink:href="structocc_1_1qm_1_1SCFConvergenceSettings.html" target="_top" xlink:title=" ">
<polygon fill="none" stroke="black" points="240,-82 240,-101 423,-101 423,-82 240,-82"/>
<text text-anchor="middle" x="331.5" y="-89" font-family="Helvetica,sans-Serif" font-size="10.00">occ::qm::SCFConvergenceSettings</text>
</a>
</g>
</g>
<!-- Node7&#45;&gt;Node1 -->
<g id="edge6" class="edge">
<title>Node7&#45;&gt;Node1</title>
<path fill="none" stroke="#9a32cd" stroke-dasharray="5,2" d="M433.58,-99C477.65,-102.27 528.36,-106.03 568.78,-109.03"/>
<polygon fill="#9a32cd" stroke="#9a32cd" points="433.65,-95.49 423.42,-98.25 433.13,-102.48 433.65,-95.49"/>
<text text-anchor="middle" x="496" y="-110.5" font-family="Helvetica,sans-Serif" font-size="10.00"> convergence_settings</text>
</g>
<!-- Node8 -->
<g id="node8" class="node">
<title>Node8</title>
<g id="a_node8"><a xlink:href="classocc_1_1qm_1_1EDIIS.html" target="_top" xlink:title=" ">
<polygon fill="none" stroke="black" points="288.5,-44 288.5,-63 374.5,-63 374.5,-44 288.5,-44"/>
<text text-anchor="middle" x="331.5" y="-51" font-family="Helvetica,sans-Serif" font-size="10.00">occ::qm::EDIIS</text>
</a>
</g>
</g>
<!-- Node8&#45;&gt;Node1 -->
<g id="edge8" class="edge">
<title>Node8&#45;&gt;Node1</title>
<path fill="none" stroke="#9a32cd" stroke-dasharray="5,2" d="M384.81,-58.31C429.38,-63.03 494.92,-71.44 551,-84.5 573.79,-89.81 599.02,-98.28 617.21,-104.87"/>
<polygon fill="#9a32cd" stroke="#9a32cd" points="385.1,-54.82 374.79,-57.27 384.38,-61.78 385.1,-54.82"/>
<text text-anchor="middle" x="496" y="-87.5" font-family="Helvetica,sans-Serif" font-size="10.00"> ediis</text>
</g>
<!-- Node9 -->
<g id="node9" class="node">
<title>Node9</title>
<g id="a_node9"><a xlink:href="classocc_1_1core_1_1EnergyComponents.html" target="_top" xlink:title="Storage class for components of energy, separated by the dot character.">
<polygon fill="none" stroke="black" points="251,-6 251,-25 412,-25 412,-6 251,-6"/>
<text text-anchor="middle" x="331.5" y="-13" font-family="Helvetica,sans-Serif" font-size="10.00">occ::core::EnergyComponents</text>
</a>
</g>
</g>
<!-- Node9&#45;&gt;Node1 -->
<g id="edge9" class="edge">
<title>Node9&#45;&gt;Node1</title>
<path fill="none" stroke="#9a32cd" stroke-dasharray="5,2" d="M422.34,-20.09C462.82,-24.5 510.51,-33.04 551,-49.5 584.03,-62.93 616.6,-90.37 632.48,-104.93"/>
<polygon fill="#9a32cd" stroke="#9a32cd" points="422.51,-16.59 412.21,-19.05 421.8,-23.55 422.51,-16.59"/>
<text text-anchor="middle" x="496" y="-52.5" font-family="Helvetica,sans-Serif" font-size="10.00"> energy</text>
</g>
<!-- Node10 -->
<g id="node10" class="node">
<title>Node10</title>
<g id="a_node10"><a xlink:title=" ">
<polygon fill="none" stroke="#bfbfbf" points="0,-0.5 0,-30.5 155,-30.5 155,-0.5 0,-0.5"/>
<text text-anchor="start" x="8" y="-18.5" font-family="Helvetica,sans-Serif" font-size="10.00">ankerl::unordered_dense</text>
<text text-anchor="middle" x="77.5" y="-7.5" font-family="Helvetica,sans-Serif" font-size="10.00">::map&lt; std::string, double &gt;</text>
</a>
</g>
</g>
<!-- Node10&#45;&gt;Node9 -->
<g id="edge10" class="edge">
<title>Node10&#45;&gt;Node9</title>
<path fill="none" stroke="midnightblue" d="M165.22,-15.5C192.96,-15.5 223.52,-15.5 250.74,-15.5"/>
<polygon fill="midnightblue" stroke="midnightblue" points="165.13,-12 155.13,-15.5 165.13,-19 165.13,-12"/>
</g>
</g>
</svg>
