<?xml version="1.0" encoding="UTF-8" standalone="no"?>
<!DOCTYPE svg PUBLIC "-//W3C//DTD SVG 1.1//EN"
 "http://www.w3.org/Graphics/SVG/1.1/DTD/svg11.dtd">
<!-- Generated by graphviz version 2.43.0 (0)
 -->
<!-- Title: occ::isosurface::pointwise::EspFunctor Pages: 1 -->
<svg width="546pt" height="236pt"
 viewBox="0.00 0.00 545.50 236.00" xmlns="http://www.w3.org/2000/svg" xmlns:xlink="http://www.w3.org/1999/xlink">
<g id="graph0" class="graph" transform="scale(1 1) rotate(0) translate(4 232)">
<title>occ::isosurface::pointwise::EspFunctor</title>
<!-- Node1 -->
<g id="Node000001" class="node">
<title>Node1</title>
<g id="a_Node000001"><a xlink:title=" ">
<polygon fill="#999999" stroke="#666666" points="417,-30 274,-30 274,0 417,0 417,-30"/>
<text text-anchor="start" x="282" y="-18" font-family="Helvetica,sans-Serif" font-size="10.00">occ::isosurface::pointwise</text>
<text text-anchor="middle" x="345.5" y="-7" font-family="Helvetica,sans-Serif" font-size="10.00">::EspFunctor</text>
</a>
</g>
</g>
<!-- Node2 -->
<g id="Node000002" class="node">
<title>Node2</title>
<g id="a_Node000002"><a xlink:href="structocc_1_1qm_1_1Wavefunction.html" target="_top" xlink:title=" ">
<polygon fill="white" stroke="#666666" points="339.5,-96 211.5,-96 211.5,-77 339.5,-77 339.5,-96"/>
<text text-anchor="middle" x="275.5" y="-84" font-family="Helvetica,sans-Serif" font-size="10.00">occ::qm::Wavefunction</text>
</a>
</g>
</g>
<!-- Node2&#45;&gt;Node1 -->
<g id="edge1_Node000001_Node000002" class="edge">
<title>Node2&#45;&gt;Node1</title>
<g id="a_edge1_Node000001_Node000002"><a xlink:title=" ">
<path fill="none" stroke="#9a32cd" stroke-dasharray="5,2" d="M291.24,-69.87C303.25,-57.95 319.64,-41.67 331.26,-30.14"/>
<polygon fill="#9a32cd" stroke="#9a32cd" points="288.71,-67.45 284.08,-76.98 293.65,-72.42 288.71,-67.45"/>
</a>
</g>
<text text-anchor="middle" x="324.5" y="-51" font-family="Helvetica,sans-Serif" font-size="10.00" fill="grey"> wfn</text>
</g>
<!-- Node3 -->
<g id="Node000003" class="node">
<title>Node3</title>
<g id="a_Node000003"><a xlink:href="classocc_1_1gto_1_1AOBasis.html" target="_top" xlink:title=" ">
<polygon fill="white" stroke="#666666" points="101,-162 0,-162 0,-143 101,-143 101,-162"/>
<text text-anchor="middle" x="50.5" y="-150" font-family="Helvetica,sans-Serif" font-size="10.00">occ::gto::AOBasis</text>
</a>
</g>
</g>
<!-- Node3&#45;&gt;Node2 -->
<g id="edge2_Node000002_Node000003" class="edge">
<title>Node3&#45;&gt;Node2</title>
<g id="a_edge2_Node000002_Node000003"><a xlink:title=" ">
<path fill="none" stroke="#9a32cd" stroke-dasharray="5,2" d="M90.71,-140.06C135.05,-127.45 205.39,-107.44 245.28,-96.1"/>
<polygon fill="#9a32cd" stroke="#9a32cd" points="89.51,-136.77 80.84,-142.87 91.42,-143.5 89.51,-136.77"/>
</a>
</g>
<text text-anchor="middle" x="191" y="-117" font-family="Helvetica,sans-Serif" font-size="10.00" fill="grey"> basis</text>
</g>
<!-- Node4 -->
<g id="Node000004" class="node">
<title>Node4</title>
<g id="a_Node000004"><a xlink:href="structocc_1_1qm_1_1MolecularOrbitals.html" target="_top" xlink:title=" ">
<polygon fill="white" stroke="#666666" points="266,-162 119,-162 119,-143 266,-143 266,-162"/>
<text text-anchor="middle" x="192.5" y="-150" font-family="Helvetica,sans-Serif" font-size="10.00">occ::qm::MolecularOrbitals</text>
</a>
</g>
</g>
<!-- Node4&#45;&gt;Node2 -->
<g id="edge3_Node000002_Node000004" class="edge">
<title>Node4&#45;&gt;Node2</title>
<g id="a_edge3_Node000002_Node000004"><a xlink:title=" ">
<path fill="none" stroke="#9a32cd" stroke-dasharray="5,2" d="M211.97,-136.49C228.22,-123.96 250.81,-106.54 264.22,-96.2"/>
<polygon fill="#9a32cd" stroke="#9a32cd" points="209.48,-133.99 203.69,-142.87 213.75,-139.53 209.48,-133.99"/>
</a>
</g>
<text text-anchor="middle" x="249" y="-117" font-family="Helvetica,sans-Serif" font-size="10.00" fill="grey"> mo</text>
</g>
<!-- Node5 -->
<g id="Node000005" class="node">
<title>Node5</title>
<g id="a_Node000005"><a xlink:title=" ">
<polygon fill="white" stroke="#666666" points="171,-228 80,-228 80,-209 171,-209 171,-228"/>
<text text-anchor="middle" x="125.5" y="-216" font-family="Helvetica,sans-Serif" font-size="10.00">SpinorbitalKind</text>
</a>
</g>
</g>
<!-- Node5&#45;&gt;Node4 -->
<g id="edge4_Node000004_Node000005" class="edge">
<title>Node5&#45;&gt;Node4</title>
<g id="a_edge4_Node000004_Node000005"><a xlink:title=" ">
<path fill="none" stroke="#9a32cd" stroke-dasharray="5,2" d="M141.9,-201.83C154.88,-189.44 172.52,-172.59 183.18,-162.41"/>
<polygon fill="#9a32cd" stroke="#9a32cd" points="139.35,-199.43 134.54,-208.87 144.18,-204.49 139.35,-199.43"/>
</a>
</g>
<text text-anchor="middle" x="176" y="-183" font-family="Helvetica,sans-Serif" font-size="10.00" fill="grey"> kind</text>
</g>
<!-- Node6 -->
<g id="Node000006" class="node">
<title>Node6</title>
<g id="a_Node000006"><a xlink:href="structocc_1_1qm_1_1OrbitalSmearing.html" target="_top" xlink:title=" ">
<polygon fill="white" stroke="#666666" points="329.5,-228 189.5,-228 189.5,-209 329.5,-209 329.5,-228"/>
<text text-anchor="middle" x="259.5" y="-216" font-family="Helvetica,sans-Serif" font-size="10.00">occ::qm::OrbitalSmearing</text>
</a>
</g>
</g>
<!-- Node6&#45;&gt;Node4 -->
<g id="edge5_Node000004_Node000006" class="edge">
<title>Node6&#45;&gt;Node4</title>
<g id="a_edge5_Node000004_Node000006"><a xlink:title=" ">
<path fill="none" stroke="#9a32cd" stroke-dasharray="5,2" d="M243.1,-201.83C230.12,-189.44 212.48,-172.59 201.82,-162.41"/>
<polygon fill="#9a32cd" stroke="#9a32cd" points="240.82,-204.49 250.46,-208.87 245.65,-199.43 240.82,-204.49"/>
</a>
</g>
<text text-anchor="middle" x="255" y="-183" font-family="Helvetica,sans-Serif" font-size="10.00" fill="grey"> smearing</text>
</g>
<!-- Node7 -->
<g id="Node000007" class="node">
<title>Node7</title>
<g id="a_Node000007"><a xlink:href="structocc_1_1qm_1_1Energy.html" target="_top" xlink:title=" ">
<polygon fill="white" stroke="#666666" points="379,-162 284,-162 284,-143 379,-143 379,-162"/>
<text text-anchor="middle" x="331.5" y="-150" font-family="Helvetica,sans-Serif" font-size="10.00">occ::qm::Energy</text>
</a>
</g>
</g>
<!-- Node7&#45;&gt;Node2 -->
<g id="edge6_Node000002_Node000007" class="edge">
<title>Node7&#45;&gt;Node2</title>
<g id="a_edge6_Node000002_Node000007"><a xlink:title=" ">
<path fill="none" stroke="#9a32cd" stroke-dasharray="5,2" d="M317.17,-135.12C306.39,-122.81 292.03,-106.39 283.29,-96.41"/>
<polygon fill="#9a32cd" stroke="#9a32cd" points="314.73,-137.65 323.95,-142.87 320,-133.04 314.73,-137.65"/>
</a>
</g>
<text text-anchor="middle" x="326" y="-117" font-family="Helvetica,sans-Serif" font-size="10.00" fill="grey"> energy</text>
</g>
<!-- Node8 -->
<g id="Node000008" class="node">
<title>Node8</title>
<g id="a_Node000008"><a xlink:href="classocc_1_1qm_1_1HartreeFock.html" target="_top" xlink:title=" ">
<polygon fill="white" stroke="#666666" points="510.5,-96 390.5,-96 390.5,-77 510.5,-77 510.5,-96"/>
<text text-anchor="middle" x="450.5" y="-84" font-family="Helvetica,sans-Serif" font-size="10.00">occ::qm::HartreeFock</text>
</a>
</g>
</g>
<!-- Node8&#45;&gt;Node1 -->
<g id="edge7_Node000001_Node000008" class="edge">
<title>Node8&#45;&gt;Node1</title>
<g id="a_edge7_Node000001_Node000008"><a xlink:title=" ">
<path fill="none" stroke="#9a32cd" stroke-dasharray="5,2" d="M428.91,-71.21C410.76,-59.19 384.95,-42.11 366.86,-30.14"/>
<polygon fill="#9a32cd" stroke="#9a32cd" points="427.35,-74.38 437.62,-76.98 431.22,-68.54 427.35,-74.38"/>
</a>
</g>
<text text-anchor="middle" x="414" y="-51" font-family="Helvetica,sans-Serif" font-size="10.00" fill="grey"> hf</text>
</g>
<!-- Node9 -->
<g id="Node000009" class="node">
<title>Node9</title>
<g id="a_Node000009"><a xlink:href="classocc_1_1qm_1_1SCFMethodBase.html" target="_top" xlink:title=" ">
<polygon fill="white" stroke="#666666" points="537.5,-162 397.5,-162 397.5,-143 537.5,-143 537.5,-162"/>
<text text-anchor="middle" x="467.5" y="-150" font-family="Helvetica,sans-Serif" font-size="10.00">occ::qm::SCFMethodBase</text>
</a>
</g>
</g>
<!-- Node9&#45;&gt;Node8 -->
<g id="edge8_Node000008_Node000009" class="edge">
<title>Node9&#45;&gt;Node8</title>
<g id="a_edge8_Node000008_Node000009"><a xlink:title=" ">
<path fill="none" stroke="#63b8ff" d="M462.57,-132.95C459.38,-120.93 455.37,-105.82 452.87,-96.41"/>
<polygon fill="#63b8ff" stroke="#63b8ff" points="459.26,-134.1 465.21,-142.87 466.02,-132.31 459.26,-134.1"/>
</a>
</g>
</g>
</g>
</svg>
