<?xml version="1.0" encoding="UTF-8" standalone="no"?>
<!DOCTYPE svg PUBLIC "-//W3C//DTD SVG 1.1//EN"
 "http://www.w3.org/Graphics/SVG/1.1/DTD/svg11.dtd">
<!-- Generated by graphviz version 2.43.0 (0)
 -->
<!-- Title: occ::crystal::DimerIndex Pages: 1 -->
<svg width="143pt" height="173pt"
 viewBox="0.00 0.00 143.00 173.00" xmlns="http://www.w3.org/2000/svg" xmlns:xlink="http://www.w3.org/1999/xlink">
<g id="graph0" class="graph" transform="scale(1 1) rotate(0) translate(4 169)">
<title>occ::crystal::DimerIndex</title>
<!-- Node1 -->
<g id="node1" class="node">
<title>Node1</title>
<g id="a_node1"><a xlink:title=" ">
<polygon fill="#bfbfbf" stroke="black" points="0,-0.5 0,-19.5 135,-19.5 135,-0.5 0,-0.5"/>
<text text-anchor="middle" x="67.5" y="-7.5" font-family="Helvetica,sans-Serif" font-size="10.00">occ::crystal::DimerIndex</text>
</a>
</g>
</g>
<!-- Node2 -->
<g id="node2" class="node">
<title>Node2</title>
<g id="a_node2"><a xlink:href="structocc_1_1crystal_1_1SiteIndex.html" target="_top" xlink:title=" ">
<polygon fill="none" stroke="black" points="5.5,-78.5 5.5,-97.5 129.5,-97.5 129.5,-78.5 5.5,-78.5"/>
<text text-anchor="middle" x="67.5" y="-85.5" font-family="Helvetica,sans-Serif" font-size="10.00">occ::crystal::SiteIndex</text>
</a>
</g>
</g>
<!-- Node2&#45;&gt;Node1 -->
<g id="edge1" class="edge">
<title>Node2&#45;&gt;Node1</title>
<path fill="none" stroke="#9a32cd" stroke-dasharray="5,2" d="M67.5,-68.22C67.5,-52.7 67.5,-31.36 67.5,-19.62"/>
<polygon fill="#9a32cd" stroke="#9a32cd" points="64,-68.28 67.5,-78.28 71,-68.28 64,-68.28"/>
<text text-anchor="middle" x="72.5" y="-52" font-family="Helvetica,sans-Serif" font-size="10.00"> a</text>
<text text-anchor="middle" x="72.5" y="-41" font-family="Helvetica,sans-Serif" font-size="10.00">b</text>
</g>
<!-- Node3 -->
<g id="node3" class="node">
<title>Node3</title>
<g id="a_node3"><a xlink:href="structocc_1_1crystal_1_1HKL.html" target="_top" xlink:title="A struct representing a lattice vector triplet (h, k, l) in a crystal lattice.">
<polygon fill="none" stroke="black" points="18.5,-145.5 18.5,-164.5 116.5,-164.5 116.5,-145.5 18.5,-145.5"/>
<text text-anchor="middle" x="67.5" y="-152.5" font-family="Helvetica,sans-Serif" font-size="10.00">occ::crystal::HKL</text>
</a>
</g>
</g>
<!-- Node3&#45;&gt;Node2 -->
<g id="edge2" class="edge">
<title>Node3&#45;&gt;Node2</title>
<path fill="none" stroke="#9a32cd" stroke-dasharray="5,2" d="M67.5,-135.04C67.5,-122.67 67.5,-107.12 67.5,-97.63"/>
<polygon fill="#9a32cd" stroke="#9a32cd" points="64,-135.23 67.5,-145.23 71,-135.23 64,-135.23"/>
<text text-anchor="middle" x="77" y="-119" font-family="Helvetica,sans-Serif" font-size="10.00"> hkl</text>
</g>
</g>
</svg>
