<?xml version="1.0" encoding="UTF-8" standalone="no"?>
<!DOCTYPE svg PUBLIC "-//W3C//DTD SVG 1.1//EN"
 "http://www.w3.org/Graphics/SVG/1.1/DTD/svg11.dtd">
<!-- Generated by graphviz version 2.43.0 (0)
 -->
<!-- Title: occ::qm::cc::UCCSDOptions Pages: 1 -->
<svg width="301pt" height="159pt"
 viewBox="0.00 0.00 300.50 159.00" xmlns="http://www.w3.org/2000/svg" xmlns:xlink="http://www.w3.org/1999/xlink">
<g id="graph0" class="graph" transform="scale(1 1) rotate(0) translate(4 155)">
<title>occ::qm::cc::UCCSDOptions</title>
<!-- Node1 -->
<g id="Node000001" class="node">
<title>Node1</title>
<g id="a_Node000001"><a xlink:title=" ">
<polygon fill="#999999" stroke="#666666" points="149,-19 0,-19 0,0 149,0 149,-19"/>
<text text-anchor="middle" x="74.5" y="-7" font-family="Helvetica,sans-Serif" font-size="10.00">occ::qm::cc::UCCSDOptions</text>
</a>
</g>
</g>
<!-- Node2 -->
<g id="Node000002" class="node">
<title>Node2</title>
<g id="a_Node000002"><a xlink:title=" ">
<polygon fill="white" stroke="#666666" points="97,-151 52,-151 52,-132 97,-132 97,-151"/>
<text text-anchor="middle" x="74.5" y="-139" font-family="Helvetica,sans-Serif" font-size="10.00">size_t</text>
</a>
</g>
</g>
<!-- Node2&#45;&gt;Node1 -->
<g id="edge1_Node000001_Node000002" class="edge">
<title>Node2&#45;&gt;Node1</title>
<g id="a_edge1_Node000001_Node000002"><a xlink:title=" ">
<path fill="none" stroke="#9a32cd" stroke-dasharray="5,2" d="M71.1,-121.73C68.78,-106.68 66.31,-85.01 67.5,-66 68.55,-49.33 71.35,-30.01 73.07,-19.12"/>
<polygon fill="#9a32cd" stroke="#9a32cd" points="67.69,-122.51 72.79,-131.8 74.59,-121.36 67.69,-122.51"/>
</a>
</g>
<text text-anchor="middle" x="109.5" y="-73" font-family="Helvetica,sans-Serif" font-size="10.00" fill="grey"> memory_budget</text>
</g>
<!-- Node3 -->
<g id="Node000003" class="node">
<title>Node3</title>
<g id="a_Node000003"><a xlink:href="structocc_1_1qm_1_1cc_1_1ThcOptions.html" target="_top" xlink:title=" ">
<polygon fill="white" stroke="#666666" points="292.5,-85 160.5,-85 160.5,-66 292.5,-66 292.5,-85"/>
<text text-anchor="middle" x="226.5" y="-73" font-family="Helvetica,sans-Serif" font-size="10.00">occ::qm::cc::ThcOptions</text>
</a>
</g>
</g>
<!-- Node2&#45;&gt;Node3 -->
<g id="edge3_Node000003_Node000002" class="edge">
<title>Node2&#45;&gt;Node3</title>
<g id="a_edge3_Node000003_Node000002"><a xlink:title=" ">
<path fill="none" stroke="#9a32cd" stroke-dasharray="5,2" d="M104.52,-127.86C134.48,-115.25 179.7,-96.21 205.84,-85.2"/>
<polygon fill="#9a32cd" stroke="#9a32cd" points="102.86,-124.76 95,-131.87 105.57,-131.21 102.86,-124.76"/>
</a>
</g>
<text text-anchor="middle" x="201.5" y="-106" font-family="Helvetica,sans-Serif" font-size="10.00" fill="grey"> memory_budget</text>
</g>
<!-- Node3&#45;&gt;Node1 -->
<g id="edge2_Node000001_Node000003" class="edge">
<title>Node3&#45;&gt;Node1</title>
<g id="a_edge2_Node000001_Node000003"><a xlink:title=" ">
<path fill="none" stroke="#9a32cd" stroke-dasharray="5,2" d="M196.48,-61.86C166.52,-49.25 121.3,-30.21 95.16,-19.2"/>
<polygon fill="#9a32cd" stroke="#9a32cd" points="195.43,-65.21 206,-65.87 198.14,-58.76 195.43,-65.21"/>
</a>
</g>
<text text-anchor="middle" x="169" y="-40" font-family="Helvetica,sans-Serif" font-size="10.00" fill="grey"> thc</text>
</g>
</g>
</svg>
