<?xml version="1.0" encoding="UTF-8" standalone="no"?>
<!DOCTYPE svg PUBLIC "-//W3C//DTD SVG 1.1//EN"
 "http://www.w3.org/Graphics/SVG/1.1/DTD/svg11.dtd">
<!-- Generated by graphviz version 2.43.0 (0)
 -->
<!-- Title: occ::main::XCDensityFunctor Pages: 1 -->
<svg width="546pt" height="225pt"
 viewBox="0.00 0.00 545.50 225.00" xmlns="http://www.w3.org/2000/svg" xmlns:xlink="http://www.w3.org/1999/xlink">
<g id="graph0" class="graph" transform="scale(1 1) rotate(0) translate(4 221)">
<title>occ::main::XCDensityFunctor</title>
<!-- Node1 -->
<g id="Node000001" class="node">
<title>Node1</title>
<g id="a_Node000001"><a xlink:title=" ">
<polygon fill="#999999" stroke="#666666" points="420.5,-19 264.5,-19 264.5,0 420.5,0 420.5,-19"/>
<text text-anchor="middle" x="342.5" y="-7" font-family="Helvetica,sans-Serif" font-size="10.00">occ::main::XCDensityFunctor</text>
</a>
</g>
</g>
<!-- Node2 -->
<g id="Node000002" class="node">
<title>Node2</title>
<g id="a_Node000002"><a xlink:href="structocc_1_1qm_1_1Wavefunction.html" target="_top" xlink:title=" ">
<polygon fill="white" stroke="#666666" points="346.5,-85 218.5,-85 218.5,-66 346.5,-66 346.5,-85"/>
<text text-anchor="middle" x="282.5" y="-73" font-family="Helvetica,sans-Serif" font-size="10.00">occ::qm::Wavefunction</text>
</a>
</g>
</g>
<!-- Node2&#45;&gt;Node1 -->
<g id="edge1_Node000001_Node000002" class="edge">
<title>Node2&#45;&gt;Node1</title>
<g id="a_edge1_Node000001_Node000002"><a xlink:title=" ">
<path fill="none" stroke="#9a32cd" stroke-dasharray="5,2" d="M297.52,-58.48C309.1,-46.12 324.7,-29.49 334.15,-19.41"/>
<polygon fill="#9a32cd" stroke="#9a32cd" points="294.88,-56.18 290.59,-65.87 299.98,-60.97 294.88,-56.18"/>
</a>
</g>
<text text-anchor="middle" x="327.5" y="-40" font-family="Helvetica,sans-Serif" font-size="10.00" fill="grey"> wfn</text>
</g>
<!-- Node3 -->
<g id="Node000003" class="node">
<title>Node3</title>
<g id="a_Node000003"><a xlink:href="classocc_1_1gto_1_1AOBasis.html" target="_top" xlink:title=" ">
<polygon fill="white" stroke="#666666" points="101,-151 0,-151 0,-132 101,-132 101,-151"/>
<text text-anchor="middle" x="50.5" y="-139" font-family="Helvetica,sans-Serif" font-size="10.00">occ::gto::AOBasis</text>
</a>
</g>
</g>
<!-- Node3&#45;&gt;Node2 -->
<g id="edge2_Node000002_Node000003" class="edge">
<title>Node3&#45;&gt;Node2</title>
<g id="a_edge2_Node000002_Node000003"><a xlink:title=" ">
<path fill="none" stroke="#9a32cd" stroke-dasharray="5,2" d="M91.67,-129.14C137.38,-116.53 210.12,-96.47 251.34,-85.1"/>
<polygon fill="#9a32cd" stroke="#9a32cd" points="90.5,-125.84 81.79,-131.87 92.36,-132.58 90.5,-125.84"/>
</a>
</g>
<text text-anchor="middle" x="195" y="-106" font-family="Helvetica,sans-Serif" font-size="10.00" fill="grey"> basis</text>
</g>
<!-- Node4 -->
<g id="Node000004" class="node">
<title>Node4</title>
<g id="a_Node000004"><a xlink:href="structocc_1_1qm_1_1MolecularOrbitals.html" target="_top" xlink:title=" ">
<polygon fill="white" stroke="#666666" points="266,-151 119,-151 119,-132 266,-132 266,-151"/>
<text text-anchor="middle" x="192.5" y="-139" font-family="Helvetica,sans-Serif" font-size="10.00">occ::qm::MolecularOrbitals</text>
</a>
</g>
</g>
<!-- Node4&#45;&gt;Node2 -->
<g id="edge3_Node000002_Node000004" class="edge">
<title>Node4&#45;&gt;Node2</title>
<g id="a_edge3_Node000002_Node000004"><a xlink:title=" ">
<path fill="none" stroke="#9a32cd" stroke-dasharray="5,2" d="M213.12,-125.83C230.78,-113.28 255.6,-95.63 270.27,-85.2"/>
<polygon fill="#9a32cd" stroke="#9a32cd" points="210.76,-123.22 204.64,-131.87 214.82,-128.93 210.76,-123.22"/>
</a>
</g>
<text text-anchor="middle" x="253" y="-106" font-family="Helvetica,sans-Serif" font-size="10.00" fill="grey"> mo</text>
</g>
<!-- Node5 -->
<g id="Node000005" class="node">
<title>Node5</title>
<g id="a_Node000005"><a xlink:href="structocc_1_1qm_1_1OrbitalSmearing.html" target="_top" xlink:title=" ">
<polygon fill="white" stroke="#666666" points="262.5,-217 122.5,-217 122.5,-198 262.5,-198 262.5,-217"/>
<text text-anchor="middle" x="192.5" y="-205" font-family="Helvetica,sans-Serif" font-size="10.00">occ::qm::OrbitalSmearing</text>
</a>
</g>
</g>
<!-- Node5&#45;&gt;Node4 -->
<g id="edge4_Node000004_Node000005" class="edge">
<title>Node5&#45;&gt;Node4</title>
<g id="a_edge4_Node000004_Node000005"><a xlink:title=" ">
<path fill="none" stroke="#9a32cd" stroke-dasharray="5,2" d="M192.5,-187.58C192.5,-175.63 192.5,-160.72 192.5,-151.41"/>
<polygon fill="#9a32cd" stroke="#9a32cd" points="189,-187.87 192.5,-197.87 196,-187.87 189,-187.87"/>
</a>
</g>
<text text-anchor="middle" x="217" y="-172" font-family="Helvetica,sans-Serif" font-size="10.00" fill="grey"> smearing</text>
</g>
<!-- Node6 -->
<g id="Node000006" class="node">
<title>Node6</title>
<g id="a_Node000006"><a xlink:href="structocc_1_1qm_1_1Energy.html" target="_top" xlink:title=" ">
<polygon fill="white" stroke="#666666" points="379,-151 284,-151 284,-132 379,-132 379,-151"/>
<text text-anchor="middle" x="331.5" y="-139" font-family="Helvetica,sans-Serif" font-size="10.00">occ::qm::Energy</text>
</a>
</g>
</g>
<!-- Node6&#45;&gt;Node2 -->
<g id="edge5_Node000002_Node000006" class="edge">
<title>Node6&#45;&gt;Node2</title>
<g id="a_edge5_Node000002_Node000006"><a xlink:title=" ">
<path fill="none" stroke="#9a32cd" stroke-dasharray="5,2" d="M318.69,-123.77C309.29,-111.49 296.89,-95.3 289.32,-85.41"/>
<polygon fill="#9a32cd" stroke="#9a32cd" points="316.03,-126.06 324.89,-131.87 321.59,-121.8 316.03,-126.06"/>
</a>
</g>
<text text-anchor="middle" x="329" y="-106" font-family="Helvetica,sans-Serif" font-size="10.00" fill="grey"> energy</text>
</g>
<!-- Node7 -->
<g id="Node000007" class="node">
<title>Node7</title>
<g id="a_Node000007"><a xlink:href="classocc_1_1dft_1_1DFT.html" target="_top" xlink:title=" ">
<polygon fill="white" stroke="#666666" points="484,-85 407,-85 407,-66 484,-66 484,-85"/>
<text text-anchor="middle" x="445.5" y="-73" font-family="Helvetica,sans-Serif" font-size="10.00">occ::dft::DFT</text>
</a>
</g>
</g>
<!-- Node7&#45;&gt;Node1 -->
<g id="edge6_Node000001_Node000007" class="edge">
<title>Node7&#45;&gt;Node1</title>
<g id="a_edge6_Node000001_Node000007"><a xlink:title=" ">
<path fill="none" stroke="#9a32cd" stroke-dasharray="5,2" d="M423,-60.52C402.74,-47.93 373.6,-29.82 356.5,-19.2"/>
<polygon fill="#9a32cd" stroke="#9a32cd" points="421.27,-63.56 431.61,-65.87 424.96,-57.62 421.27,-63.56"/>
</a>
</g>
<text text-anchor="middle" x="408" y="-40" font-family="Helvetica,sans-Serif" font-size="10.00" fill="grey"> ks</text>
</g>
<!-- Node8 -->
<g id="Node000008" class="node">
<title>Node8</title>
<g id="a_Node000008"><a xlink:href="classocc_1_1qm_1_1SCFMethodBase.html" target="_top" xlink:title=" ">
<polygon fill="white" stroke="#666666" points="537.5,-151 397.5,-151 397.5,-132 537.5,-132 537.5,-151"/>
<text text-anchor="middle" x="467.5" y="-139" font-family="Helvetica,sans-Serif" font-size="10.00">occ::qm::SCFMethodBase</text>
</a>
</g>
</g>
<!-- Node8&#45;&gt;Node7 -->
<g id="edge7_Node000007_Node000008" class="edge">
<title>Node8&#45;&gt;Node7</title>
<g id="a_edge7_Node000007_Node000008"><a xlink:title=" ">
<path fill="none" stroke="#63b8ff" d="M461.25,-122.32C457.1,-110.24 451.83,-94.91 448.56,-85.41"/>
<polygon fill="#63b8ff" stroke="#63b8ff" points="457.97,-123.55 464.53,-131.87 464.59,-121.27 457.97,-123.55"/>
</a>
</g>
</g>
</g>
</svg>
