<?xml version="1.0" encoding="UTF-8" standalone="no"?>
<!DOCTYPE svg PUBLIC "-//W3C//DTD SVG 1.1//EN"
 "http://www.w3.org/Graphics/SVG/1.1/DTD/svg11.dtd">
<!-- Generated by graphviz version 2.43.0 (0)
 -->
<!-- Title: occ::qm::GridBatchLeaf Pages: 1 -->
<svg width="232pt" height="104pt"
 viewBox="0.00 0.00 232.00 104.00" xmlns="http://www.w3.org/2000/svg" xmlns:xlink="http://www.w3.org/1999/xlink">
<g id="graph0" class="graph" transform="scale(1 1) rotate(0) translate(4 100)">
<title>occ::qm::GridBatchLeaf</title>
<!-- Node1 -->
<g id="Node000001" class="node">
<title>Node1</title>
<g id="a_Node000001"><a xlink:title="Leaf node containing grid point batch.">
<polygon fill="#999999" stroke="#666666" points="147.5,-19 17.5,-19 17.5,0 147.5,0 147.5,-19"/>
<text text-anchor="middle" x="82.5" y="-7" font-family="Helvetica,sans-Serif" font-size="10.00">occ::qm::GridBatchLeaf</text>
</a>
</g>
</g>
<!-- Node2 -->
<g id="Node000002" class="node">
<title>Node2</title>
<g id="a_Node000002"><a xlink:title=" ">
<polygon fill="white" stroke="#666666" points="45,-96 0,-96 0,-77 45,-77 45,-96"/>
<text text-anchor="middle" x="22.5" y="-84" font-family="Helvetica,sans-Serif" font-size="10.00">size_t</text>
</a>
</g>
</g>
<!-- Node2&#45;&gt;Node1 -->
<g id="edge1_Node000001_Node000002" class="edge">
<title>Node2&#45;&gt;Node1</title>
<g id="a_edge1_Node000001_Node000002"><a xlink:title=" ">
<path fill="none" stroke="#9a32cd" stroke-dasharray="5,2" d="M35.92,-68.73C48.26,-53.3 66.07,-31.04 75.7,-19"/>
<polygon fill="#9a32cd" stroke="#9a32cd" points="32.9,-66.9 29.38,-76.9 38.36,-71.27 32.9,-66.9"/>
</a>
</g>
<text text-anchor="middle" x="76" y="-51" font-family="Helvetica,sans-Serif" font-size="10.00" fill="grey"> count</text>
<text text-anchor="middle" x="76" y="-40" font-family="Helvetica,sans-Serif" font-size="10.00" fill="grey">offset</text>
</g>
<!-- Node3 -->
<g id="Node000003" class="node">
<title>Node3</title>
<g id="a_Node000003"><a xlink:href="structocc_1_1qm_1_1GridBoundingSphere.html" target="_top" xlink:title="Bounding sphere for a group of grid points.">
<polygon fill="white" stroke="#666666" points="224,-96 63,-96 63,-77 224,-77 224,-96"/>
<text text-anchor="middle" x="143.5" y="-84" font-family="Helvetica,sans-Serif" font-size="10.00">occ::qm::GridBoundingSphere</text>
</a>
</g>
</g>
<!-- Node3&#45;&gt;Node1 -->
<g id="edge2_Node000001_Node000003" class="edge">
<title>Node3&#45;&gt;Node1</title>
<g id="a_edge2_Node000001_Node000003"><a xlink:title=" ">
<path fill="none" stroke="#9a32cd" stroke-dasharray="5,2" d="M129.86,-68.73C117.31,-53.3 99.21,-31.04 89.42,-19"/>
<polygon fill="#9a32cd" stroke="#9a32cd" points="127.48,-71.35 136.5,-76.9 132.91,-66.93 127.48,-71.35"/>
</a>
</g>
<text text-anchor="middle" x="139" y="-45.5" font-family="Helvetica,sans-Serif" font-size="10.00" fill="grey"> bounds</text>
</g>
</g>
</svg>
