<?xml version="1.0" encoding="UTF-8" standalone="no"?>
<!DOCTYPE svg PUBLIC "-//W3C//DTD SVG 1.1//EN"
 "http://www.w3.org/Graphics/SVG/1.1/DTD/svg11.dtd">
<!-- Generated by graphviz version 2.43.0 (0)
 -->
<!-- Title: /home/runner/work/occ/occ/include/occ/core/table.h Pages: 1 -->
<svg width="634pt" height="162pt"
 viewBox="0.00 0.00 634.00 162.00" xmlns="http://www.w3.org/2000/svg" xmlns:xlink="http://www.w3.org/1999/xlink">
<g id="graph0" class="graph" transform="scale(1 1) rotate(0) translate(4 158)">
<title>/home/runner/work/occ/occ/include/occ/core/table.h</title>
<!-- Node1 -->
<g id="node1" class="node">
<title>Node1</title>
<g id="a_node1"><a xlink:title=" ">
<polygon fill="#bfbfbf" stroke="black" points="290.5,-112.5 290.5,-153.5 418.5,-153.5 418.5,-112.5 290.5,-112.5"/>
<text text-anchor="start" x="298.5" y="-141.5" font-family="Helvetica,sans-Serif" font-size="10.00">/home/runner/work/occ</text>
<text text-anchor="start" x="298.5" y="-130.5" font-family="Helvetica,sans-Serif" font-size="10.00">/occ/include/occ/core</text>
<text text-anchor="middle" x="354.5" y="-119.5" font-family="Helvetica,sans-Serif" font-size="10.00">/table.h</text>
</a>
</g>
</g>
<!-- Node2 -->
<g id="node2" class="node">
<title>Node2</title>
<g id="a_node2"><a xlink:title=" ">
<polygon fill="none" stroke="#bfbfbf" points="0,-56.5 0,-75.5 143,-75.5 143,-56.5 0,-56.5"/>
<text text-anchor="middle" x="71.5" y="-63.5" font-family="Helvetica,sans-Serif" font-size="10.00">ankerl/unordered_dense.h</text>
</a>
</g>
</g>
<!-- Node1&#45;&gt;Node2 -->
<g id="edge1" class="edge">
<title>Node1&#45;&gt;Node2</title>
<path fill="none" stroke="midnightblue" d="M290.28,-117.25C238.02,-105.25 165.46,-88.58 118.5,-77.79"/>
<polygon fill="midnightblue" stroke="midnightblue" points="119.12,-74.35 108.59,-75.52 117.55,-81.17 119.12,-74.35"/>
</g>
<!-- Node3 -->
<g id="node3" class="node">
<title>Node3</title>
<g id="a_node3"><a xlink:title=" ">
<polygon fill="none" stroke="#bfbfbf" points="161,-56.5 161,-75.5 228,-75.5 228,-56.5 161,-56.5"/>
<text text-anchor="middle" x="194.5" y="-63.5" font-family="Helvetica,sans-Serif" font-size="10.00">fmt/core.h</text>
</a>
</g>
</g>
<!-- Node1&#45;&gt;Node3 -->
<g id="edge2" class="edge">
<title>Node1&#45;&gt;Node3</title>
<path fill="none" stroke="midnightblue" d="M306.49,-112.5C280.08,-101.77 248.09,-88.77 225.07,-79.42"/>
<polygon fill="midnightblue" stroke="midnightblue" points="226.38,-76.17 215.8,-75.65 223.75,-82.66 226.38,-76.17"/>
</g>
<!-- Node4 -->
<g id="node4" class="node">
<title>Node4</title>
<g id="a_node4"><a xlink:title=" ">
<polygon fill="none" stroke="#bfbfbf" points="212.5,-0.5 212.5,-19.5 298.5,-19.5 298.5,-0.5 212.5,-0.5"/>
<text text-anchor="middle" x="255.5" y="-7.5" font-family="Helvetica,sans-Serif" font-size="10.00">fmt/ostream.h</text>
</a>
</g>
</g>
<!-- Node1&#45;&gt;Node4 -->
<g id="edge3" class="edge">
<title>Node1&#45;&gt;Node4</title>
<path fill="none" stroke="midnightblue" d="M317.47,-112.33C302.94,-103.01 287.21,-90.68 276.5,-76 266.56,-62.38 261.18,-43.84 258.37,-30.04"/>
<polygon fill="midnightblue" stroke="midnightblue" points="261.74,-29.02 256.56,-19.78 254.85,-30.24 261.74,-29.02"/>
</g>
<!-- Node5 -->
<g id="node5" class="node">
<title>Node5</title>
<g id="a_node5"><a xlink:href="linear__algebra_8h.html" target="_top" xlink:title=" ">
<polygon fill="none" stroke="black" points="285,-56.5 285,-75.5 424,-75.5 424,-56.5 285,-56.5"/>
<text text-anchor="middle" x="354.5" y="-63.5" font-family="Helvetica,sans-Serif" font-size="10.00">occ/core/linear_algebra.h</text>
</a>
</g>
</g>
<!-- Node1&#45;&gt;Node5 -->
<g id="edge4" class="edge">
<title>Node1&#45;&gt;Node5</title>
<path fill="none" stroke="midnightblue" d="M354.5,-112.5C354.5,-104.07 354.5,-94.24 354.5,-85.87"/>
<polygon fill="midnightblue" stroke="midnightblue" points="358,-85.65 354.5,-75.65 351,-85.65 358,-85.65"/>
</g>
<!-- Node8 -->
<g id="node8" class="node">
<title>Node8</title>
<g id="a_node8"><a xlink:title=" ">
<polygon fill="none" stroke="#bfbfbf" points="442.5,-56.5 442.5,-75.5 498.5,-75.5 498.5,-56.5 442.5,-56.5"/>
<text text-anchor="middle" x="470.5" y="-63.5" font-family="Helvetica,sans-Serif" font-size="10.00">optional</text>
</a>
</g>
</g>
<!-- Node1&#45;&gt;Node8 -->
<g id="edge8" class="edge">
<title>Node1&#45;&gt;Node8</title>
<path fill="none" stroke="midnightblue" d="M389.3,-112.5C407.6,-102.24 429.59,-89.93 446.06,-80.69"/>
<polygon fill="midnightblue" stroke="midnightblue" points="448.05,-83.59 455.06,-75.65 444.62,-77.49 448.05,-83.59"/>
</g>
<!-- Node9 -->
<g id="node9" class="node">
<title>Node9</title>
<g id="a_node9"><a xlink:title=" ">
<polygon fill="none" stroke="#bfbfbf" points="516.5,-56.5 516.5,-75.5 560.5,-75.5 560.5,-56.5 516.5,-56.5"/>
<text text-anchor="middle" x="538.5" y="-63.5" font-family="Helvetica,sans-Serif" font-size="10.00">string</text>
</a>
</g>
</g>
<!-- Node1&#45;&gt;Node9 -->
<g id="edge9" class="edge">
<title>Node1&#45;&gt;Node9</title>
<path fill="none" stroke="midnightblue" d="M409.71,-112.5C441.43,-101.29 480.15,-87.61 506.8,-78.2"/>
<polygon fill="midnightblue" stroke="midnightblue" points="508.12,-81.44 516.38,-74.81 505.79,-74.84 508.12,-81.44"/>
</g>
<!-- Node10 -->
<g id="node10" class="node">
<title>Node10</title>
<g id="a_node10"><a xlink:title=" ">
<polygon fill="none" stroke="#bfbfbf" points="579,-56.5 579,-75.5 626,-75.5 626,-56.5 579,-56.5"/>
<text text-anchor="middle" x="602.5" y="-63.5" font-family="Helvetica,sans-Serif" font-size="10.00">vector</text>
</a>
</g>
</g>
<!-- Node1&#45;&gt;Node10 -->
<g id="edge10" class="edge">
<title>Node1&#45;&gt;Node10</title>
<path fill="none" stroke="midnightblue" d="M418.52,-115.53C458.96,-105.08 512.57,-91.14 568.91,-76.14"/>
<polygon fill="midnightblue" stroke="midnightblue" points="569.95,-79.48 578.72,-73.52 568.15,-72.72 569.95,-79.48"/>
</g>
<!-- Node5&#45;&gt;Node4 -->
<g id="edge7" class="edge">
<title>Node5&#45;&gt;Node4</title>
<path fill="none" stroke="midnightblue" d="M338.59,-56.32C322.86,-47.74 298.56,-34.49 280.29,-24.52"/>
<polygon fill="midnightblue" stroke="midnightblue" points="281.82,-21.37 271.37,-19.65 278.47,-27.52 281.82,-21.37"/>
</g>
<!-- Node6 -->
<g id="node6" class="node">
<title>Node6</title>
<g id="a_node6"><a xlink:title=" ">
<polygon fill="none" stroke="#bfbfbf" points="317,-0.5 317,-19.5 394,-19.5 394,-0.5 317,-0.5"/>
<text text-anchor="middle" x="355.5" y="-7.5" font-family="Helvetica,sans-Serif" font-size="10.00">Eigen/Dense</text>
</a>
</g>
</g>
<!-- Node5&#45;&gt;Node6 -->
<g id="edge5" class="edge">
<title>Node5&#45;&gt;Node6</title>
<path fill="none" stroke="midnightblue" d="M354.67,-56.08C354.8,-49.01 354.98,-38.86 355.15,-29.99"/>
<polygon fill="midnightblue" stroke="midnightblue" points="358.65,-29.81 355.34,-19.75 351.65,-29.68 358.65,-29.81"/>
</g>
<!-- Node7 -->
<g id="node7" class="node">
<title>Node7</title>
<g id="a_node7"><a xlink:title=" ">
<polygon fill="none" stroke="#bfbfbf" points="412,-0.5 412,-19.5 505,-19.5 505,-0.5 412,-0.5"/>
<text text-anchor="middle" x="458.5" y="-7.5" font-family="Helvetica,sans-Serif" font-size="10.00">Eigen/StdVector</text>
</a>
</g>
</g>
<!-- Node5&#45;&gt;Node7 -->
<g id="edge6" class="edge">
<title>Node5&#45;&gt;Node7</title>
<path fill="none" stroke="midnightblue" d="M371.21,-56.32C387.81,-47.7 413.5,-34.36 432.72,-24.39"/>
<polygon fill="midnightblue" stroke="midnightblue" points="434.57,-27.37 441.83,-19.65 431.34,-21.16 434.57,-27.37"/>
</g>
</g>
</svg>
