<?xml version="1.0" encoding="UTF-8" standalone="no"?>
<!DOCTYPE svg PUBLIC "-//W3C//DTD SVG 1.1//EN"
 "http://www.w3.org/Graphics/SVG/1.1/DTD/svg11.dtd">
<!-- Generated by graphviz version 2.43.0 (0)
 -->
<!-- Title: /home/runner/work/occ/occ/include/occ/xtb/tblite_wrapper.h Pages: 1 -->
<svg width="1439pt" height="453pt"
 viewBox="0.00 0.00 1439.00 453.00" xmlns="http://www.w3.org/2000/svg" xmlns:xlink="http://www.w3.org/1999/xlink">
<g id="graph0" class="graph" transform="scale(1 1) rotate(0) translate(4 449)">
<title>/home/runner/work/occ/occ/include/occ/xtb/tblite_wrapper.h</title>
<!-- Node1 -->
<g id="node1" class="node">
<title>Node1</title>
<g id="a_node1"><a xlink:title=" ">
<polygon fill="#bfbfbf" stroke="black" points="532,-403.5 532,-444.5 660,-444.5 660,-403.5 532,-403.5"/>
<text text-anchor="start" x="540" y="-432.5" font-family="Helvetica,sans-Serif" font-size="10.00">/home/runner/work/occ</text>
<text text-anchor="start" x="540" y="-421.5" font-family="Helvetica,sans-Serif" font-size="10.00">/occ/include/occ/xtb</text>
<text text-anchor="middle" x="596" y="-410.5" font-family="Helvetica,sans-Serif" font-size="10.00">/tblite_wrapper.h</text>
</a>
</g>
</g>
<!-- Node2 -->
<g id="node2" class="node">
<title>Node2</title>
<g id="a_node2"><a xlink:title=" ">
<polygon fill="none" stroke="#bfbfbf" points="0,-174 0,-193 42,-193 42,-174 0,-174"/>
<text text-anchor="middle" x="21" y="-181" font-family="Helvetica,sans-Serif" font-size="10.00">array</text>
</a>
</g>
</g>
<!-- Node1&#45;&gt;Node2 -->
<g id="edge1" class="edge">
<title>Node1&#45;&gt;Node2</title>
<path fill="none" stroke="midnightblue" d="M531.92,-422.29C456.37,-419.44 328.27,-408.23 227,-367 147.95,-334.82 131.18,-315.53 71,-255 55.03,-238.94 40.51,-217.31 31.28,-202.26"/>
<polygon fill="midnightblue" stroke="midnightblue" points="34.15,-200.24 26.02,-193.45 28.14,-203.83 34.15,-200.24"/>
</g>
<!-- Node3 -->
<g id="node3" class="node">
<title>Node3</title>
<g id="a_node3"><a xlink:href="dimer_8h.html" target="_top" xlink:title=" ">
<polygon fill="none" stroke="black" points="1226.5,-291.5 1226.5,-310.5 1323.5,-310.5 1323.5,-291.5 1226.5,-291.5"/>
<text text-anchor="middle" x="1275" y="-298.5" font-family="Helvetica,sans-Serif" font-size="10.00">occ/core/dimer.h</text>
</a>
</g>
</g>
<!-- Node1&#45;&gt;Node3 -->
<g id="edge2" class="edge">
<title>Node1&#45;&gt;Node3</title>
<path fill="none" stroke="midnightblue" d="M564.27,-403.41C542.36,-387.54 519.99,-364.94 537,-347 587.36,-293.9 1105.39,-317.18 1216.05,-310.83"/>
<polygon fill="midnightblue" stroke="midnightblue" points="1216.53,-314.31 1226.23,-310.04 1215.99,-307.33 1216.53,-314.31"/>
</g>
<!-- Node4 -->
<g id="node4" class="node">
<title>Node4</title>
<g id="a_node4"><a xlink:href="molecule_8h.html" target="_top" xlink:title=" ">
<polygon fill="none" stroke="black" points="80,-235.5 80,-254.5 194,-254.5 194,-235.5 80,-235.5"/>
<text text-anchor="middle" x="137" y="-242.5" font-family="Helvetica,sans-Serif" font-size="10.00">occ/core/molecule.h</text>
</a>
</g>
</g>
<!-- Node1&#45;&gt;Node4 -->
<g id="edge16" class="edge">
<title>Node1&#45;&gt;Node4</title>
<path fill="none" stroke="midnightblue" d="M531.73,-421.21C442.71,-415.61 280.92,-393.79 175,-311 159.59,-298.95 149.21,-278.77 143.24,-264.09"/>
<polygon fill="midnightblue" stroke="midnightblue" points="146.46,-262.7 139.67,-254.56 139.91,-265.16 146.46,-262.7"/>
</g>
<!-- Node15 -->
<g id="node15" class="node">
<title>Node15</title>
<g id="a_node15"><a xlink:href="crystal_8h.html" target="_top" xlink:title=" ">
<polygon fill="none" stroke="black" points="375,-347.5 375,-366.5 489,-366.5 489,-347.5 375,-347.5"/>
<text text-anchor="middle" x="432" y="-354.5" font-family="Helvetica,sans-Serif" font-size="10.00">occ/crystal/crystal.h</text>
</a>
</g>
</g>
<!-- Node1&#45;&gt;Node15 -->
<g id="edge17" class="edge">
<title>Node1&#45;&gt;Node15</title>
<path fill="none" stroke="midnightblue" d="M546.79,-403.5C519.72,-392.77 486.93,-379.77 463.33,-370.42"/>
<polygon fill="midnightblue" stroke="midnightblue" points="464.42,-367.08 453.83,-366.65 461.84,-373.59 464.42,-367.08"/>
</g>
<!-- Node37 -->
<g id="node37" class="node">
<title>Node37</title>
<g id="a_node37"><a xlink:title=" ">
<polygon fill="none" stroke="#bfbfbf" points="545.5,-347.5 545.5,-366.5 646.5,-366.5 646.5,-347.5 545.5,-347.5"/>
<text text-anchor="middle" x="596" y="-354.5" font-family="Helvetica,sans-Serif" font-size="10.00">tblite/calculator.h</text>
</a>
</g>
</g>
<!-- Node1&#45;&gt;Node37 -->
<g id="edge63" class="edge">
<title>Node1&#45;&gt;Node37</title>
<path fill="none" stroke="midnightblue" d="M596,-403.5C596,-395.07 596,-385.24 596,-376.87"/>
<polygon fill="midnightblue" stroke="midnightblue" points="599.5,-376.65 596,-366.65 592.5,-376.65 599.5,-376.65"/>
</g>
<!-- Node38 -->
<g id="node38" class="node">
<title>Node38</title>
<g id="a_node38"><a xlink:title=" ">
<polygon fill="none" stroke="#bfbfbf" points="664.5,-347.5 664.5,-366.5 741.5,-366.5 741.5,-347.5 664.5,-347.5"/>
<text text-anchor="middle" x="703" y="-354.5" font-family="Helvetica,sans-Serif" font-size="10.00">tblite/error.h</text>
</a>
</g>
</g>
<!-- Node1&#45;&gt;Node38 -->
<g id="edge64" class="edge">
<title>Node1&#45;&gt;Node38</title>
<path fill="none" stroke="midnightblue" d="M628.1,-403.5C644.82,-393.34 664.88,-381.16 680.03,-371.95"/>
<polygon fill="midnightblue" stroke="midnightblue" points="682.03,-374.84 688.76,-366.65 678.39,-368.85 682.03,-374.84"/>
</g>
<!-- Node39 -->
<g id="node39" class="node">
<title>Node39</title>
<g id="a_node39"><a xlink:title=" ">
<polygon fill="none" stroke="#bfbfbf" points="760,-347.5 760,-366.5 858,-366.5 858,-347.5 760,-347.5"/>
<text text-anchor="middle" x="809" y="-354.5" font-family="Helvetica,sans-Serif" font-size="10.00">tblite/structure.h</text>
</a>
</g>
</g>
<!-- Node1&#45;&gt;Node39 -->
<g id="edge65" class="edge">
<title>Node1&#45;&gt;Node39</title>
<path fill="none" stroke="midnightblue" d="M659.91,-403.5C696.13,-392.44 740.22,-378.99 771.02,-369.59"/>
<polygon fill="midnightblue" stroke="midnightblue" points="772.38,-372.83 780.93,-366.57 770.34,-366.14 772.38,-372.83"/>
</g>
<!-- Node40 -->
<g id="node40" class="node">
<title>Node40</title>
<g id="a_node40"><a xlink:title=" ">
<polygon fill="none" stroke="#bfbfbf" points="876.5,-347.5 876.5,-366.5 975.5,-366.5 975.5,-347.5 876.5,-347.5"/>
<text text-anchor="middle" x="926" y="-354.5" font-family="Helvetica,sans-Serif" font-size="10.00">tblite/container.h</text>
</a>
</g>
</g>
<!-- Node1&#45;&gt;Node40 -->
<g id="edge66" class="edge">
<title>Node1&#45;&gt;Node40</title>
<path fill="none" stroke="midnightblue" d="M660.02,-410.39C721.9,-398.2 814.59,-379.95 872.61,-368.52"/>
<polygon fill="midnightblue" stroke="midnightblue" points="873.53,-371.9 882.67,-366.53 872.18,-365.03 873.53,-371.9"/>
</g>
<!-- Node41 -->
<g id="node41" class="node">
<title>Node41</title>
<g id="a_node41"><a xlink:title=" ">
<polygon fill="none" stroke="#bfbfbf" points="994,-347.5 994,-366.5 1084,-366.5 1084,-347.5 994,-347.5"/>
<text text-anchor="middle" x="1039" y="-354.5" font-family="Helvetica,sans-Serif" font-size="10.00">tblite/version.h</text>
</a>
</g>
</g>
<!-- Node1&#45;&gt;Node41 -->
<g id="edge67" class="edge">
<title>Node1&#45;&gt;Node41</title>
<path fill="none" stroke="midnightblue" d="M660.08,-414.22C735.13,-403.83 863.46,-385.77 983.8,-367.16"/>
<polygon fill="midnightblue" stroke="midnightblue" points="984.59,-370.58 993.93,-365.59 983.51,-363.66 984.59,-370.58"/>
</g>
<!-- Node3&#45;&gt;Node4 -->
<g id="edge3" class="edge">
<title>Node3&#45;&gt;Node4</title>
<path fill="none" stroke="midnightblue" d="M1226.23,-291.92C1223.45,-291.58 1220.69,-291.27 1218,-291 1117.67,-281.02 425.18,-256.13 204.44,-248.36"/>
<polygon fill="midnightblue" stroke="midnightblue" points="204.41,-244.85 194.29,-248 204.16,-251.85 204.41,-244.85"/>
</g>
<!-- Node14 -->
<g id="node14" class="node">
<title>Node14</title>
<g id="a_node14"><a xlink:title=" ">
<polygon fill="none" stroke="#bfbfbf" points="1375,-174 1375,-193 1431,-193 1431,-174 1375,-174"/>
<text text-anchor="middle" x="1403" y="-181" font-family="Helvetica,sans-Serif" font-size="10.00">optional</text>
</a>
</g>
</g>
<!-- Node3&#45;&gt;Node14 -->
<g id="edge15" class="edge">
<title>Node3&#45;&gt;Node14</title>
<path fill="none" stroke="midnightblue" d="M1284.62,-291.32C1306.12,-271.92 1358.3,-224.83 1385.64,-200.16"/>
<polygon fill="midnightblue" stroke="midnightblue" points="1388.19,-202.58 1393.27,-193.28 1383.5,-197.38 1388.19,-202.58"/>
</g>
<!-- Node4&#45;&gt;Node2 -->
<g id="edge4" class="edge">
<title>Node4&#45;&gt;Node2</title>
<path fill="none" stroke="midnightblue" d="M120.38,-235.48C101.08,-225.58 69.04,-209.14 46.57,-197.62"/>
<polygon fill="midnightblue" stroke="midnightblue" points="48.08,-194.46 37.59,-193.01 44.89,-200.69 48.08,-194.46"/>
</g>
<!-- Node5 -->
<g id="node5" class="node">
<title>Node5</title>
<g id="a_node5"><a xlink:href="atom_8h.html" target="_top" xlink:title=" ">
<polygon fill="none" stroke="black" points="98.5,-112.5 98.5,-131.5 193.5,-131.5 193.5,-112.5 98.5,-112.5"/>
<text text-anchor="middle" x="146" y="-119.5" font-family="Helvetica,sans-Serif" font-size="10.00">occ/core/atom.h</text>
</a>
</g>
</g>
<!-- Node4&#45;&gt;Node5 -->
<g id="edge5" class="edge">
<title>Node4&#45;&gt;Node5</title>
<path fill="none" stroke="midnightblue" d="M137.65,-235.3C139.09,-215.85 142.62,-168.49 144.59,-141.9"/>
<polygon fill="midnightblue" stroke="midnightblue" points="148.11,-141.86 145.36,-131.62 141.13,-141.34 148.11,-141.86"/>
</g>
<!-- Node6 -->
<g id="node6" class="node">
<title>Node6</title>
<g id="a_node6"><a xlink:href="linear__algebra_8h.html" target="_top" xlink:title=" ">
<polygon fill="none" stroke="black" points="144.5,-56.5 144.5,-75.5 283.5,-75.5 283.5,-56.5 144.5,-56.5"/>
<text text-anchor="middle" x="214" y="-63.5" font-family="Helvetica,sans-Serif" font-size="10.00">occ/core/linear_algebra.h</text>
</a>
</g>
</g>
<!-- Node4&#45;&gt;Node6 -->
<g id="edge13" class="edge">
<title>Node4&#45;&gt;Node6</title>
<path fill="none" stroke="midnightblue" d="M128.62,-235.24C108.33,-212.94 60.26,-152.9 89,-112 100.46,-95.7 118.42,-85.27 137.19,-78.61"/>
<polygon fill="midnightblue" stroke="midnightblue" points="138.29,-81.94 146.75,-75.55 136.16,-75.27 138.29,-81.94"/>
</g>
<!-- Node10 -->
<g id="node10" class="node">
<title>Node10</title>
<g id="a_node10"><a xlink:href="element_8h.html" target="_top" xlink:title=" ">
<polygon fill="none" stroke="black" points="807,-112.5 807,-131.5 917,-131.5 917,-112.5 807,-112.5"/>
<text text-anchor="middle" x="862" y="-119.5" font-family="Helvetica,sans-Serif" font-size="10.00">occ/core/element.h</text>
</a>
</g>
</g>
<!-- Node4&#45;&gt;Node10 -->
<g id="edge10" class="edge">
<title>Node4&#45;&gt;Node10</title>
<path fill="none" stroke="midnightblue" d="M194.01,-240.46C275.43,-234.82 429.51,-222.03 559,-199 655.46,-181.85 766.67,-151.06 823.78,-134.42"/>
<polygon fill="midnightblue" stroke="midnightblue" points="824.85,-137.75 833.46,-131.58 822.88,-131.03 824.85,-137.75"/>
</g>
<!-- Node13 -->
<g id="node13" class="node">
<title>Node13</title>
<g id="a_node13"><a xlink:title=" ">
<polygon fill="none" stroke="#bfbfbf" points="152.5,-174 152.5,-193 193.5,-193 193.5,-174 152.5,-174"/>
<text text-anchor="middle" x="173" y="-181" font-family="Helvetica,sans-Serif" font-size="10.00">tuple</text>
</a>
</g>
</g>
<!-- Node4&#45;&gt;Node13 -->
<g id="edge14" class="edge">
<title>Node4&#45;&gt;Node13</title>
<path fill="none" stroke="midnightblue" d="M142.16,-235.48C147.45,-226.73 155.84,-212.87 162.53,-201.81"/>
<polygon fill="midnightblue" stroke="midnightblue" points="165.67,-203.38 167.85,-193.01 159.68,-199.75 165.67,-203.38"/>
</g>
<!-- Node5&#45;&gt;Node6 -->
<g id="edge6" class="edge">
<title>Node5&#45;&gt;Node6</title>
<path fill="none" stroke="midnightblue" d="M156.93,-112.32C167.17,-104.18 182.72,-91.84 195,-82.09"/>
<polygon fill="midnightblue" stroke="midnightblue" points="197.22,-84.79 202.88,-75.83 192.87,-79.31 197.22,-84.79"/>
</g>
<!-- Node7 -->
<g id="node7" class="node">
<title>Node7</title>
<g id="a_node7"><a xlink:title=" ">
<polygon fill="none" stroke="#bfbfbf" points="124.5,-0.5 124.5,-19.5 201.5,-19.5 201.5,-0.5 124.5,-0.5"/>
<text text-anchor="middle" x="163" y="-7.5" font-family="Helvetica,sans-Serif" font-size="10.00">Eigen/Dense</text>
</a>
</g>
</g>
<!-- Node6&#45;&gt;Node7 -->
<g id="edge7" class="edge">
<title>Node6&#45;&gt;Node7</title>
<path fill="none" stroke="midnightblue" d="M205.58,-56.08C198.15,-48.22 187.15,-36.57 178.19,-27.08"/>
<polygon fill="midnightblue" stroke="midnightblue" points="180.68,-24.62 171.26,-19.75 175.59,-29.42 180.68,-24.62"/>
</g>
<!-- Node8 -->
<g id="node8" class="node">
<title>Node8</title>
<g id="a_node8"><a xlink:title=" ">
<polygon fill="none" stroke="#bfbfbf" points="219.5,-0.5 219.5,-19.5 312.5,-19.5 312.5,-0.5 219.5,-0.5"/>
<text text-anchor="middle" x="266" y="-7.5" font-family="Helvetica,sans-Serif" font-size="10.00">Eigen/StdVector</text>
</a>
</g>
</g>
<!-- Node6&#45;&gt;Node8 -->
<g id="edge8" class="edge">
<title>Node6&#45;&gt;Node8</title>
<path fill="none" stroke="midnightblue" d="M222.59,-56.08C230.16,-48.22 241.38,-36.57 250.51,-27.08"/>
<polygon fill="midnightblue" stroke="midnightblue" points="253.16,-29.38 257.57,-19.75 248.12,-24.53 253.16,-29.38"/>
</g>
<!-- Node9 -->
<g id="node9" class="node">
<title>Node9</title>
<g id="a_node9"><a xlink:title=" ">
<polygon fill="none" stroke="#bfbfbf" points="371,-0.5 371,-19.5 457,-19.5 457,-0.5 371,-0.5"/>
<text text-anchor="middle" x="414" y="-7.5" font-family="Helvetica,sans-Serif" font-size="10.00">fmt/ostream.h</text>
</a>
</g>
</g>
<!-- Node6&#45;&gt;Node9 -->
<g id="edge9" class="edge">
<title>Node6&#45;&gt;Node9</title>
<path fill="none" stroke="midnightblue" d="M245.69,-56.44C280.07,-47.16 335.08,-32.31 372.79,-22.13"/>
<polygon fill="midnightblue" stroke="midnightblue" points="373.72,-25.5 382.46,-19.52 371.89,-18.74 373.72,-25.5"/>
</g>
<!-- Node11 -->
<g id="node11" class="node">
<title>Node11</title>
<g id="a_node11"><a xlink:title=" ">
<polygon fill="none" stroke="#bfbfbf" points="847,-56.5 847,-75.5 891,-75.5 891,-56.5 847,-56.5"/>
<text text-anchor="middle" x="869" y="-63.5" font-family="Helvetica,sans-Serif" font-size="10.00">string</text>
</a>
</g>
</g>
<!-- Node10&#45;&gt;Node11 -->
<g id="edge11" class="edge">
<title>Node10&#45;&gt;Node11</title>
<path fill="none" stroke="midnightblue" d="M863.16,-112.08C864.08,-104.93 865.42,-94.64 866.58,-85.69"/>
<polygon fill="midnightblue" stroke="midnightblue" points="870.05,-86.12 867.87,-75.75 863.11,-85.22 870.05,-86.12"/>
</g>
<!-- Node12 -->
<g id="node12" class="node">
<title>Node12</title>
<g id="a_node12"><a xlink:title=" ">
<polygon fill="none" stroke="#bfbfbf" points="959.5,-56.5 959.5,-75.5 1006.5,-75.5 1006.5,-56.5 959.5,-56.5"/>
<text text-anchor="middle" x="983" y="-63.5" font-family="Helvetica,sans-Serif" font-size="10.00">vector</text>
</a>
</g>
</g>
<!-- Node10&#45;&gt;Node12 -->
<g id="edge12" class="edge">
<title>Node10&#45;&gt;Node12</title>
<path fill="none" stroke="midnightblue" d="M881.17,-112.44C900.91,-103.64 931.89,-89.81 954.49,-79.72"/>
<polygon fill="midnightblue" stroke="midnightblue" points="956.21,-82.79 963.92,-75.52 953.36,-76.4 956.21,-82.79"/>
</g>
<!-- Node15&#45;&gt;Node3 -->
<g id="edge24" class="edge">
<title>Node15&#45;&gt;Node3</title>
<path fill="none" stroke="midnightblue" d="M489.31,-348.36C493.94,-347.86 498.54,-347.39 503,-347 816.54,-319.27 899.74,-343.33 1215.85,-311.12"/>
<polygon fill="midnightblue" stroke="midnightblue" points="1216.64,-314.56 1226.23,-310.05 1215.92,-307.59 1216.64,-314.56"/>
</g>
<!-- Node15&#45;&gt;Node4 -->
<g id="edge26" class="edge">
<title>Node15&#45;&gt;Node4</title>
<path fill="none" stroke="midnightblue" d="M374.93,-353.01C327.94,-348.61 260.7,-337.76 208,-311 184.83,-299.24 163.61,-277.79 150.53,-262.75"/>
<polygon fill="midnightblue" stroke="midnightblue" points="152.92,-260.16 143.81,-254.77 147.57,-264.67 152.92,-260.16"/>
</g>
<!-- Node15&#45;&gt;Node6 -->
<g id="edge25" class="edge">
<title>Node15&#45;&gt;Node6</title>
<path fill="none" stroke="midnightblue" d="M374.89,-350.5C312.71,-340.99 222,-315.25 222,-246 222,-246 222,-246 222,-182.5 222,-148.28 218.46,-108.5 216.09,-85.68"/>
<polygon fill="midnightblue" stroke="midnightblue" points="219.57,-85.25 215.01,-75.68 212.61,-86 219.57,-85.25"/>
</g>
<!-- Node15&#45;&gt;Node12 -->
<g id="edge62" class="edge">
<title>Node15&#45;&gt;Node12</title>
<path fill="none" stroke="midnightblue" d="M489.03,-348.98C643.59,-329.59 1059,-274.79 1059,-246 1059,-246 1059,-246 1059,-182.5 1059,-140.81 1024.02,-102.53 1001.52,-82.22"/>
<polygon fill="midnightblue" stroke="midnightblue" points="1003.73,-79.5 993.89,-75.58 999.14,-84.78 1003.73,-79.5"/>
</g>
<!-- Node16 -->
<g id="node16" class="node">
<title>Node16</title>
<g id="a_node16"><a xlink:href="bondgraph_8h.html" target="_top" xlink:title=" ">
<polygon fill="none" stroke="black" points="1087.5,-291.5 1087.5,-310.5 1208.5,-310.5 1208.5,-291.5 1087.5,-291.5"/>
<text text-anchor="middle" x="1148" y="-298.5" font-family="Helvetica,sans-Serif" font-size="10.00">occ/core/bondgraph.h</text>
</a>
</g>
</g>
<!-- Node15&#45;&gt;Node16 -->
<g id="edge18" class="edge">
<title>Node15&#45;&gt;Node16</title>
<path fill="none" stroke="midnightblue" d="M489.32,-348.42C493.94,-347.9 498.55,-347.42 503,-347 755.7,-323.03 820.22,-334.13 1073,-311 1074.47,-310.87 1075.95,-310.73 1077.45,-310.58"/>
<polygon fill="midnightblue" stroke="midnightblue" points="1077.85,-314.06 1087.45,-309.56 1077.15,-307.09 1077.85,-314.06"/>
</g>
<!-- Node21 -->
<g id="node21" class="node">
<title>Node21</title>
<g id="a_node21"><a xlink:href="asymmetric__unit_8h.html" target="_top" xlink:title=" ">
<polygon fill="none" stroke="black" points="861.5,-168.5 861.5,-198.5 992.5,-198.5 992.5,-168.5 861.5,-168.5"/>
<text text-anchor="start" x="869.5" y="-186.5" font-family="Helvetica,sans-Serif" font-size="10.00">occ/crystal/asymmetric</text>
<text text-anchor="middle" x="927" y="-175.5" font-family="Helvetica,sans-Serif" font-size="10.00">_unit.h</text>
</a>
</g>
</g>
<!-- Node15&#45;&gt;Node21 -->
<g id="edge27" class="edge">
<title>Node15&#45;&gt;Node21</title>
<path fill="none" stroke="midnightblue" d="M489.06,-348.39C566.96,-336.41 709.54,-308.78 820,-255 849.18,-240.79 879.86,-219.88 900.84,-204.52"/>
<polygon fill="midnightblue" stroke="midnightblue" points="902.99,-207.29 908.94,-198.52 898.82,-201.66 902.99,-207.29"/>
</g>
<!-- Node22 -->
<g id="node22" class="node">
<title>Node22</title>
<g id="a_node22"><a xlink:href="hkl_8h.html" target="_top" xlink:title=" ">
<polygon fill="none" stroke="black" points="250,-112.5 250,-131.5 346,-131.5 346,-112.5 250,-112.5"/>
<text text-anchor="middle" x="298" y="-119.5" font-family="Helvetica,sans-Serif" font-size="10.00">occ/crystal/hkl.h</text>
</a>
</g>
</g>
<!-- Node15&#45;&gt;Node22 -->
<g id="edge32" class="edge">
<title>Node15&#45;&gt;Node22</title>
<path fill="none" stroke="midnightblue" d="M422.06,-347.26C412.5,-338.57 397.91,-324.63 387,-311 350.16,-264.99 338.88,-253.31 316,-199 308.12,-180.3 303.3,-157.49 300.66,-141.76"/>
<polygon fill="midnightblue" stroke="midnightblue" points="304.09,-141.07 299.1,-131.73 297.18,-142.14 304.09,-141.07"/>
</g>
<!-- Node23 -->
<g id="node23" class="node">
<title>Node23</title>
<g id="a_node23"><a xlink:href="spacegroup_8h.html" target="_top" xlink:title=" ">
<polygon fill="none" stroke="black" points="506.5,-291.5 506.5,-310.5 643.5,-310.5 643.5,-291.5 506.5,-291.5"/>
<text text-anchor="middle" x="575" y="-298.5" font-family="Helvetica,sans-Serif" font-size="10.00">occ/crystal/spacegroup.h</text>
</a>
</g>
</g>
<!-- Node15&#45;&gt;Node23 -->
<g id="edge34" class="edge">
<title>Node15&#45;&gt;Node23</title>
<path fill="none" stroke="midnightblue" d="M454.66,-347.44C478.4,-338.48 515.91,-324.31 542.74,-314.18"/>
<polygon fill="midnightblue" stroke="midnightblue" points="544.33,-317.32 552.45,-310.52 541.86,-310.77 544.33,-317.32"/>
</g>
<!-- Node27 -->
<g id="node27" class="node">
<title>Node27</title>
<g id="a_node27"><a xlink:href="unitcell_8h.html" target="_top" xlink:title=" ">
<polygon fill="none" stroke="black" points="432.5,-174 432.5,-193 549.5,-193 549.5,-174 432.5,-174"/>
<text text-anchor="middle" x="491" y="-181" font-family="Helvetica,sans-Serif" font-size="10.00">occ/crystal/unitcell.h</text>
</a>
</g>
</g>
<!-- Node15&#45;&gt;Node27 -->
<g id="edge61" class="edge">
<title>Node15&#45;&gt;Node27</title>
<path fill="none" stroke="midnightblue" d="M424.43,-347.2C407.49,-326.4 369.79,-273.07 393,-235 404.47,-216.18 425.45,-204.07 445.07,-196.45"/>
<polygon fill="midnightblue" stroke="midnightblue" points="446.31,-199.72 454.54,-193.06 443.94,-193.13 446.31,-199.72"/>
</g>
<!-- Node17 -->
<g id="node17" class="node">
<title>Node17</title>
<g id="a_node17"><a xlink:href="graph_8h.html" target="_top" xlink:title=" ">
<polygon fill="none" stroke="black" points="1171.5,-235.5 1171.5,-254.5 1268.5,-254.5 1268.5,-235.5 1171.5,-235.5"/>
<text text-anchor="middle" x="1220" y="-242.5" font-family="Helvetica,sans-Serif" font-size="10.00">occ/core/graph.h</text>
</a>
</g>
</g>
<!-- Node16&#45;&gt;Node17 -->
<g id="edge19" class="edge">
<title>Node16&#45;&gt;Node17</title>
<path fill="none" stroke="midnightblue" d="M1159.57,-291.32C1170.42,-283.18 1186.88,-270.84 1199.88,-261.09"/>
<polygon fill="midnightblue" stroke="midnightblue" points="1202.32,-263.63 1208.22,-254.83 1198.12,-258.03 1202.32,-263.63"/>
</g>
<!-- Node17&#45;&gt;Node14 -->
<g id="edge21" class="edge">
<title>Node17&#45;&gt;Node14</title>
<path fill="none" stroke="midnightblue" d="M1250.13,-235.43C1279.8,-226.82 1326.31,-212.87 1366,-199 1368.12,-198.26 1370.29,-197.47 1372.48,-196.67"/>
<polygon fill="midnightblue" stroke="midnightblue" points="1373.87,-199.88 1381.97,-193.05 1371.38,-193.34 1373.87,-199.88"/>
</g>
<!-- Node18 -->
<g id="node18" class="node">
<title>Node18</title>
<g id="a_node18"><a xlink:title=" ">
<polygon fill="none" stroke="#bfbfbf" points="1148.5,-174 1148.5,-193 1291.5,-193 1291.5,-174 1148.5,-174"/>
<text text-anchor="middle" x="1220" y="-181" font-family="Helvetica,sans-Serif" font-size="10.00">ankerl/unordered_dense.h</text>
</a>
</g>
</g>
<!-- Node17&#45;&gt;Node18 -->
<g id="edge20" class="edge">
<title>Node17&#45;&gt;Node18</title>
<path fill="none" stroke="midnightblue" d="M1220,-235.48C1220,-227.08 1220,-213.98 1220,-203.16"/>
<polygon fill="midnightblue" stroke="midnightblue" points="1223.5,-203.01 1220,-193.01 1216.5,-203.01 1223.5,-203.01"/>
</g>
<!-- Node19 -->
<g id="node19" class="node">
<title>Node19</title>
<g id="a_node19"><a xlink:title=" ">
<polygon fill="none" stroke="#bfbfbf" points="1309.5,-174 1309.5,-193 1356.5,-193 1356.5,-174 1309.5,-174"/>
<text text-anchor="middle" x="1333" y="-181" font-family="Helvetica,sans-Serif" font-size="10.00">queue</text>
</a>
</g>
</g>
<!-- Node17&#45;&gt;Node19 -->
<g id="edge22" class="edge">
<title>Node17&#45;&gt;Node19</title>
<path fill="none" stroke="midnightblue" d="M1236.19,-235.48C1254.9,-225.62 1285.92,-209.29 1307.8,-197.77"/>
<polygon fill="midnightblue" stroke="midnightblue" points="1309.62,-200.77 1316.84,-193.01 1306.36,-194.57 1309.62,-200.77"/>
</g>
<!-- Node20 -->
<g id="node20" class="node">
<title>Node20</title>
<g id="a_node20"><a xlink:title=" ">
<polygon fill="none" stroke="#bfbfbf" points="1087.5,-174 1087.5,-193 1130.5,-193 1130.5,-174 1087.5,-174"/>
<text text-anchor="middle" x="1109" y="-181" font-family="Helvetica,sans-Serif" font-size="10.00">stack</text>
</a>
</g>
</g>
<!-- Node17&#45;&gt;Node20 -->
<g id="edge23" class="edge">
<title>Node17&#45;&gt;Node20</title>
<path fill="none" stroke="midnightblue" d="M1204.1,-235.48C1185.72,-225.62 1155.24,-209.29 1133.76,-197.77"/>
<polygon fill="midnightblue" stroke="midnightblue" points="1135.34,-194.65 1124.87,-193.01 1132.03,-200.82 1135.34,-194.65"/>
</g>
<!-- Node21&#45;&gt;Node6 -->
<g id="edge29" class="edge">
<title>Node21&#45;&gt;Node6</title>
<path fill="none" stroke="midnightblue" d="M861.35,-180.66C771.72,-176.93 606.59,-165.7 470,-132 446.36,-126.17 442.3,-119.08 419,-112 370.53,-97.28 314.24,-85.27 272.92,-77.38"/>
<polygon fill="midnightblue" stroke="midnightblue" points="273.49,-73.92 263.02,-75.51 272.2,-80.8 273.49,-73.92"/>
</g>
<!-- Node21&#45;&gt;Node10 -->
<g id="edge28" class="edge">
<title>Node21&#45;&gt;Node10</title>
<path fill="none" stroke="midnightblue" d="M911.6,-168.4C901.76,-159.4 889.01,-147.72 878.89,-138.47"/>
<polygon fill="midnightblue" stroke="midnightblue" points="881.2,-135.83 871.46,-131.66 876.47,-140.99 881.2,-135.83"/>
</g>
<!-- Node21&#45;&gt;Node11 -->
<g id="edge30" class="edge">
<title>Node21&#45;&gt;Node11</title>
<path fill="none" stroke="midnightblue" d="M930.2,-168.43C932.82,-153.58 934.83,-129.89 926,-112 919.51,-98.85 907.15,-88.35 895.59,-80.82"/>
<polygon fill="midnightblue" stroke="midnightblue" points="897.39,-77.82 887.02,-75.64 893.77,-83.81 897.39,-77.82"/>
</g>
<!-- Node21&#45;&gt;Node12 -->
<g id="edge31" class="edge">
<title>Node21&#45;&gt;Node12</title>
<path fill="none" stroke="midnightblue" d="M937.08,-168.39C943.85,-158.51 952.65,-144.84 959,-132 966.5,-116.84 973,-98.72 977.34,-85.47"/>
<polygon fill="midnightblue" stroke="midnightblue" points="980.76,-86.24 980.45,-75.65 974.09,-84.13 980.76,-86.24"/>
</g>
<!-- Node22&#45;&gt;Node6 -->
<g id="edge33" class="edge">
<title>Node22&#45;&gt;Node6</title>
<path fill="none" stroke="midnightblue" d="M284.5,-112.32C271.4,-103.9 251.29,-90.97 235.89,-81.07"/>
<polygon fill="midnightblue" stroke="midnightblue" points="237.77,-78.12 227.46,-75.65 233.98,-84.01 237.77,-78.12"/>
</g>
<!-- Node23&#45;&gt;Node11 -->
<g id="edge58" class="edge">
<title>Node23&#45;&gt;Node11</title>
<path fill="none" stroke="midnightblue" d="M631.91,-291.5C691.15,-282.09 776.74,-266.71 787,-255 828.99,-207.04 765.15,-166.63 798,-112 806.94,-97.12 822.9,-86.36 837.43,-79.09"/>
<polygon fill="midnightblue" stroke="midnightblue" points="839.07,-82.19 846.68,-74.82 836.13,-75.83 839.07,-82.19"/>
</g>
<!-- Node23&#45;&gt;Node12 -->
<g id="edge60" class="edge">
<title>Node23&#45;&gt;Node12</title>
<path fill="none" stroke="midnightblue" d="M643.75,-294.16C753.26,-283.25 959.34,-255.56 1002,-199 1027.58,-165.09 1006.74,-111.99 992.87,-84.62"/>
<polygon fill="midnightblue" stroke="midnightblue" points="995.96,-82.97 988.18,-75.78 989.78,-86.25 995.96,-82.97"/>
</g>
<!-- Node23&#45;&gt;Node13 -->
<g id="edge59" class="edge">
<title>Node23&#45;&gt;Node13</title>
<path fill="none" stroke="midnightblue" d="M506.43,-292.81C454.85,-286.21 382.88,-274.43 322,-255 275.71,-240.22 225.27,-214.03 196.56,-198.07"/>
<polygon fill="midnightblue" stroke="midnightblue" points="198.12,-194.93 187.69,-193.08 194.69,-201.03 198.12,-194.93"/>
</g>
<!-- Node23&#45;&gt;Node22 -->
<g id="edge37" class="edge">
<title>Node23&#45;&gt;Node22</title>
<path fill="none" stroke="midnightblue" d="M506.4,-294.48C470.18,-288.88 426.43,-277.61 393,-255 349.67,-225.7 319.31,-169.68 305.83,-140.96"/>
<polygon fill="midnightblue" stroke="midnightblue" points="308.95,-139.37 301.64,-131.71 302.58,-142.26 308.95,-139.37"/>
</g>
<!-- Node24 -->
<g id="node24" class="node">
<title>Node24</title>
<g id="a_node24"><a xlink:title=" ">
<polygon fill="none" stroke="#bfbfbf" points="598,-235.5 598,-254.5 722,-254.5 722,-235.5 598,-235.5"/>
<text text-anchor="middle" x="660" y="-242.5" font-family="Helvetica,sans-Serif" font-size="10.00">gemmi/symmetry.hpp</text>
</a>
</g>
</g>
<!-- Node23&#45;&gt;Node24 -->
<g id="edge35" class="edge">
<title>Node23&#45;&gt;Node24</title>
<path fill="none" stroke="midnightblue" d="M588.66,-291.32C601.92,-282.9 622.27,-269.97 637.85,-260.07"/>
<polygon fill="midnightblue" stroke="midnightblue" points="639.81,-262.97 646.38,-254.65 636.06,-257.06 639.81,-262.97"/>
</g>
<!-- Node25 -->
<g id="node25" class="node">
<title>Node25</title>
<g id="a_node25"><a xlink:title=" ">
<polygon fill="none" stroke="#bfbfbf" points="740,-235.5 740,-254.5 778,-254.5 778,-235.5 740,-235.5"/>
<text text-anchor="middle" x="759" y="-242.5" font-family="Helvetica,sans-Serif" font-size="10.00">map</text>
</a>
</g>
</g>
<!-- Node23&#45;&gt;Node25 -->
<g id="edge36" class="edge">
<title>Node23&#45;&gt;Node25</title>
<path fill="none" stroke="midnightblue" d="M605.57,-291.48C635.11,-283.17 681.35,-270.01 729.99,-255.25"/>
<polygon fill="midnightblue" stroke="midnightblue" points="731.2,-258.54 739.74,-252.27 729.16,-251.84 731.2,-258.54"/>
</g>
<!-- Node26 -->
<g id="node26" class="node">
<title>Node26</title>
<g id="a_node26"><a xlink:href="symmetryoperation_8h.html" target="_top" xlink:title=" ">
<polygon fill="none" stroke="black" points="402,-235.5 402,-254.5 580,-254.5 580,-235.5 402,-235.5"/>
<text text-anchor="middle" x="491" y="-242.5" font-family="Helvetica,sans-Serif" font-size="10.00">occ/crystal/symmetryoperation.h</text>
</a>
</g>
</g>
<!-- Node23&#45;&gt;Node26 -->
<g id="edge38" class="edge">
<title>Node23&#45;&gt;Node26</title>
<path fill="none" stroke="midnightblue" d="M561.5,-291.32C548.4,-282.9 528.29,-269.97 512.89,-260.07"/>
<polygon fill="midnightblue" stroke="midnightblue" points="514.77,-257.12 504.46,-254.65 510.98,-263.01 514.77,-257.12"/>
</g>
<!-- Node26&#45;&gt;Node6 -->
<g id="edge39" class="edge">
<title>Node26&#45;&gt;Node6</title>
<path fill="none" stroke="midnightblue" d="M475.39,-235.4C461.15,-227.13 439.95,-213.74 424,-199 387.75,-165.51 395.6,-140.05 355,-112 331.1,-95.49 300.81,-84.78 274.43,-77.98"/>
<polygon fill="midnightblue" stroke="midnightblue" points="275.08,-74.53 264.54,-75.56 273.42,-81.33 275.08,-74.53"/>
</g>
<!-- Node26&#45;&gt;Node11 -->
<g id="edge57" class="edge">
<title>Node26&#45;&gt;Node11</title>
<path fill="none" stroke="midnightblue" d="M508.2,-235.42C551.21,-214.01 667.03,-156.77 765,-112 789.87,-100.63 818.39,-88.35 839.27,-79.49"/>
<polygon fill="midnightblue" stroke="midnightblue" points="840.72,-82.67 848.57,-75.55 837.99,-76.23 840.72,-82.67"/>
</g>
<!-- Node26&#45;&gt;Node27 -->
<g id="edge40" class="edge">
<title>Node26&#45;&gt;Node27</title>
<path fill="none" stroke="midnightblue" d="M491,-235.48C491,-227.08 491,-213.98 491,-203.16"/>
<polygon fill="midnightblue" stroke="midnightblue" points="494.5,-203.01 491,-193.01 487.5,-203.01 494.5,-203.01"/>
</g>
<!-- Node27&#45;&gt;Node6 -->
<g id="edge41" class="edge">
<title>Node27&#45;&gt;Node6</title>
<path fill="none" stroke="midnightblue" d="M480.91,-173.79C463.25,-158.98 425.09,-128.86 388,-112 352.32,-95.78 309.77,-84.65 275.67,-77.51"/>
<polygon fill="midnightblue" stroke="midnightblue" points="276.34,-74.07 265.84,-75.51 274.94,-80.93 276.34,-74.07"/>
</g>
<!-- Node27&#45;&gt;Node11 -->
<g id="edge56" class="edge">
<title>Node27&#45;&gt;Node11</title>
<path fill="none" stroke="midnightblue" d="M532.31,-173.95C571.84,-165.24 632.84,-150.42 684,-132 703.83,-124.86 707.36,-119.64 727,-112 747.18,-104.15 801.73,-87.31 837.04,-76.61"/>
<polygon fill="midnightblue" stroke="midnightblue" points="838.32,-79.87 846.88,-73.63 836.3,-73.17 838.32,-79.87"/>
</g>
<!-- Node27&#45;&gt;Node22 -->
<g id="edge55" class="edge">
<title>Node27&#45;&gt;Node22</title>
<path fill="none" stroke="midnightblue" d="M463.35,-173.98C429.81,-163.64 373.13,-146.16 335.63,-134.6"/>
<polygon fill="midnightblue" stroke="midnightblue" points="336.19,-131.11 325.6,-131.51 334.13,-137.8 336.19,-131.11"/>
</g>
<!-- Node28 -->
<g id="node28" class="node">
<title>Node28</title>
<g id="a_node28"><a xlink:href="units_8h.html" target="_top" xlink:title=" ">
<polygon fill="none" stroke="black" points="581.5,-112.5 581.5,-131.5 674.5,-131.5 674.5,-112.5 581.5,-112.5"/>
<text text-anchor="middle" x="628" y="-119.5" font-family="Helvetica,sans-Serif" font-size="10.00">occ/core/units.h</text>
</a>
</g>
</g>
<!-- Node27&#45;&gt;Node28 -->
<g id="edge42" class="edge">
<title>Node27&#45;&gt;Node28</title>
<path fill="none" stroke="midnightblue" d="M510.63,-173.98C533.82,-163.9 572.62,-147.05 599.21,-135.5"/>
<polygon fill="midnightblue" stroke="midnightblue" points="600.63,-138.7 608.41,-131.51 597.84,-132.28 600.63,-138.7"/>
</g>
<!-- Node30 -->
<g id="node30" class="node">
<title>Node30</title>
<g id="a_node30"><a xlink:href="util_8h.html" target="_top" xlink:title=" ">
<polygon fill="none" stroke="black" points="478.5,-112.5 478.5,-131.5 563.5,-131.5 563.5,-112.5 478.5,-112.5"/>
<text text-anchor="middle" x="521" y="-119.5" font-family="Helvetica,sans-Serif" font-size="10.00">occ/core/util.h</text>
</a>
</g>
</g>
<!-- Node27&#45;&gt;Node30 -->
<g id="edge44" class="edge">
<title>Node27&#45;&gt;Node30</title>
<path fill="none" stroke="midnightblue" d="M495.3,-173.98C499.66,-165.32 506.56,-151.65 512.1,-140.65"/>
<polygon fill="midnightblue" stroke="midnightblue" points="515.33,-142.01 516.71,-131.51 509.08,-138.86 515.33,-142.01"/>
</g>
<!-- Node29 -->
<g id="node29" class="node">
<title>Node29</title>
<g id="a_node29"><a xlink:title=" ">
<polygon fill="none" stroke="#bfbfbf" points="781.5,-56.5 781.5,-75.5 828.5,-75.5 828.5,-56.5 781.5,-56.5"/>
<text text-anchor="middle" x="805" y="-63.5" font-family="Helvetica,sans-Serif" font-size="10.00">cmath</text>
</a>
</g>
</g>
<!-- Node28&#45;&gt;Node29 -->
<g id="edge43" class="edge">
<title>Node28&#45;&gt;Node29</title>
<path fill="none" stroke="midnightblue" d="M656.05,-112.44C687.41,-102.88 738.17,-87.39 771.57,-77.2"/>
<polygon fill="midnightblue" stroke="midnightblue" points="772.79,-80.49 781.33,-74.22 770.75,-73.79 772.79,-80.49"/>
</g>
<!-- Node30&#45;&gt;Node6 -->
<g id="edge51" class="edge">
<title>Node30&#45;&gt;Node6</title>
<path fill="none" stroke="midnightblue" d="M478.31,-113.49C424.74,-104.07 332.59,-87.86 272.49,-77.29"/>
<polygon fill="midnightblue" stroke="midnightblue" points="272.85,-73.8 262.39,-75.51 271.63,-80.69 272.85,-73.8"/>
</g>
<!-- Node30&#45;&gt;Node9 -->
<g id="edge48" class="edge">
<title>Node30&#45;&gt;Node9</title>
<path fill="none" stroke="midnightblue" d="M511.22,-112.26C501.36,-103.35 485.82,-89.03 473,-76 457.22,-59.96 440.01,-40.8 428.28,-27.45"/>
<polygon fill="midnightblue" stroke="midnightblue" points="430.64,-24.84 421.43,-19.61 425.37,-29.45 430.64,-24.84"/>
</g>
<!-- Node30&#45;&gt;Node11 -->
<g id="edge52" class="edge">
<title>Node30&#45;&gt;Node11</title>
<path fill="none" stroke="midnightblue" d="M563.55,-113.51C566.74,-112.98 569.92,-112.48 573,-112 687.26,-94.36 719.95,-100.28 836.7,-76.01"/>
<polygon fill="midnightblue" stroke="midnightblue" points="837.69,-79.38 846.75,-73.89 836.24,-72.53 837.69,-79.38"/>
</g>
<!-- Node30&#45;&gt;Node12 -->
<g id="edge53" class="edge">
<title>Node30&#45;&gt;Node12</title>
<path fill="none" stroke="midnightblue" d="M563.53,-113.42C566.73,-112.91 569.92,-112.44 573,-112 582.31,-110.68 852.55,-81.21 949.11,-70.69"/>
<polygon fill="midnightblue" stroke="midnightblue" points="949.66,-74.15 959.22,-69.59 948.9,-67.19 949.66,-74.15"/>
</g>
<!-- Node31 -->
<g id="node31" class="node">
<title>Node31</title>
<g id="a_node31"><a xlink:title=" ">
<polygon fill="none" stroke="#bfbfbf" points="482,-56.5 482,-75.5 546,-75.5 546,-56.5 482,-56.5"/>
<text text-anchor="middle" x="514" y="-63.5" font-family="Helvetica,sans-Serif" font-size="10.00">algorithm</text>
</a>
</g>
</g>
<!-- Node30&#45;&gt;Node31 -->
<g id="edge45" class="edge">
<title>Node30&#45;&gt;Node31</title>
<path fill="none" stroke="midnightblue" d="M519.84,-112.08C518.92,-104.93 517.58,-94.64 516.42,-85.69"/>
<polygon fill="midnightblue" stroke="midnightblue" points="519.89,-85.22 515.13,-75.75 512.95,-86.12 519.89,-85.22"/>
</g>
<!-- Node32 -->
<g id="node32" class="node">
<title>Node32</title>
<g id="a_node32"><a xlink:title=" ">
<polygon fill="none" stroke="#bfbfbf" points="564.5,-56.5 564.5,-75.5 613.5,-75.5 613.5,-56.5 564.5,-56.5"/>
<text text-anchor="middle" x="589" y="-63.5" font-family="Helvetica,sans-Serif" font-size="10.00">cctype</text>
</a>
</g>
</g>
<!-- Node30&#45;&gt;Node32 -->
<g id="edge46" class="edge">
<title>Node30&#45;&gt;Node32</title>
<path fill="none" stroke="midnightblue" d="M531.93,-112.32C542.17,-104.18 557.72,-91.84 570,-82.09"/>
<polygon fill="midnightblue" stroke="midnightblue" points="572.22,-84.79 577.88,-75.83 567.87,-79.31 572.22,-84.79"/>
</g>
<!-- Node33 -->
<g id="node33" class="node">
<title>Node33</title>
<g id="a_node33"><a xlink:title=" ">
<polygon fill="none" stroke="#bfbfbf" points="631.5,-56.5 631.5,-75.5 698.5,-75.5 698.5,-56.5 631.5,-56.5"/>
<text text-anchor="middle" x="665" y="-63.5" font-family="Helvetica,sans-Serif" font-size="10.00">fmt/core.h</text>
</a>
</g>
</g>
<!-- Node30&#45;&gt;Node33 -->
<g id="edge47" class="edge">
<title>Node30&#45;&gt;Node33</title>
<path fill="none" stroke="midnightblue" d="M543.82,-112.44C567.83,-103.44 605.83,-89.19 632.87,-79.05"/>
<polygon fill="midnightblue" stroke="midnightblue" points="634.16,-82.3 642.29,-75.52 631.7,-75.75 634.16,-82.3"/>
</g>
<!-- Node34 -->
<g id="node34" class="node">
<title>Node34</title>
<g id="a_node34"><a xlink:title=" ">
<polygon fill="none" stroke="#bfbfbf" points="717,-56.5 717,-75.5 763,-75.5 763,-56.5 717,-56.5"/>
<text text-anchor="middle" x="740" y="-63.5" font-family="Helvetica,sans-Serif" font-size="10.00">locale</text>
</a>
</g>
</g>
<!-- Node30&#45;&gt;Node34 -->
<g id="edge49" class="edge">
<title>Node30&#45;&gt;Node34</title>
<path fill="none" stroke="midnightblue" d="M558.36,-112.45C594.11,-104.17 649.79,-91.02 707.01,-76.19"/>
<polygon fill="midnightblue" stroke="midnightblue" points="708.16,-79.5 716.96,-73.59 706.4,-72.73 708.16,-79.5"/>
</g>
<!-- Node35 -->
<g id="node35" class="node">
<title>Node35</title>
<g id="a_node35"><a xlink:title=" ">
<polygon fill="none" stroke="#bfbfbf" points="302,-56.5 302,-75.5 358,-75.5 358,-56.5 302,-56.5"/>
<text text-anchor="middle" x="330" y="-63.5" font-family="Helvetica,sans-Serif" font-size="10.00">numeric</text>
</a>
</g>
</g>
<!-- Node30&#45;&gt;Node35 -->
<g id="edge50" class="edge">
<title>Node30&#45;&gt;Node35</title>
<path fill="none" stroke="midnightblue" d="M490.74,-112.44C457.47,-103.04 403.97,-87.91 367.93,-77.72"/>
<polygon fill="midnightblue" stroke="midnightblue" points="368.83,-74.34 358.25,-74.99 366.93,-81.08 368.83,-74.34"/>
</g>
<!-- Node36 -->
<g id="node36" class="node">
<title>Node36</title>
<g id="a_node36"><a xlink:title=" ">
<polygon fill="none" stroke="#bfbfbf" points="376,-56.5 376,-75.5 426,-75.5 426,-56.5 376,-56.5"/>
<text text-anchor="middle" x="401" y="-63.5" font-family="Helvetica,sans-Serif" font-size="10.00">chrono</text>
</a>
</g>
</g>
<!-- Node30&#45;&gt;Node36 -->
<g id="edge54" class="edge">
<title>Node30&#45;&gt;Node36</title>
<path fill="none" stroke="midnightblue" d="M501.99,-112.44C482.41,-103.64 451.69,-89.81 429.27,-79.72"/>
<polygon fill="midnightblue" stroke="midnightblue" points="430.48,-76.43 419.93,-75.52 427.61,-82.81 430.48,-76.43"/>
</g>
</g>
</svg>
