<?xml version="1.0" encoding="UTF-8" standalone="no"?>
<!DOCTYPE svg PUBLIC "-//W3C//DTD SVG 1.1//EN"
 "http://www.w3.org/Graphics/SVG/1.1/DTD/svg11.dtd">
<!-- Generated by graphviz version 2.43.0 (0)
 -->
<!-- Title: /home/runner/work/occ/occ/include/occ/xtb/tblite_wrapper.h Pages: 1 -->
<svg width="1613pt" height="453pt"
 viewBox="0.00 0.00 1612.50 453.00" xmlns="http://www.w3.org/2000/svg" xmlns:xlink="http://www.w3.org/1999/xlink">
<g id="graph0" class="graph" transform="scale(1 1) rotate(0) translate(4 449)">
<title>/home/runner/work/occ/occ/include/occ/xtb/tblite_wrapper.h</title>
<!-- Node1 -->
<g id="node1" class="node">
<title>Node1</title>
<g id="a_node1"><a xlink:title=" ">
<polygon fill="#bfbfbf" stroke="black" points="635,-403.5 635,-444.5 763,-444.5 763,-403.5 635,-403.5"/>
<text text-anchor="start" x="643" y="-432.5" font-family="Helvetica,sans-Serif" font-size="10.00">/home/runner/work/occ</text>
<text text-anchor="start" x="643" y="-421.5" font-family="Helvetica,sans-Serif" font-size="10.00">/occ/include/occ/xtb</text>
<text text-anchor="middle" x="699" y="-410.5" font-family="Helvetica,sans-Serif" font-size="10.00">/tblite_wrapper.h</text>
</a>
</g>
</g>
<!-- Node2 -->
<g id="node2" class="node">
<title>Node2</title>
<g id="a_node2"><a xlink:title=" ">
<polygon fill="none" stroke="#bfbfbf" points="362,-174 362,-193 404,-193 404,-174 362,-174"/>
<text text-anchor="middle" x="383" y="-181" font-family="Helvetica,sans-Serif" font-size="10.00">array</text>
</a>
</g>
</g>
<!-- Node1&#45;&gt;Node2 -->
<g id="edge1" class="edge">
<title>Node1&#45;&gt;Node2</title>
<path fill="none" stroke="midnightblue" d="M634.63,-413.05C538.47,-396.7 364.77,-360.92 329,-311 303.4,-275.27 342.53,-225.52 366.55,-200.38"/>
<polygon fill="midnightblue" stroke="midnightblue" points="369.17,-202.71 373.71,-193.14 364.19,-197.79 369.17,-202.71"/>
</g>
<!-- Node3 -->
<g id="node3" class="node">
<title>Node3</title>
<g id="a_node3"><a xlink:href="dimer_8h.html" target="_top" xlink:title=" ">
<polygon fill="none" stroke="black" points="184.5,-291.5 184.5,-310.5 281.5,-310.5 281.5,-291.5 184.5,-291.5"/>
<text text-anchor="middle" x="233" y="-298.5" font-family="Helvetica,sans-Serif" font-size="10.00">occ/core/dimer.h</text>
</a>
</g>
</g>
<!-- Node1&#45;&gt;Node3 -->
<g id="edge2" class="edge">
<title>Node1&#45;&gt;Node3</title>
<path fill="none" stroke="midnightblue" d="M634.65,-419.15C536.29,-412.43 353.87,-396.37 296,-367 274.41,-356.05 256,-334.74 244.75,-319.51"/>
<polygon fill="midnightblue" stroke="midnightblue" points="247.34,-317.1 238.71,-310.96 241.62,-321.14 247.34,-317.1"/>
</g>
<!-- Node4 -->
<g id="node4" class="node">
<title>Node4</title>
<g id="a_node4"><a xlink:href="molecule_8h.html" target="_top" xlink:title=" ">
<polygon fill="none" stroke="black" points="460,-235.5 460,-254.5 574,-254.5 574,-235.5 460,-235.5"/>
<text text-anchor="middle" x="517" y="-242.5" font-family="Helvetica,sans-Serif" font-size="10.00">occ/core/molecule.h</text>
</a>
</g>
</g>
<!-- Node1&#45;&gt;Node4 -->
<g id="edge17" class="edge">
<title>Node1&#45;&gt;Node4</title>
<path fill="none" stroke="midnightblue" d="M634.55,-412.67C585.02,-403.27 522.52,-387.69 507,-367 484.32,-336.77 498.32,-289.53 508.74,-263.94"/>
<polygon fill="midnightblue" stroke="midnightblue" points="511.98,-265.26 512.74,-254.69 505.55,-262.48 511.98,-265.26"/>
</g>
<!-- Node16 -->
<g id="node16" class="node">
<title>Node16</title>
<g id="a_node16"><a xlink:href="crystal_8h.html" target="_top" xlink:title=" ">
<polygon fill="none" stroke="black" points="516,-347.5 516,-366.5 630,-366.5 630,-347.5 516,-347.5"/>
<text text-anchor="middle" x="573" y="-354.5" font-family="Helvetica,sans-Serif" font-size="10.00">occ/crystal/crystal.h</text>
</a>
</g>
</g>
<!-- Node1&#45;&gt;Node16 -->
<g id="edge18" class="edge">
<title>Node1&#45;&gt;Node16</title>
<path fill="none" stroke="midnightblue" d="M661.2,-403.5C641.13,-393.15 616.99,-380.69 599.04,-371.43"/>
<polygon fill="midnightblue" stroke="midnightblue" points="600.26,-368.13 589.77,-366.65 597.06,-374.35 600.26,-368.13"/>
</g>
<!-- Node37 -->
<g id="node37" class="node">
<title>Node37</title>
<g id="a_node37"><a xlink:title=" ">
<polygon fill="none" stroke="#bfbfbf" points="648.5,-347.5 648.5,-366.5 749.5,-366.5 749.5,-347.5 648.5,-347.5"/>
<text text-anchor="middle" x="699" y="-354.5" font-family="Helvetica,sans-Serif" font-size="10.00">tblite/calculator.h</text>
</a>
</g>
</g>
<!-- Node1&#45;&gt;Node37 -->
<g id="edge64" class="edge">
<title>Node1&#45;&gt;Node37</title>
<path fill="none" stroke="midnightblue" d="M699,-403.5C699,-395.07 699,-385.24 699,-376.87"/>
<polygon fill="midnightblue" stroke="midnightblue" points="702.5,-376.65 699,-366.65 695.5,-376.65 702.5,-376.65"/>
</g>
<!-- Node38 -->
<g id="node38" class="node">
<title>Node38</title>
<g id="a_node38"><a xlink:title=" ">
<polygon fill="none" stroke="#bfbfbf" points="767.5,-347.5 767.5,-366.5 844.5,-366.5 844.5,-347.5 767.5,-347.5"/>
<text text-anchor="middle" x="806" y="-354.5" font-family="Helvetica,sans-Serif" font-size="10.00">tblite/error.h</text>
</a>
</g>
</g>
<!-- Node1&#45;&gt;Node38 -->
<g id="edge65" class="edge">
<title>Node1&#45;&gt;Node38</title>
<path fill="none" stroke="midnightblue" d="M731.1,-403.5C747.82,-393.34 767.88,-381.16 783.03,-371.95"/>
<polygon fill="midnightblue" stroke="midnightblue" points="785.03,-374.84 791.76,-366.65 781.39,-368.85 785.03,-374.84"/>
</g>
<!-- Node39 -->
<g id="node39" class="node">
<title>Node39</title>
<g id="a_node39"><a xlink:title=" ">
<polygon fill="none" stroke="#bfbfbf" points="863,-347.5 863,-366.5 961,-366.5 961,-347.5 863,-347.5"/>
<text text-anchor="middle" x="912" y="-354.5" font-family="Helvetica,sans-Serif" font-size="10.00">tblite/structure.h</text>
</a>
</g>
</g>
<!-- Node1&#45;&gt;Node39 -->
<g id="edge66" class="edge">
<title>Node1&#45;&gt;Node39</title>
<path fill="none" stroke="midnightblue" d="M762.91,-403.5C799.13,-392.44 843.22,-378.99 874.02,-369.59"/>
<polygon fill="midnightblue" stroke="midnightblue" points="875.38,-372.83 883.93,-366.57 873.34,-366.14 875.38,-372.83"/>
</g>
<!-- Node40 -->
<g id="node40" class="node">
<title>Node40</title>
<g id="a_node40"><a xlink:title=" ">
<polygon fill="none" stroke="#bfbfbf" points="979.5,-347.5 979.5,-366.5 1078.5,-366.5 1078.5,-347.5 979.5,-347.5"/>
<text text-anchor="middle" x="1029" y="-354.5" font-family="Helvetica,sans-Serif" font-size="10.00">tblite/container.h</text>
</a>
</g>
</g>
<!-- Node1&#45;&gt;Node40 -->
<g id="edge67" class="edge">
<title>Node1&#45;&gt;Node40</title>
<path fill="none" stroke="midnightblue" d="M763.02,-410.39C824.9,-398.2 917.59,-379.95 975.61,-368.52"/>
<polygon fill="midnightblue" stroke="midnightblue" points="976.53,-371.9 985.67,-366.53 975.18,-365.03 976.53,-371.9"/>
</g>
<!-- Node41 -->
<g id="node41" class="node">
<title>Node41</title>
<g id="a_node41"><a xlink:title=" ">
<polygon fill="none" stroke="#bfbfbf" points="1097,-347.5 1097,-366.5 1187,-366.5 1187,-347.5 1097,-347.5"/>
<text text-anchor="middle" x="1142" y="-354.5" font-family="Helvetica,sans-Serif" font-size="10.00">tblite/version.h</text>
</a>
</g>
</g>
<!-- Node1&#45;&gt;Node41 -->
<g id="edge68" class="edge">
<title>Node1&#45;&gt;Node41</title>
<path fill="none" stroke="midnightblue" d="M763.25,-414.11C840.25,-403.36 973.15,-384.53 1087,-367 1087.1,-366.98 1087.2,-366.97 1087.31,-366.95"/>
<polygon fill="midnightblue" stroke="midnightblue" points="1087.65,-370.44 1096.99,-365.44 1086.57,-363.53 1087.65,-370.44"/>
</g>
<!-- Node3&#45;&gt;Node4 -->
<g id="edge3" class="edge">
<title>Node3&#45;&gt;Node4</title>
<path fill="none" stroke="midnightblue" d="M278,-291.44C327.96,-281.94 408.6,-266.61 462.2,-256.42"/>
<polygon fill="midnightblue" stroke="midnightblue" points="463.04,-259.82 472.21,-254.52 461.73,-252.95 463.04,-259.82"/>
</g>
<!-- Node14 -->
<g id="node14" class="node">
<title>Node14</title>
<g id="a_node14"><a xlink:title=" ">
<polygon fill="none" stroke="#bfbfbf" points="74.5,-174 74.5,-193 217.5,-193 217.5,-174 74.5,-174"/>
<text text-anchor="middle" x="146" y="-181" font-family="Helvetica,sans-Serif" font-size="10.00">ankerl/unordered_dense.h</text>
</a>
</g>
</g>
<!-- Node3&#45;&gt;Node14 -->
<g id="edge15" class="edge">
<title>Node3&#45;&gt;Node14</title>
<path fill="none" stroke="midnightblue" d="M217.87,-291.39C204.98,-283.39 186.73,-270.41 175,-255 163,-239.24 155.12,-217.81 150.64,-202.73"/>
<polygon fill="midnightblue" stroke="midnightblue" points="154,-201.75 147.97,-193.04 147.26,-203.61 154,-201.75"/>
</g>
<!-- Node15 -->
<g id="node15" class="node">
<title>Node15</title>
<g id="a_node15"><a xlink:title=" ">
<polygon fill="none" stroke="#bfbfbf" points="0,-174 0,-193 56,-193 56,-174 0,-174"/>
<text text-anchor="middle" x="28" y="-181" font-family="Helvetica,sans-Serif" font-size="10.00">optional</text>
</a>
</g>
</g>
<!-- Node3&#45;&gt;Node15 -->
<g id="edge16" class="edge">
<title>Node3&#45;&gt;Node15</title>
<path fill="none" stroke="midnightblue" d="M217.59,-291.32C182.19,-271.37 94.8,-222.14 52.17,-198.12"/>
<polygon fill="midnightblue" stroke="midnightblue" points="53.74,-194.98 43.31,-193.12 50.3,-201.08 53.74,-194.98"/>
</g>
<!-- Node4&#45;&gt;Node2 -->
<g id="edge4" class="edge">
<title>Node4&#45;&gt;Node2</title>
<path fill="none" stroke="midnightblue" d="M497.8,-235.48C475.21,-225.45 437.5,-208.7 411.5,-197.15"/>
<polygon fill="midnightblue" stroke="midnightblue" points="412.72,-193.87 402.16,-193.01 409.88,-200.27 412.72,-193.87"/>
</g>
<!-- Node5 -->
<g id="node5" class="node">
<title>Node5</title>
<g id="a_node5"><a xlink:href="atom_8h.html" target="_top" xlink:title=" ">
<polygon fill="none" stroke="black" points="507.5,-112.5 507.5,-131.5 602.5,-131.5 602.5,-112.5 507.5,-112.5"/>
<text text-anchor="middle" x="555" y="-119.5" font-family="Helvetica,sans-Serif" font-size="10.00">occ/core/atom.h</text>
</a>
</g>
</g>
<!-- Node4&#45;&gt;Node5 -->
<g id="edge5" class="edge">
<title>Node4&#45;&gt;Node5</title>
<path fill="none" stroke="midnightblue" d="M519.73,-235.3C525.9,-215.68 540.98,-167.64 549.29,-141.19"/>
<polygon fill="midnightblue" stroke="midnightblue" points="552.63,-142.21 552.29,-131.62 545.96,-140.12 552.63,-142.21"/>
</g>
<!-- Node6 -->
<g id="node6" class="node">
<title>Node6</title>
<g id="a_node6"><a xlink:href="linear__algebra_8h.html" target="_top" xlink:title=" ">
<polygon fill="none" stroke="black" points="675.5,-56.5 675.5,-75.5 814.5,-75.5 814.5,-56.5 675.5,-56.5"/>
<text text-anchor="middle" x="745" y="-63.5" font-family="Helvetica,sans-Serif" font-size="10.00">occ/core/linear_algebra.h</text>
</a>
</g>
</g>
<!-- Node4&#45;&gt;Node6 -->
<g id="edge13" class="edge">
<title>Node4&#45;&gt;Node6</title>
<path fill="none" stroke="midnightblue" d="M511.8,-235.39C498.67,-212.39 467.3,-148.8 498,-112 519.1,-86.7 601.41,-75.59 665.28,-70.73"/>
<polygon fill="midnightblue" stroke="midnightblue" points="665.63,-74.22 675.36,-70 665.13,-67.23 665.63,-74.22"/>
</g>
<!-- Node10 -->
<g id="node10" class="node">
<title>Node10</title>
<g id="a_node10"><a xlink:href="element_8h.html" target="_top" xlink:title=" ">
<polygon fill="none" stroke="black" points="969,-112.5 969,-131.5 1079,-131.5 1079,-112.5 969,-112.5"/>
<text text-anchor="middle" x="1024" y="-119.5" font-family="Helvetica,sans-Serif" font-size="10.00">occ/core/element.h</text>
</a>
</g>
</g>
<!-- Node4&#45;&gt;Node10 -->
<g id="edge10" class="edge">
<title>Node4&#45;&gt;Node10</title>
<path fill="none" stroke="midnightblue" d="M552.65,-235.49C642.54,-214.04 878.37,-157.76 978.25,-133.92"/>
<polygon fill="midnightblue" stroke="midnightblue" points="979.14,-137.31 988.05,-131.58 977.51,-130.5 979.14,-137.31"/>
</g>
<!-- Node13 -->
<g id="node13" class="node">
<title>Node13</title>
<g id="a_node13"><a xlink:title=" ">
<polygon fill="none" stroke="#bfbfbf" points="608.5,-174 608.5,-193 649.5,-193 649.5,-174 608.5,-174"/>
<text text-anchor="middle" x="629" y="-181" font-family="Helvetica,sans-Serif" font-size="10.00">tuple</text>
</a>
</g>
</g>
<!-- Node4&#45;&gt;Node13 -->
<g id="edge14" class="edge">
<title>Node4&#45;&gt;Node13</title>
<path fill="none" stroke="midnightblue" d="M533.05,-235.48C551.59,-225.62 582.34,-209.29 604.02,-197.77"/>
<polygon fill="midnightblue" stroke="midnightblue" points="605.79,-200.79 612.98,-193.01 602.51,-194.61 605.79,-200.79"/>
</g>
<!-- Node5&#45;&gt;Node6 -->
<g id="edge6" class="edge">
<title>Node5&#45;&gt;Node6</title>
<path fill="none" stroke="midnightblue" d="M585.11,-112.44C617.63,-103.2 669.58,-88.44 705.39,-78.26"/>
<polygon fill="midnightblue" stroke="midnightblue" points="706.37,-81.62 715.03,-75.52 704.46,-74.88 706.37,-81.62"/>
</g>
<!-- Node7 -->
<g id="node7" class="node">
<title>Node7</title>
<g id="a_node7"><a xlink:title=" ">
<polygon fill="none" stroke="#bfbfbf" points="758.5,-0.5 758.5,-19.5 835.5,-19.5 835.5,-0.5 758.5,-0.5"/>
<text text-anchor="middle" x="797" y="-7.5" font-family="Helvetica,sans-Serif" font-size="10.00">Eigen/Dense</text>
</a>
</g>
</g>
<!-- Node6&#45;&gt;Node7 -->
<g id="edge7" class="edge">
<title>Node6&#45;&gt;Node7</title>
<path fill="none" stroke="midnightblue" d="M753.59,-56.08C761.16,-48.22 772.38,-36.57 781.51,-27.08"/>
<polygon fill="midnightblue" stroke="midnightblue" points="784.16,-29.38 788.57,-19.75 779.12,-24.53 784.16,-29.38"/>
</g>
<!-- Node8 -->
<g id="node8" class="node">
<title>Node8</title>
<g id="a_node8"><a xlink:title=" ">
<polygon fill="none" stroke="#bfbfbf" points="647.5,-0.5 647.5,-19.5 740.5,-19.5 740.5,-0.5 647.5,-0.5"/>
<text text-anchor="middle" x="694" y="-7.5" font-family="Helvetica,sans-Serif" font-size="10.00">Eigen/StdVector</text>
</a>
</g>
</g>
<!-- Node6&#45;&gt;Node8 -->
<g id="edge8" class="edge">
<title>Node6&#45;&gt;Node8</title>
<path fill="none" stroke="midnightblue" d="M736.58,-56.08C729.15,-48.22 718.15,-36.57 709.19,-27.08"/>
<polygon fill="midnightblue" stroke="midnightblue" points="711.68,-24.62 702.26,-19.75 706.59,-29.42 711.68,-24.62"/>
</g>
<!-- Node9 -->
<g id="node9" class="node">
<title>Node9</title>
<g id="a_node9"><a xlink:title=" ">
<polygon fill="none" stroke="#bfbfbf" points="1086,-0.5 1086,-19.5 1172,-19.5 1172,-0.5 1086,-0.5"/>
<text text-anchor="middle" x="1129" y="-7.5" font-family="Helvetica,sans-Serif" font-size="10.00">fmt/ostream.h</text>
</a>
</g>
</g>
<!-- Node6&#45;&gt;Node9 -->
<g id="edge9" class="edge">
<title>Node6&#45;&gt;Node9</title>
<path fill="none" stroke="midnightblue" d="M805.85,-56.44C880.32,-45.97 1005.24,-28.4 1075.97,-18.46"/>
<polygon fill="midnightblue" stroke="midnightblue" points="1076.58,-21.91 1086,-17.05 1075.61,-14.97 1076.58,-21.91"/>
</g>
<!-- Node11 -->
<g id="node11" class="node">
<title>Node11</title>
<g id="a_node11"><a xlink:title=" ">
<polygon fill="none" stroke="#bfbfbf" points="916,-56.5 916,-75.5 960,-75.5 960,-56.5 916,-56.5"/>
<text text-anchor="middle" x="938" y="-63.5" font-family="Helvetica,sans-Serif" font-size="10.00">string</text>
</a>
</g>
</g>
<!-- Node10&#45;&gt;Node11 -->
<g id="edge11" class="edge">
<title>Node10&#45;&gt;Node11</title>
<path fill="none" stroke="midnightblue" d="M1010.18,-112.32C996.77,-103.9 976.18,-90.97 960.41,-81.07"/>
<polygon fill="midnightblue" stroke="midnightblue" points="962.11,-78.01 951.78,-75.65 958.39,-83.94 962.11,-78.01"/>
</g>
<!-- Node12 -->
<g id="node12" class="node">
<title>Node12</title>
<g id="a_node12"><a xlink:title=" ">
<polygon fill="none" stroke="#bfbfbf" points="1013.5,-56.5 1013.5,-75.5 1060.5,-75.5 1060.5,-56.5 1013.5,-56.5"/>
<text text-anchor="middle" x="1037" y="-63.5" font-family="Helvetica,sans-Serif" font-size="10.00">vector</text>
</a>
</g>
</g>
<!-- Node10&#45;&gt;Node12 -->
<g id="edge12" class="edge">
<title>Node10&#45;&gt;Node12</title>
<path fill="none" stroke="midnightblue" d="M1026.15,-112.08C1027.87,-104.93 1030.35,-94.64 1032.5,-85.69"/>
<polygon fill="midnightblue" stroke="midnightblue" points="1035.96,-86.29 1034.89,-75.75 1029.15,-84.65 1035.96,-86.29"/>
</g>
<!-- Node16&#45;&gt;Node3 -->
<g id="edge25" class="edge">
<title>Node16&#45;&gt;Node3</title>
<path fill="none" stroke="midnightblue" d="M519.13,-347.44C457.1,-337.59 355.55,-321.46 291.59,-311.31"/>
<polygon fill="midnightblue" stroke="midnightblue" points="292.09,-307.84 281.66,-309.73 290.99,-314.75 292.09,-307.84"/>
</g>
<!-- Node16&#45;&gt;Node4 -->
<g id="edge27" class="edge">
<title>Node16&#45;&gt;Node4</title>
<path fill="none" stroke="midnightblue" d="M568.52,-347.16C562.19,-334.66 550.23,-311.07 540,-291 535.41,-282 530.3,-271.99 526.06,-263.7"/>
<polygon fill="midnightblue" stroke="midnightblue" points="529.09,-261.93 521.42,-254.62 522.86,-265.12 529.09,-261.93"/>
</g>
<!-- Node16&#45;&gt;Node6 -->
<g id="edge26" class="edge">
<title>Node16&#45;&gt;Node6</title>
<path fill="none" stroke="midnightblue" d="M554.59,-347.39C526.14,-332.93 472.53,-300.78 451,-255 430.33,-211.06 398.71,-189.83 484,-112 510.05,-88.23 598.57,-76.79 665.36,-71.44"/>
<polygon fill="midnightblue" stroke="midnightblue" points="665.76,-74.92 675.46,-70.66 665.22,-67.94 665.76,-74.92"/>
</g>
<!-- Node16&#45;&gt;Node12 -->
<g id="edge63" class="edge">
<title>Node16&#45;&gt;Node12</title>
<path fill="none" stroke="midnightblue" d="M630.21,-348.01C633.18,-347.65 636.13,-347.31 639,-347 832.73,-325.83 891.79,-374.59 1076,-311 1118.76,-296.24 1131.72,-289.48 1161,-255 1202.34,-206.33 1196.84,-151.93 1147,-112 1134.74,-102.18 1098.13,-88.12 1070.49,-78.33"/>
<polygon fill="midnightblue" stroke="midnightblue" points="1071.37,-74.93 1060.77,-74.94 1069.06,-81.54 1071.37,-74.93"/>
</g>
<!-- Node17 -->
<g id="node17" class="node">
<title>Node17</title>
<g id="a_node17"><a xlink:href="bondgraph_8h.html" target="_top" xlink:title=" ">
<polygon fill="none" stroke="black" points="338.5,-291.5 338.5,-310.5 459.5,-310.5 459.5,-291.5 338.5,-291.5"/>
<text text-anchor="middle" x="399" y="-298.5" font-family="Helvetica,sans-Serif" font-size="10.00">occ/core/bondgraph.h</text>
</a>
</g>
</g>
<!-- Node16&#45;&gt;Node17 -->
<g id="edge19" class="edge">
<title>Node16&#45;&gt;Node17</title>
<path fill="none" stroke="midnightblue" d="M545.43,-347.44C515.9,-338.28 468.88,-323.69 436.12,-313.52"/>
<polygon fill="midnightblue" stroke="midnightblue" points="437.03,-310.14 426.44,-310.52 434.96,-316.82 437.03,-310.14"/>
</g>
<!-- Node21 -->
<g id="node21" class="node">
<title>Node21</title>
<g id="a_node21"><a xlink:href="asymmetric__unit_8h.html" target="_top" xlink:title=" ">
<polygon fill="none" stroke="black" points="893.5,-168.5 893.5,-198.5 1024.5,-198.5 1024.5,-168.5 893.5,-168.5"/>
<text text-anchor="start" x="901.5" y="-186.5" font-family="Helvetica,sans-Serif" font-size="10.00">occ/crystal/asymmetric</text>
<text text-anchor="middle" x="959" y="-175.5" font-family="Helvetica,sans-Serif" font-size="10.00">_unit.h</text>
</a>
</g>
</g>
<!-- Node16&#45;&gt;Node21 -->
<g id="edge28" class="edge">
<title>Node16&#45;&gt;Node21</title>
<path fill="none" stroke="midnightblue" d="M630.02,-347.65C768.62,-327.1 1113.05,-274.31 1129,-255 1134.66,-248.15 1134.32,-242.12 1129,-235 1122.58,-226.4 1072.71,-212.18 1028.63,-201.02"/>
<polygon fill="midnightblue" stroke="midnightblue" points="1029.3,-197.58 1018.75,-198.54 1027.6,-204.37 1029.3,-197.58"/>
</g>
<!-- Node22 -->
<g id="node22" class="node">
<title>Node22</title>
<g id="a_node22"><a xlink:href="hkl_8h.html" target="_top" xlink:title=" ">
<polygon fill="none" stroke="black" points="621,-112.5 621,-131.5 717,-131.5 717,-112.5 621,-112.5"/>
<text text-anchor="middle" x="669" y="-119.5" font-family="Helvetica,sans-Serif" font-size="10.00">occ/crystal/hkl.h</text>
</a>
</g>
</g>
<!-- Node16&#45;&gt;Node22 -->
<g id="edge33" class="edge">
<title>Node16&#45;&gt;Node22</title>
<path fill="none" stroke="midnightblue" d="M573.78,-347.28C576.94,-312.3 589.2,-183.34 599,-168 607.97,-153.95 623.08,-143.43 636.96,-136.1"/>
<polygon fill="midnightblue" stroke="midnightblue" points="638.85,-139.08 646.29,-131.54 635.77,-132.79 638.85,-139.08"/>
</g>
<!-- Node23 -->
<g id="node23" class="node">
<title>Node23</title>
<g id="a_node23"><a xlink:href="spacegroup_8h.html" target="_top" xlink:title=" ">
<polygon fill="none" stroke="black" points="692.5,-291.5 692.5,-310.5 829.5,-310.5 829.5,-291.5 692.5,-291.5"/>
<text text-anchor="middle" x="761" y="-298.5" font-family="Helvetica,sans-Serif" font-size="10.00">occ/crystal/spacegroup.h</text>
</a>
</g>
</g>
<!-- Node16&#45;&gt;Node23 -->
<g id="edge35" class="edge">
<title>Node16&#45;&gt;Node23</title>
<path fill="none" stroke="midnightblue" d="M602.79,-347.44C634.83,-338.24 685.93,-323.56 721.35,-313.39"/>
<polygon fill="midnightblue" stroke="midnightblue" points="722.71,-316.64 731.35,-310.52 720.77,-309.91 722.71,-316.64"/>
</g>
<!-- Node27 -->
<g id="node27" class="node">
<title>Node27</title>
<g id="a_node27"><a xlink:href="unitcell_8h.html" target="_top" xlink:title=" ">
<polygon fill="none" stroke="black" points="1042.5,-174 1042.5,-193 1159.5,-193 1159.5,-174 1042.5,-174"/>
<text text-anchor="middle" x="1101" y="-181" font-family="Helvetica,sans-Serif" font-size="10.00">occ/crystal/unitcell.h</text>
</a>
</g>
</g>
<!-- Node16&#45;&gt;Node27 -->
<g id="edge62" class="edge">
<title>Node16&#45;&gt;Node27</title>
<path fill="none" stroke="midnightblue" d="M630.23,-348.14C633.2,-347.75 636.13,-347.37 639,-347 752.36,-332.45 1075.54,-345.75 1145,-255 1158.87,-236.88 1138.82,-214.25 1121.46,-199.59"/>
<polygon fill="midnightblue" stroke="midnightblue" points="1123.31,-196.59 1113.31,-193.09 1118.95,-202.06 1123.31,-196.59"/>
</g>
<!-- Node18 -->
<g id="node18" class="node">
<title>Node18</title>
<g id="a_node18"><a xlink:href="graph_8h.html" target="_top" xlink:title=" ">
<polygon fill="none" stroke="black" points="184.5,-235.5 184.5,-254.5 281.5,-254.5 281.5,-235.5 184.5,-235.5"/>
<text text-anchor="middle" x="233" y="-242.5" font-family="Helvetica,sans-Serif" font-size="10.00">occ/core/graph.h</text>
</a>
</g>
</g>
<!-- Node17&#45;&gt;Node18 -->
<g id="edge20" class="edge">
<title>Node17&#45;&gt;Node18</title>
<path fill="none" stroke="midnightblue" d="M372.7,-291.44C344.65,-282.32 300.06,-267.81 268.82,-257.65"/>
<polygon fill="midnightblue" stroke="midnightblue" points="269.77,-254.28 259.18,-254.52 267.61,-260.94 269.77,-254.28"/>
</g>
<!-- Node18&#45;&gt;Node14 -->
<g id="edge21" class="edge">
<title>Node18&#45;&gt;Node14</title>
<path fill="none" stroke="midnightblue" d="M220.54,-235.48C206.58,-225.93 183.74,-210.31 167.01,-198.87"/>
<polygon fill="midnightblue" stroke="midnightblue" points="168.67,-195.77 158.44,-193.01 164.72,-201.54 168.67,-195.77"/>
</g>
<!-- Node18&#45;&gt;Node15 -->
<g id="edge22" class="edge">
<title>Node18&#45;&gt;Node15</title>
<path fill="none" stroke="midnightblue" d="M196.61,-235.5C162.34,-227.2 109.75,-213.71 65,-199 62.73,-198.25 60.4,-197.45 58.07,-196.6"/>
<polygon fill="midnightblue" stroke="midnightblue" points="59.19,-193.29 48.59,-193.04 56.72,-199.84 59.19,-193.29"/>
</g>
<!-- Node19 -->
<g id="node19" class="node">
<title>Node19</title>
<g id="a_node19"><a xlink:title=" ">
<polygon fill="none" stroke="#bfbfbf" points="235.5,-174 235.5,-193 282.5,-193 282.5,-174 235.5,-174"/>
<text text-anchor="middle" x="259" y="-181" font-family="Helvetica,sans-Serif" font-size="10.00">queue</text>
</a>
</g>
</g>
<!-- Node18&#45;&gt;Node19 -->
<g id="edge23" class="edge">
<title>Node18&#45;&gt;Node19</title>
<path fill="none" stroke="midnightblue" d="M236.73,-235.48C240.47,-226.9 246.36,-213.43 251.14,-202.48"/>
<polygon fill="midnightblue" stroke="midnightblue" points="254.48,-203.57 255.28,-193.01 248.07,-200.77 254.48,-203.57"/>
</g>
<!-- Node20 -->
<g id="node20" class="node">
<title>Node20</title>
<g id="a_node20"><a xlink:title=" ">
<polygon fill="none" stroke="#bfbfbf" points="300.5,-174 300.5,-193 343.5,-193 343.5,-174 300.5,-174"/>
<text text-anchor="middle" x="322" y="-181" font-family="Helvetica,sans-Serif" font-size="10.00">stack</text>
</a>
</g>
</g>
<!-- Node18&#45;&gt;Node20 -->
<g id="edge24" class="edge">
<title>Node18&#45;&gt;Node20</title>
<path fill="none" stroke="midnightblue" d="M245.75,-235.48C260.03,-225.93 283.4,-210.31 300.51,-198.87"/>
<polygon fill="midnightblue" stroke="midnightblue" points="302.9,-201.48 309.27,-193.01 299.01,-195.66 302.9,-201.48"/>
</g>
<!-- Node21&#45;&gt;Node6 -->
<g id="edge30" class="edge">
<title>Node21&#45;&gt;Node6</title>
<path fill="none" stroke="midnightblue" d="M932.76,-168.34C891.12,-145.86 810.47,-102.33 769.77,-80.37"/>
<polygon fill="midnightblue" stroke="midnightblue" points="771.25,-77.19 760.79,-75.52 767.93,-83.35 771.25,-77.19"/>
</g>
<!-- Node21&#45;&gt;Node10 -->
<g id="edge29" class="edge">
<title>Node21&#45;&gt;Node10</title>
<path fill="none" stroke="midnightblue" d="M974.4,-168.4C984.24,-159.4 996.99,-147.72 1007.11,-138.47"/>
<polygon fill="midnightblue" stroke="midnightblue" points="1009.53,-140.99 1014.54,-131.66 1004.8,-135.83 1009.53,-140.99"/>
</g>
<!-- Node21&#45;&gt;Node11 -->
<g id="edge31" class="edge">
<title>Node21&#45;&gt;Node11</title>
<path fill="none" stroke="midnightblue" d="M956.42,-168.34C952.64,-147.53 945.58,-108.66 941.38,-85.58"/>
<polygon fill="midnightblue" stroke="midnightblue" points="944.81,-84.88 939.58,-75.67 937.92,-86.13 944.81,-84.88"/>
</g>
<!-- Node21&#45;&gt;Node12 -->
<g id="edge32" class="edge">
<title>Node21&#45;&gt;Node12</title>
<path fill="none" stroke="midnightblue" d="M1011.73,-168.41C1043.21,-158.82 1078.82,-145.46 1088,-132 1100.42,-113.79 1079.56,-94.02 1060.89,-81.13"/>
<polygon fill="midnightblue" stroke="midnightblue" points="1062.62,-78.08 1052.33,-75.55 1058.8,-83.94 1062.62,-78.08"/>
</g>
<!-- Node22&#45;&gt;Node6 -->
<g id="edge34" class="edge">
<title>Node22&#45;&gt;Node6</title>
<path fill="none" stroke="midnightblue" d="M681.21,-112.32C692.78,-104.11 710.38,-91.6 724.16,-81.81"/>
<polygon fill="midnightblue" stroke="midnightblue" points="726.44,-84.48 732.57,-75.83 722.39,-78.77 726.44,-84.48"/>
</g>
<!-- Node23&#45;&gt;Node11 -->
<g id="edge59" class="edge">
<title>Node23&#45;&gt;Node11</title>
<path fill="none" stroke="midnightblue" d="M753.03,-291.45C742.34,-278.89 725.71,-254.81 735,-235 771.37,-157.48 863.09,-103.5 909.77,-80.09"/>
<polygon fill="midnightblue" stroke="midnightblue" points="911.57,-83.1 919.01,-75.56 908.49,-76.82 911.57,-83.1"/>
</g>
<!-- Node23&#45;&gt;Node12 -->
<g id="edge61" class="edge">
<title>Node23&#45;&gt;Node12</title>
<path fill="none" stroke="midnightblue" d="M829.73,-298.13C921.97,-294.53 1079.89,-284.18 1129,-255 1165.59,-233.26 1186.73,-206.69 1169,-168 1149.22,-124.85 1100.37,-95.46 1067.96,-79.95"/>
<polygon fill="midnightblue" stroke="midnightblue" points="1069.03,-76.59 1058.49,-75.59 1066.1,-82.95 1069.03,-76.59"/>
</g>
<!-- Node23&#45;&gt;Node13 -->
<g id="edge60" class="edge">
<title>Node23&#45;&gt;Node13</title>
<path fill="none" stroke="midnightblue" d="M729.42,-291.37C708.72,-284.38 682.22,-272.74 664,-255 649.21,-240.59 639.68,-218.63 634.36,-203.05"/>
<polygon fill="midnightblue" stroke="midnightblue" points="637.68,-201.94 631.34,-193.45 631,-204.04 637.68,-201.94"/>
</g>
<!-- Node23&#45;&gt;Node22 -->
<g id="edge38" class="edge">
<title>Node23&#45;&gt;Node22</title>
<path fill="none" stroke="midnightblue" d="M744.23,-291.39C730.81,-283.65 712.55,-271.03 702,-255 678.71,-219.61 671.85,-169.01 669.84,-141.89"/>
<polygon fill="midnightblue" stroke="midnightblue" points="673.33,-141.59 669.24,-131.81 666.34,-142 673.33,-141.59"/>
</g>
<!-- Node24 -->
<g id="node24" class="node">
<title>Node24</title>
<g id="a_node24"><a xlink:title=" ">
<polygon fill="none" stroke="#bfbfbf" points="744,-235.5 744,-254.5 868,-254.5 868,-235.5 744,-235.5"/>
<text text-anchor="middle" x="806" y="-242.5" font-family="Helvetica,sans-Serif" font-size="10.00">gemmi/symmetry.hpp</text>
</a>
</g>
</g>
<!-- Node23&#45;&gt;Node24 -->
<g id="edge36" class="edge">
<title>Node23&#45;&gt;Node24</title>
<path fill="none" stroke="midnightblue" d="M768.43,-291.08C774.85,-283.38 784.31,-272.03 792.12,-262.65"/>
<polygon fill="midnightblue" stroke="midnightblue" points="794.99,-264.67 798.71,-254.75 789.62,-260.19 794.99,-264.67"/>
</g>
<!-- Node25 -->
<g id="node25" class="node">
<title>Node25</title>
<g id="a_node25"><a xlink:title=" ">
<polygon fill="none" stroke="#bfbfbf" points="886,-235.5 886,-254.5 924,-254.5 924,-235.5 886,-235.5"/>
<text text-anchor="middle" x="905" y="-242.5" font-family="Helvetica,sans-Serif" font-size="10.00">map</text>
</a>
</g>
</g>
<!-- Node23&#45;&gt;Node25 -->
<g id="edge37" class="edge">
<title>Node23&#45;&gt;Node25</title>
<path fill="none" stroke="midnightblue" d="M783.82,-291.44C808.85,-282.06 849.08,-266.97 876.25,-256.78"/>
<polygon fill="midnightblue" stroke="midnightblue" points="877.83,-259.93 885.97,-253.14 875.38,-253.37 877.83,-259.93"/>
</g>
<!-- Node26 -->
<g id="node26" class="node">
<title>Node26</title>
<g id="a_node26"><a xlink:href="symmetryoperation_8h.html" target="_top" xlink:title=" ">
<polygon fill="none" stroke="black" points="942,-235.5 942,-254.5 1120,-254.5 1120,-235.5 942,-235.5"/>
<text text-anchor="middle" x="1031" y="-242.5" font-family="Helvetica,sans-Serif" font-size="10.00">occ/crystal/symmetryoperation.h</text>
</a>
</g>
</g>
<!-- Node23&#45;&gt;Node26 -->
<g id="edge39" class="edge">
<title>Node23&#45;&gt;Node26</title>
<path fill="none" stroke="midnightblue" d="M803.78,-291.44C851.18,-281.96 927.63,-266.67 978.58,-256.48"/>
<polygon fill="midnightblue" stroke="midnightblue" points="979.3,-259.91 988.42,-254.52 977.93,-253.05 979.3,-259.91"/>
</g>
<!-- Node26&#45;&gt;Node6 -->
<g id="edge40" class="edge">
<title>Node26&#45;&gt;Node6</title>
<path fill="none" stroke="midnightblue" d="M973.23,-235.47C941.4,-228.93 902.16,-217.74 871,-199 820.26,-168.49 776.46,-112.18 756.5,-84"/>
<polygon fill="midnightblue" stroke="midnightblue" points="759.25,-81.82 750.67,-75.6 753.5,-85.81 759.25,-81.82"/>
</g>
<!-- Node26&#45;&gt;Node11 -->
<g id="edge58" class="edge">
<title>Node26&#45;&gt;Node11</title>
<path fill="none" stroke="midnightblue" d="M941.83,-235.58C919.46,-228.97 897.89,-217.78 884,-199 856.64,-162.02 897.43,-109.19 921.87,-83"/>
<polygon fill="midnightblue" stroke="midnightblue" points="924.41,-85.4 928.83,-75.77 919.37,-80.54 924.41,-85.4"/>
</g>
<!-- Node26&#45;&gt;Node27 -->
<g id="edge41" class="edge">
<title>Node26&#45;&gt;Node27</title>
<path fill="none" stroke="midnightblue" d="M1041.03,-235.48C1052.05,-226.11 1069.96,-210.88 1083.34,-199.51"/>
<polygon fill="midnightblue" stroke="midnightblue" points="1085.64,-202.15 1090.99,-193.01 1081.1,-196.82 1085.64,-202.15"/>
</g>
<!-- Node27&#45;&gt;Node6 -->
<g id="edge42" class="edge">
<title>Node27&#45;&gt;Node6</title>
<path fill="none" stroke="midnightblue" d="M1074.53,-173.91C1011.59,-153.49 852.87,-102 781.16,-78.73"/>
<polygon fill="midnightblue" stroke="midnightblue" points="782.23,-75.4 771.64,-75.64 780.07,-82.06 782.23,-75.4"/>
</g>
<!-- Node27&#45;&gt;Node11 -->
<g id="edge57" class="edge">
<title>Node27&#45;&gt;Node11</title>
<path fill="none" stroke="midnightblue" d="M1102.04,-173.91C1103.31,-159.28 1103.62,-129.42 1088,-112 1072.3,-94.48 1009.29,-80.09 970.1,-72.6"/>
<polygon fill="midnightblue" stroke="midnightblue" points="970.69,-69.15 960.22,-70.76 969.41,-76.03 970.69,-69.15"/>
</g>
<!-- Node27&#45;&gt;Node22 -->
<g id="edge56" class="edge">
<title>Node27&#45;&gt;Node22</title>
<path fill="none" stroke="midnightblue" d="M1063.7,-173.94C1053.76,-171.82 1043,-169.68 1033,-168 925.72,-149.97 799.51,-135.96 727.42,-128.64"/>
<polygon fill="midnightblue" stroke="midnightblue" points="727.48,-125.13 717.18,-127.61 726.78,-132.09 727.48,-125.13"/>
</g>
<!-- Node28 -->
<g id="node28" class="node">
<title>Node28</title>
<g id="a_node28"><a xlink:href="units_8h.html" target="_top" xlink:title=" ">
<polygon fill="none" stroke="black" points="1452.5,-112.5 1452.5,-131.5 1545.5,-131.5 1545.5,-112.5 1452.5,-112.5"/>
<text text-anchor="middle" x="1499" y="-119.5" font-family="Helvetica,sans-Serif" font-size="10.00">occ/core/units.h</text>
</a>
</g>
</g>
<!-- Node27&#45;&gt;Node28 -->
<g id="edge43" class="edge">
<title>Node27&#45;&gt;Node28</title>
<path fill="none" stroke="midnightblue" d="M1158.02,-173.98C1233.67,-162.67 1366.44,-142.82 1442.05,-131.51"/>
<polygon fill="midnightblue" stroke="midnightblue" points="1442.95,-134.92 1452.33,-129.98 1441.92,-127.99 1442.95,-134.92"/>
</g>
<!-- Node30 -->
<g id="node30" class="node">
<title>Node30</title>
<g id="a_node30"><a xlink:href="util_8h.html" target="_top" xlink:title=" ">
<polygon fill="none" stroke="black" points="1276.5,-112.5 1276.5,-131.5 1361.5,-131.5 1361.5,-112.5 1276.5,-112.5"/>
<text text-anchor="middle" x="1319" y="-119.5" font-family="Helvetica,sans-Serif" font-size="10.00">occ/core/util.h</text>
</a>
</g>
</g>
<!-- Node27&#45;&gt;Node30 -->
<g id="edge45" class="edge">
<title>Node27&#45;&gt;Node30</title>
<path fill="none" stroke="midnightblue" d="M1132.23,-173.98C1170.6,-163.5 1235.79,-145.71 1278.11,-134.16"/>
<polygon fill="midnightblue" stroke="midnightblue" points="1279.1,-137.52 1287.82,-131.51 1277.26,-130.77 1279.1,-137.52"/>
</g>
<!-- Node29 -->
<g id="node29" class="node">
<title>Node29</title>
<g id="a_node29"><a xlink:title=" ">
<polygon fill="none" stroke="#bfbfbf" points="1557.5,-56.5 1557.5,-75.5 1604.5,-75.5 1604.5,-56.5 1557.5,-56.5"/>
<text text-anchor="middle" x="1581" y="-63.5" font-family="Helvetica,sans-Serif" font-size="10.00">cmath</text>
</a>
</g>
</g>
<!-- Node28&#45;&gt;Node29 -->
<g id="edge44" class="edge">
<title>Node28&#45;&gt;Node29</title>
<path fill="none" stroke="midnightblue" d="M1512.17,-112.32C1524.85,-103.98 1544.23,-91.21 1559.21,-81.35"/>
<polygon fill="midnightblue" stroke="midnightblue" points="1561.43,-84.08 1567.86,-75.65 1557.58,-78.23 1561.43,-84.08"/>
</g>
<!-- Node30&#45;&gt;Node6 -->
<g id="edge52" class="edge">
<title>Node30&#45;&gt;Node6</title>
<path fill="none" stroke="midnightblue" d="M1276.33,-116.99C1180.8,-108 948.48,-86.14 825.09,-74.53"/>
<polygon fill="midnightblue" stroke="midnightblue" points="825.23,-71.03 814.95,-73.58 824.58,-78 825.23,-71.03"/>
</g>
<!-- Node30&#45;&gt;Node9 -->
<g id="edge49" class="edge">
<title>Node30&#45;&gt;Node9</title>
<path fill="none" stroke="midnightblue" d="M1331.69,-112.36C1349.07,-99.49 1376.47,-74.76 1361,-56 1338.82,-29.11 1243.87,-18.09 1182.53,-13.72"/>
<polygon fill="midnightblue" stroke="midnightblue" points="1182.45,-10.21 1172.24,-13.03 1181.98,-17.19 1182.45,-10.21"/>
</g>
<!-- Node30&#45;&gt;Node11 -->
<g id="edge53" class="edge">
<title>Node30&#45;&gt;Node11</title>
<path fill="none" stroke="midnightblue" d="M1276.4,-114.96C1199.54,-104.07 1039.27,-81.35 970.49,-71.6"/>
<polygon fill="midnightblue" stroke="midnightblue" points="970.66,-68.09 960.26,-70.16 969.67,-75.02 970.66,-68.09"/>
</g>
<!-- Node30&#45;&gt;Node12 -->
<g id="edge54" class="edge">
<title>Node30&#45;&gt;Node12</title>
<path fill="none" stroke="midnightblue" d="M1276.46,-113.85C1219.77,-104.24 1121.47,-87.28 1070.53,-76.15"/>
<polygon fill="midnightblue" stroke="midnightblue" points="1071.23,-72.72 1060.7,-73.94 1069.69,-79.55 1071.23,-72.72"/>
</g>
<!-- Node31 -->
<g id="node31" class="node">
<title>Node31</title>
<g id="a_node31"><a xlink:title=" ">
<polygon fill="none" stroke="#bfbfbf" points="1408,-56.5 1408,-75.5 1472,-75.5 1472,-56.5 1408,-56.5"/>
<text text-anchor="middle" x="1440" y="-63.5" font-family="Helvetica,sans-Serif" font-size="10.00">algorithm</text>
</a>
</g>
</g>
<!-- Node30&#45;&gt;Node31 -->
<g id="edge46" class="edge">
<title>Node30&#45;&gt;Node31</title>
<path fill="none" stroke="midnightblue" d="M1338.17,-112.44C1357.91,-103.64 1388.89,-89.81 1411.49,-79.72"/>
<polygon fill="midnightblue" stroke="midnightblue" points="1413.21,-82.79 1420.92,-75.52 1410.36,-76.4 1413.21,-82.79"/>
</g>
<!-- Node32 -->
<g id="node32" class="node">
<title>Node32</title>
<g id="a_node32"><a xlink:title=" ">
<polygon fill="none" stroke="#bfbfbf" points="1490.5,-56.5 1490.5,-75.5 1539.5,-75.5 1539.5,-56.5 1490.5,-56.5"/>
<text text-anchor="middle" x="1515" y="-63.5" font-family="Helvetica,sans-Serif" font-size="10.00">cctype</text>
</a>
</g>
</g>
<!-- Node30&#45;&gt;Node32 -->
<g id="edge47" class="edge">
<title>Node30&#45;&gt;Node32</title>
<path fill="none" stroke="midnightblue" d="M1350.06,-112.44C1385.58,-102.66 1443.57,-86.68 1480.48,-76.51"/>
<polygon fill="midnightblue" stroke="midnightblue" points="1481.58,-79.84 1490.29,-73.81 1479.72,-73.09 1481.58,-79.84"/>
</g>
<!-- Node33 -->
<g id="node33" class="node">
<title>Node33</title>
<g id="a_node33"><a xlink:title=" ">
<polygon fill="none" stroke="#bfbfbf" points="1078.5,-56.5 1078.5,-75.5 1145.5,-75.5 1145.5,-56.5 1078.5,-56.5"/>
<text text-anchor="middle" x="1112" y="-63.5" font-family="Helvetica,sans-Serif" font-size="10.00">fmt/core.h</text>
</a>
</g>
</g>
<!-- Node30&#45;&gt;Node33 -->
<g id="edge48" class="edge">
<title>Node30&#45;&gt;Node33</title>
<path fill="none" stroke="midnightblue" d="M1286.2,-112.44C1250.62,-103.16 1193.69,-88.31 1154.65,-78.13"/>
<polygon fill="midnightblue" stroke="midnightblue" points="1155.21,-74.65 1144.65,-75.52 1153.44,-81.43 1155.21,-74.65"/>
</g>
<!-- Node34 -->
<g id="node34" class="node">
<title>Node34</title>
<g id="a_node34"><a xlink:title=" ">
<polygon fill="none" stroke="#bfbfbf" points="1164,-56.5 1164,-75.5 1210,-75.5 1210,-56.5 1164,-56.5"/>
<text text-anchor="middle" x="1187" y="-63.5" font-family="Helvetica,sans-Serif" font-size="10.00">locale</text>
</a>
</g>
</g>
<!-- Node30&#45;&gt;Node34 -->
<g id="edge50" class="edge">
<title>Node30&#45;&gt;Node34</title>
<path fill="none" stroke="midnightblue" d="M1298.08,-112.44C1276.26,-103.52 1241.85,-89.44 1217.11,-79.32"/>
<polygon fill="midnightblue" stroke="midnightblue" points="1218.4,-76.06 1207.82,-75.52 1215.75,-82.54 1218.4,-76.06"/>
</g>
<!-- Node35 -->
<g id="node35" class="node">
<title>Node35</title>
<g id="a_node35"><a xlink:title=" ">
<polygon fill="none" stroke="#bfbfbf" points="1228,-56.5 1228,-75.5 1284,-75.5 1284,-56.5 1228,-56.5"/>
<text text-anchor="middle" x="1256" y="-63.5" font-family="Helvetica,sans-Serif" font-size="10.00">numeric</text>
</a>
</g>
</g>
<!-- Node30&#45;&gt;Node35 -->
<g id="edge51" class="edge">
<title>Node30&#45;&gt;Node35</title>
<path fill="none" stroke="midnightblue" d="M1308.88,-112.32C1299.47,-104.26 1285.26,-92.08 1273.93,-82.37"/>
<polygon fill="midnightblue" stroke="midnightblue" points="1276.18,-79.68 1266.31,-75.83 1271.62,-85 1276.18,-79.68"/>
</g>
<!-- Node36 -->
<g id="node36" class="node">
<title>Node36</title>
<g id="a_node36"><a xlink:title=" ">
<polygon fill="none" stroke="#bfbfbf" points="1302,-56.5 1302,-75.5 1352,-75.5 1352,-56.5 1302,-56.5"/>
<text text-anchor="middle" x="1327" y="-63.5" font-family="Helvetica,sans-Serif" font-size="10.00">chrono</text>
</a>
</g>
</g>
<!-- Node30&#45;&gt;Node36 -->
<g id="edge55" class="edge">
<title>Node30&#45;&gt;Node36</title>
<path fill="none" stroke="midnightblue" d="M1320.32,-112.08C1321.38,-104.93 1322.91,-94.64 1324.23,-85.69"/>
<polygon fill="midnightblue" stroke="midnightblue" points="1327.7,-86.16 1325.7,-75.75 1320.78,-85.13 1327.7,-86.16"/>
</g>
</g>
</svg>
