<?xml version="1.0" encoding="UTF-8" standalone="no"?>
<!DOCTYPE svg PUBLIC "-//W3C//DTD SVG 1.1//EN"
 "http://www.w3.org/Graphics/SVG/1.1/DTD/svg11.dtd">
<!-- Generated by graphviz version 2.43.0 (0)
 -->
<!-- Title: /home/runner/work/occ/occ/include/occ/qm/cc/thc.h Pages: 1 -->
<svg width="620pt" height="269pt"
 viewBox="0.00 0.00 620.00 269.00" xmlns="http://www.w3.org/2000/svg" xmlns:xlink="http://www.w3.org/1999/xlink">
<g id="graph0" class="graph" transform="scale(1 1) rotate(0) translate(4 265)">
<title>/home/runner/work/occ/occ/include/occ/qm/cc/thc.h</title>
<!-- Node1 -->
<g id="Node000001" class="node">
<title>Node1</title>
<g id="a_Node000001"><a xlink:title=" ">
<polygon fill="#999999" stroke="#666666" points="459.5,-261 306.5,-261 306.5,-231 459.5,-231 459.5,-261"/>
<text text-anchor="start" x="314.5" y="-249" font-family="Helvetica,sans-Serif" font-size="10.00">/home/runner/work/occ</text>
<text text-anchor="middle" x="383" y="-238" font-family="Helvetica,sans-Serif" font-size="10.00">/occ/include/occ/qm/cc/thc.h</text>
</a>
</g>
</g>
<!-- Node2 -->
<g id="Node000002" class="node">
<title>Node2</title>
<g id="a_Node000002"><a xlink:href="integrals_8h.html" target="_top" xlink:title=" ">
<polygon fill="white" stroke="#666666" points="228,-195 100,-195 100,-154 228,-154 228,-195"/>
<text text-anchor="start" x="108" y="-183" font-family="Helvetica,sans-Serif" font-size="10.00">/home/runner/work/occ</text>
<text text-anchor="start" x="108" y="-172" font-family="Helvetica,sans-Serif" font-size="10.00">/occ/include/occ/qm/cc</text>
<text text-anchor="middle" x="164" y="-161" font-family="Helvetica,sans-Serif" font-size="10.00">/integrals.h</text>
</a>
</g>
</g>
<!-- Node1&#45;&gt;Node2 -->
<g id="edge1_Node000001_Node000002" class="edge">
<title>Node1&#45;&gt;Node2</title>
<g id="a_edge1_Node000001_Node000002"><a xlink:title=" ">
<path fill="none" stroke="#63b8ff" d="M328.84,-227.81C297.57,-217.89 258.14,-205.37 225.68,-195.07"/>
<polygon fill="#63b8ff" stroke="#63b8ff" points="328.09,-231.25 338.68,-230.94 330.21,-224.57 328.09,-231.25"/>
</a>
</g>
</g>
<!-- Node5 -->
<g id="Node000005" class="node">
<title>Node5</title>
<g id="a_Node000005"><a xlink:href="thc__mp2_8h.html" target="_top" xlink:title=" ">
<polygon fill="white" stroke="#666666" points="374,-195 246,-195 246,-154 374,-154 374,-195"/>
<text text-anchor="start" x="254" y="-183" font-family="Helvetica,sans-Serif" font-size="10.00">/home/runner/work/occ</text>
<text text-anchor="start" x="254" y="-172" font-family="Helvetica,sans-Serif" font-size="10.00">/occ/include/occ/qm/cc</text>
<text text-anchor="middle" x="310" y="-161" font-family="Helvetica,sans-Serif" font-size="10.00">/thc_mp2.h</text>
</a>
</g>
</g>
<!-- Node1&#45;&gt;Node5 -->
<g id="edge4_Node000001_Node000005" class="edge">
<title>Node1&#45;&gt;Node5</title>
<g id="a_edge4_Node000001_Node000005"><a xlink:title=" ">
<path fill="none" stroke="#63b8ff" d="M360.9,-223.96C351.26,-214.78 340.02,-204.08 330.56,-195.07"/>
<polygon fill="#63b8ff" stroke="#63b8ff" points="358.57,-226.58 368.23,-230.94 363.4,-221.51 358.57,-226.58"/>
</a>
</g>
</g>
<!-- Node6 -->
<g id="Node000006" class="node">
<title>Node6</title>
<g id="a_Node000006"><a xlink:href="uccsd_8h.html" target="_top" xlink:title=" ">
<polygon fill="white" stroke="#666666" points="520,-195 392,-195 392,-154 520,-154 520,-195"/>
<text text-anchor="start" x="400" y="-183" font-family="Helvetica,sans-Serif" font-size="10.00">/home/runner/work/occ</text>
<text text-anchor="start" x="400" y="-172" font-family="Helvetica,sans-Serif" font-size="10.00">/occ/include/occ/qm/cc</text>
<text text-anchor="middle" x="456" y="-161" font-family="Helvetica,sans-Serif" font-size="10.00">/uccsd.h</text>
</a>
</g>
</g>
<!-- Node1&#45;&gt;Node6 -->
<g id="edge5_Node000001_Node000006" class="edge">
<title>Node1&#45;&gt;Node6</title>
<g id="a_edge5_Node000001_Node000006"><a xlink:title=" ">
<path fill="none" stroke="#63b8ff" d="M405.1,-223.96C414.74,-214.78 425.98,-204.08 435.44,-195.07"/>
<polygon fill="#63b8ff" stroke="#63b8ff" points="402.6,-221.51 397.77,-230.94 407.43,-226.58 402.6,-221.51"/>
</a>
</g>
</g>
<!-- Node8 -->
<g id="Node000008" class="node">
<title>Node8</title>
<g id="a_Node000008"><a xlink:href="uintegrals_8h.html" target="_top" xlink:title=" ">
<polygon fill="white" stroke="#666666" points="612,-118 484,-118 484,-77 612,-77 612,-118"/>
<text text-anchor="start" x="492" y="-106" font-family="Helvetica,sans-Serif" font-size="10.00">/home/runner/work/occ</text>
<text text-anchor="start" x="492" y="-95" font-family="Helvetica,sans-Serif" font-size="10.00">/occ/include/occ/qm/cc</text>
<text text-anchor="middle" x="548" y="-84" font-family="Helvetica,sans-Serif" font-size="10.00">/uintegrals.h</text>
</a>
</g>
</g>
<!-- Node1&#45;&gt;Node8 -->
<g id="edge9_Node000001_Node000008" class="edge">
<title>Node1&#45;&gt;Node8</title>
<g id="a_edge9_Node000001_Node000008"><a xlink:title=" ">
<path fill="none" stroke="#63b8ff" d="M469.42,-231.5C491.63,-224.1 513.58,-212.67 529,-195 547.53,-173.77 550.06,-139.82 549.53,-118.37"/>
<polygon fill="#63b8ff" stroke="#63b8ff" points="468.1,-228.24 459.56,-234.52 470.15,-234.93 468.1,-228.24"/>
</a>
</g>
</g>
<!-- Node3 -->
<g id="Node000003" class="node">
<title>Node3</title>
<g id="a_Node000003"><a xlink:href="ccsd_8h.html" target="_top" xlink:title=" ">
<polygon fill="white" stroke="#666666" points="128,-118 0,-118 0,-77 128,-77 128,-118"/>
<text text-anchor="start" x="8" y="-106" font-family="Helvetica,sans-Serif" font-size="10.00">/home/runner/work/occ</text>
<text text-anchor="start" x="8" y="-95" font-family="Helvetica,sans-Serif" font-size="10.00">/occ/include/occ/qm/cc</text>
<text text-anchor="middle" x="64" y="-84" font-family="Helvetica,sans-Serif" font-size="10.00">/ccsd.h</text>
</a>
</g>
</g>
<!-- Node2&#45;&gt;Node3 -->
<g id="edge2_Node000002_Node000003" class="edge">
<title>Node2&#45;&gt;Node3</title>
<g id="a_edge2_Node000002_Node000003"><a xlink:title=" ">
<path fill="none" stroke="#63b8ff" d="M129.75,-147.82C116.82,-138.11 102.32,-127.24 90.23,-118.17"/>
<polygon fill="#63b8ff" stroke="#63b8ff" points="127.89,-150.79 137.99,-153.99 132.09,-145.19 127.89,-150.79"/>
</a>
</g>
</g>
<!-- Node4 -->
<g id="Node000004" class="node">
<title>Node4</title>
<g id="a_Node000004"><a xlink:href="triples_8h.html" target="_top" xlink:title=" ">
<polygon fill="white" stroke="#666666" points="274,-118 146,-118 146,-77 274,-77 274,-118"/>
<text text-anchor="start" x="154" y="-106" font-family="Helvetica,sans-Serif" font-size="10.00">/home/runner/work/occ</text>
<text text-anchor="start" x="154" y="-95" font-family="Helvetica,sans-Serif" font-size="10.00">/occ/include/occ/qm/cc</text>
<text text-anchor="middle" x="210" y="-84" font-family="Helvetica,sans-Serif" font-size="10.00">/triples.h</text>
</a>
</g>
</g>
<!-- Node2&#45;&gt;Node4 -->
<g id="edge3_Node000002_Node000004" class="edge">
<title>Node2&#45;&gt;Node4</title>
<g id="a_edge3_Node000002_Node000004"><a xlink:title=" ">
<path fill="none" stroke="#63b8ff" d="M181.41,-145.11C186.94,-136.09 192.93,-126.33 197.99,-118.07"/>
<polygon fill="#63b8ff" stroke="#63b8ff" points="178.33,-143.44 176.09,-153.79 184.3,-147.1 178.33,-143.44"/>
</a>
</g>
</g>
<!-- Node7 -->
<g id="Node000007" class="node">
<title>Node7</title>
<g id="a_Node000007"><a xlink:href="uccsd__so_8h.html" target="_top" xlink:title=" ">
<polygon fill="white" stroke="#666666" points="466,-118 338,-118 338,-77 466,-77 466,-118"/>
<text text-anchor="start" x="346" y="-106" font-family="Helvetica,sans-Serif" font-size="10.00">/home/runner/work/occ</text>
<text text-anchor="start" x="346" y="-95" font-family="Helvetica,sans-Serif" font-size="10.00">/occ/include/occ/qm/cc</text>
<text text-anchor="middle" x="402" y="-84" font-family="Helvetica,sans-Serif" font-size="10.00">/uccsd_so.h</text>
</a>
</g>
</g>
<!-- Node6&#45;&gt;Node7 -->
<g id="edge6_Node000006_Node000007" class="edge">
<title>Node6&#45;&gt;Node7</title>
<g id="a_edge6_Node000006_Node000007"><a xlink:title=" ">
<path fill="none" stroke="#63b8ff" d="M435.96,-145.67C429.36,-136.5 422.16,-126.5 416.09,-118.07"/>
<polygon fill="#63b8ff" stroke="#63b8ff" points="433.13,-147.72 441.81,-153.79 438.81,-143.63 433.13,-147.72"/>
</a>
</g>
</g>
<!-- Node6&#45;&gt;Node8 -->
<g id="edge7_Node000006_Node000008" class="edge">
<title>Node6&#45;&gt;Node8</title>
<g id="a_edge7_Node000006_Node000008"><a xlink:title=" ">
<path fill="none" stroke="#63b8ff" d="M488.08,-147.35C499.88,-137.73 513.02,-127.01 523.99,-118.07"/>
<polygon fill="#63b8ff" stroke="#63b8ff" points="485.71,-144.76 480.17,-153.79 490.13,-150.19 485.71,-144.76"/>
</a>
</g>
</g>
<!-- Node9 -->
<g id="Node000009" class="node">
<title>Node9</title>
<g id="a_Node000009"><a xlink:href="utriples_8h.html" target="_top" xlink:title=" ">
<polygon fill="white" stroke="#666666" points="612,-41 484,-41 484,0 612,0 612,-41"/>
<text text-anchor="start" x="492" y="-29" font-family="Helvetica,sans-Serif" font-size="10.00">/home/runner/work/occ</text>
<text text-anchor="start" x="492" y="-18" font-family="Helvetica,sans-Serif" font-size="10.00">/occ/include/occ/qm/cc</text>
<text text-anchor="middle" x="548" y="-7" font-family="Helvetica,sans-Serif" font-size="10.00">/utriples.h</text>
</a>
</g>
</g>
<!-- Node8&#45;&gt;Node9 -->
<g id="edge8_Node000008_Node000009" class="edge">
<title>Node8&#45;&gt;Node9</title>
<g id="a_edge8_Node000008_Node000009"><a xlink:title=" ">
<path fill="none" stroke="#63b8ff" d="M548,-66.69C548,-58.08 548,-48.9 548,-41.07"/>
<polygon fill="#63b8ff" stroke="#63b8ff" points="544.5,-66.79 548,-76.79 551.5,-66.79 544.5,-66.79"/>
</a>
</g>
</g>
</g>
</svg>
