<?xml version="1.0" encoding="UTF-8" standalone="no"?>
<!DOCTYPE svg PUBLIC "-//W3C//DTD SVG 1.1//EN"
 "http://www.w3.org/Graphics/SVG/1.1/DTD/svg11.dtd">
<!-- Generated by graphviz version 2.43.0 (0)
 -->
<!-- Title: /home/runner/work/occ/occ/include/occ/core/timings.h Pages: 1 -->
<svg width="1162pt" height="599pt"
 viewBox="0.00 0.00 1162.00 599.00" xmlns="http://www.w3.org/2000/svg" xmlns:xlink="http://www.w3.org/1999/xlink">
<g id="graph0" class="graph" transform="scale(1 1) rotate(0) translate(4 595)">
<title>/home/runner/work/occ/occ/include/occ/core/timings.h</title>
<!-- Node1 -->
<g id="Node000001" class="node">
<title>Node1</title>
<g id="a_Node000001"><a xlink:title=" ">
<polygon fill="#999999" stroke="#666666" points="748.5,-591 620.5,-591 620.5,-550 748.5,-550 748.5,-591"/>
<text text-anchor="start" x="628.5" y="-579" font-family="Helvetica,sans-Serif" font-size="10.00">/home/runner/work/occ</text>
<text text-anchor="start" x="628.5" y="-568" font-family="Helvetica,sans-Serif" font-size="10.00">/occ/include/occ/core</text>
<text text-anchor="middle" x="684.5" y="-557" font-family="Helvetica,sans-Serif" font-size="10.00">/timings.h</text>
</a>
</g>
</g>
<!-- Node2 -->
<g id="Node000002" class="node">
<title>Node2</title>
<g id="a_Node000002"><a xlink:href="dft_8h.html" target="_top" xlink:title=" ">
<polygon fill="white" stroke="#666666" points="808.5,-189.5 674.5,-189.5 674.5,-159.5 808.5,-159.5 808.5,-189.5"/>
<text text-anchor="start" x="682.5" y="-177.5" font-family="Helvetica,sans-Serif" font-size="10.00">/home/runner/work/occ</text>
<text text-anchor="middle" x="741.5" y="-166.5" font-family="Helvetica,sans-Serif" font-size="10.00">/occ/include/occ/dft/dft.h</text>
</a>
</g>
</g>
<!-- Node1&#45;&gt;Node2 -->
<g id="edge1_Node000001_Node000002" class="edge">
<title>Node1&#45;&gt;Node2</title>
<g id="a_edge1_Node000001_Node000002"><a xlink:title=" ">
<path fill="none" stroke="#63b8ff" d="M690.24,-539.8C695.83,-508.23 703.5,-456.79 703.5,-412 703.5,-412 703.5,-412 703.5,-327.5 703.5,-275.55 724.65,-216.51 735.39,-189.87"/>
<polygon fill="#63b8ff" stroke="#63b8ff" points="686.78,-539.24 688.44,-549.7 693.67,-540.49 686.78,-539.24"/>
</a>
</g>
</g>
<!-- Node4 -->
<g id="Node000004" class="node">
<title>Node4</title>
<g id="a_Node000004"><a xlink:href="crystal__growth_8h.html" target="_top" xlink:title=" ">
<polygon fill="white" stroke="#666666" points="624.5,-41 496.5,-41 496.5,0 624.5,0 624.5,-41"/>
<text text-anchor="start" x="504.5" y="-29" font-family="Helvetica,sans-Serif" font-size="10.00">/home/runner/work/occ</text>
<text text-anchor="start" x="504.5" y="-18" font-family="Helvetica,sans-Serif" font-size="10.00">/occ/include/occ/driver</text>
<text text-anchor="middle" x="560.5" y="-7" font-family="Helvetica,sans-Serif" font-size="10.00">/crystal_growth.h</text>
</a>
</g>
</g>
<!-- Node1&#45;&gt;Node4 -->
<g id="edge5_Node000001_Node000004" class="edge">
<title>Node1&#45;&gt;Node4</title>
<g id="a_edge5_Node000001_Node000004"><a xlink:title=" ">
<path fill="none" stroke="#63b8ff" d="M610.39,-567.47C510.3,-563.35 338.78,-550.95 289.5,-514 249.71,-484.17 243.5,-461.73 243.5,-412 243.5,-412 243.5,-412 243.5,-173.5 243.5,-62.42 403.72,-32.45 496.35,-24.41"/>
<polygon fill="#63b8ff" stroke="#63b8ff" points="610.31,-570.97 620.44,-567.87 610.58,-563.98 610.31,-570.97"/>
</a>
</g>
</g>
<!-- Node6 -->
<g id="Node000006" class="node">
<title>Node6</title>
<g id="a_Node000006"><a xlink:href="linear__hashed__marching__cubes_8h.html" target="_top" xlink:title=" ">
<polygon fill="white" stroke="#666666" points="656.5,-437 512.5,-437 512.5,-385 656.5,-385 656.5,-437"/>
<text text-anchor="start" x="520.5" y="-425" font-family="Helvetica,sans-Serif" font-size="10.00">/home/runner/work/occ</text>
<text text-anchor="start" x="520.5" y="-414" font-family="Helvetica,sans-Serif" font-size="10.00">/occ/include/occ/geometry</text>
<text text-anchor="start" x="520.5" y="-403" font-family="Helvetica,sans-Serif" font-size="10.00">/linear_hashed_marching</text>
<text text-anchor="middle" x="584.5" y="-392" font-family="Helvetica,sans-Serif" font-size="10.00">_cubes.h</text>
</a>
</g>
</g>
<!-- Node1&#45;&gt;Node6 -->
<g id="edge6_Node000001_Node000006" class="edge">
<title>Node1&#45;&gt;Node6</title>
<g id="a_edge6_Node000001_Node000006"><a xlink:title=" ">
<path fill="none" stroke="#63b8ff" d="M676.45,-540.08C670.17,-520.13 660.2,-493.72 646.5,-473 637.84,-459.9 625.98,-447.38 614.95,-437.12"/>
<polygon fill="#63b8ff" stroke="#63b8ff" points="673.16,-541.3 679.4,-549.86 679.87,-539.28 673.16,-541.3"/>
</a>
</g>
</g>
<!-- Node7 -->
<g id="Node000007" class="node">
<title>Node7</title>
<g id="a_Node000007"><a xlink:href="marching__cubes_8h.html" target="_top" xlink:title=" ">
<polygon fill="white" stroke="#666666" points="637.5,-514 493.5,-514 493.5,-473 637.5,-473 637.5,-514"/>
<text text-anchor="start" x="501.5" y="-502" font-family="Helvetica,sans-Serif" font-size="10.00">/home/runner/work/occ</text>
<text text-anchor="start" x="501.5" y="-491" font-family="Helvetica,sans-Serif" font-size="10.00">/occ/include/occ/geometry</text>
<text text-anchor="middle" x="565.5" y="-480" font-family="Helvetica,sans-Serif" font-size="10.00">/marching_cubes.h</text>
</a>
</g>
</g>
<!-- Node1&#45;&gt;Node7 -->
<g id="edge7_Node000001_Node000007" class="edge">
<title>Node1&#45;&gt;Node7</title>
<g id="a_edge7_Node000001_Node000007"><a xlink:title=" ">
<path fill="none" stroke="#63b8ff" d="M645.06,-544.64C629.34,-534.74 611.51,-523.5 596.71,-514.17"/>
<polygon fill="#63b8ff" stroke="#63b8ff" points="643.22,-547.62 653.54,-549.99 646.95,-541.7 643.22,-547.62"/>
</a>
</g>
</g>
<!-- Node8 -->
<g id="Node000008" class="node">
<title>Node8</title>
<g id="a_Node000008"><a xlink:href="gto_8h.html" target="_top" xlink:title=" ">
<polygon fill="white" stroke="#666666" points="935.5,-343.5 795.5,-343.5 795.5,-313.5 935.5,-313.5 935.5,-343.5"/>
<text text-anchor="start" x="803.5" y="-331.5" font-family="Helvetica,sans-Serif" font-size="10.00">/home/runner/work/occ</text>
<text text-anchor="middle" x="865.5" y="-320.5" font-family="Helvetica,sans-Serif" font-size="10.00">/occ/include/occ/gto/gto.h</text>
</a>
</g>
</g>
<!-- Node1&#45;&gt;Node8 -->
<g id="edge9_Node000001_Node000008" class="edge">
<title>Node1&#45;&gt;Node8</title>
<g id="a_edge9_Node000001_Node000008"><a xlink:title=" ">
<path fill="none" stroke="#63b8ff" d="M758.46,-557.77C806.83,-548.41 863.7,-533.63 878.5,-514 917.55,-462.21 886.88,-377.28 872.2,-343.75"/>
<polygon fill="#63b8ff" stroke="#63b8ff" points="757.78,-554.33 748.6,-559.62 759.08,-561.21 757.78,-554.33"/>
</a>
</g>
</g>
<!-- Node11 -->
<g id="Node000011" class="node">
<title>Node11</title>
<g id="a_Node000011"><a xlink:href="integral__engine_8h.html" target="_top" xlink:title=" ">
<polygon fill="white" stroke="#666666" points="469,-431.5 316,-431.5 316,-390.5 469,-390.5 469,-431.5"/>
<text text-anchor="start" x="324" y="-419.5" font-family="Helvetica,sans-Serif" font-size="10.00">/home/runner/work/occ</text>
<text text-anchor="start" x="324" y="-408.5" font-family="Helvetica,sans-Serif" font-size="10.00">/occ/include/occ/qm/integral</text>
<text text-anchor="middle" x="392.5" y="-397.5" font-family="Helvetica,sans-Serif" font-size="10.00">_engine.h</text>
</a>
</g>
</g>
<!-- Node1&#45;&gt;Node11 -->
<g id="edge15_Node000001_Node000011" class="edge">
<title>Node1&#45;&gt;Node11</title>
<g id="a_edge15_Node000001_Node000011"><a xlink:title=" ">
<path fill="none" stroke="#63b8ff" d="M610.43,-569.81C510.31,-568.46 339.77,-559.36 300.5,-514 288.57,-500.22 291.88,-489.06 300.5,-473 310.2,-454.93 327.86,-441.31 345.14,-431.58"/>
<polygon fill="#63b8ff" stroke="#63b8ff" points="610.45,-573.31 620.49,-569.92 610.53,-566.31 610.45,-573.31"/>
</a>
</g>
</g>
<!-- Node19 -->
<g id="Node000019" class="node">
<title>Node19</title>
<g id="a_Node000019"><a xlink:href="scf_8h.html" target="_top" xlink:title=" ">
<polygon fill="white" stroke="#666666" points="869.5,-508.5 731.5,-508.5 731.5,-478.5 869.5,-478.5 869.5,-508.5"/>
<text text-anchor="start" x="739.5" y="-496.5" font-family="Helvetica,sans-Serif" font-size="10.00">/home/runner/work/occ</text>
<text text-anchor="middle" x="800.5" y="-485.5" font-family="Helvetica,sans-Serif" font-size="10.00">/occ/include/occ/qm/scf.h</text>
</a>
</g>
</g>
<!-- Node1&#45;&gt;Node19 -->
<g id="edge26_Node000001_Node000019" class="edge">
<title>Node1&#45;&gt;Node19</title>
<g id="a_edge26_Node000001_Node000019"><a xlink:title=" ">
<path fill="none" stroke="#63b8ff" d="M723.17,-544.5C741.59,-532.59 762.94,-518.78 778.54,-508.7"/>
<polygon fill="#63b8ff" stroke="#63b8ff" points="721.17,-541.62 714.67,-549.99 724.97,-547.5 721.17,-541.62"/>
</a>
</g>
</g>
<!-- Node20 -->
<g id="Node000020" class="node">
<title>Node20</title>
<g id="a_Node000020"><a xlink:href="shellblock__norm_8h.html" target="_top" xlink:title=" ">
<polygon fill="white" stroke="#666666" points="475,-514 310,-514 310,-473 475,-473 475,-514"/>
<text text-anchor="start" x="318" y="-502" font-family="Helvetica,sans-Serif" font-size="10.00">/home/runner/work/occ</text>
<text text-anchor="start" x="318" y="-491" font-family="Helvetica,sans-Serif" font-size="10.00">/occ/include/occ/qm/shellblock</text>
<text text-anchor="middle" x="392.5" y="-480" font-family="Helvetica,sans-Serif" font-size="10.00">_norm.h</text>
</a>
</g>
</g>
<!-- Node1&#45;&gt;Node20 -->
<g id="edge27_Node000001_Node000020" class="edge">
<title>Node1&#45;&gt;Node20</title>
<g id="a_edge27_Node000001_Node000020"><a xlink:title=" ">
<path fill="none" stroke="#63b8ff" d="M610.49,-550.49C567.09,-539.34 512.36,-525.28 468.59,-514.04"/>
<polygon fill="#63b8ff" stroke="#63b8ff" points="609.86,-553.94 620.42,-553.04 611.6,-547.16 609.86,-553.94"/>
</a>
</g>
</g>
<!-- Node21 -->
<g id="Node000021" class="node">
<title>Node21</title>
<g id="a_Node000021"><a xlink:href="sht_8h.html" target="_top" xlink:title=" ">
<polygon fill="white" stroke="#666666" points="1065,-508.5 926,-508.5 926,-478.5 1065,-478.5 1065,-508.5"/>
<text text-anchor="start" x="934" y="-496.5" font-family="Helvetica,sans-Serif" font-size="10.00">/home/runner/work/occ</text>
<text text-anchor="middle" x="995.5" y="-485.5" font-family="Helvetica,sans-Serif" font-size="10.00">/occ/include/occ/sht/sht.h</text>
</a>
</g>
</g>
<!-- Node1&#45;&gt;Node21 -->
<g id="edge29_Node000001_Node000021" class="edge">
<title>Node1&#45;&gt;Node21</title>
<g id="a_edge29_Node000001_Node000021"><a xlink:title=" ">
<path fill="none" stroke="#63b8ff" d="M758.55,-551.64C813.28,-538.44 886.75,-520.73 937.29,-508.54"/>
<polygon fill="#63b8ff" stroke="#63b8ff" points="757.46,-548.3 748.56,-554.05 759.1,-555.11 757.46,-548.3"/>
</a>
</g>
</g>
<!-- Node22 -->
<g id="Node000022" class="node">
<title>Node22</title>
<g id="a_Node000022"><a xlink:href="solvation__correction_8h.html" target="_top" xlink:title=" ">
<polygon fill="white" stroke="#666666" points="1154,-431.5 1021,-431.5 1021,-390.5 1154,-390.5 1154,-431.5"/>
<text text-anchor="start" x="1029" y="-419.5" font-family="Helvetica,sans-Serif" font-size="10.00">/home/runner/work/occ</text>
<text text-anchor="start" x="1029" y="-408.5" font-family="Helvetica,sans-Serif" font-size="10.00">/occ/include/occ/solvent</text>
<text text-anchor="middle" x="1087.5" y="-397.5" font-family="Helvetica,sans-Serif" font-size="10.00">/solvation_correction.h</text>
</a>
</g>
</g>
<!-- Node1&#45;&gt;Node22 -->
<g id="edge30_Node000001_Node000022" class="edge">
<title>Node1&#45;&gt;Node22</title>
<g id="a_edge30_Node000001_Node000022"><a xlink:title=" ">
<path fill="none" stroke="#63b8ff" d="M758.93,-569.26C859.66,-567.26 1031.74,-557.38 1074.5,-514 1095.68,-492.51 1094.56,-454.94 1091.35,-431.89"/>
<polygon fill="#63b8ff" stroke="#63b8ff" points="758.75,-565.76 748.81,-569.44 758.87,-572.76 758.75,-565.76"/>
</a>
</g>
</g>
<!-- Node3 -->
<g id="Node000003" class="node">
<title>Node3</title>
<g id="a_Node000003"><a xlink:href="smd__solvation_8h.html" target="_top" xlink:title=" ">
<polygon fill="white" stroke="#666666" points="815.5,-118 683.5,-118 683.5,-77 815.5,-77 815.5,-118"/>
<text text-anchor="start" x="691.5" y="-106" font-family="Helvetica,sans-Serif" font-size="10.00">/home/runner/work/occ</text>
<text text-anchor="start" x="691.5" y="-95" font-family="Helvetica,sans-Serif" font-size="10.00">/occ/include/occ/cg/smd</text>
<text text-anchor="middle" x="749.5" y="-84" font-family="Helvetica,sans-Serif" font-size="10.00">_solvation.h</text>
</a>
</g>
</g>
<!-- Node2&#45;&gt;Node3 -->
<g id="edge2_Node000002_Node000003" class="edge">
<title>Node2&#45;&gt;Node3</title>
<g id="a_edge2_Node000002_Node000003"><a xlink:title=" ">
<path fill="none" stroke="#63b8ff" d="M744.09,-149.23C745.16,-139.2 746.38,-127.71 747.4,-118.2"/>
<polygon fill="#63b8ff" stroke="#63b8ff" points="740.59,-149.08 743,-159.39 747.55,-149.82 740.59,-149.08"/>
</a>
</g>
</g>
<!-- Node5 -->
<g id="Node000005" class="node">
<title>Node5</title>
<g id="a_Node000005"><a xlink:href="point__functors_8h.html" target="_top" xlink:title=" ">
<polygon fill="white" stroke="#666666" points="665.5,-118 537.5,-118 537.5,-77 665.5,-77 665.5,-118"/>
<text text-anchor="start" x="545.5" y="-106" font-family="Helvetica,sans-Serif" font-size="10.00">/home/runner/work/occ</text>
<text text-anchor="start" x="545.5" y="-95" font-family="Helvetica,sans-Serif" font-size="10.00">/occ/include/occ/main</text>
<text text-anchor="middle" x="601.5" y="-84" font-family="Helvetica,sans-Serif" font-size="10.00">/point_functors.h</text>
</a>
</g>
</g>
<!-- Node2&#45;&gt;Node5 -->
<g id="edge4_Node000002_Node000005" class="edge">
<title>Node2&#45;&gt;Node5</title>
<g id="a_edge4_Node000002_Node000005"><a xlink:title=" ">
<path fill="none" stroke="#63b8ff" d="M706.31,-154.65C685.46,-143.48 659.09,-129.35 638.02,-118.06"/>
<polygon fill="#63b8ff" stroke="#63b8ff" points="704.7,-157.76 715.17,-159.39 708.01,-151.59 704.7,-157.76"/>
</a>
</g>
</g>
<!-- Node3&#45;&gt;Node4 -->
<g id="edge3_Node000003_Node000004" class="edge">
<title>Node3&#45;&gt;Node4</title>
<g id="a_edge3_Node000003_Node000004"><a xlink:title=" ">
<path fill="none" stroke="#63b8ff" d="M690.95,-73.27C664.92,-62.94 634.6,-50.9 609.75,-41.04"/>
<polygon fill="#63b8ff" stroke="#63b8ff" points="689.75,-76.56 700.34,-76.99 692.33,-70.05 689.75,-76.56"/>
</a>
</g>
</g>
<!-- Node7&#45;&gt;Node6 -->
<g id="edge8_Node000007_Node000006" class="edge">
<title>Node7&#45;&gt;Node6</title>
<g id="a_edge8_Node000007_Node000006"><a xlink:title=" ">
<path fill="none" stroke="#63b8ff" d="M572.52,-462.77C574.5,-454.35 576.65,-445.27 578.56,-437.16"/>
<polygon fill="#63b8ff" stroke="#63b8ff" points="569.09,-462.06 570.2,-472.6 575.9,-463.67 569.09,-462.06"/>
</a>
</g>
</g>
<!-- Node8&#45;&gt;Node2 -->
<g id="edge10_Node000008_Node000002" class="edge">
<title>Node8&#45;&gt;Node2</title>
<g id="a_edge10_Node000008_Node000002"><a xlink:title=" ">
<path fill="none" stroke="#63b8ff" d="M810.04,-309.35C791.71,-300.76 772.87,-288.63 760.5,-272 742.26,-247.47 740.24,-210.07 740.67,-189.78"/>
<polygon fill="#63b8ff" stroke="#63b8ff" points="808.69,-312.58 819.25,-313.41 811.51,-306.18 808.69,-312.58"/>
</a>
</g>
</g>
<!-- Node9 -->
<g id="Node000009" class="node">
<title>Node9</title>
<g id="a_Node000009"><a xlink:href="xc__potential__matrix_8h.html" target="_top" xlink:title=" ">
<polygon fill="white" stroke="#666666" points="897.5,-272 769.5,-272 769.5,-231 897.5,-231 897.5,-272"/>
<text text-anchor="start" x="777.5" y="-260" font-family="Helvetica,sans-Serif" font-size="10.00">/home/runner/work/occ</text>
<text text-anchor="start" x="777.5" y="-249" font-family="Helvetica,sans-Serif" font-size="10.00">/occ/include/occ/dft</text>
<text text-anchor="middle" x="833.5" y="-238" font-family="Helvetica,sans-Serif" font-size="10.00">/xc_potential_matrix.h</text>
</a>
</g>
</g>
<!-- Node8&#45;&gt;Node9 -->
<g id="edge11_Node000008_Node000009" class="edge">
<title>Node8&#45;&gt;Node9</title>
<g id="a_edge11_Node000008_Node000009"><a xlink:title=" ">
<path fill="none" stroke="#63b8ff" d="M855.55,-304.19C851.18,-293.93 846.09,-282.01 841.91,-272.2"/>
<polygon fill="#63b8ff" stroke="#63b8ff" points="852.34,-305.57 859.48,-313.39 858.78,-302.82 852.34,-305.57"/>
</a>
</g>
</g>
<!-- Node10 -->
<g id="Node000010" class="node">
<title>Node10</title>
<g id="a_Node000010"><a xlink:href="density_8h.html" target="_top" xlink:title=" ">
<polygon fill="white" stroke="#666666" points="1043.5,-272 915.5,-272 915.5,-231 1043.5,-231 1043.5,-272"/>
<text text-anchor="start" x="923.5" y="-260" font-family="Helvetica,sans-Serif" font-size="10.00">/home/runner/work/occ</text>
<text text-anchor="start" x="923.5" y="-249" font-family="Helvetica,sans-Serif" font-size="10.00">/occ/include/occ/gto</text>
<text text-anchor="middle" x="979.5" y="-238" font-family="Helvetica,sans-Serif" font-size="10.00">/density.h</text>
</a>
</g>
</g>
<!-- Node8&#45;&gt;Node10 -->
<g id="edge13_Node000008_Node000010" class="edge">
<title>Node8&#45;&gt;Node10</title>
<g id="a_edge13_Node000008_Node000010"><a xlink:title=" ">
<path fill="none" stroke="#63b8ff" d="M895.73,-307.61C912.37,-296.66 932.95,-283.12 949.55,-272.2"/>
<polygon fill="#63b8ff" stroke="#63b8ff" points="893.37,-304.97 886.94,-313.39 897.22,-310.82 893.37,-304.97"/>
</a>
</g>
</g>
<!-- Node9&#45;&gt;Node2 -->
<g id="edge12_Node000009_Node000002" class="edge">
<title>Node9&#45;&gt;Node2</title>
<g id="a_edge12_Node000009_Node000002"><a xlink:title=" ">
<path fill="none" stroke="#63b8ff" d="M801.2,-224.17C786.94,-212.55 770.75,-199.34 758.83,-189.63"/>
<polygon fill="#63b8ff" stroke="#63b8ff" points="799.37,-227.19 809.33,-230.79 803.79,-221.76 799.37,-227.19"/>
</a>
</g>
</g>
<!-- Node10&#45;&gt;Node2 -->
<g id="edge14_Node000010_Node000002" class="edge">
<title>Node10&#45;&gt;Node2</title>
<g id="a_edge14_Node000010_Node000002"><a xlink:title=" ">
<path fill="none" stroke="#63b8ff" d="M907.98,-227.96C868.41,-215.49 820.45,-200.38 786.19,-189.58"/>
<polygon fill="#63b8ff" stroke="#63b8ff" points="907,-231.32 917.59,-230.99 909.1,-224.65 907,-231.32"/>
</a>
</g>
</g>
<!-- Node12 -->
<g id="Node000012" class="node">
<title>Node12</title>
<g id="a_Node000012"><a xlink:href="seminumerical__exchange_8h.html" target="_top" xlink:title=" ">
<polygon fill="white" stroke="#666666" points="425.5,-349 271.5,-349 271.5,-308 425.5,-308 425.5,-349"/>
<text text-anchor="start" x="279.5" y="-337" font-family="Helvetica,sans-Serif" font-size="10.00">/home/runner/work/occ</text>
<text text-anchor="start" x="279.5" y="-326" font-family="Helvetica,sans-Serif" font-size="10.00">/occ/include/occ/dft</text>
<text text-anchor="middle" x="348.5" y="-315" font-family="Helvetica,sans-Serif" font-size="10.00">/seminumerical_exchange.h</text>
</a>
</g>
</g>
<!-- Node11&#45;&gt;Node12 -->
<g id="edge16_Node000011_Node000012" class="edge">
<title>Node11&#45;&gt;Node12</title>
<g id="a_edge16_Node000011_Node000012"><a xlink:title=" ">
<path fill="none" stroke="#63b8ff" d="M376.74,-381.16C370.94,-370.55 364.51,-358.79 359.25,-349.17"/>
<polygon fill="#63b8ff" stroke="#63b8ff" points="373.76,-383 381.62,-390.1 379.9,-379.65 373.76,-383"/>
</a>
</g>
</g>
<!-- Node13 -->
<g id="Node000013" class="node">
<title>Node13</title>
<g id="a_Node000013"><a xlink:href="hf_8h.html" target="_top" xlink:title=" ">
<polygon fill="white" stroke="#666666" points="668.5,-266.5 534.5,-266.5 534.5,-236.5 668.5,-236.5 668.5,-266.5"/>
<text text-anchor="start" x="542.5" y="-254.5" font-family="Helvetica,sans-Serif" font-size="10.00">/home/runner/work/occ</text>
<text text-anchor="middle" x="601.5" y="-243.5" font-family="Helvetica,sans-Serif" font-size="10.00">/occ/include/occ/qm/hf.h</text>
</a>
</g>
</g>
<!-- Node11&#45;&gt;Node13 -->
<g id="edge17_Node000011_Node000013" class="edge">
<title>Node11&#45;&gt;Node13</title>
<g id="a_edge17_Node000011_Node000013"><a xlink:title=" ">
<path fill="none" stroke="#63b8ff" d="M479.09,-390.52C534.82,-377.1 598.34,-359.82 606.5,-349 624.69,-324.9 614.83,-286.98 607.37,-266.59"/>
<polygon fill="#63b8ff" stroke="#63b8ff" points="478.07,-387.16 469.15,-392.89 479.69,-393.97 478.07,-387.16"/>
</a>
</g>
</g>
<!-- Node18 -->
<g id="Node000018" class="node">
<title>Node18</title>
<g id="a_Node000018"><a xlink:href="integral__engine__df_8h.html" target="_top" xlink:title=" ">
<polygon fill="white" stroke="#666666" points="597,-349 444,-349 444,-308 597,-308 597,-349"/>
<text text-anchor="start" x="452" y="-337" font-family="Helvetica,sans-Serif" font-size="10.00">/home/runner/work/occ</text>
<text text-anchor="start" x="452" y="-326" font-family="Helvetica,sans-Serif" font-size="10.00">/occ/include/occ/qm/integral</text>
<text text-anchor="middle" x="520.5" y="-315" font-family="Helvetica,sans-Serif" font-size="10.00">_engine_df.h</text>
</a>
</g>
</g>
<!-- Node11&#45;&gt;Node18 -->
<g id="edge24_Node000011_Node000018" class="edge">
<title>Node11&#45;&gt;Node18</title>
<g id="a_edge24_Node000011_Node000018"><a xlink:title=" ">
<path fill="none" stroke="#63b8ff" d="M432.49,-384.85C450.72,-373.38 472,-360 489.07,-349.27"/>
<polygon fill="#63b8ff" stroke="#63b8ff" points="430.41,-382.02 423.81,-390.31 434.14,-387.95 430.41,-382.02"/>
</a>
</g>
</g>
<!-- Node13&#45;&gt;Node2 -->
<g id="edge18_Node000013_Node000002" class="edge">
<title>Node13&#45;&gt;Node2</title>
<g id="a_edge18_Node000013_Node000002"><a xlink:title=" ">
<path fill="none" stroke="#63b8ff" d="M636.78,-231.6C661.18,-218.53 693.13,-201.41 715.29,-189.54"/>
<polygon fill="#63b8ff" stroke="#63b8ff" points="634.99,-228.59 627.83,-236.39 638.3,-234.76 634.99,-228.59"/>
</a>
</g>
</g>
<!-- Node13&#45;&gt;Node5 -->
<g id="edge23_Node000013_Node000005" class="edge">
<title>Node13&#45;&gt;Node5</title>
<g id="a_edge23_Node000013_Node000005"><a xlink:title=" ">
<path fill="none" stroke="#63b8ff" d="M601.5,-226.46C601.5,-196.51 601.5,-145.93 601.5,-118.18"/>
<polygon fill="#63b8ff" stroke="#63b8ff" points="598,-226.47 601.5,-236.47 605,-226.47 598,-226.47"/>
</a>
</g>
</g>
<!-- Node14 -->
<g id="Node000014" class="node">
<title>Node14</title>
<g id="a_Node000014"><a xlink:href="electric__potential_8h.html" target="_top" xlink:title=" ">
<polygon fill="white" stroke="#666666" points="493,-195 346,-195 346,-154 493,-154 493,-195"/>
<text text-anchor="start" x="354" y="-183" font-family="Helvetica,sans-Serif" font-size="10.00">/home/runner/work/occ</text>
<text text-anchor="start" x="354" y="-172" font-family="Helvetica,sans-Serif" font-size="10.00">/occ/include/occ/isosurface</text>
<text text-anchor="middle" x="419.5" y="-161" font-family="Helvetica,sans-Serif" font-size="10.00">/electric_potential.h</text>
</a>
</g>
</g>
<!-- Node13&#45;&gt;Node14 -->
<g id="edge19_Node000013_Node000014" class="edge">
<title>Node13&#45;&gt;Node14</title>
<g id="a_edge19_Node000013_Node000014"><a xlink:title=" ">
<path fill="none" stroke="#63b8ff" d="M557.93,-232.54C530.5,-221.24 495.11,-206.66 466.97,-195.06"/>
<polygon fill="#63b8ff" stroke="#63b8ff" points="556.69,-235.82 567.27,-236.39 559.35,-229.35 556.69,-235.82"/>
</a>
</g>
</g>
<!-- Node15 -->
<g id="Node000015" class="node">
<title>Node15</title>
<g id="a_Node000015"><a xlink:href="isosurface_8h.html" target="_top" xlink:title=" ">
<polygon fill="white" stroke="#666666" points="215,-118 68,-118 68,-77 215,-77 215,-118"/>
<text text-anchor="start" x="76" y="-106" font-family="Helvetica,sans-Serif" font-size="10.00">/home/runner/work/occ</text>
<text text-anchor="start" x="76" y="-95" font-family="Helvetica,sans-Serif" font-size="10.00">/occ/include/occ/isosurface</text>
<text text-anchor="middle" x="141.5" y="-84" font-family="Helvetica,sans-Serif" font-size="10.00">/isosurface.h</text>
</a>
</g>
</g>
<!-- Node14&#45;&gt;Node15 -->
<g id="edge20_Node000014_Node000015" class="edge">
<title>Node14&#45;&gt;Node15</title>
<g id="a_edge20_Node000014_Node000015"><a xlink:title=" ">
<path fill="none" stroke="#63b8ff" d="M337.39,-151.35C298.23,-140.78 251.77,-128.25 213.94,-118.04"/>
<polygon fill="#63b8ff" stroke="#63b8ff" points="336.62,-154.76 347.18,-153.99 338.44,-148.01 336.62,-154.76"/>
</a>
</g>
</g>
<!-- Node16 -->
<g id="Node000016" class="node">
<title>Node16</title>
<g id="a_Node000016"><a xlink:href="obj_8h.html" target="_top" xlink:title=" ">
<polygon fill="white" stroke="#666666" points="133,-35.5 0,-35.5 0,-5.5 133,-5.5 133,-35.5"/>
<text text-anchor="start" x="8" y="-23.5" font-family="Helvetica,sans-Serif" font-size="10.00">/home/runner/work/occ</text>
<text text-anchor="middle" x="66.5" y="-12.5" font-family="Helvetica,sans-Serif" font-size="10.00">/occ/include/occ/io/obj.h</text>
</a>
</g>
</g>
<!-- Node15&#45;&gt;Node16 -->
<g id="edge21_Node000015_Node000016" class="edge">
<title>Node15&#45;&gt;Node16</title>
<g id="a_edge21_Node000015_Node000016"><a xlink:title=" ">
<path fill="none" stroke="#63b8ff" d="M114.57,-69.57C103.18,-58.18 90.39,-45.39 80.86,-35.86"/>
<polygon fill="#63b8ff" stroke="#63b8ff" points="112.25,-72.2 121.79,-76.79 117.2,-67.25 112.25,-72.2"/>
</a>
</g>
</g>
<!-- Node17 -->
<g id="Node000017" class="node">
<title>Node17</title>
<g id="a_Node000017"><a xlink:href="ply_8h.html" target="_top" xlink:title=" ">
<polygon fill="white" stroke="#666666" points="282,-35.5 151,-35.5 151,-5.5 282,-5.5 282,-35.5"/>
<text text-anchor="start" x="159" y="-23.5" font-family="Helvetica,sans-Serif" font-size="10.00">/home/runner/work/occ</text>
<text text-anchor="middle" x="216.5" y="-12.5" font-family="Helvetica,sans-Serif" font-size="10.00">/occ/include/occ/io/ply.h</text>
</a>
</g>
</g>
<!-- Node15&#45;&gt;Node17 -->
<g id="edge22_Node000015_Node000017" class="edge">
<title>Node15&#45;&gt;Node17</title>
<g id="a_edge22_Node000015_Node000017"><a xlink:title=" ">
<path fill="none" stroke="#63b8ff" d="M168.43,-69.57C179.82,-58.18 192.61,-45.39 202.14,-35.86"/>
<polygon fill="#63b8ff" stroke="#63b8ff" points="165.8,-67.25 161.21,-76.79 170.75,-72.2 165.8,-67.25"/>
</a>
</g>
</g>
<!-- Node18&#45;&gt;Node13 -->
<g id="edge25_Node000018_Node000013" class="edge">
<title>Node18&#45;&gt;Node13</title>
<g id="a_edge25_Node000018_Node000013"><a xlink:title=" ">
<path fill="none" stroke="#63b8ff" d="M549.29,-300.84C561.76,-289.3 575.85,-276.25 586.24,-266.63"/>
<polygon fill="#63b8ff" stroke="#63b8ff" points="546.74,-298.43 541.78,-307.79 551.5,-303.57 546.74,-298.43"/>
</a>
</g>
</g>
<!-- Node20&#45;&gt;Node11 -->
<g id="edge28_Node000020_Node000011" class="edge">
<title>Node20&#45;&gt;Node11</title>
<g id="a_edge28_Node000020_Node000011"><a xlink:title=" ">
<path fill="none" stroke="#63b8ff" d="M392.5,-462.37C392.5,-452.1 392.5,-440.9 392.5,-431.67"/>
<polygon fill="#63b8ff" stroke="#63b8ff" points="389,-462.6 392.5,-472.6 396,-462.6 389,-462.6"/>
</a>
</g>
</g>
<!-- Node22&#45;&gt;Node3 -->
<g id="edge31_Node000022_Node000003" class="edge">
<title>Node22&#45;&gt;Node3</title>
<g id="a_edge31_Node000022_Node000003"><a xlink:title=" ">
<path fill="none" stroke="#63b8ff" d="M1089.62,-380.29C1090.77,-341.68 1087.08,-274.13 1052.5,-231 993.51,-157.43 885.49,-123.72 815.63,-109.01"/>
<polygon fill="#63b8ff" stroke="#63b8ff" points="1086.12,-380.23 1089.19,-390.37 1093.12,-380.53 1086.12,-380.23"/>
</a>
</g>
</g>
</g>
</svg>
