<?xml version="1.0" encoding="UTF-8" standalone="no"?>
<!DOCTYPE svg PUBLIC "-//W3C//DTD SVG 1.1//EN"
 "http://www.w3.org/Graphics/SVG/1.1/DTD/svg11.dtd">
<!-- Generated by graphviz version 2.43.0 (0)
 -->
<!-- Title: /home/runner/work/occ/occ/include/occ/crystal/unitcell.h Pages: 1 -->
<svg width="832pt" height="218pt"
 viewBox="0.00 0.00 831.50 218.00" xmlns="http://www.w3.org/2000/svg" xmlns:xlink="http://www.w3.org/1999/xlink">
<g id="graph0" class="graph" transform="scale(1 1) rotate(0) translate(4 214)">
<title>/home/runner/work/occ/occ/include/occ/crystal/unitcell.h</title>
<!-- Node1 -->
<g id="node1" class="node">
<title>Node1</title>
<g id="a_node1"><a xlink:title=" ">
<polygon fill="#bfbfbf" stroke="black" points="157.5,-168.5 157.5,-209.5 287.5,-209.5 287.5,-168.5 157.5,-168.5"/>
<text text-anchor="start" x="165.5" y="-197.5" font-family="Helvetica,sans-Serif" font-size="10.00">/home/runner/work/occ</text>
<text text-anchor="start" x="165.5" y="-186.5" font-family="Helvetica,sans-Serif" font-size="10.00">/occ/include/occ/crystal</text>
<text text-anchor="middle" x="222.5" y="-175.5" font-family="Helvetica,sans-Serif" font-size="10.00">/unitcell.h</text>
</a>
</g>
</g>
<!-- Node2 -->
<g id="node2" class="node">
<title>Node2</title>
<g id="a_node2"><a xlink:href="linear__algebra_8h.html" target="_top" xlink:title=" ">
<polygon fill="none" stroke="black" points="77,-56.5 77,-75.5 216,-75.5 216,-56.5 77,-56.5"/>
<text text-anchor="middle" x="146.5" y="-63.5" font-family="Helvetica,sans-Serif" font-size="10.00">occ/core/linear_algebra.h</text>
</a>
</g>
</g>
<!-- Node1&#45;&gt;Node2 -->
<g id="edge1" class="edge">
<title>Node1&#45;&gt;Node2</title>
<path fill="none" stroke="midnightblue" d="M197.42,-168.46C186.24,-158.6 173.76,-145.81 165.5,-132 156.92,-117.66 152.01,-99.19 149.34,-85.61"/>
<polygon fill="midnightblue" stroke="midnightblue" points="152.75,-84.81 147.59,-75.55 145.85,-86 152.75,-84.81"/>
</g>
<!-- Node6 -->
<g id="node6" class="node">
<title>Node6</title>
<g id="a_node6"><a xlink:href="units_8h.html" target="_top" xlink:title=" ">
<polygon fill="none" stroke="black" points="7,-112.5 7,-131.5 100,-131.5 100,-112.5 7,-112.5"/>
<text text-anchor="middle" x="53.5" y="-119.5" font-family="Helvetica,sans-Serif" font-size="10.00">occ/core/units.h</text>
</a>
</g>
</g>
<!-- Node1&#45;&gt;Node6 -->
<g id="edge5" class="edge">
<title>Node1&#45;&gt;Node6</title>
<path fill="none" stroke="midnightblue" d="M171.79,-168.5C143.77,-157.72 109.8,-144.65 85.46,-135.29"/>
<polygon fill="midnightblue" stroke="midnightblue" points="86.59,-131.98 76,-131.65 84.07,-138.51 86.59,-131.98"/>
</g>
<!-- Node8 -->
<g id="node8" class="node">
<title>Node8</title>
<g id="a_node8"><a xlink:href="util_8h.html" target="_top" xlink:title=" ">
<polygon fill="none" stroke="black" points="413,-112.5 413,-131.5 498,-131.5 498,-112.5 413,-112.5"/>
<text text-anchor="middle" x="455.5" y="-119.5" font-family="Helvetica,sans-Serif" font-size="10.00">occ/core/util.h</text>
</a>
</g>
</g>
<!-- Node1&#45;&gt;Node8 -->
<g id="edge7" class="edge">
<title>Node1&#45;&gt;Node8</title>
<path fill="none" stroke="midnightblue" d="M287.71,-169.81C328.52,-158.42 379.81,-144.12 414.87,-134.33"/>
<polygon fill="midnightblue" stroke="midnightblue" points="416.06,-137.64 424.75,-131.58 414.18,-130.89 416.06,-137.64"/>
</g>
<!-- Node14 -->
<g id="node14" class="node">
<title>Node14</title>
<g id="a_node14"><a xlink:title=" ">
<polygon fill="none" stroke="#bfbfbf" points="779.5,-56.5 779.5,-75.5 823.5,-75.5 823.5,-56.5 779.5,-56.5"/>
<text text-anchor="middle" x="801.5" y="-63.5" font-family="Helvetica,sans-Serif" font-size="10.00">string</text>
</a>
</g>
</g>
<!-- Node1&#45;&gt;Node14 -->
<g id="edge20" class="edge">
<title>Node1&#45;&gt;Node14</title>
<path fill="none" stroke="midnightblue" d="M287.88,-176.59C389.19,-158.47 590.25,-120.82 769.34,-76.16"/>
<polygon fill="midnightblue" stroke="midnightblue" points="770.35,-79.51 779.2,-73.68 768.65,-72.72 770.35,-79.51"/>
</g>
<!-- Node17 -->
<g id="node17" class="node">
<title>Node17</title>
<g id="a_node17"><a xlink:href="hkl_8h.html" target="_top" xlink:title=" ">
<polygon fill="none" stroke="black" points="174.5,-112.5 174.5,-131.5 270.5,-131.5 270.5,-112.5 174.5,-112.5"/>
<text text-anchor="middle" x="222.5" y="-119.5" font-family="Helvetica,sans-Serif" font-size="10.00">occ/crystal/hkl.h</text>
</a>
</g>
</g>
<!-- Node1&#45;&gt;Node17 -->
<g id="edge18" class="edge">
<title>Node1&#45;&gt;Node17</title>
<path fill="none" stroke="midnightblue" d="M222.5,-168.5C222.5,-160.07 222.5,-150.24 222.5,-141.87"/>
<polygon fill="midnightblue" stroke="midnightblue" points="226,-141.65 222.5,-131.65 219,-141.65 226,-141.65"/>
</g>
<!-- Node3 -->
<g id="node3" class="node">
<title>Node3</title>
<g id="a_node3"><a xlink:title=" ">
<polygon fill="none" stroke="#bfbfbf" points="0,-0.5 0,-19.5 77,-19.5 77,-0.5 0,-0.5"/>
<text text-anchor="middle" x="38.5" y="-7.5" font-family="Helvetica,sans-Serif" font-size="10.00">Eigen/Dense</text>
</a>
</g>
</g>
<!-- Node2&#45;&gt;Node3 -->
<g id="edge2" class="edge">
<title>Node2&#45;&gt;Node3</title>
<path fill="none" stroke="midnightblue" d="M129.15,-56.32C111.83,-47.66 84.98,-34.24 65,-24.25"/>
<polygon fill="midnightblue" stroke="midnightblue" points="66.32,-21 55.81,-19.65 63.19,-27.26 66.32,-21"/>
</g>
<!-- Node4 -->
<g id="node4" class="node">
<title>Node4</title>
<g id="a_node4"><a xlink:title=" ">
<polygon fill="none" stroke="#bfbfbf" points="95,-0.5 95,-19.5 188,-19.5 188,-0.5 95,-0.5"/>
<text text-anchor="middle" x="141.5" y="-7.5" font-family="Helvetica,sans-Serif" font-size="10.00">Eigen/StdVector</text>
</a>
</g>
</g>
<!-- Node2&#45;&gt;Node4 -->
<g id="edge3" class="edge">
<title>Node2&#45;&gt;Node4</title>
<path fill="none" stroke="midnightblue" d="M145.67,-56.08C145.02,-49.01 144.08,-38.86 143.26,-29.99"/>
<polygon fill="midnightblue" stroke="midnightblue" points="146.72,-29.39 142.31,-19.75 139.75,-30.03 146.72,-29.39"/>
</g>
<!-- Node5 -->
<g id="node5" class="node">
<title>Node5</title>
<g id="a_node5"><a xlink:title=" ">
<polygon fill="none" stroke="#bfbfbf" points="206.5,-0.5 206.5,-19.5 292.5,-19.5 292.5,-0.5 206.5,-0.5"/>
<text text-anchor="middle" x="249.5" y="-7.5" font-family="Helvetica,sans-Serif" font-size="10.00">fmt/ostream.h</text>
</a>
</g>
</g>
<!-- Node2&#45;&gt;Node5 -->
<g id="edge4" class="edge">
<title>Node2&#45;&gt;Node5</title>
<path fill="none" stroke="midnightblue" d="M163.05,-56.32C179.49,-47.7 204.93,-34.36 223.97,-24.39"/>
<polygon fill="midnightblue" stroke="midnightblue" points="225.76,-27.4 232.99,-19.65 222.51,-21.2 225.76,-27.4"/>
</g>
<!-- Node7 -->
<g id="node7" class="node">
<title>Node7</title>
<g id="a_node7"><a xlink:title=" ">
<polygon fill="none" stroke="#bfbfbf" points="12,-56.5 12,-75.5 59,-75.5 59,-56.5 12,-56.5"/>
<text text-anchor="middle" x="35.5" y="-63.5" font-family="Helvetica,sans-Serif" font-size="10.00">cmath</text>
</a>
</g>
</g>
<!-- Node6&#45;&gt;Node7 -->
<g id="edge6" class="edge">
<title>Node6&#45;&gt;Node7</title>
<path fill="none" stroke="midnightblue" d="M50.53,-112.08C48.12,-104.85 44.64,-94.41 41.63,-85.4"/>
<polygon fill="midnightblue" stroke="midnightblue" points="44.9,-84.13 38.42,-75.75 38.26,-86.34 44.9,-84.13"/>
</g>
<!-- Node8&#45;&gt;Node2 -->
<g id="edge14" class="edge">
<title>Node8&#45;&gt;Node2</title>
<path fill="none" stroke="midnightblue" d="M412.86,-113.55C359.02,-104.14 266.12,-87.91 205.5,-77.31"/>
<polygon fill="midnightblue" stroke="midnightblue" points="205.77,-73.81 195.32,-75.53 204.57,-80.7 205.77,-73.81"/>
</g>
<!-- Node8&#45;&gt;Node5 -->
<g id="edge11" class="edge">
<title>Node8&#45;&gt;Node5</title>
<path fill="none" stroke="midnightblue" d="M412.84,-116.32C362.79,-109.95 284.01,-96.88 263.5,-76 251.76,-64.04 248.83,-44.74 248.5,-30.27"/>
<polygon fill="midnightblue" stroke="midnightblue" points="252,-29.99 248.67,-19.94 245,-29.88 252,-29.99"/>
</g>
<!-- Node9 -->
<g id="node9" class="node">
<title>Node9</title>
<g id="a_node9"><a xlink:title=" ">
<polygon fill="none" stroke="#bfbfbf" points="272.5,-56.5 272.5,-75.5 336.5,-75.5 336.5,-56.5 272.5,-56.5"/>
<text text-anchor="middle" x="304.5" y="-63.5" font-family="Helvetica,sans-Serif" font-size="10.00">algorithm</text>
</a>
</g>
</g>
<!-- Node8&#45;&gt;Node9 -->
<g id="edge8" class="edge">
<title>Node8&#45;&gt;Node9</title>
<path fill="none" stroke="midnightblue" d="M431.57,-112.44C406.28,-103.4 366.2,-89.06 337.82,-78.92"/>
<polygon fill="midnightblue" stroke="midnightblue" points="338.91,-75.59 328.31,-75.52 336.55,-82.18 338.91,-75.59"/>
</g>
<!-- Node10 -->
<g id="node10" class="node">
<title>Node10</title>
<g id="a_node10"><a xlink:title=" ">
<polygon fill="none" stroke="#bfbfbf" points="355,-56.5 355,-75.5 404,-75.5 404,-56.5 355,-56.5"/>
<text text-anchor="middle" x="379.5" y="-63.5" font-family="Helvetica,sans-Serif" font-size="10.00">cctype</text>
</a>
</g>
</g>
<!-- Node8&#45;&gt;Node10 -->
<g id="edge9" class="edge">
<title>Node8&#45;&gt;Node10</title>
<path fill="none" stroke="midnightblue" d="M443.29,-112.32C431.72,-104.11 414.12,-91.6 400.34,-81.81"/>
<polygon fill="midnightblue" stroke="midnightblue" points="402.11,-78.77 391.93,-75.83 398.06,-84.48 402.11,-78.77"/>
</g>
<!-- Node11 -->
<g id="node11" class="node">
<title>Node11</title>
<g id="a_node11"><a xlink:title=" ">
<polygon fill="none" stroke="#bfbfbf" points="422,-56.5 422,-75.5 489,-75.5 489,-56.5 422,-56.5"/>
<text text-anchor="middle" x="455.5" y="-63.5" font-family="Helvetica,sans-Serif" font-size="10.00">fmt/core.h</text>
</a>
</g>
</g>
<!-- Node8&#45;&gt;Node11 -->
<g id="edge10" class="edge">
<title>Node8&#45;&gt;Node11</title>
<path fill="none" stroke="midnightblue" d="M455.5,-112.08C455.5,-105.01 455.5,-94.86 455.5,-85.99"/>
<polygon fill="midnightblue" stroke="midnightblue" points="459,-85.75 455.5,-75.75 452,-85.75 459,-85.75"/>
</g>
<!-- Node12 -->
<g id="node12" class="node">
<title>Node12</title>
<g id="a_node12"><a xlink:title=" ">
<polygon fill="none" stroke="#bfbfbf" points="507.5,-56.5 507.5,-75.5 553.5,-75.5 553.5,-56.5 507.5,-56.5"/>
<text text-anchor="middle" x="530.5" y="-63.5" font-family="Helvetica,sans-Serif" font-size="10.00">locale</text>
</a>
</g>
</g>
<!-- Node8&#45;&gt;Node12 -->
<g id="edge12" class="edge">
<title>Node8&#45;&gt;Node12</title>
<path fill="none" stroke="midnightblue" d="M467.55,-112.32C478.96,-104.11 496.33,-91.6 509.93,-81.81"/>
<polygon fill="midnightblue" stroke="midnightblue" points="512.16,-84.52 518.23,-75.83 508.07,-78.84 512.16,-84.52"/>
</g>
<!-- Node13 -->
<g id="node13" class="node">
<title>Node13</title>
<g id="a_node13"><a xlink:title=" ">
<polygon fill="none" stroke="#bfbfbf" points="571.5,-56.5 571.5,-75.5 627.5,-75.5 627.5,-56.5 571.5,-56.5"/>
<text text-anchor="middle" x="599.5" y="-63.5" font-family="Helvetica,sans-Serif" font-size="10.00">numeric</text>
</a>
</g>
</g>
<!-- Node8&#45;&gt;Node13 -->
<g id="edge13" class="edge">
<title>Node8&#45;&gt;Node13</title>
<path fill="none" stroke="midnightblue" d="M478.32,-112.44C502.33,-103.44 540.33,-89.19 567.37,-79.05"/>
<polygon fill="midnightblue" stroke="midnightblue" points="568.66,-82.3 576.79,-75.52 566.2,-75.75 568.66,-82.3"/>
</g>
<!-- Node8&#45;&gt;Node14 -->
<g id="edge15" class="edge">
<title>Node8&#45;&gt;Node14</title>
<path fill="none" stroke="midnightblue" d="M498.12,-116.84C557.09,-110.65 666.96,-97.62 769.36,-75.99"/>
<polygon fill="midnightblue" stroke="midnightblue" points="770.2,-79.39 779.24,-73.87 768.73,-72.54 770.2,-79.39"/>
</g>
<!-- Node15 -->
<g id="node15" class="node">
<title>Node15</title>
<g id="a_node15"><a xlink:title=" ">
<polygon fill="none" stroke="#bfbfbf" points="646,-56.5 646,-75.5 693,-75.5 693,-56.5 646,-56.5"/>
<text text-anchor="middle" x="669.5" y="-63.5" font-family="Helvetica,sans-Serif" font-size="10.00">vector</text>
</a>
</g>
</g>
<!-- Node8&#45;&gt;Node15 -->
<g id="edge16" class="edge">
<title>Node8&#45;&gt;Node15</title>
<path fill="none" stroke="midnightblue" d="M490.94,-112.44C525.47,-104.04 579.71,-90.71 635.95,-76.1"/>
<polygon fill="midnightblue" stroke="midnightblue" points="636.93,-79.46 645.72,-73.55 635.16,-72.69 636.93,-79.46"/>
</g>
<!-- Node16 -->
<g id="node16" class="node">
<title>Node16</title>
<g id="a_node16"><a xlink:title=" ">
<polygon fill="none" stroke="#bfbfbf" points="711.5,-56.5 711.5,-75.5 761.5,-75.5 761.5,-56.5 711.5,-56.5"/>
<text text-anchor="middle" x="736.5" y="-63.5" font-family="Helvetica,sans-Serif" font-size="10.00">chrono</text>
</a>
</g>
</g>
<!-- Node8&#45;&gt;Node16 -->
<g id="edge17" class="edge">
<title>Node8&#45;&gt;Node16</title>
<path fill="none" stroke="midnightblue" d="M498.1,-114.28C545.46,-106.58 624.43,-93.06 701.44,-76.1"/>
<polygon fill="midnightblue" stroke="midnightblue" points="702.3,-79.49 711.3,-73.91 700.78,-72.66 702.3,-79.49"/>
</g>
<!-- Node17&#45;&gt;Node2 -->
<g id="edge19" class="edge">
<title>Node17&#45;&gt;Node2</title>
<path fill="none" stroke="midnightblue" d="M210.29,-112.32C198.72,-104.11 181.12,-91.6 167.34,-81.81"/>
<polygon fill="midnightblue" stroke="midnightblue" points="169.11,-78.77 158.93,-75.83 165.06,-84.48 169.11,-78.77"/>
</g>
</g>
</svg>
