<?xml version="1.0" encoding="UTF-8" standalone="no"?>
<!DOCTYPE svg PUBLIC "-//W3C//DTD SVG 1.1//EN"
 "http://www.w3.org/Graphics/SVG/1.1/DTD/svg11.dtd">
<!-- Generated by graphviz version 2.43.0 (0)
 -->
<!-- Title: /home/runner/work/occ/occ/include/occ/crystal/unitcell.h Pages: 1 -->
<svg width="2135pt" height="362pt"
 viewBox="0.00 0.00 2135.00 362.00" xmlns="http://www.w3.org/2000/svg" xmlns:xlink="http://www.w3.org/1999/xlink">
<g id="graph0" class="graph" transform="scale(1 1) rotate(0) translate(4 358)">
<title>/home/runner/work/occ/occ/include/occ/crystal/unitcell.h</title>
<!-- Node1 -->
<g id="node1" class="node">
<title>Node1</title>
<g id="a_node1"><a xlink:title=" ">
<polygon fill="#bfbfbf" stroke="black" points="525,-312.5 525,-353.5 655,-353.5 655,-312.5 525,-312.5"/>
<text text-anchor="start" x="533" y="-341.5" font-family="Helvetica,sans-Serif" font-size="10.00">/home/runner/work/occ</text>
<text text-anchor="start" x="533" y="-330.5" font-family="Helvetica,sans-Serif" font-size="10.00">/occ/include/occ/crystal</text>
<text text-anchor="middle" x="590" y="-319.5" font-family="Helvetica,sans-Serif" font-size="10.00">/unitcell.h</text>
</a>
</g>
</g>
<!-- Node2 -->
<g id="node2" class="node">
<title>Node2</title>
<g id="a_node2"><a xlink:href="crystal_8h.html" target="_top" xlink:title=" ">
<polygon fill="none" stroke="black" points="971,-234.5 971,-275.5 1101,-275.5 1101,-234.5 971,-234.5"/>
<text text-anchor="start" x="979" y="-263.5" font-family="Helvetica,sans-Serif" font-size="10.00">/home/runner/work/occ</text>
<text text-anchor="start" x="979" y="-252.5" font-family="Helvetica,sans-Serif" font-size="10.00">/occ/include/occ/crystal</text>
<text text-anchor="middle" x="1036" y="-241.5" font-family="Helvetica,sans-Serif" font-size="10.00">/crystal.h</text>
</a>
</g>
</g>
<!-- Node1&#45;&gt;Node2 -->
<g id="edge1" class="edge">
<title>Node1&#45;&gt;Node2</title>
<path fill="none" stroke="midnightblue" d="M665.25,-319.18C750.96,-304.57 889.6,-280.95 970.86,-267.1"/>
<polygon fill="midnightblue" stroke="midnightblue" points="664.6,-315.74 655.33,-320.87 665.78,-322.64 664.6,-315.74"/>
</g>
<!-- Node3 -->
<g id="node3" class="node">
<title>Node3</title>
<g id="a_node3"><a xlink:href="crystal_2surface_8h.html" target="_top" xlink:title=" ">
<polygon fill="none" stroke="black" points="0,-156.5 0,-197.5 130,-197.5 130,-156.5 0,-156.5"/>
<text text-anchor="start" x="8" y="-185.5" font-family="Helvetica,sans-Serif" font-size="10.00">/home/runner/work/occ</text>
<text text-anchor="start" x="8" y="-174.5" font-family="Helvetica,sans-Serif" font-size="10.00">/occ/include/occ/crystal</text>
<text text-anchor="middle" x="65" y="-163.5" font-family="Helvetica,sans-Serif" font-size="10.00">/surface.h</text>
</a>
</g>
</g>
<!-- Node1&#45;&gt;Node3 -->
<g id="edge28" class="edge">
<title>Node1&#45;&gt;Node3</title>
<path fill="none" stroke="midnightblue" d="M515.11,-310.03C411.95,-279.77 227.81,-225.76 130.09,-197.09"/>
<polygon fill="midnightblue" stroke="midnightblue" points="514.25,-313.43 524.83,-312.88 516.22,-306.71 514.25,-313.43"/>
</g>
<!-- Node2&#45;&gt;Node3 -->
<g id="edge2" class="edge">
<title>Node2&#45;&gt;Node3</title>
<path fill="none" stroke="midnightblue" d="M960.61,-251.07C775.17,-243.56 300.57,-222.52 144,-198 139.53,-197.3 134.94,-196.46 130.33,-195.53"/>
<polygon fill="midnightblue" stroke="midnightblue" points="960.68,-254.57 970.82,-251.48 960.97,-247.58 960.68,-254.57"/>
</g>
<!-- Node4 -->
<g id="node4" class="node">
<title>Node4</title>
<g id="a_node4"><a xlink:href="cifparser_8h.html" target="_top" xlink:title=" ">
<polygon fill="none" stroke="black" points="311,-84 311,-114 471,-114 471,-84 311,-84"/>
<text text-anchor="start" x="319" y="-102" font-family="Helvetica,sans-Serif" font-size="10.00">/home/runner/work/occ</text>
<text text-anchor="middle" x="391" y="-91" font-family="Helvetica,sans-Serif" font-size="10.00">/occ/include/occ/io/cifparser.h</text>
</a>
</g>
</g>
<!-- Node2&#45;&gt;Node4 -->
<g id="edge3" class="edge">
<title>Node2&#45;&gt;Node4</title>
<path fill="none" stroke="midnightblue" d="M960.95,-251.87C756.58,-245.69 203.63,-226.42 177,-198 131.04,-148.95 232.51,-122.47 310.91,-109.81"/>
<polygon fill="midnightblue" stroke="midnightblue" points="960.89,-255.37 971,-252.17 961.1,-248.37 960.89,-255.37"/>
</g>
<!-- Node5 -->
<g id="node5" class="node">
<title>Node5</title>
<g id="a_node5"><a xlink:href="crystal__json_8h.html" target="_top" xlink:title=" ">
<polygon fill="none" stroke="black" points="186,-156.5 186,-197.5 328,-197.5 328,-156.5 186,-156.5"/>
<text text-anchor="start" x="194" y="-185.5" font-family="Helvetica,sans-Serif" font-size="10.00">/home/runner/work/occ</text>
<text text-anchor="start" x="194" y="-174.5" font-family="Helvetica,sans-Serif" font-size="10.00">/occ/include/occ/io/crystal</text>
<text text-anchor="middle" x="257" y="-163.5" font-family="Helvetica,sans-Serif" font-size="10.00">_json.h</text>
</a>
</g>
</g>
<!-- Node2&#45;&gt;Node5 -->
<g id="edge4" class="edge">
<title>Node2&#45;&gt;Node5</title>
<path fill="none" stroke="midnightblue" d="M960.37,-252.03C831.6,-247.76 561.88,-234.86 337,-198 334.17,-197.54 331.3,-197.02 328.41,-196.47"/>
<polygon fill="midnightblue" stroke="midnightblue" points="960.41,-255.53 970.52,-252.35 960.64,-248.53 960.41,-255.53"/>
</g>
<!-- Node6 -->
<g id="node6" class="node">
<title>Node6</title>
<g id="a_node6"><a xlink:href="crystalgrower_8h.html" target="_top" xlink:title=" ">
<polygon fill="none" stroke="black" points="346,-162 346,-192 530,-192 530,-162 346,-162"/>
<text text-anchor="start" x="354" y="-180" font-family="Helvetica,sans-Serif" font-size="10.00">/home/runner/work/occ</text>
<text text-anchor="middle" x="438" y="-169" font-family="Helvetica,sans-Serif" font-size="10.00">/occ/include/occ/io/crystalgrower.h</text>
</a>
</g>
</g>
<!-- Node2&#45;&gt;Node6 -->
<g id="edge5" class="edge">
<title>Node2&#45;&gt;Node6</title>
<path fill="none" stroke="midnightblue" d="M960.58,-247.47C862.96,-238.57 687.76,-221.07 539,-198 527.87,-196.27 516.1,-194.19 504.69,-192.02"/>
<polygon fill="midnightblue" stroke="midnightblue" points="960.37,-250.97 970.64,-248.39 961,-244 960.37,-250.97"/>
</g>
<!-- Node7 -->
<g id="node7" class="node">
<title>Node7</title>
<g id="a_node7"><a xlink:href="dftb__gen_8h.html" target="_top" xlink:title=" ">
<polygon fill="none" stroke="black" points="548,-162 548,-192 708,-192 708,-162 548,-162"/>
<text text-anchor="start" x="556" y="-180" font-family="Helvetica,sans-Serif" font-size="10.00">/home/runner/work/occ</text>
<text text-anchor="middle" x="628" y="-169" font-family="Helvetica,sans-Serif" font-size="10.00">/occ/include/occ/io/dftb_gen.h</text>
</a>
</g>
</g>
<!-- Node2&#45;&gt;Node7 -->
<g id="edge6" class="edge">
<title>Node2&#45;&gt;Node7</title>
<path fill="none" stroke="midnightblue" d="M960.64,-241.8C895.89,-231.08 800.08,-214.62 717,-198 707.84,-196.17 698.17,-194.12 688.72,-192.05"/>
<polygon fill="midnightblue" stroke="midnightblue" points="960.33,-245.3 970.76,-243.48 961.47,-238.39 960.33,-245.3"/>
</g>
<!-- Node8 -->
<g id="node8" class="node">
<title>Node8</title>
<g id="a_node8"><a xlink:href="gmf_8h.html" target="_top" xlink:title=" ">
<polygon fill="none" stroke="black" points="726.5,-162 726.5,-192 863.5,-192 863.5,-162 726.5,-162"/>
<text text-anchor="start" x="734.5" y="-180" font-family="Helvetica,sans-Serif" font-size="10.00">/home/runner/work/occ</text>
<text text-anchor="middle" x="795" y="-169" font-family="Helvetica,sans-Serif" font-size="10.00">/occ/include/occ/io/gmf.h</text>
</a>
</g>
</g>
<!-- Node2&#45;&gt;Node8 -->
<g id="edge7" class="edge">
<title>Node2&#45;&gt;Node8</title>
<path fill="none" stroke="midnightblue" d="M964.4,-231.42C923.96,-218.67 874.69,-203.13 839.73,-192.11"/>
<polygon fill="midnightblue" stroke="midnightblue" points="963.35,-234.76 973.94,-234.43 965.45,-228.08 963.35,-234.76"/>
</g>
<!-- Node9 -->
<g id="node9" class="node">
<title>Node9</title>
<g id="a_node9"><a xlink:href="kmcpp_8h.html" target="_top" xlink:title=" ">
<polygon fill="none" stroke="black" points="881.5,-162 881.5,-192 1032.5,-192 1032.5,-162 881.5,-162"/>
<text text-anchor="start" x="889.5" y="-180" font-family="Helvetica,sans-Serif" font-size="10.00">/home/runner/work/occ</text>
<text text-anchor="middle" x="957" y="-169" font-family="Helvetica,sans-Serif" font-size="10.00">/occ/include/occ/io/kmcpp.h</text>
</a>
</g>
</g>
<!-- Node2&#45;&gt;Node9 -->
<g id="edge8" class="edge">
<title>Node2&#45;&gt;Node9</title>
<path fill="none" stroke="midnightblue" d="M1008.27,-227.32C995.99,-215.51 982.03,-202.08 971.79,-192.23"/>
<polygon fill="midnightblue" stroke="midnightblue" points="1006.02,-230.02 1015.66,-234.43 1010.88,-224.97 1006.02,-230.02"/>
</g>
<!-- Node10 -->
<g id="node10" class="node">
<title>Node10</title>
<g id="a_node10"><a xlink:href="load__geometry_8h.html" target="_top" xlink:title=" ">
<polygon fill="none" stroke="black" points="1051,-156.5 1051,-197.5 1181,-197.5 1181,-156.5 1051,-156.5"/>
<text text-anchor="start" x="1059" y="-185.5" font-family="Helvetica,sans-Serif" font-size="10.00">/home/runner/work/occ</text>
<text text-anchor="start" x="1059" y="-174.5" font-family="Helvetica,sans-Serif" font-size="10.00">/occ/include/occ/io/load</text>
<text text-anchor="middle" x="1116" y="-163.5" font-family="Helvetica,sans-Serif" font-size="10.00">_geometry.h</text>
</a>
</g>
</g>
<!-- Node2&#45;&gt;Node10 -->
<g id="edge9" class="edge">
<title>Node2&#45;&gt;Node10</title>
<path fill="none" stroke="midnightblue" d="M1063.9,-227.49C1074.28,-217.63 1085.87,-206.63 1095.47,-197.51"/>
<polygon fill="midnightblue" stroke="midnightblue" points="1061.44,-225 1056.6,-234.43 1066.26,-230.08 1061.44,-225"/>
</g>
<!-- Node11 -->
<g id="node11" class="node">
<title>Node11</title>
<g id="a_node11"><a xlink:href="occ__input_8h.html" target="_top" xlink:title=" ">
<polygon fill="none" stroke="black" points="1199,-156.5 1199,-197.5 1327,-197.5 1327,-156.5 1199,-156.5"/>
<text text-anchor="start" x="1207" y="-185.5" font-family="Helvetica,sans-Serif" font-size="10.00">/home/runner/work/occ</text>
<text text-anchor="start" x="1207" y="-174.5" font-family="Helvetica,sans-Serif" font-size="10.00">/occ/include/occ/io/occ</text>
<text text-anchor="middle" x="1263" y="-163.5" font-family="Helvetica,sans-Serif" font-size="10.00">_input.h</text>
</a>
</g>
</g>
<!-- Node2&#45;&gt;Node11 -->
<g id="edge10" class="edge">
<title>Node2&#45;&gt;Node11</title>
<path fill="none" stroke="midnightblue" d="M1104.2,-231.17C1136.25,-220.44 1174.06,-207.78 1204.74,-197.51"/>
<polygon fill="midnightblue" stroke="midnightblue" points="1102.83,-227.93 1094.46,-234.43 1105.05,-234.57 1102.83,-227.93"/>
</g>
<!-- Node15 -->
<g id="node15" class="node">
<title>Node15</title>
<g id="a_node15"><a xlink:href="pair__energy_8h.html" target="_top" xlink:title=" ">
<polygon fill="none" stroke="black" points="1418,-78.5 1418,-119.5 1546,-119.5 1546,-78.5 1418,-78.5"/>
<text text-anchor="start" x="1426" y="-107.5" font-family="Helvetica,sans-Serif" font-size="10.00">/home/runner/work/occ</text>
<text text-anchor="start" x="1426" y="-96.5" font-family="Helvetica,sans-Serif" font-size="10.00">/occ/include/occ/main</text>
<text text-anchor="middle" x="1482" y="-85.5" font-family="Helvetica,sans-Serif" font-size="10.00">/pair_energy.h</text>
</a>
</g>
</g>
<!-- Node2&#45;&gt;Node15 -->
<g id="edge24" class="edge">
<title>Node2&#45;&gt;Node15</title>
<path fill="none" stroke="midnightblue" d="M1111.42,-252.9C1174.9,-249.04 1266.21,-236.44 1336,-198 1358.31,-185.71 1354.76,-171.46 1375,-156 1393.74,-141.68 1416.68,-129.13 1436.5,-119.56"/>
<polygon fill="midnightblue" stroke="midnightblue" points="1110.89,-249.42 1101.09,-253.46 1111.27,-256.41 1110.89,-249.42"/>
</g>
<!-- Node20 -->
<g id="node20" class="node">
<title>Node20</title>
<g id="a_node20"><a xlink:href="void_8h.html" target="_top" xlink:title=" ">
<polygon fill="none" stroke="black" points="1383.5,-156.5 1383.5,-197.5 1530.5,-197.5 1530.5,-156.5 1383.5,-156.5"/>
<text text-anchor="start" x="1391.5" y="-185.5" font-family="Helvetica,sans-Serif" font-size="10.00">/home/runner/work/occ</text>
<text text-anchor="start" x="1391.5" y="-174.5" font-family="Helvetica,sans-Serif" font-size="10.00">/occ/include/occ/isosurface</text>
<text text-anchor="middle" x="1457" y="-163.5" font-family="Helvetica,sans-Serif" font-size="10.00">/void.h</text>
</a>
</g>
</g>
<!-- Node2&#45;&gt;Node20 -->
<g id="edge21" class="edge">
<title>Node2&#45;&gt;Node20</title>
<path fill="none" stroke="midnightblue" d="M1111.42,-242.57C1179.06,-232.02 1280.93,-215.4 1369,-198 1373.61,-197.09 1378.35,-196.12 1383.12,-195.11"/>
<polygon fill="midnightblue" stroke="midnightblue" points="1110.63,-239.15 1101.28,-244.15 1111.7,-246.07 1110.63,-239.15"/>
</g>
<!-- Node22 -->
<g id="node22" class="node">
<title>Node22</title>
<g id="a_node22"><a xlink:href="crystal__surface__energy_8h.html" target="_top" xlink:title=" ">
<polygon fill="none" stroke="black" points="1549,-156.5 1549,-197.5 1689,-197.5 1689,-156.5 1549,-156.5"/>
<text text-anchor="start" x="1557" y="-185.5" font-family="Helvetica,sans-Serif" font-size="10.00">/home/runner/work/occ</text>
<text text-anchor="start" x="1557" y="-174.5" font-family="Helvetica,sans-Serif" font-size="10.00">/occ/include/occ/main</text>
<text text-anchor="middle" x="1619" y="-163.5" font-family="Helvetica,sans-Serif" font-size="10.00">/crystal_surface_energy.h</text>
</a>
</g>
</g>
<!-- Node2&#45;&gt;Node22 -->
<g id="edge23" class="edge">
<title>Node2&#45;&gt;Node22</title>
<path fill="none" stroke="midnightblue" d="M1111.46,-248.86C1210.42,-241.39 1389.19,-225.33 1540,-198 1542.92,-197.47 1545.9,-196.89 1548.9,-196.28"/>
<polygon fill="midnightblue" stroke="midnightblue" points="1110.97,-245.39 1101.26,-249.63 1111.49,-252.37 1110.97,-245.39"/>
</g>
<!-- Node23 -->
<g id="node23" class="node">
<title>Node23</title>
<g id="a_node23"><a xlink:href="solvation__partition_8h.html" target="_top" xlink:title=" ">
<polygon fill="none" stroke="black" points="1707,-156.5 1707,-197.5 1835,-197.5 1835,-156.5 1707,-156.5"/>
<text text-anchor="start" x="1715" y="-185.5" font-family="Helvetica,sans-Serif" font-size="10.00">/home/runner/work/occ</text>
<text text-anchor="start" x="1715" y="-174.5" font-family="Helvetica,sans-Serif" font-size="10.00">/occ/include/occ/main</text>
<text text-anchor="middle" x="1771" y="-163.5" font-family="Helvetica,sans-Serif" font-size="10.00">/solvation_partition.h</text>
</a>
</g>
</g>
<!-- Node2&#45;&gt;Node23 -->
<g id="edge25" class="edge">
<title>Node2&#45;&gt;Node23</title>
<path fill="none" stroke="midnightblue" d="M1111.45,-252.1C1234.96,-248 1487.58,-235.4 1698,-198 1700.85,-197.49 1703.74,-196.93 1706.66,-196.31"/>
<polygon fill="midnightblue" stroke="midnightblue" points="1111.23,-248.61 1101.35,-252.43 1111.46,-255.6 1111.23,-248.61"/>
</g>
<!-- Node24 -->
<g id="node24" class="node">
<title>Node24</title>
<g id="a_node24"><a xlink:href="tblite__wrapper_8h.html" target="_top" xlink:title=" ">
<polygon fill="none" stroke="black" points="1853,-156.5 1853,-197.5 1981,-197.5 1981,-156.5 1853,-156.5"/>
<text text-anchor="start" x="1861" y="-185.5" font-family="Helvetica,sans-Serif" font-size="10.00">/home/runner/work/occ</text>
<text text-anchor="start" x="1861" y="-174.5" font-family="Helvetica,sans-Serif" font-size="10.00">/occ/include/occ/xtb</text>
<text text-anchor="middle" x="1917" y="-163.5" font-family="Helvetica,sans-Serif" font-size="10.00">/tblite_wrapper.h</text>
</a>
</g>
</g>
<!-- Node2&#45;&gt;Node24 -->
<g id="edge26" class="edge">
<title>Node2&#45;&gt;Node24</title>
<path fill="none" stroke="midnightblue" d="M1111.21,-253.74C1254.73,-252.16 1577.14,-243.34 1844,-198 1846.85,-197.52 1849.75,-196.97 1852.67,-196.37"/>
<polygon fill="midnightblue" stroke="midnightblue" points="1111.15,-250.24 1101.19,-253.84 1111.23,-257.24 1111.15,-250.24"/>
</g>
<!-- Node25 -->
<g id="node25" class="node">
<title>Node25</title>
<g id="a_node25"><a xlink:href="xtb__wrapper_8h.html" target="_top" xlink:title=" ">
<polygon fill="none" stroke="black" points="1999,-156.5 1999,-197.5 2127,-197.5 2127,-156.5 1999,-156.5"/>
<text text-anchor="start" x="2007" y="-185.5" font-family="Helvetica,sans-Serif" font-size="10.00">/home/runner/work/occ</text>
<text text-anchor="start" x="2007" y="-174.5" font-family="Helvetica,sans-Serif" font-size="10.00">/occ/include/occ/xtb</text>
<text text-anchor="middle" x="2063" y="-163.5" font-family="Helvetica,sans-Serif" font-size="10.00">/xtb_wrapper.h</text>
</a>
</g>
</g>
<!-- Node2&#45;&gt;Node25 -->
<g id="edge27" class="edge">
<title>Node2&#45;&gt;Node25</title>
<path fill="none" stroke="midnightblue" d="M1111.34,-254.89C1273.3,-255.65 1666.21,-251.26 1990,-198 1992.85,-197.53 1995.75,-196.99 1998.67,-196.41"/>
<polygon fill="midnightblue" stroke="midnightblue" points="1111.02,-251.39 1101.01,-254.83 1110.99,-258.39 1111.02,-251.39"/>
</g>
<!-- Node11&#45;&gt;Node4 -->
<g id="edge11" class="edge">
<title>Node11&#45;&gt;Node4</title>
<path fill="none" stroke="midnightblue" d="M1188.49,-155.92C946.19,-115.98 880.41,-137.62 639,-120 582.89,-115.9 519.67,-110.8 471.11,-106.77"/>
<polygon fill="midnightblue" stroke="midnightblue" points="1188.23,-159.43 1198.67,-157.62 1189.38,-152.52 1188.23,-159.43"/>
</g>
<!-- Node12 -->
<g id="node12" class="node">
<title>Node12</title>
<g id="a_node12"><a xlink:href="qcschema_8h.html" target="_top" xlink:title=" ">
<polygon fill="none" stroke="black" points="648.5,-84 648.5,-114 815.5,-114 815.5,-84 648.5,-84"/>
<text text-anchor="start" x="656.5" y="-102" font-family="Helvetica,sans-Serif" font-size="10.00">/home/runner/work/occ</text>
<text text-anchor="middle" x="732" y="-91" font-family="Helvetica,sans-Serif" font-size="10.00">/occ/include/occ/io/qcschema.h</text>
</a>
</g>
</g>
<!-- Node11&#45;&gt;Node12 -->
<g id="edge12" class="edge">
<title>Node11&#45;&gt;Node12</title>
<path fill="none" stroke="midnightblue" d="M1188.41,-155.87C1027.87,-127.11 982.75,-144.66 825,-120 814.39,-118.34 803.18,-116.24 792.35,-114.02"/>
<polygon fill="midnightblue" stroke="midnightblue" points="1188.18,-159.38 1198.65,-157.74 1189.44,-152.5 1188.18,-159.38"/>
</g>
<!-- Node13 -->
<g id="node13" class="node">
<title>Node13</title>
<g id="a_node13"><a xlink:href="occ__pair_8h.html" target="_top" xlink:title=" ">
<polygon fill="none" stroke="black" points="834,-78.5 834,-119.5 962,-119.5 962,-78.5 834,-78.5"/>
<text text-anchor="start" x="842" y="-107.5" font-family="Helvetica,sans-Serif" font-size="10.00">/home/runner/work/occ</text>
<text text-anchor="start" x="842" y="-96.5" font-family="Helvetica,sans-Serif" font-size="10.00">/occ/include/occ/main</text>
<text text-anchor="middle" x="898" y="-85.5" font-family="Helvetica,sans-Serif" font-size="10.00">/occ_pair.h</text>
</a>
</g>
</g>
<!-- Node11&#45;&gt;Node13 -->
<g id="edge13" class="edge">
<title>Node11&#45;&gt;Node13</title>
<path fill="none" stroke="midnightblue" d="M1189.05,-155.91C1091.87,-135.31 1064.26,-140.38 971,-120 968.05,-119.35 965.04,-118.66 962,-117.94"/>
<polygon fill="midnightblue" stroke="midnightblue" points="1188.49,-159.37 1199,-158.06 1189.96,-152.53 1188.49,-159.37"/>
</g>
<!-- Node14 -->
<g id="node14" class="node">
<title>Node14</title>
<g id="a_node14"><a xlink:href="occ__scf_8h.html" target="_top" xlink:title=" ">
<polygon fill="none" stroke="black" points="980,-78.5 980,-119.5 1108,-119.5 1108,-78.5 980,-78.5"/>
<text text-anchor="start" x="988" y="-107.5" font-family="Helvetica,sans-Serif" font-size="10.00">/home/runner/work/occ</text>
<text text-anchor="start" x="988" y="-96.5" font-family="Helvetica,sans-Serif" font-size="10.00">/occ/include/occ/main</text>
<text text-anchor="middle" x="1044" y="-85.5" font-family="Helvetica,sans-Serif" font-size="10.00">/occ_scf.h</text>
</a>
</g>
</g>
<!-- Node11&#45;&gt;Node14 -->
<g id="edge14" class="edge">
<title>Node11&#45;&gt;Node14</title>
<path fill="none" stroke="midnightblue" d="M1196.8,-153.03C1165.97,-142.33 1129.68,-129.73 1100.21,-119.51"/>
<polygon fill="midnightblue" stroke="midnightblue" points="1196.01,-156.46 1206.6,-156.43 1198.3,-149.84 1196.01,-156.46"/>
</g>
<!-- Node11&#45;&gt;Node15 -->
<g id="edge15" class="edge">
<title>Node11&#45;&gt;Node15</title>
<path fill="none" stroke="midnightblue" d="M1329.2,-153.03C1360.03,-142.33 1396.32,-129.73 1425.79,-119.51"/>
<polygon fill="midnightblue" stroke="midnightblue" points="1327.7,-149.84 1319.4,-156.43 1329.99,-156.46 1327.7,-149.84"/>
</g>
<!-- Node18 -->
<g id="node18" class="node">
<title>Node18</title>
<g id="a_node18"><a xlink:href="properties_8h.html" target="_top" xlink:title=" ">
<polygon fill="none" stroke="black" points="1126,-78.5 1126,-119.5 1254,-119.5 1254,-78.5 1126,-78.5"/>
<text text-anchor="start" x="1134" y="-107.5" font-family="Helvetica,sans-Serif" font-size="10.00">/home/runner/work/occ</text>
<text text-anchor="start" x="1134" y="-96.5" font-family="Helvetica,sans-Serif" font-size="10.00">/occ/include/occ/main</text>
<text text-anchor="middle" x="1190" y="-85.5" font-family="Helvetica,sans-Serif" font-size="10.00">/properties.h</text>
</a>
</g>
</g>
<!-- Node11&#45;&gt;Node18 -->
<g id="edge19" class="edge">
<title>Node11&#45;&gt;Node18</title>
<path fill="none" stroke="midnightblue" d="M1237.26,-149.2C1227.86,-139.42 1217.41,-128.54 1208.74,-119.51"/>
<polygon fill="midnightblue" stroke="midnightblue" points="1234.75,-151.64 1244.2,-156.43 1239.8,-146.79 1234.75,-151.64"/>
</g>
<!-- Node19 -->
<g id="node19" class="node">
<title>Node19</title>
<g id="a_node19"><a xlink:href="single__point_8h.html" target="_top" xlink:title=" ">
<polygon fill="none" stroke="black" points="1272,-78.5 1272,-119.5 1400,-119.5 1400,-78.5 1272,-78.5"/>
<text text-anchor="start" x="1280" y="-107.5" font-family="Helvetica,sans-Serif" font-size="10.00">/home/runner/work/occ</text>
<text text-anchor="start" x="1280" y="-96.5" font-family="Helvetica,sans-Serif" font-size="10.00">/occ/include/occ/main</text>
<text text-anchor="middle" x="1336" y="-85.5" font-family="Helvetica,sans-Serif" font-size="10.00">/single_point.h</text>
</a>
</g>
</g>
<!-- Node11&#45;&gt;Node19 -->
<g id="edge20" class="edge">
<title>Node11&#45;&gt;Node19</title>
<path fill="none" stroke="midnightblue" d="M1288.74,-149.2C1298.14,-139.42 1308.59,-128.54 1317.26,-119.51"/>
<polygon fill="midnightblue" stroke="midnightblue" points="1286.2,-146.79 1281.8,-156.43 1291.25,-151.64 1286.2,-146.79"/>
</g>
<!-- Node15&#45;&gt;Node15 -->
<g id="edge18" class="edge">
<title>Node15&#45;&gt;Node15</title>
<path fill="none" stroke="midnightblue" d="M1556.15,-109.45C1561.04,-107.02 1564,-103.54 1564,-99 1564,-91.92 1556.79,-87.41 1546.29,-85.47"/>
<polygon fill="midnightblue" stroke="midnightblue" points="1554.79,-106.21 1546.29,-112.53 1556.88,-112.89 1554.79,-106.21"/>
</g>
<!-- Node16 -->
<g id="node16" class="node">
<title>Node16</title>
<g id="a_node16"><a xlink:href="occ__cg_8h.html" target="_top" xlink:title=" ">
<polygon fill="none" stroke="black" points="1345,-0.5 1345,-41.5 1473,-41.5 1473,-0.5 1345,-0.5"/>
<text text-anchor="start" x="1353" y="-29.5" font-family="Helvetica,sans-Serif" font-size="10.00">/home/runner/work/occ</text>
<text text-anchor="start" x="1353" y="-18.5" font-family="Helvetica,sans-Serif" font-size="10.00">/occ/include/occ/main</text>
<text text-anchor="middle" x="1409" y="-7.5" font-family="Helvetica,sans-Serif" font-size="10.00">/occ_cg.h</text>
</a>
</g>
</g>
<!-- Node15&#45;&gt;Node16 -->
<g id="edge16" class="edge">
<title>Node15&#45;&gt;Node16</title>
<path fill="none" stroke="midnightblue" d="M1456.26,-71.2C1446.86,-61.42 1436.41,-50.54 1427.74,-41.51"/>
<polygon fill="midnightblue" stroke="midnightblue" points="1453.75,-73.64 1463.2,-78.43 1458.8,-68.79 1453.75,-73.64"/>
</g>
<!-- Node17 -->
<g id="node17" class="node">
<title>Node17</title>
<g id="a_node17"><a xlink:href="occ__elat_8h.html" target="_top" xlink:title=" ">
<polygon fill="none" stroke="black" points="1491,-0.5 1491,-41.5 1619,-41.5 1619,-0.5 1491,-0.5"/>
<text text-anchor="start" x="1499" y="-29.5" font-family="Helvetica,sans-Serif" font-size="10.00">/home/runner/work/occ</text>
<text text-anchor="start" x="1499" y="-18.5" font-family="Helvetica,sans-Serif" font-size="10.00">/occ/include/occ/main</text>
<text text-anchor="middle" x="1555" y="-7.5" font-family="Helvetica,sans-Serif" font-size="10.00">/occ_elat.h</text>
</a>
</g>
</g>
<!-- Node15&#45;&gt;Node17 -->
<g id="edge17" class="edge">
<title>Node15&#45;&gt;Node17</title>
<path fill="none" stroke="midnightblue" d="M1507.74,-71.2C1517.14,-61.42 1527.59,-50.54 1536.26,-41.51"/>
<polygon fill="midnightblue" stroke="midnightblue" points="1505.2,-68.79 1500.8,-78.43 1510.25,-73.64 1505.2,-68.79"/>
</g>
<!-- Node21 -->
<g id="node21" class="node">
<title>Node21</title>
<g id="a_node21"><a xlink:href="isosurface_8h.html" target="_top" xlink:title=" ">
<polygon fill="none" stroke="black" points="1582.5,-78.5 1582.5,-119.5 1729.5,-119.5 1729.5,-78.5 1582.5,-78.5"/>
<text text-anchor="start" x="1590.5" y="-107.5" font-family="Helvetica,sans-Serif" font-size="10.00">/home/runner/work/occ</text>
<text text-anchor="start" x="1590.5" y="-96.5" font-family="Helvetica,sans-Serif" font-size="10.00">/occ/include/occ/isosurface</text>
<text text-anchor="middle" x="1656" y="-85.5" font-family="Helvetica,sans-Serif" font-size="10.00">/isosurface.h</text>
</a>
</g>
</g>
<!-- Node20&#45;&gt;Node21 -->
<g id="edge22" class="edge">
<title>Node20&#45;&gt;Node21</title>
<path fill="none" stroke="midnightblue" d="M1517.88,-152.75C1545.74,-142.11 1578.37,-129.65 1604.93,-119.51"/>
<polygon fill="midnightblue" stroke="midnightblue" points="1516.34,-149.59 1508.25,-156.43 1518.84,-156.13 1516.34,-149.59"/>
</g>
</g>
</svg>
