<?xml version="1.0" encoding="UTF-8" standalone="no"?>
<!DOCTYPE svg PUBLIC "-//W3C//DTD SVG 1.1//EN"
 "http://www.w3.org/Graphics/SVG/1.1/DTD/svg11.dtd">
<!-- Generated by graphviz version 2.43.0 (0)
 -->
<!-- Title: /home/runner/work/occ/occ/include/occ/core/units.h Pages: 1 -->
<svg width="2833pt" height="440pt"
 viewBox="0.00 0.00 2832.50 440.00" xmlns="http://www.w3.org/2000/svg" xmlns:xlink="http://www.w3.org/1999/xlink">
<g id="graph0" class="graph" transform="scale(1 1) rotate(0) translate(4 436)">
<title>/home/runner/work/occ/occ/include/occ/core/units.h</title>
<!-- Node1 -->
<g id="node1" class="node">
<title>Node1</title>
<g id="a_node1"><a xlink:title=" ">
<polygon fill="#bfbfbf" stroke="black" points="1917,-390.5 1917,-431.5 2045,-431.5 2045,-390.5 1917,-390.5"/>
<text text-anchor="start" x="1925" y="-419.5" font-family="Helvetica,sans-Serif" font-size="10.00">/home/runner/work/occ</text>
<text text-anchor="start" x="1925" y="-408.5" font-family="Helvetica,sans-Serif" font-size="10.00">/occ/include/occ/core</text>
<text text-anchor="middle" x="1981" y="-397.5" font-family="Helvetica,sans-Serif" font-size="10.00">/units.h</text>
</a>
</g>
</g>
<!-- Node2 -->
<g id="node2" class="node">
<title>Node2</title>
<g id="a_node2"><a xlink:href="unitcell_8h.html" target="_top" xlink:title=" ">
<polygon fill="none" stroke="black" points="1051,-312.5 1051,-353.5 1181,-353.5 1181,-312.5 1051,-312.5"/>
<text text-anchor="start" x="1059" y="-341.5" font-family="Helvetica,sans-Serif" font-size="10.00">/home/runner/work/occ</text>
<text text-anchor="start" x="1059" y="-330.5" font-family="Helvetica,sans-Serif" font-size="10.00">/occ/include/occ/crystal</text>
<text text-anchor="middle" x="1116" y="-319.5" font-family="Helvetica,sans-Serif" font-size="10.00">/unitcell.h</text>
</a>
</g>
</g>
<!-- Node1&#45;&gt;Node2 -->
<g id="edge1" class="edge">
<title>Node1&#45;&gt;Node2</title>
<path fill="none" stroke="midnightblue" d="M1906.53,-403.46C1739.74,-388.8 1338.53,-353.55 1181.03,-339.71"/>
<polygon fill="midnightblue" stroke="midnightblue" points="1906.42,-406.96 1916.69,-404.35 1907.04,-399.99 1906.42,-406.96"/>
</g>
<!-- Node25 -->
<g id="node25" class="node">
<title>Node25</title>
<g id="a_node25"><a xlink:href="solvation__partition_8h.html" target="_top" xlink:title=" ">
<polygon fill="none" stroke="black" points="1833,-156.5 1833,-197.5 1961,-197.5 1961,-156.5 1833,-156.5"/>
<text text-anchor="start" x="1841" y="-185.5" font-family="Helvetica,sans-Serif" font-size="10.00">/home/runner/work/occ</text>
<text text-anchor="start" x="1841" y="-174.5" font-family="Helvetica,sans-Serif" font-size="10.00">/occ/include/occ/main</text>
<text text-anchor="middle" x="1897" y="-163.5" font-family="Helvetica,sans-Serif" font-size="10.00">/solvation_partition.h</text>
</a>
</g>
</g>
<!-- Node1&#45;&gt;Node25 -->
<g id="edge43" class="edge">
<title>Node1&#45;&gt;Node25</title>
<path fill="none" stroke="midnightblue" d="M1962.38,-381.38C1946.17,-355.08 1923.38,-314.44 1911,-276 1902.52,-249.66 1899.17,-217.69 1897.85,-197.59"/>
<polygon fill="midnightblue" stroke="midnightblue" points="1959.54,-383.44 1967.81,-390.07 1965.47,-379.73 1959.54,-383.44"/>
</g>
<!-- Node28 -->
<g id="node28" class="node">
<title>Node28</title>
<g id="a_node28"><a xlink:href="pairinteraction_8h.html" target="_top" xlink:title=" ">
<polygon fill="none" stroke="black" points="1919.5,-234.5 1919.5,-275.5 2068.5,-275.5 2068.5,-234.5 1919.5,-234.5"/>
<text text-anchor="start" x="1927.5" y="-263.5" font-family="Helvetica,sans-Serif" font-size="10.00">/home/runner/work/occ</text>
<text text-anchor="start" x="1927.5" y="-252.5" font-family="Helvetica,sans-Serif" font-size="10.00">/occ/include/occ/interaction</text>
<text text-anchor="middle" x="1994" y="-241.5" font-family="Helvetica,sans-Serif" font-size="10.00">/pairinteraction.h</text>
</a>
</g>
</g>
<!-- Node1&#45;&gt;Node28 -->
<g id="edge31" class="edge">
<title>Node1&#45;&gt;Node28</title>
<path fill="none" stroke="midnightblue" d="M1981.81,-380.36C1982.52,-360.89 1983.79,-334.89 1986,-312 1987.17,-299.88 1989.09,-286.36 1990.75,-275.64"/>
<polygon fill="midnightblue" stroke="midnightblue" points="1978.31,-380.33 1981.47,-390.44 1985.31,-380.56 1978.31,-380.33"/>
</g>
<!-- Node29 -->
<g id="node29" class="node">
<title>Node29</title>
<g id="a_node29"><a xlink:href="common_8h.html" target="_top" xlink:title=" ">
<polygon fill="none" stroke="black" points="2264.5,-234.5 2264.5,-275.5 2411.5,-275.5 2411.5,-234.5 2264.5,-234.5"/>
<text text-anchor="start" x="2272.5" y="-263.5" font-family="Helvetica,sans-Serif" font-size="10.00">/home/runner/work/occ</text>
<text text-anchor="start" x="2272.5" y="-252.5" font-family="Helvetica,sans-Serif" font-size="10.00">/occ/include/occ/isosurface</text>
<text text-anchor="middle" x="2338" y="-241.5" font-family="Helvetica,sans-Serif" font-size="10.00">/common.h</text>
</a>
</g>
</g>
<!-- Node1&#45;&gt;Node29 -->
<g id="edge33" class="edge">
<title>Node1&#45;&gt;Node29</title>
<path fill="none" stroke="midnightblue" d="M1984.7,-380.19C1989.07,-358.01 1998.54,-328.79 2019,-312 2055.56,-281.99 2181.86,-267.24 2264.14,-260.65"/>
<polygon fill="midnightblue" stroke="midnightblue" points="1981.24,-379.67 1982.98,-390.12 1988.14,-380.86 1981.24,-379.67"/>
</g>
<!-- Node34 -->
<g id="node34" class="node">
<title>Node34</title>
<g id="a_node34"><a xlink:href="scf_8h.html" target="_top" xlink:title=" ">
<polygon fill="none" stroke="black" points="2028,-318 2028,-348 2166,-348 2166,-318 2028,-318"/>
<text text-anchor="start" x="2036" y="-336" font-family="Helvetica,sans-Serif" font-size="10.00">/home/runner/work/occ</text>
<text text-anchor="middle" x="2097" y="-325" font-family="Helvetica,sans-Serif" font-size="10.00">/occ/include/occ/qm/scf.h</text>
</a>
</g>
</g>
<!-- Node1&#45;&gt;Node34 -->
<g id="edge44" class="edge">
<title>Node1&#45;&gt;Node34</title>
<path fill="none" stroke="midnightblue" d="M2019.43,-384.82C2038,-372.65 2059.6,-358.5 2075.29,-348.23"/>
<polygon fill="midnightblue" stroke="midnightblue" points="2017.32,-382.02 2010.87,-390.43 2021.16,-387.88 2017.32,-382.02"/>
</g>
<!-- Node35 -->
<g id="node35" class="node">
<title>Node35</title>
<g id="a_node35"><a xlink:href="solvation__correction_8h.html" target="_top" xlink:title=" ">
<polygon fill="none" stroke="black" points="2184.5,-312.5 2184.5,-353.5 2317.5,-353.5 2317.5,-312.5 2184.5,-312.5"/>
<text text-anchor="start" x="2192.5" y="-341.5" font-family="Helvetica,sans-Serif" font-size="10.00">/home/runner/work/occ</text>
<text text-anchor="start" x="2192.5" y="-330.5" font-family="Helvetica,sans-Serif" font-size="10.00">/occ/include/occ/solvent</text>
<text text-anchor="middle" x="2251" y="-319.5" font-family="Helvetica,sans-Serif" font-size="10.00">/solvation_correction.h</text>
</a>
</g>
</g>
<!-- Node1&#45;&gt;Node35 -->
<g id="edge45" class="edge">
<title>Node1&#45;&gt;Node35</title>
<path fill="none" stroke="midnightblue" d="M2055.13,-389.13C2095.54,-377.76 2145.16,-363.79 2184.34,-352.76"/>
<polygon fill="midnightblue" stroke="midnightblue" points="2054.01,-385.81 2045.33,-391.89 2055.9,-392.55 2054.01,-385.81"/>
</g>
<!-- Node3 -->
<g id="node3" class="node">
<title>Node3</title>
<g id="a_node3"><a xlink:href="crystal_8h.html" target="_top" xlink:title=" ">
<polygon fill="none" stroke="black" points="1051,-234.5 1051,-275.5 1181,-275.5 1181,-234.5 1051,-234.5"/>
<text text-anchor="start" x="1059" y="-263.5" font-family="Helvetica,sans-Serif" font-size="10.00">/home/runner/work/occ</text>
<text text-anchor="start" x="1059" y="-252.5" font-family="Helvetica,sans-Serif" font-size="10.00">/occ/include/occ/crystal</text>
<text text-anchor="middle" x="1116" y="-241.5" font-family="Helvetica,sans-Serif" font-size="10.00">/crystal.h</text>
</a>
</g>
</g>
<!-- Node2&#45;&gt;Node3 -->
<g id="edge2" class="edge">
<title>Node2&#45;&gt;Node3</title>
<path fill="none" stroke="midnightblue" d="M1116,-302.3C1116,-293.3 1116,-283.65 1116,-275.51"/>
<polygon fill="midnightblue" stroke="midnightblue" points="1112.5,-302.43 1116,-312.43 1119.5,-302.43 1112.5,-302.43"/>
</g>
<!-- Node4 -->
<g id="node4" class="node">
<title>Node4</title>
<g id="a_node4"><a xlink:href="crystal_2surface_8h.html" target="_top" xlink:title=" ">
<polygon fill="none" stroke="black" points="0,-156.5 0,-197.5 130,-197.5 130,-156.5 0,-156.5"/>
<text text-anchor="start" x="8" y="-185.5" font-family="Helvetica,sans-Serif" font-size="10.00">/home/runner/work/occ</text>
<text text-anchor="start" x="8" y="-174.5" font-family="Helvetica,sans-Serif" font-size="10.00">/occ/include/occ/crystal</text>
<text text-anchor="middle" x="65" y="-163.5" font-family="Helvetica,sans-Serif" font-size="10.00">/surface.h</text>
</a>
</g>
</g>
<!-- Node2&#45;&gt;Node4 -->
<g id="edge30" class="edge">
<title>Node2&#45;&gt;Node4</title>
<path fill="none" stroke="midnightblue" d="M1040.4,-323.05C878.71,-303.53 487.54,-254.36 162,-198 151.67,-196.21 140.75,-194.14 130.11,-192.02"/>
<polygon fill="midnightblue" stroke="midnightblue" points="1040.37,-326.57 1050.71,-324.29 1041.2,-319.62 1040.37,-326.57"/>
</g>
<!-- Node3&#45;&gt;Node4 -->
<g id="edge3" class="edge">
<title>Node3&#45;&gt;Node4</title>
<path fill="none" stroke="midnightblue" d="M1040.53,-251.51C843.43,-244.72 316.54,-224.56 144,-198 139.53,-197.31 134.94,-196.48 130.33,-195.56"/>
<polygon fill="midnightblue" stroke="midnightblue" points="1040.68,-255.02 1050.79,-251.86 1040.92,-248.02 1040.68,-255.02"/>
</g>
<!-- Node5 -->
<g id="node5" class="node">
<title>Node5</title>
<g id="a_node5"><a xlink:href="cifparser_8h.html" target="_top" xlink:title=" ">
<polygon fill="none" stroke="black" points="303,-84 303,-114 463,-114 463,-84 303,-84"/>
<text text-anchor="start" x="311" y="-102" font-family="Helvetica,sans-Serif" font-size="10.00">/home/runner/work/occ</text>
<text text-anchor="middle" x="383" y="-91" font-family="Helvetica,sans-Serif" font-size="10.00">/occ/include/occ/io/cifparser.h</text>
</a>
</g>
</g>
<!-- Node3&#45;&gt;Node5 -->
<g id="edge4" class="edge">
<title>Node3&#45;&gt;Node5</title>
<path fill="none" stroke="midnightblue" d="M1040.61,-250.87C820.24,-241.56 191.77,-213.68 177,-198 132.87,-151.16 227.77,-124.3 302.97,-110.92"/>
<polygon fill="midnightblue" stroke="midnightblue" points="1040.65,-254.38 1050.79,-251.3 1040.94,-247.38 1040.65,-254.38"/>
</g>
<!-- Node6 -->
<g id="node6" class="node">
<title>Node6</title>
<g id="a_node6"><a xlink:href="crystal__json_8h.html" target="_top" xlink:title=" ">
<polygon fill="none" stroke="black" points="186,-156.5 186,-197.5 328,-197.5 328,-156.5 186,-156.5"/>
<text text-anchor="start" x="194" y="-185.5" font-family="Helvetica,sans-Serif" font-size="10.00">/home/runner/work/occ</text>
<text text-anchor="start" x="194" y="-174.5" font-family="Helvetica,sans-Serif" font-size="10.00">/occ/include/occ/io/crystal</text>
<text text-anchor="middle" x="257" y="-163.5" font-family="Helvetica,sans-Serif" font-size="10.00">_json.h</text>
</a>
</g>
</g>
<!-- Node3&#45;&gt;Node6 -->
<g id="edge5" class="edge">
<title>Node3&#45;&gt;Node6</title>
<path fill="none" stroke="midnightblue" d="M1040.77,-252.91C901.2,-249.94 593.03,-238.89 337,-198 334.17,-197.55 331.3,-197.05 328.4,-196.5"/>
<polygon fill="midnightblue" stroke="midnightblue" points="1040.86,-256.41 1050.93,-253.12 1041.01,-249.42 1040.86,-256.41"/>
</g>
<!-- Node7 -->
<g id="node7" class="node">
<title>Node7</title>
<g id="a_node7"><a xlink:href="crystalgrower_8h.html" target="_top" xlink:title=" ">
<polygon fill="none" stroke="black" points="346,-162 346,-192 530,-192 530,-162 346,-162"/>
<text text-anchor="start" x="354" y="-180" font-family="Helvetica,sans-Serif" font-size="10.00">/home/runner/work/occ</text>
<text text-anchor="middle" x="438" y="-169" font-family="Helvetica,sans-Serif" font-size="10.00">/occ/include/occ/io/crystalgrower.h</text>
</a>
</g>
</g>
<!-- Node3&#45;&gt;Node7 -->
<g id="edge6" class="edge">
<title>Node3&#45;&gt;Node7</title>
<path fill="none" stroke="midnightblue" d="M1040.81,-249.08C930.4,-241.33 718.11,-224.36 539,-198 527.59,-196.32 515.52,-194.22 503.85,-192.01"/>
<polygon fill="midnightblue" stroke="midnightblue" points="1040.63,-252.58 1050.85,-249.78 1041.11,-245.6 1040.63,-252.58"/>
</g>
<!-- Node8 -->
<g id="node8" class="node">
<title>Node8</title>
<g id="a_node8"><a xlink:href="dftb__gen_8h.html" target="_top" xlink:title=" ">
<polygon fill="none" stroke="black" points="548,-162 548,-192 708,-192 708,-162 548,-162"/>
<text text-anchor="start" x="556" y="-180" font-family="Helvetica,sans-Serif" font-size="10.00">/home/runner/work/occ</text>
<text text-anchor="middle" x="628" y="-169" font-family="Helvetica,sans-Serif" font-size="10.00">/occ/include/occ/io/dftb_gen.h</text>
</a>
</g>
</g>
<!-- Node3&#45;&gt;Node8 -->
<g id="edge7" class="edge">
<title>Node3&#45;&gt;Node8</title>
<path fill="none" stroke="midnightblue" d="M1040.74,-245.3C960.3,-235.56 829.19,-218.44 717,-198 707.34,-196.24 697.14,-194.16 687.23,-192.02"/>
<polygon fill="midnightblue" stroke="midnightblue" points="1040.43,-248.78 1050.78,-246.5 1041.27,-241.83 1040.43,-248.78"/>
</g>
<!-- Node9 -->
<g id="node9" class="node">
<title>Node9</title>
<g id="a_node9"><a xlink:href="gmf_8h.html" target="_top" xlink:title=" ">
<polygon fill="none" stroke="black" points="726.5,-162 726.5,-192 863.5,-192 863.5,-162 726.5,-162"/>
<text text-anchor="start" x="734.5" y="-180" font-family="Helvetica,sans-Serif" font-size="10.00">/home/runner/work/occ</text>
<text text-anchor="middle" x="795" y="-169" font-family="Helvetica,sans-Serif" font-size="10.00">/occ/include/occ/io/gmf.h</text>
</a>
</g>
</g>
<!-- Node3&#45;&gt;Node9 -->
<g id="edge8" class="edge">
<title>Node3&#45;&gt;Node9</title>
<path fill="none" stroke="midnightblue" d="M1041.14,-237.4C992.79,-226.53 928.58,-211.84 872,-198 864.35,-196.13 856.29,-194.1 848.39,-192.08"/>
<polygon fill="midnightblue" stroke="midnightblue" points="1040.37,-240.81 1050.89,-239.59 1041.9,-233.98 1040.37,-240.81"/>
</g>
<!-- Node10 -->
<g id="node10" class="node">
<title>Node10</title>
<g id="a_node10"><a xlink:href="kmcpp_8h.html" target="_top" xlink:title=" ">
<polygon fill="none" stroke="black" points="881.5,-162 881.5,-192 1032.5,-192 1032.5,-162 881.5,-162"/>
<text text-anchor="start" x="889.5" y="-180" font-family="Helvetica,sans-Serif" font-size="10.00">/home/runner/work/occ</text>
<text text-anchor="middle" x="957" y="-169" font-family="Helvetica,sans-Serif" font-size="10.00">/occ/include/occ/io/kmcpp.h</text>
</a>
</g>
</g>
<!-- Node3&#45;&gt;Node10 -->
<g id="edge9" class="edge">
<title>Node3&#45;&gt;Node10</title>
<path fill="none" stroke="midnightblue" d="M1065.73,-229.97C1039.75,-217.55 1008.94,-202.83 986.76,-192.23"/>
<polygon fill="midnightblue" stroke="midnightblue" points="1064.52,-233.27 1075.05,-234.43 1067.54,-226.96 1064.52,-233.27"/>
</g>
<!-- Node11 -->
<g id="node11" class="node">
<title>Node11</title>
<g id="a_node11"><a xlink:href="load__geometry_8h.html" target="_top" xlink:title=" ">
<polygon fill="none" stroke="black" points="1051,-156.5 1051,-197.5 1181,-197.5 1181,-156.5 1051,-156.5"/>
<text text-anchor="start" x="1059" y="-185.5" font-family="Helvetica,sans-Serif" font-size="10.00">/home/runner/work/occ</text>
<text text-anchor="start" x="1059" y="-174.5" font-family="Helvetica,sans-Serif" font-size="10.00">/occ/include/occ/io/load</text>
<text text-anchor="middle" x="1116" y="-163.5" font-family="Helvetica,sans-Serif" font-size="10.00">_geometry.h</text>
</a>
</g>
</g>
<!-- Node3&#45;&gt;Node11 -->
<g id="edge10" class="edge">
<title>Node3&#45;&gt;Node11</title>
<path fill="none" stroke="midnightblue" d="M1116,-224.3C1116,-215.3 1116,-205.65 1116,-197.51"/>
<polygon fill="midnightblue" stroke="midnightblue" points="1112.5,-224.43 1116,-234.43 1119.5,-224.43 1112.5,-224.43"/>
</g>
<!-- Node12 -->
<g id="node12" class="node">
<title>Node12</title>
<g id="a_node12"><a xlink:href="occ__input_8h.html" target="_top" xlink:title=" ">
<polygon fill="none" stroke="black" points="1199,-156.5 1199,-197.5 1327,-197.5 1327,-156.5 1199,-156.5"/>
<text text-anchor="start" x="1207" y="-185.5" font-family="Helvetica,sans-Serif" font-size="10.00">/home/runner/work/occ</text>
<text text-anchor="start" x="1207" y="-174.5" font-family="Helvetica,sans-Serif" font-size="10.00">/occ/include/occ/io/occ</text>
<text text-anchor="middle" x="1263" y="-163.5" font-family="Helvetica,sans-Serif" font-size="10.00">_input.h</text>
</a>
</g>
</g>
<!-- Node3&#45;&gt;Node12 -->
<g id="edge11" class="edge">
<title>Node3&#45;&gt;Node12</title>
<path fill="none" stroke="midnightblue" d="M1162.87,-229.77C1183.02,-219.35 1206.26,-207.34 1225.27,-197.51"/>
<polygon fill="midnightblue" stroke="midnightblue" points="1161.13,-226.73 1153.86,-234.43 1164.35,-232.94 1161.13,-226.73"/>
</g>
<!-- Node17 -->
<g id="node17" class="node">
<title>Node17</title>
<g id="a_node17"><a xlink:href="pair__energy_8h.html" target="_top" xlink:title=" ">
<polygon fill="none" stroke="black" points="1637,-78.5 1637,-119.5 1765,-119.5 1765,-78.5 1637,-78.5"/>
<text text-anchor="start" x="1645" y="-107.5" font-family="Helvetica,sans-Serif" font-size="10.00">/home/runner/work/occ</text>
<text text-anchor="start" x="1645" y="-96.5" font-family="Helvetica,sans-Serif" font-size="10.00">/occ/include/occ/main</text>
<text text-anchor="middle" x="1701" y="-85.5" font-family="Helvetica,sans-Serif" font-size="10.00">/pair_energy.h</text>
</a>
</g>
</g>
<!-- Node3&#45;&gt;Node17 -->
<g id="edge26" class="edge">
<title>Node3&#45;&gt;Node17</title>
<path fill="none" stroke="midnightblue" d="M1191.37,-245.9C1235.93,-238.5 1292.06,-224.48 1336,-198 1357.56,-185.01 1351.77,-167.8 1374,-156 1474.7,-102.53 1516.35,-143.11 1628,-120 1630.83,-119.41 1633.71,-118.78 1636.62,-118.11"/>
<polygon fill="midnightblue" stroke="midnightblue" points="1190.8,-242.45 1181.47,-247.47 1191.89,-249.36 1190.8,-242.45"/>
</g>
<!-- Node22 -->
<g id="node22" class="node">
<title>Node22</title>
<g id="a_node22"><a xlink:href="void_8h.html" target="_top" xlink:title=" ">
<polygon fill="none" stroke="black" points="2017.5,-156.5 2017.5,-197.5 2164.5,-197.5 2164.5,-156.5 2017.5,-156.5"/>
<text text-anchor="start" x="2025.5" y="-185.5" font-family="Helvetica,sans-Serif" font-size="10.00">/home/runner/work/occ</text>
<text text-anchor="start" x="2025.5" y="-174.5" font-family="Helvetica,sans-Serif" font-size="10.00">/occ/include/occ/isosurface</text>
<text text-anchor="middle" x="2091" y="-163.5" font-family="Helvetica,sans-Serif" font-size="10.00">/void.h</text>
</a>
</g>
</g>
<!-- Node3&#45;&gt;Node22 -->
<g id="edge23" class="edge">
<title>Node3&#45;&gt;Node22</title>
<path fill="none" stroke="midnightblue" d="M1191.41,-251.55C1340.54,-246.15 1683.51,-230.99 1970,-198 1985.34,-196.23 2001.69,-193.86 2017.26,-191.37"/>
<polygon fill="midnightblue" stroke="midnightblue" points="1190.88,-248.06 1181.01,-251.92 1191.13,-255.06 1190.88,-248.06"/>
</g>
<!-- Node24 -->
<g id="node24" class="node">
<title>Node24</title>
<g id="a_node24"><a xlink:href="crystal__surface__energy_8h.html" target="_top" xlink:title=" ">
<polygon fill="none" stroke="black" points="1383,-156.5 1383,-197.5 1523,-197.5 1523,-156.5 1383,-156.5"/>
<text text-anchor="start" x="1391" y="-185.5" font-family="Helvetica,sans-Serif" font-size="10.00">/home/runner/work/occ</text>
<text text-anchor="start" x="1391" y="-174.5" font-family="Helvetica,sans-Serif" font-size="10.00">/occ/include/occ/main</text>
<text text-anchor="middle" x="1453" y="-163.5" font-family="Helvetica,sans-Serif" font-size="10.00">/crystal_surface_energy.h</text>
</a>
</g>
</g>
<!-- Node3&#45;&gt;Node24 -->
<g id="edge25" class="edge">
<title>Node3&#45;&gt;Node24</title>
<path fill="none" stroke="midnightblue" d="M1190.9,-237.75C1241.29,-226.73 1309.19,-211.74 1369,-198 1373.53,-196.96 1378.19,-195.88 1382.89,-194.78"/>
<polygon fill="midnightblue" stroke="midnightblue" points="1190.09,-234.34 1181.06,-239.9 1191.58,-241.18 1190.09,-234.34"/>
</g>
<!-- Node3&#45;&gt;Node25 -->
<g id="edge27" class="edge">
<title>Node3&#45;&gt;Node25</title>
<path fill="none" stroke="midnightblue" d="M1191.68,-252.68C1321.84,-249.38 1596.07,-237.87 1824,-198 1826.85,-197.5 1829.75,-196.94 1832.66,-196.33"/>
<polygon fill="midnightblue" stroke="midnightblue" points="1191.34,-249.19 1181.43,-252.93 1191.51,-256.19 1191.34,-249.19"/>
</g>
<!-- Node26 -->
<g id="node26" class="node">
<title>Node26</title>
<g id="a_node26"><a xlink:href="tblite__wrapper_8h.html" target="_top" xlink:title=" ">
<polygon fill="none" stroke="black" points="1541,-156.5 1541,-197.5 1669,-197.5 1669,-156.5 1541,-156.5"/>
<text text-anchor="start" x="1549" y="-185.5" font-family="Helvetica,sans-Serif" font-size="10.00">/home/runner/work/occ</text>
<text text-anchor="start" x="1549" y="-174.5" font-family="Helvetica,sans-Serif" font-size="10.00">/occ/include/occ/xtb</text>
<text text-anchor="middle" x="1605" y="-163.5" font-family="Helvetica,sans-Serif" font-size="10.00">/tblite_wrapper.h</text>
</a>
</g>
</g>
<!-- Node3&#45;&gt;Node26 -->
<g id="edge28" class="edge">
<title>Node3&#45;&gt;Node26</title>
<path fill="none" stroke="midnightblue" d="M1191.49,-246.9C1275.22,-238.32 1414.09,-221.98 1532,-198 1534.83,-197.42 1537.72,-196.8 1540.63,-196.14"/>
<polygon fill="midnightblue" stroke="midnightblue" points="1190.9,-243.44 1181.3,-247.94 1191.6,-250.41 1190.9,-243.44"/>
</g>
<!-- Node27 -->
<g id="node27" class="node">
<title>Node27</title>
<g id="a_node27"><a xlink:href="xtb__wrapper_8h.html" target="_top" xlink:title=" ">
<polygon fill="none" stroke="black" points="1687,-156.5 1687,-197.5 1815,-197.5 1815,-156.5 1687,-156.5"/>
<text text-anchor="start" x="1695" y="-185.5" font-family="Helvetica,sans-Serif" font-size="10.00">/home/runner/work/occ</text>
<text text-anchor="start" x="1695" y="-174.5" font-family="Helvetica,sans-Serif" font-size="10.00">/occ/include/occ/xtb</text>
<text text-anchor="middle" x="1751" y="-163.5" font-family="Helvetica,sans-Serif" font-size="10.00">/xtb_wrapper.h</text>
</a>
</g>
</g>
<!-- Node3&#45;&gt;Node27 -->
<g id="edge29" class="edge">
<title>Node3&#45;&gt;Node27</title>
<path fill="none" stroke="midnightblue" d="M1191.59,-250.51C1300.03,-244.59 1505.68,-229.96 1678,-198 1680.84,-197.47 1683.74,-196.89 1686.65,-196.26"/>
<polygon fill="midnightblue" stroke="midnightblue" points="1191.2,-247.02 1181.4,-251.05 1191.58,-254.01 1191.2,-247.02"/>
</g>
<!-- Node12&#45;&gt;Node5 -->
<g id="edge12" class="edge">
<title>Node12&#45;&gt;Node5</title>
<path fill="none" stroke="midnightblue" d="M1188.57,-156.28C1105.14,-146.76 650.18,-117.16 463.18,-105.13"/>
<polygon fill="midnightblue" stroke="midnightblue" points="1188.29,-159.78 1198.67,-157.63 1189.22,-152.84 1188.29,-159.78"/>
</g>
<!-- Node13 -->
<g id="node13" class="node">
<title>Node13</title>
<g id="a_node13"><a xlink:href="qcschema_8h.html" target="_top" xlink:title=" ">
<polygon fill="none" stroke="black" points="706.5,-84 706.5,-114 873.5,-114 873.5,-84 706.5,-84"/>
<text text-anchor="start" x="714.5" y="-102" font-family="Helvetica,sans-Serif" font-size="10.00">/home/runner/work/occ</text>
<text text-anchor="middle" x="790" y="-91" font-family="Helvetica,sans-Serif" font-size="10.00">/occ/include/occ/io/qcschema.h</text>
</a>
</g>
</g>
<!-- Node12&#45;&gt;Node13 -->
<g id="edge13" class="edge">
<title>Node12&#45;&gt;Node13</title>
<path fill="none" stroke="midnightblue" d="M1188.69,-155.89C1052.93,-130.3 1014.76,-142.13 882,-120 871.84,-118.31 861.11,-116.24 850.71,-114.07"/>
<polygon fill="midnightblue" stroke="midnightblue" points="1188.16,-159.35 1198.64,-157.8 1189.48,-152.48 1188.16,-159.35"/>
</g>
<!-- Node14 -->
<g id="node14" class="node">
<title>Node14</title>
<g id="a_node14"><a xlink:href="geometry__optimization_8h.html" target="_top" xlink:title=" ">
<polygon fill="none" stroke="black" points="891.5,-78.5 891.5,-119.5 1034.5,-119.5 1034.5,-78.5 891.5,-78.5"/>
<text text-anchor="start" x="899.5" y="-107.5" font-family="Helvetica,sans-Serif" font-size="10.00">/home/runner/work/occ</text>
<text text-anchor="start" x="899.5" y="-96.5" font-family="Helvetica,sans-Serif" font-size="10.00">/occ/include/occ/main</text>
<text text-anchor="middle" x="963" y="-85.5" font-family="Helvetica,sans-Serif" font-size="10.00">/geometry_optimization.h</text>
</a>
</g>
</g>
<!-- Node12&#45;&gt;Node14 -->
<g id="edge14" class="edge">
<title>Node12&#45;&gt;Node14</title>
<path fill="none" stroke="midnightblue" d="M1188.95,-155.75C1123.67,-138.84 1105.84,-135.26 1044,-120 1040.91,-119.24 1037.75,-118.46 1034.55,-117.67"/>
<polygon fill="midnightblue" stroke="midnightblue" points="1188.37,-159.22 1198.93,-158.35 1190.13,-152.44 1188.37,-159.22"/>
</g>
<!-- Node15 -->
<g id="node15" class="node">
<title>Node15</title>
<g id="a_node15"><a xlink:href="occ__pair_8h.html" target="_top" xlink:title=" ">
<polygon fill="none" stroke="black" points="1053,-78.5 1053,-119.5 1181,-119.5 1181,-78.5 1053,-78.5"/>
<text text-anchor="start" x="1061" y="-107.5" font-family="Helvetica,sans-Serif" font-size="10.00">/home/runner/work/occ</text>
<text text-anchor="start" x="1061" y="-96.5" font-family="Helvetica,sans-Serif" font-size="10.00">/occ/include/occ/main</text>
<text text-anchor="middle" x="1117" y="-85.5" font-family="Helvetica,sans-Serif" font-size="10.00">/occ_pair.h</text>
</a>
</g>
</g>
<!-- Node12&#45;&gt;Node15 -->
<g id="edge15" class="edge">
<title>Node12&#45;&gt;Node15</title>
<path fill="none" stroke="midnightblue" d="M1216.45,-151.77C1196.44,-141.35 1173.36,-129.34 1154.47,-119.51"/>
<polygon fill="midnightblue" stroke="midnightblue" points="1214.92,-154.92 1225.4,-156.43 1218.15,-148.71 1214.92,-154.92"/>
</g>
<!-- Node16 -->
<g id="node16" class="node">
<title>Node16</title>
<g id="a_node16"><a xlink:href="occ__scf_8h.html" target="_top" xlink:title=" ">
<polygon fill="none" stroke="black" points="1199,-78.5 1199,-119.5 1327,-119.5 1327,-78.5 1199,-78.5"/>
<text text-anchor="start" x="1207" y="-107.5" font-family="Helvetica,sans-Serif" font-size="10.00">/home/runner/work/occ</text>
<text text-anchor="start" x="1207" y="-96.5" font-family="Helvetica,sans-Serif" font-size="10.00">/occ/include/occ/main</text>
<text text-anchor="middle" x="1263" y="-85.5" font-family="Helvetica,sans-Serif" font-size="10.00">/occ_scf.h</text>
</a>
</g>
</g>
<!-- Node12&#45;&gt;Node16 -->
<g id="edge16" class="edge">
<title>Node12&#45;&gt;Node16</title>
<path fill="none" stroke="midnightblue" d="M1263,-146.3C1263,-137.3 1263,-127.65 1263,-119.51"/>
<polygon fill="midnightblue" stroke="midnightblue" points="1259.5,-146.43 1263,-156.43 1266.5,-146.43 1259.5,-146.43"/>
</g>
<!-- Node12&#45;&gt;Node17 -->
<g id="edge17" class="edge">
<title>Node12&#45;&gt;Node17</title>
<path fill="none" stroke="midnightblue" d="M1337.15,-156.75C1338.44,-156.49 1339.73,-156.24 1341,-156 1467.29,-131.99 1501.91,-145.05 1628,-120 1630.84,-119.44 1633.72,-118.82 1636.63,-118.17"/>
<polygon fill="midnightblue" stroke="midnightblue" points="1336.19,-153.38 1327.13,-158.87 1337.64,-160.23 1336.19,-153.38"/>
</g>
<!-- Node20 -->
<g id="node20" class="node">
<title>Node20</title>
<g id="a_node20"><a xlink:href="properties_8h.html" target="_top" xlink:title=" ">
<polygon fill="none" stroke="black" points="1345,-78.5 1345,-119.5 1473,-119.5 1473,-78.5 1345,-78.5"/>
<text text-anchor="start" x="1353" y="-107.5" font-family="Helvetica,sans-Serif" font-size="10.00">/home/runner/work/occ</text>
<text text-anchor="start" x="1353" y="-96.5" font-family="Helvetica,sans-Serif" font-size="10.00">/occ/include/occ/main</text>
<text text-anchor="middle" x="1409" y="-85.5" font-family="Helvetica,sans-Serif" font-size="10.00">/properties.h</text>
</a>
</g>
</g>
<!-- Node12&#45;&gt;Node20 -->
<g id="edge21" class="edge">
<title>Node12&#45;&gt;Node20</title>
<path fill="none" stroke="midnightblue" d="M1309.55,-151.77C1329.56,-141.35 1352.64,-129.34 1371.53,-119.51"/>
<polygon fill="midnightblue" stroke="midnightblue" points="1307.85,-148.71 1300.6,-156.43 1311.08,-154.92 1307.85,-148.71"/>
</g>
<!-- Node21 -->
<g id="node21" class="node">
<title>Node21</title>
<g id="a_node21"><a xlink:href="single__point_8h.html" target="_top" xlink:title=" ">
<polygon fill="none" stroke="black" points="1491,-78.5 1491,-119.5 1619,-119.5 1619,-78.5 1491,-78.5"/>
<text text-anchor="start" x="1499" y="-107.5" font-family="Helvetica,sans-Serif" font-size="10.00">/home/runner/work/occ</text>
<text text-anchor="start" x="1499" y="-96.5" font-family="Helvetica,sans-Serif" font-size="10.00">/occ/include/occ/main</text>
<text text-anchor="middle" x="1555" y="-85.5" font-family="Helvetica,sans-Serif" font-size="10.00">/single_point.h</text>
</a>
</g>
</g>
<!-- Node12&#45;&gt;Node21 -->
<g id="edge22" class="edge">
<title>Node12&#45;&gt;Node21</title>
<path fill="none" stroke="midnightblue" d="M1337.2,-156.97C1338.47,-156.65 1339.74,-156.32 1341,-156 1403.66,-139.97 1419.48,-136.55 1482,-120 1484.92,-119.23 1487.91,-118.43 1490.92,-117.62"/>
<polygon fill="midnightblue" stroke="midnightblue" points="1336.09,-153.64 1327.27,-159.51 1337.83,-160.42 1336.09,-153.64"/>
</g>
<!-- Node17&#45;&gt;Node17 -->
<g id="edge20" class="edge">
<title>Node17&#45;&gt;Node17</title>
<path fill="none" stroke="midnightblue" d="M1775.15,-109.45C1780.04,-107.02 1783,-103.54 1783,-99 1783,-91.92 1775.79,-87.41 1765.29,-85.47"/>
<polygon fill="midnightblue" stroke="midnightblue" points="1773.79,-106.21 1765.29,-112.53 1775.88,-112.89 1773.79,-106.21"/>
</g>
<!-- Node18 -->
<g id="node18" class="node">
<title>Node18</title>
<g id="a_node18"><a xlink:href="occ__cg_8h.html" target="_top" xlink:title=" ">
<polygon fill="none" stroke="black" points="1564,-0.5 1564,-41.5 1692,-41.5 1692,-0.5 1564,-0.5"/>
<text text-anchor="start" x="1572" y="-29.5" font-family="Helvetica,sans-Serif" font-size="10.00">/home/runner/work/occ</text>
<text text-anchor="start" x="1572" y="-18.5" font-family="Helvetica,sans-Serif" font-size="10.00">/occ/include/occ/main</text>
<text text-anchor="middle" x="1628" y="-7.5" font-family="Helvetica,sans-Serif" font-size="10.00">/occ_cg.h</text>
</a>
</g>
</g>
<!-- Node17&#45;&gt;Node18 -->
<g id="edge18" class="edge">
<title>Node17&#45;&gt;Node18</title>
<path fill="none" stroke="midnightblue" d="M1675.26,-71.2C1665.86,-61.42 1655.41,-50.54 1646.74,-41.51"/>
<polygon fill="midnightblue" stroke="midnightblue" points="1672.75,-73.64 1682.2,-78.43 1677.8,-68.79 1672.75,-73.64"/>
</g>
<!-- Node19 -->
<g id="node19" class="node">
<title>Node19</title>
<g id="a_node19"><a xlink:href="occ__elat_8h.html" target="_top" xlink:title=" ">
<polygon fill="none" stroke="black" points="1710,-0.5 1710,-41.5 1838,-41.5 1838,-0.5 1710,-0.5"/>
<text text-anchor="start" x="1718" y="-29.5" font-family="Helvetica,sans-Serif" font-size="10.00">/home/runner/work/occ</text>
<text text-anchor="start" x="1718" y="-18.5" font-family="Helvetica,sans-Serif" font-size="10.00">/occ/include/occ/main</text>
<text text-anchor="middle" x="1774" y="-7.5" font-family="Helvetica,sans-Serif" font-size="10.00">/occ_elat.h</text>
</a>
</g>
</g>
<!-- Node17&#45;&gt;Node19 -->
<g id="edge19" class="edge">
<title>Node17&#45;&gt;Node19</title>
<path fill="none" stroke="midnightblue" d="M1726.74,-71.2C1736.14,-61.42 1746.59,-50.54 1755.26,-41.51"/>
<polygon fill="midnightblue" stroke="midnightblue" points="1724.2,-68.79 1719.8,-78.43 1729.25,-73.64 1724.2,-68.79"/>
</g>
<!-- Node23 -->
<g id="node23" class="node">
<title>Node23</title>
<g id="a_node23"><a xlink:href="isosurface_8h.html" target="_top" xlink:title=" ">
<polygon fill="none" stroke="black" points="2347.5,-78.5 2347.5,-119.5 2494.5,-119.5 2494.5,-78.5 2347.5,-78.5"/>
<text text-anchor="start" x="2355.5" y="-107.5" font-family="Helvetica,sans-Serif" font-size="10.00">/home/runner/work/occ</text>
<text text-anchor="start" x="2355.5" y="-96.5" font-family="Helvetica,sans-Serif" font-size="10.00">/occ/include/occ/isosurface</text>
<text text-anchor="middle" x="2421" y="-85.5" font-family="Helvetica,sans-Serif" font-size="10.00">/isosurface.h</text>
</a>
</g>
</g>
<!-- Node22&#45;&gt;Node23 -->
<g id="edge24" class="edge">
<title>Node22&#45;&gt;Node23</title>
<path fill="none" stroke="midnightblue" d="M2174.63,-155.87C2238.64,-140.93 2300.7,-126.89 2347.45,-116.4"/>
<polygon fill="midnightblue" stroke="midnightblue" points="2173.7,-152.49 2164.75,-158.17 2175.29,-159.31 2173.7,-152.49"/>
</g>
<!-- Node28&#45;&gt;Node17 -->
<g id="edge32" class="edge">
<title>Node28&#45;&gt;Node17</title>
<path fill="none" stroke="midnightblue" d="M1994.67,-224.37C1993.5,-202.49 1988.19,-173.57 1970,-156 1941.3,-128.29 1835.29,-112.88 1765.23,-105.53"/>
<polygon fill="midnightblue" stroke="midnightblue" points="1991.17,-224.57 1994.95,-234.47 1998.17,-224.37 1991.17,-224.57"/>
</g>
<!-- Node29&#45;&gt;Node22 -->
<g id="edge42" class="edge">
<title>Node29&#45;&gt;Node22</title>
<path fill="none" stroke="midnightblue" d="M2264.69,-231.44C2229.63,-220.66 2188.07,-207.87 2154.39,-197.51"/>
<polygon fill="midnightblue" stroke="midnightblue" points="2263.8,-234.83 2274.39,-234.43 2265.86,-228.14 2263.8,-234.83"/>
</g>
<!-- Node30 -->
<g id="node30" class="node">
<title>Node30</title>
<g id="a_node30"><a xlink:href="electric__potential_8h.html" target="_top" xlink:title=" ">
<polygon fill="none" stroke="black" points="2182.5,-156.5 2182.5,-197.5 2329.5,-197.5 2329.5,-156.5 2182.5,-156.5"/>
<text text-anchor="start" x="2190.5" y="-185.5" font-family="Helvetica,sans-Serif" font-size="10.00">/home/runner/work/occ</text>
<text text-anchor="start" x="2190.5" y="-174.5" font-family="Helvetica,sans-Serif" font-size="10.00">/occ/include/occ/isosurface</text>
<text text-anchor="middle" x="2256" y="-163.5" font-family="Helvetica,sans-Serif" font-size="10.00">/electric_potential.h</text>
</a>
</g>
</g>
<!-- Node29&#45;&gt;Node30 -->
<g id="edge34" class="edge">
<title>Node29&#45;&gt;Node30</title>
<path fill="none" stroke="midnightblue" d="M2309.4,-227.49C2298.76,-217.63 2286.89,-206.63 2277.05,-197.51"/>
<polygon fill="midnightblue" stroke="midnightblue" points="2307.17,-230.2 2316.88,-234.43 2311.93,-225.06 2307.17,-230.2"/>
</g>
<!-- Node31 -->
<g id="node31" class="node">
<title>Node31</title>
<g id="a_node31"><a xlink:href="electron__density_8h.html" target="_top" xlink:title=" ">
<polygon fill="none" stroke="black" points="2347.5,-156.5 2347.5,-197.5 2494.5,-197.5 2494.5,-156.5 2347.5,-156.5"/>
<text text-anchor="start" x="2355.5" y="-185.5" font-family="Helvetica,sans-Serif" font-size="10.00">/home/runner/work/occ</text>
<text text-anchor="start" x="2355.5" y="-174.5" font-family="Helvetica,sans-Serif" font-size="10.00">/occ/include/occ/isosurface</text>
<text text-anchor="middle" x="2421" y="-163.5" font-family="Helvetica,sans-Serif" font-size="10.00">/electron_density.h</text>
</a>
</g>
</g>
<!-- Node29&#45;&gt;Node31 -->
<g id="edge36" class="edge">
<title>Node29&#45;&gt;Node31</title>
<path fill="none" stroke="midnightblue" d="M2366.95,-227.49C2377.72,-217.63 2389.74,-206.63 2399.7,-197.51"/>
<polygon fill="midnightblue" stroke="midnightblue" points="2364.39,-225.09 2359.37,-234.43 2369.11,-230.26 2364.39,-225.09"/>
</g>
<!-- Node32 -->
<g id="node32" class="node">
<title>Node32</title>
<g id="a_node32"><a xlink:href="promolecule__density_8h.html" target="_top" xlink:title=" ">
<polygon fill="none" stroke="black" points="2512.5,-156.5 2512.5,-197.5 2659.5,-197.5 2659.5,-156.5 2512.5,-156.5"/>
<text text-anchor="start" x="2520.5" y="-185.5" font-family="Helvetica,sans-Serif" font-size="10.00">/home/runner/work/occ</text>
<text text-anchor="start" x="2520.5" y="-174.5" font-family="Helvetica,sans-Serif" font-size="10.00">/occ/include/occ/isosurface</text>
<text text-anchor="middle" x="2586" y="-163.5" font-family="Helvetica,sans-Serif" font-size="10.00">/promolecule_density.h</text>
</a>
</g>
</g>
<!-- Node29&#45;&gt;Node32 -->
<g id="edge38" class="edge">
<title>Node29&#45;&gt;Node32</title>
<path fill="none" stroke="midnightblue" d="M2411.61,-231.44C2446.81,-220.66 2488.54,-207.87 2522.35,-197.51"/>
<polygon fill="midnightblue" stroke="midnightblue" points="2410.4,-228.15 2401.87,-234.43 2412.45,-234.84 2410.4,-228.15"/>
</g>
<!-- Node33 -->
<g id="node33" class="node">
<title>Node33</title>
<g id="a_node33"><a xlink:href="stockholder__weight_8h.html" target="_top" xlink:title=" ">
<polygon fill="none" stroke="black" points="2677.5,-156.5 2677.5,-197.5 2824.5,-197.5 2824.5,-156.5 2677.5,-156.5"/>
<text text-anchor="start" x="2685.5" y="-185.5" font-family="Helvetica,sans-Serif" font-size="10.00">/home/runner/work/occ</text>
<text text-anchor="start" x="2685.5" y="-174.5" font-family="Helvetica,sans-Serif" font-size="10.00">/occ/include/occ/isosurface</text>
<text text-anchor="middle" x="2751" y="-163.5" font-family="Helvetica,sans-Serif" font-size="10.00">/stockholder_weight.h</text>
</a>
</g>
</g>
<!-- Node29&#45;&gt;Node33 -->
<g id="edge40" class="edge">
<title>Node29&#45;&gt;Node33</title>
<path fill="none" stroke="midnightblue" d="M2421.67,-241.54C2488.78,-231.14 2585.25,-215.27 2669,-198 2671.73,-197.44 2674.5,-196.85 2677.3,-196.24"/>
<polygon fill="midnightblue" stroke="midnightblue" points="2420.93,-238.12 2411.58,-243.1 2421.99,-245.03 2420.93,-238.12"/>
</g>
<!-- Node30&#45;&gt;Node23 -->
<g id="edge35" class="edge">
<title>Node30&#45;&gt;Node23</title>
<path fill="none" stroke="midnightblue" d="M2307.69,-152.19C2330.52,-141.67 2357.02,-129.47 2378.65,-119.51"/>
<polygon fill="midnightblue" stroke="midnightblue" points="2306.11,-149.07 2298.49,-156.43 2309.04,-155.42 2306.11,-149.07"/>
</g>
<!-- Node31&#45;&gt;Node23 -->
<g id="edge37" class="edge">
<title>Node31&#45;&gt;Node23</title>
<path fill="none" stroke="midnightblue" d="M2421,-146.3C2421,-137.3 2421,-127.65 2421,-119.51"/>
<polygon fill="midnightblue" stroke="midnightblue" points="2417.5,-146.43 2421,-156.43 2424.5,-146.43 2417.5,-146.43"/>
</g>
<!-- Node32&#45;&gt;Node23 -->
<g id="edge39" class="edge">
<title>Node32&#45;&gt;Node23</title>
<path fill="none" stroke="midnightblue" d="M2534.31,-152.19C2511.48,-141.67 2484.98,-129.47 2463.35,-119.51"/>
<polygon fill="midnightblue" stroke="midnightblue" points="2532.96,-155.42 2543.51,-156.43 2535.89,-149.07 2532.96,-155.42"/>
</g>
<!-- Node33&#45;&gt;Node23 -->
<g id="edge41" class="edge">
<title>Node33&#45;&gt;Node23</title>
<path fill="none" stroke="midnightblue" d="M2667.48,-155.66C2604,-140.8 2541.57,-126.74 2494.6,-116.27"/>
<polygon fill="midnightblue" stroke="midnightblue" points="2666.72,-159.07 2677.26,-157.95 2668.32,-152.26 2666.72,-159.07"/>
</g>
</g>
</svg>
