<?xml version="1.0" encoding="UTF-8" standalone="no"?>
<!DOCTYPE svg PUBLIC "-//W3C//DTD SVG 1.1//EN"
 "http://www.w3.org/Graphics/SVG/1.1/DTD/svg11.dtd">
<!-- Generated by graphviz version 2.43.0 (0)
 -->
<!-- Title: /home/runner/work/occ/occ/include/occ/core/util.h Pages: 1 -->
<svg width="774pt" height="162pt"
 viewBox="0.00 0.00 773.50 162.00" xmlns="http://www.w3.org/2000/svg" xmlns:xlink="http://www.w3.org/1999/xlink">
<g id="graph0" class="graph" transform="scale(1 1) rotate(0) translate(4 158)">
<title>/home/runner/work/occ/occ/include/occ/core/util.h</title>
<!-- Node1 -->
<g id="node1" class="node">
<title>Node1</title>
<g id="a_node1"><a xlink:title=" ">
<polygon fill="#bfbfbf" stroke="black" points="277,-112.5 277,-153.5 405,-153.5 405,-112.5 277,-112.5"/>
<text text-anchor="start" x="285" y="-141.5" font-family="Helvetica,sans-Serif" font-size="10.00">/home/runner/work/occ</text>
<text text-anchor="start" x="285" y="-130.5" font-family="Helvetica,sans-Serif" font-size="10.00">/occ/include/occ/core</text>
<text text-anchor="middle" x="341" y="-119.5" font-family="Helvetica,sans-Serif" font-size="10.00">/util.h</text>
</a>
</g>
</g>
<!-- Node2 -->
<g id="node2" class="node">
<title>Node2</title>
<g id="a_node2"><a xlink:title=" ">
<polygon fill="none" stroke="#bfbfbf" points="0,-56.5 0,-75.5 64,-75.5 64,-56.5 0,-56.5"/>
<text text-anchor="middle" x="32" y="-63.5" font-family="Helvetica,sans-Serif" font-size="10.00">algorithm</text>
</a>
</g>
</g>
<!-- Node1&#45;&gt;Node2 -->
<g id="edge1" class="edge">
<title>Node1&#45;&gt;Node2</title>
<path fill="none" stroke="midnightblue" d="M276.79,-118.77C224.81,-108.02 149.42,-92.33 74.33,-76.27"/>
<polygon fill="midnightblue" stroke="midnightblue" points="74.73,-72.78 64.22,-74.11 73.27,-79.62 74.73,-72.78"/>
</g>
<!-- Node3 -->
<g id="node3" class="node">
<title>Node3</title>
<g id="a_node3"><a xlink:title=" ">
<polygon fill="none" stroke="#bfbfbf" points="82.5,-56.5 82.5,-75.5 131.5,-75.5 131.5,-56.5 82.5,-56.5"/>
<text text-anchor="middle" x="107" y="-63.5" font-family="Helvetica,sans-Serif" font-size="10.00">cctype</text>
</a>
</g>
</g>
<!-- Node1&#45;&gt;Node3 -->
<g id="edge2" class="edge">
<title>Node1&#45;&gt;Node3</title>
<path fill="none" stroke="midnightblue" d="M276.75,-114.15C233.03,-102.01 176.89,-86.41 141.42,-76.56"/>
<polygon fill="midnightblue" stroke="midnightblue" points="142.12,-73.12 131.55,-73.82 140.24,-79.87 142.12,-73.12"/>
</g>
<!-- Node4 -->
<g id="node4" class="node">
<title>Node4</title>
<g id="a_node4"><a xlink:title=" ">
<polygon fill="none" stroke="#bfbfbf" points="150,-56.5 150,-75.5 200,-75.5 200,-56.5 150,-56.5"/>
<text text-anchor="middle" x="175" y="-63.5" font-family="Helvetica,sans-Serif" font-size="10.00">chrono</text>
</a>
</g>
</g>
<!-- Node1&#45;&gt;Node4 -->
<g id="edge3" class="edge">
<title>Node1&#45;&gt;Node4</title>
<path fill="none" stroke="midnightblue" d="M291.19,-112.5C263.79,-101.77 230.6,-88.77 206.72,-79.42"/>
<polygon fill="midnightblue" stroke="midnightblue" points="207.68,-76.04 197.1,-75.65 205.13,-82.56 207.68,-76.04"/>
</g>
<!-- Node5 -->
<g id="node5" class="node">
<title>Node5</title>
<g id="a_node5"><a xlink:title=" ">
<polygon fill="none" stroke="#bfbfbf" points="319.5,-0.5 319.5,-19.5 386.5,-19.5 386.5,-0.5 319.5,-0.5"/>
<text text-anchor="middle" x="353" y="-7.5" font-family="Helvetica,sans-Serif" font-size="10.00">fmt/core.h</text>
</a>
</g>
</g>
<!-- Node1&#45;&gt;Node5 -->
<g id="edge4" class="edge">
<title>Node1&#45;&gt;Node5</title>
<path fill="none" stroke="midnightblue" d="M286.41,-112.5C257.76,-99.03 231.54,-79.36 247,-56 260.89,-35.01 286.75,-23.79 309.44,-17.79"/>
<polygon fill="midnightblue" stroke="midnightblue" points="310.34,-21.18 319.27,-15.46 308.73,-14.37 310.34,-21.18"/>
</g>
<!-- Node6 -->
<g id="node6" class="node">
<title>Node6</title>
<g id="a_node6"><a xlink:title=" ">
<polygon fill="none" stroke="#bfbfbf" points="256,-56.5 256,-75.5 342,-75.5 342,-56.5 256,-56.5"/>
<text text-anchor="middle" x="299" y="-63.5" font-family="Helvetica,sans-Serif" font-size="10.00">fmt/ostream.h</text>
</a>
</g>
</g>
<!-- Node1&#45;&gt;Node6 -->
<g id="edge5" class="edge">
<title>Node1&#45;&gt;Node6</title>
<path fill="none" stroke="midnightblue" d="M328.4,-112.5C322.58,-103.49 315.73,-92.89 310.1,-84.19"/>
<polygon fill="midnightblue" stroke="midnightblue" points="312.96,-82.15 304.59,-75.65 307.08,-85.95 312.96,-82.15"/>
</g>
<!-- Node7 -->
<g id="node7" class="node">
<title>Node7</title>
<g id="a_node7"><a xlink:title=" ">
<polygon fill="none" stroke="#bfbfbf" points="360,-56.5 360,-75.5 406,-75.5 406,-56.5 360,-56.5"/>
<text text-anchor="middle" x="383" y="-63.5" font-family="Helvetica,sans-Serif" font-size="10.00">locale</text>
</a>
</g>
</g>
<!-- Node1&#45;&gt;Node7 -->
<g id="edge6" class="edge">
<title>Node1&#45;&gt;Node7</title>
<path fill="none" stroke="midnightblue" d="M353.6,-112.5C359.42,-103.49 366.27,-92.89 371.9,-84.19"/>
<polygon fill="midnightblue" stroke="midnightblue" points="374.92,-85.95 377.41,-75.65 369.04,-82.15 374.92,-85.95"/>
</g>
<!-- Node8 -->
<g id="node8" class="node">
<title>Node8</title>
<g id="a_node8"><a xlink:title=" ">
<polygon fill="none" stroke="#bfbfbf" points="424,-56.5 424,-75.5 480,-75.5 480,-56.5 424,-56.5"/>
<text text-anchor="middle" x="452" y="-63.5" font-family="Helvetica,sans-Serif" font-size="10.00">numeric</text>
</a>
</g>
</g>
<!-- Node1&#45;&gt;Node8 -->
<g id="edge7" class="edge">
<title>Node1&#45;&gt;Node8</title>
<path fill="none" stroke="midnightblue" d="M374.3,-112.5C391.65,-102.34 412.46,-90.16 428.17,-80.95"/>
<polygon fill="midnightblue" stroke="midnightblue" points="430.36,-83.73 437.22,-75.65 426.83,-77.69 430.36,-83.73"/>
</g>
<!-- Node9 -->
<g id="node9" class="node">
<title>Node9</title>
<g id="a_node9"><a xlink:href="linear__algebra_8h.html" target="_top" xlink:title=" ">
<polygon fill="none" stroke="black" points="498.5,-56.5 498.5,-75.5 637.5,-75.5 637.5,-56.5 498.5,-56.5"/>
<text text-anchor="middle" x="568" y="-63.5" font-family="Helvetica,sans-Serif" font-size="10.00">occ/core/linear_algebra.h</text>
</a>
</g>
</g>
<!-- Node1&#45;&gt;Node9 -->
<g id="edge8" class="edge">
<title>Node1&#45;&gt;Node9</title>
<path fill="none" stroke="midnightblue" d="M405.14,-113.63C444.7,-102.3 494.21,-88.13 528.19,-78.4"/>
<polygon fill="midnightblue" stroke="midnightblue" points="529.56,-81.65 538.21,-75.53 527.63,-74.92 529.56,-81.65"/>
</g>
<!-- Node12 -->
<g id="node12" class="node">
<title>Node12</title>
<g id="a_node12"><a xlink:title=" ">
<polygon fill="none" stroke="#bfbfbf" points="656,-56.5 656,-75.5 700,-75.5 700,-56.5 656,-56.5"/>
<text text-anchor="middle" x="678" y="-63.5" font-family="Helvetica,sans-Serif" font-size="10.00">string</text>
</a>
</g>
</g>
<!-- Node1&#45;&gt;Node12 -->
<g id="edge12" class="edge">
<title>Node1&#45;&gt;Node12</title>
<path fill="none" stroke="midnightblue" d="M405.28,-122.19C465.22,-112.59 557.27,-96.74 645.78,-76.1"/>
<polygon fill="midnightblue" stroke="midnightblue" points="646.79,-79.46 655.72,-73.76 645.18,-72.65 646.79,-79.46"/>
</g>
<!-- Node13 -->
<g id="node13" class="node">
<title>Node13</title>
<g id="a_node13"><a xlink:title=" ">
<polygon fill="none" stroke="#bfbfbf" points="718.5,-56.5 718.5,-75.5 765.5,-75.5 765.5,-56.5 718.5,-56.5"/>
<text text-anchor="middle" x="742" y="-63.5" font-family="Helvetica,sans-Serif" font-size="10.00">vector</text>
</a>
</g>
</g>
<!-- Node1&#45;&gt;Node13 -->
<g id="edge13" class="edge">
<title>Node1&#45;&gt;Node13</title>
<path fill="none" stroke="midnightblue" d="M405.22,-124.51C476.82,-115.64 596.17,-99.34 708.17,-75.96"/>
<polygon fill="midnightblue" stroke="midnightblue" points="709.23,-79.31 718.29,-73.82 707.78,-72.46 709.23,-79.31"/>
</g>
<!-- Node9&#45;&gt;Node5 -->
<g id="edge11" class="edge">
<title>Node9&#45;&gt;Node5</title>
<path fill="none" stroke="midnightblue" d="M533.93,-56.44C496.71,-47.09 436.99,-32.09 396.43,-21.91"/>
<polygon fill="midnightblue" stroke="midnightblue" points="397.11,-18.47 386.55,-19.43 395.4,-25.26 397.11,-18.47"/>
</g>
<!-- Node10 -->
<g id="node10" class="node">
<title>Node10</title>
<g id="a_node10"><a xlink:title=" ">
<polygon fill="none" stroke="#bfbfbf" points="477.5,-0.5 477.5,-19.5 554.5,-19.5 554.5,-0.5 477.5,-0.5"/>
<text text-anchor="middle" x="516" y="-7.5" font-family="Helvetica,sans-Serif" font-size="10.00">Eigen/Dense</text>
</a>
</g>
</g>
<!-- Node9&#45;&gt;Node10 -->
<g id="edge9" class="edge">
<title>Node9&#45;&gt;Node10</title>
<path fill="none" stroke="midnightblue" d="M559.41,-56.08C551.84,-48.22 540.62,-36.57 531.49,-27.08"/>
<polygon fill="midnightblue" stroke="midnightblue" points="533.88,-24.53 524.43,-19.75 528.84,-29.38 533.88,-24.53"/>
</g>
<!-- Node11 -->
<g id="node11" class="node">
<title>Node11</title>
<g id="a_node11"><a xlink:title=" ">
<polygon fill="none" stroke="#bfbfbf" points="572.5,-0.5 572.5,-19.5 665.5,-19.5 665.5,-0.5 572.5,-0.5"/>
<text text-anchor="middle" x="619" y="-7.5" font-family="Helvetica,sans-Serif" font-size="10.00">Eigen/StdVector</text>
</a>
</g>
</g>
<!-- Node9&#45;&gt;Node11 -->
<g id="edge10" class="edge">
<title>Node9&#45;&gt;Node11</title>
<path fill="none" stroke="midnightblue" d="M576.42,-56.08C583.85,-48.22 594.85,-36.57 603.81,-27.08"/>
<polygon fill="midnightblue" stroke="midnightblue" points="606.41,-29.42 610.74,-19.75 601.32,-24.62 606.41,-29.42"/>
</g>
</g>
</svg>
