<?xml version="1.0" encoding="UTF-8" standalone="no"?>
<!DOCTYPE svg PUBLIC "-//W3C//DTD SVG 1.1//EN"
 "http://www.w3.org/Graphics/SVG/1.1/DTD/svg11.dtd">
<!-- Generated by graphviz version 2.43.0 (0)
 -->
<!-- Title: /home/runner/work/occ/occ/include/occ/core/vibration.h Pages: 1 -->
<svg width="464pt" height="269pt"
 viewBox="0.00 0.00 463.51 269.00" xmlns="http://www.w3.org/2000/svg" xmlns:xlink="http://www.w3.org/1999/xlink">
<g id="graph0" class="graph" transform="scale(1 1) rotate(0) translate(4 265)">
<title>/home/runner/work/occ/occ/include/occ/core/vibration.h</title>
<!-- Node1 -->
<g id="Node000001" class="node">
<title>Node1</title>
<g id="a_Node000001"><a xlink:title=" ">
<polygon fill="#999999" stroke="#666666" points="416.01,-261 288.01,-261 288.01,-220 416.01,-220 416.01,-261"/>
<text text-anchor="start" x="296.01" y="-249" font-family="Helvetica,sans-Serif" font-size="10.00">/home/runner/work/occ</text>
<text text-anchor="start" x="296.01" y="-238" font-family="Helvetica,sans-Serif" font-size="10.00">/occ/include/occ/core</text>
<text text-anchor="middle" x="352.01" y="-227" font-family="Helvetica,sans-Serif" font-size="10.00">/vibration.h</text>
</a>
</g>
</g>
<!-- Node2 -->
<g id="Node000002" class="node">
<title>Node2</title>
<g id="a_Node000002"><a xlink:href="linear__algebra_8h.html" target="_top" xlink:title=" ">
<polygon fill="white" stroke="#666666" points="215.51,-74 76.51,-74 76.51,-55 215.51,-55 215.51,-74"/>
<text text-anchor="middle" x="146.01" y="-62" font-family="Helvetica,sans-Serif" font-size="10.00">occ/core/linear_algebra.h</text>
</a>
</g>
</g>
<!-- Node1&#45;&gt;Node2 -->
<g id="edge1_Node000001_Node000002" class="edge">
<title>Node1&#45;&gt;Node2</title>
<g id="a_edge1_Node000001_Node000002"><a xlink:title=" ">
<path fill="none" stroke="#63b8ff" d="M287.81,-228.3C197.26,-211.03 39.33,-175.04 6.01,-129 -14.89,-100.11 24.15,-84.08 66.27,-75.36"/>
<polygon fill="#63b8ff" stroke="#63b8ff" points="66.98,-78.78 76.14,-73.45 65.65,-71.91 66.98,-78.78"/>
</a>
</g>
</g>
<!-- Node6 -->
<g id="Node000006" class="node">
<title>Node6</title>
<g id="a_Node000006"><a xlink:href="molecule_8h.html" target="_top" xlink:title=" ">
<polygon fill="white" stroke="#666666" points="296.01,-184 182.01,-184 182.01,-165 296.01,-165 296.01,-184"/>
<text text-anchor="middle" x="239.01" y="-172" font-family="Helvetica,sans-Serif" font-size="10.00">occ/core/molecule.h</text>
</a>
</g>
</g>
<!-- Node1&#45;&gt;Node6 -->
<g id="edge5_Node000001_Node000006" class="edge">
<title>Node1&#45;&gt;Node6</title>
<g id="a_edge5_Node000001_Node000006"><a xlink:title=" ">
<path fill="none" stroke="#63b8ff" d="M317.5,-219.95C299.97,-210.03 279.11,-198.21 263.3,-189.25"/>
<polygon fill="#63b8ff" stroke="#63b8ff" points="264.61,-185.97 254.18,-184.09 261.16,-192.07 264.61,-185.97"/>
</a>
</g>
</g>
<!-- Node10 -->
<g id="Node000010" class="node">
<title>Node10</title>
<g id="a_Node000010"><a xlink:title=" ">
<polygon fill="#e0e0e0" stroke="#999999" points="332.01,-74 288.01,-74 288.01,-55 332.01,-55 332.01,-74"/>
<text text-anchor="middle" x="310.01" y="-62" font-family="Helvetica,sans-Serif" font-size="10.00">string</text>
</a>
</g>
</g>
<!-- Node1&#45;&gt;Node10 -->
<g id="edge16_Node000001_Node000010" class="edge">
<title>Node1&#45;&gt;Node10</title>
<g id="a_edge16_Node000001_Node000010"><a xlink:title=" ">
<path fill="none" stroke="#63b8ff" d="M371.43,-219.58C394.68,-193.22 427.82,-145.87 405.01,-110 391.26,-88.37 363.93,-77.08 342.09,-71.29"/>
<polygon fill="#63b8ff" stroke="#63b8ff" points="342.75,-67.85 332.21,-68.93 341.13,-74.66 342.75,-67.85"/>
</a>
</g>
</g>
<!-- Node11 -->
<g id="Node000011" class="node">
<title>Node11</title>
<g id="a_Node000011"><a xlink:title=" ">
<polygon fill="#e0e0e0" stroke="#999999" points="455.51,-74 408.51,-74 408.51,-55 455.51,-55 455.51,-74"/>
<text text-anchor="middle" x="432.01" y="-62" font-family="Helvetica,sans-Serif" font-size="10.00">vector</text>
</a>
</g>
</g>
<!-- Node1&#45;&gt;Node11 -->
<g id="edge15_Node000001_Node000011" class="edge">
<title>Node1&#45;&gt;Node11</title>
<g id="a_edge15_Node000001_Node000011"><a xlink:title=" ">
<path fill="none" stroke="#63b8ff" d="M383.76,-219.95C396.17,-210.63 409.26,-198.36 417.01,-184 434.19,-152.18 434.93,-108.72 433.65,-84.25"/>
<polygon fill="#63b8ff" stroke="#63b8ff" points="437.14,-83.91 432.95,-74.17 430.15,-84.39 437.14,-83.91"/>
</a>
</g>
</g>
<!-- Node3 -->
<g id="Node000003" class="node">
<title>Node3</title>
<g id="a_Node000003"><a xlink:title=" ">
<polygon fill="#e0e0e0" stroke="#999999" points="81.51,-19 4.51,-19 4.51,0 81.51,0 81.51,-19"/>
<text text-anchor="middle" x="43.01" y="-7" font-family="Helvetica,sans-Serif" font-size="10.00">Eigen/Dense</text>
</a>
</g>
</g>
<!-- Node2&#45;&gt;Node3 -->
<g id="edge2_Node000002_Node000003" class="edge">
<title>Node2&#45;&gt;Node3</title>
<g id="a_edge2_Node000002_Node000003"><a xlink:title=" ">
<path fill="none" stroke="#63b8ff" d="M129.47,-54.98C113.12,-46.57 87.88,-33.59 68.88,-23.81"/>
<polygon fill="#63b8ff" stroke="#63b8ff" points="70.36,-20.63 59.86,-19.17 67.15,-26.86 70.36,-20.63"/>
</a>
</g>
</g>
<!-- Node4 -->
<g id="Node000004" class="node">
<title>Node4</title>
<g id="a_Node000004"><a xlink:title=" ">
<polygon fill="#e0e0e0" stroke="#999999" points="192.51,-19 99.51,-19 99.51,0 192.51,0 192.51,-19"/>
<text text-anchor="middle" x="146.01" y="-7" font-family="Helvetica,sans-Serif" font-size="10.00">Eigen/StdVector</text>
</a>
</g>
</g>
<!-- Node2&#45;&gt;Node4 -->
<g id="edge3_Node000002_Node000004" class="edge">
<title>Node2&#45;&gt;Node4</title>
<g id="a_edge3_Node000002_Node000004"><a xlink:title=" ">
<path fill="none" stroke="#63b8ff" d="M146.01,-54.75C146.01,-47.8 146.01,-37.85 146.01,-29.13"/>
<polygon fill="#63b8ff" stroke="#63b8ff" points="149.51,-29.09 146.01,-19.09 142.51,-29.09 149.51,-29.09"/>
</a>
</g>
</g>
<!-- Node5 -->
<g id="Node000005" class="node">
<title>Node5</title>
<g id="a_Node000005"><a xlink:title=" ">
<polygon fill="#e0e0e0" stroke="#999999" points="277.51,-19 210.51,-19 210.51,0 277.51,0 277.51,-19"/>
<text text-anchor="middle" x="244.01" y="-7" font-family="Helvetica,sans-Serif" font-size="10.00">fmt/core.h</text>
</a>
</g>
</g>
<!-- Node2&#45;&gt;Node5 -->
<g id="edge4_Node000002_Node000005" class="edge">
<title>Node2&#45;&gt;Node5</title>
<g id="a_edge4_Node000002_Node000005"><a xlink:title=" ">
<path fill="none" stroke="#63b8ff" d="M161.76,-54.98C177.24,-46.61 201.11,-33.7 219.15,-23.95"/>
<polygon fill="#63b8ff" stroke="#63b8ff" points="220.85,-27.01 227.98,-19.17 217.52,-20.85 220.85,-27.01"/>
</a>
</g>
</g>
<!-- Node6&#45;&gt;Node2 -->
<g id="edge13_Node000006_Node000002" class="edge">
<title>Node6&#45;&gt;Node2</title>
<g id="a_edge13_Node000006_Node000002"><a xlink:title=" ">
<path fill="none" stroke="#63b8ff" d="M231.4,-164.66C215.79,-146.54 179.95,-104.91 160.02,-81.77"/>
<polygon fill="#63b8ff" stroke="#63b8ff" points="162.65,-79.45 153.47,-74.16 157.34,-84.02 162.65,-79.45"/>
</a>
</g>
</g>
<!-- Node7 -->
<g id="Node000007" class="node">
<title>Node7</title>
<g id="a_Node000007"><a xlink:title=" ">
<polygon fill="#e0e0e0" stroke="#999999" points="396.01,-129 354.01,-129 354.01,-110 396.01,-110 396.01,-129"/>
<text text-anchor="middle" x="375.01" y="-117" font-family="Helvetica,sans-Serif" font-size="10.00">array</text>
</a>
</g>
</g>
<!-- Node6&#45;&gt;Node7 -->
<g id="edge6_Node000006_Node000007" class="edge">
<title>Node6&#45;&gt;Node7</title>
<g id="a_edge6_Node000006_Node000007"><a xlink:title=" ">
<path fill="none" stroke="#63b8ff" d="M260.86,-164.98C283.4,-156.2 318.75,-142.43 344.13,-132.53"/>
<polygon fill="#63b8ff" stroke="#63b8ff" points="345.62,-135.71 353.67,-128.82 343.08,-129.19 345.62,-135.71"/>
</a>
</g>
</g>
<!-- Node8 -->
<g id="Node000008" class="node">
<title>Node8</title>
<g id="a_Node000008"><a xlink:href="atom_8h.html" target="_top" xlink:title=" ">
<polygon fill="white" stroke="#666666" points="110.51,-129 15.51,-129 15.51,-110 110.51,-110 110.51,-129"/>
<text text-anchor="middle" x="63.01" y="-117" font-family="Helvetica,sans-Serif" font-size="10.00">occ/core/atom.h</text>
</a>
</g>
</g>
<!-- Node6&#45;&gt;Node8 -->
<g id="edge7_Node000006_Node000008" class="edge">
<title>Node6&#45;&gt;Node8</title>
<g id="a_edge7_Node000006_Node000008"><a xlink:title=" ">
<path fill="none" stroke="#63b8ff" d="M210.74,-164.98C181.06,-156.05 134.23,-141.94 101.26,-132.02"/>
<polygon fill="#63b8ff" stroke="#63b8ff" points="102.1,-128.61 91.51,-129.08 100.08,-135.32 102.1,-128.61"/>
</a>
</g>
</g>
<!-- Node9 -->
<g id="Node000009" class="node">
<title>Node9</title>
<g id="a_Node000009"><a xlink:href="element_8h.html" target="_top" xlink:title=" ">
<polygon fill="white" stroke="#666666" points="336.01,-129 226.01,-129 226.01,-110 336.01,-110 336.01,-129"/>
<text text-anchor="middle" x="281.01" y="-117" font-family="Helvetica,sans-Serif" font-size="10.00">occ/core/element.h</text>
</a>
</g>
</g>
<!-- Node6&#45;&gt;Node9 -->
<g id="edge9_Node000006_Node000009" class="edge">
<title>Node6&#45;&gt;Node9</title>
<g id="a_edge9_Node000006_Node000009"><a xlink:title=" ">
<path fill="none" stroke="#63b8ff" d="M245.95,-164.75C251.88,-157.26 260.59,-146.28 267.84,-137.13"/>
<polygon fill="#63b8ff" stroke="#63b8ff" points="270.74,-139.1 274.21,-129.09 265.25,-134.75 270.74,-139.1"/>
</a>
</g>
</g>
<!-- Node12 -->
<g id="Node000012" class="node">
<title>Node12</title>
<g id="a_Node000012"><a xlink:title=" ">
<polygon fill="#e0e0e0" stroke="#999999" points="169.51,-129 128.51,-129 128.51,-110 169.51,-110 169.51,-129"/>
<text text-anchor="middle" x="149.01" y="-117" font-family="Helvetica,sans-Serif" font-size="10.00">tuple</text>
</a>
</g>
</g>
<!-- Node6&#45;&gt;Node12 -->
<g id="edge14_Node000006_Node000012" class="edge">
<title>Node6&#45;&gt;Node12</title>
<g id="a_edge14_Node000006_Node000012"><a xlink:title=" ">
<path fill="none" stroke="#63b8ff" d="M224.55,-164.98C210.6,-156.77 189.22,-144.18 172.76,-134.49"/>
<polygon fill="#63b8ff" stroke="#63b8ff" points="174.13,-131.23 163.74,-129.17 170.58,-137.26 174.13,-131.23"/>
</a>
</g>
</g>
<!-- Node8&#45;&gt;Node2 -->
<g id="edge8_Node000008_Node000002" class="edge">
<title>Node8&#45;&gt;Node2</title>
<g id="a_edge8_Node000008_Node000002"><a xlink:title=" ">
<path fill="none" stroke="#63b8ff" d="M76.35,-109.98C89.1,-101.84 108.57,-89.41 123.68,-79.76"/>
<polygon fill="#63b8ff" stroke="#63b8ff" points="125.89,-82.5 132.44,-74.17 122.12,-76.6 125.89,-82.5"/>
</a>
</g>
</g>
<!-- Node9&#45;&gt;Node2 -->
<g id="edge12_Node000009_Node000002" class="edge">
<title>Node9&#45;&gt;Node2</title>
<g id="a_edge12_Node000009_Node000002"><a xlink:title=" ">
<path fill="none" stroke="#63b8ff" d="M259.32,-109.98C237.22,-101.3 202.69,-87.75 177.56,-77.88"/>
<polygon fill="#63b8ff" stroke="#63b8ff" points="178.69,-74.57 168.1,-74.17 176.13,-81.08 178.69,-74.57"/>
</a>
</g>
</g>
<!-- Node9&#45;&gt;Node10 -->
<g id="edge10_Node000009_Node000010" class="edge">
<title>Node9&#45;&gt;Node10</title>
<g id="a_edge10_Node000009_Node000010"><a xlink:title=" ">
<path fill="none" stroke="#63b8ff" d="M285.8,-109.75C289.77,-102.49 295.54,-91.95 300.45,-82.98"/>
<polygon fill="#63b8ff" stroke="#63b8ff" points="303.58,-84.54 305.31,-74.09 297.44,-81.18 303.58,-84.54"/>
</a>
</g>
</g>
<!-- Node9&#45;&gt;Node11 -->
<g id="edge11_Node000009_Node000011" class="edge">
<title>Node9&#45;&gt;Node11</title>
<g id="a_edge11_Node000009_Node000011"><a xlink:title=" ">
<path fill="none" stroke="#63b8ff" d="M305.27,-109.98C330.63,-101.09 370.58,-87.06 398.85,-77.14"/>
<polygon fill="#63b8ff" stroke="#63b8ff" points="400.03,-80.43 408.31,-73.82 397.72,-73.83 400.03,-80.43"/>
</a>
</g>
</g>
</g>
</svg>
