<?xml version="1.0" encoding="UTF-8" standalone="no"?>
<!DOCTYPE svg PUBLIC "-//W3C//DTD SVG 1.1//EN"
 "http://www.w3.org/Graphics/SVG/1.1/DTD/svg11.dtd">
<!-- Generated by graphviz version 2.43.0 (0)
 -->
<!-- Title: /home/runner/work/occ/occ/include/occ/isosurface/volume.h Pages: 1 -->
<svg width="653pt" height="280pt"
 viewBox="0.00 0.00 653.00 280.00" xmlns="http://www.w3.org/2000/svg" xmlns:xlink="http://www.w3.org/1999/xlink">
<g id="graph0" class="graph" transform="scale(1 1) rotate(0) translate(4 276)">
<title>/home/runner/work/occ/occ/include/occ/isosurface/volume.h</title>
<!-- Node1 -->
<g id="Node000001" class="node">
<title>Node1</title>
<g id="a_Node000001"><a xlink:title=" ">
<polygon fill="#999999" stroke="#666666" points="212,-272 65,-272 65,-231 212,-231 212,-272"/>
<text text-anchor="start" x="73" y="-260" font-family="Helvetica,sans-Serif" font-size="10.00">/home/runner/work/occ</text>
<text text-anchor="start" x="73" y="-249" font-family="Helvetica,sans-Serif" font-size="10.00">/occ/include/occ/isosurface</text>
<text text-anchor="middle" x="138.5" y="-238" font-family="Helvetica,sans-Serif" font-size="10.00">/volume.h</text>
</a>
</g>
</g>
<!-- Node2 -->
<g id="Node000002" class="node">
<title>Node2</title>
<g id="a_Node000002"><a xlink:title=" ">
<polygon fill="#e0e0e0" stroke="#999999" points="59,-189.5 0,-189.5 0,-170.5 59,-170.5 59,-189.5"/>
<text text-anchor="middle" x="29.5" y="-177.5" font-family="Helvetica,sans-Serif" font-size="10.00">Eigen/LU</text>
</a>
</g>
</g>
<!-- Node1&#45;&gt;Node2 -->
<g id="edge1_Node000001_Node000002" class="edge">
<title>Node1&#45;&gt;Node2</title>
<g id="a_edge1_Node000001_Node000002"><a xlink:title=" ">
<path fill="none" stroke="#63b8ff" d="M107.85,-230.96C89.95,-219.54 67.78,-205.41 51.6,-195.09"/>
<polygon fill="#63b8ff" stroke="#63b8ff" points="53.15,-191.93 42.84,-189.5 49.39,-197.83 53.15,-191.93"/>
</a>
</g>
</g>
<!-- Node3 -->
<g id="Node000003" class="node">
<title>Node3</title>
<g id="a_Node000003"><a xlink:href="volume__grid_8h.html" target="_top" xlink:title=" ">
<polygon fill="white" stroke="#666666" points="200,-195 77,-195 77,-165 200,-165 200,-195"/>
<text text-anchor="start" x="85" y="-183" font-family="Helvetica,sans-Serif" font-size="10.00">occ/geometry/volume</text>
<text text-anchor="middle" x="138.5" y="-172" font-family="Helvetica,sans-Serif" font-size="10.00">_grid.h</text>
</a>
</g>
</g>
<!-- Node1&#45;&gt;Node3 -->
<g id="edge2_Node000001_Node000003" class="edge">
<title>Node1&#45;&gt;Node3</title>
<g id="a_edge2_Node000001_Node000003"><a xlink:title=" ">
<path fill="none" stroke="#63b8ff" d="M138.5,-230.77C138.5,-222.85 138.5,-213.63 138.5,-205.3"/>
<polygon fill="#63b8ff" stroke="#63b8ff" points="142,-205.04 138.5,-195.04 135,-205.04 142,-205.04"/>
</a>
</g>
</g>
<!-- Node9 -->
<g id="Node000009" class="node">
<title>Node9</title>
<g id="a_Node000009"><a xlink:href="common_8h.html" target="_top" xlink:title=" ">
<polygon fill="white" stroke="#666666" points="477,-189.5 336,-189.5 336,-170.5 477,-170.5 477,-189.5"/>
<text text-anchor="middle" x="406.5" y="-177.5" font-family="Helvetica,sans-Serif" font-size="10.00">occ/isosurface/common.h</text>
</a>
</g>
</g>
<!-- Node1&#45;&gt;Node9 -->
<g id="edge8_Node000001_Node000009" class="edge">
<title>Node1&#45;&gt;Node9</title>
<g id="a_edge8_Node000001_Node000009"><a xlink:title=" ">
<path fill="none" stroke="#63b8ff" d="M212.09,-231.42C260.8,-218.78 322.98,-202.66 363.73,-192.09"/>
<polygon fill="#63b8ff" stroke="#63b8ff" points="364.81,-195.43 373.61,-189.53 363.05,-188.65 364.81,-195.43"/>
</a>
</g>
</g>
<!-- Node4 -->
<g id="Node000004" class="node">
<title>Node4</title>
<g id="a_Node000004"><a xlink:title=" ">
<polygon fill="#e0e0e0" stroke="#999999" points="63.5,-129 21.5,-129 21.5,-110 63.5,-110 63.5,-129"/>
<text text-anchor="middle" x="42.5" y="-117" font-family="Helvetica,sans-Serif" font-size="10.00">array</text>
</a>
</g>
</g>
<!-- Node3&#45;&gt;Node4 -->
<g id="edge3_Node000003_Node000004" class="edge">
<title>Node3&#45;&gt;Node4</title>
<g id="a_edge3_Node000003_Node000004"><a xlink:title=" ">
<path fill="none" stroke="#63b8ff" d="M115.26,-164.84C100.1,-155.6 80.39,-143.59 65.31,-134.4"/>
<polygon fill="#63b8ff" stroke="#63b8ff" points="66.96,-131.31 56.6,-129.09 63.32,-137.29 66.96,-131.31"/>
</a>
</g>
</g>
<!-- Node5 -->
<g id="Node000005" class="node">
<title>Node5</title>
<g id="a_Node000005"><a xlink:title=" ">
<polygon fill="#e0e0e0" stroke="#999999" points="139.5,-129 81.5,-129 81.5,-110 139.5,-110 139.5,-129"/>
<text text-anchor="middle" x="110.5" y="-117" font-family="Helvetica,sans-Serif" font-size="10.00">memory</text>
</a>
</g>
</g>
<!-- Node3&#45;&gt;Node5 -->
<g id="edge4_Node000003_Node000005" class="edge">
<title>Node3&#45;&gt;Node5</title>
<g id="a_edge4_Node000003_Node000005"><a xlink:title=" ">
<path fill="none" stroke="#63b8ff" d="M131.72,-164.84C127.91,-156.87 123.11,-146.84 119.04,-138.33"/>
<polygon fill="#63b8ff" stroke="#63b8ff" points="122.17,-136.77 114.7,-129.27 115.86,-139.8 122.17,-136.77"/>
</a>
</g>
</g>
<!-- Node6 -->
<g id="Node000006" class="node">
<title>Node6</title>
<g id="a_Node000006"><a xlink:href="linear__algebra_8h.html" target="_top" xlink:title=" ">
<polygon fill="white" stroke="#666666" points="229,-74 90,-74 90,-55 229,-55 229,-74"/>
<text text-anchor="middle" x="159.5" y="-62" font-family="Helvetica,sans-Serif" font-size="10.00">occ/core/linear_algebra.h</text>
</a>
</g>
</g>
<!-- Node3&#45;&gt;Node6 -->
<g id="edge5_Node000003_Node000006" class="edge">
<title>Node3&#45;&gt;Node6</title>
<g id="a_edge5_Node000003_Node000006"><a xlink:title=" ">
<path fill="none" stroke="#63b8ff" d="M141.49,-164.58C143.53,-154.6 146.26,-141.01 148.5,-129 151.3,-114.01 154.23,-96.99 156.37,-84.34"/>
<polygon fill="#63b8ff" stroke="#63b8ff" points="159.88,-84.58 158.08,-74.14 152.97,-83.42 159.88,-84.58"/>
</a>
</g>
</g>
<!-- Node7 -->
<g id="Node000007" class="node">
<title>Node7</title>
<g id="a_Node000007"><a xlink:title=" ">
<polygon fill="#e0e0e0" stroke="#999999" points="145,-19 76,-19 76,0 145,0 145,-19"/>
<text text-anchor="middle" x="110.5" y="-7" font-family="Helvetica,sans-Serif" font-size="10.00">Eigen/Core</text>
</a>
</g>
</g>
<!-- Node6&#45;&gt;Node7 -->
<g id="edge6_Node000006_Node000007" class="edge">
<title>Node6&#45;&gt;Node7</title>
<g id="a_edge6_Node000006_Node000007"><a xlink:title=" ">
<path fill="none" stroke="#63b8ff" d="M151.41,-54.75C144.34,-47.11 133.91,-35.82 125.35,-26.56"/>
<polygon fill="#63b8ff" stroke="#63b8ff" points="127.8,-24.06 118.44,-19.09 122.66,-28.81 127.8,-24.06"/>
</a>
</g>
</g>
<!-- Node8 -->
<g id="Node000008" class="node">
<title>Node8</title>
<g id="a_Node000008"><a xlink:title=" ">
<polygon fill="#e0e0e0" stroke="#999999" points="256,-19 163,-19 163,0 256,0 256,-19"/>
<text text-anchor="middle" x="209.5" y="-7" font-family="Helvetica,sans-Serif" font-size="10.00">Eigen/StdVector</text>
</a>
</g>
</g>
<!-- Node6&#45;&gt;Node8 -->
<g id="edge7_Node000006_Node000008" class="edge">
<title>Node6&#45;&gt;Node8</title>
<g id="a_edge7_Node000006_Node000008"><a xlink:title=" ">
<path fill="none" stroke="#63b8ff" d="M167.76,-54.75C174.96,-47.11 185.61,-35.82 194.35,-26.56"/>
<polygon fill="#63b8ff" stroke="#63b8ff" points="197.08,-28.76 201.4,-19.09 191.99,-23.96 197.08,-28.76"/>
</a>
</g>
</g>
<!-- Node9&#45;&gt;Node6 -->
<g id="edge14_Node000009_Node000006" class="edge">
<title>Node9&#45;&gt;Node6</title>
<g id="a_edge14_Node000009_Node000006"><a xlink:title=" ">
<path fill="none" stroke="#63b8ff" d="M379.6,-170.46C351.98,-161.37 307.99,-145.97 271.5,-129 239.22,-113.99 203.76,-93.08 181.57,-79.42"/>
<polygon fill="#63b8ff" stroke="#63b8ff" points="183.26,-76.35 172.92,-74.05 179.57,-82.3 183.26,-76.35"/>
</a>
</g>
</g>
<!-- Node10 -->
<g id="Node000010" class="node">
<title>Node10</title>
<g id="a_Node000010"><a xlink:href="interpolator_8h.html" target="_top" xlink:title=" ">
<polygon fill="white" stroke="#666666" points="406,-129 281,-129 281,-110 406,-110 406,-129"/>
<text text-anchor="middle" x="343.5" y="-117" font-family="Helvetica,sans-Serif" font-size="10.00">occ/core/interpolator.h</text>
</a>
</g>
</g>
<!-- Node9&#45;&gt;Node10 -->
<g id="edge9_Node000009_Node000010" class="edge">
<title>Node9&#45;&gt;Node10</title>
<g id="a_edge9_Node000009_Node000010"><a xlink:title=" ">
<path fill="none" stroke="#63b8ff" d="M397.2,-170.37C387.53,-161.38 372.16,-147.11 360.34,-136.14"/>
<polygon fill="#63b8ff" stroke="#63b8ff" points="362.54,-133.41 352.83,-129.17 357.78,-138.54 362.54,-133.41"/>
</a>
</g>
</g>
<!-- Node14 -->
<g id="Node000014" class="node">
<title>Node14</title>
<g id="a_Node000014"><a xlink:href="units_8h.html" target="_top" xlink:title=" ">
<polygon fill="white" stroke="#666666" points="517,-129 424,-129 424,-110 517,-110 517,-129"/>
<text text-anchor="middle" x="470.5" y="-117" font-family="Helvetica,sans-Serif" font-size="10.00">occ/core/units.h</text>
</a>
</g>
</g>
<!-- Node9&#45;&gt;Node14 -->
<g id="edge15_Node000009_Node000014" class="edge">
<title>Node9&#45;&gt;Node14</title>
<g id="a_edge15_Node000009_Node000014"><a xlink:title=" ">
<path fill="none" stroke="#63b8ff" d="M415.94,-170.37C425.77,-161.38 441.39,-147.11 453.39,-136.14"/>
<polygon fill="#63b8ff" stroke="#63b8ff" points="456,-138.5 461.02,-129.17 451.28,-133.33 456,-138.5"/>
</a>
</g>
</g>
<!-- Node16 -->
<g id="Node000016" class="node">
<title>Node16</title>
<g id="a_Node000016"><a xlink:title=" ">
<polygon fill="#e0e0e0" stroke="#999999" points="580,-129 535,-129 535,-110 580,-110 580,-129"/>
<text text-anchor="middle" x="557.5" y="-117" font-family="Helvetica,sans-Serif" font-size="10.00">utility</text>
</a>
</g>
</g>
<!-- Node9&#45;&gt;Node16 -->
<g id="edge18_Node000009_Node000016" class="edge">
<title>Node9&#45;&gt;Node16</title>
<g id="a_edge18_Node000009_Node000016"><a xlink:title=" ">
<path fill="none" stroke="#63b8ff" d="M428.46,-170.49C454.18,-160.53 496.98,-143.95 526.18,-132.63"/>
<polygon fill="#63b8ff" stroke="#63b8ff" points="527.46,-135.89 535.52,-129.02 524.93,-129.37 527.46,-135.89"/>
</a>
</g>
</g>
<!-- Node17 -->
<g id="Node000017" class="node">
<title>Node17</title>
<g id="a_Node000017"><a xlink:title=" ">
<polygon fill="#e0e0e0" stroke="#999999" points="645,-129 598,-129 598,-110 645,-110 645,-129"/>
<text text-anchor="middle" x="621.5" y="-117" font-family="Helvetica,sans-Serif" font-size="10.00">vector</text>
</a>
</g>
</g>
<!-- Node9&#45;&gt;Node17 -->
<g id="edge19_Node000009_Node000017" class="edge">
<title>Node9&#45;&gt;Node17</title>
<g id="a_edge19_Node000009_Node000017"><a xlink:title=" ">
<path fill="none" stroke="#63b8ff" d="M437.76,-170.49C477.81,-159.6 546.94,-140.79 588.03,-129.61"/>
<polygon fill="#63b8ff" stroke="#63b8ff" points="589.1,-132.94 597.83,-126.94 587.26,-126.19 589.1,-132.94"/>
</a>
</g>
</g>
<!-- Node10&#45;&gt;Node6 -->
<g id="edge12_Node000010_Node000006" class="edge">
<title>Node10&#45;&gt;Node6</title>
<g id="a_edge12_Node000010_Node000006"><a xlink:title=" ">
<path fill="none" stroke="#63b8ff" d="M313.94,-109.98C282.78,-101.01 233.53,-86.82 199.04,-76.89"/>
<polygon fill="#63b8ff" stroke="#63b8ff" points="199.87,-73.49 189.29,-74.08 197.93,-80.21 199.87,-73.49"/>
</a>
</g>
</g>
<!-- Node11 -->
<g id="Node000011" class="node">
<title>Node11</title>
<g id="a_Node000011"><a xlink:title=" ">
<polygon fill="#e0e0e0" stroke="#999999" points="502,-74 455,-74 455,-55 502,-55 502,-74"/>
<text text-anchor="middle" x="478.5" y="-62" font-family="Helvetica,sans-Serif" font-size="10.00">cmath</text>
</a>
</g>
</g>
<!-- Node10&#45;&gt;Node11 -->
<g id="edge10_Node000010_Node000011" class="edge">
<title>Node10&#45;&gt;Node11</title>
<g id="a_edge10_Node000010_Node000011"><a xlink:title=" ">
<path fill="none" stroke="#63b8ff" d="M365.19,-109.98C387.3,-101.3 421.82,-87.75 446.95,-77.88"/>
<polygon fill="#63b8ff" stroke="#63b8ff" points="448.39,-81.08 456.42,-74.17 445.83,-74.57 448.39,-81.08"/>
</a>
</g>
</g>
<!-- Node12 -->
<g id="Node000012" class="node">
<title>Node12</title>
<g id="a_Node000012"><a xlink:title=" ">
<polygon fill="#e0e0e0" stroke="#999999" points="314,-74 247,-74 247,-55 314,-55 314,-74"/>
<text text-anchor="middle" x="280.5" y="-62" font-family="Helvetica,sans-Serif" font-size="10.00">fmt/core.h</text>
</a>
</g>
</g>
<!-- Node10&#45;&gt;Node12 -->
<g id="edge11_Node000010_Node000012" class="edge">
<title>Node10&#45;&gt;Node12</title>
<g id="a_edge11_Node000010_Node000012"><a xlink:title=" ">
<path fill="none" stroke="#63b8ff" d="M333.38,-109.98C324.06,-102.15 310.03,-90.34 298.76,-80.86"/>
<polygon fill="#63b8ff" stroke="#63b8ff" points="300.71,-77.93 290.81,-74.17 296.21,-83.29 300.71,-77.93"/>
</a>
</g>
</g>
<!-- Node13 -->
<g id="Node000013" class="node">
<title>Node13</title>
<g id="a_Node000013"><a xlink:href="macros_8h.html" target="_top" xlink:title=" ">
<polygon fill="white" stroke="#666666" points="437,-74 332,-74 332,-55 437,-55 437,-74"/>
<text text-anchor="middle" x="384.5" y="-62" font-family="Helvetica,sans-Serif" font-size="10.00">occ/core/macros.h</text>
</a>
</g>
</g>
<!-- Node10&#45;&gt;Node13 -->
<g id="edge13_Node000010_Node000013" class="edge">
<title>Node10&#45;&gt;Node13</title>
<g id="a_edge13_Node000010_Node000013"><a xlink:title=" ">
<path fill="none" stroke="#63b8ff" d="M350.27,-109.75C356.06,-102.26 364.56,-91.28 371.64,-82.13"/>
<polygon fill="#63b8ff" stroke="#63b8ff" points="374.51,-84.14 377.86,-74.09 368.97,-79.86 374.51,-84.14"/>
</a>
</g>
</g>
<!-- Node14&#45;&gt;Node11 -->
<g id="edge16_Node000014_Node000011" class="edge">
<title>Node14&#45;&gt;Node11</title>
<g id="a_edge16_Node000014_Node000011"><a xlink:title=" ">
<path fill="none" stroke="#63b8ff" d="M471.82,-109.75C472.87,-102.8 474.37,-92.85 475.69,-84.13"/>
<polygon fill="#63b8ff" stroke="#63b8ff" points="479.17,-84.5 477.2,-74.09 472.25,-83.45 479.17,-84.5"/>
</a>
</g>
</g>
<!-- Node15 -->
<g id="Node000015" class="node">
<title>Node15</title>
<g id="a_Node000015"><a xlink:href="constants_8h.html" target="_top" xlink:title=" ">
<polygon fill="white" stroke="#666666" points="636.5,-74 520.5,-74 520.5,-55 636.5,-55 636.5,-74"/>
<text text-anchor="middle" x="578.5" y="-62" font-family="Helvetica,sans-Serif" font-size="10.00">occ/core/constants.h</text>
</a>
</g>
</g>
<!-- Node14&#45;&gt;Node15 -->
<g id="edge17_Node000014_Node000015" class="edge">
<title>Node14&#45;&gt;Node15</title>
<g id="a_edge17_Node000014_Node000015"><a xlink:title=" ">
<path fill="none" stroke="#63b8ff" d="M487.85,-109.98C505.07,-101.54 531.7,-88.47 551.65,-78.68"/>
<polygon fill="#63b8ff" stroke="#63b8ff" points="553.4,-81.72 560.83,-74.17 550.31,-75.43 553.4,-81.72"/>
</a>
</g>
</g>
</g>
</svg>
