<?xml version="1.0" encoding="UTF-8" standalone="no"?>
<!DOCTYPE svg PUBLIC "-//W3C//DTD SVG 1.1//EN"
 "http://www.w3.org/Graphics/SVG/1.1/DTD/svg11.dtd">
<!-- Generated by graphviz version 2.43.0 (0)
 -->
<!-- Title: /home/runner/work/occ/occ/include/occ/dft/voronoi_charges.h Pages: 1 -->
<svg width="1653pt" height="423pt"
 viewBox="0.00 0.00 1652.85 423.00" xmlns="http://www.w3.org/2000/svg" xmlns:xlink="http://www.w3.org/1999/xlink">
<g id="graph0" class="graph" transform="scale(1 1) rotate(0) translate(4 419)">
<title>/home/runner/work/occ/occ/include/occ/dft/voronoi_charges.h</title>
<!-- Node1 -->
<g id="Node000001" class="node">
<title>Node1</title>
<g id="a_Node000001"><a xlink:title=" ">
<polygon fill="#999999" stroke="#666666" points="836,-415 708,-415 708,-374 836,-374 836,-415"/>
<text text-anchor="start" x="716" y="-403" font-family="Helvetica,sans-Serif" font-size="10.00">/home/runner/work/occ</text>
<text text-anchor="start" x="716" y="-392" font-family="Helvetica,sans-Serif" font-size="10.00">/occ/include/occ/dft</text>
<text text-anchor="middle" x="772" y="-381" font-family="Helvetica,sans-Serif" font-size="10.00">/voronoi_charges.h</text>
</a>
</g>
</g>
<!-- Node2 -->
<g id="Node000002" class="node">
<title>Node2</title>
<g id="a_Node000002"><a xlink:href="linear__algebra_8h.html" target="_top" xlink:title=" ">
<polygon fill="white" stroke="#666666" points="1049.5,-74 910.5,-74 910.5,-55 1049.5,-55 1049.5,-74"/>
<text text-anchor="middle" x="980" y="-62" font-family="Helvetica,sans-Serif" font-size="10.00">occ/core/linear_algebra.h</text>
</a>
</g>
</g>
<!-- Node1&#45;&gt;Node2 -->
<g id="edge1_Node000001_Node000002" class="edge">
<title>Node1&#45;&gt;Node2</title>
<g id="a_edge1_Node000001_Node000002"><a xlink:title=" ">
<path fill="none" stroke="#63b8ff" d="M737.29,-373.96C701.85,-351.15 652,-309.85 652,-258 652,-258 652,-258 652,-190 652,-146.34 671.95,-133.09 709,-110 740.18,-90.57 832.01,-78.41 900.18,-71.81"/>
<polygon fill="#63b8ff" stroke="#63b8ff" points="900.85,-75.26 910.48,-70.83 900.19,-68.29 900.85,-75.26"/>
</a>
</g>
</g>
<!-- Node6 -->
<g id="Node000006" class="node">
<title>Node6</title>
<g id="a_Node000006"><a xlink:href="numint_2molecular__grid_8h.html" target="_top" xlink:title=" ">
<polygon fill="white" stroke="#666666" points="612,-338 490,-338 490,-308 612,-308 612,-338"/>
<text text-anchor="start" x="498" y="-326" font-family="Helvetica,sans-Serif" font-size="10.00">occ/numint/molecular</text>
<text text-anchor="middle" x="551" y="-315" font-family="Helvetica,sans-Serif" font-size="10.00">_grid.h</text>
</a>
</g>
</g>
<!-- Node1&#45;&gt;Node6 -->
<g id="edge5_Node000001_Node000006" class="edge">
<title>Node1&#45;&gt;Node6</title>
<g id="a_edge5_Node000001_Node000006"><a xlink:title=" ">
<path fill="none" stroke="#63b8ff" d="M709.85,-373.96C676.88,-363.59 636.75,-350.97 605.07,-341"/>
<polygon fill="#63b8ff" stroke="#63b8ff" points="606.12,-337.67 595.53,-338 604.02,-344.34 606.12,-337.67"/>
</a>
</g>
</g>
<!-- Node10 -->
<g id="Node000010" class="node">
<title>Node10</title>
<g id="a_Node000010"><a xlink:href="grid__settings_8h.html" target="_top" xlink:title=" ">
<polygon fill="white" stroke="#666666" points="838,-134.5 718,-134.5 718,-115.5 838,-115.5 838,-134.5"/>
<text text-anchor="middle" x="778" y="-122.5" font-family="Helvetica,sans-Serif" font-size="10.00">occ/io/grid_settings.h</text>
</a>
</g>
</g>
<!-- Node1&#45;&gt;Node10 -->
<g id="edge44_Node000001_Node000010" class="edge">
<title>Node1&#45;&gt;Node10</title>
<g id="a_edge44_Node000001_Node000010"><a xlink:title=" ">
<path fill="none" stroke="#63b8ff" d="M783.68,-373.72C796.75,-350.35 817.1,-309.85 825,-272 833.71,-230.23 840.72,-215.67 825,-176 819.53,-162.19 808.24,-149.97 798.1,-141.07"/>
<polygon fill="#63b8ff" stroke="#63b8ff" points="800.28,-138.34 790.34,-134.68 795.83,-143.74 800.28,-138.34"/>
</a>
</g>
</g>
<!-- Node13 -->
<g id="Node000013" class="node">
<title>Node13</title>
<g id="a_Node000013"><a xlink:title=" ">
<polygon fill="#e0e0e0" stroke="#999999" points="455.5,-74 408.5,-74 408.5,-55 455.5,-55 455.5,-74"/>
<text text-anchor="middle" x="432" y="-62" font-family="Helvetica,sans-Serif" font-size="10.00">vector</text>
</a>
</g>
</g>
<!-- Node1&#45;&gt;Node13 -->
<g id="edge60_Node000001_Node000013" class="edge">
<title>Node1&#45;&gt;Node13</title>
<g id="a_edge60_Node000001_Node000013"><a xlink:title=" ">
<path fill="none" stroke="#63b8ff" d="M707.84,-388.99C522.59,-375.12 0,-329.65 0,-258 0,-258 0,-258 0,-190 0,-128.83 55.17,-132.65 112,-110 210.55,-70.73 338.16,-65.19 398.09,-64.98"/>
<polygon fill="#63b8ff" stroke="#63b8ff" points="398.13,-68.48 408.13,-65 398.14,-61.48 398.13,-68.48"/>
</a>
</g>
</g>
<!-- Node20 -->
<g id="Node000020" class="node">
<title>Node20</title>
<g id="a_Node000020"><a xlink:href="shell_8h.html" target="_top" xlink:title=" ">
<polygon fill="white" stroke="#666666" points="815.5,-266.5 728.5,-266.5 728.5,-247.5 815.5,-247.5 815.5,-266.5"/>
<text text-anchor="middle" x="772" y="-254.5" font-family="Helvetica,sans-Serif" font-size="10.00">occ/gto/shell.h</text>
</a>
</g>
</g>
<!-- Node1&#45;&gt;Node20 -->
<g id="edge54_Node000001_Node000020" class="edge">
<title>Node1&#45;&gt;Node20</title>
<g id="a_edge54_Node000001_Node000020"><a xlink:title=" ">
<path fill="none" stroke="#63b8ff" d="M772,-373.8C772,-347.83 772,-302.45 772,-276.89"/>
<polygon fill="#63b8ff" stroke="#63b8ff" points="775.5,-276.69 772,-266.69 768.5,-276.69 775.5,-276.69"/>
</a>
</g>
</g>
<!-- Node29 -->
<g id="Node000029" class="node">
<title>Node29</title>
<g id="a_Node000029"><a xlink:href="mo_8h.html" target="_top" xlink:title=" ">
<polygon fill="white" stroke="#666666" points="1003,-332.5 923,-332.5 923,-313.5 1003,-313.5 1003,-332.5"/>
<text text-anchor="middle" x="963" y="-320.5" font-family="Helvetica,sans-Serif" font-size="10.00">occ/qm/mo.h</text>
</a>
</g>
</g>
<!-- Node1&#45;&gt;Node29 -->
<g id="edge45_Node000001_Node000029" class="edge">
<title>Node1&#45;&gt;Node29</title>
<g id="a_edge45_Node000001_Node000029"><a xlink:title=" ">
<path fill="none" stroke="#63b8ff" d="M825.71,-373.96C859.27,-361.74 901.4,-346.41 930.08,-335.98"/>
<polygon fill="#63b8ff" stroke="#63b8ff" points="931.43,-339.21 939.63,-332.5 929.04,-332.63 931.43,-339.21"/>
</a>
</g>
</g>
<!-- Node33 -->
<g id="Node000033" class="node">
<title>Node33</title>
<g id="a_Node000033"><a xlink:href="slaterbasis_8h.html" target="_top" xlink:title=" ">
<polygon fill="white" stroke="#666666" points="1213.5,-200.5 1084.5,-200.5 1084.5,-181.5 1213.5,-181.5 1213.5,-200.5"/>
<text text-anchor="middle" x="1149" y="-188.5" font-family="Helvetica,sans-Serif" font-size="10.00">occ/slater/slaterbasis.h</text>
</a>
</g>
</g>
<!-- Node1&#45;&gt;Node33 -->
<g id="edge55_Node000001_Node000033" class="edge">
<title>Node1&#45;&gt;Node33</title>
<g id="a_edge55_Node000001_Node000033"><a xlink:title=" ">
<path fill="none" stroke="#63b8ff" d="M836.1,-388.91C886.71,-382.96 957.61,-369.3 1012,-338 1069.61,-304.85 1117.59,-239.76 1138.19,-208.95"/>
<polygon fill="#63b8ff" stroke="#63b8ff" points="1141.13,-210.84 1143.68,-200.56 1135.28,-207.01 1141.13,-210.84"/>
</a>
</g>
</g>
<!-- Node3 -->
<g id="Node000003" class="node">
<title>Node3</title>
<g id="a_Node000003"><a xlink:title=" ">
<polygon fill="#e0e0e0" stroke="#999999" points="923.5,-19 846.5,-19 846.5,0 923.5,0 923.5,-19"/>
<text text-anchor="middle" x="885" y="-7" font-family="Helvetica,sans-Serif" font-size="10.00">Eigen/Dense</text>
</a>
</g>
</g>
<!-- Node2&#45;&gt;Node3 -->
<g id="edge2_Node000002_Node000003" class="edge">
<title>Node2&#45;&gt;Node3</title>
<g id="a_edge2_Node000002_Node000003"><a xlink:title=" ">
<path fill="none" stroke="#63b8ff" d="M964.74,-54.98C949.87,-46.69 927.02,-33.94 909.58,-24.22"/>
<polygon fill="#63b8ff" stroke="#63b8ff" points="910.98,-20.99 900.54,-19.17 907.57,-27.1 910.98,-20.99"/>
</a>
</g>
</g>
<!-- Node4 -->
<g id="Node000004" class="node">
<title>Node4</title>
<g id="a_Node000004"><a xlink:title=" ">
<polygon fill="#e0e0e0" stroke="#999999" points="1034.5,-19 941.5,-19 941.5,0 1034.5,0 1034.5,-19"/>
<text text-anchor="middle" x="988" y="-7" font-family="Helvetica,sans-Serif" font-size="10.00">Eigen/StdVector</text>
</a>
</g>
</g>
<!-- Node2&#45;&gt;Node4 -->
<g id="edge3_Node000002_Node000004" class="edge">
<title>Node2&#45;&gt;Node4</title>
<g id="a_edge3_Node000002_Node000004"><a xlink:title=" ">
<path fill="none" stroke="#63b8ff" d="M981.32,-54.75C982.37,-47.8 983.87,-37.85 985.19,-29.13"/>
<polygon fill="#63b8ff" stroke="#63b8ff" points="988.67,-29.5 986.7,-19.09 981.75,-28.45 988.67,-29.5"/>
</a>
</g>
</g>
<!-- Node5 -->
<g id="Node000005" class="node">
<title>Node5</title>
<g id="a_Node000005"><a xlink:title=" ">
<polygon fill="#e0e0e0" stroke="#999999" points="1127.5,-19 1060.5,-19 1060.5,0 1127.5,0 1127.5,-19"/>
<text text-anchor="middle" x="1094" y="-7" font-family="Helvetica,sans-Serif" font-size="10.00">fmt/core.h</text>
</a>
</g>
</g>
<!-- Node2&#45;&gt;Node5 -->
<g id="edge4_Node000002_Node000005" class="edge">
<title>Node2&#45;&gt;Node5</title>
<g id="a_edge4_Node000002_Node000005"><a xlink:title=" ">
<path fill="none" stroke="#63b8ff" d="M998.32,-54.98C1016.66,-46.46 1045.11,-33.23 1066.23,-23.41"/>
<polygon fill="#63b8ff" stroke="#63b8ff" points="1067.76,-26.56 1075.35,-19.17 1064.81,-20.21 1067.76,-26.56"/>
</a>
</g>
</g>
<!-- Node7 -->
<g id="Node000007" class="node">
<title>Node7</title>
<g id="a_Node000007"><a xlink:title=" ">
<polygon fill="#e0e0e0" stroke="#999999" points="580,-266.5 522,-266.5 522,-247.5 580,-247.5 580,-266.5"/>
<text text-anchor="middle" x="551" y="-254.5" font-family="Helvetica,sans-Serif" font-size="10.00">memory</text>
</a>
</g>
</g>
<!-- Node6&#45;&gt;Node7 -->
<g id="edge6_Node000006_Node000007" class="edge">
<title>Node6&#45;&gt;Node7</title>
<g id="a_edge6_Node000006_Node000007"><a xlink:title=" ">
<path fill="none" stroke="#63b8ff" d="M551,-307.8C551,-298.7 551,-286.79 551,-276.9"/>
<polygon fill="#63b8ff" stroke="#63b8ff" points="554.5,-276.84 551,-266.84 547.5,-276.84 554.5,-276.84"/>
</a>
</g>
</g>
<!-- Node8 -->
<g id="Node000008" class="node">
<title>Node8</title>
<g id="a_Node000008"><a xlink:href="numint_2grid__types_8h.html" target="_top" xlink:title=" ">
<polygon fill="white" stroke="#666666" points="548,-200.5 414,-200.5 414,-181.5 548,-181.5 548,-200.5"/>
<text text-anchor="middle" x="481" y="-188.5" font-family="Helvetica,sans-Serif" font-size="10.00">occ/numint/grid_types.h</text>
</a>
</g>
</g>
<!-- Node6&#45;&gt;Node8 -->
<g id="edge7_Node000006_Node000008" class="edge">
<title>Node6&#45;&gt;Node8</title>
<g id="a_edge7_Node000006_Node000008"><a xlink:title=" ">
<path fill="none" stroke="#63b8ff" d="M538.59,-307.85C530.57,-298.21 520.31,-284.9 513,-272 501.63,-251.93 492.35,-227 486.76,-210.36"/>
<polygon fill="#63b8ff" stroke="#63b8ff" points="490.06,-209.18 483.64,-200.75 483.4,-211.35 490.06,-209.18"/>
</a>
</g>
</g>
<!-- Node14 -->
<g id="Node000014" class="node">
<title>Node14</title>
<g id="a_Node000014"><a xlink:href="numint_2molecular__grid__points_8h.html" target="_top" xlink:title=" ">
<polygon fill="white" stroke="#666666" points="307,-272 185,-272 185,-242 307,-242 307,-272"/>
<text text-anchor="start" x="193" y="-260" font-family="Helvetica,sans-Serif" font-size="10.00">occ/numint/molecular</text>
<text text-anchor="middle" x="246" y="-249" font-family="Helvetica,sans-Serif" font-size="10.00">_grid_points.h</text>
</a>
</g>
</g>
<!-- Node6&#45;&gt;Node14 -->
<g id="edge14_Node000006_Node000014" class="edge">
<title>Node6&#45;&gt;Node14</title>
<g id="a_edge14_Node000006_Node000014"><a xlink:title=" ">
<path fill="none" stroke="#63b8ff" d="M489.65,-309.13C439.8,-298.67 369.44,-283.9 317.13,-272.93"/>
<polygon fill="#63b8ff" stroke="#63b8ff" points="317.76,-269.48 307.26,-270.85 316.32,-276.33 317.76,-269.48"/>
</a>
</g>
</g>
<!-- Node6&#45;&gt;Node20 -->
<g id="edge24_Node000006_Node000020" class="edge">
<title>Node6&#45;&gt;Node20</title>
<g id="a_edge24_Node000006_Node000020"><a xlink:title=" ">
<path fill="none" stroke="#63b8ff" d="M599.5,-307.95C639.45,-296.38 695.39,-280.18 732.62,-269.41"/>
<polygon fill="#63b8ff" stroke="#63b8ff" points="733.96,-272.66 742.59,-266.52 732.01,-265.94 733.96,-272.66"/>
</a>
</g>
</g>
<!-- Node8&#45;&gt;Node2 -->
<g id="edge9_Node000008_Node000002" class="edge">
<title>Node8&#45;&gt;Node2</title>
<g id="a_edge9_Node000008_Node000002"><a xlink:title=" ">
<path fill="none" stroke="#63b8ff" d="M494.19,-181.29C520.38,-164.45 581.31,-127.56 638,-110 725.22,-82.99 829.89,-72.37 900.27,-68.19"/>
<polygon fill="#63b8ff" stroke="#63b8ff" points="900.61,-71.68 910.4,-67.62 900.22,-64.69 900.61,-71.68"/>
</a>
</g>
</g>
<!-- Node9 -->
<g id="Node000009" class="node">
<title>Node9</title>
<g id="a_Node000009"><a xlink:title=" ">
<polygon fill="#e0e0e0" stroke="#999999" points="510,-134.5 460,-134.5 460,-115.5 510,-115.5 510,-134.5"/>
<text text-anchor="middle" x="485" y="-122.5" font-family="Helvetica,sans-Serif" font-size="10.00">cstdint</text>
</a>
</g>
</g>
<!-- Node8&#45;&gt;Node9 -->
<g id="edge8_Node000008_Node000009" class="edge">
<title>Node8&#45;&gt;Node9</title>
<g id="a_edge8_Node000008_Node000009"><a xlink:title=" ">
<path fill="none" stroke="#63b8ff" d="M481.54,-181.37C482.12,-172.07 483.06,-156.98 483.82,-144.9"/>
<polygon fill="#63b8ff" stroke="#63b8ff" points="487.31,-145.1 484.44,-134.91 480.33,-144.67 487.31,-145.1"/>
</a>
</g>
</g>
<!-- Node8&#45;&gt;Node10 -->
<g id="edge10_Node000008_Node000010" class="edge">
<title>Node8&#45;&gt;Node10</title>
<g id="a_edge10_Node000008_Node000010"><a xlink:title=" ">
<path fill="none" stroke="#63b8ff" d="M520.75,-181.44C574.43,-169.87 670.08,-149.26 728.4,-136.69"/>
<polygon fill="#63b8ff" stroke="#63b8ff" points="729.45,-140.04 738.49,-134.51 727.98,-133.2 729.45,-140.04"/>
</a>
</g>
</g>
<!-- Node8&#45;&gt;Node13 -->
<g id="edge13_Node000008_Node000013" class="edge">
<title>Node8&#45;&gt;Node13</title>
<g id="a_edge13_Node000008_Node000013"><a xlink:title=" ">
<path fill="none" stroke="#63b8ff" d="M474.64,-181.21C467.9,-171.53 457.39,-155.32 451,-140 443.39,-121.74 438.22,-99.65 435.22,-84.29"/>
<polygon fill="#63b8ff" stroke="#63b8ff" points="438.58,-83.23 433.34,-74.02 431.7,-84.49 438.58,-83.23"/>
</a>
</g>
</g>
<!-- Node11 -->
<g id="Node000011" class="node">
<title>Node11</title>
<g id="a_Node000011"><a xlink:title=" ">
<polygon fill="#e0e0e0" stroke="#999999" points="711,-74 669,-74 669,-55 711,-55 711,-74"/>
<text text-anchor="middle" x="690" y="-62" font-family="Helvetica,sans-Serif" font-size="10.00">array</text>
</a>
</g>
</g>
<!-- Node10&#45;&gt;Node11 -->
<g id="edge11_Node000010_Node000011" class="edge">
<title>Node10&#45;&gt;Node11</title>
<g id="a_edge11_Node000010_Node000011"><a xlink:title=" ">
<path fill="none" stroke="#63b8ff" d="M765.02,-115.37C750.98,-106.04 728.37,-91.01 711.64,-79.88"/>
<polygon fill="#63b8ff" stroke="#63b8ff" points="713.3,-76.79 703.04,-74.17 709.43,-82.62 713.3,-76.79"/>
</a>
</g>
</g>
<!-- Node12 -->
<g id="Node000012" class="node">
<title>Node12</title>
<g id="a_Node000012"><a xlink:title=" ">
<polygon fill="#e0e0e0" stroke="#999999" points="1166,-74 1122,-74 1122,-55 1166,-55 1166,-74"/>
<text text-anchor="middle" x="1144" y="-62" font-family="Helvetica,sans-Serif" font-size="10.00">string</text>
</a>
</g>
</g>
<!-- Node10&#45;&gt;Node12 -->
<g id="edge12_Node000010_Node000012" class="edge">
<title>Node10&#45;&gt;Node12</title>
<g id="a_edge12_Node000010_Node000012"><a xlink:title=" ">
<path fill="none" stroke="#63b8ff" d="M819.02,-115.45C828.52,-113.57 838.6,-111.65 848,-110 943.5,-93.28 1057.01,-77.3 1111.56,-69.86"/>
<polygon fill="#63b8ff" stroke="#63b8ff" points="1112.22,-73.3 1121.66,-68.48 1111.28,-66.36 1112.22,-73.3"/>
</a>
</g>
</g>
<!-- Node14&#45;&gt;Node8 -->
<g id="edge15_Node000014_Node000008" class="edge">
<title>Node14&#45;&gt;Node8</title>
<g id="a_edge15_Node000014_Node000008"><a xlink:title=" ">
<path fill="none" stroke="#63b8ff" d="M297.57,-241.95C340.33,-230.31 400.3,-213.98 439.88,-203.2"/>
<polygon fill="#63b8ff" stroke="#63b8ff" points="441,-206.52 449.73,-200.52 439.16,-199.77 441,-206.52"/>
</a>
</g>
</g>
<!-- Node14&#45;&gt;Node13 -->
<g id="edge23_Node000014_Node000013" class="edge">
<title>Node14&#45;&gt;Node13</title>
<g id="a_edge23_Node000014_Node000013"><a xlink:title=" ">
<path fill="none" stroke="#63b8ff" d="M184.96,-251.5C116.81,-244.04 20.56,-224.72 57,-176 98.66,-120.29 314.03,-82.95 398.22,-70.28"/>
<polygon fill="#63b8ff" stroke="#63b8ff" points="398.9,-73.72 408.28,-68.79 397.87,-66.79 398.9,-73.72"/>
</a>
</g>
</g>
<!-- Node15 -->
<g id="Node000015" class="node">
<title>Node15</title>
<g id="a_Node000015"><a xlink:href="dft_2spatial__grid__hierarchy_8h.html" target="_top" xlink:title=" ">
<polygon fill="white" stroke="#666666" points="395.5,-206 286.5,-206 286.5,-176 395.5,-176 395.5,-206"/>
<text text-anchor="start" x="294.5" y="-194" font-family="Helvetica,sans-Serif" font-size="10.00">occ/dft/spatial_grid</text>
<text text-anchor="middle" x="341" y="-183" font-family="Helvetica,sans-Serif" font-size="10.00">_hierarchy.h</text>
</a>
</g>
</g>
<!-- Node14&#45;&gt;Node15 -->
<g id="edge16_Node000014_Node000015" class="edge">
<title>Node14&#45;&gt;Node15</title>
<g id="a_edge16_Node000014_Node000015"><a xlink:title=" ">
<path fill="none" stroke="#63b8ff" d="M267.08,-241.8C280.12,-233.01 297.05,-221.61 311.42,-211.93"/>
<polygon fill="#63b8ff" stroke="#63b8ff" points="313.64,-214.65 319.98,-206.16 309.73,-208.85 313.64,-214.65"/>
</a>
</g>
</g>
<!-- Node17 -->
<g id="Node000017" class="node">
<title>Node17</title>
<g id="a_Node000017"><a xlink:title=" ">
<polygon fill="#e0e0e0" stroke="#999999" points="122,-200.5 66,-200.5 66,-181.5 122,-181.5 122,-200.5"/>
<text text-anchor="middle" x="94" y="-188.5" font-family="Helvetica,sans-Serif" font-size="10.00">optional</text>
</a>
</g>
</g>
<!-- Node14&#45;&gt;Node17 -->
<g id="edge20_Node000014_Node000017" class="edge">
<title>Node14&#45;&gt;Node17</title>
<g id="a_edge20_Node000014_Node000017"><a xlink:title=" ">
<path fill="none" stroke="#63b8ff" d="M212.64,-241.95C186.1,-230.78 149.31,-215.29 123.76,-204.53"/>
<polygon fill="#63b8ff" stroke="#63b8ff" points="124.8,-201.17 114.23,-200.52 122.09,-207.62 124.8,-201.17"/>
</a>
</g>
</g>
<!-- Node18 -->
<g id="Node000018" class="node">
<title>Node18</title>
<g id="a_Node000018"><a xlink:title=" ">
<polygon fill="#e0e0e0" stroke="#999999" points="205.5,-200.5 140.5,-200.5 140.5,-181.5 205.5,-181.5 205.5,-200.5"/>
<text text-anchor="middle" x="173" y="-188.5" font-family="Helvetica,sans-Serif" font-size="10.00">stdexcept</text>
</a>
</g>
</g>
<!-- Node14&#45;&gt;Node18 -->
<g id="edge21_Node000014_Node000018" class="edge">
<title>Node14&#45;&gt;Node18</title>
<g id="a_edge21_Node000014_Node000018"><a xlink:title=" ">
<path fill="none" stroke="#63b8ff" d="M229.8,-241.8C218.2,-231.62 202.58,-217.93 190.66,-207.48"/>
<polygon fill="#63b8ff" stroke="#63b8ff" points="192.91,-204.8 183.09,-200.84 188.3,-210.07 192.91,-204.8"/>
</a>
</g>
</g>
<!-- Node19 -->
<g id="Node000019" class="node">
<title>Node19</title>
<g id="a_Node000019"><a xlink:title=" ">
<polygon fill="#e0e0e0" stroke="#999999" points="268.5,-200.5 223.5,-200.5 223.5,-181.5 268.5,-181.5 268.5,-200.5"/>
<text text-anchor="middle" x="246" y="-188.5" font-family="Helvetica,sans-Serif" font-size="10.00">utility</text>
</a>
</g>
</g>
<!-- Node14&#45;&gt;Node19 -->
<g id="edge22_Node000014_Node000019" class="edge">
<title>Node14&#45;&gt;Node19</title>
<g id="a_edge22_Node000014_Node000019"><a xlink:title=" ">
<path fill="none" stroke="#63b8ff" d="M246,-241.8C246,-232.7 246,-220.79 246,-210.9"/>
<polygon fill="#63b8ff" stroke="#63b8ff" points="249.5,-210.84 246,-200.84 242.5,-210.84 249.5,-210.84"/>
</a>
</g>
</g>
<!-- Node16 -->
<g id="Node000016" class="node">
<title>Node16</title>
<g id="a_Node000016"><a xlink:href="qm_2spatial__grid__hierarchy_8h.html" target="_top" xlink:title=" ">
<polygon fill="white" stroke="#666666" points="404,-140 292,-140 292,-110 404,-110 404,-140"/>
<text text-anchor="start" x="300" y="-128" font-family="Helvetica,sans-Serif" font-size="10.00">occ/qm/spatial_grid</text>
<text text-anchor="middle" x="348" y="-117" font-family="Helvetica,sans-Serif" font-size="10.00">_hierarchy.h</text>
</a>
</g>
</g>
<!-- Node15&#45;&gt;Node16 -->
<g id="edge17_Node000015_Node000016" class="edge">
<title>Node15&#45;&gt;Node16</title>
<g id="a_edge17_Node000015_Node000016"><a xlink:title=" ">
<path fill="none" stroke="#63b8ff" d="M342.55,-175.8C343.38,-168.26 344.41,-158.78 345.36,-150.13"/>
<polygon fill="#63b8ff" stroke="#63b8ff" points="348.84,-150.49 346.45,-140.16 341.88,-149.72 348.84,-150.49"/>
</a>
</g>
</g>
<!-- Node16&#45;&gt;Node2 -->
<g id="edge18_Node000016_Node000002" class="edge">
<title>Node16&#45;&gt;Node2</title>
<g id="a_edge18_Node000016_Node000002"><a xlink:title=" ">
<path fill="none" stroke="#63b8ff" d="M404.07,-115.85C419.28,-113.78 435.75,-111.68 451,-110 609.92,-92.53 796.37,-78.3 900.07,-70.94"/>
<polygon fill="#63b8ff" stroke="#63b8ff" points="900.42,-74.43 910.15,-70.23 899.92,-67.45 900.42,-74.43"/>
</a>
</g>
</g>
<!-- Node16&#45;&gt;Node13 -->
<g id="edge19_Node000016_Node000013" class="edge">
<title>Node16&#45;&gt;Node13</title>
<g id="a_edge19_Node000016_Node000013"><a xlink:title=" ">
<path fill="none" stroke="#63b8ff" d="M368.33,-109.84C381.27,-100.83 397.99,-89.18 411.05,-80.09"/>
<polygon fill="#63b8ff" stroke="#63b8ff" points="413.21,-82.85 419.41,-74.27 409.21,-77.11 413.21,-82.85"/>
</a>
</g>
</g>
<!-- Node20&#45;&gt;Node2 -->
<g id="edge29_Node000020_Node000002" class="edge">
<title>Node20&#45;&gt;Node2</title>
<g id="a_edge29_Node000020_Node000002"><a xlink:title=" ">
<path fill="none" stroke="#63b8ff" d="M797.8,-247.41C838.86,-232.38 918.75,-197.34 961,-140 972.98,-123.74 977.43,-100.68 979.08,-84.54"/>
<polygon fill="#63b8ff" stroke="#63b8ff" points="982.59,-84.43 979.84,-74.2 975.61,-83.92 982.59,-84.43"/>
</a>
</g>
</g>
<!-- Node20&#45;&gt;Node5 -->
<g id="edge26_Node000020_Node000005" class="edge">
<title>Node20&#45;&gt;Node5</title>
<g id="a_edge26_Node000020_Node000005"><a xlink:title=" ">
<path fill="none" stroke="#63b8ff" d="M812.03,-247.49C843.02,-239.74 886.21,-226.38 920,-206 992.95,-162 1006.93,-141.43 1059,-74 1069.93,-59.85 1079.5,-41.85 1085.86,-28.64"/>
<polygon fill="#63b8ff" stroke="#63b8ff" points="1089.2,-29.77 1090.24,-19.22 1082.85,-26.82 1089.2,-29.77"/>
</a>
</g>
</g>
<!-- Node20&#45;&gt;Node11 -->
<g id="edge25_Node000020_Node000011" class="edge">
<title>Node20&#45;&gt;Node11</title>
<g id="a_edge25_Node000020_Node000011"><a xlink:title=" ">
<path fill="none" stroke="#63b8ff" d="M735.42,-247.36C713.78,-240.17 688.12,-227.52 675,-206 651.56,-167.55 669.45,-112.01 681.44,-83.65"/>
<polygon fill="#63b8ff" stroke="#63b8ff" points="684.78,-84.76 685.66,-74.21 678.39,-81.91 684.78,-84.76"/>
</a>
</g>
</g>
<!-- Node20&#45;&gt;Node13 -->
<g id="edge43_Node000020_Node000013" class="edge">
<title>Node20&#45;&gt;Node13</title>
<g id="a_edge43_Node000020_Node000013"><a xlink:title=" ">
<path fill="none" stroke="#63b8ff" d="M750.19,-247.47C727.41,-238.27 690.9,-222.68 661,-206 594.47,-168.89 584.59,-148.75 519,-110 499.53,-98.5 476.74,-86.91 459.38,-78.44"/>
<polygon fill="#63b8ff" stroke="#63b8ff" points="460.87,-75.27 450.34,-74.08 457.82,-81.58 460.87,-75.27"/>
</a>
</g>
</g>
<!-- Node21 -->
<g id="Node000021" class="node">
<title>Node21</title>
<g id="a_Node000021"><a xlink:href="atom_8h.html" target="_top" xlink:title=" ">
<polygon fill="white" stroke="#666666" points="951.5,-134.5 856.5,-134.5 856.5,-115.5 951.5,-115.5 951.5,-134.5"/>
<text text-anchor="middle" x="904" y="-122.5" font-family="Helvetica,sans-Serif" font-size="10.00">occ/core/atom.h</text>
</a>
</g>
</g>
<!-- Node20&#45;&gt;Node21 -->
<g id="edge27_Node000020_Node000021" class="edge">
<title>Node20&#45;&gt;Node21</title>
<g id="a_edge27_Node000020_Node000021"><a xlink:title=" ">
<path fill="none" stroke="#63b8ff" d="M781.48,-247.25C792.16,-237.34 809.98,-220.68 825,-206 847.35,-184.16 872.64,-158.35 888.45,-142.07"/>
<polygon fill="#63b8ff" stroke="#63b8ff" points="891.34,-144.12 895.79,-134.51 886.32,-139.25 891.34,-144.12"/>
</a>
</g>
</g>
<!-- Node22 -->
<g id="Node000022" class="node">
<title>Node22</title>
<g id="a_Node000022"><a xlink:href="point__charge_8h.html" target="_top" xlink:title=" ">
<polygon fill="white" stroke="#666666" points="816,-200.5 684,-200.5 684,-181.5 816,-181.5 816,-200.5"/>
<text text-anchor="middle" x="750" y="-188.5" font-family="Helvetica,sans-Serif" font-size="10.00">occ/core/point_charge.h</text>
</a>
</g>
</g>
<!-- Node20&#45;&gt;Node22 -->
<g id="edge30_Node000020_Node000022" class="edge">
<title>Node20&#45;&gt;Node22</title>
<g id="a_edge30_Node000020_Node000022"><a xlink:title=" ">
<path fill="none" stroke="#63b8ff" d="M769.03,-247.37C765.8,-237.97 760.54,-222.67 756.37,-210.53"/>
<polygon fill="#63b8ff" stroke="#63b8ff" points="759.62,-209.22 753.06,-200.91 753,-211.5 759.62,-209.22"/>
</a>
</g>
</g>
<!-- Node23 -->
<g id="Node000023" class="node">
<title>Node23</title>
<g id="a_Node000023"><a xlink:href="util_8h.html" target="_top" xlink:title=" ">
<polygon fill="white" stroke="#666666" points="1571.5,-134.5 1486.5,-134.5 1486.5,-115.5 1571.5,-115.5 1571.5,-134.5"/>
<text text-anchor="middle" x="1529" y="-122.5" font-family="Helvetica,sans-Serif" font-size="10.00">occ/core/util.h</text>
</a>
</g>
</g>
<!-- Node20&#45;&gt;Node23 -->
<g id="edge33_Node000020_Node000023" class="edge">
<title>Node20&#45;&gt;Node23</title>
<g id="a_edge33_Node000020_Node000023"><a xlink:title=" ">
<path fill="none" stroke="#63b8ff" d="M815.62,-250.57C839.61,-247.73 869.91,-244.35 897,-242 961.77,-236.38 1425.44,-239.76 1481,-206 1503.67,-192.23 1516.98,-163.34 1523.63,-144.31"/>
<polygon fill="#63b8ff" stroke="#63b8ff" points="1527,-145.26 1526.72,-134.67 1520.33,-143.12 1527,-145.26"/>
</a>
</g>
</g>
<!-- Node21&#45;&gt;Node2 -->
<g id="edge28_Node000021_Node000002" class="edge">
<title>Node21&#45;&gt;Node2</title>
<g id="a_edge28_Node000021_Node000002"><a xlink:title=" ">
<path fill="none" stroke="#63b8ff" d="M915.21,-115.37C927.11,-106.21 946.14,-91.56 960.51,-80.51"/>
<polygon fill="#63b8ff" stroke="#63b8ff" points="962.95,-83.04 968.74,-74.17 958.68,-77.49 962.95,-83.04"/>
</a>
</g>
</g>
<!-- Node22&#45;&gt;Node11 -->
<g id="edge31_Node000022_Node000011" class="edge">
<title>Node22&#45;&gt;Node11</title>
<g id="a_edge31_Node000022_Node000011"><a xlink:title=" ">
<path fill="none" stroke="#63b8ff" d="M740.8,-181.29C731.45,-171.94 717.21,-156.23 709,-140 699.98,-122.17 695.02,-99.73 692.44,-84.15"/>
<polygon fill="#63b8ff" stroke="#63b8ff" points="695.9,-83.58 690.97,-74.2 688.97,-84.6 695.9,-83.58"/>
</a>
</g>
</g>
<!-- Node22&#45;&gt;Node21 -->
<g id="edge32_Node000022_Node000021" class="edge">
<title>Node22&#45;&gt;Node21</title>
<g id="a_edge32_Node000022_Node000021"><a xlink:title=" ">
<path fill="none" stroke="#63b8ff" d="M770.77,-181.37C797.29,-170.35 843.38,-151.19 873.79,-138.55"/>
<polygon fill="#63b8ff" stroke="#63b8ff" points="875.18,-141.77 883.07,-134.7 872.49,-135.3 875.18,-141.77"/>
</a>
</g>
</g>
<!-- Node23&#45;&gt;Node2 -->
<g id="edge40_Node000023_Node000002" class="edge">
<title>Node23&#45;&gt;Node2</title>
<g id="a_edge40_Node000023_Node000002"><a xlink:title=" ">
<path fill="none" stroke="#63b8ff" d="M1500.86,-115.47C1493.18,-113.4 1484.82,-111.39 1477,-110 1399.1,-96.13 1179.31,-79.4 1059.79,-70.95"/>
<polygon fill="#63b8ff" stroke="#63b8ff" points="1059.82,-67.44 1049.6,-70.23 1059.33,-74.42 1059.82,-67.44"/>
</a>
</g>
</g>
<!-- Node23&#45;&gt;Node5 -->
<g id="edge37_Node000023_Node000005" class="edge">
<title>Node23&#45;&gt;Node5</title>
<g id="a_edge37_Node000023_Node000005"><a xlink:title=" ">
<path fill="none" stroke="#63b8ff" d="M1566.01,-115.45C1606.94,-104.36 1663.88,-83.08 1638,-55 1604.34,-18.48 1261,-11.93 1137.75,-10.76"/>
<polygon fill="#63b8ff" stroke="#63b8ff" points="1137.58,-7.25 1127.55,-10.67 1137.51,-14.25 1137.58,-7.25"/>
</a>
</g>
</g>
<!-- Node23&#45;&gt;Node12 -->
<g id="edge41_Node000023_Node000012" class="edge">
<title>Node23&#45;&gt;Node12</title>
<g id="a_edge41_Node000023_Node000012"><a xlink:title=" ">
<path fill="none" stroke="#63b8ff" d="M1500.01,-115.48C1492.55,-113.49 1484.52,-111.51 1477,-110 1367.75,-88.09 1236.12,-74.1 1176.35,-68.41"/>
<polygon fill="#63b8ff" stroke="#63b8ff" points="1176.66,-64.92 1166.38,-67.48 1176.01,-71.89 1176.66,-64.92"/>
</a>
</g>
</g>
<!-- Node23&#45;&gt;Node13 -->
<g id="edge42_Node000023_Node000013" class="edge">
<title>Node23&#45;&gt;Node13</title>
<g id="a_edge42_Node000023_Node000013"><a xlink:title=" ">
<path fill="none" stroke="#63b8ff" d="M1501.72,-115.44C1493.82,-113.3 1485.13,-111.25 1477,-110 1451.41,-106.06 641.86,-73.82 465.64,-66.83"/>
<polygon fill="#63b8ff" stroke="#63b8ff" points="465.78,-63.33 455.65,-66.44 465.5,-70.33 465.78,-63.33"/>
</a>
</g>
</g>
<!-- Node24 -->
<g id="Node000024" class="node">
<title>Node24</title>
<g id="a_Node000024"><a xlink:title=" ">
<polygon fill="#e0e0e0" stroke="#999999" points="1561,-74 1497,-74 1497,-55 1561,-55 1561,-74"/>
<text text-anchor="middle" x="1529" y="-62" font-family="Helvetica,sans-Serif" font-size="10.00">algorithm</text>
</a>
</g>
</g>
<!-- Node23&#45;&gt;Node24 -->
<g id="edge34_Node000023_Node000024" class="edge">
<title>Node23&#45;&gt;Node24</title>
<g id="a_edge34_Node000023_Node000024"><a xlink:title=" ">
<path fill="none" stroke="#63b8ff" d="M1529,-115.37C1529,-107.25 1529,-94.81 1529,-84.39"/>
<polygon fill="#63b8ff" stroke="#63b8ff" points="1532.5,-84.17 1529,-74.17 1525.5,-84.17 1532.5,-84.17"/>
</a>
</g>
</g>
<!-- Node25 -->
<g id="Node000025" class="node">
<title>Node25</title>
<g id="a_Node000025"><a xlink:title=" ">
<polygon fill="#e0e0e0" stroke="#999999" points="1628.5,-74 1579.5,-74 1579.5,-55 1628.5,-55 1628.5,-74"/>
<text text-anchor="middle" x="1604" y="-62" font-family="Helvetica,sans-Serif" font-size="10.00">cctype</text>
</a>
</g>
</g>
<!-- Node23&#45;&gt;Node25 -->
<g id="edge35_Node000023_Node000025" class="edge">
<title>Node23&#45;&gt;Node25</title>
<g id="a_edge35_Node000023_Node000025"><a xlink:title=" ">
<path fill="none" stroke="#63b8ff" d="M1540.07,-115.37C1551.81,-106.21 1570.59,-91.56 1584.76,-80.51"/>
<polygon fill="#63b8ff" stroke="#63b8ff" points="1587.16,-83.08 1592.89,-74.17 1582.85,-77.56 1587.16,-83.08"/>
</a>
</g>
</g>
<!-- Node26 -->
<g id="Node000026" class="node">
<title>Node26</title>
<g id="a_Node000026"><a xlink:title=" ">
<polygon fill="#e0e0e0" stroke="#999999" points="1301,-74 1251,-74 1251,-55 1301,-55 1301,-74"/>
<text text-anchor="middle" x="1276" y="-62" font-family="Helvetica,sans-Serif" font-size="10.00">chrono</text>
</a>
</g>
</g>
<!-- Node23&#45;&gt;Node26 -->
<g id="edge36_Node000023_Node000026" class="edge">
<title>Node23&#45;&gt;Node26</title>
<g id="a_edge36_Node000023_Node000026"><a xlink:title=" ">
<path fill="none" stroke="#63b8ff" d="M1498.27,-115.45C1491.29,-113.59 1483.91,-111.67 1477,-110 1406.23,-92.86 1385.62,-91.31 1311.1,-74.19"/>
<polygon fill="#63b8ff" stroke="#63b8ff" points="1311.76,-70.75 1301.23,-71.9 1310.18,-77.57 1311.76,-70.75"/>
</a>
</g>
</g>
<!-- Node27 -->
<g id="Node000027" class="node">
<title>Node27</title>
<g id="a_Node000027"><a xlink:title=" ">
<polygon fill="#e0e0e0" stroke="#999999" points="1405,-74 1319,-74 1319,-55 1405,-55 1405,-74"/>
<text text-anchor="middle" x="1362" y="-62" font-family="Helvetica,sans-Serif" font-size="10.00">fmt/ostream.h</text>
</a>
</g>
</g>
<!-- Node23&#45;&gt;Node27 -->
<g id="edge38_Node000023_Node000027" class="edge">
<title>Node23&#45;&gt;Node27</title>
<g id="a_edge38_Node000023_Node000027"><a xlink:title=" ">
<path fill="none" stroke="#63b8ff" d="M1504.72,-115.49C1476.02,-105.44 1428.11,-88.66 1395.8,-77.34"/>
<polygon fill="#63b8ff" stroke="#63b8ff" points="1396.91,-74.02 1386.31,-74.02 1394.59,-80.63 1396.91,-74.02"/>
</a>
</g>
</g>
<!-- Node28 -->
<g id="Node000028" class="node">
<title>Node28</title>
<g id="a_Node000028"><a xlink:title=" ">
<polygon fill="#e0e0e0" stroke="#999999" points="1479,-74 1423,-74 1423,-55 1479,-55 1479,-74"/>
<text text-anchor="middle" x="1451" y="-62" font-family="Helvetica,sans-Serif" font-size="10.00">numeric</text>
</a>
</g>
</g>
<!-- Node23&#45;&gt;Node28 -->
<g id="edge39_Node000023_Node000028" class="edge">
<title>Node23&#45;&gt;Node28</title>
<g id="a_edge39_Node000023_Node000028"><a xlink:title=" ">
<path fill="none" stroke="#63b8ff" d="M1517.49,-115.37C1505.16,-106.12 1485.38,-91.28 1470.59,-80.19"/>
<polygon fill="#63b8ff" stroke="#63b8ff" points="1472.66,-77.37 1462.56,-74.17 1468.46,-82.97 1472.66,-77.37"/>
</a>
</g>
</g>
<!-- Node29&#45;&gt;Node20 -->
<g id="edge46_Node000029_Node000020" class="edge">
<title>Node29&#45;&gt;Node20</title>
<g id="a_edge46_Node000029_Node000020"><a xlink:title=" ">
<path fill="none" stroke="#63b8ff" d="M937.24,-313.37C903.68,-302.12 844.87,-282.42 807.21,-269.8"/>
<polygon fill="#63b8ff" stroke="#63b8ff" points="808.25,-266.46 797.66,-266.6 806.03,-273.09 808.25,-266.46"/>
</a>
</g>
</g>
<!-- Node30 -->
<g id="Node000030" class="node">
<title>Node30</title>
<g id="a_Node000030"><a xlink:href="orbital__smearing_8h.html" target="_top" xlink:title=" ">
<polygon fill="white" stroke="#666666" points="1052,-266.5 906,-266.5 906,-247.5 1052,-247.5 1052,-266.5"/>
<text text-anchor="middle" x="979" y="-254.5" font-family="Helvetica,sans-Serif" font-size="10.00">occ/qm/orbital_smearing.h</text>
</a>
</g>
</g>
<!-- Node29&#45;&gt;Node30 -->
<g id="edge47_Node000029_Node000030" class="edge">
<title>Node29&#45;&gt;Node30</title>
<g id="a_edge47_Node000029_Node000030"><a xlink:title=" ">
<path fill="none" stroke="#63b8ff" d="M965.16,-313.37C967.48,-304.07 971.26,-288.98 974.28,-276.9"/>
<polygon fill="#63b8ff" stroke="#63b8ff" points="977.74,-277.46 976.77,-266.91 970.95,-275.76 977.74,-277.46"/>
</a>
</g>
</g>
<!-- Node31 -->
<g id="Node000031" class="node">
<title>Node31</title>
<g id="a_Node000031"><a xlink:href="spinorbital_8h.html" target="_top" xlink:title=" ">
<polygon fill="white" stroke="#666666" points="1472,-200.5 1356,-200.5 1356,-181.5 1472,-181.5 1472,-200.5"/>
<text text-anchor="middle" x="1414" y="-188.5" font-family="Helvetica,sans-Serif" font-size="10.00">occ/qm/spinorbital.h</text>
</a>
</g>
</g>
<!-- Node29&#45;&gt;Node31 -->
<g id="edge49_Node000029_Node000031" class="edge">
<title>Node29&#45;&gt;Node31</title>
<g id="a_edge49_Node000029_Node000031"><a xlink:title=" ">
<path fill="none" stroke="#63b8ff" d="M992.59,-313.47C1071.28,-290.79 1285.72,-228.98 1374.6,-203.36"/>
<polygon fill="#63b8ff" stroke="#63b8ff" points="1375.66,-206.69 1384.3,-200.56 1373.72,-199.97 1375.66,-206.69"/>
</a>
</g>
</g>
<!-- Node30&#45;&gt;Node2 -->
<g id="edge48_Node000030_Node000002" class="edge">
<title>Node30&#45;&gt;Node2</title>
<g id="a_edge48_Node000030_Node000002"><a xlink:title=" ">
<path fill="none" stroke="#63b8ff" d="M982.45,-247.32C986.16,-237.49 991.82,-220.88 994,-206 1000.2,-163.79 1000.48,-152.17 994,-110 992.65,-101.19 989.87,-91.74 987.15,-83.82"/>
<polygon fill="#63b8ff" stroke="#63b8ff" points="990.34,-82.35 983.6,-74.18 983.77,-84.77 990.34,-82.35"/>
</a>
</g>
</g>
<!-- Node31&#45;&gt;Node2 -->
<g id="edge50_Node000031_Node000002" class="edge">
<title>Node31&#45;&gt;Node2</title>
<g id="a_edge50_Node000031_Node000002"><a xlink:title=" ">
<path fill="none" stroke="#63b8ff" d="M1403.23,-181.46C1377.27,-160.86 1313.33,-110.14 1313,-110 1268.76,-91.22 1143.48,-78.18 1059.83,-71.27"/>
<polygon fill="#63b8ff" stroke="#63b8ff" points="1060.09,-67.78 1049.84,-70.46 1059.53,-74.76 1060.09,-67.78"/>
</a>
</g>
</g>
<!-- Node31&#45;&gt;Node23 -->
<g id="edge51_Node000031_Node000023" class="edge">
<title>Node31&#45;&gt;Node23</title>
<g id="a_edge51_Node000031_Node000023"><a xlink:title=" ">
<path fill="none" stroke="#63b8ff" d="M1429.51,-181.37C1448.71,-170.68 1481.66,-152.35 1504.35,-139.72"/>
<polygon fill="#63b8ff" stroke="#63b8ff" points="1506.33,-142.62 1513.37,-134.7 1502.93,-136.5 1506.33,-142.62"/>
</a>
</g>
</g>
<!-- Node32 -->
<g id="Node000032" class="node">
<title>Node32</title>
<g id="a_Node000032"><a xlink:href="qm_2opmatrix_8h.html" target="_top" xlink:title=" ">
<polygon fill="white" stroke="#666666" points="1468,-134.5 1360,-134.5 1360,-115.5 1468,-115.5 1468,-134.5"/>
<text text-anchor="middle" x="1414" y="-122.5" font-family="Helvetica,sans-Serif" font-size="10.00">occ/qm/opmatrix.h</text>
</a>
</g>
</g>
<!-- Node31&#45;&gt;Node32 -->
<g id="edge52_Node000031_Node000032" class="edge">
<title>Node31&#45;&gt;Node32</title>
<g id="a_edge52_Node000031_Node000032"><a xlink:title=" ">
<path fill="none" stroke="#63b8ff" d="M1409.21,-181.37C1407.22,-172.07 1406.75,-156.98 1407.78,-144.9"/>
<polygon fill="#63b8ff" stroke="#63b8ff" points="1411.26,-145.29 1409.15,-134.91 1404.32,-144.34 1411.26,-145.29"/>
</a>
</g>
</g>
<!-- Node32&#45;&gt;Node31 -->
<g id="edge53_Node000032_Node000031" class="edge">
<title>Node32&#45;&gt;Node31</title>
<g id="a_edge53_Node000032_Node000031"><a xlink:title=" ">
<path fill="none" stroke="#63b8ff" d="M1418.85,-134.91C1420.8,-144.32 1421.25,-159.43 1420.19,-171.45"/>
<polygon fill="#63b8ff" stroke="#63b8ff" points="1416.72,-170.98 1418.79,-181.37 1423.65,-171.96 1416.72,-170.98"/>
</a>
</g>
</g>
<!-- Node33&#45;&gt;Node12 -->
<g id="edge58_Node000033_Node000012" class="edge">
<title>Node33&#45;&gt;Node12</title>
<g id="a_edge58_Node000033_Node000012"><a xlink:title=" ">
<path fill="none" stroke="#63b8ff" d="M1148.66,-181.44C1147.86,-161.54 1145.86,-111.76 1144.76,-84.35"/>
<polygon fill="#63b8ff" stroke="#63b8ff" points="1148.24,-83.97 1144.35,-74.12 1141.25,-84.25 1148.24,-83.97"/>
</a>
</g>
</g>
<!-- Node33&#45;&gt;Node13 -->
<g id="edge59_Node000033_Node000013" class="edge">
<title>Node33&#45;&gt;Node13</title>
<g id="a_edge59_Node000033_Node000013"><a xlink:title=" ">
<path fill="none" stroke="#63b8ff" d="M1133.5,-181.37C1102.07,-164.35 1028.13,-126.65 961,-110 866.38,-86.53 566.92,-71.46 465.76,-66.94"/>
<polygon fill="#63b8ff" stroke="#63b8ff" points="465.66,-63.43 455.51,-66.48 465.35,-70.42 465.66,-63.43"/>
</a>
</g>
</g>
<!-- Node33&#45;&gt;Node21 -->
<g id="edge57_Node000033_Node000021" class="edge">
<title>Node33&#45;&gt;Node21</title>
<g id="a_edge57_Node000033_Node000021"><a xlink:title=" ">
<path fill="none" stroke="#63b8ff" d="M1116.21,-181.44C1072.39,-169.99 994.66,-149.68 946.42,-137.08"/>
<polygon fill="#63b8ff" stroke="#63b8ff" points="947.15,-133.66 936.59,-134.51 945.38,-140.43 947.15,-133.66"/>
</a>
</g>
</g>
<!-- Node34 -->
<g id="Node000034" class="node">
<title>Node34</title>
<g id="a_Node000034"><a xlink:title=" ">
<polygon fill="#e0e0e0" stroke="#999999" points="1303.5,-134.5 1160.5,-134.5 1160.5,-115.5 1303.5,-115.5 1303.5,-134.5"/>
<text text-anchor="middle" x="1232" y="-122.5" font-family="Helvetica,sans-Serif" font-size="10.00">ankerl/unordered_dense.h</text>
</a>
</g>
</g>
<!-- Node33&#45;&gt;Node34 -->
<g id="edge56_Node000033_Node000034" class="edge">
<title>Node33&#45;&gt;Node34</title>
<g id="a_edge56_Node000033_Node000034"><a xlink:title=" ">
<path fill="none" stroke="#63b8ff" d="M1160.19,-181.37C1173.56,-171.06 1196.15,-153.65 1212.42,-141.09"/>
<polygon fill="#63b8ff" stroke="#63b8ff" points="1214.94,-143.58 1220.72,-134.7 1210.66,-138.03 1214.94,-143.58"/>
</a>
</g>
</g>
</g>
</svg>
