<?xml version="1.0" encoding="UTF-8" standalone="no"?>
<!DOCTYPE svg PUBLIC "-//W3C//DTD SVG 1.1//EN"
 "http://www.w3.org/Graphics/SVG/1.1/DTD/svg11.dtd">
<!-- Generated by graphviz version 2.43.0 (0)
 -->
<!-- Title: /home/runner/work/occ/occ/include/occ/io/wavefunction_json.h Pages: 1 -->
<svg width="1239pt" height="453pt"
 viewBox="0.00 0.00 1238.58 453.00" xmlns="http://www.w3.org/2000/svg" xmlns:xlink="http://www.w3.org/1999/xlink">
<g id="graph0" class="graph" transform="scale(1 1) rotate(0) translate(4 449)">
<title>/home/runner/work/occ/occ/include/occ/io/wavefunction_json.h</title>
<!-- Node1 -->
<g id="node1" class="node">
<title>Node1</title>
<g id="a_node1"><a xlink:title=" ">
<polygon fill="#bfbfbf" stroke="black" points="309.5,-403.5 309.5,-444.5 484.5,-444.5 484.5,-403.5 309.5,-403.5"/>
<text text-anchor="start" x="317.5" y="-432.5" font-family="Helvetica,sans-Serif" font-size="10.00">/home/runner/work/occ</text>
<text text-anchor="start" x="317.5" y="-421.5" font-family="Helvetica,sans-Serif" font-size="10.00">/occ/include/occ/io/wavefunction</text>
<text text-anchor="middle" x="397" y="-410.5" font-family="Helvetica,sans-Serif" font-size="10.00">_json.h</text>
</a>
</g>
</g>
<!-- Node2 -->
<g id="node2" class="node">
<title>Node2</title>
<g id="a_node2"><a xlink:href="wavefunction_8h.html" target="_top" xlink:title=" ">
<polygon fill="none" stroke="black" points="332,-347.5 332,-366.5 462,-366.5 462,-347.5 332,-347.5"/>
<text text-anchor="middle" x="397" y="-354.5" font-family="Helvetica,sans-Serif" font-size="10.00">occ/qm/wavefunction.h</text>
</a>
</g>
</g>
<!-- Node1&#45;&gt;Node2 -->
<g id="edge1" class="edge">
<title>Node1&#45;&gt;Node2</title>
<path fill="none" stroke="midnightblue" d="M397,-403.5C397,-395.07 397,-385.24 397,-376.87"/>
<polygon fill="midnightblue" stroke="midnightblue" points="400.5,-376.65 397,-366.65 393.5,-376.65 400.5,-376.65"/>
</g>
<!-- Node3 -->
<g id="node3" class="node">
<title>Node3</title>
<g id="a_node3"><a xlink:title=" ">
<polygon fill="none" stroke="#bfbfbf" points="104.5,-123.5 104.5,-142.5 171.5,-142.5 171.5,-123.5 104.5,-123.5"/>
<text text-anchor="middle" x="138" y="-130.5" font-family="Helvetica,sans-Serif" font-size="10.00">fmt/core.h</text>
</a>
</g>
</g>
<!-- Node2&#45;&gt;Node3 -->
<g id="edge2" class="edge">
<title>Node2&#45;&gt;Node3</title>
<path fill="none" stroke="midnightblue" d="M331.93,-352.3C284.02,-347.48 218.38,-336.42 166,-311 131.69,-294.35 116.89,-289.66 101,-255 84.76,-219.57 108.81,-175.12 125.1,-151.18"/>
<polygon fill="midnightblue" stroke="midnightblue" points="128.12,-152.97 131.06,-142.8 122.41,-148.92 128.12,-152.97"/>
</g>
<!-- Node4 -->
<g id="node4" class="node">
<title>Node4</title>
<g id="a_node4"><a xlink:href="linear__algebra_8h.html" target="_top" xlink:title=" ">
<polygon fill="none" stroke="black" points="674.5,-67.5 674.5,-86.5 813.5,-86.5 813.5,-67.5 674.5,-67.5"/>
<text text-anchor="middle" x="744" y="-74.5" font-family="Helvetica,sans-Serif" font-size="10.00">occ/core/linear_algebra.h</text>
</a>
</g>
</g>
<!-- Node2&#45;&gt;Node4 -->
<g id="edge3" class="edge">
<title>Node2&#45;&gt;Node4</title>
<path fill="none" stroke="midnightblue" d="M331.89,-351.42C219.26,-341.7 0,-314.03 0,-246 0,-246 0,-246 0,-188 0,-148.38 25.18,-139.93 61,-123 114.34,-97.8 495.86,-84.62 664.35,-79.97"/>
<polygon fill="midnightblue" stroke="midnightblue" points="664.51,-83.47 674.41,-79.7 664.32,-76.47 664.51,-83.47"/>
</g>
<!-- Node8 -->
<g id="node8" class="node">
<title>Node8</title>
<g id="a_node8"><a xlink:href="fchkreader_8h.html" target="_top" xlink:title=" ">
<polygon fill="none" stroke="black" points="455.5,-291.5 455.5,-310.5 564.5,-310.5 564.5,-291.5 455.5,-291.5"/>
<text text-anchor="middle" x="510" y="-298.5" font-family="Helvetica,sans-Serif" font-size="10.00">occ/io/fchkreader.h</text>
</a>
</g>
</g>
<!-- Node2&#45;&gt;Node8 -->
<g id="edge7" class="edge">
<title>Node2&#45;&gt;Node8</title>
<path fill="none" stroke="midnightblue" d="M414.91,-347.44C433.25,-338.68 462.01,-324.94 483.09,-314.86"/>
<polygon fill="midnightblue" stroke="midnightblue" points="484.67,-317.99 492.18,-310.52 481.65,-311.67 484.67,-317.99"/>
</g>
<!-- Node11 -->
<g id="node11" class="node">
<title>Node11</title>
<g id="a_node11"><a xlink:href="shell_8h.html" target="_top" xlink:title=" ">
<polygon fill="none" stroke="black" points="774.5,-235.5 774.5,-254.5 861.5,-254.5 861.5,-235.5 774.5,-235.5"/>
<text text-anchor="middle" x="818" y="-242.5" font-family="Helvetica,sans-Serif" font-size="10.00">occ/qm/shell.h</text>
</a>
</g>
</g>
<!-- Node2&#45;&gt;Node11 -->
<g id="edge67" class="edge">
<title>Node2&#45;&gt;Node11</title>
<path fill="none" stroke="midnightblue" d="M462.05,-352.58C523.63,-347.87 618,-336.8 696,-311 733.61,-298.56 773.45,-275.13 797,-260.06"/>
<polygon fill="midnightblue" stroke="midnightblue" points="799,-262.94 805.47,-254.55 795.18,-257.07 799,-262.94"/>
</g>
<!-- Node24 -->
<g id="node24" class="node">
<title>Node24</title>
<g id="a_node24"><a xlink:href="spinorbital_8h.html" target="_top" xlink:title=" ">
<polygon fill="none" stroke="black" points="304,-235.5 304,-254.5 420,-254.5 420,-235.5 304,-235.5"/>
<text text-anchor="middle" x="362" y="-242.5" font-family="Helvetica,sans-Serif" font-size="10.00">occ/qm/spinorbital.h</text>
</a>
</g>
</g>
<!-- Node2&#45;&gt;Node24 -->
<g id="edge68" class="edge">
<title>Node2&#45;&gt;Node24</title>
<path fill="none" stroke="midnightblue" d="M382.34,-347.4C370.59,-339.58 354.97,-326.86 348,-311 341.34,-295.84 346.54,-277.26 352.4,-263.86"/>
<polygon fill="midnightblue" stroke="midnightblue" points="355.6,-265.28 356.82,-254.75 349.3,-262.22 355.6,-265.28"/>
</g>
<!-- Node26 -->
<g id="node26" class="node">
<title>Node26</title>
<g id="a_node26"><a xlink:href="fchkwriter_8h.html" target="_top" xlink:title=" ">
<polygon fill="none" stroke="black" points="759,-291.5 759,-310.5 865,-310.5 865,-291.5 759,-291.5"/>
<text text-anchor="middle" x="812" y="-298.5" font-family="Helvetica,sans-Serif" font-size="10.00">occ/io/fchkwriter.h</text>
</a>
</g>
</g>
<!-- Node2&#45;&gt;Node26 -->
<g id="edge38" class="edge">
<title>Node2&#45;&gt;Node26</title>
<path fill="none" stroke="midnightblue" d="M462.3,-347.5C540.72,-337.3 671.37,-320.3 748.83,-310.22"/>
<polygon fill="midnightblue" stroke="midnightblue" points="749.47,-313.67 758.93,-308.91 748.57,-306.72 749.47,-313.67"/>
</g>
<!-- Node29 -->
<g id="node29" class="node">
<title>Node29</title>
<g id="a_node29"><a xlink:href="moldenreader_8h.html" target="_top" xlink:title=" ">
<polygon fill="none" stroke="black" points="175.5,-291.5 175.5,-310.5 300.5,-310.5 300.5,-291.5 175.5,-291.5"/>
<text text-anchor="middle" x="238" y="-298.5" font-family="Helvetica,sans-Serif" font-size="10.00">occ/io/moldenreader.h</text>
</a>
</g>
</g>
<!-- Node2&#45;&gt;Node29 -->
<g id="edge48" class="edge">
<title>Node2&#45;&gt;Node29</title>
<path fill="none" stroke="midnightblue" d="M371.81,-347.44C345.06,-338.36 302.6,-323.94 272.69,-313.78"/>
<polygon fill="midnightblue" stroke="midnightblue" points="273.67,-310.42 263.08,-310.52 271.42,-317.05 273.67,-310.42"/>
</g>
<!-- Node31 -->
<g id="node31" class="node">
<title>Node31</title>
<g id="a_node31"><a xlink:href="orca__json_8h.html" target="_top" xlink:title=" ">
<polygon fill="none" stroke="black" points="583,-291.5 583,-310.5 687,-310.5 687,-291.5 583,-291.5"/>
<text text-anchor="middle" x="635" y="-298.5" font-family="Helvetica,sans-Serif" font-size="10.00">occ/io/orca_json.h</text>
</a>
</g>
</g>
<!-- Node2&#45;&gt;Node31 -->
<g id="edge56" class="edge">
<title>Node2&#45;&gt;Node31</title>
<path fill="none" stroke="midnightblue" d="M434.71,-347.44C476.14,-338.04 542.76,-322.93 587.67,-312.74"/>
<polygon fill="midnightblue" stroke="midnightblue" points="588.49,-316.14 597.46,-310.52 586.94,-309.32 588.49,-316.14"/>
</g>
<!-- Node32 -->
<g id="node32" class="node">
<title>Node32</title>
<g id="a_node32"><a xlink:href="mo_8h.html" target="_top" xlink:title=" ">
<polygon fill="none" stroke="black" points="357,-291.5 357,-310.5 437,-310.5 437,-291.5 357,-291.5"/>
<text text-anchor="middle" x="397" y="-298.5" font-family="Helvetica,sans-Serif" font-size="10.00">occ/qm/mo.h</text>
</a>
</g>
</g>
<!-- Node2&#45;&gt;Node32 -->
<g id="edge65" class="edge">
<title>Node2&#45;&gt;Node32</title>
<path fill="none" stroke="midnightblue" d="M397,-347.08C397,-340.01 397,-329.86 397,-320.99"/>
<polygon fill="midnightblue" stroke="midnightblue" points="400.5,-320.75 397,-310.75 393.5,-320.75 400.5,-320.75"/>
</g>
<!-- Node5 -->
<g id="node5" class="node">
<title>Node5</title>
<g id="a_node5"><a xlink:title=" ">
<polygon fill="none" stroke="#bfbfbf" points="602.5,-6 602.5,-25 679.5,-25 679.5,-6 602.5,-6"/>
<text text-anchor="middle" x="641" y="-13" font-family="Helvetica,sans-Serif" font-size="10.00">Eigen/Dense</text>
</a>
</g>
</g>
<!-- Node4&#45;&gt;Node5 -->
<g id="edge4" class="edge">
<title>Node4&#45;&gt;Node5</title>
<path fill="none" stroke="midnightblue" d="M729.24,-67.48C712.34,-57.71 684.42,-41.58 664.51,-30.08"/>
<polygon fill="midnightblue" stroke="midnightblue" points="666.14,-26.98 655.73,-25.01 662.64,-33.04 666.14,-26.98"/>
</g>
<!-- Node6 -->
<g id="node6" class="node">
<title>Node6</title>
<g id="a_node6"><a xlink:title=" ">
<polygon fill="none" stroke="#bfbfbf" points="697.5,-6 697.5,-25 790.5,-25 790.5,-6 697.5,-6"/>
<text text-anchor="middle" x="744" y="-13" font-family="Helvetica,sans-Serif" font-size="10.00">Eigen/StdVector</text>
</a>
</g>
</g>
<!-- Node4&#45;&gt;Node6 -->
<g id="edge5" class="edge">
<title>Node4&#45;&gt;Node6</title>
<path fill="none" stroke="midnightblue" d="M744,-67.48C744,-59.08 744,-45.98 744,-35.16"/>
<polygon fill="midnightblue" stroke="midnightblue" points="747.5,-35.01 744,-25.01 740.5,-35.01 747.5,-35.01"/>
</g>
<!-- Node7 -->
<g id="node7" class="node">
<title>Node7</title>
<g id="a_node7"><a xlink:title=" ">
<polygon fill="none" stroke="#bfbfbf" points="808.5,-0.5 808.5,-30.5 915.5,-30.5 915.5,-0.5 808.5,-0.5"/>
<text text-anchor="start" x="816.5" y="-18.5" font-family="Helvetica,sans-Serif" font-size="10.00">occ/3rdparty/eigen</text>
<text text-anchor="middle" x="862" y="-7.5" font-family="Helvetica,sans-Serif" font-size="10.00">&#45;fmt/fmt.h</text>
</a>
</g>
</g>
<!-- Node4&#45;&gt;Node7 -->
<g id="edge6" class="edge">
<title>Node4&#45;&gt;Node7</title>
<path fill="none" stroke="midnightblue" d="M760.91,-67.48C777.56,-59.08 803.55,-45.97 825.01,-35.15"/>
<polygon fill="midnightblue" stroke="midnightblue" points="826.84,-38.15 834.19,-30.52 823.68,-31.9 826.84,-38.15"/>
</g>
<!-- Node8&#45;&gt;Node4 -->
<g id="edge10" class="edge">
<title>Node8&#45;&gt;Node4</title>
<path fill="none" stroke="midnightblue" d="M460.44,-291.43C406.73,-281.82 324.73,-266.14 295,-255 195.26,-217.64 22.34,-200.87 95,-123 133.09,-82.18 499.54,-77.57 664.37,-77.59"/>
<polygon fill="midnightblue" stroke="midnightblue" points="664.45,-81.09 674.45,-77.6 664.45,-74.09 664.45,-81.09"/>
</g>
<!-- Node9 -->
<g id="node9" class="node">
<title>Node9</title>
<g id="a_node9"><a xlink:title=" ">
<polygon fill="none" stroke="#bfbfbf" points="548.5,-235.5 548.5,-254.5 603.5,-254.5 603.5,-235.5 548.5,-235.5"/>
<text text-anchor="middle" x="576" y="-242.5" font-family="Helvetica,sans-Serif" font-size="10.00">fstream</text>
</a>
</g>
</g>
<!-- Node8&#45;&gt;Node9 -->
<g id="edge8" class="edge">
<title>Node8&#45;&gt;Node9</title>
<path fill="none" stroke="midnightblue" d="M520.6,-291.32C530.46,-283.26 545.35,-271.08 557.22,-261.37"/>
<polygon fill="midnightblue" stroke="midnightblue" points="559.68,-263.88 565.2,-254.83 555.25,-258.46 559.68,-263.88"/>
</g>
<!-- Node10 -->
<g id="node10" class="node">
<title>Node10</title>
<g id="a_node10"><a xlink:title=" ">
<polygon fill="none" stroke="#bfbfbf" points="476,-235.5 476,-254.5 530,-254.5 530,-235.5 476,-235.5"/>
<text text-anchor="middle" x="503" y="-242.5" font-family="Helvetica,sans-Serif" font-size="10.00">istream</text>
</a>
</g>
</g>
<!-- Node8&#45;&gt;Node10 -->
<g id="edge9" class="edge">
<title>Node8&#45;&gt;Node10</title>
<path fill="none" stroke="midnightblue" d="M508.84,-291.08C507.92,-283.93 506.58,-273.64 505.42,-264.69"/>
<polygon fill="midnightblue" stroke="midnightblue" points="508.89,-264.22 504.13,-254.75 501.95,-265.12 508.89,-264.22"/>
</g>
<!-- Node8&#45;&gt;Node11 -->
<g id="edge11" class="edge">
<title>Node8&#45;&gt;Node11</title>
<path fill="none" stroke="midnightblue" d="M558.8,-291.44C614.81,-281.62 706.37,-265.57 764.34,-255.41"/>
<polygon fill="midnightblue" stroke="midnightblue" points="765.16,-258.82 774.4,-253.64 763.95,-251.92 765.16,-258.82"/>
</g>
<!-- Node23 -->
<g id="node23" class="node">
<title>Node23</title>
<g id="a_node23"><a xlink:title=" ">
<polygon fill="none" stroke="#bfbfbf" points="720.5,-123.5 720.5,-142.5 767.5,-142.5 767.5,-123.5 720.5,-123.5"/>
<text text-anchor="middle" x="744" y="-130.5" font-family="Helvetica,sans-Serif" font-size="10.00">vector</text>
</a>
</g>
</g>
<!-- Node8&#45;&gt;Node23 -->
<g id="edge37" class="edge">
<title>Node8&#45;&gt;Node23</title>
<path fill="none" stroke="midnightblue" d="M497.19,-291.49C479.97,-278.98 453.04,-254.95 467,-235 470.67,-229.76 637.82,-171.01 710.66,-145.6"/>
<polygon fill="midnightblue" stroke="midnightblue" points="711.99,-148.84 720.28,-142.24 709.69,-142.23 711.99,-148.84"/>
</g>
<!-- Node8&#45;&gt;Node24 -->
<g id="edge32" class="edge">
<title>Node8&#45;&gt;Node24</title>
<path fill="none" stroke="midnightblue" d="M486.55,-291.44C461.87,-282.44 422.81,-268.19 395.02,-258.05"/>
<polygon fill="midnightblue" stroke="midnightblue" points="395.94,-254.66 385.34,-254.52 393.54,-261.23 395.94,-254.66"/>
</g>
<!-- Node11&#45;&gt;Node4 -->
<g id="edge16" class="edge">
<title>Node11&#45;&gt;Node4</title>
<path fill="none" stroke="midnightblue" d="M825.39,-235.38C834.98,-223.12 849.83,-199.83 844,-179 836.15,-150.96 830.04,-144.12 810,-123 798.25,-110.61 782.54,-99.73 769.39,-91.77"/>
<polygon fill="midnightblue" stroke="midnightblue" points="770.77,-88.53 760.36,-86.52 767.24,-94.57 770.77,-88.53"/>
</g>
<!-- Node12 -->
<g id="node12" class="node">
<title>Node12</title>
<g id="a_node12"><a xlink:title=" ">
<polygon fill="none" stroke="#bfbfbf" points="1106,-123.5 1106,-142.5 1148,-142.5 1148,-123.5 1106,-123.5"/>
<text text-anchor="middle" x="1127" y="-130.5" font-family="Helvetica,sans-Serif" font-size="10.00">array</text>
</a>
</g>
</g>
<!-- Node11&#45;&gt;Node12 -->
<g id="edge12" class="edge">
<title>Node11&#45;&gt;Node12</title>
<path fill="none" stroke="midnightblue" d="M861.66,-239.81C938.08,-232.11 1089.76,-215 1108,-199 1121.1,-187.51 1125.4,-167.53 1126.7,-152.75"/>
<polygon fill="midnightblue" stroke="midnightblue" points="1130.2,-152.85 1127.2,-142.69 1123.21,-152.5 1130.2,-152.85"/>
</g>
<!-- Node13 -->
<g id="node13" class="node">
<title>Node13</title>
<g id="a_node13"><a xlink:title=" ">
<polygon fill="none" stroke="#bfbfbf" points="775,-179.5 775,-198.5 835,-198.5 835,-179.5 775,-179.5"/>
<text text-anchor="middle" x="805" y="-186.5" font-family="Helvetica,sans-Serif" font-size="10.00">iostream</text>
</a>
</g>
</g>
<!-- Node11&#45;&gt;Node13 -->
<g id="edge13" class="edge">
<title>Node11&#45;&gt;Node13</title>
<path fill="none" stroke="midnightblue" d="M815.85,-235.08C814.13,-227.93 811.65,-217.64 809.5,-208.69"/>
<polygon fill="midnightblue" stroke="midnightblue" points="812.85,-207.65 807.11,-198.75 806.04,-209.29 812.85,-207.65"/>
</g>
<!-- Node14 -->
<g id="node14" class="node">
<title>Node14</title>
<g id="a_node14"><a xlink:href="atom_8h.html" target="_top" xlink:title=" ">
<polygon fill="none" stroke="black" points="891.5,-123.5 891.5,-142.5 986.5,-142.5 986.5,-123.5 891.5,-123.5"/>
<text text-anchor="middle" x="939" y="-130.5" font-family="Helvetica,sans-Serif" font-size="10.00">occ/core/atom.h</text>
</a>
</g>
</g>
<!-- Node11&#45;&gt;Node14 -->
<g id="edge14" class="edge">
<title>Node11&#45;&gt;Node14</title>
<path fill="none" stroke="midnightblue" d="M830.65,-235.23C842.92,-226.54 861.84,-212.58 877,-199 894.32,-183.49 912.49,-164.01 924.65,-150.43"/>
<polygon fill="midnightblue" stroke="midnightblue" points="927.37,-152.64 931.38,-142.83 922.13,-148 927.37,-152.64"/>
</g>
<!-- Node15 -->
<g id="node15" class="node">
<title>Node15</title>
<g id="a_node15"><a xlink:href="point__charge_8h.html" target="_top" xlink:title=" ">
<polygon fill="none" stroke="black" points="967,-179.5 967,-198.5 1099,-198.5 1099,-179.5 967,-179.5"/>
<text text-anchor="middle" x="1033" y="-186.5" font-family="Helvetica,sans-Serif" font-size="10.00">occ/core/point_charge.h</text>
</a>
</g>
</g>
<!-- Node11&#45;&gt;Node15 -->
<g id="edge17" class="edge">
<title>Node11&#45;&gt;Node15</title>
<path fill="none" stroke="midnightblue" d="M852.07,-235.44C889.18,-226.12 948.66,-211.18 989.21,-201"/>
<polygon fill="midnightblue" stroke="midnightblue" points="990.25,-204.35 999.09,-198.52 988.54,-197.56 990.25,-204.35"/>
</g>
<!-- Node16 -->
<g id="node16" class="node">
<title>Node16</title>
<g id="a_node16"><a xlink:href="util_8h.html" target="_top" xlink:title=" ">
<polygon fill="none" stroke="black" points="430.5,-179.5 430.5,-198.5 515.5,-198.5 515.5,-179.5 430.5,-179.5"/>
<text text-anchor="middle" x="473" y="-186.5" font-family="Helvetica,sans-Serif" font-size="10.00">occ/core/util.h</text>
</a>
</g>
</g>
<!-- Node11&#45;&gt;Node16 -->
<g id="edge21" class="edge">
<title>Node11&#45;&gt;Node16</title>
<path fill="none" stroke="midnightblue" d="M774.31,-237.16C710.92,-227.24 593.64,-208.88 525.6,-198.23"/>
<polygon fill="midnightblue" stroke="midnightblue" points="525.95,-194.75 515.53,-196.66 524.87,-201.66 525.95,-194.75"/>
</g>
<!-- Node11&#45;&gt;Node23 -->
<g id="edge31" class="edge">
<title>Node11&#45;&gt;Node23</title>
<path fill="none" stroke="midnightblue" d="M804.24,-235.21C792.56,-227.1 776.12,-214.06 766,-199 756.55,-184.94 750.81,-166.45 747.57,-152.78"/>
<polygon fill="midnightblue" stroke="midnightblue" points="750.92,-151.7 745.42,-142.64 744.07,-153.15 750.92,-151.7"/>
</g>
<!-- Node14&#45;&gt;Node4 -->
<g id="edge15" class="edge">
<title>Node14&#45;&gt;Node4</title>
<path fill="none" stroke="midnightblue" d="M908.1,-123.44C874.73,-114.2 821.41,-99.44 784.65,-89.26"/>
<polygon fill="midnightblue" stroke="midnightblue" points="785.33,-85.81 774.75,-86.52 783.46,-92.56 785.33,-85.81"/>
</g>
<!-- Node15&#45;&gt;Node4 -->
<g id="edge20" class="edge">
<title>Node15&#45;&gt;Node4</title>
<path fill="none" stroke="midnightblue" d="M1030.5,-179.2C1025.96,-164.93 1014.93,-136.92 995,-123 967.84,-104.03 886.64,-91.86 823.88,-85.02"/>
<polygon fill="midnightblue" stroke="midnightblue" points="823.89,-81.51 813.58,-83.93 823.16,-88.47 823.89,-81.51"/>
</g>
<!-- Node15&#45;&gt;Node12 -->
<g id="edge18" class="edge">
<title>Node15&#45;&gt;Node12</title>
<path fill="none" stroke="midnightblue" d="M1048.1,-179.32C1062.9,-170.82 1085.69,-157.73 1102.98,-147.8"/>
<polygon fill="midnightblue" stroke="midnightblue" points="1105.01,-150.67 1111.93,-142.65 1101.52,-144.6 1105.01,-150.67"/>
</g>
<!-- Node15&#45;&gt;Node14 -->
<g id="edge19" class="edge">
<title>Node15&#45;&gt;Node14</title>
<path fill="none" stroke="midnightblue" d="M1017.9,-179.32C1003.1,-170.82 980.31,-157.73 963.02,-147.8"/>
<polygon fill="midnightblue" stroke="midnightblue" points="964.48,-144.6 954.07,-142.65 960.99,-150.67 964.48,-144.6"/>
</g>
<!-- Node16&#45;&gt;Node3 -->
<g id="edge24" class="edge">
<title>Node16&#45;&gt;Node3</title>
<path fill="none" stroke="midnightblue" d="M430.23,-181.11C366.4,-170.82 246.83,-151.54 182.19,-141.12"/>
<polygon fill="midnightblue" stroke="midnightblue" points="182.35,-137.6 171.92,-139.47 181.24,-144.51 182.35,-137.6"/>
</g>
<!-- Node16&#45;&gt;Node4 -->
<g id="edge28" class="edge">
<title>Node16&#45;&gt;Node4</title>
<path fill="none" stroke="midnightblue" d="M515.58,-181.07C565.85,-172.43 646.03,-157.09 673,-143 696.03,-130.97 717.28,-109.58 730.41,-94.63"/>
<polygon fill="midnightblue" stroke="midnightblue" points="733.35,-96.58 737.16,-86.69 728.01,-92.05 733.35,-96.58"/>
</g>
<!-- Node17 -->
<g id="node17" class="node">
<title>Node17</title>
<g id="a_node17"><a xlink:title=" ">
<polygon fill="none" stroke="#bfbfbf" points="428,-123.5 428,-142.5 492,-142.5 492,-123.5 428,-123.5"/>
<text text-anchor="middle" x="460" y="-130.5" font-family="Helvetica,sans-Serif" font-size="10.00">algorithm</text>
</a>
</g>
</g>
<!-- Node16&#45;&gt;Node17 -->
<g id="edge22" class="edge">
<title>Node16&#45;&gt;Node17</title>
<path fill="none" stroke="midnightblue" d="M470.85,-179.08C469.13,-171.93 466.65,-161.64 464.5,-152.69"/>
<polygon fill="midnightblue" stroke="midnightblue" points="467.85,-151.65 462.11,-142.75 461.04,-153.29 467.85,-151.65"/>
</g>
<!-- Node18 -->
<g id="node18" class="node">
<title>Node18</title>
<g id="a_node18"><a xlink:title=" ">
<polygon fill="none" stroke="#bfbfbf" points="510.5,-123.5 510.5,-142.5 559.5,-142.5 559.5,-123.5 510.5,-123.5"/>
<text text-anchor="middle" x="535" y="-130.5" font-family="Helvetica,sans-Serif" font-size="10.00">cctype</text>
</a>
</g>
</g>
<!-- Node16&#45;&gt;Node18 -->
<g id="edge23" class="edge">
<title>Node16&#45;&gt;Node18</title>
<path fill="none" stroke="midnightblue" d="M482.96,-179.32C492.13,-171.34 505.94,-159.31 517.03,-149.65"/>
<polygon fill="midnightblue" stroke="midnightblue" points="519.62,-152.04 524.86,-142.83 515.02,-146.76 519.62,-152.04"/>
</g>
<!-- Node19 -->
<g id="node19" class="node">
<title>Node19</title>
<g id="a_node19"><a xlink:title=" ">
<polygon fill="none" stroke="#bfbfbf" points="578,-123.5 578,-142.5 664,-142.5 664,-123.5 578,-123.5"/>
<text text-anchor="middle" x="621" y="-130.5" font-family="Helvetica,sans-Serif" font-size="10.00">fmt/ostream.h</text>
</a>
</g>
</g>
<!-- Node16&#45;&gt;Node19 -->
<g id="edge25" class="edge">
<title>Node16&#45;&gt;Node19</title>
<path fill="none" stroke="midnightblue" d="M496.45,-179.44C521.13,-170.44 560.19,-156.19 587.98,-146.05"/>
<polygon fill="midnightblue" stroke="midnightblue" points="589.46,-149.23 597.66,-142.52 587.06,-142.66 589.46,-149.23"/>
</g>
<!-- Node20 -->
<g id="node20" class="node">
<title>Node20</title>
<g id="a_node20"><a xlink:title=" ">
<polygon fill="none" stroke="#bfbfbf" points="290,-123.5 290,-142.5 336,-142.5 336,-123.5 290,-123.5"/>
<text text-anchor="middle" x="313" y="-130.5" font-family="Helvetica,sans-Serif" font-size="10.00">locale</text>
</a>
</g>
</g>
<!-- Node16&#45;&gt;Node20 -->
<g id="edge26" class="edge">
<title>Node16&#45;&gt;Node20</title>
<path fill="none" stroke="midnightblue" d="M447.65,-179.44C420.1,-170.15 375.98,-155.26 345.81,-145.07"/>
<polygon fill="midnightblue" stroke="midnightblue" points="346.75,-141.7 336.16,-141.82 344.51,-148.33 346.75,-141.7"/>
</g>
<!-- Node21 -->
<g id="node21" class="node">
<title>Node21</title>
<g id="a_node21"><a xlink:title=" ">
<polygon fill="none" stroke="#bfbfbf" points="354,-123.5 354,-142.5 410,-142.5 410,-123.5 354,-123.5"/>
<text text-anchor="middle" x="382" y="-130.5" font-family="Helvetica,sans-Serif" font-size="10.00">numeric</text>
</a>
</g>
</g>
<!-- Node16&#45;&gt;Node21 -->
<g id="edge27" class="edge">
<title>Node16&#45;&gt;Node21</title>
<path fill="none" stroke="midnightblue" d="M458.38,-179.32C444.05,-170.82 421.99,-157.73 405.25,-147.8"/>
<polygon fill="midnightblue" stroke="midnightblue" points="406.97,-144.75 396.58,-142.65 403.4,-150.77 406.97,-144.75"/>
</g>
<!-- Node22 -->
<g id="node22" class="node">
<title>Node22</title>
<g id="a_node22"><a xlink:title=" ">
<polygon fill="none" stroke="#bfbfbf" points="228,-123.5 228,-142.5 272,-142.5 272,-123.5 228,-123.5"/>
<text text-anchor="middle" x="250" y="-130.5" font-family="Helvetica,sans-Serif" font-size="10.00">string</text>
</a>
</g>
</g>
<!-- Node16&#45;&gt;Node22 -->
<g id="edge29" class="edge">
<title>Node16&#45;&gt;Node22</title>
<path fill="none" stroke="midnightblue" d="M433.87,-179.46C397.02,-171.28 340.06,-158.27 282.01,-143.17"/>
<polygon fill="midnightblue" stroke="midnightblue" points="282.87,-139.78 272.31,-140.63 281.1,-146.55 282.87,-139.78"/>
</g>
<!-- Node16&#45;&gt;Node23 -->
<g id="edge30" class="edge">
<title>Node16&#45;&gt;Node23</title>
<path fill="none" stroke="midnightblue" d="M515.63,-180.32C562.43,-171.76 639.74,-157.24 706,-143 707.45,-142.69 708.93,-142.36 710.42,-142.03"/>
<polygon fill="midnightblue" stroke="midnightblue" points="711.35,-145.41 720.32,-139.77 709.79,-138.59 711.35,-145.41"/>
</g>
<!-- Node24&#45;&gt;Node4 -->
<g id="edge33" class="edge">
<title>Node24&#45;&gt;Node4</title>
<path fill="none" stroke="midnightblue" d="M336.6,-235.49C284.81,-216.88 175.46,-170.44 219,-123 248.46,-90.91 524.74,-81.66 664.23,-79.03"/>
<polygon fill="midnightblue" stroke="midnightblue" points="664.5,-82.52 674.44,-78.84 664.38,-75.52 664.5,-82.52"/>
</g>
<!-- Node24&#45;&gt;Node16 -->
<g id="edge34" class="edge">
<title>Node24&#45;&gt;Node16</title>
<path fill="none" stroke="midnightblue" d="M379.83,-235.32C397.72,-226.62 425.48,-213.12 446.05,-203.11"/>
<polygon fill="midnightblue" stroke="midnightblue" points="447.75,-206.18 455.21,-198.65 444.69,-199.88 447.75,-206.18"/>
</g>
<!-- Node25 -->
<g id="node25" class="node">
<title>Node25</title>
<g id="a_node25"><a xlink:href="qm_2opmatrix_8h.html" target="_top" xlink:title=" ">
<polygon fill="none" stroke="black" points="266,-179.5 266,-198.5 374,-198.5 374,-179.5 266,-179.5"/>
<text text-anchor="middle" x="320" y="-186.5" font-family="Helvetica,sans-Serif" font-size="10.00">occ/qm/opmatrix.h</text>
</a>
</g>
</g>
<!-- Node24&#45;&gt;Node25 -->
<g id="edge35" class="edge">
<title>Node24&#45;&gt;Node25</title>
<path fill="none" stroke="midnightblue" d="M349.9,-235.08C342.43,-227.53 333.46,-216.49 327.06,-207.23"/>
<polygon fill="midnightblue" stroke="midnightblue" points="329.99,-205.32 321.68,-198.75 324.08,-209.07 329.99,-205.32"/>
</g>
<!-- Node25&#45;&gt;Node24 -->
<g id="edge36" class="edge">
<title>Node25&#45;&gt;Node24</title>
<path fill="none" stroke="midnightblue" d="M331.94,-198.75C339.38,-206.25 348.36,-217.27 354.8,-226.57"/>
<polygon fill="midnightblue" stroke="midnightblue" points="351.9,-228.53 360.23,-235.08 357.8,-224.77 351.9,-228.53"/>
</g>
<!-- Node26&#45;&gt;Node4 -->
<g id="edge43" class="edge">
<title>Node26&#45;&gt;Node4</title>
<path fill="none" stroke="midnightblue" d="M865.39,-298.11C972.03,-293.8 1203.25,-281.46 1227,-255 1232.94,-248.38 1229.45,-243.54 1227,-235 1210.82,-178.57 1206.72,-154.2 1157,-123 1103.2,-89.24 927.92,-80.63 823.8,-78.55"/>
<polygon fill="midnightblue" stroke="midnightblue" points="823.7,-75.05 813.64,-78.36 823.57,-82.05 823.7,-75.05"/>
</g>
<!-- Node26&#45;&gt;Node9 -->
<g id="edge40" class="edge">
<title>Node26&#45;&gt;Node9</title>
<path fill="none" stroke="midnightblue" d="M774.61,-291.44C730.47,-281.35 657.53,-264.65 613.39,-254.56"/>
<polygon fill="midnightblue" stroke="midnightblue" points="614.16,-251.14 603.63,-252.32 612.6,-257.97 614.16,-251.14"/>
</g>
<!-- Node26&#45;&gt;Node10 -->
<g id="edge41" class="edge">
<title>Node26&#45;&gt;Node10</title>
<path fill="none" stroke="midnightblue" d="M758.92,-292.56C705.89,-284.84 621.85,-271.8 540.04,-255.08"/>
<polygon fill="midnightblue" stroke="midnightblue" points="540.57,-251.61 530.07,-253.02 539.16,-258.47 540.57,-251.61"/>
</g>
<!-- Node26&#45;&gt;Node11 -->
<g id="edge44" class="edge">
<title>Node26&#45;&gt;Node11</title>
<path fill="none" stroke="midnightblue" d="M812.99,-291.08C813.79,-283.93 814.93,-273.64 815.92,-264.69"/>
<polygon fill="midnightblue" stroke="midnightblue" points="819.4,-265.08 817.03,-254.75 812.44,-264.3 819.4,-265.08"/>
</g>
<!-- Node26&#45;&gt;Node12 -->
<g id="edge39" class="edge">
<title>Node26&#45;&gt;Node12</title>
<path fill="none" stroke="midnightblue" d="M834.48,-291.46C868.98,-278.49 937.15,-253.39 996,-235 1054.04,-216.86 1091.09,-247.33 1128,-199 1138.04,-185.85 1136.26,-166.44 1132.89,-152.25"/>
<polygon fill="midnightblue" stroke="midnightblue" points="1136.26,-151.3 1130.18,-142.62 1129.52,-153.19 1136.26,-151.3"/>
</g>
<!-- Node26&#45;&gt;Node23 -->
<g id="edge47" class="edge">
<title>Node26&#45;&gt;Node23</title>
<path fill="none" stroke="midnightblue" d="M799.66,-291.46C788.87,-283.33 773.61,-270.12 765,-255 746.51,-222.53 743.5,-177.81 743.43,-152.83"/>
<polygon fill="midnightblue" stroke="midnightblue" points="746.93,-152.62 743.57,-142.58 739.94,-152.53 746.93,-152.62"/>
</g>
<!-- Node26&#45;&gt;Node24 -->
<g id="edge45" class="edge">
<title>Node26&#45;&gt;Node24</title>
<path fill="none" stroke="midnightblue" d="M758.61,-293.59C676.79,-283.77 520.42,-265.01 430.4,-254.21"/>
<polygon fill="midnightblue" stroke="midnightblue" points="430.64,-250.71 420.29,-253 429.8,-257.66 430.64,-250.71"/>
</g>
<!-- Node27 -->
<g id="node27" class="node">
<title>Node27</title>
<g id="a_node27"><a xlink:title=" ">
<polygon fill="none" stroke="#bfbfbf" points="1005.5,-235.5 1005.5,-254.5 1148.5,-254.5 1148.5,-235.5 1005.5,-235.5"/>
<text text-anchor="middle" x="1077" y="-242.5" font-family="Helvetica,sans-Serif" font-size="10.00">ankerl/unordered_dense.h</text>
</a>
</g>
</g>
<!-- Node26&#45;&gt;Node27 -->
<g id="edge42" class="edge">
<title>Node26&#45;&gt;Node27</title>
<path fill="none" stroke="midnightblue" d="M853.99,-291.44C900.41,-281.98 975.23,-266.74 1025.24,-256.55"/>
<polygon fill="midnightblue" stroke="midnightblue" points="1026.11,-259.94 1035.21,-254.52 1024.71,-253.08 1026.11,-259.94"/>
</g>
<!-- Node28 -->
<g id="node28" class="node">
<title>Node28</title>
<g id="a_node28"><a xlink:title=" ">
<polygon fill="none" stroke="#bfbfbf" points="1166.5,-235.5 1166.5,-254.5 1217.5,-254.5 1217.5,-235.5 1166.5,-235.5"/>
<text text-anchor="middle" x="1192" y="-242.5" font-family="Helvetica,sans-Serif" font-size="10.00">variant</text>
</a>
</g>
</g>
<!-- Node26&#45;&gt;Node28 -->
<g id="edge46" class="edge">
<title>Node26&#45;&gt;Node28</title>
<path fill="none" stroke="midnightblue" d="M865.1,-295.25C931.25,-288.85 1047.84,-276.02 1156.33,-255.12"/>
<polygon fill="midnightblue" stroke="midnightblue" points="1157.32,-258.49 1166.46,-253.14 1155.98,-251.62 1157.32,-258.49"/>
</g>
<!-- Node29&#45;&gt;Node4 -->
<g id="edge50" class="edge">
<title>Node29&#45;&gt;Node4</title>
<path fill="none" stroke="midnightblue" d="M175.17,-292.49C149.09,-286.35 120.44,-275.21 101,-255 59.72,-212.08 37.34,-166.5 78,-123 117.28,-80.97 496.32,-77.07 664.41,-77.43"/>
<polygon fill="midnightblue" stroke="midnightblue" points="664.44,-80.93 674.45,-77.46 664.46,-73.93 664.44,-80.93"/>
</g>
<!-- Node29&#45;&gt;Node10 -->
<g id="edge49" class="edge">
<title>Node29&#45;&gt;Node10</title>
<path fill="none" stroke="midnightblue" d="M279.99,-291.44C331.22,-281 417.03,-263.52 465.92,-253.56"/>
<polygon fill="midnightblue" stroke="midnightblue" points="466.67,-256.98 475.77,-251.55 465.27,-250.12 466.67,-256.98"/>
</g>
<!-- Node29&#45;&gt;Node11 -->
<g id="edge51" class="edge">
<title>Node29&#45;&gt;Node11</title>
<path fill="none" stroke="midnightblue" d="M300.62,-294.17C415.26,-283.5 656.95,-260.99 764.47,-250.98"/>
<polygon fill="midnightblue" stroke="midnightblue" points="764.81,-254.47 774.45,-250.05 764.17,-247.5 764.81,-254.47"/>
</g>
<!-- Node29&#45;&gt;Node22 -->
<g id="edge54" class="edge">
<title>Node29&#45;&gt;Node22</title>
<path fill="none" stroke="midnightblue" d="M238.65,-291.08C240.53,-264.95 246.08,-188.21 248.66,-152.58"/>
<polygon fill="midnightblue" stroke="midnightblue" points="252.15,-152.79 249.38,-142.57 245.17,-152.29 252.15,-152.79"/>
</g>
<!-- Node29&#45;&gt;Node23 -->
<g id="edge55" class="edge">
<title>Node29&#45;&gt;Node23</title>
<path fill="none" stroke="midnightblue" d="M242.97,-291.1C251.54,-276.68 270.55,-248.47 295,-235 385.25,-185.3 427,-233.73 524,-199 540.51,-193.09 541.75,-185.58 558,-179 572.05,-173.31 660.61,-152.86 710.3,-141.59"/>
<polygon fill="midnightblue" stroke="midnightblue" points="711.29,-144.95 720.27,-139.33 709.74,-138.13 711.29,-144.95"/>
</g>
<!-- Node29&#45;&gt;Node24 -->
<g id="edge52" class="edge">
<title>Node29&#45;&gt;Node24</title>
<path fill="none" stroke="midnightblue" d="M257.65,-291.44C277.96,-282.6 309.9,-268.69 333.1,-258.59"/>
<polygon fill="midnightblue" stroke="midnightblue" points="334.67,-261.72 342.44,-254.52 331.88,-255.3 334.67,-261.72"/>
</g>
<!-- Node30 -->
<g id="node30" class="node">
<title>Node30</title>
<g id="a_node30"><a xlink:title=" ">
<polygon fill="none" stroke="#bfbfbf" points="110,-235.5 110,-254.5 166,-254.5 166,-235.5 110,-235.5"/>
<text text-anchor="middle" x="138" y="-242.5" font-family="Helvetica,sans-Serif" font-size="10.00">optional</text>
</a>
</g>
</g>
<!-- Node29&#45;&gt;Node30 -->
<g id="edge53" class="edge">
<title>Node29&#45;&gt;Node30</title>
<path fill="none" stroke="midnightblue" d="M221.93,-291.32C206.04,-282.74 181.49,-269.49 163.04,-259.52"/>
<polygon fill="midnightblue" stroke="midnightblue" points="164.49,-256.33 154.03,-254.65 161.16,-262.49 164.49,-256.33"/>
</g>
<!-- Node31&#45;&gt;Node4 -->
<g id="edge60" class="edge">
<title>Node31&#45;&gt;Node4</title>
<path fill="none" stroke="midnightblue" d="M647.87,-291.3C677.76,-270.17 751.24,-212.74 776,-143 782.14,-125.69 770.87,-106.98 760.05,-94.1"/>
<polygon fill="midnightblue" stroke="midnightblue" points="762.5,-91.6 753.19,-86.55 757.32,-96.3 762.5,-91.6"/>
</g>
<!-- Node31&#45;&gt;Node9 -->
<g id="edge57" class="edge">
<title>Node31&#45;&gt;Node9</title>
<path fill="none" stroke="midnightblue" d="M625.52,-291.32C616.8,-283.34 603.66,-271.31 593.1,-261.65"/>
<polygon fill="midnightblue" stroke="midnightblue" points="595.39,-259 585.65,-254.83 590.67,-264.17 595.39,-259"/>
</g>
<!-- Node31&#45;&gt;Node10 -->
<g id="edge58" class="edge">
<title>Node31&#45;&gt;Node10</title>
<path fill="none" stroke="midnightblue" d="M614.08,-291.44C592.26,-282.52 557.85,-268.44 533.11,-258.32"/>
<polygon fill="midnightblue" stroke="midnightblue" points="534.4,-255.06 523.82,-254.52 531.75,-261.54 534.4,-255.06"/>
</g>
<!-- Node31&#45;&gt;Node11 -->
<g id="edge61" class="edge">
<title>Node31&#45;&gt;Node11</title>
<path fill="none" stroke="midnightblue" d="M664,-291.44C695.18,-282.24 744.93,-267.56 779.41,-257.39"/>
<polygon fill="midnightblue" stroke="midnightblue" points="780.54,-260.7 789.14,-254.52 778.56,-253.99 780.54,-260.7"/>
</g>
<!-- Node31&#45;&gt;Node14 -->
<g id="edge59" class="edge">
<title>Node31&#45;&gt;Node14</title>
<path fill="none" stroke="midnightblue" d="M687.02,-295.13C747.07,-288.64 841.28,-275.54 870,-255 905.61,-229.53 925.36,-179.56 933.88,-152.49"/>
<polygon fill="midnightblue" stroke="midnightblue" points="937.29,-153.31 936.77,-142.73 930.57,-151.32 937.29,-153.31"/>
</g>
<!-- Node31&#45;&gt;Node22 -->
<g id="edge63" class="edge">
<title>Node31&#45;&gt;Node22</title>
<path fill="none" stroke="midnightblue" d="M634.57,-291.33C633.39,-277.24 628.91,-249.49 612,-235 546.41,-178.79 502.57,-227.43 421,-199 402.98,-192.72 400.54,-186.53 383,-179 364.58,-171.09 314.92,-154.77 281.77,-144.11"/>
<polygon fill="midnightblue" stroke="midnightblue" points="282.66,-140.72 272.07,-141 280.52,-147.38 282.66,-140.72"/>
</g>
<!-- Node31&#45;&gt;Node23 -->
<g id="edge64" class="edge">
<title>Node31&#45;&gt;Node23</title>
<path fill="none" stroke="midnightblue" d="M640.86,-291.08C658.24,-264.61 709.72,-186.21 732.7,-151.21"/>
<polygon fill="midnightblue" stroke="midnightblue" points="735.81,-152.85 738.37,-142.57 729.96,-149.01 735.81,-152.85"/>
</g>
<!-- Node31&#45;&gt;Node24 -->
<g id="edge62" class="edge">
<title>Node31&#45;&gt;Node24</title>
<path fill="none" stroke="midnightblue" d="M591.74,-291.44C543.82,-281.96 466.52,-266.67 415,-256.48"/>
<polygon fill="midnightblue" stroke="midnightblue" points="415.54,-253.02 405.06,-254.52 414.19,-259.89 415.54,-253.02"/>
</g>
<!-- Node32&#45;&gt;Node24 -->
<g id="edge66" class="edge">
<title>Node32&#45;&gt;Node24</title>
<path fill="none" stroke="midnightblue" d="M391.22,-291.08C386.33,-283.53 379.17,-272.49 373.17,-263.23"/>
<polygon fill="midnightblue" stroke="midnightblue" points="376.05,-261.24 367.67,-254.75 370.17,-265.05 376.05,-261.24"/>
</g>
</g>
</svg>
