<?xml version="1.0" encoding="UTF-8" standalone="no"?>
<!DOCTYPE svg PUBLIC "-//W3C//DTD SVG 1.1//EN"
 "http://www.w3.org/Graphics/SVG/1.1/DTD/svg11.dtd">
<!-- Generated by graphviz version 2.43.0 (0)
 -->
<!-- Title: /home/runner/work/occ/occ/include/occ/qm/wavefunction.h Pages: 1 -->
<svg width="1661pt" height="500pt"
 viewBox="0.00 0.00 1661.00 500.00" xmlns="http://www.w3.org/2000/svg" xmlns:xlink="http://www.w3.org/1999/xlink">
<g id="graph0" class="graph" transform="scale(1 1) rotate(0) translate(4 496)">
<title>/home/runner/work/occ/occ/include/occ/qm/wavefunction.h</title>
<!-- Node1 -->
<g id="Node000001" class="node">
<title>Node1</title>
<g id="a_Node000001"><a xlink:title=" ">
<polygon fill="#999999" stroke="#666666" points="720,-492 529,-492 529,-462 720,-462 720,-492"/>
<text text-anchor="start" x="537" y="-480" font-family="Helvetica,sans-Serif" font-size="10.00">/home/runner/work/occ</text>
<text text-anchor="middle" x="624.5" y="-469" font-family="Helvetica,sans-Serif" font-size="10.00">/occ/include/occ/qm/wavefunction.h</text>
</a>
</g>
</g>
<!-- Node2 -->
<g id="Node000002" class="node">
<title>Node2</title>
<g id="a_Node000002"><a xlink:href="smd__solvation_8h.html" target="_top" xlink:title=" ">
<polygon fill="white" stroke="#666666" points="600.5,-272 468.5,-272 468.5,-231 600.5,-231 600.5,-272"/>
<text text-anchor="start" x="476.5" y="-260" font-family="Helvetica,sans-Serif" font-size="10.00">/home/runner/work/occ</text>
<text text-anchor="start" x="476.5" y="-249" font-family="Helvetica,sans-Serif" font-size="10.00">/occ/include/occ/cg/smd</text>
<text text-anchor="middle" x="534.5" y="-238" font-family="Helvetica,sans-Serif" font-size="10.00">_solvation.h</text>
</a>
</g>
</g>
<!-- Node1&#45;&gt;Node2 -->
<g id="edge1_Node000001_Node000002" class="edge">
<title>Node1&#45;&gt;Node2</title>
<g id="a_edge1_Node000001_Node000002"><a xlink:title=" ">
<path fill="none" stroke="#63b8ff" d="M618.06,-451.94C608.8,-418.77 590.3,-357.47 567.5,-308 561.82,-295.68 554.14,-282.61 547.62,-272.25"/>
<polygon fill="#63b8ff" stroke="#63b8ff" points="614.71,-452.96 620.74,-461.68 621.46,-451.11 614.71,-452.96"/>
</a>
</g>
</g>
<!-- Node3 -->
<g id="Node000003" class="node">
<title>Node3</title>
<g id="a_Node000003"><a xlink:href="crystal__growth_8h.html" target="_top" xlink:title=" ">
<polygon fill="white" stroke="#666666" points="469.5,-195 341.5,-195 341.5,-154 469.5,-154 469.5,-195"/>
<text text-anchor="start" x="349.5" y="-183" font-family="Helvetica,sans-Serif" font-size="10.00">/home/runner/work/occ</text>
<text text-anchor="start" x="349.5" y="-172" font-family="Helvetica,sans-Serif" font-size="10.00">/occ/include/occ/driver</text>
<text text-anchor="middle" x="405.5" y="-161" font-family="Helvetica,sans-Serif" font-size="10.00">/crystal_growth.h</text>
</a>
</g>
</g>
<!-- Node1&#45;&gt;Node3 -->
<g id="edge3_Node000001_Node000003" class="edge">
<title>Node1&#45;&gt;Node3</title>
<g id="a_edge3_Node000001_Node000003"><a xlink:title=" ">
<path fill="none" stroke="#63b8ff" d="M519.05,-462.37C467.33,-453.93 411.86,-441.69 391.5,-426 387.7,-423.07 314.61,-276.66 313.5,-272 309.27,-254.28 304.54,-246.87 313.5,-231 322.3,-215.41 337.44,-203.7 352.93,-195.17"/>
<polygon fill="#63b8ff" stroke="#63b8ff" points="518.56,-465.83 528.99,-463.95 519.67,-458.92 518.56,-465.83"/>
</a>
</g>
</g>
<!-- Node4 -->
<g id="Node000004" class="node">
<title>Node4</title>
<g id="a_Node000004"><a xlink:href="geometry__optimization_8h.html" target="_top" xlink:title=" ">
<polygon fill="white" stroke="#666666" points="324,-426 181,-426 181,-385 324,-385 324,-426"/>
<text text-anchor="start" x="189" y="-414" font-family="Helvetica,sans-Serif" font-size="10.00">/home/runner/work/occ</text>
<text text-anchor="start" x="189" y="-403" font-family="Helvetica,sans-Serif" font-size="10.00">/occ/include/occ/driver</text>
<text text-anchor="middle" x="252.5" y="-392" font-family="Helvetica,sans-Serif" font-size="10.00">/geometry_optimization.h</text>
</a>
</g>
</g>
<!-- Node1&#45;&gt;Node4 -->
<g id="edge4_Node000001_Node000004" class="edge">
<title>Node1&#45;&gt;Node4</title>
<g id="a_edge4_Node000001_Node000004"><a xlink:title=" ">
<path fill="none" stroke="#63b8ff" d="M527.45,-460.27C471.98,-450.97 401.19,-438.58 338.5,-426 333.85,-425.07 329.06,-424.07 324.24,-423.05"/>
<polygon fill="#63b8ff" stroke="#63b8ff" points="527.18,-463.77 537.62,-461.97 528.33,-456.87 527.18,-463.77"/>
</a>
</g>
</g>
<!-- Node5 -->
<g id="Node000005" class="node">
<title>Node5</title>
<g id="a_Node000005"><a xlink:href="single__point_8h.html" target="_top" xlink:title=" ">
<polygon fill="white" stroke="#666666" points="321.5,-349 193.5,-349 193.5,-308 321.5,-308 321.5,-349"/>
<text text-anchor="start" x="201.5" y="-337" font-family="Helvetica,sans-Serif" font-size="10.00">/home/runner/work/occ</text>
<text text-anchor="start" x="201.5" y="-326" font-family="Helvetica,sans-Serif" font-size="10.00">/occ/include/occ/driver</text>
<text text-anchor="middle" x="257.5" y="-315" font-family="Helvetica,sans-Serif" font-size="10.00">/single_point.h</text>
</a>
</g>
</g>
<!-- Node1&#45;&gt;Node5 -->
<g id="edge5_Node000001_Node000005" class="edge">
<title>Node1&#45;&gt;Node5</title>
<g id="a_edge5_Node000001_Node000005"><a xlink:title=" ">
<path fill="none" stroke="#63b8ff" d="M518.79,-471.63C392.21,-465.3 194.28,-451.43 171.5,-426 159.34,-412.43 162.78,-401 171.5,-385 179.92,-369.55 194.68,-357.75 209.63,-349.09"/>
<polygon fill="#63b8ff" stroke="#63b8ff" points="518.75,-475.13 528.91,-472.13 519.1,-468.14 518.75,-475.13"/>
</a>
</g>
</g>
<!-- Node6 -->
<g id="Node000006" class="node">
<title>Node6</title>
<g id="a_Node000006"><a xlink:href="density_8h.html" target="_top" xlink:title=" ">
<polygon fill="white" stroke="#666666" points="556.5,-426 428.5,-426 428.5,-385 556.5,-385 556.5,-426"/>
<text text-anchor="start" x="436.5" y="-414" font-family="Helvetica,sans-Serif" font-size="10.00">/home/runner/work/occ</text>
<text text-anchor="start" x="436.5" y="-403" font-family="Helvetica,sans-Serif" font-size="10.00">/occ/include/occ/gto</text>
<text text-anchor="middle" x="492.5" y="-392" font-family="Helvetica,sans-Serif" font-size="10.00">/density.h</text>
</a>
</g>
</g>
<!-- Node1&#45;&gt;Node6 -->
<g id="edge7_Node000001_Node000006" class="edge">
<title>Node1&#45;&gt;Node6</title>
<g id="a_edge7_Node000001_Node000006"><a xlink:title=" ">
<path fill="none" stroke="#63b8ff" d="M588.88,-457.24C570.55,-447.59 548.22,-435.84 529.68,-426.07"/>
<polygon fill="#63b8ff" stroke="#63b8ff" points="587.31,-460.37 597.79,-461.94 590.57,-454.18 587.31,-460.37"/>
</a>
</g>
</g>
<!-- Node8 -->
<g id="Node000008" class="node">
<title>Node8</title>
<g id="a_Node000008"><a xlink:href="point__functors_8h.html" target="_top" xlink:title=" ">
<polygon fill="white" stroke="#666666" points="450.5,-272 322.5,-272 322.5,-231 450.5,-231 450.5,-272"/>
<text text-anchor="start" x="330.5" y="-260" font-family="Helvetica,sans-Serif" font-size="10.00">/home/runner/work/occ</text>
<text text-anchor="start" x="330.5" y="-249" font-family="Helvetica,sans-Serif" font-size="10.00">/occ/include/occ/main</text>
<text text-anchor="middle" x="386.5" y="-238" font-family="Helvetica,sans-Serif" font-size="10.00">/point_functors.h</text>
</a>
</g>
</g>
<!-- Node1&#45;&gt;Node8 -->
<g id="edge46_Node000001_Node000008" class="edge">
<title>Node1&#45;&gt;Node8</title>
<g id="a_edge46_Node000001_Node000008"><a xlink:title=" ">
<path fill="none" stroke="#63b8ff" d="M518.91,-460.96C476.36,-452.78 433.93,-441.18 419.5,-426 379.16,-383.54 380.65,-307.86 384,-272.16"/>
<polygon fill="#63b8ff" stroke="#63b8ff" points="518.37,-464.42 528.84,-462.81 519.65,-457.54 518.37,-464.42"/>
</a>
</g>
</g>
<!-- Node9 -->
<g id="Node000009" class="node">
<title>Node9</title>
<g id="a_Node000009"><a xlink:href="pair__energy_8h.html" target="_top" xlink:title=" ">
<polygon fill="white" stroke="#666666" points="1130,-272 981,-272 981,-231 1130,-231 1130,-272"/>
<text text-anchor="start" x="989" y="-260" font-family="Helvetica,sans-Serif" font-size="10.00">/home/runner/work/occ</text>
<text text-anchor="start" x="989" y="-249" font-family="Helvetica,sans-Serif" font-size="10.00">/occ/include/occ/interaction</text>
<text text-anchor="middle" x="1055.5" y="-238" font-family="Helvetica,sans-Serif" font-size="10.00">/pair_energy.h</text>
</a>
</g>
</g>
<!-- Node1&#45;&gt;Node9 -->
<g id="edge11_Node000001_Node000009" class="edge">
<title>Node1&#45;&gt;Node9</title>
<g id="a_edge11_Node000001_Node000009"><a xlink:title=" ">
<path fill="none" stroke="#63b8ff" d="M730.42,-464.65C758.69,-457.29 787.47,-445.34 809.5,-426 852.17,-388.53 816.03,-345.7 858.5,-308 868.07,-299.51 929.2,-283.01 980.87,-270.2"/>
<polygon fill="#63b8ff" stroke="#63b8ff" points="729.34,-461.31 720.45,-467.06 730.99,-468.11 729.34,-461.31"/>
</a>
</g>
</g>
<!-- Node19 -->
<g id="Node000019" class="node">
<title>Node19</title>
<g id="a_Node000019"><a xlink:href="pairinteraction_8h.html" target="_top" xlink:title=" ">
<polygon fill="white" stroke="#666666" points="801,-349 652,-349 652,-308 801,-308 801,-349"/>
<text text-anchor="start" x="660" y="-337" font-family="Helvetica,sans-Serif" font-size="10.00">/home/runner/work/occ</text>
<text text-anchor="start" x="660" y="-326" font-family="Helvetica,sans-Serif" font-size="10.00">/occ/include/occ/interaction</text>
<text text-anchor="middle" x="726.5" y="-315" font-family="Helvetica,sans-Serif" font-size="10.00">/pairinteraction.h</text>
</a>
</g>
</g>
<!-- Node1&#45;&gt;Node19 -->
<g id="edge26_Node000001_Node000019" class="edge">
<title>Node1&#45;&gt;Node19</title>
<g id="a_edge26_Node000001_Node000019"><a xlink:title=" ">
<path fill="none" stroke="#63b8ff" d="M624.32,-451.57C625.29,-432.04 629.23,-404.77 642.5,-385 652.53,-370.05 668.09,-358.15 683.1,-349.26"/>
<polygon fill="#63b8ff" stroke="#63b8ff" points="620.81,-451.7 624.05,-461.79 627.81,-451.89 620.81,-451.7"/>
</a>
</g>
</g>
<!-- Node23 -->
<g id="Node000023" class="node">
<title>Node23</title>
<g id="a_Node000023"><a xlink:href="wavefunction__transform_8h.html" target="_top" xlink:title=" ">
<polygon fill="white" stroke="#666666" points="801,-426 652,-426 652,-385 801,-385 801,-426"/>
<text text-anchor="start" x="660" y="-414" font-family="Helvetica,sans-Serif" font-size="10.00">/home/runner/work/occ</text>
<text text-anchor="start" x="660" y="-403" font-family="Helvetica,sans-Serif" font-size="10.00">/occ/include/occ/interaction</text>
<text text-anchor="middle" x="726.5" y="-392" font-family="Helvetica,sans-Serif" font-size="10.00">/wavefunction_transform.h</text>
</a>
</g>
</g>
<!-- Node1&#45;&gt;Node23 -->
<g id="edge34_Node000001_Node000023" class="edge">
<title>Node1&#45;&gt;Node23</title>
<g id="a_edge34_Node000001_Node000023"><a xlink:title=" ">
<path fill="none" stroke="#63b8ff" d="M653.79,-456.04C667.6,-446.63 684.03,-435.44 697.77,-426.07"/>
<polygon fill="#63b8ff" stroke="#63b8ff" points="651.43,-453.41 645.14,-461.94 655.38,-459.2 651.43,-453.41"/>
</a>
</g>
</g>
<!-- Node24 -->
<g id="Node000024" class="node">
<title>Node24</title>
<g id="a_Node000024"><a xlink:href="wavefunction__json_8h.html" target="_top" xlink:title=" ">
<polygon fill="white" stroke="#666666" points="175,-349 0,-349 0,-308 175,-308 175,-349"/>
<text text-anchor="start" x="8" y="-337" font-family="Helvetica,sans-Serif" font-size="10.00">/home/runner/work/occ</text>
<text text-anchor="start" x="8" y="-326" font-family="Helvetica,sans-Serif" font-size="10.00">/occ/include/occ/io/wavefunction</text>
<text text-anchor="middle" x="87.5" y="-315" font-family="Helvetica,sans-Serif" font-size="10.00">_json.h</text>
</a>
</g>
</g>
<!-- Node1&#45;&gt;Node24 -->
<g id="edge35_Node000001_Node000024" class="edge">
<title>Node1&#45;&gt;Node24</title>
<g id="a_edge35_Node000001_Node000024"><a xlink:title=" ">
<path fill="none" stroke="#63b8ff" d="M518.66,-474.22C401,-470.59 219.71,-459.53 160.5,-426 129.61,-408.51 107.69,-372.05 96.36,-349.3"/>
<polygon fill="#63b8ff" stroke="#63b8ff" points="518.68,-477.73 528.78,-474.52 518.89,-470.73 518.68,-477.73"/>
</a>
</g>
</g>
<!-- Node25 -->
<g id="Node000025" class="node">
<title>Node25</title>
<g id="a_Node000025"><a xlink:href="electric__potential_8h.html" target="_top" xlink:title=" ">
<polygon fill="white" stroke="#666666" points="1284,-349 1137,-349 1137,-308 1284,-308 1284,-349"/>
<text text-anchor="start" x="1145" y="-337" font-family="Helvetica,sans-Serif" font-size="10.00">/home/runner/work/occ</text>
<text text-anchor="start" x="1145" y="-326" font-family="Helvetica,sans-Serif" font-size="10.00">/occ/include/occ/isosurface</text>
<text text-anchor="middle" x="1210.5" y="-315" font-family="Helvetica,sans-Serif" font-size="10.00">/electric_potential.h</text>
</a>
</g>
</g>
<!-- Node1&#45;&gt;Node25 -->
<g id="edge37_Node000001_Node000025" class="edge">
<title>Node1&#45;&gt;Node25</title>
<g id="a_edge37_Node000001_Node000025"><a xlink:title=" ">
<path fill="none" stroke="#63b8ff" d="M730.56,-470.48C828.44,-463.93 965.63,-450.65 1013.5,-426 1035.59,-414.62 1030.71,-398.61 1051.5,-385 1077.19,-368.19 1108.55,-355.83 1136.61,-347.1"/>
<polygon fill="#63b8ff" stroke="#63b8ff" points="730.08,-467 720.33,-471.15 730.53,-473.98 730.08,-467"/>
</a>
</g>
</g>
<!-- Node29 -->
<g id="Node000029" class="node">
<title>Node29</title>
<g id="a_Node000029"><a xlink:href="electron__density_8h.html" target="_top" xlink:title=" ">
<polygon fill="white" stroke="#666666" points="1004,-426 857,-426 857,-385 1004,-385 1004,-426"/>
<text text-anchor="start" x="865" y="-414" font-family="Helvetica,sans-Serif" font-size="10.00">/home/runner/work/occ</text>
<text text-anchor="start" x="865" y="-403" font-family="Helvetica,sans-Serif" font-size="10.00">/occ/include/occ/isosurface</text>
<text text-anchor="middle" x="930.5" y="-392" font-family="Helvetica,sans-Serif" font-size="10.00">/electron_density.h</text>
</a>
</g>
</g>
<!-- Node1&#45;&gt;Node29 -->
<g id="edge41_Node000001_Node000029" class="edge">
<title>Node1&#45;&gt;Node29</title>
<g id="a_edge41_Node000001_Node000029"><a xlink:title=" ">
<path fill="none" stroke="#63b8ff" d="M696.18,-459.72C744.5,-448.74 808.07,-434.31 856.8,-423.24"/>
<polygon fill="#63b8ff" stroke="#63b8ff" points="695.4,-456.31 686.42,-461.94 696.95,-463.13 695.4,-456.31"/>
</a>
</g>
</g>
<!-- Node31 -->
<g id="Node000031" class="node">
<title>Node31</title>
<g id="a_Node000031"><a xlink:href="monomer__wavefunctions_8h.html" target="_top" xlink:title=" ">
<polygon fill="white" stroke="#666666" points="1212.5,-426 1060.5,-426 1060.5,-385 1212.5,-385 1212.5,-426"/>
<text text-anchor="start" x="1068.5" y="-414" font-family="Helvetica,sans-Serif" font-size="10.00">/home/runner/work/occ</text>
<text text-anchor="start" x="1068.5" y="-403" font-family="Helvetica,sans-Serif" font-size="10.00">/occ/include/occ/main</text>
<text text-anchor="middle" x="1136.5" y="-392" font-family="Helvetica,sans-Serif" font-size="10.00">/monomer_wavefunctions.h</text>
</a>
</g>
</g>
<!-- Node1&#45;&gt;Node31 -->
<g id="edge45_Node000001_Node000031" class="edge">
<title>Node1&#45;&gt;Node31</title>
<g id="a_edge45_Node000001_Node000031"><a xlink:title=" ">
<path fill="none" stroke="#63b8ff" d="M730.39,-466.28C815.98,-457.75 939.41,-443.9 1046.5,-426 1051.07,-425.24 1055.76,-424.39 1060.49,-423.5"/>
<polygon fill="#63b8ff" stroke="#63b8ff" points="730.01,-462.8 720.4,-467.27 730.7,-469.77 730.01,-462.8"/>
</a>
</g>
</g>
<!-- Node32 -->
<g id="Node000032" class="node">
<title>Node32</title>
<g id="a_Node000032"><a xlink:href="properties_8h.html" target="_top" xlink:title=" ">
<polygon fill="white" stroke="#666666" points="1358.5,-426 1230.5,-426 1230.5,-385 1358.5,-385 1358.5,-426"/>
<text text-anchor="start" x="1238.5" y="-414" font-family="Helvetica,sans-Serif" font-size="10.00">/home/runner/work/occ</text>
<text text-anchor="start" x="1238.5" y="-403" font-family="Helvetica,sans-Serif" font-size="10.00">/occ/include/occ/main</text>
<text text-anchor="middle" x="1294.5" y="-392" font-family="Helvetica,sans-Serif" font-size="10.00">/properties.h</text>
</a>
</g>
</g>
<!-- Node1&#45;&gt;Node32 -->
<g id="edge47_Node000001_Node000032" class="edge">
<title>Node1&#45;&gt;Node32</title>
<g id="a_edge47_Node000001_Node000032"><a xlink:title=" ">
<path fill="none" stroke="#63b8ff" d="M730.31,-472.81C850.21,-467.88 1051.12,-455.65 1221.5,-426 1224.34,-425.51 1227.24,-424.95 1230.15,-424.35"/>
<polygon fill="#63b8ff" stroke="#63b8ff" points="729.88,-469.32 720.03,-473.22 730.16,-476.31 729.88,-469.32"/>
</a>
</g>
</g>
<!-- Node33 -->
<g id="Node000033" class="node">
<title>Node33</title>
<g id="a_Node000033"><a xlink:href="scf_8h.html" target="_top" xlink:title=" ">
<polygon fill="white" stroke="#666666" points="1514.5,-420.5 1376.5,-420.5 1376.5,-390.5 1514.5,-390.5 1514.5,-420.5"/>
<text text-anchor="start" x="1384.5" y="-408.5" font-family="Helvetica,sans-Serif" font-size="10.00">/home/runner/work/occ</text>
<text text-anchor="middle" x="1445.5" y="-397.5" font-family="Helvetica,sans-Serif" font-size="10.00">/occ/include/occ/qm/scf.h</text>
</a>
</g>
</g>
<!-- Node1&#45;&gt;Node33 -->
<g id="edge48_Node000001_Node000033" class="edge">
<title>Node1&#45;&gt;Node33</title>
<g id="a_edge48_Node000001_Node000033"><a xlink:title=" ">
<path fill="none" stroke="#63b8ff" d="M730.31,-474.78C875.01,-471.77 1142.38,-461.43 1367.5,-426 1376.46,-424.59 1385.9,-422.64 1395,-420.51"/>
<polygon fill="#63b8ff" stroke="#63b8ff" points="730.03,-471.28 720.11,-474.98 730.17,-478.28 730.03,-471.28"/>
</a>
</g>
</g>
<!-- Node2&#45;&gt;Node3 -->
<g id="edge2_Node000002_Node000003" class="edge">
<title>Node2&#45;&gt;Node3</title>
<g id="a_edge2_Node000002_Node000003"><a xlink:title=" ">
<path fill="none" stroke="#63b8ff" d="M492.22,-225.92C475.07,-215.95 455.52,-204.58 439.34,-195.17"/>
<polygon fill="#63b8ff" stroke="#63b8ff" points="490.54,-228.99 500.94,-230.99 494.06,-222.94 490.54,-228.99"/>
</a>
</g>
</g>
<!-- Node5&#45;&gt;Node3 -->
<g id="edge6_Node000005_Node000003" class="edge">
<title>Node5&#45;&gt;Node3</title>
<g id="a_edge6_Node000005_Node000003"><a xlink:title=" ">
<path fill="none" stroke="#63b8ff" d="M257.88,-297.66C259.61,-276.86 265.03,-249.61 280.5,-231 296.06,-212.28 319.2,-199.66 341.35,-191.24"/>
<polygon fill="#63b8ff" stroke="#63b8ff" points="254.37,-297.68 257.27,-307.87 261.36,-298.1 254.37,-297.68"/>
</a>
</g>
</g>
<!-- Node7 -->
<g id="Node000007" class="node">
<title>Node7</title>
<g id="a_Node000007"><a xlink:href="dft_8h.html" target="_top" xlink:title=" ">
<polygon fill="white" stroke="#666666" points="558.5,-343.5 424.5,-343.5 424.5,-313.5 558.5,-313.5 558.5,-343.5"/>
<text text-anchor="start" x="432.5" y="-331.5" font-family="Helvetica,sans-Serif" font-size="10.00">/home/runner/work/occ</text>
<text text-anchor="middle" x="491.5" y="-320.5" font-family="Helvetica,sans-Serif" font-size="10.00">/occ/include/occ/dft/dft.h</text>
</a>
</g>
</g>
<!-- Node6&#45;&gt;Node7 -->
<g id="edge8_Node000006_Node000007" class="edge">
<title>Node6&#45;&gt;Node7</title>
<g id="a_edge8_Node000006_Node000007"><a xlink:title=" ">
<path fill="none" stroke="#63b8ff" d="M492.1,-374.61C491.96,-364.01 491.81,-352.57 491.69,-343.86"/>
<polygon fill="#63b8ff" stroke="#63b8ff" points="488.6,-374.84 492.24,-384.79 495.6,-374.75 488.6,-374.84"/>
</a>
</g>
</g>
<!-- Node7&#45;&gt;Node2 -->
<g id="edge9_Node000007_Node000002" class="edge">
<title>Node7&#45;&gt;Node2</title>
<g id="a_edge9_Node000007_Node000002"><a xlink:title=" ">
<path fill="none" stroke="#63b8ff" d="M504.68,-304.51C510.61,-294.18 517.52,-282.11 523.2,-272.2"/>
<polygon fill="#63b8ff" stroke="#63b8ff" points="501.53,-302.98 499.59,-313.39 507.6,-306.46 501.53,-302.98"/>
</a>
</g>
</g>
<!-- Node7&#45;&gt;Node8 -->
<g id="edge10_Node000007_Node000008" class="edge">
<title>Node7&#45;&gt;Node8</title>
<g id="a_edge10_Node000007_Node000008"><a xlink:title=" ">
<path fill="none" stroke="#63b8ff" d="M463.23,-307.31C447.98,-296.41 429.23,-283.02 414.09,-272.2"/>
<polygon fill="#63b8ff" stroke="#63b8ff" points="461.58,-310.43 471.75,-313.39 465.65,-304.73 461.58,-310.43"/>
</a>
</g>
</g>
<!-- Node9&#45;&gt;Node3 -->
<g id="edge12_Node000009_Node000003" class="edge">
<title>Node9&#45;&gt;Node3</title>
<g id="a_edge12_Node000009_Node000003"><a xlink:title=" ">
<path fill="none" stroke="#63b8ff" d="M970.93,-231.05C769.28,-200.63 714.49,-220.17 516.5,-195 501.26,-193.06 484.93,-190.48 469.61,-187.83"/>
<polygon fill="#63b8ff" stroke="#63b8ff" points="970.54,-234.53 980.96,-232.59 971.6,-227.61 970.54,-234.53"/>
</a>
</g>
</g>
<!-- Node10 -->
<g id="Node000010" class="node">
<title>Node10</title>
<g id="a_Node000010"><a xlink:href="energy__model__base_8h.html" target="_top" xlink:title=" ">
<polygon fill="white" stroke="#666666" points="1213,-195 1064,-195 1064,-154 1213,-154 1213,-195"/>
<text text-anchor="start" x="1072" y="-183" font-family="Helvetica,sans-Serif" font-size="10.00">/home/runner/work/occ</text>
<text text-anchor="start" x="1072" y="-172" font-family="Helvetica,sans-Serif" font-size="10.00">/occ/include/occ/interaction</text>
<text text-anchor="middle" x="1138.5" y="-161" font-family="Helvetica,sans-Serif" font-size="10.00">/energy_model_base.h</text>
</a>
</g>
</g>
<!-- Node9&#45;&gt;Node10 -->
<g id="edge13_Node000009_Node000010" class="edge">
<title>Node9&#45;&gt;Node10</title>
<g id="a_edge13_Node000009_Node000010"><a xlink:title=" ">
<path fill="none" stroke="#63b8ff" d="M1084.75,-224.07C1095.31,-214.52 1107.04,-203.93 1116.84,-195.07"/>
<polygon fill="#63b8ff" stroke="#63b8ff" points="1082.38,-221.49 1077.31,-230.79 1087.07,-226.69 1082.38,-221.49"/>
</a>
</g>
</g>
<!-- Node12 -->
<g id="Node000012" class="node">
<title>Node12</title>
<g id="a_Node000012"><a xlink:href="lattice__energy_8h.html" target="_top" xlink:title=" ">
<polygon fill="white" stroke="#666666" points="1264,-41 1115,-41 1115,0 1264,0 1264,-41"/>
<text text-anchor="start" x="1123" y="-29" font-family="Helvetica,sans-Serif" font-size="10.00">/home/runner/work/occ</text>
<text text-anchor="start" x="1123" y="-18" font-family="Helvetica,sans-Serif" font-size="10.00">/occ/include/occ/interaction</text>
<text text-anchor="middle" x="1189.5" y="-7" font-family="Helvetica,sans-Serif" font-size="10.00">/lattice_energy.h</text>
</a>
</g>
</g>
<!-- Node9&#45;&gt;Node12 -->
<g id="edge23_Node000009_Node000012" class="edge">
<title>Node9&#45;&gt;Node12</title>
<g id="a_edge23_Node000009_Node000012"><a xlink:title=" ">
<path fill="none" stroke="#63b8ff" d="M1140.21,-229.83C1181.54,-218.91 1226.22,-205.61 1244.5,-195 1287.18,-170.22 1305.18,-163.41 1324.5,-118 1331.63,-101.23 1334.64,-92.14 1324.5,-77 1310.61,-56.26 1287.42,-43.27 1264.14,-35.13"/>
<polygon fill="#63b8ff" stroke="#63b8ff" points="1139.14,-226.49 1130.35,-232.41 1140.91,-233.27 1139.14,-226.49"/>
</a>
</g>
</g>
<!-- Node13 -->
<g id="Node000013" class="node">
<title>Node13</title>
<g id="a_Node000013"><a xlink:href="wolf_8h.html" target="_top" xlink:title=" ">
<polygon fill="white" stroke="#666666" points="1315,-118 1166,-118 1166,-77 1315,-77 1315,-118"/>
<text text-anchor="start" x="1174" y="-106" font-family="Helvetica,sans-Serif" font-size="10.00">/home/runner/work/occ</text>
<text text-anchor="start" x="1174" y="-95" font-family="Helvetica,sans-Serif" font-size="10.00">/occ/include/occ/interaction</text>
<text text-anchor="middle" x="1240.5" y="-84" font-family="Helvetica,sans-Serif" font-size="10.00">/wolf.h</text>
</a>
</g>
</g>
<!-- Node9&#45;&gt;Node13 -->
<g id="edge25_Node000009_Node000013" class="edge">
<title>Node9&#45;&gt;Node13</title>
<g id="a_edge25_Node000009_Node000013"><a xlink:title=" ">
<path fill="none" stroke="#63b8ff" d="M1135.1,-228C1174.96,-216.03 1216.12,-202.31 1222.5,-195 1240.98,-173.81 1243.12,-139.84 1242.3,-118.38"/>
<polygon fill="#63b8ff" stroke="#63b8ff" points="1133.87,-224.71 1125.28,-230.92 1135.87,-231.42 1133.87,-224.71"/>
</a>
</g>
</g>
<!-- Node15 -->
<g id="Node000015" class="node">
<title>Node15</title>
<g id="a_Node000015"><a xlink:href="lattice__convergence__settings_8h.html" target="_top" xlink:title=" ">
<polygon fill="white" stroke="#666666" points="879,-195 708,-195 708,-154 879,-154 879,-195"/>
<text text-anchor="start" x="716" y="-183" font-family="Helvetica,sans-Serif" font-size="10.00">/home/runner/work/occ</text>
<text text-anchor="start" x="716" y="-172" font-family="Helvetica,sans-Serif" font-size="10.00">/occ/include/occ/interaction</text>
<text text-anchor="middle" x="793.5" y="-161" font-family="Helvetica,sans-Serif" font-size="10.00">/lattice_convergence_settings.h</text>
</a>
</g>
</g>
<!-- Node9&#45;&gt;Node15 -->
<g id="edge19_Node000009_Node000015" class="edge">
<title>Node9&#45;&gt;Node15</title>
<g id="a_edge19_Node000009_Node000015"><a xlink:title=" ">
<path fill="none" stroke="#63b8ff" d="M977.65,-228.21C940.83,-217.68 897.28,-205.21 861.77,-195.04"/>
<polygon fill="#63b8ff" stroke="#63b8ff" points="976.77,-231.6 987.35,-230.99 978.7,-224.87 976.77,-231.6"/>
</a>
</g>
</g>
<!-- Node18 -->
<g id="Node000018" class="node">
<title>Node18</title>
<g id="a_Node000018"><a xlink:href="pair__energy__store_8h.html" target="_top" xlink:title=" ">
<polygon fill="white" stroke="#666666" points="1046,-195 897,-195 897,-154 1046,-154 1046,-195"/>
<text text-anchor="start" x="905" y="-183" font-family="Helvetica,sans-Serif" font-size="10.00">/home/runner/work/occ</text>
<text text-anchor="start" x="905" y="-172" font-family="Helvetica,sans-Serif" font-size="10.00">/occ/include/occ/interaction</text>
<text text-anchor="middle" x="971.5" y="-161" font-family="Helvetica,sans-Serif" font-size="10.00">/pair_energy_store.h</text>
</a>
</g>
</g>
<!-- Node9&#45;&gt;Node18 -->
<g id="edge24_Node000009_Node000018" class="edge">
<title>Node9&#45;&gt;Node18</title>
<g id="a_edge24_Node000009_Node000018"><a xlink:title=" ">
<path fill="none" stroke="#63b8ff" d="M1025.9,-224.07C1015.21,-214.52 1003.34,-203.93 993.42,-195.07"/>
<polygon fill="#63b8ff" stroke="#63b8ff" points="1023.64,-226.75 1033.43,-230.79 1028.3,-221.52 1023.64,-226.75"/>
</a>
</g>
</g>
<!-- Node11 -->
<g id="Node000011" class="node">
<title>Node11</title>
<g id="a_Node000011"><a xlink:href="ce__energy__model_8h.html" target="_top" xlink:title=" ">
<polygon fill="white" stroke="#666666" points="1111,-118 962,-118 962,-77 1111,-77 1111,-118"/>
<text text-anchor="start" x="970" y="-106" font-family="Helvetica,sans-Serif" font-size="10.00">/home/runner/work/occ</text>
<text text-anchor="start" x="970" y="-95" font-family="Helvetica,sans-Serif" font-size="10.00">/occ/include/occ/interaction</text>
<text text-anchor="middle" x="1036.5" y="-84" font-family="Helvetica,sans-Serif" font-size="10.00">/ce_energy_model.h</text>
</a>
</g>
</g>
<!-- Node10&#45;&gt;Node11 -->
<g id="edge14_Node000010_Node000011" class="edge">
<title>Node10&#45;&gt;Node11</title>
<g id="a_edge14_Node000010_Node000011"><a xlink:title=" ">
<path fill="none" stroke="#63b8ff" d="M1103.57,-147.82C1090.38,-138.11 1075.58,-127.24 1063.25,-118.17"/>
<polygon fill="#63b8ff" stroke="#63b8ff" points="1101.84,-150.89 1111.97,-153.99 1105.98,-145.25 1101.84,-150.89"/>
</a>
</g>
</g>
<!-- Node10&#45;&gt;Node12 -->
<g id="edge15_Node000010_Node000012" class="edge">
<title>Node10&#45;&gt;Node12</title>
<g id="a_edge15_Node000010_Node000012"><a xlink:title=" ">
<path fill="none" stroke="#63b8ff" d="M1141.8,-143.67C1144.57,-124.24 1149.41,-98.58 1157.5,-77 1162.22,-64.4 1169.63,-51.31 1176.13,-41.01"/>
<polygon fill="#63b8ff" stroke="#63b8ff" points="1138.3,-143.39 1140.47,-153.76 1145.24,-144.3 1138.3,-143.39"/>
</a>
</g>
</g>
<!-- Node10&#45;&gt;Node13 -->
<g id="edge16_Node000010_Node000013" class="edge">
<title>Node10&#45;&gt;Node13</title>
<g id="a_edge16_Node000010_Node000013"><a xlink:title=" ">
<path fill="none" stroke="#63b8ff" d="M1173.43,-147.82C1186.62,-138.11 1201.42,-127.24 1213.75,-118.17"/>
<polygon fill="#63b8ff" stroke="#63b8ff" points="1171.02,-145.25 1165.03,-153.99 1175.16,-150.89 1171.02,-145.25"/>
</a>
</g>
</g>
<!-- Node14 -->
<g id="Node000014" class="node">
<title>Node14</title>
<g id="a_Node000014"><a xlink:href="xtb__energy__model_8h.html" target="_top" xlink:title=" ">
<polygon fill="white" stroke="#666666" points="944,-118 795,-118 795,-77 944,-77 944,-118"/>
<text text-anchor="start" x="803" y="-106" font-family="Helvetica,sans-Serif" font-size="10.00">/home/runner/work/occ</text>
<text text-anchor="start" x="803" y="-95" font-family="Helvetica,sans-Serif" font-size="10.00">/occ/include/occ/interaction</text>
<text text-anchor="middle" x="869.5" y="-84" font-family="Helvetica,sans-Serif" font-size="10.00">/xtb_energy_model.h</text>
</a>
</g>
</g>
<!-- Node10&#45;&gt;Node14 -->
<g id="edge18_Node000010_Node000014" class="edge">
<title>Node10&#45;&gt;Node14</title>
<g id="a_edge18_Node000010_Node000014"><a xlink:title=" ">
<path fill="none" stroke="#63b8ff" d="M1058.57,-151.21C1020.77,-140.68 976.05,-128.21 939.59,-118.04"/>
<polygon fill="#63b8ff" stroke="#63b8ff" points="1057.95,-154.68 1068.53,-153.99 1059.83,-147.93 1057.95,-154.68"/>
</a>
</g>
</g>
<!-- Node13&#45;&gt;Node12 -->
<g id="edge17_Node000013_Node000012" class="edge">
<title>Node13&#45;&gt;Node12</title>
<g id="a_edge17_Node000013_Node000012"><a xlink:title=" ">
<path fill="none" stroke="#63b8ff" d="M1221.39,-68.39C1215.2,-59.3 1208.48,-49.41 1202.81,-41.07"/>
<polygon fill="#63b8ff" stroke="#63b8ff" points="1218.58,-70.49 1227.1,-76.79 1224.37,-66.56 1218.58,-70.49"/>
</a>
</g>
</g>
<!-- Node15&#45;&gt;Node12 -->
<g id="edge20_Node000015_Node000012" class="edge">
<title>Node15&#45;&gt;Node12</title>
<g id="a_edge20_Node000015_Node000012"><a xlink:title=" ">
<path fill="none" stroke="#63b8ff" d="M781.01,-144.42C774.07,-123.23 769.67,-95.16 785.5,-77 827.38,-28.98 1010.1,-21.05 1114.89,-20.57"/>
<polygon fill="#63b8ff" stroke="#63b8ff" points="777.74,-145.68 784.43,-153.9 784.33,-143.31 777.74,-145.68"/>
</a>
</g>
</g>
<!-- Node16 -->
<g id="Node000016" class="node">
<title>Node16</title>
<g id="a_Node000016"><a xlink:href="occ__cg_8h.html" target="_top" xlink:title=" ">
<polygon fill="white" stroke="#666666" points="577.5,-118 449.5,-118 449.5,-77 577.5,-77 577.5,-118"/>
<text text-anchor="start" x="457.5" y="-106" font-family="Helvetica,sans-Serif" font-size="10.00">/home/runner/work/occ</text>
<text text-anchor="start" x="457.5" y="-95" font-family="Helvetica,sans-Serif" font-size="10.00">/occ/include/occ/main</text>
<text text-anchor="middle" x="513.5" y="-84" font-family="Helvetica,sans-Serif" font-size="10.00">/occ_cg.h</text>
</a>
</g>
</g>
<!-- Node15&#45;&gt;Node16 -->
<g id="edge21_Node000015_Node000016" class="edge">
<title>Node15&#45;&gt;Node16</title>
<g id="a_edge21_Node000015_Node000016"><a xlink:title=" ">
<path fill="none" stroke="#63b8ff" d="M710.9,-151.37C668.41,-139.99 617.39,-126.33 577.86,-115.74"/>
<polygon fill="#63b8ff" stroke="#63b8ff" points="710.1,-154.78 720.66,-153.99 711.91,-148.02 710.1,-154.78"/>
</a>
</g>
</g>
<!-- Node17 -->
<g id="Node000017" class="node">
<title>Node17</title>
<g id="a_Node000017"><a xlink:href="occ__elat_8h.html" target="_top" xlink:title=" ">
<polygon fill="white" stroke="#666666" points="739.5,-118 611.5,-118 611.5,-77 739.5,-77 739.5,-118"/>
<text text-anchor="start" x="619.5" y="-106" font-family="Helvetica,sans-Serif" font-size="10.00">/home/runner/work/occ</text>
<text text-anchor="start" x="619.5" y="-95" font-family="Helvetica,sans-Serif" font-size="10.00">/occ/include/occ/main</text>
<text text-anchor="middle" x="675.5" y="-84" font-family="Helvetica,sans-Serif" font-size="10.00">/occ_elat.h</text>
</a>
</g>
</g>
<!-- Node15&#45;&gt;Node17 -->
<g id="edge22_Node000015_Node000017" class="edge">
<title>Node15&#45;&gt;Node17</title>
<g id="a_edge22_Node000015_Node000017"><a xlink:title=" ">
<path fill="none" stroke="#63b8ff" d="M753.96,-148.37C738.48,-138.53 720.99,-127.41 706.45,-118.17"/>
<polygon fill="#63b8ff" stroke="#63b8ff" points="752.49,-151.58 762.8,-153.99 756.24,-145.67 752.49,-151.58"/>
</a>
</g>
</g>
<!-- Node19&#45;&gt;Node3 -->
<g id="edge31_Node000019_Node000003" class="edge">
<title>Node19&#45;&gt;Node3</title>
<g id="a_edge31_Node000019_Node000003"><a xlink:title=" ">
<path fill="none" stroke="#63b8ff" d="M687.02,-302.19C673.99,-293.21 659.72,-282.67 647.5,-272 628.79,-255.66 630.75,-243.87 609.5,-231 585.99,-216.76 520.18,-200.19 469.6,-188.89"/>
<polygon fill="#63b8ff" stroke="#63b8ff" points="685.13,-305.13 695.37,-307.85 689.06,-299.34 685.13,-305.13"/>
</a>
</g>
</g>
<!-- Node19&#45;&gt;Node9 -->
<g id="edge33_Node000019_Node000009" class="edge">
<title>Node19&#45;&gt;Node9</title>
<g id="a_edge33_Node000019_Node000009"><a xlink:title=" ">
<path fill="none" stroke="#63b8ff" d="M810.92,-308.49C858.16,-297.83 918.12,-284.24 971.5,-272 974.56,-271.3 977.69,-270.58 980.85,-269.85"/>
<polygon fill="#63b8ff" stroke="#63b8ff" points="810.02,-305.11 801.04,-310.72 811.57,-311.94 810.02,-305.11"/>
</a>
</g>
</g>
<!-- Node20 -->
<g id="Node000020" class="node">
<title>Node20</title>
<g id="a_Node000020"><a xlink:href="result__types_8h.html" target="_top" xlink:title=" ">
<polygon fill="white" stroke="#666666" points="796,-272 657,-272 657,-231 796,-231 796,-272"/>
<text text-anchor="start" x="665" y="-260" font-family="Helvetica,sans-Serif" font-size="10.00">/home/runner/work/occ</text>
<text text-anchor="start" x="665" y="-249" font-family="Helvetica,sans-Serif" font-size="10.00">/occ/include/occ/cg/result</text>
<text text-anchor="middle" x="726.5" y="-238" font-family="Helvetica,sans-Serif" font-size="10.00">_types.h</text>
</a>
</g>
</g>
<!-- Node19&#45;&gt;Node20 -->
<g id="edge27_Node000019_Node000020" class="edge">
<title>Node19&#45;&gt;Node20</title>
<g id="a_edge27_Node000019_Node000020"><a xlink:title=" ">
<path fill="none" stroke="#63b8ff" d="M726.5,-297.69C726.5,-289.08 726.5,-279.9 726.5,-272.07"/>
<polygon fill="#63b8ff" stroke="#63b8ff" points="723,-297.79 726.5,-307.79 730,-297.79 723,-297.79"/>
</a>
</g>
</g>
<!-- Node22 -->
<g id="Node000022" class="node">
<title>Node22</title>
<g id="a_Node000022"><a xlink:href="interaction__json_8h.html" target="_top" xlink:title=" ">
<polygon fill="white" stroke="#666666" points="963,-272 814,-272 814,-231 963,-231 963,-272"/>
<text text-anchor="start" x="822" y="-260" font-family="Helvetica,sans-Serif" font-size="10.00">/home/runner/work/occ</text>
<text text-anchor="start" x="822" y="-249" font-family="Helvetica,sans-Serif" font-size="10.00">/occ/include/occ/interaction</text>
<text text-anchor="middle" x="888.5" y="-238" font-family="Helvetica,sans-Serif" font-size="10.00">/interaction_json.h</text>
</a>
</g>
</g>
<!-- Node19&#45;&gt;Node22 -->
<g id="edge32_Node000019_Node000022" class="edge">
<title>Node19&#45;&gt;Node22</title>
<g id="a_edge32_Node000019_Node000022"><a xlink:title=" ">
<path fill="none" stroke="#63b8ff" d="M777.86,-303.72C799.91,-293.51 825.36,-281.73 846.29,-272.04"/>
<polygon fill="#63b8ff" stroke="#63b8ff" points="776.24,-300.61 768.64,-307.99 779.19,-306.97 776.24,-300.61"/>
</a>
</g>
</g>
<!-- Node20&#45;&gt;Node3 -->
<g id="edge29_Node000020_Node000003" class="edge">
<title>Node20&#45;&gt;Node3</title>
<g id="a_edge29_Node000020_Node000003"><a xlink:title=" ">
<path fill="none" stroke="#63b8ff" d="M646.92,-232.01C645.43,-231.67 643.96,-231.33 642.5,-231 571.88,-214.81 553.98,-211.79 483.5,-195 479.02,-193.93 474.4,-192.82 469.75,-191.68"/>
<polygon fill="#63b8ff" stroke="#63b8ff" points="646.3,-235.46 656.83,-234.3 647.87,-228.64 646.3,-235.46"/>
</a>
</g>
</g>
<!-- Node20&#45;&gt;Node16 -->
<g id="edge30_Node000020_Node000016" class="edge">
<title>Node20&#45;&gt;Node16</title>
<g id="a_edge30_Node000020_Node000016"><a xlink:title=" ">
<path fill="none" stroke="#63b8ff" d="M647.05,-231.83C589.41,-217.92 520.81,-200.42 516.5,-195 499.29,-173.35 503.02,-139.52 507.84,-118.21"/>
<polygon fill="#63b8ff" stroke="#63b8ff" points="646.39,-235.27 656.93,-234.21 648.02,-228.47 646.39,-235.27"/>
</a>
</g>
</g>
<!-- Node21 -->
<g id="Node000021" class="node">
<title>Node21</title>
<g id="a_Node000021"><a xlink:href="interaction__mapper_8h.html" target="_top" xlink:title=" ">
<polygon fill="white" stroke="#666666" points="689.5,-195 525.5,-195 525.5,-154 689.5,-154 689.5,-195"/>
<text text-anchor="start" x="533.5" y="-183" font-family="Helvetica,sans-Serif" font-size="10.00">/home/runner/work/occ</text>
<text text-anchor="start" x="533.5" y="-172" font-family="Helvetica,sans-Serif" font-size="10.00">/occ/include/occ/cg/interaction</text>
<text text-anchor="middle" x="607.5" y="-161" font-family="Helvetica,sans-Serif" font-size="10.00">_mapper.h</text>
</a>
</g>
</g>
<!-- Node20&#45;&gt;Node21 -->
<g id="edge28_Node000020_Node000021" class="edge">
<title>Node20&#45;&gt;Node21</title>
<g id="a_edge28_Node000020_Node000021"><a xlink:title=" ">
<path fill="none" stroke="#63b8ff" d="M687.06,-225.64C671.34,-215.74 653.51,-204.5 638.71,-195.17"/>
<polygon fill="#63b8ff" stroke="#63b8ff" points="685.22,-228.62 695.54,-230.99 688.95,-222.7 685.22,-228.62"/>
</a>
</g>
</g>
<!-- Node24&#45;&gt;Node3 -->
<g id="edge36_Node000024_Node000003" class="edge">
<title>Node24&#45;&gt;Node3</title>
<g id="a_edge36_Node000024_Node000003"><a xlink:title=" ">
<path fill="none" stroke="#63b8ff" d="M127.6,-302.55C161.68,-281.92 212.3,-252.61 258.5,-231 287.16,-217.6 320.03,-204.94 347.41,-195.11"/>
<polygon fill="#63b8ff" stroke="#63b8ff" points="125.6,-299.68 118.88,-307.87 129.24,-305.66 125.6,-299.68"/>
</a>
</g>
</g>
<!-- Node26 -->
<g id="Node000026" class="node">
<title>Node26</title>
<g id="a_Node000026"><a xlink:href="isosurface_8h.html" target="_top" xlink:title=" ">
<polygon fill="white" stroke="#666666" points="1295,-272 1148,-272 1148,-231 1295,-231 1295,-272"/>
<text text-anchor="start" x="1156" y="-260" font-family="Helvetica,sans-Serif" font-size="10.00">/home/runner/work/occ</text>
<text text-anchor="start" x="1156" y="-249" font-family="Helvetica,sans-Serif" font-size="10.00">/occ/include/occ/isosurface</text>
<text text-anchor="middle" x="1221.5" y="-238" font-family="Helvetica,sans-Serif" font-size="10.00">/isosurface.h</text>
</a>
</g>
</g>
<!-- Node25&#45;&gt;Node26 -->
<g id="edge38_Node000025_Node000026" class="edge">
<title>Node25&#45;&gt;Node26</title>
<g id="a_edge38_Node000025_Node000026"><a xlink:title=" ">
<path fill="none" stroke="#63b8ff" d="M1214.87,-297.69C1216.14,-289.08 1217.48,-279.9 1218.63,-272.07"/>
<polygon fill="#63b8ff" stroke="#63b8ff" points="1211.38,-297.39 1213.39,-307.79 1218.3,-298.41 1211.38,-297.39"/>
</a>
</g>
</g>
<!-- Node27 -->
<g id="Node000027" class="node">
<title>Node27</title>
<g id="a_Node000027"><a xlink:href="obj_8h.html" target="_top" xlink:title=" ">
<polygon fill="white" stroke="#666666" points="1504,-189.5 1371,-189.5 1371,-159.5 1504,-159.5 1504,-189.5"/>
<text text-anchor="start" x="1379" y="-177.5" font-family="Helvetica,sans-Serif" font-size="10.00">/home/runner/work/occ</text>
<text text-anchor="middle" x="1437.5" y="-166.5" font-family="Helvetica,sans-Serif" font-size="10.00">/occ/include/occ/io/obj.h</text>
</a>
</g>
</g>
<!-- Node26&#45;&gt;Node27 -->
<g id="edge39_Node000026_Node000027" class="edge">
<title>Node26&#45;&gt;Node27</title>
<g id="a_edge39_Node000026_Node000027"><a xlink:title=" ">
<path fill="none" stroke="#63b8ff" d="M1287.55,-227.57C1323.24,-215.17 1366.18,-200.26 1396.94,-189.58"/>
<polygon fill="#63b8ff" stroke="#63b8ff" points="1285.99,-224.4 1277.69,-230.99 1288.28,-231.02 1285.99,-224.4"/>
</a>
</g>
</g>
<!-- Node28 -->
<g id="Node000028" class="node">
<title>Node28</title>
<g id="a_Node000028"><a xlink:href="ply_8h.html" target="_top" xlink:title=" ">
<polygon fill="white" stroke="#666666" points="1653,-189.5 1522,-189.5 1522,-159.5 1653,-159.5 1653,-189.5"/>
<text text-anchor="start" x="1530" y="-177.5" font-family="Helvetica,sans-Serif" font-size="10.00">/home/runner/work/occ</text>
<text text-anchor="middle" x="1587.5" y="-166.5" font-family="Helvetica,sans-Serif" font-size="10.00">/occ/include/occ/io/ply.h</text>
</a>
</g>
</g>
<!-- Node26&#45;&gt;Node28 -->
<g id="edge40_Node000026_Node000028" class="edge">
<title>Node26&#45;&gt;Node28</title>
<g id="a_edge40_Node000026_Node000028"><a xlink:title=" ">
<path fill="none" stroke="#63b8ff" d="M1305.24,-236.19C1363.79,-225.79 1443.68,-210.81 1513.5,-195 1520.76,-193.36 1528.38,-191.5 1535.86,-189.6"/>
<polygon fill="#63b8ff" stroke="#63b8ff" points="1304.53,-232.76 1295.3,-237.94 1305.75,-239.65 1304.53,-232.76"/>
</a>
</g>
</g>
<!-- Node29&#45;&gt;Node26 -->
<g id="edge44_Node000029_Node000026" class="edge">
<title>Node29&#45;&gt;Node26</title>
<g id="a_edge44_Node000029_Node000026"><a xlink:title=" ">
<path fill="none" stroke="#63b8ff" d="M977.15,-380.13C1034.52,-350.17 1130.78,-299.89 1183.74,-272.23"/>
<polygon fill="#63b8ff" stroke="#63b8ff" points="975.19,-377.21 967.95,-384.94 978.43,-383.41 975.19,-377.21"/>
</a>
</g>
</g>
<!-- Node30 -->
<g id="Node000030" class="node">
<title>Node30</title>
<g id="a_Node000030"><a xlink:href="deformation__density_8h.html" target="_top" xlink:title=" ">
<polygon fill="white" stroke="#666666" points="1015,-349 868,-349 868,-308 1015,-308 1015,-349"/>
<text text-anchor="start" x="876" y="-337" font-family="Helvetica,sans-Serif" font-size="10.00">/home/runner/work/occ</text>
<text text-anchor="start" x="876" y="-326" font-family="Helvetica,sans-Serif" font-size="10.00">/occ/include/occ/isosurface</text>
<text text-anchor="middle" x="941.5" y="-315" font-family="Helvetica,sans-Serif" font-size="10.00">/deformation_density.h</text>
</a>
</g>
</g>
<!-- Node29&#45;&gt;Node30 -->
<g id="edge42_Node000029_Node000030" class="edge">
<title>Node29&#45;&gt;Node30</title>
<g id="a_edge42_Node000029_Node000030"><a xlink:title=" ">
<path fill="none" stroke="#63b8ff" d="M934.87,-374.69C936.14,-366.08 937.48,-356.9 938.63,-349.07"/>
<polygon fill="#63b8ff" stroke="#63b8ff" points="931.38,-374.39 933.39,-384.79 938.3,-375.41 931.38,-374.39"/>
</a>
</g>
</g>
<!-- Node30&#45;&gt;Node26 -->
<g id="edge43_Node000030_Node000026" class="edge">
<title>Node30&#45;&gt;Node26</title>
<g id="a_edge43_Node000030_Node000026"><a xlink:title=" ">
<path fill="none" stroke="#63b8ff" d="M1024.2,-305.35C1063.65,-294.78 1110.43,-282.25 1148.54,-272.04"/>
<polygon fill="#63b8ff" stroke="#63b8ff" points="1023.09,-302.02 1014.34,-307.99 1024.9,-308.78 1023.09,-302.02"/>
</a>
</g>
</g>
</g>
</svg>
