<?xml version="1.0" encoding="UTF-8" standalone="no"?>
<!DOCTYPE svg PUBLIC "-//W3C//DTD SVG 1.1//EN"
 "http://www.w3.org/Graphics/SVG/1.1/DTD/svg11.dtd">
<!-- Generated by graphviz version 2.43.0 (0)
 -->
<!-- Title: /home/runner/work/occ/occ/include/occ/io/wavefunction_json.h Pages: 1 -->
<svg width="1214pt" height="464pt"
 viewBox="0.00 0.00 1213.86 464.00" xmlns="http://www.w3.org/2000/svg" xmlns:xlink="http://www.w3.org/1999/xlink">
<g id="graph0" class="graph" transform="scale(1 1) rotate(0) translate(4 460)">
<title>/home/runner/work/occ/occ/include/occ/io/wavefunction_json.h</title>
<!-- Node1 -->
<g id="node1" class="node">
<title>Node1</title>
<g id="a_node1"><a xlink:title=" ">
<polygon fill="#bfbfbf" stroke="black" points="309.5,-414.5 309.5,-455.5 484.5,-455.5 484.5,-414.5 309.5,-414.5"/>
<text text-anchor="start" x="317.5" y="-443.5" font-family="Helvetica,sans-Serif" font-size="10.00">/home/runner/work/occ</text>
<text text-anchor="start" x="317.5" y="-432.5" font-family="Helvetica,sans-Serif" font-size="10.00">/occ/include/occ/io/wavefunction</text>
<text text-anchor="middle" x="397" y="-421.5" font-family="Helvetica,sans-Serif" font-size="10.00">_json.h</text>
</a>
</g>
</g>
<!-- Node2 -->
<g id="node2" class="node">
<title>Node2</title>
<g id="a_node2"><a xlink:href="wavefunction_8h.html" target="_top" xlink:title=" ">
<polygon fill="none" stroke="black" points="332,-358.5 332,-377.5 462,-377.5 462,-358.5 332,-358.5"/>
<text text-anchor="middle" x="397" y="-365.5" font-family="Helvetica,sans-Serif" font-size="10.00">occ/qm/wavefunction.h</text>
</a>
</g>
</g>
<!-- Node1&#45;&gt;Node2 -->
<g id="edge1" class="edge">
<title>Node1&#45;&gt;Node2</title>
<path fill="none" stroke="midnightblue" d="M397,-414.5C397,-406.07 397,-396.24 397,-387.87"/>
<polygon fill="midnightblue" stroke="midnightblue" points="400.5,-387.65 397,-377.65 393.5,-387.65 400.5,-387.65"/>
</g>
<!-- Node3 -->
<g id="node3" class="node">
<title>Node3</title>
<g id="a_node3"><a xlink:title=" ">
<polygon fill="none" stroke="#bfbfbf" points="104.5,-123.5 104.5,-142.5 171.5,-142.5 171.5,-123.5 104.5,-123.5"/>
<text text-anchor="middle" x="138" y="-130.5" font-family="Helvetica,sans-Serif" font-size="10.00">fmt/core.h</text>
</a>
</g>
</g>
<!-- Node2&#45;&gt;Node3 -->
<g id="edge2" class="edge">
<title>Node2&#45;&gt;Node3</title>
<path fill="none" stroke="midnightblue" d="M331.93,-363.3C284.02,-358.48 218.38,-347.42 166,-322 131.69,-305.35 116.89,-300.66 101,-266 82.98,-226.69 109.18,-176.69 125.9,-150.97"/>
<polygon fill="midnightblue" stroke="midnightblue" points="128.82,-152.9 131.54,-142.66 123.03,-148.98 128.82,-152.9"/>
</g>
<!-- Node4 -->
<g id="node4" class="node">
<title>Node4</title>
<g id="a_node4"><a xlink:href="linear__algebra_8h.html" target="_top" xlink:title=" ">
<polygon fill="none" stroke="black" points="674.5,-67.5 674.5,-86.5 813.5,-86.5 813.5,-67.5 674.5,-67.5"/>
<text text-anchor="middle" x="744" y="-74.5" font-family="Helvetica,sans-Serif" font-size="10.00">occ/core/linear_algebra.h</text>
</a>
</g>
</g>
<!-- Node2&#45;&gt;Node4 -->
<g id="edge3" class="edge">
<title>Node2&#45;&gt;Node4</title>
<path fill="none" stroke="midnightblue" d="M331.89,-361.57C219.26,-350.36 0,-319.78 0,-251.5 0,-251.5 0,-251.5 0,-188 0,-148.68 24.52,-139.94 60,-123 113.31,-97.54 495.45,-84.5 664.22,-79.93"/>
<polygon fill="midnightblue" stroke="midnightblue" points="664.39,-83.43 674.29,-79.66 664.2,-76.43 664.39,-83.43"/>
</g>
<!-- Node8 -->
<g id="node8" class="node">
<title>Node8</title>
<g id="a_node8"><a xlink:href="fchkreader_8h.html" target="_top" xlink:title=" ">
<polygon fill="none" stroke="black" points="455.5,-302.5 455.5,-321.5 564.5,-321.5 564.5,-302.5 455.5,-302.5"/>
<text text-anchor="middle" x="510" y="-309.5" font-family="Helvetica,sans-Serif" font-size="10.00">occ/io/fchkreader.h</text>
</a>
</g>
</g>
<!-- Node2&#45;&gt;Node8 -->
<g id="edge7" class="edge">
<title>Node2&#45;&gt;Node8</title>
<path fill="none" stroke="midnightblue" d="M414.91,-358.44C433.25,-349.68 462.01,-335.94 483.09,-325.86"/>
<polygon fill="midnightblue" stroke="midnightblue" points="484.67,-328.99 492.18,-321.52 481.65,-322.67 484.67,-328.99"/>
</g>
<!-- Node11 -->
<g id="node11" class="node">
<title>Node11</title>
<g id="a_node11"><a xlink:href="shell_8h.html" target="_top" xlink:title=" ">
<polygon fill="none" stroke="black" points="774.5,-241 774.5,-260 861.5,-260 861.5,-241 774.5,-241"/>
<text text-anchor="middle" x="818" y="-248" font-family="Helvetica,sans-Serif" font-size="10.00">occ/qm/shell.h</text>
</a>
</g>
</g>
<!-- Node2&#45;&gt;Node11 -->
<g id="edge67" class="edge">
<title>Node2&#45;&gt;Node11</title>
<path fill="none" stroke="midnightblue" d="M462.25,-364.19C523.98,-359.91 618.46,-349.14 696,-322 734.73,-308.44 775.08,-282.39 798.3,-266.03"/>
<polygon fill="midnightblue" stroke="midnightblue" points="800.51,-268.75 806.6,-260.08 796.44,-263.06 800.51,-268.75"/>
</g>
<!-- Node24 -->
<g id="node24" class="node">
<title>Node24</title>
<g id="a_node24"><a xlink:href="spinorbital_8h.html" target="_top" xlink:title=" ">
<polygon fill="none" stroke="black" points="304,-241 304,-260 420,-260 420,-241 304,-241"/>
<text text-anchor="middle" x="362" y="-248" font-family="Helvetica,sans-Serif" font-size="10.00">occ/qm/spinorbital.h</text>
</a>
</g>
</g>
<!-- Node2&#45;&gt;Node24 -->
<g id="edge68" class="edge">
<title>Node2&#45;&gt;Node24</title>
<path fill="none" stroke="midnightblue" d="M382.34,-358.4C370.59,-350.58 354.97,-337.86 348,-322 340.57,-305.08 346.42,-284.15 352.67,-269.51"/>
<polygon fill="midnightblue" stroke="midnightblue" points="356,-270.64 357.11,-260.1 349.67,-267.65 356,-270.64"/>
</g>
<!-- Node26 -->
<g id="node26" class="node">
<title>Node26</title>
<g id="a_node26"><a xlink:href="fchkwriter_8h.html" target="_top" xlink:title=" ">
<polygon fill="none" stroke="black" points="759,-302.5 759,-321.5 865,-321.5 865,-302.5 759,-302.5"/>
<text text-anchor="middle" x="812" y="-309.5" font-family="Helvetica,sans-Serif" font-size="10.00">occ/io/fchkwriter.h</text>
</a>
</g>
</g>
<!-- Node2&#45;&gt;Node26 -->
<g id="edge38" class="edge">
<title>Node2&#45;&gt;Node26</title>
<path fill="none" stroke="midnightblue" d="M462.3,-358.5C540.72,-348.3 671.37,-331.3 748.83,-321.22"/>
<polygon fill="midnightblue" stroke="midnightblue" points="749.47,-324.67 758.93,-319.91 748.57,-317.72 749.47,-324.67"/>
</g>
<!-- Node29 -->
<g id="node29" class="node">
<title>Node29</title>
<g id="a_node29"><a xlink:href="moldenreader_8h.html" target="_top" xlink:title=" ">
<polygon fill="none" stroke="black" points="175.5,-302.5 175.5,-321.5 300.5,-321.5 300.5,-302.5 175.5,-302.5"/>
<text text-anchor="middle" x="238" y="-309.5" font-family="Helvetica,sans-Serif" font-size="10.00">occ/io/moldenreader.h</text>
</a>
</g>
</g>
<!-- Node2&#45;&gt;Node29 -->
<g id="edge48" class="edge">
<title>Node2&#45;&gt;Node29</title>
<path fill="none" stroke="midnightblue" d="M371.81,-358.44C345.06,-349.36 302.6,-334.94 272.69,-324.78"/>
<polygon fill="midnightblue" stroke="midnightblue" points="273.67,-321.42 263.08,-321.52 271.42,-328.05 273.67,-321.42"/>
</g>
<!-- Node31 -->
<g id="node31" class="node">
<title>Node31</title>
<g id="a_node31"><a xlink:href="orca__json_8h.html" target="_top" xlink:title=" ">
<polygon fill="none" stroke="black" points="583,-302.5 583,-321.5 687,-321.5 687,-302.5 583,-302.5"/>
<text text-anchor="middle" x="635" y="-309.5" font-family="Helvetica,sans-Serif" font-size="10.00">occ/io/orca_json.h</text>
</a>
</g>
</g>
<!-- Node2&#45;&gt;Node31 -->
<g id="edge56" class="edge">
<title>Node2&#45;&gt;Node31</title>
<path fill="none" stroke="midnightblue" d="M434.71,-358.44C476.14,-349.04 542.76,-333.93 587.67,-323.74"/>
<polygon fill="midnightblue" stroke="midnightblue" points="588.49,-327.14 597.46,-321.52 586.94,-320.32 588.49,-327.14"/>
</g>
<!-- Node32 -->
<g id="node32" class="node">
<title>Node32</title>
<g id="a_node32"><a xlink:href="mo_8h.html" target="_top" xlink:title=" ">
<polygon fill="none" stroke="black" points="357,-302.5 357,-321.5 437,-321.5 437,-302.5 357,-302.5"/>
<text text-anchor="middle" x="397" y="-309.5" font-family="Helvetica,sans-Serif" font-size="10.00">occ/qm/mo.h</text>
</a>
</g>
</g>
<!-- Node2&#45;&gt;Node32 -->
<g id="edge65" class="edge">
<title>Node2&#45;&gt;Node32</title>
<path fill="none" stroke="midnightblue" d="M397,-358.08C397,-351.01 397,-340.86 397,-331.99"/>
<polygon fill="midnightblue" stroke="midnightblue" points="400.5,-331.75 397,-321.75 393.5,-331.75 400.5,-331.75"/>
</g>
<!-- Node5 -->
<g id="node5" class="node">
<title>Node5</title>
<g id="a_node5"><a xlink:title=" ">
<polygon fill="none" stroke="#bfbfbf" points="602.5,-6 602.5,-25 679.5,-25 679.5,-6 602.5,-6"/>
<text text-anchor="middle" x="641" y="-13" font-family="Helvetica,sans-Serif" font-size="10.00">Eigen/Dense</text>
</a>
</g>
</g>
<!-- Node4&#45;&gt;Node5 -->
<g id="edge4" class="edge">
<title>Node4&#45;&gt;Node5</title>
<path fill="none" stroke="midnightblue" d="M729.24,-67.48C712.34,-57.71 684.42,-41.58 664.51,-30.08"/>
<polygon fill="midnightblue" stroke="midnightblue" points="666.14,-26.98 655.73,-25.01 662.64,-33.04 666.14,-26.98"/>
</g>
<!-- Node6 -->
<g id="node6" class="node">
<title>Node6</title>
<g id="a_node6"><a xlink:title=" ">
<polygon fill="none" stroke="#bfbfbf" points="697.5,-6 697.5,-25 790.5,-25 790.5,-6 697.5,-6"/>
<text text-anchor="middle" x="744" y="-13" font-family="Helvetica,sans-Serif" font-size="10.00">Eigen/StdVector</text>
</a>
</g>
</g>
<!-- Node4&#45;&gt;Node6 -->
<g id="edge5" class="edge">
<title>Node4&#45;&gt;Node6</title>
<path fill="none" stroke="midnightblue" d="M744,-67.48C744,-59.08 744,-45.98 744,-35.16"/>
<polygon fill="midnightblue" stroke="midnightblue" points="747.5,-35.01 744,-25.01 740.5,-35.01 747.5,-35.01"/>
</g>
<!-- Node7 -->
<g id="node7" class="node">
<title>Node7</title>
<g id="a_node7"><a xlink:title=" ">
<polygon fill="none" stroke="#bfbfbf" points="808.5,-0.5 808.5,-30.5 915.5,-30.5 915.5,-0.5 808.5,-0.5"/>
<text text-anchor="start" x="816.5" y="-18.5" font-family="Helvetica,sans-Serif" font-size="10.00">occ/3rdparty/eigen</text>
<text text-anchor="middle" x="862" y="-7.5" font-family="Helvetica,sans-Serif" font-size="10.00">&#45;fmt/fmt.h</text>
</a>
</g>
</g>
<!-- Node4&#45;&gt;Node7 -->
<g id="edge6" class="edge">
<title>Node4&#45;&gt;Node7</title>
<path fill="none" stroke="midnightblue" d="M760.91,-67.48C777.56,-59.08 803.55,-45.97 825.01,-35.15"/>
<polygon fill="midnightblue" stroke="midnightblue" points="826.84,-38.15 834.19,-30.52 823.68,-31.9 826.84,-38.15"/>
</g>
<!-- Node8&#45;&gt;Node4 -->
<g id="edge10" class="edge">
<title>Node8&#45;&gt;Node4</title>
<path fill="none" stroke="midnightblue" d="M459.38,-302.48C405.59,-293.06 324.32,-277.67 295,-266 193.48,-225.59 20.45,-202.9 95,-123 133.09,-82.18 499.54,-77.57 664.37,-77.59"/>
<polygon fill="midnightblue" stroke="midnightblue" points="664.45,-81.09 674.45,-77.6 664.45,-74.09 664.45,-81.09"/>
</g>
<!-- Node9 -->
<g id="node9" class="node">
<title>Node9</title>
<g id="a_node9"><a xlink:title=" ">
<polygon fill="none" stroke="#bfbfbf" points="548.5,-241 548.5,-260 603.5,-260 603.5,-241 548.5,-241"/>
<text text-anchor="middle" x="576" y="-248" font-family="Helvetica,sans-Serif" font-size="10.00">fstream</text>
</a>
</g>
</g>
<!-- Node8&#45;&gt;Node9 -->
<g id="edge8" class="edge">
<title>Node8&#45;&gt;Node9</title>
<path fill="none" stroke="midnightblue" d="M519.46,-302.48C529.75,-293.2 546.42,-278.17 558.99,-266.83"/>
<polygon fill="midnightblue" stroke="midnightblue" points="561.48,-269.3 566.56,-260.01 556.79,-264.11 561.48,-269.3"/>
</g>
<!-- Node10 -->
<g id="node10" class="node">
<title>Node10</title>
<g id="a_node10"><a xlink:title=" ">
<polygon fill="none" stroke="#bfbfbf" points="476,-241 476,-260 530,-260 530,-241 476,-241"/>
<text text-anchor="middle" x="503" y="-248" font-family="Helvetica,sans-Serif" font-size="10.00">istream</text>
</a>
</g>
</g>
<!-- Node8&#45;&gt;Node10 -->
<g id="edge9" class="edge">
<title>Node8&#45;&gt;Node10</title>
<path fill="none" stroke="midnightblue" d="M509,-302.48C508.01,-294.08 506.47,-280.98 505.2,-270.16"/>
<polygon fill="midnightblue" stroke="midnightblue" points="508.65,-269.53 504,-260.01 501.69,-270.35 508.65,-269.53"/>
</g>
<!-- Node8&#45;&gt;Node11 -->
<g id="edge11" class="edge">
<title>Node8&#45;&gt;Node11</title>
<path fill="none" stroke="midnightblue" d="M554.13,-302.48C609.63,-291.75 704.88,-273.35 764.48,-261.84"/>
<polygon fill="midnightblue" stroke="midnightblue" points="765.3,-265.25 774.45,-259.91 763.97,-258.37 765.3,-265.25"/>
</g>
<!-- Node23 -->
<g id="node23" class="node">
<title>Node23</title>
<g id="a_node23"><a xlink:title=" ">
<polygon fill="none" stroke="#bfbfbf" points="720.5,-123.5 720.5,-142.5 767.5,-142.5 767.5,-123.5 720.5,-123.5"/>
<text text-anchor="middle" x="744" y="-130.5" font-family="Helvetica,sans-Serif" font-size="10.00">vector</text>
</a>
</g>
</g>
<!-- Node8&#45;&gt;Node23 -->
<g id="edge37" class="edge">
<title>Node8&#45;&gt;Node23</title>
<path fill="none" stroke="midnightblue" d="M498.77,-302.47C481.18,-288.07 450.75,-258.23 467,-235 470.67,-229.76 637.82,-171.01 710.66,-145.6"/>
<polygon fill="midnightblue" stroke="midnightblue" points="711.99,-148.84 720.28,-142.24 709.69,-142.23 711.99,-148.84"/>
</g>
<!-- Node8&#45;&gt;Node24 -->
<g id="edge32" class="edge">
<title>Node8&#45;&gt;Node24</title>
<path fill="none" stroke="midnightblue" d="M488.8,-302.48C463.63,-292.36 421.46,-275.4 392.72,-263.85"/>
<polygon fill="midnightblue" stroke="midnightblue" points="393.75,-260.49 383.17,-260.01 391.14,-266.99 393.75,-260.49"/>
</g>
<!-- Node11&#45;&gt;Node4 -->
<g id="edge16" class="edge">
<title>Node11&#45;&gt;Node4</title>
<path fill="none" stroke="midnightblue" d="M824.87,-240.96C834.56,-227.85 850.4,-201.86 844,-179 836.15,-150.96 830.04,-144.12 810,-123 798.25,-110.61 782.54,-99.73 769.39,-91.77"/>
<polygon fill="midnightblue" stroke="midnightblue" points="770.77,-88.53 760.36,-86.52 767.24,-94.57 770.77,-88.53"/>
</g>
<!-- Node12 -->
<g id="node12" class="node">
<title>Node12</title>
<g id="a_node12"><a xlink:title=" ">
<polygon fill="none" stroke="#bfbfbf" points="1106,-123.5 1106,-142.5 1148,-142.5 1148,-123.5 1106,-123.5"/>
<text text-anchor="middle" x="1127" y="-130.5" font-family="Helvetica,sans-Serif" font-size="10.00">array</text>
</a>
</g>
</g>
<!-- Node11&#45;&gt;Node12 -->
<g id="edge12" class="edge">
<title>Node11&#45;&gt;Node12</title>
<path fill="none" stroke="midnightblue" d="M861.68,-244.46C938.13,-235.26 1089.85,-215.22 1108,-199 1120.99,-187.39 1125.31,-167.43 1126.64,-152.69"/>
<polygon fill="midnightblue" stroke="midnightblue" points="1130.14,-152.82 1127.17,-142.65 1123.15,-152.45 1130.14,-152.82"/>
</g>
<!-- Node13 -->
<g id="node13" class="node">
<title>Node13</title>
<g id="a_node13"><a xlink:title=" ">
<polygon fill="none" stroke="#bfbfbf" points="775,-179.5 775,-198.5 835,-198.5 835,-179.5 775,-179.5"/>
<text text-anchor="middle" x="805" y="-186.5" font-family="Helvetica,sans-Serif" font-size="10.00">iostream</text>
</a>
</g>
</g>
<!-- Node11&#45;&gt;Node13 -->
<g id="edge13" class="edge">
<title>Node11&#45;&gt;Node13</title>
<path fill="none" stroke="midnightblue" d="M816.14,-240.98C814.28,-232.49 811.38,-219.2 809,-208.32"/>
<polygon fill="midnightblue" stroke="midnightblue" points="812.41,-207.53 806.86,-198.51 805.57,-209.03 812.41,-207.53"/>
</g>
<!-- Node14 -->
<g id="node14" class="node">
<title>Node14</title>
<g id="a_node14"><a xlink:href="atom_8h.html" target="_top" xlink:title=" ">
<polygon fill="none" stroke="black" points="891.5,-123.5 891.5,-142.5 986.5,-142.5 986.5,-123.5 891.5,-123.5"/>
<text text-anchor="middle" x="939" y="-130.5" font-family="Helvetica,sans-Serif" font-size="10.00">occ/core/atom.h</text>
</a>
</g>
</g>
<!-- Node11&#45;&gt;Node14 -->
<g id="edge14" class="edge">
<title>Node11&#45;&gt;Node14</title>
<path fill="none" stroke="midnightblue" d="M828.73,-240.87C840.77,-231.06 860.75,-214.39 877,-199 893.87,-183.01 912.12,-163.6 924.42,-150.18"/>
<polygon fill="midnightblue" stroke="midnightblue" points="927.1,-152.43 931.24,-142.68 921.92,-147.72 927.1,-152.43"/>
</g>
<!-- Node15 -->
<g id="node15" class="node">
<title>Node15</title>
<g id="a_node15"><a xlink:href="point__charge_8h.html" target="_top" xlink:title=" ">
<polygon fill="none" stroke="black" points="967,-179.5 967,-198.5 1099,-198.5 1099,-179.5 967,-179.5"/>
<text text-anchor="middle" x="1033" y="-186.5" font-family="Helvetica,sans-Serif" font-size="10.00">occ/core/point_charge.h</text>
</a>
</g>
</g>
<!-- Node11&#45;&gt;Node15 -->
<g id="edge17" class="edge">
<title>Node11&#45;&gt;Node15</title>
<path fill="none" stroke="midnightblue" d="M848.8,-240.98C886.56,-230.53 950.66,-212.79 992.41,-201.23"/>
<polygon fill="midnightblue" stroke="midnightblue" points="993.55,-204.55 1002.25,-198.51 991.68,-197.8 993.55,-204.55"/>
</g>
<!-- Node16 -->
<g id="node16" class="node">
<title>Node16</title>
<g id="a_node16"><a xlink:href="util_8h.html" target="_top" xlink:title=" ">
<polygon fill="none" stroke="black" points="430.5,-179.5 430.5,-198.5 515.5,-198.5 515.5,-179.5 430.5,-179.5"/>
<text text-anchor="middle" x="473" y="-186.5" font-family="Helvetica,sans-Serif" font-size="10.00">occ/core/util.h</text>
</a>
</g>
</g>
<!-- Node11&#45;&gt;Node16 -->
<g id="edge21" class="edge">
<title>Node11&#45;&gt;Node16</title>
<path fill="none" stroke="midnightblue" d="M774.31,-241.96C710.92,-231.03 593.64,-210.81 525.6,-199.07"/>
<polygon fill="midnightblue" stroke="midnightblue" points="525.98,-195.59 515.53,-197.33 524.79,-202.48 525.98,-195.59"/>
</g>
<!-- Node11&#45;&gt;Node23 -->
<g id="edge31" class="edge">
<title>Node11&#45;&gt;Node23</title>
<path fill="none" stroke="midnightblue" d="M806.08,-240.7C794.37,-231.5 776.75,-216.03 766,-199 756.96,-184.68 751.17,-166.21 747.82,-152.63"/>
<polygon fill="midnightblue" stroke="midnightblue" points="751.16,-151.55 745.55,-142.56 744.33,-153.08 751.16,-151.55"/>
</g>
<!-- Node14&#45;&gt;Node4 -->
<g id="edge15" class="edge">
<title>Node14&#45;&gt;Node4</title>
<path fill="none" stroke="midnightblue" d="M908.1,-123.44C874.73,-114.2 821.41,-99.44 784.65,-89.26"/>
<polygon fill="midnightblue" stroke="midnightblue" points="785.33,-85.81 774.75,-86.52 783.46,-92.56 785.33,-85.81"/>
</g>
<!-- Node15&#45;&gt;Node4 -->
<g id="edge20" class="edge">
<title>Node15&#45;&gt;Node4</title>
<path fill="none" stroke="midnightblue" d="M1030.5,-179.2C1025.96,-164.93 1014.93,-136.92 995,-123 967.84,-104.03 886.64,-91.86 823.88,-85.02"/>
<polygon fill="midnightblue" stroke="midnightblue" points="823.89,-81.51 813.58,-83.93 823.16,-88.47 823.89,-81.51"/>
</g>
<!-- Node15&#45;&gt;Node12 -->
<g id="edge18" class="edge">
<title>Node15&#45;&gt;Node12</title>
<path fill="none" stroke="midnightblue" d="M1048.1,-179.32C1062.9,-170.82 1085.69,-157.73 1102.98,-147.8"/>
<polygon fill="midnightblue" stroke="midnightblue" points="1105.01,-150.67 1111.93,-142.65 1101.52,-144.6 1105.01,-150.67"/>
</g>
<!-- Node15&#45;&gt;Node14 -->
<g id="edge19" class="edge">
<title>Node15&#45;&gt;Node14</title>
<path fill="none" stroke="midnightblue" d="M1017.9,-179.32C1003.1,-170.82 980.31,-157.73 963.02,-147.8"/>
<polygon fill="midnightblue" stroke="midnightblue" points="964.48,-144.6 954.07,-142.65 960.99,-150.67 964.48,-144.6"/>
</g>
<!-- Node16&#45;&gt;Node3 -->
<g id="edge24" class="edge">
<title>Node16&#45;&gt;Node3</title>
<path fill="none" stroke="midnightblue" d="M430.23,-181.11C366.4,-170.82 246.83,-151.54 182.19,-141.12"/>
<polygon fill="midnightblue" stroke="midnightblue" points="182.35,-137.6 171.92,-139.47 181.24,-144.51 182.35,-137.6"/>
</g>
<!-- Node16&#45;&gt;Node4 -->
<g id="edge28" class="edge">
<title>Node16&#45;&gt;Node4</title>
<path fill="none" stroke="midnightblue" d="M515.58,-181.07C565.85,-172.43 646.03,-157.09 673,-143 696.03,-130.97 717.28,-109.58 730.41,-94.63"/>
<polygon fill="midnightblue" stroke="midnightblue" points="733.35,-96.58 737.16,-86.69 728.01,-92.05 733.35,-96.58"/>
</g>
<!-- Node17 -->
<g id="node17" class="node">
<title>Node17</title>
<g id="a_node17"><a xlink:title=" ">
<polygon fill="none" stroke="#bfbfbf" points="428,-123.5 428,-142.5 492,-142.5 492,-123.5 428,-123.5"/>
<text text-anchor="middle" x="460" y="-130.5" font-family="Helvetica,sans-Serif" font-size="10.00">algorithm</text>
</a>
</g>
</g>
<!-- Node16&#45;&gt;Node17 -->
<g id="edge22" class="edge">
<title>Node16&#45;&gt;Node17</title>
<path fill="none" stroke="midnightblue" d="M470.85,-179.08C469.13,-171.93 466.65,-161.64 464.5,-152.69"/>
<polygon fill="midnightblue" stroke="midnightblue" points="467.85,-151.65 462.11,-142.75 461.04,-153.29 467.85,-151.65"/>
</g>
<!-- Node18 -->
<g id="node18" class="node">
<title>Node18</title>
<g id="a_node18"><a xlink:title=" ">
<polygon fill="none" stroke="#bfbfbf" points="510.5,-123.5 510.5,-142.5 559.5,-142.5 559.5,-123.5 510.5,-123.5"/>
<text text-anchor="middle" x="535" y="-130.5" font-family="Helvetica,sans-Serif" font-size="10.00">cctype</text>
</a>
</g>
</g>
<!-- Node16&#45;&gt;Node18 -->
<g id="edge23" class="edge">
<title>Node16&#45;&gt;Node18</title>
<path fill="none" stroke="midnightblue" d="M482.96,-179.32C492.13,-171.34 505.94,-159.31 517.03,-149.65"/>
<polygon fill="midnightblue" stroke="midnightblue" points="519.62,-152.04 524.86,-142.83 515.02,-146.76 519.62,-152.04"/>
</g>
<!-- Node19 -->
<g id="node19" class="node">
<title>Node19</title>
<g id="a_node19"><a xlink:title=" ">
<polygon fill="none" stroke="#bfbfbf" points="578,-123.5 578,-142.5 664,-142.5 664,-123.5 578,-123.5"/>
<text text-anchor="middle" x="621" y="-130.5" font-family="Helvetica,sans-Serif" font-size="10.00">fmt/ostream.h</text>
</a>
</g>
</g>
<!-- Node16&#45;&gt;Node19 -->
<g id="edge25" class="edge">
<title>Node16&#45;&gt;Node19</title>
<path fill="none" stroke="midnightblue" d="M496.45,-179.44C521.13,-170.44 560.19,-156.19 587.98,-146.05"/>
<polygon fill="midnightblue" stroke="midnightblue" points="589.46,-149.23 597.66,-142.52 587.06,-142.66 589.46,-149.23"/>
</g>
<!-- Node20 -->
<g id="node20" class="node">
<title>Node20</title>
<g id="a_node20"><a xlink:title=" ">
<polygon fill="none" stroke="#bfbfbf" points="290,-123.5 290,-142.5 336,-142.5 336,-123.5 290,-123.5"/>
<text text-anchor="middle" x="313" y="-130.5" font-family="Helvetica,sans-Serif" font-size="10.00">locale</text>
</a>
</g>
</g>
<!-- Node16&#45;&gt;Node20 -->
<g id="edge26" class="edge">
<title>Node16&#45;&gt;Node20</title>
<path fill="none" stroke="midnightblue" d="M447.65,-179.44C420.1,-170.15 375.98,-155.26 345.81,-145.07"/>
<polygon fill="midnightblue" stroke="midnightblue" points="346.75,-141.7 336.16,-141.82 344.51,-148.33 346.75,-141.7"/>
</g>
<!-- Node21 -->
<g id="node21" class="node">
<title>Node21</title>
<g id="a_node21"><a xlink:title=" ">
<polygon fill="none" stroke="#bfbfbf" points="354,-123.5 354,-142.5 410,-142.5 410,-123.5 354,-123.5"/>
<text text-anchor="middle" x="382" y="-130.5" font-family="Helvetica,sans-Serif" font-size="10.00">numeric</text>
</a>
</g>
</g>
<!-- Node16&#45;&gt;Node21 -->
<g id="edge27" class="edge">
<title>Node16&#45;&gt;Node21</title>
<path fill="none" stroke="midnightblue" d="M458.38,-179.32C444.05,-170.82 421.99,-157.73 405.25,-147.8"/>
<polygon fill="midnightblue" stroke="midnightblue" points="406.97,-144.75 396.58,-142.65 403.4,-150.77 406.97,-144.75"/>
</g>
<!-- Node22 -->
<g id="node22" class="node">
<title>Node22</title>
<g id="a_node22"><a xlink:title=" ">
<polygon fill="none" stroke="#bfbfbf" points="228,-123.5 228,-142.5 272,-142.5 272,-123.5 228,-123.5"/>
<text text-anchor="middle" x="250" y="-130.5" font-family="Helvetica,sans-Serif" font-size="10.00">string</text>
</a>
</g>
</g>
<!-- Node16&#45;&gt;Node22 -->
<g id="edge29" class="edge">
<title>Node16&#45;&gt;Node22</title>
<path fill="none" stroke="midnightblue" d="M433.87,-179.46C397.02,-171.28 340.06,-158.27 282.01,-143.17"/>
<polygon fill="midnightblue" stroke="midnightblue" points="282.87,-139.78 272.31,-140.63 281.1,-146.55 282.87,-139.78"/>
</g>
<!-- Node16&#45;&gt;Node23 -->
<g id="edge30" class="edge">
<title>Node16&#45;&gt;Node23</title>
<path fill="none" stroke="midnightblue" d="M515.63,-180.32C562.43,-171.76 639.74,-157.24 706,-143 707.45,-142.69 708.93,-142.36 710.42,-142.03"/>
<polygon fill="midnightblue" stroke="midnightblue" points="711.35,-145.41 720.32,-139.77 709.79,-138.59 711.35,-145.41"/>
</g>
<!-- Node24&#45;&gt;Node4 -->
<g id="edge33" class="edge">
<title>Node24&#45;&gt;Node4</title>
<path fill="none" stroke="midnightblue" d="M338.03,-241C286.67,-221.58 174.17,-171.84 219,-123 248.46,-90.91 524.74,-81.66 664.23,-79.03"/>
<polygon fill="midnightblue" stroke="midnightblue" points="664.5,-82.52 674.44,-78.84 664.38,-75.52 664.5,-82.52"/>
</g>
<!-- Node24&#45;&gt;Node16 -->
<g id="edge34" class="edge">
<title>Node24&#45;&gt;Node16</title>
<path fill="none" stroke="midnightblue" d="M377.9,-240.98C396.28,-231.12 426.76,-214.79 448.24,-203.27"/>
<polygon fill="midnightblue" stroke="midnightblue" points="449.97,-206.32 457.13,-198.51 446.66,-200.15 449.97,-206.32"/>
</g>
<!-- Node25 -->
<g id="node25" class="node">
<title>Node25</title>
<g id="a_node25"><a xlink:href="qm_2opmatrix_8h.html" target="_top" xlink:title=" ">
<polygon fill="none" stroke="black" points="266,-179.5 266,-198.5 374,-198.5 374,-179.5 266,-179.5"/>
<text text-anchor="middle" x="320" y="-186.5" font-family="Helvetica,sans-Serif" font-size="10.00">occ/qm/opmatrix.h</text>
</a>
</g>
</g>
<!-- Node24&#45;&gt;Node25 -->
<g id="edge35" class="edge">
<title>Node24&#45;&gt;Node25</title>
<path fill="none" stroke="midnightblue" d="M351.08,-240.98C343,-232.23 332.78,-218.37 326.02,-207.31"/>
<polygon fill="midnightblue" stroke="midnightblue" points="329.04,-205.53 321.11,-198.51 322.93,-208.95 329.04,-205.53"/>
</g>
<!-- Node25&#45;&gt;Node24 -->
<g id="edge36" class="edge">
<title>Node25&#45;&gt;Node24</title>
<path fill="none" stroke="midnightblue" d="M330.9,-198.51C338.98,-207.25 349.2,-221.11 355.96,-232.17"/>
<polygon fill="midnightblue" stroke="midnightblue" points="352.95,-233.95 360.88,-240.98 359.06,-230.54 352.95,-233.95"/>
</g>
<!-- Node26&#45;&gt;Node4 -->
<g id="edge43" class="edge">
<title>Node26&#45;&gt;Node4</title>
<path fill="none" stroke="midnightblue" d="M865.15,-308.71C966.43,-303.8 1179.04,-290.65 1201,-266 1210.17,-255.71 1203.56,-248.54 1201,-235 1191.05,-182.45 1199.49,-155.47 1157,-123 1106.39,-84.33 929.03,-77.6 823.91,-77.14"/>
<polygon fill="midnightblue" stroke="midnightblue" points="823.66,-73.64 813.65,-77.12 823.64,-80.64 823.66,-73.64"/>
</g>
<!-- Node26&#45;&gt;Node9 -->
<g id="edge40" class="edge">
<title>Node26&#45;&gt;Node9</title>
<path fill="none" stroke="midnightblue" d="M778.19,-302.48C734.58,-291.48 658.97,-272.42 613.6,-260.98"/>
<polygon fill="midnightblue" stroke="midnightblue" points="614.41,-257.57 603.85,-258.52 612.69,-264.36 614.41,-257.57"/>
</g>
<!-- Node26&#45;&gt;Node10 -->
<g id="edge41" class="edge">
<title>Node26&#45;&gt;Node10</title>
<path fill="none" stroke="midnightblue" d="M758.92,-305.74C703.35,-299.44 613.93,-286.99 539,-266 536.56,-265.32 534.06,-264.52 531.57,-263.66"/>
<polygon fill="midnightblue" stroke="midnightblue" points="532.75,-260.37 522.16,-260.12 530.29,-266.92 532.75,-260.37"/>
</g>
<!-- Node26&#45;&gt;Node11 -->
<g id="edge44" class="edge">
<title>Node26&#45;&gt;Node11</title>
<path fill="none" stroke="midnightblue" d="M812.86,-302.48C813.71,-294.08 815.03,-280.98 816.12,-270.16"/>
<polygon fill="midnightblue" stroke="midnightblue" points="819.62,-270.31 817.14,-260.01 812.66,-269.61 819.62,-270.31"/>
</g>
<!-- Node26&#45;&gt;Node12 -->
<g id="edge39" class="edge">
<title>Node26&#45;&gt;Node12</title>
<path fill="none" stroke="midnightblue" d="M830.51,-302.44C863.35,-287.47 934.18,-256.1 996,-235 1053.55,-215.35 1091.09,-247.33 1128,-199 1138.04,-185.85 1136.26,-166.44 1132.89,-152.25"/>
<polygon fill="midnightblue" stroke="midnightblue" points="1136.26,-151.3 1130.18,-142.62 1129.52,-153.19 1136.26,-151.3"/>
</g>
<!-- Node26&#45;&gt;Node23 -->
<g id="edge47" class="edge">
<title>Node26&#45;&gt;Node23</title>
<path fill="none" stroke="midnightblue" d="M799.05,-302.25C788.16,-294.16 773.11,-281.13 765,-266 745.42,-229.48 742.94,-179.68 743.23,-152.9"/>
<polygon fill="midnightblue" stroke="midnightblue" points="746.73,-152.72 743.49,-142.64 739.74,-152.54 746.73,-152.72"/>
</g>
<!-- Node26&#45;&gt;Node24 -->
<g id="edge45" class="edge">
<title>Node26&#45;&gt;Node24</title>
<path fill="none" stroke="midnightblue" d="M758.79,-304.19C691.01,-295.48 570.27,-279.87 467,-266 455.1,-264.4 442.45,-262.68 430.2,-260.99"/>
<polygon fill="midnightblue" stroke="midnightblue" points="430.41,-257.49 420.03,-259.59 429.46,-264.43 430.41,-257.49"/>
</g>
<!-- Node27 -->
<g id="node27" class="node">
<title>Node27</title>
<g id="a_node27"><a xlink:title=" ">
<polygon fill="none" stroke="#bfbfbf" points="1005.5,-235.5 1005.5,-265.5 1122.5,-265.5 1122.5,-235.5 1005.5,-235.5"/>
<text text-anchor="start" x="1013.5" y="-253.5" font-family="Helvetica,sans-Serif" font-size="10.00">occ/3rdparty/parallel</text>
<text text-anchor="middle" x="1064" y="-242.5" font-family="Helvetica,sans-Serif" font-size="10.00">_hashmap/phmap.h</text>
</a>
</g>
</g>
<!-- Node26&#45;&gt;Node27 -->
<g id="edge42" class="edge">
<title>Node26&#45;&gt;Node27</title>
<path fill="none" stroke="midnightblue" d="M848.11,-302.48C886.35,-293.45 947.65,-278.97 995.17,-267.75"/>
<polygon fill="midnightblue" stroke="midnightblue" points="996.17,-271.11 1005.09,-265.41 994.56,-264.3 996.17,-271.11"/>
</g>
<!-- Node28 -->
<g id="node28" class="node">
<title>Node28</title>
<g id="a_node28"><a xlink:title=" ">
<polygon fill="none" stroke="#bfbfbf" points="1140.5,-241 1140.5,-260 1191.5,-260 1191.5,-241 1140.5,-241"/>
<text text-anchor="middle" x="1166" y="-248" font-family="Helvetica,sans-Serif" font-size="10.00">variant</text>
</a>
</g>
</g>
<!-- Node26&#45;&gt;Node28 -->
<g id="edge46" class="edge">
<title>Node26&#45;&gt;Node28</title>
<path fill="none" stroke="midnightblue" d="M865.25,-307.81C929.48,-302.99 1040.25,-291.53 1132,-266 1134.3,-265.36 1136.64,-264.6 1138.97,-263.77"/>
<polygon fill="midnightblue" stroke="midnightblue" points="1140.3,-267.01 1148.32,-260.08 1137.73,-260.5 1140.3,-267.01"/>
</g>
<!-- Node29&#45;&gt;Node4 -->
<g id="edge50" class="edge">
<title>Node29&#45;&gt;Node4</title>
<path fill="none" stroke="midnightblue" d="M175.28,-303.38C149.22,-297.22 120.55,-286.1 101,-266 56.11,-219.87 34.04,-170.03 78,-123 117.28,-80.97 496.32,-77.07 664.41,-77.43"/>
<polygon fill="midnightblue" stroke="midnightblue" points="664.44,-80.93 674.45,-77.46 664.46,-73.93 664.44,-80.93"/>
</g>
<!-- Node29&#45;&gt;Node10 -->
<g id="edge49" class="edge">
<title>Node29&#45;&gt;Node10</title>
<path fill="none" stroke="midnightblue" d="M275.97,-302.48C326.71,-291.08 416.06,-271.02 466.2,-259.76"/>
<polygon fill="midnightblue" stroke="midnightblue" points="466.99,-263.17 475.98,-257.57 465.46,-256.34 466.99,-263.17"/>
</g>
<!-- Node29&#45;&gt;Node11 -->
<g id="edge51" class="edge">
<title>Node29&#45;&gt;Node11</title>
<path fill="none" stroke="midnightblue" d="M300.62,-304.58C415.26,-292.82 656.95,-268.02 764.47,-256.99"/>
<polygon fill="midnightblue" stroke="midnightblue" points="764.86,-260.47 774.45,-255.97 764.14,-253.51 764.86,-260.47"/>
</g>
<!-- Node29&#45;&gt;Node22 -->
<g id="edge54" class="edge">
<title>Node29&#45;&gt;Node22</title>
<path fill="none" stroke="midnightblue" d="M238.58,-302.46C240.41,-275.43 246.12,-191.24 248.7,-153.11"/>
<polygon fill="midnightblue" stroke="midnightblue" points="252.21,-153.08 249.4,-142.87 245.23,-152.61 252.21,-153.08"/>
</g>
<!-- Node29&#45;&gt;Node23 -->
<g id="edge55" class="edge">
<title>Node29&#45;&gt;Node23</title>
<path fill="none" stroke="midnightblue" d="M241.82,-302.19C249.37,-285.91 267.87,-251.32 295,-235 383.28,-181.89 427,-233.73 524,-199 540.51,-193.09 541.75,-185.58 558,-179 572.05,-173.31 660.61,-152.86 710.3,-141.59"/>
<polygon fill="midnightblue" stroke="midnightblue" points="711.29,-144.95 720.27,-139.33 709.74,-138.13 711.29,-144.95"/>
</g>
<!-- Node29&#45;&gt;Node24 -->
<g id="edge52" class="edge">
<title>Node29&#45;&gt;Node24</title>
<path fill="none" stroke="midnightblue" d="M255.77,-302.48C276.48,-292.53 310.95,-275.99 334.99,-264.46"/>
<polygon fill="midnightblue" stroke="midnightblue" points="336.77,-267.49 344.27,-260.01 333.74,-261.18 336.77,-267.49"/>
</g>
<!-- Node30 -->
<g id="node30" class="node">
<title>Node30</title>
<g id="a_node30"><a xlink:title=" ">
<polygon fill="none" stroke="#bfbfbf" points="110,-241 110,-260 166,-260 166,-241 110,-241"/>
<text text-anchor="middle" x="138" y="-248" font-family="Helvetica,sans-Serif" font-size="10.00">optional</text>
</a>
</g>
</g>
<!-- Node29&#45;&gt;Node30 -->
<g id="edge53" class="edge">
<title>Node29&#45;&gt;Node30</title>
<path fill="none" stroke="midnightblue" d="M223.67,-302.48C207.34,-292.75 180.4,-276.73 161.09,-265.24"/>
<polygon fill="midnightblue" stroke="midnightblue" points="162.68,-262.11 152.3,-260.01 159.11,-268.13 162.68,-262.11"/>
</g>
<!-- Node31&#45;&gt;Node4 -->
<g id="edge60" class="edge">
<title>Node31&#45;&gt;Node4</title>
<path fill="none" stroke="midnightblue" d="M646.69,-302.5C676,-280.32 751.95,-217.26 776,-143 781.59,-125.72 770.7,-107.26 760.14,-94.44"/>
<polygon fill="midnightblue" stroke="midnightblue" points="762.69,-92.04 753.42,-86.91 757.46,-96.7 762.69,-92.04"/>
</g>
<!-- Node31&#45;&gt;Node9 -->
<g id="edge57" class="edge">
<title>Node31&#45;&gt;Node9</title>
<path fill="none" stroke="midnightblue" d="M626.55,-302.48C617.43,-293.28 602.73,-278.46 591.52,-267.16"/>
<polygon fill="midnightblue" stroke="midnightblue" points="593.96,-264.65 584.44,-260.01 588.99,-269.57 593.96,-264.65"/>
</g>
<!-- Node31&#45;&gt;Node10 -->
<g id="edge58" class="edge">
<title>Node31&#45;&gt;Node10</title>
<path fill="none" stroke="midnightblue" d="M616.09,-302.48C593.84,-292.45 556.69,-275.7 531.07,-264.15"/>
<polygon fill="midnightblue" stroke="midnightblue" points="532.43,-260.93 521.88,-260.01 529.56,-267.31 532.43,-260.93"/>
</g>
<!-- Node31&#45;&gt;Node11 -->
<g id="edge61" class="edge">
<title>Node31&#45;&gt;Node11</title>
<path fill="none" stroke="midnightblue" d="M661.22,-302.48C693.02,-292.14 746.77,-274.66 782.32,-263.1"/>
<polygon fill="midnightblue" stroke="midnightblue" points="783.4,-266.43 791.83,-260.01 781.24,-259.77 783.4,-266.43"/>
</g>
<!-- Node31&#45;&gt;Node14 -->
<g id="edge59" class="edge">
<title>Node31&#45;&gt;Node14</title>
<path fill="none" stroke="midnightblue" d="M687.15,-306.31C747.33,-300 841.66,-287.06 870,-266 908.11,-237.68 927.05,-182.07 934.71,-152.89"/>
<polygon fill="midnightblue" stroke="midnightblue" points="938.2,-153.34 937.19,-142.8 931.41,-151.68 938.2,-153.34"/>
</g>
<!-- Node31&#45;&gt;Node22 -->
<g id="edge63" class="edge">
<title>Node31&#45;&gt;Node22</title>
<path fill="none" stroke="midnightblue" d="M635.1,-302.44C634.78,-286.59 631.69,-252.68 612,-235 547.72,-177.29 502.57,-227.43 421,-199 402.98,-192.72 400.54,-186.53 383,-179 364.58,-171.09 314.92,-154.77 281.77,-144.11"/>
<polygon fill="midnightblue" stroke="midnightblue" points="282.66,-140.72 272.07,-141 280.52,-147.38 282.66,-140.72"/>
</g>
<!-- Node31&#45;&gt;Node23 -->
<g id="edge64" class="edge">
<title>Node31&#45;&gt;Node23</title>
<path fill="none" stroke="midnightblue" d="M640.26,-302.46C657.12,-275.08 710.1,-189.05 733.13,-151.65"/>
<polygon fill="midnightblue" stroke="midnightblue" points="736.28,-153.22 738.54,-142.87 730.31,-149.55 736.28,-153.22"/>
</g>
<!-- Node31&#45;&gt;Node24 -->
<g id="edge62" class="edge">
<title>Node31&#45;&gt;Node24</title>
<path fill="none" stroke="midnightblue" d="M595.89,-302.48C547.13,-291.85 463.79,-273.68 410.88,-262.15"/>
<polygon fill="midnightblue" stroke="midnightblue" points="411.56,-258.72 401.04,-260.01 410.07,-265.56 411.56,-258.72"/>
</g>
<!-- Node32&#45;&gt;Node24 -->
<g id="edge66" class="edge">
<title>Node32&#45;&gt;Node24</title>
<path fill="none" stroke="midnightblue" d="M391.99,-302.48C386.84,-293.73 378.69,-279.87 372.18,-268.81"/>
<polygon fill="midnightblue" stroke="midnightblue" points="375.09,-266.85 367.01,-260.01 369.06,-270.4 375.09,-266.85"/>
</g>
</g>
</svg>
