<?xml version="1.0" encoding="UTF-8" standalone="no"?>
<!DOCTYPE svg PUBLIC "-//W3C//DTD SVG 1.1//EN"
 "http://www.w3.org/Graphics/SVG/1.1/DTD/svg11.dtd">
<!-- Generated by graphviz version 2.43.0 (0)
 -->
<!-- Title: /home/runner/work/occ/occ/include/occ/dft/xc_potential_matrix.h Pages: 1 -->
<svg width="1550pt" height="397pt"
 viewBox="0.00 0.00 1550.00 397.00" xmlns="http://www.w3.org/2000/svg" xmlns:xlink="http://www.w3.org/1999/xlink">
<g id="graph0" class="graph" transform="scale(1 1) rotate(0) translate(4 393)">
<title>/home/runner/work/occ/occ/include/occ/dft/xc_potential_matrix.h</title>
<!-- Node1 -->
<g id="node1" class="node">
<title>Node1</title>
<g id="a_node1"><a xlink:title=" ">
<polygon fill="#bfbfbf" stroke="black" points="199,-347.5 199,-388.5 327,-388.5 327,-347.5 199,-347.5"/>
<text text-anchor="start" x="207" y="-376.5" font-family="Helvetica,sans-Serif" font-size="10.00">/home/runner/work/occ</text>
<text text-anchor="start" x="207" y="-365.5" font-family="Helvetica,sans-Serif" font-size="10.00">/occ/include/occ/dft</text>
<text text-anchor="middle" x="263" y="-354.5" font-family="Helvetica,sans-Serif" font-size="10.00">/xc_potential_matrix.h</text>
</a>
</g>
</g>
<!-- Node2 -->
<g id="node2" class="node">
<title>Node2</title>
<g id="a_node2"><a xlink:href="linear__algebra_8h.html" target="_top" xlink:title=" ">
<polygon fill="none" stroke="black" points="759.5,-56.5 759.5,-75.5 898.5,-75.5 898.5,-56.5 759.5,-56.5"/>
<text text-anchor="middle" x="829" y="-63.5" font-family="Helvetica,sans-Serif" font-size="10.00">occ/core/linear_algebra.h</text>
</a>
</g>
</g>
<!-- Node1&#45;&gt;Node2 -->
<g id="edge1" class="edge">
<title>Node1&#45;&gt;Node2</title>
<path fill="none" stroke="midnightblue" d="M199,-363.48C121.15,-355.34 0,-328.53 0,-240.5 0,-240.5 0,-240.5 0,-177 0,-101.91 541.4,-76.35 749.16,-69.3"/>
<polygon fill="midnightblue" stroke="midnightblue" points="749.51,-72.79 759.39,-68.96 749.28,-65.8 749.51,-72.79"/>
</g>
<!-- Node6 -->
<g id="node6" class="node">
<title>Node6</title>
<g id="a_node6"><a xlink:href="functional_8h.html" target="_top" xlink:title=" ">
<polygon fill="none" stroke="black" points="249,-291.5 249,-310.5 359,-310.5 359,-291.5 249,-291.5"/>
<text text-anchor="middle" x="304" y="-298.5" font-family="Helvetica,sans-Serif" font-size="10.00">occ/dft/functional.h</text>
</a>
</g>
</g>
<!-- Node1&#45;&gt;Node6 -->
<g id="edge5" class="edge">
<title>Node1&#45;&gt;Node6</title>
<path fill="none" stroke="midnightblue" d="M275.3,-347.5C280.98,-338.49 287.67,-327.89 293.16,-319.19"/>
<polygon fill="midnightblue" stroke="midnightblue" points="296.17,-320.98 298.54,-310.65 290.25,-317.24 296.17,-320.98"/>
</g>
<!-- Node10 -->
<g id="node10" class="node">
<title>Node10</title>
<g id="a_node10"><a xlink:href="spinorbital_8h.html" target="_top" xlink:title=" ">
<polygon fill="none" stroke="black" points="28,-230 28,-249 144,-249 144,-230 28,-230"/>
<text text-anchor="middle" x="86" y="-237" font-family="Helvetica,sans-Serif" font-size="10.00">occ/qm/spinorbital.h</text>
</a>
</g>
</g>
<!-- Node1&#45;&gt;Node10 -->
<g id="edge54" class="edge">
<title>Node1&#45;&gt;Node10</title>
<path fill="none" stroke="midnightblue" d="M235.34,-347.23C199.62,-321.7 138.25,-277.84 106.45,-255.11"/>
<polygon fill="midnightblue" stroke="midnightblue" points="108.48,-252.26 98.31,-249.29 104.41,-257.96 108.48,-252.26"/>
</g>
<!-- Node21 -->
<g id="node21" class="node">
<title>Node21</title>
<g id="a_node21"><a xlink:href="gto_8h.html" target="_top" xlink:title=" ">
<polygon fill="none" stroke="black" points="843,-291.5 843,-310.5 923,-310.5 923,-291.5 843,-291.5"/>
<text text-anchor="middle" x="883" y="-298.5" font-family="Helvetica,sans-Serif" font-size="10.00">occ/gto/gto.h</text>
</a>
</g>
</g>
<!-- Node1&#45;&gt;Node21 -->
<g id="edge27" class="edge">
<title>Node1&#45;&gt;Node21</title>
<path fill="none" stroke="midnightblue" d="M327.02,-360.29C450.78,-347.31 720.52,-319.03 832.6,-307.28"/>
<polygon fill="midnightblue" stroke="midnightblue" points="833.05,-310.76 842.63,-306.23 832.32,-303.79 833.05,-310.76"/>
</g>
<!-- Node3 -->
<g id="node3" class="node">
<title>Node3</title>
<g id="a_node3"><a xlink:title=" ">
<polygon fill="none" stroke="#bfbfbf" points="739.5,-0.5 739.5,-19.5 816.5,-19.5 816.5,-0.5 739.5,-0.5"/>
<text text-anchor="middle" x="778" y="-7.5" font-family="Helvetica,sans-Serif" font-size="10.00">Eigen/Dense</text>
</a>
</g>
</g>
<!-- Node2&#45;&gt;Node3 -->
<g id="edge2" class="edge">
<title>Node2&#45;&gt;Node3</title>
<path fill="none" stroke="midnightblue" d="M820.58,-56.08C813.15,-48.22 802.15,-36.57 793.19,-27.08"/>
<polygon fill="midnightblue" stroke="midnightblue" points="795.68,-24.62 786.26,-19.75 790.59,-29.42 795.68,-24.62"/>
</g>
<!-- Node4 -->
<g id="node4" class="node">
<title>Node4</title>
<g id="a_node4"><a xlink:title=" ">
<polygon fill="none" stroke="#bfbfbf" points="834.5,-0.5 834.5,-19.5 927.5,-19.5 927.5,-0.5 834.5,-0.5"/>
<text text-anchor="middle" x="881" y="-7.5" font-family="Helvetica,sans-Serif" font-size="10.00">Eigen/StdVector</text>
</a>
</g>
</g>
<!-- Node2&#45;&gt;Node4 -->
<g id="edge3" class="edge">
<title>Node2&#45;&gt;Node4</title>
<path fill="none" stroke="midnightblue" d="M837.59,-56.08C845.16,-48.22 856.38,-36.57 865.51,-27.08"/>
<polygon fill="midnightblue" stroke="midnightblue" points="868.16,-29.38 872.57,-19.75 863.12,-24.53 868.16,-29.38"/>
</g>
<!-- Node5 -->
<g id="node5" class="node">
<title>Node5</title>
<g id="a_node5"><a xlink:title=" ">
<polygon fill="none" stroke="#bfbfbf" points="1029,-0.5 1029,-19.5 1115,-19.5 1115,-0.5 1029,-0.5"/>
<text text-anchor="middle" x="1072" y="-7.5" font-family="Helvetica,sans-Serif" font-size="10.00">fmt/ostream.h</text>
</a>
</g>
</g>
<!-- Node2&#45;&gt;Node5 -->
<g id="edge4" class="edge">
<title>Node2&#45;&gt;Node5</title>
<path fill="none" stroke="midnightblue" d="M867.5,-56.44C909.81,-47.04 977.82,-31.93 1023.67,-21.74"/>
<polygon fill="midnightblue" stroke="midnightblue" points="1024.67,-25.1 1033.68,-19.52 1023.15,-18.27 1024.67,-25.1"/>
</g>
<!-- Node6&#45;&gt;Node2 -->
<g id="edge8" class="edge">
<title>Node6&#45;&gt;Node2</title>
<path fill="none" stroke="midnightblue" d="M344.87,-291.47C372.36,-284.49 408.62,-272.84 437,-255 455.83,-243.17 557.34,-122.39 577,-112 630.13,-83.91 697.45,-72.94 749.14,-68.84"/>
<polygon fill="midnightblue" stroke="midnightblue" points="749.54,-72.32 759.26,-68.11 749.04,-65.34 749.54,-72.32"/>
</g>
<!-- Node7 -->
<g id="node7" class="node">
<title>Node7</title>
<g id="a_node7"><a xlink:title=" ">
<polygon fill="none" stroke="#bfbfbf" points="733.5,-112.5 733.5,-131.5 800.5,-131.5 800.5,-112.5 733.5,-112.5"/>
<text text-anchor="middle" x="767" y="-119.5" font-family="Helvetica,sans-Serif" font-size="10.00">fmt/core.h</text>
</a>
</g>
</g>
<!-- Node6&#45;&gt;Node7 -->
<g id="edge6" class="edge">
<title>Node6&#45;&gt;Node7</title>
<path fill="none" stroke="midnightblue" d="M348.46,-291.49C455.4,-270.66 720.3,-216.69 749,-188 761.02,-175.98 765.2,-156.69 766.56,-142.24"/>
<polygon fill="midnightblue" stroke="midnightblue" points="770.07,-142.1 767.14,-131.92 763.08,-141.7 770.07,-142.1"/>
</g>
<!-- Node8 -->
<g id="node8" class="node">
<title>Node8</title>
<g id="a_node8"><a xlink:title=" ">
<polygon fill="none" stroke="#bfbfbf" points="218,-230 218,-249 276,-249 276,-230 218,-230"/>
<text text-anchor="middle" x="247" y="-237" font-family="Helvetica,sans-Serif" font-size="10.00">memory</text>
</a>
</g>
</g>
<!-- Node6&#45;&gt;Node8 -->
<g id="edge7" class="edge">
<title>Node6&#45;&gt;Node8</title>
<path fill="none" stroke="midnightblue" d="M295.83,-291.48C287.11,-282.37 273.1,-267.74 262.31,-256.48"/>
<polygon fill="midnightblue" stroke="midnightblue" points="264.6,-253.81 255.15,-249.01 259.54,-258.65 264.6,-253.81"/>
</g>
<!-- Node9 -->
<g id="node9" class="node">
<title>Node9</title>
<g id="a_node9"><a xlink:href="range__separated__parameters_8h.html" target="_top" xlink:title=" ">
<polygon fill="none" stroke="black" points="294,-224.5 294,-254.5 428,-254.5 428,-224.5 294,-224.5"/>
<text text-anchor="start" x="302" y="-242.5" font-family="Helvetica,sans-Serif" font-size="10.00">occ/dft/range_separated</text>
<text text-anchor="middle" x="361" y="-231.5" font-family="Helvetica,sans-Serif" font-size="10.00">_parameters.h</text>
</a>
</g>
</g>
<!-- Node6&#45;&gt;Node9 -->
<g id="edge9" class="edge">
<title>Node6&#45;&gt;Node9</title>
<path fill="none" stroke="midnightblue" d="M312.17,-291.48C319.53,-283.79 330.66,-272.17 340.44,-261.96"/>
<polygon fill="midnightblue" stroke="midnightblue" points="343.18,-264.17 347.57,-254.52 338.12,-259.32 343.18,-264.17"/>
</g>
<!-- Node6&#45;&gt;Node10 -->
<g id="edge10" class="edge">
<title>Node6&#45;&gt;Node10</title>
<path fill="none" stroke="midnightblue" d="M272.77,-291.48C234.4,-281 169.21,-263.21 126.89,-251.66"/>
<polygon fill="midnightblue" stroke="midnightblue" points="127.74,-248.27 117.18,-249.01 125.9,-255.02 127.74,-248.27"/>
</g>
<!-- Node16 -->
<g id="node16" class="node">
<title>Node16</title>
<g id="a_node16"><a xlink:title=" ">
<polygon fill="none" stroke="#bfbfbf" points="593,-112.5 593,-131.5 637,-131.5 637,-112.5 593,-112.5"/>
<text text-anchor="middle" x="615" y="-119.5" font-family="Helvetica,sans-Serif" font-size="10.00">string</text>
</a>
</g>
</g>
<!-- Node6&#45;&gt;Node16 -->
<g id="edge25" class="edge">
<title>Node6&#45;&gt;Node16</title>
<path fill="none" stroke="midnightblue" d="M359.17,-291.82C392.71,-285.24 435.57,-273.88 470,-255 526.02,-224.28 577.84,-167.65 601.5,-139.62"/>
<polygon fill="midnightblue" stroke="midnightblue" points="604.47,-141.52 608.17,-131.59 599.09,-137.05 604.47,-141.52"/>
</g>
<!-- Node20 -->
<g id="node20" class="node">
<title>Node20</title>
<g id="a_node20"><a xlink:title=" ">
<polygon fill="none" stroke="#bfbfbf" points="162.5,-230 162.5,-249 199.5,-249 199.5,-230 162.5,-230"/>
<text text-anchor="middle" x="181" y="-237" font-family="Helvetica,sans-Serif" font-size="10.00">xc.h</text>
</a>
</g>
</g>
<!-- Node6&#45;&gt;Node20 -->
<g id="edge26" class="edge">
<title>Node6&#45;&gt;Node20</title>
<path fill="none" stroke="midnightblue" d="M285.34,-291.4C266.11,-282.48 235.33,-268.05 209,-255 208.16,-254.59 207.31,-254.16 206.46,-253.73"/>
<polygon fill="midnightblue" stroke="midnightblue" points="207.74,-250.46 197.24,-249.03 204.56,-256.69 207.74,-250.46"/>
</g>
<!-- Node10&#45;&gt;Node2 -->
<g id="edge11" class="edge">
<title>Node10&#45;&gt;Node2</title>
<path fill="none" stroke="midnightblue" d="M105.22,-229.92C157.88,-206.79 309.44,-142.84 442,-112 546.51,-87.69 670.09,-76.23 748.98,-71.03"/>
<polygon fill="midnightblue" stroke="midnightblue" points="749.58,-74.49 759.33,-70.36 749.13,-67.51 749.58,-74.49"/>
</g>
<!-- Node11 -->
<g id="node11" class="node">
<title>Node11</title>
<g id="a_node11"><a xlink:href="util_8h.html" target="_top" xlink:title=" ">
<polygon fill="none" stroke="black" points="1011.5,-168.5 1011.5,-187.5 1096.5,-187.5 1096.5,-168.5 1011.5,-168.5"/>
<text text-anchor="middle" x="1054" y="-175.5" font-family="Helvetica,sans-Serif" font-size="10.00">occ/core/util.h</text>
</a>
</g>
</g>
<!-- Node10&#45;&gt;Node11 -->
<g id="edge12" class="edge">
<title>Node10&#45;&gt;Node11</title>
<path fill="none" stroke="midnightblue" d="M119.89,-229.99C130.43,-227.66 142.14,-225.39 153,-224 524.74,-176.26 625.34,-228.02 1001.41,-188.02"/>
<polygon fill="midnightblue" stroke="midnightblue" points="1001.92,-191.49 1011.48,-186.94 1001.17,-184.53 1001.92,-191.49"/>
</g>
<!-- Node19 -->
<g id="node19" class="node">
<title>Node19</title>
<g id="a_node19"><a xlink:href="qm_2opmatrix_8h.html" target="_top" xlink:title=" ">
<polygon fill="none" stroke="black" points="32,-168.5 32,-187.5 140,-187.5 140,-168.5 32,-168.5"/>
<text text-anchor="middle" x="86" y="-175.5" font-family="Helvetica,sans-Serif" font-size="10.00">occ/qm/opmatrix.h</text>
</a>
</g>
</g>
<!-- Node10&#45;&gt;Node19 -->
<g id="edge23" class="edge">
<title>Node10&#45;&gt;Node19</title>
<path fill="none" stroke="midnightblue" d="M81.1,-229.98C79.27,-221.58 78.8,-208.48 79.69,-197.66"/>
<polygon fill="midnightblue" stroke="midnightblue" points="83.19,-197.9 81.1,-187.51 76.25,-196.93 83.19,-197.9"/>
</g>
<!-- Node11&#45;&gt;Node2 -->
<g id="edge19" class="edge">
<title>Node11&#45;&gt;Node2</title>
<path fill="none" stroke="midnightblue" d="M1011.42,-168.85C952.87,-157.47 854.01,-137.6 848,-132 835.38,-120.23 830.99,-100.59 829.53,-85.97"/>
<polygon fill="midnightblue" stroke="midnightblue" points="833,-85.34 828.9,-75.58 826.02,-85.77 833,-85.34"/>
</g>
<!-- Node11&#45;&gt;Node5 -->
<g id="edge16" class="edge">
<title>Node11&#45;&gt;Node5</title>
<path fill="none" stroke="midnightblue" d="M1085.81,-168.38C1103.95,-161.66 1125.16,-150.31 1136,-132 1157.95,-94.91 1116.68,-49.64 1090.74,-26.4"/>
<polygon fill="midnightblue" stroke="midnightblue" points="1092.81,-23.56 1082.96,-19.66 1088.23,-28.85 1092.81,-23.56"/>
</g>
<!-- Node11&#45;&gt;Node7 -->
<g id="edge15" class="edge">
<title>Node11&#45;&gt;Node7</title>
<path fill="none" stroke="midnightblue" d="M1011.34,-168.97C957.51,-158.84 865.38,-141.51 810.94,-131.27"/>
<polygon fill="midnightblue" stroke="midnightblue" points="811.38,-127.79 800.9,-129.38 810.08,-134.67 811.38,-127.79"/>
</g>
<!-- Node12 -->
<g id="node12" class="node">
<title>Node12</title>
<g id="a_node12"><a xlink:title=" ">
<polygon fill="none" stroke="#bfbfbf" points="857,-112.5 857,-131.5 921,-131.5 921,-112.5 857,-112.5"/>
<text text-anchor="middle" x="889" y="-119.5" font-family="Helvetica,sans-Serif" font-size="10.00">algorithm</text>
</a>
</g>
</g>
<!-- Node11&#45;&gt;Node12 -->
<g id="edge13" class="edge">
<title>Node11&#45;&gt;Node12</title>
<path fill="none" stroke="midnightblue" d="M1027.86,-168.44C999.98,-159.32 955.65,-144.81 924.6,-134.65"/>
<polygon fill="midnightblue" stroke="midnightblue" points="925.62,-131.3 915.02,-131.52 923.44,-137.95 925.62,-131.3"/>
</g>
<!-- Node13 -->
<g id="node13" class="node">
<title>Node13</title>
<g id="a_node13"><a xlink:title=" ">
<polygon fill="none" stroke="#bfbfbf" points="939.5,-112.5 939.5,-131.5 988.5,-131.5 988.5,-112.5 939.5,-112.5"/>
<text text-anchor="middle" x="964" y="-119.5" font-family="Helvetica,sans-Serif" font-size="10.00">cctype</text>
</a>
</g>
</g>
<!-- Node11&#45;&gt;Node13 -->
<g id="edge14" class="edge">
<title>Node11&#45;&gt;Node13</title>
<path fill="none" stroke="midnightblue" d="M1039.54,-168.32C1025.5,-159.9 1003.95,-146.97 987.46,-137.07"/>
<polygon fill="midnightblue" stroke="midnightblue" points="988.8,-133.8 978.42,-131.65 985.2,-139.8 988.8,-133.8"/>
</g>
<!-- Node14 -->
<g id="node14" class="node">
<title>Node14</title>
<g id="a_node14"><a xlink:title=" ">
<polygon fill="none" stroke="#bfbfbf" points="1007,-112.5 1007,-131.5 1053,-131.5 1053,-112.5 1007,-112.5"/>
<text text-anchor="middle" x="1030" y="-119.5" font-family="Helvetica,sans-Serif" font-size="10.00">locale</text>
</a>
</g>
</g>
<!-- Node11&#45;&gt;Node14 -->
<g id="edge17" class="edge">
<title>Node11&#45;&gt;Node14</title>
<path fill="none" stroke="midnightblue" d="M1050.04,-168.08C1046.79,-160.77 1042.08,-150.18 1038.05,-141.1"/>
<polygon fill="midnightblue" stroke="midnightblue" points="1041.15,-139.47 1033.89,-131.75 1034.75,-142.31 1041.15,-139.47"/>
</g>
<!-- Node15 -->
<g id="node15" class="node">
<title>Node15</title>
<g id="a_node15"><a xlink:title=" ">
<polygon fill="none" stroke="#bfbfbf" points="1071,-112.5 1071,-131.5 1127,-131.5 1127,-112.5 1071,-112.5"/>
<text text-anchor="middle" x="1099" y="-119.5" font-family="Helvetica,sans-Serif" font-size="10.00">numeric</text>
</a>
</g>
</g>
<!-- Node11&#45;&gt;Node15 -->
<g id="edge18" class="edge">
<title>Node11&#45;&gt;Node15</title>
<path fill="none" stroke="midnightblue" d="M1061.43,-168.08C1067.85,-160.38 1077.31,-149.03 1085.12,-139.65"/>
<polygon fill="midnightblue" stroke="midnightblue" points="1087.99,-141.67 1091.71,-131.75 1082.62,-137.19 1087.99,-141.67"/>
</g>
<!-- Node11&#45;&gt;Node16 -->
<g id="edge20" class="edge">
<title>Node11&#45;&gt;Node16</title>
<path fill="none" stroke="midnightblue" d="M1011.46,-169.26C1008.6,-168.81 1005.76,-168.39 1003,-168 848.56,-146.44 807.82,-157.58 654,-132 651.77,-131.63 649.48,-131.21 647.18,-130.75"/>
<polygon fill="midnightblue" stroke="midnightblue" points="647.69,-127.28 637.18,-128.62 646.23,-134.13 647.69,-127.28"/>
</g>
<!-- Node17 -->
<g id="node17" class="node">
<title>Node17</title>
<g id="a_node17"><a xlink:title=" ">
<polygon fill="none" stroke="#bfbfbf" points="1183.5,-112.5 1183.5,-131.5 1230.5,-131.5 1230.5,-112.5 1183.5,-112.5"/>
<text text-anchor="middle" x="1207" y="-119.5" font-family="Helvetica,sans-Serif" font-size="10.00">vector</text>
</a>
</g>
</g>
<!-- Node11&#45;&gt;Node17 -->
<g id="edge21" class="edge">
<title>Node11&#45;&gt;Node17</title>
<path fill="none" stroke="midnightblue" d="M1078.24,-168.44C1104.02,-159.35 1144.96,-144.9 1173.74,-134.74"/>
<polygon fill="midnightblue" stroke="midnightblue" points="1175.11,-137.97 1183.37,-131.34 1172.78,-131.37 1175.11,-137.97"/>
</g>
<!-- Node18 -->
<g id="node18" class="node">
<title>Node18</title>
<g id="a_node18"><a xlink:title=" ">
<polygon fill="none" stroke="#bfbfbf" points="663,-112.5 663,-131.5 713,-131.5 713,-112.5 663,-112.5"/>
<text text-anchor="middle" x="688" y="-119.5" font-family="Helvetica,sans-Serif" font-size="10.00">chrono</text>
</a>
</g>
</g>
<!-- Node11&#45;&gt;Node18 -->
<g id="edge22" class="edge">
<title>Node11&#45;&gt;Node18</title>
<path fill="none" stroke="midnightblue" d="M1011.45,-169.34C1008.59,-168.87 1005.76,-168.42 1003,-168 879.84,-149.17 847.49,-154.76 725,-132 724.41,-131.89 723.82,-131.78 723.22,-131.66"/>
<polygon fill="midnightblue" stroke="midnightblue" points="723.91,-128.23 713.4,-129.57 722.45,-135.08 723.91,-128.23"/>
</g>
<!-- Node19&#45;&gt;Node10 -->
<g id="edge24" class="edge">
<title>Node19&#45;&gt;Node10</title>
<path fill="none" stroke="midnightblue" d="M90.9,-187.51C92.73,-195.9 93.2,-209 92.32,-219.82"/>
<polygon fill="midnightblue" stroke="midnightblue" points="88.81,-219.59 90.9,-229.98 95.75,-220.55 88.81,-219.59"/>
</g>
<!-- Node21&#45;&gt;Node2 -->
<g id="edge31" class="edge">
<title>Node21&#45;&gt;Node2</title>
<path fill="none" stroke="midnightblue" d="M842.79,-297.87C778.85,-293.7 657.97,-282.34 626,-255 582.1,-217.45 593.46,-188.99 584,-132 582.54,-123.23 578.31,-118.83 584,-112 604.86,-86.97 686.05,-75.81 749.32,-70.87"/>
<polygon fill="midnightblue" stroke="midnightblue" points="749.59,-74.36 759.31,-70.13 749.07,-67.38 749.59,-74.36"/>
</g>
<!-- Node21&#45;&gt;Node7 -->
<g id="edge29" class="edge">
<title>Node21&#45;&gt;Node7</title>
<path fill="none" stroke="midnightblue" d="M887.76,-291.29C899.45,-268.58 926.67,-206.67 899,-168 888.42,-153.22 844.83,-140.29 810.6,-132.13"/>
<polygon fill="midnightblue" stroke="midnightblue" points="811.31,-128.7 800.77,-129.86 809.73,-135.52 811.31,-128.7"/>
</g>
<!-- Node21&#45;&gt;Node11 -->
<g id="edge37" class="edge">
<title>Node21&#45;&gt;Node11</title>
<path fill="none" stroke="midnightblue" d="M923.36,-296.23C973.51,-290.61 1054.71,-278.13 1073,-255 1086.4,-238.06 1075.86,-212.88 1065.93,-196.21"/>
<polygon fill="midnightblue" stroke="midnightblue" points="1068.68,-194.03 1060.33,-187.51 1062.79,-197.81 1068.68,-194.03"/>
</g>
<!-- Node21&#45;&gt;Node16 -->
<g id="edge52" class="edge">
<title>Node21&#45;&gt;Node16</title>
<path fill="none" stroke="midnightblue" d="M842.9,-296.6C785.21,-290.97 682.55,-278 654,-255 619.67,-227.34 614.56,-170.98 614.39,-141.66"/>
<polygon fill="midnightblue" stroke="midnightblue" points="617.89,-141.59 614.53,-131.55 610.89,-141.5 617.89,-141.59"/>
</g>
<!-- Node21&#45;&gt;Node17 -->
<g id="edge53" class="edge">
<title>Node21&#45;&gt;Node17</title>
<path fill="none" stroke="midnightblue" d="M923.02,-298.61C966.78,-295.5 1037.64,-285.67 1090,-255 1139.38,-226.08 1179.01,-169.04 1196.82,-140.35"/>
<polygon fill="midnightblue" stroke="midnightblue" points="1199.82,-142.15 1202,-131.79 1193.83,-138.53 1199.82,-142.15"/>
</g>
<!-- Node22 -->
<g id="node22" class="node">
<title>Node22</title>
<g id="a_node22"><a xlink:title=" ">
<polygon fill="none" stroke="#bfbfbf" points="1500,-112.5 1500,-131.5 1542,-131.5 1542,-112.5 1500,-112.5"/>
<text text-anchor="middle" x="1521" y="-119.5" font-family="Helvetica,sans-Serif" font-size="10.00">array</text>
</a>
</g>
</g>
<!-- Node21&#45;&gt;Node22 -->
<g id="edge28" class="edge">
<title>Node21&#45;&gt;Node22</title>
<path fill="none" stroke="midnightblue" d="M923.05,-298.01C996.19,-293.83 1156,-282.19 1288,-255 1388.11,-234.38 1439.36,-263.74 1508,-188 1519.22,-175.62 1521.9,-156.37 1522.11,-142.03"/>
<polygon fill="midnightblue" stroke="midnightblue" points="1525.6,-141.72 1521.87,-131.81 1518.6,-141.89 1525.6,-141.72"/>
</g>
<!-- Node23 -->
<g id="node23" class="node">
<title>Node23</title>
<g id="a_node23"><a xlink:title=" ">
<polygon fill="none" stroke="#bfbfbf" points="674,-230 674,-249 788,-249 788,-230 674,-230"/>
<text text-anchor="middle" x="731" y="-237" font-family="Helvetica,sans-Serif" font-size="10.00">gau2grid/gau2grid.h</text>
</a>
</g>
</g>
<!-- Node21&#45;&gt;Node23 -->
<g id="edge30" class="edge">
<title>Node21&#45;&gt;Node23</title>
<path fill="none" stroke="midnightblue" d="M861.22,-291.48C835.26,-281.31 791.69,-264.26 762.17,-252.7"/>
<polygon fill="midnightblue" stroke="midnightblue" points="763.33,-249.4 752.74,-249.01 760.77,-255.91 763.33,-249.4"/>
</g>
<!-- Node24 -->
<g id="node24" class="node">
<title>Node24</title>
<g id="a_node24"><a xlink:href="log_8h.html" target="_top" xlink:title=" ">
<polygon fill="none" stroke="black" points="806,-230 806,-249 890,-249 890,-230 806,-230"/>
<text text-anchor="middle" x="848" y="-237" font-family="Helvetica,sans-Serif" font-size="10.00">occ/core/log.h</text>
</a>
</g>
</g>
<!-- Node21&#45;&gt;Node24 -->
<g id="edge32" class="edge">
<title>Node21&#45;&gt;Node24</title>
<path fill="none" stroke="midnightblue" d="M877.99,-291.48C872.84,-282.73 864.69,-268.87 858.18,-257.81"/>
<polygon fill="midnightblue" stroke="midnightblue" points="861.09,-255.85 853.01,-249.01 855.06,-259.4 861.09,-255.85"/>
</g>
<!-- Node26 -->
<g id="node26" class="node">
<title>Node26</title>
<g id="a_node26"><a xlink:href="timings_8h.html" target="_top" xlink:title=" ">
<polygon fill="none" stroke="black" points="634,-168.5 634,-187.5 740,-187.5 740,-168.5 634,-168.5"/>
<text text-anchor="middle" x="687" y="-175.5" font-family="Helvetica,sans-Serif" font-size="10.00">occ/core/timings.h</text>
</a>
</g>
</g>
<!-- Node21&#45;&gt;Node26 -->
<g id="edge34" class="edge">
<title>Node21&#45;&gt;Node26</title>
<path fill="none" stroke="midnightblue" d="M842.58,-297.59C785.82,-293.26 686.97,-281.97 665,-255 651.09,-237.93 663.23,-212.43 674.25,-195.76"/>
<polygon fill="midnightblue" stroke="midnightblue" points="677.16,-197.7 680.08,-187.52 671.45,-193.66 677.16,-197.7"/>
</g>
<!-- Node27 -->
<g id="node27" class="node">
<title>Node27</title>
<g id="a_node27"><a xlink:href="shell__order_8h.html" target="_top" xlink:title=" ">
<polygon fill="none" stroke="black" points="946.5,-230 946.5,-249 1063.5,-249 1063.5,-230 946.5,-230"/>
<text text-anchor="middle" x="1005" y="-237" font-family="Helvetica,sans-Serif" font-size="10.00">occ/gto/shell_order.h</text>
</a>
</g>
</g>
<!-- Node21&#45;&gt;Node27 -->
<g id="edge38" class="edge">
<title>Node21&#45;&gt;Node27</title>
<path fill="none" stroke="midnightblue" d="M900.48,-291.48C920.86,-281.53 954.78,-264.99 978.42,-253.46"/>
<polygon fill="midnightblue" stroke="midnightblue" points="980.1,-256.54 987.55,-249.01 977.03,-250.25 980.1,-256.54"/>
</g>
<!-- Node29 -->
<g id="node29" class="node">
<title>Node29</title>
<g id="a_node29"><a xlink:href="shell_8h.html" target="_top" xlink:title=" ">
<polygon fill="none" stroke="black" points="1191.5,-230 1191.5,-249 1278.5,-249 1278.5,-230 1191.5,-230"/>
<text text-anchor="middle" x="1235" y="-237" font-family="Helvetica,sans-Serif" font-size="10.00">occ/qm/shell.h</text>
</a>
</g>
</g>
<!-- Node21&#45;&gt;Node29 -->
<g id="edge40" class="edge">
<title>Node21&#45;&gt;Node29</title>
<path fill="none" stroke="midnightblue" d="M923.04,-293.23C986.5,-282.51 1110.26,-261.59 1181.34,-249.57"/>
<polygon fill="midnightblue" stroke="midnightblue" points="1182.15,-252.98 1191.43,-247.87 1180.98,-246.08 1182.15,-252.98"/>
</g>
<!-- Node25 -->
<g id="node25" class="node">
<title>Node25</title>
<g id="a_node25"><a xlink:title=" ">
<polygon fill="none" stroke="#bfbfbf" points="796.5,-168.5 796.5,-187.5 889.5,-187.5 889.5,-168.5 796.5,-168.5"/>
<text text-anchor="middle" x="843" y="-175.5" font-family="Helvetica,sans-Serif" font-size="10.00">spdlog/spdlog.h</text>
</a>
</g>
</g>
<!-- Node24&#45;&gt;Node25 -->
<g id="edge33" class="edge">
<title>Node24&#45;&gt;Node25</title>
<path fill="none" stroke="midnightblue" d="M847.28,-229.98C846.58,-221.58 845.48,-208.48 844.57,-197.66"/>
<polygon fill="midnightblue" stroke="midnightblue" points="848.04,-197.18 843.72,-187.51 841.06,-197.77 848.04,-197.18"/>
</g>
<!-- Node26&#45;&gt;Node16 -->
<g id="edge36" class="edge">
<title>Node26&#45;&gt;Node16</title>
<path fill="none" stroke="midnightblue" d="M675.43,-168.32C664.58,-160.18 648.12,-147.84 635.12,-138.09"/>
<polygon fill="midnightblue" stroke="midnightblue" points="636.88,-135.03 626.78,-131.83 632.68,-140.63 636.88,-135.03"/>
</g>
<!-- Node26&#45;&gt;Node18 -->
<g id="edge35" class="edge">
<title>Node26&#45;&gt;Node18</title>
<path fill="none" stroke="midnightblue" d="M687.17,-168.08C687.3,-161.01 687.48,-150.86 687.65,-141.99"/>
<polygon fill="midnightblue" stroke="midnightblue" points="691.15,-141.81 687.84,-131.75 684.15,-141.68 691.15,-141.81"/>
</g>
<!-- Node28 -->
<g id="node28" class="node">
<title>Node28</title>
<g id="a_node28"><a xlink:title=" ">
<polygon fill="none" stroke="#bfbfbf" points="946.5,-168.5 946.5,-187.5 993.5,-187.5 993.5,-168.5 946.5,-168.5"/>
<text text-anchor="middle" x="970" y="-175.5" font-family="Helvetica,sans-Serif" font-size="10.00">cmath</text>
</a>
</g>
</g>
<!-- Node27&#45;&gt;Node28 -->
<g id="edge39" class="edge">
<title>Node27&#45;&gt;Node28</title>
<path fill="none" stroke="midnightblue" d="M999.99,-229.98C994.84,-221.23 986.69,-207.37 980.18,-196.31"/>
<polygon fill="midnightblue" stroke="midnightblue" points="983.09,-194.35 975.01,-187.51 977.06,-197.9 983.09,-194.35"/>
</g>
<!-- Node29&#45;&gt;Node2 -->
<g id="edge45" class="edge">
<title>Node29&#45;&gt;Node2</title>
<path fill="none" stroke="midnightblue" d="M1278.84,-234.68C1336.13,-228.67 1431.67,-214.84 1453,-188 1458.53,-181.04 1457.08,-175.9 1453,-168 1433.24,-129.77 1414.44,-126.74 1374,-112 1290.73,-81.65 1039.06,-71.63 908.9,-68.44"/>
<polygon fill="midnightblue" stroke="midnightblue" points="908.68,-64.93 898.6,-68.19 908.51,-71.93 908.68,-64.93"/>
</g>
<!-- Node29&#45;&gt;Node11 -->
<g id="edge50" class="edge">
<title>Node29&#45;&gt;Node11</title>
<path fill="none" stroke="midnightblue" d="M1209.07,-229.98C1177.75,-219.68 1124.91,-202.31 1089.74,-190.75"/>
<polygon fill="midnightblue" stroke="midnightblue" points="1090.48,-187.31 1079.88,-187.51 1088.29,-193.96 1090.48,-187.31"/>
</g>
<!-- Node29&#45;&gt;Node17 -->
<g id="edge51" class="edge">
<title>Node29&#45;&gt;Node17</title>
<path fill="none" stroke="midnightblue" d="M1224.08,-229.82C1213.57,-220.69 1198.36,-205.29 1192,-188 1186.26,-172.41 1191.66,-153.88 1197.52,-140.61"/>
<polygon fill="midnightblue" stroke="midnightblue" points="1200.67,-142.13 1201.92,-131.61 1194.38,-139.06 1200.67,-142.13"/>
</g>
<!-- Node29&#45;&gt;Node22 -->
<g id="edge41" class="edge">
<title>Node29&#45;&gt;Node22</title>
<path fill="none" stroke="midnightblue" d="M1278.68,-234.2C1341.59,-227.28 1453.68,-211.95 1486,-188 1501.41,-176.58 1510.77,-156.29 1515.88,-141.41"/>
<polygon fill="midnightblue" stroke="midnightblue" points="1519.26,-142.33 1518.88,-131.74 1512.57,-140.25 1519.26,-142.33"/>
</g>
<!-- Node30 -->
<g id="node30" class="node">
<title>Node30</title>
<g id="a_node30"><a xlink:title=" ">
<polygon fill="none" stroke="#bfbfbf" points="1234,-168.5 1234,-187.5 1294,-187.5 1294,-168.5 1234,-168.5"/>
<text text-anchor="middle" x="1264" y="-175.5" font-family="Helvetica,sans-Serif" font-size="10.00">iostream</text>
</a>
</g>
</g>
<!-- Node29&#45;&gt;Node30 -->
<g id="edge42" class="edge">
<title>Node29&#45;&gt;Node30</title>
<path fill="none" stroke="midnightblue" d="M1239.15,-229.98C1243.38,-221.32 1250.04,-207.65 1255.4,-196.65"/>
<polygon fill="midnightblue" stroke="midnightblue" points="1258.62,-198.03 1259.85,-187.51 1252.33,-194.96 1258.62,-198.03"/>
</g>
<!-- Node31 -->
<g id="node31" class="node">
<title>Node31</title>
<g id="a_node31"><a xlink:href="atom_8h.html" target="_top" xlink:title=" ">
<polygon fill="none" stroke="black" points="1248.5,-112.5 1248.5,-131.5 1343.5,-131.5 1343.5,-112.5 1248.5,-112.5"/>
<text text-anchor="middle" x="1296" y="-119.5" font-family="Helvetica,sans-Serif" font-size="10.00">occ/core/atom.h</text>
</a>
</g>
</g>
<!-- Node29&#45;&gt;Node31 -->
<g id="edge43" class="edge">
<title>Node29&#45;&gt;Node31</title>
<path fill="none" stroke="midnightblue" d="M1230.47,-229.64C1224,-215.63 1214.04,-187.93 1225,-168 1232.89,-153.66 1247.49,-143.25 1261.4,-136.08"/>
<polygon fill="midnightblue" stroke="midnightblue" points="1263.29,-139.06 1270.84,-131.62 1260.3,-132.73 1263.29,-139.06"/>
</g>
<!-- Node32 -->
<g id="node32" class="node">
<title>Node32</title>
<g id="a_node32"><a xlink:href="point__charge_8h.html" target="_top" xlink:title=" ">
<polygon fill="none" stroke="black" points="1312,-168.5 1312,-187.5 1444,-187.5 1444,-168.5 1312,-168.5"/>
<text text-anchor="middle" x="1378" y="-175.5" font-family="Helvetica,sans-Serif" font-size="10.00">occ/core/point_charge.h</text>
</a>
</g>
</g>
<!-- Node29&#45;&gt;Node32 -->
<g id="edge46" class="edge">
<title>Node29&#45;&gt;Node32</title>
<path fill="none" stroke="midnightblue" d="M1255.49,-229.98C1279.81,-219.86 1320.55,-202.9 1348.32,-191.35"/>
<polygon fill="midnightblue" stroke="midnightblue" points="1349.66,-194.58 1357.55,-187.51 1346.97,-188.12 1349.66,-194.58"/>
</g>
<!-- Node31&#45;&gt;Node2 -->
<g id="edge44" class="edge">
<title>Node31&#45;&gt;Node2</title>
<path fill="none" stroke="midnightblue" d="M1248.37,-113.18C1245.54,-112.76 1242.73,-112.37 1240,-112 1125.11,-96.49 991.59,-82.64 908.68,-74.53"/>
<polygon fill="midnightblue" stroke="midnightblue" points="908.87,-71.03 898.58,-73.54 908.19,-77.99 908.87,-71.03"/>
</g>
<!-- Node32&#45;&gt;Node2 -->
<g id="edge49" class="edge">
<title>Node32&#45;&gt;Node2</title>
<path fill="none" stroke="midnightblue" d="M1377.45,-168.11C1376.03,-153.7 1370.98,-125.51 1353,-112 1318.33,-85.94 1046.5,-73.77 908.63,-69.23"/>
<polygon fill="midnightblue" stroke="midnightblue" points="908.64,-65.73 898.53,-68.91 908.41,-72.73 908.64,-65.73"/>
</g>
<!-- Node32&#45;&gt;Node22 -->
<g id="edge47" class="edge">
<title>Node32&#45;&gt;Node22</title>
<path fill="none" stroke="midnightblue" d="M1400.66,-168.44C1424.82,-159.32 1463.24,-144.81 1490.15,-134.65"/>
<polygon fill="midnightblue" stroke="midnightblue" points="1491.73,-137.8 1499.85,-130.99 1489.25,-131.25 1491.73,-137.8"/>
</g>
<!-- Node32&#45;&gt;Node31 -->
<g id="edge48" class="edge">
<title>Node32&#45;&gt;Node31</title>
<path fill="none" stroke="midnightblue" d="M1364.83,-168.32C1352.15,-159.98 1332.77,-147.21 1317.79,-137.35"/>
<polygon fill="midnightblue" stroke="midnightblue" points="1319.42,-134.23 1309.14,-131.65 1315.57,-140.08 1319.42,-134.23"/>
</g>
</g>
</svg>
