<?xml version="1.0" encoding="UTF-8" standalone="no"?>
<!DOCTYPE svg PUBLIC "-//W3C//DTD SVG 1.1//EN"
 "http://www.w3.org/Graphics/SVG/1.1/DTD/svg11.dtd">
<!-- Generated by graphviz version 2.43.0 (0)
 -->
<!-- Title: /home/runner/work/occ/occ/include/occ/dft/xc_potential_matrix.h Pages: 1 -->
<svg width="1420pt" height="397pt"
 viewBox="0.00 0.00 1420.00 397.00" xmlns="http://www.w3.org/2000/svg" xmlns:xlink="http://www.w3.org/1999/xlink">
<g id="graph0" class="graph" transform="scale(1 1) rotate(0) translate(4 393)">
<title>/home/runner/work/occ/occ/include/occ/dft/xc_potential_matrix.h</title>
<!-- Node1 -->
<g id="node1" class="node">
<title>Node1</title>
<g id="a_node1"><a xlink:title=" ">
<polygon fill="#bfbfbf" stroke="black" points="396,-347.5 396,-388.5 524,-388.5 524,-347.5 396,-347.5"/>
<text text-anchor="start" x="404" y="-376.5" font-family="Helvetica,sans-Serif" font-size="10.00">/home/runner/work/occ</text>
<text text-anchor="start" x="404" y="-365.5" font-family="Helvetica,sans-Serif" font-size="10.00">/occ/include/occ/dft</text>
<text text-anchor="middle" x="460" y="-354.5" font-family="Helvetica,sans-Serif" font-size="10.00">/xc_potential_matrix.h</text>
</a>
</g>
</g>
<!-- Node2 -->
<g id="node2" class="node">
<title>Node2</title>
<g id="a_node2"><a xlink:href="linear__algebra_8h.html" target="_top" xlink:title=" ">
<polygon fill="none" stroke="black" points="874.5,-67.5 874.5,-86.5 1013.5,-86.5 1013.5,-67.5 874.5,-67.5"/>
<text text-anchor="middle" x="944" y="-74.5" font-family="Helvetica,sans-Serif" font-size="10.00">occ/core/linear_algebra.h</text>
</a>
</g>
</g>
<!-- Node1&#45;&gt;Node2 -->
<g id="edge1" class="edge">
<title>Node1&#45;&gt;Node2</title>
<path fill="none" stroke="midnightblue" d="M524.31,-365.6C738.17,-360.12 1412,-335.71 1412,-246 1412,-246 1412,-246 1412,-188 1412,-109.2 1157.37,-86.8 1023.75,-80.47"/>
<polygon fill="midnightblue" stroke="midnightblue" points="1023.71,-76.96 1013.56,-80.01 1023.39,-83.96 1023.71,-76.96"/>
</g>
<!-- Node6 -->
<g id="node6" class="node">
<title>Node6</title>
<g id="a_node6"><a xlink:href="functional_8h.html" target="_top" xlink:title=" ">
<polygon fill="none" stroke="black" points="176,-179.5 176,-198.5 286,-198.5 286,-179.5 176,-179.5"/>
<text text-anchor="middle" x="231" y="-186.5" font-family="Helvetica,sans-Serif" font-size="10.00">occ/dft/functional.h</text>
</a>
</g>
</g>
<!-- Node1&#45;&gt;Node6 -->
<g id="edge5" class="edge">
<title>Node1&#45;&gt;Node6</title>
<path fill="none" stroke="midnightblue" d="M429.27,-347.41C396.34,-325.97 343,-289.99 300,-255 280.79,-239.37 260.33,-219.66 246.72,-206.06"/>
<polygon fill="midnightblue" stroke="midnightblue" points="249.08,-203.48 239.56,-198.84 244.11,-208.41 249.08,-203.48"/>
</g>
<!-- Node9 -->
<g id="node9" class="node">
<title>Node9</title>
<g id="a_node9"><a xlink:href="spinorbital_8h.html" target="_top" xlink:title=" ">
<polygon fill="none" stroke="black" points="0,-123.5 0,-142.5 116,-142.5 116,-123.5 0,-123.5"/>
<text text-anchor="middle" x="58" y="-130.5" font-family="Helvetica,sans-Serif" font-size="10.00">occ/qm/spinorbital.h</text>
</a>
</g>
</g>
<!-- Node1&#45;&gt;Node9 -->
<g id="edge51" class="edge">
<title>Node1&#45;&gt;Node9</title>
<path fill="none" stroke="midnightblue" d="M416.76,-347.44C394.71,-337.13 367.62,-323.97 344,-311 242.26,-255.16 126.11,-179.34 79.25,-148.22"/>
<polygon fill="midnightblue" stroke="midnightblue" points="81.09,-145.24 70.82,-142.61 77.21,-151.07 81.09,-145.24"/>
</g>
<!-- Node13 -->
<g id="node13" class="node">
<title>Node13</title>
<g id="a_node13"><a xlink:href="gto_8h.html" target="_top" xlink:title=" ">
<polygon fill="none" stroke="black" points="632,-291.5 632,-310.5 712,-310.5 712,-291.5 632,-291.5"/>
<text text-anchor="middle" x="672" y="-298.5" font-family="Helvetica,sans-Serif" font-size="10.00">occ/gto/gto.h</text>
</a>
</g>
</g>
<!-- Node1&#45;&gt;Node13 -->
<g id="edge15" class="edge">
<title>Node1&#45;&gt;Node13</title>
<path fill="none" stroke="midnightblue" d="M523.61,-347.5C559.66,-336.44 603.54,-322.99 634.2,-313.59"/>
<polygon fill="midnightblue" stroke="midnightblue" points="635.52,-316.84 644.06,-310.57 633.47,-310.15 635.52,-316.84"/>
</g>
<!-- Node3 -->
<g id="node3" class="node">
<title>Node3</title>
<g id="a_node3"><a xlink:title=" ">
<polygon fill="none" stroke="#bfbfbf" points="802.5,-6 802.5,-25 879.5,-25 879.5,-6 802.5,-6"/>
<text text-anchor="middle" x="841" y="-13" font-family="Helvetica,sans-Serif" font-size="10.00">Eigen/Dense</text>
</a>
</g>
</g>
<!-- Node2&#45;&gt;Node3 -->
<g id="edge2" class="edge">
<title>Node2&#45;&gt;Node3</title>
<path fill="none" stroke="midnightblue" d="M929.24,-67.48C912.34,-57.71 884.42,-41.58 864.51,-30.08"/>
<polygon fill="midnightblue" stroke="midnightblue" points="866.14,-26.98 855.73,-25.01 862.64,-33.04 866.14,-26.98"/>
</g>
<!-- Node4 -->
<g id="node4" class="node">
<title>Node4</title>
<g id="a_node4"><a xlink:title=" ">
<polygon fill="none" stroke="#bfbfbf" points="897.5,-6 897.5,-25 990.5,-25 990.5,-6 897.5,-6"/>
<text text-anchor="middle" x="944" y="-13" font-family="Helvetica,sans-Serif" font-size="10.00">Eigen/StdVector</text>
</a>
</g>
</g>
<!-- Node2&#45;&gt;Node4 -->
<g id="edge3" class="edge">
<title>Node2&#45;&gt;Node4</title>
<path fill="none" stroke="midnightblue" d="M944,-67.48C944,-59.08 944,-45.98 944,-35.16"/>
<polygon fill="midnightblue" stroke="midnightblue" points="947.5,-35.01 944,-25.01 940.5,-35.01 947.5,-35.01"/>
</g>
<!-- Node5 -->
<g id="node5" class="node">
<title>Node5</title>
<g id="a_node5"><a xlink:title=" ">
<polygon fill="none" stroke="#bfbfbf" points="1008.5,-0.5 1008.5,-30.5 1115.5,-30.5 1115.5,-0.5 1008.5,-0.5"/>
<text text-anchor="start" x="1016.5" y="-18.5" font-family="Helvetica,sans-Serif" font-size="10.00">occ/3rdparty/eigen</text>
<text text-anchor="middle" x="1062" y="-7.5" font-family="Helvetica,sans-Serif" font-size="10.00">&#45;fmt/fmt.h</text>
</a>
</g>
</g>
<!-- Node2&#45;&gt;Node5 -->
<g id="edge4" class="edge">
<title>Node2&#45;&gt;Node5</title>
<path fill="none" stroke="midnightblue" d="M960.91,-67.48C977.56,-59.08 1003.55,-45.97 1025.01,-35.15"/>
<polygon fill="midnightblue" stroke="midnightblue" points="1026.84,-38.15 1034.19,-30.52 1023.68,-31.9 1026.84,-38.15"/>
</g>
<!-- Node6&#45;&gt;Node2 -->
<g id="edge8" class="edge">
<title>Node6&#45;&gt;Node2</title>
<path fill="none" stroke="midnightblue" d="M237.02,-179.3C247.73,-164.65 271.66,-135.41 300,-123 350.45,-100.91 703.09,-86.21 864.12,-80.58"/>
<polygon fill="midnightblue" stroke="midnightblue" points="864.58,-84.07 874.45,-80.22 864.33,-77.07 864.58,-84.07"/>
</g>
<!-- Node7 -->
<g id="node7" class="node">
<title>Node7</title>
<g id="a_node7"><a xlink:title=" ">
<polygon fill="none" stroke="#bfbfbf" points="404.5,-123.5 404.5,-142.5 471.5,-142.5 471.5,-123.5 404.5,-123.5"/>
<text text-anchor="middle" x="438" y="-130.5" font-family="Helvetica,sans-Serif" font-size="10.00">fmt/core.h</text>
</a>
</g>
</g>
<!-- Node6&#45;&gt;Node7 -->
<g id="edge6" class="edge">
<title>Node6&#45;&gt;Node7</title>
<path fill="none" stroke="midnightblue" d="M263.8,-179.44C299.38,-170.16 356.31,-155.31 395.35,-145.13"/>
<polygon fill="midnightblue" stroke="midnightblue" points="396.56,-148.43 405.35,-142.52 394.79,-141.65 396.56,-148.43"/>
</g>
<!-- Node8 -->
<g id="node8" class="node">
<title>Node8</title>
<g id="a_node8"><a xlink:title=" ">
<polygon fill="none" stroke="#bfbfbf" points="190,-123.5 190,-142.5 248,-142.5 248,-123.5 190,-123.5"/>
<text text-anchor="middle" x="219" y="-130.5" font-family="Helvetica,sans-Serif" font-size="10.00">memory</text>
</a>
</g>
</g>
<!-- Node6&#45;&gt;Node8 -->
<g id="edge7" class="edge">
<title>Node6&#45;&gt;Node8</title>
<path fill="none" stroke="midnightblue" d="M229.02,-179.08C227.43,-171.93 225.14,-161.64 223.15,-152.69"/>
<polygon fill="midnightblue" stroke="midnightblue" points="226.53,-151.75 220.94,-142.75 219.7,-153.27 226.53,-151.75"/>
</g>
<!-- Node6&#45;&gt;Node9 -->
<g id="edge9" class="edge">
<title>Node6&#45;&gt;Node9</title>
<path fill="none" stroke="midnightblue" d="M203.59,-179.44C174.23,-170.28 127.48,-155.69 94.9,-145.52"/>
<polygon fill="midnightblue" stroke="midnightblue" points="95.87,-142.16 85.28,-142.52 93.79,-148.84 95.87,-142.16"/>
</g>
<!-- Node11 -->
<g id="node11" class="node">
<title>Node11</title>
<g id="a_node11"><a xlink:title=" ">
<polygon fill="none" stroke="#bfbfbf" points="342,-123.5 342,-142.5 386,-142.5 386,-123.5 342,-123.5"/>
<text text-anchor="middle" x="364" y="-130.5" font-family="Helvetica,sans-Serif" font-size="10.00">string</text>
</a>
</g>
</g>
<!-- Node6&#45;&gt;Node11 -->
<g id="edge13" class="edge">
<title>Node6&#45;&gt;Node11</title>
<path fill="none" stroke="midnightblue" d="M252.07,-179.44C274.06,-170.52 308.73,-156.44 333.66,-146.32"/>
<polygon fill="midnightblue" stroke="midnightblue" points="335.08,-149.52 343.02,-142.52 332.44,-143.04 335.08,-149.52"/>
</g>
<!-- Node12 -->
<g id="node12" class="node">
<title>Node12</title>
<g id="a_node12"><a xlink:title=" ">
<polygon fill="none" stroke="#bfbfbf" points="134.5,-123.5 134.5,-142.5 171.5,-142.5 171.5,-123.5 134.5,-123.5"/>
<text text-anchor="middle" x="153" y="-130.5" font-family="Helvetica,sans-Serif" font-size="10.00">xc.h</text>
</a>
</g>
</g>
<!-- Node6&#45;&gt;Node12 -->
<g id="edge14" class="edge">
<title>Node6&#45;&gt;Node12</title>
<path fill="none" stroke="midnightblue" d="M218.47,-179.32C206.41,-170.98 187.97,-158.21 173.73,-148.35"/>
<polygon fill="midnightblue" stroke="midnightblue" points="175.72,-145.47 165.5,-142.65 171.73,-151.22 175.72,-145.47"/>
</g>
<!-- Node9&#45;&gt;Node2 -->
<g id="edge10" class="edge">
<title>Node9&#45;&gt;Node2</title>
<path fill="none" stroke="midnightblue" d="M116.07,-123.91C119.09,-123.58 122.08,-123.28 125,-123 395.32,-97.46 717.31,-85 864.03,-80.31"/>
<polygon fill="midnightblue" stroke="midnightblue" points="864.41,-83.8 874.29,-79.98 864.19,-76.8 864.41,-83.8"/>
</g>
<!-- Node10 -->
<g id="node10" class="node">
<title>Node10</title>
<g id="a_node10"><a xlink:href="qm_2opmatrix_8h.html" target="_top" xlink:title=" ">
<polygon fill="none" stroke="black" points="4,-67.5 4,-86.5 112,-86.5 112,-67.5 4,-67.5"/>
<text text-anchor="middle" x="58" y="-74.5" font-family="Helvetica,sans-Serif" font-size="10.00">occ/qm/opmatrix.h</text>
</a>
</g>
</g>
<!-- Node9&#45;&gt;Node10 -->
<g id="edge11" class="edge">
<title>Node9&#45;&gt;Node10</title>
<path fill="none" stroke="midnightblue" d="M52.83,-123.08C51.32,-115.93 50.89,-105.64 51.54,-96.69"/>
<polygon fill="midnightblue" stroke="midnightblue" points="55.02,-97.13 52.87,-86.75 48.08,-96.2 55.02,-97.13"/>
</g>
<!-- Node10&#45;&gt;Node9 -->
<g id="edge12" class="edge">
<title>Node10&#45;&gt;Node9</title>
<path fill="none" stroke="midnightblue" d="M63.13,-86.75C64.66,-93.86 65.1,-104.14 64.47,-113.1"/>
<polygon fill="midnightblue" stroke="midnightblue" points="60.99,-112.71 63.17,-123.08 67.93,-113.62 60.99,-112.71"/>
</g>
<!-- Node13&#45;&gt;Node2 -->
<g id="edge19" class="edge">
<title>Node13&#45;&gt;Node2</title>
<path fill="none" stroke="midnightblue" d="M631.96,-297.61C546.51,-292.09 352.46,-277.22 333,-255 294.34,-210.87 293.07,-165.98 333,-123 368.42,-84.88 706.76,-78.74 864.17,-77.97"/>
<polygon fill="midnightblue" stroke="midnightblue" points="864.29,-81.47 874.28,-77.92 864.26,-74.47 864.29,-81.47"/>
</g>
<!-- Node13&#45;&gt;Node7 -->
<g id="edge17" class="edge">
<title>Node13&#45;&gt;Node7</title>
<path fill="none" stroke="midnightblue" d="M667.8,-291.46C660.85,-278.03 645.85,-251.8 627,-235 579.66,-192.81 511.58,-162.02 471.36,-146.16"/>
<polygon fill="midnightblue" stroke="midnightblue" points="472.59,-142.89 462,-142.55 470.07,-149.42 472.59,-142.89"/>
</g>
<!-- Node13&#45;&gt;Node11 -->
<g id="edge49" class="edge">
<title>Node13&#45;&gt;Node11</title>
<path fill="none" stroke="midnightblue" d="M631.86,-295.77C594.5,-290.49 538.23,-279.04 495,-255 452.42,-231.32 451.99,-211.84 416,-179 404.98,-168.94 392.32,-157.98 382.25,-149.39"/>
<polygon fill="midnightblue" stroke="midnightblue" points="384.39,-146.61 374.5,-142.81 379.86,-151.95 384.39,-146.61"/>
</g>
<!-- Node14 -->
<g id="node14" class="node">
<title>Node14</title>
<g id="a_node14"><a xlink:title=" ">
<polygon fill="none" stroke="#bfbfbf" points="1024,-123.5 1024,-142.5 1066,-142.5 1066,-123.5 1024,-123.5"/>
<text text-anchor="middle" x="1045" y="-130.5" font-family="Helvetica,sans-Serif" font-size="10.00">array</text>
</a>
</g>
</g>
<!-- Node13&#45;&gt;Node14 -->
<g id="edge16" class="edge">
<title>Node13&#45;&gt;Node14</title>
<path fill="none" stroke="midnightblue" d="M712.05,-297.44C780.53,-292.46 916.63,-279.71 957,-255 997.48,-230.22 1025.01,-179.16 1037.45,-151.97"/>
<polygon fill="midnightblue" stroke="midnightblue" points="1040.79,-153.08 1041.6,-142.52 1034.38,-150.26 1040.79,-153.08"/>
</g>
<!-- Node15 -->
<g id="node15" class="node">
<title>Node15</title>
<g id="a_node15"><a xlink:title=" ">
<polygon fill="none" stroke="#bfbfbf" points="504,-235.5 504,-254.5 618,-254.5 618,-235.5 504,-235.5"/>
<text text-anchor="middle" x="561" y="-242.5" font-family="Helvetica,sans-Serif" font-size="10.00">gau2grid/gau2grid.h</text>
</a>
</g>
</g>
<!-- Node13&#45;&gt;Node15 -->
<g id="edge18" class="edge">
<title>Node13&#45;&gt;Node15</title>
<path fill="none" stroke="midnightblue" d="M654.17,-291.32C636.28,-282.62 608.52,-269.12 587.95,-259.11"/>
<polygon fill="midnightblue" stroke="midnightblue" points="589.31,-255.88 578.79,-254.65 586.25,-262.18 589.31,-255.88"/>
</g>
<!-- Node16 -->
<g id="node16" class="node">
<title>Node16</title>
<g id="a_node16"><a xlink:href="log_8h.html" target="_top" xlink:title=" ">
<polygon fill="none" stroke="black" points="1069,-235.5 1069,-254.5 1153,-254.5 1153,-235.5 1069,-235.5"/>
<text text-anchor="middle" x="1111" y="-242.5" font-family="Helvetica,sans-Serif" font-size="10.00">occ/core/log.h</text>
</a>
</g>
</g>
<!-- Node13&#45;&gt;Node16 -->
<g id="edge20" class="edge">
<title>Node13&#45;&gt;Node16</title>
<path fill="none" stroke="midnightblue" d="M712.12,-295.06C791.83,-285.26 970.08,-263.33 1058.78,-252.42"/>
<polygon fill="midnightblue" stroke="midnightblue" points="1059.39,-255.87 1068.89,-251.18 1058.54,-248.93 1059.39,-255.87"/>
</g>
<!-- Node18 -->
<g id="node18" class="node">
<title>Node18</title>
<g id="a_node18"><a xlink:href="timings_8h.html" target="_top" xlink:title=" ">
<polygon fill="none" stroke="black" points="342,-235.5 342,-254.5 448,-254.5 448,-235.5 342,-235.5"/>
<text text-anchor="middle" x="395" y="-242.5" font-family="Helvetica,sans-Serif" font-size="10.00">occ/core/timings.h</text>
</a>
</g>
</g>
<!-- Node13&#45;&gt;Node18 -->
<g id="edge22" class="edge">
<title>Node13&#45;&gt;Node18</title>
<path fill="none" stroke="midnightblue" d="M631.72,-292.15C583.51,-282.75 502.59,-266.97 449,-256.53"/>
<polygon fill="midnightblue" stroke="midnightblue" points="449.47,-253.05 438.99,-254.58 448.13,-259.92 449.47,-253.05"/>
</g>
<!-- Node20 -->
<g id="node20" class="node">
<title>Node20</title>
<g id="a_node20"><a xlink:href="util_8h.html" target="_top" xlink:title=" ">
<polygon fill="none" stroke="black" points="665.5,-179.5 665.5,-198.5 750.5,-198.5 750.5,-179.5 665.5,-179.5"/>
<text text-anchor="middle" x="708" y="-186.5" font-family="Helvetica,sans-Serif" font-size="10.00">occ/core/util.h</text>
</a>
</g>
</g>
<!-- Node13&#45;&gt;Node20 -->
<g id="edge25" class="edge">
<title>Node13&#45;&gt;Node20</title>
<path fill="none" stroke="midnightblue" d="M674.82,-291.37C680.66,-273.54 694.16,-232.3 702.02,-208.27"/>
<polygon fill="midnightblue" stroke="midnightblue" points="705.4,-209.18 705.19,-198.59 698.75,-207.01 705.4,-209.18"/>
</g>
<!-- Node26 -->
<g id="node26" class="node">
<title>Node26</title>
<g id="a_node26"><a xlink:title=" ">
<polygon fill="none" stroke="#bfbfbf" points="920.5,-123.5 920.5,-142.5 967.5,-142.5 967.5,-123.5 920.5,-123.5"/>
<text text-anchor="middle" x="944" y="-130.5" font-family="Helvetica,sans-Serif" font-size="10.00">vector</text>
</a>
</g>
</g>
<!-- Node13&#45;&gt;Node26 -->
<g id="edge50" class="edge">
<title>Node13&#45;&gt;Node26</title>
<path fill="none" stroke="midnightblue" d="M681.16,-291.31C704.22,-269.82 767.14,-213.43 828,-179 854.49,-164.01 886.95,-151.9 910.79,-144.03"/>
<polygon fill="midnightblue" stroke="midnightblue" points="911.99,-147.31 920.44,-140.92 909.85,-140.65 911.99,-147.31"/>
</g>
<!-- Node27 -->
<g id="node27" class="node">
<title>Node27</title>
<g id="a_node27"><a xlink:href="shell__order_8h.html" target="_top" xlink:title=" ">
<polygon fill="none" stroke="black" points="1234.5,-235.5 1234.5,-254.5 1351.5,-254.5 1351.5,-235.5 1234.5,-235.5"/>
<text text-anchor="middle" x="1293" y="-242.5" font-family="Helvetica,sans-Serif" font-size="10.00">occ/gto/shell_order.h</text>
</a>
</g>
</g>
<!-- Node13&#45;&gt;Node27 -->
<g id="edge35" class="edge">
<title>Node13&#45;&gt;Node27</title>
<path fill="none" stroke="midnightblue" d="M712.27,-296.5C816.16,-287.46 1094.17,-263.29 1224.19,-251.98"/>
<polygon fill="midnightblue" stroke="midnightblue" points="1224.76,-255.45 1234.42,-251.09 1224.15,-248.47 1224.76,-255.45"/>
</g>
<!-- Node29 -->
<g id="node29" class="node">
<title>Node29</title>
<g id="a_node29"><a xlink:href="shell_8h.html" target="_top" xlink:title=" ">
<polygon fill="none" stroke="black" points="860.5,-235.5 860.5,-254.5 947.5,-254.5 947.5,-235.5 860.5,-235.5"/>
<text text-anchor="middle" x="904" y="-242.5" font-family="Helvetica,sans-Serif" font-size="10.00">occ/qm/shell.h</text>
</a>
</g>
</g>
<!-- Node13&#45;&gt;Node29 -->
<g id="edge37" class="edge">
<title>Node13&#45;&gt;Node29</title>
<path fill="none" stroke="midnightblue" d="M708.76,-291.44C749.06,-282.06 813.81,-266.99 857.58,-256.8"/>
<polygon fill="midnightblue" stroke="midnightblue" points="858.46,-260.19 867.41,-254.52 856.88,-253.37 858.46,-260.19"/>
</g>
<!-- Node17 -->
<g id="node17" class="node">
<title>Node17</title>
<g id="a_node17"><a xlink:title=" ">
<polygon fill="none" stroke="#bfbfbf" points="1225.5,-179.5 1225.5,-198.5 1318.5,-198.5 1318.5,-179.5 1225.5,-179.5"/>
<text text-anchor="middle" x="1272" y="-186.5" font-family="Helvetica,sans-Serif" font-size="10.00">spdlog/spdlog.h</text>
</a>
</g>
</g>
<!-- Node16&#45;&gt;Node17 -->
<g id="edge21" class="edge">
<title>Node16&#45;&gt;Node17</title>
<path fill="none" stroke="midnightblue" d="M1136.51,-235.44C1163.6,-226.36 1206.59,-211.94 1236.87,-201.78"/>
<polygon fill="midnightblue" stroke="midnightblue" points="1238.24,-205.01 1246.61,-198.52 1236.01,-198.38 1238.24,-205.01"/>
</g>
<!-- Node18&#45;&gt;Node11 -->
<g id="edge24" class="edge">
<title>Node18&#45;&gt;Node11</title>
<path fill="none" stroke="midnightblue" d="M398.09,-235.29C402.12,-222.54 407.88,-198.2 401,-179 397.06,-168 389.14,-157.77 381.64,-149.85"/>
<polygon fill="midnightblue" stroke="midnightblue" points="384.02,-147.28 374.44,-142.76 379.11,-152.27 384.02,-147.28"/>
</g>
<!-- Node19 -->
<g id="node19" class="node">
<title>Node19</title>
<g id="a_node19"><a xlink:title=" ">
<polygon fill="none" stroke="#bfbfbf" points="342,-179.5 342,-198.5 392,-198.5 392,-179.5 342,-179.5"/>
<text text-anchor="middle" x="367" y="-186.5" font-family="Helvetica,sans-Serif" font-size="10.00">chrono</text>
</a>
</g>
</g>
<!-- Node18&#45;&gt;Node19 -->
<g id="edge23" class="edge">
<title>Node18&#45;&gt;Node19</title>
<path fill="none" stroke="midnightblue" d="M390.38,-235.08C386.54,-227.69 380.98,-216.95 376.24,-207.81"/>
<polygon fill="midnightblue" stroke="midnightblue" points="379.25,-206.02 371.54,-198.75 373.03,-209.24 379.25,-206.02"/>
</g>
<!-- Node20&#45;&gt;Node2 -->
<g id="edge32" class="edge">
<title>Node20&#45;&gt;Node2</title>
<path fill="none" stroke="midnightblue" d="M747.59,-179.47C789.2,-170.1 851.55,-154.83 873,-143 895.76,-130.46 917.06,-109.17 930.28,-94.39"/>
<polygon fill="midnightblue" stroke="midnightblue" points="933.17,-96.4 937.08,-86.56 927.89,-91.81 933.17,-96.4"/>
</g>
<!-- Node20&#45;&gt;Node7 -->
<g id="edge28" class="edge">
<title>Node20&#45;&gt;Node7</title>
<path fill="none" stroke="midnightblue" d="M665.3,-179.68C621.7,-171.14 551.8,-157.38 481.69,-143.12"/>
<polygon fill="midnightblue" stroke="midnightblue" points="482.29,-139.67 471.79,-141.11 480.89,-146.53 482.29,-139.67"/>
</g>
<!-- Node20&#45;&gt;Node11 -->
<g id="edge33" class="edge">
<title>Node20&#45;&gt;Node11</title>
<path fill="none" stroke="midnightblue" d="M665.3,-183.63C606.8,-177.26 498.35,-164.04 396.16,-142.76"/>
<polygon fill="midnightblue" stroke="midnightblue" points="396.79,-139.31 386.29,-140.67 395.35,-146.16 396.79,-139.31"/>
</g>
<!-- Node21 -->
<g id="node21" class="node">
<title>Node21</title>
<g id="a_node21"><a xlink:title=" ">
<polygon fill="none" stroke="#bfbfbf" points="628,-123.5 628,-142.5 692,-142.5 692,-123.5 628,-123.5"/>
<text text-anchor="middle" x="660" y="-130.5" font-family="Helvetica,sans-Serif" font-size="10.00">algorithm</text>
</a>
</g>
</g>
<!-- Node20&#45;&gt;Node21 -->
<g id="edge26" class="edge">
<title>Node20&#45;&gt;Node21</title>
<path fill="none" stroke="midnightblue" d="M700.07,-179.08C693.15,-171.3 682.93,-159.8 674.55,-150.37"/>
<polygon fill="midnightblue" stroke="midnightblue" points="677.04,-147.9 667.78,-142.75 671.81,-152.55 677.04,-147.9"/>
</g>
<!-- Node22 -->
<g id="node22" class="node">
<title>Node22</title>
<g id="a_node22"><a xlink:title=" ">
<polygon fill="none" stroke="#bfbfbf" points="710.5,-123.5 710.5,-142.5 759.5,-142.5 759.5,-123.5 710.5,-123.5"/>
<text text-anchor="middle" x="735" y="-130.5" font-family="Helvetica,sans-Serif" font-size="10.00">cctype</text>
</a>
</g>
</g>
<!-- Node20&#45;&gt;Node22 -->
<g id="edge27" class="edge">
<title>Node20&#45;&gt;Node22</title>
<path fill="none" stroke="midnightblue" d="M712.46,-179.08C716.15,-171.69 721.52,-160.95 726.09,-151.81"/>
<polygon fill="midnightblue" stroke="midnightblue" points="729.28,-153.26 730.62,-142.75 723.02,-150.13 729.28,-153.26"/>
</g>
<!-- Node23 -->
<g id="node23" class="node">
<title>Node23</title>
<g id="a_node23"><a xlink:title=" ">
<polygon fill="none" stroke="#bfbfbf" points="778,-123.5 778,-142.5 864,-142.5 864,-123.5 778,-123.5"/>
<text text-anchor="middle" x="821" y="-130.5" font-family="Helvetica,sans-Serif" font-size="10.00">fmt/ostream.h</text>
</a>
</g>
</g>
<!-- Node20&#45;&gt;Node23 -->
<g id="edge29" class="edge">
<title>Node20&#45;&gt;Node23</title>
<path fill="none" stroke="midnightblue" d="M725.91,-179.44C744.25,-170.68 773.01,-156.94 794.09,-146.86"/>
<polygon fill="midnightblue" stroke="midnightblue" points="795.67,-149.99 803.18,-142.52 792.65,-143.67 795.67,-149.99"/>
</g>
<!-- Node24 -->
<g id="node24" class="node">
<title>Node24</title>
<g id="a_node24"><a xlink:title=" ">
<polygon fill="none" stroke="#bfbfbf" points="490,-123.5 490,-142.5 536,-142.5 536,-123.5 490,-123.5"/>
<text text-anchor="middle" x="513" y="-130.5" font-family="Helvetica,sans-Serif" font-size="10.00">locale</text>
</a>
</g>
</g>
<!-- Node20&#45;&gt;Node24 -->
<g id="edge30" class="edge">
<title>Node20&#45;&gt;Node24</title>
<path fill="none" stroke="midnightblue" d="M676.74,-179.42C645.9,-170.94 597.17,-157.52 545.99,-143.27"/>
<polygon fill="midnightblue" stroke="midnightblue" points="546.64,-139.81 536.07,-140.5 544.76,-146.56 546.64,-139.81"/>
</g>
<!-- Node25 -->
<g id="node25" class="node">
<title>Node25</title>
<g id="a_node25"><a xlink:title=" ">
<polygon fill="none" stroke="#bfbfbf" points="554,-123.5 554,-142.5 610,-142.5 610,-123.5 554,-123.5"/>
<text text-anchor="middle" x="582" y="-130.5" font-family="Helvetica,sans-Serif" font-size="10.00">numeric</text>
</a>
</g>
</g>
<!-- Node20&#45;&gt;Node25 -->
<g id="edge31" class="edge">
<title>Node20&#45;&gt;Node25</title>
<path fill="none" stroke="midnightblue" d="M688.03,-179.44C667.39,-170.6 634.94,-156.69 611.37,-146.59"/>
<polygon fill="midnightblue" stroke="midnightblue" points="612.44,-143.24 601.87,-142.52 609.68,-149.67 612.44,-143.24"/>
</g>
<!-- Node20&#45;&gt;Node26 -->
<g id="edge34" class="edge">
<title>Node20&#45;&gt;Node26</title>
<path fill="none" stroke="midnightblue" d="M745.98,-179.48C785.86,-170.5 850.37,-155.91 906,-143 907.44,-142.66 908.92,-142.32 910.41,-141.97"/>
<polygon fill="midnightblue" stroke="midnightblue" points="911.36,-145.35 920.29,-139.65 909.76,-138.53 911.36,-145.35"/>
</g>
<!-- Node28 -->
<g id="node28" class="node">
<title>Node28</title>
<g id="a_node28"><a xlink:title=" ">
<polygon fill="none" stroke="#bfbfbf" points="1336.5,-179.5 1336.5,-198.5 1383.5,-198.5 1383.5,-179.5 1336.5,-179.5"/>
<text text-anchor="middle" x="1360" y="-186.5" font-family="Helvetica,sans-Serif" font-size="10.00">cmath</text>
</a>
</g>
</g>
<!-- Node27&#45;&gt;Node28 -->
<g id="edge36" class="edge">
<title>Node27&#45;&gt;Node28</title>
<path fill="none" stroke="midnightblue" d="M1303.76,-235.32C1313.77,-227.26 1328.89,-215.08 1340.93,-205.37"/>
<polygon fill="midnightblue" stroke="midnightblue" points="1343.45,-207.83 1349.04,-198.83 1339.06,-202.38 1343.45,-207.83"/>
</g>
<!-- Node29&#45;&gt;Node2 -->
<g id="edge42" class="edge">
<title>Node29&#45;&gt;Node2</title>
<path fill="none" stroke="midnightblue" d="M911.22,-235.49C928.3,-215.16 970.24,-163.89 977,-143 982.62,-125.62 971.41,-107.17 960.56,-94.38"/>
<polygon fill="midnightblue" stroke="midnightblue" points="963,-91.87 953.66,-86.87 957.85,-96.6 963,-91.87"/>
</g>
<!-- Node29&#45;&gt;Node14 -->
<g id="edge38" class="edge">
<title>Node29&#45;&gt;Node14</title>
<path fill="none" stroke="midnightblue" d="M915.06,-235.37C939.05,-216.65 996.1,-172.15 1025.99,-148.83"/>
<polygon fill="midnightblue" stroke="midnightblue" points="1028.26,-151.5 1033.99,-142.59 1023.95,-145.98 1028.26,-151.5"/>
</g>
<!-- Node29&#45;&gt;Node20 -->
<g id="edge47" class="edge">
<title>Node29&#45;&gt;Node20</title>
<path fill="none" stroke="midnightblue" d="M872.94,-235.44C839.4,-226.2 785.8,-211.44 748.86,-201.26"/>
<polygon fill="midnightblue" stroke="midnightblue" points="749.48,-197.8 738.91,-198.52 747.62,-204.55 749.48,-197.8"/>
</g>
<!-- Node29&#45;&gt;Node26 -->
<g id="edge48" class="edge">
<title>Node29&#45;&gt;Node26</title>
<path fill="none" stroke="midnightblue" d="M882.25,-235.35C856.89,-223.93 820.33,-202.51 836,-179 844.72,-165.92 882.36,-152.21 910.77,-143.41"/>
<polygon fill="midnightblue" stroke="midnightblue" points="911.82,-146.75 920.38,-140.51 909.79,-140.05 911.82,-146.75"/>
</g>
<!-- Node30 -->
<g id="node30" class="node">
<title>Node30</title>
<g id="a_node30"><a xlink:title=" ">
<polygon fill="none" stroke="#bfbfbf" points="845,-179.5 845,-198.5 905,-198.5 905,-179.5 845,-179.5"/>
<text text-anchor="middle" x="875" y="-186.5" font-family="Helvetica,sans-Serif" font-size="10.00">iostream</text>
</a>
</g>
</g>
<!-- Node29&#45;&gt;Node30 -->
<g id="edge39" class="edge">
<title>Node29&#45;&gt;Node30</title>
<path fill="none" stroke="midnightblue" d="M899.21,-235.08C895.24,-227.69 889.47,-216.95 884.57,-207.81"/>
<polygon fill="midnightblue" stroke="midnightblue" points="887.51,-205.91 879.7,-198.75 881.35,-209.22 887.51,-205.91"/>
</g>
<!-- Node31 -->
<g id="node31" class="node">
<title>Node31</title>
<g id="a_node31"><a xlink:href="atom_8h.html" target="_top" xlink:title=" ">
<polygon fill="none" stroke="black" points="1122.5,-123.5 1122.5,-142.5 1217.5,-142.5 1217.5,-123.5 1122.5,-123.5"/>
<text text-anchor="middle" x="1170" y="-130.5" font-family="Helvetica,sans-Serif" font-size="10.00">occ/core/atom.h</text>
</a>
</g>
</g>
<!-- Node29&#45;&gt;Node31 -->
<g id="edge40" class="edge">
<title>Node29&#45;&gt;Node31</title>
<path fill="none" stroke="midnightblue" d="M947.74,-239.91C1021.31,-232.57 1163.28,-216.34 1178,-199 1188.9,-186.17 1184.51,-166.44 1178.88,-152.08"/>
<polygon fill="midnightblue" stroke="midnightblue" points="1182,-150.48 1174.76,-142.75 1175.6,-153.31 1182,-150.48"/>
</g>
<!-- Node32 -->
<g id="node32" class="node">
<title>Node32</title>
<g id="a_node32"><a xlink:href="point__charge_8h.html" target="_top" xlink:title=" ">
<polygon fill="none" stroke="black" points="1037,-179.5 1037,-198.5 1169,-198.5 1169,-179.5 1037,-179.5"/>
<text text-anchor="middle" x="1103" y="-186.5" font-family="Helvetica,sans-Serif" font-size="10.00">occ/core/point_charge.h</text>
</a>
</g>
</g>
<!-- Node29&#45;&gt;Node32 -->
<g id="edge43" class="edge">
<title>Node29&#45;&gt;Node32</title>
<path fill="none" stroke="midnightblue" d="M935.53,-235.44C969.59,-226.2 1024.01,-211.44 1061.52,-201.26"/>
<polygon fill="midnightblue" stroke="midnightblue" points="1062.88,-204.51 1071.62,-198.52 1061.05,-197.76 1062.88,-204.51"/>
</g>
<!-- Node31&#45;&gt;Node2 -->
<g id="edge41" class="edge">
<title>Node31&#45;&gt;Node2</title>
<path fill="none" stroke="midnightblue" d="M1134.19,-123.44C1095.01,-114.08 1032.12,-99.06 989.48,-88.87"/>
<polygon fill="midnightblue" stroke="midnightblue" points="990.18,-85.44 979.64,-86.52 988.56,-92.24 990.18,-85.44"/>
</g>
<!-- Node32&#45;&gt;Node2 -->
<g id="edge46" class="edge">
<title>Node32&#45;&gt;Node2</title>
<path fill="none" stroke="midnightblue" d="M1101.54,-179.11C1098.79,-165.22 1091.58,-138.37 1075,-123 1057.02,-106.34 1032.59,-95.81 1009.69,-89.17"/>
<polygon fill="midnightblue" stroke="midnightblue" points="1010.57,-85.78 1000,-86.56 1008.74,-92.54 1010.57,-85.78"/>
</g>
<!-- Node32&#45;&gt;Node14 -->
<g id="edge44" class="edge">
<title>Node32&#45;&gt;Node14</title>
<path fill="none" stroke="midnightblue" d="M1093.68,-179.32C1085.11,-171.34 1072.19,-159.31 1061.81,-149.65"/>
<polygon fill="midnightblue" stroke="midnightblue" points="1064.19,-147.09 1054.49,-142.83 1059.42,-152.21 1064.19,-147.09"/>
</g>
<!-- Node32&#45;&gt;Node31 -->
<g id="edge45" class="edge">
<title>Node32&#45;&gt;Node31</title>
<path fill="none" stroke="midnightblue" d="M1113.76,-179.32C1123.77,-171.26 1138.89,-159.08 1150.93,-149.37"/>
<polygon fill="midnightblue" stroke="midnightblue" points="1153.45,-151.83 1159.04,-142.83 1149.06,-146.38 1153.45,-151.83"/>
</g>
</g>
</svg>
