<?xml version="1.0" encoding="UTF-8" standalone="no"?>
<!DOCTYPE svg PUBLIC "-//W3C//DTD SVG 1.1//EN"
 "http://www.w3.org/Graphics/SVG/1.1/DTD/svg11.dtd">
<!-- Generated by graphviz version 2.43.0 (0)
 -->
<!-- Title: /home/runner/work/occ/occ/include/occ/dft/xc_potential_matrix.h Pages: 1 -->
<svg width="1618pt" height="390pt"
 viewBox="0.00 0.00 1617.56 390.00" xmlns="http://www.w3.org/2000/svg" xmlns:xlink="http://www.w3.org/1999/xlink">
<g id="graph0" class="graph" transform="scale(1 1) rotate(0) translate(4 386)">
<title>/home/runner/work/occ/occ/include/occ/dft/xc_potential_matrix.h</title>
<!-- Node1 -->
<g id="Node000001" class="node">
<title>Node1</title>
<g id="a_Node000001"><a xlink:title=" ">
<polygon fill="#999999" stroke="#666666" points="1062.56,-382 934.56,-382 934.56,-341 1062.56,-341 1062.56,-382"/>
<text text-anchor="start" x="942.56" y="-370" font-family="Helvetica,sans-Serif" font-size="10.00">/home/runner/work/occ</text>
<text text-anchor="start" x="942.56" y="-359" font-family="Helvetica,sans-Serif" font-size="10.00">/occ/include/occ/dft</text>
<text text-anchor="middle" x="998.56" y="-348" font-family="Helvetica,sans-Serif" font-size="10.00">/xc_potential_matrix.h</text>
</a>
</g>
</g>
<!-- Node2 -->
<g id="Node000002" class="node">
<title>Node2</title>
<g id="a_Node000002"><a xlink:href="linear__algebra_8h.html" target="_top" xlink:title=" ">
<polygon fill="white" stroke="#666666" points="921.06,-74 782.06,-74 782.06,-55 921.06,-55 921.06,-74"/>
<text text-anchor="middle" x="851.56" y="-62" font-family="Helvetica,sans-Serif" font-size="10.00">occ/core/linear_algebra.h</text>
</a>
</g>
</g>
<!-- Node1&#45;&gt;Node2 -->
<g id="edge1_Node000001_Node000002" class="edge">
<title>Node1&#45;&gt;Node2</title>
<g id="a_edge1_Node000001_Node000002"><a xlink:title=" ">
<path fill="none" stroke="#63b8ff" d="M1062.8,-360.85C1219.67,-359.98 1609.56,-346.69 1609.56,-236 1609.56,-236 1609.56,-236 1609.56,-173.5 1609.56,-105.55 1126.02,-77.25 931.34,-68.61"/>
<polygon fill="#63b8ff" stroke="#63b8ff" points="931.32,-65.1 921.18,-68.16 931.01,-72.1 931.32,-65.1"/>
</a>
</g>
</g>
<!-- Node6 -->
<g id="Node000006" class="node">
<title>Node6</title>
<g id="a_Node000006"><a xlink:href="functional_8h.html" target="_top" xlink:title=" ">
<polygon fill="white" stroke="#666666" points="355.56,-305 245.56,-305 245.56,-286 355.56,-286 355.56,-305"/>
<text text-anchor="middle" x="300.56" y="-293" font-family="Helvetica,sans-Serif" font-size="10.00">occ/dft/functional.h</text>
</a>
</g>
</g>
<!-- Node1&#45;&gt;Node6 -->
<g id="edge5_Node000001_Node000006" class="edge">
<title>Node1&#45;&gt;Node6</title>
<g id="a_edge5_Node000001_Node000006"><a xlink:title=" ">
<path fill="none" stroke="#63b8ff" d="M934.46,-354.62C801.92,-342.47 499.02,-314.7 365.65,-302.47"/>
<polygon fill="#63b8ff" stroke="#63b8ff" points="365.85,-298.97 355.58,-301.54 365.22,-305.94 365.85,-298.97"/>
</a>
</g>
</g>
<!-- Node9 -->
<g id="Node000009" class="node">
<title>Node9</title>
<g id="a_Node000009"><a xlink:href="spinorbital_8h.html" target="_top" xlink:title=" ">
<polygon fill="white" stroke="#666666" points="1095.56,-244.5 979.56,-244.5 979.56,-225.5 1095.56,-225.5 1095.56,-244.5"/>
<text text-anchor="middle" x="1037.56" y="-232.5" font-family="Helvetica,sans-Serif" font-size="10.00">occ/qm/spinorbital.h</text>
</a>
</g>
</g>
<!-- Node1&#45;&gt;Node9 -->
<g id="edge55_Node000001_Node000009" class="edge">
<title>Node1&#45;&gt;Node9</title>
<g id="a_edge55_Node000001_Node000009"><a xlink:title=" ">
<path fill="none" stroke="#63b8ff" d="M1004.74,-340.77C1012.2,-316.98 1024.62,-277.3 1031.86,-254.21"/>
<polygon fill="#63b8ff" stroke="#63b8ff" points="1035.21,-255.2 1034.86,-244.61 1028.53,-253.11 1035.21,-255.2"/>
</a>
</g>
</g>
<!-- Node21 -->
<g id="Node000021" class="node">
<title>Node21</title>
<g id="a_Node000021"><a xlink:href="gto_8h.html" target="_top" xlink:title=" ">
<polygon fill="white" stroke="#666666" points="995.56,-305 915.56,-305 915.56,-286 995.56,-286 995.56,-305"/>
<text text-anchor="middle" x="955.56" y="-293" font-family="Helvetica,sans-Serif" font-size="10.00">occ/gto/gto.h</text>
</a>
</g>
</g>
<!-- Node1&#45;&gt;Node21 -->
<g id="edge27_Node000001_Node000021" class="edge">
<title>Node1&#45;&gt;Node21</title>
<g id="a_edge27_Node000001_Node000021"><a xlink:title=" ">
<path fill="none" stroke="#63b8ff" d="M985.43,-340.95C979.61,-332.3 972.83,-322.2 967.2,-313.82"/>
<polygon fill="#63b8ff" stroke="#63b8ff" points="969.93,-311.61 961.45,-305.26 964.12,-315.51 969.93,-311.61"/>
</a>
</g>
</g>
<!-- Node3 -->
<g id="Node000003" class="node">
<title>Node3</title>
<g id="a_Node000003"><a xlink:title=" ">
<polygon fill="#e0e0e0" stroke="#999999" points="941.06,-19 864.06,-19 864.06,0 941.06,0 941.06,-19"/>
<text text-anchor="middle" x="902.56" y="-7" font-family="Helvetica,sans-Serif" font-size="10.00">Eigen/Dense</text>
</a>
</g>
</g>
<!-- Node2&#45;&gt;Node3 -->
<g id="edge2_Node000002_Node000003" class="edge">
<title>Node2&#45;&gt;Node3</title>
<g id="a_edge2_Node000002_Node000003"><a xlink:title=" ">
<path fill="none" stroke="#63b8ff" d="M859.98,-54.75C867.34,-47.11 878.19,-35.82 887.11,-26.56"/>
<polygon fill="#63b8ff" stroke="#63b8ff" points="889.89,-28.72 894.3,-19.09 884.84,-23.87 889.89,-28.72"/>
</a>
</g>
</g>
<!-- Node4 -->
<g id="Node000004" class="node">
<title>Node4</title>
<g id="a_Node000004"><a xlink:title=" ">
<polygon fill="#e0e0e0" stroke="#999999" points="846.06,-19 753.06,-19 753.06,0 846.06,0 846.06,-19"/>
<text text-anchor="middle" x="799.56" y="-7" font-family="Helvetica,sans-Serif" font-size="10.00">Eigen/StdVector</text>
</a>
</g>
</g>
<!-- Node2&#45;&gt;Node4 -->
<g id="edge3_Node000002_Node000004" class="edge">
<title>Node2&#45;&gt;Node4</title>
<g id="a_edge3_Node000002_Node000004"><a xlink:title=" ">
<path fill="none" stroke="#63b8ff" d="M842.98,-54.75C835.4,-47.03 824.18,-35.6 815.05,-26.28"/>
<polygon fill="#63b8ff" stroke="#63b8ff" points="817.49,-23.78 807.99,-19.09 812.49,-28.68 817.49,-23.78"/>
</a>
</g>
</g>
<!-- Node5 -->
<g id="Node000005" class="node">
<title>Node5</title>
<g id="a_Node000005"><a xlink:title=" ">
<polygon fill="#e0e0e0" stroke="#999999" points="433.06,-19 366.06,-19 366.06,0 433.06,0 433.06,-19"/>
<text text-anchor="middle" x="399.56" y="-7" font-family="Helvetica,sans-Serif" font-size="10.00">fmt/core.h</text>
</a>
</g>
</g>
<!-- Node2&#45;&gt;Node5 -->
<g id="edge4_Node000002_Node000005" class="edge">
<title>Node2&#45;&gt;Node5</title>
<g id="a_edge4_Node000002_Node000005"><a xlink:title=" ">
<path fill="none" stroke="#63b8ff" d="M781.93,-55.33C687.6,-44.27 522,-24.86 443.38,-15.64"/>
<polygon fill="#63b8ff" stroke="#63b8ff" points="443.67,-12.15 433.33,-14.46 442.86,-19.1 443.67,-12.15"/>
</a>
</g>
</g>
<!-- Node6&#45;&gt;Node2 -->
<g id="edge8_Node000006_Node000002" class="edge">
<title>Node6&#45;&gt;Node2</title>
<g id="a_edge8_Node000006_Node000002"><a xlink:title=" ">
<path fill="none" stroke="#63b8ff" d="M304.16,-285.95C317.43,-255.65 366.81,-152.93 443.56,-110 498.1,-79.49 669.45,-69.9 771.93,-66.88"/>
<polygon fill="#63b8ff" stroke="#63b8ff" points="772.04,-70.38 781.93,-66.6 771.84,-63.38 772.04,-70.38"/>
</a>
</g>
</g>
<!-- Node6&#45;&gt;Node5 -->
<g id="edge6_Node000006_Node000005" class="edge">
<title>Node6&#45;&gt;Node5</title>
<g id="a_edge6_Node000006_Node000005"><a xlink:title=" ">
<path fill="none" stroke="#63b8ff" d="M245.3,-292.74C173.25,-289.3 52.61,-279.23 20.56,-250 -4.69,-226.98 1.56,-209.67 1.56,-175.5 1.56,-175.5 1.56,-175.5 1.56,-118.5 1.56,-45.73 252.49,-20.43 355.86,-13.1"/>
<polygon fill="#63b8ff" stroke="#63b8ff" points="356.23,-16.58 365.97,-12.4 355.76,-9.6 356.23,-16.58"/>
</a>
</g>
</g>
<!-- Node7 -->
<g id="Node000007" class="node">
<title>Node7</title>
<g id="a_Node000007"><a xlink:title=" ">
<polygon fill="#e0e0e0" stroke="#999999" points="87.56,-244.5 29.56,-244.5 29.56,-225.5 87.56,-225.5 87.56,-244.5"/>
<text text-anchor="middle" x="58.56" y="-232.5" font-family="Helvetica,sans-Serif" font-size="10.00">memory</text>
</a>
</g>
</g>
<!-- Node6&#45;&gt;Node7 -->
<g id="edge7_Node000006_Node000007" class="edge">
<title>Node6&#45;&gt;Node7</title>
<g id="a_edge7_Node000006_Node000007"><a xlink:title=" ">
<path fill="none" stroke="#63b8ff" d="M252.69,-286C211.05,-278.14 149.28,-265.38 96.56,-250 94.28,-249.34 91.95,-248.6 89.6,-247.83"/>
<polygon fill="#63b8ff" stroke="#63b8ff" points="90.69,-244.5 80.09,-244.52 88.39,-251.11 90.69,-244.5"/>
</a>
</g>
</g>
<!-- Node8 -->
<g id="Node000008" class="node">
<title>Node8</title>
<g id="a_Node000008"><a xlink:href="range__separated__parameters_8h.html" target="_top" xlink:title=" ">
<polygon fill="white" stroke="#666666" points="239.56,-250 105.56,-250 105.56,-220 239.56,-220 239.56,-250"/>
<text text-anchor="start" x="113.56" y="-238" font-family="Helvetica,sans-Serif" font-size="10.00">occ/dft/range_separated</text>
<text text-anchor="middle" x="172.56" y="-227" font-family="Helvetica,sans-Serif" font-size="10.00">_parameters.h</text>
</a>
</g>
</g>
<!-- Node6&#45;&gt;Node8 -->
<g id="edge9_Node000006_Node000008" class="edge">
<title>Node6&#45;&gt;Node8</title>
<g id="a_edge9_Node000006_Node000008"><a xlink:title=" ">
<path fill="none" stroke="#63b8ff" d="M281.95,-285.99C263.91,-277.75 235.96,-264.98 212.83,-254.4"/>
<polygon fill="#63b8ff" stroke="#63b8ff" points="214.13,-251.15 203.58,-250.18 211.22,-257.52 214.13,-251.15"/>
</a>
</g>
</g>
<!-- Node6&#45;&gt;Node9 -->
<g id="edge10_Node000006_Node000009" class="edge">
<title>Node6&#45;&gt;Node9</title>
<g id="a_edge10_Node000006_Node000009"><a xlink:title=" ">
<path fill="none" stroke="#63b8ff" d="M355.78,-290.76C460.64,-283.58 695.81,-267.03 893.56,-250 918.31,-247.87 945.42,-245.3 969.38,-242.94"/>
<polygon fill="#63b8ff" stroke="#63b8ff" points="969.83,-246.41 979.43,-241.95 969.14,-239.45 969.83,-246.41"/>
</a>
</g>
</g>
<!-- Node17 -->
<g id="Node000017" class="node">
<title>Node17</title>
<g id="a_Node000017"><a xlink:title=" ">
<polygon fill="#e0e0e0" stroke="#999999" points="1399.56,-129 1355.56,-129 1355.56,-110 1399.56,-110 1399.56,-129"/>
<text text-anchor="middle" x="1377.56" y="-117" font-family="Helvetica,sans-Serif" font-size="10.00">string</text>
</a>
</g>
</g>
<!-- Node6&#45;&gt;Node17 -->
<g id="edge25_Node000006_Node000017" class="edge">
<title>Node6&#45;&gt;Node17</title>
<g id="a_edge25_Node000006_Node000017"><a xlink:title=" ">
<path fill="none" stroke="#63b8ff" d="M355.7,-293.37C525.78,-289.63 1035.02,-276.32 1104.56,-250 1124.69,-242.38 1124.04,-230.96 1142.56,-220 1211.12,-179.43 1299.3,-146.76 1345.72,-130.91"/>
<polygon fill="#63b8ff" stroke="#63b8ff" points="1346.89,-134.21 1355.24,-127.7 1344.65,-127.58 1346.89,-134.21"/>
</a>
</g>
</g>
<!-- Node20 -->
<g id="Node000020" class="node">
<title>Node20</title>
<g id="a_Node000020"><a xlink:title=" ">
<polygon fill="#e0e0e0" stroke="#999999" points="295.06,-244.5 258.06,-244.5 258.06,-225.5 295.06,-225.5 295.06,-244.5"/>
<text text-anchor="middle" x="276.56" y="-232.5" font-family="Helvetica,sans-Serif" font-size="10.00">xc.h</text>
</a>
</g>
</g>
<!-- Node6&#45;&gt;Node20 -->
<g id="edge26_Node000006_Node000020" class="edge">
<title>Node6&#45;&gt;Node20</title>
<g id="a_edge26_Node000006_Node000020"><a xlink:title=" ">
<path fill="none" stroke="#63b8ff" d="M297.02,-285.87C293.62,-277.57 288.37,-264.78 284.04,-254.22"/>
<polygon fill="#63b8ff" stroke="#63b8ff" points="287.15,-252.59 280.12,-244.67 280.68,-255.25 287.15,-252.59"/>
</a>
</g>
</g>
<!-- Node9&#45;&gt;Node2 -->
<g id="edge11_Node000009_Node000002" class="edge">
<title>Node9&#45;&gt;Node2</title>
<g id="a_edge11_Node000009_Node000002"><a xlink:title=" ">
<path fill="none" stroke="#63b8ff" d="M1077.8,-225.45C1103.42,-218.19 1135.76,-205.44 1157.56,-184 1182.21,-159.76 1204.32,-136.03 1181.56,-110 1149.72,-73.58 1018.45,-65.76 931.38,-64.71"/>
<polygon fill="#63b8ff" stroke="#63b8ff" points="931.29,-61.21 921.26,-64.62 931.22,-68.21 931.29,-61.21"/>
</a>
</g>
</g>
<!-- Node10 -->
<g id="Node000010" class="node">
<title>Node10</title>
<g id="a_Node000010"><a xlink:href="util_8h.html" target="_top" xlink:title=" ">
<polygon fill="white" stroke="#666666" points="1022.06,-184 937.06,-184 937.06,-165 1022.06,-165 1022.06,-184"/>
<text text-anchor="middle" x="979.56" y="-172" font-family="Helvetica,sans-Serif" font-size="10.00">occ/core/util.h</text>
</a>
</g>
</g>
<!-- Node9&#45;&gt;Node10 -->
<g id="edge12_Node000009_Node000010" class="edge">
<title>Node9&#45;&gt;Node10</title>
<g id="a_edge12_Node000009_Node000010"><a xlink:title=" ">
<path fill="none" stroke="#63b8ff" d="M1029,-225.37C1020.18,-216.47 1006.22,-202.39 995.38,-191.45"/>
<polygon fill="#63b8ff" stroke="#63b8ff" points="997.68,-188.8 988.16,-184.17 992.71,-193.73 997.68,-188.8"/>
</a>
</g>
</g>
<!-- Node19 -->
<g id="Node000019" class="node">
<title>Node19</title>
<g id="a_Node000019"><a xlink:href="qm_2opmatrix_8h.html" target="_top" xlink:title=" ">
<polygon fill="white" stroke="#666666" points="1148.56,-184 1040.56,-184 1040.56,-165 1148.56,-165 1148.56,-184"/>
<text text-anchor="middle" x="1094.56" y="-172" font-family="Helvetica,sans-Serif" font-size="10.00">occ/qm/opmatrix.h</text>
</a>
</g>
</g>
<!-- Node9&#45;&gt;Node19 -->
<g id="edge23_Node000009_Node000019" class="edge">
<title>Node9&#45;&gt;Node19</title>
<g id="a_edge23_Node000009_Node000019"><a xlink:title=" ">
<path fill="none" stroke="#63b8ff" d="M1041.02,-225.37C1047.9,-216.3 1061.63,-201.84 1073.62,-190.82"/>
<polygon fill="#63b8ff" stroke="#63b8ff" points="1075.97,-193.41 1081.15,-184.17 1071.34,-188.16 1075.97,-193.41"/>
</a>
</g>
</g>
<!-- Node10&#45;&gt;Node2 -->
<g id="edge20_Node000010_Node000002" class="edge">
<title>Node10&#45;&gt;Node2</title>
<g id="a_edge20_Node000010_Node000002"><a xlink:title=" ">
<path fill="none" stroke="#63b8ff" d="M1022.5,-166.04C1074.34,-156.6 1155.72,-140.22 1164.56,-129 1169.79,-122.37 1170.1,-116.38 1164.56,-110 1134.95,-75.88 1013.97,-67.24 931.4,-65.42"/>
<polygon fill="#63b8ff" stroke="#63b8ff" points="931.34,-61.92 921.27,-65.23 931.2,-68.92 931.34,-61.92"/>
</a>
</g>
</g>
<!-- Node10&#45;&gt;Node5 -->
<g id="edge16_Node000010_Node000005" class="edge">
<title>Node10&#45;&gt;Node5</title>
<g id="a_edge16_Node000010_Node000005"><a xlink:title=" ">
<path fill="none" stroke="#63b8ff" d="M936.72,-167.39C894.28,-160.63 827.81,-148.08 772.56,-129 754.34,-122.71 751.53,-117 733.56,-110 631.88,-70.39 507.7,-37.21 443.19,-21.06"/>
<polygon fill="#63b8ff" stroke="#63b8ff" points="443.91,-17.63 433.36,-18.61 442.22,-24.42 443.91,-17.63"/>
</a>
</g>
</g>
<!-- Node11 -->
<g id="Node000011" class="node">
<title>Node11</title>
<g id="a_Node000011"><a xlink:title=" ">
<polygon fill="#e0e0e0" stroke="#999999" points="845.56,-129 781.56,-129 781.56,-110 845.56,-110 845.56,-129"/>
<text text-anchor="middle" x="813.56" y="-117" font-family="Helvetica,sans-Serif" font-size="10.00">algorithm</text>
</a>
</g>
</g>
<!-- Node10&#45;&gt;Node11 -->
<g id="edge13_Node000010_Node000011" class="edge">
<title>Node10&#45;&gt;Node11</title>
<g id="a_edge13_Node000010_Node000011"><a xlink:title=" ">
<path fill="none" stroke="#63b8ff" d="M952.89,-164.98C925.02,-156.09 881.11,-142.07 850.04,-132.15"/>
<polygon fill="#63b8ff" stroke="#63b8ff" points="851.03,-128.79 840.44,-129.08 848.9,-135.46 851.03,-128.79"/>
</a>
</g>
</g>
<!-- Node12 -->
<g id="Node000012" class="node">
<title>Node12</title>
<g id="a_Node000012"><a xlink:title=" ">
<polygon fill="#e0e0e0" stroke="#999999" points="913.06,-129 864.06,-129 864.06,-110 913.06,-110 913.06,-129"/>
<text text-anchor="middle" x="888.56" y="-117" font-family="Helvetica,sans-Serif" font-size="10.00">cctype</text>
</a>
</g>
</g>
<!-- Node10&#45;&gt;Node12 -->
<g id="edge14_Node000010_Node000012" class="edge">
<title>Node10&#45;&gt;Node12</title>
<g id="a_edge14_Node000010_Node000012"><a xlink:title=" ">
<path fill="none" stroke="#63b8ff" d="M964.94,-164.98C950.7,-156.69 928.81,-143.94 912.11,-134.22"/>
<polygon fill="#63b8ff" stroke="#63b8ff" points="913.85,-131.18 903.45,-129.17 910.33,-137.23 913.85,-131.18"/>
</a>
</g>
</g>
<!-- Node13 -->
<g id="Node000013" class="node">
<title>Node13</title>
<g id="a_Node000013"><a xlink:title=" ">
<polygon fill="#e0e0e0" stroke="#999999" points="1337.56,-129 1287.56,-129 1287.56,-110 1337.56,-110 1337.56,-129"/>
<text text-anchor="middle" x="1312.56" y="-117" font-family="Helvetica,sans-Serif" font-size="10.00">chrono</text>
</a>
</g>
</g>
<!-- Node10&#45;&gt;Node13 -->
<g id="edge15_Node000010_Node000013" class="edge">
<title>Node10&#45;&gt;Node13</title>
<g id="a_edge15_Node000010_Node000013"><a xlink:title=" ">
<path fill="none" stroke="#63b8ff" d="M1022.13,-166.52C1025.32,-166.01 1028.49,-165.49 1031.56,-165 1120.03,-150.77 1224.22,-134.36 1277.42,-126.01"/>
<polygon fill="#63b8ff" stroke="#63b8ff" points="1278.03,-129.45 1287.37,-124.45 1276.95,-122.54 1278.03,-129.45"/>
</a>
</g>
</g>
<!-- Node14 -->
<g id="Node000014" class="node">
<title>Node14</title>
<g id="a_Node000014"><a xlink:title=" ">
<polygon fill="#e0e0e0" stroke="#999999" points="1017.56,-129 931.56,-129 931.56,-110 1017.56,-110 1017.56,-129"/>
<text text-anchor="middle" x="974.56" y="-117" font-family="Helvetica,sans-Serif" font-size="10.00">fmt/ostream.h</text>
</a>
</g>
</g>
<!-- Node10&#45;&gt;Node14 -->
<g id="edge17_Node000010_Node000014" class="edge">
<title>Node10&#45;&gt;Node14</title>
<g id="a_edge17_Node000010_Node000014"><a xlink:title=" ">
<path fill="none" stroke="#63b8ff" d="M978.74,-164.75C978.08,-157.8 977.14,-147.85 976.32,-139.13"/>
<polygon fill="#63b8ff" stroke="#63b8ff" points="979.8,-138.72 975.37,-129.09 972.83,-139.37 979.8,-138.72"/>
</a>
</g>
</g>
<!-- Node15 -->
<g id="Node000015" class="node">
<title>Node15</title>
<g id="a_Node000015"><a xlink:title=" ">
<polygon fill="#e0e0e0" stroke="#999999" points="1081.56,-129 1035.56,-129 1035.56,-110 1081.56,-110 1081.56,-129"/>
<text text-anchor="middle" x="1058.56" y="-117" font-family="Helvetica,sans-Serif" font-size="10.00">locale</text>
</a>
</g>
</g>
<!-- Node10&#45;&gt;Node15 -->
<g id="edge18_Node000010_Node000015" class="edge">
<title>Node10&#45;&gt;Node15</title>
<g id="a_edge18_Node000010_Node000015"><a xlink:title=" ">
<path fill="none" stroke="#63b8ff" d="M992.26,-164.98C1004.39,-156.84 1022.92,-144.41 1037.31,-134.76"/>
<polygon fill="#63b8ff" stroke="#63b8ff" points="1039.28,-137.65 1045.64,-129.17 1035.38,-131.84 1039.28,-137.65"/>
</a>
</g>
</g>
<!-- Node16 -->
<g id="Node000016" class="node">
<title>Node16</title>
<g id="a_Node000016"><a xlink:title=" ">
<polygon fill="#e0e0e0" stroke="#999999" points="1155.56,-129 1099.56,-129 1099.56,-110 1155.56,-110 1155.56,-129"/>
<text text-anchor="middle" x="1127.56" y="-117" font-family="Helvetica,sans-Serif" font-size="10.00">numeric</text>
</a>
</g>
</g>
<!-- Node10&#45;&gt;Node16 -->
<g id="edge19_Node000010_Node000016" class="edge">
<title>Node10&#45;&gt;Node16</title>
<g id="a_edge19_Node000010_Node000016"><a xlink:title=" ">
<path fill="none" stroke="#63b8ff" d="M1003.34,-164.98C1027.79,-156.23 1066.1,-142.51 1093.71,-132.62"/>
<polygon fill="#63b8ff" stroke="#63b8ff" points="1095.12,-135.84 1103.35,-129.17 1092.76,-129.25 1095.12,-135.84"/>
</a>
</g>
</g>
<!-- Node10&#45;&gt;Node17 -->
<g id="edge21_Node000010_Node000017" class="edge">
<title>Node10&#45;&gt;Node17</title>
<g id="a_edge21_Node000010_Node000017"><a xlink:title=" ">
<path fill="none" stroke="#63b8ff" d="M1022.1,-166.37C1025.3,-165.89 1028.48,-165.43 1031.56,-165 1167.86,-146.08 1206.41,-155.25 1345.14,-129"/>
<polygon fill="#63b8ff" stroke="#63b8ff" points="1346.15,-132.37 1355.31,-127.04 1344.83,-125.49 1346.15,-132.37"/>
</a>
</g>
</g>
<!-- Node18 -->
<g id="Node000018" class="node">
<title>Node18</title>
<g id="a_Node000018"><a xlink:title=" ">
<polygon fill="#e0e0e0" stroke="#999999" points="725.06,-129 678.06,-129 678.06,-110 725.06,-110 725.06,-129"/>
<text text-anchor="middle" x="701.56" y="-117" font-family="Helvetica,sans-Serif" font-size="10.00">vector</text>
</a>
</g>
</g>
<!-- Node10&#45;&gt;Node18 -->
<g id="edge22_Node000010_Node000018" class="edge">
<title>Node10&#45;&gt;Node18</title>
<g id="a_edge22_Node000010_Node000018"><a xlink:title=" ">
<path fill="none" stroke="#63b8ff" d="M936.98,-166.09C888.93,-157.62 808.48,-143.09 739.56,-129 738.11,-128.7 736.63,-128.4 735.14,-128.08"/>
<polygon fill="#63b8ff" stroke="#63b8ff" points="735.76,-124.63 725.25,-125.94 734.28,-131.48 735.76,-124.63"/>
</a>
</g>
</g>
<!-- Node19&#45;&gt;Node9 -->
<g id="edge24_Node000019_Node000009" class="edge">
<title>Node19&#45;&gt;Node9</title>
<g id="a_edge24_Node000019_Node000009"><a xlink:title=" ">
<path fill="none" stroke="#63b8ff" d="M1091.08,-184.17C1084.18,-193.25 1070.44,-207.71 1058.46,-218.72"/>
<polygon fill="#63b8ff" stroke="#63b8ff" points="1056.11,-216.13 1050.93,-225.37 1060.74,-221.38 1056.11,-216.13"/>
</a>
</g>
</g>
<!-- Node21&#45;&gt;Node2 -->
<g id="edge31_Node000021_Node000002" class="edge">
<title>Node21&#45;&gt;Node2</title>
<g id="a_edge31_Node000021_Node000002"><a xlink:title=" ">
<path fill="none" stroke="#63b8ff" d="M995.77,-295.13C1073.27,-295.4 1238.86,-291.02 1274.56,-250 1283.31,-239.94 1278.45,-232.75 1274.56,-220 1257.37,-163.64 1250.71,-140.93 1200.56,-110 1156.89,-83.06 1020.2,-72.31 931.41,-68.11"/>
<polygon fill="#63b8ff" stroke="#63b8ff" points="931.51,-64.61 921.37,-67.65 931.2,-71.6 931.51,-64.61"/>
</a>
</g>
</g>
<!-- Node21&#45;&gt;Node5 -->
<g id="edge29_Node000021_Node000005" class="edge">
<title>Node21&#45;&gt;Node5</title>
<g id="a_edge29_Node000021_Node000005"><a xlink:title=" ">
<path fill="none" stroke="#63b8ff" d="M915.56,-295.02C843.44,-294.85 687.58,-289.44 563.56,-250 505.56,-231.55 485.59,-228.03 443.56,-184 402.31,-140.78 398.2,-64.62 398.71,-29.37"/>
<polygon fill="#63b8ff" stroke="#63b8ff" points="402.22,-29.19 399.02,-19.09 395.22,-28.99 402.22,-29.19"/>
</a>
</g>
</g>
<!-- Node21&#45;&gt;Node10 -->
<g id="edge38_Node000021_Node000010" class="edge">
<title>Node21&#45;&gt;Node10</title>
<g id="a_edge38_Node000021_Node000010"><a xlink:title=" ">
<path fill="none" stroke="#63b8ff" d="M957.31,-285.78C960.11,-271.87 965.76,-243.8 970.56,-220 972.28,-211.49 974.18,-202.07 975.8,-194.1"/>
<polygon fill="#63b8ff" stroke="#63b8ff" points="979.28,-194.53 977.83,-184.03 972.42,-193.14 979.28,-194.53"/>
</a>
</g>
</g>
<!-- Node21&#45;&gt;Node17 -->
<g id="edge53_Node000021_Node000017" class="edge">
<title>Node21&#45;&gt;Node17</title>
<g id="a_edge53_Node000021_Node000017"><a xlink:title=" ">
<path fill="none" stroke="#63b8ff" d="M995.74,-292.93C1080.25,-289.13 1273.44,-277.6 1332.56,-250 1371.31,-231.91 1385.62,-223.26 1402.56,-184 1409.35,-168.27 1400.49,-150.04 1391.5,-137.17"/>
<polygon fill="#63b8ff" stroke="#63b8ff" points="1394.28,-135.04 1385.44,-129.2 1388.71,-139.28 1394.28,-135.04"/>
</a>
</g>
</g>
<!-- Node21&#45;&gt;Node18 -->
<g id="edge54_Node000021_Node000018" class="edge">
<title>Node21&#45;&gt;Node18</title>
<g id="a_edge54_Node000021_Node000018"><a xlink:title=" ">
<path fill="none" stroke="#63b8ff" d="M951.53,-285.7C940.33,-262.28 906.49,-197.93 858.56,-165 848.29,-157.94 778.02,-139.58 735.04,-128.77"/>
<polygon fill="#63b8ff" stroke="#63b8ff" points="735.83,-125.36 725.28,-126.33 734.13,-132.15 735.83,-125.36"/>
</a>
</g>
</g>
<!-- Node22 -->
<g id="Node000022" class="node">
<title>Node22</title>
<g id="a_Node000022"><a xlink:title=" ">
<polygon fill="#e0e0e0" stroke="#999999" points="659.56,-129 617.56,-129 617.56,-110 659.56,-110 659.56,-129"/>
<text text-anchor="middle" x="638.56" y="-117" font-family="Helvetica,sans-Serif" font-size="10.00">array</text>
</a>
</g>
</g>
<!-- Node21&#45;&gt;Node22 -->
<g id="edge28_Node000021_Node000022" class="edge">
<title>Node21&#45;&gt;Node22</title>
<g id="a_edge28_Node000021_Node000022"><a xlink:title=" ">
<path fill="none" stroke="#63b8ff" d="M915.29,-292.38C873.59,-288.65 807.78,-278.36 758.56,-250 709.15,-221.52 668.17,-166.03 649.47,-137.84"/>
<polygon fill="#63b8ff" stroke="#63b8ff" points="652.18,-135.58 643.81,-129.09 646.31,-139.39 652.18,-135.58"/>
</a>
</g>
</g>
<!-- Node23 -->
<g id="Node000023" class="node">
<title>Node23</title>
<g id="a_Node000023"><a xlink:title=" ">
<polygon fill="#e0e0e0" stroke="#999999" points="1265.56,-244.5 1151.56,-244.5 1151.56,-225.5 1265.56,-225.5 1265.56,-244.5"/>
<text text-anchor="middle" x="1208.56" y="-232.5" font-family="Helvetica,sans-Serif" font-size="10.00">gau2grid/gau2grid.h</text>
</a>
</g>
</g>
<!-- Node21&#45;&gt;Node23 -->
<g id="edge30_Node000021_Node000023" class="edge">
<title>Node21&#45;&gt;Node23</title>
<g id="a_edge30_Node000021_Node000023"><a xlink:title=" ">
<path fill="none" stroke="#63b8ff" d="M992.35,-285.99C1037.13,-275.64 1112.82,-258.14 1161.72,-246.83"/>
<polygon fill="#63b8ff" stroke="#63b8ff" points="1162.78,-250.18 1171.73,-244.52 1161.2,-243.36 1162.78,-250.18"/>
</a>
</g>
</g>
<!-- Node24 -->
<g id="Node000024" class="node">
<title>Node24</title>
<g id="a_Node000024"><a xlink:href="log_8h.html" target="_top" xlink:title=" ">
<polygon fill="white" stroke="#666666" points="1538.56,-244.5 1454.56,-244.5 1454.56,-225.5 1538.56,-225.5 1538.56,-244.5"/>
<text text-anchor="middle" x="1496.56" y="-232.5" font-family="Helvetica,sans-Serif" font-size="10.00">occ/core/log.h</text>
</a>
</g>
</g>
<!-- Node21&#45;&gt;Node24 -->
<g id="edge32_Node000021_Node000024" class="edge">
<title>Node21&#45;&gt;Node24</title>
<g id="a_edge32_Node000021_Node000024"><a xlink:title=" ">
<path fill="none" stroke="#63b8ff" d="M995.61,-292.59C1078.27,-288.26 1273.6,-275.98 1435.56,-250 1441.34,-249.07 1447.38,-247.92 1453.32,-246.67"/>
<polygon fill="#63b8ff" stroke="#63b8ff" points="1454.14,-250.07 1463.16,-244.51 1452.64,-243.24 1454.14,-250.07"/>
</a>
</g>
</g>
<!-- Node26 -->
<g id="Node000026" class="node">
<title>Node26</title>
<g id="a_Node000026"><a xlink:href="timings_8h.html" target="_top" xlink:title=" ">
<polygon fill="white" stroke="#666666" points="1393.56,-184 1287.56,-184 1287.56,-165 1393.56,-165 1393.56,-184"/>
<text text-anchor="middle" x="1340.56" y="-172" font-family="Helvetica,sans-Serif" font-size="10.00">occ/core/timings.h</text>
</a>
</g>
</g>
<!-- Node21&#45;&gt;Node26 -->
<g id="edge35_Node000021_Node000026" class="edge">
<title>Node21&#45;&gt;Node26</title>
<g id="a_edge35_Node000021_Node000026"><a xlink:title=" ">
<path fill="none" stroke="#63b8ff" d="M995.59,-294.27C1077.14,-293.03 1258.95,-286.18 1307.56,-250 1325.44,-236.7 1333.81,-211.56 1337.6,-194.19"/>
<polygon fill="#63b8ff" stroke="#63b8ff" points="1341.09,-194.57 1339.49,-184.1 1334.21,-193.29 1341.09,-194.57"/>
</a>
</g>
</g>
<!-- Node27 -->
<g id="Node000027" class="node">
<title>Node27</title>
<g id="a_Node000027"><a xlink:href="shell__order_8h.html" target="_top" xlink:title=" ">
<polygon fill="white" stroke="#666666" points="885.06,-244.5 768.06,-244.5 768.06,-225.5 885.06,-225.5 885.06,-244.5"/>
<text text-anchor="middle" x="826.56" y="-232.5" font-family="Helvetica,sans-Serif" font-size="10.00">occ/gto/shell_order.h</text>
</a>
</g>
</g>
<!-- Node21&#45;&gt;Node27 -->
<g id="edge39_Node000021_Node000027" class="edge">
<title>Node21&#45;&gt;Node27</title>
<g id="a_edge39_Node000021_Node000027"><a xlink:title=" ">
<path fill="none" stroke="#63b8ff" d="M936.8,-285.99C915.21,-276.2 879.53,-260.02 854.63,-248.73"/>
<polygon fill="#63b8ff" stroke="#63b8ff" points="855.9,-245.46 845.34,-244.52 853,-251.83 855.9,-245.46"/>
</a>
</g>
</g>
<!-- Node29 -->
<g id="Node000029" class="node">
<title>Node29</title>
<g id="a_Node000029"><a xlink:href="shell_8h.html" target="_top" xlink:title=" ">
<polygon fill="white" stroke="#666666" points="660.06,-244.5 573.06,-244.5 573.06,-225.5 660.06,-225.5 660.06,-244.5"/>
<text text-anchor="middle" x="616.56" y="-232.5" font-family="Helvetica,sans-Serif" font-size="10.00">occ/qm/shell.h</text>
</a>
</g>
</g>
<!-- Node21&#45;&gt;Node29 -->
<g id="edge41_Node000021_Node000029" class="edge">
<title>Node21&#45;&gt;Node29</title>
<g id="a_edge41_Node000021_Node000029"><a xlink:title=" ">
<path fill="none" stroke="#63b8ff" d="M915.34,-287.56C854.37,-277.04 738.45,-257.03 670.31,-245.27"/>
<polygon fill="#63b8ff" stroke="#63b8ff" points="670.65,-241.78 660.2,-243.53 669.46,-248.68 670.65,-241.78"/>
</a>
</g>
</g>
<!-- Node24&#45;&gt;Node17 -->
<g id="edge34_Node000024_Node000017" class="edge">
<title>Node24&#45;&gt;Node17</title>
<g id="a_edge34_Node000024_Node000017"><a xlink:title=" ">
<path fill="none" stroke="#63b8ff" d="M1512.58,-225.38C1534.61,-212.41 1569.7,-187.04 1552.56,-165 1535.2,-142.67 1455.37,-129.71 1409.76,-124.01"/>
<polygon fill="#63b8ff" stroke="#63b8ff" points="1410.12,-120.52 1399.77,-122.8 1409.28,-127.47 1410.12,-120.52"/>
</a>
</g>
</g>
<!-- Node25 -->
<g id="Node000025" class="node">
<title>Node25</title>
<g id="a_Node000025"><a xlink:title=" ">
<polygon fill="#e0e0e0" stroke="#999999" points="1543.06,-184 1450.06,-184 1450.06,-165 1543.06,-165 1543.06,-184"/>
<text text-anchor="middle" x="1496.56" y="-172" font-family="Helvetica,sans-Serif" font-size="10.00">spdlog/spdlog.h</text>
</a>
</g>
</g>
<!-- Node24&#45;&gt;Node25 -->
<g id="edge33_Node000024_Node000025" class="edge">
<title>Node24&#45;&gt;Node25</title>
<g id="a_edge33_Node000024_Node000025"><a xlink:title=" ">
<path fill="none" stroke="#63b8ff" d="M1496.56,-225.37C1496.56,-217.25 1496.56,-204.81 1496.56,-194.39"/>
<polygon fill="#63b8ff" stroke="#63b8ff" points="1500.06,-194.17 1496.56,-184.17 1493.06,-194.17 1500.06,-194.17"/>
</a>
</g>
</g>
<!-- Node26&#45;&gt;Node13 -->
<g id="edge36_Node000026_Node000013" class="edge">
<title>Node26&#45;&gt;Node13</title>
<g id="a_edge36_Node000026_Node000013"><a xlink:title=" ">
<path fill="none" stroke="#63b8ff" d="M1335.94,-164.75C1332.11,-157.49 1326.54,-146.95 1321.8,-137.98"/>
<polygon fill="#63b8ff" stroke="#63b8ff" points="1324.87,-136.3 1317.1,-129.09 1318.68,-139.57 1324.87,-136.3"/>
</a>
</g>
</g>
<!-- Node26&#45;&gt;Node17 -->
<g id="edge37_Node000026_Node000017" class="edge">
<title>Node26&#45;&gt;Node17</title>
<g id="a_edge37_Node000026_Node000017"><a xlink:title=" ">
<path fill="none" stroke="#63b8ff" d="M1346.67,-164.75C1351.84,-157.34 1359.41,-146.5 1365.76,-137.41"/>
<polygon fill="#63b8ff" stroke="#63b8ff" points="1368.71,-139.29 1371.57,-129.09 1362.97,-135.29 1368.71,-139.29"/>
</a>
</g>
</g>
<!-- Node28 -->
<g id="Node000028" class="node">
<title>Node28</title>
<g id="a_Node000028"><a xlink:title=" ">
<polygon fill="#e0e0e0" stroke="#999999" points="850.06,-184 803.06,-184 803.06,-165 850.06,-165 850.06,-184"/>
<text text-anchor="middle" x="826.56" y="-172" font-family="Helvetica,sans-Serif" font-size="10.00">cmath</text>
</a>
</g>
</g>
<!-- Node27&#45;&gt;Node28 -->
<g id="edge40_Node000027_Node000028" class="edge">
<title>Node27&#45;&gt;Node28</title>
<g id="a_edge40_Node000027_Node000028"><a xlink:title=" ">
<path fill="none" stroke="#63b8ff" d="M826.56,-225.37C826.56,-217.25 826.56,-204.81 826.56,-194.39"/>
<polygon fill="#63b8ff" stroke="#63b8ff" points="830.06,-194.17 826.56,-184.17 823.06,-194.17 830.06,-194.17"/>
</a>
</g>
</g>
<!-- Node29&#45;&gt;Node2 -->
<g id="edge46_Node000029_Node000002" class="edge">
<title>Node29&#45;&gt;Node2</title>
<g id="a_edge46_Node000029_Node000002"><a xlink:title=" ">
<path fill="none" stroke="#63b8ff" d="M573.35,-225.46C545.93,-218.24 511.12,-205.51 486.56,-184 459.87,-160.62 432.91,-136.46 456.56,-110 477.16,-86.95 662.38,-74.37 771.73,-68.89"/>
<polygon fill="#63b8ff" stroke="#63b8ff" points="771.92,-72.39 781.74,-68.4 771.58,-65.39 771.92,-72.39"/>
</a>
</g>
</g>
<!-- Node29&#45;&gt;Node5 -->
<g id="edge43_Node000029_Node000005" class="edge">
<title>Node29&#45;&gt;Node5</title>
<g id="a_edge43_Node000029_Node000005"><a xlink:title=" ">
<path fill="none" stroke="#63b8ff" d="M573.06,-230.02C539.21,-224.75 493.15,-212.5 463.56,-184 419.1,-141.18 405.33,-64.81 401.22,-29.44"/>
<polygon fill="#63b8ff" stroke="#63b8ff" points="404.67,-28.72 400.17,-19.13 397.7,-29.43 404.67,-28.72"/>
</a>
</g>
</g>
<!-- Node29&#45;&gt;Node10 -->
<g id="edge51_Node000029_Node000010" class="edge">
<title>Node29&#45;&gt;Node10</title>
<g id="a_edge51_Node000029_Node000010"><a xlink:title=" ">
<path fill="none" stroke="#63b8ff" d="M660.35,-226.94C727.3,-216.15 854.89,-195.59 926.83,-184"/>
<polygon fill="#63b8ff" stroke="#63b8ff" points="927.71,-187.4 937.03,-182.35 926.6,-180.49 927.71,-187.4"/>
</a>
</g>
</g>
<!-- Node29&#45;&gt;Node18 -->
<g id="edge52_Node000029_Node000018" class="edge">
<title>Node29&#45;&gt;Node18</title>
<g id="a_edge52_Node000029_Node000018"><a xlink:title=" ">
<path fill="none" stroke="#63b8ff" d="M624.76,-225.48C633.92,-215.79 648.98,-199.31 660.56,-184 671.79,-169.15 683.16,-151.26 691.07,-138.26"/>
<polygon fill="#63b8ff" stroke="#63b8ff" points="694.24,-139.78 696.39,-129.4 688.24,-136.18 694.24,-139.78"/>
</a>
</g>
</g>
<!-- Node29&#45;&gt;Node22 -->
<g id="edge42_Node000029_Node000022" class="edge">
<title>Node29&#45;&gt;Node22</title>
<g id="a_edge42_Node000029_Node000022"><a xlink:title=" ">
<path fill="none" stroke="#63b8ff" d="M623.22,-225.39C630.11,-215.87 640.44,-199.79 644.56,-184 648.41,-169.25 646.39,-152 643.69,-139.2"/>
<polygon fill="#63b8ff" stroke="#63b8ff" points="647.04,-138.17 641.28,-129.28 640.24,-139.82 647.04,-138.17"/>
</a>
</g>
</g>
<!-- Node30 -->
<g id="Node000030" class="node">
<title>Node30</title>
<g id="a_Node000030"><a xlink:href="atom_8h.html" target="_top" xlink:title=" ">
<polygon fill="white" stroke="#666666" points="561.06,-129 466.06,-129 466.06,-110 561.06,-110 561.06,-129"/>
<text text-anchor="middle" x="513.56" y="-117" font-family="Helvetica,sans-Serif" font-size="10.00">occ/core/atom.h</text>
</a>
</g>
</g>
<!-- Node29&#45;&gt;Node30 -->
<g id="edge44_Node000029_Node000030" class="edge">
<title>Node29&#45;&gt;Node30</title>
<g id="a_edge44_Node000029_Node000030"><a xlink:title=" ">
<path fill="none" stroke="#63b8ff" d="M573.01,-228.45C545.5,-222.44 511.97,-209.95 494.56,-184 485.19,-170.02 492.72,-151.29 500.91,-137.8"/>
<polygon fill="#63b8ff" stroke="#63b8ff" points="503.86,-139.68 506.48,-129.42 498.03,-135.81 503.86,-139.68"/>
</a>
</g>
</g>
<!-- Node31 -->
<g id="Node000031" class="node">
<title>Node31</title>
<g id="a_Node000031"><a xlink:href="point__charge_8h.html" target="_top" xlink:title=" ">
<polygon fill="white" stroke="#666666" points="635.56,-184 503.56,-184 503.56,-165 635.56,-165 635.56,-184"/>
<text text-anchor="middle" x="569.56" y="-172" font-family="Helvetica,sans-Serif" font-size="10.00">occ/core/point_charge.h</text>
</a>
</g>
</g>
<!-- Node29&#45;&gt;Node31 -->
<g id="edge47_Node000029_Node000031" class="edge">
<title>Node29&#45;&gt;Node31</title>
<g id="a_edge47_Node000029_Node000031"><a xlink:title=" ">
<path fill="none" stroke="#63b8ff" d="M609.63,-225.37C602.62,-216.64 591.6,-202.93 582.89,-192.09"/>
<polygon fill="#63b8ff" stroke="#63b8ff" points="585.52,-189.77 576.53,-184.17 580.06,-194.16 585.52,-189.77"/>
</a>
</g>
</g>
<!-- Node30&#45;&gt;Node2 -->
<g id="edge45_Node000030_Node000002" class="edge">
<title>Node30&#45;&gt;Node2</title>
<g id="a_edge45_Node000030_Node000002"><a xlink:title=" ">
<path fill="none" stroke="#63b8ff" d="M561.27,-111.02C620.26,-101.77 720.92,-85.99 786.83,-75.65"/>
<polygon fill="#63b8ff" stroke="#63b8ff" points="787.76,-79.05 797.1,-74.04 786.68,-72.13 787.76,-79.05"/>
</a>
</g>
</g>
<!-- Node31&#45;&gt;Node2 -->
<g id="edge50_Node000031_Node000002" class="edge">
<title>Node31&#45;&gt;Node2</title>
<g id="a_edge50_Node000031_Node000002"><a xlink:title=" ">
<path fill="none" stroke="#63b8ff" d="M572.26,-164.9C577.12,-150.96 588.71,-123.6 608.56,-110 634.65,-92.13 711.32,-80.08 771.64,-73.08"/>
<polygon fill="#63b8ff" stroke="#63b8ff" points="772.38,-76.51 781.93,-71.91 771.6,-69.56 772.38,-76.51"/>
</a>
</g>
</g>
<!-- Node31&#45;&gt;Node22 -->
<g id="edge48_Node000031_Node000022" class="edge">
<title>Node31&#45;&gt;Node22</title>
<g id="a_edge48_Node000031_Node000022"><a xlink:title=" ">
<path fill="none" stroke="#63b8ff" d="M580.65,-164.98C591.05,-157 606.82,-144.88 619.28,-135.31"/>
<polygon fill="#63b8ff" stroke="#63b8ff" points="621.48,-138.04 627.27,-129.17 617.21,-132.49 621.48,-138.04"/>
</a>
</g>
</g>
<!-- Node31&#45;&gt;Node30 -->
<g id="edge49_Node000031_Node000030" class="edge">
<title>Node31&#45;&gt;Node30</title>
<g id="a_edge49_Node000031_Node000030"><a xlink:title=" ">
<path fill="none" stroke="#63b8ff" d="M560.56,-164.98C552.37,-157.23 540.06,-145.58 530.09,-136.14"/>
<polygon fill="#63b8ff" stroke="#63b8ff" points="532.39,-133.5 522.72,-129.17 527.58,-138.59 532.39,-133.5"/>
</a>
</g>
</g>
</g>
</svg>
