<?xml version="1.0" encoding="UTF-8" standalone="no"?>
<!DOCTYPE svg PUBLIC "-//W3C//DTD SVG 1.1//EN"
 "http://www.w3.org/Graphics/SVG/1.1/DTD/svg11.dtd">
<!-- Generated by graphviz version 2.43.0 (0)
 -->
<!-- Title: /home/runner/work/occ/occ/include/occ/xdm/xdm.h Pages: 1 -->
<svg width="324pt" height="181pt"
 viewBox="0.00 0.00 324.00 181.00" xmlns="http://www.w3.org/2000/svg" xmlns:xlink="http://www.w3.org/1999/xlink">
<g id="graph0" class="graph" transform="scale(1 1) rotate(0) translate(4 177)">
<title>/home/runner/work/occ/occ/include/occ/xdm/xdm.h</title>
<!-- Node1 -->
<g id="Node000001" class="node">
<title>Node1</title>
<g id="a_Node000001"><a xlink:title=" ">
<polygon fill="#999999" stroke="#666666" points="244,-173 92,-173 92,-143 244,-143 244,-173"/>
<text text-anchor="start" x="100" y="-161" font-family="Helvetica,sans-Serif" font-size="10.00">/home/runner/work/occ</text>
<text text-anchor="middle" x="168" y="-150" font-family="Helvetica,sans-Serif" font-size="10.00">/occ/include/occ/xdm/xdm.h</text>
</a>
</g>
</g>
<!-- Node2 -->
<g id="Node000002" class="node">
<title>Node2</title>
<g id="a_Node000002"><a xlink:href="gradients_8h.html" target="_top" xlink:title=" ">
<polygon fill="white" stroke="#666666" points="170,-101.5 0,-101.5 0,-71.5 170,-71.5 170,-101.5"/>
<text text-anchor="start" x="8" y="-89.5" font-family="Helvetica,sans-Serif" font-size="10.00">/home/runner/work/occ</text>
<text text-anchor="middle" x="85" y="-78.5" font-family="Helvetica,sans-Serif" font-size="10.00">/occ/include/occ/qm/gradients.h</text>
</a>
</g>
</g>
<!-- Node1&#45;&gt;Node2 -->
<g id="edge1_Node000001_Node000002" class="edge">
<title>Node1&#45;&gt;Node2</title>
<g id="a_edge1_Node000001_Node000002"><a xlink:title=" ">
<path fill="none" stroke="#63b8ff" d="M143.29,-136.31C129.89,-125.09 113.69,-111.52 101.77,-101.54"/>
<polygon fill="#63b8ff" stroke="#63b8ff" points="141.29,-139.2 151.2,-142.94 145.78,-133.83 141.29,-139.2"/>
</a>
</g>
</g>
<!-- Node4 -->
<g id="Node000004" class="node">
<title>Node4</title>
<g id="a_Node000004"><a xlink:href="xdm__parameters_8h.html" target="_top" xlink:title=" ">
<polygon fill="white" stroke="#666666" points="316,-107 188,-107 188,-66 316,-66 316,-107"/>
<text text-anchor="start" x="196" y="-95" font-family="Helvetica,sans-Serif" font-size="10.00">/home/runner/work/occ</text>
<text text-anchor="start" x="196" y="-84" font-family="Helvetica,sans-Serif" font-size="10.00">/occ/include/occ/xdm</text>
<text text-anchor="middle" x="252" y="-73" font-family="Helvetica,sans-Serif" font-size="10.00">/xdm_parameters.h</text>
</a>
</g>
</g>
<!-- Node1&#45;&gt;Node4 -->
<g id="edge3_Node000001_Node000004" class="edge">
<title>Node1&#45;&gt;Node4</title>
<g id="a_edge3_Node000001_Node000004"><a xlink:title=" ">
<path fill="none" stroke="#63b8ff" d="M192.77,-136.5C204.01,-127.21 217.24,-116.26 228.34,-107.07"/>
<polygon fill="#63b8ff" stroke="#63b8ff" points="190.47,-133.86 185,-142.94 194.93,-139.26 190.47,-133.86"/>
</a>
</g>
</g>
<!-- Node3 -->
<g id="Node000003" class="node">
<title>Node3</title>
<g id="a_Node000003"><a xlink:href="hessians_8h.html" target="_top" xlink:title=" ">
<polygon fill="white" stroke="#666666" points="168.5,-30 1.5,-30 1.5,0 168.5,0 168.5,-30"/>
<text text-anchor="start" x="9.5" y="-18" font-family="Helvetica,sans-Serif" font-size="10.00">/home/runner/work/occ</text>
<text text-anchor="middle" x="85" y="-7" font-family="Helvetica,sans-Serif" font-size="10.00">/occ/include/occ/qm/hessians.h</text>
</a>
</g>
</g>
<!-- Node2&#45;&gt;Node3 -->
<g id="edge2_Node000002_Node000003" class="edge">
<title>Node2&#45;&gt;Node3</title>
<g id="a_edge2_Node000002_Node000003"><a xlink:title=" ">
<path fill="none" stroke="#63b8ff" d="M85,-61.25C85,-50.81 85,-38.99 85,-30.04"/>
<polygon fill="#63b8ff" stroke="#63b8ff" points="81.5,-61.44 85,-71.44 88.5,-61.44 81.5,-61.44"/>
</a>
</g>
</g>
</g>
</svg>
