<?xml version="1.0" encoding="UTF-8" standalone="no"?>
<!DOCTYPE svg PUBLIC "-//W3C//DTD SVG 1.1//EN"
 "http://www.w3.org/Graphics/SVG/1.1/DTD/svg11.dtd">
<!-- Generated by graphviz version 2.43.0 (0)
 -->
<!-- Title: /home/runner/work/occ/occ/include/occ/xdm/xdm_parameters.h Pages: 1 -->
<svg width="1623pt" height="445pt"
 viewBox="0.00 0.00 1623.00 445.00" xmlns="http://www.w3.org/2000/svg" xmlns:xlink="http://www.w3.org/1999/xlink">
<g id="graph0" class="graph" transform="scale(1 1) rotate(0) translate(4 441)">
<title>/home/runner/work/occ/occ/include/occ/xdm/xdm_parameters.h</title>
<!-- Node1 -->
<g id="Node000001" class="node">
<title>Node1</title>
<g id="a_Node000001"><a xlink:title=" ">
<polygon fill="#999999" stroke="#666666" points="1595,-437 1467,-437 1467,-396 1595,-396 1595,-437"/>
<text text-anchor="start" x="1475" y="-425" font-family="Helvetica,sans-Serif" font-size="10.00">/home/runner/work/occ</text>
<text text-anchor="start" x="1475" y="-414" font-family="Helvetica,sans-Serif" font-size="10.00">/occ/include/occ/xdm</text>
<text text-anchor="middle" x="1531" y="-403" font-family="Helvetica,sans-Serif" font-size="10.00">/xdm_parameters.h</text>
</a>
</g>
</g>
<!-- Node2 -->
<g id="Node000002" class="node">
<title>Node2</title>
<g id="a_Node000002"><a xlink:href="xdm_8h.html" target="_top" xlink:title=" ">
<polygon fill="white" stroke="#666666" points="1204,-360 1112,-360 1112,-341 1204,-341 1204,-360"/>
<text text-anchor="middle" x="1158" y="-348" font-family="Helvetica,sans-Serif" font-size="10.00">occ/xdm/xdm.h</text>
</a>
</g>
</g>
<!-- Node1&#45;&gt;Node2 -->
<g id="edge1_Node000001_Node000002" class="edge">
<title>Node1&#45;&gt;Node2</title>
<g id="a_edge1_Node000001_Node000002"><a xlink:title=" ">
<path fill="none" stroke="#63b8ff" d="M1466.88,-404.5C1395.75,-392.29 1282.11,-372.79 1214.3,-361.16"/>
<polygon fill="#63b8ff" stroke="#63b8ff" points="1214.68,-357.67 1204.23,-359.43 1213.49,-364.57 1214.68,-357.67"/>
</a>
</g>
</g>
<!-- Node12 -->
<g id="Node000012" class="node">
<title>Node12</title>
<g id="a_Node000012"><a xlink:title=" ">
<polygon fill="#e0e0e0" stroke="#999999" points="1335,-74 1291,-74 1291,-55 1335,-55 1335,-74"/>
<text text-anchor="middle" x="1313" y="-62" font-family="Helvetica,sans-Serif" font-size="10.00">string</text>
</a>
</g>
</g>
<!-- Node1&#45;&gt;Node12 -->
<g id="edge52_Node000001_Node000012" class="edge">
<title>Node1&#45;&gt;Node12</title>
<g id="a_edge52_Node000001_Node000012"><a xlink:title=" ">
<path fill="none" stroke="#63b8ff" d="M1531,-395.71C1531,-372.09 1531,-331.41 1531,-296.5 1531,-296.5 1531,-296.5 1531,-173.5 1531,-144.04 1533.55,-130.08 1512,-110 1488.06,-87.7 1394.94,-74.4 1345.02,-68.73"/>
<polygon fill="#63b8ff" stroke="#63b8ff" points="1345.39,-65.25 1335.07,-67.64 1344.62,-72.21 1345.39,-65.25"/>
</a>
</g>
</g>
<!-- Node33 -->
<g id="Node000033" class="node">
<title>Node33</title>
<g id="a_Node000033"><a xlink:title=" ">
<polygon fill="#e0e0e0" stroke="#999999" points="1615,-360 1559,-360 1559,-341 1615,-341 1615,-360"/>
<text text-anchor="middle" x="1587" y="-348" font-family="Helvetica,sans-Serif" font-size="10.00">optional</text>
</a>
</g>
</g>
<!-- Node1&#45;&gt;Node33 -->
<g id="edge53_Node000001_Node000033" class="edge">
<title>Node1&#45;&gt;Node33</title>
<g id="a_edge53_Node000001_Node000033"><a xlink:title=" ">
<path fill="none" stroke="#63b8ff" d="M1548.11,-395.95C1555.92,-387.02 1565.08,-376.55 1572.55,-368.02"/>
<polygon fill="#63b8ff" stroke="#63b8ff" points="1575.38,-370.09 1579.33,-360.26 1570.12,-365.48 1575.38,-370.09"/>
</a>
</g>
</g>
<!-- Node3 -->
<g id="Node000003" class="node">
<title>Node3</title>
<g id="a_Node000003"><a xlink:href="molecular__grid_8h.html" target="_top" xlink:title=" ">
<polygon fill="white" stroke="#666666" points="1339,-305 1205,-305 1205,-286 1339,-286 1339,-305"/>
<text text-anchor="middle" x="1272" y="-293" font-family="Helvetica,sans-Serif" font-size="10.00">occ/dft/molecular_grid.h</text>
</a>
</g>
</g>
<!-- Node2&#45;&gt;Node3 -->
<g id="edge2_Node000002_Node000003" class="edge">
<title>Node2&#45;&gt;Node3</title>
<g id="a_edge2_Node000002_Node000003"><a xlink:title=" ">
<path fill="none" stroke="#63b8ff" d="M1176.32,-340.98C1194.66,-332.46 1223.11,-319.23 1244.23,-309.41"/>
<polygon fill="#63b8ff" stroke="#63b8ff" points="1245.76,-312.56 1253.35,-305.17 1242.81,-306.21 1245.76,-312.56"/>
</a>
</g>
</g>
<!-- Node13 -->
<g id="Node000013" class="node">
<title>Node13</title>
<g id="a_Node000013"><a xlink:title=" ">
<polygon fill="#e0e0e0" stroke="#999999" points="1258.5,-129 1211.5,-129 1211.5,-110 1258.5,-110 1258.5,-129"/>
<text text-anchor="middle" x="1235" y="-117" font-family="Helvetica,sans-Serif" font-size="10.00">vector</text>
</a>
</g>
</g>
<!-- Node2&#45;&gt;Node13 -->
<g id="edge51_Node000002_Node000013" class="edge">
<title>Node2&#45;&gt;Node13</title>
<g id="a_edge51_Node000002_Node000013"><a xlink:title=" ">
<path fill="none" stroke="#63b8ff" d="M1160.57,-340.98C1166.85,-320.2 1183.63,-265.34 1199,-220 1208.66,-191.52 1220.68,-158.78 1228.1,-138.87"/>
<polygon fill="#63b8ff" stroke="#63b8ff" points="1231.48,-139.84 1231.7,-129.24 1224.92,-137.38 1231.48,-139.84"/>
</a>
</g>
</g>
<!-- Node17 -->
<g id="Node000017" class="node">
<title>Node17</title>
<g id="a_Node000017"><a xlink:href="shell_8h.html" target="_top" xlink:title=" ">
<polygon fill="white" stroke="#666666" points="893.5,-244.5 806.5,-244.5 806.5,-225.5 893.5,-225.5 893.5,-244.5"/>
<text text-anchor="middle" x="850" y="-232.5" font-family="Helvetica,sans-Serif" font-size="10.00">occ/qm/shell.h</text>
</a>
</g>
</g>
<!-- Node2&#45;&gt;Node17 -->
<g id="edge45_Node000002_Node000017" class="edge">
<title>Node2&#45;&gt;Node17</title>
<g id="a_edge45_Node000002_Node000017"><a xlink:title=" ">
<path fill="none" stroke="#63b8ff" d="M1134.85,-340.97C1080.67,-321 945.48,-271.18 882.83,-248.1"/>
<polygon fill="#63b8ff" stroke="#63b8ff" points="884.01,-244.8 873.42,-244.63 881.59,-251.37 884.01,-244.8"/>
</a>
</g>
</g>
<!-- Node27 -->
<g id="Node000027" class="node">
<title>Node27</title>
<g id="a_Node000027"><a xlink:href="mo_8h.html" target="_top" xlink:title=" ">
<polygon fill="white" stroke="#666666" points="288,-305 208,-305 208,-286 288,-286 288,-305"/>
<text text-anchor="middle" x="248" y="-293" font-family="Helvetica,sans-Serif" font-size="10.00">occ/qm/mo.h</text>
</a>
</g>
</g>
<!-- Node2&#45;&gt;Node27 -->
<g id="edge37_Node000002_Node000027" class="edge">
<title>Node2&#45;&gt;Node27</title>
<g id="a_edge37_Node000002_Node000027"><a xlink:title=" ">
<path fill="none" stroke="#63b8ff" d="M1111.94,-346.82C957.44,-337.82 458.39,-308.75 298.08,-299.42"/>
<polygon fill="#63b8ff" stroke="#63b8ff" points="298.21,-295.92 288.02,-298.83 297.8,-302.91 298.21,-295.92"/>
</a>
</g>
</g>
<!-- Node31 -->
<g id="Node000031" class="node">
<title>Node31</title>
<g id="a_Node000031"><a xlink:href="slaterbasis_8h.html" target="_top" xlink:title=" ">
<polygon fill="white" stroke="#666666" points="1148.5,-184 1019.5,-184 1019.5,-165 1148.5,-165 1148.5,-184"/>
<text text-anchor="middle" x="1084" y="-172" font-family="Helvetica,sans-Serif" font-size="10.00">occ/slater/slaterbasis.h</text>
</a>
</g>
</g>
<!-- Node2&#45;&gt;Node31 -->
<g id="edge46_Node000002_Node000031" class="edge">
<title>Node2&#45;&gt;Node31</title>
<g id="a_edge46_Node000002_Node000031"><a xlink:title=" ">
<path fill="none" stroke="#63b8ff" d="M1154.23,-340.63C1142.65,-313.4 1107.44,-230.61 1091.72,-193.65"/>
<polygon fill="#63b8ff" stroke="#63b8ff" points="1094.81,-191.98 1087.68,-184.14 1088.37,-194.72 1094.81,-191.98"/>
</a>
</g>
</g>
<!-- Node4 -->
<g id="Node000004" class="node">
<title>Node4</title>
<g id="a_Node000004"><a xlink:title=" ">
<polygon fill="#e0e0e0" stroke="#999999" points="1266,-244.5 1208,-244.5 1208,-225.5 1266,-225.5 1266,-244.5"/>
<text text-anchor="middle" x="1237" y="-232.5" font-family="Helvetica,sans-Serif" font-size="10.00">memory</text>
</a>
</g>
</g>
<!-- Node3&#45;&gt;Node4 -->
<g id="edge3_Node000003_Node000004" class="edge">
<title>Node3&#45;&gt;Node4</title>
<g id="a_edge3_Node000003_Node000004"><a xlink:title=" ">
<path fill="none" stroke="#63b8ff" d="M1266.84,-285.87C1261.77,-277.4 1253.9,-264.24 1247.51,-253.57"/>
<polygon fill="#63b8ff" stroke="#63b8ff" points="1250.32,-251.45 1242.19,-244.67 1244.32,-255.05 1250.32,-251.45"/>
</a>
</g>
</g>
<!-- Node5 -->
<g id="Node000005" class="node">
<title>Node5</title>
<g id="a_Node000005"><a xlink:href="grid__types_8h.html" target="_top" xlink:title=" ">
<polygon fill="white" stroke="#666666" points="1502,-184 1390,-184 1390,-165 1502,-165 1502,-184"/>
<text text-anchor="middle" x="1446" y="-172" font-family="Helvetica,sans-Serif" font-size="10.00">occ/dft/grid_types.h</text>
</a>
</g>
</g>
<!-- Node3&#45;&gt;Node5 -->
<g id="edge4_Node000003_Node000005" class="edge">
<title>Node3&#45;&gt;Node5</title>
<g id="a_edge4_Node000003_Node000005"><a xlink:title=" ">
<path fill="none" stroke="#63b8ff" d="M1339.01,-287.52C1366.75,-281.53 1397.42,-270.45 1419,-250 1434.42,-235.39 1441.06,-211.31 1443.9,-194.49"/>
<polygon fill="#63b8ff" stroke="#63b8ff" points="1447.42,-194.6 1445.32,-184.22 1440.49,-193.64 1447.42,-194.6"/>
</a>
</g>
</g>
<!-- Node14 -->
<g id="Node000014" class="node">
<title>Node14</title>
<g id="a_Node000014"><a xlink:href="molecular__grid__points_8h.html" target="_top" xlink:title=" ">
<polygon fill="white" stroke="#666666" points="1409.5,-250 1284.5,-250 1284.5,-220 1409.5,-220 1409.5,-250"/>
<text text-anchor="start" x="1292.5" y="-238" font-family="Helvetica,sans-Serif" font-size="10.00">occ/dft/molecular_grid</text>
<text text-anchor="middle" x="1347" y="-227" font-family="Helvetica,sans-Serif" font-size="10.00">_points.h</text>
</a>
</g>
</g>
<!-- Node3&#45;&gt;Node14 -->
<g id="edge13_Node000003_Node000014" class="edge">
<title>Node3&#45;&gt;Node14</title>
<g id="a_edge13_Node000003_Node000014"><a xlink:title=" ">
<path fill="none" stroke="#63b8ff" d="M1283.07,-285.87C1292.96,-278.15 1307.85,-266.54 1320.77,-256.46"/>
<polygon fill="#63b8ff" stroke="#63b8ff" points="1323.17,-259.02 1328.9,-250.11 1318.87,-253.51 1323.17,-259.02"/>
</a>
</g>
</g>
<!-- Node3&#45;&gt;Node17 -->
<g id="edge18_Node000003_Node000017" class="edge">
<title>Node3&#45;&gt;Node17</title>
<g id="a_edge18_Node000003_Node000017"><a xlink:title=" ">
<path fill="none" stroke="#63b8ff" d="M1210.64,-285.99C1128.05,-274.54 982.45,-254.36 903.89,-243.47"/>
<polygon fill="#63b8ff" stroke="#63b8ff" points="904.11,-239.97 893.72,-242.06 903.15,-246.9 904.11,-239.97"/>
</a>
</g>
</g>
<!-- Node6 -->
<g id="Node000006" class="node">
<title>Node6</title>
<g id="a_Node000006"><a xlink:title=" ">
<polygon fill="#e0e0e0" stroke="#999999" points="1365,-129 1315,-129 1315,-110 1365,-110 1365,-129"/>
<text text-anchor="middle" x="1340" y="-117" font-family="Helvetica,sans-Serif" font-size="10.00">cstdint</text>
</a>
</g>
</g>
<!-- Node5&#45;&gt;Node6 -->
<g id="edge5_Node000005_Node000006" class="edge">
<title>Node5&#45;&gt;Node6</title>
<g id="a_edge5_Node000005_Node000006"><a xlink:title=" ">
<path fill="none" stroke="#63b8ff" d="M1428.97,-164.98C1412.07,-156.54 1385.94,-143.47 1366.36,-133.68"/>
<polygon fill="#63b8ff" stroke="#63b8ff" points="1367.85,-130.51 1357.34,-129.17 1364.72,-136.77 1367.85,-130.51"/>
</a>
</g>
</g>
<!-- Node7 -->
<g id="Node000007" class="node">
<title>Node7</title>
<g id="a_Node000007"><a xlink:href="linear__algebra_8h.html" target="_top" xlink:title=" ">
<polygon fill="white" stroke="#666666" points="802.5,-74 663.5,-74 663.5,-55 802.5,-55 802.5,-74"/>
<text text-anchor="middle" x="733" y="-62" font-family="Helvetica,sans-Serif" font-size="10.00">occ/core/linear_algebra.h</text>
</a>
</g>
</g>
<!-- Node5&#45;&gt;Node7 -->
<g id="edge6_Node000005_Node000007" class="edge">
<title>Node5&#45;&gt;Node7</title>
<g id="a_edge6_Node000005_Node000007"><a xlink:title=" ">
<path fill="none" stroke="#63b8ff" d="M1414.37,-164.97C1385.66,-156.88 1342.39,-143.78 1306,-129 1288.5,-121.9 1286.18,-115.1 1268,-110 1184.66,-86.64 940.67,-73.75 812.98,-68.44"/>
<polygon fill="#63b8ff" stroke="#63b8ff" points="813.01,-64.94 802.87,-68.02 812.72,-71.93 813.01,-64.94"/>
</a>
</g>
</g>
<!-- Node11 -->
<g id="Node000011" class="node">
<title>Node11</title>
<g id="a_Node000011"><a xlink:href="grid__settings_8h.html" target="_top" xlink:title=" ">
<polygon fill="white" stroke="#666666" points="1503,-129 1383,-129 1383,-110 1503,-110 1503,-129"/>
<text text-anchor="middle" x="1443" y="-117" font-family="Helvetica,sans-Serif" font-size="10.00">occ/io/grid_settings.h</text>
</a>
</g>
</g>
<!-- Node5&#45;&gt;Node11 -->
<g id="edge10_Node000005_Node000011" class="edge">
<title>Node5&#45;&gt;Node11</title>
<g id="a_edge10_Node000005_Node000011"><a xlink:title=" ">
<path fill="none" stroke="#63b8ff" d="M1445.5,-164.75C1445.11,-157.8 1444.55,-147.85 1444.05,-139.13"/>
<polygon fill="#63b8ff" stroke="#63b8ff" points="1447.55,-138.88 1443.49,-129.09 1440.56,-139.27 1447.55,-138.88"/>
</a>
</g>
</g>
<!-- Node5&#45;&gt;Node13 -->
<g id="edge12_Node000005_Node000013" class="edge">
<title>Node5&#45;&gt;Node13</title>
<g id="a_edge12_Node000005_Node000013"><a xlink:title=" ">
<path fill="none" stroke="#63b8ff" d="M1412.1,-164.98C1372.64,-155.07 1307.88,-138.81 1268.56,-128.93"/>
<polygon fill="#63b8ff" stroke="#63b8ff" points="1269.22,-125.49 1258.67,-126.45 1267.51,-132.28 1269.22,-125.49"/>
</a>
</g>
</g>
<!-- Node8 -->
<g id="Node000008" class="node">
<title>Node8</title>
<g id="a_Node000008"><a xlink:title=" ">
<polygon fill="#e0e0e0" stroke="#999999" points="822.5,-19 745.5,-19 745.5,0 822.5,0 822.5,-19"/>
<text text-anchor="middle" x="784" y="-7" font-family="Helvetica,sans-Serif" font-size="10.00">Eigen/Dense</text>
</a>
</g>
</g>
<!-- Node7&#45;&gt;Node8 -->
<g id="edge7_Node000007_Node000008" class="edge">
<title>Node7&#45;&gt;Node8</title>
<g id="a_edge7_Node000007_Node000008"><a xlink:title=" ">
<path fill="none" stroke="#63b8ff" d="M741.42,-54.75C748.77,-47.11 759.63,-35.82 768.54,-26.56"/>
<polygon fill="#63b8ff" stroke="#63b8ff" points="771.32,-28.72 775.74,-19.09 766.28,-23.87 771.32,-28.72"/>
</a>
</g>
</g>
<!-- Node9 -->
<g id="Node000009" class="node">
<title>Node9</title>
<g id="a_Node000009"><a xlink:title=" ">
<polygon fill="#e0e0e0" stroke="#999999" points="727.5,-19 634.5,-19 634.5,0 727.5,0 727.5,-19"/>
<text text-anchor="middle" x="681" y="-7" font-family="Helvetica,sans-Serif" font-size="10.00">Eigen/StdVector</text>
</a>
</g>
</g>
<!-- Node7&#45;&gt;Node9 -->
<g id="edge8_Node000007_Node000009" class="edge">
<title>Node7&#45;&gt;Node9</title>
<g id="a_edge8_Node000007_Node000009"><a xlink:title=" ">
<path fill="none" stroke="#63b8ff" d="M724.41,-54.75C716.84,-47.03 705.62,-35.6 696.49,-26.28"/>
<polygon fill="#63b8ff" stroke="#63b8ff" points="698.93,-23.78 689.43,-19.09 693.93,-28.68 698.93,-23.78"/>
</a>
</g>
</g>
<!-- Node10 -->
<g id="Node000010" class="node">
<title>Node10</title>
<g id="a_Node000010"><a xlink:title=" ">
<polygon fill="#e0e0e0" stroke="#999999" points="332.5,-19 265.5,-19 265.5,0 332.5,0 332.5,-19"/>
<text text-anchor="middle" x="299" y="-7" font-family="Helvetica,sans-Serif" font-size="10.00">fmt/core.h</text>
</a>
</g>
</g>
<!-- Node7&#45;&gt;Node10 -->
<g id="edge9_Node000007_Node000010" class="edge">
<title>Node7&#45;&gt;Node10</title>
<g id="a_edge9_Node000007_Node000010"><a xlink:title=" ">
<path fill="none" stroke="#63b8ff" d="M663.27,-54.98C572.88,-43.95 417.92,-25.02 342.63,-15.83"/>
<polygon fill="#63b8ff" stroke="#63b8ff" points="342.9,-12.33 332.55,-14.6 342.05,-19.28 342.9,-12.33"/>
</a>
</g>
</g>
<!-- Node11&#45;&gt;Node12 -->
<g id="edge11_Node000011_Node000012" class="edge">
<title>Node11&#45;&gt;Node12</title>
<g id="a_edge11_Node000011_Node000012"><a xlink:title=" ">
<path fill="none" stroke="#63b8ff" d="M1422.11,-109.98C1400.92,-101.34 1367.87,-87.87 1343.7,-78.02"/>
<polygon fill="#63b8ff" stroke="#63b8ff" points="1344.85,-74.7 1334.27,-74.17 1342.21,-81.19 1344.85,-74.7"/>
</a>
</g>
</g>
<!-- Node14&#45;&gt;Node5 -->
<g id="edge14_Node000014_Node000005" class="edge">
<title>Node14&#45;&gt;Node5</title>
<g id="a_edge14_Node000014_Node000005"><a xlink:title=" ">
<path fill="none" stroke="#63b8ff" d="M1370.71,-219.99C1386.35,-210.75 1406.74,-198.7 1422.36,-189.47"/>
<polygon fill="#63b8ff" stroke="#63b8ff" points="1424.55,-192.24 1431.38,-184.14 1420.99,-186.21 1424.55,-192.24"/>
</a>
</g>
</g>
<!-- Node14&#45;&gt;Node13 -->
<g id="edge17_Node000014_Node000013" class="edge">
<title>Node14&#45;&gt;Node13</title>
<g id="a_edge17_Node000014_Node000013"><a xlink:title=" ">
<path fill="none" stroke="#63b8ff" d="M1284.36,-220.26C1265.24,-212.82 1246.3,-201.42 1235,-184 1226.47,-170.85 1227.41,-152.72 1229.94,-139.2"/>
<polygon fill="#63b8ff" stroke="#63b8ff" points="1233.43,-139.66 1232.26,-129.13 1226.6,-138.09 1233.43,-139.66"/>
</a>
</g>
</g>
<!-- Node15 -->
<g id="Node000015" class="node">
<title>Node15</title>
<g id="a_Node000015"><a xlink:title=" ">
<polygon fill="#e0e0e0" stroke="#999999" points="1308.5,-184 1243.5,-184 1243.5,-165 1308.5,-165 1308.5,-184"/>
<text text-anchor="middle" x="1276" y="-172" font-family="Helvetica,sans-Serif" font-size="10.00">stdexcept</text>
</a>
</g>
</g>
<!-- Node14&#45;&gt;Node15 -->
<g id="edge15_Node000014_Node000015" class="edge">
<title>Node14&#45;&gt;Node15</title>
<g id="a_edge15_Node000014_Node000015"><a xlink:title=" ">
<path fill="none" stroke="#63b8ff" d="M1329.81,-219.84C1319.19,-211.09 1305.56,-199.85 1294.67,-190.88"/>
<polygon fill="#63b8ff" stroke="#63b8ff" points="1296.58,-187.92 1286.64,-184.27 1292.13,-193.33 1296.58,-187.92"/>
</a>
</g>
</g>
<!-- Node16 -->
<g id="Node000016" class="node">
<title>Node16</title>
<g id="a_Node000016"><a xlink:title=" ">
<polygon fill="#e0e0e0" stroke="#999999" points="1371.5,-184 1326.5,-184 1326.5,-165 1371.5,-165 1371.5,-184"/>
<text text-anchor="middle" x="1349" y="-172" font-family="Helvetica,sans-Serif" font-size="10.00">utility</text>
</a>
</g>
</g>
<!-- Node14&#45;&gt;Node16 -->
<g id="edge16_Node000014_Node000016" class="edge">
<title>Node14&#45;&gt;Node16</title>
<g id="a_edge16_Node000014_Node000016"><a xlink:title=" ">
<path fill="none" stroke="#63b8ff" d="M1347.48,-219.84C1347.74,-212.21 1348.07,-202.7 1348.35,-194.45"/>
<polygon fill="#63b8ff" stroke="#63b8ff" points="1351.86,-194.38 1348.7,-184.27 1344.86,-194.14 1351.86,-194.38"/>
</a>
</g>
</g>
<!-- Node17&#45;&gt;Node7 -->
<g id="edge23_Node000017_Node000007" class="edge">
<title>Node17&#45;&gt;Node7</title>
<g id="a_edge23_Node000017_Node000007"><a xlink:title=" ">
<path fill="none" stroke="#63b8ff" d="M843.79,-225.16C836.78,-215.17 825.05,-198.44 815,-184 789.88,-147.9 760.59,-105.51 744.71,-82.48"/>
<polygon fill="#63b8ff" stroke="#63b8ff" points="747.51,-80.38 738.95,-74.13 741.75,-84.35 747.51,-80.38"/>
</a>
</g>
</g>
<!-- Node17&#45;&gt;Node10 -->
<g id="edge20_Node000017_Node000010" class="edge">
<title>Node17&#45;&gt;Node10</title>
<g id="a_edge20_Node000017_Node000010"><a xlink:title=" ">
<path fill="none" stroke="#63b8ff" d="M806.39,-231.92C689.26,-225.42 371.95,-201.33 302,-129 276.34,-102.46 285.16,-54.94 292.75,-28.86"/>
<polygon fill="#63b8ff" stroke="#63b8ff" points="296.15,-29.71 295.82,-19.12 289.47,-27.61 296.15,-29.71"/>
</a>
</g>
</g>
<!-- Node18 -->
<g id="Node000018" class="node">
<title>Node18</title>
<g id="a_Node000018"><a xlink:title=" ">
<polygon fill="#e0e0e0" stroke="#999999" points="993,-129 951,-129 951,-110 993,-110 993,-129"/>
<text text-anchor="middle" x="972" y="-117" font-family="Helvetica,sans-Serif" font-size="10.00">array</text>
</a>
</g>
</g>
<!-- Node17&#45;&gt;Node18 -->
<g id="edge19_Node000017_Node000018" class="edge">
<title>Node17&#45;&gt;Node18</title>
<g id="a_edge19_Node000017_Node000018"><a xlink:title=" ">
<path fill="none" stroke="#63b8ff" d="M893.55,-228.45C921.06,-222.44 954.59,-209.95 972,-184 980.73,-170.98 979.77,-152.84 977.18,-139.27"/>
<polygon fill="#63b8ff" stroke="#63b8ff" points="980.5,-138.11 974.8,-129.17 973.69,-139.71 980.5,-138.11"/>
</a>
</g>
</g>
<!-- Node19 -->
<g id="Node000019" class="node">
<title>Node19</title>
<g id="a_Node000019"><a xlink:href="atom_8h.html" target="_top" xlink:title=" ">
<polygon fill="white" stroke="#666666" points="932.5,-129 837.5,-129 837.5,-110 932.5,-110 932.5,-129"/>
<text text-anchor="middle" x="885" y="-117" font-family="Helvetica,sans-Serif" font-size="10.00">occ/core/atom.h</text>
</a>
</g>
</g>
<!-- Node17&#45;&gt;Node19 -->
<g id="edge21_Node000017_Node000019" class="edge">
<title>Node17&#45;&gt;Node19</title>
<g id="a_edge21_Node000017_Node000019"><a xlink:title=" ">
<path fill="none" stroke="#63b8ff" d="M841.62,-225.27C829.9,-211.95 811.18,-185.89 822,-165 829.04,-151.41 842.34,-141.09 854.92,-133.82"/>
<polygon fill="#63b8ff" stroke="#63b8ff" points="856.67,-136.86 863.85,-129.07 853.38,-130.68 856.67,-136.86"/>
</a>
</g>
</g>
<!-- Node20 -->
<g id="Node000020" class="node">
<title>Node20</title>
<g id="a_Node000020"><a xlink:href="point__charge_8h.html" target="_top" xlink:title=" ">
<polygon fill="white" stroke="#666666" points="963,-184 831,-184 831,-165 963,-165 963,-184"/>
<text text-anchor="middle" x="897" y="-172" font-family="Helvetica,sans-Serif" font-size="10.00">occ/core/point_charge.h</text>
</a>
</g>
</g>
<!-- Node17&#45;&gt;Node20 -->
<g id="edge24_Node000017_Node000020" class="edge">
<title>Node17&#45;&gt;Node20</title>
<g id="a_edge24_Node000017_Node000020"><a xlink:title=" ">
<path fill="none" stroke="#63b8ff" d="M856.94,-225.37C863.95,-216.64 874.96,-202.93 883.67,-192.09"/>
<polygon fill="#63b8ff" stroke="#63b8ff" points="886.5,-194.16 890.04,-184.17 881.04,-189.77 886.5,-194.16"/>
</a>
</g>
</g>
<!-- Node21 -->
<g id="Node000021" class="node">
<title>Node21</title>
<g id="a_Node000021"><a xlink:href="util_8h.html" target="_top" xlink:title=" ">
<polygon fill="white" stroke="#666666" points="630.5,-184 545.5,-184 545.5,-165 630.5,-165 630.5,-184"/>
<text text-anchor="middle" x="588" y="-172" font-family="Helvetica,sans-Serif" font-size="10.00">occ/core/util.h</text>
</a>
</g>
</g>
<!-- Node17&#45;&gt;Node21 -->
<g id="edge27_Node000017_Node000021" class="edge">
<title>Node17&#45;&gt;Node21</title>
<g id="a_edge27_Node000017_Node000021"><a xlink:title=" ">
<path fill="none" stroke="#63b8ff" d="M811.9,-225.49C765.43,-215.12 686.82,-197.57 636.19,-186.26"/>
<polygon fill="#63b8ff" stroke="#63b8ff" points="636.67,-182.78 626.14,-184.02 635.14,-189.61 636.67,-182.78"/>
</a>
</g>
</g>
<!-- Node19&#45;&gt;Node7 -->
<g id="edge22_Node000019_Node000007" class="edge">
<title>Node19&#45;&gt;Node7</title>
<g id="a_edge22_Node000019_Node000007"><a xlink:title=" ">
<path fill="none" stroke="#63b8ff" d="M860.58,-109.98C835.28,-101.16 795.55,-87.31 767.14,-77.41"/>
<polygon fill="#63b8ff" stroke="#63b8ff" points="768.21,-74.07 757.61,-74.08 765.9,-80.68 768.21,-74.07"/>
</a>
</g>
</g>
<!-- Node20&#45;&gt;Node18 -->
<g id="edge25_Node000020_Node000018" class="edge">
<title>Node20&#45;&gt;Node18</title>
<g id="a_edge25_Node000020_Node000018"><a xlink:title=" ">
<path fill="none" stroke="#63b8ff" d="M909.05,-164.98C920.46,-156.92 937.83,-144.65 951.43,-135.03"/>
<polygon fill="#63b8ff" stroke="#63b8ff" points="953.58,-137.8 959.73,-129.17 949.54,-132.08 953.58,-137.8"/>
</a>
</g>
</g>
<!-- Node20&#45;&gt;Node19 -->
<g id="edge26_Node000020_Node000019" class="edge">
<title>Node20&#45;&gt;Node19</title>
<g id="a_edge26_Node000020_Node000019"><a xlink:title=" ">
<path fill="none" stroke="#63b8ff" d="M895.02,-164.75C893.43,-157.72 891.14,-147.62 889.15,-138.84"/>
<polygon fill="#63b8ff" stroke="#63b8ff" points="892.57,-138.07 886.94,-129.09 885.74,-139.62 892.57,-138.07"/>
</a>
</g>
</g>
<!-- Node21&#45;&gt;Node7 -->
<g id="edge34_Node000021_Node000007" class="edge">
<title>Node21&#45;&gt;Node7</title>
<g id="a_edge34_Node000021_Node000007"><a xlink:title=" ">
<path fill="none" stroke="#63b8ff" d="M630.76,-168.39C658.04,-162.98 692.24,-151.85 714,-129 725.52,-116.9 730.09,-98.1 731.88,-84.09"/>
<polygon fill="#63b8ff" stroke="#63b8ff" points="735.37,-84.38 732.8,-74.11 728.4,-83.74 735.37,-84.38"/>
</a>
</g>
</g>
<!-- Node21&#45;&gt;Node10 -->
<g id="edge31_Node000021_Node000010" class="edge">
<title>Node21&#45;&gt;Node10</title>
<g id="a_edge31_Node000021_Node000010"><a xlink:title=" ">
<path fill="none" stroke="#63b8ff" d="M545.47,-172.36C477.58,-169.61 349.17,-160.31 318,-129 291.75,-102.63 292.88,-55.39 295.96,-29.23"/>
<polygon fill="#63b8ff" stroke="#63b8ff" points="299.45,-29.52 297.37,-19.13 292.52,-28.55 299.45,-29.52"/>
</a>
</g>
</g>
<!-- Node21&#45;&gt;Node12 -->
<g id="edge35_Node000021_Node000012" class="edge">
<title>Node21&#45;&gt;Node12</title>
<g id="a_edge35_Node000021_Node000012"><a xlink:title=" ">
<path fill="none" stroke="#63b8ff" d="M614.31,-164.99C658.13,-151.16 749.06,-123.96 828,-110 996.59,-80.18 1201.89,-69.69 1280.37,-66.61"/>
<polygon fill="#63b8ff" stroke="#63b8ff" points="1280.73,-70.1 1290.59,-66.22 1280.46,-63.11 1280.73,-70.1"/>
</a>
</g>
</g>
<!-- Node21&#45;&gt;Node13 -->
<g id="edge36_Node000021_Node000013" class="edge">
<title>Node21&#45;&gt;Node13</title>
<g id="a_edge36_Node000021_Node000013"><a xlink:title=" ">
<path fill="none" stroke="#63b8ff" d="M630.69,-170.82C726.3,-164.68 964.87,-148.6 1164,-129 1176.11,-127.81 1189.35,-126.28 1201.08,-124.85"/>
<polygon fill="#63b8ff" stroke="#63b8ff" points="1201.87,-128.28 1211.36,-123.58 1201.01,-121.34 1201.87,-128.28"/>
</a>
</g>
</g>
<!-- Node22 -->
<g id="Node000022" class="node">
<title>Node22</title>
<g id="a_Node000022"><a xlink:title=" ">
<polygon fill="#e0e0e0" stroke="#999999" points="391,-129 327,-129 327,-110 391,-110 391,-129"/>
<text text-anchor="middle" x="359" y="-117" font-family="Helvetica,sans-Serif" font-size="10.00">algorithm</text>
</a>
</g>
</g>
<!-- Node21&#45;&gt;Node22 -->
<g id="edge28_Node000021_Node000022" class="edge">
<title>Node21&#45;&gt;Node22</title>
<g id="a_edge28_Node000021_Node000022"><a xlink:title=" ">
<path fill="none" stroke="#63b8ff" d="M551.21,-164.98C510.24,-155.5 444.15,-140.21 401.13,-130.25"/>
<polygon fill="#63b8ff" stroke="#63b8ff" points="401.79,-126.81 391.26,-127.97 400.21,-133.63 401.79,-126.81"/>
</a>
</g>
</g>
<!-- Node23 -->
<g id="Node000023" class="node">
<title>Node23</title>
<g id="a_Node000023"><a xlink:title=" ">
<polygon fill="#e0e0e0" stroke="#999999" points="458.5,-129 409.5,-129 409.5,-110 458.5,-110 458.5,-129"/>
<text text-anchor="middle" x="434" y="-117" font-family="Helvetica,sans-Serif" font-size="10.00">cctype</text>
</a>
</g>
</g>
<!-- Node21&#45;&gt;Node23 -->
<g id="edge29_Node000021_Node000023" class="edge">
<title>Node21&#45;&gt;Node23</title>
<g id="a_edge29_Node000021_Node000023"><a xlink:title=" ">
<path fill="none" stroke="#63b8ff" d="M563.26,-164.98C537.55,-156.14 497.13,-142.23 468.34,-132.32"/>
<polygon fill="#63b8ff" stroke="#63b8ff" points="469.28,-128.94 458.68,-128.99 467,-135.56 469.28,-128.94"/>
</a>
</g>
</g>
<!-- Node24 -->
<g id="Node000024" class="node">
<title>Node24</title>
<g id="a_Node000024"><a xlink:title=" ">
<polygon fill="#e0e0e0" stroke="#999999" points="527,-129 477,-129 477,-110 527,-110 527,-129"/>
<text text-anchor="middle" x="502" y="-117" font-family="Helvetica,sans-Serif" font-size="10.00">chrono</text>
</a>
</g>
</g>
<!-- Node21&#45;&gt;Node24 -->
<g id="edge30_Node000021_Node000024" class="edge">
<title>Node21&#45;&gt;Node24</title>
<g id="a_edge30_Node000021_Node000024"><a xlink:title=" ">
<path fill="none" stroke="#63b8ff" d="M574.18,-164.98C560.85,-156.77 540.42,-144.18 524.69,-134.49"/>
<polygon fill="#63b8ff" stroke="#63b8ff" points="526.42,-131.44 516.07,-129.17 522.75,-137.4 526.42,-131.44"/>
</a>
</g>
</g>
<!-- Node25 -->
<g id="Node000025" class="node">
<title>Node25</title>
<g id="a_Node000025"><a xlink:title=" ">
<polygon fill="#e0e0e0" stroke="#999999" points="631,-129 545,-129 545,-110 631,-110 631,-129"/>
<text text-anchor="middle" x="588" y="-117" font-family="Helvetica,sans-Serif" font-size="10.00">fmt/ostream.h</text>
</a>
</g>
</g>
<!-- Node21&#45;&gt;Node25 -->
<g id="edge32_Node000021_Node000025" class="edge">
<title>Node21&#45;&gt;Node25</title>
<g id="a_edge32_Node000021_Node000025"><a xlink:title=" ">
<path fill="none" stroke="#63b8ff" d="M588,-164.75C588,-157.8 588,-147.85 588,-139.13"/>
<polygon fill="#63b8ff" stroke="#63b8ff" points="591.5,-139.09 588,-129.09 584.5,-139.09 591.5,-139.09"/>
</a>
</g>
</g>
<!-- Node26 -->
<g id="Node000026" class="node">
<title>Node26</title>
<g id="a_Node000026"><a xlink:title=" ">
<polygon fill="#e0e0e0" stroke="#999999" points="705,-129 649,-129 649,-110 705,-110 705,-129"/>
<text text-anchor="middle" x="677" y="-117" font-family="Helvetica,sans-Serif" font-size="10.00">numeric</text>
</a>
</g>
</g>
<!-- Node21&#45;&gt;Node26 -->
<g id="edge33_Node000021_Node000026" class="edge">
<title>Node21&#45;&gt;Node26</title>
<g id="a_edge33_Node000021_Node000026"><a xlink:title=" ">
<path fill="none" stroke="#63b8ff" d="M602.3,-164.98C616.1,-156.77 637.24,-144.18 653.51,-134.49"/>
<polygon fill="#63b8ff" stroke="#63b8ff" points="655.64,-137.29 662.44,-129.17 652.06,-131.28 655.64,-137.29"/>
</a>
</g>
</g>
<!-- Node28 -->
<g id="Node000028" class="node">
<title>Node28</title>
<g id="a_Node000028"><a xlink:href="orbital__smearing_8h.html" target="_top" xlink:title=" ">
<polygon fill="white" stroke="#666666" points="146,-244.5 0,-244.5 0,-225.5 146,-225.5 146,-244.5"/>
<text text-anchor="middle" x="73" y="-232.5" font-family="Helvetica,sans-Serif" font-size="10.00">occ/qm/orbital_smearing.h</text>
</a>
</g>
</g>
<!-- Node27&#45;&gt;Node28 -->
<g id="edge38_Node000027_Node000028" class="edge">
<title>Node27&#45;&gt;Node28</title>
<g id="a_edge38_Node000027_Node000028"><a xlink:title=" ">
<path fill="none" stroke="#63b8ff" d="M222.55,-285.99C192.36,-275.9 141.84,-259.01 107.98,-247.69"/>
<polygon fill="#63b8ff" stroke="#63b8ff" points="109.07,-244.37 98.48,-244.52 106.85,-251.01 109.07,-244.37"/>
</a>
</g>
</g>
<!-- Node29 -->
<g id="Node000029" class="node">
<title>Node29</title>
<g id="a_Node000029"><a xlink:href="spinorbital_8h.html" target="_top" xlink:title=" ">
<polygon fill="white" stroke="#666666" points="306,-244.5 190,-244.5 190,-225.5 306,-225.5 306,-244.5"/>
<text text-anchor="middle" x="248" y="-232.5" font-family="Helvetica,sans-Serif" font-size="10.00">occ/qm/spinorbital.h</text>
</a>
</g>
</g>
<!-- Node27&#45;&gt;Node29 -->
<g id="edge40_Node000027_Node000029" class="edge">
<title>Node27&#45;&gt;Node29</title>
<g id="a_edge40_Node000027_Node000029"><a xlink:title=" ">
<path fill="none" stroke="#63b8ff" d="M248,-285.87C248,-277.75 248,-265.31 248,-254.89"/>
<polygon fill="#63b8ff" stroke="#63b8ff" points="251.5,-254.67 248,-244.67 244.5,-254.67 251.5,-254.67"/>
</a>
</g>
</g>
<!-- Node28&#45;&gt;Node7 -->
<g id="edge39_Node000028_Node000007" class="edge">
<title>Node28&#45;&gt;Node7</title>
<g id="a_edge39_Node000028_Node000007"><a xlink:title=" ">
<path fill="none" stroke="#63b8ff" d="M70.7,-225.19C67.52,-210.79 63.66,-182.13 78,-165 141.58,-89.03 196.45,-127.26 294,-110 418.44,-87.98 564.8,-75.86 653.15,-70.02"/>
<polygon fill="#63b8ff" stroke="#63b8ff" points="653.62,-73.5 663.37,-69.36 653.16,-66.52 653.62,-73.5"/>
</a>
</g>
</g>
<!-- Node29&#45;&gt;Node7 -->
<g id="edge41_Node000029_Node000007" class="edge">
<title>Node29&#45;&gt;Node7</title>
<g id="a_edge41_Node000029_Node000007"><a xlink:title=" ">
<path fill="none" stroke="#63b8ff" d="M250.01,-225.2C255.87,-201.84 275.25,-138.12 318,-110 371.39,-74.88 548.2,-67.03 653.03,-65.54"/>
<polygon fill="#63b8ff" stroke="#63b8ff" points="653.3,-69.04 663.25,-65.42 653.21,-62.04 653.3,-69.04"/>
</a>
</g>
</g>
<!-- Node29&#45;&gt;Node21 -->
<g id="edge42_Node000029_Node000021" class="edge">
<title>Node29&#45;&gt;Node21</title>
<g id="a_edge42_Node000029_Node000021"><a xlink:title=" ">
<path fill="none" stroke="#63b8ff" d="M297.44,-225.49C360.9,-214.57 470.54,-195.71 535.46,-184.54"/>
<polygon fill="#63b8ff" stroke="#63b8ff" points="536.22,-187.96 545.49,-182.81 535.04,-181.06 536.22,-187.96"/>
</a>
</g>
</g>
<!-- Node30 -->
<g id="Node000030" class="node">
<title>Node30</title>
<g id="a_Node000030"><a xlink:href="qm_2opmatrix_8h.html" target="_top" xlink:title=" ">
<polygon fill="white" stroke="#666666" points="195,-184 87,-184 87,-165 195,-165 195,-184"/>
<text text-anchor="middle" x="141" y="-172" font-family="Helvetica,sans-Serif" font-size="10.00">occ/qm/opmatrix.h</text>
</a>
</g>
</g>
<!-- Node29&#45;&gt;Node30 -->
<g id="edge43_Node000029_Node000030" class="edge">
<title>Node29&#45;&gt;Node30</title>
<g id="a_edge43_Node000029_Node000030"><a xlink:title=" ">
<path fill="none" stroke="#63b8ff" d="M227.51,-225.49C208.08,-216.01 179.45,-200.52 160.4,-189.29"/>
<polygon fill="#63b8ff" stroke="#63b8ff" points="162.02,-186.18 151.65,-184.02 158.4,-192.18 162.02,-186.18"/>
</a>
</g>
</g>
<!-- Node30&#45;&gt;Node29 -->
<g id="edge44_Node000030_Node000029" class="edge">
<title>Node30&#45;&gt;Node29</title>
<g id="a_edge44_Node000030_Node000029"><a xlink:title=" ">
<path fill="none" stroke="#63b8ff" d="M161.82,-184.17C181.19,-193.64 209.5,-208.96 228.45,-220.12"/>
<polygon fill="#63b8ff" stroke="#63b8ff" points="226.8,-223.21 237.17,-225.37 230.41,-217.21 226.8,-223.21"/>
</a>
</g>
</g>
<!-- Node31&#45;&gt;Node12 -->
<g id="edge49_Node000031_Node000012" class="edge">
<title>Node31&#45;&gt;Node12</title>
<g id="a_edge49_Node000031_Node000012"><a xlink:title=" ">
<path fill="none" stroke="#63b8ff" d="M1098.77,-164.96C1121.01,-152.26 1164.6,-127.95 1203,-110 1228.89,-97.9 1259.03,-85.84 1281.21,-77.34"/>
<polygon fill="#63b8ff" stroke="#63b8ff" points="1282.69,-80.52 1290.79,-73.69 1280.2,-73.97 1282.69,-80.52"/>
</a>
</g>
</g>
<!-- Node31&#45;&gt;Node13 -->
<g id="edge50_Node000031_Node000013" class="edge">
<title>Node31&#45;&gt;Node13</title>
<g id="a_edge50_Node000031_Node000013"><a xlink:title=" ">
<path fill="none" stroke="#63b8ff" d="M1108.26,-164.98C1133.62,-156.09 1173.57,-142.06 1201.83,-132.14"/>
<polygon fill="#63b8ff" stroke="#63b8ff" points="1203.02,-135.43 1211.3,-128.82 1200.7,-128.83 1203.02,-135.43"/>
</a>
</g>
</g>
<!-- Node31&#45;&gt;Node19 -->
<g id="edge48_Node000031_Node000019" class="edge">
<title>Node31&#45;&gt;Node19</title>
<g id="a_edge48_Node000031_Node000019"><a xlink:title=" ">
<path fill="none" stroke="#63b8ff" d="M1052.03,-164.98C1018.18,-155.97 964.6,-141.7 927.29,-131.76"/>
<polygon fill="#63b8ff" stroke="#63b8ff" points="927.79,-128.27 917.22,-129.08 925.99,-135.04 927.79,-128.27"/>
</a>
</g>
</g>
<!-- Node32 -->
<g id="Node000032" class="node">
<title>Node32</title>
<g id="a_Node000032"><a xlink:title=" ">
<polygon fill="#e0e0e0" stroke="#999999" points="1154.5,-129 1011.5,-129 1011.5,-110 1154.5,-110 1154.5,-129"/>
<text text-anchor="middle" x="1083" y="-117" font-family="Helvetica,sans-Serif" font-size="10.00">ankerl/unordered_dense.h</text>
</a>
</g>
</g>
<!-- Node31&#45;&gt;Node32 -->
<g id="edge47_Node000031_Node000032" class="edge">
<title>Node31&#45;&gt;Node32</title>
<g id="a_edge47_Node000031_Node000032"><a xlink:title=" ">
<path fill="none" stroke="#63b8ff" d="M1083.83,-164.75C1083.7,-157.8 1083.52,-147.85 1083.35,-139.13"/>
<polygon fill="#63b8ff" stroke="#63b8ff" points="1086.85,-139.02 1083.16,-129.09 1079.85,-139.15 1086.85,-139.02"/>
</a>
</g>
</g>
</g>
</svg>
