<?xml version="1.0" encoding="UTF-8" standalone="no"?>
<!DOCTYPE svg PUBLIC "-//W3C//DTD SVG 1.1//EN"
 "http://www.w3.org/Graphics/SVG/1.1/DTD/svg11.dtd">
<!-- Generated by graphviz version 2.43.0 (0)
 -->
<!-- Title: /home/runner/work/occ/occ/include/occ/xdm/xdm.h Pages: 1 -->
<svg width="1577pt" height="379pt"
 viewBox="0.00 0.00 1576.50 379.00" xmlns="http://www.w3.org/2000/svg" xmlns:xlink="http://www.w3.org/1999/xlink">
<g id="graph0" class="graph" transform="scale(1 1) rotate(0) translate(4 375)">
<title>/home/runner/work/occ/occ/include/occ/xdm/xdm.h</title>
<!-- Node1 -->
<g id="Node000001" class="node">
<title>Node1</title>
<g id="a_Node000001"><a xlink:title=" ">
<polygon fill="#999999" stroke="#666666" points="534.5,-371 382.5,-371 382.5,-341 534.5,-341 534.5,-371"/>
<text text-anchor="start" x="390.5" y="-359" font-family="Helvetica,sans-Serif" font-size="10.00">/home/runner/work/occ</text>
<text text-anchor="middle" x="458.5" y="-348" font-family="Helvetica,sans-Serif" font-size="10.00">/occ/include/occ/xdm/xdm.h</text>
</a>
</g>
</g>
<!-- Node2 -->
<g id="Node000002" class="node">
<title>Node2</title>
<g id="a_Node000002"><a xlink:href="molecular__grid_8h.html" target="_top" xlink:title=" ">
<polygon fill="white" stroke="#666666" points="299.5,-305 165.5,-305 165.5,-286 299.5,-286 299.5,-305"/>
<text text-anchor="middle" x="232.5" y="-293" font-family="Helvetica,sans-Serif" font-size="10.00">occ/dft/molecular_grid.h</text>
</a>
</g>
</g>
<!-- Node1&#45;&gt;Node2 -->
<g id="edge1_Node000001_Node000002" class="edge">
<title>Node1&#45;&gt;Node2</title>
<g id="a_edge1_Node000001_Node000002"><a xlink:title=" ">
<path fill="none" stroke="#63b8ff" d="M404.37,-340.99C364.86,-330.76 312.03,-317.09 275.42,-307.61"/>
<polygon fill="#63b8ff" stroke="#63b8ff" points="276.1,-304.17 265.54,-305.05 274.35,-310.95 276.1,-304.17"/>
</a>
</g>
</g>
<!-- Node12 -->
<g id="Node000012" class="node">
<title>Node12</title>
<g id="a_Node000012"><a xlink:title=" ">
<polygon fill="#e0e0e0" stroke="#999999" points="304,-129 257,-129 257,-110 304,-110 304,-129"/>
<text text-anchor="middle" x="280.5" y="-117" font-family="Helvetica,sans-Serif" font-size="10.00">vector</text>
</a>
</g>
</g>
<!-- Node1&#45;&gt;Node12 -->
<g id="edge54_Node000001_Node000012" class="edge">
<title>Node1&#45;&gt;Node12</title>
<g id="a_edge54_Node000001_Node000012"><a xlink:title=" ">
<path fill="none" stroke="#63b8ff" d="M447.63,-340.68C416.42,-299.56 326.61,-181.24 293.21,-137.24"/>
<polygon fill="#63b8ff" stroke="#63b8ff" points="295.98,-135.11 287.15,-129.26 290.41,-139.34 295.98,-135.11"/>
</a>
</g>
</g>
<!-- Node16 -->
<g id="Node000016" class="node">
<title>Node16</title>
<g id="a_Node000016"><a xlink:href="shell_8h.html" target="_top" xlink:title=" ">
<polygon fill="white" stroke="#666666" points="694,-244.5 607,-244.5 607,-225.5 694,-225.5 694,-244.5"/>
<text text-anchor="middle" x="650.5" y="-232.5" font-family="Helvetica,sans-Serif" font-size="10.00">occ/qm/shell.h</text>
</a>
</g>
</g>
<!-- Node1&#45;&gt;Node16 -->
<g id="edge47_Node000001_Node000016" class="edge">
<title>Node1&#45;&gt;Node16</title>
<g id="a_edge47_Node000001_Node000016"><a xlink:title=" ">
<path fill="none" stroke="#63b8ff" d="M481.28,-340.88C518.27,-317.95 590.99,-272.88 627.88,-250.02"/>
<polygon fill="#63b8ff" stroke="#63b8ff" points="629.79,-252.95 636.44,-244.71 626.1,-247 629.79,-252.95"/>
</a>
</g>
</g>
<!-- Node27 -->
<g id="Node000027" class="node">
<title>Node27</title>
<g id="a_Node000027"><a xlink:href="mo_8h.html" target="_top" xlink:title=" ">
<polygon fill="white" stroke="#666666" points="860.5,-305 780.5,-305 780.5,-286 860.5,-286 860.5,-305"/>
<text text-anchor="middle" x="820.5" y="-293" font-family="Helvetica,sans-Serif" font-size="10.00">occ/qm/mo.h</text>
</a>
</g>
</g>
<!-- Node1&#45;&gt;Node27 -->
<g id="edge39_Node000001_Node000027" class="edge">
<title>Node1&#45;&gt;Node27</title>
<g id="a_edge39_Node000001_Node000027"><a xlink:title=" ">
<path fill="none" stroke="#63b8ff" d="M534.83,-342.67C605.62,-331.23 708.95,-314.53 770,-304.66"/>
<polygon fill="#63b8ff" stroke="#63b8ff" points="770.84,-308.07 780.15,-303.02 769.72,-301.16 770.84,-308.07"/>
</a>
</g>
</g>
<!-- Node31 -->
<g id="Node000031" class="node">
<title>Node31</title>
<g id="a_Node000031"><a xlink:href="slaterbasis_8h.html" target="_top" xlink:title=" ">
<polygon fill="white" stroke="#666666" points="523,-184 394,-184 394,-165 523,-165 523,-184"/>
<text text-anchor="middle" x="458.5" y="-172" font-family="Helvetica,sans-Serif" font-size="10.00">occ/slater/slaterbasis.h</text>
</a>
</g>
</g>
<!-- Node1&#45;&gt;Node31 -->
<g id="edge48_Node000001_Node000031" class="edge">
<title>Node1&#45;&gt;Node31</title>
<g id="a_edge48_Node000001_Node000031"><a xlink:title=" ">
<path fill="none" stroke="#63b8ff" d="M458.5,-340.91C458.5,-308.85 458.5,-230.38 458.5,-194.26"/>
<polygon fill="#63b8ff" stroke="#63b8ff" points="462,-194.13 458.5,-184.13 455,-194.13 462,-194.13"/>
</a>
</g>
</g>
<!-- Node3 -->
<g id="Node000003" class="node">
<title>Node3</title>
<g id="a_Node000003"><a xlink:title=" ">
<polygon fill="#e0e0e0" stroke="#999999" points="89.5,-244.5 31.5,-244.5 31.5,-225.5 89.5,-225.5 89.5,-244.5"/>
<text text-anchor="middle" x="60.5" y="-232.5" font-family="Helvetica,sans-Serif" font-size="10.00">memory</text>
</a>
</g>
</g>
<!-- Node2&#45;&gt;Node3 -->
<g id="edge2_Node000002_Node000003" class="edge">
<title>Node2&#45;&gt;Node3</title>
<g id="a_edge2_Node000002_Node000003"><a xlink:title=" ">
<path fill="none" stroke="#63b8ff" d="M205.97,-285.97C178.88,-277.19 135.63,-263 98.5,-250 96.66,-249.36 94.77,-248.69 92.87,-248"/>
<polygon fill="#63b8ff" stroke="#63b8ff" points="93.96,-244.68 83.36,-244.56 91.57,-251.26 93.96,-244.68"/>
</a>
</g>
</g>
<!-- Node4 -->
<g id="Node000004" class="node">
<title>Node4</title>
<g id="a_Node000004"><a xlink:href="grid__types_8h.html" target="_top" xlink:title=" ">
<polygon fill="white" stroke="#666666" points="258.5,-184 146.5,-184 146.5,-165 258.5,-165 258.5,-184"/>
<text text-anchor="middle" x="202.5" y="-172" font-family="Helvetica,sans-Serif" font-size="10.00">occ/dft/grid_types.h</text>
</a>
</g>
</g>
<!-- Node2&#45;&gt;Node4 -->
<g id="edge3_Node000002_Node000004" class="edge">
<title>Node2&#45;&gt;Node4</title>
<g id="a_edge3_Node000002_Node000004"><a xlink:title=" ">
<path fill="none" stroke="#63b8ff" d="M236.06,-285.92C241.41,-271.73 250.03,-242.68 241.5,-220 237.32,-208.89 228.98,-198.75 221.07,-190.96"/>
<polygon fill="#63b8ff" stroke="#63b8ff" points="223.22,-188.19 213.49,-184.01 218.49,-193.35 223.22,-188.19"/>
</a>
</g>
</g>
<!-- Node13 -->
<g id="Node000013" class="node">
<title>Node13</title>
<g id="a_Node000013"><a xlink:href="molecular__grid__points_8h.html" target="_top" xlink:title=" ">
<polygon fill="white" stroke="#666666" points="233,-250 108,-250 108,-220 233,-220 233,-250"/>
<text text-anchor="start" x="116" y="-238" font-family="Helvetica,sans-Serif" font-size="10.00">occ/dft/molecular_grid</text>
<text text-anchor="middle" x="170.5" y="-227" font-family="Helvetica,sans-Serif" font-size="10.00">_points.h</text>
</a>
</g>
</g>
<!-- Node2&#45;&gt;Node13 -->
<g id="edge12_Node000002_Node000013" class="edge">
<title>Node2&#45;&gt;Node13</title>
<g id="a_edge12_Node000002_Node000013"><a xlink:title=" ">
<path fill="none" stroke="#63b8ff" d="M223.35,-285.87C215.33,-278.3 203.33,-266.98 192.8,-257.04"/>
<polygon fill="#63b8ff" stroke="#63b8ff" points="195.13,-254.43 185.46,-250.11 190.33,-259.52 195.13,-254.43"/>
</a>
</g>
</g>
<!-- Node2&#45;&gt;Node16 -->
<g id="edge17_Node000002_Node000016" class="edge">
<title>Node2&#45;&gt;Node16</title>
<g id="a_edge17_Node000002_Node000016"><a xlink:title=" ">
<path fill="none" stroke="#63b8ff" d="M293.28,-285.99C374.98,-274.56 518.92,-254.41 596.82,-243.51"/>
<polygon fill="#63b8ff" stroke="#63b8ff" points="597.48,-246.95 606.9,-242.1 596.51,-240.02 597.48,-246.95"/>
</a>
</g>
</g>
<!-- Node5 -->
<g id="Node000005" class="node">
<title>Node5</title>
<g id="a_Node000005"><a xlink:title=" ">
<polygon fill="#e0e0e0" stroke="#999999" points="62.5,-129 12.5,-129 12.5,-110 62.5,-110 62.5,-129"/>
<text text-anchor="middle" x="37.5" y="-117" font-family="Helvetica,sans-Serif" font-size="10.00">cstdint</text>
</a>
</g>
</g>
<!-- Node4&#45;&gt;Node5 -->
<g id="edge4_Node000004_Node000005" class="edge">
<title>Node4&#45;&gt;Node5</title>
<g id="a_edge4_Node000004_Node000005"><a xlink:title=" ">
<path fill="none" stroke="#63b8ff" d="M175.99,-164.98C147.8,-155.93 103.08,-141.57 72.12,-131.62"/>
<polygon fill="#63b8ff" stroke="#63b8ff" points="73.18,-128.29 62.59,-128.56 71.04,-134.95 73.18,-128.29"/>
</a>
</g>
</g>
<!-- Node6 -->
<g id="Node000006" class="node">
<title>Node6</title>
<g id="a_Node000006"><a xlink:href="linear__algebra_8h.html" target="_top" xlink:title=" ">
<polygon fill="white" stroke="#666666" points="830,-74 691,-74 691,-55 830,-55 830,-74"/>
<text text-anchor="middle" x="760.5" y="-62" font-family="Helvetica,sans-Serif" font-size="10.00">occ/core/linear_algebra.h</text>
</a>
</g>
</g>
<!-- Node4&#45;&gt;Node6 -->
<g id="edge5_Node000004_Node000006" class="edge">
<title>Node4&#45;&gt;Node6</title>
<g id="a_edge5_Node000004_Node000006"><a xlink:title=" ">
<path fill="none" stroke="#63b8ff" d="M205.86,-164.66C211.82,-150.36 225.69,-122.5 247.5,-110 284.12,-89.02 545.83,-74.78 680.64,-68.75"/>
<polygon fill="#63b8ff" stroke="#63b8ff" points="681.08,-72.23 690.92,-68.29 680.77,-65.24 681.08,-72.23"/>
</a>
</g>
</g>
<!-- Node10 -->
<g id="Node000010" class="node">
<title>Node10</title>
<g id="a_Node000010"><a xlink:href="grid__settings_8h.html" target="_top" xlink:title=" ">
<polygon fill="white" stroke="#666666" points="200.5,-129 80.5,-129 80.5,-110 200.5,-110 200.5,-129"/>
<text text-anchor="middle" x="140.5" y="-117" font-family="Helvetica,sans-Serif" font-size="10.00">occ/io/grid_settings.h</text>
</a>
</g>
</g>
<!-- Node4&#45;&gt;Node10 -->
<g id="edge9_Node000004_Node000010" class="edge">
<title>Node4&#45;&gt;Node10</title>
<g id="a_edge9_Node000004_Node000010"><a xlink:title=" ">
<path fill="none" stroke="#63b8ff" d="M192.54,-164.98C183.37,-157.15 169.56,-145.34 158.47,-135.86"/>
<polygon fill="#63b8ff" stroke="#63b8ff" points="160.52,-133.01 150.64,-129.17 155.97,-138.33 160.52,-133.01"/>
</a>
</g>
</g>
<!-- Node4&#45;&gt;Node12 -->
<g id="edge11_Node000004_Node000012" class="edge">
<title>Node4&#45;&gt;Node12</title>
<g id="a_edge11_Node000004_Node000012"><a xlink:title=" ">
<path fill="none" stroke="#63b8ff" d="M215.03,-164.98C226.9,-156.92 244.96,-144.65 259.11,-135.03"/>
<polygon fill="#63b8ff" stroke="#63b8ff" points="261.44,-137.69 267.74,-129.17 257.5,-131.9 261.44,-137.69"/>
</a>
</g>
</g>
<!-- Node7 -->
<g id="Node000007" class="node">
<title>Node7</title>
<g id="a_Node000007"><a xlink:title=" ">
<polygon fill="#e0e0e0" stroke="#999999" points="696,-19 619,-19 619,0 696,0 696,-19"/>
<text text-anchor="middle" x="657.5" y="-7" font-family="Helvetica,sans-Serif" font-size="10.00">Eigen/Dense</text>
</a>
</g>
</g>
<!-- Node6&#45;&gt;Node7 -->
<g id="edge6_Node000006_Node000007" class="edge">
<title>Node6&#45;&gt;Node7</title>
<g id="a_edge6_Node000006_Node000007"><a xlink:title=" ">
<path fill="none" stroke="#63b8ff" d="M743.95,-54.98C727.61,-46.57 702.37,-33.59 683.37,-23.81"/>
<polygon fill="#63b8ff" stroke="#63b8ff" points="684.84,-20.63 674.35,-19.17 681.64,-26.86 684.84,-20.63"/>
</a>
</g>
</g>
<!-- Node8 -->
<g id="Node000008" class="node">
<title>Node8</title>
<g id="a_Node000008"><a xlink:title=" ">
<polygon fill="#e0e0e0" stroke="#999999" points="807,-19 714,-19 714,0 807,0 807,-19"/>
<text text-anchor="middle" x="760.5" y="-7" font-family="Helvetica,sans-Serif" font-size="10.00">Eigen/StdVector</text>
</a>
</g>
</g>
<!-- Node6&#45;&gt;Node8 -->
<g id="edge7_Node000006_Node000008" class="edge">
<title>Node6&#45;&gt;Node8</title>
<g id="a_edge7_Node000006_Node000008"><a xlink:title=" ">
<path fill="none" stroke="#63b8ff" d="M760.5,-54.75C760.5,-47.8 760.5,-37.85 760.5,-29.13"/>
<polygon fill="#63b8ff" stroke="#63b8ff" points="764,-29.09 760.5,-19.09 757,-29.09 764,-29.09"/>
</a>
</g>
</g>
<!-- Node9 -->
<g id="Node000009" class="node">
<title>Node9</title>
<g id="a_Node000009"><a xlink:title=" ">
<polygon fill="#e0e0e0" stroke="#999999" points="892,-19 825,-19 825,0 892,0 892,-19"/>
<text text-anchor="middle" x="858.5" y="-7" font-family="Helvetica,sans-Serif" font-size="10.00">fmt/core.h</text>
</a>
</g>
</g>
<!-- Node6&#45;&gt;Node9 -->
<g id="edge8_Node000006_Node000009" class="edge">
<title>Node6&#45;&gt;Node9</title>
<g id="a_edge8_Node000006_Node000009"><a xlink:title=" ">
<path fill="none" stroke="#63b8ff" d="M776.25,-54.98C791.73,-46.61 815.59,-33.7 833.64,-23.95"/>
<polygon fill="#63b8ff" stroke="#63b8ff" points="835.34,-27.01 842.47,-19.17 832.01,-20.85 835.34,-27.01"/>
</a>
</g>
</g>
<!-- Node11 -->
<g id="Node000011" class="node">
<title>Node11</title>
<g id="a_Node000011"><a xlink:title=" ">
<polygon fill="#e0e0e0" stroke="#999999" points="554.5,-74 510.5,-74 510.5,-55 554.5,-55 554.5,-74"/>
<text text-anchor="middle" x="532.5" y="-62" font-family="Helvetica,sans-Serif" font-size="10.00">string</text>
</a>
</g>
</g>
<!-- Node10&#45;&gt;Node11 -->
<g id="edge10_Node000010_Node000011" class="edge">
<title>Node10&#45;&gt;Node11</title>
<g id="a_edge10_Node000010_Node000011"><a xlink:title=" ">
<path fill="none" stroke="#63b8ff" d="M200.89,-110.33C285.11,-98.95 434.87,-78.7 500.35,-69.85"/>
<polygon fill="#63b8ff" stroke="#63b8ff" points="501.04,-73.29 510.48,-68.48 500.1,-66.35 501.04,-73.29"/>
</a>
</g>
</g>
<!-- Node13&#45;&gt;Node4 -->
<g id="edge13_Node000013_Node000004" class="edge">
<title>Node13&#45;&gt;Node4</title>
<g id="a_edge13_Node000013_Node000004"><a xlink:title=" ">
<path fill="none" stroke="#63b8ff" d="M178.25,-219.84C182.65,-211.78 188.21,-201.62 192.9,-193.06"/>
<polygon fill="#63b8ff" stroke="#63b8ff" points="195.98,-194.72 197.7,-184.27 189.84,-191.36 195.98,-194.72"/>
</a>
</g>
</g>
<!-- Node13&#45;&gt;Node12 -->
<g id="edge16_Node000013_Node000012" class="edge">
<title>Node13&#45;&gt;Node12</title>
<g id="a_edge16_Node000013_Node000012"><a xlink:title=" ">
<path fill="none" stroke="#63b8ff" d="M216.88,-219.97C235.24,-212.18 254.91,-200.61 267.5,-184 277.16,-171.25 280.1,-153.07 280.81,-139.43"/>
<polygon fill="#63b8ff" stroke="#63b8ff" points="284.31,-139.31 280.97,-129.26 277.31,-139.2 284.31,-139.31"/>
</a>
</g>
</g>
<!-- Node14 -->
<g id="Node000014" class="node">
<title>Node14</title>
<g id="a_Node000014"><a xlink:title=" ">
<polygon fill="#e0e0e0" stroke="#999999" points="128,-184 63,-184 63,-165 128,-165 128,-184"/>
<text text-anchor="middle" x="95.5" y="-172" font-family="Helvetica,sans-Serif" font-size="10.00">stdexcept</text>
</a>
</g>
</g>
<!-- Node13&#45;&gt;Node14 -->
<g id="edge14_Node000013_Node000014" class="edge">
<title>Node13&#45;&gt;Node14</title>
<g id="a_edge14_Node000013_Node000014"><a xlink:title=" ">
<path fill="none" stroke="#63b8ff" d="M152.34,-219.84C141.01,-211 126.44,-199.63 114.88,-190.62"/>
<polygon fill="#63b8ff" stroke="#63b8ff" points="116.78,-187.66 106.74,-184.27 112.47,-193.18 116.78,-187.66"/>
</a>
</g>
</g>
<!-- Node15 -->
<g id="Node000015" class="node">
<title>Node15</title>
<g id="a_Node000015"><a xlink:title=" ">
<polygon fill="#e0e0e0" stroke="#999999" points="45,-184 0,-184 0,-165 45,-165 45,-184"/>
<text text-anchor="middle" x="22.5" y="-172" font-family="Helvetica,sans-Serif" font-size="10.00">utility</text>
</a>
</g>
</g>
<!-- Node13&#45;&gt;Node15 -->
<g id="edge15_Node000013_Node000015" class="edge">
<title>Node13&#45;&gt;Node15</title>
<g id="a_edge15_Node000013_Node000015"><a xlink:title=" ">
<path fill="none" stroke="#63b8ff" d="M135.05,-219.99C110.36,-210.23 77.72,-197.33 53.95,-187.93"/>
<polygon fill="#63b8ff" stroke="#63b8ff" points="54.94,-184.56 44.36,-184.14 52.37,-191.07 54.94,-184.56"/>
</a>
</g>
</g>
<!-- Node16&#45;&gt;Node6 -->
<g id="edge22_Node000016_Node000006" class="edge">
<title>Node16&#45;&gt;Node6</title>
<g id="a_edge22_Node000016_Node000006"><a xlink:title=" ">
<path fill="none" stroke="#63b8ff" d="M676.76,-225.46C697.18,-217.61 724.9,-204.11 742.5,-184 766.85,-156.17 766.07,-109.88 763.31,-84.16"/>
<polygon fill="#63b8ff" stroke="#63b8ff" points="766.78,-83.7 762.03,-74.23 759.84,-84.59 766.78,-83.7"/>
</a>
</g>
</g>
<!-- Node16&#45;&gt;Node9 -->
<g id="edge19_Node000016_Node000009" class="edge">
<title>Node16&#45;&gt;Node9</title>
<g id="a_edge19_Node000016_Node000009"><a xlink:title=" ">
<path fill="none" stroke="#63b8ff" d="M680.2,-225.43C704.02,-217.48 737.35,-203.88 761.5,-184 807.78,-145.91 813.23,-127.87 839.5,-74 846.52,-59.6 851.53,-42.08 854.63,-29.1"/>
<polygon fill="#63b8ff" stroke="#63b8ff" points="858.11,-29.57 856.87,-19.04 851.28,-28.04 858.11,-29.57"/>
</a>
</g>
</g>
<!-- Node16&#45;&gt;Node12 -->
<g id="edge38_Node000016_Node000012" class="edge">
<title>Node16&#45;&gt;Node12</title>
<g id="a_edge38_Node000016_Node000012"><a xlink:title=" ">
<path fill="none" stroke="#63b8ff" d="M606.8,-230.66C552.99,-225.45 459.5,-212.83 384.5,-184 352.82,-171.82 320,-149.97 299.92,-135.35"/>
<polygon fill="#63b8ff" stroke="#63b8ff" points="301.75,-132.35 291.63,-129.2 297.58,-137.97 301.75,-132.35"/>
</a>
</g>
</g>
<!-- Node17 -->
<g id="Node000017" class="node">
<title>Node17</title>
<g id="a_Node000017"><a xlink:title=" ">
<polygon fill="#e0e0e0" stroke="#999999" points="754.5,-129 712.5,-129 712.5,-110 754.5,-110 754.5,-129"/>
<text text-anchor="middle" x="733.5" y="-117" font-family="Helvetica,sans-Serif" font-size="10.00">array</text>
</a>
</g>
</g>
<!-- Node16&#45;&gt;Node17 -->
<g id="edge18_Node000016_Node000017" class="edge">
<title>Node16&#45;&gt;Node17</title>
<g id="a_edge18_Node000016_Node000017"><a xlink:title=" ">
<path fill="none" stroke="#63b8ff" d="M672.42,-225.49C689.84,-217.51 713.23,-203.83 725.5,-184 733.81,-170.56 735.36,-152.46 735.09,-139.03"/>
<polygon fill="#63b8ff" stroke="#63b8ff" points="738.59,-138.83 734.55,-129.04 731.6,-139.21 738.59,-138.83"/>
</a>
</g>
</g>
<!-- Node18 -->
<g id="Node000018" class="node">
<title>Node18</title>
<g id="a_Node000018"><a xlink:href="atom_8h.html" target="_top" xlink:title=" ">
<polygon fill="white" stroke="#666666" points="656,-129 561,-129 561,-110 656,-110 656,-129"/>
<text text-anchor="middle" x="608.5" y="-117" font-family="Helvetica,sans-Serif" font-size="10.00">occ/core/atom.h</text>
</a>
</g>
</g>
<!-- Node16&#45;&gt;Node18 -->
<g id="edge20_Node000016_Node000018" class="edge">
<title>Node16&#45;&gt;Node18</title>
<g id="a_edge20_Node000016_Node000018"><a xlink:title=" ">
<path fill="none" stroke="#63b8ff" d="M626.83,-225.4C609.16,-217.57 586.28,-204.14 575.5,-184 566.86,-167.85 579.11,-149.25 591.06,-136.37"/>
<polygon fill="#63b8ff" stroke="#63b8ff" points="593.67,-138.71 598.27,-129.16 588.72,-133.76 593.67,-138.71"/>
</a>
</g>
</g>
<!-- Node19 -->
<g id="Node000019" class="node">
<title>Node19</title>
<g id="a_Node000019"><a xlink:href="point__charge_8h.html" target="_top" xlink:title=" ">
<polygon fill="white" stroke="#666666" points="716.5,-184 584.5,-184 584.5,-165 716.5,-165 716.5,-184"/>
<text text-anchor="middle" x="650.5" y="-172" font-family="Helvetica,sans-Serif" font-size="10.00">occ/core/point_charge.h</text>
</a>
</g>
</g>
<!-- Node16&#45;&gt;Node19 -->
<g id="edge23_Node000016_Node000019" class="edge">
<title>Node16&#45;&gt;Node19</title>
<g id="a_edge23_Node000016_Node000019"><a xlink:title=" ">
<path fill="none" stroke="#63b8ff" d="M650.5,-225.37C650.5,-217.25 650.5,-204.81 650.5,-194.39"/>
<polygon fill="#63b8ff" stroke="#63b8ff" points="654,-194.17 650.5,-184.17 647,-194.17 654,-194.17"/>
</a>
</g>
</g>
<!-- Node20 -->
<g id="Node000020" class="node">
<title>Node20</title>
<g id="a_Node000020"><a xlink:href="util_8h.html" target="_top" xlink:title=" ">
<polygon fill="white" stroke="#666666" points="1145,-184 1060,-184 1060,-165 1145,-165 1145,-184"/>
<text text-anchor="middle" x="1102.5" y="-172" font-family="Helvetica,sans-Serif" font-size="10.00">occ/core/util.h</text>
</a>
</g>
</g>
<!-- Node16&#45;&gt;Node20 -->
<g id="edge27_Node000016_Node000020" class="edge">
<title>Node16&#45;&gt;Node20</title>
<g id="a_edge27_Node000016_Node000020"><a xlink:title=" ">
<path fill="none" stroke="#63b8ff" d="M694.32,-226.71C708.41,-224.45 724.1,-222.03 738.5,-220 849.06,-204.45 978.97,-189.32 1049.83,-181.33"/>
<polygon fill="#63b8ff" stroke="#63b8ff" points="1050.3,-184.8 1059.84,-180.21 1049.52,-177.85 1050.3,-184.8"/>
</a>
</g>
</g>
<!-- Node18&#45;&gt;Node6 -->
<g id="edge21_Node000018_Node000006" class="edge">
<title>Node18&#45;&gt;Node6</title>
<g id="a_edge21_Node000018_Node000006"><a xlink:title=" ">
<path fill="none" stroke="#63b8ff" d="M632.92,-109.98C658.22,-101.16 697.95,-87.31 726.36,-77.41"/>
<polygon fill="#63b8ff" stroke="#63b8ff" points="727.6,-80.68 735.89,-74.08 725.29,-74.07 727.6,-80.68"/>
</a>
</g>
</g>
<!-- Node19&#45;&gt;Node6 -->
<g id="edge26_Node000019_Node000006" class="edge">
<title>Node19&#45;&gt;Node6</title>
<g id="a_edge26_Node000019_Node000006"><a xlink:title=" ">
<path fill="none" stroke="#63b8ff" d="M656.83,-164.79C666.27,-152.07 684.93,-127.98 703.5,-110 714.75,-99.11 728.56,-88.28 739.77,-80.02"/>
<polygon fill="#63b8ff" stroke="#63b8ff" points="742.04,-82.7 748.1,-74.01 737.95,-77.02 742.04,-82.7"/>
</a>
</g>
</g>
<!-- Node19&#45;&gt;Node17 -->
<g id="edge24_Node000019_Node000017" class="edge">
<title>Node19&#45;&gt;Node17</title>
<g id="a_edge24_Node000019_Node000017"><a xlink:title=" ">
<path fill="none" stroke="#63b8ff" d="M663.84,-164.98C676.59,-156.84 696.05,-144.41 711.17,-134.76"/>
<polygon fill="#63b8ff" stroke="#63b8ff" points="713.38,-137.5 719.92,-129.17 709.61,-131.6 713.38,-137.5"/>
</a>
</g>
</g>
<!-- Node19&#45;&gt;Node18 -->
<g id="edge25_Node000019_Node000018" class="edge">
<title>Node19&#45;&gt;Node18</title>
<g id="a_edge25_Node000019_Node000018"><a xlink:title=" ">
<path fill="none" stroke="#63b8ff" d="M643.56,-164.75C637.63,-157.26 628.93,-146.28 621.68,-137.13"/>
<polygon fill="#63b8ff" stroke="#63b8ff" points="624.26,-134.75 615.31,-129.09 618.77,-139.1 624.26,-134.75"/>
</a>
</g>
</g>
<!-- Node20&#45;&gt;Node6 -->
<g id="edge35_Node000020_Node000006" class="edge">
<title>Node20&#45;&gt;Node6</title>
<g id="a_edge35_Node000020_Node000006"><a xlink:title=" ">
<path fill="none" stroke="#63b8ff" d="M1059.65,-165.28C1021.41,-157.48 964.11,-144.64 915.5,-129 869.79,-114.3 818.56,-92.14 787.95,-78.26"/>
<polygon fill="#63b8ff" stroke="#63b8ff" points="789.31,-75.04 778.76,-74.07 786.41,-81.41 789.31,-75.04"/>
</a>
</g>
</g>
<!-- Node20&#45;&gt;Node9 -->
<g id="edge31_Node000020_Node000009" class="edge">
<title>Node20&#45;&gt;Node9</title>
<g id="a_edge31_Node000020_Node000009"><a xlink:title=" ">
<path fill="none" stroke="#63b8ff" d="M1145.26,-173.96C1222.23,-173.78 1379.29,-168.46 1413.5,-129 1419.03,-122.62 1418.92,-116.48 1413.5,-110 1348.1,-31.84 1021.94,-15 902.46,-11.44"/>
<polygon fill="#63b8ff" stroke="#63b8ff" points="902.31,-7.93 892.22,-11.15 902.11,-14.93 902.31,-7.93"/>
</a>
</g>
</g>
<!-- Node20&#45;&gt;Node11 -->
<g id="edge36_Node000020_Node000011" class="edge">
<title>Node20&#45;&gt;Node11</title>
<g id="a_edge36_Node000020_Node000011"><a xlink:title=" ">
<path fill="none" stroke="#63b8ff" d="M1098.61,-164.64C1091.8,-150.3 1076.24,-122.4 1053.5,-110 1031.98,-98.26 675.69,-74.64 565.02,-67.55"/>
<polygon fill="#63b8ff" stroke="#63b8ff" points="565.01,-64.05 554.81,-66.9 564.56,-71.03 565.01,-64.05"/>
</a>
</g>
</g>
<!-- Node20&#45;&gt;Node12 -->
<g id="edge37_Node000020_Node000012" class="edge">
<title>Node20&#45;&gt;Node12</title>
<g id="a_edge37_Node000020_Node000012"><a xlink:title=" ">
<path fill="none" stroke="#63b8ff" d="M1059.67,-171.86C944.82,-167.28 620.46,-153.05 351.5,-129 339.38,-127.92 326.14,-126.42 314.4,-124.98"/>
<polygon fill="#63b8ff" stroke="#63b8ff" points="314.49,-121.46 304.13,-123.69 313.62,-128.41 314.49,-121.46"/>
</a>
</g>
</g>
<!-- Node21 -->
<g id="Node000021" class="node">
<title>Node21</title>
<g id="a_Node000021"><a xlink:title=" ">
<polygon fill="#e0e0e0" stroke="#999999" points="1164.5,-129 1100.5,-129 1100.5,-110 1164.5,-110 1164.5,-129"/>
<text text-anchor="middle" x="1132.5" y="-117" font-family="Helvetica,sans-Serif" font-size="10.00">algorithm</text>
</a>
</g>
</g>
<!-- Node20&#45;&gt;Node21 -->
<g id="edge28_Node000020_Node000021" class="edge">
<title>Node20&#45;&gt;Node21</title>
<g id="a_edge28_Node000020_Node000021"><a xlink:title=" ">
<path fill="none" stroke="#63b8ff" d="M1107.45,-164.75C1111.56,-157.49 1117.53,-146.95 1122.6,-137.98"/>
<polygon fill="#63b8ff" stroke="#63b8ff" points="1125.76,-139.52 1127.64,-129.09 1119.67,-136.07 1125.76,-139.52"/>
</a>
</g>
</g>
<!-- Node22 -->
<g id="Node000022" class="node">
<title>Node22</title>
<g id="a_Node000022"><a xlink:title=" ">
<polygon fill="#e0e0e0" stroke="#999999" points="1232,-129 1183,-129 1183,-110 1232,-110 1232,-129"/>
<text text-anchor="middle" x="1207.5" y="-117" font-family="Helvetica,sans-Serif" font-size="10.00">cctype</text>
</a>
</g>
</g>
<!-- Node20&#45;&gt;Node22 -->
<g id="edge29_Node000020_Node000022" class="edge">
<title>Node20&#45;&gt;Node22</title>
<g id="a_edge29_Node000020_Node000022"><a xlink:title=" ">
<path fill="none" stroke="#63b8ff" d="M1119.37,-164.98C1136.11,-156.54 1162,-143.47 1181.39,-133.68"/>
<polygon fill="#63b8ff" stroke="#63b8ff" points="1182.97,-136.8 1190.32,-129.17 1179.82,-130.55 1182.97,-136.8"/>
</a>
</g>
</g>
<!-- Node23 -->
<g id="Node000023" class="node">
<title>Node23</title>
<g id="a_Node000023"><a xlink:title=" ">
<polygon fill="#e0e0e0" stroke="#999999" points="1300.5,-129 1250.5,-129 1250.5,-110 1300.5,-110 1300.5,-129"/>
<text text-anchor="middle" x="1275.5" y="-117" font-family="Helvetica,sans-Serif" font-size="10.00">chrono</text>
</a>
</g>
</g>
<!-- Node20&#45;&gt;Node23 -->
<g id="edge30_Node000020_Node000023" class="edge">
<title>Node20&#45;&gt;Node23</title>
<g id="a_edge30_Node000020_Node000023"><a xlink:title=" ">
<path fill="none" stroke="#63b8ff" d="M1130.3,-164.98C1160.2,-155.82 1207.84,-141.23 1240.33,-131.27"/>
<polygon fill="#63b8ff" stroke="#63b8ff" points="1241.77,-134.49 1250.31,-128.22 1239.72,-127.8 1241.77,-134.49"/>
</a>
</g>
</g>
<!-- Node24 -->
<g id="Node000024" class="node">
<title>Node24</title>
<g id="a_Node000024"><a xlink:title=" ">
<polygon fill="#e0e0e0" stroke="#999999" points="1404.5,-129 1318.5,-129 1318.5,-110 1404.5,-110 1404.5,-129"/>
<text text-anchor="middle" x="1361.5" y="-117" font-family="Helvetica,sans-Serif" font-size="10.00">fmt/ostream.h</text>
</a>
</g>
</g>
<!-- Node20&#45;&gt;Node24 -->
<g id="edge32_Node000020_Node000024" class="edge">
<title>Node20&#45;&gt;Node24</title>
<g id="a_edge32_Node000020_Node000024"><a xlink:title=" ">
<path fill="none" stroke="#63b8ff" d="M1144.11,-164.98C1189.1,-155.78 1260.89,-141.09 1309.55,-131.13"/>
<polygon fill="#63b8ff" stroke="#63b8ff" points="1310.47,-134.52 1319.56,-129.08 1309.06,-127.66 1310.47,-134.52"/>
</a>
</g>
</g>
<!-- Node25 -->
<g id="Node000025" class="node">
<title>Node25</title>
<g id="a_Node000025"><a xlink:title=" ">
<polygon fill="#e0e0e0" stroke="#999999" points="970.5,-129 924.5,-129 924.5,-110 970.5,-110 970.5,-129"/>
<text text-anchor="middle" x="947.5" y="-117" font-family="Helvetica,sans-Serif" font-size="10.00">locale</text>
</a>
</g>
</g>
<!-- Node20&#45;&gt;Node25 -->
<g id="edge33_Node000020_Node000025" class="edge">
<title>Node20&#45;&gt;Node25</title>
<g id="a_edge33_Node000020_Node000025"><a xlink:title=" ">
<path fill="none" stroke="#63b8ff" d="M1077.6,-164.98C1051.26,-155.98 1009.59,-141.73 980.53,-131.79"/>
<polygon fill="#63b8ff" stroke="#63b8ff" points="981.41,-128.4 970.82,-128.47 979.15,-135.02 981.41,-128.4"/>
</a>
</g>
</g>
<!-- Node26 -->
<g id="Node000026" class="node">
<title>Node26</title>
<g id="a_Node000026"><a xlink:title=" ">
<polygon fill="#e0e0e0" stroke="#999999" points="1044.5,-129 988.5,-129 988.5,-110 1044.5,-110 1044.5,-129"/>
<text text-anchor="middle" x="1016.5" y="-117" font-family="Helvetica,sans-Serif" font-size="10.00">numeric</text>
</a>
</g>
</g>
<!-- Node20&#45;&gt;Node26 -->
<g id="edge34_Node000020_Node000026" class="edge">
<title>Node20&#45;&gt;Node26</title>
<g id="a_edge34_Node000020_Node000026"><a xlink:title=" ">
<path fill="none" stroke="#63b8ff" d="M1088.68,-164.98C1075.35,-156.77 1054.92,-144.18 1039.19,-134.49"/>
<polygon fill="#63b8ff" stroke="#63b8ff" points="1040.92,-131.44 1030.57,-129.17 1037.25,-137.4 1040.92,-131.44"/>
</a>
</g>
</g>
<!-- Node28 -->
<g id="Node000028" class="node">
<title>Node28</title>
<g id="a_Node000028"><a xlink:href="orbital__smearing_8h.html" target="_top" xlink:title=" ">
<polygon fill="white" stroke="#666666" points="893.5,-244.5 747.5,-244.5 747.5,-225.5 893.5,-225.5 893.5,-244.5"/>
<text text-anchor="middle" x="820.5" y="-232.5" font-family="Helvetica,sans-Serif" font-size="10.00">occ/qm/orbital_smearing.h</text>
</a>
</g>
</g>
<!-- Node27&#45;&gt;Node28 -->
<g id="edge40_Node000027_Node000028" class="edge">
<title>Node27&#45;&gt;Node28</title>
<g id="a_edge40_Node000027_Node000028"><a xlink:title=" ">
<path fill="none" stroke="#63b8ff" d="M820.5,-285.87C820.5,-277.75 820.5,-265.31 820.5,-254.89"/>
<polygon fill="#63b8ff" stroke="#63b8ff" points="824,-254.67 820.5,-244.67 817,-254.67 824,-254.67"/>
</a>
</g>
</g>
<!-- Node29 -->
<g id="Node000029" class="node">
<title>Node29</title>
<g id="a_Node000029"><a xlink:href="spinorbital_8h.html" target="_top" xlink:title=" ">
<polygon fill="white" stroke="#666666" points="1490.5,-244.5 1374.5,-244.5 1374.5,-225.5 1490.5,-225.5 1490.5,-244.5"/>
<text text-anchor="middle" x="1432.5" y="-232.5" font-family="Helvetica,sans-Serif" font-size="10.00">occ/qm/spinorbital.h</text>
</a>
</g>
</g>
<!-- Node27&#45;&gt;Node29 -->
<g id="edge42_Node000027_Node000029" class="edge">
<title>Node27&#45;&gt;Node29</title>
<g id="a_edge42_Node000027_Node000029"><a xlink:title=" ">
<path fill="none" stroke="#63b8ff" d="M860.66,-290.66C963.31,-280.85 1236.26,-254.76 1364.34,-242.51"/>
<polygon fill="#63b8ff" stroke="#63b8ff" points="1364.8,-245.99 1374.42,-241.55 1364.14,-239.02 1364.8,-245.99"/>
</a>
</g>
</g>
<!-- Node28&#45;&gt;Node6 -->
<g id="edge41_Node000028_Node000006" class="edge">
<title>Node28&#45;&gt;Node6</title>
<g id="a_edge41_Node000028_Node000006"><a xlink:title=" ">
<path fill="none" stroke="#63b8ff" d="M820.26,-225.45C819.37,-204.68 815.29,-150.35 796.5,-110 791.64,-99.57 783.82,-89.47 776.7,-81.54"/>
<polygon fill="#63b8ff" stroke="#63b8ff" points="779.11,-78.99 769.69,-74.13 774.02,-83.8 779.11,-78.99"/>
</a>
</g>
</g>
<!-- Node29&#45;&gt;Node6 -->
<g id="edge43_Node000029_Node000006" class="edge">
<title>Node29&#45;&gt;Node6</title>
<g id="a_edge43_Node000029_Node000006"><a xlink:title=" ">
<path fill="none" stroke="#63b8ff" d="M1434.33,-225.46C1438.63,-202.75 1446.69,-140.51 1413.5,-110 1372.15,-71.98 1005.09,-66.15 840.15,-65.46"/>
<polygon fill="#63b8ff" stroke="#63b8ff" points="840.08,-61.96 830.06,-65.42 840.05,-68.96 840.08,-61.96"/>
</a>
</g>
</g>
<!-- Node29&#45;&gt;Node20 -->
<g id="edge44_Node000029_Node000020" class="edge">
<title>Node29&#45;&gt;Node20</title>
<g id="a_edge44_Node000029_Node000020"><a xlink:title=" ">
<path fill="none" stroke="#63b8ff" d="M1384.52,-225.49C1323.47,-214.67 1218.4,-196.05 1155.19,-184.84"/>
<polygon fill="#63b8ff" stroke="#63b8ff" points="1155.49,-181.34 1145.04,-183.04 1154.27,-188.23 1155.49,-181.34"/>
</a>
</g>
</g>
<!-- Node30 -->
<g id="Node000030" class="node">
<title>Node30</title>
<g id="a_Node000030"><a xlink:href="qm_2opmatrix_8h.html" target="_top" xlink:title=" ">
<polygon fill="white" stroke="#666666" points="1568.5,-184 1460.5,-184 1460.5,-165 1568.5,-165 1568.5,-184"/>
<text text-anchor="middle" x="1514.5" y="-172" font-family="Helvetica,sans-Serif" font-size="10.00">occ/qm/opmatrix.h</text>
</a>
</g>
</g>
<!-- Node29&#45;&gt;Node30 -->
<g id="edge45_Node000029_Node000030" class="edge">
<title>Node29&#45;&gt;Node30</title>
<g id="a_edge45_Node000029_Node000030"><a xlink:title=" ">
<path fill="none" stroke="#63b8ff" d="M1439.64,-225.37C1450.81,-215.95 1471.84,-200.73 1488.9,-189.58"/>
<polygon fill="#63b8ff" stroke="#63b8ff" points="1490.84,-192.49 1497.39,-184.17 1487.07,-186.59 1490.84,-192.49"/>
</a>
</g>
</g>
<!-- Node30&#45;&gt;Node29 -->
<g id="edge46_Node000030_Node000029" class="edge">
<title>Node30&#45;&gt;Node29</title>
<g id="a_edge46_Node000030_Node000029"><a xlink:title=" ">
<path fill="none" stroke="#63b8ff" d="M1507.31,-184.17C1496.12,-193.6 1475.08,-208.82 1458.03,-219.97"/>
<polygon fill="#63b8ff" stroke="#63b8ff" points="1456.11,-217.04 1449.55,-225.37 1459.87,-222.95 1456.11,-217.04"/>
</a>
</g>
</g>
<!-- Node31&#45;&gt;Node6 -->
<g id="edge51_Node000031_Node000006" class="edge">
<title>Node31&#45;&gt;Node6</title>
<g id="a_edge51_Node000031_Node000006"><a xlink:title=" ">
<path fill="none" stroke="#63b8ff" d="M417.45,-164.92C378.1,-154.9 327.92,-136.29 351.5,-110 373.04,-85.99 567.76,-73.71 680.59,-68.56"/>
<polygon fill="#63b8ff" stroke="#63b8ff" points="681.07,-72.04 690.9,-68.1 680.76,-65.05 681.07,-72.04"/>
</a>
</g>
</g>
<!-- Node31&#45;&gt;Node11 -->
<g id="edge52_Node000031_Node000011" class="edge">
<title>Node31&#45;&gt;Node11</title>
<g id="a_edge52_Node000031_Node000011"><a xlink:title=" ">
<path fill="none" stroke="#63b8ff" d="M473.37,-164.7C485.52,-156.79 502.31,-144.11 512.5,-129 521.59,-115.52 526.73,-97.69 529.51,-84.36"/>
<polygon fill="#63b8ff" stroke="#63b8ff" points="532.98,-84.87 531.33,-74.41 526.09,-83.61 532.98,-84.87"/>
</a>
</g>
</g>
<!-- Node31&#45;&gt;Node12 -->
<g id="edge53_Node000031_Node000012" class="edge">
<title>Node31&#45;&gt;Node12</title>
<g id="a_edge53_Node000031_Node000012"><a xlink:title=" ">
<path fill="none" stroke="#63b8ff" d="M429.9,-164.98C398.28,-155.57 347.41,-140.42 313.97,-130.46"/>
<polygon fill="#63b8ff" stroke="#63b8ff" points="314.77,-127.05 304.19,-127.55 312.77,-133.76 314.77,-127.05"/>
</a>
</g>
</g>
<!-- Node31&#45;&gt;Node18 -->
<g id="edge50_Node000031_Node000018" class="edge">
<title>Node31&#45;&gt;Node18</title>
<g id="a_edge50_Node000031_Node000018"><a xlink:title=" ">
<path fill="none" stroke="#63b8ff" d="M482.6,-164.98C507.38,-156.23 546.2,-142.51 574.19,-132.62"/>
<polygon fill="#63b8ff" stroke="#63b8ff" points="575.7,-135.8 583.96,-129.17 573.37,-129.2 575.7,-135.8"/>
</a>
</g>
</g>
<!-- Node32 -->
<g id="Node000032" class="node">
<title>Node32</title>
<g id="a_Node000032"><a xlink:title=" ">
<polygon fill="#e0e0e0" stroke="#999999" points="504,-129 361,-129 361,-110 504,-110 504,-129"/>
<text text-anchor="middle" x="432.5" y="-117" font-family="Helvetica,sans-Serif" font-size="10.00">ankerl/unordered_dense.h</text>
</a>
</g>
</g>
<!-- Node31&#45;&gt;Node32 -->
<g id="edge49_Node000031_Node000032" class="edge">
<title>Node31&#45;&gt;Node32</title>
<g id="a_edge49_Node000031_Node000032"><a xlink:title=" ">
<path fill="none" stroke="#63b8ff" d="M454.21,-164.75C450.69,-157.57 445.59,-147.18 441.22,-138.27"/>
<polygon fill="#63b8ff" stroke="#63b8ff" points="444.26,-136.53 436.71,-129.09 437.98,-139.61 444.26,-136.53"/>
</a>
</g>
</g>
</g>
</svg>
