<?xml version="1.0" encoding="UTF-8" standalone="no"?>
<!DOCTYPE svg PUBLIC "-//W3C//DTD SVG 1.1//EN"
 "http://www.w3.org/Graphics/SVG/1.1/DTD/svg11.dtd">
<!-- Generated by graphviz version 2.43.0 (0)
 -->
<!-- Title: /home/runner/work/occ/occ/include/occ/xdm/xdm.h Pages: 1 -->
<svg width="1442pt" height="412pt"
 viewBox="0.00 0.00 1442.00 412.00" xmlns="http://www.w3.org/2000/svg" xmlns:xlink="http://www.w3.org/1999/xlink">
<g id="graph0" class="graph" transform="scale(1 1) rotate(0) translate(4 408)">
<title>/home/runner/work/occ/occ/include/occ/xdm/xdm.h</title>
<!-- Node1 -->
<g id="Node000001" class="node">
<title>Node1</title>
<g id="a_Node000001"><a xlink:title=" ">
<polygon fill="#999999" stroke="#666666" points="750,-404 598,-404 598,-374 750,-374 750,-404"/>
<text text-anchor="start" x="606" y="-392" font-family="Helvetica,sans-Serif" font-size="10.00">/home/runner/work/occ</text>
<text text-anchor="middle" x="674" y="-381" font-family="Helvetica,sans-Serif" font-size="10.00">/occ/include/occ/xdm/xdm.h</text>
</a>
</g>
</g>
<!-- Node2 -->
<g id="Node000002" class="node">
<title>Node2</title>
<g id="a_Node000002"><a xlink:href="numint_2molecular__grid_8h.html" target="_top" xlink:title=" ">
<polygon fill="white" stroke="#666666" points="542,-338 420,-338 420,-308 542,-308 542,-338"/>
<text text-anchor="start" x="428" y="-326" font-family="Helvetica,sans-Serif" font-size="10.00">occ/numint/molecular</text>
<text text-anchor="middle" x="481" y="-315" font-family="Helvetica,sans-Serif" font-size="10.00">_grid.h</text>
</a>
</g>
</g>
<!-- Node1&#45;&gt;Node2 -->
<g id="edge1_Node000001_Node000002" class="edge">
<title>Node1&#45;&gt;Node2</title>
<g id="a_edge1_Node000001_Node000002"><a xlink:title=" ">
<path fill="none" stroke="#63b8ff" d="M631.65,-373.95C602.61,-364.33 563.9,-351.49 532.99,-341.24"/>
<polygon fill="#63b8ff" stroke="#63b8ff" points="533.85,-337.84 523.26,-338.01 531.65,-344.48 533.85,-337.84"/>
</a>
</g>
</g>
<!-- Node13 -->
<g id="Node000013" class="node">
<title>Node13</title>
<g id="a_Node000013"><a xlink:title=" ">
<polygon fill="#e0e0e0" stroke="#999999" points="272.5,-74 225.5,-74 225.5,-55 272.5,-55 272.5,-74"/>
<text text-anchor="middle" x="249" y="-62" font-family="Helvetica,sans-Serif" font-size="10.00">vector</text>
</a>
</g>
</g>
<!-- Node1&#45;&gt;Node13 -->
<g id="edge58_Node000001_Node000013" class="edge">
<title>Node1&#45;&gt;Node13</title>
<g id="a_edge58_Node000001_Node000013"><a xlink:title=" ">
<path fill="none" stroke="#63b8ff" d="M597.99,-381.24C421.73,-364.56 0,-318.33 0,-258 0,-258 0,-258 0,-190 0,-95.03 146.69,-72.5 214.89,-67.16"/>
<polygon fill="#63b8ff" stroke="#63b8ff" points="215.39,-70.63 225.12,-66.44 214.9,-63.65 215.39,-70.63"/>
</a>
</g>
</g>
<!-- Node20 -->
<g id="Node000020" class="node">
<title>Node20</title>
<g id="a_Node000020"><a xlink:href="shell_8h.html" target="_top" xlink:title=" ">
<polygon fill="white" stroke="#666666" points="917.5,-266.5 830.5,-266.5 830.5,-247.5 917.5,-247.5 917.5,-266.5"/>
<text text-anchor="middle" x="874" y="-254.5" font-family="Helvetica,sans-Serif" font-size="10.00">occ/gto/shell.h</text>
</a>
</g>
</g>
<!-- Node1&#45;&gt;Node20 -->
<g id="edge52_Node000001_Node000020" class="edge">
<title>Node1&#45;&gt;Node20</title>
<g id="a_edge52_Node000001_Node000020"><a xlink:title=" ">
<path fill="none" stroke="#63b8ff" d="M695.78,-373.84C734.21,-348.86 813.61,-297.25 852.11,-272.23"/>
<polygon fill="#63b8ff" stroke="#63b8ff" points="854.06,-275.13 860.54,-266.75 850.25,-269.26 854.06,-275.13"/>
</a>
</g>
</g>
<!-- Node29 -->
<g id="Node000029" class="node">
<title>Node29</title>
<g id="a_Node000029"><a xlink:href="mo_8h.html" target="_top" xlink:title=" ">
<polygon fill="white" stroke="#666666" points="968,-332.5 888,-332.5 888,-313.5 968,-313.5 968,-332.5"/>
<text text-anchor="middle" x="928" y="-320.5" font-family="Helvetica,sans-Serif" font-size="10.00">occ/qm/mo.h</text>
</a>
</g>
</g>
<!-- Node1&#45;&gt;Node29 -->
<g id="edge43_Node000001_Node000029" class="edge">
<title>Node1&#45;&gt;Node29</title>
<g id="a_edge43_Node000001_Node000029"><a xlink:title=" ">
<path fill="none" stroke="#63b8ff" d="M729.74,-373.95C776.25,-362.24 841.61,-345.77 884.37,-334.99"/>
<polygon fill="#63b8ff" stroke="#63b8ff" points="885.36,-338.35 894.2,-332.52 883.64,-331.57 885.36,-338.35"/>
</a>
</g>
</g>
<!-- Node33 -->
<g id="Node000033" class="node">
<title>Node33</title>
<g id="a_Node000033"><a xlink:href="slaterbasis_8h.html" target="_top" xlink:title=" ">
<polygon fill="white" stroke="#666666" points="738.5,-200.5 609.5,-200.5 609.5,-181.5 738.5,-181.5 738.5,-200.5"/>
<text text-anchor="middle" x="674" y="-188.5" font-family="Helvetica,sans-Serif" font-size="10.00">occ/slater/slaterbasis.h</text>
</a>
</g>
</g>
<!-- Node1&#45;&gt;Node33 -->
<g id="edge53_Node000001_Node000033" class="edge">
<title>Node1&#45;&gt;Node33</title>
<g id="a_edge53_Node000001_Node000033"><a xlink:title=" ">
<path fill="none" stroke="#63b8ff" d="M674,-373.9C674,-339.31 674,-250.17 674,-210.97"/>
<polygon fill="#63b8ff" stroke="#63b8ff" points="677.5,-210.73 674,-200.73 670.5,-210.73 677.5,-210.73"/>
</a>
</g>
</g>
<!-- Node3 -->
<g id="Node000003" class="node">
<title>Node3</title>
<g id="a_Node000003"><a xlink:title=" ">
<polygon fill="#e0e0e0" stroke="#999999" points="215,-266.5 157,-266.5 157,-247.5 215,-247.5 215,-266.5"/>
<text text-anchor="middle" x="186" y="-254.5" font-family="Helvetica,sans-Serif" font-size="10.00">memory</text>
</a>
</g>
</g>
<!-- Node2&#45;&gt;Node3 -->
<g id="edge2_Node000002_Node000003" class="edge">
<title>Node2&#45;&gt;Node3</title>
<g id="a_edge2_Node000002_Node000003"><a xlink:title=" ">
<path fill="none" stroke="#63b8ff" d="M419.86,-312.95C367.38,-304.51 289.99,-290.45 224,-272 221.71,-271.36 219.37,-270.65 217.03,-269.89"/>
<polygon fill="#63b8ff" stroke="#63b8ff" points="218.1,-266.56 207.51,-266.61 215.82,-273.18 218.1,-266.56"/>
</a>
</g>
</g>
<!-- Node4 -->
<g id="Node000004" class="node">
<title>Node4</title>
<g id="a_Node000004"><a xlink:href="numint_2grid__types_8h.html" target="_top" xlink:title=" ">
<polygon fill="white" stroke="#666666" points="548,-200.5 414,-200.5 414,-181.5 548,-181.5 548,-200.5"/>
<text text-anchor="middle" x="481" y="-188.5" font-family="Helvetica,sans-Serif" font-size="10.00">occ/numint/grid_types.h</text>
</a>
</g>
</g>
<!-- Node2&#45;&gt;Node4 -->
<g id="edge3_Node000002_Node000004" class="edge">
<title>Node2&#45;&gt;Node4</title>
<g id="a_edge3_Node000002_Node000004"><a xlink:title=" ">
<path fill="none" stroke="#63b8ff" d="M481,-307.84C481,-284.34 481,-237.26 481,-210.93"/>
<polygon fill="#63b8ff" stroke="#63b8ff" points="484.5,-210.75 481,-200.75 477.5,-210.75 484.5,-210.75"/>
</a>
</g>
</g>
<!-- Node14 -->
<g id="Node000014" class="node">
<title>Node14</title>
<g id="a_Node000014"><a xlink:href="numint_2molecular__grid__points_8h.html" target="_top" xlink:title=" ">
<polygon fill="white" stroke="#666666" points="355,-272 233,-272 233,-242 355,-242 355,-272"/>
<text text-anchor="start" x="241" y="-260" font-family="Helvetica,sans-Serif" font-size="10.00">occ/numint/molecular</text>
<text text-anchor="middle" x="294" y="-249" font-family="Helvetica,sans-Serif" font-size="10.00">_grid_points.h</text>
</a>
</g>
</g>
<!-- Node2&#45;&gt;Node14 -->
<g id="edge13_Node000002_Node000014" class="edge">
<title>Node2&#45;&gt;Node14</title>
<g id="a_edge13_Node000002_Node000014"><a xlink:title=" ">
<path fill="none" stroke="#63b8ff" d="M439.96,-307.95C411.95,-298.37 374.65,-285.6 344.77,-275.37"/>
<polygon fill="#63b8ff" stroke="#63b8ff" points="345.54,-271.94 334.94,-272.01 343.27,-278.56 345.54,-271.94"/>
</a>
</g>
</g>
<!-- Node2&#45;&gt;Node20 -->
<g id="edge23_Node000002_Node000020" class="edge">
<title>Node2&#45;&gt;Node20</title>
<g id="a_edge23_Node000002_Node000020"><a xlink:title=" ">
<path fill="none" stroke="#63b8ff" d="M542.41,-312C618.64,-299.59 747.46,-278.61 820.06,-266.78"/>
<polygon fill="#63b8ff" stroke="#63b8ff" points="821.04,-270.17 830.35,-265.11 819.91,-263.26 821.04,-270.17"/>
</a>
</g>
</g>
<!-- Node5 -->
<g id="Node000005" class="node">
<title>Node5</title>
<g id="a_Node000005"><a xlink:title=" ">
<polygon fill="#e0e0e0" stroke="#999999" points="327,-134.5 277,-134.5 277,-115.5 327,-115.5 327,-134.5"/>
<text text-anchor="middle" x="302" y="-122.5" font-family="Helvetica,sans-Serif" font-size="10.00">cstdint</text>
</a>
</g>
</g>
<!-- Node4&#45;&gt;Node5 -->
<g id="edge4_Node000004_Node000005" class="edge">
<title>Node4&#45;&gt;Node5</title>
<g id="a_edge4_Node000004_Node000005"><a xlink:title=" ">
<path fill="none" stroke="#63b8ff" d="M456.97,-181.43C429.07,-171.48 381.7,-154.57 341,-140 339.17,-139.35 337.29,-138.67 335.4,-137.99"/>
<polygon fill="#63b8ff" stroke="#63b8ff" points="336.52,-134.68 325.92,-134.59 334.15,-141.27 336.52,-134.68"/>
</a>
</g>
</g>
<!-- Node6 -->
<g id="Node000006" class="node">
<title>Node6</title>
<g id="a_Node000006"><a xlink:href="linear__algebra_8h.html" target="_top" xlink:title=" ">
<polygon fill="white" stroke="#666666" points="943.5,-74 804.5,-74 804.5,-55 943.5,-55 943.5,-74"/>
<text text-anchor="middle" x="874" y="-62" font-family="Helvetica,sans-Serif" font-size="10.00">occ/core/linear_algebra.h</text>
</a>
</g>
</g>
<!-- Node4&#45;&gt;Node6 -->
<g id="edge5_Node000004_Node000006" class="edge">
<title>Node4&#45;&gt;Node6</title>
<g id="a_edge5_Node000004_Node000006"><a xlink:title=" ">
<path fill="none" stroke="#63b8ff" d="M493.15,-181.48C517.27,-164.97 573.43,-128.65 626,-110 657.97,-98.66 742.25,-84.72 803.71,-75.5"/>
<polygon fill="#63b8ff" stroke="#63b8ff" points="804.37,-78.94 813.75,-74.01 803.34,-72.02 804.37,-78.94"/>
</a>
</g>
</g>
<!-- Node10 -->
<g id="Node000010" class="node">
<title>Node10</title>
<g id="a_Node000010"><a xlink:href="grid__settings_8h.html" target="_top" xlink:title=" ">
<polygon fill="white" stroke="#666666" points="541,-134.5 421,-134.5 421,-115.5 541,-115.5 541,-134.5"/>
<text text-anchor="middle" x="481" y="-122.5" font-family="Helvetica,sans-Serif" font-size="10.00">occ/io/grid_settings.h</text>
</a>
</g>
</g>
<!-- Node4&#45;&gt;Node10 -->
<g id="edge9_Node000004_Node000010" class="edge">
<title>Node4&#45;&gt;Node10</title>
<g id="a_edge9_Node000004_Node000010"><a xlink:title=" ">
<path fill="none" stroke="#63b8ff" d="M481,-181.37C481,-172.16 481,-157.29 481,-145.27"/>
<polygon fill="#63b8ff" stroke="#63b8ff" points="484.5,-144.91 481,-134.91 477.5,-144.91 484.5,-144.91"/>
</a>
</g>
</g>
<!-- Node4&#45;&gt;Node13 -->
<g id="edge12_Node000004_Node000013" class="edge">
<title>Node4&#45;&gt;Node13</title>
<g id="a_edge12_Node000004_Node000013"><a xlink:title=" ">
<path fill="none" stroke="#63b8ff" d="M433.07,-181.46C373.96,-170.51 279.79,-151.57 268,-140 253.29,-125.57 249.41,-101.45 248.65,-84.58"/>
<polygon fill="#63b8ff" stroke="#63b8ff" points="252.15,-84.22 248.53,-74.26 245.15,-84.3 252.15,-84.22"/>
</a>
</g>
</g>
<!-- Node7 -->
<g id="Node000007" class="node">
<title>Node7</title>
<g id="a_Node000007"><a xlink:title=" ">
<polygon fill="#e0e0e0" stroke="#999999" points="809.5,-19 732.5,-19 732.5,0 809.5,0 809.5,-19"/>
<text text-anchor="middle" x="771" y="-7" font-family="Helvetica,sans-Serif" font-size="10.00">Eigen/Dense</text>
</a>
</g>
</g>
<!-- Node6&#45;&gt;Node7 -->
<g id="edge6_Node000006_Node000007" class="edge">
<title>Node6&#45;&gt;Node7</title>
<g id="a_edge6_Node000006_Node000007"><a xlink:title=" ">
<path fill="none" stroke="#63b8ff" d="M857.45,-54.98C841.11,-46.57 815.87,-33.59 796.87,-23.81"/>
<polygon fill="#63b8ff" stroke="#63b8ff" points="798.34,-20.63 787.85,-19.17 795.14,-26.86 798.34,-20.63"/>
</a>
</g>
</g>
<!-- Node8 -->
<g id="Node000008" class="node">
<title>Node8</title>
<g id="a_Node000008"><a xlink:title=" ">
<polygon fill="#e0e0e0" stroke="#999999" points="920.5,-19 827.5,-19 827.5,0 920.5,0 920.5,-19"/>
<text text-anchor="middle" x="874" y="-7" font-family="Helvetica,sans-Serif" font-size="10.00">Eigen/StdVector</text>
</a>
</g>
</g>
<!-- Node6&#45;&gt;Node8 -->
<g id="edge7_Node000006_Node000008" class="edge">
<title>Node6&#45;&gt;Node8</title>
<g id="a_edge7_Node000006_Node000008"><a xlink:title=" ">
<path fill="none" stroke="#63b8ff" d="M874,-54.75C874,-47.8 874,-37.85 874,-29.13"/>
<polygon fill="#63b8ff" stroke="#63b8ff" points="877.5,-29.09 874,-19.09 870.5,-29.09 877.5,-29.09"/>
</a>
</g>
</g>
<!-- Node9 -->
<g id="Node000009" class="node">
<title>Node9</title>
<g id="a_Node000009"><a xlink:title=" ">
<polygon fill="#e0e0e0" stroke="#999999" points="1005.5,-19 938.5,-19 938.5,0 1005.5,0 1005.5,-19"/>
<text text-anchor="middle" x="972" y="-7" font-family="Helvetica,sans-Serif" font-size="10.00">fmt/core.h</text>
</a>
</g>
</g>
<!-- Node6&#45;&gt;Node9 -->
<g id="edge8_Node000006_Node000009" class="edge">
<title>Node6&#45;&gt;Node9</title>
<g id="a_edge8_Node000006_Node000009"><a xlink:title=" ">
<path fill="none" stroke="#63b8ff" d="M889.75,-54.98C905.23,-46.61 929.09,-33.7 947.14,-23.95"/>
<polygon fill="#63b8ff" stroke="#63b8ff" points="948.84,-27.01 955.97,-19.17 945.51,-20.85 948.84,-27.01"/>
</a>
</g>
</g>
<!-- Node11 -->
<g id="Node000011" class="node">
<title>Node11</title>
<g id="a_Node000011"><a xlink:title=" ">
<polygon fill="#e0e0e0" stroke="#999999" points="786,-74 744,-74 744,-55 786,-55 786,-74"/>
<text text-anchor="middle" x="765" y="-62" font-family="Helvetica,sans-Serif" font-size="10.00">array</text>
</a>
</g>
</g>
<!-- Node10&#45;&gt;Node11 -->
<g id="edge10_Node000010_Node000011" class="edge">
<title>Node10&#45;&gt;Node11</title>
<g id="a_edge10_Node000010_Node000011"><a xlink:title=" ">
<path fill="none" stroke="#63b8ff" d="M522.3,-115.49C579.72,-103.66 682.42,-82.51 733.85,-71.92"/>
<polygon fill="#63b8ff" stroke="#63b8ff" points="734.63,-75.33 743.72,-69.88 733.22,-68.47 734.63,-75.33"/>
</a>
</g>
</g>
<!-- Node12 -->
<g id="Node000012" class="node">
<title>Node12</title>
<g id="a_Node000012"><a xlink:title=" ">
<polygon fill="#e0e0e0" stroke="#999999" points="591,-74 547,-74 547,-55 591,-55 591,-74"/>
<text text-anchor="middle" x="569" y="-62" font-family="Helvetica,sans-Serif" font-size="10.00">string</text>
</a>
</g>
</g>
<!-- Node10&#45;&gt;Node12 -->
<g id="edge11_Node000010_Node000012" class="edge">
<title>Node10&#45;&gt;Node12</title>
<g id="a_edge11_Node000010_Node000012"><a xlink:title=" ">
<path fill="none" stroke="#63b8ff" d="M493.98,-115.37C508.02,-106.04 530.63,-91.01 547.36,-79.88"/>
<polygon fill="#63b8ff" stroke="#63b8ff" points="549.57,-82.62 555.96,-74.17 545.7,-76.79 549.57,-82.62"/>
</a>
</g>
</g>
<!-- Node14&#45;&gt;Node4 -->
<g id="edge14_Node000014_Node000004" class="edge">
<title>Node14&#45;&gt;Node4</title>
<g id="a_edge14_Node000014_Node000004"><a xlink:title=" ">
<path fill="none" stroke="#63b8ff" d="M335.04,-241.95C368.41,-230.53 414.97,-214.6 446.46,-203.82"/>
<polygon fill="#63b8ff" stroke="#63b8ff" points="447.79,-207.07 456.11,-200.52 445.52,-200.44 447.79,-207.07"/>
</a>
</g>
</g>
<!-- Node14&#45;&gt;Node13 -->
<g id="edge22_Node000014_Node000013" class="edge">
<title>Node14&#45;&gt;Node13</title>
<g id="a_edge22_Node000014_Node000013"><a xlink:title=" ">
<path fill="none" stroke="#63b8ff" d="M232.82,-243.58C163.07,-229.34 58.41,-207.74 57,-206 28.91,-171.36 90.85,-116.84 100,-110 134.1,-84.52 182.72,-73.54 215.03,-68.87"/>
<polygon fill="#63b8ff" stroke="#63b8ff" points="215.87,-72.29 225.32,-67.52 214.95,-65.35 215.87,-72.29"/>
</a>
</g>
</g>
<!-- Node15 -->
<g id="Node000015" class="node">
<title>Node15</title>
<g id="a_Node000015"><a xlink:href="dft_2spatial__grid__hierarchy_8h.html" target="_top" xlink:title=" ">
<polygon fill="white" stroke="#666666" points="395.5,-206 286.5,-206 286.5,-176 395.5,-176 395.5,-206"/>
<text text-anchor="start" x="294.5" y="-194" font-family="Helvetica,sans-Serif" font-size="10.00">occ/dft/spatial_grid</text>
<text text-anchor="middle" x="341" y="-183" font-family="Helvetica,sans-Serif" font-size="10.00">_hierarchy.h</text>
</a>
</g>
</g>
<!-- Node14&#45;&gt;Node15 -->
<g id="edge15_Node000014_Node000015" class="edge">
<title>Node14&#45;&gt;Node15</title>
<g id="a_edge15_Node000014_Node000015"><a xlink:title=" ">
<path fill="none" stroke="#63b8ff" d="M304.43,-241.8C310.33,-233.76 317.85,-223.53 324.53,-214.43"/>
<polygon fill="#63b8ff" stroke="#63b8ff" points="327.5,-216.3 330.6,-206.16 321.86,-212.15 327.5,-216.3"/>
</a>
</g>
</g>
<!-- Node17 -->
<g id="Node000017" class="node">
<title>Node17</title>
<g id="a_Node000017"><a xlink:title=" ">
<polygon fill="#e0e0e0" stroke="#999999" points="122,-200.5 66,-200.5 66,-181.5 122,-181.5 122,-200.5"/>
<text text-anchor="middle" x="94" y="-188.5" font-family="Helvetica,sans-Serif" font-size="10.00">optional</text>
</a>
</g>
</g>
<!-- Node14&#45;&gt;Node17 -->
<g id="edge19_Node000014_Node000017" class="edge">
<title>Node14&#45;&gt;Node17</title>
<g id="a_edge19_Node000014_Node000017"><a xlink:title=" ">
<path fill="none" stroke="#63b8ff" d="M245.24,-241.93C212.71,-232.33 169.09,-219.03 131,-206 129.15,-205.37 127.25,-204.7 125.34,-204.02"/>
<polygon fill="#63b8ff" stroke="#63b8ff" points="126.42,-200.69 115.83,-200.52 124.01,-207.26 126.42,-200.69"/>
</a>
</g>
</g>
<!-- Node18 -->
<g id="Node000018" class="node">
<title>Node18</title>
<g id="a_Node000018"><a xlink:title=" ">
<polygon fill="#e0e0e0" stroke="#999999" points="205.5,-200.5 140.5,-200.5 140.5,-181.5 205.5,-181.5 205.5,-200.5"/>
<text text-anchor="middle" x="173" y="-188.5" font-family="Helvetica,sans-Serif" font-size="10.00">stdexcept</text>
</a>
</g>
</g>
<!-- Node14&#45;&gt;Node18 -->
<g id="edge20_Node000014_Node000018" class="edge">
<title>Node14&#45;&gt;Node18</title>
<g id="a_edge20_Node000014_Node000018"><a xlink:title=" ">
<path fill="none" stroke="#63b8ff" d="M267.45,-241.95C246.79,-231.03 218.32,-215.97 198.05,-205.25"/>
<polygon fill="#63b8ff" stroke="#63b8ff" points="199.58,-202.1 189.1,-200.52 196.31,-208.29 199.58,-202.1"/>
</a>
</g>
</g>
<!-- Node19 -->
<g id="Node000019" class="node">
<title>Node19</title>
<g id="a_Node000019"><a xlink:title=" ">
<polygon fill="#e0e0e0" stroke="#999999" points="268.5,-200.5 223.5,-200.5 223.5,-181.5 268.5,-181.5 268.5,-200.5"/>
<text text-anchor="middle" x="246" y="-188.5" font-family="Helvetica,sans-Serif" font-size="10.00">utility</text>
</a>
</g>
</g>
<!-- Node14&#45;&gt;Node19 -->
<g id="edge21_Node000014_Node000019" class="edge">
<title>Node14&#45;&gt;Node19</title>
<g id="a_edge21_Node000014_Node000019"><a xlink:title=" ">
<path fill="none" stroke="#63b8ff" d="M283.35,-241.8C276.08,-232.11 266.43,-219.24 258.76,-209.01"/>
<polygon fill="#63b8ff" stroke="#63b8ff" points="261.43,-206.74 252.63,-200.84 255.83,-210.94 261.43,-206.74"/>
</a>
</g>
</g>
<!-- Node16 -->
<g id="Node000016" class="node">
<title>Node16</title>
<g id="a_Node000016"><a xlink:href="qm_2spatial__grid__hierarchy_8h.html" target="_top" xlink:title=" ">
<polygon fill="white" stroke="#666666" points="221,-140 109,-140 109,-110 221,-110 221,-140"/>
<text text-anchor="start" x="117" y="-128" font-family="Helvetica,sans-Serif" font-size="10.00">occ/qm/spatial_grid</text>
<text text-anchor="middle" x="165" y="-117" font-family="Helvetica,sans-Serif" font-size="10.00">_hierarchy.h</text>
</a>
</g>
</g>
<!-- Node15&#45;&gt;Node16 -->
<g id="edge16_Node000015_Node000016" class="edge">
<title>Node15&#45;&gt;Node16</title>
<g id="a_edge16_Node000015_Node000016"><a xlink:title=" ">
<path fill="none" stroke="#63b8ff" d="M302.38,-175.95C276.13,-166.41 241.21,-153.71 213.15,-143.51"/>
<polygon fill="#63b8ff" stroke="#63b8ff" points="214.13,-140.14 203.53,-140.01 211.74,-146.72 214.13,-140.14"/>
</a>
</g>
</g>
<!-- Node16&#45;&gt;Node6 -->
<g id="edge17_Node000016_Node000006" class="edge">
<title>Node16&#45;&gt;Node6</title>
<g id="a_edge17_Node000016_Node000006"><a xlink:title=" ">
<path fill="none" stroke="#63b8ff" d="M221.05,-115.69C236.26,-113.62 252.74,-111.56 268,-110 498.25,-86.51 559.41,-94.33 794.01,-74.05"/>
<polygon fill="#63b8ff" stroke="#63b8ff" points="794.57,-77.51 804.23,-73.16 793.96,-70.54 794.57,-77.51"/>
</a>
</g>
</g>
<!-- Node16&#45;&gt;Node13 -->
<g id="edge18_Node000016_Node000013" class="edge">
<title>Node16&#45;&gt;Node13</title>
<g id="a_edge18_Node000016_Node000013"><a xlink:title=" ">
<path fill="none" stroke="#63b8ff" d="M185.33,-109.84C198.27,-100.83 214.99,-89.18 228.05,-80.09"/>
<polygon fill="#63b8ff" stroke="#63b8ff" points="230.21,-82.85 236.41,-74.27 226.21,-77.11 230.21,-82.85"/>
</a>
</g>
</g>
<!-- Node20&#45;&gt;Node6 -->
<g id="edge28_Node000020_Node000006" class="edge">
<title>Node20&#45;&gt;Node6</title>
<g id="a_edge28_Node000020_Node000006"><a xlink:title=" ">
<path fill="none" stroke="#63b8ff" d="M896.52,-247.45C914.95,-239.37 940.42,-225.57 956,-206 983.27,-171.76 1002.11,-146.54 978,-110 967.55,-94.16 950.18,-83.94 932.59,-77.35"/>
<polygon fill="#63b8ff" stroke="#63b8ff" points="933.44,-73.95 922.85,-74.05 931.2,-80.58 933.44,-73.95"/>
</a>
</g>
</g>
<!-- Node20&#45;&gt;Node9 -->
<g id="edge25_Node000020_Node000009" class="edge">
<title>Node20&#45;&gt;Node9</title>
<g id="a_edge25_Node000020_Node000009"><a xlink:title=" ">
<path fill="none" stroke="#63b8ff" d="M907.91,-247.49C943.76,-238.24 1001.82,-222.56 1051,-206 1070.01,-199.6 1375.71,-90.57 1387,-74 1429.54,-11.58 1131.12,-8.61 1016,-9.74"/>
<polygon fill="#63b8ff" stroke="#63b8ff" points="1015.72,-6.24 1005.76,-9.86 1015.8,-13.24 1015.72,-6.24"/>
</a>
</g>
</g>
<!-- Node20&#45;&gt;Node11 -->
<g id="edge24_Node000020_Node000011" class="edge">
<title>Node20&#45;&gt;Node11</title>
<g id="a_edge24_Node000020_Node000011"><a xlink:title=" ">
<path fill="none" stroke="#63b8ff" d="M846.14,-247.44C826.74,-239.87 802.24,-226.76 790,-206 768.33,-169.22 797.36,-151.41 787,-110 784.65,-100.61 780.13,-90.89 775.79,-82.94"/>
<polygon fill="#63b8ff" stroke="#63b8ff" points="778.8,-81.15 770.75,-74.26 772.75,-84.67 778.8,-81.15"/>
</a>
</g>
</g>
<!-- Node20&#45;&gt;Node13 -->
<g id="edge42_Node000020_Node000013" class="edge">
<title>Node20&#45;&gt;Node13</title>
<g id="a_edge42_Node000020_Node000013"><a xlink:title=" ">
<path fill="none" stroke="#63b8ff" d="M830.14,-253.75C774.64,-249.63 676.99,-238.08 600,-206 578.49,-197.04 578.47,-185.06 557,-176 478.61,-142.93 445.1,-178.04 369,-140 351.27,-131.14 352.3,-121.28 336,-110 317.99,-97.54 296.02,-86.33 278.66,-78.28"/>
<polygon fill="#63b8ff" stroke="#63b8ff" points="280.1,-75.09 269.55,-74.14 277.21,-81.46 280.1,-75.09"/>
</a>
</g>
</g>
<!-- Node21 -->
<g id="Node000021" class="node">
<title>Node21</title>
<g id="a_Node000021"><a xlink:href="atom_8h.html" target="_top" xlink:title=" ">
<polygon fill="white" stroke="#666666" points="968.5,-134.5 873.5,-134.5 873.5,-115.5 968.5,-115.5 968.5,-134.5"/>
<text text-anchor="middle" x="921" y="-122.5" font-family="Helvetica,sans-Serif" font-size="10.00">occ/core/atom.h</text>
</a>
</g>
</g>
<!-- Node20&#45;&gt;Node21 -->
<g id="edge26_Node000020_Node000021" class="edge">
<title>Node20&#45;&gt;Node21</title>
<g id="a_edge26_Node000020_Node000021"><a xlink:title=" ">
<path fill="none" stroke="#63b8ff" d="M893.33,-247.48C909.11,-239.34 930.34,-225.44 940,-206 949.98,-185.91 940.55,-160.34 931.78,-143.58"/>
<polygon fill="#63b8ff" stroke="#63b8ff" points="934.81,-141.83 926.84,-134.85 928.71,-145.28 934.81,-141.83"/>
</a>
</g>
</g>
<!-- Node22 -->
<g id="Node000022" class="node">
<title>Node22</title>
<g id="a_Node000022"><a xlink:href="point__charge_8h.html" target="_top" xlink:title=" ">
<polygon fill="white" stroke="#666666" points="931,-200.5 799,-200.5 799,-181.5 931,-181.5 931,-200.5"/>
<text text-anchor="middle" x="865" y="-188.5" font-family="Helvetica,sans-Serif" font-size="10.00">occ/core/point_charge.h</text>
</a>
</g>
</g>
<!-- Node20&#45;&gt;Node22 -->
<g id="edge29_Node000020_Node000022" class="edge">
<title>Node20&#45;&gt;Node22</title>
<g id="a_edge29_Node000020_Node000022"><a xlink:title=" ">
<path fill="none" stroke="#63b8ff" d="M872.79,-247.37C871.48,-238.07 869.36,-222.98 867.66,-210.9"/>
<polygon fill="#63b8ff" stroke="#63b8ff" points="871.11,-210.32 866.25,-200.91 864.18,-211.3 871.11,-210.32"/>
</a>
</g>
</g>
<!-- Node23 -->
<g id="Node000023" class="node">
<title>Node23</title>
<g id="a_Node000023"><a xlink:href="util_8h.html" target="_top" xlink:title=" ">
<polygon fill="white" stroke="#666666" points="1186.5,-134.5 1101.5,-134.5 1101.5,-115.5 1186.5,-115.5 1186.5,-134.5"/>
<text text-anchor="middle" x="1144" y="-122.5" font-family="Helvetica,sans-Serif" font-size="10.00">occ/core/util.h</text>
</a>
</g>
</g>
<!-- Node20&#45;&gt;Node23 -->
<g id="edge32_Node000020_Node000023" class="edge">
<title>Node20&#45;&gt;Node23</title>
<g id="a_edge32_Node000020_Node000023"><a xlink:title=" ">
<path fill="none" stroke="#63b8ff" d="M902.19,-247.46C930.35,-238.54 974.56,-223.41 1011,-206 1052.36,-186.24 1097.48,-157.42 1123.1,-140.3"/>
<polygon fill="#63b8ff" stroke="#63b8ff" points="1125.28,-143.05 1131.61,-134.56 1121.36,-137.25 1125.28,-143.05"/>
</a>
</g>
</g>
<!-- Node21&#45;&gt;Node6 -->
<g id="edge27_Node000021_Node000006" class="edge">
<title>Node21&#45;&gt;Node6</title>
<g id="a_edge27_Node000021_Node000006"><a xlink:title=" ">
<path fill="none" stroke="#63b8ff" d="M914.06,-115.37C907.05,-106.64 896.04,-92.93 887.33,-82.09"/>
<polygon fill="#63b8ff" stroke="#63b8ff" points="889.96,-79.77 880.96,-74.17 884.5,-84.16 889.96,-79.77"/>
</a>
</g>
</g>
<!-- Node22&#45;&gt;Node11 -->
<g id="edge30_Node000022_Node000011" class="edge">
<title>Node22&#45;&gt;Node11</title>
<g id="a_edge30_Node000022_Node000011"><a xlink:title=" ">
<path fill="none" stroke="#63b8ff" d="M861.61,-181.38C855.25,-165.93 840.43,-133.01 821,-110 811.27,-98.47 798.16,-87.86 787.07,-79.89"/>
<polygon fill="#63b8ff" stroke="#63b8ff" points="788.92,-76.92 778.71,-74.1 784.94,-82.68 788.92,-76.92"/>
</a>
</g>
</g>
<!-- Node22&#45;&gt;Node21 -->
<g id="edge31_Node000022_Node000021" class="edge">
<title>Node22&#45;&gt;Node21</title>
<g id="a_edge31_Node000022_Node000021"><a xlink:title=" ">
<path fill="none" stroke="#63b8ff" d="M872.55,-181.37C881.19,-171.5 895.53,-155.11 906.37,-142.72"/>
<polygon fill="#63b8ff" stroke="#63b8ff" points="909.26,-144.74 913.21,-134.91 903.99,-140.13 909.26,-144.74"/>
</a>
</g>
</g>
<!-- Node23&#45;&gt;Node6 -->
<g id="edge39_Node000023_Node000006" class="edge">
<title>Node23&#45;&gt;Node6</title>
<g id="a_edge39_Node000023_Node000006"><a xlink:title=" ">
<path fill="none" stroke="#63b8ff" d="M1109.99,-115.44C1102.43,-113.6 1094.45,-111.69 1087,-110 1032.6,-97.64 970.09,-84.73 926.93,-76.02"/>
<polygon fill="#63b8ff" stroke="#63b8ff" points="927.43,-72.55 916.93,-74.01 926.05,-79.42 927.43,-72.55"/>
</a>
</g>
</g>
<!-- Node23&#45;&gt;Node9 -->
<g id="edge36_Node000023_Node000009" class="edge">
<title>Node23&#45;&gt;Node9</title>
<g id="a_edge36_Node000023_Node000009"><a xlink:title=" ">
<path fill="none" stroke="#63b8ff" d="M1112.82,-115.48C1070.66,-103.71 999.71,-82.93 991,-74 979.34,-62.04 974.79,-43.22 973.04,-29.17"/>
<polygon fill="#63b8ff" stroke="#63b8ff" points="976.52,-28.8 972.16,-19.15 969.55,-29.42 976.52,-28.8"/>
</a>
</g>
</g>
<!-- Node23&#45;&gt;Node12 -->
<g id="edge40_Node000023_Node000012" class="edge">
<title>Node23&#45;&gt;Node12</title>
<g id="a_edge40_Node000023_Node000012"><a xlink:title=" ">
<path fill="none" stroke="#63b8ff" d="M1101.25,-119.65C991,-108.43 698.83,-78.71 601.25,-68.78"/>
<polygon fill="#63b8ff" stroke="#63b8ff" points="601.42,-65.28 591.11,-67.75 600.71,-72.24 601.42,-65.28"/>
</a>
</g>
</g>
<!-- Node23&#45;&gt;Node13 -->
<g id="edge41_Node000023_Node000013" class="edge">
<title>Node23&#45;&gt;Node13</title>
<g id="a_edge41_Node000023_Node000013"><a xlink:title=" ">
<path fill="none" stroke="#63b8ff" d="M1101.37,-120.13C1067.86,-117.16 1019.97,-113.05 978,-110 710.2,-90.54 386.64,-72.82 282.8,-67.28"/>
<polygon fill="#63b8ff" stroke="#63b8ff" points="282.79,-63.78 272.61,-66.74 282.41,-70.77 282.79,-63.78"/>
</a>
</g>
</g>
<!-- Node24 -->
<g id="Node000024" class="node">
<title>Node24</title>
<g id="a_Node000024"><a xlink:title=" ">
<polygon fill="#e0e0e0" stroke="#999999" points="1138,-74 1074,-74 1074,-55 1138,-55 1138,-74"/>
<text text-anchor="middle" x="1106" y="-62" font-family="Helvetica,sans-Serif" font-size="10.00">algorithm</text>
</a>
</g>
</g>
<!-- Node23&#45;&gt;Node24 -->
<g id="edge33_Node000023_Node000024" class="edge">
<title>Node23&#45;&gt;Node24</title>
<g id="a_edge33_Node000023_Node000024"><a xlink:title=" ">
<path fill="none" stroke="#63b8ff" d="M1138.39,-115.37C1132.84,-106.81 1124.17,-93.47 1117.2,-82.74"/>
<polygon fill="#63b8ff" stroke="#63b8ff" points="1120.01,-80.65 1111.63,-74.17 1114.14,-84.46 1120.01,-80.65"/>
</a>
</g>
</g>
<!-- Node25 -->
<g id="Node000025" class="node">
<title>Node25</title>
<g id="a_Node000025"><a xlink:title=" ">
<polygon fill="#e0e0e0" stroke="#999999" points="1205.5,-74 1156.5,-74 1156.5,-55 1205.5,-55 1205.5,-74"/>
<text text-anchor="middle" x="1181" y="-62" font-family="Helvetica,sans-Serif" font-size="10.00">cctype</text>
</a>
</g>
</g>
<!-- Node23&#45;&gt;Node25 -->
<g id="edge34_Node000023_Node000025" class="edge">
<title>Node23&#45;&gt;Node25</title>
<g id="a_edge34_Node000023_Node000025"><a xlink:title=" ">
<path fill="none" stroke="#63b8ff" d="M1149.46,-115.37C1154.87,-106.81 1163.31,-93.47 1170.1,-82.74"/>
<polygon fill="#63b8ff" stroke="#63b8ff" points="1173.13,-84.49 1175.52,-74.17 1167.21,-80.75 1173.13,-84.49"/>
</a>
</g>
</g>
<!-- Node26 -->
<g id="Node000026" class="node">
<title>Node26</title>
<g id="a_Node000026"><a xlink:title=" ">
<polygon fill="#e0e0e0" stroke="#999999" points="1274,-74 1224,-74 1224,-55 1274,-55 1274,-74"/>
<text text-anchor="middle" x="1249" y="-62" font-family="Helvetica,sans-Serif" font-size="10.00">chrono</text>
</a>
</g>
</g>
<!-- Node23&#45;&gt;Node26 -->
<g id="edge35_Node000023_Node000026" class="edge">
<title>Node23&#45;&gt;Node26</title>
<g id="a_edge35_Node000023_Node000026"><a xlink:title=" ">
<path fill="none" stroke="#63b8ff" d="M1159.49,-115.37C1176.63,-105.82 1204.47,-90.31 1224.56,-79.12"/>
<polygon fill="#63b8ff" stroke="#63b8ff" points="1226.41,-82.09 1233.44,-74.17 1223,-75.98 1226.41,-82.09"/>
</a>
</g>
</g>
<!-- Node27 -->
<g id="Node000027" class="node">
<title>Node27</title>
<g id="a_Node000027"><a xlink:title=" ">
<polygon fill="#e0e0e0" stroke="#999999" points="1378,-74 1292,-74 1292,-55 1378,-55 1378,-74"/>
<text text-anchor="middle" x="1335" y="-62" font-family="Helvetica,sans-Serif" font-size="10.00">fmt/ostream.h</text>
</a>
</g>
</g>
<!-- Node23&#45;&gt;Node27 -->
<g id="edge37_Node000023_Node000027" class="edge">
<title>Node23&#45;&gt;Node27</title>
<g id="a_edge37_Node000023_Node000027"><a xlink:title=" ">
<path fill="none" stroke="#63b8ff" d="M1171.77,-115.49C1204.87,-105.36 1260.34,-88.37 1297.29,-77.05"/>
<polygon fill="#63b8ff" stroke="#63b8ff" points="1298.66,-80.29 1307.19,-74.02 1296.61,-73.6 1298.66,-80.29"/>
</a>
</g>
</g>
<!-- Node28 -->
<g id="Node000028" class="node">
<title>Node28</title>
<g id="a_Node000028"><a xlink:title=" ">
<polygon fill="#e0e0e0" stroke="#999999" points="1056,-74 1000,-74 1000,-55 1056,-55 1056,-74"/>
<text text-anchor="middle" x="1028" y="-62" font-family="Helvetica,sans-Serif" font-size="10.00">numeric</text>
</a>
</g>
</g>
<!-- Node23&#45;&gt;Node28 -->
<g id="edge38_Node000023_Node000028" class="edge">
<title>Node23&#45;&gt;Node28</title>
<g id="a_edge38_Node000023_Node000028"><a xlink:title=" ">
<path fill="none" stroke="#63b8ff" d="M1126.88,-115.37C1107.78,-105.73 1076.63,-90.03 1054.4,-78.81"/>
<polygon fill="#63b8ff" stroke="#63b8ff" points="1055.69,-75.55 1045.19,-74.17 1052.54,-81.8 1055.69,-75.55"/>
</a>
</g>
</g>
<!-- Node29&#45;&gt;Node20 -->
<g id="edge44_Node000029_Node000020" class="edge">
<title>Node29&#45;&gt;Node20</title>
<g id="a_edge44_Node000029_Node000020"><a xlink:title=" ">
<path fill="none" stroke="#63b8ff" d="M920.72,-313.37C912.39,-303.5 898.56,-287.11 888.11,-274.72"/>
<polygon fill="#63b8ff" stroke="#63b8ff" points="890.64,-272.29 881.51,-266.91 885.29,-276.81 890.64,-272.29"/>
</a>
</g>
</g>
<!-- Node30 -->
<g id="Node000030" class="node">
<title>Node30</title>
<g id="a_Node000030"><a xlink:href="orbital__smearing_8h.html" target="_top" xlink:title=" ">
<polygon fill="white" stroke="#666666" points="1099,-266.5 953,-266.5 953,-247.5 1099,-247.5 1099,-266.5"/>
<text text-anchor="middle" x="1026" y="-254.5" font-family="Helvetica,sans-Serif" font-size="10.00">occ/qm/orbital_smearing.h</text>
</a>
</g>
</g>
<!-- Node29&#45;&gt;Node30 -->
<g id="edge45_Node000029_Node000030" class="edge">
<title>Node29&#45;&gt;Node30</title>
<g id="a_edge45_Node000029_Node000030"><a xlink:title=" ">
<path fill="none" stroke="#63b8ff" d="M941.22,-313.37C957.36,-302.82 984.91,-284.84 1004.21,-272.23"/>
<polygon fill="#63b8ff" stroke="#63b8ff" points="1006.22,-275.1 1012.68,-266.7 1002.39,-269.24 1006.22,-275.1"/>
</a>
</g>
</g>
<!-- Node31 -->
<g id="Node000031" class="node">
<title>Node31</title>
<g id="a_Node000031"><a xlink:href="spinorbital_8h.html" target="_top" xlink:title=" ">
<polygon fill="white" stroke="#666666" points="1434,-200.5 1318,-200.5 1318,-181.5 1434,-181.5 1434,-200.5"/>
<text text-anchor="middle" x="1376" y="-188.5" font-family="Helvetica,sans-Serif" font-size="10.00">occ/qm/spinorbital.h</text>
</a>
</g>
</g>
<!-- Node29&#45;&gt;Node31 -->
<g id="edge47_Node000029_Node000031" class="edge">
<title>Node29&#45;&gt;Node31</title>
<g id="a_edge47_Node000029_Node000031"><a xlink:title=" ">
<path fill="none" stroke="#63b8ff" d="M959.59,-313.42C995.58,-303.6 1056.11,-286.95 1108,-272 1190.24,-248.31 1286.27,-219.32 1338.12,-203.56"/>
<polygon fill="#63b8ff" stroke="#63b8ff" points="1339.34,-206.84 1347.89,-200.59 1337.3,-200.15 1339.34,-206.84"/>
</a>
</g>
</g>
<!-- Node30&#45;&gt;Node6 -->
<g id="edge46_Node000030_Node000006" class="edge">
<title>Node30&#45;&gt;Node6</title>
<g id="a_edge46_Node000030_Node000006"><a xlink:title=" ">
<path fill="none" stroke="#63b8ff" d="M1026.99,-247.19C1029.25,-222.35 1032.2,-150.96 997,-110 983.07,-93.79 962.77,-83.49 942.65,-76.94"/>
<polygon fill="#63b8ff" stroke="#63b8ff" points="943.4,-73.51 932.82,-74.01 941.41,-80.22 943.4,-73.51"/>
</a>
</g>
</g>
<!-- Node31&#45;&gt;Node6 -->
<g id="edge48_Node000031_Node000006" class="edge">
<title>Node31&#45;&gt;Node6</title>
<g id="a_edge48_Node000031_Node000006"><a xlink:title=" ">
<path fill="none" stroke="#63b8ff" d="M1317.92,-186.9C1259.29,-182.15 1167.05,-170.15 1093,-140 1071.08,-131.07 1070.58,-119.73 1049,-110 1013.5,-93.99 971.24,-83.04 937.14,-76"/>
<polygon fill="#63b8ff" stroke="#63b8ff" points="937.79,-72.57 927.3,-74.04 936.42,-79.43 937.79,-72.57"/>
</a>
</g>
</g>
<!-- Node31&#45;&gt;Node23 -->
<g id="edge49_Node000031_Node000023" class="edge">
<title>Node31&#45;&gt;Node23</title>
<g id="a_edge49_Node000031_Node000023"><a xlink:title=" ">
<path fill="none" stroke="#63b8ff" d="M1344.71,-181.37C1303.43,-169.98 1230.68,-149.91 1185.03,-137.32"/>
<polygon fill="#63b8ff" stroke="#63b8ff" points="1185.73,-133.88 1175.16,-134.6 1183.87,-140.63 1185.73,-133.88"/>
</a>
</g>
</g>
<!-- Node32 -->
<g id="Node000032" class="node">
<title>Node32</title>
<g id="a_Node000032"><a xlink:href="qm_2opmatrix_8h.html" target="_top" xlink:title=" ">
<polygon fill="white" stroke="#666666" points="1430,-134.5 1322,-134.5 1322,-115.5 1430,-115.5 1430,-134.5"/>
<text text-anchor="middle" x="1376" y="-122.5" font-family="Helvetica,sans-Serif" font-size="10.00">occ/qm/opmatrix.h</text>
</a>
</g>
</g>
<!-- Node31&#45;&gt;Node32 -->
<g id="edge50_Node000031_Node000032" class="edge">
<title>Node31&#45;&gt;Node32</title>
<g id="a_edge50_Node000031_Node000032"><a xlink:title=" ">
<path fill="none" stroke="#63b8ff" d="M1371.21,-181.37C1369.22,-172.07 1368.75,-156.98 1369.78,-144.9"/>
<polygon fill="#63b8ff" stroke="#63b8ff" points="1373.26,-145.29 1371.15,-134.91 1366.32,-144.34 1373.26,-145.29"/>
</a>
</g>
</g>
<!-- Node32&#45;&gt;Node31 -->
<g id="edge51_Node000032_Node000031" class="edge">
<title>Node32&#45;&gt;Node31</title>
<g id="a_edge51_Node000032_Node000031"><a xlink:title=" ">
<path fill="none" stroke="#63b8ff" d="M1380.85,-134.91C1382.8,-144.32 1383.25,-159.43 1382.19,-171.45"/>
<polygon fill="#63b8ff" stroke="#63b8ff" points="1378.72,-170.98 1380.79,-181.37 1385.65,-171.96 1378.72,-170.98"/>
</a>
</g>
</g>
<!-- Node33&#45;&gt;Node12 -->
<g id="edge56_Node000033_Node000012" class="edge">
<title>Node33&#45;&gt;Node12</title>
<g id="a_edge56_Node000033_Node000012"><a xlink:title=" ">
<path fill="none" stroke="#63b8ff" d="M665.2,-181.43C655.33,-171.68 639.01,-155.16 626,-140 609.67,-120.96 592.35,-97.86 581.15,-82.48"/>
<polygon fill="#63b8ff" stroke="#63b8ff" points="583.72,-80.06 575.03,-74.01 578.05,-84.16 583.72,-80.06"/>
</a>
</g>
</g>
<!-- Node33&#45;&gt;Node13 -->
<g id="edge57_Node000033_Node000013" class="edge">
<title>Node33&#45;&gt;Node13</title>
<g id="a_edge57_Node000033_Node000013"><a xlink:title=" ">
<path fill="none" stroke="#63b8ff" d="M623.22,-181.49C552.59,-169.46 431.18,-148.08 412,-140 390.53,-130.95 389.65,-120.8 369,-110 340.97,-95.33 307,-83.21 282.37,-75.35"/>
<polygon fill="#63b8ff" stroke="#63b8ff" points="283.34,-71.99 272.76,-72.34 281.26,-78.67 283.34,-71.99"/>
</a>
</g>
</g>
<!-- Node33&#45;&gt;Node21 -->
<g id="edge55_Node000033_Node000021" class="edge">
<title>Node33&#45;&gt;Node21</title>
<g id="a_edge55_Node000033_Node000021"><a xlink:title=" ">
<path fill="none" stroke="#63b8ff" d="M707.06,-181.44C751.24,-169.99 829.6,-149.68 878.24,-137.08"/>
<polygon fill="#63b8ff" stroke="#63b8ff" points="879.34,-140.41 888.14,-134.51 877.58,-133.63 879.34,-140.41"/>
</a>
</g>
</g>
<!-- Node34 -->
<g id="Node000034" class="node">
<title>Node34</title>
<g id="a_Node000034"><a xlink:title=" ">
<polygon fill="#e0e0e0" stroke="#999999" points="778.5,-134.5 635.5,-134.5 635.5,-115.5 778.5,-115.5 778.5,-134.5"/>
<text text-anchor="middle" x="707" y="-122.5" font-family="Helvetica,sans-Serif" font-size="10.00">ankerl/unordered_dense.h</text>
</a>
</g>
</g>
<!-- Node33&#45;&gt;Node34 -->
<g id="edge54_Node000033_Node000034" class="edge">
<title>Node33&#45;&gt;Node34</title>
<g id="a_edge54_Node000033_Node000034"><a xlink:title=" ">
<path fill="none" stroke="#63b8ff" d="M678.45,-181.37C683.39,-171.78 691.51,-156.05 697.82,-143.8"/>
<polygon fill="#63b8ff" stroke="#63b8ff" points="700.94,-145.4 702.41,-134.91 694.71,-142.19 700.94,-145.4"/>
</a>
</g>
</g>
</g>
</svg>
